<?xml version="1.0" encoding="utf-8"?>
<!-- Generator: Adobe Illustrator 10.0, SVG Export Plug-In . SVG Version: 3.0.0 Build 77)  -->
<!DOCTYPE svg PUBLIC "-//W3C//DTD SVG 1.0//EN" "http://www.w3.org/TR/2001/REC-SVG-20010904/DTD/svg10.dtd"[
	<!ENTITY ns_flows "http://ns.adobe.com/Flows/1.0/">
	<!ENTITY ns_svg "http://www.w3.org/2000/svg">
	<!ENTITY ns_xlink "http://www.w3.org/1999/xlink">
	<!ENTITY st0 "fill:none;stroke:#000000;stroke-linecap:round;stroke-linejoin:round;">
	<!ENTITY st1 "fill:none;stroke:#000000;stroke-width:0.6;stroke-linecap:round;stroke-linejoin:round;">
	<!ENTITY st2 "font-size:6px;">
	<!ENTITY st3 "font-family:'Arial';">
	<!ATTLIST svg
		ewd:ver CDATA #IMPLIED
		xmlns:ewd CDATA #FIXED "http://shcl.co.jp/ewd"
		xmlns:a CDATA #FIXED "http://ns.adobe.com/AdobeSVGViewerExtensions/3.0/">
	<!ATTLIST g
		ewd:pinNo CDATA #IMPLIED>
	<!ATTLIST text
		ewd:textID CDATA #IMPLIED
		ewd:horAlign CDATA #IMPLIED>
	<!ATTLIST title
		ewd:textID CDATA #IMPLIED>
]>
<svg ewd:ver="2.1.2.6F" height="52.7" onload="call_execInitLoadProc_svg('connector')" style="overflow:visible;enable-background:new 0 0 30.745 52.7" viewBox="0 0 30.745 52.7" width="30.745" xml:space="preserve" xmlns="&ns_svg;" xmlns:ewd="http://shcl.co.jp/ewd" xmlns:a="http://ns.adobe.com/AdobeSVGViewerExtensions/3.0/" xmlns:xlink="&ns_xlink;">
<script type="text/javascript" xlink:href="../../../../../system/js/ewd/fig/svgfig.js" xmlns:xlink="http://www.w3.org/1999/xlink" />
<g id="レイヤー_1">
	<path d="M23.871,34.495H6.874" style="&st1;" />
	<path d="M15.373,23.163v22.663" style="&st1;" />
	<path d="M21.038,0.5H9.707" style="&st0;" />
	<path d="M28.12,42.993V25.996" style="&st1;" />
	<path d="M2.625,42.993V25.996" style="&st1;" />
	<path d="M5.458,49.367h19.83" style="&st0;" />
	<path d="M5.458,47.951h19.83" style="&st1;" />
	<path d="M5.458,16.081h4.249" style="&st1;" />
	<path d="M25.288,16.081h-4.25" style="&st1;" />
	<path d="M18.206,4.75H12.54" style="&st1;" />
	<path d="M26.704,44.41v2.125" style="&st1;" />
	<path d="M4.041,44.41v2.125" style="&st1;" />
	<path d="M4.041,18.914v5.666" style="&st1;" />
	<path d="M26.704,18.914v5.666" style="&st1;" />
	<path d="M24.579,4.75h2.833" style="&st0;" />
	<path d="M3.333,4.75h2.833" style="&st0;" />
	<path d="M23.871,5.458v7.791" style="&st0;" />
	<path d="M6.874,5.458v7.791" style="&st0;" />
	<path d="M8.291,1.917v2.125" style="&st0;" />
	<path d="M22.455,1.917v2.125" style="&st0;" />
	<path d="M25.288,47.951c0.782,0,1.417-0.634,1.417-1.417" style="&st1;" />
	<path d="M4.041,46.534c0,0.782,0.634,1.417,1.417,1.417" style="&st1;" />
	<path d="M5.458,17.498c-0.783,0-1.417,0.634-1.417,1.417" style="&st1;" />
	<path d="M26.704,18.914c0-0.782-0.634-1.417-1.417-1.417" style="&st1;" />
	<path d="M25.288,49.367c1.564,0,2.833-1.269,2.833-2.833" style="&st0;" />
	<path d="M28.12,18.914c0-1.564-1.268-2.833-2.833-2.833" style="&st1;" />
	<path d="M21.038,16.081c1.564,0,2.833-1.269,2.833-2.833" style="&st0;" />
	<path d="M6.874,13.248c0,1.564,1.268,2.833,2.833,2.833" style="&st0;" />
	<path d="M28.12,5.458c0-0.391-0.317-0.708-0.708-0.708" style="&st0;" />
	<path d="M24.579,4.75c-0.391,0-0.708,0.317-0.708,0.708" style="&st0;" />
	<path d="M6.874,5.458c0-0.391-0.317-0.708-0.708-0.708" style="&st0;" />
	<path d="M3.333,4.75c-0.391,0-0.708,0.317-0.708,0.708" style="&st0;" />
	<path d="M21.747,4.75c0.391,0,0.708-0.317,0.708-0.708" style="&st0;" />
	<path d="M8.291,4.041c0,0.392,0.317,0.708,0.708,0.708" style="&st0;" />
	<path d="M22.455,1.917c0-0.782-0.634-1.417-1.417-1.417" style="&st0;" />
	<path d="M9.707,0.5c-0.782,0-1.416,0.634-1.416,1.417" style="&st0;" />
	<path d="M2.625,46.534c0,1.564,1.269,2.833,2.833,2.833" style="&st0;" />
	<path d="M5.458,16.081c-1.564,0-2.833,1.269-2.833,2.833" style="&st1;" />
	<path d="M23.871,23.163H6.874v22.663h16.997V23.163" style="&st1;" />
	<path d="M2.625,24.58h2.125v19.83H2.625" style="&st1;" />
	<path d="M28.12,24.58h-2.125v19.83h2.125" style="&st1;" />
	<path d="M28.12,5.458v20.538h2.125v16.998H28.12v3.541" style="&st0;" />
	<path d="M2.625,46.534v-3.541H0.5V25.996h2.125V5.458" style="&st0;" />
	<path d="M25.288,49.367V52.2H5.458v-2.833" style="&st0;" />
	<path d="M5.458,17.498h7.082v-1.417" style="&st1;" />
	<path d="M9.707,16.081h2.833V4.75H8.999" style="&st0;" />
	<path d="M25.288,17.498h-7.082v-1.417" style="&st1;" />
	<path d="M21.747,4.75h-3.541v11.332h2.833" style="&st0;" />
	<g ewd:pinNo="4">
		<text transform="matrix(1 0 0 1 17.957 42.3906)"><tspan style="&st3; &st2;" x="0" y="0">4</tspan></text>
	</g>
	<g ewd:pinNo="1">
		<text transform="matrix(1 0 0 1 9.4585 31.0591)"><tspan style="&st3; &st2;" x="0" y="0">1</tspan></text>
	</g>
	<g ewd:pinNo="3">
		<text transform="matrix(1 0 0 1 9.4585 42.3906)"><tspan style="&st3; &st2;" x="0" y="0">3</tspan></text>
	</g>
	<g ewd:pinNo="2">
		<text transform="matrix(1 0 0 1 17.957 31.0591)"><tspan style="&st3; &st2;" x="0" y="0">2</tspan></text>
	</g>
</g>
</svg>