<?xml version="1.0" encoding="utf-8"?>
<!-- Generator: Adobe Illustrator 10.0, SVG Export Plug-In . SVG Version: 3.0.0 Build 77)  -->
<!DOCTYPE svg PUBLIC "-//W3C//DTD SVG 1.0//EN" "http://www.w3.org/TR/2001/REC-SVG-20010904/DTD/svg10.dtd"[
	<!ENTITY ns_flows "http://ns.adobe.com/Flows/1.0/">
	<!ENTITY ns_svg "http://www.w3.org/2000/svg">
	<!ENTITY ns_xlink "http://www.w3.org/1999/xlink">
	<!ENTITY st0 "fill:none;stroke:#000000;stroke-linecap:round;stroke-linejoin:round;">
	<!ENTITY st1 "fill:none;stroke:#000000;stroke-width:0.6;stroke-linecap:round;stroke-linejoin:round;">
	<!ENTITY st2 "font-size:6px;">
	<!ENTITY st3 "font-family:'Arial';">
	<!ATTLIST svg
		ewd:ver CDATA #IMPLIED
		xmlns:ewd CDATA #FIXED "http://shcl.co.jp/ewd"
		xmlns:a CDATA #FIXED "http://ns.adobe.com/AdobeSVGViewerExtensions/3.0/">
	<!ATTLIST g
		ewd:pinNo CDATA #IMPLIED>
	<!ATTLIST text
		ewd:textID CDATA #IMPLIED
		ewd:horAlign CDATA #IMPLIED>
	<!ATTLIST title
		ewd:textID CDATA #IMPLIED>
]>
<svg ewd:ver="2.1.2.6F" height="44.345" onload="call_execInitLoadProc_svg('connector')" style="overflow:visible;enable-background:new 0 0 57.601 44.345" viewBox="0 0 57.601 44.345" width="57.601" xml:space="preserve" xmlns="&ns_svg;" xmlns:ewd="http://shcl.co.jp/ewd" xmlns:a="http://ns.adobe.com/AdobeSVGViewerExtensions/3.0/" xmlns:xlink="&ns_xlink;">
<script type="text/javascript" xlink:href="../../../../../system/js/ewd/fig/svgfig.js" xmlns:xlink="http://www.w3.org/1999/xlink" />
<g id="レイヤー_1">
	<path d="M57.101,17.073c0-1.408-1.142-2.549-2.55-2.549" style="&st1;" />
	<path d="M1.248,36.722c0.497,0.498,1.098,0.746,1.801,0.746" style="&st1;" />
	<path d="M3.049,14.523c-1.408,0-2.549,1.142-2.549,2.549" style="&st1;" />
	<path d="M14.253,0.5c-0.333,0-0.616,0.11-0.861,0.335" style="&st0;" />
	<path d="M44.208,0.835C43.963,0.61,43.679,0.5,43.347,0.5" style="&st0;" />
	<path d="M56.353,36.722c0.498-0.498,0.747-1.098,0.747-1.802" style="&st0;" />
	<path d="M0.5,34.92c0,0.704,0.249,1.305,0.747,1.803" style="&st0;" />
	<path d="M54.551,37.469c0.704,0,1.305-0.249,1.803-0.747" style="&st1;" />
	<path d="M6.075,42.138c1.006,1.128,2.296,1.707,3.808,1.707" style="&st0;" />
	<path d="M47.718,43.843c1.511,0,2.801-0.578,3.806-1.706" style="&st0;" />
	<path d="M19.367,10.954c0,0.782,0.634,1.417,1.417,1.417" style="&st1;" />
	<path d="M36.817,12.371c0.782,0,1.416-0.634,1.416-1.417" style="&st1;" />
	<path d="M17.582,14.523V1.775" style="&st1;" />
	<path d="M8.97,17.923v15.581h39.66V17.923H8.97" style="&st1;" />
	<path d="M28.8,33.503V17.923" style="&st1;" />
	<path d="M52.766,8.659h4.334" style="&st0;" />
	<path d="M36.449,7.384h1.785" style="&st1;" />
	<path d="M57.101,8.659V34.92" style="&st0;" />
	<path d="M54.041,14.523V8.659" style="&st1;" />
	<path d="M21.151,7.384h-1.785" style="&st1;" />
	<path d="M3.049,37.469h51.501" style="&st1;" />
	<path d="M52.766,8.659l-8.558-7.824" style="&st0;" />
	<path d="M40.019,14.523V1.775" style="&st1;" />
	<path d="M24.268,10.444h9.065" style="&st1;" />
	<path d="M0.5,8.659V34.92" style="&st0;" />
	<path d="M3.559,14.523V8.659" style="&st1;" />
	<path d="M4.834,8.659H0.5" style="&st0;" />
	<path d="M4.834,8.659l8.558-7.824" style="&st0;" />
	<path d="M14.253,0.5h29.094" style="&st0;" />
	<path d="M36.449,10.954v3.569h3.57" style="&st1;" />
	<path d="M21.151,10.954v3.569h-3.569" style="&st1;" />
	<path d="M40.019,14.523h1.785V7.384h3.824v7.139h8.923" style="&st1;" />
	<path d="M1.248,36.722l4.827,5.417" style="&st0;" />
	<path d="M17.582,14.523h-1.785V7.384h-3.824v7.139H3.049" style="&st1;" />
	<path d="M47.718,43.843H9.882" style="&st0;" />
	<path d="M56.353,36.722l-4.827,5.417" style="&st0;" />
	<path d="M17.582,1.775h22.437" style="&st1;" />
	<path d="M19.367,3.05v7.904" style="&st1;" />
	<path d="M38.233,3.05v7.904" style="&st1;" />
	<path d="M19.367,3.05h18.867" style="&st1;" />
	<path d="M20.783,12.371h0.368" style="&st1;" />
	<path d="M36.449,12.371h0.369" style="&st1;" />
	<path d="M36.449,9.169v1.785" style="&st1;" />
	<path d="M21.151,9.169v1.785" style="&st1;" />
	<path d="M21.151,7.384h15.297" style="&st1;" />
	<path d="M19.367,9.169h6.884V7.384" style="&st1;" />
	<path d="M31.35,7.384v1.785h6.884" style="&st1;" />
	<path d="M24.268,9.169v3.938h9.065V9.169" style="&st1;" />
	<path d="M0.5,19.056h2.833v13.881H0.5" style="&st1;" />
	<path d="M57.101,19.056h-2.833v13.881h2.833" style="&st1;" />
	<g ewd:pinNo="2">
		<text transform="matrix(1 0 0 1 37.2158 27.2759)"><tspan style="&st3; &st2;" x="0" y="0">2</tspan></text>
	</g>
	<g ewd:pinNo="1">
		<text transform="matrix(1 0 0 1 17.3857 27.2759)"><tspan style="&st3; &st2;" x="0" y="0">1</tspan></text>
	</g>
</g>
</svg>