<?xml version="1.0" encoding="utf-8"?>
<!-- Generator: Adobe Illustrator 10.0, SVG Export Plug-In . SVG Version: 3.0.0 Build 77)  -->
<!DOCTYPE svg PUBLIC "-//W3C//DTD SVG 1.0//EN" "http://www.w3.org/TR/2001/REC-SVG-20010904/DTD/svg10.dtd"[
	<!ENTITY ns_flows "http://ns.adobe.com/Flows/1.0/">
	<!ENTITY ns_svg "http://www.w3.org/2000/svg">
	<!ENTITY ns_xlink "http://www.w3.org/1999/xlink">
	<!ENTITY st0 "fill:none;stroke:#000000;stroke-linecap:round;stroke-linejoin:round;">
	<!ENTITY st1 "fill:none;stroke:#000000;stroke-width:0.6;stroke-linecap:round;stroke-linejoin:round;">
	<!ENTITY st2 "font-size:6px;">
	<!ENTITY st3 "font-family:'Arial';">
	<!ATTLIST svg
		ewd:ver CDATA #IMPLIED
		xmlns:ewd CDATA #FIXED "http://shcl.co.jp/ewd"
		xmlns:a CDATA #FIXED "http://ns.adobe.com/AdobeSVGViewerExtensions/3.0/">
	<!ATTLIST g
		ewd:pinNo CDATA #IMPLIED>
	<!ATTLIST text
		ewd:textID CDATA #IMPLIED
		ewd:horAlign CDATA #IMPLIED>
	<!ATTLIST title
		ewd:textID CDATA #IMPLIED>
]>
<svg ewd:ver="2.1.2.6F" height="73.805" onload="call_execInitLoadProc_svg('connector')" style="overflow:visible;enable-background:new 0 0 211.198 73.805" viewBox="0 0 211.198 73.805" width="211.198" xml:space="preserve" xmlns="&ns_svg;" xmlns:ewd="http://shcl.co.jp/ewd" xmlns:a="http://ns.adobe.com/AdobeSVGViewerExtensions/3.0/" xmlns:xlink="&ns_xlink;">
<script type="text/javascript" xlink:href="../../../../../system/js/ewd/fig/svgfig.js" xmlns:xlink="http://www.w3.org/1999/xlink" />
<g id="レイヤー_1">
	<path d="M206.248,68.617c2.635-0.579,4.449-2.835,4.449-5.532" style="&st0;" />
	<path d="M0.5,63.308c0,2.6,1.67,4.785,4.178,5.467" style="&st0;" />
	<path d="M71.888,1.917c0-0.782-0.634-1.417-1.417-1.417" style="&st0;" />
	<path d="M140.727,0.5c-0.782,0-1.417,0.634-1.417,1.417" style="&st0;" />
	<path d="M47.265,0.5c-2.785,0-5.16,0.866-7.292,2.658" style="&st0;" />
	<path d="M15.333,14.665c0.695,0,1.289-0.216,1.821-0.663" style="&st0;" />
	<path d="M4.749,14.665c-2.347,0-4.249,1.902-4.249,4.25" style="&st0;" />
	<path d="M171.225,3.158c-2.132-1.792-4.507-2.658-7.292-2.658" style="&st0;" />
	<path d="M210.698,18.915c0-2.347-1.903-4.25-4.25-4.25" style="&st0;" />
	<path d="M194.044,14.002c0.533,0.447,1.126,0.664,1.821,0.664" style="&st0;" />
	<path d="M207.724,61.974l2.975-1.983" style="&st1;" />
	<path d="M79.678,17.498v-4.25h7.083v4.25" style="&st1;" />
	<path d="M86.761,15.374h5.666" style="&st1;" />
	<path d="M92.426,17.498v-5.666h26.346v5.666" style="&st1;" />
	<path d="M210.698,63.084v-44.17" style="&st0;" />
	<path d="M0.5,63.308V18.915" style="&st0;" />
	<path d="M6.449,33.079v25.496h198.3V33.079H6.449" style="&st1;" />
	<path d="M6.449,45.827h198.3" style="&st1;" />
	<path d="M26.279,58.574V33.079" style="&st1;" />
	<path d="M79.678,17.498h51.841" style="&st1;" />
	<path d="M65.939,58.574V33.079" style="&st1;" />
	<path d="M75.854,58.574V33.079" style="&st1;" />
	<path d="M85.769,58.574V33.079" style="&st1;" />
	<path d="M95.684,58.574V33.079" style="&st1;" />
	<path d="M105.599,58.574V33.079" style="&st1;" />
	<path d="M115.514,58.574V33.079" style="&st1;" />
	<path d="M125.429,58.574V33.079" style="&st1;" />
	<path d="M135.344,58.574V33.079" style="&st1;" />
	<path d="M145.259,58.574V33.079" style="&st1;" />
	<path d="M184.919,58.574V33.079" style="&st1;" />
	<path d="M3.474,61.974h204.25" style="&st1;" />
	<path d="M3.474,61.974L0.5,59.991" style="&st1;" />
	<path d="M0.5,57.158h1.416" style="&st1;" />
	<path d="M79.678,17.498v9.348" style="&st0;" />
	<path d="M75.783,9h59.632" style="&st1;" />
	<path d="M6.449,18.915v7.932" style="&st1;" />
	<path d="M79.678,17.498h-3.895V6.167l18.06-2.833h23.513l18.06,2.833v11.332h-3.896" style="&st0;" />
	<path d="M47.265,0.5h23.207" style="&st0;" />
	<path d="M71.888,1.917v24.929" style="&st0;" />
	<path d="M131.52,17.498v-4.25h-7.082v4.25" style="&st1;" />
	<path d="M124.438,15.374h-5.666" style="&st1;" />
	<path d="M4.678,68.775l16.643,4.53h163.598l21.329-4.688" style="&st0;" />
	<path d="M131.52,17.498v9.348" style="&st0;" />
	<path d="M204.749,18.915v7.932" style="&st1;" />
	<path d="M142.285,0.5h-1.558" style="&st0;" />
	<path d="M171.038,26.846H139.31" style="&st1;" />
	<path d="M139.31,1.917v24.929" style="&st0;" />
	<path d="M71.888,26.846h7.79" style="&st0;" />
	<path d="M131.52,26.846h7.791" style="&st0;" />
	<path d="M5.032,61.974v5.666h201.133v-5.666" style="&st1;" />
	<path d="M36.194,58.574V33.079" style="&st1;" />
	<path d="M175.004,58.574V33.079" style="&st1;" />
	<path d="M6.449,26.846h19.83" style="&st1;" />
	<path d="M40.16,26.846h31.728" style="&st1;" />
	<path d="M26.279,26.846v-9.348H40.16v9.348" style="&st1;" />
	<path d="M65.939,26.846V0.5" style="&st1;" />
	<path d="M4.749,14.665h10.584" style="&st0;" />
	<path d="M17.154,14.002L39.973,3.158" style="&st0;" />
	<path d="M98.092,15.374h15.014" style="&st1;" />
	<path d="M98.092,11.832v5.666" style="&st1;" />
	<path d="M113.106,17.498v-5.666" style="&st1;" />
	<path d="M145.259,26.846V0.5" style="&st1;" />
	<path d="M184.919,26.846v-9.348h-13.881v9.348" style="&st1;" />
	<path d="M163.933,0.5h-23.207" style="&st0;" />
	<path d="M206.449,14.665h-10.583" style="&st0;" />
	<path d="M194.044,14.002L171.225,3.158" style="&st0;" />
	<path d="M184.919,26.846h19.83" style="&st1;" />
	<path d="M1.916,57.158l4.533,3.399" style="&st1;" />
	<path d="M6.449,61.974v-1.417" style="&st1;" />
	<path d="M0.5,18.915l1.416-1.417h3.116l1.417,1.417" style="&st1;" />
	<path d="M1.916,57.158v-39.66" style="&st1;" />
	<path d="M210.698,57.158h-1.417" style="&st1;" />
	<path d="M210.698,18.915l-1.417-1.417h-3.116l-1.417,1.417" style="&st1;" />
	<path d="M209.282,57.158l-4.533,3.399" style="&st1;" />
	<path d="M204.749,61.974v-1.417" style="&st1;" />
	<path d="M209.282,57.158v-39.66" style="&st1;" />
	<path d="M6.449,60.557h198.3" style="&st1;" />
	<path d="M98.092,17.498v9.348h15.014v-9.348" style="&st1;" />
	<path d="M33.219,17.498v-2.833h6.941v2.833" style="&st1;" />
	<path d="M5.032,17.498v9.348h1.417" style="&st1;" />
	<path d="M204.749,26.846h1.417v-9.348" style="&st1;" />
	<path d="M171.038,17.498v-2.833h6.94v2.833" style="&st1;" />
	<path d="M16.364,58.574V33.079" style="&st1;" />
	<path d="M194.834,58.574V33.079" style="&st1;" />
	<path d="M46.109,58.574V33.079" style="&st1;" />
	<path d="M56.024,58.574V33.079" style="&st1;" />
	<path d="M155.174,58.574V33.079" style="&st1;" />
	<path d="M165.089,58.574V33.079" style="&st1;" />
	<path d="M50.217,26.846v-5.666h4.249v5.666" style="&st1;" />
	<path d="M162.398,26.846v-5.666h-4.25v5.666" style="&st1;" />
	<g ewd:pinNo="3">
		<text transform="matrix(1 0 0 1 29.6855 41.6772)"><tspan style="&st3; &st2;" x="0" y="0">3</tspan></text>
	</g>
	<g ewd:pinNo="1">
		<text transform="matrix(1 0 0 1 9.8555 41.6772)"><tspan style="&st3; &st2;" x="0" y="0">1</tspan></text>
	</g>
	<g ewd:pinNo="21">
		<text transform="matrix(1 0 0 1 8.0166 54.4248)"><tspan style="&st3; &st2;" x="0" y="0">21</tspan></text>
	</g>
	<g ewd:pinNo="23">
		<text transform="matrix(1 0 0 1 27.8467 54.4248)"><tspan style="&st3; &st2;" x="0" y="0">23</tspan></text>
	</g>
	<g ewd:pinNo="7">
		<text transform="matrix(1 0 0 1 69.3457 41.6772)"><tspan style="&st3; &st2;" x="0" y="0">7</tspan></text>
	</g>
	<g ewd:pinNo="27">
		<text transform="matrix(1 0 0 1 67.5068 54.4248)"><tspan style="&st3; &st2;" x="0" y="0">27</tspan></text>
	</g>
	<g ewd:pinNo="8">
		<text transform="matrix(1 0 0 1 79.2607 41.6772)"><tspan style="&st3; &st2;" x="0" y="0">8</tspan></text>
	</g>
	<g ewd:pinNo="28">
		<text transform="matrix(1 0 0 1 77.4219 54.4248)"><tspan style="&st3; &st2;" x="0" y="0">28</tspan></text>
	</g>
	<g ewd:pinNo="9">
		<text transform="matrix(1 0 0 1 89.1758 41.6772)"><tspan style="&st3; &st2;" x="0" y="0">9</tspan></text>
	</g>
	<g ewd:pinNo="29">
		<text transform="matrix(1 0 0 1 87.3369 54.4248)"><tspan style="&st3; &st2;" x="0" y="0">29</tspan></text>
	</g>
	<g ewd:pinNo="10">
		<text transform="matrix(1 0 0 1 97.0586 41.6772)"><tspan style="&st3; &st2;" x="0" y="0">10</tspan></text>
	</g>
	<g ewd:pinNo="30">
		<text transform="matrix(1 0 0 1 97.252 54.4248)"><tspan style="&st3; &st2;" x="0" y="0">30</tspan></text>
	</g>
	<g ewd:pinNo="11">
		<text transform="matrix(1 0 0 1 107.1963 41.6772)"><tspan style="&st3; &st2;" x="0" y="0">11</tspan></text>
	</g>
	<g ewd:pinNo="31">
		<text transform="matrix(1 0 0 1 107.167 54.4248)"><tspan style="&st3; &st2;" x="0" y="0">31</tspan></text>
	</g>
	<g ewd:pinNo="12">
		<text transform="matrix(1 0 0 1 116.8887 41.6772)"><tspan style="&st3; &st2;" x="0" y="0">12</tspan></text>
	</g>
	<g ewd:pinNo="32">
		<text transform="matrix(1 0 0 1 117.082 54.4248)"><tspan style="&st3; &st2;" x="0" y="0">32</tspan></text>
	</g>
	<g ewd:pinNo="13">
		<text transform="matrix(1 0 0 1 126.8037 41.6772)"><tspan style="&st3; &st2;" x="0" y="0">13</tspan></text>
	</g>
	<g ewd:pinNo="33">
		<text transform="matrix(1 0 0 1 126.9971 54.4248)"><tspan style="&st3; &st2;" x="0" y="0">33</tspan></text>
	</g>
	<g ewd:pinNo="14">
		<text transform="matrix(1 0 0 1 136.7188 41.6772)"><tspan style="&st3; &st2;" x="0" y="0">14</tspan></text>
	</g>
	<g ewd:pinNo="34">
		<text transform="matrix(1 0 0 1 136.9121 54.4248)"><tspan style="&st3; &st2;" x="0" y="0">34</tspan></text>
	</g>
	<g ewd:pinNo="18">
		<text transform="matrix(1 0 0 1 176.3789 41.6772)"><tspan style="&st3; &st2;" x="0" y="0">18</tspan></text>
	</g>
	<g ewd:pinNo="38">
		<text transform="matrix(1 0 0 1 176.5723 54.4248)"><tspan style="&st3; &st2;" x="0" y="0">38</tspan></text>
	</g>
	<g ewd:pinNo="20">
		<text transform="matrix(1 0 0 1 196.4028 41.6772)"><tspan style="&st3; &st2;" x="0" y="0">20</tspan></text>
	</g>
	<g ewd:pinNo="40">
		<text transform="matrix(1 0 0 1 196.4028 54.4248)"><tspan style="&st3; &st2;" x="0" y="0">40</tspan></text>
	</g>
	<g ewd:pinNo="4">
		<text transform="matrix(1 0 0 1 39.6006 41.6772)"><tspan style="&st3; &st2;" x="0" y="0">4</tspan></text>
	</g>
	<g ewd:pinNo="24">
		<text transform="matrix(1 0 0 1 37.7617 54.4248)"><tspan style="&st3; &st2;" x="0" y="0">24</tspan></text>
	</g>
	<g ewd:pinNo="17">
		<text transform="matrix(1 0 0 1 166.4639 41.6772)"><tspan style="&st3; &st2;" x="0" y="0">17</tspan></text>
	</g>
	<g ewd:pinNo="37">
		<text transform="matrix(1 0 0 1 166.6572 54.4248)"><tspan style="&st3; &st2;" x="0" y="0">37</tspan></text>
	</g>
	<g ewd:pinNo="2">
		<text transform="matrix(1 0 0 1 19.7705 41.6772)"><tspan style="&st3; &st2;" x="0" y="0">2</tspan></text>
	</g>
	<g ewd:pinNo="22">
		<text transform="matrix(1 0 0 1 17.9321 54.4248)"><tspan style="&st3; &st2;" x="0" y="0">22</tspan></text>
	</g>
	<g ewd:pinNo="19">
		<text transform="matrix(1 0 0 1 186.2935 41.6772)"><tspan style="&st3; &st2;" x="0" y="0">19</tspan></text>
	</g>
	<g ewd:pinNo="39">
		<text transform="matrix(1 0 0 1 186.4868 54.4248)"><tspan style="&st3; &st2;" x="0" y="0">39</tspan></text>
	</g>
	<g ewd:pinNo="5">
		<text transform="matrix(1 0 0 1 49.5156 41.6772)"><tspan style="&st3; &st2;" x="0" y="0">5</tspan></text>
	</g>
	<g ewd:pinNo="25">
		<text transform="matrix(1 0 0 1 47.6768 54.4248)"><tspan style="&st3; &st2;" x="0" y="0">25</tspan></text>
	</g>
	<g ewd:pinNo="6">
		<text transform="matrix(1 0 0 1 59.4307 41.6772)"><tspan style="&st3; &st2;" x="0" y="0">6</tspan></text>
	</g>
	<g ewd:pinNo="26">
		<text transform="matrix(1 0 0 1 57.5918 54.4248)"><tspan style="&st3; &st2;" x="0" y="0">26</tspan></text>
	</g>
	<g ewd:pinNo="15">
		<text transform="matrix(1 0 0 1 146.6338 41.6772)"><tspan style="&st3; &st2;" x="0" y="0">15</tspan></text>
	</g>
	<g ewd:pinNo="35">
		<text transform="matrix(1 0 0 1 146.8271 54.4248)"><tspan style="&st3; &st2;" x="0" y="0">35</tspan></text>
	</g>
	<g ewd:pinNo="16">
		<text transform="matrix(1 0 0 1 156.5488 41.6772)"><tspan style="&st3; &st2;" x="0" y="0">16</tspan></text>
	</g>
	<g ewd:pinNo="36">
		<text transform="matrix(1 0 0 1 156.7422 54.4248)"><tspan style="&st3; &st2;" x="0" y="0">36</tspan></text>
	</g>
</g>
</svg>