<?xml version="1.0" encoding="utf-8"?>
<!-- Generator: Adobe Illustrator 10.0, SVG Export Plug-In . SVG Version: 3.0.0 Build 77)  -->
<!DOCTYPE svg PUBLIC "-//W3C//DTD SVG 1.0//EN" "http://www.w3.org/TR/2001/REC-SVG-20010904/DTD/svg10.dtd"[
	<!ENTITY ns_flows "http://ns.adobe.com/Flows/1.0/">
	<!ENTITY ns_svg "http://www.w3.org/2000/svg">
	<!ENTITY ns_xlink "http://www.w3.org/1999/xlink">
	<!ENTITY st0 "fill:none;stroke:#000000;stroke-linecap:round;stroke-linejoin:round;">
	<!ENTITY st1 "fill:none;stroke:#000000;stroke-width:0.6;stroke-linecap:round;stroke-linejoin:round;">
	<!ENTITY st2 "font-size:6px;">
	<!ENTITY st3 "font-family:'Arial';">
	<!ATTLIST svg
		ewd:ver CDATA #IMPLIED
		xmlns:ewd CDATA #FIXED "http://shcl.co.jp/ewd"
		xmlns:a CDATA #FIXED "http://ns.adobe.com/AdobeSVGViewerExtensions/3.0/">
	<!ATTLIST g
		ewd:pinNo CDATA #IMPLIED>
	<!ATTLIST text
		ewd:textID CDATA #IMPLIED
		ewd:horAlign CDATA #IMPLIED>
	<!ATTLIST title
		ewd:textID CDATA #IMPLIED>
]>
<svg ewd:ver="2.1.2.6F" height="50.575" onload="call_execInitLoadProc_svg('connector')" style="overflow:visible;enable-background:new 0 0 68.989 50.575" viewBox="0 0 68.989 50.575" width="68.989" xml:space="preserve" xmlns="&ns_svg;" xmlns:ewd="http://shcl.co.jp/ewd" xmlns:a="http://ns.adobe.com/AdobeSVGViewerExtensions/3.0/" xmlns:xlink="&ns_xlink;">
<script type="text/javascript" xlink:href="../../../../../system/js/ewd/fig/svgfig.js" xmlns:xlink="http://www.w3.org/1999/xlink" />
<g id="レイヤー_1">
	<path d="M46.392,11.832c2.496,2.582,6.611,2.651,9.193,0.156" style="&st1;" />
	<path d="M55.585,11.987c0.056-0.054,0.102-0.1,0.156-0.156" style="&st1;" />
	<path d="M13.248,11.832c2.495,2.582,6.611,2.651,9.192,0.156" style="&st1;" />
	<path d="M22.44,11.987c0.056-0.054,0.102-0.1,0.156-0.156" style="&st1;" />
	<path d="M0.5,21.747c0,1.839,1.099,3.393,2.833,4.006" style="&st0;" />
	<path d="M55.741,5.316c0-1.095-0.888-1.983-1.983-1.983" style="&st1;" />
	<path d="M15.231,3.333c-1.095,0-1.983,0.888-1.983,1.983" style="&st1;" />
	<path d="M4.749,11.832c-2.347,0-4.249,1.903-4.249,4.25" style="&st0;" />
	<path d="M65.656,11.832c0-1.564-1.269-2.833-2.833-2.833" style="&st0;" />
	<path d="M68.489,30.245c0-1.839-1.099-3.393-2.833-4.006" style="&st0;" />
	<path d="M65.656,37.084c1.733-0.613,2.832-2.167,2.832-4.006" style="&st0;" />
	<path d="M3.333,45.826h13.457" style="&st0;" />
	<path d="M10.415,21.747h48.159" style="&st1;" />
	<path d="M22.596,11.832h1.983" style="&st1;" />
	<path d="M0.5,16.081v5.666" style="&st0;" />
	<path d="M14.664,24.58v12.748h39.66V24.58H14.664" style="&st1;" />
	<path d="M24.579,37.327V24.58" style="&st1;" />
	<path d="M34.494,37.327V24.58" style="&st1;" />
	<path d="M44.409,37.327V24.58" style="&st1;" />
	<path d="M32.37,40.16h4.25" style="&st1;" />
	<path d="M6.166,21.747H3.333v-5.666h7.083" style="&st1;" />
	<path d="M58.574,21.747v24.08" style="&st1;" />
	<path d="M10.415,21.747v24.08" style="&st1;" />
	<path d="M6.166,45.826v-24.08" style="&st1;" />
	<path d="M3.333,38.744h2.833" style="&st1;" />
	<path d="M40.514,45.826v2.833h5.666v-2.833" style="&st1;" />
	<path d="M15.231,3.333h38.527" style="&st1;" />
	<path d="M22.809,45.826v2.833h5.666v-2.833" style="&st1;" />
	<path d="M3.333,45.826V25.752" style="&st0;" />
	<path d="M16.789,45.826v4.249H52.2v-4.249" style="&st0;" />
	<path d="M13.248,11.832V5.316" style="&st1;" />
	<path d="M55.741,11.832V5.316" style="&st1;" />
	<path d="M44.409,11.832h1.983" style="&st1;" />
	<path d="M21.747,3.333v2.833h2.833v1.417h19.83V6.166h2.833V3.333" style="&st1;" />
	<path d="M18.914,45.826v-7.083H32.37v7.083" style="&st1;" />
	<path d="M36.619,45.826v-7.083h13.456v7.083" style="&st1;" />
	<path d="M54.324,40.16v5.666" style="&st1;" />
	<path d="M14.664,40.16v5.666" style="&st1;" />
	<path d="M10.415,40.16h8.499" style="&st1;" />
	<path d="M50.075,40.16h8.499" style="&st1;" />
	<path d="M25.996,3.333l4.25,2.833v1.417" style="&st1;" />
	<path d="M10.415,16.081v-4.25" style="&st1;" />
	<path d="M7.582,11.832V6.166h2.833" style="&st0;" />
	<path d="M10.415,11.832V6.166" style="&st1;" />
	<path d="M10.415,6.166V0.5" style="&st0;" />
	<path d="M16.789,45.826H52.2" style="&st1;" />
	<path d="M10.415,16.081h14.164" style="&st1;" />
	<path d="M10.415,0.5h48.159" style="&st0;" />
	<path d="M24.579,16.081v-4.25h5.666V9.849h8.499v1.983h5.666v4.25" style="&st1;" />
	<path d="M58.574,6.166V0.5" style="&st0;" />
	<path d="M30.245,14.665v2.833h8.499v-2.833" style="&st1;" />
	<path d="M38.744,7.583V6.166l4.249-2.833" style="&st1;" />
	<path d="M7.582,11.832h2.833" style="&st1;" />
	<path d="M58.574,6.166h2.833v2.833" style="&st0;" />
	<path d="M58.574,16.081V6.166" style="&st1;" />
	<path d="M44.409,21.747v-5.666" style="&st1;" />
	<path d="M44.409,16.081h14.165" style="&st1;" />
	<path d="M4.749,11.832h2.833" style="&st0;" />
	<path d="M58.574,11.832h4.249v33.995" style="&st1;" />
	<path d="M52.2,45.826h13.456" style="&st0;" />
	<path d="M24.579,14.665h19.83" style="&st1;" />
	<path d="M58.574,8.999h2.833" style="&st1;" />
	<path d="M62.823,28.829h2.833v5.666h-2.833" style="&st1;" />
	<path d="M62.823,38.744h2.833" style="&st1;" />
	<path d="M61.406,8.999h1.417" style="&st0;" />
	<path d="M24.579,16.081v5.666" style="&st1;" />
	<path d="M65.656,45.826v-8.742" style="&st0;" />
	<path d="M65.656,11.832V26.24" style="&st0;" />
	<path d="M68.489,30.245v2.833" style="&st0;" />
	<g ewd:pinNo="1">
		<text transform="matrix(1 0 0 1 17.9438 33.062)"><tspan style="&st3; &st2;" x="0" y="0">1</tspan></text>
	</g>
	<g ewd:pinNo="2">
		<text transform="matrix(1 0 0 1 27.8589 33.062)"><tspan style="&st3; &st2;" x="0" y="0">2</tspan></text>
	</g>
	<g ewd:pinNo="3">
		<text transform="matrix(1 0 0 1 37.7739 33.062)"><tspan style="&st3; &st2;" x="0" y="0">3</tspan></text>
	</g>
	<g ewd:pinNo="4">
		<text transform="matrix(1 0 0 1 47.689 33.062)"><tspan style="&st3; &st2;" x="0" y="0">4</tspan></text>
	</g>
</g>
</svg>