<?xml version="1.0" encoding="utf-8"?>
<!-- Generator: Adobe Illustrator 10.0, SVG Export Plug-In . SVG Version: 3.0.0 Build 77)  -->
<!DOCTYPE svg PUBLIC "-//W3C//DTD SVG 1.0//EN" "http://www.w3.org/TR/2001/REC-SVG-20010904/DTD/svg10.dtd"[
	<!ENTITY ns_flows "http://ns.adobe.com/Flows/1.0/">
	<!ENTITY ns_svg "http://www.w3.org/2000/svg">
	<!ENTITY ns_xlink "http://www.w3.org/1999/xlink">
	<!ENTITY st0 "fill:none;stroke:#000000;stroke-linecap:round;stroke-linejoin:round;">
	<!ENTITY st1 "fill:none;stroke:#000000;stroke-width:0.6;stroke-linecap:round;stroke-linejoin:round;">
	<!ENTITY st2 "font-size:6px;">
	<!ENTITY st3 "font-family:'Arial';">
	<!ATTLIST svg
		ewd:ver CDATA #IMPLIED
		xmlns:ewd CDATA #FIXED "http://shcl.co.jp/ewd"
		xmlns:a CDATA #FIXED "http://ns.adobe.com/AdobeSVGViewerExtensions/3.0/">
	<!ATTLIST g
		ewd:pinNo CDATA #IMPLIED>
	<!ATTLIST text
		ewd:textID CDATA #IMPLIED
		ewd:horAlign CDATA #IMPLIED>
	<!ATTLIST title
		ewd:textID CDATA #IMPLIED>
]>
<svg ewd:ver="2.1.2.6F" height="49.952" onload="call_execInitLoadProc_svg('connector')" style="overflow:visible;enable-background:new 0 0 62.648 49.952" viewBox="0 0 62.648 49.952" width="62.648" xml:space="preserve" xmlns="&ns_svg;" xmlns:ewd="http://shcl.co.jp/ewd" xmlns:a="http://ns.adobe.com/AdobeSVGViewerExtensions/3.0/" xmlns:xlink="&ns_xlink;">
<script type="text/javascript" xlink:href="../../../../../system/js/ewd/fig/svgfig.js" xmlns:xlink="http://www.w3.org/1999/xlink" />
<g id="レイヤー_1">
	<path d="M49.469,29.293c0.499-0.498,0.748-1.1,0.748-1.805" style="&st1;" />
	<path d="M44.353,40.019c4.224,0,7.649-3.424,7.649-7.648" style="&st1;" />
	<path d="M10.699,32.37c0,4.224,3.424,7.648,7.649,7.648" style="&st1;" />
	<path d="M13.249,32.37c0,2.816,2.283,5.099,5.099,5.099" style="&st1;" />
	<path d="M43.843,37.469c2.816,0,5.099-2.283,5.099-5.099" style="&st1;" />
	<path d="M18.348,14.523c-2.816,0-5.099,2.283-5.099,5.099" style="&st1;" />
	<path d="M52.002,19.622c0-4.224-3.425-7.648-7.649-7.648" style="&st1;" />
	<path d="M50.217,20.679c0-0.705-0.25-1.306-0.749-1.804" style="&st1;" />
	<path d="M48.942,19.622c0-2.816-2.283-5.099-5.099-5.099" style="&st1;" />
	<path d="M18.348,11.974c-4.225,0-7.649,3.424-7.649,7.648" style="&st1;" />
	<path d="M18.348,4.325c-4.647,0-8.615,1.829-11.632,5.362" style="&st1;" />
	<path d="M18.22,4.325c-0.985,0-1.785,0.799-1.785,1.785" style="&st1;" />
	<path d="M7.532,43.186c2.986,2.987,6.592,4.48,10.816,4.48" style="&st0;" />
	<path d="M43.206,6.109c0-0.986-0.799-1.785-1.785-1.785" style="&st1;" />
	<path d="M1.249,23.974C0.75,24.471,0.5,25.073,0.5,25.778" style="&st0;" />
	<path d="M62.146,15.764c0-0.812-0.337-1.504-0.975-2.005" style="&st0;" />
	<path d="M53.316,7.591C50.5,5.38,47.449,4.325,43.869,4.325" style="&st1;" />
	<path d="M41.293,1.775c0-0.704-0.571-1.275-1.274-1.275" style="&st1;" />
	<path d="M19.622,0.5c-0.704,0-1.274,0.571-1.274,1.275" style="&st1;" />
	<path d="M19.982,48.622c0.553,0.553,1.221,0.83,2.003,0.83" style="&st0;" />
	<path d="M37.656,49.452c0.782,0,1.45-0.277,2.003-0.83" style="&st0;" />
	<path d="M6.877,32.653c0.154,6.235,5.233,11.19,11.47,11.19" style="&st1;" />
	<path d="M55.826,19.622c0-6.336-5.137-11.473-11.473-11.473" style="&st1;" />
	<path d="M44.353,43.843c6.237,0,11.316-4.955,11.47-11.189" style="&st1;" />
	<path d="M44.438,47.667c3.399-0.251,6.225-1.412,8.819-3.623" style="&st0;" />
	<path d="M60.804,37.613c0.886-0.754,1.344-1.748,1.344-2.912" style="&st0;" />
	<path d="M16.435,8.149c-5.67,0.945-9.719,5.725-9.719,11.473" style="&st1;" />
	<path d="M55.826,1.917c0-0.782-0.634-1.417-1.417-1.417" style="&st0;" />
	<path d="M8.132,0.5c-0.783,0-1.417,0.634-1.417,1.417" style="&st0;" />
	<path d="M6.716,9.687C4.247,12.578,3.05,15.82,3.05,19.622" style="&st0;" />
	<path d="M48.942,29.82l0.527-0.527" style="&st1;" />
	<path d="M18.348,11.974h26.005" style="&st1;" />
	<path d="M50.217,20.679v6.81" style="&st1;" />
	<path d="M18.348,40.019h26.005" style="&st1;" />
	<path d="M13.249,19.622V32.37" style="&st1;" />
	<path d="M1.249,23.974l1.801-1.802v-2.55" style="&st0;" />
	<path d="M18.348,22.172v7.648h22.946v-7.648H18.348" style="&st1;" />
	<path d="M25.996,29.82v-7.648" style="&st1;" />
	<path d="M33.645,29.82v-7.648" style="&st1;" />
	<path d="M18.348,14.523h25.496" style="&st1;" />
	<path d="M55.826,19.622v9.207" style="&st1;" />
	<path d="M18.348,43.843h9.688" style="&st1;" />
	<path d="M48.716,18.121l0.753,0.753" style="&st1;" />
	<path d="M18.348,37.469h25.496" style="&st1;" />
	<path d="M28.036,43.843v3.06h3.569v-3.06" style="&st1;" />
	<path d="M13.249,22.172h2.549v-6.966" style="&st1;" />
	<path d="M52.002,19.622V32.37" style="&st1;" />
	<path d="M48.942,28.545v3.825" style="&st1;" />
	<path d="M38.744,11.974V4.325" style="&st1;" />
	<path d="M48.942,19.622h-5.099v8.923h5.099" style="&st1;" />
	<path d="M6.716,28.829H3.05v3.825h3.828" style="&st1;" />
	<path d="M10.699,19.622V32.37" style="&st1;" />
	<path d="M31.605,43.843h12.748" style="&st1;" />
	<path d="M20.897,8.914h17.847" style="&st1;" />
	<path d="M22.044,0.5v1.275h15.552V0.5" style="&st1;" />
	<path d="M55.826,28.829h3.824v3.825h-3.827" style="&st1;" />
	<path d="M0.5,35.704v-9.926" style="&st0;" />
	<path d="M18.348,1.775v2.55" style="&st1;" />
	<path d="M62.146,34.701V15.764" style="&st0;" />
	<path d="M20.897,11.974V4.325" style="&st1;" />
	<path d="M18.22,4.325h23.201" style="&st1;" />
	<path d="M41.293,4.325h2.575" style="&st1;" />
	<path d="M8.132,0.5H54.41" style="&st0;" />
	<path d="M16.435,8.149v-2.04" style="&st1;" />
	<path d="M43.206,8.149h1.147" style="&st1;" />
	<path d="M20.897,6.237h17.847" style="&st1;" />
	<path d="M43.206,8.149v-2.04" style="&st1;" />
	<path d="M41.293,1.775v2.55" style="&st1;" />
	<path d="M16.435,8.149h4.462" style="&st1;" />
	<path d="M18.667,8.149v3.825" style="&st1;" />
	<path d="M40.976,8.149v3.825" style="&st1;" />
	<path d="M43.206,8.149h-4.462" style="&st1;" />
	<path d="M37.656,49.452H21.985" style="&st0;" />
	<path d="M19.027,47.667l0.955,0.955" style="&st0;" />
	<path d="M39.659,48.622l1-1" style="&st0;" />
	<path d="M18.348,47.667h0.68" style="&st0;" />
	<path d="M19.027,47.667h4.674" style="&st1;" />
	<path d="M35.939,47.667h4.674" style="&st1;" />
	<path d="M34.155,49.452l1.785-1.785" style="&st1;" />
	<path d="M23.702,47.667l1.785,1.785" style="&st1;" />
	<path d="M6.716,19.622v9.207" style="&st1;" />
	<path d="M0.5,35.704l7.031,7.481" style="&st0;" />
	<path d="M40.614,47.667h3.824" style="&st0;" />
	<path d="M53.257,44.044l7.547-6.431" style="&st0;" />
	<path d="M55.826,9.56V1.917" style="&st0;" />
	<path d="M6.716,9.687V1.917" style="&st0;" />
	<path d="M53.316,7.591l2.51,1.969" style="&st1;" />
	<path d="M55.826,9.56l5.346,4.198" style="&st0;" />
	<g ewd:pinNo="1">
		<text transform="matrix(1 0 0 1 20.8452 28.1914)"><tspan style="&st3; &st2;" x="0" y="0">1</tspan></text>
	</g>
	<g ewd:pinNo="2">
		<text transform="matrix(1 0 0 1 28.4937 28.1914)"><tspan style="&st3; &st2;" x="0" y="0">2</tspan></text>
	</g>
	<g ewd:pinNo="3">
		<text transform="matrix(1 0 0 1 36.1426 28.1914)"><tspan style="&st3; &st2;" x="0" y="0">3</tspan></text>
	</g>
</g>
</svg>