<?xml version="1.0" encoding="utf-8"?>
<!-- Generator: Adobe Illustrator 10.0, SVG Export Plug-In . SVG Version: 3.0.0 Build 77)  -->
<!DOCTYPE svg PUBLIC "-//W3C//DTD SVG 1.0//EN" "http://www.w3.org/TR/2001/REC-SVG-20010904/DTD/svg10.dtd"[
	<!ENTITY ns_flows "http://ns.adobe.com/Flows/1.0/">
	<!ENTITY ns_svg "http://www.w3.org/2000/svg">
	<!ENTITY ns_xlink "http://www.w3.org/1999/xlink">
	<!ENTITY st0 "fill:none;">
	<!ENTITY st1 "stroke:#000000;">
	<!ENTITY st2 "stroke-linecap:round;">
	<!ENTITY st3 "stroke-linejoin:round;">
	<!ENTITY st4 "stroke-width:0.6;">
	<!ENTITY st5 "font-size:6px;">
	<!ENTITY st6 "font-family:'Arial';">
	<!ENTITY st7 "stroke-width:1.4;">
	<!ATTLIST svg
		ewd:ver CDATA #IMPLIED
		xmlns:ewd CDATA #FIXED "http://shcl.co.jp/ewd"
		xmlns:a CDATA #FIXED "http://ns.adobe.com/AdobeSVGViewerExtensions/3.0/">
	<!ATTLIST g
		ewd:pinNo CDATA #IMPLIED>
	<!ATTLIST text
		ewd:textID CDATA #IMPLIED
		ewd:horAlign CDATA #IMPLIED>
	<!ATTLIST title
		ewd:textID CDATA #IMPLIED>
]>
<svg ewd:ver="2.1.2.6F" height="82.879" onload="call_execInitLoadProc_svg('connector')" style="overflow:visible;enable-background:new 0 0 70.122 63.606" viewBox="0 0 173.682 82.879" width="173.682" xml:space="preserve" xmlns="&ns_svg;" xmlns:ewd="http://shcl.co.jp/ewd" xmlns:a="http://ns.adobe.com/AdobeSVGViewerExtensions/3.0/" xmlns:xlink="&ns_xlink;">
<script type="text/javascript" xlink:href="../../../../../system/js/ewd/fig/svgfig.js" xmlns:xlink="http://www.w3.org/1999/xlink" />
<g id="レイヤー_1" transform="translate(0,17.008)">
	<path d="M3.333,31.157c0-0.637-0.398-1.173-1.008-1.356" style="&st0;&st1;&st2;&st3;" />
	<path d="M2.324,43.155c0.61-0.184,1.009-0.72,1.009-1.357" style="&st0;&st1;&st2;&st3;" />
	<path d="M26.557,51.208c-0.738,0-1.346,0.556-1.411,1.292" style="&st0;&st1;&st4;&st2;&st3;" />
	<path d="M2.483,13.814c-1.095,0-1.983,0.888-1.983,1.983" style="&st0;&st1;&st2;&st3;" />
	<path d="M7.44,15.798c0-1.095-0.888-1.983-1.983-1.983" style="&st0;&st1;&st2;&st3;" />
	<path d="M20.896,6.004c0,0.854,0.333,1.583,0.978,2.141" style="&st0;&st1;&st2;&st3;" />
	<path d="M22.313,0.5c-0.782,0-1.417,0.634-1.417,1.417" style="&st0;&st1;&st2;&st3;" />
	<path d="M0.5,54.042c0,1.564,1.269,2.833,2.833,2.833" style="&st0;&st1;&st2;&st3;" />
	<path d="M23.041,62.276c0.553,0.553,1.221,0.83,2.003,0.83" style="&st0;&st1;&st2;&st3;" />
	<path d="M67.797,29.801c-0.61,0.183-1.009,0.72-1.009,1.356" style="&st0;&st1;&st2;&st3;" />
	<path d="M66.789,41.798c0,0.637,0.398,1.173,1.008,1.356" style="&st0;&st1;&st2;&st3;" />
	<path d="M69.622,15.798c0-1.095-0.888-1.983-1.983-1.983" style="&st0;&st1;&st2;&st3;" />
	<path d="M64.664,13.814c-1.095,0-1.983,0.888-1.983,1.983" style="&st0;&st1;&st2;&st3;" />
	<path d="M48.248,8.146c0.645-0.559,0.978-1.288,0.978-2.142" style="&st0;&st1;&st2;&st3;" />
	<path d="M49.225,1.917c0-0.782-0.634-1.417-1.417-1.417" style="&st0;&st1;&st2;&st3;" />
	<path d="M66.789,56.874c1.564,0,2.833-1.268,2.833-2.833" style="&st0;&st1;&st2;&st3;" />
	<path d="M45.078,63.106c0.782,0,1.45-0.276,2.003-0.83" style="&st0;&st1;&st2;&st3;" />
	<path d="M34.063,52.625c0-0.782-0.634-1.417-1.416-1.417" style="&st0;&st1;&st4;&st2;&st3;" />
	<path d="M32.647,54.042c0.782,0,1.416-0.634,1.416-1.417" style="&st0;&st1;&st4;&st2;&st3;" />
	<path d="M16.647,2.483c-0.783,0-1.417,0.634-1.417,1.417" style="&st0;&st1;&st2;&st3;" />
	<path d="M18.63,3.899c0-0.782-0.634-1.417-1.417-1.417" style="&st0;&st1;&st2;&st3;" />
	<path d="M52.908,2.483c-0.782,0-1.417,0.634-1.417,1.417" style="&st0;&st1;&st2;&st3;" />
	<path d="M54.891,3.899c0-0.782-0.634-1.417-1.416-1.417" style="&st0;&st1;&st2;&st3;" />
	<path d="M25.146,52.75c0.065,0.735,0.672,1.292,1.411,1.292" style="&st0;&st1;&st4;&st2;&st3;" />
	<path d="M22.313,52.625c0-0.782-0.634-1.417-1.417-1.417" style="&st0;&st1;&st4;&st2;&st3;" />
	<path d="M20.896,54.042c0.782,0,1.417-0.634,1.417-1.417" style="&st0;&st1;&st4;&st2;&st3;" />
	<path d="M5.316,51.208c-0.783,0-1.417,0.634-1.417,1.417" style="&st0;&st1;&st4;&st2;&st3;" />
	<path d="M3.899,52.625c0,0.782,0.634,1.417,1.417,1.417" style="&st0;&st1;&st4;&st2;&st3;" />
	<path d="M66.222,52.625c0-0.782-0.634-1.417-1.417-1.417" style="&st0;&st1;&st4;&st2;&st3;" />
	<path d="M47.809,52.625c0,0.782,0.634,1.417,1.417,1.417" style="&st0;&st1;&st4;&st2;&st3;" />
	<path d="M64.806,54.042c0.782,0,1.417-0.634,1.417-1.417" style="&st0;&st1;&st4;&st2;&st3;" />
	<path d="M49.225,51.208c-0.782,0-1.417,0.634-1.417,1.417" style="&st0;&st1;&st4;&st2;&st3;" />
	<path d="M44.976,52.5c-0.065-0.735-0.672-1.292-1.411-1.292" style="&st0;&st1;&st4;&st2;&st3;" />
	<path d="M43.565,54.042c0.738,0,1.346-0.557,1.411-1.292" style="&st0;&st1;&st4;&st2;&st3;" />
	<path d="M37.475,51.208c-0.783,0-1.417,0.634-1.417,1.417" style="&st0;&st1;&st4;&st2;&st3;" />
	<path d="M36.058,52.625c0,0.782,0.634,1.417,1.417,1.417" style="&st0;&st1;&st4;&st2;&st3;" />
	<path d="M5.316,23.729v25.496h59.49V23.729H5.316" style="&st0;&st1;&st4;&st2;&st3;" />
	<path d="M5.316,36.478h59.49" style="&st0;&st1;&st4;&st2;&st3;" />
	<path d="M15.231,23.729v25.496" style="&st0;&st1;&st4;&st2;&st3;" />
	<path d="M25.146,23.729v25.496" style="&st0;&st1;&st4;&st2;&st3;" />
	<path d="M35.061,23.729v25.496" style="&st0;&st1;&st4;&st2;&st3;" />
	<path d="M44.976,23.729v25.496" style="&st0;&st1;&st4;&st2;&st3;" />
	<path d="M54.891,23.729v25.496" style="&st0;&st1;&st4;&st2;&st3;" />
	<path d="M0.5,29.254l1.824,0.547" style="&st0;&st1;&st2;&st3;" />
	<path d="M3.333,31.157v10.641" style="&st0;&st1;&st2;&st3;" />
	<path d="M2.324,43.155L0.5,43.701" style="&st0;&st1;&st2;&st3;" />
	<path d="M26.557,51.208h17.008" style="&st0;&st1;&st4;&st2;&st3;" />
	<path d="M26.557,54.042h17.008" style="&st0;&st1;&st4;&st2;&st3;" />
	<path d="M2.483,13.814h2.975" style="&st0;&st1;&st2;&st3;" />
	<path d="M7.44,19.48v-3.683" style="&st0;&st1;&st2;&st3;" />
	<path d="M7.44,19.48h7.791" style="&st0;&st1;&st2;&st3;" />
	<path d="M1.916,25.024l4.128-4.128h9.187" style="&st0;&st1;&st4;&st2;&st3;" />
	<path d="M1.916,25.024v4.654" style="&st0;&st1;&st4;&st2;&st3;" />
	<path d="M15.231,19.48V3.899" style="&st0;&st1;&st2;&st3;" />
	<path d="M16.647,2.483h0.566" style="&st0;&st1;&st2;&st3;" />
	<path d="M18.63,3.899v16.997" style="&st0;&st1;&st2;&st3;" />
	<path d="M15.231,5.883h3.399" style="&st0;&st1;&st4;&st2;&st3;" />
	<path d="M25.146,10.982v9.915H18.63" style="&st0;&st1;&st2;&st3;" />
	<path d="M35.061,0.5H22.313" style="&st0;&st1;&st2;&st3;" />
	<path d="M20.896,1.917v4.088" style="&st0;&st1;&st2;&st3;" />
	<path d="M21.874,8.146l3.272,2.836" style="&st0;&st1;&st2;&st3;" />
	<path d="M25.146,8.149h9.915" style="&st0;&st1;&st4;&st2;&st3;" />
	<path d="M35.061,3.05h-7.083v2.833" style="&st0;&st1;&st4;&st2;&st3;" />
	<path d="M25.146,5.883h2.833" style="&st0;&st1;&st4;&st2;&st3;" />
	<path d="M7.712,55.458h27.349" style="&st0;&st1;&st4;&st2;&st3;" />
	<path d="M3.333,56.874h14.306" style="&st0;&st1;&st2;&st3;" />
	<path d="M23.041,62.276l-5.402-5.402" style="&st0;&st1;&st2;&st3;" />
	<path d="M25.044,63.106h10.017" style="&st0;&st1;&st2;&st3;" />
	<path d="M69.622,29.254l-1.824,0.547" style="&st0;&st1;&st2;&st3;" />
	<path d="M66.789,31.157v10.641" style="&st0;&st1;&st2;&st3;" />
	<path d="M67.797,43.155l1.824,0.546" style="&st0;&st1;&st2;&st3;" />
	<path d="M67.639,13.814h-2.975" style="&st0;&st1;&st2;&st3;" />
	<path d="M62.681,19.48v-3.683" style="&st0;&st1;&st2;&st3;" />
	<path d="M62.681,19.48h-7.791" style="&st0;&st1;&st2;&st3;" />
	<path d="M68.206,25.024l-4.128-4.128h-9.187" style="&st0;&st1;&st4;&st2;&st3;" />
	<path d="M68.206,25.024v4.654" style="&st0;&st1;&st4;&st2;&st3;" />
	<path d="M54.891,19.48V3.899" style="&st0;&st1;&st2;&st3;" />
	<path d="M53.475,2.483h-0.567" style="&st0;&st1;&st2;&st3;" />
	<path d="M51.491,3.899v16.997" style="&st0;&st1;&st2;&st3;" />
	<path d="M54.891,5.883h-3.399" style="&st0;&st1;&st4;&st2;&st3;" />
	<path d="M44.976,10.982v9.915h6.516" style="&st0;&st1;&st2;&st3;" />
	<path d="M35.061,0.5h12.748" style="&st0;&st1;&st2;&st3;" />
	<path d="M49.225,1.917v4.088" style="&st0;&st1;&st2;&st3;" />
	<path d="M48.248,8.146l-3.272,2.836" style="&st0;&st1;&st2;&st3;" />
	<path d="M44.976,8.149h-9.915" style="&st0;&st1;&st4;&st2;&st3;" />
	<path d="M35.061,3.05h7.082v2.833" style="&st0;&st1;&st4;&st2;&st3;" />
	<path d="M44.976,5.883h-2.833" style="&st0;&st1;&st4;&st2;&st3;" />
	<path d="M62.409,55.458H35.061" style="&st0;&st1;&st4;&st2;&st3;" />
	<path d="M52.483,56.874l-5.402,5.402" style="&st0;&st1;&st2;&st3;" />
	<path d="M45.078,63.106H35.061" style="&st0;&st1;&st2;&st3;" />
	<path d="M1.916,43.276v5.011" style="&st0;&st1;&st4;&st2;&st3;" />
	<path d="M68.206,43.276v5.011" style="&st0;&st1;&st4;&st2;&st3;" />
	<path d="M25.146,5.883v5.099" style="&st0;&st1;&st4;&st2;&st3;" />
	<path d="M44.976,5.883v5.099" style="&st0;&st1;&st4;&st2;&st3;" />
	<path d="M54.891,20.896V19.48" style="&st0;&st1;&st4;&st2;&st3;" />
	<path d="M69.622,24.438l-4.958-4.958h-1.983" style="&st0;&st1;&st4;&st2;&st3;" />
	<path d="M15.231,20.896V19.48" style="&st0;&st1;&st4;&st2;&st3;" />
	<path d="M0.5,24.438l4.958-4.958H7.44" style="&st0;&st1;&st4;&st2;&st3;" />
	<path d="M25.146,52.5v0.25" style="&st0;&st1;&st4;&st2;&st3;" />
	<path d="M5.316,51.208h15.581" style="&st0;&st1;&st4;&st2;&st3;" />
	<path d="M5.316,54.042h15.581" style="&st0;&st1;&st4;&st2;&st3;" />
	<path d="M1.916,48.288l2.575,3.184" style="&st0;&st1;&st4;&st2;&st3;" />
	<path d="M6.568,54.042l1.145,1.416" style="&st0;&st1;&st4;&st2;&st3;" />
	<path d="M64.806,51.208H49.225" style="&st0;&st1;&st4;&st2;&st3;" />
	<path d="M64.806,54.042H49.225" style="&st0;&st1;&st4;&st2;&st3;" />
	<path d="M68.206,48.288l-2.575,3.184" style="&st0;&st1;&st4;&st2;&st3;" />
	<path d="M63.554,54.042l-1.145,1.416" style="&st0;&st1;&st4;&st2;&st3;" />
	<path d="M0.5,15.798v13.456" style="&st0;&st1;&st2;&st3;" />
	<path d="M0.5,43.701v10.34" style="&st0;&st1;&st2;&st3;" />
	<path d="M0.5,48.288h1.416" style="&st0;&st1;&st4;&st2;&st3;" />
	<path d="M7.712,56.874v-1.417" style="&st0;&st1;&st4;&st2;&st3;" />
	<path d="M66.789,56.874H52.483" style="&st0;&st1;&st2;&st3;" />
	<path d="M52.483,56.874H17.639" style="&st0;&st1;&st4;&st2;&st3;" />
	<path d="M62.409,56.874v-1.417" style="&st0;&st1;&st4;&st2;&st3;" />
	<path d="M68.206,48.288h1.416" style="&st0;&st1;&st4;&st2;&st3;" />
	<path d="M69.622,15.798v13.456" style="&st0;&st1;&st2;&st3;" />
	<path d="M69.622,43.701v10.34" style="&st0;&st1;&st2;&st3;" />
	<path d="M5.458,19.48H4.041v-2.833H7.44" style="&st0;&st1;&st4;&st2;&st3;" />
	<path d="M64.664,19.48h1.417v-2.833h-3.399" style="&st0;&st1;&st4;&st2;&st3;" />
	<path d="M44.976,52.5v0.25" style="&st0;&st1;&st4;&st2;&st3;" />
	<g ewd:pinNo="1">
		<text transform="matrix(1 0 0 1 8.6694 32.1484)"><tspan style="&st6; &st5;" x="0" y="0">1</tspan></text>
	</g>
	<g ewd:pinNo="2">
		<text transform="matrix(1 0 0 1 18.585 32.1484)"><tspan style="&st6; &st5;" x="0" y="0">2</tspan></text>
	</g>
	<g ewd:pinNo="3">
		<text transform="matrix(1 0 0 1 28.5 32.1484)"><tspan style="&st6; &st5;" x="0" y="0">3</tspan></text>
	</g>
	<g ewd:pinNo="4">
		<text transform="matrix(1 0 0 1 38.415 32.1484)"><tspan style="&st6; &st5;" x="0" y="0">4</tspan></text>
	</g>
	<g ewd:pinNo="5">
		<text transform="matrix(1 0 0 1 48.3301 32.1484)"><tspan style="&st6; &st5;" x="0" y="0">5</tspan></text>
	</g>
	<g ewd:pinNo="6">
		<text transform="matrix(1 0 0 1 58.2446 32.1484)"><tspan style="&st6; &st5;" x="0" y="0">6</tspan></text>
	</g>
	<g ewd:pinNo="7">
		<text transform="matrix(1 0 0 1 8.6694 44.896)"><tspan style="&st6; &st5;" x="0" y="0">7</tspan></text>
	</g>
	<g ewd:pinNo="8">
		<text transform="matrix(1 0 0 1 18.585 44.896)"><tspan style="&st6; &st5;" x="0" y="0">8</tspan></text>
	</g>
	<g ewd:pinNo="9">
		<text transform="matrix(1 0 0 1 28.5 44.896)"><tspan style="&st6; &st5;" x="0" y="0">9</tspan></text>
	</g>
	<g ewd:pinNo="10">
		<text transform="matrix(1 0 0 1 36.5127 44.896)"><tspan style="&st6; &st5;" x="0" y="0">10</tspan></text>
	</g>
	<g ewd:pinNo="11">
		<text transform="matrix(1 0 0 1 46.6504 44.896)"><tspan style="&st6; &st5;" x="0" y="0">11</tspan></text>
	</g>
	<g ewd:pinNo="12">
		<text transform="matrix(1 0 0 1 56.3423 44.896)"><tspan style="&st6; &st5;" x="0" y="0">12</tspan></text>
	</g>
</g>
<g id="レイヤー_1" transform="translate(89.963,17.008)">
	<path d="M10.132,27.413c0-0.939-0.761-1.7-1.7-1.7" style="&st0;&st1;&st4;&st2;&st3;" />
	<path d="M8.432,25.712c-0.939,0-1.7,0.761-1.7,1.7" style="&st0;&st1;&st4;&st2;&st3;" />
	<path d="M6.732,36.761c0,0.939,0.761,1.7,1.7,1.7" style="&st0;&st1;&st4;&st2;&st3;" />
	<path d="M8.432,38.46c0.938,0,1.7-0.761,1.7-1.7" style="&st0;&st1;&st4;&st2;&st3;" />
	<path d="M6.732,52.341c0,0.939,0.761,1.7,1.7,1.7" style="&st0;&st1;&st4;&st2;&st3;" />
	<path d="M8.432,54.042c0.938,0,1.7-0.761,1.7-1.7" style="&st0;&st1;&st4;&st2;&st3;" />
	<path d="M10.132,44.41c0-0.939-0.761-1.7-1.7-1.7" style="&st0;&st1;&st4;&st2;&st3;" />
	<path d="M8.432,42.71c-0.939,0-1.7,0.761-1.7,1.7" style="&st0;&st1;&st4;&st2;&st3;" />
	<path d="M76.987,44.41c0-0.939-0.761-1.7-1.7-1.7" style="&st0;&st1;&st4;&st2;&st3;" />
	<path d="M75.288,42.71c-0.939,0-1.7,0.761-1.7,1.7" style="&st0;&st1;&st4;&st2;&st3;" />
	<path d="M73.588,52.341c0,0.939,0.761,1.7,1.7,1.7" style="&st0;&st1;&st4;&st2;&st3;" />
	<path d="M75.288,54.042c0.938,0,1.7-0.761,1.7-1.7" style="&st0;&st1;&st4;&st2;&st3;" />
	<path d="M73.588,36.761c0,0.939,0.761,1.7,1.7,1.7" style="&st0;&st1;&st4;&st2;&st3;" />
	<path d="M75.288,38.46c0.938,0,1.7-0.761,1.7-1.7" style="&st0;&st1;&st4;&st2;&st3;" />
	<path d="M76.987,27.413c0-0.939-0.761-1.7-1.7-1.7" style="&st0;&st1;&st4;&st2;&st3;" />
	<path d="M75.288,25.712c-0.939,0-1.7,0.761-1.7,1.7" style="&st0;&st1;&st4;&st2;&st3;" />
	<path d="M76.987,61.124c1.095,0,1.983-0.888,1.983-1.983" style="&st0;&st1;&st4;&st2;&st3;" />
	<path d="M78.97,17.214c0-1.095-0.888-1.982-1.983-1.982" style="&st0;&st1;&st4;&st2;&st3;" />
	<path d="M69.622,15.231c-1.095,0-1.983,0.888-1.983,1.982" style="&st0;&st1;&st4;&st2;&st3;" />
	<path d="M24.013,0.5c-2.347,0-4.25,1.903-4.25,4.25" style="&st0;&st1;&st2;&st3;" />
	<path d="M11.832,10.982C5.573,10.982,0.5,16.055,0.5,22.313" style="&st0;&st1;&st2;&st3;" />
	<path d="M83.219,22.313c0-6.258-5.073-11.332-11.331-11.332" style="&st0;&st1;&st2;&st3;" />
	<path d="M0.5,54.042c0,6.258,5.073,11.331,11.332,11.331" style="&st0;&st1;&st2;&st3;" />
	<path d="M63.956,4.75c0-2.347-1.902-4.25-4.25-4.25" style="&st0;&st1;&st2;&st3;" />
	<path d="M29.112,3.333c0-1.564-1.269-2.833-2.833-2.833" style="&st0;&st1;&st4;&st2;&st3;" />
	<path d="M71.888,65.373c6.258,0,11.331-5.073,11.331-11.331" style="&st0;&st1;&st2;&st3;" />
	<path d="M57.44,0.5c-1.564,0-2.833,1.269-2.833,2.833" style="&st0;&st1;&st4;&st2;&st3;" />
	<path d="M16.081,17.214c0-1.095-0.888-1.982-1.983-1.982" style="&st0;&st1;&st4;&st2;&st3;" />
	<path d="M6.732,15.231c-1.096,0-1.983,0.888-1.983,1.982" style="&st0;&st1;&st4;&st2;&st3;" />
	<path d="M4.749,59.141c0,1.095,0.888,1.983,1.983,1.983" style="&st0;&st1;&st4;&st2;&st3;" />
	<path d="M51.775,22.313v3.399" style="&st0;&st1;&st4;&st2;&st3;" />
	<path d="M31.945,22.313h19.83" style="&st0;&st1;&st4;&st2;&st3;" />
	<path d="M31.945,25.712h19.83" style="&st0;&st1;&st4;&st2;&st3;" />
	<path d="M69.622,22.88H55.316" style="&st0;&st1;&st4;&st2;&st3;" />
	<path d="M69.622,25.712H55.316" style="&st0;&st1;&st4;&st2;&st3;" />
	<path d="M6.732,27.413v9.348" style="&st0;&st1;&st4;&st2;&st3;" />
	<path d="M12.115,29.962h59.49" style="&st0;&st1;&st4;&st2;&st3;" />
	<path d="M6.732,44.41v7.932" style="&st0;&st1;&st4;&st2;&st3;" />
	<path d="M12.115,42.71h59.49" style="&st0;&st1;&st4;&st2;&st3;" />
	<path d="M12.115,55.458h59.49" style="&st0;&st1;&st4;&st2;&st3;" />
	<path d="M12.115,29.962v25.496" style="&st0;&st1;&st4;&st2;&st3;" />
	<path d="M22.03,29.962v25.496" style="&st0;&st1;&st4;&st2;&st3;" />
	<path d="M31.945,29.962v25.496" style="&st0;&st1;&st4;&st2;&st3;" />
	<path d="M41.86,29.962v25.496" style="&st0;&st1;&st4;&st2;&st3;" />
	<path d="M51.775,29.962v25.496" style="&st0;&st1;&st4;&st2;&st3;" />
	<path d="M61.69,29.962v25.496" style="&st0;&st1;&st4;&st2;&st3;" />
	<path d="M71.604,29.962v25.496" style="&st0;&st1;&st4;&st2;&st3;" />
	<path d="M10.132,44.41v7.932" style="&st0;&st1;&st4;&st2;&st3;" />
	<path d="M31.945,22.313v3.399" style="&st0;&st1;&st4;&st2;&st3;" />
	<path d="M10.132,27.413v9.348" style="&st0;&st1;&st4;&st2;&st3;" />
	<path d="M55.316,22.88v2.833" style="&st0;&st1;&st4;&st2;&st3;" />
	<path d="M69.622,22.88v2.833" style="&st0;&st1;&st4;&st2;&st3;" />
	<path d="M73.588,27.413v9.348" style="&st0;&st1;&st4;&st2;&st3;" />
	<path d="M14.098,22.88v2.833" style="&st0;&st1;&st4;&st2;&st3;" />
	<path d="M73.588,44.41v7.932" style="&st0;&st1;&st4;&st2;&st3;" />
	<path d="M28.404,22.88v2.833" style="&st0;&st1;&st4;&st2;&st3;" />
	<path d="M14.098,22.88h14.306" style="&st0;&st1;&st4;&st2;&st3;" />
	<path d="M76.987,44.41v7.932" style="&st0;&st1;&st4;&st2;&st3;" />
	<path d="M14.098,25.712h14.306" style="&st0;&st1;&st4;&st2;&st3;" />
	<path d="M76.987,27.413v9.348" style="&st0;&st1;&st4;&st2;&st3;" />
	<path d="M4.749,17.214v41.927" style="&st0;&st1;&st4;&st2;&st3;" />
	<path d="M6.732,15.231h7.365" style="&st0;&st1;&st4;&st2;&st3;" />
	<path d="M16.081,17.214v3.683" style="&st0;&st1;&st4;&st2;&st3;" />
	<path d="M23.446,4.75h5.666" style="&st0;&st1;&st4;&st2;&st3;" />
	<path d="M39.735,10.982h4.25" style="&st0;&st1;&st4;&st2;&st3;" />
	<path d="M39.735,9.565h4.25" style="&st0;&st1;&st4;&st2;&st3;" />
	<path d="M23.446,4.75v16.147" style="&st0;&st1;&st4;&st2;&st3;" />
	<path d="M16.081,20.896h7.366" style="&st0;&st1;&st4;&st2;&st3;" />
	<path d="M24.013,0.5h35.694" style="&st0;&st1;&st2;&st3;" />
	<path d="M43.984,9.565v2.833" style="&st0;&st1;&st4;&st2;&st3;" />
	<path d="M19.763,4.75v6.232" style="&st0;&st1;&st2;&st3;" />
	<path d="M11.832,10.982h7.932" style="&st0;&st1;&st2;&st3;" />
	<path d="M6.732,61.124h70.255" style="&st0;&st1;&st4;&st2;&st3;" />
	<path d="M0.5,22.313v31.728" style="&st0;&st1;&st2;&st3;" />
	<path d="M48.942,16.647H41.86" style="&st0;&st1;&st4;&st2;&st3;" />
	<path d="M11.832,65.373h60.057" style="&st0;&st1;&st2;&st3;" />
	<path d="M51.775,16.647h-2.833" style="&st0;&st1;&st4;&st2;&st3;" />
	<path d="M54.607,20.896h-5.666" style="&st0;&st1;&st4;&st2;&st3;" />
	<path d="M31.945,4.75h19.83" style="&st0;&st1;&st4;&st2;&st3;" />
	<path d="M39.735,9.565v2.833" style="&st0;&st1;&st4;&st2;&st3;" />
	<path d="M48.942,16.647v4.249" style="&st0;&st1;&st4;&st2;&st3;" />
	<path d="M29.112,3.333v17.563" style="&st0;&st1;&st4;&st2;&st3;" />
	<path d="M51.775,4.75v11.898" style="&st0;&st1;&st4;&st2;&st3;" />
	<path d="M54.607,3.333v17.563" style="&st0;&st1;&st4;&st2;&st3;" />
	<path d="M31.945,4.75v11.898" style="&st0;&st1;&st4;&st2;&st3;" />
	<path d="M31.945,16.647h2.833" style="&st0;&st1;&st4;&st2;&st3;" />
	<path d="M34.777,16.647v4.249" style="&st0;&st1;&st4;&st2;&st3;" />
	<path d="M29.112,20.896h5.666" style="&st0;&st1;&st4;&st2;&st3;" />
	<path d="M34.777,16.647h7.083" style="&st0;&st1;&st4;&st2;&st3;" />
	<path d="M83.219,22.313v31.728" style="&st0;&st1;&st2;&st3;" />
	<path d="M31.945,12.398h19.83" style="&st0;&st1;&st4;&st2;&st3;" />
	<path d="M71.888,10.982h-7.932" style="&st0;&st1;&st2;&st3;" />
	<path d="M63.956,4.75v6.232" style="&st0;&st1;&st2;&st3;" />
	<path d="M38.319,12.398v2.833h7.082v-2.833" style="&st0;&st1;&st4;&st2;&st3;" />
	<path d="M67.639,17.214v3.683" style="&st0;&st1;&st4;&st2;&st3;" />
	<path d="M60.273,4.75h-5.666" style="&st0;&st1;&st4;&st2;&st3;" />
	<path d="M76.987,15.231h-7.366" style="&st0;&st1;&st4;&st2;&st3;" />
	<path d="M60.273,4.75v16.147" style="&st0;&st1;&st4;&st2;&st3;" />
	<path d="M78.97,17.214v41.927" style="&st0;&st1;&st4;&st2;&st3;" />
	<path d="M31.945,7.583h19.83" style="&st0;&st1;&st4;&st2;&st3;" />
	<path d="M31.945,6.166h19.83" style="&st0;&st1;&st4;&st2;&st3;" />
	<path d="M67.639,20.896h-7.365" style="&st0;&st1;&st4;&st2;&st3;" />
	<g ewd:pinNo="7">
		<text transform="matrix(1 0 0 1 64.9053 51.2134)"><tspan style="&st6; &st5;" x="0" y="0">7</tspan></text>
	</g>
	<g ewd:pinNo="1">
		<text transform="matrix(1 0 0 1 64.9053 38.4653)"><tspan style="&st6; &st5;" x="0" y="0">1</tspan></text>
	</g>
	<g ewd:pinNo="2">
		<text transform="matrix(1 0 0 1 54.9902 38.4653)"><tspan style="&st6; &st5;" x="0" y="0">2</tspan></text>
	</g>
	<g ewd:pinNo="3">
		<text transform="matrix(1 0 0 1 45.0752 38.4653)"><tspan style="&st6; &st5;" x="0" y="0">3</tspan></text>
	</g>
	<g ewd:pinNo="4">
		<text transform="matrix(1 0 0 1 35.1602 38.4653)"><tspan style="&st6; &st5;" x="0" y="0">4</tspan></text>
	</g>
	<g ewd:pinNo="5">
		<text transform="matrix(1 0 0 1 25.2451 38.4653)"><tspan style="&st6; &st5;" x="0" y="0">5</tspan></text>
	</g>
	<g ewd:pinNo="6">
		<text transform="matrix(1 0 0 1 15.3301 38.4653)"><tspan style="&st6; &st5;" x="0" y="0">6</tspan></text>
	</g>
	<g ewd:pinNo="8">
		<text transform="matrix(1 0 0 1 54.9902 51.2134)"><tspan style="&st6; &st5;" x="0" y="0">8</tspan></text>
	</g>
	<g ewd:pinNo="9">
		<text transform="matrix(1 0 0 1 45.0752 51.2134)"><tspan style="&st6; &st5;" x="0" y="0">9</tspan></text>
	</g>
	<g ewd:pinNo="10">
		<text transform="matrix(1 0 0 1 33.2734 51.2134)"><tspan style="&st6; &st5;" x="0" y="0">10</tspan></text>
	</g>
	<g ewd:pinNo="11">
		<text transform="matrix(1 0 0 1 23.5811 51.2134)"><tspan style="&st6; &st5;" x="0" y="0">11</tspan></text>
	</g>
	<g ewd:pinNo="12">
		<text transform="matrix(1 0 0 1 13.4434 51.2134)"><tspan style="&st6; &st5;" x="0" y="0">12</tspan></text>
	</g>
</g>
<path d="M35.061,9.069v-8.504h96.7615v8.504" style="&st0;&st1;&st7;&st2;&st3;" />
</svg>