<?xml version="1.0" encoding="utf-8"?>
<!-- Generator: Adobe Illustrator 10.0, SVG Export Plug-In . SVG Version: 3.0.0 Build 77)  -->
<!DOCTYPE svg PUBLIC "-//W3C//DTD SVG 1.0//EN" "http://www.w3.org/TR/2001/REC-SVG-20010904/DTD/svg10.dtd"[
	<!ENTITY ns_flows "http://ns.adobe.com/Flows/1.0/">
	<!ENTITY ns_svg "http://www.w3.org/2000/svg">
	<!ENTITY ns_xlink "http://www.w3.org/1999/xlink">
	<!ENTITY st0 "fill:none;stroke:#000000;stroke-linecap:round;stroke-linejoin:round;">
	<!ENTITY st1 "fill:none;stroke:#000000;stroke-width:0.6;stroke-linecap:round;stroke-linejoin:round;">
	<!ENTITY st2 "font-size:6px;">
	<!ENTITY st3 "font-family:'Arial';">
	<!ATTLIST svg
		ewd:ver CDATA #IMPLIED
		xmlns:ewd CDATA #FIXED "http://shcl.co.jp/ewd"
		xmlns:a CDATA #FIXED "http://ns.adobe.com/AdobeSVGViewerExtensions/3.0/">
	<!ATTLIST g
		ewd:pinNo CDATA #IMPLIED>
	<!ATTLIST text
		ewd:textID CDATA #IMPLIED
		ewd:horAlign CDATA #IMPLIED>
	<!ATTLIST title
		ewd:textID CDATA #IMPLIED>
]>
<svg ewd:ver="2.1.2.6F" height="50.575" onload="call_execInitLoadProc_svg('connector')" style="overflow:visible;enable-background:new 0 0 40.66 50.575" viewBox="0 0 40.66 50.575" width="40.66" xml:space="preserve" xmlns="&ns_svg;" xmlns:ewd="http://shcl.co.jp/ewd" xmlns:a="http://ns.adobe.com/AdobeSVGViewerExtensions/3.0/" xmlns:xlink="&ns_xlink;">
<script type="text/javascript" xlink:href="../../../../../system/js/ewd/fig/svgfig.js" xmlns:xlink="http://www.w3.org/1999/xlink" />
<g id="レイヤー_1">
	<path d="M28.829,25.996V40.16" style="&st1;" />
	<path d="M20.33,25.996V40.16" style="&st1;" />
	<path d="M40.16,45.826H0.5" style="&st1;" />
	<path d="M11.832,25.996V40.16" style="&st1;" />
	<path d="M0.579,23.163h4.17" style="&st1;" />
	<path d="M26.704,9.707v12.04" style="&st0;" />
	<path d="M1.35,16.789h2.55" style="&st0;" />
	<path d="M36.761,16.789h2.549" style="&st0;" />
	<path d="M15.373,8.291h9.915" style="&st1;" />
	<path d="M15.373,9.707h9.915" style="&st1;" />
	<path d="M13.956,9.707v12.04" style="&st0;" />
	<path d="M8.291,8.291h0.708" style="&st0;" />
	<path d="M31.662,8.291h0.708" style="&st0;" />
	<path d="M13.248,3.333v5.666" style="&st0;" />
	<path d="M27.412,3.333v5.666" style="&st0;" />
	<path d="M13.956,16.435h12.748" style="&st1;" />
	<path d="M16.081,0.5h8.499" style="&st0;" />
	<path d="M6.166,23.163h4.958" style="&st1;" />
	<path d="M35.911,23.163h4.25" style="&st1;" />
	<path d="M29.537,23.163h4.958" style="&st1;" />
	<path d="M12.54,23.163c0.782,0,1.417-0.634,1.417-1.417" style="&st0;" />
	<path d="M26.704,21.747c0,0.782,0.634,1.417,1.416,1.417" style="&st0;" />
	<path d="M15.373,8.291c-0.782,0-1.417,0.634-1.417,1.417" style="&st1;" />
	<path d="M26.704,9.707c0-0.782-0.634-1.417-1.417-1.417" style="&st1;" />
	<path d="M15.373,9.707c-0.782,0-1.417,0.634-1.417,1.417" style="&st1;" />
	<path d="M26.704,11.124c0-0.782-0.634-1.417-1.417-1.417" style="&st1;" />
	<path d="M1.35,16.789c-0.469,0-0.85,0.381-0.85,0.85" style="&st0;" />
	<path d="M40.16,17.639c0-0.469-0.381-0.85-0.85-0.85" style="&st0;" />
	<path d="M36.761,16.789c-0.47,0-0.85,0.381-0.85,0.85" style="&st0;" />
	<path d="M4.749,17.639c0-0.469-0.38-0.85-0.85-0.85" style="&st0;" />
	<path d="M8.291,8.291c-1.174,0-2.125,0.951-2.125,2.125" style="&st0;" />
	<path d="M11.123,10.416c0-1.174-0.951-2.125-2.125-2.125" style="&st0;" />
	<path d="M34.494,10.416c0-1.174-0.951-2.125-2.125-2.125" style="&st0;" />
	<path d="M31.662,8.291c-1.174,0-2.125,0.951-2.125,2.125" style="&st0;" />
	<path d="M13.248,8.999c0,0.391,0.317,0.708,0.708,0.708" style="&st0;" />
	<path d="M26.704,9.707c0.391,0,0.708-0.317,0.708-0.708" style="&st0;" />
	<path d="M16.081,0.5c-1.564,0-2.833,1.269-2.833,2.833" style="&st0;" />
	<path d="M27.412,3.333c0-1.564-1.269-2.833-2.833-2.833" style="&st0;" />
	<path d="M6.245,45.826l4.906-2.833h18.437l4.906,2.833" style="&st1;" />
	<path d="M4.749,17.639v5.524h1.417V10.416" style="&st0;" />
	<path d="M12.54,23.163h-1.417V10.416" style="&st0;" />
	<path d="M24.225,8.291V4.75h-7.791v3.541" style="&st1;" />
	<path d="M29.537,10.416v12.748H28.12" style="&st0;" />
	<path d="M34.494,10.416v12.748h1.417v-5.524" style="&st0;" />
	<path d="M37.327,25.996H3.333V40.16h33.995V25.996" style="&st1;" />
	<path d="M0.5,17.639v32.436h39.66V17.639" style="&st0;" />
	<g ewd:pinNo="1">
		<text transform="matrix(1 0 0 1 6.0957 35.5063)"><tspan style="&st3; &st2;" x="0" y="0">1</tspan></text>
	</g>
	<g ewd:pinNo="2">
		<text transform="matrix(1 0 0 1 14.5947 35.5063)"><tspan style="&st3; &st2;" x="0" y="0">2</tspan></text>
	</g>
	<g ewd:pinNo="3">
		<text transform="matrix(1 0 0 1 23.0933 35.5063)"><tspan style="&st3; &st2;" x="0" y="0">3</tspan></text>
	</g>
	<g ewd:pinNo="4">
		<text transform="matrix(1 0 0 1 31.5918 35.5063)"><tspan style="&st3; &st2;" x="0" y="0">4</tspan></text>
	</g>
</g>
</svg>