<?xml version="1.0" encoding="utf-8"?>
<!-- Generator: Adobe Illustrator 10.0, SVG Export Plug-In . SVG Version: 3.0.0 Build 77)  -->
<!DOCTYPE svg PUBLIC "-//W3C//DTD SVG 1.0//EN" "http://www.w3.org/TR/2001/REC-SVG-20010904/DTD/svg10.dtd"[
	<!ENTITY ns_flows "http://ns.adobe.com/Flows/1.0/">
	<!ENTITY ns_svg "http://www.w3.org/2000/svg">
	<!ENTITY ns_xlink "http://www.w3.org/1999/xlink">
	<!ENTITY st0 "fill:none;stroke:#000000;stroke-linecap:round;stroke-linejoin:round;">
	<!ENTITY st1 "fill:none;stroke:#000000;stroke-width:0.6;stroke-linecap:round;stroke-linejoin:round;">
	<!ENTITY st2 "font-size:6px;">
	<!ENTITY st3 "font-family:'Arial';">
	<!ATTLIST svg
		ewd:ver CDATA #IMPLIED
		xmlns:ewd CDATA #FIXED "http://shcl.co.jp/ewd"
		xmlns:a CDATA #FIXED "http://ns.adobe.com/AdobeSVGViewerExtensions/3.0/">
	<!ATTLIST g
		ewd:pinNo CDATA #IMPLIED>
	<!ATTLIST text
		ewd:textID CDATA #IMPLIED
		ewd:horAlign CDATA #IMPLIED>
	<!ATTLIST title
		ewd:textID CDATA #IMPLIED>
]>
<svg ewd:ver="2.1.2.6F" height="94.201" onload="call_execInitLoadProc_svg('connector')" style="overflow:visible;enable-background:new 0 0 58.79 94.201" viewBox="0 0 58.79 94.201" width="58.79" xml:space="preserve" xmlns="&ns_svg;" xmlns:ewd="http://shcl.co.jp/ewd" xmlns:a="http://ns.adobe.com/AdobeSVGViewerExtensions/3.0/" xmlns:xlink="&ns_xlink;">
<script type="text/javascript" xlink:href="../../../../../system/js/ewd/fig/svgfig.js" xmlns:xlink="http://www.w3.org/1999/xlink" />
<g id="レイヤー_1">
	<path d="M44.976,29.396c0-6.258-5.073-11.332-11.331-11.332" style="&st1;" />
	<path d="M15.171,0.5c-1.564,0-2.833,1.269-2.833,2.833" style="&st0;" />
	<path d="M57.46,76.118c0.553-0.553,0.83-1.221,0.83-2.003" style="&st0;" />
	<path d="M58.29,29.396c0-2.01-0.198-3.71-0.66-5.666" style="&st0;" />
	<path d="M18.004,6.166c-1.564,0-2.833,1.269-2.833,2.833" style="&st1;" />
	<path d="M25.146,18.064c-6.258,0-11.332,5.073-11.332,11.332" style="&st1;" />
	<path d="M13.814,56.308c0,6.258,5.073,11.332,11.332,11.332" style="&st1;" />
	<path d="M33.645,67.639c6.258,0,11.331-5.074,11.331-11.332" style="&st1;" />
	<path d="M43.619,8.999c0-1.564-1.269-2.833-2.833-2.833" style="&st1;" />
	<path d="M46.452,3.333c0-1.564-1.268-2.833-2.833-2.833" style="&st1;" />
	<path d="M46.959,29.396c0-7.354-5.961-13.314-13.314-13.314" style="&st1;" />
	<path d="M33.645,69.622c7.353,0,13.314-5.961,13.314-13.314" style="&st1;" />
	<path d="M11.832,56.308c0,7.353,5.961,13.314,13.314,13.314" style="&st1;" />
	<path d="M25.146,16.081c-7.354,0-13.314,5.961-13.314,13.314" style="&st1;" />
	<path d="M6.166,56.308c0,5.188,1.814,9.617,5.454,13.314" style="&st1;" />
	<path d="M15.171,13.248c-5.776,3.568-9.005,9.358-9.005,16.147" style="&st1;" />
	<path d="M47.171,69.622c3.64-3.698,5.453-8.126,5.453-13.314" style="&st1;" />
	<path d="M44.146,37.308c0.553-0.553,0.83-1.221,0.83-2.003" style="&st1;" />
	<path d="M52.625,29.396c0-6.79-3.229-12.58-9.005-16.148" style="&st1;" />
	<path d="M44.976,53.231c0-0.782-0.276-1.45-0.83-2.003" style="&st1;" />
	<path d="M12.338,8.339C4.755,12.951,0.5,20.52,0.5,29.396" style="&st0;" />
	<path d="M0.5,74.115c0,0.783,0.277,1.45,0.83,2.003" style="&st0;" />
	<path d="M49.792,93.701c1.565,0,2.833-1.268,2.833-2.833" style="&st0;" />
	<path d="M6.166,90.868c0,1.565,1.269,2.833,2.833,2.833" style="&st0;" />
	<path d="M41.01,91.718c0,1.095,0.888,1.983,1.983,1.983" style="&st1;" />
	<path d="M57.63,23.729c-1.579-6.682-5.312-11.823-11.179-15.391" style="&st1;" />
	<path d="M15.797,93.701c1.095,0,1.983-0.888,1.983-1.983" style="&st1;" />
	<path d="M41.01,88.036c0-1.095-0.888-1.983-1.983-1.983" style="&st1;" />
	<path d="M24.038,83.22c-0.551,0-1.02,0.289-1.266,0.782" style="&st1;" />
	<path d="M19.763,86.053c-1.095,0-1.983,0.888-1.983,1.983" style="&st1;" />
	<path d="M36.019,84.001c-0.247-0.492-0.716-0.782-1.267-0.782" style="&st1;" />
	<path d="M15.171,13.248V8.999" style="&st1;" />
	<path d="M25.146,16.081h8.499" style="&st1;" />
	<path d="M13.814,29.396v26.912" style="&st1;" />
	<path d="M25.146,67.639h8.499" style="&st1;" />
	<path d="M18.004,6.166h22.782" style="&st1;" />
	<path d="M25.146,18.064h8.499" style="&st1;" />
	<path d="M19.48,29.396v29.745h19.83V29.396H19.48" style="&st1;" />
	<path d="M19.48,39.311h19.83" style="&st1;" />
	<path d="M1.33,76.118l4.836,4.836v9.915" style="&st0;" />
	<path d="M37.953,6.166v10.632" style="&st1;" />
	<path d="M29.395,59.141V29.396" style="&st1;" />
	<path d="M19.48,49.226h19.83" style="&st1;" />
	<path d="M57.46,76.118l-4.836,4.836v9.915" style="&st0;" />
	<path d="M20.837,9.707h17.116" style="&st1;" />
	<path d="M44.146,37.308l-2.003,2.003v9.915l2.003,2.002" style="&st1;" />
	<path d="M44.976,56.308v-3.077" style="&st1;" />
	<path d="M44.976,35.305v-5.909" style="&st1;" />
	<path d="M43.619,8.999v4.249" style="&st1;" />
	<path d="M46.452,3.333v5.006" style="&st1;" />
	<path d="M20.837,6.166v10.632" style="&st1;" />
	<path d="M46.959,40.869V29.396" style="&st1;" />
	<path d="M25.146,69.622h8.499" style="&st1;" />
	<path d="M46.959,56.308v-8.64" style="&st1;" />
	<path d="M11.832,29.396v26.912" style="&st1;" />
	<path d="M6.166,29.396v26.912" style="&st1;" />
	<path d="M15.171,13.248h28.448" style="&st1;" />
	<path d="M42.143,42.285h4.816v-1.417h1.416v6.799h-1.416v-1.417h-4.816" style="&st1;" />
	<path d="M8.999,93.701h40.793" style="&st0;" />
	<path d="M0.5,29.396v44.719" style="&st0;" />
	<path d="M16.871,18.965v-5.717" style="&st1;" />
	<path d="M11.619,69.622H8.786v5.666h17.776v2.833h5.666v-2.833h17.776v-5.666h-2.833" style="&st1;" />
	<path d="M52.625,56.308V29.396" style="&st1;" />
	<path d="M58.29,74.115V29.396" style="&st0;" />
	<path d="M48.432,17.498h-5.097v2.771" style="&st1;" />
	<path d="M41.919,18.965v-5.717" style="&st1;" />
	<path d="M15.171,0.5H58.29" style="&st0;" />
	<path d="M12.338,8.339V3.333" style="&st0;" />
	<path d="M10.358,17.498h5.096v2.771" style="&st1;" />
	<path d="M17.78,89.452H41.01" style="&st1;" />
	<path d="M25.146,89.452v-3.399h8.499v3.399" style="&st1;" />
	<path d="M58.29,0.5v23.229h-0.66" style="&st0;" />
	<path d="M27.129,89.452v1.983h4.533v-1.983" style="&st1;" />
	<path d="M18.004,0.5v1.7h22.782V0.5" style="&st1;" />
	<path d="M17.78,91.718v-3.683" style="&st1;" />
	<path d="M19.763,86.053h1.983l1.025-2.051" style="&st1;" />
	<path d="M36.019,84.001l1.025,2.051h1.983" style="&st1;" />
	<path d="M41.01,88.036v3.683" style="&st1;" />
	<path d="M24.038,83.22h10.714" style="&st1;" />
	<g ewd:pinNo="1">
		<text transform="matrix(1 0 0 1 22.8574 36.5869)"><tspan style="&st3; &st2;" x="0" y="0">1</tspan></text>
	</g>
	<g ewd:pinNo="2">
		<text transform="matrix(1 0 0 1 32.7725 36.5869)"><tspan style="&st3; &st2;" x="0" y="0">2</tspan></text>
	</g>
	<g ewd:pinNo="3">
		<text transform="matrix(1 0 0 1 22.8574 46.502)"><tspan style="&st3; &st2;" x="0" y="0">3</tspan></text>
	</g>
	<g ewd:pinNo="4">
		<text transform="matrix(1 0 0 1 32.7725 46.502)"><tspan style="&st3; &st2;" x="0" y="0">4</tspan></text>
	</g>
	<g ewd:pinNo="5">
		<text transform="matrix(1 0 0 1 22.8574 56.417)"><tspan style="&st3; &st2;" x="0" y="0">5</tspan></text>
	</g>
	<g ewd:pinNo="6">
		<text transform="matrix(1 0 0 1 32.7725 56.417)"><tspan style="&st3; &st2;" x="0" y="0">6</tspan></text>
	</g>
</g>
</svg>