<?xml version="1.0" encoding="utf-8"?>
<!-- Generator: Adobe Illustrator 10.0, SVG Export Plug-In . SVG Version: 3.0.0 Build 77)  -->
<!DOCTYPE svg PUBLIC "-//W3C//DTD SVG 1.0//EN" "http://www.w3.org/TR/2001/REC-SVG-20010904/DTD/svg10.dtd"[
	<!ENTITY ns_flows "http://ns.adobe.com/Flows/1.0/">
	<!ENTITY ns_svg "http://www.w3.org/2000/svg">
	<!ENTITY ns_xlink "http://www.w3.org/1999/xlink">
	<!ENTITY st0 "fill:none;stroke:#000000;stroke-linecap:round;stroke-linejoin:round;">
	<!ENTITY st1 "fill:none;stroke:#000000;stroke-width:0.6;stroke-linecap:round;stroke-linejoin:round;">
	<!ENTITY st2 "font-size:6px;">
	<!ENTITY st3 "font-family:'Arial';">
	<!ATTLIST svg
		ewd:ver CDATA #IMPLIED
		xmlns:ewd CDATA #FIXED "http://shcl.co.jp/ewd"
		xmlns:a CDATA #FIXED "http://ns.adobe.com/AdobeSVGViewerExtensions/3.0/">
	<!ATTLIST g
		ewd:pinNo CDATA #IMPLIED>
	<!ATTLIST text
		ewd:textID CDATA #IMPLIED
		ewd:horAlign CDATA #IMPLIED>
	<!ATTLIST title
		ewd:textID CDATA #IMPLIED>
]>
<svg ewd:ver="2.1.2.6F" height="98.026" onload="call_execInitLoadProc_svg('connector')" style="overflow:visible;enable-background:new 0 0 311.13 98.026" viewBox="0 0 311.13 98.026" width="311.13" xml:space="preserve" xmlns="&ns_svg;" xmlns:ewd="http://shcl.co.jp/ewd" xmlns:a="http://ns.adobe.com/AdobeSVGViewerExtensions/3.0/" xmlns:xlink="&ns_xlink;">
<script type="text/javascript" xlink:href="../../../../../system/js/ewd/fig/svgfig.js" xmlns:xlink="http://www.w3.org/1999/xlink" />
<g id="レイヤー_1">
	<path d="M302.131,6.166c-1.564,0-2.832,1.269-2.832,2.833" style="&st0;" />
	<path d="M310.63,8.999c0-1.564-1.269-2.833-2.833-2.833" style="&st0;" />
	<path d="M296.465,23.163c1.565,0,2.834-1.268,2.834-2.833" style="&st0;" />
	<path d="M294.341,77.696c0-1.565-1.269-2.833-2.833-2.833" style="&st0;" />
	<path d="M303.547,91.86c1.565,0,2.833-1.268,2.833-2.833" style="&st0;" />
	<path d="M309.213,74.863c-1.564,0-2.833,1.268-2.833,2.833" style="&st0;" />
	<path d="M294.341,89.027c0,1.564,1.269,2.833,2.833,2.833" style="&st0;" />
	<path d="M40.092,89.027c0,1.564,1.269,2.833,2.833,2.833" style="&st1;" />
	<path d="M50.007,91.86c1.564,0,2.833-1.268,2.833-2.833" style="&st1;" />
	<path d="M30.177,72.03c0,1.564,1.269,2.833,2.833,2.833" style="&st1;" />
	<path d="M55.673,74.863c-1.564,0-2.833,1.268-2.833,2.833" style="&st1;" />
	<path d="M33.01,6.166c-1.564,0-2.833,1.269-2.833,2.833" style="&st1;" />
	<path d="M42.925,8.999c0-1.564-1.268-2.833-2.833-2.833" style="&st1;" />
	<path d="M42.925,45.118h89.235" style="&st1;" />
	<path d="M310.63,58.928h-8.499v-7.082h8.499" style="&st1;" />
	<path d="M72.67,27.413v14.873" style="&st1;" />
	<path d="M193.066,32.37h9.915" style="&st1;" />
	<path d="M310.63,8.999v65.864" style="&st0;" />
	<path d="M202.981,14.665V32.37" style="&st1;" />
	<path d="M102.415,27.413v14.873" style="&st1;" />
	<path d="M193.066,32.37v42.493" style="&st1;" />
	<path d="M210.063,45.118h89.236" style="&st1;" />
	<path d="M210.063,57.866h89.236" style="&st1;" />
	<path d="M210.063,45.118v25.496" style="&st1;" />
	<path d="M299.299,45.118v25.496" style="&st1;" />
	<path d="M289.384,45.118v25.496" style="&st1;" />
	<path d="M279.468,45.118v25.496" style="&st1;" />
	<path d="M269.553,45.118v25.496" style="&st1;" />
	<path d="M259.638,45.118v25.496" style="&st1;" />
	<path d="M249.723,45.118v25.496" style="&st1;" />
	<path d="M239.809,45.118v25.496" style="&st1;" />
	<path d="M229.894,45.118v25.496" style="&st1;" />
	<path d="M219.979,45.118v25.496" style="&st1;" />
	<path d="M197.316,36.619v12.748h7.082V36.619H197.316" style="&st1;" />
	<path d="M309.213,74.863h1.417" style="&st0;" />
	<path d="M210.063,70.613h89.236" style="&st1;" />
	<path d="M310.63,70.613h-5.666v-8.853h5.666" style="&st1;" />
	<path d="M197.316,55.033v12.748h7.082V55.033H197.316" style="&st1;" />
	<path d="M310.63,39.098h-8.499v7.083h8.499" style="&st1;" />
	<path d="M87.542,27.413v14.873" style="&st1;" />
	<path d="M42.925,27.413h89.235" style="&st1;" />
	<path d="M210.063,27.413h89.236" style="&st1;" />
	<path d="M210.063,42.285h89.236" style="&st1;" />
	<path d="M210.063,27.413v14.873" style="&st1;" />
	<path d="M210.063,27.413v14.873" style="&st1;" />
	<path d="M224.936,27.413v14.873" style="&st1;" />
	<path d="M239.809,27.413v14.873" style="&st1;" />
	<path d="M254.681,27.413v14.873" style="&st1;" />
	<path d="M269.553,27.413v14.873" style="&st1;" />
	<path d="M284.426,27.413v14.873" style="&st1;" />
	<path d="M299.299,27.413v14.873" style="&st1;" />
	<path d="M139.242,23.163h63.739" style="&st1;" />
	<path d="M194.483,74.863h8.499" style="&st1;" />
	<path d="M42.925,57.866h89.235" style="&st1;" />
	<path d="M299.299,8.999V20.33" style="&st0;" />
	<path d="M302.131,6.166h5.666" style="&st0;" />
	<path d="M52.84,45.118v25.496" style="&st1;" />
	<path d="M62.755,45.118v25.496" style="&st1;" />
	<path d="M42.925,45.118v25.496" style="&st1;" />
	<path d="M42.925,70.613h89.235" style="&st1;" />
	<path d="M273.449,23.163h23.017" style="&st0;" />
	<path d="M256.805,74.863h16.644" style="&st1;" />
	<path d="M232.373,14.665v8.499" style="&st0;" />
	<path d="M273.449,74.863h18.06" style="&st0;" />
	<path d="M273.449,83.361v-8.499" style="&st0;" />
	<path d="M294.341,89.027V77.696" style="&st0;" />
	<path d="M306.38,77.696v11.332" style="&st0;" />
	<path d="M297.174,91.86h6.373" style="&st0;" />
	<path d="M310.63,27.413h-5.666v8.853h5.666" style="&st1;" />
	<path d="M42.925,42.285h89.235" style="&st1;" />
	<path d="M42.925,27.413v14.873" style="&st1;" />
	<path d="M57.797,27.413v14.873" style="&st1;" />
	<path d="M72.67,45.118v25.496" style="&st1;" />
	<path d="M82.585,45.118v25.496" style="&st1;" />
	<path d="M92.5,45.118v25.496" style="&st1;" />
	<path d="M102.415,45.118v25.496" style="&st1;" />
	<path d="M109.851,14.665v8.499" style="&st1;" />
	<path d="M87.542,14.665h22.309" style="&st1;" />
	<path d="M42.925,91.86h7.082" style="&st1;" />
	<path d="M42.925,23.163h66.926" style="&st1;" />
	<path d="M52.84,77.696v11.332" style="&st1;" />
	<path d="M40.092,74.863v14.165" style="&st1;" />
	<path d="M33.01,6.166h7.082" style="&st1;" />
	<path d="M18.347,97.526h39.45" style="&st0;" />
	<path d="M18.347,0.5h39.45" style="&st0;" />
	<path d="M33.01,74.863h7.082" style="&st1;" />
	<path d="M30.177,53.262h6.374v13.102h-6.374" style="&st1;" />
	<path d="M70.262,88.285l9.844-4.924" style="&st0;" />
	<path d="M55.673,74.863h54.178" style="&st1;" />
	<path d="M30.177,31.662h6.374v13.102h-6.374" style="&st1;" />
	<path d="M80.106,14.665h7.437" style="&st1;" />
	<path d="M0.5,39.806h1.983" style="&st0;" />
	<path d="M0.5,72.384h3.399" style="&st0;" />
	<path d="M0.5,56.803h1.983" style="&st0;" />
	<path d="M5.316,21.393h24.861" style="&st1;" />
	<path d="M9.848,89.027v-6.729" style="&st0;" />
	<path d="M9.848,42.639V53.97" style="&st0;" />
	<path d="M3.899,24.226h1.417" style="&st1;" />
	<path d="M0.5,75.217h3.399" style="&st0;" />
	<path d="M3.899,72.384h1.417" style="&st1;" />
	<path d="M0.5,82.299v-7.082" style="&st0;" />
	<path d="M0.5,82.299h9.348" style="&st0;" />
	<path d="M18.347,97.526l-8.499-8.499" style="&st0;" />
	<path d="M3.899,75.217h1.417" style="&st1;" />
	<path d="M3.899,75.217v-2.833" style="&st0;" />
	<path d="M2.483,69.551h2.833" style="&st1;" />
	<path d="M5.316,21.393v21.247" style="&st1;" />
	<path d="M0.5,69.551h1.983" style="&st0;" />
	<path d="M2.483,56.803h2.833" style="&st1;" />
	<path d="M2.483,27.058h2.833" style="&st1;" />
	<path d="M0.5,27.058h1.983" style="&st0;" />
	<path d="M3.899,21.393v2.833" style="&st0;" />
	<path d="M0.5,39.806v2.833" style="&st0;" />
	<path d="M0.5,42.639h9.348" style="&st0;" />
	<path d="M5.316,75.217V53.97" style="&st1;" />
	<path d="M0.5,27.058v-2.833" style="&st0;" />
	<path d="M2.483,27.058v12.748" style="&st0;" />
	<path d="M5.316,75.217h34.776" style="&st1;" />
	<path d="M9.848,42.639h20.329" style="&st1;" />
	<path d="M0.5,24.226h3.399" style="&st0;" />
	<path d="M25.928,42.639v5.666" style="&st1;" />
	<path d="M0.5,56.803V53.97" style="&st0;" />
	<path d="M0.5,53.97h9.348" style="&st0;" />
	<path d="M0.5,69.551v2.833" style="&st0;" />
	<path d="M0.5,21.393h3.399" style="&st0;" />
	<path d="M25.928,53.97v-5.666" style="&st1;" />
	<path d="M0.5,14.311v7.082" style="&st0;" />
	<path d="M0.5,14.311h9.348" style="&st0;" />
	<path d="M3.899,21.393h1.417" style="&st1;" />
	<path d="M18.347,0.5L9.848,8.999" style="&st0;" />
	<path d="M2.483,69.551V56.803" style="&st0;" />
	<path d="M9.848,53.97h20.329" style="&st1;" />
	<path d="M9.848,8.999v5.312" style="&st0;" />
	<path d="M2.483,39.806h2.833" style="&st1;" />
	<path d="M5.316,72.384h14.946v2.833" style="&st1;" />
	<path d="M5.316,24.226h14.946v-2.833" style="&st1;" />
	<path d="M9.848,14.311h20.329" style="&st1;" />
	<path d="M9.848,82.299h30.244" style="&st1;" />
	<path d="M117.288,27.413v14.873" style="&st1;" />
	<path d="M132.16,27.413v14.873" style="&st1;" />
	<path d="M112.33,45.118v25.496" style="&st1;" />
	<path d="M122.245,45.118v25.496" style="&st1;" />
	<path d="M132.16,45.118v25.496" style="&st1;" />
	<path d="M256.805,74.863l16.644,8.499" style="&st0;" />
	<path d="M256.805,23.163l16.644-8.499" style="&st0;" />
	<path d="M273.449,14.665v8.499" style="&st0;" />
	<path d="M256.805,23.163h16.644" style="&st1;" />
	<path d="M232.373,23.163h24.433" style="&st0;" />
	<path d="M207.585,14.665V4.75" style="&st1;" />
	<path d="M218.916,14.665V4.75" style="&st1;" />
	<path d="M80.106,83.361h144.476" style="&st1;" />
	<path d="M80.106,88.319h121.813" style="&st0;" />
	<path d="M171.112,14.665V9.707" style="&st1;" />
	<path d="M80.106,9.707h121.813" style="&st0;" />
	<path d="M80.106,9.707v4.958" style="&st0;" />
	<path d="M80.106,83.361v4.958" style="&st0;" />
	<path d="M65.304,88.285l-7.507,9.241" style="&st0;" />
	<path d="M65.304,88.285h4.958" style="&st0;" />
	<path d="M70.262,9.741l9.844,4.923" style="&st0;" />
	<path d="M65.304,9.741L57.797,0.5" style="&st0;" />
	<path d="M65.304,9.741h4.958" style="&st0;" />
	<path d="M30.177,8.999V72.03" style="&st1;" />
	<path d="M14.098,42.639V53.97" style="&st1;" />
	<path d="M109.851,14.665h114.731" style="&st1;" />
	<path d="M224.582,14.665h7.791" style="&st0;" />
	<path d="M201.919,14.665V9.707" style="&st1;" />
	<path d="M201.919,9.707V4.75h22.663v9.915" style="&st0;" />
	<path d="M144.908,36.619v12.748h-7.082V36.619H144.908" style="&st1;" />
	<path d="M149.157,32.37v42.493" style="&st1;" />
	<path d="M139.242,14.665V32.37" style="&st1;" />
	<path d="M149.157,32.37h-9.915" style="&st1;" />
	<path d="M144.908,55.033v12.748h-7.082V55.033H144.908" style="&st1;" />
	<path d="M156.239,45.118h29.745" style="&st1;" />
	<path d="M156.239,57.866h29.745" style="&st1;" />
	<path d="M156.239,70.613h29.745" style="&st1;" />
	<path d="M156.239,45.118v25.496" style="&st1;" />
	<path d="M166.154,45.118v25.496" style="&st1;" />
	<path d="M176.069,45.118v25.496" style="&st1;" />
	<path d="M185.984,45.118v25.496" style="&st1;" />
	<path d="M156.239,27.413v14.873h29.745V27.413H156.239" style="&st1;" />
	<path d="M171.112,27.413v14.873" style="&st1;" />
	<path d="M185.984,9.707v4.958" style="&st1;" />
	<path d="M150.574,9.707v4.958" style="&st1;" />
	<path d="M159.072,9.707v4.958" style="&st1;" />
	<path d="M224.582,83.361h7.791" style="&st0;" />
	<path d="M232.373,83.361v-8.499" style="&st0;" />
	<path d="M201.919,88.319v4.958h22.663v-9.915" style="&st0;" />
	<path d="M218.916,83.361v9.915" style="&st1;" />
	<path d="M159.072,88.319v-4.958" style="&st1;" />
	<path d="M207.585,83.361v9.915" style="&st1;" />
	<path d="M201.919,83.361v4.958" style="&st1;" />
	<path d="M185.984,88.319v-4.958" style="&st1;" />
	<path d="M171.112,83.361v4.958" style="&st1;" />
	<path d="M150.574,88.319v-4.958" style="&st1;" />
	<path d="M202.981,74.863v8.499" style="&st1;" />
	<path d="M232.373,74.863h24.433" style="&st0;" />
	<path d="M139.242,74.863v8.499" style="&st1;" />
	<path d="M109.851,74.863v8.499" style="&st1;" />
	<path d="M159.072,74.863v8.499" style="&st1;" />
	<path d="M183.151,74.863v8.499" style="&st1;" />
	<path d="M139.242,74.863h19.83" style="&st1;" />
	<path d="M183.151,74.863h11.332" style="&st1;" />
	<path d="M118.35,74.863v2.833h12.394v-2.833H118.35" style="&st1;" />
	<path d="M211.48,74.863v2.833h12.394v-2.833H211.48" style="&st1;" />
	<path d="M42.925,8.999v14.164" style="&st1;" />
	<g ewd:pinNo="10">
		<text transform="matrix(1 0 0 1 228.7935 36.9385)"><tspan style="&st3; &st2;" x="0" y="0">10</tspan></text>
	</g>
	<g ewd:pinNo="9">
		<text transform="matrix(1 0 0 1 215.7451 36.9385)"><tspan style="&st3; &st2;" x="0" y="0">9</tspan></text>
	</g>
	<g ewd:pinNo="4">
		<text transform="matrix(1 0 0 1 93.2241 36.9385)"><tspan style="&st3; &st2;" x="0" y="0">4</tspan></text>
	</g>
	<g ewd:pinNo="1">
		<text transform="matrix(1 0 0 1 48.6064 36.9385)"><tspan style="&st3; &st2;" x="0" y="0">1</tspan></text>
	</g>
	<g ewd:pinNo="3">
		<text transform="matrix(1 0 0 1 78.3516 36.9385)"><tspan style="&st3; &st2;" x="0" y="0">3</tspan></text>
	</g>
	<g ewd:pinNo="2">
		<text transform="matrix(1 0 0 1 63.479 36.9385)"><tspan style="&st3; &st2;" x="0" y="0">2</tspan></text>
	</g>
	<g ewd:pinNo="11">
		<text transform="matrix(1 0 0 1 243.8882 36.9385)"><tspan style="&st3; &st2;" x="0" y="0">11</tspan></text>
	</g>
	<g ewd:pinNo="12">
		<text transform="matrix(1 0 0 1 258.5386 36.9385)"><tspan style="&st3; &st2;" x="0" y="0">12</tspan></text>
	</g>
	<g ewd:pinNo="13">
		<text transform="matrix(1 0 0 1 273.4116 36.9385)"><tspan style="&st3; &st2;" x="0" y="0">13</tspan></text>
	</g>
	<g ewd:pinNo="14">
		<text transform="matrix(1 0 0 1 288.2827 36.9385)"><tspan style="&st3; &st2;" x="0" y="0">14</tspan></text>
	</g>
	<g ewd:pinNo="15">
		<text transform="matrix(1 0 0 1 44.3032 53.5815)"><tspan style="&st3; &st2;" x="0" y="0">15</tspan></text>
	</g>
	<g ewd:pinNo="16">
		<text transform="matrix(1 0 0 1 54.2183 53.5815)"><tspan style="&st3; &st2;" x="0" y="0">16</tspan></text>
	</g>
	<g ewd:pinNo="17">
		<text transform="matrix(1 0 0 1 64.1333 53.5815)"><tspan style="&st3; &st2;" x="0" y="0">17</tspan></text>
	</g>
	<g ewd:pinNo="18">
		<text transform="matrix(1 0 0 1 74.0483 53.5815)"><tspan style="&st3; &st2;" x="0" y="0">18</tspan></text>
	</g>
	<g ewd:pinNo="19">
		<text transform="matrix(1 0 0 1 83.9634 53.5815)"><tspan style="&st3; &st2;" x="0" y="0">19</tspan></text>
	</g>
	<g ewd:pinNo="20">
		<text transform="matrix(1 0 0 1 94.084 53.5815)"><tspan style="&st3; &st2;" x="0" y="0">20</tspan></text>
	</g>
	<g ewd:pinNo="27">
		<text transform="matrix(1 0 0 1 211.6475 53.5815)"><tspan style="&st3; &st2;" x="0" y="0">27</tspan></text>
	</g>
	<g ewd:pinNo="28">
		<text transform="matrix(1 0 0 1 221.5625 53.5815)"><tspan style="&st3; &st2;" x="0" y="0">28</tspan></text>
	</g>
	<g ewd:pinNo="29">
		<text transform="matrix(1 0 0 1 231.478 53.5815)"><tspan style="&st3; &st2;" x="0" y="0">29</tspan></text>
	</g>
	<g ewd:pinNo="30">
		<text transform="matrix(1 0 0 1 241.3921 53.5815)"><tspan style="&st3; &st2;" x="0" y="0">30</tspan></text>
	</g>
	<g ewd:pinNo="31">
		<text transform="matrix(1 0 0 1 251.3081 53.5815)"><tspan style="&st3; &st2;" x="0" y="0">31</tspan></text>
	</g>
	<g ewd:pinNo="32">
		<text transform="matrix(1 0 0 1 261.2222 53.5815)"><tspan style="&st3; &st2;" x="0" y="0">32</tspan></text>
	</g>
	<g ewd:pinNo="33">
		<text transform="matrix(1 0 0 1 271.1382 53.5815)"><tspan style="&st3; &st2;" x="0" y="0">33</tspan></text>
	</g>
	<g ewd:pinNo="34">
		<text transform="matrix(1 0 0 1 281.0522 53.5815)"><tspan style="&st3; &st2;" x="0" y="0">34</tspan></text>
	</g>
	<g ewd:pinNo="35">
		<text transform="matrix(1 0 0 1 290.9673 53.5815)"><tspan style="&st3; &st2;" x="0" y="0">35</tspan></text>
	</g>
	<g ewd:pinNo="36">
		<text transform="matrix(1 0 0 1 44.5088 66.3296)"><tspan style="&st3; &st2;" x="0" y="0">36</tspan></text>
	</g>
	<g ewd:pinNo="37">
		<text transform="matrix(1 0 0 1 54.4238 66.3296)"><tspan style="&st3; &st2;" x="0" y="0">37</tspan></text>
	</g>
	<g ewd:pinNo="38">
		<text transform="matrix(1 0 0 1 64.3389 66.3296)"><tspan style="&st3; &st2;" x="0" y="0">38</tspan></text>
	</g>
	<g ewd:pinNo="39">
		<text transform="matrix(1 0 0 1 74.2539 66.3296)"><tspan style="&st3; &st2;" x="0" y="0">39</tspan></text>
	</g>
	<g ewd:pinNo="40">
		<text transform="matrix(1 0 0 1 84.1689 66.3296)"><tspan style="&st3; &st2;" x="0" y="0">40</tspan></text>
	</g>
	<g ewd:pinNo="41">
		<text transform="matrix(1 0 0 1 94.084 66.3296)"><tspan style="&st3; &st2;" x="0" y="0">41</tspan></text>
	</g>
	<g ewd:pinNo="48">
		<text transform="matrix(1 0 0 1 211.6475 66.3296)"><tspan style="&st3; &st2;" x="0" y="0">48</tspan></text>
	</g>
	<g ewd:pinNo="49">
		<text transform="matrix(1 0 0 1 221.5625 66.3296)"><tspan style="&st3; &st2;" x="0" y="0">49</tspan></text>
	</g>
	<g ewd:pinNo="50">
		<text transform="matrix(1 0 0 1 231.478 66.3296)"><tspan style="&st3; &st2;" x="0" y="0">50</tspan></text>
	</g>
	<g ewd:pinNo="51">
		<text transform="matrix(1 0 0 1 241.3921 66.3296)"><tspan style="&st3; &st2;" x="0" y="0">51</tspan></text>
	</g>
	<g ewd:pinNo="52">
		<text transform="matrix(1 0 0 1 251.3081 66.3296)"><tspan style="&st3; &st2;" x="0" y="0">52</tspan></text>
	</g>
	<g ewd:pinNo="53">
		<text transform="matrix(1 0 0 1 261.2222 66.3296)"><tspan style="&st3; &st2;" x="0" y="0">53</tspan></text>
	</g>
	<g ewd:pinNo="54">
		<text transform="matrix(1 0 0 1 271.1382 66.3296)"><tspan style="&st3; &st2;" x="0" y="0">54</tspan></text>
	</g>
	<g ewd:pinNo="55">
		<text transform="matrix(1 0 0 1 281.0522 66.3296)"><tspan style="&st3; &st2;" x="0" y="0">55</tspan></text>
	</g>
	<g ewd:pinNo="56">
		<text transform="matrix(1 0 0 1 290.9673 66.3296)"><tspan style="&st3; &st2;" x="0" y="0">56</tspan></text>
	</g>
	<g ewd:pinNo="5">
		<text transform="matrix(1 0 0 1 108.0967 36.9385)"><tspan style="&st3; &st2;" x="0" y="0">5</tspan></text>
	</g>
	<g ewd:pinNo="6">
		<text transform="matrix(1 0 0 1 122.9692 36.9385)"><tspan style="&st3; &st2;" x="0" y="0">6</tspan></text>
	</g>
	<g ewd:pinNo="42">
		<text transform="matrix(1 0 0 1 103.999 66.3296)"><tspan style="&st3; &st2;" x="0" y="0">42</tspan></text>
	</g>
	<g ewd:pinNo="21">
		<text transform="matrix(1 0 0 1 103.999 53.5815)"><tspan style="&st3; &st2;" x="0" y="0">21</tspan></text>
	</g>
	<g ewd:pinNo="43">
		<text transform="matrix(1 0 0 1 113.9141 66.3296)"><tspan style="&st3; &st2;" x="0" y="0">43</tspan></text>
	</g>
	<g ewd:pinNo="22">
		<text transform="matrix(1 0 0 1 113.9141 53.5815)"><tspan style="&st3; &st2;" x="0" y="0">22</tspan></text>
	</g>
	<g ewd:pinNo="44">
		<text transform="matrix(1 0 0 1 123.8291 66.3296)"><tspan style="&st3; &st2;" x="0" y="0">44</tspan></text>
	</g>
	<g ewd:pinNo="23">
		<text transform="matrix(1 0 0 1 123.8291 53.5815)"><tspan style="&st3; &st2;" x="0" y="0">23</tspan></text>
	</g>
	<g ewd:pinNo="7">
		<text transform="matrix(1 0 0 1 161.9209 36.9385)"><tspan style="&st3; &st2;" x="0" y="0">7</tspan></text>
	</g>
	<g ewd:pinNo="8">
		<text transform="matrix(1 0 0 1 176.7935 36.9385)"><tspan style="&st3; &st2;" x="0" y="0">8</tspan></text>
	</g>
	<g ewd:pinNo="45">
		<text transform="matrix(1 0 0 1 157.8232 66.3296)"><tspan style="&st3; &st2;" x="0" y="0">45</tspan></text>
	</g>
	<g ewd:pinNo="24">
		<text transform="matrix(1 0 0 1 157.8232 53.5815)"><tspan style="&st3; &st2;" x="0" y="0">24</tspan></text>
	</g>
	<g ewd:pinNo="46">
		<text transform="matrix(1 0 0 1 167.7383 66.3296)"><tspan style="&st3; &st2;" x="0" y="0">46</tspan></text>
	</g>
	<g ewd:pinNo="25">
		<text transform="matrix(1 0 0 1 167.7383 53.5815)"><tspan style="&st3; &st2;" x="0" y="0">25</tspan></text>
	</g>
	<g ewd:pinNo="47">
		<text transform="matrix(1 0 0 1 177.6533 66.3296)"><tspan style="&st3; &st2;" x="0" y="0">47</tspan></text>
	</g>
	<g ewd:pinNo="26">
		<text transform="matrix(1 0 0 1 177.6533 53.5815)"><tspan style="&st3; &st2;" x="0" y="0">26</tspan></text>
	</g>
</g>
</svg>