<?xml version="1.0" encoding="utf-8"?>
<!-- Generator: Adobe Illustrator 10.0, SVG Export Plug-In . SVG Version: 3.0.0 Build 77)  -->
<!DOCTYPE svg PUBLIC "-//W3C//DTD SVG 1.0//EN" "http://www.w3.org/TR/2001/REC-SVG-20010904/DTD/svg10.dtd"[
	<!ENTITY ns_flows "http://ns.adobe.com/Flows/1.0/">
	<!ENTITY ns_svg "http://www.w3.org/2000/svg">
	<!ENTITY ns_xlink "http://www.w3.org/1999/xlink">
	<!ENTITY st0 "fill:none;stroke:#000000;stroke-linecap:round;stroke-linejoin:round;">
	<!ENTITY st1 "fill:none;stroke:#000000;stroke-width:0.6;stroke-linecap:round;stroke-linejoin:round;">
	<!ENTITY st2 "font-size:6px;">
	<!ENTITY st3 "font-family:'Arial';">
	<!ATTLIST svg
		ewd:ver CDATA #IMPLIED
		xmlns:ewd CDATA #FIXED "http://shcl.co.jp/ewd"
		xmlns:a CDATA #FIXED "http://ns.adobe.com/AdobeSVGViewerExtensions/3.0/">
	<!ATTLIST g
		ewd:pinNo CDATA #IMPLIED>
	<!ATTLIST text
		ewd:textID CDATA #IMPLIED
		ewd:horAlign CDATA #IMPLIED>
	<!ATTLIST title
		ewd:textID CDATA #IMPLIED>
]>
<svg ewd:ver="2.1.2.6F" height="33.989" onload="call_execInitLoadProc_svg('connector')" style="overflow:visible;enable-background:new 0 0 79.765 33.989" viewBox="0 0 79.765 33.989" width="79.765" xml:space="preserve" xmlns="&ns_svg;" xmlns:ewd="http://shcl.co.jp/ewd" xmlns:a="http://ns.adobe.com/AdobeSVGViewerExtensions/3.0/" xmlns:xlink="&ns_xlink;">
<script type="text/javascript" xlink:href="../../../../../system/js/ewd/fig/svgfig.js" xmlns:xlink="http://www.w3.org/1999/xlink" />
<g id="レイヤー_1">
	<path d="M39.557,17.183v9.162" style="&st1;" />
	<path d="M5.101,17.183h69.563" style="&st1;" />
	<path d="M48.843,0.5h1.674" style="&st0;" />
	<path d="M28.596,0.5h1.674" style="&st0;" />
	<path d="M65.645,33.489H14.12" style="&st0;" />
	<path d="M57.438,8.021v18.323" style="&st1;" />
	<path d="M13.715,26.345V8.021" style="&st1;" />
	<path d="M66.049,8.021v18.323" style="&st1;" />
	<path d="M22.327,26.345V8.021" style="&st1;" />
	<path d="M2.483,10.313v13.739" style="&st1;" />
	<path d="M42.066,3.333h-5.02" style="&st1;" />
	<path d="M77.282,24.053V10.313" style="&st1;" />
	<path d="M2.483,28.962h74.799" style="&st1;" />
	<path d="M34.497,2.625c0,0.392,0.317,0.708,0.708,0.708" style="&st0;" />
	<path d="M43.908,3.333c0.391,0,0.708-0.317,0.708-0.708" style="&st0;" />
	<path d="M28.596,0.5c-0.7,0-1.282,0.494-1.397,1.184" style="&st0;" />
	<path d="M30.959,1.05c-0.075-0.325-0.354-0.548-0.688-0.548" style="&st0;" />
	<path d="M48.843,0.5c-0.335,0-0.615,0.223-0.69,0.549" style="&st0;" />
	<path d="M51.914,1.685c-0.115-0.69-0.697-1.184-1.396-1.184" style="&st0;" />
	<path d="M7.038,31.591c2.258,1.304,4.475,1.897,7.082,1.897" style="&st0;" />
	<path d="M65.645,33.489c2.607,0,4.824-0.594,7.082-1.897" style="&st0;" />
	<path d="M30.942,26.345V8.021H5.101v18.323h69.563V8.021H48.826v18.323" style="&st1;" />
	<path d="M34.497,2.625V0.5h10.119v2.125" style="&st0;" />
	<path d="M30.959,1.05l1.292,5.663v5.89h4.796v-9.27h-1.841" style="&st0;" />
	<path d="M43.908,3.333h-1.841v9.27h4.796v-5.89l1.292-5.663" style="&st0;" />
	<path d="M7.036,31.591l-4.553-2.629v-4.909H0.5V10.313h1.983V6.058L3.792,4.75h22.896L27.2,1.685" style="&st0;" />
	<path d="M72.727,31.591l4.555-2.629v-4.909h1.983V10.313h-1.983V6.058L75.964,4.75H52.423l-0.51-3.065" style="&st0;" />
	<path d="M26.687,4.75h4.255l1.309,1.963" style="&st1;" />
	<path d="M52.423,4.75h-3.598l-1.963,1.963" style="&st1;" />
	<g ewd:pinNo="6">
		<text transform="matrix(1 0 0 1 68.6216 14.8418)"><tspan style="&st3; &st2;" x="0" y="0">6</tspan></text>
	</g>
	<g ewd:pinNo="4">
		<text transform="matrix(1 0 0 1 51.3975 14.8418)"><tspan style="&st3; &st2;" x="0" y="0">4</tspan></text>
	</g>
	<g ewd:pinNo="3">
		<text transform="matrix(1 0 0 1 24.8989 14.8418)"><tspan style="&st3; &st2;" x="0" y="0">3</tspan></text>
	</g>
	<g ewd:pinNo="2">
		<text transform="matrix(1 0 0 1 16.2871 14.8418)"><tspan style="&st3; &st2;" x="0" y="0">2</tspan></text>
	</g>
	<g ewd:pinNo="1">
		<text transform="matrix(1 0 0 1 7.6724 14.8418)"><tspan style="&st3; &st2;" x="0" y="0">1</tspan></text>
	</g>
	<g ewd:pinNo="7">
		<text transform="matrix(1 0 0 1 7.6724 24.0034)"><tspan style="&st3; &st2;" x="0" y="0">7</tspan></text>
	</g>
	<g ewd:pinNo="8">
		<text transform="matrix(1 0 0 1 16.2871 24.0034)"><tspan style="&st3; &st2;" x="0" y="0">8</tspan></text>
	</g>
	<g ewd:pinNo="9">
		<text transform="matrix(1 0 0 1 24.8989 24.0034)"><tspan style="&st3; &st2;" x="0" y="0">9</tspan></text>
	</g>
	<g ewd:pinNo="10">
		<text transform="matrix(1 0 0 1 31.5938 24.0034)"><tspan style="&st3; &st2;" x="0" y="0">10</tspan></text>
	</g>
	<g ewd:pinNo="11">
		<text transform="matrix(1 0 0 1 40.7598 24.0034)"><tspan style="&st3; &st2;" x="0" y="0">11</tspan></text>
	</g>
	<g ewd:pinNo="12">
		<text transform="matrix(1 0 0 1 49.4775 24.0034)"><tspan style="&st3; &st2;" x="0" y="0">12</tspan></text>
	</g>
	<g ewd:pinNo="14">
		<text transform="matrix(1 0 0 1 66.7012 24.0034)"><tspan style="&st3; &st2;" x="0" y="0">14</tspan></text>
	</g>
	<g ewd:pinNo="5">
		<text transform="matrix(1 0 0 1 60.0093 14.8418)"><tspan style="&st3; &st2;" x="0" y="0">5</tspan></text>
	</g>
	<g ewd:pinNo="13">
		<text transform="matrix(1 0 0 1 58.0894 24.0034)"><tspan style="&st3; &st2;" x="0" y="0">13</tspan></text>
	</g>
</g>
</svg>