<?xml version="1.0" encoding="utf-8"?>
<!-- Generator: Adobe Illustrator 10.0, SVG Export Plug-In . SVG Version: 3.0.0 Build 77)  -->
<!DOCTYPE svg PUBLIC "-//W3C//DTD SVG 1.0//EN" "http://www.w3.org/TR/2001/REC-SVG-20010904/DTD/svg10.dtd"[
	<!ENTITY ns_flows "http://ns.adobe.com/Flows/1.0/">
	<!ENTITY ns_svg "http://www.w3.org/2000/svg">
	<!ENTITY ns_xlink "http://www.w3.org/1999/xlink">
	<!ENTITY st0 "fill:none;">
	<!ENTITY st1 "stroke:#000000;">
	<!ENTITY st2 "stroke-linecap:round;">
	<!ENTITY st3 "stroke-linejoin:round;">
	<!ENTITY st4 "stroke-width:0.6;">
	<!ENTITY st5 "font-size:6px;">
	<!ENTITY st6 "font-family:'Arial';">
	<!ENTITY st7 "stroke-width:1.4;">
	<!ATTLIST svg
		ewd:ver CDATA #IMPLIED
		xmlns:ewd CDATA #FIXED "http://shcl.co.jp/ewd"
		xmlns:a CDATA #FIXED "http://ns.adobe.com/AdobeSVGViewerExtensions/3.0/">
	<!ATTLIST g
		ewd:pinNo CDATA #IMPLIED>
	<!ATTLIST text
		ewd:textID CDATA #IMPLIED
		ewd:horAlign CDATA #IMPLIED>
	<!ATTLIST title
		ewd:textID CDATA #IMPLIED>
]>
<svg ewd:ver="2.1.2.6F" height="95.91" onload="call_execInitLoadProc_svg('connector')" style="overflow:visible;enable-background:new 0 0 101.567 69.932" viewBox="0 0 239.971 95.91" width="239.971" xml:space="preserve" xmlns="&ns_svg;" xmlns:ewd="http://shcl.co.jp/ewd" xmlns:a="http://ns.adobe.com/AdobeSVGViewerExtensions/3.0/" xmlns:xlink="&ns_xlink;">
<script type="text/javascript" xlink:href="../../../../../system/js/ewd/fig/svgfig.js" xmlns:xlink="http://www.w3.org/1999/xlink" />
<g id="レイヤー_1" transform="translate(0,17.008)">
	<path d="M77.956,69.432c1.757,0,3.252-0.453,4.714-1.427" style="&st0;&st1;&st2;&st3;" />
	<path d="M18.896,68.004c1.462,0.975,2.957,1.427,4.714,1.427" style="&st0;&st1;&st2;&st3;" />
	<path d="M84.542,3.333c0-1.564-1.269-2.833-2.833-2.833" style="&st0;&st1;&st4;&st2;&st3;" />
	<path d="M19.857,0.5c-1.564,0-2.833,1.269-2.833,2.833" style="&st0;&st1;&st4;&st2;&st3;" />
	<path d="M78.404,8.999c0-1.564-1.269-2.833-2.833-2.833" style="&st0;&st1;&st4;&st2;&st3;" />
	<path d="M0.5,60.834c0,0.979,0.446,1.813,1.261,2.356" style="&st0;&st1;&st2;&st3;" />
	<path d="M25.996,6.166c-1.564,0-2.833,1.269-2.833,2.833" style="&st0;&st1;&st4;&st2;&st3;" />
	<path d="M99.806,63.191c0.814-0.543,1.261-1.378,1.261-2.357" style="&st0;&st1;&st2;&st3;" />
	<path d="M96.231,1.33C95.678,0.777,95.01,0.5,94.228,0.5" style="&st0;&st1;&st2;&st3;" />
	<path d="M101.066,7.339c0-0.782-0.276-1.45-0.83-2.003" style="&st0;&st1;&st2;&st3;" />
	<path d="M7.338,0.5c-0.782,0-1.45,0.277-2.003,0.83" style="&st0;&st1;&st2;&st3;" />
	<path d="M1.33,5.336C0.777,5.889,0.5,6.557,0.5,7.339" style="&st0;&st1;&st2;&st3;" />
	<path d="M23.61,69.432h54.346" style="&st0;&st1;&st2;&st3;" />
	<path d="M0.5,59.517h100.566" style="&st0;&st1;&st4;&st2;&st3;" />
	<path d="M6.166,31.188v25.496h89.235V31.188H6.166" style="&st0;&st1;&st4;&st2;&st3;" />
	<path d="M35.911,56.685V31.188" style="&st0;&st1;&st4;&st2;&st3;" />
	<path d="M45.826,56.685V31.188" style="&st0;&st1;&st4;&st2;&st3;" />
	<path d="M55.741,56.685V31.188" style="&st0;&st1;&st4;&st2;&st3;" />
	<path d="M65.656,56.685V31.188" style="&st0;&st1;&st4;&st2;&st3;" />
	<path d="M82.67,68.004l17.136-4.813" style="&st0;&st1;&st2;&st3;" />
	<path d="M18.896,68.004L1.761,63.191" style="&st0;&st1;&st2;&st3;" />
	<path d="M6.166,25.523h22.663v-9.915h43.909v9.915h22.663" style="&st0;&st1;&st4;&st2;&st3;" />
	<path d="M0.5,17.498l1.89-1.89h1.886l1.89,1.89v8.025" style="&st0;&st1;&st4;&st2;&st3;" />
	<path d="M101.066,17.498l-1.89-1.89H97.29l-1.889,1.89v8.025" style="&st0;&st1;&st4;&st2;&st3;" />
	<path d="M0.5,60.834V7.339" style="&st0;&st1;&st2;&st3;" />
	<path d="M101.066,60.834V7.339" style="&st0;&st1;&st2;&st3;" />
	<path d="M7.338,0.5h86.89" style="&st0;&st1;&st2;&st3;" />
	<path d="M17.024,3.333v22.19" style="&st0;&st1;&st4;&st2;&st3;" />
	<path d="M84.542,25.523V3.333" style="&st0;&st1;&st4;&st2;&st3;" />
	<path d="M23.163,25.523V8.999" style="&st0;&st1;&st4;&st2;&st3;" />
	<path d="M78.404,25.523V8.999" style="&st0;&st1;&st4;&st2;&st3;" />
	<path d="M25.996,6.166h49.575" style="&st0;&st1;&st4;&st2;&st3;" />
	<path d="M44.763,15.608V9.942h12.04v5.666" style="&st0;&st1;&st4;&st2;&st3;" />
	<path d="M6.166,43.937h89.235" style="&st0;&st1;&st4;&st2;&st3;" />
	<path d="M25.996,56.685V31.188" style="&st0;&st1;&st4;&st2;&st3;" />
	<path d="M75.571,56.685V31.188" style="&st0;&st1;&st4;&st2;&st3;" />
	<path d="M28.829,15.608v-4.25h7.082l1.983,1.983v2.267" style="&st0;&st1;&st4;&st2;&st3;" />
	<path d="M37.894,13.341h6.87" style="&st0;&st1;&st4;&st2;&st3;" />
	<path d="M72.738,15.608v-4.25h-7.082l-1.983,1.983v2.267" style="&st0;&st1;&st4;&st2;&st3;" />
	<path d="M63.673,13.341h-6.87" style="&st0;&st1;&st4;&st2;&st3;" />
	<path d="M100.236,5.336L96.231,1.33" style="&st0;&st1;&st2;&st3;" />
	<path d="M1.33,5.336L5.336,1.33" style="&st0;&st1;&st2;&st3;" />
	<path d="M85.486,56.685V31.188" style="&st0;&st1;&st4;&st2;&st3;" />
	<path d="M16.081,56.685V31.188" style="&st0;&st1;&st4;&st2;&st3;" />
	<g ewd:pinNo="2">
		<text transform="matrix(1 0 0 1 19.1016 39.8994)"><tspan style="&st6; &st5;" x="0" y="0">2</tspan></text>
	</g>
	<g ewd:pinNo="4">
		<text transform="matrix(1 0 0 1 38.9316 39.8994)"><tspan style="&st6; &st5;" x="0" y="0">4</tspan></text>
	</g>
	<g ewd:pinNo="5">
		<text transform="matrix(1 0 0 1 48.8462 39.8994)"><tspan style="&st6; &st5;" x="0" y="0">5</tspan></text>
	</g>
	<g ewd:pinNo="6">
		<text transform="matrix(1 0 0 1 58.7617 39.8994)"><tspan style="&st6; &st5;" x="0" y="0">6</tspan></text>
	</g>
	<g ewd:pinNo="8">
		<text transform="matrix(1 0 0 1 78.5913 39.8994)"><tspan style="&st6; &st5;" x="0" y="0">8</tspan></text>
	</g>
	<g ewd:pinNo="15">
		<text transform="matrix(1 0 0 1 57.1191 52.6475)"><tspan style="&st6; &st5;" x="0" y="0">15</tspan></text>
	</g>
	<g ewd:pinNo="17">
		<text transform="matrix(1 0 0 1 76.9492 52.6475)"><tspan style="&st6; &st5;" x="0" y="0">17</tspan></text>
	</g>
	<g ewd:pinNo="14">
		<text transform="matrix(1 0 0 1 47.2041 52.6475)"><tspan style="&st6; &st5;" x="0" y="0">14</tspan></text>
	</g>
	<g ewd:pinNo="13">
		<text transform="matrix(1 0 0 1 37.2891 52.6475)"><tspan style="&st6; &st5;" x="0" y="0">13</tspan></text>
	</g>
	<g ewd:pinNo="11">
		<text transform="matrix(1 0 0 1 17.6816 52.6475)"><tspan style="&st6; &st5;" x="0" y="0">11</tspan></text>
	</g>
	<g ewd:pinNo="3">
		<text transform="matrix(1 0 0 1 29.0166 39.8994)"><tspan style="&st6; &st5;" x="0" y="0">3</tspan></text>
	</g>
	<g ewd:pinNo="12">
		<text transform="matrix(1 0 0 1 27.374 52.6475)"><tspan style="&st6; &st5;" x="0" y="0">12</tspan></text>
	</g>
	<g ewd:pinNo="7">
		<text transform="matrix(1 0 0 1 68.6768 39.8994)"><tspan style="&st6; &st5;" x="0" y="0">7</tspan></text>
	</g>
	<g ewd:pinNo="16">
		<text transform="matrix(1 0 0 1 67.0342 52.6475)"><tspan style="&st6; &st5;" x="0" y="0">16</tspan></text>
	</g>
	<g ewd:pinNo="9">
		<text transform="matrix(1 0 0 1 88.5063 39.8994)"><tspan style="&st6; &st5;" x="0" y="0">9</tspan></text>
	</g>
	<g ewd:pinNo="18">
		<text transform="matrix(1 0 0 1 86.8643 52.6475)"><tspan style="&st6; &st5;" x="0" y="0">18</tspan></text>
	</g>
	<g ewd:pinNo="1">
		<text transform="matrix(1 0 0 1 9.1865 39.8994)"><tspan style="&st6; &st5;" x="0" y="0">1</tspan></text>
	</g>
	<g ewd:pinNo="10">
		<text transform="matrix(1 0 0 1 7.5439 52.6475)"><tspan style="&st6; &st5;" x="0" y="0">10</tspan></text>
	</g>
</g>
<g id="レイヤー_1" transform="translate(121.408,17.008)">
	<path d="M0.5,52.908c0,4.693,3.805,8.499,8.499,8.499" style="&st0;&st1;&st2;&st3;" />
	<path d="M8.999,0.5C4.305,0.5,0.5,4.305,0.5,8.999" style="&st0;&st1;&st2;&st3;" />
	<path d="M118.063,8.999c0-4.694-3.805-8.499-8.499-8.499" style="&st0;&st1;&st2;&st3;" />
	<path d="M109.565,61.407c4.694,0,8.499-3.805,8.499-8.499" style="&st0;&st1;&st2;&st3;" />
	<path d="M29.678,74.155c0,2.347,1.903,4.249,4.25,4.249" style="&st0;&st1;&st2;&st3;" />
	<path d="M84.636,78.404c2.347,0,4.25-1.902,4.25-4.249" style="&st0;&st1;&st2;&st3;" />
	<path d="M45.472,67.781c-1.564,0-2.833,1.268-2.833,2.833" style="&st0;&st1;&st4;&st2;&st3;" />
	<path d="M46.763,67.781c0.921,0,1.694-0.601,1.922-1.493" style="&st0;&st1;&st4;&st2;&st3;" />
	<path d="M75.925,70.613c0-1.564-1.268-2.833-2.833-2.833" style="&st0;&st1;&st4;&st2;&st3;" />
	<path d="M69.879,66.288c0.228,0.892,1,1.492,1.921,1.492" style="&st0;&st1;&st4;&st2;&st3;" />
	<path d="M14.664,25.996v25.496h89.235V25.996H14.664" style="&st0;&st1;&st4;&st2;&st3;" />
	<path d="M44.409,51.492V25.996" style="&st0;&st1;&st4;&st2;&st3;" />
	<path d="M54.324,51.492V25.996" style="&st0;&st1;&st4;&st2;&st3;" />
	<path d="M64.239,51.492V25.996" style="&st0;&st1;&st4;&st2;&st3;" />
	<path d="M74.154,51.492V25.996" style="&st0;&st1;&st4;&st2;&st3;" />
	<path d="M55.033,70.613v4.25h8.499v-4.25" style="&st0;&st1;&st4;&st2;&st3;" />
	<path d="M44.409,4.75l2.833,2.833h24.079l2.833-2.833" style="&st0;&st1;&st4;&st2;&st3;" />
	<path d="M50.075,7.583v2.833h18.414V7.583" style="&st0;&st1;&st4;&st2;&st3;" />
	<path d="M34.494,16.081V4.75h49.575v11.332" style="&st0;&st1;&st4;&st2;&st3;" />
	<path d="M7.582,54.325h103.399" style="&st0;&st1;&st4;&st2;&st3;" />
	<path d="M8.999,0.5h100.566" style="&st0;&st1;&st2;&st3;" />
	<path d="M42.639,70.613v7.791" style="&st0;&st1;&st4;&st2;&st3;" />
	<path d="M0.5,8.999v43.909" style="&st0;&st1;&st2;&st3;" />
	<path d="M118.063,8.999v43.909" style="&st0;&st1;&st2;&st3;" />
	<path d="M33.928,78.404h50.708" style="&st0;&st1;&st2;&st3;" />
	<path d="M42.639,70.613h33.286" style="&st0;&st1;&st4;&st2;&st3;" />
	<path d="M14.664,38.744h89.235" style="&st0;&st1;&st4;&st2;&st3;" />
	<path d="M84.069,51.492V25.996" style="&st0;&st1;&st4;&st2;&st3;" />
	<path d="M34.494,51.492V25.996" style="&st0;&st1;&st4;&st2;&st3;" />
	<path d="M93.984,51.492V25.996" style="&st0;&st1;&st4;&st2;&st3;" />
	<path d="M24.579,51.492V25.996" style="&st0;&st1;&st4;&st2;&st3;" />
	<path d="M88.885,61.407h20.68" style="&st0;&st1;&st4;&st2;&st3;" />
	<path d="M8.999,61.407h20.68" style="&st0;&st1;&st4;&st2;&st3;" />
	<path d="M35.344,61.407h47.875" style="&st0;&st1;&st4;&st2;&st3;" />
	<path d="M17.497,4.75v8.499h14.165V4.75H17.497" style="&st0;&st1;&st4;&st2;&st3;" />
	<path d="M101.066,4.75v8.499H86.902V4.75H101.066" style="&st0;&st1;&st4;&st2;&st3;" />
	<path d="M45.472,67.781h1.292" style="&st0;&st1;&st4;&st2;&st3;" />
	<path d="M48.684,66.288l1.604-4.881" style="&st0;&st1;&st4;&st2;&st3;" />
	<path d="M75.925,70.613v7.791" style="&st0;&st1;&st4;&st2;&st3;" />
	<path d="M73.092,67.781H71.8" style="&st0;&st1;&st4;&st2;&st3;" />
	<path d="M69.879,66.288l-1.604-4.881" style="&st0;&st1;&st4;&st2;&st3;" />
	<path d="M49.565,64.239h19.434" style="&st0;&st1;&st4;&st2;&st3;" />
	<path d="M52.2,70.613v-6.374" style="&st0;&st1;&st4;&st2;&st3;" />
	<path d="M66.364,70.613v-6.374" style="&st0;&st1;&st4;&st2;&st3;" />
	<path d="M8.999,61.407v2.833h20.68" style="&st0;&st1;&st2;&st3;" />
	<path d="M88.885,64.239h20.68v-2.833" style="&st0;&st1;&st2;&st3;" />
	<path d="M29.678,61.407v2.833" style="&st0;&st1;&st4;&st2;&st3;" />
	<path d="M29.678,64.239v9.916" style="&st0;&st1;&st2;&st3;" />
	<path d="M88.885,61.407v2.833" style="&st0;&st1;&st4;&st2;&st3;" />
	<path d="M88.885,64.239v9.916" style="&st0;&st1;&st2;&st3;" />
	<path d="M7.582,19.268l-1.417,1.417v20.538l1.417,1.417" style="&st0;&st1;&st4;&st2;&st3;" />
	<path d="M34.494,16.081h-19.83V7.583H7.582v11.686" style="&st0;&st1;&st4;&st2;&st3;" />
	<path d="M7.582,42.639v11.686" style="&st0;&st1;&st4;&st2;&st3;" />
	<path d="M110.981,19.268l1.417,1.417v20.538l-1.417,1.417" style="&st0;&st1;&st4;&st2;&st3;" />
	<path d="M84.069,16.081h19.83V7.583h7.082v11.686" style="&st0;&st1;&st4;&st2;&st3;" />
	<path d="M110.981,42.639v11.686" style="&st0;&st1;&st4;&st2;&st3;" />
	<path d="M86.052,58.574l-2.833,2.833" style="&st0;&st1;&st4;&st2;&st3;" />
	<path d="M32.511,58.574l2.833,2.833" style="&st0;&st1;&st4;&st2;&st3;" />
	<g ewd:pinNo="7">
		<text transform="matrix(1 0 0 1 37.7383 34.6035)"><tspan style="&st6; &st5;" x="0" y="0">7</tspan></text>
	</g>
	<g ewd:pinNo="6">
		<text transform="matrix(1 0 0 1 47.6533 34.6035)"><tspan style="&st6; &st5;" x="0" y="0">6</tspan></text>
	</g>
	<g ewd:pinNo="5">
		<text transform="matrix(1 0 0 1 57.5684 34.6035)"><tspan style="&st6; &st5;" x="0" y="0">5</tspan></text>
	</g>
	<g ewd:pinNo="4">
		<text transform="matrix(1 0 0 1 67.4834 34.6035)"><tspan style="&st6; &st5;" x="0" y="0">4</tspan></text>
	</g>
	<g ewd:pinNo="3">
		<text transform="matrix(1 0 0 1 77.3979 34.6035)"><tspan style="&st6; &st5;" x="0" y="0">3</tspan></text>
	</g>
	<g ewd:pinNo="15">
		<text transform="matrix(1 0 0 1 45.7778 47.3516)"><tspan style="&st6; &st5;" x="0" y="0">15</tspan></text>
	</g>
	<g ewd:pinNo="14">
		<text transform="matrix(1 0 0 1 55.6929 47.3516)"><tspan style="&st6; &st5;" x="0" y="0">14</tspan></text>
	</g>
	<g ewd:pinNo="16">
		<text transform="matrix(1 0 0 1 35.8628 47.3516)"><tspan style="&st6; &st5;" x="0" y="0">16</tspan></text>
	</g>
	<g ewd:pinNo="13">
		<text transform="matrix(1 0 0 1 65.6079 47.3516)"><tspan style="&st6; &st5;" x="0" y="0">13</tspan></text>
	</g>
	<g ewd:pinNo="12">
		<text transform="matrix(1 0 0 1 75.5229 47.3516)"><tspan style="&st6; &st5;" x="0" y="0">12</tspan></text>
	</g>
	<g ewd:pinNo="2">
		<text transform="matrix(1 0 0 1 87.3135 34.6035)"><tspan style="&st6; &st5;" x="0" y="0">2</tspan></text>
	</g>
	<g ewd:pinNo="11">
		<text transform="matrix(1 0 0 1 85.6606 47.3516)"><tspan style="&st6; &st5;" x="0" y="0">11</tspan></text>
	</g>
	<g ewd:pinNo="8">
		<text transform="matrix(1 0 0 1 27.8232 34.6035)"><tspan style="&st6; &st5;" x="0" y="0">8</tspan></text>
	</g>
	<g ewd:pinNo="17">
		<text transform="matrix(1 0 0 1 25.9482 47.3516)"><tspan style="&st6; &st5;" x="0" y="0">17</tspan></text>
	</g>
	<g ewd:pinNo="1">
		<text transform="matrix(1 0 0 1 97.228 34.6035)"><tspan style="&st6; &st5;" x="0" y="0">1</tspan></text>
	</g>
	<g ewd:pinNo="10">
		<text transform="matrix(1 0 0 1 95.353 47.3516)"><tspan style="&st6; &st5;" x="0" y="0">10</tspan></text>
	</g>
	<g ewd:pinNo="9">
		<text transform="matrix(1 0 0 1 17.9082 34.6035)"><tspan style="&st6; &st5;" x="0" y="0">9</tspan></text>
	</g>
	<g ewd:pinNo="18">
		<text transform="matrix(1 0 0 1 16.0332 47.3516)"><tspan style="&st6; &st5;" x="0" y="0">18</tspan></text>
	</g>
</g>
<path d="M50.7835,9.069v-8.504h129.906v8.504" style="&st0;&st1;&st7;&st2;&st3;" />
</svg>