<?xml version="1.0" encoding="utf-8"?>
<!-- Generator: Adobe Illustrator 10.0, SVG Export Plug-In . SVG Version: 3.0.0 Build 77)  -->
<!DOCTYPE svg PUBLIC "-//W3C//DTD SVG 1.0//EN" "http://www.w3.org/TR/2001/REC-SVG-20010904/DTD/svg10.dtd"[
	<!ENTITY ns_flows "http://ns.adobe.com/Flows/1.0/">
	<!ENTITY ns_svg "http://www.w3.org/2000/svg">
	<!ENTITY ns_xlink "http://www.w3.org/1999/xlink">
	<!ENTITY st0 "fill:none;">
	<!ENTITY st1 "stroke:#000000;">
	<!ENTITY st2 "stroke-linecap:round;">
	<!ENTITY st3 "stroke-linejoin:round;">
	<!ENTITY st4 "stroke-width:0.6;">
	<!ENTITY st5 "font-size:6px;">
	<!ENTITY st6 "font-family:'Arial';">
	<!ENTITY st7 "stroke-width:1.4;">
	<!ATTLIST svg
		ewd:ver CDATA #IMPLIED
		xmlns:ewd CDATA #FIXED "http://shcl.co.jp/ewd"
		xmlns:a CDATA #FIXED "http://ns.adobe.com/AdobeSVGViewerExtensions/3.0/">
	<!ATTLIST g
		ewd:pinNo CDATA #IMPLIED>
	<!ATTLIST text
		ewd:textID CDATA #IMPLIED
		ewd:horAlign CDATA #IMPLIED>
	<!ATTLIST title
		ewd:textID CDATA #IMPLIED>
]>
<svg ewd:ver="2.1.2.6F" height="105.825" onload="call_execInitLoadProc_svg('connector')" style="overflow:visible;enable-background:new 0 0 144.059 88.819" viewBox="0 0 319.291 105.825" width="319.291" xml:space="preserve" xmlns="&ns_svg;" xmlns:ewd="http://shcl.co.jp/ewd" xmlns:a="http://ns.adobe.com/AdobeSVGViewerExtensions/3.0/" xmlns:xlink="&ns_xlink;">
<script type="text/javascript" xlink:href="../../../../../system/js/ewd/fig/svgfig.js" xmlns:xlink="http://www.w3.org/1999/xlink" />
<g id="レイヤー_1" transform="translate(0,17.008)">
	<path d="M64.239,77.554c0,1.251,1.015,2.266,2.266,2.266" style="&st0;&st1;&st4;&st2;&st3;" />
	<path d="M0.5,72.738c0,0.782,0.634,1.417,1.416,1.417" style="&st0;&st1;&st4;&st2;&st3;" />
	<path d="M136.477,23.163c-0.782,0-1.416,0.634-1.416,1.417" style="&st0;&st1;&st4;&st2;&st3;" />
	<path d="M106.732,14.665c-0.783,0-1.417,0.634-1.417,1.417" style="&st0;&st1;&st4;&st2;&st3;" />
	<path d="M143.559,24.58c0-0.782-0.634-1.417-1.416-1.417" style="&st0;&st1;&st4;&st2;&st3;" />
	<path d="M142.143,74.155c0.782,0,1.416-0.634,1.416-1.417" style="&st0;&st1;&st4;&st2;&st3;" />
	<path d="M38.744,16.081c0-0.782-0.634-1.417-1.417-1.417" style="&st0;&st1;&st4;&st2;&st3;" />
	<path d="M8.999,24.58c0-0.782-0.634-1.417-1.417-1.417" style="&st0;&st1;&st4;&st2;&st3;" />
	<path d="M1.916,23.163c-0.782,0-1.416,0.634-1.416,1.417" style="&st0;&st1;&st4;&st2;&st3;" />
	<path d="M33.078,14.665c-0.782,0-1.416,0.634-1.416,1.417" style="&st0;&st1;&st4;&st2;&st3;" />
	<path d="M112.398,16.081c0-0.782-0.634-1.417-1.417-1.417" style="&st0;&st1;&st4;&st2;&st3;" />
	<path d="M57.724,79.82c1.251,0,2.267-1.015,2.267-2.266" style="&st0;&st1;&st4;&st2;&st3;" />
	<path d="M84.069,77.554c0,1.251,1.015,2.266,2.266,2.266" style="&st0;&st1;&st4;&st2;&st3;" />
	<path d="M77.554,79.82c1.251,0,2.266-1.015,2.266-2.266" style="&st0;&st1;&st4;&st2;&st3;" />
	<path d="M9.61,85.8c2.479,1.717,5.047,2.519,8.063,2.519" style="&st0;&st1;&st2;&st3;" />
	<path d="M126.387,88.319c3.016,0,5.583-0.802,8.062-2.519" style="&st0;&st1;&st2;&st3;" />
	<path d="M143.559,14.665c0-7.823-6.341-14.165-14.164-14.165" style="&st0;&st1;&st2;&st3;" />
	<path d="M14.664,0.5C6.841,0.5,0.5,6.842,0.5,14.665" style="&st0;&st1;&st2;&st3;" />
	<path d="M108.715,79.82c1.251,0,2.266-1.015,2.266-2.266" style="&st0;&st1;&st4;&st2;&st3;" />
	<path d="M115.231,77.554c0,1.251,1.015,2.266,2.266,2.266" style="&st0;&st1;&st4;&st2;&st3;" />
	<path d="M33.078,77.554c0,1.251,1.015,2.266,2.267,2.266" style="&st0;&st1;&st4;&st2;&st3;" />
	<path d="M26.562,79.82c1.252,0,2.267-1.015,2.267-2.266" style="&st0;&st1;&st4;&st2;&st3;" />
	<path d="M0.5,41.577l5.666,5.666v14.165L0.5,67.072" style="&st0;&st1;&st4;&st2;&st3;" />
	<path d="M59.99,61.407h4.249" style="&st0;&st1;&st4;&st2;&st3;" />
	<path d="M61.406,20.33v-4.249h21.247v4.249" style="&st0;&st1;&st4;&st2;&st3;" />
	<path d="M48.659,33.078V20.33h12.748" style="&st0;&st1;&st4;&st2;&st3;" />
	<path d="M82.653,20.33h12.748v12.748" style="&st0;&st1;&st4;&st2;&st3;" />
	<path d="M143.559,14.665v55.241" style="&st0;&st1;&st2;&st3;" />
	<path d="M0.5,14.665v55.241" style="&st0;&st1;&st2;&st3;" />
	<path d="M48.659,24.58h-5.666V10.416h58.074V24.58h-5.666" style="&st0;&st1;&st4;&st2;&st3;" />
	<path d="M48.659,23.163h46.742" style="&st0;&st1;&st4;&st2;&st3;" />
	<path d="M37.327,40.16v28.329h19.83" style="&st0;&st1;&st4;&st2;&st3;" />
	<path d="M37.327,55.741h69.405" style="&st0;&st1;&st4;&st2;&st3;" />
	<path d="M96.817,42.993v25.496" style="&st0;&st1;&st4;&st2;&st3;" />
	<path d="M86.902,42.993v25.496" style="&st0;&st1;&st4;&st2;&st3;" />
	<path d="M76.987,42.993v25.496" style="&st0;&st1;&st4;&st2;&st3;" />
	<path d="M57.157,42.993v25.496" style="&st0;&st1;&st4;&st2;&st3;" />
	<path d="M47.242,42.993v25.496" style="&st0;&st1;&st4;&st2;&st3;" />
	<path d="M38.744,33.078h9.915" style="&st0;&st1;&st4;&st2;&st3;" />
	<path d="M95.401,33.078h9.915" style="&st0;&st1;&st4;&st2;&st3;" />
	<path d="M112.398,33.078h22.663" style="&st0;&st1;&st4;&st2;&st3;" />
	<path d="M8.999,33.078h22.663" style="&st0;&st1;&st4;&st2;&st3;" />
	<path d="M38.744,16.081v16.997" style="&st0;&st1;&st4;&st2;&st3;" />
	<path d="M112.398,16.081v16.997" style="&st0;&st1;&st4;&st2;&st3;" />
	<path d="M33.078,14.665h4.25" style="&st0;&st1;&st4;&st2;&st3;" />
	<path d="M31.662,33.078V16.081" style="&st0;&st1;&st4;&st2;&st3;" />
	<path d="M106.732,14.665h4.249" style="&st0;&st1;&st4;&st2;&st3;" />
	<path d="M105.316,33.078V16.081" style="&st0;&st1;&st4;&st2;&st3;" />
	<path d="M0.5,24.58v50.991" style="&st0;&st1;&st2;&st3;" />
	<path d="M1.916,74.155H59.99" style="&st0;&st1;&st4;&st2;&st3;" />
	<path d="M143.559,24.58v50.991" style="&st0;&st1;&st2;&st3;" />
	<path d="M143.559,41.577l-5.666,5.666v14.165l5.666,5.666" style="&st0;&st1;&st4;&st2;&st3;" />
	<path d="M136.477,23.163h5.666" style="&st0;&st1;&st4;&st2;&st3;" />
	<path d="M135.061,33.078V24.58" style="&st0;&st1;&st4;&st2;&st3;" />
	<path d="M8.999,24.58v8.499" style="&st0;&st1;&st4;&st2;&st3;" />
	<path d="M1.916,23.163h5.666" style="&st0;&st1;&st4;&st2;&st3;" />
	<path d="M17.673,88.319h108.714" style="&st0;&st1;&st2;&st3;" />
	<path d="M139.31,74.155v6.187" style="&st0;&st1;&st4;&st2;&st3;" />
	<path d="M143.559,75.571l-9.11,10.229" style="&st0;&st1;&st2;&st3;" />
	<path d="M86.335,79.82h22.38" style="&st0;&st1;&st4;&st2;&st3;" />
	<path d="M79.82,61.407h4.25" style="&st0;&st1;&st4;&st2;&st3;" />
	<path d="M0.5,75.571L9.61,85.8" style="&st0;&st1;&st2;&st3;" />
	<path d="M66.505,79.82h11.048" style="&st0;&st1;&st4;&st2;&st3;" />
	<path d="M79.82,77.554v-18.98h4.25v18.98" style="&st0;&st1;&st4;&st2;&st3;" />
	<path d="M84.069,74.155h58.074" style="&st0;&st1;&st4;&st2;&st3;" />
	<path d="M64.239,74.155H79.82" style="&st0;&st1;&st4;&st2;&st3;" />
	<path d="M59.99,77.554v-18.98h4.249v18.98" style="&st0;&st1;&st4;&st2;&st3;" />
	<path d="M119.48,40.16v28.329" style="&st0;&st1;&st4;&st2;&st3;" />
	<path d="M24.579,40.16v28.329" style="&st0;&st1;&st4;&st2;&st3;" />
	<path d="M24.579,68.489H11.832V40.16h25.496" style="&st0;&st1;&st4;&st2;&st3;" />
	<path d="M37.327,54.325H11.832" style="&st0;&st1;&st4;&st2;&st3;" />
	<path d="M86.902,68.489h19.83V42.993H37.327" style="&st0;&st1;&st4;&st2;&st3;" />
	<path d="M67.072,68.489h9.915" style="&st0;&st1;&st4;&st2;&st3;" />
	<path d="M14.664,0.5h114.731" style="&st0;&st1;&st2;&st3;" />
	<path d="M105.316,7.583v8.499" style="&st0;&st1;&st4;&st2;&st3;" />
	<path d="M38.744,7.583v8.499" style="&st0;&st1;&st4;&st2;&st3;" />
	<path d="M38.744,7.583h66.572" style="&st0;&st1;&st4;&st2;&st3;" />
	<path d="M135.061,25.996h8.498" style="&st0;&st1;&st4;&st2;&st3;" />
	<path d="M105.316,17.498h7.082" style="&st0;&st1;&st4;&st2;&st3;" />
	<path d="M31.662,17.498h7.082" style="&st0;&st1;&st4;&st2;&st3;" />
	<path d="M0.5,25.996h8.499" style="&st0;&st1;&st4;&st2;&st3;" />
	<path d="M4.749,79.82h5.666" style="&st0;&st1;&st4;&st2;&st3;" />
	<path d="M139.31,79.82h-5.666" style="&st0;&st1;&st4;&st2;&st3;" />
	<path d="M4.749,74.155v6.187" style="&st0;&st1;&st4;&st2;&st3;" />
	<path d="M119.48,40.16h12.748v28.329H119.48" style="&st0;&st1;&st4;&st2;&st3;" />
	<path d="M106.732,54.325h25.496" style="&st0;&st1;&st4;&st2;&st3;" />
	<path d="M67.072,42.993v25.496" style="&st0;&st1;&st4;&st2;&st3;" />
	<path d="M106.732,42.993V40.16h12.748" style="&st0;&st1;&st4;&st2;&st3;" />
	<path d="M110.981,77.554v-18.98h4.25v18.98" style="&st0;&st1;&st4;&st2;&st3;" />
	<path d="M28.829,77.554v-18.98h4.249v18.98" style="&st0;&st1;&st4;&st2;&st3;" />
	<path d="M110.981,61.407h4.25" style="&st0;&st1;&st4;&st2;&st3;" />
	<path d="M28.829,61.407h4.249" style="&st0;&st1;&st4;&st2;&st3;" />
	<path d="M117.497,79.82h16.147" style="&st0;&st1;&st4;&st2;&st3;" />
	<path d="M10.415,79.82h16.147" style="&st0;&st1;&st4;&st2;&st3;" />
	<path d="M35.344,79.82h22.379" style="&st0;&st1;&st4;&st2;&st3;" />
	<path d="M119.48,74.155v5.666" style="&st0;&st1;&st4;&st2;&st3;" />
	<path d="M129.041,74.155v5.666" style="&st0;&st1;&st4;&st2;&st3;" />
	<path d="M119.48,76.987h9.561" style="&st0;&st1;&st4;&st2;&st3;" />
	<path d="M15.019,74.155v5.666" style="&st0;&st1;&st4;&st2;&st3;" />
	<path d="M24.579,74.155v5.666" style="&st0;&st1;&st4;&st2;&st3;" />
	<path d="M15.019,76.987h9.561" style="&st0;&st1;&st4;&st2;&st3;" />
	<g ewd:pinNo="8">
		<text transform="matrix(1 0 0 1 90.1782 51.6357)"><tspan style="&st6; &st5;" x="0" y="0">8</tspan></text>
	</g>
	<g ewd:pinNo="1">
		<text transform="matrix(1 0 0 1 16.5239 49.5107)"><tspan style="&st6; &st5;" x="0" y="0">1</tspan></text>
	</g>
	<g ewd:pinNo="2">
		<text transform="matrix(1 0 0 1 29.272 49.5107)"><tspan style="&st6; &st5;" x="0" y="0">2</tspan></text>
	</g>
	<g ewd:pinNo="3">
		<text transform="matrix(1 0 0 1 40.6035 51.6357)"><tspan style="&st6; &st5;" x="0" y="0">3</tspan></text>
	</g>
	<g ewd:pinNo="4">
		<text transform="matrix(1 0 0 1 50.5181 51.6357)"><tspan style="&st6; &st5;" x="0" y="0">4</tspan></text>
	</g>
	<g ewd:pinNo="5">
		<text transform="matrix(1 0 0 1 60.4331 51.6357)"><tspan style="&st6; &st5;" x="0" y="0">5</tspan></text>
	</g>
	<g ewd:pinNo="6">
		<text transform="matrix(1 0 0 1 70.3481 51.6357)"><tspan style="&st6; &st5;" x="0" y="0">6</tspan></text>
	</g>
	<g ewd:pinNo="7">
		<text transform="matrix(1 0 0 1 80.2632 51.6357)"><tspan style="&st6; &st5;" x="0" y="0">7</tspan></text>
	</g>
	<g ewd:pinNo="9">
		<text transform="matrix(1 0 0 1 100.0933 51.6357)"><tspan style="&st6; &st5;" x="0" y="0">9</tspan></text>
	</g>
	<g ewd:pinNo="10">
		<text transform="matrix(1 0 0 1 109.4614 49.5107)"><tspan style="&st6; &st5;" x="0" y="0">10</tspan></text>
	</g>
	<g ewd:pinNo="11">
		<text transform="matrix(1 0 0 1 122.4321 49.5107)"><tspan style="&st6; &st5;" x="0" y="0">11</tspan></text>
	</g>
	<g ewd:pinNo="12">
		<text transform="matrix(1 0 0 1 14.561 63.6753)"><tspan style="&st6; &st5;" x="0" y="0">12</tspan></text>
	</g>
	<g ewd:pinNo="13">
		<text transform="matrix(1 0 0 1 38.6401 64.3833)"><tspan style="&st6; &st5;" x="0" y="0">13</tspan></text>
	</g>
	<g ewd:pinNo="14">
		<text transform="matrix(1 0 0 1 48.5552 64.3833)"><tspan style="&st6; &st5;" x="0" y="0">14</tspan></text>
	</g>
	<g ewd:pinNo="15">
		<text transform="matrix(1 0 0 1 68.3853 64.3833)"><tspan style="&st6; &st5;" x="0" y="0">15</tspan></text>
	</g>
	<g ewd:pinNo="16">
		<text transform="matrix(1 0 0 1 88.2153 64.3833)"><tspan style="&st6; &st5;" x="0" y="0">16</tspan></text>
	</g>
	<g ewd:pinNo="17">
		<text transform="matrix(1 0 0 1 98.1304 64.3833)"><tspan style="&st6; &st5;" x="0" y="0">17</tspan></text>
	</g>
	<g ewd:pinNo="18">
		<text transform="matrix(1 0 0 1 122.2095 63.6753)"><tspan style="&st6; &st5;" x="0" y="0">18</tspan></text>
	</g>
</g>
<g id="レイヤー_1" transform="translate(163.9,17.008)">
	<path d="M66.364,69.905c-0.782,0-1.416,0.634-1.416,1.417" style="&st0;&st1;&st4;&st2;&st3;" />
	<path d="M126.562,69.905c-0.782,0-1.417,0.634-1.417,1.417" style="&st0;&st1;&st2;&st3;" />
	<path d="M13.956,47.809c0-1.095-0.888-1.983-1.983-1.983" style="&st0;&st1;&st4;&st2;&st3;" />
	<path d="M90.443,71.322c0-0.782-0.634-1.417-1.417-1.417" style="&st0;&st1;&st4;&st2;&st3;" />
	<path d="M11.69,45.826c-1.095,0-1.983,0.888-1.983,1.983" style="&st0;&st1;&st4;&st2;&st3;" />
	<path d="M9.707,56.591c0,1.095,0.888,1.983,1.983,1.983" style="&st0;&st1;&st4;&st2;&st3;" />
	<path d="M11.973,58.574c1.095,0,1.983-0.888,1.983-1.983" style="&st0;&st1;&st4;&st2;&st3;" />
	<path d="M143.417,45.826c-1.095,0-1.983,0.888-1.983,1.983" style="&st0;&st1;&st4;&st2;&st3;" />
	<path d="M145.684,47.809c0-1.095-0.888-1.983-1.983-1.983" style="&st0;&st1;&st4;&st2;&st3;" />
	<path d="M141.435,56.591c0,1.095,0.888,1.983,1.983,1.983" style="&st0;&st1;&st4;&st2;&st3;" />
	<path d="M143.701,58.574c1.095,0,1.983-0.888,1.983-1.983" style="&st0;&st1;&st4;&st2;&st3;" />
	<path d="M154.891,8.999c0-2.347-1.902-4.25-4.249-4.25" style="&st0;&st1;&st2;&st3;" />
	<path d="M63.531,74.863c0.782,0,1.417-0.634,1.417-1.417" style="&st0;&st1;&st4;&st2;&st3;" />
	<path d="M150.642,69.905c2.347,0,4.249-1.902,4.249-4.249" style="&st0;&st1;&st2;&st3;" />
	<path d="M6.166,62.823c0,0.782,0.634,1.416,1.417,1.416" style="&st0;&st1;&st4;&st2;&st3;" />
	<path d="M4.749,4.75C2.402,4.75,0.5,6.652,0.5,8.999" style="&st0;&st1;&st2;&st3;" />
	<path d="M90.443,73.446c0,0.782,0.634,1.417,1.417,1.417" style="&st0;&st1;&st4;&st2;&st3;" />
	<path d="M120.896,82.653c2.347,0,4.249-1.903,4.249-4.25" style="&st0;&st1;&st2;&st3;" />
	<path d="M102.483,77.129c0-1.251-1.015-2.266-2.266-2.266" style="&st0;&st1;&st4;&st2;&st3;" />
	<path d="M30.245,71.322c0-0.782-0.634-1.417-1.417-1.417" style="&st0;&st1;&st2;&st3;" />
	<path d="M0.5,65.656c0,2.347,1.902,4.249,4.249,4.249" style="&st0;&st1;&st2;&st3;" />
	<path d="M30.245,78.404c0,2.347,1.902,4.25,4.249,4.25" style="&st0;&st1;&st2;&st3;" />
	<path d="M142.143,13.248c-0.782,0-1.417,0.634-1.417,1.417" style="&st0;&st1;&st4;&st2;&st3;" />
	<path d="M55.174,74.863c-1.252,0-2.267,1.015-2.267,2.266" style="&st0;&st1;&st4;&st2;&st3;" />
	<path d="M106.732,4.75c-0.783,0-1.417,0.634-1.417,1.417" style="&st0;&st1;&st4;&st2;&st3;" />
	<path d="M149.225,14.665c0-0.782-0.634-1.417-1.417-1.417" style="&st0;&st1;&st4;&st2;&st3;" />
	<path d="M147.809,64.239c0.782,0,1.417-0.634,1.417-1.416" style="&st0;&st1;&st4;&st2;&st3;" />
	<path d="M50.075,6.166c0-0.782-0.634-1.417-1.417-1.417" style="&st0;&st1;&st4;&st2;&st3;" />
	<path d="M14.664,14.665c0-0.782-0.634-1.417-1.416-1.417" style="&st0;&st1;&st4;&st2;&st3;" />
	<path d="M7.582,13.248c-0.782,0-1.417,0.634-1.417,1.417" style="&st0;&st1;&st4;&st2;&st3;" />
	<path d="M44.409,4.75c-0.782,0-1.417,0.634-1.417,1.417" style="&st0;&st1;&st4;&st2;&st3;" />
	<path d="M112.398,6.166c0-0.782-0.634-1.417-1.417-1.417" style="&st0;&st1;&st4;&st2;&st3;" />
	<path d="M154.891,8.999v56.657" style="&st0;&st1;&st2;&st3;" />
	<path d="M28.829,69.905h97.733" style="&st0;&st1;&st4;&st2;&st3;" />
	<path d="M0.5,8.999v56.657" style="&st0;&st1;&st2;&st3;" />
	<path d="M54.324,16.081h46.742" style="&st0;&st1;&st4;&st2;&st3;" />
	<path d="M54.324,13.248h46.742" style="&st0;&st1;&st4;&st2;&st3;" />
	<path d="M115.939,11.832v5.666h21.247v-5.666H115.939" style="&st0;&st1;&st4;&st2;&st3;" />
	<path d="M18.206,11.832v5.666h21.246v-5.666H18.206" style="&st0;&st1;&st4;&st2;&st3;" />
	<path d="M42.993,30.245v28.329h19.83" style="&st0;&st1;&st4;&st2;&st3;" />
	<path d="M42.993,45.826h69.405" style="&st0;&st1;&st4;&st2;&st3;" />
	<path d="M102.483,33.078v25.496" style="&st0;&st1;&st4;&st2;&st3;" />
	<path d="M92.568,33.078v25.496" style="&st0;&st1;&st4;&st2;&st3;" />
	<path d="M82.653,33.078v25.496" style="&st0;&st1;&st4;&st2;&st3;" />
	<path d="M62.823,33.078v25.496" style="&st0;&st1;&st4;&st2;&st3;" />
	<path d="M52.908,33.078v25.496" style="&st0;&st1;&st4;&st2;&st3;" />
	<path d="M50.075,23.163h4.249" style="&st0;&st1;&st4;&st2;&st3;" />
	<path d="M101.066,23.163h4.25" style="&st0;&st1;&st4;&st2;&st3;" />
	<path d="M112.398,23.163h28.329" style="&st0;&st1;&st4;&st2;&st3;" />
	<path d="M14.664,23.163h28.329" style="&st0;&st1;&st4;&st2;&st3;" />
	<path d="M50.075,6.166v16.997" style="&st0;&st1;&st4;&st2;&st3;" />
	<path d="M112.398,6.166v16.997" style="&st0;&st1;&st4;&st2;&st3;" />
	<path d="M44.409,4.75h4.25" style="&st0;&st1;&st4;&st2;&st3;" />
	<path d="M42.993,23.163V6.166" style="&st0;&st1;&st4;&st2;&st3;" />
	<path d="M106.732,4.75h4.249" style="&st0;&st1;&st4;&st2;&st3;" />
	<path d="M105.316,23.163V6.166" style="&st0;&st1;&st4;&st2;&st3;" />
	<path d="M6.166,14.665v48.159" style="&st0;&st1;&st4;&st2;&st3;" />
	<path d="M7.582,64.239h26.912" style="&st0;&st1;&st4;&st2;&st3;" />
	<path d="M149.225,14.665v48.159" style="&st0;&st1;&st4;&st2;&st3;" />
	<path d="M9.707,47.809v8.782" style="&st0;&st1;&st4;&st2;&st3;" />
	<path d="M11.69,58.574h0.283" style="&st0;&st1;&st4;&st2;&st3;" />
	<path d="M13.956,56.591v-8.782" style="&st0;&st1;&st4;&st2;&st3;" />
	<path d="M11.69,45.826h0.283" style="&st0;&st1;&st4;&st2;&st3;" />
	<path d="M141.435,47.809v8.782" style="&st0;&st1;&st4;&st2;&st3;" />
	<path d="M143.417,58.574h0.284" style="&st0;&st1;&st4;&st2;&st3;" />
	<path d="M145.684,56.591v-8.782" style="&st0;&st1;&st4;&st2;&st3;" />
	<path d="M143.701,45.826h-0.284" style="&st0;&st1;&st4;&st2;&st3;" />
	<path d="M54.324,23.163V10.416h46.742v12.748" style="&st0;&st1;&st4;&st2;&st3;" />
	<path d="M142.143,13.248h5.666" style="&st0;&st1;&st4;&st2;&st3;" />
	<path d="M140.727,23.163v-8.499" style="&st0;&st1;&st4;&st2;&st3;" />
	<path d="M14.664,14.665v8.499" style="&st0;&st1;&st4;&st2;&st3;" />
	<path d="M7.582,13.248h5.666" style="&st0;&st1;&st4;&st2;&st3;" />
	<path d="M9.707,27.413v9.915h4.25v-9.915H9.707" style="&st0;&st1;&st4;&st2;&st3;" />
	<path d="M141.435,27.413v9.915h4.25v-9.915H141.435" style="&st0;&st1;&st4;&st2;&st3;" />
	<path d="M66.364,69.905h22.663" style="&st0;&st1;&st4;&st2;&st3;" />
	<path d="M30.245,71.322v7.082" style="&st0;&st1;&st2;&st3;" />
	<path d="M34.494,82.653h18.414" style="&st0;&st1;&st2;&st3;" />
	<path d="M126.562,69.905h24.08" style="&st0;&st1;&st2;&st3;" />
	<path d="M125.146,71.322v7.082" style="&st0;&st1;&st2;&st3;" />
	<path d="M120.896,82.653h-18.414" style="&st0;&st1;&st2;&st3;" />
	<path d="M30.245,0.5h94.9" style="&st0;&st1;&st2;&st3;" />
	<path d="M4.749,69.905h24.08" style="&st0;&st1;&st2;&st3;" />
	<path d="M130.812,4.75l-5.666-4.25" style="&st0;&st1;&st2;&st3;" />
	<path d="M52.908,82.653h49.575" style="&st0;&st1;&st2;&st3;" />
	<path d="M100.217,74.863H91.86" style="&st0;&st1;&st4;&st2;&st3;" />
	<path d="M102.483,82.653v-5.524" style="&st0;&st1;&st4;&st2;&st3;" />
	<path d="M52.908,82.653v-5.524" style="&st0;&st1;&st4;&st2;&st3;" />
	<path d="M130.812,4.75h19.83" style="&st0;&st1;&st2;&st3;" />
	<path d="M90.443,73.446v-2.125" style="&st0;&st1;&st4;&st2;&st3;" />
	<path d="M55.174,74.863h8.357" style="&st0;&st1;&st4;&st2;&st3;" />
	<path d="M64.948,73.446v-2.125" style="&st0;&st1;&st4;&st2;&st3;" />
	<path d="M24.579,4.75l5.666-4.25" style="&st0;&st1;&st2;&st3;" />
	<path d="M52.908,76.279h49.575" style="&st0;&st1;&st4;&st2;&st3;" />
	<path d="M72.738,76.279v2.833h9.915v-2.833" style="&st0;&st1;&st4;&st2;&st3;" />
	<path d="M72.738,79.112v1.416h9.915v-1.416" style="&st0;&st1;&st4;&st2;&st3;" />
	<path d="M85.486,64.239V48.659h4.249v15.581" style="&st0;&st1;&st4;&st2;&st3;" />
	<path d="M69.905,64.239h15.581" style="&st0;&st1;&st4;&st2;&st3;" />
	<path d="M65.656,64.239V48.659h4.249v15.581" style="&st0;&st1;&st4;&st2;&st3;" />
	<path d="M125.146,30.245v28.329" style="&st0;&st1;&st4;&st2;&st3;" />
	<path d="M30.245,30.245v28.329" style="&st0;&st1;&st4;&st2;&st3;" />
	<path d="M30.245,58.574H17.497V30.245h25.496" style="&st0;&st1;&st4;&st2;&st3;" />
	<path d="M125.146,30.245h12.748v28.329h-12.748" style="&st0;&st1;&st4;&st2;&st3;" />
	<path d="M17.497,44.41h25.496" style="&st0;&st1;&st4;&st2;&st3;" />
	<path d="M92.568,58.574h19.83V33.078H42.993" style="&st0;&st1;&st4;&st2;&st3;" />
	<path d="M4.749,4.75h19.83" style="&st0;&st1;&st2;&st3;" />
	<path d="M112.398,33.078v-2.833h12.748" style="&st0;&st1;&st4;&st2;&st3;" />
	<path d="M112.398,44.41h25.496" style="&st0;&st1;&st4;&st2;&st3;" />
	<path d="M72.738,58.574V33.078" style="&st0;&st1;&st4;&st2;&st3;" />
	<path d="M72.738,58.574h9.915" style="&st0;&st1;&st4;&st2;&st3;" />
	<path d="M38.744,64.239h26.912" style="&st0;&st1;&st4;&st2;&st3;" />
	<path d="M120.896,64.239h26.912" style="&st0;&st1;&st4;&st2;&st3;" />
	<path d="M89.735,64.239h26.912" style="&st0;&st1;&st4;&st2;&st3;" />
	<path d="M116.647,64.239V48.659h4.25v15.581" style="&st0;&st1;&st4;&st2;&st3;" />
	<path d="M34.494,64.239V48.659h4.25v15.581" style="&st0;&st1;&st4;&st2;&st3;" />
	<path d="M69.905,76.279v-3.541h15.581v3.541" style="&st0;&st1;&st4;&st2;&st3;" />
	<g ewd:pinNo="11">
		<text transform="matrix(1 0 0 1 20.7002 39.4429)"><tspan style="&st6; &st5;" x="0" y="0">11</tspan></text>
	</g>
	<g ewd:pinNo="1">
		<text transform="matrix(1 0 0 1 129.6094 39.4429)"><tspan style="&st6; &st5;" x="0" y="0">1</tspan></text>
	</g>
	<g ewd:pinNo="2">
		<text transform="matrix(1 0 0 1 116.8613 39.4429)"><tspan style="&st6; &st5;" x="0" y="0">2</tspan></text>
	</g>
	<g ewd:pinNo="3">
		<text transform="matrix(1 0 0 1 105.5298 41.5674)"><tspan style="&st6; &st5;" x="0" y="0">3</tspan></text>
	</g>
	<g ewd:pinNo="4">
		<text transform="matrix(1 0 0 1 95.6152 41.5674)"><tspan style="&st6; &st5;" x="0" y="0">4</tspan></text>
	</g>
	<g ewd:pinNo="5">
		<text transform="matrix(1 0 0 1 85.7002 41.5674)"><tspan style="&st6; &st5;" x="0" y="0">5</tspan></text>
	</g>
	<g ewd:pinNo="6">
		<text transform="matrix(1 0 0 1 75.7852 41.5674)"><tspan style="&st6; &st5;" x="0" y="0">6</tspan></text>
	</g>
	<g ewd:pinNo="7">
		<text transform="matrix(1 0 0 1 65.8701 41.5674)"><tspan style="&st6; &st5;" x="0" y="0">7</tspan></text>
	</g>
	<g ewd:pinNo="8">
		<text transform="matrix(1 0 0 1 55.9551 41.5674)"><tspan style="&st6; &st5;" x="0" y="0">8</tspan></text>
	</g>
	<g ewd:pinNo="9">
		<text transform="matrix(1 0 0 1 46.04 41.5674)"><tspan style="&st6; &st5;" x="0" y="0">9</tspan></text>
	</g>
	<g ewd:pinNo="10">
		<text transform="matrix(1 0 0 1 33.2256 39.4429)"><tspan style="&st6; &st5;" x="0" y="0">10</tspan></text>
	</g>
	<g ewd:pinNo="12">
		<text transform="matrix(1 0 0 1 128.126 53.6069)"><tspan style="&st6; &st5;" x="0" y="0">12</tspan></text>
	</g>
	<g ewd:pinNo="13">
		<text transform="matrix(1 0 0 1 103.9043 54.3149)"><tspan style="&st6; &st5;" x="0" y="0">13</tspan></text>
	</g>
	<g ewd:pinNo="14">
		<text transform="matrix(1 0 0 1 93.9893 54.3149)"><tspan style="&st6; &st5;" x="0" y="0">14</tspan></text>
	</g>
	<g ewd:pinNo="15">
		<text transform="matrix(1 0 0 1 74.1592 54.3149)"><tspan style="&st6; &st5;" x="0" y="0">15</tspan></text>
	</g>
	<g ewd:pinNo="16">
		<text transform="matrix(1 0 0 1 54.3291 54.3149)"><tspan style="&st6; &st5;" x="0" y="0">16</tspan></text>
	</g>
	<g ewd:pinNo="17">
		<text transform="matrix(1 0 0 1 44.4146 54.3149)"><tspan style="&st6; &st5;" x="0" y="0">17</tspan></text>
	</g>
	<g ewd:pinNo="18">
		<text transform="matrix(1 0 0 1 20.4775 53.6069)"><tspan style="&st6; &st5;" x="0" y="0">18</tspan></text>
	</g>
</g>
<path d="M72.0295,9.069v-8.504h169.566v8.504" style="&st0;&st1;&st7;&st2;&st3;" />
</svg>