<?xml version="1.0" encoding="utf-8"?>
<!-- Generator: Adobe Illustrator 10.0, SVG Export Plug-In . SVG Version: 3.0.0 Build 77)  -->
<!DOCTYPE svg PUBLIC "-//W3C//DTD SVG 1.0//EN" "http://www.w3.org/TR/2001/REC-SVG-20010904/DTD/svg10.dtd"[
	<!ENTITY ns_flows "http://ns.adobe.com/Flows/1.0/">
	<!ENTITY ns_svg "http://www.w3.org/2000/svg">
	<!ENTITY ns_xlink "http://www.w3.org/1999/xlink">
	<!ENTITY st0 "fill:none;stroke:#000000;stroke-linecap:round;stroke-linejoin:round;">
	<!ENTITY st1 "fill:none;stroke:#000000;stroke-width:0.6;stroke-linecap:round;stroke-linejoin:round;">
	<!ENTITY st2 "font-size:6px;">
	<!ENTITY st3 "font-family:'Arial';">
	<!ATTLIST svg
		ewd:ver CDATA #IMPLIED
		xmlns:ewd CDATA #FIXED "http://shcl.co.jp/ewd"
		xmlns:a CDATA #FIXED "http://ns.adobe.com/AdobeSVGViewerExtensions/3.0/">
	<!ATTLIST g
		ewd:pinNo CDATA #IMPLIED>
	<!ATTLIST text
		ewd:textID CDATA #IMPLIED
		ewd:horAlign CDATA #IMPLIED>
	<!ATTLIST title
		ewd:textID CDATA #IMPLIED>
]>
<svg ewd:ver="2.1.2.6F" height="53.409" onload="call_execInitLoadProc_svg('connector')" style="overflow:visible;enable-background:new 0 0 56.533 53.409" viewBox="0 0 56.533 53.409" width="56.533" xml:space="preserve" xmlns="&ns_svg;" xmlns:ewd="http://shcl.co.jp/ewd" xmlns:a="http://ns.adobe.com/AdobeSVGViewerExtensions/3.0/" xmlns:xlink="&ns_xlink;">
<script type="text/javascript" xlink:href="../../../../../system/js/ewd/fig/svgfig.js" xmlns:xlink="http://www.w3.org/1999/xlink" />
<g id="レイヤー_1">
	<path d="M32.571,14.665v11.331" style="&st1;" />
	<path d="M24.072,14.665v11.331" style="&st1;" />
	<path d="M9.083,27.413h7.907" style="&st1;" />
	<path d="M18.406,33.078h5.666" style="&st1;" />
	<path d="M38.236,14.665v11.331" style="&st1;" />
	<path d="M18.406,14.665v11.331" style="&st1;" />
	<path d="M18.406,24.58h5.666" style="&st1;" />
	<path d="M32.571,24.58h5.666" style="&st1;" />
	<path d="M9.908,15.126v12.286" style="&st1;" />
	<path d="M46.735,15.126v12.286" style="&st1;" />
	<path d="M25.489,27.413h5.666" style="&st1;" />
	<path d="M39.653,27.413h7.904" style="&st1;" />
	<path d="M31.154,34.495v9.915" style="&st1;" />
	<path d="M25.489,34.495v9.915" style="&st1;" />
	<path d="M15.59,35.911h1.4" style="&st1;" />
	<path d="M39.653,34.495v11.15" style="&st1;" />
	<path d="M16.99,34.495v11.15" style="&st1;" />
	<path d="M25.489,35.911h5.666" style="&st1;" />
	<path d="M39.653,35.911h1.396" style="&st1;" />
	<path d="M32.571,33.078h5.666" style="&st1;" />
	<path d="M11.832,14.665h32.98" style="&st1;" />
	<path d="M18.174,45.826h20.292" style="&st1;" />
	<path d="M18.174,50.075h20.292" style="&st1;" />
	<path d="M11.832,10.416h32.98" style="&st1;" />
	<path d="M18.174,52.908h20.292" style="&st0;" />
	<path d="M11.832,7.583h1.736" style="&st0;" />
	<path d="M4.899,28.177l-1.368,0.368" style="&st1;" />
	<path d="M51.741,28.177l1.368,0.368" style="&st1;" />
	<path d="M50.707,32.299l1.368,0.368" style="&st1;" />
	<path d="M5.937,32.299l-1.369,0.368" style="&st1;" />
	<path d="M21.948,0.5h12.748" style="&st0;" />
	<path d="M43.075,7.583h1.736" style="&st0;" />
	<path d="M21.239,1.917h14.165" style="&st1;" />
	<path d="M18.406,4.75v5.666" style="&st1;" />
	<path d="M38.236,4.75v5.666" style="&st1;" />
	<path d="M21.948,3.333h12.748" style="&st1;" />
	<path d="M22.656,4.75v3.541" style="&st1;" />
	<path d="M33.987,4.75v3.541" style="&st1;" />
	<path d="M16.99,8.291v2.125" style="&st1;" />
	<path d="M39.653,8.291v2.125" style="&st1;" />
	<path d="M25.489,34.495c0-0.782-0.634-1.417-1.417-1.417" style="&st1;" />
	<path d="M18.406,33.078c-0.782,0-1.416,0.634-1.416,1.417" style="&st1;" />
	<path d="M16.99,27.413c0.782,0,1.416-0.634,1.416-1.417" style="&st1;" />
	<path d="M24.072,25.996c0,0.783,0.634,1.417,1.417,1.417" style="&st1;" />
	<path d="M31.154,27.413c0.782,0,1.417-0.634,1.417-1.417" style="&st1;" />
	<path d="M38.236,25.996c0,0.783,0.634,1.417,1.417,1.417" style="&st1;" />
	<path d="M39.653,34.495c0-0.782-0.634-1.417-1.417-1.417" style="&st1;" />
	<path d="M32.571,33.078c-0.782,0-1.417,0.634-1.417,1.417" style="&st1;" />
	<path d="M12.56,29.186c0.531,2.039,1.032,3.746,1.686,5.748" style="&st1;" />
	<path d="M42.398,34.934c0.654-2.002,1.155-3.709,1.686-5.748" style="&st1;" />
	<path d="M13.931,27.413c-0.782,0-1.417,0.634-1.417,1.416" style="&st1;" />
	<path d="M12.514,28.829c0,0.127,0.014,0.234,0.045,0.357" style="&st1;" />
	<path d="M44.083,29.186c0.197-0.757-0.257-1.531-1.014-1.728" style="&st1;" />
	<path d="M43.069,27.458c-0.123-0.032-0.23-0.045-0.357-0.045" style="&st1;" />
	<path d="M41.049,35.911c0.625,0,1.153-0.383,1.347-0.978" style="&st1;" />
	<path d="M14.245,34.934c0.194,0.594,0.721,0.977,1.345,0.977" style="&st1;" />
	<path d="M7.625,19.503c1.208,8.614,3.208,15.764,6.648,23.753" style="&st1;" />
	<path d="M42.37,43.257c3.439-7.99,5.441-15.14,6.648-23.754" style="&st1;" />
	<path d="M11.832,14.665c-2.347,0-4.25,1.902-4.25,4.25" style="&st1;" />
	<path d="M7.582,18.914c0,0.208,0.012,0.383,0.041,0.589" style="&st1;" />
	<path d="M49.019,19.503c0.325-2.323-1.294-4.47-3.618-4.796" style="&st1;" />
	<path d="M45.401,14.707c-0.206-0.029-0.381-0.041-0.589-0.041" style="&st1;" />
	<path d="M38.466,45.826c1.74,0,3.216-0.972,3.903-2.57" style="&st1;" />
	<path d="M14.271,43.257c0.688,1.598,2.164,2.57,3.904,2.57" style="&st1;" />
	<path d="M11.832,10.416c-4.694,0-8.499,3.805-8.499,8.499" style="&st1;" />
	<path d="M3.333,18.914c0,0.416,0.025,0.767,0.083,1.178" style="&st1;" />
	<path d="M3.415,20.092c0.401,2.863,0.843,5.266,1.485,8.084" style="&st1;" />
	<path d="M10.37,44.937c1.375,3.195,4.326,5.137,7.805,5.137" style="&st1;" />
	<path d="M38.466,50.075c3.479,0,6.431-1.943,7.807-5.139" style="&st1;" />
	<path d="M46.273,44.937c1.863-4.329,3.184-8.094,4.432-12.638" style="&st1;" />
	<path d="M53.228,20.092c0.651-4.648-2.59-8.944-7.238-9.595" style="&st1;" />
	<path d="M45.99,10.498c-0.412-0.058-0.763-0.082-1.179-0.082" style="&st1;" />
	<path d="M11.832,7.583C5.573,7.583,0.5,12.656,0.5,18.914" style="&st0;" />
	<path d="M0.5,18.914c0,0.554,0.033,1.023,0.11,1.572" style="&st0;" />
	<path d="M0.61,20.486c1.3,9.273,3.455,16.971,7.158,25.571" style="&st0;" />
	<path d="M7.766,46.058c1.834,4.26,5.77,6.851,10.408,6.851" style="&st0;" />
	<path d="M38.466,52.908c4.638,0,8.573-2.59,10.408-6.85" style="&st0;" />
	<path d="M48.874,46.058c3.703-8.601,5.857-16.298,7.157-25.572" style="&st0;" />
	<path d="M56.033,20.486c0.868-6.197-3.452-11.925-9.649-12.793" style="&st0;" />
	<path d="M46.384,7.693c-0.549-0.077-1.018-0.11-1.572-0.11" style="&st0;" />
	<path d="M3.531,28.545c0.333,1.457,0.641,2.681,1.036,4.122" style="&st1;" />
	<path d="M52.075,32.667c0.396-1.441,0.704-2.665,1.037-4.122" style="&st1;" />
	<path d="M5.937,32.299c1.248,4.544,2.568,8.309,4.432,12.638" style="&st1;" />
	<path d="M51.741,28.177c0.643-2.819,1.084-5.222,1.486-8.085" style="&st1;" />
	<path d="M21.239,1.917c-1.564,0-2.833,1.269-2.833,2.833" style="&st1;" />
	<path d="M38.236,4.75c0-1.564-1.268-2.833-2.833-2.833" style="&st1;" />
	<path d="M21.948,3.333c-0.783,0-1.417,0.634-1.417,1.417" style="&st1;" />
	<path d="M36.112,4.75c0-0.782-0.634-1.417-1.417-1.417" style="&st1;" />
	<path d="M24.072,45.826c0.782,0,1.417-0.634,1.417-1.417" style="&st1;" />
	<path d="M31.154,44.41c0,0.782,0.634,1.417,1.417,1.417" style="&st1;" />
	<path d="M39.653,8.291c0-0.782-0.634-1.417-1.417-1.417" style="&st1;" />
	<path d="M18.406,6.874c-0.782,0-1.416,0.634-1.416,1.417" style="&st1;" />
	<path d="M21.948,0.5c-4.193,0-7.681,2.948-8.38,7.083" style="&st0;" />
	<path d="M43.075,7.583C42.376,3.448,38.889,0.5,34.695,0.5" style="&st0;" />
	<path d="M34.695,10.416V8.291H21.948v2.125" style="&st1;" />
	<path d="M36.112,10.416V4.75H20.531v5.666" style="&st1;" />
	<g ewd:pinNo="1">
		<text transform="matrix(1 0 0 1 12.3667 23.0713)"><tspan style="&st3; &st2;" x="0" y="0">1</tspan></text>
	</g>
	<g ewd:pinNo="2">
		<text transform="matrix(1 0 0 1 26.5313 23.0713)"><tspan style="&st3; &st2;" x="0" y="0">2</tspan></text>
	</g>
	<g ewd:pinNo="3">
		<text transform="matrix(1 0 0 1 40.6953 23.0713)"><tspan style="&st3; &st2;" x="0" y="0">3</tspan></text>
	</g>
	<g ewd:pinNo="4">
		<text transform="matrix(1 0 0 1 19.4492 41.4849)"><tspan style="&st3; &st2;" x="0" y="0">4</tspan></text>
	</g>
	<g ewd:pinNo="5">
		<text transform="matrix(1 0 0 1 33.6133 41.4849)"><tspan style="&st3; &st2;" x="0" y="0">5</tspan></text>
	</g>
</g>
</svg>