<?xml version="1.0" encoding="utf-8"?>
<!-- Generator: Adobe Illustrator 10.0, SVG Export Plug-In . SVG Version: 3.0.0 Build 77)  -->
<!DOCTYPE svg PUBLIC "-//W3C//DTD SVG 1.0//EN" "http://www.w3.org/TR/2001/REC-SVG-20010904/DTD/svg10.dtd"[
	<!ENTITY ns_flows "http://ns.adobe.com/Flows/1.0/">
	<!ENTITY ns_svg "http://www.w3.org/2000/svg">
	<!ENTITY ns_xlink "http://www.w3.org/1999/xlink">
	<!ENTITY st0 "fill:none;stroke:#000000;stroke-linecap:round;stroke-linejoin:round;">
	<!ENTITY st1 "fill:none;stroke:#000000;stroke-width:0.6;stroke-linecap:round;stroke-linejoin:round;">
	<!ENTITY st2 "font-size:6px;">
	<!ENTITY st3 "font-family:'Arial';">
	<!ATTLIST svg
		ewd:ver CDATA #IMPLIED
		xmlns:ewd CDATA #FIXED "http://shcl.co.jp/ewd"
		xmlns:a CDATA #FIXED "http://ns.adobe.com/AdobeSVGViewerExtensions/3.0/">
	<!ATTLIST g
		ewd:pinNo CDATA #IMPLIED>
	<!ATTLIST text
		ewd:textID CDATA #IMPLIED
		ewd:horAlign CDATA #IMPLIED>
	<!ATTLIST title
		ewd:textID CDATA #IMPLIED>
]>
<svg ewd:ver="2.1.2.6F" height="41.369" onload="call_execInitLoadProc_svg('connector')" style="overflow:visible;enable-background:new 0 0 35.703 41.369" viewBox="0 0 35.703 41.369" width="35.703" xml:space="preserve" xmlns="&ns_svg;" xmlns:ewd="http://shcl.co.jp/ewd" xmlns:a="http://ns.adobe.com/AdobeSVGViewerExtensions/3.0/" xmlns:xlink="&ns_xlink;">
<script type="text/javascript" xlink:href="../../../../../system/js/ewd/fig/svgfig.js" xmlns:xlink="http://www.w3.org/1999/xlink" />
<g id="レイヤー_1">
	<path d="M0.5,26.704v-5.666" style="&st0;" />
	<path d="M27.412,1.917v2.125" style="&st0;" />
	<path d="M10.415,1.917v2.125" style="&st0;" />
	<path d="M8.999,5.458v7.791" style="&st0;" />
	<path d="M28.829,5.458v7.791" style="&st0;" />
	<path d="M5.458,4.75h2.833" style="&st0;" />
	<path d="M29.537,4.75h2.833" style="&st0;" />
	<path d="M25.996,0.5h-2.833" style="&st0;" />
	<path d="M7.582,16.081h4.25" style="&st1;" />
	<path d="M30.245,16.081h-4.25" style="&st1;" />
	<path d="M7.582,38.036h22.663" style="&st1;" />
	<path d="M33.078,31.662V16.081" style="&st1;" />
	<path d="M4.749,31.662V16.081" style="&st1;" />
	<path d="M23.163,4.75h-8.499" style="&st1;" />
	<path d="M18.914,23.163v11.332" style="&st1;" />
	<path d="M14.664,0.5h-2.833" style="&st0;" />
	<path d="M7.582,16.081c-1.564,0-2.833,1.269-2.833,2.833" style="&st1;" />
	<path d="M4.749,35.203c0,1.565,1.269,2.833,2.833,2.833" style="&st0;" />
	<path d="M1.208,20.33c-0.391,0-0.708,0.317-0.708,0.708" style="&st0;" />
	<path d="M0.5,26.704c0,0.391,0.317,0.708,0.708,0.708" style="&st0;" />
	<path d="M11.832,0.5c-0.782,0-1.417,0.634-1.417,1.417" style="&st0;" />
	<path d="M27.412,1.917c0-0.782-0.634-1.417-1.417-1.417" style="&st0;" />
	<path d="M10.415,4.041c0,0.392,0.317,0.708,0.708,0.708" style="&st0;" />
	<path d="M26.704,4.75c0.391,0,0.708-0.317,0.708-0.708" style="&st0;" />
	<path d="M5.458,4.75c-0.391,0-0.708,0.317-0.708,0.708" style="&st0;" />
	<path d="M8.999,5.458c0-0.391-0.317-0.708-0.708-0.708" style="&st0;" />
	<path d="M29.537,4.75c-0.391,0-0.708,0.317-0.708,0.708" style="&st0;" />
	<path d="M33.078,5.458c0-0.391-0.317-0.708-0.708-0.708" style="&st0;" />
	<path d="M8.999,13.248c0,1.564,1.268,2.833,2.833,2.833" style="&st0;" />
	<path d="M25.996,16.081c1.564,0,2.833-1.269,2.833-2.833" style="&st0;" />
	<path d="M33.078,18.914c0-1.564-1.268-2.833-2.833-2.833" style="&st1;" />
	<path d="M30.245,38.036c1.564,0,2.833-1.268,2.833-2.833" style="&st0;" />
	<path d="M35.203,18.064c0-1.095-0.888-1.983-1.983-1.983" style="&st0;" />
	<path d="M33.219,31.662c1.095,0,1.983-0.888,1.983-1.983" style="&st0;" />
	<path d="M16.081,1.917c0-0.782-0.634-1.417-1.417-1.417" style="&st0;" />
	<path d="M23.163,0.5c-0.782,0-1.416,0.634-1.416,1.417" style="&st0;" />
	<path d="M11.123,4.75h3.541v11.332h-2.833" style="&st0;" />
	<path d="M26.704,4.75h-3.542v11.332h2.833" style="&st0;" />
	<path d="M1.208,27.413h1.417v4.249h2.125v3.541" style="&st0;" />
	<path d="M1.208,20.33h1.417v-4.249h2.125V5.458" style="&st0;" />
	<path d="M28.829,23.163H8.999v11.332h19.83V23.163" style="&st1;" />
	<path d="M2.625,20.33h2.125" style="&st1;" />
	<path d="M2.625,27.413h2.125" style="&st1;" />
	<path d="M33.078,5.458v10.624h0.142" style="&st0;" />
	<path d="M33.078,35.203v-3.541h0.142" style="&st0;" />
	<path d="M35.203,18.064v11.615" style="&st0;" />
	<path d="M7.582,38.036l5.666,2.833h11.331l5.666-2.833" style="&st0;" />
	<path d="M16.081,4.75V1.917" style="&st1;" />
	<path d="M21.747,4.75V1.917" style="&st1;" />
	<path d="M16.081,1.917V0.5h5.666v1.417" style="&st0;" />
	<g ewd:pinNo="1">
		<text transform="matrix(1 0 0 1 12.4194 31.0029)"><tspan style="&st3; &st2;" x="0" y="0">1</tspan></text>
	</g>
	<g ewd:pinNo="2">
		<text transform="matrix(1 0 0 1 22.3345 31.0029)"><tspan style="&st3; &st2;" x="0" y="0">2</tspan></text>
	</g>
</g>
</svg>