<?xml version="1.0" encoding="utf-8"?>
<!-- Generator: Adobe Illustrator 10.0, SVG Export Plug-In . SVG Version: 3.0.0 Build 77)  -->
<!DOCTYPE svg PUBLIC "-//W3C//DTD SVG 1.0//EN" "http://www.w3.org/TR/2001/REC-SVG-20010904/DTD/svg10.dtd"[
	<!ENTITY ns_flows "http://ns.adobe.com/Flows/1.0/">
	<!ENTITY ns_svg "http://www.w3.org/2000/svg">
	<!ENTITY ns_xlink "http://www.w3.org/1999/xlink">
	<!ENTITY st0 "fill:none;stroke:#000000;stroke-linecap:round;stroke-linejoin:round;">
	<!ENTITY st1 "fill:none;stroke:#000000;stroke-width:0.6;stroke-linecap:round;stroke-linejoin:round;">
	<!ENTITY st2 "font-size:6px;">
	<!ENTITY st3 "font-family:'Arial';">
	<!ATTLIST svg
		ewd:ver CDATA #IMPLIED
		xmlns:ewd CDATA #FIXED "http://shcl.co.jp/ewd"
		xmlns:a CDATA #FIXED "http://ns.adobe.com/AdobeSVGViewerExtensions/3.0/">
	<!ATTLIST g
		ewd:pinNo CDATA #IMPLIED>
	<!ATTLIST text
		ewd:textID CDATA #IMPLIED
		ewd:horAlign CDATA #IMPLIED>
	<!ATTLIST title
		ewd:textID CDATA #IMPLIED>
]>
<svg ewd:ver="2.1.2.6F" height="118.564" onload="call_execInitLoadProc_svg('connector')" style="overflow:visible;enable-background:new 0 0 229.045 118.564" viewBox="0 0 229.045 118.564" width="229.045" xml:space="preserve" xmlns="&ns_svg;" xmlns:ewd="http://shcl.co.jp/ewd" xmlns:a="http://ns.adobe.com/AdobeSVGViewerExtensions/3.0/" xmlns:xlink="&ns_xlink;">
<script type="text/javascript" xlink:href="../../../../../system/js/ewd/fig/svgfig.js" xmlns:xlink="http://www.w3.org/1999/xlink" />
<g id="レイヤー_1">
	<path d="M152.058,44.41c2.347,0,4.249-1.903,4.249-4.25" style="&st1;" />
	<path d="M88.319,44.41c2.347,0,4.249-1.903,4.249-4.25" style="&st1;" />
	<path d="M72.738,40.16c0,2.347,1.903,4.25,4.25,4.25" style="&st1;" />
	<path d="M136.478,40.16c0,2.347,1.902,4.25,4.249,4.25" style="&st1;" />
	<path d="M217.214,99.65c0-1.564-1.269-2.833-2.833-2.833" style="&st1;" />
	<path d="M217.214,21.747c0-1.564-1.269-2.833-2.833-2.833" style="&st1;" />
	<path d="M214.381,108.149c1.564,0,2.833-1.269,2.833-2.833" style="&st1;" />
	<path d="M194.551,18.914c-1.564,0-2.833,1.268-2.833,2.833" style="&st1;" />
	<path d="M191.718,27.413c0,1.564,1.268,2.833,2.833,2.833" style="&st1;" />
	<path d="M214.381,30.245c1.564,0,2.833-1.268,2.833-2.833" style="&st1;" />
	<path d="M37.327,21.747c0-1.564-1.269-2.833-2.833-2.833" style="&st1;" />
	<path d="M11.832,27.413c0,1.564,1.268,2.833,2.833,2.833" style="&st1;" />
	<path d="M194.551,96.817c-1.564,0-2.833,1.269-2.833,2.833" style="&st1;" />
	<path d="M191.718,105.316c0,1.564,1.268,2.833,2.833,2.833" style="&st1;" />
	<path d="M14.665,18.914c-1.565,0-2.833,1.268-2.833,2.833" style="&st1;" />
	<path d="M34.494,30.245c1.564,0,2.833-1.268,2.833-2.833" style="&st1;" />
	<path d="M34.494,108.149c1.564,0,2.833-1.269,2.833-2.833" style="&st1;" />
	<path d="M11.832,105.316c0,1.564,1.268,2.833,2.833,2.833" style="&st1;" />
	<path d="M37.327,99.65c0-1.564-1.269-2.833-2.833-2.833" style="&st1;" />
	<path d="M14.665,96.817c-1.565,0-2.833,1.269-2.833,2.833" style="&st1;" />
	<path d="M121.291,42.528c-0.23-1.38-1.394-2.367-2.793-2.367" style="&st1;" />
	<path d="M110.548,40.16c-1.4,0-2.565,0.987-2.795,2.368" style="&st1;" />
	<path d="M107.007,47.01c-0.128,0.771,0.393,1.5,1.165,1.629" style="&st1;" />
	<path d="M108.171,48.639c0.081,0.013,0.15,0.019,0.232,0.019" style="&st1;" />
	<path d="M120.642,48.659c0.782,0,1.417-0.634,1.417-1.417" style="&st1;" />
	<path d="M122.058,47.242c0-0.082-0.006-0.151-0.019-0.232" style="&st1;" />
	<path d="M132.936,44.41c0-1.564-1.268-2.833-2.833-2.833" style="&st1;" />
	<path d="M130.104,41.577c-1.564,0-2.833,1.269-2.833,2.833" style="&st1;" />
	<path d="M127.271,44.41c0,1.564,1.269,2.833,2.833,2.833" style="&st1;" />
	<path d="M130.104,47.242c1.564,0,2.833-1.268,2.833-2.833" style="&st1;" />
	<path d="M101.775,44.41c0-1.564-1.269-2.833-2.833-2.833" style="&st1;" />
	<path d="M98.942,41.577c-1.564,0-2.833,1.269-2.833,2.833" style="&st1;" />
	<path d="M96.109,44.41c0,1.564,1.269,2.833,2.833,2.833" style="&st1;" />
	<path d="M98.942,47.242c1.564,0,2.833-1.268,2.833-2.833" style="&st1;" />
	<path d="M37.327,101.067h154.391" style="&st1;" />
	<path d="M217.214,101.067h7.082" style="&st1;" />
	<path d="M4.749,101.067h7.083" style="&st1;" />
	<path d="M34.494,30.245h-4.249" style="&st1;" />
	<path d="M18.914,30.245h-4.249" style="&st1;" />
	<path d="M217.214,105.316V99.65" style="&st1;" />
	<path d="M4.749,31.662V13.248" style="&st0;" />
	<path d="M4.749,109.565V86.902" style="&st0;" />
	<path d="M44.409,38.744v16.998" style="&st1;" />
	<path d="M18.914,55.741V38.744h50.992v16.998" style="&st1;" />
	<path d="M110.981,86.902v-6.374h7.082v6.374" style="&st1;" />
	<path d="M69.905,72.738h39.66" style="&st1;" />
	<path d="M159.14,89.735h1.417" style="&st1;" />
	<path d="M118.063,89.735h2.833" style="&st1;" />
	<path d="M109.565,72.738V59.99h9.915v12.748" style="&st1;" />
	<path d="M8.999,31.662l-4.25,4.25" style="&st1;" />
	<path d="M69.905,89.735h48.158" style="&st1;" />
	<path d="M224.296,78.404v-5.666" style="&st1;" />
	<path d="M171.888,72.738h52.408" style="&st1;" />
	<path d="M224.296,35.911v4.249" style="&st1;" />
	<path d="M210.132,72.738V59.99" style="&st1;" />
	<path d="M197.384,76.987v12.748" style="&st1;" />
	<path d="M184.636,76.987v12.748" style="&st1;" />
	<path d="M171.888,72.738V59.99" style="&st1;" />
	<path d="M159.14,76.987v12.748" style="&st1;" />
	<path d="M146.393,59.99v12.748" style="&st1;" />
	<path d="M133.645,76.987v12.748" style="&st1;" />
	<path d="M120.896,76.987v12.748" style="&st1;" />
	<path d="M108.149,76.987v12.748" style="&st1;" />
	<path d="M95.401,76.987v12.748" style="&st1;" />
	<path d="M82.653,72.738V59.99" style="&st1;" />
	<path d="M18.914,59.99v12.748" style="&st1;" />
	<path d="M4.749,89.735h65.156" style="&st1;" />
	<path d="M69.905,76.987v12.748" style="&st1;" />
	<path d="M57.157,76.987v12.748" style="&st1;" />
	<path d="M44.409,76.987v12.748" style="&st1;" />
	<path d="M31.662,76.987v12.748" style="&st1;" />
	<path d="M69.905,59.99h38.244" style="&st1;" />
	<path d="M120.896,59.99h38.244" style="&st1;" />
	<path d="M171.888,59.99h38.244" style="&st1;" />
	<path d="M31.662,59.99v12.748" style="&st1;" />
	<path d="M44.409,59.99v12.748" style="&st1;" />
	<path d="M57.157,59.99v12.748" style="&st1;" />
	<path d="M220.047,31.662l4.249,4.25" style="&st1;" />
	<path d="M217.214,25.996h4.249" style="&st1;" />
	<path d="M156.307,31.662l5.666-5.666h29.745" style="&st1;" />
	<path d="M30.245,31.662v-5.666H18.914v5.666" style="&st1;" />
	<path d="M171.888,55.741H119.48" style="&st1;" />
	<path d="M11.832,21.747v5.666" style="&st1;" />
	<path d="M8.999,31.662l-1.417-5.666" style="&st1;" />
	<path d="M72.738,31.662l-5.666-5.666H37.327" style="&st1;" />
	<path d="M210.132,96.817h4.249" style="&st1;" />
	<path d="M224.296,31.662V13.248" style="&st0;" />
	<path d="M224.296,13.248l-8.499-8.499h-22.663" style="&st0;" />
	<path d="M198.8,95.401v5.666h11.332v-5.666" style="&st1;" />
	<path d="M197.384,59.99v12.748" style="&st1;" />
	<path d="M11.832,25.996h-4.25" style="&st1;" />
	<path d="M120.896,89.735h49.575" style="&st1;" />
	<path d="M18.914,76.987h38.244" style="&st1;" />
	<path d="M171.888,76.987h38.244" style="&st1;" />
	<path d="M69.905,76.987h38.244" style="&st1;" />
	<path d="M120.896,76.987h38.244" style="&st1;" />
	<path d="M156.307,40.16v-8.499" style="&st1;" />
	<path d="M152.058,44.41h-11.332" style="&st1;" />
	<path d="M16.081,41.577v11.332H7.582V41.577H16.081" style="&st1;" />
	<path d="M72.738,31.662v8.499" style="&st1;" />
	<path d="M220.047,31.662h-63.74" style="&st1;" />
	<path d="M92.568,40.16v-8.499" style="&st1;" />
	<path d="M224.296,35.911v-4.25" style="&st0;" />
	<path d="M224.296,72.738V40.16" style="&st0;" />
	<path d="M18.914,59.99h38.244" style="&st1;" />
	<path d="M224.296,95.401v-8.499" style="&st0;" />
	<path d="M4.749,95.401h219.547" style="&st1;" />
	<path d="M4.749,55.741h104.816" style="&st1;" />
	<path d="M171.888,55.741h52.408" style="&st1;" />
	<path d="M69.905,59.99v12.748" style="&st1;" />
	<path d="M184.636,59.99v12.748" style="&st1;" />
	<path d="M82.653,89.735V76.987" style="&st1;" />
	<path d="M95.401,59.99v12.748" style="&st1;" />
	<path d="M108.149,59.99v12.748" style="&st1;" />
	<path d="M120.896,59.99v12.748" style="&st1;" />
	<path d="M133.645,59.99v12.748" style="&st1;" />
	<path d="M146.393,76.987v12.748" style="&st1;" />
	<path d="M159.14,59.99v12.748" style="&st1;" />
	<path d="M171.888,89.735V76.987" style="&st1;" />
	<path d="M92.568,31.662h43.91" style="&st1;" />
	<path d="M76.987,44.41h11.332" style="&st1;" />
	<path d="M72.738,31.662V7.583h83.569v24.079" style="&st1;" />
	<path d="M92.568,31.662h-9.915V13.248h63.74v18.414h-9.915" style="&st1;" />
	<path d="M8.999,31.662h63.739" style="&st1;" />
	<path d="M136.478,31.662v8.499" style="&st1;" />
	<path d="M198.8,31.662v-5.666h11.332v5.666" style="&st1;" />
	<path d="M4.749,35.911v-4.25" style="&st0;" />
	<path d="M194.551,108.149h19.83" style="&st1;" />
	<path d="M191.718,27.413v-5.666" style="&st1;" />
	<path d="M217.214,21.747v5.666" style="&st1;" />
	<path d="M4.749,13.248l8.499-8.499h22.663" style="&st0;" />
	<path d="M191.718,99.65v5.666" style="&st1;" />
	<path d="M194.551,96.817h4.25" style="&st1;" />
	<path d="M194.551,18.914h19.83" style="&st1;" />
	<path d="M34.494,18.914h-19.83" style="&st1;" />
	<path d="M4.749,109.565l8.499,8.499" style="&st0;" />
	<path d="M13.248,118.064h202.549" style="&st0;" />
	<path d="M215.797,118.064l8.499-8.499" style="&st0;" />
	<path d="M224.296,109.565V95.401" style="&st0;" />
	<path d="M18.914,76.987v12.748" style="&st1;" />
	<path d="M4.749,72.738h63.74" style="&st1;" />
	<path d="M210.132,89.735V76.987" style="&st1;" />
	<path d="M106.024,24.58v-2.833h16.997v2.833" style="&st1;" />
	<path d="M123.021,28.829h13.457v2.833" style="&st1;" />
	<path d="M92.568,31.662v-2.833h13.456" style="&st1;" />
	<path d="M58.574,72.738V59.99h9.915v12.748" style="&st1;" />
	<path d="M58.574,89.735V76.987h9.915v12.748" style="&st1;" />
	<path d="M160.557,72.738V59.99h9.915v12.748" style="&st1;" />
	<path d="M160.557,89.735V76.987h9.915v12.748" style="&st1;" />
	<path d="M119.48,72.738h50.992" style="&st1;" />
	<path d="M170.472,72.738h1.417" style="&st1;" />
	<path d="M170.472,89.735h53.824" style="&st1;" />
	<path d="M68.489,89.735h1.417" style="&st1;" />
	<path d="M68.489,72.738h1.417" style="&st1;" />
	<path d="M110.981,86.902h7.082" style="&st1;" />
	<path d="M159.14,55.741V38.744h50.992v16.998" style="&st1;" />
	<path d="M184.636,38.744v16.998" style="&st1;" />
	<path d="M123.021,24.58v4.249" style="&st1;" />
	<path d="M106.024,28.829V24.58" style="&st1;" />
	<path d="M212.964,41.577v11.332h8.499V41.577H212.964" style="&st1;" />
	<path d="M220.047,31.662l1.416-5.666" style="&st1;" />
	<path d="M194.551,30.245h4.25" style="&st1;" />
	<path d="M210.132,30.245h4.249" style="&st1;" />
	<path d="M30.245,95.401v5.666H18.914v-5.666" style="&st1;" />
	<path d="M37.327,99.65v5.666" style="&st1;" />
	<path d="M11.832,105.316V99.65" style="&st1;" />
	<path d="M34.494,108.149h-19.83" style="&st1;" />
	<path d="M34.494,96.817h-4.249" style="&st1;" />
	<path d="M18.914,96.817h-4.249" style="&st1;" />
	<path d="M35.911,4.75l8.499-4.25h140.227l8.499,4.25" style="&st0;" />
	<path d="M37.327,27.413v-5.666" style="&st1;" />
	<path d="M224.296,35.911h2.833v4.249h-2.833" style="&st0;" />
	<path d="M4.749,35.911H1.917v4.249h2.833" style="&st0;" />
	<path d="M224.296,72.738h4.25v5.666h-4.25" style="&st0;" />
	<path d="M224.296,81.237h2.833v5.666h-2.833" style="&st0;" />
	<path d="M224.296,78.404v2.833" style="&st0;" />
	<path d="M224.296,81.237v5.666" style="&st1;" />
	<path d="M4.749,72.738V40.16" style="&st0;" />
	<path d="M4.749,72.738H0.5v5.666h4.249" style="&st0;" />
	<path d="M4.749,35.911v4.249" style="&st1;" />
	<path d="M4.749,78.404v-5.666" style="&st1;" />
	<path d="M4.749,81.237v5.666" style="&st1;" />
	<path d="M4.749,78.404v2.833" style="&st0;" />
	<path d="M4.749,81.237H1.917v5.666h2.833" style="&st0;" />
	<path d="M110.548,40.16h7.949" style="&st1;" />
	<path d="M109.565,55.741v-7.083h-1.161" style="&st1;" />
	<path d="M107.755,42.528l-0.748,4.482" style="&st1;" />
	<path d="M119.48,55.741v-7.083h1.162" style="&st1;" />
	<path d="M121.291,42.528l0.748,4.482" style="&st1;" />
	<g ewd:pinNo="5">
		<text transform="matrix(1 0 0 1 23.5903 68.3765)"><tspan style="&st3; &st2;" x="0" y="0">5</tspan></text>
	</g>
	<g ewd:pinNo="6">
		<text transform="matrix(1 0 0 1 36.3379 68.3765)"><tspan style="&st3; &st2;" x="0" y="0">6</tspan></text>
	</g>
	<g ewd:pinNo="7">
		<text transform="matrix(1 0 0 1 49.0859 68.3765)"><tspan style="&st3; &st2;" x="0" y="0">7</tspan></text>
	</g>
	<g ewd:pinNo="17">
		<text transform="matrix(1 0 0 1 21.7124 85.3735)"><tspan style="&st3; &st2;" x="0" y="0">17</tspan></text>
	</g>
	<g ewd:pinNo="18">
		<text transform="matrix(1 0 0 1 34.4604 85.3735)"><tspan style="&st3; &st2;" x="0" y="0">18</tspan></text>
	</g>
	<g ewd:pinNo="19">
		<text transform="matrix(1 0 0 1 47.208 85.3735)"><tspan style="&st3; &st2;" x="0" y="0">19</tspan></text>
	</g>
	<g ewd:pinNo="8">
		<text transform="matrix(1 0 0 1 74.5815 68.3765)"><tspan style="&st3; &st2;" x="0" y="0">8</tspan></text>
	</g>
	<g ewd:pinNo="9">
		<text transform="matrix(1 0 0 1 87.3296 68.3765)"><tspan style="&st3; &st2;" x="0" y="0">9</tspan></text>
	</g>
	<g ewd:pinNo="10">
		<text transform="matrix(1 0 0 1 98.1997 68.3765)"><tspan style="&st3; &st2;" x="0" y="0">10</tspan></text>
	</g>
	<g ewd:pinNo="20">
		<text transform="matrix(1 0 0 1 73.0464 85.3735)"><tspan style="&st3; &st2;" x="0" y="0">20</tspan></text>
	</g>
	<g ewd:pinNo="21">
		<text transform="matrix(1 0 0 1 85.7939 85.3735)"><tspan style="&st3; &st2;" x="0" y="0">21</tspan></text>
	</g>
	<g ewd:pinNo="22">
		<text transform="matrix(1 0 0 1 98.542 85.3735)"><tspan style="&st3; &st2;" x="0" y="0">22</tspan></text>
	</g>
	<g ewd:pinNo="11">
		<text transform="matrix(1 0 0 1 123.918 68.3765)"><tspan style="&st3; &st2;" x="0" y="0">11</tspan></text>
	</g>
	<g ewd:pinNo="12">
		<text transform="matrix(1 0 0 1 136.4434 68.3765)"><tspan style="&st3; &st2;" x="0" y="0">12</tspan></text>
	</g>
	<g ewd:pinNo="13">
		<text transform="matrix(1 0 0 1 149.1914 68.3765)"><tspan style="&st3; &st2;" x="0" y="0">13</tspan></text>
	</g>
	<g ewd:pinNo="23">
		<text transform="matrix(1 0 0 1 124.0376 85.3735)"><tspan style="&st3; &st2;" x="0" y="0">23</tspan></text>
	</g>
	<g ewd:pinNo="24">
		<text transform="matrix(1 0 0 1 136.7856 85.3735)"><tspan style="&st3; &st2;" x="0" y="0">24</tspan></text>
	</g>
	<g ewd:pinNo="25">
		<text transform="matrix(1 0 0 1 149.5337 85.3735)"><tspan style="&st3; &st2;" x="0" y="0">25</tspan></text>
	</g>
	<g ewd:pinNo="14">
		<text transform="matrix(1 0 0 1 174.687 68.3765)"><tspan style="&st3; &st2;" x="0" y="0">14</tspan></text>
	</g>
	<g ewd:pinNo="15">
		<text transform="matrix(1 0 0 1 187.4346 68.3765)"><tspan style="&st3; &st2;" x="0" y="0">15</tspan></text>
	</g>
	<g ewd:pinNo="16">
		<text transform="matrix(1 0 0 1 200.1826 68.3765)"><tspan style="&st3; &st2;" x="0" y="0">16</tspan></text>
	</g>
	<g ewd:pinNo="26">
		<text transform="matrix(1 0 0 1 175.0293 85.3735)"><tspan style="&st3; &st2;" x="0" y="0">26</tspan></text>
	</g>
	<g ewd:pinNo="27">
		<text transform="matrix(1 0 0 1 187.7769 85.3735)"><tspan style="&st3; &st2;" x="0" y="0">27</tspan></text>
	</g>
	<g ewd:pinNo="28">
		<text transform="matrix(1 0 0 1 200.5249 85.3735)"><tspan style="&st3; &st2;" x="0" y="0">28</tspan></text>
	</g>
	<g ewd:pinNo="1">
		<text transform="matrix(1 0 0 1 29.9639 49.2544)"><tspan style="&st3; &st2;" x="0" y="0">1</tspan></text>
	</g>
	<g ewd:pinNo="2">
		<text transform="matrix(1 0 0 1 55.4595 49.2544)"><tspan style="&st3; &st2;" x="0" y="0">2</tspan></text>
	</g>
	<g ewd:pinNo="3">
		<text transform="matrix(1 0 0 1 170.1904 49.2544)"><tspan style="&st3; &st2;" x="0" y="0">3</tspan></text>
	</g>
	<g ewd:pinNo="4">
		<text transform="matrix(1 0 0 1 195.6865 49.2544)"><tspan style="&st3; &st2;" x="0" y="0">4</tspan></text>
	</g>
</g>
</svg>