<?xml version="1.0" encoding="utf-8"?>
<!-- Generator: Adobe Illustrator 10.0, SVG Export Plug-In . SVG Version: 3.0.0 Build 77)  -->
<!DOCTYPE svg PUBLIC "-//W3C//DTD SVG 1.0//EN" "http://www.w3.org/TR/2001/REC-SVG-20010904/DTD/svg10.dtd"[
	<!ENTITY ns_flows "http://ns.adobe.com/Flows/1.0/">
	<!ENTITY ns_svg "http://www.w3.org/2000/svg">
	<!ENTITY ns_xlink "http://www.w3.org/1999/xlink">
	<!ENTITY st0 "fill:none;stroke:#000000;stroke-linecap:round;stroke-linejoin:round;">
	<!ENTITY st1 "fill:none;stroke:#000000;stroke-width:0.6;stroke-linecap:round;stroke-linejoin:round;">
	<!ENTITY st2 "font-size:6px;">
	<!ENTITY st3 "font-family:'Arial';">
	<!ATTLIST svg
		ewd:ver CDATA #IMPLIED
		xmlns:ewd CDATA #FIXED "http://shcl.co.jp/ewd"
		xmlns:a CDATA #FIXED "http://ns.adobe.com/AdobeSVGViewerExtensions/3.0/">
	<!ATTLIST g
		ewd:pinNo CDATA #IMPLIED>
	<!ATTLIST text
		ewd:textID CDATA #IMPLIED
		ewd:horAlign CDATA #IMPLIED>
	<!ATTLIST title
		ewd:textID CDATA #IMPLIED>
]>
<svg ewd:ver="2.1.2.6F" height="43.776" onload="call_execInitLoadProc_svg('connector')" style="overflow:visible;enable-background:new 0 0 51.142 43.776" viewBox="0 0 51.142 43.776" width="51.142" xml:space="preserve" xmlns="&ns_svg;" xmlns:ewd="http://shcl.co.jp/ewd" xmlns:a="http://ns.adobe.com/AdobeSVGViewerExtensions/3.0/" xmlns:xlink="&ns_xlink;">
<script type="text/javascript" xlink:href="../../../../../system/js/ewd/fig/svgfig.js" xmlns:xlink="http://www.w3.org/1999/xlink" />
<g id="レイヤー_1">
	<path d="M5.599,43.276h39.943" style="&st0;" />
	<path d="M0.5,18.347v19.83" style="&st0;" />
	<path d="M50.642,13.248v24.929" style="&st0;" />
	<path d="M11.832,0.5H39.31" style="&st0;" />
	<path d="M46.959,12.682v23.796" style="&st1;" />
	<path d="M4.183,20.047v16.431" style="&st1;" />
	<path d="M5.882,18.347h11.19" style="&st1;" />
	<path d="M42.426,11.832h3.683" style="&st1;" />
	<path d="M37.752,8.149h3.825" style="&st1;" />
	<path d="M41.577,12.682v4.816" style="&st1;" />
	<path d="M13.814,12.398V2.2" style="&st1;" />
	<path d="M37.327,2.2v5.1" style="&st1;" />
	<path d="M15.231,18.347v-3.258" style="&st1;" />
	<path d="M35.911,9.99v8.357" style="&st1;" />
	<path d="M20.236,23.305V34.07" style="&st1;" />
	<path d="M30.905,23.305v9.632" style="&st1;" />
	<path d="M34.069,18.347h6.657" style="&st1;" />
	<path d="M17.072,18.064h16.997" style="&st1;" />
	<path d="M17.072,8.999h16.997" style="&st1;" />
	<path d="M9.565,13.248h3.825" style="&st1;" />
	<path d="M0.5,38.177c0,2.816,2.283,5.099,5.099,5.099" style="&st0;" />
	<path d="M45.542,43.276c2.816,0,5.099-2.283,5.099-5.099" style="&st0;" />
	<path d="M5.599,13.248c-2.816,0-5.099,2.283-5.099,5.099" style="&st0;" />
	<path d="M50.642,13.248c0-2.816-2.283-5.099-5.099-5.099" style="&st0;" />
	<path d="M11.832,0.5c-1.252,0-2.267,1.015-2.267,2.267" style="&st0;" />
	<path d="M41.577,2.767c0-1.252-1.015-2.267-2.267-2.267" style="&st0;" />
	<path d="M5.882,18.347c-0.938,0-1.7,0.761-1.7,1.7" style="&st1;" />
	<path d="M4.183,36.478c0,0.938,0.761,1.7,1.7,1.7" style="&st1;" />
	<path d="M45.259,38.177c0.938,0,1.7-0.761,1.7-1.7" style="&st1;" />
	<path d="M40.727,18.347c0.469,0,0.85-0.38,0.85-0.85" style="&st1;" />
	<path d="M15.514,0.5c-0.939,0-1.7,0.761-1.7,1.7" style="&st1;" />
	<path d="M37.327,2.2c0-0.938-0.761-1.7-1.7-1.7" style="&st1;" />
	<path d="M12.964,13.248c0.469,0,0.85-0.38,0.85-0.85" style="&st1;" />
	<path d="M37.327,7.299c0,0.469,0.38,0.85,0.85,0.85" style="&st1;" />
	<path d="M42.426,11.832c-0.469,0-0.85,0.38-0.85,0.85" style="&st1;" />
	<path d="M46.959,12.682c0-0.47-0.381-0.85-0.85-0.85" style="&st1;" />
	<path d="M15.231,15.089c0-1.017-0.825-1.841-1.841-1.841" style="&st1;" />
	<path d="M37.752,8.149c-1.017,0-1.841,0.825-1.841,1.841" style="&st1;" />
	<path d="M33.738,32.937h-5.666v3.116h5.666V32.937" style="&st1;" />
	<path d="M28.072,34.07H9.565V23.305h32.012V34.07h-7.839" style="&st1;" />
	<path d="M34.069,5.316H17.072V21.18h16.997V5.316" style="&st1;" />
	<path d="M34.069,15.231h-4.25v-1.7h-8.499v1.7h-4.249" style="&st1;" />
	<path d="M45.259,38.177h-8.357l-1.133,1.133H15.373l-1.133-1.133H5.882" style="&st1;" />
	<path d="M9.565,2.767v10.481H5.599" style="&st0;" />
	<path d="M45.542,8.149h-3.966V2.767" style="&st0;" />
	<path d="M22.03,8.999V5.316" style="&st1;" />
	<path d="M29.112,5.316v3.683" style="&st1;" />
	<path d="M23.446,8.999v2.833h4.249V8.999" style="&st1;" />
	<path d="M23.446,10.416h4.249" style="&st1;" />
	<g ewd:pinNo="1">
		<text transform="matrix(1 0 0 1 34.6416 30.7251)"><tspan style="&st3; &st2;" x="0" y="0">1</tspan></text>
	</g>
	<g ewd:pinNo="2">
		<text transform="matrix(1 0 0 1 23.9697 30.7251)"><tspan style="&st3; &st2;" x="0" y="0">2</tspan></text>
	</g>
	<g ewd:pinNo="3">
		<text transform="matrix(1 0 0 1 13.2983 30.7251)"><tspan style="&st3; &st2;" x="0" y="0">3</tspan></text>
	</g>
</g>
</svg>