<?xml version="1.0" encoding="utf-8"?>
<!-- Generator: Adobe Illustrator 10.0, SVG Export Plug-In . SVG Version: 3.0.0 Build 77)  -->
<!DOCTYPE svg PUBLIC "-//W3C//DTD SVG 1.0//EN" "http://www.w3.org/TR/2001/REC-SVG-20010904/DTD/svg10.dtd"[
	<!ENTITY ns_flows "http://ns.adobe.com/Flows/1.0/">
	<!ENTITY ns_svg "http://www.w3.org/2000/svg">
	<!ENTITY ns_xlink "http://www.w3.org/1999/xlink">
	<!ENTITY st0 "fill:none;">
	<!ENTITY st1 "stroke:#000000;">
	<!ENTITY st2 "stroke-linecap:round;">
	<!ENTITY st3 "stroke-linejoin:round;">
	<!ENTITY st4 "stroke-width:0.6;">
	<!ENTITY st5 "font-size:6px;">
	<!ENTITY st6 "font-family:'Arial';">
	<!ENTITY st7 "stroke-width:1.4;">
	<!ATTLIST svg
		ewd:ver CDATA #IMPLIED
		xmlns:ewd CDATA #FIXED "http://shcl.co.jp/ewd"
		xmlns:a CDATA #FIXED "http://ns.adobe.com/AdobeSVGViewerExtensions/3.0/">
	<!ATTLIST g
		ewd:pinNo CDATA #IMPLIED>
	<!ATTLIST text
		ewd:textID CDATA #IMPLIED
		ewd:horAlign CDATA #IMPLIED>
	<!ATTLIST title
		ewd:textID CDATA #IMPLIED>
]>
<svg ewd:ver="2.1.2.6F" height="111.49" onload="call_execInitLoadProc_svg('connector')" style="overflow:visible;enable-background:new 0 0 112.898 68.989" viewBox="0 0 268.3 111.49" width="268.3" xml:space="preserve" xmlns="&ns_svg;" xmlns:ewd="http://shcl.co.jp/ewd" xmlns:a="http://ns.adobe.com/AdobeSVGViewerExtensions/3.0/" xmlns:xlink="&ns_xlink;">
<script type="text/javascript" xlink:href="../../../../../system/js/ewd/fig/svgfig.js" xmlns:xlink="http://www.w3.org/1999/xlink" />
<g id="レイヤー_1" transform="translate(0,17.008)">
	<path d="M99.203,68.489c1.757,0,3.252-0.453,4.714-1.427" style="&st0;&st1;&st2;&st3;" />
	<path d="M8.981,67.061c1.462,0.975,2.957,1.427,4.714,1.427" style="&st0;&st1;&st2;&st3;" />
	<path d="M86.902,3.333c0-1.564-1.269-2.833-2.833-2.833" style="&st0;&st1;&st4;&st2;&st3;" />
	<path d="M0.5,59.891c0,0.979,0.446,1.813,1.261,2.357" style="&st0;&st1;&st2;&st3;" />
	<path d="M28.829,0.5c-1.564,0-2.833,1.269-2.833,2.833" style="&st0;&st1;&st4;&st2;&st3;" />
	<path d="M111.137,62.248c0.814-0.543,1.261-1.378,1.261-2.357" style="&st0;&st1;&st2;&st3;" />
	<path d="M34.494,5.458c-1.564,0-2.833,1.269-2.833,2.833" style="&st0;&st1;&st4;&st2;&st3;" />
	<path d="M81.236,8.291c0-1.564-1.268-2.833-2.833-2.833" style="&st0;&st1;&st4;&st2;&st3;" />
	<path d="M13.695,68.489h85.507" style="&st0;&st1;&st2;&st3;" />
	<path d="M0.5,58.574h111.898" style="&st0;&st1;&st4;&st2;&st3;" />
	<path d="M103.917,67.061l7.221-4.813" style="&st0;&st1;&st2;&st3;" />
	<path d="M8.981,67.061l-7.221-4.813" style="&st0;&st1;&st2;&st3;" />
	<path d="M0.5,59.891V2.39" style="&st0;&st1;&st2;&st3;" />
	<path d="M112.398,59.891V2.39" style="&st0;&st1;&st2;&st3;" />
	<path d="M4.276,0.5h104.346" style="&st0;&st1;&st2;&st3;" />
	<path d="M25.996,10.416V3.333" style="&st0;&st1;&st4;&st2;&st3;" />
	<path d="M86.902,10.416V3.333" style="&st0;&st1;&st4;&st2;&st3;" />
	<path d="M50.429,16.081V8.999h12.04v7.082" style="&st0;&st1;&st4;&st2;&st3;" />
	<path d="M31.662,30.245v25.496h49.575V30.245H31.662" style="&st0;&st1;&st4;&st2;&st3;" />
	<path d="M61.406,55.741V30.245" style="&st0;&st1;&st4;&st2;&st3;" />
	<path d="M41.577,55.741V30.245" style="&st0;&st1;&st4;&st2;&st3;" />
	<path d="M51.491,55.741V30.245" style="&st0;&st1;&st4;&st2;&st3;" />
	<path d="M71.321,55.741V30.245" style="&st0;&st1;&st4;&st2;&st3;" />
	<path d="M31.662,42.993h49.575" style="&st0;&st1;&st4;&st2;&st3;" />
	<path d="M28.829,45.826H3.333V14.665h25.496V45.826" style="&st0;&st1;&st4;&st2;&st3;" />
	<path d="M3.333,30.245h25.496" style="&st0;&st1;&st4;&st2;&st3;" />
	<path d="M16.081,45.826V14.665" style="&st0;&st1;&st4;&st2;&st3;" />
	<path d="M84.069,45.826h25.496V14.665H84.069V45.826" style="&st0;&st1;&st4;&st2;&st3;" />
	<path d="M109.565,30.245H84.069" style="&st0;&st1;&st4;&st2;&st3;" />
	<path d="M96.817,45.826V14.665" style="&st0;&st1;&st4;&st2;&st3;" />
	<path d="M37.327,16.081v-5.666h4.25l2.833,2.833v2.833" style="&st0;&st1;&st4;&st2;&st3;" />
	<path d="M75.571,16.081v-5.666h-4.25l-2.833,2.833v2.833" style="&st0;&st1;&st4;&st2;&st3;" />
	<path d="M37.327,25.996v-9.915h38.244v9.915" style="&st0;&st1;&st4;&st2;&st3;" />
	<path d="M81.236,10.416h28.329" style="&st0;&st1;&st4;&st2;&st3;" />
	<path d="M3.333,10.416h28.329" style="&st0;&st1;&st4;&st2;&st3;" />
	<path d="M37.327,25.996h-5.666v-15.58" style="&st0;&st1;&st4;&st2;&st3;" />
	<path d="M81.236,10.416v15.58" style="&st0;&st1;&st4;&st2;&st3;" />
	<path d="M75.571,25.996h5.666" style="&st0;&st1;&st4;&st2;&st3;" />
	<path d="M0.5,2.39L2.39,0.5h1.886" style="&st0;&st1;&st2;&st3;" />
	<path d="M4.276,0.5l1.89,1.89v8.026" style="&st0;&st1;&st4;&st2;&st3;" />
	<path d="M112.398,2.39l-1.89-1.89h-1.887" style="&st0;&st1;&st2;&st3;" />
	<path d="M108.622,0.5l-1.889,1.89v8.026" style="&st0;&st1;&st4;&st2;&st3;" />
	<path d="M2.625,62.823h107.649" style="&st0;&st1;&st4;&st2;&st3;" />
	<path d="M31.662,10.416V8.291" style="&st0;&st1;&st4;&st2;&st3;" />
	<path d="M81.236,10.416V8.291" style="&st0;&st1;&st4;&st2;&st3;" />
	<path d="M34.494,5.458h43.91" style="&st0;&st1;&st4;&st2;&st3;" />
	<path d="M37.327,7.229v3.187" style="&st0;&st1;&st4;&st2;&st3;" />
	<path d="M75.571,7.229v3.187" style="&st0;&st1;&st4;&st2;&st3;" />
	<path d="M37.327,7.229h38.244" style="&st0;&st1;&st4;&st2;&st3;" />
	<path d="M3.333,10.416L0.5,13.248" style="&st0;&st1;&st4;&st2;&st3;" />
	<path d="M109.565,10.416l2.833,2.833" style="&st0;&st1;&st4;&st2;&st3;" />
	<g ewd:pinNo="4">
		<text transform="matrix(1 0 0 1 44.8789 38.8877)"><tspan style="&st6; &st5;" x="0" y="0">4</tspan></text>
	</g>
	<g ewd:pinNo="9">
		<text transform="matrix(1 0 0 1 101.5361 24.7236)"><tspan style="&st6; &st5;" x="0" y="0">9</tspan></text>
	</g>
	<g ewd:pinNo="5">
		<text transform="matrix(1 0 0 1 54.7939 38.8877)"><tspan style="&st6; &st5;" x="0" y="0">5</tspan></text>
	</g>
	<g ewd:pinNo="3">
		<text transform="matrix(1 0 0 1 34.9639 38.8877)"><tspan style="&st6; &st5;" x="0" y="0">3</tspan></text>
	</g>
	<g ewd:pinNo="6">
		<text transform="matrix(1 0 0 1 64.709 38.8877)"><tspan style="&st6; &st5;" x="0" y="0">6</tspan></text>
	</g>
	<g ewd:pinNo="7">
		<text transform="matrix(1 0 0 1 74.624 38.8877)"><tspan style="&st6; &st5;" x="0" y="0">7</tspan></text>
	</g>
	<g ewd:pinNo="13">
		<text transform="matrix(1 0 0 1 42.8887 51.6357)"><tspan style="&st6; &st5;" x="0" y="0">13</tspan></text>
	</g>
	<g ewd:pinNo="14">
		<text transform="matrix(1 0 0 1 52.8037 51.6357)"><tspan style="&st6; &st5;" x="0" y="0">14</tspan></text>
	</g>
	<g ewd:pinNo="12">
		<text transform="matrix(1 0 0 1 32.9736 51.6357)"><tspan style="&st6; &st5;" x="0" y="0">12</tspan></text>
	</g>
	<g ewd:pinNo="15">
		<text transform="matrix(1 0 0 1 62.7188 51.6357)"><tspan style="&st6; &st5;" x="0" y="0">15</tspan></text>
	</g>
	<g ewd:pinNo="16">
		<text transform="matrix(1 0 0 1 72.6338 51.6357)"><tspan style="&st6; &st5;" x="0" y="0">16</tspan></text>
	</g>
	<g ewd:pinNo="8">
		<text transform="matrix(1 0 0 1 88.7881 24.7236)"><tspan style="&st6; &st5;" x="0" y="0">8</tspan></text>
	</g>
	<g ewd:pinNo="2">
		<text transform="matrix(1 0 0 1 20.7998 24.7236)"><tspan style="&st6; &st5;" x="0" y="0">2</tspan></text>
	</g>
	<g ewd:pinNo="18">
		<text transform="matrix(1 0 0 1 99.5459 40.3042)"><tspan style="&st6; &st5;" x="0" y="0">18</tspan></text>
	</g>
	<g ewd:pinNo="1">
		<text transform="matrix(1 0 0 1 8.0518 24.7236)"><tspan style="&st6; &st5;" x="0" y="0">1</tspan></text>
	</g>
	<g ewd:pinNo="17">
		<text transform="matrix(1 0 0 1 86.7979 40.3042)"><tspan style="&st6; &st5;" x="0" y="0">17</tspan></text>
	</g>
	<g ewd:pinNo="11">
		<text transform="matrix(1 0 0 1 19.0317 40.3042)"><tspan style="&st6; &st5;" x="0" y="0">11</tspan></text>
	</g>
	<g ewd:pinNo="10">
		<text transform="matrix(1 0 0 1 6.061 40.3042)"><tspan style="&st6; &st5;" x="0" y="0">10</tspan></text>
	</g>
</g>
<g id="レイヤー_1" transform="translate(132.739,17.008)">
	<path d="M0.5,67.072c0,4.694,3.805,8.499,8.499,8.499" style="&st0;&st1;&st2;&st3;" />
	<path d="M126.562,75.571c4.694,0,8.499-3.805,8.499-8.499" style="&st0;&st1;&st2;&st3;" />
	<path d="M25.996,89.735c0,2.347,1.902,4.249,4.25,4.249" style="&st0;&st1;&st2;&st3;" />
	<path d="M105.316,93.984c2.347,0,4.249-1.902,4.249-4.249" style="&st0;&st1;&st2;&st3;" />
	<path d="M6.166,0.5C3.037,0.5,0.5,3.037,0.5,6.166" style="&st0;&st1;&st2;&st3;" />
	<path d="M21.747,3.333c0-1.564-1.269-2.833-2.833-2.833" style="&st0;&st1;&st2;&st3;" />
	<path d="M21.747,5.6c0,1.095,0.888,1.983,1.983,1.983" style="&st0;&st1;&st2;&st3;" />
	<path d="M111.832,7.583c1.095,0,1.983-0.888,1.983-1.983" style="&st0;&st1;&st2;&st3;" />
	<path d="M116.647,0.5c-1.564,0-2.833,1.269-2.833,2.833" style="&st0;&st1;&st2;&st3;" />
	<path d="M135.061,6.166c0-3.129-2.537-5.666-5.666-5.666" style="&st0;&st1;&st2;&st3;" />
	<path d="M42.993,40.16v25.496h49.575V40.16H42.993" style="&st0;&st1;&st4;&st2;&st3;" />
	<path d="M52.908,65.656V40.16" style="&st0;&st1;&st4;&st2;&st3;" />
	<path d="M62.823,65.656V40.16" style="&st0;&st1;&st4;&st2;&st3;" />
	<path d="M72.738,65.656V40.16" style="&st0;&st1;&st4;&st2;&st3;" />
	<path d="M82.653,65.656V40.16" style="&st0;&st1;&st4;&st2;&st3;" />
	<path d="M60.698,86.194v-5.666h14.164v5.666" style="&st0;&st1;&st4;&st2;&st3;" />
	<path d="M63.531,86.194v4.249h8.499v-4.249" style="&st0;&st1;&st4;&st2;&st3;" />
	<path d="M54.324,21.747l2.833,2.833h21.247l2.833-2.833" style="&st0;&st1;&st4;&st2;&st3;" />
	<path d="M59.99,24.58v2.833h15.581V24.58" style="&st0;&st1;&st4;&st2;&st3;" />
	<path d="M48.659,33.078V21.747h38.244v11.332" style="&st0;&st1;&st4;&st2;&st3;" />
	<path d="M7.582,68.489h120.396" style="&st0;&st1;&st4;&st2;&st3;" />
	<path d="M94.338,83.361H78.758l-1.983-7.791" style="&st0;&st1;&st4;&st2;&st3;" />
	<path d="M41.222,83.361h15.581l1.983-7.791" style="&st0;&st1;&st4;&st2;&st3;" />
	<path d="M7.582,31.662h3.399V44.41H7.582" style="&st0;&st1;&st4;&st2;&st3;" />
	<path d="M127.979,31.662h-3.399V44.41h3.399" style="&st0;&st1;&st4;&st2;&st3;" />
	<path d="M94.338,83.361v10.623" style="&st0;&st1;&st4;&st2;&st3;" />
	<path d="M41.222,83.361v10.623" style="&st0;&st1;&st4;&st2;&st3;" />
	<path d="M0.5,6.166v60.906" style="&st0;&st1;&st2;&st3;" />
	<path d="M135.061,6.166v60.906" style="&st0;&st1;&st2;&st3;" />
	<path d="M30.245,93.984h75.071" style="&st0;&st1;&st2;&st3;" />
	<path d="M25.996,75.571v14.165" style="&st0;&st1;&st2;&st3;" />
	<path d="M41.222,86.194h53.116" style="&st0;&st1;&st4;&st2;&st3;" />
	<path d="M109.565,75.571v14.165" style="&st0;&st1;&st2;&st3;" />
	<path d="M42.993,52.908h49.575" style="&st0;&st1;&st4;&st2;&st3;" />
	<path d="M7.582,52.908h3.399v9.915H7.582" style="&st0;&st1;&st4;&st2;&st3;" />
	<path d="M127.979,52.908h-3.399v9.915h3.399" style="&st0;&st1;&st4;&st2;&st3;" />
	<path d="M40.16,55.741H14.664V24.58H40.16V55.741" style="&st0;&st1;&st4;&st2;&st3;" />
	<path d="M14.664,40.16H40.16" style="&st0;&st1;&st4;&st2;&st3;" />
	<path d="M27.412,55.741V24.58" style="&st0;&st1;&st4;&st2;&st3;" />
	<path d="M48.659,33.078h-4.25V16.081H14.664" style="&st0;&st1;&st4;&st2;&st3;" />
	<path d="M7.582,7.583v60.906" style="&st0;&st1;&st4;&st2;&st3;" />
	<path d="M7.582,7.583h7.082v8.499" style="&st0;&st1;&st4;&st2;&st3;" />
	<path d="M95.401,55.741h25.496V24.58H95.401V55.741" style="&st0;&st1;&st4;&st2;&st3;" />
	<path d="M120.896,40.16H95.401" style="&st0;&st1;&st4;&st2;&st3;" />
	<path d="M108.148,55.741V24.58" style="&st0;&st1;&st4;&st2;&st3;" />
	<path d="M86.902,33.078h4.249V16.081h29.745" style="&st0;&st1;&st4;&st2;&st3;" />
	<path d="M127.979,7.583v60.906" style="&st0;&st1;&st4;&st2;&st3;" />
	<path d="M120.896,16.081V7.583h7.082" style="&st0;&st1;&st4;&st2;&st3;" />
	<path d="M8.999,75.571h16.997" style="&st0;&st1;&st2;&st3;" />
	<path d="M28.829,75.571h77.904" style="&st0;&st1;&st4;&st2;&st3;" />
	<path d="M109.565,75.571h16.997" style="&st0;&st1;&st2;&st3;" />
	<path d="M6.166,0.5h12.748" style="&st0;&st1;&st2;&st3;" />
	<path d="M21.747,5.6V3.333" style="&st0;&st1;&st2;&st3;" />
	<path d="M23.729,7.583h26.346l1.416,7.082h32.578l1.417-7.082h26.346" style="&st0;&st1;&st2;&st3;" />
	<path d="M129.395,0.5h-12.748" style="&st0;&st1;&st2;&st3;" />
	<path d="M113.814,5.6V3.333" style="&st0;&st1;&st2;&st3;" />
	<path d="M27.412,74.155l1.417,1.416" style="&st0;&st1;&st4;&st2;&st3;" />
	<path d="M106.732,75.571l1.416-1.416" style="&st0;&st1;&st4;&st2;&st3;" />
	<g ewd:pinNo="7">
		<text transform="matrix(1 0 0 1 46.2246 48.7451)"><tspan style="&st6; &st5;" x="0" y="0">7</tspan></text>
	</g>
	<g ewd:pinNo="6">
		<text transform="matrix(1 0 0 1 56.1396 48.7451)"><tspan style="&st6; &st5;" x="0" y="0">6</tspan></text>
	</g>
	<g ewd:pinNo="5">
		<text transform="matrix(1 0 0 1 66.0547 48.7451)"><tspan style="&st6; &st5;" x="0" y="0">5</tspan></text>
	</g>
	<g ewd:pinNo="4">
		<text transform="matrix(1 0 0 1 75.9697 48.7451)"><tspan style="&st6; &st5;" x="0" y="0">4</tspan></text>
	</g>
	<g ewd:pinNo="3">
		<text transform="matrix(1 0 0 1 85.8848 48.7451)"><tspan style="&st6; &st5;" x="0" y="0">3</tspan></text>
	</g>
	<g ewd:pinNo="15">
		<text transform="matrix(1 0 0 1 54.3643 61.4932)"><tspan style="&st6; &st5;" x="0" y="0">15</tspan></text>
	</g>
	<g ewd:pinNo="14">
		<text transform="matrix(1 0 0 1 64.2793 61.4932)"><tspan style="&st6; &st5;" x="0" y="0">14</tspan></text>
	</g>
	<g ewd:pinNo="16">
		<text transform="matrix(1 0 0 1 44.4497 61.4932)"><tspan style="&st6; &st5;" x="0" y="0">16</tspan></text>
	</g>
	<g ewd:pinNo="13">
		<text transform="matrix(1 0 0 1 74.1943 61.4932)"><tspan style="&st6; &st5;" x="0" y="0">13</tspan></text>
	</g>
	<g ewd:pinNo="12">
		<text transform="matrix(1 0 0 1 84.1094 61.4932)"><tspan style="&st6; &st5;" x="0" y="0">12</tspan></text>
	</g>
	<g ewd:pinNo="1">
		<text transform="matrix(1 0 0 1 112.7969 34.5806)"><tspan style="&st6; &st5;" x="0" y="0">1</tspan></text>
	</g>
	<g ewd:pinNo="2">
		<text transform="matrix(1 0 0 1 100.0488 34.5806)"><tspan style="&st6; &st5;" x="0" y="0">2</tspan></text>
	</g>
	<g ewd:pinNo="8">
		<text transform="matrix(1 0 0 1 32.0601 34.5806)"><tspan style="&st6; &st5;" x="0" y="0">8</tspan></text>
	</g>
	<g ewd:pinNo="9">
		<text transform="matrix(1 0 0 1 19.3125 34.5806)"><tspan style="&st6; &st5;" x="0" y="0">9</tspan></text>
	</g>
	<g ewd:pinNo="10">
		<text transform="matrix(1 0 0 1 111.0215 50.1616)"><tspan style="&st6; &st5;" x="0" y="0">10</tspan></text>
	</g>
	<g ewd:pinNo="11">
		<text transform="matrix(1 0 0 1 98.4966 50.1616)"><tspan style="&st6; &st5;" x="0" y="0">11</tspan></text>
	</g>
	<g ewd:pinNo="17">
		<text transform="matrix(1 0 0 1 30.2852 50.1616)"><tspan style="&st6; &st5;" x="0" y="0">17</tspan></text>
	</g>
	<g ewd:pinNo="18">
		<text transform="matrix(1 0 0 1 17.5371 50.1616)"><tspan style="&st6; &st5;" x="0" y="0">18</tspan></text>
	</g>
</g>
<path d="M56.449,9.069v-8.504h144.0705v8.504" style="&st0;&st1;&st7;&st2;&st3;" />
</svg>