<?xml version="1.0" encoding="utf-8"?>
<!-- Generator: Adobe Illustrator 10.0, SVG Export Plug-In . SVG Version: 3.0.0 Build 77)  -->
<!DOCTYPE svg PUBLIC "-//W3C//DTD SVG 1.0//EN" "http://www.w3.org/TR/2001/REC-SVG-20010904/DTD/svg10.dtd"[
	<!ENTITY ns_flows "http://ns.adobe.com/Flows/1.0/">
	<!ENTITY ns_svg "http://www.w3.org/2000/svg">
	<!ENTITY ns_xlink "http://www.w3.org/1999/xlink">
	<!ENTITY st0 "fill:none;stroke:#000000;stroke-linecap:round;stroke-linejoin:round;">
	<!ENTITY st1 "fill:none;stroke:#000000;stroke-width:0.6;stroke-linecap:round;stroke-linejoin:round;">
	<!ENTITY st2 "font-size:6px;">
	<!ENTITY st3 "font-family:'Arial';">
	<!ATTLIST svg
		ewd:ver CDATA #IMPLIED
		xmlns:ewd CDATA #FIXED "http://shcl.co.jp/ewd"
		xmlns:a CDATA #FIXED "http://ns.adobe.com/AdobeSVGViewerExtensions/3.0/">
	<!ATTLIST g
		ewd:pinNo CDATA #IMPLIED>
	<!ATTLIST text
		ewd:textID CDATA #IMPLIED
		ewd:horAlign CDATA #IMPLIED>
	<!ATTLIST title
		ewd:textID CDATA #IMPLIED>
]>
<svg ewd:ver="2.1.2.6F" height="67.29" onload="call_execInitLoadProc_svg('connector')" style="overflow:visible;enable-background:new 0 0 77.204 67.29" viewBox="0 0 77.204 67.29" width="77.204" xml:space="preserve" xmlns="&ns_svg;" xmlns:ewd="http://shcl.co.jp/ewd" xmlns:a="http://ns.adobe.com/AdobeSVGViewerExtensions/3.0/" xmlns:xlink="&ns_xlink;">
<script type="text/javascript" xlink:href="../../../../../system/js/ewd/fig/svgfig.js" xmlns:xlink="http://www.w3.org/1999/xlink" />
<g id="レイヤー_1">
	<path d="M60.557,14.665c0-0.782-0.634-1.417-1.417-1.417" style="&st1;" />
	<path d="M57.724,9c0-2.347-1.902-4.25-4.249-4.25" style="&st1;" />
	<path d="M10.415,13.249c-2.347,0-4.25,1.902-4.25,4.25" style="&st1;" />
	<path d="M6.166,54.042c0,2.347,1.903,4.249,4.25,4.249" style="&st1;" />
	<path d="M48.517,58.291c12.438,0,22.521-10.083,22.521-22.521" style="&st1;" />
	<path d="M71.038,35.77c0-7.972-3.745-14.771-10.482-19.033" style="&st1;" />
	<path d="M48.517,52.625c9.309,0,16.855-7.547,16.855-16.855" style="&st1;" />
	<path d="M65.373,35.77c0-9.309-7.547-16.855-16.855-16.855" style="&st1;" />
	<path d="M48.517,50.642c8.213,0,14.873-6.659,14.873-14.872" style="&st1;" />
	<path d="M63.39,35.77c0-8.214-6.659-14.873-14.873-14.873" style="&st1;" />
	<path d="M27.271,18.915c-9.309,0-16.855,7.546-16.855,16.855" style="&st1;" />
	<path d="M10.415,35.77c0,9.309,7.546,16.855,16.855,16.855" style="&st1;" />
	<path d="M27.271,20.897c-8.214,0-14.873,6.659-14.873,14.873" style="&st1;" />
	<path d="M12.398,35.77c0,8.213,6.659,14.872,14.873,14.872" style="&st1;" />
	<path d="M27.554,7.583c-0.782,0-1.417,0.634-1.417,1.417" style="&st1;" />
	<path d="M22.313,4.75c-2.347,0-4.25,1.903-4.25,4.25" style="&st1;" />
	<path d="M49.65,9c0-0.783-0.634-1.417-1.417-1.417" style="&st1;" />
	<path d="M25.288,4.75c-1.095,0-1.983,0.888-1.983,1.983" style="&st1;" />
	<path d="M52.483,6.733c0-1.095-0.888-1.983-1.983-1.983" style="&st1;" />
	<path d="M2.458,11.554C1.167,12.672,0.5,14.13,0.5,15.838" style="&st0;" />
	<path d="M17.341,0.5c-1.421,0-2.634,0.452-3.708,1.382" style="&st0;" />
	<path d="M0.5,54.042c0,5.476,4.439,9.915,9.915,9.915" style="&st0;" />
	<path d="M76.704,31.549c0-0.995-0.215-1.84-0.692-2.713" style="&st0;" />
	<path d="M75.171,43.07c1.026-1.095,1.533-2.375,1.533-3.875" style="&st0;" />
	<path d="M26.562,63.957c0,1.565,1.269,2.833,2.833,2.833" style="&st0;" />
	<path d="M45.684,66.79c1.564,0,2.833-1.268,2.833-2.833" style="&st0;" />
	<path d="M61.361,1.977C60.85,1.04,59.941,0.5,58.874,0.5" style="&st0;" />
	<path d="M18.063,9v4.249" style="&st1;" />
	<path d="M57.724,9v4.249" style="&st1;" />
	<path d="M22.313,4.75h31.162" style="&st1;" />
	<path d="M23.729,32.229v14.165h28.329V32.229H23.729" style="&st1;" />
	<path d="M37.894,32.229v14.165" style="&st1;" />
	<path d="M23.729,32.229l14.164,14.165" style="&st1;" />
	<path d="M49.65,14.665h2.833" style="&st1;" />
	<path d="M23.729,46.393l14.164-14.165" style="&st1;" />
	<path d="M10.415,13.249h7.648" style="&st1;" />
	<path d="M54.891,29.396h2.833V47.45" style="&st1;" />
	<path d="M57.724,13.249h1.417" style="&st1;" />
	<path d="M60.557,14.665v2.071" style="&st1;" />
	<path d="M35.061,46.393v4.249" style="&st1;" />
	<path d="M40.727,46.393v4.249" style="&st1;" />
	<path d="M10.415,58.291h38.102" style="&st1;" />
	<path d="M20.896,29.396h-2.833V47.45" style="&st1;" />
	<path d="M6.166,17.498v36.544" style="&st1;" />
	<path d="M63.072,27.271h3.717v16.998h-3.717" style="&st1;" />
	<path d="M12.715,27.271H8.999v16.998h3.717" style="&st1;" />
	<path d="M25.712,20.979v5.583h24.363v-5.583" style="&st1;" />
	<path d="M27.271,50.642h21.247" style="&st1;" />
	<path d="M27.271,52.625h21.247" style="&st1;" />
	<path d="M27.271,18.915h21.247" style="&st1;" />
	<path d="M27.271,20.897h21.247" style="&st1;" />
	<path d="M20.896,22.333v7.063" style="&st1;" />
	<path d="M54.891,22.333v7.063" style="&st1;" />
	<path d="M57.724,13.249v4.25h-2.833" style="&st1;" />
	<path d="M26.137,9v9.952" style="&st1;" />
	<path d="M54.891,17.498v2.668" style="&st1;" />
	<path d="M52.483,17.498h2.408" style="&st1;" />
	<path d="M26.137,16.81H49.65" style="&st1;" />
	<path d="M20.896,17.498v2.668" style="&st1;" />
	<path d="M23.304,9h2.833" style="&st1;" />
	<path d="M49.65,9h2.833" style="&st1;" />
	<path d="M20.896,17.498h2.408" style="&st1;" />
	<path d="M49.65,9v9.952" style="&st1;" />
	<path d="M23.304,6.733v10.765" style="&st1;" />
	<path d="M18.063,13.249v4.25h2.833" style="&st1;" />
	<path d="M27.554,7.583h20.68" style="&st1;" />
	<path d="M23.304,14.665h2.833" style="&st1;" />
	<path d="M28.97,7.583v2.833h17.847V7.583" style="&st1;" />
	<path d="M52.483,6.733v10.765" style="&st1;" />
	<path d="M17.341,0.5h41.533" style="&st0;" />
	<path d="M0.5,15.838v38.204" style="&st0;" />
	<path d="M13.633,1.883L2.458,11.554" style="&st0;" />
	<path d="M10.415,63.957h10.481" style="&st0;" />
	<path d="M23.729,61.124l-2.833,2.833" style="&st0;" />
	<path d="M51.35,61.124l4.25,2.833" style="&st0;" />
	<path d="M75.171,43.07L55.599,63.957" style="&st0;" />
	<path d="M76.704,31.549v7.646" style="&st0;" />
	<path d="M61.361,1.977l14.651,26.858" style="&st0;" />
	<path d="M26.562,61.124v2.833" style="&st0;" />
	<path d="M48.517,61.124v2.833" style="&st0;" />
	<path d="M29.395,66.79h16.289" style="&st0;" />
	<path d="M23.729,61.124h2.833" style="&st0;" />
	<path d="M26.562,61.124h21.955" style="&st1;" />
	<path d="M48.517,61.124h2.833" style="&st0;" />
	<g ewd:pinNo="2">
		<text transform="matrix(1 0 0 1 43.3184 41.3032)"><tspan style="&st3; &st2;" x="0" y="0">2</tspan></text>
	</g>
</g>
</svg>