<?xml version="1.0" encoding="utf-8"?>
<!-- Generator: Adobe Illustrator 10.0, SVG Export Plug-In . SVG Version: 3.0.0 Build 77)  -->
<!DOCTYPE svg PUBLIC "-//W3C//DTD SVG 1.0//EN" "http://www.w3.org/TR/2001/REC-SVG-20010904/DTD/svg10.dtd"[
	<!ENTITY ns_flows "http://ns.adobe.com/Flows/1.0/">
	<!ENTITY ns_svg "http://www.w3.org/2000/svg">
	<!ENTITY ns_xlink "http://www.w3.org/1999/xlink">
	<!ENTITY st0 "fill:none;stroke:#000000;stroke-linecap:round;stroke-linejoin:round;">
	<!ENTITY st1 "fill:none;stroke:#000000;stroke-width:0.6;stroke-linecap:round;stroke-linejoin:round;">
	<!ENTITY st2 "font-size:6px;">
	<!ENTITY st3 "font-family:'Arial';">
	<!ATTLIST svg
		ewd:ver CDATA #IMPLIED
		xmlns:ewd CDATA #FIXED "http://shcl.co.jp/ewd"
		xmlns:a CDATA #FIXED "http://ns.adobe.com/AdobeSVGViewerExtensions/3.0/">
	<!ATTLIST g
		ewd:pinNo CDATA #IMPLIED>
	<!ATTLIST text
		ewd:textID CDATA #IMPLIED
		ewd:horAlign CDATA #IMPLIED>
	<!ATTLIST title
		ewd:textID CDATA #IMPLIED>
]>
<svg ewd:ver="2.1.2.6F" height="50.267" onload="call_execInitLoadProc_svg('connector')" style="overflow:visible;enable-background:new 0 0 53.409 50.267" viewBox="0 0 53.409 50.267" width="53.409" xml:space="preserve" xmlns="&ns_svg;" xmlns:ewd="http://shcl.co.jp/ewd" xmlns:a="http://ns.adobe.com/AdobeSVGViewerExtensions/3.0/" xmlns:xlink="&ns_xlink;">
<script type="text/javascript" xlink:href="../../../../../system/js/ewd/fig/svgfig.js" xmlns:xlink="http://www.w3.org/1999/xlink" />
<g id="レイヤー_1">
	<path d="M11.299,26.415v10.847" style="&st1;" />
	<path d="M43.169,26.415v10.847" style="&st1;" />
	<path d="M47.597,26.415v10.847" style="&st1;" />
	<path d="M0.5,38.679v4.249" style="&st0;" />
	<path d="M18.381,2.625h17.706" style="&st1;" />
	<path d="M52.908,20.75v4.25" style="&st0;" />
	<path d="M41.577,4.75v7.838" style="&st0;" />
	<path d="M12.894,4.75v7.838" style="&st0;" />
	<path d="M17.144,0.5h20.184" style="&st0;" />
	<path d="M25.463,26.704v10.269" style="&st1;" />
	<path d="M29.004,26.704v10.269" style="&st1;" />
	<path d="M26.526,25.642h1.417" style="&st1;" />
	<path d="M26.526,38.036h1.417" style="&st1;" />
	<path d="M27.234,21.214v4.428" style="&st1;" />
	<path d="M19.268,6.166v9.739" style="&st1;" />
	<path d="M21.039,4.396h12.394" style="&st1;" />
	<path d="M15.727,7.937h3.541" style="&st1;" />
	<path d="M19.268,14.132h15.935" style="&st1;" />
	<path d="M19.268,11.036h15.935" style="&st1;" />
	<path d="M24.138,7.937h6.195" style="&st1;" />
	<path d="M27.234,38.036v4.425" style="&st1;" />
	<path d="M38.744,7.937h-3.541" style="&st1;" />
	<path d="M35.203,15.905V6.166" style="&st1;" />
	<path d="M6.875,37.262V26.415" style="&st1;" />
	<path d="M3.333,45.761h4.375" style="&st0;" />
	<path d="M46.764,17.917h3.312" style="&st0;" />
	<path d="M50.43,28.863v8.399" style="&st0;" />
	<path d="M4.042,34.489v-8.074" style="&st0;" />
	<path d="M39.336,22.03c-8.458-1.143-15.743-1.143-24.201,0" style="&st1;" />
	<path d="M15.135,41.647c8.458,1.143,15.744,1.143,24.201,0" style="&st1;" />
	<path d="M15.135,22.03c-2.215,0.299-3.833,2.15-3.833,4.385" style="&st1;" />
	<path d="M11.299,37.262c0,2.236,1.619,4.089,3.835,4.388" style="&st1;" />
	<path d="M43.169,26.415c0-2.235-1.618-4.086-3.833-4.385" style="&st1;" />
	<path d="M39.336,41.647c2.215-0.299,3.833-2.15,3.833-4.385" style="&st1;" />
	<path d="M14.54,46.036c8.874,1.199,16.518,1.199,25.391,0" style="&st1;" />
	<path d="M14.54,17.642c-4.431,0.6-7.666,4.303-7.666,8.773" style="&st1;" />
	<path d="M6.875,37.262c0,0.5,0.034,0.923,0.114,1.417" style="&st1;" />
	<path d="M47.597,26.415c0-0.5-0.034-0.922-0.114-1.416" style="&st1;" />
	<path d="M39.931,46.036c4.43-0.6,7.666-4.303,7.666-8.773" style="&st1;" />
	<path d="M10.834,15.803c-4.249,1.959-6.793,5.933-6.793,10.612" style="&st0;" />
	<path d="M7.708,45.761c1.858,1.754,3.92,2.739,6.453,3.081" style="&st0;" />
	<path d="M46.764,17.917c-0.969-0.915-1.917-1.555-3.127-2.113" style="&st0;" />
	<path d="M40.311,48.84c5.847-0.791,10.117-5.678,10.117-11.578" style="&st0;" />
	<path d="M14.161,48.84c9.139,1.235,17.011,1.235,26.15,0" style="&st0;" />
	<path d="M10.834,15.803c1.288-0.593,2.059-1.797,2.059-3.215" style="&st0;" />
	<path d="M41.577,12.588c0,1.418,0.771,2.623,2.059,3.216" style="&st0;" />
	<path d="M39.931,17.642c-0.417-0.056-0.769-0.102-1.187-0.152" style="&st1;" />
	<path d="M15.727,17.492c-0.417,0.051-0.77,0.096-1.187,0.153" style="&st1;" />
	<path d="M26.526,25.642c-0.586,0-1.063,0.476-1.063,1.063" style="&st1;" />
	<path d="M29.004,26.704c0-0.587-0.476-1.063-1.062-1.063" style="&st1;" />
	<path d="M25.463,36.973c0,0.587,0.476,1.063,1.063,1.063" style="&st1;" />
	<path d="M27.942,38.036c0.586,0,1.062-0.476,1.062-1.063" style="&st1;" />
	<path d="M21.039,4.396c-0.978,0-1.771,0.792-1.771,1.771" style="&st1;" />
	<path d="M35.203,6.166c0-0.978-0.793-1.771-1.771-1.771" style="&st1;" />
	<path d="M18.381,2.625c-1.467,0-2.657,1.19-2.657,2.658" style="&st1;" />
	<path d="M38.744,5.282c0-1.468-1.19-2.658-2.657-2.658" style="&st1;" />
	<path d="M45.546,20.75c-1.478-1.774-3.327-2.797-5.615-3.107" style="&st1;" />
	<path d="M8.925,42.928c1.478,1.774,3.327,2.797,5.615,3.107" style="&st1;" />
	<path d="M0.5,42.928c0,1.565,1.269,2.833,2.833,2.833" style="&st0;" />
	<path d="M2.86,35.886c-1.378,0.233-2.36,1.396-2.36,2.793" style="&st0;" />
	<path d="M52.908,20.75c0-1.564-1.268-2.833-2.833-2.833" style="&st0;" />
	<path d="M51.257,27.574c1.033-0.474,1.652-1.439,1.652-2.575" style="&st0;" />
	<path d="M51.257,27.574c-0.518,0.237-0.828,0.72-0.828,1.289" style="&st0;" />
	<path d="M2.86,35.886c0.689-0.116,1.181-0.698,1.181-1.397" style="&st0;" />
	<path d="M17.144,0.5c-2.347,0-4.25,1.903-4.25,4.25" style="&st0;" />
	<path d="M41.577,4.75c0-2.347-1.903-4.25-4.25-4.25" style="&st0;" />
	<path d="M6.987,38.679H3.333v4.249h5.592" style="&st1;" />
	<path d="M47.483,24.999h3.654v-4.25h-5.592" style="&st1;" />
	<path d="M15.727,5.282V18.56h23.017V5.282" style="&st1;" />
	<path d="M19.268,7.05h4.87v8.855" style="&st1;" />
	<path d="M30.333,15.905V7.05h4.87" style="&st1;" />
	<g ewd:pinNo="1">
		<text transform="matrix(1 0 0 1 16.2993 33.8818)"><tspan style="&st3; &st2;" x="0" y="0">1</tspan></text>
	</g>
	<g ewd:pinNo="2">
		<text transform="matrix(1 0 0 1 34.0044 33.8818)"><tspan style="&st3; &st2;" x="0" y="0">2</tspan></text>
	</g>
</g>
</svg>