<?xml version="1.0" encoding="utf-8"?>
<!-- Generator: Adobe Illustrator 10.0, SVG Export Plug-In . SVG Version: 3.0.0 Build 77)  -->
<!DOCTYPE svg PUBLIC "-//W3C//DTD SVG 1.0//EN" "http://www.w3.org/TR/2001/REC-SVG-20010904/DTD/svg10.dtd"[
	<!ENTITY ns_flows "http://ns.adobe.com/Flows/1.0/">
	<!ENTITY ns_svg "http://www.w3.org/2000/svg">
	<!ENTITY ns_xlink "http://www.w3.org/1999/xlink">
	<!ENTITY st0 "fill:none;stroke:#000000;stroke-linecap:round;stroke-linejoin:round;">
	<!ENTITY st1 "fill:none;stroke:#000000;stroke-width:0.6;stroke-linecap:round;stroke-linejoin:round;">
	<!ENTITY st2 "font-size:6px;">
	<!ENTITY st3 "font-family:'Arial';">
	<!ATTLIST svg
		ewd:ver CDATA #IMPLIED
		xmlns:ewd CDATA #FIXED "http://shcl.co.jp/ewd"
		xmlns:a CDATA #FIXED "http://ns.adobe.com/AdobeSVGViewerExtensions/3.0/">
	<!ATTLIST g
		ewd:pinNo CDATA #IMPLIED>
	<!ATTLIST text
		ewd:textID CDATA #IMPLIED
		ewd:horAlign CDATA #IMPLIED>
	<!ATTLIST title
		ewd:textID CDATA #IMPLIED>
]>
<svg ewd:ver="2.1.2.6F" height="59.641" onload="call_execInitLoadProc_svg('connector')" style="overflow:visible;enable-background:new 0 0 57.657 59.641" viewBox="0 0 57.657 59.641" width="57.657" xml:space="preserve" xmlns="&ns_svg;" xmlns:ewd="http://shcl.co.jp/ewd" xmlns:a="http://ns.adobe.com/AdobeSVGViewerExtensions/3.0/" xmlns:xlink="&ns_xlink;">
<script type="text/javascript" xlink:href="../../../../../system/js/ewd/fig/svgfig.js" xmlns:xlink="http://www.w3.org/1999/xlink" />
<g id="レイヤー_1">
	<path d="M43.206,5.05c0-0.679-0.461-1.247-1.125-1.386" style="&st0;" />
	<path d="M15.577,3.662C14.911,3.802,14.45,4.37,14.45,5.05" style="&st0;" />
	<path d="M57.157,1.917c0-0.782-0.634-1.417-1.417-1.417" style="&st0;" />
	<path d="M55.741,59.141c0.782,0,1.417-0.634,1.417-1.417" style="&st0;" />
	<path d="M46.675,0.5c-0.782,0-1.416,0.634-1.416,1.417" style="&st0;" />
	<path d="M1.916,0.5C1.134,0.5,0.5,1.134,0.5,1.917" style="&st0;" />
	<path d="M12.398,1.917c0-0.782-0.634-1.417-1.417-1.417" style="&st0;" />
	<path d="M0.5,57.724c0,0.782,0.634,1.417,1.416,1.417" style="&st0;" />
	<path d="M5.599,59.141c0.782,0,1.417-0.634,1.417-1.417" style="&st0;" />
	<path d="M50.642,57.724c0,0.782,0.634,1.417,1.417,1.417" style="&st0;" />
	<path d="M52.341,0.5c-0.782,0-1.417,0.634-1.417,1.417" style="&st1;" />
	<path d="M6.732,1.917c0-0.782-0.634-1.417-1.417-1.417" style="&st1;" />
	<path d="M43.206,22.313h7.719" style="&st0;" />
	<path d="M14.452,9.565V5.05" style="&st0;" />
	<path d="M14.452,9.565H8.786v5.666h5.666" style="&st0;" />
	<path d="M43.206,9.565h5.666v5.666h-5.666" style="&st0;" />
	<path d="M14.452,16.647h28.754" style="&st1;" />
	<path d="M43.206,9.565V5.05" style="&st0;" />
	<path d="M15.577,3.662l5.603-1.179h15.297l5.604,1.179" style="&st0;" />
	<path d="M6.732,5.316v16.998" style="&st0;" />
	<path d="M50.925,5.316h-5.666V1.917" style="&st0;" />
	<path d="M55.741,59.141h-3.683" style="&st0;" />
	<path d="M46.675,0.5h9.065" style="&st0;" />
	<path d="M10.981,0.5H1.916" style="&st0;" />
	<path d="M6.732,5.316h5.666V1.917" style="&st0;" />
	<path d="M50.925,5.316v16.998" style="&st0;" />
	<path d="M1.916,59.141h3.683" style="&st0;" />
	<path d="M14.452,22.313H6.732" style="&st0;" />
	<path d="M28.829,53.475V43.56" style="&st1;" />
	<path d="M38.744,53.475V43.56" style="&st1;" />
	<path d="M48.659,43.56v9.915H8.999V43.56H48.659" style="&st1;" />
	<path d="M18.914,53.475V43.56" style="&st1;" />
	<path d="M5.316,23.729l1.417-1.416" style="&st1;" />
	<path d="M52.341,23.729l-1.417-1.416" style="&st1;" />
	<path d="M7.016,57.724v-4.25" style="&st1;" />
	<path d="M7.016,59.141v-1.417" style="&st0;" />
	<path d="M50.642,57.724v-4.25" style="&st1;" />
	<path d="M50.642,59.141v-1.417" style="&st0;" />
	<path d="M7.016,59.141h43.626" style="&st0;" />
	<path d="M14.452,22.313h28.754" style="&st1;" />
	<path d="M48.659,30.812h2.266" style="&st1;" />
	<path d="M8.999,30.812H6.732" style="&st1;" />
	<path d="M5.316,29.396l1.417,1.417" style="&st1;" />
	<path d="M52.341,29.396l-1.417,1.417" style="&st1;" />
	<path d="M14.452,19.48h28.754" style="&st1;" />
	<path d="M21.888,19.48v2.833" style="&st1;" />
	<path d="M35.769,19.48v2.833" style="&st1;" />
	<path d="M43.206,22.313v-7.082" style="&st0;" />
	<path d="M14.452,22.313v-7.082" style="&st0;" />
	<path d="M23.163,9.565v3.966h11.332V9.565H23.163" style="&st1;" />
	<path d="M8.786,11.548h14.376" style="&st1;" />
	<path d="M34.494,11.548h14.377" style="&st1;" />
	<path d="M43.206,11.548V9.565" style="&st1;" />
	<path d="M14.452,11.548V9.565" style="&st1;" />
	<path d="M6.732,5.316V1.917" style="&st1;" />
	<path d="M50.925,5.316V1.917" style="&st1;" />
	<path d="M48.659,30.812v9.915H8.999v-9.915H48.659" style="&st1;" />
	<path d="M38.744,40.727v-9.915" style="&st1;" />
	<path d="M28.829,40.727v-9.915" style="&st1;" />
	<path d="M18.914,40.727v-9.915" style="&st1;" />
	<path d="M48.659,43.56v-2.833" style="&st1;" />
	<path d="M8.999,43.56v-2.833" style="&st1;" />
	<path d="M8.999,34.211H2.483v6.515h6.516" style="&st1;" />
	<path d="M0.5,1.917v19.83l1.416,1.417v3.966L0.5,28.545v29.179" style="&st0;" />
	<path d="M8.999,53.475H2.483v-7.082" style="&st1;" />
	<path d="M2.483,40.727l3.116,1.417v1.417l-3.116,2.833" style="&st1;" />
	<path d="M2.483,38.744l6.516-2.549" style="&st1;" />
	<path d="M2.483,51.492l6.516-2.549" style="&st1;" />
	<path d="M57.157,1.917v19.83l-1.417,1.417v3.966l1.417,1.417v29.179" style="&st0;" />
	<path d="M48.659,53.475h6.516v-7.082" style="&st1;" />
	<path d="M55.174,40.727l-3.116,1.417v1.417l3.116,2.833" style="&st1;" />
	<path d="M48.659,34.211h6.516v6.515h-6.516" style="&st1;" />
	<path d="M55.174,38.744l-6.516-2.549" style="&st1;" />
	<path d="M55.174,51.492l-6.516-2.549" style="&st1;" />
	<path d="M50.925,5.316h1.417" style="&st1;" />
	<path d="M5.316,5.316h1.417" style="&st1;" />
	<g ewd:pinNo="6">
		<text transform="matrix(1 0 0 1 22.1338 50.5615)"><tspan style="&st3; &st2;" x="0" y="0">6</tspan></text>
	</g>
	<g ewd:pinNo="7">
		<text transform="matrix(1 0 0 1 32.0483 50.5615)"><tspan style="&st3; &st2;" x="0" y="0">7</tspan></text>
	</g>
	<g ewd:pinNo="8">
		<text transform="matrix(1 0 0 1 41.9634 50.5615)"><tspan style="&st3; &st2;" x="0" y="0">8</tspan></text>
	</g>
	<g ewd:pinNo="5">
		<text transform="matrix(1 0 0 1 12.2188 50.5615)"><tspan style="&st3; &st2;" x="0" y="0">5</tspan></text>
	</g>
	<g ewd:pinNo="2">
		<text transform="matrix(1 0 0 1 22.1338 37.8135)"><tspan style="&st3; &st2;" x="0" y="0">2</tspan></text>
	</g>
	<g ewd:pinNo="3">
		<text transform="matrix(1 0 0 1 32.0483 37.8135)"><tspan style="&st3; &st2;" x="0" y="0">3</tspan></text>
	</g>
	<g ewd:pinNo="4">
		<text transform="matrix(1 0 0 1 41.9634 37.8135)"><tspan style="&st3; &st2;" x="0" y="0">4</tspan></text>
	</g>
	<g ewd:pinNo="1">
		<text transform="matrix(1 0 0 1 12.2188 37.8135)"><tspan style="&st3; &st2;" x="0" y="0">1</tspan></text>
	</g>
</g>
</svg>