<?xml version="1.0" encoding="utf-8"?>
<!-- Generator: Adobe Illustrator 10.0, SVG Export Plug-In . SVG Version: 3.0.0 Build 77)  -->
<!DOCTYPE svg PUBLIC "-//W3C//DTD SVG 1.0//EN" "http://www.w3.org/TR/2001/REC-SVG-20010904/DTD/svg10.dtd"[
	<!ENTITY ns_flows "http://ns.adobe.com/Flows/1.0/">
	<!ENTITY ns_svg "http://www.w3.org/2000/svg">
	<!ENTITY ns_xlink "http://www.w3.org/1999/xlink">
	<!ENTITY st0 "fill:none;stroke:#000000;stroke-linecap:round;stroke-linejoin:round;">
	<!ENTITY st1 "fill:none;stroke:#000000;stroke-width:0.6;stroke-linecap:round;stroke-linejoin:round;">
	<!ENTITY st2 "font-size:6px;">
	<!ENTITY st3 "font-family:'Arial';">
	<!ATTLIST svg
		ewd:ver CDATA #IMPLIED
		xmlns:ewd CDATA #FIXED "http://shcl.co.jp/ewd"
		xmlns:a CDATA #FIXED "http://ns.adobe.com/AdobeSVGViewerExtensions/3.0/">
	<!ATTLIST g
		ewd:pinNo CDATA #IMPLIED>
	<!ATTLIST text
		ewd:textID CDATA #IMPLIED
		ewd:horAlign CDATA #IMPLIED>
	<!ATTLIST title
		ewd:textID CDATA #IMPLIED>
]>
<svg ewd:ver="2.1.2.6F" height="59.074" onload="call_execInitLoadProc_svg('connector')" style="overflow:visible;enable-background:new 0 0 50.575 59.074" viewBox="0 0 50.575 59.074" width="50.575" xml:space="preserve" xmlns="&ns_svg;" xmlns:ewd="http://shcl.co.jp/ewd" xmlns:a="http://ns.adobe.com/AdobeSVGViewerExtensions/3.0/" xmlns:xlink="&ns_xlink;">
<script type="text/javascript" xlink:href="../../../../../system/js/ewd/fig/svgfig.js" xmlns:xlink="http://www.w3.org/1999/xlink" />
<g id="レイヤー_1">
	<path d="M44.976,0.5c-1.095,0-1.983,0.888-1.983,1.983" style="&st0;" />
	<path d="M50.075,2.483c0-1.095-0.888-1.983-1.983-1.983" style="&st0;" />
	<path d="M45.826,27.979c0-1.095-0.888-1.983-1.983-1.983" style="&st1;" />
	<path d="M6.732,25.996c-1.096,0-1.983,0.888-1.983,1.983" style="&st1;" />
	<path d="M2.483,0.5C1.388,0.5,0.5,1.388,0.5,2.483" style="&st0;" />
	<path d="M7.582,2.483c0-1.095-0.888-1.983-1.983-1.983" style="&st0;" />
	<path d="M43.843,25.996h-0.85" style="&st1;" />
	<path d="M45.826,42.993l4.25-4.25" style="&st0;" />
	<path d="M48.092,0.5h-3.116" style="&st0;" />
	<path d="M42.993,25.996V2.483" style="&st0;" />
	<path d="M50.075,38.744V2.483" style="&st0;" />
	<path d="M10.415,34.495v12.748H40.16V34.495H10.415" style="&st1;" />
	<path d="M20.33,47.242V34.495" style="&st1;" />
	<path d="M30.245,47.242V34.495" style="&st1;" />
	<path d="M41.01,11.832l-2.833,2.833l2.833,2.833" style="&st1;" />
	<path d="M38.177,14.665h-4.249" style="&st1;" />
	<path d="M4.749,58.574V42.993" style="&st0;" />
	<path d="M41.01,17.498H25.288" style="&st1;" />
	<path d="M4.749,42.993V27.979" style="&st1;" />
	<path d="M9.565,17.498h15.723" style="&st1;" />
	<path d="M16.647,17.498v-5.666h17.28v5.666" style="&st1;" />
	<path d="M12.398,14.665h4.25" style="&st1;" />
	<path d="M45.826,42.993V27.979" style="&st1;" />
	<path d="M4.749,44.41h1.417l4.25,4.249v1.417" style="&st1;" />
	<path d="M4.749,50.075h41.077" style="&st1;" />
	<path d="M4.749,58.574h41.077" style="&st0;" />
	<path d="M9.565,11.832l2.833,2.833l-2.833,2.833" style="&st1;" />
	<path d="M45.826,58.574V42.993" style="&st0;" />
	<path d="M45.826,44.41h-1.417l-4.249,4.249v1.417" style="&st1;" />
	<path d="M7.582,25.996h1.983V6.166l7.861-2.833h15.722l7.861,2.833v19.83h1.983" style="&st0;" />
	<path d="M9.565,8.999H41.01" style="&st1;" />
	<path d="M4.749,42.993L0.5,38.744" style="&st0;" />
	<path d="M0.5,38.744V2.483" style="&st0;" />
	<path d="M7.582,25.996V2.483" style="&st0;" />
	<path d="M2.483,0.5h3.116" style="&st0;" />
	<path d="M6.732,25.996h0.85" style="&st1;" />
	<g ewd:pinNo="1">
		<text transform="matrix(1 0 0 1 13.7744 43.0845)"><tspan style="&st3; &st2;" x="0" y="0">1</tspan></text>
	</g>
	<g ewd:pinNo="2">
		<text transform="matrix(1 0 0 1 23.6895 43.0845)"><tspan style="&st3; &st2;" x="0" y="0">2</tspan></text>
	</g>
	<g ewd:pinNo="3">
		<text transform="matrix(1 0 0 1 33.6045 43.0845)"><tspan style="&st3; &st2;" x="0" y="0">3</tspan></text>
	</g>
</g>
</svg>