<?xml version="1.0" encoding="utf-8"?>
<!-- Generator: Adobe Illustrator 10.0, SVG Export Plug-In . SVG Version: 3.0.0 Build 77)  -->
<!DOCTYPE svg PUBLIC "-//W3C//DTD SVG 1.0//EN" "http://www.w3.org/TR/2001/REC-SVG-20010904/DTD/svg10.dtd"[
	<!ENTITY ns_flows "http://ns.adobe.com/Flows/1.0/">
	<!ENTITY ns_svg "http://www.w3.org/2000/svg">
	<!ENTITY ns_xlink "http://www.w3.org/1999/xlink">
	<!ENTITY st0 "fill:none;stroke:#000000;stroke-linecap:round;stroke-linejoin:round;">
	<!ENTITY st1 "fill:none;stroke:#000000;stroke-width:0.6;stroke-linecap:round;stroke-linejoin:round;">
	<!ENTITY st2 "font-size:6px;">
	<!ENTITY st3 "font-family:'Arial';">
	<!ATTLIST svg
		ewd:ver CDATA #IMPLIED
		xmlns:ewd CDATA #FIXED "http://shcl.co.jp/ewd"
		xmlns:a CDATA #FIXED "http://ns.adobe.com/AdobeSVGViewerExtensions/3.0/">
	<!ATTLIST g
		ewd:pinNo CDATA #IMPLIED>
	<!ATTLIST text
		ewd:textID CDATA #IMPLIED
		ewd:horAlign CDATA #IMPLIED>
	<!ATTLIST title
		ewd:textID CDATA #IMPLIED>
]>
<svg ewd:ver="2.1.2.6F" height="57.621" onload="call_execInitLoadProc_svg('connector')" style="overflow:visible;enable-background:new 0 0 45.405 57.621" viewBox="0 0 45.405 57.621" width="45.405" xml:space="preserve" xmlns="&ns_svg;" xmlns:ewd="http://shcl.co.jp/ewd" xmlns:a="http://ns.adobe.com/AdobeSVGViewerExtensions/3.0/" xmlns:xlink="&ns_xlink;">
<script type="text/javascript" xlink:href="../../../../../system/js/ewd/fig/svgfig.js" xmlns:xlink="http://www.w3.org/1999/xlink" />
<g id="レイヤー_1">
	<path d="M3.154,25.571v23.584" style="&st1;" />
	<path d="M43.31,25.571v4.25" style="&st0;" />
	<path d="M16.95,57.121h12.567" style="&st0;" />
	<path d="M17.922,0.5h10.624" style="&st0;" />
	<path d="M37.786,11.231v9.028" style="&st0;" />
	<path d="M8.678,11.231v9.028" style="&st0;" />
	<path d="M11.865,10.169v11.683" style="&st1;" />
	<path d="M11.865,16.54h22.734" style="&st1;" />
	<path d="M11.865,14.416h22.734" style="&st1;" />
	<path d="M15.797,11.231H30.67" style="&st1;" />
	<path d="M6.341,29.82v15.085" style="&st1;" />
	<path d="M0.5,26.633v21.459" style="&st0;" />
	<path d="M1.562,25.571h1.592" style="&st0;" />
	<path d="M1.562,49.155h1.592" style="&st0;" />
	<path d="M44.905,31.413v11.898" style="&st0;" />
	<path d="M0.5,44.373h2.654" style="&st1;" />
	<path d="M0.5,30.35h2.654" style="&st1;" />
	<path d="M1.829,25.571v4.779" style="&st1;" />
	<path d="M1.829,44.373v4.782" style="&st1;" />
	<path d="M15.797,12.823H30.67" style="&st1;" />
	<path d="M43.31,29.82v15.085" style="&st1;" />
	<path d="M43.31,44.905v4.25" style="&st0;" />
	<path d="M8.999,51.809h28.47" style="&st1;" />
	<path d="M8.115,49.685h30.238" style="&st1;" />
	<path d="M7.407,50.393v0.708" style="&st1;" />
	<path d="M39.061,50.393v0.708" style="&st1;" />
	<path d="M43.31,25.571c0-1.466-1.188-2.654-2.654-2.654" style="&st0;" />
	<path d="M40.656,22.917c-0.037,0-0.068,0-0.104,0.002" style="&st0;" />
	<path d="M40.656,51.809c1.466,0,2.654-1.188,2.654-2.654" style="&st0;" />
	<path d="M5.916,22.917C4.45,22.858,3.215,24,3.157,25.466" style="&st0;" />
	<path d="M3.157,25.466c-0.001,0.037-0.002,0.068-0.002,0.104" style="&st0;" />
	<path d="M3.154,49.155c0,1.467,1.19,2.657,2.657,2.657" style="&st0;" />
	<path d="M37.786,20.259c0,1.468,1.189,2.657,2.657,2.657" style="&st0;" />
	<path d="M40.443,22.917c0.037,0,0.068,0,0.105-0.002" style="&st0;" />
	<path d="M5.919,22.914c1.466,0.058,2.701-1.084,2.759-2.55" style="&st0;" />
	<path d="M8.678,20.364c0.001-0.037,0.002-0.068,0.002-0.105" style="&st0;" />
	<path d="M17.922,0.5c-1.173,0-2.125,0.952-2.125,2.125" style="&st0;" />
	<path d="M30.67,2.625c0-1.173-0.951-2.125-2.125-2.125" style="&st0;" />
	<path d="M11.865,21.852c0,0.587,0.476,1.063,1.063,1.063" style="&st1;" />
	<path d="M10.803,9.106c-1.174,0-2.125,0.951-2.125,2.125" style="&st0;" />
	<path d="M37.786,11.231c0-1.174-0.951-2.125-2.125-2.125" style="&st0;" />
	<path d="M35.662,9.106c-0.587,0-1.063,0.476-1.063,1.063" style="&st1;" />
	<path d="M11.865,10.169c0-0.587-0.476-1.063-1.062-1.063" style="&st1;" />
	<path d="M12.443,55.254c1.245,1.244,2.747,1.867,4.507,1.867" style="&st0;" />
	<path d="M29.517,57.121c1.76,0,3.262-0.623,4.507-1.867" style="&st0;" />
	<path d="M1.562,25.571c-0.586,0-1.062,0.476-1.062,1.063" style="&st0;" />
	<path d="M0.5,48.092c0,0.586,0.476,1.063,1.062,1.063" style="&st0;" />
	<path d="M44.905,31.413c0-0.881-0.714-1.595-1.595-1.595" style="&st0;" />
	<path d="M43.31,44.905c0.881,0,1.595-0.714,1.595-1.595" style="&st0;" />
	<path d="M39.061,51.101c0,0.392,0.317,0.708,0.708,0.708" style="&st1;" />
	<path d="M6.698,51.809c0.391,0,0.708-0.317,0.708-0.708" style="&st1;" />
	<path d="M8.115,49.685c-0.391,0-0.708,0.317-0.708,0.708" style="&st1;" />
	<path d="M39.061,50.393c0-0.391-0.317-0.708-0.708-0.708" style="&st1;" />
	<path d="M20.577,9.106V4.75h5.312v4.357" style="&st1;" />
	<path d="M24.826,46.497V28.226h12.431v18.271H24.826" style="&st1;" />
	<path d="M6.874,28.226h11.898v18.271H6.874" style="&st1;" />
	<path d="M4.749,44.905h2.125v3.187H4.749V44.905" style="&st1;" />
	<path d="M6.874,26.633H4.749v3.187h2.125V26.633" style="&st1;" />
	<path d="M15.797,2.625v6.482h-4.994" style="&st0;" />
	<path d="M35.662,9.106H30.67V2.625" style="&st0;" />
	<path d="M15.797,16.54V9.106H30.67v7.434" style="&st1;" />
	<path d="M40.656,51.809h-3.187l-3.445,3.445" style="&st0;" />
	<path d="M12.443,55.254l-3.445-3.445H5.812" style="&st0;" />
	<path d="M12.928,22.914h16.68v-5.312h4.992v-7.434" style="&st1;" />
	<g ewd:pinNo="1">
		<text transform="matrix(1 0 0 1 10.8701 39.4419)"><tspan style="&st3; &st2;" x="0" y="0">1</tspan></text>
	</g>
	<g ewd:pinNo="2">
		<text transform="matrix(1 0 0 1 29.3545 39.4419)"><tspan style="&st3; &st2;" x="0" y="0">2</tspan></text>
	</g>
</g>
</svg>