<?xml version="1.0" encoding="utf-8"?>
<!-- Generator: Adobe Illustrator 10.0, SVG Export Plug-In . SVG Version: 3.0.0 Build 77)  -->
<!DOCTYPE svg PUBLIC "-//W3C//DTD SVG 1.0//EN" "http://www.w3.org/TR/2001/REC-SVG-20010904/DTD/svg10.dtd"[
	<!ENTITY ns_flows "http://ns.adobe.com/Flows/1.0/">
	<!ENTITY ns_svg "http://www.w3.org/2000/svg">
	<!ENTITY ns_xlink "http://www.w3.org/1999/xlink">
	<!ENTITY st0 "fill:none;stroke:#000000;stroke-linecap:round;stroke-linejoin:round;">
	<!ENTITY st1 "fill:none;stroke:#000000;stroke-width:0.6;stroke-linecap:round;stroke-linejoin:round;">
	<!ENTITY st2 "font-size:6px;">
	<!ENTITY st3 "font-family:'Arial';">
	<!ATTLIST svg
		ewd:ver CDATA #IMPLIED
		xmlns:ewd CDATA #FIXED "http://shcl.co.jp/ewd"
		xmlns:a CDATA #FIXED "http://ns.adobe.com/AdobeSVGViewerExtensions/3.0/">
	<!ATTLIST g
		ewd:pinNo CDATA #IMPLIED>
	<!ATTLIST text
		ewd:textID CDATA #IMPLIED
		ewd:horAlign CDATA #IMPLIED>
	<!ATTLIST title
		ewd:textID CDATA #IMPLIED>
]>
<svg ewd:ver="2.1.2.6F" height="56.808" onload="call_execInitLoadProc_svg('connector')" style="overflow:visible;enable-background:new 0 0 34.994 56.808" viewBox="0 0 34.994 56.808" width="34.994" xml:space="preserve" xmlns="&ns_svg;" xmlns:ewd="http://shcl.co.jp/ewd" xmlns:a="http://ns.adobe.com/AdobeSVGViewerExtensions/3.0/" xmlns:xlink="&ns_xlink;">
<script type="text/javascript" xlink:href="../../../../../system/js/ewd/fig/svgfig.js" xmlns:xlink="http://www.w3.org/1999/xlink" />
<g id="レイヤー_1">
	<path d="M28.829,54.891h4.249v-7.082" style="&st0;" />
	<path d="M0.5,47.809h1.416" style="&st0;" />
	<path d="M4.749,19.48v25.496h25.496V19.48H4.749" style="&st1;" />
	<path d="M4.749,32.228h25.496" style="&st1;" />
	<path d="M13.248,44.976V19.48" style="&st1;" />
	<path d="M21.747,44.976V19.48" style="&st1;" />
	<path d="M10.415,52.058h14.164" style="&st1;" />
	<path d="M10.415,53.475h14.164" style="&st1;" />
	<path d="M6.166,54.891h22.663" style="&st1;" />
	<path d="M10.415,16.647V2.483h14.164v14.165" style="&st0;" />
	<path d="M10.415,5.316h14.164" style="&st1;" />
	<path d="M0.5,16.647h7.932" style="&st1;" />
	<path d="M10.415,54.891v-5.666h14.164v5.666" style="&st1;" />
	<path d="M33.078,47.809h1.417" style="&st0;" />
	<path d="M6.166,54.891l1.417,1.417h19.83l1.417-1.417" style="&st0;" />
	<path d="M1.916,47.809v7.082h4.25" style="&st0;" />
	<path d="M24.579,16.647h1.983" style="&st0;" />
	<path d="M10.415,18.064H1.916v28.329h31.162V18.064h-8.499" style="&st1;" />
	<path d="M1.916,47.809h31.162" style="&st1;" />
	<path d="M0.5,47.809V5.316L4.749,0.5h3.683v16.147" style="&st0;" />
	<path d="M10.415,18.064v-1.417" style="&st1;" />
	<path d="M0.5,5.316h4.249v11.332" style="&st1;" />
	<path d="M30.245,54.891v-7.082" style="&st1;" />
	<path d="M24.579,16.647v1.417" style="&st1;" />
	<path d="M4.749,54.891v-7.082" style="&st1;" />
	<path d="M26.562,16.647h7.932" style="&st1;" />
	<path d="M14.664,5.316v2.833h5.666V5.316" style="&st1;" />
	<path d="M8.432,16.647h1.983" style="&st0;" />
	<path d="M34.494,47.809V5.316L30.245,0.5h-3.683v16.147" style="&st0;" />
	<path d="M34.494,5.316h-4.249v11.332" style="&st1;" />
	<g ewd:pinNo="1">
		<text transform="matrix(1 0 0 1 7.4038 28.2051)"><tspan style="&st3; &st2;" x="0" y="0">1</tspan></text>
	</g>
	<g ewd:pinNo="2">
		<text transform="matrix(1 0 0 1 15.9028 28.2051)"><tspan style="&st3; &st2;" x="0" y="0">2</tspan></text>
	</g>
	<g ewd:pinNo="3">
		<text transform="matrix(1 0 0 1 24.4014 28.2051)"><tspan style="&st3; &st2;" x="0" y="0">3</tspan></text>
	</g>
	<g ewd:pinNo="4">
		<text transform="matrix(1 0 0 1 7.4038 40.9531)"><tspan style="&st3; &st2;" x="0" y="0">4</tspan></text>
	</g>
	<g ewd:pinNo="5">
		<text transform="matrix(1 0 0 1 15.9028 40.9531)"><tspan style="&st3; &st2;" x="0" y="0">5</tspan></text>
	</g>
	<g ewd:pinNo="6">
		<text transform="matrix(1 0 0 1 24.4014 40.9531)"><tspan style="&st3; &st2;" x="0" y="0">6</tspan></text>
	</g>
</g>
</svg>