<?xml version="1.0" encoding="utf-8"?>
<!-- Generator: Adobe Illustrator 10.0, SVG Export Plug-In . SVG Version: 3.0.0 Build 77)  -->
<!DOCTYPE svg PUBLIC "-//W3C//DTD SVG 1.0//EN" "http://www.w3.org/TR/2001/REC-SVG-20010904/DTD/svg10.dtd"[
	<!ENTITY ns_flows "http://ns.adobe.com/Flows/1.0/">
	<!ENTITY ns_svg "http://www.w3.org/2000/svg">
	<!ENTITY ns_xlink "http://www.w3.org/1999/xlink">
	<!ENTITY st0 "fill:none;stroke:#000000;stroke-linecap:round;stroke-linejoin:round;">
	<!ENTITY st1 "fill:none;stroke:#000000;stroke-width:0.6;stroke-linecap:round;stroke-linejoin:round;">
	<!ENTITY st2 "font-size:6px;">
	<!ENTITY st3 "font-family:'Arial';">
	<!ATTLIST svg
		ewd:ver CDATA #IMPLIED
		xmlns:ewd CDATA #FIXED "http://shcl.co.jp/ewd"
		xmlns:a CDATA #FIXED "http://ns.adobe.com/AdobeSVGViewerExtensions/3.0/">
	<!ATTLIST g
		ewd:pinNo CDATA #IMPLIED>
	<!ATTLIST text
		ewd:textID CDATA #IMPLIED
		ewd:horAlign CDATA #IMPLIED>
	<!ATTLIST title
		ewd:textID CDATA #IMPLIED>
]>
<svg ewd:ver="2.1.2.6F" height="77.487" onload="call_execInitLoadProc_svg('connector')" style="overflow:visible;enable-background:new 0 0 129.895 77.487" viewBox="0 0 129.895 77.487" width="129.895" xml:space="preserve" xmlns="&ns_svg;" xmlns:ewd="http://shcl.co.jp/ewd" xmlns:a="http://ns.adobe.com/AdobeSVGViewerExtensions/3.0/" xmlns:xlink="&ns_xlink;">
<script type="text/javascript" xlink:href="../../../../../system/js/ewd/fig/svgfig.js" xmlns:xlink="http://www.w3.org/1999/xlink" />
<g id="レイヤー_1">
	<path d="M119.48,71.322c2.347,0,4.25-1.903,4.25-4.25" style="&st1;" />
	<path d="M119.236,2.16c-1.106-1.106-2.441-1.659-4.005-1.659" style="&st0;" />
	<path d="M6.166,67.072c0,2.347,1.903,4.25,4.25,4.25" style="&st1;" />
	<path d="M14.664,0.5c-1.564,0-2.9,0.554-4.006,1.66" style="&st0;" />
	<path d="M2.16,10.659C1.054,11.765,0.5,13.1,0.5,14.665" style="&st0;" />
	<path d="M119.48,76.987c5.476,0,9.915-4.439,9.915-9.915" style="&st0;" />
	<path d="M129.395,14.665c0-1.564-0.553-2.9-1.659-4.006" style="&st0;" />
	<path d="M0.5,67.072c0,5.476,4.439,9.915,9.915,9.915" style="&st0;" />
	<path d="M2.16,10.659l8.499-8.499" style="&st0;" />
	<path d="M119.236,2.16l8.499,8.499" style="&st0;" />
	<path d="M10.415,76.987H119.48" style="&st0;" />
	<path d="M6.166,14.665l8.499-8.499h100.567l8.499,8.499" style="&st1;" />
	<path d="M11.832,31.662v31.162h106.232V31.662h-12.748v2.833h-9.915v-2.833H69.905v2.833H59.99v-2.833H34.494v2.833    h-9.915v-2.833H11.832" style="&st1;" />
	<path d="M24.579,62.823V34.495" style="&st1;" />
	<path d="M34.494,62.823V34.495" style="&st1;" />
	<path d="M47.242,62.823V31.662" style="&st1;" />
	<path d="M59.99,62.823V34.495" style="&st1;" />
	<path d="M69.905,62.823V34.495" style="&st1;" />
	<path d="M82.653,62.823V31.662" style="&st1;" />
	<path d="M95.401,62.823V34.495" style="&st1;" />
	<path d="M105.316,62.823V34.495" style="&st1;" />
	<path d="M10.415,71.322H119.48" style="&st1;" />
	<path d="M123.729,14.665v52.408" style="&st1;" />
	<path d="M11.832,17.498v11.331h35.411V17.498H11.832" style="&st1;" />
	<path d="M11.832,47.242h106.232" style="&st1;" />
	<path d="M14.664,0.5h100.567" style="&st0;" />
	<path d="M0.5,14.665v52.408" style="&st0;" />
	<path d="M6.166,14.665v52.408" style="&st1;" />
	<path d="M95.401,50.075h9.915" style="&st1;" />
	<path d="M59.99,50.075h9.915" style="&st1;" />
	<path d="M24.579,50.075h9.915" style="&st1;" />
	<path d="M129.395,14.665v52.408" style="&st0;" />
	<path d="M50.075,17.498v2.833h23.371v-2.833H50.075" style="&st1;" />
	<path d="M50.075,23.163v5.666h26.204v-5.666H50.075" style="&st1;" />
	<path d="M79.112,19.622h8.499" style="&st1;" />
	<path d="M79.112,17.498v4.249h11.332v-4.249H79.112" style="&st1;" />
	<path d="M87.61,21.747v-4.249" style="&st1;" />
	<path d="M79.112,24.58v4.249h2.833V24.58H79.112" style="&st1;" />
	<g ewd:pinNo="6">
		<text transform="matrix(1 0 0 1 74.4565 41.5288)"><tspan style="&st3; &st2;" x="0" y="0">6</tspan></text>
	</g>
	<g ewd:pinNo="9">
		<text transform="matrix(1 0 0 1 109.8672 41.5288)"><tspan style="&st3; &st2;" x="0" y="0">9</tspan></text>
	</g>
	<g ewd:pinNo="5">
		<text transform="matrix(1 0 0 1 63.125 42.9453)"><tspan style="&st3; &st2;" x="0" y="0">5</tspan></text>
	</g>
	<g ewd:pinNo="8">
		<text transform="matrix(1 0 0 1 98.5356 42.9453)"><tspan style="&st3; &st2;" x="0" y="0">8</tspan></text>
	</g>
	<g ewd:pinNo="14">
		<text transform="matrix(1 0 0 1 61.3306 58.5259)"><tspan style="&st3; &st2;" x="0" y="0">14</tspan></text>
	</g>
	<g ewd:pinNo="7">
		<text transform="matrix(1 0 0 1 87.2046 41.5288)"><tspan style="&st3; &st2;" x="0" y="0">7</tspan></text>
	</g>
	<g ewd:pinNo="15">
		<text transform="matrix(1 0 0 1 72.6621 57.1094)"><tspan style="&st3; &st2;" x="0" y="0">15</tspan></text>
	</g>
	<g ewd:pinNo="4">
		<text transform="matrix(1 0 0 1 51.7935 41.5288)"><tspan style="&st3; &st2;" x="0" y="0">4</tspan></text>
	</g>
	<g ewd:pinNo="17">
		<text transform="matrix(1 0 0 1 96.7412 58.5259)"><tspan style="&st3; &st2;" x="0" y="0">17</tspan></text>
	</g>
	<g ewd:pinNo="2">
		<text transform="matrix(1 0 0 1 27.7144 42.9453)"><tspan style="&st3; &st2;" x="0" y="0">2</tspan></text>
	</g>
	<g ewd:pinNo="1">
		<text transform="matrix(1 0 0 1 16.3828 41.5288)"><tspan style="&st3; &st2;" x="0" y="0">1</tspan></text>
	</g>
	<g ewd:pinNo="18">
		<text transform="matrix(1 0 0 1 108.0728 57.1094)"><tspan style="&st3; &st2;" x="0" y="0">18</tspan></text>
	</g>
	<g ewd:pinNo="16">
		<text transform="matrix(1 0 0 1 85.4097 57.1094)"><tspan style="&st3; &st2;" x="0" y="0">16</tspan></text>
	</g>
	<g ewd:pinNo="3">
		<text transform="matrix(1 0 0 1 39.0459 41.5288)"><tspan style="&st3; &st2;" x="0" y="0">3</tspan></text>
	</g>
	<g ewd:pinNo="11">
		<text transform="matrix(1 0 0 1 26.1426 58.5259)"><tspan style="&st3; &st2;" x="0" y="0">11</tspan></text>
	</g>
	<g ewd:pinNo="13">
		<text transform="matrix(1 0 0 1 49.999 57.1094)"><tspan style="&st3; &st2;" x="0" y="0">13</tspan></text>
	</g>
	<g ewd:pinNo="10">
		<text transform="matrix(1 0 0 1 14.5884 57.1094)"><tspan style="&st3; &st2;" x="0" y="0">10</tspan></text>
	</g>
	<g ewd:pinNo="12">
		<text transform="matrix(1 0 0 1 37.251 57.1094)"><tspan style="&st3; &st2;" x="0" y="0">12</tspan></text>
	</g>
</g>
</svg>