<?xml version="1.0" encoding="utf-8"?>
<!-- Generator: Adobe Illustrator 10.0, SVG Export Plug-In . SVG Version: 3.0.0 Build 77)  -->
<!DOCTYPE svg PUBLIC "-//W3C//DTD SVG 1.0//EN" "http://www.w3.org/TR/2001/REC-SVG-20010904/DTD/svg10.dtd"[
	<!ENTITY ns_flows "http://ns.adobe.com/Flows/1.0/">
	<!ENTITY ns_svg "http://www.w3.org/2000/svg">
	<!ENTITY ns_xlink "http://www.w3.org/1999/xlink">
	<!ENTITY st0 "fill:none;stroke:#000000;stroke-linecap:round;stroke-linejoin:round;">
	<!ENTITY st1 "fill:none;stroke:#000000;stroke-width:0.6;stroke-linecap:round;stroke-linejoin:round;">
	<!ENTITY st2 "font-size:6px;">
	<!ENTITY st3 "font-family:'Arial';">
	<!ATTLIST svg
		ewd:ver CDATA #IMPLIED
		xmlns:ewd CDATA #FIXED "http://shcl.co.jp/ewd"
		xmlns:a CDATA #FIXED "http://ns.adobe.com/AdobeSVGViewerExtensions/3.0/">
	<!ATTLIST g
		ewd:pinNo CDATA #IMPLIED>
	<!ATTLIST text
		ewd:textID CDATA #IMPLIED
		ewd:horAlign CDATA #IMPLIED>
	<!ATTLIST title
		ewd:textID CDATA #IMPLIED>
]>
<svg ewd:ver="2.1.2.6F" height="60.185" onload="call_execInitLoadProc_svg('connector')" style="overflow:visible;enable-background:new 0 0 94.484 60.185" viewBox="0 0 94.484 60.185" width="94.484" xml:space="preserve" xmlns="&ns_svg;" xmlns:ewd="http://shcl.co.jp/ewd" xmlns:a="http://ns.adobe.com/AdobeSVGViewerExtensions/3.0/" xmlns:xlink="&ns_xlink;">
<script type="text/javascript" xlink:href="../../../../../system/js/ewd/fig/svgfig.js" xmlns:xlink="http://www.w3.org/1999/xlink" />
<g id="レイヤー_1">
	<path d="M67.435,9.43c-14.19-0.607-26.195-0.607-40.385,0" style="&st1;" />
	<path d="M68.489,53.43c6.823-1.935,11.333-7.899,11.333-14.992" style="&st0;" />
	<path d="M64.239,49.77c6.258,0,11.332-5.074,11.332-11.332" style="&st1;" />
	<path d="M27.049,9.43c-4.563,0.195-8.138,3.925-8.138,8.493" style="&st1;" />
	<path d="M27.049,45.396c1.124,0.048,2.072,0.085,3.196,0.126" style="&st1;" />
	<path d="M18.914,36.902c0,4.566,3.574,8.296,8.136,8.491" style="&st1;" />
	<path d="M75.571,17.922c0-4.566-3.574-8.296-8.136-8.491" style="&st1;" />
	<path d="M64.239,45.52c1.124-0.041,2.072-0.078,3.195-0.126" style="&st1;" />
	<path d="M67.435,45.396c4.563-0.195,8.138-3.926,8.138-8.493" style="&st1;" />
	<path d="M30.245,0.5c-8.605,0-15.581,6.976-15.581,15.581" style="&st0;" />
	<path d="M30.245,4.75c-6.258,0-11.332,5.073-11.332,11.332" style="&st1;" />
	<path d="M14.664,38.438c0,7.092,4.509,13.056,11.332,14.99" style="&st0;" />
	<path d="M18.914,38.438c0,6.258,5.073,11.332,11.332,11.332" style="&st1;" />
	<path d="M79.82,16.081C79.82,7.476,72.844,0.5,64.239,0.5" style="&st0;" />
	<path d="M75.571,16.081c0-6.258-5.073-11.332-11.332-11.332" style="&st1;" />
	<path d="M68.489,53.43v6.255" style="&st0;" />
	<path d="M62.823,54.019v5.666" style="&st0;" />
	<path d="M68.489,59.685h-5.666" style="&st0;" />
	<path d="M24.579,14.665h45.326" style="&st1;" />
	<path d="M24.579,31.662h45.326" style="&st1;" />
	<path d="M47.242,14.665v16.997" style="&st1;" />
	<path d="M24.579,14.665v16.997" style="&st1;" />
	<path d="M69.905,14.665v16.997" style="&st1;" />
	<path d="M93.984,34.495H79.82" style="&st0;" />
	<path d="M79.82,16.081v1.417" style="&st0;" />
	<path d="M18.914,16.081v22.357" style="&st1;" />
	<path d="M75.571,17.922v18.98" style="&st1;" />
	<path d="M8.999,17.498v4.249" style="&st0;" />
	<path d="M8.999,17.498h5.666" style="&st0;" />
	<path d="M79.82,34.495v3.943" style="&st0;" />
	<path d="M75.571,16.081v22.357" style="&st1;" />
	<path d="M85.486,21.747h-2.833L79.82,24.58" style="&st1;" />
	<path d="M85.486,17.498H79.82" style="&st0;" />
	<path d="M8.999,21.747h2.833l2.833,2.833" style="&st1;" />
	<path d="M0.5,21.747h8.499" style="&st0;" />
	<path d="M30.245,45.52v2.833" style="&st1;" />
	<path d="M0.5,21.747v12.748" style="&st0;" />
	<path d="M30.245,48.353h33.994" style="&st1;" />
	<path d="M85.486,17.498v4.249" style="&st0;" />
	<path d="M93.984,21.747h-8.499" style="&st0;" />
	<path d="M30.245,4.75h33.994" style="&st1;" />
	<path d="M30.245,49.77h33.994" style="&st1;" />
	<path d="M14.664,34.495v3.943" style="&st0;" />
	<path d="M14.664,16.081v1.417" style="&st0;" />
	<path d="M30.245,0.5h33.994" style="&st0;" />
	<path d="M64.239,45.52v2.833" style="&st1;" />
	<path d="M14.664,17.498v16.997" style="&st1;" />
	<path d="M93.984,21.747v12.748" style="&st0;" />
	<path d="M31.662,54.019h31.161" style="&st0;" />
	<path d="M0.5,34.495h14.164" style="&st0;" />
	<path d="M79.82,17.498v16.997" style="&st1;" />
	<path d="M25.996,53.43v6.255" style="&st0;" />
	<path d="M31.662,54.019v5.666" style="&st0;" />
	<path d="M25.996,59.685h5.666" style="&st0;" />
	<g ewd:pinNo="2">
		<text transform="matrix(1 0 0 1 34.2031 25.4248)"><tspan style="&st3; &st2;" x="0" y="0">2</tspan></text>
	</g>
	<g ewd:pinNo="1">
		<text transform="matrix(1 0 0 1 56.8657 25.4248)"><tspan style="&st3; &st2;" x="0" y="0">1</tspan></text>
	</g>
</g>
</svg>