<?xml version="1.0" encoding="utf-8"?>
<!-- Generator: Adobe Illustrator 10.0, SVG Export Plug-In . SVG Version: 3.0.0 Build 77)  -->
<!DOCTYPE svg PUBLIC "-//W3C//DTD SVG 1.0//EN" "http://www.w3.org/TR/2001/REC-SVG-20010904/DTD/svg10.dtd"[
	<!ENTITY ns_flows "http://ns.adobe.com/Flows/1.0/">
	<!ENTITY ns_svg "http://www.w3.org/2000/svg">
	<!ENTITY ns_xlink "http://www.w3.org/1999/xlink">
	<!ENTITY st0 "fill:none;stroke:#000000;stroke-linecap:round;stroke-linejoin:round;">
	<!ENTITY st1 "fill:none;stroke:#000000;stroke-width:0.6;stroke-linecap:round;stroke-linejoin:round;">
	<!ENTITY st2 "font-size:6px;">
	<!ENTITY st3 "font-family:'Arial';">
	<!ATTLIST svg
		ewd:ver CDATA #IMPLIED
		xmlns:ewd CDATA #FIXED "http://shcl.co.jp/ewd"
		xmlns:a CDATA #FIXED "http://ns.adobe.com/AdobeSVGViewerExtensions/3.0/">
	<!ATTLIST g
		ewd:pinNo CDATA #IMPLIED>
	<!ATTLIST text
		ewd:textID CDATA #IMPLIED
		ewd:horAlign CDATA #IMPLIED>
	<!ATTLIST title
		ewd:textID CDATA #IMPLIED>
]>
<svg ewd:ver="2.1.2.6F" height="28.196" onload="call_execInitLoadProc_svg('connector')" style="overflow:visible;enable-background:new 0 0 54.171 28.196" viewBox="0 0 54.171 28.196" width="54.171" xml:space="preserve" xmlns="&ns_svg;" xmlns:ewd="http://shcl.co.jp/ewd" xmlns:a="http://ns.adobe.com/AdobeSVGViewerExtensions/3.0/" xmlns:xlink="&ns_xlink;">
<script type="text/javascript" xlink:href="../../../../../system/js/ewd/fig/svgfig.js" xmlns:xlink="http://www.w3.org/1999/xlink" />
<g id="レイヤー_1">
	<path d="M0.5,4.041v20.113" style="&st0;" />
	<path d="M1.916,4.041v20.113" style="&st1;" />
	<path d="M34.565,17.639h1.275" style="&st1;" />
	<path d="M33.432,8.551v7.955" style="&st1;" />
	<path d="M36.973,8.551v7.955" style="&st1;" />
	<path d="M52.112,11.974h1.422" style="&st1;" />
	<path d="M52.112,16.223h1.422" style="&st1;" />
	<path d="M4.041,6.308v15.581" style="&st1;" />
	<path d="M5.458,5.458v17.281" style="&st1;" />
	<path d="M6.308,21.322h9.759" style="&st1;" />
	<path d="M6.308,6.874h9.759" style="&st1;" />
	<path d="M9.707,9.141v9.915" style="&st1;" />
	<path d="M5.458,9.141h14.753" style="&st1;" />
	<path d="M5.458,19.056h14.773" style="&st1;" />
	<path d="M4.041,0.5h31.162" style="&st0;" />
	<path d="M4.041,27.696h31.162" style="&st0;" />
	<path d="M18.191,0.5v3.805" style="&st1;" />
	<path d="M18.191,23.891v3.805" style="&st1;" />
	<path d="M13.233,6.874v2.267" style="&st1;" />
	<path d="M13.233,19.056v2.266" style="&st1;" />
	<path d="M22.401,9.169c-0.934,3.382-0.934,6.476,0,9.858" style="&st1;" />
	<path d="M48.004,19.027c0.934-3.382,0.934-6.477,0-9.858" style="&st1;" />
	<path d="M45.417,6.667c-1.839-0.441-3.415-0.719-5.294-0.931" style="&st1;" />
	<path d="M24.987,21.529c7.05,1.692,13.381,1.692,20.43,0" style="&st1;" />
	<path d="M45.417,21.529c1.291-0.31,2.233-1.223,2.586-2.502" style="&st1;" />
	<path d="M24.987,6.667c-1.291,0.311-2.233,1.223-2.585,2.502" style="&st1;" />
	<path d="M22.401,19.027c0.353,1.279,1.295,2.192,2.586,2.502" style="&st1;" />
	<path d="M48.004,9.169c-0.352-1.28-1.295-2.192-2.586-2.502" style="&st1;" />
	<path d="M30.282,5.735c-1.879,0.213-3.456,0.49-5.295,0.932" style="&st1;" />
	<path d="M40.123,5.735c-1.555-0.175-2.958,0.943-3.133,2.499" style="&st1;" />
	<path d="M36.99,8.234c-0.013,0.111-0.018,0.206-0.018,0.317" style="&st1;" />
	<path d="M33.432,8.551c0-1.564-1.269-2.833-2.833-2.833" style="&st1;" />
	<path d="M30.599,5.718c-0.112,0-0.206,0.005-0.317,0.018" style="&st1;" />
	<path d="M35.84,17.639c0.626,0,1.133-0.507,1.133-1.133" style="&st1;" />
	<path d="M33.432,16.506c0,0.626,0.507,1.133,1.133,1.133" style="&st1;" />
	<path d="M4.891,5.458c-0.469,0-0.85,0.38-0.85,0.85" style="&st1;" />
	<path d="M4.041,21.888c0,0.47,0.38,0.85,0.85,0.85" style="&st1;" />
	<path d="M5.458,20.472c0,0.469,0.38,0.85,0.85,0.85" style="&st1;" />
	<path d="M6.308,6.874c-0.47,0-0.85,0.381-0.85,0.85" style="&st1;" />
	<path d="M45.919,4.603c-7.394-1.776-14.033-1.777-21.427-0.002" style="&st1;" />
	<path d="M50.052,19.594c1.041-3.771,1.041-7.221,0-10.991" style="&st1;" />
	<path d="M50.052,8.603c-0.565-2.047-2.074-3.507-4.139-4.002" style="&st1;" />
	<path d="M45.914,23.597c2.065-0.496,3.574-1.956,4.139-4.003" style="&st1;" />
	<path d="M24.491,23.597c7.392,1.774,14.03,1.774,21.422,0" style="&st1;" />
	<path d="M20.353,19.594c0.565,2.047,2.074,3.506,4.139,4.002" style="&st1;" />
	<path d="M20.353,8.603c-1.041,3.771-1.041,7.221,0,10.991" style="&st1;" />
	<path d="M24.491,4.6c-2.064,0.496-3.574,1.955-4.139,4.002" style="&st1;" />
	<path d="M46.25,3.226c-7.622-1.831-14.468-1.832-22.09-0.001" style="&st1;" />
	<path d="M51.417,8.226c-0.706-2.559-2.592-4.383-5.172-5.003" style="&st1;" />
	<path d="M51.417,19.97c1.112-4.029,1.112-7.716,0-11.745" style="&st1;" />
	<path d="M46.245,24.974c2.581-0.62,4.467-2.445,5.173-5.003" style="&st1;" />
	<path d="M24.16,24.974c7.621,1.829,14.464,1.829,22.085,0" style="&st1;" />
	<path d="M52.783,20.347c1.184-4.288,1.184-8.211,0-12.499" style="&st0;" />
	<path d="M52.783,7.849c-0.847-3.07-3.112-5.26-6.209-6.003" style="&st0;" />
	<path d="M46.582,1.849c-3.926-0.943-7.341-1.348-11.379-1.348" style="&st0;" />
	<path d="M35.203,27.696c4.035,0,7.447-0.404,11.371-1.346" style="&st0;" />
	<path d="M46.574,26.35c3.097-0.743,5.361-2.933,6.208-6.003" style="&st0;" />
	<path d="M4.041,0.5C2.085,0.5,0.5,2.086,0.5,4.041" style="&st0;" />
	<path d="M0.5,24.154c0,1.956,1.585,3.542,3.541,3.542" style="&st0;" />
	<path d="M4.041,1.917c-1.173,0-2.125,0.952-2.125,2.125" style="&st1;" />
	<path d="M1.916,24.154c0,1.174,0.952,2.125,2.125,2.125" style="&st1;" />
	<path d="M24.16,3.223c-1.412,0.339-2.526,0.988-3.519,2.048" style="&st1;" />
	<path d="M20.642,22.925c0.992,1.061,2.106,1.71,3.519,2.049" style="&st1;" />
	<path d="M18.191,4.305c0,0.782,0.634,1.417,1.417,1.417" style="&st1;" />
	<path d="M19.607,5.721c0.408,0,0.757-0.151,1.035-0.45" style="&st1;" />
	<path d="M20.642,22.925c-0.534-0.571-1.429-0.601-2-0.067" style="&st1;" />
	<path d="M18.642,22.857c-0.298,0.278-0.449,0.626-0.449,1.034" style="&st1;" />
	<path d="M18.03,9.141c-0.765,3.43-0.765,6.485,0,9.915" style="&st1;" />
	<path d="M32.016,8.432h-7.383v11.332h7.383V8.432" style="&st1;" />
	<path d="M45.772,8.432H38.39v11.332h7.382V8.432" style="&st1;" />
	<path d="M1.208,1.917H14.65V0.5" style="&st1;" />
	<path d="M4.891,5.458h11.176v17.281H4.891" style="&st1;" />
	<path d="M1.208,26.279H14.65v1.417" style="&st1;" />
	<g ewd:pinNo="1">
		<text transform="matrix(1 0 0 1 26.8872 15.9243)"><tspan style="&st3; &st2;" x="0" y="0">1</tspan></text>
	</g>
	<g ewd:pinNo="2">
		<text transform="matrix(1 0 0 1 40.6436 15.9243)"><tspan style="&st3; &st2;" x="0" y="0">2</tspan></text>
	</g>
</g>
</svg>