<?xml version="1.0" encoding="utf-8"?>
<!-- Generator: Adobe Illustrator 10.0, SVG Export Plug-In . SVG Version: 3.0.0 Build 77)  -->
<!DOCTYPE svg PUBLIC "-//W3C//DTD SVG 1.0//EN" "http://www.w3.org/TR/2001/REC-SVG-20010904/DTD/svg10.dtd"[
	<!ENTITY ns_flows "http://ns.adobe.com/Flows/1.0/">
	<!ENTITY ns_svg "http://www.w3.org/2000/svg">
	<!ENTITY ns_xlink "http://www.w3.org/1999/xlink">
	<!ENTITY st0 "fill:none;stroke:#000000;stroke-linecap:round;stroke-linejoin:round;">
	<!ENTITY st1 "fill:none;stroke:#000000;stroke-width:0.6;stroke-linecap:round;stroke-linejoin:round;">
	<!ENTITY st2 "font-size:6px;">
	<!ENTITY st3 "font-family:'Arial';">
	<!ATTLIST svg
		ewd:ver CDATA #IMPLIED
		xmlns:ewd CDATA #FIXED "http://shcl.co.jp/ewd"
		xmlns:a CDATA #FIXED "http://ns.adobe.com/AdobeSVGViewerExtensions/3.0/">
	<!ATTLIST g
		ewd:pinNo CDATA #IMPLIED>
	<!ATTLIST text
		ewd:textID CDATA #IMPLIED
		ewd:horAlign CDATA #IMPLIED>
	<!ATTLIST title
		ewd:textID CDATA #IMPLIED>
]>
<svg ewd:ver="2.1.2.6F" height="85.544" onload="call_execInitLoadProc_svg('connector')" style="overflow:visible;enable-background:new 0 0 46.892 85.544" viewBox="0 0 46.892 85.544" width="46.892" xml:space="preserve" xmlns="&ns_svg;" xmlns:ewd="http://shcl.co.jp/ewd" xmlns:a="http://ns.adobe.com/AdobeSVGViewerExtensions/3.0/" xmlns:xlink="&ns_xlink;">
<script type="text/javascript" xlink:href="../../../../../system/js/ewd/fig/svgfig.js" xmlns:xlink="http://www.w3.org/1999/xlink" />
<g id="レイヤー_1">
	<path d="M42.491,82.514c2.373-0.778,3.9-2.885,3.9-5.382" style="&st0;" />
	<path d="M44.976,72.738c0.783,0,1.417-0.634,1.417-1.417" style="&st1;" />
	<path d="M0.5,71.322c0,0.782,0.634,1.417,1.416,1.417" style="&st1;" />
	<path d="M0.5,77.132c0,2.498,1.527,4.605,3.9,5.384" style="&st0;" />
	<path d="M28.404,4.75c0-0.782-0.634-1.417-1.417-1.417" style="&st0;" />
	<path d="M19.905,3.333c-0.782,0-1.416,0.634-1.416,1.417" style="&st0;" />
	<path d="M0.5,0.5v76.632" style="&st0;" />
	<path d="M2.2,66.506l4.25,4.249" style="&st1;" />
	<path d="M2.2,27.413v39.093" style="&st1;" />
	<path d="M6.449,30.245v42.493" style="&st1;" />
	<path d="M6.449,30.245h33.994" style="&st1;" />
	<path d="M6.449,44.41h33.994" style="&st1;" />
	<path d="M6.449,58.574h33.994" style="&st1;" />
	<path d="M17.78,30.245v42.493" style="&st1;" />
	<path d="M40.443,30.245v42.493" style="&st1;" />
	<path d="M29.112,30.245v42.493" style="&st1;" />
	<path d="M6.449,72.738h33.994" style="&st1;" />
	<path d="M1.916,72.738h4.533" style="&st1;" />
	<path d="M5.032,24.58L2.2,27.413" style="&st1;" />
	<path d="M10.698,7.583V24.58" style="&st0;" />
	<path d="M36.194,7.583V24.58" style="&st0;" />
	<path d="M10.698,16.081h25.496" style="&st1;" />
	<path d="M0.5,66.506h1.7" style="&st1;" />
	<path d="M4.4,82.514l7.714,2.53" style="&st0;" />
	<path d="M42.491,82.514l-7.714,2.53" style="&st0;" />
	<path d="M43.56,24.58l2.833,2.833" style="&st1;" />
	<path d="M3.333,24.58L0.5,27.413" style="&st1;" />
	<path d="M0.5,27.413h1.7" style="&st1;" />
	<path d="M46.392,27.413h-1.7" style="&st1;" />
	<path d="M46.392,66.506h-1.7" style="&st1;" />
	<path d="M3.333,24.58h4.533" style="&st1;" />
	<path d="M5.032,72.738v5.666" style="&st1;" />
	<path d="M41.86,72.738v5.666" style="&st1;" />
	<path d="M46.392,0.5v76.632" style="&st0;" />
	<path d="M44.692,66.506l-4.249,4.249" style="&st1;" />
	<path d="M44.692,27.413v39.093" style="&st1;" />
	<path d="M44.976,72.738h-4.532" style="&st1;" />
	<path d="M41.86,24.58l2.833,2.833" style="&st1;" />
	<path d="M5.032,78.404H41.86" style="&st1;" />
	<path d="M18.489,7.583l2.833,1.983" style="&st1;" />
	<path d="M28.404,7.583l-2.833,1.983" style="&st1;" />
	<path d="M17.072,9.565H29.82" style="&st1;" />
	<path d="M10.698,7.583h7.791" style="&st0;" />
	<path d="M28.404,7.583h7.79" style="&st0;" />
	<path d="M18.489,4.75v2.833" style="&st0;" />
	<path d="M28.404,4.75v2.833" style="&st0;" />
	<path d="M19.905,3.333h7.083" style="&st0;" />
	<path d="M15.656,0.5v2.833" style="&st0;" />
	<path d="M7.865,24.58h2.833" style="&st0;" />
	<path d="M7.865,3.333h7.791" style="&st0;" />
	<path d="M39.027,24.58h-2.833" style="&st0;" />
	<path d="M7.865,3.333V24.58" style="&st0;" />
	<path d="M43.56,24.58h-4.533" style="&st1;" />
	<path d="M0.5,0.5h15.156" style="&st0;" />
	<path d="M44.692,0.5v25.212" style="&st1;" />
	<path d="M2.2,0.5v25.212" style="&st1;" />
	<path d="M46.392,0.5H31.236" style="&st0;" />
	<path d="M39.027,3.333V24.58" style="&st0;" />
	<path d="M39.027,3.333h-7.791" style="&st0;" />
	<path d="M31.236,0.5v2.833" style="&st0;" />
	<path d="M12.115,85.044h22.663" style="&st0;" />
	<path d="M7.016,72.738v3.399h9.773v-3.399" style="&st1;" />
	<path d="M39.877,72.738v3.399h-9.773v-3.399" style="&st1;" />
	<path d="M18.772,72.738v3.399h9.348v-3.399" style="&st1;" />
	<path d="M17.072,9.565v6.516" style="&st1;" />
	<path d="M29.82,9.565v6.516" style="&st1;" />
	<g ewd:pinNo="1">
		<text transform="matrix(1 0 0 1 10.3633 39.7598)"><tspan style="&st3; &st2;" x="0" y="0">1</tspan></text>
	</g>
	<g ewd:pinNo="2">
		<text transform="matrix(1 0 0 1 21.6948 39.7598)"><tspan style="&st3; &st2;" x="0" y="0">2</tspan></text>
	</g>
	<g ewd:pinNo="3">
		<text transform="matrix(1 0 0 1 33.0264 39.7598)"><tspan style="&st3; &st2;" x="0" y="0">3</tspan></text>
	</g>
	<g ewd:pinNo="4">
		<text transform="matrix(1 0 0 1 10.3633 53.9238)"><tspan style="&st3; &st2;" x="0" y="0">4</tspan></text>
	</g>
	<g ewd:pinNo="5">
		<text transform="matrix(1 0 0 1 21.6948 53.9238)"><tspan style="&st3; &st2;" x="0" y="0">5</tspan></text>
	</g>
	<g ewd:pinNo="6">
		<text transform="matrix(1 0 0 1 33.0264 53.9238)"><tspan style="&st3; &st2;" x="0" y="0">6</tspan></text>
	</g>
	<g ewd:pinNo="7">
		<text transform="matrix(1 0 0 1 10.3633 68.0879)"><tspan style="&st3; &st2;" x="0" y="0">7</tspan></text>
	</g>
	<g ewd:pinNo="8">
		<text transform="matrix(1 0 0 1 21.6948 68.0879)"><tspan style="&st3; &st2;" x="0" y="0">8</tspan></text>
	</g>
	<g ewd:pinNo="9">
		<text transform="matrix(1 0 0 1 33.0264 68.0879)"><tspan style="&st3; &st2;" x="0" y="0">9</tspan></text>
	</g>
</g>
</svg>