<?xml version="1.0" encoding="utf-8"?>
<!-- Generator: Adobe Illustrator 10.0, SVG Export Plug-In . SVG Version: 3.0.0 Build 77)  -->
<!DOCTYPE svg PUBLIC "-//W3C//DTD SVG 1.0//EN" "http://www.w3.org/TR/2001/REC-SVG-20010904/DTD/svg10.dtd"[
	<!ENTITY ns_flows "http://ns.adobe.com/Flows/1.0/">
	<!ENTITY ns_svg "http://www.w3.org/2000/svg">
	<!ENTITY ns_xlink "http://www.w3.org/1999/xlink">
	<!ENTITY st0 "fill:none;stroke:#000000;stroke-linecap:round;stroke-linejoin:round;">
	<!ENTITY st1 "fill:none;stroke:#000000;stroke-width:0.6;stroke-linecap:round;stroke-linejoin:round;">
	<!ENTITY st2 "font-size:6px;">
	<!ENTITY st3 "font-family:'Arial';">
	<!ATTLIST svg
		ewd:ver CDATA #IMPLIED
		xmlns:ewd CDATA #FIXED "http://shcl.co.jp/ewd"
		xmlns:a CDATA #FIXED "http://ns.adobe.com/AdobeSVGViewerExtensions/3.0/">
	<!ATTLIST g
		ewd:pinNo CDATA #IMPLIED>
	<!ATTLIST text
		ewd:textID CDATA #IMPLIED
		ewd:horAlign CDATA #IMPLIED>
	<!ATTLIST title
		ewd:textID CDATA #IMPLIED>
]>
<svg ewd:ver="2.1.2.6F" height="59.782" onload="call_execInitLoadProc_svg('connector')" style="overflow:visible;enable-background:new 0 0 81.736 59.782" viewBox="0 0 81.736 59.782" width="81.736" xml:space="preserve" xmlns="&ns_svg;" xmlns:ewd="http://shcl.co.jp/ewd" xmlns:a="http://ns.adobe.com/AdobeSVGViewerExtensions/3.0/" xmlns:xlink="&ns_xlink;">
<script type="text/javascript" xlink:href="../../../../../system/js/ewd/fig/svgfig.js" xmlns:xlink="http://www.w3.org/1999/xlink" />
<g id="レイヤー_1">
	<path d="M42.285,28.121V52.2" style="&st1;" />
	<path d="M52.2,28.121V52.2" style="&st1;" />
	<path d="M32.37,40.16h29.745" style="&st1;" />
	<path d="M62.115,37.186h15.581" style="&st1;" />
	<path d="M4.041,37.186h15.581" style="&st1;" />
	<path d="M81.236,20.472v32.72" style="&st0;" />
	<path d="M0.5,20.472v32.72" style="&st0;" />
	<path d="M28.829,25.43v10.623" style="&st1;" />
	<path d="M10.899,59.282h59.938" style="&st0;" />
	<path d="M62.115,10.132v7.791" style="&st0;" />
	<path d="M23.163,10.132v7.791" style="&st0;" />
	<path d="M63.531,19.339h16.572" style="&st0;" />
	<path d="M1.633,19.339h20.114" style="&st0;" />
	<path d="M26.704,18.206h31.87" style="&st1;" />
	<path d="M24.296,37.186h3.399" style="&st1;" />
	<path d="M24.296,42.143h3.399" style="&st1;" />
	<path d="M23.163,43.276v10.198" style="&st1;" />
	<path d="M28.829,43.276v10.198" style="&st1;" />
	<path d="M36.265,0.5h12.748" style="&st0;" />
	<path d="M34.14,12.54h16.997" style="&st1;" />
	<path d="M58.574,15.373h-31.87" style="&st1;" />
	<path d="M3.333,54.325h75.071" style="&st1;" />
	<path d="M7.016,57.157h67.705" style="&st1;" />
	<path d="M3.333,56.308c0,0.469,0.381,0.85,0.85,0.85" style="&st0;" />
	<path d="M77.554,57.157c0.469,0,0.85-0.38,0.85-0.85" style="&st0;" />
	<path d="M22.313,54.325c0.469,0,0.85-0.381,0.85-0.85" style="&st1;" />
	<path d="M28.829,53.475c0,0.469,0.38,0.85,0.85,0.85" style="&st1;" />
	<path d="M29.678,24.58c-0.469,0-0.85,0.38-0.85,0.85" style="&st1;" />
	<path d="M21.747,19.339c0.782,0,1.416-0.634,1.416-1.417" style="&st0;" />
	<path d="M62.115,17.922c0,0.782,0.634,1.417,1.417,1.417" style="&st0;" />
	<path d="M62.115,10.132c0-0.626-0.507-1.133-1.133-1.133" style="&st0;" />
	<path d="M24.296,8.999c-0.626,0-1.133,0.507-1.133,1.133" style="&st0;" />
	<path d="M26.704,10.132c0-0.626-0.508-1.133-1.133-1.133" style="&st1;" />
	<path d="M59.707,8.999c-0.625,0-1.133,0.507-1.133,1.133" style="&st1;" />
	<path d="M23.163,36.053c0,0.625,0.507,1.133,1.133,1.133" style="&st1;" />
	<path d="M27.695,37.186c0.626,0,1.133-0.507,1.133-1.133" style="&st1;" />
	<path d="M24.296,42.143c-0.626,0-1.133,0.507-1.133,1.133" style="&st1;" />
	<path d="M28.829,43.276c0-0.626-0.507-1.133-1.133-1.133" style="&st1;" />
	<path d="M36.265,0.5c-1.173,0-2.125,0.952-2.125,2.125" style="&st0;" />
	<path d="M51.137,2.625c0-1.173-0.951-2.125-2.125-2.125" style="&st0;" />
	<path d="M7.896,58.039c0.83,0.829,1.831,1.243,3.003,1.243" style="&st0;" />
	<path d="M70.837,59.282c1.173,0,2.174-0.415,3.003-1.243" style="&st0;" />
	<path d="M80.104,22.88c0.625,0,1.133-0.507,1.133-1.133" style="&st1;" />
	<path d="M81.236,51.917c0-0.625-0.507-1.133-1.133-1.133" style="&st1;" />
	<path d="M1.633,50.784c-0.625,0-1.133,0.507-1.133,1.133" style="&st1;" />
	<path d="M0.5,21.747c0,0.626,0.507,1.133,1.133,1.133" style="&st1;" />
	<path d="M1.633,19.339c-0.625,0-1.133,0.507-1.133,1.133" style="&st0;" />
	<path d="M0.5,53.191c0,0.626,0.507,1.133,1.133,1.133" style="&st0;" />
	<path d="M80.104,54.325c0.625,0,1.133-0.507,1.133-1.133" style="&st0;" />
	<path d="M81.236,20.472c0-0.625-0.507-1.133-1.133-1.133" style="&st0;" />
	<path d="M64.239,50.075H59.99v2.833h4.249V50.075" style="&st1;" />
	<path d="M58.574,10.132v16.572H32.37V24.58" style="&st1;" />
	<path d="M45.826,8.999V4.041h-6.374v4.958" style="&st1;" />
	<path d="M19.622,50.075V22.172" style="&st1;" />
	<path d="M64.239,52.2h13.456V22.172H62.115v27.903" style="&st1;" />
	<path d="M62.115,28.121H32.37V52.2H59.99" style="&st1;" />
	<path d="M58.574,24.58h-31.87V10.132" style="&st1;" />
	<path d="M21.038,50.075h-4.249v2.833h4.249V50.075" style="&st1;" />
	<path d="M19.622,22.172H4.041V52.2h12.748" style="&st1;" />
	<path d="M1.633,50.784h0.992V22.88H1.633" style="&st1;" />
	<path d="M80.104,50.784h-0.992V22.88h0.992" style="&st1;" />
	<path d="M26.704,19.339l-3.542,4.249v12.465" style="&st1;" />
	<path d="M3.333,56.308v-1.983h-1.7" style="&st0;" />
	<path d="M7.896,58.039l-0.881-0.881H4.183" style="&st0;" />
	<path d="M80.104,54.325h-1.7v1.983" style="&st0;" />
	<path d="M77.554,57.157h-2.833l-0.881,0.881" style="&st0;" />
	<path d="M24.296,8.999h9.844V2.625" style="&st0;" />
	<path d="M60.981,8.999h-9.844V2.625" style="&st0;" />
	<path d="M51.137,18.206V8.999H34.14v9.207" style="&st1;" />
	<g ewd:pinNo="1">
		<text transform="matrix(1 0 0 1 10.1509 32.1069)"><tspan style="&st3; &st2;" x="0" y="0">1</tspan></text>
	</g>
	<g ewd:pinNo="2">
		<text transform="matrix(1 0 0 1 35.647 36.5684)"><tspan style="&st3; &st2;" x="0" y="0">2</tspan></text>
	</g>
	<g ewd:pinNo="3">
		<text transform="matrix(1 0 0 1 45.562 36.5684)"><tspan style="&st3; &st2;" x="0" y="0">3</tspan></text>
	</g>
	<g ewd:pinNo="4">
		<text transform="matrix(1 0 0 1 55.4766 36.5684)"><tspan style="&st3; &st2;" x="0" y="0">4</tspan></text>
	</g>
	<g ewd:pinNo="5">
		<text transform="matrix(1 0 0 1 68.2246 32.1069)"><tspan style="&st3; &st2;" x="0" y="0">5</tspan></text>
	</g>
	<g ewd:pinNo="6">
		<text transform="matrix(1 0 0 1 10.1509 47.1211)"><tspan style="&st3; &st2;" x="0" y="0">6</tspan></text>
	</g>
	<g ewd:pinNo="7">
		<text transform="matrix(1 0 0 1 35.647 48.6084)"><tspan style="&st3; &st2;" x="0" y="0">7</tspan></text>
	</g>
	<g ewd:pinNo="8">
		<text transform="matrix(1 0 0 1 45.562 48.6084)"><tspan style="&st3; &st2;" x="0" y="0">8</tspan></text>
	</g>
	<g ewd:pinNo="9">
		<text transform="matrix(1 0 0 1 55.4766 48.6084)"><tspan style="&st3; &st2;" x="0" y="0">9</tspan></text>
	</g>
	<g ewd:pinNo="10">
		<text transform="matrix(1 0 0 1 66.4805 47.1211)"><tspan style="&st3; &st2;" x="0" y="0">10</tspan></text>
	</g>
</g>
</svg>