<?xml version="1.0" encoding="utf-8"?>
<!-- Generator: Adobe Illustrator 10.0, SVG Export Plug-In . SVG Version: 3.0.0 Build 77)  -->
<!DOCTYPE svg PUBLIC "-//W3C//DTD SVG 1.0//EN" "http://www.w3.org/TR/2001/REC-SVG-20010904/DTD/svg10.dtd"[
	<!ENTITY ns_flows "http://ns.adobe.com/Flows/1.0/">
	<!ENTITY ns_svg "http://www.w3.org/2000/svg">
	<!ENTITY ns_xlink "http://www.w3.org/1999/xlink">
	<!ENTITY st0 "fill:none;stroke:#000000;stroke-linecap:round;stroke-linejoin:round;">
	<!ENTITY st1 "fill:none;stroke:#000000;stroke-width:0.6;stroke-linecap:round;stroke-linejoin:round;">
	<!ENTITY st2 "font-size:6px;">
	<!ENTITY st3 "font-family:'Arial';">
	<!ATTLIST svg
		ewd:ver CDATA #IMPLIED
		xmlns:ewd CDATA #FIXED "http://shcl.co.jp/ewd"
		xmlns:a CDATA #FIXED "http://ns.adobe.com/AdobeSVGViewerExtensions/3.0/">
	<!ATTLIST g
		ewd:pinNo CDATA #IMPLIED>
	<!ATTLIST text
		ewd:textID CDATA #IMPLIED
		ewd:horAlign CDATA #IMPLIED>
	<!ATTLIST title
		ewd:textID CDATA #IMPLIED>
]>
<svg ewd:ver="2.1.2.6F" height="61.907" onload="call_execInitLoadProc_svg('connector')" style="overflow:visible;enable-background:new 0 0 46.326 61.907" viewBox="0 0 46.326 61.907" width="46.326" xml:space="preserve" xmlns="&ns_svg;" xmlns:ewd="http://shcl.co.jp/ewd" xmlns:a="http://ns.adobe.com/AdobeSVGViewerExtensions/3.0/" xmlns:xlink="&ns_xlink;">
<script type="text/javascript" xlink:href="../../../../../system/js/ewd/fig/svgfig.js" xmlns:xlink="http://www.w3.org/1999/xlink" />
<g id="レイヤー_1">
	<path d="M7.299,2.483c0-1.095-0.888-1.983-1.983-1.983" style="&st0;" />
	<path d="M2.483,0.5C1.388,0.5,0.5,1.388,0.5,2.483" style="&st0;" />
	<path d="M41.01,0.5c-1.095,0-1.983,0.888-1.983,1.983" style="&st0;" />
	<path d="M45.826,2.483c0-1.095-0.888-1.983-1.983-1.983" style="&st0;" />
	<path d="M0.5,54.03c0,2.693,1.807,4.946,4.436,5.531" style="&st0;" />
	<path d="M41.39,59.56c2.628-0.584,4.435-2.837,4.435-5.53" style="&st0;" />
	<path d="M3.333,27.413v22.663h39.66V27.413H3.333" style="&st1;" />
	<path d="M3.333,38.744h39.66" style="&st1;" />
	<path d="M13.248,50.075V27.413" style="&st1;" />
	<path d="M23.163,50.075V27.413" style="&st1;" />
	<path d="M33.078,50.075V27.413" style="&st1;" />
	<path d="M2.766,24.58V0.5" style="&st1;" />
	<path d="M0.5,54.03V2.483" style="&st0;" />
	<path d="M2.483,0.5h2.833" style="&st0;" />
	<path d="M7.299,2.483V24.58" style="&st0;" />
	<path d="M7.299,24.58h3.116" style="&st0;" />
	<path d="M2.766,3.333h2.266V24.58" style="&st1;" />
	<path d="M10.415,24.58V5.6l7.082-1.983h5.666" style="&st0;" />
	<path d="M10.415,7.583h12.748" style="&st1;" />
	<path d="M10.415,13.814h12.748" style="&st1;" />
	<path d="M17.497,13.814V9.565h5.666" style="&st1;" />
	<path d="M10.415,11.832h7.082" style="&st1;" />
	<path d="M0.5,50.075l2.833,2.833h39.66" style="&st1;" />
	<path d="M43.56,24.58V0.5" style="&st1;" />
	<path d="M45.826,54.03V2.483" style="&st0;" />
	<path d="M43.843,0.5H41.01" style="&st0;" />
	<path d="M39.027,2.483V24.58" style="&st0;" />
	<path d="M39.027,24.58h-3.116" style="&st0;" />
	<path d="M43.56,3.333h-2.267V24.58" style="&st1;" />
	<path d="M35.911,24.58V5.6l-7.082-1.983h-5.666" style="&st0;" />
	<path d="M35.911,7.583H23.163" style="&st1;" />
	<path d="M35.911,13.814H23.163" style="&st1;" />
	<path d="M28.829,13.814V9.565h-5.666" style="&st1;" />
	<path d="M35.911,11.832h-7.082" style="&st1;" />
	<path d="M42.993,52.908l2.833-2.833" style="&st1;" />
	<path d="M0.5,26.846l2.266-2.266h4.533" style="&st1;" />
	<path d="M45.826,26.846L43.56,24.58h-4.533" style="&st1;" />
	<path d="M4.937,59.56l8.312,1.847" style="&st0;" />
	<path d="M13.248,52.908v4.249h19.83v-4.249" style="&st1;" />
	<path d="M33.078,61.407l8.312-1.847" style="&st0;" />
	<path d="M13.248,61.407h19.83" style="&st0;" />
	<path d="M1.443,57.157h3.306v-4.249" style="&st1;" />
	<path d="M33.078,55.033h8.499" style="&st1;" />
	<path d="M44.882,57.157h-3.306v-4.249" style="&st1;" />
	<path d="M4.749,55.033h8.499" style="&st1;" />
	<g ewd:pinNo="8">
		<text transform="matrix(1 0 0 1 36.3916 46.6494)"><tspan style="&st3; &st2;" x="0" y="0">8</tspan></text>
	</g>
	<g ewd:pinNo="7">
		<text transform="matrix(1 0 0 1 26.4766 46.6494)"><tspan style="&st3; &st2;" x="0" y="0">7</tspan></text>
	</g>
	<g ewd:pinNo="6">
		<text transform="matrix(1 0 0 1 16.5615 46.6494)"><tspan style="&st3; &st2;" x="0" y="0">6</tspan></text>
	</g>
	<g ewd:pinNo="5">
		<text transform="matrix(1 0 0 1 6.6465 46.6494)"><tspan style="&st3; &st2;" x="0" y="0">5</tspan></text>
	</g>
	<g ewd:pinNo="4">
		<text transform="matrix(1 0 0 1 36.3916 35.3179)"><tspan style="&st3; &st2;" x="0" y="0">4</tspan></text>
	</g>
	<g ewd:pinNo="3">
		<text transform="matrix(1 0 0 1 26.4766 35.3179)"><tspan style="&st3; &st2;" x="0" y="0">3</tspan></text>
	</g>
	<g ewd:pinNo="1">
		<text transform="matrix(1 0 0 1 6.6465 35.3179)"><tspan style="&st3; &st2;" x="0" y="0">1</tspan></text>
	</g>
	<g ewd:pinNo="2">
		<text transform="matrix(1 0 0 1 16.5615 35.3179)"><tspan style="&st3; &st2;" x="0" y="0">2</tspan></text>
	</g>
</g>
</svg>