<?xml version="1.0" encoding="utf-8"?>
<!-- Generator: Adobe Illustrator 10.0, SVG Export Plug-In . SVG Version: 3.0.0 Build 77)  -->
<!DOCTYPE svg PUBLIC "-//W3C//DTD SVG 1.0//EN" "http://www.w3.org/TR/2001/REC-SVG-20010904/DTD/svg10.dtd"[
	<!ENTITY ns_flows "http://ns.adobe.com/Flows/1.0/">
	<!ENTITY ns_svg "http://www.w3.org/2000/svg">
	<!ENTITY ns_xlink "http://www.w3.org/1999/xlink">
	<!ENTITY st0 "fill:none;">
	<!ENTITY st1 "stroke:#000000;">
	<!ENTITY st2 "stroke-linecap:round;">
	<!ENTITY st3 "stroke-linejoin:round;">
	<!ENTITY st4 "stroke-width:0.6;">
	<!ENTITY st5 "font-size:6px;">
	<!ENTITY st6 "font-family:'Arial';">
	<!ENTITY st7 "stroke-width:1.4;">
	<!ATTLIST svg
		ewd:ver CDATA #IMPLIED
		xmlns:ewd CDATA #FIXED "http://shcl.co.jp/ewd"
		xmlns:a CDATA #FIXED "http://ns.adobe.com/AdobeSVGViewerExtensions/3.0/">
	<!ATTLIST g
		ewd:pinNo CDATA #IMPLIED>
	<!ATTLIST text
		ewd:textID CDATA #IMPLIED
		ewd:horAlign CDATA #IMPLIED>
	<!ATTLIST title
		ewd:textID CDATA #IMPLIED>
]>
<svg ewd:ver="2.1.2.6F" height="97.326" onload="call_execInitLoadProc_svg('connector')" style="overflow:visible;enable-background:new 0 0 121.397 69.932" viewBox="0 0 279.632 97.326" width="279.632" xml:space="preserve" xmlns="&ns_svg;" xmlns:ewd="http://shcl.co.jp/ewd" xmlns:a="http://ns.adobe.com/AdobeSVGViewerExtensions/3.0/" xmlns:xlink="&ns_xlink;">
<script type="text/javascript" xlink:href="../../../../../system/js/ewd/fig/svgfig.js" xmlns:xlink="http://www.w3.org/1999/xlink" />
<g id="レイヤー_1" transform="translate(0,17.008)">
	<path d="M97.786,69.432c1.757,0,3.252-0.453,4.714-1.427" style="&st0;&st1;&st2;&st3;" />
	<path d="M18.896,68.004c1.462,0.975,2.957,1.427,4.714,1.427" style="&st0;&st1;&st2;&st3;" />
	<path d="M97.29,3.333c0-1.564-1.268-2.833-2.833-2.833" style="&st0;&st1;&st4;&st2;&st3;" />
	<path d="M26.939,0.5c-1.564,0-2.833,1.269-2.833,2.833" style="&st0;&st1;&st4;&st2;&st3;" />
	<path d="M89.735,8.999c0-1.564-1.268-2.833-2.833-2.833" style="&st0;&st1;&st4;&st2;&st3;" />
	<path d="M0.5,60.834c0,0.979,0.446,1.813,1.261,2.356" style="&st0;&st1;&st2;&st3;" />
	<path d="M34.494,6.166c-1.564,0-2.833,1.269-2.833,2.833" style="&st0;&st1;&st4;&st2;&st3;" />
	<path d="M119.636,63.191c0.814-0.543,1.261-1.378,1.261-2.357" style="&st0;&st1;&st2;&st3;" />
	<path d="M116.061,1.33c-0.553-0.553-1.221-0.83-2.003-0.83" style="&st0;&st1;&st2;&st3;" />
	<path d="M120.896,7.339c0-0.782-0.276-1.45-0.83-2.003" style="&st0;&st1;&st2;&st3;" />
	<path d="M7.338,0.5c-0.782,0-1.45,0.277-2.003,0.83" style="&st0;&st1;&st2;&st3;" />
	<path d="M1.33,5.336C0.777,5.889,0.5,6.557,0.5,7.339" style="&st0;&st1;&st2;&st3;" />
	<path d="M23.61,69.432h74.176" style="&st0;&st1;&st2;&st3;" />
	<path d="M0.5,59.517h120.396" style="&st0;&st1;&st4;&st2;&st3;" />
	<path d="M6.166,31.188v25.496h109.065V31.188H6.166" style="&st0;&st1;&st4;&st2;&st3;" />
	<path d="M45.826,56.685V31.188" style="&st0;&st1;&st4;&st2;&st3;" />
	<path d="M55.741,56.685V31.188" style="&st0;&st1;&st4;&st2;&st3;" />
	<path d="M65.656,56.685V31.188" style="&st0;&st1;&st4;&st2;&st3;" />
	<path d="M75.571,56.685V31.188" style="&st0;&st1;&st4;&st2;&st3;" />
	<path d="M102.5,68.004l17.136-4.813" style="&st0;&st1;&st2;&st3;" />
	<path d="M18.896,68.004L1.761,63.191" style="&st0;&st1;&st2;&st3;" />
	<path d="M6.166,25.523h32.578v-9.915h43.909v9.915h32.578" style="&st0;&st1;&st4;&st2;&st3;" />
	<path d="M0.5,17.498l1.89-1.89h1.886l1.89,1.89v8.025" style="&st0;&st1;&st4;&st2;&st3;" />
	<path d="M120.896,17.498l-1.89-1.89h-1.887l-1.889,1.89v8.025" style="&st0;&st1;&st4;&st2;&st3;" />
	<path d="M0.5,60.834V7.339" style="&st0;&st1;&st2;&st3;" />
	<path d="M120.896,60.834V7.339" style="&st0;&st1;&st2;&st3;" />
	<path d="M7.338,0.5h106.72" style="&st0;&st1;&st2;&st3;" />
	<path d="M24.106,3.333v22.19" style="&st0;&st1;&st4;&st2;&st3;" />
	<path d="M97.29,25.523V3.333" style="&st0;&st1;&st4;&st2;&st3;" />
	<path d="M31.662,25.523V8.999" style="&st0;&st1;&st4;&st2;&st3;" />
	<path d="M89.735,25.523V8.999" style="&st0;&st1;&st4;&st2;&st3;" />
	<path d="M34.494,6.166h52.408" style="&st0;&st1;&st4;&st2;&st3;" />
	<path d="M54.678,15.608V9.942h12.04v5.666" style="&st0;&st1;&st4;&st2;&st3;" />
	<path d="M6.166,43.937h109.065" style="&st0;&st1;&st4;&st2;&st3;" />
	<path d="M35.911,56.685V31.188" style="&st0;&st1;&st4;&st2;&st3;" />
	<path d="M85.486,56.685V31.188" style="&st0;&st1;&st4;&st2;&st3;" />
	<path d="M38.744,15.608v-4.25h7.082l1.983,1.983v2.267" style="&st0;&st1;&st4;&st2;&st3;" />
	<path d="M47.809,13.341h6.87" style="&st0;&st1;&st4;&st2;&st3;" />
	<path d="M82.653,15.608v-4.25h-7.082l-1.983,1.983v2.267" style="&st0;&st1;&st4;&st2;&st3;" />
	<path d="M73.588,13.341h-6.87" style="&st0;&st1;&st4;&st2;&st3;" />
	<path d="M120.066,5.336l-4.005-4.006" style="&st0;&st1;&st2;&st3;" />
	<path d="M1.33,5.336L5.336,1.33" style="&st0;&st1;&st2;&st3;" />
	<path d="M95.401,56.685V31.188" style="&st0;&st1;&st4;&st2;&st3;" />
	<path d="M105.316,56.685V31.188" style="&st0;&st1;&st4;&st2;&st3;" />
	<path d="M25.996,56.685V31.188" style="&st0;&st1;&st4;&st2;&st3;" />
	<path d="M16.081,56.685V31.188" style="&st0;&st1;&st4;&st2;&st3;" />
	<g ewd:pinNo="3">
		<text transform="matrix(1 0 0 1 29.21 39.9712)"><tspan style="&st6; &st5;" x="0" y="0">3</tspan></text>
	</g>
	<g ewd:pinNo="5">
		<text transform="matrix(1 0 0 1 49.0396 39.9712)"><tspan style="&st6; &st5;" x="0" y="0">5</tspan></text>
	</g>
	<g ewd:pinNo="6">
		<text transform="matrix(1 0 0 1 58.9551 39.9712)"><tspan style="&st6; &st5;" x="0" y="0">6</tspan></text>
	</g>
	<g ewd:pinNo="7">
		<text transform="matrix(1 0 0 1 68.8701 39.9712)"><tspan style="&st6; &st5;" x="0" y="0">7</tspan></text>
	</g>
	<g ewd:pinNo="9">
		<text transform="matrix(1 0 0 1 88.6997 39.9712)"><tspan style="&st6; &st5;" x="0" y="0">9</tspan></text>
	</g>
	<g ewd:pinNo="18">
		<text transform="matrix(1 0 0 1 67.061 52.7192)"><tspan style="&st6; &st5;" x="0" y="0">18</tspan></text>
	</g>
	<g ewd:pinNo="20">
		<text transform="matrix(1 0 0 1 87.0552 52.7192)"><tspan style="&st6; &st5;" x="0" y="0">20</tspan></text>
	</g>
	<g ewd:pinNo="17">
		<text transform="matrix(1 0 0 1 57.146 52.7192)"><tspan style="&st6; &st5;" x="0" y="0">17</tspan></text>
	</g>
	<g ewd:pinNo="16">
		<text transform="matrix(1 0 0 1 47.231 52.7192)"><tspan style="&st6; &st5;" x="0" y="0">16</tspan></text>
	</g>
	<g ewd:pinNo="14">
		<text transform="matrix(1 0 0 1 27.4009 52.7192)"><tspan style="&st6; &st5;" x="0" y="0">14</tspan></text>
	</g>
	<g ewd:pinNo="4">
		<text transform="matrix(1 0 0 1 39.125 39.9712)"><tspan style="&st6; &st5;" x="0" y="0">4</tspan></text>
	</g>
	<g ewd:pinNo="15">
		<text transform="matrix(1 0 0 1 37.3159 52.7192)"><tspan style="&st6; &st5;" x="0" y="0">15</tspan></text>
	</g>
	<g ewd:pinNo="8">
		<text transform="matrix(1 0 0 1 78.7847 39.9712)"><tspan style="&st6; &st5;" x="0" y="0">8</tspan></text>
	</g>
	<g ewd:pinNo="19">
		<text transform="matrix(1 0 0 1 76.9761 52.7192)"><tspan style="&st6; &st5;" x="0" y="0">19</tspan></text>
	</g>
	<g ewd:pinNo="10">
		<text transform="matrix(1 0 0 1 96.8062 39.9712)"><tspan style="&st6; &st5;" x="0" y="0">10</tspan></text>
	</g>
	<g ewd:pinNo="21">
		<text transform="matrix(1 0 0 1 96.9702 52.7192)"><tspan style="&st6; &st5;" x="0" y="0">21</tspan></text>
	</g>
	<g ewd:pinNo="22">
		<text transform="matrix(1 0 0 1 106.8853 52.7192)"><tspan style="&st6; &st5;" x="0" y="0">22</tspan></text>
	</g>
	<g ewd:pinNo="11">
		<text transform="matrix(1 0 0 1 106.9438 39.9712)"><tspan style="&st6; &st5;" x="0" y="0">11</tspan></text>
	</g>
	<g ewd:pinNo="2">
		<text transform="matrix(1 0 0 1 19.2949 39.9712)"><tspan style="&st6; &st5;" x="0" y="0">2</tspan></text>
	</g>
	<g ewd:pinNo="13">
		<text transform="matrix(1 0 0 1 17.4858 52.7192)"><tspan style="&st6; &st5;" x="0" y="0">13</tspan></text>
	</g>
	<g ewd:pinNo="12">
		<text transform="matrix(1 0 0 1 7.5708 52.7192)"><tspan style="&st6; &st5;" x="0" y="0">12</tspan></text>
	</g>
	<g ewd:pinNo="1">
		<text transform="matrix(1 0 0 1 9.3799 39.9712)"><tspan style="&st6; &st5;" x="0" y="0">1</tspan></text>
	</g>
</g>
<g id="レイヤー_1" transform="translate(141.238,17.008)">
	<path d="M20.33,7.583h18.414" style="&st0;&st1;&st4;&st2;&st3;" />
	<path d="M20.33,13.248h18.414" style="&st0;&st1;&st4;&st2;&st3;" />
	<path d="M118.063,7.583H99.65" style="&st0;&st1;&st4;&st2;&st3;" />
	<path d="M118.063,13.248H99.65" style="&st0;&st1;&st4;&st2;&st3;" />
	<path d="M0.5,52.908c0,4.693,3.805,8.499,8.499,8.499" style="&st0;&st1;&st2;&st3;" />
	<path d="M8.999,0.5C4.305,0.5,0.5,4.305,0.5,8.999" style="&st0;&st1;&st2;&st3;" />
	<path d="M137.894,8.999c0-4.694-3.805-8.499-8.499-8.499" style="&st0;&st1;&st2;&st3;" />
	<path d="M129.395,61.407c4.693,0,8.499-3.805,8.499-8.499" style="&st0;&st1;&st2;&st3;" />
	<path d="M17.497,75.571c0,2.347,1.902,4.25,4.25,4.25" style="&st0;&st1;&st2;&st3;" />
	<path d="M116.647,79.82c2.347,0,4.25-1.902,4.25-4.25" style="&st0;&st1;&st2;&st3;" />
	<path d="M20.33,7.583c-1.564,0-2.833,1.268-2.833,2.833" style="&st0;&st1;&st4;&st2;&st3;" />
	<path d="M17.497,10.416c0,1.564,1.269,2.833,2.833,2.833" style="&st0;&st1;&st4;&st2;&st3;" />
	<path d="M38.744,13.248c1.564,0,2.833-1.269,2.833-2.833" style="&st0;&st1;&st4;&st2;&st3;" />
	<path d="M41.577,10.416c0-1.565-1.269-2.833-2.833-2.833" style="&st0;&st1;&st4;&st2;&st3;" />
	<path d="M99.65,7.583c-1.564,0-2.833,1.268-2.833,2.833" style="&st0;&st1;&st4;&st2;&st3;" />
	<path d="M96.817,10.416c0,1.564,1.269,2.833,2.833,2.833" style="&st0;&st1;&st4;&st2;&st3;" />
	<path d="M118.063,13.248c1.564,0,2.833-1.269,2.833-2.833" style="&st0;&st1;&st4;&st2;&st3;" />
	<path d="M120.896,10.416c0-1.565-1.269-2.833-2.833-2.833" style="&st0;&st1;&st4;&st2;&st3;" />
	<path d="M14.664,25.996v25.496h109.065V25.996H14.664" style="&st0;&st1;&st4;&st2;&st3;" />
	<path d="M54.324,51.492V25.996" style="&st0;&st1;&st4;&st2;&st3;" />
	<path d="M64.239,51.492V25.996" style="&st0;&st1;&st4;&st2;&st3;" />
	<path d="M74.154,51.492V25.996" style="&st0;&st1;&st4;&st2;&st3;" />
	<path d="M84.069,51.492V25.996" style="&st0;&st1;&st4;&st2;&st3;" />
	<path d="M62.115,72.03v-5.666h14.164v5.666" style="&st0;&st1;&st4;&st2;&st3;" />
	<path d="M64.948,72.03v4.25h8.498v-4.25" style="&st0;&st1;&st4;&st2;&st3;" />
	<path d="M54.324,4.75l2.833,2.833h24.079l2.833-2.833" style="&st0;&st1;&st4;&st2;&st3;" />
	<path d="M59.99,7.583v2.833h18.414V7.583" style="&st0;&st1;&st4;&st2;&st3;" />
	<path d="M44.409,16.081V4.75h49.575v11.332" style="&st0;&st1;&st4;&st2;&st3;" />
	<path d="M93.984,16.081h29.745V7.583h7.082v46.742" style="&st0;&st1;&st4;&st2;&st3;" />
	<path d="M44.409,16.081H14.664V7.583H7.582v46.742" style="&st0;&st1;&st4;&st2;&st3;" />
	<path d="M7.582,54.325h123.229" style="&st0;&st1;&st4;&st2;&st3;" />
	<path d="M104.253,69.197H80.174l-1.983-7.791" style="&st0;&st1;&st4;&st2;&st3;" />
	<path d="M34.14,69.197h24.079l1.983-7.791" style="&st0;&st1;&st4;&st2;&st3;" />
	<path d="M7.582,17.498h3.399v12.748H7.582" style="&st0;&st1;&st4;&st2;&st3;" />
	<path d="M130.812,17.498h-3.399v12.748h3.399" style="&st0;&st1;&st4;&st2;&st3;" />
	<path d="M104.253,69.197V79.82" style="&st0;&st1;&st4;&st2;&st3;" />
	<path d="M8.999,0.5h120.396" style="&st0;&st1;&st2;&st3;" />
	<path d="M34.14,69.197V79.82" style="&st0;&st1;&st4;&st2;&st3;" />
	<path d="M0.5,8.999v43.909" style="&st0;&st1;&st2;&st3;" />
	<path d="M137.894,8.999v43.909" style="&st0;&st1;&st2;&st3;" />
	<path d="M21.747,79.82h94.9" style="&st0;&st1;&st2;&st3;" />
	<path d="M17.497,61.407v14.164" style="&st0;&st1;&st2;&st3;" />
	<path d="M34.14,72.03h70.113" style="&st0;&st1;&st4;&st2;&st3;" />
	<path d="M120.896,61.407v14.164" style="&st0;&st1;&st2;&st3;" />
	<path d="M14.664,38.744h109.065" style="&st0;&st1;&st4;&st2;&st3;" />
	<path d="M7.582,38.744h3.399v9.915H7.582" style="&st0;&st1;&st4;&st2;&st3;" />
	<path d="M130.812,38.744h-3.399v9.915h3.399" style="&st0;&st1;&st4;&st2;&st3;" />
	<path d="M93.984,51.492V25.996" style="&st0;&st1;&st4;&st2;&st3;" />
	<path d="M44.409,51.492V25.996" style="&st0;&st1;&st4;&st2;&st3;" />
	<path d="M103.899,51.492V25.996" style="&st0;&st1;&st4;&st2;&st3;" />
	<path d="M113.814,51.492V25.996" style="&st0;&st1;&st4;&st2;&st3;" />
	<path d="M34.494,51.492V25.996" style="&st0;&st1;&st4;&st2;&st3;" />
	<path d="M24.579,51.492V25.996" style="&st0;&st1;&st4;&st2;&st3;" />
	<path d="M120.896,61.407h8.499" style="&st0;&st1;&st2;&st3;" />
	<path d="M8.999,61.407h8.499" style="&st0;&st1;&st2;&st3;" />
	<path d="M17.497,61.407h103.399" style="&st0;&st1;&st4;&st2;&st3;" />
	<g ewd:pinNo="8">
		<text transform="matrix(1 0 0 1 47.8496 34.5225)"><tspan style="&st6; &st5;" x="0" y="0">8</tspan></text>
	</g>
	<g ewd:pinNo="7">
		<text transform="matrix(1 0 0 1 57.7646 34.5225)"><tspan style="&st6; &st5;" x="0" y="0">7</tspan></text>
	</g>
	<g ewd:pinNo="6">
		<text transform="matrix(1 0 0 1 67.6797 34.5225)"><tspan style="&st6; &st5;" x="0" y="0">6</tspan></text>
	</g>
	<g ewd:pinNo="5">
		<text transform="matrix(1 0 0 1 77.5942 34.5225)"><tspan style="&st6; &st5;" x="0" y="0">5</tspan></text>
	</g>
	<g ewd:pinNo="4">
		<text transform="matrix(1 0 0 1 87.5098 34.5225)"><tspan style="&st6; &st5;" x="0" y="0">4</tspan></text>
	</g>
	<g ewd:pinNo="18">
		<text transform="matrix(1 0 0 1 55.6792 47.2705)"><tspan style="&st6; &st5;" x="0" y="0">18</tspan></text>
	</g>
	<g ewd:pinNo="17">
		<text transform="matrix(1 0 0 1 65.5942 47.2705)"><tspan style="&st6; &st5;" x="0" y="0">17</tspan></text>
	</g>
	<g ewd:pinNo="19">
		<text transform="matrix(1 0 0 1 45.7642 47.2705)"><tspan style="&st6; &st5;" x="0" y="0">19</tspan></text>
	</g>
	<g ewd:pinNo="16">
		<text transform="matrix(1 0 0 1 75.5093 47.2705)"><tspan style="&st6; &st5;" x="0" y="0">16</tspan></text>
	</g>
	<g ewd:pinNo="15">
		<text transform="matrix(1 0 0 1 85.4243 47.2705)"><tspan style="&st6; &st5;" x="0" y="0">15</tspan></text>
	</g>
	<g ewd:pinNo="3">
		<text transform="matrix(1 0 0 1 97.4243 34.5225)"><tspan style="&st6; &st5;" x="0" y="0">3</tspan></text>
	</g>
	<g ewd:pinNo="14">
		<text transform="matrix(1 0 0 1 95.3394 47.2705)"><tspan style="&st6; &st5;" x="0" y="0">14</tspan></text>
	</g>
	<g ewd:pinNo="9">
		<text transform="matrix(1 0 0 1 37.9346 34.5225)"><tspan style="&st6; &st5;" x="0" y="0">9</tspan></text>
	</g>
	<g ewd:pinNo="20">
		<text transform="matrix(1 0 0 1 36.2061 47.2705)"><tspan style="&st6; &st5;" x="0" y="0">20</tspan></text>
	</g>
	<g ewd:pinNo="2">
		<text transform="matrix(1 0 0 1 107.3394 34.5225)"><tspan style="&st6; &st5;" x="0" y="0">2</tspan></text>
	</g>
	<g ewd:pinNo="13">
		<text transform="matrix(1 0 0 1 105.2544 47.2705)"><tspan style="&st6; &st5;" x="0" y="0">13</tspan></text>
	</g>
	<g ewd:pinNo="1">
		<text transform="matrix(1 0 0 1 117.2544 34.5225)"><tspan style="&st6; &st5;" x="0" y="0">1</tspan></text>
	</g>
	<g ewd:pinNo="12">
		<text transform="matrix(1 0 0 1 115.1694 47.2705)"><tspan style="&st6; &st5;" x="0" y="0">12</tspan></text>
	</g>
	<g ewd:pinNo="10">
		<text transform="matrix(1 0 0 1 25.9346 34.5225)"><tspan style="&st6; &st5;" x="0" y="0">10</tspan></text>
	</g>
	<g ewd:pinNo="21">
		<text transform="matrix(1 0 0 1 26.2915 47.2705)"><tspan style="&st6; &st5;" x="0" y="0">21</tspan></text>
	</g>
	<g ewd:pinNo="11">
		<text transform="matrix(1 0 0 1 16.2422 34.5225)"><tspan style="&st6; &st5;" x="0" y="0">11</tspan></text>
	</g>
	<g ewd:pinNo="22">
		<text transform="matrix(1 0 0 1 16.3765 47.2705)"><tspan style="&st6; &st5;" x="0" y="0">22</tspan></text>
	</g>
</g>
<path d="M60.6985,9.069v-8.504h149.7365v8.504" style="&st0;&st1;&st7;&st2;&st3;" />
</svg>