<?xml version="1.0" encoding="utf-8"?>
<!-- Generator: Adobe Illustrator 10.0, SVG Export Plug-In . SVG Version: 3.0.0 Build 77)  -->
<!DOCTYPE svg PUBLIC "-//W3C//DTD SVG 1.0//EN" "http://www.w3.org/TR/2001/REC-SVG-20010904/DTD/svg10.dtd"[
	<!ENTITY ns_flows "http://ns.adobe.com/Flows/1.0/">
	<!ENTITY ns_svg "http://www.w3.org/2000/svg">
	<!ENTITY ns_xlink "http://www.w3.org/1999/xlink">
	<!ENTITY st0 "fill:none;stroke:#000000;stroke-linecap:round;stroke-linejoin:round;">
	<!ENTITY st1 "fill:none;stroke:#000000;stroke-width:0.6;stroke-linecap:round;stroke-linejoin:round;">
	<!ENTITY st2 "font-size:6px;">
	<!ENTITY st3 "font-family:'Arial';">
	<!ATTLIST svg
		ewd:ver CDATA #IMPLIED
		xmlns:ewd CDATA #FIXED "http://shcl.co.jp/ewd"
		xmlns:a CDATA #FIXED "http://ns.adobe.com/AdobeSVGViewerExtensions/3.0/">
	<!ATTLIST g
		ewd:pinNo CDATA #IMPLIED>
	<!ATTLIST text
		ewd:textID CDATA #IMPLIED
		ewd:horAlign CDATA #IMPLIED>
	<!ATTLIST title
		ewd:textID CDATA #IMPLIED>
]>
<svg ewd:ver="2.1.2.6F" height="39.33" onload="call_execInitLoadProc_svg('connector')" style="overflow:visible;enable-background:new 0 0 48.449 39.33" viewBox="0 0 48.449 39.33" width="48.449" xml:space="preserve" xmlns="&ns_svg;" xmlns:ewd="http://shcl.co.jp/ewd" xmlns:a="http://ns.adobe.com/AdobeSVGViewerExtensions/3.0/" xmlns:xlink="&ns_xlink;">
<script type="text/javascript" xlink:href="../../../../../system/js/ewd/fig/svgfig.js" xmlns:xlink="http://www.w3.org/1999/xlink" />
<g id="レイヤー_1">
	<path d="M14.435,34.435l-0.238,0.875" style="&st1;" />
	<path d="M34.015,34.435l0.238,0.875" style="&st1;" />
	<path d="M31.862,31.914h-5.091" style="&st1;" />
	<path d="M25.497,30.642v-6.788" style="&st1;" />
	<path d="M22.953,30.642v-6.788" style="&st1;" />
	<path d="M24.225,17.492v5.091" style="&st1;" />
	<path d="M31.862,17.492H16.587" style="&st1;" />
	<path d="M42.174,33.135l2.481,0.04" style="&st0;" />
	<path d="M16.587,31.914h5.091" style="&st1;" />
	<path d="M6.276,33.135l-2.482,0.04" style="&st0;" />
	<path d="M6.276,15.729l-2.482,0.04" style="&st0;" />
	<path d="M42.174,15.729l2.481,0.04" style="&st0;" />
	<path d="M34.015,14.968l0.238-0.87" style="&st1;" />
	<path d="M11.497,26.823v-4.241" style="&st1;" />
	<path d="M14.435,14.968l-0.238-0.87" style="&st1;" />
	<path d="M30.208,0.5H18.242" style="&st0;" />
	<path d="M30.004,7.299H18.446" style="&st1;" />
	<path d="M30.004,9.849H18.446" style="&st1;" />
	<path d="M36.953,22.583v4.241" style="&st1;" />
	<path d="M18.242,0.5c-2.103,0-3.807,1.705-3.807,3.808" style="&st0;" />
	<path d="M11.715,11.922c1.91-2.195,2.807-4.706,2.719-7.615" style="&st0;" />
	<path d="M3.794,15.69c-4.392,5.064-4.392,12.42,0,17.484" style="&st0;" />
	<path d="M11.715,11.922c-2.221,0.824-3.928,2.011-5.474,3.807" style="&st0;" />
	<path d="M6.242,33.135c1.545,1.796,3.252,2.983,5.473,3.807" style="&st0;" />
	<path d="M6.276,15.69c-4.392,5.064-4.392,12.42,0,17.484" style="&st1;" />
	<path d="M14.196,14.098c-5.857,1.975-9.005,8.324-7.031,14.182" style="&st1;" />
	<path d="M7.165,28.279c1.157,3.433,3.599,5.874,7.031,7.031" style="&st1;" />
	<path d="M24.225,14.098c-3.461-0.038-6.39,0.222-9.791,0.869" style="&st1;" />
	<path d="M14.435,34.435c3.403,0.631,6.329,0.892,9.79,0.874" style="&st1;" />
	<path d="M34.015,4.308c0-2.103-1.705-3.808-3.808-3.808" style="&st0;" />
	<path d="M34.015,4.308c-0.088,2.909,0.809,5.42,2.719,7.615" style="&st0;" />
	<path d="M42.208,15.729c-1.545-1.796-3.252-2.982-5.473-3.807" style="&st0;" />
	<path d="M36.735,36.942c2.221-0.824,3.928-2.011,5.473-3.807" style="&st0;" />
	<path d="M42.174,33.174c4.392-5.064,4.392-12.42,0-17.484" style="&st1;" />
	<path d="M34.015,14.968c-3.4-0.647-6.329-0.906-9.791-0.868" style="&st1;" />
	<path d="M24.225,35.311c3.461,0.018,6.388-0.243,9.791-0.875" style="&st1;" />
	<path d="M16.587,17.492c-2.812,0-5.091,2.279-5.091,5.091" style="&st1;" />
	<path d="M11.497,26.823c0,2.812,2.279,5.091,5.091,5.091" style="&st1;" />
	<path d="M24.225,22.583c-0.702,0-1.272,0.569-1.272,1.271" style="&st1;" />
	<path d="M21.678,31.914c0.702,0,1.272-0.57,1.272-1.272" style="&st1;" />
	<path d="M36.953,22.583c0-2.812-2.279-5.091-5.09-5.091" style="&st1;" />
	<path d="M31.862,31.914c2.812,0,5.09-2.279,5.09-5.091" style="&st1;" />
	<path d="M25.497,23.854c0-0.702-0.569-1.271-1.272-1.271" style="&st1;" />
	<path d="M25.497,30.642c0,0.704,0.571,1.275,1.275,1.275" style="&st1;" />
	<path d="M11.715,36.942c8.555,2.517,16.464,2.517,25.02,0" style="&st0;" />
	<path d="M44.655,33.174c4.392-5.064,4.392-12.42,0-17.484" style="&st0;" />
	<path d="M34.253,35.311c5.857-1.975,9.006-8.324,7.031-14.182" style="&st1;" />
	<path d="M41.284,21.129c-1.157-3.433-3.598-5.874-7.031-7.031" style="&st1;" />
	<path d="M18.446,14.373V3.899h11.558v10.474" style="&st1;" />
	<g ewd:pinNo="1">
		<text transform="matrix(1 0 0 1 15.5977 26.8184)"><tspan style="&st3; &st2;" x="0" y="0">1</tspan></text>
	</g>
	<g ewd:pinNo="2">
		<text transform="matrix(1 0 0 1 29.5977 26.8184)"><tspan style="&st3; &st2;" x="0" y="0">2</tspan></text>
	</g>
</g>
</svg>