<?xml version="1.0" encoding="utf-8"?>
<!-- Generator: Adobe Illustrator 10.0, SVG Export Plug-In . SVG Version: 3.0.0 Build 77)  -->
<!DOCTYPE svg PUBLIC "-//W3C//DTD SVG 1.0//EN" "http://www.w3.org/TR/2001/REC-SVG-20010904/DTD/svg10.dtd"[
	<!ENTITY ns_flows "http://ns.adobe.com/Flows/1.0/">
	<!ENTITY ns_svg "http://www.w3.org/2000/svg">
	<!ENTITY ns_xlink "http://www.w3.org/1999/xlink">
	<!ENTITY st0 "fill:none;stroke:#000000;stroke-linecap:round;stroke-linejoin:round;">
	<!ENTITY st1 "fill:none;stroke:#000000;stroke-width:0.6;stroke-linecap:round;stroke-linejoin:round;">
	<!ENTITY st2 "font-size:6px;">
	<!ENTITY st3 "font-family:'Arial';">
	<!ATTLIST svg
		ewd:ver CDATA #IMPLIED
		xmlns:ewd CDATA #FIXED "http://shcl.co.jp/ewd"
		xmlns:a CDATA #FIXED "http://ns.adobe.com/AdobeSVGViewerExtensions/3.0/">
	<!ATTLIST g
		ewd:pinNo CDATA #IMPLIED>
	<!ATTLIST text
		ewd:textID CDATA #IMPLIED
		ewd:horAlign CDATA #IMPLIED>
	<!ATTLIST title
		ewd:textID CDATA #IMPLIED>
]>
<svg ewd:ver="2.1.2.6F" height="87.402" onload="call_execInitLoadProc_svg('connector')" style="overflow:visible;enable-background:new 0 0 275.788 87.402" viewBox="0 0 275.788 87.402" width="275.788" xml:space="preserve" xmlns="&ns_svg;" xmlns:ewd="http://shcl.co.jp/ewd" xmlns:a="http://ns.adobe.com/AdobeSVGViewerExtensions/3.0/" xmlns:xlink="&ns_xlink;">
<script type="text/javascript" xlink:href="../../../../../system/js/ewd/fig/svgfig.js" xmlns:xlink="http://www.w3.org/1999/xlink" />
<g id="レイヤー_1">
	<path d="M170.472,8.999c0-1.564-1.269-2.833-2.833-2.833" style="&st1;" />
	<path d="M200.216,14.665c-1.564,0-2.833,1.268-2.833,2.833" style="&st1;" />
	<path d="M32.37,72.738c0,1.564,1.268,2.833,2.833,2.833" style="&st1;" />
	<path d="M243.417,17.498c0-1.565-1.269-2.833-2.833-2.833" style="&st1;" />
	<path d="M197.384,24.58c0,1.564,1.268,2.833,2.833,2.833" style="&st1;" />
	<path d="M75.571,75.571c1.564,0,2.833-1.268,2.833-2.833" style="&st1;" />
	<path d="M190.302,3.333c0-1.564-1.269-2.833-2.833-2.833" style="&st1;" />
	<path d="M88.319,0.5c-1.565,0-2.833,1.269-2.833,2.833" style="&st1;" />
	<path d="M269.622,20.817c0-2.395-1.391-4.422-3.624-5.285" style="&st0;" />
	<path d="M110.981,11.832c-1.564,0-2.833,1.269-2.833,2.833" style="&st1;" />
	<path d="M108.148,6.166c-1.564,0-2.833,1.269-2.833,2.833" style="&st1;" />
	<path d="M184.636,27.413c3.129,0,5.666-2.537,5.666-5.666" style="&st1;" />
	<path d="M78.404,17.498c0-1.565-1.269-2.833-2.833-2.833" style="&st1;" />
	<path d="M35.203,14.665c-1.565,0-2.833,1.268-2.833,2.833" style="&st1;" />
	<path d="M75.571,27.413c1.564,0,2.833-1.269,2.833-2.833" style="&st1;" />
	<path d="M167.639,14.665c0-1.564-1.269-2.833-2.833-2.833" style="&st1;" />
	<path d="M240.584,75.571c1.564,0,2.833-1.268,2.833-2.833" style="&st1;" />
	<path d="M197.384,72.738c0,1.564,1.268,2.833,2.833,2.833" style="&st1;" />
	<path d="M9.789,15.531c-2.234,0.863-3.625,2.891-3.625,5.286" style="&st0;" />
	<path d="M85.486,21.747c0,3.129,2.537,5.666,5.666,5.666" style="&st1;" />
	<path d="M269.622,22.597c0-1.095-0.888-1.983-1.983-1.983" style="&st1;" />
	<path d="M8.149,20.613c-1.096,0-1.983,0.888-1.983,1.983" style="&st1;" />
	<path d="M45.826,40.16v-9.915" style="&st1;" />
	<path d="M220.046,40.16v-9.915" style="&st1;" />
	<path d="M35.911,30.245v9.915h69.405v-9.915H35.911" style="&st1;" />
	<path d="M210.131,40.16v-9.915" style="&st1;" />
	<path d="M200.216,40.16v-9.915" style="&st1;" />
	<path d="M190.302,40.16v-9.915" style="&st1;" />
	<path d="M180.387,40.16v-9.915" style="&st1;" />
	<path d="M254.042,30.245v9.915h9.914v-9.915H254.042" style="&st1;" />
	<path d="M241.292,30.245v9.915h9.915v-9.915H241.292" style="&st1;" />
	<path d="M269.622,20.817v25.009h5.666v5.666h-5.666v24.079L258.29,86.902H17.497L6.166,75.571V51.492H0.5v-5.666    h5.666V20.817" style="&st0;" />
	<path d="M11.832,45.826v12.748H8.999V45.826H11.832" style="&st1;" />
	<path d="M68.489,45.826v9.915h138.81v-9.915H68.489" style="&st1;" />
	<path d="M78.404,55.741v-9.915" style="&st1;" />
	<path d="M58.574,47.809h9.915" style="&st1;" />
	<path d="M88.319,55.741v-9.915" style="&st1;" />
	<path d="M98.233,55.741v-9.915" style="&st1;" />
	<path d="M108.148,55.741v-9.915" style="&st1;" />
	<path d="M118.063,55.741v-9.915" style="&st1;" />
	<path d="M127.979,55.741v-9.915" style="&st1;" />
	<path d="M137.894,55.741v-9.915" style="&st1;" />
	<path d="M147.809,55.741v-9.915" style="&st1;" />
	<path d="M157.724,55.741v-9.915" style="&st1;" />
	<path d="M167.639,55.741v-9.915" style="&st1;" />
	<path d="M177.554,55.741v-9.915" style="&st1;" />
	<path d="M187.469,55.741v-9.915" style="&st1;" />
	<path d="M197.384,55.741v-9.915" style="&st1;" />
	<path d="M229.961,27.413V25.43l-2.833-2.833h-14.165l-2.833,2.833v1.983" style="&st1;" />
	<path d="M263.956,45.826v12.748h2.833V45.826H263.956" style="&st1;" />
	<path d="M24.579,45.826v9.915h-9.915v-9.915H24.579" style="&st1;" />
	<path d="M251.208,45.826v9.915h9.915v-9.915H251.208" style="&st1;" />
	<path d="M58.574,55.741v11.331h9.915V55.741" style="&st1;" />
	<path d="M217.214,45.826v9.915h19.83v-9.915H217.214" style="&st1;" />
	<path d="M6.166,45.826v5.666" style="&st1;" />
	<path d="M227.129,55.741v-9.915" style="&st1;" />
	<path d="M238.459,45.826v9.915h9.916v-9.915H238.459" style="&st1;" />
	<path d="M37.327,45.826v9.915h-9.915v-9.915H37.327" style="&st1;" />
	<path d="M239.876,30.245v9.915h-69.405v-9.915H239.876" style="&st1;" />
	<path d="M48.659,55.741v-9.915" style="&st1;" />
	<path d="M55.741,40.16v-9.915" style="&st1;" />
	<path d="M58.574,45.826v9.915h-19.83v-9.915H58.574" style="&st1;" />
	<path d="M65.656,40.16v-9.915" style="&st1;" />
	<path d="M75.571,40.16v-9.915" style="&st1;" />
	<path d="M85.486,40.16v-9.915" style="&st1;" />
	<path d="M95.401,40.16v-9.915" style="&st1;" />
	<path d="M229.961,40.16v-9.915" style="&st1;" />
	<path d="M21.747,30.245v9.915h-9.915v-9.915H21.747" style="&st1;" />
	<path d="M34.494,30.245v9.915h-9.915v-9.915H34.494" style="&st1;" />
	<path d="M245.401,22.597l-1.983-1.983h-6.657l-1.983,1.983v4.816" style="&st1;" />
	<path d="M35.203,75.571h40.368" style="&st1;" />
	<path d="M6.166,61.407h52.408" style="&st1;" />
	<path d="M6.166,27.413h99.15" style="&st1;" />
	<path d="M108.148,42.993V27.413" style="&st1;" />
	<path d="M78.404,67.072v5.666" style="&st1;" />
	<path d="M129.961,28.829V20.33h15.864v8.499" style="&st1;" />
	<path d="M265.999,15.531l-22.581-9.365" style="&st0;" />
	<path d="M32.37,67.072v5.666" style="&st1;" />
	<path d="M190.302,3.333v18.414" style="&st1;" />
	<path d="M68.489,67.072h138.81" style="&st1;" />
	<path d="M108.148,42.993h9.915V27.413h9.915v1.416h19.83v-1.416h9.915v15.581h9.915" style="&st1;" />
	<path d="M217.214,47.809h-9.915" style="&st1;" />
	<path d="M78.404,20.613h7.082" style="&st1;" />
	<path d="M197.384,20.613h-7.082" style="&st1;" />
	<path d="M68.489,61.407h138.81" style="&st1;" />
	<path d="M267.638,20.613h-24.221" style="&st1;" />
	<path d="M108.148,6.166h59.49" style="&st1;" />
	<path d="M8.999,61.407v8.499h8.499l2.833-2.833h38.244" style="&st1;" />
	<path d="M105.316,27.413V8.999" style="&st1;" />
	<path d="M108.148,27.413V14.665" style="&st1;" />
	<path d="M110.981,11.832h53.824" style="&st1;" />
	<path d="M108.148,17.498h59.49" style="&st1;" />
	<path d="M32.37,20.613v-3.116" style="&st1;" />
	<path d="M78.404,24.58v-7.082" style="&st1;" />
	<path d="M35.203,14.665h40.368" style="&st1;" />
	<path d="M45.826,27.413V25.43l2.833-2.833h14.164l2.833,2.833v1.983" style="&st1;" />
	<path d="M167.639,27.413V14.665" style="&st1;" />
	<path d="M170.472,27.413V8.999" style="&st1;" />
	<path d="M240.584,14.665h-40.368" style="&st1;" />
	<path d="M197.384,24.58v-7.082" style="&st1;" />
	<path d="M266.789,61.407v8.499h-8.499l-2.832-2.833h-38.244" style="&st1;" />
	<path d="M243.417,20.613v-3.116" style="&st1;" />
	<path d="M217.214,55.741v11.331h-9.915V55.741" style="&st1;" />
	<path d="M269.622,45.826v5.666" style="&st1;" />
	<path d="M240.584,75.571h-40.368" style="&st1;" />
	<path d="M9.789,15.531L32.37,6.166" style="&st0;" />
	<path d="M269.622,61.407h-52.408" style="&st1;" />
	<path d="M85.486,3.333v18.414" style="&st1;" />
	<path d="M243.417,67.072v5.666" style="&st1;" />
	<path d="M167.639,42.993V27.413" style="&st1;" />
	<path d="M197.384,67.072v5.666" style="&st1;" />
	<path d="M269.622,27.413h-99.15" style="&st1;" />
	<path d="M243.417,6.166h-30.453L197.384,0.5H78.404L62.823,6.166H32.37" style="&st0;" />
	<path d="M245.401,22.597v4.816" style="&st1;" />
	<path d="M8.149,20.613H32.37" style="&st1;" />
	<path d="M30.387,22.597l1.983-1.983h6.657l1.983,1.983v4.816" style="&st1;" />
	<path d="M30.387,22.597v4.816" style="&st1;" />
	<g ewd:pinNo="11">
		<text transform="matrix(1 0 0 1 182.0488 37.2363)"><tspan style="&st3; &st2;" x="0" y="0">11</tspan></text>
	</g>
	<g ewd:pinNo="3">
		<text transform="matrix(1 0 0 1 39.4116 37.2363)"><tspan style="&st3; &st2;" x="0" y="0">3</tspan></text>
	</g>
	<g ewd:pinNo="7">
		<text transform="matrix(1 0 0 1 79.0713 37.2363)"><tspan style="&st3; &st2;" x="0" y="0">7</tspan></text>
	</g>
	<g ewd:pinNo="8">
		<text transform="matrix(1 0 0 1 88.9863 37.2363)"><tspan style="&st3; &st2;" x="0" y="0">8</tspan></text>
	</g>
	<g ewd:pinNo="9">
		<text transform="matrix(1 0 0 1 98.9014 37.2363)"><tspan style="&st3; &st2;" x="0" y="0">9</tspan></text>
	</g>
	<g ewd:pinNo="4">
		<text transform="matrix(1 0 0 1 49.3262 37.2363)"><tspan style="&st3; &st2;" x="0" y="0">4</tspan></text>
	</g>
	<g ewd:pinNo="12">
		<text transform="matrix(1 0 0 1 191.7412 37.2363)"><tspan style="&st3; &st2;" x="0" y="0">12</tspan></text>
	</g>
	<g ewd:pinNo="5">
		<text transform="matrix(1 0 0 1 59.2417 37.2363)"><tspan style="&st3; &st2;" x="0" y="0">5</tspan></text>
	</g>
	<g ewd:pinNo="6">
		<text transform="matrix(1 0 0 1 69.1567 37.2363)"><tspan style="&st3; &st2;" x="0" y="0">6</tspan></text>
	</g>
	<g ewd:pinNo="13">
		<text transform="matrix(1 0 0 1 201.6563 37.2363)"><tspan style="&st3; &st2;" x="0" y="0">13</tspan></text>
	</g>
	<g ewd:pinNo="20">
		<text transform="matrix(1 0 0 1 29.0503 52.8174)"><tspan style="&st3; &st2;" x="0" y="0">20</tspan></text>
	</g>
	<g ewd:pinNo="19">
		<text transform="matrix(1 0 0 1 16.104 52.8174)"><tspan style="&st3; &st2;" x="0" y="0">19</tspan></text>
	</g>
	<g ewd:pinNo="23">
		<text transform="matrix(1 0 0 1 70.127 52.8174)"><tspan style="&st3; &st2;" x="0" y="0">23</tspan></text>
	</g>
	<g ewd:pinNo="22">
		<text transform="matrix(1 0 0 1 50.2969 52.8174)"><tspan style="&st3; &st2;" x="0" y="0">22</tspan></text>
	</g>
	<g ewd:pinNo="21">
		<text transform="matrix(1 0 0 1 40.3818 52.8174)"><tspan style="&st3; &st2;" x="0" y="0">21</tspan></text>
	</g>
	<g ewd:pinNo="10">
		<text transform="matrix(1 0 0 1 171.9111 37.2363)"><tspan style="&st3; &st2;" x="0" y="0">10</tspan></text>
	</g>
	<g ewd:pinNo="14">
		<text transform="matrix(1 0 0 1 211.5708 37.2363)"><tspan style="&st3; &st2;" x="0" y="0">14</tspan></text>
	</g>
	<g ewd:pinNo="15">
		<text transform="matrix(1 0 0 1 221.4849 37.2363)"><tspan style="&st3; &st2;" x="0" y="0">15</tspan></text>
	</g>
	<g ewd:pinNo="1">
		<text transform="matrix(1 0 0 1 15.332 37.2363)"><tspan style="&st3; &st2;" x="0" y="0">1</tspan></text>
	</g>
	<g ewd:pinNo="16">
		<text transform="matrix(1 0 0 1 231.4009 37.2363)"><tspan style="&st3; &st2;" x="0" y="0">16</tspan></text>
	</g>
	<g ewd:pinNo="2">
		<text transform="matrix(1 0 0 1 28.0801 37.2363)"><tspan style="&st3; &st2;" x="0" y="0">2</tspan></text>
	</g>
	<g ewd:pinNo="17">
		<text transform="matrix(1 0 0 1 242.7329 37.2363)"><tspan style="&st3; &st2;" x="0" y="0">17</tspan></text>
	</g>
	<g ewd:pinNo="18">
		<text transform="matrix(1 0 0 1 255.481 37.2363)"><tspan style="&st3; &st2;" x="0" y="0">18</tspan></text>
	</g>
	<g ewd:pinNo="24">
		<text transform="matrix(1 0 0 1 80.042 52.8174)"><tspan style="&st3; &st2;" x="0" y="0">24</tspan></text>
	</g>
	<g ewd:pinNo="25">
		<text transform="matrix(1 0 0 1 89.957 52.8174)"><tspan style="&st3; &st2;" x="0" y="0">25</tspan></text>
	</g>
	<g ewd:pinNo="26">
		<text transform="matrix(1 0 0 1 99.8721 52.8174)"><tspan style="&st3; &st2;" x="0" y="0">26</tspan></text>
	</g>
	<g ewd:pinNo="27">
		<text transform="matrix(1 0 0 1 109.7866 52.8174)"><tspan style="&st3; &st2;" x="0" y="0">27</tspan></text>
	</g>
	<g ewd:pinNo="28">
		<text transform="matrix(1 0 0 1 119.7021 52.8174)"><tspan style="&st3; &st2;" x="0" y="0">28</tspan></text>
	</g>
	<g ewd:pinNo="29">
		<text transform="matrix(1 0 0 1 129.6167 52.8174)"><tspan style="&st3; &st2;" x="0" y="0">29</tspan></text>
	</g>
	<g ewd:pinNo="30">
		<text transform="matrix(1 0 0 1 139.5317 52.8174)"><tspan style="&st3; &st2;" x="0" y="0">30</tspan></text>
	</g>
	<g ewd:pinNo="31">
		<text transform="matrix(1 0 0 1 149.4468 52.8174)"><tspan style="&st3; &st2;" x="0" y="0">31</tspan></text>
	</g>
	<g ewd:pinNo="32">
		<text transform="matrix(1 0 0 1 159.3618 52.8174)"><tspan style="&st3; &st2;" x="0" y="0">32</tspan></text>
	</g>
	<g ewd:pinNo="33">
		<text transform="matrix(1 0 0 1 169.2769 52.8174)"><tspan style="&st3; &st2;" x="0" y="0">33</tspan></text>
	</g>
	<g ewd:pinNo="34">
		<text transform="matrix(1 0 0 1 179.1919 52.8174)"><tspan style="&st3; &st2;" x="0" y="0">34</tspan></text>
	</g>
	<g ewd:pinNo="35">
		<text transform="matrix(1 0 0 1 189.1064 52.8174)"><tspan style="&st3; &st2;" x="0" y="0">35</tspan></text>
	</g>
	<g ewd:pinNo="36">
		<text transform="matrix(1 0 0 1 199.0225 52.8174)"><tspan style="&st3; &st2;" x="0" y="0">36</tspan></text>
	</g>
	<g ewd:pinNo="37">
		<text transform="matrix(1 0 0 1 218.8525 52.8174)"><tspan style="&st3; &st2;" x="0" y="0">37</tspan></text>
	</g>
	<g ewd:pinNo="38">
		<text transform="matrix(1 0 0 1 228.7666 52.8174)"><tspan style="&st3; &st2;" x="0" y="0">38</tspan></text>
	</g>
	<g ewd:pinNo="39">
		<text transform="matrix(1 0 0 1 240.0991 52.8174)"><tspan style="&st3; &st2;" x="0" y="0">39</tspan></text>
	</g>
	<g ewd:pinNo="40">
		<text transform="matrix(1 0 0 1 252.8472 52.8174)"><tspan style="&st3; &st2;" x="0" y="0">40</tspan></text>
	</g>
</g>
</svg>