<?xml version="1.0" encoding="utf-8"?>
<!-- Generator: Adobe Illustrator 10.0, SVG Export Plug-In . SVG Version: 3.0.0 Build 77)  -->
<!DOCTYPE svg PUBLIC "-//W3C//DTD SVG 1.0//EN" "http://www.w3.org/TR/2001/REC-SVG-20010904/DTD/svg10.dtd"[
	<!ENTITY ns_flows "http://ns.adobe.com/Flows/1.0/">
	<!ENTITY ns_svg "http://www.w3.org/2000/svg">
	<!ENTITY ns_xlink "http://www.w3.org/1999/xlink">
	<!ENTITY st0 "fill:none;stroke:#000000;stroke-linecap:round;stroke-linejoin:round;">
	<!ENTITY st1 "fill:none;stroke:#000000;stroke-width:0.6;stroke-linecap:round;stroke-linejoin:round;">
	<!ENTITY st2 "font-size:6px;">
	<!ENTITY st3 "font-family:'Arial';">
	<!ATTLIST svg
		ewd:ver CDATA #IMPLIED
		xmlns:ewd CDATA #FIXED "http://shcl.co.jp/ewd"
		xmlns:a CDATA #FIXED "http://ns.adobe.com/AdobeSVGViewerExtensions/3.0/">
	<!ATTLIST g
		ewd:pinNo CDATA #IMPLIED>
	<!ATTLIST text
		ewd:textID CDATA #IMPLIED
		ewd:horAlign CDATA #IMPLIED>
	<!ATTLIST title
		ewd:textID CDATA #IMPLIED>
]>
<svg ewd:ver="2.1.2.6F" height="73.805" onload="call_execInitLoadProc_svg('connector')" style="overflow:visible;enable-background:new 0 0 131.878 73.805" viewBox="0 0 131.878 73.805" width="131.878" xml:space="preserve" xmlns="&ns_svg;" xmlns:ewd="http://shcl.co.jp/ewd" xmlns:a="http://ns.adobe.com/AdobeSVGViewerExtensions/3.0/" xmlns:xlink="&ns_xlink;">
<script type="text/javascript" xlink:href="../../../../../system/js/ewd/fig/svgfig.js" xmlns:xlink="http://www.w3.org/1999/xlink" />
<g id="レイヤー_1">
	<path d="M29.253,0.5c-3.444,0-6.369,1.901-7.767,5.049" style="&st0;" />
	<path d="M126.928,68.617c2.635-0.579,4.449-2.835,4.449-5.532" style="&st0;" />
	<path d="M12.54,13.249c3.444,0,6.369-1.9,7.767-5.049" style="&st0;" />
	<path d="M6.166,13.249c-3.129,0-5.666,2.537-5.666,5.666" style="&st0;" />
	<path d="M0.5,63.308c0,2.6,1.67,4.785,4.178,5.467" style="&st0;" />
	<path d="M38.319,1.917c0-0.782-0.634-1.417-1.417-1.417" style="&st0;" />
	<path d="M110.392,5.549C108.994,2.4,106.069,0.5,102.625,0.5" style="&st0;" />
	<path d="M111.571,8.2c1.398,3.148,4.323,5.049,7.768,5.049" style="&st0;" />
	<path d="M131.378,18.915c0-3.129-2.537-5.666-5.666-5.666" style="&st0;" />
	<path d="M94.976,0.5c-0.783,0-1.417,0.634-1.417,1.417" style="&st0;" />
	<path d="M46.109,17.498v-4.25h7.082v4.25" style="&st1;" />
	<path d="M53.191,15.374h7.083" style="&st1;" />
	<path d="M60.273,17.498v-5.666h11.331v5.666" style="&st1;" />
	<path d="M131.378,63.084v-44.17" style="&st0;" />
	<path d="M0.5,63.308V18.915" style="&st0;" />
	<path d="M6.449,33.079v25.496h118.98V33.079H6.449" style="&st1;" />
	<path d="M6.449,45.827h118.98" style="&st1;" />
	<path d="M16.364,58.574V33.079" style="&st1;" />
	<path d="M46.109,17.498h39.66" style="&st1;" />
	<path d="M26.279,58.574V33.079" style="&st1;" />
	<path d="M36.194,58.574V33.079" style="&st1;" />
	<path d="M46.109,58.574V33.079" style="&st1;" />
	<path d="M56.024,58.574V33.079" style="&st1;" />
	<path d="M65.939,58.574V33.079" style="&st1;" />
	<path d="M75.854,58.574V33.079" style="&st1;" />
	<path d="M85.769,58.574V33.079" style="&st1;" />
	<path d="M95.684,58.574V33.079" style="&st1;" />
	<path d="M105.599,58.574V33.079" style="&st1;" />
	<path d="M115.514,58.574V33.079" style="&st1;" />
	<path d="M0.5,61.974h130.878" style="&st1;" />
	<path d="M46.109,17.498v9.348" style="&st0;" />
	<path d="M42.214,9h47.45" style="&st1;" />
	<path d="M6.449,17.498v9.348" style="&st1;" />
	<path d="M46.109,17.498h-3.895V6.167l18.06-2.833h11.331l18.06,2.833v11.332h-3.895" style="&st0;" />
	<path d="M6.449,26.846h22.804" style="&st1;" />
	<path d="M21.486,5.549L20.307,8.2" style="&st0;" />
	<path d="M6.166,13.249h6.374" style="&st0;" />
	<path d="M29.253,0.5h7.649" style="&st0;" />
	<path d="M35.203,26.846h3.116" style="&st1;" />
	<path d="M32.228,17.498V0.5" style="&st1;" />
	<path d="M38.319,1.917v24.929" style="&st0;" />
	<path d="M85.769,17.498v-4.25h-7.082v4.25" style="&st1;" />
	<path d="M78.687,15.374h-7.083" style="&st1;" />
	<path d="M4.678,68.775l16.643,4.53h84.278l21.329-4.688" style="&st0;" />
	<path d="M85.769,17.498v9.348" style="&st0;" />
	<path d="M125.429,17.498v9.348" style="&st1;" />
	<path d="M125.429,26.846h-22.805" style="&st1;" />
	<path d="M102.625,26.846v-9.348" style="&st1;" />
	<path d="M110.392,5.549l1.179,2.651" style="&st0;" />
	<path d="M125.712,13.249h-6.374" style="&st0;" />
	<path d="M102.625,0.5h-7.648" style="&st0;" />
	<path d="M96.675,26.846H93.56" style="&st1;" />
	<path d="M99.65,17.498V0.5" style="&st1;" />
	<path d="M93.56,1.917v24.929" style="&st0;" />
	<path d="M6.449,61.974v5.666h118.98v-5.666" style="&st1;" />
	<path d="M38.319,26.846h7.79" style="&st0;" />
	<path d="M85.769,26.846h7.791" style="&st0;" />
	<path d="M129.961,56.469l-4.532,5.504" style="&st1;" />
	<path d="M1.916,56.469l4.533,5.504" style="&st1;" />
	<path d="M125.429,17.498h5.949" style="&st1;" />
	<path d="M96.675,26.846v-9.348" style="&st1;" />
	<path d="M96.675,17.498h5.949" style="&st1;" />
	<path d="M29.253,26.846v-9.348h5.949v9.348" style="&st1;" />
	<path d="M0.681,17.498h5.768" style="&st1;" />
	<path d="M1.916,56.469V17.498" style="&st1;" />
	<path d="M0.5,56.469h1.416" style="&st1;" />
	<path d="M129.961,56.469V17.498" style="&st1;" />
	<path d="M129.961,56.469h1.417" style="&st1;" />
	<g ewd:pinNo="2">
		<text transform="matrix(1 0 0 1 19.7236 41.5415)"><tspan style="&st3; &st2;" x="0" y="0">2</tspan></text>
	</g>
	<g ewd:pinNo="1">
		<text transform="matrix(1 0 0 1 9.8086 41.5415)"><tspan style="&st3; &st2;" x="0" y="0">1</tspan></text>
	</g>
	<g ewd:pinNo="13">
		<text transform="matrix(1 0 0 1 7.9136 54.2891)"><tspan style="&st3; &st2;" x="0" y="0">13</tspan></text>
	</g>
	<g ewd:pinNo="14">
		<text transform="matrix(1 0 0 1 17.8291 54.2891)"><tspan style="&st3; &st2;" x="0" y="0">14</tspan></text>
	</g>
	<g ewd:pinNo="3">
		<text transform="matrix(1 0 0 1 29.6387 41.5415)"><tspan style="&st3; &st2;" x="0" y="0">3</tspan></text>
	</g>
	<g ewd:pinNo="15">
		<text transform="matrix(1 0 0 1 27.7437 54.2891)"><tspan style="&st3; &st2;" x="0" y="0">15</tspan></text>
	</g>
	<g ewd:pinNo="4">
		<text transform="matrix(1 0 0 1 39.5537 41.5415)"><tspan style="&st3; &st2;" x="0" y="0">4</tspan></text>
	</g>
	<g ewd:pinNo="16">
		<text transform="matrix(1 0 0 1 37.6587 54.2891)"><tspan style="&st3; &st2;" x="0" y="0">16</tspan></text>
	</g>
	<g ewd:pinNo="5">
		<text transform="matrix(1 0 0 1 49.4688 41.5415)"><tspan style="&st3; &st2;" x="0" y="0">5</tspan></text>
	</g>
	<g ewd:pinNo="17">
		<text transform="matrix(1 0 0 1 47.5737 54.2891)"><tspan style="&st3; &st2;" x="0" y="0">17</tspan></text>
	</g>
	<g ewd:pinNo="6">
		<text transform="matrix(1 0 0 1 59.3838 41.5415)"><tspan style="&st3; &st2;" x="0" y="0">6</tspan></text>
	</g>
	<g ewd:pinNo="18">
		<text transform="matrix(1 0 0 1 57.4888 54.2891)"><tspan style="&st3; &st2;" x="0" y="0">18</tspan></text>
	</g>
	<g ewd:pinNo="7">
		<text transform="matrix(1 0 0 1 69.2988 41.5415)"><tspan style="&st3; &st2;" x="0" y="0">7</tspan></text>
	</g>
	<g ewd:pinNo="19">
		<text transform="matrix(1 0 0 1 67.4038 54.2891)"><tspan style="&st3; &st2;" x="0" y="0">19</tspan></text>
	</g>
	<g ewd:pinNo="8">
		<text transform="matrix(1 0 0 1 79.2139 41.5415)"><tspan style="&st3; &st2;" x="0" y="0">8</tspan></text>
	</g>
	<g ewd:pinNo="20">
		<text transform="matrix(1 0 0 1 77.457 54.2891)"><tspan style="&st3; &st2;" x="0" y="0">20</tspan></text>
	</g>
	<g ewd:pinNo="9">
		<text transform="matrix(1 0 0 1 89.1289 41.5415)"><tspan style="&st3; &st2;" x="0" y="0">9</tspan></text>
	</g>
	<g ewd:pinNo="21">
		<text transform="matrix(1 0 0 1 87.3721 54.2891)"><tspan style="&st3; &st2;" x="0" y="0">21</tspan></text>
	</g>
	<g ewd:pinNo="10">
		<text transform="matrix(1 0 0 1 97.1489 41.5415)"><tspan style="&st3; &st2;" x="0" y="0">10</tspan></text>
	</g>
	<g ewd:pinNo="22">
		<text transform="matrix(1 0 0 1 97.2871 54.2891)"><tspan style="&st3; &st2;" x="0" y="0">22</tspan></text>
	</g>
	<g ewd:pinNo="11">
		<text transform="matrix(1 0 0 1 107.2866 41.5415)"><tspan style="&st3; &st2;" x="0" y="0">11</tspan></text>
	</g>
	<g ewd:pinNo="23">
		<text transform="matrix(1 0 0 1 107.2021 54.2891)"><tspan style="&st3; &st2;" x="0" y="0">23</tspan></text>
	</g>
	<g ewd:pinNo="12">
		<text transform="matrix(1 0 0 1 116.979 41.5415)"><tspan style="&st3; &st2;" x="0" y="0">12</tspan></text>
	</g>
	<g ewd:pinNo="24">
		<text transform="matrix(1 0 0 1 117.1172 54.2891)"><tspan style="&st3; &st2;" x="0" y="0">24</tspan></text>
	</g>
</g>
</svg>