<?xml version="1.0" encoding="utf-8"?>
<!-- Generator: Adobe Illustrator 10.0, SVG Export Plug-In . SVG Version: 3.0.0 Build 77)  -->
<!DOCTYPE svg PUBLIC "-//W3C//DTD SVG 1.0//EN" "http://www.w3.org/TR/2001/REC-SVG-20010904/DTD/svg10.dtd"[
	<!ENTITY ns_flows "http://ns.adobe.com/Flows/1.0/">
	<!ENTITY ns_svg "http://www.w3.org/2000/svg">
	<!ENTITY ns_xlink "http://www.w3.org/1999/xlink">
	<!ENTITY st0 "fill:none;stroke:#000000;stroke-linecap:round;stroke-linejoin:round;">
	<!ENTITY st1 "fill:none;stroke:#000000;stroke-width:0.6;stroke-linecap:round;stroke-linejoin:round;">
	<!ENTITY st2 "font-size:6px;">
	<!ENTITY st3 "font-family:'Arial';">
	<!ATTLIST svg
		ewd:ver CDATA #IMPLIED
		xmlns:ewd CDATA #FIXED "http://shcl.co.jp/ewd"
		xmlns:a CDATA #FIXED "http://ns.adobe.com/AdobeSVGViewerExtensions/3.0/">
	<!ATTLIST g
		ewd:pinNo CDATA #IMPLIED>
	<!ATTLIST text
		ewd:textID CDATA #IMPLIED
		ewd:horAlign CDATA #IMPLIED>
	<!ATTLIST title
		ewd:textID CDATA #IMPLIED>
]>
<svg ewd:ver="2.1.2.6F" height="85.986" onload="call_execInitLoadProc_svg('connector')" style="overflow:visible;enable-background:new 0 0 100.15 85.986" viewBox="0 0 100.15 85.986" width="100.15" xml:space="preserve" xmlns="&ns_svg;" xmlns:ewd="http://shcl.co.jp/ewd" xmlns:a="http://ns.adobe.com/AdobeSVGViewerExtensions/3.0/" xmlns:xlink="&ns_xlink;">
<script type="text/javascript" xlink:href="../../../../../system/js/ewd/fig/svgfig.js" xmlns:xlink="http://www.w3.org/1999/xlink" />
<g id="レイヤー_1">
	<path d="M71.321,38.744c0-4.693-3.805-8.499-8.499-8.499" style="&st1;" />
	<path d="M17.497,62.823c0,5.773,3.208,10.673,8.499,12.982" style="&st1;" />
	<path d="M37.327,30.245c-4.694,0-8.499,3.805-8.499,8.499" style="&st1;" />
	<path d="M82.534,6.166c0,1.564,1.269,2.833,2.833,2.833" style="&st0;" />
	<path d="M62.823,65.656c4.694,0,8.499-3.805,8.499-8.499" style="&st1;" />
	<path d="M28.829,57.157c0,4.694,3.805,8.499,8.499,8.499" style="&st1;" />
	<path d="M85.486,16.081c0-0.782-0.634-1.417-1.417-1.417" style="&st1;" />
	<path d="M31.662,24.58c-4.694,0-8.499,3.805-8.499,8.499" style="&st1;" />
	<path d="M16.081,14.665c-0.782,0-1.417,0.634-1.417,1.417" style="&st1;" />
	<path d="M76.987,33.078c0-4.693-3.805-8.499-8.499-8.499" style="&st1;" />
	<path d="M84.069,21.747c0.782,0,1.417-0.634,1.417-1.417" style="&st1;" />
	<path d="M23.163,65.656c0,4.693,3.805,8.499,8.499,8.499" style="&st1;" />
	<path d="M68.489,74.155c4.693,0,8.499-3.805,8.499-8.499" style="&st1;" />
	<path d="M14.664,20.33c0,0.782,0.634,1.417,1.417,1.417" style="&st1;" />
	<path d="M82.653,33.078c0-4.618-1.971-8.561-5.666-11.332" style="&st1;" />
	<path d="M23.163,21.747c-3.694,2.771-5.666,6.713-5.666,11.332" style="&st1;" />
	<path d="M68.489,76.987c2.049,0,3.787-0.363,5.665-1.182" style="&st0;" />
	<path d="M11.832,78.404c0,3.912,3.171,7.082,7.082,7.082" style="&st0;" />
	<path d="M31.662,7.583c-1.565,0-2.833,1.268-2.833,2.833" style="&st1;" />
	<path d="M45.826,21.747c0,1.565,1.269,2.833,2.833,2.833" style="&st1;" />
	<path d="M11.832,27.413c0-3.129-2.537-5.666-5.666-5.666" style="&st0;" />
	<path d="M51.491,24.58c1.565,0,2.833-1.268,2.833-2.833" style="&st1;" />
	<path d="M71.321,10.416c0-1.565-1.268-2.833-2.833-2.833" style="&st1;" />
	<path d="M59.99,21.747c0,1.565,1.268,2.833,2.833,2.833" style="&st1;" />
	<path d="M37.327,24.58c1.564,0,2.833-1.268,2.833-2.833" style="&st1;" />
	<path d="M71.321,24.58c1.564,0,2.833-1.268,2.833-2.833" style="&st1;" />
	<path d="M25.996,21.747c0,1.565,1.269,2.833,2.833,2.833" style="&st1;" />
	<path d="M81.236,85.486c3.912,0,7.083-3.17,7.083-7.082" style="&st0;" />
	<path d="M93.984,21.747c-3.129,0-5.666,2.537-5.666,5.666" style="&st0;" />
	<path d="M0.5,18.914c0,1.564,1.269,2.833,2.833,2.833" style="&st0;" />
	<path d="M3.333,8.999c-1.564,0-2.833,1.268-2.833,2.833" style="&st0;" />
	<path d="M99.65,11.832c0-1.564-1.268-2.833-2.833-2.833" style="&st0;" />
	<path d="M96.817,21.747c1.565,0,2.833-1.268,2.833-2.833" style="&st0;" />
	<path d="M74.035,3.333c0-1.564-1.268-2.833-2.833-2.833" style="&st1;" />
	<path d="M28.948,0.5c-1.565,0-2.833,1.269-2.833,2.833" style="&st1;" />
	<path d="M23.282,8.999c1.564,0,2.833-1.269,2.833-2.833" style="&st1;" />
	<path d="M74.035,6.166c0,1.564,1.269,2.833,2.833,2.833" style="&st1;" />
	<path d="M20.449,0.5c-1.564,0-2.833,1.269-2.833,2.833" style="&st0;" />
	<path d="M82.534,3.333c0-1.564-1.268-2.833-2.833-2.833" style="&st0;" />
	<path d="M25.996,75.806c1.878,0.82,3.616,1.182,5.666,1.182" style="&st0;" />
	<path d="M14.783,8.999c1.564,0,2.833-1.269,2.833-2.833" style="&st0;" />
	<path d="M74.154,75.806c5.292-2.309,8.5-7.209,8.5-12.983" style="&st1;" />
	<path d="M35.203,47.951h29.745" style="&st1;" />
	<path d="M37.327,65.656h25.496" style="&st1;" />
	<path d="M71.321,38.744v18.414" style="&st1;" />
	<path d="M37.327,30.245h25.496" style="&st1;" />
	<path d="M28.829,14.665v-4.249" style="&st1;" />
	<path d="M35.203,35.203v25.496h29.745V35.203H35.203" style="&st1;" />
	<path d="M45.117,35.203v25.496" style="&st1;" />
	<path d="M55.033,35.203v25.496" style="&st1;" />
	<path d="M31.662,7.583h36.827" style="&st1;" />
	<path d="M71.321,10.416v4.249" style="&st1;" />
	<path d="M45.826,14.665v7.082" style="&st1;" />
	<path d="M3.333,8.999h11.451" style="&st0;" />
	<path d="M28.829,38.744v18.414" style="&st1;" />
	<path d="M41.562,11.124h17.133" style="&st1;" />
	<path d="M23.163,33.078v32.578" style="&st1;" />
	<path d="M31.662,74.155h36.827" style="&st1;" />
	<path d="M48.659,24.58h2.833" style="&st1;" />
	<path d="M76.987,33.078v32.578" style="&st1;" />
	<path d="M74.154,75.806v9.68" style="&st0;" />
	<path d="M74.154,85.486h7.082" style="&st0;" />
	<path d="M18.914,85.486h7.082" style="&st0;" />
	<path d="M88.319,27.413v50.991" style="&st0;" />
	<path d="M17.497,33.078v29.745" style="&st1;" />
	<path d="M31.662,76.987h36.827" style="&st0;" />
	<path d="M82.653,33.078v29.745" style="&st1;" />
	<path d="M76.987,21.747h7.082" style="&st1;" />
	<path d="M11.832,27.413v50.991" style="&st0;" />
	<path d="M31.662,7.583h36.827" style="&st1;" />
	<path d="M16.081,21.747h7.082" style="&st1;" />
	<path d="M14.664,20.33v-4.249" style="&st1;" />
	<path d="M85.486,16.081v4.249" style="&st1;" />
	<path d="M16.081,14.665h67.989" style="&st1;" />
	<path d="M68.134,7.583v3.541" style="&st1;" />
	<path d="M54.324,14.665v7.082" style="&st1;" />
	<path d="M59.99,7.583v14.164" style="&st1;" />
	<path d="M74.154,14.665v7.082" style="&st1;" />
	<path d="M32.016,7.583v3.541" style="&st1;" />
	<path d="M40.16,7.583v14.164" style="&st1;" />
	<path d="M25.996,14.665v7.082" style="&st1;" />
	<path d="M3.333,21.747h2.833" style="&st0;" />
	<path d="M71.321,11.124h-6.374v3.541" style="&st1;" />
	<path d="M28.829,11.124h6.374v3.541" style="&st1;" />
	<path d="M99.65,11.832v7.083" style="&st0;" />
	<path d="M25.996,75.806v9.68" style="&st0;" />
	<path d="M28.829,24.58h8.499" style="&st1;" />
	<path d="M37.327,24.58h11.332" style="&st1;" />
	<path d="M51.491,24.58h11.332" style="&st1;" />
	<path d="M62.823,24.58h8.499" style="&st1;" />
	<path d="M0.5,11.832v7.083" style="&st0;" />
	<path d="M93.984,21.747h2.833" style="&st0;" />
	<path d="M26.115,3.333v2.833" style="&st1;" />
	<path d="M74.035,3.333v2.833" style="&st1;" />
	<path d="M28.948,0.5h42.255" style="&st0;" />
	<path d="M82.534,3.333v2.833" style="&st0;" />
	<path d="M71.203,0.5h8.499" style="&st0;" />
	<path d="M28.948,0.5h-8.499" style="&st0;" />
	<path d="M17.616,3.333v2.833" style="&st0;" />
	<path d="M85.367,8.999h11.45" style="&st0;" />
	<path d="M14.783,8.999h8.499" style="&st1;" />
	<path d="M76.868,8.999h8.499" style="&st1;" />
	<g ewd:pinNo="1">
		<text transform="matrix(1 0 0 1 38.499 43.7817)"><tspan style="&st3; &st2;" x="0" y="0">1</tspan></text>
	</g>
	<g ewd:pinNo="2">
		<text transform="matrix(1 0 0 1 48.4141 43.7817)"><tspan style="&st3; &st2;" x="0" y="0">2</tspan></text>
	</g>
	<g ewd:pinNo="3">
		<text transform="matrix(1 0 0 1 58.3291 43.7817)"><tspan style="&st3; &st2;" x="0" y="0">3</tspan></text>
	</g>
	<g ewd:pinNo="4">
		<text transform="matrix(1 0 0 1 38.499 56.5298)"><tspan style="&st3; &st2;" x="0" y="0">4</tspan></text>
	</g>
	<g ewd:pinNo="5">
		<text transform="matrix(1 0 0 1 48.4141 56.5298)"><tspan style="&st3; &st2;" x="0" y="0">5</tspan></text>
	</g>
	<g ewd:pinNo="6">
		<text transform="matrix(1 0 0 1 58.3291 56.5298)"><tspan style="&st3; &st2;" x="0" y="0">6</tspan></text>
	</g>
</g>
</svg>