<?xml version="1.0" encoding="utf-8"?>
<!-- Generator: Adobe Illustrator 10.0, SVG Export Plug-In . SVG Version: 3.0.0 Build 77)  -->
<!DOCTYPE svg PUBLIC "-//W3C//DTD SVG 1.0//EN" "http://www.w3.org/TR/2001/REC-SVG-20010904/DTD/svg10.dtd"[
	<!ENTITY ns_flows "http://ns.adobe.com/Flows/1.0/">
	<!ENTITY ns_svg "http://www.w3.org/2000/svg">
	<!ENTITY ns_xlink "http://www.w3.org/1999/xlink">
	<!ENTITY st0 "fill:none;stroke:#000000;stroke-linecap:round;stroke-linejoin:round;">
	<!ENTITY st1 "fill:none;stroke:#000000;stroke-width:0.6;stroke-linecap:round;stroke-linejoin:round;">
	<!ENTITY st2 "font-size:6px;">
	<!ENTITY st3 "font-family:'Arial';">
	<!ATTLIST svg
		ewd:ver CDATA #IMPLIED
		xmlns:ewd CDATA #FIXED "http://shcl.co.jp/ewd"
		xmlns:a CDATA #FIXED "http://ns.adobe.com/AdobeSVGViewerExtensions/3.0/">
	<!ATTLIST g
		ewd:pinNo CDATA #IMPLIED>
	<!ATTLIST text
		ewd:textID CDATA #IMPLIED
		ewd:horAlign CDATA #IMPLIED>
	<!ATTLIST title
		ewd:textID CDATA #IMPLIED>
]>
<svg ewd:ver="2.1.2.6F" height="66.156" onload="call_execInitLoadProc_svg('connector')" style="overflow:visible;enable-background:new 0 0 53.288 66.156" viewBox="0 0 53.288 66.156" width="53.288" xml:space="preserve" xmlns="&ns_svg;" xmlns:ewd="http://shcl.co.jp/ewd" xmlns:a="http://ns.adobe.com/AdobeSVGViewerExtensions/3.0/" xmlns:xlink="&ns_xlink;">
<script type="text/javascript" xlink:href="../../../../../system/js/ewd/fig/svgfig.js" xmlns:xlink="http://www.w3.org/1999/xlink" />
<g id="レイヤー_1">
	<path d="M16.556,58.574c0,0.782,0.634,1.417,1.417,1.417" style="&st1;" />
	<path d="M43.581,65.656c1.385,0,2.568-0.592,3.399-1.7" style="&st0;" />
	<path d="M49.955,24.58c0-1.564-1.269-2.833-2.833-2.833" style="&st0;" />
	<path d="M5.819,21.747c-1.564,0-2.833,1.269-2.833,2.833" style="&st0;" />
	<path d="M34.969,59.99c0.782,0,1.417-0.634,1.417-1.417" style="&st1;" />
	<path d="M8.652,59.99c0.782,0,1.417-0.634,1.417-1.417" style="&st1;" />
	<path d="M42.873,58.574c0,0.782,0.634,1.417,1.417,1.417" style="&st1;" />
	<path d="M20.805,40.16c0,0.782,0.634,1.417,1.417,1.417" style="&st1;" />
	<path d="M8.904,64.724c0.787,0.63,1.646,0.931,2.654,0.931" style="&st0;" />
	<path d="M30.72,41.577c0.782,0,1.417-0.634,1.417-1.417" style="&st1;" />
	<path d="M42.873,58.574c0-0.782-0.634-1.417-1.416-1.417" style="&st1;" />
	<path d="M20.805,58.574c0-0.782-0.634-1.417-1.417-1.417" style="&st1;" />
	<path d="M11.485,57.157c-0.782,0-1.417,0.634-1.417,1.417" style="&st1;" />
	<path d="M52.788,40.869c0-1.904-1.076-3.518-2.833-4.25" style="&st0;" />
	<path d="M33.553,57.157c-0.782,0-1.417,0.634-1.417,1.417" style="&st1;" />
	<path d="M2.986,36.619c-2.346,0.978-3.456,3.673-2.479,6.02" style="&st0;" />
	<path d="M0.507,42.639c0.486,1.167,1.312,1.992,2.479,2.479" style="&st0;" />
	<path d="M49.955,45.118c1.757-0.732,2.833-2.346,2.833-4.249" style="&st0;" />
	<path d="M8.652,59.99h9.32" style="&st1;" />
	<path d="M5.819,7.817L13.136,0.5" style="&st0;" />
	<path d="M12.306,41.577v8.499h28.329v-8.499H12.306" style="&st1;" />
	<path d="M34.969,59.99h9.32" style="&st1;" />
	<path d="M16.556,16.081V7.583h19.83v14.164" style="&st1;" />
	<path d="M5.819,21.747v-5.666" style="&st0;" />
	<path d="M49.955,45.118v-8.499" style="&st1;" />
	<path d="M10.06,16.081h6.496" style="&st1;" />
	<path d="M16.556,10.416h19.83" style="&st1;" />
	<path d="M19.388,14.665h14.165" style="&st1;" />
	<path d="M36.386,25.996v12.748h-19.83" style="&st1;" />
	<path d="M42.881,14.665h4.241" style="&st1;" />
	<path d="M42.881,9.585v12.162" style="&st1;" />
	<path d="M44.289,59.99h5.666" style="&st1;" />
	<path d="M19.388,7.583v11.332h14.165V7.583" style="&st1;" />
	<path d="M5.819,13.248h4.241" style="&st1;" />
	<path d="M49.955,36.619V24.58" style="&st0;" />
	<path d="M47.122,21.747H5.819" style="&st1;" />
	<path d="M49.955,59.99V45.118" style="&st0;" />
	<path d="M42.051,21.747v8.499h-5.666" style="&st1;" />
	<path d="M2.986,24.58v12.04" style="&st0;" />
	<path d="M16.556,21.747v-5.666" style="&st1;" />
	<path d="M36.386,57.157v1.417" style="&st1;" />
	<path d="M16.556,57.157v1.417" style="&st1;" />
	<path d="M5.819,7.817v8.264" style="&st0;" />
	<path d="M33.553,57.157h7.904" style="&st1;" />
	<path d="M32.136,59.99v-1.417" style="&st1;" />
	<path d="M20.805,58.574v1.417" style="&st1;" />
	<path d="M11.485,57.157h7.903" style="&st1;" />
	<path d="M47.122,7.817v13.929" style="&st0;" />
	<path d="M2.986,36.619v8.499" style="&st1;" />
	<path d="M10.06,9.585v6.496" style="&st1;" />
	<path d="M17.972,59.99h16.997" style="&st1;" />
	<path d="M10.06,9.585l4.836-4.835" style="&st1;" />
	<path d="M32.136,38.744v1.417" style="&st1;" />
	<path d="M22.221,41.577h8.499" style="&st1;" />
	<path d="M38.045,4.75l4.836,4.835" style="&st1;" />
	<path d="M36.386,25.996v-4.249" style="&st1;" />
	<path d="M2.986,45.118V59.99" style="&st0;" />
	<path d="M20.805,38.744v1.417" style="&st1;" />
	<path d="M16.556,30.245v8.499" style="&st1;" />
	<path d="M2.986,59.99l5.918,4.734" style="&st0;" />
	<path d="M11.558,65.656h32.023" style="&st0;" />
	<path d="M33.553,33.078H19.388" style="&st1;" />
	<path d="M19.388,30.245v5.666h14.165v-5.666H19.388" style="&st1;" />
	<path d="M49.955,59.99l-2.975,3.966" style="&st0;" />
	<path d="M16.556,61.407v2.833h19.83v-2.833H16.556" style="&st1;" />
	<path d="M2.986,59.99h5.666" style="&st1;" />
	<path d="M16.556,30.245H9.473" style="&st1;" />
	<path d="M9.473,30.245v-4.25h26.913" style="&st1;" />
	<path d="M14.896,4.75h23.15" style="&st1;" />
	<path d="M13.136,0.5h26.668" style="&st0;" />
	<path d="M39.805,0.5l7.317,7.317" style="&st0;" />
	<g ewd:pinNo="1">
		<text transform="matrix(1 0 0 1 24.4634 47.9722)"><tspan style="&st3; &st2;" x="0" y="0">1</tspan></text>
	</g>
</g>
</svg>