<?xml version="1.0" encoding="utf-8"?>
<!-- Generator: Adobe Illustrator 10.0, SVG Export Plug-In . SVG Version: 3.0.0 Build 77)  -->
<!DOCTYPE svg PUBLIC "-//W3C//DTD SVG 1.0//EN" "http://www.w3.org/TR/2001/REC-SVG-20010904/DTD/svg10.dtd"[
	<!ENTITY ns_flows "http://ns.adobe.com/Flows/1.0/">
	<!ENTITY ns_svg "http://www.w3.org/2000/svg">
	<!ENTITY ns_xlink "http://www.w3.org/1999/xlink">
	<!ENTITY st0 "fill:none;stroke:#000000;stroke-linecap:round;stroke-linejoin:round;">
	<!ENTITY st1 "fill:none;stroke:#000000;stroke-width:0.6;stroke-linecap:round;stroke-linejoin:round;">
	<!ENTITY st2 "font-size:6px;">
	<!ENTITY st3 "font-family:'Arial';">
	<!ATTLIST svg
		ewd:ver CDATA #IMPLIED
		xmlns:ewd CDATA #FIXED "http://shcl.co.jp/ewd"
		xmlns:a CDATA #FIXED "http://ns.adobe.com/AdobeSVGViewerExtensions/3.0/">
	<!ATTLIST g
		ewd:pinNo CDATA #IMPLIED>
	<!ATTLIST text
		ewd:textID CDATA #IMPLIED
		ewd:horAlign CDATA #IMPLIED>
	<!ATTLIST title
		ewd:textID CDATA #IMPLIED>
]>
<svg ewd:ver="2.1.2.6F" height="63.606" onload="call_execInitLoadProc_svg('connector')" style="overflow:visible;enable-background:new 0 0 54.541 63.606" viewBox="0 0 54.541 63.606" width="54.541" xml:space="preserve" xmlns="&ns_svg;" xmlns:ewd="http://shcl.co.jp/ewd" xmlns:a="http://ns.adobe.com/AdobeSVGViewerExtensions/3.0/" xmlns:xlink="&ns_xlink;">
<script type="text/javascript" xlink:href="../../../../../system/js/ewd/fig/svgfig.js" xmlns:xlink="http://www.w3.org/1999/xlink" />
<g id="レイヤー_1">
	<path d="M54.041,38.744c0-1.956-1.585-3.541-3.541-3.541" style="&st0;" />
	<path d="M4.041,35.203c-1.956,0-3.541,1.585-3.541,3.541" style="&st0;" />
	<path d="M0.5,38.744c0,1.956,1.585,3.542,3.541,3.542" style="&st0;" />
	<path d="M50.5,42.285c1.956,0,3.541-1.585,3.541-3.542" style="&st0;" />
	<path d="M49.083,9.99c0-0.548-0.444-0.991-0.992-0.991" style="&st1;" />
	<path d="M44.409,8.999c-0.547,0-0.992,0.443-0.992,0.991" style="&st1;" />
	<path d="M6.449,8.999c-0.548,0-0.992,0.443-0.992,0.991" style="&st1;" />
	<path d="M12.54,57.583c0,0.547,0.444,0.991,0.992,0.991" style="&st1;" />
	<path d="M11.123,9.99c0-0.548-0.444-0.991-0.991-0.991" style="&st1;" />
	<path d="M35.344,58.574c0.547,0,0.991-0.444,0.991-0.991" style="&st1;" />
	<path d="M35.627,35.911c0.86,0,1.558-0.698,1.558-1.558" style="&st1;" />
	<path d="M44.126,27.413c0.86,0,1.558-0.698,1.558-1.559" style="&st1;" />
	<path d="M45.684,24.721c0-0.86-0.698-1.558-1.558-1.558" style="&st1;" />
	<path d="M47.667,56.732c0-0.547-0.444-0.991-0.992-0.991" style="&st1;" />
	<path d="M17.355,34.353c0,0.86,0.698,1.558,1.558,1.558" style="&st1;" />
	<path d="M7.865,55.741c-0.547,0-0.991,0.444-0.991,0.991" style="&st1;" />
	<path d="M18.206,56.732c0-0.547-0.444-0.991-0.992-0.991" style="&st1;" />
	<path d="M50.5,20.33c0-0.782-0.634-1.416-1.417-1.416" style="&st0;" />
	<path d="M11.123,20.33c0-0.782-0.634-1.416-1.417-1.416" style="&st1;" />
	<path d="M41.01,58.574c0.548,0,0.992-0.444,0.992-0.991" style="&st1;" />
	<path d="M37.327,55.741c-0.548,0-0.992,0.444-0.992,0.991" style="&st1;" />
	<path d="M18.914,23.163c-0.86,0-1.558,0.698-1.558,1.558" style="&st1;" />
	<path d="M49.35,59.801c0.77-0.821,1.15-1.781,1.15-2.907" style="&st0;" />
	<path d="M44.409,63.106c1.221,0,2.264-0.452,3.1-1.343" style="&st0;" />
	<path d="M49.083,58.574c0.782,0,1.417-0.634,1.417-1.417" style="&st1;" />
	<path d="M5.458,18.914c-0.783,0-1.417,0.634-1.417,1.416" style="&st0;" />
	<path d="M21.604,38.46c0,0.939,0.761,1.7,1.7,1.7" style="&st1;" />
	<path d="M4.041,56.894c0,1.125,0.38,2.086,1.15,2.907" style="&st0;" />
	<path d="M7.032,61.764c0.836,0.891,1.878,1.342,3.1,1.342" style="&st0;" />
	<path d="M4.041,57.157c0,0.782,0.634,1.417,1.417,1.417" style="&st1;" />
	<path d="M31.236,40.16c0.939,0,1.7-0.761,1.7-1.7" style="&st1;" />
	<path d="M18.206,57.583c0,0.547,0.444,0.991,0.991,0.991" style="&st1;" />
	<path d="M23.021,29.537v-1.417h8.499v1.417" style="&st1;" />
	<path d="M5.458,9.99V4.084L10.832,0.5h32.878l5.374,3.584V9.99" style="&st0;" />
	<path d="M11.123,9.99V5.6l3.399-2.267h25.496L43.417,5.6V9.99" style="&st1;" />
	<path d="M19.197,58.574h-5.666" style="&st1;" />
	<path d="M41.01,58.574h-5.666" style="&st1;" />
	<path d="M17.355,15.231h-2.125V7.583H39.31v7.649h-2.125" style="&st1;" />
	<path d="M21.604,25.146v7.932h11.332v-7.932H21.604" style="&st1;" />
	<path d="M12.54,55.741v1.841" style="&st1;" />
	<path d="M36.335,57.583v-0.85" style="&st1;" />
	<path d="M37.327,55.741h9.348" style="&st1;" />
	<path d="M24.438,58.574h10.907" style="&st1;" />
	<path d="M47.667,58.574h1.417" style="&st1;" />
	<path d="M21.604,12.682h11.332" style="&st1;" />
	<path d="M17.355,29.537h5.666" style="&st1;" />
	<path d="M37.186,8.999h-4.25v7.648" style="&st1;" />
	<path d="M21.604,16.647h11.332" style="&st1;" />
	<path d="M18.206,56.732v0.85" style="&st1;" />
	<path d="M21.604,10.416h11.332" style="&st1;" />
	<path d="M6.874,58.574H5.458" style="&st1;" />
	<path d="M31.52,29.537h5.666" style="&st1;" />
	<path d="M17.355,18.914h19.83" style="&st1;" />
	<path d="M50.5,35.203v7.083" style="&st1;" />
	<path d="M50.5,34.495v0.708" style="&st0;" />
	<path d="M4.041,35.203v7.083" style="&st1;" />
	<path d="M4.041,34.495v0.708" style="&st0;" />
	<path d="M11.123,20.33v4.25" style="&st1;" />
	<path d="M45.684,24.721v1.133" style="&st1;" />
	<path d="M44.126,27.413h-6.94" style="&st1;" />
	<path d="M18.914,23.163h25.212" style="&st1;" />
	<path d="M37.186,27.413v6.94" style="&st1;" />
	<path d="M44.409,8.999h3.683" style="&st1;" />
	<path d="M37.186,18.914h11.898" style="&st1;" />
	<path d="M6.449,8.999h3.683" style="&st1;" />
	<path d="M6.874,58.574v-1.841" style="&st1;" />
	<path d="M17.355,18.914V8.999" style="&st1;" />
	<path d="M11.123,24.58h4.25" style="&st1;" />
	<path d="M49.35,59.801l-1.841,1.963" style="&st0;" />
	<path d="M44.409,63.106H24.438" style="&st0;" />
	<path d="M24.438,58.574h-5.241" style="&st1;" />
	<path d="M50.5,42.285v10.623" style="&st0;" />
	<path d="M50.5,52.908v3.986" style="&st0;" />
	<path d="M50.5,20.33v14.873" style="&st0;" />
	<path d="M18.914,35.911h2.691" style="&st1;" />
	<path d="M21.604,35.911v2.549" style="&st1;" />
	<path d="M17.355,24.721v9.632" style="&st1;" />
	<path d="M5.458,18.914V9.99" style="&st0;" />
	<path d="M49.083,9.99v8.924" style="&st0;" />
	<path d="M32.936,35.911h2.691" style="&st1;" />
	<path d="M11.123,18.914h6.232" style="&st1;" />
	<path d="M42.001,55.741v1.841" style="&st1;" />
	<path d="M37.186,8.999v9.915" style="&st1;" />
	<path d="M11.123,9.99v8.924" style="&st1;" />
	<path d="M21.604,26.563h11.332" style="&st1;" />
	<path d="M15.373,18.914v5.666" style="&st1;" />
	<path d="M5.191,59.801l1.841,1.963" style="&st0;" />
	<path d="M10.132,63.106h14.306" style="&st0;" />
	<path d="M7.865,55.741h9.349" style="&st1;" />
	<path d="M4.041,42.285v10.623" style="&st0;" />
	<path d="M4.041,52.908v3.986" style="&st0;" />
	<path d="M4.041,20.33v14.165" style="&st0;" />
	<path d="M5.458,18.914h4.249" style="&st1;" />
	<path d="M13.106,42.993v8.499h28.329v-8.499H13.106" style="&st1;" />
	<path d="M47.667,56.732v1.841" style="&st1;" />
	<path d="M32.936,38.46v-2.549" style="&st1;" />
	<path d="M23.304,40.16h7.932" style="&st1;" />
	<path d="M17.355,8.999h4.249v7.648" style="&st1;" />
	<path d="M43.417,18.914V9.99" style="&st1;" />
	<g ewd:pinNo="1">
		<text transform="matrix(1 0 0 1 25.3188 49.3125)"><tspan style="&st3; &st2;" x="0" y="0">1</tspan></text>
	</g>
</g>
</svg>