<?xml version="1.0" encoding="utf-8"?>
<!DOCTYPE svg PUBLIC "-//W3C//DTD SVG 1.0//EN" "http://www.w3.org/TR/2001/REC-SVG-20010904/DTD/svg10.dtd"[
	<!ENTITY ns_flows "http://ns.adobe.com/Flows/1.0/">
	<!ENTITY ns_svg "http://www.w3.org/2000/svg">
	<!ENTITY ns_xlink "http://www.w3.org/1999/xlink">
	<!ENTITY st0 "font-size:7px;font-family:'NSimSun';adobe-font-script:japanese;">
	<!ENTITY st1 "font-size:6px;font-family:'NSimSun';">
	<!-- White fill  -->
	<!ENTITY st2 "fill:#FFFFFF;stroke:#000000; stroke-width:1.41;stroke-linecap:round;stroke-linejoin:round;">
	<!-- Yellow fill  -->
	<!ENTITY st3 "fill:#FFFFCC;stroke:#FFFFCC; stroke-width:0.1;stroke-linecap:round;stroke-linejoin:round;">
	<!-- Gray fill  -->
	<!ENTITY st4 "fill:#CCCCCC;stroke:#CCCCCC; stroke-width:0.1;stroke-linecap:round;stroke-linejoin:round;">
	<!-- Light-blue fill -->
	<!ENTITY st5 "fill:#CCECF4;stroke:#000000; stroke-width:1.133;stroke-linecap:round;stroke-linejoin:round;">
	<!ENTITY st6 "fill:none;stroke-linecap:butt; stroke-linejoin:round;">
	<!ENTITY st7 "fill:none;stroke:#000000;stroke-linecap:round;stroke-linejoin:round;">
	<!ENTITY st8 "enable-background:new    ;">
	<!-- Black fill -->
	<!ENTITY st9 "fill:#000000;stroke:#000000; stroke-linecap:round;stroke-linejoin:round;">
	<!-- SRS note   -->
	<!ENTITY st10 "font-size:9px;font-family:'NSimSun';">
	<!ENTITY st11 "font-size:9px;font-family:'NSimSun';">
	<!ENTITY st12 "font-size:6px;font-family:'NSimSun';">
	<!ENTITY st13 "fill:none;stroke:#ff0000;stroke-linecap:round;stroke-linejoin:round;">
	<!-- Yellow fill  -->
	<!ENTITY st14 "fill:#FFFF00;stroke:#FFFF00; stroke-width:0.1;stroke-linecap:round;stroke-linejoin:round;">
	<!ENTITY st15 "font-size:6px;font-family:'NSimSun';adobe-font-script:japanese;">
	<!ENTITY st16 "1.00 0.00 0.00 1.00">
	<!ENTITY st17 "0.00 -1.00 1.00 0.00">
	<!ENTITY st18 "font-size:6px;font-family:'NSimSun';">
	<!ENTITY st19 "font-size:9px;font-family:'NSimSun';">
	<!ENTITY st20 "font-size:6px;font-family:'NSimSun';adobe-font-script:japanese;">
	<!ENTITY st21 "font-size:7px;font-family:'NSimSun';adobe-font-script:japanese;">
	<!ATTLIST svg
		xmlns:ewd CDATA #FIXED "http://shcl.co.jp/ewd"
		xmlns:a CDATA #FIXED "http://ns.adobe.com/AdobeSVGViewerExtensions/3.0/"
		ewd:ver CDATA #IMPLIED
	>
	<!ATTLIST a
		ewd:lineID CDATA #IMPLIED
		ewd:groupID CDATA #IMPLIED
		ewd:figtype CDATA #IMPLIED
		ewd:code CDATA #IMPLIED
		ewd:figID CDATA #IMPLIED
		ewd:pinNo CDATA #IMPLIED
		ewd:comment CDATA #IMPLIED >
	<!ATTLIST g
		ewd:lineID CDATA #IMPLIED
		ewd:groupID CDATA #IMPLIED
		ewd:figtype CDATA #IMPLIED
		ewd:code CDATA #IMPLIED
		ewd:figID CDATA #IMPLIED
		ewd:pinNo CDATA #IMPLIED
		ewd:comment CDATA #IMPLIED >
	<!ATTLIST text
		ewd:textID CDATA #IMPLIED
		ewd:horAlign CDATA #IMPLIED >
	<!ATTLIST title
		ewd:textID CDATA #IMPLIED >
]>
<!-- Generator: Shintec Hozumi YS   -->
<svg onload="call_execInitLoadProc_svg('system')" style="overflow:visible;  enable-background:new 0 0 3555.779 710.000" viewBox="0 0 3559.901 710.000" height="710.000" width="3559.901" xml:space="preserve" ewd:ver="2.1.2.6F" xmlns="&ns_svg;" xmlns:ewd="http://shcl.co.jp/ewd" xmlns:a="http://ns.adobe.com/AdobeSVGViewerExtensions/3.0/" xmlns:xlink="&ns_xlink;">
<text style="font-size:6px;font-family:'NSimSun';" transform="matrix(&st17;  939.65  378.19 )">W</text><text style="font-size:6px;font-family:'NSimSun';" transform="matrix(&st17;  973.64  377.41 )">Y</text><text style="font-size:6px;font-family:'NSimSun';" transform="matrix(&st16;  574.49  279.93 )">E43(A),z1(B)</text><text style="font-size:6px;font-family:'NSimSun';" transform="matrix(&st16;  574.5  287.04 )" ewd:textID="5">空调放大器总成</text><text style="font-size:6px;font-family:'NSimSun';" transform="matrix(&st17;  718.68  266.93 )">B</text><text style="font-size:6px;font-family:'NSimSun';" transform="matrix(&st17;  829.17  142.86 )">R-B</text><text style="font-size:6px;font-family:'NSimSun';" transform="matrix(&st17;  718.68  181.94 )">B</text><text style="font-size:6px;font-family:'NSimSun';" transform="matrix(&st16;  659.48  570.3 )">z1(B)</text><text style="font-size:6px;font-family:'NSimSun';" transform="matrix(&st16;  659.48  577.41 )" ewd:textID="8">空调线束总成</text><text style="font-size:6px;font-family:'NSimSun';" transform="matrix(&st16;  704.03  15.09 )">R-B</text><text style="font-size:6px;font-family:'NSimSun';" transform="matrix(&st16;  704.03  40.58 )">R-B</text><g ewd:figtype="rb" ewd:figID="11" ewd:code="FUSE29"><path style="stroke-width: 0.85 ;&st7;  " d=" M   832.86,    69.77  L   832.86,    95.27  " /><path style="stroke-width: 1.42 ;&st7;  " d=" M   834.99,    95.27  L   830.74,    95.27  " /><path style="stroke-width: 1.42 ;&st7;  " d=" M   834.99,   103.77  L   830.74,   103.77  " /><path style="stroke-width: 1.42 ;&st7;   " d=" M   839.23,    99.52  C   839.23     97.17    837.33     95.27    834.99     95.27  " /><path style="stroke-width: 1.42 ;&st7;   " d=" M   834.99,   103.77  C   837.33    103.77    839.23    101.87    839.23     99.52  " /><path style="stroke-width: 1.42 ;&st7;   " d=" M   826.49,    99.52  C   826.49    101.87    828.39    103.77    830.74    103.77  " /><path style="stroke-width: 1.42 ;&st7;   " d=" M   830.74,    95.27  C   828.39     95.27    826.49     97.17    826.49     99.52  " /><path style="stroke-width: 0.28 ;&st9;  " d=" M   832.86,    90.37  L   830.03,    87.54  L   830.03,    91.79  L   832.86,    94.62  L   835.69,    91.79  L   835.69,    87.54  L   832.86,    90.37  " /><text style="font-size:6px;font-family:'NSimSun';" transform="matrix(&st16;  824.82  32.08 )">(BAT)</text><text style="font-size:6px;font-family:'NSimSun';" transform="matrix(&st16;  826.68  86.47 )">2</text><text style="font-size:6px;font-family:'NSimSun';" transform="matrix(&st16;  831.06  101.49 )">1</text><text style="font-size:6px;font-family:'NSimSun';" transform="matrix(&st16;  849.29  56.17 )">40A <tspan x="0 " dy="6.0">H-LP-MAIN</tspan></text><path style="stroke-width: 1.42 ;&st7;   " d=" M   832.86,    47.11  C   830.12     48.72    829.21     52.25    830.82     54.99  " /><path style="stroke-width: 1.42 ;&st7;   " d=" M   830.82,    54.99  C   831.34     55.87    831.98     56.51    832.86     57.03  " /><path style="stroke-width: 0.85 ;&st7;   " d=" M   834.28,    68.36  C   834.28     67.57    833.64     66.94    832.86     66.94  " /><path style="stroke-width: 0.85 ;&st7;   " d=" M   832.86,    66.94  C   832.08     66.94    831.44     67.57    831.44     68.36  " /><path style="stroke-width: 0.85 ;&st7;   " d=" M   831.44,    68.36  C   831.44     69.14    832.08     69.77    832.86     69.77  " /><path style="stroke-width: 0.85 ;&st7;   " d=" M   832.86,    69.77  C   833.64     69.77    834.28     69.14    834.28     68.36  " /><path style="stroke-width: 0.85 ;&st7;   " d=" M   834.28,    45.69  C   834.28     44.91    833.64     44.28    832.86     44.28  " /><path style="stroke-width: 0.85 ;&st7;   " d=" M   832.86,    44.28  C   832.08     44.28    831.44     44.91    831.44     45.69  " /><path style="stroke-width: 0.85 ;&st7;   " d=" M   831.44,    45.69  C   831.44     46.48    832.08     47.11    832.86     47.11  " /><path style="stroke-width: 0.85 ;&st7;   " d=" M   832.86,    47.11  C   833.64     47.11    834.28     46.48    834.28     45.69  " /><path style="stroke-width: 1.42 ;&st7;   " d=" M   832.86,    66.94  C   835.60     65.33    836.51     61.80    834.90     59.06  " /><path style="stroke-width: 1.42 ;&st7;   " d=" M   834.90,    59.06  C   834.38     58.18    833.74     57.55    832.86     57.03  " /><path style="stroke-width: 1.42 ;&st7;  " d=" M   820.11,    35.78  L   820.11,    78.27  L   845.61,    78.27  L   845.61,    35.78  L   820.11,    35.78  " /></g><g ewd:figtype="rb" ewd:figID="12" ewd:code="1"><text style="font-size:6px;font-family:'NSimSun';" transform="matrix(&st16;  690.7  137.46 )">3</text><text style="font-size:6px;font-family:'NSimSun';" transform="matrix(&st16;  716.2  137.46 )">2</text><text style="font-size:6px;font-family:'NSimSun';" transform="matrix(&st16;  690.7  91.58 )">5</text><text style="font-size:6px;font-family:'NSimSun';" transform="matrix(&st16;  716.19  91.58 )">1</text><path style="stroke-width: 1.42 ;&st7;  " d=" M   724.50,   154.76  L   720.25,   154.76  " /><path style="stroke-width: 1.42 ;&st7;  " d=" M   724.50,   163.26  L   720.25,   163.26  " /><path style="stroke-width: 1.42 ;&st7;   " d=" M   720.25,   154.76  C   717.91    154.76    716.01    156.66    716.01    159.01  " /><path style="stroke-width: 1.42 ;&st7;   " d=" M   716.01,   159.01  C   716.01    161.36    717.91    163.26    720.25    163.26  " /><path style="stroke-width: 1.42 ;&st7;   " d=" M   724.50,   163.26  C   726.85    163.26    728.75    161.36    728.75    159.01  " /><path style="stroke-width: 1.42 ;&st7;   " d=" M   728.75,   159.01  C   728.75    156.66    726.85    154.76    724.50    154.76  " /><path style="stroke-width: 0.28 ;&st9;  " d=" M   722.38,   149.86  L   719.55,   147.03  L   719.55,   151.28  L   722.38,   154.11  L   725.21,   151.28  L   725.21,   147.03  L   722.38,   149.86  " /><text style="font-size:6px;font-family:'NSimSun';" transform="matrix(&st16;  720.58  160.98 )">1</text><path style="stroke-width: 1.42 ;&st7;  " d=" M   724.50,    61.28  L   720.25,    61.28  " /><path style="stroke-width: 1.42 ;&st7;  " d=" M   724.50,    69.77  L   720.25,    69.77  " /><path style="stroke-width: 1.42 ;&st7;   " d=" M   720.25,    61.28  C   717.91     61.28    716.01     63.18    716.01     65.52  " /><path style="stroke-width: 1.42 ;&st7;   " d=" M   716.01,    65.52  C   716.01     67.87    717.91     69.77    720.25     69.77  " /><path style="stroke-width: 1.42 ;&st7;   " d=" M   724.50,    69.77  C   726.85     69.77    728.75     67.87    728.75     65.52  " /><path style="stroke-width: 1.42 ;&st7;   " d=" M   728.75,    65.52  C   728.75     63.18    726.85     61.28    724.50     61.28  " /><path style="stroke-width: 0.28 ;&st9;  " d=" M   722.38,    74.67  L   725.21,    77.50  L   725.21,    73.25  L   722.38,    70.42  L   719.55,    73.25  L   719.55,    77.50  L   722.38,    74.67  " /><text style="font-size:6px;font-family:'NSimSun';" transform="matrix(&st16;  720.58  67.49 )">1</text><path style="stroke-width: 1.42 ;&st7;   " d=" M   696.88,   146.26  C   694.67    144.44    691.54    144.50    689.40    146.40  " /><path style="stroke-width: 1.42 ;&st7;   " d=" M   696.88,   146.26  C   699.10    148.08    702.23    148.02    704.37    146.12  " /><path style="stroke-width: 0.85 ;&st7;  " d=" M   722.38,    69.77  L   722.38,    95.27  " /><path style="stroke-width: 0.85 ;&st7;  " d=" M   696.88,    69.77  L   696.88,    95.27  " /><path style="stroke-width: 0.85 ;&st7;  " d=" M   696.88,   129.26  L   696.88,   146.26  " /><path style="stroke-width: 0.85 ;&st7;  " d=" M   722.38,   129.26  L   722.38,   154.76  " /><text style="font-size:6px;font-family:'NSimSun';" transform="matrix(&st16;  734.55  111.41 )" ewd:textID="23">H-LP<tspan x="0 " dy="6.0">继电器</tspan></text><path style="stroke-width: 1.42 ;&st7;  " d=" M   699.01,    61.28  L   694.76,    61.28  " /><path style="stroke-width: 1.42 ;&st7;  " d=" M   699.01,    69.77  L   694.76,    69.77  " /><path style="stroke-width: 1.42 ;&st7;   " d=" M   694.76,    61.28  C   692.41     61.28    690.51     63.18    690.51     65.52  " /><path style="stroke-width: 1.42 ;&st7;   " d=" M   690.51,    65.52  C   690.51     67.87    692.41     69.77    694.76     69.77  " /><path style="stroke-width: 1.42 ;&st7;   " d=" M   699.01,    69.77  C   701.35     69.77    703.26     67.87    703.26     65.52  " /><path style="stroke-width: 1.42 ;&st7;   " d=" M   703.26,    65.52  C   703.26     63.18    701.35     61.28    699.01     61.28  " /><path style="stroke-width: 0.28 ;&st9;  " d=" M   696.88,    74.67  L   699.72,    77.50  L   699.72,    73.25  L   696.88,    70.42  L   694.05,    73.25  L   694.05,    77.50  L   696.88,    74.67  " /><text style="font-size:6px;font-family:'NSimSun';" transform="matrix(&st16;  695.08  67.49 )">1</text><path style="stroke-width: 1.42 ;&st7;  " d=" M   696.88,   122.18  L   691.22,    99.52  " /><path style="stroke-width: 0.85 ;&st7;  " d=" M   696.88,   129.26  L   696.88,   125.01  " /><path style="stroke-width: 0.85 ;&st7;  " d=" M   696.88,    99.52  L   696.88,    95.27  " /><path style="stroke-width: 0.85 ;&st7;  " d=" M   722.38,    95.27  L   722.38,   103.77  " /><path style="stroke-width: 0.85 ;&st7;  " d=" M   722.38,   120.77  L   722.38,   129.26  " /><path style="stroke-width: 0.85 ;&st7;   " d=" M   698.30,   123.60  C   698.30    122.82    697.67    122.18    696.88    122.18  " /><path style="stroke-width: 0.85 ;&st7;   " d=" M   696.88,   122.18  C   696.10    122.18    695.47    122.82    695.47    123.60  " /><path style="stroke-width: 0.85 ;&st7;   " d=" M   695.47,   123.60  C   695.47    124.38    696.10    125.01    696.88    125.01  " /><path style="stroke-width: 0.85 ;&st7;   " d=" M   696.88,   125.01  C   697.67    125.01    698.30    124.38    698.30    123.60  " /><path style="stroke-width: 0.85 ;&st7;   " d=" M   698.30,   100.94  C   698.30    100.15    697.67     99.52    696.88     99.52  " /><path style="stroke-width: 0.85 ;&st7;   " d=" M   696.88,    99.52  C   696.10     99.52    695.47    100.15    695.47    100.94  " /><path style="stroke-width: 0.85 ;&st7;   " d=" M   695.47,   100.94  C   695.47    101.72    696.10    102.35    696.88    102.35  " /><path style="stroke-width: 0.85 ;&st7;   " d=" M   696.88,   102.35  C   697.67    102.35    698.30    101.72    698.30    100.94  " /><path style="stroke-width: 0.85 ;&st7;   " d=" M   719.85,   109.79  C   721.22    111.18    723.46    111.21    724.86    109.84  " /><path style="stroke-width: 0.85 ;&st7;   " d=" M   724.86,   109.84  C   726.26    108.47    726.28    106.23    724.91    104.83  " /><path style="stroke-width: 0.85 ;&st7;   " d=" M   724.91,   104.83  C   724.22    104.12    723.37    103.77    722.38    103.77  " /><path style="stroke-width: 0.85 ;&st7;   " d=" M   719.85,   114.75  C   721.22    116.14    723.46    116.17    724.86    114.80  " /><path style="stroke-width: 0.85 ;&st7;   " d=" M   724.86,   114.80  C   726.26    113.43    726.28    111.18    724.91    109.79  " /><path style="stroke-width: 0.85 ;&st7;   " d=" M   724.91,   109.79  C   723.54    108.39    721.30    108.37    719.90    109.74  " /><path style="stroke-width: 0.85 ;&st7;   " d=" M   719.90,   109.74  C   719.88    109.75    719.87    109.77    719.85    109.79  " /><path style="stroke-width: 0.85 ;&st7;   " d=" M   722.38,   120.77  C   724.33    120.77    725.92    119.18    725.92    117.22  " /><path style="stroke-width: 0.85 ;&st7;   " d=" M   725.92,   117.22  C   725.92    115.27    724.33    113.68    722.38    113.68  " /><path style="stroke-width: 0.85 ;&st7;   " d=" M   722.38,   113.68  C   721.39    113.68    720.54    114.04    719.85    114.75  " /><path style="stroke-width: 1.42 ;&st7;  " d=" M   730.88,    95.27  L   688.38,    95.27  L   688.38,   129.26  L   730.88,   129.26  L   730.88,    95.27  " /></g><g ewd:figtype="conn" ewd:figID="21" ewd:code="E43,z1"><g ewd:lineID="23"><text style="font-size:6px;font-family:'NSimSun';" transform="matrix(&st16;  710.58  288.17 )">27</text><path style="stroke-width: 1.42 ;&st7;   " d=" M   726.91,   286.20  C   726.91    283.70    724.88    281.67    722.38    281.67  " /><path style="stroke-width: 1.42 ;&st7;   " d=" M   722.38,   281.67  C   719.88    281.67    717.85    283.70    717.85    286.20  " /><path style="stroke-width: 1.42 ;&st7;   " d=" M   717.85,   286.20  C   717.85    288.71    719.88    290.74    722.38    290.74  " /><path style="stroke-width: 1.42 ;&st7;   " d=" M   722.38,   290.74  C   724.88    290.74    726.91    288.71    726.91    286.20  " /><text style="font-size:6px;font-family:'NSimSun';" transform="matrix(&st16;  720.07  288.17 )">A</text><text style="font-size:6px;font-family:'NSimSun';" transform="matrix(&st16;  716.51  298.37 )">HLS</text></g><g ewd:lineID="25"><text style="font-size:6px;font-family:'NSimSun';" transform="matrix(&st16;  931.55  348.23 )">12</text><text style="font-size:6px;font-family:'NSimSun';" transform="matrix(&st16;  941.04  348.23 )">A</text><path style="stroke-width: 1.42 ;&st7;   " d=" M   947.87,   346.26  C   947.87    343.76    945.85    341.73    943.34    341.73  " /><path style="stroke-width: 1.42 ;&st7;   " d=" M   943.34,   341.73  C   940.84    341.73    938.81    343.76    938.81    346.26  " /><path style="stroke-width: 1.42 ;&st7;   " d=" M   938.81,   346.26  C   938.81    348.76    940.84    350.79    943.34    350.79  " /><path style="stroke-width: 1.42 ;&st7;   " d=" M   943.34,   350.79  C   945.85    350.79    947.87    348.76    947.87    346.26  " /><text style="font-size:6px;font-family:'NSimSun';" transform="matrix(&st16;  934.99  338.03 )">CANL</text></g><g ewd:lineID="26"><text style="font-size:6px;font-family:'NSimSun';" transform="matrix(&st16;  965.54  348.23 )">11</text><text style="font-size:6px;font-family:'NSimSun';" transform="matrix(&st16;  975.03  348.23 )">A</text><path style="stroke-width: 1.42 ;&st7;   " d=" M   981.87,   346.26  C   981.87    343.76    979.84    341.73    977.34    341.73  " /><path style="stroke-width: 1.42 ;&st7;   " d=" M   977.34,   341.73  C   974.83    341.73    972.80    343.76    972.80    346.26  " /><path style="stroke-width: 1.42 ;&st7;   " d=" M   972.80,   346.26  C   972.80    348.76    974.83    350.79    977.34    350.79  " /><path style="stroke-width: 1.42 ;&st7;   " d=" M   977.34,   350.79  C   979.84    350.79    981.87    348.76    981.87    346.26  " /><text style="font-size:6px;font-family:'NSimSun';" transform="matrix(&st16;  968.56  338.03 )">CANH</text></g><g ewd:lineID="88"><text style="font-size:6px;font-family:'NSimSun';" transform="matrix(&st16;  603.2  348.23 )">3</text><path style="stroke-width: 1.42 ;&st7;   " d=" M   616.43,   346.26  C   616.43    343.76    614.40    341.73    611.90    341.73  " /><path style="stroke-width: 1.42 ;&st7;   " d=" M   611.90,   341.73  C   609.39    341.73    607.37    343.76    607.37    346.26  " /><path style="stroke-width: 1.42 ;&st7;   " d=" M   607.37,   346.26  C   607.37    348.76    609.39    350.79    611.90    350.79  " /><path style="stroke-width: 1.42 ;&st7;   " d=" M   611.90,   350.79  C   614.40    350.79    616.43    348.76    616.43    346.26  " /><text style="font-size:6px;font-family:'NSimSun';" transform="matrix(&st16;  609.71  348.23 )">B</text><text style="font-size:6px;font-family:'NSimSun';" transform="matrix(&st16;  606.03  338.03 )">BUS</text></g><g ewd:lineID="90"><text style="font-size:6px;font-family:'NSimSun';" transform="matrix(&st16;  569.21  348.23 )">2</text><path style="stroke-width: 1.42 ;&st7;   " d=" M   582.44,   346.26  C   582.44    343.76    580.41    341.73    577.90    341.73  " /><path style="stroke-width: 1.42 ;&st7;   " d=" M   577.90,   341.73  C   575.40    341.73    573.37    343.76    573.37    346.26  " /><path style="stroke-width: 1.42 ;&st7;   " d=" M   573.37,   346.26  C   573.37    348.76    575.40    350.79    577.90    350.79  " /><path style="stroke-width: 1.42 ;&st7;   " d=" M   577.90,   350.79  C   580.41    350.79    582.44    348.76    582.44    346.26  " /><text style="font-size:6px;font-family:'NSimSun';" transform="matrix(&st16;  575.72  348.23 )">B</text><text style="font-size:6px;font-family:'NSimSun';" transform="matrix(&st16;  568.89  338.03 )">BUS G</text></g><g ewd:lineID="94"><text style="font-size:6px;font-family:'NSimSun';" transform="matrix(&st16;  637.2  348.23 )">4</text><text style="font-size:6px;font-family:'NSimSun';" transform="matrix(&st16;  643.7  348.23 )">B</text><path style="stroke-width: 1.42 ;&st7;   " d=" M   650.42,   346.26  C   650.42    343.76    648.40    341.73    645.89    341.73  " /><path style="stroke-width: 1.42 ;&st7;   " d=" M   645.89,   341.73  C   643.39    341.73    641.36    343.76    641.36    346.26  " /><path style="stroke-width: 1.42 ;&st7;   " d=" M   641.36,   346.26  C   641.36    348.76    643.39    350.79    645.89    350.79  " /><path style="stroke-width: 1.42 ;&st7;   " d=" M   645.89,   350.79  C   648.40    350.79    650.42    348.76    650.42    346.26  " /><text style="font-size:6px;font-family:'NSimSun';" transform="matrix(&st16;  637.15  338.03 )">B BUS</text></g></g><g ewd:figtype="jb" ewd:figID="48" ewd:code="3"><path style="stroke-width: 1.42 ;&st7;  " d=" M   724.50,   248.24  L   720.25,   248.24  " /><path style="stroke-width: 1.42 ;&st7;   " d=" M   720.25,   197.25  C   717.91    197.25    716.01    199.15    716.01    201.50  " /><path style="stroke-width: 1.42 ;&st7;  " d=" M   724.50,   197.25  L   720.25,   197.25  " /><path style="stroke-width: 1.42 ;&st7;  " d=" M   724.50,   205.75  L   720.25,   205.75  " /><path style="stroke-width: 1.42 ;&st7;  " d=" M   724.50,   239.75  L   720.25,   239.75  " /><path style="stroke-width: 1.42 ;&st7;   " d=" M   716.01,   201.50  C   716.01    203.85    717.91    205.75    720.25    205.75  " /><path style="stroke-width: 1.42 ;&st7;   " d=" M   724.50,   205.75  C   726.85    205.75    728.75    203.85    728.75    201.50  " /><path style="stroke-width: 1.42 ;&st7;   " d=" M   728.75,   201.50  C   728.75    199.15    726.85    197.25    724.50    197.25  " /><path style="stroke-width: 1.42 ;&st7;   " d=" M   720.25,   239.75  C   717.91    239.75    716.01    241.65    716.01    243.99  " /><path style="stroke-width: 1.42 ;&st7;   " d=" M   716.01,   243.99  C   716.01    246.34    717.91    248.24    720.25    248.24  " /><path style="stroke-width: 1.42 ;&st7;   " d=" M   724.50,   248.24  C   726.85    248.24    728.75    246.34    728.75    243.99  " /><path style="stroke-width: 1.42 ;&st7;   " d=" M   728.75,   243.99  C   728.75    241.65    726.85    239.75    724.50    239.75  " /><path style="stroke-width: 0.28 ;&st9;  " d=" M   722.38,   210.65  L   725.21,   213.48  L   725.21,   209.23  L   722.38,   206.40  L   719.55,   209.23  L   719.55,   213.48  L   722.38,   210.65  " /><path style="stroke-width: 0.28 ;&st9;  " d=" M   722.38,   234.85  L   719.55,   232.02  L   719.55,   236.27  L   722.38,   239.10  L   725.21,   236.27  L   725.21,   232.02  L   722.38,   234.85  " /><path style="stroke-width: 0.85 ;&st7;  " d=" M   722.38,   239.75  L   722.38,   205.75  " /><text style="font-size:6px;font-family:'NSimSun';" transform="matrix(&st16;  718.52  203.47 )">3A</text><text style="font-size:6px;font-family:'NSimSun';" transform="matrix(&st16;  708.77  203.47 )">35</text><text style="font-size:6px;font-family:'NSimSun';" transform="matrix(&st16;  718.41  245.96 )">3C</text><text style="font-size:6px;font-family:'NSimSun';" transform="matrix(&st16;  708.77  245.96 )">44</text></g></svg>