<?xml version="1.0" encoding="utf-8"?>
<!DOCTYPE svg PUBLIC "-//W3C//DTD SVG 1.0//EN" "http://www.w3.org/TR/2001/REC-SVG-20010904/DTD/svg10.dtd"[
	<!ENTITY ns_flows "http://ns.adobe.com/Flows/1.0/">
	<!ENTITY ns_svg "http://www.w3.org/2000/svg">
	<!ENTITY ns_xlink "http://www.w3.org/1999/xlink">
	<!ENTITY st0 "font-size:7px;font-family:'NSimSun';adobe-font-script:japanese;">
	<!ENTITY st1 "font-size:6px;font-family:'NSimSun';">
	<!-- White fill  -->
	<!ENTITY st2 "fill:#FFFFFF;stroke:#000000; stroke-width:1.41;stroke-linecap:round;stroke-linejoin:round;">
	<!-- Yellow fill  -->
	<!ENTITY st3 "fill:#FFFFCC;stroke:#FFFFCC; stroke-width:0.1;stroke-linecap:round;stroke-linejoin:round;">
	<!-- Gray fill  -->
	<!ENTITY st4 "fill:#CCCCCC;stroke:#CCCCCC; stroke-width:0.1;stroke-linecap:round;stroke-linejoin:round;">
	<!-- Light-blue fill -->
	<!ENTITY st5 "fill:#CCECF4;stroke:#000000; stroke-width:1.133;stroke-linecap:round;stroke-linejoin:round;">
	<!ENTITY st6 "fill:none;stroke-linecap:butt; stroke-linejoin:round;">
	<!ENTITY st7 "fill:none;stroke:#000000;stroke-linecap:round;stroke-linejoin:round;">
	<!ENTITY st8 "enable-background:new    ;">
	<!-- Black fill -->
	<!ENTITY st9 "fill:#000000;stroke:#000000; stroke-linecap:round;stroke-linejoin:round;">
	<!-- SRS note   -->
	<!ENTITY st10 "font-size:9px;font-family:'NSimSun';">
	<!ENTITY st11 "font-size:9px;font-family:'NSimSun';">
	<!ENTITY st12 "font-size:6px;font-family:'NSimSun';">
	<!ENTITY st13 "fill:none;stroke:#ff0000;stroke-linecap:round;stroke-linejoin:round;">
	<!-- Yellow fill  -->
	<!ENTITY st14 "fill:#FFFF00;stroke:#FFFF00; stroke-width:0.1;stroke-linecap:round;stroke-linejoin:round;">
	<!ENTITY st15 "font-size:6px;font-family:'NSimSun';adobe-font-script:japanese;">
	<!ENTITY st16 "1.00 0.00 0.00 1.00">
	<!ENTITY st17 "0.00 -1.00 1.00 0.00">
	<!ENTITY st18 "font-size:6px;font-family:'NSimSun';">
	<!ENTITY st19 "font-size:9px;font-family:'NSimSun';">
	<!ENTITY st20 "font-size:6px;font-family:'NSimSun';adobe-font-script:japanese;">
	<!ENTITY st21 "font-size:7px;font-family:'NSimSun';adobe-font-script:japanese;">
	<!ATTLIST svg
		xmlns:ewd CDATA #FIXED "http://shcl.co.jp/ewd"
		xmlns:a CDATA #FIXED "http://ns.adobe.com/AdobeSVGViewerExtensions/3.0/"
		ewd:ver CDATA #IMPLIED
	>
	<!ATTLIST a
		ewd:lineID CDATA #IMPLIED
		ewd:groupID CDATA #IMPLIED
		ewd:figtype CDATA #IMPLIED
		ewd:code CDATA #IMPLIED
		ewd:figID CDATA #IMPLIED
		ewd:pinNo CDATA #IMPLIED
		ewd:comment CDATA #IMPLIED >
	<!ATTLIST g
		ewd:lineID CDATA #IMPLIED
		ewd:groupID CDATA #IMPLIED
		ewd:figtype CDATA #IMPLIED
		ewd:code CDATA #IMPLIED
		ewd:figID CDATA #IMPLIED
		ewd:pinNo CDATA #IMPLIED
		ewd:comment CDATA #IMPLIED >
	<!ATTLIST text
		ewd:textID CDATA #IMPLIED
		ewd:horAlign CDATA #IMPLIED >
	<!ATTLIST title
		ewd:textID CDATA #IMPLIED >
]>
<!-- Generator: Shintec Hozumi YS   -->
<svg onload="call_execInitLoadProc_svg('system')" style="overflow:visible;  enable-background:new 0 0 3068.696 710.000" viewBox="0 0 3076.494 710.000" height="710.000" width="3076.494" xml:space="preserve" ewd:ver="2.1.2.6F" xmlns="&ns_svg;" xmlns:ewd="http://shcl.co.jp/ewd" xmlns:a="http://ns.adobe.com/AdobeSVGViewerExtensions/3.0/" xmlns:xlink="&ns_xlink;"><script type="text/javascript" xlink:href="../../../../../system/js/ewd/fig/svgfig.js" xmlns:xlink="http://www.w3.org/1999/xlink" />
<g id="ewd_top"><a ewd:figtype="conn" style="cursor:pointer;" ewd:code="E31" ewd:figID="1"><path style="&st5;" d=" M   259.21,   205.75  L   259.21,   163.26  L   284.70,   163.26  L   284.70,   205.75  L   259.21,   205.75 " /><title ewd:textID="16">冷却器（车内温度传感器）热敏电阻</title></a><a ewd:figtype="rb" style="cursor:pointer;" ewd:code="FUSE33" ewd:figID="2"><path style="fill:#CCECF4;stroke:#000000; stroke-width:0; stroke-linecap:round;stroke-linejoin:round; " d=" M    21.25,    35.78  L    21.25,    78.27  L    46.74,    78.27  L    46.74,    35.78  L    21.25,    35.78 " /></a><a ewd:figtype="rb" style="cursor:pointer;" ewd:code="FUSE6" ewd:figID="3"><path style="fill:#CCECF4;stroke:#000000; stroke-width:0; stroke-linecap:round;stroke-linejoin:round; " d=" M   165.72,    35.78  L   165.72,    78.27  L   191.22,    78.27  L   191.22,    35.78  L   165.72,    35.78 " /></a><a ewd:figtype="conn" style="cursor:pointer;" ewd:code="F1" ewd:figID="4"><path style="&st5;" d=" M   322.95,   146.26  L   424.93,   146.26  L   424.93,   112.27  L   322.95,   112.27  L   322.95,   146.26 " /><title ewd:textID="17">冷却器（阳光传感器）热敏电阻</title></a><a ewd:figtype="conn" style="cursor:pointer;" ewd:code="A13" ewd:figID="5"><path style="&st5;" d=" M  1070.82,   520.20  L  1189.80,   520.20  L  1189.80,   486.20  L  1070.82,   486.20  L  1070.82,   520.20 " /><title ewd:textID="7">空调压力传感器</title></a><a ewd:figtype="conn" style="cursor:pointer;" ewd:code="E30" ewd:figID="6"><path style="&st5;" d=" M   118.98,   324.73  L    17.00,   324.73  L    17.00,   290.74  L   118.98,   290.74  L   118.98,   324.73 " /><title ewd:textID="9">带风扇的鼓风机马达分总成</title></a><a ewd:figtype="conn" style="cursor:pointer;" ewd:code="E20" ewd:figID="7"><path style="&st5;" d=" M  1325.78,   290.74  L  1325.78,   324.73  L  1402.27,   324.73  L  1402.27,   290.74  L  1325.78,   290.74 " /><title ewd:textID="4">空调控制总成</title></a><a ewd:figtype="conn" style="cursor:pointer;" ewd:code="E71" ewd:figID="8"><path style="&st5;" d=" M   220.96,   443.71  L   220.96,   460.71  L   237.96,   460.71  L   237.96,   443.71  L   220.96,   443.71 " /><title ewd:textID="27">4 号接线连接器</title></a><a ewd:figtype="conn" style="cursor:pointer;" ewd:code="E71" ewd:figID="9"><path style="&st5;" d=" M  1376.77,   520.20  L  1376.77,   537.20  L  1393.77,   537.20  L  1393.77,   520.20  L  1376.77,   520.20 " /><title ewd:textID="27">4 号接线连接器</title></a><a ewd:figtype="conn" style="cursor:pointer;" ewd:code="B9" ewd:figID="10"><path style="&st5;" d=" M   314.45,   503.20  L   314.45,   537.20  L   348.44,   537.20  L   348.44,   503.20  L   314.45,   503.20 " /><title ewd:textID="12">带皮带轮的压缩机总成</title></a><a ewd:figtype="rb" style="cursor:pointer;" ewd:code="FUSE29" ewd:figID="11"><path style="fill:#CCECF4;stroke:#000000; stroke-width:0; stroke-linecap:round;stroke-linejoin:round; " d=" M   820.11,    35.78  L   820.11,    78.27  L   845.61,    78.27  L   845.61,    35.78  L   820.11,    35.78 " /></a><a ewd:figtype="rb" style="cursor:pointer;" ewd:code="1" ewd:figID="12"><path style="fill:#CCECF4;stroke:#000000; stroke-width:0; stroke-linecap:round;stroke-linejoin:round; " d=" M   730.88,    95.27  L   688.38,    95.27  L   688.38,   129.26  L   730.88,   129.26  L   730.88,    95.27 " /></a><a ewd:figtype="rb" style="cursor:pointer;" ewd:code="FUSE25" ewd:figID="13"><path style="fill:#CCECF4;stroke:#000000; stroke-width:0; stroke-linecap:round;stroke-linejoin:round; " d=" M  1720.96,    35.78  L  1720.96,    78.27  L  1746.46,    78.27  L  1746.46,    35.78  L  1720.96,    35.78 " /></a><a ewd:figtype="rb" style="cursor:pointer;" ewd:code="1" ewd:figID="14"><path style="fill:#CCECF4;stroke:#000000; stroke-width:0; stroke-linecap:round;stroke-linejoin:round; " d=" M  2005.66,   231.25  L  1963.17,   231.25  L  1963.17,   265.24  L  2005.66,   265.24  L  2005.66,   231.25 " /></a><a ewd:figtype="rb" style="cursor:pointer;" ewd:code="FUSE27" ewd:figID="15"><path style="fill:#CCECF4;stroke:#000000; stroke-width:0; stroke-linecap:round;stroke-linejoin:round; " d=" M  1848.44,    35.78  L  1848.44,    78.27  L  1873.94,    78.27  L  1873.94,    35.78  L  1848.44,    35.78 " /></a><a ewd:figtype="rb" style="cursor:pointer;" ewd:code="FUSE26" ewd:figID="16"><path style="fill:#CCECF4;stroke:#000000; stroke-width:0; stroke-linecap:round;stroke-linejoin:round; " d=" M  1984.42,    35.78  L  1984.42,    78.27  L  2009.91,    78.27  L  2009.91,    35.78  L  1984.42,    35.78 " /></a><a ewd:figtype="rb" style="cursor:pointer;" ewd:code="1" ewd:figID="17"><path style="fill:#CCECF4;stroke:#000000; stroke-width:0; stroke-linecap:round;stroke-linejoin:round; " d=" M  1869.69,   231.25  L  1827.19,   231.25  L  1827.19,   265.24  L  1869.69,   265.24  L  1869.69,   231.25 " /></a><a ewd:figtype="rb" style="cursor:pointer;" ewd:code="1" ewd:figID="18"><path style="fill:#CCECF4;stroke:#000000; stroke-width:0; stroke-linecap:round;stroke-linejoin:round; " d=" M  1742.21,   231.25  L  1699.72,   231.25  L  1699.72,   265.24  L  1742.21,   265.24  L  1742.21,   231.25 " /></a><a ewd:figtype="conn" style="cursor:pointer;" ewd:code="A38" ewd:figID="19"><path style="&st5;" d=" M  1589.23,   214.25  L  1657.22,   214.25  L  1657.22,   231.25  L  1589.23,   231.25  L  1589.23,   214.25 " /><title ewd:textID="26">2 号接线连接器</title></a><a ewd:figtype="conn" style="cursor:pointer;" ewd:code="A11,A12" ewd:figID="20"><path style="&st5;" d=" M  1716.71,   443.71  L  1716.71,   537.20  L  2039.66,   537.20  L  2039.66,   443.71  L  1716.71,   443.71 " /><title ewd:textID="32">快速加热器总成</title></a><a ewd:figtype="conn" style="cursor:pointer;" ewd:code="E43,z1" ewd:figID="21"><path style="&st5;" d=" M   161.47,   290.74  L  1266.29,   290.74  L  1266.29,   341.73  L   161.47,   341.73  L   161.47,   290.74 " /><title ewd:textID="3">空调放大器总成、空调线束总成</title></a><a ewd:figtype="conn" style="cursor:pointer;" ewd:code="E74" ewd:figID="22"><path style="&st5;" d=" M  2107.65,   460.71  L  2252.12,   460.71  L  2252.12,   435.21  L  2107.65,   435.21  L  2107.65,   460.71 " /><title ewd:textID="25">2 号 CAN 接线连接器</title></a><a ewd:figtype="conn" style="cursor:pointer;" ewd:code="A40,B39" ewd:figID="23"><path style="&st5;" d=" M  2184.14,   137.76  L  2524.08,   137.76  L  2524.08,    86.77  L  2184.14,    86.77  L  2184.14,   137.76 " /><title>ECM</title></a><a ewd:figtype="conn" style="cursor:pointer;" ewd:code="A39" ewd:figID="24"><path style="&st5;" d=" M  2192.63,   265.24  L  2192.63,   248.24  L  2252.12,   248.24  L  2252.12,   265.24  L  2192.63,   265.24 " /><title ewd:textID="23">1 号 CAN 接线连接器</title></a><a ewd:figtype="conn" style="cursor:pointer;" ewd:code="B16" ewd:figID="25"><path style="&st5;" d=" M  2447.59,   333.23  L  2447.59,   333.23  C  2447.59    333.23   2447.59    333.23   2447.59    333.23  L  2447.59,   333.23  C  2447.59    328.54   2451.40    324.73   2456.09    324.73  L  2456.09,   324.73  C  2460.78    324.73   2464.59    328.54   2464.59    333.23  L  2464.59,   333.23  L  2464.59,   350.23  C  2464.59    350.23   2464.59    350.23   2464.59    350.23  L  2464.59,   350.23  C  2464.59    354.92   2460.78    358.73   2456.09    358.73  L  2456.09,   358.73  C  2451.39    358.72   2447.59    354.92   2447.59    350.22  L  2447.59,   350.23 " /><title ewd:textID="18">曲轴位置传感器</title></a><a ewd:figtype="rb" style="cursor:pointer;" ewd:code="FUSE6" ewd:figID="26"><path style="fill:#CCECF4;stroke:#000000; stroke-width:0; stroke-linecap:round;stroke-linejoin:round; " d=" M  2672.80,    35.78  L  2672.80,    78.27  L  2698.30,    78.27  L  2698.30,    35.78  L  2672.80,    35.78 " /></a><a ewd:figtype="conn" style="cursor:pointer;" ewd:code="A20" ewd:figID="27"><path style="&st5;" d=" M  2927.76,   622.18  L  2927.76,   579.69  L  2953.26,   579.69  L  2953.26,   622.18  L  2927.76,   622.18 " /><title ewd:textID="28">车外温度传感器（热敏电阻总成）</title></a><a ewd:figtype="conn" style="cursor:pointer;" ewd:code="E55" ewd:figID="28"><path style="&st5;" d=" M  2634.56,   452.21  L  3067.99,   452.21  L  3067.99,   163.26  L  2634.56,   163.26  L  2634.56,   452.21 " /><title ewd:textID="11">组合仪表总成</title></a><a ewd:figtype="conn" style="cursor:pointer;" ewd:code="B4" ewd:figID="29"><path style="&st5;" d=" M  2324.36,   358.73  L  2324.36,   316.23  L  2349.86,   316.23  L  2349.86,   358.73  L  2324.36,   358.73 " /><title ewd:textID="19">E.F.I. 发动机冷却液温度传感器</title></a><a ewd:figtype="conn" style="cursor:pointer;" ewd:code="z1" ewd:figID="30"><path style="&st5;" d=" M   909.35,   350.79  L   382.44,   350.79  L   382.44,   562.69  L   909.35,   562.69  L   909.35,   350.79 " /><title ewd:textID="6">空调线束总成、空调放大器总成</title></a><a ewd:figtype="jb" style="cursor:pointer;" ewd:code="3" ewd:figID="42"><path style="&st4; " d=" M   161.47,   163.26  L   161.47,   214.25  L   186.97,   214.25  L   186.97,   163.26  L   161.47,   163.26  " /></a><a ewd:figtype="jb" style="cursor:pointer;" ewd:code="3" ewd:figID="43"><path style="&st4; " d=" M  1232.29,    95.27  L  1232.29,   180.26  L  1351.27,   180.26  L  1351.27,    95.27  L  1232.29,    95.27  " /></a><a ewd:figtype="jb" style="cursor:pointer;" ewd:code="3" ewd:figID="44"><path style="&st4; " d=" M   705.38,   197.25  L   705.38,   248.24  L   730.88,   248.24  L   730.88,   197.25  L   705.38,   197.25  " /></a><a ewd:figtype="jb" style="cursor:pointer;" ewd:code="3" ewd:figID="45"><path style="&st4; " d=" M  2762.04,    61.28  L  2762.04,   112.27  L  2787.53,   112.27  L  2787.53,    61.28  L  2762.04,    61.28  " /></a><a ewd:figtype="jb" style="cursor:pointer;" ewd:code="3" ewd:figID="46"><path style="&st4; " d=" M  2830.03,    35.78  L  2830.03,   103.77  L  2889.52,   103.77  L  2889.52,    35.78  L  2830.03,    35.78  " /></a><a ewd:figtype="jb" style="cursor:pointer;" ewd:code="3" ewd:figID="47"><path style="&st4; " d=" M  1580.74,    35.78  L  1580.74,   120.77  L  1648.72,   120.77  L  1648.72,    35.78  L  1580.74,    35.78  " /></a><a ewd:figtype="fuse" style="cursor:pointer;" ewd:code="FUSE33" ewd:figID="74"><path style="&st7; stroke-width:0;" d=" M    21.25,    35.78  L    21.25,    78.27  L    46.74,    78.27  L    46.74,    35.78  L    21.25,    35.78 " /></a><a ewd:figtype="fuse" style="cursor:pointer;" ewd:code="FUSE6" ewd:figID="75"><path style="&st7; stroke-width:0;" d=" M   165.72,    35.78  L   165.72,    78.27  L   191.22,    78.27  L   191.22,    35.78  L   165.72,    35.78 " /></a><a ewd:figtype="fuse" style="cursor:pointer;" ewd:code="FUSE29" ewd:figID="76"><path style="&st7; stroke-width:0;" d=" M   820.11,    35.78  L   820.11,    78.27  L   845.61,    78.27  L   845.61,    35.78  L   820.11,    35.78 " /></a><a ewd:figtype="fuse" style="cursor:pointer;" ewd:code="FUSE49" ewd:figID="77"><path style="&st7; stroke-width:0;" d=" M  1236.54,    95.27  L  1236.54,   137.76  L  1262.04,   137.76  L  1262.04,    95.27  L  1236.54,    95.27 " /></a><a ewd:figtype="fuse" style="cursor:pointer;" ewd:code="FUSE49" ewd:figID="78"><path style="&st7; stroke-width:0;" d=" M  1584.99,    35.78  L  1584.99,    78.27  L  1610.48,    78.27  L  1610.48,    35.78  L  1584.99,    35.78 " /></a><a ewd:figtype="fuse" style="cursor:pointer;" ewd:code="FUSE25" ewd:figID="79"><path style="&st7; stroke-width:0;" d=" M  1720.96,    35.78  L  1720.96,    78.27  L  1746.46,    78.27  L  1746.46,    35.78  L  1720.96,    35.78 " /></a><a ewd:figtype="fuse" style="cursor:pointer;" ewd:code="FUSE27" ewd:figID="80"><path style="&st7; stroke-width:0;" d=" M  1848.44,    35.78  L  1848.44,    78.27  L  1873.94,    78.27  L  1873.94,    35.78  L  1848.44,    35.78 " /></a><a ewd:figtype="fuse" style="cursor:pointer;" ewd:code="FUSE26" ewd:figID="81"><path style="&st7; stroke-width:0;" d=" M  1984.42,    35.78  L  1984.42,    78.27  L  2009.91,    78.27  L  2009.91,    35.78  L  1984.42,    35.78 " /></a><a ewd:figtype="fuse" style="cursor:pointer;" ewd:code="FUSE6" ewd:figID="82"><path style="&st7; stroke-width:0;" d=" M  2672.80,    35.78  L  2672.80,    78.27  L  2698.30,    78.27  L  2698.30,    35.78  L  2672.80,    35.78 " /></a><a ewd:figtype="fuse" style="cursor:pointer;" ewd:code="FUSE39" ewd:figID="83"><path style="&st7; stroke-width:0;" d=" M  2834.28,    35.78  L  2834.28,    78.27  L  2859.77,    78.27  L  2859.77,    35.78  L  2834.28,    35.78 " /></a><a style="cursor:pointer;" ewd:lineID="1"><path style="stroke:#000000;stroke-width: 5.10 ;&st6;" d=" M    33.99,   324.73  L    33.99,   681.67  " /><path style="stroke:#FFFFFF;stroke-width: 4.53 ;&st6;" d=" M    33.99,   324.73  L    33.99,   681.67  " /><path style="stroke:#000000;stroke-width: 1.13 ;&st6;" d=" M    33.99,   324.73  L    33.99,   681.67  " /></a><a style="cursor:pointer;" ewd:lineID="2"><path style="stroke:#00A0C6;stroke-width: 5.10 ;&st6;" d=" M    33.99,   220.48  L    33.99,   290.74  " /></a><a style="cursor:pointer;" ewd:lineID="3"><path style="stroke:#00A0C6;stroke-width: 5.10 ;&st6;" d=" M    33.99,   163.26  L    33.99,   205.75  " /></a><a style="cursor:pointer;" ewd:lineID="4"><path style="stroke:#00A0C6;stroke-width: 5.10 ;&st6;" d=" M    33.99,   103.77  L    33.99,   146.26  " /></a><a style="cursor:pointer;" ewd:lineID="5"><path style="stroke:#FF0000;stroke-width: 5.10 ;&st6;" d=" M   178.47,   350.79  L   178.47,   409.72  L   101.98,   409.72  L   101.98,   324.73  " /></a><a style="cursor:pointer;" ewd:lineID="6"> d=" M   178.47,   214.25  L   178.47,   281.67 
	
		<path style="stroke:#000000;stroke-width: 5.10 ;&st6;" d=" M   178.47,   214.25  L   178.47,   281.67  " /><path style="stroke:#FFFFFF;stroke-width: 4.53 ;&st6;" d=" M   178.47,   214.25  L   178.47,   281.67  " /></a><a style="cursor:pointer;" ewd:lineID="7"> d=" M   178.47,   103.77  L   178.47,   163.26 
	
		<path style="stroke:#000000;stroke-width: 5.10 ;&st6;" d=" M   178.47,   103.77  L   178.47,   163.26  " /><path style="stroke:#FFFFFF;stroke-width: 4.53 ;&st6;" d=" M   178.47,   103.77  L   178.47,   163.26  " /></a><a style="cursor:pointer;" ewd:lineID="8"><path style="stroke:#992903;stroke-width: 5.10 ;&st6;" d=" M   229.46,   460.71  L   229.46,   681.67  " /></a><a style="cursor:pointer;" ewd:lineID="9"><path style="stroke:#992903;stroke-width: 5.10 ;&st6;" d=" M   229.46,   350.79  L   229.46,   443.71  " /></a><a style="cursor:pointer;" ewd:lineID="10"><path style="stroke:#56077D;stroke-width: 5.10 ;&st6;" d=" M   229.46,   281.67  L   229.46,   137.76  L   271.95,   137.76  L   271.95,   163.26  " /></a><a style="cursor:pointer;" ewd:lineID="11"><path style="stroke:#999999;stroke-width: 5.10 ;&st6;" d=" M   271.95,   281.67  L   271.95,   205.75  " /></a><a style="cursor:pointer;" ewd:lineID="12"><path style="stroke:#000000;stroke-width: 5.10 ;&st6;" d=" M   331.44,   681.67  L   331.44,   605.18  " /><path style="stroke:#FFFFFF;stroke-width: 4.53 ;&st6;" d=" M   331.44,   681.67  L   331.44,   605.18  " /><path style="stroke:#000000;stroke-width: 1.13 ;&st6;" d=" M   331.44,   681.67  L   331.44,   605.18  " /></a><a style="cursor:pointer;" ewd:lineID="13"><path style="stroke:#000000;stroke-width: 5.10 ;&st6;" d=" M   331.44,   537.20  L   331.44,   588.19  " /><path style="stroke:#FFFFFF;stroke-width: 4.53 ;&st6;" d=" M   331.44,   537.20  L   331.44,   588.19  " /><path style="stroke:#000000;stroke-width: 1.13 ;&st6;" d=" M   331.44,   537.20  L   331.44,   588.19  " /></a><a style="cursor:pointer;" ewd:lineID="14"><path style="stroke:#7FC97F;stroke-width: 5.10 ;&st6;" d=" M   331.44,   503.20  L   331.44,   460.71  " /></a><a style="cursor:pointer;" ewd:lineID="15"><path style="stroke:#7FC97F;stroke-width: 5.10 ;&st6;" d=" M   331.44,   409.72  L   331.44,   445.98  " /></a><a style="cursor:pointer;" ewd:lineID="16"><path style="stroke:#7FC97F;stroke-width: 5.10 ;&st6;" d=" M   331.44,   394.99  L   331.44,   350.79  " /></a><a style="cursor:pointer;" ewd:lineID="17"><path style="stroke:#00A0C6;stroke-width: 5.10 ;&st6;" d=" M   339.94,   222.75  L   339.94,   281.67  " /></a><a style="cursor:pointer;" ewd:lineID="18"><path style="stroke:#00A0C6;stroke-width: 5.10 ;&st6;" d=" M   339.94,   146.26  L   339.94,   208.02  " /></a><a style="cursor:pointer;" ewd:lineID="19"><path style="stroke:#7FC97F;stroke-width: 5.10 ;&st6;" d=" M   407.93,   222.75  L   407.93,   281.67  " /></a><a style="cursor:pointer;" ewd:lineID="20"><path style="stroke:#7FC97F;stroke-width: 5.10 ;&st6;" d=" M   407.93,   146.26  L   407.93,   208.02  " /></a><a style="cursor:pointer;" ewd:lineID="21"><path style="stroke:#FF0000;stroke-width: 5.10 ;&st6;" d=" M   696.88,    61.28  L   696.88,    44.28  L   722.38,    44.28  L   722.38,    61.28  " /><path style="stroke:#FFFFFF;stroke-width: 2.27 ;&st6;" d=" M   696.88,    61.28  L   696.88,    44.28  L   722.38,    44.28  L   722.38,    61.28  " /><path style="stroke:#000000;stroke-width: 1.13 ;&st6;" d=" M   696.88,    61.28  L   696.88,    44.28  L   722.38,    44.28  L   722.38,    61.28  " /></a><a style="cursor:pointer;" ewd:lineID="22"><path style="stroke:#FF0000;stroke-width: 5.10 ;&st6;" d=" M   696.88,    61.28  L   696.88,    52.78  L   679.89,    35.78  L   679.89,    18.78  L   781.87,    18.78  L   781.87,   163.26  L   832.86,   163.26  L   832.86,   103.77  " /><path style="stroke:#FFFFFF;stroke-width: 2.27 ;&st6;" d=" M   696.88,    61.28  L   696.88,    52.78  L   679.89,    35.78  L   679.89,    18.78  L   781.87,    18.78  L   781.87,   163.26  L   832.86,   163.26  L   832.86,   103.77  " /><path style="stroke:#000000;stroke-width: 1.13 ;&st6;" d=" M   696.88,    61.28  L   696.88,    52.78  L   679.89,    35.78  L   679.89,    18.78  L   781.87,    18.78  L   781.87,   163.26  L   832.86,   163.26  L   832.86,   103.77  " /></a><a style="cursor:pointer;" ewd:lineID="23"><path style="stroke:#000000;stroke-width: 5.10 ;&st6;" d=" M   722.38,   281.67  L   722.38,   248.24  " /></a><a style="cursor:pointer;" ewd:lineID="24"><path style="stroke:#000000;stroke-width: 5.10 ;&st6;" d=" M   722.38,   163.26  L   722.38,   197.25  " /></a><a style="cursor:pointer;" ewd:lineID="25"> d=" M   943.34,   350.79  L   943.34,   639.18  L  2158.64,   639.18  L  2158.64,   460.71 
	
		<path style="stroke:#000000;stroke-width: 5.10 ;&st6;" d=" M   943.34,   350.79  L   943.34,   639.18  L  2158.64,   639.18  L  2158.64,   460.71  " /><path style="stroke:#FFFFFF;stroke-width: 4.53 ;&st6;" d=" M   943.34,   350.79  L   943.34,   639.18  L  2158.64,   639.18  L  2158.64,   460.71  " /></a><a style="cursor:pointer;" ewd:lineID="26"><path style="stroke:#FFE600;stroke-width: 5.10 ;&st6;" d=" M   977.34,   350.79  L   977.34,   613.68  L  2116.15,   613.68  L  2116.15,   460.71  " /></a><a style="cursor:pointer;" ewd:lineID="27"><path style="stroke:#000000;stroke-width: 5.10 ;&st6;" d=" M  1087.82,   409.72  L  1087.82,   486.20  " /></a><a style="cursor:pointer;" ewd:lineID="28"><path style="stroke:#56077D;stroke-width: 5.10 ;&st6;" d=" M  1087.82,   394.99  L  1087.82,   350.79  " /></a><a style="cursor:pointer;" ewd:lineID="29"> d=" M  1096.32,   281.67  L  1096.32,    27.28  L  1512.75,    27.28  L  1512.75,   165.24 
	
		<path style="stroke:#000000;stroke-width: 5.10 ;&st6;" d=" M  1096.32,   281.67  L  1096.32,    27.28  L  1512.75,    27.28  L  1512.75,   165.24  " /><path style="stroke:#FFFFFF;stroke-width: 4.53 ;&st6;" d=" M  1096.32,   281.67  L  1096.32,    27.28  L  1512.75,    27.28  L  1512.75,   165.24  " /></a><a style="cursor:pointer;" ewd:lineID="30"><path style="stroke:#00A0C6;stroke-width: 5.10 ;&st6;" d=" M  1130.31,   409.72  L  1130.31,   486.20  " /></a><a style="cursor:pointer;" ewd:lineID="31"><path style="stroke:#00A0C6;stroke-width: 5.10 ;&st6;" d=" M  1130.31,   394.99  L  1130.31,   350.79  " /></a><a style="cursor:pointer;" ewd:lineID="32"><path style="stroke:#F668B2;stroke-width: 5.10 ;&st6;" d=" M  1130.31,   281.67  L  1130.31,    44.28  L  1478.75,    44.28  L  1478.75,   165.52  " /></a><a style="cursor:pointer;" ewd:lineID="33"><path style="stroke:#FF0000;stroke-width: 5.10 ;&st6;" d=" M  1164.31,   281.67  L  1164.31,    61.28  L  1444.76,    61.28  L  1444.76,   165.52  " /></a><a style="cursor:pointer;" ewd:lineID="34"><path style="stroke:#008837;stroke-width: 5.10 ;&st6;" d=" M  1172.80,   409.72  L  1172.80,   486.20  " /></a><a style="cursor:pointer;" ewd:lineID="35"><path style="stroke:#008837;stroke-width: 5.10 ;&st6;" d=" M  1172.80,   394.99  L  1172.80,   350.79  " /></a><a style="cursor:pointer;" ewd:lineID="36"><path style="stroke:#00A0C6;stroke-width: 5.10 ;&st6;" d=" M  1249.29,   180.26  L  1249.29,   281.67  " /></a><a style="cursor:pointer;" ewd:lineID="37"><path style="stroke:#99D9E8;stroke-width: 5.10 ;&st6;" d=" M  1342.78,   324.73  L  1342.78,   409.72  L  1249.29,   409.72  L  1249.29,   350.79  " /></a><a style="cursor:pointer;" ewd:lineID="38"><path style="stroke:#000000;stroke-width: 5.10 ;&st6;" d=" M  1342.78,   290.74  L  1342.78,   180.26  " /></a><a style="cursor:pointer;" ewd:lineID="39"><path style="stroke:#000000;stroke-width: 5.10 ;&st6;" d=" M  1385.27,   537.20  L  1385.27,   681.67  " /><path style="stroke:#FFFFFF;stroke-width: 4.53 ;&st6;" d=" M  1385.27,   537.20  L  1385.27,   681.67  " /><path style="stroke:#000000;stroke-width: 1.13 ;&st6;" d=" M  1385.27,   537.20  L  1385.27,   681.67  " /></a><a style="cursor:pointer;" ewd:lineID="40"><path style="stroke:#000000;stroke-width: 5.10 ;&st6;" d=" M  1385.27,   324.73  L  1385.27,   520.20  " /><path style="stroke:#FFFFFF;stroke-width: 4.53 ;&st6;" d=" M  1385.27,   324.73  L  1385.27,   520.20  " /><path style="stroke:#000000;stroke-width: 1.13 ;&st6;" d=" M  1385.27,   324.73  L  1385.27,   520.20  " /></a><a style="cursor:pointer;" ewd:lineID="41"><path style="stroke:#FFE600;stroke-width: 5.10 ;&st6;" d=" M  1478.75,   180.26  L  1478.75,   392.72  L  1835.69,   392.72  L  1835.69,   307.73  " /></a><a style="cursor:pointer;" ewd:lineID="42"> d=" M  1512.75,   180.26  L  1512.75,   375.72  L  1708.21,   375.72  L  1708.21,   307.73 
	
		<path style="stroke:#000000;stroke-width: 5.10 ;&st6;" d=" M  1512.75,   180.26  L  1512.75,   375.72  L  1708.21,   375.72  L  1708.21,   307.73  " /><path style="stroke:#FFFFFF;stroke-width: 4.53 ;&st6;" d=" M  1512.75,   180.26  L  1512.75,   375.72  L  1708.21,   375.72  L  1708.21,   307.73  " /></a><a style="cursor:pointer;" ewd:lineID="43"><path style="stroke:#008837;stroke-width: 5.10 ;&st6;" d=" M  1597.73,   214.25  L  1597.73,   120.77  " /></a><a style="cursor:pointer;" ewd:lineID="44"><path style="stroke:#008837;stroke-width: 5.10 ;&st6;" d=" M  1648.72,   231.25  L  1648.72,   333.23  L  1929.18,   333.23  L  1929.18,   171.76  L  1971.67,   171.76  L  1971.67,   188.75  " /></a><a style="cursor:pointer;" ewd:lineID="45"><path style="stroke:#008837;stroke-width: 5.10 ;&st6;" d=" M  1708.21,   188.75  L  1708.21,   171.76  L  1648.72,   171.76  L  1648.72,   214.25  " /></a><a style="cursor:pointer;" ewd:lineID="46"> d=" M  1733.71,   434.65  L  1733.71,   307.73 
	
		<path style="stroke:#000000;stroke-width: 5.10 ;&st6;" d=" M  1733.71,   434.65  L  1733.71,   307.73  " /><path style="stroke:#FFFFFF;stroke-width: 4.53 ;&st6;" d=" M  1733.71,   434.65  L  1733.71,   307.73  " /></a><a style="cursor:pointer;" ewd:lineID="47"> d=" M  1733.71,   112.27  L  1733.71,   188.75 
	
		<path style="stroke:#000000;stroke-width: 5.10 ;&st6;" d=" M  1733.71,   112.27  L  1733.71,   188.75  " /><path style="stroke:#FFFFFF;stroke-width: 4.53 ;&st6;" d=" M  1733.71,   112.27  L  1733.71,   188.75  " /></a><a style="cursor:pointer;" ewd:lineID="48"><path style="stroke:#008837;stroke-width: 5.10 ;&st6;" d=" M  1835.69,   188.75  L  1835.69,   137.76  L  1623.23,   137.76  L  1623.23,   214.25  " /></a><a style="cursor:pointer;" ewd:lineID="49"><path style="stroke:#000000;stroke-width: 5.10 ;&st6;" d=" M  1861.19,   681.67  L  1861.19,   673.17  L  1844.19,   656.18  L  1733.71,   656.18  L  1733.71,   546.26  " /><path style="stroke:#FFFFFF;stroke-width: 4.53 ;&st6;" d=" M  1861.19,   681.67  L  1861.19,   673.17  L  1844.19,   656.18  L  1733.71,   656.18  L  1733.71,   546.26  " /><path style="stroke:#000000;stroke-width: 1.13 ;&st6;" d=" M  1861.19,   681.67  L  1861.19,   673.17  L  1844.19,   656.18  L  1733.71,   656.18  L  1733.71,   546.26  " /></a><a style="cursor:pointer;" ewd:lineID="50"><path style="stroke:#000000;stroke-width: 5.10 ;&st6;" d=" M  1861.19,   546.26  L  1861.19,   681.67  " /><path style="stroke:#FFFFFF;stroke-width: 4.53 ;&st6;" d=" M  1861.19,   546.26  L  1861.19,   681.67  " /><path style="stroke:#000000;stroke-width: 1.13 ;&st6;" d=" M  1861.19,   546.26  L  1861.19,   681.67  " /></a><a style="cursor:pointer;" ewd:lineID="51"><path style="stroke:#000000;stroke-width: 5.10 ;&st6;" d=" M  1861.19,   434.65  L  1861.19,   307.73  " /><path style="stroke:#FFFFFF;stroke-width: 4.53 ;&st6;" d=" M  1861.19,   434.65  L  1861.19,   307.73  " /><path style="stroke:#00A0C6;stroke-width: 1.13 ;&st6;" d=" M  1861.19,   434.65  L  1861.19,   307.73  " /></a><a style="cursor:pointer;" ewd:lineID="52"><path style="stroke:#000000;stroke-width: 5.10 ;&st6;" d=" M  1861.19,   188.75  L  1861.19,   112.27  " /><path style="stroke:#FFFFFF;stroke-width: 4.53 ;&st6;" d=" M  1861.19,   188.75  L  1861.19,   112.27  " /><path style="stroke:#00A0C6;stroke-width: 1.13 ;&st6;" d=" M  1861.19,   188.75  L  1861.19,   112.27  " /></a><a style="cursor:pointer;" ewd:lineID="53"><path style="stroke:#FF0000;stroke-width: 5.10 ;&st6;" d=" M  1971.67,   307.73  L  1971.67,   409.72  L  1444.76,   409.72  L  1444.76,   180.26  " /></a><a style="cursor:pointer;" ewd:lineID="54"> d=" M  1997.17,   307.73  L  1997.17,   434.65 
	
		<path style="stroke:#000000;stroke-width: 5.10 ;&st6;" d=" M  1997.17,   307.73  L  1997.17,   434.65  " /><path style="stroke:#FFFFFF;stroke-width: 4.53 ;&st6;" d=" M  1997.17,   307.73  L  1997.17,   434.65  " /></a><a style="cursor:pointer;" ewd:lineID="55"><path style="stroke:#000000;stroke-width: 5.10 ;&st6;" d=" M  1997.17,   188.75  L  1997.17,   112.27  " /><path style="stroke:#FFFFFF;stroke-width: 4.53 ;&st6;" d=" M  1997.17,   188.75  L  1997.17,   112.27  " /><path style="stroke:#FF0000;stroke-width: 1.13 ;&st6;" d=" M  1997.17,   188.75  L  1997.17,   112.27  " /></a><a style="cursor:pointer;" ewd:lineID="56"><path style="stroke:#00A0C6;stroke-width: 5.10 ;&st6;" d=" M  2201.13,   435.21  L  2201.13,   364.96  " /></a><a style="cursor:pointer;" ewd:lineID="57"><path style="stroke:#00A0C6;stroke-width: 5.10 ;&st6;" d=" M  2201.13,   350.23  L  2201.13,   265.24  " /></a><a style="cursor:pointer;" ewd:lineID="58"><path style="stroke:#000000;stroke-width: 5.10 ;&st6;" d=" M  2201.13,   248.24  L  2201.13,   146.83  " /></a><a style="cursor:pointer;" ewd:lineID="59"> d=" M  2243.63,   365.24  L  2243.63,   435.21 
	
		<path style="stroke:#000000;stroke-width: 5.10 ;&st6;" d=" M  2243.63,   365.24  L  2243.63,   435.21  " /><path style="stroke:#FFFFFF;stroke-width: 4.53 ;&st6;" d=" M  2243.63,   365.24  L  2243.63,   435.21  " /></a><a style="cursor:pointer;" ewd:lineID="60"> d=" M  2243.63,   265.24  L  2243.63,   350.23 
	
		<path style="stroke:#000000;stroke-width: 5.10 ;&st6;" d=" M  2243.63,   265.24  L  2243.63,   350.23  " /><path style="stroke:#FFFFFF;stroke-width: 4.53 ;&st6;" d=" M  2243.63,   265.24  L  2243.63,   350.23  " /></a><a style="cursor:pointer;" ewd:lineID="61"> d=" M  2243.63,   248.24  L  2243.63,   146.83 
	
		<path style="stroke:#000000;stroke-width: 5.10 ;&st6;" d=" M  2243.63,   248.24  L  2243.63,   146.83  " /><path style="stroke:#FFFFFF;stroke-width: 4.53 ;&st6;" d=" M  2243.63,   248.24  L  2243.63,   146.83  " /></a><a style="cursor:pointer;" ewd:lineID="62"><path style="stroke:#000000;stroke-width: 5.10 ;&st6;" d=" M  2337.11,   358.73  L  2337.11,   392.72  L  2388.10,   392.72  L  2388.10,   146.83  " /></a><a style="cursor:pointer;" ewd:lineID="63"><path style="stroke:#992903;stroke-width: 5.10 ;&st6;" d=" M  2337.11,   146.83  L  2337.11,   316.23  " /></a><a style="cursor:pointer;" ewd:lineID="64"><path style="stroke:#008837;stroke-width: 5.10 ;&st6;" d=" M  2456.09,   358.73  L  2456.09,   392.72  L  2507.08,   392.72  L  2507.08,   146.83  " /></a><a style="cursor:pointer;" ewd:lineID="65"><path style="stroke:#FF0000;stroke-width: 5.10 ;&st6;" d=" M  2456.09,   146.83  L  2456.09,   324.73  " /></a><a style="cursor:pointer;" ewd:lineID="66"><path style="stroke:#992903;stroke-width: 5.10 ;&st6;" d=" M  2541.08,   426.71  L  2541.08,   681.67  " /></a><a style="cursor:pointer;" ewd:lineID="67"><path style="stroke:#992903;stroke-width: 5.10 ;&st6;" d=" M  2541.08,   299.24  L  2541.08,   409.72  " /></a><a style="cursor:pointer;" ewd:lineID="68"> d=" M  2685.55,   103.77  L  2685.55,   129.26  L  2745.04,   129.26  L  2745.04,    44.28  L  2779.04,    44.28  L  2779.04,    61.28 
	
		<path style="stroke:#000000;stroke-width: 5.10 ;&st6;" d=" M  2685.55,   103.77  L  2685.55,   129.26  L  2745.04,   129.26  L  2745.04,    44.28  L  2779.04,    44.28  L  2779.04,    61.28  " /><path style="stroke:#FFFFFF;stroke-width: 4.53 ;&st6;" d=" M  2685.55,   103.77  L  2685.55,   129.26  L  2745.04,   129.26  L  2745.04,    44.28  L  2779.04,    44.28  L  2779.04,    61.28  " /></a><a style="cursor:pointer;" ewd:lineID="69"> d=" M  2779.04,   112.27  L  2779.04,   154.19 
	
		<path style="stroke:#000000;stroke-width: 5.10 ;&st6;" d=" M  2779.04,   112.27  L  2779.04,   154.19  " /><path style="stroke:#FFFFFF;stroke-width: 4.53 ;&st6;" d=" M  2779.04,   112.27  L  2779.04,   154.19  " /></a><a style="cursor:pointer;" ewd:lineID="70"> d=" M  2821.53,   461.27  L  2821.53,   528.70  L  2243.63,   528.70  L  2243.63,   460.71 
	
		<path style="stroke:#000000;stroke-width: 5.10 ;&st6;" d=" M  2821.53,   461.27  L  2821.53,   528.70  L  2243.63,   528.70  L  2243.63,   460.71  " /><path style="stroke:#FFFFFF;stroke-width: 4.53 ;&st6;" d=" M  2821.53,   461.27  L  2821.53,   528.70  L  2243.63,   528.70  L  2243.63,   460.71  " /></a><a style="cursor:pointer;" ewd:lineID="71"><path style="stroke:#F668B2;stroke-width: 5.10 ;&st6;" d=" M  2847.02,   103.77  L  2847.02,   154.19  " /></a><a style="cursor:pointer;" ewd:lineID="72"><path style="stroke:#7FC97F;stroke-width: 5.10 ;&st6;" d=" M  2855.52,   461.27  L  2855.52,   554.19  L  2201.13,   554.19  L  2201.13,   460.71  " /></a><a style="cursor:pointer;" ewd:lineID="73"><path style="stroke:#008837;stroke-width: 5.10 ;&st6;" d=" M  2940.51,   622.18  L  2940.51,   647.68  L  3000.00,   647.68  L  3000.00,   528.70  " /></a><a style="cursor:pointer;" ewd:lineID="74"> d=" M  2940.51,   528.70  L  2940.51,   579.69 
	
		<path style="stroke:#000000;stroke-width: 5.10 ;&st6;" d=" M  2940.51,   528.70  L  2940.51,   579.69  " /><path style="stroke:#FFFFFF;stroke-width: 4.53 ;&st6;" d=" M  2940.51,   528.70  L  2940.51,   579.69  " /></a><a style="cursor:pointer;" ewd:lineID="75"> d=" M  2940.51,   461.27  L  2940.51,   513.68 
	
		<path style="stroke:#000000;stroke-width: 5.10 ;&st6;" d=" M  2940.51,   461.27  L  2940.51,   513.68  " /><path style="stroke:#FFFFFF;stroke-width: 4.53 ;&st6;" d=" M  2940.51,   461.27  L  2940.51,   513.68  " /></a><a style="cursor:pointer;" ewd:lineID="76"><path style="stroke:#008837;stroke-width: 5.10 ;&st6;" d=" M  3000.00,   461.27  L  3000.00,   513.97  " /></a><a style="cursor:pointer;" ewd:lineID="77"><path style="stroke:#992903;stroke-width: 5.10 ;&st6;" d=" M  3042.49,   461.27  L  3042.49,   681.67  " /></a><a ewd:figtype="w2w" style="cursor:pointer;" ewd:pinNo="1" ewd:code="AE1" ewd:figID="48"><path style="&st2;" d=" M    42.49,   205.75  L    25.50,   205.75  L    25.50,   214.25  L    42.49,   214.25  L    42.49,   205.75 " /><text style="&st8;" transform="matrix(&st16;  28.69  212.12 )"><tspan x="0" style="font-size:6px;font-family:'NSimSun';" y="0">AE1</tspan></text></a><a ewd:figtype="w2w" style="cursor:pointer;" ewd:pinNo="16" ewd:code="BA2" ewd:figID="49"><path style="&st2;" d=" M   339.94,   452.21  L   322.95,   452.21  L   322.95,   460.71  L   339.94,   460.71  L   339.94,   452.21 " /><text style="&st8;" transform="matrix(&st16;  326.06  458.58 )"><tspan x="0" style="font-size:6px;font-family:'NSimSun';" y="0">BA2</tspan></text></a><a ewd:figtype="w2w" style="cursor:pointer;" ewd:pinNo="9" ewd:code="AE2" ewd:figID="50"><path style="&st2;" d=" M   339.94,   401.22  L   322.95,   401.22  L   322.95,   409.72  L   339.94,   409.72  L   339.94,   401.22 " /><text style="&st8;" transform="matrix(&st16;  326.14  407.59 )"><tspan x="0" style="font-size:6px;font-family:'NSimSun';" y="0">AE2</tspan></text></a><a ewd:figtype="w2w" style="cursor:pointer;" ewd:pinNo="1" ewd:code="EF1" ewd:figID="51"><path style="&st2;" d=" M   348.44,   214.25  L   331.44,   214.25  L   331.44,   222.75  L   348.44,   222.75  L   348.44,   214.25 " /><text style="&st8;" transform="matrix(&st16;  334.83  220.62 )"><tspan x="0" style="font-size:6px;font-family:'NSimSun';" y="0">EF1</tspan></text></a><a ewd:figtype="w2w" style="cursor:pointer;" ewd:pinNo="2" ewd:code="EF1" ewd:figID="52"><path style="&st2;" d=" M   416.43,   214.25  L   399.43,   214.25  L   399.43,   222.75  L   416.43,   222.75  L   416.43,   214.25 " /><text style="&st8;" transform="matrix(&st16;  402.81  220.62 )"><tspan x="0" style="font-size:6px;font-family:'NSimSun';" y="0">EF1</tspan></text></a><a ewd:figtype="w2w" style="cursor:pointer;" ewd:pinNo="4" ewd:code="AE8" ewd:figID="53"><path style="&st2;" d=" M  1096.32,   401.22  L  1079.32,   401.22  L  1079.32,   409.72  L  1096.32,   409.72  L  1096.32,   401.22 " /><text style="&st8;" transform="matrix(&st16;  1082.51  407.59 )"><tspan x="0" style="font-size:6px;font-family:'NSimSun';" y="0">AE8</tspan></text></a><a ewd:figtype="w2w" style="cursor:pointer;" ewd:pinNo="6" ewd:code="AE8" ewd:figID="54"><path style="&st2;" d=" M  1138.81,   401.22  L  1121.81,   401.22  L  1121.81,   409.72  L  1138.81,   409.72  L  1138.81,   401.22 " /><text style="&st8;" transform="matrix(&st16;  1125.01  407.59 )"><tspan x="0" style="font-size:6px;font-family:'NSimSun';" y="0">AE8</tspan></text></a><a ewd:figtype="w2w" style="cursor:pointer;" ewd:pinNo="5" ewd:code="AE8" ewd:figID="55"><path style="&st2;" d=" M  1181.30,   401.22  L  1164.31,   401.22  L  1164.31,   409.72  L  1181.30,   409.72  L  1181.30,   401.22 " /><text style="&st8;" transform="matrix(&st16;  1167.5  407.59 )"><tspan x="0" style="font-size:6px;font-family:'NSimSun';" y="0">AE8</tspan></text></a><a ewd:figtype="w2w" style="cursor:pointer;" ewd:pinNo="3" ewd:code="AE8" ewd:figID="56"><path style="&st2;" d=" M  1453.26,   171.76  L  1436.26,   171.76  L  1436.26,   180.26  L  1453.26,   180.26  L  1453.26,   171.76 " /><text style="&st8;" transform="matrix(&st16;  1439.45  178.13 )"><tspan x="0" style="font-size:6px;font-family:'NSimSun';" y="0">AE8</tspan></text></a><a ewd:figtype="w2w" style="cursor:pointer;" ewd:pinNo="1" ewd:code="AE8" ewd:figID="57"><path style="&st2;" d=" M  1487.25,   171.76  L  1470.25,   171.76  L  1470.25,   180.26  L  1487.25,   180.26  L  1487.25,   171.76 " /><text style="&st8;" transform="matrix(&st16;  1473.45  178.13 )"><tspan x="0" style="font-size:6px;font-family:'NSimSun';" y="0">AE8</tspan></text></a><a ewd:figtype="w2w" style="cursor:pointer;" ewd:pinNo="2" ewd:code="AE8" ewd:figID="58"><path style="&st2;" d=" M  1521.25,   171.76  L  1504.25,   171.76  L  1504.25,   180.26  L  1521.25,   180.26  L  1521.25,   171.76 " /><text style="&st8;" transform="matrix(&st16;  1507.44  178.13 )"><tspan x="0" style="font-size:6px;font-family:'NSimSun';" y="0">AE8</tspan></text></a><a ewd:figtype="w2w" style="cursor:pointer;" ewd:pinNo="4" ewd:code="AE4" ewd:figID="59"><path style="&st2;" d=" M  2209.63,   350.23  L  2192.63,   350.23  L  2192.63,   358.73  L  2209.63,   358.73  L  2209.63,   350.23 " /><text style="&st8;" transform="matrix(&st16;  2195.83  356.6 )"><tspan x="0" style="font-size:6px;font-family:'NSimSun';" y="0">AE4</tspan></text></a><a ewd:figtype="w2w" style="cursor:pointer;" ewd:pinNo="3" ewd:code="AE4" ewd:figID="60"><path style="&st2;" d=" M  2252.12,   350.23  L  2235.13,   350.23  L  2235.13,   358.73  L  2252.12,   358.73  L  2252.12,   350.23 " /><text style="&st8;" transform="matrix(&st16;  2238.32  356.6 )"><tspan x="0" style="font-size:6px;font-family:'NSimSun';" y="0">AE4</tspan></text></a><a ewd:figtype="w2w" style="cursor:pointer;" ewd:pinNo="6" ewd:code="AE4" ewd:figID="61"><path style="&st2;" d=" M  2949.01,   520.20  L  2932.01,   520.20  L  2932.01,   528.70  L  2949.01,   528.70  L  2949.01,   520.20 " /><text style="&st8;" transform="matrix(&st16;  2935.2  526.57 )"><tspan x="0" style="font-size:6px;font-family:'NSimSun';" y="0">AE4</tspan></text></a><a ewd:figtype="w2w" style="cursor:pointer;" ewd:pinNo="7" ewd:code="AE4" ewd:figID="62"><path style="&st2;" d=" M  3008.50,   520.20  L  2991.50,   520.20  L  2991.50,   528.70  L  3008.50,   528.70  L  3008.50,   520.20 " /><text style="&st8;" transform="matrix(&st16;  2994.69  526.57 )"><tspan x="0" style="font-size:6px;font-family:'NSimSun';" y="0">AE4</tspan></text></a><a ewd:figtype="gp" style="cursor:pointer;" ewd:code="EC" ewd:figID="63"><path style="&st2;" d=" M    23.37,   681.67  L    44.62,   681.67  L    33.99,   697.25  L    23.37,   681.67 " /><text style="&st8;" transform="matrix(&st16;  30.08  689.46 )"><tspan x="0" style="font-size:6px;font-family:'NSimSun';" y="0">EC</tspan></text></a><a ewd:figtype="gp" style="cursor:pointer;" ewd:code="EB" ewd:figID="64"><path style="&st2;" d=" M   218.84,   681.67  L   240.08,   681.67  L   229.46,   697.25  L   218.84,   681.67 " /><text style="&st8;" transform="matrix(&st16;  225.77  689.46 )"><tspan x="0" style="font-size:6px;font-family:'NSimSun';" y="0">EB</tspan></text></a><a ewd:figtype="gp" style="cursor:pointer;" ewd:code="BA" ewd:figID="65"><path style="&st2;" d=" M   320.82,   681.67  L   342.07,   681.67  L   331.44,   697.25  L   320.82,   681.67 " /><text style="&st8;" transform="matrix(&st16;  327.57  689.46 )"><tspan x="0" style="font-size:6px;font-family:'NSimSun';" y="0">BA</tspan></text></a><a ewd:figtype="gp" style="cursor:pointer;" ewd:code="ED" ewd:figID="66"><path style="&st2;" d=" M  1374.65,   681.67  L  1395.89,   681.67  L  1385.27,   697.25  L  1374.65,   681.67 " /><text style="&st8;" transform="matrix(&st16;  1381.39  689.46 )"><tspan x="0" style="font-size:6px;font-family:'NSimSun';" y="0">ED</tspan></text></a><a ewd:figtype="gp" style="cursor:pointer;" ewd:code="AF" ewd:figID="67"><path style="&st2;" d=" M  1850.57,   681.67  L  1871.81,   681.67  L  1861.19,   697.25  L  1850.57,   681.67 " /><text style="&st8;" transform="matrix(&st16;  1857.39  689.46 )"><tspan x="0" style="font-size:6px;font-family:'NSimSun';" y="0">AF</tspan></text></a><a ewd:figtype="gp" style="cursor:pointer;" ewd:code="BA" ewd:figID="68"><path style="&st2;" d=" M  2530.45,   681.67  L  2551.70,   681.67  L  2541.08,   697.25  L  2530.45,   681.67 " /><text style="&st8;" transform="matrix(&st16;  2537.2  689.46 )"><tspan x="0" style="font-size:6px;font-family:'NSimSun';" y="0">BA</tspan></text></a><a ewd:figtype="gp" style="cursor:pointer;" ewd:code="ED" ewd:figID="69"><path style="&st2;" d=" M  3031.87,   681.67  L  3053.11,   681.67  L  3042.49,   697.25  L  3031.87,   681.67 " /><text style="&st8;" transform="matrix(&st16;  3038.62  689.46 )"><tspan x="0" style="font-size:6px;font-family:'NSimSun';" y="0">ED</tspan></text></a><a ewd:figtype="sp" style="cursor:pointer;" ewd:code="SP41" ewd:figID="70"><path style="&st2;" d=" M    29.75,   146.26  L    38.24,   146.26  L    42.49,   150.51  L    42.49,   159.01  L    38.24,   163.26  L    29.75,   163.26  L    25.50,   159.01  L    25.50,   150.51  L    29.75,   146.26 " /></a><a ewd:figtype="sp" style="cursor:pointer;" ewd:code="SP24" ewd:figID="71"><path style="&st2;" d=" M   327.20,   588.19  L   335.69,   588.19  L   339.94,   592.44  L   339.94,   600.93  L   335.69,   605.18  L   327.20,   605.18  L   322.95,   600.93  L   322.95,   592.44  L   327.20,   588.19 " /></a><a ewd:figtype="sp" style="cursor:pointer;" ewd:code="SP23" ewd:figID="72"><path style="&st2;" d=" M  2536.83,   409.72  L  2545.32,   409.72  L  2549.57,   413.97  L  2549.57,   422.46  L  2545.32,   426.71  L  2536.83,   426.71  L  2532.58,   422.46  L  2532.58,   413.97  L  2536.83,   409.72 " /></a><a ewd:figtype="sp" style="cursor:pointer;" ewd:code="SP44" ewd:figID="73"><path style="&st2;" d=" M  2536.83,   282.24  L  2545.32,   282.24  L  2549.57,   286.49  L  2549.57,   294.99  L  2545.32,   299.24  L  2536.83,   299.24  L  2532.58,   294.99  L  2532.58,   286.49  L  2536.83,   282.24 " /></a></g></svg>