<?xml version="1.0" encoding="utf-8"?>
<!DOCTYPE svg PUBLIC "-//W3C//DTD SVG 1.0//EN" "http://www.w3.org/TR/2001/REC-SVG-20010904/DTD/svg10.dtd"[
	<!ENTITY ns_flows "http://ns.adobe.com/Flows/1.0/">
	<!ENTITY ns_svg "http://www.w3.org/2000/svg">
	<!ENTITY ns_xlink "http://www.w3.org/1999/xlink">
	<!ENTITY st0 "font-size:7px;font-family:'NSimSun';adobe-font-script:japanese;">
	<!ENTITY st1 "font-size:6px;font-family:'NSimSun';">
	<!-- White fill  -->
	<!ENTITY st2 "fill:#FFFFFF;stroke:#000000; stroke-width:1.41;stroke-linecap:round;stroke-linejoin:round;">
	<!-- Yellow fill  -->
	<!ENTITY st3 "fill:#FFFFCC;stroke:#FFFFCC; stroke-width:0.1;stroke-linecap:round;stroke-linejoin:round;">
	<!-- Gray fill  -->
	<!ENTITY st4 "fill:#CCCCCC;stroke:#CCCCCC; stroke-width:0.1;stroke-linecap:round;stroke-linejoin:round;">
	<!-- Light-blue fill -->
	<!ENTITY st5 "fill:#CCECF4;stroke:#000000; stroke-width:1.133;stroke-linecap:round;stroke-linejoin:round;">
	<!ENTITY st6 "fill:none;stroke-linecap:butt; stroke-linejoin:round;">
	<!ENTITY st7 "fill:none;stroke:#000000;stroke-linecap:round;stroke-linejoin:round;">
	<!ENTITY st8 "enable-background:new    ;">
	<!-- Black fill -->
	<!ENTITY st9 "fill:#000000;stroke:#000000; stroke-linecap:round;stroke-linejoin:round;">
	<!-- SRS note   -->
	<!ENTITY st10 "font-size:9px;font-family:'NSimSun';">
	<!ENTITY st11 "font-size:9px;font-family:'NSimSun';">
	<!ENTITY st12 "font-size:6px;font-family:'NSimSun';">
	<!ENTITY st13 "fill:none;stroke:#ff0000;stroke-linecap:round;stroke-linejoin:round;">
	<!-- Yellow fill  -->
	<!ENTITY st14 "fill:#FFFF00;stroke:#FFFF00; stroke-width:0.1;stroke-linecap:round;stroke-linejoin:round;">
	<!ENTITY st15 "font-size:6px;font-family:'NSimSun';adobe-font-script:japanese;">
	<!ENTITY st16 "1.00 0.00 0.00 1.00">
	<!ENTITY st17 "0.00 -1.00 1.00 0.00">
	<!ENTITY st18 "font-size:6px;font-family:'NSimSun';">
	<!ENTITY st19 "font-size:9px;font-family:'NSimSun';">
	<!ENTITY st20 "font-size:6px;font-family:'NSimSun';adobe-font-script:japanese;">
	<!ENTITY st21 "font-size:7px;font-family:'NSimSun';adobe-font-script:japanese;">
	<!ATTLIST svg
		xmlns:ewd CDATA #FIXED "http://shcl.co.jp/ewd"
		xmlns:a CDATA #FIXED "http://ns.adobe.com/AdobeSVGViewerExtensions/3.0/"
		ewd:ver CDATA #IMPLIED
	>
	<!ATTLIST a
		ewd:lineID CDATA #IMPLIED
		ewd:groupID CDATA #IMPLIED
		ewd:figtype CDATA #IMPLIED
		ewd:code CDATA #IMPLIED
		ewd:figID CDATA #IMPLIED
		ewd:pinNo CDATA #IMPLIED
		ewd:comment CDATA #IMPLIED >
	<!ATTLIST g
		ewd:lineID CDATA #IMPLIED
		ewd:groupID CDATA #IMPLIED
		ewd:figtype CDATA #IMPLIED
		ewd:code CDATA #IMPLIED
		ewd:figID CDATA #IMPLIED
		ewd:pinNo CDATA #IMPLIED
		ewd:comment CDATA #IMPLIED >
	<!ATTLIST text
		ewd:textID CDATA #IMPLIED
		ewd:horAlign CDATA #IMPLIED >
	<!ATTLIST title
		ewd:textID CDATA #IMPLIED >
]>
<!-- Generator: Shintec Hozumi YS   -->
<svg onload="call_execInitLoadProc_svg('system')" style="overflow:visible;  enable-background:new 0 0 3555.779 710.000" viewBox="0 0 3559.901 710.000" height="710.000" width="3559.901" xml:space="preserve" ewd:ver="2.1.2.6F" xmlns="&ns_svg;" xmlns:ewd="http://shcl.co.jp/ewd" xmlns:a="http://ns.adobe.com/AdobeSVGViewerExtensions/3.0/" xmlns:xlink="&ns_xlink;">
<path style="stroke-width: 1.42 ;&st7;  " d=" M    42.49,   214.25  L    33.99,   214.25  " /><path style="stroke-width: 1.42 ;&st7;  " d=" M   322.95,   401.22  L   331.44,   401.22  " /><path style="stroke-width: 1.42 ;&st7;  " d=" M   322.95,   452.21  L   331.44,   452.21  " /><path style="stroke-width: 1.42 ;&st7;  " d=" M   331.44,   214.25  L   339.94,   214.25  " /><path style="stroke-width: 1.42 ;&st7;  " d=" M   399.43,   214.25  L   407.93,   214.25  " /><path style="stroke-width: 1.42 ;&st7;  " d=" M    37.52,   163.26  L    42.49,   158.29  " /><path style="stroke-width: 1.42 ;&st7;  " d=" M    25.50,   158.29  L    30.46,   163.26  " /><path style="stroke-width: 1.42 ;&st7;  " d=" M    42.49,   151.23  L    37.52,   146.26  " /><path style="stroke-width: 1.42 ;&st7;  " d=" M    30.46,   146.26  L    25.50,   151.23  " /><path style="stroke-width: 1.42 ;&st7;  " d=" M   339.94,   593.16  L   334.97,   588.19  " /><path style="stroke-width: 1.42 ;&st7;  " d=" M   322.95,   600.22  L   327.91,   605.18  " /><path style="stroke-width: 1.42 ;&st7;  " d=" M   334.97,   605.18  L   339.94,   600.22  " /><path style="stroke-width: 1.42 ;&st7;  " d=" M   327.91,   588.19  L   322.95,   593.16  " /><text style="font-size:6px;font-family:'NSimSun';" transform="matrix(&st17;  404.24  184.04 )">LG</text><text style="font-size:6px;font-family:'NSimSun';" transform="matrix(&st17;  225.77  379.27 )">BR</text><text style="font-size:6px;font-family:'NSimSun';" transform="matrix(&st17;  174.77  377.33 )">R</text><text style="font-size:6px;font-family:'NSimSun';" transform="matrix(&st17;  98.29  377.33 )">R</text><text style="font-size:6px;font-family:'NSimSun';" transform="matrix(&st17;  225.77  250.05 )">V</text><text style="font-size:6px;font-family:'NSimSun';" transform="matrix(&st17;  268.26  252.07 )">GR</text><text style="font-size:6px;font-family:'NSimSun';" transform="matrix(&st17;  30.3  381.68 )">W-B</text><text style="font-size:6px;font-family:'NSimSun';" transform="matrix(&st17;  30.3  126.59 )">L</text><text style="font-size:6px;font-family:'NSimSun';" transform="matrix(&st17;  30.3  249.82 )">L</text><text style="font-size:6px;font-family:'NSimSun';" transform="matrix(&st17;  174.77  250.71 )">W</text><text style="font-size:6px;font-family:'NSimSun';" transform="matrix(&st17;  174.77  131.73 )">W</text><text style="font-size:6px;font-family:'NSimSun';" transform="matrix(&st17;  336.25  181.83 )">L</text><text style="font-size:6px;font-family:'NSimSun';" transform="matrix(&st17;  327.75  481.49 )">LG</text><text style="font-size:6px;font-family:'NSimSun';" transform="matrix(&st17;  327.75  430.5 )">LG</text><text style="font-size:6px;font-family:'NSimSun';" transform="matrix(&st17;  327.75  379.51 )">LG</text><text style="font-size:6px;font-family:'NSimSun';" transform="matrix(&st17;  327.75  645.13 )">W-B</text><text style="font-size:6px;font-family:'NSimSun';" transform="matrix(&st17;  327.75  568.65 )">W-B</text><text style="font-size:6px;font-family:'NSimSun';" transform="matrix(&st17;  30.3  181.83 )">L</text><text style="font-size:6px;font-family:'NSimSun';" transform="matrix(&st17;  336.25  249.82 )">L</text><text style="font-size:6px;font-family:'NSimSun';" transform="matrix(&st17;  404.24  252.03 )">LG</text><text style="font-size:6px;font-family:'NSimSun';" transform="matrix(&st17;  225.77  566.24 )">BR</text><g ewd:figtype="conn" ewd:figID="1" ewd:code="E31"><path style="stroke-width: 0.85 ;&st7;  " d=" M   271.95,   205.75  L   271.95,   193.00  " /><path style="stroke-width: 0.85 ;&st7;  " d=" M   274.79,   188.75  L   269.12,   191.59  " /><path style="stroke-width: 0.85 ;&st7;  " d=" M   269.12,   185.92  L   274.79,   188.75  " /><path style="stroke-width: 0.85 ;&st7;  " d=" M   274.79,   183.09  L   269.12,   185.92  " /><path style="stroke-width: 0.85 ;&st7;  " d=" M   269.12,   180.26  L   274.79,   183.09  " /><path style="stroke-width: 0.85 ;&st7;  " d=" M   274.79,   177.42  L   269.12,   180.26  " /><path style="stroke-width: 0.85 ;&st7;  " d=" M   271.95,   176.01  L   274.79,   177.42  " /><path style="stroke-width: 0.85 ;&st7;  " d=" M   269.12,   191.59  L   271.95,   193.00  " /><path style="stroke-width: 0.85 ;&st7;  " d=" M   271.95,   176.01  L   271.95,   163.26  " /><path style="stroke-width: 0.85 ;&st7;  " d=" M   263.46,   176.01  L   263.46,   193.00  " /><path style="stroke-width: 0.85 ;&st7;  " d=" M   280.45,   176.01  L   280.45,   193.00  " /><path style="stroke-width: 0.85 ;&st7;   " d=" M   280.45,   176.01  C   280.45    171.31    276.65    167.51    271.95    167.51  " /><path style="stroke-width: 0.85 ;&st7;   " d=" M   271.95,   167.51  C   267.26    167.51    263.46    171.31    263.46    176.01  " /><path style="stroke-width: 0.85 ;&st7;   " d=" M   263.46,   193.00  C   263.46    197.70    267.26    201.50    271.95    201.50  " /><path style="stroke-width: 0.85 ;&st7;   " d=" M   271.95,   201.50  C   276.65    201.50    280.45    197.70    280.45    193.00  " /><path style="stroke-width: 1.42 ;&st7;  " d=" M   259.21,   205.75  L   259.21,   163.26  L   284.70,   163.26  L   284.70,   205.75  L   259.21,   205.75  " /><text style="font-size:6px;font-family:'NSimSun';" transform="matrix(&st16;  265.77  159.57 )">2</text><text style="font-size:6px;font-family:'NSimSun';" transform="matrix(&st16;  265.77  213.94 )">1</text><g ewd:figtype="title"><text style="font-size:6px;font-family:'NSimSun';" transform="matrix(&st17;  292.31  208.65 )">E31</text><text style="font-size:6px;font-family:'NSimSun';" transform="matrix(&st17;  299.42  208.66 )" ewd:textID="19">冷却器（车内温度传感器）热敏电阻</text></g></g><g ewd:figtype="rb" ewd:figID="2" ewd:code="FUSE33"><path style="stroke-width: 0.85 ;&st7;  " d=" M    33.99,    69.77  L    33.99,    95.27  " /><path style="stroke-width: 1.42 ;&st7;  " d=" M    36.12,   103.77  L    31.87,   103.77  " /><path style="stroke-width: 1.42 ;&st7;  " d=" M    36.12,    95.27  L    31.87,    95.27  " /><path style="stroke-width: 1.42 ;&st7;   " d=" M    40.37,    99.52  C    40.37     97.17     38.47     95.27     36.12     95.27  " /><path style="stroke-width: 1.42 ;&st7;   " d=" M    36.12,   103.77  C    38.47    103.77     40.37    101.87     40.37     99.52  " /><path style="stroke-width: 1.42 ;&st7;   " d=" M    27.62,    99.52  C    27.62    101.87     29.52    103.77     31.87    103.77  " /><path style="stroke-width: 1.42 ;&st7;   " d=" M    31.87,    95.27  C    29.52     95.27     27.62     97.17     27.62     99.52  " /><path style="stroke-width: 0.28 ;&st9;  " d=" M    33.99,    90.37  L    31.16,    87.54  L    31.16,    91.79  L    33.99,    94.62  L    36.83,    91.79  L    36.83,    87.54  L    33.99,    90.37  " /><text style="font-size:6px;font-family:'NSimSun';" transform="matrix(&st16;  32.19  101.49 )">1</text><text style="font-size:6px;font-family:'NSimSun';" transform="matrix(&st16;  50.42  56.17 )">50A <tspan x="0 " dy="6.0">HTR</tspan></text><text style="font-size:6px;font-family:'NSimSun';" transform="matrix(&st16;  25.95  32.08 )">(BAT)</text><text style="font-size:6px;font-family:'NSimSun';" transform="matrix(&st16;  27.81  86.47 )">2</text><path style="stroke-width: 1.42 ;&st7;   " d=" M    33.99,    47.11  C    31.26     48.72     30.34     52.25     31.96     54.99  " /><path style="stroke-width: 1.42 ;&st7;   " d=" M    31.96,    54.99  C    32.48     55.87     33.11     56.51     33.99     57.03  " /><path style="stroke-width: 1.42 ;&st7;   " d=" M    33.99,    66.94  C    36.73     65.33     37.64     61.80     36.03     59.06  " /><path style="stroke-width: 1.42 ;&st7;   " d=" M    36.03,    59.06  C    35.51     58.18     34.88     57.55     33.99     57.03  " /><path style="stroke-width: 0.85 ;&st7;   " d=" M    35.41,    45.69  C    35.41     44.91     34.78     44.28     33.99     44.28  " /><path style="stroke-width: 0.85 ;&st7;   " d=" M    33.99,    44.28  C    33.21     44.28     32.58     44.91     32.58     45.69  " /><path style="stroke-width: 0.85 ;&st7;   " d=" M    32.58,    45.69  C    32.58     46.48     33.21     47.11     33.99     47.11  " /><path style="stroke-width: 0.85 ;&st7;   " d=" M    33.99,    47.11  C    34.78     47.11     35.41     46.48     35.41     45.69  " /><path style="stroke-width: 0.85 ;&st7;   " d=" M    35.41,    68.36  C    35.41     67.57     34.78     66.94     33.99     66.94  " /><path style="stroke-width: 0.85 ;&st7;   " d=" M    33.99,    66.94  C    33.21     66.94     32.58     67.57     32.58     68.36  " /><path style="stroke-width: 0.85 ;&st7;   " d=" M    32.58,    68.36  C    32.58     69.14     33.21     69.77     33.99     69.77  " /><path style="stroke-width: 0.85 ;&st7;   " d=" M    33.99,    69.77  C    34.78     69.77     35.41     69.14     35.41     68.36  " /><path style="stroke-width: 1.42 ;&st7;  " d=" M    21.25,    35.78  L    21.25,    78.27  L    46.74,    78.27  L    46.74,    35.78  L    21.25,    35.78  " /></g><g ewd:figtype="rb" ewd:figID="3" ewd:code="FUSE6"><path style="stroke-width: 1.42 ;&st7;  " d=" M   180.59,   103.77  L   176.35,   103.77  " /><path style="stroke-width: 1.42 ;&st7;  " d=" M   180.59,    95.27  L   176.35,    95.27  " /><path style="stroke-width: 0.85 ;&st7;  " d=" M   178.47,    69.77  L   178.47,    95.27  " /><path style="stroke-width: 1.42 ;&st7;   " d=" M   184.84,    99.52  C   184.84     97.17    182.94     95.27    180.59     95.27  " /><path style="stroke-width: 1.42 ;&st7;   " d=" M   180.59,   103.77  C   182.94    103.77    184.84    101.87    184.84     99.52  " /><path style="stroke-width: 1.42 ;&st7;   " d=" M   172.10,    99.52  C   172.10    101.87    174.00    103.77    176.35    103.77  " /><path style="stroke-width: 1.42 ;&st7;   " d=" M   176.35,    95.27  C   174.00     95.27    172.10     97.17    172.10     99.52  " /><path style="stroke-width: 0.28 ;&st9;  " d=" M   178.47,    90.37  L   175.64,    87.54  L   175.64,    91.79  L   178.47,    94.62  L   181.30,    91.79  L   181.30,    87.54  L   178.47,    90.37  " /><text style="font-size:6px;font-family:'NSimSun';" transform="matrix(&st16;  170.43  32.08 )">(BAT)</text><text style="font-size:6px;font-family:'NSimSun';" transform="matrix(&st16;  172.29  86.47 )">2</text><text style="font-size:6px;font-family:'NSimSun';" transform="matrix(&st16;  176.67  101.49 )">1</text><text style="font-size:6px;font-family:'NSimSun';" transform="matrix(&st16;  194.89  53.34 )">10A <tspan x="0 " dy="6.0">ECU-B </tspan><tspan x="0 " dy="6.0">NO.2</tspan></text><path style="stroke-width: 1.42 ;&st7;   " d=" M   178.47,    47.11  C   175.73     48.72    174.82     52.25    176.43     54.99  " /><path style="stroke-width: 1.42 ;&st7;   " d=" M   176.43,    54.99  C   176.95     55.87    177.59     56.51    178.47     57.03  " /><path style="stroke-width: 0.85 ;&st7;   " d=" M   179.89,    68.36  C   179.89     67.57    179.25     66.94    178.47     66.94  " /><path style="stroke-width: 0.85 ;&st7;   " d=" M   178.47,    66.94  C   177.69     66.94    177.05     67.57    177.05     68.36  " /><path style="stroke-width: 0.85 ;&st7;   " d=" M   177.05,    68.36  C   177.05     69.14    177.69     69.77    178.47     69.77  " /><path style="stroke-width: 0.85 ;&st7;   " d=" M   178.47,    69.77  C   179.25     69.77    179.89     69.14    179.89     68.36  " /><path style="stroke-width: 0.85 ;&st7;   " d=" M   179.89,    45.69  C   179.89     44.91    179.25     44.28    178.47     44.28  " /><path style="stroke-width: 0.85 ;&st7;   " d=" M   178.47,    44.28  C   177.69     44.28    177.05     44.91    177.05     45.69  " /><path style="stroke-width: 0.85 ;&st7;   " d=" M   177.05,    45.69  C   177.05     46.48    177.69     47.11    178.47     47.11  " /><path style="stroke-width: 0.85 ;&st7;   " d=" M   178.47,    47.11  C   179.25     47.11    179.89     46.48    179.89     45.69  " /><path style="stroke-width: 1.42 ;&st7;   " d=" M   178.47,    66.94  C   181.21     65.33    182.12     61.80    180.51     59.06  " /><path style="stroke-width: 1.42 ;&st7;   " d=" M   180.51,    59.06  C   179.99     58.18    179.35     57.55    178.47     57.03  " /><path style="stroke-width: 1.42 ;&st7;  " d=" M   165.72,    35.78  L   165.72,    78.27  L   191.22,    78.27  L   191.22,    35.78  L   165.72,    35.78  " /></g><g ewd:figtype="conn" ewd:figID="4" ewd:code="F1"><path style="stroke-width: 0.85 ;&st7;  " d=" M   382.44,   125.01  L   382.44,   133.51  " /><path style="stroke-width: 0.85 ;&st7;  " d=" M   377.02,   123.89  L   372.77,   116.53  " /><path style="stroke-width: 0.85 ;&st7;  " d=" M   376.24,   114.53  L   380.49,   121.89  " /><path style="stroke-width: 1.42 ;&st7;  " d=" M   322.95,   146.26  L   424.93,   146.26  L   424.93,   112.27  L   322.95,   112.27  L   322.95,   146.26  " /><path style="stroke-width: 0.85 ;&st7;  " d=" M   339.94,   146.26  L   339.94,   129.26  L   407.93,   129.26  L   407.93,   146.26  " /><path style="stroke-width: 0.28 ;&st9;  " d=" M   382.44,   129.26  L   373.94,   134.93  L   373.94,   123.60  L   382.44,   129.26  " /><path style="stroke-width: 0.85 ;&st7;  " d=" M   377.02,   123.89  L   376.52,   120.09  L   373.98,   121.56  L   377.02,   123.89  L   376.28,   122.61  L   376.07,   121.01  L   375.00,   121.62  L   376.28,   122.61  L   375.91,   121.97  L   375.84,   121.46  L   375.51,   121.66  L   375.91,   121.97  " /><path style="stroke-width: 0.85 ;&st7;  " d=" M   380.49,   121.89  L   379.99,   118.09  L   377.45,   119.56  L   380.49,   121.89  L   379.75,   120.61  L   379.54,   119.00  L   378.47,   119.62  L   379.75,   120.61  L   379.38,   119.97  L   379.31,   119.46  L   378.98,   119.65  L   379.38,   119.97  " /><text style="font-size:6px;font-family:'NSimSun';" transform="matrix(&st16;  410.51  142.57 )">SS+</text><text style="font-size:6px;font-family:'NSimSun';" transform="matrix(&st16;  342.53  142.57 )">SS-</text><text style="font-size:6px;font-family:'NSimSun';" transform="matrix(&st16;  333.76  154.45 )">2</text><text style="font-size:6px;font-family:'NSimSun';" transform="matrix(&st16;  401.75  154.45 )">1</text><g ewd:figtype="title"><text style="font-size:6px;font-family:'NSimSun';" transform="matrix(&st16;  319.54  108.57 )" ewd:textID="20">冷却器（阳光传感器）热敏电阻</text><text style="font-size:6px;font-family:'NSimSun';" transform="matrix(&st16;  319.53  101.46 )">F1</text></g></g><g ewd:figtype="conn" ewd:figID="6" ewd:code="E30"><path style="stroke-width: 1.42 ;&st7;  " d=" M   118.98,   324.73  L    17.00,   324.73  L    17.00,   290.74  L   118.98,   290.74  L   118.98,   324.73  " /><g ewd:lineID="1"><text style="font-size:6px;font-family:'NSimSun';" transform="matrix(&st16;  27.81  332.92 )">1</text><text style="font-size:6px;font-family:'NSimSun';" transform="matrix(&st16;  27.35  321.03 )">GND</text></g><g ewd:lineID="2"><text style="font-size:6px;font-family:'NSimSun';" transform="matrix(&st16;  27.81  287.05 )">3</text><text style="font-size:6px;font-family:'NSimSun';" transform="matrix(&st16;  30.26  298.37 )">+B</text></g><g ewd:lineID="5"><text style="font-size:6px;font-family:'NSimSun';" transform="matrix(&st16;  95.8  332.92 )">2</text><text style="font-size:6px;font-family:'NSimSun';" transform="matrix(&st16;  99.29  321.03 )">SI</text></g><g ewd:figtype="title"><text style="font-size:6px;font-family:'NSimSun';" transform="matrix(&st17; 126.59 327.63)">E30</text><text style="font-size:6px;font-family:'NSimSun';" transform="matrix(&st17; 133.70 327.64)" ewd:textID="12">带风扇的鼓风机马达分总成</text></g></g><g ewd:figtype="conn" ewd:figID="8" ewd:code="E71"><path style="stroke-width: 1.42 ;&st7;  " d=" M   220.96,   443.71  L   220.96,   460.71  L   237.96,   460.71  L   237.96,   443.71  L   220.96,   443.71  " /><path style="stroke-width: 0.85 ;&st7;  " d=" M   229.46,   460.71  L   229.46,   443.71  " /><text style="font-size:6px;font-family:'NSimSun';" transform="matrix(&st16;  223.28  468.9 )">1</text><text style="font-size:6px;font-family:'NSimSun';" transform="matrix(&st16;  223.28  440.02 )">5</text><g ewd:figtype="title"><text style="font-size:6px;font-family:'NSimSun';" transform="matrix(&st17;  245.85  463.61 )">E71</text><text style="font-size:6px;font-family:'NSimSun';" transform="matrix(&st17;  252.68  463.61 )" ewd:textID="30">4 号接线连接器</text></g></g><g ewd:figtype="conn" ewd:figID="10" ewd:code="B9"><path style="stroke-width: 1.42 ;&st7;  " d=" M   314.45,   503.20  L   314.45,   537.20  L   348.44,   537.20  L   348.44,   503.20  L   314.45,   503.20  " /><g ewd:lineID="13"><text style="font-size:6px;font-family:'NSimSun';" transform="matrix(&st16;  325.26  545.39 )">1</text><text style="font-size:6px;font-family:'NSimSun';" transform="matrix(&st16;  323.91  533.5 )">SOL-</text></g><g ewd:lineID="14"><text style="font-size:6px;font-family:'NSimSun';" transform="matrix(&st16;  325.26  499.51 )">2</text><text style="font-size:6px;font-family:'NSimSun';" transform="matrix(&st16;  323.91  510.84 )">SOL+</text></g><g ewd:figtype="title"><text style="font-size:6px;font-family:'NSimSun';" transform="matrix(&st17;  356.05  540.09 )">B9</text><text style="font-size:6px;font-family:'NSimSun';" transform="matrix(&st17;  363.16  540.1 )" ewd:textID="15">带皮带轮的压缩机总成</text></g></g><g ewd:figtype="conn" ewd:figID="21" ewd:code="E43,z1"><path style="stroke-width: 1.42 ;&st7;  " d=" M   161.47,   290.74  L  1266.29,   290.74  L  1266.29,   341.73  L   161.47,   341.73  L   161.47,   290.74  " /><g ewd:lineID="10"><text style="font-size:6px;font-family:'NSimSun';" transform="matrix(&st16;  217.67  288.17 )">34</text><path style="stroke-width: 1.42 ;&st7;   " d=" M   233.99,   286.20  C   233.99    283.70    231.96    281.67    229.46    281.67  " /><path style="stroke-width: 1.42 ;&st7;   " d=" M   229.46,   281.67  C   226.96    281.67    224.93    283.70    224.93    286.20  " /><path style="stroke-width: 1.42 ;&st7;   " d=" M   224.93,   286.20  C   224.93    288.71    226.96    290.74    229.46    290.74  " /><path style="stroke-width: 1.42 ;&st7;   " d=" M   229.46,   290.74  C   231.96    290.74    233.99    288.71    233.99    286.20  " /><text style="font-size:6px;font-family:'NSimSun';" transform="matrix(&st16;  227.16  288.17 )">A</text><text style="font-size:6px;font-family:'NSimSun';" transform="matrix(&st16;  222.35  298.37 )">SG-1</text></g><g ewd:lineID="11"><text style="font-size:6px;font-family:'NSimSun';" transform="matrix(&st16;  260.16  288.17 )">29</text><path style="stroke-width: 1.42 ;&st7;   " d=" M   276.49,   286.20  C   276.49    283.70    274.46    281.67    271.95    281.67  " /><path style="stroke-width: 1.42 ;&st7;   " d=" M   271.95,   281.67  C   269.45    281.67    267.42    283.70    267.42    286.20  " /><path style="stroke-width: 1.42 ;&st7;   " d=" M   267.42,   286.20  C   267.42    288.71    269.45    290.74    271.95    290.74  " /><path style="stroke-width: 1.42 ;&st7;   " d=" M   271.95,   290.74  C   274.46    290.74    276.49    288.71    276.49    286.20  " /><text style="font-size:6px;font-family:'NSimSun';" transform="matrix(&st16;  269.65  288.17 )">A</text><text style="font-size:6px;font-family:'NSimSun';" transform="matrix(&st16;  267.91  298.37 )">TR</text></g><g ewd:lineID="16"><text style="font-size:6px;font-family:'NSimSun';" transform="matrix(&st16;  322.75  348.23 )">2</text><path style="stroke-width: 1.42 ;&st7;   " d=" M   335.98,   346.26  C   335.98    343.76    333.95    341.73    331.44    341.73  " /><path style="stroke-width: 1.42 ;&st7;   " d=" M   331.44,   341.73  C   328.94    341.73    326.91    343.76    326.91    346.26  " /><path style="stroke-width: 1.42 ;&st7;   " d=" M   326.91,   346.26  C   326.91    348.76    328.94    350.79    331.44    350.79  " /><path style="stroke-width: 1.42 ;&st7;   " d=" M   331.44,   350.79  C   333.95    350.79    335.98    348.76    335.98    346.26  " /><text style="font-size:6px;font-family:'NSimSun';" transform="matrix(&st16;  329.14  348.23 )">A</text><text style="font-size:6px;font-family:'NSimSun';" transform="matrix(&st16;  323.91  338.03 )">SOL+</text></g><g ewd:lineID="17"><text style="font-size:6px;font-family:'NSimSun';" transform="matrix(&st16;  328.15  288.17 )">33</text><path style="stroke-width: 1.42 ;&st7;   " d=" M   344.48,   286.20  C   344.48    283.70    342.45    281.67    339.94    281.67  " /><path style="stroke-width: 1.42 ;&st7;   " d=" M   339.94,   281.67  C   337.44    281.67    335.41    283.70    335.41    286.20  " /><path style="stroke-width: 1.42 ;&st7;   " d=" M   335.41,   286.20  C   335.41    288.71    337.44    290.74    339.94    290.74  " /><path style="stroke-width: 1.42 ;&st7;   " d=" M   339.94,   290.74  C   342.45    290.74    344.48    288.71    344.48    286.20  " /><text style="font-size:6px;font-family:'NSimSun';" transform="matrix(&st16;  337.64  288.17 )">A</text><text style="font-size:6px;font-family:'NSimSun';" transform="matrix(&st16;  334.07  298.37 )">TSD</text></g><g ewd:lineID="19"><text style="font-size:6px;font-family:'NSimSun';" transform="matrix(&st16;  396.14  288.17 )">30</text><text style="font-size:6px;font-family:'NSimSun';" transform="matrix(&st16;  405.63  288.17 )">A</text><path style="stroke-width: 1.42 ;&st7;   " d=" M   412.46,   286.20  C   412.46    283.70    410.44    281.67    407.93    281.67  " /><path style="stroke-width: 1.42 ;&st7;   " d=" M   407.93,   281.67  C   405.43    281.67    403.40    283.70    403.40    286.20  " /><path style="stroke-width: 1.42 ;&st7;   " d=" M   403.40,   286.20  C   403.40    288.71    405.43    290.74    407.93    290.74  " /><path style="stroke-width: 1.42 ;&st7;   " d=" M   407.93,   290.74  C   410.44    290.74    412.46    288.71    412.46    286.20  " /><text style="font-size:6px;font-family:'NSimSun';" transform="matrix(&st16;  401.48  298.37 )">S5-1</text></g><g ewd:lineID="5"><text style="font-size:6px;font-family:'NSimSun';" transform="matrix(&st16;  166.67  348.23 )">22</text><text style="font-size:6px;font-family:'NSimSun';" transform="matrix(&st16;  176.17  348.23 )">A</text><path style="stroke-width: 1.42 ;&st7;   " d=" M   183.00,   346.26  C   183.00    343.76    180.97    341.73    178.47    341.73  " /><path style="stroke-width: 1.42 ;&st7;   " d=" M   178.47,   341.73  C   175.97    341.73    173.94    343.76    173.94    346.26  " /><path style="stroke-width: 1.42 ;&st7;   " d=" M   173.94,   346.26  C   173.94    348.76    175.97    350.79    178.47    350.79  " /><path style="stroke-width: 1.42 ;&st7;   " d=" M   178.47,   350.79  C   180.97    350.79    183.00    348.76    183.00    346.26  " /><text style="font-size:6px;font-family:'NSimSun';" transform="matrix(&st16;  171.75  338.03 )">BLW</text></g><g ewd:lineID="6"><text style="font-size:6px;font-family:'NSimSun';" transform="matrix(&st16;  166.67  288.17 )">21</text><path style="stroke-width: 1.42 ;&st7;   " d=" M   183.00,   286.20  C   183.00    283.70    180.97    281.67    178.47    281.67  " /><path style="stroke-width: 1.42 ;&st7;   " d=" M   178.47,   281.67  C   175.97    281.67    173.94    283.70    173.94    286.20  " /><path style="stroke-width: 1.42 ;&st7;   " d=" M   173.94,   286.20  C   173.94    288.71    175.97    290.74    178.47    290.74  " /><path style="stroke-width: 1.42 ;&st7;   " d=" M   178.47,   290.74  C   180.97    290.74    183.00    288.71    183.00    286.20  " /><text style="font-size:6px;font-family:'NSimSun';" transform="matrix(&st16;  176.17  288.17 )">A</text><text style="font-size:6px;font-family:'NSimSun';" transform="matrix(&st16;  176.28  298.37 )">B</text></g><g ewd:lineID="9"><text style="font-size:6px;font-family:'NSimSun';" transform="matrix(&st16;  217.67  348.23 )">14</text><text style="font-size:6px;font-family:'NSimSun';" transform="matrix(&st16;  227.16  348.23 )">A</text><path style="stroke-width: 1.42 ;&st7;   " d=" M   233.99,   346.26  C   233.99    343.76    231.96    341.73    229.46    341.73  " /><path style="stroke-width: 1.42 ;&st7;   " d=" M   229.46,   341.73  C   226.96    341.73    224.93    343.76    224.93    346.26  " /><path style="stroke-width: 1.42 ;&st7;   " d=" M   224.93,   346.26  C   224.93    348.76    226.96    350.79    229.46    350.79  " /><path style="stroke-width: 1.42 ;&st7;   " d=" M   229.46,   350.79  C   231.96    350.79    233.99    348.76    233.99    346.26  " /><text style="font-size:6px;font-family:'NSimSun';" transform="matrix(&st16;  222.81  338.03 )">GND</text></g><g ewd:lineID="89"><text style="font-size:6px;font-family:'NSimSun';" transform="matrix(&st16;  482.23  348.23 )">B</text><text style="font-size:6px;font-family:'NSimSun';" transform="matrix(&st16;  475.73  348.23 )">5</text><path style="stroke-width: 1.42 ;&st7;   " d=" M   488.95,   346.26  C   488.95    343.76    486.92    341.73    484.42    341.73  " /><path style="stroke-width: 1.42 ;&st7;   " d=" M   484.42,   341.73  C   481.92    341.73    479.89    343.76    479.89    346.26  " /><path style="stroke-width: 1.42 ;&st7;   " d=" M   479.89,   346.26  C   479.89    348.76    481.92    350.79    484.42    350.79  " /><path style="stroke-width: 1.42 ;&st7;   " d=" M   484.42,   350.79  C   486.92    350.79    488.95    348.76    488.95    346.26  " /><text style="font-size:6px;font-family:'NSimSun';" transform="matrix(&st16;  478.35  338.03 )">SGA</text></g><g ewd:lineID="93"><path style="stroke-width: 1.42 ;&st7;   " d=" M   412.46,   346.26  C   412.46    343.76    410.44    341.73    407.93    341.73  " /><path style="stroke-width: 1.42 ;&st7;   " d=" M   407.93,   341.73  C   405.43    341.73    403.40    343.76    403.40    346.26  " /><path style="stroke-width: 1.42 ;&st7;   " d=" M   403.40,   346.26  C   403.40    348.76    405.43    350.79    407.93    350.79  " /><path style="stroke-width: 1.42 ;&st7;   " d=" M   407.93,   350.79  C   410.44    350.79    412.46    348.76    412.46    346.26  " /><text style="font-size:6px;font-family:'NSimSun';" transform="matrix(&st16;  405.74  348.23 )">B</text><text style="font-size:6px;font-family:'NSimSun';" transform="matrix(&st16;  399.24  348.23 )">6</text><text style="font-size:6px;font-family:'NSimSun';" transform="matrix(&st16;  401.83  338.03 )">TEA</text></g><g ewd:figtype="title"><text style="font-size:6px;font-family:'NSimSun';" transform="matrix(&st16; 447.01 279.48)">E43(A),z1(B)</text><text style="font-size:6px;font-family:'NSimSun';" transform="matrix(&st16; 447.02 286.59)" ewd:textID="5">空调放大器总成<tspan x="0 " dy="6.0" /></text></g></g><g ewd:figtype="conn" ewd:figID="33" ewd:code="z1"><path style="stroke-width: 1.42 ;&st7;  " d=" M   603.40,   505.75  L   609.06,   483.09  " /><path style="stroke-width: 0.85 ;&st7;  " d=" M   756.37,   512.83  L   756.37,   508.58  " /><path style="stroke-width: 1.42 ;&st7;  " d=" M   756.37,   505.75  L   762.04,   483.09  " /><path style="stroke-width: 0.85 ;&st7;  " d=" M   739.38,   483.09  L   739.38,   470.34  " /><path style="stroke-width: 0.85 ;&st7;  " d=" M   739.38,   521.33  L   739.38,   508.58  " /><path style="stroke-width: 1.42 ;&st7;  " d=" M   739.38,   505.75  L   745.04,   483.09  " /><path style="stroke-width: 1.42 ;&st7;  " d=" M   701.13,   484.50  L   701.13,   488.47  " /><path style="stroke-width: 1.42 ;&st7;  " d=" M   692.63,   488.47  L   692.63,   484.50  " /><path style="stroke-width: 1.42 ;&st7;  " d=" M   692.63,   484.50  L   701.13,   484.50  " /><path style="stroke-width: 1.42 ;&st7;  " d=" M   701.13,   507.17  L   701.13,   503.20  " /><path style="stroke-width: 1.42 ;&st7;  " d=" M   692.63,   503.20  L   692.63,   507.17  " /><path style="stroke-width: 1.42 ;&st7;  " d=" M   692.63,   507.17  L   701.13,   507.17  " /><path style="stroke-width: 0.85 ;&st7;  " d=" M   756.37,   483.09  L   756.37,   470.34  " /><path style="stroke-width: 0.85 ;&st7;  " d=" M   875.35,   512.83  L   875.35,   508.58  " /><path style="stroke-width: 1.42 ;&st7;  " d=" M   875.35,   505.75  L   881.02,   483.09  " /><path style="stroke-width: 0.85 ;&st7;  " d=" M   858.36,   483.09  L   858.36,   470.34  " /><path style="stroke-width: 0.85 ;&st7;  " d=" M   858.36,   521.33  L   858.36,   508.58  " /><path style="stroke-width: 1.42 ;&st7;  " d=" M   858.36,   505.75  L   864.02,   483.09  " /><path style="stroke-width: 1.42 ;&st7;  " d=" M   820.11,   484.50  L   820.11,   488.47  " /><path style="stroke-width: 1.42 ;&st7;  " d=" M   811.61,   488.47  L   811.61,   484.50  " /><path style="stroke-width: 1.42 ;&st7;  " d=" M   811.61,   484.50  L   820.11,   484.50  " /><path style="stroke-width: 1.42 ;&st7;  " d=" M   820.11,   507.17  L   820.11,   503.20  " /><path style="stroke-width: 1.42 ;&st7;  " d=" M   811.61,   503.20  L   811.61,   507.17  " /><path style="stroke-width: 1.42 ;&st7;  " d=" M   811.61,   507.17  L   820.11,   507.17  " /><path style="stroke-width: 0.85 ;&st7;  " d=" M   637.39,   483.09  L   637.39,   470.34  " /><path style="stroke-width: 0.85 ;&st7;  " d=" M   637.39,   512.83  L   637.39,   508.58  " /><path style="stroke-width: 1.42 ;&st7;  " d=" M   637.39,   505.75  L   643.06,   483.09  " /><path style="stroke-width: 0.85 ;&st7;  " d=" M   620.40,   483.09  L   620.40,   470.34  " /><path style="stroke-width: 0.85 ;&st7;  " d=" M   620.40,   521.33  L   620.40,   508.58  " /><path style="stroke-width: 1.42 ;&st7;  " d=" M   620.40,   505.75  L   626.06,   483.09  " /><path style="stroke-width: 1.42 ;&st7;  " d=" M   582.15,   484.50  L   582.15,   488.47  " /><path style="stroke-width: 1.42 ;&st7;  " d=" M   573.65,   488.47  L   573.65,   484.50  " /><path style="stroke-width: 1.42 ;&st7;  " d=" M   573.65,   484.50  L   582.15,   484.50  " /><path style="stroke-width: 1.42 ;&st7;  " d=" M   582.15,   507.17  L   582.15,   503.20  " /><path style="stroke-width: 1.42 ;&st7;  " d=" M   573.65,   503.20  L   573.65,   507.17  " /><path style="stroke-width: 1.42 ;&st7;  " d=" M   573.65,   507.17  L   582.15,   507.17  " /><path style="stroke-width: 0.85 ;&st7;  " d=" M   454.67,   478.84  L   437.68,   478.84  " /><path style="stroke-width: 0.85 ;&st7;  " d=" M   454.67,   495.84  L   437.68,   495.84  " /><path style="stroke-width: 0.85 ;&st7;  " d=" M   437.68,   487.34  L   424.93,   487.34  " /><path style="stroke-width: 0.85 ;&st7;  " d=" M   453.26,   490.17  L   454.67,   487.34  " /><path style="stroke-width: 0.85 ;&st7;  " d=" M   437.68,   487.34  L   439.09,   484.50  " /><path style="stroke-width: 0.85 ;&st7;  " d=" M   439.09,   484.50  L   441.93,   490.17  " /><path style="stroke-width: 0.85 ;&st7;  " d=" M   441.93,   490.17  L   444.76,   484.50  " /><path style="stroke-width: 0.85 ;&st7;  " d=" M   447.59,   490.17  L   450.42,   484.50  " /><path style="stroke-width: 0.85 ;&st7;  " d=" M   450.42,   484.50  L   453.26,   490.17  " /><path style="stroke-width: 0.85 ;&st7;  " d=" M   467.42,   487.34  L   454.67,   487.34  " /><path style="stroke-width: 0.85 ;&st7;  " d=" M   444.76,   484.50  L   447.59,   490.17  " /><path style="stroke-width: 0.85 ;&st7;  " d=" M   875.35,   483.09  L   875.35,   470.34  " /><path style="stroke-width: 0.85 ;&st7;   " d=" M   604.82,   484.50  C   604.82    483.72    604.18    483.09    603.40    483.09  " /><path style="stroke-width: 0.85 ;&st7;   " d=" M   603.40,   483.09  C   602.62    483.09    601.98    483.72    601.98    484.50  " /><path style="stroke-width: 0.85 ;&st7;   " d=" M   601.98,   484.50  C   601.98    485.29    602.62    485.92    603.40    485.92  " /><path style="stroke-width: 0.85 ;&st7;   " d=" M   603.40,   485.92  C   604.18    485.92    604.82    485.29    604.82    484.50  " /><path style="stroke-width: 0.85 ;&st7;   " d=" M   604.82,   507.17  C   604.82    506.38    604.18    505.75    603.40    505.75  " /><path style="stroke-width: 0.85 ;&st7;   " d=" M   603.40,   505.75  C   602.62    505.75    601.98    506.38    601.98    507.17  " /><path style="stroke-width: 0.85 ;&st7;   " d=" M   601.98,   507.17  C   601.98    507.95    602.62    508.58    603.40    508.58  " /><path style="stroke-width: 0.85 ;&st7;   " d=" M   603.40,   508.58  C   604.18    508.58    604.82    507.95    604.82    507.17  " /><path style="stroke-width: 0.85 ;&st7;   " d=" M   757.79,   484.50  C   757.79    483.72    757.16    483.09    756.37    483.09  " /><path style="stroke-width: 0.85 ;&st7;   " d=" M   756.37,   483.09  C   755.59    483.09    754.96    483.72    754.96    484.50  " /><path style="stroke-width: 0.85 ;&st7;   " d=" M   754.96,   484.50  C   754.96    485.29    755.59    485.92    756.37    485.92  " /><path style="stroke-width: 0.85 ;&st7;   " d=" M   756.37,   485.92  C   757.16    485.92    757.79    485.29    757.79    484.50  " /><path style="stroke-width: 0.85 ;&st7;   " d=" M   757.79,   507.17  C   757.79    506.38    757.16    505.75    756.37    505.75  " /><path style="stroke-width: 0.85 ;&st7;   " d=" M   756.37,   505.75  C   755.59    505.75    754.96    506.38    754.96    507.17  " /><path style="stroke-width: 0.85 ;&st7;   " d=" M   754.96,   507.17  C   754.96    507.95    755.59    508.58    756.37    508.58  " /><path style="stroke-width: 0.85 ;&st7;   " d=" M   756.37,   508.58  C   757.16    508.58    757.79    507.95    757.79    507.17  " /><path style="stroke-width: 0.85 ;&st7;   " d=" M   740.79,   484.50  C   740.79    483.72    740.16    483.09    739.38    483.09  " /><path style="stroke-width: 0.85 ;&st7;   " d=" M   739.38,   483.09  C   738.59    483.09    737.96    483.72    737.96    484.50  " /><path style="stroke-width: 0.85 ;&st7;   " d=" M   737.96,   484.50  C   737.96    485.29    738.59    485.92    739.38    485.92  " /><path style="stroke-width: 0.85 ;&st7;   " d=" M   739.38,   485.92  C   740.16    485.92    740.79    485.29    740.79    484.50  " /><path style="stroke-width: 0.85 ;&st7;   " d=" M   740.79,   507.17  C   740.79    506.38    740.16    505.75    739.38    505.75  " /><path style="stroke-width: 0.85 ;&st7;   " d=" M   739.38,   505.75  C   738.59    505.75    737.96    506.38    737.96    507.17  " /><path style="stroke-width: 0.85 ;&st7;   " d=" M   737.96,   507.17  C   737.96    507.95    738.59    508.58    739.38    508.58  " /><path style="stroke-width: 0.85 ;&st7;   " d=" M   739.38,   508.58  C   740.16    508.58    740.79    507.95    740.79    507.17  " /><path style="stroke-width: 1.42 ;&st7;   " d=" M   705.38,   495.84  C   705.38    491.14    701.58    487.34    696.88    487.34  " /><path style="stroke-width: 1.42 ;&st7;   " d=" M   696.88,   487.34  C   692.19    487.34    688.38    491.14    688.38    495.84  " /><path style="stroke-width: 1.42 ;&st7;   " d=" M   688.38,   495.84  C   688.38    500.53    692.19    504.33    696.88    504.33  " /><path style="stroke-width: 1.42 ;&st7;   " d=" M   696.88,   504.33  C   701.58    504.33    705.38    500.53    705.38    495.84  " /><path style="stroke-width: 0.85 ;&st7;   " d=" M   876.77,   484.50  C   876.77    483.72    876.14    483.09    875.35    483.09  " /><path style="stroke-width: 0.85 ;&st7;   " d=" M   875.35,   483.09  C   874.57    483.09    873.94    483.72    873.94    484.50  " /><path style="stroke-width: 0.85 ;&st7;   " d=" M   873.94,   484.50  C   873.94    485.29    874.57    485.92    875.35    485.92  " /><path style="stroke-width: 0.85 ;&st7;   " d=" M   875.35,   485.92  C   876.14    485.92    876.77    485.29    876.77    484.50  " /><path style="stroke-width: 0.85 ;&st7;   " d=" M   876.77,   507.17  C   876.77    506.38    876.14    505.75    875.35    505.75  " /><path style="stroke-width: 0.85 ;&st7;   " d=" M   875.35,   505.75  C   874.57    505.75    873.94    506.38    873.94    507.17  " /><path style="stroke-width: 0.85 ;&st7;   " d=" M   873.94,   507.17  C   873.94    507.95    874.57    508.58    875.35    508.58  " /><path style="stroke-width: 0.85 ;&st7;   " d=" M   875.35,   508.58  C   876.14    508.58    876.77    507.95    876.77    507.17  " /><path style="stroke-width: 0.85 ;&st7;   " d=" M   859.77,   484.50  C   859.77    483.72    859.14    483.09    858.36    483.09  " /><path style="stroke-width: 0.85 ;&st7;   " d=" M   858.36,   483.09  C   857.57    483.09    856.94    483.72    856.94    484.50  " /><path style="stroke-width: 0.85 ;&st7;   " d=" M   856.94,   484.50  C   856.94    485.29    857.57    485.92    858.36    485.92  " /><path style="stroke-width: 0.85 ;&st7;   " d=" M   858.36,   485.92  C   859.14    485.92    859.77    485.29    859.77    484.50  " /><path style="stroke-width: 0.85 ;&st7;   " d=" M   859.77,   507.17  C   859.77    506.38    859.14    505.75    858.36    505.75  " /><path style="stroke-width: 0.85 ;&st7;   " d=" M   858.36,   505.75  C   857.57    505.75    856.94    506.38    856.94    507.17  " /><path style="stroke-width: 0.85 ;&st7;   " d=" M   856.94,   507.17  C   856.94    507.95    857.57    508.58    858.36    508.58  " /><path style="stroke-width: 0.85 ;&st7;   " d=" M   858.36,   508.58  C   859.14    508.58    859.77    507.95    859.77    507.17  " /><path style="stroke-width: 1.42 ;&st7;   " d=" M   824.36,   495.84  C   824.36    491.14    820.56    487.34    815.86    487.34  " /><path style="stroke-width: 1.42 ;&st7;   " d=" M   815.86,   487.34  C   811.17    487.34    807.37    491.14    807.37    495.84  " /><path style="stroke-width: 1.42 ;&st7;   " d=" M   807.37,   495.84  C   807.37    500.53    811.17    504.33    815.86    504.33  " /><path style="stroke-width: 1.42 ;&st7;   " d=" M   815.86,   504.33  C   820.56    504.33    824.36    500.53    824.36    495.84  " /><path style="stroke-width: 0.85 ;&st7;   " d=" M   638.81,   484.50  C   638.81    483.72    638.18    483.09    637.39    483.09  " /><path style="stroke-width: 0.85 ;&st7;   " d=" M   637.39,   483.09  C   636.61    483.09    635.98    483.72    635.98    484.50  " /><path style="stroke-width: 0.85 ;&st7;   " d=" M   635.98,   484.50  C   635.98    485.29    636.61    485.92    637.39    485.92  " /><path style="stroke-width: 0.85 ;&st7;   " d=" M   637.39,   485.92  C   638.18    485.92    638.81    485.29    638.81    484.50  " /><path style="stroke-width: 0.85 ;&st7;   " d=" M   638.81,   507.17  C   638.81    506.38    638.18    505.75    637.39    505.75  " /><path style="stroke-width: 0.85 ;&st7;   " d=" M   637.39,   505.75  C   636.61    505.75    635.98    506.38    635.98    507.17  " /><path style="stroke-width: 0.85 ;&st7;   " d=" M   635.98,   507.17  C   635.98    507.95    636.61    508.58    637.39    508.58  " /><path style="stroke-width: 0.85 ;&st7;   " d=" M   637.39,   508.58  C   638.18    508.58    638.81    507.95    638.81    507.17  " /><path style="stroke-width: 0.85 ;&st7;   " d=" M   621.81,   484.50  C   621.81    483.72    621.18    483.09    620.40    483.09  " /><path style="stroke-width: 0.85 ;&st7;   " d=" M   620.40,   483.09  C   619.61    483.09    618.98    483.72    618.98    484.50  " /><path style="stroke-width: 0.85 ;&st7;   " d=" M   618.98,   484.50  C   618.98    485.29    619.61    485.92    620.40    485.92  " /><path style="stroke-width: 0.85 ;&st7;   " d=" M   620.40,   485.92  C   621.18    485.92    621.81    485.29    621.81    484.50  " /><path style="stroke-width: 0.85 ;&st7;   " d=" M   621.81,   507.17  C   621.81    506.38    621.18    505.75    620.40    505.75  " /><path style="stroke-width: 0.85 ;&st7;   " d=" M   620.40,   505.75  C   619.61    505.75    618.98    506.38    618.98    507.17  " /><path style="stroke-width: 0.85 ;&st7;   " d=" M   618.98,   507.17  C   618.98    507.95    619.61    508.58    620.40    508.58  " /><path style="stroke-width: 0.85 ;&st7;   " d=" M   620.40,   508.58  C   621.18    508.58    621.81    507.95    621.81    507.17  " /><path style="stroke-width: 1.42 ;&st7;   " d=" M   586.40,   495.84  C   586.40    491.14    582.60    487.34    577.90    487.34  " /><path style="stroke-width: 1.42 ;&st7;   " d=" M   577.90,   487.34  C   573.21    487.34    569.40    491.14    569.40    495.84  " /><path style="stroke-width: 1.42 ;&st7;   " d=" M   569.40,   495.84  C   569.40    500.53    573.21    504.33    577.90    504.33  " /><path style="stroke-width: 1.42 ;&st7;   " d=" M   577.90,   504.33  C   582.60    504.33    586.40    500.53    586.40    495.84  " /><path style="stroke-width: 0.85 ;&st7;   " d=" M   454.67,   495.84  C   459.37    495.84    463.17    492.03    463.17    487.34  " /><path style="stroke-width: 0.85 ;&st7;   " d=" M   463.17,   487.34  C   463.17    482.64    459.37    478.84    454.67    478.84  " /><path style="stroke-width: 0.85 ;&st7;   " d=" M   437.68,   478.84  C   432.98    478.84    429.18    482.64    429.18    487.34  " /><path style="stroke-width: 0.85 ;&st7;   " d=" M   429.18,   487.34  C   429.18    492.03    432.98    495.84    437.68    495.84  " /><path style="stroke-width: 0.85 ;&st7;  " d=" M   645.89,   350.79  L   645.89,   444.84  " /><path style="stroke-width: 0.85 ;&st7;  " d=" M   611.90,   350.79  L   611.90,   444.84  " /><path style="stroke-width: 0.85 ;&st7;  " d=" M   577.90,   350.79  L   577.90,   444.84  " /><path style="stroke-width: 1.42 ;&st7;  " d=" M   892.35,   470.34  L   798.87,   470.34  " /><path style="stroke-width: 0.85 ;&st7;  " d=" M   815.86,   484.50  L   815.86,   470.34  " /><path style="stroke-width: 0.85 ;&st7;  " d=" M   815.86,   507.17  L   815.86,   521.33  L   832.86,   521.33  L   832.86,   470.34  " /><path style="stroke-width: 0.85 ;&st7;  " d=" M   841.36,   470.34  L   841.36,   521.33  L   875.35,   521.33  L   875.35,   512.83  " /><path style="stroke-width: 1.42 ;&st7;  " d=" M   798.87,   444.84  L   798.87,   538.33  L   892.35,   538.33  L   892.35,   444.84  L   798.87,   444.84  " /><path style="stroke-width: 1.42 ;&st7;  " d=" M   654.39,   470.34  L   560.91,   470.34  " /><path style="stroke-width: 0.85 ;&st7;  " d=" M   577.90,   484.50  L   577.90,   470.34  " /><path style="stroke-width: 0.85 ;&st7;  " d=" M   577.90,   507.17  L   577.90,   521.33  L   594.90,   521.33  L   594.90,   470.34  " /><path style="stroke-width: 1.42 ;&st7;  " d=" M   560.91,   444.84  L   560.91,   538.33  L   654.39,   538.33  L   654.39,   444.84  L   560.91,   444.84  " /><path style="stroke-width: 0.85 ;&st7;  " d=" M   467.42,   487.34  L   484.42,   487.34  L   484.42,   350.79  " /><path style="stroke-width: 0.85 ;&st7;  " d=" M   407.93,   350.79  L   407.93,   487.34  L   424.93,   487.34  " /><path style="stroke-width: 1.42 ;&st7;  " d=" M   467.42,   500.09  L   424.93,   500.09  L   424.93,   474.59  L   467.42,   474.59  L   467.42,   500.09  " /><path style="stroke-width: 0.85 ;&st7;  " d=" M   857.16,   520.33  L   856.89,   520.80  L   856.80,   521.33  L   856.89,   521.86  L   857.16,   522.33  L   857.58,   522.68  L   858.08,   522.87  L   858.63,   522.87  L   859.14,   522.68  L   859.55,   522.33  L   859.82,   521.86  L   859.91,   521.33  L   859.82,   520.80  L   859.55,   520.33  L   859.14,   519.98  L   858.63,   519.80  L   858.08,   519.80  L   857.58,   519.98  L   857.16,   520.33  L   857.56,   521.04  L   857.56,   521.62  L   857.93,   522.07  L   858.50,   522.17  L   859.01,   521.88  L   859.21,   521.33  L   859.01,   520.78  L   858.50,   520.50  L   857.93,   520.60  L   858.36,   521.33  " /><path style="stroke-width: 0.85 ;&st7;  " d=" M   619.20,   520.33  L   618.93,   520.80  L   618.84,   521.33  L   618.93,   521.86  L   619.20,   522.33  L   619.62,   522.68  L   620.12,   522.87  L   620.67,   522.87  L   621.18,   522.68  L   621.59,   522.33  L   621.86,   521.86  L   621.95,   521.33  L   621.86,   520.80  L   621.59,   520.33  L   621.18,   519.98  L   620.67,   519.80  L   620.12,   519.80  L   619.62,   519.98  L   619.20,   520.33  L   619.60,   521.04  L   619.60,   521.62  L   619.97,   522.07  L   620.54,   522.17  L   621.05,   521.88  L   621.25,   521.33  L   621.05,   520.78  L   620.54,   520.50  L   619.97,   520.60  L   620.40,   521.33  " /><path style="stroke-width: 0.85 ;&st7;  " d=" M   645.89,   376.86  L   883.85,   376.86  L   883.85,   444.84  " /><path style="stroke-width: 0.85 ;&st7;  " d=" M   611.90,   393.85  L   841.36,   393.85  L   841.36,   444.84  " /><path style="stroke-width: 0.85 ;&st7;  " d=" M   577.90,   410.85  L   815.86,   410.85  L   815.86,   444.84  " /><path style="stroke-width: 0.85 ;&st7;  " d=" M   644.70,   375.85  L   644.43,   376.32  L   644.33,   376.86  L   644.43,   377.39  L   644.70,   377.86  L   645.11,   378.20  L   645.62,   378.39  L   646.16,   378.39  L   646.67,   378.20  L   647.08,   377.86  L   647.36,   377.39  L   647.45,   376.86  L   647.36,   376.32  L   647.08,   375.85  L   646.67,   375.51  L   646.16,   375.32  L   645.62,   375.32  L   645.11,   375.51  L   644.70,   375.85  L   645.09,   376.56  L   645.09,   377.15  L   645.47,   377.59  L   646.04,   377.69  L   646.54,   377.40  L   646.74,   376.86  L   646.54,   376.31  L   646.04,   376.02  L   645.47,   376.12  L   645.89,   376.86  " /><path style="stroke-width: 0.85 ;&st7;  " d=" M   610.70,   392.85  L   610.43,   393.32  L   610.34,   393.85  L   610.43,   394.39  L   610.70,   394.86  L   611.12,   395.20  L   611.63,   395.39  L   612.17,   395.39  L   612.68,   395.20  L   613.09,   394.86  L   613.36,   394.39  L   613.46,   393.85  L   613.36,   393.32  L   613.09,   392.85  L   612.68,   392.50  L   612.17,   392.32  L   611.63,   392.32  L   611.12,   392.50  L   610.70,   392.85  L   611.10,   393.56  L   611.10,   394.14  L   611.47,   394.59  L   612.04,   394.69  L   612.55,   394.40  L   612.75,   393.85  L   612.55,   393.31  L   612.04,   393.02  L   611.47,   393.12  L   611.90,   393.85  " /><path style="stroke-width: 0.85 ;&st7;  " d=" M   576.71,   409.85  L   576.44,   410.32  L   576.35,   410.85  L   576.44,   411.38  L   576.71,   411.85  L   577.12,   412.20  L   577.63,   412.39  L   578.18,   412.39  L   578.68,   412.20  L   579.10,   411.85  L   579.37,   411.38  L   579.46,   410.85  L   579.37,   410.32  L   579.10,   409.85  L   578.68,   409.50  L   578.18,   409.31  L   577.63,   409.31  L   577.12,   409.50  L   576.71,   409.85  L   577.10,   410.56  L   577.10,   411.14  L   577.48,   411.59  L   578.05,   411.69  L   578.55,   411.40  L   578.75,   410.85  L   578.55,   410.30  L   578.05,   410.01  L   577.48,   410.11  L   577.90,   410.85  " /><path style="stroke-width: 0.85 ;&st7;  " d=" M   738.18,   520.33  L   737.91,   520.80  L   737.82,   521.33  L   737.91,   521.86  L   738.18,   522.33  L   738.60,   522.68  L   739.10,   522.87  L   739.65,   522.87  L   740.16,   522.68  L   740.57,   522.33  L   740.84,   521.86  L   740.93,   521.33  L   740.84,   520.80  L   740.57,   520.33  L   740.16,   519.98  L   739.65,   519.80  L   739.10,   519.80  L   738.60,   519.98  L   738.18,   520.33  L   738.58,   521.04  L   738.58,   521.62  L   738.95,   522.07  L   739.52,   522.17  L   740.03,   521.88  L   740.23,   521.33  L   740.03,   520.78  L   739.52,   520.50  L   738.95,   520.60  L   739.38,   521.33  " /><path style="stroke-width: 1.42 ;&st7;  " d=" M   679.89,   444.84  L   679.89,   538.33  L   773.37,   538.33  L   773.37,   444.84  L   679.89,   444.84  " /><path style="stroke-width: 0.85 ;&st7;  " d=" M   722.38,   470.34  L   722.38,   521.33  L   756.37,   521.33  L   756.37,   512.83  " /><path style="stroke-width: 0.85 ;&st7;  " d=" M   696.88,   507.17  L   696.88,   521.33  L   713.88,   521.33  L   713.88,   470.34  " /><path style="stroke-width: 0.85 ;&st7;  " d=" M   696.88,   484.50  L   696.88,   470.34  " /><path style="stroke-width: 1.42 ;&st7;  " d=" M   773.37,   470.34  L   679.89,   470.34  " /><path style="stroke-width: 0.85 ;&st7;  " d=" M   764.87,   444.84  L   764.87,   376.86  " /><path style="stroke-width: 0.85 ;&st7;  " d=" M   722.38,   393.85  L   722.38,   444.84  " /><path style="stroke-width: 0.85 ;&st7;  " d=" M   696.88,   410.85  L   696.88,   444.84  " /><path style="stroke-width: 0.85 ;&st7;  " d=" M   763.68,   375.85  L   763.41,   376.32  L   763.31,   376.86  L   763.41,   377.39  L   763.68,   377.86  L   764.09,   378.20  L   764.60,   378.39  L   765.14,   378.39  L   765.65,   378.20  L   766.06,   377.86  L   766.34,   377.39  L   766.43,   376.86  L   766.34,   376.32  L   766.06,   375.85  L   765.65,   375.51  L   765.14,   375.32  L   764.60,   375.32  L   764.09,   375.51  L   763.68,   375.85  L   764.07,   376.56  L   764.07,   377.15  L   764.45,   377.59  L   765.02,   377.69  L   765.52,   377.40  L   765.72,   376.86  L   765.52,   376.31  L   765.02,   376.02  L   764.45,   376.12  L   764.87,   376.86  " /><path style="stroke-width: 0.85 ;&st7;  " d=" M   721.19,   392.85  L   720.91,   393.32  L   720.82,   393.85  L   720.91,   394.39  L   721.19,   394.86  L   721.60,   395.20  L   722.11,   395.39  L   722.65,   395.39  L   723.16,   395.20  L   723.57,   394.86  L   723.84,   394.39  L   723.94,   393.85  L   723.84,   393.32  L   723.57,   392.85  L   723.16,   392.50  L   722.65,   392.32  L   722.11,   392.32  L   721.60,   392.50  L   721.19,   392.85  L   721.58,   393.56  L   721.58,   394.14  L   721.95,   394.59  L   722.53,   394.69  L   723.03,   394.40  L   723.23,   393.85  L   723.03,   393.31  L   722.53,   393.02  L   721.95,   393.12  L   722.38,   393.85  " /><path style="stroke-width: 0.85 ;&st7;  " d=" M   695.69,   409.85  L   695.42,   410.32  L   695.33,   410.85  L   695.42,   411.38  L   695.69,   411.85  L   696.10,   412.20  L   696.61,   412.39  L   697.16,   412.39  L   697.66,   412.20  L   698.08,   411.85  L   698.35,   411.38  L   698.44,   410.85  L   698.35,   410.32  L   698.08,   409.85  L   697.66,   409.50  L   697.16,   409.31  L   696.61,   409.31  L   696.10,   409.50  L   695.69,   409.85  L   696.08,   410.56  L   696.08,   411.14  L   696.46,   411.59  L   697.03,   411.69  L   697.53,   411.40  L   697.73,   410.85  L   697.53,   410.30  L   697.03,   410.01  L   696.46,   410.11  L   696.88,   410.85  " /><path style="stroke-width: 0.85 ;&st7;  " d=" M   603.40,   470.34  L   603.40,   483.09  " /><path style="stroke-width: 0.85 ;&st7;  " d=" M   603.40,   508.58  L   603.40,   521.33  L   637.39,   521.33  L   637.39,   512.83  " /><path style="stroke-width: 1.42 ;&st7;  " d=" M   909.35,   350.79  L   382.44,   350.79  L   382.44,   562.69  L   909.35,   562.69  L   909.35,   350.79  " /><text style="font-size:6px;font-family:'NSimSun';" transform="matrix(&st16;  575.17  497.81 )">M</text><text style="font-size:6px;font-family:'NSimSun';" transform="matrix(&st16;  813.13  497.81 )">M</text><text style="font-size:6px;font-family:'NSimSun';" transform="matrix(&st16;  694.15  497.81 )">M</text><text style="font-size:6px;font-family:'NSimSun';" transform="matrix(&st16; 420.04 511.40)" ewd:textID="27" ewd:horAlign="center">1 号冷却器热敏电阻<tspan x="0 " dy="6.0" /></text><text style="font-size:6px;font-family:'NSimSun';" transform="matrix(&st16; 570.08 545.40)" ewd:textID="11" ewd:horAlign="center">空气混合风门伺服机构分总成<tspan x="0 " dy="6.0" /></text><text style="font-size:6px;font-family:'NSimSun';" transform="matrix(&st16; 695.95 545.40)" ewd:textID="24" ewd:horAlign="center">模式风门伺服机构分总成<tspan x="0 " dy="6.0" /></text><text style="font-size:6px;font-family:'NSimSun';" transform="matrix(&st16; 805.46 545.40)" ewd:textID="25" ewd:horAlign="center">1 号鼓风机风门伺服机构分总成<tspan x="0 " dy="6.0" /></text><text style="font-size:6px;font-family:'NSimSun';" transform="matrix(&st16; 576.09 460.17)" ewd:textID="17" ewd:horAlign="center">连接器外壳颜色（蓝色）<tspan x="0 " dy="6.0" /></text><text style="font-size:6px;font-family:'NSimSun';" transform="matrix(&st16; 695.07 460.17)" ewd:textID="18" ewd:horAlign="center">连接器外壳颜色（红色）<tspan x="0 " dy="6.0" /></text><text style="font-size:6px;font-family:'NSimSun';" transform="matrix(&st16; 814.05 460.17)" ewd:textID="16" ewd:horAlign="center">连接器外壳颜色（黑色）<tspan x="0 " dy="6.0" /></text><g ewd:figtype="title"><text style="font-size:6px;font-family:'NSimSun';" transform="matrix(&st16;  396.02  570.3 )">z1(B)</text><text style="font-size:6px;font-family:'NSimSun';" transform="matrix(&st16;  396.03  577.41 )" ewd:textID="8">空调线束总成</text></g></g><g ewd:figtype="jb" ewd:figID="46" ewd:code="3"><path style="stroke-width: 1.42 ;&st7;  " d=" M   180.59,   214.25  L   176.35,   214.25  " /><path style="stroke-width: 1.42 ;&st7;  " d=" M   180.59,   163.26  L   176.35,   163.26  " /><path style="stroke-width: 1.42 ;&st7;  " d=" M   180.59,   171.76  L   176.35,   171.76  " /><path style="stroke-width: 1.42 ;&st7;  " d=" M   180.59,   205.75  L   176.35,   205.75  " /><path style="stroke-width: 1.42 ;&st7;   " d=" M   176.35,   163.26  C   174.00    163.26    172.10    165.16    172.10    167.51  " /><path style="stroke-width: 1.42 ;&st7;   " d=" M   172.10,   167.51  C   172.10    169.85    174.00    171.76    176.35    171.76  " /><path style="stroke-width: 1.42 ;&st7;   " d=" M   180.59,   171.76  C   182.94    171.76    184.84    169.85    184.84    167.51  " /><path style="stroke-width: 1.42 ;&st7;   " d=" M   184.84,   167.51  C   184.84    165.16    182.94    163.26    180.59    163.26  " /><path style="stroke-width: 1.42 ;&st7;   " d=" M   176.35,   205.75  C   174.00    205.75    172.10    207.65    172.10    210.00  " /><path style="stroke-width: 1.42 ;&st7;   " d=" M   172.10,   210.00  C   172.10    212.35    174.00    214.25    176.35    214.25  " /><path style="stroke-width: 1.42 ;&st7;   " d=" M   180.59,   214.25  C   182.94    214.25    184.84    212.35    184.84    210.00  " /><path style="stroke-width: 1.42 ;&st7;   " d=" M   184.84,   210.00  C   184.84    207.65    182.94    205.75    180.59    205.75  " /><path style="stroke-width: 0.28 ;&st9;  " d=" M   178.47,   176.65  L   181.30,   179.48  L   181.30,   175.24  L   178.47,   172.40  L   175.64,   175.24  L   175.64,   179.48  L   178.47,   176.65  " /><path style="stroke-width: 0.28 ;&st9;  " d=" M   178.47,   200.86  L   175.64,   198.02  L   175.64,   202.27  L   178.47,   205.11  L   181.30,   202.27  L   181.30,   198.02  L   178.47,   200.86  " /><path style="stroke-width: 0.85 ;&st7;  " d=" M   178.47,   205.75  L   178.47,   171.76  " /><text style="font-size:6px;font-family:'NSimSun';" transform="matrix(&st16;  174.61  169.48 )">3A</text><text style="font-size:6px;font-family:'NSimSun';" transform="matrix(&st16;  164.86  169.48 )">44</text><text style="font-size:6px;font-family:'NSimSun';" transform="matrix(&st16;  174.54  211.97 )">3D</text><text style="font-size:6px;font-family:'NSimSun';" transform="matrix(&st16;  164.86  211.97 )">17</text></g><g ewd:figtype="w2w" ewd:figID="54" ewd:code="AE1"><path style="stroke-width: 1.42 ;&st7;  " d=" M    38.24,   219.92  L    33.99,   215.67  L    29.75,   219.92  " /><path style="stroke-width: 1.42 ;&st7;  " d=" M    38.24,   223.31  L    33.99,   219.07  L    29.75,   223.31  " /><text style="font-size:6px;font-family:'NSimSun';" transform="matrix(&st16;  21.36  211.97 )">1</text></g><g ewd:figtype="w2w" ewd:figID="55" ewd:code="BA2"><path style="stroke-width: 1.42 ;&st7;  " d=" M   327.20,   443.14  L   331.44,   447.39  L   335.69,   443.14  " /><path style="stroke-width: 1.42 ;&st7;  " d=" M   335.69,   446.54  L   331.44,   450.79  L   327.20,   446.54  " /><text style="font-size:6px;font-family:'NSimSun';" transform="matrix(&st16;  315.71  458.43 )">16</text></g><g ewd:figtype="w2w" ewd:figID="56" ewd:code="AE2"><path style="stroke-width: 1.42 ;&st7;  " d=" M   327.20,   392.15  L   331.44,   396.40  L   335.69,   392.15  " /><path style="stroke-width: 1.42 ;&st7;  " d=" M   335.69,   395.55  L   331.44,   399.80  L   327.20,   395.55  " /><text style="font-size:6px;font-family:'NSimSun';" transform="matrix(&st16;  318.81  407.44 )">9</text></g><g ewd:figtype="w2w" ewd:figID="57" ewd:code="EF1"><path style="stroke-width: 1.42 ;&st7;  " d=" M   335.69,   205.18  L   339.94,   209.43  L   344.19,   205.18  " /><path style="stroke-width: 1.42 ;&st7;  " d=" M   344.19,   208.58  L   339.94,   212.83  L   335.69,   208.58  " /><text style="font-size:6px;font-family:'NSimSun';" transform="matrix(&st16;  327.31  220.47 )">1</text></g><g ewd:figtype="w2w" ewd:figID="58" ewd:code="EF1"><path style="stroke-width: 1.42 ;&st7;  " d=" M   403.68,   205.18  L   407.93,   209.43  L   412.18,   205.18  " /><path style="stroke-width: 1.42 ;&st7;  " d=" M   412.18,   208.58  L   407.93,   212.83  L   403.68,   208.58  " /><text style="font-size:6px;font-family:'NSimSun';" transform="matrix(&st16;  395.3  220.47 )">2</text></g><g ewd:figtype="gp" ewd:figID="71" ewd:code="EC"><path style="stroke-width: 0.85 ;&st7;  " d=" M    32.58,   710.00  L    35.41,   710.00  " /><path style="stroke-width: 0.85 ;&st7;  " d=" M    31.16,   707.17  L    36.83,   707.17  " /><path style="stroke-width: 0.85 ;&st7;  " d=" M    29.75,   704.33  L    38.24,   704.33  " /><path style="stroke-width: 0.85 ;&st7;  " d=" M    25.50,   701.50  L    42.49,   701.50  " /><path style="stroke-width: 0.85 ;&st7;  " d=" M    33.99,   697.25  L    33.99,   701.50  " /></g><g ewd:figtype="gp" ewd:figID="72" ewd:code="EB"><path style="stroke-width: 0.85 ;&st7;  " d=" M   228.05,   710.00  L   230.88,   710.00  " /><path style="stroke-width: 0.85 ;&st7;  " d=" M   226.63,   707.17  L   232.29,   707.17  " /><path style="stroke-width: 0.85 ;&st7;  " d=" M   225.21,   704.33  L   233.71,   704.33  " /><path style="stroke-width: 0.85 ;&st7;  " d=" M   220.96,   701.50  L   237.96,   701.50  " /><path style="stroke-width: 0.85 ;&st7;  " d=" M   229.46,   697.25  L   229.46,   701.50  " /></g><g ewd:figtype="gp" ewd:figID="73" ewd:code="BA"><path style="stroke-width: 0.85 ;&st7;  " d=" M   330.03,   710.00  L   332.86,   710.00  " /><path style="stroke-width: 0.85 ;&st7;  " d=" M   328.61,   707.17  L   334.28,   707.17  " /><path style="stroke-width: 0.85 ;&st7;  " d=" M   327.20,   704.33  L   335.69,   704.33  " /><path style="stroke-width: 0.85 ;&st7;  " d=" M   322.95,   701.50  L   339.94,   701.50  " /><path style="stroke-width: 0.85 ;&st7;  " d=" M   331.44,   697.25  L   331.44,   701.50  " /></g></svg>