<?xml version="1.0" encoding="utf-8"?>
<!DOCTYPE svg PUBLIC "-//W3C//DTD SVG 1.0//EN" "http://www.w3.org/TR/2001/REC-SVG-20010904/DTD/svg10.dtd"[
	<!ENTITY ns_flows "http://ns.adobe.com/Flows/1.0/">
	<!ENTITY ns_svg "http://www.w3.org/2000/svg">
	<!ENTITY ns_xlink "http://www.w3.org/1999/xlink">
	<!ENTITY st0 "font-size:7px;font-family:'NSimSun';adobe-font-script:japanese;">
	<!ENTITY st1 "font-size:6px;font-family:'NSimSun';">
	<!-- White fill  -->
	<!ENTITY st2 "fill:#FFFFFF;stroke:#000000; stroke-width:1.41;stroke-linecap:round;stroke-linejoin:round;">
	<!-- Yellow fill  -->
	<!ENTITY st3 "fill:#FFFFCC;stroke:#FFFFCC; stroke-width:0.1;stroke-linecap:round;stroke-linejoin:round;">
	<!-- Gray fill  -->
	<!ENTITY st4 "fill:#CCCCCC;stroke:#CCCCCC; stroke-width:0.1;stroke-linecap:round;stroke-linejoin:round;">
	<!-- Light-blue fill -->
	<!ENTITY st5 "fill:#CCECF4;stroke:#000000; stroke-width:1.133;stroke-linecap:round;stroke-linejoin:round;">
	<!ENTITY st6 "fill:none;stroke-linecap:butt; stroke-linejoin:round;">
	<!ENTITY st7 "fill:none;stroke:#000000;stroke-linecap:round;stroke-linejoin:round;">
	<!ENTITY st8 "enable-background:new    ;">
	<!-- Black fill -->
	<!ENTITY st9 "fill:#000000;stroke:#000000; stroke-linecap:round;stroke-linejoin:round;">
	<!-- SRS note   -->
	<!ENTITY st10 "font-size:9px;font-family:'NSimSun';">
	<!ENTITY st11 "font-size:9px;font-family:'NSimSun';">
	<!ENTITY st12 "font-size:6px;font-family:'NSimSun';">
	<!ENTITY st13 "fill:none;stroke:#ff0000;stroke-linecap:round;stroke-linejoin:round;">
	<!-- Yellow fill  -->
	<!ENTITY st14 "fill:#FFFF00;stroke:#FFFF00; stroke-width:0.1;stroke-linecap:round;stroke-linejoin:round;">
	<!ENTITY st15 "font-size:6px;font-family:'NSimSun';adobe-font-script:japanese;">
	<!ENTITY st16 "1.00 0.00 0.00 1.00">
	<!ENTITY st17 "0.00 -1.00 1.00 0.00">
	<!ENTITY st18 "font-size:6px;font-family:'NSimSun';">
	<!ENTITY st19 "font-size:9px;font-family:'NSimSun';">
	<!ENTITY st20 "font-size:6px;font-family:'NSimSun';adobe-font-script:japanese;">
	<!ENTITY st21 "font-size:7px;font-family:'NSimSun';adobe-font-script:japanese;">
	<!ATTLIST svg
		xmlns:ewd CDATA #FIXED "http://shcl.co.jp/ewd"
		xmlns:a CDATA #FIXED "http://ns.adobe.com/AdobeSVGViewerExtensions/3.0/"
		ewd:ver CDATA #IMPLIED
	>
	<!ATTLIST a
		ewd:lineID CDATA #IMPLIED
		ewd:groupID CDATA #IMPLIED
		ewd:figtype CDATA #IMPLIED
		ewd:code CDATA #IMPLIED
		ewd:figID CDATA #IMPLIED
		ewd:pinNo CDATA #IMPLIED
		ewd:comment CDATA #IMPLIED >
	<!ATTLIST g
		ewd:lineID CDATA #IMPLIED
		ewd:groupID CDATA #IMPLIED
		ewd:figtype CDATA #IMPLIED
		ewd:code CDATA #IMPLIED
		ewd:figID CDATA #IMPLIED
		ewd:pinNo CDATA #IMPLIED
		ewd:comment CDATA #IMPLIED >
	<!ATTLIST text
		ewd:textID CDATA #IMPLIED
		ewd:horAlign CDATA #IMPLIED >
	<!ATTLIST title
		ewd:textID CDATA #IMPLIED >
]>
<!-- Generator: Shintec Hozumi YS   -->
<svg onload="call_execInitLoadProc_svg('system')" style="overflow:visible;  enable-background:new 0 0 3555.779 710.000" viewBox="0 0 3559.901 710.000" height="710.000" width="3559.901" xml:space="preserve" ewd:ver="2.1.2.6F" xmlns="&ns_svg;" xmlns:ewd="http://shcl.co.jp/ewd" xmlns:a="http://ns.adobe.com/AdobeSVGViewerExtensions/3.0/" xmlns:xlink="&ns_xlink;">
<text style="font-size:6px;font-family:'NSimSun';" transform="matrix(&st17;  3038.8  472.76 )">BR</text><text style="font-size:6px;font-family:'NSimSun';" transform="matrix(&st17;  3271.09  558.91 )">(*3)</text><text style="font-size:6px;font-family:'NSimSun';" transform="matrix(&st17;  3271.09  138.23 )">(*3)</text><text style="font-size:6px;font-family:'NSimSun';" transform="matrix(&st17;  3336.25  228.49 )">P</text><text style="font-size:6px;font-family:'NSimSun';" transform="matrix(&st17;  3259.76  229.46 )">W</text><text style="font-size:6px;font-family:'NSimSun';" transform="matrix(&st17;  3378.74  557.74 )">BR</text><text style="font-size:6px;font-family:'NSimSun';" transform="matrix(&st17;  3259.76  135.98 )">W</text><text style="font-size:6px;font-family:'NSimSun';" transform="matrix(&st17;  3347.58  231.71 )">(*3)</text><text style="font-size:6px;font-family:'NSimSun';" transform="matrix(&st17;  3271.09  231.71 )">(*3)</text><text style="font-size:6px;font-family:'NSimSun';" transform="matrix(&st17;  3259.76  556.66 )">W</text><text style="font-size:6px;font-family:'NSimSun';" transform="matrix(&st17;  3327.75  557.98 )">LG</text><text style="font-size:6px;font-family:'NSimSun';" transform="matrix(&st17;  3339.08  558.91 )">(*3)</text><text style="font-size:6px;font-family:'NSimSun';" transform="matrix(&st17;  3390.07  558.91 )">(*3)</text><text style="font-size:6px;font-family:'NSimSun';" transform="matrix(&st16;  3077.06  635.48 )">W(*3)</text><text style="font-size:6px;font-family:'NSimSun';" transform="matrix(&st16;  3075.74  652.48 )">LG(*3)</text><text style="font-size:6px;font-family:'NSimSun';" transform="matrix(&st16;  3128.05  635.48 )">W(*3)</text><text style="font-size:6px;font-family:'NSimSun';" transform="matrix(&st16;  3126.73  652.48 )">LG(*3)</text><text style="font-size:6px;font-family:'NSimSun';" transform="matrix(&st17;  3007.63  473.92 )">(*2)</text><text style="font-size:6px;font-family:'NSimSun';" transform="matrix(&st17;  3007.63  533.41 )">(*2)</text><text style="font-size:6px;font-family:'NSimSun';" transform="matrix(&st17;  3050.13  473.92 )">(*2)</text><path style="stroke-width: 1.42 ;&st7;  " d=" M  3433.43,   545.69  L  3441.92,   545.69  " /><path style="stroke-width: 1.42 ;&st7;  " d=" M  3475.92,   545.69  L  3484.42,   545.69  " /><text style="font-size:6px;font-family:'NSimSun';" transform="matrix(&st17;  3480.72  526.41 )">G</text><text style="font-size:6px;font-family:'NSimSun';" transform="matrix(&st17;  3438.23  526.91 )">W</text><text style="font-size:6px;font-family:'NSimSun';" transform="matrix(&st17;  3480.72  581.65 )">G</text><text style="font-size:6px;font-family:'NSimSun';" transform="matrix(&st17;  3438.23  582.15 )">W</text><text style="font-size:6px;font-family:'NSimSun';" transform="matrix(&st17;  3449.56  584.4 )">(*3)</text><text style="font-size:6px;font-family:'NSimSun';" transform="matrix(&st17;  3492.05  584.4 )">(*3)</text><text style="font-size:6px;font-family:'NSimSun';" transform="matrix(&st17;  3449.56  529.16 )">(*3)</text><text style="font-size:6px;font-family:'NSimSun';" transform="matrix(&st17;  3492.05  529.16 )">(*3)</text><g ewd:figtype="rb" ewd:figID="29" ewd:code="FUSE6"><path style="stroke-width: 1.42 ;&st7;  " d=" M  3265.58,    95.27  L  3261.33,    95.27  " /><path style="stroke-width: 0.85 ;&st7;  " d=" M  3263.45,    69.77  L  3263.45,    95.27  " /><path style="stroke-width: 1.42 ;&st7;  " d=" M  3265.58,   103.77  L  3261.33,   103.77  " /><path style="stroke-width: 1.42 ;&st7;   " d=" M  3269.83,    99.52  C  3269.83     97.17   3267.93     95.27   3265.58     95.27  " /><path style="stroke-width: 1.42 ;&st7;   " d=" M  3265.58,   103.77  C  3267.93    103.77   3269.83    101.87   3269.83     99.52  " /><path style="stroke-width: 1.42 ;&st7;   " d=" M  3257.08,    99.52  C  3257.08    101.87   3258.98    103.77   3261.33    103.77  " /><path style="stroke-width: 1.42 ;&st7;   " d=" M  3261.33,    95.27  C  3258.98     95.27   3257.08     97.17   3257.08     99.52  " /><path style="stroke-width: 0.28 ;&st9;  " d=" M  3263.45,    90.37  L  3260.62,    87.54  L  3260.62,    91.79  L  3263.45,    94.62  L  3266.29,    91.79  L  3266.29,    87.54  L  3263.45,    90.37  " /><text style="font-size:6px;font-family:'NSimSun';" transform="matrix(&st16;  3255.41  32.08 )">(BAT)</text><text style="font-size:6px;font-family:'NSimSun';" transform="matrix(&st16;  3257.27  86.47 )">2</text><text style="font-size:6px;font-family:'NSimSun';" transform="matrix(&st16;  3261.65  101.49 )">1</text><text style="font-size:6px;font-family:'NSimSun';" transform="matrix(&st16;  3279.88  53.34 )">10A <tspan x="0 " dy="6.0">ECU-B </tspan><tspan x="0 " dy="6.0">NO.2</tspan></text><path style="stroke-width: 1.42 ;&st7;   " d=" M  3263.45,    47.11  C  3260.72     48.72   3259.80     52.25   3261.42     54.99  " /><path style="stroke-width: 1.42 ;&st7;   " d=" M  3261.42,    54.99  C  3261.94     55.87   3262.57     56.51   3263.45     57.03  " /><path style="stroke-width: 0.85 ;&st7;   " d=" M  3264.87,    68.36  C  3264.87     67.57   3264.24     66.94   3263.45     66.94  " /><path style="stroke-width: 0.85 ;&st7;   " d=" M  3263.45,    66.94  C  3262.67     66.94   3262.04     67.57   3262.04     68.36  " /><path style="stroke-width: 0.85 ;&st7;   " d=" M  3262.04,    68.36  C  3262.04     69.14   3262.67     69.77   3263.45     69.77  " /><path style="stroke-width: 0.85 ;&st7;   " d=" M  3263.45,    69.77  C  3264.24     69.77   3264.87     69.14   3264.87     68.36  " /><path style="stroke-width: 0.85 ;&st7;   " d=" M  3264.87,    45.69  C  3264.87     44.91   3264.24     44.28   3263.45     44.28  " /><path style="stroke-width: 0.85 ;&st7;   " d=" M  3263.45,    44.28  C  3262.67     44.28   3262.04     44.91   3262.04     45.69  " /><path style="stroke-width: 0.85 ;&st7;   " d=" M  3262.04,    45.69  C  3262.04     46.48   3262.67     47.11   3263.45     47.11  " /><path style="stroke-width: 0.85 ;&st7;   " d=" M  3263.45,    47.11  C  3264.24     47.11   3264.87     46.48   3264.87     45.69  " /><path style="stroke-width: 1.42 ;&st7;   " d=" M  3263.45,    66.94  C  3266.19     65.33   3267.10     61.80   3265.49     59.06  " /><path style="stroke-width: 1.42 ;&st7;   " d=" M  3265.49,    59.06  C  3264.97     58.18   3264.34     57.55   3263.45     57.03  " /><path style="stroke-width: 1.42 ;&st7;  " d=" M  3250.71,    35.78  L  3250.71,    78.27  L  3276.20,    78.27  L  3276.20,    35.78  L  3250.71,    35.78  " /></g><g ewd:figtype="conn" ewd:figID="30" ewd:code="E55"><path style="stroke-width: 1.42 ;&st7;  " d=" M  3339.94,   375.72  L  3356.94,   375.72  " /><path style="stroke-width: 0.85 ;&st7;  " d=" M  3339.94,   367.22  L  3345.23,   375.16  " /><path style="stroke-width: 0.85 ;&st7;  " d=" M  3351.27,   375.72  L  3356.94,   367.22  " /><path style="stroke-width: 0.85 ;&st7;  " d=" M  3267.70,   299.24  L  3259.21,   299.24  " /><path style="stroke-width: 0.85 ;&st7;  " d=" M  3348.44,   375.72  L  3348.44,   384.22  " /><path style="stroke-width: 0.85 ;&st7;  " d=" M  3297.45,   462.83  L  3297.45,   452.21  " /><path style="stroke-width: 1.42 ;&st7;  " d=" M  3301.70,   467.08  L  3293.20,   467.08  " /><path style="stroke-width: 1.42 ;&st7;  " d=" M  3301.70,   462.83  L  3293.20,   462.83  " /><path style="stroke-width: 0.85 ;&st7;  " d=" M  3344.19,   299.24  L  3335.69,   299.24  " /><path style="stroke-width: 0.28 ;&st9;  " d=" M  3263.45,   299.24  L  3257.79,   290.74  L  3269.12,   290.74  L  3263.45,   299.24  " /><path style="stroke-width: 0.85 ;&st7;  " d=" M  3287.76,   366.22  L  3287.48,   366.69  L  3287.39,   367.22  L  3287.48,   367.76  L  3287.76,   368.23  L  3288.17,   368.57  L  3288.68,   368.76  L  3289.22,   368.76  L  3289.73,   368.57  L  3290.14,   368.23  L  3290.41,   367.76  L  3290.51,   367.22  L  3290.41,   366.69  L  3290.14,   366.22  L  3289.73,   365.88  L  3289.22,   365.69  L  3288.68,   365.69  L  3288.17,   365.88  L  3287.76,   366.22  L  3288.15,   366.93  L  3288.15,   367.52  L  3288.52,   367.96  L  3289.10,   368.06  L  3289.60,   367.77  L  3289.80,   367.22  L  3289.60,   366.68  L  3289.10,   366.39  L  3288.52,   366.49  L  3288.95,   367.22  " /><path style="stroke-width: 0.85 ;&st7;  " d=" M  3330.25,   366.22  L  3329.98,   366.69  L  3329.88,   367.22  L  3329.98,   367.76  L  3330.25,   368.23  L  3330.66,   368.57  L  3331.17,   368.76  L  3331.71,   368.76  L  3332.22,   368.57  L  3332.63,   368.23  L  3332.91,   367.76  L  3333.00,   367.22  L  3332.91,   366.69  L  3332.63,   366.22  L  3332.22,   365.88  L  3331.71,   365.69  L  3331.17,   365.69  L  3330.66,   365.88  L  3330.25,   366.22  L  3330.64,   366.93  L  3330.64,   367.52  L  3331.02,   367.96  L  3331.59,   368.06  L  3332.09,   367.77  L  3332.29,   367.22  L  3332.09,   366.68  L  3331.59,   366.39  L  3331.02,   366.49  L  3331.44,   367.22  " /><path style="stroke-width: 0.85 ;&st7;  " d=" M  3348.44,   350.23  L  3365.44,   350.23  " /><path style="stroke-width: 0.85 ;&st7;  " d=" M  3322.94,   350.23  L  3339.94,   350.23  " /><path style="stroke-width: 1.42 ;&st7;  " d=" M  3254.95,   409.72  L  3254.95,   392.72  L  3339.94,   392.72  L  3339.94,   409.72  " /><path style="stroke-width: 0.28 ;&st9;  " d=" M  3339.94,   299.24  L  3334.27,   290.74  L  3345.61,   290.74  L  3339.94,   299.24  " /><path style="stroke-width: 0.85 ;&st7;  " d=" M  3296.26,   451.21  L  3295.98,   451.68  L  3295.89,   452.21  L  3295.98,   452.74  L  3296.26,   453.21  L  3296.67,   453.56  L  3297.18,   453.75  L  3297.72,   453.75  L  3298.23,   453.56  L  3298.64,   453.21  L  3298.91,   452.74  L  3299.01,   452.21  L  3298.91,   451.68  L  3298.64,   451.21  L  3298.23,   450.86  L  3297.72,   450.67  L  3297.18,   450.67  L  3296.67,   450.86  L  3296.26,   451.21  L  3296.65,   451.92  L  3296.65,   452.50  L  3297.02,   452.95  L  3297.59,   453.05  L  3298.10,   452.76  L  3298.30,   452.21  L  3298.10,   451.66  L  3297.59,   451.37  L  3297.02,   451.47  L  3297.45,   452.21  " /><path style="stroke-width: 0.85 ;&st7;  " d=" M  3296.03,   486.20  L  3298.86,   486.20  " /><path style="stroke-width: 0.85 ;&st7;  " d=" M  3294.61,   483.37  L  3300.28,   483.37  " /><path style="stroke-width: 0.85 ;&st7;  " d=" M  3293.20,   480.54  L  3301.70,   480.54  " /><path style="stroke-width: 0.85 ;&st7;  " d=" M  3288.95,   477.71  L  3305.95,   477.71  " /><path style="stroke-width: 0.85 ;&st7;  " d=" M  3297.45,   467.08  L  3297.45,   477.71  " /><path style="stroke-width: 0.85 ;&st7;  " d=" M  3262.26,   451.21  L  3261.99,   451.68  L  3261.90,   452.21  L  3261.99,   452.74  L  3262.26,   453.21  L  3262.67,   453.56  L  3263.18,   453.75  L  3263.72,   453.75  L  3264.23,   453.56  L  3264.65,   453.21  L  3264.92,   452.74  L  3265.01,   452.21  L  3264.92,   451.68  L  3264.65,   451.21  L  3264.23,   450.86  L  3263.72,   450.67  L  3263.18,   450.67  L  3262.67,   450.86  L  3262.26,   451.21  L  3262.65,   451.92  L  3262.65,   452.50  L  3263.03,   452.95  L  3263.60,   453.05  L  3264.10,   452.76  L  3264.30,   452.21  L  3264.10,   451.66  L  3263.60,   451.37  L  3263.03,   451.47  L  3263.45,   452.21  " /><path style="stroke-width: 0.85 ;&st7;  " d=" M  3330.25,   451.21  L  3329.98,   451.68  L  3329.88,   452.21  L  3329.98,   452.74  L  3330.25,   453.21  L  3330.66,   453.56  L  3331.17,   453.75  L  3331.71,   453.75  L  3332.22,   453.56  L  3332.63,   453.21  L  3332.91,   452.74  L  3333.00,   452.21  L  3332.91,   451.68  L  3332.63,   451.21  L  3332.22,   450.86  L  3331.71,   450.67  L  3331.17,   450.67  L  3330.66,   450.86  L  3330.25,   451.21  L  3330.64,   451.92  L  3330.64,   452.50  L  3331.02,   452.95  L  3331.59,   453.05  L  3332.09,   452.76  L  3332.29,   452.21  L  3332.09,   451.66  L  3331.59,   451.37  L  3331.02,   451.47  L  3331.44,   452.21  " /><path style="stroke-width: 0.85 ;&st7;  " d=" M  3297.45,   452.21  L  3305.95,   452.21  L  3307.36,   449.38  L  3310.20,   455.04  L  3313.03,   449.38  L  3315.86,   455.04  L  3318.69,   449.38  L  3321.53,   455.04  L  3322.94,   452.21  L  3331.44,   452.21  " /><path style="stroke-width: 0.85 ;&st7;  " d=" M  3288.95,   316.23  L  3288.95,   333.23  " /><path style="stroke-width: 0.85 ;&st7;  " d=" M  3288.95,   367.22  L  3339.94,   367.22  " /><path style="stroke-width: 0.85 ;&st7;  " d=" M  3345.23,   375.16  L  3342.05,   373.02  L  3344.48,   371.40  L  3345.23,   375.16  L  3344.41,   373.92  L  3343.07,   373.03  L  3344.09,   372.34  L  3344.41,   373.92  L  3344.00,   373.31  L  3343.57,   373.03  L  3343.90,   372.81  L  3344.00,   373.31  " /><path style="stroke-width: 0.85 ;&st7;  " d=" M  3263.45,   452.21  L  3271.95,   452.21  L  3273.37,   449.38  L  3276.20,   455.04  L  3279.03,   449.38  L  3281.87,   455.04  L  3284.70,   449.38  L  3287.53,   455.04  L  3288.95,   452.21  L  3297.45,   452.21  " /><path style="stroke-width: 1.42 ;&st7;  " d=" M  3212.46,   273.74  L  3212.46,   503.20  L  3535.41,   503.20  L  3535.41,   273.74  L  3212.46,   273.74  " /><path style="stroke-width: 1.42 ;&st7;  " d=" M  3237.96,   384.22  L  3237.96,   409.72  L  3518.41,   409.72  L  3518.41,   384.22  L  3237.96,   384.22  " /><path style="stroke-width: 1.42 ;&st7;  " d=" M  3271.95,   333.23  L  3271.95,   350.23  L  3305.95,   350.23  L  3305.95,   333.23  L  3271.95,   333.23  " /><path style="stroke-width: 0.85 ;&st7;  " d=" M  3288.95,   350.23  L  3288.95,   384.22  " /><path style="stroke-width: 0.85 ;&st7;  " d=" M  3263.45,   273.74  L  3263.45,   316.23  L  3339.94,   316.23  L  3339.94,   273.74  " /><path style="stroke-width: 0.85 ;&st7;  " d=" M  3287.76,   315.23  L  3287.48,   315.70  L  3287.39,   316.23  L  3287.48,   316.77  L  3287.76,   317.24  L  3288.17,   317.58  L  3288.68,   317.77  L  3289.22,   317.77  L  3289.73,   317.58  L  3290.14,   317.24  L  3290.41,   316.77  L  3290.51,   316.23  L  3290.41,   315.70  L  3290.14,   315.23  L  3289.73,   314.88  L  3289.22,   314.70  L  3288.68,   314.70  L  3288.17,   314.88  L  3287.76,   315.23  L  3288.15,   315.94  L  3288.15,   316.52  L  3288.52,   316.97  L  3289.10,   317.07  L  3289.60,   316.78  L  3289.80,   316.23  L  3289.60,   315.69  L  3289.10,   315.40  L  3288.52,   315.50  L  3288.95,   316.23  " /><path style="stroke-width: 0.85 ;&st7;  " d=" M  3331.44,   367.22  L  3331.44,   350.23  " /><path style="stroke-width: 0.85 ;&st7;  " d=" M  3356.94,   367.22  L  3356.94,   350.23  " /><path style="stroke-width: 0.85 ;&st7;  " d=" M  3382.43,   409.72  L  3382.43,   503.20  " /><path style="stroke-width: 1.42 ;&st7;  " d=" M  3246.46,   426.71  L  3246.46,   443.71  L  3348.44,   443.71  L  3348.44,   426.71  L  3246.46,   426.71  " /><path style="stroke-width: 0.85 ;&st7;  " d=" M  3263.45,   443.71  L  3263.45,   503.20  " /><path style="stroke-width: 0.85 ;&st7;  " d=" M  3331.44,   443.71  L  3331.44,   503.20  " /><path style="stroke-width: 0.85 ;&st7;  " d=" M  3263.45,   426.71  L  3263.45,   409.72  " /><path style="stroke-width: 0.85 ;&st7;  " d=" M  3331.44,   426.71  L  3331.44,   409.72  " /><path style="stroke-width: 0.85 ;&st7;  " d=" M  3246.46,   435.21  L  3229.46,   435.21  L  3229.46,   426.71  " /><path style="stroke-width: 0.85 ;&st7;  " d=" M  3220.96,   426.71  L  3237.96,   426.71  " /><text style="font-size:6px;font-family:'NSimSun';" transform="matrix(&st16;  3323.17  346.53 )">5V +B</text><text style="font-size:6px;font-family:'NSimSun';" transform="matrix(&st16;  3353.08  346.53 )">5V</text><text style="font-size:6px;font-family:'NSimSun';" transform="matrix(&st16; 3282.05 403.19)" ewd:textID="13" ewd:horAlign="center">CAN 控制器</text><text style="font-size:6px;font-family:'NSimSun';" transform="matrix(&st16;  3334.03  499.51 )">CANH</text><text style="font-size:6px;font-family:'NSimSun';" transform="matrix(&st16;  3266.04  499.51 )">CANL</text><text style="font-size:6px;font-family:'NSimSun';" transform="matrix(&st16;  3385.02  499.51 )">ET</text><text style="font-size:6px;font-family:'NSimSun';" transform="matrix(&st16;  3342.53  281.93 )">IG+</text><text style="font-size:6px;font-family:'NSimSun';" transform="matrix(&st16;  3266.04  281.93 )">B</text><text style="font-size:6px;font-family:'NSimSun';" transform="matrix(&st16;  3281.1  343.7 )">5V IC</text><text style="font-size:6px;font-family:'NSimSun';" transform="matrix(&st16;  3285.68  437.18 )">CAN I/F</text><text style="font-size:6px;font-family:'NSimSun';" transform="matrix(&st16;  3221.18  423.02 )">5V +B</text><text style="font-size:6px;font-family:'NSimSun';" transform="matrix(&st16;  3376.14  398.94 )">CPU</text><path style="stroke-width: 1.42 ;&st7;  " d=" M  3467.42,   426.71  L  3467.42,   443.71  L  3501.41,   443.71  L  3501.41,   426.71  L  3467.42,   426.71  " /><path style="stroke-width: 0.85 ;&st7;  " d=" M  3484.42,   409.72  L  3484.42,   426.71  " /><path style="stroke-width: 0.85 ;&st7;  " d=" M  3467.42,   435.21  L  3450.42,   435.21  L  3450.42,   426.71  " /><path style="stroke-width: 0.85 ;&st7;  " d=" M  3441.92,   426.71  L  3458.92,   426.71  " /><path style="stroke-width: 0.85 ;&st7;  " d=" M  3484.42,   443.71  L  3484.42,   503.20  " /><text style="font-size:6px;font-family:'NSimSun';" transform="matrix(&st16;  3444.51  499.51 )">TX1-</text><text style="font-size:6px;font-family:'NSimSun';" transform="matrix(&st16;  3487.0  499.51 )">TX1+</text><text style="font-size:6px;font-family:'NSimSun';" transform="matrix(&st16;  3479.86  437.18 )">I/F</text><text style="font-size:6px;font-family:'NSimSun';" transform="matrix(&st16;  3446.57  423.02 )">5V</text><path style="stroke-width: 0.85 ;&st7;  " d=" M  3382.43,   477.71  L  3441.92,   477.71  L  3441.92,   503.20  " /><path style="stroke-width: 0.85 ;&st7;  " d=" M  3381.24,   476.70  L  3380.97,   477.17  L  3380.88,   477.71  L  3380.97,   478.24  L  3381.24,   478.71  L  3381.65,   479.05  L  3382.16,   479.24  L  3382.70,   479.24  L  3383.21,   479.05  L  3383.63,   478.71  L  3383.90,   478.24  L  3383.99,   477.71  L  3383.90,   477.17  L  3383.63,   476.70  L  3383.21,   476.36  L  3382.70,   476.17  L  3382.16,   476.17  L  3381.65,   476.36  L  3381.24,   476.70  L  3381.63,   477.41  L  3381.63,   478.00  L  3382.01,   478.44  L  3382.58,   478.54  L  3383.08,   478.25  L  3383.28,   477.71  L  3383.08,   477.16  L  3382.58,   476.87  L  3382.01,   476.97  L  3382.43,   477.71  " /><text style="font-size:6px;font-family:'NSimSun';" transform="matrix(&st16;  3319.65  509.7 )">32</text><path style="stroke-width: 1.42 ;&st7;   " d=" M  3335.98,   507.73  C  3335.98    505.23   3333.95    503.20   3331.44    503.20  " /><path style="stroke-width: 1.42 ;&st7;   " d=" M  3331.44,   503.20  C  3328.94    503.20   3326.91    505.23   3326.91    507.73  " /><path style="stroke-width: 1.42 ;&st7;   " d=" M  3326.91,   507.73  C  3326.91    510.24   3328.94    512.27   3331.44    512.27  " /><path style="stroke-width: 1.42 ;&st7;   " d=" M  3331.44,   512.27  C  3333.95    512.27   3335.98    510.24   3335.98    507.73  " /><text style="font-size:6px;font-family:'NSimSun';" transform="matrix(&st16;  3329.14  509.7 )">A</text><text style="font-size:6px;font-family:'NSimSun';" transform="matrix(&st16;  3251.66  509.7 )">31</text><text style="font-size:6px;font-family:'NSimSun';" transform="matrix(&st16;  3261.15  509.7 )">A</text><path style="stroke-width: 1.42 ;&st7;   " d=" M  3267.99,   507.73  C  3267.99    505.23   3265.96    503.20   3263.45    503.20  " /><path style="stroke-width: 1.42 ;&st7;   " d=" M  3263.45,   503.20  C  3260.95    503.20   3258.92    505.23   3258.92    507.73  " /><path style="stroke-width: 1.42 ;&st7;   " d=" M  3258.92,   507.73  C  3258.92    510.24   3260.95    512.27   3263.45    512.27  " /><path style="stroke-width: 1.42 ;&st7;   " d=" M  3263.45,   512.27  C  3265.96    512.27   3267.99    510.24   3267.99    507.73  " /><text style="font-size:6px;font-family:'NSimSun';" transform="matrix(&st16;  3251.66  271.18 )">40</text><text style="font-size:6px;font-family:'NSimSun';" transform="matrix(&st16;  3261.15  271.18 )">A</text><path style="stroke-width: 1.42 ;&st7;   " d=" M  3267.99,   269.21  C  3267.99    266.70   3265.96    264.67   3263.45    264.67  " /><path style="stroke-width: 1.42 ;&st7;   " d=" M  3263.45,   264.67  C  3260.95    264.67   3258.92    266.70   3258.92    269.21  " /><path style="stroke-width: 1.42 ;&st7;   " d=" M  3258.92,   269.21  C  3258.92    271.71   3260.95    273.74   3263.45    273.74  " /><path style="stroke-width: 1.42 ;&st7;   " d=" M  3263.45,   273.74  C  3265.96    273.74   3267.99    271.71   3267.99    269.21  " /><text style="font-size:6px;font-family:'NSimSun';" transform="matrix(&st16;  3328.15  271.18 )">39</text><text style="font-size:6px;font-family:'NSimSun';" transform="matrix(&st16;  3337.64  271.18 )">A</text><path style="stroke-width: 1.42 ;&st7;   " d=" M  3344.47,   269.21  C  3344.47    266.70   3342.45    264.67   3339.94    264.67  " /><path style="stroke-width: 1.42 ;&st7;   " d=" M  3339.94,   264.67  C  3337.44    264.67   3335.41    266.70   3335.41    269.21  " /><path style="stroke-width: 1.42 ;&st7;   " d=" M  3335.41,   269.21  C  3335.41    271.71   3337.44    273.74   3339.94    273.74  " /><path style="stroke-width: 1.42 ;&st7;   " d=" M  3339.94,   273.74  C  3342.45    273.74   3344.47    271.71   3344.47    269.21  " /><text style="font-size:6px;font-family:'NSimSun';" transform="matrix(&st16;  3370.64  509.7 )">21</text><text style="font-size:6px;font-family:'NSimSun';" transform="matrix(&st16;  3380.13  509.7 )">A</text><path style="stroke-width: 1.42 ;&st7;   " d=" M  3386.97,   507.73  C  3386.97    505.23   3384.94    503.20   3382.43    503.20  " /><path style="stroke-width: 1.42 ;&st7;   " d=" M  3382.43,   503.20  C  3379.93    503.20   3377.90    505.23   3377.90    507.73  " /><path style="stroke-width: 1.42 ;&st7;   " d=" M  3377.90,   507.73  C  3377.90    510.24   3379.93    512.27   3382.43    512.27  " /><path style="stroke-width: 1.42 ;&st7;   " d=" M  3382.43,   512.27  C  3384.94    512.27   3386.97    510.24   3386.97    507.73  " /><text style="font-size:6px;font-family:'NSimSun';" transform="matrix(&st16;  3430.13  509.7 )">34</text><path style="stroke-width: 1.42 ;&st7;   " d=" M  3446.46,   507.73  C  3446.46    505.23   3444.43    503.20   3441.92    503.20  " /><path style="stroke-width: 1.42 ;&st7;   " d=" M  3441.92,   503.20  C  3439.42    503.20   3437.39    505.23   3437.39    507.73  " /><path style="stroke-width: 1.42 ;&st7;   " d=" M  3437.39,   507.73  C  3437.39    510.24   3439.42    512.27   3441.92    512.27  " /><path style="stroke-width: 1.42 ;&st7;   " d=" M  3441.92,   512.27  C  3444.43    512.27   3446.46    510.24   3446.46    507.73  " /><text style="font-size:6px;font-family:'NSimSun';" transform="matrix(&st16;  3439.62  509.7 )">A</text><text style="font-size:6px;font-family:'NSimSun';" transform="matrix(&st16;  3472.62  509.7 )">35</text><path style="stroke-width: 1.42 ;&st7;   " d=" M  3488.95,   507.73  C  3488.95    505.23   3486.92    503.20   3484.42    503.20  " /><path style="stroke-width: 1.42 ;&st7;   " d=" M  3484.42,   503.20  C  3481.91    503.20   3479.89    505.23   3479.89    507.73  " /><path style="stroke-width: 1.42 ;&st7;   " d=" M  3479.89,   507.73  C  3479.89    510.24   3481.91    512.27   3484.42    512.27  " /><path style="stroke-width: 1.42 ;&st7;   " d=" M  3484.42,   512.27  C  3486.92    512.27   3488.95    510.24   3488.95    507.73  " /><text style="font-size:6px;font-family:'NSimSun';" transform="matrix(&st16;  3482.11  509.7 )">A</text><g ewd:figtype="title"><text style="font-size:6px;font-family:'NSimSun';" transform="matrix(&st17;  3543.3  506.1 )">E55(A)</text><text style="font-size:6px;font-family:'NSimSun';" transform="matrix(&st17;  3550.13  506.11 )" ewd:textID="14">组合仪表总成</text></g></g><g ewd:figtype="conn" ewd:figID="31" ewd:code="A20"><path style="stroke-width: 0.85 ;&st7;  " d=" M  3484.42,   647.68  L  3484.42,   634.93  " /><path style="stroke-width: 0.85 ;&st7;  " d=" M  3487.25,   630.68  L  3481.58,   633.51  " /><path style="stroke-width: 0.85 ;&st7;  " d=" M  3481.58,   627.85  L  3487.25,   630.68  " /><path style="stroke-width: 0.85 ;&st7;  " d=" M  3487.25,   625.01  L  3481.58,   627.85  " /><path style="stroke-width: 0.85 ;&st7;  " d=" M  3481.58,   622.18  L  3487.25,   625.01  " /><path style="stroke-width: 0.85 ;&st7;  " d=" M  3487.25,   619.35  L  3481.58,   622.18  " /><path style="stroke-width: 0.85 ;&st7;  " d=" M  3484.42,   617.93  L  3487.25,   619.35  " /><path style="stroke-width: 0.85 ;&st7;  " d=" M  3481.58,   633.51  L  3484.42,   634.93  " /><path style="stroke-width: 0.85 ;&st7;  " d=" M  3484.42,   617.93  L  3484.42,   605.18  " /><path style="stroke-width: 0.85 ;&st7;  " d=" M  3475.92,   617.93  L  3475.92,   634.93  " /><path style="stroke-width: 0.85 ;&st7;  " d=" M  3492.92,   617.93  L  3492.92,   634.93  " /><path style="stroke-width: 0.85 ;&st7;   " d=" M  3492.92,   617.93  C  3492.92    613.24   3489.11    609.43   3484.42    609.43  " /><path style="stroke-width: 0.85 ;&st7;   " d=" M  3484.42,   609.43  C  3479.72    609.43   3475.92    613.24   3475.92    617.93  " /><path style="stroke-width: 0.85 ;&st7;   " d=" M  3475.92,   634.93  C  3475.92    639.62   3479.72    643.43   3484.42    643.43  " /><path style="stroke-width: 0.85 ;&st7;   " d=" M  3484.42,   643.43  C  3489.11    643.43   3492.92    639.62   3492.92    634.93  " /><path style="stroke-width: 1.42 ;&st7;  " d=" M  3471.67,   647.68  L  3471.67,   605.18  L  3497.16,   605.18  L  3497.16,   647.68  L  3471.67,   647.68  " /><text style="font-size:6px;font-family:'NSimSun';" transform="matrix(&st16;  3478.23  655.87 )">1</text><text style="font-size:6px;font-family:'NSimSun';" transform="matrix(&st16;  3478.23  601.49 )">2</text><g ewd:figtype="title"><text style="font-size:6px;font-family:'NSimSun';" transform="matrix(&st17;  3511.88  650.58 )" ewd:textID="31">车外温度传感器（热敏电阻总成）<tspan x="0 " dy="6.0" /></text><text style="font-size:6px;font-family:'NSimSun';" transform="matrix(&st17;  3504.78  650.58 )">A20</text></g></g><g ewd:figtype="jb" ewd:figID="51" ewd:code="3"><path style="stroke-width: 1.42 ;&st7;  " d=" M  3265.58,   197.25  L  3261.33,   197.25  " /><path style="stroke-width: 1.42 ;&st7;  " d=" M  3265.58,   188.75  L  3261.33,   188.75  " /><path style="stroke-width: 1.42 ;&st7;  " d=" M  3265.58,   163.26  L  3261.33,   163.26  " /><path style="stroke-width: 1.42 ;&st7;  " d=" M  3265.58,   154.76  L  3261.33,   154.76  " /><path style="stroke-width: 1.42 ;&st7;   " d=" M  3269.83,   193.00  C  3269.83    190.66   3267.93    188.75   3265.58    188.75  " /><path style="stroke-width: 1.42 ;&st7;   " d=" M  3265.58,   197.25  C  3267.93    197.25   3269.83    195.35   3269.83    193.00  " /><path style="stroke-width: 1.42 ;&st7;   " d=" M  3257.08,   193.00  C  3257.08    195.35   3258.98    197.25   3261.33    197.25  " /><path style="stroke-width: 1.42 ;&st7;   " d=" M  3261.33,   188.75  C  3258.98    188.75   3257.08    190.66   3257.08    193.00  " /><path style="stroke-width: 1.42 ;&st7;   " d=" M  3269.83,   159.01  C  3269.83    156.66   3267.93    154.76   3265.58    154.76  " /><path style="stroke-width: 1.42 ;&st7;   " d=" M  3265.58,   163.26  C  3267.93    163.26   3269.83    161.36   3269.83    159.01  " /><path style="stroke-width: 1.42 ;&st7;   " d=" M  3257.08,   159.01  C  3257.08    161.36   3258.98    163.26   3261.33    163.26  " /><path style="stroke-width: 1.42 ;&st7;   " d=" M  3261.33,   154.76  C  3258.98    154.76   3257.08    156.66   3257.08    159.01  " /><path style="stroke-width: 0.85 ;&st7;  " d=" M  3263.45,   188.75  L  3263.45,   163.26  " /><path style="stroke-width: 0.28 ;&st9;  " d=" M  3263.45,   183.86  L  3260.62,   181.03  L  3260.62,   185.28  L  3263.45,   188.11  L  3266.29,   185.28  L  3266.29,   181.03  L  3263.45,   183.86  " /><path style="stroke-width: 0.28 ;&st9;  " d=" M  3263.45,   168.15  L  3266.29,   170.99  L  3266.29,   166.74  L  3263.45,   163.90  L  3260.62,   166.74  L  3260.62,   170.99  L  3263.45,   168.15  " /><text style="font-size:6px;font-family:'NSimSun';" transform="matrix(&st16;  3259.6  160.98 )">3A</text><text style="font-size:6px;font-family:'NSimSun';" transform="matrix(&st16;  3249.85  194.97 )">34</text><text style="font-size:6px;font-family:'NSimSun';" transform="matrix(&st16;  3259.52  194.97 )">3D</text><text style="font-size:6px;font-family:'NSimSun';" transform="matrix(&st16;  3249.85  160.98 )">44</text></g><g ewd:figtype="jb" ewd:figID="52" ewd:code="3"><path style="stroke-width: 0.85 ;&st7;  " d=" M  3339.94,    69.77  L  3339.94,    95.27  " /><path style="stroke-width: 1.42 ;&st7;  " d=" M  3342.07,   103.77  L  3337.82,   103.77  " /><path style="stroke-width: 1.42 ;&st7;  " d=" M  3342.07,    95.27  L  3337.82,    95.27  " /><path style="stroke-width: 1.42 ;&st7;   " d=" M  3346.32,    99.52  C  3346.32     97.17   3344.41     95.27   3342.07     95.27  " /><path style="stroke-width: 1.42 ;&st7;   " d=" M  3333.57,    99.52  C  3333.57    101.87   3335.47    103.77   3337.82    103.77  " /><path style="stroke-width: 1.42 ;&st7;   " d=" M  3342.07,   103.77  C  3344.41    103.77   3346.32    101.87   3346.32     99.52  " /><path style="stroke-width: 1.42 ;&st7;   " d=" M  3337.82,    95.27  C  3335.47     95.27   3333.57     97.17   3333.57     99.52  " /><path style="stroke-width: 0.85 ;&st7;   " d=" M  3341.36,    68.36  C  3341.36     67.57   3340.72     66.94   3339.94     66.94  " /><path style="stroke-width: 0.85 ;&st7;   " d=" M  3339.94,    66.94  C  3339.16     66.94   3338.53     67.57   3338.53     68.36  " /><path style="stroke-width: 0.85 ;&st7;   " d=" M  3338.53,    68.36  C  3338.53     69.14   3339.16     69.77   3339.94     69.77  " /><path style="stroke-width: 0.85 ;&st7;   " d=" M  3339.94,    69.77  C  3340.72     69.77   3341.36     69.14   3341.36     68.36  " /><path style="stroke-width: 0.85 ;&st7;   " d=" M  3341.36,    45.69  C  3341.36     44.91   3340.72     44.28   3339.94     44.28  " /><path style="stroke-width: 0.85 ;&st7;   " d=" M  3339.94,    44.28  C  3339.16     44.28   3338.53     44.91   3338.53     45.69  " /><path style="stroke-width: 0.85 ;&st7;   " d=" M  3338.53,    45.69  C  3338.53     46.48   3339.16     47.11   3339.94     47.11  " /><path style="stroke-width: 0.85 ;&st7;   " d=" M  3339.94,    47.11  C  3340.72     47.11   3341.36     46.48   3341.36     45.69  " /><path style="stroke-width: 1.42 ;&st7;   " d=" M  3339.94,    66.94  C  3342.68     65.33   3343.59     61.80   3341.98     59.06  " /><path style="stroke-width: 1.42 ;&st7;   " d=" M  3341.98,    59.06  C  3341.46     58.18   3340.82     57.55   3339.94     57.03  " /><path style="stroke-width: 1.42 ;&st7;   " d=" M  3339.94,    47.11  C  3337.20     48.72   3336.29     52.25   3337.91     54.99  " /><path style="stroke-width: 1.42 ;&st7;   " d=" M  3337.91,    54.99  C  3338.42     55.87   3339.06     56.51   3339.94     57.03  " /><path style="stroke-width: 1.42 ;&st7;  " d=" M  3327.19,    35.78  L  3327.19,    78.27  L  3352.69,    78.27  L  3352.69,    35.78  L  3327.19,    35.78  " /><path style="stroke-width: 0.28 ;&st9;  " d=" M  3339.94,    90.37  L  3337.11,    87.54  L  3337.11,    91.79  L  3339.94,    94.62  L  3342.77,    91.79  L  3342.77,    87.54  L  3339.94,    90.37  " /><text style="font-size:6px;font-family:'NSimSun';" transform="matrix(&st16;  3356.37  56.17 )">5A <tspan x="0 " dy="6.0">MET</tspan></text><text style="font-size:6px;font-family:'NSimSun';" transform="matrix(&st16;  3334.73  32.08 )">(IG)</text><text style="font-size:6px;font-family:'NSimSun';" transform="matrix(&st16;  3326.33  101.49 )">55</text><text style="font-size:6px;font-family:'NSimSun';" transform="matrix(&st16;  3335.97  101.49 )">3C</text><text style="font-size:6px;font-family:'NSimSun';" transform="matrix(&st16;  3333.76  86.47 )">2</text></g><g ewd:figtype="w2w" ewd:figID="69" ewd:code="AE4"><path style="stroke-width: 1.42 ;&st7;  " d=" M  3446.17,   540.03  L  3441.92,   544.28  L  3437.67,   540.03  " /><path style="stroke-width: 1.42 ;&st7;  " d=" M  3437.67,   536.63  L  3441.92,   540.88  L  3446.17,   536.63  " /><text style="font-size:6px;font-family:'NSimSun';" transform="matrix(&st16;  3429.29  551.91 )">6</text></g><g ewd:figtype="w2w" ewd:figID="70" ewd:code="AE4"><path style="stroke-width: 1.42 ;&st7;  " d=" M  3480.17,   536.63  L  3484.42,   540.88  L  3488.67,   536.63  " /><path style="stroke-width: 1.42 ;&st7;  " d=" M  3488.67,   540.03  L  3484.42,   544.28  L  3480.17,   540.03  " /><text style="font-size:6px;font-family:'NSimSun';" transform="matrix(&st16;  3471.79  551.91 )">7</text></g><g ewd:figtype="gp" ewd:figID="77" ewd:code="ED"><path style="stroke-width: 0.85 ;&st7;  " d=" M  3041.07,   710.00  L  3043.91,   710.00  " /><path style="stroke-width: 0.85 ;&st7;  " d=" M  3039.66,   707.17  L  3045.32,   707.17  " /><path style="stroke-width: 0.85 ;&st7;  " d=" M  3038.24,   704.33  L  3046.74,   704.33  " /><path style="stroke-width: 0.85 ;&st7;  " d=" M  3033.99,   701.50  L  3050.99,   701.50  " /><path style="stroke-width: 0.85 ;&st7;  " d=" M  3042.49,   697.25  L  3042.49,   701.50  " /></g><g ewd:figtype="gp" ewd:figID="78" ewd:code="ED"><path style="stroke-width: 0.85 ;&st7;  " d=" M  3382.43,   697.25  L  3382.43,   701.50  " /><path style="stroke-width: 0.85 ;&st7;  " d=" M  3373.93,   701.50  L  3390.93,   701.50  " /><path style="stroke-width: 0.85 ;&st7;  " d=" M  3379.60,   707.17  L  3385.27,   707.17  " /><path style="stroke-width: 0.85 ;&st7;  " d=" M  3381.02,   710.00  L  3383.85,   710.00  " /><path style="stroke-width: 0.85 ;&st7;  " d=" M  3378.18,   704.33  L  3386.68,   704.33  " /></g><g ewd:code="3" ewd:figID="100" ewd:comment="" ewd:figtype="comment"><text style="font-size:6px;font-family:'NSimSun';" transform="matrix(&st16;  3404.53  46.25 )" ewd:textID="4">* 3 : 不带 TFT 显示屏</text></g></svg>