<?xml version="1.0" encoding="utf-8"?>
<!DOCTYPE svg PUBLIC "-//W3C//DTD SVG 1.0//EN" "http://www.w3.org/TR/2001/REC-SVG-20010904/DTD/svg10.dtd"[
	<!ENTITY ns_flows "http://ns.adobe.com/Flows/1.0/">
	<!ENTITY ns_svg "http://www.w3.org/2000/svg">
	<!ENTITY ns_xlink "http://www.w3.org/1999/xlink">
	<!ENTITY st0 "font-size:7px;font-family:'NSimSun';adobe-font-script:japanese;">
	<!ENTITY st1 "font-size:6px;font-family:'NSimSun';">
	<!-- White fill  -->
	<!ENTITY st2 "fill:#FFFFFF;stroke:#000000; stroke-width:1.41;stroke-linecap:round;stroke-linejoin:round;">
	<!-- Yellow fill  -->
	<!ENTITY st3 "fill:#FFFFCC;stroke:#FFFFCC; stroke-width:0.1;stroke-linecap:round;stroke-linejoin:round;">
	<!-- Gray fill  -->
	<!ENTITY st4 "fill:#CCCCCC;stroke:#CCCCCC; stroke-width:0.1;stroke-linecap:round;stroke-linejoin:round;">
	<!-- Light-blue fill -->
	<!ENTITY st5 "fill:#CCECF4;stroke:#000000; stroke-width:1.133;stroke-linecap:round;stroke-linejoin:round;">
	<!ENTITY st6 "fill:none;stroke-linecap:butt; stroke-linejoin:round;">
	<!ENTITY st7 "fill:none;stroke:#000000;stroke-linecap:round;stroke-linejoin:round;">
	<!ENTITY st8 "enable-background:new    ;">
	<!-- Black fill -->
	<!ENTITY st9 "fill:#000000;stroke:#000000; stroke-linecap:round;stroke-linejoin:round;">
	<!-- SRS note   -->
	<!ENTITY st10 "font-size:9px;font-family:'NSimSun';">
	<!ENTITY st11 "font-size:9px;font-family:'NSimSun';">
	<!ENTITY st12 "font-size:6px;font-family:'NSimSun';">
	<!ENTITY st13 "fill:none;stroke:#ff0000;stroke-linecap:round;stroke-linejoin:round;">
	<!-- Yellow fill  -->
	<!ENTITY st14 "fill:#FFFF00;stroke:#FFFF00; stroke-width:0.1;stroke-linecap:round;stroke-linejoin:round;">
	<!ENTITY st15 "font-size:6px;font-family:'NSimSun';adobe-font-script:japanese;">
	<!ENTITY st16 "1.00 0.00 0.00 1.00">
	<!ENTITY st17 "0.00 -1.00 1.00 0.00">
	<!ENTITY st18 "font-size:6px;font-family:'NSimSun';">
	<!ENTITY st19 "font-size:9px;font-family:'NSimSun';">
	<!ENTITY st20 "font-size:6px;font-family:'NSimSun';adobe-font-script:japanese;">
	<!ENTITY st21 "font-size:7px;font-family:'NSimSun';adobe-font-script:japanese;">
	<!ATTLIST svg
		xmlns:ewd CDATA #FIXED "http://shcl.co.jp/ewd"
		xmlns:a CDATA #FIXED "http://ns.adobe.com/AdobeSVGViewerExtensions/3.0/"
		ewd:ver CDATA #IMPLIED
	>
	<!ATTLIST a
		ewd:lineID CDATA #IMPLIED
		ewd:groupID CDATA #IMPLIED
		ewd:figtype CDATA #IMPLIED
		ewd:code CDATA #IMPLIED
		ewd:figID CDATA #IMPLIED
		ewd:pinNo CDATA #IMPLIED
		ewd:comment CDATA #IMPLIED >
	<!ATTLIST g
		ewd:lineID CDATA #IMPLIED
		ewd:groupID CDATA #IMPLIED
		ewd:figtype CDATA #IMPLIED
		ewd:code CDATA #IMPLIED
		ewd:figID CDATA #IMPLIED
		ewd:pinNo CDATA #IMPLIED
		ewd:comment CDATA #IMPLIED >
	<!ATTLIST text
		ewd:textID CDATA #IMPLIED
		ewd:horAlign CDATA #IMPLIED >
	<!ATTLIST title
		ewd:textID CDATA #IMPLIED >
]>
<!-- Generator: Shintec Hozumi YS   -->
<svg onload="call_execInitLoadProc_svg('system')" style="overflow:visible;  enable-background:new 0 0 3555.779 710.000" viewBox="0 0 3559.901 710.000" height="710.000" width="3559.901" xml:space="preserve" ewd:ver="2.1.2.6F" xmlns="&ns_svg;" xmlns:ewd="http://shcl.co.jp/ewd" xmlns:a="http://ns.adobe.com/AdobeSVGViewerExtensions/3.0/" xmlns:xlink="&ns_xlink;">
<path style="stroke-width: 1.42 ;&st7;  " d=" M  2537.55,   409.72  L  2532.58,   414.69  " /><path style="stroke-width: 1.42 ;&st7;  " d=" M  2544.60,   426.71  L  2549.57,   421.75  " /><path style="stroke-width: 1.42 ;&st7;  " d=" M  2532.58,   421.75  L  2537.55,   426.71  " /><path style="stroke-width: 1.42 ;&st7;  " d=" M  2549.57,   414.69  L  2544.60,   409.72  " /><path style="stroke-width: 1.42 ;&st7;  " d=" M  2537.55,   282.24  L  2532.58,   287.21  " /><path style="stroke-width: 1.42 ;&st7;  " d=" M  2544.60,   299.24  L  2549.57,   294.27  " /><path style="stroke-width: 1.42 ;&st7;  " d=" M  2532.58,   294.27  L  2537.55,   299.24  " /><path style="stroke-width: 1.42 ;&st7;  " d=" M  2549.57,   287.21  L  2544.60,   282.24  " /><path style="stroke-width: 1.42 ;&st7;  " d=" M  2991.50,   494.70  L  3000.00,   494.70  " /><path style="stroke-width: 1.42 ;&st7;  " d=" M  2932.01,   494.70  L  2940.51,   494.70  " /><text style="font-size:6px;font-family:'NSimSun';" transform="matrix(&st17;  2851.83  472.99 )">LG</text><text style="font-size:6px;font-family:'NSimSun';" transform="matrix(&st17;  2936.81  531.16 )">W</text><text style="font-size:6px;font-family:'NSimSun';" transform="matrix(&st17;  2996.3  471.17 )">G</text><text style="font-size:6px;font-family:'NSimSun';" transform="matrix(&st17;  2996.3  530.66 )">G</text><text style="font-size:6px;font-family:'NSimSun';" transform="matrix(&st17;  2936.81  471.67 )">W</text><text style="font-size:6px;font-family:'NSimSun';" transform="matrix(&st17;  2817.83  471.67 )">W</text><text style="font-size:6px;font-family:'NSimSun';" transform="matrix(&st17;  2775.34  131.73 )">W</text><text style="font-size:6px;font-family:'NSimSun';" transform="matrix(&st17;  2681.86  118.98 )">W</text><text style="font-size:6px;font-family:'NSimSun';" transform="matrix(&st17;  2843.33  130.76 )">P</text><text style="font-size:6px;font-family:'NSimSun';" transform="matrix(&st17;  2503.39  275.7 )">G</text><text style="font-size:6px;font-family:'NSimSun';" transform="matrix(&st17;  2537.38  472.76 )">BR</text><text style="font-size:6px;font-family:'NSimSun';" transform="matrix(&st17;  2537.38  353.78 )">BR</text><text style="font-size:6px;font-family:'NSimSun';" transform="matrix(&st16;  2608.32  550.5 )">LG(*2)</text><text style="font-size:6px;font-family:'NSimSun';" transform="matrix(&st16;  2557.33  550.5 )">LG(*2)</text><text style="font-size:6px;font-family:'NSimSun';" transform="matrix(&st16;  2609.64  525.0 )">W(*2)</text><text style="font-size:6px;font-family:'NSimSun';" transform="matrix(&st16;  2558.64  525.0 )">W(*2)</text><text style="font-size:6px;font-family:'NSimSun';" transform="matrix(&st16;  2558.64  635.48 )">W(*3)</text><text style="font-size:6px;font-family:'NSimSun';" transform="matrix(&st16;  2557.33  652.48 )">LG(*3)</text><text style="font-size:6px;font-family:'NSimSun';" transform="matrix(&st16;  2609.64  635.48 )">W(*3)</text><text style="font-size:6px;font-family:'NSimSun';" transform="matrix(&st16;  2608.32  652.48 )">LG(*3)</text><text style="font-size:6px;font-family:'NSimSun';" transform="matrix(&st17;  2829.16  473.92 )">(*2)</text><text style="font-size:6px;font-family:'NSimSun';" transform="matrix(&st17;  2863.16  473.92 )">(*2)</text><text style="font-size:6px;font-family:'NSimSun';" transform="matrix(&st17;  2948.14  473.92 )">(*2)</text><text style="font-size:6px;font-family:'NSimSun';" transform="matrix(&st17;  2948.14  533.41 )">(*2)</text><text style="font-size:6px;font-family:'NSimSun';" transform="matrix(&st17;  2693.19  121.23 )">(*2)</text><text style="font-size:6px;font-family:'NSimSun';" transform="matrix(&st17;  2786.67  133.98 )">(*2)</text><text style="font-size:6px;font-family:'NSimSun';" transform="matrix(&st17;  2854.66  133.98 )">(*2)</text><g ewd:figtype="conn" ewd:figID="23" ewd:code="A40,B39"><g ewd:lineID="66"><text style="font-size:6px;font-family:'NSimSun';" transform="matrix(&st16;  2504.89  144.26 )">B</text><path style="stroke-width: 1.42 ;&st7;   " d=" M  2511.61,   142.29  C  2511.61    139.79   2509.58    137.76   2507.08    137.76  " /><path style="stroke-width: 1.42 ;&st7;   " d=" M  2507.08,   137.76  C  2504.58    137.76   2502.55    139.79   2502.55    142.29  " /><path style="stroke-width: 1.42 ;&st7;   " d=" M  2502.55,   142.29  C  2502.55    144.80   2504.58    146.83   2507.08    146.83  " /><path style="stroke-width: 1.42 ;&st7;   " d=" M  2507.08,   146.83  C  2509.58    146.83   2511.61    144.80   2511.61    142.29  " /><text style="font-size:6px;font-family:'NSimSun';" transform="matrix(&st16;  2501.36  134.07 )">NE-</text></g></g><g ewd:figtype="rb" ewd:figID="26" ewd:code="FUSE6"><path style="stroke-width: 1.42 ;&st7;  " d=" M  2687.68,   103.77  L  2683.43,   103.77  " /><path style="stroke-width: 0.85 ;&st7;  " d=" M  2685.55,    69.77  L  2685.55,    95.27  " /><path style="stroke-width: 1.42 ;&st7;  " d=" M  2687.68,    95.27  L  2683.43,    95.27  " /><path style="stroke-width: 1.42 ;&st7;   " d=" M  2683.43,    95.27  C  2681.08     95.27   2679.18     97.17   2679.18     99.52  " /><path style="stroke-width: 1.42 ;&st7;   " d=" M  2679.18,    99.52  C  2679.18    101.87   2681.08    103.77   2683.43    103.77  " /><path style="stroke-width: 1.42 ;&st7;   " d=" M  2687.68,   103.77  C  2690.02    103.77   2691.93    101.87   2691.93     99.52  " /><path style="stroke-width: 1.42 ;&st7;   " d=" M  2691.93,    99.52  C  2691.93     97.17   2690.02     95.27   2687.68     95.27  " /><path style="stroke-width: 0.28 ;&st9;  " d=" M  2685.55,    90.37  L  2682.72,    87.54  L  2682.72,    91.79  L  2685.55,    94.62  L  2688.38,    91.79  L  2688.38,    87.54  L  2685.55,    90.37  " /><text style="font-size:6px;font-family:'NSimSun';" transform="matrix(&st16;  2683.75  101.49 )">1</text><text style="font-size:6px;font-family:'NSimSun';" transform="matrix(&st16;  2701.98  53.34 )">10A <tspan x="0 " dy="6.0">ECU-B </tspan><tspan x="0 " dy="6.0">NO.2</tspan></text><text style="font-size:6px;font-family:'NSimSun';" transform="matrix(&st16;  2679.37  86.47 )">2</text><text style="font-size:6px;font-family:'NSimSun';" transform="matrix(&st16;  2677.51  32.08 )">(BAT)</text><path style="stroke-width: 1.42 ;&st7;   " d=" M  2685.55,    66.94  C  2688.29     65.33   2689.20     61.80   2687.59     59.06  " /><path style="stroke-width: 1.42 ;&st7;   " d=" M  2687.59,    59.06  C  2687.07     58.18   2686.43     57.55   2685.55     57.03  " /><path style="stroke-width: 0.85 ;&st7;   " d=" M  2686.97,    45.69  C  2686.97     44.91   2686.33     44.28   2685.55     44.28  " /><path style="stroke-width: 0.85 ;&st7;   " d=" M  2685.55,    44.28  C  2684.77     44.28   2684.13     44.91   2684.13     45.69  " /><path style="stroke-width: 0.85 ;&st7;   " d=" M  2684.13,    45.69  C  2684.13     46.48   2684.77     47.11   2685.55     47.11  " /><path style="stroke-width: 0.85 ;&st7;   " d=" M  2685.55,    47.11  C  2686.33     47.11   2686.97     46.48   2686.97     45.69  " /><path style="stroke-width: 0.85 ;&st7;   " d=" M  2686.97,    68.36  C  2686.97     67.57   2686.33     66.94   2685.55     66.94  " /><path style="stroke-width: 0.85 ;&st7;   " d=" M  2685.55,    66.94  C  2684.77     66.94   2684.13     67.57   2684.13     68.36  " /><path style="stroke-width: 0.85 ;&st7;   " d=" M  2684.13,    68.36  C  2684.13     69.14   2684.77     69.77   2685.55     69.77  " /><path style="stroke-width: 0.85 ;&st7;   " d=" M  2685.55,    69.77  C  2686.33     69.77   2686.97     69.14   2686.97     68.36  " /><path style="stroke-width: 1.42 ;&st7;   " d=" M  2685.55,    47.11  C  2682.81     48.72   2681.90     52.25   2683.51     54.99  " /><path style="stroke-width: 1.42 ;&st7;   " d=" M  2683.51,    54.99  C  2684.03     55.87   2684.67     56.51   2685.55     57.03  " /><path style="stroke-width: 1.42 ;&st7;  " d=" M  2672.80,    35.78  L  2672.80,    78.27  L  2698.30,    78.27  L  2698.30,    35.78  L  2672.80,    35.78  " /></g><g ewd:figtype="conn" ewd:figID="27" ewd:code="A20"><path style="stroke-width: 0.85 ;&st7;  " d=" M  2940.51,   596.69  L  2940.51,   583.94  " /><path style="stroke-width: 0.85 ;&st7;  " d=" M  2943.34,   579.69  L  2937.68,   582.52  " /><path style="stroke-width: 0.85 ;&st7;  " d=" M  2937.68,   576.86  L  2943.34,   579.69  " /><path style="stroke-width: 0.85 ;&st7;  " d=" M  2943.34,   574.02  L  2937.68,   576.86  " /><path style="stroke-width: 0.85 ;&st7;  " d=" M  2937.68,   571.19  L  2943.34,   574.02  " /><path style="stroke-width: 0.85 ;&st7;  " d=" M  2943.34,   568.36  L  2937.68,   571.19  " /><path style="stroke-width: 0.85 ;&st7;  " d=" M  2940.51,   566.94  L  2943.34,   568.36  " /><path style="stroke-width: 0.85 ;&st7;  " d=" M  2937.68,   582.52  L  2940.51,   583.94  " /><path style="stroke-width: 0.85 ;&st7;  " d=" M  2940.51,   566.94  L  2940.51,   554.19  " /><path style="stroke-width: 0.85 ;&st7;  " d=" M  2932.01,   566.94  L  2932.01,   583.94  " /><path style="stroke-width: 0.85 ;&st7;  " d=" M  2949.01,   566.94  L  2949.01,   583.94  " /><path style="stroke-width: 0.85 ;&st7;   " d=" M  2949.01,   566.94  C  2949.01    562.25   2945.20    558.44   2940.51    558.44  " /><path style="stroke-width: 0.85 ;&st7;   " d=" M  2940.51,   558.44  C  2935.82    558.44   2932.01    562.25   2932.01    566.94  " /><path style="stroke-width: 0.85 ;&st7;   " d=" M  2932.01,   583.94  C  2932.01    588.63   2935.82    592.44   2940.51    592.44  " /><path style="stroke-width: 0.85 ;&st7;   " d=" M  2940.51,   592.44  C  2945.20    592.44   2949.01    588.63   2949.01    583.94  " /><path style="stroke-width: 1.42 ;&st7;  " d=" M  2927.76,   596.69  L  2927.76,   554.19  L  2953.26,   554.19  L  2953.26,   596.69  L  2927.76,   596.69  " /><text style="font-size:6px;font-family:'NSimSun';" transform="matrix(&st16;  2934.32  604.88 )">2</text><text style="font-size:6px;font-family:'NSimSun';" transform="matrix(&st16;  2934.32  550.5 )">1</text><g ewd:figtype="title"><text style="font-size:6px;font-family:'NSimSun';" transform="matrix(&st17; 2917.01 599.58)">A20</text><text style="font-size:6px;font-family:'NSimSun';" transform="matrix(&st17; 2924.12 599.59)" ewd:textID="31">车外温度传感器（热敏电阻总成）<tspan x="0 " dy="6.0" /></text></g></g><g ewd:figtype="conn" ewd:figID="32" ewd:code="E55"><path style="stroke-width: 0.85 ;&st7;  " d=" M  2783.28,   214.25  L  2774.79,   214.25  " /><path style="stroke-width: 0.85 ;&st7;  " d=" M  2851.27,   214.25  L  2842.78,   214.25  " /><path style="stroke-width: 0.85 ;&st7;  " d=" M  2784.13,   350.23  L  2790.93,   350.23  " /><path style="stroke-width: 1.42 ;&st7;  " d=" M  2694.05,   350.23  L  2711.05,   350.23  " /><path style="stroke-width: 0.85 ;&st7;  " d=" M  2702.55,   350.23  L  2702.55,   358.73  " /><path style="stroke-width: 0.85 ;&st7;  " d=" M  2711.05,   341.73  L  2705.38,   350.23  " /><path style="stroke-width: 0.85 ;&st7;  " d=" M  2694.05,   184.50  L  2694.05,   176.01  " /><path style="stroke-width: 0.85 ;&st7;  " d=" M  2694.05,   201.50  L  2694.05,   193.00  " /><path style="stroke-width: 0.85 ;&st7;  " d=" M  3000.00,   324.73  L  3000.00,   358.73  " /><path style="stroke-width: 0.85 ;&st7;  " d=" M  3000.00,   375.72  L  3000.00,   426.71  " /><path style="stroke-width: 1.42 ;&st7;  " d=" M  2983.00,   358.73  L  2983.00,   375.72  L  3016.99,   375.72  L  3016.99,   358.73  L  2983.00,   358.73  " /><path style="stroke-width: 0.85 ;&st7;  " d=" M  2821.53,   375.72  L  2821.53,   426.71  " /><path style="stroke-width: 0.85 ;&st7;  " d=" M  2855.52,   375.72  L  2855.52,   426.71  " /><path style="stroke-width: 0.85 ;&st7;  " d=" M  2779.03,   163.26  L  2779.03,   231.25  L  2847.02,   231.25  L  2847.02,   163.26  " /><path style="stroke-width: 0.85 ;&st7;  " d=" M  2811.84,   230.24  L  2811.56,   230.71  L  2811.47,   231.25  L  2811.56,   231.78  L  2811.84,   232.25  L  2812.25,   232.60  L  2812.76,   232.78  L  2813.30,   232.78  L  2813.81,   232.60  L  2814.22,   232.25  L  2814.49,   231.78  L  2814.59,   231.25  L  2814.49,   230.71  L  2814.22,   230.24  L  2813.81,   229.90  L  2813.30,   229.71  L  2812.76,   229.71  L  2812.25,   229.90  L  2811.84,   230.24  L  2812.23,   230.96  L  2812.23,   231.54  L  2812.60,   231.98  L  2813.18,   232.08  L  2813.68,   231.79  L  2813.88,   231.25  L  2813.68,   230.70  L  2813.18,   230.41  L  2812.60,   230.51  L  2813.03,   231.25  " /><path style="stroke-width: 1.42 ;&st7;  " d=" M  2804.53,   358.73  L  2872.52,   358.73  L  2872.52,   375.72  L  2804.53,   375.72  L  2804.53,   358.73  " /><path style="stroke-width: 0.85 ;&st7;  " d=" M  2779.03,   273.74  L  2779.03,   299.24  " /><path style="stroke-width: 0.85 ;&st7;  " d=" M  2813.03,   231.25  L  2813.03,   248.24  " /><path style="stroke-width: 1.42 ;&st7;  " d=" M  2770.54,   248.24  L  2770.54,   273.74  L  2855.52,   273.74  L  2855.52,   248.24  L  2770.54,   248.24  " /><path style="stroke-width: 1.42 ;&st7;  " d=" M  2872.52,   324.73  L  2872.52,   307.73  L  2804.53,   307.73  L  2804.53,   324.73  " /><path style="stroke-width: 0.85 ;&st7;  " d=" M  2864.02,   324.73  L  2864.02,   358.73  " /><path style="stroke-width: 0.85 ;&st7;  " d=" M  2813.03,   324.73  L  2813.03,   358.73  " /><path style="stroke-width: 1.42 ;&st7;  " d=" M  2668.55,   299.24  L  3059.49,   299.24  L  3059.49,   324.73  L  2668.55,   324.73  L  2668.55,   299.24  " /><path style="stroke-width: 0.85 ;&st7;  " d=" M  2847.02,   273.74  L  2847.02,   282.24  " /><path style="stroke-width: 0.85 ;&st7;  " d=" M  2838.52,   282.24  L  2855.52,   282.24  " /><path style="stroke-width: 0.85 ;&st7;  " d=" M  2842.77,   285.07  L  2851.27,   285.07  " /><path style="stroke-width: 0.85 ;&st7;  " d=" M  2844.19,   287.90  L  2849.86,   287.90  " /><path style="stroke-width: 0.85 ;&st7;  " d=" M  2845.61,   290.74  L  2848.44,   290.74  " /><path style="stroke-width: 0.28 ;&st9;  " d=" M  2779.03,   214.25  L  2773.37,   205.75  L  2784.70,   205.75  L  2779.03,   214.25  " /><path style="stroke-width: 0.28 ;&st9;  " d=" M  2847.02,   214.25  L  2841.36,   205.75  L  2852.69,   205.75  L  2847.02,   214.25  " /><path style="stroke-width: 0.85 ;&st7;  " d=" M  2787.53,   350.23  L  2787.53,   367.22  L  2804.53,   367.22  " /><path style="stroke-width: 0.85 ;&st7;  " d=" M  3042.49,   324.73  L  3042.49,   426.71  " /><path style="stroke-width: 1.42 ;&st7;  " d=" M  2634.56,   426.71  L  3067.99,   426.71  L  3067.99,   163.26  L  2634.56,   163.26  L  2634.56,   426.71  " /><path style="stroke-width: 0.85 ;&st7;  " d=" M  2872.52,   367.22  L  2940.51,   367.22  L  2940.51,   426.71  " /><path style="stroke-width: 1.42 ;&st7;  " d=" M  2685.55,   358.73  L  2685.55,   375.72  L  2719.54,   375.72  L  2719.54,   358.73  L  2685.55,   358.73  " /><path style="stroke-width: 1.42 ;&st7;  " d=" M  2728.04,   358.73  L  2728.04,   375.72  L  2762.04,   375.72  L  2762.04,   358.73  L  2728.04,   358.73  " /><path style="stroke-width: 0.85 ;&st7;  " d=" M  2762.04,   367.22  L  2770.54,   367.22  L  2770.54,   324.73  " /><path style="stroke-width: 0.85 ;&st7;  " d=" M  2694.05,   341.73  L  2699.71,   350.23  " /><path style="stroke-width: 0.85 ;&st7;  " d=" M  2711.05,   341.73  L  2707.86,   343.86  L  2710.30,   345.49  L  2711.05,   341.73  L  2710.22,   342.96  L  2708.88,   343.86  L  2709.91,   344.55  L  2710.22,   342.96  L  2709.81,   343.58  L  2709.39,   343.86  L  2709.71,   344.08  L  2709.81,   343.58  " /><path style="stroke-width: 0.85 ;&st7;  " d=" M  2745.04,   358.73  L  2745.04,   341.73  L  2711.05,   341.73  " /><path style="stroke-width: 0.85 ;&st7;  " d=" M  2685.55,   367.22  L  2677.05,   367.22  L  2677.05,   324.73  " /><path style="stroke-width: 0.85 ;&st7;  " d=" M  2702.55,   375.72  L  2702.55,   409.72  L  2940.51,   409.72  " /><path style="stroke-width: 0.85 ;&st7;  " d=" M  2939.31,   408.71  L  2939.04,   409.18  L  2938.95,   409.72  L  2939.04,   410.25  L  2939.31,   410.72  L  2939.73,   411.07  L  2940.24,   411.25  L  2940.78,   411.25  L  2941.29,   411.07  L  2941.70,   410.72  L  2941.97,   410.25  L  2942.07,   409.72  L  2941.97,   409.18  L  2941.70,   408.71  L  2941.29,   408.37  L  2940.78,   408.18  L  2940.24,   408.18  L  2939.73,   408.37  L  2939.31,   408.71  L  2939.71,   409.43  L  2939.71,   410.01  L  2940.08,   410.45  L  2940.65,   410.55  L  2941.16,   410.26  L  2941.36,   409.72  L  2941.16,   409.17  L  2940.65,   408.88  L  2940.08,   408.98  L  2940.51,   409.72  " /><path style="stroke-width: 0.28 ;&st9;  " d=" M  2694.05,   180.26  L  2702.55,   174.59  L  2702.55,   185.92  L  2694.05,   180.26  " /><path style="stroke-width: 0.28 ;&st9;  " d=" M  2694.05,   197.25  L  2702.55,   191.59  L  2702.55,   202.92  L  2694.05,   197.25  " /><path style="stroke-width: 0.85 ;&st7;  " d=" M  2779.03,   180.26  L  2651.56,   180.26  L  2651.56,   341.73  L  2694.05,   341.73  " /><path style="stroke-width: 0.85 ;&st7;  " d=" M  2847.02,   197.25  L  2651.56,   197.25  " /><path style="stroke-width: 0.85 ;&st7;  " d=" M  2845.83,   196.25  L  2845.56,   196.72  L  2845.47,   197.25  L  2845.56,   197.79  L  2845.83,   198.26  L  2846.24,   198.60  L  2846.75,   198.79  L  2847.30,   198.79  L  2847.80,   198.60  L  2848.22,   198.26  L  2848.49,   197.79  L  2848.58,   197.25  L  2848.49,   196.72  L  2848.22,   196.25  L  2847.80,   195.90  L  2847.30,   195.72  L  2846.75,   195.72  L  2846.24,   195.90  L  2845.83,   196.25  L  2846.22,   196.96  L  2846.22,   197.54  L  2846.60,   197.99  L  2847.17,   198.09  L  2847.67,   197.80  L  2847.87,   197.25  L  2847.67,   196.71  L  2847.17,   196.42  L  2846.60,   196.52  L  2847.02,   197.25  " /><path style="stroke-width: 0.85 ;&st7;  " d=" M  2777.84,   179.25  L  2777.57,   179.72  L  2777.48,   180.26  L  2777.57,   180.79  L  2777.84,   181.26  L  2778.26,   181.60  L  2778.76,   181.79  L  2779.31,   181.79  L  2779.81,   181.60  L  2780.23,   181.26  L  2780.50,   180.79  L  2780.59,   180.26  L  2780.50,   179.72  L  2780.23,   179.25  L  2779.81,   178.91  L  2779.31,   178.72  L  2778.76,   178.72  L  2778.26,   178.91  L  2777.84,   179.25  L  2778.24,   179.96  L  2778.24,   180.55  L  2778.61,   180.99  L  2779.18,   181.09  L  2779.69,   180.80  L  2779.88,   180.26  L  2779.69,   179.71  L  2779.18,   179.42  L  2778.61,   179.52  L  2779.03,   180.26  " /><path style="stroke-width: 0.85 ;&st7;  " d=" M  2650.36,   196.25  L  2650.09,   196.72  L  2650.00,   197.25  L  2650.09,   197.79  L  2650.36,   198.26  L  2650.78,   198.60  L  2651.28,   198.79  L  2651.83,   198.79  L  2652.33,   198.60  L  2652.75,   198.26  L  2653.02,   197.79  L  2653.11,   197.25  L  2653.02,   196.72  L  2652.75,   196.25  L  2652.33,   195.90  L  2651.83,   195.72  L  2651.28,   195.72  L  2650.78,   195.90  L  2650.36,   196.25  L  2650.76,   196.96  L  2650.76,   197.54  L  2651.13,   197.99  L  2651.70,   198.09  L  2652.21,   197.80  L  2652.41,   197.25  L  2652.21,   196.71  L  2651.70,   196.42  L  2651.13,   196.52  L  2651.56,   197.25  " /><text style="font-size:6px;font-family:'NSimSun';" transform="matrix(&st16;  2805.18  262.96 )">5V IC</text><text style="font-size:6px;font-family:'NSimSun';" transform="matrix(&st16;  2824.11  423.02 )">CANL</text><text style="font-size:6px;font-family:'NSimSun';" transform="matrix(&st16;  2858.11  423.02 )">CANH</text><text style="font-size:6px;font-family:'NSimSun';" transform="matrix(&st16;  2849.61  171.45 )">IG+</text><text style="font-size:6px;font-family:'NSimSun';" transform="matrix(&st16;  2781.62  171.45 )">B</text><text style="font-size:6px;font-family:'NSimSun';" transform="matrix(&st16;  2780.19  346.53 )">5V+B</text><text style="font-size:6px;font-family:'NSimSun';" transform="matrix(&st16;  2972.45  313.95 )">CPU</text><text style="font-size:6px;font-family:'NSimSun';" transform="matrix(&st16; 2823.13 318.20)" ewd:textID="13" ewd:horAlign="center">CAN 控制器</text><text style="font-size:6px;font-family:'NSimSun';" transform="matrix(&st16;  2826.76  369.19 )">CAN I/F</text><text style="font-size:6px;font-family:'NSimSun';" transform="matrix(&st16;  2943.09  423.02 )">TX1-</text><text style="font-size:6px;font-family:'NSimSun';" transform="matrix(&st16;  3002.58  423.02 )">TX1+</text><text style="font-size:6px;font-family:'NSimSun';" transform="matrix(&st16;  3045.07  423.02 )">ET</text><text style="font-size:6px;font-family:'NSimSun';" transform="matrix(&st16;  2995.45  369.19 )">I/F</text><text style="font-size:6px;font-family:'NSimSun';" transform="matrix(&st16;  2761.76  281.93 )">5V+B</text><text style="font-size:6px;font-family:'NSimSun';" transform="matrix(&st16;  2740.49  369.19 )">I/F</text><text style="font-size:6px;font-family:'NSimSun';" transform="matrix(&st16;  2698.0  369.19 )">I/F</text><text style="font-size:6px;font-family:'NSimSun';" transform="matrix(&st16;  2767.24  160.69 )">40</text><text style="font-size:6px;font-family:'NSimSun';" transform="matrix(&st16;  2776.73  160.69 )">A</text><path style="stroke-width: 1.42 ;&st7;   " d=" M  2783.57,   158.73  C  2783.57    156.22   2781.54    154.19   2779.04    154.19  " /><path style="stroke-width: 1.42 ;&st7;   " d=" M  2779.04,   154.19  C  2776.53    154.19   2774.50    156.22   2774.50    158.73  " /><path style="stroke-width: 1.42 ;&st7;   " d=" M  2774.50,   158.73  C  2774.50    161.23   2776.53    163.26   2779.04    163.26  " /><path style="stroke-width: 1.42 ;&st7;   " d=" M  2779.04,   163.26  C  2781.54    163.26   2783.57    161.23   2783.57    158.73  " /><text style="font-size:6px;font-family:'NSimSun';" transform="matrix(&st16;  2809.73  433.22 )">31</text><path style="stroke-width: 1.42 ;&st7;   " d=" M  2826.06,   431.25  C  2826.06    428.74   2824.03    426.71   2821.53    426.71  " /><path style="stroke-width: 1.42 ;&st7;   " d=" M  2821.53,   426.71  C  2819.03    426.71   2817.00    428.74   2817.00    431.25  " /><path style="stroke-width: 1.42 ;&st7;   " d=" M  2817.00,   431.25  C  2817.00    433.75   2819.03    435.78   2821.53    435.78  " /><path style="stroke-width: 1.42 ;&st7;   " d=" M  2821.53,   435.78  C  2824.03    435.78   2826.06    433.75   2826.06    431.25  " /><text style="font-size:6px;font-family:'NSimSun';" transform="matrix(&st16;  2819.22  433.22 )">A</text><text style="font-size:6px;font-family:'NSimSun';" transform="matrix(&st16;  2835.23  160.69 )">39</text><path style="stroke-width: 1.42 ;&st7;   " d=" M  2851.56,   158.73  C  2851.56    156.22   2849.53    154.19   2847.02    154.19  " /><path style="stroke-width: 1.42 ;&st7;   " d=" M  2847.02,   154.19  C  2844.52    154.19   2842.49    156.22   2842.49    158.73  " /><path style="stroke-width: 1.42 ;&st7;   " d=" M  2842.49,   158.73  C  2842.49    161.23   2844.52    163.26   2847.02    163.26  " /><path style="stroke-width: 1.42 ;&st7;   " d=" M  2847.02,   163.26  C  2849.53    163.26   2851.56    161.23   2851.56    158.73  " /><text style="font-size:6px;font-family:'NSimSun';" transform="matrix(&st16;  2844.72  160.69 )">A</text><text style="font-size:6px;font-family:'NSimSun';" transform="matrix(&st16;  2843.73  433.22 )">32</text><text style="font-size:6px;font-family:'NSimSun';" transform="matrix(&st16;  2853.22  433.22 )">A</text><path style="stroke-width: 1.42 ;&st7;   " d=" M  2860.06,   431.25  C  2860.06    428.74   2858.03    426.71   2855.52    426.71  " /><path style="stroke-width: 1.42 ;&st7;   " d=" M  2855.52,   426.71  C  2853.02    426.71   2850.99    428.74   2850.99    431.25  " /><path style="stroke-width: 1.42 ;&st7;   " d=" M  2850.99,   431.25  C  2850.99    433.75   2853.02    435.78   2855.52    435.78  " /><path style="stroke-width: 1.42 ;&st7;   " d=" M  2855.52,   435.78  C  2858.03    435.78   2860.06    433.75   2860.06    431.25  " /><text style="font-size:6px;font-family:'NSimSun';" transform="matrix(&st16;  2928.71  433.22 )">34</text><path style="stroke-width: 1.42 ;&st7;   " d=" M  2945.04,   431.25  C  2945.04    428.74   2943.01    426.71   2940.51    426.71  " /><path style="stroke-width: 1.42 ;&st7;   " d=" M  2940.51,   426.71  C  2938.01    426.71   2935.98    428.74   2935.98    431.25  " /><path style="stroke-width: 1.42 ;&st7;   " d=" M  2935.98,   431.25  C  2935.98    433.75   2938.01    435.78   2940.51    435.78  " /><path style="stroke-width: 1.42 ;&st7;   " d=" M  2940.51,   435.78  C  2943.01    435.78   2945.04    433.75   2945.04    431.25  " /><text style="font-size:6px;font-family:'NSimSun';" transform="matrix(&st16;  2938.2  433.22 )">A</text><text style="font-size:6px;font-family:'NSimSun';" transform="matrix(&st16;  2988.2  433.22 )">35</text><text style="font-size:6px;font-family:'NSimSun';" transform="matrix(&st16;  2997.69  433.22 )">A</text><path style="stroke-width: 1.42 ;&st7;   " d=" M  3004.53,   431.25  C  3004.53    428.74   3002.50    426.71   3000.00    426.71  " /><path style="stroke-width: 1.42 ;&st7;   " d=" M  3000.00,   426.71  C  2997.50    426.71   2995.47    428.74   2995.47    431.25  " /><path style="stroke-width: 1.42 ;&st7;   " d=" M  2995.47,   431.25  C  2995.47    433.75   2997.50    435.78   3000.00    435.78  " /><path style="stroke-width: 1.42 ;&st7;   " d=" M  3000.00,   435.78  C  3002.50    435.78   3004.53    433.75   3004.53    431.25  " /><text style="font-size:6px;font-family:'NSimSun';" transform="matrix(&st16;  3030.7  433.22 )">21</text><text style="font-size:6px;font-family:'NSimSun';" transform="matrix(&st16;  3040.19  433.22 )">A</text><path style="stroke-width: 1.42 ;&st7;   " d=" M  3047.02,   431.25  C  3047.02    428.74   3044.99    426.71   3042.49    426.71  " /><path style="stroke-width: 1.42 ;&st7;   " d=" M  3042.49,   426.71  C  3039.99    426.71   3037.96    428.74   3037.96    431.25  " /><path style="stroke-width: 1.42 ;&st7;   " d=" M  3037.96,   431.25  C  3037.96    433.75   3039.99    435.78   3042.49    435.78  " /><path style="stroke-width: 1.42 ;&st7;   " d=" M  3042.49,   435.78  C  3044.99    435.78   3047.02    433.75   3047.02    431.25  " /><g ewd:figtype="title"><text style="font-size:6px;font-family:'NSimSun';" transform="matrix(&st16;  2937.1  159.56 )" ewd:textID="14">组合仪表总成</text><text style="font-size:6px;font-family:'NSimSun';" transform="matrix(&st16;  2937.1  152.46 )">E55(A)</text></g></g><g ewd:figtype="jb" ewd:figID="49" ewd:code="3"><path style="stroke-width: 1.42 ;&st7;  " d=" M  2781.16,    61.28  L  2776.91,    61.28  " /><path style="stroke-width: 1.42 ;&st7;  " d=" M  2781.16,    69.77  L  2776.91,    69.77  " /><path style="stroke-width: 1.42 ;&st7;  " d=" M  2781.16,   103.77  L  2776.91,   103.77  " /><path style="stroke-width: 1.42 ;&st7;  " d=" M  2781.16,   112.27  L  2776.91,   112.27  " /><path style="stroke-width: 1.42 ;&st7;   " d=" M  2776.91,    61.28  C  2774.56     61.28   2772.66     63.18   2772.66     65.52  " /><path style="stroke-width: 1.42 ;&st7;   " d=" M  2772.66,    65.52  C  2772.66     67.87   2774.56     69.77   2776.91     69.77  " /><path style="stroke-width: 1.42 ;&st7;   " d=" M  2781.16,    69.77  C  2783.51     69.77   2785.41     67.87   2785.41     65.52  " /><path style="stroke-width: 1.42 ;&st7;   " d=" M  2785.41,    65.52  C  2785.41     63.18   2783.51     61.28   2781.16     61.28  " /><path style="stroke-width: 1.42 ;&st7;   " d=" M  2776.91,   103.77  C  2774.56    103.77   2772.66    105.67   2772.66    108.02  " /><path style="stroke-width: 1.42 ;&st7;   " d=" M  2772.66,   108.02  C  2772.66    110.36   2774.56    112.27   2776.91    112.27  " /><path style="stroke-width: 1.42 ;&st7;   " d=" M  2781.16,   112.27  C  2783.51    112.27   2785.41    110.36   2785.41    108.02  " /><path style="stroke-width: 1.42 ;&st7;   " d=" M  2785.41,   108.02  C  2785.41    105.67   2783.51    103.77   2781.16    103.77  " /><path style="stroke-width: 0.85 ;&st7;  " d=" M  2779.03,   103.77  L  2779.03,    69.77  " /><path style="stroke-width: 0.28 ;&st9;  " d=" M  2779.03,    98.87  L  2776.20,    96.04  L  2776.20,   100.29  L  2779.03,   103.12  L  2781.87,   100.29  L  2781.87,    96.04  L  2779.03,    98.87  " /><path style="stroke-width: 0.28 ;&st9;  " d=" M  2779.03,    74.67  L  2781.87,    77.50  L  2781.87,    73.25  L  2779.03,    70.42  L  2776.20,    73.25  L  2776.20,    77.50  L  2779.03,    74.67  " /><text style="font-size:6px;font-family:'NSimSun';" transform="matrix(&st16;  2765.43  109.99 )">34</text><text style="font-size:6px;font-family:'NSimSun';" transform="matrix(&st16;  2775.1  109.99 )">3D</text><text style="font-size:6px;font-family:'NSimSun';" transform="matrix(&st16;  2765.43  67.49 )">44</text><text style="font-size:6px;font-family:'NSimSun';" transform="matrix(&st16;  2775.18  67.49 )">3A</text></g><g ewd:figtype="jb" ewd:figID="50" ewd:code="3"><path style="stroke-width: 0.85 ;&st7;  " d=" M  2847.02,    69.77  L  2847.02,    95.27  " /><path style="stroke-width: 1.42 ;&st7;  " d=" M  2849.15,    95.27  L  2844.90,    95.27  " /><path style="stroke-width: 1.42 ;&st7;  " d=" M  2849.15,   103.77  L  2844.90,   103.77  " /><path style="stroke-width: 1.42 ;&st7;   " d=" M  2847.02,    47.11  C  2844.29     48.72   2843.37     52.25   2844.99     54.99  " /><path style="stroke-width: 1.42 ;&st7;   " d=" M  2844.99,    54.99  C  2845.51     55.87   2846.14     56.51   2847.02     57.03  " /><path style="stroke-width: 1.42 ;&st7;   " d=" M  2847.02,    66.94  C  2849.76     65.33   2850.67     61.80   2849.06     59.06  " /><path style="stroke-width: 1.42 ;&st7;   " d=" M  2849.06,    59.06  C  2848.54     58.18   2847.91     57.55   2847.02     57.03  " /><path style="stroke-width: 0.85 ;&st7;   " d=" M  2848.44,    45.69  C  2848.44     44.91   2847.81     44.28   2847.02     44.28  " /><path style="stroke-width: 0.85 ;&st7;   " d=" M  2847.02,    44.28  C  2846.24     44.28   2845.61     44.91   2845.61     45.69  " /><path style="stroke-width: 0.85 ;&st7;   " d=" M  2845.61,    45.69  C  2845.61     46.48   2846.24     47.11   2847.02     47.11  " /><path style="stroke-width: 0.85 ;&st7;   " d=" M  2847.02,    47.11  C  2847.81     47.11   2848.44     46.48   2848.44     45.69  " /><path style="stroke-width: 0.85 ;&st7;   " d=" M  2848.44,    68.36  C  2848.44     67.57   2847.81     66.94   2847.02     66.94  " /><path style="stroke-width: 0.85 ;&st7;   " d=" M  2847.02,    66.94  C  2846.24     66.94   2845.61     67.57   2845.61     68.36  " /><path style="stroke-width: 0.85 ;&st7;   " d=" M  2845.61,    68.36  C  2845.61     69.14   2846.24     69.77   2847.02     69.77  " /><path style="stroke-width: 0.85 ;&st7;   " d=" M  2847.02,    69.77  C  2847.81     69.77   2848.44     69.14   2848.44     68.36  " /><path style="stroke-width: 1.42 ;&st7;   " d=" M  2844.90,    95.27  C  2842.55     95.27   2840.65     97.17   2840.65     99.52  " /><path style="stroke-width: 1.42 ;&st7;   " d=" M  2840.65,    99.52  C  2840.65    101.87   2842.55    103.77   2844.90    103.77  " /><path style="stroke-width: 1.42 ;&st7;   " d=" M  2849.15,   103.77  C  2851.50    103.77   2853.40    101.87   2853.40     99.52  " /><path style="stroke-width: 1.42 ;&st7;   " d=" M  2853.40,    99.52  C  2853.40     97.17   2851.50     95.27   2849.15     95.27  " /><path style="stroke-width: 1.42 ;&st7;  " d=" M  2834.28,    35.78  L  2834.28,    78.27  L  2859.77,    78.27  L  2859.77,    35.78  L  2834.28,    35.78  " /><path style="stroke-width: 0.28 ;&st9;  " d=" M  2847.02,    90.37  L  2844.19,    87.54  L  2844.19,    91.79  L  2847.02,    94.62  L  2849.86,    91.79  L  2849.86,    87.54  L  2847.02,    90.37  " /><text style="font-size:6px;font-family:'NSimSun';" transform="matrix(&st16;  2840.84  86.47 )">2</text><text style="font-size:6px;font-family:'NSimSun';" transform="matrix(&st16;  2841.81  32.08 )">(IG)</text><text style="font-size:6px;font-family:'NSimSun';" transform="matrix(&st16;  2833.42  101.49 )">55</text><text style="font-size:6px;font-family:'NSimSun';" transform="matrix(&st16;  2843.05  101.49 )">3C</text><text style="font-size:6px;font-family:'NSimSun';" transform="matrix(&st16;  2863.45  56.17 )">5A <tspan x="0 " dy="6.0">MET</tspan></text></g><g ewd:figtype="w2w" ewd:figID="67" ewd:code="AE4"><path style="stroke-width: 1.42 ;&st7;  " d=" M  2936.26,   485.64  L  2940.51,   489.89  L  2944.76,   485.64  " /><path style="stroke-width: 1.42 ;&st7;  " d=" M  2944.76,   489.04  L  2940.51,   493.29  L  2936.26,   489.04  " /><text style="font-size:6px;font-family:'NSimSun';" transform="matrix(&st16;  2927.88  500.92 )">6</text></g><g ewd:figtype="w2w" ewd:figID="68" ewd:code="AE4"><path style="stroke-width: 1.42 ;&st7;  " d=" M  3004.25,   489.04  L  3000.00,   493.29  L  2995.75,   489.04  " /><path style="stroke-width: 1.42 ;&st7;  " d=" M  2995.75,   485.64  L  3000.00,   489.89  L  3004.25,   485.64  " /><text style="font-size:6px;font-family:'NSimSun';" transform="matrix(&st16;  2987.37  500.92 )">7</text></g><g ewd:figtype="gp" ewd:figID="76" ewd:code="BA"><path style="stroke-width: 0.85 ;&st7;  " d=" M  2541.07,   697.25  L  2541.07,   701.50  " /><path style="stroke-width: 0.85 ;&st7;  " d=" M  2532.58,   701.50  L  2549.57,   701.50  " /><path style="stroke-width: 0.85 ;&st7;  " d=" M  2536.83,   704.33  L  2545.32,   704.33  " /><path style="stroke-width: 0.85 ;&st7;  " d=" M  2538.24,   707.17  L  2543.91,   707.17  " /><path style="stroke-width: 0.85 ;&st7;  " d=" M  2539.66,   710.00  L  2542.49,   710.00  " /></g><g ewd:code="3" ewd:figID="96" ewd:comment="" ewd:figtype="comment"><text style="font-size:6px;font-family:'NSimSun';" transform="matrix(&st16;  2903.11  46.25 )" ewd:textID="4">* 3 : 不带 TFT 显示屏</text></g><g ewd:code="2" ewd:figID="97" ewd:comment="" ewd:figtype="comment"><text style="font-size:6px;font-family:'NSimSun';" transform="matrix(&st16;  2903.11  37.75 )" ewd:textID="3">* 2 : 带 TFT 显示屏</text></g></svg>