<?xml version="1.0" encoding="utf-8"?>
<!DOCTYPE svg PUBLIC "-//W3C//DTD SVG 1.0//EN" "http://www.w3.org/TR/2001/REC-SVG-20010904/DTD/svg10.dtd"[
	<!ENTITY ns_flows "http://ns.adobe.com/Flows/1.0/">
	<!ENTITY ns_svg "http://www.w3.org/2000/svg">
	<!ENTITY ns_xlink "http://www.w3.org/1999/xlink">
	<!ENTITY st0 "font-size:7px;font-family:'NSimSun';adobe-font-script:japanese;">
	<!ENTITY st1 "font-size:6px;font-family:'NSimSun';">
	<!-- White fill  -->
	<!ENTITY st2 "fill:#FFFFFF;stroke:#000000; stroke-width:1.41;stroke-linecap:round;stroke-linejoin:round;">
	<!-- Yellow fill  -->
	<!ENTITY st3 "fill:#FFFFCC;stroke:#FFFFCC; stroke-width:0.1;stroke-linecap:round;stroke-linejoin:round;">
	<!-- Gray fill  -->
	<!ENTITY st4 "fill:#CCCCCC;stroke:#CCCCCC; stroke-width:0.1;stroke-linecap:round;stroke-linejoin:round;">
	<!-- Light-blue fill -->
	<!ENTITY st5 "fill:#CCECF4;stroke:#000000; stroke-width:1.133;stroke-linecap:round;stroke-linejoin:round;">
	<!ENTITY st6 "fill:none;stroke-linecap:butt; stroke-linejoin:round;">
	<!ENTITY st7 "fill:none;stroke:#000000;stroke-linecap:round;stroke-linejoin:round;">
	<!ENTITY st8 "enable-background:new    ;">
	<!-- Black fill -->
	<!ENTITY st9 "fill:#000000;stroke:#000000; stroke-linecap:round;stroke-linejoin:round;">
	<!-- SRS note   -->
	<!ENTITY st10 "font-size:9px;font-family:'NSimSun';">
	<!ENTITY st11 "font-size:9px;font-family:'NSimSun';">
	<!ENTITY st12 "font-size:6px;font-family:'NSimSun';">
	<!ENTITY st13 "fill:none;stroke:#ff0000;stroke-linecap:round;stroke-linejoin:round;">
	<!-- Yellow fill  -->
	<!ENTITY st14 "fill:#FFFF00;stroke:#FFFF00; stroke-width:0.1;stroke-linecap:round;stroke-linejoin:round;">
	<!ENTITY st15 "font-size:6px;font-family:'NSimSun';adobe-font-script:japanese;">
	<!ENTITY st16 "1.00 0.00 0.00 1.00">
	<!ENTITY st17 "0.00 -1.00 1.00 0.00">
	<!ENTITY st18 "font-size:6px;font-family:'NSimSun';">
	<!ENTITY st19 "font-size:9px;font-family:'NSimSun';">
	<!ENTITY st20 "font-size:6px;font-family:'NSimSun';adobe-font-script:japanese;">
	<!ENTITY st21 "font-size:7px;font-family:'NSimSun';adobe-font-script:japanese;">
	<!ATTLIST svg
		xmlns:ewd CDATA #FIXED "http://shcl.co.jp/ewd"
		xmlns:a CDATA #FIXED "http://ns.adobe.com/AdobeSVGViewerExtensions/3.0/"
		ewd:ver CDATA #IMPLIED
	>
	<!ATTLIST a
		ewd:lineID CDATA #IMPLIED
		ewd:groupID CDATA #IMPLIED
		ewd:figtype CDATA #IMPLIED
		ewd:code CDATA #IMPLIED
		ewd:figID CDATA #IMPLIED
		ewd:pinNo CDATA #IMPLIED
		ewd:comment CDATA #IMPLIED >
	<!ATTLIST g
		ewd:lineID CDATA #IMPLIED
		ewd:groupID CDATA #IMPLIED
		ewd:figtype CDATA #IMPLIED
		ewd:code CDATA #IMPLIED
		ewd:figID CDATA #IMPLIED
		ewd:pinNo CDATA #IMPLIED
		ewd:comment CDATA #IMPLIED >
	<!ATTLIST text
		ewd:textID CDATA #IMPLIED
		ewd:horAlign CDATA #IMPLIED >
	<!ATTLIST title
		ewd:textID CDATA #IMPLIED >
]>
<!-- Generator: Shintec Hozumi YS   -->
<svg onload="call_execInitLoadProc_svg('system')" style="overflow:visible;  enable-background:new 0 0 4565.431 710.000" viewBox="0 0 4562.344 710.000" height="710.000" width="4562.344" xml:space="preserve" ewd:ver="2.1.2.6F" xmlns="&ns_svg;" xmlns:ewd="http://shcl.co.jp/ewd" xmlns:a="http://ns.adobe.com/AdobeSVGViewerExtensions/3.0/" xmlns:xlink="&ns_xlink;">
<text style="font-size:6px;font-family:'NSimSun';" transform="matrix(&st17;  4288.09  318.7 )">W</text><text style="font-size:6px;font-family:'NSimSun';" transform="matrix(&st17;  4288.09  182.22 )">G</text><text style="font-size:6px;font-family:'NSimSun';" transform="matrix(&st17;  4381.57  317.81 )">L</text><text style="font-size:6px;font-family:'NSimSun';" transform="matrix(&st17;  4381.57  472.76 )">BR</text><text style="font-size:6px;font-family:'NSimSun';" transform="matrix(&st17;  4288.09  471.67 )">W</text><text style="font-size:6px;font-family:'NSimSun';" transform="matrix(&st17;  4322.08  472.45 )">SB</text><text style="font-size:6px;font-family:'NSimSun';" transform="matrix(&st17;  4299.42  184.97 )">(*1)</text><text style="font-size:6px;font-family:'NSimSun';" transform="matrix(&st17;  4299.42  320.95 )">(*1)</text><text style="font-size:6px;font-family:'NSimSun';" transform="matrix(&st17;  4392.9  320.95 )">(*1)</text><text style="font-size:6px;font-family:'NSimSun';" transform="matrix(&st17;  4392.9  473.92 )">(*1)</text><text style="font-size:6px;font-family:'NSimSun';" transform="matrix(&st17;  4299.42  473.92 )">(*1)</text><text style="font-size:6px;font-family:'NSimSun';" transform="matrix(&st17;  4333.41  473.92 )">(*1)</text><text style="font-size:6px;font-family:'NSimSun';" transform="matrix(&st16;  4113.88  635.48 )">W(*1)</text><text style="font-size:6px;font-family:'NSimSun';" transform="matrix(&st16;  4113.11  660.98 )">SB(*1)</text><text style="font-size:6px;font-family:'NSimSun';" transform="matrix(&st16;  4164.88  635.48 )">W(*1)</text><text style="font-size:6px;font-family:'NSimSun';" transform="matrix(&st16;  4164.1  660.98 )">SB(*1)</text><g ewd:figtype="rb" ewd:figID="6" ewd:code="FUSE5"><text style="font-size:6px;font-family:'NSimSun';" transform="matrix(&st16;  4283.74  32.08 )">(BAT)</text><text style="font-size:6px;font-family:'NSimSun';" transform="matrix(&st16;  4289.98  101.49 )">1</text><text style="font-size:6px;font-family:'NSimSun';" transform="matrix(&st16;  4308.21  53.34 )">10A <tspan x="0 " dy="6.0">ECU-B </tspan><tspan x="0 " dy="6.0">NO.1</tspan></text><text style="font-size:6px;font-family:'NSimSun';" transform="matrix(&st16;  4285.6  86.47 )">2</text><path style="stroke-width: 0.28 ;&st9;  " d=" M  4291.78,    90.37  L  4288.95,    87.54  L  4288.95,    91.79  L  4291.78,    94.62  L  4294.61,    91.79  L  4294.61,    87.54  L  4291.78,    90.37  " /><path style="stroke-width: 1.42 ;&st7;   " d=" M  4289.66,    95.27  C  4287.31     95.27   4285.41     97.17   4285.41     99.52  " /><path style="stroke-width: 1.42 ;&st7;   " d=" M  4285.41,    99.52  C  4285.41    101.87   4287.31    103.77   4289.66    103.77  " /><path style="stroke-width: 1.42 ;&st7;   " d=" M  4293.91,   103.77  C  4296.25    103.77   4298.16    101.87   4298.16     99.52  " /><path style="stroke-width: 1.42 ;&st7;   " d=" M  4298.16,    99.52  C  4298.16     97.17   4296.25     95.27   4293.91     95.27  " /><path style="stroke-width: 0.85 ;&st7;  " d=" M  4291.78,    69.77  L  4291.78,    95.27  " /><path style="stroke-width: 1.42 ;&st7;  " d=" M  4293.91,    95.27  L  4289.66,    95.27  " /><path style="stroke-width: 1.42 ;&st7;  " d=" M  4293.91,   103.77  L  4289.66,   103.77  " /><path style="stroke-width: 1.42 ;&st7;  " d=" M  4279.03,    35.78  L  4279.03,    78.27  L  4304.53,    78.27  L  4304.53,    35.78  L  4279.03,    35.78  " /><path style="stroke-width: 1.42 ;&st7;   " d=" M  4291.78,    47.11  C  4289.04     48.72   4288.13     52.25   4289.75     54.99  " /><path style="stroke-width: 1.42 ;&st7;   " d=" M  4289.75,    54.99  C  4290.27     55.87   4290.90     56.51   4291.78     57.03  " /><path style="stroke-width: 1.42 ;&st7;   " d=" M  4291.78,    66.94  C  4294.52     65.33   4295.43     61.80   4293.82     59.06  " /><path style="stroke-width: 1.42 ;&st7;   " d=" M  4293.82,    59.06  C  4293.30     58.18   4292.66     57.55   4291.78     57.03  " /><path style="stroke-width: 0.85 ;&st7;   " d=" M  4293.20,    45.69  C  4293.20     44.91   4292.57     44.28   4291.78     44.28  " /><path style="stroke-width: 0.85 ;&st7;   " d=" M  4291.78,    44.28  C  4291.00     44.28   4290.37     44.91   4290.37     45.69  " /><path style="stroke-width: 0.85 ;&st7;   " d=" M  4290.37,    45.69  C  4290.37     46.48   4291.00     47.11   4291.78     47.11  " /><path style="stroke-width: 0.85 ;&st7;   " d=" M  4291.78,    47.11  C  4292.57     47.11   4293.20     46.48   4293.20     45.69  " /><path style="stroke-width: 0.85 ;&st7;   " d=" M  4293.20,    68.36  C  4293.20     67.57   4292.57     66.94   4291.78     66.94  " /><path style="stroke-width: 0.85 ;&st7;   " d=" M  4291.78,    66.94  C  4291.00     66.94   4290.37     67.57   4290.37     68.36  " /><path style="stroke-width: 0.85 ;&st7;   " d=" M  4290.37,    68.36  C  4290.37     69.14   4291.00     69.77   4291.78     69.77  " /><path style="stroke-width: 0.85 ;&st7;   " d=" M  4291.78,    69.77  C  4292.57     69.77   4293.20     69.14   4293.20     68.36  " /></g><g ewd:figtype="conn" ewd:figID="9" ewd:code="E62"><path style="stroke-width: 1.42 ;&st7;  " d=" M  4274.78,   358.73  L  4274.78,   401.22  L  4402.26,   401.22  L  4402.26,   358.73  L  4274.78,   358.73  " /><g ewd:lineID="82"><text style="font-size:6px;font-family:'NSimSun';" transform="matrix(&st16;  4285.6  409.41 )">2</text><text style="font-size:6px;font-family:'NSimSun';" transform="matrix(&st16;  4283.43  397.52 )">CANL</text></g><g ewd:lineID="83"><text style="font-size:6px;font-family:'NSimSun';" transform="matrix(&st16;  4285.6  355.04 )">5</text><text style="font-size:6px;font-family:'NSimSun';" transform="matrix(&st16;  4285.6  366.36 )">BAT</text></g><g ewd:lineID="85"><text style="font-size:6px;font-family:'NSimSun';" transform="matrix(&st16;  4319.59  409.41 )">3</text><text style="font-size:6px;font-family:'NSimSun';" transform="matrix(&st16;  4317.0  397.52 )">CANH</text></g><g ewd:lineID="86"><text style="font-size:6px;font-family:'NSimSun';" transform="matrix(&st16;  4379.08  409.41 )">1</text><text style="font-size:6px;font-family:'NSimSun';" transform="matrix(&st16;  4380.05  397.52 )">ESS</text></g><g ewd:lineID="87"><text style="font-size:6px;font-family:'NSimSun';" transform="matrix(&st16;  4379.08  355.04 )">4</text><text style="font-size:6px;font-family:'NSimSun';" transform="matrix(&st16;  4381.92  366.36 )">IG</text></g><g ewd:figtype="title"><text style="font-size:6px;font-family:'NSimSun';" transform="matrix(&st16;  4404.52  369.17 )">E62</text><text style="font-size:6px;font-family:'NSimSun';" transform="matrix(&st16;  4404.52  376.28 )" ewd:textID="27">转向传感器</text></g></g><g ewd:figtype="jb" ewd:figID="36" ewd:code="3"><text style="font-size:6px;font-family:'NSimSun';" transform="matrix(&st16;  4379.08  86.47 )">2</text><text style="font-size:6px;font-family:'NSimSun';" transform="matrix(&st16;  4380.05  32.08 )">(IG)</text><text style="font-size:6px;font-family:'NSimSun';" transform="matrix(&st16;  4371.66  101.49 )">16</text><text style="font-size:6px;font-family:'NSimSun';" transform="matrix(&st16;  4381.33  101.49 )">3D</text><text style="font-size:6px;font-family:'NSimSun';" transform="matrix(&st16;  4401.69  53.34 )">7.5A <tspan x="0 " dy="6.0">ECU-IG </tspan><tspan x="0 " dy="6.0">NO.1</tspan></text><path style="stroke-width: 1.42 ;&st7;  " d=" M  4372.52,    35.78  L  4372.52,    78.27  L  4398.01,    78.27  L  4398.01,    35.78  L  4372.52,    35.78  " /><path style="stroke-width: 0.28 ;&st9;  " d=" M  4385.27,    90.37  L  4382.43,    87.54  L  4382.43,    91.79  L  4385.27,    94.62  L  4388.10,    91.79  L  4388.10,    87.54  L  4385.27,    90.37  " /><path style="stroke-width: 1.42 ;&st7;   " d=" M  4385.27,    47.11  C  4382.53     48.72   4381.62     52.25   4383.23     54.99  " /><path style="stroke-width: 1.42 ;&st7;   " d=" M  4383.23,    54.99  C  4383.75     55.87   4384.39     56.51   4385.27     57.03  " /><path style="stroke-width: 1.42 ;&st7;   " d=" M  4385.27,    66.94  C  4388.01     65.33   4388.92     61.80   4387.30     59.06  " /><path style="stroke-width: 1.42 ;&st7;   " d=" M  4387.30,    59.06  C  4386.78     58.18   4386.15     57.55   4385.27     57.03  " /><path style="stroke-width: 0.85 ;&st7;   " d=" M  4386.68,    45.69  C  4386.68     44.91   4386.05     44.28   4385.27     44.28  " /><path style="stroke-width: 0.85 ;&st7;   " d=" M  4385.27,    44.28  C  4384.49     44.28   4383.85     44.91   4383.85     45.69  " /><path style="stroke-width: 0.85 ;&st7;   " d=" M  4383.85,    45.69  C  4383.85     46.48   4384.49     47.11   4385.27     47.11  " /><path style="stroke-width: 0.85 ;&st7;   " d=" M  4385.27,    47.11  C  4386.05     47.11   4386.68     46.48   4386.68     45.69  " /><path style="stroke-width: 0.85 ;&st7;   " d=" M  4386.68,    68.36  C  4386.68     67.57   4386.05     66.94   4385.27     66.94  " /><path style="stroke-width: 0.85 ;&st7;   " d=" M  4385.27,    66.94  C  4384.49     66.94   4383.85     67.57   4383.85     68.36  " /><path style="stroke-width: 0.85 ;&st7;   " d=" M  4383.85,    68.36  C  4383.85     69.14   4384.49     69.77   4385.27     69.77  " /><path style="stroke-width: 0.85 ;&st7;   " d=" M  4385.27,    69.77  C  4386.05     69.77   4386.68     69.14   4386.68     68.36  " /><path style="stroke-width: 1.42 ;&st7;   " d=" M  4383.14,    95.27  C  4380.80     95.27   4378.89     97.17   4378.89     99.52  " /><path style="stroke-width: 1.42 ;&st7;   " d=" M  4378.89,    99.52  C  4378.89    101.87   4380.80    103.77   4383.14    103.77  " /><path style="stroke-width: 1.42 ;&st7;   " d=" M  4387.39,   103.77  C  4389.74    103.77   4391.64    101.87   4391.64     99.52  " /><path style="stroke-width: 1.42 ;&st7;   " d=" M  4391.64,    99.52  C  4391.64     97.17   4389.74     95.27   4387.39     95.27  " /><path style="stroke-width: 0.85 ;&st7;  " d=" M  4385.27,    69.77  L  4385.27,    95.27  " /><path style="stroke-width: 1.42 ;&st7;  " d=" M  4387.39,    95.27  L  4383.14,    95.27  " /><path style="stroke-width: 1.42 ;&st7;  " d=" M  4387.39,   103.77  L  4383.14,   103.77  " /></g><g ewd:figtype="jb" ewd:figID="37" ewd:code="3"><text style="font-size:6px;font-family:'NSimSun';" transform="matrix(&st16;  4278.17  271.46 )">30</text><text style="font-size:6px;font-family:'NSimSun';" transform="matrix(&st16;  4287.81  271.46 )">3C</text><text style="font-size:6px;font-family:'NSimSun';" transform="matrix(&st16;  4278.17  228.97 )">43</text><text style="font-size:6px;font-family:'NSimSun';" transform="matrix(&st16;  4287.93  228.97 )">3A</text><path style="stroke-width: 0.85 ;&st7;  " d=" M  4291.78,   265.24  L  4291.78,   231.25  " /><path style="stroke-width: 0.28 ;&st9;  " d=" M  4291.78,   260.35  L  4288.95,   257.51  L  4288.95,   261.76  L  4291.78,   264.60  L  4294.61,   261.76  L  4294.61,   257.51  L  4291.78,   260.35  " /><path style="stroke-width: 0.28 ;&st9;  " d=" M  4291.78,   236.14  L  4294.61,   238.97  L  4294.61,   234.73  L  4291.78,   231.89  L  4288.95,   234.73  L  4288.95,   238.97  L  4291.78,   236.14  " /><path style="stroke-width: 1.42 ;&st7;   " d=" M  4289.66,   222.75  C  4287.31    222.75   4285.41    224.65   4285.41    227.00  " /><path style="stroke-width: 1.42 ;&st7;   " d=" M  4285.41,   227.00  C  4285.41    229.34   4287.31    231.25   4289.66    231.25  " /><path style="stroke-width: 1.42 ;&st7;   " d=" M  4293.91,   231.25  C  4296.25    231.25   4298.16    229.34   4298.16    227.00  " /><path style="stroke-width: 1.42 ;&st7;   " d=" M  4298.16,   227.00  C  4298.16    224.65   4296.25    222.75   4293.91    222.75  " /><path style="stroke-width: 1.42 ;&st7;   " d=" M  4289.66,   265.24  C  4287.31    265.24   4285.41    267.14   4285.41    269.49  " /><path style="stroke-width: 1.42 ;&st7;   " d=" M  4285.41,   269.49  C  4285.41    271.84   4287.31    273.74   4289.66    273.74  " /><path style="stroke-width: 1.42 ;&st7;   " d=" M  4293.91,   273.74  C  4296.25    273.74   4298.16    271.84   4298.16    269.49  " /><path style="stroke-width: 1.42 ;&st7;   " d=" M  4298.16,   269.49  C  4298.16    267.14   4296.25    265.24   4293.91    265.24  " /><path style="stroke-width: 1.42 ;&st7;  " d=" M  4293.91,   222.75  L  4289.66,   222.75  " /><path style="stroke-width: 1.42 ;&st7;  " d=" M  4293.91,   231.25  L  4289.66,   231.25  " /><path style="stroke-width: 1.42 ;&st7;  " d=" M  4293.91,   265.24  L  4289.66,   265.24  " /><path style="stroke-width: 1.42 ;&st7;  " d=" M  4293.91,   273.74  L  4289.66,   273.74  " /></g><g ewd:figtype="gp" ewd:figID="70" ewd:code="ED"><path style="stroke-width: 0.85 ;&st7;  " d=" M  4381.02,   704.33  L  4389.51,   704.33  " /><path style="stroke-width: 0.85 ;&st7;  " d=" M  4385.27,   697.25  L  4385.27,   701.50  " /><path style="stroke-width: 0.85 ;&st7;  " d=" M  4376.77,   701.50  L  4393.76,   701.50  " /><path style="stroke-width: 0.85 ;&st7;  " d=" M  4383.85,   710.00  L  4386.68,   710.00  " /><path style="stroke-width: 0.85 ;&st7;  " d=" M  4382.43,   707.17  L  4388.10,   707.17  " /></g></svg>