<?xml version="1.0" encoding="utf-8"?>
<!DOCTYPE svg PUBLIC "-//W3C//DTD SVG 1.0//EN" "http://www.w3.org/TR/2001/REC-SVG-20010904/DTD/svg10.dtd"[
	<!ENTITY ns_flows "http://ns.adobe.com/Flows/1.0/">
	<!ENTITY ns_svg "http://www.w3.org/2000/svg">
	<!ENTITY ns_xlink "http://www.w3.org/1999/xlink">
	<!ENTITY st0 "font-size:7px;font-family:'NSimSun';adobe-font-script:japanese;">
	<!ENTITY st1 "font-size:6px;font-family:'NSimSun';">
	<!-- White fill  -->
	<!ENTITY st2 "fill:#FFFFFF;stroke:#000000; stroke-width:1.41;stroke-linecap:round;stroke-linejoin:round;">
	<!-- Yellow fill  -->
	<!ENTITY st3 "fill:#FFFFCC;stroke:#FFFFCC; stroke-width:0.1;stroke-linecap:round;stroke-linejoin:round;">
	<!-- Gray fill  -->
	<!ENTITY st4 "fill:#CCCCCC;stroke:#CCCCCC; stroke-width:0.1;stroke-linecap:round;stroke-linejoin:round;">
	<!-- Light-blue fill -->
	<!ENTITY st5 "fill:#CCECF4;stroke:#000000; stroke-width:1.133;stroke-linecap:round;stroke-linejoin:round;">
	<!ENTITY st6 "fill:none;stroke-linecap:butt; stroke-linejoin:round;">
	<!ENTITY st7 "fill:none;stroke:#000000;stroke-linecap:round;stroke-linejoin:round;">
	<!ENTITY st8 "enable-background:new    ;">
	<!-- Black fill -->
	<!ENTITY st9 "fill:#000000;stroke:#000000; stroke-linecap:round;stroke-linejoin:round;">
	<!-- SRS note   -->
	<!ENTITY st10 "font-size:9px;font-family:'NSimSun';">
	<!ENTITY st11 "font-size:9px;font-family:'NSimSun';">
	<!ENTITY st12 "font-size:6px;font-family:'NSimSun';">
	<!ENTITY st13 "fill:none;stroke:#ff0000;stroke-linecap:round;stroke-linejoin:round;">
	<!-- Yellow fill  -->
	<!ENTITY st14 "fill:#FFFF00;stroke:#FFFF00; stroke-width:0.1;stroke-linecap:round;stroke-linejoin:round;">
	<!ENTITY st15 "font-size:6px;font-family:'NSimSun';adobe-font-script:japanese;">
	<!ENTITY st16 "1.00 0.00 0.00 1.00">
	<!ENTITY st17 "0.00 -1.00 1.00 0.00">
	<!ENTITY st18 "font-size:6px;font-family:'NSimSun';">
	<!ENTITY st19 "font-size:9px;font-family:'NSimSun';">
	<!ENTITY st20 "font-size:6px;font-family:'NSimSun';adobe-font-script:japanese;">
	<!ENTITY st21 "font-size:7px;font-family:'NSimSun';adobe-font-script:japanese;">
	<!ATTLIST svg
		xmlns:ewd CDATA #FIXED "http://shcl.co.jp/ewd"
		xmlns:a CDATA #FIXED "http://ns.adobe.com/AdobeSVGViewerExtensions/3.0/"
		ewd:ver CDATA #IMPLIED
	>
	<!ATTLIST a
		ewd:lineID CDATA #IMPLIED
		ewd:groupID CDATA #IMPLIED
		ewd:figtype CDATA #IMPLIED
		ewd:code CDATA #IMPLIED
		ewd:figID CDATA #IMPLIED
		ewd:pinNo CDATA #IMPLIED
		ewd:comment CDATA #IMPLIED >
	<!ATTLIST g
		ewd:lineID CDATA #IMPLIED
		ewd:groupID CDATA #IMPLIED
		ewd:figtype CDATA #IMPLIED
		ewd:code CDATA #IMPLIED
		ewd:figID CDATA #IMPLIED
		ewd:pinNo CDATA #IMPLIED
		ewd:comment CDATA #IMPLIED >
	<!ATTLIST text
		ewd:textID CDATA #IMPLIED
		ewd:horAlign CDATA #IMPLIED >
	<!ATTLIST title
		ewd:textID CDATA #IMPLIED >
]>
<!-- Generator: Shintec Hozumi YS   -->
<svg onload="call_execInitLoadProc_svg('system')" style="overflow:visible;  enable-background:new 0 0 1524.618 710.000" viewBox="0 0 1528.741 710.000" height="710.000" width="1528.741" xml:space="preserve" ewd:ver="2.1.2.6F" xmlns="&ns_svg;" xmlns:ewd="http://shcl.co.jp/ewd" xmlns:a="http://ns.adobe.com/AdobeSVGViewerExtensions/3.0/" xmlns:xlink="&ns_xlink;">
<text style="font-size:6px;font-family:'NSimSun';" transform="matrix(&st17;  1262.59  198.86 )">R</text><text style="font-size:6px;font-family:'NSimSun';" transform="matrix(&st17;  1494.89  201.97 )">(*1)</text><path style="stroke-width: 1.42 ;&st7;  " d=" M  1427.76,   256.74  L  1419.26,   256.74  " /><path style="stroke-width: 1.42 ;&st7;  " d=" M  1461.76,   256.74  L  1453.26,   256.74  " /><path style="stroke-width: 1.42 ;&st7;  " d=" M  1495.75,   256.74  L  1487.25,   256.74  " /><text style="font-size:6px;font-family:'NSimSun';" transform="matrix(&st17;  1415.57  199.72 )">W</text><text style="font-size:6px;font-family:'NSimSun';" transform="matrix(&st17;  1415.57  301.7 )">W</text><text style="font-size:6px;font-family:'NSimSun';" transform="matrix(&st17;  1449.56  198.94 )">Y</text><text style="font-size:6px;font-family:'NSimSun';" transform="matrix(&st17;  1449.56  300.92 )">Y</text><text style="font-size:6px;font-family:'NSimSun';" transform="matrix(&st17;  1483.56  199.06 )">V</text><text style="font-size:6px;font-family:'NSimSun';" transform="matrix(&st17;  1483.56  301.04 )">V</text><text style="font-size:6px;font-family:'NSimSun';" transform="matrix(&st16;  1262.88  32.08 )" ewd:textID="10">主车身 ECU</text><text style="font-size:6px;font-family:'NSimSun';" transform="matrix(&st16;  1262.88  24.98 )">E36(A)</text><text style="font-size:6px;font-family:'NSimSun';" transform="matrix(&st17;  1228.6  198.82 )">L</text><text style="font-size:6px;font-family:'NSimSun';" transform="matrix(&st17;  1194.6  199.72 )">W</text><text style="font-size:6px;font-family:'NSimSun';" transform="matrix(&st17;  1460.89  201.97 )">(*1)</text><text style="font-size:6px;font-family:'NSimSun';" transform="matrix(&st17;  1426.9  201.97 )">(*1)</text><text style="font-size:6px;font-family:'NSimSun';" transform="matrix(&st17;  1494.89  303.95 )">(*1)</text><text style="font-size:6px;font-family:'NSimSun';" transform="matrix(&st17;  1460.89  303.95 )">(*1)</text><text style="font-size:6px;font-family:'NSimSun';" transform="matrix(&st17;  1273.92  201.97 )">(*1)</text><text style="font-size:6px;font-family:'NSimSun';" transform="matrix(&st17;  1426.9  303.95 )">(*1)</text><text style="font-size:6px;font-family:'NSimSun';" transform="matrix(&st17;  1296.59  628.14 )">W-B</text><text style="font-size:6px;font-family:'NSimSun';" transform="matrix(&st17;  1296.59  509.16 )">W-B</text><g ewd:figtype="conn" ewd:figID="1" ewd:code="E36"><g ewd:lineID="12"><text style="font-size:6px;font-family:'NSimSun';" transform="matrix(&st16;  1186.5  93.27 )">30</text><text style="font-size:6px;font-family:'NSimSun';" transform="matrix(&st16;  1196.0  93.27 )">A</text><path style="stroke-width: 1.42 ;&st7;   " d=" M  1202.83,    91.30  C  1202.83     88.80   1200.80     86.77   1198.30     86.77  " /><path style="stroke-width: 1.42 ;&st7;   " d=" M  1198.30,    86.77  C  1195.80     86.77   1193.77     88.80   1193.77     91.30  " /><path style="stroke-width: 1.42 ;&st7;   " d=" M  1193.77,    91.30  C  1193.77     93.81   1195.80     95.84   1198.30     95.84  " /><path style="stroke-width: 1.42 ;&st7;   " d=" M  1198.30,    95.84  C  1200.80     95.84   1202.83     93.81   1202.83     91.30  " /><text style="font-size:6px;font-family:'NSimSun';" transform="matrix(&st16;  1191.34  83.07 )">TAIL</text></g><g ewd:lineID="13"><text style="font-size:6px;font-family:'NSimSun';" transform="matrix(&st16;  1220.5  93.27 )">29</text><text style="font-size:6px;font-family:'NSimSun';" transform="matrix(&st16;  1229.99  93.27 )">A</text><path style="stroke-width: 1.42 ;&st7;   " d=" M  1236.83,    91.30  C  1236.83     88.80   1234.80     86.77   1232.29     86.77  " /><path style="stroke-width: 1.42 ;&st7;   " d=" M  1232.29,    86.77  C  1229.79     86.77   1227.76     88.80   1227.76     91.30  " /><path style="stroke-width: 1.42 ;&st7;   " d=" M  1227.76,    91.30  C  1227.76     93.81   1229.79     95.84   1232.29     95.84  " /><path style="stroke-width: 1.42 ;&st7;   " d=" M  1232.29,    95.84  C  1234.80     95.84   1236.83     93.81   1236.83     91.30  " /><text style="font-size:6px;font-family:'NSimSun';" transform="matrix(&st16;  1223.75  83.07 )">HEAD</text></g><g ewd:lineID="14"><text style="font-size:6px;font-family:'NSimSun';" transform="matrix(&st16;  1254.49  93.27 )">28</text><text style="font-size:6px;font-family:'NSimSun';" transform="matrix(&st16;  1263.98  93.27 )">A</text><path style="stroke-width: 1.42 ;&st7;   " d=" M  1270.82,    91.30  C  1270.82     88.80   1268.79     86.77   1266.29     86.77  " /><path style="stroke-width: 1.42 ;&st7;   " d=" M  1266.29,    86.77  C  1263.79     86.77   1261.76     88.80   1261.76     91.30  " /><path style="stroke-width: 1.42 ;&st7;   " d=" M  1261.76,    91.30  C  1261.76     93.81   1263.79     95.84   1266.29     95.84  " /><path style="stroke-width: 1.42 ;&st7;   " d=" M  1266.29,    95.84  C  1268.79     95.84   1270.82     93.81   1270.82     91.30  " /><text style="font-size:6px;font-family:'NSimSun';" transform="matrix(&st16;  1263.98  83.07 )">A</text></g><g ewd:lineID="18"><text style="font-size:6px;font-family:'NSimSun';" transform="matrix(&st16;  1407.47  93.27 )">20</text><text style="font-size:6px;font-family:'NSimSun';" transform="matrix(&st16;  1416.96  93.27 )">A</text><path style="stroke-width: 1.42 ;&st7;   " d=" M  1423.80,    91.30  C  1423.80     88.80   1421.77     86.77   1419.26     86.77  " /><path style="stroke-width: 1.42 ;&st7;   " d=" M  1419.26,    86.77  C  1416.76     86.77   1414.73     88.80   1414.73     91.30  " /><path style="stroke-width: 1.42 ;&st7;   " d=" M  1414.73,    91.30  C  1414.73     93.81   1416.76     95.84   1419.26     95.84  " /><path style="stroke-width: 1.42 ;&st7;   " d=" M  1419.26,    95.84  C  1421.77     95.84   1423.80     93.81   1423.80     91.30  " /><text style="font-size:6px;font-family:'NSimSun';" transform="matrix(&st16;  1411.14  83.07 )">CLTB</text></g><g ewd:lineID="20"><text style="font-size:6px;font-family:'NSimSun';" transform="matrix(&st16;  1441.46  93.27 )">21</text><text style="font-size:6px;font-family:'NSimSun';" transform="matrix(&st16;  1450.95  93.27 )">A</text><path style="stroke-width: 1.42 ;&st7;   " d=" M  1457.79,    91.30  C  1457.79     88.80   1455.76     86.77   1453.26     86.77  " /><path style="stroke-width: 1.42 ;&st7;   " d=" M  1453.26,    86.77  C  1450.75     86.77   1448.72     88.80   1448.72     91.30  " /><path style="stroke-width: 1.42 ;&st7;   " d=" M  1448.72,    91.30  C  1448.72     93.81   1450.75     95.84   1453.26     95.84  " /><path style="stroke-width: 1.42 ;&st7;   " d=" M  1453.26,    95.84  C  1455.76     95.84   1457.79     93.81   1457.79     91.30  " /><text style="font-size:6px;font-family:'NSimSun';" transform="matrix(&st16;  1445.52  83.07 )">CLTS</text></g><g ewd:lineID="22"><text style="font-size:6px;font-family:'NSimSun';" transform="matrix(&st16;  1475.46  93.27 )">22</text><path style="stroke-width: 1.42 ;&st7;   " d=" M  1491.78,    91.30  C  1491.78     88.80   1489.75     86.77   1487.25     86.77  " /><path style="stroke-width: 1.42 ;&st7;   " d=" M  1487.25,    86.77  C  1484.75     86.77   1482.72     88.80   1482.72     91.30  " /><path style="stroke-width: 1.42 ;&st7;   " d=" M  1482.72,    91.30  C  1482.72     93.81   1484.75     95.84   1487.25     95.84  " /><path style="stroke-width: 1.42 ;&st7;   " d=" M  1487.25,    95.84  C  1489.75     95.84   1491.78     93.81   1491.78     91.30  " /><text style="font-size:6px;font-family:'NSimSun';" transform="matrix(&st16;  1484.95  93.27 )">A</text><text style="font-size:6px;font-family:'NSimSun';" transform="matrix(&st16;  1479.21  83.07 )">CLTE</text></g></g><g ewd:figtype="conn" ewd:figID="5" ewd:code="F2"><path style="stroke-width: 1.42 ;&st7;  " d=" M  1402.27,   384.22  L  1504.25,   384.22  L  1504.25,   350.23  L  1402.27,   350.23  L  1402.27,   384.22  " /><g ewd:lineID="17"><text style="font-size:6px;font-family:'NSimSun';" transform="matrix(&st16;  1413.08  346.54 )">1</text><text style="font-size:6px;font-family:'NSimSun';" transform="matrix(&st16;  1411.14  357.86 )">CLTB</text></g><g ewd:lineID="19"><text style="font-size:6px;font-family:'NSimSun';" transform="matrix(&st16;  1447.07  346.54 )">4</text><text style="font-size:6px;font-family:'NSimSun';" transform="matrix(&st16;  1445.52  357.86 )">CLTS</text></g><g ewd:lineID="21"><text style="font-size:6px;font-family:'NSimSun';" transform="matrix(&st16;  1481.07  346.54 )">3</text><text style="font-size:6px;font-family:'NSimSun';" transform="matrix(&st16;  1479.21  357.86 )">CLTE</text></g></g><g ewd:code="E15" ewd:figID="7" ewd:comment="1" ewd:figtype="conn"><path style="stroke-width: 0.85 ;&st7;   " d=" M  1301.70,   401.22  C  1301.70    400.44   1301.07    399.80   1300.28    399.80  " /><path style="stroke-width: 0.85 ;&st7;   " d=" M  1300.28,   399.80  C  1299.50    399.80   1298.87    400.44   1298.87    401.22  " /><path style="stroke-width: 0.85 ;&st7;   " d=" M  1298.87,   401.22  C  1298.87    402.00   1299.50    402.63   1300.28    402.63  " /><path style="stroke-width: 0.85 ;&st7;   " d=" M  1300.28,   402.63  C  1301.07    402.63   1301.70    402.00   1301.70    401.22  " /><path style="stroke-width: 0.85 ;&st7;   " d=" M  1301.70,   367.22  C  1301.70    366.44   1301.07    365.81   1300.28    365.81  " /><path style="stroke-width: 0.85 ;&st7;   " d=" M  1300.28,   365.81  C  1299.50    365.81   1298.87    366.44   1298.87    367.22  " /><path style="stroke-width: 0.85 ;&st7;   " d=" M  1298.87,   367.22  C  1298.87    368.01   1299.50    368.64   1300.28    368.64  " /><path style="stroke-width: 0.85 ;&st7;   " d=" M  1300.28,   368.64  C  1301.07    368.64   1301.70    368.01   1301.70    367.22  " /><path style="stroke-width: 0.85 ;&st7;   " d=" M  1267.70,   367.22  C  1267.70    366.44   1267.07    365.81   1266.29    365.81  " /><path style="stroke-width: 0.85 ;&st7;   " d=" M  1266.29,   365.81  C  1265.51    365.81   1264.87    366.44   1264.87    367.22  " /><path style="stroke-width: 0.85 ;&st7;   " d=" M  1264.87,   367.22  C  1264.87    368.01   1265.51    368.64   1266.29    368.64  " /><path style="stroke-width: 0.85 ;&st7;   " d=" M  1266.29,   368.64  C  1267.07    368.64   1267.70    368.01   1267.70    367.22  " /><path style="stroke-width: 0.85 ;&st7;   " d=" M  1233.71,   401.22  C  1233.71    400.44   1233.08    399.80   1232.29    399.80  " /><path style="stroke-width: 0.85 ;&st7;   " d=" M  1232.29,   399.80  C  1231.51    399.80   1230.88    400.44   1230.88    401.22  " /><path style="stroke-width: 0.85 ;&st7;   " d=" M  1230.88,   401.22  C  1230.88    402.00   1231.51    402.63   1232.29    402.63  " /><path style="stroke-width: 0.85 ;&st7;   " d=" M  1232.29,   402.63  C  1233.08    402.63   1233.71    402.00   1233.71    401.22  " /><path style="stroke-width: 0.85 ;&st7;   " d=" M  1199.72,   384.22  C  1199.72    383.44   1199.08    382.80   1198.30    382.80  " /><path style="stroke-width: 0.85 ;&st7;   " d=" M  1198.30,   382.80  C  1197.52    382.80   1196.88    383.44   1196.88    384.22  " /><path style="stroke-width: 0.85 ;&st7;   " d=" M  1196.88,   384.22  C  1196.88    385.00   1197.52    385.64   1198.30    385.64  " /><path style="stroke-width: 0.85 ;&st7;   " d=" M  1198.30,   385.64  C  1199.08    385.64   1199.72    385.00   1199.72    384.22  " /><path style="stroke-width: 0.85 ;&st7;   " d=" M  1301.70,   384.22  C  1301.70    383.44   1301.07    382.80   1300.28    382.80  " /><path style="stroke-width: 0.85 ;&st7;   " d=" M  1300.28,   382.80  C  1299.50    382.80   1298.87    383.44   1298.87    384.22  " /><path style="stroke-width: 0.85 ;&st7;   " d=" M  1298.87,   384.22  C  1298.87    385.00   1299.50    385.64   1300.28    385.64  " /><path style="stroke-width: 0.85 ;&st7;   " d=" M  1300.28,   385.64  C  1301.07    385.64   1301.70    385.00   1301.70    384.22  " /><path style="stroke-width: 0.85 ;&st7;   " d=" M  1199.72,   401.22  C  1199.72    400.44   1199.08    399.80   1198.30    399.80  " /><path style="stroke-width: 0.85 ;&st7;   " d=" M  1198.30,   399.80  C  1197.52    399.80   1196.88    400.44   1196.88    401.22  " /><path style="stroke-width: 0.85 ;&st7;   " d=" M  1196.88,   401.22  C  1196.88    402.00   1197.52    402.63   1198.30    402.63  " /><path style="stroke-width: 0.85 ;&st7;   " d=" M  1198.30,   402.63  C  1199.08    402.63   1199.72    402.00   1199.72    401.22  " /><path style="stroke-width: 0.85 ;&st7;  " d=" M  1266.29,   299.24  L  1266.29,   324.73  " /><path style="stroke-width: 0.85 ;&st7;  " d=" M  1147.31,   324.73  L  1147.31,   409.72  " /><path style="stroke-width: 1.42 ;&st7;  " d=" M  1104.81,   299.24  L  1104.81,   435.21  L  1334.28,   435.21  L  1334.28,   299.24  L  1104.81,   299.24  " /><path style="stroke-width: 1.42 ;&st7;  " d=" M  1121.81,   324.73  L  1121.81,   409.72  L  1317.28,   409.72  L  1317.28,   324.73  L  1121.81,   324.73  " /><path style="stroke-width: 0.85 ;&st7;  " d=" M  1181.30,   324.73  L  1181.30,   409.72  " /><path style="stroke-width: 0.85 ;&st7;  " d=" M  1147.31,   341.73  L  1317.28,   341.73  " /><path style="stroke-width: 0.85 ;&st7;  " d=" M  1147.31,   358.73  L  1317.28,   358.73  " /><path style="stroke-width: 0.85 ;&st7;  " d=" M  1249.29,   324.73  L  1249.29,   409.72  " /><path style="stroke-width: 0.85 ;&st7;  " d=" M  1147.31,   392.72  L  1317.28,   392.72  " /><path style="stroke-width: 0.85 ;&st7;  " d=" M  1283.29,   324.73  L  1283.29,   409.72  " /><path style="stroke-width: 0.85 ;&st7;  " d=" M  1267.70,   367.22  L  1298.87,   367.22  " /><path style="stroke-width: 0.85 ;&st7;  " d=" M  1233.71,   401.22  L  1298.87,   401.22  " /><path style="stroke-width: 0.85 ;&st7;  " d=" M  1300.28,   409.72  L  1300.28,   435.21  " /><path style="stroke-width: 0.85 ;&st7;  " d=" M  1199.72,   384.22  L  1298.87,   384.22  " /><path style="stroke-width: 0.85 ;&st7;  " d=" M  1147.31,   375.72  L  1317.28,   375.72  " /><path style="stroke-width: 0.85 ;&st7;  " d=" M  1215.30,   324.73  L  1215.30,   409.72  " /><path style="stroke-width: 0.85 ;&st7;  " d=" M  1199.72,   401.22  L  1230.88,   401.22  " /><text style="font-size:6px;font-family:'NSimSun';" transform="matrix(&st16; 1158.09 352.20)" ewd:textID="12" ewd:horAlign="center">关闭</text><text style="font-size:6px;font-family:'NSimSun';" transform="matrix(&st16;  1229.8  335.2 )">H</text><text style="font-size:6px;font-family:'NSimSun';" transform="matrix(&st16;  1263.98  335.2 )">A</text><text style="font-size:6px;font-family:'NSimSun';" transform="matrix(&st16; 1157.75 386.19)" ewd:textID="14" ewd:horAlign="center">尾灯</text><text style="font-size:6px;font-family:'NSimSun';" transform="matrix(&st16; 1158.56 403.19)" ewd:textID="7" ewd:horAlign="center">大灯</text><text style="font-size:6px;font-family:'NSimSun';" transform="matrix(&st16;  1296.35  335.2 )">EL</text><text style="font-size:6px;font-family:'NSimSun';" transform="matrix(&st17; 1137.71 387.35)" ewd:textID="9">灯光控制开关<tspan x="0 " dy="6.0" /></text><text style="font-size:6px;font-family:'NSimSun';" transform="matrix(&st16;  1259.1  307.43 )">A</text><text style="font-size:6px;font-family:'NSimSun';" transform="matrix(&st16;  1289.83  431.52 )">EL</text><text style="font-size:6px;font-family:'NSimSun';" transform="matrix(&st16;  1196.11  335.2 )">T</text><g ewd:code="" ewd:figID="35" ewd:comment="1" ewd:figtype="commref"><text style="font-size:6px;font-family:'NSimSun';" transform="matrix(&st16;  1155.56  366.37 )">AUTO <tspan x="0 " dy="6.0">(*1)</tspan></text></g><path style="stroke-width: 0.85 ;&st7;  " d=" M  1232.29,   299.24  L  1232.29,   324.73  " /><text style="font-size:6px;font-family:'NSimSun';" transform="matrix(&st16;  1224.71  307.43 )">H</text><path style="stroke-width: 0.85 ;&st7;  " d=" M  1198.30,   299.24  L  1198.30,   324.73  " /><text style="font-size:6px;font-family:'NSimSun';" transform="matrix(&st16;  1191.34  307.43 )">T</text><text style="font-size:6px;font-family:'NSimSun';" transform="matrix(&st16;  1189.01  295.55 )">18</text><text style="font-size:6px;font-family:'NSimSun';" transform="matrix(&st16;  1223.01  295.55 )">19</text><text style="font-size:6px;font-family:'NSimSun';" transform="matrix(&st16;  1257.0  295.55 )">20</text><text style="font-size:6px;font-family:'NSimSun';" transform="matrix(&st16;  1291.0  443.41 )">15</text><g ewd:figtype="title"><text style="font-size:6px;font-family:'NSimSun';" transform="matrix(&st17;  1341.89  438.11 )">E15</text><text style="font-size:6px;font-family:'NSimSun';" transform="matrix(&st17;  1348.99  438.12 )" ewd:textID="8">大灯变光器开关总成<tspan x="0 " dy="6.0" /></text></g></g><g ewd:figtype="conn" ewd:figID="8" ewd:code="E71"><path style="stroke-width: 0.85 ;&st7;  " d=" M  1300.28,   554.19  L  1300.28,   571.19  " /><path style="stroke-width: 1.42 ;&st7;  " d=" M  1291.78,   554.19  L  1308.78,   554.19  L  1308.78,   571.19  L  1291.78,   571.19  L  1291.78,   554.19  " /><text style="font-size:6px;font-family:'NSimSun';" transform="matrix(&st16;  1291.0  579.38 )">12</text><text style="font-size:6px;font-family:'NSimSun';" transform="matrix(&st16;  1291.0  550.5 )">16</text><g ewd:figtype="title"><text style="font-size:6px;font-family:'NSimSun';" transform="matrix(&st17;  1316.68  574.09 )">E71</text><text style="font-size:6px;font-family:'NSimSun';" transform="matrix(&st17;  1323.5  574.1 )" ewd:textID="11">4 号接线连接器</text></g></g><g ewd:figtype="w2w" ewd:figID="19" ewd:code="EF1"><path style="stroke-width: 1.42 ;&st7;  " d=" M  1423.51,   265.81  L  1419.26,   261.56  L  1415.01,   265.81  " /><path style="stroke-width: 1.42 ;&st7;  " d=" M  1423.51,   262.41  L  1419.26,   258.16  L  1415.01,   262.41  " /><text style="font-size:6px;font-family:'NSimSun';" transform="matrix(&st16;  1406.63  254.46 )">9</text></g><g ewd:figtype="w2w" ewd:figID="20" ewd:code="EF1"><path style="stroke-width: 1.42 ;&st7;  " d=" M  1457.51,   265.81  L  1453.26,   261.56  L  1449.01,   265.81  " /><path style="stroke-width: 1.42 ;&st7;  " d=" M  1457.51,   262.41  L  1453.26,   258.16  L  1449.01,   262.41  " /><text style="font-size:6px;font-family:'NSimSun';" transform="matrix(&st16;  1440.63  254.46 )">8</text></g><g ewd:figtype="w2w" ewd:figID="21" ewd:code="EF1"><path style="stroke-width: 1.42 ;&st7;  " d=" M  1491.50,   265.81  L  1487.25,   261.56  L  1483.00,   265.81  " /><path style="stroke-width: 1.42 ;&st7;  " d=" M  1491.50,   262.41  L  1487.25,   258.16  L  1483.00,   262.41  " /><text style="font-size:6px;font-family:'NSimSun';" transform="matrix(&st16;  1474.62  254.46 )">7</text></g><g ewd:figtype="gp" ewd:figID="24" ewd:code="ED"><path style="stroke-width: 0.85 ;&st7;  " d=" M  1298.87,   710.00  L  1301.70,   710.00  " /><path style="stroke-width: 0.85 ;&st7;  " d=" M  1297.45,   707.17  L  1303.12,   707.17  " /><path style="stroke-width: 0.85 ;&st7;  " d=" M  1296.03,   704.33  L  1304.53,   704.33  " /><path style="stroke-width: 0.85 ;&st7;  " d=" M  1291.78,   701.50  L  1308.78,   701.50  " /><path style="stroke-width: 0.85 ;&st7;  " d=" M  1300.28,   697.25  L  1300.28,   701.50  " /></g><g ewd:code="1" ewd:figID="34" ewd:comment="" ewd:figtype="comment"><text style="font-size:6px;font-family:'NSimSun';" transform="matrix(&st16;  1075.91  581.66 )" ewd:textID="1">* 1 : 带自动灯光控制</text></g></svg>