<?xml version="1.0" encoding="utf-8"?>
<!DOCTYPE svg PUBLIC "-//W3C//DTD SVG 1.0//EN" "http://www.w3.org/TR/2001/REC-SVG-20010904/DTD/svg10.dtd"[
	<!ENTITY ns_flows "http://ns.adobe.com/Flows/1.0/">
	<!ENTITY ns_svg "http://www.w3.org/2000/svg">
	<!ENTITY ns_xlink "http://www.w3.org/1999/xlink">
	<!ENTITY st0 "font-size:7px;font-family:'NSimSun';adobe-font-script:japanese;">
	<!ENTITY st1 "font-size:6px;font-family:'NSimSun';">
	<!-- White fill  -->
	<!ENTITY st2 "fill:#FFFFFF;stroke:#000000; stroke-width:1.41;stroke-linecap:round;stroke-linejoin:round;">
	<!-- Yellow fill  -->
	<!ENTITY st3 "fill:#FFFFCC;stroke:#FFFFCC; stroke-width:0.1;stroke-linecap:round;stroke-linejoin:round;">
	<!-- Gray fill  -->
	<!ENTITY st4 "fill:#CCCCCC;stroke:#CCCCCC; stroke-width:0.1;stroke-linecap:round;stroke-linejoin:round;">
	<!-- Light-blue fill -->
	<!ENTITY st5 "fill:#CCECF4;stroke:#000000; stroke-width:1.133;stroke-linecap:round;stroke-linejoin:round;">
	<!ENTITY st6 "fill:none;stroke-linecap:butt; stroke-linejoin:round;">
	<!ENTITY st7 "fill:none;stroke:#000000;stroke-linecap:round;stroke-linejoin:round;">
	<!ENTITY st8 "enable-background:new    ;">
	<!-- Black fill -->
	<!ENTITY st9 "fill:#000000;stroke:#000000; stroke-linecap:round;stroke-linejoin:round;">
	<!-- SRS note   -->
	<!ENTITY st10 "font-size:9px;font-family:'NSimSun';">
	<!ENTITY st11 "font-size:9px;font-family:'NSimSun';">
	<!ENTITY st12 "font-size:6px;font-family:'NSimSun';">
	<!ENTITY st13 "fill:none;stroke:#ff0000;stroke-linecap:round;stroke-linejoin:round;">
	<!-- Yellow fill  -->
	<!ENTITY st14 "fill:#FFFF00;stroke:#FFFF00; stroke-width:0.1;stroke-linecap:round;stroke-linejoin:round;">
	<!ENTITY st15 "font-size:6px;font-family:'NSimSun';adobe-font-script:japanese;">
	<!ENTITY st16 "1.00 0.00 0.00 1.00">
	<!ENTITY st17 "0.00 -1.00 1.00 0.00">
	<!ENTITY st18 "font-size:6px;font-family:'NSimSun';">
	<!ENTITY st19 "font-size:9px;font-family:'NSimSun';">
	<!ENTITY st20 "font-size:6px;font-family:'NSimSun';adobe-font-script:japanese;">
	<!ENTITY st21 "font-size:7px;font-family:'NSimSun';adobe-font-script:japanese;">
	<!ATTLIST svg
		xmlns:ewd CDATA #FIXED "http://shcl.co.jp/ewd"
		xmlns:a CDATA #FIXED "http://ns.adobe.com/AdobeSVGViewerExtensions/3.0/"
		ewd:ver CDATA #IMPLIED
	>
	<!ATTLIST a
		ewd:lineID CDATA #IMPLIED
		ewd:groupID CDATA #IMPLIED
		ewd:figtype CDATA #IMPLIED
		ewd:code CDATA #IMPLIED
		ewd:figID CDATA #IMPLIED
		ewd:pinNo CDATA #IMPLIED
		ewd:comment CDATA #IMPLIED >
	<!ATTLIST g
		ewd:lineID CDATA #IMPLIED
		ewd:groupID CDATA #IMPLIED
		ewd:figtype CDATA #IMPLIED
		ewd:code CDATA #IMPLIED
		ewd:figID CDATA #IMPLIED
		ewd:pinNo CDATA #IMPLIED
		ewd:comment CDATA #IMPLIED >
	<!ATTLIST text
		ewd:textID CDATA #IMPLIED
		ewd:horAlign CDATA #IMPLIED >
	<!ATTLIST title
		ewd:textID CDATA #IMPLIED >
]>
<!-- Generator: Shintec Hozumi YS   -->
<svg onload="call_execInitLoadProc_svg('system')" style="overflow:visible;  enable-background:new 0 0 1524.618 710.000" viewBox="0 0 1528.741 710.000" height="710.000" width="1528.741" xml:space="preserve" ewd:ver="2.1.2.6F" xmlns="&ns_svg;" xmlns:ewd="http://shcl.co.jp/ewd" xmlns:a="http://ns.adobe.com/AdobeSVGViewerExtensions/3.0/" xmlns:xlink="&ns_xlink;">
<text style="font-size:6px;font-family:'NSimSun';" transform="matrix(&st16;  602.05  287.04 )">R-B</text><text style="font-size:6px;font-family:'NSimSun';" transform="matrix(&st17;  880.16  198.94 )">B</text><text style="font-size:6px;font-family:'NSimSun';" transform="matrix(&st16;  660.7  440.01 )">B</text><text style="font-size:6px;font-family:'NSimSun';" transform="matrix(&st17;  574.21  202.35 )">R-B</text><text style="font-size:6px;font-family:'NSimSun';" transform="matrix(&st16;  744.47  32.08 )" ewd:textID="10">主车身 ECU</text><text style="font-size:6px;font-family:'NSimSun';" transform="matrix(&st16;  744.46  24.98 )">E36(A)</text><text style="font-size:6px;font-family:'NSimSun';" transform="matrix(&st17;  735.68  199.72 )">W</text><text style="font-size:6px;font-family:'NSimSun';" transform="matrix(&st17;  967.98  295.45 )">(*2)</text><text style="font-size:6px;font-family:'NSimSun';" transform="matrix(&st17;  956.64  293.2 )">W</text><text style="font-size:6px;font-family:'NSimSun';" transform="matrix(&st17;  967.98  201.97 )">(*2)</text><text style="font-size:6px;font-family:'NSimSun';" transform="matrix(&st17;  956.64  199.72 )">W</text><path style="stroke-width: 1.42 ;&st7;  " d=" M   956.81,   239.75  L   951.84,   244.72  " /><path style="stroke-width: 1.42 ;&st7;  " d=" M   963.87,   256.74  L   968.84,   251.77  " /><path style="stroke-width: 1.42 ;&st7;  " d=" M   951.84,   251.77  L   956.81,   256.74  " /><path style="stroke-width: 1.42 ;&st7;  " d=" M   968.84,   244.72  L   963.87,   239.75  " /><text style="font-size:6px;font-family:'NSimSun';" transform="matrix(&st17;  922.65  199.72 )">W</text><text style="font-size:6px;font-family:'NSimSun';" transform="matrix(&st17;  933.98  201.97 )">(*3)</text><g ewd:figtype="conn" ewd:figID="1" ewd:code="E36"><g ewd:lineID="24"><text style="font-size:6px;font-family:'NSimSun';" transform="matrix(&st16;  816.55  83.07 )">TRLY</text></g><g ewd:lineID="27"><text style="font-size:6px;font-family:'NSimSun';" transform="matrix(&st16;  875.73  83.07 )">HRLY</text><text style="font-size:6px;font-family:'NSimSun';" transform="matrix(&st16;  918.3  83.07 )">FLCY</text></g></g><g ewd:figtype="rb" ewd:figID="2" ewd:code="1"><path style="stroke-width: 1.42 ;&st7;  " d=" M   597.03,   316.23  L   592.78,   316.23  " /><path style="stroke-width: 1.42 ;&st7;  " d=" M   597.03,   324.73  L   592.78,   324.73  " /><path style="stroke-width: 1.42 ;&st7;  " d=" M   622.52,   316.23  L   618.27,   316.23  " /><path style="stroke-width: 1.42 ;&st7;  " d=" M   622.52,   324.73  L   618.27,   324.73  " /><path style="stroke-width: 1.42 ;&st7;  " d=" M   622.52,   409.72  L   618.27,   409.72  " /><path style="stroke-width: 1.42 ;&st7;  " d=" M   622.52,   418.22  L   618.27,   418.22  " /><path style="stroke-width: 1.42 ;&st7;   " d=" M   592.78,   316.23  C   590.43    316.23    588.53    318.13    588.53    320.48  " /><path style="stroke-width: 1.42 ;&st7;   " d=" M   588.53,   320.48  C   588.53    322.83    590.43    324.73    592.78    324.73  " /><path style="stroke-width: 1.42 ;&st7;   " d=" M   597.03,   324.73  C   599.37    324.73    601.27    322.83    601.27    320.48  " /><path style="stroke-width: 1.42 ;&st7;   " d=" M   601.27,   320.48  C   601.27    318.13    599.37    316.23    597.03    316.23  " /><path style="stroke-width: 1.42 ;&st7;   " d=" M   618.27,   316.23  C   615.92    316.23    614.02    318.13    614.02    320.48  " /><path style="stroke-width: 1.42 ;&st7;   " d=" M   614.02,   320.48  C   614.02    322.83    615.92    324.73    618.27    324.73  " /><path style="stroke-width: 1.42 ;&st7;   " d=" M   622.52,   324.73  C   624.87    324.73    626.77    322.83    626.77    320.48  " /><path style="stroke-width: 1.42 ;&st7;   " d=" M   626.77,   320.48  C   626.77    318.13    624.87    316.23    622.52    316.23  " /><path style="stroke-width: 1.42 ;&st7;   " d=" M   594.90,   409.72  C   596.89    411.61    599.99    411.61    601.98    409.72  " /><path style="stroke-width: 1.42 ;&st7;   " d=" M   618.27,   409.72  C   615.92    409.72    614.02    411.62    614.02    413.97  " /><path style="stroke-width: 1.42 ;&st7;   " d=" M   614.02,   413.97  C   614.02    416.31    615.92    418.22    618.27    418.22  " /><path style="stroke-width: 1.42 ;&st7;   " d=" M   622.52,   418.22  C   624.87    418.22    626.77    416.31    626.77    413.97  " /><path style="stroke-width: 1.42 ;&st7;   " d=" M   626.77,   413.97  C   626.77    411.62    624.87    409.72    622.52    409.72  " /><path style="stroke-width: 0.28 ;&st9;  " d=" M   594.90,   329.63  L   597.73,   332.46  L   597.73,   328.21  L   594.90,   325.38  L   592.07,   328.21  L   592.07,   332.46  L   594.90,   329.63  " /><path style="stroke-width: 0.28 ;&st9;  " d=" M   620.40,   329.63  L   623.23,   332.46  L   623.23,   328.21  L   620.40,   325.38  L   617.56,   328.21  L   617.56,   332.46  L   620.40,   329.63  " /><path style="stroke-width: 1.42 ;&st7;   " d=" M   594.90,   409.72  C   592.91    407.82    589.81    407.82    587.82    409.72  " /><path style="stroke-width: 0.28 ;&st9;  " d=" M   620.40,   404.82  L   617.56,   401.99  L   617.56,   406.24  L   620.40,   409.07  L   623.23,   406.24  L   623.23,   401.99  L   620.40,   404.82  " /><path style="stroke-width: 0.85 ;&st7;  " d=" M   594.90,   324.73  L   594.90,   350.23  " /><path style="stroke-width: 0.85 ;&st7;  " d=" M   620.40,   324.73  L   620.40,   350.23  " /><path style="stroke-width: 0.85 ;&st7;  " d=" M   620.40,   384.22  L   620.40,   409.72  " /><path style="stroke-width: 0.85 ;&st7;  " d=" M   594.90,   384.22  L   594.90,   409.72  " /><text style="font-size:6px;font-family:'NSimSun';" transform="matrix(&st16;  631.16  366.37 )" ewd:textID="6">H-LP<tspan x="0 " dy="6.0">继电器</tspan></text><text style="font-size:6px;font-family:'NSimSun';" transform="matrix(&st16;  588.72  392.41 )">3</text><text style="font-size:6px;font-family:'NSimSun';" transform="matrix(&st16;  614.21  392.41 )">2</text><text style="font-size:6px;font-family:'NSimSun';" transform="matrix(&st16;  588.72  346.54 )">5</text><text style="font-size:6px;font-family:'NSimSun';" transform="matrix(&st16;  614.21  346.54 )">1</text><text style="font-size:6px;font-family:'NSimSun';" transform="matrix(&st16;  593.1  322.45 )">1</text><text style="font-size:6px;font-family:'NSimSun';" transform="matrix(&st16;  618.6  322.45 )">1</text><text style="font-size:6px;font-family:'NSimSun';" transform="matrix(&st16;  618.6  415.94 )">1</text><path style="stroke-width: 1.42 ;&st7;  " d=" M   594.90,   377.14  L   589.23,   354.48  " /><path style="stroke-width: 0.85 ;&st7;  " d=" M   594.90,   384.22  L   594.90,   379.97  " /><path style="stroke-width: 0.85 ;&st7;  " d=" M   594.90,   354.48  L   594.90,   350.23  " /><path style="stroke-width: 0.85 ;&st7;  " d=" M   620.40,   350.23  L   620.40,   358.73  " /><path style="stroke-width: 0.85 ;&st7;  " d=" M   620.40,   375.72  L   620.40,   384.22  " /><path style="stroke-width: 0.85 ;&st7;   " d=" M   596.32,   378.56  C   596.32    377.77    595.68    377.14    594.90    377.14  " /><path style="stroke-width: 0.85 ;&st7;   " d=" M   594.90,   377.14  C   594.12    377.14    593.48    377.77    593.48    378.56  " /><path style="stroke-width: 0.85 ;&st7;   " d=" M   593.48,   378.56  C   593.48    379.34    594.12    379.97    594.90    379.97  " /><path style="stroke-width: 0.85 ;&st7;   " d=" M   594.90,   379.97  C   595.68    379.97    596.32    379.34    596.32    378.56  " /><path style="stroke-width: 0.85 ;&st7;   " d=" M   596.32,   355.89  C   596.32    355.11    595.68    354.48    594.90    354.48  " /><path style="stroke-width: 0.85 ;&st7;   " d=" M   594.90,   354.48  C   594.12    354.48    593.48    355.11    593.48    355.89  " /><path style="stroke-width: 0.85 ;&st7;   " d=" M   593.48,   355.89  C   593.48    356.67    594.12    357.31    594.90    357.31  " /><path style="stroke-width: 0.85 ;&st7;   " d=" M   594.90,   357.31  C   595.68    357.31    596.32    356.67    596.32    355.89  " /><path style="stroke-width: 0.85 ;&st7;   " d=" M   617.87,   364.75  C   619.24    366.14    621.48    366.17    622.88    364.80  " /><path style="stroke-width: 0.85 ;&st7;   " d=" M   622.88,   364.80  C   624.27    363.43    624.30    361.18    622.93    359.79  " /><path style="stroke-width: 0.85 ;&st7;   " d=" M   622.93,   359.79  C   622.23    359.08    621.39    358.72    620.40    358.72  " /><path style="stroke-width: 0.85 ;&st7;   " d=" M   617.87,   369.70  C   619.24    371.10    621.48    371.12    622.88    369.75  " /><path style="stroke-width: 0.85 ;&st7;   " d=" M   622.88,   369.75  C   624.27    368.38    624.30    366.14    622.93    364.75  " /><path style="stroke-width: 0.85 ;&st7;   " d=" M   622.93,   364.75  C   621.56    363.35    619.31    363.33    617.92    364.69  " /><path style="stroke-width: 0.85 ;&st7;   " d=" M   617.92,   364.69  C   617.90    364.71    617.88    364.73    617.87    364.75  " /><path style="stroke-width: 0.85 ;&st7;   " d=" M   620.40,   375.72  C   622.35    375.72    623.94    374.14    623.94    372.18  " /><path style="stroke-width: 0.85 ;&st7;   " d=" M   623.94,   372.18  C   623.94    370.23    622.35    368.64    620.40    368.64  " /><path style="stroke-width: 0.85 ;&st7;   " d=" M   620.40,   368.64  C   619.41    368.64    618.56    369.00    617.87    369.70  " /><path style="stroke-width: 1.42 ;&st7;  " d=" M   628.89,   350.23  L   586.40,   350.23  L   586.40,   384.22  L   628.89,   384.22  L   628.89,   350.23  " /></g><g ewd:figtype="rb" ewd:figID="3" ewd:code="FUSE29"><path style="stroke-width: 0.85 ;&st7;  " d=" M   577.90,   146.26  L   577.90,   171.76  " /><path style="stroke-width: 1.42 ;&st7;  " d=" M   580.03,   180.26  L   575.78,   180.26  " /><path style="stroke-width: 1.42 ;&st7;  " d=" M   580.03,   171.76  L   575.78,   171.76  " /><path style="stroke-width: 1.42 ;&st7;   " d=" M   584.28,   176.01  C   584.28    173.66    582.37    171.76    580.03    171.76  " /><path style="stroke-width: 1.42 ;&st7;   " d=" M   580.03,   180.26  C   582.37    180.26    584.28    178.35    584.28    176.01  " /><path style="stroke-width: 1.42 ;&st7;   " d=" M   571.53,   176.01  C   571.53    178.35    573.43    180.26    575.78    180.26  " /><path style="stroke-width: 1.42 ;&st7;   " d=" M   575.78,   171.76  C   573.43    171.76    571.53    173.66    571.53    176.01  " /><path style="stroke-width: 0.28 ;&st9;  " d=" M   577.90,   166.86  L   575.07,   164.03  L   575.07,   168.28  L   577.90,   171.11  L   580.74,   168.28  L   580.74,   164.03  L   577.90,   166.86  " /><text style="font-size:6px;font-family:'NSimSun';" transform="matrix(&st16;  569.86  108.57 )">(BAT)</text><text style="font-size:6px;font-family:'NSimSun';" transform="matrix(&st16;  571.72  162.95 )">2</text><text style="font-size:6px;font-family:'NSimSun';" transform="matrix(&st16;  576.1  177.98 )">1</text><text style="font-size:6px;font-family:'NSimSun';" transform="matrix(&st16;  594.33  132.66 )">40A <tspan x="0 " dy="6.0">H-LP-MAIN</tspan></text><path style="stroke-width: 0.85 ;&st7;   " d=" M   579.32,   144.84  C   579.32    144.06    578.69    143.43    577.90    143.43  " /><path style="stroke-width: 0.85 ;&st7;   " d=" M   577.90,   143.43  C   577.12    143.43    576.49    144.06    576.49    144.84  " /><path style="stroke-width: 0.85 ;&st7;   " d=" M   576.49,   144.84  C   576.49    145.63    577.12    146.26    577.90    146.26  " /><path style="stroke-width: 0.85 ;&st7;   " d=" M   577.90,   146.26  C   578.69    146.26    579.32    145.63    579.32    144.84  " /><path style="stroke-width: 0.85 ;&st7;   " d=" M   579.32,   122.18  C   579.32    121.40    578.69    120.77    577.90    120.77  " /><path style="stroke-width: 0.85 ;&st7;   " d=" M   577.90,   120.77  C   577.12    120.77    576.49    121.40    576.49    122.18  " /><path style="stroke-width: 0.85 ;&st7;   " d=" M   576.49,   122.18  C   576.49    122.96    577.12    123.60    577.90    123.60  " /><path style="stroke-width: 0.85 ;&st7;   " d=" M   577.90,   123.60  C   578.69    123.60    579.32    122.96    579.32    122.18  " /><path style="stroke-width: 1.42 ;&st7;   " d=" M   577.90,   143.43  C   580.64    141.81    581.55    138.29    579.94    135.55  " /><path style="stroke-width: 1.42 ;&st7;   " d=" M   579.94,   135.55  C   579.42    134.67    578.79    134.03    577.90    133.51  " /><path style="stroke-width: 1.42 ;&st7;   " d=" M   577.90,   123.60  C   575.17    125.21    574.25    128.74    575.87    131.48  " /><path style="stroke-width: 1.42 ;&st7;   " d=" M   575.87,   131.48  C   576.39    132.36    577.02    132.99    577.90    133.51  " /><path style="stroke-width: 1.42 ;&st7;  " d=" M   565.16,   112.27  L   565.16,   154.76  L   590.65,   154.76  L   590.65,   112.27  L   565.16,   112.27  " /></g><g ewd:figtype="rb" ewd:figID="4" ewd:code="FUSE36"><path style="stroke-width: 1.42 ;&st7;  " d=" M   741.50,   171.76  L   737.25,   171.76  " /><path style="stroke-width: 0.85 ;&st7;  " d=" M   739.38,   154.76  L   739.38,   171.76  " /><path style="stroke-width: 0.28 ;&st9;  " d=" M   739.38,   166.86  L   736.54,   164.03  L   736.54,   168.28  L   739.38,   171.11  L   742.21,   168.28  L   742.21,   164.03  L   739.38,   166.86  " /><text style="font-size:6px;font-family:'NSimSun';" transform="matrix(&st16;  755.8  132.66 )">120A <tspan x="0 " dy="6.0">ALT</tspan></text><text style="font-size:6px;font-family:'NSimSun';" transform="matrix(&st16;  733.19  162.95 )">2</text><text style="font-size:6px;font-family:'NSimSun';" transform="matrix(&st16;  731.33  108.57 )">(BAT)</text><path style="stroke-width: 0.85 ;&st7;  " d=" M   739.38,   146.26  L   739.38,   154.76  " /><path style="stroke-width: 1.42 ;&st7;   " d=" M   739.38,   123.60  C   736.64    125.21    735.73    128.74    737.34    131.48  " /><path style="stroke-width: 1.42 ;&st7;   " d=" M   737.34,   131.48  C   737.86    132.36    738.49    132.99    739.38    133.51  " /><path style="stroke-width: 1.42 ;&st7;   " d=" M   739.38,   143.43  C   742.11    141.81    743.03    138.29    741.41    135.55  " /><path style="stroke-width: 1.42 ;&st7;   " d=" M   741.41,   135.55  C   740.89    134.67    740.26    134.03    739.38    133.51  " /><path style="stroke-width: 0.85 ;&st7;   " d=" M   740.79,   122.18  C   740.79    121.40    740.16    120.77    739.38    120.77  " /><path style="stroke-width: 0.85 ;&st7;   " d=" M   739.38,   120.77  C   738.59    120.77    737.96    121.40    737.96    122.18  " /><path style="stroke-width: 0.85 ;&st7;   " d=" M   737.96,   122.18  C   737.96    122.96    738.59    123.60    739.38    123.60  " /><path style="stroke-width: 0.85 ;&st7;   " d=" M   739.38,   123.60  C   740.16    123.60    740.79    122.96    740.79    122.18  " /><path style="stroke-width: 0.85 ;&st7;   " d=" M   740.79,   144.84  C   740.79    144.06    740.16    143.43    739.38    143.43  " /><path style="stroke-width: 0.85 ;&st7;   " d=" M   739.38,   143.43  C   738.59    143.43    737.96    144.06    737.96    144.84  " /><path style="stroke-width: 0.85 ;&st7;   " d=" M   737.96,   144.84  C   737.96    145.63    738.59    146.26    739.38    146.26  " /><path style="stroke-width: 0.85 ;&st7;   " d=" M   739.38,   146.26  C   740.16    146.26    740.79    145.63    740.79    144.84  " /><path style="stroke-width: 1.42 ;&st7;  " d=" M   726.63,   112.27  L   726.63,   154.76  L   752.12,   154.76  L   752.12,   112.27  L   726.63,   112.27  " /></g><g ewd:figtype="conn" ewd:figID="9" ewd:code="L1"><path style="stroke-width: 0.85 ;&st7;  " d=" M   926.35,   362.97  L   926.35,   358.73  " /><path style="stroke-width: 0.85 ;&st7;  " d=" M   926.35,   392.72  L   926.35,   388.47  " /><path style="stroke-width: 1.42 ;&st7;  " d=" M   926.35,   385.64  L   932.01,   362.97  " /><path style="stroke-width: 0.85 ;&st7;   " d=" M   927.76,   364.39  C   927.76    363.61    927.13    362.97    926.35    362.97  " /><path style="stroke-width: 0.85 ;&st7;   " d=" M   926.35,   362.97  C   925.56    362.97    924.93    363.61    924.93    364.39  " /><path style="stroke-width: 0.85 ;&st7;   " d=" M   924.93,   364.39  C   924.93    365.17    925.56    365.81    926.35    365.81  " /><path style="stroke-width: 0.85 ;&st7;   " d=" M   926.35,   365.81  C   927.13    365.81    927.76    365.17    927.76    364.39  " /><path style="stroke-width: 0.85 ;&st7;   " d=" M   927.76,   387.05  C   927.76    386.27    927.13    385.64    926.35    385.64  " /><path style="stroke-width: 0.85 ;&st7;   " d=" M   926.35,   385.64  C   925.56    385.64    924.93    386.27    924.93    387.05  " /><path style="stroke-width: 0.85 ;&st7;   " d=" M   924.93,   387.05  C   924.93    387.84    925.56    388.47    926.35    388.47  " /><path style="stroke-width: 0.85 ;&st7;   " d=" M   926.35,   388.47  C   927.13    388.47    927.76    387.84    927.76    387.05  " /><path style="stroke-width: 1.42 ;&st7;  " d=" M   934.84,   392.72  L   934.84,   358.73  L   917.85,   358.73  L   917.85,   392.72  L   934.84,   392.72  " /><text style="font-size:6px;font-family:'NSimSun';" transform="matrix(&st16;  920.16  355.04 )">1</text><g ewd:figtype="title"><text style="font-size:6px;font-family:'NSimSun';" transform="matrix(&st17;  942.46  395.62 )">L1</text><text style="font-size:6px;font-family:'NSimSun';" transform="matrix(&st17;  949.56  395.63 )" ewd:textID="5">左前车门门控灯<tspan x="0 " dy="6.0">开关总成</tspan><tspan x="0 " dy="6.0" /><tspan x="0 " dy="6.0" /><tspan x="0" dy="6" style="font-size:6px;font-family:'NSimSun';" /></text></g></g><g ewd:figtype="jb" ewd:figID="14" ewd:code="1"><path style="stroke-width: 1.42 ;&st7;  " d=" M   741.50,   171.76  L   737.25,   171.76  " /><path style="stroke-width: 1.42 ;&st7;  " d=" M   741.50,   180.26  L   737.25,   180.26  " /><path style="stroke-width: 1.42 ;&st7;   " d=" M   737.25,   171.76  C   734.91    171.76    733.00    173.66    733.00    176.01  " /><path style="stroke-width: 1.42 ;&st7;   " d=" M   733.00,   176.01  C   733.00    178.35    734.91    180.26    737.25    180.26  " /><path style="stroke-width: 1.42 ;&st7;   " d=" M   741.50,   180.26  C   743.85    180.26    745.75    178.35    745.75    176.01  " /><path style="stroke-width: 1.42 ;&st7;   " d=" M   745.75,   176.01  C   745.75    173.66    743.85    171.76    741.50    171.76  " /><text style="font-size:6px;font-family:'NSimSun';" transform="matrix(&st16;  735.71  177.98 )">1E</text><text style="font-size:6px;font-family:'NSimSun';" transform="matrix(&st16;  728.87  177.98 )">1</text></g><g ewd:figtype="jb" ewd:figID="17" ewd:code="3"><path style="stroke-width: 1.42 ;&st7;   " d=" M   713.88,   401.22  C   715.87    403.11    718.97    403.11    720.96    401.22  " /><path style="stroke-width: 1.42 ;&st7;   " d=" M   713.88,   401.22  C   711.89    399.32    708.79    399.32    706.80    401.22  " /><path style="stroke-width: 1.42 ;&st7;  " d=" M   713.88,   377.14  L   708.22,   354.48  " /><path style="stroke-width: 0.85 ;&st7;  " d=" M   713.88,   384.22  L   713.88,   379.97  " /><path style="stroke-width: 0.85 ;&st7;  " d=" M   713.88,   354.48  L   713.88,   350.23  " /><path style="stroke-width: 0.85 ;&st7;  " d=" M   739.38,   350.23  L   739.38,   358.73  " /><path style="stroke-width: 0.85 ;&st7;  " d=" M   739.38,   375.72  L   739.38,   384.22  " /><path style="stroke-width: 1.42 ;&st7;  " d=" M   741.50,   316.23  L   737.25,   316.23  " /><path style="stroke-width: 1.42 ;&st7;  " d=" M   741.50,   307.73  L   737.25,   307.73  " /><path style="stroke-width: 0.85 ;&st7;   " d=" M   715.30,   378.56  C   715.30    377.77    714.66    377.14    713.88    377.14  " /><path style="stroke-width: 0.85 ;&st7;   " d=" M   713.88,   377.14  C   713.10    377.14    712.46    377.77    712.46    378.56  " /><path style="stroke-width: 0.85 ;&st7;   " d=" M   712.46,   378.56  C   712.46    379.34    713.10    379.97    713.88    379.97  " /><path style="stroke-width: 0.85 ;&st7;   " d=" M   713.88,   379.97  C   714.66    379.97    715.30    379.34    715.30    378.56  " /><path style="stroke-width: 0.85 ;&st7;   " d=" M   715.30,   355.89  C   715.30    355.11    714.66    354.48    713.88    354.48  " /><path style="stroke-width: 0.85 ;&st7;   " d=" M   713.88,   354.48  C   713.10    354.48    712.46    355.11    712.46    355.89  " /><path style="stroke-width: 0.85 ;&st7;   " d=" M   712.46,   355.89  C   712.46    356.67    713.10    357.31    713.88    357.31  " /><path style="stroke-width: 0.85 ;&st7;   " d=" M   713.88,   357.31  C   714.66    357.31    715.30    356.67    715.30    355.89  " /><path style="stroke-width: 0.85 ;&st7;   " d=" M   736.85,   364.75  C   738.22    366.14    740.46    366.17    741.86    364.80  " /><path style="stroke-width: 0.85 ;&st7;   " d=" M   741.86,   364.80  C   743.25    363.43    743.28    361.18    741.91    359.79  " /><path style="stroke-width: 0.85 ;&st7;   " d=" M   741.91,   359.79  C   741.21    359.08    740.37    358.72    739.38    358.72  " /><path style="stroke-width: 0.85 ;&st7;   " d=" M   736.85,   369.70  C   738.22    371.10    740.46    371.12    741.86    369.75  " /><path style="stroke-width: 0.85 ;&st7;   " d=" M   741.86,   369.75  C   743.25    368.38    743.28    366.14    741.91    364.75  " /><path style="stroke-width: 0.85 ;&st7;   " d=" M   741.91,   364.75  C   740.54    363.35    738.29    363.33    736.90    364.69  " /><path style="stroke-width: 0.85 ;&st7;   " d=" M   736.90,   364.69  C   736.88    364.71    736.86    364.73    736.85    364.75  " /><path style="stroke-width: 0.85 ;&st7;   " d=" M   739.38,   375.72  C   741.33    375.72    742.92    374.14    742.92    372.18  " /><path style="stroke-width: 0.85 ;&st7;   " d=" M   742.92,   372.18  C   742.92    370.23    741.33    368.64    739.38    368.64  " /><path style="stroke-width: 0.85 ;&st7;   " d=" M   739.38,   368.64  C   738.39    368.64    737.54    369.00    736.85    369.70  " /><path style="stroke-width: 1.42 ;&st7;   " d=" M   737.25,   307.73  C   734.91    307.73    733.00    309.64    733.00    311.98  " /><path style="stroke-width: 1.42 ;&st7;   " d=" M   733.00,   311.98  C   733.00    314.33    734.91    316.23    737.25    316.23  " /><path style="stroke-width: 1.42 ;&st7;   " d=" M   741.50,   316.23  C   743.85    316.23    745.75    314.33    745.75    311.98  " /><path style="stroke-width: 1.42 ;&st7;   " d=" M   745.75,   311.98  C   745.75    309.64    743.85    307.73    741.50    307.73  " /><path style="stroke-width: 1.13 ;&st7; stroke-dasharray:3, 3;" d=" M   747.87,   350.23  L   705.38,   350.23  L   705.38,   384.22  L   747.87,   384.22  L   747.87,   350.23  " /><path style="stroke-width: 0.85 ;&st7;  " d=" M   739.38,   384.22  L   739.38,   401.22  L   824.36,   401.22  L   824.36,    86.77  " /><path style="stroke-width: 0.85 ;&st7;  " d=" M   739.38,   316.23  L   739.38,   350.23  " /><path style="stroke-width: 0.85 ;&st7;  " d=" M   713.88,   350.23  L   713.88,   333.23  L   739.38,   333.23  " /><path style="stroke-width: 0.85 ;&st7;  " d=" M   739.38,   333.23  L   764.87,   333.23  L   764.87,   358.73  L   767.70,   360.14  L   762.04,   362.97  L   767.70,   365.81  L   762.04,   368.64  L   767.70,   371.47  L   762.04,   374.31  L   764.87,   375.72  L   764.87,   401.22  " /><path style="stroke-width: 0.85 ;&st7;  " d=" M   738.18,   332.23  L   737.91,   332.70  L   737.82,   333.23  L   737.91,   333.76  L   738.18,   334.23  L   738.60,   334.58  L   739.10,   334.77  L   739.65,   334.77  L   740.16,   334.58  L   740.57,   334.23  L   740.84,   333.76  L   740.93,   333.23  L   740.84,   332.70  L   740.57,   332.23  L   740.16,   331.88  L   739.65,   331.69  L   739.10,   331.69  L   738.60,   331.88  L   738.18,   332.23  L   738.58,   332.94  L   738.58,   333.52  L   738.95,   333.97  L   739.52,   334.07  L   740.03,   333.78  L   740.23,   333.23  L   740.03,   332.68  L   739.52,   332.39  L   738.95,   332.49  L   739.38,   333.23  " /><path style="stroke-width: 0.85 ;&st7;  " d=" M   763.68,   400.22  L   763.41,   400.69  L   763.31,   401.22  L   763.41,   401.75  L   763.68,   402.22  L   764.09,   402.57  L   764.60,   402.75  L   765.14,   402.75  L   765.65,   402.57  L   766.06,   402.22  L   766.34,   401.75  L   766.43,   401.22  L   766.34,   400.69  L   766.06,   400.22  L   765.65,   399.87  L   765.14,   399.68  L   764.60,   399.68  L   764.09,   399.87  L   763.68,   400.22  L   764.07,   400.93  L   764.07,   401.51  L   764.45,   401.95  L   765.02,   402.05  L   765.52,   401.77  L   765.72,   401.22  L   765.52,   400.67  L   765.02,   400.38  L   764.45,   400.48  L   764.87,   401.22  " /><path style="stroke-width: 0.85 ;&st7;  " d=" M   713.88,   384.22  L   713.88,   401.22  " /><path style="stroke-width: 0.28 ;&st9;  " d=" M   739.38,   321.13  L   742.21,   323.96  L   742.21,   319.71  L   739.38,   316.88  L   736.54,   319.71  L   736.54,   323.96  L   739.38,   321.13  " /><text style="font-size:6px;font-family:'NSimSun';" transform="matrix(&st16;  815.08  94.96 )">14</text><text style="font-size:6px;font-family:'NSimSun';" transform="matrix(&st16; 684.74 366.37)" ewd:textID="13">TAIL<tspan x="0 " dy="6.0">继电器</tspan></text><text style="font-size:6px;font-family:'NSimSun';" transform="matrix(&st16;  735.64  313.95 )">3B</text><text style="font-size:6px;font-family:'NSimSun';" transform="matrix(&st16;  728.87  313.95 )">1</text></g><g ewd:figtype="jb" ewd:figID="18" ewd:code="3"><path style="stroke-width: 1.42 ;&st7;  " d=" M   885.98,   120.77  L   881.73,   120.77  " /><path style="stroke-width: 1.42 ;&st7;  " d=" M   885.98,   129.26  L   881.73,   129.26  " /><path style="stroke-width: 1.42 ;&st7;   " d=" M   881.73,   120.77  C   879.38    120.77    877.48    122.67    877.48    125.01  " /><path style="stroke-width: 1.42 ;&st7;   " d=" M   877.48,   125.01  C   877.48    127.36    879.38    129.26    881.73    129.26  " /><path style="stroke-width: 1.42 ;&st7;   " d=" M   885.98,   129.26  C   888.32    129.26    890.23    127.36    890.23    125.01  " /><path style="stroke-width: 1.42 ;&st7;   " d=" M   890.23,   125.01  C   890.23    122.67    888.32    120.77    885.98    120.77  " /><path style="stroke-width: 0.28 ;&st9;  " d=" M   883.85,   115.87  L   881.02,   113.04  L   881.02,   117.29  L   883.85,   120.12  L   886.68,   117.29  L   886.68,   113.04  L   883.85,   115.87  " /><path style="stroke-width: 0.85 ;&st7;  " d=" M   883.85,   120.77  L   883.85,    86.77  " /><text style="font-size:6px;font-family:'NSimSun';" transform="matrix(&st16;  880.0  126.98 )">3A</text><text style="font-size:6px;font-family:'NSimSun';" transform="matrix(&st16;  870.24  126.98 )">35</text><text style="font-size:6px;font-family:'NSimSun';" transform="matrix(&st16;  874.57  94.96 )">15</text><path style="stroke-width: 1.42 ;&st7;  " d=" M   928.47,   129.26  L   924.22,   129.26  " /><path style="stroke-width: 1.42 ;&st7;  " d=" M   928.47,   120.77  L   924.22,   120.77  " /><path style="stroke-width: 1.42 ;&st7;   " d=" M   932.72,   125.01  C   932.72    122.67    930.82    120.77    928.47    120.77  " /><path style="stroke-width: 1.42 ;&st7;   " d=" M   928.47,   129.26  C   930.82    129.26    932.72    127.36    932.72    125.01  " /><path style="stroke-width: 1.42 ;&st7;   " d=" M   919.97,   125.01  C   919.97    127.36    921.87    129.26    924.22    129.26  " /><path style="stroke-width: 1.42 ;&st7;   " d=" M   924.22,   120.77  C   921.87    120.77    919.97    122.67    919.97    125.01  " /><path style="stroke-width: 0.85 ;&st7;  " d=" M   926.34,    86.77  L   926.34,   120.77  " /><path style="stroke-width: 0.28 ;&st9;  " d=" M   926.34,   115.87  L   923.51,   113.04  L   923.51,   117.29  L   926.34,   120.12  L   929.18,   117.29  L   929.18,   113.04  L   926.34,   115.87  " /><text style="font-size:6px;font-family:'NSimSun';" transform="matrix(&st16;  920.16  94.96 )">2</text><text style="font-size:6px;font-family:'NSimSun';" transform="matrix(&st16;  912.74  126.98 )">25</text><text style="font-size:6px;font-family:'NSimSun';" transform="matrix(&st16;  922.68  126.98 )">3E</text></g><g ewd:figtype="annex" ewd:figID="31" ewd:code=" "><path style="stroke-width: 0.85 ;&st7;  " d=" M   917.85,   401.22  L   934.84,   401.22  " /><path style="stroke-width: 0.85 ;&st7;  " d=" M   923.51,   406.88  L   929.18,   406.88  " /><path style="stroke-width: 0.85 ;&st7;  " d=" M   924.93,   409.72  L   927.76,   409.72  " /><path style="stroke-width: 0.85 ;&st7;  " d=" M   926.34,   392.72  L   926.34,   401.22  " /><path style="stroke-width: 0.85 ;&st7;  " d=" M   922.10,   404.05  L   930.59,   404.05  " /></g><g ewd:code="2" ewd:figID="32" ewd:comment="" ewd:figtype="comment"><text style="font-size:6px;font-family:'NSimSun';" transform="matrix(&st16;  667.98  581.66 )" ewd:textID="2">* 2 : 带门控灯总成</text></g><g ewd:code="3" ewd:figID="33" ewd:comment="" ewd:figtype="comment"><text style="font-size:6px;font-family:'NSimSun';" transform="matrix(&st16;  667.98  590.16 )" ewd:textID="3">* 3 : 不带门控灯总成</text></g></svg>