<?xml version="1.0" encoding="utf-8"?>
<!DOCTYPE svg PUBLIC "-//W3C//DTD SVG 1.0//EN" "http://www.w3.org/TR/2001/REC-SVG-20010904/DTD/svg10.dtd"[
	<!ENTITY ns_flows "http://ns.adobe.com/Flows/1.0/">
	<!ENTITY ns_svg "http://www.w3.org/2000/svg">
	<!ENTITY ns_xlink "http://www.w3.org/1999/xlink">
	<!ENTITY st0 "font-size:7px;font-family:'NSimSun';adobe-font-script:japanese;">
	<!ENTITY st1 "font-size:6px;font-family:'NSimSun';">
	<!-- White fill  -->
	<!ENTITY st2 "fill:#FFFFFF;stroke:#000000; stroke-width:1.41;stroke-linecap:round;stroke-linejoin:round;">
	<!-- Yellow fill  -->
	<!ENTITY st3 "fill:#FFFFCC;stroke:#FFFFCC; stroke-width:0.1;stroke-linecap:round;stroke-linejoin:round;">
	<!-- Gray fill  -->
	<!ENTITY st4 "fill:#CCCCCC;stroke:#CCCCCC; stroke-width:0.1;stroke-linecap:round;stroke-linejoin:round;">
	<!-- Light-blue fill -->
	<!ENTITY st5 "fill:#CCECF4;stroke:#000000; stroke-width:1.133;stroke-linecap:round;stroke-linejoin:round;">
	<!ENTITY st6 "fill:none;stroke-linecap:butt; stroke-linejoin:round;">
	<!ENTITY st7 "fill:none;stroke:#000000;stroke-linecap:round;stroke-linejoin:round;">
	<!ENTITY st8 "enable-background:new    ;">
	<!-- Black fill -->
	<!ENTITY st9 "fill:#000000;stroke:#000000; stroke-linecap:round;stroke-linejoin:round;">
	<!-- SRS note   -->
	<!ENTITY st10 "font-size:9px;font-family:'NSimSun';">
	<!ENTITY st11 "font-size:9px;font-family:'NSimSun';">
	<!ENTITY st12 "font-size:6px;font-family:'NSimSun';">
	<!ENTITY st13 "fill:none;stroke:#ff0000;stroke-linecap:round;stroke-linejoin:round;">
	<!-- Yellow fill  -->
	<!ENTITY st14 "fill:#FFFF00;stroke:#FFFF00; stroke-width:0.1;stroke-linecap:round;stroke-linejoin:round;">
	<!ENTITY st15 "font-size:6px;font-family:'NSimSun';adobe-font-script:japanese;">
	<!ENTITY st16 "1.00 0.00 0.00 1.00">
	<!ENTITY st17 "0.00 -1.00 1.00 0.00">
	<!ENTITY st18 "font-size:6px;font-family:'NSimSun';">
	<!ENTITY st19 "font-size:9px;font-family:'NSimSun';">
	<!ENTITY st20 "font-size:6px;font-family:'NSimSun';adobe-font-script:japanese;">
	<!ENTITY st21 "font-size:7px;font-family:'NSimSun';adobe-font-script:japanese;">
	<!ATTLIST svg
		xmlns:ewd CDATA #FIXED "http://shcl.co.jp/ewd"
		xmlns:a CDATA #FIXED "http://ns.adobe.com/AdobeSVGViewerExtensions/3.0/"
		ewd:ver CDATA #IMPLIED
	>
	<!ATTLIST a
		ewd:lineID CDATA #IMPLIED
		ewd:groupID CDATA #IMPLIED
		ewd:figtype CDATA #IMPLIED
		ewd:code CDATA #IMPLIED
		ewd:figID CDATA #IMPLIED
		ewd:pinNo CDATA #IMPLIED
		ewd:comment CDATA #IMPLIED >
	<!ATTLIST g
		ewd:lineID CDATA #IMPLIED
		ewd:groupID CDATA #IMPLIED
		ewd:figtype CDATA #IMPLIED
		ewd:code CDATA #IMPLIED
		ewd:figID CDATA #IMPLIED
		ewd:pinNo CDATA #IMPLIED
		ewd:comment CDATA #IMPLIED >
	<!ATTLIST text
		ewd:textID CDATA #IMPLIED
		ewd:horAlign CDATA #IMPLIED >
	<!ATTLIST title
		ewd:textID CDATA #IMPLIED >
]>
<!-- Generator: Shintec Hozumi YS   -->
<svg onload="call_execInitLoadProc_svg('system')" style="overflow:visible;  enable-background:new 0 0 3581.274 710.000" viewBox="0 0 3585.391 710.000" height="710.000" width="3585.391" xml:space="preserve" ewd:ver="2.1.2.6F" xmlns="&ns_svg;" xmlns:ewd="http://shcl.co.jp/ewd" xmlns:a="http://ns.adobe.com/AdobeSVGViewerExtensions/3.0/" xmlns:xlink="&ns_xlink;">
<path style="stroke-width: 1.42 ;&st7;  " d=" M   909.35,   222.75  L   917.85,   222.75  " /><path style="stroke-width: 1.42 ;&st7;  " d=" M   849.86,   222.75  L   858.36,   222.75  " /><path style="stroke-width: 1.42 ;&st7;  " d=" M   739.38,   222.75  L   747.88,   222.75  " /><path style="stroke-width: 1.42 ;&st7;  " d=" M   679.89,   222.75  L   688.38,   222.75  " /><text style="font-size:6px;font-family:'NSimSun';" transform="matrix(&st17;  744.18  173.56 )">V</text><text style="font-size:6px;font-family:'NSimSun';" transform="matrix(&st17;  684.69  173.25 )">P</text><text style="font-size:6px;font-family:'NSimSun';" transform="matrix(&st17;  914.15  173.33 )">L</text><text style="font-size:6px;font-family:'NSimSun';" transform="matrix(&st17;  625.2  175.31 )">BR</text><text style="font-size:6px;font-family:'NSimSun';" transform="matrix(&st17;  854.66  175.54 )">LG</text><text style="font-size:6px;font-family:'NSimSun';" transform="matrix(&st17;  684.69  411.33 )">R</text><text style="font-size:6px;font-family:'NSimSun';" transform="matrix(&st17;  744.18  412.18 )">W</text><text style="font-size:6px;font-family:'NSimSun';" transform="matrix(&st17;  854.66  411.33 )">R</text><text style="font-size:6px;font-family:'NSimSun';" transform="matrix(&st17;  914.15  412.18 )">W</text><text style="font-size:6px;font-family:'NSimSun';" transform="matrix(&st17;  684.69  283.73 )">P</text><text style="font-size:6px;font-family:'NSimSun';" transform="matrix(&st17;  744.18  284.04 )">V</text><text style="font-size:6px;font-family:'NSimSun';" transform="matrix(&st17;  854.66  286.02 )">LG</text><text style="font-size:6px;font-family:'NSimSun';" transform="matrix(&st17;  914.15  283.81 )">L</text><text style="font-size:6px;font-family:'NSimSun';" transform="matrix(&st17;  565.71  173.37 )">R</text><text style="font-size:6px;font-family:'NSimSun';" transform="matrix(&st17;  990.64  173.45 )">B</text><text style="font-size:6px;font-family:'NSimSun';" transform="matrix(&st17;  565.71  309.35 )">R</text><text style="font-size:6px;font-family:'NSimSun';" transform="matrix(&st16;  541.8  567.49 )">R</text><text style="font-size:6px;font-family:'NSimSun';" transform="matrix(&st17;  990.64  309.42 )">B</text><text style="font-size:6px;font-family:'NSimSun';" transform="matrix(&st16;  710.47  53.3 )">E2(F),E5(G),E33(H),E35(I),X3(J)</text><text style="font-size:6px;font-family:'NSimSun';" transform="matrix(&st16;  710.47  39.14 )">E1(A),E4(B),E32(C),E34(D),X2(E)</text><text style="font-size:6px;font-family:'NSimSun';" transform="matrix(&st16;  710.48  46.25 )" ewd:textID="23">导航接收器总成</text><text style="font-size:6px;font-family:'NSimSun';" transform="matrix(&st16;  710.48  60.41 )" ewd:textID="31">无线电收音机和显示屏接收器总成</text><text style="font-size:6px;font-family:'NSimSun';" transform="matrix(&st16;  710.47  67.47 )">E3(K),E6(L)</text><text style="font-size:6px;font-family:'NSimSun';" transform="matrix(&st16;  710.48  74.58 )" ewd:textID="32">无线电收音机总成</text><text style="font-size:6px;font-family:'NSimSun';" transform="matrix(&st17;  820.67  286.02 )">LG</text><text style="font-size:6px;font-family:'NSimSun';" transform="matrix(&st17;  650.69  283.73 )">P</text><text style="font-size:6px;font-family:'NSimSun';" transform="matrix(&st17;  662.03  286.95 )">(*6)</text><text style="font-size:6px;font-family:'NSimSun';" transform="matrix(&st17;  795.17  284.04 )">V</text><text style="font-size:6px;font-family:'NSimSun';" transform="matrix(&st17;  806.5  286.95 )">(*6)</text><text style="font-size:6px;font-family:'NSimSun';" transform="matrix(&st17;  696.02  286.95 )">(*5)</text><text style="font-size:6px;font-family:'NSimSun';" transform="matrix(&st17;  755.51  286.95 )">(*5)</text><text style="font-size:6px;font-family:'NSimSun';" transform="matrix(&st17;  696.02  414.43 )">(*5)</text><text style="font-size:6px;font-family:'NSimSun';" transform="matrix(&st17;  755.51  414.43 )">(*5)</text><text style="font-size:6px;font-family:'NSimSun';" transform="matrix(&st17;  832.0  286.95 )">(*6)</text><text style="font-size:6px;font-family:'NSimSun';" transform="matrix(&st17;  965.14  283.81 )">L</text><text style="font-size:6px;font-family:'NSimSun';" transform="matrix(&st17;  976.47  286.95 )">(*6)</text><text style="font-size:6px;font-family:'NSimSun';" transform="matrix(&st17;  865.99  286.95 )">(*5)</text><text style="font-size:6px;font-family:'NSimSun';" transform="matrix(&st17;  925.48  286.95 )">(*5)</text><text style="font-size:6px;font-family:'NSimSun';" transform="matrix(&st17;  865.99  414.43 )">(*5)</text><text style="font-size:6px;font-family:'NSimSun';" transform="matrix(&st17;  925.48  414.43 )">(*5)</text><g ewd:figtype="conn" ewd:figID="5" ewd:code="L19"><path style="stroke-width: 0.85 ;&st7;  " d=" M   994.33,   392.72  L   994.33,   388.47  " /><path style="stroke-width: 0.85 ;&st7;  " d=" M   994.33,   362.97  L   994.33,   358.73  " /><path style="stroke-width: 1.42 ;&st7;  " d=" M   994.33,   385.64  L  1000.00,   362.97  " /><path style="stroke-width: 0.85 ;&st7;   " d=" M   995.75,   387.05  C   995.75    386.27    995.12    385.64    994.33    385.64  " /><path style="stroke-width: 0.85 ;&st7;   " d=" M   994.33,   385.64  C   993.55    385.64    992.92    386.27    992.92    387.05  " /><path style="stroke-width: 0.85 ;&st7;   " d=" M   992.92,   387.05  C   992.92    387.84    993.55    388.47    994.33    388.47  " /><path style="stroke-width: 0.85 ;&st7;   " d=" M   994.33,   388.47  C   995.12    388.47    995.75    387.84    995.75    387.05  " /><path style="stroke-width: 0.85 ;&st7;   " d=" M   995.75,   364.39  C   995.75    363.61    995.12    362.97    994.33    362.97  " /><path style="stroke-width: 0.85 ;&st7;   " d=" M   994.33,   362.97  C   993.55    362.97    992.92    363.61    992.92    364.39  " /><path style="stroke-width: 0.85 ;&st7;   " d=" M   992.92,   364.39  C   992.92    365.17    993.55    365.81    994.33    365.81  " /><path style="stroke-width: 0.85 ;&st7;   " d=" M   994.33,   365.81  C   995.12    365.81    995.75    365.17    995.75    364.39  " /><path style="stroke-width: 1.42 ;&st7;  " d=" M   985.83,   358.73  L   985.83,   392.72  L  1002.83,   392.72  L  1002.83,   358.73  L   985.83,   358.73  " /><text style="font-size:6px;font-family:'NSimSun';" transform="matrix(&st16;  988.15  355.04 )">1</text><g ewd:figtype="title"><text style="font-size:6px;font-family:'NSimSun';" transform="matrix(&st17;  1017.55  395.63 )" ewd:textID="30">驻车制动开关总成</text><text style="font-size:6px;font-family:'NSimSun';" transform="matrix(&st17;  1010.44  395.62 )">L19</text></g></g><g ewd:figtype="conn" ewd:figID="6" ewd:code="H1"><path style="stroke-width: 1.42 ;&st7;  " d=" M   705.38,   439.46  L   705.38,   447.96  L   701.13,   456.46  L   726.63,   456.46  L   722.38,   447.96  L   722.38,   439.46  L   705.38,   439.46  " /><path style="stroke-width: 1.42 ;&st7;  " d=" M   705.38,   447.96  L   722.38,   447.96  " /><text style="font-size:6px;font-family:'NSimSun';" transform="matrix(&st16;  699.2  440.02 )">1</text><text style="font-size:6px;font-family:'NSimSun';" transform="matrix(&st16;  724.96  440.02 )">2</text><g ewd:figtype="title"><text style="font-size:6px;font-family:'NSimSun';" transform="matrix(&st16;  697.72  464.07 )">H1</text><text style="font-size:6px;font-family:'NSimSun';" transform="matrix(&st16;  697.73  471.18 )" ewd:textID="15">左前<tspan x="0 " dy="6.0">1 号扬声器总成</tspan></text></g></g><g ewd:figtype="conn" ewd:figID="7" ewd:code="G1"><path style="stroke-width: 1.42 ;&st7;  " d=" M   875.35,   439.46  L   875.35,   447.96  L   871.10,   456.46  L   896.60,   456.46  L   892.35,   447.96  L   892.35,   439.46  L   875.35,   439.46  " /><path style="stroke-width: 1.42 ;&st7;  " d=" M   875.35,   447.96  L   892.35,   447.96  " /><text style="font-size:6px;font-family:'NSimSun';" transform="matrix(&st16;  869.17  440.02 )">1</text><text style="font-size:6px;font-family:'NSimSun';" transform="matrix(&st16;  894.93  440.02 )">2</text><g ewd:figtype="title"><text style="font-size:6px;font-family:'NSimSun';" transform="matrix(&st16;  867.7  471.18 )" ewd:textID="16">右前<tspan x="0 " dy="6.0">1 号扬声器总成</tspan></text><text style="font-size:6px;font-family:'NSimSun';" transform="matrix(&st16;  867.69  464.07 )">G1</text></g></g><g ewd:figtype="conn" ewd:figID="19" ewd:code="H7"><path style="stroke-width: 1.42 ;&st7;  " d=" M   671.39,   341.73  L   671.39,   384.22  L   773.37,   384.22  L   773.37,   341.73  L   671.39,   341.73  " /><path style="stroke-width: 0.85 ;&st7;  " d=" M   688.38,   341.73  L   688.38,   384.22  " /><path style="stroke-width: 0.85 ;&st7;  " d=" M   747.87,   341.73  L   747.87,   384.22  " /><path style="stroke-width: 1.42 ;&st7;  " d=" M   713.88,   354.48  L   713.88,   362.97  L   709.63,   371.47  L   735.13,   371.47  L   730.88,   362.97  L   730.88,   354.48  L   713.88,   354.48  " /><path style="stroke-width: 1.42 ;&st7;  " d=" M   713.88,   362.97  L   730.88,   362.97  " /><path style="stroke-width: 0.85 ;&st7;  " d=" M   713.88,   358.73  L   703.26,   358.73  " /><path style="stroke-width: 0.85 ;&st7;  " d=" M   699.01,   358.73  L   688.38,   358.73  " /><path style="stroke-width: 1.42 ;&st7;  " d=" M   699.01,   354.48  L   699.01,   362.97  " /><path style="stroke-width: 1.42 ;&st7;  " d=" M   703.26,   354.48  L   703.26,   362.97  " /><path style="stroke-width: 0.85 ;&st7;  " d=" M   747.87,   358.73  L   730.88,   358.73  " /><path style="stroke-width: 0.85 ;&st7;  " d=" M   687.19,   357.72  L   686.92,   358.19  L   686.83,   358.73  L   686.92,   359.26  L   687.19,   359.73  L   687.61,   360.07  L   688.11,   360.26  L   688.66,   360.26  L   689.16,   360.07  L   689.58,   359.73  L   689.85,   359.26  L   689.94,   358.73  L   689.85,   358.19  L   689.58,   357.72  L   689.16,   357.38  L   688.66,   357.19  L   688.11,   357.19  L   687.61,   357.38  L   687.19,   357.72  L   687.59,   358.43  L   687.59,   359.02  L   687.96,   359.46  L   688.53,   359.56  L   689.04,   359.27  L   689.23,   358.73  L   689.04,   358.18  L   688.53,   357.89  L   687.96,   357.99  L   688.38,   358.73  " /><path style="stroke-width: 0.85 ;&st7;  " d=" M   746.68,   357.72  L   746.41,   358.19  L   746.32,   358.73  L   746.41,   359.26  L   746.68,   359.73  L   747.10,   360.07  L   747.60,   360.26  L   748.15,   360.26  L   748.65,   360.07  L   749.07,   359.73  L   749.34,   359.26  L   749.43,   358.73  L   749.34,   358.19  L   749.07,   357.72  L   748.65,   357.38  L   748.15,   357.19  L   747.60,   357.19  L   747.10,   357.38  L   746.68,   357.72  L   747.08,   358.43  L   747.08,   359.02  L   747.45,   359.46  L   748.02,   359.56  L   748.53,   359.27  L   748.72,   358.73  L   748.53,   358.18  L   748.02,   357.89  L   747.45,   357.99  L   747.87,   358.73  " /><text style="font-size:6px;font-family:'NSimSun';" transform="matrix(&st16;  690.97  380.53 )">+</text><text style="font-size:6px;font-family:'NSimSun';" transform="matrix(&st16;  750.46  380.53 )">-</text><text style="font-size:6px;font-family:'NSimSun';" transform="matrix(&st16;  690.97  349.92 )">TWL+</text><text style="font-size:6px;font-family:'NSimSun';" transform="matrix(&st16;  750.46  349.92 )">TWL-</text><text style="font-size:6px;font-family:'NSimSun';" transform="matrix(&st16;  682.2  338.04 )">4</text><text style="font-size:6px;font-family:'NSimSun';" transform="matrix(&st16;  682.2  392.41 )">3</text><text style="font-size:6px;font-family:'NSimSun';" transform="matrix(&st16;  741.69  392.41 )">1</text><text style="font-size:6px;font-family:'NSimSun';" transform="matrix(&st16;  741.69  338.04 )">2</text><g ewd:figtype="title"><text style="font-size:6px;font-family:'NSimSun';" transform="matrix(&st17;  780.98  387.12 )">H7</text><text style="font-size:6px;font-family:'NSimSun';" transform="matrix(&st17;  788.09  387.13 )" ewd:textID="17">左前 2 号扬声器总成</text></g></g><g ewd:figtype="conn" ewd:figID="20" ewd:code="G6"><path style="stroke-width: 1.42 ;&st7;  " d=" M   841.36,   341.73  L   841.36,   384.22  L   943.34,   384.22  L   943.34,   341.73  L   841.36,   341.73  " /><text style="font-size:6px;font-family:'NSimSun';" transform="matrix(&st16;  920.43  349.92 )">TWR-</text><text style="font-size:6px;font-family:'NSimSun';" transform="matrix(&st16;  860.94  349.92 )">TWR+</text><text style="font-size:6px;font-family:'NSimSun';" transform="matrix(&st16;  920.43  380.53 )">-</text><text style="font-size:6px;font-family:'NSimSun';" transform="matrix(&st16;  860.94  380.53 )">+</text><path style="stroke-width: 0.85 ;&st7;  " d=" M   916.65,   357.72  L   916.38,   358.19  L   916.29,   358.73  L   916.38,   359.26  L   916.65,   359.73  L   917.07,   360.07  L   917.57,   360.26  L   918.12,   360.26  L   918.63,   360.07  L   919.04,   359.73  L   919.31,   359.26  L   919.40,   358.73  L   919.31,   358.19  L   919.04,   357.72  L   918.63,   357.38  L   918.12,   357.19  L   917.57,   357.19  L   917.07,   357.38  L   916.65,   357.72  L   917.05,   358.43  L   917.05,   359.02  L   917.42,   359.46  L   917.99,   359.56  L   918.50,   359.27  L   918.70,   358.73  L   918.50,   358.18  L   917.99,   357.89  L   917.42,   357.99  L   917.85,   358.73  " /><path style="stroke-width: 0.85 ;&st7;  " d=" M   857.16,   357.72  L   856.89,   358.19  L   856.80,   358.73  L   856.89,   359.26  L   857.16,   359.73  L   857.58,   360.07  L   858.08,   360.26  L   858.63,   360.26  L   859.14,   360.07  L   859.55,   359.73  L   859.82,   359.26  L   859.91,   358.73  L   859.82,   358.19  L   859.55,   357.72  L   859.14,   357.38  L   858.63,   357.19  L   858.08,   357.19  L   857.58,   357.38  L   857.16,   357.72  L   857.56,   358.43  L   857.56,   359.02  L   857.93,   359.46  L   858.50,   359.56  L   859.01,   359.27  L   859.21,   358.73  L   859.01,   358.18  L   858.50,   357.89  L   857.93,   357.99  L   858.36,   358.73  " /><path style="stroke-width: 0.85 ;&st7;  " d=" M   917.85,   358.73  L   900.85,   358.73  " /><path style="stroke-width: 1.42 ;&st7;  " d=" M   873.23,   354.48  L   873.23,   362.97  " /><path style="stroke-width: 1.42 ;&st7;  " d=" M   868.98,   354.48  L   868.98,   362.97  " /><path style="stroke-width: 0.85 ;&st7;  " d=" M   868.98,   358.73  L   858.36,   358.73  " /><path style="stroke-width: 0.85 ;&st7;  " d=" M   883.85,   358.73  L   873.23,   358.73  " /><path style="stroke-width: 1.42 ;&st7;  " d=" M   883.85,   362.97  L   900.85,   362.97  " /><path style="stroke-width: 1.42 ;&st7;  " d=" M   883.85,   354.48  L   883.85,   362.97  L   879.60,   371.47  L   905.10,   371.47  L   900.85,   362.97  L   900.85,   354.48  L   883.85,   354.48  " /><path style="stroke-width: 0.85 ;&st7;  " d=" M   917.85,   341.73  L   917.85,   384.22  " /><path style="stroke-width: 0.85 ;&st7;  " d=" M   858.36,   341.73  L   858.36,   384.22  " /><text style="font-size:6px;font-family:'NSimSun';" transform="matrix(&st16;  852.17  338.04 )">4</text><text style="font-size:6px;font-family:'NSimSun';" transform="matrix(&st16;  852.17  392.41 )">3</text><text style="font-size:6px;font-family:'NSimSun';" transform="matrix(&st16;  911.66  392.41 )">1</text><text style="font-size:6px;font-family:'NSimSun';" transform="matrix(&st16;  911.66  338.04 )">2</text><g ewd:figtype="title"><text style="font-size:6px;font-family:'NSimSun';" transform="matrix(&st17;  950.95  387.12 )">G6</text><text style="font-size:6px;font-family:'NSimSun';" transform="matrix(&st17;  958.06  387.13 )" ewd:textID="18">右前 2 号扬声器总成</text></g></g><g ewd:figtype="jb" ewd:figID="26" ewd:code="3"><path style="stroke-width: 1.42 ;&st7;  " d=" M   571.53,   214.25  L   567.28,   214.25  " /><path style="stroke-width: 1.42 ;&st7;  " d=" M   571.53,   222.75  L   567.28,   222.75  " /><path style="stroke-width: 1.42 ;&st7;  " d=" M   571.53,   256.74  L   567.28,   256.74  " /><path style="stroke-width: 1.42 ;&st7;  " d=" M   571.53,   265.24  L   567.28,   265.24  " /><path style="stroke-width: 1.42 ;&st7;   " d=" M   567.28,   214.25  C   564.93    214.25    563.03    216.15    563.03    218.50  " /><path style="stroke-width: 1.42 ;&st7;   " d=" M   563.03,   218.50  C   563.03    220.85    564.93    222.75    567.28    222.75  " /><path style="stroke-width: 1.42 ;&st7;   " d=" M   571.53,   222.75  C   573.88    222.75    575.78    220.85    575.78    218.50  " /><path style="stroke-width: 1.42 ;&st7;   " d=" M   575.78,   218.50  C   575.78    216.15    573.88    214.25    571.53    214.25  " /><path style="stroke-width: 1.42 ;&st7;   " d=" M   567.28,   256.74  C   564.93    256.74    563.03    258.64    563.03    260.99  " /><path style="stroke-width: 1.42 ;&st7;   " d=" M   563.03,   260.99  C   563.03    263.34    564.93    265.24    567.28    265.24  " /><path style="stroke-width: 1.42 ;&st7;   " d=" M   571.53,   265.24  C   573.88    265.24    575.78    263.34    575.78    260.99  " /><path style="stroke-width: 1.42 ;&st7;   " d=" M   575.78,   260.99  C   575.78    258.64    573.88    256.74    571.53    256.74  " /><path style="stroke-width: 0.28 ;&st9;  " d=" M   569.40,   227.64  L   572.24,   230.48  L   572.24,   226.23  L   569.40,   223.39  L   566.57,   226.23  L   566.57,   230.48  L   569.40,   227.64  " /><path style="stroke-width: 0.28 ;&st9;  " d=" M   569.40,   251.85  L   566.57,   249.01  L   566.57,   253.26  L   569.40,   256.10  L   572.24,   253.26  L   572.24,   249.01  L   569.40,   251.85  " /><path style="stroke-width: 0.85 ;&st7;  " d=" M   569.40,   256.74  L   569.40,   222.75  " /><text style="font-size:6px;font-family:'NSimSun';" transform="matrix(&st16;  565.47  220.47 )">3D</text><text style="font-size:6px;font-family:'NSimSun';" transform="matrix(&st16;  555.8  220.47 )">39</text><text style="font-size:6px;font-family:'NSimSun';" transform="matrix(&st16;  565.55  262.96 )">3A</text><text style="font-size:6px;font-family:'NSimSun';" transform="matrix(&st16;  555.8  262.96 )">41</text></g><g ewd:figtype="jb" ewd:figID="28" ewd:code="3"><path style="stroke-width: 1.42 ;&st7;  " d=" M   996.46,   265.24  L   992.21,   265.24  " /><path style="stroke-width: 1.42 ;&st7;  " d=" M   996.46,   256.74  L   992.21,   256.74  " /><path style="stroke-width: 1.42 ;&st7;  " d=" M   996.46,   214.25  L   992.21,   214.25  " /><path style="stroke-width: 1.42 ;&st7;  " d=" M   996.46,   222.75  L   992.21,   222.75  " /><path style="stroke-width: 1.42 ;&st7;   " d=" M  1000.71,   260.99  C  1000.71    258.64    998.81    256.74    996.46    256.74  " /><path style="stroke-width: 1.42 ;&st7;   " d=" M   996.46,   265.24  C   998.81    265.24   1000.71    263.34   1000.71    260.99  " /><path style="stroke-width: 1.42 ;&st7;   " d=" M   987.96,   260.99  C   987.96    263.34    989.86    265.24    992.21    265.24  " /><path style="stroke-width: 1.42 ;&st7;   " d=" M   992.21,   256.74  C   989.86    256.74    987.96    258.64    987.96    260.99  " /><path style="stroke-width: 1.42 ;&st7;   " d=" M   992.21,   214.25  C   989.86    214.25    987.96    216.15    987.96    218.50  " /><path style="stroke-width: 1.42 ;&st7;   " d=" M   987.96,   218.50  C   987.96    220.85    989.86    222.75    992.21    222.75  " /><path style="stroke-width: 1.42 ;&st7;   " d=" M   996.46,   222.75  C   998.81    222.75   1000.71    220.85   1000.71    218.50  " /><path style="stroke-width: 1.42 ;&st7;   " d=" M  1000.71,   218.50  C  1000.71    216.15    998.81    214.25    996.46    214.25  " /><path style="stroke-width: 0.28 ;&st9;  " d=" M   994.33,   251.85  L   991.50,   249.01  L   991.50,   253.26  L   994.33,   256.10  L   997.17,   253.26  L   997.17,   249.01  L   994.33,   251.85  " /><path style="stroke-width: 0.28 ;&st9;  " d=" M   994.33,   227.64  L   997.17,   230.48  L   997.17,   226.23  L   994.33,   223.39  L   991.50,   226.23  L   991.50,   230.48  L   994.33,   227.64  " /><path style="stroke-width: 0.85 ;&st7;  " d=" M   994.33,   222.75  L   994.33,   256.74  " /><text style="font-size:6px;font-family:'NSimSun';" transform="matrix(&st16;  980.72  262.96 )">27</text><text style="font-size:6px;font-family:'NSimSun';" transform="matrix(&st16;  990.67  262.96 )">3E</text><text style="font-size:6px;font-family:'NSimSun';" transform="matrix(&st16;  990.36  220.47 )">3C</text><text style="font-size:6px;font-family:'NSimSun';" transform="matrix(&st16;  980.72  220.47 )">36</text></g><g ewd:figtype="w2w" ewd:figID="35" ewd:code="HE3"><path style="stroke-width: 1.42 ;&st7;  " d=" M   692.63,   217.08  L   688.38,   221.33  L   684.14,   217.08  " /><path style="stroke-width: 1.42 ;&st7;  " d=" M   684.14,   213.68  L   688.38,   217.93  L   692.63,   213.68  " /><text style="font-size:6px;font-family:'NSimSun';" transform="matrix(&st16;  675.75  228.97 )">1</text></g><g ewd:figtype="w2w" ewd:figID="36" ewd:code="HE3"><path style="stroke-width: 1.42 ;&st7;  " d=" M   752.12,   217.08  L   747.87,   221.33  L   743.63,   217.08  " /><path style="stroke-width: 1.42 ;&st7;  " d=" M   743.63,   213.68  L   747.87,   217.93  L   752.12,   213.68  " /><text style="font-size:6px;font-family:'NSimSun';" transform="matrix(&st16;  735.24  228.97 )">2</text></g><g ewd:figtype="w2w" ewd:figID="37" ewd:code="GE3"><path style="stroke-width: 1.42 ;&st7;  " d=" M   862.61,   217.08  L   858.36,   221.33  L   854.11,   217.08  " /><path style="stroke-width: 1.42 ;&st7;  " d=" M   854.11,   213.68  L   858.36,   217.93  L   862.61,   213.68  " /><text style="font-size:6px;font-family:'NSimSun';" transform="matrix(&st16;  845.72  228.97 )">1</text></g><g ewd:figtype="w2w" ewd:figID="38" ewd:code="GE3"><path style="stroke-width: 1.42 ;&st7;  " d=" M   922.10,   217.08  L   917.85,   221.33  L   913.60,   217.08  " /><path style="stroke-width: 1.42 ;&st7;  " d=" M   913.60,   213.68  L   917.85,   217.93  L   922.10,   213.68  " /><text style="font-size:6px;font-family:'NSimSun';" transform="matrix(&st16;  905.22  228.97 )">2</text></g><g ewd:figtype="gp" ewd:figID="58" ewd:code="ED"><path style="stroke-width: 0.85 ;&st7;  " d=" M   628.89,   697.25  L   628.89,   701.50  " /><path style="stroke-width: 0.85 ;&st7;  " d=" M   620.40,   701.50  L   637.39,   701.50  " /><path style="stroke-width: 0.85 ;&st7;  " d=" M   624.65,   704.33  L   633.14,   704.33  " /><path style="stroke-width: 0.85 ;&st7;  " d=" M   626.06,   707.17  L   631.73,   707.17  " /><path style="stroke-width: 0.85 ;&st7;  " d=" M   627.48,   710.00  L   630.31,   710.00  " /></g><g ewd:figtype="annex" ewd:figID="102" ewd:code=" "><path style="stroke-width: 0.85 ;&st7;  " d=" M   994.33,   392.72  L   994.33,   401.22  " /><path style="stroke-width: 0.85 ;&st7;  " d=" M   990.08,   404.05  L   998.58,   404.05  " /><path style="stroke-width: 0.85 ;&st7;  " d=" M   991.50,   406.88  L   997.17,   406.88  " /><path style="stroke-width: 0.85 ;&st7;  " d=" M   985.83,   401.22  L  1002.83,   401.22  " /><path style="stroke-width: 0.85 ;&st7;  " d=" M   992.92,   409.72  L   995.75,   409.72  " /></g><g ewd:code="3" ewd:figID="84" ewd:comment="" ewd:figtype="comment"><text style="font-size:6px;font-family:'NSimSun';" transform="matrix(&st16;  837.95  547.66 )" ewd:textID="5">* 3 : 无线电收音机型</text></g><g ewd:code="5" ewd:figID="98" ewd:comment="" ewd:figtype="comment"><text style="font-size:6px;font-family:'NSimSun';" transform="matrix(&st16;  837.95  556.16 )" ewd:textID="7">* 5 : 6 扬声器</text></g><g ewd:code="6" ewd:figID="99" ewd:comment="" ewd:figtype="comment"><text style="font-size:6px;font-family:'NSimSun';" transform="matrix(&st16;  837.95  564.66 )" ewd:textID="8">* 6 : 4 扬声器</text></g><g ewd:code="1" ewd:figID="82" ewd:comment="" ewd:figtype="comment"><text style="font-size:6px;font-family:'NSimSun';" transform="matrix(&st16;  837.95  530.67 )" ewd:textID="3">* 1 : 导航接收器型</text></g><g ewd:code="2" ewd:figID="83" ewd:comment="" ewd:figtype="comment"><text style="font-size:6px;font-family:'NSimSun';" transform="matrix(&st16;  837.95  539.16 )" ewd:textID="4">* 2 : 无线电收音机和显示屏接收器型</text></g></svg>