<?xml version="1.0" encoding="utf-8"?>
<!DOCTYPE svg PUBLIC "-//W3C//DTD SVG 1.0//EN" "http://www.w3.org/TR/2001/REC-SVG-20010904/DTD/svg10.dtd"[
	<!ENTITY ns_flows "http://ns.adobe.com/Flows/1.0/">
	<!ENTITY ns_svg "http://www.w3.org/2000/svg">
	<!ENTITY ns_xlink "http://www.w3.org/1999/xlink">
	<!ENTITY st0 "font-size:7px;font-family:'NSimSun';adobe-font-script:japanese;">
	<!ENTITY st1 "font-size:6px;font-family:'NSimSun';">
	<!-- White fill  -->
	<!ENTITY st2 "fill:#FFFFFF;stroke:#000000; stroke-width:1.41;stroke-linecap:round;stroke-linejoin:round;">
	<!-- Yellow fill  -->
	<!ENTITY st3 "fill:#FFFFCC;stroke:#FFFFCC; stroke-width:0.1;stroke-linecap:round;stroke-linejoin:round;">
	<!-- Gray fill  -->
	<!ENTITY st4 "fill:#CCCCCC;stroke:#CCCCCC; stroke-width:0.1;stroke-linecap:round;stroke-linejoin:round;">
	<!-- Light-blue fill -->
	<!ENTITY st5 "fill:#CCECF4;stroke:#000000; stroke-width:1.133;stroke-linecap:round;stroke-linejoin:round;">
	<!ENTITY st6 "fill:none;stroke-linecap:butt; stroke-linejoin:round;">
	<!ENTITY st7 "fill:none;stroke:#000000;stroke-linecap:round;stroke-linejoin:round;">
	<!ENTITY st8 "enable-background:new    ;">
	<!-- Black fill -->
	<!ENTITY st9 "fill:#000000;stroke:#000000; stroke-linecap:round;stroke-linejoin:round;">
	<!-- SRS note   -->
	<!ENTITY st10 "font-size:9px;font-family:'NSimSun';">
	<!ENTITY st11 "font-size:9px;font-family:'NSimSun';">
	<!ENTITY st12 "font-size:6px;font-family:'NSimSun';">
	<!ENTITY st13 "fill:none;stroke:#ff0000;stroke-linecap:round;stroke-linejoin:round;">
	<!-- Yellow fill  -->
	<!ENTITY st14 "fill:#FFFF00;stroke:#FFFF00; stroke-width:0.1;stroke-linecap:round;stroke-linejoin:round;">
	<!ENTITY st15 "font-size:6px;font-family:'NSimSun';adobe-font-script:japanese;">
	<!ENTITY st16 "1.00 0.00 0.00 1.00">
	<!ENTITY st17 "0.00 -1.00 1.00 0.00">
	<!ENTITY st18 "font-size:6px;font-family:'NSimSun';">
	<!ENTITY st19 "font-size:9px;font-family:'NSimSun';">
	<!ENTITY st20 "font-size:6px;font-family:'NSimSun';adobe-font-script:japanese;">
	<!ENTITY st21 "font-size:7px;font-family:'NSimSun';adobe-font-script:japanese;">
	<!ATTLIST svg
		xmlns:ewd CDATA #FIXED "http://shcl.co.jp/ewd"
		xmlns:a CDATA #FIXED "http://ns.adobe.com/AdobeSVGViewerExtensions/3.0/"
		ewd:ver CDATA #IMPLIED
	>
	<!ATTLIST a
		ewd:lineID CDATA #IMPLIED
		ewd:groupID CDATA #IMPLIED
		ewd:figtype CDATA #IMPLIED
		ewd:code CDATA #IMPLIED
		ewd:figID CDATA #IMPLIED
		ewd:pinNo CDATA #IMPLIED
		ewd:comment CDATA #IMPLIED >
	<!ATTLIST g
		ewd:lineID CDATA #IMPLIED
		ewd:groupID CDATA #IMPLIED
		ewd:figtype CDATA #IMPLIED
		ewd:code CDATA #IMPLIED
		ewd:figID CDATA #IMPLIED
		ewd:pinNo CDATA #IMPLIED
		ewd:comment CDATA #IMPLIED >
	<!ATTLIST text
		ewd:textID CDATA #IMPLIED
		ewd:horAlign CDATA #IMPLIED >
	<!ATTLIST title
		ewd:textID CDATA #IMPLIED >
]>
<!-- Generator: Shintec Hozumi YS   -->
<svg onload="call_execInitLoadProc_svg('system')" style="overflow:visible;  enable-background:new 0 0 3581.274 710.000" viewBox="0 0 3585.391 710.000" height="710.000" width="3585.391" xml:space="preserve" ewd:ver="2.1.2.6F" xmlns="&ns_svg;" xmlns:ewd="http://shcl.co.jp/ewd" xmlns:a="http://ns.adobe.com/AdobeSVGViewerExtensions/3.0/" xmlns:xlink="&ns_xlink;"><script type="text/javascript" xlink:href="../../../../../system/js/ewd/fig/svgfig.js" xmlns:xlink="http://www.w3.org/1999/xlink" />
<g id="ewd_top"><a ewd:figtype="conn" style="cursor:pointer;" ewd:code="B6,B7" ewd:figID="1"><path style="&st5;" d=" M    42.49,   333.23  L    42.49,   299.24  L    25.50,   299.24  L    25.50,   333.23  L    42.49,   333.23 " /><title ewd:textID="12">倒车灯开关总成</title></a><a ewd:figtype="conn" style="cursor:pointer;" ewd:code="B15" ewd:figID="2"><path style="&st5;" d=" M    67.99,   307.73  L    67.99,   341.73  L   118.98,   341.73  L   118.98,   307.73  L    67.99,   307.73 " /><title ewd:textID="32">驻车/空档位置开关总成</title></a><a ewd:figtype="conn" style="cursor:pointer;" ewd:code="L19" ewd:figID="3"><path style="&st5;" d=" M   951.84,   358.73  L   951.84,   392.72  L   968.84,   392.72  L   968.84,   358.73  L   951.84,   358.73 " /><title ewd:textID="33">驻车制动开关总成</title></a><a ewd:figtype="conn" style="cursor:pointer;" ewd:code="H7" ewd:figID="4"><path style="&st5;" d=" M   679.89,   316.23  L   679.89,   358.73  L   773.37,   358.73  L   773.37,   316.23  L   679.89,   316.23 " /><title ewd:textID="18">左前 2 号扬声器总成</title></a><a ewd:figtype="conn" style="cursor:pointer;" ewd:code="G6" ewd:figID="5"><path style="&st5;" d=" M   807.37,   316.23  L   807.37,   358.73  L   900.85,   358.73  L   900.85,   316.23  L   807.37,   316.23 " /><title ewd:textID="19">右前 2 号扬声器总成</title></a><a ewd:figtype="conn" style="cursor:pointer;" ewd:code="H1" ewd:figID="6"><path style="&st5;" d=" M   713.88,   413.97  L   713.88,   422.46  L   709.63,   430.96  L   735.13,   430.96  L   730.88,   422.46  L   730.88,   413.97  L   713.88,   413.97 " /><title ewd:textID="16">左前 1 号扬声器总成</title></a><a ewd:figtype="conn" style="cursor:pointer;" ewd:code="G1" ewd:figID="7"><path style="&st5;" d=" M   841.36,   413.97  L   841.36,   422.46  L   837.11,   430.96  L   862.61,   430.96  L   858.36,   422.46  L   858.36,   413.97  L   841.36,   413.97 " /><title ewd:textID="17">右前 1 号扬声器总成</title></a><a ewd:figtype="conn" style="cursor:pointer;" ewd:code="O4" ewd:figID="8"><path style="&st5;" d=" M  1597.73,   426.71  L  1810.20,   426.71  L  1810.20,   367.22  L  1597.73,   367.22  L  1597.73,   426.71 " /><title ewd:textID="22">阅读灯总成</title></a><a ewd:figtype="conn" style="cursor:pointer;" ewd:code="E13,z6" ewd:figID="9"><path style="&st5;" d=" M  1368.27,   417.65  L  1368.27,   392.72  L  1512.75,   392.72  L  1512.75,   417.65  L  1368.27,   417.65 " /><title ewd:textID="42">螺旋电缆分总成、方向盘衬垫开关总成</title></a><a ewd:figtype="conn" style="cursor:pointer;" ewd:code="z6" ewd:figID="10"><path style="&st5;" d=" M  1249.29,   639.18  L  1512.75,   639.18  L  1512.75,   426.71  L  1249.29,   426.71  L  1249.29,   639.18 " /><title ewd:textID="42">螺旋电缆分总成、方向盘衬垫开关总成</title></a><a ewd:figtype="rb" style="cursor:pointer;" ewd:code="FUSE20" ewd:figID="11"><path style="fill:#CCECF4;stroke:#000000; stroke-width:0; stroke-linecap:round;stroke-linejoin:round; " d=" M   233.71,    35.78  L   233.71,    78.27  L   259.21,    78.27  L   259.21,    35.78  L   233.71,    35.78 " /></a><a ewd:figtype="conn" style="cursor:pointer;" ewd:code="L35" ewd:figID="12"><path style="&st5;" d=" M  1181.30,   447.96  L  1181.30,   456.46  L  1177.05,   464.96  L  1202.55,   464.96  L  1198.30,   456.46  L  1198.30,   447.96  L  1181.30,   447.96 " /><title ewd:textID="37">右后扬声器总成</title></a><a ewd:figtype="conn" style="cursor:pointer;" ewd:code="L29" ewd:figID="13"><path style="&st5;" d=" M  1869.69,   409.72  L  2031.16,   409.72  L  2031.16,   367.22  L  1869.69,   367.22  L  1869.69,   409.72 " /><title ewd:textID="38">后电视摄像机总成</title></a><a ewd:figtype="conn" style="cursor:pointer;" ewd:code="L36" ewd:figID="14"><path style="&st5;" d=" M  1096.32,   447.96  L  1096.32,   456.46  L  1092.07,   464.96  L  1117.56,   464.96  L  1113.31,   456.46  L  1113.31,   447.96  L  1096.32,   447.96 " /><title ewd:textID="36">左后扬声器总成</title></a><a ewd:figtype="conn" style="cursor:pointer;" ewd:code="E74" ewd:figID="15"><path style="&st5;" d=" M  2796.03,   222.75  L  2847.02,   222.75  L  2847.02,   239.75  L  2796.03,   239.75  L  2796.03,   222.75 " /><title ewd:textID="27">2 号 CAN 接线连接器</title></a><a ewd:figtype="conn" style="cursor:pointer;" ewd:code="A41,A42" ewd:figID="16"><path style="&st5;" d=" M  3161.47,   341.73  L  3195.47,   341.73  L  3195.47,   307.73  L  3161.47,   307.73  L  3161.47,   341.73 " /><title ewd:textID="13">制动执行器总成</title></a><a ewd:figtype="rb" style="cursor:pointer;" ewd:code="FUSE6" ewd:figID="17"><path style="fill:#CCECF4;stroke:#000000; stroke-width:0; stroke-linecap:round;stroke-linejoin:round; " d=" M  3369.69,    35.78  L  3369.69,    78.27  L  3395.18,    78.27  L  3395.18,    35.78  L  3369.69,    35.78 " /></a><a ewd:figtype="conn" style="cursor:pointer;" ewd:code="E1,E2,E3,E4,E5,E6,E32,E33,E34,E35,X2,X3" ewd:figID="18"><path style="&st5;" d=" M   373.94,    78.27  L   373.94,   120.77  L  3059.49,   120.77  L  3059.49,    78.27  L   373.94,    78.27 " /><title ewd:textID="25">导航接收器总成、无线电收音机和显示屏接收器总成、无线电收音机总成</title></a><a ewd:figtype="conn" style="cursor:pointer;" ewd:code="X1" ewd:figID="19"><path style="&st5;" d=" M  2150.14,   409.72  L  2524.08,   409.72  L  2524.08,   367.22  L  2150.14,   367.22  L  2150.14,   409.72 " /><title ewd:textID="26">1 号立体声插座适配器总成</title></a><a ewd:figtype="conn" style="cursor:pointer;" ewd:code="E55" ewd:figID="20"><path style="&st5;" d=" M  3254.96,   282.24  L  3254.96,   494.70  L  3560.91,   494.70  L  3560.91,   282.24  L  3254.96,   282.24 " /><title ewd:textID="15">组合仪表总成</title></a><a ewd:figtype="jb" style="cursor:pointer;" ewd:code="3" ewd:figID="24"><path style="&st4; " d=" M   152.97,   103.77  L   212.46,   103.77  L   212.46,    35.78  L   152.97,    35.78  L   152.97,   103.77  " /></a><a ewd:figtype="jb" style="cursor:pointer;" ewd:code="3" ewd:figID="25"><path style="&st4; " d=" M   297.45,   103.77  L   356.94,   103.77  L   356.94,    35.78  L   297.45,    35.78  L   297.45,   103.77  " /></a><a ewd:figtype="jb" style="cursor:pointer;" ewd:code="3" ewd:figID="26"><path style="&st4; " d=" M   552.41,   214.25  L   552.41,   265.24  L   577.90,   265.24  L   577.90,   214.25  L   552.41,   214.25  " /></a><a ewd:figtype="jb" style="cursor:pointer;" ewd:code="3" ewd:figID="27"><path style="&st4; " d=" M    76.49,    35.78  L    76.49,   103.77  L   135.98,   103.77  L   135.98,    35.78  L    76.49,    35.78  " /></a><a ewd:figtype="jb" style="cursor:pointer;" ewd:code="3" ewd:figID="28"><path style="&st4; " d=" M   943.34,   214.25  L   943.34,   265.24  L   968.84,   265.24  L   968.84,   214.25  L   943.34,   214.25  " /></a><a ewd:figtype="jb" style="cursor:pointer;" ewd:code="3" ewd:figID="29"><path style="&st4; " d=" M  2915.01,   273.74  L  2940.51,   273.74  L  2940.51,   222.75  L  2915.01,   222.75  L  2915.01,   273.74  " /></a><a ewd:figtype="jb" style="cursor:pointer;" ewd:code="3" ewd:figID="30"><path style="&st4; " d=" M  3365.44,   154.76  L  3365.44,   205.75  L  3390.93,   205.75  L  3390.93,   154.76  L  3365.44,   154.76  " /></a><a ewd:figtype="jb" style="cursor:pointer;" ewd:code="3" ewd:figID="31"><path style="&st4; " d=" M  3450.42,    35.78  L  3450.42,   103.77  L  3509.91,   103.77  L  3509.91,    35.78  L  3450.42,    35.78  " /></a><a ewd:figtype="fuse" style="cursor:pointer;" ewd:code="FUSE45" ewd:figID="62"><path style="&st7; stroke-width:0;" d=" M    80.74,    35.78  L    80.74,    78.27  L   106.23,    78.27  L   106.23,    35.78  L    80.74,    35.78 " /></a><a ewd:figtype="fuse" style="cursor:pointer;" ewd:code="FUSE46" ewd:figID="63"><path style="&st7; stroke-width:0;" d=" M   157.22,    35.78  L   157.22,    78.27  L   182.72,    78.27  L   182.72,    35.78  L   157.22,    35.78 " /></a><a ewd:figtype="fuse" style="cursor:pointer;" ewd:code="FUSE20" ewd:figID="64"><path style="&st7; stroke-width:0;" d=" M   233.71,    35.78  L   233.71,    78.27  L   259.21,    78.27  L   259.21,    35.78  L   233.71,    35.78 " /></a><a ewd:figtype="fuse" style="cursor:pointer;" ewd:code="FUSE43" ewd:figID="65"><path style="&st7; stroke-width:0;" d=" M   301.70,    35.78  L   301.70,    78.27  L   327.20,    78.27  L   327.20,    35.78  L   301.70,    35.78 " /></a><a ewd:figtype="fuse" style="cursor:pointer;" ewd:code="FUSE6" ewd:figID="66"><path style="&st7; stroke-width:0;" d=" M  3369.69,    35.78  L  3369.69,    78.27  L  3395.18,    78.27  L  3395.18,    35.78  L  3369.69,    35.78 " /></a><a ewd:figtype="fuse" style="cursor:pointer;" ewd:code="FUSE39" ewd:figID="67"><path style="&st7; stroke-width:0;" d=" M  3454.67,    35.78  L  3454.67,    78.27  L  3480.17,    78.27  L  3480.17,    35.78  L  3454.67,    35.78 " /></a><a style="cursor:pointer;" ewd:lineID="1"><path style="stroke:#00A0C6;stroke-width: 5.10 ;&st6;" d=" M    33.99,   351.36  L    33.99,   503.20  L   101.98,   503.20  L   110.48,   511.70  L   110.48,   520.20  " /></a><a style="cursor:pointer;" ewd:lineID="2"><path style="stroke:#FF0000;stroke-width: 5.10 ;&st6;" d=" M    93.48,   307.73  L    93.48,   197.25  " /></a><a style="cursor:pointer;" ewd:lineID="3"><path style="stroke:#008837;stroke-width: 5.10 ;&st6;" d=" M    93.48,   197.25  L    93.48,   205.75  L    84.99,   214.25  L    33.99,   214.25  L    33.99,   281.10  " /></a><a style="cursor:pointer;" ewd:lineID="4"><path style="stroke:#FF0000;stroke-width: 5.10 ;&st6;" d=" M    93.48,   103.77  L    93.48,   182.52  " /></a><a style="cursor:pointer;" ewd:lineID="5"><path style="stroke:#FF0000;stroke-width: 5.10 ;&st6;" d=" M   110.48,   534.93  L   110.48,   571.19  L   569.40,   571.19  L   569.40,   265.24  " /></a><a style="cursor:pointer;" ewd:lineID="6"><path style="stroke:#00A0C6;stroke-width: 5.10 ;&st6;" d=" M   110.48,   443.71  L   110.48,   520.20  " /></a><a style="cursor:pointer;" ewd:lineID="7"><path style="stroke:#00A0C6;stroke-width: 5.10 ;&st6;" d=" M   110.48,   426.71  L   110.48,   341.73  " /></a><a style="cursor:pointer;" ewd:lineID="8"><path style="stroke:#00A0C6;stroke-width: 5.10 ;&st6;" d=" M   169.97,   103.77  L   169.97,   282.24  L   458.92,   282.24  L   458.92,   138.90  " /></a><a style="cursor:pointer;" ewd:lineID="9"><path style="stroke:#99D9E8;stroke-width: 5.10 ;&st6;" d=" M   246.46,   160.99  L   246.46,   256.74  L   424.93,   256.74  L   424.93,   147.96  " /></a><a style="cursor:pointer;" ewd:lineID="10"><path style="stroke:#99D9E8;stroke-width: 5.10 ;&st6;" d=" M   246.46,   103.77  L   246.46,   146.26  " /></a><a style="cursor:pointer;" ewd:lineID="11"><path style="stroke:#999999;stroke-width: 5.10 ;&st6;" d=" M   314.45,   103.77  L   314.45,   231.25  L   390.93,   231.25  L   390.93,   147.96  " /></a><a style="cursor:pointer;" ewd:lineID="12"><path style="stroke:#FF0000;stroke-width: 5.10 ;&st6;" d=" M   569.40,   138.90  L   569.40,   214.25  " /></a><a style="cursor:pointer;" ewd:lineID="13"><path style="stroke:#992903;stroke-width: 5.10 ;&st6;" d=" M   628.89,   147.96  L   628.89,   681.67  " /></a><a style="cursor:pointer;" ewd:lineID="14"><path style="stroke:#F668B2;stroke-width: 5.10 ;&st6;" d=" M   696.88,   316.23  L   696.88,   231.25  " /></a><a style="cursor:pointer;" ewd:lineID="15"><path style="stroke:#F668B2;stroke-width: 5.10 ;&st6;" d=" M   696.88,   216.52  L   696.88,   147.96  " /></a><a style="cursor:pointer;" ewd:lineID="16"><path style="stroke:#FF0000;stroke-width: 5.10 ;&st6;" d=" M   713.88,   418.22  L   696.88,   418.22  L   696.88,   358.73  " /></a><a style="cursor:pointer;" ewd:lineID="17"> d=" M   730.88,   418.22  L   756.37,   418.22  L   756.37,   358.73 
	
		<path style="stroke:#000000;stroke-width: 5.10 ;&st6;" d=" M   730.88,   418.22  L   756.37,   418.22  L   756.37,   358.73  " /><path style="stroke:#FFFFFF;stroke-width: 4.53 ;&st6;" d=" M   730.88,   418.22  L   756.37,   418.22  L   756.37,   358.73  " /></a><a style="cursor:pointer;" ewd:lineID="18"><path style="stroke:#56077D;stroke-width: 5.10 ;&st6;" d=" M   756.37,   316.23  L   756.37,   231.25  " /></a><a style="cursor:pointer;" ewd:lineID="19"><path style="stroke:#56077D;stroke-width: 5.10 ;&st6;" d=" M   756.37,   216.52  L   756.37,   147.96  " /></a><a style="cursor:pointer;" ewd:lineID="20"><path style="stroke:#7FC97F;stroke-width: 5.10 ;&st6;" d=" M   824.36,   316.23  L   824.36,   231.25  " /></a><a style="cursor:pointer;" ewd:lineID="21"><path style="stroke:#7FC97F;stroke-width: 5.10 ;&st6;" d=" M   824.36,   216.52  L   824.36,   147.96  " /></a><a style="cursor:pointer;" ewd:lineID="22"><path style="stroke:#FF0000;stroke-width: 5.10 ;&st6;" d=" M   841.36,   418.22  L   824.36,   418.22  L   824.36,   358.73  " /></a><a style="cursor:pointer;" ewd:lineID="23"> d=" M   858.36,   418.22  L   883.85,   418.22  L   883.85,   358.73 
	
		<path style="stroke:#000000;stroke-width: 5.10 ;&st6;" d=" M   858.36,   418.22  L   883.85,   418.22  L   883.85,   358.73  " /><path style="stroke:#FFFFFF;stroke-width: 4.53 ;&st6;" d=" M   858.36,   418.22  L   883.85,   418.22  L   883.85,   358.73  " /></a><a style="cursor:pointer;" ewd:lineID="24"><path style="stroke:#00A0C6;stroke-width: 5.10 ;&st6;" d=" M   883.85,   316.23  L   883.85,   231.25  " /></a><a style="cursor:pointer;" ewd:lineID="25"><path style="stroke:#00A0C6;stroke-width: 5.10 ;&st6;" d=" M   883.85,   216.52  L   883.85,   147.96  " /></a><a style="cursor:pointer;" ewd:lineID="26"><path style="stroke:#000000;stroke-width: 5.10 ;&st6;" d=" M   960.34,   265.24  L   960.34,   358.73  " /></a><a style="cursor:pointer;" ewd:lineID="27"><path style="stroke:#000000;stroke-width: 5.10 ;&st6;" d=" M   960.34,   138.90  L   960.34,   214.25  " /></a><a style="cursor:pointer;" ewd:lineID="28"><path style="stroke:#000000;stroke-width: 5.10 ;&st6;" d=" M  1079.32,   237.48  L  1079.32,   452.21  L  1096.32,   452.21  " /></a><a style="cursor:pointer;" ewd:lineID="29"><path style="stroke:#000000;stroke-width: 5.10 ;&st6;" d=" M  1079.32,   147.96  L  1079.32,   222.75  " /></a><a style="cursor:pointer;" ewd:lineID="30"><path style="stroke:#FFE600;stroke-width: 5.10 ;&st6;" d=" M  1130.31,   237.48  L  1130.31,   452.21  L  1113.31,   452.21  " /></a><a style="cursor:pointer;" ewd:lineID="31"><path style="stroke:#FFE600;stroke-width: 5.10 ;&st6;" d=" M  1130.31,   147.96  L  1130.31,   222.75  " /></a><a style="cursor:pointer;" ewd:lineID="32"><path style="stroke:#FF0000;stroke-width: 5.10 ;&st6;" d=" M  1164.31,   237.48  L  1164.31,   452.21  L  1181.30,   452.21  " /></a><a style="cursor:pointer;" ewd:lineID="33"><path style="stroke:#FF0000;stroke-width: 5.10 ;&st6;" d=" M  1164.31,   147.96  L  1164.31,   222.75  " /></a><a style="cursor:pointer;" ewd:lineID="34"> d=" M  1215.30,   237.76  L  1215.30,   452.21  L  1198.30,   452.21 
	
		<path style="stroke:#000000;stroke-width: 5.10 ;&st6;" d=" M  1215.30,   237.76  L  1215.30,   452.21  L  1198.30,   452.21  " /><path style="stroke:#FFFFFF;stroke-width: 4.53 ;&st6;" d=" M  1215.30,   237.76  L  1215.30,   452.21  L  1198.30,   452.21  " /></a><a style="cursor:pointer;" ewd:lineID="35"> d=" M  1215.30,   147.96  L  1215.30,   222.75 
	
		<path style="stroke:#000000;stroke-width: 5.10 ;&st6;" d=" M  1215.30,   147.96  L  1215.30,   222.75  " /><path style="stroke:#FFFFFF;stroke-width: 4.53 ;&st6;" d=" M  1215.30,   147.96  L  1215.30,   222.75  " /></a><a ewd:comment="4" style="cursor:pointer;" ewd:lineID="36"><path style="stroke:#FF0000;stroke-width: 5.10 ;&st6;" d=" M  1385.27,   147.96  L  1385.27,   383.65  " /></a><a ewd:comment="4" style="cursor:pointer;" ewd:lineID="37"><path style="stroke:#000000;stroke-width: 5.10 ;&st6;" d=" M  1436.26,   147.96  L  1436.26,   383.65  " /></a><a ewd:comment="4" style="cursor:pointer;" ewd:lineID="38"><path style="stroke:#99D9E8;stroke-width: 5.10 ;&st6;" d=" M  1487.25,   147.96  L  1487.25,   383.65  " /></a><a style="cursor:pointer;" ewd:lineID="39"><path style="stroke:#FF0000;stroke-width: 5.10 ;&st6;" d=" M  1614.73,   367.22  L  1614.73,   256.74  " /></a><a style="cursor:pointer;" ewd:lineID="40"><path style="stroke:#FF0000;stroke-width: 5.10 ;&st6;" d=" M  1614.73,   138.90  L  1614.73,   242.01  " /></a><a style="cursor:pointer;" ewd:lineID="41"><path style="stroke:#000000;stroke-width: 5.10 ;&st6;" d=" M  1657.22,   367.22  L  1657.22,   256.74  " /></a><a style="cursor:pointer;" ewd:lineID="42"><path style="stroke:#000000;stroke-width: 5.10 ;&st6;" d=" M  1657.22,   138.90  L  1657.22,   242.01  " /></a><a style="cursor:pointer;" ewd:lineID="43"> d=" M  1699.72,   256.74  L  1699.72,   367.22 
	
		<path style="stroke:#000000;stroke-width: 5.10 ;&st6;" d=" M  1699.72,   256.74  L  1699.72,   367.22  " /><path style="stroke:#FFFFFF;stroke-width: 4.53 ;&st6;" d=" M  1699.72,   256.74  L  1699.72,   367.22  " /></a><a style="cursor:pointer;" ewd:lineID="44"> d=" M  1699.72,   138.90  L  1699.72,   241.73 
	
		<path style="stroke:#000000;stroke-width: 5.10 ;&st6;" d=" M  1699.72,   138.90  L  1699.72,   241.73  " /><path style="stroke:#FFFFFF;stroke-width: 4.53 ;&st6;" d=" M  1699.72,   138.90  L  1699.72,   241.73  " /></a><a style="cursor:pointer;" ewd:lineID="45"><path style="stroke:#008837;stroke-width: 5.10 ;&st6;" d=" M  1784.70,   367.22  L  1784.70,   256.74  " /></a><a style="cursor:pointer;" ewd:lineID="46"><path style="stroke:#008837;stroke-width: 5.10 ;&st6;" d=" M  1784.70,   138.90  L  1784.70,   242.01  " /></a><a style="cursor:pointer;" ewd:lineID="47"><path style="stroke:#FF0000;stroke-width: 5.10 ;&st6;" d=" M  1886.68,   367.22  L  1886.68,   262.97  " /></a><a style="cursor:pointer;" ewd:lineID="48"><path style="stroke:#FF0000;stroke-width: 5.10 ;&st6;" d=" M  1886.68,   138.90  L  1886.68,   248.24  " /></a><a style="cursor:pointer;" ewd:lineID="49"><path style="stroke:#000000;stroke-width: 5.10 ;&st6;" d=" M  1929.18,   367.22  L  1929.18,   262.97  " /></a><a style="cursor:pointer;" ewd:lineID="50"><path style="stroke:#000000;stroke-width: 5.10 ;&st6;" d=" M  1929.18,   138.90  L  1929.18,   248.24  " /></a><a style="cursor:pointer;" ewd:lineID="51"> d=" M  1971.67,   263.26  L  1971.67,   367.22 
	
		<path style="stroke:#000000;stroke-width: 5.10 ;&st6;" d=" M  1971.67,   263.26  L  1971.67,   367.22  " /><path style="stroke:#FFFFFF;stroke-width: 4.53 ;&st6;" d=" M  1971.67,   263.26  L  1971.67,   367.22  " /></a><a style="cursor:pointer;" ewd:lineID="52"> d=" M  1971.67,   138.90  L  1971.67,   248.24 
	
		<path style="stroke:#000000;stroke-width: 5.10 ;&st6;" d=" M  1971.67,   138.90  L  1971.67,   248.24  " /><path style="stroke:#FFFFFF;stroke-width: 4.53 ;&st6;" d=" M  1971.67,   138.90  L  1971.67,   248.24  " /></a><a style="cursor:pointer;" ewd:lineID="53"><path style="stroke:#992903;stroke-width: 5.10 ;&st6;" d=" M  2014.16,   367.22  L  2014.16,   324.73  " /></a><a style="cursor:pointer;" ewd:lineID="54"><path style="stroke:#FF0000;stroke-width: 5.10 ;&st6;" d=" M  2167.14,   367.22  L  2167.14,   262.97  " /></a><a style="cursor:pointer;" ewd:lineID="55"><path style="stroke:#000000;stroke-width: 5.10 ;&st6;" d=" M  2167.14,   138.90  L  2167.14,   248.24  " /></a><a style="cursor:pointer;" ewd:lineID="56"><path style="stroke:#000000;stroke-width: 5.10 ;&st6;" d=" M  2209.63,   367.22  L  2209.63,   262.97  " /></a><a style="cursor:pointer;" ewd:lineID="57"><path style="stroke:#008837;stroke-width: 5.10 ;&st6;" d=" M  2209.63,   138.90  L  2209.63,   248.24  " /></a><a style="cursor:pointer;" ewd:lineID="58"> d=" M  2252.12,   263.26  L  2252.12,   367.22 
	
		<path style="stroke:#000000;stroke-width: 5.10 ;&st6;" d=" M  2252.12,   263.26  L  2252.12,   367.22  " /><path style="stroke:#FFFFFF;stroke-width: 4.53 ;&st6;" d=" M  2252.12,   263.26  L  2252.12,   367.22  " /></a><a style="cursor:pointer;" ewd:lineID="59"><path style="stroke:#FF0000;stroke-width: 5.10 ;&st6;" d=" M  2252.12,   138.90  L  2252.12,   248.24  " /></a><a style="cursor:pointer;" ewd:lineID="60"><path style="stroke:#000000;stroke-width: 5.10 ;&st6;" d=" M  2337.11,   262.97  L  2337.11,   367.22  " /></a><a style="cursor:pointer;" ewd:lineID="61"><path style="stroke:#99D9E8;stroke-width: 5.10 ;&st6;" d=" M  2337.11,   138.90  L  2337.11,   248.24  " /></a><a ewd:comment="#," style="cursor:pointer;" ewd:lineID="62"><path style="stroke:#000000;stroke-width: 0.85 ;&st6;" d=" M  2379.60,   138.90  L  2379.60,   367.22  " /></a><a ewd:comment="#," style="cursor:pointer;" ewd:lineID="63"><path style="stroke:#000000;stroke-width: 0.85 ;&st6;" d=" M  2422.10,   138.90  L  2422.10,   367.22  " /></a><a ewd:comment="#," style="cursor:pointer;" ewd:lineID="64"><path style="stroke:#000000;stroke-width: 0.85 ;&st6;" d=" M  2464.59,   138.90  L  2464.59,   367.22  " /></a><a ewd:comment="#," style="cursor:pointer;" ewd:lineID="65"><path style="stroke:#000000;stroke-width: 0.85 ;&st6;" d=" M  2507.08,   138.90  L  2507.08,   367.22  " /></a><a style="cursor:pointer;" ewd:lineID="66"> d=" M  2804.53,   138.90  L  2804.53,   222.75 
	
		<path style="stroke:#000000;stroke-width: 5.10 ;&st6;" d=" M  2804.53,   138.90  L  2804.53,   222.75  " /><path style="stroke:#FFFFFF;stroke-width: 4.53 ;&st6;" d=" M  2804.53,   138.90  L  2804.53,   222.75  " /></a><a style="cursor:pointer;" ewd:lineID="67"><path style="stroke:#008837;stroke-width: 5.10 ;&st6;" d=" M  2838.53,   138.90  L  2838.53,   222.75  " /></a><a style="cursor:pointer;" ewd:lineID="68"><path style="stroke:#56077D;stroke-width: 5.10 ;&st6;" d=" M  2932.01,   273.74  L  2932.01,   596.69  L  3339.94,   596.69  L  3339.94,   503.77  " /></a><a style="cursor:pointer;" ewd:lineID="69"><path style="stroke:#56077D;stroke-width: 5.10 ;&st6;" d=" M  2932.01,   138.90  L  2932.01,   222.75  " /></a><a style="cursor:pointer;" ewd:lineID="70"><path style="stroke:#FF0000;stroke-width: 5.10 ;&st6;" d=" M  3008.50,   129.83  L  3008.50,   197.25  L  3280.45,   197.25  L  3280.45,   273.17  " /></a><a style="cursor:pointer;" ewd:lineID="71"> d=" M  3042.49,   129.83  L  3042.49,   180.26  L  3314.45,   180.26  L  3314.45,   273.17 
	
		<path style="stroke:#000000;stroke-width: 5.10 ;&st6;" d=" M  3042.49,   129.83  L  3042.49,   180.26  L  3314.45,   180.26  L  3314.45,   273.17  " /><path style="stroke:#FFFFFF;stroke-width: 4.53 ;&st6;" d=" M  3042.49,   129.83  L  3042.49,   180.26  L  3314.45,   180.26  L  3314.45,   273.17  " /></a><a style="cursor:pointer;" ewd:lineID="72"><path style="stroke:#000000;stroke-width: 5.10 ;&st6;" d=" M  3178.47,   452.21  L  3178.47,   359.86  " /></a><a style="cursor:pointer;" ewd:lineID="73"><path style="stroke:#FF0000;stroke-width: 5.10 ;&st6;" d=" M  3288.95,   503.77  L  3288.95,   579.69  L  3178.47,   579.69  L  3178.47,   466.94  " /></a><a style="cursor:pointer;" ewd:lineID="74"> d=" M  3382.43,   205.75  L  3382.43,   273.17 
	
		<path style="stroke:#000000;stroke-width: 5.10 ;&st6;" d=" M  3382.43,   205.75  L  3382.43,   273.17  " /><path style="stroke:#FFFFFF;stroke-width: 4.53 ;&st6;" d=" M  3382.43,   205.75  L  3382.43,   273.17  " /></a><a style="cursor:pointer;" ewd:lineID="75"> d=" M  3382.43,   103.77  L  3382.43,   154.76 
	
		<path style="stroke:#000000;stroke-width: 5.10 ;&st6;" d=" M  3382.43,   103.77  L  3382.43,   154.76  " /><path style="stroke:#FFFFFF;stroke-width: 4.53 ;&st6;" d=" M  3382.43,   103.77  L  3382.43,   154.76  " /></a><a style="cursor:pointer;" ewd:lineID="76"><path style="stroke:#7FC97F;stroke-width: 5.10 ;&st6;" d=" M  3407.93,   503.77  L  3407.93,   613.68  L  2838.53,   613.68  L  2838.53,   239.75  " /></a><a style="cursor:pointer;" ewd:lineID="77"> d=" M  3441.92,   503.77  L  3441.92,   630.68  L  2804.53,   630.68  L  2804.53,   239.75 
	
		<path style="stroke:#000000;stroke-width: 5.10 ;&st6;" d=" M  3441.92,   503.77  L  3441.92,   630.68  L  2804.53,   630.68  L  2804.53,   239.75  " /><path style="stroke:#FFFFFF;stroke-width: 4.53 ;&st6;" d=" M  3441.92,   503.77  L  3441.92,   630.68  L  2804.53,   630.68  L  2804.53,   239.75  " /></a><a style="cursor:pointer;" ewd:lineID="78"><path style="stroke:#F668B2;stroke-width: 5.10 ;&st6;" d=" M  3467.42,   273.17  L  3467.42,   103.77  " /></a><a style="cursor:pointer;" ewd:lineID="79"><path style="stroke:#992903;stroke-width: 5.10 ;&st6;" d=" M  3492.92,   503.77  L  3492.92,   681.67  " /></a><a style="cursor:pointer;" ewd:lineID="80"><path style="stroke:#000000;stroke-width: 0.85;stroke-dasharray:3, 1.5;&st6;" d=" M  1742.21,   282.24  L  1742.21,   256.74  " /></a><a style="cursor:pointer;" ewd:lineID="81"><path style="stroke:#000000;stroke-width: 0.85;stroke-dasharray:3, 1.5;&st6;" d=" M  1742.21,   138.90  L  1742.21,   180.26  " /></a><a style="cursor:pointer;" ewd:lineID="82"><path style="stroke:#000000;stroke-width: 0.85;stroke-dasharray:3, 1.5;&st6;" d=" M  2014.16,   138.90  L  2014.16,   180.26  " /></a><a style="cursor:pointer;" ewd:lineID="83"><path style="stroke:#000000;stroke-width: 0.85;stroke-dasharray:3, 1.5;&st6;" d=" M  2014.16,   282.24  L  2014.16,   256.74  " /></a><a style="cursor:pointer;" ewd:lineID="84"><path style="stroke:#000000;stroke-width: 0.85;stroke-dasharray:3, 1.5;&st6;" d=" M  2294.62,   282.24  L  2294.62,   256.74  " /></a><a style="cursor:pointer;" ewd:lineID="85"><path style="stroke:#000000;stroke-width: 0.85;stroke-dasharray:3, 1.5;&st6;" d=" M  2294.62,   138.90  L  2294.62,   180.26  " /></a><a style="cursor:pointer;" ewd:lineID="86"><path style="stroke:#000000;stroke-width: 0.85;stroke-dasharray:3, 1.5;&st6;" d=" M  2294.62,   316.23  L  2294.62,   367.22  " /></a><a style="cursor:pointer;" ewd:lineID="87"><path style="stroke:#000000;stroke-width: 0.85;stroke-dasharray:3, 1.5;&st6;" d=" M  2294.62,   214.25  L  2294.62,   248.24  " /></a><a style="cursor:pointer;" ewd:lineID="88"><path style="stroke:#000000;stroke-width: 0.85;stroke-dasharray:3, 1.5;&st6;" d=" M  1742.21,   214.25  L  1742.21,   248.24  " /></a><a style="cursor:pointer;" ewd:lineID="89"><path style="stroke:#000000;stroke-width: 0.85;stroke-dasharray:3, 1.5;&st6;" d=" M  2014.16,   214.25  L  2014.16,   248.24  " /></a><a ewd:figtype="w2w" style="cursor:pointer;" ewd:pinNo="10" ewd:code="BA2" ewd:figID="32"><path style="&st2;" d=" M   101.98,   188.75  L    84.99,   188.75  L    84.99,   197.25  L   101.98,   197.25  L   101.98,   188.75 " /><text style="&st8;" transform="matrix(&st16;  88.1  195.12 )"><tspan x="0" style="font-size:6px;font-family:'NSimSun';" y="0">BA2</tspan></text></a><a ewd:figtype="w2w" style="cursor:pointer;" ewd:pinNo="12" ewd:code="BA2" ewd:figID="33"><path style="&st2;" d=" M   118.98,   520.20  L   101.98,   520.20  L   101.98,   528.70  L   118.98,   528.70  L   118.98,   520.20 " /><text style="&st8;" transform="matrix(&st16;  105.1  526.57 )"><tspan x="0" style="font-size:6px;font-family:'NSimSun';" y="0">BA2</tspan></text></a><a ewd:figtype="w2w" style="cursor:pointer;" ewd:pinNo="12" ewd:code="AE3" ewd:figID="34"><path style="&st2;" d=" M   254.96,   146.26  L   237.96,   146.26  L   237.96,   154.76  L   254.96,   154.76  L   254.96,   146.26 " /><text style="&st8;" transform="matrix(&st16;  241.15  152.63 )"><tspan x="0" style="font-size:6px;font-family:'NSimSun';" y="0">AE3</tspan></text></a><a ewd:figtype="w2w" style="cursor:pointer;" ewd:pinNo="1" ewd:code="HE3" ewd:figID="35"><path style="&st2;" d=" M   705.38,   222.75  L   688.38,   222.75  L   688.38,   231.25  L   705.38,   231.25  L   705.38,   222.75 " /><text style="&st8;" transform="matrix(&st16;  691.39  229.12 )"><tspan x="0" style="font-size:6px;font-family:'NSimSun';" y="0">HE3</tspan></text></a><a ewd:figtype="w2w" style="cursor:pointer;" ewd:pinNo="2" ewd:code="HE3" ewd:figID="36"><path style="&st2;" d=" M   764.87,   222.75  L   747.88,   222.75  L   747.88,   231.25  L   764.87,   231.25  L   764.87,   222.75 " /><text style="&st8;" transform="matrix(&st16;  750.88  229.12 )"><tspan x="0" style="font-size:6px;font-family:'NSimSun';" y="0">HE3</tspan></text></a><a ewd:figtype="w2w" style="cursor:pointer;" ewd:pinNo="1" ewd:code="GE3" ewd:figID="37"><path style="&st2;" d=" M   832.86,   222.75  L   815.86,   222.75  L   815.86,   231.25  L   832.86,   231.25  L   832.86,   222.75 " /><text style="&st8;" transform="matrix(&st16;  818.91  229.12 )"><tspan x="0" style="font-size:6px;font-family:'NSimSun';" y="0">GE3</tspan></text></a><a ewd:figtype="w2w" style="cursor:pointer;" ewd:pinNo="2" ewd:code="GE3" ewd:figID="38"><path style="&st2;" d=" M   892.35,   222.75  L   875.35,   222.75  L   875.35,   231.25  L   892.35,   231.25  L   892.35,   222.75 " /><text style="&st8;" transform="matrix(&st16;  878.4  229.12 )"><tspan x="0" style="font-size:6px;font-family:'NSimSun';" y="0">GE3</tspan></text></a><a ewd:figtype="w2w" style="cursor:pointer;" ewd:pinNo="9" ewd:code="EL1" ewd:figID="39"><path style="&st2;" d=" M  1087.82,   222.75  L  1070.82,   222.75  L  1070.82,   231.25  L  1087.82,   231.25  L  1087.82,   222.75 " /><text style="&st8;" transform="matrix(&st16;  1074.24  229.12 )"><tspan x="0" style="font-size:6px;font-family:'NSimSun';" y="0">EL1</tspan></text></a><a ewd:figtype="w2w" style="cursor:pointer;" ewd:pinNo="10" ewd:code="EL1" ewd:figID="40"><path style="&st2;" d=" M  1138.81,   222.75  L  1121.81,   222.75  L  1121.81,   231.25  L  1138.81,   231.25  L  1138.81,   222.75 " /><text style="&st8;" transform="matrix(&st16;  1125.23  229.12 )"><tspan x="0" style="font-size:6px;font-family:'NSimSun';" y="0">EL1</tspan></text></a><a ewd:figtype="w2w" style="cursor:pointer;" ewd:pinNo="17" ewd:code="EL1" ewd:figID="41"><path style="&st2;" d=" M  1172.80,   222.75  L  1155.81,   222.75  L  1155.81,   231.25  L  1172.80,   231.25  L  1172.80,   222.75 " /><text style="&st8;" transform="matrix(&st16;  1159.23  229.12 )"><tspan x="0" style="font-size:6px;font-family:'NSimSun';" y="0">EL1</tspan></text></a><a ewd:figtype="w2w" style="cursor:pointer;" ewd:pinNo="18" ewd:code="EL1" ewd:figID="42"><path style="&st2;" d=" M  1223.80,   222.75  L  1206.80,   222.75  L  1206.80,   231.25  L  1223.80,   231.25  L  1223.80,   222.75 " /><text style="&st8;" transform="matrix(&st16;  1210.22  229.12 )"><tspan x="0" style="font-size:6px;font-family:'NSimSun';" y="0">EL1</tspan></text></a><a ewd:figtype="w2w" style="cursor:pointer;" ewd:pinNo="5" ewd:code="OE1" ewd:figID="43"><path style="&st2;" d=" M  1623.23,   248.24  L  1606.23,   248.24  L  1606.23,   256.74  L  1623.23,   256.74  L  1623.23,   248.24 " /><text style="&st8;" transform="matrix(&st16;  1609.12  254.61 )"><tspan x="0" style="font-size:6px;font-family:'NSimSun';" y="0">OE1</tspan></text></a><a ewd:figtype="w2w" style="cursor:pointer;" ewd:pinNo="7" ewd:code="OE1" ewd:figID="44"><path style="&st2;" d=" M  1665.72,   248.24  L  1648.72,   248.24  L  1648.72,   256.74  L  1665.72,   256.74  L  1665.72,   248.24 " /><text style="&st8;" transform="matrix(&st16;  1651.62  254.61 )"><tspan x="0" style="font-size:6px;font-family:'NSimSun';" y="0">OE1</tspan></text></a><a ewd:figtype="w2w" style="cursor:pointer;" ewd:pinNo="6" ewd:code="OE1" ewd:figID="45"><path style="&st2;" d=" M  1708.21,   248.24  L  1691.22,   248.24  L  1691.22,   256.74  L  1708.21,   256.74  L  1708.21,   248.24 " /><text style="&st8;" transform="matrix(&st16;  1694.11  254.61 )"><tspan x="0" style="font-size:6px;font-family:'NSimSun';" y="0">OE1</tspan></text></a><a ewd:figtype="w2w" style="cursor:pointer;" ewd:pinNo="8" ewd:code="OE1" ewd:figID="46"><path style="&st2;" d=" M  1750.71,   248.24  L  1733.71,   248.24  L  1733.71,   256.74  L  1750.71,   256.74  L  1750.71,   248.24 " /><text style="&st8;" transform="matrix(&st16;  1736.6  254.61 )"><tspan x="0" style="font-size:6px;font-family:'NSimSun';" y="0">OE1</tspan></text></a><a ewd:figtype="w2w" style="cursor:pointer;" ewd:pinNo="4" ewd:code="OE1" ewd:figID="47"><path style="&st2;" d=" M  1793.20,   248.24  L  1776.20,   248.24  L  1776.20,   256.74  L  1793.20,   256.74  L  1793.20,   248.24 " /><text style="&st8;" transform="matrix(&st16;  1779.1  254.61 )"><tspan x="0" style="font-size:6px;font-family:'NSimSun';" y="0">OE1</tspan></text></a><a ewd:figtype="w2w" style="cursor:pointer;" ewd:pinNo="5" ewd:code="EL1" ewd:figID="48"><path style="&st2;" d=" M  1895.18,   248.24  L  1878.19,   248.24  L  1878.19,   256.74  L  1895.18,   256.74  L  1895.18,   248.24 " /><text style="&st8;" transform="matrix(&st16;  1881.61  254.61 )"><tspan x="0" style="font-size:6px;font-family:'NSimSun';" y="0">EL1</tspan></text></a><a ewd:figtype="w2w" style="cursor:pointer;" ewd:pinNo="3" ewd:code="EL1" ewd:figID="49"><path style="&st2;" d=" M  1937.68,   248.24  L  1920.68,   248.24  L  1920.68,   256.74  L  1937.68,   256.74  L  1937.68,   248.24 " /><text style="&st8;" transform="matrix(&st16;  1924.1  254.61 )"><tspan x="0" style="font-size:6px;font-family:'NSimSun';" y="0">EL1</tspan></text></a><a ewd:figtype="w2w" style="cursor:pointer;" ewd:pinNo="4" ewd:code="EL1" ewd:figID="50"><path style="&st2;" d=" M  1980.17,   248.24  L  1963.17,   248.24  L  1963.17,   256.74  L  1980.17,   256.74  L  1980.17,   248.24 " /><text style="&st8;" transform="matrix(&st16;  1966.59  254.61 )"><tspan x="0" style="font-size:6px;font-family:'NSimSun';" y="0">EL1</tspan></text></a><a ewd:figtype="w2w" style="cursor:pointer;" ewd:pinNo="6" ewd:code="EL1" ewd:figID="51"><path style="&st2;" d=" M  2022.66,   248.24  L  2005.66,   248.24  L  2005.66,   256.74  L  2022.66,   256.74  L  2022.66,   248.24 " /><text style="&st8;" transform="matrix(&st16;  2009.08  254.61 )"><tspan x="0" style="font-size:6px;font-family:'NSimSun';" y="0">EL1</tspan></text></a><a ewd:figtype="w2w" style="cursor:pointer;" ewd:pinNo="2" ewd:code="EX1" ewd:figID="52"><path style="&st2;" d=" M  2175.64,   248.24  L  2158.64,   248.24  L  2158.64,   256.74  L  2175.64,   256.74  L  2175.64,   248.24 " /><text style="&st8;" transform="matrix(&st16;  2161.83  254.61 )"><tspan x="0" style="font-size:6px;font-family:'NSimSun';" y="0">EX1</tspan></text></a><a ewd:figtype="w2w" style="cursor:pointer;" ewd:pinNo="1" ewd:code="EX1" ewd:figID="53"><path style="&st2;" d=" M  2218.13,   248.24  L  2201.13,   248.24  L  2201.13,   256.74  L  2218.13,   256.74  L  2218.13,   248.24 " /><text style="&st8;" transform="matrix(&st16;  2204.33  254.61 )"><tspan x="0" style="font-size:6px;font-family:'NSimSun';" y="0">EX1</tspan></text></a><a ewd:figtype="w2w" style="cursor:pointer;" ewd:pinNo="3" ewd:code="EX1" ewd:figID="54"><path style="&st2;" d=" M  2260.62,   248.24  L  2243.63,   248.24  L  2243.63,   256.74  L  2260.62,   256.74  L  2260.62,   248.24 " /><text style="&st8;" transform="matrix(&st16;  2246.82  254.61 )"><tspan x="0" style="font-size:6px;font-family:'NSimSun';" y="0">EX1</tspan></text></a><a ewd:figtype="w2w" style="cursor:pointer;" ewd:pinNo="5" ewd:code="EX1" ewd:figID="55"><path style="&st2;" d=" M  2303.12,   248.24  L  2286.12,   248.24  L  2286.12,   256.74  L  2303.12,   256.74  L  2303.12,   248.24 " /><text style="&st8;" transform="matrix(&st16;  2289.31  254.61 )"><tspan x="0" style="font-size:6px;font-family:'NSimSun';" y="0">EX1</tspan></text></a><a ewd:figtype="w2w" style="cursor:pointer;" ewd:pinNo="4" ewd:code="EX1" ewd:figID="56"><path style="&st2;" d=" M  2345.61,   248.24  L  2328.61,   248.24  L  2328.61,   256.74  L  2345.61,   256.74  L  2345.61,   248.24 " /><text style="&st8;" transform="matrix(&st16;  2331.8  254.61 )"><tspan x="0" style="font-size:6px;font-family:'NSimSun';" y="0">EX1</tspan></text></a><a ewd:figtype="w2w" style="cursor:pointer;" ewd:pinNo="17" ewd:code="AE4" ewd:figID="57"><path style="&st2;" d=" M  3186.97,   452.21  L  3169.97,   452.21  L  3169.97,   460.71  L  3186.97,   460.71  L  3186.97,   452.21 " /><text style="&st8;" transform="matrix(&st16;  3173.16  458.58 )"><tspan x="0" style="font-size:6px;font-family:'NSimSun';" y="0">AE4</tspan></text></a><a ewd:figtype="gp" style="cursor:pointer;" ewd:code="ED" ewd:figID="58"><path style="&st2;" d=" M   618.27,   681.67  L   639.52,   681.67  L   628.89,   697.25  L   618.27,   681.67 " /><text style="&st8;" transform="matrix(&st16;  625.02  689.46 )"><tspan x="0" style="font-size:6px;font-family:'NSimSun';" y="0">ED</tspan></text></a><a ewd:figtype="gp" style="cursor:pointer;" ewd:code="ED" ewd:figID="59"><path style="&st2;" d=" M  3482.29,   681.67  L  3503.54,   681.67  L  3492.92,   697.25  L  3482.29,   681.67 " /><text style="&st8;" transform="matrix(&st16;  3489.04  689.46 )"><tspan x="0" style="font-size:6px;font-family:'NSimSun';" y="0">ED</tspan></text></a><a ewd:figtype="sp" style="cursor:pointer;" ewd:code="SP43" ewd:figID="60"><path style="&st2;" d=" M   106.23,   426.71  L   114.73,   426.71  L   118.98,   430.96  L   118.98,   439.46  L   114.73,   443.71  L   106.23,   443.71  L   101.98,   439.46  L   101.98,   430.96  L   106.23,   426.71 " /></a><a ewd:figtype="sp" style="cursor:pointer;" ewd:code="SP50" ewd:figID="61"><path style="&st2;" d=" M  2009.91,   307.73  L  2018.41,   307.73  L  2022.66,   311.98  L  2022.66,   320.48  L  2018.41,   324.73  L  2009.91,   324.73  L  2005.66,   320.48  L  2005.66,   311.98  L  2009.91,   307.73 " /></a></g></svg>