<?xml version="1.0" encoding="utf-8"?>
<!DOCTYPE svg PUBLIC "-//W3C//DTD SVG 1.0//EN" "http://www.w3.org/TR/2001/REC-SVG-20010904/DTD/svg10.dtd"[
	<!ENTITY ns_flows "http://ns.adobe.com/Flows/1.0/">
	<!ENTITY ns_svg "http://www.w3.org/2000/svg">
	<!ENTITY ns_xlink "http://www.w3.org/1999/xlink">
	<!ENTITY st0 "font-size:7px;font-family:'NSimSun';adobe-font-script:japanese;">
	<!ENTITY st1 "font-size:6px;font-family:'NSimSun';">
	<!-- White fill  -->
	<!ENTITY st2 "fill:#FFFFFF;stroke:#000000; stroke-width:1.41;stroke-linecap:round;stroke-linejoin:round;">
	<!-- Yellow fill  -->
	<!ENTITY st3 "fill:#FFFFCC;stroke:#FFFFCC; stroke-width:0.1;stroke-linecap:round;stroke-linejoin:round;">
	<!-- Gray fill  -->
	<!ENTITY st4 "fill:#CCCCCC;stroke:#CCCCCC; stroke-width:0.1;stroke-linecap:round;stroke-linejoin:round;">
	<!-- Light-blue fill -->
	<!ENTITY st5 "fill:#CCECF4;stroke:#000000; stroke-width:1.133;stroke-linecap:round;stroke-linejoin:round;">
	<!ENTITY st6 "fill:none;stroke-linecap:butt; stroke-linejoin:round;">
	<!ENTITY st7 "fill:none;stroke:#000000;stroke-linecap:round;stroke-linejoin:round;">
	<!ENTITY st8 "enable-background:new    ;">
	<!-- Black fill -->
	<!ENTITY st9 "fill:#000000;stroke:#000000; stroke-linecap:round;stroke-linejoin:round;">
	<!-- SRS note   -->
	<!ENTITY st10 "font-size:9px;font-family:'NSimSun';">
	<!ENTITY st11 "font-size:9px;font-family:'NSimSun';">
	<!ENTITY st12 "font-size:6px;font-family:'NSimSun';">
	<!ENTITY st13 "fill:none;stroke:#ff0000;stroke-linecap:round;stroke-linejoin:round;">
	<!-- Yellow fill  -->
	<!ENTITY st14 "fill:#FFFF00;stroke:#FFFF00; stroke-width:0.1;stroke-linecap:round;stroke-linejoin:round;">
	<!ENTITY st15 "font-size:6px;font-family:'NSimSun';adobe-font-script:japanese;">
	<!ENTITY st16 "1.00 0.00 0.00 1.00">
	<!ENTITY st17 "0.00 -1.00 1.00 0.00">
	<!ENTITY st18 "font-size:6px;font-family:'NSimSun';">
	<!ENTITY st19 "font-size:9px;font-family:'NSimSun';">
	<!ENTITY st20 "font-size:6px;font-family:'NSimSun';adobe-font-script:japanese;">
	<!ENTITY st21 "font-size:7px;font-family:'NSimSun';adobe-font-script:japanese;">
	<!ATTLIST svg
		xmlns:ewd CDATA #FIXED "http://shcl.co.jp/ewd"
		xmlns:a CDATA #FIXED "http://ns.adobe.com/AdobeSVGViewerExtensions/3.0/"
		ewd:ver CDATA #IMPLIED
	>
	<!ATTLIST a
		ewd:lineID CDATA #IMPLIED
		ewd:groupID CDATA #IMPLIED
		ewd:figtype CDATA #IMPLIED
		ewd:code CDATA #IMPLIED
		ewd:figID CDATA #IMPLIED
		ewd:pinNo CDATA #IMPLIED
		ewd:comment CDATA #IMPLIED >
	<!ATTLIST g
		ewd:lineID CDATA #IMPLIED
		ewd:groupID CDATA #IMPLIED
		ewd:figtype CDATA #IMPLIED
		ewd:code CDATA #IMPLIED
		ewd:figID CDATA #IMPLIED
		ewd:pinNo CDATA #IMPLIED
		ewd:comment CDATA #IMPLIED >
	<!ATTLIST text
		ewd:textID CDATA #IMPLIED
		ewd:horAlign CDATA #IMPLIED >
	<!ATTLIST title
		ewd:textID CDATA #IMPLIED >
]>
<!-- Generator: Shintec Hozumi YS   -->
<svg onload="call_execInitLoadProc_svg('system')" style="overflow:visible;  enable-background:new 0 0 376.198 710.000" viewBox="0 0 349.214 710.000" height="710.000" width="349.214" xml:space="preserve" ewd:ver="2.1.2.6F" xmlns="&ns_svg;" xmlns:ewd="http://shcl.co.jp/ewd" xmlns:a="http://ns.adobe.com/AdobeSVGViewerExtensions/3.0/" xmlns:xlink="&ns_xlink;">
	<script type="text/javascript" xlink:href="../../../../../system/js/ewd/fig/svgfig.js" xmlns:xlink="http://www.w3.org/1999/xlink" />
<g id="ewd_top">
	<a ewd:figtype="conn" style="cursor:pointer;" ewd:code="F3" ewd:figID="1">
		<path style="&st5;" d=" M   178.47,   367.22  L   178.47,   409.72  L   314.45,   409.72  L   314.45,   367.22  L   178.47,   367.22 "/>
		<title ewd:textID="1">时钟总成</title>
	</a>
	<a ewd:figtype="rb" style="cursor:pointer;" ewd:code="FUSE5" ewd:figID="2">
		<path style="fill:#CCECF4;stroke:#000000; stroke-width:0; stroke-linecap:round;stroke-linejoin:round; " d=" M   182.72,    35.78  L   182.72,    78.27  L   208.22,    78.27  L   208.22,    35.78  L   182.72,    35.78 "/>
	</a>
	<a ewd:figtype="conn" style="cursor:pointer;" ewd:code="E71" ewd:figID="3">
		<path style="&st5;" d=" M   186.97,   605.18  L   203.97,   605.18  L   203.97,   622.18  L   186.97,   622.18  L   186.97,   605.18 "/>
		<title ewd:textID="2">4 号接线连接器</title>
	</a>
	<a ewd:figtype="jb" style="cursor:pointer;" ewd:code="3" ewd:figID="5">
		<path style="&st4; " d=" M   280.45,    35.78  L   280.45,   103.77  L   339.94,   103.77  L   339.94,    35.78  L   280.45,    35.78  "/>
	</a>
	<a ewd:figtype="jb" style="cursor:pointer;" ewd:code="3" ewd:figID="6">
		<path style="&st4; " d=" M   178.47,   146.26  L   178.47,   197.25  L   203.97,   197.25  L   203.97,   146.26  L   178.47,   146.26  "/>
	</a>
	<a ewd:figtype="fuse" style="cursor:pointer;" ewd:code="FUSE5" ewd:figID="11">
		<path style="&st7; stroke-width:0;" d=" M   182.72,    35.78  L   182.72,    78.27  L   208.22,    78.27  L   208.22,    35.78  L   182.72,    35.78 "/>
	</a>
	<a ewd:figtype="fuse" style="cursor:pointer;" ewd:code="FUSE43" ewd:figID="12">
		<path style="&st7; stroke-width:0;" d=" M   284.70,    35.78  L   284.70,    78.27  L   310.20,    78.27  L   310.20,    35.78  L   284.70,    35.78 "/>
	</a>
	<a style="cursor:pointer;" ewd:lineID="1">
		<path style="stroke:#000000;stroke-width: 5.10 ;&st6;" d=" M   195.47,   622.18  L   195.47,   681.67  "/>
		<path style="stroke:#FFFFFF;stroke-width: 4.53 ;&st6;" d=" M   195.47,   622.18  L   195.47,   681.67  "/>
		<path style="stroke:#000000;stroke-width: 1.13 ;&st6;" d=" M   195.47,   622.18  L   195.47,   681.67  "/>
	</a>
	<a style="cursor:pointer;" ewd:lineID="2">
		<path style="stroke:#000000;stroke-width: 5.10 ;&st6;" d=" M   195.47,   605.18  L   195.47,   520.20  "/>
		<path style="stroke:#FFFFFF;stroke-width: 4.53 ;&st6;" d=" M   195.47,   605.18  L   195.47,   520.20  "/>
		<path style="stroke:#000000;stroke-width: 1.13 ;&st6;" d=" M   195.47,   605.18  L   195.47,   520.20  "/>
	</a>
	<a style="cursor:pointer;" ewd:lineID="3">
		<path style="stroke:#000000;stroke-width: 5.10 ;&st6;" d=" M   195.47,   505.47  L   195.47,   409.72  "/>
		<path style="stroke:#FFFFFF;stroke-width: 4.53 ;&st6;" d=" M   195.47,   505.47  L   195.47,   409.72  "/>
		<path style="stroke:#000000;stroke-width: 1.13 ;&st6;" d=" M   195.47,   505.47  L   195.47,   409.72  "/>
	</a>
	<a style="cursor:pointer;" ewd:lineID="4">
		<path style="stroke:#99D9E8;stroke-width: 5.10 ;&st6;" d=" M   195.47,   296.97  L   195.47,   367.22  "/>
	</a>
	<a style="cursor:pointer;" ewd:lineID="5">
		<path style="stroke:#99D9E8;stroke-width: 5.10 ;&st6;" d=" M   195.47,   197.25  L   195.47,   282.24  "/>
	</a>
	<a style="cursor:pointer;" ewd:lineID="6">
		<path style="stroke:#008837;stroke-width: 5.10 ;&st6;" d=" M   195.47,   103.77  L   195.47,   146.26  "/>
	</a>
	<a style="cursor:pointer;" ewd:lineID="7">
		<path style="stroke:#999999;stroke-width: 5.10 ;&st6;" d=" M   297.45,   296.97  L   297.45,   367.22  "/>
	</a>
	<a style="cursor:pointer;" ewd:lineID="8">
		<path style="stroke:#999999;stroke-width: 5.10 ;&st6;" d=" M   297.45,   103.77  L   297.45,   282.24  "/>
	</a>
	<g ewd:figtype="conn" ewd:figID="1" ewd:code="F3">
		<g ewd:lineID="3">
			<text style="font-size:6px;font-family:'NSimSun';" transform="matrix(&st16;  189.28  417.91 )">1</text>
			<text style="font-size:6px;font-family:'NSimSun';" transform="matrix(&st16;  193.36  406.02 )">E</text>
		</g>
		<g ewd:lineID="4">
			<text style="font-size:6px;font-family:'NSimSun';" transform="matrix(&st16;  189.28  363.53 )">7</text>
			<text style="font-size:6px;font-family:'NSimSun';" transform="matrix(&st16;  193.28  374.86 )">B</text>
		</g>
		<g ewd:lineID="7">
			<text style="font-size:6px;font-family:'NSimSun';" transform="matrix(&st16;  291.27  363.53 )">6</text>
			<text style="font-size:6px;font-family:'NSimSun';" transform="matrix(&st16;  290.8  374.86 )">ACC</text>
		</g>
		<path style="stroke-width: 1.42 ;&st7;  " d=" M   178.47,   367.22  L   178.47,   409.72  L   314.45,   409.72  L   314.45,   367.22  L   178.47,   367.22  "/>
		<g ewd:figtype="title">
			<text style="font-size:6px;font-family:'NSimSun';" transform="matrix(&st16;  316.71  384.77 )" ewd:textID="1">时钟总成</text>
			<text style="font-size:6px;font-family:'NSimSun';" transform="matrix(&st16;  316.7  377.67 )">F3</text>
		</g>
	</g>
	<g ewd:figtype="rb" ewd:figID="2" ewd:code="FUSE5">
		<text style="font-size:6px;font-family:'NSimSun';" transform="matrix(&st16;  211.89  53.34 )">10A <tspan x="0 " dy="6.0">ECU-B </tspan><tspan x="0 " dy="6.0">NO.1</tspan></text>
		<text style="font-size:6px;font-family:'NSimSun';" transform="matrix(&st16;  193.67  101.49 )">1</text>
		<text style="font-size:6px;font-family:'NSimSun';" transform="matrix(&st16;  189.28  86.47 )">2</text>
		<text style="font-size:6px;font-family:'NSimSun';" transform="matrix(&st16;  187.42  32.08 )">(BAT)</text>
		<path style="stroke-width: 0.28 ;&st9;  " d=" M   195.47,    90.37  L   192.63,    87.54  L   192.63,    91.79  L   195.47,    94.62  L   198.30,    91.79  L   198.30,    87.54  L   195.47,    90.37  "/>
		<path style="stroke-width: 1.42 ;&st7;   " d=" M   193.34,    95.27  C   191.00     95.27    189.09     97.17    189.09     99.52  "/>
		<path style="stroke-width: 1.42 ;&st7;   " d=" M   189.09,    99.52  C   189.09    101.87    191.00    103.77    193.34    103.77  "/>
		<path style="stroke-width: 1.42 ;&st7;   " d=" M   197.59,   103.77  C   199.94    103.77    201.84    101.87    201.84     99.52  "/>
		<path style="stroke-width: 1.42 ;&st7;   " d=" M   201.84,    99.52  C   201.84     97.17    199.94     95.27    197.59     95.27  "/>
		<path style="stroke-width: 1.42 ;&st7;  " d=" M   197.59,    95.27  L   193.34,    95.27  "/>
		<path style="stroke-width: 1.42 ;&st7;  " d=" M   197.59,   103.77  L   193.34,   103.77  "/>
		<path style="stroke-width: 0.85 ;&st7;  " d=" M   195.47,    78.27  L   195.47,    95.27  "/>
		<path style="stroke-width: 1.42 ;&st7;  " d=" M   182.72,    35.78  L   182.72,    78.27  L   208.22,    78.27  L   208.22,    35.78  L   182.72,    35.78  "/>
		<path style="stroke-width: 1.42 ;&st7;   " d=" M   195.47,    47.11  C   192.73     48.72    191.82     52.25    193.43     54.99  "/>
		<path style="stroke-width: 1.42 ;&st7;   " d=" M   193.43,    54.99  C   193.95     55.87    194.59     56.51    195.47     57.03  "/>
		<path style="stroke-width: 1.42 ;&st7;   " d=" M   195.47,    66.94  C   198.21     65.33    199.12     61.80    197.50     59.06  "/>
		<path style="stroke-width: 1.42 ;&st7;   " d=" M   197.50,    59.06  C   196.98     58.18    196.35     57.55    195.47     57.03  "/>
		<path style="stroke-width: 0.85 ;&st7;   " d=" M   196.88,    45.69  C   196.88     44.91    196.25     44.28    195.47     44.28  "/>
		<path style="stroke-width: 0.85 ;&st7;   " d=" M   195.47,    44.28  C   194.69     44.28    194.05     44.91    194.05     45.69  "/>
		<path style="stroke-width: 0.85 ;&st7;   " d=" M   194.05,    45.69  C   194.05     46.48    194.69     47.11    195.47     47.11  "/>
		<path style="stroke-width: 0.85 ;&st7;   " d=" M   195.47,    47.11  C   196.25     47.11    196.88     46.48    196.88     45.69  "/>
		<path style="stroke-width: 0.85 ;&st7;   " d=" M   196.88,    68.36  C   196.88     67.57    196.25     66.94    195.47     66.94  "/>
		<path style="stroke-width: 0.85 ;&st7;   " d=" M   195.47,    66.94  C   194.69     66.94    194.05     67.57    194.05     68.36  "/>
		<path style="stroke-width: 0.85 ;&st7;   " d=" M   194.05,    68.36  C   194.05     69.14    194.69     69.77    195.47     69.77  "/>
		<path style="stroke-width: 0.85 ;&st7;   " d=" M   195.47,    69.77  C   196.25     69.77    196.88     69.14    196.88     68.36  "/>
		<path style="stroke-width: 0.85 ;&st7;  " d=" M   195.47,    69.77  L   195.47,    78.27  "/>
	</g>
	<g ewd:figtype="conn" ewd:figID="3" ewd:code="E71">
		<path style="stroke-width: 1.42 ;&st7;  " d=" M   186.97,   605.18  L   203.97,   605.18  L   203.97,   622.18  L   186.97,   622.18  L   186.97,   605.18  "/>
		<path style="stroke-width: 0.85 ;&st7;  " d=" M   195.47,   605.18  L   195.47,   622.18  "/>
		<text style="font-size:6px;font-family:'NSimSun';" transform="matrix(&st16;  186.18  630.37 )">12</text>
		<text style="font-size:6px;font-family:'NSimSun';" transform="matrix(&st16;  186.18  601.49 )">18</text>
		<g ewd:figtype="title">
			<text style="font-size:6px;font-family:'NSimSun';" transform="matrix(&st17;  218.68  625.09 )" ewd:textID="2">4 号接线连接器<tspan x="0 " dy="6.0"></tspan></text>
			<text style="font-size:6px;font-family:'NSimSun';" transform="matrix(&st17;  211.86  625.08 )">E71</text>
		</g>
	</g>
	<g ewd:figtype="jb" ewd:figID="5" ewd:code="3">
		<text style="font-size:6px;font-family:'NSimSun';" transform="matrix(&st16;  288.94  32.08 )">(ACC)</text>
		<text style="font-size:6px;font-family:'NSimSun';" transform="matrix(&st16;  283.84  101.49 )">31</text>
		<text style="font-size:6px;font-family:'NSimSun';" transform="matrix(&st16;  293.52  101.49 )">3D</text>
		<text style="font-size:6px;font-family:'NSimSun';" transform="matrix(&st16;  313.87  56.17 )">7.5A <tspan x="0 " dy="6.0">ACC</tspan></text>
		<text style="font-size:6px;font-family:'NSimSun';" transform="matrix(&st16;  291.27  86.47 )">2</text>
		<path style="stroke-width: 1.42 ;&st7;  " d=" M   284.70,    35.78  L   284.70,    78.27  L   310.20,    78.27  L   310.20,    35.78  L   284.70,    35.78  "/>
		<path style="stroke-width: 0.28 ;&st9;  " d=" M   297.45,    90.37  L   294.62,    87.54  L   294.62,    91.79  L   297.45,    94.62  L   300.28,    91.79  L   300.28,    87.54  L   297.45,    90.37  "/>
		<path style="stroke-width: 1.42 ;&st7;   " d=" M   303.82,    99.52  C   303.82     97.17    301.92     95.27    299.57     95.27  "/>
		<path style="stroke-width: 1.42 ;&st7;   " d=" M   299.57,   103.77  C   301.92    103.77    303.82    101.87    303.82     99.52  "/>
		<path style="stroke-width: 1.42 ;&st7;   " d=" M   291.08,    99.52  C   291.08    101.87    292.98    103.77    295.33    103.77  "/>
		<path style="stroke-width: 1.42 ;&st7;   " d=" M   295.33,    95.27  C   292.98     95.27    291.08     97.17    291.08     99.52  "/>
		<path style="stroke-width: 0.85 ;&st7;   " d=" M   298.87,    68.36  C   298.87     67.57    298.23     66.94    297.45     66.94  "/>
		<path style="stroke-width: 0.85 ;&st7;   " d=" M   297.45,    66.94  C   296.67     66.94    296.03     67.57    296.03     68.36  "/>
		<path style="stroke-width: 0.85 ;&st7;   " d=" M   296.03,    68.36  C   296.03     69.14    296.67     69.77    297.45     69.77  "/>
		<path style="stroke-width: 0.85 ;&st7;   " d=" M   297.45,    69.77  C   298.23     69.77    298.87     69.14    298.87     68.36  "/>
		<path style="stroke-width: 0.85 ;&st7;   " d=" M   298.87,    45.69  C   298.87     44.91    298.23     44.28    297.45     44.28  "/>
		<path style="stroke-width: 0.85 ;&st7;   " d=" M   297.45,    44.28  C   296.67     44.28    296.03     44.91    296.03     45.69  "/>
		<path style="stroke-width: 0.85 ;&st7;   " d=" M   296.03,    45.69  C   296.03     46.48    296.67     47.11    297.45     47.11  "/>
		<path style="stroke-width: 0.85 ;&st7;   " d=" M   297.45,    47.11  C   298.23     47.11    298.87     46.48    298.87     45.69  "/>
		<path style="stroke-width: 1.42 ;&st7;   " d=" M   297.45,    66.94  C   300.19     65.33    301.10     61.80    299.49     59.06  "/>
		<path style="stroke-width: 1.42 ;&st7;   " d=" M   299.49,    59.06  C   298.97     58.18    298.33     57.55    297.45     57.03  "/>
		<path style="stroke-width: 1.42 ;&st7;   " d=" M   297.45,    47.11  C   294.71     48.72    293.80     52.25    295.41     54.99  "/>
		<path style="stroke-width: 1.42 ;&st7;   " d=" M   295.41,    54.99  C   295.93     55.87    296.57     56.51    297.45     57.03  "/>
		<path style="stroke-width: 0.85 ;&st7;  " d=" M   297.45,    78.27  L   297.45,    95.27  "/>
		<path style="stroke-width: 1.42 ;&st7;  " d=" M   299.57,   103.77  L   295.33,   103.77  "/>
		<path style="stroke-width: 1.42 ;&st7;  " d=" M   299.57,    95.27  L   295.33,    95.27  "/>
		<path style="stroke-width: 0.85 ;&st7;  " d=" M   297.45,    69.77  L   297.45,    78.27  "/>
	</g>
	<g ewd:figtype="jb" ewd:figID="6" ewd:code="3">
		<text style="font-size:6px;font-family:'NSimSun';" transform="matrix(&st16;  191.61  152.48 )">3A</text>
		<text style="font-size:6px;font-family:'NSimSun';" transform="matrix(&st16;  181.86  152.48 )">43</text>
		<text style="font-size:6px;font-family:'NSimSun';" transform="matrix(&st16;  191.5  194.97 )">3C</text>
		<text style="font-size:6px;font-family:'NSimSun';" transform="matrix(&st16;  181.86  194.97 )">50</text>
		<path style="stroke-width: 1.42 ;&st7;   " d=" M   201.84,   193.00  C   201.84    190.66    199.94    188.75    197.59    188.75  "/>
		<path style="stroke-width: 0.28 ;&st9;  " d=" M   195.47,   159.65  L   198.30,   162.49  L   198.30,   158.24  L   195.47,   155.41  L   192.63,   158.24  L   192.63,   162.49  L   195.47,   159.65  "/>
		<path style="stroke-width: 0.28 ;&st9;  " d=" M   195.47,   183.86  L   192.63,   181.03  L   192.63,   185.28  L   195.47,   188.11  L   198.30,   185.28  L   198.30,   181.03  L   195.47,   183.86  "/>
		<path style="stroke-width: 0.85 ;&st7;  " d=" M   195.47,   188.75  L   195.47,   154.76  "/>
		<path style="stroke-width: 1.42 ;&st7;   " d=" M   193.34,   146.26  C   191.00    146.26    189.09    148.16    189.09    150.51  "/>
		<path style="stroke-width: 1.42 ;&st7;   " d=" M   189.09,   150.51  C   189.09    152.86    191.00    154.76    193.34    154.76  "/>
		<path style="stroke-width: 1.42 ;&st7;   " d=" M   197.59,   154.76  C   199.94    154.76    201.84    152.86    201.84    150.51  "/>
		<path style="stroke-width: 1.42 ;&st7;   " d=" M   201.84,   150.51  C   201.84    148.16    199.94    146.26    197.59    146.26  "/>
		<path style="stroke-width: 1.42 ;&st7;   " d=" M   193.34,   188.75  C   191.00    188.75    189.09    190.66    189.09    193.00  "/>
		<path style="stroke-width: 1.42 ;&st7;   " d=" M   189.09,   193.00  C   189.09    195.35    191.00    197.25    193.34    197.25  "/>
		<path style="stroke-width: 1.42 ;&st7;   " d=" M   197.59,   197.25  C   199.94    197.25    201.84    195.35    201.84    193.00  "/>
		<path style="stroke-width: 1.42 ;&st7;  " d=" M   197.59,   146.26  L   193.34,   146.26  "/>
		<path style="stroke-width: 1.42 ;&st7;  " d=" M   197.59,   154.76  L   193.34,   154.76  "/>
		<path style="stroke-width: 1.42 ;&st7;  " d=" M   197.59,   188.75  L   193.34,   188.75  "/>
		<path style="stroke-width: 1.42 ;&st7;  " d=" M   197.59,   197.25  L   193.34,   197.25  "/>
	</g>
	<g ewd:figtype="w2w" ewd:figID="7" ewd:code="EF1">
		<text style="font-size:6px;font-family:'NSimSun';" transform="matrix(&st16;  182.84  517.92 )">6</text>
		<path style="stroke-width: 1.42 ;&st7;  " d=" M   199.72,   506.03  L   195.47,   510.28  L   191.22,   506.03  "/>
		<path style="stroke-width: 1.42 ;&st7;  " d=" M   191.22,   502.63  L   195.47,   506.88  L   199.72,   502.63  "/>
	</g>
	<g ewd:figtype="w2w" ewd:figID="8" ewd:code="EF1">
		<text style="font-size:6px;font-family:'NSimSun';" transform="matrix(&st16;  182.84  288.46 )">5</text>
		<path style="stroke-width: 1.42 ;&st7;  " d=" M   199.72,   299.80  L   195.47,   295.55  L   191.22,   299.80  "/>
		<path style="stroke-width: 1.42 ;&st7;  " d=" M   199.72,   296.40  L   195.47,   292.15  L   191.22,   296.40  "/>
	</g>
	<g ewd:figtype="w2w" ewd:figID="9" ewd:code="EF1">
		<text style="font-size:6px;font-family:'NSimSun';" transform="matrix(&st16;  284.82  288.46 )">4</text>
		<path style="stroke-width: 1.42 ;&st7;  " d=" M   301.70,   299.80  L   297.45,   295.55  L   293.20,   299.80  "/>
		<path style="stroke-width: 1.42 ;&st7;  " d=" M   301.70,   296.40  L   297.45,   292.15  L   293.20,   296.40  "/>
	</g>
	<g ewd:figtype="gp" ewd:figID="10" ewd:code="ED">
		<path style="stroke-width: 0.85 ;&st7;  " d=" M   195.47,   697.25  L   195.47,   701.50  "/>
		<path style="stroke-width: 0.85 ;&st7;  " d=" M   186.97,   701.50  L   203.97,   701.50  "/>
		<path style="stroke-width: 0.85 ;&st7;  " d=" M   191.22,   704.33  L   199.72,   704.33  "/>
		<path style="stroke-width: 0.85 ;&st7;  " d=" M   192.63,   707.17  L   198.30,   707.17  "/>
		<path style="stroke-width: 0.85 ;&st7;  " d=" M   194.05,   710.00  L   196.88,   710.00  "/>
	</g>
	<text style="font-size:6px;font-family:'NSimSun';" transform="matrix(&st17;  191.77  466.66 )">W-B</text>
	<text style="font-size:6px;font-family:'NSimSun';" transform="matrix(&st17;  191.77  122.73 )">G</text>
	<text style="font-size:6px;font-family:'NSimSun';" transform="matrix(&st17;  191.77  242.99 )">SB</text>
	<text style="font-size:6px;font-family:'NSimSun';" transform="matrix(&st17;  191.77  336.47 )">SB</text>
	<text style="font-size:6px;font-family:'NSimSun';" transform="matrix(&st17;  293.75  243.57 )">GR</text>
	<text style="font-size:6px;font-family:'NSimSun';" transform="matrix(&st17;  293.75  337.05 )">GR</text>
	<path style="stroke-width: 1.42 ;&st7;  " d=" M   186.97,   511.70  L   195.47,   511.70  "/>
	<path style="stroke-width: 1.42 ;&st7;  " d=" M   203.97,   290.74  L   195.47,   290.74  "/>
	<path style="stroke-width: 1.42 ;&st7;  " d=" M   305.95,   290.74  L   297.45,   290.74  "/>
	<text style="font-size:6px;font-family:'NSimSun';" transform="matrix(&st17;  191.77  662.13 )">W-B</text>
	<text style="font-size:6px;font-family:'NSimSun';" transform="matrix(&st17;  191.77  568.65 )">W-B</text>
	<a ewd:figtype="w2w" style="cursor:pointer;" ewd:pinNo="6" ewd:code="EF1" ewd:figID="7">
		<path style="&st2;" d=" M   203.97,   511.70  L   186.97,   511.70  L   186.97,   520.20  L   203.97,   520.20  L   203.97,   511.70 "/>
		<text style="&st8;" transform="matrix(&st16;  190.35  518.07 )"><tspan x="0" style="font-size:6px;font-family:'NSimSun';" y="0">EF1</tspan></text>
	</a>
	<a ewd:figtype="w2w" style="cursor:pointer;" ewd:pinNo="5" ewd:code="EF1" ewd:figID="8">
		<path style="&st2;" d=" M   203.97,   282.24  L   186.97,   282.24  L   186.97,   290.74  L   203.97,   290.74  L   203.97,   282.24 "/>
		<text style="&st8;" transform="matrix(&st16;  190.35  288.61 )"><tspan x="0" style="font-size:6px;font-family:'NSimSun';" y="0">EF1</tspan></text>
	</a>
	<a ewd:figtype="w2w" style="cursor:pointer;" ewd:pinNo="4" ewd:code="EF1" ewd:figID="9">
		<path style="&st2;" d=" M   305.95,   282.24  L   288.95,   282.24  L   288.95,   290.74  L   305.95,   290.74  L   305.95,   282.24 "/>
		<text style="&st8;" transform="matrix(&st16;  292.33  288.61 )"><tspan x="0" style="font-size:6px;font-family:'NSimSun';" y="0">EF1</tspan></text>
	</a>
	<a ewd:figtype="gp" style="cursor:pointer;" ewd:code="ED" ewd:figID="10">
		<path style="&st2;" d=" M   184.84,   681.67  L   206.09,   681.67  L   195.47,   697.25  L   184.84,   681.67 "/>
		<text style="&st8;" transform="matrix(&st16;  191.59  689.46 )"><tspan x="0" style="font-size:6px;font-family:'NSimSun';" y="0">ED</tspan></text>
	</a>
</g>
</svg>