<?xml version="1.0" encoding="utf-8"?>
<!DOCTYPE svg PUBLIC "-//W3C//DTD SVG 1.0//EN" "http://www.w3.org/TR/2001/REC-SVG-20010904/DTD/svg10.dtd"[
	<!ENTITY ns_flows "http://ns.adobe.com/Flows/1.0/">
	<!ENTITY ns_svg "http://www.w3.org/2000/svg">
	<!ENTITY ns_xlink "http://www.w3.org/1999/xlink">
	<!ENTITY st0 "font-size:7px;font-family:'NSimSun';adobe-font-script:japanese;">
	<!ENTITY st1 "font-size:6px;font-family:'NSimSun';">
	<!-- White fill  -->
	<!ENTITY st2 "fill:#FFFFFF;stroke:#000000; stroke-width:1.41;stroke-linecap:round;stroke-linejoin:round;">
	<!-- Yellow fill  -->
	<!ENTITY st3 "fill:#FFFFCC;stroke:#FFFFCC; stroke-width:0.1;stroke-linecap:round;stroke-linejoin:round;">
	<!-- Gray fill  -->
	<!ENTITY st4 "fill:#CCCCCC;stroke:#CCCCCC; stroke-width:0.1;stroke-linecap:round;stroke-linejoin:round;">
	<!-- Light-blue fill -->
	<!ENTITY st5 "fill:#CCECF4;stroke:#000000; stroke-width:1.133;stroke-linecap:round;stroke-linejoin:round;">
	<!ENTITY st6 "fill:none;stroke-linecap:butt; stroke-linejoin:round;">
	<!ENTITY st7 "fill:none;stroke:#000000;stroke-linecap:round;stroke-linejoin:round;">
	<!ENTITY st8 "enable-background:new    ;">
	<!-- Black fill -->
	<!ENTITY st9 "fill:#000000;stroke:#000000; stroke-linecap:round;stroke-linejoin:round;">
	<!-- SRS note   -->
	<!ENTITY st10 "font-size:9px;font-family:'NSimSun';">
	<!ENTITY st11 "font-size:9px;font-family:'NSimSun';">
	<!ENTITY st12 "font-size:6px;font-family:'NSimSun';">
	<!ENTITY st13 "fill:none;stroke:#ff0000;stroke-linecap:round;stroke-linejoin:round;">
	<!-- Yellow fill  -->
	<!ENTITY st14 "fill:#FFFF00;stroke:#FFFF00; stroke-width:0.1;stroke-linecap:round;stroke-linejoin:round;">
	<!ENTITY st15 "font-size:6px;font-family:'NSimSun';adobe-font-script:japanese;">
	<!ENTITY st16 "1.00 0.00 0.00 1.00">
	<!ENTITY st17 "0.00 -1.00 1.00 0.00">
	<!ENTITY st18 "font-size:6px;font-family:'NSimSun';">
	<!ENTITY st19 "font-size:9px;font-family:'NSimSun';">
	<!ENTITY st20 "font-size:6px;font-family:'NSimSun';adobe-font-script:japanese;">
	<!ENTITY st21 "font-size:7px;font-family:'NSimSun';adobe-font-script:japanese;">
	<!ATTLIST svg
		xmlns:ewd CDATA #FIXED "http://shcl.co.jp/ewd"
		xmlns:a CDATA #FIXED "http://ns.adobe.com/AdobeSVGViewerExtensions/3.0/"
		ewd:ver CDATA #IMPLIED
	>
	<!ATTLIST a
		ewd:lineID CDATA #IMPLIED
		ewd:groupID CDATA #IMPLIED
		ewd:figtype CDATA #IMPLIED
		ewd:code CDATA #IMPLIED
		ewd:figID CDATA #IMPLIED
		ewd:pinNo CDATA #IMPLIED
		ewd:comment CDATA #IMPLIED >
	<!ATTLIST g
		ewd:lineID CDATA #IMPLIED
		ewd:groupID CDATA #IMPLIED
		ewd:figtype CDATA #IMPLIED
		ewd:code CDATA #IMPLIED
		ewd:figID CDATA #IMPLIED
		ewd:pinNo CDATA #IMPLIED
		ewd:comment CDATA #IMPLIED >
	<!ATTLIST text
		ewd:textID CDATA #IMPLIED
		ewd:horAlign CDATA #IMPLIED >
	<!ATTLIST title
		ewd:textID CDATA #IMPLIED >
]>
<!-- Generator: Shintec Hozumi YS   -->
<svg onload="call_execInitLoadProc_svg('system')" style="overflow:visible;  enable-background:new 0 0 2397.308 710.000" viewBox="0 0 2405.104 710.000" height="710.000" width="2405.104" xml:space="preserve" ewd:ver="2.1.2.6F" xmlns="&ns_svg;" xmlns:ewd="http://shcl.co.jp/ewd" xmlns:a="http://ns.adobe.com/AdobeSVGViewerExtensions/3.0/" xmlns:xlink="&ns_xlink;">
<text style="font-size:6px;font-family:'NSimSun';" transform="matrix(&st17;  310.75  334.92 )">B</text><text style="font-size:6px;font-family:'NSimSun';" transform="matrix(&st17;  208.77  577.14 )">W-B</text><text style="font-size:6px;font-family:'NSimSun';" transform="matrix(&st17;  123.78  130.84 )">L</text><text style="font-size:6px;font-family:'NSimSun';" transform="matrix(&st17;  234.26  130.95 )">B</text><text style="font-size:6px;font-family:'NSimSun';" transform="matrix(&st17;  208.77  475.16 )">W-B</text><text style="font-size:6px;font-family:'NSimSun';" transform="matrix(&st17;  438.23  470.82 )">R</text><text style="font-size:6px;font-family:'NSimSun';" transform="matrix(&st17;  310.75  475.16 )">W-B</text><path style="stroke-width: 1.42 ;&st7;  " d=" M   208.93,   511.70  L   203.97,   516.67  " /><path style="stroke-width: 1.42 ;&st7;  " d=" M   215.99,   528.70  L   220.96,   523.73  " /><path style="stroke-width: 1.42 ;&st7;  " d=" M   203.97,   523.73  L   208.93,   528.70  " /><path style="stroke-width: 1.42 ;&st7;  " d=" M   220.96,   516.67  L   215.99,   511.70  " /><text style="font-size:6px;font-family:'NSimSun';" transform="matrix(&st16;  490.81  499.5 )">R</text><path style="stroke-width: 1.42 ;&st7;  " d=" M   322.95,   516.67  L   317.97,   511.70  " /><path style="stroke-width: 1.42 ;&st7;  " d=" M   305.95,   523.73  L   310.92,   528.70  " /><path style="stroke-width: 1.42 ;&st7;  " d=" M   317.97,   528.70  L   322.95,   523.73  " /><path style="stroke-width: 1.42 ;&st7;  " d=" M   310.92,   511.70  L   305.95,   516.67  " /><text style="font-size:6px;font-family:'NSimSun';" transform="matrix(&st17;  310.75  577.14 )">W-B</text><g ewd:figtype="conn" ewd:figID="1" ewd:code="A33,z9"><path style="stroke-width: 1.42 ;&st7;  " d=" M   297.45,   409.72  L   458.92,   409.72  L   458.92,   367.22  L   297.45,   367.22  L   297.45,   409.72  " /><g ewd:lineID="5"><text style="font-size:6px;font-family:'NSimSun';" transform="matrix(&st16;  305.75  364.66 )">1</text><path style="stroke-width: 1.42 ;&st7;   " d=" M   318.98,   362.69  C   318.98    360.19    316.95    358.16    314.45    358.16  " /><path style="stroke-width: 1.42 ;&st7;   " d=" M   314.45,   358.16  C   311.94    358.16    309.91    360.19    309.91    362.69  " /><path style="stroke-width: 1.42 ;&st7;   " d=" M   309.91,   362.69  C   309.91    365.19    311.94    367.22    314.45    367.22  " /><path style="stroke-width: 1.42 ;&st7;   " d=" M   314.45,   367.22  C   316.95    367.22    318.98    365.19    318.98    362.69  " /><text style="font-size:6px;font-family:'NSimSun';" transform="matrix(&st16;  312.14  364.66 )">A</text><text style="font-size:6px;font-family:'NSimSun';" transform="matrix(&st16;  309.16  374.86 )">+B1</text></g><g ewd:lineID="7"><text style="font-size:6px;font-family:'NSimSun';" transform="matrix(&st16;  305.75  416.22 )">3</text><text style="font-size:6px;font-family:'NSimSun';" transform="matrix(&st16;  312.14  416.22 )">A</text><path style="stroke-width: 1.42 ;&st7;   " d=" M   318.98,   414.25  C   318.98    411.75    316.95    409.72    314.45    409.72  " /><path style="stroke-width: 1.42 ;&st7;   " d=" M   314.45,   409.72  C   311.94    409.72    309.91    411.75    309.91    414.25  " /><path style="stroke-width: 1.42 ;&st7;   " d=" M   309.91,   414.25  C   309.91    416.75    311.94    418.78    314.45    418.78  " /><path style="stroke-width: 1.42 ;&st7;   " d=" M   314.45,   418.78  C   316.95    418.78    318.98    416.75    318.98    414.25  " /><text style="font-size:6px;font-family:'NSimSun';" transform="matrix(&st16;  310.79  406.02 )">E1</text></g><g ewd:lineID="8"><text style="font-size:6px;font-family:'NSimSun';" transform="matrix(&st16;  433.23  416.22 )">2</text><text style="font-size:6px;font-family:'NSimSun';" transform="matrix(&st16;  439.62  416.22 )">A</text><path style="stroke-width: 1.42 ;&st7;   " d=" M   446.46,   414.25  C   446.46    411.75    444.43    409.72    441.93    409.72  " /><path style="stroke-width: 1.42 ;&st7;   " d=" M   441.93,   409.72  C   439.42    409.72    437.39    411.75    437.39    414.25  " /><path style="stroke-width: 1.42 ;&st7;   " d=" M   437.39,   414.25  C   437.39    416.75    439.42    418.78    441.93    418.78  " /><path style="stroke-width: 1.42 ;&st7;   " d=" M   441.93,   418.78  C   444.43    418.78    446.46    416.75    446.46    414.25  " /><text style="font-size:6px;font-family:'NSimSun';" transform="matrix(&st16;  439.23  406.02 )">SI</text></g><g ewd:lineID="39"><text style="font-size:6px;font-family:'NSimSun';" transform="matrix(&st16;  388.75  364.66 )">B</text><path style="stroke-width: 1.42 ;&st7;   " d=" M   395.47,   362.69  C   395.47    360.19    393.44    358.16    390.93    358.16  " /><path style="stroke-width: 1.42 ;&st7;   " d=" M   390.93,   358.16  C   388.43    358.16    386.40    360.19    386.40    362.69  " /><path style="stroke-width: 1.42 ;&st7;   " d=" M   386.40,   362.69  C   386.40    365.19    388.43    367.22    390.93    367.22  " /><path style="stroke-width: 1.42 ;&st7;   " d=" M   390.93,   367.22  C   393.44    367.22    395.47    365.19    395.47    362.69  " /><text style="font-size:6px;font-family:'NSimSun';" transform="matrix(&st16;  382.24  364.66 )">1</text><text style="font-size:6px;font-family:'NSimSun';" transform="matrix(&st16;  389.13  374.86 )">-</text></g><g ewd:lineID="40"><text style="font-size:6px;font-family:'NSimSun';" transform="matrix(&st16;  433.23  364.66 )">2</text><path style="stroke-width: 1.42 ;&st7;   " d=" M   446.46,   362.69  C   446.46    360.19    444.43    358.16    441.93    358.16  " /><path style="stroke-width: 1.42 ;&st7;   " d=" M   441.93,   358.16  C   439.42    358.16    437.39    360.19    437.39    362.69  " /><path style="stroke-width: 1.42 ;&st7;   " d=" M   437.39,   362.69  C   437.39    365.19    439.42    367.22    441.93    367.22  " /><path style="stroke-width: 1.42 ;&st7;   " d=" M   441.93,   367.22  C   444.43    367.22    446.46    365.19    446.46    362.69  " /><text style="font-size:6px;font-family:'NSimSun';" transform="matrix(&st16;  439.74  364.66 )">B</text><text style="font-size:6px;font-family:'NSimSun';" transform="matrix(&st16;  440.13  374.86 )">+</text></g><g ewd:figtype="title"><text style="font-size:6px;font-family:'NSimSun';" transform="matrix(&st16;  345.04  424.43 )" ewd:textID="9">冷却风扇 ECU</text><text style="font-size:6px;font-family:'NSimSun';" transform="matrix(&st16;  345.03  417.61 )">A33(A),z9(B)</text></g></g><g ewd:figtype="conn" ewd:figID="2" ewd:code="z9"> d=" M   405.10,   332.66  L   390.93,   332.66  L   390.93,   358.16 
	
		<path style="stroke:#000000;stroke-width: 5.10 ;&st6;" d=" M   405.10,   332.66  L   390.93,   332.66  L   390.93,   358.16  " /><path style="stroke:#FFFFFF;stroke-width: 4.53 ;&st6;" d=" M   405.10,   332.66  L   390.93,   332.66  L   390.93,   358.16  " /><path style="stroke:#FF0000;stroke-width: 5.10 ;&st6;" d=" M   427.76,   332.66  L   441.93,   332.66  L   441.93,   358.16  " /><text style="font-size:6px;font-family:'NSimSun';" transform="matrix(&st17;  387.24  348.44 )">W</text><text style="font-size:6px;font-family:'NSimSun';" transform="matrix(&st17;  438.23  347.59 )">R</text><text style="font-size:6px;font-family:'NSimSun';" transform="matrix(&st16;  413.7  334.63 )">M</text><path style="stroke-width: 1.42 ;&st7;  " d=" M   373.94,   315.67  L   373.94,   358.16  L   458.92,   358.16  L   458.92,   315.67  L   373.94,   315.67  " /><path style="stroke-width: 1.42 ;&st7;   " d=" M   424.93,   332.66  C   424.93    327.97    421.12    324.16    416.43    324.16  " /><path style="stroke-width: 1.42 ;&st7;   " d=" M   416.43,   324.16  C   411.74    324.16    407.93    327.97    407.93    332.66  " /><path style="stroke-width: 1.42 ;&st7;   " d=" M   407.93,   332.66  C   407.93    337.36    411.74    341.16    416.43    341.16  " /><path style="stroke-width: 1.42 ;&st7;   " d=" M   416.43,   341.16  C   421.12    341.16    424.93    337.36    424.93    332.66  " /><path style="stroke-width: 1.42 ;&st7;  " d=" M   405.10,   328.41  L   409.06,   328.41  " /><path style="stroke-width: 1.42 ;&st7;  " d=" M   409.06,   336.91  L   405.10,   336.91  " /><path style="stroke-width: 1.42 ;&st7;  " d=" M   405.10,   336.91  L   405.10,   328.41  " /><path style="stroke-width: 1.42 ;&st7;  " d=" M   427.76,   328.41  L   423.80,   328.41  " /><path style="stroke-width: 1.42 ;&st7;  " d=" M   423.80,   336.91  L   427.76,   336.91  " /><path style="stroke-width: 1.42 ;&st7;  " d=" M   427.76,   336.91  L   427.76,   328.41  " /><g ewd:figtype="title"><text style="font-size:6px;font-family:'NSimSun';" transform="matrix(&st16;  370.52  305.71 )">z9(B)</text><text style="font-size:6px;font-family:'NSimSun';" transform="matrix(&st16;  370.53  312.54 )" ewd:textID="11">冷却风扇马达</text></g></g><g ewd:figtype="rb" ewd:figID="3" ewd:code="1"><path style="stroke-width: 0.28 ;&st9;  " d=" M   237.96,   202.15  L   240.79,   204.98  L   240.79,   200.73  L   237.96,   197.90  L   235.13,   200.73  L   235.13,   204.98  L   237.96,   202.15  " /><text style="font-size:6px;font-family:'NSimSun';" transform="matrix(&st16;  210.66  288.46 )">1</text><text style="font-size:6px;font-family:'NSimSun';" transform="matrix(&st16;  236.16  288.46 )">1</text><text style="font-size:6px;font-family:'NSimSun';" transform="matrix(&st16;  210.66  194.97 )">1</text><text style="font-size:6px;font-family:'NSimSun';" transform="matrix(&st16;  231.78  219.06 )">3</text><text style="font-size:6px;font-family:'NSimSun';" transform="matrix(&st16;  206.28  219.06 )">1</text><text style="font-size:6px;font-family:'NSimSun';" transform="matrix(&st16;  231.78  264.94 )">5</text><text style="font-size:6px;font-family:'NSimSun';" transform="matrix(&st16;  206.28  264.94 )">2</text><text style="font-size:6px;font-family:'NSimSun';" transform="matrix(&st16;  236.16  194.97 )">1</text><text style="font-size:6px;font-family:'NSimSun';" transform="matrix(&st16;  248.72  238.89 )" ewd:textID="15">1 号 FAN<tspan x="0 " dy="6.0">继电器</tspan></text><path style="stroke-width: 0.85 ;&st7;  " d=" M   237.96,   256.74  L   237.96,   282.24  " /><path style="stroke-width: 0.28 ;&st9;  " d=" M   212.46,   202.15  L   215.30,   204.98  L   215.30,   200.73  L   212.46,   197.90  L   209.63,   200.73  L   209.63,   204.98  L   212.46,   202.15  " /><path style="stroke-width: 0.85 ;&st7;  " d=" M   212.46,   256.74  L   212.46,   282.24  " /><path style="stroke-width: 0.28 ;&st9;  " d=" M   237.96,   277.34  L   235.13,   274.51  L   235.13,   278.76  L   237.96,   281.59  L   240.79,   278.76  L   240.79,   274.51  L   237.96,   277.34  " /><path style="stroke-width: 0.85 ;&st7;  " d=" M   212.46,   197.25  L   212.46,   222.75  " /><path style="stroke-width: 0.28 ;&st9;  " d=" M   212.46,   277.34  L   209.63,   274.51  L   209.63,   278.76  L   212.46,   281.59  L   215.30,   278.76  L   215.30,   274.51  L   212.46,   277.34  " /><path style="stroke-width: 0.85 ;&st7;  " d=" M   237.96,   197.25  L   237.96,   222.75  " /><path style="stroke-width: 1.42 ;&st7;   " d=" M   244.33,   193.00  C   244.33    190.66    242.43    188.75    240.08    188.75  " /><path style="stroke-width: 1.42 ;&st7;   " d=" M   240.08,   197.25  C   242.43    197.25    244.33    195.35    244.33    193.00  " /><path style="stroke-width: 1.42 ;&st7;   " d=" M   231.59,   193.00  C   231.59    195.35    233.49    197.25    235.84    197.25  " /><path style="stroke-width: 1.42 ;&st7;   " d=" M   235.84,   188.75  C   233.49    188.75    231.59    190.66    231.59    193.00  " /><path style="stroke-width: 1.42 ;&st7;   " d=" M   210.34,   188.75  C   207.99    188.75    206.09    190.66    206.09    193.00  " /><path style="stroke-width: 1.42 ;&st7;   " d=" M   206.09,   193.00  C   206.09    195.35    207.99    197.25    210.34    197.25  " /><path style="stroke-width: 1.42 ;&st7;   " d=" M   214.59,   197.25  C   216.94    197.25    218.84    195.35    218.84    193.00  " /><path style="stroke-width: 1.42 ;&st7;   " d=" M   218.84,   193.00  C   218.84    190.66    216.94    188.75    214.59    188.75  " /><path style="stroke-width: 1.42 ;&st7;   " d=" M   235.84,   282.24  C   233.49    282.24    231.59    284.14    231.59    286.49  " /><path style="stroke-width: 1.42 ;&st7;   " d=" M   231.59,   286.49  C   231.59    288.83    233.49    290.74    235.84    290.74  " /><path style="stroke-width: 1.42 ;&st7;   " d=" M   240.08,   290.74  C   242.43    290.74    244.33    288.83    244.33    286.49  " /><path style="stroke-width: 1.42 ;&st7;   " d=" M   244.33,   286.49  C   244.33    284.14    242.43    282.24    240.08    282.24  " /><path style="stroke-width: 1.42 ;&st7;   " d=" M   210.34,   282.24  C   207.99    282.24    206.09    284.14    206.09    286.49  " /><path style="stroke-width: 1.42 ;&st7;   " d=" M   206.09,   286.49  C   206.09    288.83    207.99    290.74    210.34    290.74  " /><path style="stroke-width: 1.42 ;&st7;   " d=" M   214.59,   290.74  C   216.94    290.74    218.84    288.83    218.84    286.49  " /><path style="stroke-width: 1.42 ;&st7;   " d=" M   218.84,   286.49  C   218.84    284.14    216.94    282.24    214.59    282.24  " /><path style="stroke-width: 1.42 ;&st7;  " d=" M   240.08,   197.25  L   235.84,   197.25  " /><path style="stroke-width: 1.42 ;&st7;  " d=" M   240.08,   188.75  L   235.84,   188.75  " /><path style="stroke-width: 1.42 ;&st7;  " d=" M   214.59,   188.75  L   210.34,   188.75  " /><path style="stroke-width: 1.42 ;&st7;  " d=" M   214.59,   197.25  L   210.34,   197.25  " /><path style="stroke-width: 1.42 ;&st7;  " d=" M   240.08,   282.24  L   235.84,   282.24  " /><path style="stroke-width: 1.42 ;&st7;  " d=" M   240.08,   290.74  L   235.84,   290.74  " /><path style="stroke-width: 1.42 ;&st7;  " d=" M   214.59,   282.24  L   210.34,   282.24  " /><path style="stroke-width: 1.42 ;&st7;  " d=" M   214.59,   290.74  L   210.34,   290.74  " /><path style="stroke-width: 0.85 ;&st7;   " d=" M   209.93,   237.27  C   211.30    238.66    213.55    238.69    214.94    237.32  " /><path style="stroke-width: 0.85 ;&st7;   " d=" M   214.94,   237.32  C   216.34    235.95    216.36    233.71    214.99    232.31  " /><path style="stroke-width: 0.85 ;&st7;   " d=" M   214.99,   232.31  C   214.30    231.60    213.46    231.25    212.46    231.25  " /><path style="stroke-width: 1.42 ;&st7;  " d=" M   246.46,   222.75  L   203.97,   222.75  L   203.97,   256.74  L   246.46,   256.74  L   246.46,   222.75  " /><path style="stroke-width: 0.85 ;&st7;   " d=" M   209.93,   242.22  C   211.30    243.62    213.55    243.64    214.94    242.27  " /><path style="stroke-width: 0.85 ;&st7;   " d=" M   214.94,   242.27  C   216.34    240.91    216.36    238.66    214.99    237.27  " /><path style="stroke-width: 0.85 ;&st7;   " d=" M   214.99,   237.27  C   213.63    235.87    211.38    235.85    209.99    237.22  " /><path style="stroke-width: 0.85 ;&st7;   " d=" M   209.99,   237.22  C   209.97    237.23    209.95    237.25    209.93    237.27  " /><path style="stroke-width: 0.85 ;&st7;   " d=" M   212.46,   248.24  C   214.42    248.24    216.01    246.66    216.01    244.70  " /><path style="stroke-width: 0.85 ;&st7;   " d=" M   216.01,   244.70  C   216.01    242.75    214.42    241.16    212.46    241.16  " /><path style="stroke-width: 0.85 ;&st7;   " d=" M   212.46,   241.16  C   211.47    241.16    210.63    241.52    209.94    242.22  " /><path style="stroke-width: 0.85 ;&st7;   " d=" M   239.38,   251.08  C   239.38    250.29    238.74    249.66    237.96    249.66  " /><path style="stroke-width: 0.85 ;&st7;   " d=" M   237.96,   249.66  C   237.18    249.66    236.54    250.29    236.54    251.08  " /><path style="stroke-width: 0.85 ;&st7;   " d=" M   236.54,   251.08  C   236.54    251.86    237.18    252.49    237.96    252.49  " /><path style="stroke-width: 0.85 ;&st7;   " d=" M   237.96,   252.49  C   238.74    252.49    239.38    251.86    239.38    251.08  " /><path style="stroke-width: 0.85 ;&st7;   " d=" M   239.38,   228.41  C   239.38    227.63    238.74    227.00    237.96    227.00  " /><path style="stroke-width: 0.85 ;&st7;   " d=" M   237.96,   227.00  C   237.18    227.00    236.54    227.63    236.54    228.41  " /><path style="stroke-width: 0.85 ;&st7;   " d=" M   236.54,   228.41  C   236.54    229.20    237.18    229.83    237.96    229.83  " /><path style="stroke-width: 0.85 ;&st7;   " d=" M   237.96,   229.83  C   238.74    229.83    239.38    229.20    239.38    228.41  " /><path style="stroke-width: 0.85 ;&st7;  " d=" M   212.46,   222.75  L   212.46,   231.25  " /><path style="stroke-width: 0.85 ;&st7;  " d=" M   212.46,   248.24  L   212.46,   256.74  " /><path style="stroke-width: 1.42 ;&st7;  " d=" M   237.96,   229.83  L   243.63,   252.49  " /><path style="stroke-width: 0.85 ;&st7;  " d=" M   237.96,   256.74  L   237.96,   252.49  " /><path style="stroke-width: 0.85 ;&st7;  " d=" M   237.96,   222.75  L   237.96,   227.00  " /></g><g ewd:figtype="rb" ewd:figID="5" ewd:code="FUSE30"><text style="font-size:6px;font-family:'NSimSun';" transform="matrix(&st16;  231.78  86.47 )">2</text><text style="font-size:6px;font-family:'NSimSun';" transform="matrix(&st16;  236.16  101.49 )">1</text><text style="font-size:6px;font-family:'NSimSun';" transform="matrix(&st16;  254.38  56.17 )">40A <tspan x="0 " dy="6.0">RDI</tspan></text><text style="font-size:6px;font-family:'NSimSun';" transform="matrix(&st16;  229.92  32.08 )">(BAT)</text><path style="stroke-width: 0.28 ;&st9;  " d=" M   237.96,    90.37  L   235.13,    87.54  L   235.13,    91.79  L   237.96,    94.62  L   240.79,    91.79  L   240.79,    87.54  L   237.96,    90.37  " /><path style="stroke-width: 1.42 ;&st7;   " d=" M   235.84,    95.27  C   233.49     95.27    231.59     97.17    231.59     99.52  " /><path style="stroke-width: 1.42 ;&st7;   " d=" M   231.59,    99.52  C   231.59    101.87    233.49    103.77    235.84    103.77  " /><path style="stroke-width: 1.42 ;&st7;   " d=" M   240.08,   103.77  C   242.43    103.77    244.33    101.87    244.33     99.52  " /><path style="stroke-width: 1.42 ;&st7;   " d=" M   244.33,    99.52  C   244.33     97.17    242.43     95.27    240.08     95.27  " /><path style="stroke-width: 0.85 ;&st7;  " d=" M   237.96,    69.77  L   237.96,    95.27  " /><path style="stroke-width: 1.42 ;&st7;  " d=" M   240.08,    95.27  L   235.84,    95.27  " /><path style="stroke-width: 1.42 ;&st7;  " d=" M   240.08,   103.77  L   235.84,   103.77  " /><path style="stroke-width: 1.42 ;&st7;  " d=" M   225.21,    35.78  L   225.21,    78.27  L   250.71,    78.27  L   250.71,    35.78  L   225.21,    35.78  " /><path style="stroke-width: 0.85 ;&st7;   " d=" M   239.38,    68.36  C   239.38     67.57    238.74     66.94    237.96     66.94  " /><path style="stroke-width: 0.85 ;&st7;   " d=" M   237.96,    66.94  C   237.18     66.94    236.54     67.57    236.54     68.36  " /><path style="stroke-width: 0.85 ;&st7;   " d=" M   236.54,    68.36  C   236.54     69.14    237.18     69.77    237.96     69.77  " /><path style="stroke-width: 0.85 ;&st7;   " d=" M   237.96,    69.77  C   238.74     69.77    239.38     69.14    239.38     68.36  " /><path style="stroke-width: 0.85 ;&st7;   " d=" M   239.38,    45.69  C   239.38     44.91    238.74     44.28    237.96     44.28  " /><path style="stroke-width: 0.85 ;&st7;   " d=" M   237.96,    44.28  C   237.18     44.28    236.54     44.91    236.54     45.69  " /><path style="stroke-width: 0.85 ;&st7;   " d=" M   236.54,    45.69  C   236.54     46.48    237.18     47.11    237.96     47.11  " /><path style="stroke-width: 0.85 ;&st7;   " d=" M   237.96,    47.11  C   238.74     47.11    239.38     46.48    239.38     45.69  " /><path style="stroke-width: 1.42 ;&st7;   " d=" M   237.96,    66.94  C   240.70     65.33    241.61     61.80    240.00     59.06  " /><path style="stroke-width: 1.42 ;&st7;   " d=" M   240.00,    59.06  C   239.48     58.18    238.84     57.55    237.96     57.03  " /><path style="stroke-width: 1.42 ;&st7;   " d=" M   237.96,    47.11  C   235.22     48.72    234.31     52.25    235.92     54.99  " /><path style="stroke-width: 1.42 ;&st7;   " d=" M   235.92,    54.99  C   236.44     55.87    237.08     56.51    237.96     57.03  " /></g><g ewd:figtype="jb" ewd:figID="17" ewd:code="3"><path style="stroke-width: 1.42 ;&st7;   " d=" M   129.60,   103.77  C   131.95    103.77    133.85    101.87    133.85     99.52  " /><text style="font-size:6px;font-family:'NSimSun';" transform="matrix(&st16;  122.27  32.08 )">(IG)</text><text style="font-size:6px;font-family:'NSimSun';" transform="matrix(&st16;  123.62  101.49 )">3A</text><text style="font-size:6px;font-family:'NSimSun';" transform="matrix(&st16;  143.9  53.34 )">7.5A <tspan x="0 " dy="6.0">ECU-IG </tspan><tspan x="0 " dy="6.0">NO.1</tspan></text><path style="stroke-width: 0.28 ;&st9;  " d=" M   127.48,    90.37  L   124.65,    87.54  L   124.65,    91.79  L   127.48,    94.62  L   130.31,    91.79  L   130.31,    87.54  L   127.48,    90.37  " /><path style="stroke-width: 1.42 ;&st7;  " d=" M   114.73,    35.78  L   114.73,    78.27  L   140.23,    78.27  L   140.23,    35.78  L   114.73,    35.78  " /><path style="stroke-width: 1.42 ;&st7;   " d=" M   127.48,    47.11  C   124.74     48.72    123.83     52.25    125.44     54.99  " /><path style="stroke-width: 1.42 ;&st7;   " d=" M   125.44,    54.99  C   125.96     55.87    126.60     56.51    127.48     57.03  " /><path style="stroke-width: 1.42 ;&st7;   " d=" M   127.48,    66.94  C   130.22     65.33    131.13     61.80    129.52     59.06  " /><path style="stroke-width: 1.42 ;&st7;   " d=" M   129.52,    59.06  C   129.00     58.18    128.36     57.55    127.48     57.03  " /><path style="stroke-width: 0.85 ;&st7;   " d=" M   128.90,    68.36  C   128.90     67.57    128.26     66.94    127.48     66.94  " /><path style="stroke-width: 0.85 ;&st7;   " d=" M   127.48,    66.94  C   126.70     66.94    126.06     67.57    126.06     68.36  " /><path style="stroke-width: 0.85 ;&st7;   " d=" M   126.06,    68.36  C   126.06     69.14    126.70     69.77    127.48     69.77  " /><path style="stroke-width: 0.85 ;&st7;   " d=" M   127.48,    69.77  C   128.26     69.77    128.90     69.14    128.90     68.36  " /><path style="stroke-width: 0.85 ;&st7;   " d=" M   128.90,    45.69  C   128.90     44.91    128.26     44.28    127.48     44.28  " /><path style="stroke-width: 0.85 ;&st7;   " d=" M   127.48,    44.28  C   126.70     44.28    126.06     44.91    126.06     45.69  " /><path style="stroke-width: 0.85 ;&st7;   " d=" M   126.06,    45.69  C   126.06     46.48    126.70     47.11    127.48     47.11  " /><path style="stroke-width: 0.85 ;&st7;   " d=" M   127.48,    47.11  C   128.26     47.11    128.90     46.48    128.90     45.69  " /><path style="stroke-width: 1.42 ;&st7;   " d=" M   125.35,    95.27  C   123.01     95.27    121.10     97.17    121.10     99.52  " /><path style="stroke-width: 1.42 ;&st7;   " d=" M   121.10,    99.52  C   121.10    101.87    123.01    103.77    125.35    103.77  " /><path style="stroke-width: 1.42 ;&st7;   " d=" M   133.85,    99.52  C   133.85     97.17    131.95     95.27    129.60     95.27  " /><path style="stroke-width: 0.85 ;&st7;  " d=" M   127.48,    69.77  L   127.48,    95.27  " /><path style="stroke-width: 1.42 ;&st7;  " d=" M   129.60,    95.27  L   125.35,    95.27  " /><path style="stroke-width: 1.42 ;&st7;  " d=" M   129.60,   103.77  L   125.35,   103.77  " /><text style="font-size:6px;font-family:'NSimSun';" transform="matrix(&st16;  121.29  86.47 )">2</text><text style="font-size:6px;font-family:'NSimSun';" transform="matrix(&st16;  113.87  101.49 )">37</text></g><g ewd:figtype="gp" ewd:figID="26" ewd:code="AB"><path style="stroke-width: 0.85 ;&st7;  " d=" M   212.46,   697.25  L   212.46,   701.50  " /><path style="stroke-width: 0.85 ;&st7;  " d=" M   203.97,   701.50  L   220.96,   701.50  " /><path style="stroke-width: 0.85 ;&st7;  " d=" M   208.22,   704.33  L   216.71,   704.33  " /><path style="stroke-width: 0.85 ;&st7;  " d=" M   209.63,   707.17  L   215.30,   707.17  " /><path style="stroke-width: 0.85 ;&st7;  " d=" M   211.05,   710.00  L   213.88,   710.00  " /></g></svg>