<?xml version="1.0" encoding="utf-8"?>
<!DOCTYPE svg PUBLIC "-//W3C//DTD SVG 1.0//EN" "http://www.w3.org/TR/2001/REC-SVG-20010904/DTD/svg10.dtd"[
	<!ENTITY ns_flows "http://ns.adobe.com/Flows/1.0/">
	<!ENTITY ns_svg "http://www.w3.org/2000/svg">
	<!ENTITY ns_xlink "http://www.w3.org/1999/xlink">
	<!ENTITY st0 "font-size:7px;font-family:'NSimSun';adobe-font-script:japanese;">
	<!ENTITY st1 "font-size:6px;font-family:'NSimSun';">
	<!-- White fill  -->
	<!ENTITY st2 "fill:#FFFFFF;stroke:#000000; stroke-width:1.41;stroke-linecap:round;stroke-linejoin:round;">
	<!-- Yellow fill  -->
	<!ENTITY st3 "fill:#FFFFCC;stroke:#FFFFCC; stroke-width:0.1;stroke-linecap:round;stroke-linejoin:round;">
	<!-- Gray fill  -->
	<!ENTITY st4 "fill:#CCCCCC;stroke:#CCCCCC; stroke-width:0.1;stroke-linecap:round;stroke-linejoin:round;">
	<!-- Light-blue fill -->
	<!ENTITY st5 "fill:#CCECF4;stroke:#000000; stroke-width:1.133;stroke-linecap:round;stroke-linejoin:round;">
	<!ENTITY st6 "fill:none;stroke-linecap:butt; stroke-linejoin:round;">
	<!ENTITY st7 "fill:none;stroke:#000000;stroke-linecap:round;stroke-linejoin:round;">
	<!ENTITY st8 "enable-background:new    ;">
	<!-- Black fill -->
	<!ENTITY st9 "fill:#000000;stroke:#000000; stroke-linecap:round;stroke-linejoin:round;">
	<!-- SRS note   -->
	<!ENTITY st10 "font-size:9px;font-family:'NSimSun';">
	<!ENTITY st11 "font-size:9px;font-family:'NSimSun';">
	<!ENTITY st12 "font-size:6px;font-family:'NSimSun';">
	<!ENTITY st13 "fill:none;stroke:#ff0000;stroke-linecap:round;stroke-linejoin:round;">
	<!-- Yellow fill  -->
	<!ENTITY st14 "fill:#FFFF00;stroke:#FFFF00; stroke-width:0.1;stroke-linecap:round;stroke-linejoin:round;">
	<!ENTITY st15 "font-size:6px;font-family:'NSimSun';adobe-font-script:japanese;">
	<!ENTITY st16 "1.00 0.00 0.00 1.00">
	<!ENTITY st17 "0.00 -1.00 1.00 0.00">
	<!ENTITY st18 "font-size:6px;font-family:'NSimSun';">
	<!ENTITY st19 "font-size:9px;font-family:'NSimSun';">
	<!ENTITY st20 "font-size:6px;font-family:'NSimSun';adobe-font-script:japanese;">
	<!ENTITY st21 "font-size:7px;font-family:'NSimSun';adobe-font-script:japanese;">
	<!ATTLIST svg
		xmlns:ewd CDATA #FIXED "http://shcl.co.jp/ewd"
		xmlns:a CDATA #FIXED "http://ns.adobe.com/AdobeSVGViewerExtensions/3.0/"
		ewd:ver CDATA #IMPLIED
	>
	<!ATTLIST a
		ewd:lineID CDATA #IMPLIED
		ewd:groupID CDATA #IMPLIED
		ewd:figtype CDATA #IMPLIED
		ewd:code CDATA #IMPLIED
		ewd:figID CDATA #IMPLIED
		ewd:pinNo CDATA #IMPLIED
		ewd:comment CDATA #IMPLIED >
	<!ATTLIST g
		ewd:lineID CDATA #IMPLIED
		ewd:groupID CDATA #IMPLIED
		ewd:figtype CDATA #IMPLIED
		ewd:code CDATA #IMPLIED
		ewd:figID CDATA #IMPLIED
		ewd:pinNo CDATA #IMPLIED
		ewd:comment CDATA #IMPLIED >
	<!ATTLIST text
		ewd:textID CDATA #IMPLIED
		ewd:horAlign CDATA #IMPLIED >
	<!ATTLIST title
		ewd:textID CDATA #IMPLIED >
]>
<!-- Generator: Shintec Hozumi YS   -->
<svg onload="call_execInitLoadProc_svg('system')" style="overflow:visible;  enable-background:new 0 0 4630.310 710.000" viewBox="0 0 4633.854 710.000" height="710.000" width="4633.854" xml:space="preserve" ewd:ver="2.1.2.6F" xmlns="&ns_svg;" xmlns:ewd="http://shcl.co.jp/ewd" xmlns:a="http://ns.adobe.com/AdobeSVGViewerExtensions/3.0/" xmlns:xlink="&ns_xlink;">
<text style="font-size:6px;font-family:'NSimSun';" transform="matrix(&st17;  557.21  487.78 )">L</text><text style="font-size:6px;font-family:'NSimSun';" transform="matrix(&st17;  914.15  490.03 )">GR</text><text style="font-size:6px;font-family:'NSimSun';" transform="matrix(&st17;  846.16  487.89 )">B</text><text style="font-size:6px;font-family:'NSimSun';" transform="matrix(&st17;  778.17  489.99 )">LG</text><text style="font-size:6px;font-family:'NSimSun';" transform="matrix(&st17;  710.18  487.7 )">P</text><text style="font-size:6px;font-family:'NSimSun';" transform="matrix(&st17;  642.2  488.01 )">V</text><text style="font-size:6px;font-family:'NSimSun';" transform="matrix(&st17;  642.2  530.5 )">V</text><text style="font-size:6px;font-family:'NSimSun';" transform="matrix(&st17;  642.2  564.5 )">V</text><text style="font-size:6px;font-family:'NSimSun';" transform="matrix(&st17;  667.69  157.22 )">W</text><text style="font-size:6px;font-family:'NSimSun';" transform="matrix(&st17;  744.18  157.22 )">W</text><text style="font-size:6px;font-family:'NSimSun';" transform="matrix(&st17;  795.17  156.25 )">P</text><path style="stroke-width: 1.42 ;&st7;  " d=" M   637.39,   545.69  L   645.89,   545.69  " /><path style="stroke-width: 1.42 ;&st7;  " d=" M   611.90,   163.26  L   603.40,   163.26  " /><text style="font-size:6px;font-family:'NSimSun';" transform="matrix(&st17;  599.7  190.44 )">B</text><text style="font-size:6px;font-family:'NSimSun';" transform="matrix(&st17;  599.7  139.45 )">B</text><text style="font-size:6px;font-family:'NSimSun';" transform="matrix(&st16;  863.44  203.45 )">E55(A),E59(B)</text><text style="font-size:6px;font-family:'NSimSun';" transform="matrix(&st16;  863.45  210.55 )" ewd:textID="13">组合仪表总成</text><path style="stroke-width: 1.42 ;&st7;  " d=" M   637.39,   503.20  L   645.89,   503.20  " /><g ewd:figtype="conn" ewd:figID="1" ewd:code="B8"><path style="stroke-width: 1.42 ;&st7;  " d=" M   654.39,   613.68  L   654.39,   579.69  L   637.39,   579.69  L   637.39,   613.68  L   654.39,   613.68  " /><path style="stroke-width: 0.85 ;&st7;   " d=" M   647.31,   585.35  C   647.31    584.57    646.67    583.94    645.89    583.94  " /><path style="stroke-width: 0.85 ;&st7;   " d=" M   645.89,   583.94  C   645.11    583.94    644.48    584.57    644.48    585.35  " /><path style="stroke-width: 0.85 ;&st7;   " d=" M   644.48,   585.35  C   644.48    586.14    645.11    586.77    645.89    586.77  " /><path style="stroke-width: 0.85 ;&st7;   " d=" M   645.89,   586.77  C   646.67    586.77    647.31    586.14    647.31    585.35  " /><path style="stroke-width: 0.85 ;&st7;   " d=" M   647.31,   608.02  C   647.31    607.23    646.67    606.60    645.89    606.60  " /><path style="stroke-width: 0.85 ;&st7;   " d=" M   645.89,   606.60  C   645.11    606.60    644.48    607.23    644.48    608.02  " /><path style="stroke-width: 0.85 ;&st7;   " d=" M   644.48,   608.02  C   644.48    608.80    645.11    609.43    645.89    609.43  " /><path style="stroke-width: 0.85 ;&st7;   " d=" M   645.89,   609.43  C   646.67    609.43    647.31    608.80    647.31    608.02  " /><path style="stroke-width: 0.85 ;&st7;  " d=" M   645.89,   583.94  L   645.89,   579.69  " /><path style="stroke-width: 0.85 ;&st7;  " d=" M   645.89,   613.68  L   645.89,   609.43  " /><path style="stroke-width: 1.42 ;&st7;  " d=" M   645.89,   606.60  L   651.56,   583.94  " /><text style="font-size:6px;font-family:'NSimSun';" transform="matrix(&st16;  639.71  576.0 )">1</text><g ewd:figtype="title"><text style="font-size:6px;font-family:'NSimSun';" transform="matrix(&st17;  662.28  616.58 )">B8</text><text style="font-size:6px;font-family:'NSimSun';" transform="matrix(&st17;  669.11  616.59 )" ewd:textID="19">发动机机油压力开关总成</text></g></g><g ewd:figtype="rb" ewd:figID="2" ewd:code="FUSE6"><path style="stroke-width: 0.85 ;&st7;  " d=" M   671.39,    69.77  L   671.39,    95.27  " /><path style="stroke-width: 1.42 ;&st7;  " d=" M   673.51,    95.27  L   669.26,    95.27  " /><path style="stroke-width: 1.42 ;&st7;  " d=" M   673.51,   103.77  L   669.26,   103.77  " /><path style="stroke-width: 1.42 ;&st7;   " d=" M   669.26,    95.27  C   666.92     95.27    665.01     97.17    665.01     99.52  " /><path style="stroke-width: 1.42 ;&st7;   " d=" M   665.01,    99.52  C   665.01    101.87    666.92    103.77    669.26    103.77  " /><path style="stroke-width: 1.42 ;&st7;   " d=" M   673.51,   103.77  C   675.86    103.77    677.76    101.87    677.76     99.52  " /><path style="stroke-width: 1.42 ;&st7;   " d=" M   677.76,    99.52  C   677.76     97.17    675.86     95.27    673.51     95.27  " /><path style="stroke-width: 0.28 ;&st9;  " d=" M   671.39,    90.37  L   668.55,    87.54  L   668.55,    91.79  L   671.39,    94.62  L   674.22,    91.79  L   674.22,    87.54  L   671.39,    90.37  " /><text style="font-size:6px;font-family:'NSimSun';" transform="matrix(&st16;  687.81  53.34 )">10A <tspan x="0 " dy="6.0">ECU-B </tspan><tspan x="0 " dy="6.0">NO.2</tspan></text><text style="font-size:6px;font-family:'NSimSun';" transform="matrix(&st16;  669.59  101.49 )">1</text><text style="font-size:6px;font-family:'NSimSun';" transform="matrix(&st16;  665.2  86.47 )">2</text><text style="font-size:6px;font-family:'NSimSun';" transform="matrix(&st16;  663.34  32.08 )">(BAT)</text><path style="stroke-width: 1.42 ;&st7;  " d=" M   605.52,    95.27  L   601.27,    95.27  " /><path style="stroke-width: 0.85 ;&st7;  " d=" M   603.40,    69.77  L   603.40,    95.27  " /><path style="stroke-width: 1.42 ;&st7;  " d=" M   605.52,   103.77  L   601.27,   103.77  " /><path style="stroke-width: 1.42 ;&st7;   " d=" M   609.77,    99.52  C   609.77     97.17    607.87     95.27    605.52     95.27  " /><path style="stroke-width: 1.42 ;&st7;   " d=" M   605.52,   103.77  C   607.87    103.77    609.77    101.87    609.77     99.52  " /><path style="stroke-width: 1.42 ;&st7;   " d=" M   597.03,    99.52  C   597.03    101.87    598.93    103.77    601.27    103.77  " /><path style="stroke-width: 1.42 ;&st7;   " d=" M   601.27,    95.27  C   598.93     95.27    597.03     97.17    597.03     99.52  " /><path style="stroke-width: 0.28 ;&st9;  " d=" M   603.40,    90.37  L   600.57,    87.54  L   600.57,    91.79  L   603.40,    94.62  L   606.23,    91.79  L   606.23,    87.54  L   603.40,    90.37  " /><text style="font-size:6px;font-family:'NSimSun';" transform="matrix(&st16;  601.6  101.49 )">1</text><text style="font-size:6px;font-family:'NSimSun';" transform="matrix(&st16;  619.82  56.17 )">10A <tspan x="0 " dy="6.0">TURN&amp;HAZ</tspan></text><text style="font-size:6px;font-family:'NSimSun';" transform="matrix(&st16;  597.21  86.47 )">2</text><text style="font-size:6px;font-family:'NSimSun';" transform="matrix(&st16;  595.36  32.08 )">(BAT)</text><path style="stroke-width: 1.42 ;&st7;   " d=" M   671.39,    66.94  C   674.13     65.33    675.04     61.80    673.42     59.06  " /><path style="stroke-width: 1.42 ;&st7;   " d=" M   673.42,    59.06  C   672.91     58.18    672.27     57.55    671.39     57.03  " /><path style="stroke-width: 0.85 ;&st7;   " d=" M   672.80,    45.69  C   672.80     44.91    672.17     44.28    671.39     44.28  " /><path style="stroke-width: 0.85 ;&st7;   " d=" M   671.39,    44.28  C   670.61     44.28    669.97     44.91    669.97     45.69  " /><path style="stroke-width: 0.85 ;&st7;   " d=" M   669.97,    45.69  C   669.97     46.48    670.61     47.11    671.39     47.11  " /><path style="stroke-width: 0.85 ;&st7;   " d=" M   671.39,    47.11  C   672.17     47.11    672.80     46.48    672.80     45.69  " /><path style="stroke-width: 0.85 ;&st7;   " d=" M   672.80,    68.36  C   672.80     67.57    672.17     66.94    671.39     66.94  " /><path style="stroke-width: 0.85 ;&st7;   " d=" M   671.39,    66.94  C   670.61     66.94    669.97     67.57    669.97     68.36  " /><path style="stroke-width: 0.85 ;&st7;   " d=" M   669.97,    68.36  C   669.97     69.14    670.61     69.77    671.39     69.77  " /><path style="stroke-width: 0.85 ;&st7;   " d=" M   671.39,    69.77  C   672.17     69.77    672.80     69.14    672.80     68.36  " /><path style="stroke-width: 1.42 ;&st7;   " d=" M   671.39,    47.11  C   668.65     48.72    667.74     52.25    669.35     54.99  " /><path style="stroke-width: 1.42 ;&st7;   " d=" M   669.35,    54.99  C   669.87     55.87    670.51     56.51    671.39     57.03  " /><path style="stroke-width: 1.42 ;&st7;  " d=" M   658.64,    35.78  L   658.64,    78.27  L   684.14,    78.27  L   684.14,    35.78  L   658.64,    35.78  " /></g><g ewd:figtype="rb" ewd:figID="3" ewd:code="FUSE17"><path style="stroke-width: 1.42 ;&st7;   " d=" M   603.40,    47.11  C   600.66     48.72    599.75     52.25    601.36     54.99  " /><path style="stroke-width: 1.42 ;&st7;   " d=" M   601.36,    54.99  C   601.88     55.87    602.52     56.51    603.40     57.03  " /><path style="stroke-width: 0.85 ;&st7;   " d=" M   604.82,    68.36  C   604.82     67.57    604.18     66.94    603.40     66.94  " /><path style="stroke-width: 0.85 ;&st7;   " d=" M   603.40,    66.94  C   602.62     66.94    601.98     67.57    601.98     68.36  " /><path style="stroke-width: 0.85 ;&st7;   " d=" M   601.98,    68.36  C   601.98     69.14    602.62     69.77    603.40     69.77  " /><path style="stroke-width: 0.85 ;&st7;   " d=" M   603.40,    69.77  C   604.18     69.77    604.82     69.14    604.82     68.36  " /><path style="stroke-width: 0.85 ;&st7;   " d=" M   604.82,    45.69  C   604.82     44.91    604.18     44.28    603.40     44.28  " /><path style="stroke-width: 0.85 ;&st7;   " d=" M   603.40,    44.28  C   602.62     44.28    601.98     44.91    601.98     45.69  " /><path style="stroke-width: 0.85 ;&st7;   " d=" M   601.98,    45.69  C   601.98     46.48    602.62     47.11    603.40     47.11  " /><path style="stroke-width: 0.85 ;&st7;   " d=" M   603.40,    47.11  C   604.18     47.11    604.82     46.48    604.82     45.69  " /><path style="stroke-width: 1.42 ;&st7;   " d=" M   603.40,    66.94  C   606.14     65.33    607.05     61.80    605.44     59.06  " /><path style="stroke-width: 1.42 ;&st7;   " d=" M   605.44,    59.06  C   604.92     58.18    604.28     57.55    603.40     57.03  " /><path style="stroke-width: 1.42 ;&st7;  " d=" M   590.65,    35.78  L   590.65,    78.27  L   616.15,    78.27  L   616.15,    35.78  L   590.65,    35.78  " /></g><g ewd:figtype="jb" ewd:figID="52" ewd:code="3"><path style="stroke-width: 0.85 ;&st7;  " d=" M   798.87,    69.77  L   798.87,    95.27  " /><path style="stroke-width: 1.42 ;&st7;  " d=" M   800.99,    95.27  L   796.74,    95.27  " /><path style="stroke-width: 1.42 ;&st7;  " d=" M   800.99,   103.77  L   796.74,   103.77  " /><path style="stroke-width: 1.42 ;&st7;   " d=" M   798.87,    47.11  C   796.13     48.72    795.22     52.25    796.83     54.99  " /><path style="stroke-width: 1.42 ;&st7;   " d=" M   796.83,    54.99  C   797.35     55.87    797.98     56.51    798.87     57.03  " /><path style="stroke-width: 1.42 ;&st7;   " d=" M   798.87,    66.94  C   801.60     65.33    802.52     61.80    800.90     59.06  " /><path style="stroke-width: 1.42 ;&st7;   " d=" M   800.90,    59.06  C   800.38     58.18    799.75     57.55    798.87     57.03  " /><path style="stroke-width: 0.85 ;&st7;   " d=" M   800.28,    45.69  C   800.28     44.91    799.65     44.28    798.87     44.28  " /><path style="stroke-width: 0.85 ;&st7;   " d=" M   798.87,    44.28  C   798.08     44.28    797.45     44.91    797.45     45.69  " /><path style="stroke-width: 0.85 ;&st7;   " d=" M   797.45,    45.69  C   797.45     46.48    798.08     47.11    798.87     47.11  " /><path style="stroke-width: 0.85 ;&st7;   " d=" M   798.87,    47.11  C   799.65     47.11    800.28     46.48    800.28     45.69  " /><path style="stroke-width: 0.85 ;&st7;   " d=" M   800.28,    68.36  C   800.28     67.57    799.65     66.94    798.87     66.94  " /><path style="stroke-width: 0.85 ;&st7;   " d=" M   798.87,    66.94  C   798.08     66.94    797.45     67.57    797.45     68.36  " /><path style="stroke-width: 0.85 ;&st7;   " d=" M   797.45,    68.36  C   797.45     69.14    798.08     69.77    798.87     69.77  " /><path style="stroke-width: 0.85 ;&st7;   " d=" M   798.87,    69.77  C   799.65     69.77    800.28     69.14    800.28     68.36  " /><path style="stroke-width: 1.42 ;&st7;   " d=" M   796.74,    95.27  C   794.40     95.27    792.49     97.17    792.49     99.52  " /><path style="stroke-width: 1.42 ;&st7;   " d=" M   800.99,   103.77  C   803.34    103.77    805.24    101.87    805.24     99.52  " /><path style="stroke-width: 1.42 ;&st7;   " d=" M   792.49,    99.52  C   792.49    101.87    794.40    103.77    796.74    103.77  " /><path style="stroke-width: 1.42 ;&st7;   " d=" M   805.24,    99.52  C   805.24     97.17    803.34     95.27    800.99     95.27  " /><path style="stroke-width: 0.28 ;&st9;  " d=" M   798.87,    90.37  L   796.03,    87.54  L   796.03,    91.79  L   798.87,    94.62  L   801.70,    91.79  L   801.70,    87.54  L   798.87,    90.37  " /><path style="stroke-width: 1.42 ;&st7;  " d=" M   786.12,    35.78  L   786.12,    78.27  L   811.61,    78.27  L   811.61,    35.78  L   786.12,    35.78  " /><text style="font-size:6px;font-family:'NSimSun';" transform="matrix(&st16;  794.89  101.49 )">3C</text><text style="font-size:6px;font-family:'NSimSun';" transform="matrix(&st16;  785.26  101.49 )">55</text><text style="font-size:6px;font-family:'NSimSun';" transform="matrix(&st16;  793.65  32.08 )">(IG)</text><text style="font-size:6px;font-family:'NSimSun';" transform="matrix(&st16;  815.29  56.17 )">5A <tspan x="0 " dy="6.0">MET</tspan></text><text style="font-size:6px;font-family:'NSimSun';" transform="matrix(&st16;  792.68  86.47 )">2</text></g><g ewd:figtype="jb" ewd:figID="53" ewd:code="3"><path style="stroke-width: 1.42 ;&st7;  " d=" M   716.01,   180.26  L   711.76,   180.26  " /><path style="stroke-width: 1.42 ;&st7;  " d=" M   716.01,   171.76  L   711.76,   171.76  " /><path style="stroke-width: 1.42 ;&st7;  " d=" M   716.01,   146.26  L   711.76,   146.26  " /><path style="stroke-width: 1.42 ;&st7;  " d=" M   716.01,   137.76  L   711.76,   137.76  " /><path style="stroke-width: 1.42 ;&st7;   " d=" M   720.25,   176.01  C   720.25    173.66    718.35    171.76    716.01    171.76  " /><path style="stroke-width: 1.42 ;&st7;   " d=" M   716.01,   180.26  C   718.35    180.26    720.25    178.35    720.25    176.01  " /><path style="stroke-width: 1.42 ;&st7;   " d=" M   707.51,   176.01  C   707.51    178.35    709.41    180.26    711.76    180.26  " /><path style="stroke-width: 1.42 ;&st7;   " d=" M   711.76,   171.76  C   709.41    171.76    707.51    173.66    707.51    176.01  " /><path style="stroke-width: 1.42 ;&st7;   " d=" M   720.25,   142.01  C   720.25    139.66    718.35    137.76    716.01    137.76  " /><path style="stroke-width: 1.42 ;&st7;   " d=" M   716.01,   146.26  C   718.35    146.26    720.25    144.36    720.25    142.01  " /><path style="stroke-width: 1.42 ;&st7;   " d=" M   707.51,   142.01  C   707.51    144.36    709.41    146.26    711.76    146.26  " /><path style="stroke-width: 1.42 ;&st7;   " d=" M   711.76,   137.76  C   709.41    137.76    707.51    139.66    707.51    142.01  " /><path style="stroke-width: 0.28 ;&st9;  " d=" M   713.88,   166.86  L   711.05,   164.03  L   711.05,   168.28  L   713.88,   171.11  L   716.71,   168.28  L   716.71,   164.03  L   713.88,   166.86  " /><path style="stroke-width: 0.28 ;&st9;  " d=" M   713.88,   151.16  L   716.71,   153.99  L   716.71,   149.74  L   713.88,   146.91  L   711.05,   149.74  L   711.05,   153.99  L   713.88,   151.16  " /><path style="stroke-width: 0.85 ;&st7;  " d=" M   713.88,   171.76  L   713.88,   146.26  " /><text style="font-size:6px;font-family:'NSimSun';" transform="matrix(&st16;  700.27  177.98 )">44</text><text style="font-size:6px;font-family:'NSimSun';" transform="matrix(&st16;  710.03  177.98 )">3A</text><text style="font-size:6px;font-family:'NSimSun';" transform="matrix(&st16;  700.27  143.98 )">34</text><text style="font-size:6px;font-family:'NSimSun';" transform="matrix(&st16;  709.95  143.98 )">3D</text></g><g ewd:figtype="w2w" ewd:figID="62" ewd:code="AE3"><path style="stroke-width: 1.42 ;&st7;  " d=" M   607.65,   172.32  L   603.40,   168.07  L   599.15,   172.32  " /><path style="stroke-width: 1.42 ;&st7;  " d=" M   607.65,   168.92  L   603.40,   164.67  L   599.15,   168.92  " /><text style="font-size:6px;font-family:'NSimSun';" transform="matrix(&st16;  590.77  160.98 )">2</text></g><g ewd:figtype="w2w" ewd:figID="63" ewd:code="BA2"><text style="font-size:6px;font-family:'NSimSun';" transform="matrix(&st16;  630.16  551.91 )">15</text><path style="stroke-width: 1.42 ;&st7;  " d=" M   650.14,   540.03  L   645.89,   544.28  L   641.64,   540.03  " /><path style="stroke-width: 1.42 ;&st7;  " d=" M   641.64,   536.63  L   645.89,   540.88  L   650.14,   536.63  " /></g><g ewd:figtype="w2w" ewd:figID="64" ewd:code="AE4"><text style="font-size:6px;font-family:'NSimSun';" transform="matrix(&st16;  633.26  509.42 )">5</text><path style="stroke-width: 1.42 ;&st7;  " d=" M   650.14,   497.54  L   645.89,   501.78  L   641.64,   497.54  " /><path style="stroke-width: 1.42 ;&st7;  " d=" M   641.64,   494.14  L   645.89,   498.39  L   650.14,   494.14  " /></g><g ewd:figtype="annex" ewd:figID="36" ewd:code=" "><path style="stroke-width: 1.42 ;&st7;  " d=" M   560.91,   511.70  L   555.85,   500.34  " /><path style="stroke-width: 1.42 ;&st7;  " d=" M   560.91,   511.70  L   565.97,   500.34  " /><text style="font-size:6px;font-family:'NSimSun';" transform="matrix(&st17; 563.06 574.04)" ewd:textID="26" ewd:horAlign="right">前排座椅内安全带总成<tspan x="0 " dy="6.0" /></text></g><g ewd:figtype="annex" ewd:figID="37" ewd:code=" "><path style="stroke-width: 1.42 ;&st7;  " d=" M   849.86,   511.70  L   844.80,   500.34  " /><path style="stroke-width: 0.85 ;&st7;  " d=" M   854.11,   515.95  L   849.86,   520.20  L   783.99,   520.20  L   781.87,   524.45  L   779.74,   520.20  L   713.88,   520.20  L   709.63,   515.95  " /><path style="stroke-width: 1.42 ;&st7;  " d=" M   781.87,   511.70  L   776.81,   500.34  " /><path style="stroke-width: 1.42 ;&st7;  " d=" M   849.86,   511.70  L   854.92,   500.34  " /><path style="stroke-width: 1.42 ;&st7;  " d=" M   713.88,   511.70  L   708.82,   500.34  " /><path style="stroke-width: 1.42 ;&st7;  " d=" M   713.88,   511.70  L   718.94,   500.34  " /><path style="stroke-width: 1.42 ;&st7;  " d=" M   917.85,   511.70  L   912.79,   500.34  " /><path style="stroke-width: 1.42 ;&st7;  " d=" M   781.87,   511.70  L   786.93,   500.34  " /><path style="stroke-width: 1.42 ;&st7;  " d=" M   917.85,   511.70  L   922.91,   500.34  " /><text style="font-size:6px;font-family:'NSimSun';" transform="matrix(&st16; 760.02 534.69)" ewd:textID="35">大灯变光器开关总成<tspan x="0 " dy="6.0" /></text><text style="font-size:6px;font-family:'NSimSun';" transform="matrix(&st17; 920.00 575.89)" ewd:textID="33">危险警告信号开关总成<tspan x="0 " dy="6.0" /></text></g><g ewd:figtype="annex" ewd:figID="107" ewd:code=" "><path style="stroke-width: 0.85 ;&st7;  " d=" M   643.06,   627.85  L   648.72,   627.85  " /><path style="stroke-width: 0.85 ;&st7;  " d=" M   645.89,   613.68  L   645.89,   622.18  " /><path style="stroke-width: 0.85 ;&st7;  " d=" M   641.64,   625.01  L   650.14,   625.01  " /><path style="stroke-width: 0.85 ;&st7;  " d=" M   637.39,   622.18  L   654.39,   622.18  " /><path style="stroke-width: 0.85 ;&st7;  " d=" M   644.48,   630.68  L   647.31,   630.68  " /></g></svg>