<?xml version="1.0" encoding="utf-8"?>
<!DOCTYPE svg PUBLIC "-//W3C//DTD SVG 1.0//EN" "http://www.w3.org/TR/2001/REC-SVG-20010904/DTD/svg10.dtd"[
	<!ENTITY ns_flows "http://ns.adobe.com/Flows/1.0/">
	<!ENTITY ns_svg "http://www.w3.org/2000/svg">
	<!ENTITY ns_xlink "http://www.w3.org/1999/xlink">
	<!ENTITY st0 "font-size:7px;font-family:'NSimSun';adobe-font-script:japanese;">
	<!ENTITY st1 "font-size:6px;font-family:'NSimSun';">
	<!-- White fill  -->
	<!ENTITY st2 "fill:#FFFFFF;stroke:#000000; stroke-width:1.41;stroke-linecap:round;stroke-linejoin:round;">
	<!-- Yellow fill  -->
	<!ENTITY st3 "fill:#FFFFCC;stroke:#FFFFCC; stroke-width:0.1;stroke-linecap:round;stroke-linejoin:round;">
	<!-- Gray fill  -->
	<!ENTITY st4 "fill:#CCCCCC;stroke:#CCCCCC; stroke-width:0.1;stroke-linecap:round;stroke-linejoin:round;">
	<!-- Light-blue fill -->
	<!ENTITY st5 "fill:#CCECF4;stroke:#000000; stroke-width:1.133;stroke-linecap:round;stroke-linejoin:round;">
	<!ENTITY st6 "fill:none;stroke-linecap:butt; stroke-linejoin:round;">
	<!ENTITY st7 "fill:none;stroke:#000000;stroke-linecap:round;stroke-linejoin:round;">
	<!ENTITY st8 "enable-background:new    ;">
	<!-- Black fill -->
	<!ENTITY st9 "fill:#000000;stroke:#000000; stroke-linecap:round;stroke-linejoin:round;">
	<!-- SRS note   -->
	<!ENTITY st10 "font-size:9px;font-family:'NSimSun';">
	<!ENTITY st11 "font-size:9px;font-family:'NSimSun';">
	<!ENTITY st12 "font-size:6px;font-family:'NSimSun';">
	<!ENTITY st13 "fill:none;stroke:#ff0000;stroke-linecap:round;stroke-linejoin:round;">
	<!-- Yellow fill  -->
	<!ENTITY st14 "fill:#FFFF00;stroke:#FFFF00; stroke-width:0.1;stroke-linecap:round;stroke-linejoin:round;">
	<!ENTITY st15 "font-size:6px;font-family:'NSimSun';adobe-font-script:japanese;">
	<!ENTITY st16 "1.00 0.00 0.00 1.00">
	<!ENTITY st17 "0.00 -1.00 1.00 0.00">
	<!ENTITY st18 "font-size:6px;font-family:'NSimSun';">
	<!ENTITY st19 "font-size:9px;font-family:'NSimSun';">
	<!ENTITY st20 "font-size:6px;font-family:'NSimSun';adobe-font-script:japanese;">
	<!ENTITY st21 "font-size:7px;font-family:'NSimSun';adobe-font-script:japanese;">
	<!ATTLIST svg
		xmlns:ewd CDATA #FIXED "http://shcl.co.jp/ewd"
		xmlns:a CDATA #FIXED "http://ns.adobe.com/AdobeSVGViewerExtensions/3.0/"
		ewd:ver CDATA #IMPLIED
	>
	<!ATTLIST a
		ewd:lineID CDATA #IMPLIED
		ewd:groupID CDATA #IMPLIED
		ewd:figtype CDATA #IMPLIED
		ewd:code CDATA #IMPLIED
		ewd:figID CDATA #IMPLIED
		ewd:pinNo CDATA #IMPLIED
		ewd:comment CDATA #IMPLIED >
	<!ATTLIST g
		ewd:lineID CDATA #IMPLIED
		ewd:groupID CDATA #IMPLIED
		ewd:figtype CDATA #IMPLIED
		ewd:code CDATA #IMPLIED
		ewd:figID CDATA #IMPLIED
		ewd:pinNo CDATA #IMPLIED
		ewd:comment CDATA #IMPLIED >
	<!ATTLIST text
		ewd:textID CDATA #IMPLIED
		ewd:horAlign CDATA #IMPLIED >
	<!ATTLIST title
		ewd:textID CDATA #IMPLIED >
]>
<!-- Generator: Shintec Hozumi YS   -->
<svg onload="call_execInitLoadProc_svg('system')" style="overflow:visible;  enable-background:new 0 0 4630.310 710.000" viewBox="0 0 4633.854 710.000" height="710.000" width="4633.854" xml:space="preserve" ewd:ver="2.1.2.6F" xmlns="&ns_svg;" xmlns:ewd="http://shcl.co.jp/ewd" xmlns:a="http://ns.adobe.com/AdobeSVGViewerExtensions/3.0/" xmlns:xlink="&ns_xlink;">
<path style="stroke-width: 1.42 ;&st7;  " d=" M  3552.41,   273.74  L  3560.91,   273.74  " /><path style="stroke-width: 1.42 ;&st7;  " d=" M  3543.91,   591.72  L  3548.88,   596.69  " /><path style="stroke-width: 1.42 ;&st7;  " d=" M  3555.93,   596.69  L  3560.91,   591.72  " /><path style="stroke-width: 1.42 ;&st7;  " d=" M  3560.91,   584.66  L  3555.93,   579.69  " /><path style="stroke-width: 1.42 ;&st7;  " d=" M  3548.88,   579.69  L  3543.91,   584.66  " /><path style="stroke-width: 1.42 ;&st7;  " d=" M  3504.94,   494.70  L  3509.91,   489.73  " /><path style="stroke-width: 1.42 ;&st7;  " d=" M  3509.91,   482.68  L  3504.94,   477.71  " /><path style="stroke-width: 1.42 ;&st7;  " d=" M  3552.41,   149.79  L  3557.38,   154.76  " /><path style="stroke-width: 1.42 ;&st7;  " d=" M  3569.40,   142.73  L  3564.43,   137.76  " /><path style="stroke-width: 1.42 ;&st7;  " d=" M  3564.43,   154.76  L  3569.40,   149.79  " /><path style="stroke-width: 1.42 ;&st7;  " d=" M  3557.38,   137.76  L  3552.41,   142.73  " /><path style="stroke-width: 1.42 ;&st7;  " d=" M  3985.83,   231.25  L  3994.33,   231.25  " /><text style="font-size:6px;font-family:'NSimSun';" transform="matrix(&st17;  3500.55  176.47 )">(*6)</text><text style="font-size:6px;font-family:'NSimSun';" transform="matrix(&st17;  3744.18  173.33 )">L</text><text style="font-size:6px;font-family:'NSimSun';" transform="matrix(&st17;  3914.15  173.33 )">L</text><text style="font-size:6px;font-family:'NSimSun';" transform="matrix(&st17;  3990.64  173.72 )">G</text><text style="font-size:6px;font-family:'NSimSun';" transform="matrix(&st17;  3667.69  173.72 )">G</text><text style="font-size:6px;font-family:'NSimSun';" transform="matrix(&st17;  3956.64  173.72 )">G</text><text style="font-size:6px;font-family:'NSimSun';" transform="matrix(&st17;  3557.21  252.07 )">GR</text><text style="font-size:6px;font-family:'NSimSun';" transform="matrix(&st17;  3568.54  252.96 )">(*8)</text><text style="font-size:6px;font-family:'NSimSun';" transform="matrix(&st17;  3557.21  122.45 )">B</text><text style="font-size:6px;font-family:'NSimSun';" transform="matrix(&st17;  3568.54  125.48 )">(*8)</text><text style="font-size:6px;font-family:'NSimSun';" transform="matrix(&st17;  3568.54  312.45 )">(*8)</text><text style="font-size:6px;font-family:'NSimSun';" transform="matrix(&st17;  3557.21  311.56 )">GR</text><text style="font-size:6px;font-family:'NSimSun';" transform="matrix(&st17;  3548.71  515.25 )">BR</text><text style="font-size:6px;font-family:'NSimSun';" transform="matrix(&st17;  3548.71  625.73 )">BR</text><text style="font-size:6px;font-family:'NSimSun';" transform="matrix(&st16;  3651.93  635.48 )">G</text><text style="font-size:6px;font-family:'NSimSun';" transform="matrix(&st16;  3600.94  635.48 )">G</text><text style="font-size:6px;font-family:'NSimSun';" transform="matrix(&st16;  3651.43  652.48 )">W</text><text style="font-size:6px;font-family:'NSimSun';" transform="matrix(&st16;  3600.43  652.48 )">W</text><text style="font-size:6px;font-family:'NSimSun';" transform="matrix(&st17;  3557.21  173.45 )">B</text><text style="font-size:6px;font-family:'NSimSun';" transform="matrix(&st17;  3568.54  176.47 )">(*8)</text><text style="font-size:6px;font-family:'NSimSun';" transform="matrix(&st17;  3990.64  292.7 )">G</text><g ewd:figtype="conn" ewd:figID="4" ewd:code="E36"><path style="stroke-width: 1.42 ;&st7;  " d=" M  3866.85,    35.78  L  3866.85,    86.77  L  4623.23,    86.77  L  4623.23,    35.78  L  3866.85,    35.78  " /><g ewd:lineID="81"><text style="font-size:6px;font-family:'NSimSun';" transform="matrix(&st16;  3982.54  93.27 )">14</text><path style="stroke-width: 1.42 ;&st7;   " d=" M  3998.87,    91.30  C  3998.87     88.80   3996.84     86.77   3994.33     86.77  " /><path style="stroke-width: 1.42 ;&st7;   " d=" M  3994.33,    86.77  C  3991.83     86.77   3989.80     88.80   3989.80     91.30  " /><path style="stroke-width: 1.42 ;&st7;   " d=" M  3989.80,    91.30  C  3989.80     93.81   3991.83     95.84   3994.33     95.84  " /><path style="stroke-width: 1.42 ;&st7;   " d=" M  3994.33,    95.84  C  3996.84     95.84   3998.87     93.81   3998.87     91.30  " /><text style="font-size:6px;font-family:'NSimSun';" transform="matrix(&st16;  3992.03  93.27 )">A</text><text style="font-size:6px;font-family:'NSimSun';" transform="matrix(&st16;  3985.55  83.07 )">CANH</text></g><g ewd:figtype="title"><text style="font-size:6px;font-family:'NSimSun';" transform="matrix(&st16;  3863.45  32.08 )" ewd:textID="44">主车身 ECU</text><text style="font-size:6px;font-family:'NSimSun';" transform="matrix(&st16;  3863.44  24.98 )">E36(A)</text></g><g ewd:lineID="110"><text style="font-size:6px;font-family:'NSimSun';" transform="matrix(&st16;  3877.2  83.07 )">ACC</text><text style="font-size:6px;font-family:'NSimSun';" transform="matrix(&st16;  3914.49  83.07 )">IG</text><text style="font-size:6px;font-family:'NSimSun';" transform="matrix(&st16;  3951.98  83.07 )">BECU</text></g></g><g ewd:figtype="rb" ewd:figID="12" ewd:code="FUSE5"><path style="stroke-width: 1.42 ;&st7;  " d=" M  3673.51,   103.77  L  3669.26,   103.77  " /><path style="stroke-width: 1.42 ;&st7;  " d=" M  3673.51,    95.27  L  3669.26,    95.27  " /><path style="stroke-width: 1.42 ;&st7;   " d=" M  3677.76,    99.52  C  3677.76     97.17   3675.86     95.27   3673.51     95.27  " /><path style="stroke-width: 1.42 ;&st7;   " d=" M  3673.51,   103.77  C  3675.86    103.77   3677.76    101.87   3677.76     99.52  " /><path style="stroke-width: 1.42 ;&st7;   " d=" M  3665.01,    99.52  C  3665.01    101.87   3666.92    103.77   3669.26    103.77  " /><path style="stroke-width: 1.42 ;&st7;   " d=" M  3669.26,    95.27  C  3666.92     95.27   3665.01     97.17   3665.01     99.52  " /><path style="stroke-width: 0.85 ;&st7;  " d=" M  3671.39,    69.77  L  3671.39,    95.27  " /><path style="stroke-width: 0.28 ;&st9;  " d=" M  3671.39,    90.37  L  3668.55,    87.54  L  3668.55,    91.79  L  3671.39,    94.62  L  3674.22,    91.79  L  3674.22,    87.54  L  3671.39,    90.37  " /><text style="font-size:6px;font-family:'NSimSun';" transform="matrix(&st16;  3665.2  86.47 )">2</text><text style="font-size:6px;font-family:'NSimSun';" transform="matrix(&st16;  3669.59  101.49 )">1</text><text style="font-size:6px;font-family:'NSimSun';" transform="matrix(&st16;  3663.34  32.08 )">(BAT)</text><text style="font-size:6px;font-family:'NSimSun';" transform="matrix(&st16;  3687.81  53.34 )">10A <tspan x="0 " dy="6.0">ECU-B </tspan><tspan x="0 " dy="6.0">NO.1</tspan></text><path style="stroke-width: 0.85 ;&st7;   " d=" M  3672.80,    68.36  C  3672.80     67.57   3672.17     66.94   3671.39     66.94  " /><path style="stroke-width: 0.85 ;&st7;   " d=" M  3671.39,    66.94  C  3670.60     66.94   3669.97     67.57   3669.97     68.36  " /><path style="stroke-width: 0.85 ;&st7;   " d=" M  3669.97,    68.36  C  3669.97     69.14   3670.60     69.77   3671.39     69.77  " /><path style="stroke-width: 0.85 ;&st7;   " d=" M  3671.39,    69.77  C  3672.17     69.77   3672.80     69.14   3672.80     68.36  " /><path style="stroke-width: 0.85 ;&st7;   " d=" M  3672.80,    45.69  C  3672.80     44.91   3672.17     44.28   3671.39     44.28  " /><path style="stroke-width: 0.85 ;&st7;   " d=" M  3671.39,    44.28  C  3670.60     44.28   3669.97     44.91   3669.97     45.69  " /><path style="stroke-width: 0.85 ;&st7;   " d=" M  3669.97,    45.69  C  3669.97     46.48   3670.60     47.11   3671.39     47.11  " /><path style="stroke-width: 0.85 ;&st7;   " d=" M  3671.39,    47.11  C  3672.17     47.11   3672.80     46.48   3672.80     45.69  " /><path style="stroke-width: 1.42 ;&st7;   " d=" M  3671.39,    66.94  C  3674.12     65.33   3675.04     61.80   3673.42     59.06  " /><path style="stroke-width: 1.42 ;&st7;   " d=" M  3673.42,    59.06  C  3672.90     58.18   3672.27     57.55   3671.39     57.03  " /><path style="stroke-width: 1.42 ;&st7;   " d=" M  3671.39,    47.11  C  3668.65     48.72   3667.74     52.25   3669.35     54.99  " /><path style="stroke-width: 1.42 ;&st7;   " d=" M  3669.35,    54.99  C  3669.87     55.87   3670.50     56.51   3671.39     57.03  " /><path style="stroke-width: 1.42 ;&st7;  " d=" M  3658.64,    35.78  L  3658.64,    78.27  L  3684.13,    78.27  L  3684.13,    35.78  L  3658.64,    35.78  " /></g><g ewd:figtype="conn" ewd:figID="15" ewd:code="A4"><path style="stroke-width: 0.85 ;&st7;  " d=" M  3560.91,   222.75  L  3560.91,   218.50  " /><path style="stroke-width: 1.42 ;&st7;  " d=" M  3560.91,   215.67  L  3566.57,   193.00  " /><path style="stroke-width: 0.85 ;&st7;  " d=" M  3560.91,   193.00  L  3560.91,   188.75  " /><path style="stroke-width: 0.85 ;&st7;   " d=" M  3562.32,   217.08  C  3562.32    216.30   3561.69    215.67   3560.91    215.67  " /><path style="stroke-width: 0.85 ;&st7;   " d=" M  3560.91,   215.67  C  3560.12    215.67   3559.49    216.30   3559.49    217.08  " /><path style="stroke-width: 0.85 ;&st7;   " d=" M  3559.49,   217.08  C  3559.49    217.86   3560.12    218.50   3560.91    218.50  " /><path style="stroke-width: 0.85 ;&st7;   " d=" M  3560.91,   218.50  C  3561.69    218.50   3562.32    217.86   3562.32    217.08  " /><path style="stroke-width: 0.85 ;&st7;   " d=" M  3562.32,   194.42  C  3562.32    193.64   3561.69    193.00   3560.91    193.00  " /><path style="stroke-width: 0.85 ;&st7;   " d=" M  3560.91,   193.00  C  3560.12    193.00   3559.49    193.64   3559.49    194.42  " /><path style="stroke-width: 0.85 ;&st7;   " d=" M  3559.49,   194.42  C  3559.49    195.20   3560.12    195.84   3560.91    195.84  " /><path style="stroke-width: 0.85 ;&st7;   " d=" M  3560.91,   195.84  C  3561.69    195.84   3562.32    195.20   3562.32    194.42  " /><path style="stroke-width: 1.42 ;&st7;  " d=" M  3569.40,   222.75  L  3569.40,   188.75  L  3552.40,   188.75  L  3552.40,   222.75  L  3569.40,   222.75  " /><text style="font-size:6px;font-family:'NSimSun';" transform="matrix(&st16;  3554.72  230.94 )">2</text><text style="font-size:6px;font-family:'NSimSun';" transform="matrix(&st16;  3554.72  185.06 )">1</text><g ewd:figtype="title"><text style="font-size:6px;font-family:'NSimSun';" transform="matrix(&st17;  3577.3  225.65 )">A4</text><text style="font-size:6px;font-family:'NSimSun';" transform="matrix(&st17;  3584.12  225.65 )" ewd:textID="12">离合器起动开关总成<tspan x="0 " dy="6.0" /></text></g></g><g ewd:figtype="rb" ewd:figID="19" ewd:code="FUSE7"><path style="stroke-width: 1.42 ;&st7;  " d=" M  3563.03,   103.77  L  3558.78,   103.77  " /><path style="stroke-width: 0.85 ;&st7;  " d=" M  3560.91,    69.77  L  3560.91,    95.27  " /><path style="stroke-width: 1.42 ;&st7;  " d=" M  3563.03,    95.27  L  3558.78,    95.27  " /><path style="stroke-width: 1.42 ;&st7;   " d=" M  3558.78,    95.27  C  3556.43     95.27   3554.53     97.17   3554.53     99.52  " /><path style="stroke-width: 1.42 ;&st7;   " d=" M  3554.53,    99.52  C  3554.53    101.87   3556.43    103.77   3558.78    103.77  " /><path style="stroke-width: 1.42 ;&st7;   " d=" M  3563.03,   103.77  C  3565.38    103.77   3567.28    101.87   3567.28     99.52  " /><path style="stroke-width: 1.42 ;&st7;   " d=" M  3567.28,    99.52  C  3567.28     97.17   3565.38     95.27   3563.03     95.27  " /><path style="stroke-width: 0.28 ;&st9;  " d=" M  3560.90,    90.37  L  3558.07,    87.54  L  3558.07,    91.79  L  3560.90,    94.62  L  3563.74,    91.79  L  3563.74,    87.54  L  3560.90,    90.37  " /><text style="font-size:6px;font-family:'NSimSun';" transform="matrix(&st16;  3577.33  53.34 )">10A <tspan x="0 " dy="6.0">EFI </tspan><tspan x="0 " dy="6.0">NO.1</tspan></text><text style="font-size:6px;font-family:'NSimSun';" transform="matrix(&st16;  3559.1  101.49 )">1</text><text style="font-size:6px;font-family:'NSimSun';" transform="matrix(&st16;  3555.69  32.08 )">(IG)</text><text style="font-size:6px;font-family:'NSimSun';" transform="matrix(&st16;  3554.72  86.47 )">2</text><path style="stroke-width: 1.42 ;&st7;   " d=" M  3560.91,    66.94  C  3563.64     65.33   3564.55     61.80   3562.94     59.06  " /><path style="stroke-width: 1.42 ;&st7;   " d=" M  3562.94,    59.06  C  3562.42     58.18   3561.79     57.55   3560.91     57.03  " /><path style="stroke-width: 0.85 ;&st7;   " d=" M  3562.32,    68.36  C  3562.32     67.57   3561.69     66.94   3560.91     66.94  " /><path style="stroke-width: 0.85 ;&st7;   " d=" M  3560.91,    66.94  C  3560.12     66.94   3559.49     67.57   3559.49     68.36  " /><path style="stroke-width: 0.85 ;&st7;   " d=" M  3559.49,    68.36  C  3559.49     69.14   3560.12     69.77   3560.91     69.77  " /><path style="stroke-width: 0.85 ;&st7;   " d=" M  3560.91,    69.77  C  3561.69     69.77   3562.32     69.14   3562.32     68.36  " /><path style="stroke-width: 0.85 ;&st7;   " d=" M  3562.32,    45.69  C  3562.32     44.91   3561.69     44.28   3560.91     44.28  " /><path style="stroke-width: 0.85 ;&st7;   " d=" M  3560.91,    44.28  C  3560.12     44.28   3559.49     44.91   3559.49     45.69  " /><path style="stroke-width: 0.85 ;&st7;   " d=" M  3559.49,    45.69  C  3559.49     46.48   3560.12     47.11   3560.91     47.11  " /><path style="stroke-width: 0.85 ;&st7;   " d=" M  3560.91,    47.11  C  3561.69     47.11   3562.32     46.48   3562.32     45.69  " /><path style="stroke-width: 1.42 ;&st7;   " d=" M  3560.91,    47.11  C  3558.17     48.72   3557.26     52.25   3558.87     54.99  " /><path style="stroke-width: 1.42 ;&st7;   " d=" M  3558.87,    54.99  C  3559.39     55.87   3560.02     56.51   3560.91     57.03  " /><path style="stroke-width: 1.42 ;&st7;  " d=" M  3548.16,    35.78  L  3548.16,    78.27  L  3573.65,    78.27  L  3573.65,    35.78  L  3548.16,    35.78  " /></g><g ewd:figtype="jb" ewd:figID="54" ewd:code="3"><path style="stroke-width: 1.42 ;&st7;  " d=" M  3919.97,   146.26  L  3915.72,   146.26  " /><path style="stroke-width: 1.42 ;&st7;  " d=" M  3919.97,   154.76  L  3915.72,   154.76  " /><path style="stroke-width: 0.85 ;&st7;  " d=" M  3747.87,    69.77  L  3747.87,   146.26  " /><path style="stroke-width: 1.42 ;&st7;  " d=" M  3750.00,   146.26  L  3745.75,   146.26  " /><path style="stroke-width: 1.42 ;&st7;  " d=" M  3750.00,   154.76  L  3745.75,   154.76  " /><path style="stroke-width: 1.42 ;&st7;  " d=" M  3962.46,   154.76  L  3958.21,   154.76  " /><path style="stroke-width: 1.42 ;&st7;  " d=" M  3962.46,   146.26  L  3958.21,   146.26  " /><path style="stroke-width: 1.42 ;&st7;   " d=" M  3915.72,   146.26  C  3913.37    146.26   3911.47    148.16   3911.47    150.51  " /><path style="stroke-width: 1.42 ;&st7;   " d=" M  3911.47,   150.51  C  3911.47    152.86   3913.37    154.76   3915.72    154.76  " /><path style="stroke-width: 1.42 ;&st7;   " d=" M  3741.50,   150.51  C  3741.50    152.86   3743.40    154.76   3745.75    154.76  " /><path style="stroke-width: 1.42 ;&st7;   " d=" M  3754.25,   150.51  C  3754.25    148.16   3752.35    146.26   3750.00    146.26  " /><path style="stroke-width: 1.42 ;&st7;   " d=" M  3745.75,   146.26  C  3743.40    146.26   3741.50    148.16   3741.50    150.51  " /><path style="stroke-width: 1.42 ;&st7;   " d=" M  3919.97,   154.76  C  3922.32    154.76   3924.22    152.86   3924.22    150.51  " /><path style="stroke-width: 1.42 ;&st7;   " d=" M  3924.22,   150.51  C  3924.22    148.16   3922.32    146.26   3919.97    146.26  " /><path style="stroke-width: 1.42 ;&st7;   " d=" M  3750.00,   154.76  C  3752.35    154.76   3754.25    152.86   3754.25    150.51  " /><path style="stroke-width: 0.85 ;&st7;   " d=" M  3749.29,    68.36  C  3749.29     67.57   3748.66     66.94   3747.87     66.94  " /><path style="stroke-width: 0.85 ;&st7;   " d=" M  3747.87,    66.94  C  3747.09     66.94   3746.46     67.57   3746.46     68.36  " /><path style="stroke-width: 0.85 ;&st7;   " d=" M  3746.46,    68.36  C  3746.46     69.14   3747.09     69.77   3747.87     69.77  " /><path style="stroke-width: 0.85 ;&st7;   " d=" M  3747.87,    69.77  C  3748.66     69.77   3749.29     69.14   3749.29     68.36  " /><path style="stroke-width: 0.85 ;&st7;   " d=" M  3749.29,    45.69  C  3749.29     44.91   3748.66     44.28   3747.87     44.28  " /><path style="stroke-width: 0.85 ;&st7;   " d=" M  3747.87,    44.28  C  3747.09     44.28   3746.46     44.91   3746.46     45.69  " /><path style="stroke-width: 0.85 ;&st7;   " d=" M  3746.46,    45.69  C  3746.46     46.48   3747.09     47.11   3747.87     47.11  " /><path style="stroke-width: 0.85 ;&st7;   " d=" M  3747.87,    47.11  C  3748.66     47.11   3749.29     46.48   3749.29     45.69  " /><path style="stroke-width: 1.42 ;&st7;   " d=" M  3747.87,    66.94  C  3750.61     65.33   3751.52     61.80   3749.91     59.06  " /><path style="stroke-width: 1.42 ;&st7;   " d=" M  3749.91,    59.06  C  3749.39     58.18   3748.76     57.55   3747.87     57.03  " /><path style="stroke-width: 1.42 ;&st7;   " d=" M  3747.87,    47.11  C  3745.14     48.72   3744.22     52.25   3745.84     54.99  " /><path style="stroke-width: 1.42 ;&st7;   " d=" M  3745.84,    54.99  C  3746.36     55.87   3746.99     56.51   3747.87     57.03  " /><path style="stroke-width: 1.42 ;&st7;   " d=" M  3966.71,   150.51  C  3966.71    148.16   3964.81    146.26   3962.46    146.26  " /><path style="stroke-width: 1.42 ;&st7;   " d=" M  3962.46,   154.76  C  3964.81    154.76   3966.71    152.86   3966.71    150.51  " /><path style="stroke-width: 1.42 ;&st7;   " d=" M  3953.96,   150.51  C  3953.96    152.86   3955.87    154.76   3958.21    154.76  " /><path style="stroke-width: 1.42 ;&st7;   " d=" M  3958.21,   146.26  C  3955.87    146.26   3953.96    148.16   3953.96    150.51  " /><path style="stroke-width: 0.85 ;&st7;   " d=" M  3817.28,    68.36  C  3817.28     67.57   3816.64     66.94   3815.86     66.94  " /><path style="stroke-width: 0.85 ;&st7;   " d=" M  3815.86,    66.94  C  3815.08     66.94   3814.45     67.57   3814.45     68.36  " /><path style="stroke-width: 0.85 ;&st7;   " d=" M  3814.45,    68.36  C  3814.45     69.14   3815.08     69.77   3815.86     69.77  " /><path style="stroke-width: 0.85 ;&st7;   " d=" M  3815.86,    69.77  C  3816.64     69.77   3817.28     69.14   3817.28     68.36  " /><path style="stroke-width: 0.85 ;&st7;   " d=" M  3817.28,    45.69  C  3817.28     44.91   3816.64     44.28   3815.86     44.28  " /><path style="stroke-width: 0.85 ;&st7;   " d=" M  3815.86,    44.28  C  3815.08     44.28   3814.45     44.91   3814.45     45.69  " /><path style="stroke-width: 0.85 ;&st7;   " d=" M  3814.45,    45.69  C  3814.45     46.48   3815.08     47.11   3815.86     47.11  " /><path style="stroke-width: 0.85 ;&st7;   " d=" M  3815.86,    47.11  C  3816.64     47.11   3817.28     46.48   3817.28     45.69  " /><path style="stroke-width: 1.42 ;&st7;   " d=" M  3815.86,    66.94  C  3818.60     65.33   3819.51     61.80   3817.90     59.06  " /><path style="stroke-width: 1.42 ;&st7;   " d=" M  3817.90,    59.06  C  3817.38     58.18   3816.74     57.55   3815.86     57.03  " /><path style="stroke-width: 1.42 ;&st7;   " d=" M  3815.86,    47.11  C  3813.12     48.72   3812.21     52.25   3813.83     54.99  " /><path style="stroke-width: 1.42 ;&st7;   " d=" M  3813.83,    54.99  C  3814.35     55.87   3814.98     56.51   3815.86     57.03  " /><path style="stroke-width: 0.28 ;&st9;  " d=" M  3747.87,   141.37  L  3745.04,   138.53  L  3745.04,   142.78  L  3747.87,   145.62  L  3750.71,   142.78  L  3750.71,   138.53  L  3747.87,   141.37  " /><path style="stroke-width: 0.85 ;&st7;  " d=" M  3917.84,    86.77  L  3917.84,   146.26  " /><path style="stroke-width: 0.28 ;&st9;  " d=" M  3917.84,   141.37  L  3915.01,   138.53  L  3915.01,   142.78  L  3917.84,   145.62  L  3920.68,   142.78  L  3920.68,   138.53  L  3917.84,   141.37  " /><path style="stroke-width: 1.42 ;&st7;  " d=" M  3735.12,    35.78  L  3735.12,    78.27  L  3760.62,    78.27  L  3760.62,    35.78  L  3735.12,    35.78  " /><path style="stroke-width: 0.85 ;&st7;  " d=" M  3960.34,    86.77  L  3960.34,   146.26  " /><path style="stroke-width: 0.28 ;&st9;  " d=" M  3960.34,   141.37  L  3957.50,   138.53  L  3957.50,   142.78  L  3960.34,   145.62  L  3963.17,   142.78  L  3963.17,   138.53  L  3960.34,   141.37  " /><path style="stroke-width: 1.42 ;&st7;  " d=" M  3803.11,    35.78  L  3803.11,    78.27  L  3828.61,    78.27  L  3828.61,    35.78  L  3803.11,    35.78  " /><path style="stroke-width: 0.85 ;&st7;  " d=" M  3815.86,    69.77  L  3815.86,   129.26  L  3883.85,   129.26  L  3883.85,    86.77  " /><text style="font-size:6px;font-family:'NSimSun';" transform="matrix(&st16;  3743.9  152.48 )">3C</text><text style="font-size:6px;font-family:'NSimSun';" transform="matrix(&st16;  3734.26  152.48 )">17</text><text style="font-size:6px;font-family:'NSimSun';" transform="matrix(&st16;  3913.87  152.48 )">3C</text><text style="font-size:6px;font-family:'NSimSun';" transform="matrix(&st16;  3904.24  152.48 )">51</text><text style="font-size:6px;font-family:'NSimSun';" transform="matrix(&st16;  3809.68  86.47 )">2</text><text style="font-size:6px;font-family:'NSimSun';" transform="matrix(&st16;  3741.69  86.47 )">2</text><text style="font-size:6px;font-family:'NSimSun';" transform="matrix(&st16;  3742.66  32.08 )">(IG)</text><text style="font-size:6px;font-family:'NSimSun';" transform="matrix(&st16;  3764.3  53.34 )">7.5A <tspan x="0 " dy="6.0">ECU-IG </tspan><tspan x="0 " dy="6.0">NO.4</tspan></text><text style="font-size:6px;font-family:'NSimSun';" transform="matrix(&st16;  3908.56  94.96 )">32</text><text style="font-size:6px;font-family:'NSimSun';" transform="matrix(&st16;  3946.73  152.48 )">43</text><text style="font-size:6px;font-family:'NSimSun';" transform="matrix(&st16;  3956.48  152.48 )">3A</text><text style="font-size:6px;font-family:'NSimSun';" transform="matrix(&st16;  3951.05  94.96 )">30</text><text style="font-size:6px;font-family:'NSimSun';" transform="matrix(&st16;  3874.56  94.96 )">29</text><text style="font-size:6px;font-family:'NSimSun';" transform="matrix(&st16;  3807.35  32.08 )">(ACC)</text><text style="font-size:6px;font-family:'NSimSun';" transform="matrix(&st16;  3832.29  56.17 )">7.5A <tspan x="0 " dy="6.0">ACC</tspan></text></g><g ewd:figtype="w2w" ewd:figID="72" ewd:code="BA2"><path style="stroke-width: 1.42 ;&st7;  " d=" M  3556.65,   264.67  L  3560.90,   268.92  L  3565.15,   264.67  " /><path style="stroke-width: 1.42 ;&st7;  " d=" M  3565.15,   268.07  L  3560.90,   272.32  L  3556.65,   268.07  " /><text style="font-size:6px;font-family:'NSimSun';" transform="matrix(&st16;  3545.17  279.96 )">17</text></g><g ewd:figtype="w2w" ewd:figID="73" ewd:code="AE2"><path style="stroke-width: 1.42 ;&st7;  " d=" M  3990.08,   222.18  L  3994.33,   226.43  L  3998.58,   222.18  " /><path style="stroke-width: 1.42 ;&st7;  " d=" M  3998.58,   225.58  L  3994.33,   229.83  L  3990.08,   225.58  " /><text style="font-size:6px;font-family:'NSimSun';" transform="matrix(&st16;  3981.7  237.47 )">4</text></g><g ewd:figtype="gp" ewd:figID="82" ewd:code="BA"><path style="stroke-width: 0.85 ;&st7;  " d=" M  3550.99,   710.00  L  3553.82,   710.00  " /><path style="stroke-width: 0.85 ;&st7;  " d=" M  3548.16,   704.33  L  3556.65,   704.33  " /><path style="stroke-width: 0.85 ;&st7;  " d=" M  3549.57,   707.17  L  3555.24,   707.17  " /><path style="stroke-width: 0.85 ;&st7;  " d=" M  3543.91,   701.50  L  3560.90,   701.50  " /><path style="stroke-width: 0.85 ;&st7;  " d=" M  3552.40,   697.25  L  3552.40,   701.50  " /></g></svg>