<?xml version="1.0" encoding="utf-8"?>
<!DOCTYPE svg PUBLIC "-//W3C//DTD SVG 1.0//EN" "http://www.w3.org/TR/2001/REC-SVG-20010904/DTD/svg10.dtd"[
	<!ENTITY ns_flows "http://ns.adobe.com/Flows/1.0/">
	<!ENTITY ns_svg "http://www.w3.org/2000/svg">
	<!ENTITY ns_xlink "http://www.w3.org/1999/xlink">
	<!ENTITY st0 "font-size:7px;font-family:'NSimSun';adobe-font-script:japanese;">
	<!ENTITY st1 "font-size:6px;font-family:'NSimSun';">
	<!-- White fill  -->
	<!ENTITY st2 "fill:#FFFFFF;stroke:#000000; stroke-width:1.41;stroke-linecap:round;stroke-linejoin:round;">
	<!-- Yellow fill  -->
	<!ENTITY st3 "fill:#FFFFCC;stroke:#FFFFCC; stroke-width:0.1;stroke-linecap:round;stroke-linejoin:round;">
	<!-- Gray fill  -->
	<!ENTITY st4 "fill:#CCCCCC;stroke:#CCCCCC; stroke-width:0.1;stroke-linecap:round;stroke-linejoin:round;">
	<!-- Light-blue fill -->
	<!ENTITY st5 "fill:#CCECF4;stroke:#000000; stroke-width:1.133;stroke-linecap:round;stroke-linejoin:round;">
	<!ENTITY st6 "fill:none;stroke-linecap:butt; stroke-linejoin:round;">
	<!ENTITY st7 "fill:none;stroke:#000000;stroke-linecap:round;stroke-linejoin:round;">
	<!ENTITY st8 "enable-background:new    ;">
	<!-- Black fill -->
	<!ENTITY st9 "fill:#000000;stroke:#000000; stroke-linecap:round;stroke-linejoin:round;">
	<!-- SRS note   -->
	<!ENTITY st10 "font-size:9px;font-family:'NSimSun';">
	<!ENTITY st11 "font-size:9px;font-family:'NSimSun';">
	<!ENTITY st12 "font-size:6px;font-family:'NSimSun';">
	<!ENTITY st13 "fill:none;stroke:#ff0000;stroke-linecap:round;stroke-linejoin:round;">
	<!-- Yellow fill  -->
	<!ENTITY st14 "fill:#FFFF00;stroke:#FFFF00; stroke-width:0.1;stroke-linecap:round;stroke-linejoin:round;">
	<!ENTITY st15 "font-size:6px;font-family:'NSimSun';adobe-font-script:japanese;">
	<!ENTITY st16 "1.00 0.00 0.00 1.00">
	<!ENTITY st17 "0.00 -1.00 1.00 0.00">
	<!ENTITY st18 "font-size:6px;font-family:'NSimSun';">
	<!ENTITY st19 "font-size:9px;font-family:'NSimSun';">
	<!ENTITY st20 "font-size:6px;font-family:'NSimSun';adobe-font-script:japanese;">
	<!ENTITY st21 "font-size:7px;font-family:'NSimSun';adobe-font-script:japanese;">
	<!ATTLIST svg
		xmlns:ewd CDATA #FIXED "http://shcl.co.jp/ewd"
		xmlns:a CDATA #FIXED "http://ns.adobe.com/AdobeSVGViewerExtensions/3.0/"
		ewd:ver CDATA #IMPLIED
	>
	<!ATTLIST a
		ewd:lineID CDATA #IMPLIED
		ewd:groupID CDATA #IMPLIED
		ewd:figtype CDATA #IMPLIED
		ewd:code CDATA #IMPLIED
		ewd:figID CDATA #IMPLIED
		ewd:pinNo CDATA #IMPLIED
		ewd:comment CDATA #IMPLIED >
	<!ATTLIST g
		ewd:lineID CDATA #IMPLIED
		ewd:groupID CDATA #IMPLIED
		ewd:figtype CDATA #IMPLIED
		ewd:code CDATA #IMPLIED
		ewd:figID CDATA #IMPLIED
		ewd:pinNo CDATA #IMPLIED
		ewd:comment CDATA #IMPLIED >
	<!ATTLIST text
		ewd:textID CDATA #IMPLIED
		ewd:horAlign CDATA #IMPLIED >
	<!ATTLIST title
		ewd:textID CDATA #IMPLIED >
]>
<!-- Generator: Shintec Hozumi YS   -->
<svg onload="call_execInitLoadProc_svg('system')" style="overflow:visible;  enable-background:new 0 0 4630.310 710.000" viewBox="0 0 4633.854 710.000" height="710.000" width="4633.854" xml:space="preserve" ewd:ver="2.1.2.6F" xmlns="&ns_svg;" xmlns:ewd="http://shcl.co.jp/ewd" xmlns:a="http://ns.adobe.com/AdobeSVGViewerExtensions/3.0/" xmlns:xlink="&ns_xlink;">
<text style="font-size:6px;font-family:'NSimSun';" transform="matrix(&st17;  2273.92  577.14 )">W-B</text><text style="font-size:6px;font-family:'NSimSun';" transform="matrix(&st17;  2120.95  489.99 )">LG</text><text style="font-size:6px;font-family:'NSimSun';" transform="matrix(&st17;  2273.92  190.37 )">R</text><text style="font-size:6px;font-family:'NSimSun';" transform="matrix(&st17;  2171.94  190.37 )">R</text><text style="font-size:6px;font-family:'NSimSun';" transform="matrix(&st17;  2214.43  190.71 )">G</text><text style="font-size:6px;font-family:'NSimSun';" transform="matrix(&st16;  2045.97  669.48 )">B</text><text style="font-size:6px;font-family:'NSimSun';" transform="matrix(&st16;  2096.96  669.48 )">B</text><text style="font-size:6px;font-family:'NSimSun';" transform="matrix(&st16;  2043.88  652.48 )">LG</text><text style="font-size:6px;font-family:'NSimSun';" transform="matrix(&st16;  2094.87  652.48 )">LG</text><text style="font-size:6px;font-family:'NSimSun';" transform="matrix(&st16;  2045.19  635.48 )">W</text><text style="font-size:6px;font-family:'NSimSun';" transform="matrix(&st16;  2096.19  635.48 )">W</text><path style="stroke-width: 1.42 ;&st7;  " d=" M  2286.12,   163.26  L  2277.62,   163.26  " /><text style="font-size:6px;font-family:'NSimSun';" transform="matrix(&st17;  2317.83  463.61 )" ewd:textID="11">组合仪表总成</text><text style="font-size:6px;font-family:'NSimSun';" transform="matrix(&st17;  2311.01  463.61 )">E55(A),E59(B)</text><text style="font-size:6px;font-family:'NSimSun';" transform="matrix(&st17;  2401.4  352.5 )">R-B</text><text style="font-size:6px;font-family:'NSimSun';" transform="matrix(&st17;  2494.89  349.01 )">R</text><text style="font-size:6px;font-family:'NSimSun';" transform="matrix(&st17;  2494.89  172.61 )">R-B</text><text style="font-size:6px;font-family:'NSimSun';" transform="matrix(&st17;  2401.4  173.37 )">R</text><g ewd:figtype="rb" ewd:figID="29" ewd:code="FUSE10"><path style="stroke-width: 1.42 ;&st7;  " d=" M  2407.22,   304.90  L  2402.97,   304.90  " /><path style="stroke-width: 1.42 ;&st7;  " d=" M  2407.22,   296.40  L  2402.97,   296.40  " /><path style="stroke-width: 0.85 ;&st7;  " d=" M  2405.10,   270.91  L  2405.10,   296.40  " /><path style="stroke-width: 1.42 ;&st7;  " d=" M  2407.22,   214.25  L  2402.97,   214.25  " /><path style="stroke-width: 1.42 ;&st7;  " d=" M  2407.22,   222.75  L  2402.97,   222.75  " /><path style="stroke-width: 1.42 ;&st7;   " d=" M  2402.97,   296.40  C  2400.63    296.40   2398.72    298.30   2398.72    300.65  " /><path style="stroke-width: 1.42 ;&st7;   " d=" M  2398.72,   300.65  C  2398.72    303.00   2400.63    304.90   2402.97    304.90  " /><path style="stroke-width: 1.42 ;&st7;   " d=" M  2407.22,   304.90  C  2409.57    304.90   2411.47    303.00   2411.47    300.65  " /><path style="stroke-width: 1.42 ;&st7;   " d=" M  2411.47,   300.65  C  2411.47    298.30   2409.57    296.40   2407.22    296.40  " /><path style="stroke-width: 1.42 ;&st7;   " d=" M  2402.97,   214.25  C  2400.63    214.25   2398.72    216.15   2398.72    218.50  " /><path style="stroke-width: 1.42 ;&st7;   " d=" M  2398.72,   218.50  C  2398.72    220.85   2400.63    222.75   2402.97    222.75  " /><path style="stroke-width: 1.42 ;&st7;   " d=" M  2407.22,   222.75  C  2409.57    222.75   2411.47    220.85   2411.47    218.50  " /><path style="stroke-width: 1.42 ;&st7;   " d=" M  2411.47,   218.50  C  2411.47    216.15   2409.57    214.25   2407.22    214.25  " /><path style="stroke-width: 0.28 ;&st9;  " d=" M  2405.10,   291.51  L  2402.26,   288.67  L  2402.26,   292.92  L  2405.10,   295.76  L  2407.93,   292.92  L  2407.93,   288.67  L  2405.10,   291.51  " /><path style="stroke-width: 0.28 ;&st9;  " d=" M  2405.10,   227.64  L  2407.93,   230.48  L  2407.93,   226.23  L  2405.10,   223.39  L  2402.26,   226.23  L  2402.26,   230.48  L  2405.10,   227.64  " /><path style="stroke-width: 0.85 ;&st7;  " d=" M  2405.10,   222.75  L  2405.10,   245.41  " /><text style="font-size:6px;font-family:'NSimSun';" transform="matrix(&st16;  2398.91  287.6 )">1</text><text style="font-size:6px;font-family:'NSimSun';" transform="matrix(&st16;  2421.52  254.48 )">10A <tspan x="0 " dy="6.0">H-LP </tspan><tspan x="0 " dy="6.0">LH-HI</tspan></text><text style="font-size:6px;font-family:'NSimSun';" transform="matrix(&st16;  2403.3  302.62 )">1</text><text style="font-size:6px;font-family:'NSimSun';" transform="matrix(&st16;  2403.3  220.47 )">1</text><text style="font-size:6px;font-family:'NSimSun';" transform="matrix(&st16;  2398.91  233.22 )">2</text><path style="stroke-width: 1.42 ;&st7;   " d=" M  2405.10,   268.07  C  2407.84    266.46   2408.75    262.93   2407.13    260.20  " /><path style="stroke-width: 1.42 ;&st7;   " d=" M  2407.13,   260.20  C  2406.62    259.31   2405.98    258.68   2405.10    258.16  " /><path style="stroke-width: 0.85 ;&st7;   " d=" M  2406.51,   246.83  C  2406.51    246.05   2405.88    245.41   2405.10    245.41  " /><path style="stroke-width: 0.85 ;&st7;   " d=" M  2405.10,   245.41  C  2404.32    245.41   2403.68    246.05   2403.68    246.83  " /><path style="stroke-width: 0.85 ;&st7;   " d=" M  2403.68,   246.83  C  2403.68    247.61   2404.32    248.24   2405.10    248.24  " /><path style="stroke-width: 0.85 ;&st7;   " d=" M  2405.10,   248.24  C  2405.88    248.24   2406.51    247.61   2406.51    246.83  " /><path style="stroke-width: 0.85 ;&st7;   " d=" M  2406.51,   269.49  C  2406.51    268.71   2405.88    268.07   2405.10    268.07  " /><path style="stroke-width: 0.85 ;&st7;   " d=" M  2405.10,   268.07  C  2404.32    268.07   2403.68    268.71   2403.68    269.49  " /><path style="stroke-width: 0.85 ;&st7;   " d=" M  2403.68,   269.49  C  2403.68    270.27   2404.32    270.91   2405.10    270.91  " /><path style="stroke-width: 0.85 ;&st7;   " d=" M  2405.10,   270.91  C  2405.88    270.91   2406.51    270.27   2406.51    269.49  " /><path style="stroke-width: 1.42 ;&st7;   " d=" M  2405.10,   248.24  C  2402.36    249.86   2401.45    253.38   2403.06    256.12  " /><path style="stroke-width: 1.42 ;&st7;   " d=" M  2403.06,   256.12  C  2403.58    257.00   2404.22    257.64   2405.10    258.16  " /><path style="stroke-width: 1.42 ;&st7;  " d=" M  2392.35,   236.91  L  2392.35,   279.41  L  2417.84,   279.41  L  2417.84,   236.91  L  2392.35,   236.91  " /></g><g ewd:figtype="rb" ewd:figID="30" ewd:code="1"><path style="stroke-width: 1.42 ;&st7;  " d=" M  2500.71,   214.25  L  2496.46,   214.25  " /><path style="stroke-width: 1.42 ;&st7;  " d=" M  2500.71,   222.75  L  2496.46,   222.75  " /><path style="stroke-width: 1.42 ;&st7;  " d=" M  2500.71,   307.73  L  2496.46,   307.73  " /><path style="stroke-width: 1.42 ;&st7;  " d=" M  2500.71,   316.23  L  2496.46,   316.23  " /><path style="stroke-width: 1.42 ;&st7;   " d=" M  2496.46,   214.25  C  2494.11    214.25   2492.21    216.15   2492.21    218.50  " /><path style="stroke-width: 1.42 ;&st7;   " d=" M  2492.21,   218.50  C  2492.21    220.85   2494.11    222.75   2496.46    222.75  " /><path style="stroke-width: 1.42 ;&st7;   " d=" M  2500.71,   222.75  C  2503.05    222.75   2504.96    220.85   2504.96    218.50  " /><path style="stroke-width: 1.42 ;&st7;   " d=" M  2504.96,   218.50  C  2504.96    216.15   2503.05    214.25   2500.71    214.25  " /><path style="stroke-width: 1.42 ;&st7;   " d=" M  2524.08,   222.75  C  2526.07    224.64   2529.17    224.64   2531.16    222.75  " /><path style="stroke-width: 1.42 ;&st7;   " d=" M  2524.08,   222.75  C  2522.09    220.85   2518.99    220.85   2517.00    222.75  " /><path style="stroke-width: 1.42 ;&st7;   " d=" M  2496.46,   307.73  C  2494.11    307.73   2492.21    309.64   2492.21    311.98  " /><path style="stroke-width: 1.42 ;&st7;   " d=" M  2492.21,   311.98  C  2492.21    314.33   2494.11    316.23   2496.46    316.23  " /><path style="stroke-width: 1.42 ;&st7;   " d=" M  2500.71,   316.23  C  2503.05    316.23   2504.96    314.33   2504.96    311.98  " /><path style="stroke-width: 1.42 ;&st7;   " d=" M  2504.96,   311.98  C  2504.96    309.64   2503.05    307.73   2500.71    307.73  " /><path style="stroke-width: 1.42 ;&st7;   " d=" M  2524.08,   307.73  C  2526.07    309.63   2529.17    309.63   2531.16    307.73  " /><path style="stroke-width: 1.42 ;&st7;   " d=" M  2524.08,   307.73  C  2522.09    305.84   2518.99    305.84   2517.00    307.73  " /><path style="stroke-width: 0.28 ;&st9;  " d=" M  2498.58,   227.64  L  2501.41,   230.48  L  2501.41,   226.23  L  2498.58,   223.39  L  2495.75,   226.23  L  2495.75,   230.48  L  2498.58,   227.64  " /><path style="stroke-width: 0.28 ;&st9;  " d=" M  2498.58,   302.84  L  2495.75,   300.01  L  2495.75,   304.26  L  2498.58,   307.09  L  2501.41,   304.26  L  2501.41,   300.01  L  2498.58,   302.84  " /><path style="stroke-width: 0.85 ;&st7;  " d=" M  2498.58,   222.75  L  2498.58,   248.24  " /><path style="stroke-width: 0.85 ;&st7;  " d=" M  2524.08,   222.75  L  2524.08,   248.24  " /><path style="stroke-width: 0.85 ;&st7;  " d=" M  2524.08,   282.24  L  2524.08,   307.73  " /><path style="stroke-width: 0.85 ;&st7;  " d=" M  2498.58,   282.24  L  2498.58,   307.73  " /><text style="font-size:6px;font-family:'NSimSun';" transform="matrix(&st16;  2492.4  290.43 )">3</text><text style="font-size:6px;font-family:'NSimSun';" transform="matrix(&st16;  2517.89  290.43 )">2</text><text style="font-size:6px;font-family:'NSimSun';" transform="matrix(&st16;  2492.4  244.55 )">5</text><text style="font-size:6px;font-family:'NSimSun';" transform="matrix(&st16;  2517.89  244.55 )">1</text><text style="font-size:6px;font-family:'NSimSun';" transform="matrix(&st16;  2496.78  220.47 )">1</text><text style="font-size:6px;font-family:'NSimSun';" transform="matrix(&st16;  2496.78  313.95 )">1</text><text style="font-size:6px;font-family:'NSimSun';" transform="matrix(&st16;  2534.84  264.38 )" ewd:textID="30">H-LP<tspan x="0 " dy="6.0">继电器</tspan></text><path style="stroke-width: 0.85 ;&st7;  " d=" M  2498.58,   282.24  L  2498.58,   277.99  " /><path style="stroke-width: 0.85 ;&st7;  " d=" M  2498.58,   252.49  L  2498.58,   248.24  " /><path style="stroke-width: 0.85 ;&st7;  " d=" M  2524.08,   248.24  L  2524.08,   256.74  " /><path style="stroke-width: 0.85 ;&st7;  " d=" M  2524.08,   273.74  L  2524.08,   282.24  " /><path style="stroke-width: 1.42 ;&st7;  " d=" M  2498.58,   275.16  L  2492.92,   252.49  " /><path style="stroke-width: 0.85 ;&st7;   " d=" M  2500.00,   276.57  C  2500.00    275.79   2499.36    275.16   2498.58    275.16  " /><path style="stroke-width: 0.85 ;&st7;   " d=" M  2498.58,   275.16  C  2497.80    275.16   2497.17    275.79   2497.17    276.57  " /><path style="stroke-width: 0.85 ;&st7;   " d=" M  2497.17,   276.57  C  2497.17    277.35   2497.80    277.99   2498.58    277.99  " /><path style="stroke-width: 0.85 ;&st7;   " d=" M  2498.58,   277.99  C  2499.36    277.99   2500.00    277.35   2500.00    276.57  " /><path style="stroke-width: 0.85 ;&st7;   " d=" M  2500.00,   253.91  C  2500.00    253.13   2499.36    252.49   2498.58    252.49  " /><path style="stroke-width: 0.85 ;&st7;   " d=" M  2498.58,   252.49  C  2497.80    252.49   2497.17    253.13   2497.17    253.91  " /><path style="stroke-width: 0.85 ;&st7;   " d=" M  2497.17,   253.91  C  2497.17    254.69   2497.80    255.33   2498.58    255.33  " /><path style="stroke-width: 0.85 ;&st7;   " d=" M  2498.58,   255.33  C  2499.36    255.33   2500.00    254.69   2500.00    253.91  " /><path style="stroke-width: 0.85 ;&st7;   " d=" M  2521.55,   262.76  C  2522.92    264.16   2525.16    264.18   2526.56    262.81  " /><path style="stroke-width: 0.85 ;&st7;   " d=" M  2526.56,   262.81  C  2527.95    261.44   2527.98    259.20   2526.61    257.80  " /><path style="stroke-width: 0.85 ;&st7;   " d=" M  2526.61,   257.80  C  2525.91    257.10   2525.07    256.74   2524.08    256.74  " /><path style="stroke-width: 0.85 ;&st7;   " d=" M  2521.55,   267.72  C  2522.92    269.12   2525.16    269.14   2526.56    267.77  " /><path style="stroke-width: 0.85 ;&st7;   " d=" M  2526.56,   267.77  C  2527.95    266.40   2527.98    264.16   2526.61    262.76  " /><path style="stroke-width: 0.85 ;&st7;   " d=" M  2526.61,   262.76  C  2525.24    261.37   2523.00    261.34   2521.60    262.71  " /><path style="stroke-width: 0.85 ;&st7;   " d=" M  2521.60,   262.71  C  2521.58    262.73   2521.57    262.74   2521.55    262.76  " /><path style="stroke-width: 0.85 ;&st7;   " d=" M  2524.08,   273.74  C  2526.03    273.74   2527.62    272.15   2527.62    270.20  " /><path style="stroke-width: 0.85 ;&st7;   " d=" M  2527.62,   270.20  C  2527.62    268.24   2526.03    266.66   2524.08    266.66  " /><path style="stroke-width: 0.85 ;&st7;   " d=" M  2524.08,   266.66  C  2523.09    266.66   2522.24    267.01   2521.55    267.72  " /><path style="stroke-width: 1.42 ;&st7;  " d=" M  2532.58,   248.24  L  2490.08,   248.24  L  2490.08,   282.24  L  2532.58,   282.24  L  2532.58,   248.24  " /></g><g ewd:figtype="rb" ewd:figID="31" ewd:code="FUSE29"><path style="stroke-width: 0.85 ;&st7;  " d=" M  2498.58,    69.77  L  2498.58,    95.27  " /><path style="stroke-width: 1.42 ;&st7;  " d=" M  2500.71,   103.77  L  2496.46,   103.77  " /><path style="stroke-width: 1.42 ;&st7;  " d=" M  2500.71,    95.27  L  2496.46,    95.27  " /><path style="stroke-width: 1.42 ;&st7;   " d=" M  2504.96,    99.52  C  2504.96     97.17   2503.05     95.27   2500.71     95.27  " /><path style="stroke-width: 1.42 ;&st7;   " d=" M  2500.71,   103.77  C  2503.05    103.77   2504.96    101.87   2504.96     99.52  " /><path style="stroke-width: 1.42 ;&st7;   " d=" M  2492.21,    99.52  C  2492.21    101.87   2494.11    103.77   2496.46    103.77  " /><path style="stroke-width: 1.42 ;&st7;   " d=" M  2496.46,    95.27  C  2494.11     95.27   2492.21     97.17   2492.21     99.52  " /><path style="stroke-width: 0.28 ;&st9;  " d=" M  2498.58,    90.37  L  2495.75,    87.54  L  2495.75,    91.79  L  2498.58,    94.62  L  2501.41,    91.79  L  2501.41,    87.54  L  2498.58,    90.37  " /><text style="font-size:6px;font-family:'NSimSun';" transform="matrix(&st16;  2492.4  86.47 )">2</text><text style="font-size:6px;font-family:'NSimSun';" transform="matrix(&st16;  2496.78  101.49 )">1</text><text style="font-size:6px;font-family:'NSimSun';" transform="matrix(&st16;  2515.01  56.17 )">40A <tspan x="0 " dy="6.0">H-LP-MAIN</tspan></text><text style="font-size:6px;font-family:'NSimSun';" transform="matrix(&st16;  2490.54  32.08 )">(BAT)</text><path style="stroke-width: 0.85 ;&st7;   " d=" M  2500.00,    68.36  C  2500.00     67.57   2499.36     66.94   2498.58     66.94  " /><path style="stroke-width: 0.85 ;&st7;   " d=" M  2498.58,    66.94  C  2497.80     66.94   2497.17     67.57   2497.17     68.36  " /><path style="stroke-width: 0.85 ;&st7;   " d=" M  2497.17,    68.36  C  2497.17     69.14   2497.80     69.77   2498.58     69.77  " /><path style="stroke-width: 0.85 ;&st7;   " d=" M  2498.58,    69.77  C  2499.36     69.77   2500.00     69.14   2500.00     68.36  " /><path style="stroke-width: 0.85 ;&st7;   " d=" M  2500.00,    45.69  C  2500.00     44.91   2499.36     44.28   2498.58     44.28  " /><path style="stroke-width: 0.85 ;&st7;   " d=" M  2498.58,    44.28  C  2497.80     44.28   2497.17     44.91   2497.17     45.69  " /><path style="stroke-width: 0.85 ;&st7;   " d=" M  2497.17,    45.69  C  2497.17     46.48   2497.80     47.11   2498.58     47.11  " /><path style="stroke-width: 0.85 ;&st7;   " d=" M  2498.58,    47.11  C  2499.36     47.11   2500.00     46.48   2500.00     45.69  " /><path style="stroke-width: 1.42 ;&st7;   " d=" M  2498.58,    66.94  C  2501.32     65.33   2502.23     61.80   2500.62     59.06  " /><path style="stroke-width: 1.42 ;&st7;   " d=" M  2500.62,    59.06  C  2500.10     58.18   2499.46     57.55   2498.58     57.03  " /><path style="stroke-width: 1.42 ;&st7;   " d=" M  2498.58,    47.11  C  2495.84     48.72   2494.93     52.25   2496.55     54.99  " /><path style="stroke-width: 1.42 ;&st7;   " d=" M  2496.55,    54.99  C  2497.07     55.87   2497.70     56.51   2498.58     57.03  " /><path style="stroke-width: 1.42 ;&st7;  " d=" M  2485.83,    35.78  L  2485.83,    78.27  L  2511.33,    78.27  L  2511.33,    35.78  L  2485.83,    35.78  " /></g><g ewd:figtype="rb" ewd:figID="32" ewd:code="1"><path style="stroke-width: 1.42 ;&st7;  " d=" M  2500.71,   384.22  L  2496.46,   384.22  " /><path style="stroke-width: 1.42 ;&st7;  " d=" M  2500.71,   392.72  L  2496.46,   392.72  " /><path style="stroke-width: 1.42 ;&st7;  " d=" M  2500.71,   477.71  L  2496.46,   477.71  " /><path style="stroke-width: 1.42 ;&st7;  " d=" M  2500.71,   486.20  L  2496.46,   486.20  " /><path style="stroke-width: 1.42 ;&st7;   " d=" M  2496.46,   384.22  C  2494.11    384.22   2492.21    386.12   2492.21    388.47  " /><path style="stroke-width: 1.42 ;&st7;   " d=" M  2492.21,   388.47  C  2492.21    390.82   2494.11    392.72   2496.46    392.72  " /><path style="stroke-width: 1.42 ;&st7;   " d=" M  2500.71,   392.72  C  2503.05    392.72   2504.96    390.82   2504.96    388.47  " /><path style="stroke-width: 1.42 ;&st7;   " d=" M  2504.96,   388.47  C  2504.96    386.12   2503.05    384.22   2500.71    384.22  " /><path style="stroke-width: 1.42 ;&st7;   " d=" M  2524.08,   477.71  C  2526.29    479.53   2529.42    479.47   2531.56    477.56  " /><path style="stroke-width: 1.42 ;&st7;   " d=" M  2524.08,   477.71  C  2521.87    475.88   2518.73    475.94   2516.59    477.85  " /><path style="stroke-width: 1.42 ;&st7;   " d=" M  2524.08,   392.72  C  2526.29    394.54   2529.42    394.48   2531.56    392.58  " /><path style="stroke-width: 1.42 ;&st7;   " d=" M  2496.46,   477.71  C  2494.11    477.71   2492.21    479.61   2492.21    481.95  " /><path style="stroke-width: 1.42 ;&st7;   " d=" M  2492.21,   481.95  C  2492.21    484.30   2494.11    486.20   2496.46    486.20  " /><path style="stroke-width: 1.42 ;&st7;   " d=" M  2500.71,   486.20  C  2503.05    486.20   2504.96    484.30   2504.96    481.95  " /><path style="stroke-width: 1.42 ;&st7;   " d=" M  2504.96,   481.95  C  2504.96    479.61   2503.05    477.71   2500.71    477.71  " /><path style="stroke-width: 1.42 ;&st7;   " d=" M  2524.08,   392.72  C  2521.87    390.90   2518.73    390.96   2516.59    392.86  " /><path style="stroke-width: 0.28 ;&st9;  " d=" M  2498.58,   397.61  L  2501.41,   400.45  L  2501.41,   396.20  L  2498.58,   393.37  L  2495.75,   396.20  L  2495.75,   400.45  L  2498.58,   397.61  " /><path style="stroke-width: 0.28 ;&st9;  " d=" M  2498.58,   472.81  L  2495.75,   469.98  L  2495.75,   474.23  L  2498.58,   477.06  L  2501.41,   474.23  L  2501.41,   469.98  L  2498.58,   472.81  " /><path style="stroke-width: 0.85 ;&st7;  " d=" M  2498.58,   392.72  L  2498.58,   418.22  " /><path style="stroke-width: 0.85 ;&st7;  " d=" M  2524.08,   392.72  L  2524.08,   418.22  " /><path style="stroke-width: 0.85 ;&st7;  " d=" M  2524.08,   452.21  L  2524.08,   477.71  " /><path style="stroke-width: 0.85 ;&st7;  " d=" M  2498.58,   452.21  L  2498.58,   477.71  " /><text style="font-size:6px;font-family:'NSimSun';" transform="matrix(&st16;  2492.4  460.4 )">5</text><text style="font-size:6px;font-family:'NSimSun';" transform="matrix(&st16;  2517.89  460.4 )">2</text><text style="font-size:6px;font-family:'NSimSun';" transform="matrix(&st16;  2492.4  414.53 )">3</text><text style="font-size:6px;font-family:'NSimSun';" transform="matrix(&st16;  2517.89  414.53 )">1</text><text style="font-size:6px;font-family:'NSimSun';" transform="matrix(&st16;  2496.78  390.44 )">1</text><text style="font-size:6px;font-family:'NSimSun';" transform="matrix(&st16;  2496.78  483.92 )">1</text><text style="font-size:6px;font-family:'NSimSun';" transform="matrix(&st16;  2534.84  434.36 )" ewd:textID="14">DIM<tspan x="0 " dy="6.0">继电器</tspan></text><path style="stroke-width: 1.42 ;&st7;  " d=" M  2498.58,   425.30  L  2492.92,   447.96  " /><path style="stroke-width: 0.85 ;&st7;  " d=" M  2498.58,   452.21  L  2498.58,   447.96  " /><path style="stroke-width: 0.85 ;&st7;  " d=" M  2498.58,   422.46  L  2498.58,   418.22  " /><path style="stroke-width: 0.85 ;&st7;  " d=" M  2524.08,   418.22  L  2524.08,   426.71  " /><path style="stroke-width: 0.85 ;&st7;  " d=" M  2524.08,   443.71  L  2524.08,   452.21  " /><path style="stroke-width: 0.85 ;&st7;   " d=" M  2500.00,   446.54  C  2500.00    445.76   2499.36    445.13   2498.58    445.13  " /><path style="stroke-width: 0.85 ;&st7;   " d=" M  2498.58,   445.13  C  2497.80    445.13   2497.17    445.76   2497.17    446.54  " /><path style="stroke-width: 0.85 ;&st7;   " d=" M  2497.17,   446.54  C  2497.17    447.33   2497.80    447.96   2498.58    447.96  " /><path style="stroke-width: 0.85 ;&st7;   " d=" M  2498.58,   447.96  C  2499.36    447.96   2500.00    447.33   2500.00    446.54  " /><path style="stroke-width: 0.85 ;&st7;   " d=" M  2500.00,   423.88  C  2500.00    423.10   2499.36    422.46   2498.58    422.46  " /><path style="stroke-width: 0.85 ;&st7;   " d=" M  2498.58,   422.46  C  2497.80    422.46   2497.17    423.10   2497.17    423.88  " /><path style="stroke-width: 0.85 ;&st7;   " d=" M  2497.17,   423.88  C  2497.17    424.66   2497.80    425.30   2498.58    425.30  " /><path style="stroke-width: 0.85 ;&st7;   " d=" M  2498.58,   425.30  C  2499.36    425.30   2500.00    424.66   2500.00    423.88  " /><path style="stroke-width: 0.85 ;&st7;   " d=" M  2521.55,   432.73  C  2522.92    434.13   2525.16    434.15   2526.56    432.78  " /><path style="stroke-width: 0.85 ;&st7;   " d=" M  2526.56,   432.78  C  2527.95    431.42   2527.98    429.17   2526.61    427.78  " /><path style="stroke-width: 0.85 ;&st7;   " d=" M  2526.61,   427.78  C  2525.91    427.07   2525.07    426.71   2524.08    426.71  " /><path style="stroke-width: 0.85 ;&st7;   " d=" M  2521.55,   437.69  C  2522.92    439.09   2525.16    439.11   2526.56    437.74  " /><path style="stroke-width: 0.85 ;&st7;   " d=" M  2526.56,   437.74  C  2527.95    436.37   2527.98    434.13   2526.61    432.73  " /><path style="stroke-width: 0.85 ;&st7;   " d=" M  2526.61,   432.73  C  2525.24    431.34   2523.00    431.31   2521.60    432.68  " /><path style="stroke-width: 0.85 ;&st7;   " d=" M  2521.60,   432.68  C  2521.58    432.70   2521.57    432.72   2521.55    432.73  " /><path style="stroke-width: 0.85 ;&st7;   " d=" M  2524.08,   443.71  C  2526.03    443.71   2527.62    442.13   2527.62    440.17  " /><path style="stroke-width: 0.85 ;&st7;   " d=" M  2527.62,   440.17  C  2527.62    438.21   2526.03    436.63   2524.08    436.63  " /><path style="stroke-width: 0.85 ;&st7;   " d=" M  2524.08,   436.63  C  2523.09    436.63   2522.24    436.98   2521.55    437.69  " /><path style="stroke-width: 1.42 ;&st7;  " d=" M  2532.58,   418.22  L  2490.08,   418.22  L  2490.08,   452.21  L  2532.58,   452.21  L  2532.58,   418.22  " /></g><g ewd:figtype="w2w" ewd:figID="64" ewd:code="AE4"><path style="stroke-width: 1.42 ;&st7;  " d=" M  2281.87,   172.32  L  2277.62,   168.07  L  2273.37,   172.32  " /><path style="stroke-width: 1.42 ;&st7;  " d=" M  2281.87,   168.92  L  2277.62,   164.67  L  2273.37,   168.92  " /><text style="font-size:6px;font-family:'NSimSun';" transform="matrix(&st16;  2261.89  160.98 )">10</text></g><g ewd:figtype="gp" ewd:figID="77" ewd:code="EB"><path style="stroke-width: 0.85 ;&st7;  " d=" M  2274.79,   707.17  L  2280.45,   707.17  " /><path style="stroke-width: 0.85 ;&st7;  " d=" M  2276.20,   710.00  L  2279.03,   710.00  " /><path style="stroke-width: 0.85 ;&st7;  " d=" M  2273.37,   704.33  L  2281.87,   704.33  " /><path style="stroke-width: 0.85 ;&st7;  " d=" M  2269.12,   701.50  L  2286.12,   701.50  " /><path style="stroke-width: 0.85 ;&st7;  " d=" M  2277.62,   697.25  L  2277.62,   701.50  " /></g><g ewd:figtype="annex" ewd:figID="36" ewd:code=" "><path style="stroke-width: 1.42 ;&st7;  " d=" M  2124.65,   511.70  L  2119.59,   500.34  " /><path style="stroke-width: 1.42 ;&st7;  " d=" M  2124.65,   511.70  L  2129.70,   500.34  " /><text style="font-size:6px;font-family:'NSimSun';" transform="matrix(&st17;  2126.62  526.99 )">ECM</text></g><g ewd:figtype="annex" ewd:figID="40" ewd:code=" "><path style="stroke-width: 1.42 ;&st7;  " d=" M  2175.64,   163.26  L  2170.58,   151.90  " /><path style="stroke-width: 1.42 ;&st7;  " d=" M  2175.64,   163.26  L  2180.70,   151.90  " /><path style="stroke-width: 1.42 ;&st7;  " d=" M  2218.13,   163.26  L  2223.19,   151.90  " /><path style="stroke-width: 1.42 ;&st7;  " d=" M  2218.13,   163.26  L  2213.07,   151.90  " /><text style="font-size:6px;font-family:'NSimSun';" transform="matrix(&st17;  2220.1  143.5 )" ewd:textID="18">FOG FR 继电器</text><text style="font-size:6px;font-family:'NSimSun';" transform="matrix(&st17;  2177.61  143.5 )" ewd:textID="19">FOG RR 继电器</text></g></svg>