<?xml version="1.0" encoding="utf-8"?>
<!DOCTYPE svg PUBLIC "-//W3C//DTD SVG 1.0//EN" "http://www.w3.org/TR/2001/REC-SVG-20010904/DTD/svg10.dtd"[
	<!ENTITY ns_flows "http://ns.adobe.com/Flows/1.0/">
	<!ENTITY ns_svg "http://www.w3.org/2000/svg">
	<!ENTITY ns_xlink "http://www.w3.org/1999/xlink">
	<!ENTITY st0 "font-size:7px;font-family:'NSimSun';adobe-font-script:japanese;">
	<!ENTITY st1 "font-size:6px;font-family:'NSimSun';">
	<!-- White fill  -->
	<!ENTITY st2 "fill:#FFFFFF;stroke:#000000; stroke-width:1.41;stroke-linecap:round;stroke-linejoin:round;">
	<!-- Yellow fill  -->
	<!ENTITY st3 "fill:#FFFFCC;stroke:#FFFFCC; stroke-width:0.1;stroke-linecap:round;stroke-linejoin:round;">
	<!-- Gray fill  -->
	<!ENTITY st4 "fill:#CCCCCC;stroke:#CCCCCC; stroke-width:0.1;stroke-linecap:round;stroke-linejoin:round;">
	<!-- Light-blue fill -->
	<!ENTITY st5 "fill:#CCECF4;stroke:#000000; stroke-width:1.133;stroke-linecap:round;stroke-linejoin:round;">
	<!ENTITY st6 "fill:none;stroke-linecap:butt; stroke-linejoin:round;">
	<!ENTITY st7 "fill:none;stroke:#000000;stroke-linecap:round;stroke-linejoin:round;">
	<!ENTITY st8 "enable-background:new    ;">
	<!-- Black fill -->
	<!ENTITY st9 "fill:#000000;stroke:#000000; stroke-linecap:round;stroke-linejoin:round;">
	<!-- SRS note   -->
	<!ENTITY st10 "font-size:9px;font-family:'NSimSun';">
	<!ENTITY st11 "font-size:9px;font-family:'NSimSun';">
	<!ENTITY st12 "font-size:6px;font-family:'NSimSun';">
	<!ENTITY st13 "fill:none;stroke:#ff0000;stroke-linecap:round;stroke-linejoin:round;">
	<!-- Yellow fill  -->
	<!ENTITY st14 "fill:#FFFF00;stroke:#FFFF00; stroke-width:0.1;stroke-linecap:round;stroke-linejoin:round;">
	<!ENTITY st15 "font-size:6px;font-family:'NSimSun';adobe-font-script:japanese;">
	<!ENTITY st16 "1.00 0.00 0.00 1.00">
	<!ENTITY st17 "0.00 -1.00 1.00 0.00">
	<!ENTITY st18 "font-size:6px;font-family:'NSimSun';">
	<!ENTITY st19 "font-size:9px;font-family:'NSimSun';">
	<!ENTITY st20 "font-size:6px;font-family:'NSimSun';adobe-font-script:japanese;">
	<!ENTITY st21 "font-size:7px;font-family:'NSimSun';adobe-font-script:japanese;">
	<!ATTLIST svg
		xmlns:ewd CDATA #FIXED "http://shcl.co.jp/ewd"
		xmlns:a CDATA #FIXED "http://ns.adobe.com/AdobeSVGViewerExtensions/3.0/"
		ewd:ver CDATA #IMPLIED
	>
	<!ATTLIST a
		ewd:lineID CDATA #IMPLIED
		ewd:groupID CDATA #IMPLIED
		ewd:figtype CDATA #IMPLIED
		ewd:code CDATA #IMPLIED
		ewd:figID CDATA #IMPLIED
		ewd:pinNo CDATA #IMPLIED
		ewd:comment CDATA #IMPLIED >
	<!ATTLIST g
		ewd:lineID CDATA #IMPLIED
		ewd:groupID CDATA #IMPLIED
		ewd:figtype CDATA #IMPLIED
		ewd:code CDATA #IMPLIED
		ewd:figID CDATA #IMPLIED
		ewd:pinNo CDATA #IMPLIED
		ewd:comment CDATA #IMPLIED >
	<!ATTLIST text
		ewd:textID CDATA #IMPLIED
		ewd:horAlign CDATA #IMPLIED >
	<!ATTLIST title
		ewd:textID CDATA #IMPLIED >
]>
<!-- Generator: Shintec Hozumi YS   -->
<svg onload="call_execInitLoadProc_svg('system')" style="overflow:visible;  enable-background:new 0 0 4630.310 710.000" viewBox="0 0 4633.854 710.000" height="710.000" width="4633.854" xml:space="preserve" ewd:ver="2.1.2.6F" xmlns="&ns_svg;" xmlns:ewd="http://shcl.co.jp/ewd" xmlns:a="http://ns.adobe.com/AdobeSVGViewerExtensions/3.0/" xmlns:xlink="&ns_xlink;">
<text style="font-size:6px;font-family:'NSimSun';" transform="matrix(&st17;  744.18  466.57 )">R</text><text style="font-size:6px;font-family:'NSimSun';" transform="matrix(&st17;  642.2  466.76 )">V</text><text style="font-size:6px;font-family:'NSimSun';" transform="matrix(&st17;  565.71  481.53 )">GR</text><text style="font-size:6px;font-family:'NSimSun';" transform="matrix(&st17;  897.15  496.31 )">R</text><text style="font-size:6px;font-family:'NSimSun';" transform="matrix(&st17;  939.65  497.17 )">W</text><text style="font-size:6px;font-family:'NSimSun';" transform="matrix(&st17;  908.49  500.97 )">(*19)</text><text style="font-size:6px;font-family:'NSimSun';" transform="matrix(&st17;  950.98  500.97 )">(*19)</text><text style="font-size:6px;font-family:'NSimSun';" transform="matrix(&st16;  710.47  126.96 )">E55(A),E59(B)</text><text style="font-size:6px;font-family:'NSimSun';" transform="matrix(&st16;  710.48  134.07 )" ewd:textID="17">组合仪表总成</text><text style="font-size:6px;font-family:'NSimSun';" transform="matrix(&st17;  939.65  625.73 )">BR</text><text style="font-size:6px;font-family:'NSimSun';" transform="matrix(&st16;  813.68  457.01 )">B</text><text style="font-size:6px;font-family:'NSimSun';" transform="matrix(&st17;  897.15  606.87 )">B</text><g ewd:figtype="conn" ewd:figID="25" ewd:code="E1,E2,E32,E33,E34"><path style="stroke-width: 0.85 ;&st7; stroke-dasharray:3, 1.5;" d=" M   909.35,   584.79  L   930.59,   584.79  " /><path style="stroke-width: 0.85 ;&st7; stroke-dasharray:3, 1.5;" d=" M   909.35,   575.72  L   930.59,   575.72  " /><path style="stroke-width: 1.42 ;&st7;  " d=" M   883.85,   528.70  L   883.85,   571.19  L   960.34,   571.19  L   960.34,   528.70  L   883.85,   528.70  " /><g ewd:lineID="12"><text style="font-size:6px;font-family:'NSimSun';" transform="matrix(&st16;  889.05  586.76 )">23</text><text style="font-size:6px;font-family:'NSimSun';" transform="matrix(&st16;  889.05  577.69 )">23</text><path style="stroke-width: 1.42 ;&st7;   " d=" M   905.38,   584.79  C   905.38    582.28    903.35    580.26    900.85    580.26  " /><path style="stroke-width: 1.42 ;&st7;   " d=" M   900.85,   580.26  C   898.35    580.26    896.32    582.28    896.32    584.79  " /><path style="stroke-width: 1.42 ;&st7;   " d=" M   896.32,   584.79  C   896.32    587.29    898.35    589.32    900.85    589.32  " /><path style="stroke-width: 1.42 ;&st7;   " d=" M   900.85,   589.32  C   903.35    589.32    905.38    587.29    905.38    584.79  " /><path style="stroke-width: 1.42 ;&st7;   " d=" M   905.38,   575.72  C   905.38    573.22    903.35    571.19    900.85    571.19  " /><path style="stroke-width: 1.42 ;&st7;   " d=" M   900.85,   571.19  C   898.35    571.19    896.32    573.22    896.32    575.72  " /><path style="stroke-width: 1.42 ;&st7;   " d=" M   896.32,   575.72  C   896.32    578.23    898.35    580.26    900.85    580.26  " /><path style="stroke-width: 1.42 ;&st7;   " d=" M   900.85,   580.26  C   903.35    580.26    905.38    578.23    905.38    575.72  " /><text style="font-size:6px;font-family:'NSimSun';" transform="matrix(&st16;  898.35  586.76 )">H</text><text style="font-size:6px;font-family:'NSimSun';" transform="matrix(&st16;  898.43  577.69 )">C</text><text style="font-size:6px;font-family:'NSimSun';" transform="matrix(&st16;  894.12  567.49 )">SWG</text></g><g ewd:lineID="13"><text style="font-size:6px;font-family:'NSimSun';" transform="matrix(&st16;  892.16  526.13 )">3</text><text style="font-size:6px;font-family:'NSimSun';" transform="matrix(&st16;  898.47  526.13 )">D</text><path style="stroke-width: 1.42 ;&st7;   " d=" M   905.38,   524.16  C   905.38    521.66    903.35    519.63    900.85    519.63  " /><path style="stroke-width: 1.42 ;&st7;   " d=" M   900.85,   519.63  C   898.35    519.63    896.32    521.66    896.32    524.16  " /><path style="stroke-width: 1.42 ;&st7;   " d=" M   896.32,   524.16  C   896.32    526.67    898.35    528.70    900.85    528.70  " /><path style="stroke-width: 1.42 ;&st7;   " d=" M   900.85,   528.70  C   903.35    528.70    905.38    526.67    905.38    524.16  " /><text style="font-size:6px;font-family:'NSimSun';" transform="matrix(&st16;  892.57  536.33 )">CNH1</text></g><g ewd:lineID="14"><text style="font-size:6px;font-family:'NSimSun';" transform="matrix(&st16;  934.65  586.76 )">7</text><text style="font-size:6px;font-family:'NSimSun';" transform="matrix(&st16;  934.65  577.69 )">7</text><text style="font-size:6px;font-family:'NSimSun';" transform="matrix(&st16;  941.04  577.69 )">A</text><text style="font-size:6px;font-family:'NSimSun';" transform="matrix(&st16;  941.23  586.76 )">F</text><path style="stroke-width: 1.42 ;&st7;   " d=" M   947.87,   584.79  C   947.87    582.28    945.85    580.26    943.34    580.26  " /><path style="stroke-width: 1.42 ;&st7;   " d=" M   943.34,   580.26  C   940.84    580.26    938.81    582.28    938.81    584.79  " /><path style="stroke-width: 1.42 ;&st7;   " d=" M   938.81,   584.79  C   938.81    587.29    940.84    589.32    943.34    589.32  " /><path style="stroke-width: 1.42 ;&st7;   " d=" M   943.34,   589.32  C   945.85    589.32    947.87    587.29    947.87    584.79  " /><path style="stroke-width: 1.42 ;&st7;   " d=" M   947.87,   575.72  C   947.87    573.22    945.85    571.19    943.34    571.19  " /><path style="stroke-width: 1.42 ;&st7;   " d=" M   943.34,   571.19  C   940.84    571.19    938.81    573.22    938.81    575.72  " /><path style="stroke-width: 1.42 ;&st7;   " d=" M   938.81,   575.72  C   938.81    578.23    940.84    580.26    943.34    580.26  " /><path style="stroke-width: 1.42 ;&st7;   " d=" M   943.34,   580.26  C   945.85    580.26    947.87    578.23    947.87    575.72  " /><text style="font-size:6px;font-family:'NSimSun';" transform="matrix(&st16;  935.14  567.49 )">GND1</text></g><g ewd:lineID="15"><text style="font-size:6px;font-family:'NSimSun';" transform="matrix(&st16;  934.65  526.13 )">4</text><text style="font-size:6px;font-family:'NSimSun';" transform="matrix(&st16;  940.96  526.13 )">D</text><path style="stroke-width: 1.42 ;&st7;   " d=" M   947.87,   524.16  C   947.87    521.66    945.85    519.63    943.34    519.63  " /><path style="stroke-width: 1.42 ;&st7;   " d=" M   943.34,   519.63  C   940.84    519.63    938.81    521.66    938.81    524.16  " /><path style="stroke-width: 1.42 ;&st7;   " d=" M   938.81,   524.16  C   938.81    526.67    940.84    528.70    943.34    528.70  " /><path style="stroke-width: 1.42 ;&st7;   " d=" M   943.34,   528.70  C   945.85    528.70    947.87    526.67    947.87    524.16  " /><text style="font-size:6px;font-family:'NSimSun';" transform="matrix(&st16;  935.49  536.33 )">CNL1</text></g><g ewd:figtype="title"><text style="font-size:6px;font-family:'NSimSun';" transform="matrix(&st17;  989.22  565.6 )" ewd:textID="59">无线电收音机和显示屏接收器总成<tspan x="0 " dy="6.0" /></text><text style="font-size:6px;font-family:'NSimSun';" transform="matrix(&st17;  975.06  565.6 )" ewd:textID="47">导航接收器总成</text><text style="font-size:6px;font-family:'NSimSun';" transform="matrix(&st17;  968.23  565.59 )">E1(A),E32(C),E34(D)</text><text style="font-size:6px;font-family:'NSimSun';" transform="matrix(&st17;  982.4  565.59 )">E2(F),E33(H)</text></g></g><g ewd:figtype="conn" ewd:figID="26" ewd:code="z6"><path style="stroke:#FF7F00;stroke-width: 5.10 ;&st6;" d=" M   645.89,   537.20  L   645.89,   512.27  " /><path style="stroke:#FFE600;stroke-width: 5.10 ;&st6;" d=" M   747.88,   537.20  L   747.88,   512.27  " /><path style="stroke:#000000;stroke-width: 5.10 ;&st6;" d=" M   790.37,   537.20  L   790.37,   512.27  " /><path style="stroke-width: 0.85 ;&st7;  " d=" M   684.14,   647.68  L   688.38,   647.68  " /><path style="stroke-width: 0.85 ;&st7;  " d=" M   654.39,   647.68  L   658.64,   647.68  " /><path style="stroke-width: 1.42 ;&st7;  " d=" M   661.47,   647.68  L   684.14,   642.01  " /><path style="stroke-width: 1.42 ;&st7;  " d=" M   661.47,   613.68  L   684.14,   608.02  " /><path style="stroke-width: 0.85 ;&st7;  " d=" M   654.39,   613.68  L   658.64,   613.68  " /><path style="stroke-width: 0.85 ;&st7;  " d=" M   684.14,   613.68  L   688.38,   613.68  " /><path style="stroke-width: 0.85 ;&st7;  " d=" M   735.13,   647.68  L   739.38,   647.68  " /><path style="stroke-width: 0.85 ;&st7;  " d=" M   735.13,   613.68  L   739.38,   613.68  " /><path style="stroke-width: 0.85 ;&st7;  " d=" M   705.38,   613.68  L   709.63,   613.68  " /><path style="stroke-width: 1.42 ;&st7;  " d=" M   712.46,   613.68  L   735.13,   608.02  " /><path style="stroke-width: 0.85 ;&st7;  " d=" M   684.14,   579.69  L   688.38,   579.69  " /><path style="stroke-width: 0.85 ;&st7;  " d=" M   654.39,   579.69  L   658.64,   579.69  " /><path style="stroke-width: 1.42 ;&st7;  " d=" M   661.47,   579.69  L   684.14,   574.02  " /><path style="stroke-width: 1.42 ;&st7;  " d=" M   712.46,   579.69  L   735.13,   574.02  " /><path style="stroke-width: 0.85 ;&st7;  " d=" M   705.38,   579.69  L   709.63,   579.69  " /><path style="stroke-width: 0.85 ;&st7;  " d=" M   735.13,   579.69  L   739.38,   579.69  " /><path style="stroke-width: 0.85 ;&st7;  " d=" M   705.38,   647.68  L   709.63,   647.68  " /><path style="stroke-width: 1.42 ;&st7;  " d=" M   712.46,   647.68  L   735.13,   642.01  " /><path style="stroke-width: 0.85 ;&st7;  " d=" M   684.14,   681.67  L   688.38,   681.67  " /><path style="stroke-width: 0.85 ;&st7;  " d=" M   654.39,   681.67  L   658.64,   681.67  " /><path style="stroke-width: 1.42 ;&st7;  " d=" M   661.47,   681.67  L   684.14,   676.01  " /><path style="stroke-width: 0.85 ;&st7;   " d=" M   735.13,   613.68  C   735.13    612.90    734.49    612.27    733.71    612.27  " /><path style="stroke-width: 0.85 ;&st7;   " d=" M   733.71,   612.27  C   732.93    612.27    732.29    612.90    732.29    613.68  " /><path style="stroke-width: 0.85 ;&st7;   " d=" M   732.29,   613.68  C   732.29    614.47    732.93    615.10    733.71    615.10  " /><path style="stroke-width: 0.85 ;&st7;   " d=" M   733.71,   615.10  C   734.49    615.10    735.13    614.47    735.13    613.68  " /><path style="stroke-width: 0.85 ;&st7;   " d=" M   712.46,   613.68  C   712.46    612.90    711.83    612.27    711.05    612.27  " /><path style="stroke-width: 0.85 ;&st7;   " d=" M   711.05,   612.27  C   710.27    612.27    709.63    612.90    709.63    613.68  " /><path style="stroke-width: 0.85 ;&st7;   " d=" M   709.63,   613.68  C   709.63    614.47    710.27    615.10    711.05    615.10  " /><path style="stroke-width: 0.85 ;&st7;   " d=" M   711.05,   615.10  C   711.83    615.10    712.46    614.47    712.46    613.68  " /><path style="stroke-width: 0.85 ;&st7;   " d=" M   712.46,   579.69  C   712.46    578.91    711.83    578.27    711.05    578.27  " /><path style="stroke-width: 0.85 ;&st7;   " d=" M   711.05,   578.27  C   710.27    578.27    709.63    578.91    709.63    579.69  " /><path style="stroke-width: 0.85 ;&st7;   " d=" M   709.63,   579.69  C   709.63    580.47    710.27    581.10    711.05    581.10  " /><path style="stroke-width: 0.85 ;&st7;   " d=" M   711.05,   581.10  C   711.83    581.10    712.46    580.47    712.46    579.69  " /><path style="stroke-width: 0.85 ;&st7;   " d=" M   661.47,   613.68  C   661.47    612.90    660.84    612.27    660.06    612.27  " /><path style="stroke-width: 0.85 ;&st7;   " d=" M   660.06,   612.27  C   659.27    612.27    658.64    612.90    658.64    613.68  " /><path style="stroke-width: 0.85 ;&st7;   " d=" M   658.64,   613.68  C   658.64    614.47    659.27    615.10    660.06    615.10  " /><path style="stroke-width: 0.85 ;&st7;   " d=" M   660.06,   615.10  C   660.84    615.10    661.47    614.47    661.47    613.68  " /><path style="stroke-width: 0.85 ;&st7;   " d=" M   684.14,   613.68  C   684.14    612.90    683.50    612.27    682.72    612.27  " /><path style="stroke-width: 0.85 ;&st7;   " d=" M   682.72,   612.27  C   681.94    612.27    681.30    612.90    681.30    613.68  " /><path style="stroke-width: 0.85 ;&st7;   " d=" M   681.30,   613.68  C   681.30    614.47    681.94    615.10    682.72    615.10  " /><path style="stroke-width: 0.85 ;&st7;   " d=" M   682.72,   615.10  C   683.50    615.10    684.14    614.47    684.14    613.68  " /><path style="stroke-width: 0.85 ;&st7;   " d=" M   684.14,   579.69  C   684.14    578.91    683.50    578.27    682.72    578.27  " /><path style="stroke-width: 0.85 ;&st7;   " d=" M   682.72,   578.27  C   681.94    578.27    681.30    578.91    681.30    579.69  " /><path style="stroke-width: 0.85 ;&st7;   " d=" M   681.30,   579.69  C   681.30    580.47    681.94    581.10    682.72    581.10  " /><path style="stroke-width: 0.85 ;&st7;   " d=" M   682.72,   581.10  C   683.50    581.10    684.14    580.47    684.14    579.69  " /><path style="stroke-width: 0.85 ;&st7;   " d=" M   661.47,   579.69  C   661.47    578.91    660.84    578.27    660.06    578.27  " /><path style="stroke-width: 0.85 ;&st7;   " d=" M   660.06,   578.27  C   659.27    578.27    658.64    578.91    658.64    579.69  " /><path style="stroke-width: 0.85 ;&st7;   " d=" M   658.64,   579.69  C   658.64    580.47    659.27    581.10    660.06    581.10  " /><path style="stroke-width: 0.85 ;&st7;   " d=" M   660.06,   581.10  C   660.84    581.10    661.47    580.47    661.47    579.69  " /><path style="stroke-width: 0.85 ;&st7;   " d=" M   735.13,   579.69  C   735.13    578.91    734.49    578.27    733.71    578.27  " /><path style="stroke-width: 0.85 ;&st7;   " d=" M   733.71,   578.27  C   732.93    578.27    732.29    578.91    732.29    579.69  " /><path style="stroke-width: 0.85 ;&st7;   " d=" M   732.29,   579.69  C   732.29    580.47    732.93    581.10    733.71    581.10  " /><path style="stroke-width: 0.85 ;&st7;   " d=" M   733.71,   581.10  C   734.49    581.10    735.13    580.47    735.13    579.69  " /><path style="stroke-width: 0.85 ;&st7;   " d=" M   684.14,   647.68  C   684.14    646.89    683.50    646.26    682.72    646.26  " /><path style="stroke-width: 0.85 ;&st7;   " d=" M   682.72,   646.26  C   681.94    646.26    681.30    646.89    681.30    647.68  " /><path style="stroke-width: 0.85 ;&st7;   " d=" M   681.30,   647.68  C   681.30    648.46    681.94    649.09    682.72    649.09  " /><path style="stroke-width: 0.85 ;&st7;   " d=" M   682.72,   649.09  C   683.50    649.09    684.14    648.46    684.14    647.68  " /><path style="stroke-width: 0.85 ;&st7;   " d=" M   661.47,   647.68  C   661.47    646.89    660.84    646.26    660.06    646.26  " /><path style="stroke-width: 0.85 ;&st7;   " d=" M   660.06,   646.26  C   659.27    646.26    658.64    646.89    658.64    647.68  " /><path style="stroke-width: 0.85 ;&st7;   " d=" M   658.64,   647.68  C   658.64    648.46    659.27    649.09    660.06    649.09  " /><path style="stroke-width: 0.85 ;&st7;   " d=" M   660.06,   649.09  C   660.84    649.09    661.47    648.46    661.47    647.68  " /><path style="stroke-width: 0.85 ;&st7;   " d=" M   735.13,   647.68  C   735.13    646.89    734.49    646.26    733.71    646.26  " /><path style="stroke-width: 0.85 ;&st7;   " d=" M   733.71,   646.26  C   732.93    646.26    732.29    646.89    732.29    647.68  " /><path style="stroke-width: 0.85 ;&st7;   " d=" M   732.29,   647.68  C   732.29    648.46    732.93    649.09    733.71    649.09  " /><path style="stroke-width: 0.85 ;&st7;   " d=" M   733.71,   649.09  C   734.49    649.09    735.13    648.46    735.13    647.68  " /><path style="stroke-width: 0.85 ;&st7;   " d=" M   712.46,   647.68  C   712.46    646.89    711.83    646.26    711.05    646.26  " /><path style="stroke-width: 0.85 ;&st7;   " d=" M   711.05,   646.26  C   710.27    646.26    709.63    646.89    709.63    647.68  " /><path style="stroke-width: 0.85 ;&st7;   " d=" M   709.63,   647.68  C   709.63    648.46    710.27    649.09    711.05    649.09  " /><path style="stroke-width: 0.85 ;&st7;   " d=" M   711.05,   649.09  C   711.83    649.09    712.46    648.46    712.46    647.68  " /><path style="stroke-width: 0.85 ;&st7;   " d=" M   684.14,   681.67  C   684.14    680.89    683.50    680.25    682.72    680.25  " /><path style="stroke-width: 0.85 ;&st7;   " d=" M   682.72,   680.25  C   681.94    680.25    681.30    680.89    681.30    681.67  " /><path style="stroke-width: 0.85 ;&st7;   " d=" M   681.30,   681.67  C   681.30    682.45    681.94    683.09    682.72    683.09  " /><path style="stroke-width: 0.85 ;&st7;   " d=" M   682.72,   683.09  C   683.50    683.09    684.14    682.45    684.14    681.67  " /><path style="stroke-width: 0.85 ;&st7;   " d=" M   661.47,   681.67  C   661.47    680.89    660.84    680.25    660.06    680.25  " /><path style="stroke-width: 0.85 ;&st7;   " d=" M   660.06,   680.25  C   659.27    680.25    658.64    680.89    658.64    681.67  " /><path style="stroke-width: 0.85 ;&st7;   " d=" M   658.64,   681.67  C   658.64    682.45    659.27    683.09    660.06    683.09  " /><path style="stroke-width: 0.85 ;&st7;   " d=" M   660.06,   683.09  C   660.84    683.09    661.47    682.45    661.47    681.67  " /><path style="stroke-width: 0.85 ;&st7;  " d=" M   747.87,   613.68  L   747.87,   605.18  L   745.04,   603.77  L   750.71,   600.93  L   745.04,   598.10  L   750.71,   595.27  L   745.04,   592.44  L   750.71,   589.60  L   747.87,   588.19  L   747.87,   579.69  " /><path style="stroke-width: 0.85 ;&st7;  " d=" M   747.87,   647.68  L   747.87,   639.18  L   745.04,   637.76  L   750.71,   634.93  L   745.04,   632.10  L   750.71,   629.26  L   745.04,   626.43  L   750.71,   623.60  L   747.87,   622.18  L   747.87,   613.68  " /><path style="stroke-width: 0.85 ;&st7;  " d=" M   645.89,   647.68  L   645.89,   639.18  L   643.06,   637.76  L   648.72,   634.93  L   643.06,   632.10  L   648.72,   629.26  L   643.06,   626.43  L   648.72,   623.60  L   645.89,   622.18  L   645.89,   613.68  " /><path style="stroke-width: 0.85 ;&st7;  " d=" M   645.89,   613.68  L   645.89,   605.18  L   643.06,   603.77  L   648.72,   600.93  L   643.06,   598.10  L   648.72,   595.27  L   643.06,   592.44  L   648.72,   589.60  L   645.89,   588.19  L   645.89,   579.69  " /><path style="stroke-width: 0.85 ;&st7;  " d=" M   696.88,   545.69  L   679.89,   545.69  L   678.47,   548.53  L   675.64,   542.86  L   672.80,   548.53  L   669.97,   542.86  L   667.14,   548.53  L   664.31,   542.86  L   662.89,   545.69  L   645.89,   545.69  " /><path style="stroke-width: 0.85 ;&st7;  " d=" M   747.87,   545.69  L   730.88,   545.69  L   729.46,   548.53  L   726.63,   542.86  L   723.80,   548.53  L   720.96,   542.86  L   718.13,   548.53  L   715.30,   542.86  L   713.88,   545.69  L   696.88,   545.69  " /><path style="stroke-width: 0.85 ;&st7;  " d=" M   644.70,   544.69  L   644.43,   545.16  L   644.33,   545.69  L   644.43,   546.23  L   644.70,   546.70  L   645.11,   547.04  L   645.62,   547.23  L   646.16,   547.23  L   646.67,   547.04  L   647.08,   546.70  L   647.36,   546.23  L   647.45,   545.69  L   647.36,   545.16  L   647.08,   544.69  L   646.67,   544.35  L   646.16,   544.16  L   645.62,   544.16  L   645.11,   544.35  L   644.70,   544.69  L   645.09,   545.40  L   645.09,   545.99  L   645.47,   546.43  L   646.04,   546.53  L   646.54,   546.24  L   646.74,   545.69  L   646.54,   545.15  L   646.04,   544.86  L   645.47,   544.96  L   645.89,   545.69  " /><path style="stroke-width: 0.85 ;&st7;  " d=" M   695.69,   544.69  L   695.42,   545.16  L   695.33,   545.69  L   695.42,   546.23  L   695.69,   546.70  L   696.10,   547.04  L   696.61,   547.23  L   697.16,   547.23  L   697.66,   547.04  L   698.08,   546.70  L   698.35,   546.23  L   698.44,   545.69  L   698.35,   545.16  L   698.08,   544.69  L   697.66,   544.35  L   697.16,   544.16  L   696.61,   544.16  L   696.10,   544.35  L   695.69,   544.69  L   696.08,   545.40  L   696.08,   545.99  L   696.46,   546.43  L   697.03,   546.53  L   697.53,   546.24  L   697.73,   545.69  L   697.53,   545.15  L   697.03,   544.86  L   696.46,   544.96  L   696.88,   545.69  " /><path style="stroke-width: 0.85 ;&st7;  " d=" M   746.68,   544.69  L   746.41,   545.16  L   746.32,   545.69  L   746.41,   546.23  L   746.68,   546.70  L   747.10,   547.04  L   747.60,   547.23  L   748.15,   547.23  L   748.65,   547.04  L   749.07,   546.70  L   749.34,   546.23  L   749.43,   545.69  L   749.34,   545.16  L   749.07,   544.69  L   748.65,   544.35  L   748.15,   544.16  L   747.60,   544.16  L   747.10,   544.35  L   746.68,   544.69  L   747.08,   545.40  L   747.08,   545.99  L   747.45,   546.43  L   748.02,   546.53  L   748.53,   546.24  L   748.72,   545.69  L   748.53,   545.15  L   748.02,   544.86  L   747.45,   544.96  L   747.87,   545.69  " /><path style="stroke-width: 0.85 ;&st7;  " d=" M   746.68,   578.69  L   746.41,   579.16  L   746.32,   579.69  L   746.41,   580.22  L   746.68,   580.69  L   747.10,   581.04  L   747.60,   581.22  L   748.15,   581.22  L   748.65,   581.04  L   749.07,   580.69  L   749.34,   580.22  L   749.43,   579.69  L   749.34,   579.16  L   749.07,   578.69  L   748.65,   578.34  L   748.15,   578.15  L   747.60,   578.15  L   747.10,   578.34  L   746.68,   578.69  L   747.08,   579.40  L   747.08,   579.98  L   747.45,   580.43  L   748.02,   580.52  L   748.53,   580.24  L   748.72,   579.69  L   748.53,   579.14  L   748.02,   578.85  L   747.45,   578.95  L   747.87,   579.69  " /><path style="stroke-width: 0.85 ;&st7;  " d=" M   695.69,   578.69  L   695.42,   579.16  L   695.33,   579.69  L   695.42,   580.22  L   695.69,   580.69  L   696.10,   581.04  L   696.61,   581.22  L   697.16,   581.22  L   697.66,   581.04  L   698.08,   580.69  L   698.35,   580.22  L   698.44,   579.69  L   698.35,   579.16  L   698.08,   578.69  L   697.66,   578.34  L   697.16,   578.15  L   696.61,   578.15  L   696.10,   578.34  L   695.69,   578.69  L   696.08,   579.40  L   696.08,   579.98  L   696.46,   580.43  L   697.03,   580.52  L   697.53,   580.24  L   697.73,   579.69  L   697.53,   579.14  L   697.03,   578.85  L   696.46,   578.95  L   696.88,   579.69  " /><path style="stroke-width: 0.85 ;&st7;  " d=" M   695.69,   612.68  L   695.42,   613.15  L   695.33,   613.68  L   695.42,   614.22  L   695.69,   614.69  L   696.10,   615.03  L   696.61,   615.22  L   697.16,   615.22  L   697.66,   615.03  L   698.08,   614.69  L   698.35,   614.22  L   698.44,   613.68  L   698.35,   613.15  L   698.08,   612.68  L   697.66,   612.33  L   697.16,   612.15  L   696.61,   612.15  L   696.10,   612.33  L   695.69,   612.68  L   696.08,   613.39  L   696.08,   613.97  L   696.46,   614.42  L   697.03,   614.52  L   697.53,   614.23  L   697.73,   613.68  L   697.53,   613.14  L   697.03,   612.85  L   696.46,   612.95  L   696.88,   613.68  " /><path style="stroke-width: 0.85 ;&st7;  " d=" M   746.68,   612.68  L   746.41,   613.15  L   746.32,   613.68  L   746.41,   614.22  L   746.68,   614.69  L   747.10,   615.03  L   747.60,   615.22  L   748.15,   615.22  L   748.65,   615.03  L   749.07,   614.69  L   749.34,   614.22  L   749.43,   613.68  L   749.34,   613.15  L   749.07,   612.68  L   748.65,   612.33  L   748.15,   612.15  L   747.60,   612.15  L   747.10,   612.33  L   746.68,   612.68  L   747.08,   613.39  L   747.08,   613.97  L   747.45,   614.42  L   748.02,   614.52  L   748.53,   614.23  L   748.72,   613.68  L   748.53,   613.14  L   748.02,   612.85  L   747.45,   612.95  L   747.87,   613.68  " /><path style="stroke-width: 0.85 ;&st7;  " d=" M   695.69,   646.67  L   695.42,   647.14  L   695.33,   647.68  L   695.42,   648.21  L   695.69,   648.68  L   696.10,   649.03  L   696.61,   649.21  L   697.16,   649.21  L   697.66,   649.03  L   698.08,   648.68  L   698.35,   648.21  L   698.44,   647.68  L   698.35,   647.14  L   698.08,   646.67  L   697.66,   646.33  L   697.16,   646.14  L   696.61,   646.14  L   696.10,   646.33  L   695.69,   646.67  L   696.08,   647.39  L   696.08,   647.97  L   696.46,   648.41  L   697.03,   648.51  L   697.53,   648.22  L   697.73,   647.68  L   697.53,   647.13  L   697.03,   646.84  L   696.46,   646.94  L   696.88,   647.68  " /><path style="stroke-width: 0.85 ;&st7;  " d=" M   644.70,   612.68  L   644.43,   613.15  L   644.33,   613.68  L   644.43,   614.22  L   644.70,   614.69  L   645.11,   615.03  L   645.62,   615.22  L   646.16,   615.22  L   646.67,   615.03  L   647.08,   614.69  L   647.36,   614.22  L   647.45,   613.68  L   647.36,   613.15  L   647.08,   612.68  L   646.67,   612.33  L   646.16,   612.15  L   645.62,   612.15  L   645.11,   612.33  L   644.70,   612.68  L   645.09,   613.39  L   645.09,   613.97  L   645.47,   614.42  L   646.04,   614.52  L   646.54,   614.23  L   646.74,   613.68  L   646.54,   613.14  L   646.04,   612.85  L   645.47,   612.95  L   645.89,   613.68  " /><path style="stroke-width: 0.85 ;&st7;  " d=" M   644.70,   578.69  L   644.43,   579.16  L   644.33,   579.69  L   644.43,   580.22  L   644.70,   580.69  L   645.11,   581.04  L   645.62,   581.22  L   646.16,   581.22  L   646.67,   581.04  L   647.08,   580.69  L   647.36,   580.22  L   647.45,   579.69  L   647.36,   579.16  L   647.08,   578.69  L   646.67,   578.34  L   646.16,   578.15  L   645.62,   578.15  L   645.11,   578.34  L   644.70,   578.69  L   645.09,   579.40  L   645.09,   579.98  L   645.47,   580.43  L   646.04,   580.52  L   646.54,   580.24  L   646.74,   579.69  L   646.54,   579.14  L   646.04,   578.85  L   645.47,   578.95  L   645.89,   579.69  " /><path style="stroke-width: 0.85 ;&st7;  " d=" M   645.89,   579.69  L   645.89,   571.19  L   643.06,   569.77  L   648.72,   566.94  L   643.06,   564.11  L   648.72,   561.27  L   643.06,   558.44  L   648.72,   555.61  L   645.89,   554.19  L   645.89,   545.69  " /><path style="stroke-width: 0.85 ;&st7;  " d=" M   696.88,   545.69  L   696.88,   681.67  " /><path style="stroke-width: 0.85 ;&st7;  " d=" M   747.87,   579.69  L   747.87,   571.19  L   745.04,   569.77  L   750.71,   566.94  L   745.04,   564.11  L   750.71,   561.27  L   745.04,   558.44  L   750.71,   555.61  L   747.87,   554.19  L   747.87,   545.69  " /><path style="stroke-width: 0.85 ;&st7;  " d=" M   695.69,   680.67  L   695.42,   681.14  L   695.33,   681.67  L   695.42,   682.20  L   695.69,   682.67  L   696.10,   683.02  L   696.61,   683.21  L   697.16,   683.21  L   697.66,   683.02  L   698.08,   682.67  L   698.35,   682.20  L   698.44,   681.67  L   698.35,   681.14  L   698.08,   680.67  L   697.66,   680.32  L   697.16,   680.14  L   696.61,   680.14  L   696.10,   680.32  L   695.69,   680.67  L   696.08,   681.38  L   696.08,   681.96  L   696.46,   682.41  L   697.03,   682.51  L   697.53,   682.22  L   697.73,   681.67  L   697.53,   681.12  L   697.03,   680.84  L   696.46,   680.93  L   696.88,   681.67  " /><path style="stroke-width: 0.85 ;&st7;  " d=" M   688.38,   681.67  L   790.37,   681.67  L   790.37,   537.20  " /><path style="stroke-width: 0.85 ;&st7;  " d=" M   645.89,   647.68  L   654.39,   647.68  " /><path style="stroke-width: 0.85 ;&st7;  " d=" M   688.38,   647.68  L   705.38,   647.68  " /><path style="stroke-width: 0.85 ;&st7;  " d=" M   688.38,   613.68  L   705.38,   613.68  " /><path style="stroke-width: 0.85 ;&st7;  " d=" M   688.38,   579.69  L   705.38,   579.69  " /><path style="stroke-width: 0.85 ;&st7;  " d=" M   739.38,   579.69  L   747.87,   579.69  " /><path style="stroke-width: 0.85 ;&st7;  " d=" M   739.38,   613.68  L   747.87,   613.68  " /><path style="stroke-width: 0.85 ;&st7;  " d=" M   739.38,   647.68  L   747.87,   647.68  " /><path style="stroke-width: 0.85 ;&st7;  " d=" M   645.89,   681.67  L   654.39,   681.67  " /><path style="stroke-width: 0.85 ;&st7;  " d=" M   654.39,   579.69  L   645.89,   579.69  " /><path style="stroke-width: 0.85 ;&st7;  " d=" M   654.39,   613.68  L   645.89,   613.68  " /><text style="font-size:6px;font-family:'NSimSun';" transform="matrix(&st17;  642.2  526.56 )">O</text><text style="font-size:6px;font-family:'NSimSun';" transform="matrix(&st17;  744.18  526.14 )">Y</text><text style="font-size:6px;font-family:'NSimSun';" transform="matrix(&st16; 667.98 570.33)" ewd:textID="44" ewd:horAlign="center">左</text><text style="font-size:6px;font-family:'NSimSun';" transform="matrix(&st16; 716.20 570.33)" ewd:textID="27" ewd:horAlign="center">进入</text><text style="font-size:6px;font-family:'NSimSun';" transform="matrix(&st16; 718.93 604.32)" ewd:textID="74" ewd:horAlign="center">顶</text><text style="font-size:6px;font-family:'NSimSun';" transform="matrix(&st16; 668.29 604.32)" ewd:textID="78" ewd:horAlign="center">上</text><text style="font-size:6px;font-family:'NSimSun';" transform="matrix(&st16; 668.71 638.31)" ewd:textID="23" ewd:horAlign="center">下</text><text style="font-size:6px;font-family:'NSimSun';" transform="matrix(&st16; 716.52 638.31)" ewd:textID="6" ewd:horAlign="center">后退</text><text style="font-size:6px;font-family:'NSimSun';" transform="matrix(&st16; 668.43 672.31)" ewd:textID="65" ewd:horAlign="center">右</text><text style="font-size:6px;font-family:'NSimSun';" transform="matrix(&st17;  633.7  629.6 )" ewd:textID="72">方向盘右开关</text><path style="stroke-width: 1.42 ;&st7;  " d=" M   611.90,   512.27  L   611.90,   698.67  L   824.36,   698.67  L   824.36,   512.27  L   611.90,   512.27  " /><path style="stroke-width: 0.85 ;&st7;  " d=" M   645.89,   681.67  L   645.89,   673.17  L   643.06,   671.76  L   648.72,   668.92  L   643.06,   666.09  L   648.72,   663.26  L   643.06,   660.42  L   648.72,   657.59  L   645.89,   656.18  L   645.89,   647.68  " /><path style="stroke-width: 0.85 ;&st7;  " d=" M   747.87,   545.69  L   747.87,   537.20  " /><text style="font-size:6px;font-family:'NSimSun';" transform="matrix(&st17;  786.67  526.14 )">B</text><text style="font-size:6px;font-family:'NSimSun';" transform="matrix(&st17;  815.01  587.06 )" ewd:textID="71">方向盘左开关</text><path style="stroke-width: 1.42 ;&st7;  " d=" M   773.37,   537.20  L   773.37,   588.19  L   807.36,   588.19  L   807.36,   537.20  L   773.37,   537.20  " /><path style="stroke-width: 0.85 ;&st7;  " d=" M   644.70,   646.67  L   644.43,   647.14  L   644.33,   647.68  L   644.43,   648.21  L   644.70,   648.68  L   645.11,   649.03  L   645.62,   649.21  L   646.16,   649.21  L   646.67,   649.03  L   647.08,   648.68  L   647.36,   648.21  L   647.45,   647.68  L   647.36,   647.14  L   647.08,   646.67  L   646.67,   646.33  L   646.16,   646.14  L   645.62,   646.14  L   645.11,   646.33  L   644.70,   646.67  L   645.09,   647.39  L   645.09,   647.97  L   645.47,   648.41  L   646.04,   648.51  L   646.54,   648.22  L   646.74,   647.68  L   646.54,   647.13  L   646.04,   646.84  L   645.47,   646.94  L   645.89,   647.68  " /><path style="stroke-width: 1.42 ;&st7;  " d=" M   637.39,   537.20  L   637.39,   690.17  L   756.37,   690.17  L   756.37,   537.20  L   637.39,   537.20  " /><path style="stroke-width: 0.85 ;&st7;  " d=" M   645.89,   545.69  L   645.89,   537.20  " /><path style="stroke-width: 1.42 ;&st7;   " d=" M   650.42,   507.73  C   650.42    505.23    648.40    503.20    645.89    503.20  " /><path style="stroke-width: 1.42 ;&st7;   " d=" M   645.89,   503.20  C   643.39    503.20    641.36    505.23    641.36    507.73  " /><path style="stroke-width: 1.42 ;&st7;   " d=" M   641.36,   507.73  C   641.36    510.24    643.39    512.27    645.89    512.27  " /><path style="stroke-width: 1.42 ;&st7;   " d=" M   645.89,   512.27  C   648.40    512.27    650.42    510.24    650.42    507.73  " /><text style="font-size:6px;font-family:'NSimSun';" transform="matrix(&st16;  643.78  509.7 )">E</text><text style="font-size:6px;font-family:'NSimSun';" transform="matrix(&st16;  637.2  509.7 )">3</text><text style="font-size:6px;font-family:'NSimSun';" transform="matrix(&st16;  739.18  509.7 )">2</text><path style="stroke-width: 1.42 ;&st7;   " d=" M   752.41,   507.73  C   752.41    505.23    750.38    503.20    747.88    503.20  " /><path style="stroke-width: 1.42 ;&st7;   " d=" M   747.88,   503.20  C   745.37    503.20    743.34    505.23    743.34    507.73  " /><path style="stroke-width: 1.42 ;&st7;   " d=" M   743.34,   507.73  C   743.34    510.24    745.37    512.27    747.88    512.27  " /><path style="stroke-width: 1.42 ;&st7;   " d=" M   747.88,   512.27  C   750.38    512.27    752.41    510.24    752.41    507.73  " /><text style="font-size:6px;font-family:'NSimSun';" transform="matrix(&st16;  745.76  509.7 )">E</text><path style="stroke-width: 1.42 ;&st7;   " d=" M   794.90,   507.73  C   794.90    505.23    792.87    503.20    790.37    503.20  " /><path style="stroke-width: 1.42 ;&st7;   " d=" M   790.37,   503.20  C   787.86    503.20    785.84    505.23    785.84    507.73  " /><path style="stroke-width: 1.42 ;&st7;   " d=" M   785.84,   507.73  C   785.84    510.24    787.86    512.27    790.37    512.27  " /><path style="stroke-width: 1.42 ;&st7;   " d=" M   790.37,   512.27  C   792.87    512.27    794.90    510.24    794.90    507.73  " /><text style="font-size:6px;font-family:'NSimSun';" transform="matrix(&st16;  781.67  509.7 )">8</text><text style="font-size:6px;font-family:'NSimSun';" transform="matrix(&st16;  788.26  509.7 )">E</text><g ewd:figtype="title"><text style="font-size:6px;font-family:'NSimSun';" transform="matrix(&st17;  601.38  701.57 )">z6(E)</text><text style="font-size:6px;font-family:'NSimSun';" transform="matrix(&st17;  608.2  701.57 )" ewd:textID="70">方向盘衬垫开关总成</text></g></g><g ewd:figtype="conn" ewd:figID="27" ewd:code="E13,z6"><path style="stroke-width: 1.42 ;&st7;  " d=" M   611.90,   486.20  L   611.90,   503.20  L   824.36,   503.20  L   824.36,   486.20  L   611.90,   486.20  " /><path style="stroke-width: 0.85 ;&st7;  " d=" M   747.87,   486.20  L   747.87,   503.20  " /><path style="stroke-width: 0.85 ;&st7;  " d=" M   645.89,   486.20  L   645.89,   503.20  " /><text style="font-size:6px;font-family:'NSimSun';" transform="matrix(&st16;  750.46  494.4 )">+DP</text><text style="font-size:6px;font-family:'NSimSun';" transform="matrix(&st16;  648.48  494.4 )">+DP2</text><text style="font-size:6px;font-family:'NSimSun';" transform="matrix(&st16;  792.95  494.4 )">EAU</text><path style="stroke-width: 0.85 ;&st7;  " d=" M   790.37,   486.20  L   790.37,   503.20  " /><text style="font-size:6px;font-family:'NSimSun';" transform="matrix(&st16;  634.1  483.64 )">11</text><text style="font-size:6px;font-family:'NSimSun';" transform="matrix(&st16;  643.59  483.64 )">A</text><path style="stroke-width: 1.42 ;&st7;   " d=" M   650.42,   481.67  C   650.42    479.17    648.40    477.14    645.89    477.14  " /><path style="stroke-width: 1.42 ;&st7;   " d=" M   645.89,   477.14  C   643.39    477.14    641.36    479.17    641.36    481.67  " /><path style="stroke-width: 1.42 ;&st7;   " d=" M   641.36,   481.67  C   641.36    484.17    643.39    486.20    645.89    486.20  " /><path style="stroke-width: 1.42 ;&st7;   " d=" M   645.89,   486.20  C   648.40    486.20    650.42    484.17    650.42    481.67  " /><text style="font-size:6px;font-family:'NSimSun';" transform="matrix(&st16;  736.08  483.64 )">10</text><text style="font-size:6px;font-family:'NSimSun';" transform="matrix(&st16;  745.57  483.64 )">A</text><path style="stroke-width: 1.42 ;&st7;   " d=" M   752.41,   481.67  C   752.41    479.17    750.38    477.14    747.88    477.14  " /><path style="stroke-width: 1.42 ;&st7;   " d=" M   747.88,   477.14  C   745.37    477.14    743.34    479.17    743.34    481.67  " /><path style="stroke-width: 1.42 ;&st7;   " d=" M   743.34,   481.67  C   743.34    484.17    745.37    486.20    747.88    486.20  " /><path style="stroke-width: 1.42 ;&st7;   " d=" M   747.88,   486.20  C   750.38    486.20    752.41    484.17    752.41    481.67  " /><text style="font-size:6px;font-family:'NSimSun';" transform="matrix(&st16;  781.67  483.64 )">3</text><path style="stroke-width: 1.42 ;&st7;   " d=" M   794.90,   481.67  C   794.90    479.17    792.87    477.14    790.37    477.14  " /><path style="stroke-width: 1.42 ;&st7;   " d=" M   790.37,   477.14  C   787.86    477.14    785.84    479.17    785.84    481.67  " /><path style="stroke-width: 1.42 ;&st7;   " d=" M   785.84,   481.67  C   785.84    484.17    787.86    486.20    790.37    486.20  " /><path style="stroke-width: 1.42 ;&st7;   " d=" M   790.37,   486.20  C   792.87    486.20    794.90    484.17    794.90    481.67  " /><text style="font-size:6px;font-family:'NSimSun';" transform="matrix(&st16;  788.06  483.64 )">A</text><g ewd:figtype="title"><text style="font-size:6px;font-family:'NSimSun';" transform="matrix(&st17;  596.3  506.11 )" ewd:textID="68">螺旋电缆分总成<tspan x="0 " dy="6.0" /><tspan x="0 " dy="6.0" /></text><text style="font-size:6px;font-family:'NSimSun';" transform="matrix(&st17;  589.48  506.1 )">E13(A),z6(E)</text></g></g><g ewd:figtype="gp" ewd:figID="81" ewd:code="ED"><path style="stroke-width: 0.85 ;&st7;  " d=" M   943.34,   697.25  L   943.34,   701.50  " /><path style="stroke-width: 0.85 ;&st7;  " d=" M   934.84,   701.50  L   951.84,   701.50  " /><path style="stroke-width: 0.85 ;&st7;  " d=" M   939.09,   704.33  L   947.59,   704.33  " /><path style="stroke-width: 0.85 ;&st7;  " d=" M   940.51,   707.17  L   946.17,   707.17  " /><path style="stroke-width: 0.85 ;&st7;  " d=" M   941.93,   710.00  L   944.76,   710.00  " /></g><g ewd:figtype="annex" ewd:figID="40" ewd:code=" "><path style="stroke-width: 1.42 ;&st7;  " d=" M   569.40,   511.70  L   564.35,   500.34  " /><path style="stroke-width: 1.42 ;&st7;  " d=" M   569.40,   511.70  L   574.46,   500.34  " /><text style="font-size:6px;font-family:'NSimSun';" transform="matrix(&st17; 571.56 573.89)" ewd:textID="38">危险警告信号开关总成<tspan x="0 " dy="6.0" /></text></g><g ewd:code="" ewd:figID="128" ewd:comment="20" ewd:figtype="commref"><text style="font-size:6px;font-family:'NSimSun';" transform="matrix(&st16;  948.44  586.76 )">(*20)</text></g><g ewd:code="" ewd:figID="129" ewd:comment="19" ewd:figtype="commref"><text style="font-size:6px;font-family:'NSimSun';" transform="matrix(&st16;  948.44  577.69 )">(*19)</text></g><g ewd:code="19" ewd:figID="111" ewd:comment="" ewd:figtype="comment"><text style="font-size:6px;font-family:'NSimSun';" transform="matrix(&st16;  863.45  71.74 )" ewd:textID="4">* 19 : 导航接收器型</text></g><g ewd:code="20" ewd:figID="110" ewd:comment="" ewd:figtype="comment"><text style="font-size:6px;font-family:'NSimSun';" transform="matrix(&st16;  863.45  80.24 )" ewd:textID="5">* 20 : 无线电收音机和显示屏接收器型</text></g></svg>