<?xml version="1.0" encoding="utf-8"?>
<!DOCTYPE svg PUBLIC "-//W3C//DTD SVG 1.0//EN" "http://www.w3.org/TR/2001/REC-SVG-20010904/DTD/svg10.dtd"[
	<!ENTITY ns_flows "http://ns.adobe.com/Flows/1.0/">
	<!ENTITY ns_svg "http://www.w3.org/2000/svg">
	<!ENTITY ns_xlink "http://www.w3.org/1999/xlink">
	<!ENTITY st0 "font-size:7px;font-family:'NSimSun';adobe-font-script:japanese;">
	<!ENTITY st1 "font-size:6px;font-family:'NSimSun';">
	<!-- White fill  -->
	<!ENTITY st2 "fill:#FFFFFF;stroke:#000000; stroke-width:1.41;stroke-linecap:round;stroke-linejoin:round;">
	<!-- Yellow fill  -->
	<!ENTITY st3 "fill:#FFFFCC;stroke:#FFFFCC; stroke-width:0.1;stroke-linecap:round;stroke-linejoin:round;">
	<!-- Gray fill  -->
	<!ENTITY st4 "fill:#CCCCCC;stroke:#CCCCCC; stroke-width:0.1;stroke-linecap:round;stroke-linejoin:round;">
	<!-- Light-blue fill -->
	<!ENTITY st5 "fill:#CCECF4;stroke:#000000; stroke-width:1.133;stroke-linecap:round;stroke-linejoin:round;">
	<!ENTITY st6 "fill:none;stroke-linecap:butt; stroke-linejoin:round;">
	<!ENTITY st7 "fill:none;stroke:#000000;stroke-linecap:round;stroke-linejoin:round;">
	<!ENTITY st8 "enable-background:new    ;">
	<!-- Black fill -->
	<!ENTITY st9 "fill:#000000;stroke:#000000; stroke-linecap:round;stroke-linejoin:round;">
	<!-- SRS note   -->
	<!ENTITY st10 "font-size:9px;font-family:'NSimSun';">
	<!ENTITY st11 "font-size:9px;font-family:'NSimSun';">
	<!ENTITY st12 "font-size:6px;font-family:'NSimSun';">
	<!ENTITY st13 "fill:none;stroke:#ff0000;stroke-linecap:round;stroke-linejoin:round;">
	<!-- Yellow fill  -->
	<!ENTITY st14 "fill:#FFFF00;stroke:#FFFF00; stroke-width:0.1;stroke-linecap:round;stroke-linejoin:round;">
	<!ENTITY st15 "font-size:6px;font-family:'NSimSun';adobe-font-script:japanese;">
	<!ENTITY st16 "1.00 0.00 0.00 1.00">
	<!ENTITY st17 "0.00 -1.00 1.00 0.00">
	<!ENTITY st18 "font-size:6px;font-family:'NSimSun';">
	<!ENTITY st19 "font-size:9px;font-family:'NSimSun';">
	<!ENTITY st20 "font-size:6px;font-family:'NSimSun';adobe-font-script:japanese;">
	<!ENTITY st21 "font-size:7px;font-family:'NSimSun';adobe-font-script:japanese;">
	<!ATTLIST svg
		xmlns:ewd CDATA #FIXED "http://shcl.co.jp/ewd"
		xmlns:a CDATA #FIXED "http://ns.adobe.com/AdobeSVGViewerExtensions/3.0/"
		ewd:ver CDATA #IMPLIED
	>
	<!ATTLIST a
		ewd:lineID CDATA #IMPLIED
		ewd:groupID CDATA #IMPLIED
		ewd:figtype CDATA #IMPLIED
		ewd:code CDATA #IMPLIED
		ewd:figID CDATA #IMPLIED
		ewd:pinNo CDATA #IMPLIED
		ewd:comment CDATA #IMPLIED >
	<!ATTLIST g
		ewd:lineID CDATA #IMPLIED
		ewd:groupID CDATA #IMPLIED
		ewd:figtype CDATA #IMPLIED
		ewd:code CDATA #IMPLIED
		ewd:figID CDATA #IMPLIED
		ewd:pinNo CDATA #IMPLIED
		ewd:comment CDATA #IMPLIED >
	<!ATTLIST text
		ewd:textID CDATA #IMPLIED
		ewd:horAlign CDATA #IMPLIED >
	<!ATTLIST title
		ewd:textID CDATA #IMPLIED >
]>
<!-- Generator: Shintec Hozumi YS   -->
<svg onload="call_execInitLoadProc_svg('system')" style="overflow:visible;  enable-background:new 0 0 4630.310 710.000" viewBox="0 0 4633.854 710.000" height="710.000" width="4633.854" xml:space="preserve" ewd:ver="2.1.2.6F" xmlns="&ns_svg;" xmlns:ewd="http://shcl.co.jp/ewd" xmlns:a="http://ns.adobe.com/AdobeSVGViewerExtensions/3.0/" xmlns:xlink="&ns_xlink;">
<path style="stroke-width: 1.42 ;&st7;  " d=" M  1232.29,   494.70  L  1240.79,   494.70  " /><text style="font-size:6px;font-family:'NSimSun';" transform="matrix(&st17;  1373.07  530.5 )">V</text><text style="font-size:6px;font-family:'NSimSun';" transform="matrix(&st17;  1458.06  530.5 )">V</text><text style="font-size:6px;font-family:'NSimSun';" transform="matrix(&st17;  1288.09  488.01 )">V</text><text style="font-size:6px;font-family:'NSimSun';" transform="matrix(&st17;  1237.1  470.82 )">R</text><text style="font-size:6px;font-family:'NSimSun';" transform="matrix(&st17;  1118.12  481.49 )">LG</text><text style="font-size:6px;font-family:'NSimSun';" transform="matrix(&st17;  1237.1  530.39 )">B</text><text style="font-size:6px;font-family:'NSimSun';" transform="matrix(&st17;  1415.57  530.5 )">V</text><text style="font-size:6px;font-family:'NSimSun';" transform="matrix(&st17;  1469.39  534.96 )">(*14)</text><text style="font-size:6px;font-family:'NSimSun';" transform="matrix(&st17;  1492.05  530.5 )">V</text><text style="font-size:6px;font-family:'NSimSun';" transform="matrix(&st17;  1152.11  480.17 )">W</text><text style="font-size:6px;font-family:'NSimSun';" transform="matrix(&st16;  1220.38  126.96 )">E55(A),E59(B)</text><text style="font-size:6px;font-family:'NSimSun';" transform="matrix(&st16;  1220.39  134.07 )" ewd:textID="26">组合仪表总成</text><g ewd:figtype="jb" ewd:figID="57" ewd:code="3"><path style="stroke-width: 1.42 ;&st7;  " d=" M  1344.90,   494.70  L  1340.65,   494.70  " /><path style="stroke-width: 1.42 ;&st7;  " d=" M  1344.90,   486.20  L  1340.65,   486.20  " /><path style="stroke-width: 1.42 ;&st7;  " d=" M  1378.89,   494.70  L  1374.65,   494.70  " /><path style="stroke-width: 1.42 ;&st7;  " d=" M  1378.89,   486.20  L  1374.65,   486.20  " /><path style="stroke-width: 1.42 ;&st7;  " d=" M  1463.88,   494.70  L  1459.63,   494.70  " /><path style="stroke-width: 1.42 ;&st7;  " d=" M  1463.88,   486.20  L  1459.63,   486.20  " /><path style="stroke-width: 1.42 ;&st7;  " d=" M  1421.39,   494.70  L  1417.14,   494.70  " /><path style="stroke-width: 1.42 ;&st7;  " d=" M  1421.39,   486.20  L  1417.14,   486.20  " /><path style="stroke-width: 1.42 ;&st7;   " d=" M  1349.15,   490.45  C  1349.15    488.11   1347.25    486.20   1344.90    486.20  " /><path style="stroke-width: 1.42 ;&st7;   " d=" M  1344.90,   494.70  C  1347.25    494.70   1349.15    492.80   1349.15    490.45  " /><path style="stroke-width: 1.42 ;&st7;   " d=" M  1336.40,   490.45  C  1336.40    492.80   1338.30    494.70   1340.65    494.70  " /><path style="stroke-width: 1.42 ;&st7;   " d=" M  1340.65,   486.20  C  1338.30    486.20   1336.40    488.11   1336.40    490.45  " /><path style="stroke-width: 1.42 ;&st7;   " d=" M  1383.14,   490.45  C  1383.14    488.11   1381.24    486.20   1378.89    486.20  " /><path style="stroke-width: 1.42 ;&st7;   " d=" M  1378.89,   494.70  C  1381.24    494.70   1383.14    492.80   1383.14    490.45  " /><path style="stroke-width: 1.42 ;&st7;   " d=" M  1370.40,   490.45  C  1370.40    492.80   1372.30    494.70   1374.65    494.70  " /><path style="stroke-width: 1.42 ;&st7;   " d=" M  1374.65,   486.20  C  1372.30    486.20   1370.40    488.11   1370.40    490.45  " /><path style="stroke-width: 1.42 ;&st7;   " d=" M  1468.13,   490.45  C  1468.13    488.11   1466.23    486.20   1463.88    486.20  " /><path style="stroke-width: 1.42 ;&st7;   " d=" M  1463.88,   494.70  C  1466.23    494.70   1468.13    492.80   1468.13    490.45  " /><path style="stroke-width: 1.42 ;&st7;   " d=" M  1455.38,   490.45  C  1455.38    492.80   1457.28    494.70   1459.63    494.70  " /><path style="stroke-width: 1.42 ;&st7;   " d=" M  1459.63,   486.20  C  1457.28    486.20   1455.38    488.11   1455.38    490.45  " /><path style="stroke-width: 1.42 ;&st7;   " d=" M  1425.64,   490.45  C  1425.64    488.11   1423.73    486.20   1421.39    486.20  " /><path style="stroke-width: 1.42 ;&st7;   " d=" M  1421.39,   494.70  C  1423.73    494.70   1425.64    492.80   1425.64    490.45  " /><path style="stroke-width: 1.42 ;&st7;   " d=" M  1412.89,   490.45  C  1412.89    492.80   1414.79    494.70   1417.14    494.70  " /><path style="stroke-width: 1.42 ;&st7;   " d=" M  1417.14,   486.20  C  1414.79    486.20   1412.89    488.11   1412.89    490.45  " /><path style="stroke-width: 0.85 ;&st7;  " d=" M  1375.58,   468.20  L  1375.30,   468.67  L  1375.21,   469.21  L  1375.30,   469.74  L  1375.58,   470.21  L  1375.99,   470.56  L  1376.50,   470.74  L  1377.04,   470.74  L  1377.55,   470.56  L  1377.96,   470.21  L  1378.23,   469.74  L  1378.33,   469.21  L  1378.23,   468.67  L  1377.96,   468.20  L  1377.55,   467.86  L  1377.04,   467.67  L  1376.50,   467.67  L  1375.99,   467.86  L  1375.58,   468.20  L  1375.97,   468.92  L  1375.97,   469.50  L  1376.34,   469.94  L  1376.92,   470.04  L  1377.42,   469.75  L  1377.62,   469.21  L  1377.42,   468.66  L  1376.92,   468.37  L  1376.34,   468.47  L  1376.77,   469.21  " /><path style="stroke-width: 0.28 ;&st9;  " d=" M  1342.78,   481.31  L  1339.94,   478.48  L  1339.94,   482.73  L  1342.78,   485.56  L  1345.61,   482.73  L  1345.61,   478.48  L  1342.78,   481.31  " /><path style="stroke-width: 0.85 ;&st7;  " d=" M  1376.77,   486.20  L  1376.77,   469.21  " /><path style="stroke-width: 0.28 ;&st9;  " d=" M  1376.77,   481.31  L  1373.94,   478.48  L  1373.94,   482.73  L  1376.77,   485.56  L  1379.60,   482.73  L  1379.60,   478.48  L  1376.77,   481.31  " /><path style="stroke-width: 0.85 ;&st7;  " d=" M  1461.76,   486.20  L  1461.76,   469.21  L  1342.78,   469.21  L  1342.78,   486.20  " /><path style="stroke-width: 0.28 ;&st9;  " d=" M  1461.76,   481.31  L  1458.92,   478.48  L  1458.92,   482.73  L  1461.76,   485.56  L  1464.59,   482.73  L  1464.59,   478.48  L  1461.76,   481.31  " /><path style="stroke-width: 0.85 ;&st7;  " d=" M  1418.07,   468.20  L  1417.80,   468.67  L  1417.70,   469.21  L  1417.80,   469.74  L  1418.07,   470.21  L  1418.48,   470.56  L  1418.99,   470.74  L  1419.53,   470.74  L  1420.04,   470.56  L  1420.45,   470.21  L  1420.73,   469.74  L  1420.82,   469.21  L  1420.73,   468.67  L  1420.45,   468.20  L  1420.04,   467.86  L  1419.53,   467.67  L  1418.99,   467.67  L  1418.48,   467.86  L  1418.07,   468.20  L  1418.46,   468.92  L  1418.46,   469.50  L  1418.84,   469.94  L  1419.41,   470.04  L  1419.91,   469.75  L  1420.11,   469.21  L  1419.91,   468.66  L  1419.41,   468.37  L  1418.84,   468.47  L  1419.26,   469.21  " /><path style="stroke-width: 0.85 ;&st7;  " d=" M  1419.26,   469.21  L  1419.26,   486.20  " /><path style="stroke-width: 0.28 ;&st9;  " d=" M  1419.26,   481.31  L  1416.43,   478.48  L  1416.43,   482.73  L  1419.26,   485.56  L  1422.10,   482.73  L  1422.10,   478.48  L  1419.26,   481.31  " /><text style="font-size:6px;font-family:'NSimSun';" transform="matrix(&st16;  1329.17  492.42 )">38</text><text style="font-size:6px;font-family:'NSimSun';" transform="matrix(&st16;  1338.84  492.42 )">3D</text><text style="font-size:6px;font-family:'NSimSun';" transform="matrix(&st16;  1363.16  492.42 )">19</text><text style="font-size:6px;font-family:'NSimSun';" transform="matrix(&st16;  1372.84  492.42 )">3D</text><text style="font-size:6px;font-family:'NSimSun';" transform="matrix(&st16;  1448.15  492.42 )">20</text><text style="font-size:6px;font-family:'NSimSun';" transform="matrix(&st16;  1457.82  492.42 )">3D</text><text style="font-size:6px;font-family:'NSimSun';" transform="matrix(&st16;  1405.65  492.42 )">18</text><text style="font-size:6px;font-family:'NSimSun';" transform="matrix(&st16;  1415.41  492.42 )">3A</text></g><g ewd:figtype="w2w" ewd:figID="64" ewd:code="AE4"><path style="stroke-width: 1.42 ;&st7;  " d=" M  1245.04,   489.04  L  1240.79,   493.29  L  1236.54,   489.04  " /><path style="stroke-width: 1.42 ;&st7;  " d=" M  1236.54,   485.64  L  1240.79,   489.89  L  1245.04,   485.64  " /><text style="font-size:6px;font-family:'NSimSun';" transform="matrix(&st16;  1225.06  500.92 )">17</text></g><g ewd:code=" " ewd:figID="45" ewd:comment="20,19" ewd:figtype="annex"><path style="stroke-width: 1.42 ;&st7;  " d=" M  1461.76,   562.69  L  1456.70,   551.33  " /><path style="stroke-width: 1.42 ;&st7;  " d=" M  1376.77,   562.69  L  1381.83,   551.33  " /><path style="stroke-width: 1.42 ;&st7;  " d=" M  1495.75,   562.69  L  1490.69,   551.33  " /><path style="stroke-width: 1.42 ;&st7;  " d=" M  1419.26,   562.69  L  1414.20,   551.33  " /><path style="stroke-width: 1.42 ;&st7;  " d=" M  1376.77,   562.69  L  1371.71,   551.33  " /><path style="stroke-width: 1.42 ;&st7;  " d=" M  1419.26,   562.69  L  1424.32,   551.33  " /><path style="stroke-width: 1.42 ;&st7;  " d=" M  1495.75,   562.69  L  1500.81,   551.33  " /><path style="stroke-width: 1.42 ;&st7;  " d=" M  1461.76,   562.69  L  1466.82,   551.33  " /><text style="font-size:6px;font-family:'NSimSun';" transform="matrix(&st17;  1458.08  600.24 )" ewd:textID="24">间隙警告<tspan x="0 " dy="6.0">ECU</tspan><tspan x="0 " dy="6.0">总成</tspan></text><g ewd:code="" ewd:figID="159" ewd:comment="19" ewd:figtype="commref"><text style="font-size:6px;font-family:'NSimSun';" transform="matrix(&st17; 1366.17 610.88)" ewd:textID="57">导航接收器总成<tspan x="0 " dy="6.0">(*19)</tspan><tspan x="0 " dy="6.0" /></text></g><text style="font-size:6px;font-family:'NSimSun';" transform="matrix(&st17;  1421.23  577.98 )">ECM</text><text style="font-size:6px;font-family:'NSimSun';" transform="matrix(&st17; 1494.90 575.33)" ewd:textID="21" ewd:horAlign="right">认证<tspan x="0 " dy="6.0">ECU</tspan></text><g ewd:code="" ewd:figID="160" ewd:comment="20" ewd:figtype="commref"><text style="font-size:6px;font-family:'NSimSun';" transform="matrix(&st17; 1379.02 612.28)" ewd:textID="69">无线电收音机和<tspan x="0 " dy="6.0">显示屏接收器总成</tspan><tspan x="0 " dy="6.0">(*20)</tspan><tspan x="0" dy="6" style="font-size:6px;font-family:'NSimSun';" /></text></g></g></svg>