<?xml version="1.0" encoding="utf-8"?>
<!DOCTYPE svg PUBLIC "-//W3C//DTD SVG 1.0//EN" "http://www.w3.org/TR/2001/REC-SVG-20010904/DTD/svg10.dtd"[
	<!ENTITY ns_flows "http://ns.adobe.com/Flows/1.0/">
	<!ENTITY ns_svg "http://www.w3.org/2000/svg">
	<!ENTITY ns_xlink "http://www.w3.org/1999/xlink">
	<!ENTITY st0 "font-size:7px;font-family:'NSimSun';adobe-font-script:japanese;">
	<!ENTITY st1 "font-size:6px;font-family:'NSimSun';">
	<!-- White fill  -->
	<!ENTITY st2 "fill:#FFFFFF;stroke:#000000; stroke-width:1.41;stroke-linecap:round;stroke-linejoin:round;">
	<!-- Yellow fill  -->
	<!ENTITY st3 "fill:#FFFFCC;stroke:#FFFFCC; stroke-width:0.1;stroke-linecap:round;stroke-linejoin:round;">
	<!-- Gray fill  -->
	<!ENTITY st4 "fill:#CCCCCC;stroke:#CCCCCC; stroke-width:0.1;stroke-linecap:round;stroke-linejoin:round;">
	<!-- Light-blue fill -->
	<!ENTITY st5 "fill:#CCECF4;stroke:#000000; stroke-width:1.133;stroke-linecap:round;stroke-linejoin:round;">
	<!ENTITY st6 "fill:none;stroke-linecap:butt; stroke-linejoin:round;">
	<!ENTITY st7 "fill:none;stroke:#000000;stroke-linecap:round;stroke-linejoin:round;">
	<!ENTITY st8 "enable-background:new    ;">
	<!-- Black fill -->
	<!ENTITY st9 "fill:#000000;stroke:#000000; stroke-linecap:round;stroke-linejoin:round;">
	<!-- SRS note   -->
	<!ENTITY st10 "font-size:9px;font-family:'NSimSun';">
	<!ENTITY st11 "font-size:9px;font-family:'NSimSun';">
	<!ENTITY st12 "font-size:6px;font-family:'NSimSun';">
	<!ENTITY st13 "fill:none;stroke:#ff0000;stroke-linecap:round;stroke-linejoin:round;">
	<!-- Yellow fill  -->
	<!ENTITY st14 "fill:#FFFF00;stroke:#FFFF00; stroke-width:0.1;stroke-linecap:round;stroke-linejoin:round;">
	<!ENTITY st15 "font-size:6px;font-family:'NSimSun';adobe-font-script:japanese;">
	<!ENTITY st16 "1.00 0.00 0.00 1.00">
	<!ENTITY st17 "0.00 -1.00 1.00 0.00">
	<!ENTITY st18 "font-size:6px;font-family:'NSimSun';">
	<!ENTITY st19 "font-size:9px;font-family:'NSimSun';">
	<!ENTITY st20 "font-size:6px;font-family:'NSimSun';adobe-font-script:japanese;">
	<!ENTITY st21 "font-size:7px;font-family:'NSimSun';adobe-font-script:japanese;">
	<!ATTLIST svg
		xmlns:ewd CDATA #FIXED "http://shcl.co.jp/ewd"
		xmlns:a CDATA #FIXED "http://ns.adobe.com/AdobeSVGViewerExtensions/3.0/"
		ewd:ver CDATA #IMPLIED
	>
	<!ATTLIST a
		ewd:lineID CDATA #IMPLIED
		ewd:groupID CDATA #IMPLIED
		ewd:figtype CDATA #IMPLIED
		ewd:code CDATA #IMPLIED
		ewd:figID CDATA #IMPLIED
		ewd:pinNo CDATA #IMPLIED
		ewd:comment CDATA #IMPLIED >
	<!ATTLIST g
		ewd:lineID CDATA #IMPLIED
		ewd:groupID CDATA #IMPLIED
		ewd:figtype CDATA #IMPLIED
		ewd:code CDATA #IMPLIED
		ewd:figID CDATA #IMPLIED
		ewd:pinNo CDATA #IMPLIED
		ewd:comment CDATA #IMPLIED >
	<!ATTLIST text
		ewd:textID CDATA #IMPLIED
		ewd:horAlign CDATA #IMPLIED >
	<!ATTLIST title
		ewd:textID CDATA #IMPLIED >
]>
<!-- Generator: Shintec Hozumi YS   -->
<svg onload="call_execInitLoadProc_svg('system')" style="overflow:visible;  enable-background:new 0 0 4630.310 710.000" viewBox="0 0 4633.854 710.000" height="710.000" width="4633.854" xml:space="preserve" ewd:ver="2.1.2.6F" xmlns="&ns_svg;" xmlns:ewd="http://shcl.co.jp/ewd" xmlns:a="http://ns.adobe.com/AdobeSVGViewerExtensions/3.0/" xmlns:xlink="&ns_xlink;">
<path style="stroke-width: 1.42 ;&st7;  " d=" M  3387.41,   205.75  L  3382.43,   210.72  " /><path style="stroke-width: 1.42 ;&st7;  " d=" M  3394.46,   222.75  L  3399.43,   217.78  " /><path style="stroke-width: 1.42 ;&st7;  " d=" M  3382.43,   217.78  L  3387.41,   222.75  " /><path style="stroke-width: 1.42 ;&st7;  " d=" M  3348.44,   210.72  L  3343.47,   205.75  " /><path style="stroke-width: 1.42 ;&st7;  " d=" M  3399.43,   210.72  L  3394.46,   205.75  " /><path style="stroke-width: 1.42 ;&st7;  " d=" M  3336.42,   205.75  L  3331.44,   210.72  " /><path style="stroke-width: 1.42 ;&st7;  " d=" M  3331.44,   217.78  L  3336.42,   222.75  " /><path style="stroke-width: 1.42 ;&st7;  " d=" M  3343.47,   222.75  L  3348.44,   217.78  " /><path style="stroke-width: 1.42 ;&st7;  " d=" M  3497.89,   477.71  L  3492.92,   482.68  " /><path style="stroke-width: 1.42 ;&st7;  " d=" M  3492.92,   489.73  L  3497.89,   494.70  " /><text style="font-size:6px;font-family:'NSimSun';" transform="matrix(&st17;  3259.76  471.67 )">W</text><text style="font-size:6px;font-family:'NSimSun';" transform="matrix(&st17;  3225.76  470.9 )">B</text><text style="font-size:6px;font-family:'NSimSun';" transform="matrix(&st17;  3489.22  175.58 )">GR</text><text style="font-size:6px;font-family:'NSimSun';" transform="matrix(&st17;  3293.75  472.76 )">BR</text><text style="font-size:6px;font-family:'NSimSun';" transform="matrix(&st17;  3344.74  470.9 )">B</text><text style="font-size:6px;font-family:'NSimSun';" transform="matrix(&st16;  3082.8  601.49 )">B</text><text style="font-size:6px;font-family:'NSimSun';" transform="matrix(&st16;  3082.02  618.48 )">W</text><text style="font-size:6px;font-family:'NSimSun';" transform="matrix(&st16;  3133.79  601.49 )">B</text><text style="font-size:6px;font-family:'NSimSun';" transform="matrix(&st16;  3133.01  618.48 )">W</text><text style="font-size:6px;font-family:'NSimSun';" transform="matrix(&st17;  3149.28  130.88 )">R</text><text style="font-size:6px;font-family:'NSimSun';" transform="matrix(&st17;  3387.24  262.56 )">L</text><text style="font-size:6px;font-family:'NSimSun';" transform="matrix(&st17;  3438.23  173.45 )">B</text><text style="font-size:6px;font-family:'NSimSun';" transform="matrix(&st17;  3336.25  262.8 )">V</text><text style="font-size:6px;font-family:'NSimSun';" transform="matrix(&st17;  3285.25  173.37 )">R</text><text style="font-size:6px;font-family:'NSimSun';" transform="matrix(&st17;  3336.25  173.56 )">V</text><text style="font-size:6px;font-family:'NSimSun';" transform="matrix(&st17;  3387.24  173.33 )">L</text><text style="font-size:6px;font-family:'NSimSun';" transform="matrix(&st17;  3449.56  176.47 )">(*6)</text><text style="font-size:6px;font-family:'NSimSun';" transform="matrix(&st17;  3398.57  265.71 )">(*6)</text><text style="font-size:6px;font-family:'NSimSun';" transform="matrix(&st17;  3398.57  176.47 )">(*6)</text><text style="font-size:6px;font-family:'NSimSun';" transform="matrix(&st17;  3347.58  176.47 )">(*6)</text><text style="font-size:6px;font-family:'NSimSun';" transform="matrix(&st17;  3347.58  265.71 )">(*6)</text><text style="font-size:6px;font-family:'NSimSun';" transform="matrix(&st17;  3296.59  176.47 )">(*6)</text><text style="font-size:6px;font-family:'NSimSun';" transform="matrix(&st17;  3160.61  133.98 )">(*6)</text><path style="stroke-width: 1.42 ;&st7;  " d=" M  3144.47,   180.26  L  3152.97,   180.26  " /><text style="font-size:6px;font-family:'NSimSun';" transform="matrix(&st17;  3463.72  471.17 )">G</text><text style="font-size:6px;font-family:'NSimSun';" transform="matrix(&st17;  3412.73  470.82 )">R</text><text style="font-size:6px;font-family:'NSimSun';" transform="matrix(&st16;  3133.52  635.48 )">G</text><text style="font-size:6px;font-family:'NSimSun';" transform="matrix(&st16;  3082.52  635.48 )">G</text><text style="font-size:6px;font-family:'NSimSun';" transform="matrix(&st16;  3133.01  652.48 )">W</text><text style="font-size:6px;font-family:'NSimSun';" transform="matrix(&st16;  3082.02  652.48 )">W</text><path style="stroke-width: 1.42 ;&st7;  " d=" M  3030.47,   358.73  L  3025.49,   363.70  " /><path style="stroke-width: 1.42 ;&st7;  " d=" M  3037.52,   375.72  L  3042.49,   370.75  " /><path style="stroke-width: 1.42 ;&st7;  " d=" M  3025.49,   370.75  L  3030.47,   375.72  " /><path style="stroke-width: 1.42 ;&st7;  " d=" M  3042.49,   363.70  L  3037.52,   358.73  " /><path style="stroke-width: 1.42 ;&st7;  " d=" M  3025.49,   469.21  L  3033.99,   469.21  " /><path style="stroke-width: 1.42 ;&st7;  " d=" M  3186.97,   576.16  L  3182.00,   571.19  " /><path style="stroke-width: 1.42 ;&st7;  " d=" M  3169.97,   583.22  L  3174.94,   588.19  " /><path style="stroke-width: 1.42 ;&st7;  " d=" M  3182.00,   588.19  L  3186.97,   583.22  " /><path style="stroke-width: 1.42 ;&st7;  " d=" M  3174.94,   571.19  L  3169.97,   576.16  " /><text style="font-size:6px;font-family:'NSimSun';" transform="matrix(&st16;  3082.99  575.99 )">P</text><text style="font-size:6px;font-family:'NSimSun';" transform="matrix(&st16;  3133.98  575.99 )">P</text><text style="font-size:6px;font-family:'NSimSun';" transform="matrix(&st17;  3174.77  445.4 )">B</text><text style="font-size:6px;font-family:'NSimSun';" transform="matrix(&st17;  3174.77  547.19 )">P</text><text style="font-size:6px;font-family:'NSimSun';" transform="matrix(&st17;  3030.3  130.88 )">R</text><text style="font-size:6px;font-family:'NSimSun';" transform="matrix(&st17;  3030.3  300.81 )">L</text><text style="font-size:6px;font-family:'NSimSun';" transform="matrix(&st17;  3030.3  428.29 )">L</text><text style="font-size:6px;font-family:'NSimSun';" transform="matrix(&st17;  3030.3  547.19 )">P</text><g ewd:figtype="conn" ewd:figID="3" ewd:code="B4"><path style="stroke-width: 0.85 ;&st7;  " d=" M  3348.44,   541.44  L  3351.27,   542.86  " /><path style="stroke-width: 0.85 ;&st7;  " d=" M  3345.61,   557.03  L  3348.44,   558.44  " /><path style="stroke-width: 0.85 ;&st7;  " d=" M  3351.27,   542.86  L  3345.61,   545.69  " /><path style="stroke-width: 0.85 ;&st7;  " d=" M  3356.94,   541.44  L  3356.94,   558.44  " /><path style="stroke-width: 0.85 ;&st7;  " d=" M  3339.94,   541.44  L  3339.94,   558.44  " /><path style="stroke-width: 0.85 ;&st7;  " d=" M  3348.44,   541.44  L  3348.44,   528.70  " /><path style="stroke-width: 0.85 ;&st7;  " d=" M  3351.27,   548.53  L  3345.61,   551.36  " /><path style="stroke-width: 0.85 ;&st7;  " d=" M  3345.61,   545.69  L  3351.27,   548.53  " /><path style="stroke-width: 0.85 ;&st7;  " d=" M  3348.44,   571.19  L  3348.44,   558.44  " /><path style="stroke-width: 0.85 ;&st7;  " d=" M  3351.27,   554.19  L  3345.61,   557.03  " /><path style="stroke-width: 0.85 ;&st7;  " d=" M  3345.61,   551.36  L  3351.27,   554.19  " /><path style="stroke-width: 0.85 ;&st7;   " d=" M  3339.94,   558.44  C  3339.94    563.14   3343.75    566.94   3348.44    566.94  " /><path style="stroke-width: 0.85 ;&st7;   " d=" M  3348.44,   566.94  C  3353.13    566.94   3356.94    563.14   3356.94    558.44  " /><path style="stroke-width: 0.85 ;&st7;   " d=" M  3356.94,   541.44  C  3356.94    536.75   3353.13    532.95   3348.44    532.95  " /><path style="stroke-width: 0.85 ;&st7;   " d=" M  3348.44,   532.95  C  3343.75    532.95   3339.94    536.75   3339.94    541.44  " /><path style="stroke-width: 1.42 ;&st7;  " d=" M  3335.69,   571.19  L  3335.69,   528.70  L  3361.19,   528.70  L  3361.19,   571.19  L  3335.69,   571.19  " /><text style="font-size:6px;font-family:'NSimSun';" transform="matrix(&st16;  3342.26  579.38 )">1</text><text style="font-size:6px;font-family:'NSimSun';" transform="matrix(&st16;  3342.26  525.01 )">2</text><g ewd:figtype="title"><text style="font-size:6px;font-family:'NSimSun';" transform="matrix(&st17;  3326.05  574.1 )" ewd:textID="34">E.F.I.<tspan x="0 " dy="6.0">发动机冷却液温度传感器</tspan></text><text style="font-size:6px;font-family:'NSimSun';" transform="matrix(&st17;  3319.22  574.09 )">B4</text></g></g><g ewd:figtype="conn" ewd:figID="14" ewd:code="B16"><path style="stroke-width: 0.85 ;&st7;  " d=" M  3467.42,   528.70  L  3467.42,   537.20  " /><path style="stroke-width: 0.85 ;&st7;  " d=" M  3467.42,   554.19  L  3467.42,   562.69  " /><path style="stroke-width: 1.42 ;&st7;  " d=" M  3475.92,   554.19  L  3475.92,   545.69  " /><path style="stroke-width: 1.42 ;&st7;  " d=" M  3458.92,   554.19  L  3458.92,   545.69  " /><path style="stroke-width: 1.42 ;&st7;  " d=" M  3475.92,   537.20  L  3475.92,   545.69  " /><path style="stroke-width: 1.42 ;&st7;  " d=" M  3458.92,   537.20  L  3458.92,   545.69  " /><path style="stroke-width: 0.85 ;&st7;   " d=" M  3464.89,   543.22  C  3466.26    544.61   3468.50    544.64   3469.90    543.27  " /><path style="stroke-width: 0.85 ;&st7;   " d=" M  3469.90,   543.27  C  3471.30    541.90   3471.32    539.65   3469.95    538.26  " /><path style="stroke-width: 0.85 ;&st7;   " d=" M  3469.95,   538.26  C  3469.26    537.55   3468.41    537.19   3467.42    537.19  " /><path style="stroke-width: 0.85 ;&st7;   " d=" M  3464.89,   548.17  C  3466.26    549.57   3468.50    549.59   3469.90    548.22  " /><path style="stroke-width: 0.85 ;&st7;   " d=" M  3469.90,   548.22  C  3471.30    546.85   3471.32    544.61   3469.95    543.22  " /><path style="stroke-width: 0.85 ;&st7;   " d=" M  3469.95,   543.22  C  3468.58    541.82   3466.34    541.80   3464.94    543.16  " /><path style="stroke-width: 0.85 ;&st7;   " d=" M  3464.94,   543.16  C  3464.92    543.18   3464.91    543.20   3464.89    543.22  " /><path style="stroke-width: 0.85 ;&st7;   " d=" M  3467.42,   554.19  C  3469.38    554.19   3470.96    552.61   3470.96    550.65  " /><path style="stroke-width: 0.85 ;&st7;   " d=" M  3470.96,   550.65  C  3470.96    548.70   3469.38    547.11   3467.42    547.11  " /><path style="stroke-width: 0.85 ;&st7;   " d=" M  3467.42,   547.11  C  3466.43    547.11   3465.58    547.47   3464.89    548.17  " /><path style="stroke-width: 1.42 ;&st7;   " d=" M  3458.92,   554.19  C  3458.92    558.89   3462.73    562.69   3467.42    562.69  " /><path style="stroke-width: 1.42 ;&st7;   " d=" M  3467.42,   562.69  C  3472.11    562.69   3475.92    558.89   3475.92    554.19  " /><path style="stroke-width: 1.42 ;&st7;   " d=" M  3475.92,   537.20  C  3475.92    532.50   3472.11    528.70   3467.42    528.70  " /><path style="stroke-width: 1.42 ;&st7;   " d=" M  3467.42,   528.70  C  3462.73    528.70   3458.92    532.50   3458.92    537.20  " /><text style="font-size:6px;font-family:'NSimSun';" transform="matrix(&st16;  3461.24  570.88 )">1</text><text style="font-size:6px;font-family:'NSimSun';" transform="matrix(&st16;  3461.24  525.01 )">2</text><g ewd:figtype="title"><text style="font-size:6px;font-family:'NSimSun';" transform="matrix(&st16;  3478.17  539.14 )">B16</text><text style="font-size:6px;font-family:'NSimSun';" transform="matrix(&st16;  3478.18  546.25 )" ewd:textID="28">曲轴位置传感器<tspan x="0 " dy="6.0" /></text></g></g><g ewd:figtype="conn" ewd:figID="15" ewd:code="B15"><path style="stroke-width: 0.85 ;&st7;   " d=" M  3290.37,   103.77  C  3290.37    102.99   3289.73    102.35   3288.95    102.35  " /><path style="stroke-width: 0.85 ;&st7;   " d=" M  3288.95,   102.35  C  3288.17    102.35   3287.53    102.99   3287.53    103.77  " /><path style="stroke-width: 0.85 ;&st7;   " d=" M  3287.53,   103.77  C  3287.53    104.55   3288.17    105.18   3288.95    105.18  " /><path style="stroke-width: 0.85 ;&st7;   " d=" M  3288.95,   105.18  C  3289.73    105.18   3290.37    104.55   3290.37    103.77  " /><path style="stroke-width: 0.85 ;&st7;   " d=" M  3443.34,   103.77  C  3443.34    102.99   3442.71    102.35   3441.92    102.35  " /><path style="stroke-width: 0.85 ;&st7;   " d=" M  3441.92,   102.35  C  3441.14    102.35   3440.51    102.99   3440.51    103.77  " /><path style="stroke-width: 0.85 ;&st7;   " d=" M  3440.51,   103.77  C  3440.51    104.55   3441.14    105.18   3441.92    105.18  " /><path style="stroke-width: 0.85 ;&st7;   " d=" M  3441.92,   105.18  C  3442.71    105.18   3443.34    104.55   3443.34    103.77  " /><path style="stroke-width: 0.85 ;&st7;   " d=" M  3341.36,    69.77  C  3341.36     68.99   3340.72     68.36   3339.94     68.36  " /><path style="stroke-width: 0.85 ;&st7;   " d=" M  3339.94,    68.36  C  3339.16     68.36   3338.53     68.99   3338.53     69.77  " /><path style="stroke-width: 0.85 ;&st7;   " d=" M  3338.53,    69.77  C  3338.53     70.56   3339.16     71.19   3339.94     71.19  " /><path style="stroke-width: 0.85 ;&st7;   " d=" M  3339.94,    71.19  C  3340.72     71.19   3341.36     70.56   3341.36     69.77  " /><path style="stroke-width: 0.85 ;&st7;   " d=" M  3392.35,    86.77  C  3392.35     85.99   3391.72     85.35   3390.93     85.35  " /><path style="stroke-width: 0.85 ;&st7;   " d=" M  3390.93,    85.35  C  3390.15     85.35   3389.52     85.99   3389.52     86.77  " /><path style="stroke-width: 0.85 ;&st7;   " d=" M  3389.52,    86.77  C  3389.52     87.55   3390.15     88.19   3390.93     88.19  " /><path style="stroke-width: 0.85 ;&st7;   " d=" M  3390.93,    88.19  C  3391.72     88.19   3392.35     87.55   3392.35     86.77  " /><path style="stroke-width: 0.85 ;&st7;   " d=" M  3290.37,    86.77  C  3290.37     85.99   3289.73     85.35   3288.95     85.35  " /><path style="stroke-width: 0.85 ;&st7;   " d=" M  3288.95,    85.35  C  3288.17     85.35   3287.53     85.99   3287.53     86.77  " /><path style="stroke-width: 0.85 ;&st7;   " d=" M  3287.53,    86.77  C  3287.53     87.55   3288.17     88.19   3288.95     88.19  " /><path style="stroke-width: 0.85 ;&st7;   " d=" M  3288.95,    88.19  C  3289.73     88.19   3290.37     87.55   3290.37     86.77  " /><path style="stroke-width: 0.85 ;&st7;   " d=" M  3290.37,    69.77  C  3290.37     68.99   3289.73     68.36   3288.95     68.36  " /><path style="stroke-width: 0.85 ;&st7;   " d=" M  3288.95,    68.36  C  3288.17     68.36   3287.53     68.99   3287.53     69.77  " /><path style="stroke-width: 0.85 ;&st7;   " d=" M  3287.53,    69.77  C  3287.53     70.56   3288.17     71.19   3288.95     71.19  " /><path style="stroke-width: 0.85 ;&st7;   " d=" M  3288.95,    71.19  C  3289.73     71.19   3290.37     70.56   3290.37     69.77  " /><path style="stroke-width: 0.85 ;&st7;   " d=" M  3290.37,   120.77  C  3290.37    119.98   3289.73    119.35   3288.95    119.35  " /><path style="stroke-width: 0.85 ;&st7;   " d=" M  3288.95,   119.35  C  3288.17    119.35   3287.53    119.98   3287.53    120.77  " /><path style="stroke-width: 0.85 ;&st7;   " d=" M  3287.53,   120.77  C  3287.53    121.55   3288.17    122.18   3288.95    122.18  " /><path style="stroke-width: 0.85 ;&st7;   " d=" M  3288.95,   122.18  C  3289.73    122.18   3290.37    121.55   3290.37    120.77  " /><path style="stroke-width: 0.85 ;&st7;   " d=" M  3494.33,   120.77  C  3494.33    119.98   3493.70    119.35   3492.92    119.35  " /><path style="stroke-width: 0.85 ;&st7;   " d=" M  3492.92,   119.35  C  3492.13    119.35   3491.50    119.98   3491.50    120.77  " /><path style="stroke-width: 0.85 ;&st7;   " d=" M  3491.50,   120.77  C  3491.50    121.55   3492.13    122.18   3492.92    122.18  " /><path style="stroke-width: 0.85 ;&st7;   " d=" M  3492.92,   122.18  C  3493.70    122.18   3494.33    121.55   3494.33    120.77  " /><path style="stroke-width: 1.42 ;&st7;  " d=" M  3229.46,    44.28  L  3518.41,    44.28  L  3518.41,   129.26  L  3229.46,   129.26  L  3229.46,    44.28  " /><path style="stroke-width: 0.85 ;&st7;  " d=" M  3229.46,    78.27  L  3518.41,    78.27  " /><path style="stroke-width: 0.85 ;&st7;  " d=" M  3263.45,    44.28  L  3263.45,   129.26  " /><path style="stroke-width: 0.85 ;&st7;  " d=" M  3314.44,    44.28  L  3314.44,   129.26  " /><path style="stroke-width: 0.85 ;&st7;  " d=" M  3338.52,    69.77  L  3290.37,    69.77  " /><path style="stroke-width: 0.85 ;&st7;  " d=" M  3290.37,    86.77  L  3389.52,    86.77  " /><path style="stroke-width: 0.85 ;&st7;  " d=" M  3229.46,    61.28  L  3518.41,    61.28  " /><path style="stroke-width: 0.85 ;&st7;  " d=" M  3229.46,    95.27  L  3518.41,    95.27  " /><path style="stroke-width: 0.85 ;&st7;  " d=" M  3365.44,    44.28  L  3365.44,   129.26  " /><path style="stroke-width: 0.85 ;&st7;  " d=" M  3290.37,   103.77  L  3440.51,   103.77  " /><path style="stroke-width: 0.85 ;&st7;  " d=" M  3229.46,   112.27  L  3518.41,   112.27  " /><path style="stroke-width: 0.85 ;&st7;  " d=" M  3290.37,   120.77  L  3491.50,   120.77  " /><path style="stroke-width: 0.85 ;&st7;  " d=" M  3416.43,    44.28  L  3416.43,   129.26  " /><path style="stroke-width: 0.85 ;&st7;  " d=" M  3467.42,    44.28  L  3467.42,   129.26  " /><text style="font-size:6px;font-family:'NSimSun';" transform="matrix(&st16;  3488.71  54.74 )">DL</text><text style="font-size:6px;font-family:'NSimSun';" transform="matrix(&st16;  3437.8  54.74 )">NL</text><text style="font-size:6px;font-family:'NSimSun';" transform="matrix(&st16;  3387.0  54.74 )">RL</text><text style="font-size:6px;font-family:'NSimSun';" transform="matrix(&st16;  3244.08  122.73 )">D</text><text style="font-size:6px;font-family:'NSimSun';" transform="matrix(&st16;  3244.15  105.74 )">N</text><text style="font-size:6px;font-family:'NSimSun';" transform="matrix(&st16;  3336.12  54.74 )">PL</text><text style="font-size:6px;font-family:'NSimSun';" transform="matrix(&st16;  3284.9  54.74 )">RB</text><text style="font-size:6px;font-family:'NSimSun';" transform="matrix(&st16;  3244.46  71.74 )">P</text><text style="font-size:6px;font-family:'NSimSun';" transform="matrix(&st16;  3244.35  88.74 )">R</text><text style="font-size:6px;font-family:'NSimSun';" transform="matrix(&st16;  3282.77  137.46 )">1</text><text style="font-size:6px;font-family:'NSimSun';" transform="matrix(&st16;  3333.76  137.46 )">3</text><text style="font-size:6px;font-family:'NSimSun';" transform="matrix(&st16;  3384.75  137.46 )">2</text><text style="font-size:6px;font-family:'NSimSun';" transform="matrix(&st16;  3435.74  137.46 )">8</text><text style="font-size:6px;font-family:'NSimSun';" transform="matrix(&st16;  3486.73  137.46 )">7</text><g ewd:figtype="title"><text style="font-size:6px;font-family:'NSimSun';" transform="matrix(&st16;  3268.55  40.58 )" ewd:textID="65">驻车/空档位置开关总成</text><text style="font-size:6px;font-family:'NSimSun';" transform="matrix(&st16;  3268.54  33.47 )">B15</text></g></g><g ewd:figtype="conn" ewd:figID="30" ewd:code="B11"><path style="stroke-width: 0.85 ;&st7;  " d=" M  3178.47,   494.70  L  3178.47,   494.70  " /><path style="stroke-width: 0.85 ;&st7;  " d=" M  3178.47,   511.70  L  3178.47,   520.20  " /><path style="stroke-width: 0.85 ;&st7;  " d=" M  3178.47,   486.20  L  3178.47,   494.70  " /><path style="stroke-width: 0.85 ;&st7;   " d=" M  3175.94,   500.72  C  3177.31    502.12   3179.55    502.14   3180.95    500.77  " /><path style="stroke-width: 0.85 ;&st7;   " d=" M  3180.95,   500.77  C  3182.34    499.40   3182.37    497.16   3181.00    495.76  " /><path style="stroke-width: 0.85 ;&st7;   " d=" M  3181.00,   495.76  C  3180.31    495.06   3179.46    494.70   3178.47    494.70  " /><path style="stroke-width: 0.85 ;&st7;   " d=" M  3175.94,   505.68  C  3177.31    507.08   3179.55    507.10   3180.95    505.73  " /><path style="stroke-width: 0.85 ;&st7;   " d=" M  3180.95,   505.73  C  3182.34    504.36   3182.37    502.12   3181.00    500.72  " /><path style="stroke-width: 0.85 ;&st7;   " d=" M  3181.00,   500.72  C  3179.63    499.33   3177.39    499.30   3175.99    500.67  " /><path style="stroke-width: 0.85 ;&st7;   " d=" M  3175.99,   500.67  C  3175.97    500.69   3175.96    500.70   3175.94    500.72  " /><path style="stroke-width: 0.85 ;&st7;   " d=" M  3178.47,   511.70  C  3180.42    511.70   3182.01    510.11   3182.01    508.16  " /><path style="stroke-width: 0.85 ;&st7;   " d=" M  3182.01,   508.16  C  3182.01    506.20   3180.42    504.62   3178.47    504.62  " /><path style="stroke-width: 0.85 ;&st7;   " d=" M  3178.47,   504.62  C  3177.48    504.62   3176.63    504.97   3175.94    505.68  " /><path style="stroke-width: 1.42 ;&st7;  " d=" M  3186.97,   520.20  L  3186.97,   486.20  L  3169.97,   486.20  L  3169.97,   520.20  L  3186.97,   520.20  " /><text style="font-size:6px;font-family:'NSimSun';" transform="matrix(&st16;  3172.28  528.39 )">1</text><text style="font-size:6px;font-family:'NSimSun';" transform="matrix(&st16;  3172.28  482.51 )">2</text><g ewd:figtype="title"><text style="font-size:6px;font-family:'NSimSun';" transform="matrix(&st17;  3194.58  523.1 )">B11</text><text style="font-size:6px;font-family:'NSimSun';" transform="matrix(&st17;  3201.69  523.1 )" ewd:textID="43">1 号喷油器总成<tspan x="0 " dy="6.0" /></text></g></g><g ewd:figtype="rb" ewd:figID="31" ewd:code="1"><path style="stroke-width: 1.42 ;&st7;  " d=" M  3036.12,   256.74  L  3031.87,   256.74  " /><path style="stroke-width: 1.42 ;&st7;  " d=" M  3036.12,   265.24  L  3031.87,   265.24  " /><path style="stroke-width: 1.42 ;&st7;   " d=" M  3008.50,   171.76  C  3010.71    173.58   3013.84    173.52   3015.98    171.62  " /><path style="stroke-width: 1.42 ;&st7;  " d=" M  3036.12,   163.26  L  3031.87,   163.26  " /><path style="stroke-width: 1.42 ;&st7;  " d=" M  3036.12,   171.76  L  3031.87,   171.76  " /><path style="stroke-width: 1.42 ;&st7;   " d=" M  3031.87,   163.26  C  3029.52    163.26   3027.62    165.16   3027.62    167.51  " /><path style="stroke-width: 1.42 ;&st7;   " d=" M  3027.62,   260.99  C  3027.62    263.34   3029.52    265.24   3031.87    265.24  " /><path style="stroke-width: 1.42 ;&st7;   " d=" M  3031.87,   256.74  C  3029.52    256.74   3027.62    258.64   3027.62    260.99  " /><path style="stroke-width: 1.42 ;&st7;   " d=" M  3040.37,   260.99  C  3040.37    258.64   3038.46    256.74   3036.12    256.74  " /><path style="stroke-width: 1.42 ;&st7;   " d=" M  3036.12,   265.24  C  3038.46    265.24   3040.37    263.34   3040.37    260.99  " /><path style="stroke-width: 1.42 ;&st7;   " d=" M  3008.50,   171.76  C  3006.29    169.93   3003.15    169.99   3001.01    171.90  " /><path style="stroke-width: 1.42 ;&st7;   " d=" M  3036.12,   171.76  C  3038.46    171.76   3040.37    169.85   3040.37    167.51  " /><path style="stroke-width: 1.42 ;&st7;   " d=" M  3027.62,   167.51  C  3027.62    169.85   3029.52    171.76   3031.87    171.76  " /><path style="stroke-width: 1.42 ;&st7;   " d=" M  3040.37,   167.51  C  3040.37    165.16   3038.46    163.26   3036.12    163.26  " /><path style="stroke-width: 1.42 ;&st7;   " d=" M  3008.50,   256.74  C  3010.71    258.56   3013.84    258.51   3015.98    256.60  " /><path style="stroke-width: 0.28 ;&st9;  " d=" M  3033.99,   176.65  L  3036.82,   179.48  L  3036.82,   175.24  L  3033.99,   172.40  L  3031.16,   175.24  L  3031.16,   179.48  L  3033.99,   176.65  " /><path style="stroke-width: 0.85 ;&st7;  " d=" M  3033.99,   171.76  L  3033.99,   197.25  " /><path style="stroke-width: 0.85 ;&st7;  " d=" M  3033.99,   231.25  L  3033.99,   256.74  " /><path style="stroke-width: 0.28 ;&st9;  " d=" M  3033.99,   251.85  L  3031.16,   249.01  L  3031.16,   253.26  L  3033.99,   256.10  L  3036.82,   253.26  L  3036.82,   249.01  L  3033.99,   251.85  " /><path style="stroke-width: 0.85 ;&st7;  " d=" M  3008.50,   197.25  L  3008.50,   171.76  " /><path style="stroke-width: 0.85 ;&st7;  " d=" M  3008.50,   231.25  L  3008.50,   256.74  " /><path style="stroke-width: 1.42 ;&st7;   " d=" M  3008.50,   256.74  C  3006.29    254.92   3003.15    254.98   3001.01    256.88  " /><text style="font-size:6px;font-family:'NSimSun';" transform="matrix(&st16;  3032.19  169.48 )">1</text><text style="font-size:6px;font-family:'NSimSun';" transform="matrix(&st16;  3027.81  239.44 )">5</text><text style="font-size:6px;font-family:'NSimSun';" transform="matrix(&st16;  3002.31  239.44 )">1</text><text style="font-size:6px;font-family:'NSimSun';" transform="matrix(&st16;  3027.81  193.56 )">3</text><text style="font-size:6px;font-family:'NSimSun';" transform="matrix(&st16;  3032.19  262.96 )">1</text><text style="font-size:6px;font-family:'NSimSun';" transform="matrix(&st16;  3002.31  193.56 )">2</text><text style="font-size:6px;font-family:'NSimSun';" transform="matrix(&st16;  3044.75  213.39 )" ewd:textID="50">IG2<tspan x="0 " dy="6.0">继电器</tspan></text><path style="stroke-width: 0.85 ;&st7;  " d=" M  3008.50,   222.75  L  3008.50,   231.25  " /><path style="stroke-width: 0.85 ;&st7;  " d=" M  3008.50,   197.25  L  3008.50,   205.75  " /><path style="stroke-width: 0.85 ;&st7;  " d=" M  3033.99,   201.50  L  3033.99,   197.25  " /><path style="stroke-width: 0.85 ;&st7;  " d=" M  3033.99,   231.25  L  3033.99,   227.00  " /><path style="stroke-width: 1.42 ;&st7;  " d=" M  3033.99,   204.33  L  3039.66,   227.00  " /><path style="stroke-width: 0.85 ;&st7;   " d=" M  3008.50,   222.75  C  3010.45    222.75   3012.04    221.16   3012.04    219.21  " /><path style="stroke-width: 0.85 ;&st7;   " d=" M  3012.04,   219.21  C  3012.04    217.25   3010.45    215.67   3008.50    215.67  " /><path style="stroke-width: 0.85 ;&st7;   " d=" M  3008.50,   215.67  C  3007.51    215.67   3006.66    216.02   3005.97    216.73  " /><path style="stroke-width: 0.85 ;&st7;   " d=" M  3005.97,   216.73  C  3007.34    218.13   3009.58    218.15   3010.98    216.78  " /><path style="stroke-width: 0.85 ;&st7;   " d=" M  3010.98,   216.78  C  3012.37    215.41   3012.40    213.17   3011.03    211.77  " /><path style="stroke-width: 0.85 ;&st7;   " d=" M  3011.03,   211.77  C  3009.66    210.37   3007.42    210.35   3006.02    211.72  " /><path style="stroke-width: 0.85 ;&st7;   " d=" M  3006.02,   211.72  C  3006.00    211.74   3005.99    211.75   3005.97    211.77  " /><path style="stroke-width: 0.85 ;&st7;   " d=" M  3005.97,   211.77  C  3007.34    213.17   3009.58    213.19   3010.98    211.82  " /><path style="stroke-width: 0.85 ;&st7;   " d=" M  3010.98,   211.82  C  3012.37    210.45   3012.40    208.21   3011.03    206.81  " /><path style="stroke-width: 0.85 ;&st7;   " d=" M  3011.03,   206.81  C  3010.33    206.11   3009.49    205.75   3008.50    205.75  " /><path style="stroke-width: 0.85 ;&st7;   " d=" M  3035.41,   202.92  C  3035.41    202.14   3034.78    201.50   3033.99    201.50  " /><path style="stroke-width: 0.85 ;&st7;   " d=" M  3033.99,   201.50  C  3033.21    201.50   3032.58    202.14   3032.58    202.92  " /><path style="stroke-width: 0.85 ;&st7;   " d=" M  3032.58,   202.92  C  3032.58    203.70   3033.21    204.33   3033.99    204.33  " /><path style="stroke-width: 0.85 ;&st7;   " d=" M  3033.99,   204.33  C  3034.78    204.33   3035.41    203.70   3035.41    202.92  " /><path style="stroke-width: 0.85 ;&st7;   " d=" M  3035.41,   225.58  C  3035.41    224.80   3034.78    224.16   3033.99    224.16  " /><path style="stroke-width: 0.85 ;&st7;   " d=" M  3033.99,   224.16  C  3033.21    224.16   3032.58    224.80   3032.58    225.58  " /><path style="stroke-width: 0.85 ;&st7;   " d=" M  3032.58,   225.58  C  3032.58    226.36   3033.21    227.00   3033.99    227.00  " /><path style="stroke-width: 0.85 ;&st7;   " d=" M  3033.99,   227.00  C  3034.78    227.00   3035.41    226.36   3035.41    225.58  " /><path style="stroke-width: 1.42 ;&st7;  " d=" M  3042.49,   197.25  L  3000.00,   197.25  L  3000.00,   231.25  L  3042.49,   231.25  L  3042.49,   197.25  " /></g><g ewd:figtype="rb" ewd:figID="32" ewd:code="FUSE19"><path style="stroke-width: 1.42 ;&st7;  " d=" M  3036.12,   103.77  L  3031.87,   103.77  " /><path style="stroke-width: 1.42 ;&st7;  " d=" M  3036.12,    95.27  L  3031.87,    95.27  " /><path style="stroke-width: 1.42 ;&st7;   " d=" M  3036.12,   103.77  C  3038.46    103.77   3040.37    101.87   3040.37     99.52  " /><path style="stroke-width: 1.42 ;&st7;   " d=" M  3027.62,    99.52  C  3027.62    101.87   3029.52    103.77   3031.87    103.77  " /><path style="stroke-width: 1.42 ;&st7;   " d=" M  3031.87,    95.27  C  3029.52     95.27   3027.62     97.17   3027.62     99.52  " /><path style="stroke-width: 1.42 ;&st7;   " d=" M  3040.37,    99.52  C  3040.37     97.17   3038.46     95.27   3036.12     95.27  " /><path style="stroke-width: 0.85 ;&st7;  " d=" M  3033.99,    78.27  L  3033.99,    95.27  " /><path style="stroke-width: 0.28 ;&st9;  " d=" M  3033.99,    90.37  L  3031.16,    87.54  L  3031.16,    91.79  L  3033.99,    94.62  L  3036.82,    91.79  L  3036.82,    87.54  L  3033.99,    90.37  " /><text style="font-size:6px;font-family:'NSimSun';" transform="matrix(&st16;  3025.95  32.08 )">(BAT)</text><text style="font-size:6px;font-family:'NSimSun';" transform="matrix(&st16;  3027.81  86.47 )">2</text><text style="font-size:6px;font-family:'NSimSun';" transform="matrix(&st16;  3050.42  56.17 )">15A <tspan x="0 " dy="6.0">IG2</tspan></text><text style="font-size:6px;font-family:'NSimSun';" transform="matrix(&st16;  3032.19  101.49 )">1</text><path style="stroke-width: 0.85 ;&st7;  " d=" M  3033.99,    69.77  L  3033.99,    78.27  " /><path style="stroke-width: 1.42 ;&st7;   " d=" M  3033.99,    47.11  C  3031.26     48.72   3030.34     52.25   3031.96     54.99  " /><path style="stroke-width: 1.42 ;&st7;   " d=" M  3031.96,    54.99  C  3032.48     55.87   3033.11     56.51   3033.99     57.03  " /><path style="stroke-width: 1.42 ;&st7;   " d=" M  3033.99,    66.94  C  3036.73     65.33   3037.64     61.80   3036.03     59.06  " /><path style="stroke-width: 1.42 ;&st7;   " d=" M  3036.03,    59.06  C  3035.51     58.18   3034.88     57.55   3033.99     57.03  " /><path style="stroke-width: 0.85 ;&st7;   " d=" M  3035.41,    45.69  C  3035.41     44.91   3034.78     44.28   3033.99     44.28  " /><path style="stroke-width: 0.85 ;&st7;   " d=" M  3033.99,    44.28  C  3033.21     44.28   3032.58     44.91   3032.58     45.69  " /><path style="stroke-width: 0.85 ;&st7;   " d=" M  3032.58,    45.69  C  3032.58     46.48   3033.21     47.11   3033.99     47.11  " /><path style="stroke-width: 0.85 ;&st7;   " d=" M  3033.99,    47.11  C  3034.78     47.11   3035.41     46.48   3035.41     45.69  " /><path style="stroke-width: 0.85 ;&st7;   " d=" M  3035.41,    68.36  C  3035.41     67.57   3034.78     66.94   3033.99     66.94  " /><path style="stroke-width: 0.85 ;&st7;   " d=" M  3033.99,    66.94  C  3033.21     66.94   3032.58     67.57   3032.58     68.36  " /><path style="stroke-width: 0.85 ;&st7;   " d=" M  3032.58,    68.36  C  3032.58     69.14   3033.21     69.77   3033.99     69.77  " /><path style="stroke-width: 0.85 ;&st7;   " d=" M  3033.99,    69.77  C  3034.78     69.77   3035.41     69.14   3035.41     68.36  " /><path style="stroke-width: 1.42 ;&st7;  " d=" M  3021.24,    35.78  L  3021.24,    78.27  L  3046.74,    78.27  L  3046.74,    35.78  L  3021.24,    35.78  " /></g><g ewd:figtype="conn" ewd:figID="33" ewd:code="A40,B39"><path style="stroke-width: 1.42 ;&st7;  " d=" M  3161.47,   358.73  L  3161.47,   409.72  L  3509.91,   409.72  L  3509.91,   358.73  L  3161.47,   358.73  " /><g ewd:lineID="57"><text style="font-size:6px;font-family:'NSimSun';" transform="matrix(&st16;  3251.66  416.22 )">26</text><path style="stroke-width: 1.42 ;&st7;   " d=" M  3267.99,   414.25  C  3267.99    411.75   3265.96    409.72   3263.45    409.72  " /><path style="stroke-width: 1.42 ;&st7;   " d=" M  3263.45,   409.72  C  3260.95    409.72   3258.92    411.75   3258.92    414.25  " /><path style="stroke-width: 1.42 ;&st7;   " d=" M  3258.92,   414.25  C  3258.92    416.75   3260.95    418.78   3263.45    418.78  " /><path style="stroke-width: 1.42 ;&st7;   " d=" M  3263.45,   418.78  C  3265.96    418.78   3267.99    416.75   3267.99    414.25  " /><text style="font-size:6px;font-family:'NSimSun';" transform="matrix(&st16;  3261.15  416.22 )">A</text><text style="font-size:6px;font-family:'NSimSun';" transform="matrix(&st16;  3255.1  406.02 )">CANL</text></g><g ewd:lineID="60"><text style="font-size:6px;font-family:'NSimSun';" transform="matrix(&st16;  3217.66  416.22 )">13</text><text style="font-size:6px;font-family:'NSimSun';" transform="matrix(&st16;  3227.16  416.22 )">A</text><path style="stroke-width: 1.42 ;&st7;   " d=" M  3233.99,   414.25  C  3233.99    411.75   3231.96    409.72   3229.46    409.72  " /><path style="stroke-width: 1.42 ;&st7;   " d=" M  3229.46,   409.72  C  3226.96    409.72   3224.93    411.75   3224.93    414.25  " /><path style="stroke-width: 1.42 ;&st7;   " d=" M  3224.93,   414.25  C  3224.93    416.75   3226.96    418.78   3229.46    418.78  " /><path style="stroke-width: 1.42 ;&st7;   " d=" M  3229.46,   418.78  C  3231.96    418.78   3233.99    416.75   3233.99    414.25  " /><text style="font-size:6px;font-family:'NSimSun';" transform="matrix(&st16;  3220.68  406.02 )">CANH</text></g><g ewd:lineID="69"><text style="font-size:6px;font-family:'NSimSun';" transform="matrix(&st16;  3166.7  416.22 )">98</text><text style="font-size:6px;font-family:'NSimSun';" transform="matrix(&st16;  3176.28  416.22 )">B</text><path style="stroke-width: 1.42 ;&st7;   " d=" M  3183.00,   414.25  C  3183.00    411.75   3180.97    409.72   3178.47    409.72  " /><path style="stroke-width: 1.42 ;&st7;   " d=" M  3178.47,   409.72  C  3175.97    409.72   3173.94    411.75   3173.94    414.25  " /><path style="stroke-width: 1.42 ;&st7;   " d=" M  3173.94,   414.25  C  3173.94    416.75   3175.97    418.78   3178.47    418.78  " /><path style="stroke-width: 1.42 ;&st7;   " d=" M  3178.47,   418.78  C  3180.97    418.78   3183.00    416.75   3183.00    414.25  " /><text style="font-size:6px;font-family:'NSimSun';" transform="matrix(&st16;  3173.57  406.02 )">#10</text></g><g ewd:lineID="71"><text style="font-size:6px;font-family:'NSimSun';" transform="matrix(&st16;  3328.17  356.16 )">70</text><path style="stroke-width: 1.42 ;&st7;   " d=" M  3344.47,   354.19  C  3344.47    351.69   3342.45    349.66   3339.94    349.66  " /><path style="stroke-width: 1.42 ;&st7;   " d=" M  3339.94,   349.66  C  3337.44    349.66   3335.41    351.69   3335.41    354.19  " /><path style="stroke-width: 1.42 ;&st7;   " d=" M  3335.41,   354.19  C  3335.41    356.70   3337.44    358.73   3339.94    358.73  " /><path style="stroke-width: 1.42 ;&st7;   " d=" M  3339.94,   358.73  C  3342.45    358.73   3344.47    356.70   3344.47    354.19  " /><text style="font-size:6px;font-family:'NSimSun';" transform="matrix(&st16;  3337.75  356.16 )">B</text><text style="font-size:6px;font-family:'NSimSun';" transform="matrix(&st16;  3337.95  366.36 )">P</text></g><g ewd:lineID="73"><text style="font-size:6px;font-family:'NSimSun';" transform="matrix(&st16;  3282.55  416.22 )">119</text><path style="stroke-width: 1.42 ;&st7;   " d=" M  3301.98,   414.25  C  3301.98    411.75   3299.95    409.72   3297.45    409.72  " /><path style="stroke-width: 1.42 ;&st7;   " d=" M  3297.45,   409.72  C  3294.95    409.72   3292.92    411.75   3292.92    414.25  " /><path style="stroke-width: 1.42 ;&st7;   " d=" M  3292.92,   414.25  C  3292.92    416.75   3294.95    418.78   3297.45    418.78  " /><path style="stroke-width: 1.42 ;&st7;   " d=" M  3297.45,   418.78  C  3299.95    418.78   3301.98    416.75   3301.98    414.25  " /><text style="font-size:6px;font-family:'NSimSun';" transform="matrix(&st16;  3295.26  416.22 )">B</text><text style="font-size:6px;font-family:'NSimSun';" transform="matrix(&st16;  3288.44  406.02 )">ETHW</text></g><g ewd:lineID="74"><text style="font-size:6px;font-family:'NSimSun';" transform="matrix(&st16;  3333.54  416.22 )">120</text><text style="font-size:6px;font-family:'NSimSun';" transform="matrix(&st16;  3346.25  416.22 )">B</text><path style="stroke-width: 1.42 ;&st7;   " d=" M  3352.97,   414.25  C  3352.97    411.75   3350.94    409.72   3348.44    409.72  " /><path style="stroke-width: 1.42 ;&st7;   " d=" M  3348.44,   409.72  C  3345.94    409.72   3343.91    411.75   3343.91    414.25  " /><path style="stroke-width: 1.42 ;&st7;   " d=" M  3343.91,   414.25  C  3343.91    416.75   3345.94    418.78   3348.44    418.78  " /><path style="stroke-width: 1.42 ;&st7;   " d=" M  3348.44,   418.78  C  3350.94    418.78   3352.97    416.75   3352.97    414.25  " /><text style="font-size:6px;font-family:'NSimSun';" transform="matrix(&st16;  3341.29  406.02 )">THW</text></g><g ewd:lineID="75"><text style="font-size:6px;font-family:'NSimSun';" transform="matrix(&st16;  3379.17  356.16 )">64</text><text style="font-size:6px;font-family:'NSimSun';" transform="matrix(&st16;  3388.75  356.16 )">B</text><path style="stroke-width: 1.42 ;&st7;   " d=" M  3395.47,   354.19  C  3395.47    351.69   3393.44    349.66   3390.93    349.66  " /><path style="stroke-width: 1.42 ;&st7;   " d=" M  3390.93,   349.66  C  3388.43    349.66   3386.40    351.69   3386.40    354.19  " /><path style="stroke-width: 1.42 ;&st7;   " d=" M  3386.40,   354.19  C  3386.40    356.70   3388.43    358.73   3390.93    358.73  " /><path style="stroke-width: 1.42 ;&st7;   " d=" M  3390.93,   358.73  C  3393.44    358.73   3395.47    356.70   3395.47    354.19  " /><text style="font-size:6px;font-family:'NSimSun';" transform="matrix(&st16;  3388.82  366.36 )">R</text></g><g ewd:lineID="77"><text style="font-size:6px;font-family:'NSimSun';" transform="matrix(&st16;  3401.56  416.22 )">114</text><path style="stroke-width: 1.42 ;&st7;   " d=" M  3420.96,   414.25  C  3420.96    411.75   3418.93    409.72   3416.43    409.72  " /><path style="stroke-width: 1.42 ;&st7;   " d=" M  3416.43,   409.72  C  3413.93    409.72   3411.90    411.75   3411.90    414.25  " /><path style="stroke-width: 1.42 ;&st7;   " d=" M  3411.90,   414.25  C  3411.90    416.75   3413.93    418.78   3416.43    418.78  " /><path style="stroke-width: 1.42 ;&st7;   " d=" M  3416.43,   418.78  C  3418.93    418.78   3420.96    416.75   3420.96    414.25  " /><text style="font-size:6px;font-family:'NSimSun';" transform="matrix(&st16;  3414.24  416.22 )">B</text><text style="font-size:6px;font-family:'NSimSun';" transform="matrix(&st16;  3410.71  406.02 )">NE+</text></g><g ewd:lineID="78"><text style="font-size:6px;font-family:'NSimSun';" transform="matrix(&st16;  3430.16  356.16 )">69</text><text style="font-size:6px;font-family:'NSimSun';" transform="matrix(&st16;  3439.74  356.16 )">B</text><path style="stroke-width: 1.42 ;&st7;   " d=" M  3446.46,   354.19  C  3446.46    351.69   3444.43    349.66   3441.92    349.66  " /><path style="stroke-width: 1.42 ;&st7;   " d=" M  3441.92,   349.66  C  3439.42    349.66   3437.39    351.69   3437.39    354.19  " /><path style="stroke-width: 1.42 ;&st7;   " d=" M  3437.39,   354.19  C  3437.39    356.70   3439.42    358.73   3441.92    358.73  " /><path style="stroke-width: 1.42 ;&st7;   " d=" M  3441.92,   358.73  C  3444.43    358.73   3446.46    356.70   3446.46    354.19  " /><text style="font-size:6px;font-family:'NSimSun';" transform="matrix(&st16;  3439.62  366.36 )">N</text></g><g ewd:lineID="79"><text style="font-size:6px;font-family:'NSimSun';" transform="matrix(&st16;  3452.55  416.22 )">113</text><path style="stroke-width: 1.42 ;&st7;   " d=" M  3471.95,   414.25  C  3471.95    411.75   3469.92    409.72   3467.42    409.72  " /><path style="stroke-width: 1.42 ;&st7;   " d=" M  3467.42,   409.72  C  3464.92    409.72   3462.89    411.75   3462.89    414.25  " /><path style="stroke-width: 1.42 ;&st7;   " d=" M  3462.89,   414.25  C  3462.89    416.75   3464.92    418.78   3467.42    418.78  " /><path style="stroke-width: 1.42 ;&st7;   " d=" M  3467.42,   418.78  C  3469.92    418.78   3471.95    416.75   3471.95    414.25  " /><text style="font-size:6px;font-family:'NSimSun';" transform="matrix(&st16;  3465.23  416.22 )">B</text><text style="font-size:6px;font-family:'NSimSun';" transform="matrix(&st16;  3461.7  406.02 )">NE-</text></g><g ewd:lineID="80,83"><text style="font-size:6px;font-family:'NSimSun';" transform="matrix(&st16;  3481.15  356.16 )">65</text><path style="stroke-width: 1.42 ;&st7;   " d=" M  3497.45,   354.19  C  3497.45    351.69   3495.42    349.66   3492.92    349.66  " /><path style="stroke-width: 1.42 ;&st7;   " d=" M  3492.92,   349.66  C  3490.41    349.66   3488.38    351.69   3488.38    354.19  " /><path style="stroke-width: 1.42 ;&st7;   " d=" M  3488.38,   354.19  C  3488.38    356.70   3490.41    358.73   3492.92    358.73  " /><path style="stroke-width: 1.42 ;&st7;   " d=" M  3492.92,   358.73  C  3495.42    358.73   3497.45    356.70   3497.45    354.19  " /><text style="font-size:6px;font-family:'NSimSun';" transform="matrix(&st16;  3490.73  356.16 )">B</text><text style="font-size:6px;font-family:'NSimSun';" transform="matrix(&st16;  3490.53  366.36 )">D</text></g><g ewd:figtype="title"><text style="font-size:6px;font-family:'NSimSun';" transform="matrix(&st16;  3175.06  355.03 )">ECM</text><text style="font-size:6px;font-family:'NSimSun';" transform="matrix(&st16;  3175.06  347.92 )">A40(A),B39(B)</text></g></g><g ewd:figtype="jb" ewd:figID="61" ewd:code="3"><path style="stroke-width: 1.42 ;&st7;  " d=" M  3155.10,   103.77  L  3150.85,   103.77  " /><path style="stroke-width: 0.85 ;&st7;  " d=" M  3152.97,    69.77  L  3152.97,    95.27  " /><path style="stroke-width: 1.42 ;&st7;  " d=" M  3155.10,    95.27  L  3150.85,    95.27  " /><path style="stroke-width: 1.42 ;&st7;   " d=" M  3152.97,    47.11  C  3150.24     48.72   3149.32     52.25   3150.94     54.99  " /><path style="stroke-width: 1.42 ;&st7;   " d=" M  3150.94,    54.99  C  3151.46     55.87   3152.09     56.51   3152.97     57.03  " /><path style="stroke-width: 0.85 ;&st7;   " d=" M  3154.39,    45.69  C  3154.39     44.91   3153.76     44.28   3152.97     44.28  " /><path style="stroke-width: 0.85 ;&st7;   " d=" M  3152.97,    44.28  C  3152.19     44.28   3151.56     44.91   3151.56     45.69  " /><path style="stroke-width: 0.85 ;&st7;   " d=" M  3151.56,    45.69  C  3151.56     46.48   3152.19     47.11   3152.97     47.11  " /><path style="stroke-width: 0.85 ;&st7;   " d=" M  3152.97,    47.11  C  3153.76     47.11   3154.39     46.48   3154.39     45.69  " /><path style="stroke-width: 0.85 ;&st7;   " d=" M  3154.39,    68.36  C  3154.39     67.57   3153.76     66.94   3152.97     66.94  " /><path style="stroke-width: 0.85 ;&st7;   " d=" M  3152.97,    66.94  C  3152.19     66.94   3151.56     67.57   3151.56     68.36  " /><path style="stroke-width: 0.85 ;&st7;   " d=" M  3151.56,    68.36  C  3151.56     69.14   3152.19     69.77   3152.97     69.77  " /><path style="stroke-width: 0.85 ;&st7;   " d=" M  3152.97,    69.77  C  3153.76     69.77   3154.39     69.14   3154.39     68.36  " /><path style="stroke-width: 1.42 ;&st7;   " d=" M  3152.97,    66.94  C  3155.71     65.33   3156.62     61.80   3155.01     59.06  " /><path style="stroke-width: 1.42 ;&st7;   " d=" M  3155.01,    59.06  C  3154.49     58.18   3153.86     57.55   3152.97     57.03  " /><path style="stroke-width: 1.42 ;&st7;   " d=" M  3150.85,    95.27  C  3148.50     95.27   3146.60     97.17   3146.60     99.52  " /><path style="stroke-width: 1.42 ;&st7;   " d=" M  3146.60,    99.52  C  3146.60    101.87   3148.50    103.77   3150.85    103.77  " /><path style="stroke-width: 1.42 ;&st7;   " d=" M  3155.10,   103.77  C  3157.44    103.77   3159.35    101.87   3159.35     99.52  " /><path style="stroke-width: 1.42 ;&st7;   " d=" M  3159.35,    99.52  C  3159.35     97.17   3157.44     95.27   3155.10     95.27  " /><path style="stroke-width: 0.28 ;&st9;  " d=" M  3152.97,    90.37  L  3150.14,    87.54  L  3150.14,    91.79  L  3152.97,    94.62  L  3155.80,    91.79  L  3155.80,    87.54  L  3152.97,    90.37  " /><path style="stroke-width: 1.42 ;&st7;  " d=" M  3140.22,    35.78  L  3140.22,    78.27  L  3165.72,    78.27  L  3165.72,    35.78  L  3140.22,    35.78  " /><text style="font-size:6px;font-family:'NSimSun';" transform="matrix(&st16;  3169.4  53.34 )">7.5A <tspan x="0 " dy="6.0">ECU-IG </tspan><tspan x="0 " dy="6.0">NO.2</tspan></text><text style="font-size:6px;font-family:'NSimSun';" transform="matrix(&st16;  3149.12  101.49 )">3A</text><text style="font-size:6px;font-family:'NSimSun';" transform="matrix(&st16;  3139.36  101.49 )">50</text><text style="font-size:6px;font-family:'NSimSun';" transform="matrix(&st16;  3147.76  32.08 )">(IG)</text><text style="font-size:6px;font-family:'NSimSun';" transform="matrix(&st16;  3146.79  86.47 )">2</text></g><g ewd:figtype="w2w" ewd:figID="74" ewd:code="BA2"><path style="stroke-width: 1.42 ;&st7;  " d=" M  3038.24,   463.54  L  3033.99,   467.79  L  3029.74,   463.54  " /><path style="stroke-width: 1.42 ;&st7;  " d=" M  3029.74,   460.14  L  3033.99,   464.39  L  3038.24,   460.14  " /><text style="font-size:6px;font-family:'NSimSun';" transform="matrix(&st16;  3021.36  475.43 )">4</text></g><g ewd:figtype="w2w" ewd:figID="75" ewd:code="BA2"><text style="font-size:6px;font-family:'NSimSun';" transform="matrix(&st16;  3137.24  186.47 )">10</text><path style="stroke-width: 1.42 ;&st7;  " d=" M  3157.22,   174.59  L  3152.97,   178.84  L  3148.72,   174.59  " /><path style="stroke-width: 1.42 ;&st7;  " d=" M  3148.72,   171.19  L  3152.97,   175.44  L  3157.22,   171.19  " /></g><g ewd:code=" " ewd:figID="128" ewd:comment=" " ewd:figtype="sh"><path style="stroke-width: 0.85 ;&st7; stroke-dasharray:3, 1.5;" d=" M  3501.41,   477.71  L  3501.41,   452.21  L  3390.93,   452.21  L  3390.93,   486.20  L  3492.91,   486.20  " /><g ewd:code="" ewd:figID="133" ewd:comment=" " ewd:figtype="commref"><text style="font-size:6px;font-family:'NSimSun';" transform="matrix(&st17;  3387.24  481.44 )" ewd:textID="1">（屏蔽）</text></g></g></svg>