<?xml version="1.0" encoding="utf-8"?>
<!DOCTYPE svg PUBLIC "-//W3C//DTD SVG 1.0//EN" "http://www.w3.org/TR/2001/REC-SVG-20010904/DTD/svg10.dtd"[
	<!ENTITY ns_flows "http://ns.adobe.com/Flows/1.0/">
	<!ENTITY ns_svg "http://www.w3.org/2000/svg">
	<!ENTITY ns_xlink "http://www.w3.org/1999/xlink">
	<!ENTITY st0 "font-size:7px;font-family:'NSimSun';adobe-font-script:japanese;">
	<!ENTITY st1 "font-size:6px;font-family:'NSimSun';">
	<!-- White fill  -->
	<!ENTITY st2 "fill:#FFFFFF;stroke:#000000; stroke-width:1.41;stroke-linecap:round;stroke-linejoin:round;">
	<!-- Yellow fill  -->
	<!ENTITY st3 "fill:#FFFFCC;stroke:#FFFFCC; stroke-width:0.1;stroke-linecap:round;stroke-linejoin:round;">
	<!-- Gray fill  -->
	<!ENTITY st4 "fill:#CCCCCC;stroke:#CCCCCC; stroke-width:0.1;stroke-linecap:round;stroke-linejoin:round;">
	<!-- Light-blue fill -->
	<!ENTITY st5 "fill:#CCECF4;stroke:#000000; stroke-width:1.133;stroke-linecap:round;stroke-linejoin:round;">
	<!ENTITY st6 "fill:none;stroke-linecap:butt; stroke-linejoin:round;">
	<!ENTITY st7 "fill:none;stroke:#000000;stroke-linecap:round;stroke-linejoin:round;">
	<!ENTITY st8 "enable-background:new    ;">
	<!-- Black fill -->
	<!ENTITY st9 "fill:#000000;stroke:#000000; stroke-linecap:round;stroke-linejoin:round;">
	<!-- SRS note   -->
	<!ENTITY st10 "font-size:9px;font-family:'NSimSun';">
	<!ENTITY st11 "font-size:9px;font-family:'NSimSun';">
	<!ENTITY st12 "font-size:6px;font-family:'NSimSun';">
	<!ENTITY st13 "fill:none;stroke:#ff0000;stroke-linecap:round;stroke-linejoin:round;">
	<!-- Yellow fill  -->
	<!ENTITY st14 "fill:#FFFF00;stroke:#FFFF00; stroke-width:0.1;stroke-linecap:round;stroke-linejoin:round;">
	<!ENTITY st15 "font-size:6px;font-family:'NSimSun';adobe-font-script:japanese;">
	<!ENTITY st16 "1.00 0.00 0.00 1.00">
	<!ENTITY st17 "0.00 -1.00 1.00 0.00">
	<!ENTITY st18 "font-size:6px;font-family:'NSimSun';">
	<!ENTITY st19 "font-size:9px;font-family:'NSimSun';">
	<!ENTITY st20 "font-size:6px;font-family:'NSimSun';adobe-font-script:japanese;">
	<!ENTITY st21 "font-size:7px;font-family:'NSimSun';adobe-font-script:japanese;">
	<!ATTLIST svg
		xmlns:ewd CDATA #FIXED "http://shcl.co.jp/ewd"
		xmlns:a CDATA #FIXED "http://ns.adobe.com/AdobeSVGViewerExtensions/3.0/"
		ewd:ver CDATA #IMPLIED
	>
	<!ATTLIST a
		ewd:lineID CDATA #IMPLIED
		ewd:groupID CDATA #IMPLIED
		ewd:figtype CDATA #IMPLIED
		ewd:code CDATA #IMPLIED
		ewd:figID CDATA #IMPLIED
		ewd:pinNo CDATA #IMPLIED
		ewd:comment CDATA #IMPLIED >
	<!ATTLIST g
		ewd:lineID CDATA #IMPLIED
		ewd:groupID CDATA #IMPLIED
		ewd:figtype CDATA #IMPLIED
		ewd:code CDATA #IMPLIED
		ewd:figID CDATA #IMPLIED
		ewd:pinNo CDATA #IMPLIED
		ewd:comment CDATA #IMPLIED >
	<!ATTLIST text
		ewd:textID CDATA #IMPLIED
		ewd:horAlign CDATA #IMPLIED >
	<!ATTLIST title
		ewd:textID CDATA #IMPLIED >
]>
<!-- Generator: Shintec Hozumi YS   -->
<svg onload="call_execInitLoadProc_svg('system')" style="overflow:visible;  enable-background:new 0 0 2009.037 710.000" viewBox="0 0 2013.161 710.000" height="710.000" width="2013.161" xml:space="preserve" ewd:ver="2.1.2.6F" xmlns="&ns_svg;" xmlns:ewd="http://shcl.co.jp/ewd" xmlns:a="http://ns.adobe.com/AdobeSVGViewerExtensions/3.0/" xmlns:xlink="&ns_xlink;">
<text style="font-size:6px;font-family:'NSimSun';" transform="matrix(&st17;  574.21  275.31 )">L</text><text style="font-size:6px;font-family:'NSimSun';" transform="matrix(&st17;  642.17  275.35 )">R</text><text style="font-size:6px;font-family:'NSimSun';" transform="matrix(&st17;  676.16  275.7 )">G</text><text style="font-size:6px;font-family:'NSimSun';" transform="matrix(&st17;  710.16  275.43 )">B</text><text style="font-size:6px;font-family:'NSimSun';" transform="matrix(&st17;  744.17  277.29 )">BR</text><text style="font-size:6px;font-family:'NSimSun';" transform="matrix(&st17;  863.16  164.87 )">R</text><text style="font-size:6px;font-family:'NSimSun';" transform="matrix(&st17;  812.17  164.83 )">L</text><text style="font-size:6px;font-family:'NSimSun';" transform="matrix(&st17;  744.18  373.94 )">W</text><text style="font-size:6px;font-family:'NSimSun';" transform="matrix(&st17;  781.01  592.9 )">(*1)</text><text style="font-size:6px;font-family:'NSimSun';" transform="matrix(&st17;  769.67  590.65 )">W</text><text style="font-size:6px;font-family:'NSimSun';" transform="matrix(&st17;  755.51  592.9 )">(*2)</text><text style="font-size:6px;font-family:'NSimSun';" transform="matrix(&st17;  744.18  590.65 )">W</text><path style="stroke-width: 1.42 ;&st7;  " d=" M   756.37,   477.71  L   747.88,   477.71  " /><path style="stroke-width: 1.42 ;&st7;  " d=" M   824.36,   477.71  L   815.86,   477.71  " /><text style="font-size:6px;font-family:'NSimSun';" transform="matrix(&st17;  812.17  373.16 )">B</text><text style="font-size:6px;font-family:'NSimSun';" transform="matrix(&st17;  812.17  591.97 )">LG</text><text style="font-size:6px;font-family:'NSimSun';" transform="matrix(&st17;  744.18  450.42 )">W</text><text style="font-size:6px;font-family:'NSimSun';" transform="matrix(&st17;  812.17  449.53 )">L</text><text style="font-size:6px;font-family:'NSimSun';" transform="matrix(&st17;  823.5  592.9 )">(*2)</text><text style="font-size:6px;font-family:'NSimSun';" transform="matrix(&st17;  744.18  509.91 )">W</text><text style="font-size:6px;font-family:'NSimSun';" transform="matrix(&st17;  837.66  591.97 )">LG</text><text style="font-size:6px;font-family:'NSimSun';" transform="matrix(&st17;  812.17  509.02 )">L</text><text style="font-size:6px;font-family:'NSimSun';" transform="matrix(&st17;  849.0  592.9 )">(*1)</text><text style="font-size:6px;font-family:'NSimSun';" transform="matrix(&st16;  541.84  244.55 )">L</text><text style="font-size:6px;font-family:'NSimSun';" transform="matrix(&st17;  931.15  275.35 )">R</text><g ewd:figtype="conn" ewd:figID="3" ewd:code="A39"><path style="stroke-width: 1.42 ;&st7;  " d=" M   824.36,   418.22  L   824.36,   401.22  L   739.38,   401.22  L   739.38,   418.22  L   824.36,   418.22  " /><path style="stroke-width: 0.85 ;&st7;  " d=" M   815.86,   418.22  L   815.86,   401.22  " /><path style="stroke-width: 0.85 ;&st7;  " d=" M   747.87,   418.22  L   747.87,   401.22  " /><text style="font-size:6px;font-family:'NSimSun';" transform="matrix(&st16;  738.59  426.41 )">12</text><text style="font-size:6px;font-family:'NSimSun';" transform="matrix(&st16;  738.59  397.53 )">17</text><text style="font-size:6px;font-family:'NSimSun';" transform="matrix(&st16;  809.68  426.41 )">1</text><text style="font-size:6px;font-family:'NSimSun';" transform="matrix(&st16;  809.68  397.53 )">6</text><g ewd:figtype="title"><text style="font-size:6px;font-family:'NSimSun';" transform="matrix(&st17;  839.08  421.12 )" ewd:textID="11">1 号 CAN<tspan x="0 " dy="6.0">接线连接器</tspan></text><text style="font-size:6px;font-family:'NSimSun';" transform="matrix(&st17;  831.97  421.11 )">A39</text></g></g><g ewd:figtype="conn" ewd:figID="4" ewd:code="E74"><path style="stroke-width: 1.42 ;&st7;  " d=" M   824.36,   554.19  L   824.36,   537.20  L   739.38,   537.20  L   739.38,   554.19  L   824.36,   554.19  " /><path style="stroke-width: 0.85 ;&st7;  " d=" M   815.86,   554.19  L   815.86,   537.20  " /><path style="stroke-width: 0.85 ;&st7;  " d=" M   747.87,   554.19  L   747.87,   537.20  " /><text style="font-size:6px;font-family:'NSimSun';" transform="matrix(&st16;  738.59  533.51 )">16</text><text style="font-size:6px;font-family:'NSimSun';" transform="matrix(&st16;  809.68  533.51 )">5</text><text style="font-size:6px;font-family:'NSimSun';" transform="matrix(&st16;  809.68  562.39 )">4</text><text style="font-size:6px;font-family:'NSimSun';" transform="matrix(&st16;  738.59  562.39 )">15</text><g ewd:figtype="title"><text style="font-size:6px;font-family:'NSimSun';" transform="matrix(&st17;  839.08  557.1 )" ewd:textID="12">2 号 CAN 接线连接器</text><text style="font-size:6px;font-family:'NSimSun';" transform="matrix(&st17;  831.97  557.09 )">E74</text></g></g><g ewd:figtype="conn" ewd:figID="7" ewd:code="E16"><path style="stroke-width: 1.42 ;&st7;  " d=" M   798.87,   248.24  L   883.85,   248.24  L   883.85,   214.25  L   798.87,   214.25  L   798.87,   248.24  " /><g ewd:lineID="16"><text style="font-size:6px;font-family:'NSimSun';" transform="matrix(&st16;  807.2  211.69 )">2</text><path style="stroke-width: 1.42 ;&st7;   " d=" M   820.40,   209.72  C   820.40    207.21    818.37    205.18    815.86    205.18  " /><path style="stroke-width: 1.42 ;&st7;   " d=" M   815.86,   205.18  C   813.36    205.18    811.33    207.21    811.33    209.72  " /><path style="stroke-width: 1.42 ;&st7;   " d=" M   811.33,   209.72  C   811.33    212.22    813.36    214.25    815.86    214.25  " /><path style="stroke-width: 1.42 ;&st7;   " d=" M   815.86,   214.25  C   818.37    214.25    820.40    212.22    820.40    209.72  " /><text style="font-size:6px;font-family:'NSimSun';" transform="matrix(&st16;  813.56  211.69 )">A</text><text style="font-size:6px;font-family:'NSimSun';" transform="matrix(&st16;  812.11  221.88 )">+B</text></g><g ewd:lineID="18"><text style="font-size:6px;font-family:'NSimSun';" transform="matrix(&st16;  858.19  211.69 )">4</text><path style="stroke-width: 1.42 ;&st7;   " d=" M   871.39,   209.72  C   871.39    207.21    869.36    205.18    866.86    205.18  " /><path style="stroke-width: 1.42 ;&st7;   " d=" M   866.86,   205.18  C   864.35    205.18    862.32    207.21    862.32    209.72  " /><path style="stroke-width: 1.42 ;&st7;   " d=" M   862.32,   209.72  C   862.32    212.22    864.35    214.25    866.86    214.25  " /><path style="stroke-width: 1.42 ;&st7;   " d=" M   866.86,   214.25  C   869.36    214.25    871.39    212.22    871.39    209.72  " /><text style="font-size:6px;font-family:'NSimSun';" transform="matrix(&st16;  864.55  211.69 )">A</text><text style="font-size:6px;font-family:'NSimSun';" transform="matrix(&st16;  863.49  221.88 )">+2</text></g><g ewd:figtype="title"><text style="font-size:6px;font-family:'NSimSun';" transform="matrix(&st16;  795.45  256.14 )">E16(A)</text><text style="font-size:6px;font-family:'NSimSun';" transform="matrix(&st16;  795.46  262.96 )" ewd:textID="13">风挡玻璃刮水器开关总成</text></g></g><g ewd:figtype="conn" ewd:figID="9" ewd:code="A40,B39"><path style="stroke-width: 1.42 ;&st7;  " d=" M   560.91,   341.73  L   951.84,   341.73  L   951.84,   299.24  L   560.91,   299.24  L   560.91,   341.73  " /><g ewd:lineID="12"><text style="font-size:6px;font-family:'NSimSun';" transform="matrix(&st16;  736.11  348.23 )">26</text><text style="font-size:6px;font-family:'NSimSun';" transform="matrix(&st16;  745.57  348.23 )">A</text><path style="stroke-width: 1.42 ;&st7;   " d=" M   752.41,   346.26  C   752.41    343.76    750.38    341.73    747.88    341.73  " /><path style="stroke-width: 1.42 ;&st7;   " d=" M   747.88,   341.73  C   745.37    341.73    743.34    343.76    743.34    346.26  " /><path style="stroke-width: 1.42 ;&st7;   " d=" M   743.34,   346.26  C   743.34    348.76    745.37    350.79    747.88    350.79  " /><path style="stroke-width: 1.42 ;&st7;   " d=" M   747.88,   350.79  C   750.38    350.79    752.41    348.76    752.41    346.26  " /><text style="font-size:6px;font-family:'NSimSun';" transform="matrix(&st16;  739.52  338.03 )">CANL</text></g><g ewd:lineID="15"><text style="font-size:6px;font-family:'NSimSun';" transform="matrix(&st16;  804.1  348.23 )">13</text><text style="font-size:6px;font-family:'NSimSun';" transform="matrix(&st16;  813.56  348.23 )">A</text><path style="stroke-width: 1.42 ;&st7;   " d=" M   820.40,   346.26  C   820.40    343.76    818.37    341.73    815.86    341.73  " /><path style="stroke-width: 1.42 ;&st7;   " d=" M   815.86,   341.73  C   813.36    341.73    811.33    343.76    811.33    346.26  " /><path style="stroke-width: 1.42 ;&st7;   " d=" M   811.33,   346.26  C   811.33    348.76    813.36    350.79    815.86    350.79  " /><path style="stroke-width: 1.42 ;&st7;   " d=" M   815.86,   350.79  C   818.37    350.79    820.40    348.76    820.40    346.26  " /><text style="font-size:6px;font-family:'NSimSun';" transform="matrix(&st16;  807.08  338.03 )">CANH</text></g><g ewd:lineID="17"><text style="font-size:6px;font-family:'NSimSun';" transform="matrix(&st16;  923.05  296.67 )">18</text><text style="font-size:6px;font-family:'NSimSun';" transform="matrix(&st16;  932.54  296.67 )">A</text><path style="stroke-width: 1.42 ;&st7;   " d=" M   939.38,   294.70  C   939.38    292.20    937.35    290.17    934.84    290.17  " /><path style="stroke-width: 1.42 ;&st7;   " d=" M   934.84,   290.17  C   932.34    290.17    930.31    292.20    930.31    294.70  " /><path style="stroke-width: 1.42 ;&st7;   " d=" M   930.31,   294.70  C   930.31    297.21    932.34    299.24    934.84    299.24  " /><path style="stroke-width: 1.42 ;&st7;   " d=" M   934.84,   299.24  C   937.35    299.24    939.38    297.21    939.38    294.70  " /><text style="font-size:6px;font-family:'NSimSun';" transform="matrix(&st16;  929.4  306.87 )">INH</text></g><g ewd:lineID="5"><text style="font-size:6px;font-family:'NSimSun';" transform="matrix(&st16;  566.14  296.67 )">61</text><text style="font-size:6px;font-family:'NSimSun';" transform="matrix(&st16;  575.72  296.67 )">B</text><path style="stroke-width: 1.42 ;&st7;   " d=" M   582.44,   294.70  C   582.44    292.20    580.41    290.17    577.90    290.17  " /><path style="stroke-width: 1.42 ;&st7;   " d=" M   577.90,   290.17  C   575.40    290.17    573.37    292.20    573.37    294.70  " /><path style="stroke-width: 1.42 ;&st7;   " d=" M   573.37,   294.70  C   573.37    297.21    575.40    299.24    577.90    299.24  " /><path style="stroke-width: 1.42 ;&st7;   " d=" M   577.90,   299.24  C   580.41    299.24    582.44    297.21    582.44    294.70  " /><text style="font-size:6px;font-family:'NSimSun';" transform="matrix(&st16;  572.88  306.87 )">LIN</text></g><g ewd:lineID="6"><text style="font-size:6px;font-family:'NSimSun';" transform="matrix(&st16;  634.1  296.67 )">87</text><text style="font-size:6px;font-family:'NSimSun';" transform="matrix(&st16;  643.7  296.67 )">B</text><path style="stroke-width: 1.42 ;&st7;   " d=" M   650.42,   294.70  C   650.42    292.20    648.40    290.17    645.89    290.17  " /><path style="stroke-width: 1.42 ;&st7;   " d=" M   645.89,   290.17  C   643.39    290.17    641.36    292.20    641.36    294.70  " /><path style="stroke-width: 1.42 ;&st7;   " d=" M   641.36,   294.70  C   641.36    297.21    643.39    299.24    645.89    299.24  " /><path style="stroke-width: 1.42 ;&st7;   " d=" M   645.89,   299.24  C   648.40    299.24    650.42    297.21    650.42    294.70  " /><text style="font-size:6px;font-family:'NSimSun';" transform="matrix(&st16;  639.49  306.87 )">THB</text></g><g ewd:lineID="7"><text style="font-size:6px;font-family:'NSimSun';" transform="matrix(&st16;  664.99  296.67 )">117</text><path style="stroke-width: 1.42 ;&st7;   " d=" M   684.39,   294.70  C   684.39    292.20    682.36    290.17    679.86    290.17  " /><path style="stroke-width: 1.42 ;&st7;   " d=" M   679.86,   290.17  C   677.35    290.17    675.33    292.20    675.33    294.70  " /><path style="stroke-width: 1.42 ;&st7;   " d=" M   675.33,   294.70  C   675.33    297.21    677.35    299.24    679.86    299.24  " /><path style="stroke-width: 1.42 ;&st7;   " d=" M   679.86,   299.24  C   682.36    299.24    684.39    297.21    684.39    294.70  " /><text style="font-size:6px;font-family:'NSimSun';" transform="matrix(&st16;  677.67  296.67 )">B</text><text style="font-size:6px;font-family:'NSimSun';" transform="matrix(&st16;  672.53  306.87 )">VCIB</text></g><g ewd:lineID="8"><text style="font-size:6px;font-family:'NSimSun';" transform="matrix(&st16;  702.08  296.67 )">86</text><text style="font-size:6px;font-family:'NSimSun';" transform="matrix(&st16;  711.66  296.67 )">B</text><path style="stroke-width: 1.42 ;&st7;   " d=" M   718.38,   294.70  C   718.38    292.20    716.36    290.17    713.85    290.17  " /><path style="stroke-width: 1.42 ;&st7;   " d=" M   713.85,   290.17  C   711.35    290.17    709.32    292.20    709.32    294.70  " /><path style="stroke-width: 1.42 ;&st7;   " d=" M   709.32,   294.70  C   709.32    297.21    711.35    299.24    713.85    299.24  " /><path style="stroke-width: 1.42 ;&st7;   " d=" M   713.85,   299.24  C   716.36    299.24    718.38    297.21    718.38    294.70  " /><text style="font-size:6px;font-family:'NSimSun';" transform="matrix(&st16;  710.76  306.87 )">IB</text></g><g ewd:lineID="9"><text style="font-size:6px;font-family:'NSimSun';" transform="matrix(&st16;  732.99  296.67 )">118</text><path style="stroke-width: 1.42 ;&st7;   " d=" M   752.39,   294.70  C   752.39    292.20    750.36    290.17    747.86    290.17  " /><path style="stroke-width: 1.42 ;&st7;   " d=" M   747.86,   290.17  C   745.36    290.17    743.33    292.20    743.33    294.70  " /><path style="stroke-width: 1.42 ;&st7;   " d=" M   743.33,   294.70  C   743.33    297.21    745.36    299.24    747.86    299.24  " /><path style="stroke-width: 1.42 ;&st7;   " d=" M   747.86,   299.24  C   750.36    299.24    752.39    297.21    752.39    294.70  " /><text style="font-size:6px;font-family:'NSimSun';" transform="matrix(&st16;  745.67  296.67 )">B</text><text style="font-size:6px;font-family:'NSimSun';" transform="matrix(&st16;  742.91  306.87 )">EIB</text></g><g ewd:figtype="title"><text style="font-size:6px;font-family:'NSimSun';" transform="matrix(&st16;  557.5  356.45 )">ECM</text><text style="font-size:6px;font-family:'NSimSun';" transform="matrix(&st16;  557.49  349.62 )">A40(A),B39(B)</text></g></g><g ewd:figtype="conn" ewd:figID="12" ewd:code="B36"><path style="stroke-width: 1.42 ;&st7;  " d=" M   733.00,   218.50  L   733.00,   227.00  " /><path style="stroke-width: 1.42 ;&st7;  " d=" M   728.75,   218.50  L   728.75,   227.00  " /><path style="stroke-width: 0.85 ;&st7;  " d=" M   728.75,   222.75  L   713.88,   222.75  " /><path style="stroke-width: 0.85 ;&st7;  " d=" M   747.88,   222.75  L   733.00,   222.75  " /><path style="stroke-width: 1.42 ;&st7;  " d=" M   684.14,   178.13  L   675.64,   178.13  " /><path style="stroke-width: 1.42 ;&st7;  " d=" M   684.14,   173.88  L   675.64,   173.88  " /><path style="stroke-width: 0.85 ;&st7;  " d=" M   679.89,   173.88  L   679.89,   154.76  " /><path style="stroke-width: 0.85 ;&st7;  " d=" M   679.89,   239.75  L   679.89,   178.13  " /><path style="stroke-width: 1.42 ;&st7;  " d=" M   637.39,   188.75  L   637.39,   205.75  " /><path style="stroke-width: 1.42 ;&st7;  " d=" M   654.39,   188.75  L   654.39,   205.75  " /><path style="stroke-width: 1.42 ;&st7;   " d=" M   654.39,   188.75  C   654.39    184.06    650.59    180.26    645.89    180.26  " /><path style="stroke-width: 1.42 ;&st7;   " d=" M   645.89,   180.26  C   641.20    180.26    637.39    184.06    637.39    188.75  " /><path style="stroke-width: 1.42 ;&st7;   " d=" M   637.39,   205.75  C   637.39    210.44    641.20    214.25    645.89    214.25  " /><path style="stroke-width: 1.42 ;&st7;   " d=" M   645.89,   214.25  C   650.59    214.25    654.39    210.44    654.39    205.75  " /><path style="stroke-width: 1.42 ;&st7;  " d=" M   628.89,   146.26  L   628.89,   239.75  L   764.87,   239.75  L   764.87,   146.26  L   628.89,   146.26  " /><path style="stroke-width: 0.85 ;&st7;  " d=" M   679.89,   197.25  L   696.88,   197.25  " /><path style="stroke-width: 1.42 ;&st7;  " d=" M   696.88,   188.75  L   696.88,   205.75  L   730.88,   205.75  L   730.88,   188.75  L   696.88,   188.75  " /><path style="stroke-width: 0.85 ;&st7;  " d=" M   713.88,   239.75  L   713.88,   205.75  " /><path style="stroke-width: 0.85 ;&st7;  " d=" M   747.87,   239.75  L   747.87,   154.76  L   645.89,   154.76  L   645.89,   180.26  " /><path style="stroke-width: 0.85 ;&st7;  " d=" M   713.88,   188.75  L   713.88,   154.76  " /><path style="stroke-width: 0.85 ;&st7;  " d=" M   645.89,   214.25  L   645.89,   205.75  L   643.06,   204.33  L   648.72,   201.50  L   643.06,   198.67  L   648.72,   195.84  L   643.06,   193.00  L   648.72,   190.17  L   645.89,   188.75  L   645.89,   180.26  " /><path style="stroke-width: 0.85 ;&st7;  " d=" M   645.89,   214.25  L   645.89,   239.75  " /><path style="stroke-width: 0.85 ;&st7;  " d=" M   678.69,   153.76  L   678.42,   154.23  L   678.33,   154.76  L   678.42,   155.29  L   678.69,   155.76  L   679.11,   156.11  L   679.61,   156.30  L   680.16,   156.30  L   680.67,   156.11  L   681.08,   155.76  L   681.35,   155.29  L   681.44,   154.76  L   681.35,   154.23  L   681.08,   153.76  L   680.67,   153.41  L   680.16,   153.22  L   679.61,   153.22  L   679.11,   153.41  L   678.69,   153.76  L   679.09,   154.47  L   679.09,   155.05  L   679.46,   155.50  L   680.03,   155.60  L   680.54,   155.31  L   680.74,   154.76  L   680.54,   154.21  L   680.03,   153.92  L   679.46,   154.02  L   679.89,   154.76  " /><path style="stroke-width: 0.85 ;&st7;  " d=" M   712.69,   153.76  L   712.42,   154.23  L   712.32,   154.76  L   712.42,   155.29  L   712.69,   155.76  L   713.10,   156.11  L   713.61,   156.30  L   714.15,   156.30  L   714.66,   156.11  L   715.07,   155.76  L   715.35,   155.29  L   715.44,   154.76  L   715.35,   154.23  L   715.07,   153.76  L   714.66,   153.41  L   714.15,   153.22  L   713.61,   153.22  L   713.10,   153.41  L   712.69,   153.76  L   713.08,   154.47  L   713.08,   155.05  L   713.46,   155.50  L   714.03,   155.60  L   714.53,   155.31  L   714.73,   154.76  L   714.53,   154.21  L   714.03,   153.92  L   713.46,   154.02  L   713.88,   154.76  " /><path style="stroke-width: 0.85 ;&st7;  " d=" M   678.69,   196.25  L   678.42,   196.72  L   678.33,   197.25  L   678.42,   197.79  L   678.69,   198.26  L   679.11,   198.60  L   679.61,   198.79  L   680.16,   198.79  L   680.67,   198.60  L   681.08,   198.26  L   681.35,   197.79  L   681.44,   197.25  L   681.35,   196.72  L   681.08,   196.25  L   680.67,   195.90  L   680.16,   195.72  L   679.61,   195.72  L   679.11,   195.90  L   678.69,   196.25  L   679.09,   196.96  L   679.09,   197.54  L   679.46,   197.99  L   680.03,   198.09  L   680.54,   197.80  L   680.74,   197.25  L   680.54,   196.71  L   680.03,   196.42  L   679.46,   196.52  L   679.89,   197.25  " /><path style="stroke-width: 0.85 ;&st7;  " d=" M   712.69,   221.75  L   712.42,   222.22  L   712.32,   222.75  L   712.42,   223.28  L   712.69,   223.75  L   713.10,   224.10  L   713.61,   224.28  L   714.15,   224.28  L   714.66,   224.10  L   715.07,   223.75  L   715.35,   223.28  L   715.44,   222.75  L   715.35,   222.22  L   715.07,   221.75  L   714.66,   221.40  L   714.15,   221.21  L   713.61,   221.21  L   713.10,   221.40  L   712.69,   221.75  L   713.08,   222.46  L   713.08,   223.04  L   713.46,   223.48  L   714.03,   223.58  L   714.53,   223.30  L   714.73,   222.75  L   714.53,   222.20  L   714.03,   221.91  L   713.46,   222.01  L   713.88,   222.75  " /><path style="stroke-width: 0.85 ;&st7;  " d=" M   746.68,   221.75  L   746.41,   222.22  L   746.32,   222.75  L   746.41,   223.28  L   746.68,   223.75  L   747.10,   224.10  L   747.60,   224.28  L   748.15,   224.28  L   748.65,   224.10  L   749.07,   223.75  L   749.34,   223.28  L   749.43,   222.75  L   749.34,   222.22  L   749.07,   221.75  L   748.65,   221.40  L   748.15,   221.21  L   747.60,   221.21  L   747.10,   221.40  L   746.68,   221.75  L   747.08,   222.46  L   747.08,   223.04  L   747.45,   223.48  L   748.02,   223.58  L   748.53,   223.30  L   748.72,   222.75  L   748.53,   222.20  L   748.02,   221.91  L   747.45,   222.01  L   747.87,   222.75  " /><text style="font-size:6px;font-family:'NSimSun';" transform="matrix(&st16;  648.48  236.05 )">THB</text><text style="font-size:6px;font-family:'NSimSun';" transform="matrix(&st16;  682.47  236.05 )">VC5</text><text style="font-size:6px;font-family:'NSimSun';" transform="matrix(&st16;  716.46  236.05 )">IB</text><text style="font-size:6px;font-family:'NSimSun';" transform="matrix(&st16;  750.46  236.05 )">E2</text><text style="font-size:6px;font-family:'NSimSun';" transform="matrix(&st16;  639.71  247.94 )">1</text><text style="font-size:6px;font-family:'NSimSun';" transform="matrix(&st16;  673.67  247.94 )">2</text><text style="font-size:6px;font-family:'NSimSun';" transform="matrix(&st16;  707.67  247.94 )">3</text><text style="font-size:6px;font-family:'NSimSun';" transform="matrix(&st16;  741.68  247.94 )">4</text><g ewd:figtype="title"><text style="font-size:6px;font-family:'NSimSun';" transform="matrix(&st16;  625.48  142.56 )" ewd:textID="4">蓄电池电流传感器总成</text><text style="font-size:6px;font-family:'NSimSun';" transform="matrix(&st16;  625.47  135.74 )">B36</text></g></g><g ewd:figtype="jb" ewd:figID="20" ewd:code="3"><path style="stroke-width: 0.85 ;&st7;  " d=" M   815.86,    69.77  L   815.86,    78.27  " /><path style="stroke-width: 1.42 ;&st7;  " d=" M   817.99,    95.27  L   813.74,    95.27  " /><path style="stroke-width: 1.42 ;&st7;  " d=" M   817.99,   103.77  L   813.74,   103.77  " /><path style="stroke-width: 0.85 ;&st7;  " d=" M   815.86,    78.27  L   815.86,    95.27  " /><path style="stroke-width: 1.42 ;&st7;   " d=" M   815.86,    47.11  C   813.13     48.72    812.21     52.25    813.83     54.99  " /><path style="stroke-width: 1.42 ;&st7;   " d=" M   813.83,    54.99  C   814.35     55.87    814.98     56.51    815.86     57.03  " /><path style="stroke-width: 1.42 ;&st7;   " d=" M   815.86,    66.94  C   818.60     65.33    819.51     61.80    817.90     59.06  " /><path style="stroke-width: 1.42 ;&st7;   " d=" M   817.90,    59.06  C   817.38     58.18    816.75     57.55    815.86     57.03  " /><path style="stroke-width: 0.85 ;&st7;   " d=" M   817.28,    45.69  C   817.28     44.91    816.65     44.28    815.86     44.28  " /><path style="stroke-width: 0.85 ;&st7;   " d=" M   815.86,    44.28  C   815.08     44.28    814.45     44.91    814.45     45.69  " /><path style="stroke-width: 0.85 ;&st7;   " d=" M   814.45,    45.69  C   814.45     46.48    815.08     47.11    815.86     47.11  " /><path style="stroke-width: 0.85 ;&st7;   " d=" M   815.86,    47.11  C   816.65     47.11    817.28     46.48    817.28     45.69  " /><path style="stroke-width: 0.85 ;&st7;   " d=" M   817.28,    68.36  C   817.28     67.57    816.65     66.94    815.86     66.94  " /><path style="stroke-width: 0.85 ;&st7;   " d=" M   815.86,    66.94  C   815.08     66.94    814.45     67.57    814.45     68.36  " /><path style="stroke-width: 0.85 ;&st7;   " d=" M   814.45,    68.36  C   814.45     69.14    815.08     69.77    815.86     69.77  " /><path style="stroke-width: 0.85 ;&st7;   " d=" M   815.86,    69.77  C   816.65     69.77    817.28     69.14    817.28     68.36  " /><path style="stroke-width: 1.42 ;&st7;   " d=" M   813.74,    95.27  C   811.39     95.27    809.49     97.17    809.49     99.52  " /><path style="stroke-width: 1.42 ;&st7;   " d=" M   809.49,    99.52  C   809.49    101.87    811.39    103.77    813.74    103.77  " /><path style="stroke-width: 1.42 ;&st7;   " d=" M   817.99,   103.77  C   820.34    103.77    822.24    101.87    822.24     99.52  " /><path style="stroke-width: 1.42 ;&st7;   " d=" M   822.24,    99.52  C   822.24     97.17    820.34     95.27    817.99     95.27  " /><path style="stroke-width: 0.28 ;&st9;  " d=" M   815.86,    90.37  L   813.03,    87.54  L   813.03,    91.79  L   815.86,    94.62  L   818.70,    91.79  L   818.70,    87.54  L   815.86,    90.37  " /><path style="stroke-width: 1.42 ;&st7;  " d=" M   803.12,    35.78  L   803.12,    78.27  L   828.61,    78.27  L   828.61,    35.78  L   803.12,    35.78  " /><text style="font-size:6px;font-family:'NSimSun';" transform="matrix(&st16;  832.29  56.17 )">25A <tspan x="0 " dy="6.0">WIP FR</tspan></text><text style="font-size:6px;font-family:'NSimSun';" transform="matrix(&st16;  811.93  101.49 )">3D</text><text style="font-size:6px;font-family:'NSimSun';" transform="matrix(&st16;  805.36  101.49 )">3</text><text style="font-size:6px;font-family:'NSimSun';" transform="matrix(&st16;  809.68  86.47 )">2</text><text style="font-size:6px;font-family:'NSimSun';" transform="matrix(&st16;  810.65  32.08 )">(IG)</text></g><g ewd:figtype="jb" ewd:figID="24" ewd:code="3"><path style="stroke-width: 1.42 ;&st7;  " d=" M   936.97,   137.76  L   932.72,   137.76  " /><path style="stroke-width: 1.42 ;&st7;  " d=" M   936.97,   146.26  L   932.72,   146.26  " /><path style="stroke-width: 1.42 ;&st7;   " d=" M   932.72,   137.76  C   930.37    137.76    928.47    139.66    928.47    142.01  " /><path style="stroke-width: 1.42 ;&st7;   " d=" M   928.47,   142.01  C   928.47    144.36    930.37    146.26    932.72    146.26  " /><path style="stroke-width: 1.42 ;&st7;   " d=" M   936.97,   146.26  C   939.32    146.26    941.22    144.36    941.22    142.01  " /><path style="stroke-width: 1.42 ;&st7;   " d=" M   941.22,   142.01  C   941.22    139.66    939.32    137.76    936.97    137.76  " /><path style="stroke-width: 0.28 ;&st9;  " d=" M   934.84,   151.16  L   937.68,   153.99  L   937.68,   149.74  L   934.84,   146.91  L   932.01,   149.74  L   932.01,   153.99  L   934.84,   151.16  " /><text style="font-size:6px;font-family:'NSimSun';" transform="matrix(&st16;  930.91  143.98 )">3D</text><text style="font-size:6px;font-family:'NSimSun';" transform="matrix(&st16;  924.34  143.98 )">7</text><path style="stroke-width: 0.85 ;&st7;  " d=" M   934.84,   205.75  L   934.84,   214.25  " /><path style="stroke-width: 0.85 ;&st7;   " d=" M   936.26,   204.33  C   936.26    203.55    935.63    202.92    934.84    202.92  " /><path style="stroke-width: 0.85 ;&st7;   " d=" M   934.84,   202.92  C   934.06    202.92    933.43    203.55    933.43    204.33  " /><path style="stroke-width: 0.85 ;&st7;   " d=" M   933.43,   204.33  C   933.43    205.12    934.06    205.75    934.84    205.75  " /><path style="stroke-width: 0.85 ;&st7;   " d=" M   934.84,   205.75  C   935.63    205.75    936.26    205.12    936.26    204.33  " /><path style="stroke-width: 0.85 ;&st7;   " d=" M   936.26,   181.67  C   936.26    180.89    935.63    180.26    934.84    180.26  " /><path style="stroke-width: 0.85 ;&st7;   " d=" M   934.84,   180.26  C   934.06    180.26    933.43    180.89    933.43    181.67  " /><path style="stroke-width: 0.85 ;&st7;   " d=" M   933.43,   181.67  C   933.43    182.45    934.06    183.09    934.84    183.09  " /><path style="stroke-width: 0.85 ;&st7;   " d=" M   934.84,   183.09  C   935.63    183.09    936.26    182.45    936.26    181.67  " /><path style="stroke-width: 1.42 ;&st7;   " d=" M   934.84,   202.92  C   937.58    201.31    938.49    197.78    936.88    195.04  " /><path style="stroke-width: 1.42 ;&st7;   " d=" M   936.88,   195.04  C   936.36    194.16    935.73    193.52    934.84    193.00  " /><path style="stroke-width: 1.42 ;&st7;   " d=" M   934.84,   183.09  C   932.11    184.70    931.19    188.23    932.81    190.97  " /><path style="stroke-width: 1.42 ;&st7;   " d=" M   932.81,   190.97  C   933.33    191.85    933.96    192.48    934.84    193.00  " /><path style="stroke-width: 1.42 ;&st7;  " d=" M   922.10,   171.76  L   922.10,   214.25  L   947.59,   214.25  L   947.59,   171.76  L   922.10,   171.76  " /><path style="stroke-width: 0.85 ;&st7;  " d=" M   934.84,   171.76  L   934.84,   180.26  " /><text style="font-size:6px;font-family:'NSimSun';" transform="matrix(&st16;  928.66  168.07 )">1</text><text style="font-size:6px;font-family:'NSimSun';" transform="matrix(&st16;  928.66  222.44 )">2</text><text style="font-size:6px;font-family:'NSimSun';" transform="matrix(&st16;  951.27  192.15 )">5A <tspan x="0 " dy="6.0">WIP-S</tspan></text><path style="stroke-width: 1.42 ;&st7;  " d=" M   936.97,   239.75  L   932.72,   239.75  " /><path style="stroke-width: 1.42 ;&st7;  " d=" M   936.97,   248.24  L   932.72,   248.24  " /><path style="stroke-width: 1.42 ;&st7;   " d=" M   932.72,   239.75  C   930.37    239.75    928.47    241.65    928.47    243.99  " /><path style="stroke-width: 1.42 ;&st7;   " d=" M   928.47,   243.99  C   928.47    246.34    930.37    248.24    932.72    248.24  " /><path style="stroke-width: 1.42 ;&st7;   " d=" M   936.97,   248.24  C   939.32    248.24    941.22    246.34    941.22    243.99  " /><path style="stroke-width: 1.42 ;&st7;   " d=" M   941.22,   243.99  C   941.22    241.65    939.32    239.75    936.97    239.75  " /><path style="stroke-width: 0.28 ;&st9;  " d=" M   934.84,   234.85  L   932.01,   232.02  L   932.01,   236.27  L   934.84,   239.10  L   937.68,   236.27  L   937.68,   232.02  L   934.84,   234.85  " /><text style="font-size:6px;font-family:'NSimSun';" transform="matrix(&st16;  930.99  245.96 )">3A</text><text style="font-size:6px;font-family:'NSimSun';" transform="matrix(&st16;  921.23  245.96 )">11</text><path style="stroke-width: 0.85 ;&st7;  " d=" M   934.84,   239.75  L   934.84,   214.25  " /><path style="stroke-width: 0.85 ;&st7;  " d=" M   934.84,   171.76  L   934.84,   146.26  " /></g><g ewd:figtype="w2w" ewd:figID="25" ewd:code="AE4"><path style="stroke-width: 1.42 ;&st7;  " d=" M   752.12,   486.77  L   747.87,   482.52  L   743.63,   486.77  " /><path style="stroke-width: 1.42 ;&st7;  " d=" M   752.12,   483.37  L   747.87,   479.12  L   743.63,   483.37  " /><text style="font-size:6px;font-family:'NSimSun';" transform="matrix(&st16;  735.24  475.43 )">3</text></g><g ewd:figtype="w2w" ewd:figID="26" ewd:code="AE4"><path style="stroke-width: 1.42 ;&st7;  " d=" M   820.11,   486.77  L   815.86,   482.52  L   811.61,   486.77  " /><path style="stroke-width: 1.42 ;&st7;  " d=" M   820.11,   483.37  L   815.86,   479.12  L   811.61,   483.37  " /><text style="font-size:6px;font-family:'NSimSun';" transform="matrix(&st16;  803.23  475.43 )">4</text></g></svg>