<?xml version="1.0" encoding="utf-8"?>
<!DOCTYPE svg PUBLIC "-//W3C//DTD SVG 1.0//EN" "http://www.w3.org/TR/2001/REC-SVG-20010904/DTD/svg10.dtd"[
	<!ENTITY ns_flows "http://ns.adobe.com/Flows/1.0/">
	<!ENTITY ns_svg "http://www.w3.org/2000/svg">
	<!ENTITY ns_xlink "http://www.w3.org/1999/xlink">
	<!ENTITY st0 "font-size:7px;font-family:'NSimSun';adobe-font-script:japanese;">
	<!ENTITY st1 "font-size:6px;font-family:'NSimSun';">
	<!-- White fill  -->
	<!ENTITY st2 "fill:#FFFFFF;stroke:#000000; stroke-width:1.41;stroke-linecap:round;stroke-linejoin:round;">
	<!-- Yellow fill  -->
	<!ENTITY st3 "fill:#FFFFCC;stroke:#FFFFCC; stroke-width:0.1;stroke-linecap:round;stroke-linejoin:round;">
	<!-- Gray fill  -->
	<!ENTITY st4 "fill:#CCCCCC;stroke:#CCCCCC; stroke-width:0.1;stroke-linecap:round;stroke-linejoin:round;">
	<!-- Light-blue fill -->
	<!ENTITY st5 "fill:#CCECF4;stroke:#000000; stroke-width:1.133;stroke-linecap:round;stroke-linejoin:round;">
	<!ENTITY st6 "fill:none;stroke-linecap:butt; stroke-linejoin:round;">
	<!ENTITY st7 "fill:none;stroke:#000000;stroke-linecap:round;stroke-linejoin:round;">
	<!ENTITY st8 "enable-background:new    ;">
	<!-- Black fill -->
	<!ENTITY st9 "fill:#000000;stroke:#000000; stroke-linecap:round;stroke-linejoin:round;">
	<!-- SRS note   -->
	<!ENTITY st10 "font-size:9px;font-family:'NSimSun';">
	<!ENTITY st11 "font-size:9px;font-family:'NSimSun';">
	<!ENTITY st12 "font-size:6px;font-family:'NSimSun';">
	<!ENTITY st13 "fill:none;stroke:#ff0000;stroke-linecap:round;stroke-linejoin:round;">
	<!-- Yellow fill  -->
	<!ENTITY st14 "fill:#FFFF00;stroke:#FFFF00; stroke-width:0.1;stroke-linecap:round;stroke-linejoin:round;">
	<!ENTITY st15 "font-size:6px;font-family:'NSimSun';adobe-font-script:japanese;">
	<!ENTITY st16 "1.00 0.00 0.00 1.00">
	<!ENTITY st17 "0.00 -1.00 1.00 0.00">
	<!ENTITY st18 "font-size:6px;font-family:'NSimSun';">
	<!ENTITY st19 "font-size:9px;font-family:'NSimSun';">
	<!ENTITY st20 "font-size:6px;font-family:'NSimSun';adobe-font-script:japanese;">
	<!ENTITY st21 "font-size:7px;font-family:'NSimSun';adobe-font-script:japanese;">
	<!ATTLIST svg
		xmlns:ewd CDATA #FIXED "http://shcl.co.jp/ewd"
		xmlns:a CDATA #FIXED "http://ns.adobe.com/AdobeSVGViewerExtensions/3.0/"
		ewd:ver CDATA #IMPLIED
	>
	<!ATTLIST a
		ewd:lineID CDATA #IMPLIED
		ewd:groupID CDATA #IMPLIED
		ewd:figtype CDATA #IMPLIED
		ewd:code CDATA #IMPLIED
		ewd:figID CDATA #IMPLIED
		ewd:pinNo CDATA #IMPLIED
		ewd:comment CDATA #IMPLIED >
	<!ATTLIST g
		ewd:lineID CDATA #IMPLIED
		ewd:groupID CDATA #IMPLIED
		ewd:figtype CDATA #IMPLIED
		ewd:code CDATA #IMPLIED
		ewd:figID CDATA #IMPLIED
		ewd:pinNo CDATA #IMPLIED
		ewd:comment CDATA #IMPLIED >
	<!ATTLIST text
		ewd:textID CDATA #IMPLIED
		ewd:horAlign CDATA #IMPLIED >
	<!ATTLIST title
		ewd:textID CDATA #IMPLIED >
]>
<!-- Generator: Shintec Hozumi YS   -->
<svg onload="call_execInitLoadProc_svg('system')" style="overflow:visible;  enable-background:new 0 0 2009.037 710.000" viewBox="0 0 2013.161 710.000" height="710.000" width="2013.161" xml:space="preserve" ewd:ver="2.1.2.6F" xmlns="&ns_svg;" xmlns:ewd="http://shcl.co.jp/ewd" xmlns:a="http://ns.adobe.com/AdobeSVGViewerExtensions/3.0/" xmlns:xlink="&ns_xlink;">
<text style="font-size:6px;font-family:'NSimSun';" transform="matrix(&st17;  472.22  275.31 )">L</text><text style="font-size:6px;font-family:'NSimSun';" transform="matrix(&st17;  30.3  423.32 )">B-R</text><text style="font-size:6px;font-family:'NSimSun';" transform="matrix(&st17;  378.74  275.43 )">B</text><text style="font-size:6px;font-family:'NSimSun';" transform="matrix(&st17;  30.3  655.26 )">B-DG</text><text style="font-size:6px;font-family:'NSimSun';" transform="matrix(&st17;  72.79  655.26 )">B-DG</text><text style="font-size:6px;font-family:'NSimSun';" transform="matrix(&st16;  490.85  244.55 )">L</text><g ewd:figtype="rb" ewd:figID="1" ewd:code="FUSE36"><text style="font-size:6px;font-family:'NSimSun';" transform="matrix(&st16;  27.81  312.54 )">2</text><text style="font-size:6px;font-family:'NSimSun';" transform="matrix(&st16;  27.81  366.92 )">1</text><text style="font-size:6px;font-family:'NSimSun';" transform="matrix(&st16;  50.42  336.62 )">120A <tspan x="0 " dy="6.0">ALT</tspan></text><path style="stroke-width: 0.85 ;&st7;  " d=" M    33.99,   290.74  L    33.99,   316.23  " /><path style="stroke-width: 0.28 ;&st9;  " d=" M    33.99,   295.63  L    36.83,   298.46  L    36.83,   294.22  L    33.99,   291.38  L    31.16,   294.22  L    31.16,   298.46  L    33.99,   295.63  " /><path style="stroke-width: 0.28 ;&st9;  " d=" M    33.99,   379.33  L    31.16,   376.49  L    31.16,   380.74  L    33.99,   383.58  L    36.83,   380.74  L    36.83,   376.49  L    33.99,   379.33  " /><path style="stroke-width: 0.85 ;&st7;  " d=" M    33.99,   384.22  L    33.99,   358.73  " /><path style="stroke-width: 1.42 ;&st7;  " d=" M    36.12,   290.74  L    31.87,   290.74  " /><path style="stroke-width: 1.42 ;&st7;  " d=" M    36.12,   384.22  L    31.87,   384.22  " /><path style="stroke-width: 1.42 ;&st7;  " d=" M    21.25,   316.23  L    21.25,   358.73  L    46.74,   358.73  L    46.74,   316.23  L    21.25,   316.23  " /><path style="stroke-width: 0.85 ;&st7;  " d=" M    33.99,   316.23  L    33.99,   324.73  " /><path style="stroke-width: 0.85 ;&st7;   " d=" M    35.41,   348.81  C    35.41    348.03     34.78    347.39     33.99    347.39  " /><path style="stroke-width: 0.85 ;&st7;   " d=" M    33.99,   347.39  C    33.21    347.39     32.58    348.03     32.58    348.81  " /><path style="stroke-width: 0.85 ;&st7;   " d=" M    32.58,   348.81  C    32.58    349.59     33.21    350.23     33.99    350.23  " /><path style="stroke-width: 0.85 ;&st7;   " d=" M    33.99,   350.23  C    34.78    350.23     35.41    349.59     35.41    348.81  " /><path style="stroke-width: 0.85 ;&st7;   " d=" M    35.41,   326.15  C    35.41    325.37     34.78    324.73     33.99    324.73  " /><path style="stroke-width: 0.85 ;&st7;   " d=" M    33.99,   324.73  C    33.21    324.73     32.58    325.37     32.58    326.15  " /><path style="stroke-width: 0.85 ;&st7;   " d=" M    32.58,   326.15  C    32.58    326.93     33.21    327.56     33.99    327.56  " /><path style="stroke-width: 0.85 ;&st7;   " d=" M    33.99,   327.56  C    34.78    327.56     35.41    326.93     35.41    326.15  " /><path style="stroke-width: 1.42 ;&st7;   " d=" M    33.99,   347.39  C    36.73    345.78     37.64    342.25     36.03    339.52  " /><path style="stroke-width: 1.42 ;&st7;   " d=" M    36.03,   339.52  C    35.51    338.63     34.88    338.00     33.99    337.48  " /><path style="stroke-width: 1.42 ;&st7;   " d=" M    33.99,   327.56  C    31.26    329.18     30.34    332.70     31.96    335.44  " /><path style="stroke-width: 1.42 ;&st7;   " d=" M    31.96,   335.44  C    32.48    336.32     33.11    336.96     33.99    337.48  " /><path style="stroke-width: 0.85 ;&st7;  " d=" M    33.99,   350.23  L    33.99,   358.73  " /></g><g ewd:figtype="conn" ewd:figID="2" ewd:code="B38,C1"><path style="stroke-width: 0.85 ;&st7;  " d=" M    33.99,   559.86  L    33.99,   562.69  " /><path style="stroke-width: 1.42 ;&st7;  " d=" M    38.24,   559.86  L    29.75,   559.86  L    29.75,   558.44  L    38.24,   558.44  L    38.24,   559.86  " /><path style="stroke-width: 1.42 ;&st7;  " d=" M    38.24,   579.69  L    38.24,   578.27  L    29.75,   578.27  L    29.75,   579.69  L    38.24,   579.69  " /><path style="stroke-width: 1.42 ;&st7;  " d=" M    17.00,   537.20  L    50.99,   537.20  L    50.99,   596.69  L    17.00,   596.69  L    17.00,   537.20  " /><path style="stroke-width: 0.85 ;&st7;  " d=" M    25.50,   554.19  L    42.49,   554.19  " /><path style="stroke-width: 0.85 ;&st7;  " d=" M    25.50,   574.02  L    42.49,   574.02  " /><path style="stroke-width: 0.85 ;&st7;  " d=" M    33.99,   554.19  L    33.99,   537.20  " /><path style="stroke-width: 0.85 ;&st7;  " d=" M    33.99,   579.69  L    33.99,   596.69  " /><path style="stroke-width: 0.85 ;&st7;  " d=" M    33.99,   565.52  L    33.99,   568.36  " /><path style="stroke-width: 0.85 ;&st7;  " d=" M    33.99,   571.19  L    33.99,   574.02  " /><text style="font-size:6px;font-family:'NSimSun';" transform="matrix(&st16;  25.3  603.19 )">1</text><path style="stroke-width: 1.42 ;&st7;   " d=" M    38.53,   601.22  C    38.53    598.71     36.50    596.69     33.99    596.69  " /><path style="stroke-width: 1.42 ;&st7;   " d=" M    33.99,   596.69  C    31.49    596.69     29.46    598.71     29.46    601.22  " /><path style="stroke-width: 1.42 ;&st7;   " d=" M    29.46,   601.22  C    29.46    603.72     31.49    605.75     33.99    605.75  " /><path style="stroke-width: 1.42 ;&st7;   " d=" M    33.99,   605.75  C    36.50    605.75     38.53    603.72     38.53    601.22  " /><text style="font-size:6px;font-family:'NSimSun';" transform="matrix(&st16;  31.81  603.19 )">B</text><text style="font-size:6px;font-family:'NSimSun';" transform="matrix(&st16;  25.3  534.63 )">1</text><path style="stroke-width: 1.42 ;&st7;   " d=" M    38.53,   532.66  C    38.53    530.16     36.50    528.13     33.99    528.13  " /><path style="stroke-width: 1.42 ;&st7;   " d=" M    33.99,   528.13  C    31.49    528.13     29.46    530.16     29.46    532.66  " /><path style="stroke-width: 1.42 ;&st7;   " d=" M    29.46,   532.66  C    29.46    535.17     31.49    537.20     33.99    537.20  " /><path style="stroke-width: 1.42 ;&st7;   " d=" M    33.99,   537.20  C    36.50    537.20     38.53    535.17     38.53    532.66  " /><text style="font-size:6px;font-family:'NSimSun';" transform="matrix(&st16;  31.69  534.63 )">A</text><g ewd:figtype="title"><text style="font-size:6px;font-family:'NSimSun';" transform="matrix(&st17;  58.6  591.09 )">B38(A),C1(B)</text><text style="font-size:6px;font-family:'NSimSun';" transform="matrix(&st17;  65.71  591.09 )" ewd:textID="3">蓄电池</text></g></g><g ewd:figtype="conn" ewd:figID="10" ewd:code="B1,B17"><text style="font-size:6px;font-family:'NSimSun';" transform="matrix(&st16; 446.18 464.10)" ewd:textID="9" ewd:horAlign="center">IC<tspan x="0 " dy="6.0">调节器</tspan></text><text style="font-size:6px;font-family:'NSimSun';" transform="matrix(&st16;  385.02  324.43 )">B</text><text style="font-size:6px;font-family:'NSimSun';" transform="matrix(&st16;  478.5  324.43 )">LIN</text><path style="stroke-width: 0.85 ;&st7;   " d=" M   345.96,   522.73  C   347.36    521.36    347.38    519.12    346.01    517.72  " /><path style="stroke-width: 0.85 ;&st7;   " d=" M   346.01,   517.72  C   344.65    516.32    342.40    516.30    341.01    517.67  " /><path style="stroke-width: 0.85 ;&st7;   " d=" M   341.01,   517.67  C   340.30    518.36    339.94    519.21    339.94    520.20  " /><path style="stroke-width: 0.85 ;&st7;  " d=" M   355.75,   468.20  L   355.48,   468.67  L   355.38,   469.21  L   355.48,   469.74  L   355.75,   470.21  L   356.16,   470.56  L   356.67,   470.74  L   357.21,   470.74  L   357.72,   470.56  L   358.13,   470.21  L   358.40,   469.74  L   358.50,   469.21  L   358.40,   468.67  L   358.13,   468.20  L   357.72,   467.86  L   357.21,   467.67  L   356.67,   467.67  L   356.16,   467.86  L   355.75,   468.20  L   356.14,   468.92  L   356.14,   469.50  L   356.52,   469.94  L   357.09,   470.04  L   357.59,   469.75  L   357.79,   469.21  L   357.59,   468.66  L   357.09,   468.37  L   356.52,   468.47  L   356.94,   469.21  " /><path style="stroke-width: 0.85 ;&st7;  " d=" M   355.75,   349.22  L   355.48,   349.69  L   355.38,   350.23  L   355.48,   350.76  L   355.75,   351.23  L   356.16,   351.58  L   356.67,   351.76  L   357.21,   351.76  L   357.72,   351.58  L   358.13,   351.23  L   358.40,   350.76  L   358.50,   350.23  L   358.40,   349.69  L   358.13,   349.22  L   357.72,   348.88  L   357.21,   348.69  L   356.67,   348.69  L   356.16,   348.88  L   355.75,   349.22  L   356.14,   349.94  L   356.14,   350.52  L   356.52,   350.96  L   357.09,   351.06  L   357.59,   350.77  L   357.79,   350.23  L   357.59,   349.68  L   357.09,   349.39  L   356.52,   349.49  L   356.94,   350.23  " /><path style="stroke-width: 0.85 ;&st7;  " d=" M   293.98,   422.43  L   305.95,   429.34  " /><path style="stroke-width: 0.85 ;&st7;  " d=" M   271.68,   411.25  L   272.23,   411.25  L   272.73,   411.07  L   273.15,   410.72  L   273.42,   410.25  L   273.51,   409.72  L   273.42,   409.18  L   273.15,   408.71  L   272.73,   408.37  L   272.23,   408.18  L   271.68,   408.18  L   271.18,   408.37  L   270.76,   408.71  L   270.49,   409.18  L   270.40,   409.72  L   270.49,   410.25  L   270.76,   410.72  L   271.18,   411.07  L   271.68,   411.25  L   272.10,   410.55  L   272.61,   410.26  L   272.80,   409.72  L   272.61,   409.17  L   272.10,   408.88  L   271.53,   408.98  L   271.16,   409.43  L   271.16,   410.01  L   271.53,   410.45  L   271.95,   409.72  " /><path style="stroke-width: 0.85 ;&st7;  " d=" M   271.95,   367.22  L   322.95,   367.22  L   322.95,   392.72  L   356.94,   392.72  " /><path style="stroke-width: 0.85 ;&st7;  " d=" M   271.95,   384.22  L   271.95,   367.22  " /><path style="stroke-width: 0.85 ;&st7;  " d=" M   160.28,   468.20  L   160.01,   468.67  L   159.91,   469.21  L   160.01,   469.74  L   160.28,   470.21  L   160.69,   470.56  L   161.20,   470.74  L   161.74,   470.74  L   162.25,   470.56  L   162.67,   470.21  L   162.94,   469.74  L   163.03,   469.21  L   162.94,   468.67  L   162.67,   468.20  L   162.25,   467.86  L   161.74,   467.67  L   161.20,   467.67  L   160.69,   467.86  L   160.28,   468.20  L   160.67,   468.92  L   160.67,   469.50  L   161.05,   469.94  L   161.62,   470.04  L   162.12,   469.75  L   162.32,   469.21  L   162.12,   468.66  L   161.62,   468.37  L   161.05,   468.47  L   161.47,   469.21  " /><path style="stroke-width: 0.85 ;&st7;  " d=" M   160.28,   391.72  L   160.01,   392.19  L   159.91,   392.72  L   160.01,   393.25  L   160.28,   393.72  L   160.69,   394.07  L   161.20,   394.26  L   161.74,   394.26  L   162.25,   394.07  L   162.67,   393.72  L   162.94,   393.25  L   163.03,   392.72  L   162.94,   392.19  L   162.67,   391.72  L   162.25,   391.37  L   161.74,   391.18  L   161.20,   391.18  L   160.69,   391.37  L   160.28,   391.72  L   160.67,   392.43  L   160.67,   393.01  L   161.05,   393.46  L   161.62,   393.56  L   162.12,   393.27  L   162.32,   392.72  L   162.12,   392.17  L   161.62,   391.88  L   161.05,   391.98  L   161.47,   392.72  " /><path style="stroke-width: 0.85 ;&st7;  " d=" M   109.29,   425.71  L   109.02,   426.18  L   108.92,   426.71  L   109.02,   427.25  L   109.29,   427.72  L   109.70,   428.06  L   110.21,   428.25  L   110.75,   428.25  L   111.26,   428.06  L   111.67,   427.72  L   111.95,   427.25  L   112.04,   426.71  L   111.95,   426.18  L   111.67,   425.71  L   111.26,   425.37  L   110.75,   425.18  L   110.21,   425.18  L   109.70,   425.37  L   109.29,   425.71  L   109.68,   426.42  L   109.68,   427.01  L   110.06,   427.45  L   110.63,   427.55  L   111.13,   427.26  L   111.33,   426.71  L   111.13,   426.17  L   110.63,   425.88  L   110.06,   425.98  L   110.48,   426.71  " /><path style="stroke-width: 0.85 ;&st7;  " d=" M   134.78,   408.71  L   134.51,   409.18  L   134.42,   409.72  L   134.51,   410.25  L   134.78,   410.72  L   135.20,   411.07  L   135.71,   411.25  L   136.25,   411.25  L   136.76,   411.07  L   137.17,   410.72  L   137.44,   410.25  L   137.54,   409.72  L   137.44,   409.18  L   137.17,   408.71  L   136.76,   408.37  L   136.25,   408.18  L   135.71,   408.18  L   135.20,   408.37  L   134.78,   408.71  L   135.18,   409.43  L   135.18,   410.01  L   135.55,   410.45  L   136.12,   410.55  L   136.63,   410.26  L   136.83,   409.72  L   136.63,   409.17  L   136.12,   408.88  L   135.55,   408.98  L   135.98,   409.72  " /><path style="stroke-width: 0.85 ;&st7;  " d=" M   134.78,   349.22  L   134.51,   349.69  L   134.42,   350.23  L   134.51,   350.76  L   134.78,   351.23  L   135.20,   351.58  L   135.71,   351.76  L   136.25,   351.76  L   136.76,   351.58  L   137.17,   351.23  L   137.44,   350.76  L   137.54,   350.23  L   137.44,   349.69  L   137.17,   349.22  L   136.76,   348.88  L   136.25,   348.69  L   135.71,   348.69  L   135.20,   348.88  L   134.78,   349.22  L   135.18,   349.94  L   135.18,   350.52  L   135.55,   350.96  L   136.12,   351.06  L   136.63,   350.77  L   136.83,   350.23  L   136.63,   349.68  L   136.12,   349.39  L   135.55,   349.49  L   135.98,   350.23  " /><path style="stroke-width: 0.85 ;&st7;  " d=" M   135.98,   469.21  L   161.47,   469.21  " /><path style="stroke-width: 0.85 ;&st7;  " d=" M   135.98,   350.23  L   356.94,   350.23  " /><path style="stroke-width: 0.85 ;&st7;  " d=" M   135.98,   350.23  L   135.98,   469.21  " /><path style="stroke-width: 0.85 ;&st7;  " d=" M   161.47,   426.71  L   161.47,   350.23  " /><path style="stroke-width: 0.85 ;&st7;  " d=" M   110.48,   392.72  L   110.48,   469.21  L   135.98,   469.21  " /><path style="stroke-width: 0.85 ;&st7;  " d=" M   135.98,   350.23  L   110.48,   350.23  L   110.48,   392.72  " /><path style="stroke-width: 0.85 ;&st7;  " d=" M   116.14,   437.83  L   114.40,   435.21  L   106.56,   435.21  L   104.82,   432.60  " /><path style="stroke-width: 0.28 ;&st9;  " d=" M   110.48,   435.21  L   116.15,   443.71  L   104.82,   443.71  L   110.48,   435.21  " /><path style="stroke-width: 0.85 ;&st7;  " d=" M   141.64,   437.83  L   139.90,   435.21  L   132.06,   435.21  L   130.31,   432.60  " /><path style="stroke-width: 0.28 ;&st9;  " d=" M   135.98,   435.21  L   141.64,   443.71  L   130.31,   443.71  L   135.98,   435.21  " /><path style="stroke-width: 0.85 ;&st7;  " d=" M   167.14,   437.83  L   165.39,   435.21  L   157.55,   435.21  L   155.81,   432.60  " /><path style="stroke-width: 0.28 ;&st9;  " d=" M   161.47,   435.21  L   167.14,   443.71  L   155.81,   443.71  L   161.47,   435.21  " /><path style="stroke-width: 0.85 ;&st7;  " d=" M   382.44,   316.23  L   382.44,   350.23  " /><path style="stroke-width: 0.85 ;&st7;  " d=" M   381.24,   527.69  L   380.97,   528.16  L   380.88,   528.70  L   380.97,   529.23  L   381.24,   529.70  L   381.66,   530.05  L   382.16,   530.23  L   382.71,   530.23  L   383.21,   530.05  L   383.63,   529.70  L   383.90,   529.23  L   383.99,   528.70  L   383.90,   528.16  L   383.63,   527.69  L   383.21,   527.35  L   382.71,   527.16  L   382.16,   527.16  L   381.66,   527.35  L   381.24,   527.69  L   381.64,   528.41  L   381.64,   528.99  L   382.01,   529.43  L   382.58,   529.53  L   383.09,   529.24  L   383.29,   528.70  L   383.09,   528.15  L   382.58,   527.86  L   382.01,   527.96  L   382.44,   528.70  " /><path style="stroke-width: 0.85 ;&st7;  " d=" M   381.24,   349.22  L   380.97,   349.69  L   380.88,   350.23  L   380.97,   350.76  L   381.24,   351.23  L   381.66,   351.58  L   382.16,   351.76  L   382.71,   351.76  L   383.21,   351.58  L   383.63,   351.23  L   383.90,   350.76  L   383.99,   350.23  L   383.90,   349.69  L   383.63,   349.22  L   383.21,   348.88  L   382.71,   348.69  L   382.16,   348.69  L   381.66,   348.88  L   381.24,   349.22  L   381.64,   349.94  L   381.64,   350.52  L   382.01,   350.96  L   382.58,   351.06  L   383.09,   350.77  L   383.29,   350.23  L   383.09,   349.68  L   382.58,   349.39  L   382.01,   349.49  L   382.44,   350.23  " /><path style="stroke-width: 0.85 ;&st7;  " d=" M   382.44,   469.21  L   407.93,   469.21  " /><path style="stroke-width: 0.85 ;&st7;  " d=" M   382.44,   350.23  L   433.43,   350.23  L   433.43,   384.22  " /><path style="stroke-width: 0.85 ;&st7;  " d=" M   382.44,   350.23  L   382.44,   469.21  " /><path style="stroke-width: 0.85 ;&st7;  " d=" M   407.93,   426.71  L   407.93,   350.23  " /><path style="stroke-width: 0.85 ;&st7;  " d=" M   356.94,   392.72  L   356.94,   469.21  L   382.44,   469.21  " /><path style="stroke-width: 0.85 ;&st7;  " d=" M   382.44,   350.23  L   356.94,   350.23  L   356.94,   392.72  " /><path style="stroke-width: 0.85 ;&st7;  " d=" M   362.60,   437.83  L   360.86,   435.21  L   353.02,   435.21  L   351.28,   432.60  " /><path style="stroke-width: 0.28 ;&st9;  " d=" M   356.94,   435.21  L   362.61,   443.71  L   351.27,   443.71  L   356.94,   435.21  " /><path style="stroke-width: 0.85 ;&st7;  " d=" M   388.10,   437.83  L   386.36,   435.21  L   378.52,   435.21  L   376.77,   432.60  " /><path style="stroke-width: 0.28 ;&st9;  " d=" M   382.44,   435.21  L   388.10,   443.71  L   376.77,   443.71  L   382.44,   435.21  " /><path style="stroke-width: 0.85 ;&st7;  " d=" M   413.59,   437.83  L   411.85,   435.21  L   404.01,   435.21  L   402.27,   432.60  " /><path style="stroke-width: 0.28 ;&st9;  " d=" M   407.93,   435.21  L   413.60,   443.71  L   402.27,   443.71  L   407.93,   435.21  " /><path style="stroke-width: 0.85 ;&st7;  " d=" M   413.59,   378.34  L   411.85,   375.72  L   404.01,   375.72  L   402.27,   373.11  " /><path style="stroke-width: 0.28 ;&st9;  " d=" M   407.93,   375.72  L   413.60,   384.22  L   402.27,   384.22  L   407.93,   375.72  " /><path style="stroke-width: 0.85 ;&st7;  " d=" M   362.60,   378.34  L   360.86,   375.72  L   353.02,   375.72  L   351.28,   373.11  " /><path style="stroke-width: 0.28 ;&st9;  " d=" M   356.94,   375.72  L   362.61,   384.22  L   351.27,   384.22  L   356.94,   375.72  " /><path style="stroke-width: 0.85 ;&st7;  " d=" M   388.10,   378.34  L   386.36,   375.72  L   378.52,   375.72  L   376.77,   373.11  " /><path style="stroke-width: 0.28 ;&st9;  " d=" M   382.44,   375.72  L   388.10,   384.22  L   376.77,   384.22  L   382.44,   375.72  " /><path style="stroke-width: 0.85 ;&st7;  " d=" M   381.24,   468.20  L   380.97,   468.67  L   380.88,   469.21  L   380.97,   469.74  L   381.24,   470.21  L   381.66,   470.56  L   382.16,   470.74  L   382.71,   470.74  L   383.21,   470.56  L   383.63,   470.21  L   383.90,   469.74  L   383.99,   469.21  L   383.90,   468.67  L   383.63,   468.20  L   383.21,   467.86  L   382.71,   467.67  L   382.16,   467.67  L   381.66,   467.86  L   381.24,   468.20  L   381.64,   468.92  L   381.64,   469.50  L   382.01,   469.94  L   382.58,   470.04  L   383.09,   469.75  L   383.29,   469.21  L   383.09,   468.66  L   382.58,   468.37  L   382.01,   468.47  L   382.44,   469.21  " /><path style="stroke-width: 0.85 ;&st7;  " d=" M   407.93,   469.21  L   407.93,   426.71  " /><path style="stroke-width: 0.85 ;&st7;  " d=" M   407.93,   426.71  L   339.94,   426.71  L   339.94,   460.71  L   237.96,   460.71  L   237.96,   429.34  " /><path style="stroke-width: 0.85 ;&st7;  " d=" M   331.44,   520.20  L   322.95,   520.20  L   322.95,   528.70  L   424.93,   528.70  " /><path style="stroke-width: 0.85 ;&st7;  " d=" M   216.68,   387.69  L   223.59,   375.72  " /><path style="stroke-width: 0.85 ;&st7;  " d=" M   424.93,   409.72  L   322.95,   409.72  L   322.95,   443.71  L   305.95,   443.71  L   305.95,   429.34  " /><path style="stroke-width: 0.85 ;&st7;  " d=" M   331.08,   520.20  L   339.94,   520.20  " /><path style="stroke-width: 0.85 ;&st7;  " d=" M   365.44,   520.20  L   424.93,   520.20  " /><path style="stroke-width: 0.85 ;&st7;  " d=" M   355.75,   391.72  L   355.48,   392.19  L   355.38,   392.72  L   355.48,   393.25  L   355.75,   393.72  L   356.16,   394.07  L   356.67,   394.26  L   357.21,   394.26  L   357.72,   394.07  L   358.13,   393.72  L   358.40,   393.25  L   358.50,   392.72  L   358.40,   392.19  L   358.13,   391.72  L   357.72,   391.37  L   357.21,   391.18  L   356.67,   391.18  L   356.16,   391.37  L   355.75,   391.72  L   356.14,   392.43  L   356.14,   393.01  L   356.52,   393.46  L   357.09,   393.56  L   357.59,   393.27  L   357.79,   392.72  L   357.59,   392.17  L   357.09,   391.88  L   356.52,   391.98  L   356.94,   392.72  " /><path style="stroke-width: 0.85 ;&st7;  " d=" M   205.50,   409.99  L   205.50,   409.45  L   205.31,   408.94  L   204.97,   408.52  L   204.50,   408.25  L   203.97,   408.16  L   203.43,   408.25  L   202.96,   408.52  L   202.62,   408.94  L   202.43,   409.45  L   202.43,   409.99  L   202.62,   410.50  L   202.96,   410.91  L   203.43,   411.18  L   203.97,   411.28  L   204.50,   411.18  L   204.97,   410.91  L   205.31,   410.50  L   205.50,   409.99  L   204.80,   409.57  L   204.51,   409.07  L   203.97,   408.87  L   203.42,   409.07  L   203.13,   409.57  L   203.23,   410.14  L   203.67,   410.52  L   204.26,   410.52  L   204.70,   410.14  L   203.97,   409.72  " /><path style="stroke-width: 0.85 ;&st7;  " d=" M   381.24,   408.71  L   380.97,   409.18  L   380.88,   409.72  L   380.97,   410.25  L   381.24,   410.72  L   381.66,   411.07  L   382.16,   411.25  L   382.71,   411.25  L   383.21,   411.07  L   383.63,   410.72  L   383.90,   410.25  L   383.99,   409.72  L   383.90,   409.18  L   383.63,   408.71  L   383.21,   408.37  L   382.71,   408.18  L   382.16,   408.18  L   381.66,   408.37  L   381.24,   408.71  L   381.64,   409.43  L   381.64,   410.01  L   382.01,   410.45  L   382.58,   410.55  L   383.09,   410.26  L   383.29,   409.72  L   383.09,   409.17  L   382.58,   408.88  L   382.01,   408.98  L   382.44,   409.72  " /><path style="stroke-width: 0.85 ;&st7;  " d=" M   406.74,   425.71  L   406.47,   426.18  L   406.37,   426.71  L   406.47,   427.25  L   406.74,   427.72  L   407.15,   428.06  L   407.66,   428.25  L   408.20,   428.25  L   408.71,   428.06  L   409.12,   427.72  L   409.40,   427.25  L   409.49,   426.71  L   409.40,   426.18  L   409.12,   425.71  L   408.71,   425.37  L   408.20,   425.18  L   407.66,   425.18  L   407.15,   425.37  L   406.74,   425.71  L   407.13,   426.42  L   407.13,   427.01  L   407.51,   427.45  L   408.08,   427.55  L   408.58,   427.26  L   408.78,   426.71  L   408.58,   426.17  L   408.08,   425.88  L   407.51,   425.98  L   407.93,   426.71  " /><path style="stroke-width: 0.85 ;&st7;   " d=" M   208.22,   417.08  C   206.52    418.05    205.94    420.22    206.92    421.92  " /><path style="stroke-width: 0.85 ;&st7;   " d=" M   206.92,   421.92  C   207.90    423.61    210.06    424.19    211.76    423.21  " /><path style="stroke-width: 0.85 ;&st7;   " d=" M   211.76,   423.21  C   212.61    422.72    213.17    421.99    213.42    421.03  " /><path style="stroke-width: 0.85 ;&st7;  " d=" M   406.74,   349.22  L   406.47,   349.69  L   406.37,   350.23  L   406.47,   350.76  L   406.74,   351.23  L   407.15,   351.58  L   407.66,   351.76  L   408.20,   351.76  L   408.71,   351.58  L   409.12,   351.23  L   409.40,   350.76  L   409.49,   350.23  L   409.40,   349.69  L   409.12,   349.22  L   408.71,   348.88  L   408.20,   348.69  L   407.66,   348.69  L   407.15,   348.88  L   406.74,   349.22  L   407.13,   349.94  L   407.13,   350.52  L   407.51,   350.96  L   408.08,   351.06  L   408.58,   350.77  L   408.78,   350.23  L   408.58,   349.68  L   408.08,   349.39  L   407.51,   349.49  L   407.93,   350.23  " /><path style="stroke-width: 0.28 ;&st9;  " d=" M   110.48,   375.72  L   116.15,   384.22  L   104.82,   384.22  L   110.48,   375.72  " /><path style="stroke-width: 0.85 ;&st7;  " d=" M   141.64,   378.34  L   139.90,   375.72  L   132.06,   375.72  L   130.31,   373.11  " /><path style="stroke-width: 0.28 ;&st9;  " d=" M   135.98,   375.72  L   141.64,   384.22  L   130.31,   384.22  L   135.98,   375.72  " /><path style="stroke-width: 0.85 ;&st7;  " d=" M   161.47,   469.21  L   161.47,   426.71  " /><path style="stroke-width: 0.85 ;&st7;  " d=" M   161.47,   469.21  L   356.94,   469.21  " /><path style="stroke-width: 0.85 ;&st7;  " d=" M   116.14,   378.34  L   114.40,   375.72  L   106.56,   375.72  L   104.82,   373.11  " /><path style="stroke-width: 0.85 ;&st7;  " d=" M   134.78,   468.20  L   134.51,   468.67  L   134.42,   469.21  L   134.51,   469.74  L   134.78,   470.21  L   135.20,   470.56  L   135.71,   470.74  L   136.25,   470.74  L   136.76,   470.56  L   137.17,   470.21  L   137.44,   469.74  L   137.54,   469.21  L   137.44,   468.67  L   137.17,   468.20  L   136.76,   467.86  L   136.25,   467.67  L   135.71,   467.67  L   135.20,   467.86  L   134.78,   468.20  L   135.18,   468.92  L   135.18,   469.50  L   135.55,   469.94  L   136.12,   470.04  L   136.63,   469.75  L   136.83,   469.21  L   136.63,   468.66  L   136.12,   468.37  L   135.55,   468.47  L   135.98,   469.21  " /><path style="stroke-width: 0.28 ;&st9;  " d=" M   161.47,   375.72  L   167.14,   384.22  L   155.81,   384.22  L   161.47,   375.72  " /><path style="stroke-width: 0.85 ;&st7;  " d=" M   161.47,   392.72  L   178.47,   392.72  L   178.47,   375.72  " /><path style="stroke-width: 0.85 ;&st7;  " d=" M   110.48,   426.71  L   178.47,   426.71  L   178.47,   443.71  L   223.59,   443.71  " /><path style="stroke-width: 0.85 ;&st7;  " d=" M   160.28,   349.22  L   160.01,   349.69  L   159.91,   350.23  L   160.01,   350.76  L   160.28,   351.23  L   160.69,   351.58  L   161.20,   351.76  L   161.74,   351.76  L   162.25,   351.58  L   162.67,   351.23  L   162.94,   350.76  L   163.03,   350.23  L   162.94,   349.69  L   162.67,   349.22  L   162.25,   348.88  L   161.74,   348.69  L   161.20,   348.69  L   160.69,   348.88  L   160.28,   349.22  L   160.67,   349.94  L   160.67,   350.52  L   161.05,   350.96  L   161.62,   351.06  L   162.12,   350.77  L   162.32,   350.23  L   162.12,   349.68  L   161.62,   349.39  L   161.05,   349.49  L   161.47,   350.23  " /><path style="stroke-width: 0.85 ;&st7;  " d=" M   167.14,   378.34  L   165.39,   375.72  L   157.55,   375.72  L   155.81,   373.11  " /><path style="stroke-width: 1.42 ;&st7;  " d=" M    84.99,   316.23  L   501.42,   316.23  L   501.42,   562.69  L    84.99,   562.69  L    84.99,   316.23  " /><path style="stroke-width: 1.42 ;&st7;  " d=" M   424.93,   384.22  L   484.42,   384.22  L   484.42,   545.69  L   424.93,   545.69  L   424.93,   384.22  " /><path style="stroke-width: 0.85 ;&st7;  " d=" M   475.92,   316.23  L   475.92,   384.22  " /><path style="stroke-width: 0.85 ;&st7;   " d=" M   279.31,   413.97  C   278.34    415.66    278.92    417.83    280.61    418.80  " /><path style="stroke-width: 0.85 ;&st7;   " d=" M   280.61,   418.80  C   282.31    419.78    284.47    419.20    285.45    417.51  " /><path style="stroke-width: 0.85 ;&st7;   " d=" M   285.45,   417.51  C   285.95    416.65    286.06    415.74    285.79    414.78  " /><path style="stroke-width: 0.85 ;&st7;   " d=" M   285.79,   414.78  C   283.90    415.27    282.76    417.20    283.24    419.10  " /><path style="stroke-width: 0.85 ;&st7;   " d=" M   283.24,   419.10  C   283.73    420.99    285.66    422.13    287.56    421.65  " /><path style="stroke-width: 0.85 ;&st7;   " d=" M   287.56,   421.65  C   289.45    421.16    290.59    419.23    290.10    417.33  " /><path style="stroke-width: 0.85 ;&st7;   " d=" M   290.10,   417.33  C   290.10    417.31    290.09    417.29    290.09    417.26  " /><path style="stroke-width: 0.85 ;&st7;   " d=" M   290.08,   417.26  C   288.19    417.75    287.05    419.68    287.54    421.58  " /><path style="stroke-width: 0.85 ;&st7;   " d=" M   287.54,   421.58  C   288.03    423.47    289.96    424.61    291.85    424.12  " /><path style="stroke-width: 0.85 ;&st7;   " d=" M   291.85,   424.12  C   292.81    423.88    293.54    423.32    294.04    422.47  " /><path style="stroke-width: 0.85 ;&st7;   " d=" M   274.48,   395.20  C   273.12    393.80    270.87    393.78    269.48    395.15  " /><path style="stroke-width: 0.85 ;&st7;   " d=" M   269.48,   395.15  C   268.08    396.52    268.06    398.76    269.42    400.16  " /><path style="stroke-width: 0.85 ;&st7;   " d=" M   269.42,   400.16  C   270.12    400.86    270.96    401.22    271.95    401.22  " /><path style="stroke-width: 0.85 ;&st7;   " d=" M   274.48,   390.24  C   273.12    388.84    270.87    388.82    269.48    390.19  " /><path style="stroke-width: 0.85 ;&st7;   " d=" M   269.48,   390.19  C   268.08    391.56    268.06    393.80    269.42    395.20  " /><path style="stroke-width: 0.85 ;&st7;   " d=" M   269.42,   395.20  C   270.79    396.60    273.04    396.62    274.43    395.25  " /><path style="stroke-width: 0.85 ;&st7;   " d=" M   274.43,   395.25  C   274.45    395.23    274.47    395.22    274.48    395.20  " /><path style="stroke-width: 0.85 ;&st7;   " d=" M   271.95,   384.22  C   270.00    384.22    268.41    385.81    268.41    387.76  " /><path style="stroke-width: 0.85 ;&st7;   " d=" M   268.41,   387.76  C   268.41    389.72    270.00    391.30    271.95    391.30  " /><path style="stroke-width: 0.85 ;&st7;   " d=" M   271.95,   391.30  C   272.95    391.30    273.79    390.95    274.48    390.24  " /><path style="stroke-width: 0.85 ;&st7;   " d=" M   264.59,   413.97  C   263.62    412.27    261.45    411.69    259.76    412.67  " /><path style="stroke-width: 0.85 ;&st7;   " d=" M   259.76,   412.67  C   258.06    413.65    257.48    415.81    258.46    417.51  " /><path style="stroke-width: 0.85 ;&st7;   " d=" M   258.46,   417.51  C   258.95    418.37    259.69    418.92    260.65    419.17  " /><path style="stroke-width: 0.85 ;&st7;   " d=" M   260.65,   419.17  C   261.17    417.28    260.07    415.33    258.19    414.80  " /><path style="stroke-width: 0.85 ;&st7;   " d=" M   258.19,   414.80  C   256.30    414.28    254.35    415.38    253.82    417.26  " /><path style="stroke-width: 0.85 ;&st7;   " d=" M   253.82,   417.26  C   253.30    419.15    254.40    421.10    256.28    421.63  " /><path style="stroke-width: 0.85 ;&st7;   " d=" M   256.28,   421.63  C   256.31    421.63    256.33    421.64    256.35    421.64  " /><path style="stroke-width: 0.85 ;&st7;   " d=" M   256.35,   421.65  C   256.88    419.76    255.78    417.81    253.89    417.28  " /><path style="stroke-width: 0.85 ;&st7;   " d=" M   253.89,   417.28  C   252.01    416.76    250.06    417.86    249.53    419.74  " /><path style="stroke-width: 0.85 ;&st7;   " d=" M   249.53,   419.74  C   249.26    420.70    249.38    421.61    249.87    422.47  " /><path style="stroke-width: 0.85 ;&st7;   " d=" M   208.22,   402.36  C   209.91    403.33    212.08    402.75    213.05    401.06  " /><path style="stroke-width: 0.85 ;&st7;   " d=" M   213.05,   401.06  C   214.03    399.37    213.45    397.20    211.76    396.22  " /><path style="stroke-width: 0.85 ;&st7;   " d=" M   211.76,   396.22  C   210.90    395.73    209.99    395.61    209.03    395.88  " /><path style="stroke-width: 0.85 ;&st7;   " d=" M   209.03,   395.88  C   209.52    397.77    211.45    398.91    213.35    398.43  " /><path style="stroke-width: 0.85 ;&st7;   " d=" M   213.35,   398.43  C   215.24    397.94    216.38    396.01    215.90    394.12  " /><path style="stroke-width: 0.85 ;&st7;   " d=" M   215.90,   394.12  C   215.41    392.22    213.48    391.08    211.58    391.57  " /><path style="stroke-width: 0.85 ;&st7;   " d=" M   211.58,   391.57  C   211.56    391.57    211.54    391.58    211.51    391.59  " /><path style="stroke-width: 0.85 ;&st7;   " d=" M   211.51,   391.59  C   212.00    393.48    213.93    394.62    215.83    394.13  " /><path style="stroke-width: 0.85 ;&st7;   " d=" M   215.83,   394.13  C   217.72    393.65    218.86    391.71    218.37    389.82  " /><path style="stroke-width: 0.85 ;&st7;   " d=" M   218.37,   389.82  C   218.13    388.86    217.57    388.13    216.72    387.64  " /><path style="stroke-width: 0.85 ;&st7;   " d=" M   189.45,   407.19  C   188.05    408.56    188.03    410.80    189.40    412.20  " /><path style="stroke-width: 0.85 ;&st7;   " d=" M   189.40,   412.20  C   190.77    413.59    193.01    413.62    194.41    412.25  " /><path style="stroke-width: 0.85 ;&st7;   " d=" M   194.41,   412.25  C   195.11    411.55    195.47    410.71    195.47    409.72  " /><path style="stroke-width: 0.85 ;&st7;   " d=" M   184.49,   407.19  C   183.09    408.56    183.07    410.80    184.44    412.20  " /><path style="stroke-width: 0.85 ;&st7;   " d=" M   184.44,   412.20  C   185.81    413.59    188.05    413.62    189.45    412.25  " /><path style="stroke-width: 0.85 ;&st7;   " d=" M   189.45,   412.25  C   190.84    410.88    190.87    408.64    189.50    407.24  " /><path style="stroke-width: 0.85 ;&st7;   " d=" M   189.50,   407.24  C   189.48    407.22    189.47    407.20    189.45    407.19  " /><path style="stroke-width: 0.85 ;&st7;   " d=" M   178.47,   409.72  C   178.47    411.67    180.06    413.26    182.01    413.26  " /><path style="stroke-width: 0.85 ;&st7;   " d=" M   182.01,   413.26  C   183.97    413.26    185.55    411.67    185.55    409.72  " /><path style="stroke-width: 0.85 ;&st7;   " d=" M   185.55,   409.72  C   185.55    408.73    185.20    407.88    184.49    407.19  " /><path style="stroke-width: 0.85 ;&st7;   " d=" M   213.42,   421.03  C   211.53    420.50    209.58    421.60    209.05    423.48  " /><path style="stroke-width: 0.85 ;&st7;   " d=" M   209.05,   423.48  C   208.53    425.37    209.63    427.32    211.51    427.85  " /><path style="stroke-width: 0.85 ;&st7;   " d=" M   211.51,   427.85  C   213.40    428.37    215.35    427.27    215.88    425.39  " /><path style="stroke-width: 0.85 ;&st7;   " d=" M   215.88,   425.39  C   215.88    425.36    215.89    425.34    215.89    425.32  " /><path style="stroke-width: 0.85 ;&st7;   " d=" M   215.90,   425.32  C   214.01    424.79    212.06    425.90    211.53    427.78  " /><path style="stroke-width: 0.85 ;&st7;   " d=" M   211.53,   427.78  C   211.01    429.66    212.11    431.62    213.99    432.14  " /><path style="stroke-width: 0.85 ;&st7;   " d=" M   213.99,   432.14  C   214.95    432.41    215.86    432.29    216.71    431.80  " /><path style="stroke-width: 0.85 ;&st7;   " d=" M   356.94,   520.20  C   356.94    518.24    355.35    516.66    353.40    516.66  " /><path style="stroke-width: 0.85 ;&st7;   " d=" M   353.40,   516.66  C   351.44    516.66    349.86    518.24    349.86    520.20  " /><path style="stroke-width: 0.85 ;&st7;   " d=" M   349.86,   520.20  C   349.86    521.19    350.21    522.03    350.92    522.73  " /><path style="stroke-width: 0.85 ;&st7;   " d=" M   350.92,   522.73  C   352.32    521.36    352.34    519.12    350.97    517.72  " /><path style="stroke-width: 0.85 ;&st7;   " d=" M   350.97,   517.72  C   349.60    516.32    347.36    516.30    345.96    517.67  " /><path style="stroke-width: 0.85 ;&st7;   " d=" M   345.96,   517.67  C   344.57    519.04    344.54    521.28    345.91    522.68  " /><path style="stroke-width: 0.85 ;&st7;   " d=" M   345.91,   522.68  C   345.93    522.70    345.94    522.71    345.96    522.73  " /><path style="stroke-width: 0.85 ;&st7;  " d=" M   279.31,   413.97  L   271.95,   409.72  " /><path style="stroke-width: 0.85 ;&st7;  " d=" M   271.95,   401.22  L   271.95,   409.72  " /><path style="stroke-width: 0.85 ;&st7;  " d=" M   237.96,   429.34  L   249.88,   422.46  " /><path style="stroke-width: 0.85 ;&st7;  " d=" M   264.59,   413.97  L   271.95,   409.72  " /><path style="stroke-width: 0.85 ;&st7;  " d=" M   208.22,   402.36  L   203.97,   409.72  " /><path style="stroke-width: 0.85 ;&st7;  " d=" M   178.47,   375.72  L   223.59,   375.72  " /><path style="stroke-width: 0.85 ;&st7;  " d=" M   195.47,   409.72  L   203.97,   409.72  " /><path style="stroke-width: 0.85 ;&st7;  " d=" M   135.98,   409.72  L   178.47,   409.72  " /><path style="stroke-width: 0.85 ;&st7;  " d=" M   356.94,   520.20  L   365.44,   520.20  " /><path style="stroke-width: 0.85 ;&st7;  " d=" M   223.59,   443.71  L   216.71,   431.80  " /><path style="stroke-width: 0.85 ;&st7;  " d=" M   208.22,   417.08  L   203.97,   409.72  " /><text style="font-size:6px;font-family:'NSimSun';" transform="matrix(&st16;  373.74  313.67 )">1</text><text style="font-size:6px;font-family:'NSimSun';" transform="matrix(&st16;  380.13  313.67 )">A</text><path style="stroke-width: 1.42 ;&st7;   " d=" M   386.97,   311.70  C   386.97    309.20    384.94    307.17    382.44    307.17  " /><path style="stroke-width: 1.42 ;&st7;   " d=" M   382.44,   307.17  C   379.93    307.17    377.90    309.20    377.90    311.70  " /><path style="stroke-width: 1.42 ;&st7;   " d=" M   377.90,   311.70  C   377.90    314.20    379.93    316.23    382.44    316.23  " /><path style="stroke-width: 1.42 ;&st7;   " d=" M   382.44,   316.23  C   384.94    316.23    386.97    314.20    386.97    311.70  " /><text style="font-size:6px;font-family:'NSimSun';" transform="matrix(&st16;  467.23  313.67 )">2</text><text style="font-size:6px;font-family:'NSimSun';" transform="matrix(&st16;  473.73  313.67 )">B</text><path style="stroke-width: 1.42 ;&st7;   " d=" M   480.45,   311.70  C   480.45    309.20    478.42    307.17    475.92    307.17  " /><path style="stroke-width: 1.42 ;&st7;   " d=" M   475.92,   307.17  C   473.42    307.17    471.39    309.20    471.39    311.70  " /><path style="stroke-width: 1.42 ;&st7;   " d=" M   471.39,   311.70  C   471.39    314.20    473.42    316.23    475.92    316.23  " /><path style="stroke-width: 1.42 ;&st7;   " d=" M   475.92,   316.23  C   478.42    316.23    480.45    314.20    480.45    311.70  " /><g ewd:figtype="title"><text style="font-size:6px;font-family:'NSimSun';" transform="matrix(&st16;  81.57  305.43 )">B1(A),B17(B)</text><text style="font-size:6px;font-family:'NSimSun';" transform="matrix(&st16;  81.58  312.54 )" ewd:textID="8">发电机总成</text></g></g><g ewd:figtype="jb" ewd:figID="18" ewd:code="1"><text style="font-size:6px;font-family:'NSimSun';" transform="matrix(&st16;  29.98  390.44 )">1G</text><text style="font-size:6px;font-family:'NSimSun';" transform="matrix(&st16;  23.49  390.44 )">1</text><path style="stroke-width: 1.42 ;&st7;   " d=" M    31.87,   384.22  C    29.52    384.22     27.62    386.12     27.62    388.47  " /><path style="stroke-width: 1.42 ;&st7;   " d=" M    27.62,   388.47  C    27.62    390.82     29.52    392.72     31.87    392.72  " /><path style="stroke-width: 1.42 ;&st7;   " d=" M    36.12,   392.72  C    38.47    392.72     40.37    390.82     40.37    388.47  " /><path style="stroke-width: 1.42 ;&st7;   " d=" M    40.37,   388.47  C    40.37    386.12     38.47    384.22     36.12    384.22  " /><path style="stroke-width: 1.42 ;&st7;  " d=" M    36.12,   384.22  L    31.87,   384.22  " /><path style="stroke-width: 1.42 ;&st7;  " d=" M    36.12,   392.72  L    31.87,   392.72  " /></g><g ewd:figtype="jb" ewd:figID="22" ewd:code="1"><text style="font-size:6px;font-family:'NSimSun';" transform="matrix(&st16;  29.94  288.46 )">1H</text><text style="font-size:6px;font-family:'NSimSun';" transform="matrix(&st16;  23.49  288.46 )">1</text><path style="stroke-width: 1.42 ;&st7;   " d=" M    31.87,   282.24  C    29.52    282.24     27.62    284.14     27.62    286.49  " /><path style="stroke-width: 1.42 ;&st7;   " d=" M    27.62,   286.49  C    27.62    288.83     29.52    290.74     31.87    290.74  " /><path style="stroke-width: 1.42 ;&st7;   " d=" M    36.12,   290.74  C    38.47    290.74     40.37    288.83     40.37    286.49  " /><path style="stroke-width: 1.42 ;&st7;   " d=" M    40.37,   286.49  C    40.37    284.14     38.47    282.24     36.12    282.24  " /><path style="stroke-width: 1.42 ;&st7;  " d=" M    36.12,   290.74  L    31.87,   290.74  " /><path style="stroke-width: 1.42 ;&st7;  " d=" M    36.12,   282.24  L    31.87,   282.24  " /></g><g ewd:figtype="gp" ewd:figID="27" ewd:code="CB"><path style="stroke-width: 0.85 ;&st7;  " d=" M    33.99,   697.25  L    33.99,   701.50  " /><path style="stroke-width: 0.85 ;&st7;  " d=" M    25.50,   701.50  L    42.49,   701.50  " /><path style="stroke-width: 0.85 ;&st7;  " d=" M    29.75,   704.33  L    38.24,   704.33  " /><path style="stroke-width: 0.85 ;&st7;  " d=" M    31.16,   707.17  L    36.83,   707.17  " /><path style="stroke-width: 0.85 ;&st7;  " d=" M    32.58,   710.00  L    35.41,   710.00  " /></g><g ewd:figtype="gp" ewd:figID="28" ewd:code="CA"><path style="stroke-width: 0.85 ;&st7;  " d=" M    76.49,   697.25  L    76.49,   701.50  " /><path style="stroke-width: 0.85 ;&st7;  " d=" M    67.99,   701.50  L    84.99,   701.50  " /><path style="stroke-width: 0.85 ;&st7;  " d=" M    72.24,   704.33  L    80.74,   704.33  " /><path style="stroke-width: 0.85 ;&st7;  " d=" M    73.65,   707.17  L    79.32,   707.17  " /><path style="stroke-width: 0.85 ;&st7;  " d=" M    75.07,   710.00  L    77.90,   710.00  " /></g><g ewd:figtype="annex" ewd:figID="15" ewd:code=" "><path style="stroke-width: 1.42 ;&st7;   " d=" M    33.99,   466.37  C    30.87    467.51     29.25    470.98     30.39    474.10  " /><path style="stroke-width: 1.42 ;&st7;   " d=" M    30.39,   474.10  C    31.03    475.84     32.26    477.07     33.99    477.71  " /><path style="stroke-width: 1.42 ;&st7;   " d=" M    36.83,   463.54  C    36.83    461.98     35.56    460.71     33.99    460.71  " /><path style="stroke-width: 1.42 ;&st7;   " d=" M    33.99,   460.71  C    32.43    460.71     31.16    461.98     31.16    463.54  " /><path style="stroke-width: 1.42 ;&st7;   " d=" M    31.16,   463.54  C    31.16    465.11     32.43    466.37     33.99    466.37  " /><path style="stroke-width: 1.42 ;&st7;   " d=" M    33.99,   466.37  C    35.56    466.37     36.83    465.11     36.83    463.54  " /><path style="stroke-width: 0.85 ;&st7;  " d=" M    33.99,   494.70  L    33.99,   528.13  " /><path style="stroke-width: 1.42 ;&st7;   " d=" M    34.00,   489.04  C    37.13    487.90     38.74    484.44     37.60    481.31  " /><path style="stroke-width: 1.42 ;&st7;   " d=" M    37.60,   481.31  C    36.96    479.57     35.73    478.34     33.99    477.70  " /><path style="stroke-width: 1.42 ;&st7;   " d=" M    36.83,   491.87  C    36.83    490.31     35.56    489.04     33.99    489.04  " /><path style="stroke-width: 1.42 ;&st7;   " d=" M    33.99,   489.04  C    32.43    489.04     31.16    490.31     31.16    491.87  " /><path style="stroke-width: 1.42 ;&st7;   " d=" M    31.16,   491.87  C    31.16    493.43     32.43    494.70     33.99    494.70  " /><path style="stroke-width: 1.42 ;&st7;   " d=" M    33.99,   494.70  C    35.56    494.70     36.83    493.43     36.83    491.87  " /><text style="font-size:6px;font-family:'NSimSun';" transform="matrix(&st16;  39.09  476.85 )">FL MAIN <tspan x="0 " dy="6.0">3.0W</tspan></text></g><g ewd:figtype="annex" ewd:figID="38" ewd:code=" "><path style="stroke-width: 0.85 ;&st7;  " d=" M   379.60,   585.35  L   385.27,   585.35  " /><path style="stroke-width: 0.85 ;&st7;  " d=" M   378.19,   582.52  L   386.69,   582.52  " /><path style="stroke-width: 0.85 ;&st7;  " d=" M   381.02,   588.19  L   383.85,   588.19  " /><path style="stroke-width: 0.85 ;&st7;  " d=" M   382.44,   469.21  L   382.44,   579.69  " /><path style="stroke-width: 0.85 ;&st7;  " d=" M   373.94,   579.69  L   390.93,   579.69  " /></g><g ewd:code="1" ewd:figID="42" ewd:comment="" ewd:figtype="comment"><text style="font-size:6px;font-family:'NSimSun';" transform="matrix(&st16;  234.55  63.24 )" ewd:textID="1">* 1 : 带 TFT 显示屏</text></g><g ewd:code="2" ewd:figID="41" ewd:comment="" ewd:figtype="comment"><text style="font-size:6px;font-family:'NSimSun';" transform="matrix(&st16;  234.55  71.74 )" ewd:textID="2">* 2 : 不带 TFT 显示屏</text></g></svg>