<?xml version="1.0" encoding="utf-8"?>
<!DOCTYPE svg PUBLIC "-//W3C//DTD SVG 1.0//EN" "http://www.w3.org/TR/2001/REC-SVG-20010904/DTD/svg10.dtd"[
	<!ENTITY ns_flows "http://ns.adobe.com/Flows/1.0/">
	<!ENTITY ns_svg "http://www.w3.org/2000/svg">
	<!ENTITY ns_xlink "http://www.w3.org/1999/xlink">
	<!ENTITY st0 "font-size:7px;font-family:'NSimSun';adobe-font-script:japanese;">
	<!ENTITY st1 "font-size:6px;font-family:'NSimSun';">
	<!-- White fill  -->
	<!ENTITY st2 "fill:#FFFFFF;stroke:#000000; stroke-width:1.41;stroke-linecap:round;stroke-linejoin:round;">
	<!-- Yellow fill  -->
	<!ENTITY st3 "fill:#FFFFCC;stroke:#FFFFCC; stroke-width:0.1;stroke-linecap:round;stroke-linejoin:round;">
	<!-- Gray fill  -->
	<!ENTITY st4 "fill:#CCCCCC;stroke:#CCCCCC; stroke-width:0.1;stroke-linecap:round;stroke-linejoin:round;">
	<!-- Light-blue fill -->
	<!ENTITY st5 "fill:#CCECF4;stroke:#000000; stroke-width:1.133;stroke-linecap:round;stroke-linejoin:round;">
	<!ENTITY st6 "fill:none;stroke-linecap:butt; stroke-linejoin:round;">
	<!ENTITY st7 "fill:none;stroke:#000000;stroke-linecap:round;stroke-linejoin:round;">
	<!ENTITY st8 "enable-background:new    ;">
	<!-- Black fill -->
	<!ENTITY st9 "fill:#000000;stroke:#000000; stroke-linecap:round;stroke-linejoin:round;">
	<!-- SRS note   -->
	<!ENTITY st10 "font-size:9px;font-family:'NSimSun';">
	<!ENTITY st11 "font-size:9px;font-family:'NSimSun';">
	<!ENTITY st12 "font-size:6px;font-family:'NSimSun';">
	<!ENTITY st13 "fill:none;stroke:#ff0000;stroke-linecap:round;stroke-linejoin:round;">
	<!-- Yellow fill  -->
	<!ENTITY st14 "fill:#FFFF00;stroke:#FFFF00; stroke-width:0.1;stroke-linecap:round;stroke-linejoin:round;">
	<!ENTITY st15 "font-size:6px;font-family:'NSimSun';adobe-font-script:japanese;">
	<!ENTITY st16 "1.00 0.00 0.00 1.00">
	<!ENTITY st17 "0.00 -1.00 1.00 0.00">
	<!ENTITY st18 "font-size:6px;font-family:'NSimSun';">
	<!ENTITY st19 "font-size:9px;font-family:'NSimSun';">
	<!ENTITY st20 "font-size:6px;font-family:'NSimSun';adobe-font-script:japanese;">
	<!ENTITY st21 "font-size:7px;font-family:'NSimSun';adobe-font-script:japanese;">
	<!ATTLIST svg
		xmlns:ewd CDATA #FIXED "http://shcl.co.jp/ewd"
		xmlns:a CDATA #FIXED "http://ns.adobe.com/AdobeSVGViewerExtensions/3.0/"
		ewd:ver CDATA #IMPLIED
	>
	<!ATTLIST a
		ewd:lineID CDATA #IMPLIED
		ewd:groupID CDATA #IMPLIED
		ewd:figtype CDATA #IMPLIED
		ewd:code CDATA #IMPLIED
		ewd:figID CDATA #IMPLIED
		ewd:pinNo CDATA #IMPLIED
		ewd:comment CDATA #IMPLIED >
	<!ATTLIST g
		ewd:lineID CDATA #IMPLIED
		ewd:groupID CDATA #IMPLIED
		ewd:figtype CDATA #IMPLIED
		ewd:code CDATA #IMPLIED
		ewd:figID CDATA #IMPLIED
		ewd:pinNo CDATA #IMPLIED
		ewd:comment CDATA #IMPLIED >
	<!ATTLIST text
		ewd:textID CDATA #IMPLIED
		ewd:horAlign CDATA #IMPLIED >
	<!ATTLIST title
		ewd:textID CDATA #IMPLIED >
]>
<!-- Generator: Shintec Hozumi YS   -->
<svg onload="call_execInitLoadProc_svg('system')" style="overflow:visible;  enable-background:new 0 0 3007.854 710.000" viewBox="0 0 2964.114 710.000" height="710.000" width="2964.114" xml:space="preserve" ewd:ver="2.1.2.6F" xmlns="&ns_svg;" xmlns:ewd="http://shcl.co.jp/ewd" xmlns:a="http://ns.adobe.com/AdobeSVGViewerExtensions/3.0/" xmlns:xlink="&ns_xlink;">
<text style="font-size:6px;font-family:'NSimSun';" transform="matrix(&st16;  2614.16  32.08 )" ewd:textID="18">主车身 ECU</text><text style="font-size:6px;font-family:'NSimSun';" transform="matrix(&st16;  2614.15  24.98 )">E36(A)</text><path style="stroke-width: 1.42 ;&st7;  " d=" M  2643.06,   180.26  L  2651.56,   180.26  " /><path style="stroke-width: 1.42 ;&st7;  " d=" M  2685.55,   180.26  L  2694.05,   180.26  " /><text style="font-size:6px;font-family:'NSimSun';" transform="matrix(&st17;  2647.86  131.73 )">W</text><text style="font-size:6px;font-family:'NSimSun';" transform="matrix(&st17;  2690.35  131.22 )">G</text><text style="font-size:6px;font-family:'NSimSun';" transform="matrix(&st17;  2690.35  224.71 )">G</text><text style="font-size:6px;font-family:'NSimSun';" transform="matrix(&st17;  2647.86  225.21 )">W</text><text style="font-size:6px;font-family:'NSimSun';" transform="matrix(&st17;  2647.86  327.2 )">W</text><text style="font-size:6px;font-family:'NSimSun';" transform="matrix(&st17;  2690.35  326.54 )">V</text><text style="font-size:6px;font-family:'NSimSun';" transform="matrix(&st17;  2809.33  207.32 )">L</text><text style="font-size:6px;font-family:'NSimSun';" transform="matrix(&st17;  2809.33  347.68 )">W-B</text><g ewd:figtype="conn" ewd:figID="4" ewd:code="A41,A42"><path style="stroke-width: 0.85 ;&st7; stroke-dasharray:3, 1.5;" d=" M  2660.05,   379.69  L  2677.05,   379.69  " /><path style="stroke-width: 0.85 ;&st7; stroke-dasharray:3, 1.5;" d=" M  2660.05,   370.62  L  2677.05,   370.62  " /><path style="stroke-width: 1.42 ;&st7;  " d=" M  2634.56,   384.22  L  2634.56,   418.22  L  2711.05,   418.22  L  2711.05,   384.22  L  2634.56,   384.22  " /><g ewd:lineID="63"><text style="font-size:6px;font-family:'NSimSun';" transform="matrix(&st16;  2639.76  381.66 )">14</text><text style="font-size:6px;font-family:'NSimSun';" transform="matrix(&st16;  2639.76  372.59 )">14</text><text style="font-size:6px;font-family:'NSimSun';" transform="matrix(&st16;  2649.25  372.59 )">A</text><path style="stroke-width: 1.42 ;&st7;   " d=" M  2656.09,   370.62  C  2656.09    368.12   2654.06    366.09   2651.56    366.09  " /><path style="stroke-width: 1.42 ;&st7;   " d=" M  2651.56,   366.09  C  2649.05    366.09   2647.02    368.12   2647.02    370.62  " /><path style="stroke-width: 1.42 ;&st7;   " d=" M  2647.02,   370.62  C  2647.02    373.13   2649.05    375.16   2651.56    375.16  " /><path style="stroke-width: 1.42 ;&st7;   " d=" M  2651.56,   375.16  C  2654.06    375.16   2656.09    373.13   2656.09    370.62  " /><path style="stroke-width: 1.42 ;&st7;   " d=" M  2656.09,   379.69  C  2656.09    377.19   2654.06    375.16   2651.56    375.16  " /><path style="stroke-width: 1.42 ;&st7;   " d=" M  2651.56,   375.16  C  2649.05    375.16   2647.02    377.19   2647.02    379.69  " /><path style="stroke-width: 1.42 ;&st7;   " d=" M  2647.02,   379.69  C  2647.02    382.19   2649.05    384.22   2651.56    384.22  " /><path style="stroke-width: 1.42 ;&st7;   " d=" M  2651.56,   384.22  C  2654.06    384.22   2656.09    382.19   2656.09    379.69  " /><text style="font-size:6px;font-family:'NSimSun';" transform="matrix(&st16;  2649.37  381.66 )">B</text><text style="font-size:6px;font-family:'NSimSun';" transform="matrix(&st16;  2643.2  391.86 )">CANL</text></g><g ewd:lineID="66"><text style="font-size:6px;font-family:'NSimSun';" transform="matrix(&st16;  2682.25  372.59 )">26</text><text style="font-size:6px;font-family:'NSimSun';" transform="matrix(&st16;  2682.25  381.66 )">26</text><text style="font-size:6px;font-family:'NSimSun';" transform="matrix(&st16;  2691.86  381.66 )">B</text><text style="font-size:6px;font-family:'NSimSun';" transform="matrix(&st16;  2691.75  372.59 )">A</text><path style="stroke-width: 1.42 ;&st7;   " d=" M  2698.58,   370.62  C  2698.58    368.12   2696.55    366.09   2694.05    366.09  " /><path style="stroke-width: 1.42 ;&st7;   " d=" M  2694.05,   366.09  C  2691.55    366.09   2689.52    368.12   2689.52    370.62  " /><path style="stroke-width: 1.42 ;&st7;   " d=" M  2689.52,   370.62  C  2689.52    373.13   2691.55    375.16   2694.05    375.16  " /><path style="stroke-width: 1.42 ;&st7;   " d=" M  2694.05,   375.16  C  2696.55    375.16   2698.58    373.13   2698.58    370.62  " /><path style="stroke-width: 1.42 ;&st7;   " d=" M  2698.58,   379.69  C  2698.58    377.19   2696.55    375.16   2694.05    375.16  " /><path style="stroke-width: 1.42 ;&st7;   " d=" M  2694.05,   375.16  C  2691.55    375.16   2689.52    377.19   2689.52    379.69  " /><path style="stroke-width: 1.42 ;&st7;   " d=" M  2689.52,   379.69  C  2689.52    382.19   2691.55    384.22   2694.05    384.22  " /><path style="stroke-width: 1.42 ;&st7;   " d=" M  2694.05,   384.22  C  2696.55    384.22   2698.58    382.19   2698.58    379.69  " /><text style="font-size:6px;font-family:'NSimSun';" transform="matrix(&st16;  2685.27  391.86 )">CANH</text></g><g ewd:figtype="title"><text style="font-size:6px;font-family:'NSimSun';" transform="matrix(&st16;  2639.65  432.93 )" ewd:textID="5">制动执行器总成</text><text style="font-size:6px;font-family:'NSimSun';" transform="matrix(&st16;  2639.65  426.11 )">A41(A),A42(B)</text></g></g><g ewd:figtype="conn" ewd:figID="6" ewd:code="A39"><path style="stroke-width: 1.42 ;&st7;  " d=" M  2643.06,   265.24  L  2643.06,   282.24  L  2702.55,   282.24  L  2702.55,   265.24  L  2643.06,   265.24  " /><path style="stroke-width: 0.85 ;&st7;  " d=" M  2651.56,   265.24  L  2651.56,   282.24  " /><path style="stroke-width: 0.85 ;&st7;  " d=" M  2694.05,   265.24  L  2694.05,   282.24  " /><text style="font-size:6px;font-family:'NSimSun';" transform="matrix(&st16;  2642.27  290.43 )">16</text><text style="font-size:6px;font-family:'NSimSun';" transform="matrix(&st16;  2642.27  261.55 )">14</text><text style="font-size:6px;font-family:'NSimSun';" transform="matrix(&st16;  2687.87  290.43 )">5</text><text style="font-size:6px;font-family:'NSimSun';" transform="matrix(&st16;  2687.87  261.55 )">3</text><g ewd:figtype="title"><text style="font-size:6px;font-family:'NSimSun';" transform="matrix(&st16;  2704.81  274.29 )" ewd:textID="19">1 号 CAN<tspan x="0 " dy="6.0">接线连接器</tspan></text><text style="font-size:6px;font-family:'NSimSun';" transform="matrix(&st16;  2704.8  267.47 )">A39</text></g></g><g ewd:figtype="conn" ewd:figID="17" ewd:code="L16"><path style="stroke-width: 0.85 ;&st7;  " d=" M  2813.03,   269.49  L  2813.03,   265.24  " /><path style="stroke-width: 1.42 ;&st7;  " d=" M  2813.03,   292.15  L  2818.70,   269.49  " /><path style="stroke-width: 0.85 ;&st7;  " d=" M  2813.03,   299.24  L  2813.03,   294.99  " /><path style="stroke-width: 0.85 ;&st7;   " d=" M  2814.45,   270.91  C  2814.45    270.12   2813.81    269.49   2813.03    269.49  " /><path style="stroke-width: 0.85 ;&st7;   " d=" M  2813.03,   269.49  C  2812.25    269.49   2811.61    270.12   2811.61    270.91  " /><path style="stroke-width: 0.85 ;&st7;   " d=" M  2811.61,   270.91  C  2811.61    271.69   2812.25    272.32   2813.03    272.32  " /><path style="stroke-width: 0.85 ;&st7;   " d=" M  2813.03,   272.32  C  2813.81    272.32   2814.45    271.69   2814.45    270.91  " /><path style="stroke-width: 0.85 ;&st7;   " d=" M  2814.45,   293.57  C  2814.45    292.79   2813.81    292.15   2813.03    292.15  " /><path style="stroke-width: 0.85 ;&st7;   " d=" M  2813.03,   292.15  C  2812.25    292.15   2811.61    292.79   2811.61    293.57  " /><path style="stroke-width: 0.85 ;&st7;   " d=" M  2811.61,   293.57  C  2811.61    294.35   2812.25    294.99   2813.03    294.99  " /><path style="stroke-width: 0.85 ;&st7;   " d=" M  2813.03,   294.99  C  2813.81    294.99   2814.45    294.35   2814.45    293.57  " /><path style="stroke-width: 1.42 ;&st7;  " d=" M  2821.53,   299.24  L  2821.53,   265.24  L  2804.53,   265.24  L  2804.53,   299.24  L  2821.53,   299.24  " /><text style="font-size:6px;font-family:'NSimSun';" transform="matrix(&st16;  2806.85  307.43 )">2</text><text style="font-size:6px;font-family:'NSimSun';" transform="matrix(&st16;  2806.85  261.55 )">3</text><g ewd:figtype="title"><text style="font-size:6px;font-family:'NSimSun';" transform="matrix(&st17;  2836.25  302.14 )" ewd:textID="14">前排左侧座椅内安全带总成</text><text style="font-size:6px;font-family:'NSimSun';" transform="matrix(&st17;  2829.42  302.13 )">L16</text></g></g><g ewd:figtype="conn" ewd:figID="18" ewd:code="E36"><g ewd:lineID="65"><text style="font-size:6px;font-family:'NSimSun';" transform="matrix(&st16;  2639.76  93.27 )">13</text><text style="font-size:6px;font-family:'NSimSun';" transform="matrix(&st16;  2649.25  93.27 )">A</text><path style="stroke-width: 1.42 ;&st7;   " d=" M  2656.09,    91.30  C  2656.09     88.80   2654.06     86.77   2651.56     86.77  " /><path style="stroke-width: 1.42 ;&st7;   " d=" M  2651.56,    86.77  C  2649.05     86.77   2647.02     88.80   2647.02     91.30  " /><path style="stroke-width: 1.42 ;&st7;   " d=" M  2647.02,    91.30  C  2647.02     93.81   2649.05     95.84   2651.56     95.84  " /><path style="stroke-width: 1.42 ;&st7;   " d=" M  2651.56,    95.84  C  2654.06     95.84   2656.09     93.81   2656.09     91.30  " /><text style="font-size:6px;font-family:'NSimSun';" transform="matrix(&st16;  2643.2  83.07 )">CANL</text></g><g ewd:lineID="68"><text style="font-size:6px;font-family:'NSimSun';" transform="matrix(&st16;  2682.25  93.27 )">14</text><text style="font-size:6px;font-family:'NSimSun';" transform="matrix(&st16;  2691.75  93.27 )">A</text><path style="stroke-width: 1.42 ;&st7;   " d=" M  2698.58,    91.30  C  2698.58     88.80   2696.55     86.77   2694.05     86.77  " /><path style="stroke-width: 1.42 ;&st7;   " d=" M  2694.05,    86.77  C  2691.55     86.77   2689.52     88.80   2689.52     91.30  " /><path style="stroke-width: 1.42 ;&st7;   " d=" M  2689.52,    91.30  C  2689.52     93.81   2691.55     95.84   2694.05     95.84  " /><path style="stroke-width: 1.42 ;&st7;   " d=" M  2694.05,    95.84  C  2696.55     95.84   2698.58     93.81   2698.58     91.30  " /><text style="font-size:6px;font-family:'NSimSun';" transform="matrix(&st16;  2685.27  83.07 )">CANH</text></g><g ewd:lineID="79"><text style="font-size:6px;font-family:'NSimSun';" transform="matrix(&st16;  2804.83  83.07 )">DBKL</text></g></g><g ewd:figtype="jb" ewd:figID="24" ewd:code="3"><path style="stroke-width: 1.42 ;&st7;  " d=" M  2815.15,   129.26  L  2810.91,   129.26  " /><path style="stroke-width: 1.42 ;&st7;  " d=" M  2815.15,   137.76  L  2810.91,   137.76  " /><path style="stroke-width: 1.42 ;&st7;   " d=" M  2810.91,   129.26  C  2808.56    129.26   2806.66    131.17   2806.66    133.51  " /><path style="stroke-width: 1.42 ;&st7;   " d=" M  2806.66,   133.51  C  2806.66    135.86   2808.56    137.76   2810.91    137.76  " /><path style="stroke-width: 1.42 ;&st7;   " d=" M  2815.15,   137.76  C  2817.50    137.76   2819.40    135.86   2819.40    133.51  " /><path style="stroke-width: 1.42 ;&st7;   " d=" M  2819.40,   133.51  C  2819.40    131.17   2817.50    129.26   2815.15    129.26  " /><path style="stroke-width: 0.28 ;&st9;  " d=" M  2813.03,   124.37  L  2810.20,   121.54  L  2810.20,   125.79  L  2813.03,   128.62  L  2815.86,   125.79  L  2815.86,   121.54  L  2813.03,   124.37  " /><path style="stroke-width: 0.85 ;&st7;  " d=" M  2813.03,    86.77  L  2813.03,   129.26  " /><text style="font-size:6px;font-family:'NSimSun';" transform="matrix(&st16;  2803.74  94.96 )">18</text><text style="font-size:6px;font-family:'NSimSun';" transform="matrix(&st16;  2799.42  135.48 )">36</text><text style="font-size:6px;font-family:'NSimSun';" transform="matrix(&st16;  2809.37  135.48 )">3E</text></g><g ewd:figtype="w2w" ewd:figID="48" ewd:code="AE2"><path style="stroke-width: 1.42 ;&st7;  " d=" M  2647.31,   171.19  L  2651.56,   175.44  L  2655.81,   171.19  " /><path style="stroke-width: 1.42 ;&st7;  " d=" M  2655.81,   174.59  L  2651.56,   178.84  L  2647.31,   174.59  " /><text style="font-size:6px;font-family:'NSimSun';" transform="matrix(&st16;  2638.93  186.47 )">5</text></g><g ewd:figtype="w2w" ewd:figID="49" ewd:code="AE2"><path style="stroke-width: 1.42 ;&st7;  " d=" M  2689.80,   171.19  L  2694.05,   175.44  L  2698.30,   171.19  " /><path style="stroke-width: 1.42 ;&st7;  " d=" M  2698.30,   174.59  L  2694.05,   178.84  L  2689.80,   174.59  " /><text style="font-size:6px;font-family:'NSimSun';" transform="matrix(&st16;  2681.42  186.47 )">4</text></g><g ewd:figtype="gp" ewd:figID="58" ewd:code="LB"><path style="stroke-width: 0.85 ;&st7;  " d=" M  2804.53,   701.50  L  2821.53,   701.50  " /><path style="stroke-width: 0.85 ;&st7;  " d=" M  2808.78,   704.33  L  2817.28,   704.33  " /><path style="stroke-width: 0.85 ;&st7;  " d=" M  2810.20,   707.17  L  2815.86,   707.17  " /><path style="stroke-width: 0.85 ;&st7;  " d=" M  2811.61,   710.00  L  2814.45,   710.00  " /><path style="stroke-width: 0.85 ;&st7;  " d=" M  2813.03,   697.25  L  2813.03,   701.50  " /></g><g ewd:code="" ewd:figID="76" ewd:comment="2" ewd:figtype="commref"><text style="font-size:6px;font-family:'NSimSun';" transform="matrix(&st16;  2699.14  381.66 )">(*2)</text></g><g ewd:code="" ewd:figID="77" ewd:comment="1" ewd:figtype="commref"><text style="font-size:6px;font-family:'NSimSun';" transform="matrix(&st16;  2699.14  372.59 )">(*1)</text></g><g ewd:code="2" ewd:figID="74" ewd:comment="" ewd:figtype="comment"><text style="font-size:6px;font-family:'NSimSun';" transform="matrix(&st16;  2877.61  46.25 )" ewd:textID="2">* 2 : 带 VSC</text></g><g ewd:code="11" ewd:figID="73" ewd:comment="" ewd:figtype="comment"><text style="font-size:6px;font-family:'NSimSun';" transform="matrix(&st16;  2877.61  54.75 )" ewd:textID="4">* 11: 带智能进入和起动系统</text></g><g ewd:code="1" ewd:figID="75" ewd:comment="" ewd:figtype="comment"><text style="font-size:6px;font-family:'NSimSun';" transform="matrix(&st16;  2877.61  37.75 )" ewd:textID="1">* 1 : 不带 VSC</text></g></svg>