<?xml version="1.0" encoding="utf-8"?>
<!DOCTYPE svg PUBLIC "-//W3C//DTD SVG 1.0//EN" "http://www.w3.org/TR/2001/REC-SVG-20010904/DTD/svg10.dtd"[
	<!ENTITY ns_flows "http://ns.adobe.com/Flows/1.0/">
	<!ENTITY ns_svg "http://www.w3.org/2000/svg">
	<!ENTITY ns_xlink "http://www.w3.org/1999/xlink">
	<!ENTITY st0 "font-size:7px;font-family:'NSimSun';adobe-font-script:japanese;">
	<!ENTITY st1 "font-size:6px;font-family:'NSimSun';">
	<!-- White fill  -->
	<!ENTITY st2 "fill:#FFFFFF;stroke:#000000; stroke-width:1.41;stroke-linecap:round;stroke-linejoin:round;">
	<!-- Yellow fill  -->
	<!ENTITY st3 "fill:#FFFFCC;stroke:#FFFFCC; stroke-width:0.1;stroke-linecap:round;stroke-linejoin:round;">
	<!-- Gray fill  -->
	<!ENTITY st4 "fill:#CCCCCC;stroke:#CCCCCC; stroke-width:0.1;stroke-linecap:round;stroke-linejoin:round;">
	<!-- Light-blue fill -->
	<!ENTITY st5 "fill:#CCECF4;stroke:#000000; stroke-width:1.133;stroke-linecap:round;stroke-linejoin:round;">
	<!ENTITY st6 "fill:none;stroke-linecap:butt; stroke-linejoin:round;">
	<!ENTITY st7 "fill:none;stroke:#000000;stroke-linecap:round;stroke-linejoin:round;">
	<!ENTITY st8 "enable-background:new    ;">
	<!-- Black fill -->
	<!ENTITY st9 "fill:#000000;stroke:#000000; stroke-linecap:round;stroke-linejoin:round;">
	<!-- SRS note   -->
	<!ENTITY st10 "font-size:9px;font-family:'NSimSun';">
	<!ENTITY st11 "font-size:9px;font-family:'NSimSun';">
	<!ENTITY st12 "font-size:6px;font-family:'NSimSun';">
	<!ENTITY st13 "fill:none;stroke:#ff0000;stroke-linecap:round;stroke-linejoin:round;">
	<!-- Yellow fill  -->
	<!ENTITY st14 "fill:#FFFF00;stroke:#FFFF00; stroke-width:0.1;stroke-linecap:round;stroke-linejoin:round;">
	<!ENTITY st15 "font-size:6px;font-family:'NSimSun';adobe-font-script:japanese;">
	<!ENTITY st16 "1.00 0.00 0.00 1.00">
	<!ENTITY st17 "0.00 -1.00 1.00 0.00">
	<!ENTITY st18 "font-size:6px;font-family:'NSimSun';">
	<!ENTITY st19 "font-size:9px;font-family:'NSimSun';">
	<!ENTITY st20 "font-size:6px;font-family:'NSimSun';adobe-font-script:japanese;">
	<!ENTITY st21 "font-size:7px;font-family:'NSimSun';adobe-font-script:japanese;">
	<!ATTLIST svg
		xmlns:ewd CDATA #FIXED "http://shcl.co.jp/ewd"
		xmlns:a CDATA #FIXED "http://ns.adobe.com/AdobeSVGViewerExtensions/3.0/"
		ewd:ver CDATA #IMPLIED
	>
	<!ATTLIST a
		ewd:lineID CDATA #IMPLIED
		ewd:groupID CDATA #IMPLIED
		ewd:figtype CDATA #IMPLIED
		ewd:code CDATA #IMPLIED
		ewd:figID CDATA #IMPLIED
		ewd:pinNo CDATA #IMPLIED
		ewd:comment CDATA #IMPLIED >
	<!ATTLIST g
		ewd:lineID CDATA #IMPLIED
		ewd:groupID CDATA #IMPLIED
		ewd:figtype CDATA #IMPLIED
		ewd:code CDATA #IMPLIED
		ewd:figID CDATA #IMPLIED
		ewd:pinNo CDATA #IMPLIED
		ewd:comment CDATA #IMPLIED >
	<!ATTLIST text
		ewd:textID CDATA #IMPLIED
		ewd:horAlign CDATA #IMPLIED >
	<!ATTLIST title
		ewd:textID CDATA #IMPLIED >
]>
<!-- Generator: Shintec Hozumi YS   -->
<svg onload="call_execInitLoadProc_svg('system')" style="overflow:visible;  enable-background:new 0 0 3011.891 710.000" viewBox="0 0 2968.114 710.000" height="710.000" width="2968.114" xml:space="preserve" ewd:ver="2.1.2.6F" xmlns="&ns_svg;" xmlns:ewd="http://shcl.co.jp/ewd" xmlns:a="http://ns.adobe.com/AdobeSVGViewerExtensions/3.0/" xmlns:xlink="&ns_xlink;">
<path style="stroke-width: 1.42 ;&st7;  " d=" M  2116.15,   290.74  L  2124.65,   290.74  " /><path style="stroke-width: 1.42 ;&st7;  " d=" M  2167.14,   290.74  L  2175.64,   290.74  " /><path style="stroke-width: 1.42 ;&st7;  " d=" M  2481.59,   290.74  L  2490.08,   290.74  " /><path style="stroke-width: 1.42 ;&st7;  " d=" M  2201.13,   290.74  L  2209.63,   290.74  " /><path style="stroke-width: 1.42 ;&st7;  " d=" M  2439.09,   290.74  L  2447.59,   290.74  " /><path style="stroke-width: 1.42 ;&st7;  " d=" M  2218.13,   469.21  L  2209.63,   469.21  " /><path style="stroke-width: 1.42 ;&st7;  " d=" M  2311.61,   290.74  L  2320.11,   290.74  " /><path style="stroke-width: 1.42 ;&st7;  " d=" M  2362.61,   290.74  L  2371.10,   290.74  " /><text style="font-size:6px;font-family:'NSimSun';" transform="matrix(&st17;  2486.39  190.44 )">Y</text><text style="font-size:6px;font-family:'NSimSun';" transform="matrix(&st17;  2120.95  331.77 )">LA-R</text><text style="font-size:6px;font-family:'NSimSun';" transform="matrix(&st17;  2171.94  333.4 )">LA-SB</text><text style="font-size:6px;font-family:'NSimSun';" transform="matrix(&st17;  2171.94  259.98 )">SB</text><text style="font-size:6px;font-family:'NSimSun';" transform="matrix(&st17;  2120.95  258.35 )">R</text><text style="font-size:6px;font-family:'NSimSun';" transform="matrix(&st17;  2316.42  327.97 )">SB</text><text style="font-size:6px;font-family:'NSimSun';" transform="matrix(&st17;  2486.39  326.42 )">Y</text><text style="font-size:6px;font-family:'NSimSun';" transform="matrix(&st16;  2095.41  525.0 )">SB</text><text style="font-size:6px;font-family:'NSimSun';" transform="matrix(&st17;  2205.93  326.42 )">Y</text><text style="font-size:6px;font-family:'NSimSun';" transform="matrix(&st17;  2205.93  258.43 )">Y</text><text style="font-size:6px;font-family:'NSimSun';" transform="matrix(&st17;  2443.9  192.54 )">LG</text><text style="font-size:6px;font-family:'NSimSun';" transform="matrix(&st17;  2443.89  326.42 )">Y</text><text style="font-size:6px;font-family:'NSimSun';" transform="matrix(&st17;  2367.41  326.23 )">P</text><text style="font-size:6px;font-family:'NSimSun';" transform="matrix(&st17;  2205.94  509.16 )">W-B</text><text style="font-size:6px;font-family:'NSimSun';" transform="matrix(&st17;  2205.94  441.17 )">W-B</text><text style="font-size:6px;font-family:'NSimSun';" transform="matrix(&st16;  2044.42  525.0 )">SB</text><text style="font-size:6px;font-family:'NSimSun';" transform="matrix(&st17;  2217.27  509.47 )">(*11)</text><text style="font-size:6px;font-family:'NSimSun';" transform="matrix(&st17;  2217.27  441.48 )">(*11)</text><text style="font-size:6px;font-family:'NSimSun';" transform="matrix(&st17;  2217.27  331.0 )">(*11)</text><text style="font-size:6px;font-family:'NSimSun';" transform="matrix(&st17;  2217.27  263.01 )">(*11)</text><text style="font-size:6px;font-family:'NSimSun';" transform="matrix(&st17;  2497.72  331.0 )">(*11)</text><text style="font-size:6px;font-family:'NSimSun';" transform="matrix(&st17;  2455.23  331.0 )">(*11)</text><text style="font-size:6px;font-family:'NSimSun';" transform="matrix(&st17;  2455.23  195.02 )">(*11)</text><text style="font-size:6px;font-family:'NSimSun';" transform="matrix(&st17;  2497.72  200.6 )">(*11 *20)</text><text style="font-size:6px;font-family:'NSimSun';" transform="matrix(&st17;  2316.42  191.99 )">SB</text><text style="font-size:6px;font-family:'NSimSun';" transform="matrix(&st17;  2367.41  190.25 )">P</text><text style="font-size:6px;font-family:'NSimSun';" transform="matrix(&st16;  2223.22  32.08 )" ewd:textID="22">主车身 ECU</text><text style="font-size:6px;font-family:'NSimSun';" transform="matrix(&st16;  2223.22  25.26 )">E36(A)</text><text style="font-size:6px;font-family:'NSimSun';" transform="matrix(&st16;  2097.15  542.0 )">P</text><text style="font-size:6px;font-family:'NSimSun';" transform="matrix(&st16;  2090.45  558.99 )">Y(*11)</text><text style="font-size:6px;font-family:'NSimSun';" transform="matrix(&st16;  2090.45  575.99 )">Y(*11)</text><text style="font-size:6px;font-family:'NSimSun';" transform="matrix(&st16;  2039.46  575.99 )">Y(*11)</text><text style="font-size:6px;font-family:'NSimSun';" transform="matrix(&st16;  2039.46  558.99 )">Y(*11)</text><text style="font-size:6px;font-family:'NSimSun';" transform="matrix(&st16;  2046.16  542.0 )">P</text><g ewd:figtype="conn" ewd:figID="12" ewd:code="K3"><path style="stroke-width: 1.42 ;&st7;  " d=" M  2138.81,   371.47  L  2142.78,   371.47  " /><path style="stroke-width: 1.42 ;&st7;  " d=" M  2142.78,   379.97  L  2138.81,   379.97  " /><path style="stroke-width: 1.42 ;&st7;  " d=" M  2157.51,   379.97  L  2161.47,   379.97  " /><path style="stroke-width: 1.42 ;&st7;  " d=" M  2161.47,   379.97  L  2161.47,   371.47  " /><path style="stroke-width: 1.42 ;&st7;  " d=" M  2161.47,   371.47  L  2157.51,   371.47  " /><path style="stroke-width: 1.42 ;&st7;  " d=" M  2138.81,   379.97  L  2138.81,   371.47  " /><path style="stroke-width: 1.42 ;&st7;  " d=" M  2209.63,   394.14  L  2215.30,   371.47  " /><path style="stroke-width: 1.42 ;&st7;   " d=" M  2150.14,   367.22  C  2145.45    367.22   2141.64    371.03   2141.64    375.72  " /><path style="stroke-width: 1.42 ;&st7;   " d=" M  2141.64,   375.72  C  2141.64    380.42   2145.45    384.22   2150.14    384.22  " /><path style="stroke-width: 1.42 ;&st7;   " d=" M  2150.14,   384.22  C  2154.83    384.22   2158.64    380.42   2158.64    375.72  " /><path style="stroke-width: 1.42 ;&st7;   " d=" M  2158.64,   375.72  C  2158.64    371.03   2154.83    367.22   2150.14    367.22  " /><path style="stroke-width: 0.85 ;&st7;   " d=" M  2211.05,   395.55  C  2211.05    394.77   2210.41    394.14   2209.63    394.14  " /><path style="stroke-width: 0.85 ;&st7;   " d=" M  2209.63,   394.14  C  2208.85    394.14   2208.21    394.77   2208.21    395.55  " /><path style="stroke-width: 0.85 ;&st7;   " d=" M  2208.21,   395.55  C  2208.21    396.33   2208.85    396.97   2209.63    396.97  " /><path style="stroke-width: 0.85 ;&st7;   " d=" M  2209.63,   396.97  C  2210.41    396.97   2211.05    396.33   2211.05    395.55  " /><path style="stroke-width: 0.85 ;&st7;   " d=" M  2211.05,   372.89  C  2211.05    372.11   2210.41    371.47   2209.63    371.47  " /><path style="stroke-width: 0.85 ;&st7;   " d=" M  2209.63,   371.47  C  2208.85    371.47   2208.21    372.11   2208.21    372.89  " /><path style="stroke-width: 0.85 ;&st7;   " d=" M  2208.21,   372.89  C  2208.21    373.67   2208.85    374.31   2209.63    374.31  " /><path style="stroke-width: 0.85 ;&st7;   " d=" M  2209.63,   374.31  C  2210.41    374.31   2211.05    373.67   2211.05    372.89  " /><path style="stroke-width: 1.42 ;&st7;  " d=" M  2107.65,   350.23  L  2107.65,   409.72  L  2235.13,   409.72  L  2235.13,   350.23  L  2107.65,   350.23  " /><path style="stroke-width: 0.85 ;&st7;  " d=" M  2175.64,   350.23  L  2175.64,   375.72  L  2161.47,   375.72  " /><path style="stroke-width: 0.85 ;&st7;  " d=" M  2124.64,   350.23  L  2124.64,   375.72  L  2138.81,   375.72  " /><path style="stroke-width: 0.85 ;&st7;  " d=" M  2209.63,   371.47  L  2209.63,   350.23  " /><path style="stroke-width: 0.85 ;&st7;  " d=" M  2209.63,   409.72  L  2209.63,   396.97  " /><text style="font-size:6px;font-family:'NSimSun';" transform="matrix(&st16;  2147.41  377.69 )">M</text><text style="font-size:6px;font-family:'NSimSun';" transform="matrix(&st16;  2164.64  358.42 )">UL</text><text style="font-size:6px;font-family:'NSimSun';" transform="matrix(&st16;  2117.92  358.42 )">L</text><text style="font-size:6px;font-family:'NSimSun';" transform="matrix(&st16;  2212.21  406.03 )">E</text><text style="font-size:6px;font-family:'NSimSun';" transform="matrix(&st16;  2212.21  358.42 )">LSSR</text><text style="font-size:6px;font-family:'NSimSun';" transform="matrix(&st17;  2198.59  396.5 )" ewd:textID="32">开锁检测<tspan x="0 " dy="6.0" /></text><text style="font-size:6px;font-family:'NSimSun';" transform="matrix(&st16;  2118.46  346.54 )">4</text><text style="font-size:6px;font-family:'NSimSun';" transform="matrix(&st16;  2169.45  346.54 )">1</text><text style="font-size:6px;font-family:'NSimSun';" transform="matrix(&st16;  2203.45  417.91 )">9</text><text style="font-size:6px;font-family:'NSimSun';" transform="matrix(&st16;  2203.45  346.54 )">6</text><g ewd:figtype="title"><text style="font-size:6px;font-family:'NSimSun';" transform="matrix(&st17;  2249.84  412.62 )" ewd:textID="29">带电动机的左后门锁总成<tspan x="0 " dy="6.0" /></text><text style="font-size:6px;font-family:'NSimSun';" transform="matrix(&st17;  2243.02  412.62 )">K3</text></g></g><g ewd:figtype="conn" ewd:figID="18" ewd:code="E36"><g ewd:lineID="62"><text style="font-size:6px;font-family:'NSimSun';" transform="matrix(&st16;  2308.32  93.27 )">11</text><path style="stroke-width: 1.42 ;&st7;   " d=" M  2324.64,    91.30  C  2324.64     88.80   2322.62     86.77   2320.11     86.77  " /><path style="stroke-width: 1.42 ;&st7;   " d=" M  2320.11,    86.77  C  2317.61     86.77   2315.58     88.80   2315.58     91.30  " /><path style="stroke-width: 1.42 ;&st7;   " d=" M  2315.58,    91.30  C  2315.58     93.81   2317.61     95.84   2320.11     95.84  " /><path style="stroke-width: 1.42 ;&st7;   " d=" M  2320.11,    95.84  C  2322.62     95.84   2324.64     93.81   2324.64     91.30  " /><text style="font-size:6px;font-family:'NSimSun';" transform="matrix(&st16;  2317.81  93.27 )">A</text><text style="font-size:6px;font-family:'NSimSun';" transform="matrix(&st16;  2316.49  83.07 )">L2</text></g><g ewd:lineID="64"><text style="font-size:6px;font-family:'NSimSun';" transform="matrix(&st16;  2359.31  93.27 )">12</text><text style="font-size:6px;font-family:'NSimSun';" transform="matrix(&st16;  2368.8  93.27 )">A</text><path style="stroke-width: 1.42 ;&st7;   " d=" M  2375.64,    91.30  C  2375.64     88.80   2373.61     86.77   2371.10     86.77  " /><path style="stroke-width: 1.42 ;&st7;   " d=" M  2371.10,    86.77  C  2368.60     86.77   2366.57     88.80   2366.57     91.30  " /><path style="stroke-width: 1.42 ;&st7;   " d=" M  2366.57,    91.30  C  2366.57     93.81   2368.60     95.84   2371.10     95.84  " /><path style="stroke-width: 1.42 ;&st7;   " d=" M  2371.10,    95.84  C  2373.61     95.84   2375.64     93.81   2375.64     91.30  " /><text style="font-size:6px;font-family:'NSimSun';" transform="matrix(&st16;  2365.35  83.07 )">UL2</text></g><g ewd:lineID="65"><text style="font-size:6px;font-family:'NSimSun';" transform="matrix(&st16;  2435.8  93.27 )">18</text><path style="stroke-width: 1.42 ;&st7;   " d=" M  2452.12,    91.30  C  2452.12     88.80   2450.09     86.77   2447.59     86.77  " /><path style="stroke-width: 1.42 ;&st7;   " d=" M  2447.59,    86.77  C  2445.09     86.77   2443.06     88.80   2443.06     91.30  " /><path style="stroke-width: 1.42 ;&st7;   " d=" M  2443.06,    91.30  C  2443.06     93.81   2445.09     95.84   2447.59     95.84  " /><path style="stroke-width: 1.42 ;&st7;   " d=" M  2447.59,    95.84  C  2450.09     95.84   2452.12     93.81   2452.12     91.30  " /><text style="font-size:6px;font-family:'NSimSun';" transform="matrix(&st16;  2445.29  93.27 )">A</text><text style="font-size:6px;font-family:'NSimSun';" transform="matrix(&st16;  2440.25  83.07 )">LSFR</text></g><g ewd:lineID="66,67"><text style="font-size:6px;font-family:'NSimSun';" transform="matrix(&st16;  2481.39  93.27 )">7</text><path style="stroke-width: 1.42 ;&st7;   " d=" M  2494.62,    91.30  C  2494.62     88.80   2492.59     86.77   2490.08     86.77  " /><path style="stroke-width: 1.42 ;&st7;   " d=" M  2490.08,    86.77  C  2487.58     86.77   2485.55     88.80   2485.55     91.30  " /><path style="stroke-width: 1.42 ;&st7;   " d=" M  2485.55,    91.30  C  2485.55     93.81   2487.58     95.84   2490.08     95.84  " /><path style="stroke-width: 1.42 ;&st7;   " d=" M  2490.08,    95.84  C  2492.59     95.84   2494.62     93.81   2494.62     91.30  " /><text style="font-size:6px;font-family:'NSimSun';" transform="matrix(&st16;  2487.78  93.27 )">A</text><text style="font-size:6px;font-family:'NSimSun';" transform="matrix(&st16;  2482.78  83.07 )">LSFL</text></g></g><g ewd:figtype="w2w" ewd:figID="40" ewd:code="KL1"><path style="stroke-width: 1.42 ;&st7;  " d=" M  2120.39,   281.67  L  2124.64,   285.92  L  2128.89,   281.67  " /><path style="stroke-width: 1.42 ;&st7;  " d=" M  2128.89,   285.07  L  2124.64,   289.32  L  2120.39,   285.07  " /><text style="font-size:6px;font-family:'NSimSun';" transform="matrix(&st16;  2112.01  296.96 )">8</text></g><g ewd:figtype="w2w" ewd:figID="41" ewd:code="KL1"><path style="stroke-width: 1.42 ;&st7;  " d=" M  2179.88,   285.07  L  2175.64,   289.32  L  2171.39,   285.07  " /><path style="stroke-width: 1.42 ;&st7;  " d=" M  2171.39,   281.67  L  2175.64,   285.92  L  2179.88,   281.67  " /><text style="font-size:6px;font-family:'NSimSun';" transform="matrix(&st16;  2159.9  296.96 )">15</text></g><g ewd:figtype="w2w" ewd:figID="42" ewd:code="KL1"><path style="stroke-width: 1.42 ;&st7;  " d=" M  2213.88,   474.87  L  2209.63,   470.62  L  2205.38,   474.87  " /><path style="stroke-width: 1.42 ;&st7;  " d=" M  2213.88,   478.27  L  2209.63,   474.02  L  2205.38,   478.27  " /><text style="font-size:6px;font-family:'NSimSun';" transform="matrix(&st16;  2193.9  466.93 )">10</text></g><g ewd:figtype="w2w" ewd:figID="43" ewd:code="KL1"><path style="stroke-width: 1.42 ;&st7;  " d=" M  2213.88,   285.07  L  2209.63,   289.32  L  2205.38,   285.07  " /><path style="stroke-width: 1.42 ;&st7;  " d=" M  2205.38,   281.67  L  2209.63,   285.92  L  2213.88,   281.67  " /><text style="font-size:6px;font-family:'NSimSun';" transform="matrix(&st16;  2197.0  296.96 )">3</text></g><g ewd:figtype="w2w" ewd:figID="44" ewd:code="HE1"><path style="stroke-width: 1.42 ;&st7;  " d=" M  2315.86,   281.67  L  2320.11,   285.92  L  2324.36,   281.67  " /><path style="stroke-width: 1.42 ;&st7;  " d=" M  2324.36,   285.07  L  2320.11,   289.32  L  2315.86,   285.07  " /><text style="font-size:6px;font-family:'NSimSun';" transform="matrix(&st16;  2304.38  296.96 )">17</text></g><g ewd:figtype="w2w" ewd:figID="45" ewd:code="HE1"><path style="stroke-width: 1.42 ;&st7;  " d=" M  2375.35,   285.07  L  2371.10,   289.32  L  2366.85,   285.07  " /><path style="stroke-width: 1.42 ;&st7;  " d=" M  2366.85,   281.67  L  2371.10,   285.92  L  2375.35,   281.67  " /><text style="font-size:6px;font-family:'NSimSun';" transform="matrix(&st16;  2355.37  296.96 )">16</text></g><g ewd:figtype="w2w" ewd:figID="46" ewd:code="GE1"><path style="stroke-width: 1.42 ;&st7;  " d=" M  2443.34,   281.67  L  2447.59,   285.92  L  2451.84,   281.67  " /><path style="stroke-width: 1.42 ;&st7;  " d=" M  2451.84,   285.07  L  2447.59,   289.32  L  2443.34,   285.07  " /><text style="font-size:6px;font-family:'NSimSun';" transform="matrix(&st16;  2431.86  296.96 )">18</text></g><g ewd:figtype="w2w" ewd:figID="47" ewd:code="HE1"><path style="stroke-width: 1.42 ;&st7;  " d=" M  2485.83,   281.67  L  2490.08,   285.92  L  2494.33,   281.67  " /><path style="stroke-width: 1.42 ;&st7;  " d=" M  2494.33,   285.07  L  2490.08,   289.32  L  2485.83,   285.07  " /><text style="font-size:6px;font-family:'NSimSun';" transform="matrix(&st16;  2474.35  296.96 )">18</text></g><g ewd:figtype="gp" ewd:figID="57" ewd:code="LB"><path style="stroke-width: 0.85 ;&st7;  " d=" M  2208.21,   710.00  L  2211.05,   710.00  " /><path style="stroke-width: 0.85 ;&st7;  " d=" M  2206.80,   707.17  L  2212.46,   707.17  " /><path style="stroke-width: 0.85 ;&st7;  " d=" M  2205.38,   704.33  L  2213.88,   704.33  " /><path style="stroke-width: 0.85 ;&st7;  " d=" M  2209.63,   697.25  L  2209.63,   701.50  " /><path style="stroke-width: 0.85 ;&st7;  " d=" M  2201.13,   701.50  L  2218.13,   701.50  " /></g></svg>