<?xml version="1.0" encoding="utf-8"?>
<!DOCTYPE svg PUBLIC "-//W3C//DTD SVG 1.0//EN" "http://www.w3.org/TR/2001/REC-SVG-20010904/DTD/svg10.dtd"[
	<!ENTITY ns_flows "http://ns.adobe.com/Flows/1.0/">
	<!ENTITY ns_svg "http://www.w3.org/2000/svg">
	<!ENTITY ns_xlink "http://www.w3.org/1999/xlink">
	<!ENTITY st0 "font-size:7px;font-family:'NSimSun';adobe-font-script:japanese;">
	<!ENTITY st1 "font-size:6px;font-family:'NSimSun';">
	<!-- White fill  -->
	<!ENTITY st2 "fill:#FFFFFF;stroke:#000000; stroke-width:1.41;stroke-linecap:round;stroke-linejoin:round;">
	<!-- Yellow fill  -->
	<!ENTITY st3 "fill:#FFFFCC;stroke:#FFFFCC; stroke-width:0.1;stroke-linecap:round;stroke-linejoin:round;">
	<!-- Gray fill  -->
	<!ENTITY st4 "fill:#CCCCCC;stroke:#CCCCCC; stroke-width:0.1;stroke-linecap:round;stroke-linejoin:round;">
	<!-- Light-blue fill -->
	<!ENTITY st5 "fill:#CCECF4;stroke:#000000; stroke-width:1.133;stroke-linecap:round;stroke-linejoin:round;">
	<!ENTITY st6 "fill:none;stroke-linecap:butt; stroke-linejoin:round;">
	<!ENTITY st7 "fill:none;stroke:#000000;stroke-linecap:round;stroke-linejoin:round;">
	<!ENTITY st8 "enable-background:new    ;">
	<!-- Black fill -->
	<!ENTITY st9 "fill:#000000;stroke:#000000; stroke-linecap:round;stroke-linejoin:round;">
	<!-- SRS note   -->
	<!ENTITY st10 "font-size:9px;font-family:'NSimSun';">
	<!ENTITY st11 "font-size:9px;font-family:'NSimSun';">
	<!ENTITY st12 "font-size:6px;font-family:'NSimSun';">
	<!ENTITY st13 "fill:none;stroke:#ff0000;stroke-linecap:round;stroke-linejoin:round;">
	<!-- Yellow fill  -->
	<!ENTITY st14 "fill:#FFFF00;stroke:#FFFF00; stroke-width:0.1;stroke-linecap:round;stroke-linejoin:round;">
	<!ENTITY st15 "font-size:6px;font-family:'NSimSun';adobe-font-script:japanese;">
	<!ENTITY st16 "1.00 0.00 0.00 1.00">
	<!ENTITY st17 "0.00 -1.00 1.00 0.00">
	<!ENTITY st18 "font-size:6px;font-family:'NSimSun';">
	<!ENTITY st19 "font-size:9px;font-family:'NSimSun';">
	<!ENTITY st20 "font-size:6px;font-family:'NSimSun';adobe-font-script:japanese;">
	<!ENTITY st21 "font-size:7px;font-family:'NSimSun';adobe-font-script:japanese;">
	<!ATTLIST svg
		xmlns:ewd CDATA #FIXED "http://shcl.co.jp/ewd"
		xmlns:a CDATA #FIXED "http://ns.adobe.com/AdobeSVGViewerExtensions/3.0/"
		ewd:ver CDATA #IMPLIED
	>
	<!ATTLIST a
		ewd:lineID CDATA #IMPLIED
		ewd:groupID CDATA #IMPLIED
		ewd:figtype CDATA #IMPLIED
		ewd:code CDATA #IMPLIED
		ewd:figID CDATA #IMPLIED
		ewd:pinNo CDATA #IMPLIED
		ewd:comment CDATA #IMPLIED >
	<!ATTLIST g
		ewd:lineID CDATA #IMPLIED
		ewd:groupID CDATA #IMPLIED
		ewd:figtype CDATA #IMPLIED
		ewd:code CDATA #IMPLIED
		ewd:figID CDATA #IMPLIED
		ewd:pinNo CDATA #IMPLIED
		ewd:comment CDATA #IMPLIED >
	<!ATTLIST text
		ewd:textID CDATA #IMPLIED
		ewd:horAlign CDATA #IMPLIED >
	<!ATTLIST title
		ewd:textID CDATA #IMPLIED >
]>
<!-- Generator: Shintec Hozumi YS   -->
<svg onload="call_execInitLoadProc_svg('system')" style="overflow:visible;  enable-background:new 0 0 9810.194 710.000" viewBox="0 0 9815.864 710.000" height="710.000" width="9815.864" xml:space="preserve" ewd:ver="2.1.2.6F" xmlns="&ns_svg;" xmlns:ewd="http://shcl.co.jp/ewd" xmlns:a="http://ns.adobe.com/AdobeSVGViewerExtensions/3.0/" xmlns:xlink="&ns_xlink;">
<path style="stroke-width: 1.42 ;&st7;  " d=" M  3317.97,   656.18  L  3322.94,   651.21  " /><path style="stroke-width: 1.42 ;&st7;  " d=" M  3322.94,   644.15  L  3317.97,   639.18  " /><path style="stroke-width: 1.42 ;&st7;  " d=" M  3305.95,   651.21  L  3310.92,   656.18  " /><path style="stroke-width: 1.42 ;&st7;  " d=" M  3310.92,   639.18  L  3305.95,   644.15  " /><path style="stroke-width: 1.42 ;&st7;  " d=" M  3353.41,   681.67  L  3348.44,   686.64  " /><path style="stroke-width: 1.42 ;&st7;  " d=" M  3360.47,   698.67  L  3365.44,   693.70  " /><path style="stroke-width: 1.42 ;&st7;  " d=" M  3348.44,   693.70  L  3353.41,   698.67  " /><path style="stroke-width: 1.42 ;&st7;  " d=" M  3365.44,   686.64  L  3360.47,   681.67  " /><path style="stroke-width: 1.42 ;&st7;  " d=" M  3220.96,   644.15  L  3215.99,   639.18  " /><path style="stroke-width: 1.42 ;&st7;  " d=" M  3203.96,   651.21  L  3208.94,   656.18  " /><path style="stroke-width: 1.42 ;&st7;  " d=" M  3215.99,   656.18  L  3220.96,   651.21  " /><path style="stroke-width: 1.42 ;&st7;  " d=" M  3208.94,   639.18  L  3203.96,   644.15  " /><text style="font-size:6px;font-family:'NSimSun';" transform="matrix(&st17;  3038.8  403.68 )">W</text><text style="font-size:6px;font-family:'NSimSun';" transform="matrix(&st16;  3256.3  669.48 )">B(*4)</text><text style="font-size:6px;font-family:'NSimSun';" transform="matrix(&st17;  3310.75  547.38 )">B</text><text style="font-size:6px;font-family:'NSimSun';" transform="matrix(&st17;  3322.08  550.41 )">(*4)</text><text style="font-size:6px;font-family:'NSimSun';" transform="matrix(&st17;  3364.58  550.41 )">(*5)</text><text style="font-size:6px;font-family:'NSimSun';" transform="matrix(&st17;  3353.24  547.38 )">B</text><text style="font-size:6px;font-family:'NSimSun';" transform="matrix(&st16;  3256.3  643.98 )">B(*4)</text><text style="font-size:6px;font-family:'NSimSun';" transform="matrix(&st17;  3050.13  405.93 )">(*3)</text><text style="font-size:6px;font-family:'NSimSun';" transform="matrix(&st17;  3353.24  402.91 )">B</text><text style="font-size:6px;font-family:'NSimSun';" transform="matrix(&st17;  3310.75  402.91 )">Y</text><text style="font-size:6px;font-family:'NSimSun';" transform="matrix(&st17;  3395.74  402.79 )">L</text><text style="font-size:6px;font-family:'NSimSun';" transform="matrix(&st16;  3336.53  330.93 )">A40(A),B39(B)</text><text style="font-size:6px;font-family:'NSimSun';" transform="matrix(&st17;  3480.72  275.31 )">L</text><text style="font-size:6px;font-family:'NSimSun';" transform="matrix(&st16;  3336.54  338.03 )">ECM</text><text style="font-size:6px;font-family:'NSimSun';" transform="matrix(&st17;  3472.22  402.83 )">R</text><text style="font-size:6px;font-family:'NSimSun';" transform="matrix(&st17;  3370.24  135.2 )">B</text><text style="font-size:6px;font-family:'NSimSun';" transform="matrix(&st17;  3268.26  135.2 )">B</text><text style="font-size:6px;font-family:'NSimSun';" transform="matrix(&st17;  3438.23  198.94 )">B</text><text style="font-size:6px;font-family:'NSimSun';" transform="matrix(&st16;  3077.83  643.98 )">B(*4)</text><text style="font-size:6px;font-family:'NSimSun';" transform="matrix(&st16;  3128.82  643.98 )">B(*4)</text><text style="font-size:6px;font-family:'NSimSun';" transform="matrix(&st16;  3128.82  660.98 )">B(*5)</text><text style="font-size:6px;font-family:'NSimSun';" transform="matrix(&st16;  3077.83  660.98 )">B(*5)</text><text style="font-size:6px;font-family:'NSimSun';" transform="matrix(&st16;  3256.3  686.47 )">B(*5)</text><g ewd:figtype="conn" ewd:figID="5" ewd:code="A33"><path style="stroke-width: 1.42 ;&st7;  " d=" M  3450.42,   486.20  L  3501.41,   486.20  L  3501.41,   452.21  L  3450.42,   452.21  L  3450.42,   486.20  " /><g ewd:lineID="121"><text style="font-size:6px;font-family:'NSimSun';" transform="matrix(&st16;  3467.25  449.65 )">2</text><path style="stroke-width: 1.42 ;&st7;   " d=" M  3480.45,   447.68  C  3480.45    445.17   3478.42    443.14   3475.92    443.14  " /><path style="stroke-width: 1.42 ;&st7;   " d=" M  3475.92,   443.14  C  3473.42    443.14   3471.39    445.17   3471.39    447.68  " /><path style="stroke-width: 1.42 ;&st7;   " d=" M  3471.39,   447.68  C  3471.39    450.18   3473.42    452.21   3475.92    452.21  " /><path style="stroke-width: 1.42 ;&st7;   " d=" M  3475.92,   452.21  C  3478.42    452.21   3480.45    450.18   3480.45    447.68  " /><text style="font-size:6px;font-family:'NSimSun';" transform="matrix(&st16;  3473.61  449.65 )">A</text><text style="font-size:6px;font-family:'NSimSun';" transform="matrix(&st16;  3473.23  459.84 )">SI</text></g></g><g ewd:figtype="rb" ewd:figID="16" ewd:code="FUSE32"><path style="stroke-width: 0.85 ;&st7;  " d=" M  3373.94,    69.77  L  3373.94,   103.77  " /><path style="stroke-width: 1.42 ;&st7;  " d=" M  3376.06,   103.77  L  3371.81,   103.77  " /><path style="stroke-width: 1.42 ;&st7;  " d=" M  3376.06,   112.27  L  3371.81,   112.27  " /><path style="stroke-width: 1.42 ;&st7;   " d=" M  3371.81,   103.77  C  3369.46    103.77   3367.56    105.67   3367.56    108.02  " /><path style="stroke-width: 1.42 ;&st7;   " d=" M  3367.56,   108.02  C  3367.56    110.36   3369.46    112.27   3371.81    112.27  " /><path style="stroke-width: 1.42 ;&st7;   " d=" M  3376.06,   112.27  C  3378.41    112.27   3380.31    110.36   3380.31    108.02  " /><path style="stroke-width: 1.42 ;&st7;   " d=" M  3380.31,   108.02  C  3380.31    105.67   3378.41    103.77   3376.06    103.77  " /><path style="stroke-width: 0.28 ;&st9;  " d=" M  3373.93,    98.87  L  3371.10,    96.04  L  3371.10,   100.29  L  3373.93,   103.12  L  3376.77,   100.29  L  3376.77,    96.04  L  3373.93,    98.87  " /><text style="font-size:6px;font-family:'NSimSun';" transform="matrix(&st16;  3365.89  32.08 )">(BAT)</text><text style="font-size:6px;font-family:'NSimSun';" transform="matrix(&st16;  3367.75  86.47 )">2</text><text style="font-size:6px;font-family:'NSimSun';" transform="matrix(&st16;  3372.14  109.99 )">1</text><text style="font-size:6px;font-family:'NSimSun';" transform="matrix(&st16;  3390.36  56.17 )">50A <tspan x="0 " dy="6.0">DEF</tspan></text><path style="stroke-width: 0.85 ;&st7;   " d=" M  3375.35,    45.69  C  3375.35     44.91   3374.72     44.28   3373.94     44.28  " /><path style="stroke-width: 0.85 ;&st7;   " d=" M  3373.94,    44.28  C  3373.15     44.28   3372.52     44.91   3372.52     45.69  " /><path style="stroke-width: 0.85 ;&st7;   " d=" M  3372.52,    45.69  C  3372.52     46.48   3373.15     47.11   3373.94     47.11  " /><path style="stroke-width: 0.85 ;&st7;   " d=" M  3373.94,    47.11  C  3374.72     47.11   3375.35     46.48   3375.35     45.69  " /><path style="stroke-width: 0.85 ;&st7;   " d=" M  3375.35,    68.36  C  3375.35     67.57   3374.72     66.94   3373.94     66.94  " /><path style="stroke-width: 0.85 ;&st7;   " d=" M  3373.94,    66.94  C  3373.15     66.94   3372.52     67.57   3372.52     68.36  " /><path style="stroke-width: 0.85 ;&st7;   " d=" M  3372.52,    68.36  C  3372.52     69.14   3373.15     69.77   3373.94     69.77  " /><path style="stroke-width: 0.85 ;&st7;   " d=" M  3373.94,    69.77  C  3374.72     69.77   3375.35     69.14   3375.35     68.36  " /><path style="stroke-width: 1.42 ;&st7;   " d=" M  3373.94,    66.94  C  3376.67     65.33   3377.59     61.80   3375.97     59.06  " /><path style="stroke-width: 1.42 ;&st7;   " d=" M  3375.97,    59.06  C  3375.45     58.18   3374.82     57.55   3373.94     57.03  " /><path style="stroke-width: 1.42 ;&st7;   " d=" M  3373.94,    47.11  C  3371.20     48.72   3370.29     52.25   3371.90     54.99  " /><path style="stroke-width: 1.42 ;&st7;   " d=" M  3371.90,    54.99  C  3372.42     55.87   3373.05     56.51   3373.94     57.03  " /><path style="stroke-width: 1.42 ;&st7;  " d=" M  3361.19,    35.78  L  3361.19,    78.27  L  3386.68,    78.27  L  3386.68,    35.78  L  3361.19,    35.78  " /></g><g ewd:figtype="rb" ewd:figID="17" ewd:code="1"><path style="stroke-width: 1.42 ;&st7;  " d=" M  3299.57,   248.24  L  3295.32,   248.24  " /><path style="stroke-width: 1.42 ;&st7;  " d=" M  3299.57,   256.74  L  3295.32,   256.74  " /><path style="stroke-width: 1.42 ;&st7;   " d=" M  3271.95,   248.24  C  3274.16    250.07   3277.30    250.01   3279.44    248.10  " /><path style="stroke-width: 1.42 ;&st7;  " d=" M  3299.57,   180.26  L  3295.32,   180.26  " /><path style="stroke-width: 1.42 ;&st7;  " d=" M  3299.57,   171.76  L  3295.32,   171.76  " /><path style="stroke-width: 0.85 ;&st7;  " d=" M  3271.95,   180.26  L  3271.95,   197.25  " /><path style="stroke-width: 1.42 ;&st7;  " d=" M  3274.08,   180.26  L  3269.83,   180.26  " /><path style="stroke-width: 1.42 ;&st7;  " d=" M  3274.08,   171.76  L  3269.83,   171.76  " /><path style="stroke-width: 1.42 ;&st7;   " d=" M  3295.32,   248.24  C  3292.98    248.24   3291.08    250.15   3291.08    252.49  " /><path style="stroke-width: 1.42 ;&st7;   " d=" M  3291.08,   252.49  C  3291.08    254.84   3292.98    256.74   3295.32    256.74  " /><path style="stroke-width: 1.42 ;&st7;   " d=" M  3299.57,   256.74  C  3301.92    256.74   3303.82    254.84   3303.82    252.49  " /><path style="stroke-width: 1.42 ;&st7;   " d=" M  3303.82,   252.49  C  3303.82    250.15   3301.92    248.24   3299.57    248.24  " /><path style="stroke-width: 1.42 ;&st7;   " d=" M  3271.95,   248.24  C  3269.74    246.42   3266.61    246.48   3264.47    248.38  " /><path style="stroke-width: 1.42 ;&st7;   " d=" M  3303.82,   176.01  C  3303.82    173.66   3301.92    171.76   3299.57    171.76  " /><path style="stroke-width: 1.42 ;&st7;   " d=" M  3299.57,   180.26  C  3301.92    180.26   3303.82    178.35   3303.82    176.01  " /><path style="stroke-width: 1.42 ;&st7;   " d=" M  3291.08,   176.01  C  3291.08    178.35   3292.98    180.26   3295.32    180.26  " /><path style="stroke-width: 1.42 ;&st7;   " d=" M  3278.33,   176.01  C  3278.33    173.66   3276.42    171.76   3274.08    171.76  " /><path style="stroke-width: 1.42 ;&st7;   " d=" M  3274.08,   180.26  C  3276.42    180.26   3278.33    178.35   3278.33    176.01  " /><path style="stroke-width: 1.42 ;&st7;   " d=" M  3265.58,   176.01  C  3265.58    178.35   3267.48    180.26   3269.83    180.26  " /><path style="stroke-width: 1.42 ;&st7;   " d=" M  3269.83,   171.76  C  3267.48    171.76   3265.58    173.66   3265.58    176.01  " /><path style="stroke-width: 1.42 ;&st7;   " d=" M  3295.32,   171.76  C  3292.98    171.76   3291.08    173.66   3291.08    176.01  " /><path style="stroke-width: 0.85 ;&st7;  " d=" M  3271.95,   231.25  L  3271.95,   248.24  " /><path style="stroke-width: 0.85 ;&st7;  " d=" M  3297.45,   231.25  L  3297.45,   248.24  " /><path style="stroke-width: 0.85 ;&st7;  " d=" M  3297.45,   197.25  L  3297.45,   180.26  " /><path style="stroke-width: 0.28 ;&st9;  " d=" M  3297.45,   243.35  L  3294.61,   240.52  L  3294.61,   244.77  L  3297.45,   247.60  L  3300.28,   244.77  L  3300.28,   240.52  L  3297.45,   243.35  " /><path style="stroke-width: 0.28 ;&st9;  " d=" M  3297.45,   185.15  L  3300.28,   187.98  L  3300.28,   183.73  L  3297.45,   180.90  L  3294.61,   183.73  L  3294.61,   187.98  L  3297.45,   185.15  " /><path style="stroke-width: 0.28 ;&st9;  " d=" M  3271.95,   185.15  L  3274.78,   187.98  L  3274.78,   183.73  L  3271.95,   180.90  L  3269.12,   183.73  L  3269.12,   187.98  L  3271.95,   185.15  " /><text style="font-size:6px;font-family:'NSimSun';" transform="matrix(&st16;  3270.15  177.98 )">1</text><text style="font-size:6px;font-family:'NSimSun';" transform="matrix(&st16;  3265.77  193.56 )">1</text><text style="font-size:6px;font-family:'NSimSun';" transform="matrix(&st16;  3295.65  177.98 )">1</text><text style="font-size:6px;font-family:'NSimSun';" transform="matrix(&st16;  3295.65  254.46 )">1</text><text style="font-size:6px;font-family:'NSimSun';" transform="matrix(&st16;  3265.77  239.44 )">2</text><text style="font-size:6px;font-family:'NSimSun';" transform="matrix(&st16;  3291.26  239.44 )">3</text><path style="stroke-width: 1.42 ;&st7;   " d=" M  3322.94,   248.24  C  3325.16    250.07   3328.29    250.01   3330.43    248.10  " /><text style="font-size:6px;font-family:'NSimSun';" transform="matrix(&st16;  3291.26  193.56 )">5</text><text style="font-size:6px;font-family:'NSimSun';" transform="matrix(&st16;  3308.53  210.56 )">4</text><path style="stroke-width: 1.42 ;&st7;   " d=" M  3322.94,   248.24  C  3320.73    246.42   3317.60    246.48   3315.46    248.38  " /><path style="stroke-width: 0.85 ;&st7;  " d=" M  3322.94,   248.24  L  3322.94,   214.25  L  3305.95,   214.25  " /><text style="font-size:6px;font-family:'NSimSun';" transform="matrix(&st17;  3259.76  227.73 )" ewd:textID="34">DEF 继电器</text><path style="stroke-width: 1.42 ;&st7;  " d=" M  3297.45,   224.16  L  3303.11,   201.50  " /><path style="stroke-width: 0.85 ;&st7;  " d=" M  3297.45,   227.00  L  3297.45,   231.25  " /><path style="stroke-width: 0.85 ;&st7;  " d=" M  3305.95,   214.25  L  3303.11,   214.25  " /><path style="stroke-width: 0.85 ;&st7;  " d=" M  3297.45,   197.25  L  3297.45,   201.50  " /><path style="stroke-width: 0.85 ;&st7;  " d=" M  3271.95,   197.25  L  3271.95,   205.75  " /><path style="stroke-width: 0.85 ;&st7;  " d=" M  3271.95,   222.75  L  3271.95,   231.25  " /><path style="stroke-width: 0.85 ;&st7;   " d=" M  3303.11,   214.25  C  3303.11    213.47   3302.48    212.83   3301.70    212.83  " /><path style="stroke-width: 0.85 ;&st7;   " d=" M  3301.70,   212.83  C  3300.92    212.83   3300.28    213.47   3300.28    214.25  " /><path style="stroke-width: 0.85 ;&st7;   " d=" M  3300.28,   214.25  C  3300.28    215.03   3300.92    215.67   3301.70    215.67  " /><path style="stroke-width: 0.85 ;&st7;   " d=" M  3301.70,   215.67  C  3302.48    215.67   3303.11    215.03   3303.11    214.25  " /><path style="stroke-width: 0.85 ;&st7;   " d=" M  3298.87,   225.58  C  3298.87    224.80   3298.23    224.16   3297.45    224.16  " /><path style="stroke-width: 0.85 ;&st7;   " d=" M  3297.45,   224.16  C  3296.67    224.16   3296.03    224.80   3296.03    225.58  " /><path style="stroke-width: 0.85 ;&st7;   " d=" M  3296.03,   225.58  C  3296.03    226.36   3296.67    227.00   3297.45    227.00  " /><path style="stroke-width: 0.85 ;&st7;   " d=" M  3297.45,   227.00  C  3298.23    227.00   3298.87    226.36   3298.87    225.58  " /><path style="stroke-width: 0.85 ;&st7;   " d=" M  3298.87,   202.92  C  3298.87    202.14   3298.23    201.50   3297.45    201.50  " /><path style="stroke-width: 0.85 ;&st7;   " d=" M  3297.45,   201.50  C  3296.67    201.50   3296.03    202.14   3296.03    202.92  " /><path style="stroke-width: 0.85 ;&st7;   " d=" M  3296.03,   202.92  C  3296.03    203.70   3296.67    204.33   3297.45    204.33  " /><path style="stroke-width: 0.85 ;&st7;   " d=" M  3297.45,   204.33  C  3298.23    204.33   3298.87    203.70   3298.87    202.92  " /><path style="stroke-width: 0.85 ;&st7;   " d=" M  3269.42,   211.77  C  3270.79    213.17   3273.03    213.19   3274.43    211.82  " /><path style="stroke-width: 0.85 ;&st7;   " d=" M  3274.43,   211.82  C  3275.83    210.45   3275.85    208.21   3274.48    206.81  " /><path style="stroke-width: 0.85 ;&st7;   " d=" M  3274.48,   206.81  C  3273.79    206.11   3272.94    205.75   3271.95    205.75  " /><path style="stroke-width: 0.85 ;&st7;   " d=" M  3269.42,   216.73  C  3270.79    218.13   3273.03    218.15   3274.43    216.78  " /><path style="stroke-width: 0.85 ;&st7;   " d=" M  3274.43,   216.78  C  3275.83    215.41   3275.85    213.17   3274.48    211.77  " /><path style="stroke-width: 0.85 ;&st7;   " d=" M  3274.48,   211.77  C  3273.11    210.37   3270.87    210.35   3269.47    211.72  " /><path style="stroke-width: 0.85 ;&st7;   " d=" M  3269.47,   211.72  C  3269.46    211.74   3269.44    211.75   3269.42    211.77  " /><path style="stroke-width: 0.85 ;&st7;   " d=" M  3271.95,   222.75  C  3273.91    222.75   3275.49    221.16   3275.49    219.21  " /><path style="stroke-width: 0.85 ;&st7;   " d=" M  3275.49,   219.21  C  3275.49    217.25   3273.91    215.67   3271.95    215.67  " /><path style="stroke-width: 0.85 ;&st7;   " d=" M  3271.95,   215.67  C  3270.96    215.67   3270.12    216.02   3269.42    216.73  " /><path style="stroke-width: 1.42 ;&st7;  " d=" M  3305.95,   197.25  L  3263.45,   197.25  L  3263.45,   231.25  L  3305.95,   231.25  L  3305.95,   197.25  " /></g><g ewd:figtype="rb" ewd:figID="18" ewd:code="FUSE15"><path style="stroke-width: 1.42 ;&st7;  " d=" M  3486.54,   239.75  L  3482.29,   239.75  " /><path style="stroke-width: 1.42 ;&st7;  " d=" M  3486.54,   248.24  L  3482.29,   248.24  " /><path style="stroke-width: 1.42 ;&st7;  " d=" M  3486.54,   163.26  L  3482.29,   163.26  " /><path style="stroke-width: 1.42 ;&st7;  " d=" M  3486.54,   154.76  L  3482.29,   154.76  " /><path style="stroke-width: 1.42 ;&st7;   " d=" M  3482.29,   239.75  C  3479.95    239.75   3478.04    241.65   3478.04    243.99  " /><path style="stroke-width: 1.42 ;&st7;   " d=" M  3478.04,   243.99  C  3478.04    246.34   3479.95    248.24   3482.29    248.24  " /><path style="stroke-width: 1.42 ;&st7;   " d=" M  3486.54,   248.24  C  3488.89    248.24   3490.79    246.34   3490.79    243.99  " /><path style="stroke-width: 1.42 ;&st7;   " d=" M  3490.79,   243.99  C  3490.79    241.65   3488.89    239.75   3486.54    239.75  " /><path style="stroke-width: 1.42 ;&st7;   " d=" M  3490.79,   159.01  C  3490.79    156.66   3488.89    154.76   3486.54    154.76  " /><path style="stroke-width: 1.42 ;&st7;   " d=" M  3486.54,   163.26  C  3488.89    163.26   3490.79    161.36   3490.79    159.01  " /><path style="stroke-width: 1.42 ;&st7;   " d=" M  3478.04,   159.01  C  3478.04    161.36   3479.95    163.26   3482.29    163.26  " /><path style="stroke-width: 1.42 ;&st7;   " d=" M  3482.29,   154.76  C  3479.95    154.76   3478.04    156.66   3478.04    159.01  " /><path style="stroke-width: 0.85 ;&st7;  " d=" M  3484.42,   222.64  L  3484.42,   239.75  " /><path style="stroke-width: 0.85 ;&st7;  " d=" M  3484.42,   180.26  L  3484.42,   163.26  " /><path style="stroke-width: 0.28 ;&st9;  " d=" M  3484.42,   234.85  L  3481.58,   232.02  L  3481.58,   236.27  L  3484.42,   239.10  L  3487.25,   236.27  L  3487.25,   232.02  L  3484.42,   234.85  " /><path style="stroke-width: 0.28 ;&st9;  " d=" M  3484.42,   168.15  L  3487.25,   170.99  L  3487.25,   166.74  L  3484.42,   163.90  L  3481.58,   166.74  L  3481.58,   170.99  L  3484.42,   168.15  " /><text style="font-size:6px;font-family:'NSimSun';" transform="matrix(&st16;  3482.62  160.98 )">1</text><text style="font-size:6px;font-family:'NSimSun';" transform="matrix(&st16;  3482.62  245.96 )">1</text><text style="font-size:6px;font-family:'NSimSun';" transform="matrix(&st16;  3500.84  197.82 )">10A <tspan x="0 " dy="6.0">MIR </tspan><tspan x="0 " dy="6.0">HTR</tspan></text><text style="font-size:6px;font-family:'NSimSun';" transform="matrix(&st16;  3478.23  230.94 )">2</text><text style="font-size:6px;font-family:'NSimSun';" transform="matrix(&st16;  3478.23  176.56 )">1</text><path style="stroke-width: 0.85 ;&st7;  " d=" M  3484.42,   214.25  L  3484.42,   222.75  " /><path style="stroke-width: 1.42 ;&st7;   " d=" M  3484.42,   191.59  C  3481.68    193.20   3480.77    196.73   3482.38    199.46  " /><path style="stroke-width: 1.42 ;&st7;   " d=" M  3482.38,   199.46  C  3482.90    200.35   3483.54    200.98   3484.42    201.50  " /><path style="stroke-width: 1.42 ;&st7;   " d=" M  3484.42,   211.42  C  3487.16    209.80   3488.07    206.28   3486.45    203.54  " /><path style="stroke-width: 1.42 ;&st7;   " d=" M  3486.45,   203.54  C  3485.94    202.66   3485.30    202.02   3484.42    201.50  " /><path style="stroke-width: 0.85 ;&st7;   " d=" M  3485.83,   190.17  C  3485.83    189.39   3485.20    188.75   3484.42    188.75  " /><path style="stroke-width: 0.85 ;&st7;   " d=" M  3484.42,   188.75  C  3483.64    188.75   3483.00    189.39   3483.00    190.17  " /><path style="stroke-width: 0.85 ;&st7;   " d=" M  3483.00,   190.17  C  3483.00    190.95   3483.64    191.59   3484.42    191.59  " /><path style="stroke-width: 0.85 ;&st7;   " d=" M  3484.42,   191.59  C  3485.20    191.59   3485.83    190.95   3485.83    190.17  " /><path style="stroke-width: 0.85 ;&st7;   " d=" M  3485.83,   212.83  C  3485.83    212.05   3485.20    211.42   3484.42    211.42  " /><path style="stroke-width: 0.85 ;&st7;   " d=" M  3484.42,   211.42  C  3483.64    211.42   3483.00    212.05   3483.00    212.83  " /><path style="stroke-width: 0.85 ;&st7;   " d=" M  3483.00,   212.83  C  3483.00    213.62   3483.64    214.25   3484.42    214.25  " /><path style="stroke-width: 0.85 ;&st7;   " d=" M  3484.42,   214.25  C  3485.20    214.25   3485.83    213.62   3485.83    212.83  " /><path style="stroke-width: 0.85 ;&st7;  " d=" M  3484.42,   180.26  L  3484.42,   188.75  " /><path style="stroke-width: 1.42 ;&st7;  " d=" M  3471.67,   180.26  L  3471.67,   222.75  L  3497.16,   222.75  L  3497.16,   180.26  L  3471.67,   180.26  " /></g><g ewd:figtype="conn" ewd:figID="29" ewd:code="A40,B39"><g ewd:lineID="105"><path style="stroke-width: 1.42 ;&st7;   " d=" M  3004.53,   303.20  C  3004.53    300.70   3002.50    298.67   3000.00    298.67  " /><path style="stroke-width: 1.42 ;&st7;   " d=" M  3000.00,   298.67  C  2997.50    298.67   2995.47    300.70   2995.47    303.20  " /><path style="stroke-width: 1.42 ;&st7;   " d=" M  3000.00,   307.73  C  3002.50    307.73   3004.53    305.70   3004.53    303.20  " /></g><g ewd:lineID="107"><text style="font-size:6px;font-family:'NSimSun';" transform="matrix(&st16;  3030.72  365.23 )">23</text><path style="stroke-width: 1.42 ;&st7;   " d=" M  3047.02,   363.26  C  3047.02    360.75   3044.99    358.73   3042.49    358.73  " /><path style="stroke-width: 1.42 ;&st7;   " d=" M  3042.49,   358.73  C  3039.99    358.73   3037.96    360.75   3037.96    363.26  " /><path style="stroke-width: 1.42 ;&st7;   " d=" M  3037.96,   363.26  C  3037.96    365.76   3039.99    367.79   3042.49    367.79  " /><path style="stroke-width: 1.42 ;&st7;   " d=" M  3042.49,   367.79  C  3044.99    367.79   3047.02    365.76   3047.02    363.26  " /><text style="font-size:6px;font-family:'NSimSun';" transform="matrix(&st16;  3040.19  365.23 )">A</text><text style="font-size:6px;font-family:'NSimSun';" transform="matrix(&st16;  3035.92  355.03 )">NSW</text></g><g ewd:lineID="115"><text style="font-size:6px;font-family:'NSimSun';" transform="matrix(&st16;  3299.58  365.23 )">131</text><path style="stroke-width: 1.42 ;&st7;   " d=" M  3318.98,   363.26  C  3318.98    360.75   3316.95    358.73   3314.45    358.73  " /><path style="stroke-width: 1.42 ;&st7;   " d=" M  3314.45,   358.73  C  3311.94    358.73   3309.91    360.75   3309.91    363.26  " /><path style="stroke-width: 1.42 ;&st7;   " d=" M  3309.91,   363.26  C  3309.91    365.76   3311.94    367.79   3314.45    367.79  " /><path style="stroke-width: 1.42 ;&st7;   " d=" M  3314.45,   367.79  C  3316.95    367.79   3318.98    365.76   3318.98    363.26  " /><text style="font-size:6px;font-family:'NSimSun';" transform="matrix(&st16;  3312.26  365.23 )">B</text><text style="font-size:6px;font-family:'NSimSun';" transform="matrix(&st16;  3306.79  355.03 )">EX1B</text></g><g ewd:lineID="117"><text style="font-size:6px;font-family:'NSimSun';" transform="matrix(&st16;  3345.17  365.23 )">99</text><path style="stroke-width: 1.42 ;&st7;   " d=" M  3361.47,   363.26  C  3361.47    360.75   3359.44    358.73   3356.94    358.73  " /><path style="stroke-width: 1.42 ;&st7;   " d=" M  3356.94,   358.73  C  3354.44    358.73   3352.41    360.75   3352.41    363.26  " /><path style="stroke-width: 1.42 ;&st7;   " d=" M  3352.41,   363.26  C  3352.41    365.76   3354.44    367.79   3356.94    367.79  " /><path style="stroke-width: 1.42 ;&st7;   " d=" M  3356.94,   367.79  C  3359.44    367.79   3361.47    365.76   3361.47    363.26  " /><text style="font-size:6px;font-family:'NSimSun';" transform="matrix(&st16;  3354.75  365.23 )">B</text><text style="font-size:6px;font-family:'NSimSun';" transform="matrix(&st16;  3348.78  355.03 )">OX1B</text></g><g ewd:lineID="120"><text style="font-size:6px;font-family:'NSimSun';" transform="matrix(&st16;  3387.66  365.23 )">56</text><path style="stroke-width: 1.42 ;&st7;   " d=" M  3403.96,   363.26  C  3403.96    360.75   3401.94    358.73   3399.43    358.73  " /><path style="stroke-width: 1.42 ;&st7;   " d=" M  3399.43,   358.73  C  3396.93    358.73   3394.90    360.75   3394.90    363.26  " /><path style="stroke-width: 1.42 ;&st7;   " d=" M  3394.90,   363.26  C  3394.90    365.76   3396.93    367.79   3399.43    367.79  " /><path style="stroke-width: 1.42 ;&st7;   " d=" M  3399.43,   367.79  C  3401.94    367.79   3403.96    365.76   3403.96    363.26  " /><text style="font-size:6px;font-family:'NSimSun';" transform="matrix(&st16;  3397.24  365.23 )">B</text><text style="font-size:6px;font-family:'NSimSun';" transform="matrix(&st16;  3391.51  355.03 )">HT1B</text></g><g ewd:lineID="121"><text style="font-size:6px;font-family:'NSimSun';" transform="matrix(&st16;  3464.15  365.23 )">60</text><path style="stroke-width: 1.42 ;&st7;   " d=" M  3480.45,   363.26  C  3480.45    360.75   3478.42    358.73   3475.92    358.73  " /><path style="stroke-width: 1.42 ;&st7;   " d=" M  3475.92,   358.73  C  3473.42    358.73   3471.39    360.75   3471.39    363.26  " /><path style="stroke-width: 1.42 ;&st7;   " d=" M  3471.39,   363.26  C  3471.39    365.76   3473.42    367.79   3475.92    367.79  " /><path style="stroke-width: 1.42 ;&st7;   " d=" M  3475.92,   367.79  C  3478.42    367.79   3480.45    365.76   3480.45    363.26  " /><text style="font-size:6px;font-family:'NSimSun';" transform="matrix(&st16;  3473.61  365.23 )">A</text><text style="font-size:6px;font-family:'NSimSun';" transform="matrix(&st16;  3469.78  355.03 )">RFC</text></g><g ewd:lineID="122"><text style="font-size:6px;font-family:'NSimSun';" transform="matrix(&st16;  3472.65  305.17 )">34</text><text style="font-size:6px;font-family:'NSimSun';" transform="matrix(&st16;  3482.11  305.17 )">A</text><path style="stroke-width: 1.42 ;&st7;   " d=" M  3488.95,   303.20  C  3488.95    300.70   3486.92    298.67   3484.42    298.67  " /><path style="stroke-width: 1.42 ;&st7;   " d=" M  3484.42,   298.67  C  3481.91    298.67   3479.89    300.70   3479.89    303.20  " /><path style="stroke-width: 1.42 ;&st7;   " d=" M  3479.89,   303.20  C  3479.89    305.70   3481.91    307.73   3484.42    307.73  " /><path style="stroke-width: 1.42 ;&st7;   " d=" M  3484.42,   307.73  C  3486.92    307.73   3488.95    305.70   3488.95    303.20  " /><text style="font-size:6px;font-family:'NSimSun';" transform="matrix(&st16;  3477.38  315.37 )">ELS2</text></g></g><g ewd:figtype="conn" ewd:figID="45" ewd:code="B27"><path style="stroke-width: 1.42 ;&st7;  " d=" M  3297.45,   452.21  L  3297.45,   486.20  L  3416.43,   486.20  L  3416.43,   452.21  L  3297.45,   452.21  " /><g ewd:lineID="113,114"><text style="font-size:6px;font-family:'NSimSun';" transform="matrix(&st16;  3308.26  494.4 )">2</text><text style="font-size:6px;font-family:'NSimSun';" transform="matrix(&st16;  3310.71  482.51 )">+B</text></g><g ewd:lineID="115"><text style="font-size:6px;font-family:'NSimSun';" transform="matrix(&st16;  3308.26  448.52 )">4</text><text style="font-size:6px;font-family:'NSimSun';" transform="matrix(&st16;  3310.78  459.84 )">E2</text></g><g ewd:lineID="117"><text style="font-size:6px;font-family:'NSimSun';" transform="matrix(&st16;  3350.75  448.52 )">3</text><text style="font-size:6px;font-family:'NSimSun';" transform="matrix(&st16;  3348.78  459.84 )">OX1B</text></g><g ewd:lineID="120"><text style="font-size:6px;font-family:'NSimSun';" transform="matrix(&st16;  3393.25  448.52 )">1</text><text style="font-size:6px;font-family:'NSimSun';" transform="matrix(&st16;  3391.51  459.84 )">HT1B</text></g><g ewd:figtype="title"><text style="font-size:6px;font-family:'NSimSun';" transform="matrix(&st17;  3431.15  489.11 )" ewd:textID="66">氧传感器 (B1<tspan x="0 " dy="6.0">S2)</tspan></text><text style="font-size:6px;font-family:'NSimSun';" transform="matrix(&st17;  3424.04  489.1 )">B27</text></g></g><g ewd:figtype="jb" ewd:figID="98" ewd:code="3"><path style="stroke-width: 0.85 ;&st7;  " d=" M  3271.95,    69.77  L  3271.95,   103.77  " /><path style="stroke-width: 1.42 ;&st7;  " d=" M  3274.08,   112.27  L  3269.83,   112.27  " /><path style="stroke-width: 1.42 ;&st7;  " d=" M  3274.08,   103.77  L  3269.83,   103.77  " /><path style="stroke-width: 1.42 ;&st7;   " d=" M  3271.95,    47.11  C  3269.22     48.72   3268.30     52.25   3269.92     54.99  " /><path style="stroke-width: 1.42 ;&st7;   " d=" M  3269.92,    54.99  C  3270.44     55.87   3271.07     56.51   3271.95     57.03  " /><path style="stroke-width: 1.42 ;&st7;   " d=" M  3271.95,    66.94  C  3274.69     65.33   3275.60     61.80   3273.99     59.06  " /><path style="stroke-width: 1.42 ;&st7;   " d=" M  3273.99,    59.06  C  3273.47     58.18   3272.84     57.55   3271.95     57.03  " /><path style="stroke-width: 0.85 ;&st7;   " d=" M  3273.37,    45.69  C  3273.37     44.91   3272.74     44.28   3271.95     44.28  " /><path style="stroke-width: 0.85 ;&st7;   " d=" M  3271.95,    44.28  C  3271.17     44.28   3270.54     44.91   3270.54     45.69  " /><path style="stroke-width: 0.85 ;&st7;   " d=" M  3270.54,    45.69  C  3270.54     46.48   3271.17     47.11   3271.95     47.11  " /><path style="stroke-width: 0.85 ;&st7;   " d=" M  3271.95,    47.11  C  3272.74     47.11   3273.37     46.48   3273.37     45.69  " /><path style="stroke-width: 0.85 ;&st7;   " d=" M  3273.37,    68.36  C  3273.37     67.57   3272.74     66.94   3271.95     66.94  " /><path style="stroke-width: 0.85 ;&st7;   " d=" M  3271.95,    66.94  C  3271.17     66.94   3270.54     67.57   3270.54     68.36  " /><path style="stroke-width: 0.85 ;&st7;   " d=" M  3270.54,    68.36  C  3270.54     69.14   3271.17     69.77   3271.95     69.77  " /><path style="stroke-width: 0.85 ;&st7;   " d=" M  3271.95,    69.77  C  3272.74     69.77   3273.37     69.14   3273.37     68.36  " /><path style="stroke-width: 1.42 ;&st7;   " d=" M  3278.33,   108.02  C  3278.33    105.67   3276.42    103.77   3274.08    103.77  " /><path style="stroke-width: 1.42 ;&st7;   " d=" M  3274.08,   112.27  C  3276.42    112.27   3278.33    110.36   3278.33    108.02  " /><path style="stroke-width: 1.42 ;&st7;   " d=" M  3265.58,   108.02  C  3265.58    110.36   3267.48    112.27   3269.83    112.27  " /><path style="stroke-width: 1.42 ;&st7;   " d=" M  3269.83,   103.77  C  3267.48    103.77   3265.58    105.67   3265.58    108.02  " /><path style="stroke-width: 1.42 ;&st7;  " d=" M  3259.20,    35.78  L  3259.20,    78.27  L  3284.70,    78.27  L  3284.70,    35.78  L  3259.20,    35.78  " /><path style="stroke-width: 0.28 ;&st9;  " d=" M  3271.95,    98.87  L  3269.12,    96.04  L  3269.12,   100.29  L  3271.95,   103.12  L  3274.78,   100.29  L  3274.78,    96.04  L  3271.95,    98.87  " /><text style="font-size:6px;font-family:'NSimSun';" transform="matrix(&st16;  3265.77  86.47 )">2</text><text style="font-size:6px;font-family:'NSimSun';" transform="matrix(&st16;  3258.34  109.99 )">52</text><text style="font-size:6px;font-family:'NSimSun';" transform="matrix(&st16;  3268.1  109.99 )">3A</text><text style="font-size:6px;font-family:'NSimSun';" transform="matrix(&st16;  3266.74  32.08 )">(IG)</text><text style="font-size:6px;font-family:'NSimSun';" transform="matrix(&st16;  3288.38  56.17 )">7.5A <tspan x="0 " dy="6.0">HTR-IG</tspan></text></g><g ewd:code="4" ewd:figID="205" ewd:comment="" ewd:figtype="comment"><text style="font-size:6px;font-family:'NSimSun';" transform="matrix(&st16;  3421.52  556.16 )">* 4 :4ZR-FE</text></g><g ewd:code="5" ewd:figID="234" ewd:comment="" ewd:figtype="comment"><text style="font-size:6px;font-family:'NSimSun';" transform="matrix(&st16;  3421.52  564.66 )">* 5 :7ZR-FE</text></g></svg>