<?xml version="1.0" encoding="utf-8"?>
<!DOCTYPE svg PUBLIC "-//W3C//DTD SVG 1.0//EN" "http://www.w3.org/TR/2001/REC-SVG-20010904/DTD/svg10.dtd"[
	<!ENTITY ns_flows "http://ns.adobe.com/Flows/1.0/">
	<!ENTITY ns_svg "http://www.w3.org/2000/svg">
	<!ENTITY ns_xlink "http://www.w3.org/1999/xlink">
	<!ENTITY st0 "font-size:7px;font-family:'NSimSun';adobe-font-script:japanese;">
	<!ENTITY st1 "font-size:6px;font-family:'NSimSun';">
	<!-- White fill  -->
	<!ENTITY st2 "fill:#FFFFFF;stroke:#000000; stroke-width:1.41;stroke-linecap:round;stroke-linejoin:round;">
	<!-- Yellow fill  -->
	<!ENTITY st3 "fill:#FFFFCC;stroke:#FFFFCC; stroke-width:0.1;stroke-linecap:round;stroke-linejoin:round;">
	<!-- Gray fill  -->
	<!ENTITY st4 "fill:#CCCCCC;stroke:#CCCCCC; stroke-width:0.1;stroke-linecap:round;stroke-linejoin:round;">
	<!-- Light-blue fill -->
	<!ENTITY st5 "fill:#CCECF4;stroke:#000000; stroke-width:1.133;stroke-linecap:round;stroke-linejoin:round;">
	<!ENTITY st6 "fill:none;stroke-linecap:butt; stroke-linejoin:round;">
	<!ENTITY st7 "fill:none;stroke:#000000;stroke-linecap:round;stroke-linejoin:round;">
	<!ENTITY st8 "enable-background:new    ;">
	<!-- Black fill -->
	<!ENTITY st9 "fill:#000000;stroke:#000000; stroke-linecap:round;stroke-linejoin:round;">
	<!-- SRS note   -->
	<!ENTITY st10 "font-size:9px;font-family:'NSimSun';">
	<!ENTITY st11 "font-size:9px;font-family:'NSimSun';">
	<!ENTITY st12 "font-size:6px;font-family:'NSimSun';">
	<!ENTITY st13 "fill:none;stroke:#ff0000;stroke-linecap:round;stroke-linejoin:round;">
	<!-- Yellow fill  -->
	<!ENTITY st14 "fill:#FFFF00;stroke:#FFFF00; stroke-width:0.1;stroke-linecap:round;stroke-linejoin:round;">
	<!ENTITY st15 "font-size:6px;font-family:'NSimSun';adobe-font-script:japanese;">
	<!ENTITY st16 "1.00 0.00 0.00 1.00">
	<!ENTITY st17 "0.00 -1.00 1.00 0.00">
	<!ENTITY st18 "font-size:6px;font-family:'NSimSun';">
	<!ENTITY st19 "font-size:9px;font-family:'NSimSun';">
	<!ENTITY st20 "font-size:6px;font-family:'NSimSun';adobe-font-script:japanese;">
	<!ENTITY st21 "font-size:7px;font-family:'NSimSun';adobe-font-script:japanese;">
	<!ATTLIST svg
		xmlns:ewd CDATA #FIXED "http://shcl.co.jp/ewd"
		xmlns:a CDATA #FIXED "http://ns.adobe.com/AdobeSVGViewerExtensions/3.0/"
		ewd:ver CDATA #IMPLIED
	>
	<!ATTLIST a
		ewd:lineID CDATA #IMPLIED
		ewd:groupID CDATA #IMPLIED
		ewd:figtype CDATA #IMPLIED
		ewd:code CDATA #IMPLIED
		ewd:figID CDATA #IMPLIED
		ewd:pinNo CDATA #IMPLIED
		ewd:comment CDATA #IMPLIED >
	<!ATTLIST g
		ewd:lineID CDATA #IMPLIED
		ewd:groupID CDATA #IMPLIED
		ewd:figtype CDATA #IMPLIED
		ewd:code CDATA #IMPLIED
		ewd:figID CDATA #IMPLIED
		ewd:pinNo CDATA #IMPLIED
		ewd:comment CDATA #IMPLIED >
	<!ATTLIST text
		ewd:textID CDATA #IMPLIED
		ewd:horAlign CDATA #IMPLIED >
	<!ATTLIST title
		ewd:textID CDATA #IMPLIED >
]>
<!-- Generator: Shintec Hozumi YS   -->
<svg onload="call_execInitLoadProc_svg('system')" style="overflow:visible;  enable-background:new 0 0 9810.194 710.000" viewBox="0 0 9815.864 710.000" height="710.000" width="9815.864" xml:space="preserve" ewd:ver="2.1.2.6F" xmlns="&ns_svg;" xmlns:ewd="http://shcl.co.jp/ewd" xmlns:a="http://ns.adobe.com/AdobeSVGViewerExtensions/3.0/" xmlns:xlink="&ns_xlink;">
<path style="stroke-width: 1.42 ;&st7;  " d=" M  3956.81,   435.21  L  3951.84,   440.18  " /><path style="stroke-width: 1.42 ;&st7;  " d=" M  3963.87,   452.21  L  3968.84,   447.24  " /><path style="stroke-width: 1.42 ;&st7;  " d=" M  3951.84,   447.24  L  3956.81,   452.21  " /><path style="stroke-width: 1.42 ;&st7;  " d=" M  3968.84,   440.18  L  3963.87,   435.21  " /><path style="stroke-width: 1.42 ;&st7;  " d=" M  3769.84,   571.19  L  3764.87,   576.16  " /><path style="stroke-width: 1.42 ;&st7;  " d=" M  3781.87,   576.16  L  3776.90,   571.19  " /><path style="stroke-width: 1.42 ;&st7;  " d=" M  3764.87,   583.22  L  3769.84,   588.19  " /><path style="stroke-width: 1.42 ;&st7;  " d=" M  3776.90,   588.19  L  3781.87,   583.22  " /><text style="font-size:6px;font-family:'NSimSun';" transform="matrix(&st17;  3848.99  558.91 )">(*4)</text><text style="font-size:6px;font-family:'NSimSun';" transform="matrix(&st17;  3718.68  555.88 )">B</text><text style="font-size:6px;font-family:'NSimSun';" transform="matrix(&st17;  3730.01  558.91 )">(*5)</text><text style="font-size:6px;font-family:'NSimSun';" transform="matrix(&st17;  3823.5  558.91 )">(*5)</text><text style="font-size:6px;font-family:'NSimSun';" transform="matrix(&st17;  3812.17  555.88 )">B</text><text style="font-size:6px;font-family:'NSimSun';" transform="matrix(&st16;  3647.24  686.47 )">B(*5)</text><text style="font-size:6px;font-family:'NSimSun';" transform="matrix(&st16;  3596.25  686.47 )">B(*5)</text><text style="font-size:6px;font-family:'NSimSun';" transform="matrix(&st17;  3781.01  431.43 )">(*5)</text><text style="font-size:6px;font-family:'NSimSun';" transform="matrix(&st17;  3781.01  558.91 )">(*5)</text><text style="font-size:6px;font-family:'NSimSun';" transform="matrix(&st17;  3769.67  428.4 )">Y</text><text style="font-size:6px;font-family:'NSimSun';" transform="matrix(&st17;  3769.67  555.88 )">B</text><text style="font-size:6px;font-family:'NSimSun';" transform="matrix(&st16;  3863.45  338.03 )">ECM</text><text style="font-size:6px;font-family:'NSimSun';" transform="matrix(&st16;  3647.24  669.48 )">B(*4)</text><text style="font-size:6px;font-family:'NSimSun';" transform="matrix(&st17;  3973.64  242.21 )">W</text><text style="font-size:6px;font-family:'NSimSun';" transform="matrix(&st17;  3939.65  241.43 )">B</text><text style="font-size:6px;font-family:'NSimSun';" transform="matrix(&st17;  3897.15  241.36 )">R</text><text style="font-size:6px;font-family:'NSimSun';" transform="matrix(&st17;  3863.16  243.53 )">LG</text><text style="font-size:6px;font-family:'NSimSun';" transform="matrix(&st17;  3829.16  241.71 )">G</text><text style="font-size:6px;font-family:'NSimSun';" transform="matrix(&st17;  3795.17  241.32 )">L</text><text style="font-size:6px;font-family:'NSimSun';" transform="matrix(&st17;  3837.66  428.33 )">R</text><text style="font-size:6px;font-family:'NSimSun';" transform="matrix(&st17;  3837.66  555.88 )">B</text><text style="font-size:6px;font-family:'NSimSun';" transform="matrix(&st17;  3922.65  428.4 )">Y</text><text style="font-size:6px;font-family:'NSimSun';" transform="matrix(&st17;  3880.15  428.29 )">L</text><text style="font-size:6px;font-family:'NSimSun';" transform="matrix(&st16;  3596.25  669.48 )">B(*4)</text><text style="font-size:6px;font-family:'NSimSun';" transform="matrix(&st17;  3693.19  428.29 )">L</text><text style="font-size:6px;font-family:'NSimSun';" transform="matrix(&st16;  3647.24  643.98 )">B(*4)</text><text style="font-size:6px;font-family:'NSimSun';" transform="matrix(&st16;  3596.25  643.98 )">B(*4)</text><text style="font-size:6px;font-family:'NSimSun';" transform="matrix(&st16;  3863.44  330.93 )">A40(A),B39(B)</text><g ewd:figtype="conn" ewd:figID="5" ewd:code="A33"><g ewd:figtype="title"><text style="font-size:6px;font-family:'NSimSun';" transform="matrix(&st17;  3516.13  489.11 )" ewd:textID="27">冷却风扇 ECU</text><text style="font-size:6px;font-family:'NSimSun';" transform="matrix(&st17;  3509.31  489.1 )">A33(A)</text></g></g><g ewd:figtype="conn" ewd:figID="29" ewd:code="A40,B39"><g ewd:lineID="124"><text style="font-size:6px;font-family:'NSimSun';" transform="matrix(&st16;  3685.11  365.23 )">33</text><text style="font-size:6px;font-family:'NSimSun';" transform="matrix(&st16;  3694.69  365.23 )">B</text><path style="stroke-width: 1.42 ;&st7;   " d=" M  3701.41,   363.26  C  3701.41    360.75   3699.39    358.73   3696.88    358.73  " /><path style="stroke-width: 1.42 ;&st7;   " d=" M  3696.88,   358.73  C  3694.38    358.73   3692.35    360.75   3692.35    363.26  " /><path style="stroke-width: 1.42 ;&st7;   " d=" M  3692.35,   363.26  C  3692.35    365.76   3694.38    367.79   3696.88    367.79  " /><path style="stroke-width: 1.42 ;&st7;   " d=" M  3696.88,   367.79  C  3699.39    367.79   3701.41    365.76   3701.41    363.26  " /><text style="font-size:6px;font-family:'NSimSun';" transform="matrix(&st16;  3690.82  355.03 )">PRG</text></g><g ewd:lineID="126"><text style="font-size:6px;font-family:'NSimSun';" transform="matrix(&st16;  3761.6  365.23 )">62</text><text style="font-size:6px;font-family:'NSimSun';" transform="matrix(&st16;  3771.18  365.23 )">B</text><path style="stroke-width: 1.42 ;&st7;   " d=" M  3777.90,   363.26  C  3777.90    360.75   3775.87    358.73   3773.37    358.73  " /><path style="stroke-width: 1.42 ;&st7;   " d=" M  3773.37,   358.73  C  3770.87    358.73   3768.84    360.75   3768.84    363.26  " /><path style="stroke-width: 1.42 ;&st7;   " d=" M  3768.84,   363.26  C  3768.84    365.76   3770.87    367.79   3773.37    367.79  " /><path style="stroke-width: 1.42 ;&st7;   " d=" M  3773.37,   367.79  C  3775.87    367.79   3777.90    365.76   3777.90    363.26  " /><text style="font-size:6px;font-family:'NSimSun';" transform="matrix(&st16;  3766.45  355.03 )">ACIS</text></g><g ewd:lineID="127"><text style="font-size:6px;font-family:'NSimSun';" transform="matrix(&st16;  3784.0  305.17 )">133</text><path style="stroke-width: 1.42 ;&st7;   " d=" M  3803.40,   303.20  C  3803.40    300.70   3801.37    298.67   3798.87    298.67  " /><path style="stroke-width: 1.42 ;&st7;   " d=" M  3798.87,   298.67  C  3796.36    298.67   3794.33    300.70   3794.33    303.20  " /><path style="stroke-width: 1.42 ;&st7;   " d=" M  3794.33,   303.20  C  3794.33    305.70   3796.36    307.73   3798.87    307.73  " /><path style="stroke-width: 1.42 ;&st7;   " d=" M  3798.87,   307.73  C  3801.37    307.73   3803.40    305.70   3803.40    303.20  " /><text style="font-size:6px;font-family:'NSimSun';" transform="matrix(&st16;  3796.68  305.17 )">B</text><text style="font-size:6px;font-family:'NSimSun';" transform="matrix(&st16;  3792.76  315.37 )">ETA</text></g><g ewd:lineID="128"><text style="font-size:6px;font-family:'NSimSun';" transform="matrix(&st16;  3817.99  305.17 )">134</text><text style="font-size:6px;font-family:'NSimSun';" transform="matrix(&st16;  3830.67  305.17 )">B</text><path style="stroke-width: 1.42 ;&st7;   " d=" M  3837.39,   303.20  C  3837.39    300.70   3835.36    298.67   3832.86    298.67  " /><path style="stroke-width: 1.42 ;&st7;   " d=" M  3832.86,   298.67  C  3830.36    298.67   3828.33    300.70   3828.33    303.20  " /><path style="stroke-width: 1.42 ;&st7;   " d=" M  3828.33,   303.20  C  3828.33    305.70   3830.36    307.73   3832.86    307.73  " /><path style="stroke-width: 1.42 ;&st7;   " d=" M  3832.86,   307.73  C  3835.36    307.73   3837.39    305.70   3837.39    303.20  " /><text style="font-size:6px;font-family:'NSimSun';" transform="matrix(&st16;  3824.39  315.37 )">VCTA</text></g><g ewd:lineID="130"><text style="font-size:6px;font-family:'NSimSun';" transform="matrix(&st16;  3829.59  365.23 )">27</text><path style="stroke-width: 1.42 ;&st7;   " d=" M  3845.89,   363.26  C  3845.89    360.75   3843.86    358.73   3841.36    358.73  " /><path style="stroke-width: 1.42 ;&st7;   " d=" M  3841.36,   358.73  C  3838.85    358.73   3836.83    360.75   3836.83    363.26  " /><path style="stroke-width: 1.42 ;&st7;   " d=" M  3836.83,   363.26  C  3836.83    365.76   3838.85    367.79   3841.36    367.79  " /><path style="stroke-width: 1.42 ;&st7;   " d=" M  3841.36,   367.79  C  3843.86    367.79   3845.89    365.76   3845.89    363.26  " /><text style="font-size:6px;font-family:'NSimSun';" transform="matrix(&st16;  3839.17  365.23 )">B</text><text style="font-size:6px;font-family:'NSimSun';" transform="matrix(&st16;  3833.2  355.03 )">HA1A</text></g><g ewd:lineID="131"><text style="font-size:6px;font-family:'NSimSun';" transform="matrix(&st16;  3851.98  305.17 )">135</text><path style="stroke-width: 1.42 ;&st7;   " d=" M  3871.39,   303.20  C  3871.39    300.70   3869.36    298.67   3866.85    298.67  " /><path style="stroke-width: 1.42 ;&st7;   " d=" M  3866.85,   298.67  C  3864.35    298.67   3862.32    300.70   3862.32    303.20  " /><path style="stroke-width: 1.42 ;&st7;   " d=" M  3862.32,   303.20  C  3862.32    305.70   3864.35    307.73   3866.85    307.73  " /><path style="stroke-width: 1.42 ;&st7;   " d=" M  3866.85,   307.73  C  3869.36    307.73   3871.39    305.70   3871.39    303.20  " /><text style="font-size:6px;font-family:'NSimSun';" transform="matrix(&st16;  3864.67  305.17 )">B</text><text style="font-size:6px;font-family:'NSimSun';" transform="matrix(&st16;  3859.0  315.37 )">VTA1</text></g><g ewd:lineID="132"><text style="font-size:6px;font-family:'NSimSun';" transform="matrix(&st16;  3868.98  365.23 )">132</text><path style="stroke-width: 1.42 ;&st7;   " d=" M  3888.38,   363.26  C  3888.38    360.75   3886.35    358.73   3883.85    358.73  " /><path style="stroke-width: 1.42 ;&st7;   " d=" M  3883.85,   358.73  C  3881.35    358.73   3879.32    360.75   3879.32    363.26  " /><path style="stroke-width: 1.42 ;&st7;   " d=" M  3879.32,   363.26  C  3879.32    365.76   3881.35    367.79   3883.85    367.79  " /><path style="stroke-width: 1.42 ;&st7;   " d=" M  3883.85,   367.79  C  3886.35    367.79   3888.38    365.76   3888.38    363.26  " /><text style="font-size:6px;font-family:'NSimSun';" transform="matrix(&st16;  3881.66  365.23 )">B</text><text style="font-size:6px;font-family:'NSimSun';" transform="matrix(&st16;  3876.39  355.03 )">A1A-</text></g><g ewd:lineID="133"><text style="font-size:6px;font-family:'NSimSun';" transform="matrix(&st16;  3885.98  305.17 )">101</text><path style="stroke-width: 1.42 ;&st7;   " d=" M  3905.38,   303.20  C  3905.38    300.70   3903.35    298.67   3900.85    298.67  " /><path style="stroke-width: 1.42 ;&st7;   " d=" M  3900.85,   298.67  C  3898.34    298.67   3896.32    300.70   3896.32    303.20  " /><path style="stroke-width: 1.42 ;&st7;   " d=" M  3896.32,   303.20  C  3896.32    305.70   3898.34    307.73   3900.85    307.73  " /><path style="stroke-width: 1.42 ;&st7;   " d=" M  3900.85,   307.73  C  3903.35    307.73   3905.38    305.70   3905.38    303.20  " /><text style="font-size:6px;font-family:'NSimSun';" transform="matrix(&st16;  3898.66  305.17 )">B</text><text style="font-size:6px;font-family:'NSimSun';" transform="matrix(&st16;  3893.0  315.37 )">VTA2</text></g><g ewd:lineID="134"><text style="font-size:6px;font-family:'NSimSun';" transform="matrix(&st16;  3911.47  365.23 )">100</text><text style="font-size:6px;font-family:'NSimSun';" transform="matrix(&st16;  3924.16  365.23 )">B</text><path style="stroke-width: 1.42 ;&st7;   " d=" M  3930.88,   363.26  C  3930.88    360.75   3928.85    358.73   3926.34    358.73  " /><path style="stroke-width: 1.42 ;&st7;   " d=" M  3926.34,   358.73  C  3923.84    358.73   3921.81    360.75   3921.81    363.26  " /><path style="stroke-width: 1.42 ;&st7;   " d=" M  3921.81,   363.26  C  3921.81    365.76   3923.84    367.79   3926.34    367.79  " /><path style="stroke-width: 1.42 ;&st7;   " d=" M  3926.34,   367.79  C  3928.85    367.79   3930.88    365.76   3930.88    363.26  " /><text style="font-size:6px;font-family:'NSimSun';" transform="matrix(&st16;  3918.88  355.03 )">A1A+</text></g><g ewd:lineID="135"><text style="font-size:6px;font-family:'NSimSun';" transform="matrix(&st16;  3931.57  305.17 )">60</text><path style="stroke-width: 1.42 ;&st7;   " d=" M  3947.87,   303.20  C  3947.87    300.70   3945.84    298.67   3943.34    298.67  " /><path style="stroke-width: 1.42 ;&st7;   " d=" M  3943.34,   298.67  C  3940.84    298.67   3938.81    300.70   3938.81    303.20  " /><path style="stroke-width: 1.42 ;&st7;   " d=" M  3938.81,   303.20  C  3938.81    305.70   3940.84    307.73   3943.34    307.73  " /><path style="stroke-width: 1.42 ;&st7;   " d=" M  3943.34,   307.73  C  3945.84    307.73   3947.87    305.70   3947.87    303.20  " /><text style="font-size:6px;font-family:'NSimSun';" transform="matrix(&st16;  3941.15  305.17 )">B</text><text style="font-size:6px;font-family:'NSimSun';" transform="matrix(&st16;  3939.06  315.37 )">M+</text></g><g ewd:lineID="136"><text style="font-size:6px;font-family:'NSimSun';" transform="matrix(&st16;  3965.57  305.17 )">30</text><text style="font-size:6px;font-family:'NSimSun';" transform="matrix(&st16;  3975.15  305.17 )">B</text><path style="stroke-width: 1.42 ;&st7;   " d=" M  3981.87,   303.20  C  3981.87    300.70   3979.84    298.67   3977.34    298.67  " /><path style="stroke-width: 1.42 ;&st7;   " d=" M  3977.34,   298.67  C  3974.83    298.67   3972.80    300.70   3972.80    303.20  " /><path style="stroke-width: 1.42 ;&st7;   " d=" M  3972.80,   303.20  C  3972.80    305.70   3974.83    307.73   3977.34    307.73  " /><path style="stroke-width: 1.42 ;&st7;   " d=" M  3977.34,   307.73  C  3979.84    307.73   3981.87    305.70   3981.87    303.20  " /><text style="font-size:6px;font-family:'NSimSun';" transform="matrix(&st16;  3973.05  315.37 )">M-</text></g><g ewd:lineID="137"><text style="font-size:6px;font-family:'NSimSun';" transform="matrix(&st16;  3996.46  365.23 )">122</text></g><g ewd:lineID="138"><text style="font-size:6px;font-family:'NSimSun';" transform="matrix(&st16;  3996.46  305.17 )">108</text></g></g><g ewd:figtype="conn" ewd:figID="46" ewd:code="B28"><text style="font-size:6px;font-family:'NSimSun';" transform="matrix(&st16;  3945.92  185.06 )">M+</text><text style="font-size:6px;font-family:'NSimSun';" transform="matrix(&st16;  3979.92  185.06 )">M-</text><path style="stroke-width: 0.85 ;&st7;  " d=" M  3798.86,   154.76  L  3798.86,   188.75  " /><path style="stroke-width: 0.85 ;&st7;  " d=" M  3823.17,    51.77  L  3822.89,    52.24  L  3822.80,    52.78  L  3822.89,    53.31  L  3823.17,    53.78  L  3823.58,    54.13  L  3824.09,    54.31  L  3824.63,    54.31  L  3825.14,    54.13  L  3825.55,    53.78  L  3825.82,    53.31  L  3825.92,    52.78  L  3825.82,    52.24  L  3825.55,    51.77  L  3825.14,    51.43  L  3824.63,    51.24  L  3824.09,    51.24  L  3823.58,    51.43  L  3823.17,    51.77  L  3823.56,    52.48  L  3823.56,    53.07  L  3823.93,    53.51  L  3824.51,    53.61  L  3825.01,    53.32  L  3825.21,    52.78  L  3825.01,    52.23  L  3824.51,    51.94  L  3823.93,    52.04  L  3824.36,    52.78  " /><path style="stroke-width: 0.85 ;&st7;  " d=" M  3865.66,    51.77  L  3865.39,    52.24  L  3865.29,    52.78  L  3865.39,    53.31  L  3865.66,    53.78  L  3866.07,    54.13  L  3866.58,    54.31  L  3867.12,    54.31  L  3867.63,    54.13  L  3868.04,    53.78  L  3868.32,    53.31  L  3868.41,    52.78  L  3868.32,    52.24  L  3868.04,    51.77  L  3867.63,    51.43  L  3867.12,    51.24  L  3866.58,    51.24  L  3866.07,    51.43  L  3865.66,    51.77  L  3866.05,    52.48  L  3866.05,    53.07  L  3866.43,    53.51  L  3867.00,    53.61  L  3867.50,    53.32  L  3867.70,    52.78  L  3867.50,    52.23  L  3867.00,    51.94  L  3866.43,    52.04  L  3866.85,    52.78  " /><path style="stroke-width: 0.85 ;&st7;  " d=" M  3848.66,    51.77  L  3848.39,    52.24  L  3848.30,    52.78  L  3848.39,    53.31  L  3848.66,    53.78  L  3849.08,    54.13  L  3849.59,    54.31  L  3850.12,    54.31  L  3850.63,    54.13  L  3851.05,    53.78  L  3851.32,    53.31  L  3851.41,    52.78  L  3851.32,    52.24  L  3851.05,    51.77  L  3850.63,    51.43  L  3850.12,    51.24  L  3849.59,    51.24  L  3849.08,    51.43  L  3848.66,    51.77  L  3849.06,    52.48  L  3849.06,    53.07  L  3849.43,    53.51  L  3850.00,    53.61  L  3850.51,    53.32  L  3850.70,    52.78  L  3850.51,    52.23  L  3850.00,    51.94  L  3849.43,    52.04  L  3849.86,    52.78  " /><path style="stroke-width: 0.85 ;&st7;  " d=" M  3857.16,    94.27  L  3856.89,    94.74  L  3856.80,    95.27  L  3856.89,    95.80  L  3857.16,    96.27  L  3857.57,    96.62  L  3858.08,    96.81  L  3858.62,    96.81  L  3859.13,    96.62  L  3859.55,    96.27  L  3859.82,    95.80  L  3859.91,    95.27  L  3859.82,    94.74  L  3859.55,    94.27  L  3859.13,    93.92  L  3858.62,    93.73  L  3858.08,    93.73  L  3857.57,    93.92  L  3857.16,    94.27  L  3857.55,    94.98  L  3857.55,    95.56  L  3857.93,    96.01  L  3858.50,    96.11  L  3859.01,    95.82  L  3859.20,    95.27  L  3859.01,    94.72  L  3858.50,    94.43  L  3857.93,    94.53  L  3858.35,    95.27  " /><path style="stroke-width: 0.85 ;&st7;  " d=" M  3865.66,    94.27  L  3865.39,    94.74  L  3865.29,    95.27  L  3865.39,    95.80  L  3865.66,    96.27  L  3866.07,    96.62  L  3866.58,    96.81  L  3867.12,    96.81  L  3867.63,    96.62  L  3868.04,    96.27  L  3868.32,    95.80  L  3868.41,    95.27  L  3868.32,    94.74  L  3868.04,    94.27  L  3867.63,    93.92  L  3867.12,    93.73  L  3866.58,    93.73  L  3866.07,    93.92  L  3865.66,    94.27  L  3866.05,    94.98  L  3866.05,    95.56  L  3866.43,    96.01  L  3867.00,    96.11  L  3867.50,    95.82  L  3867.70,    95.27  L  3867.50,    94.72  L  3867.00,    94.43  L  3866.43,    94.53  L  3866.85,    95.27  " /><path style="stroke-width: 0.85 ;&st7;  " d=" M  3848.66,    94.27  L  3848.39,    94.74  L  3848.30,    95.27  L  3848.39,    95.80  L  3848.66,    96.27  L  3849.08,    96.62  L  3849.59,    96.81  L  3850.12,    96.81  L  3850.63,    96.62  L  3851.05,    96.27  L  3851.32,    95.80  L  3851.41,    95.27  L  3851.32,    94.74  L  3851.05,    94.27  L  3850.63,    93.92  L  3850.12,    93.73  L  3849.59,    93.73  L  3849.08,    93.92  L  3848.66,    94.27  L  3849.06,    94.98  L  3849.06,    95.56  L  3849.43,    96.01  L  3850.00,    96.11  L  3850.51,    95.82  L  3850.70,    95.27  L  3850.51,    94.72  L  3850.00,    94.43  L  3849.43,    94.53  L  3849.86,    95.27  " /><path style="stroke-width: 0.85 ;&st7;  " d=" M  3797.67,   162.26  L  3797.40,   162.73  L  3797.31,   163.26  L  3797.40,   163.79  L  3797.67,   164.26  L  3798.08,   164.61  L  3798.59,   164.79  L  3799.13,   164.79  L  3799.64,   164.61  L  3800.06,   164.26  L  3800.33,   163.79  L  3800.42,   163.26  L  3800.33,   162.73  L  3800.06,   162.26  L  3799.64,   161.91  L  3799.13,   161.72  L  3798.59,   161.72  L  3798.08,   161.91  L  3797.67,   162.26  L  3798.06,   162.97  L  3798.06,   163.55  L  3798.44,   163.99  L  3799.01,   164.09  L  3799.52,   163.80  L  3799.71,   163.26  L  3799.52,   162.71  L  3799.01,   162.42  L  3798.44,   162.52  L  3798.86,   163.26  " /><path style="stroke-width: 0.85 ;&st7;  " d=" M  3797.67,   119.76  L  3797.40,   120.23  L  3797.31,   120.77  L  3797.40,   121.30  L  3797.67,   121.77  L  3798.08,   122.11  L  3798.59,   122.30  L  3799.13,   122.30  L  3799.64,   122.11  L  3800.06,   121.77  L  3800.33,   121.30  L  3800.42,   120.77  L  3800.33,   120.23  L  3800.06,   119.76  L  3799.64,   119.42  L  3799.13,   119.23  L  3798.59,   119.23  L  3798.08,   119.42  L  3797.67,   119.76  L  3798.06,   120.47  L  3798.06,   121.06  L  3798.44,   121.50  L  3799.01,   121.60  L  3799.52,   121.31  L  3799.71,   120.77  L  3799.52,   120.22  L  3799.01,   119.93  L  3798.44,   120.03  L  3798.86,   120.77  " /><path style="stroke-width: 0.85 ;&st7;  " d=" M  3865.66,   162.26  L  3865.39,   162.73  L  3865.29,   163.26  L  3865.39,   163.79  L  3865.66,   164.26  L  3866.07,   164.61  L  3866.58,   164.79  L  3867.12,   164.79  L  3867.63,   164.61  L  3868.04,   164.26  L  3868.32,   163.79  L  3868.41,   163.26  L  3868.32,   162.73  L  3868.04,   162.26  L  3867.63,   161.91  L  3867.12,   161.72  L  3866.58,   161.72  L  3866.07,   161.91  L  3865.66,   162.26  L  3866.05,   162.97  L  3866.05,   163.55  L  3866.43,   163.99  L  3867.00,   164.09  L  3867.50,   163.80  L  3867.70,   163.26  L  3867.50,   162.71  L  3867.00,   162.42  L  3866.43,   162.52  L  3866.85,   163.26  " /><path style="stroke-width: 0.85 ;&st7;  " d=" M  3832.86,   188.75  L  3832.86,   137.76  L  3858.35,   137.76  L  3858.35,    95.27  " /><path style="stroke-width: 0.85 ;&st7;  " d=" M  3971.67,   146.26  L  3977.33,   146.26  L  3977.33,   188.75  " /><path style="stroke-width: 0.85 ;&st7;  " d=" M  3892.35,    86.77  L  3892.35,    52.78  L  3781.87,    52.78  L  3781.87,   163.26  L  3803.11,   163.26  " /><path style="stroke-width: 0.85 ;&st7;  " d=" M  3798.86,   120.77  L  3900.85,   120.77  L  3900.85,   188.75  " /><path style="stroke-width: 0.85 ;&st7;  " d=" M  3949.01,   146.26  L  3943.34,   146.26  L  3943.34,   188.75  " /><path style="stroke-width: 0.85 ;&st7;  " d=" M  3866.85,    95.27  L  3866.85,    86.77  " /><path style="stroke-width: 0.85 ;&st7;  " d=" M  3807.36,    95.27  L  3798.86,    95.27  L  3798.86,   129.26  " /><path style="stroke-width: 1.42 ;&st7;  " d=" M  3807.36,    86.77  L  3807.36,   103.77  L  3841.36,   103.77  L  3841.36,    86.77  L  3807.36,    86.77  " /><path style="stroke-width: 1.42 ;&st7;  " d=" M  3875.35,    86.77  L  3875.35,   103.77  L  3909.35,   103.77  L  3909.35,    86.77  L  3875.35,    86.77  " /><path style="stroke-width: 0.85 ;&st7;  " d=" M  3824.36,    86.77  L  3824.36,    52.78  " /><path style="stroke-width: 0.85 ;&st7;  " d=" M  3841.36,    95.27  L  3875.35,    95.27  " /><path style="stroke-width: 0.85 ;&st7;  " d=" M  3866.85,   163.26  L  3866.85,   188.75  " /><path style="stroke-width: 0.85 ;&st7;  " d=" M  3828.61,   163.26  L  3917.84,   163.26  L  3917.84,    95.27  L  3909.35,    95.27  " /><path style="stroke-width: 0.85 ;&st7;  " d=" M  3849.86,    95.27  L  3849.86,    86.77  " /><path style="stroke-width: 0.85 ;&st7;  " d=" M  3798.87,   154.76  L  3798.87,   144.14  " /><path style="stroke-width: 1.42 ;&st7;  " d=" M  3871.10,    76.15  L  3862.60,    76.15  " /><path style="stroke-width: 1.42 ;&st7;  " d=" M  3871.10,    71.90  L  3862.60,    71.90  " /><path style="stroke-width: 0.85 ;&st7;  " d=" M  3866.85,    71.90  L  3866.85,    52.78  " /><path style="stroke-width: 0.85 ;&st7;  " d=" M  3866.85,    86.77  L  3866.85,    76.15  " /><path style="stroke-width: 1.42 ;&st7;  " d=" M  3854.11,    76.15  L  3845.61,    76.15  " /><path style="stroke-width: 1.42 ;&st7;  " d=" M  3854.11,    71.90  L  3845.61,    71.90  " /><path style="stroke-width: 0.85 ;&st7;  " d=" M  3849.86,    71.90  L  3849.86,    52.78  " /><path style="stroke-width: 0.85 ;&st7;  " d=" M  3849.86,    86.77  L  3849.86,    76.15  " /><path style="stroke-width: 1.42 ;&st7;  " d=" M  3817.99,   159.01  L  3817.99,   167.51  " /><path style="stroke-width: 1.42 ;&st7;  " d=" M  3813.74,   159.01  L  3813.74,   167.51  " /><path style="stroke-width: 0.85 ;&st7;  " d=" M  3813.74,   163.26  L  3803.11,   163.26  " /><path style="stroke-width: 0.85 ;&st7;  " d=" M  3828.61,   163.26  L  3817.99,   163.26  " /><path style="stroke-width: 1.42 ;&st7;  " d=" M  3803.11,   144.14  L  3794.62,   144.14  " /><path style="stroke-width: 1.42 ;&st7;  " d=" M  3803.11,   139.89  L  3794.62,   139.89  " /><path style="stroke-width: 0.85 ;&st7;  " d=" M  3798.87,   139.89  L  3798.87,   129.26  " /><path style="stroke-width: 1.42 ;&st7;  " d=" M  3949.01,   142.01  L  3952.97,   142.01  " /><path style="stroke-width: 1.42 ;&st7;  " d=" M  3952.97,   150.51  L  3949.01,   150.51  " /><path style="stroke-width: 1.42 ;&st7;  " d=" M  3949.01,   150.51  L  3949.01,   142.01  " /><path style="stroke-width: 1.42 ;&st7;  " d=" M  3971.67,   142.01  L  3967.70,   142.01  " /><path style="stroke-width: 1.42 ;&st7;  " d=" M  3967.70,   150.51  L  3971.67,   150.51  " /><path style="stroke-width: 1.42 ;&st7;  " d=" M  3971.67,   150.51  L  3971.67,   142.01  " /><path style="stroke-width: 1.42 ;&st7;   " d=" M  3960.34,   137.76  C  3955.64    137.76   3951.84    141.57   3951.84    146.26  " /><path style="stroke-width: 1.42 ;&st7;   " d=" M  3951.84,   146.26  C  3951.84    150.95   3955.64    154.76   3960.34    154.76  " /><path style="stroke-width: 1.42 ;&st7;   " d=" M  3960.34,   154.76  C  3965.03    154.76   3968.84    150.95   3968.84    146.26  " /><path style="stroke-width: 1.42 ;&st7;   " d=" M  3968.84,   146.26  C  3968.84    141.57   3965.03    137.76   3960.34    137.76  " /><text style="font-size:6px;font-family:'NSimSun';" transform="matrix(&st16;  3903.43  185.06 )">VTA2</text><text style="font-size:6px;font-family:'NSimSun';" transform="matrix(&st16;  3869.44  185.06 )">VTA</text><text style="font-size:6px;font-family:'NSimSun';" transform="matrix(&st16;  3835.44  185.06 )">VC</text><text style="font-size:6px;font-family:'NSimSun';" transform="matrix(&st16;  3801.45  185.06 )">E2</text><text style="font-size:6px;font-family:'NSimSun';" transform="matrix(&st16;  3957.61  148.23 )">M</text><path style="stroke-width: 1.42 ;&st7;  " d=" M  3764.87,    35.78  L  3764.87,   188.75  L  4002.83,   188.75  L  4002.83,    35.78  L  3764.87,    35.78  " /><text style="font-size:6px;font-family:'NSimSun';" transform="matrix(&st16;  3792.68  196.95 )">3</text><text style="font-size:6px;font-family:'NSimSun';" transform="matrix(&st16;  3826.68  196.95 )">5</text><text style="font-size:6px;font-family:'NSimSun';" transform="matrix(&st16;  3860.67  196.95 )">6</text><text style="font-size:6px;font-family:'NSimSun';" transform="matrix(&st16;  3894.66  196.95 )">4</text><text style="font-size:6px;font-family:'NSimSun';" transform="matrix(&st16;  3937.16  196.95 )">2</text><text style="font-size:6px;font-family:'NSimSun';" transform="matrix(&st16;  3971.15  196.95 )">1</text><g ewd:figtype="title"><text style="font-size:6px;font-family:'NSimSun';" transform="matrix(&st16;  3761.47  32.08 )" ewd:textID="79">节气门体总成</text><text style="font-size:6px;font-family:'NSimSun';" transform="matrix(&st16;  3761.46  24.98 )">B28</text></g></g><g ewd:figtype="conn" ewd:figID="47" ewd:code="B18"><path style="stroke-width: 1.42 ;&st7;  " d=" M  3824.36,   469.21  L  3824.36,   503.20  L  3943.34,   503.20  L  3943.34,   469.21  L  3824.36,   469.21  " /><g ewd:lineID="109,129"><text style="font-size:6px;font-family:'NSimSun';" transform="matrix(&st16;  3835.17  511.39 )">2</text><text style="font-size:6px;font-family:'NSimSun';" transform="matrix(&st16;  3837.62  499.5 )">+B</text></g><g ewd:lineID="130"><text style="font-size:6px;font-family:'NSimSun';" transform="matrix(&st16;  3835.17  465.52 )">1</text><text style="font-size:6px;font-family:'NSimSun';" transform="matrix(&st16;  3833.2  476.84 )">HA1A</text></g><g ewd:lineID="132"><text style="font-size:6px;font-family:'NSimSun';" transform="matrix(&st16;  3877.67  465.52 )">4</text><text style="font-size:6px;font-family:'NSimSun';" transform="matrix(&st16;  3876.39  476.84 )">A1A-</text></g><g ewd:lineID="134"><text style="font-size:6px;font-family:'NSimSun';" transform="matrix(&st16;  3920.16  465.52 )">3</text><text style="font-size:6px;font-family:'NSimSun';" transform="matrix(&st16;  3918.88  476.84 )">A1A+</text></g><g ewd:figtype="title"><text style="font-size:6px;font-family:'NSimSun';" transform="matrix(&st16;  3854.94  510.81 )">B18</text><text style="font-size:6px;font-family:'NSimSun';" transform="matrix(&st16;  3854.95  517.92 )" ewd:textID="14">空燃比传感器<tspan x="0 " dy="6.0">(B1 S1)</tspan></text></g></g><g ewd:figtype="conn" ewd:figID="48" ewd:code="B37"><path style="stroke-width: 1.42 ;&st7;  " d=" M  3781.87,   494.70  L  3781.87,   460.71  L  3764.87,   460.71  L  3764.87,   494.70  L  3781.87,   494.70  " /><path style="stroke-width: 0.85 ;&st7;  " d=" M  3773.37,   460.71  L  3773.37,   469.21  " /><path style="stroke-width: 0.85 ;&st7;   " d=" M  3773.37,   486.20  C  3775.33    486.20   3776.91    484.62   3776.91    482.66  " /><path style="stroke-width: 0.85 ;&st7;   " d=" M  3776.91,   482.66  C  3776.91    480.71   3775.33    479.12   3773.37    479.12  " /><path style="stroke-width: 0.85 ;&st7;   " d=" M  3773.37,   479.12  C  3772.38    479.12   3771.53    479.48   3770.84    480.18  " /><path style="stroke-width: 0.85 ;&st7;   " d=" M  3770.84,   480.18  C  3772.21    481.58   3774.45    481.60   3775.85    480.24  " /><path style="stroke-width: 0.85 ;&st7;   " d=" M  3775.85,   480.24  C  3777.25    478.87   3777.27    476.62   3775.90    475.23  " /><path style="stroke-width: 0.85 ;&st7;   " d=" M  3775.90,   475.23  C  3774.53    473.83   3772.29    473.81   3770.89    475.18  " /><path style="stroke-width: 0.85 ;&st7;   " d=" M  3770.89,   475.18  C  3770.87    475.19   3770.86    475.21   3770.84    475.23  " /><path style="stroke-width: 0.85 ;&st7;   " d=" M  3770.84,   475.23  C  3772.21    476.62   3774.45    476.65   3775.85    475.28  " /><path style="stroke-width: 0.85 ;&st7;   " d=" M  3775.85,   475.28  C  3777.25    473.91   3777.27    471.67   3775.90    470.27  " /><path style="stroke-width: 0.85 ;&st7;   " d=" M  3775.90,   470.27  C  3775.21    469.56   3774.36    469.21   3773.37    469.21  " /><path style="stroke-width: 0.85 ;&st7;  " d=" M  3773.37,   486.20  L  3773.37,   494.70  " /><text style="font-size:6px;font-family:'NSimSun';" transform="matrix(&st16;  3767.19  502.9 )">2</text><text style="font-size:6px;font-family:'NSimSun';" transform="matrix(&st16;  3767.19  457.02 )">1</text><g ewd:figtype="title"><text style="font-size:6px;font-family:'NSimSun';" transform="matrix(&st17;  3789.76  497.6 )">B37</text><text style="font-size:6px;font-family:'NSimSun';" transform="matrix(&st17;  3796.59  497.61 )">VSV (ACIS)</text></g></g><g ewd:figtype="conn" ewd:figID="49" ewd:code="B22"><path style="stroke-width: 0.85 ;&st7;   " d=" M  3694.35,   475.23  C  3695.72    476.62   3697.96    476.65   3699.36    475.28  " /><path style="stroke-width: 0.85 ;&st7;   " d=" M  3699.36,   475.28  C  3700.76    473.91   3700.78    471.67   3699.41    470.27  " /><path style="stroke-width: 0.85 ;&st7;   " d=" M  3699.41,   470.27  C  3698.72    469.56   3697.87    469.21   3696.88    469.21  " /><path style="stroke-width: 0.85 ;&st7;   " d=" M  3694.35,   480.18  C  3695.72    481.58   3697.96    481.60   3699.36    480.24  " /><path style="stroke-width: 0.85 ;&st7;   " d=" M  3699.36,   480.24  C  3700.76    478.87   3700.78    476.62   3699.41    475.23  " /><path style="stroke-width: 0.85 ;&st7;   " d=" M  3699.41,   475.23  C  3698.04    473.83   3695.80    473.81   3694.40    475.18  " /><path style="stroke-width: 0.85 ;&st7;   " d=" M  3694.40,   475.18  C  3694.39    475.19   3694.37    475.21   3694.35    475.23  " /><path style="stroke-width: 0.85 ;&st7;   " d=" M  3696.88,   486.20  C  3698.84    486.20   3700.42    484.62   3700.42    482.66  " /><path style="stroke-width: 0.85 ;&st7;   " d=" M  3700.42,   482.66  C  3700.42    480.71   3698.84    479.12   3696.88    479.12  " /><path style="stroke-width: 0.85 ;&st7;   " d=" M  3696.88,   479.12  C  3695.89    479.12   3695.05    479.48   3694.35    480.18  " /><path style="stroke-width: 1.42 ;&st7;  " d=" M  3705.38,   494.70  L  3705.38,   460.71  L  3688.38,   460.71  L  3688.38,   494.70  L  3705.38,   494.70  " /><path style="stroke-width: 0.85 ;&st7;  " d=" M  3696.88,   486.20  L  3696.88,   494.70  " /><path style="stroke-width: 0.85 ;&st7;  " d=" M  3696.88,   460.71  L  3696.88,   469.21  " /><text style="font-size:6px;font-family:'NSimSun';" transform="matrix(&st16;  3690.7  502.9 )">2</text><text style="font-size:6px;font-family:'NSimSun';" transform="matrix(&st16;  3690.7  457.02 )">1</text><g ewd:figtype="title"><text style="font-size:6px;font-family:'NSimSun';" transform="matrix(&st17;  3713.27  497.6 )">B22</text><text style="font-size:6px;font-family:'NSimSun';" transform="matrix(&st17;  3720.1  497.61 )" ewd:textID="72">净化 VSV</text></g></g><g ewd:figtype="w2w" ewd:figID="121" ewd:code="BD1"><path style="stroke-width: 1.42 ;&st7;  " d=" M  4015.58,   474.87  L  4011.33,   470.62  L  4007.08,   474.87  " /><path style="stroke-width: 1.42 ;&st7;  " d=" M  4015.58,   478.27  L  4011.33,   474.02  L  4007.08,   478.27  " /><text style="font-size:6px;font-family:'NSimSun';" transform="matrix(&st16;  3998.7  466.93 )">2</text></g><g ewd:code=" " ewd:figID="193" ewd:comment=" " ewd:figtype="sh"><path style="stroke-width: 0.85 ;&st7; stroke-dasharray:3, 1.5;" d=" M  3960.34,   435.21  L  3960.34,   409.72  L  3866.85,   409.72  L  3866.85,   443.71  L  3951.84,   443.71  " /><g ewd:code="" ewd:figID="194" ewd:comment=" " ewd:figtype="commref"><text style="font-size:6px;font-family:'NSimSun';" transform="matrix(&st17;  3863.16  438.95 )" ewd:textID="1">（屏蔽）</text></g></g><g ewd:code=" " ewd:figID="191" ewd:comment=" " ewd:figtype="sh"><path style="stroke-width: 0.85 ;&st7; stroke-dasharray:3, 1.5;" d=" M  4011.33,   248.24  L  4011.33,   222.75  L  3926.34,   222.75  L  3926.34,   256.74  L  4002.83,   256.74  " /><g ewd:code="" ewd:figID="220" ewd:comment=" " ewd:figtype="commref"><text style="font-size:6px;font-family:'NSimSun';" transform="matrix(&st17;  3922.65  251.98 )" ewd:textID="1">（屏蔽）</text></g></g><g ewd:code=" " ewd:figID="192" ewd:comment=" " ewd:figtype="sh"><path style="stroke-width: 0.85 ;&st7; stroke-dasharray:3, 1.5;" d=" M  4087.82,   443.71  L  3994.33,   443.71  L  3994.33,   409.72  L  4096.31,   409.72  L  4096.31,   435.21  " /><g ewd:code="" ewd:figID="196" ewd:comment=" " ewd:figtype="commref"><text style="font-size:6px;font-family:'NSimSun';" transform="matrix(&st17;  3990.64  438.95 )" ewd:textID="1">（屏蔽）</text></g></g></svg>