<?xml version="1.0" encoding="utf-8"?>
<!DOCTYPE svg PUBLIC "-//W3C//DTD SVG 1.0//EN" "http://www.w3.org/TR/2001/REC-SVG-20010904/DTD/svg10.dtd"[
	<!ENTITY ns_flows "http://ns.adobe.com/Flows/1.0/">
	<!ENTITY ns_svg "http://www.w3.org/2000/svg">
	<!ENTITY ns_xlink "http://www.w3.org/1999/xlink">
	<!ENTITY st0 "font-size:7px;font-family:'NSimSun';adobe-font-script:japanese;">
	<!ENTITY st1 "font-size:6px;font-family:'NSimSun';">
	<!-- White fill  -->
	<!ENTITY st2 "fill:#FFFFFF;stroke:#000000; stroke-width:1.41;stroke-linecap:round;stroke-linejoin:round;">
	<!-- Yellow fill  -->
	<!ENTITY st3 "fill:#FFFFCC;stroke:#FFFFCC; stroke-width:0.1;stroke-linecap:round;stroke-linejoin:round;">
	<!-- Gray fill  -->
	<!ENTITY st4 "fill:#CCCCCC;stroke:#CCCCCC; stroke-width:0.1;stroke-linecap:round;stroke-linejoin:round;">
	<!-- Light-blue fill -->
	<!ENTITY st5 "fill:#CCECF4;stroke:#000000; stroke-width:1.133;stroke-linecap:round;stroke-linejoin:round;">
	<!ENTITY st6 "fill:none;stroke-linecap:butt; stroke-linejoin:round;">
	<!ENTITY st7 "fill:none;stroke:#000000;stroke-linecap:round;stroke-linejoin:round;">
	<!ENTITY st8 "enable-background:new    ;">
	<!-- Black fill -->
	<!ENTITY st9 "fill:#000000;stroke:#000000; stroke-linecap:round;stroke-linejoin:round;">
	<!-- SRS note   -->
	<!ENTITY st10 "font-size:9px;font-family:'NSimSun';">
	<!ENTITY st11 "font-size:9px;font-family:'NSimSun';">
	<!ENTITY st12 "font-size:6px;font-family:'NSimSun';">
	<!ENTITY st13 "fill:none;stroke:#ff0000;stroke-linecap:round;stroke-linejoin:round;">
	<!-- Yellow fill  -->
	<!ENTITY st14 "fill:#FFFF00;stroke:#FFFF00; stroke-width:0.1;stroke-linecap:round;stroke-linejoin:round;">
	<!ENTITY st15 "font-size:6px;font-family:'NSimSun';adobe-font-script:japanese;">
	<!ENTITY st16 "1.00 0.00 0.00 1.00">
	<!ENTITY st17 "0.00 -1.00 1.00 0.00">
	<!ENTITY st18 "font-size:6px;font-family:'NSimSun';">
	<!ENTITY st19 "font-size:9px;font-family:'NSimSun';">
	<!ENTITY st20 "font-size:6px;font-family:'NSimSun';adobe-font-script:japanese;">
	<!ENTITY st21 "font-size:7px;font-family:'NSimSun';adobe-font-script:japanese;">
	<!ATTLIST svg
		xmlns:ewd CDATA #FIXED "http://shcl.co.jp/ewd"
		xmlns:a CDATA #FIXED "http://ns.adobe.com/AdobeSVGViewerExtensions/3.0/"
		ewd:ver CDATA #IMPLIED
	>
	<!ATTLIST a
		ewd:lineID CDATA #IMPLIED
		ewd:groupID CDATA #IMPLIED
		ewd:figtype CDATA #IMPLIED
		ewd:code CDATA #IMPLIED
		ewd:figID CDATA #IMPLIED
		ewd:pinNo CDATA #IMPLIED
		ewd:comment CDATA #IMPLIED >
	<!ATTLIST g
		ewd:lineID CDATA #IMPLIED
		ewd:groupID CDATA #IMPLIED
		ewd:figtype CDATA #IMPLIED
		ewd:code CDATA #IMPLIED
		ewd:figID CDATA #IMPLIED
		ewd:pinNo CDATA #IMPLIED
		ewd:comment CDATA #IMPLIED >
	<!ATTLIST text
		ewd:textID CDATA #IMPLIED
		ewd:horAlign CDATA #IMPLIED >
	<!ATTLIST title
		ewd:textID CDATA #IMPLIED >
]>
<!-- Generator: Shintec Hozumi YS   -->
<svg onload="call_execInitLoadProc_svg('system')" style="overflow:visible;  enable-background:new 0 0 9651.725 710.000" viewBox="0 0 9611.904 710.000" height="710.000" width="9611.904" xml:space="preserve" ewd:ver="2.1.2.6F" xmlns="&ns_svg;" xmlns:ewd="http://shcl.co.jp/ewd" xmlns:a="http://ns.adobe.com/AdobeSVGViewerExtensions/3.0/" xmlns:xlink="&ns_xlink;">
<path style="stroke-width: 1.42 ;&st7;  " d=" M   696.88,   239.75  L   688.38,   239.75  " /><path style="stroke-width: 1.42 ;&st7;  " d=" M   815.86,   324.73  L   824.36,   324.73  " /><path style="stroke-width: 1.42 ;&st7;  " d=" M   832.86,   236.22  L   827.89,   231.25  " /><path style="stroke-width: 1.42 ;&st7;  " d=" M   815.86,   243.27  L   820.83,   248.24  " /><path style="stroke-width: 1.42 ;&st7;  " d=" M   827.89,   248.24  L   832.86,   243.27  " /><text style="font-size:6px;font-family:'NSimSun';" transform="matrix(&st16;  541.72  176.56 )">B</text><path style="stroke-width: 1.42 ;&st7;  " d=" M   820.83,   231.25  L   815.86,   236.22  " /><text style="font-size:6px;font-family:'NSimSun';" transform="matrix(&st17;  939.65  276.2 )">W</text><text style="font-size:6px;font-family:'NSimSun';" transform="matrix(&st17;  916.98  278.45 )">(*9)</text><text style="font-size:6px;font-family:'NSimSun';" transform="matrix(&st17;  905.65  277.56 )">GR</text><text style="font-size:6px;font-family:'NSimSun';" transform="matrix(&st17;  882.99  380.44 )">(*9)</text><text style="font-size:6px;font-family:'NSimSun';" transform="matrix(&st17;  871.66  381.68 )">W-B</text><text style="font-size:6px;font-family:'NSimSun';" transform="matrix(&st17;  950.98  380.44 )">(*9)</text><text style="font-size:6px;font-family:'NSimSun';" transform="matrix(&st17;  939.65  377.33 )">R</text><text style="font-size:6px;font-family:'NSimSun';" transform="matrix(&st17;  882.99  456.92 )">(*9)</text><text style="font-size:6px;font-family:'NSimSun';" transform="matrix(&st17;  871.66  458.16 )">W-B</text><text style="font-size:6px;font-family:'NSimSun';" transform="matrix(&st17;  684.69  411.52 )">V</text><text style="font-size:6px;font-family:'NSimSun';" transform="matrix(&st17;  591.21  415.67 )">W-B</text><text style="font-size:6px;font-family:'NSimSun';" transform="matrix(&st17;  684.69  294.52 )">LG</text><text style="font-size:6px;font-family:'NSimSun';" transform="matrix(&st17;  633.7  292.31 )">L</text><text style="font-size:6px;font-family:'NSimSun';" transform="matrix(&st17;  591.2  294.52 )">LG</text><text style="font-size:6px;font-family:'NSimSun';" transform="matrix(&st17;  684.69  209.53 )">LG</text><path style="stroke-width: 1.42 ;&st7;  " d=" M   883.85,   409.72  L   875.35,   409.72  " /><text style="font-size:6px;font-family:'NSimSun';" transform="matrix(&st17;  747.01  380.44 )">(*5)</text><text style="font-size:6px;font-family:'NSimSun';" transform="matrix(&st17;  735.68  377.41 )">B</text><text style="font-size:6px;font-family:'NSimSun';" transform="matrix(&st17;  786.67  207.44 )">B</text><text style="font-size:6px;font-family:'NSimSun';" transform="matrix(&st17;  798.0  214.5 )">(*3 *4)</text><text style="font-size:6px;font-family:'NSimSun';" transform="matrix(&st17;  820.67  292.43 )">B</text><text style="font-size:6px;font-family:'NSimSun';" transform="matrix(&st17;  820.67  207.44 )">B</text><text style="font-size:6px;font-family:'NSimSun';" transform="matrix(&st17;  761.18  377.41 )">B</text><text style="font-size:6px;font-family:'NSimSun';" transform="matrix(&st17;  820.67  377.41 )">B</text><path style="stroke-width: 1.42 ;&st7;  " d=" M   756.37,   324.73  L   764.87,   324.73  " /><text style="font-size:6px;font-family:'NSimSun';" transform="matrix(&st17;  761.18  207.44 )">B</text><text style="font-size:6px;font-family:'NSimSun';" transform="matrix(&st17;  772.51  380.44 )">(*4)</text><text style="font-size:6px;font-family:'NSimSun';" transform="matrix(&st16;  534.63  592.99 )">GR(*7)</text><text style="font-size:6px;font-family:'NSimSun';" transform="matrix(&st16;  531.95  575.99 )">W(*3 *8)</text><text style="font-size:6px;font-family:'NSimSun';" transform="matrix(&st16;  536.87  609.99 )">L(*7)</text><text style="font-size:6px;font-family:'NSimSun';" transform="matrix(&st16;  531.95  626.98 )">W(*2 *8)</text><text style="font-size:6px;font-family:'NSimSun';" transform="matrix(&st16;  999.37  575.99 )">W(*3 *8)</text><text style="font-size:6px;font-family:'NSimSun';" transform="matrix(&st16;  999.37  626.98 )">W(*2 *8)</text><text style="font-size:6px;font-family:'NSimSun';" transform="matrix(&st17;  916.98  380.44 )">(*9)</text><text style="font-size:6px;font-family:'NSimSun';" transform="matrix(&st16;  541.84  491.01 )">L</text><text style="font-size:6px;font-family:'NSimSun';" transform="matrix(&st16;  541.91  542.0 )">P</text><text style="font-size:6px;font-family:'NSimSun';" transform="matrix(&st16;  864.67  236.05 )">B</text><text style="font-size:6px;font-family:'NSimSun';" transform="matrix(&st17;  905.65  377.3 )">L</text><text style="font-size:6px;font-family:'NSimSun';" transform="matrix(&st17;  950.98  278.45 )">(*9)</text><g ewd:figtype="rb" ewd:figID="21" ewd:code="FUSE8"><path style="stroke-width: 0.85 ;&st7;  " d=" M   763.68,    77.27  L   763.41,    77.74  L   763.31,    78.27  L   763.41,    78.81  L   763.68,    79.28  L   764.09,    79.62  L   764.60,    79.81  L   765.14,    79.81  L   765.65,    79.62  L   766.06,    79.28  L   766.34,    78.81  L   766.43,    78.27  L   766.34,    77.74  L   766.06,    77.27  L   765.65,    76.92  L   765.14,    76.74  L   764.60,    76.74  L   764.09,    76.92  L   763.68,    77.27  L   764.07,    77.98  L   764.07,    78.56  L   764.45,    79.01  L   765.02,    79.11  L   765.52,    78.82  L   765.72,    78.27  L   765.52,    77.73  L   765.02,    77.44  L   764.45,    77.54  L   764.87,    78.27  " /><path style="stroke-width: 0.85 ;&st7;  " d=" M   764.87,    95.27  L   764.87,    78.27  " /><path style="stroke-width: 0.85 ;&st7;  " d=" M   824.36,   137.76  L   824.36,   154.76  " /><path style="stroke-width: 0.85 ;&st7;  " d=" M   824.36,    95.27  L   824.36,    78.27  L   688.38,    78.27  L   688.38,   154.76  " /><path style="stroke-width: 1.42 ;&st7;  " d=" M   690.51,   163.26  L   686.26,   163.26  " /><path style="stroke-width: 1.42 ;&st7;  " d=" M   690.51,   154.76  L   686.26,   154.76  " /><path style="stroke-width: 1.42 ;&st7;  " d=" M   826.49,   163.26  L   822.24,   163.26  " /><path style="stroke-width: 0.28 ;&st9;  " d=" M   688.38,   149.86  L   685.55,   147.03  L   685.55,   151.28  L   688.38,   154.11  L   691.22,   151.28  L   691.22,   147.03  L   688.38,   149.86  " /><path style="stroke-width: 0.28 ;&st9;  " d=" M   824.36,   149.86  L   821.53,   147.03  L   821.53,   151.28  L   824.36,   154.11  L   827.19,   151.28  L   827.19,   147.03  L   824.36,   149.86  " /><text style="font-size:6px;font-family:'NSimSun';" transform="matrix(&st16;  758.69  91.58 )">1</text><text style="font-size:6px;font-family:'NSimSun';" transform="matrix(&st16;  818.18  91.58 )">1</text><text style="font-size:6px;font-family:'NSimSun';" transform="matrix(&st16;  686.58  160.98 )">1</text><text style="font-size:6px;font-family:'NSimSun';" transform="matrix(&st16;  822.56  160.98 )">1</text><text style="font-size:6px;font-family:'NSimSun';" transform="matrix(&st16;  840.79  112.83 )">10A <tspan x="0 " dy="6.0">EFI </tspan><tspan x="0 " dy="6.0">NO.1</tspan></text><text style="font-size:6px;font-family:'NSimSun';" transform="matrix(&st16;  818.18  145.96 )">2</text><text style="font-size:6px;font-family:'NSimSun';" transform="matrix(&st16;  781.3  112.83 )">10A <tspan x="0 " dy="6.0">EFI </tspan><tspan x="0 " dy="6.0">NO.2</tspan></text><text style="font-size:6px;font-family:'NSimSun';" transform="matrix(&st16;  758.69  145.96 )">2</text><text style="font-size:6px;font-family:'NSimSun';" transform="matrix(&st16;  763.07  160.98 )">1</text><path style="stroke-width: 1.42 ;&st7;  " d=" M   826.49,   154.76  L   822.24,   154.76  " /><path style="stroke-width: 1.42 ;&st7;   " d=" M   694.76,   159.01  C   694.76    156.66    692.86    154.76    690.51    154.76  " /><path style="stroke-width: 1.42 ;&st7;   " d=" M   690.51,   163.26  C   692.86    163.26    694.76    161.36    694.76    159.01  " /><path style="stroke-width: 1.42 ;&st7;   " d=" M   682.01,   159.01  C   682.01    161.36    683.91    163.26    686.26    163.26  " /><path style="stroke-width: 1.42 ;&st7;   " d=" M   686.26,   154.76  C   683.91    154.76    682.01    156.66    682.01    159.01  " /><path style="stroke-width: 1.42 ;&st7;   " d=" M   830.74,   159.01  C   830.74    156.66    828.83    154.76    826.49    154.76  " /><path style="stroke-width: 1.42 ;&st7;   " d=" M   826.49,   163.26  C   828.83    163.26    830.74    161.36    830.74    159.01  " /><path style="stroke-width: 1.42 ;&st7;   " d=" M   817.99,   159.01  C   817.99    161.36    819.89    163.26    822.24    163.26  " /><path style="stroke-width: 1.42 ;&st7;   " d=" M   822.24,   154.76  C   819.89    154.76    817.99    156.66    817.99    159.01  " /><path style="stroke-width: 1.42 ;&st7;   " d=" M   771.25,   159.01  C   771.25    156.66    769.34    154.76    767.00    154.76  " /><path style="stroke-width: 1.42 ;&st7;   " d=" M   767.00,   163.26  C   769.34    163.26    771.25    161.36    771.25    159.01  " /><path style="stroke-width: 1.42 ;&st7;   " d=" M   758.50,   159.01  C   758.50    161.36    760.40    163.26    762.75    163.26  " /><path style="stroke-width: 1.42 ;&st7;   " d=" M   762.75,   154.76  C   760.40    154.76    758.50    156.66    758.50    159.01  " /><path style="stroke-width: 1.42 ;&st7;  " d=" M   767.00,   154.76  L   762.75,   154.76  " /><path style="stroke-width: 0.85 ;&st7;  " d=" M   764.87,   154.76  L   764.87,   137.76  " /><path style="stroke-width: 1.42 ;&st7;  " d=" M   767.00,   163.26  L   762.75,   163.26  " /><path style="stroke-width: 0.28 ;&st9;  " d=" M   764.87,   149.86  L   762.04,   147.03  L   762.04,   151.28  L   764.87,   154.11  L   767.70,   151.28  L   767.70,   147.03  L   764.87,   149.86  " /><path style="stroke-width: 1.42 ;&st7;   " d=" M   764.87,   126.43  C   767.61    124.82    768.52    121.29    766.91    118.55  " /><path style="stroke-width: 1.42 ;&st7;   " d=" M   766.91,   118.55  C   766.39    117.67    765.75    117.04    764.87    116.52  " /><path style="stroke-width: 0.85 ;&st7;   " d=" M   766.29,   127.85  C   766.29    127.07    765.65    126.43    764.87    126.43  " /><path style="stroke-width: 0.85 ;&st7;   " d=" M   764.87,   126.43  C   764.09    126.43    763.46    127.07    763.46    127.85  " /><path style="stroke-width: 0.85 ;&st7;   " d=" M   763.46,   127.85  C   763.46    128.63    764.09    129.26    764.87    129.26  " /><path style="stroke-width: 0.85 ;&st7;   " d=" M   764.87,   129.26  C   765.65    129.26    766.29    128.63    766.29    127.85  " /><path style="stroke-width: 1.42 ;&st7;   " d=" M   764.87,   106.60  C   762.13    108.21    761.22    111.74    762.84    114.48  " /><path style="stroke-width: 1.42 ;&st7;   " d=" M   762.84,   114.48  C   763.35    115.36    763.99    116.00    764.87    116.52  " /><path style="stroke-width: 0.85 ;&st7;   " d=" M   766.29,   105.18  C   766.29    104.40    765.65    103.77    764.87    103.77  " /><path style="stroke-width: 0.85 ;&st7;   " d=" M   764.87,   103.77  C   764.09    103.77    763.46    104.40    763.46    105.18  " /><path style="stroke-width: 0.85 ;&st7;   " d=" M   763.46,   105.18  C   763.46    105.97    764.09    106.60    764.87    106.60  " /><path style="stroke-width: 0.85 ;&st7;   " d=" M   764.87,   106.60  C   765.65    106.60    766.29    105.97    766.29    105.18  " /><path style="stroke-width: 0.85 ;&st7;  " d=" M   764.87,    95.27  L   764.87,   103.77  " /><path style="stroke-width: 1.42 ;&st7;  " d=" M   752.12,    95.27  L   752.12,   137.76  L   777.62,   137.76  L   777.62,    95.27  L   752.12,    95.27  " /><path style="stroke-width: 0.85 ;&st7;  " d=" M   764.87,   129.26  L   764.87,   137.76  " /></g><g ewd:figtype="rb" ewd:figID="24" ewd:code="FUSE7"><path style="stroke-width: 0.85 ;&st7;  " d=" M   824.36,   129.26  L   824.36,   137.76  " /><path style="stroke-width: 0.85 ;&st7;  " d=" M   824.36,    95.27  L   824.36,   103.77  " /><path style="stroke-width: 0.85 ;&st7;   " d=" M   825.78,   127.85  C   825.78    127.07    825.14    126.43    824.36    126.43  " /><path style="stroke-width: 0.85 ;&st7;   " d=" M   824.36,   126.43  C   823.58    126.43    822.95    127.07    822.95    127.85  " /><path style="stroke-width: 0.85 ;&st7;   " d=" M   822.95,   127.85  C   822.95    128.63    823.58    129.26    824.36    129.26  " /><path style="stroke-width: 0.85 ;&st7;   " d=" M   824.36,   129.26  C   825.14    129.26    825.78    128.63    825.78    127.85  " /><path style="stroke-width: 0.85 ;&st7;   " d=" M   825.78,   105.18  C   825.78    104.40    825.14    103.77    824.36    103.77  " /><path style="stroke-width: 0.85 ;&st7;   " d=" M   824.36,   103.77  C   823.58    103.77    822.95    104.40    822.95    105.18  " /><path style="stroke-width: 0.85 ;&st7;   " d=" M   822.95,   105.18  C   822.95    105.97    823.58    106.60    824.36    106.60  " /><path style="stroke-width: 0.85 ;&st7;   " d=" M   824.36,   106.60  C   825.14    106.60    825.78    105.97    825.78    105.18  " /><path style="stroke-width: 1.42 ;&st7;   " d=" M   824.36,   126.43  C   827.10    124.82    828.01    121.29    826.40    118.55  " /><path style="stroke-width: 1.42 ;&st7;   " d=" M   826.40,   118.55  C   825.88    117.67    825.24    117.04    824.36    116.52  " /><path style="stroke-width: 1.42 ;&st7;   " d=" M   824.36,   106.60  C   821.62    108.21    820.71    111.74    822.33    114.48  " /><path style="stroke-width: 1.42 ;&st7;   " d=" M   822.33,   114.48  C   822.85    115.36    823.48    116.00    824.36    116.52  " /><path style="stroke-width: 1.42 ;&st7;  " d=" M   811.61,    95.27  L   811.61,   137.76  L   837.11,   137.76  L   837.11,    95.27  L   811.61,    95.27  " /></g><g ewd:figtype="conn" ewd:figID="25" ewd:code="A2"><path style="stroke-width: 1.42 ;&st7;  " d=" M   960.34,   341.73  L   960.34,   307.73  L   858.36,   307.73  L   858.36,   341.73  L   960.34,   341.73  " /><g ewd:lineID="32"><text style="font-size:6px;font-family:'NSimSun';" transform="matrix(&st16;  869.17  349.92 )">3</text><text style="font-size:6px;font-family:'NSimSun';" transform="matrix(&st16;  868.71  338.03 )">GND</text></g><g ewd:lineID="33"><text style="font-size:6px;font-family:'NSimSun';" transform="matrix(&st16;  903.16  349.92 )">2</text><text style="font-size:6px;font-family:'NSimSun';" transform="matrix(&st16;  902.66  338.03 )">OUT</text></g><g ewd:lineID="34"><text style="font-size:6px;font-family:'NSimSun';" transform="matrix(&st16;  903.16  304.04 )">5</text><text style="font-size:6px;font-family:'NSimSun';" transform="matrix(&st16;  907.16  315.37 )">B</text></g><g ewd:lineID="35"><text style="font-size:6px;font-family:'NSimSun';" transform="matrix(&st16;  937.16  304.04 )">1</text><text style="font-size:6px;font-family:'NSimSun';" transform="matrix(&st16;  941.15  315.37 )">B</text></g><g ewd:lineID="39"><text style="font-size:6px;font-family:'NSimSun';" transform="matrix(&st16;  937.16  349.92 )">4</text><text style="font-size:6px;font-family:'NSimSun';" transform="matrix(&st16;  941.27  338.03 )">L</text></g><g ewd:figtype="title"><text style="font-size:6px;font-family:'NSimSun';" transform="matrix(&st17; 847.61 344.63)">A2</text><text style="font-size:6px;font-family:'NSimSun';" transform="matrix(&st17; 854.71 344.63)" ewd:textID="72">刹车灯开关总成<tspan x="0 " dy="6.0" /></text></g></g><g ewd:figtype="conn" ewd:figID="26" ewd:code="L22"><path style="stroke-width: 1.42 ;&st7;  " d=" M   604.82,   235.50  L   608.78,   235.50  " /><path style="stroke-width: 1.42 ;&st7;  " d=" M   608.78,   243.99  L   604.82,   243.99  " /><path style="stroke-width: 1.42 ;&st7;  " d=" M   604.82,   243.99  L   604.82,   235.50  " /><path style="stroke-width: 1.42 ;&st7;  " d=" M   627.48,   235.50  L   623.51,   235.50  " /><path style="stroke-width: 1.42 ;&st7;  " d=" M   623.51,   243.99  L   627.48,   243.99  " /><path style="stroke-width: 1.42 ;&st7;  " d=" M   627.48,   243.99  L   627.48,   235.50  " /><path style="stroke-width: 1.42 ;&st7;   " d=" M   616.15,   231.25  C   611.45    231.25    607.65    235.05    607.65    239.75  " /><path style="stroke-width: 1.42 ;&st7;   " d=" M   607.65,   239.75  C   607.65    244.44    611.45    248.24    616.15    248.24  " /><path style="stroke-width: 1.42 ;&st7;   " d=" M   616.15,   248.24  C   620.84    248.24    624.65    244.44    624.65    239.75  " /><path style="stroke-width: 1.42 ;&st7;   " d=" M   624.65,   239.75  C   624.65    235.05    620.84    231.25    616.15    231.25  " /><text style="font-size:6px;font-family:'NSimSun';" transform="matrix(&st16;  639.98  253.05 )">E</text><text style="font-size:6px;font-family:'NSimSun';" transform="matrix(&st16;  597.48  253.05 )">B</text><text style="font-size:6px;font-family:'NSimSun';" transform="matrix(&st16;  613.42  241.71 )">M</text><text style="font-size:5px;font-family:'NSimSun';" transform="matrix(&st16; 613.72 228.97)" ewd:textID="67" ewd:horAlign="center">泵</text><path style="stroke-width: 0.85 ;&st7;  " d=" M   627.48,   239.75  L   637.39,   239.75  L   637.39,   256.74  " /><path style="stroke-width: 0.85 ;&st7;  " d=" M   594.90,   256.74  L   594.90,   239.75  L   604.82,   239.75  " /><path style="stroke-width: 1.42 ;&st7;  " d=" M   577.90,   256.74  L   654.39,   256.74  L   654.39,   222.75  L   577.90,   222.75  L   577.90,   256.74  " /><text style="font-size:6px;font-family:'NSimSun';" transform="matrix(&st16;  588.72  264.94 )">4</text><text style="font-size:6px;font-family:'NSimSun';" transform="matrix(&st16;  631.21  264.94 )">5</text><g ewd:figtype="title"><text style="font-size:6px;font-family:'NSimSun';" transform="matrix(&st16; 574.50 219.10)" ewd:textID="44">带泵和计量表的燃油吸油管总成<tspan x="0 " dy="6.0" /></text><text style="font-size:6px;font-family:'NSimSun';" transform="matrix(&st16; 574.49 212.28)">L22</text></g></g><g ewd:figtype="conn" ewd:figID="28" ewd:code="L23"><path style="stroke-width: 1.42 ;&st7;  " d=" M   577.90,   367.22  L   705.38,   367.22  L   705.38,   324.73  L   577.90,   324.73  L   577.90,   367.22  " /><g ewd:lineID="17"><text style="font-size:6px;font-family:'NSimSun';" transform="matrix(&st16;  588.72  375.42 )">4</text><text style="font-size:6px;font-family:'NSimSun';" transform="matrix(&st16;  592.79  363.53 )">E</text></g><g ewd:lineID="18"><text style="font-size:6px;font-family:'NSimSun';" transform="matrix(&st16;  588.72  321.04 )">6</text><text style="font-size:6px;font-family:'NSimSun';" transform="matrix(&st16;  591.05  332.37 )">FP</text></g><g ewd:lineID="19"><text style="font-size:6px;font-family:'NSimSun';" transform="matrix(&st16;  631.21  321.04 )">5</text><text style="font-size:6px;font-family:'NSimSun';" transform="matrix(&st16;  631.99  332.37 )">FP-</text></g><g ewd:lineID="20"><text style="font-size:6px;font-family:'NSimSun';" transform="matrix(&st16;  682.2  375.42 )">2</text><text style="font-size:6px;font-family:'NSimSun';" transform="matrix(&st16;  682.36  363.53 )">FPC</text></g><g ewd:lineID="21"><text style="font-size:6px;font-family:'NSimSun';" transform="matrix(&st16;  682.2  321.04 )">1</text><text style="font-size:6px;font-family:'NSimSun';" transform="matrix(&st16;  684.65  332.37 )">+B</text></g><g ewd:figtype="title"><text style="font-size:6px;font-family:'NSimSun';" transform="matrix(&st17;  720.1  370.13 )" ewd:textID="43">燃油泵控制 ECU 总成</text><text style="font-size:6px;font-family:'NSimSun';" transform="matrix(&st17;  713.28  370.12 )">L23</text></g></g><g ewd:figtype="jb" ewd:figID="101" ewd:code="3"><path style="stroke-width: 1.42 ;&st7;   " d=" M   941.22,   103.77  C   938.87    103.77    936.97    105.67    936.97    108.02  " /><path style="stroke-width: 1.42 ;&st7;   " d=" M   936.97,   108.02  C   936.97    110.36    938.87    112.27    941.22    112.27  " /><path style="stroke-width: 1.42 ;&st7;   " d=" M   945.47,   112.27  C   947.81    112.27    949.72    110.36    949.72    108.02  " /><path style="stroke-width: 1.42 ;&st7;   " d=" M   949.72,   108.02  C   949.72    105.67    947.81    103.77    945.47    103.77  " /><path style="stroke-width: 1.42 ;&st7;   " d=" M   943.34,    47.11  C   940.60     48.72    939.69     52.25    941.31     54.99  " /><path style="stroke-width: 1.42 ;&st7;   " d=" M   941.31,    54.99  C   941.83     55.87    942.46     56.51    943.34     57.03  " /><path style="stroke-width: 1.42 ;&st7;   " d=" M   943.34,    66.94  C   946.08     65.33    946.99     61.80    945.38     59.06  " /><path style="stroke-width: 1.42 ;&st7;   " d=" M   945.38,    59.06  C   944.86     58.18    944.22     57.55    943.34     57.03  " /><path style="stroke-width: 0.85 ;&st7;   " d=" M   944.76,    45.69  C   944.76     44.91    944.12     44.28    943.34     44.28  " /><path style="stroke-width: 0.85 ;&st7;   " d=" M   943.34,    44.28  C   942.56     44.28    941.93     44.91    941.93     45.69  " /><path style="stroke-width: 0.85 ;&st7;   " d=" M   941.93,    45.69  C   941.93     46.48    942.56     47.11    943.34     47.11  " /><path style="stroke-width: 0.85 ;&st7;   " d=" M   943.34,    47.11  C   944.12     47.11    944.76     46.48    944.76     45.69  " /><path style="stroke-width: 0.85 ;&st7;   " d=" M   944.76,    68.36  C   944.76     67.57    944.12     66.94    943.34     66.94  " /><path style="stroke-width: 0.85 ;&st7;   " d=" M   943.34,    66.94  C   942.56     66.94    941.93     67.57    941.93     68.36  " /><path style="stroke-width: 0.85 ;&st7;   " d=" M   941.93,    68.36  C   941.93     69.14    942.56     69.77    943.34     69.77  " /><path style="stroke-width: 0.85 ;&st7;   " d=" M   943.34,    69.77  C   944.12     69.77    944.76     69.14    944.76     68.36  " /><text style="font-size:6px;font-family:'NSimSun';" transform="matrix(&st16;  959.77  56.17 )">7.5A <tspan x="0 " dy="6.0">STOP</tspan></text><text style="font-size:6px;font-family:'NSimSun';" transform="matrix(&st16;  937.16  86.47 )">2</text><text style="font-size:6px;font-family:'NSimSun';" transform="matrix(&st16;  932.84  109.99 )">9</text><path style="stroke-width: 1.42 ;&st7;  " d=" M   945.47,   103.77  L   941.22,   103.77  " /><path style="stroke-width: 1.42 ;&st7;  " d=" M   945.47,   112.27  L   941.22,   112.27  " /><path style="stroke-width: 0.85 ;&st7;  " d=" M   943.34,    69.77  L   943.34,    78.27  " /><path style="stroke-width: 0.85 ;&st7;  " d=" M   943.34,    78.27  L   943.34,   103.77  " /><text style="font-size:6px;font-family:'NSimSun';" transform="matrix(&st16;  939.49  109.99 )">3A</text><path style="stroke-width: 1.42 ;&st7;  " d=" M   930.59,    35.78  L   930.59,    78.27  L   956.09,    78.27  L   956.09,    35.78  L   930.59,    35.78  " /><text style="font-size:6px;font-family:'NSimSun';" transform="matrix(&st16;  935.3  32.08 )">(BAT)</text><path style="stroke-width: 0.28 ;&st9;  " d=" M   943.34,    98.87  L   940.51,    96.04  L   940.51,   100.29  L   943.34,   103.12  L   946.17,   100.29  L   946.17,    96.04  L   943.34,    98.87  " /></g><g ewd:figtype="w2w" ewd:figID="106" ewd:code="AL1"><text style="font-size:6px;font-family:'NSimSun';" transform="matrix(&st16;  672.65  237.47 )">18</text><path style="stroke-width: 1.42 ;&st7;  " d=" M   692.63,   245.41  L   688.38,   241.16  L   684.14,   245.41  " /><path style="stroke-width: 1.42 ;&st7;  " d=" M   692.63,   248.81  L   688.38,   244.56  L   684.14,   248.81  " /></g><g ewd:figtype="w2w" ewd:figID="107" ewd:code="BA2"><path style="stroke-width: 1.42 ;&st7;  " d=" M   769.12,   319.07  L   764.87,   323.31  L   760.62,   319.07  " /><path style="stroke-width: 1.42 ;&st7;  " d=" M   760.62,   315.67  L   764.87,   319.92  L   769.12,   315.67  " /><text style="font-size:6px;font-family:'NSimSun';" transform="matrix(&st16;  749.14  330.95 )">18</text></g><g ewd:figtype="w2w" ewd:figID="108" ewd:code="BA2"><path style="stroke-width: 1.42 ;&st7;  " d=" M   820.11,   315.67  L   824.36,   319.92  L   828.61,   315.67  " /><path style="stroke-width: 1.42 ;&st7;  " d=" M   828.61,   319.07  L   824.36,   323.31  L   820.11,   319.07  " /><text style="font-size:6px;font-family:'NSimSun';" transform="matrix(&st16;  811.73  330.95 )">6</text></g><g ewd:figtype="w2w" ewd:figID="109" ewd:code="AE4"><text style="font-size:6px;font-family:'NSimSun';" transform="matrix(&st16;  859.62  407.44 )">15</text><path style="stroke-width: 1.42 ;&st7;  " d=" M   879.60,   415.38  L   875.35,   411.13  L   871.10,   415.38  " /><path style="stroke-width: 1.42 ;&st7;  " d=" M   879.60,   418.78  L   875.35,   414.53  L   871.10,   418.78  " /></g><g ewd:figtype="gp" ewd:figID="139" ewd:code="LF"><path style="stroke-width: 0.85 ;&st7;  " d=" M   593.48,   710.00  L   596.32,   710.00  " /><path style="stroke-width: 0.85 ;&st7;  " d=" M   592.07,   707.17  L   597.73,   707.17  " /><path style="stroke-width: 0.85 ;&st7;  " d=" M   590.65,   704.33  L   599.15,   704.33  " /><path style="stroke-width: 0.85 ;&st7;  " d=" M   586.40,   701.50  L   603.40,   701.50  " /><path style="stroke-width: 0.85 ;&st7;  " d=" M   594.90,   697.25  L   594.90,   701.50  " /></g><g ewd:figtype="gp" ewd:figID="140" ewd:code="EB"><path style="stroke-width: 0.85 ;&st7;  " d=" M   873.94,   710.00  L   876.77,   710.00  " /><path style="stroke-width: 0.85 ;&st7;  " d=" M   872.52,   707.17  L   878.19,   707.17  " /><path style="stroke-width: 0.85 ;&st7;  " d=" M   871.10,   704.33  L   879.60,   704.33  " /><path style="stroke-width: 0.85 ;&st7;  " d=" M   866.85,   701.50  L   883.85,   701.50  " /><path style="stroke-width: 0.85 ;&st7;  " d=" M   875.35,   697.25  L   875.35,   701.50  " /></g></svg>