<?xml version="1.0" encoding="utf-8"?>
<!DOCTYPE svg PUBLIC "-//W3C//DTD SVG 1.0//EN" "http://www.w3.org/TR/2001/REC-SVG-20010904/DTD/svg10.dtd"[
	<!ENTITY ns_flows "http://ns.adobe.com/Flows/1.0/">
	<!ENTITY ns_svg "http://www.w3.org/2000/svg">
	<!ENTITY ns_xlink "http://www.w3.org/1999/xlink">
	<!ENTITY st0 "font-size:7px;font-family:'NSimSun';adobe-font-script:japanese;">
	<!ENTITY st1 "font-size:6px;font-family:'NSimSun';">
	<!-- White fill  -->
	<!ENTITY st2 "fill:#FFFFFF;stroke:#000000; stroke-width:1.41;stroke-linecap:round;stroke-linejoin:round;">
	<!-- Yellow fill  -->
	<!ENTITY st3 "fill:#FFFFCC;stroke:#FFFFCC; stroke-width:0.1;stroke-linecap:round;stroke-linejoin:round;">
	<!-- Gray fill  -->
	<!ENTITY st4 "fill:#CCCCCC;stroke:#CCCCCC; stroke-width:0.1;stroke-linecap:round;stroke-linejoin:round;">
	<!-- Light-blue fill -->
	<!ENTITY st5 "fill:#CCECF4;stroke:#000000; stroke-width:1.133;stroke-linecap:round;stroke-linejoin:round;">
	<!ENTITY st6 "fill:none;stroke-linecap:butt; stroke-linejoin:round;">
	<!ENTITY st7 "fill:none;stroke:#000000;stroke-linecap:round;stroke-linejoin:round;">
	<!ENTITY st8 "enable-background:new    ;">
	<!-- Black fill -->
	<!ENTITY st9 "fill:#000000;stroke:#000000; stroke-linecap:round;stroke-linejoin:round;">
	<!-- SRS note   -->
	<!ENTITY st10 "font-size:9px;font-family:'NSimSun';">
	<!ENTITY st11 "font-size:9px;font-family:'NSimSun';">
	<!ENTITY st12 "font-size:6px;font-family:'NSimSun';">
	<!ENTITY st13 "fill:none;stroke:#ff0000;stroke-linecap:round;stroke-linejoin:round;">
	<!-- Yellow fill  -->
	<!ENTITY st14 "fill:#FFFF00;stroke:#FFFF00; stroke-width:0.1;stroke-linecap:round;stroke-linejoin:round;">
	<!ENTITY st15 "font-size:6px;font-family:'NSimSun';adobe-font-script:japanese;">
	<!ENTITY st16 "1.00 0.00 0.00 1.00">
	<!ENTITY st17 "0.00 -1.00 1.00 0.00">
	<!ENTITY st18 "font-size:6px;font-family:'NSimSun';">
	<!ENTITY st19 "font-size:9px;font-family:'NSimSun';">
	<!ENTITY st20 "font-size:6px;font-family:'NSimSun';adobe-font-script:japanese;">
	<!ENTITY st21 "font-size:7px;font-family:'NSimSun';adobe-font-script:japanese;">
	<!ATTLIST svg
		xmlns:ewd CDATA #FIXED "http://shcl.co.jp/ewd"
		xmlns:a CDATA #FIXED "http://ns.adobe.com/AdobeSVGViewerExtensions/3.0/"
		ewd:ver CDATA #IMPLIED
	>
	<!ATTLIST a
		ewd:lineID CDATA #IMPLIED
		ewd:groupID CDATA #IMPLIED
		ewd:figtype CDATA #IMPLIED
		ewd:code CDATA #IMPLIED
		ewd:figID CDATA #IMPLIED
		ewd:pinNo CDATA #IMPLIED
		ewd:comment CDATA #IMPLIED >
	<!ATTLIST g
		ewd:lineID CDATA #IMPLIED
		ewd:groupID CDATA #IMPLIED
		ewd:figtype CDATA #IMPLIED
		ewd:code CDATA #IMPLIED
		ewd:figID CDATA #IMPLIED
		ewd:pinNo CDATA #IMPLIED
		ewd:comment CDATA #IMPLIED >
	<!ATTLIST text
		ewd:textID CDATA #IMPLIED
		ewd:horAlign CDATA #IMPLIED >
	<!ATTLIST title
		ewd:textID CDATA #IMPLIED >
]>
<!-- Generator: Shintec Hozumi YS   -->
<svg onload="call_execInitLoadProc_svg('system')" style="overflow:visible;  enable-background:new 0 0 9651.725 710.000" viewBox="0 0 9611.904 710.000" height="710.000" width="9611.904" xml:space="preserve" ewd:ver="2.1.2.6F" xmlns="&ns_svg;" xmlns:ewd="http://shcl.co.jp/ewd" xmlns:a="http://ns.adobe.com/AdobeSVGViewerExtensions/3.0/" xmlns:xlink="&ns_xlink;">
<text style="font-size:6px;font-family:'NSimSun';" transform="matrix(&st17;  7016.13  497.17 )">W</text><text style="font-size:6px;font-family:'NSimSun';" transform="matrix(&st17;  7086.95  500.97 )">(*11)</text><text style="font-size:6px;font-family:'NSimSun';" transform="matrix(&st17;  7041.63  497.17 )">W</text><text style="font-size:6px;font-family:'NSimSun';" transform="matrix(&st17;  7052.96  500.97 )">(*12)</text><text style="font-size:6px;font-family:'NSimSun';" transform="matrix(&st17;  7112.45  500.97 )">(*12)</text><text style="font-size:6px;font-family:'NSimSun';" transform="matrix(&st17;  7101.12  498.49 )">LG</text><text style="font-size:6px;font-family:'NSimSun';" transform="matrix(&st17;  7027.46  500.97 )">(*11)</text><text style="font-size:6px;font-family:'NSimSun';" transform="matrix(&st17;  7075.62  498.49 )">LG</text><text style="font-size:6px;font-family:'NSimSun';" transform="matrix(&st16;  7272.49  525.0 )">LG(*12)</text><text style="font-size:6px;font-family:'NSimSun';" transform="matrix(&st16;  7221.5  525.0 )">LG(*12)</text><text style="font-size:6px;font-family:'NSimSun';" transform="matrix(&st16;  7222.81  542.0 )">W(*12)</text><text style="font-size:6px;font-family:'NSimSun';" transform="matrix(&st16;  7273.81  542.0 )">W(*12)</text><text style="font-size:6px;font-family:'NSimSun';" transform="matrix(&st16;  7272.49  558.99 )">LG(*11)</text><text style="font-size:6px;font-family:'NSimSun';" transform="matrix(&st16;  7221.5  558.99 )">LG(*11)</text><text style="font-size:6px;font-family:'NSimSun';" transform="matrix(&st16;  7222.81  575.99 )">W(*11)</text><text style="font-size:6px;font-family:'NSimSun';" transform="matrix(&st16;  7273.81  575.99 )">W(*11)</text><text style="font-size:6px;font-family:'NSimSun';" transform="matrix(&st16;  7280.98  626.98 )">V</text><text style="font-size:6px;font-family:'NSimSun';" transform="matrix(&st16;  7272.49  609.99 )">LG(*11)</text><text style="font-size:6px;font-family:'NSimSun';" transform="matrix(&st16;  7272.49  592.99 )">LG(*12)</text><text style="font-size:6px;font-family:'NSimSun';" transform="matrix(&st16;  7221.5  592.99 )">LG(*12)</text><text style="font-size:6px;font-family:'NSimSun';" transform="matrix(&st16;  7221.5  609.99 )">LG(*11)</text><text style="font-size:6px;font-family:'NSimSun';" transform="matrix(&st16;  7229.99  626.98 )">V</text><text style="font-size:6px;font-family:'NSimSun';" transform="matrix(&st16;  7223.59  643.98 )">SB(*1)</text><text style="font-size:6px;font-family:'NSimSun';" transform="matrix(&st16;  7274.58  643.98 )">SB(*1)</text><text style="font-size:6px;font-family:'NSimSun';" transform="matrix(&st16;  7223.28  660.98 )">BR(*1)</text><text style="font-size:6px;font-family:'NSimSun';" transform="matrix(&st16;  7274.27  660.98 )">BR(*1)</text><text style="font-size:6px;font-family:'NSimSun';" transform="matrix(&st17;  7426.9  161.02 )">(*12)</text><text style="font-size:6px;font-family:'NSimSun';" transform="matrix(&st17;  7350.41  161.02 )">(*12)</text><text style="font-size:6px;font-family:'NSimSun';" transform="matrix(&st17;  7494.89  475.47 )">(*12)</text><text style="font-size:6px;font-family:'NSimSun';" transform="matrix(&st17;  7452.39  475.47 )">(*12)</text><text style="font-size:6px;font-family:'NSimSun';" transform="matrix(&st17;  7441.06  471.67 )">W</text><text style="font-size:6px;font-family:'NSimSun';" transform="matrix(&st17;  7373.07  472.99 )">LG</text><text style="font-size:6px;font-family:'NSimSun';" transform="matrix(&st17;  7384.4  475.47 )">(*12)</text><text style="font-size:6px;font-family:'NSimSun';" transform="matrix(&st17;  7339.08  157.22 )">W</text><text style="font-size:6px;font-family:'NSimSun';" transform="matrix(&st17;  7483.55  472.76 )">BR</text><text style="font-size:6px;font-family:'NSimSun';" transform="matrix(&st17;  7415.56  157.22 )">W</text><text style="font-size:6px;font-family:'NSimSun';" transform="matrix(&st17;  7466.56  156.25 )">P</text><text style="font-size:6px;font-family:'NSimSun';" transform="matrix(&st17;  7477.89  161.02 )">(*12)</text><g ewd:figtype="rb" ewd:figID="69" ewd:code="FUSE6"><path style="stroke-width: 0.85 ;&st7;  " d=" M  7342.77,    69.77  L  7342.77,    95.27  " /><path style="stroke-width: 1.42 ;&st7;  " d=" M  7344.90,    95.27  L  7340.65,    95.27  " /><path style="stroke-width: 1.42 ;&st7;  " d=" M  7344.90,   103.77  L  7340.65,   103.77  " /><path style="stroke-width: 1.42 ;&st7;   " d=" M  7340.65,    95.27  C  7338.30     95.27   7336.40     97.17   7336.40     99.52  " /><path style="stroke-width: 1.42 ;&st7;   " d=" M  7336.40,    99.52  C  7336.40    101.87   7338.30    103.77   7340.65    103.77  " /><path style="stroke-width: 1.42 ;&st7;   " d=" M  7344.90,   103.77  C  7347.24    103.77   7349.15    101.87   7349.15     99.52  " /><path style="stroke-width: 1.42 ;&st7;   " d=" M  7349.15,    99.52  C  7349.15     97.17   7347.24     95.27   7344.90     95.27  " /><path style="stroke-width: 0.28 ;&st9;  " d=" M  7342.77,    90.37  L  7339.94,    87.54  L  7339.94,    91.79  L  7342.77,    94.62  L  7345.60,    91.79  L  7345.60,    87.54  L  7342.77,    90.37  " /><text style="font-size:6px;font-family:'NSimSun';" transform="matrix(&st16;  7359.2  53.34 )">10A <tspan x="0 " dy="6.0">ECU-B </tspan><tspan x="0 " dy="6.0">NO.2</tspan></text><text style="font-size:6px;font-family:'NSimSun';" transform="matrix(&st16;  7340.97  101.49 )">1</text><text style="font-size:6px;font-family:'NSimSun';" transform="matrix(&st16;  7336.59  86.47 )">2</text><text style="font-size:6px;font-family:'NSimSun';" transform="matrix(&st16;  7334.73  32.08 )">(BAT)</text><path style="stroke-width: 1.42 ;&st7;   " d=" M  7342.77,    66.94  C  7345.51     65.33   7346.42     61.80   7344.81     59.06  " /><path style="stroke-width: 1.42 ;&st7;   " d=" M  7344.81,    59.06  C  7344.29     58.18   7343.66     57.55   7342.77     57.03  " /><path style="stroke-width: 0.85 ;&st7;   " d=" M  7344.19,    45.69  C  7344.19     44.91   7343.56     44.28   7342.77     44.28  " /><path style="stroke-width: 0.85 ;&st7;   " d=" M  7342.77,    44.28  C  7341.99     44.28   7341.36     44.91   7341.36     45.69  " /><path style="stroke-width: 0.85 ;&st7;   " d=" M  7341.36,    45.69  C  7341.36     46.48   7341.99     47.11   7342.77     47.11  " /><path style="stroke-width: 0.85 ;&st7;   " d=" M  7342.77,    47.11  C  7343.56     47.11   7344.19     46.48   7344.19     45.69  " /><path style="stroke-width: 0.85 ;&st7;   " d=" M  7344.19,    68.36  C  7344.19     67.57   7343.56     66.94   7342.77     66.94  " /><path style="stroke-width: 0.85 ;&st7;   " d=" M  7342.77,    66.94  C  7341.99     66.94   7341.36     67.57   7341.36     68.36  " /><path style="stroke-width: 0.85 ;&st7;   " d=" M  7341.36,    68.36  C  7341.36     69.14   7341.99     69.77   7342.77     69.77  " /><path style="stroke-width: 0.85 ;&st7;   " d=" M  7342.77,    69.77  C  7343.56     69.77   7344.19     69.14   7344.19     68.36  " /><path style="stroke-width: 1.42 ;&st7;   " d=" M  7342.77,    47.11  C  7340.04     48.72   7339.12     52.25   7340.74     54.99  " /><path style="stroke-width: 1.42 ;&st7;   " d=" M  7340.74,    54.99  C  7341.26     55.87   7341.89     56.51   7342.77     57.03  " /><path style="stroke-width: 1.42 ;&st7;  " d=" M  7330.02,    35.78  L  7330.02,    78.27  L  7355.52,    78.27  L  7355.52,    35.78  L  7330.02,    35.78  " /></g><g ewd:code="E55" ewd:figID="75" ewd:comment="3" ewd:figtype="conn"><path style="stroke-width: 1.42 ;&st7;  " d=" M  7963.17,   392.72  L  7963.17,   409.72  " /><path style="stroke-width: 0.85 ;&st7;  " d=" M  7963.17,   404.05  L  7971.67,   409.72  " /><path style="stroke-width: 0.85 ;&st7;  " d=" M  7971.67,   392.72  L  7963.74,   398.01  " /><path style="stroke-width: 0.85 ;&st7;  " d=" M  7963.17,   401.22  L  7954.67,   401.22  " /><path style="stroke-width: 0.85 ;&st7;  " d=" M  7618.98,   392.72  L  7610.48,   392.72  " /><path style="stroke-width: 0.85 ;&st7;  " d=" M  7622.10,   297.29  L  7629.46,   293.04  " /><path style="stroke-width: 0.85 ;&st7;  " d=" M  7627.46,   289.57  L  7620.10,   293.82  " /><path style="stroke-width: 0.85 ;&st7;  " d=" M  7618.98,   299.24  L  7610.48,   299.24  " /><path style="stroke-width: 0.85 ;&st7;  " d=" M  7453.25,   252.49  L  7453.25,   243.99  " /><path style="stroke-width: 0.85 ;&st7;  " d=" M  7436.26,   243.99  L  7436.26,   252.49  " /><path style="stroke-width: 0.85 ;&st7;  " d=" M  7507.08,   307.73  L  7512.74,   299.24  " /><path style="stroke-width: 0.85 ;&st7;  " d=" M  7495.75,   299.24  L  7501.04,   307.17  " /><path style="stroke-width: 0.85 ;&st7;  " d=" M  7504.25,   307.73  L  7504.25,   316.23  " /><path style="stroke-width: 1.42 ;&st7;  " d=" M  7495.75,   307.73  L  7512.74,   307.73  " /><path style="stroke-width: 1.42 ;&st7;  " d=" M  7415.01,   399.09  L  7406.51,   399.09  " /><path style="stroke-width: 1.42 ;&st7;  " d=" M  7415.01,   394.84  L  7406.51,   394.84  " /><path style="stroke-width: 0.85 ;&st7;  " d=" M  7410.76,   394.84  L  7410.76,   384.22  " /><path style="stroke-width: 0.85 ;&st7;  " d=" M  7869.69,   392.72  L  7875.35,   384.22  " /><path style="stroke-width: 0.85 ;&st7;  " d=" M  7878.18,   384.22  L  7878.18,   375.72  " /><path style="stroke-width: 1.42 ;&st7;  " d=" M  7886.68,   384.22  L  7869.69,   384.22  " /><path style="stroke-width: 1.42 ;&st7;  " d=" M  8014.16,   350.23  L  8014.16,   367.22  " /><path style="stroke-width: 0.85 ;&st7;  " d=" M  8014.16,   358.73  L  7988.67,   358.73  " /><path style="stroke-width: 0.85 ;&st7;  " d=" M  8022.66,   367.22  L  8014.16,   361.56  " /><path style="stroke-width: 1.42 ;&st7;  " d=" M  8014.16,   392.72  L  8014.16,   375.72  " /><path style="stroke-width: 0.85 ;&st7;  " d=" M  8014.16,   384.22  L  8022.66,   384.22  " /><path style="stroke-width: 0.85 ;&st7;  " d=" M  8005.66,   375.72  L  8014.16,   381.39  " /><path style="stroke-width: 1.42 ;&st7;  " d=" M  7954.67,   367.22  L  7937.67,   367.22  " /><path style="stroke-width: 0.85 ;&st7;  " d=" M  7946.17,   367.22  L  7946.17,   350.23  " /><path style="stroke-width: 0.85 ;&st7;  " d=" M  7942.96,   367.79  L  7937.67,   375.72  " /><path style="stroke-width: 0.85 ;&st7;  " d=" M  7954.67,   375.72  L  7949.01,   367.22  " /><path style="stroke-width: 0.85 ;&st7;  " d=" M  7334.27,   358.73  L  7351.27,   358.73  " /><path style="stroke-width: 0.85 ;&st7;  " d=" M  7359.77,   367.22  L  7342.77,   367.22  L  7342.77,   358.73  " /><path style="stroke-width: 0.85 ;&st7;  " d=" M  7444.75,   358.73  L  7444.75,   341.73  " /><path style="stroke-width: 0.85 ;&st7;  " d=" M  7376.76,   358.73  L  7376.76,   341.73  " /><path style="stroke-width: 0.85 ;&st7;  " d=" M  7444.75,   375.72  L  7444.75,   435.21  " /><path style="stroke-width: 0.85 ;&st7;  " d=" M  7376.76,   375.72  L  7376.76,   435.21  " /><path style="stroke-width: 1.42 ;&st7;  " d=" M  7359.77,   358.73  L  7359.77,   375.72  L  7461.75,   375.72  L  7461.75,   358.73  L  7359.77,   358.73  " /><path style="stroke-width: 0.85 ;&st7;  " d=" M  7920.67,   401.22  L  7929.17,   401.22  L  7930.59,   398.39  L  7933.42,   404.05  L  7936.25,   398.39  L  7939.09,   404.05  L  7941.92,   398.39  L  7944.75,   404.05  L  7946.17,   401.22  L  7954.67,   401.22  " /><path style="stroke-width: 0.85 ;&st7;  " d=" M  7487.25,   341.73  L  7487.25,   435.21  " /><path style="stroke-width: 0.85 ;&st7;  " d=" M  7869.68,   392.72  L  7872.87,   390.59  L  7870.42,   388.96  L  7869.68,   392.72  L  7870.50,   391.49  L  7871.85,   390.59  L  7870.82,   389.90  L  7870.50,   391.49  L  7870.91,   390.87  L  7871.34,   390.59  L  7871.01,   390.37  L  7870.91,   390.87  " /><path style="stroke-width: 0.85 ;&st7;  " d=" M  7963.73,   398.01  L  7965.87,   394.82  L  7967.49,   397.26  L  7963.73,   398.01  L  7964.96,   397.19  L  7965.86,   395.84  L  7966.55,   396.87  L  7964.96,   397.19  L  7965.58,   396.78  L  7965.86,   396.35  L  7966.08,   396.68  L  7965.58,   396.78  " /><path style="stroke-width: 0.85 ;&st7;  " d=" M  7470.25,   231.25  L  7614.72,   231.25  " /><path style="stroke-width: 0.85 ;&st7;  " d=" M  7614.72,   231.25  L  7614.72,   256.74  " /><path style="stroke-width: 0.85 ;&st7;  " d=" M  7614.72,   290.74  L  7614.72,   282.24  L  7611.89,   280.82  L  7617.56,   277.99  L  7611.89,   275.16  L  7617.56,   272.32  L  7611.89,   269.49  L  7617.56,   266.66  L  7614.72,   265.24  L  7614.72,   256.74  " /><path style="stroke-width: 0.85 ;&st7;  " d=" M  7629.46,   293.04  L  7627.13,   296.08  L  7625.66,   293.54  L  7629.46,   293.04  L  7628.18,   293.78  L  7627.19,   295.06  L  7626.57,   293.99  L  7628.18,   293.78  L  7627.54,   294.15  L  7627.23,   294.56  L  7627.03,   294.22  L  7627.54,   294.15  " /><path style="stroke-width: 0.85 ;&st7;  " d=" M  7627.46,   289.57  L  7625.12,   292.61  L  7623.66,   290.07  L  7627.46,   289.57  L  7626.17,   290.31  L  7625.19,   291.60  L  7624.57,   290.52  L  7626.17,   290.31  L  7625.53,   290.68  L  7625.22,   291.09  L  7625.03,   290.75  L  7625.53,   290.68  " /><path style="stroke-width: 0.28 ;&st9;  " d=" M  7614.72,   299.24  L  7609.06,   290.74  L  7620.39,   290.74  L  7614.72,   299.24  " /><path style="stroke-width: 0.85 ;&st7;  " d=" M  7512.74,   299.24  L  7512.74,   282.24  " /><path style="stroke-width: 0.85 ;&st7;  " d=" M  7487.25,   299.24  L  7487.25,   282.24  " /><path style="stroke-width: 0.85 ;&st7;  " d=" M  7443.56,   247.24  L  7443.29,   247.71  L  7443.19,   248.24  L  7443.29,   248.78  L  7443.56,   249.25  L  7443.97,   249.59  L  7444.48,   249.78  L  7445.02,   249.78  L  7445.53,   249.59  L  7445.95,   249.25  L  7446.22,   248.78  L  7446.31,   248.24  L  7446.22,   247.71  L  7445.95,   247.24  L  7445.53,   246.90  L  7445.02,   246.71  L  7444.48,   246.71  L  7443.97,   246.90  L  7443.56,   247.24  L  7443.95,   247.95  L  7443.95,   248.54  L  7444.33,   248.98  L  7444.90,   249.08  L  7445.40,   248.79  L  7445.60,   248.24  L  7445.40,   247.70  L  7444.90,   247.41  L  7444.33,   247.51  L  7444.75,   248.24  " /><path style="stroke-width: 0.28 ;&st9;  " d=" M  7453.25,   248.24  L  7461.75,   242.58  L  7461.75,   253.91  L  7453.25,   248.24  " /><path style="stroke-width: 0.28 ;&st9;  " d=" M  7436.25,   248.24  L  7427.76,   253.91  L  7427.76,   242.58  L  7436.25,   248.24  " /><path style="stroke-width: 0.85 ;&st7;  " d=" M  7419.26,   214.25  L  7419.26,   248.24  L  7470.25,   248.24  L  7470.25,   214.25  " /><path style="stroke-width: 0.85 ;&st7;  " d=" M  7444.75,   282.24  L  7444.75,   316.23  " /><path style="stroke-width: 1.42 ;&st7;  " d=" M  7351.27,   282.24  L  7351.27,   299.24  L  7385.26,   299.24  L  7385.26,   282.24  L  7351.27,   282.24  " /><path style="stroke-width: 1.42 ;&st7;  " d=" M  7351.27,   316.23  L  7351.27,   341.73  L  7572.23,   341.73  L  7572.23,   316.23  L  7351.27,   316.23  " /><path style="stroke-width: 1.42 ;&st7;  " d=" M  7317.27,   214.25  L  7317.27,   435.21  L  8065.15,   435.21  L  8065.15,   214.25  L  7317.27,   214.25  " /><path style="stroke-width: 0.28 ;&st9;  " d=" M  7614.72,   392.72  L  7609.06,   384.22  L  7620.39,   384.22  L  7614.72,   392.72  " /><path style="stroke-width: 0.85 ;&st7;  " d=" M  7376.76,   384.22  L  7385.26,   384.22  L  7386.68,   381.39  L  7389.51,   387.05  L  7392.35,   381.39  L  7395.18,   387.05  L  7398.01,   381.39  L  7400.84,   387.05  L  7402.26,   384.22  L  7410.76,   384.22  " /><path style="stroke-width: 0.85 ;&st7;  " d=" M  7878.18,   367.22  L  7878.18,   375.72  " /><path style="stroke-width: 0.85 ;&st7;  " d=" M  7903.68,   392.72  L  7903.68,   384.22  L  7900.84,   382.80  L  7906.51,   379.97  L  7900.84,   377.14  L  7906.51,   374.31  L  7900.84,   371.47  L  7906.51,   368.64  L  7903.68,   367.22  L  7903.68,   358.73  " /><path style="stroke-width: 0.85 ;&st7;  " d=" M  7469.06,   230.24  L  7468.78,   230.71  L  7468.69,   231.25  L  7468.78,   231.78  L  7469.06,   232.25  L  7469.47,   232.60  L  7469.98,   232.78  L  7470.52,   232.78  L  7471.03,   232.60  L  7471.44,   232.25  L  7471.71,   231.78  L  7471.81,   231.25  L  7471.71,   230.71  L  7471.44,   230.24  L  7471.03,   229.90  L  7470.52,   229.71  L  7469.98,   229.71  L  7469.47,   229.90  L  7469.06,   230.24  L  7469.45,   230.96  L  7469.45,   231.54  L  7469.82,   231.98  L  7470.40,   232.08  L  7470.90,   231.79  L  7471.10,   231.25  L  7470.90,   230.70  L  7470.40,   230.41  L  7469.82,   230.51  L  7470.25,   231.25  " /><path style="stroke-width: 0.85 ;&st7;  " d=" M  7903.68,   358.73  L  7903.68,   350.23  L  7946.17,   350.23  " /><path style="stroke-width: 0.85 ;&st7;  " d=" M  7886.68,   392.72  L  7903.68,   392.72  " /><path style="stroke-width: 0.85 ;&st7;  " d=" M  7501.03,   307.17  L  7497.85,   305.03  L  7500.29,   303.41  L  7501.03,   307.17  L  7500.21,   305.94  L  7498.87,   305.04  L  7499.90,   304.35  L  7500.21,   305.94  L  7499.80,   305.32  L  7499.38,   305.04  L  7499.70,   304.82  L  7499.80,   305.32  " /><path style="stroke-width: 0.85 ;&st7;  " d=" M  7444.75,   299.24  L  7495.74,   299.24  " /><path style="stroke-width: 0.85 ;&st7;  " d=" M  7886.68,   392.72  L  7881.01,   384.22  " /><path style="stroke-width: 0.85 ;&st7;  " d=" M  7444.75,   248.24  L  7444.75,   265.24  " /><path style="stroke-width: 0.85 ;&st7;  " d=" M  7920.67,   384.22  L  7920.67,   435.21  " /><path style="stroke-width: 0.85 ;&st7;  " d=" M  7410.76,   384.22  L  7419.26,   384.22  L  7420.67,   381.39  L  7423.51,   387.05  L  7426.34,   381.39  L  7429.17,   387.05  L  7432.01,   381.39  L  7434.84,   387.05  L  7436.25,   384.22  L  7444.75,   384.22  " /><path style="stroke-width: 0.85 ;&st7;  " d=" M  7868.27,   409.72  L  7871.10,   409.72  " /><path style="stroke-width: 0.85 ;&st7;  " d=" M  7443.56,   383.22  L  7443.29,   383.69  L  7443.19,   384.22  L  7443.29,   384.75  L  7443.56,   385.22  L  7443.97,   385.57  L  7444.48,   385.76  L  7445.02,   385.76  L  7445.53,   385.57  L  7445.95,   385.22  L  7446.22,   384.75  L  7446.31,   384.22  L  7446.22,   383.69  L  7445.95,   383.22  L  7445.53,   382.87  L  7445.02,   382.69  L  7444.48,   382.69  L  7443.97,   382.87  L  7443.56,   383.22  L  7443.95,   383.93  L  7443.95,   384.51  L  7444.33,   384.96  L  7444.90,   385.06  L  7445.40,   384.77  L  7445.60,   384.22  L  7445.40,   383.67  L  7444.90,   383.39  L  7444.33,   383.48  L  7444.75,   384.22  " /><path style="stroke-width: 0.85 ;&st7;  " d=" M  7866.85,   406.88  L  7872.51,   406.88  " /><path style="stroke-width: 0.85 ;&st7;  " d=" M  7375.57,   383.22  L  7375.30,   383.69  L  7375.21,   384.22  L  7375.30,   384.75  L  7375.57,   385.22  L  7375.99,   385.57  L  7376.50,   385.76  L  7377.03,   385.76  L  7377.54,   385.57  L  7377.96,   385.22  L  7378.23,   384.75  L  7378.32,   384.22  L  7378.23,   383.69  L  7377.96,   383.22  L  7377.54,   382.87  L  7377.03,   382.69  L  7376.50,   382.69  L  7375.99,   382.87  L  7375.57,   383.22  L  7375.97,   383.93  L  7375.97,   384.51  L  7376.34,   384.96  L  7376.91,   385.06  L  7377.42,   384.77  L  7377.61,   384.22  L  7377.42,   383.67  L  7376.91,   383.39  L  7376.34,   383.48  L  7376.76,   384.22  " /><path style="stroke-width: 0.85 ;&st7;  " d=" M  7865.43,   404.05  L  7873.93,   404.05  " /><path style="stroke-width: 0.85 ;&st7;  " d=" M  7869.68,   392.72  L  7869.68,   401.22  " /><path style="stroke-width: 0.85 ;&st7;  " d=" M  7410.76,   399.09  L  7410.76,   409.72  " /><path style="stroke-width: 0.85 ;&st7;  " d=" M  7402.26,   409.72  L  7419.26,   409.72  " /><path style="stroke-width: 0.85 ;&st7;  " d=" M  7406.51,   412.55  L  7415.01,   412.55  " /><path style="stroke-width: 0.85 ;&st7;  " d=" M  7407.93,   415.38  L  7413.59,   415.38  " /><path style="stroke-width: 0.85 ;&st7;  " d=" M  7409.34,   418.22  L  7412.18,   418.22  " /><path style="stroke-width: 0.85 ;&st7;  " d=" M  7409.57,   383.22  L  7409.29,   383.69  L  7409.20,   384.22  L  7409.29,   384.75  L  7409.57,   385.22  L  7409.98,   385.57  L  7410.49,   385.76  L  7411.03,   385.76  L  7411.54,   385.57  L  7411.95,   385.22  L  7412.22,   384.75  L  7412.32,   384.22  L  7412.22,   383.69  L  7411.95,   383.22  L  7411.54,   382.87  L  7411.03,   382.69  L  7410.49,   382.69  L  7409.98,   382.87  L  7409.57,   383.22  L  7409.96,   383.93  L  7409.96,   384.51  L  7410.33,   384.96  L  7410.91,   385.06  L  7411.41,   384.77  L  7411.61,   384.22  L  7411.41,   383.67  L  7410.91,   383.39  L  7410.33,   383.48  L  7410.76,   384.22  " /><path style="stroke-width: 0.85 ;&st7;  " d=" M  7954.67,   384.22  L  7971.66,   384.22  L  7971.66,   392.72  " /><path style="stroke-width: 0.85 ;&st7;  " d=" M  8022.66,   350.23  L  8014.16,   355.89  " /><path style="stroke-width: 0.85 ;&st7;  " d=" M  8022.66,   367.22  L  8020.52,   364.04  L  8018.90,   366.48  L  8022.66,   367.22  L  8021.42,   366.40  L  8020.53,   365.06  L  8019.84,   366.09  L  8021.42,   366.40  L  8020.81,   365.99  L  8020.53,   365.57  L  8020.31,   365.89  L  8020.81,   365.99  " /><path style="stroke-width: 0.85 ;&st7;  " d=" M  7988.66,   375.72  L  7988.66,   358.73  " /><path style="stroke-width: 0.85 ;&st7;  " d=" M  8005.66,   392.72  L  8014.16,   387.05  " /><path style="stroke-width: 0.85 ;&st7;  " d=" M  8005.66,   392.72  L  8007.79,   389.54  L  8009.42,   391.98  L  8005.66,   392.72  L  8006.89,   391.90  L  8007.79,   390.56  L  8008.48,   391.58  L  8006.89,   391.90  L  8007.51,   391.49  L  8007.79,   391.07  L  8008.01,   391.39  L  8007.51,   391.49  " /><path style="stroke-width: 0.85 ;&st7;  " d=" M  7869.68,   367.22  L  7886.68,   367.22  " /><path style="stroke-width: 0.85 ;&st7;  " d=" M  7971.66,   409.72  L  7988.66,   409.72  " /><path style="stroke-width: 0.85 ;&st7;  " d=" M  7988.66,   409.72  L  7988.66,   401.22  L  7985.83,   399.80  L  7991.49,   396.97  L  7985.83,   394.14  L  7991.49,   391.30  L  7985.83,   388.47  L  7991.49,   385.64  L  7988.66,   384.22  L  7988.66,   375.72  " /><path style="stroke-width: 0.85 ;&st7;  " d=" M  8031.15,   367.22  L  8039.65,   367.22  " /><path style="stroke-width: 0.85 ;&st7;  " d=" M  8022.66,   384.22  L  8031.15,   384.22  L  8031.15,   367.22  " /><path style="stroke-width: 0.85 ;&st7;  " d=" M  8005.66,   375.72  L  7988.66,   375.72  " /><path style="stroke-width: 0.85 ;&st7;  " d=" M  7953.47,   383.22  L  7953.20,   383.69  L  7953.11,   384.22  L  7953.20,   384.75  L  7953.47,   385.22  L  7953.89,   385.57  L  7954.40,   385.76  L  7954.94,   385.76  L  7955.45,   385.57  L  7955.86,   385.22  L  7956.13,   384.75  L  7956.23,   384.22  L  7956.13,   383.69  L  7955.86,   383.22  L  7955.45,   382.87  L  7954.94,   382.69  L  7954.40,   382.69  L  7953.89,   382.87  L  7953.47,   383.22  L  7953.87,   383.93  L  7953.87,   384.51  L  7954.24,   384.96  L  7954.81,   385.06  L  7955.32,   384.77  L  7955.52,   384.22  L  7955.32,   383.67  L  7954.81,   383.39  L  7954.24,   383.48  L  7954.67,   384.22  " /><path style="stroke-width: 0.85 ;&st7;  " d=" M  8038.24,   418.22  L  8041.07,   418.22  " /><path style="stroke-width: 0.85 ;&st7;  " d=" M  8036.82,   415.38  L  8042.49,   415.38  " /><path style="stroke-width: 0.85 ;&st7;  " d=" M  8035.40,   412.55  L  8043.90,   412.55  " /><path style="stroke-width: 0.85 ;&st7;  " d=" M  8031.15,   409.72  L  8048.15,   409.72  " /><path style="stroke-width: 0.85 ;&st7;  " d=" M  8039.65,   401.22  L  8039.65,   409.72  " /><path style="stroke-width: 0.85 ;&st7;  " d=" M  8039.65,   401.22  L  8039.65,   392.72  L  8036.82,   391.30  L  8042.49,   388.47  L  8036.82,   385.64  L  8042.49,   382.80  L  8036.82,   379.97  L  8042.49,   377.14  L  8039.65,   375.72  L  8039.65,   367.22  " /><path style="stroke-width: 0.85 ;&st7;  " d=" M  8022.66,   367.22  L  8031.15,   367.22  " /><path style="stroke-width: 0.85 ;&st7;  " d=" M  8005.66,   392.72  L  8005.66,   401.22  L  8039.65,   401.22  " /><path style="stroke-width: 0.85 ;&st7;  " d=" M  7835.69,   435.21  L  7835.69,   333.23  L  8022.66,   333.23  L  8022.66,   350.23  " /><path style="stroke-width: 0.85 ;&st7;  " d=" M  8029.96,   366.22  L  8029.69,   366.69  L  8029.60,   367.22  L  8029.69,   367.76  L  8029.96,   368.23  L  8030.38,   368.57  L  8030.89,   368.76  L  8031.42,   368.76  L  8031.93,   368.57  L  8032.35,   368.23  L  8032.62,   367.76  L  8032.71,   367.22  L  8032.62,   366.69  L  8032.35,   366.22  L  8031.93,   365.88  L  8031.42,   365.69  L  8030.89,   365.69  L  8030.38,   365.88  L  8029.96,   366.22  L  8030.36,   366.93  L  8030.36,   367.52  L  8030.73,   367.96  L  8031.30,   368.06  L  8031.81,   367.77  L  8032.00,   367.22  L  8031.81,   366.68  L  8031.30,   366.39  L  8030.73,   366.49  L  8031.15,   367.22  " /><path style="stroke-width: 0.85 ;&st7;  " d=" M  8038.46,   400.22  L  8038.19,   400.69  L  8038.10,   401.22  L  8038.19,   401.75  L  8038.46,   402.22  L  8038.87,   402.57  L  8039.38,   402.75  L  8039.92,   402.75  L  8040.43,   402.57  L  8040.85,   402.22  L  8041.12,   401.75  L  8041.21,   401.22  L  8041.12,   400.69  L  8040.85,   400.22  L  8040.43,   399.87  L  8039.92,   399.68  L  8039.38,   399.68  L  8038.87,   399.87  L  8038.46,   400.22  L  8038.85,   400.93  L  8038.85,   401.51  L  8039.23,   401.95  L  8039.80,   402.05  L  8040.30,   401.77  L  8040.50,   401.22  L  8040.30,   400.67  L  8039.80,   400.38  L  8039.23,   400.48  L  8039.65,   401.22  " /><path style="stroke-width: 0.85 ;&st7;  " d=" M  7920.67,   384.22  L  7929.17,   384.22  L  7930.59,   381.39  L  7933.42,   387.05  L  7936.25,   381.39  L  7939.09,   387.05  L  7941.92,   381.39  L  7944.75,   387.05  L  7946.17,   384.22  L  7954.67,   384.22  " /><path style="stroke-width: 0.85 ;&st7;  " d=" M  7919.48,   400.22  L  7919.21,   400.69  L  7919.12,   401.22  L  7919.21,   401.75  L  7919.48,   402.22  L  7919.89,   402.57  L  7920.40,   402.75  L  7920.94,   402.75  L  7921.45,   402.57  L  7921.87,   402.22  L  7922.14,   401.75  L  7922.23,   401.22  L  7922.14,   400.69  L  7921.87,   400.22  L  7921.45,   399.87  L  7920.94,   399.68  L  7920.40,   399.68  L  7919.89,   399.87  L  7919.48,   400.22  L  7919.87,   400.93  L  7919.87,   401.51  L  7920.25,   401.95  L  7920.82,   402.05  L  7921.32,   401.77  L  7921.52,   401.22  L  7921.32,   400.67  L  7920.82,   400.38  L  7920.25,   400.48  L  7920.67,   401.22  " /><path style="stroke-width: 0.85 ;&st7;  " d=" M  7954.67,   384.22  L  7954.67,   375.72  " /><path style="stroke-width: 0.85 ;&st7;  " d=" M  7912.17,   367.22  L  7929.17,   367.22  " /><path style="stroke-width: 0.85 ;&st7;  " d=" M  7987.47,   374.72  L  7987.20,   375.19  L  7987.10,   375.72  L  7987.20,   376.26  L  7987.47,   376.73  L  7987.88,   377.07  L  7988.39,   377.26  L  7988.93,   377.26  L  7989.44,   377.07  L  7989.85,   376.73  L  7990.13,   376.26  L  7990.22,   375.72  L  7990.13,   375.19  L  7989.85,   374.72  L  7989.44,   374.37  L  7988.93,   374.19  L  7988.39,   374.19  L  7987.88,   374.37  L  7987.47,   374.72  L  7987.86,   375.43  L  7987.86,   376.01  L  7988.24,   376.46  L  7988.81,   376.56  L  7989.31,   376.27  L  7989.51,   375.72  L  7989.31,   375.18  L  7988.81,   374.89  L  7988.24,   374.99  L  7988.66,   375.72  " /><path style="stroke-width: 0.85 ;&st7;  " d=" M  7942.96,   367.79  L  7939.77,   369.92  L  7942.21,   371.55  L  7942.96,   367.79  L  7942.14,   369.02  L  7940.80,   369.92  L  7941.82,   370.61  L  7942.14,   369.02  L  7941.73,   369.64  L  7941.30,   369.92  L  7941.63,   370.14  L  7941.73,   369.64  " /><path style="stroke-width: 0.85 ;&st7;  " d=" M  7937.67,   375.72  L  7920.67,   375.72  L  7920.67,   367.22  " /><path style="stroke-width: 1.42 ;&st7;  " d=" M  7368.27,   341.73  L  7368.27,   324.73  L  7453.25,   324.73  L  7453.25,   341.73  " /><path style="stroke-width: 0.85 ;&st7;  " d=" M  7478.75,   282.24  L  7495.74,   282.24  " /><path style="stroke-width: 0.85 ;&st7;  " d=" M  7504.24,   282.24  L  7521.24,   282.24  " /><path style="stroke-width: 0.85 ;&st7;  " d=" M  7486.05,   298.23  L  7485.78,   298.70  L  7485.69,   299.24  L  7485.78,   299.77  L  7486.05,   300.24  L  7486.47,   300.58  L  7486.98,   300.77  L  7487.51,   300.77  L  7488.02,   300.58  L  7488.44,   300.24  L  7488.71,   299.77  L  7488.80,   299.24  L  7488.71,   298.70  L  7488.44,   298.23  L  7488.02,   297.89  L  7487.51,   297.70  L  7486.98,   297.70  L  7486.47,   297.89  L  7486.05,   298.23  L  7486.45,   298.94  L  7486.45,   299.53  L  7486.82,   299.97  L  7487.39,   300.07  L  7487.90,   299.78  L  7488.10,   299.24  L  7487.90,   298.69  L  7487.39,   298.40  L  7486.82,   298.50  L  7487.25,   299.24  " /><path style="stroke-width: 0.85 ;&st7;  " d=" M  7443.56,   298.23  L  7443.29,   298.70  L  7443.19,   299.24  L  7443.29,   299.77  L  7443.56,   300.24  L  7443.97,   300.58  L  7444.48,   300.77  L  7445.02,   300.77  L  7445.53,   300.58  L  7445.95,   300.24  L  7446.22,   299.77  L  7446.31,   299.24  L  7446.22,   298.70  L  7445.95,   298.23  L  7445.53,   297.89  L  7445.02,   297.70  L  7444.48,   297.70  L  7443.97,   297.89  L  7443.56,   298.23  L  7443.95,   298.94  L  7443.95,   299.53  L  7444.33,   299.97  L  7444.90,   300.07  L  7445.40,   299.78  L  7445.60,   299.24  L  7445.40,   298.69  L  7444.90,   298.40  L  7444.33,   298.50  L  7444.75,   299.24  " /><path style="stroke-width: 0.85 ;&st7;  " d=" M  7614.72,   290.74  L  7614.72,   435.21  " /><path style="stroke-width: 0.85 ;&st7;  " d=" M  7861.18,   401.22  L  7878.18,   401.22  " /><text style="font-size:6px;font-family:'NSimSun';" transform="matrix(&st16;  7506.45  330.95 )">CPU</text><text style="font-size:6px;font-family:'NSimSun';" transform="matrix(&st16;  7334.5  355.03 )">5V +B</text><text style="font-size:6px;font-family:'NSimSun';" transform="matrix(&st16;  7399.0  369.19 )">CAN I/F</text><text style="font-size:6px;font-family:'NSimSun';" transform="matrix(&st17;  7606.79  312.46 )" ewd:textID="22">检查发动机</text><text style="font-size:6px;font-family:'NSimSun';" transform="matrix(&st16;  7363.72  292.71 )">I/F</text><text style="font-size:6px;font-family:'NSimSun';" transform="matrix(&st16;  7915.27  363.53 )">12V</text><text style="font-size:6px;font-family:'NSimSun';" transform="matrix(&st16;  7421.84  222.44 )">B</text><text style="font-size:6px;font-family:'NSimSun';" transform="matrix(&st16;  7472.84  222.44 )">IG+</text><text style="font-size:6px;font-family:'NSimSun';" transform="matrix(&st16;  7489.83  431.52 )">ET</text><text style="font-size:6px;font-family:'NSimSun';" transform="matrix(&st16;  7379.35  431.52 )">CANH</text><text style="font-size:6px;font-family:'NSimSun';" transform="matrix(&st16;  7617.31  431.52 )">CHK</text><text style="font-size:6px;font-family:'NSimSun';" transform="matrix(&st16;  7447.34  431.52 )">CANL</text><text style="font-size:6px;font-family:'NSimSun';" transform="matrix(&st16;  7838.27  431.52 )">+S</text><text style="font-size:6px;font-family:'NSimSun';" transform="matrix(&st16;  7923.26  431.52 )">SI</text><text style="font-size:6px;font-family:'NSimSun';" transform="matrix(&st16;  7874.33  363.53 )">5V</text><text style="font-size:6px;font-family:'NSimSun';" transform="matrix(&st16; 7395.36 335.20)" ewd:textID="17" ewd:horAlign="center">CAN 控制器</text><text style="font-size:6px;font-family:'NSimSun';" transform="matrix(&st16;  7508.89  278.54 )">5V</text><text style="font-size:6px;font-family:'NSimSun';" transform="matrix(&st16;  7478.97  278.54 )">5V +B</text><path style="stroke-width: 0.85 ;&st7;  " d=" M  7664.60,   297.29  L  7671.96,   293.04  " /><path style="stroke-width: 0.85 ;&st7;  " d=" M  7669.95,   289.57  L  7662.59,   293.82  " /><path style="stroke-width: 0.85 ;&st7;  " d=" M  7661.47,   299.24  L  7652.97,   299.24  " /><path style="stroke-width: 0.85 ;&st7;  " d=" M  7707.09,   297.29  L  7714.45,   293.04  " /><path style="stroke-width: 0.85 ;&st7;  " d=" M  7712.44,   289.57  L  7705.08,   293.82  " /><path style="stroke-width: 0.85 ;&st7;  " d=" M  7703.96,   299.24  L  7695.46,   299.24  " /><path style="stroke-width: 1.42 ;&st7;  " d=" M  7538.24,   282.24  L  7538.24,   299.24  L  7572.23,   299.24  L  7572.23,   282.24  L  7538.24,   282.24  " /><path style="stroke-width: 0.85 ;&st7;  " d=" M  7657.22,   333.23  L  7657.22,   282.24  L  7654.38,   280.82  L  7660.05,   277.99  L  7654.38,   275.16  L  7660.05,   272.32  L  7654.38,   269.49  L  7660.05,   266.66  L  7657.22,   265.24  L  7657.22,   239.75  " /><path style="stroke-width: 0.85 ;&st7;  " d=" M  7555.23,   299.24  L  7555.23,   316.23  " /><path style="stroke-width: 0.85 ;&st7;  " d=" M  7671.95,   293.04  L  7669.62,   296.08  L  7668.15,   293.54  L  7671.95,   293.04  L  7670.67,   293.78  L  7669.69,   295.06  L  7669.07,   293.99  L  7670.67,   293.78  L  7670.03,   294.15  L  7669.72,   294.56  L  7669.52,   294.22  L  7670.03,   294.15  " /><path style="stroke-width: 0.85 ;&st7;  " d=" M  7669.95,   289.57  L  7667.62,   292.61  L  7666.15,   290.07  L  7669.95,   289.57  L  7668.67,   290.31  L  7667.68,   291.60  L  7667.06,   290.52  L  7668.67,   290.31  L  7668.03,   290.68  L  7667.72,   291.09  L  7667.52,   290.75  L  7668.03,   290.68  " /><path style="stroke-width: 0.28 ;&st9;  " d=" M  7657.22,   299.24  L  7651.55,   290.74  L  7662.88,   290.74  L  7657.22,   299.24  " /><path style="stroke-width: 0.85 ;&st7;  " d=" M  7563.73,   299.24  L  7563.73,   316.23  " /><path style="stroke-width: 0.85 ;&st7;  " d=" M  7656.02,   238.74  L  7655.75,   239.21  L  7655.66,   239.75  L  7655.75,   240.28  L  7656.02,   240.75  L  7656.44,   241.09  L  7656.95,   241.28  L  7657.49,   241.28  L  7658.00,   241.09  L  7658.41,   240.75  L  7658.68,   240.28  L  7658.78,   239.75  L  7658.68,   239.21  L  7658.41,   238.74  L  7658.00,   238.40  L  7657.49,   238.21  L  7656.95,   238.21  L  7656.44,   238.40  L  7656.02,   238.74  L  7656.42,   239.45  L  7656.42,   240.04  L  7656.79,   240.48  L  7657.36,   240.58  L  7657.87,   240.29  L  7658.07,   239.75  L  7657.87,   239.20  L  7657.36,   238.91  L  7656.79,   239.01  L  7657.22,   239.75  " /><path style="stroke-width: 0.28 ;&st9;  " d=" M  7699.71,   299.24  L  7694.04,   290.74  L  7705.38,   290.74  L  7699.71,   299.24  " /><path style="stroke-width: 0.85 ;&st7;  " d=" M  7712.44,   289.57  L  7710.11,   292.61  L  7708.64,   290.07  L  7712.44,   289.57  L  7711.16,   290.31  L  7710.17,   291.60  L  7709.56,   290.52  L  7711.16,   290.31  L  7710.52,   290.68  L  7710.21,   291.09  L  7710.01,   290.75  L  7710.52,   290.68  " /><path style="stroke-width: 0.85 ;&st7;  " d=" M  7714.45,   293.04  L  7712.11,   296.08  L  7710.65,   293.54  L  7714.45,   293.04  L  7713.16,   293.78  L  7712.18,   295.06  L  7711.56,   293.99  L  7713.16,   293.78  L  7712.52,   294.15  L  7712.21,   294.56  L  7712.02,   294.22  L  7712.52,   294.15  " /><path style="stroke-width: 0.85 ;&st7;  " d=" M  7699.71,   333.23  L  7699.71,   282.24  L  7696.88,   280.82  L  7702.54,   277.99  L  7696.88,   275.16  L  7702.54,   272.32  L  7696.88,   269.49  L  7702.54,   266.66  L  7699.71,   265.24  L  7699.71,   239.75  L  7470.25,   239.75  " /><path style="stroke-width: 1.42 ;&st7;  " d=" M  7648.72,   333.23  L  7648.72,   358.73  L  7708.21,   358.73  L  7708.21,   333.23  L  7648.72,   333.23  " /><g ewd:code="" ewd:figID="247" ewd:comment="3" ewd:figtype="commref"><text style="font-size:6px;font-family:'NSimSun';" transform="matrix(&st17;  7643.34  304.2 )">SPORT <tspan x="0 " dy="6.0">(*3)</tspan></text></g><g ewd:code="" ewd:figID="246" ewd:comment="3" ewd:figtype="commref"><text style="font-size:6px;font-family:'NSimSun';" transform="matrix(&st17;  7685.84  315.25 )">A/T OIL TEMP <tspan x="0 " dy="6.0">(*3)</tspan></text></g><path style="stroke-width: 0.85 ;&st7;  " d=" M  7546.74,   299.24  L  7546.74,   316.23  " /><path style="stroke-width: 0.85 ;&st7;  " d=" M  7444.75,   256.74  L  7546.74,   256.74  L  7546.74,   282.24  " /><path style="stroke-width: 0.85 ;&st7;  " d=" M  7563.73,   282.24  L  7563.73,   239.75  " /><path style="stroke-width: 0.85 ;&st7;  " d=" M  7562.54,   238.74  L  7562.27,   239.21  L  7562.17,   239.75  L  7562.27,   240.28  L  7562.54,   240.75  L  7562.95,   241.09  L  7563.46,   241.28  L  7564.00,   241.28  L  7564.51,   241.09  L  7564.93,   240.75  L  7565.20,   240.28  L  7565.29,   239.75  L  7565.20,   239.21  L  7564.93,   238.74  L  7564.51,   238.40  L  7564.00,   238.21  L  7563.46,   238.21  L  7562.95,   238.40  L  7562.54,   238.74  L  7562.93,   239.45  L  7562.93,   240.04  L  7563.31,   240.48  L  7563.88,   240.58  L  7564.38,   240.29  L  7564.58,   239.75  L  7564.38,   239.20  L  7563.88,   238.91  L  7563.31,   239.01  L  7563.73,   239.75  " /><path style="stroke-width: 0.85 ;&st7;  " d=" M  7469.06,   238.74  L  7468.78,   239.21  L  7468.69,   239.75  L  7468.78,   240.28  L  7469.06,   240.75  L  7469.47,   241.09  L  7469.98,   241.28  L  7470.52,   241.28  L  7471.03,   241.09  L  7471.44,   240.75  L  7471.71,   240.28  L  7471.81,   239.75  L  7471.71,   239.21  L  7471.44,   238.74  L  7471.03,   238.40  L  7470.52,   238.21  L  7469.98,   238.21  L  7469.47,   238.40  L  7469.06,   238.74  L  7469.45,   239.45  L  7469.45,   240.04  L  7469.82,   240.48  L  7470.40,   240.58  L  7470.90,   240.29  L  7471.10,   239.75  L  7470.90,   239.20  L  7470.40,   238.91  L  7469.82,   239.01  L  7470.25,   239.75  " /><path style="stroke-width: 0.85 ;&st7;  " d=" M  7443.56,   255.74  L  7443.29,   256.21  L  7443.19,   256.74  L  7443.29,   257.28  L  7443.56,   257.75  L  7443.97,   258.09  L  7444.48,   258.28  L  7445.02,   258.28  L  7445.53,   258.09  L  7445.95,   257.75  L  7446.22,   257.28  L  7446.31,   256.74  L  7446.22,   256.21  L  7445.95,   255.74  L  7445.53,   255.39  L  7445.02,   255.21  L  7444.48,   255.21  L  7443.97,   255.39  L  7443.56,   255.74  L  7443.95,   256.45  L  7443.95,   257.03  L  7444.33,   257.48  L  7444.90,   257.58  L  7445.40,   257.29  L  7445.60,   256.74  L  7445.40,   256.20  L  7444.90,   255.91  L  7444.33,   256.01  L  7444.75,   256.74  " /><path style="stroke-width: 0.85 ;&st7;  " d=" M  7521.24,   235.50  L  7521.24,   243.99  " /><path style="stroke-width: 0.28 ;&st9;  " d=" M  7521.24,   239.75  L  7512.74,   245.41  L  7512.74,   234.08  L  7521.24,   239.75  " /><text style="font-size:6px;font-family:'NSimSun';" transform="matrix(&st16;  7550.68  292.71 )">I/F</text><text style="font-size:6px;font-family:'NSimSun';" transform="matrix(&st16; 7663.08 347.95)" ewd:textID="57" ewd:horAlign="center">LED 驱动器</text><path style="stroke-width: 1.42 ;&st7;  " d=" M  7427.76,   265.24  L  7427.76,   282.24  L  7461.75,   282.24  L  7461.75,   265.24  L  7427.76,   265.24  " /><text style="font-size:6px;font-family:'NSimSun';" transform="matrix(&st16;  7436.91  275.71 )">5V IC</text><path style="stroke-width: 1.42 ;&st7;  " d=" M  7351.27,   248.24  L  7351.27,   265.24  L  7385.26,   265.24  L  7385.26,   248.24  L  7351.27,   248.24  " /><text style="font-size:6px;font-family:'NSimSun';" transform="matrix(&st16; 7359.48 258.71)" ewd:textID="16" ewd:horAlign="center">蜂鸣器</text><path style="stroke-width: 0.85 ;&st7;  " d=" M  7368.27,   316.23  L  7368.27,   299.24  " /><path style="stroke-width: 0.85 ;&st7;  " d=" M  7368.27,   282.24  L  7368.27,   265.24  " /><path style="stroke-width: 0.85 ;&st7;  " d=" M  7563.73,   358.73  L  7563.73,   341.73  " /><path style="stroke-width: 0.85 ;&st7;  " d=" M  7512.74,   358.73  L  7512.74,   341.73  " /><path style="stroke-width: 1.42 ;&st7;  " d=" M  7504.24,   358.73  L  7572.23,   358.73  L  7572.23,   375.72  L  7504.24,   375.72  L  7504.24,   358.73  " /><text style="font-size:6px;font-family:'NSimSun';" transform="matrix(&st16; 7523.38 369.19)" ewd:textID="69" ewd:horAlign="center">换档指示灯</text><text style="font-size:6px;font-family:'NSimSun';" transform="matrix(&st16; 7523.30 383.36)" ewd:textID="56" ewd:horAlign="center">LCD 显示屏</text><text style="font-size:6px;font-family:'NSimSun';" transform="matrix(&st16;  7602.93  441.71 )">11</text><text style="font-size:6px;font-family:'NSimSun';" transform="matrix(&st16;  7612.42  441.71 )">A</text><path style="stroke-width: 1.42 ;&st7;   " d=" M  7619.26,   439.75  C  7619.26    437.24   7617.23    435.21   7614.73    435.21  " /><path style="stroke-width: 1.42 ;&st7;   " d=" M  7614.73,   435.21  C  7612.22    435.21   7610.20    437.24   7610.20    439.75  " /><path style="stroke-width: 1.42 ;&st7;   " d=" M  7610.20,   439.75  C  7610.20    442.25   7612.22    444.28   7614.73    444.28  " /><path style="stroke-width: 1.42 ;&st7;   " d=" M  7614.73,   444.28  C  7617.23    444.28   7619.26    442.25   7619.26    439.75  " /><text style="font-size:6px;font-family:'NSimSun';" transform="matrix(&st16;  7432.96  441.71 )">31</text><path style="stroke-width: 1.42 ;&st7;   " d=" M  7449.29,   439.75  C  7449.29    437.24   7447.26    435.21   7444.76    435.21  " /><path style="stroke-width: 1.42 ;&st7;   " d=" M  7444.76,   435.21  C  7442.25    435.21   7440.22    437.24   7440.22    439.75  " /><path style="stroke-width: 1.42 ;&st7;   " d=" M  7440.22,   439.75  C  7440.22    442.25   7442.25    444.28   7444.76    444.28  " /><path style="stroke-width: 1.42 ;&st7;   " d=" M  7444.76,   444.28  C  7447.26    444.28   7449.29    442.25   7449.29    439.75  " /><text style="font-size:6px;font-family:'NSimSun';" transform="matrix(&st16;  7442.45  441.71 )">A</text><text style="font-size:6px;font-family:'NSimSun';" transform="matrix(&st16;  7364.97  441.71 )">32</text><path style="stroke-width: 1.42 ;&st7;   " d=" M  7381.30,   439.75  C  7381.30    437.24   7379.27    435.21   7376.77    435.21  " /><path style="stroke-width: 1.42 ;&st7;   " d=" M  7376.77,   435.21  C  7374.26    435.21   7372.23    437.24   7372.23    439.75  " /><path style="stroke-width: 1.42 ;&st7;   " d=" M  7372.23,   439.75  C  7372.23    442.25   7374.26    444.28   7376.77    444.28  " /><path style="stroke-width: 1.42 ;&st7;   " d=" M  7376.77,   444.28  C  7379.27    444.28   7381.30    442.25   7381.30    439.75  " /><text style="font-size:6px;font-family:'NSimSun';" transform="matrix(&st16;  7374.46  441.71 )">A</text><text style="font-size:6px;font-family:'NSimSun';" transform="matrix(&st16;  7407.46  211.69 )">40</text><text style="font-size:6px;font-family:'NSimSun';" transform="matrix(&st16;  7416.96  211.69 )">A</text><path style="stroke-width: 1.42 ;&st7;   " d=" M  7423.79,   209.72  C  7423.79    207.21   7421.76    205.18   7419.26    205.18  " /><path style="stroke-width: 1.42 ;&st7;   " d=" M  7419.26,   205.18  C  7416.76    205.18   7414.73    207.21   7414.73    209.72  " /><path style="stroke-width: 1.42 ;&st7;   " d=" M  7414.73,   209.72  C  7414.73    212.22   7416.76    214.25   7419.26    214.25  " /><path style="stroke-width: 1.42 ;&st7;   " d=" M  7419.26,   214.25  C  7421.76    214.25   7423.79    212.22   7423.79    209.72  " /><text style="font-size:6px;font-family:'NSimSun';" transform="matrix(&st16;  7458.46  211.69 )">39</text><path style="stroke-width: 1.42 ;&st7;   " d=" M  7474.78,   209.72  C  7474.78    207.21   7472.76    205.18   7470.25    205.18  " /><path style="stroke-width: 1.42 ;&st7;   " d=" M  7470.25,   205.18  C  7467.75    205.18   7465.72    207.21   7465.72    209.72  " /><path style="stroke-width: 1.42 ;&st7;   " d=" M  7465.72,   209.72  C  7465.72    212.22   7467.75    214.25   7470.25    214.25  " /><path style="stroke-width: 1.42 ;&st7;   " d=" M  7470.25,   214.25  C  7472.76    214.25   7474.78    212.22   7474.78    209.72  " /><text style="font-size:6px;font-family:'NSimSun';" transform="matrix(&st16;  7467.95  211.69 )">A</text><text style="font-size:6px;font-family:'NSimSun';" transform="matrix(&st16;  7475.45  441.71 )">21</text><text style="font-size:6px;font-family:'NSimSun';" transform="matrix(&st16;  7484.94  441.71 )">A</text><path style="stroke-width: 1.42 ;&st7;   " d=" M  7491.78,   439.75  C  7491.78    437.24   7489.75    435.21   7487.25    435.21  " /><path style="stroke-width: 1.42 ;&st7;   " d=" M  7487.25,   435.21  C  7484.75    435.21   7482.72    437.24   7482.72    439.75  " /><path style="stroke-width: 1.42 ;&st7;   " d=" M  7482.72,   439.75  C  7482.72    442.25   7484.75    444.28   7487.25    444.28  " /><path style="stroke-width: 1.42 ;&st7;   " d=" M  7487.25,   444.28  C  7489.75    444.28   7491.78    442.25   7491.78    439.75  " /><text style="font-size:6px;font-family:'NSimSun';" transform="matrix(&st16;  7827.0  441.71 )">6</text><text style="font-size:6px;font-family:'NSimSun';" transform="matrix(&st16;  7833.39  441.71 )">A</text><path style="stroke-width: 1.42 ;&st7;   " d=" M  7840.22,   439.75  C  7840.22    437.24   7838.19    435.21   7835.69    435.21  " /><path style="stroke-width: 1.42 ;&st7;   " d=" M  7835.69,   435.21  C  7833.19    435.21   7831.16    437.24   7831.16    439.75  " /><path style="stroke-width: 1.42 ;&st7;   " d=" M  7831.16,   439.75  C  7831.16    442.25   7833.19    444.28   7835.69    444.28  " /><path style="stroke-width: 1.42 ;&st7;   " d=" M  7835.69,   444.28  C  7838.19    444.28   7840.22    442.25   7840.22    439.75  " /><text style="font-size:6px;font-family:'NSimSun';" transform="matrix(&st16;  7911.98  441.71 )">5</text><path style="stroke-width: 1.42 ;&st7;   " d=" M  7925.21,   439.75  C  7925.21    437.24   7923.18    435.21   7920.68    435.21  " /><path style="stroke-width: 1.42 ;&st7;   " d=" M  7920.68,   435.21  C  7918.17    435.21   7916.14    437.24   7916.14    439.75  " /><path style="stroke-width: 1.42 ;&st7;   " d=" M  7916.14,   439.75  C  7916.14    442.25   7918.17    444.28   7920.68    444.28  " /><path style="stroke-width: 1.42 ;&st7;   " d=" M  7920.68,   444.28  C  7923.18    444.28   7925.21    442.25   7925.21    439.75  " /><text style="font-size:6px;font-family:'NSimSun';" transform="matrix(&st16;  7918.37  441.71 )">A</text><g ewd:figtype="title"><text style="font-size:6px;font-family:'NSimSun';" transform="matrix(&st16;  7534.83  210.55 )" ewd:textID="24">组合仪表总成</text><text style="font-size:6px;font-family:'NSimSun';" transform="matrix(&st16;  7534.83  203.45 )">E55(A)</text></g></g><g ewd:figtype="jb" ewd:figID="98" ewd:code="3"><path style="stroke-width: 0.85 ;&st7;  " d=" M  7470.25,    69.77  L  7470.25,    95.27  " /><path style="stroke-width: 1.42 ;&st7;  " d=" M  7472.38,    95.27  L  7468.13,    95.27  " /><path style="stroke-width: 1.42 ;&st7;  " d=" M  7472.38,   103.77  L  7468.13,   103.77  " /><path style="stroke-width: 1.42 ;&st7;   " d=" M  7470.25,    47.11  C  7467.51     48.72   7466.60     52.25   7468.21     54.99  " /><path style="stroke-width: 1.42 ;&st7;   " d=" M  7468.21,    54.99  C  7468.73     55.87   7469.37     56.51   7470.25     57.03  " /><path style="stroke-width: 1.42 ;&st7;   " d=" M  7470.25,    66.94  C  7472.99     65.33   7473.90     61.80   7472.29     59.06  " /><path style="stroke-width: 1.42 ;&st7;   " d=" M  7472.29,    59.06  C  7471.77     58.18   7471.13     57.55   7470.25     57.03  " /><path style="stroke-width: 0.85 ;&st7;   " d=" M  7471.67,    45.69  C  7471.67     44.91   7471.03     44.28   7470.25     44.28  " /><path style="stroke-width: 0.85 ;&st7;   " d=" M  7470.25,    44.28  C  7469.47     44.28   7468.84     44.91   7468.84     45.69  " /><path style="stroke-width: 0.85 ;&st7;   " d=" M  7468.84,    45.69  C  7468.84     46.48   7469.47     47.11   7470.25     47.11  " /><path style="stroke-width: 0.85 ;&st7;   " d=" M  7470.25,    47.11  C  7471.03     47.11   7471.67     46.48   7471.67     45.69  " /><path style="stroke-width: 0.85 ;&st7;   " d=" M  7471.67,    68.36  C  7471.67     67.57   7471.03     66.94   7470.25     66.94  " /><path style="stroke-width: 0.85 ;&st7;   " d=" M  7470.25,    66.94  C  7469.47     66.94   7468.84     67.57   7468.84     68.36  " /><path style="stroke-width: 0.85 ;&st7;   " d=" M  7468.84,    68.36  C  7468.84     69.14   7469.47     69.77   7470.25     69.77  " /><path style="stroke-width: 0.85 ;&st7;   " d=" M  7470.25,    69.77  C  7471.03     69.77   7471.67     69.14   7471.67     68.36  " /><path style="stroke-width: 1.42 ;&st7;   " d=" M  7468.13,    95.27  C  7465.78     95.27   7463.88     97.17   7463.88     99.52  " /><path style="stroke-width: 1.42 ;&st7;   " d=" M  7472.38,   103.77  C  7474.72    103.77   7476.63    101.87   7476.63     99.52  " /><path style="stroke-width: 1.42 ;&st7;   " d=" M  7463.88,    99.52  C  7463.88    101.87   7465.78    103.77   7468.13    103.77  " /><path style="stroke-width: 1.42 ;&st7;   " d=" M  7476.63,    99.52  C  7476.63     97.17   7474.72     95.27   7472.38     95.27  " /><path style="stroke-width: 0.28 ;&st9;  " d=" M  7470.25,    90.37  L  7467.42,    87.54  L  7467.42,    91.79  L  7470.25,    94.62  L  7473.08,    91.79  L  7473.08,    87.54  L  7470.25,    90.37  " /><path style="stroke-width: 1.42 ;&st7;  " d=" M  7457.50,    35.78  L  7457.50,    78.27  L  7483.00,    78.27  L  7483.00,    35.78  L  7457.50,    35.78  " /><text style="font-size:6px;font-family:'NSimSun';" transform="matrix(&st16;  7466.28  101.49 )">3C</text><text style="font-size:6px;font-family:'NSimSun';" transform="matrix(&st16;  7456.64  101.49 )">55</text><text style="font-size:6px;font-family:'NSimSun';" transform="matrix(&st16;  7465.04  32.08 )">(IG)</text><text style="font-size:6px;font-family:'NSimSun';" transform="matrix(&st16;  7486.68  56.17 )">5A <tspan x="0 " dy="6.0">MET</tspan></text><text style="font-size:6px;font-family:'NSimSun';" transform="matrix(&st16;  7464.07  86.47 )">2</text></g><g ewd:figtype="jb" ewd:figID="99" ewd:code="3"><path style="stroke-width: 1.42 ;&st7;  " d=" M  7387.39,   180.26  L  7383.14,   180.26  " /><path style="stroke-width: 1.42 ;&st7;  " d=" M  7387.39,   171.76  L  7383.14,   171.76  " /><path style="stroke-width: 1.42 ;&st7;  " d=" M  7387.39,   146.26  L  7383.14,   146.26  " /><path style="stroke-width: 1.42 ;&st7;  " d=" M  7387.39,   137.76  L  7383.14,   137.76  " /><path style="stroke-width: 1.42 ;&st7;   " d=" M  7391.64,   176.01  C  7391.64    173.66   7389.74    171.76   7387.39    171.76  " /><path style="stroke-width: 1.42 ;&st7;   " d=" M  7387.39,   180.26  C  7389.74    180.26   7391.64    178.35   7391.64    176.01  " /><path style="stroke-width: 1.42 ;&st7;   " d=" M  7378.89,   176.01  C  7378.89    178.35   7380.79    180.26   7383.14    180.26  " /><path style="stroke-width: 1.42 ;&st7;   " d=" M  7383.14,   171.76  C  7380.79    171.76   7378.89    173.66   7378.89    176.01  " /><path style="stroke-width: 1.42 ;&st7;   " d=" M  7391.64,   142.01  C  7391.64    139.66   7389.74    137.76   7387.39    137.76  " /><path style="stroke-width: 1.42 ;&st7;   " d=" M  7387.39,   146.26  C  7389.74    146.26   7391.64    144.36   7391.64    142.01  " /><path style="stroke-width: 1.42 ;&st7;   " d=" M  7378.89,   142.01  C  7378.89    144.36   7380.79    146.26   7383.14    146.26  " /><path style="stroke-width: 1.42 ;&st7;   " d=" M  7383.14,   137.76  C  7380.79    137.76   7378.89    139.66   7378.89    142.01  " /><path style="stroke-width: 0.28 ;&st9;  " d=" M  7385.26,   166.86  L  7382.43,   164.03  L  7382.43,   168.28  L  7385.26,   171.11  L  7388.10,   168.28  L  7388.10,   164.03  L  7385.26,   166.86  " /><path style="stroke-width: 0.28 ;&st9;  " d=" M  7385.26,   151.16  L  7388.10,   153.99  L  7388.10,   149.74  L  7385.26,   146.91  L  7382.43,   149.74  L  7382.43,   153.99  L  7385.26,   151.16  " /><path style="stroke-width: 0.85 ;&st7;  " d=" M  7385.26,   171.76  L  7385.26,   146.26  " /><text style="font-size:6px;font-family:'NSimSun';" transform="matrix(&st16;  7371.66  177.98 )">44</text><text style="font-size:6px;font-family:'NSimSun';" transform="matrix(&st16;  7381.41  177.98 )">3A</text><text style="font-size:6px;font-family:'NSimSun';" transform="matrix(&st16;  7371.66  143.98 )">34</text><text style="font-size:6px;font-family:'NSimSun';" transform="matrix(&st16;  7381.33  143.98 )">3D</text></g><g ewd:figtype="gp" ewd:figID="147" ewd:code="ED"><path style="stroke-width: 0.85 ;&st7;  " d=" M  7483.00,   704.33  L  7491.50,   704.33  " /><path style="stroke-width: 0.85 ;&st7;  " d=" M  7485.83,   710.00  L  7488.66,   710.00  " /><path style="stroke-width: 0.85 ;&st7;  " d=" M  7484.41,   707.17  L  7490.08,   707.17  " /><path style="stroke-width: 0.85 ;&st7;  " d=" M  7478.75,   701.50  L  7495.74,   701.50  " /><path style="stroke-width: 0.85 ;&st7;  " d=" M  7487.25,   697.25  L  7487.25,   701.50  " /></g></svg>