<?xml version="1.0" encoding="utf-8"?>
<!DOCTYPE svg PUBLIC "-//W3C//DTD SVG 1.0//EN" "http://www.w3.org/TR/2001/REC-SVG-20010904/DTD/svg10.dtd"[
	<!ENTITY ns_flows "http://ns.adobe.com/Flows/1.0/">
	<!ENTITY ns_svg "http://www.w3.org/2000/svg">
	<!ENTITY ns_xlink "http://www.w3.org/1999/xlink">
	<!ENTITY st0 "font-size:7px;font-family:'NSimSun';adobe-font-script:japanese;">
	<!ENTITY st1 "font-size:6px;font-family:'NSimSun';">
	<!-- White fill  -->
	<!ENTITY st2 "fill:#FFFFFF;stroke:#000000; stroke-width:1.41;stroke-linecap:round;stroke-linejoin:round;">
	<!-- Yellow fill  -->
	<!ENTITY st3 "fill:#FFFFCC;stroke:#FFFFCC; stroke-width:0.1;stroke-linecap:round;stroke-linejoin:round;">
	<!-- Gray fill  -->
	<!ENTITY st4 "fill:#CCCCCC;stroke:#CCCCCC; stroke-width:0.1;stroke-linecap:round;stroke-linejoin:round;">
	<!-- Light-blue fill -->
	<!ENTITY st5 "fill:#CCECF4;stroke:#000000; stroke-width:1.133;stroke-linecap:round;stroke-linejoin:round;">
	<!ENTITY st6 "fill:none;stroke-linecap:butt; stroke-linejoin:round;">
	<!ENTITY st7 "fill:none;stroke:#000000;stroke-linecap:round;stroke-linejoin:round;">
	<!ENTITY st8 "enable-background:new    ;">
	<!-- Black fill -->
	<!ENTITY st9 "fill:#000000;stroke:#000000; stroke-linecap:round;stroke-linejoin:round;">
	<!-- SRS note   -->
	<!ENTITY st10 "font-size:9px;font-family:'NSimSun';">
	<!ENTITY st11 "font-size:9px;font-family:'NSimSun';">
	<!ENTITY st12 "font-size:6px;font-family:'NSimSun';">
	<!ENTITY st13 "fill:none;stroke:#ff0000;stroke-linecap:round;stroke-linejoin:round;">
	<!-- Yellow fill  -->
	<!ENTITY st14 "fill:#FFFF00;stroke:#FFFF00; stroke-width:0.1;stroke-linecap:round;stroke-linejoin:round;">
	<!ENTITY st15 "font-size:6px;font-family:'NSimSun';adobe-font-script:japanese;">
	<!ENTITY st16 "1.00 0.00 0.00 1.00">
	<!ENTITY st17 "0.00 -1.00 1.00 0.00">
	<!ENTITY st18 "font-size:6px;font-family:'NSimSun';">
	<!ENTITY st19 "font-size:9px;font-family:'NSimSun';">
	<!ENTITY st20 "font-size:6px;font-family:'NSimSun';adobe-font-script:japanese;">
	<!ENTITY st21 "font-size:7px;font-family:'NSimSun';adobe-font-script:japanese;">
	<!ATTLIST svg
		xmlns:ewd CDATA #FIXED "http://shcl.co.jp/ewd"
		xmlns:a CDATA #FIXED "http://ns.adobe.com/AdobeSVGViewerExtensions/3.0/"
		ewd:ver CDATA #IMPLIED
	>
	<!ATTLIST a
		ewd:lineID CDATA #IMPLIED
		ewd:groupID CDATA #IMPLIED
		ewd:figtype CDATA #IMPLIED
		ewd:code CDATA #IMPLIED
		ewd:figID CDATA #IMPLIED
		ewd:pinNo CDATA #IMPLIED
		ewd:comment CDATA #IMPLIED >
	<!ATTLIST g
		ewd:lineID CDATA #IMPLIED
		ewd:groupID CDATA #IMPLIED
		ewd:figtype CDATA #IMPLIED
		ewd:code CDATA #IMPLIED
		ewd:figID CDATA #IMPLIED
		ewd:pinNo CDATA #IMPLIED
		ewd:comment CDATA #IMPLIED >
	<!ATTLIST text
		ewd:textID CDATA #IMPLIED
		ewd:horAlign CDATA #IMPLIED >
	<!ATTLIST title
		ewd:textID CDATA #IMPLIED >
]>
<!-- Generator: Shintec Hozumi YS   -->
<svg onload="call_execInitLoadProc_svg('system')" style="overflow:visible;  enable-background:new 0 0 9651.725 710.000" viewBox="0 0 9611.904 710.000" height="710.000" width="9611.904" xml:space="preserve" ewd:ver="2.1.2.6F" xmlns="&ns_svg;" xmlns:ewd="http://shcl.co.jp/ewd" xmlns:a="http://ns.adobe.com/AdobeSVGViewerExtensions/3.0/" xmlns:xlink="&ns_xlink;">
<path style="stroke-width: 1.42 ;&st7;  " d=" M  5877.49,   137.76  L  5872.52,   142.73  " /><path style="stroke-width: 1.42 ;&st7;  " d=" M  5884.54,   154.76  L  5889.52,   149.79  " /><path style="stroke-width: 1.42 ;&st7;  " d=" M  5872.52,   149.79  L  5877.49,   154.76  " /><path style="stroke-width: 1.42 ;&st7;  " d=" M  5889.52,   142.73  L  5884.54,   137.76  " /><path style="stroke-width: 1.42 ;&st7;  " d=" M  5906.51,   452.21  L  5898.01,   452.21  " /><path style="stroke-width: 1.42 ;&st7;  " d=" M  5541.07,   202.22  L  5536.10,   197.25  " /><path style="stroke-width: 1.42 ;&st7;  " d=" M  5524.08,   209.28  L  5529.05,   214.25  " /><path style="stroke-width: 1.42 ;&st7;  " d=" M  5536.10,   214.25  L  5541.07,   209.28  " /><path style="stroke-width: 1.42 ;&st7;  " d=" M  5529.05,   197.25  L  5524.08,   202.22  " /><path style="stroke-width: 1.42 ;&st7;  " d=" M  5779.03,   222.75  L  5787.53,   222.75  " /><text style="font-size:6px;font-family:'NSimSun';" transform="matrix(&st17;  5888.65  176.47 )">(*2)</text><text style="font-size:6px;font-family:'NSimSun';" transform="matrix(&st16;  5920.1  338.03 )">ECM</text><path style="stroke-width: 1.42 ;&st7;  " d=" M  5974.50,   452.21  L  5966.00,   452.21  " /><text style="font-size:6px;font-family:'NSimSun';" transform="matrix(&st17;  5894.32  490.03 )">GR</text><text style="font-size:6px;font-family:'NSimSun';" transform="matrix(&st17;  5905.65  490.92 )">(*3)</text><text style="font-size:6px;font-family:'NSimSun';" transform="matrix(&st17;  5894.32  585.64 )">W-B</text><text style="font-size:6px;font-family:'NSimSun';" transform="matrix(&st17;  5905.65  584.4 )">(*3)</text><text style="font-size:6px;font-family:'NSimSun';" transform="matrix(&st17;  5894.32  653.63 )">W-B</text><text style="font-size:6px;font-family:'NSimSun';" transform="matrix(&st17;  5905.65  652.39 )">(*3)</text><text style="font-size:6px;font-family:'NSimSun';" transform="matrix(&st17;  5905.65  405.93 )">(*3)</text><text style="font-size:6px;font-family:'NSimSun';" transform="matrix(&st17;  5973.64  490.92 )">(*1)</text><text style="font-size:6px;font-family:'NSimSun';" transform="matrix(&st17;  5894.32  405.04 )">GR</text><text style="font-size:6px;font-family:'NSimSun';" transform="matrix(&st17;  5973.64  405.93 )">(*1)</text><text style="font-size:6px;font-family:'NSimSun';" transform="matrix(&st17;  5962.31  489.75 )">BR</text><text style="font-size:6px;font-family:'NSimSun';" transform="matrix(&st17;  5962.31  404.77 )">BR</text><text style="font-size:6px;font-family:'NSimSun';" transform="matrix(&st17;  5877.32  173.45 )">B</text><text style="font-size:6px;font-family:'NSimSun';" transform="matrix(&st16;  5671.84  289.87 )">(*2)</text><text style="font-size:6px;font-family:'NSimSun';" transform="matrix(&st16;  5672.73  278.54 )">GR</text><text style="font-size:6px;font-family:'NSimSun';" transform="matrix(&st17;  5540.21  180.72 )">(*3)</text><text style="font-size:6px;font-family:'NSimSun';" transform="matrix(&st17;  5540.21  240.21 )">(*3)</text><text style="font-size:6px;font-family:'NSimSun';" transform="matrix(&st17;  5591.2  240.21 )">(*3)</text><text style="font-size:6px;font-family:'NSimSun';" transform="matrix(&st17;  5642.19  240.21 )">(*3)</text><text style="font-size:6px;font-family:'NSimSun';" transform="matrix(&st17;  5888.65  125.48 )">(*2)</text><text style="font-size:6px;font-family:'NSimSun';" transform="matrix(&st17;  5877.32  122.45 )">B</text><text style="font-size:6px;font-family:'NSimSun';" transform="matrix(&st17;  5837.66  231.71 )">(*2)</text><text style="font-size:6px;font-family:'NSimSun';" transform="matrix(&st17;  5826.33  230.82 )">GR</text><text style="font-size:6px;font-family:'NSimSun';" transform="matrix(&st17;  5996.3  404.46 )">SB</text><text style="font-size:6px;font-family:'NSimSun';" transform="matrix(&st17;  5528.88  177.58 )">L</text><text style="font-size:6px;font-family:'NSimSun';" transform="matrix(&st16;  5920.1  330.93 )">A40(A),B39(B)</text><text style="font-size:6px;font-family:'NSimSun';" transform="matrix(&st17;  5622.36  403.68 )">W</text><text style="font-size:6px;font-family:'NSimSun';" transform="matrix(&st17;  5588.37  402.91 )">B</text><text style="font-size:6px;font-family:'NSimSun';" transform="matrix(&st17;  5554.38  402.71 )">P</text><text style="font-size:6px;font-family:'NSimSun';" transform="matrix(&st17;  5630.86  239.32 )">GR</text><text style="font-size:6px;font-family:'NSimSun';" transform="matrix(&st17;  5579.87  237.18 )">B</text><text style="font-size:6px;font-family:'NSimSun';" transform="matrix(&st17;  5528.88  237.07 )">L</text><text style="font-size:6px;font-family:'NSimSun';" transform="matrix(&st16;  5723.72  278.54 )">GR</text><text style="font-size:6px;font-family:'NSimSun';" transform="matrix(&st16;  5722.83  289.87 )">(*2)</text><text style="font-size:6px;font-family:'NSimSun';" transform="matrix(&st17;  5795.17  257.21 )">(*2)</text><text style="font-size:6px;font-family:'NSimSun';" transform="matrix(&st17;  5783.84  256.31 )">GR</text><g ewd:figtype="conn" ewd:figID="29" ewd:code="A40,B39"><g ewd:lineID="190"><text style="font-size:6px;font-family:'NSimSun';" transform="matrix(&st16;  5520.81  305.17 )">64</text><path style="stroke-width: 1.42 ;&st7;   " d=" M  5537.11,   303.20  C  5537.11    300.70   5535.08    298.67   5532.58    298.67  " /><path style="stroke-width: 1.42 ;&st7;   " d=" M  5532.58,   298.67  C  5530.07    298.67   5528.04    300.70   5528.04    303.20  " /><path style="stroke-width: 1.42 ;&st7;   " d=" M  5528.04,   303.20  C  5528.04    305.70   5530.07    307.73   5532.58    307.73  " /><path style="stroke-width: 1.42 ;&st7;   " d=" M  5532.58,   307.73  C  5535.08    307.73   5537.11    305.70   5537.11    303.20  " /><text style="font-size:6px;font-family:'NSimSun';" transform="matrix(&st16;  5530.39  305.17 )">B</text><text style="font-size:6px;font-family:'NSimSun';" transform="matrix(&st16;  5530.46  315.37 )">R</text></g><g ewd:lineID="192"><text style="font-size:6px;font-family:'NSimSun';" transform="matrix(&st16;  5546.3  365.23 )">80</text><text style="font-size:6px;font-family:'NSimSun';" transform="matrix(&st16;  5555.88  365.23 )">B</text><path style="stroke-width: 1.42 ;&st7;   " d=" M  5562.60,   363.26  C  5562.60    360.75   5560.57    358.73   5558.07    358.73  " /><path style="stroke-width: 1.42 ;&st7;   " d=" M  5558.07,   358.73  C  5555.57    358.73   5553.54    360.75   5553.54    363.26  " /><path style="stroke-width: 1.42 ;&st7;   " d=" M  5553.54,   363.26  C  5553.54    365.76   5555.57    367.79   5558.07    367.79  " /><path style="stroke-width: 1.42 ;&st7;   " d=" M  5558.07,   367.79  C  5560.57    367.79   5562.60    365.76   5562.60    363.26  " /><text style="font-size:6px;font-family:'NSimSun';" transform="matrix(&st16;  5550.8  355.03 )">EV1+</text></g><g ewd:lineID="193"><text style="font-size:6px;font-family:'NSimSun';" transform="matrix(&st16;  5571.8  305.17 )">69</text><text style="font-size:6px;font-family:'NSimSun';" transform="matrix(&st16;  5581.38  305.17 )">B</text><path style="stroke-width: 1.42 ;&st7;   " d=" M  5588.10,   303.20  C  5588.10    300.70   5586.07    298.67   5583.57    298.67  " /><path style="stroke-width: 1.42 ;&st7;   " d=" M  5583.57,   298.67  C  5581.06    298.67   5579.03    300.70   5579.03    303.20  " /><path style="stroke-width: 1.42 ;&st7;   " d=" M  5579.03,   303.20  C  5579.03    305.70   5581.06    307.73   5583.57    307.73  " /><path style="stroke-width: 1.42 ;&st7;   " d=" M  5583.57,   307.73  C  5586.07    307.73   5588.10    305.70   5588.10    303.20  " /><text style="font-size:6px;font-family:'NSimSun';" transform="matrix(&st16;  5581.26  315.37 )">N</text></g><g ewd:lineID="194"><text style="font-size:6px;font-family:'NSimSun';" transform="matrix(&st16;  5577.2  365.23 )">112</text><path style="stroke-width: 1.42 ;&st7;   " d=" M  5596.60,   363.26  C  5596.60    360.75   5594.57    358.73   5592.07    358.73  " /><path style="stroke-width: 1.42 ;&st7;   " d=" M  5592.07,   358.73  C  5589.56    358.73   5587.53    360.75   5587.53    363.26  " /><path style="stroke-width: 1.42 ;&st7;   " d=" M  5587.53,   363.26  C  5587.53    365.76   5589.56    367.79   5592.07    367.79  " /><path style="stroke-width: 1.42 ;&st7;   " d=" M  5592.07,   367.79  C  5594.57    367.79   5596.60    365.76   5596.60    363.26  " /><text style="font-size:6px;font-family:'NSimSun';" transform="matrix(&st16;  5589.88  365.23 )">B</text><text style="font-size:6px;font-family:'NSimSun';" transform="matrix(&st16;  5584.8  355.03 )">EV1-</text></g><g ewd:lineID="195"><text style="font-size:6px;font-family:'NSimSun';" transform="matrix(&st16;  5611.19  365.23 )">111</text><path style="stroke-width: 1.42 ;&st7;   " d=" M  5630.59,   363.26  C  5630.59    360.75   5628.56    358.73   5626.06    358.73  " /><path style="stroke-width: 1.42 ;&st7;   " d=" M  5626.06,   358.73  C  5623.56    358.73   5621.53    360.75   5621.53    363.26  " /><path style="stroke-width: 1.42 ;&st7;   " d=" M  5621.53,   363.26  C  5621.53    365.76   5623.56    367.79   5626.06    367.79  " /><path style="stroke-width: 1.42 ;&st7;   " d=" M  5626.06,   367.79  C  5628.56    367.79   5630.59    365.76   5630.59    363.26  " /><text style="font-size:6px;font-family:'NSimSun';" transform="matrix(&st16;  5623.87  365.23 )">B</text><text style="font-size:6px;font-family:'NSimSun';" transform="matrix(&st16;  5618.17  355.03 )">VCE1</text></g><g ewd:lineID="196,197"><text style="font-size:6px;font-family:'NSimSun';" transform="matrix(&st16;  5622.79  305.17 )">65</text><text style="font-size:6px;font-family:'NSimSun';" transform="matrix(&st16;  5632.37  305.17 )">B</text><path style="stroke-width: 1.42 ;&st7;   " d=" M  5639.09,   303.20  C  5639.09    300.70   5637.06    298.67   5634.56    298.67  " /><path style="stroke-width: 1.42 ;&st7;   " d=" M  5634.56,   298.67  C  5632.06    298.67   5630.03    300.70   5630.03    303.20  " /><path style="stroke-width: 1.42 ;&st7;   " d=" M  5630.03,   303.20  C  5630.03    305.70   5632.06    307.73   5634.56    307.73  " /><path style="stroke-width: 1.42 ;&st7;   " d=" M  5634.56,   307.73  C  5637.06    307.73   5639.09    305.70   5639.09    303.20  " /><text style="font-size:6px;font-family:'NSimSun';" transform="matrix(&st16;  5632.18  315.37 )">D</text></g><g ewd:lineID="204"><text style="font-size:6px;font-family:'NSimSun';" transform="matrix(&st16;  5886.25  365.23 )">57</text><text style="font-size:6px;font-family:'NSimSun';" transform="matrix(&st16;  5895.71  365.23 )">A</text><path style="stroke-width: 1.42 ;&st7;   " d=" M  5902.55,   363.26  C  5902.55    360.75   5900.52    358.73   5898.01    358.73  " /><path style="stroke-width: 1.42 ;&st7;   " d=" M  5898.01,   358.73  C  5895.51    358.73   5893.48    360.75   5893.48    363.26  " /><path style="stroke-width: 1.42 ;&st7;   " d=" M  5893.48,   363.26  C  5893.48    365.76   5895.51    367.79   5898.01    367.79  " /><path style="stroke-width: 1.42 ;&st7;   " d=" M  5898.01,   367.79  C  5900.52    367.79   5902.55    365.76   5902.55    363.26  " /><text style="font-size:6px;font-family:'NSimSun';" transform="matrix(&st16;  5889.27  355.03 )">PWMS</text></g><g ewd:lineID="206"><text style="font-size:6px;font-family:'NSimSun';" transform="matrix(&st16;  5954.24  365.23 )">35</text><text style="font-size:6px;font-family:'NSimSun';" transform="matrix(&st16;  5963.7  365.23 )">A</text><path style="stroke-width: 1.42 ;&st7;   " d=" M  5970.54,   363.26  C  5970.54    360.75   5968.51    358.73   5966.00    358.73  " /><path style="stroke-width: 1.42 ;&st7;   " d=" M  5966.00,   358.73  C  5963.50    358.73   5961.47    360.75   5961.47    363.26  " /><path style="stroke-width: 1.42 ;&st7;   " d=" M  5961.47,   363.26  C  5961.47    365.76   5963.50    367.79   5966.00    367.79  " /><path style="stroke-width: 1.42 ;&st7;   " d=" M  5966.00,   367.79  C  5968.51    367.79   5970.54    365.76   5970.54    363.26  " /><text style="font-size:6px;font-family:'NSimSun';" transform="matrix(&st16;  5958.0  355.03 )">ECCS</text></g><g ewd:lineID="207"><text style="font-size:6px;font-family:'NSimSun';" transform="matrix(&st16;  5988.23  365.23 )">36</text><path style="stroke-width: 1.42 ;&st7;   " d=" M  5995.46,   363.26  C  5995.46    365.76   5997.49    367.79   6000.00    367.79  " /><text style="font-size:6px;font-family:'NSimSun';" transform="matrix(&st16;  5997.69  365.23 )">A</text><text style="font-size:6px;font-family:'NSimSun';" transform="matrix(&st16;  5993.85  355.03 )">CCS</text></g></g><g ewd:figtype="conn" ewd:figID="59" ewd:code="B23"><path style="stroke-width: 1.42 ;&st7;  " d=" M  5541.07,   452.21  L  5541.07,   486.20  L  5643.05,   486.20  L  5643.05,   452.21  L  5541.07,   452.21  " /><g ewd:lineID="192"><text style="font-size:6px;font-family:'NSimSun';" transform="matrix(&st16;  5551.89  448.52 )">1</text><text style="font-size:6px;font-family:'NSimSun';" transform="matrix(&st16;  5550.3  459.84 )">VVE+</text></g><g ewd:lineID="194"><text style="font-size:6px;font-family:'NSimSun';" transform="matrix(&st16;  5585.88  448.52 )">2</text><text style="font-size:6px;font-family:'NSimSun';" transform="matrix(&st16;  5584.29  459.84 )">VVE-</text></g><g ewd:lineID="195"><text style="font-size:6px;font-family:'NSimSun';" transform="matrix(&st16;  5619.88  448.52 )">3</text><text style="font-size:6px;font-family:'NSimSun';" transform="matrix(&st16;  5620.03  459.84 )">VC2</text></g><g ewd:figtype="title"><text style="font-size:6px;font-family:'NSimSun';" transform="matrix(&st16;  5537.66  493.81 )">B23</text><text style="font-size:6px;font-family:'NSimSun';" transform="matrix(&st16;  5537.67  500.92 )" ewd:textID="79">VVT 传感器（排气侧）</text></g></g><g ewd:figtype="rb" ewd:figID="61" ewd:code="FUSE7"><path style="stroke-width: 0.28 ;&st9;  " d=" M  5881.01,    90.37  L  5878.18,    87.54  L  5878.18,    91.79  L  5881.01,    94.62  L  5883.85,    91.79  L  5883.85,    87.54  L  5881.01,    90.37  " /><path style="stroke-width: 1.42 ;&st7;  " d=" M  5883.14,   103.77  L  5878.89,   103.77  " /><path style="stroke-width: 0.85 ;&st7;  " d=" M  5881.02,    69.77  L  5881.02,    95.27  " /><path style="stroke-width: 1.42 ;&st7;  " d=" M  5883.14,    95.27  L  5878.89,    95.27  " /><path style="stroke-width: 1.42 ;&st7;   " d=" M  5887.39,    99.52  C  5887.39     97.17   5885.49     95.27   5883.14     95.27  " /><path style="stroke-width: 1.42 ;&st7;   " d=" M  5883.14,   103.77  C  5885.49    103.77   5887.39    101.87   5887.39     99.52  " /><path style="stroke-width: 1.42 ;&st7;   " d=" M  5874.64,    99.52  C  5874.64    101.87   5876.55    103.77   5878.89    103.77  " /><path style="stroke-width: 1.42 ;&st7;   " d=" M  5878.89,    95.27  C  5876.55     95.27   5874.64     97.17   5874.64     99.52  " /><text style="font-size:6px;font-family:'NSimSun';" transform="matrix(&st16;  5874.83  86.47 )">2</text><text style="font-size:6px;font-family:'NSimSun';" transform="matrix(&st16;  5872.97  32.08 )">(BAT)</text><text style="font-size:6px;font-family:'NSimSun';" transform="matrix(&st16;  5879.22  101.49 )">1</text><text style="font-size:6px;font-family:'NSimSun';" transform="matrix(&st16;  5897.44  53.34 )">10A <tspan x="0 " dy="6.0">EFI </tspan><tspan x="0 " dy="6.0">NO.1</tspan></text><path style="stroke-width: 1.42 ;&st7;  " d=" M  5868.27,    35.78  L  5868.27,    78.27  L  5893.76,    78.27  L  5893.76,    35.78  L  5868.27,    35.78  " /><path style="stroke-width: 1.42 ;&st7;   " d=" M  5881.02,    47.11  C  5878.28     48.72   5877.37     52.25   5878.98     54.99  " /><path style="stroke-width: 1.42 ;&st7;   " d=" M  5878.98,    54.99  C  5879.50     55.87   5880.14     56.51   5881.02     57.03  " /><path style="stroke-width: 0.85 ;&st7;   " d=" M  5882.43,    45.69  C  5882.43     44.91   5881.80     44.28   5881.02     44.28  " /><path style="stroke-width: 0.85 ;&st7;   " d=" M  5881.02,    44.28  C  5880.24     44.28   5879.60     44.91   5879.60     45.69  " /><path style="stroke-width: 0.85 ;&st7;   " d=" M  5879.60,    45.69  C  5879.60     46.48   5880.24     47.11   5881.02     47.11  " /><path style="stroke-width: 0.85 ;&st7;   " d=" M  5881.02,    47.11  C  5881.80     47.11   5882.43     46.48   5882.43     45.69  " /><path style="stroke-width: 0.85 ;&st7;   " d=" M  5882.43,    68.36  C  5882.43     67.57   5881.80     66.94   5881.02     66.94  " /><path style="stroke-width: 0.85 ;&st7;   " d=" M  5881.02,    66.94  C  5880.24     66.94   5879.60     67.57   5879.60     68.36  " /><path style="stroke-width: 0.85 ;&st7;   " d=" M  5879.60,    68.36  C  5879.60     69.14   5880.24     69.77   5881.02     69.77  " /><path style="stroke-width: 0.85 ;&st7;   " d=" M  5881.02,    69.77  C  5881.80     69.77   5882.43     69.14   5882.43     68.36  " /><path style="stroke-width: 1.42 ;&st7;   " d=" M  5881.02,    66.94  C  5883.76     65.33   5884.67     61.80   5883.05     59.06  " /><path style="stroke-width: 1.42 ;&st7;   " d=" M  5883.05,    59.06  C  5882.53     58.18   5881.90     57.55   5881.02     57.03  " /></g><g ewd:figtype="conn" ewd:figID="63" ewd:code="A4"><path style="stroke-width: 0.85 ;&st7;  " d=" M  5881.02,   201.50  L  5881.02,   197.25  " /><path style="stroke-width: 0.85 ;&st7;  " d=" M  5881.02,   231.25  L  5881.02,   227.00  " /><path style="stroke-width: 1.42 ;&st7;  " d=" M  5881.02,   224.16  L  5886.68,   201.50  " /><path style="stroke-width: 0.85 ;&st7;   " d=" M  5882.43,   202.92  C  5882.43    202.14   5881.80    201.50   5881.02    201.50  " /><path style="stroke-width: 0.85 ;&st7;   " d=" M  5881.02,   201.50  C  5880.24    201.50   5879.60    202.14   5879.60    202.92  " /><path style="stroke-width: 0.85 ;&st7;   " d=" M  5879.60,   202.92  C  5879.60    203.70   5880.24    204.33   5881.02    204.33  " /><path style="stroke-width: 0.85 ;&st7;   " d=" M  5881.02,   204.33  C  5881.80    204.33   5882.43    203.70   5882.43    202.92  " /><path style="stroke-width: 0.85 ;&st7;   " d=" M  5882.43,   225.58  C  5882.43    224.80   5881.80    224.16   5881.02    224.16  " /><path style="stroke-width: 0.85 ;&st7;   " d=" M  5881.02,   224.16  C  5880.24    224.16   5879.60    224.80   5879.60    225.58  " /><path style="stroke-width: 0.85 ;&st7;   " d=" M  5879.60,   225.58  C  5879.60    226.36   5880.24    227.00   5881.02    227.00  " /><path style="stroke-width: 0.85 ;&st7;   " d=" M  5881.02,   227.00  C  5881.80    227.00   5882.43    226.36   5882.43    225.58  " /><path style="stroke-width: 1.42 ;&st7;  " d=" M  5889.51,   231.25  L  5889.51,   197.25  L  5872.52,   197.25  L  5872.52,   231.25  L  5889.51,   231.25  " /><text style="font-size:6px;font-family:'NSimSun';" transform="matrix(&st16;  5874.83  239.44 )">2</text><text style="font-size:6px;font-family:'NSimSun';" transform="matrix(&st16;  5874.83  193.56 )">1</text><g ewd:figtype="title"><text style="font-size:6px;font-family:'NSimSun';" transform="matrix(&st17;  5904.23  234.15 )" ewd:textID="23">离合器起动开关总成</text><text style="font-size:6px;font-family:'NSimSun';" transform="matrix(&st17;  5897.41  234.15 )">A4</text></g></g><g ewd:figtype="conn" ewd:figID="64" ewd:code="E76"><path style="stroke-width: 1.42 ;&st7;  " d=" M  5906.51,   554.19  L  5906.51,   520.20  L  5889.51,   520.20  L  5889.51,   554.19  L  5906.51,   554.19  " /><path style="stroke-width: 1.42 ;&st7;  " d=" M  5898.01,   547.11  L  5903.68,   524.45  " /><path style="stroke-width: 0.85 ;&st7;  " d=" M  5898.01,   524.45  L  5898.01,   520.20  " /><path style="stroke-width: 0.85 ;&st7;   " d=" M  5899.43,   548.53  C  5899.43    547.74   5898.80    547.11   5898.01    547.11  " /><path style="stroke-width: 0.85 ;&st7;   " d=" M  5898.01,   547.11  C  5897.23    547.11   5896.60    547.74   5896.60    548.53  " /><path style="stroke-width: 0.85 ;&st7;   " d=" M  5896.60,   548.53  C  5896.60    549.31   5897.23    549.94   5898.01    549.94  " /><path style="stroke-width: 0.85 ;&st7;   " d=" M  5898.01,   549.94  C  5898.80    549.94   5899.43    549.31   5899.43    548.53  " /><path style="stroke-width: 0.85 ;&st7;   " d=" M  5899.43,   525.86  C  5899.43    525.08   5898.80    524.45   5898.01    524.45  " /><path style="stroke-width: 0.85 ;&st7;   " d=" M  5898.01,   524.45  C  5897.23    524.45   5896.60    525.08   5896.60    525.86  " /><path style="stroke-width: 0.85 ;&st7;   " d=" M  5896.60,   525.86  C  5896.60    526.65   5897.23    527.28   5898.01    527.28  " /><path style="stroke-width: 0.85 ;&st7;   " d=" M  5898.01,   527.28  C  5898.80    527.28   5899.43    526.65   5899.43    525.86  " /><path style="stroke-width: 0.85 ;&st7;  " d=" M  5898.01,   554.19  L  5898.01,   549.94  " /><text style="font-size:6px;font-family:'NSimSun';" transform="matrix(&st16;  5891.83  562.39 )">1</text><text style="font-size:6px;font-family:'NSimSun';" transform="matrix(&st16;  5891.83  516.51 )">4</text><g ewd:figtype="title"><text style="font-size:6px;font-family:'NSimSun';" transform="matrix(&st17;  5921.23  557.1 )" ewd:textID="66">模式选择开关总成</text><text style="font-size:6px;font-family:'NSimSun';" transform="matrix(&st17;  5914.41  557.09 )">E76</text></g></g><g ewd:figtype="conn" ewd:figID="65" ewd:code="E70"><path style="stroke-width: 0.85 ;&st7;  " d=" M  5898.01,   605.18  L  5898.01,   622.18  " /><path style="stroke-width: 1.42 ;&st7;  " d=" M  5889.51,   605.18  L  5906.51,   605.18  L  5906.51,   622.18  L  5889.51,   622.18  L  5889.51,   605.18  " /><text style="font-size:6px;font-family:'NSimSun';" transform="matrix(&st16;  5888.73  630.37 )">12</text><text style="font-size:6px;font-family:'NSimSun';" transform="matrix(&st16;  5888.73  601.49 )">16</text><g ewd:figtype="title"><text style="font-size:6px;font-family:'NSimSun';" transform="matrix(&st17;  5921.23  625.09 )" ewd:textID="61">3 号接线连接器<tspan x="0 " dy="6.0" /></text><text style="font-size:6px;font-family:'NSimSun';" transform="matrix(&st17;  5914.41  625.08 )">E70</text></g></g><g ewd:figtype="w2w" ewd:figID="122" ewd:code="BA2"><path style="stroke-width: 1.42 ;&st7;  " d=" M  5791.78,   217.08  L  5787.53,   221.33  L  5783.28,   217.08  " /><path style="stroke-width: 1.42 ;&st7;  " d=" M  5783.28,   213.68  L  5787.53,   217.93  L  5791.78,   213.68  " /><text style="font-size:6px;font-family:'NSimSun';" transform="matrix(&st16;  5771.8  228.97 )">17</text></g><g ewd:figtype="w2w" ewd:figID="123" ewd:code="AE5"><text style="font-size:6px;font-family:'NSimSun';" transform="matrix(&st16;  5885.38  449.93 )">6</text><path style="stroke-width: 1.42 ;&st7;  " d=" M  5902.26,   461.27  L  5898.01,   457.03  L  5893.76,   461.27  " /><path style="stroke-width: 1.42 ;&st7;  " d=" M  5902.26,   457.88  L  5898.01,   453.63  L  5893.76,   457.88  " /></g><g ewd:figtype="w2w" ewd:figID="124" ewd:code="AE2"><path style="stroke-width: 1.42 ;&st7;  " d=" M  5970.25,   461.27  L  5966.00,   457.03  L  5961.75,   461.27  " /><path style="stroke-width: 1.42 ;&st7;  " d=" M  5970.25,   457.88  L  5966.00,   453.63  L  5961.75,   457.88  " /><text style="font-size:6px;font-family:'NSimSun';" transform="matrix(&st16;  5953.37  449.93 )">2</text></g><g ewd:figtype="gp" ewd:figID="145" ewd:code="EB"><path style="stroke-width: 0.85 ;&st7;  " d=" M  5893.76,   695.84  L  5902.26,   695.84  " /><path style="stroke-width: 0.85 ;&st7;  " d=" M  5895.18,   698.67  L  5900.84,   698.67  " /><path style="stroke-width: 0.85 ;&st7;  " d=" M  5896.60,   701.50  L  5899.43,   701.50  " /><path style="stroke-width: 0.85 ;&st7;  " d=" M  5889.51,   693.00  L  5906.51,   693.00  " /><path style="stroke-width: 0.85 ;&st7;  " d=" M  5898.01,   688.75  L  5898.01,   693.00  " /></g></svg>