<?xml version="1.0" encoding="utf-8"?>
<!DOCTYPE svg PUBLIC "-//W3C//DTD SVG 1.0//EN" "http://www.w3.org/TR/2001/REC-SVG-20010904/DTD/svg10.dtd"[
	<!ENTITY ns_flows "http://ns.adobe.com/Flows/1.0/">
	<!ENTITY ns_svg "http://www.w3.org/2000/svg">
	<!ENTITY ns_xlink "http://www.w3.org/1999/xlink">
	<!ENTITY st0 "font-size:7px;font-family:'NSimSun';adobe-font-script:japanese;">
	<!ENTITY st1 "font-size:6px;font-family:'NSimSun';">
	<!-- White fill  -->
	<!ENTITY st2 "fill:#FFFFFF;stroke:#000000; stroke-width:1.41;stroke-linecap:round;stroke-linejoin:round;">
	<!-- Yellow fill  -->
	<!ENTITY st3 "fill:#FFFFCC;stroke:#FFFFCC; stroke-width:0.1;stroke-linecap:round;stroke-linejoin:round;">
	<!-- Gray fill  -->
	<!ENTITY st4 "fill:#CCCCCC;stroke:#CCCCCC; stroke-width:0.1;stroke-linecap:round;stroke-linejoin:round;">
	<!-- Light-blue fill -->
	<!ENTITY st5 "fill:#CCECF4;stroke:#000000; stroke-width:1.133;stroke-linecap:round;stroke-linejoin:round;">
	<!ENTITY st6 "fill:none;stroke-linecap:butt; stroke-linejoin:round;">
	<!ENTITY st7 "fill:none;stroke:#000000;stroke-linecap:round;stroke-linejoin:round;">
	<!ENTITY st8 "enable-background:new    ;">
	<!-- Black fill -->
	<!ENTITY st9 "fill:#000000;stroke:#000000; stroke-linecap:round;stroke-linejoin:round;">
	<!-- SRS note   -->
	<!ENTITY st10 "font-size:9px;font-family:'NSimSun';">
	<!ENTITY st11 "font-size:9px;font-family:'NSimSun';">
	<!ENTITY st12 "font-size:6px;font-family:'NSimSun';">
	<!ENTITY st13 "fill:none;stroke:#ff0000;stroke-linecap:round;stroke-linejoin:round;">
	<!-- Yellow fill  -->
	<!ENTITY st14 "fill:#FFFF00;stroke:#FFFF00; stroke-width:0.1;stroke-linecap:round;stroke-linejoin:round;">
	<!ENTITY st15 "font-size:6px;font-family:'NSimSun';adobe-font-script:japanese;">
	<!ENTITY st16 "1.00 0.00 0.00 1.00">
	<!ENTITY st17 "0.00 -1.00 1.00 0.00">
	<!ENTITY st18 "font-size:6px;font-family:'NSimSun';">
	<!ENTITY st19 "font-size:9px;font-family:'NSimSun';">
	<!ENTITY st20 "font-size:6px;font-family:'NSimSun';adobe-font-script:japanese;">
	<!ENTITY st21 "font-size:7px;font-family:'NSimSun';adobe-font-script:japanese;">
	<!ATTLIST svg
		xmlns:ewd CDATA #FIXED "http://shcl.co.jp/ewd"
		xmlns:a CDATA #FIXED "http://ns.adobe.com/AdobeSVGViewerExtensions/3.0/"
		ewd:ver CDATA #IMPLIED
	>
	<!ATTLIST a
		ewd:lineID CDATA #IMPLIED
		ewd:groupID CDATA #IMPLIED
		ewd:figtype CDATA #IMPLIED
		ewd:code CDATA #IMPLIED
		ewd:figID CDATA #IMPLIED
		ewd:pinNo CDATA #IMPLIED
		ewd:comment CDATA #IMPLIED >
	<!ATTLIST g
		ewd:lineID CDATA #IMPLIED
		ewd:groupID CDATA #IMPLIED
		ewd:figtype CDATA #IMPLIED
		ewd:code CDATA #IMPLIED
		ewd:figID CDATA #IMPLIED
		ewd:pinNo CDATA #IMPLIED
		ewd:comment CDATA #IMPLIED >
	<!ATTLIST text
		ewd:textID CDATA #IMPLIED
		ewd:horAlign CDATA #IMPLIED >
	<!ATTLIST title
		ewd:textID CDATA #IMPLIED >
]>
<!-- Generator: Shintec Hozumi YS   -->
<svg onload="call_execInitLoadProc_svg('system')" style="overflow:visible;  enable-background:new 0 0 9810.194 710.000" viewBox="0 0 9815.864 710.000" height="710.000" width="9815.864" xml:space="preserve" ewd:ver="2.1.2.6F" xmlns="&ns_svg;" xmlns:ewd="http://shcl.co.jp/ewd" xmlns:a="http://ns.adobe.com/AdobeSVGViewerExtensions/3.0/" xmlns:xlink="&ns_xlink;">
<text style="font-size:6px;font-family:'NSimSun';" transform="matrix(&st17;  7016.13  497.17 )">W</text><text style="font-size:6px;font-family:'NSimSun';" transform="matrix(&st17;  7086.95  500.97 )">(*11)</text><text style="font-size:6px;font-family:'NSimSun';" transform="matrix(&st17;  7041.63  497.17 )">W</text><text style="font-size:6px;font-family:'NSimSun';" transform="matrix(&st17;  7052.96  500.97 )">(*12)</text><text style="font-size:6px;font-family:'NSimSun';" transform="matrix(&st17;  7112.45  500.97 )">(*12)</text><text style="font-size:6px;font-family:'NSimSun';" transform="matrix(&st17;  7101.12  498.49 )">LG</text><text style="font-size:6px;font-family:'NSimSun';" transform="matrix(&st17;  7027.46  500.97 )">(*11)</text><text style="font-size:6px;font-family:'NSimSun';" transform="matrix(&st17;  7075.62  498.49 )">LG</text><text style="font-size:6px;font-family:'NSimSun';" transform="matrix(&st16;  7272.49  525.0 )">LG(*12)</text><text style="font-size:6px;font-family:'NSimSun';" transform="matrix(&st16;  7221.5  525.0 )">LG(*12)</text><text style="font-size:6px;font-family:'NSimSun';" transform="matrix(&st16;  7222.81  542.0 )">W(*12)</text><text style="font-size:6px;font-family:'NSimSun';" transform="matrix(&st16;  7273.81  542.0 )">W(*12)</text><text style="font-size:6px;font-family:'NSimSun';" transform="matrix(&st16;  7272.49  558.99 )">LG(*11)</text><text style="font-size:6px;font-family:'NSimSun';" transform="matrix(&st16;  7221.5  558.99 )">LG(*11)</text><text style="font-size:6px;font-family:'NSimSun';" transform="matrix(&st16;  7222.81  575.99 )">W(*11)</text><text style="font-size:6px;font-family:'NSimSun';" transform="matrix(&st16;  7273.81  575.99 )">W(*11)</text><text style="font-size:6px;font-family:'NSimSun';" transform="matrix(&st16;  7280.98  626.98 )">V</text><text style="font-size:6px;font-family:'NSimSun';" transform="matrix(&st16;  7272.49  609.99 )">LG(*11)</text><text style="font-size:6px;font-family:'NSimSun';" transform="matrix(&st16;  7272.49  592.99 )">LG(*12)</text><text style="font-size:6px;font-family:'NSimSun';" transform="matrix(&st16;  7221.5  592.99 )">LG(*12)</text><text style="font-size:6px;font-family:'NSimSun';" transform="matrix(&st16;  7221.5  609.99 )">LG(*11)</text><text style="font-size:6px;font-family:'NSimSun';" transform="matrix(&st16;  7229.99  626.98 )">V</text><text style="font-size:6px;font-family:'NSimSun';" transform="matrix(&st16;  7223.59  643.98 )">SB(*1)</text><text style="font-size:6px;font-family:'NSimSun';" transform="matrix(&st16;  7274.58  643.98 )">SB(*1)</text><text style="font-size:6px;font-family:'NSimSun';" transform="matrix(&st16;  7223.28  660.98 )">BR(*1)</text><text style="font-size:6px;font-family:'NSimSun';" transform="matrix(&st16;  7274.27  660.98 )">BR(*1)</text><text style="font-size:6px;font-family:'NSimSun';" transform="matrix(&st17;  7426.9  195.02 )">(*12)</text><text style="font-size:6px;font-family:'NSimSun';" transform="matrix(&st17;  7350.41  195.02 )">(*12)</text><text style="font-size:6px;font-family:'NSimSun';" transform="matrix(&st17;  7494.89  517.96 )">(*12)</text><text style="font-size:6px;font-family:'NSimSun';" transform="matrix(&st17;  7452.39  517.96 )">(*12)</text><text style="font-size:6px;font-family:'NSimSun';" transform="matrix(&st17;  7441.06  514.16 )">W</text><text style="font-size:6px;font-family:'NSimSun';" transform="matrix(&st17;  7373.07  515.48 )">LG</text><text style="font-size:6px;font-family:'NSimSun';" transform="matrix(&st17;  7384.4  517.96 )">(*12)</text><text style="font-size:6px;font-family:'NSimSun';" transform="matrix(&st17;  7339.08  191.22 )">W</text><text style="font-size:6px;font-family:'NSimSun';" transform="matrix(&st17;  7483.55  515.25 )">BR</text><text style="font-size:6px;font-family:'NSimSun';" transform="matrix(&st17;  7415.56  191.22 )">W</text><text style="font-size:6px;font-family:'NSimSun';" transform="matrix(&st17;  7466.56  190.25 )">P</text><text style="font-size:6px;font-family:'NSimSun';" transform="matrix(&st17;  7477.89  195.02 )">(*12)</text><text style="font-size:6px;font-family:'NSimSun';" transform="matrix(&st16;  7274.66  40.58 )">R(*13)</text><text style="font-size:6px;font-family:'NSimSun';" transform="matrix(&st16;  7274.58  23.58 )">Y(*13)</text><text style="font-size:6px;font-family:'NSimSun';" transform="matrix(&st16;  7223.67  40.58 )">R(*13)</text><text style="font-size:6px;font-family:'NSimSun';" transform="matrix(&st16;  7223.59  23.58 )">Y(*13)</text><g ewd:figtype="rb" ewd:figID="69" ewd:code="FUSE6"><path style="stroke-width: 0.85 ;&st7;  " d=" M  7342.77,   103.77  L  7342.77,   129.26  " /><path style="stroke-width: 1.42 ;&st7;  " d=" M  7344.90,   129.26  L  7340.65,   129.26  " /><path style="stroke-width: 1.42 ;&st7;  " d=" M  7344.90,   137.76  L  7340.65,   137.76  " /><path style="stroke-width: 1.42 ;&st7;   " d=" M  7340.65,   129.26  C  7338.30    129.26   7336.40    131.17   7336.40    133.51  " /><path style="stroke-width: 1.42 ;&st7;   " d=" M  7336.40,   133.51  C  7336.40    135.86   7338.30    137.76   7340.65    137.76  " /><path style="stroke-width: 1.42 ;&st7;   " d=" M  7344.90,   137.76  C  7347.24    137.76   7349.15    135.86   7349.15    133.51  " /><path style="stroke-width: 1.42 ;&st7;   " d=" M  7349.15,   133.51  C  7349.15    131.17   7347.24    129.26   7344.90    129.26  " /><path style="stroke-width: 0.28 ;&st9;  " d=" M  7342.77,   124.37  L  7339.94,   121.54  L  7339.94,   125.79  L  7342.77,   128.62  L  7345.60,   125.79  L  7345.60,   121.54  L  7342.77,   124.37  " /><text style="font-size:6px;font-family:'NSimSun';" transform="matrix(&st16;  7359.2  87.34 )">10A <tspan x="0 " dy="6.0">ECU-B </tspan><tspan x="0 " dy="6.0">NO.2</tspan></text><text style="font-size:6px;font-family:'NSimSun';" transform="matrix(&st16;  7340.97  135.48 )">1</text><text style="font-size:6px;font-family:'NSimSun';" transform="matrix(&st16;  7336.59  120.46 )">2</text><text style="font-size:6px;font-family:'NSimSun';" transform="matrix(&st16;  7334.73  66.08 )">(BAT)</text><path style="stroke-width: 1.42 ;&st7;   " d=" M  7342.77,   100.94  C  7345.51     99.32   7346.42     95.79   7344.81     93.06  " /><path style="stroke-width: 1.42 ;&st7;   " d=" M  7344.81,    93.06  C  7344.29     92.17   7343.66     91.54   7342.77     91.02  " /><path style="stroke-width: 0.85 ;&st7;   " d=" M  7344.19,    79.69  C  7344.19     78.91   7343.56     78.27   7342.77     78.27  " /><path style="stroke-width: 0.85 ;&st7;   " d=" M  7342.77,    78.27  C  7341.99     78.27   7341.36     78.91   7341.36     79.69  " /><path style="stroke-width: 0.85 ;&st7;   " d=" M  7341.36,    79.69  C  7341.36     80.47   7341.99     81.11   7342.77     81.11  " /><path style="stroke-width: 0.85 ;&st7;   " d=" M  7342.77,    81.11  C  7343.56     81.11   7344.19     80.47   7344.19     79.69  " /><path style="stroke-width: 0.85 ;&st7;   " d=" M  7344.19,   102.35  C  7344.19    101.57   7343.56    100.94   7342.77    100.94  " /><path style="stroke-width: 0.85 ;&st7;   " d=" M  7342.77,   100.94  C  7341.99    100.94   7341.36    101.57   7341.36    102.35  " /><path style="stroke-width: 0.85 ;&st7;   " d=" M  7341.36,   102.35  C  7341.36    103.13   7341.99    103.77   7342.77    103.77  " /><path style="stroke-width: 0.85 ;&st7;   " d=" M  7342.77,   103.77  C  7343.56    103.77   7344.19    103.13   7344.19    102.35  " /><path style="stroke-width: 1.42 ;&st7;   " d=" M  7342.77,    81.11  C  7340.04     82.72   7339.12     86.25   7340.74     88.98  " /><path style="stroke-width: 1.42 ;&st7;   " d=" M  7340.74,    88.98  C  7341.26     89.87   7341.89     90.50   7342.77     91.02  " /><path style="stroke-width: 1.42 ;&st7;  " d=" M  7330.02,    69.77  L  7330.02,   112.27  L  7355.52,   112.27  L  7355.52,    69.77  L  7330.02,    69.77  " /></g><g ewd:code="E55" ewd:figID="74" ewd:comment="3" ewd:figtype="conn"><path style="stroke-width: 1.42 ;&st7;  " d=" M  7963.17,   443.71  L  7963.17,   460.71  " /><path style="stroke-width: 0.85 ;&st7;  " d=" M  7963.17,   455.04  L  7971.67,   460.71  " /><path style="stroke-width: 0.85 ;&st7;  " d=" M  7971.67,   443.71  L  7963.74,   449.00  " /><path style="stroke-width: 0.85 ;&st7;  " d=" M  7963.17,   452.21  L  7954.67,   452.21  " /><path style="stroke-width: 0.85 ;&st7;  " d=" M  7635.97,   443.71  L  7627.48,   443.71  " /><path style="stroke-width: 0.85 ;&st7;  " d=" M  7639.10,   348.28  L  7646.46,   344.03  " /><path style="stroke-width: 0.85 ;&st7;  " d=" M  7644.46,   340.56  L  7637.10,   344.81  " /><path style="stroke-width: 0.85 ;&st7;  " d=" M  7635.97,   350.23  L  7627.48,   350.23  " /><path style="stroke-width: 0.85 ;&st7;  " d=" M  7453.25,   294.99  L  7453.25,   286.49  " /><path style="stroke-width: 0.85 ;&st7;  " d=" M  7436.26,   286.49  L  7436.26,   294.99  " /><path style="stroke-width: 0.85 ;&st7;  " d=" M  7507.08,   358.73  L  7512.74,   350.23  " /><path style="stroke-width: 0.85 ;&st7;  " d=" M  7495.75,   350.23  L  7501.04,   358.16  " /><path style="stroke-width: 0.85 ;&st7;  " d=" M  7504.25,   358.73  L  7504.25,   367.22  " /><path style="stroke-width: 1.42 ;&st7;  " d=" M  7495.75,   358.73  L  7512.74,   358.73  " /><path style="stroke-width: 1.42 ;&st7;  " d=" M  7415.01,   450.09  L  7406.51,   450.09  " /><path style="stroke-width: 1.42 ;&st7;  " d=" M  7415.01,   445.84  L  7406.51,   445.84  " /><path style="stroke-width: 0.85 ;&st7;  " d=" M  7410.76,   445.84  L  7410.76,   435.21  " /><path style="stroke-width: 0.85 ;&st7;  " d=" M  7869.69,   443.71  L  7875.35,   435.21  " /><path style="stroke-width: 0.85 ;&st7;  " d=" M  7878.18,   435.21  L  7878.18,   426.71  " /><path style="stroke-width: 1.42 ;&st7;  " d=" M  7886.68,   435.21  L  7869.69,   435.21  " /><path style="stroke-width: 1.42 ;&st7;  " d=" M  8014.16,   401.22  L  8014.16,   418.22  " /><path style="stroke-width: 0.85 ;&st7;  " d=" M  8014.16,   409.72  L  7988.67,   409.72  " /><path style="stroke-width: 0.85 ;&st7;  " d=" M  8022.66,   418.22  L  8014.16,   412.55  " /><path style="stroke-width: 1.42 ;&st7;  " d=" M  8014.16,   443.71  L  8014.16,   426.71  " /><path style="stroke-width: 0.85 ;&st7;  " d=" M  8014.16,   435.21  L  8022.66,   435.21  " /><path style="stroke-width: 0.85 ;&st7;  " d=" M  8005.66,   426.71  L  8014.16,   432.38  " /><path style="stroke-width: 1.42 ;&st7;  " d=" M  7954.67,   418.22  L  7937.67,   418.22  " /><path style="stroke-width: 0.85 ;&st7;  " d=" M  7946.17,   418.22  L  7946.17,   401.22  " /><path style="stroke-width: 0.85 ;&st7;  " d=" M  7942.96,   418.78  L  7937.67,   426.71  " /><path style="stroke-width: 0.85 ;&st7;  " d=" M  7954.67,   426.71  L  7949.01,   418.22  " /><path style="stroke-width: 0.85 ;&st7;  " d=" M  7334.27,   409.72  L  7351.27,   409.72  " /><path style="stroke-width: 0.85 ;&st7;  " d=" M  7359.77,   418.22  L  7342.77,   418.22  L  7342.77,   409.72  " /><path style="stroke-width: 0.85 ;&st7;  " d=" M  7444.75,   409.72  L  7444.75,   392.72  " /><path style="stroke-width: 0.85 ;&st7;  " d=" M  7376.76,   409.72  L  7376.76,   392.72  " /><path style="stroke-width: 0.85 ;&st7;  " d=" M  7444.75,   426.71  L  7444.75,   486.20  " /><path style="stroke-width: 0.85 ;&st7;  " d=" M  7376.76,   426.71  L  7376.76,   486.20  " /><path style="stroke-width: 1.42 ;&st7;  " d=" M  7359.77,   409.72  L  7359.77,   426.71  L  7461.75,   426.71  L  7461.75,   409.72  L  7359.77,   409.72  " /><path style="stroke-width: 0.85 ;&st7;  " d=" M  7920.67,   452.21  L  7929.17,   452.21  L  7930.59,   449.38  L  7933.42,   455.04  L  7936.25,   449.38  L  7939.09,   455.04  L  7941.92,   449.38  L  7944.75,   455.04  L  7946.17,   452.21  L  7954.67,   452.21  " /><path style="stroke-width: 0.85 ;&st7;  " d=" M  7487.25,   392.72  L  7487.25,   486.20  " /><path style="stroke-width: 0.85 ;&st7;  " d=" M  7869.68,   443.71  L  7872.87,   441.58  L  7870.42,   439.95  L  7869.68,   443.71  L  7870.50,   442.48  L  7871.85,   441.58  L  7870.82,   440.89  L  7870.50,   442.48  L  7870.91,   441.86  L  7871.34,   441.58  L  7871.01,   441.36  L  7870.91,   441.86  " /><path style="stroke-width: 0.85 ;&st7;  " d=" M  7963.73,   449.00  L  7965.87,   445.82  L  7967.49,   448.26  L  7963.73,   449.00  L  7964.96,   448.18  L  7965.86,   446.84  L  7966.55,   447.86  L  7964.96,   448.18  L  7965.58,   447.77  L  7965.86,   447.35  L  7966.08,   447.67  L  7965.58,   447.77  " /><path style="stroke-width: 0.85 ;&st7;  " d=" M  7470.25,   265.24  L  7631.72,   265.24  " /><path style="stroke-width: 0.85 ;&st7;  " d=" M  7631.72,   265.24  L  7631.72,   307.73  " /><path style="stroke-width: 0.85 ;&st7;  " d=" M  7631.72,   341.73  L  7631.72,   333.23  L  7628.89,   331.81  L  7634.55,   328.98  L  7628.89,   326.15  L  7634.55,   323.31  L  7628.89,   320.48  L  7634.55,   317.65  L  7631.72,   316.23  L  7631.72,   307.73  " /><path style="stroke-width: 0.85 ;&st7;  " d=" M  7646.46,   344.03  L  7644.12,   347.07  L  7642.66,   344.53  L  7646.46,   344.03  L  7645.17,   344.77  L  7644.19,   346.05  L  7643.57,   344.98  L  7645.17,   344.77  L  7644.53,   345.14  L  7644.22,   345.55  L  7644.03,   345.21  L  7644.53,   345.14  " /><path style="stroke-width: 0.85 ;&st7;  " d=" M  7644.46,   340.56  L  7642.12,   343.60  L  7640.65,   341.06  L  7644.46,   340.56  L  7643.17,   341.30  L  7642.19,   342.59  L  7641.57,   341.51  L  7643.17,   341.30  L  7642.53,   341.67  L  7642.22,   342.08  L  7642.02,   341.74  L  7642.53,   341.67  " /><path style="stroke-width: 0.28 ;&st9;  " d=" M  7631.72,   350.23  L  7626.06,   341.73  L  7637.39,   341.73  L  7631.72,   350.23  " /><path style="stroke-width: 0.85 ;&st7;  " d=" M  7512.74,   350.23  L  7512.74,   333.23  " /><path style="stroke-width: 0.85 ;&st7;  " d=" M  7487.25,   350.23  L  7487.25,   333.23  " /><path style="stroke-width: 0.85 ;&st7;  " d=" M  7443.56,   289.73  L  7443.29,   290.20  L  7443.19,   290.74  L  7443.29,   291.27  L  7443.56,   291.74  L  7443.97,   292.09  L  7444.48,   292.27  L  7445.02,   292.27  L  7445.53,   292.09  L  7445.95,   291.74  L  7446.22,   291.27  L  7446.31,   290.74  L  7446.22,   290.20  L  7445.95,   289.73  L  7445.53,   289.39  L  7445.02,   289.20  L  7444.48,   289.20  L  7443.97,   289.39  L  7443.56,   289.73  L  7443.95,   290.45  L  7443.95,   291.03  L  7444.33,   291.47  L  7444.90,   291.57  L  7445.40,   291.28  L  7445.60,   290.74  L  7445.40,   290.19  L  7444.90,   289.90  L  7444.33,   290.00  L  7444.75,   290.74  " /><path style="stroke-width: 0.28 ;&st9;  " d=" M  7453.25,   290.74  L  7461.75,   285.07  L  7461.75,   296.40  L  7453.25,   290.74  " /><path style="stroke-width: 0.28 ;&st9;  " d=" M  7436.25,   290.74  L  7427.76,   296.40  L  7427.76,   285.07  L  7436.25,   290.74  " /><path style="stroke-width: 0.85 ;&st7;  " d=" M  7419.26,   248.24  L  7419.26,   290.74  L  7470.25,   290.74  L  7470.25,   248.24  " /><path style="stroke-width: 0.85 ;&st7;  " d=" M  7444.75,   333.23  L  7444.75,   367.22  " /><path style="stroke-width: 1.42 ;&st7;  " d=" M  7427.76,   316.23  L  7427.76,   333.23  L  7461.75,   333.23  L  7461.75,   316.23  L  7427.76,   316.23  " /><path style="stroke-width: 1.42 ;&st7;  " d=" M  7351.27,   367.22  L  7351.27,   392.72  L  7597.73,   392.72  L  7597.73,   367.22  L  7351.27,   367.22  " /><path style="stroke-width: 1.42 ;&st7;  " d=" M  7317.27,   248.24  L  7317.27,   486.20  L  8065.15,   486.20  L  8065.15,   248.24  L  7317.27,   248.24  " /><path style="stroke-width: 0.28 ;&st9;  " d=" M  7631.72,   443.71  L  7626.06,   435.21  L  7637.39,   435.21  L  7631.72,   443.71  " /><path style="stroke-width: 0.85 ;&st7;  " d=" M  7376.76,   435.21  L  7385.26,   435.21  L  7386.68,   432.38  L  7389.51,   438.05  L  7392.35,   432.38  L  7395.18,   438.05  L  7398.01,   432.38  L  7400.84,   438.05  L  7402.26,   435.21  L  7410.76,   435.21  " /><path style="stroke-width: 0.85 ;&st7;  " d=" M  7878.18,   418.22  L  7878.18,   426.71  " /><path style="stroke-width: 0.85 ;&st7;  " d=" M  7903.68,   443.71  L  7903.68,   435.21  L  7900.84,   433.80  L  7906.51,   430.96  L  7900.84,   428.13  L  7906.51,   425.30  L  7900.84,   422.46  L  7906.51,   419.63  L  7903.68,   418.22  L  7903.68,   409.72  " /><path style="stroke-width: 0.85 ;&st7;  " d=" M  7469.06,   264.24  L  7468.78,   264.71  L  7468.69,   265.24  L  7468.78,   265.77  L  7469.06,   266.24  L  7469.47,   266.59  L  7469.98,   266.78  L  7470.52,   266.78  L  7471.03,   266.59  L  7471.44,   266.24  L  7471.71,   265.77  L  7471.81,   265.24  L  7471.71,   264.71  L  7471.44,   264.24  L  7471.03,   263.89  L  7470.52,   263.71  L  7469.98,   263.71  L  7469.47,   263.89  L  7469.06,   264.24  L  7469.45,   264.95  L  7469.45,   265.53  L  7469.82,   265.98  L  7470.40,   266.08  L  7470.90,   265.79  L  7471.10,   265.24  L  7470.90,   264.69  L  7470.40,   264.41  L  7469.82,   264.50  L  7470.25,   265.24  " /><path style="stroke-width: 0.85 ;&st7;  " d=" M  7903.68,   409.72  L  7903.68,   401.22  L  7946.17,   401.22  " /><path style="stroke-width: 0.85 ;&st7;  " d=" M  7886.68,   443.71  L  7903.68,   443.71  " /><path style="stroke-width: 0.85 ;&st7;  " d=" M  7501.03,   358.16  L  7497.85,   356.03  L  7500.29,   354.40  L  7501.03,   358.16  L  7500.21,   356.93  L  7498.87,   356.03  L  7499.90,   355.34  L  7500.21,   356.93  L  7499.80,   356.31  L  7499.38,   356.03  L  7499.70,   355.81  L  7499.80,   356.31  " /><path style="stroke-width: 0.85 ;&st7;  " d=" M  7444.75,   350.23  L  7495.74,   350.23  " /><path style="stroke-width: 0.85 ;&st7;  " d=" M  7886.68,   443.71  L  7881.01,   435.21  " /><path style="stroke-width: 0.85 ;&st7;  " d=" M  7444.75,   290.74  L  7444.75,   316.23  " /><path style="stroke-width: 0.85 ;&st7;  " d=" M  7920.67,   435.21  L  7920.67,   486.20  " /><path style="stroke-width: 0.85 ;&st7;  " d=" M  7410.76,   435.21  L  7419.26,   435.21  L  7420.67,   432.38  L  7423.51,   438.05  L  7426.34,   432.38  L  7429.17,   438.05  L  7432.01,   432.38  L  7434.84,   438.05  L  7436.25,   435.21  L  7444.75,   435.21  " /><path style="stroke-width: 0.85 ;&st7;  " d=" M  7868.27,   460.71  L  7871.10,   460.71  " /><path style="stroke-width: 0.85 ;&st7;  " d=" M  7443.56,   434.21  L  7443.29,   434.68  L  7443.19,   435.21  L  7443.29,   435.75  L  7443.56,   436.22  L  7443.97,   436.56  L  7444.48,   436.75  L  7445.02,   436.75  L  7445.53,   436.56  L  7445.95,   436.22  L  7446.22,   435.75  L  7446.31,   435.21  L  7446.22,   434.68  L  7445.95,   434.21  L  7445.53,   433.86  L  7445.02,   433.68  L  7444.48,   433.68  L  7443.97,   433.86  L  7443.56,   434.21  L  7443.95,   434.92  L  7443.95,   435.50  L  7444.33,   435.95  L  7444.90,   436.05  L  7445.40,   435.76  L  7445.60,   435.21  L  7445.40,   434.67  L  7444.90,   434.38  L  7444.33,   434.48  L  7444.75,   435.21  " /><path style="stroke-width: 0.85 ;&st7;  " d=" M  7866.85,   457.88  L  7872.51,   457.88  " /><path style="stroke-width: 0.85 ;&st7;  " d=" M  7375.57,   434.21  L  7375.30,   434.68  L  7375.21,   435.21  L  7375.30,   435.75  L  7375.57,   436.22  L  7375.99,   436.56  L  7376.50,   436.75  L  7377.03,   436.75  L  7377.54,   436.56  L  7377.96,   436.22  L  7378.23,   435.75  L  7378.32,   435.21  L  7378.23,   434.68  L  7377.96,   434.21  L  7377.54,   433.86  L  7377.03,   433.68  L  7376.50,   433.68  L  7375.99,   433.86  L  7375.57,   434.21  L  7375.97,   434.92  L  7375.97,   435.50  L  7376.34,   435.95  L  7376.91,   436.05  L  7377.42,   435.76  L  7377.61,   435.21  L  7377.42,   434.67  L  7376.91,   434.38  L  7376.34,   434.48  L  7376.76,   435.21  " /><path style="stroke-width: 0.85 ;&st7;  " d=" M  7865.43,   455.04  L  7873.93,   455.04  " /><path style="stroke-width: 0.85 ;&st7;  " d=" M  7869.68,   443.71  L  7869.68,   452.21  " /><path style="stroke-width: 0.85 ;&st7;  " d=" M  7410.76,   450.09  L  7410.76,   460.71  " /><path style="stroke-width: 0.85 ;&st7;  " d=" M  7402.26,   460.71  L  7419.26,   460.71  " /><path style="stroke-width: 0.85 ;&st7;  " d=" M  7406.51,   463.54  L  7415.01,   463.54  " /><path style="stroke-width: 0.85 ;&st7;  " d=" M  7407.93,   466.37  L  7413.59,   466.37  " /><path style="stroke-width: 0.85 ;&st7;  " d=" M  7409.34,   469.21  L  7412.18,   469.21  " /><path style="stroke-width: 0.85 ;&st7;  " d=" M  7409.57,   434.21  L  7409.29,   434.68  L  7409.20,   435.21  L  7409.29,   435.75  L  7409.57,   436.22  L  7409.98,   436.56  L  7410.49,   436.75  L  7411.03,   436.75  L  7411.54,   436.56  L  7411.95,   436.22  L  7412.22,   435.75  L  7412.32,   435.21  L  7412.22,   434.68  L  7411.95,   434.21  L  7411.54,   433.86  L  7411.03,   433.68  L  7410.49,   433.68  L  7409.98,   433.86  L  7409.57,   434.21  L  7409.96,   434.92  L  7409.96,   435.50  L  7410.33,   435.95  L  7410.91,   436.05  L  7411.41,   435.76  L  7411.61,   435.21  L  7411.41,   434.67  L  7410.91,   434.38  L  7410.33,   434.48  L  7410.76,   435.21  " /><path style="stroke-width: 0.85 ;&st7;  " d=" M  7954.67,   435.21  L  7971.66,   435.21  L  7971.66,   443.71  " /><path style="stroke-width: 0.85 ;&st7;  " d=" M  8022.66,   401.22  L  8014.16,   406.88  " /><path style="stroke-width: 0.85 ;&st7;  " d=" M  8022.66,   418.22  L  8020.52,   415.03  L  8018.90,   417.47  L  8022.66,   418.22  L  8021.42,   417.39  L  8020.53,   416.05  L  8019.84,   417.08  L  8021.42,   417.39  L  8020.81,   416.98  L  8020.53,   416.56  L  8020.31,   416.88  L  8020.81,   416.98  " /><path style="stroke-width: 0.85 ;&st7;  " d=" M  7988.66,   426.71  L  7988.66,   409.72  " /><path style="stroke-width: 0.85 ;&st7;  " d=" M  8005.66,   443.71  L  8014.16,   438.05  " /><path style="stroke-width: 0.85 ;&st7;  " d=" M  8005.66,   443.71  L  8007.79,   440.53  L  8009.42,   442.97  L  8005.66,   443.71  L  8006.89,   442.89  L  8007.79,   441.55  L  8008.48,   442.58  L  8006.89,   442.89  L  8007.51,   442.48  L  8007.79,   442.06  L  8008.01,   442.38  L  8007.51,   442.48  " /><path style="stroke-width: 0.85 ;&st7;  " d=" M  7869.68,   418.22  L  7886.68,   418.22  " /><path style="stroke-width: 0.85 ;&st7;  " d=" M  7971.66,   460.71  L  7988.66,   460.71  " /><path style="stroke-width: 0.85 ;&st7;  " d=" M  7988.66,   460.71  L  7988.66,   452.21  L  7985.83,   450.79  L  7991.49,   447.96  L  7985.83,   445.13  L  7991.49,   442.29  L  7985.83,   439.46  L  7991.49,   436.63  L  7988.66,   435.21  L  7988.66,   426.71  " /><path style="stroke-width: 0.85 ;&st7;  " d=" M  8031.15,   418.22  L  8039.65,   418.22  " /><path style="stroke-width: 0.85 ;&st7;  " d=" M  8022.66,   435.21  L  8031.15,   435.21  L  8031.15,   418.22  " /><path style="stroke-width: 0.85 ;&st7;  " d=" M  8005.66,   426.71  L  7988.66,   426.71  " /><path style="stroke-width: 0.85 ;&st7;  " d=" M  7953.47,   434.21  L  7953.20,   434.68  L  7953.11,   435.21  L  7953.20,   435.75  L  7953.47,   436.22  L  7953.89,   436.56  L  7954.40,   436.75  L  7954.94,   436.75  L  7955.45,   436.56  L  7955.86,   436.22  L  7956.13,   435.75  L  7956.23,   435.21  L  7956.13,   434.68  L  7955.86,   434.21  L  7955.45,   433.86  L  7954.94,   433.68  L  7954.40,   433.68  L  7953.89,   433.86  L  7953.47,   434.21  L  7953.87,   434.92  L  7953.87,   435.50  L  7954.24,   435.95  L  7954.81,   436.05  L  7955.32,   435.76  L  7955.52,   435.21  L  7955.32,   434.67  L  7954.81,   434.38  L  7954.24,   434.48  L  7954.67,   435.21  " /><path style="stroke-width: 0.85 ;&st7;  " d=" M  8038.24,   469.21  L  8041.07,   469.21  " /><path style="stroke-width: 0.85 ;&st7;  " d=" M  8036.82,   466.37  L  8042.49,   466.37  " /><path style="stroke-width: 0.85 ;&st7;  " d=" M  8035.40,   463.54  L  8043.90,   463.54  " /><path style="stroke-width: 0.85 ;&st7;  " d=" M  8031.15,   460.71  L  8048.15,   460.71  " /><path style="stroke-width: 0.85 ;&st7;  " d=" M  8039.65,   452.21  L  8039.65,   460.71  " /><path style="stroke-width: 0.85 ;&st7;  " d=" M  8039.65,   452.21  L  8039.65,   443.71  L  8036.82,   442.29  L  8042.49,   439.46  L  8036.82,   436.63  L  8042.49,   433.80  L  8036.82,   430.96  L  8042.49,   428.13  L  8039.65,   426.71  L  8039.65,   418.22  " /><path style="stroke-width: 0.85 ;&st7;  " d=" M  8022.66,   418.22  L  8031.15,   418.22  " /><path style="stroke-width: 0.85 ;&st7;  " d=" M  8005.66,   443.71  L  8005.66,   452.21  L  8039.65,   452.21  " /><path style="stroke-width: 0.85 ;&st7;  " d=" M  7835.69,   486.20  L  7835.69,   384.22  L  8022.66,   384.22  L  8022.66,   401.22  " /><path style="stroke-width: 0.85 ;&st7;  " d=" M  8029.96,   417.21  L  8029.69,   417.68  L  8029.60,   418.22  L  8029.69,   418.75  L  8029.96,   419.22  L  8030.38,   419.56  L  8030.89,   419.75  L  8031.42,   419.75  L  8031.93,   419.56  L  8032.35,   419.22  L  8032.62,   418.75  L  8032.71,   418.22  L  8032.62,   417.68  L  8032.35,   417.21  L  8031.93,   416.87  L  8031.42,   416.68  L  8030.89,   416.68  L  8030.38,   416.87  L  8029.96,   417.21  L  8030.36,   417.92  L  8030.36,   418.51  L  8030.73,   418.95  L  8031.30,   419.05  L  8031.81,   418.76  L  8032.00,   418.22  L  8031.81,   417.67  L  8031.30,   417.38  L  8030.73,   417.48  L  8031.15,   418.22  " /><path style="stroke-width: 0.85 ;&st7;  " d=" M  8038.46,   451.21  L  8038.19,   451.68  L  8038.10,   452.21  L  8038.19,   452.74  L  8038.46,   453.21  L  8038.87,   453.56  L  8039.38,   453.75  L  8039.92,   453.75  L  8040.43,   453.56  L  8040.85,   453.21  L  8041.12,   452.74  L  8041.21,   452.21  L  8041.12,   451.68  L  8040.85,   451.21  L  8040.43,   450.86  L  8039.92,   450.67  L  8039.38,   450.67  L  8038.87,   450.86  L  8038.46,   451.21  L  8038.85,   451.92  L  8038.85,   452.50  L  8039.23,   452.95  L  8039.80,   453.05  L  8040.30,   452.76  L  8040.50,   452.21  L  8040.30,   451.66  L  8039.80,   451.37  L  8039.23,   451.47  L  8039.65,   452.21  " /><path style="stroke-width: 0.85 ;&st7;  " d=" M  7920.67,   435.21  L  7929.17,   435.21  L  7930.59,   432.38  L  7933.42,   438.05  L  7936.25,   432.38  L  7939.09,   438.05  L  7941.92,   432.38  L  7944.75,   438.05  L  7946.17,   435.21  L  7954.67,   435.21  " /><path style="stroke-width: 0.85 ;&st7;  " d=" M  7919.48,   451.21  L  7919.21,   451.68  L  7919.12,   452.21  L  7919.21,   452.74  L  7919.48,   453.21  L  7919.89,   453.56  L  7920.40,   453.75  L  7920.94,   453.75  L  7921.45,   453.56  L  7921.87,   453.21  L  7922.14,   452.74  L  7922.23,   452.21  L  7922.14,   451.68  L  7921.87,   451.21  L  7921.45,   450.86  L  7920.94,   450.67  L  7920.40,   450.67  L  7919.89,   450.86  L  7919.48,   451.21  L  7919.87,   451.92  L  7919.87,   452.50  L  7920.25,   452.95  L  7920.82,   453.05  L  7921.32,   452.76  L  7921.52,   452.21  L  7921.32,   451.66  L  7920.82,   451.37  L  7920.25,   451.47  L  7920.67,   452.21  " /><path style="stroke-width: 0.85 ;&st7;  " d=" M  7954.67,   435.21  L  7954.67,   426.71  " /><path style="stroke-width: 0.85 ;&st7;  " d=" M  7912.17,   418.22  L  7929.17,   418.22  " /><path style="stroke-width: 0.85 ;&st7;  " d=" M  7987.47,   425.71  L  7987.20,   426.18  L  7987.10,   426.71  L  7987.20,   427.25  L  7987.47,   427.72  L  7987.88,   428.06  L  7988.39,   428.25  L  7988.93,   428.25  L  7989.44,   428.06  L  7989.85,   427.72  L  7990.13,   427.25  L  7990.22,   426.71  L  7990.13,   426.18  L  7989.85,   425.71  L  7989.44,   425.37  L  7988.93,   425.18  L  7988.39,   425.18  L  7987.88,   425.37  L  7987.47,   425.71  L  7987.86,   426.42  L  7987.86,   427.01  L  7988.24,   427.45  L  7988.81,   427.55  L  7989.31,   427.26  L  7989.51,   426.71  L  7989.31,   426.17  L  7988.81,   425.88  L  7988.24,   425.98  L  7988.66,   426.71  " /><path style="stroke-width: 0.85 ;&st7;  " d=" M  7942.96,   418.78  L  7939.77,   420.92  L  7942.21,   422.54  L  7942.96,   418.78  L  7942.14,   420.01  L  7940.80,   420.91  L  7941.82,   421.60  L  7942.14,   420.01  L  7941.73,   420.63  L  7941.30,   420.91  L  7941.63,   421.13  L  7941.73,   420.63  " /><path style="stroke-width: 0.85 ;&st7;  " d=" M  7937.67,   426.71  L  7920.67,   426.71  L  7920.67,   418.22  " /><path style="stroke-width: 1.42 ;&st7;  " d=" M  7368.27,   392.72  L  7368.27,   375.72  L  7453.25,   375.72  L  7453.25,   392.72  " /><path style="stroke-width: 0.85 ;&st7;  " d=" M  7478.75,   333.23  L  7495.74,   333.23  " /><path style="stroke-width: 0.85 ;&st7;  " d=" M  7504.24,   333.23  L  7521.24,   333.23  " /><path style="stroke-width: 0.85 ;&st7;  " d=" M  7486.05,   349.22  L  7485.78,   349.69  L  7485.69,   350.23  L  7485.78,   350.76  L  7486.05,   351.23  L  7486.47,   351.58  L  7486.98,   351.76  L  7487.51,   351.76  L  7488.02,   351.58  L  7488.44,   351.23  L  7488.71,   350.76  L  7488.80,   350.23  L  7488.71,   349.69  L  7488.44,   349.22  L  7488.02,   348.88  L  7487.51,   348.69  L  7486.98,   348.69  L  7486.47,   348.88  L  7486.05,   349.22  L  7486.45,   349.94  L  7486.45,   350.52  L  7486.82,   350.96  L  7487.39,   351.06  L  7487.90,   350.77  L  7488.10,   350.23  L  7487.90,   349.68  L  7487.39,   349.39  L  7486.82,   349.49  L  7487.25,   350.23  " /><path style="stroke-width: 0.85 ;&st7;  " d=" M  7443.56,   349.22  L  7443.29,   349.69  L  7443.19,   350.23  L  7443.29,   350.76  L  7443.56,   351.23  L  7443.97,   351.58  L  7444.48,   351.76  L  7445.02,   351.76  L  7445.53,   351.58  L  7445.95,   351.23  L  7446.22,   350.76  L  7446.31,   350.23  L  7446.22,   349.69  L  7445.95,   349.22  L  7445.53,   348.88  L  7445.02,   348.69  L  7444.48,   348.69  L  7443.97,   348.88  L  7443.56,   349.22  L  7443.95,   349.94  L  7443.95,   350.52  L  7444.33,   350.96  L  7444.90,   351.06  L  7445.40,   350.77  L  7445.60,   350.23  L  7445.40,   349.68  L  7444.90,   349.39  L  7444.33,   349.49  L  7444.75,   350.23  " /><path style="stroke-width: 0.85 ;&st7;  " d=" M  7631.72,   341.73  L  7631.72,   486.20  " /><path style="stroke-width: 0.85 ;&st7;  " d=" M  7861.18,   452.21  L  7878.18,   452.21  " /><text style="font-size:6px;font-family:'NSimSun';" transform="matrix(&st16;  7523.44  381.94 )">CPU</text><text style="font-size:6px;font-family:'NSimSun';" transform="matrix(&st16;  7334.5  406.02 )">5V +B</text><text style="font-size:6px;font-family:'NSimSun';" transform="matrix(&st16;  7399.0  420.18 )">CAN I/F</text><text style="font-size:6px;font-family:'NSimSun';" transform="matrix(&st17;  7623.78  363.45 )" ewd:textID="24">检查发动机</text><text style="font-size:6px;font-family:'NSimSun';" transform="matrix(&st16;  7436.91  326.7 )">5V IC</text><text style="font-size:6px;font-family:'NSimSun';" transform="matrix(&st16;  7915.27  414.52 )">12V</text><text style="font-size:6px;font-family:'NSimSun';" transform="matrix(&st16;  7421.84  256.44 )">B</text><text style="font-size:6px;font-family:'NSimSun';" transform="matrix(&st16;  7472.84  256.44 )">IG+</text><text style="font-size:6px;font-family:'NSimSun';" transform="matrix(&st16;  7489.83  482.51 )">ET</text><text style="font-size:6px;font-family:'NSimSun';" transform="matrix(&st16;  7379.35  482.51 )">CANH</text><text style="font-size:6px;font-family:'NSimSun';" transform="matrix(&st16;  7634.31  482.51 )">CHK</text><text style="font-size:6px;font-family:'NSimSun';" transform="matrix(&st16;  7447.34  482.51 )">CANL</text><text style="font-size:6px;font-family:'NSimSun';" transform="matrix(&st16;  7838.27  482.51 )">+S</text><text style="font-size:6px;font-family:'NSimSun';" transform="matrix(&st16;  7923.26  482.51 )">SI</text><text style="font-size:6px;font-family:'NSimSun';" transform="matrix(&st16;  7874.33  414.52 )">5V</text><text style="font-size:6px;font-family:'NSimSun';" transform="matrix(&st16; 7395.36 386.19)" ewd:textID="19" ewd:horAlign="center">CAN 控制器</text><text style="font-size:6px;font-family:'NSimSun';" transform="matrix(&st16;  7508.89  329.53 )">5V</text><text style="font-size:6px;font-family:'NSimSun';" transform="matrix(&st16;  7478.97  329.53 )">5V +B</text><path style="stroke-width: 0.85 ;&st7;  " d=" M  7698.59,   348.28  L  7705.95,   344.03  " /><path style="stroke-width: 0.85 ;&st7;  " d=" M  7703.95,   340.56  L  7696.59,   344.81  " /><path style="stroke-width: 0.85 ;&st7;  " d=" M  7695.46,   350.23  L  7686.97,   350.23  " /><path style="stroke-width: 0.85 ;&st7;  " d=" M  7691.21,   282.24  L  7691.21,   307.73  " /><path style="stroke-width: 0.85 ;&st7;  " d=" M  7691.21,   341.73  L  7691.21,   333.23  L  7688.38,   331.81  L  7694.04,   328.98  L  7688.38,   326.15  L  7694.04,   323.31  L  7688.38,   320.48  L  7694.04,   317.65  L  7691.21,   316.23  L  7691.21,   307.73  " /><path style="stroke-width: 0.85 ;&st7;  " d=" M  7705.95,   344.03  L  7703.61,   347.07  L  7702.15,   344.53  L  7705.95,   344.03  L  7704.66,   344.77  L  7703.68,   346.05  L  7703.06,   344.98  L  7704.66,   344.77  L  7704.02,   345.14  L  7703.71,   345.55  L  7703.52,   345.21  L  7704.02,   345.14  " /><path style="stroke-width: 0.85 ;&st7;  " d=" M  7703.95,   340.56  L  7701.61,   343.60  L  7700.14,   341.06  L  7703.95,   340.56  L  7702.66,   341.30  L  7701.68,   342.59  L  7701.06,   341.51  L  7702.66,   341.30  L  7702.02,   341.67  L  7701.71,   342.08  L  7701.51,   341.74  L  7702.02,   341.67  " /><path style="stroke-width: 0.28 ;&st9;  " d=" M  7691.21,   350.23  L  7685.55,   341.73  L  7696.88,   341.73  L  7691.21,   350.23  " /><path style="stroke-width: 0.85 ;&st7;  " d=" M  7691.21,   341.73  L  7691.21,   384.22  " /><g ewd:code="" ewd:figID="254" ewd:comment="3" ewd:figtype="commref"><text style="font-size:6px;font-family:'NSimSun';" transform="matrix(&st17;  7683.27  372.13 )">A/T OIL TEMP (*3)</text></g><path style="stroke-width: 0.85 ;&st7;  " d=" M  7732.59,   348.28  L  7739.95,   344.03  " /><path style="stroke-width: 0.85 ;&st7;  " d=" M  7737.94,   340.56  L  7730.58,   344.81  " /><path style="stroke-width: 0.85 ;&st7;  " d=" M  7729.46,   350.23  L  7720.96,   350.23  " /><path style="stroke-width: 0.85 ;&st7;  " d=" M  7725.21,   307.73  L  7725.21,   282.24  L  7470.25,   282.24  " /><path style="stroke-width: 0.85 ;&st7;  " d=" M  7725.21,   341.73  L  7725.21,   333.23  L  7722.37,   331.81  L  7728.04,   328.98  L  7722.37,   326.15  L  7728.04,   323.31  L  7722.37,   320.48  L  7728.04,   317.65  L  7725.21,   316.23  L  7725.21,   307.73  " /><path style="stroke-width: 0.85 ;&st7;  " d=" M  7739.94,   344.03  L  7737.61,   347.07  L  7736.14,   344.53  L  7739.94,   344.03  L  7738.66,   344.77  L  7737.68,   346.05  L  7737.06,   344.98  L  7738.66,   344.77  L  7738.02,   345.14  L  7737.71,   345.55  L  7737.51,   345.21  L  7738.02,   345.14  " /><path style="stroke-width: 0.85 ;&st7;  " d=" M  7737.94,   340.56  L  7735.61,   343.60  L  7734.14,   341.06  L  7737.94,   340.56  L  7736.66,   341.30  L  7735.67,   342.59  L  7735.05,   341.51  L  7736.66,   341.30  L  7736.02,   341.67  L  7735.70,   342.08  L  7735.51,   341.74  L  7736.02,   341.67  " /><path style="stroke-width: 0.28 ;&st9;  " d=" M  7725.21,   350.23  L  7719.54,   341.73  L  7730.87,   341.73  L  7725.21,   350.23  " /><path style="stroke-width: 0.85 ;&st7;  " d=" M  7725.21,   341.73  L  7725.21,   384.22  " /><g ewd:code="" ewd:figID="255" ewd:comment="3" ewd:figtype="commref"><text style="font-size:6px;font-family:'NSimSun';" transform="matrix(&st17;  7717.27  361.08 )">SPORT (*3)</text></g><path style="stroke-width: 0.85 ;&st7;  " d=" M  7690.02,   281.24  L  7689.75,   281.71  L  7689.65,   282.24  L  7689.75,   282.77  L  7690.02,   283.24  L  7690.43,   283.59  L  7690.94,   283.77  L  7691.48,   283.77  L  7691.99,   283.59  L  7692.40,   283.24  L  7692.68,   282.77  L  7692.77,   282.24  L  7692.68,   281.71  L  7692.40,   281.24  L  7691.99,   280.89  L  7691.48,   280.70  L  7690.94,   280.70  L  7690.43,   280.89  L  7690.02,   281.24  L  7690.41,   281.95  L  7690.41,   282.53  L  7690.79,   282.97  L  7691.36,   283.07  L  7691.86,   282.79  L  7692.06,   282.24  L  7691.86,   281.69  L  7691.36,   281.40  L  7690.79,   281.50  L  7691.21,   282.24  " /><path style="stroke-width: 0.85 ;&st7;  " d=" M  7538.24,   277.99  L  7538.24,   286.49  " /><path style="stroke-width: 0.28 ;&st9;  " d=" M  7538.24,   282.24  L  7529.74,   287.90  L  7529.74,   276.57  L  7538.24,   282.24  " /><path style="stroke-width: 1.42 ;&st7;  " d=" M  7674.21,   384.22  L  7674.21,   401.22  L  7742.20,   401.22  L  7742.20,   384.22  L  7674.21,   384.22  " /><text style="font-size:6px;font-family:'NSimSun';" transform="matrix(&st16; 7692.82 394.69)" ewd:textID="59" ewd:horAlign="center">LED 驱动器</text><path style="stroke-width: 0.85 ;&st7;  " d=" M  7469.06,   281.24  L  7468.78,   281.71  L  7468.69,   282.24  L  7468.78,   282.77  L  7469.06,   283.24  L  7469.47,   283.59  L  7469.98,   283.77  L  7470.52,   283.77  L  7471.03,   283.59  L  7471.44,   283.24  L  7471.71,   282.77  L  7471.81,   282.24  L  7471.71,   281.71  L  7471.44,   281.24  L  7471.03,   280.89  L  7470.52,   280.70  L  7469.98,   280.70  L  7469.47,   280.89  L  7469.06,   281.24  L  7469.45,   281.95  L  7469.45,   282.53  L  7469.82,   282.97  L  7470.40,   283.07  L  7470.90,   282.79  L  7471.10,   282.24  L  7470.90,   281.69  L  7470.40,   281.40  L  7469.82,   281.50  L  7470.25,   282.24  " /><path style="stroke-width: 1.42 ;&st7;  " d=" M  7546.74,   324.73  L  7546.74,   341.73  L  7597.73,   341.73  L  7597.73,   324.73  L  7546.74,   324.73  " /><text style="font-size:6px;font-family:'NSimSun';" transform="matrix(&st16;  7567.68  335.2 )">I/F</text><path style="stroke-width: 0.85 ;&st7;  " d=" M  7589.23,   324.73  L  7589.23,   282.24  " /><path style="stroke-width: 0.85 ;&st7;  " d=" M  7444.75,   307.73  L  7555.23,   307.73  L  7555.23,   324.73  " /><path style="stroke-width: 0.85 ;&st7;  " d=" M  7555.23,   341.73  L  7555.23,   367.22  " /><path style="stroke-width: 0.85 ;&st7;  " d=" M  7572.23,   341.73  L  7572.23,   367.22  " /><path style="stroke-width: 0.85 ;&st7;  " d=" M  7589.23,   341.73  L  7589.23,   367.22  " /><path style="stroke-width: 0.85 ;&st7;  " d=" M  7443.56,   306.73  L  7443.29,   307.20  L  7443.19,   307.73  L  7443.29,   308.27  L  7443.56,   308.74  L  7443.97,   309.08  L  7444.48,   309.27  L  7445.02,   309.27  L  7445.53,   309.08  L  7445.95,   308.74  L  7446.22,   308.27  L  7446.31,   307.73  L  7446.22,   307.20  L  7445.95,   306.73  L  7445.53,   306.39  L  7445.02,   306.20  L  7444.48,   306.20  L  7443.97,   306.39  L  7443.56,   306.73  L  7443.95,   307.44  L  7443.95,   308.03  L  7444.33,   308.47  L  7444.90,   308.57  L  7445.40,   308.28  L  7445.60,   307.73  L  7445.40,   307.19  L  7444.90,   306.90  L  7444.33,   307.00  L  7444.75,   307.73  " /><path style="stroke-width: 0.85 ;&st7;  " d=" M  7588.04,   281.24  L  7587.76,   281.71  L  7587.67,   282.24  L  7587.76,   282.77  L  7588.04,   283.24  L  7588.45,   283.59  L  7588.96,   283.77  L  7589.50,   283.77  L  7590.01,   283.59  L  7590.42,   283.24  L  7590.69,   282.77  L  7590.79,   282.24  L  7590.69,   281.71  L  7590.42,   281.24  L  7590.01,   280.89  L  7589.50,   280.70  L  7588.96,   280.70  L  7588.45,   280.89  L  7588.04,   281.24  L  7588.43,   281.95  L  7588.43,   282.53  L  7588.80,   282.97  L  7589.38,   283.07  L  7589.88,   282.79  L  7590.08,   282.24  L  7589.88,   281.69  L  7589.38,   281.40  L  7588.80,   281.50  L  7589.23,   282.24  " /><path style="stroke-width: 1.42 ;&st7;  " d=" M  7351.27,   333.23  L  7351.27,   350.23  L  7385.26,   350.23  L  7385.26,   333.23  L  7351.27,   333.23  " /><path style="stroke-width: 1.42 ;&st7;  " d=" M  7351.27,   299.24  L  7351.27,   316.23  L  7385.26,   316.23  L  7385.26,   299.24  L  7351.27,   299.24  " /><path style="stroke-width: 0.85 ;&st7;  " d=" M  7368.27,   367.22  L  7368.27,   350.23  " /><path style="stroke-width: 0.85 ;&st7;  " d=" M  7368.27,   333.23  L  7368.27,   316.23  " /><path style="stroke-width: 0.85 ;&st7;  " d=" M  7563.73,   409.72  L  7563.73,   392.72  " /><path style="stroke-width: 0.85 ;&st7;  " d=" M  7512.74,   409.72  L  7512.74,   392.72  " /><path style="stroke-width: 1.42 ;&st7;  " d=" M  7504.24,   409.72  L  7572.23,   409.72  L  7572.23,   426.71  L  7504.24,   426.71  L  7504.24,   409.72  " /><text style="font-size:6px;font-family:'NSimSun';" transform="matrix(&st16;  7363.72  343.7 )">I/F</text><text style="font-size:6px;font-family:'NSimSun';" transform="matrix(&st16; 7359.48 309.70)" ewd:textID="18" ewd:horAlign="center">蜂鸣器</text><text style="font-size:6px;font-family:'NSimSun';" transform="matrix(&st16; 7523.38 420.18)" ewd:textID="73" ewd:horAlign="center">换档指示灯</text><text style="font-size:6px;font-family:'NSimSun';" transform="matrix(&st16; 7523.30 434.35)" ewd:textID="58" ewd:horAlign="center">LCD 显示屏</text><text style="font-size:6px;font-family:'NSimSun';" transform="matrix(&st16;  7619.93  492.71 )">11</text><text style="font-size:6px;font-family:'NSimSun';" transform="matrix(&st16;  7629.42  492.71 )">A</text><path style="stroke-width: 1.42 ;&st7;   " d=" M  7636.26,   490.74  C  7636.26    488.23   7634.23    486.20   7631.72    486.20  " /><path style="stroke-width: 1.42 ;&st7;   " d=" M  7631.72,   486.20  C  7629.22    486.20   7627.19    488.23   7627.19    490.74  " /><path style="stroke-width: 1.42 ;&st7;   " d=" M  7627.19,   490.74  C  7627.19    493.24   7629.22    495.27   7631.72    495.27  " /><path style="stroke-width: 1.42 ;&st7;   " d=" M  7631.72,   495.27  C  7634.23    495.27   7636.26    493.24   7636.26    490.74  " /><text style="font-size:6px;font-family:'NSimSun';" transform="matrix(&st16;  7432.96  492.71 )">31</text><path style="stroke-width: 1.42 ;&st7;   " d=" M  7449.29,   490.74  C  7449.29    488.23   7447.26    486.20   7444.76    486.20  " /><path style="stroke-width: 1.42 ;&st7;   " d=" M  7444.76,   486.20  C  7442.25    486.20   7440.22    488.23   7440.22    490.74  " /><path style="stroke-width: 1.42 ;&st7;   " d=" M  7440.22,   490.74  C  7440.22    493.24   7442.25    495.27   7444.76    495.27  " /><path style="stroke-width: 1.42 ;&st7;   " d=" M  7444.76,   495.27  C  7447.26    495.27   7449.29    493.24   7449.29    490.74  " /><text style="font-size:6px;font-family:'NSimSun';" transform="matrix(&st16;  7442.45  492.71 )">A</text><text style="font-size:6px;font-family:'NSimSun';" transform="matrix(&st16;  7364.97  492.71 )">32</text><path style="stroke-width: 1.42 ;&st7;   " d=" M  7381.30,   490.74  C  7381.30    488.23   7379.27    486.20   7376.77    486.20  " /><path style="stroke-width: 1.42 ;&st7;   " d=" M  7376.77,   486.20  C  7374.26    486.20   7372.23    488.23   7372.23    490.74  " /><path style="stroke-width: 1.42 ;&st7;   " d=" M  7372.23,   490.74  C  7372.23    493.24   7374.26    495.27   7376.77    495.27  " /><path style="stroke-width: 1.42 ;&st7;   " d=" M  7376.77,   495.27  C  7379.27    495.27   7381.30    493.24   7381.30    490.74  " /><text style="font-size:6px;font-family:'NSimSun';" transform="matrix(&st16;  7374.46  492.71 )">A</text><text style="font-size:6px;font-family:'NSimSun';" transform="matrix(&st16;  7407.46  245.68 )">40</text><text style="font-size:6px;font-family:'NSimSun';" transform="matrix(&st16;  7416.96  245.68 )">A</text><path style="stroke-width: 1.42 ;&st7;   " d=" M  7423.79,   243.71  C  7423.79    241.21   7421.76    239.18   7419.26    239.18  " /><path style="stroke-width: 1.42 ;&st7;   " d=" M  7419.26,   239.18  C  7416.76    239.18   7414.73    241.21   7414.73    243.71  " /><path style="stroke-width: 1.42 ;&st7;   " d=" M  7414.73,   243.71  C  7414.73    246.21   7416.76    248.24   7419.26    248.24  " /><path style="stroke-width: 1.42 ;&st7;   " d=" M  7419.26,   248.24  C  7421.76    248.24   7423.79    246.21   7423.79    243.71  " /><text style="font-size:6px;font-family:'NSimSun';" transform="matrix(&st16;  7458.46  245.68 )">39</text><path style="stroke-width: 1.42 ;&st7;   " d=" M  7474.78,   243.71  C  7474.78    241.21   7472.76    239.18   7470.25    239.18  " /><path style="stroke-width: 1.42 ;&st7;   " d=" M  7470.25,   239.18  C  7467.75    239.18   7465.72    241.21   7465.72    243.71  " /><path style="stroke-width: 1.42 ;&st7;   " d=" M  7465.72,   243.71  C  7465.72    246.21   7467.75    248.24   7470.25    248.24  " /><path style="stroke-width: 1.42 ;&st7;   " d=" M  7470.25,   248.24  C  7472.76    248.24   7474.78    246.21   7474.78    243.71  " /><text style="font-size:6px;font-family:'NSimSun';" transform="matrix(&st16;  7467.95  245.68 )">A</text><text style="font-size:6px;font-family:'NSimSun';" transform="matrix(&st16;  7475.45  492.71 )">21</text><text style="font-size:6px;font-family:'NSimSun';" transform="matrix(&st16;  7484.94  492.71 )">A</text><path style="stroke-width: 1.42 ;&st7;   " d=" M  7491.78,   490.74  C  7491.78    488.23   7489.75    486.20   7487.25    486.20  " /><path style="stroke-width: 1.42 ;&st7;   " d=" M  7487.25,   486.20  C  7484.75    486.20   7482.72    488.23   7482.72    490.74  " /><path style="stroke-width: 1.42 ;&st7;   " d=" M  7482.72,   490.74  C  7482.72    493.24   7484.75    495.27   7487.25    495.27  " /><path style="stroke-width: 1.42 ;&st7;   " d=" M  7487.25,   495.27  C  7489.75    495.27   7491.78    493.24   7491.78    490.74  " /><text style="font-size:6px;font-family:'NSimSun';" transform="matrix(&st16;  7827.0  492.71 )">6</text><text style="font-size:6px;font-family:'NSimSun';" transform="matrix(&st16;  7833.39  492.71 )">A</text><path style="stroke-width: 1.42 ;&st7;   " d=" M  7840.22,   490.74  C  7840.22    488.23   7838.19    486.20   7835.69    486.20  " /><path style="stroke-width: 1.42 ;&st7;   " d=" M  7835.69,   486.20  C  7833.19    486.20   7831.16    488.23   7831.16    490.74  " /><path style="stroke-width: 1.42 ;&st7;   " d=" M  7831.16,   490.74  C  7831.16    493.24   7833.19    495.27   7835.69    495.27  " /><path style="stroke-width: 1.42 ;&st7;   " d=" M  7835.69,   495.27  C  7838.19    495.27   7840.22    493.24   7840.22    490.74  " /><text style="font-size:6px;font-family:'NSimSun';" transform="matrix(&st16;  7911.98  492.71 )">5</text><path style="stroke-width: 1.42 ;&st7;   " d=" M  7925.21,   490.74  C  7925.21    488.23   7923.18    486.20   7920.68    486.20  " /><path style="stroke-width: 1.42 ;&st7;   " d=" M  7920.68,   486.20  C  7918.17    486.20   7916.14    488.23   7916.14    490.74  " /><path style="stroke-width: 1.42 ;&st7;   " d=" M  7916.14,   490.74  C  7916.14    493.24   7918.17    495.27   7920.68    495.27  " /><path style="stroke-width: 1.42 ;&st7;   " d=" M  7920.68,   495.27  C  7923.18    495.27   7925.21    493.24   7925.21    490.74  " /><text style="font-size:6px;font-family:'NSimSun';" transform="matrix(&st16;  7918.37  492.71 )">A</text><g ewd:figtype="title"><text style="font-size:6px;font-family:'NSimSun';" transform="matrix(&st16;  7611.32  244.55 )" ewd:textID="26">组合仪表总成</text><text style="font-size:6px;font-family:'NSimSun';" transform="matrix(&st16;  7611.32  237.44 )">E55(A)</text></g></g><g ewd:figtype="jb" ewd:figID="100" ewd:code="3"><path style="stroke-width: 0.85 ;&st7;  " d=" M  7470.25,   103.77  L  7470.25,   129.26  " /><path style="stroke-width: 1.42 ;&st7;  " d=" M  7472.38,   129.26  L  7468.13,   129.26  " /><path style="stroke-width: 1.42 ;&st7;  " d=" M  7472.38,   137.76  L  7468.13,   137.76  " /><path style="stroke-width: 1.42 ;&st7;   " d=" M  7470.25,    81.11  C  7467.51     82.72   7466.60     86.25   7468.21     88.98  " /><path style="stroke-width: 1.42 ;&st7;   " d=" M  7468.21,    88.98  C  7468.73     89.87   7469.37     90.50   7470.25     91.02  " /><path style="stroke-width: 1.42 ;&st7;   " d=" M  7470.25,   100.94  C  7472.99     99.32   7473.90     95.79   7472.29     93.06  " /><path style="stroke-width: 1.42 ;&st7;   " d=" M  7472.29,    93.06  C  7471.77     92.17   7471.13     91.54   7470.25     91.02  " /><path style="stroke-width: 0.85 ;&st7;   " d=" M  7471.67,    79.69  C  7471.67     78.91   7471.03     78.27   7470.25     78.27  " /><path style="stroke-width: 0.85 ;&st7;   " d=" M  7470.25,    78.27  C  7469.47     78.27   7468.84     78.91   7468.84     79.69  " /><path style="stroke-width: 0.85 ;&st7;   " d=" M  7468.84,    79.69  C  7468.84     80.47   7469.47     81.11   7470.25     81.11  " /><path style="stroke-width: 0.85 ;&st7;   " d=" M  7470.25,    81.11  C  7471.03     81.11   7471.67     80.47   7471.67     79.69  " /><path style="stroke-width: 0.85 ;&st7;   " d=" M  7471.67,   102.35  C  7471.67    101.57   7471.03    100.94   7470.25    100.94  " /><path style="stroke-width: 0.85 ;&st7;   " d=" M  7470.25,   100.94  C  7469.47    100.94   7468.84    101.57   7468.84    102.35  " /><path style="stroke-width: 0.85 ;&st7;   " d=" M  7468.84,   102.35  C  7468.84    103.13   7469.47    103.77   7470.25    103.77  " /><path style="stroke-width: 0.85 ;&st7;   " d=" M  7470.25,   103.77  C  7471.03    103.77   7471.67    103.13   7471.67    102.35  " /><path style="stroke-width: 1.42 ;&st7;   " d=" M  7468.13,   129.26  C  7465.78    129.26   7463.88    131.17   7463.88    133.51  " /><path style="stroke-width: 1.42 ;&st7;   " d=" M  7472.38,   137.76  C  7474.72    137.76   7476.63    135.86   7476.63    133.51  " /><path style="stroke-width: 1.42 ;&st7;   " d=" M  7463.88,   133.51  C  7463.88    135.86   7465.78    137.76   7468.13    137.76  " /><path style="stroke-width: 1.42 ;&st7;   " d=" M  7476.63,   133.51  C  7476.63    131.17   7474.72    129.26   7472.38    129.26  " /><path style="stroke-width: 0.28 ;&st9;  " d=" M  7470.25,   124.37  L  7467.42,   121.54  L  7467.42,   125.79  L  7470.25,   128.62  L  7473.08,   125.79  L  7473.08,   121.54  L  7470.25,   124.37  " /><path style="stroke-width: 1.42 ;&st7;  " d=" M  7457.50,    69.77  L  7457.50,   112.27  L  7483.00,   112.27  L  7483.00,    69.77  L  7457.50,    69.77  " /><text style="font-size:6px;font-family:'NSimSun';" transform="matrix(&st16;  7466.28  135.48 )">3C</text><text style="font-size:6px;font-family:'NSimSun';" transform="matrix(&st16;  7456.64  135.48 )">55</text><text style="font-size:6px;font-family:'NSimSun';" transform="matrix(&st16;  7465.04  66.08 )">(IG)</text><text style="font-size:6px;font-family:'NSimSun';" transform="matrix(&st16;  7486.68  90.16 )">5A <tspan x="0 " dy="6.0">MET</tspan></text><text style="font-size:6px;font-family:'NSimSun';" transform="matrix(&st16;  7464.07  120.46 )">2</text></g><g ewd:figtype="jb" ewd:figID="101" ewd:code="3"><path style="stroke-width: 1.42 ;&st7;  " d=" M  7387.39,   214.25  L  7383.14,   214.25  " /><path style="stroke-width: 1.42 ;&st7;  " d=" M  7387.39,   205.75  L  7383.14,   205.75  " /><path style="stroke-width: 1.42 ;&st7;  " d=" M  7387.39,   180.26  L  7383.14,   180.26  " /><path style="stroke-width: 1.42 ;&st7;  " d=" M  7387.39,   171.76  L  7383.14,   171.76  " /><path style="stroke-width: 1.42 ;&st7;   " d=" M  7391.64,   210.00  C  7391.64    207.65   7389.74    205.75   7387.39    205.75  " /><path style="stroke-width: 1.42 ;&st7;   " d=" M  7387.39,   214.25  C  7389.74    214.25   7391.64    212.35   7391.64    210.00  " /><path style="stroke-width: 1.42 ;&st7;   " d=" M  7378.89,   210.00  C  7378.89    212.35   7380.79    214.25   7383.14    214.25  " /><path style="stroke-width: 1.42 ;&st7;   " d=" M  7383.14,   205.75  C  7380.79    205.75   7378.89    207.65   7378.89    210.00  " /><path style="stroke-width: 1.42 ;&st7;   " d=" M  7391.64,   176.01  C  7391.64    173.66   7389.74    171.76   7387.39    171.76  " /><path style="stroke-width: 1.42 ;&st7;   " d=" M  7387.39,   180.26  C  7389.74    180.26   7391.64    178.35   7391.64    176.01  " /><path style="stroke-width: 1.42 ;&st7;   " d=" M  7378.89,   176.01  C  7378.89    178.35   7380.79    180.26   7383.14    180.26  " /><path style="stroke-width: 1.42 ;&st7;   " d=" M  7383.14,   171.76  C  7380.79    171.76   7378.89    173.66   7378.89    176.01  " /><path style="stroke-width: 0.28 ;&st9;  " d=" M  7385.26,   200.86  L  7382.43,   198.02  L  7382.43,   202.27  L  7385.26,   205.11  L  7388.10,   202.27  L  7388.10,   198.02  L  7385.26,   200.86  " /><path style="stroke-width: 0.28 ;&st9;  " d=" M  7385.26,   185.15  L  7388.10,   187.98  L  7388.10,   183.73  L  7385.26,   180.90  L  7382.43,   183.73  L  7382.43,   187.98  L  7385.26,   185.15  " /><path style="stroke-width: 0.85 ;&st7;  " d=" M  7385.26,   205.75  L  7385.26,   180.26  " /><text style="font-size:6px;font-family:'NSimSun';" transform="matrix(&st16;  7371.66  211.97 )">44</text><text style="font-size:6px;font-family:'NSimSun';" transform="matrix(&st16;  7381.41  211.97 )">3A</text><text style="font-size:6px;font-family:'NSimSun';" transform="matrix(&st16;  7371.66  177.98 )">34</text><text style="font-size:6px;font-family:'NSimSun';" transform="matrix(&st16;  7381.33  177.98 )">3D</text></g><g ewd:figtype="gp" ewd:figID="149" ewd:code="ED"><path style="stroke-width: 0.85 ;&st7;  " d=" M  7483.00,   704.33  L  7491.50,   704.33  " /><path style="stroke-width: 0.85 ;&st7;  " d=" M  7485.83,   710.00  L  7488.66,   710.00  " /><path style="stroke-width: 0.85 ;&st7;  " d=" M  7484.41,   707.17  L  7490.08,   707.17  " /><path style="stroke-width: 0.85 ;&st7;  " d=" M  7478.75,   701.50  L  7495.74,   701.50  " /><path style="stroke-width: 0.85 ;&st7;  " d=" M  7487.25,   697.25  L  7487.25,   701.50  " /></g></svg>