<?xml version="1.0" encoding="utf-8"?>
<!DOCTYPE svg PUBLIC "-//W3C//DTD SVG 1.0//EN" "http://www.w3.org/TR/2001/REC-SVG-20010904/DTD/svg10.dtd"[
	<!ENTITY ns_flows "http://ns.adobe.com/Flows/1.0/">
	<!ENTITY ns_svg "http://www.w3.org/2000/svg">
	<!ENTITY ns_xlink "http://www.w3.org/1999/xlink">
	<!ENTITY st0 "font-size:7px;font-family:'NSimSun';adobe-font-script:japanese;">
	<!ENTITY st1 "font-size:6px;font-family:'NSimSun';">
	<!-- White fill  -->
	<!ENTITY st2 "fill:#FFFFFF;stroke:#000000; stroke-width:1.41;stroke-linecap:round;stroke-linejoin:round;">
	<!-- Yellow fill  -->
	<!ENTITY st3 "fill:#FFFFCC;stroke:#FFFFCC; stroke-width:0.1;stroke-linecap:round;stroke-linejoin:round;">
	<!-- Gray fill  -->
	<!ENTITY st4 "fill:#CCCCCC;stroke:#CCCCCC; stroke-width:0.1;stroke-linecap:round;stroke-linejoin:round;">
	<!-- Light-blue fill -->
	<!ENTITY st5 "fill:#CCECF4;stroke:#000000; stroke-width:1.133;stroke-linecap:round;stroke-linejoin:round;">
	<!ENTITY st6 "fill:none;stroke-linecap:butt; stroke-linejoin:round;">
	<!ENTITY st7 "fill:none;stroke:#000000;stroke-linecap:round;stroke-linejoin:round;">
	<!ENTITY st8 "enable-background:new    ;">
	<!-- Black fill -->
	<!ENTITY st9 "fill:#000000;stroke:#000000; stroke-linecap:round;stroke-linejoin:round;">
	<!-- SRS note   -->
	<!ENTITY st10 "font-size:9px;font-family:'NSimSun';">
	<!ENTITY st11 "font-size:9px;font-family:'NSimSun';">
	<!ENTITY st12 "font-size:6px;font-family:'NSimSun';">
	<!ENTITY st13 "fill:none;stroke:#ff0000;stroke-linecap:round;stroke-linejoin:round;">
	<!-- Yellow fill  -->
	<!ENTITY st14 "fill:#FFFF00;stroke:#FFFF00; stroke-width:0.1;stroke-linecap:round;stroke-linejoin:round;">
	<!ENTITY st15 "font-size:6px;font-family:'NSimSun';adobe-font-script:japanese;">
	<!ENTITY st16 "1.00 0.00 0.00 1.00">
	<!ENTITY st17 "0.00 -1.00 1.00 0.00">
	<!ENTITY st18 "font-size:6px;font-family:'NSimSun';">
	<!ENTITY st19 "font-size:9px;font-family:'NSimSun';">
	<!ENTITY st20 "font-size:6px;font-family:'NSimSun';adobe-font-script:japanese;">
	<!ENTITY st21 "font-size:7px;font-family:'NSimSun';adobe-font-script:japanese;">
	<!ATTLIST svg
		xmlns:ewd CDATA #FIXED "http://shcl.co.jp/ewd"
		xmlns:a CDATA #FIXED "http://ns.adobe.com/AdobeSVGViewerExtensions/3.0/"
		ewd:ver CDATA #IMPLIED
	>
	<!ATTLIST a
		ewd:lineID CDATA #IMPLIED
		ewd:groupID CDATA #IMPLIED
		ewd:figtype CDATA #IMPLIED
		ewd:code CDATA #IMPLIED
		ewd:figID CDATA #IMPLIED
		ewd:pinNo CDATA #IMPLIED
		ewd:comment CDATA #IMPLIED >
	<!ATTLIST g
		ewd:lineID CDATA #IMPLIED
		ewd:groupID CDATA #IMPLIED
		ewd:figtype CDATA #IMPLIED
		ewd:code CDATA #IMPLIED
		ewd:figID CDATA #IMPLIED
		ewd:pinNo CDATA #IMPLIED
		ewd:comment CDATA #IMPLIED >
	<!ATTLIST text
		ewd:textID CDATA #IMPLIED
		ewd:horAlign CDATA #IMPLIED >
	<!ATTLIST title
		ewd:textID CDATA #IMPLIED >
]>
<!-- Generator: Shintec Hozumi YS   -->
<svg onload="call_execInitLoadProc_svg('system')" style="overflow:visible;  enable-background:new 0 0 9651.725 710.000" viewBox="0 0 9611.904 710.000" height="710.000" width="9611.904" xml:space="preserve" ewd:ver="2.1.2.6F" xmlns="&ns_svg;" xmlns:ewd="http://shcl.co.jp/ewd" xmlns:a="http://ns.adobe.com/AdobeSVGViewerExtensions/3.0/" xmlns:xlink="&ns_xlink;">
<text style="font-size:6px;font-family:'NSimSun';" transform="matrix(&st17;  9140.78  472.76 )">BR</text><path style="stroke-width: 1.42 ;&st7;  " d=" M  9424.93,   299.24  L  9416.43,   299.24  " /><text style="font-size:6px;font-family:'NSimSun';" transform="matrix(&st17;  9424.06  269.95 )">(*1)</text><text style="font-size:6px;font-family:'NSimSun';" transform="matrix(&st17;  9412.73  268.48 )">SB</text><text style="font-size:6px;font-family:'NSimSun';" transform="matrix(&st17;  9424.06  337.94 )">(*1)</text><text style="font-size:6px;font-family:'NSimSun';" transform="matrix(&st17;  9412.73  336.47 )">SB</text><text style="font-size:6px;font-family:'NSimSun';" transform="matrix(&st17;  9152.11  475.47 )">(*11)</text><path style="stroke-width: 1.42 ;&st7;  " d=" M  9016.99,   511.70  L  9025.49,   511.70  " /><text style="font-size:6px;font-family:'NSimSun';" transform="matrix(&st17;  9021.8  547.38 )">B</text><text style="font-size:6px;font-family:'NSimSun';" transform="matrix(&st17;  9021.8  470.82 )">R</text><text style="font-size:6px;font-family:'NSimSun';" transform="matrix(&st16;  9297.24  236.05 )">SB(*1)</text><text style="font-size:6px;font-family:'NSimSun';" transform="matrix(&st16;  9348.23  236.05 )">SB(*1)</text><text style="font-size:6px;font-family:'NSimSun';" transform="matrix(&st16;  9347.92  660.98 )">BR(*1)</text><text style="font-size:6px;font-family:'NSimSun';" transform="matrix(&st16;  9296.93  660.98 )">BR(*1)</text><text style="font-size:6px;font-family:'NSimSun';" transform="matrix(&st17;  9033.13  475.47 )">(*11)</text><g ewd:figtype="conn" ewd:figID="9" ewd:code="A41,A42"><path style="stroke-width: 1.42 ;&st7;  " d=" M  9008.49,   588.19  L  9008.49,   622.18  L  9042.49,   622.18  L  9042.49,   588.19  L  9008.49,   588.19  " /><g ewd:comment="23,24" ewd:lineID="251"><text style="font-size:6px;font-family:'NSimSun';" transform="matrix(&st16;  9016.8  585.62 )">2</text><text style="font-size:6px;font-family:'NSimSun';" transform="matrix(&st16;  9016.8  576.56 )">2</text><path style="stroke-width: 1.42 ;&st7;   " d=" M  9030.02,   583.65  C  9030.02    581.15   9028.00    579.12   9025.49    579.12  " /><path style="stroke-width: 1.42 ;&st7;   " d=" M  9025.49,   579.12  C  9022.99    579.12   9020.96    581.15   9020.96    583.65  " /><path style="stroke-width: 1.42 ;&st7;   " d=" M  9020.96,   583.65  C  9020.96    586.16   9022.99    588.19   9025.49    588.19  " /><path style="stroke-width: 1.42 ;&st7;   " d=" M  9025.49,   588.19  C  9028.00    588.19   9030.02    586.16   9030.02    583.65  " /><text style="font-size:6px;font-family:'NSimSun';" transform="matrix(&st16;  9023.19  576.56 )">A</text><path style="stroke-width: 1.42 ;&st7;   " d=" M  9030.02,   574.59  C  9030.02    572.09   9028.00    570.06   9025.49    570.06  " /><path style="stroke-width: 1.42 ;&st7;   " d=" M  9025.49,   570.06  C  9022.99    570.06   9020.96    572.09   9020.96    574.59  " /><path style="stroke-width: 1.42 ;&st7;   " d=" M  9020.96,   574.59  C  9020.96    577.09   9022.99    579.12   9025.49    579.12  " /><path style="stroke-width: 1.42 ;&st7;   " d=" M  9025.49,   579.12  C  9028.00    579.12   9030.02    577.09   9030.02    574.59  " /><text style="font-size:6px;font-family:'NSimSun';" transform="matrix(&st16;  9023.3  585.62 )">B</text><text style="font-size:6px;font-family:'NSimSun';" transform="matrix(&st16;  9020.4  595.82 )">SP1</text><g ewd:code="" ewd:figID="220" ewd:comment="23" ewd:figtype="commref"><text style="font-size:6px;font-family:'NSimSun';" transform="matrix(&st16;  9030.59  585.62 )">(*23)</text></g><g ewd:code="" ewd:figID="221" ewd:comment="24" ewd:figtype="commref"><text style="font-size:6px;font-family:'NSimSun';" transform="matrix(&st16;  9030.59  576.56 )">(*24)</text></g></g><g ewd:figtype="title"><text style="font-size:6px;font-family:'NSimSun';" transform="matrix(&st16;  9005.09  636.9 )" ewd:textID="15">制动执行器总成<tspan x="0 " dy="6.0" /></text><text style="font-size:6px;font-family:'NSimSun';" transform="matrix(&st16;  9005.08  629.79 )">A41(A),A42(B)</text></g></g><g ewd:figtype="conn" ewd:figID="72" ewd:code="E13,z4"><path style="stroke-width: 1.42 ;&st7;  " d=" M  9399.43,   392.72  L  9569.40,   392.72  L  9569.40,   367.22  L  9399.43,   367.22  L  9399.43,   392.72  " /><path style="stroke-width: 0.85 ;&st7;  " d=" M  9416.42,   367.22  L  9416.42,   392.72  " /><path style="stroke-width: 0.85 ;&st7;  " d=" M  9535.40,   392.72  L  9535.40,   367.22  " /><text style="font-size:6px;font-family:'NSimSun';" transform="matrix(&st16;  9419.01  375.42 )">CCS</text><text style="font-size:6px;font-family:'NSimSun';" transform="matrix(&st16;  9537.99  375.42 )">ECC</text><text style="font-size:6px;font-family:'NSimSun';" transform="matrix(&st16;  9526.71  364.66 )">2</text><text style="font-size:6px;font-family:'NSimSun';" transform="matrix(&st16;  9533.1  364.66 )">A</text><path style="stroke-width: 1.42 ;&st7;   " d=" M  9539.94,   362.69  C  9539.94    360.19   9537.91    358.16   9535.41    358.16  " /><path style="stroke-width: 1.42 ;&st7;   " d=" M  9535.41,   358.16  C  9532.90    358.16   9530.87    360.19   9530.87    362.69  " /><path style="stroke-width: 1.42 ;&st7;   " d=" M  9530.87,   362.69  C  9530.87    365.19   9532.90    367.22   9535.41    367.22  " /><path style="stroke-width: 1.42 ;&st7;   " d=" M  9535.41,   367.22  C  9537.91    367.22   9539.94    365.19   9539.94    362.69  " /><text style="font-size:6px;font-family:'NSimSun';" transform="matrix(&st16;  9407.73  364.66 )">1</text><text style="font-size:6px;font-family:'NSimSun';" transform="matrix(&st16;  9414.12  364.66 )">A</text><path style="stroke-width: 1.42 ;&st7;   " d=" M  9420.96,   362.69  C  9420.96    360.19   9418.93    358.16   9416.43    358.16  " /><path style="stroke-width: 1.42 ;&st7;   " d=" M  9416.43,   358.16  C  9413.92    358.16   9411.89    360.19   9411.89    362.69  " /><path style="stroke-width: 1.42 ;&st7;   " d=" M  9411.89,   362.69  C  9411.89    365.19   9413.92    367.22   9416.43    367.22  " /><path style="stroke-width: 1.42 ;&st7;   " d=" M  9416.43,   367.22  C  9418.93    367.22   9420.96    365.19   9420.96    362.69  " /><text style="font-size:6px;font-family:'NSimSun';" transform="matrix(&st16;  9414.01  399.22 )">C</text><text style="font-size:6px;font-family:'NSimSun';" transform="matrix(&st16;  9407.73  399.22 )">3</text><path style="stroke-width: 1.42 ;&st7;   " d=" M  9420.96,   397.25  C  9420.96    394.75   9418.93    392.72   9416.43    392.72  " /><path style="stroke-width: 1.42 ;&st7;   " d=" M  9416.43,   392.72  C  9413.92    392.72   9411.89    394.75   9411.89    397.25  " /><path style="stroke-width: 1.42 ;&st7;   " d=" M  9411.89,   397.25  C  9411.89    399.76   9413.92    401.78   9416.43    401.78  " /><path style="stroke-width: 1.42 ;&st7;   " d=" M  9416.43,   401.78  C  9418.93    401.78   9420.96    399.76   9420.96    397.25  " /><text style="font-size:6px;font-family:'NSimSun';" transform="matrix(&st16;  9532.99  399.22 )">C</text><text style="font-size:6px;font-family:'NSimSun';" transform="matrix(&st16;  9526.71  399.22 )">4</text><path style="stroke-width: 1.42 ;&st7;   " d=" M  9539.94,   397.25  C  9539.94    394.75   9537.91    392.72   9535.41    392.72  " /><path style="stroke-width: 1.42 ;&st7;   " d=" M  9535.41,   392.72  C  9532.90    392.72   9530.87    394.75   9530.87    397.25  " /><path style="stroke-width: 1.42 ;&st7;   " d=" M  9530.87,   397.25  C  9530.87    399.76   9532.90    401.78   9535.41    401.78  " /><path style="stroke-width: 1.42 ;&st7;   " d=" M  9535.41,   401.78  C  9537.91    401.78   9539.94    399.76   9539.94    397.25  " /><g ewd:figtype="title"><text style="font-size:6px;font-family:'NSimSun';" transform="matrix(&st16; 9438.51 356.75)">E13(A),z4(C)</text><text style="font-size:6px;font-family:'NSimSun';" transform="matrix(&st16; 9438.52 363.58)" ewd:textID="70">螺旋电缆分总成<tspan x="0 " dy="6.0" /></text></g></g><g ewd:figtype="conn" ewd:figID="73" ewd:code="z4,z10"><path style="stroke:#000000;stroke-width: 5.10 ;&st6;" d=" M  9535.41,   401.78  L  9535.41,   443.14  " /><path style="stroke:#FF0000;stroke-width: 5.10 ;&st6;" d=" M  9416.43,   401.78  L  9416.43,   443.14  " /><path style="stroke-width: 1.42 ;&st7;  " d=" M  9399.43,   401.78  L  9399.43,   443.14  L  9569.40,   443.14  L  9569.40,   401.78  L  9399.43,   401.78  " /><text style="font-size:6px;font-family:'NSimSun';" transform="matrix(&st17;  9531.71  424.15 )">B</text><text style="font-size:6px;font-family:'NSimSun';" transform="matrix(&st17;  9412.73  424.08 )">R</text><path style="stroke-width: 1.42 ;&st7;   " d=" M  9539.94,   447.68  C  9539.94    445.17   9537.91    443.14   9535.41    443.14  " /><path style="stroke-width: 1.42 ;&st7;   " d=" M  9535.41,   443.14  C  9532.90    443.14   9530.87    445.17   9530.87    447.68  " /><path style="stroke-width: 1.42 ;&st7;   " d=" M  9530.87,   447.68  C  9530.87    450.18   9532.90    452.21   9535.41    452.21  " /><path style="stroke-width: 1.42 ;&st7;   " d=" M  9535.41,   452.21  C  9537.91    452.21   9539.94    450.18   9539.94    447.68  " /><text style="font-size:6px;font-family:'NSimSun';" transform="matrix(&st16;  9533.3  449.65 )">F</text><text style="font-size:6px;font-family:'NSimSun';" transform="matrix(&st16;  9526.71  449.65 )">1</text><path style="stroke-width: 1.42 ;&st7;   " d=" M  9420.96,   447.68  C  9420.96    445.17   9418.93    443.14   9416.43    443.14  " /><path style="stroke-width: 1.42 ;&st7;   " d=" M  9416.43,   443.14  C  9413.92    443.14   9411.89    445.17   9411.89    447.68  " /><path style="stroke-width: 1.42 ;&st7;   " d=" M  9411.89,   447.68  C  9411.89    450.18   9413.92    452.21   9416.43    452.21  " /><path style="stroke-width: 1.42 ;&st7;   " d=" M  9416.43,   452.21  C  9418.93    452.21   9420.96    450.18   9420.96    447.68  " /><text style="font-size:6px;font-family:'NSimSun';" transform="matrix(&st16;  9414.32  449.65 )">F</text><text style="font-size:6px;font-family:'NSimSun';" transform="matrix(&st16;  9407.73  449.65 )">3</text><g ewd:figtype="title"><text style="font-size:6px;font-family:'NSimSun';" transform="matrix(&st17;  9584.12  447.18 )" ewd:textID="30">巡航控制开关线束</text><text style="font-size:6px;font-family:'NSimSun';" transform="matrix(&st17;  9577.01  447.18 )">z4(C),z10(F)</text></g></g><g ewd:figtype="conn" ewd:figID="74" ewd:code="z10"><path style="stroke-width: 0.85 ;&st7;  " d=" M  9535.40,   452.21  L  9535.40,   579.69  L  9509.91,   579.69  " /><path style="stroke-width: 0.85 ;&st7;  " d=" M  9475.91,   579.69  L  9416.42,   579.69  L  9416.42,   452.21  " /><path style="stroke-width: 0.85 ;&st7;  " d=" M  9450.42,   545.69  L  9475.91,   545.69  " /><path style="stroke-width: 0.85 ;&st7;  " d=" M  9450.42,   511.70  L  9475.91,   511.70  " /><path style="stroke-width: 0.85 ;&st7;  " d=" M  9449.22,   510.70  L  9448.95,   511.17  L  9448.86,   511.70  L  9448.95,   512.23  L  9449.22,   512.70  L  9449.64,   513.05  L  9450.15,   513.24  L  9450.69,   513.24  L  9451.20,   513.05  L  9451.61,   512.70  L  9451.88,   512.23  L  9451.98,   511.70  L  9451.88,   511.17  L  9451.61,   510.70  L  9451.20,   510.35  L  9450.69,   510.16  L  9450.15,   510.16  L  9449.64,   510.35  L  9449.22,   510.70  L  9449.62,   511.41  L  9449.62,   511.99  L  9449.99,   512.44  L  9450.56,   512.54  L  9451.07,   512.25  L  9451.27,   511.70  L  9451.07,   511.15  L  9450.56,   510.86  L  9449.99,   510.96  L  9450.42,   511.70  " /><path style="stroke-width: 0.85 ;&st7;  " d=" M  9449.22,   544.69  L  9448.95,   545.16  L  9448.86,   545.69  L  9448.95,   546.23  L  9449.22,   546.70  L  9449.64,   547.04  L  9450.15,   547.23  L  9450.69,   547.23  L  9451.20,   547.04  L  9451.61,   546.70  L  9451.88,   546.23  L  9451.98,   545.69  L  9451.88,   545.16  L  9451.61,   544.69  L  9451.20,   544.35  L  9450.69,   544.16  L  9450.15,   544.16  L  9449.64,   544.35  L  9449.22,   544.69  L  9449.62,   545.40  L  9449.62,   545.99  L  9449.99,   546.43  L  9450.56,   546.53  L  9451.07,   546.24  L  9451.27,   545.69  L  9451.07,   545.15  L  9450.56,   544.86  L  9449.99,   544.96  L  9450.42,   545.69  " /><path style="stroke-width: 0.85 ;&st7;  " d=" M  9449.22,   578.69  L  9448.95,   579.16  L  9448.86,   579.69  L  9448.95,   580.22  L  9449.22,   580.69  L  9449.64,   581.04  L  9450.15,   581.22  L  9450.69,   581.22  L  9451.20,   581.04  L  9451.61,   580.69  L  9451.88,   580.22  L  9451.98,   579.69  L  9451.88,   579.16  L  9451.61,   578.69  L  9451.20,   578.34  L  9450.69,   578.15  L  9450.15,   578.15  L  9449.64,   578.34  L  9449.22,   578.69  L  9449.62,   579.40  L  9449.62,   579.98  L  9449.99,   580.43  L  9450.56,   580.52  L  9451.07,   580.24  L  9451.27,   579.69  L  9451.07,   579.14  L  9450.56,   578.85  L  9449.99,   578.95  L  9450.42,   579.69  " /><path style="stroke-width: 0.85 ;&st7;  " d=" M  9450.42,   579.69  L  9450.42,   571.19  L  9447.58,   569.77  L  9453.25,   566.94  L  9447.58,   564.11  L  9453.25,   561.27  L  9447.58,   558.44  L  9453.25,   555.61  L  9450.42,   554.19  L  9450.42,   545.69  " /><path style="stroke-width: 0.85 ;&st7;  " d=" M  9450.42,   545.69  L  9450.42,   537.20  L  9447.58,   535.78  L  9453.25,   532.95  L  9447.58,   530.11  L  9453.25,   527.28  L  9447.58,   524.45  L  9453.25,   521.61  L  9450.42,   520.20  L  9450.42,   511.70  " /><path style="stroke-width: 0.85 ;&st7;  " d=" M  9450.42,   511.70  L  9450.42,   503.20  L  9447.58,   501.78  L  9453.25,   498.95  L  9447.58,   496.12  L  9453.25,   493.29  L  9447.58,   490.45  L  9453.25,   487.62  L  9450.42,   486.20  L  9450.42,   477.71  " /><path style="stroke-width: 0.85 ;&st7;  " d=" M  9475.91,   477.71  L  9450.42,   477.71  " /><path style="stroke-width: 0.85 ;&st7;  " d=" M  9534.21,   544.69  L  9533.94,   545.16  L  9533.84,   545.69  L  9533.94,   546.23  L  9534.21,   546.70  L  9534.62,   547.04  L  9535.13,   547.23  L  9535.67,   547.23  L  9536.18,   547.04  L  9536.60,   546.70  L  9536.87,   546.23  L  9536.96,   545.69  L  9536.87,   545.16  L  9536.60,   544.69  L  9536.18,   544.35  L  9535.67,   544.16  L  9535.13,   544.16  L  9534.62,   544.35  L  9534.21,   544.69  L  9534.60,   545.40  L  9534.60,   545.99  L  9534.98,   546.43  L  9535.55,   546.53  L  9536.05,   546.24  L  9536.25,   545.69  L  9536.05,   545.15  L  9535.55,   544.86  L  9534.98,   544.96  L  9535.40,   545.69  " /><path style="stroke-width: 0.85 ;&st7;  " d=" M  9534.21,   510.70  L  9533.94,   511.17  L  9533.84,   511.70  L  9533.94,   512.23  L  9534.21,   512.70  L  9534.62,   513.05  L  9535.13,   513.24  L  9535.67,   513.24  L  9536.18,   513.05  L  9536.60,   512.70  L  9536.87,   512.23  L  9536.96,   511.70  L  9536.87,   511.17  L  9536.60,   510.70  L  9536.18,   510.35  L  9535.67,   510.16  L  9535.13,   510.16  L  9534.62,   510.35  L  9534.21,   510.70  L  9534.60,   511.41  L  9534.60,   511.99  L  9534.98,   512.44  L  9535.55,   512.54  L  9536.05,   512.25  L  9536.25,   511.70  L  9536.05,   511.15  L  9535.55,   510.86  L  9534.98,   510.96  L  9535.40,   511.70  " /><path style="stroke-width: 0.85 ;&st7;  " d=" M  9534.21,   476.70  L  9533.94,   477.17  L  9533.84,   477.71  L  9533.94,   478.24  L  9534.21,   478.71  L  9534.62,   479.05  L  9535.13,   479.24  L  9535.67,   479.24  L  9536.18,   479.05  L  9536.60,   478.71  L  9536.87,   478.24  L  9536.96,   477.71  L  9536.87,   477.17  L  9536.60,   476.70  L  9536.18,   476.36  L  9535.67,   476.17  L  9535.13,   476.17  L  9534.62,   476.36  L  9534.21,   476.70  L  9534.60,   477.41  L  9534.60,   478.00  L  9534.98,   478.44  L  9535.55,   478.54  L  9536.05,   478.25  L  9536.25,   477.71  L  9536.05,   477.16  L  9535.55,   476.87  L  9534.98,   476.97  L  9535.40,   477.71  " /><path style="stroke-width: 0.85 ;&st7;  " d=" M  9509.91,   545.69  L  9535.40,   545.69  " /><path style="stroke-width: 0.85 ;&st7;  " d=" M  9509.91,   477.71  L  9535.40,   477.71  " /><path style="stroke-width: 0.85 ;&st7;  " d=" M  9509.91,   511.70  L  9535.40,   511.70  " /><path style="stroke-width: 1.42 ;&st7;  " d=" M  9569.40,   452.21  L  9399.43,   452.21  L  9399.43,   613.68  L  9569.40,   613.68  L  9569.40,   452.21  " /><path style="stroke-width: 0.85 ;&st7;   " d=" M  9483.00,   477.71  C  9483.00    476.92   9482.36    476.29   9481.58    476.29  " /><path style="stroke-width: 0.85 ;&st7;   " d=" M  9481.58,   476.29  C  9480.80    476.29   9480.17    476.92   9480.17    477.71  " /><path style="stroke-width: 0.85 ;&st7;   " d=" M  9480.17,   477.71  C  9480.17    478.49   9480.80    479.12   9481.58    479.12  " /><path style="stroke-width: 0.85 ;&st7;   " d=" M  9481.58,   479.12  C  9482.36    479.12   9483.00    478.49   9483.00    477.71  " /><path style="stroke-width: 0.85 ;&st7;   " d=" M  9505.66,   477.71  C  9505.66    476.92   9505.03    476.29   9504.25    476.29  " /><path style="stroke-width: 0.85 ;&st7;   " d=" M  9504.25,   476.29  C  9503.46    476.29   9502.83    476.92   9502.83    477.71  " /><path style="stroke-width: 0.85 ;&st7;   " d=" M  9502.83,   477.71  C  9502.83    478.49   9503.46    479.12   9504.25    479.12  " /><path style="stroke-width: 0.85 ;&st7;   " d=" M  9504.25,   479.12  C  9505.03    479.12   9505.66    478.49   9505.66    477.71  " /><path style="stroke-width: 0.85 ;&st7;   " d=" M  9483.00,   511.70  C  9483.00    510.92   9482.36    510.28   9481.58    510.28  " /><path style="stroke-width: 0.85 ;&st7;   " d=" M  9481.58,   510.28  C  9480.80    510.28   9480.17    510.92   9480.17    511.70  " /><path style="stroke-width: 0.85 ;&st7;   " d=" M  9480.17,   511.70  C  9480.17    512.48   9480.80    513.12   9481.58    513.12  " /><path style="stroke-width: 0.85 ;&st7;   " d=" M  9481.58,   513.12  C  9482.36    513.12   9483.00    512.48   9483.00    511.70  " /><path style="stroke-width: 0.85 ;&st7;   " d=" M  9505.66,   511.70  C  9505.66    510.92   9505.03    510.28   9504.25    510.28  " /><path style="stroke-width: 0.85 ;&st7;   " d=" M  9504.25,   510.28  C  9503.46    510.28   9502.83    510.92   9502.83    511.70  " /><path style="stroke-width: 0.85 ;&st7;   " d=" M  9502.83,   511.70  C  9502.83    512.48   9503.46    513.12   9504.25    513.12  " /><path style="stroke-width: 0.85 ;&st7;   " d=" M  9504.25,   513.12  C  9505.03    513.12   9505.66    512.48   9505.66    511.70  " /><path style="stroke-width: 0.85 ;&st7;   " d=" M  9483.00,   545.69  C  9483.00    544.91   9482.36    544.28   9481.58    544.28  " /><path style="stroke-width: 0.85 ;&st7;   " d=" M  9481.58,   544.28  C  9480.80    544.28   9480.17    544.91   9480.17    545.69  " /><path style="stroke-width: 0.85 ;&st7;   " d=" M  9480.17,   545.69  C  9480.17    546.48   9480.80    547.11   9481.58    547.11  " /><path style="stroke-width: 0.85 ;&st7;   " d=" M  9481.58,   547.11  C  9482.36    547.11   9483.00    546.48   9483.00    545.69  " /><path style="stroke-width: 0.85 ;&st7;   " d=" M  9505.66,   545.69  C  9505.66    544.91   9505.03    544.28   9504.25    544.28  " /><path style="stroke-width: 0.85 ;&st7;   " d=" M  9504.25,   544.28  C  9503.46    544.28   9502.83    544.91   9502.83    545.69  " /><path style="stroke-width: 0.85 ;&st7;   " d=" M  9502.83,   545.69  C  9502.83    546.48   9503.46    547.11   9504.25    547.11  " /><path style="stroke-width: 0.85 ;&st7;   " d=" M  9504.25,   547.11  C  9505.03    547.11   9505.66    546.48   9505.66    545.69  " /><path style="stroke-width: 0.85 ;&st7;   " d=" M  9483.00,   579.69  C  9483.00    578.91   9482.36    578.27   9481.58    578.27  " /><path style="stroke-width: 0.85 ;&st7;   " d=" M  9481.58,   578.27  C  9480.80    578.27   9480.17    578.91   9480.17    579.69  " /><path style="stroke-width: 0.85 ;&st7;   " d=" M  9480.17,   579.69  C  9480.17    580.47   9480.80    581.10   9481.58    581.10  " /><path style="stroke-width: 0.85 ;&st7;   " d=" M  9481.58,   581.10  C  9482.36    581.10   9483.00    580.47   9483.00    579.69  " /><path style="stroke-width: 0.85 ;&st7;   " d=" M  9505.66,   579.69  C  9505.66    578.91   9505.03    578.27   9504.25    578.27  " /><path style="stroke-width: 0.85 ;&st7;   " d=" M  9504.25,   578.27  C  9503.46    578.27   9502.83    578.91   9502.83    579.69  " /><path style="stroke-width: 0.85 ;&st7;   " d=" M  9502.83,   579.69  C  9502.83    580.47   9503.46    581.10   9504.25    581.10  " /><path style="stroke-width: 0.85 ;&st7;   " d=" M  9504.25,   581.10  C  9505.03    581.10   9505.66    580.47   9505.66    579.69  " /><path style="stroke-width: 0.85 ;&st7;  " d=" M  9480.17,   477.71  L  9475.92,   477.71  " /><path style="stroke-width: 0.85 ;&st7;  " d=" M  9509.91,   477.71  L  9505.66,   477.71  " /><path style="stroke-width: 1.42 ;&st7;  " d=" M  9502.83,   477.71  L  9480.17,   472.04  " /><path style="stroke-width: 0.85 ;&st7;  " d=" M  9480.17,   511.70  L  9475.92,   511.70  " /><path style="stroke-width: 0.85 ;&st7;  " d=" M  9509.91,   511.70  L  9505.66,   511.70  " /><path style="stroke-width: 1.42 ;&st7;  " d=" M  9502.83,   511.70  L  9480.17,   506.03  " /><path style="stroke-width: 0.85 ;&st7;  " d=" M  9480.17,   545.69  L  9475.92,   545.69  " /><path style="stroke-width: 0.85 ;&st7;  " d=" M  9509.91,   545.69  L  9505.66,   545.69  " /><path style="stroke-width: 1.42 ;&st7;  " d=" M  9502.83,   545.69  L  9480.17,   540.03  " /><path style="stroke-width: 0.85 ;&st7;  " d=" M  9480.17,   579.69  L  9475.92,   579.69  " /><path style="stroke-width: 0.85 ;&st7;  " d=" M  9509.91,   579.69  L  9505.66,   579.69  " /><path style="stroke-width: 1.42 ;&st7;  " d=" M  9502.83,   579.69  L  9480.17,   574.02  " /><text style="font-size:6px;font-family:'NSimSun';" transform="matrix(&st16;  9480.53  486.76 )">CANCEL</text><text style="font-size:6px;font-family:'NSimSun';" transform="matrix(&st16;  9480.61  588.74 )">ON-OFF</text><text style="font-size:6px;font-family:'NSimSun';" transform="matrix(&st16;  9484.91  554.75 )">+ RES</text><text style="font-size:6px;font-family:'NSimSun';" transform="matrix(&st16;  9484.83  520.75 )">- SET</text><g ewd:figtype="title"><text style="font-size:6px;font-family:'NSimSun';" transform="matrix(&st16;  9396.02  628.4 )" ewd:textID="28">巡航控制主开关</text><text style="font-size:6px;font-family:'NSimSun';" transform="matrix(&st16;  9396.02  621.29 )">z10(F)</text></g></g><g ewd:figtype="w2w" ewd:figID="135" ewd:code="AE4"><path style="stroke-width: 1.42 ;&st7;  " d=" M  9021.24,   502.63  L  9025.49,   506.88  L  9029.74,   502.63  " /><path style="stroke-width: 1.42 ;&st7;  " d=" M  9029.74,   506.03  L  9025.49,   510.28  L  9021.24,   506.03  " /><text style="font-size:6px;font-family:'NSimSun';" transform="matrix(&st16;  9009.76  517.92 )">17</text></g><g ewd:figtype="w2w" ewd:figID="136" ewd:code="AE3"><path style="stroke-width: 1.42 ;&st7;  " d=" M  9420.67,   304.90  L  9416.42,   300.65  L  9412.17,   304.90  " /><path style="stroke-width: 1.42 ;&st7;  " d=" M  9420.67,   308.30  L  9416.42,   304.05  L  9412.17,   308.30  " /><text style="font-size:6px;font-family:'NSimSun';" transform="matrix(&st16;  9403.8  296.96 )">7</text></g><g ewd:figtype="gp" ewd:figID="148" ewd:code="ED"><path style="stroke-width: 0.85 ;&st7;  " d=" M  9144.47,   697.25  L  9144.47,   701.50  " /><path style="stroke-width: 0.85 ;&st7;  " d=" M  9135.97,   701.50  L  9152.97,   701.50  " /><path style="stroke-width: 0.85 ;&st7;  " d=" M  9140.22,   704.33  L  9148.72,   704.33  " /><path style="stroke-width: 0.85 ;&st7;  " d=" M  9141.64,   707.17  L  9147.30,   707.17  " /><path style="stroke-width: 0.85 ;&st7;  " d=" M  9143.05,   710.00  L  9145.88,   710.00  " /></g></svg>