<?xml version="1.0" encoding="utf-8"?>
<!DOCTYPE svg PUBLIC "-//W3C//DTD SVG 1.0//EN" "http://www.w3.org/TR/2001/REC-SVG-20010904/DTD/svg10.dtd"[
	<!ENTITY ns_flows "http://ns.adobe.com/Flows/1.0/">
	<!ENTITY ns_svg "http://www.w3.org/2000/svg">
	<!ENTITY ns_xlink "http://www.w3.org/1999/xlink">
	<!ENTITY st0 "font-size:7px;font-family:'NSimSun';adobe-font-script:japanese;">
	<!ENTITY st1 "font-size:6px;font-family:'NSimSun';">
	<!-- White fill  -->
	<!ENTITY st2 "fill:#FFFFFF;stroke:#000000; stroke-width:1.41;stroke-linecap:round;stroke-linejoin:round;">
	<!-- Yellow fill  -->
	<!ENTITY st3 "fill:#FFFFCC;stroke:#FFFFCC; stroke-width:0.1;stroke-linecap:round;stroke-linejoin:round;">
	<!-- Gray fill  -->
	<!ENTITY st4 "fill:#CCCCCC;stroke:#CCCCCC; stroke-width:0.1;stroke-linecap:round;stroke-linejoin:round;">
	<!-- Light-blue fill -->
	<!ENTITY st5 "fill:#CCECF4;stroke:#000000; stroke-width:1.133;stroke-linecap:round;stroke-linejoin:round;">
	<!ENTITY st6 "fill:none;stroke-linecap:butt; stroke-linejoin:round;">
	<!ENTITY st7 "fill:none;stroke:#000000;stroke-linecap:round;stroke-linejoin:round;">
	<!ENTITY st8 "enable-background:new    ;">
	<!-- Black fill -->
	<!ENTITY st9 "fill:#000000;stroke:#000000; stroke-linecap:round;stroke-linejoin:round;">
	<!-- SRS note   -->
	<!ENTITY st10 "font-size:9px;font-family:'NSimSun';">
	<!ENTITY st11 "font-size:9px;font-family:'NSimSun';">
	<!ENTITY st12 "font-size:6px;font-family:'NSimSun';">
	<!ENTITY st13 "fill:none;stroke:#ff0000;stroke-linecap:round;stroke-linejoin:round;">
	<!-- Yellow fill  -->
	<!ENTITY st14 "fill:#FFFF00;stroke:#FFFF00; stroke-width:0.1;stroke-linecap:round;stroke-linejoin:round;">
	<!ENTITY st15 "font-size:6px;font-family:'NSimSun';adobe-font-script:japanese;">
	<!ENTITY st16 "1.00 0.00 0.00 1.00">
	<!ENTITY st17 "0.00 -1.00 1.00 0.00">
	<!ENTITY st18 "font-size:6px;font-family:'NSimSun';">
	<!ENTITY st19 "font-size:9px;font-family:'NSimSun';">
	<!ENTITY st20 "font-size:6px;font-family:'NSimSun';adobe-font-script:japanese;">
	<!ENTITY st21 "font-size:7px;font-family:'NSimSun';adobe-font-script:japanese;">
	<!ATTLIST svg
		xmlns:ewd CDATA #FIXED "http://shcl.co.jp/ewd"
		xmlns:a CDATA #FIXED "http://ns.adobe.com/AdobeSVGViewerExtensions/3.0/"
		ewd:ver CDATA #IMPLIED
	>
	<!ATTLIST a
		ewd:lineID CDATA #IMPLIED
		ewd:groupID CDATA #IMPLIED
		ewd:figtype CDATA #IMPLIED
		ewd:code CDATA #IMPLIED
		ewd:figID CDATA #IMPLIED
		ewd:pinNo CDATA #IMPLIED
		ewd:comment CDATA #IMPLIED >
	<!ATTLIST g
		ewd:lineID CDATA #IMPLIED
		ewd:groupID CDATA #IMPLIED
		ewd:figtype CDATA #IMPLIED
		ewd:code CDATA #IMPLIED
		ewd:figID CDATA #IMPLIED
		ewd:pinNo CDATA #IMPLIED
		ewd:comment CDATA #IMPLIED >
	<!ATTLIST text
		ewd:textID CDATA #IMPLIED
		ewd:horAlign CDATA #IMPLIED >
	<!ATTLIST title
		ewd:textID CDATA #IMPLIED >
]>
<!-- Generator: Shintec Hozumi YS   -->
<svg onload="call_execInitLoadProc_svg('system')" style="overflow:visible;  enable-background:new 0 0 9651.725 710.000" viewBox="0 0 9611.904 710.000" height="710.000" width="9611.904" xml:space="preserve" ewd:ver="2.1.2.6F" xmlns="&ns_svg;" xmlns:ewd="http://shcl.co.jp/ewd" xmlns:a="http://ns.adobe.com/AdobeSVGViewerExtensions/3.0/" xmlns:xlink="&ns_xlink;">
<path style="stroke-width: 1.42 ;&st7;  " d=" M  6110.48,   452.21  L  6101.98,   452.21  " /><path style="stroke-width: 1.42 ;&st7;  " d=" M  6283.98,   180.26  L  6288.95,   175.29  " /><path style="stroke-width: 1.42 ;&st7;  " d=" M  6276.92,   163.26  L  6271.95,   168.23  " /><path style="stroke-width: 1.42 ;&st7;  " d=" M  6288.95,   168.23  L  6283.98,   163.26  " /><path style="stroke-width: 1.42 ;&st7;  " d=" M  6271.95,   175.29  L  6276.92,   180.26  " /><text style="font-size:6px;font-family:'NSimSun';" transform="matrix(&st16;  6396.03  338.03 )">ECM</text><path style="stroke-width: 1.42 ;&st7;  " d=" M  6458.92,   486.20  L  6450.42,   486.20  " /><text style="font-size:6px;font-family:'NSimSun';" transform="matrix(&st17;  6446.73  513.31 )">R</text><text style="font-size:6px;font-family:'NSimSun';" transform="matrix(&st17;  6489.22  514.16 )">W</text><text style="font-size:6px;font-family:'NSimSun';" transform="matrix(&st17;  6489.22  463.17 )">W</text><path style="stroke-width: 1.42 ;&st7;  " d=" M  6501.41,   486.20  L  6492.92,   486.20  " /><text style="font-size:6px;font-family:'NSimSun';" transform="matrix(&st17;  6415.57  142.48 )">(*3)</text><text style="font-size:6px;font-family:'NSimSun';" transform="matrix(&st17;  6364.57  142.48 )">(*3)</text><text style="font-size:6px;font-family:'NSimSun';" transform="matrix(&st17;  6288.09  142.48 )">(*3)</text><text style="font-size:6px;font-family:'NSimSun';" transform="matrix(&st17;  6415.57  278.45 )">(*3)</text><text style="font-size:6px;font-family:'NSimSun';" transform="matrix(&st17;  6404.23  275.31 )">L</text><text style="font-size:6px;font-family:'NSimSun';" transform="matrix(&st17;  6404.23  139.33 )">L</text><text style="font-size:6px;font-family:'NSimSun';" transform="matrix(&st17;  6007.63  405.93 )">(*1)</text><text style="font-size:6px;font-family:'NSimSun';" transform="matrix(&st17;  6446.73  462.32 )">R</text><text style="font-size:6px;font-family:'NSimSun';" transform="matrix(&st16;  6396.02  330.93 )">A40(A),B39(B)</text><text style="font-size:6px;font-family:'NSimSun';" transform="matrix(&st17;  6489.22  139.45 )">Y</text><text style="font-size:6px;font-family:'NSimSun';" transform="matrix(&st17;  6370.24  462.28 )">L</text><path style="stroke-width: 1.42 ;&st7;  " d=" M  6339.94,   486.20  L  6331.44,   486.20  " /><text style="font-size:6px;font-family:'NSimSun';" transform="matrix(&st17;  6327.75  463.17 )">W</text><text style="font-size:6px;font-family:'NSimSun';" transform="matrix(&st17;  6327.75  514.16 )">W</text><text style="font-size:6px;font-family:'NSimSun';" transform="matrix(&st17;  6370.24  513.27 )">L</text><path style="stroke-width: 1.42 ;&st7;  " d=" M  6382.43,   486.20  L  6373.94,   486.20  " /><text style="font-size:6px;font-family:'NSimSun';" transform="matrix(&st17;  6098.28  489.99 )">LG</text><text style="font-size:6px;font-family:'NSimSun';" transform="matrix(&st17;  6123.78  489.99 )">LG</text><text style="font-size:6px;font-family:'NSimSun';" transform="matrix(&st17;  6047.29  403.02 )">V</text><text style="font-size:6px;font-family:'NSimSun';" transform="matrix(&st17;  6098.28  405.0 )">LG</text><text style="font-size:6px;font-family:'NSimSun';" transform="matrix(&st17;  6276.75  139.45 )">B</text><text style="font-size:6px;font-family:'NSimSun';" transform="matrix(&st17;  6489.22  276.2 )">W</text><text style="font-size:6px;font-family:'NSimSun';" transform="matrix(&st17;  6353.24  139.45 )">B</text><path style="stroke-width: 1.42 ;&st7;  " d=" M  6484.42,   239.75  L  6492.92,   239.75  " /><path style="stroke-width: 1.42 ;&st7;  " d=" M  6399.43,   239.75  L  6407.93,   239.75  " /><text style="font-size:6px;font-family:'NSimSun';" transform="matrix(&st17;  6489.22  386.69 )">W</text><text style="font-size:6px;font-family:'NSimSun';" transform="matrix(&st17;  6446.73  385.91 )">B</text><text style="font-size:6px;font-family:'NSimSun';" transform="matrix(&st17;  6135.11  492.47 )">(*12)</text><text style="font-size:6px;font-family:'NSimSun';" transform="matrix(&st17;  6109.62  492.47 )">(*11)</text><text style="font-size:6px;font-family:'NSimSun';" transform="matrix(&st16;  6244.15  626.98 )">V</text><text style="font-size:6px;font-family:'NSimSun';" transform="matrix(&st16;  6235.66  609.99 )">LG(*11)</text><text style="font-size:6px;font-family:'NSimSun';" transform="matrix(&st16;  6235.66  592.99 )">LG(*12)</text><text style="font-size:6px;font-family:'NSimSun';" transform="matrix(&st16;  6184.67  592.99 )">LG(*12)</text><text style="font-size:6px;font-family:'NSimSun';" transform="matrix(&st16;  6184.67  609.99 )">LG(*11)</text><text style="font-size:6px;font-family:'NSimSun';" transform="matrix(&st16;  6193.16  626.98 )">V</text><text style="font-size:6px;font-family:'NSimSun';" transform="matrix(&st16;  6186.76  643.98 )">SB(*1)</text><text style="font-size:6px;font-family:'NSimSun';" transform="matrix(&st16;  6237.75  643.98 )">SB(*1)</text><text style="font-size:6px;font-family:'NSimSun';" transform="matrix(&st16;  6186.45  660.98 )">BR(*1)</text><text style="font-size:6px;font-family:'NSimSun';" transform="matrix(&st16;  6237.44  660.98 )">BR(*1)</text><g ewd:figtype="conn" ewd:figID="29" ewd:code="A40,B39"><g ewd:lineID="207"><path style="stroke-width: 1.42 ;&st7;   " d=" M  6004.53,   363.26  C  6004.53    360.75   6002.50    358.73   6000.00    358.73  " /><path style="stroke-width: 1.42 ;&st7;   " d=" M  6000.00,   358.73  C  5997.49    358.73   5995.46    360.75   5995.46    363.26  " /><path style="stroke-width: 1.42 ;&st7;   " d=" M  6000.00,   367.79  C  6002.50    367.79   6004.53    365.76   6004.53    363.26  " /></g><g ewd:lineID="208"><text style="font-size:6px;font-family:'NSimSun';" transform="matrix(&st16;  6039.22  365.23 )">44</text><path style="stroke-width: 1.42 ;&st7;   " d=" M  6055.52,   363.26  C  6055.52    360.75   6053.49    358.73   6050.99    358.73  " /><path style="stroke-width: 1.42 ;&st7;   " d=" M  6050.99,   358.73  C  6048.49    358.73   6046.46    360.75   6046.46    363.26  " /><path style="stroke-width: 1.42 ;&st7;   " d=" M  6046.46,   363.26  C  6046.46    365.76   6048.49    367.79   6050.99    367.79  " /><path style="stroke-width: 1.42 ;&st7;   " d=" M  6050.99,   367.79  C  6053.49    367.79   6055.52    365.76   6055.52    363.26  " /><text style="font-size:6px;font-family:'NSimSun';" transform="matrix(&st16;  6048.68  365.23 )">A</text><text style="font-size:6px;font-family:'NSimSun';" transform="matrix(&st16;  6045.31  355.03 )">SPD</text></g><g ewd:lineID="211"><text style="font-size:6px;font-family:'NSimSun';" transform="matrix(&st16;  6090.21  365.23 )">27</text><text style="font-size:6px;font-family:'NSimSun';" transform="matrix(&st16;  6099.68  365.23 )">A</text><path style="stroke-width: 1.42 ;&st7;   " d=" M  6106.51,   363.26  C  6106.51    360.75   6104.48    358.73   6101.98    358.73  " /><path style="stroke-width: 1.42 ;&st7;   " d=" M  6101.98,   358.73  C  6099.48    358.73   6097.45    360.75   6097.45    363.26  " /><path style="stroke-width: 1.42 ;&st7;   " d=" M  6097.45,   363.26  C  6097.45    365.76   6099.48    367.79   6101.98    367.79  " /><path style="stroke-width: 1.42 ;&st7;   " d=" M  6101.98,   367.79  C  6104.48    367.79   6106.51    365.76   6106.51    363.26  " /><text style="font-size:6px;font-family:'NSimSun';" transform="matrix(&st16;  6099.02  355.03 )">W</text></g><g ewd:lineID="216"><text style="font-size:6px;font-family:'NSimSun';" transform="matrix(&st16;  6396.16  305.17 )">59</text><text style="font-size:6px;font-family:'NSimSun';" transform="matrix(&st16;  6405.62  305.17 )">A</text><path style="stroke-width: 1.42 ;&st7;   " d=" M  6412.46,   303.20  C  6412.46    300.70   6410.43    298.67   6407.93    298.67  " /><path style="stroke-width: 1.42 ;&st7;   " d=" M  6407.93,   298.67  C  6405.43    298.67   6403.40    300.70   6403.40    303.20  " /><path style="stroke-width: 1.42 ;&st7;   " d=" M  6403.40,   303.20  C  6403.40    305.70   6405.43    307.73   6407.93    307.73  " /><path style="stroke-width: 1.42 ;&st7;   " d=" M  6407.93,   307.73  C  6410.43    307.73   6412.46    305.70   6412.46    303.20  " /><text style="font-size:6px;font-family:'NSimSun';" transform="matrix(&st16;  6406.13  315.37 )">S</text></g><g ewd:lineID="219"><text style="font-size:6px;font-family:'NSimSun';" transform="matrix(&st16;  6438.65  365.23 )">13</text><path style="stroke-width: 1.42 ;&st7;   " d=" M  6454.95,   363.26  C  6454.95    360.75   6452.93    358.73   6450.42    358.73  " /><path style="stroke-width: 1.42 ;&st7;   " d=" M  6450.42,   358.73  C  6447.92    358.73   6445.89    360.75   6445.89    363.26  " /><path style="stroke-width: 1.42 ;&st7;   " d=" M  6445.89,   363.26  C  6445.89    365.76   6447.92    367.79   6450.42    367.79  " /><path style="stroke-width: 1.42 ;&st7;   " d=" M  6450.42,   367.79  C  6452.93    367.79   6454.95    365.76   6454.95    363.26  " /><text style="font-size:6px;font-family:'NSimSun';" transform="matrix(&st16;  6448.12  365.23 )">A</text><text style="font-size:6px;font-family:'NSimSun';" transform="matrix(&st16;  6441.64  355.03 )">CANH</text></g><g ewd:lineID="221"><text style="font-size:6px;font-family:'NSimSun';" transform="matrix(&st16;  6481.15  365.23 )">26</text><text style="font-size:6px;font-family:'NSimSun';" transform="matrix(&st16;  6490.61  365.23 )">A</text><path style="stroke-width: 1.42 ;&st7;   " d=" M  6497.45,   363.26  C  6497.45    360.75   6495.42    358.73   6492.92    358.73  " /><path style="stroke-width: 1.42 ;&st7;   " d=" M  6492.92,   358.73  C  6490.41    358.73   6488.38    360.75   6488.38    363.26  " /><path style="stroke-width: 1.42 ;&st7;   " d=" M  6488.38,   363.26  C  6488.38    365.76   6490.41    367.79   6492.92    367.79  " /><path style="stroke-width: 1.42 ;&st7;   " d=" M  6492.92,   367.79  C  6495.42    367.79   6497.45    365.76   6497.45    363.26  " /><text style="font-size:6px;font-family:'NSimSun';" transform="matrix(&st16;  6484.56  355.03 )">CANL</text></g><g ewd:lineID="222"><text style="font-size:6px;font-family:'NSimSun';" transform="matrix(&st16;  6481.15  305.17 )">42</text><path style="stroke-width: 1.42 ;&st7;   " d=" M  6497.45,   303.20  C  6497.45    300.70   6495.42    298.67   6492.92    298.67  " /><path style="stroke-width: 1.42 ;&st7;   " d=" M  6492.92,   298.67  C  6490.41    298.67   6488.38    300.70   6488.38    303.20  " /><path style="stroke-width: 1.42 ;&st7;   " d=" M  6488.38,   303.20  C  6488.38    305.70   6490.41    307.73   6492.92    307.73  " /><path style="stroke-width: 1.42 ;&st7;   " d=" M  6492.92,   307.73  C  6495.42    307.73   6497.45    305.70   6497.45    303.20  " /><text style="font-size:6px;font-family:'NSimSun';" transform="matrix(&st16;  6490.61  305.17 )">A</text><text style="font-size:6px;font-family:'NSimSun';" transform="matrix(&st16;  6485.18  315.37 )">SFTU</text></g></g><g ewd:figtype="conn" ewd:figID="66" ewd:code="E44"><path style="stroke-width: 1.42 ;&st7;  " d=" M  6339.94,    35.78  L  6339.94,    86.77  L  6705.38,    86.77  L  6705.38,    35.78  L  6339.94,    35.78  " /><path style="stroke-width: 0.85 ;&st7;  " d=" M  6687.19,    68.77  L  6686.92,    69.24  L  6686.82,    69.77  L  6686.92,    70.31  L  6687.19,    70.78  L  6687.60,    71.12  L  6688.11,    71.31  L  6688.65,    71.31  L  6689.16,    71.12  L  6689.57,    70.78  L  6689.84,    70.31  L  6689.94,    69.77  L  6689.84,    69.24  L  6689.57,    68.77  L  6689.16,    68.43  L  6688.65,    68.24  L  6688.11,    68.24  L  6687.60,    68.43  L  6687.19,    68.77  L  6687.58,    69.48  L  6687.58,    70.07  L  6687.95,    70.51  L  6688.53,    70.61  L  6689.03,    70.32  L  6689.23,    69.77  L  6689.03,    69.23  L  6688.53,    68.94  L  6687.95,    69.04  L  6688.38,    69.77  " /><path style="stroke-width: 0.85 ;&st7;  " d=" M  6662.88,    69.77  L  6688.38,    69.77  " /><path style="stroke-width: 0.85 ;&st7;  " d=" M  6552.40,    52.78  L  6688.38,    52.78  L  6688.38,    86.77  " /><path style="stroke-width: 0.85 ;&st7;  " d=" M  6603.39,    86.77  L  6603.39,    69.77  L  6628.89,    69.77  " /><path style="stroke-width: 0.85 ;&st7;  " d=" M  6356.94,    86.77  L  6356.94,    69.77  L  6365.43,    69.77  " /><path style="stroke-width: 0.85 ;&st7;  " d=" M  6399.43,    69.77  L  6407.93,    69.77  L  6407.93,    86.77  " /><path style="stroke-width: 0.85 ;&st7;  " d=" M  6492.91,    86.77  L  6492.91,    52.78  L  6518.41,    52.78  " /><path style="stroke-width: 0.85 ;&st7;   " d=" M  6635.97,    69.77  C  6635.97     68.99   6635.34     68.36   6634.56     68.36  " /><path style="stroke-width: 0.85 ;&st7;   " d=" M  6634.56,    68.36  C  6633.78     68.36   6633.14     68.99   6633.14     69.77  " /><path style="stroke-width: 0.85 ;&st7;   " d=" M  6633.14,    69.77  C  6633.14     70.56   6633.78     71.19   6634.56     71.19  " /><path style="stroke-width: 0.85 ;&st7;   " d=" M  6634.56,    71.19  C  6635.34     71.19   6635.97     70.56   6635.97     69.77  " /><path style="stroke-width: 0.85 ;&st7;   " d=" M  6658.64,    69.77  C  6658.64     68.99   6658.00     68.36   6657.22     68.36  " /><path style="stroke-width: 0.85 ;&st7;   " d=" M  6657.22,    68.36  C  6656.44     68.36   6655.80     68.99   6655.80     69.77  " /><path style="stroke-width: 0.85 ;&st7;   " d=" M  6655.80,    69.77  C  6655.80     70.56   6656.44     71.19   6657.22     71.19  " /><path style="stroke-width: 0.85 ;&st7;   " d=" M  6657.22,    71.19  C  6658.00     71.19   6658.64     70.56   6658.64     69.77  " /><path style="stroke-width: 0.85 ;&st7;   " d=" M  6525.49,    52.78  C  6525.49     51.99   6524.86     51.36   6524.08     51.36  " /><path style="stroke-width: 0.85 ;&st7;   " d=" M  6524.08,    51.36  C  6523.29     51.36   6522.66     51.99   6522.66     52.78  " /><path style="stroke-width: 0.85 ;&st7;   " d=" M  6522.66,    52.78  C  6522.66     53.56   6523.29     54.19   6524.08     54.19  " /><path style="stroke-width: 0.85 ;&st7;   " d=" M  6524.08,    54.19  C  6524.86     54.19   6525.49     53.56   6525.49     52.78  " /><path style="stroke-width: 0.85 ;&st7;   " d=" M  6548.16,    52.78  C  6548.16     51.99   6547.52     51.36   6546.74     51.36  " /><path style="stroke-width: 0.85 ;&st7;   " d=" M  6546.74,    51.36  C  6545.96     51.36   6545.32     51.99   6545.32     52.78  " /><path style="stroke-width: 0.85 ;&st7;   " d=" M  6545.32,    52.78  C  6545.32     53.56   6545.96     54.19   6546.74     54.19  " /><path style="stroke-width: 0.85 ;&st7;   " d=" M  6546.74,    54.19  C  6547.52     54.19   6548.16     53.56   6548.16     52.78  " /><path style="stroke-width: 0.85 ;&st7;  " d=" M  6662.89,    69.77  L  6658.64,    69.77  " /><path style="stroke-width: 0.85 ;&st7;  " d=" M  6633.14,    69.77  L  6628.89,    69.77  " /><path style="stroke-width: 1.42 ;&st7;  " d=" M  6635.97,    69.77  L  6658.64,    64.11  " /><path style="stroke-width: 0.85 ;&st7;  " d=" M  6522.66,    52.78  L  6518.41,    52.78  " /><path style="stroke-width: 0.85 ;&st7;  " d=" M  6552.41,    52.78  L  6548.16,    52.78  " /><path style="stroke-width: 1.42 ;&st7;  " d=" M  6525.49,    52.78  L  6548.16,    47.11  " /><path style="stroke-width: 0.85 ;&st7;  " d=" M  6369.69,    69.77  L  6365.44,    69.77  " /><path style="stroke-width: 0.85 ;&st7;  " d=" M  6399.43,    69.77  L  6395.18,    69.77  " /><path style="stroke-width: 1.42 ;&st7;  " d=" M  6372.52,    69.77  L  6395.18,    64.11  " /><path style="stroke-width: 0.85 ;&st7;   " d=" M  6372.52,    69.77  C  6372.52     68.99   6371.88     68.36   6371.10     68.36  " /><path style="stroke-width: 0.85 ;&st7;   " d=" M  6371.10,    68.36  C  6370.32     68.36   6369.69     68.99   6369.69     69.77  " /><path style="stroke-width: 0.85 ;&st7;   " d=" M  6369.69,    69.77  C  6369.69     70.56   6370.32     71.19   6371.10     71.19  " /><path style="stroke-width: 0.85 ;&st7;   " d=" M  6371.10,    71.19  C  6371.88     71.19   6372.52     70.56   6372.52     69.77  " /><path style="stroke-width: 0.85 ;&st7;   " d=" M  6395.18,    69.77  C  6395.18     68.99   6394.55     68.36   6393.77     68.36  " /><path style="stroke-width: 0.85 ;&st7;   " d=" M  6393.77,    68.36  C  6392.98     68.36   6392.35     68.99   6392.35     69.77  " /><path style="stroke-width: 0.85 ;&st7;   " d=" M  6392.35,    69.77  C  6392.35     70.56   6392.98     71.19   6393.77     71.19  " /><path style="stroke-width: 0.85 ;&st7;   " d=" M  6393.77,    71.19  C  6394.55     71.19   6395.18     70.56   6395.18     69.77  " /><text style="font-size:6px;font-family:'NSimSun';" transform="matrix(&st16;  6690.97  83.08 )">E</text><text style="font-size:6px;font-family:'NSimSun';" transform="matrix(&st16;  6605.98  83.08 )">SFTD</text><text style="font-size:6px;font-family:'NSimSun';" transform="matrix(&st16;  6495.5  83.08 )">SFTU</text><text style="font-size:6px;font-family:'NSimSun';" transform="matrix(&st16;  6410.51  83.08 )">S</text><text style="font-size:6px;font-family:'NSimSun';" transform="matrix(&st16;  6359.52  83.08 )">IG</text><text style="font-size:6px;font-family:'NSimSun';" transform="matrix(&st16;  6350.75  94.96 )">4</text><text style="font-size:6px;font-family:'NSimSun';" transform="matrix(&st16;  6401.75  94.96 )">5</text><text style="font-size:6px;font-family:'NSimSun';" transform="matrix(&st16;  6486.73  94.96 )">3</text><text style="font-size:6px;font-family:'NSimSun';" transform="matrix(&st16;  6597.21  94.96 )">1</text><text style="font-size:6px;font-family:'NSimSun';" transform="matrix(&st16;  6682.2  94.96 )">2</text><g ewd:figtype="title"><text style="font-size:6px;font-family:'NSimSun';" transform="matrix(&st16;  6336.54  32.08 )" ewd:textID="74">变速器控制开关（变速器地板式换档总成）</text><text style="font-size:6px;font-family:'NSimSun';" transform="matrix(&st16;  6336.53  24.98 )">E44</text></g></g><g ewd:figtype="conn" ewd:figID="68" ewd:code="A39"><path style="stroke-width: 0.85 ;&st7;  " d=" M  6373.93,   435.21  L  6373.93,   426.71  L  6450.42,   426.71  " /><path style="stroke-width: 0.85 ;&st7;  " d=" M  6492.91,   418.22  L  6331.44,   418.22  L  6331.44,   435.21  " /><path style="stroke-width: 0.85 ;&st7;  " d=" M  6450.42,   409.72  L  6450.42,   435.21  " /><path style="stroke-width: 0.85 ;&st7;  " d=" M  6492.91,   409.72  L  6492.91,   435.21  " /><path style="stroke-width: 1.42 ;&st7;  " d=" M  6322.94,   435.21  L  6501.41,   435.21  L  6501.41,   409.72  L  6322.94,   409.72  L  6322.94,   435.21  " /><path style="stroke-width: 0.85 ;&st7;  " d=" M  6491.72,   417.21  L  6491.45,   417.68  L  6491.35,   418.22  L  6491.45,   418.75  L  6491.72,   419.22  L  6492.13,   419.56  L  6492.64,   419.75  L  6493.18,   419.75  L  6493.69,   419.56  L  6494.11,   419.22  L  6494.38,   418.75  L  6494.47,   418.22  L  6494.38,   417.68  L  6494.11,   417.21  L  6493.69,   416.87  L  6493.18,   416.68  L  6492.64,   416.68  L  6492.13,   416.87  L  6491.72,   417.21  L  6492.11,   417.92  L  6492.11,   418.51  L  6492.49,   418.95  L  6493.06,   419.05  L  6493.56,   418.76  L  6493.76,   418.22  L  6493.56,   417.67  L  6493.06,   417.38  L  6492.49,   417.48  L  6492.91,   418.22  " /><path style="stroke-width: 0.85 ;&st7;  " d=" M  6449.23,   425.71  L  6448.95,   426.18  L  6448.86,   426.71  L  6448.95,   427.25  L  6449.23,   427.72  L  6449.64,   428.06  L  6450.15,   428.25  L  6450.69,   428.25  L  6451.20,   428.06  L  6451.61,   427.72  L  6451.88,   427.25  L  6451.98,   426.71  L  6451.88,   426.18  L  6451.61,   425.71  L  6451.20,   425.37  L  6450.69,   425.18  L  6450.15,   425.18  L  6449.64,   425.37  L  6449.23,   425.71  L  6449.62,   426.42  L  6449.62,   427.01  L  6449.99,   427.45  L  6450.57,   427.55  L  6451.07,   427.26  L  6451.27,   426.71  L  6451.07,   426.17  L  6450.57,   425.88  L  6449.99,   425.98  L  6450.42,   426.71  " /><text style="font-size:6px;font-family:'NSimSun';" transform="matrix(&st16;  6322.16  443.41 )">12</text><text style="font-size:6px;font-family:'NSimSun';" transform="matrix(&st16;  6367.75  443.41 )">1</text><text style="font-size:6px;font-family:'NSimSun';" transform="matrix(&st16;  6444.24  443.41 )">2</text><text style="font-size:6px;font-family:'NSimSun';" transform="matrix(&st16;  6444.24  406.03 )">6</text><text style="font-size:6px;font-family:'NSimSun';" transform="matrix(&st16;  6483.63  443.41 )">13</text><text style="font-size:6px;font-family:'NSimSun';" transform="matrix(&st16;  6483.63  406.03 )">17</text><g ewd:figtype="title"><text style="font-size:6px;font-family:'NSimSun';" transform="matrix(&st16;  6319.53  399.2 )">A39</text><text style="font-size:6px;font-family:'NSimSun';" transform="matrix(&st16;  6319.54  406.02 )" ewd:textID="58">1 号 CAN 接线连接器</text></g></g><g ewd:figtype="jb" ewd:figID="92" ewd:code="3"><path style="stroke-width: 0.85 ;&st7;   " d=" M  6281.87,    68.36  C  6281.87     67.57   6281.23     66.94   6280.45     66.94  " /><path style="stroke-width: 0.85 ;&st7;   " d=" M  6280.45,    66.94  C  6279.67     66.94   6279.03     67.57   6279.03     68.36  " /><path style="stroke-width: 0.85 ;&st7;   " d=" M  6279.03,    68.36  C  6279.03     69.14   6279.67     69.77   6280.45     69.77  " /><path style="stroke-width: 0.85 ;&st7;   " d=" M  6280.45,    69.77  C  6281.23     69.77   6281.87     69.14   6281.87     68.36  " /><path style="stroke-width: 1.42 ;&st7;  " d=" M  6267.70,    35.78  L  6267.70,    78.27  L  6293.20,    78.27  L  6293.20,    35.78  L  6267.70,    35.78  " /><path style="stroke-width: 0.28 ;&st9;  " d=" M  6280.45,    90.37  L  6277.62,    87.54  L  6277.62,    91.79  L  6280.45,    94.62  L  6283.28,    91.79  L  6283.28,    87.54  L  6280.45,    90.37  " /><text style="font-size:6px;font-family:'NSimSun';" transform="matrix(&st16;  6275.24  32.08 )">(IG)</text><text style="font-size:6px;font-family:'NSimSun';" transform="matrix(&st16;  6266.84  101.49 )">38</text><text style="font-size:6px;font-family:'NSimSun';" transform="matrix(&st16;  6276.48  101.49 )">3C</text><text style="font-size:6px;font-family:'NSimSun';" transform="matrix(&st16;  6296.88  53.34 )">7.5A <tspan x="0 " dy="6.0">ECU-IG </tspan><tspan x="0 " dy="6.0">NO.3</tspan></text><path style="stroke-width: 1.42 ;&st7;   " d=" M  6286.82,    99.52  C  6286.82     97.17   6284.92     95.27   6282.58     95.27  " /><path style="stroke-width: 1.42 ;&st7;   " d=" M  6282.58,   103.77  C  6284.92    103.77   6286.82    101.87   6286.82     99.52  " /><path style="stroke-width: 1.42 ;&st7;   " d=" M  6274.08,    99.52  C  6274.08    101.87   6275.98    103.77   6278.33    103.77  " /><path style="stroke-width: 1.42 ;&st7;   " d=" M  6278.33,    95.27  C  6275.98     95.27   6274.08     97.17   6274.08     99.52  " /><path style="stroke-width: 0.85 ;&st7;   " d=" M  6281.87,    45.69  C  6281.87     44.91   6281.23     44.28   6280.45     44.28  " /><path style="stroke-width: 0.85 ;&st7;   " d=" M  6280.45,    44.28  C  6279.67     44.28   6279.03     44.91   6279.03     45.69  " /><path style="stroke-width: 0.85 ;&st7;   " d=" M  6279.03,    45.69  C  6279.03     46.48   6279.67     47.11   6280.45     47.11  " /><path style="stroke-width: 0.85 ;&st7;   " d=" M  6280.45,    47.11  C  6281.23     47.11   6281.87     46.48   6281.87     45.69  " /><path style="stroke-width: 1.42 ;&st7;   " d=" M  6280.45,    47.11  C  6277.71     48.72   6276.80     52.25   6278.41     54.99  " /><path style="stroke-width: 1.42 ;&st7;   " d=" M  6278.41,    54.99  C  6278.93     55.87   6279.57     56.51   6280.45     57.03  " /><path style="stroke-width: 1.42 ;&st7;   " d=" M  6280.45,    66.94  C  6283.19     65.33   6284.10     61.80   6282.49     59.06  " /><path style="stroke-width: 1.42 ;&st7;   " d=" M  6282.49,    59.06  C  6281.97     58.18   6281.33     57.55   6280.45     57.03  " /><text style="font-size:6px;font-family:'NSimSun';" transform="matrix(&st16;  6274.27  86.47 )">2</text><path style="stroke-width: 1.42 ;&st7;  " d=" M  6282.58,    95.27  L  6278.33,    95.27  " /><path style="stroke-width: 0.85 ;&st7;  " d=" M  6280.45,    69.77  L  6280.45,    95.27  " /><path style="stroke-width: 1.42 ;&st7;  " d=" M  6282.58,   103.77  L  6278.33,   103.77  " /></g><g ewd:figtype="w2w" ewd:figID="125" ewd:code="AE4"><path style="stroke-width: 1.42 ;&st7;  " d=" M  6106.23,   457.88  L  6101.98,   453.63  L  6097.73,   457.88  " /><path style="stroke-width: 1.42 ;&st7;  " d=" M  6106.23,   461.27  L  6101.98,   457.03  L  6097.73,   461.27  " /><text style="font-size:6px;font-family:'NSimSun';" transform="matrix(&st16;  6086.25  449.93 )">18</text></g><g ewd:figtype="w2w" ewd:figID="126" ewd:code="AE4"><path style="stroke-width: 1.42 ;&st7;  " d=" M  6335.69,   495.27  L  6331.44,   491.02  L  6327.19,   495.27  " /><path style="stroke-width: 1.42 ;&st7;  " d=" M  6335.69,   491.87  L  6331.44,   487.62  L  6327.19,   491.87  " /><text style="font-size:6px;font-family:'NSimSun';" transform="matrix(&st16;  6318.81  483.92 )">3</text></g><g ewd:figtype="w2w" ewd:figID="127" ewd:code="AE4"><text style="font-size:6px;font-family:'NSimSun';" transform="matrix(&st16;  6361.3  483.92 )">4</text><path style="stroke-width: 1.42 ;&st7;  " d=" M  6378.18,   491.87  L  6373.93,   487.62  L  6369.68,   491.87  " /><path style="stroke-width: 1.42 ;&st7;  " d=" M  6378.18,   495.27  L  6373.93,   491.02  L  6369.68,   495.27  " /></g><g ewd:figtype="w2w" ewd:figID="128" ewd:code="AE5"><path style="stroke-width: 1.42 ;&st7;  " d=" M  6412.18,   234.08  L  6407.93,   238.33  L  6403.68,   234.08  " /><path style="stroke-width: 1.42 ;&st7;  " d=" M  6403.68,   230.68  L  6407.93,   234.93  L  6412.18,   230.68  " /><text style="font-size:6px;font-family:'NSimSun';" transform="matrix(&st16;  6392.2  245.96 )">11</text></g><g ewd:figtype="w2w" ewd:figID="129" ewd:code="AE3"><path style="stroke-width: 1.42 ;&st7;  " d=" M  6454.67,   495.27  L  6450.42,   491.02  L  6446.17,   495.27  " /><path style="stroke-width: 1.42 ;&st7;  " d=" M  6454.67,   491.87  L  6450.42,   487.62  L  6446.17,   491.87  " /><text style="font-size:6px;font-family:'NSimSun';" transform="matrix(&st16;  6437.79  483.92 )">8</text></g><g ewd:figtype="w2w" ewd:figID="130" ewd:code="AE3"><text style="font-size:6px;font-family:'NSimSun';" transform="matrix(&st16;  6480.28  483.92 )">9</text><path style="stroke-width: 1.42 ;&st7;  " d=" M  6497.16,   491.87  L  6492.91,   487.62  L  6488.66,   491.87  " /><path style="stroke-width: 1.42 ;&st7;  " d=" M  6497.16,   495.27  L  6492.91,   491.02  L  6488.66,   495.27  " /></g><g ewd:figtype="w2w" ewd:figID="131" ewd:code="AE5"><path style="stroke-width: 1.42 ;&st7;  " d=" M  6497.16,   234.08  L  6492.91,   238.33  L  6488.66,   234.08  " /><path style="stroke-width: 1.42 ;&st7;  " d=" M  6488.66,   230.68  L  6492.91,   234.93  L  6497.16,   230.68  " /><text style="font-size:6px;font-family:'NSimSun';" transform="matrix(&st16;  6477.18  245.96 )">16</text></g><g ewd:code="3" ewd:figID="209" ewd:comment="" ewd:figtype="comment"><text style="font-size:6px;font-family:'NSimSun';" transform="matrix(&st16;  6013.59  71.74 )">* 3 :CVT</text></g><g ewd:code="1" ewd:figID="233" ewd:comment="" ewd:figtype="comment"><text style="font-size:6px;font-family:'NSimSun';" transform="matrix(&st16;  6013.59  54.75 )" ewd:textID="2">* 1 : 带巡航控制系统</text></g><g ewd:code="11" ewd:figID="234" ewd:comment="" ewd:figtype="comment"><text style="font-size:6px;font-family:'NSimSun';" transform="matrix(&st16;  6013.59  80.24 )" ewd:textID="7">* 11 : 带 TFT 显示屏</text></g><g ewd:code="12" ewd:figID="232" ewd:comment="" ewd:figtype="comment"><text style="font-size:6px;font-family:'NSimSun';" transform="matrix(&st16;  6013.59  88.74 )" ewd:textID="8">* 12 : 不带 TFT 显示屏</text></g><g ewd:code="2" ewd:figID="208" ewd:comment="" ewd:figtype="comment"><text style="font-size:6px;font-family:'NSimSun';" transform="matrix(&st16;  6013.59  63.24 )">* 2 :M/T</text></g></svg>