<?xml version="1.0" encoding="utf-8"?>
<!DOCTYPE svg PUBLIC "-//W3C//DTD SVG 1.0//EN" "http://www.w3.org/TR/2001/REC-SVG-20010904/DTD/svg10.dtd"[
	<!ENTITY ns_flows "http://ns.adobe.com/Flows/1.0/">
	<!ENTITY ns_svg "http://www.w3.org/2000/svg">
	<!ENTITY ns_xlink "http://www.w3.org/1999/xlink">
	<!ENTITY st0 "font-size:7px;font-family:'NSimSun';adobe-font-script:japanese;">
	<!ENTITY st1 "font-size:6px;font-family:'NSimSun';">
	<!-- White fill  -->
	<!ENTITY st2 "fill:#FFFFFF;stroke:#000000; stroke-width:1.41;stroke-linecap:round;stroke-linejoin:round;">
	<!-- Yellow fill  -->
	<!ENTITY st3 "fill:#FFFFCC;stroke:#FFFFCC; stroke-width:0.1;stroke-linecap:round;stroke-linejoin:round;">
	<!-- Gray fill  -->
	<!ENTITY st4 "fill:#CCCCCC;stroke:#CCCCCC; stroke-width:0.1;stroke-linecap:round;stroke-linejoin:round;">
	<!-- Light-blue fill -->
	<!ENTITY st5 "fill:#CCECF4;stroke:#000000; stroke-width:1.133;stroke-linecap:round;stroke-linejoin:round;">
	<!ENTITY st6 "fill:none;stroke-linecap:butt; stroke-linejoin:round;">
	<!ENTITY st7 "fill:none;stroke:#000000;stroke-linecap:round;stroke-linejoin:round;">
	<!ENTITY st8 "enable-background:new    ;">
	<!-- Black fill -->
	<!ENTITY st9 "fill:#000000;stroke:#000000; stroke-linecap:round;stroke-linejoin:round;">
	<!-- SRS note   -->
	<!ENTITY st10 "font-size:9px;font-family:'NSimSun';">
	<!ENTITY st11 "font-size:9px;font-family:'NSimSun';">
	<!ENTITY st12 "font-size:6px;font-family:'NSimSun';">
	<!ENTITY st13 "fill:none;stroke:#ff0000;stroke-linecap:round;stroke-linejoin:round;">
	<!-- Yellow fill  -->
	<!ENTITY st14 "fill:#FFFF00;stroke:#FFFF00; stroke-width:0.1;stroke-linecap:round;stroke-linejoin:round;">
	<!ENTITY st15 "font-size:6px;font-family:'NSimSun';adobe-font-script:japanese;">
	<!ENTITY st16 "1.00 0.00 0.00 1.00">
	<!ENTITY st17 "0.00 -1.00 1.00 0.00">
	<!ENTITY st18 "font-size:6px;font-family:'NSimSun';">
	<!ENTITY st19 "font-size:9px;font-family:'NSimSun';">
	<!ENTITY st20 "font-size:6px;font-family:'NSimSun';adobe-font-script:japanese;">
	<!ENTITY st21 "font-size:7px;font-family:'NSimSun';adobe-font-script:japanese;">
	<!ATTLIST svg
		xmlns:ewd CDATA #FIXED "http://shcl.co.jp/ewd"
		xmlns:a CDATA #FIXED "http://ns.adobe.com/AdobeSVGViewerExtensions/3.0/"
		ewd:ver CDATA #IMPLIED
	>
	<!ATTLIST a
		ewd:lineID CDATA #IMPLIED
		ewd:groupID CDATA #IMPLIED
		ewd:figtype CDATA #IMPLIED
		ewd:code CDATA #IMPLIED
		ewd:figID CDATA #IMPLIED
		ewd:pinNo CDATA #IMPLIED
		ewd:comment CDATA #IMPLIED >
	<!ATTLIST g
		ewd:lineID CDATA #IMPLIED
		ewd:groupID CDATA #IMPLIED
		ewd:figtype CDATA #IMPLIED
		ewd:code CDATA #IMPLIED
		ewd:figID CDATA #IMPLIED
		ewd:pinNo CDATA #IMPLIED
		ewd:comment CDATA #IMPLIED >
	<!ATTLIST text
		ewd:textID CDATA #IMPLIED
		ewd:horAlign CDATA #IMPLIED >
	<!ATTLIST title
		ewd:textID CDATA #IMPLIED >
]>
<!-- Generator: Shintec Hozumi YS   -->
<svg onload="call_execInitLoadProc_svg('system')" style="overflow:visible;  enable-background:new 0 0 9651.725 710.000" viewBox="0 0 9611.904 710.000" height="710.000" width="9611.904" xml:space="preserve" ewd:ver="2.1.2.6F" xmlns="&ns_svg;" xmlns:ewd="http://shcl.co.jp/ewd" xmlns:a="http://ns.adobe.com/AdobeSVGViewerExtensions/3.0/" xmlns:xlink="&ns_xlink;">
<text style="font-size:6px;font-family:'NSimSun';" transform="matrix(&st16;  8886.11  168.06 )" ewd:textID="24">组合仪表总成</text><text style="font-size:6px;font-family:'NSimSun';" transform="matrix(&st16;  8886.1  160.95 )">E55(A)</text><text style="font-size:6px;font-family:'NSimSun';" transform="matrix(&st17;  8537.38  148.73 )">W</text><text style="font-size:6px;font-family:'NSimSun';" transform="matrix(&st17;  8571.37  97.73 )">W</text><text style="font-size:6px;font-family:'NSimSun';" transform="matrix(&st17;  8690.35  471.67 )">W</text><text style="font-size:6px;font-family:'NSimSun';" transform="matrix(&st17;  8656.36  472.99 )">LG</text><text style="font-size:6px;font-family:'NSimSun';" transform="matrix(&st17;  8936.81  471.01 )">V</text><text style="font-size:6px;font-family:'NSimSun';" transform="matrix(&st17;  8936.81  615.49 )">V</text><text style="font-size:6px;font-family:'NSimSun';" transform="matrix(&st16;  8778.52  660.98 )">BR(*1)</text><text style="font-size:6px;font-family:'NSimSun';" transform="matrix(&st16;  8829.51  660.98 )">BR(*1)</text><text style="font-size:6px;font-family:'NSimSun';" transform="matrix(&st16;  8829.82  643.98 )">SB(*1)</text><text style="font-size:6px;font-family:'NSimSun';" transform="matrix(&st16;  8778.83  643.98 )">SB(*1)</text><text style="font-size:6px;font-family:'NSimSun';" transform="matrix(&st16;  8785.23  626.98 )">V</text><text style="font-size:6px;font-family:'NSimSun';" transform="matrix(&st16;  8836.22  626.98 )">V</text><text style="font-size:6px;font-family:'NSimSun';" transform="matrix(&st17;  8548.71  152.53 )">(*11)</text><text style="font-size:6px;font-family:'NSimSun';" transform="matrix(&st17;  8582.7  101.53 )">(*11)</text><text style="font-size:6px;font-family:'NSimSun';" transform="matrix(&st17;  8667.69  475.47 )">(*11)</text><text style="font-size:6px;font-family:'NSimSun';" transform="matrix(&st17;  8701.68  475.47 )">(*11)</text><text style="font-size:6px;font-family:'NSimSun';" transform="matrix(&st17;  8948.14  475.47 )">(*11)</text><text style="font-size:6px;font-family:'NSimSun';" transform="matrix(&st16;  8778.71  525.0 )">V(*12)</text><text style="font-size:6px;font-family:'NSimSun';" transform="matrix(&st16;  8778.91  491.01 )">R(*12)</text><text style="font-size:6px;font-family:'NSimSun';" transform="matrix(&st16;  8829.9  491.01 )">R(*12)</text><text style="font-size:6px;font-family:'NSimSun';" transform="matrix(&st16;  8829.7  525.0 )">V(*12)</text><g ewd:figtype="rb" ewd:figID="13" ewd:code="FUSE6"><path style="stroke-width: 0.85 ;&st7;  " d=" M  8617.56,    69.77  L  8617.56,    95.27  " /><path style="stroke-width: 1.42 ;&st7;  " d=" M  8619.68,    95.27  L  8615.44,    95.27  " /><path style="stroke-width: 1.42 ;&st7;  " d=" M  8619.68,   103.77  L  8615.44,   103.77  " /><path style="stroke-width: 1.42 ;&st7;   " d=" M  8615.44,    95.27  C  8613.09     95.27   8611.19     97.17   8611.19     99.52  " /><path style="stroke-width: 1.42 ;&st7;   " d=" M  8611.19,    99.52  C  8611.19    101.87   8613.09    103.77   8615.44    103.77  " /><path style="stroke-width: 1.42 ;&st7;   " d=" M  8619.68,   103.77  C  8622.03    103.77   8623.93    101.87   8623.93     99.52  " /><path style="stroke-width: 1.42 ;&st7;   " d=" M  8623.93,    99.52  C  8623.93     97.17   8622.03     95.27   8619.68     95.27  " /><path style="stroke-width: 0.28 ;&st9;  " d=" M  8617.56,    90.37  L  8614.72,    87.54  L  8614.72,    91.79  L  8617.56,    94.62  L  8620.39,    91.79  L  8620.39,    87.54  L  8617.56,    90.37  " /><text style="font-size:6px;font-family:'NSimSun';" transform="matrix(&st16;  8633.98  53.34 )">10A <tspan x="0 " dy="6.0">ECU-B </tspan><tspan x="0 " dy="6.0">NO.2</tspan></text><text style="font-size:6px;font-family:'NSimSun';" transform="matrix(&st16;  8615.76  101.49 )">1</text><text style="font-size:6px;font-family:'NSimSun';" transform="matrix(&st16;  8611.38  86.47 )">2</text><text style="font-size:6px;font-family:'NSimSun';" transform="matrix(&st16;  8609.52  32.08 )">(BAT)</text><path style="stroke-width: 1.42 ;&st7;   " d=" M  8617.56,    66.94  C  8620.30     65.33   8621.21     61.80   8619.60     59.06  " /><path style="stroke-width: 1.42 ;&st7;   " d=" M  8619.60,    59.06  C  8619.08     58.18   8618.44     57.55   8617.56     57.03  " /><path style="stroke-width: 0.85 ;&st7;   " d=" M  8618.98,    45.69  C  8618.98     44.91   8618.34     44.28   8617.56     44.28  " /><path style="stroke-width: 0.85 ;&st7;   " d=" M  8617.56,    44.28  C  8616.78     44.28   8616.14     44.91   8616.14     45.69  " /><path style="stroke-width: 0.85 ;&st7;   " d=" M  8616.14,    45.69  C  8616.14     46.48   8616.78     47.11   8617.56     47.11  " /><path style="stroke-width: 0.85 ;&st7;   " d=" M  8617.56,    47.11  C  8618.34     47.11   8618.98     46.48   8618.98     45.69  " /><path style="stroke-width: 0.85 ;&st7;   " d=" M  8618.98,    68.36  C  8618.98     67.57   8618.34     66.94   8617.56     66.94  " /><path style="stroke-width: 0.85 ;&st7;   " d=" M  8617.56,    66.94  C  8616.78     66.94   8616.14     67.57   8616.14     68.36  " /><path style="stroke-width: 0.85 ;&st7;   " d=" M  8616.14,    68.36  C  8616.14     69.14   8616.78     69.77   8617.56     69.77  " /><path style="stroke-width: 0.85 ;&st7;   " d=" M  8617.56,    69.77  C  8618.34     69.77   8618.98     69.14   8618.98     68.36  " /><path style="stroke-width: 1.42 ;&st7;   " d=" M  8617.56,    47.11  C  8614.82     48.72   8613.91     52.25   8615.52     54.99  " /><path style="stroke-width: 1.42 ;&st7;   " d=" M  8615.52,    54.99  C  8616.04     55.87   8616.68     56.51   8617.56     57.03  " /><path style="stroke-width: 1.42 ;&st7;  " d=" M  8604.81,    35.78  L  8604.81,    78.27  L  8630.30,    78.27  L  8630.30,    35.78  L  8604.81,    35.78  " /></g><g ewd:figtype="jb" ewd:figID="94" ewd:code="3"><path style="stroke-width: 1.42 ;&st7;  " d=" M  8543.20,   129.26  L  8538.95,   129.26  " /><path style="stroke-width: 1.42 ;&st7;  " d=" M  8543.20,   120.77  L  8538.95,   120.77  " /><path style="stroke-width: 1.42 ;&st7;  " d=" M  8543.20,    86.77  L  8538.95,    86.77  " /><path style="stroke-width: 1.42 ;&st7;  " d=" M  8543.20,    78.27  L  8538.95,    78.27  " /><path style="stroke-width: 1.42 ;&st7;   " d=" M  8547.45,   125.01  C  8547.45    122.67   8545.54    120.77   8543.20    120.77  " /><path style="stroke-width: 1.42 ;&st7;   " d=" M  8543.20,   129.26  C  8545.54    129.26   8547.45    127.36   8547.45    125.01  " /><path style="stroke-width: 1.42 ;&st7;   " d=" M  8534.70,   125.01  C  8534.70    127.36   8536.60    129.26   8538.95    129.26  " /><path style="stroke-width: 1.42 ;&st7;   " d=" M  8538.95,   120.77  C  8536.60    120.77   8534.70    122.67   8534.70    125.01  " /><path style="stroke-width: 1.42 ;&st7;   " d=" M  8547.45,    82.52  C  8547.45     80.17   8545.54     78.27   8543.20     78.27  " /><path style="stroke-width: 1.42 ;&st7;   " d=" M  8543.20,    86.77  C  8545.54     86.77   8547.45     84.87   8547.45     82.52  " /><path style="stroke-width: 1.42 ;&st7;   " d=" M  8534.70,    82.52  C  8534.70     84.87   8536.60     86.77   8538.95     86.77  " /><path style="stroke-width: 1.42 ;&st7;   " d=" M  8538.95,    78.27  C  8536.60     78.27   8534.70     80.17   8534.70     82.52  " /><path style="stroke-width: 0.85 ;&st7;  " d=" M  8541.07,   120.77  L  8541.07,    86.77  " /><path style="stroke-width: 0.28 ;&st9;  " d=" M  8541.07,   115.87  L  8538.24,   113.04  L  8538.24,   117.29  L  8541.07,   120.12  L  8543.90,   117.29  L  8543.90,   113.04  L  8541.07,   115.87  " /><path style="stroke-width: 0.28 ;&st9;  " d=" M  8541.07,    91.67  L  8543.90,    94.50  L  8543.90,    90.25  L  8541.07,    87.42  L  8538.24,    90.25  L  8538.24,    94.50  L  8541.07,    91.67  " /><text style="font-size:6px;font-family:'NSimSun';" transform="matrix(&st16;  8527.46  126.98 )">34</text><text style="font-size:6px;font-family:'NSimSun';" transform="matrix(&st16;  8537.14  126.98 )">3D</text><text style="font-size:6px;font-family:'NSimSun';" transform="matrix(&st16;  8527.46  84.49 )">44</text><text style="font-size:6px;font-family:'NSimSun';" transform="matrix(&st16;  8537.22  84.49 )">3A</text></g><g ewd:figtype="jb" ewd:figID="95" ewd:code="3"><path style="stroke-width: 1.42 ;&st7;  " d=" M  8942.63,   545.69  L  8938.38,   545.69  " /><path style="stroke-width: 1.42 ;&st7;  " d=" M  8942.63,   554.19  L  8938.38,   554.19  " /><path style="stroke-width: 1.42 ;&st7;  " d=" M  8942.63,   588.19  L  8938.38,   588.19  " /><path style="stroke-width: 1.42 ;&st7;  " d=" M  8942.63,   596.69  L  8938.38,   596.69  " /><path style="stroke-width: 1.42 ;&st7;   " d=" M  8938.38,   545.69  C  8936.03    545.69   8934.13    547.60   8934.13    549.94  " /><path style="stroke-width: 1.42 ;&st7;   " d=" M  8934.13,   549.94  C  8934.13    552.29   8936.03    554.19   8938.38    554.19  " /><path style="stroke-width: 1.42 ;&st7;   " d=" M  8942.63,   554.19  C  8944.98    554.19   8946.88    552.29   8946.88    549.94  " /><path style="stroke-width: 1.42 ;&st7;   " d=" M  8946.88,   549.94  C  8946.88    547.60   8944.98    545.69   8942.63    545.69  " /><path style="stroke-width: 1.42 ;&st7;   " d=" M  8938.38,   588.19  C  8936.03    588.19   8934.13    590.09   8934.13    592.44  " /><path style="stroke-width: 1.42 ;&st7;   " d=" M  8934.13,   592.44  C  8934.13    594.78   8936.03    596.69   8938.38    596.69  " /><path style="stroke-width: 1.42 ;&st7;   " d=" M  8942.63,   596.69  C  8944.98    596.69   8946.88    594.78   8946.88    592.44  " /><path style="stroke-width: 1.42 ;&st7;   " d=" M  8946.88,   592.44  C  8946.88    590.09   8944.98    588.19   8942.63    588.19  " /><path style="stroke-width: 0.28 ;&st9;  " d=" M  8940.50,   559.09  L  8943.34,   561.92  L  8943.34,   557.67  L  8940.50,   554.84  L  8937.67,   557.67  L  8937.67,   561.92  L  8940.50,   559.09  " /><path style="stroke-width: 0.28 ;&st9;  " d=" M  8940.50,   583.29  L  8937.67,   580.46  L  8937.67,   584.71  L  8940.50,   587.54  L  8943.34,   584.71  L  8943.34,   580.46  L  8940.50,   583.29  " /><path style="stroke-width: 0.85 ;&st7;  " d=" M  8940.50,   588.19  L  8940.50,   554.19  " /><text style="font-size:6px;font-family:'NSimSun';" transform="matrix(&st16;  8936.57  551.91 )">3D</text><text style="font-size:6px;font-family:'NSimSun';" transform="matrix(&st16;  8926.9  551.91 )">38</text><text style="font-size:6px;font-family:'NSimSun';" transform="matrix(&st16;  8936.65  594.41 )">3A</text><text style="font-size:6px;font-family:'NSimSun';" transform="matrix(&st16;  8926.9  594.41 )">18</text></g><g ewd:code="12" ewd:figID="196" ewd:comment="" ewd:figtype="comment"><text style="font-size:6px;font-family:'NSimSun';" transform="matrix(&st16;  8988.09  71.74 )" ewd:textID="8">* 12 : 不带 TFT 显示屏</text></g><g ewd:code="1" ewd:figID="241" ewd:comment="" ewd:figtype="comment"><text style="font-size:6px;font-family:'NSimSun';" transform="matrix(&st16;  8988.09  46.25 )" ewd:textID="2">* 1 : 带巡航控制系统</text></g><g ewd:code="24" ewd:figID="215" ewd:comment="" ewd:figtype="comment"><text style="font-size:6px;font-family:'NSimSun';" transform="matrix(&st16;  8988.09  88.74 )" ewd:textID="10">* 24 : 不带 VSC</text></g><g ewd:code="23" ewd:figID="210" ewd:comment="" ewd:figtype="comment"><text style="font-size:6px;font-family:'NSimSun';" transform="matrix(&st16;  8988.09  80.24 )" ewd:textID="9">* 23 : 带 VSC</text></g><g ewd:code="11" ewd:figID="206" ewd:comment="" ewd:figtype="comment"><text style="font-size:6px;font-family:'NSimSun';" transform="matrix(&st16;  8988.09  63.24 )" ewd:textID="7">* 11 : 带 TFT 显示屏</text></g><g ewd:code="3" ewd:figID="205" ewd:comment="" ewd:figtype="comment"><text style="font-size:6px;font-family:'NSimSun';" transform="matrix(&st16;  8988.09  54.75 )">* 3 :CVT</text></g></svg>