<?xml version="1.0" encoding="utf-8"?>
<!DOCTYPE svg PUBLIC "-//W3C//DTD SVG 1.0//EN" "http://www.w3.org/TR/2001/REC-SVG-20010904/DTD/svg10.dtd"[
	<!ENTITY ns_flows "http://ns.adobe.com/Flows/1.0/">
	<!ENTITY ns_svg "http://www.w3.org/2000/svg">
	<!ENTITY ns_xlink "http://www.w3.org/1999/xlink">
	<!ENTITY st0 "font-size:7px;font-family:'NSimSun';adobe-font-script:japanese;">
	<!ENTITY st1 "font-size:6px;font-family:'NSimSun';">
	<!-- White fill  -->
	<!ENTITY st2 "fill:#FFFFFF;stroke:#000000; stroke-width:1.41;stroke-linecap:round;stroke-linejoin:round;">
	<!-- Yellow fill  -->
	<!ENTITY st3 "fill:#FFFFCC;stroke:#FFFFCC; stroke-width:0.1;stroke-linecap:round;stroke-linejoin:round;">
	<!-- Gray fill  -->
	<!ENTITY st4 "fill:#CCCCCC;stroke:#CCCCCC; stroke-width:0.1;stroke-linecap:round;stroke-linejoin:round;">
	<!-- Light-blue fill -->
	<!ENTITY st5 "fill:#CCECF4;stroke:#000000; stroke-width:1.133;stroke-linecap:round;stroke-linejoin:round;">
	<!ENTITY st6 "fill:none;stroke-linecap:butt; stroke-linejoin:round;">
	<!ENTITY st7 "fill:none;stroke:#000000;stroke-linecap:round;stroke-linejoin:round;">
	<!ENTITY st8 "enable-background:new    ;">
	<!-- Black fill -->
	<!ENTITY st9 "fill:#000000;stroke:#000000; stroke-linecap:round;stroke-linejoin:round;">
	<!-- SRS note   -->
	<!ENTITY st10 "font-size:9px;font-family:'NSimSun';">
	<!ENTITY st11 "font-size:9px;font-family:'NSimSun';">
	<!ENTITY st12 "font-size:6px;font-family:'NSimSun';">
	<!ENTITY st13 "fill:none;stroke:#ff0000;stroke-linecap:round;stroke-linejoin:round;">
	<!-- Yellow fill  -->
	<!ENTITY st14 "fill:#FFFF00;stroke:#FFFF00; stroke-width:0.1;stroke-linecap:round;stroke-linejoin:round;">
	<!ENTITY st15 "font-size:6px;font-family:'NSimSun';adobe-font-script:japanese;">
	<!ENTITY st16 "1.00 0.00 0.00 1.00">
	<!ENTITY st17 "0.00 -1.00 1.00 0.00">
	<!ENTITY st18 "font-size:6px;font-family:'NSimSun';">
	<!ENTITY st19 "font-size:9px;font-family:'NSimSun';">
	<!ENTITY st20 "font-size:6px;font-family:'NSimSun';adobe-font-script:japanese;">
	<!ENTITY st21 "font-size:7px;font-family:'NSimSun';adobe-font-script:japanese;">
	<!ATTLIST svg
		xmlns:ewd CDATA #FIXED "http://shcl.co.jp/ewd"
		xmlns:a CDATA #FIXED "http://ns.adobe.com/AdobeSVGViewerExtensions/3.0/"
		ewd:ver CDATA #IMPLIED
	>
	<!ATTLIST a
		ewd:lineID CDATA #IMPLIED
		ewd:groupID CDATA #IMPLIED
		ewd:figtype CDATA #IMPLIED
		ewd:code CDATA #IMPLIED
		ewd:figID CDATA #IMPLIED
		ewd:pinNo CDATA #IMPLIED
		ewd:comment CDATA #IMPLIED >
	<!ATTLIST g
		ewd:lineID CDATA #IMPLIED
		ewd:groupID CDATA #IMPLIED
		ewd:figtype CDATA #IMPLIED
		ewd:code CDATA #IMPLIED
		ewd:figID CDATA #IMPLIED
		ewd:pinNo CDATA #IMPLIED
		ewd:comment CDATA #IMPLIED >
	<!ATTLIST text
		ewd:textID CDATA #IMPLIED
		ewd:horAlign CDATA #IMPLIED >
	<!ATTLIST title
		ewd:textID CDATA #IMPLIED >
]>
<!-- Generator: Shintec Hozumi YS   -->
<svg onload="call_execInitLoadProc_svg('system')" style="overflow:visible;  enable-background:new 0 0 952.549 710.000" viewBox="0 0 960.344 710.000" height="710.000" width="960.344" xml:space="preserve" ewd:ver="2.1.2.6F" xmlns="&ns_svg;" xmlns:ewd="http://shcl.co.jp/ewd" xmlns:a="http://ns.adobe.com/AdobeSVGViewerExtensions/3.0/" xmlns:xlink="&ns_xlink;"><script type="text/javascript" xlink:href="../../../../../system/js/ewd/fig/svgfig.js" xmlns:xlink="http://www.w3.org/1999/xlink" />
<g id="ewd_top"><a ewd:figtype="conn" style="cursor:pointer;" ewd:code="E18" ewd:figID="1"><path style="&st5;" d=" M   917.85,   401.22  L   951.84,   401.22  L   951.84,   367.22  L   917.85,   367.22  L   917.85,   401.22 " /><title>DLC3</title></a><a ewd:figtype="conn" style="cursor:pointer;" ewd:code="E10" ewd:figID="2"><path style="&st5;" d=" M   730.88,   477.71  L   730.88,   443.71  L   713.88,   443.71  L   713.88,   477.71  L   730.88,   477.71 " /><title ewd:textID="6">未锁警告开关总成</title></a><a ewd:figtype="rb" style="cursor:pointer;" ewd:code="FUSE6" ewd:figID="3"><path style="fill:#CCECF4;stroke:#000000; stroke-width:0; stroke-linecap:round;stroke-linejoin:round; " d=" M   199.72,    35.78  L   199.72,    78.27  L   225.21,    78.27  L   225.21,    35.78  L   199.72,    35.78 " /></a><a ewd:figtype="conn" style="cursor:pointer;" ewd:code="E61" ewd:figID="4"><path style="&st5;" d=" M   382.44,   452.21  L   433.43,   452.21  L   433.43,   503.20  L   382.44,   503.20  L   382.44,   452.21 " /><title ewd:textID="3">警告灯总成</title></a><a ewd:figtype="conn" style="cursor:pointer;" ewd:code="E29" ewd:figID="5"><path style="&st5;" d=" M   263.46,   222.75  L   263.46,   273.74  L   951.84,   273.74  L   951.84,   222.75  L   263.46,   222.75 " /><title ewd:textID="5">应答器钥匙 ECU 总成</title></a><a ewd:figtype="conn" style="cursor:pointer;" ewd:code="E71" ewd:figID="6"><path style="&st5;" d=" M   603.40,   554.19  L   620.40,   554.19  L   620.40,   571.19  L   603.40,   571.19  L   603.40,   554.19 " /><title ewd:textID="1">4 号接线连接器</title></a><a ewd:figtype="conn" style="cursor:pointer;" ewd:code="E71" ewd:figID="7"><path style="&st5;" d=" M   713.88,   554.19  L   730.88,   554.19  L   730.88,   571.19  L   713.88,   571.19  L   713.88,   554.19 " /><title ewd:textID="1">4 号接线连接器</title></a><a ewd:figtype="conn" style="cursor:pointer;" ewd:code="A40" ewd:figID="8"><path style="&st5;" d=" M   790.37,   477.71  L   875.35,   477.71  L   875.35,   443.71  L   790.37,   443.71  L   790.37,   477.71 " /><title>ECM</title></a><a ewd:figtype="conn" style="cursor:pointer;" ewd:code="E27" ewd:figID="9"><path style="&st5;" d=" M   671.39,    86.77  L   671.39,   137.76  L   790.37,   137.76  L   790.37,    86.77  L   671.39,    86.77 " /><title ewd:textID="4">收发器钥匙线圈</title></a><a ewd:figtype="jb" style="cursor:pointer;" ewd:code="3" ewd:figID="11"><path style="&st4; " d=" M   195.47,   180.26  L   195.47,   231.25  L   220.96,   231.25  L   220.96,   180.26  L   195.47,   180.26  " /></a><a ewd:figtype="jb" style="cursor:pointer;" ewd:code="3" ewd:figID="12"><path style="&st4; " d=" M   118.98,   103.77  L   178.47,   103.77  L   178.47,    35.78  L   118.98,    35.78  L   118.98,   103.77  " /></a><a ewd:figtype="fuse" style="cursor:pointer;" ewd:code="FUSE50" ewd:figID="19"><path style="&st7; stroke-width:0;" d=" M   123.23,    35.78  L   123.23,    78.27  L   148.73,    78.27  L   148.73,    35.78  L   123.23,    35.78 " /></a><a ewd:figtype="fuse" style="cursor:pointer;" ewd:code="FUSE6" ewd:figID="20"><path style="&st7; stroke-width:0;" d=" M   199.72,    35.78  L   199.72,    78.27  L   225.21,    78.27  L   225.21,    35.78  L   199.72,    35.78 " /></a><a style="cursor:pointer;" ewd:lineID="1"> d=" M   212.46,   231.25  L   212.46,   350.23  L   280.45,   350.23  L   280.45,   273.74 
	
		<path style="stroke:#000000;stroke-width: 5.10 ;&st6;" d=" M   212.46,   231.25  L   212.46,   350.23  L   280.45,   350.23  L   280.45,   273.74  " /><path style="stroke:#FFFFFF;stroke-width: 4.53 ;&st6;" d=" M   212.46,   231.25  L   212.46,   350.23  L   280.45,   350.23  L   280.45,   273.74  " /></a><a style="cursor:pointer;" ewd:lineID="2"> d=" M   212.46,   103.77  L   212.46,   180.26 
	
		<path style="stroke:#000000;stroke-width: 5.10 ;&st6;" d=" M   212.46,   103.77  L   212.46,   180.26  " /><path style="stroke:#FFFFFF;stroke-width: 4.53 ;&st6;" d=" M   212.46,   103.77  L   212.46,   180.26  " /></a><a style="cursor:pointer;" ewd:lineID="3"><path style="stroke:#000000;stroke-width: 5.10 ;&st6;" d=" M   314.45,   273.74  L   314.45,   375.72  L   135.98,   375.72  L   135.98,   103.77  " /></a><a style="cursor:pointer;" ewd:lineID="4"><path style="stroke:#000000;stroke-width: 5.10 ;&st6;" d=" M   407.93,   503.20  L   407.93,   681.67  " /><path style="stroke:#FFFFFF;stroke-width: 4.53 ;&st6;" d=" M   407.93,   503.20  L   407.93,   681.67  " /><path style="stroke:#000000;stroke-width: 1.13 ;&st6;" d=" M   407.93,   503.20  L   407.93,   681.67  " /></a><a style="cursor:pointer;" ewd:lineID="5"><path style="stroke:#FFE600;stroke-width: 5.10 ;&st6;" d=" M   407.93,   452.21  L   407.93,   273.74  " /></a><a style="cursor:pointer;" ewd:lineID="6"><path style="stroke:#992903;stroke-width: 5.10 ;&st6;" d=" M   611.90,   571.19  L   611.90,   681.67  " /></a><a style="cursor:pointer;" ewd:lineID="7"><path style="stroke:#992903;stroke-width: 5.10 ;&st6;" d=" M   611.90,   273.74  L   611.90,   554.19  " /></a><a style="cursor:pointer;" ewd:lineID="8"><path style="stroke:#56077D;stroke-width: 5.10 ;&st6;" d=" M   696.88,   222.75  L   696.88,   137.76  " /></a><a style="cursor:pointer;" ewd:lineID="9"><path style="stroke:#000000;stroke-width: 5.10 ;&st6;" d=" M   722.38,   571.19  L   722.38,   681.67  " /><path style="stroke:#FFFFFF;stroke-width: 4.53 ;&st6;" d=" M   722.38,   571.19  L   722.38,   681.67  " /><path style="stroke:#000000;stroke-width: 1.13 ;&st6;" d=" M   722.38,   571.19  L   722.38,   681.67  " /></a><a style="cursor:pointer;" ewd:lineID="10"><path style="stroke:#000000;stroke-width: 5.10 ;&st6;" d=" M   722.38,   477.71  L   722.38,   554.19  " /><path style="stroke:#FFFFFF;stroke-width: 4.53 ;&st6;" d=" M   722.38,   477.71  L   722.38,   554.19  " /><path style="stroke:#000000;stroke-width: 1.13 ;&st6;" d=" M   722.38,   477.71  L   722.38,   554.19  " /></a><a style="cursor:pointer;" ewd:lineID="11"><path style="stroke:#56077D;stroke-width: 5.10 ;&st6;" d=" M   722.38,   443.71  L   722.38,   367.22  " /></a><a style="cursor:pointer;" ewd:lineID="12"><path style="stroke:#56077D;stroke-width: 5.10 ;&st6;" d=" M   722.38,   350.23  L   722.38,   273.74  " /></a><a style="cursor:pointer;" ewd:lineID="13"> d=" M   764.87,   222.75  L   764.87,   137.76 
	
		<path style="stroke:#000000;stroke-width: 5.10 ;&st6;" d=" M   764.87,   222.75  L   764.87,   137.76  " /><path style="stroke:#FFFFFF;stroke-width: 4.53 ;&st6;" d=" M   764.87,   222.75  L   764.87,   137.76  " /></a><a style="cursor:pointer;" ewd:lineID="14"><path style="stroke:#F668B2;stroke-width: 5.10 ;&st6;" d=" M   807.37,   434.65  L   807.37,   358.73  " /></a><a style="cursor:pointer;" ewd:lineID="15"><path style="stroke:#F668B2;stroke-width: 5.10 ;&st6;" d=" M   807.37,   343.99  L   807.37,   273.74  " /></a><a style="cursor:pointer;" ewd:lineID="16"><path style="stroke:#7FC97F;stroke-width: 5.10 ;&st6;" d=" M   858.36,   434.65  L   858.36,   358.73  " /></a><a style="cursor:pointer;" ewd:lineID="17"><path style="stroke:#7FC97F;stroke-width: 5.10 ;&st6;" d=" M   858.36,   343.99  L   858.36,   273.74  " /></a><a style="cursor:pointer;" ewd:lineID="18"><path style="stroke:#7FC97F;stroke-width: 5.10 ;&st6;" d=" M   934.84,   273.74  L   934.84,   367.22  " /></a><a ewd:figtype="w2w" style="cursor:pointer;" ewd:pinNo="13" ewd:code="AE2" ewd:figID="13"><path style="&st2;" d=" M   815.86,   350.23  L   798.87,   350.23  L   798.87,   358.73  L   815.86,   358.73  L   815.86,   350.23 " /><text style="&st8;" transform="matrix(&st16;  802.06  356.6 )"><tspan x="0" style="font-size:6px;font-family:'NSimSun';" y="0">AE2</tspan></text></a><a ewd:figtype="w2w" style="cursor:pointer;" ewd:pinNo="12" ewd:code="AE2" ewd:figID="14"><path style="&st2;" d=" M   866.86,   350.23  L   849.86,   350.23  L   849.86,   358.73  L   866.86,   358.73  L   866.86,   350.23 " /><text style="&st8;" transform="matrix(&st16;  853.05  356.6 )"><tspan x="0" style="font-size:6px;font-family:'NSimSun';" y="0">AE2</tspan></text></a><a ewd:figtype="gp" style="cursor:pointer;" ewd:code="ED" ewd:figID="15"><path style="&st2;" d=" M   397.31,   681.67  L   418.56,   681.67  L   407.93,   697.25  L   397.31,   681.67 " /><text style="&st8;" transform="matrix(&st16;  404.06  689.46 )"><tspan x="0" style="font-size:6px;font-family:'NSimSun';" y="0">ED</tspan></text></a><a ewd:figtype="gp" style="cursor:pointer;" ewd:code="EB" ewd:figID="16"><path style="&st2;" d=" M   601.27,   681.67  L   622.52,   681.67  L   611.90,   697.25  L   601.27,   681.67 " /><text style="&st8;" transform="matrix(&st16;  608.21  689.46 )"><tspan x="0" style="font-size:6px;font-family:'NSimSun';" y="0">EB</tspan></text></a><a ewd:figtype="gp" style="cursor:pointer;" ewd:code="ED" ewd:figID="17"><path style="&st2;" d=" M   711.76,   681.67  L   733.00,   681.67  L   722.38,   697.25  L   711.76,   681.67 " /><text style="&st8;" transform="matrix(&st16;  718.5  689.46 )"><tspan x="0" style="font-size:6px;font-family:'NSimSun';" y="0">ED</tspan></text></a><a ewd:figtype="sp" style="cursor:pointer;" ewd:code="SP10" ewd:figID="18"><path style="&st2;" d=" M   718.13,   350.23  L   726.63,   350.23  L   730.88,   354.48  L   730.88,   362.97  L   726.63,   367.22  L   718.13,   367.22  L   713.88,   362.97  L   713.88,   354.48  L   718.13,   350.23 " /></a></g></svg>