<?xml version="1.0" encoding="utf-8"?>
<!DOCTYPE svg PUBLIC "-//W3C//DTD SVG 1.0//EN" "http://www.w3.org/TR/2001/REC-SVG-20010904/DTD/svg10.dtd"[
	<!ENTITY ns_flows "http://ns.adobe.com/Flows/1.0/">
	<!ENTITY ns_svg "http://www.w3.org/2000/svg">
	<!ENTITY ns_xlink "http://www.w3.org/1999/xlink">
	<!ENTITY st0 "font-size:7px;font-family:'NSimSun';adobe-font-script:japanese;">
	<!ENTITY st1 "font-size:6px;font-family:'NSimSun';">
	<!-- White fill  -->
	<!ENTITY st2 "fill:#FFFFFF;stroke:#000000; stroke-width:1.41;stroke-linecap:round;stroke-linejoin:round;">
	<!-- Yellow fill  -->
	<!ENTITY st3 "fill:#FFFFCC;stroke:#FFFFCC; stroke-width:0.1;stroke-linecap:round;stroke-linejoin:round;">
	<!-- Gray fill  -->
	<!ENTITY st4 "fill:#CCCCCC;stroke:#CCCCCC; stroke-width:0.1;stroke-linecap:round;stroke-linejoin:round;">
	<!-- Light-blue fill -->
	<!ENTITY st5 "fill:#CCECF4;stroke:#000000; stroke-width:1.133;stroke-linecap:round;stroke-linejoin:round;">
	<!ENTITY st6 "fill:none;stroke-linecap:butt; stroke-linejoin:round;">
	<!ENTITY st7 "fill:none;stroke:#000000;stroke-linecap:round;stroke-linejoin:round;">
	<!ENTITY st8 "enable-background:new    ;">
	<!-- Black fill -->
	<!ENTITY st9 "fill:#000000;stroke:#000000; stroke-linecap:round;stroke-linejoin:round;">
	<!-- SRS note   -->
	<!ENTITY st10 "font-size:9px;font-family:'NSimSun';">
	<!ENTITY st11 "font-size:9px;font-family:'NSimSun';">
	<!ENTITY st12 "font-size:6px;font-family:'NSimSun';">
	<!ENTITY st13 "fill:none;stroke:#ff0000;stroke-linecap:round;stroke-linejoin:round;">
	<!-- Yellow fill  -->
	<!ENTITY st14 "fill:#FFFF00;stroke:#FFFF00; stroke-width:0.1;stroke-linecap:round;stroke-linejoin:round;">
	<!ENTITY st15 "font-size:6px;font-family:'NSimSun';adobe-font-script:japanese;">
	<!ENTITY st16 "1.00 0.00 0.00 1.00">
	<!ENTITY st17 "0.00 -1.00 1.00 0.00">
	<!ENTITY st18 "font-size:6px;font-family:'NSimSun';">
	<!ENTITY st19 "font-size:9px;font-family:'NSimSun';">
	<!ENTITY st20 "font-size:6px;font-family:'NSimSun';adobe-font-script:japanese;">
	<!ENTITY st21 "font-size:7px;font-family:'NSimSun';adobe-font-script:japanese;">
	<!ATTLIST svg
		xmlns:ewd CDATA #FIXED "http://shcl.co.jp/ewd"
		xmlns:a CDATA #FIXED "http://ns.adobe.com/AdobeSVGViewerExtensions/3.0/"
		ewd:ver CDATA #IMPLIED
	>
	<!ATTLIST a
		ewd:lineID CDATA #IMPLIED
		ewd:groupID CDATA #IMPLIED
		ewd:figtype CDATA #IMPLIED
		ewd:code CDATA #IMPLIED
		ewd:figID CDATA #IMPLIED
		ewd:pinNo CDATA #IMPLIED
		ewd:comment CDATA #IMPLIED >
	<!ATTLIST g
		ewd:lineID CDATA #IMPLIED
		ewd:groupID CDATA #IMPLIED
		ewd:figtype CDATA #IMPLIED
		ewd:code CDATA #IMPLIED
		ewd:figID CDATA #IMPLIED
		ewd:pinNo CDATA #IMPLIED
		ewd:comment CDATA #IMPLIED >
	<!ATTLIST text
		ewd:textID CDATA #IMPLIED
		ewd:horAlign CDATA #IMPLIED >
	<!ATTLIST title
		ewd:textID CDATA #IMPLIED >
]>
<!-- Generator: Shintec Hozumi YS   -->
<svg onload="call_execInitLoadProc_svg('system')" style="overflow:visible;  enable-background:new 0 0 1975.043 710.000" viewBox="0 0 1979.161 710.000" height="710.000" width="1979.161" xml:space="preserve" ewd:ver="2.1.2.6F" xmlns="&ns_svg;" xmlns:ewd="http://shcl.co.jp/ewd" xmlns:a="http://ns.adobe.com/AdobeSVGViewerExtensions/3.0/" xmlns:xlink="&ns_xlink;">
<text style="font-size:6px;font-family:'NSimSun';" transform="matrix(&st17;  1256.93  550.41 )">(*2)</text><text style="font-size:6px;font-family:'NSimSun';" transform="matrix(&st17;  1322.08  215.74 )">P</text><text style="font-size:6px;font-family:'NSimSun';" transform="matrix(&st17;  1245.6  216.71 )">W</text><text style="font-size:6px;font-family:'NSimSun';" transform="matrix(&st17;  1364.58  549.24 )">BR</text><text style="font-size:6px;font-family:'NSimSun';" transform="matrix(&st17;  1245.6  131.73 )">W</text><text style="font-size:6px;font-family:'NSimSun';" transform="matrix(&st17;  1245.6  548.16 )">W</text><text style="font-size:6px;font-family:'NSimSun';" transform="matrix(&st17;  1313.58  549.48 )">LG</text><text style="font-size:6px;font-family:'NSimSun';" transform="matrix(&st17;  1324.92  550.41 )">(*2)</text><text style="font-size:6px;font-family:'NSimSun';" transform="matrix(&st17;  1256.93  133.98 )">(*2)</text><text style="font-size:6px;font-family:'NSimSun';" transform="matrix(&st17;  1256.93  218.96 )">(*2)</text><text style="font-size:6px;font-family:'NSimSun';" transform="matrix(&st17;  1333.41  218.96 )">(*2)</text><text style="font-size:6px;font-family:'NSimSun';" transform="matrix(&st17;  1375.91  550.41 )">(*2)</text><text style="font-size:6px;font-family:'NSimSun';" transform="matrix(&st16;  1003.4  609.99 )">W(*2)</text><text style="font-size:6px;font-family:'NSimSun';" transform="matrix(&st16;  1054.4  643.98 )">W(*1)</text><text style="font-size:6px;font-family:'NSimSun';" transform="matrix(&st16;  1053.08  626.98 )">LG(*2)</text><text style="font-size:6px;font-family:'NSimSun';" transform="matrix(&st16;  1002.09  660.98 )">LG(*1)</text><text style="font-size:6px;font-family:'NSimSun';" transform="matrix(&st16;  1003.4  643.98 )">W(*1)</text><text style="font-size:6px;font-family:'NSimSun';" transform="matrix(&st16;  1053.08  660.98 )">LG(*1)</text><text style="font-size:6px;font-family:'NSimSun';" transform="matrix(&st16;  1054.4  609.99 )">W(*2)</text><text style="font-size:6px;font-family:'NSimSun';" transform="matrix(&st16;  1002.09  626.98 )">LG(*2)</text><g ewd:figtype="rb" ewd:figID="11" ewd:code="FUSE6"><path style="stroke-width: 1.42 ;&st7;  " d=" M  1251.42,   103.77  L  1247.17,   103.77  " /><path style="stroke-width: 1.42 ;&st7;  " d=" M  1251.42,    95.27  L  1247.17,    95.27  " /><path style="stroke-width: 0.85 ;&st7;  " d=" M  1249.29,    69.77  L  1249.29,    95.27  " /><path style="stroke-width: 1.42 ;&st7;   " d=" M  1255.67,    99.52  C  1255.67     97.17   1253.76     95.27   1251.42     95.27  " /><path style="stroke-width: 1.42 ;&st7;   " d=" M  1251.42,   103.77  C  1253.76    103.77   1255.67    101.87   1255.67     99.52  " /><path style="stroke-width: 1.42 ;&st7;   " d=" M  1242.92,    99.52  C  1242.92    101.87   1244.82    103.77   1247.17    103.77  " /><path style="stroke-width: 1.42 ;&st7;   " d=" M  1247.17,    95.27  C  1244.82     95.27   1242.92     97.17   1242.92     99.52  " /><path style="stroke-width: 0.28 ;&st9;  " d=" M  1249.29,    90.37  L  1246.46,    87.54  L  1246.46,    91.79  L  1249.29,    94.62  L  1252.12,    91.79  L  1252.12,    87.54  L  1249.29,    90.37  " /><text style="font-size:6px;font-family:'NSimSun';" transform="matrix(&st16;  1241.25  32.08 )">(BAT)</text><text style="font-size:6px;font-family:'NSimSun';" transform="matrix(&st16;  1243.11  86.47 )">2</text><text style="font-size:6px;font-family:'NSimSun';" transform="matrix(&st16;  1247.49  101.49 )">1</text><text style="font-size:6px;font-family:'NSimSun';" transform="matrix(&st16;  1265.72  53.34 )">10A <tspan x="0 " dy="6.0">ECU-B </tspan><tspan x="0 " dy="6.0">NO.2</tspan></text><path style="stroke-width: 1.42 ;&st7;   " d=" M  1249.29,    47.11  C  1246.55     48.72   1245.64     52.25   1247.25     54.99  " /><path style="stroke-width: 1.42 ;&st7;   " d=" M  1247.25,    54.99  C  1247.77     55.87   1248.41     56.51   1249.29     57.03  " /><path style="stroke-width: 0.85 ;&st7;   " d=" M  1250.71,    68.36  C  1250.71     67.57   1250.07     66.94   1249.29     66.94  " /><path style="stroke-width: 0.85 ;&st7;   " d=" M  1249.29,    66.94  C  1248.51     66.94   1247.87     67.57   1247.87     68.36  " /><path style="stroke-width: 0.85 ;&st7;   " d=" M  1247.87,    68.36  C  1247.87     69.14   1248.51     69.77   1249.29     69.77  " /><path style="stroke-width: 0.85 ;&st7;   " d=" M  1249.29,    69.77  C  1250.07     69.77   1250.71     69.14   1250.71     68.36  " /><path style="stroke-width: 0.85 ;&st7;   " d=" M  1250.71,    45.69  C  1250.71     44.91   1250.07     44.28   1249.29     44.28  " /><path style="stroke-width: 0.85 ;&st7;   " d=" M  1249.29,    44.28  C  1248.51     44.28   1247.87     44.91   1247.87     45.69  " /><path style="stroke-width: 0.85 ;&st7;   " d=" M  1247.87,    45.69  C  1247.87     46.48   1248.51     47.11   1249.29     47.11  " /><path style="stroke-width: 0.85 ;&st7;   " d=" M  1249.29,    47.11  C  1250.07     47.11   1250.71     46.48   1250.71     45.69  " /><path style="stroke-width: 1.42 ;&st7;   " d=" M  1249.29,    66.94  C  1252.03     65.33   1252.94     61.80   1251.33     59.06  " /><path style="stroke-width: 1.42 ;&st7;   " d=" M  1251.33,    59.06  C  1250.81     58.18   1250.17     57.55   1249.29     57.03  " /><path style="stroke-width: 1.42 ;&st7;  " d=" M  1236.54,    35.78  L  1236.54,    78.27  L  1262.04,    78.27  L  1262.04,    35.78  L  1236.54,    35.78  " /></g><g ewd:figtype="conn" ewd:figID="12" ewd:code="E55"><path style="stroke-width: 0.85 ;&st7;  " d=" M  1253.54,   282.24  L  1245.04,   282.24  " /><path style="stroke-width: 0.85 ;&st7;  " d=" M  1330.03,   282.24  L  1321.53,   282.24  " /><path style="stroke-width: 0.85 ;&st7;  " d=" M  1283.29,   454.33  L  1283.29,   443.71  " /><path style="stroke-width: 1.42 ;&st7;  " d=" M  1287.53,   454.33  L  1279.04,   454.33  " /><path style="stroke-width: 1.42 ;&st7;  " d=" M  1287.53,   458.58  L  1279.04,   458.58  " /><path style="stroke-width: 1.42 ;&st7;  " d=" M  1325.78,   367.22  L  1342.78,   367.22  " /><path style="stroke-width: 0.85 ;&st7;  " d=" M  1334.28,   367.22  L  1334.28,   375.72  " /><path style="stroke-width: 0.85 ;&st7;  " d=" M  1325.78,   358.73  L  1331.07,   366.66  " /><path style="stroke-width: 0.85 ;&st7;  " d=" M  1337.11,   367.22  L  1342.78,   358.73  " /><path style="stroke-width: 0.85 ;&st7;  " d=" M  1469.13,   322.78  L  1476.49,   318.54  " /><path style="stroke-width: 0.85 ;&st7;  " d=" M  1474.49,   315.07  L  1467.13,   319.32  " /><path style="stroke-width: 0.85 ;&st7;  " d=" M  1466.01,   324.73  L  1457.51,   324.73  " /><path style="stroke-width: 0.85 ;&st7;  " d=" M  1368.27,   260.99  L  1368.27,   269.49  " /><path style="stroke-width: 0.28 ;&st9;  " d=" M  1249.29,   282.24  L  1243.63,   273.74  L  1254.96,   273.74  L  1249.29,   282.24  " /><path style="stroke-width: 0.85 ;&st7;  " d=" M  1273.59,   357.72  L  1273.32,   358.19  L  1273.23,   358.73  L  1273.32,   359.26  L  1273.59,   359.73  L  1274.01,   360.07  L  1274.51,   360.26  L  1275.06,   360.26  L  1275.57,   360.07  L  1275.98,   359.73  L  1276.25,   359.26  L  1276.34,   358.73  L  1276.25,   358.19  L  1275.98,   357.72  L  1275.57,   357.38  L  1275.06,   357.19  L  1274.51,   357.19  L  1274.01,   357.38  L  1273.59,   357.72  L  1273.99,   358.43  L  1273.99,   359.02  L  1274.36,   359.46  L  1274.93,   359.56  L  1275.44,   359.27  L  1275.64,   358.73  L  1275.44,   358.18  L  1274.93,   357.89  L  1274.36,   357.99  L  1274.79,   358.73  " /><path style="stroke-width: 0.85 ;&st7;  " d=" M  1316.09,   357.72  L  1315.81,   358.19  L  1315.72,   358.73  L  1315.81,   359.26  L  1316.09,   359.73  L  1316.50,   360.07  L  1317.01,   360.26  L  1317.55,   360.26  L  1318.06,   360.07  L  1318.47,   359.73  L  1318.74,   359.26  L  1318.84,   358.73  L  1318.74,   358.19  L  1318.47,   357.72  L  1318.06,   357.38  L  1317.55,   357.19  L  1317.01,   357.19  L  1316.50,   357.38  L  1316.09,   357.72  L  1316.48,   358.43  L  1316.48,   359.02  L  1316.85,   359.46  L  1317.43,   359.56  L  1317.93,   359.27  L  1318.13,   358.73  L  1317.93,   358.18  L  1317.43,   357.89  L  1316.85,   357.99  L  1317.28,   358.73  " /><path style="stroke-width: 0.85 ;&st7;  " d=" M  1334.28,   341.73  L  1351.27,   341.73  " /><path style="stroke-width: 0.85 ;&st7;  " d=" M  1308.78,   341.73  L  1325.78,   341.73  " /><path style="stroke-width: 1.42 ;&st7;  " d=" M  1240.79,   401.22  L  1240.79,   384.22  L  1325.78,   384.22  L  1325.78,   401.22  " /><path style="stroke-width: 0.28 ;&st9;  " d=" M  1325.78,   282.24  L  1320.11,   273.74  L  1331.44,   273.74  L  1325.78,   282.24  " /><path style="stroke-width: 0.85 ;&st7;  " d=" M  1282.09,   442.71  L  1281.82,   443.18  L  1281.73,   443.71  L  1281.82,   444.24  L  1282.09,   444.71  L  1282.51,   445.06  L  1283.01,   445.25  L  1283.56,   445.25  L  1284.06,   445.06  L  1284.48,   444.71  L  1284.75,   444.24  L  1284.84,   443.71  L  1284.75,   443.18  L  1284.48,   442.71  L  1284.06,   442.36  L  1283.56,   442.18  L  1283.01,   442.18  L  1282.51,   442.36  L  1282.09,   442.71  L  1282.49,   443.42  L  1282.49,   444.00  L  1282.86,   444.45  L  1283.43,   444.55  L  1283.94,   444.26  L  1284.13,   443.71  L  1283.94,   443.16  L  1283.43,   442.88  L  1282.86,   442.97  L  1283.29,   443.71  " /><path style="stroke-width: 0.85 ;&st7;  " d=" M  1281.87,   477.71  L  1284.70,   477.71  " /><path style="stroke-width: 0.85 ;&st7;  " d=" M  1280.45,   474.87  L  1286.12,   474.87  " /><path style="stroke-width: 0.85 ;&st7;  " d=" M  1279.04,   472.04  L  1287.53,   472.04  " /><path style="stroke-width: 0.85 ;&st7;  " d=" M  1274.79,   469.21  L  1291.78,   469.21  " /><path style="stroke-width: 0.85 ;&st7;  " d=" M  1283.29,   458.58  L  1283.29,   469.21  " /><path style="stroke-width: 0.85 ;&st7;  " d=" M  1248.10,   442.71  L  1247.83,   443.18  L  1247.73,   443.71  L  1247.83,   444.24  L  1248.10,   444.71  L  1248.51,   445.06  L  1249.02,   445.25  L  1249.56,   445.25  L  1250.07,   445.06  L  1250.48,   444.71  L  1250.76,   444.24  L  1250.85,   443.71  L  1250.76,   443.18  L  1250.48,   442.71  L  1250.07,   442.36  L  1249.56,   442.18  L  1249.02,   442.18  L  1248.51,   442.36  L  1248.10,   442.71  L  1248.49,   443.42  L  1248.49,   444.00  L  1248.87,   444.45  L  1249.44,   444.55  L  1249.94,   444.26  L  1250.14,   443.71  L  1249.94,   443.16  L  1249.44,   442.88  L  1248.87,   442.97  L  1249.29,   443.71  " /><path style="stroke-width: 0.85 ;&st7;  " d=" M  1316.09,   442.71  L  1315.81,   443.18  L  1315.72,   443.71  L  1315.81,   444.24  L  1316.09,   444.71  L  1316.50,   445.06  L  1317.01,   445.25  L  1317.55,   445.25  L  1318.06,   445.06  L  1318.47,   444.71  L  1318.74,   444.24  L  1318.84,   443.71  L  1318.74,   443.18  L  1318.47,   442.71  L  1318.06,   442.36  L  1317.55,   442.18  L  1317.01,   442.18  L  1316.50,   442.36  L  1316.09,   442.71  L  1316.48,   443.42  L  1316.48,   444.00  L  1316.85,   444.45  L  1317.43,   444.55  L  1317.93,   444.26  L  1318.13,   443.71  L  1317.93,   443.16  L  1317.43,   442.88  L  1316.85,   442.97  L  1317.28,   443.71  " /><path style="stroke-width: 0.85 ;&st7;  " d=" M  1283.29,   443.71  L  1291.78,   443.71  L  1293.20,   440.88  L  1296.03,   446.54  L  1298.87,   440.88  L  1301.70,   446.54  L  1304.53,   440.88  L  1307.36,   446.54  L  1308.78,   443.71  L  1317.28,   443.71  " /><path style="stroke-width: 0.85 ;&st7;  " d=" M  1274.79,   299.24  L  1274.79,   324.73  " /><path style="stroke-width: 0.85 ;&st7;  " d=" M  1274.79,   358.73  L  1325.78,   358.73  " /><path style="stroke-width: 0.85 ;&st7;  " d=" M  1331.07,   366.66  L  1327.88,   364.52  L  1330.32,   362.90  L  1331.07,   366.66  L  1330.25,   365.43  L  1328.90,   364.53  L  1329.93,   363.84  L  1330.25,   365.43  L  1329.83,   364.81  L  1329.41,   364.53  L  1329.74,   364.31  L  1329.83,   364.81  " /><path style="stroke-width: 0.85 ;&st7;  " d=" M  1249.29,   443.71  L  1257.79,   443.71  L  1259.21,   440.88  L  1262.04,   446.54  L  1264.87,   440.88  L  1267.70,   446.54  L  1270.54,   440.88  L  1273.37,   446.54  L  1274.79,   443.71  L  1283.29,   443.71  " /><path style="stroke-width: 1.42 ;&st7;  " d=" M  1198.30,   239.75  L  1198.30,   494.70  L  1504.25,   494.70  L  1504.25,   239.75  L  1198.30,   239.75  " /><path style="stroke-width: 1.42 ;&st7;  " d=" M  1223.80,   375.72  L  1223.80,   401.22  L  1419.26,   401.22  L  1419.26,   375.72  L  1223.80,   375.72  " /><path style="stroke-width: 1.42 ;&st7;  " d=" M  1257.79,   324.73  L  1257.79,   341.73  L  1291.78,   341.73  L  1291.78,   324.73  L  1257.79,   324.73  " /><path style="stroke-width: 0.85 ;&st7;  " d=" M  1274.79,   341.73  L  1274.79,   375.72  " /><path style="stroke-width: 0.85 ;&st7;  " d=" M  1249.29,   239.75  L  1249.29,   299.24  L  1325.78,   299.24  L  1325.78,   239.75  " /><path style="stroke-width: 0.85 ;&st7;  " d=" M  1273.59,   298.23  L  1273.32,   298.70  L  1273.23,   299.24  L  1273.32,   299.77  L  1273.59,   300.24  L  1274.01,   300.58  L  1274.51,   300.77  L  1275.06,   300.77  L  1275.57,   300.58  L  1275.98,   300.24  L  1276.25,   299.77  L  1276.34,   299.24  L  1276.25,   298.70  L  1275.98,   298.23  L  1275.57,   297.89  L  1275.06,   297.70  L  1274.51,   297.70  L  1274.01,   297.89  L  1273.59,   298.23  L  1273.99,   298.94  L  1273.99,   299.53  L  1274.36,   299.97  L  1274.93,   300.07  L  1275.44,   299.78  L  1275.64,   299.24  L  1275.44,   298.69  L  1274.93,   298.40  L  1274.36,   298.50  L  1274.79,   299.24  " /><path style="stroke-width: 0.85 ;&st7;  " d=" M  1317.28,   358.73  L  1317.28,   341.73  " /><path style="stroke-width: 0.85 ;&st7;  " d=" M  1342.78,   358.73  L  1342.78,   341.73  " /><path style="stroke-width: 1.42 ;&st7;  " d=" M  1385.27,   409.72  L  1385.27,   426.71  L  1419.26,   426.71  L  1419.26,   409.72  L  1385.27,   409.72  " /><path style="stroke-width: 1.42 ;&st7;  " d=" M  1385.27,   435.21  L  1385.27,   452.21  L  1419.26,   452.21  L  1419.26,   435.21  L  1385.27,   435.21  " /><path style="stroke-width: 0.85 ;&st7;  " d=" M  1402.27,   401.22  L  1402.27,   409.72  " /><path style="stroke-width: 0.85 ;&st7;  " d=" M  1402.27,   426.71  L  1402.27,   435.21  " /><path style="stroke-width: 0.85 ;&st7;  " d=" M  1368.27,   401.22  L  1368.27,   494.70  " /><path style="stroke-width: 1.42 ;&st7;  " d=" M  1232.29,   418.22  L  1232.29,   435.21  L  1334.28,   435.21  L  1334.28,   418.22  L  1232.29,   418.22  " /><path style="stroke-width: 0.85 ;&st7;  " d=" M  1249.29,   435.21  L  1249.29,   494.70  " /><path style="stroke-width: 0.85 ;&st7;  " d=" M  1317.28,   435.21  L  1317.28,   494.70  " /><path style="stroke-width: 0.85 ;&st7;  " d=" M  1249.29,   418.22  L  1249.29,   401.22  " /><path style="stroke-width: 0.85 ;&st7;  " d=" M  1317.28,   418.22  L  1317.28,   401.22  " /><path style="stroke-width: 0.85 ;&st7;  " d=" M  1232.29,   426.71  L  1215.30,   426.71  L  1215.30,   418.22  " /><path style="stroke-width: 0.85 ;&st7;  " d=" M  1206.80,   418.22  L  1223.80,   418.22  " /><path style="stroke-width: 0.85 ;&st7;  " d=" M  1325.78,   265.24  L  1461.76,   265.24  " /><path style="stroke-width: 0.85 ;&st7;  " d=" M  1385.27,   341.73  L  1385.27,   375.72  " /><path style="stroke-width: 0.85 ;&st7;  " d=" M  1402.27,   341.73  L  1402.27,   375.72  " /><path style="stroke-width: 0.85 ;&st7;  " d=" M  1393.77,   341.73  L  1393.77,   375.72  " /><path style="stroke-width: 0.85 ;&st7;  " d=" M  1402.27,   324.73  L  1402.27,   265.24  " /><path style="stroke-width: 0.85 ;&st7;  " d=" M  1461.76,   375.72  L  1461.76,   316.23  " /><path style="stroke-width: 0.85 ;&st7;  " d=" M  1476.49,   318.54  L  1474.16,   321.58  L  1472.69,   319.04  L  1476.49,   318.54  L  1475.21,   319.28  L  1474.23,   320.56  L  1473.60,   319.49  L  1475.21,   319.28  L  1474.57,   319.65  L  1474.26,   320.05  L  1474.06,   319.71  L  1474.57,   319.65  " /><path style="stroke-width: 0.85 ;&st7;  " d=" M  1474.49,   315.07  L  1472.15,   318.11  L  1470.69,   315.57  L  1474.49,   315.07  L  1473.21,   315.81  L  1472.22,   317.09  L  1471.60,   316.02  L  1473.21,   315.81  L  1472.57,   316.18  L  1472.25,   316.58  L  1472.06,   316.24  L  1472.57,   316.18  " /><path style="stroke-width: 0.28 ;&st9;  " d=" M  1461.76,   324.73  L  1456.09,   316.23  L  1467.42,   316.23  L  1461.76,   324.73  " /><path style="stroke-width: 0.85 ;&st7;  " d=" M  1461.76,   282.24  L  1461.76,   265.24  " /><path style="stroke-width: 0.85 ;&st7;  " d=" M  1324.59,   264.24  L  1324.31,   264.71  L  1324.22,   265.24  L  1324.31,   265.77  L  1324.59,   266.24  L  1325.00,   266.59  L  1325.51,   266.78  L  1326.05,   266.78  L  1326.56,   266.59  L  1326.97,   266.24  L  1327.24,   265.77  L  1327.34,   265.24  L  1327.24,   264.71  L  1326.97,   264.24  L  1326.56,   263.89  L  1326.05,   263.71  L  1325.51,   263.71  L  1325.00,   263.89  L  1324.59,   264.24  L  1324.98,   264.95  L  1324.98,   265.53  L  1325.35,   265.98  L  1325.93,   266.08  L  1326.43,   265.79  L  1326.63,   265.24  L  1326.43,   264.69  L  1325.93,   264.41  L  1325.35,   264.50  L  1325.78,   265.24  " /><path style="stroke-width: 1.42 ;&st7;  " d=" M  1436.26,   375.72  L  1436.26,   401.22  L  1487.25,   401.22  L  1487.25,   375.72  L  1436.26,   375.72  " /><path style="stroke-width: 0.85 ;&st7;  " d=" M  1401.07,   264.24  L  1400.80,   264.71  L  1400.71,   265.24  L  1400.80,   265.77  L  1401.07,   266.24  L  1401.49,   266.59  L  1401.99,   266.78  L  1402.54,   266.78  L  1403.04,   266.59  L  1403.46,   266.24  L  1403.73,   265.77  L  1403.82,   265.24  L  1403.73,   264.71  L  1403.46,   264.24  L  1403.04,   263.89  L  1402.54,   263.71  L  1401.99,   263.71  L  1401.49,   263.89  L  1401.07,   264.24  L  1401.47,   264.95  L  1401.47,   265.53  L  1401.84,   265.98  L  1402.41,   266.08  L  1402.92,   265.79  L  1403.11,   265.24  L  1402.92,   264.69  L  1402.41,   264.41  L  1401.84,   264.50  L  1402.27,   265.24  " /><path style="stroke-width: 0.28 ;&st9;  " d=" M  1368.27,   265.24  L  1359.77,   270.91  L  1359.77,   259.58  L  1368.27,   265.24  " /><path style="stroke-width: 0.85 ;&st7;  " d=" M  1274.79,   307.73  L  1385.27,   307.73  L  1385.27,   324.73  " /><path style="stroke-width: 1.42 ;&st7;  " d=" M  1376.77,   324.73  L  1376.77,   341.73  L  1410.76,   341.73  L  1410.76,   324.73  L  1376.77,   324.73  " /><path style="stroke-width: 0.85 ;&st7;  " d=" M  1461.76,   316.23  L  1461.76,   307.73  L  1458.92,   306.32  L  1464.59,   303.48  L  1458.92,   300.65  L  1464.59,   297.82  L  1458.92,   294.99  L  1464.59,   292.15  L  1461.76,   290.74  L  1461.76,   282.24  " /><path style="stroke-width: 0.85 ;&st7;  " d=" M  1273.59,   306.73  L  1273.32,   307.20  L  1273.23,   307.73  L  1273.32,   308.27  L  1273.59,   308.74  L  1274.01,   309.08  L  1274.51,   309.27  L  1275.06,   309.27  L  1275.57,   309.08  L  1275.98,   308.74  L  1276.25,   308.27  L  1276.34,   307.73  L  1276.25,   307.20  L  1275.98,   306.73  L  1275.57,   306.39  L  1275.06,   306.20  L  1274.51,   306.20  L  1274.01,   306.39  L  1273.59,   306.73  L  1273.99,   307.44  L  1273.99,   308.03  L  1274.36,   308.47  L  1274.93,   308.57  L  1275.44,   308.28  L  1275.64,   307.73  L  1275.44,   307.19  L  1274.93,   306.90  L  1274.36,   307.00  L  1274.79,   307.73  " /><text style="font-size:6px;font-family:'NSimSun';" transform="matrix(&st16;  1309.0  338.03 )">5V +B</text><text style="font-size:6px;font-family:'NSimSun';" transform="matrix(&st16;  1338.92  338.03 )">5V</text><text style="font-size:6px;font-family:'NSimSun';" transform="matrix(&st16; 1267.89 394.69)" ewd:textID="6" ewd:horAlign="center">CAN 控制器</text><text style="font-size:6px;font-family:'NSimSun';" transform="matrix(&st16;  1319.86  491.01 )">CANH</text><text style="font-size:6px;font-family:'NSimSun';" transform="matrix(&st16;  1251.87  491.01 )">CANL</text><text style="font-size:6px;font-family:'NSimSun';" transform="matrix(&st16;  1370.85  491.01 )">ET</text><text style="font-size:6px;font-family:'NSimSun';" transform="matrix(&st16;  1328.36  247.94 )">IG+</text><text style="font-size:6px;font-family:'NSimSun';" transform="matrix(&st16;  1251.87  247.94 )">B</text><text style="font-size:6px;font-family:'NSimSun';" transform="matrix(&st16;  1266.94  335.2 )">5V IC</text><text style="font-size:6px;font-family:'NSimSun';" transform="matrix(&st16;  1397.71  420.18 )">I/F</text><text style="font-size:6px;font-family:'NSimSun';" transform="matrix(&st16; 1393.48 445.68)" ewd:textID="5" ewd:horAlign="center">蜂鸣器</text><text style="font-size:6px;font-family:'NSimSun';" transform="matrix(&st16;  1271.52  428.68 )">CAN I/F</text><text style="font-size:6px;font-family:'NSimSun';" transform="matrix(&st16;  1207.02  414.52 )">5V +B</text><text style="font-size:6px;font-family:'NSimSun';" transform="matrix(&st16;  1361.97  390.44 )">CPU</text><text style="font-size:6px;font-family:'NSimSun';" transform="matrix(&st16; 1452.44 386.19)" ewd:textID="9" ewd:horAlign="center">LED<tspan x="0 " dy="6.0">驱动器</tspan></text><text style="font-size:6px;font-family:'NSimSun';" transform="matrix(&st17; 1452.11 331.39)" ewd:textID="12">动力转向</text><text style="font-size:6px;font-family:'NSimSun';" transform="matrix(&st16;  1389.21  335.2 )">I/F</text><text style="font-size:6px;font-family:'NSimSun';" transform="matrix(&st16;  1237.5  501.2 )">31</text><path style="stroke-width: 1.42 ;&st7;   " d=" M  1253.82,   499.24  C  1253.82    496.73   1251.79    494.70   1249.29    494.70  " /><path style="stroke-width: 1.42 ;&st7;   " d=" M  1249.29,   494.70  C  1246.79    494.70   1244.76    496.73   1244.76    499.24  " /><path style="stroke-width: 1.42 ;&st7;   " d=" M  1244.76,   499.24  C  1244.76    501.74   1246.79    503.77   1249.29    503.77  " /><path style="stroke-width: 1.42 ;&st7;   " d=" M  1249.29,   503.77  C  1251.79    503.77   1253.82    501.74   1253.82    499.24  " /><text style="font-size:6px;font-family:'NSimSun';" transform="matrix(&st16;  1246.99  501.2 )">A</text><text style="font-size:6px;font-family:'NSimSun';" transform="matrix(&st16;  1237.5  237.18 )">40</text><path style="stroke-width: 1.42 ;&st7;   " d=" M  1253.82,   235.21  C  1253.82    232.71   1251.79    230.68   1249.29    230.68  " /><path style="stroke-width: 1.42 ;&st7;   " d=" M  1249.29,   230.68  C  1246.79    230.68   1244.76    232.71   1244.76    235.21  " /><path style="stroke-width: 1.42 ;&st7;   " d=" M  1244.76,   235.21  C  1244.76    237.72   1246.79    239.75   1249.29    239.75  " /><path style="stroke-width: 1.42 ;&st7;   " d=" M  1249.29,   239.75  C  1251.79    239.75   1253.82    237.72   1253.82    235.21  " /><text style="font-size:6px;font-family:'NSimSun';" transform="matrix(&st16;  1246.99  237.18 )">A</text><text style="font-size:6px;font-family:'NSimSun';" transform="matrix(&st16;  1313.98  237.18 )">39</text><path style="stroke-width: 1.42 ;&st7;   " d=" M  1330.31,   235.21  C  1330.31    232.71   1328.28    230.68   1325.78    230.68  " /><path style="stroke-width: 1.42 ;&st7;   " d=" M  1325.78,   230.68  C  1323.28    230.68   1321.25    232.71   1321.25    235.21  " /><path style="stroke-width: 1.42 ;&st7;   " d=" M  1321.25,   235.21  C  1321.25    237.72   1323.28    239.75   1325.78    239.75  " /><path style="stroke-width: 1.42 ;&st7;   " d=" M  1325.78,   239.75  C  1328.28    239.75   1330.31    237.72   1330.31    235.21  " /><text style="font-size:6px;font-family:'NSimSun';" transform="matrix(&st16;  1323.47  237.18 )">A</text><text style="font-size:6px;font-family:'NSimSun';" transform="matrix(&st16;  1356.48  501.2 )">21</text><text style="font-size:6px;font-family:'NSimSun';" transform="matrix(&st16;  1365.97  501.2 )">A</text><path style="stroke-width: 1.42 ;&st7;   " d=" M  1372.80,   499.24  C  1372.80    496.73   1370.77    494.70   1368.27    494.70  " /><path style="stroke-width: 1.42 ;&st7;   " d=" M  1368.27,   494.70  C  1365.77    494.70   1363.74    496.73   1363.74    499.24  " /><path style="stroke-width: 1.42 ;&st7;   " d=" M  1363.74,   499.24  C  1363.74    501.74   1365.77    503.77   1368.27    503.77  " /><path style="stroke-width: 1.42 ;&st7;   " d=" M  1368.27,   503.77  C  1370.77    503.77   1372.80    501.74   1372.80    499.24  " /><text style="font-size:6px;font-family:'NSimSun';" transform="matrix(&st16;  1305.48  501.2 )">32</text><path style="stroke-width: 1.42 ;&st7;   " d=" M  1321.81,   499.24  C  1321.81    496.73   1319.78    494.70   1317.28    494.70  " /><path style="stroke-width: 1.42 ;&st7;   " d=" M  1317.28,   494.70  C  1314.78    494.70   1312.75    496.73   1312.75    499.24  " /><path style="stroke-width: 1.42 ;&st7;   " d=" M  1312.75,   499.24  C  1312.75    501.74   1314.78    503.77   1317.28    503.77  " /><path style="stroke-width: 1.42 ;&st7;   " d=" M  1317.28,   503.77  C  1319.78    503.77   1321.81    501.74   1321.81    499.24  " /><text style="font-size:6px;font-family:'NSimSun';" transform="matrix(&st16;  1314.98  501.2 )">A</text><g ewd:figtype="title"><text style="font-size:6px;font-family:'NSimSun';" transform="matrix(&st17;  1512.14  497.6 )">E55(A)</text><text style="font-size:6px;font-family:'NSimSun';" transform="matrix(&st17;  1518.97  497.61 )" ewd:textID="7">组合仪表总成</text></g></g><g ewd:figtype="jb" ewd:figID="21" ewd:code="3"><path style="stroke-width: 1.42 ;&st7;  " d=" M  1251.42,   197.25  L  1247.17,   197.25  " /><path style="stroke-width: 1.42 ;&st7;  " d=" M  1251.42,   188.75  L  1247.17,   188.75  " /><path style="stroke-width: 1.42 ;&st7;  " d=" M  1251.42,   154.76  L  1247.17,   154.76  " /><path style="stroke-width: 1.42 ;&st7;  " d=" M  1251.42,   146.26  L  1247.17,   146.26  " /><path style="stroke-width: 1.42 ;&st7;   " d=" M  1255.67,   193.00  C  1255.67    190.66   1253.76    188.75   1251.42    188.75  " /><path style="stroke-width: 1.42 ;&st7;   " d=" M  1251.42,   197.25  C  1253.76    197.25   1255.67    195.35   1255.67    193.00  " /><path style="stroke-width: 1.42 ;&st7;   " d=" M  1242.92,   193.00  C  1242.92    195.35   1244.82    197.25   1247.17    197.25  " /><path style="stroke-width: 1.42 ;&st7;   " d=" M  1247.17,   188.75  C  1244.82    188.75   1242.92    190.66   1242.92    193.00  " /><path style="stroke-width: 1.42 ;&st7;   " d=" M  1255.67,   150.51  C  1255.67    148.16   1253.76    146.26   1251.42    146.26  " /><path style="stroke-width: 1.42 ;&st7;   " d=" M  1251.42,   154.76  C  1253.76    154.76   1255.67    152.86   1255.67    150.51  " /><path style="stroke-width: 1.42 ;&st7;   " d=" M  1242.92,   150.51  C  1242.92    152.86   1244.82    154.76   1247.17    154.76  " /><path style="stroke-width: 1.42 ;&st7;   " d=" M  1247.17,   146.26  C  1244.82    146.26   1242.92    148.16   1242.92    150.51  " /><path style="stroke-width: 0.85 ;&st7;  " d=" M  1249.29,   188.75  L  1249.29,   154.76  " /><path style="stroke-width: 0.28 ;&st9;  " d=" M  1249.29,   183.86  L  1246.46,   181.03  L  1246.46,   185.28  L  1249.29,   188.11  L  1252.12,   185.28  L  1252.12,   181.03  L  1249.29,   183.86  " /><path style="stroke-width: 0.28 ;&st9;  " d=" M  1249.29,   159.65  L  1252.12,   162.49  L  1252.12,   158.24  L  1249.29,   155.41  L  1246.46,   158.24  L  1246.46,   162.49  L  1249.29,   159.65  " /><text style="font-size:6px;font-family:'NSimSun';" transform="matrix(&st16;  1235.68  194.97 )">34</text><text style="font-size:6px;font-family:'NSimSun';" transform="matrix(&st16;  1245.44  152.48 )">3A</text><text style="font-size:6px;font-family:'NSimSun';" transform="matrix(&st16;  1235.68  152.48 )">44</text><text style="font-size:6px;font-family:'NSimSun';" transform="matrix(&st16;  1245.36  194.97 )">3D</text></g><g ewd:figtype="jb" ewd:figID="22" ewd:code="3"><path style="stroke-width: 1.42 ;&st7;  " d=" M  1327.90,   103.77  L  1323.65,   103.77  " /><path style="stroke-width: 1.42 ;&st7;  " d=" M  1327.90,    95.27  L  1323.65,    95.27  " /><path style="stroke-width: 0.85 ;&st7;  " d=" M  1325.78,    69.77  L  1325.78,    95.27  " /><path style="stroke-width: 1.42 ;&st7;   " d=" M  1332.15,    99.52  C  1332.15     97.17   1330.25     95.27   1327.90     95.27  " /><path style="stroke-width: 1.42 ;&st7;   " d=" M  1319.40,    99.52  C  1319.40    101.87   1321.31    103.77   1323.65    103.77  " /><path style="stroke-width: 1.42 ;&st7;   " d=" M  1327.90,   103.77  C  1330.25    103.77   1332.15    101.87   1332.15     99.52  " /><path style="stroke-width: 1.42 ;&st7;   " d=" M  1323.65,    95.27  C  1321.31     95.27   1319.40     97.17   1319.40     99.52  " /><path style="stroke-width: 0.85 ;&st7;   " d=" M  1327.19,    68.36  C  1327.19     67.57   1326.56     66.94   1325.78     66.94  " /><path style="stroke-width: 0.85 ;&st7;   " d=" M  1325.78,    66.94  C  1325.00     66.94   1324.36     67.57   1324.36     68.36  " /><path style="stroke-width: 0.85 ;&st7;   " d=" M  1324.36,    68.36  C  1324.36     69.14   1325.00     69.77   1325.78     69.77  " /><path style="stroke-width: 0.85 ;&st7;   " d=" M  1325.78,    69.77  C  1326.56     69.77   1327.19     69.14   1327.19     68.36  " /><path style="stroke-width: 0.85 ;&st7;   " d=" M  1327.19,    45.69  C  1327.19     44.91   1326.56     44.28   1325.78     44.28  " /><path style="stroke-width: 0.85 ;&st7;   " d=" M  1325.78,    44.28  C  1325.00     44.28   1324.36     44.91   1324.36     45.69  " /><path style="stroke-width: 0.85 ;&st7;   " d=" M  1324.36,    45.69  C  1324.36     46.48   1325.00     47.11   1325.78     47.11  " /><path style="stroke-width: 0.85 ;&st7;   " d=" M  1325.78,    47.11  C  1326.56     47.11   1327.19     46.48   1327.19     45.69  " /><path style="stroke-width: 1.42 ;&st7;   " d=" M  1325.78,    66.94  C  1328.52     65.33   1329.43     61.80   1327.82     59.06  " /><path style="stroke-width: 1.42 ;&st7;   " d=" M  1327.82,    59.06  C  1327.30     58.18   1326.66     57.55   1325.78     57.03  " /><path style="stroke-width: 1.42 ;&st7;   " d=" M  1325.78,    47.11  C  1323.04     48.72   1322.13     52.25   1323.74     54.99  " /><path style="stroke-width: 1.42 ;&st7;   " d=" M  1323.74,    54.99  C  1324.26     55.87   1324.90     56.51   1325.78     57.03  " /><path style="stroke-width: 1.42 ;&st7;  " d=" M  1313.03,    35.78  L  1313.03,    78.27  L  1338.53,    78.27  L  1338.53,    35.78  L  1313.03,    35.78  " /><path style="stroke-width: 0.28 ;&st9;  " d=" M  1325.78,    90.37  L  1322.95,    87.54  L  1322.95,    91.79  L  1325.78,    94.62  L  1328.61,    91.79  L  1328.61,    87.54  L  1325.78,    90.37  " /><text style="font-size:6px;font-family:'NSimSun';" transform="matrix(&st16;  1342.2  56.17 )">5A <tspan x="0 " dy="6.0">MET</tspan></text><text style="font-size:6px;font-family:'NSimSun';" transform="matrix(&st16;  1320.57  32.08 )">(IG)</text><text style="font-size:6px;font-family:'NSimSun';" transform="matrix(&st16;  1312.17  101.49 )">55</text><text style="font-size:6px;font-family:'NSimSun';" transform="matrix(&st16;  1321.81  101.49 )">3C</text><text style="font-size:6px;font-family:'NSimSun';" transform="matrix(&st16;  1319.59  86.47 )">2</text></g><g ewd:figtype="gp" ewd:figID="29" ewd:code="ED"><path style="stroke-width: 0.85 ;&st7;  " d=" M  1368.27,   697.25  L  1368.27,   701.50  " /><path style="stroke-width: 0.85 ;&st7;  " d=" M  1359.77,   701.50  L  1376.77,   701.50  " /><path style="stroke-width: 0.85 ;&st7;  " d=" M  1365.44,   707.17  L  1371.10,   707.17  " /><path style="stroke-width: 0.85 ;&st7;  " d=" M  1366.85,   710.00  L  1369.69,   710.00  " /><path style="stroke-width: 0.85 ;&st7;  " d=" M  1364.02,   704.33  L  1372.52,   704.33  " /></g><g ewd:code="2" ewd:figID="44" ewd:comment="" ewd:figtype="comment"><text style="font-size:6px;font-family:'NSimSun';" transform="matrix(&st16;  1107.08  97.24 )" ewd:textID="3">* 2 : 不带 TFT 显示屏</text></g><g ewd:code="1" ewd:figID="43" ewd:comment="" ewd:figtype="comment"><text style="font-size:6px;font-family:'NSimSun';" transform="matrix(&st16;  1107.08  88.74 )" ewd:textID="2">* 1 : 带 TFT 显示屏</text></g></svg>