<?xml version="1.0" encoding="utf-8"?>
<!DOCTYPE svg PUBLIC "-//W3C//DTD SVG 1.0//EN" "http://www.w3.org/TR/2001/REC-SVG-20010904/DTD/svg10.dtd"[
	<!ENTITY ns_flows "http://ns.adobe.com/Flows/1.0/">
	<!ENTITY ns_svg "http://www.w3.org/2000/svg">
	<!ENTITY ns_xlink "http://www.w3.org/1999/xlink">
	<!ENTITY st0 "font-size:7px;font-family:'NSimSun';adobe-font-script:japanese;">
	<!ENTITY st1 "font-size:6px;font-family:'NSimSun';">
	<!-- White fill  -->
	<!ENTITY st2 "fill:#FFFFFF;stroke:#000000; stroke-width:1.41;stroke-linecap:round;stroke-linejoin:round;">
	<!-- Yellow fill  -->
	<!ENTITY st3 "fill:#FFFFCC;stroke:#FFFFCC; stroke-width:0.1;stroke-linecap:round;stroke-linejoin:round;">
	<!-- Gray fill  -->
	<!ENTITY st4 "fill:#CCCCCC;stroke:#CCCCCC; stroke-width:0.1;stroke-linecap:round;stroke-linejoin:round;">
	<!-- Light-blue fill -->
	<!ENTITY st5 "fill:#CCECF4;stroke:#000000; stroke-width:1.133;stroke-linecap:round;stroke-linejoin:round;">
	<!ENTITY st6 "fill:none;stroke-linecap:butt; stroke-linejoin:round;">
	<!ENTITY st7 "fill:none;stroke:#000000;stroke-linecap:round;stroke-linejoin:round;">
	<!ENTITY st8 "enable-background:new    ;">
	<!-- Black fill -->
	<!ENTITY st9 "fill:#000000;stroke:#000000; stroke-linecap:round;stroke-linejoin:round;">
	<!-- SRS note   -->
	<!ENTITY st10 "font-size:9px;font-family:'NSimSun';">
	<!ENTITY st11 "font-size:9px;font-family:'NSimSun';">
	<!ENTITY st12 "font-size:6px;font-family:'NSimSun';">
	<!ENTITY st13 "fill:none;stroke:#ff0000;stroke-linecap:round;stroke-linejoin:round;">
	<!-- Yellow fill  -->
	<!ENTITY st14 "fill:#FFFF00;stroke:#FFFF00; stroke-width:0.1;stroke-linecap:round;stroke-linejoin:round;">
	<!ENTITY st15 "font-size:6px;font-family:'NSimSun';adobe-font-script:japanese;">
	<!ENTITY st16 "1.00 0.00 0.00 1.00">
	<!ENTITY st17 "0.00 -1.00 1.00 0.00">
	<!ENTITY st18 "font-size:6px;font-family:'NSimSun';">
	<!ENTITY st19 "font-size:9px;font-family:'NSimSun';">
	<!ENTITY st20 "font-size:6px;font-family:'NSimSun';adobe-font-script:japanese;">
	<!ENTITY st21 "font-size:7px;font-family:'NSimSun';adobe-font-script:japanese;">
	<!ATTLIST svg
		xmlns:ewd CDATA #FIXED "http://shcl.co.jp/ewd"
		xmlns:a CDATA #FIXED "http://ns.adobe.com/AdobeSVGViewerExtensions/3.0/"
		ewd:ver CDATA #IMPLIED
	>
	<!ATTLIST a
		ewd:lineID CDATA #IMPLIED
		ewd:groupID CDATA #IMPLIED
		ewd:figtype CDATA #IMPLIED
		ewd:code CDATA #IMPLIED
		ewd:figID CDATA #IMPLIED
		ewd:pinNo CDATA #IMPLIED
		ewd:comment CDATA #IMPLIED >
	<!ATTLIST g
		ewd:lineID CDATA #IMPLIED
		ewd:groupID CDATA #IMPLIED
		ewd:figtype CDATA #IMPLIED
		ewd:code CDATA #IMPLIED
		ewd:figID CDATA #IMPLIED
		ewd:pinNo CDATA #IMPLIED
		ewd:comment CDATA #IMPLIED >
	<!ATTLIST text
		ewd:textID CDATA #IMPLIED
		ewd:horAlign CDATA #IMPLIED >
	<!ATTLIST title
		ewd:textID CDATA #IMPLIED >
]>
<!-- Generator: Shintec Hozumi YS   -->
<svg onload="call_execInitLoadProc_svg('system')" style="overflow:visible;  enable-background:new 0 0 1524.618 710.000" viewBox="0 0 1528.741 710.000" height="710.000" width="1528.741" xml:space="preserve" ewd:ver="2.1.2.6F" xmlns="&ns_svg;" xmlns:ewd="http://shcl.co.jp/ewd" xmlns:a="http://ns.adobe.com/AdobeSVGViewerExtensions/3.0/" xmlns:xlink="&ns_xlink;">
	<script type="text/javascript" xlink:href="../../../../../system/js/ewd/fig/svgfig.js" xmlns:xlink="http://www.w3.org/1999/xlink" />
<g id="ewd_top">
	<a ewd:figtype="conn" style="cursor:pointer;" ewd:code="B16" ewd:figID="1">
		<path style="&st5;" d=" M   892.35,   520.20  L   892.35,   520.20  C   892.35    520.20    892.35    520.20    892.35    520.20  L   892.35,   520.20  C   892.35    515.50    896.16    511.70    900.85    511.70  L   900.85,   511.70  C   905.54    511.70    909.35    515.50    909.35    520.20  L   909.35,   520.20  L   909.35,   537.20  C   909.35    537.20    909.35    537.20    909.35    537.20  L   909.35,   537.20  C   909.35    541.89    905.54    545.70    900.85    545.69  L   900.85,   545.69  C   896.15    545.69    892.35    541.89    892.35    537.19  L   892.35,   537.20 "/>
		<title ewd:textID="6">曲轴位置传感器</title>
	</a>
	<a ewd:figtype="rb" style="cursor:pointer;" ewd:code="FUSE34" ewd:figID="2">
		<path style="fill:#CCECF4;stroke:#000000; stroke-width:0; stroke-linecap:round;stroke-linejoin:round; " d=" M   242.21,    35.78  L   242.21,    78.27  L   267.71,    78.27  L   267.71,    35.78  L   242.21,    35.78 "/>
	</a>
	<a ewd:figtype="conn" style="cursor:pointer;" ewd:code="z7" ewd:figID="3">
		<path style="&st5;" d=" M   297.45,   315.67  L   297.45,   247.68  L   424.93,   247.68  L   424.93,   315.67  L   297.45,   315.67 "/>
		<title ewd:textID="13">动力转向 ECU 总成、动力转向扭矩传感器（电动转向柱分总成）</title>
	</a>
	<a ewd:figtype="conn" style="cursor:pointer;" ewd:code="z8" ewd:figID="4">
		<path style="&st5;" d=" M    50.99,   315.67  L    50.99,   214.25  L   118.98,   214.25  L   118.98,   315.67  L    50.99,   315.67 "/>
		<title ewd:textID="12">动力转向 ECU 总成、动力转向马达总成</title>
	</a>
	<a ewd:figtype="conn" style="cursor:pointer;" ewd:code="E18" ewd:figID="5">
		<path style="&st5;" d=" M   832.86,    95.27  L   832.86,   137.76  L   900.85,   137.76  L   900.85,    95.27  L   832.86,    95.27 "/>
		<title>DLC3</title>
	</a>
	<a ewd:figtype="conn" style="cursor:pointer;" ewd:code="A41" ewd:figID="6">
		<path style="&st5;" d=" M   739.38,   367.22  L   807.37,   367.22  L   807.37,   409.72  L   739.38,   409.72  L   739.38,   367.22 "/>
		<title ewd:textID="2">制动执行器总成</title>
	</a>
	<a ewd:figtype="conn" style="cursor:pointer;" ewd:code="A40,B39" ewd:figID="7">
		<path style="&st5;" d=" M   832.86,   367.22  L   917.85,   367.22  L   917.85,   409.72  L   832.86,   409.72  L   832.86,   367.22 "/>
		<title>ECM</title>
	</a>
	<a ewd:figtype="conn" style="cursor:pointer;" ewd:code="A27,E45,z7,z8" ewd:figID="8">
		<path style="&st5;" d=" M    50.99,   324.73  L    50.99,   367.22  L   467.42,   367.22  L   467.42,   324.73  L    50.99,   324.73 "/>
		<title ewd:textID="14">动力转向 ECU 总成、动力转向扭矩传感器（电动转向柱分总成）、动力转向马达总成</title>
	</a>
	<a ewd:figtype="rb" style="cursor:pointer;" ewd:code="FUSE6" ewd:figID="9">
		<path style="fill:#CCECF4;stroke:#000000; stroke-width:0; stroke-linecap:round;stroke-linejoin:round; " d=" M  1236.54,    35.78  L  1236.54,    78.27  L  1262.04,    78.27  L  1262.04,    35.78  L  1236.54,    35.78 "/>
	</a>
	<a ewd:figtype="conn" style="cursor:pointer;" ewd:code="E55" ewd:figID="10">
		<path style="&st5;" d=" M  1198.30,   239.75  L  1198.30,   494.70  L  1504.25,   494.70  L  1504.25,   239.75  L  1198.30,   239.75 "/>
		<title ewd:textID="5">组合仪表总成</title>
	</a>
	<a ewd:figtype="conn" style="cursor:pointer;" ewd:code="A39" ewd:figID="11">
		<path style="&st5;" d=" M   747.88,   282.24  L   892.35,   282.24  L   892.35,   256.74  L   747.88,   256.74  L   747.88,   282.24 "/>
		<title ewd:textID="8">1 号 CAN 接线连接器</title>
	</a>
	<a ewd:figtype="conn" style="cursor:pointer;" ewd:code="E74" ewd:figID="12">
		<path style="&st5;" d=" M   671.39,   367.22  L   671.39,   341.73  L   552.41,   341.73  L   552.41,   367.22  L   671.39,   367.22 "/>
		<title ewd:textID="9">2 号 CAN 接线连接器</title>
	</a>
	<a ewd:figtype="jb" style="cursor:pointer;" ewd:code="3" ewd:figID="15">
		<path style="&st4; " d=" M   144.48,    35.78  L   144.48,   103.77  L   212.46,   103.77  L   212.46,    35.78  L   144.48,    35.78  "/>
	</a>
	<a ewd:figtype="jb" style="cursor:pointer;" ewd:code="3" ewd:figID="16">
		<path style="&st4; " d=" M  1232.29,   146.26  L  1232.29,   197.25  L  1257.79,   197.25  L  1257.79,   146.26  L  1232.29,   146.26  "/>
	</a>
	<a ewd:figtype="jb" style="cursor:pointer;" ewd:code="3" ewd:figID="17">
		<path style="&st4; " d=" M  1308.78,    35.78  L  1308.78,   103.77  L  1376.77,   103.77  L  1376.77,    35.78  L  1308.78,    35.78  "/>
	</a>
	<a ewd:figtype="fuse" style="cursor:pointer;" ewd:code="FUSE38" ewd:figID="27">
		<path style="&st7; stroke-width:0;" d=" M   148.73,    35.78  L   148.73,    78.27  L   174.22,    78.27  L   174.22,    35.78  L   148.73,    35.78 "/>
	</a>
	<a ewd:figtype="fuse" style="cursor:pointer;" ewd:code="FUSE34" ewd:figID="28">
		<path style="&st7; stroke-width:0;" d=" M   242.21,    35.78  L   242.21,    78.27  L   267.71,    78.27  L   267.71,    35.78  L   242.21,    35.78 "/>
	</a>
	<a ewd:figtype="fuse" style="cursor:pointer;" ewd:code="FUSE6" ewd:figID="29">
		<path style="&st7; stroke-width:0;" d=" M  1236.54,    35.78  L  1236.54,    78.27  L  1262.04,    78.27  L  1262.04,    35.78  L  1236.54,    35.78 "/>
	</a>
	<a ewd:figtype="fuse" style="cursor:pointer;" ewd:code="FUSE39" ewd:figID="30">
		<path style="&st7; stroke-width:0;" d=" M  1313.03,    35.78  L  1313.03,    78.27  L  1338.53,    78.27  L  1338.53,    35.78  L  1313.03,    35.78 "/>
	</a>
	<a style="cursor:pointer;" ewd:lineID="1">
		<path style="stroke:#000000;stroke-width: 5.10 ;&st6;" d=" M   118.98,   376.29  L   118.98,   681.67  "/>
		<path style="stroke:#FFFFFF;stroke-width: 4.53 ;&st6;" d=" M   118.98,   376.29  L   118.98,   681.67  "/>
		<path style="stroke:#000000;stroke-width: 1.13 ;&st6;" d=" M   118.98,   376.29  L   118.98,   681.67  "/>
	</a>
	<a style="cursor:pointer;" ewd:lineID="2">
		<path style="stroke:#00A0C6;stroke-width: 5.10 ;&st6;" d=" M   161.47,   315.67  L   161.47,   103.77  "/>
	</a>
	<a style="cursor:pointer;" ewd:lineID="3">
		<path style="stroke:#00A0C6;stroke-width: 5.10 ;&st6;" d=" M   254.96,   315.67  L   254.96,   103.77  "/>
	</a>
	<a style="cursor:pointer;" ewd:lineID="4">
		<path style="stroke:#99D9E8;stroke-width: 5.10 ;&st6;" d=" M   450.42,   315.67  L   450.42,    44.28  L   849.86,    44.28  L   849.86,    95.27  "/>
	</a>
	<a style="cursor:pointer;" ewd:lineID="5">
		<path style="stroke:#999999;stroke-width: 5.10 ;&st6;" d=" M   560.91,   367.22  L   560.91,   460.71  L   254.96,   460.71  L   254.96,   376.29  "/>
	</a>
	<a style="cursor:pointer;" ewd:lineID="6">
		<path style="stroke:#00A0C6;stroke-width: 5.10 ;&st6;" d=" M   560.91,   341.73  L   560.91,   146.26  L   790.37,   146.26  L   790.37,   182.52  "/>
	</a>
	<a style="cursor:pointer;" ewd:lineID="7"> d=" M   594.90,   367.22  L   594.90,   477.71  L   220.96,   477.71  L   220.96,   376.29 
	
		<path style="stroke:#000000;stroke-width: 5.10 ;&st6;" d=" M   594.90,   367.22  L   594.90,   477.71  L   220.96,   477.71  L   220.96,   376.29  "/>
		<path style="stroke:#FFFFFF;stroke-width: 4.53 ;&st6;" d=" M   594.90,   367.22  L   594.90,   477.71  L   220.96,   477.71  L   220.96,   376.29  "/>
	</a>
	<a style="cursor:pointer;" ewd:lineID="8"> d=" M   594.90,   341.73  L   594.90,   163.26  L   756.37,   163.26  L   756.37,   182.24 
	
		<path style="stroke:#000000;stroke-width: 5.10 ;&st6;" d=" M   594.90,   341.73  L   594.90,   163.26  L   756.37,   163.26  L   756.37,   182.24  "/>
		<path style="stroke:#FFFFFF;stroke-width: 4.53 ;&st6;" d=" M   594.90,   341.73  L   594.90,   163.26  L   756.37,   163.26  L   756.37,   182.24  "/>
	</a>
	<a style="cursor:pointer;" ewd:lineID="9">
		<path style="stroke:#7FC97F;stroke-width: 5.10 ;&st6;" d=" M   628.89,   367.22  L   628.89,   630.68  L  1317.28,   630.68  L  1317.28,   503.77  "/>
	</a>
	<a style="cursor:pointer;" ewd:lineID="10"> d=" M   662.89,   367.22  L   662.89,   613.68  L  1249.29,   613.68  L  1249.29,   503.77 
	
		<path style="stroke:#000000;stroke-width: 5.10 ;&st6;" d=" M   662.89,   367.22  L   662.89,   613.68  L  1249.29,   613.68  L  1249.29,   503.77  "/>
		<path style="stroke:#FFFFFF;stroke-width: 4.53 ;&st6;" d=" M   662.89,   367.22  L   662.89,   613.68  L  1249.29,   613.68  L  1249.29,   503.77  "/>
	</a>
	<a style="cursor:pointer;" ewd:lineID="11"> d=" M   756.37,   282.24  L   756.37,   358.16 
	
		<path style="stroke:#000000;stroke-width: 5.10 ;&st6;" d=" M   756.37,   282.24  L   756.37,   358.16  "/>
		<path style="stroke:#FFFFFF;stroke-width: 4.53 ;&st6;" d=" M   756.37,   282.24  L   756.37,   358.16  "/>
	</a>
	<a style="cursor:pointer;" ewd:lineID="12"> d=" M   756.37,   197.25  L   756.37,   256.74 
	
		<path style="stroke:#000000;stroke-width: 5.10 ;&st6;" d=" M   756.37,   197.25  L   756.37,   256.74  "/>
		<path style="stroke:#FFFFFF;stroke-width: 4.53 ;&st6;" d=" M   756.37,   197.25  L   756.37,   256.74  "/>
	</a>
	<a style="cursor:pointer;" ewd:lineID="13">
		<path style="stroke:#56077D;stroke-width: 5.10 ;&st6;" d=" M   790.37,   282.24  L   790.37,   358.16  "/>
	</a>
	<a style="cursor:pointer;" ewd:lineID="14">
		<path style="stroke:#00A0C6;stroke-width: 5.10 ;&st6;" d=" M   790.37,   197.25  L   790.37,   256.74  "/>
	</a>
	<a style="cursor:pointer;" ewd:lineID="15">
		<path style="stroke:#FF0000;stroke-width: 5.10 ;&st6;" d=" M   849.86,   418.78  L   849.86,   579.69  L   900.85,   579.69  L   900.85,   545.69  "/>
	</a>
	<a style="cursor:pointer;" ewd:lineID="16"> d=" M   849.86,   282.24  L   849.86,   358.16 
	
		<path style="stroke:#000000;stroke-width: 5.10 ;&st6;" d=" M   849.86,   282.24  L   849.86,   358.16  "/>
		<path style="stroke:#FFFFFF;stroke-width: 4.53 ;&st6;" d=" M   849.86,   282.24  L   849.86,   358.16  "/>
	</a>
	<a style="cursor:pointer;" ewd:lineID="17"> d=" M   849.86,   197.25  L   849.86,   256.74 
	
		<path style="stroke:#000000;stroke-width: 5.10 ;&st6;" d=" M   849.86,   197.25  L   849.86,   256.74  "/>
		<path style="stroke:#FFFFFF;stroke-width: 4.53 ;&st6;" d=" M   849.86,   197.25  L   849.86,   256.74  "/>
	</a>
	<a style="cursor:pointer;" ewd:lineID="18"> d=" M   849.86,   137.76  L   849.86,   182.24 
	
		<path style="stroke:#000000;stroke-width: 5.10 ;&st6;" d=" M   849.86,   137.76  L   849.86,   182.24  "/>
		<path style="stroke:#FFFFFF;stroke-width: 4.53 ;&st6;" d=" M   849.86,   137.76  L   849.86,   182.24  "/>
	</a>
	<a style="cursor:pointer;" ewd:lineID="19">
		<path style="stroke:#000000;stroke-width: 5.10 ;&st6;" d=" M   883.85,   282.24  L   883.85,   358.16  "/>
	</a>
	<a style="cursor:pointer;" ewd:lineID="20">
		<path style="stroke:#FF0000;stroke-width: 5.10 ;&st6;" d=" M   883.85,   197.25  L   883.85,   256.74  "/>
	</a>
	<a style="cursor:pointer;" ewd:lineID="21">
		<path style="stroke:#FF0000;stroke-width: 5.10 ;&st6;" d=" M   883.85,   137.76  L   883.85,   182.52  "/>
	</a>
	<a style="cursor:pointer;" ewd:lineID="22">
		<path style="stroke:#008837;stroke-width: 5.10 ;&st6;" d=" M   900.85,   511.70  L   900.85,   418.78  "/>
	</a>
	<a style="cursor:pointer;" ewd:lineID="23">
		<path style="stroke:#992903;stroke-width: 5.10 ;&st6;" d=" M   985.84,   554.19  L   985.84,   681.67  "/>
	</a>
	<a style="cursor:pointer;" ewd:lineID="24">
		<path style="stroke:#992903;stroke-width: 5.10 ;&st6;" d=" M   985.84,   537.20  L   985.84,   477.71  L   943.34,   477.71  "/>
	</a>
	<a style="cursor:pointer;" ewd:lineID="25"> d=" M  1249.29,   230.68  L  1249.29,   197.25 
	
		<path style="stroke:#000000;stroke-width: 5.10 ;&st6;" d=" M  1249.29,   230.68  L  1249.29,   197.25  "/>
		<path style="stroke:#FFFFFF;stroke-width: 4.53 ;&st6;" d=" M  1249.29,   230.68  L  1249.29,   197.25  "/>
	</a>
	<a style="cursor:pointer;" ewd:lineID="26"> d=" M  1249.29,   103.77  L  1249.29,   146.26 
	
		<path style="stroke:#000000;stroke-width: 5.10 ;&st6;" d=" M  1249.29,   103.77  L  1249.29,   146.26  "/>
		<path style="stroke:#FFFFFF;stroke-width: 4.53 ;&st6;" d=" M  1249.29,   103.77  L  1249.29,   146.26  "/>
	</a>
	<a style="cursor:pointer;" ewd:lineID="27">
		<path style="stroke:#F668B2;stroke-width: 5.10 ;&st6;" d=" M  1325.78,   103.77  L  1325.78,   230.68  "/>
	</a>
	<a style="cursor:pointer;" ewd:lineID="28">
		<path style="stroke:#992903;stroke-width: 5.10 ;&st6;" d=" M  1368.27,   503.77  L  1368.27,   681.67  "/>
	</a>
	<g ewd:figtype="conn" ewd:figID="1" ewd:code="B16">
		<path style="stroke-width: 0.85 ;&st7;  " d=" M   900.85,   511.70  L   900.85,   520.20  "/>
		<path style="stroke-width: 0.85 ;&st7;  " d=" M   900.85,   537.20  L   900.85,   545.69  "/>
		<path style="stroke-width: 1.42 ;&st7;  " d=" M   909.35,   537.20  L   909.35,   528.70  "/>
		<path style="stroke-width: 1.42 ;&st7;  " d=" M   892.35,   537.20  L   892.35,   528.70  "/>
		<path style="stroke-width: 1.42 ;&st7;  " d=" M   909.35,   520.20  L   909.35,   528.70  "/>
		<path style="stroke-width: 1.42 ;&st7;  " d=" M   892.35,   520.20  L   892.35,   528.70  "/>
		<path style="stroke-width: 0.85 ;&st7;   " d=" M   898.32,   526.22  C   899.69    527.62    901.93    527.64    903.33    526.27  "/>
		<path style="stroke-width: 0.85 ;&st7;   " d=" M   903.33,   526.27  C   904.73    524.90    904.75    522.66    903.38    521.26  "/>
		<path style="stroke-width: 0.85 ;&st7;   " d=" M   903.38,   521.26  C   902.69    520.55    901.84    520.20    900.85    520.20  "/>
		<path style="stroke-width: 0.85 ;&st7;   " d=" M   898.32,   531.18  C   899.69    532.57    901.93    532.60    903.33    531.23  "/>
		<path style="stroke-width: 0.85 ;&st7;   " d=" M   903.33,   531.23  C   904.73    529.86    904.75    527.62    903.38    526.22  "/>
		<path style="stroke-width: 0.85 ;&st7;   " d=" M   903.38,   526.22  C   902.01    524.82    899.77    524.80    898.37    526.17  "/>
		<path style="stroke-width: 0.85 ;&st7;   " d=" M   898.37,   526.17  C   898.35    526.18    898.34    526.20    898.32    526.22  "/>
		<path style="stroke-width: 0.85 ;&st7;   " d=" M   900.85,   537.20  C   902.81    537.20    904.39    535.61    904.39    533.65  "/>
		<path style="stroke-width: 0.85 ;&st7;   " d=" M   904.39,   533.65  C   904.39    531.70    902.81    530.11    900.85    530.11  "/>
		<path style="stroke-width: 0.85 ;&st7;   " d=" M   900.85,   530.11  C   899.86    530.11    899.01    530.47    898.32    531.18  "/>
		<path style="stroke-width: 1.42 ;&st7;   " d=" M   892.35,   537.20  C   892.35    541.89    896.16    545.69    900.85    545.69  "/>
		<path style="stroke-width: 1.42 ;&st7;   " d=" M   900.85,   545.69  C   905.54    545.69    909.35    541.89    909.35    537.20  "/>
		<path style="stroke-width: 1.42 ;&st7;   " d=" M   909.35,   520.20  C   909.35    515.50    905.54    511.70    900.85    511.70  "/>
		<path style="stroke-width: 1.42 ;&st7;   " d=" M   900.85,   511.70  C   896.16    511.70    892.35    515.50    892.35    520.20  "/>
		<text style="font-size:6px;font-family:'NSimSun';" transform="matrix(&st16;  894.67  553.89 )">1</text>
		<text style="font-size:6px;font-family:'NSimSun';" transform="matrix(&st16;  894.67  508.01 )">2</text>
		<g ewd:figtype="title">
			<text style="font-size:6px;font-family:'NSimSun';" transform="matrix(&st16;  911.6  522.14 )">B16</text>
			<text style="font-size:6px;font-family:'NSimSun';" transform="matrix(&st16;  911.61  529.25 )" ewd:textID="6">曲轴位置传感器<tspan x="0 " dy="6.0"></tspan></text>
		</g>
	</g>
	<g ewd:figtype="rb" ewd:figID="2" ewd:code="FUSE34">
		<text style="font-size:6px;font-family:'NSimSun';" transform="matrix(&st16;  246.91  32.08 )">(BAT)</text>
		<text style="font-size:6px;font-family:'NSimSun';" transform="matrix(&st16;  253.16  101.49 )">1</text>
		<text style="font-size:6px;font-family:'NSimSun';" transform="matrix(&st16;  271.38  56.17 )">60A <tspan x="0 " dy="6.0">EPS</tspan></text>
		<text style="font-size:6px;font-family:'NSimSun';" transform="matrix(&st16;  248.77  86.47 )">2</text>
		<path style="stroke-width: 0.28 ;&st9;  " d=" M   254.96,    90.37  L   252.12,    87.54  L   252.12,    91.79  L   254.96,    94.62  L   257.79,    91.79  L   257.79,    87.54  L   254.96,    90.37  "/>
		<path style="stroke-width: 1.42 ;&st7;   " d=" M   261.33,    99.52  C   261.33     97.17    259.43     95.27    257.08     95.27  "/>
		<path style="stroke-width: 1.42 ;&st7;   " d=" M   257.08,   103.77  C   259.43    103.77    261.33    101.87    261.33     99.52  "/>
		<path style="stroke-width: 1.42 ;&st7;   " d=" M   248.58,    99.52  C   248.58    101.87    250.49    103.77    252.83    103.77  "/>
		<path style="stroke-width: 1.42 ;&st7;   " d=" M   252.83,    95.27  C   250.49     95.27    248.58     97.17    248.58     99.52  "/>
		<path style="stroke-width: 1.42 ;&st7;  " d=" M   257.08,   103.77  L   252.83,   103.77  "/>
		<path style="stroke-width: 1.42 ;&st7;  " d=" M   257.08,    95.27  L   252.83,    95.27  "/>
		<path style="stroke-width: 0.85 ;&st7;  " d=" M   254.96,    69.77  L   254.96,    95.27  "/>
		<path style="stroke-width: 1.42 ;&st7;  " d=" M   242.21,    35.78  L   242.21,    78.27  L   267.71,    78.27  L   267.71,    35.78  L   242.21,    35.78  "/>
		<path style="stroke-width: 0.85 ;&st7;   " d=" M   256.37,    68.36  C   256.37     67.57    255.74     66.94    254.96     66.94  "/>
		<path style="stroke-width: 0.85 ;&st7;   " d=" M   254.96,    66.94  C   254.18     66.94    253.54     67.57    253.54     68.36  "/>
		<path style="stroke-width: 0.85 ;&st7;   " d=" M   253.54,    68.36  C   253.54     69.14    254.18     69.77    254.96     69.77  "/>
		<path style="stroke-width: 0.85 ;&st7;   " d=" M   254.96,    69.77  C   255.74     69.77    256.37     69.14    256.37     68.36  "/>
		<path style="stroke-width: 0.85 ;&st7;   " d=" M   256.37,    45.69  C   256.37     44.91    255.74     44.28    254.96     44.28  "/>
		<path style="stroke-width: 0.85 ;&st7;   " d=" M   254.96,    44.28  C   254.18     44.28    253.54     44.91    253.54     45.69  "/>
		<path style="stroke-width: 0.85 ;&st7;   " d=" M   253.54,    45.69  C   253.54     46.48    254.18     47.11    254.96     47.11  "/>
		<path style="stroke-width: 0.85 ;&st7;   " d=" M   254.96,    47.11  C   255.74     47.11    256.37     46.48    256.37     45.69  "/>
		<path style="stroke-width: 1.42 ;&st7;   " d=" M   254.96,    66.94  C   257.70     65.33    258.61     61.80    256.99     59.06  "/>
		<path style="stroke-width: 1.42 ;&st7;   " d=" M   256.99,    59.06  C   256.47     58.18    255.84     57.55    254.96     57.03  "/>
		<path style="stroke-width: 1.42 ;&st7;   " d=" M   254.96,    47.11  C   252.22     48.72    251.31     52.25    252.92     54.99  "/>
		<path style="stroke-width: 1.42 ;&st7;   " d=" M   252.92,    54.99  C   253.44     55.87    254.08     56.51    254.96     57.03  "/>
	</g>
	<g ewd:figtype="conn" ewd:figID="3" ewd:code="z7"> d=" M   322.95,   281.67  L   322.95,   315.67 
	
		<path style="stroke:#000000;stroke-width: 5.10 ;&st6;" d=" M   322.95,   281.67  L   322.95,   315.67  "/>
		<path style="stroke:#FFFFFF;stroke-width: 4.53 ;&st6;" d=" M   322.95,   281.67  L   322.95,   315.67  "/>
		<path style="stroke:#FF0000;stroke-width: 5.10 ;&st6;" d=" M   348.44,   281.67  L   348.44,   315.67  "/>
		<path style="stroke:#FFE600;stroke-width: 5.10 ;&st6;" d=" M   373.94,   281.67  L   373.94,   315.67  "/>
		<path style="stroke:#000000;stroke-width: 5.10 ;&st6;" d=" M   399.43,   281.67  L   399.43,   315.67  "/>
		<text style="font-size:6px;font-family:'NSimSun';" transform="matrix(&st16; 346.80 275.14)" ewd:textID="17" ewd:horAlign="center">扭矩传感器</text>
		<text style="font-size:6px;font-family:'NSimSun';" transform="matrix(&st16; 350.30 266.64)" ewd:textID="10" ewd:horAlign="center">动力转向</text>
		<text style="font-size:6px;font-family:'NSimSun';" transform="matrix(&st17;  319.25  301.13 )">W</text>
		<text style="font-size:6px;font-family:'NSimSun';" transform="matrix(&st17;  344.75  300.28 )">R</text>
		<text style="font-size:6px;font-family:'NSimSun';" transform="matrix(&st17;  370.24  300.36 )">Y</text>
		<text style="font-size:6px;font-family:'NSimSun';" transform="matrix(&st17;  395.74  300.36 )">B</text>
		<path style="stroke-width: 1.42 ;&st7;  " d=" M   314.45,   256.18  L   314.45,   281.67  L   407.93,   281.67  L   407.93,   256.18  L   314.45,   256.18  "/>
		<path style="stroke-width: 1.42 ;&st7;  " d=" M   297.45,   315.67  L   297.45,   247.68  L   424.93,   247.68  L   424.93,   315.67  L   297.45,   315.67  "/>
		<text style="font-size:6px;font-family:'NSimSun';" transform="matrix(&st16;  346.02  322.17 )">C</text>
		<text style="font-size:6px;font-family:'NSimSun';" transform="matrix(&st16;  339.75  322.17 )">8</text>
		<path style="stroke-width: 1.42 ;&st7;   " d=" M   352.97,   320.20  C   352.97    317.70    350.95    315.67    348.44    315.67  "/>
		<path style="stroke-width: 1.42 ;&st7;   " d=" M   348.44,   315.67  C   345.94    315.67    343.91    317.70    343.91    320.20  "/>
		<path style="stroke-width: 1.42 ;&st7;   " d=" M   343.91,   320.20  C   343.91    322.70    345.94    324.73    348.44    324.73  "/>
		<path style="stroke-width: 1.42 ;&st7;   " d=" M   348.44,   324.73  C   350.95    324.73    352.97    322.70    352.97    320.20  "/>
		<text style="font-size:6px;font-family:'NSimSun';" transform="matrix(&st16;  320.53  322.17 )">C</text>
		<path style="stroke-width: 1.42 ;&st7;   " d=" M   327.48,   320.20  C   327.48    317.70    325.45    315.67    322.95    315.67  "/>
		<path style="stroke-width: 1.42 ;&st7;   " d=" M   322.95,   315.67  C   320.44    315.67    318.41    317.70    318.41    320.20  "/>
		<path style="stroke-width: 1.42 ;&st7;   " d=" M   318.41,   320.20  C   318.41    322.70    320.44    324.73    322.95    324.73  "/>
		<path style="stroke-width: 1.42 ;&st7;   " d=" M   322.95,   324.73  C   325.45    324.73    327.48    322.70    327.48    320.20  "/>
		<text style="font-size:6px;font-family:'NSimSun';" transform="matrix(&st16;  314.25  322.17 )">9</text>
		<text style="font-size:6px;font-family:'NSimSun';" transform="matrix(&st16;  365.24  322.17 )">1</text>
		<text style="font-size:6px;font-family:'NSimSun';" transform="matrix(&st16;  371.52  322.17 )">C</text>
		<path style="stroke-width: 1.42 ;&st7;   " d=" M   378.47,   320.20  C   378.47    317.70    376.44    315.67    373.94    315.67  "/>
		<path style="stroke-width: 1.42 ;&st7;   " d=" M   373.94,   315.67  C   371.43    315.67    369.40    317.70    369.40    320.20  "/>
		<path style="stroke-width: 1.42 ;&st7;   " d=" M   369.40,   320.20  C   369.40    322.70    371.43    324.73    373.94    324.73  "/>
		<path style="stroke-width: 1.42 ;&st7;   " d=" M   373.94,   324.73  C   376.44    324.73    378.47    322.70    378.47    320.20  "/>
		<text style="font-size:6px;font-family:'NSimSun';" transform="matrix(&st16;  390.74  322.17 )">2</text>
		<path style="stroke-width: 1.42 ;&st7;   " d=" M   403.97,   320.20  C   403.97    317.70    401.94    315.67    399.43    315.67  "/>
		<path style="stroke-width: 1.42 ;&st7;   " d=" M   399.43,   315.67  C   396.93    315.67    394.90    317.70    394.90    320.20  "/>
		<path style="stroke-width: 1.42 ;&st7;   " d=" M   394.90,   320.20  C   394.90    322.70    396.93    324.73    399.43    324.73  "/>
		<path style="stroke-width: 1.42 ;&st7;   " d=" M   399.43,   324.73  C   401.94    324.73    403.97    322.70    403.97    320.20  "/>
		<text style="font-size:6px;font-family:'NSimSun';" transform="matrix(&st16;  397.01  322.17 )">C</text>
		<g ewd:figtype="title">
			<text style="font-size:6px;font-family:'NSimSun';" transform="matrix(&st16; 294.04 236.98)">z7(C)</text>
			<text style="font-size:6px;font-family:'NSimSun';" transform="matrix(&st16; 294.04 244.08)" ewd:textID="16">动力转向扭矩传感器（电动转向柱分总成）<tspan x="0 " dy="6.0"></tspan><tspan x="0 " dy="6.0"></tspan></text>
		</g>
	</g>
	<g ewd:figtype="conn" ewd:figID="4" ewd:code="z8">
		<path style="stroke:#FF0000;stroke-width: 5.10 ;&st6;" d=" M    67.99,   315.67  L    67.99,   222.75  L   101.98,   222.75  L   101.98,   253.91  "/>
		<path style="stroke:#000000;stroke-width: 5.10 ;&st6;" d=" M   101.98,   276.57  L   101.98,   315.67  "/>
		<text style="font-size:6px;font-family:'NSimSun';" transform="matrix(&st17;  64.29  300.85 )">R</text>
		<text style="font-size:6px;font-family:'NSimSun';" transform="matrix(&st17;  98.29  300.92 )">B</text>
		<text style="font-size:6px;font-family:'NSimSun';" transform="matrix(&st16;  99.25  267.21 )">M</text>
		<text style="font-size:6px;font-family:'NSimSun';" transform="matrix(&st17; 89.86 284.15)" ewd:textID="15">动力转向马达<tspan x="0 " dy="6.0"></tspan></text>
		<path style="stroke-width: 1.42 ;&st7;  " d=" M    50.99,   315.67  L    50.99,   214.25  L   118.98,   214.25  L   118.98,   315.67  L    50.99,   315.67  "/>
		<path style="stroke-width: 1.42 ;&st7;   " d=" M    93.48,   265.24  C    93.48    269.93     97.29    273.74    101.98    273.74  "/>
		<path style="stroke-width: 1.42 ;&st7;   " d=" M   101.98,   273.74  C   106.68    273.74    110.48    269.93    110.48    265.24  "/>
		<path style="stroke-width: 1.42 ;&st7;   " d=" M   110.48,   265.24  C   110.48    260.55    106.68    256.74    101.98    256.74  "/>
		<path style="stroke-width: 1.42 ;&st7;   " d=" M   101.98,   256.74  C    97.29    256.74     93.48    260.55     93.48    265.24  "/>
		<path style="stroke-width: 1.42 ;&st7;  " d=" M    97.73,   276.57  L   106.23,   276.57  "/>
		<path style="stroke-width: 1.42 ;&st7;  " d=" M    97.73,   272.61  L    97.73,   276.57  "/>
		<path style="stroke-width: 1.42 ;&st7;  " d=" M   106.23,   276.57  L   106.23,   272.61  "/>
		<path style="stroke-width: 1.42 ;&st7;  " d=" M    97.73,   253.91  L   106.23,   253.91  "/>
		<path style="stroke-width: 1.42 ;&st7;  " d=" M    97.73,   257.88  L    97.73,   253.91  "/>
		<path style="stroke-width: 1.42 ;&st7;  " d=" M   106.23,   253.91  L   106.23,   257.88  "/>
		<path style="stroke-width: 1.42 ;&st7;   " d=" M    72.52,   320.20  C    72.52    317.70     70.49    315.67     67.99    315.67  "/>
		<path style="stroke-width: 1.42 ;&st7;   " d=" M    67.99,   315.67  C    65.49    315.67     63.46    317.70     63.46    320.20  "/>
		<path style="stroke-width: 1.42 ;&st7;   " d=" M    63.46,   320.20  C    63.46    322.70     65.49    324.73     67.99    324.73  "/>
		<path style="stroke-width: 1.42 ;&st7;   " d=" M    67.99,   324.73  C    70.49    324.73     72.52    322.70     72.52    320.20  "/>
		<text style="font-size:6px;font-family:'NSimSun';" transform="matrix(&st16;  65.61  322.17 )">D</text>
		<text style="font-size:6px;font-family:'NSimSun';" transform="matrix(&st16;  59.29  322.17 )">1</text>
		<path style="stroke-width: 1.42 ;&st7;   " d=" M   106.52,   320.20  C   106.52    317.70    104.49    315.67    101.98    315.67  "/>
		<path style="stroke-width: 1.42 ;&st7;   " d=" M   101.98,   315.67  C    99.48    315.67     97.45    317.70     97.45    320.20  "/>
		<path style="stroke-width: 1.42 ;&st7;   " d=" M    97.45,   320.20  C    97.45    322.70     99.48    324.73    101.98    324.73  "/>
		<path style="stroke-width: 1.42 ;&st7;   " d=" M   101.98,   324.73  C   104.49    324.73    106.52    322.70    106.52    320.20  "/>
		<text style="font-size:6px;font-family:'NSimSun';" transform="matrix(&st16;  99.6  322.17 )">D</text>
		<text style="font-size:6px;font-family:'NSimSun';" transform="matrix(&st16;  93.29  322.17 )">2</text>
		<g ewd:figtype="title">
			<text style="font-size:6px;font-family:'NSimSun';" transform="matrix(&st16; 47.59 210.60)" ewd:textID="15">动力转向马达<tspan x="0 " dy="6.0"></tspan></text>
			<text style="font-size:6px;font-family:'NSimSun';" transform="matrix(&st16; 47.58 203.50)">z8(D)</text>
		</g>
	</g>
	<g ewd:figtype="conn" ewd:figID="5" ewd:code="E18">
		<g ewd:lineID="18">
			<text style="font-size:6px;font-family:'NSimSun';" transform="matrix(&st16;  840.57  145.96 )">14</text>
			<text style="font-size:6px;font-family:'NSimSun';" transform="matrix(&st16;  841.5  134.07 )">CANL</text>
		</g>
		<g ewd:lineID="21">
			<text style="font-size:6px;font-family:'NSimSun';" transform="matrix(&st16;  877.67  145.96 )">6</text>
			<text style="font-size:6px;font-family:'NSimSun';" transform="matrix(&st16;  875.07  134.07 )">CANH</text>
		</g>
		<g ewd:lineID="4">
			<text style="font-size:6px;font-family:'NSimSun';" transform="matrix(&st16;  840.57  91.58 )">12</text>
			<text style="font-size:6px;font-family:'NSimSun';" transform="matrix(&st16;  846.12  102.9 )">TS</text>
		</g>
		<path style="stroke-width: 1.42 ;&st7;  " d=" M   832.86,    95.27  L   832.86,   137.76  L   900.85,   137.76  L   900.85,    95.27  L   832.86,    95.27  "/>
		<g ewd:figtype="title">
			<text style="font-size:6px;font-family:'NSimSun';" transform="matrix(&st17;  915.57  140.67 )">DLC3</text>
			<text style="font-size:6px;font-family:'NSimSun';" transform="matrix(&st17;  908.74  140.66 )">E18</text>
		</g>
	</g>
	<g ewd:figtype="conn" ewd:figID="6" ewd:code="A41">
		<g ewd:lineID="11">
			<text style="font-size:6px;font-family:'NSimSun';" transform="matrix(&st16;  744.58  364.66 )">14</text>
			<text style="font-size:6px;font-family:'NSimSun';" transform="matrix(&st16;  754.07  364.66 )">A</text>
			<path style="stroke-width: 1.42 ;&st7;   " d=" M   760.91,   362.69  C   760.91    360.19    758.88    358.16    756.37    358.16  "/>
			<path style="stroke-width: 1.42 ;&st7;   " d=" M   756.37,   358.16  C   753.87    358.16    751.84    360.19    751.84    362.69  "/>
			<path style="stroke-width: 1.42 ;&st7;   " d=" M   751.84,   362.69  C   751.84    365.19    753.87    367.22    756.37    367.22  "/>
			<path style="stroke-width: 1.42 ;&st7;   " d=" M   756.37,   367.22  C   758.88    367.22    760.91    365.19    760.91    362.69  "/>
			<text style="font-size:6px;font-family:'NSimSun';" transform="matrix(&st16;  748.02  374.86 )">CANL</text>
		</g>
		<g ewd:lineID="13">
			<text style="font-size:6px;font-family:'NSimSun';" transform="matrix(&st16;  778.57  364.66 )">26</text>
			<text style="font-size:6px;font-family:'NSimSun';" transform="matrix(&st16;  788.06  364.66 )">A</text>
			<path style="stroke-width: 1.42 ;&st7;   " d=" M   794.90,   362.69  C   794.90    360.19    792.87    358.16    790.37    358.16  "/>
			<path style="stroke-width: 1.42 ;&st7;   " d=" M   790.37,   358.16  C   787.86    358.16    785.84    360.19    785.84    362.69  "/>
			<path style="stroke-width: 1.42 ;&st7;   " d=" M   785.84,   362.69  C   785.84    365.19    787.86    367.22    790.37    367.22  "/>
			<path style="stroke-width: 1.42 ;&st7;   " d=" M   790.37,   367.22  C   792.87    367.22    794.90    365.19    794.90    362.69  "/>
			<text style="font-size:6px;font-family:'NSimSun';" transform="matrix(&st16;  781.59  374.86 )">CANH</text>
		</g>
		<path style="stroke-width: 1.42 ;&st7;  " d=" M   739.38,   367.22  L   807.36,   367.22  L   807.36,   409.72  L   739.38,   409.72  L   739.38,   367.22  "/>
		<g ewd:figtype="title">
			<text style="font-size:6px;font-family:'NSimSun';" transform="matrix(&st16;  735.96  417.33 )">A41(A)</text>
			<text style="font-size:6px;font-family:'NSimSun';" transform="matrix(&st16;  735.97  424.43 )" ewd:textID="2">制动执行器总成<tspan x="0 " dy="6.0"></tspan></text>
		</g>
	</g>
	<g ewd:figtype="conn" ewd:figID="7" ewd:code="A40,B39">
		<g ewd:lineID="15">
			<text style="font-size:6px;font-family:'NSimSun';" transform="matrix(&st16;  834.96  416.22 )">114</text>
			<text style="font-size:6px;font-family:'NSimSun';" transform="matrix(&st16;  847.67  416.22 )">B</text>
			<path style="stroke-width: 1.42 ;&st7;   " d=" M   854.39,   414.25  C   854.39    411.75    852.36    409.72    849.86    409.72  "/>
			<path style="stroke-width: 1.42 ;&st7;   " d=" M   849.86,   409.72  C   847.35    409.72    845.33    411.75    845.33    414.25  "/>
			<path style="stroke-width: 1.42 ;&st7;   " d=" M   845.33,   414.25  C   845.33    416.75    847.35    418.78    849.86    418.78  "/>
			<path style="stroke-width: 1.42 ;&st7;   " d=" M   849.86,   418.78  C   852.36    418.78    854.39    416.75    854.39    414.25  "/>
			<text style="font-size:6px;font-family:'NSimSun';" transform="matrix(&st16;  844.14  406.02 )">NE+</text>
		</g>
		<g ewd:lineID="16">
			<text style="font-size:6px;font-family:'NSimSun';" transform="matrix(&st16;  838.06  364.66 )">26</text>
			<path style="stroke-width: 1.42 ;&st7;   " d=" M   854.39,   362.69  C   854.39    360.19    852.36    358.16    849.86    358.16  "/>
			<path style="stroke-width: 1.42 ;&st7;   " d=" M   849.86,   358.16  C   847.35    358.16    845.33    360.19    845.33    362.69  "/>
			<path style="stroke-width: 1.42 ;&st7;   " d=" M   845.33,   362.69  C   845.33    365.19    847.35    367.22    849.86    367.22  "/>
			<path style="stroke-width: 1.42 ;&st7;   " d=" M   849.86,   367.22  C   852.36    367.22    854.39    365.19    854.39    362.69  "/>
			<text style="font-size:6px;font-family:'NSimSun';" transform="matrix(&st16;  847.55  364.66 )">A</text>
			<text style="font-size:6px;font-family:'NSimSun';" transform="matrix(&st16;  841.5  374.86 )">CANL</text>
		</g>
		<g ewd:lineID="19">
			<text style="font-size:6px;font-family:'NSimSun';" transform="matrix(&st16;  872.06  364.66 )">13</text>
			<path style="stroke-width: 1.42 ;&st7;   " d=" M   888.38,   362.69  C   888.38    360.19    886.36    358.16    883.85    358.16  "/>
			<path style="stroke-width: 1.42 ;&st7;   " d=" M   883.85,   358.16  C   881.35    358.16    879.32    360.19    879.32    362.69  "/>
			<path style="stroke-width: 1.42 ;&st7;   " d=" M   879.32,   362.69  C   879.32    365.19    881.35    367.22    883.85    367.22  "/>
			<path style="stroke-width: 1.42 ;&st7;   " d=" M   883.85,   367.22  C   886.36    367.22    888.38    365.19    888.38    362.69  "/>
			<text style="font-size:6px;font-family:'NSimSun';" transform="matrix(&st16;  881.55  364.66 )">A</text>
			<text style="font-size:6px;font-family:'NSimSun';" transform="matrix(&st16;  875.07  374.86 )">CANH</text>
		</g>
		<g ewd:lineID="22">
			<text style="font-size:6px;font-family:'NSimSun';" transform="matrix(&st16;  885.95  416.22 )">113</text>
			<path style="stroke-width: 1.42 ;&st7;   " d=" M   905.38,   414.25  C   905.38    411.75    903.35    409.72    900.85    409.72  "/>
			<path style="stroke-width: 1.42 ;&st7;   " d=" M   900.85,   409.72  C   898.35    409.72    896.32    411.75    896.32    414.25  "/>
			<path style="stroke-width: 1.42 ;&st7;   " d=" M   896.32,   414.25  C   896.32    416.75    898.35    418.78    900.85    418.78  "/>
			<path style="stroke-width: 1.42 ;&st7;   " d=" M   900.85,   418.78  C   903.35    418.78    905.38    416.75    905.38    414.25  "/>
			<text style="font-size:6px;font-family:'NSimSun';" transform="matrix(&st16;  898.66  416.22 )">B</text>
			<text style="font-size:6px;font-family:'NSimSun';" transform="matrix(&st16;  895.13  406.02 )">NE-</text>
		</g>
		<path style="stroke-width: 1.42 ;&st7;  " d=" M   832.86,   367.22  L   917.85,   367.22  L   917.85,   409.72  L   832.86,   409.72  L   832.86,   367.22  "/>
		<g ewd:figtype="title">
			<text style="font-size:6px;font-family:'NSimSun';" transform="matrix(&st17;  925.46  404.12 )">A40(A),B39(B)</text>
			<text style="font-size:6px;font-family:'NSimSun';" transform="matrix(&st17;  932.56  404.12 )">ECM</text>
		</g>
	</g>
	<g ewd:figtype="conn" ewd:figID="8" ewd:code="A27,E45,z7,z8">
		<g ewd:lineID="1">
			<text style="font-size:6px;font-family:'NSimSun';" transform="matrix(&st16;  110.29  373.73 )">2</text>
			<path style="stroke-width: 1.42 ;&st7;   " d=" M   123.51,   371.76  C   123.51    369.25    121.48    367.22    118.98    367.22  "/>
			<path style="stroke-width: 1.42 ;&st7;   " d=" M   118.98,   367.22  C   116.48    367.22    114.45    369.25    114.45    371.76  "/>
			<path style="stroke-width: 1.42 ;&st7;   " d=" M   114.45,   371.76  C   114.45    374.26    116.48    376.29    118.98    376.29  "/>
			<path style="stroke-width: 1.42 ;&st7;   " d=" M   118.98,   376.29  C   121.48    376.29    123.51    374.26    123.51    371.76  "/>
			<text style="font-size:6px;font-family:'NSimSun';" transform="matrix(&st16;  116.68  373.73 )">A</text>
			<text style="font-size:6px;font-family:'NSimSun';" transform="matrix(&st16;  110.59  363.53 )">PGND</text>
		</g>
		<g ewd:lineID="2">
			<text style="font-size:6px;font-family:'NSimSun';" transform="matrix(&st16;  152.78  322.17 )">1</text>
			<path style="stroke-width: 1.42 ;&st7;   " d=" M   166.01,   320.20  C   166.01    317.70    163.98    315.67    161.47    315.67  "/>
			<path style="stroke-width: 1.42 ;&st7;   " d=" M   161.47,   315.67  C   158.97    315.67    156.94    317.70    156.94    320.20  "/>
			<path style="stroke-width: 1.42 ;&st7;   " d=" M   156.94,   320.20  C   156.94    322.70    158.97    324.73    161.47    324.73  "/>
			<path style="stroke-width: 1.42 ;&st7;   " d=" M   161.47,   324.73  C   163.98    324.73    166.01    322.70    166.01    320.20  "/>
			<text style="font-size:6px;font-family:'NSimSun';" transform="matrix(&st16;  159.28  322.17 )">B</text>
			<text style="font-size:6px;font-family:'NSimSun';" transform="matrix(&st16;  158.12  332.37 )">IG</text>
		</g>
		<g ewd:lineID="3">
			<text style="font-size:6px;font-family:'NSimSun';" transform="matrix(&st16;  246.26  322.17 )">1</text>
			<text style="font-size:6px;font-family:'NSimSun';" transform="matrix(&st16;  252.65  322.17 )">A</text>
			<path style="stroke-width: 1.42 ;&st7;   " d=" M   259.49,   320.20  C   259.49    317.70    257.46    315.67    254.96    315.67  "/>
			<path style="stroke-width: 1.42 ;&st7;   " d=" M   254.96,   315.67  C   252.45    315.67    250.42    317.70    250.42    320.20  "/>
			<path style="stroke-width: 1.42 ;&st7;   " d=" M   250.42,   320.20  C   250.42    322.70    252.45    324.73    254.96    324.73  "/>
			<path style="stroke-width: 1.42 ;&st7;   " d=" M   254.96,   324.73  C   257.46    324.73    259.49    322.70    259.49    320.20  "/>
			<text style="font-size:6px;font-family:'NSimSun';" transform="matrix(&st16;  249.86  332.37 )">PIG</text>
		</g>
		<g ewd:lineID="4">
			<text style="font-size:6px;font-family:'NSimSun';" transform="matrix(&st16;  441.73  322.17 )">6</text>
			<path style="stroke-width: 1.42 ;&st7;   " d=" M   454.96,   320.20  C   454.96    317.70    452.93    315.67    450.42    315.67  "/>
			<path style="stroke-width: 1.42 ;&st7;   " d=" M   450.42,   315.67  C   447.92    315.67    445.89    317.70    445.89    320.20  "/>
			<path style="stroke-width: 1.42 ;&st7;   " d=" M   445.89,   320.20  C   445.89    322.70    447.92    324.73    450.42    324.73  "/>
			<path style="stroke-width: 1.42 ;&st7;   " d=" M   450.42,   324.73  C   452.93    324.73    454.96    322.70    454.96    320.20  "/>
			<text style="font-size:6px;font-family:'NSimSun';" transform="matrix(&st16;  448.24  322.17 )">B</text>
			<text style="font-size:6px;font-family:'NSimSun';" transform="matrix(&st16;  446.69  332.37 )">TS</text>
		</g>
		<g ewd:lineID="5">
			<text style="font-size:6px;font-family:'NSimSun';" transform="matrix(&st16;  246.26  373.73 )">7</text>
			<path style="stroke-width: 1.42 ;&st7;   " d=" M   259.49,   371.76  C   259.49    369.25    257.46    367.22    254.96    367.22  "/>
			<path style="stroke-width: 1.42 ;&st7;   " d=" M   254.96,   367.22  C   252.45    367.22    250.42    369.25    250.42    371.76  "/>
			<path style="stroke-width: 1.42 ;&st7;   " d=" M   250.42,   371.76  C   250.42    374.26    252.45    376.29    254.96    376.29  "/>
			<path style="stroke-width: 1.42 ;&st7;   " d=" M   254.96,   376.29  C   257.46    376.29    259.49    374.26    259.49    371.76  "/>
			<text style="font-size:6px;font-family:'NSimSun';" transform="matrix(&st16;  252.77  373.73 )">B</text>
			<text style="font-size:6px;font-family:'NSimSun';" transform="matrix(&st16;  246.18  363.53 )">CANH</text>
		</g>
		<g ewd:lineID="7">
			<text style="font-size:6px;font-family:'NSimSun';" transform="matrix(&st16;  212.27  373.73 )">8</text>
			<path style="stroke-width: 1.42 ;&st7;   " d=" M   225.50,   371.76  C   225.50    369.25    223.47    367.22    220.96    367.22  "/>
			<path style="stroke-width: 1.42 ;&st7;   " d=" M   220.96,   367.22  C   218.46    367.22    216.43    369.25    216.43    371.76  "/>
			<path style="stroke-width: 1.42 ;&st7;   " d=" M   216.43,   371.76  C   216.43    374.26    218.46    376.29    220.96    376.29  "/>
			<path style="stroke-width: 1.42 ;&st7;   " d=" M   220.96,   376.29  C   223.47    376.29    225.50    374.26    225.50    371.76  "/>
			<text style="font-size:6px;font-family:'NSimSun';" transform="matrix(&st16;  218.77  373.73 )">B</text>
			<text style="font-size:6px;font-family:'NSimSun';" transform="matrix(&st16;  212.61  363.53 )">CANL</text>
		</g>
		<path style="stroke-width: 1.42 ;&st7;  " d=" M    50.99,   324.73  L    50.99,   367.22  L   467.42,   367.22  L   467.42,   324.73  L    50.99,   324.73  "/>
		<g ewd:figtype="title">
			<text style="font-size:6px;font-family:'NSimSun';" transform="matrix(&st16;  370.53  381.94 )" ewd:textID="11">动力转向 ECU 总成</text>
			<text style="font-size:6px;font-family:'NSimSun';" transform="matrix(&st16;  370.52  374.83 )">A27(A),E45(B),z7(C),z8(D)</text>
		</g>
		<g ewd:lineID="30,36">
			<text style="font-size:6px;font-family:'NSimSun';" transform="matrix(&st16;  63.71  332.37 )">M1</text>
			<text style="font-size:6px;font-family:'NSimSun';" transform="matrix(&st16;  97.7  332.37 )">M2</text>
		</g>
		<g ewd:lineID="32,35,33,34">
			<text style="font-size:6px;font-family:'NSimSun';" transform="matrix(&st16;  314.98  332.37 )">TRQ1</text>
			<text style="font-size:6px;font-family:'NSimSun';" transform="matrix(&st16;  339.97  332.37 )">TRQV</text>
			<text style="font-size:6px;font-family:'NSimSun';" transform="matrix(&st16;  365.97  332.37 )">TRQ2</text>
			<text style="font-size:6px;font-family:'NSimSun';" transform="matrix(&st16;  390.81  332.37 )">TRQG</text>
		</g>
	</g>
	<g ewd:figtype="rb" ewd:figID="9" ewd:code="FUSE6">
		<path style="stroke-width: 1.42 ;&st7;  " d=" M  1251.42,   103.77  L  1247.17,   103.77  "/>
		<path style="stroke-width: 1.42 ;&st7;  " d=" M  1251.42,    95.27  L  1247.17,    95.27  "/>
		<path style="stroke-width: 0.85 ;&st7;  " d=" M  1249.29,    69.77  L  1249.29,    95.27  "/>
		<path style="stroke-width: 1.42 ;&st7;   " d=" M  1255.67,    99.52  C  1255.67     97.17   1253.76     95.27   1251.42     95.27  "/>
		<path style="stroke-width: 1.42 ;&st7;   " d=" M  1251.42,   103.77  C  1253.76    103.77   1255.67    101.87   1255.67     99.52  "/>
		<path style="stroke-width: 1.42 ;&st7;   " d=" M  1242.92,    99.52  C  1242.92    101.87   1244.82    103.77   1247.17    103.77  "/>
		<path style="stroke-width: 1.42 ;&st7;   " d=" M  1247.17,    95.27  C  1244.82     95.27   1242.92     97.17   1242.92     99.52  "/>
		<path style="stroke-width: 0.28 ;&st9;  " d=" M  1249.29,    90.37  L  1246.46,    87.54  L  1246.46,    91.79  L  1249.29,    94.62  L  1252.12,    91.79  L  1252.12,    87.54  L  1249.29,    90.37  "/>
		<text style="font-size:6px;font-family:'NSimSun';" transform="matrix(&st16;  1241.25  32.08 )">(BAT)</text>
		<text style="font-size:6px;font-family:'NSimSun';" transform="matrix(&st16;  1243.11  86.47 )">2</text>
		<text style="font-size:6px;font-family:'NSimSun';" transform="matrix(&st16;  1247.49  101.49 )">1</text>
		<text style="font-size:6px;font-family:'NSimSun';" transform="matrix(&st16;  1265.72  53.34 )">10A <tspan x="0 " dy="6.0">ECU-B </tspan><tspan x="0 " dy="6.0">NO.2</tspan></text>
		<path style="stroke-width: 1.42 ;&st7;   " d=" M  1249.29,    47.11  C  1246.55     48.72   1245.64     52.25   1247.25     54.99  "/>
		<path style="stroke-width: 1.42 ;&st7;   " d=" M  1247.25,    54.99  C  1247.77     55.87   1248.41     56.51   1249.29     57.03  "/>
		<path style="stroke-width: 0.85 ;&st7;   " d=" M  1250.71,    68.36  C  1250.71     67.57   1250.07     66.94   1249.29     66.94  "/>
		<path style="stroke-width: 0.85 ;&st7;   " d=" M  1249.29,    66.94  C  1248.51     66.94   1247.87     67.57   1247.87     68.36  "/>
		<path style="stroke-width: 0.85 ;&st7;   " d=" M  1247.87,    68.36  C  1247.87     69.14   1248.51     69.77   1249.29     69.77  "/>
		<path style="stroke-width: 0.85 ;&st7;   " d=" M  1249.29,    69.77  C  1250.07     69.77   1250.71     69.14   1250.71     68.36  "/>
		<path style="stroke-width: 0.85 ;&st7;   " d=" M  1250.71,    45.69  C  1250.71     44.91   1250.07     44.28   1249.29     44.28  "/>
		<path style="stroke-width: 0.85 ;&st7;   " d=" M  1249.29,    44.28  C  1248.51     44.28   1247.87     44.91   1247.87     45.69  "/>
		<path style="stroke-width: 0.85 ;&st7;   " d=" M  1247.87,    45.69  C  1247.87     46.48   1248.51     47.11   1249.29     47.11  "/>
		<path style="stroke-width: 0.85 ;&st7;   " d=" M  1249.29,    47.11  C  1250.07     47.11   1250.71     46.48   1250.71     45.69  "/>
		<path style="stroke-width: 1.42 ;&st7;   " d=" M  1249.29,    66.94  C  1252.03     65.33   1252.94     61.80   1251.33     59.06  "/>
		<path style="stroke-width: 1.42 ;&st7;   " d=" M  1251.33,    59.06  C  1250.81     58.18   1250.17     57.55   1249.29     57.03  "/>
		<path style="stroke-width: 1.42 ;&st7;  " d=" M  1236.54,    35.78  L  1236.54,    78.27  L  1262.04,    78.27  L  1262.04,    35.78  L  1236.54,    35.78  "/>
	</g>
	<g ewd:figtype="conn" ewd:figID="10" ewd:code="E55">
		<path style="stroke-width: 0.85 ;&st7;  " d=" M  1253.54,   282.24  L  1245.04,   282.24  "/>
		<path style="stroke-width: 0.85 ;&st7;  " d=" M  1330.03,   282.24  L  1321.53,   282.24  "/>
		<path style="stroke-width: 0.85 ;&st7;  " d=" M  1283.29,   454.33  L  1283.29,   443.71  "/>
		<path style="stroke-width: 1.42 ;&st7;  " d=" M  1287.53,   454.33  L  1279.04,   454.33  "/>
		<path style="stroke-width: 1.42 ;&st7;  " d=" M  1287.53,   458.58  L  1279.04,   458.58  "/>
		<path style="stroke-width: 1.42 ;&st7;  " d=" M  1325.78,   367.22  L  1342.78,   367.22  "/>
		<path style="stroke-width: 0.85 ;&st7;  " d=" M  1334.28,   367.22  L  1334.28,   375.72  "/>
		<path style="stroke-width: 0.85 ;&st7;  " d=" M  1325.78,   358.73  L  1331.07,   366.66  "/>
		<path style="stroke-width: 0.85 ;&st7;  " d=" M  1337.11,   367.22  L  1342.78,   358.73  "/>
		<path style="stroke-width: 0.85 ;&st7;  " d=" M  1469.13,   322.78  L  1476.49,   318.54  "/>
		<path style="stroke-width: 0.85 ;&st7;  " d=" M  1474.49,   315.07  L  1467.13,   319.32  "/>
		<path style="stroke-width: 0.85 ;&st7;  " d=" M  1466.01,   324.73  L  1457.51,   324.73  "/>
		<path style="stroke-width: 0.85 ;&st7;  " d=" M  1368.27,   260.99  L  1368.27,   269.49  "/>
		<path style="stroke-width: 0.28 ;&st9;  " d=" M  1249.29,   282.24  L  1243.63,   273.74  L  1254.96,   273.74  L  1249.29,   282.24  "/>
		<path style="stroke-width: 0.85 ;&st7;  " d=" M  1273.59,   357.72  L  1273.32,   358.19  L  1273.23,   358.73  L  1273.32,   359.26  L  1273.59,   359.73  L  1274.01,   360.07  L  1274.51,   360.26  L  1275.06,   360.26  L  1275.57,   360.07  L  1275.98,   359.73  L  1276.25,   359.26  L  1276.34,   358.73  L  1276.25,   358.19  L  1275.98,   357.72  L  1275.57,   357.38  L  1275.06,   357.19  L  1274.51,   357.19  L  1274.01,   357.38  L  1273.59,   357.72  L  1273.99,   358.43  L  1273.99,   359.02  L  1274.36,   359.46  L  1274.93,   359.56  L  1275.44,   359.27  L  1275.64,   358.73  L  1275.44,   358.18  L  1274.93,   357.89  L  1274.36,   357.99  L  1274.79,   358.73  "/>
		<path style="stroke-width: 0.85 ;&st7;  " d=" M  1316.09,   357.72  L  1315.81,   358.19  L  1315.72,   358.73  L  1315.81,   359.26  L  1316.09,   359.73  L  1316.50,   360.07  L  1317.01,   360.26  L  1317.55,   360.26  L  1318.06,   360.07  L  1318.47,   359.73  L  1318.74,   359.26  L  1318.84,   358.73  L  1318.74,   358.19  L  1318.47,   357.72  L  1318.06,   357.38  L  1317.55,   357.19  L  1317.01,   357.19  L  1316.50,   357.38  L  1316.09,   357.72  L  1316.48,   358.43  L  1316.48,   359.02  L  1316.85,   359.46  L  1317.43,   359.56  L  1317.93,   359.27  L  1318.13,   358.73  L  1317.93,   358.18  L  1317.43,   357.89  L  1316.85,   357.99  L  1317.28,   358.73  "/>
		<path style="stroke-width: 0.85 ;&st7;  " d=" M  1334.28,   341.73  L  1351.27,   341.73  "/>
		<path style="stroke-width: 0.85 ;&st7;  " d=" M  1308.78,   341.73  L  1325.78,   341.73  "/>
		<path style="stroke-width: 1.42 ;&st7;  " d=" M  1240.79,   401.22  L  1240.79,   384.22  L  1325.78,   384.22  L  1325.78,   401.22  "/>
		<path style="stroke-width: 0.28 ;&st9;  " d=" M  1325.78,   282.24  L  1320.11,   273.74  L  1331.44,   273.74  L  1325.78,   282.24  "/>
		<path style="stroke-width: 0.85 ;&st7;  " d=" M  1282.09,   442.71  L  1281.82,   443.18  L  1281.73,   443.71  L  1281.82,   444.24  L  1282.09,   444.71  L  1282.51,   445.06  L  1283.01,   445.25  L  1283.56,   445.25  L  1284.06,   445.06  L  1284.48,   444.71  L  1284.75,   444.24  L  1284.84,   443.71  L  1284.75,   443.18  L  1284.48,   442.71  L  1284.06,   442.36  L  1283.56,   442.18  L  1283.01,   442.18  L  1282.51,   442.36  L  1282.09,   442.71  L  1282.49,   443.42  L  1282.49,   444.00  L  1282.86,   444.45  L  1283.43,   444.55  L  1283.94,   444.26  L  1284.13,   443.71  L  1283.94,   443.16  L  1283.43,   442.88  L  1282.86,   442.97  L  1283.29,   443.71  "/>
		<path style="stroke-width: 0.85 ;&st7;  " d=" M  1281.87,   477.71  L  1284.70,   477.71  "/>
		<path style="stroke-width: 0.85 ;&st7;  " d=" M  1280.45,   474.87  L  1286.12,   474.87  "/>
		<path style="stroke-width: 0.85 ;&st7;  " d=" M  1279.04,   472.04  L  1287.53,   472.04  "/>
		<path style="stroke-width: 0.85 ;&st7;  " d=" M  1274.79,   469.21  L  1291.78,   469.21  "/>
		<path style="stroke-width: 0.85 ;&st7;  " d=" M  1283.29,   458.58  L  1283.29,   469.21  "/>
		<path style="stroke-width: 0.85 ;&st7;  " d=" M  1248.10,   442.71  L  1247.83,   443.18  L  1247.73,   443.71  L  1247.83,   444.24  L  1248.10,   444.71  L  1248.51,   445.06  L  1249.02,   445.25  L  1249.56,   445.25  L  1250.07,   445.06  L  1250.48,   444.71  L  1250.76,   444.24  L  1250.85,   443.71  L  1250.76,   443.18  L  1250.48,   442.71  L  1250.07,   442.36  L  1249.56,   442.18  L  1249.02,   442.18  L  1248.51,   442.36  L  1248.10,   442.71  L  1248.49,   443.42  L  1248.49,   444.00  L  1248.87,   444.45  L  1249.44,   444.55  L  1249.94,   444.26  L  1250.14,   443.71  L  1249.94,   443.16  L  1249.44,   442.88  L  1248.87,   442.97  L  1249.29,   443.71  "/>
		<path style="stroke-width: 0.85 ;&st7;  " d=" M  1316.09,   442.71  L  1315.81,   443.18  L  1315.72,   443.71  L  1315.81,   444.24  L  1316.09,   444.71  L  1316.50,   445.06  L  1317.01,   445.25  L  1317.55,   445.25  L  1318.06,   445.06  L  1318.47,   444.71  L  1318.74,   444.24  L  1318.84,   443.71  L  1318.74,   443.18  L  1318.47,   442.71  L  1318.06,   442.36  L  1317.55,   442.18  L  1317.01,   442.18  L  1316.50,   442.36  L  1316.09,   442.71  L  1316.48,   443.42  L  1316.48,   444.00  L  1316.85,   444.45  L  1317.43,   444.55  L  1317.93,   444.26  L  1318.13,   443.71  L  1317.93,   443.16  L  1317.43,   442.88  L  1316.85,   442.97  L  1317.28,   443.71  "/>
		<path style="stroke-width: 0.85 ;&st7;  " d=" M  1283.29,   443.71  L  1291.78,   443.71  L  1293.20,   440.88  L  1296.03,   446.54  L  1298.87,   440.88  L  1301.70,   446.54  L  1304.53,   440.88  L  1307.36,   446.54  L  1308.78,   443.71  L  1317.28,   443.71  "/>
		<path style="stroke-width: 0.85 ;&st7;  " d=" M  1274.79,   299.24  L  1274.79,   324.73  "/>
		<path style="stroke-width: 0.85 ;&st7;  " d=" M  1274.79,   358.73  L  1325.78,   358.73  "/>
		<path style="stroke-width: 0.85 ;&st7;  " d=" M  1331.07,   366.66  L  1327.88,   364.52  L  1330.32,   362.90  L  1331.07,   366.66  L  1330.25,   365.43  L  1328.90,   364.53  L  1329.93,   363.84  L  1330.25,   365.43  L  1329.83,   364.81  L  1329.41,   364.53  L  1329.74,   364.31  L  1329.83,   364.81  "/>
		<path style="stroke-width: 0.85 ;&st7;  " d=" M  1249.29,   443.71  L  1257.79,   443.71  L  1259.21,   440.88  L  1262.04,   446.54  L  1264.87,   440.88  L  1267.70,   446.54  L  1270.54,   440.88  L  1273.37,   446.54  L  1274.79,   443.71  L  1283.29,   443.71  "/>
		<path style="stroke-width: 1.42 ;&st7;  " d=" M  1198.30,   239.75  L  1198.30,   494.70  L  1504.25,   494.70  L  1504.25,   239.75  L  1198.30,   239.75  "/>
		<path style="stroke-width: 1.42 ;&st7;  " d=" M  1223.80,   375.72  L  1223.80,   401.22  L  1419.26,   401.22  L  1419.26,   375.72  L  1223.80,   375.72  "/>
		<path style="stroke-width: 1.42 ;&st7;  " d=" M  1257.79,   324.73  L  1257.79,   341.73  L  1291.78,   341.73  L  1291.78,   324.73  L  1257.79,   324.73  "/>
		<path style="stroke-width: 0.85 ;&st7;  " d=" M  1274.79,   341.73  L  1274.79,   375.72  "/>
		<path style="stroke-width: 0.85 ;&st7;  " d=" M  1249.29,   239.75  L  1249.29,   299.24  L  1325.78,   299.24  L  1325.78,   239.75  "/>
		<path style="stroke-width: 0.85 ;&st7;  " d=" M  1273.59,   298.23  L  1273.32,   298.70  L  1273.23,   299.24  L  1273.32,   299.77  L  1273.59,   300.24  L  1274.01,   300.58  L  1274.51,   300.77  L  1275.06,   300.77  L  1275.57,   300.58  L  1275.98,   300.24  L  1276.25,   299.77  L  1276.34,   299.24  L  1276.25,   298.70  L  1275.98,   298.23  L  1275.57,   297.89  L  1275.06,   297.70  L  1274.51,   297.70  L  1274.01,   297.89  L  1273.59,   298.23  L  1273.99,   298.94  L  1273.99,   299.53  L  1274.36,   299.97  L  1274.93,   300.07  L  1275.44,   299.78  L  1275.64,   299.24  L  1275.44,   298.69  L  1274.93,   298.40  L  1274.36,   298.50  L  1274.79,   299.24  "/>
		<path style="stroke-width: 0.85 ;&st7;  " d=" M  1317.28,   358.73  L  1317.28,   341.73  "/>
		<path style="stroke-width: 0.85 ;&st7;  " d=" M  1342.78,   358.73  L  1342.78,   341.73  "/>
		<path style="stroke-width: 1.42 ;&st7;  " d=" M  1385.27,   409.72  L  1385.27,   426.71  L  1419.26,   426.71  L  1419.26,   409.72  L  1385.27,   409.72  "/>
		<path style="stroke-width: 1.42 ;&st7;  " d=" M  1385.27,   435.21  L  1385.27,   452.21  L  1419.26,   452.21  L  1419.26,   435.21  L  1385.27,   435.21  "/>
		<path style="stroke-width: 0.85 ;&st7;  " d=" M  1402.27,   401.22  L  1402.27,   409.72  "/>
		<path style="stroke-width: 0.85 ;&st7;  " d=" M  1402.27,   426.71  L  1402.27,   435.21  "/>
		<path style="stroke-width: 0.85 ;&st7;  " d=" M  1368.27,   401.22  L  1368.27,   494.70  "/>
		<path style="stroke-width: 1.42 ;&st7;  " d=" M  1232.29,   418.22  L  1232.29,   435.21  L  1334.28,   435.21  L  1334.28,   418.22  L  1232.29,   418.22  "/>
		<path style="stroke-width: 0.85 ;&st7;  " d=" M  1249.29,   435.21  L  1249.29,   494.70  "/>
		<path style="stroke-width: 0.85 ;&st7;  " d=" M  1317.28,   435.21  L  1317.28,   494.70  "/>
		<path style="stroke-width: 0.85 ;&st7;  " d=" M  1249.29,   418.22  L  1249.29,   401.22  "/>
		<path style="stroke-width: 0.85 ;&st7;  " d=" M  1317.28,   418.22  L  1317.28,   401.22  "/>
		<path style="stroke-width: 0.85 ;&st7;  " d=" M  1232.29,   426.71  L  1215.30,   426.71  L  1215.30,   418.22  "/>
		<path style="stroke-width: 0.85 ;&st7;  " d=" M  1206.80,   418.22  L  1223.80,   418.22  "/>
		<path style="stroke-width: 0.85 ;&st7;  " d=" M  1325.78,   265.24  L  1461.76,   265.24  "/>
		<path style="stroke-width: 0.85 ;&st7;  " d=" M  1385.27,   341.73  L  1385.27,   375.72  "/>
		<path style="stroke-width: 0.85 ;&st7;  " d=" M  1402.27,   341.73  L  1402.27,   375.72  "/>
		<path style="stroke-width: 0.85 ;&st7;  " d=" M  1393.77,   341.73  L  1393.77,   375.72  "/>
		<path style="stroke-width: 0.85 ;&st7;  " d=" M  1402.27,   324.73  L  1402.27,   265.24  "/>
		<path style="stroke-width: 0.85 ;&st7;  " d=" M  1461.76,   375.72  L  1461.76,   316.23  "/>
		<path style="stroke-width: 0.85 ;&st7;  " d=" M  1476.49,   318.54  L  1474.16,   321.58  L  1472.69,   319.04  L  1476.49,   318.54  L  1475.21,   319.28  L  1474.23,   320.56  L  1473.60,   319.49  L  1475.21,   319.28  L  1474.57,   319.65  L  1474.26,   320.05  L  1474.06,   319.71  L  1474.57,   319.65  "/>
		<path style="stroke-width: 0.85 ;&st7;  " d=" M  1474.49,   315.07  L  1472.15,   318.11  L  1470.69,   315.57  L  1474.49,   315.07  L  1473.21,   315.81  L  1472.22,   317.09  L  1471.60,   316.02  L  1473.21,   315.81  L  1472.57,   316.18  L  1472.25,   316.58  L  1472.06,   316.24  L  1472.57,   316.18  "/>
		<path style="stroke-width: 0.28 ;&st9;  " d=" M  1461.76,   324.73  L  1456.09,   316.23  L  1467.42,   316.23  L  1461.76,   324.73  "/>
		<path style="stroke-width: 0.85 ;&st7;  " d=" M  1461.76,   282.24  L  1461.76,   265.24  "/>
		<path style="stroke-width: 0.85 ;&st7;  " d=" M  1324.59,   264.24  L  1324.31,   264.71  L  1324.22,   265.24  L  1324.31,   265.77  L  1324.59,   266.24  L  1325.00,   266.59  L  1325.51,   266.78  L  1326.05,   266.78  L  1326.56,   266.59  L  1326.97,   266.24  L  1327.24,   265.77  L  1327.34,   265.24  L  1327.24,   264.71  L  1326.97,   264.24  L  1326.56,   263.89  L  1326.05,   263.71  L  1325.51,   263.71  L  1325.00,   263.89  L  1324.59,   264.24  L  1324.98,   264.95  L  1324.98,   265.53  L  1325.35,   265.98  L  1325.93,   266.08  L  1326.43,   265.79  L  1326.63,   265.24  L  1326.43,   264.69  L  1325.93,   264.41  L  1325.35,   264.50  L  1325.78,   265.24  "/>
		<path style="stroke-width: 1.42 ;&st7;  " d=" M  1436.26,   375.72  L  1436.26,   401.22  L  1487.25,   401.22  L  1487.25,   375.72  L  1436.26,   375.72  "/>
		<path style="stroke-width: 0.85 ;&st7;  " d=" M  1401.07,   264.24  L  1400.80,   264.71  L  1400.71,   265.24  L  1400.80,   265.77  L  1401.07,   266.24  L  1401.49,   266.59  L  1401.99,   266.78  L  1402.54,   266.78  L  1403.04,   266.59  L  1403.46,   266.24  L  1403.73,   265.77  L  1403.82,   265.24  L  1403.73,   264.71  L  1403.46,   264.24  L  1403.04,   263.89  L  1402.54,   263.71  L  1401.99,   263.71  L  1401.49,   263.89  L  1401.07,   264.24  L  1401.47,   264.95  L  1401.47,   265.53  L  1401.84,   265.98  L  1402.41,   266.08  L  1402.92,   265.79  L  1403.11,   265.24  L  1402.92,   264.69  L  1402.41,   264.41  L  1401.84,   264.50  L  1402.27,   265.24  "/>
		<path style="stroke-width: 0.28 ;&st9;  " d=" M  1368.27,   265.24  L  1359.77,   270.91  L  1359.77,   259.58  L  1368.27,   265.24  "/>
		<path style="stroke-width: 0.85 ;&st7;  " d=" M  1274.79,   307.73  L  1385.27,   307.73  L  1385.27,   324.73  "/>
		<path style="stroke-width: 1.42 ;&st7;  " d=" M  1376.77,   324.73  L  1376.77,   341.73  L  1410.76,   341.73  L  1410.76,   324.73  L  1376.77,   324.73  "/>
		<path style="stroke-width: 0.85 ;&st7;  " d=" M  1461.76,   316.23  L  1461.76,   307.73  L  1458.92,   306.32  L  1464.59,   303.48  L  1458.92,   300.65  L  1464.59,   297.82  L  1458.92,   294.99  L  1464.59,   292.15  L  1461.76,   290.74  L  1461.76,   282.24  "/>
		<path style="stroke-width: 0.85 ;&st7;  " d=" M  1273.59,   306.73  L  1273.32,   307.20  L  1273.23,   307.73  L  1273.32,   308.27  L  1273.59,   308.74  L  1274.01,   309.08  L  1274.51,   309.27  L  1275.06,   309.27  L  1275.57,   309.08  L  1275.98,   308.74  L  1276.25,   308.27  L  1276.34,   307.73  L  1276.25,   307.20  L  1275.98,   306.73  L  1275.57,   306.39  L  1275.06,   306.20  L  1274.51,   306.20  L  1274.01,   306.39  L  1273.59,   306.73  L  1273.99,   307.44  L  1273.99,   308.03  L  1274.36,   308.47  L  1274.93,   308.57  L  1275.44,   308.28  L  1275.64,   307.73  L  1275.44,   307.19  L  1274.93,   306.90  L  1274.36,   307.00  L  1274.79,   307.73  "/>
		<text style="font-size:6px;font-family:'NSimSun';" transform="matrix(&st16;  1309.0  338.03 )">5V +B</text>
		<text style="font-size:6px;font-family:'NSimSun';" transform="matrix(&st16;  1338.92  338.03 )">5V</text>
		<text style="font-size:6px;font-family:'NSimSun';" transform="matrix(&st16; 1267.89 394.69)" ewd:textID="4" ewd:horAlign="center">CAN 控制器</text>
		<text style="font-size:6px;font-family:'NSimSun';" transform="matrix(&st16;  1319.86  491.01 )">CANH</text>
		<text style="font-size:6px;font-family:'NSimSun';" transform="matrix(&st16;  1251.87  491.01 )">CANL</text>
		<text style="font-size:6px;font-family:'NSimSun';" transform="matrix(&st16;  1370.85  491.01 )">ET</text>
		<text style="font-size:6px;font-family:'NSimSun';" transform="matrix(&st16;  1328.36  247.94 )">IG+</text>
		<text style="font-size:6px;font-family:'NSimSun';" transform="matrix(&st16;  1251.87  247.94 )">B</text>
		<text style="font-size:6px;font-family:'NSimSun';" transform="matrix(&st16;  1266.94  335.2 )">5V IC</text>
		<text style="font-size:6px;font-family:'NSimSun';" transform="matrix(&st16;  1397.71  420.18 )">I/F</text>
		<text style="font-size:6px;font-family:'NSimSun';" transform="matrix(&st16; 1393.48 445.68)" ewd:textID="3" ewd:horAlign="center">蜂鸣器</text>
		<text style="font-size:6px;font-family:'NSimSun';" transform="matrix(&st16;  1271.52  428.68 )">CAN I/F</text>
		<text style="font-size:6px;font-family:'NSimSun';" transform="matrix(&st16;  1207.02  414.52 )">5V +B</text>
		<text style="font-size:6px;font-family:'NSimSun';" transform="matrix(&st16;  1361.97  390.44 )">CPU</text>
		<text style="font-size:6px;font-family:'NSimSun';" transform="matrix(&st16; 1452.44 386.19)" ewd:textID="7" ewd:horAlign="center">LED<tspan x="0 " dy="6.0">驱动器</tspan></text>
		<text style="font-size:6px;font-family:'NSimSun';" transform="matrix(&st17; 1452.11 333.39)" ewd:textID="10">动力转向</text>
		<text style="font-size:6px;font-family:'NSimSun';" transform="matrix(&st16;  1389.21  335.2 )">I/F</text>
		<text style="font-size:6px;font-family:'NSimSun';" transform="matrix(&st16;  1237.5  501.2 )">31</text>
		<path style="stroke-width: 1.42 ;&st7;   " d=" M  1253.82,   499.24  C  1253.82    496.73   1251.79    494.70   1249.29    494.70  "/>
		<path style="stroke-width: 1.42 ;&st7;   " d=" M  1249.29,   494.70  C  1246.79    494.70   1244.76    496.73   1244.76    499.24  "/>
		<path style="stroke-width: 1.42 ;&st7;   " d=" M  1244.76,   499.24  C  1244.76    501.74   1246.79    503.77   1249.29    503.77  "/>
		<path style="stroke-width: 1.42 ;&st7;   " d=" M  1249.29,   503.77  C  1251.79    503.77   1253.82    501.74   1253.82    499.24  "/>
		<text style="font-size:6px;font-family:'NSimSun';" transform="matrix(&st16;  1246.99  501.2 )">A</text>
		<text style="font-size:6px;font-family:'NSimSun';" transform="matrix(&st16;  1237.5  237.18 )">40</text>
		<path style="stroke-width: 1.42 ;&st7;   " d=" M  1253.82,   235.21  C  1253.82    232.71   1251.79    230.68   1249.29    230.68  "/>
		<path style="stroke-width: 1.42 ;&st7;   " d=" M  1249.29,   230.68  C  1246.79    230.68   1244.76    232.71   1244.76    235.21  "/>
		<path style="stroke-width: 1.42 ;&st7;   " d=" M  1244.76,   235.21  C  1244.76    237.72   1246.79    239.75   1249.29    239.75  "/>
		<path style="stroke-width: 1.42 ;&st7;   " d=" M  1249.29,   239.75  C  1251.79    239.75   1253.82    237.72   1253.82    235.21  "/>
		<text style="font-size:6px;font-family:'NSimSun';" transform="matrix(&st16;  1246.99  237.18 )">A</text>
		<text style="font-size:6px;font-family:'NSimSun';" transform="matrix(&st16;  1313.98  237.18 )">39</text>
		<path style="stroke-width: 1.42 ;&st7;   " d=" M  1330.31,   235.21  C  1330.31    232.71   1328.28    230.68   1325.78    230.68  "/>
		<path style="stroke-width: 1.42 ;&st7;   " d=" M  1325.78,   230.68  C  1323.28    230.68   1321.25    232.71   1321.25    235.21  "/>
		<path style="stroke-width: 1.42 ;&st7;   " d=" M  1321.25,   235.21  C  1321.25    237.72   1323.28    239.75   1325.78    239.75  "/>
		<path style="stroke-width: 1.42 ;&st7;   " d=" M  1325.78,   239.75  C  1328.28    239.75   1330.31    237.72   1330.31    235.21  "/>
		<text style="font-size:6px;font-family:'NSimSun';" transform="matrix(&st16;  1323.47  237.18 )">A</text>
		<text style="font-size:6px;font-family:'NSimSun';" transform="matrix(&st16;  1356.48  501.2 )">21</text>
		<text style="font-size:6px;font-family:'NSimSun';" transform="matrix(&st16;  1365.97  501.2 )">A</text>
		<path style="stroke-width: 1.42 ;&st7;   " d=" M  1372.80,   499.24  C  1372.80    496.73   1370.77    494.70   1368.27    494.70  "/>
		<path style="stroke-width: 1.42 ;&st7;   " d=" M  1368.27,   494.70  C  1365.77    494.70   1363.74    496.73   1363.74    499.24  "/>
		<path style="stroke-width: 1.42 ;&st7;   " d=" M  1363.74,   499.24  C  1363.74    501.74   1365.77    503.77   1368.27    503.77  "/>
		<path style="stroke-width: 1.42 ;&st7;   " d=" M  1368.27,   503.77  C  1370.77    503.77   1372.80    501.74   1372.80    499.24  "/>
		<text style="font-size:6px;font-family:'NSimSun';" transform="matrix(&st16;  1305.48  501.2 )">32</text>
		<path style="stroke-width: 1.42 ;&st7;   " d=" M  1321.81,   499.24  C  1321.81    496.73   1319.78    494.70   1317.28    494.70  "/>
		<path style="stroke-width: 1.42 ;&st7;   " d=" M  1317.28,   494.70  C  1314.78    494.70   1312.75    496.73   1312.75    499.24  "/>
		<path style="stroke-width: 1.42 ;&st7;   " d=" M  1312.75,   499.24  C  1312.75    501.74   1314.78    503.77   1317.28    503.77  "/>
		<path style="stroke-width: 1.42 ;&st7;   " d=" M  1317.28,   503.77  C  1319.78    503.77   1321.81    501.74   1321.81    499.24  "/>
		<text style="font-size:6px;font-family:'NSimSun';" transform="matrix(&st16;  1314.98  501.2 )">A</text>
		<g ewd:figtype="title">
			<text style="font-size:6px;font-family:'NSimSun';" transform="matrix(&st17;  1512.14  497.6 )">E55(A)</text>
			<text style="font-size:6px;font-family:'NSimSun';" transform="matrix(&st17;  1518.97  497.61 )" ewd:textID="5">组合仪表总成</text>
		</g>
	</g>
	<g ewd:figtype="conn" ewd:figID="11" ewd:code="A39">
		<path style="stroke-width: 0.85 ;&st7;  " d=" M   790.37,   282.24  L   790.37,   256.74  "/>
		<path style="stroke-width: 0.85 ;&st7;  " d=" M   883.85,   282.24  L   883.85,   273.74  L   790.37,   273.74  "/>
		<path style="stroke-width: 0.85 ;&st7;  " d=" M   849.86,   282.24  L   849.86,   265.24  L   756.37,   265.24  "/>
		<path style="stroke-width: 0.85 ;&st7;  " d=" M   789.17,   272.74  L   788.90,   273.21  L   788.81,   273.74  L   788.90,   274.27  L   789.17,   274.74  L   789.59,   275.09  L   790.10,   275.28  L   790.64,   275.28  L   791.15,   275.09  L   791.56,   274.74  L   791.83,   274.27  L   791.93,   273.74  L   791.83,   273.21  L   791.56,   272.74  L   791.15,   272.39  L   790.64,   272.20  L   790.10,   272.20  L   789.59,   272.39  L   789.17,   272.74  L   789.57,   273.45  L   789.57,   274.03  L   789.94,   274.48  L   790.51,   274.58  L   791.02,   274.29  L   791.22,   273.74  L   791.02,   273.19  L   790.51,   272.90  L   789.94,   273.00  L   790.37,   273.74  "/>
		<path style="stroke-width: 0.85 ;&st7;  " d=" M   756.37,   282.24  L   756.37,   256.74  "/>
		<path style="stroke-width: 1.42 ;&st7;  " d=" M   747.87,   282.24  L   892.35,   282.24  L   892.35,   256.74  L   747.87,   256.74  L   747.87,   282.24  "/>
		<path style="stroke-width: 0.85 ;&st7;  " d=" M   849.86,   256.74  L   849.86,   265.24  "/>
		<path style="stroke-width: 0.85 ;&st7;  " d=" M   883.85,   273.74  L   883.85,   256.74  "/>
		<path style="stroke-width: 0.85 ;&st7;  " d=" M   755.18,   264.24  L   754.91,   264.71  L   754.82,   265.24  L   754.91,   265.77  L   755.18,   266.24  L   755.59,   266.59  L   756.10,   266.78  L   756.65,   266.78  L   757.15,   266.59  L   757.57,   266.24  L   757.84,   265.77  L   757.93,   265.24  L   757.84,   264.71  L   757.57,   264.24  L   757.15,   263.89  L   756.65,   263.71  L   756.10,   263.71  L   755.59,   263.89  L   755.18,   264.24  L   755.57,   264.95  L   755.57,   265.53  L   755.95,   265.98  L   756.52,   266.08  L   757.02,   265.79  L   757.22,   265.24  L   757.02,   264.69  L   756.52,   264.41  L   755.95,   264.50  L   756.37,   265.24  "/>
		<path style="stroke-width: 0.85 ;&st7;  " d=" M   882.66,   272.74  L   882.39,   273.21  L   882.29,   273.74  L   882.39,   274.27  L   882.66,   274.74  L   883.07,   275.09  L   883.58,   275.28  L   884.12,   275.28  L   884.63,   275.09  L   885.04,   274.74  L   885.32,   274.27  L   885.41,   273.74  L   885.32,   273.21  L   885.04,   272.74  L   884.63,   272.39  L   884.12,   272.20  L   883.58,   272.20  L   883.07,   272.39  L   882.66,   272.74  L   883.05,   273.45  L   883.05,   274.03  L   883.43,   274.48  L   884.00,   274.58  L   884.50,   274.29  L   884.70,   273.74  L   884.50,   273.19  L   884.00,   272.90  L   883.43,   273.00  L   883.85,   273.74  "/>
		<path style="stroke-width: 0.85 ;&st7;  " d=" M   848.67,   264.24  L   848.39,   264.71  L   848.30,   265.24  L   848.39,   265.77  L   848.67,   266.24  L   849.08,   266.59  L   849.59,   266.78  L   850.13,   266.78  L   850.64,   266.59  L   851.05,   266.24  L   851.32,   265.77  L   851.42,   265.24  L   851.32,   264.71  L   851.05,   264.24  L   850.64,   263.89  L   850.13,   263.71  L   849.59,   263.71  L   849.08,   263.89  L   848.67,   264.24  L   849.06,   264.95  L   849.06,   265.53  L   849.43,   265.98  L   850.00,   266.08  L   850.51,   265.79  L   850.71,   265.24  L   850.51,   264.69  L   850.00,   264.41  L   849.43,   264.50  L   849.86,   265.24  "/>
		<text style="font-size:6px;font-family:'NSimSun';" transform="matrix(&st16;  747.09  290.43 )">16</text>
		<text style="font-size:6px;font-family:'NSimSun';" transform="matrix(&st16;  747.09  253.05 )">12</text>
		<text style="font-size:6px;font-family:'NSimSun';" transform="matrix(&st16;  784.18  290.43 )">5</text>
		<text style="font-size:6px;font-family:'NSimSun';" transform="matrix(&st16;  784.18  253.05 )">1</text>
		<text style="font-size:6px;font-family:'NSimSun';" transform="matrix(&st16;  840.57  290.43 )">17</text>
		<text style="font-size:6px;font-family:'NSimSun';" transform="matrix(&st16;  840.57  253.05 )">13</text>
		<text style="font-size:6px;font-family:'NSimSun';" transform="matrix(&st16;  877.67  290.43 )">6</text>
		<text style="font-size:6px;font-family:'NSimSun';" transform="matrix(&st16;  877.67  253.05 )">2</text>
		<g ewd:figtype="title">
			<text style="font-size:6px;font-family:'NSimSun';" transform="matrix(&st17;  907.07  285.14 )" ewd:textID="8">1 号<tspan x="0 " dy="6.0">CAN</tspan><tspan x="0 " dy="6.0">接线连接器</tspan></text>
			<text style="font-size:6px;font-family:'NSimSun';" transform="matrix(&st17;  899.96  285.14 )">A39</text>
		</g>
	</g>
	<g ewd:figtype="conn" ewd:figID="12" ewd:code="E74">
		<path style="stroke-width: 0.85 ;&st7;  " d=" M   593.71,   349.22  L   593.44,   349.69  L   593.34,   350.23  L   593.44,   350.76  L   593.71,   351.23  L   594.12,   351.58  L   594.63,   351.76  L   595.17,   351.76  L   595.68,   351.58  L   596.09,   351.23  L   596.36,   350.76  L   596.46,   350.23  L   596.36,   349.69  L   596.09,   349.22  L   595.68,   348.88  L   595.17,   348.69  L   594.63,   348.69  L   594.12,   348.88  L   593.71,   349.22  L   594.10,   349.94  L   594.10,   350.52  L   594.48,   350.96  L   595.05,   351.06  L   595.55,   350.77  L   595.75,   350.23  L   595.55,   349.68  L   595.05,   349.39  L   594.48,   349.49  L   594.90,   350.23  "/>
		<path style="stroke-width: 0.85 ;&st7;  " d=" M   559.71,   357.72  L   559.44,   358.19  L   559.35,   358.73  L   559.44,   359.26  L   559.71,   359.73  L   560.13,   360.07  L   560.63,   360.26  L   561.18,   360.26  L   561.69,   360.07  L   562.10,   359.73  L   562.37,   359.26  L   562.46,   358.73  L   562.37,   358.19  L   562.10,   357.72  L   561.69,   357.38  L   561.18,   357.19  L   560.63,   357.19  L   560.13,   357.38  L   559.71,   357.72  L   560.11,   358.43  L   560.11,   359.02  L   560.48,   359.46  L   561.05,   359.56  L   561.56,   359.27  L   561.76,   358.73  L   561.56,   358.18  L   561.05,   357.89  L   560.48,   357.99  L   560.91,   358.73  "/>
		<path style="stroke-width: 0.85 ;&st7;  " d=" M   560.91,   367.22  L   560.91,   341.73  "/>
		<path style="stroke-width: 0.85 ;&st7;  " d=" M   594.90,   341.73  L   594.90,   367.22  "/>
		<path style="stroke-width: 0.85 ;&st7;  " d=" M   594.90,   350.23  L   662.89,   350.23  L   662.89,   367.22  "/>
		<path style="stroke-width: 0.85 ;&st7;  " d=" M   560.91,   358.73  L   628.89,   358.73  L   628.89,   367.22  "/>
		<path style="stroke-width: 1.42 ;&st7;  " d=" M   671.39,   367.22  L   671.39,   341.73  L   552.41,   341.73  L   552.41,   367.22  L   671.39,   367.22  "/>
		<text style="font-size:6px;font-family:'NSimSun';" transform="matrix(&st16;  653.6  375.42 )">15</text>
		<text style="font-size:6px;font-family:'NSimSun';" transform="matrix(&st16;  554.72  375.42 )">9</text>
		<text style="font-size:6px;font-family:'NSimSun';" transform="matrix(&st16;  554.72  338.04 )">5</text>
		<text style="font-size:6px;font-family:'NSimSun';" transform="matrix(&st16;  585.61  375.42 )">20</text>
		<text style="font-size:6px;font-family:'NSimSun';" transform="matrix(&st16;  585.61  338.04 )">16</text>
		<text style="font-size:6px;font-family:'NSimSun';" transform="matrix(&st16;  622.71  375.42 )">4</text>
		<g ewd:figtype="title">
			<text style="font-size:6px;font-family:'NSimSun';" transform="matrix(&st17;  679.0  370.12 )">E74</text>
			<text style="font-size:6px;font-family:'NSimSun';" transform="matrix(&st17;  686.11  370.13 )" ewd:textID="9">2 号 CAN<tspan x="0 " dy="6.0">接线连接器</tspan></text>
		</g>
	</g>
	<g ewd:figtype="jb" ewd:figID="15" ewd:code="3">
		<text style="font-size:6px;font-family:'NSimSun';" transform="matrix(&st16;  155.29  86.47 )">2</text>
		<text style="font-size:6px;font-family:'NSimSun';" transform="matrix(&st16;  177.9  53.34 )">5A <tspan x="0 " dy="6.0">ECU-IG </tspan><tspan x="0 " dy="6.0">NO.5</tspan></text>
		<text style="font-size:6px;font-family:'NSimSun';" transform="matrix(&st16;  157.54  101.49 )">3D</text>
		<text style="font-size:6px;font-family:'NSimSun';" transform="matrix(&st16;  147.86  101.49 )">30</text>
		<text style="font-size:6px;font-family:'NSimSun';" transform="matrix(&st16;  156.26  32.08 )">(IG)</text>
		<path style="stroke-width: 0.28 ;&st9;  " d=" M   161.47,    90.37  L   158.64,    87.54  L   158.64,    91.79  L   161.47,    94.62  L   164.31,    91.79  L   164.31,    87.54  L   161.47,    90.37  "/>
		<path style="stroke-width: 1.42 ;&st7;  " d=" M   148.73,    35.78  L   148.73,    78.27  L   174.22,    78.27  L   174.22,    35.78  L   148.73,    35.78  "/>
		<path style="stroke-width: 0.85 ;&st7;   " d=" M   162.89,    45.69  C   162.89     44.91    162.26     44.28    161.47     44.28  "/>
		<path style="stroke-width: 0.85 ;&st7;   " d=" M   161.47,    44.28  C   160.69     44.28    160.06     44.91    160.06     45.69  "/>
		<path style="stroke-width: 0.85 ;&st7;   " d=" M   160.06,    45.69  C   160.06     46.48    160.69     47.11    161.47     47.11  "/>
		<path style="stroke-width: 0.85 ;&st7;   " d=" M   161.47,    47.11  C   162.26     47.11    162.89     46.48    162.89     45.69  "/>
		<path style="stroke-width: 1.42 ;&st7;   " d=" M   161.47,    47.11  C   158.74     48.72    157.82     52.25    159.44     54.99  "/>
		<path style="stroke-width: 1.42 ;&st7;   " d=" M   159.44,    54.99  C   159.96     55.87    160.59     56.51    161.47     57.03  "/>
		<path style="stroke-width: 1.42 ;&st7;   " d=" M   161.47,    66.94  C   164.21     65.33    165.12     61.80    163.51     59.06  "/>
		<path style="stroke-width: 1.42 ;&st7;   " d=" M   163.51,    59.06  C   162.99     58.18    162.35     57.55    161.47     57.03  "/>
		<path style="stroke-width: 0.85 ;&st7;   " d=" M   162.89,    68.36  C   162.89     67.57    162.26     66.94    161.47     66.94  "/>
		<path style="stroke-width: 0.85 ;&st7;   " d=" M   161.47,    66.94  C   160.69     66.94    160.06     67.57    160.06     68.36  "/>
		<path style="stroke-width: 0.85 ;&st7;   " d=" M   160.06,    68.36  C   160.06     69.14    160.69     69.77    161.47     69.77  "/>
		<path style="stroke-width: 0.85 ;&st7;   " d=" M   161.47,    69.77  C   162.26     69.77    162.89     69.14    162.89     68.36  "/>
		<path style="stroke-width: 1.42 ;&st7;   " d=" M   159.35,    95.27  C   157.00     95.27    155.10     97.17    155.10     99.52  "/>
		<path style="stroke-width: 1.42 ;&st7;   " d=" M   155.10,    99.52  C   155.10    101.87    157.00    103.77    159.35    103.77  "/>
		<path style="stroke-width: 1.42 ;&st7;   " d=" M   163.60,   103.77  C   165.94    103.77    167.85    101.87    167.85     99.52  "/>
		<path style="stroke-width: 1.42 ;&st7;   " d=" M   167.85,    99.52  C   167.85     97.17    165.94     95.27    163.60     95.27  "/>
		<path style="stroke-width: 1.42 ;&st7;  " d=" M   163.60,    95.27  L   159.35,    95.27  "/>
		<path style="stroke-width: 1.42 ;&st7;  " d=" M   163.60,   103.77  L   159.35,   103.77  "/>
		<path style="stroke-width: 0.85 ;&st7;  " d=" M   161.47,    69.77  L   161.47,    95.27  "/>
	</g>
	<g ewd:figtype="jb" ewd:figID="16" ewd:code="3">
		<path style="stroke-width: 1.42 ;&st7;  " d=" M  1251.42,   197.25  L  1247.17,   197.25  "/>
		<path style="stroke-width: 1.42 ;&st7;  " d=" M  1251.42,   188.75  L  1247.17,   188.75  "/>
		<path style="stroke-width: 1.42 ;&st7;  " d=" M  1251.42,   154.76  L  1247.17,   154.76  "/>
		<path style="stroke-width: 1.42 ;&st7;  " d=" M  1251.42,   146.26  L  1247.17,   146.26  "/>
		<path style="stroke-width: 1.42 ;&st7;   " d=" M  1255.67,   193.00  C  1255.67    190.66   1253.76    188.75   1251.42    188.75  "/>
		<path style="stroke-width: 1.42 ;&st7;   " d=" M  1251.42,   197.25  C  1253.76    197.25   1255.67    195.35   1255.67    193.00  "/>
		<path style="stroke-width: 1.42 ;&st7;   " d=" M  1242.92,   193.00  C  1242.92    195.35   1244.82    197.25   1247.17    197.25  "/>
		<path style="stroke-width: 1.42 ;&st7;   " d=" M  1247.17,   188.75  C  1244.82    188.75   1242.92    190.66   1242.92    193.00  "/>
		<path style="stroke-width: 1.42 ;&st7;   " d=" M  1255.67,   150.51  C  1255.67    148.16   1253.76    146.26   1251.42    146.26  "/>
		<path style="stroke-width: 1.42 ;&st7;   " d=" M  1251.42,   154.76  C  1253.76    154.76   1255.67    152.86   1255.67    150.51  "/>
		<path style="stroke-width: 1.42 ;&st7;   " d=" M  1242.92,   150.51  C  1242.92    152.86   1244.82    154.76   1247.17    154.76  "/>
		<path style="stroke-width: 1.42 ;&st7;   " d=" M  1247.17,   146.26  C  1244.82    146.26   1242.92    148.16   1242.92    150.51  "/>
		<path style="stroke-width: 0.85 ;&st7;  " d=" M  1249.29,   188.75  L  1249.29,   154.76  "/>
		<path style="stroke-width: 0.28 ;&st9;  " d=" M  1249.29,   183.86  L  1246.46,   181.03  L  1246.46,   185.28  L  1249.29,   188.11  L  1252.12,   185.28  L  1252.12,   181.03  L  1249.29,   183.86  "/>
		<path style="stroke-width: 0.28 ;&st9;  " d=" M  1249.29,   159.65  L  1252.12,   162.49  L  1252.12,   158.24  L  1249.29,   155.41  L  1246.46,   158.24  L  1246.46,   162.49  L  1249.29,   159.65  "/>
		<text style="font-size:6px;font-family:'NSimSun';" transform="matrix(&st16;  1235.68  194.97 )">34</text>
		<text style="font-size:6px;font-family:'NSimSun';" transform="matrix(&st16;  1245.44  152.48 )">3A</text>
		<text style="font-size:6px;font-family:'NSimSun';" transform="matrix(&st16;  1235.68  152.48 )">44</text>
		<text style="font-size:6px;font-family:'NSimSun';" transform="matrix(&st16;  1245.36  194.97 )">3D</text>
	</g>
	<g ewd:figtype="jb" ewd:figID="17" ewd:code="3">
		<path style="stroke-width: 1.42 ;&st7;  " d=" M  1327.90,   103.77  L  1323.65,   103.77  "/>
		<path style="stroke-width: 1.42 ;&st7;  " d=" M  1327.90,    95.27  L  1323.65,    95.27  "/>
		<path style="stroke-width: 0.85 ;&st7;  " d=" M  1325.78,    69.77  L  1325.78,    95.27  "/>
		<path style="stroke-width: 1.42 ;&st7;   " d=" M  1332.15,    99.52  C  1332.15     97.17   1330.25     95.27   1327.90     95.27  "/>
		<path style="stroke-width: 1.42 ;&st7;   " d=" M  1319.40,    99.52  C  1319.40    101.87   1321.31    103.77   1323.65    103.77  "/>
		<path style="stroke-width: 1.42 ;&st7;   " d=" M  1327.90,   103.77  C  1330.25    103.77   1332.15    101.87   1332.15     99.52  "/>
		<path style="stroke-width: 1.42 ;&st7;   " d=" M  1323.65,    95.27  C  1321.31     95.27   1319.40     97.17   1319.40     99.52  "/>
		<path style="stroke-width: 0.85 ;&st7;   " d=" M  1327.19,    68.36  C  1327.19     67.57   1326.56     66.94   1325.78     66.94  "/>
		<path style="stroke-width: 0.85 ;&st7;   " d=" M  1325.78,    66.94  C  1325.00     66.94   1324.36     67.57   1324.36     68.36  "/>
		<path style="stroke-width: 0.85 ;&st7;   " d=" M  1324.36,    68.36  C  1324.36     69.14   1325.00     69.77   1325.78     69.77  "/>
		<path style="stroke-width: 0.85 ;&st7;   " d=" M  1325.78,    69.77  C  1326.56     69.77   1327.19     69.14   1327.19     68.36  "/>
		<path style="stroke-width: 0.85 ;&st7;   " d=" M  1327.19,    45.69  C  1327.19     44.91   1326.56     44.28   1325.78     44.28  "/>
		<path style="stroke-width: 0.85 ;&st7;   " d=" M  1325.78,    44.28  C  1325.00     44.28   1324.36     44.91   1324.36     45.69  "/>
		<path style="stroke-width: 0.85 ;&st7;   " d=" M  1324.36,    45.69  C  1324.36     46.48   1325.00     47.11   1325.78     47.11  "/>
		<path style="stroke-width: 0.85 ;&st7;   " d=" M  1325.78,    47.11  C  1326.56     47.11   1327.19     46.48   1327.19     45.69  "/>
		<path style="stroke-width: 1.42 ;&st7;   " d=" M  1325.78,    66.94  C  1328.52     65.33   1329.43     61.80   1327.82     59.06  "/>
		<path style="stroke-width: 1.42 ;&st7;   " d=" M  1327.82,    59.06  C  1327.30     58.18   1326.66     57.55   1325.78     57.03  "/>
		<path style="stroke-width: 1.42 ;&st7;   " d=" M  1325.78,    47.11  C  1323.04     48.72   1322.13     52.25   1323.74     54.99  "/>
		<path style="stroke-width: 1.42 ;&st7;   " d=" M  1323.74,    54.99  C  1324.26     55.87   1324.90     56.51   1325.78     57.03  "/>
		<path style="stroke-width: 1.42 ;&st7;  " d=" M  1313.03,    35.78  L  1313.03,    78.27  L  1338.53,    78.27  L  1338.53,    35.78  L  1313.03,    35.78  "/>
		<path style="stroke-width: 0.28 ;&st9;  " d=" M  1325.78,    90.37  L  1322.95,    87.54  L  1322.95,    91.79  L  1325.78,    94.62  L  1328.61,    91.79  L  1328.61,    87.54  L  1325.78,    90.37  "/>
		<text style="font-size:6px;font-family:'NSimSun';" transform="matrix(&st16;  1342.2  56.17 )">5A <tspan x="0 " dy="6.0">MET</tspan></text>
		<text style="font-size:6px;font-family:'NSimSun';" transform="matrix(&st16;  1320.57  32.08 )">(IG)</text>
		<text style="font-size:6px;font-family:'NSimSun';" transform="matrix(&st16;  1312.17  101.49 )">55</text>
		<text style="font-size:6px;font-family:'NSimSun';" transform="matrix(&st16;  1321.81  101.49 )">3C</text>
		<text style="font-size:6px;font-family:'NSimSun';" transform="matrix(&st16;  1319.59  86.47 )">2</text>
	</g>
	<g ewd:figtype="w2w" ewd:figID="18" ewd:code="AE4">
		<path style="stroke-width: 1.42 ;&st7;  " d=" M   752.12,   179.69  L   756.37,   183.94  L   760.62,   179.69  "/>
		<path style="stroke-width: 1.42 ;&st7;  " d=" M   760.62,   183.09  L   756.37,   187.34  L   752.12,   183.09  "/>
		<text style="font-size:6px;font-family:'NSimSun';" transform="matrix(&st16;  743.74  194.97 )">3</text>
	</g>
	<g ewd:figtype="w2w" ewd:figID="19" ewd:code="AE4">
		<path style="stroke-width: 1.42 ;&st7;  " d=" M   786.12,   179.69  L   790.37,   183.94  L   794.62,   179.69  "/>
		<path style="stroke-width: 1.42 ;&st7;  " d=" M   794.62,   183.09  L   790.37,   187.34  L   786.12,   183.09  "/>
		<text style="font-size:6px;font-family:'NSimSun';" transform="matrix(&st16;  777.74  194.97 )">4</text>
	</g>
	<g ewd:figtype="w2w" ewd:figID="20" ewd:code="AE3">
		<path style="stroke-width: 1.42 ;&st7;  " d=" M   845.61,   179.69  L   849.86,   183.94  L   854.11,   179.69  "/>
		<text style="font-size:6px;font-family:'NSimSun';" transform="matrix(&st16;  837.23  194.97 )">9</text>
		<path style="stroke-width: 1.42 ;&st7;  " d=" M   854.11,   183.09  L   849.86,   187.34  L   845.61,   183.09  "/>
	</g>
	<g ewd:figtype="w2w" ewd:figID="21" ewd:code="AE3">
		<path style="stroke-width: 1.42 ;&st7;  " d=" M   888.10,   183.09  L   883.85,   187.34  L   879.60,   183.09  "/>
		<path style="stroke-width: 1.42 ;&st7;  " d=" M   879.60,   179.69  L   883.85,   183.94  L   888.10,   179.69  "/>
		<text style="font-size:6px;font-family:'NSimSun';" transform="matrix(&st16;  871.22  194.97 )">8</text>
	</g>
	<g ewd:figtype="gp" ewd:figID="22" ewd:code="AE">
		<path style="stroke-width: 0.85 ;&st7;  " d=" M   118.98,   697.25  L   118.98,   701.50  "/>
		<path style="stroke-width: 0.85 ;&st7;  " d=" M   110.48,   701.50  L   127.48,   701.50  "/>
		<path style="stroke-width: 0.85 ;&st7;  " d=" M   114.73,   704.33  L   123.23,   704.33  "/>
		<path style="stroke-width: 0.85 ;&st7;  " d=" M   116.15,   707.17  L   121.81,   707.17  "/>
		<path style="stroke-width: 0.85 ;&st7;  " d=" M   117.56,   710.00  L   120.40,   710.00  "/>
	</g>
	<g ewd:figtype="gp" ewd:figID="23" ewd:code="BA">
		<path style="stroke-width: 0.85 ;&st7;  " d=" M   984.42,   710.00  L   987.25,   710.00  "/>
		<path style="stroke-width: 0.85 ;&st7;  " d=" M   981.59,   704.33  L   990.08,   704.33  "/>
		<path style="stroke-width: 0.85 ;&st7;  " d=" M   983.00,   707.17  L   988.67,   707.17  "/>
		<path style="stroke-width: 0.85 ;&st7;  " d=" M   977.34,   701.50  L   994.33,   701.50  "/>
		<path style="stroke-width: 0.85 ;&st7;  " d=" M   985.83,   697.25  L   985.83,   701.50  "/>
	</g>
	<g ewd:figtype="gp" ewd:figID="24" ewd:code="ED">
		<path style="stroke-width: 0.85 ;&st7;  " d=" M  1368.27,   697.25  L  1368.27,   701.50  "/>
		<path style="stroke-width: 0.85 ;&st7;  " d=" M  1359.77,   701.50  L  1376.77,   701.50  "/>
		<path style="stroke-width: 0.85 ;&st7;  " d=" M  1365.44,   707.17  L  1371.10,   707.17  "/>
		<path style="stroke-width: 0.85 ;&st7;  " d=" M  1366.85,   710.00  L  1369.69,   710.00  "/>
		<path style="stroke-width: 0.85 ;&st7;  " d=" M  1364.02,   704.33  L  1372.52,   704.33  "/>
	</g>
	<g ewd:code=" " ewd:figID="31" ewd:comment=" " ewd:figtype="sh">
		<path style="stroke-width: 0.85 ;&st7; stroke-dasharray:3, 1.5;" d=" M   934.84,   469.21  L   934.84,   443.71  L   824.36,   443.71  L   824.36,   477.71  L   926.34,   477.71  "/>
		<g ewd:code="" ewd:figID="32" ewd:comment=" " ewd:figtype="commref">
			<text style="font-size:6px;font-family:'NSimSun';" transform="matrix(&st17;  820.67  472.94 )" ewd:textID="1">（屏蔽）</text>
		</g>
	</g>
	<text style="font-size:6px;font-family:'NSimSun';" transform="matrix(&st17;  880.16  326.42 )">B</text>
	<text style="font-size:6px;font-family:'NSimSun';" transform="matrix(&st17;  846.16  327.2 )">W</text>
	<path style="stroke-width: 1.42 ;&st7;  " d=" M   977.34,   549.22  L   982.31,   554.19  "/>
	<path style="stroke-width: 1.42 ;&st7;  " d=" M   931.31,   469.21  L   926.35,   474.18  "/>
	<text style="font-size:6px;font-family:'NSimSun';" transform="matrix(&st17;  786.67  224.32 )">L</text>
	<text style="font-size:6px;font-family:'NSimSun';" transform="matrix(&st17;  752.68  225.21 )">W</text>
	<text style="font-size:6px;font-family:'NSimSun';" transform="matrix(&st17;  251.26  422.04 )">GR</text>
	<text style="font-size:6px;font-family:'NSimSun';" transform="matrix(&st17;  591.2  420.68 )">W</text>
	<text style="font-size:6px;font-family:'NSimSun';" transform="matrix(&st17;  557.21  422.04 )">GR</text>
	<text style="font-size:6px;font-family:'NSimSun';" transform="matrix(&st17;  557.21  283.81 )">L</text>
	<text style="font-size:6px;font-family:'NSimSun';" transform="matrix(&st17;  591.2  284.7 )">W</text>
	<text style="font-size:6px;font-family:'NSimSun';" transform="matrix(&st17;  786.67  326.54 )">V</text>
	<text style="font-size:6px;font-family:'NSimSun';" transform="matrix(&st17;  752.68  327.2 )">W</text>
	<path style="stroke-width: 1.42 ;&st7;  " d=" M   989.36,   554.19  L   994.33,   549.22  "/>
	<path style="stroke-width: 1.42 ;&st7;  " d=" M   994.33,   542.17  L   989.36,   537.20  "/>
	<text style="font-size:6px;font-family:'NSimSun';" transform="matrix(&st17;  157.78  130.84 )">L</text>
	<text style="font-size:6px;font-family:'NSimSun';" transform="matrix(&st17;  115.28  424.17 )">W-B</text>
	<text style="font-size:6px;font-family:'NSimSun';" transform="matrix(&st17;  251.26  130.84 )">L</text>
	<text style="font-size:6px;font-family:'NSimSun';" transform="matrix(&st17;  446.73  285.48 )">SB</text>
	<text style="font-size:6px;font-family:'NSimSun';" transform="matrix(&st17;  217.27  420.68 )">W</text>
	<text style="font-size:6px;font-family:'NSimSun';" transform="matrix(&st16;  540.95  474.01 )">W</text>
	<text style="font-size:6px;font-family:'NSimSun';" transform="matrix(&st17;  846.16  165.72 )">W</text>
	<text style="font-size:6px;font-family:'NSimSun';" transform="matrix(&st17;  880.16  164.87 )">R</text>
	<path style="stroke-width: 1.42 ;&st7;  " d=" M   982.31,   537.20  L   977.34,   542.17  "/>
	<text style="font-size:6px;font-family:'NSimSun';" transform="matrix(&st16;  488.6  457.01 )">GR</text>
	<text style="font-size:6px;font-family:'NSimSun';" transform="matrix(&st16;  539.59  457.01 )">GR</text>
	<text style="font-size:6px;font-family:'NSimSun';" transform="matrix(&st16;  489.95  474.01 )">W</text>
	<text style="font-size:6px;font-family:'NSimSun';" transform="matrix(&st16;  540.17  40.58 )">SB</text>
	<text style="font-size:6px;font-family:'NSimSun';" transform="matrix(&st16;  489.18  40.58 )">SB</text>
	<text style="font-size:6px;font-family:'NSimSun';" transform="matrix(&st17;  846.16  64.51 )">SB</text>
	<path style="stroke-width: 1.42 ;&st7;  " d=" M   938.37,   486.20  L   943.34,   481.24  "/>
	<path style="stroke-width: 1.42 ;&st7;  " d=" M   926.35,   481.24  L   931.31,   486.20  "/>
	<path style="stroke-width: 1.42 ;&st7;  " d=" M   943.34,   474.18  L   938.37,   469.21  "/>
	<text style="font-size:6px;font-family:'NSimSun';" transform="matrix(&st17;  982.14  506.75 )">BR</text>
	<text style="font-size:6px;font-family:'NSimSun';" transform="matrix(&st17;  982.14  583.24 )">BR</text>
	<text style="font-size:6px;font-family:'NSimSun';" transform="matrix(&st17;  897.15  462.67 )">G</text>
	<text style="font-size:6px;font-family:'NSimSun';" transform="matrix(&st17;  846.16  462.32 )">R</text>
	<text style="font-size:6px;font-family:'NSimSun';" transform="matrix(&st17;  880.16  224.36 )">R</text>
	<text style="font-size:6px;font-family:'NSimSun';" transform="matrix(&st17;  846.16  225.21 )">W</text>
	<path style="stroke-width: 1.42 ;&st7;  " d=" M   841.36,   188.75  L   849.86,   188.75  "/>
	<path style="stroke-width: 1.42 ;&st7;  " d=" M   875.35,   188.75  L   883.85,   188.75  "/>
	<path style="stroke-width: 1.42 ;&st7;  " d=" M   781.87,   188.75  L   790.37,   188.75  "/>
	<path style="stroke-width: 1.42 ;&st7;  " d=" M   747.88,   188.75  L   756.37,   188.75  "/>
	<text style="font-size:6px;font-family:'NSimSun';" transform="matrix(&st17;  1322.08  215.74 )">P</text>
	<text style="font-size:6px;font-family:'NSimSun';" transform="matrix(&st17;  1245.6  216.71 )">W</text>
	<text style="font-size:6px;font-family:'NSimSun';" transform="matrix(&st17;  1364.58  549.24 )">BR</text>
	<text style="font-size:6px;font-family:'NSimSun';" transform="matrix(&st17;  1245.6  131.73 )">W</text>
	<text style="font-size:6px;font-family:'NSimSun';" transform="matrix(&st17;  1245.6  548.16 )">W</text>
	<text style="font-size:6px;font-family:'NSimSun';" transform="matrix(&st17;  1313.58  549.48 )">LG</text>
	<text style="font-size:6px;font-family:'NSimSun';" transform="matrix(&st17;  659.19  420.68 )">W</text>
	<text style="font-size:6px;font-family:'NSimSun';" transform="matrix(&st17;  625.2  422.0 )">LG</text>
	<text style="font-size:6px;font-family:'NSimSun';" transform="matrix(&st16;  1008.37  609.99 )">W</text>
	<text style="font-size:6px;font-family:'NSimSun';" transform="matrix(&st16;  1058.04  626.98 )">LG</text>
	<text style="font-size:6px;font-family:'NSimSun';" transform="matrix(&st16;  1059.36  609.99 )">W</text>
	<text style="font-size:6px;font-family:'NSimSun';" transform="matrix(&st16;  1007.05  626.98 )">LG</text>
	<a ewd:figtype="w2w" style="cursor:pointer;" ewd:pinNo="3" ewd:code="AE4" ewd:figID="18">
		<path style="&st2;" d=" M   764.87,   188.75  L   747.88,   188.75  L   747.88,   197.25  L   764.87,   197.25  L   764.87,   188.75 "/>
		<text style="&st8;" transform="matrix(&st16;  751.07  195.12 )"><tspan x="0" style="font-size:6px;font-family:'NSimSun';" y="0">AE4</tspan></text>
	</a>
	<a ewd:figtype="w2w" style="cursor:pointer;" ewd:pinNo="4" ewd:code="AE4" ewd:figID="19">
		<path style="&st2;" d=" M   798.87,   188.75  L   781.87,   188.75  L   781.87,   197.25  L   798.87,   197.25  L   798.87,   188.75 "/>
		<text style="&st8;" transform="matrix(&st16;  785.06  195.12 )"><tspan x="0" style="font-size:6px;font-family:'NSimSun';" y="0">AE4</tspan></text>
	</a>
	<a ewd:figtype="w2w" style="cursor:pointer;" ewd:pinNo="9" ewd:code="AE3" ewd:figID="20">
		<path style="&st2;" d=" M   858.36,   188.75  L   841.36,   188.75  L   841.36,   197.25  L   858.36,   197.25  L   858.36,   188.75 "/>
		<text style="&st8;" transform="matrix(&st16;  844.55  195.12 )"><tspan x="0" style="font-size:6px;font-family:'NSimSun';" y="0">AE3</tspan></text>
	</a>
	<a ewd:figtype="w2w" style="cursor:pointer;" ewd:pinNo="8" ewd:code="AE3" ewd:figID="21">
		<path style="&st2;" d=" M   892.35,   188.75  L   875.35,   188.75  L   875.35,   197.25  L   892.35,   197.25  L   892.35,   188.75 "/>
		<text style="&st8;" transform="matrix(&st16;  878.55  195.12 )"><tspan x="0" style="font-size:6px;font-family:'NSimSun';" y="0">AE3</tspan></text>
	</a>
	<a ewd:figtype="gp" style="cursor:pointer;" ewd:code="AE" ewd:figID="22">
		<path style="&st2;" d=" M   108.36,   681.67  L   129.60,   681.67  L   118.98,   697.25  L   108.36,   681.67 "/>
		<text style="&st8;" transform="matrix(&st16;  115.18  689.46 )"><tspan x="0" style="font-size:6px;font-family:'NSimSun';" y="0">AE</tspan></text>
	</a>
	<a ewd:figtype="gp" style="cursor:pointer;" ewd:code="BA" ewd:figID="23">
		<path style="&st2;" d=" M   975.21,   681.67  L   996.46,   681.67  L   985.84,   697.25  L   975.21,   681.67 "/>
		<text style="&st8;" transform="matrix(&st16;  981.96  689.46 )"><tspan x="0" style="font-size:6px;font-family:'NSimSun';" y="0">BA</tspan></text>
	</a>
	<a ewd:figtype="gp" style="cursor:pointer;" ewd:code="ED" ewd:figID="24">
		<path style="&st2;" d=" M  1357.65,   681.67  L  1378.89,   681.67  L  1368.27,   697.25  L  1357.65,   681.67 "/>
		<text style="&st8;" transform="matrix(&st16;  1364.4  689.46 )"><tspan x="0" style="font-size:6px;font-family:'NSimSun';" y="0">ED</tspan></text>
	</a>
	<a ewd:figtype="sp" style="cursor:pointer;" ewd:code="SP44" ewd:figID="25">
		<path style="&st2;" d=" M   930.59,   469.21  L   939.09,   469.21  L   943.34,   473.46  L   943.34,   481.95  L   939.09,   486.20  L   930.59,   486.20  L   926.35,   481.95  L   926.35,   473.46  L   930.59,   469.21 "/>
	</a>
	<a ewd:figtype="sp" style="cursor:pointer;" ewd:code="SP23" ewd:figID="26">
		<path style="&st2;" d=" M   981.59,   537.20  L   990.08,   537.20  L   994.33,   541.44  L   994.33,   549.94  L   990.08,   554.19  L   981.59,   554.19  L   977.34,   549.94  L   977.34,   541.44  L   981.59,   537.20 "/>
	</a>
</g>
</svg>