<?xml version="1.0" encoding="utf-8"?>
<!DOCTYPE svg PUBLIC "-//W3C//DTD SVG 1.0//EN" "http://www.w3.org/TR/2001/REC-SVG-20010904/DTD/svg10.dtd"[
	<!ENTITY ns_flows "http://ns.adobe.com/Flows/1.0/">
	<!ENTITY ns_svg "http://www.w3.org/2000/svg">
	<!ENTITY ns_xlink "http://www.w3.org/1999/xlink">
	<!ENTITY st0 "font-size:7px;font-family:'NSimSun';adobe-font-script:japanese;">
	<!ENTITY st1 "font-size:6px;font-family:'NSimSun';">
	<!-- White fill  -->
	<!ENTITY st2 "fill:#FFFFFF;stroke:#000000; stroke-width:1.41;stroke-linecap:round;stroke-linejoin:round;">
	<!-- Yellow fill  -->
	<!ENTITY st3 "fill:#FFFFCC;stroke:#FFFFCC; stroke-width:0.1;stroke-linecap:round;stroke-linejoin:round;">
	<!-- Gray fill  -->
	<!ENTITY st4 "fill:#CCCCCC;stroke:#CCCCCC; stroke-width:0.1;stroke-linecap:round;stroke-linejoin:round;">
	<!-- Light-blue fill -->
	<!ENTITY st5 "fill:#CCECF4;stroke:#000000; stroke-width:1.133;stroke-linecap:round;stroke-linejoin:round;">
	<!ENTITY st6 "fill:none;stroke-linecap:butt; stroke-linejoin:round;">
	<!ENTITY st7 "fill:none;stroke:#000000;stroke-linecap:round;stroke-linejoin:round;">
	<!ENTITY st8 "enable-background:new    ;">
	<!-- Black fill -->
	<!ENTITY st9 "fill:#000000;stroke:#000000; stroke-linecap:round;stroke-linejoin:round;">
	<!-- SRS note   -->
	<!ENTITY st10 "font-size:9px;font-family:'NSimSun';">
	<!ENTITY st11 "font-size:9px;font-family:'NSimSun';">
	<!ENTITY st12 "font-size:6px;font-family:'NSimSun';">
	<!ENTITY st13 "fill:none;stroke:#ff0000;stroke-linecap:round;stroke-linejoin:round;">
	<!-- Yellow fill  -->
	<!ENTITY st14 "fill:#FFFF00;stroke:#FFFF00; stroke-width:0.1;stroke-linecap:round;stroke-linejoin:round;">
	<!ENTITY st15 "font-size:6px;font-family:'NSimSun';adobe-font-script:japanese;">
	<!ENTITY st16 "1.00 0.00 0.00 1.00">
	<!ENTITY st17 "0.00 -1.00 1.00 0.00">
	<!ENTITY st18 "font-size:6px;font-family:'NSimSun';">
	<!ENTITY st19 "font-size:9px;font-family:'NSimSun';">
	<!ENTITY st20 "font-size:6px;font-family:'NSimSun';adobe-font-script:japanese;">
	<!ENTITY st21 "font-size:7px;font-family:'NSimSun';adobe-font-script:japanese;">
	<!ATTLIST svg
		xmlns:ewd CDATA #FIXED "http://shcl.co.jp/ewd"
		xmlns:a CDATA #FIXED "http://ns.adobe.com/AdobeSVGViewerExtensions/3.0/"
		ewd:ver CDATA #IMPLIED
	>
	<!ATTLIST a
		ewd:lineID CDATA #IMPLIED
		ewd:groupID CDATA #IMPLIED
		ewd:figtype CDATA #IMPLIED
		ewd:code CDATA #IMPLIED
		ewd:figID CDATA #IMPLIED
		ewd:pinNo CDATA #IMPLIED
		ewd:comment CDATA #IMPLIED >
	<!ATTLIST g
		ewd:lineID CDATA #IMPLIED
		ewd:groupID CDATA #IMPLIED
		ewd:figtype CDATA #IMPLIED
		ewd:code CDATA #IMPLIED
		ewd:figID CDATA #IMPLIED
		ewd:pinNo CDATA #IMPLIED
		ewd:comment CDATA #IMPLIED >
	<!ATTLIST text
		ewd:textID CDATA #IMPLIED
		ewd:horAlign CDATA #IMPLIED >
	<!ATTLIST title
		ewd:textID CDATA #IMPLIED >
]>
<!-- Generator: Shintec Hozumi YS   -->
<svg onload="call_execInitLoadProc_svg('system')" style="overflow:visible;  enable-background:new 0 0 1536.827 710.000" viewBox="0 0 1540.374 710.000" height="710.000" width="1540.374" xml:space="preserve" ewd:ver="2.1.2.6F" xmlns="&ns_svg;" xmlns:ewd="http://shcl.co.jp/ewd" xmlns:a="http://ns.adobe.com/AdobeSVGViewerExtensions/3.0/" xmlns:xlink="&ns_xlink;">
<path style="stroke-width: 1.42 ;&st7;  " d=" M  1152.28,   163.26  L  1147.31,   168.23  " /><path style="stroke-width: 1.42 ;&st7;  " d=" M  1159.33,   180.26  L  1164.31,   175.29  " /><path style="stroke-width: 1.42 ;&st7;  " d=" M  1147.31,   175.29  L  1152.28,   180.26  " /><path style="stroke-width: 1.42 ;&st7;  " d=" M  1164.31,   168.23  L  1159.33,   163.26  " /><path style="stroke-width: 1.42 ;&st7;  " d=" M  1215.30,   168.23  L  1210.33,   163.26  " /><path style="stroke-width: 1.42 ;&st7;  " d=" M  1198.30,   175.29  L  1203.27,   180.26  " /><path style="stroke-width: 1.42 ;&st7;  " d=" M  1210.33,   180.26  L  1215.30,   175.29  " /><path style="stroke-width: 1.42 ;&st7;  " d=" M  1203.27,   163.26  L  1198.30,   168.23  " /><text style="font-size:6px;font-family:'NSimSun';" transform="matrix(&st16;  1254.38  32.08 )" ewd:textID="18">主车身 ECU</text><text style="font-size:6px;font-family:'NSimSun';" transform="matrix(&st16;  1254.38  24.98 )">E36(A)</text><text style="font-size:6px;font-family:'NSimSun';" transform="matrix(&st17;  1322.08  419.79 )">L</text><text style="font-size:6px;font-family:'NSimSun';" transform="matrix(&st17;  1373.07  199.72 )">W</text><text style="font-size:6px;font-family:'NSimSun';" transform="matrix(&st17;  1254.09  232.82 )">L</text><text style="font-size:6px;font-family:'NSimSun';" transform="matrix(&st17;  1152.11  237.2 )">W-B</text><text style="font-size:6px;font-family:'NSimSun';" transform="matrix(&st17;  1203.1  237.2 )">W-B</text><text style="font-size:6px;font-family:'NSimSun';" transform="matrix(&st17;  1203.1  352.19 )">G</text><text style="font-size:6px;font-family:'NSimSun';" transform="matrix(&st17;  1152.11  352.19 )">G</text><text style="font-size:6px;font-family:'NSimSun';" transform="matrix(&st17;  1075.62  237.2 )">W-B</text><text style="font-size:6px;font-family:'NSimSun';" transform="matrix(&st17;  1109.62  237.2 )">W-B</text><text style="font-size:6px;font-family:'NSimSun';" transform="matrix(&st16;  1008.87  542.0 )">G</text><text style="font-size:6px;font-family:'NSimSun';" transform="matrix(&st16;  1059.86  542.0 )">G</text><text style="font-size:6px;font-family:'NSimSun';" transform="matrix(&st17;  1296.59  233.21 )">G</text><text style="font-size:6px;font-family:'NSimSun';" transform="matrix(&st16;  1055.29  558.99 )">L(*5)</text><text style="font-size:6px;font-family:'NSimSun';" transform="matrix(&st16;  1004.3  558.99 )">L(*5)</text><text style="font-size:6px;font-family:'NSimSun';" transform="matrix(&st17;  1152.11  522.16 )">G</text><text style="font-size:6px;font-family:'NSimSun';" transform="matrix(&st17;  1152.11  445.67 )">G</text><text style="font-size:6px;font-family:'NSimSun';" transform="matrix(&st17;  1203.1  522.16 )">G</text><text style="font-size:6px;font-family:'NSimSun';" transform="matrix(&st17;  1265.43  235.96 )">(*4)</text><text style="font-size:6px;font-family:'NSimSun';" transform="matrix(&st16;  1284.75  558.99 )">L(*5)</text><text style="font-size:6px;font-family:'NSimSun';" transform="matrix(&st17;  1203.1  445.67 )">G</text><path style="stroke-width: 1.42 ;&st7;  " d=" M  1164.31,   477.71  L  1155.81,   477.71  " /><path style="stroke-width: 1.42 ;&st7;  " d=" M  1215.30,   477.71  L  1206.80,   477.71  " /><text style="font-size:6px;font-family:'NSimSun';" transform="matrix(&st17;  1475.06  203.21 )">W-B</text><g ewd:figtype="conn" ewd:figID="1" ewd:code="E36"><g ewd:lineID="31"><text style="font-size:6px;font-family:'NSimSun';" transform="matrix(&st16;  1249.24  83.07 )">FFGO</text></g><g ewd:lineID="33"><text style="font-size:6px;font-family:'NSimSun';" transform="matrix(&st16;  1436.95  83.07 )">TRLY</text><text style="font-size:6px;font-family:'NSimSun';" transform="matrix(&st16;  1470.55  83.07 )">GND1</text></g></g><g ewd:figtype="rb" ewd:figID="2" ewd:code="4"><path style="stroke-width: 1.42 ;&st7;  " d=" M  1327.90,   426.71  L  1323.65,   426.71  " /><path style="stroke-width: 1.42 ;&st7;  " d=" M  1302.41,   503.20  L  1298.16,   503.20  " /><path style="stroke-width: 1.42 ;&st7;  " d=" M  1302.41,   511.70  L  1298.16,   511.70  " /><path style="stroke-width: 1.42 ;&st7;  " d=" M  1327.90,   503.20  L  1323.65,   503.20  " /><path style="stroke-width: 1.42 ;&st7;  " d=" M  1327.90,   511.70  L  1323.65,   511.70  " /><path style="stroke-width: 1.42 ;&st7;  " d=" M  1302.41,   426.71  L  1298.16,   426.71  " /><path style="stroke-width: 1.42 ;&st7;  " d=" M  1302.41,   435.21  L  1298.16,   435.21  " /><path style="stroke-width: 1.42 ;&st7;  " d=" M  1327.90,   435.21  L  1323.65,   435.21  " /><path style="stroke-width: 1.42 ;&st7;   " d=" M  1327.90,   435.21  C  1330.25    435.21   1332.15    433.31   1332.15    430.96  " /><path style="stroke-width: 1.42 ;&st7;   " d=" M  1298.16,   503.20  C  1295.81    503.20   1293.91    505.10   1293.91    507.45  " /><path style="stroke-width: 1.42 ;&st7;   " d=" M  1293.91,   507.45  C  1293.91    509.80   1295.81    511.70   1298.16    511.70  " /><path style="stroke-width: 1.42 ;&st7;   " d=" M  1302.41,   511.70  C  1304.75    511.70   1306.66    509.80   1306.66    507.45  " /><path style="stroke-width: 1.42 ;&st7;   " d=" M  1306.66,   507.45  C  1306.66    505.10   1304.75    503.20   1302.41    503.20  " /><path style="stroke-width: 1.42 ;&st7;   " d=" M  1323.65,   503.20  C  1321.31    503.20   1319.40    505.10   1319.40    507.45  " /><path style="stroke-width: 1.42 ;&st7;   " d=" M  1319.40,   507.45  C  1319.40    509.80   1321.31    511.70   1323.65    511.70  " /><path style="stroke-width: 1.42 ;&st7;   " d=" M  1327.90,   511.70  C  1330.25    511.70   1332.15    509.80   1332.15    507.45  " /><path style="stroke-width: 1.42 ;&st7;   " d=" M  1332.15,   507.45  C  1332.15    505.10   1330.25    503.20   1327.90    503.20  " /><path style="stroke-width: 1.42 ;&st7;   " d=" M  1298.16,   426.71  C  1295.81    426.71   1293.91    428.62   1293.91    430.96  " /><path style="stroke-width: 1.42 ;&st7;   " d=" M  1293.91,   430.96  C  1293.91    433.31   1295.81    435.21   1298.16    435.21  " /><path style="stroke-width: 1.42 ;&st7;   " d=" M  1302.41,   435.21  C  1304.75    435.21   1306.66    433.31   1306.66    430.96  " /><path style="stroke-width: 1.42 ;&st7;   " d=" M  1306.66,   430.96  C  1306.66    428.62   1304.75    426.71   1302.41    426.71  " /><path style="stroke-width: 1.42 ;&st7;   " d=" M  1323.65,   426.71  C  1321.31    426.71   1319.40    428.62   1319.40    430.96  " /><path style="stroke-width: 1.42 ;&st7;   " d=" M  1319.40,   430.96  C  1319.40    433.31   1321.31    435.21   1323.65    435.21  " /><path style="stroke-width: 1.42 ;&st7;   " d=" M  1332.15,   430.96  C  1332.15    428.62   1330.25    426.71   1327.90    426.71  " /><path style="stroke-width: 0.28 ;&st9;  " d=" M  1300.28,   498.31  L  1297.45,   495.47  L  1297.45,   499.72  L  1300.28,   502.56  L  1303.12,   499.72  L  1303.12,   495.47  L  1300.28,   498.31  " /><path style="stroke-width: 0.85 ;&st7;  " d=" M  1300.28,   435.21  L  1300.28,   452.21  " /><path style="stroke-width: 0.28 ;&st9;  " d=" M  1325.78,   498.31  L  1322.95,   495.47  L  1322.95,   499.72  L  1325.78,   502.56  L  1328.61,   499.72  L  1328.61,   495.47  L  1325.78,   498.31  " /><path style="stroke-width: 0.85 ;&st7;  " d=" M  1325.78,   435.21  L  1325.78,   452.21  " /><path style="stroke-width: 0.28 ;&st9;  " d=" M  1300.28,   440.11  L  1303.12,   442.94  L  1303.12,   438.69  L  1300.28,   435.86  L  1297.45,   438.69  L  1297.45,   442.94  L  1300.28,   440.11  " /><path style="stroke-width: 0.85 ;&st7;  " d=" M  1325.78,   486.20  L  1325.78,   503.20  " /><path style="stroke-width: 0.28 ;&st9;  " d=" M  1325.78,   440.11  L  1328.61,   442.94  L  1328.61,   438.69  L  1325.78,   435.86  L  1322.95,   438.69  L  1322.95,   442.94  L  1325.78,   440.11  " /><path style="stroke-width: 0.85 ;&st7;  " d=" M  1300.28,   486.20  L  1300.28,   503.20  " /><text style="font-size:6px;font-family:'NSimSun';" transform="matrix(&st16;  1336.54  468.35 )" ewd:textID="9">FOG FR<tspan x="0 " dy="6.0">继电器</tspan></text><text style="font-size:6px;font-family:'NSimSun';" transform="matrix(&st16;  1294.1  494.4 )">3</text><text style="font-size:6px;font-family:'NSimSun';" transform="matrix(&st16;  1319.59  494.4 )">1</text><text style="font-size:6px;font-family:'NSimSun';" transform="matrix(&st16;  1294.1  448.52 )">5</text><text style="font-size:6px;font-family:'NSimSun';" transform="matrix(&st16;  1319.59  448.52 )">2</text><text style="font-size:6px;font-family:'NSimSun';" transform="matrix(&st16;  1298.48  509.42 )">4</text><text style="font-size:6px;font-family:'NSimSun';" transform="matrix(&st16;  1323.98  509.42 )">4</text><text style="font-size:6px;font-family:'NSimSun';" transform="matrix(&st16;  1298.48  432.93 )">4</text><text style="font-size:6px;font-family:'NSimSun';" transform="matrix(&st16;  1323.98  432.93 )">4</text><path style="stroke-width: 1.42 ;&st7;  " d=" M  1300.28,   479.12  L  1294.62,   456.46  " /><path style="stroke-width: 0.85 ;&st7;  " d=" M  1300.28,   486.20  L  1300.28,   481.95  " /><path style="stroke-width: 0.85 ;&st7;  " d=" M  1300.28,   456.46  L  1300.28,   452.21  " /><path style="stroke-width: 0.85 ;&st7;  " d=" M  1325.78,   452.21  L  1325.78,   460.71  " /><path style="stroke-width: 0.85 ;&st7;  " d=" M  1325.78,   477.71  L  1325.78,   486.20  " /><path style="stroke-width: 0.85 ;&st7;   " d=" M  1301.70,   480.54  C  1301.70    479.76   1301.07    479.12   1300.28    479.12  " /><path style="stroke-width: 0.85 ;&st7;   " d=" M  1300.28,   479.12  C  1299.50    479.12   1298.87    479.76   1298.87    480.54  " /><path style="stroke-width: 0.85 ;&st7;   " d=" M  1298.87,   480.54  C  1298.87    481.32   1299.50    481.95   1300.28    481.95  " /><path style="stroke-width: 0.85 ;&st7;   " d=" M  1300.28,   481.95  C  1301.07    481.95   1301.70    481.32   1301.70    480.54  " /><path style="stroke-width: 0.85 ;&st7;   " d=" M  1301.70,   457.88  C  1301.70    457.09   1301.07    456.46   1300.28    456.46  " /><path style="stroke-width: 0.85 ;&st7;   " d=" M  1300.28,   456.46  C  1299.50    456.46   1298.87    457.09   1298.87    457.88  " /><path style="stroke-width: 0.85 ;&st7;   " d=" M  1298.87,   457.88  C  1298.87    458.66   1299.50    459.29   1300.28    459.29  " /><path style="stroke-width: 0.85 ;&st7;   " d=" M  1300.28,   459.29  C  1301.07    459.29   1301.70    458.66   1301.70    457.88  " /><path style="stroke-width: 0.85 ;&st7;   " d=" M  1323.25,   466.73  C  1324.62    468.13   1326.86    468.15   1328.26    466.78  " /><path style="stroke-width: 0.85 ;&st7;   " d=" M  1328.26,   466.78  C  1329.65    465.41   1329.68    463.17   1328.31    461.77  " /><path style="stroke-width: 0.85 ;&st7;   " d=" M  1328.31,   461.77  C  1327.61    461.06   1326.77    460.71   1325.78    460.71  " /><path style="stroke-width: 0.85 ;&st7;   " d=" M  1323.25,   471.69  C  1324.62    473.08   1326.86    473.11   1328.26    471.74  " /><path style="stroke-width: 0.85 ;&st7;   " d=" M  1328.26,   471.74  C  1329.65    470.37   1329.68    468.13   1328.31    466.73  " /><path style="stroke-width: 0.85 ;&st7;   " d=" M  1328.31,   466.73  C  1326.94    465.33   1324.70    465.31   1323.30    466.68  " /><path style="stroke-width: 0.85 ;&st7;   " d=" M  1323.30,   466.68  C  1323.28    466.69   1323.27    466.71   1323.25    466.73  " /><path style="stroke-width: 0.85 ;&st7;   " d=" M  1325.78,   477.71  C  1327.73    477.71   1329.32    476.12   1329.32    474.16  " /><path style="stroke-width: 0.85 ;&st7;   " d=" M  1329.32,   474.16  C  1329.32    472.21   1327.73    470.62   1325.78    470.62  " /><path style="stroke-width: 0.85 ;&st7;   " d=" M  1325.78,   470.62  C  1324.79    470.62   1323.94    470.98   1323.25    471.69  " /><path style="stroke-width: 1.42 ;&st7;  " d=" M  1334.28,   452.21  L  1291.78,   452.21  L  1291.78,   486.20  L  1334.28,   486.20  L  1334.28,   452.21  " /></g><g ewd:figtype="conn" ewd:figID="3" ewd:code="A23"><path style="stroke-width: 0.85 ;&st7;  " d=" M  1206.80,   303.48  L  1206.80,   307.73  " /><path style="stroke-width: 0.85 ;&st7;  " d=" M  1206.80,   290.74  L  1206.80,   294.99  " /><path style="stroke-width: 1.42 ;&st7;   " d=" M  1215.30,   299.24  C  1215.30    294.54   1211.49    290.74   1206.80    290.74  " /><path style="stroke-width: 1.42 ;&st7;   " d=" M  1206.80,   290.74  C  1202.10    290.74   1198.30    294.54   1198.30    299.24  " /><path style="stroke-width: 1.42 ;&st7;   " d=" M  1198.30,   299.24  C  1198.30    303.93   1202.10    307.73   1206.80    307.73  " /><path style="stroke-width: 1.42 ;&st7;   " d=" M  1206.80,   307.73  C  1211.49    307.73   1215.30    303.93   1215.30    299.24  " /><path style="stroke-width: 0.85 ;&st7;   " d=" M  1204.39,   299.24  C  1205.18    300.57   1206.91    301.02   1208.25    300.23  " /><path style="stroke-width: 0.85 ;&st7;   " d=" M  1208.25,   300.23  C  1209.59    299.44   1210.03    297.71   1209.24    296.37  " /><path style="stroke-width: 0.85 ;&st7;   " d=" M  1209.24,   296.37  C  1208.71    295.48   1207.83    294.98   1206.80    294.99  " /><path style="stroke-width: 0.85 ;&st7;   " d=" M  1206.80,   303.48  C  1208.35    303.49   1209.62    302.24   1209.63    300.69  " /><path style="stroke-width: 0.85 ;&st7;   " d=" M  1209.63,   300.69  C  1209.64    299.13   1208.39    297.86   1206.83    297.85  " /><path style="stroke-width: 0.85 ;&st7;   " d=" M  1206.83,   297.85  C  1205.80    297.85   1204.92    298.35   1204.39    299.24  " /><text style="font-size:6px;font-family:'NSimSun';" transform="matrix(&st16;  1200.61  315.93 )">2</text><text style="font-size:6px;font-family:'NSimSun';" transform="matrix(&st16;  1200.61  287.05 )">1</text><g ewd:figtype="title"><text style="font-size:6px;font-family:'NSimSun';" transform="matrix(&st17;  1230.01  310.64 )" ewd:textID="10">左侧雾灯总成</text><text style="font-size:6px;font-family:'NSimSun';" transform="matrix(&st17;  1222.91  310.63 )">A23</text></g></g><g ewd:figtype="conn" ewd:figID="4" ewd:code="A19"><path style="stroke-width: 0.85 ;&st7;  " d=" M  1155.81,   303.48  L  1155.81,   307.73  " /><path style="stroke-width: 0.85 ;&st7;  " d=" M  1155.81,   290.74  L  1155.81,   294.99  " /><path style="stroke-width: 1.42 ;&st7;   " d=" M  1164.31,   299.24  C  1164.31    294.54   1160.50    290.74   1155.81    290.74  " /><path style="stroke-width: 1.42 ;&st7;   " d=" M  1155.81,   290.74  C  1151.11    290.74   1147.31    294.54   1147.31    299.24  " /><path style="stroke-width: 1.42 ;&st7;   " d=" M  1147.31,   299.24  C  1147.31    303.93   1151.11    307.73   1155.81    307.73  " /><path style="stroke-width: 1.42 ;&st7;   " d=" M  1155.81,   307.73  C  1160.50    307.73   1164.31    303.93   1164.31    299.24  " /><path style="stroke-width: 0.85 ;&st7;   " d=" M  1153.40,   299.24  C  1154.19    300.57   1155.92    301.02   1157.26    300.23  " /><path style="stroke-width: 0.85 ;&st7;   " d=" M  1157.26,   300.23  C  1158.60    299.44   1159.04    297.71   1158.25    296.37  " /><path style="stroke-width: 0.85 ;&st7;   " d=" M  1158.25,   296.37  C  1157.72    295.48   1156.84    294.98   1155.81    294.99  " /><path style="stroke-width: 0.85 ;&st7;   " d=" M  1155.81,   303.48  C  1157.36    303.49   1158.63    302.24   1158.64    300.69  " /><path style="stroke-width: 0.85 ;&st7;   " d=" M  1158.64,   300.69  C  1158.65    299.13   1157.40    297.86   1155.84    297.85  " /><path style="stroke-width: 0.85 ;&st7;   " d=" M  1155.84,   297.85  C  1154.81    297.85   1153.93    298.35   1153.40    299.24  " /><text style="font-size:6px;font-family:'NSimSun';" transform="matrix(&st16;  1149.62  315.93 )">2</text><text style="font-size:6px;font-family:'NSimSun';" transform="matrix(&st16;  1149.62  287.05 )">1</text><g ewd:figtype="title"><text style="font-size:6px;font-family:'NSimSun';" transform="matrix(&st17;  1179.02  310.64 )" ewd:textID="11">右侧雾灯总成</text><text style="font-size:6px;font-family:'NSimSun';" transform="matrix(&st17;  1171.92  310.63 )">A19</text></g></g><g ewd:figtype="conn" ewd:figID="6" ewd:code="A38"><path style="stroke-width: 1.42 ;&st7;  " d=" M  1147.31,   401.22  L  1215.30,   401.22  L  1215.30,   418.22  L  1147.31,   418.22  L  1147.31,   401.22  " /><path style="stroke-width: 0.85 ;&st7;  " d=" M  1205.61,   408.71  L  1205.33,   409.18  L  1205.24,   409.72  L  1205.33,   410.25  L  1205.61,   410.72  L  1206.02,   411.07  L  1206.53,   411.25  L  1207.07,   411.25  L  1207.58,   411.07  L  1207.99,   410.72  L  1208.26,   410.25  L  1208.36,   409.72  L  1208.26,   409.18  L  1207.99,   408.71  L  1207.58,   408.37  L  1207.07,   408.18  L  1206.53,   408.18  L  1206.02,   408.37  L  1205.61,   408.71  L  1206.00,   409.43  L  1206.00,   410.01  L  1206.37,   410.45  L  1206.95,   410.55  L  1207.45,   410.26  L  1207.65,   409.72  L  1207.45,   409.17  L  1206.95,   408.88  L  1206.37,   408.98  L  1206.80,   409.72  " /><path style="stroke-width: 0.85 ;&st7;  " d=" M  1154.61,   408.71  L  1154.34,   409.18  L  1154.25,   409.72  L  1154.34,   410.25  L  1154.61,   410.72  L  1155.03,   411.07  L  1155.53,   411.25  L  1156.08,   411.25  L  1156.59,   411.07  L  1157.00,   410.72  L  1157.27,   410.25  L  1157.36,   409.72  L  1157.27,   409.18  L  1157.00,   408.71  L  1156.59,   408.37  L  1156.08,   408.18  L  1155.53,   408.18  L  1155.03,   408.37  L  1154.61,   408.71  L  1155.01,   409.43  L  1155.01,   410.01  L  1155.38,   410.45  L  1155.95,   410.55  L  1156.46,   410.26  L  1156.66,   409.72  L  1156.46,   409.17  L  1155.95,   408.88  L  1155.38,   408.98  L  1155.81,   409.72  " /><path style="stroke-width: 0.85 ;&st7;  " d=" M  1155.81,   409.72  L  1206.80,   409.72  " /><path style="stroke-width: 0.85 ;&st7;  " d=" M  1206.80,   401.22  L  1206.80,   418.22  " /><path style="stroke-width: 0.85 ;&st7;  " d=" M  1155.81,   401.22  L  1155.81,   418.22  " /><text style="font-size:6px;font-family:'NSimSun';" transform="matrix(&st16;  1149.62  426.41 )">4</text><text style="font-size:6px;font-family:'NSimSun';" transform="matrix(&st16;  1149.62  397.53 )">3</text><text style="font-size:6px;font-family:'NSimSun';" transform="matrix(&st16;  1200.61  426.41 )">1</text><text style="font-size:6px;font-family:'NSimSun';" transform="matrix(&st16;  1200.61  397.53 )">2</text><g ewd:figtype="title"><text style="font-size:6px;font-family:'NSimSun';" transform="matrix(&st17;  1230.01  421.12 )" ewd:textID="19">2 号接线连接器<tspan x="0 " dy="6.0" /></text><text style="font-size:6px;font-family:'NSimSun';" transform="matrix(&st17;  1223.19  421.11 )">A38</text></g></g><g ewd:figtype="rb" ewd:figID="10" ewd:code="FUSE36"><path style="stroke-width: 1.42 ;&st7;  " d=" M  1378.89,   171.76  L  1374.65,   171.76  " /><path style="stroke-width: 0.85 ;&st7;  " d=" M  1376.77,   154.76  L  1376.77,   171.76  " /><path style="stroke-width: 0.28 ;&st9;  " d=" M  1376.77,   166.86  L  1373.94,   164.03  L  1373.94,   168.28  L  1376.77,   171.11  L  1379.60,   168.28  L  1379.60,   164.03  L  1376.77,   166.86  " /><text style="font-size:6px;font-family:'NSimSun';" transform="matrix(&st16;  1393.19  132.66 )">120A <tspan x="0 " dy="6.0">ALT</tspan></text><text style="font-size:6px;font-family:'NSimSun';" transform="matrix(&st16;  1370.59  162.95 )">2</text><text style="font-size:6px;font-family:'NSimSun';" transform="matrix(&st16;  1368.73  108.57 )">(BAT)</text><path style="stroke-width: 0.85 ;&st7;  " d=" M  1376.77,   146.26  L  1376.77,   154.76  " /><path style="stroke-width: 1.42 ;&st7;   " d=" M  1376.77,   123.60  C  1374.03    125.21   1373.12    128.74   1374.73    131.48  " /><path style="stroke-width: 1.42 ;&st7;   " d=" M  1374.73,   131.48  C  1375.25    132.36   1375.89    132.99   1376.77    133.51  " /><path style="stroke-width: 1.42 ;&st7;   " d=" M  1376.77,   143.43  C  1379.51    141.81   1380.42    138.29   1378.81    135.55  " /><path style="stroke-width: 1.42 ;&st7;   " d=" M  1378.81,   135.55  C  1378.29    134.67   1377.65    134.03   1376.77    133.51  " /><path style="stroke-width: 0.85 ;&st7;   " d=" M  1378.19,   122.18  C  1378.19    121.40   1377.55    120.77   1376.77    120.77  " /><path style="stroke-width: 0.85 ;&st7;   " d=" M  1376.77,   120.77  C  1375.99    120.77   1375.35    121.40   1375.35    122.18  " /><path style="stroke-width: 0.85 ;&st7;   " d=" M  1375.35,   122.18  C  1375.35    122.96   1375.99    123.60   1376.77    123.60  " /><path style="stroke-width: 0.85 ;&st7;   " d=" M  1376.77,   123.60  C  1377.55    123.60   1378.19    122.96   1378.19    122.18  " /><path style="stroke-width: 0.85 ;&st7;   " d=" M  1378.19,   144.84  C  1378.19    144.06   1377.55    143.43   1376.77    143.43  " /><path style="stroke-width: 0.85 ;&st7;   " d=" M  1376.77,   143.43  C  1375.99    143.43   1375.35    144.06   1375.35    144.84  " /><path style="stroke-width: 0.85 ;&st7;   " d=" M  1375.35,   144.84  C  1375.35    145.63   1375.99    146.26   1376.77    146.26  " /><path style="stroke-width: 0.85 ;&st7;   " d=" M  1376.77,   146.26  C  1377.55    146.26   1378.19    145.63   1378.19    144.84  " /><path style="stroke-width: 1.42 ;&st7;  " d=" M  1364.02,   112.27  L  1364.02,   154.76  L  1389.52,   154.76  L  1389.52,   112.27  L  1364.02,   112.27  " /></g><g ewd:figtype="jb" ewd:figID="14" ewd:code="3"><path style="stroke-width: 1.42 ;&st7;  " d=" M  1259.91,   112.27  L  1255.67,   112.27  " /><path style="stroke-width: 1.42 ;&st7;  " d=" M  1259.91,   120.77  L  1255.67,   120.77  " /><path style="stroke-width: 1.42 ;&st7;   " d=" M  1255.67,   112.27  C  1253.32    112.27   1251.42    114.17   1251.42    116.52  " /><path style="stroke-width: 1.42 ;&st7;   " d=" M  1251.42,   116.52  C  1251.42    118.86   1253.32    120.77   1255.67    120.77  " /><path style="stroke-width: 1.42 ;&st7;   " d=" M  1259.91,   120.77  C  1262.26    120.77   1264.16    118.86   1264.16    116.52  " /><path style="stroke-width: 1.42 ;&st7;   " d=" M  1264.16,   116.52  C  1264.16    114.17   1262.26    112.27   1259.91    112.27  " /><path style="stroke-width: 0.28 ;&st9;  " d=" M  1257.79,   107.37  L  1254.96,   104.54  L  1254.96,   108.79  L  1257.79,   111.62  L  1260.62,   108.79  L  1260.62,   104.54  L  1257.79,   107.37  " /><path style="stroke-width: 0.85 ;&st7;  " d=" M  1257.79,   112.27  L  1257.79,    86.77  " /><text style="font-size:6px;font-family:'NSimSun';" transform="matrix(&st16;  1253.82  118.49 )">3C</text><text style="font-size:6px;font-family:'NSimSun';" transform="matrix(&st16;  1244.18  118.49 )">43</text><text style="font-size:6px;font-family:'NSimSun';" transform="matrix(&st16;  1248.5  94.96 )">13</text></g><g ewd:figtype="jb" ewd:figID="15" ewd:code="1"><path style="stroke-width: 1.42 ;&st7;  " d=" M  1378.89,   171.76  L  1374.65,   171.76  " /><path style="stroke-width: 1.42 ;&st7;  " d=" M  1378.89,   180.26  L  1374.65,   180.26  " /><path style="stroke-width: 1.42 ;&st7;   " d=" M  1374.65,   171.76  C  1372.30    171.76   1370.40    173.66   1370.40    176.01  " /><path style="stroke-width: 1.42 ;&st7;   " d=" M  1370.40,   176.01  C  1370.40    178.35   1372.30    180.26   1374.65    180.26  " /><path style="stroke-width: 1.42 ;&st7;   " d=" M  1378.89,   180.26  C  1381.24    180.26   1383.14    178.35   1383.14    176.01  " /><path style="stroke-width: 1.42 ;&st7;   " d=" M  1383.14,   176.01  C  1383.14    173.66   1381.24    171.76   1378.89    171.76  " /><text style="font-size:6px;font-family:'NSimSun';" transform="matrix(&st16;  1373.11  177.98 )">1E</text><text style="font-size:6px;font-family:'NSimSun';" transform="matrix(&st16;  1366.26  177.98 )">1</text></g><g ewd:figtype="jb" ewd:figID="17" ewd:code="3"><path style="stroke-width: 1.42 ;&st7;  " d=" M  1302.41,   188.75  L  1298.16,   188.75  " /><path style="stroke-width: 1.42 ;&st7;  " d=" M  1302.41,   180.26  L  1298.16,   180.26  " /><path style="stroke-width: 1.42 ;&st7;   " d=" M  1300.28,   123.60  C  1297.54    125.21   1296.63    128.74   1298.25    131.48  " /><path style="stroke-width: 1.42 ;&st7;   " d=" M  1298.25,   131.48  C  1298.77    132.36   1299.40    132.99   1300.28    133.51  " /><path style="stroke-width: 1.42 ;&st7;   " d=" M  1300.28,   143.43  C  1303.02    141.81   1303.93    138.29   1302.32    135.55  " /><path style="stroke-width: 1.42 ;&st7;   " d=" M  1302.32,   135.55  C  1301.80    134.67   1301.16    134.03   1300.28    133.51  " /><path style="stroke-width: 0.85 ;&st7;   " d=" M  1301.70,   122.18  C  1301.70    121.40   1301.07    120.77   1300.28    120.77  " /><path style="stroke-width: 0.85 ;&st7;   " d=" M  1300.28,   120.77  C  1299.50    120.77   1298.87    121.40   1298.87    122.18  " /><path style="stroke-width: 0.85 ;&st7;   " d=" M  1298.87,   122.18  C  1298.87    122.96   1299.50    123.60   1300.28    123.60  " /><path style="stroke-width: 0.85 ;&st7;   " d=" M  1300.28,   123.60  C  1301.07    123.60   1301.70    122.96   1301.70    122.18  " /><path style="stroke-width: 0.85 ;&st7;   " d=" M  1301.70,   144.84  C  1301.70    144.06   1301.07    143.43   1300.28    143.43  " /><path style="stroke-width: 0.85 ;&st7;   " d=" M  1300.28,   143.43  C  1299.50    143.43   1298.87    144.06   1298.87    144.84  " /><path style="stroke-width: 0.85 ;&st7;   " d=" M  1298.87,   144.84  C  1298.87    145.63   1299.50    146.26   1300.28    146.26  " /><path style="stroke-width: 0.85 ;&st7;   " d=" M  1300.28,   146.26  C  1301.07    146.26   1301.70    145.63   1301.70    144.84  " /><path style="stroke-width: 1.42 ;&st7;   " d=" M  1302.41,   188.75  C  1304.75    188.75   1306.66    186.85   1306.66    184.50  " /><path style="stroke-width: 1.42 ;&st7;   " d=" M  1306.66,   184.50  C  1306.66    182.16   1304.75    180.26   1302.41    180.26  " /><path style="stroke-width: 1.42 ;&st7;   " d=" M  1293.91,   184.50  C  1293.91    186.85   1295.81    188.75   1298.16    188.75  " /><path style="stroke-width: 1.42 ;&st7;   " d=" M  1298.16,   180.26  C  1295.81    180.26   1293.91    182.16   1293.91    184.50  " /><path style="stroke-width: 0.85 ;&st7;  " d=" M  1300.28,   146.26  L  1300.28,   154.76  " /><path style="stroke-width: 0.85 ;&st7;  " d=" M  1300.28,   154.76  L  1300.28,   180.26  " /><path style="stroke-width: 1.42 ;&st7;  " d=" M  1287.53,   112.27  L  1287.53,   154.76  L  1313.03,   154.76  L  1313.03,   112.27  L  1287.53,   112.27  " /><path style="stroke-width: 0.28 ;&st9;  " d=" M  1300.28,   175.36  L  1297.45,   172.53  L  1297.45,   176.78  L  1300.28,   179.61  L  1303.12,   176.78  L  1303.12,   172.53  L  1300.28,   175.36  " /><text style="font-size:6px;font-family:'NSimSun';" transform="matrix(&st16;  1316.71  132.66 )">7.5A <tspan x="0 " dy="6.0">FR FOG</tspan></text><text style="font-size:6px;font-family:'NSimSun';" transform="matrix(&st16;  1292.24  108.57 )">(BAT)</text><text style="font-size:6px;font-family:'NSimSun';" transform="matrix(&st16;  1296.35  186.47 )">3D</text><text style="font-size:6px;font-family:'NSimSun';" transform="matrix(&st16;  1294.1  162.95 )">2</text><text style="font-size:6px;font-family:'NSimSun';" transform="matrix(&st16;  1286.67  186.47 )">10</text></g><g ewd:figtype="jb" ewd:figID="18" ewd:code="3"><path style="stroke-width: 1.42 ;&st7;  " d=" M  1351.27,   283.65  L  1345.61,   260.99  " /><path style="stroke-width: 0.85 ;&st7;  " d=" M  1351.27,   290.74  L  1351.27,   286.49  " /><path style="stroke-width: 0.85 ;&st7;  " d=" M  1351.27,   260.99  L  1351.27,   256.74  " /><path style="stroke-width: 0.85 ;&st7;  " d=" M  1376.77,   256.74  L  1376.77,   265.24  " /><path style="stroke-width: 0.85 ;&st7;  " d=" M  1376.77,   282.24  L  1376.77,   290.74  " /><path style="stroke-width: 0.85 ;&st7;  " d=" M  1351.27,   341.73  L  1351.27,   350.23  " /><path style="stroke-width: 1.42 ;&st7;  " d=" M  1353.40,   384.22  L  1349.15,   384.22  " /><path style="stroke-width: 1.42 ;&st7;  " d=" M  1353.40,   392.72  L  1349.15,   392.72  " /><path style="stroke-width: 1.42 ;&st7;  " d=" M  1378.89,   222.75  L  1374.65,   222.75  " /><path style="stroke-width: 1.42 ;&st7;  " d=" M  1378.89,   214.25  L  1374.65,   214.25  " /><path style="stroke-width: 0.85 ;&st7;   " d=" M  1352.69,   285.07  C  1352.69    284.29   1352.06    283.65   1351.27    283.65  " /><path style="stroke-width: 0.85 ;&st7;   " d=" M  1351.27,   283.65  C  1350.49    283.65   1349.86    284.29   1349.86    285.07  " /><path style="stroke-width: 0.85 ;&st7;   " d=" M  1349.86,   285.07  C  1349.86    285.85   1350.49    286.49   1351.27    286.49  " /><path style="stroke-width: 0.85 ;&st7;   " d=" M  1351.27,   286.49  C  1352.06    286.49   1352.69    285.85   1352.69    285.07  " /><path style="stroke-width: 0.85 ;&st7;   " d=" M  1352.69,   262.41  C  1352.69    261.63   1352.06    260.99   1351.27    260.99  " /><path style="stroke-width: 0.85 ;&st7;   " d=" M  1351.27,   260.99  C  1350.49    260.99   1349.86    261.63   1349.86    262.41  " /><path style="stroke-width: 0.85 ;&st7;   " d=" M  1349.86,   262.41  C  1349.86    263.19   1350.49    263.82   1351.27    263.82  " /><path style="stroke-width: 0.85 ;&st7;   " d=" M  1351.27,   263.82  C  1352.06    263.82   1352.69    263.19   1352.69    262.41  " /><path style="stroke-width: 0.85 ;&st7;   " d=" M  1374.24,   271.26  C  1375.61    272.66   1377.85    272.68   1379.25    271.31  " /><path style="stroke-width: 0.85 ;&st7;   " d=" M  1379.25,   271.31  C  1380.65    269.94   1380.67    267.70   1379.30    266.30  " /><path style="stroke-width: 0.85 ;&st7;   " d=" M  1379.30,   266.30  C  1378.61    265.60   1377.76    265.24   1376.77    265.24  " /><path style="stroke-width: 0.85 ;&st7;   " d=" M  1374.24,   276.22  C  1375.61    277.62   1377.85    277.64   1379.25    276.27  " /><path style="stroke-width: 0.85 ;&st7;   " d=" M  1379.25,   276.27  C  1380.65    274.90   1380.67    272.66   1379.30    271.26  " /><path style="stroke-width: 0.85 ;&st7;   " d=" M  1379.30,   271.26  C  1377.93    269.86   1375.69    269.84   1374.29    271.21  " /><path style="stroke-width: 0.85 ;&st7;   " d=" M  1374.29,   271.21  C  1374.27    271.23   1374.26    271.24   1374.24    271.26  " /><path style="stroke-width: 0.85 ;&st7;   " d=" M  1376.77,   282.24  C  1378.73    282.24   1380.31    280.65   1380.31    278.70  " /><path style="stroke-width: 0.85 ;&st7;   " d=" M  1380.31,   278.70  C  1380.31    276.74   1378.73    275.16   1376.77    275.16  " /><path style="stroke-width: 0.85 ;&st7;   " d=" M  1376.77,   275.16  C  1375.78    275.16   1374.93    275.51   1374.24    276.22  " /><path style="stroke-width: 1.42 ;&st7;   " d=" M  1351.27,   319.07  C  1348.54    320.68   1347.62    324.21   1349.24    326.94  " /><path style="stroke-width: 1.42 ;&st7;   " d=" M  1349.24,   326.94  C  1349.76    327.83   1350.39    328.46   1351.27    328.98  " /><path style="stroke-width: 1.42 ;&st7;   " d=" M  1351.27,   338.90  C  1354.01    337.28   1354.92    333.76   1353.31    331.02  " /><path style="stroke-width: 1.42 ;&st7;   " d=" M  1353.31,   331.02  C  1352.79    330.14   1352.16    329.50   1351.27    328.98  " /><path style="stroke-width: 0.85 ;&st7;   " d=" M  1352.69,   317.65  C  1352.69    316.87   1352.06    316.23   1351.27    316.23  " /><path style="stroke-width: 0.85 ;&st7;   " d=" M  1351.27,   316.23  C  1350.49    316.23   1349.86    316.87   1349.86    317.65  " /><path style="stroke-width: 0.85 ;&st7;   " d=" M  1349.86,   317.65  C  1349.86    318.43   1350.49    319.07   1351.27    319.07  " /><path style="stroke-width: 0.85 ;&st7;   " d=" M  1351.27,   319.07  C  1352.06    319.07   1352.69    318.43   1352.69    317.65  " /><path style="stroke-width: 0.85 ;&st7;   " d=" M  1352.69,   340.31  C  1352.69    339.53   1352.06    338.90   1351.27    338.90  " /><path style="stroke-width: 0.85 ;&st7;   " d=" M  1351.27,   338.90  C  1350.49    338.90   1349.86    339.53   1349.86    340.31  " /><path style="stroke-width: 0.85 ;&st7;   " d=" M  1349.86,   340.31  C  1349.86    341.09   1350.49    341.73   1351.27    341.73  " /><path style="stroke-width: 0.85 ;&st7;   " d=" M  1351.27,   341.73  C  1352.06    341.73   1352.69    341.09   1352.69    340.31  " /><path style="stroke-width: 1.42 ;&st7;   " d=" M  1349.15,   384.22  C  1346.80    384.22   1344.90    386.12   1344.90    388.47  " /><path style="stroke-width: 1.42 ;&st7;   " d=" M  1344.90,   388.47  C  1344.90    390.82   1346.80    392.72   1349.15    392.72  " /><path style="stroke-width: 1.42 ;&st7;   " d=" M  1353.40,   392.72  C  1355.75    392.72   1357.65    390.82   1357.65    388.47  " /><path style="stroke-width: 1.42 ;&st7;   " d=" M  1357.65,   388.47  C  1357.65    386.12   1355.75    384.22   1353.40    384.22  " /><path style="stroke-width: 1.42 ;&st7;   " d=" M  1374.65,   214.25  C  1372.30    214.25   1370.40    216.15   1370.40    218.50  " /><path style="stroke-width: 1.42 ;&st7;   " d=" M  1370.40,   218.50  C  1370.40    220.85   1372.30    222.75   1374.65    222.75  " /><path style="stroke-width: 1.42 ;&st7;   " d=" M  1378.89,   222.75  C  1381.24    222.75   1383.14    220.85   1383.14    218.50  " /><path style="stroke-width: 1.42 ;&st7;   " d=" M  1383.14,   218.50  C  1383.14    216.15   1381.24    214.25   1378.89    214.25  " /><path style="stroke-width: 1.13 ;&st7; stroke-dasharray:3, 3;" d=" M  1385.27,   256.74  L  1342.78,   256.74  L  1342.78,   290.74  L  1385.27,   290.74  L  1385.27,   256.74  " /><path style="stroke-width: 0.85 ;&st7;  " d=" M  1376.77,   290.74  L  1376.77,   307.73  L  1444.76,   307.73  L  1444.76,    86.77  " /><path style="stroke-width: 0.85 ;&st7;  " d=" M  1376.77,   222.75  L  1376.77,   256.74  " /><path style="stroke-width: 0.85 ;&st7;  " d=" M  1351.27,   256.74  L  1351.27,   239.75  L  1376.77,   239.75  " /><path style="stroke-width: 0.85 ;&st7;  " d=" M  1376.77,   239.75  L  1402.27,   239.75  L  1402.27,   265.24  L  1405.10,   266.66  L  1399.43,   269.49  L  1405.10,   272.32  L  1399.43,   275.16  L  1405.10,   277.99  L  1399.43,   280.82  L  1402.27,   282.24  L  1402.27,   307.73  " /><path style="stroke-width: 0.85 ;&st7;  " d=" M  1375.58,   238.74  L  1375.30,   239.21  L  1375.21,   239.75  L  1375.30,   240.28  L  1375.58,   240.75  L  1375.99,   241.09  L  1376.50,   241.28  L  1377.04,   241.28  L  1377.55,   241.09  L  1377.96,   240.75  L  1378.23,   240.28  L  1378.33,   239.75  L  1378.23,   239.21  L  1377.96,   238.74  L  1377.55,   238.40  L  1377.04,   238.21  L  1376.50,   238.21  L  1375.99,   238.40  L  1375.58,   238.74  L  1375.97,   239.45  L  1375.97,   240.04  L  1376.34,   240.48  L  1376.92,   240.58  L  1377.42,   240.29  L  1377.62,   239.75  L  1377.42,   239.20  L  1376.92,   238.91  L  1376.34,   239.01  L  1376.77,   239.75  " /><path style="stroke-width: 0.85 ;&st7;  " d=" M  1401.07,   306.73  L  1400.80,   307.20  L  1400.71,   307.73  L  1400.80,   308.27  L  1401.07,   308.74  L  1401.49,   309.08  L  1401.99,   309.27  L  1402.54,   309.27  L  1403.04,   309.08  L  1403.46,   308.74  L  1403.73,   308.27  L  1403.82,   307.73  L  1403.73,   307.20  L  1403.46,   306.73  L  1403.04,   306.39  L  1402.54,   306.20  L  1401.99,   306.20  L  1401.49,   306.39  L  1401.07,   306.73  L  1401.47,   307.44  L  1401.47,   308.03  L  1401.84,   308.47  L  1402.41,   308.57  L  1402.92,   308.28  L  1403.11,   307.73  L  1402.92,   307.19  L  1402.41,   306.90  L  1401.84,   307.00  L  1402.27,   307.73  " /><path style="stroke-width: 0.85 ;&st7;  " d=" M  1351.27,   290.74  L  1351.27,   307.73  " /><path style="stroke-width: 0.85 ;&st7;  " d=" M  1351.27,   307.73  L  1351.27,   316.23  " /><path style="stroke-width: 1.42 ;&st7;  " d=" M  1338.53,   307.73  L  1338.53,   350.23  L  1364.02,   350.23  L  1364.02,   307.73  L  1338.53,   307.73  " /><path style="stroke-width: 0.28 ;&st9;  " d=" M  1351.27,   379.33  L  1348.44,   376.49  L  1348.44,   380.74  L  1351.27,   383.58  L  1354.11,   380.74  L  1354.11,   376.49  L  1351.27,   379.33  " /><path style="stroke-width: 0.85 ;&st7;  " d=" M  1351.27,   350.23  L  1351.27,   384.22  " /><path style="stroke-width: 0.28 ;&st9;  " d=" M  1376.77,   227.64  L  1379.60,   230.48  L  1379.60,   226.23  L  1376.77,   223.39  L  1373.94,   226.23  L  1373.94,   230.48  L  1376.77,   227.64  " /><text style="font-size:6px;font-family:'NSimSun';" transform="matrix(&st16;  1435.47  94.96 )">14</text><text style="font-size:6px;font-family:'NSimSun';" transform="matrix(&st16;  1367.7  328.12 )">10A <tspan x="0 " dy="6.0">TAIL</tspan></text><text style="font-size:6px;font-family:'NSimSun';" transform="matrix(&st16; 1322.14 272.88)" ewd:textID="23">TAIL<tspan x="0 " dy="6.0">继电器</tspan></text><text style="font-size:6px;font-family:'NSimSun';" transform="matrix(&st16;  1347.34  390.44 )">3D</text><text style="font-size:6px;font-family:'NSimSun';" transform="matrix(&st16;  1337.67  390.44 )">47</text><text style="font-size:6px;font-family:'NSimSun';" transform="matrix(&st16;  1373.03  220.47 )">3B</text><text style="font-size:6px;font-family:'NSimSun';" transform="matrix(&st16;  1366.26  220.47 )">1</text><text style="font-size:6px;font-family:'NSimSun';" transform="matrix(&st16;  1345.09  358.42 )">2</text><text style="font-size:6px;font-family:'NSimSun';" transform="matrix(&st16;  1345.09  304.04 )">1</text><path style="stroke-width: 1.42 ;&st7;  " d=" M  1480.88,   129.26  L  1476.63,   129.26  " /><path style="stroke-width: 1.42 ;&st7;  " d=" M  1480.88,   120.77  L  1476.63,   120.77  " /><path style="stroke-width: 1.42 ;&st7;  " d=" M  1523.37,   129.26  L  1519.12,   129.26  " /><path style="stroke-width: 1.42 ;&st7;  " d=" M  1523.37,   120.77  L  1519.12,   120.77  " /><path style="stroke-width: 1.42 ;&st7;   " d=" M  1485.13,   125.01  C  1485.13    122.67   1483.22    120.77   1480.88    120.77  " /><path style="stroke-width: 1.42 ;&st7;   " d=" M  1480.88,   129.26  C  1483.22    129.26   1485.13    127.36   1485.13    125.01  " /><path style="stroke-width: 1.42 ;&st7;   " d=" M  1472.38,   125.01  C  1472.38    127.36   1474.28    129.26   1476.63    129.26  " /><path style="stroke-width: 1.42 ;&st7;   " d=" M  1476.63,   120.77  C  1474.28    120.77   1472.38    122.67   1472.38    125.01  " /><path style="stroke-width: 1.42 ;&st7;   " d=" M  1519.12,   120.77  C  1516.77    120.77   1514.87    122.67   1514.87    125.01  " /><path style="stroke-width: 1.42 ;&st7;   " d=" M  1514.87,   125.01  C  1514.87    127.36   1516.77    129.26   1519.12    129.26  " /><path style="stroke-width: 1.42 ;&st7;   " d=" M  1523.37,   129.26  C  1525.72    129.26   1527.62    127.36   1527.62    125.01  " /><path style="stroke-width: 1.42 ;&st7;   " d=" M  1527.62,   125.01  C  1527.62    122.67   1525.72    120.77   1523.37    120.77  " /><path style="stroke-width: 0.85 ;&st7;  " d=" M  1478.75,    86.77  L  1478.75,   120.77  " /><path style="stroke-width: 0.28 ;&st9;  " d=" M  1478.75,   115.87  L  1475.92,   113.04  L  1475.92,   117.29  L  1478.75,   120.12  L  1481.59,   117.29  L  1481.59,   113.04  L  1478.75,   115.87  " /><path style="stroke-width: 0.28 ;&st9;  " d=" M  1521.25,   115.87  L  1518.41,   113.04  L  1518.41,   117.29  L  1521.25,   120.12  L  1524.08,   117.29  L  1524.08,   113.04  L  1521.25,   115.87  " /><path style="stroke-width: 0.85 ;&st7;  " d=" M  1521.25,   120.77  L  1521.25,   103.77  L  1478.75,   103.77  " /><path style="stroke-width: 0.85 ;&st7;  " d=" M  1477.56,   102.77  L  1477.29,   103.24  L  1477.19,   103.77  L  1477.29,   104.30  L  1477.56,   104.77  L  1477.97,   105.12  L  1478.48,   105.30  L  1479.02,   105.30  L  1479.53,   105.12  L  1479.94,   104.77  L  1480.22,   104.30  L  1480.31,   103.77  L  1480.22,   103.24  L  1479.94,   102.77  L  1479.53,   102.42  L  1479.02,   102.23  L  1478.48,   102.23  L  1477.97,   102.42  L  1477.56,   102.77  L  1477.95,   103.48  L  1477.95,   104.06  L  1478.33,   104.50  L  1478.90,   104.60  L  1479.40,   104.31  L  1479.60,   103.77  L  1479.40,   103.22  L  1478.90,   102.93  L  1478.33,   103.03  L  1478.75,   103.77  " /><text style="font-size:6px;font-family:'NSimSun';" transform="matrix(&st16;  1469.47  94.96 )">11</text><text style="font-size:6px;font-family:'NSimSun';" transform="matrix(&st16;  1465.14  126.98 )">12</text><text style="font-size:6px;font-family:'NSimSun';" transform="matrix(&st16;  1474.82  126.98 )">3D</text><text style="font-size:6px;font-family:'NSimSun';" transform="matrix(&st16;  1510.74  126.98 )">9</text><text style="font-size:6px;font-family:'NSimSun';" transform="matrix(&st16;  1517.27  126.98 )">3C</text></g><g ewd:figtype="w2w" ewd:figID="19" ewd:code="AE4"><path style="stroke-width: 1.42 ;&st7;  " d=" M  1160.06,   486.77  L  1155.81,   482.52  L  1151.56,   486.77  " /><path style="stroke-width: 1.42 ;&st7;  " d=" M  1160.06,   483.37  L  1155.81,   479.12  L  1151.56,   483.37  " /><text style="font-size:6px;font-family:'NSimSun';" transform="matrix(&st16;  1140.07  475.43 )">11</text></g><g ewd:figtype="w2w" ewd:figID="20" ewd:code="AE4"><path style="stroke-width: 1.42 ;&st7;  " d=" M  1211.05,   486.77  L  1206.80,   482.52  L  1202.55,   486.77  " /><path style="stroke-width: 1.42 ;&st7;  " d=" M  1211.05,   483.37  L  1206.80,   479.12  L  1202.55,   483.37  " /><text style="font-size:6px;font-family:'NSimSun';" transform="matrix(&st16;  1194.17  475.43 )">1</text></g><g ewd:figtype="gp" ewd:figID="23" ewd:code="AA"><path style="stroke-width: 0.85 ;&st7;  " d=" M  1075.07,   704.33  L  1083.57,   704.33  " /><path style="stroke-width: 0.85 ;&st7;  " d=" M  1077.90,   710.00  L  1080.74,   710.00  " /><path style="stroke-width: 0.85 ;&st7;  " d=" M  1076.49,   707.17  L  1082.15,   707.17  " /><path style="stroke-width: 0.85 ;&st7;  " d=" M  1070.82,   701.50  L  1087.82,   701.50  " /><path style="stroke-width: 0.85 ;&st7;  " d=" M  1079.32,   697.25  L  1079.32,   701.50  " /></g><g ewd:figtype="gp" ewd:figID="24" ewd:code="AC"><path style="stroke-width: 0.85 ;&st7;  " d=" M  1113.31,   697.25  L  1113.31,   701.50  " /><path style="stroke-width: 0.85 ;&st7;  " d=" M  1104.81,   701.50  L  1121.81,   701.50  " /><path style="stroke-width: 0.85 ;&st7;  " d=" M  1109.06,   704.33  L  1117.56,   704.33  " /><path style="stroke-width: 0.85 ;&st7;  " d=" M  1110.48,   707.17  L  1116.15,   707.17  " /><path style="stroke-width: 0.85 ;&st7;  " d=" M  1111.90,   710.00  L  1114.73,   710.00  " /></g><g ewd:figtype="gp" ewd:figID="25" ewd:code="EB"><path style="stroke-width: 0.85 ;&st7;  " d=" M  1478.75,   697.25  L  1478.75,   701.50  " /><path style="stroke-width: 0.85 ;&st7;  " d=" M  1470.25,   701.50  L  1487.25,   701.50  " /><path style="stroke-width: 0.85 ;&st7;  " d=" M  1474.50,   704.33  L  1483.00,   704.33  " /><path style="stroke-width: 0.85 ;&st7;  " d=" M  1475.92,   707.17  L  1481.59,   707.17  " /><path style="stroke-width: 0.85 ;&st7;  " d=" M  1477.34,   710.00  L  1480.17,   710.00  " /></g><g ewd:code="5" ewd:figID="37" ewd:comment="" ewd:figtype="comment"><text style="font-size:6px;font-family:'NSimSun';" transform="matrix(&st16;  1245.89  649.65 )" ewd:textID="5">* 5 : 不带车灯自动熄灭系统</text></g><g ewd:code="4" ewd:figID="39" ewd:comment="" ewd:figtype="comment"><text style="font-size:6px;font-family:'NSimSun';" transform="matrix(&st16;  1245.89  641.15 )" ewd:textID="4">* 4 : 带车灯自动熄灭系统</text></g></svg>