<?xml version="1.0" encoding="utf-8"?>
<!DOCTYPE svg PUBLIC "-//W3C//DTD SVG 1.0//EN" "http://www.w3.org/TR/2001/REC-SVG-20010904/DTD/svg10.dtd"[
	<!ENTITY ns_flows "http://ns.adobe.com/Flows/1.0/">
	<!ENTITY ns_svg "http://www.w3.org/2000/svg">
	<!ENTITY ns_xlink "http://www.w3.org/1999/xlink">
	<!ENTITY st0 "font-size:7px;font-family:'NSimSun';adobe-font-script:japanese;">
	<!ENTITY st1 "font-size:6px;font-family:'NSimSun';">
	<!-- White fill  -->
	<!ENTITY st2 "fill:#FFFFFF;stroke:#000000; stroke-width:1.41;stroke-linecap:round;stroke-linejoin:round;">
	<!-- Yellow fill  -->
	<!ENTITY st3 "fill:#FFFFCC;stroke:#FFFFCC; stroke-width:0.1;stroke-linecap:round;stroke-linejoin:round;">
	<!-- Gray fill  -->
	<!ENTITY st4 "fill:#CCCCCC;stroke:#CCCCCC; stroke-width:0.1;stroke-linecap:round;stroke-linejoin:round;">
	<!-- Light-blue fill -->
	<!ENTITY st5 "fill:#CCECF4;stroke:#000000; stroke-width:1.133;stroke-linecap:round;stroke-linejoin:round;">
	<!ENTITY st6 "fill:none;stroke-linecap:butt; stroke-linejoin:round;">
	<!ENTITY st7 "fill:none;stroke:#000000;stroke-linecap:round;stroke-linejoin:round;">
	<!ENTITY st8 "enable-background:new    ;">
	<!-- Black fill -->
	<!ENTITY st9 "fill:#000000;stroke:#000000; stroke-linecap:round;stroke-linejoin:round;">
	<!-- SRS note   -->
	<!ENTITY st10 "font-size:9px;font-family:'NSimSun';">
	<!ENTITY st11 "font-size:9px;font-family:'NSimSun';">
	<!ENTITY st12 "font-size:6px;font-family:'NSimSun';">
	<!ENTITY st13 "fill:none;stroke:#ff0000;stroke-linecap:round;stroke-linejoin:round;">
	<!-- Yellow fill  -->
	<!ENTITY st14 "fill:#FFFF00;stroke:#FFFF00; stroke-width:0.1;stroke-linecap:round;stroke-linejoin:round;">
	<!ENTITY st15 "font-size:6px;font-family:'NSimSun';adobe-font-script:japanese;">
	<!ENTITY st16 "1.00 0.00 0.00 1.00">
	<!ENTITY st17 "0.00 -1.00 1.00 0.00">
	<!ENTITY st18 "font-size:6px;font-family:'NSimSun';">
	<!ENTITY st19 "font-size:9px;font-family:'NSimSun';">
	<!ENTITY st20 "font-size:6px;font-family:'NSimSun';adobe-font-script:japanese;">
	<!ENTITY st21 "font-size:7px;font-family:'NSimSun';adobe-font-script:japanese;">
	<!ATTLIST svg
		xmlns:ewd CDATA #FIXED "http://shcl.co.jp/ewd"
		xmlns:a CDATA #FIXED "http://ns.adobe.com/AdobeSVGViewerExtensions/3.0/"
		ewd:ver CDATA #IMPLIED
	>
	<!ATTLIST a
		ewd:lineID CDATA #IMPLIED
		ewd:groupID CDATA #IMPLIED
		ewd:figtype CDATA #IMPLIED
		ewd:code CDATA #IMPLIED
		ewd:figID CDATA #IMPLIED
		ewd:pinNo CDATA #IMPLIED
		ewd:comment CDATA #IMPLIED >
	<!ATTLIST g
		ewd:lineID CDATA #IMPLIED
		ewd:groupID CDATA #IMPLIED
		ewd:figtype CDATA #IMPLIED
		ewd:code CDATA #IMPLIED
		ewd:figID CDATA #IMPLIED
		ewd:pinNo CDATA #IMPLIED
		ewd:comment CDATA #IMPLIED >
	<!ATTLIST text
		ewd:textID CDATA #IMPLIED
		ewd:horAlign CDATA #IMPLIED >
	<!ATTLIST title
		ewd:textID CDATA #IMPLIED >
]>
<!-- Generator: Shintec Hozumi YS   -->
<svg onload="call_execInitLoadProc_svg('system')" style="overflow:visible;  enable-background:new 0 0 1536.827 710.000" viewBox="0 0 1540.374 710.000" height="710.000" width="1540.374" xml:space="preserve" ewd:ver="2.1.2.6F" xmlns="&ns_svg;" xmlns:ewd="http://shcl.co.jp/ewd" xmlns:a="http://ns.adobe.com/AdobeSVGViewerExtensions/3.0/" xmlns:xlink="&ns_xlink;">
<text style="font-size:6px;font-family:'NSimSun';" transform="matrix(&st17;  268.26  165.22 )">G</text><text style="font-size:6px;font-family:'NSimSun';" transform="matrix(&st17;  21.8  131.22 )">G</text><text style="font-size:6px;font-family:'NSimSun';" transform="matrix(&st16;  159.4  151.06 )">L</text><text style="font-size:6px;font-family:'NSimSun';" transform="matrix(&st16;  486.46  491.01 )">W-B</text><text style="font-size:6px;font-family:'NSimSun';" transform="matrix(&st17;  438.23  628.14 )">W-B</text><text style="font-size:6px;font-family:'NSimSun';" transform="matrix(&st17;  438.23  509.16 )">W-B</text><path style="stroke-width: 1.42 ;&st7;  " d=" M   314.45,   193.73  L   309.48,   188.75  " /><path style="stroke-width: 1.42 ;&st7;  " d=" M   297.45,   200.78  L   302.42,   205.75  " /><path style="stroke-width: 1.42 ;&st7;  " d=" M   309.48,   205.75  L   314.45,   200.78  " /><path style="stroke-width: 1.42 ;&st7;  " d=" M   302.42,   188.75  L   297.45,   193.73  " /><text style="font-size:6px;font-family:'NSimSun';" transform="matrix(&st17;  336.25  165.72 )">W</text><text style="font-size:6px;font-family:'NSimSun';" transform="matrix(&st17;  347.58  167.97 )">(*1)</text><text style="font-size:6px;font-family:'NSimSun';" transform="matrix(&st17;  302.25  165.72 )">W</text><text style="font-size:6px;font-family:'NSimSun';" transform="matrix(&st17;  313.58  167.97 )">(*2)</text><text style="font-size:6px;font-family:'NSimSun';" transform="matrix(&st17;  302.25  242.21 )">W</text><text style="font-size:6px;font-family:'NSimSun';" transform="matrix(&st17;  313.58  244.46 )">(*2)</text><g ewd:figtype="conn" ewd:figID="1" ewd:code="E36"><path style="stroke-width: 1.42 ;&st7;  " d=" M   178.47,    86.77  L  1529.74,    86.77  L  1529.74,    35.78  L   178.47,    35.78  L   178.47,    86.77  " /><g ewd:lineID="4,5"><text style="font-size:6px;font-family:'NSimSun';" transform="matrix(&st16;  328.15  93.27 )">30</text><path style="stroke-width: 1.42 ;&st7;   " d=" M   344.48,    91.30  C   344.48     88.80    342.45     86.77    339.94     86.77  " /><path style="stroke-width: 1.42 ;&st7;   " d=" M   339.94,    86.77  C   337.44     86.77    335.41     88.80    335.41     91.30  " /><path style="stroke-width: 1.42 ;&st7;   " d=" M   335.41,    91.30  C   335.41     93.81    337.44     95.84    339.94     95.84  " /><path style="stroke-width: 1.42 ;&st7;   " d=" M   339.94,    95.84  C   342.45     95.84    344.48     93.81    344.48     91.30  " /><text style="font-size:6px;font-family:'NSimSun';" transform="matrix(&st16;  337.64  93.27 )">A</text><text style="font-size:6px;font-family:'NSimSun';" transform="matrix(&st16;  332.99  83.07 )">TAIL</text></g><g ewd:figtype="title"><text style="font-size:6px;font-family:'NSimSun';" transform="matrix(&st16;  175.06  32.08 )" ewd:textID="18">主车身 ECU</text><text style="font-size:6px;font-family:'NSimSun';" transform="matrix(&st16;  175.06  24.98 )">E36(A)</text></g><g ewd:lineID="34"><text style="font-size:6px;font-family:'NSimSun';" transform="matrix(&st16;  188.82  83.07 )">ACC</text><text style="font-size:6px;font-family:'NSimSun';" transform="matrix(&st16;  226.11  83.07 )">IG</text><text style="font-size:6px;font-family:'NSimSun';" transform="matrix(&st16;  263.6  83.07 )">BECU</text></g></g><g ewd:figtype="rb" ewd:figID="5" ewd:code="FUSE5"><path style="stroke-width: 1.42 ;&st7;  " d=" M    27.62,    95.27  L    23.37,    95.27  " /><path style="stroke-width: 1.42 ;&st7;  " d=" M    27.62,   103.77  L    23.37,   103.77  " /><path style="stroke-width: 1.42 ;&st7;   " d=" M    23.37,    95.27  C    21.02     95.27     19.12     97.17     19.12     99.52  " /><path style="stroke-width: 1.42 ;&st7;   " d=" M    19.12,    99.52  C    19.12    101.87     21.02    103.77     23.37    103.77  " /><path style="stroke-width: 1.42 ;&st7;   " d=" M    27.62,   103.77  C    29.97    103.77     31.87    101.87     31.87     99.52  " /><path style="stroke-width: 1.42 ;&st7;   " d=" M    31.87,    99.52  C    31.87     97.17     29.97     95.27     27.62     95.27  " /><path style="stroke-width: 0.28 ;&st9;  " d=" M    25.50,    90.37  L    22.66,    87.54  L    22.66,    91.79  L    25.50,    94.62  L    28.33,    91.79  L    28.33,    87.54  L    25.50,    90.37  " /><path style="stroke-width: 0.85 ;&st7;  " d=" M    25.50,    69.77  L    25.50,    95.27  " /><text style="font-size:6px;font-family:'NSimSun';" transform="matrix(&st16;  41.92  53.34 )">10A <tspan x="0 " dy="6.0">ECU-B </tspan><tspan x="0 " dy="6.0">NO.1</tspan></text><text style="font-size:6px;font-family:'NSimSun';" transform="matrix(&st16;  17.45  32.08 )">(BAT)</text><text style="font-size:6px;font-family:'NSimSun';" transform="matrix(&st16;  23.7  101.49 )">1</text><text style="font-size:6px;font-family:'NSimSun';" transform="matrix(&st16;  19.31  86.47 )">2</text><path style="stroke-width: 1.42 ;&st7;   " d=" M    25.50,    47.11  C    22.76     48.72     21.85     52.25     23.46     54.99  " /><path style="stroke-width: 1.42 ;&st7;   " d=" M    23.46,    54.99  C    23.98     55.87     24.61     56.51     25.50     57.03  " /><path style="stroke-width: 1.42 ;&st7;   " d=" M    25.50,    66.94  C    28.23     65.33     29.15     61.80     27.53     59.06  " /><path style="stroke-width: 1.42 ;&st7;   " d=" M    27.53,    59.06  C    27.01     58.18     26.38     57.55     25.50     57.03  " /><path style="stroke-width: 0.85 ;&st7;   " d=" M    26.91,    45.69  C    26.91     44.91     26.28     44.28     25.50     44.28  " /><path style="stroke-width: 0.85 ;&st7;   " d=" M    25.50,    44.28  C    24.71     44.28     24.08     44.91     24.08     45.69  " /><path style="stroke-width: 0.85 ;&st7;   " d=" M    24.08,    45.69  C    24.08     46.48     24.71     47.11     25.50     47.11  " /><path style="stroke-width: 0.85 ;&st7;   " d=" M    25.50,    47.11  C    26.28     47.11     26.91     46.48     26.91     45.69  " /><path style="stroke-width: 0.85 ;&st7;   " d=" M    26.91,    68.36  C    26.91     67.57     26.28     66.94     25.50     66.94  " /><path style="stroke-width: 0.85 ;&st7;   " d=" M    25.50,    66.94  C    24.71     66.94     24.08     67.57     24.08     68.36  " /><path style="stroke-width: 0.85 ;&st7;   " d=" M    24.08,    68.36  C    24.08     69.14     24.71     69.77     25.50     69.77  " /><path style="stroke-width: 0.85 ;&st7;   " d=" M    25.50,    69.77  C    26.28     69.77     26.91     69.14     26.91     68.36  " /><path style="stroke-width: 1.42 ;&st7;  " d=" M    12.75,    35.78  L    12.75,    78.27  L    38.24,    78.27  L    38.24,    35.78  L    12.75,    35.78  " /></g><g ewd:code="E15" ewd:figID="8" ewd:comment="3" ewd:figtype="conn"><text style="font-size:6px;font-family:'NSimSun';" transform="matrix(&st16; 579.55 411.69)" ewd:textID="22" ewd:horAlign="center">后</text><text style="font-size:6px;font-family:'NSimSun';" transform="matrix(&st16;  676.48  360.69 )">B</text><path style="stroke-width: 0.85 ;&st7;   " d=" M   613.31,   409.72  C   613.31    408.93    612.68    408.30    611.90    408.30  " /><path style="stroke-width: 0.85 ;&st7;   " d=" M   611.90,   408.30  C   611.12    408.30    610.48    408.93    610.48    409.72  " /><path style="stroke-width: 0.85 ;&st7;   " d=" M   610.48,   409.72  C   610.48    410.50    611.12    411.13    611.90    411.13  " /><path style="stroke-width: 0.85 ;&st7;   " d=" M   611.90,   411.13  C   612.68    411.13    613.31    410.50    613.31    409.72  " /><path style="stroke-width: 0.85 ;&st7;   " d=" M   443.34,   409.72  C   443.34    408.93    442.71    408.30    441.93    408.30  " /><path style="stroke-width: 0.85 ;&st7;   " d=" M   441.93,   408.30  C   441.14    408.30    440.51    408.93    440.51    409.72  " /><path style="stroke-width: 0.85 ;&st7;   " d=" M   440.51,   409.72  C   440.51    410.50    441.14    411.13    441.93    411.13  " /><path style="stroke-width: 0.85 ;&st7;   " d=" M   441.93,   411.13  C   442.71    411.13    443.34    410.50    443.34    409.72  " /><path style="stroke-width: 0.85 ;&st7;   " d=" M   375.35,   409.72  C   375.35    408.93    374.72    408.30    373.94    408.30  " /><path style="stroke-width: 0.85 ;&st7;   " d=" M   373.94,   408.30  C   373.16    408.30    372.52    408.93    372.52    409.72  " /><path style="stroke-width: 0.85 ;&st7;   " d=" M   372.52,   409.72  C   372.52    410.50    373.16    411.13    373.94    411.13  " /><path style="stroke-width: 0.85 ;&st7;   " d=" M   373.94,   411.13  C   374.72    411.13    375.35    410.50    375.35    409.72  " /><path style="stroke-width: 0.85 ;&st7;   " d=" M   341.36,   392.72  C   341.36    391.94    340.73    391.30    339.94    391.30  " /><path style="stroke-width: 0.85 ;&st7;   " d=" M   339.94,   391.30  C   339.16    391.30    338.53    391.94    338.53    392.72  " /><path style="stroke-width: 0.85 ;&st7;   " d=" M   338.53,   392.72  C   338.53    393.50    339.16    394.14    339.94    394.14  " /><path style="stroke-width: 0.85 ;&st7;   " d=" M   339.94,   394.14  C   340.73    394.14    341.36    393.50    341.36    392.72  " /><path style="stroke-width: 0.85 ;&st7;   " d=" M   443.34,   392.72  C   443.34    391.94    442.71    391.30    441.93    391.30  " /><path style="stroke-width: 0.85 ;&st7;   " d=" M   441.93,   391.30  C   441.14    391.30    440.51    391.94    440.51    392.72  " /><path style="stroke-width: 0.85 ;&st7;   " d=" M   440.51,   392.72  C   440.51    393.50    441.14    394.14    441.93    394.14  " /><path style="stroke-width: 0.85 ;&st7;   " d=" M   441.93,   394.14  C   442.71    394.14    443.34    393.50    443.34    392.72  " /><path style="stroke-width: 0.85 ;&st7;   " d=" M   341.36,   409.72  C   341.36    408.93    340.73    408.30    339.94    408.30  " /><path style="stroke-width: 0.85 ;&st7;   " d=" M   339.94,   408.30  C   339.16    408.30    338.53    408.93    338.53    409.72  " /><path style="stroke-width: 0.85 ;&st7;   " d=" M   338.53,   409.72  C   338.53    410.50    339.16    411.13    339.94    411.13  " /><path style="stroke-width: 0.85 ;&st7;   " d=" M   339.94,   411.13  C   340.73    411.13    341.36    410.50    341.36    409.72  " /><path style="stroke-width: 0.85 ;&st7;   " d=" M   613.31,   392.72  C   613.31    391.94    612.68    391.30    611.90    391.30  " /><path style="stroke-width: 0.85 ;&st7;   " d=" M   611.90,   391.30  C   611.12    391.30    610.48    391.94    610.48    392.72  " /><path style="stroke-width: 0.85 ;&st7;   " d=" M   610.48,   392.72  C   610.48    393.50    611.12    394.14    611.90    394.14  " /><path style="stroke-width: 0.85 ;&st7;   " d=" M   611.90,   394.14  C   612.68    394.14    613.31    393.50    613.31    392.72  " /><path style="stroke-width: 0.85 ;&st7;   " d=" M   647.31,   392.72  C   647.31    391.94    646.67    391.30    645.89    391.30  " /><path style="stroke-width: 0.85 ;&st7;   " d=" M   645.89,   391.30  C   645.11    391.30    644.48    391.94    644.48    392.72  " /><path style="stroke-width: 0.85 ;&st7;   " d=" M   644.48,   392.72  C   644.48    393.50    645.11    394.14    645.89    394.14  " /><path style="stroke-width: 0.85 ;&st7;   " d=" M   645.89,   394.14  C   646.67    394.14    647.31    393.50    647.31    392.72  " /><path style="stroke-width: 0.85 ;&st7;   " d=" M   409.35,   375.72  C   409.35    374.94    408.71    374.31    407.93    374.31  " /><path style="stroke-width: 0.85 ;&st7;   " d=" M   407.93,   374.31  C   407.15    374.31    406.52    374.94    406.52    375.72  " /><path style="stroke-width: 0.85 ;&st7;   " d=" M   406.52,   375.72  C   406.52    376.50    407.15    377.14    407.93    377.14  " /><path style="stroke-width: 0.85 ;&st7;   " d=" M   407.93,   377.14  C   408.71    377.14    409.35    376.50    409.35    375.72  " /><path style="stroke-width: 0.85 ;&st7;   " d=" M   443.34,   375.72  C   443.34    374.94    442.71    374.31    441.93    374.31  " /><path style="stroke-width: 0.85 ;&st7;   " d=" M   441.93,   374.31  C   441.14    374.31    440.51    374.94    440.51    375.72  " /><path style="stroke-width: 0.85 ;&st7;   " d=" M   440.51,   375.72  C   440.51    376.50    441.14    377.14    441.93    377.14  " /><path style="stroke-width: 0.85 ;&st7;   " d=" M   441.93,   377.14  C   442.71    377.14    443.34    376.50    443.34    375.72  " /><path style="stroke-width: 0.85 ;&st7;  " d=" M   288.95,   333.23  L   288.95,   418.22  " /><path style="stroke-width: 1.42 ;&st7;  " d=" M   246.46,   307.73  L   246.46,   443.71  L   713.88,   443.71  L   713.88,   307.73  L   246.46,   307.73  " /><path style="stroke-width: 1.42 ;&st7;  " d=" M   263.46,   333.23  L   263.46,   418.22  L   458.92,   418.22  L   458.92,   333.23  L   263.46,   333.23  " /><path style="stroke-width: 0.85 ;&st7;  " d=" M   322.95,   333.23  L   322.95,   418.22  " /><path style="stroke-width: 0.85 ;&st7;  " d=" M   288.95,   350.23  L   458.92,   350.23  " /><path style="stroke-width: 0.85 ;&st7;  " d=" M   390.93,   333.23  L   390.93,   418.22  " /><path style="stroke-width: 0.85 ;&st7;  " d=" M   375.35,   409.72  L   440.51,   409.72  " /><path style="stroke-width: 0.85 ;&st7;  " d=" M   441.93,   418.22  L   441.93,   443.71  " /><path style="stroke-width: 0.85 ;&st7;  " d=" M   341.36,   392.72  L   440.51,   392.72  " /><path style="stroke-width: 0.85 ;&st7;  " d=" M   288.95,   367.22  L   458.92,   367.22  " /><path style="stroke-width: 0.85 ;&st7;  " d=" M   356.94,   333.23  L   356.94,   418.22  " /><path style="stroke-width: 0.85 ;&st7;  " d=" M   341.36,   409.72  L   372.52,   409.72  " /><path style="stroke-width: 0.85 ;&st7;  " d=" M   339.94,   307.73  L   339.94,   333.23  " /><path style="stroke-width: 0.85 ;&st7;  " d=" M   569.40,   384.22  L   696.88,   384.22  " /><path style="stroke-width: 0.85 ;&st7;  " d=" M   628.89,   350.23  L   628.89,   418.22  " /><path style="stroke-width: 0.85 ;&st7;  " d=" M   569.40,   350.23  L   569.40,   418.22  " /><path style="stroke-width: 0.85 ;&st7;  " d=" M   594.90,   350.23  L   594.90,   418.22  " /><path style="stroke-width: 0.85 ;&st7;  " d=" M   696.88,   367.22  L   569.40,   367.22  " /><path style="stroke-width: 1.42 ;&st7;  " d=" M   543.91,   350.23  L   543.91,   418.22  L   696.88,   418.22  L   696.88,   350.23  L   543.91,   350.23  " /><path style="stroke-width: 0.85 ;&st7;  " d=" M   613.31,   392.72  L   644.48,   392.72  " /><path style="stroke-width: 0.85 ;&st7;  " d=" M   611.90,   307.73  L   611.90,   350.23  " /><path style="stroke-width: 0.85 ;&st7;  " d=" M   645.89,   443.71  L   645.89,   418.22  " /><path style="stroke-width: 0.85 ;&st7;  " d=" M   288.95,   384.22  L   458.92,   384.22  " /><path style="stroke-width: 0.85 ;&st7;  " d=" M   288.95,   401.22  L   458.92,   401.22  " /><path style="stroke-width: 0.85 ;&st7;  " d=" M   424.93,   333.23  L   424.93,   418.22  " /><path style="stroke-width: 0.85 ;&st7;  " d=" M   409.35,   375.72  L   440.51,   375.72  " /><path style="stroke-width: 0.85 ;&st7;  " d=" M   569.40,   401.22  L   696.88,   401.22  " /><path style="stroke-width: 0.85 ;&st7;  " d=" M   613.31,   409.72  L   644.48,   409.72  " /><text style="font-size:6px;font-family:'NSimSun';" transform="matrix(&st16;  371.44  343.7 )">H</text><text style="font-size:6px;font-family:'NSimSun';" transform="matrix(&st16; 300.20 411.69)" ewd:textID="15" ewd:horAlign="center">大灯</text><text style="font-size:6px;font-family:'NSimSun';" transform="matrix(&st16;  437.99  343.7 )">EL</text><text style="font-size:6px;font-family:'NSimSun';" transform="matrix(&st17; 277.93 392.84)" ewd:textID="17">灯光控制开关<tspan x="0 " dy="6.0" /></text><text style="font-size:6px;font-family:'NSimSun';" transform="matrix(&st16;  431.48  440.02 )">EL</text><text style="font-size:6px;font-family:'NSimSun';" transform="matrix(&st16;  337.76  343.7 )">T</text><text style="font-size:6px;font-family:'NSimSun';" transform="matrix(&st16;  648.48  440.02 )">LFG</text><text style="font-size:6px;font-family:'NSimSun';" transform="matrix(&st16; 299.39 394.69)" ewd:textID="24" ewd:horAlign="center">尾灯</text><path style="stroke-width: 0.85 ;&st7;   " d=" M   647.31,   409.72  C   647.31    408.93    646.67    408.30    645.89    408.30  " /><path style="stroke-width: 0.85 ;&st7;   " d=" M   645.89,   408.30  C   645.11    408.30    644.48    408.93    644.48    409.72  " /><path style="stroke-width: 0.85 ;&st7;   " d=" M   644.48,   409.72  C   644.48    410.50    645.11    411.13    645.89    411.13  " /><path style="stroke-width: 0.85 ;&st7;   " d=" M   645.89,   411.13  C   646.67    411.13    647.31    410.50    647.31    409.72  " /><text style="font-size:6px;font-family:'NSimSun';" transform="matrix(&st16;  614.48  315.93 )">BFG</text><path style="stroke-width: 0.85 ;&st7;   " d=" M   681.30,   409.72  C   681.30    408.93    680.67    408.30    679.89    408.30  " /><path style="stroke-width: 0.85 ;&st7;   " d=" M   679.89,   408.30  C   679.10    408.30    678.47    408.93    678.47    409.72  " /><path style="stroke-width: 0.85 ;&st7;   " d=" M   678.47,   409.72  C   678.47    410.50    679.10    411.13    679.89    411.13  " /><path style="stroke-width: 0.85 ;&st7;   " d=" M   679.89,   411.13  C   680.67    411.13    681.30    410.50    681.30    409.72  " /><text style="font-size:6px;font-family:'NSimSun';" transform="matrix(&st16; 578.73 394.69)" ewd:textID="13" ewd:horAlign="center">前</text><text style="font-size:6px;font-family:'NSimSun';" transform="matrix(&st17; 558.38 396.46)" ewd:textID="12">雾灯开关<tspan x="0 " dy="6.0" /></text><text style="font-size:6px;font-family:'NSimSun';" transform="matrix(&st16; 575.94 377.69)" ewd:textID="21" ewd:horAlign="center">关闭</text><text style="font-size:6px;font-family:'NSimSun';" transform="matrix(&st16;  605.64  360.69 )">BFG</text><text style="font-size:6px;font-family:'NSimSun';" transform="matrix(&st16;  639.75  360.7 )">LFG</text><g ewd:code="" ewd:figID="51" ewd:comment="3" ewd:figtype="commref"><text style="font-size:6px;font-family:'NSimSun';" transform="matrix(&st16;  297.21  374.87 )">AUTO <tspan x="0 " dy="6.0">(*3)</tspan></text></g><text style="font-size:6px;font-family:'NSimSun';" transform="matrix(&st16;  405.63  343.7 )">A</text><text style="font-size:6px;font-family:'NSimSun';" transform="matrix(&st16;  332.98  315.93 )">T</text><path style="stroke-width: 0.85 ;&st7;  " d=" M   662.89,   350.23  L   662.89,   418.22  " /><path style="stroke-width: 0.85 ;&st7;  " d=" M   647.31,   409.72  L   678.47,   409.72  " /><text style="font-size:6px;font-family:'NSimSun';" transform="matrix(&st16; 299.73 360.69)" ewd:textID="21" ewd:horAlign="center">关闭</text><text style="font-size:6px;font-family:'NSimSun';" transform="matrix(&st16;  605.71  304.04 )">9</text><text style="font-size:6px;font-family:'NSimSun';" transform="matrix(&st16;  330.66  304.04 )">18</text><text style="font-size:6px;font-family:'NSimSun';" transform="matrix(&st16;  432.64  451.9 )">15</text><text style="font-size:6px;font-family:'NSimSun';" transform="matrix(&st16;  639.71  451.9 )">8</text><g ewd:figtype="title"><text style="font-size:6px;font-family:'NSimSun';" transform="matrix(&st16;  251.54  451.6 )">E15</text><text style="font-size:6px;font-family:'NSimSun';" transform="matrix(&st16;  251.55  458.43 )" ewd:textID="16">大灯变光器开关总成</text></g></g><g ewd:figtype="conn" ewd:figID="9" ewd:code="E71"><path style="stroke-width: 0.85 ;&st7;  " d=" M   441.93,   545.69  L   441.93,   562.69  " /><path style="stroke-width: 0.85 ;&st7;  " d=" M   441.93,   554.19  L   475.92,   554.19  L   475.92,   545.69  " /><path style="stroke-width: 1.42 ;&st7;  " d=" M   433.43,   545.69  L   484.42,   545.69  L   484.42,   562.69  L   433.43,   562.69  L   433.43,   545.69  " /><path style="stroke-width: 0.85 ;&st7;  " d=" M   440.73,   553.19  L   440.46,   553.66  L   440.37,   554.19  L   440.46,   554.73  L   440.73,   555.20  L   441.15,   555.54  L   441.65,   555.73  L   442.20,   555.73  L   442.71,   555.54  L   443.12,   555.20  L   443.39,   554.73  L   443.48,   554.19  L   443.39,   553.66  L   443.12,   553.19  L   442.71,   552.84  L   442.20,   552.66  L   441.65,   552.66  L   441.15,   552.84  L   440.73,   553.19  L   441.13,   553.90  L   441.13,   554.48  L   441.50,   554.93  L   442.07,   555.03  L   442.58,   554.74  L   442.78,   554.19  L   442.58,   553.65  L   442.07,   553.36  L   441.50,   553.46  L   441.93,   554.19  " /><text style="font-size:6px;font-family:'NSimSun';" transform="matrix(&st16;  432.64  570.88 )">12</text><text style="font-size:6px;font-family:'NSimSun';" transform="matrix(&st16;  432.64  542.0 )">16</text><text style="font-size:6px;font-family:'NSimSun';" transform="matrix(&st16;  466.63  542.0 )">20</text><g ewd:figtype="title"><text style="font-size:6px;font-family:'NSimSun';" transform="matrix(&st16;  455.51  570.58 )">E71</text><text style="font-size:6px;font-family:'NSimSun';" transform="matrix(&st16;  455.52  577.41 )" ewd:textID="20">4 号接线连接器<tspan x="0 " dy="6.0" /><tspan x="0 " dy="6.0" /></text></g></g><g ewd:figtype="jb" ewd:figID="16" ewd:code="3"><path style="stroke-width: 1.42 ;&st7;  " d=" M   274.08,   120.77  L   269.83,   120.77  " /><path style="stroke-width: 1.42 ;&st7;  " d=" M   274.08,   129.26  L   269.83,   129.26  " /><path style="stroke-width: 1.42 ;&st7;  " d=" M   231.59,   120.77  L   227.34,   120.77  " /><path style="stroke-width: 1.42 ;&st7;  " d=" M   231.59,   129.26  L   227.34,   129.26  " /><path style="stroke-width: 1.42 ;&st7;  " d=" M    95.61,   120.77  L    91.36,   120.77  " /><path style="stroke-width: 1.42 ;&st7;  " d=" M    95.61,   129.26  L    91.36,   129.26  " /><path style="stroke-width: 1.42 ;&st7;   " d=" M   144.48,    47.11  C   141.74     48.72    140.83     52.25    142.44     54.99  " /><path style="stroke-width: 1.42 ;&st7;   " d=" M   142.44,    54.99  C   142.96     55.87    143.59     56.51    144.48     57.03  " /><path style="stroke-width: 1.42 ;&st7;   " d=" M   144.48,    66.94  C   147.21     65.33    148.13     61.80    146.51     59.06  " /><path style="stroke-width: 1.42 ;&st7;   " d=" M   146.51,    59.06  C   145.99     58.18    145.36     57.55    144.48     57.03  " /><path style="stroke-width: 0.85 ;&st7;   " d=" M   145.89,    45.69  C   145.89     44.91    145.26     44.28    144.48     44.28  " /><path style="stroke-width: 0.85 ;&st7;   " d=" M   144.48,    44.28  C   143.69     44.28    143.06     44.91    143.06     45.69  " /><path style="stroke-width: 0.85 ;&st7;   " d=" M   143.06,    45.69  C   143.06     46.48    143.69     47.11    144.48     47.11  " /><path style="stroke-width: 0.85 ;&st7;   " d=" M   144.48,    47.11  C   145.26     47.11    145.89     46.48    145.89     45.69  " /><path style="stroke-width: 0.85 ;&st7;   " d=" M   145.89,    68.36  C   145.89     67.57    145.26     66.94    144.48     66.94  " /><path style="stroke-width: 0.85 ;&st7;   " d=" M   144.48,    66.94  C   143.69     66.94    143.06     67.57    143.06     68.36  " /><path style="stroke-width: 0.85 ;&st7;   " d=" M   143.06,    68.36  C   143.06     69.14    143.69     69.77    144.48     69.77  " /><path style="stroke-width: 0.85 ;&st7;   " d=" M   144.48,    69.77  C   145.26     69.77    145.89     69.14    145.89     68.36  " /><path style="stroke-width: 1.42 ;&st7;   " d=" M   269.83,   120.77  C   267.48    120.77    265.58    122.67    265.58    125.01  " /><path style="stroke-width: 1.42 ;&st7;   " d=" M   265.58,   125.01  C   265.58    127.36    267.48    129.26    269.83    129.26  " /><path style="stroke-width: 1.42 ;&st7;   " d=" M   274.08,   129.26  C   276.43    129.26    278.33    127.36    278.33    125.01  " /><path style="stroke-width: 1.42 ;&st7;   " d=" M   278.33,   125.01  C   278.33    122.67    276.43    120.77    274.08    120.77  " /><path style="stroke-width: 1.42 ;&st7;   " d=" M    93.48,    47.11  C    90.75     48.72     89.83     52.25     91.45     54.99  " /><path style="stroke-width: 1.42 ;&st7;   " d=" M    91.45,    54.99  C    91.97     55.87     92.60     56.51     93.48     57.03  " /><path style="stroke-width: 1.42 ;&st7;   " d=" M    93.48,    66.94  C    96.22     65.33     97.13     61.80     95.52     59.06  " /><path style="stroke-width: 1.42 ;&st7;   " d=" M    95.52,    59.06  C    95.00     58.18     94.37     57.55     93.48     57.03  " /><path style="stroke-width: 0.85 ;&st7;   " d=" M    94.90,    45.69  C    94.90     44.91     94.27     44.28     93.48     44.28  " /><path style="stroke-width: 0.85 ;&st7;   " d=" M    93.48,    44.28  C    92.70     44.28     92.07     44.91     92.07     45.69  " /><path style="stroke-width: 0.85 ;&st7;   " d=" M    92.07,    45.69  C    92.07     46.48     92.70     47.11     93.48     47.11  " /><path style="stroke-width: 0.85 ;&st7;   " d=" M    93.48,    47.11  C    94.27     47.11     94.90     46.48     94.90     45.69  " /><path style="stroke-width: 0.85 ;&st7;   " d=" M    94.90,    68.36  C    94.90     67.57     94.27     66.94     93.48     66.94  " /><path style="stroke-width: 0.85 ;&st7;   " d=" M    93.48,    66.94  C    92.70     66.94     92.07     67.57     92.07     68.36  " /><path style="stroke-width: 0.85 ;&st7;   " d=" M    92.07,    68.36  C    92.07     69.14     92.70     69.77     93.48     69.77  " /><path style="stroke-width: 0.85 ;&st7;   " d=" M    93.48,    69.77  C    94.27     69.77     94.90     69.14     94.90     68.36  " /><path style="stroke-width: 1.42 ;&st7;   " d=" M   227.34,   120.77  C   224.99    120.77    223.09    122.67    223.09    125.01  " /><path style="stroke-width: 1.42 ;&st7;   " d=" M   223.09,   125.01  C   223.09    127.36    224.99    129.26    227.34    129.26  " /><path style="stroke-width: 1.42 ;&st7;   " d=" M   231.59,   129.26  C   233.93    129.26    235.84    127.36    235.84    125.01  " /><path style="stroke-width: 1.42 ;&st7;   " d=" M   235.84,   125.01  C   235.84    122.67    233.93    120.77    231.59    120.77  " /><path style="stroke-width: 1.42 ;&st7;   " d=" M    91.36,   120.77  C    89.01    120.77     87.11    122.67     87.11    125.01  " /><path style="stroke-width: 1.42 ;&st7;   " d=" M    87.11,   125.01  C    87.11    127.36     89.01    129.26     91.36    129.26  " /><path style="stroke-width: 1.42 ;&st7;   " d=" M    95.61,   129.26  C    97.96    129.26     99.86    127.36     99.86    125.01  " /><path style="stroke-width: 1.42 ;&st7;   " d=" M    99.86,   125.01  C    99.86    122.67     97.96    120.77     95.61    120.77  " /><path style="stroke-width: 0.85 ;&st7;  " d=" M   144.48,    69.77  L   144.48,   120.77  L   195.47,   120.77  L   195.47,    86.77  " /><path style="stroke-width: 1.42 ;&st7;  " d=" M   131.73,    35.78  L   131.73,    78.27  L   157.22,    78.27  L   157.22,    35.78  L   131.73,    35.78  " /><path style="stroke-width: 0.28 ;&st9;  " d=" M   271.95,   115.87  L   269.12,   113.04  L   269.12,   117.29  L   271.95,   120.12  L   274.79,   117.29  L   274.79,   113.04  L   271.95,   115.87  " /><path style="stroke-width: 0.85 ;&st7;  " d=" M   271.95,    86.77  L   271.95,   120.77  " /><path style="stroke-width: 0.85 ;&st7;  " d=" M   229.46,    86.77  L   229.46,   120.77  " /><path style="stroke-width: 0.85 ;&st7;  " d=" M    93.48,    78.27  L    93.48,    69.77  " /><path style="stroke-width: 1.42 ;&st7;  " d=" M    80.74,    35.78  L    80.74,    78.27  L   106.23,    78.27  L   106.23,    35.78  L    80.74,    35.78  " /><path style="stroke-width: 0.85 ;&st7;  " d=" M    93.48,   120.77  L    93.48,    78.27  " /><path style="stroke-width: 0.28 ;&st9;  " d=" M   229.46,   115.87  L   226.63,   113.04  L   226.63,   117.29  L   229.46,   120.12  L   232.29,   117.29  L   232.29,   113.04  L   229.46,   115.87  " /><path style="stroke-width: 0.28 ;&st9;  " d=" M    93.48,   115.87  L    90.65,   113.04  L    90.65,   117.29  L    93.48,   120.12  L    96.32,   117.29  L    96.32,   113.04  L    93.48,   115.87  " /><text style="font-size:6px;font-family:'NSimSun';" transform="matrix(&st17;  166.28  70.19 )">7.5A ACC</text><text style="font-size:6px;font-family:'NSimSun';" transform="matrix(&st16;  135.97  32.08 )">(ACC)</text><text style="font-size:6px;font-family:'NSimSun';" transform="matrix(&st16;  186.18  94.96 )">29</text><text style="font-size:6px;font-family:'NSimSun';" transform="matrix(&st16;  262.67  94.96 )">30</text><text style="font-size:6px;font-family:'NSimSun';" transform="matrix(&st16;  268.1  126.98 )">3A</text><text style="font-size:6px;font-family:'NSimSun';" transform="matrix(&st16;  258.35  126.98 )">43</text><text style="font-size:6px;font-family:'NSimSun';" transform="matrix(&st16;  220.18  94.96 )">32</text><text style="font-size:6px;font-family:'NSimSun';" transform="matrix(&st17;  115.29  75.43 )">7.5A <tspan x="0 " dy="6.0">ECU-IG NO.4</tspan></text><text style="font-size:6px;font-family:'NSimSun';" transform="matrix(&st16;  88.27  32.08 )">(IG)</text><text style="font-size:6px;font-family:'NSimSun';" transform="matrix(&st16;  138.29  86.47 )">2</text><text style="font-size:6px;font-family:'NSimSun';" transform="matrix(&st16;  225.49  126.98 )">3C</text><text style="font-size:6px;font-family:'NSimSun';" transform="matrix(&st16;  215.85  126.98 )">51</text><text style="font-size:6px;font-family:'NSimSun';" transform="matrix(&st16;  89.51  126.98 )">3C</text><text style="font-size:6px;font-family:'NSimSun';" transform="matrix(&st16;  79.88  126.98 )">17</text><text style="font-size:6px;font-family:'NSimSun';" transform="matrix(&st16;  87.3  86.47 )">2</text></g><g ewd:figtype="gp" ewd:figID="21" ewd:code="ED"><path style="stroke-width: 0.85 ;&st7;  " d=" M   439.09,   707.17  L   444.76,   707.17  " /><path style="stroke-width: 0.85 ;&st7;  " d=" M   437.68,   704.33  L   446.18,   704.33  " /><path style="stroke-width: 0.85 ;&st7;  " d=" M   441.93,   697.25  L   441.93,   701.50  " /><path style="stroke-width: 0.85 ;&st7;  " d=" M   440.51,   710.00  L   443.34,   710.00  " /><path style="stroke-width: 0.85 ;&st7;  " d=" M   433.43,   701.50  L   450.42,   701.50  " /></g><g ewd:code="2" ewd:figID="40" ewd:comment="" ewd:figtype="comment"><text style="font-size:6px;font-family:'NSimSun';" transform="matrix(&st16;  39.09  573.16 )" ewd:textID="2">*2 : 不带防盗系统</text></g><g ewd:code="5" ewd:figID="38" ewd:comment="" ewd:figtype="comment"><text style="font-size:6px;font-family:'NSimSun';" transform="matrix(&st16;  39.09  598.65 )" ewd:textID="5">* 5 : 不带车灯自动熄灭系统</text></g><g ewd:code="6" ewd:figID="43" ewd:comment="" ewd:figtype="comment"><text style="font-size:6px;font-family:'NSimSun';" transform="matrix(&st16;  39.09  607.15 )" ewd:textID="6">* 6 : 带 TFT 显示屏</text></g><g ewd:code="4" ewd:figID="36" ewd:comment="" ewd:figtype="comment"><text style="font-size:6px;font-family:'NSimSun';" transform="matrix(&st16;  39.09  590.16 )" ewd:textID="4">* 4 : 带车灯自动熄灭系统</text></g><g ewd:code="1" ewd:figID="41" ewd:comment="" ewd:figtype="comment"><text style="font-size:6px;font-family:'NSimSun';" transform="matrix(&st16; 39.09 564.66)" ewd:textID="1">*1 : 带防盗系统</text></g><g ewd:code="7" ewd:figID="42" ewd:comment="" ewd:figtype="comment"><text style="font-size:6px;font-family:'NSimSun';" transform="matrix(&st16;  39.09  615.65 )" ewd:textID="7">* 7 : 不带 TFT 显示屏</text></g><g ewd:code="3" ewd:figID="44" ewd:comment="" ewd:figtype="comment"><text style="font-size:6px;font-family:'NSimSun';" transform="matrix(&st16; 39.09 581.66)" ewd:textID="3">* 3 : 带自动灯光控制</text></g></svg>