<?xml version="1.0" encoding="utf-8"?>
<!DOCTYPE svg PUBLIC "-//W3C//DTD SVG 1.0//EN" "http://www.w3.org/TR/2001/REC-SVG-20010904/DTD/svg10.dtd"[
	<!ENTITY ns_flows "http://ns.adobe.com/Flows/1.0/">
	<!ENTITY ns_svg "http://www.w3.org/2000/svg">
	<!ENTITY ns_xlink "http://www.w3.org/1999/xlink">
	<!ENTITY st0 "font-size:7px;font-family:'NSimSun';adobe-font-script:japanese;">
	<!ENTITY st1 "font-size:6px;font-family:'NSimSun';">
	<!-- White fill  -->
	<!ENTITY st2 "fill:#FFFFFF;stroke:#000000; stroke-width:1.41;stroke-linecap:round;stroke-linejoin:round;">
	<!-- Yellow fill  -->
	<!ENTITY st3 "fill:#FFFFCC;stroke:#FFFFCC; stroke-width:0.1;stroke-linecap:round;stroke-linejoin:round;">
	<!-- Gray fill  -->
	<!ENTITY st4 "fill:#CCCCCC;stroke:#CCCCCC; stroke-width:0.1;stroke-linecap:round;stroke-linejoin:round;">
	<!-- Light-blue fill -->
	<!ENTITY st5 "fill:#CCECF4;stroke:#000000; stroke-width:1.133;stroke-linecap:round;stroke-linejoin:round;">
	<!ENTITY st6 "fill:none;stroke-linecap:butt; stroke-linejoin:round;">
	<!ENTITY st7 "fill:none;stroke:#000000;stroke-linecap:round;stroke-linejoin:round;">
	<!ENTITY st8 "enable-background:new    ;">
	<!-- Black fill -->
	<!ENTITY st9 "fill:#000000;stroke:#000000; stroke-linecap:round;stroke-linejoin:round;">
	<!-- SRS note   -->
	<!ENTITY st10 "font-size:9px;font-family:'NSimSun';">
	<!ENTITY st11 "font-size:9px;font-family:'NSimSun';">
	<!ENTITY st12 "font-size:6px;font-family:'NSimSun';">
	<!ENTITY st13 "fill:none;stroke:#ff0000;stroke-linecap:round;stroke-linejoin:round;">
	<!-- Yellow fill  -->
	<!ENTITY st14 "fill:#FFFF00;stroke:#FFFF00; stroke-width:0.1;stroke-linecap:round;stroke-linejoin:round;">
	<!ENTITY st15 "font-size:6px;font-family:'NSimSun';adobe-font-script:japanese;">
	<!ENTITY st16 "1.00 0.00 0.00 1.00">
	<!ENTITY st17 "0.00 -1.00 1.00 0.00">
	<!ENTITY st18 "font-size:6px;font-family:'NSimSun';">
	<!ENTITY st19 "font-size:9px;font-family:'NSimSun';">
	<!ENTITY st20 "font-size:6px;font-family:'NSimSun';adobe-font-script:japanese;">
	<!ENTITY st21 "font-size:7px;font-family:'NSimSun';adobe-font-script:japanese;">
	<!ATTLIST svg
		xmlns:ewd CDATA #FIXED "http://shcl.co.jp/ewd"
		xmlns:a CDATA #FIXED "http://ns.adobe.com/AdobeSVGViewerExtensions/3.0/"
		ewd:ver CDATA #IMPLIED
	>
	<!ATTLIST a
		ewd:lineID CDATA #IMPLIED
		ewd:groupID CDATA #IMPLIED
		ewd:figtype CDATA #IMPLIED
		ewd:code CDATA #IMPLIED
		ewd:figID CDATA #IMPLIED
		ewd:pinNo CDATA #IMPLIED
		ewd:comment CDATA #IMPLIED >
	<!ATTLIST g
		ewd:lineID CDATA #IMPLIED
		ewd:groupID CDATA #IMPLIED
		ewd:figtype CDATA #IMPLIED
		ewd:code CDATA #IMPLIED
		ewd:figID CDATA #IMPLIED
		ewd:pinNo CDATA #IMPLIED
		ewd:comment CDATA #IMPLIED >
	<!ATTLIST text
		ewd:textID CDATA #IMPLIED
		ewd:horAlign CDATA #IMPLIED >
	<!ATTLIST title
		ewd:textID CDATA #IMPLIED >
]>
<!-- Generator: Shintec Hozumi YS   -->
<svg onload="call_execInitLoadProc_svg('system')" style="overflow:visible;  enable-background:new 0 0 1536.827 710.000" viewBox="0 0 1540.374 710.000" height="710.000" width="1540.374" xml:space="preserve" ewd:ver="2.1.2.6F" xmlns="&ns_svg;" xmlns:ewd="http://shcl.co.jp/ewd" xmlns:a="http://ns.adobe.com/AdobeSVGViewerExtensions/3.0/" xmlns:xlink="&ns_xlink;"><script type="text/javascript" xlink:href="../../../../../system/js/ewd/fig/svgfig.js" xmlns:xlink="http://www.w3.org/1999/xlink" />
<g id="ewd_top"><a ewd:figtype="conn" style="cursor:pointer;" ewd:code="E36" ewd:figID="1"><path style="&st5;" d=" M   178.47,    86.77  L  1529.74,    86.77  L  1529.74,    35.78  L   178.47,    35.78  L   178.47,    86.77 " /><title ewd:textID="16">主车身 ECU</title></a><a ewd:figtype="rb" style="cursor:pointer;" ewd:code="4" ewd:figID="2"><path style="fill:#CCECF4;stroke:#000000; stroke-width:0; stroke-linecap:round;stroke-linejoin:round; " d=" M  1334.28,   452.21  L  1291.78,   452.21  L  1291.78,   486.20  L  1334.28,   486.20  L  1334.28,   452.21 " /></a><a ewd:figtype="conn" style="cursor:pointer;" ewd:code="A23" ewd:figID="3"><path style="&st5;" d=" M  1215.30,   299.24  L  1215.30,   299.24  C  1215.30    294.51   1211.47    290.68   1206.74    290.68  L  1206.74,   290.68  C  1202.02    290.68   1198.19    294.51   1198.19    299.24  L  1198.19,   299.24  C  1198.19    303.96   1202.02    307.79   1206.74    307.79  L  1206.74,   307.79  C  1211.47    307.79   1215.30    303.96   1215.30    299.24 " /><title ewd:textID="8">左侧雾灯总成</title></a><a ewd:figtype="conn" style="cursor:pointer;" ewd:code="A19" ewd:figID="4"><path style="&st5;" d=" M  1164.31,   299.24  L  1164.31,   299.24  C  1164.30    294.51   1160.47    290.68   1155.75    290.68  L  1155.75,   290.68  C  1151.02    290.68   1147.19    294.51   1147.20    299.24  L  1147.20,   299.24  C  1147.20    303.96   1151.03    307.79   1155.75    307.79  L  1155.75,   307.79  C  1160.48    307.79   1164.30    303.96   1164.31    299.24 " /><title ewd:textID="9">右侧雾灯总成</title></a><a ewd:figtype="rb" style="cursor:pointer;" ewd:code="FUSE5" ewd:figID="5"><path style="fill:#CCECF4;stroke:#000000; stroke-width:0; stroke-linecap:round;stroke-linejoin:round; " d=" M    12.75,    35.78  L    12.75,    78.27  L    38.24,    78.27  L    38.24,    35.78  L    12.75,    35.78 " /></a><a ewd:figtype="conn" style="cursor:pointer;" ewd:code="A38" ewd:figID="6"><path style="&st5;" d=" M  1147.31,   401.22  L  1215.30,   401.22  L  1215.30,   418.22  L  1147.31,   418.22  L  1147.31,   401.22 " /><title ewd:textID="17">2 号接线连接器</title></a><a ewd:figtype="conn" style="cursor:pointer;" ewd:code="E55,E59" ewd:figID="7"><path style="&st5;" d=" M   832.86,   265.24  L   832.86,   469.21  L   909.35,   469.21  L   909.35,   265.24  L   832.86,   265.24 " /><title ewd:textID="6">组合仪表总成</title></a><a ewd:figtype="conn" style="cursor:pointer;" ewd:code="E15" ewd:figID="8"><path style="&st5;" d=" M   246.46,   307.73  L   246.46,   443.71  L   713.88,   443.71  L   713.88,   307.73  L   246.46,   307.73 " /><title ewd:textID="14">大灯变光器开关总成</title></a><a ewd:figtype="conn" style="cursor:pointer;" ewd:code="E71" ewd:figID="9"><path style="&st5;" d=" M   433.43,   545.69  L   484.42,   545.69  L   484.42,   562.69  L   433.43,   562.69  L   433.43,   545.69 " /><title ewd:textID="18">4 号接线连接器</title></a><a ewd:figtype="rb" style="cursor:pointer;" ewd:code="FUSE36" ewd:figID="10"><path style="fill:#CCECF4;stroke:#000000; stroke-width:0; stroke-linecap:round;stroke-linejoin:round; " d=" M  1364.02,   112.27  L  1364.02,   154.76  L  1389.52,   154.76  L  1389.52,   112.27  L  1364.02,   112.27 " /></a><a ewd:figtype="jb" style="cursor:pointer;" ewd:code="3" ewd:figID="14"><path style="&st4; " d=" M  1240.79,    86.77  L  1240.79,   120.77  L  1266.29,   120.77  L  1266.29,    86.77  L  1240.79,    86.77  " /></a><a ewd:figtype="jb" style="cursor:pointer;" ewd:code="1" ewd:figID="15"><path style="&st4; " d=" M  1359.77,   171.76  L  1359.77,   180.26  L  1385.27,   180.26  L  1385.27,   171.76  L  1359.77,   171.76  " /></a><a ewd:figtype="jb" style="cursor:pointer;" ewd:code="3" ewd:figID="16"><path style="&st4; " d=" M    76.49,   129.26  L   288.95,   129.26  L   288.95,    86.77  L   169.97,    86.77  L   169.97,    35.78  L    76.49,    35.78  L    76.49,   129.26  " /></a><a ewd:figtype="jb" style="cursor:pointer;" ewd:code="3" ewd:figID="17"><path style="&st4; " d=" M  1283.29,   188.75  L  1351.27,   188.75  L  1351.27,   112.27  L  1283.29,   112.27  L  1283.29,   188.75  " /></a><a ewd:figtype="jb" style="cursor:pointer;" ewd:code="3" ewd:figID="18"><path style="&st4; " d=" M  1317.28,   392.72  L  1453.26,   392.72  L  1453.26,   129.26  L  1529.74,   129.26  L  1529.74,    86.77  L  1427.76,    86.77  L  1427.76,   214.25  L  1317.28,   214.25  L  1317.28,   392.72  " /></a><a ewd:figtype="fuse" style="cursor:pointer;" ewd:code="FUSE5" ewd:figID="30"><path style="&st7; stroke-width:0;" d=" M    12.75,    35.78  L    12.75,    78.27  L    38.24,    78.27  L    38.24,    35.78  L    12.75,    35.78 " /></a><a ewd:figtype="fuse" style="cursor:pointer;" ewd:code="FUSE47" ewd:figID="31"><path style="&st7; stroke-width:0;" d=" M    80.74,    35.78  L    80.74,    78.27  L   106.23,    78.27  L   106.23,    35.78  L    80.74,    35.78 " /></a><a ewd:figtype="fuse" style="cursor:pointer;" ewd:code="FUSE43" ewd:figID="32"><path style="&st7; stroke-width:0;" d=" M   131.73,    35.78  L   131.73,    78.27  L   157.22,    78.27  L   157.22,    35.78  L   131.73,    35.78 " /></a><a ewd:figtype="fuse" style="cursor:pointer;" ewd:code="FUSE48" ewd:figID="33"><path style="&st7; stroke-width:0;" d=" M  1287.53,   112.27  L  1287.53,   154.76  L  1313.03,   154.76  L  1313.03,   112.27  L  1287.53,   112.27 " /></a><a ewd:figtype="fuse" style="cursor:pointer;" ewd:code="FUSE56" ewd:figID="34"><path style="&st7; stroke-width:0;" d=" M  1338.53,   307.73  L  1338.53,   350.23  L  1364.02,   350.23  L  1364.02,   307.73  L  1338.53,   307.73 " /></a><a ewd:figtype="fuse" style="cursor:pointer;" ewd:code="FUSE36" ewd:figID="35"><path style="&st7; stroke-width:0;" d=" M  1364.02,   112.27  L  1364.02,   154.76  L  1389.52,   154.76  L  1389.52,   112.27  L  1364.02,   112.27 " /></a><a style="cursor:pointer;" ewd:lineID="1"><path style="stroke:#008837;stroke-width: 5.10 ;&st6;" d=" M    25.50,   103.77  L    25.50,   180.26  L   271.95,   180.26  L   271.95,   129.26  " /></a><a style="cursor:pointer;" ewd:lineID="2"><path style="stroke:#00A0C6;stroke-width: 5.10 ;&st6;" d=" M   229.46,   129.26  L   229.46,   154.76  L    93.48,   154.76  L    93.48,   129.26  " /></a><a ewd:comment="5" style="cursor:pointer;" ewd:lineID="3"> d=" M   305.95,   205.75  L   305.95,   290.74  L   331.44,   290.74  L   339.94,   299.24  L   339.94,   307.73 
	
		<path style="stroke:#000000;stroke-width: 5.10 ;&st6;" d=" M   305.95,   205.75  L   305.95,   290.74  L   331.44,   290.74  L   339.94,   299.24  L   339.94,   307.73  " /><path style="stroke:#FFFFFF;stroke-width: 4.53 ;&st6;" d=" M   305.95,   205.75  L   305.95,   290.74  L   331.44,   290.74  L   339.94,   299.24  L   339.94,   307.73  " /></a><a ewd:comment="5" style="cursor:pointer;" ewd:lineID="4"> d=" M   339.94,    95.84  L   339.94,   103.77  L   331.44,   112.27  L   305.95,   112.27  L   305.95,   188.75 
	
		<path style="stroke:#000000;stroke-width: 5.10 ;&st6;" d=" M   339.94,    95.84  L   339.94,   103.77  L   331.44,   112.27  L   305.95,   112.27  L   305.95,   188.75  " /><path style="stroke:#FFFFFF;stroke-width: 4.53 ;&st6;" d=" M   339.94,    95.84  L   339.94,   103.77  L   331.44,   112.27  L   305.95,   112.27  L   305.95,   188.75  " /></a><a ewd:comment="4" style="cursor:pointer;" ewd:lineID="5"> d=" M   339.94,    95.84  L   339.94,   307.73 
	
		<path style="stroke:#000000;stroke-width: 5.10 ;&st6;" d=" M   339.94,    95.84  L   339.94,   307.73  " /><path style="stroke:#FFFFFF;stroke-width: 4.53 ;&st6;" d=" M   339.94,    95.84  L   339.94,   307.73  " /></a><a style="cursor:pointer;" ewd:lineID="6"><path style="stroke:#000000;stroke-width: 5.10 ;&st6;" d=" M   441.93,   562.69  L   441.93,   681.67  " /><path style="stroke:#FFFFFF;stroke-width: 4.53 ;&st6;" d=" M   441.93,   562.69  L   441.93,   681.67  " /><path style="stroke:#000000;stroke-width: 1.13 ;&st6;" d=" M   441.93,   562.69  L   441.93,   681.67  " /></a><a style="cursor:pointer;" ewd:lineID="7"><path style="stroke:#000000;stroke-width: 5.10 ;&st6;" d=" M   441.93,   443.71  L   441.93,   545.69  " /><path style="stroke:#FFFFFF;stroke-width: 4.53 ;&st6;" d=" M   441.93,   443.71  L   441.93,   545.69  " /><path style="stroke:#000000;stroke-width: 1.13 ;&st6;" d=" M   441.93,   443.71  L   441.93,   545.69  " /></a><a style="cursor:pointer;" ewd:lineID="8"><path style="stroke:#000000;stroke-width: 5.10 ;&st6;" d=" M   475.92,   545.69  L   475.92,   494.70  L   645.89,   494.70  L   645.89,   443.71  " /><path style="stroke:#FFFFFF;stroke-width: 4.53 ;&st6;" d=" M   475.92,   545.69  L   475.92,   494.70  L   645.89,   494.70  L   645.89,   443.71  " /><path style="stroke:#000000;stroke-width: 1.13 ;&st6;" d=" M   475.92,   545.69  L   475.92,   494.70  L   645.89,   494.70  L   645.89,   443.71  " /></a><a ewd:comment="5" style="cursor:pointer;" ewd:lineID="9"><path style="stroke:#00A0C6;stroke-width: 5.10 ;&st6;" d=" M   611.90,   307.73  L   611.90,   299.24  L   628.89,   282.24  L   747.88,   282.24  L   747.88,   562.69  L  1325.78,   562.69  L  1325.78,   511.70  " /></a><a ewd:comment="4" style="cursor:pointer;" ewd:lineID="10"><path style="stroke:#008837;stroke-width: 5.10 ;&st6;" d=" M   611.90,    95.84  L   611.90,   307.73  " /></a><a style="cursor:pointer;" ewd:lineID="11"><path style="stroke:#992903;stroke-width: 5.10 ;&st6;" d=" M   883.85,   478.27  L   883.85,   681.67  " /></a><a style="cursor:pointer;" ewd:lineID="12"><path style="stroke:#000000;stroke-width: 5.10 ;&st6;" d=" M  1113.31,   681.67  L  1113.31,   171.76  L  1147.31,   171.76  " /><path style="stroke:#FFFFFF;stroke-width: 4.53 ;&st6;" d=" M  1113.31,   681.67  L  1113.31,   171.76  L  1147.31,   171.76  " /><path style="stroke:#000000;stroke-width: 1.13 ;&st6;" d=" M  1113.31,   681.67  L  1113.31,   171.76  L  1147.31,   171.76  " /></a><a style="cursor:pointer;" ewd:lineID="13"><path style="stroke:#008837;stroke-width: 5.10 ;&st6;" d=" M  1155.81,   483.94  L  1155.81,   545.69  L   943.34,   545.69  L   943.34,   214.25  L   883.85,   214.25  L   883.85,   256.18  " /></a><a style="cursor:pointer;" ewd:lineID="14"><path style="stroke:#008837;stroke-width: 5.10 ;&st6;" d=" M  1155.81,   418.22  L  1155.81,   469.21  " /></a><a style="cursor:pointer;" ewd:lineID="15"><path style="stroke:#008837;stroke-width: 5.10 ;&st6;" d=" M  1155.81,   307.73  L  1155.81,   401.22  " /></a><a style="cursor:pointer;" ewd:lineID="16"><path style="stroke:#000000;stroke-width: 5.10 ;&st6;" d=" M  1155.81,   180.26  L  1155.81,   290.74  " /><path style="stroke:#FFFFFF;stroke-width: 4.53 ;&st6;" d=" M  1155.81,   180.26  L  1155.81,   290.74  " /><path style="stroke:#000000;stroke-width: 1.13 ;&st6;" d=" M  1155.81,   180.26  L  1155.81,   290.74  " /></a><a style="cursor:pointer;" ewd:lineID="17"><path style="stroke:#008837;stroke-width: 5.10 ;&st6;" d=" M  1206.80,   483.94  L  1206.80,   545.69  L  1300.28,   545.69  L  1300.28,   511.70  " /></a><a style="cursor:pointer;" ewd:lineID="18"><path style="stroke:#008837;stroke-width: 5.10 ;&st6;" d=" M  1206.80,   418.22  L  1206.80,   469.21  " /></a><a style="cursor:pointer;" ewd:lineID="19"><path style="stroke:#008837;stroke-width: 5.10 ;&st6;" d=" M  1206.80,   307.73  L  1206.80,   401.22  " /></a><a style="cursor:pointer;" ewd:lineID="20"><path style="stroke:#000000;stroke-width: 5.10 ;&st6;" d=" M  1206.80,   290.74  L  1206.80,   180.26  " /><path style="stroke:#FFFFFF;stroke-width: 4.53 ;&st6;" d=" M  1206.80,   290.74  L  1206.80,   180.26  " /><path style="stroke:#000000;stroke-width: 1.13 ;&st6;" d=" M  1206.80,   290.74  L  1206.80,   180.26  " /></a><a style="cursor:pointer;" ewd:lineID="21"><path style="stroke:#000000;stroke-width: 5.10 ;&st6;" d=" M  1206.80,   163.26  L  1206.80,   146.26  L  1079.32,   146.26  L  1079.32,   681.67  " /><path style="stroke:#FFFFFF;stroke-width: 4.53 ;&st6;" d=" M  1206.80,   163.26  L  1206.80,   146.26  L  1079.32,   146.26  L  1079.32,   681.67  " /><path style="stroke:#000000;stroke-width: 1.13 ;&st6;" d=" M  1206.80,   163.26  L  1206.80,   146.26  L  1079.32,   146.26  L  1079.32,   681.67  " /></a><a ewd:comment="4" style="cursor:pointer;" ewd:lineID="22"><path style="stroke:#00A0C6;stroke-width: 5.10 ;&st6;" d=" M  1257.79,   120.77  L  1257.79,   528.70  L  1317.28,   528.70  L  1325.78,   520.20  L  1325.78,   511.70  " /></a><a style="cursor:pointer;" ewd:lineID="23"><path style="stroke:#008837;stroke-width: 5.10 ;&st6;" d=" M  1300.28,   188.75  L  1300.28,   426.71  " /></a><a style="cursor:pointer;" ewd:lineID="24"><path style="stroke:#00A0C6;stroke-width: 5.10 ;&st6;" d=" M  1325.78,   426.71  L  1325.78,   409.72  L  1351.27,   409.72  L  1351.27,   392.72  " /></a><a style="cursor:pointer;" ewd:lineID="25"> d=" M  1376.77,   180.26  L  1376.77,   214.25 
	
		<path style="stroke:#000000;stroke-width: 5.10 ;&st6;" d=" M  1376.77,   180.26  L  1376.77,   214.25  " /><path style="stroke:#FFFFFF;stroke-width: 4.53 ;&st6;" d=" M  1376.77,   180.26  L  1376.77,   214.25  " /></a><a style="cursor:pointer;" ewd:lineID="26"><path style="stroke:#000000;stroke-width: 5.10 ;&st6;" d=" M  1478.75,   129.26  L  1478.75,   681.67  " /><path style="stroke:#FFFFFF;stroke-width: 4.53 ;&st6;" d=" M  1478.75,   129.26  L  1478.75,   681.67  " /><path style="stroke:#000000;stroke-width: 1.13 ;&st6;" d=" M  1478.75,   129.26  L  1478.75,   681.67  " /></a><a style="cursor:pointer;" ewd:lineID="27"><path style="stroke:#000000;stroke-width: 5.10 ;&st6;" d=" M  1521.25,   129.26  L  1521.25,   681.67  " /><path style="stroke:#FFFFFF;stroke-width: 4.53 ;&st6;" d=" M  1521.25,   129.26  L  1521.25,   681.67  " /><path style="stroke:#000000;stroke-width: 1.13 ;&st6;" d=" M  1521.25,   129.26  L  1521.25,   681.67  " /></a><a ewd:figtype="w2w" style="cursor:pointer;" ewd:pinNo="11" ewd:code="AE4" ewd:figID="19"><path style="&st2;" d=" M  1164.31,   469.21  L  1147.31,   469.21  L  1147.31,   477.71  L  1164.31,   477.71  L  1164.31,   469.21 " /><text style="&st8;" transform="matrix(&st16;  1150.5  475.58 )"><tspan x="0" style="font-size:6px;font-family:'NSimSun';" y="0">AE4</tspan></text></a><a ewd:figtype="w2w" style="cursor:pointer;" ewd:pinNo="1" ewd:code="AE4" ewd:figID="20"><path style="&st2;" d=" M  1215.30,   469.21  L  1198.30,   469.21  L  1198.30,   477.71  L  1215.30,   477.71  L  1215.30,   469.21 " /><text style="&st8;" transform="matrix(&st16;  1201.49  475.58 )"><tspan x="0" style="font-size:6px;font-family:'NSimSun';" y="0">AE4</tspan></text></a><a ewd:figtype="gp" style="cursor:pointer;" ewd:code="ED" ewd:figID="21"><path style="&st2;" d=" M   431.30,   681.67  L   452.55,   681.67  L   441.93,   697.25  L   431.30,   681.67 " /><text style="&st8;" transform="matrix(&st16;  438.05  689.46 )"><tspan x="0" style="font-size:6px;font-family:'NSimSun';" y="0">ED</tspan></text></a><a ewd:figtype="gp" style="cursor:pointer;" ewd:code="ED" ewd:figID="22"><path style="&st2;" d=" M   873.23,   681.67  L   894.48,   681.67  L   883.85,   697.25  L   873.23,   681.67 " /><text style="&st8;" transform="matrix(&st16;  879.98  689.46 )"><tspan x="0" style="font-size:6px;font-family:'NSimSun';" y="0">ED</tspan></text></a><a ewd:figtype="gp" style="cursor:pointer;" ewd:code="AA" ewd:figID="23"><path style="&st2;" d=" M  1068.70,   681.67  L  1089.94,   681.67  L  1079.32,   697.25  L  1068.70,   681.67 " /><text style="&st8;" transform="matrix(&st16;  1075.33  689.46 )"><tspan x="0" style="font-size:6px;font-family:'NSimSun';" y="0">AA</tspan></text></a><a ewd:figtype="gp" style="cursor:pointer;" ewd:code="AC" ewd:figID="24"><path style="&st2;" d=" M  1102.69,   681.67  L  1123.94,   681.67  L  1113.31,   697.25  L  1102.69,   681.67 " /><text style="&st8;" transform="matrix(&st16;  1109.21  689.46 )"><tspan x="0" style="font-size:6px;font-family:'NSimSun';" y="0">AC</tspan></text></a><a ewd:figtype="gp" style="cursor:pointer;" ewd:code="EB" ewd:figID="25"><path style="&st2;" d=" M  1468.13,   681.67  L  1489.38,   681.67  L  1478.75,   697.25  L  1468.13,   681.67 " /><text style="&st8;" transform="matrix(&st16;  1475.07  689.46 )"><tspan x="0" style="font-size:6px;font-family:'NSimSun';" y="0">EB</tspan></text></a><a ewd:figtype="gp" style="cursor:pointer;" ewd:code="EA" ewd:figID="26"><path style="&st2;" d=" M  1510.62,   681.67  L  1531.87,   681.67  L  1521.25,   697.25  L  1510.62,   681.67 " /><text style="&st8;" transform="matrix(&st16;  1517.45  689.46 )"><tspan x="0" style="font-size:6px;font-family:'NSimSun';" y="0">EA</tspan></text></a><a ewd:figtype="sp" style="cursor:pointer;" ewd:code="SP21" ewd:figID="27"><path style="&st2;" d=" M   301.70,   188.75  L   310.20,   188.75  L   314.45,   193.00  L   314.45,   201.50  L   310.20,   205.75  L   301.70,   205.75  L   297.45,   201.50  L   297.45,   193.00  L   301.70,   188.75 " /></a><a ewd:figtype="sp" style="cursor:pointer;" ewd:code="SP4" ewd:figID="28"><path style="&st2;" d=" M  1151.56,   163.26  L  1160.06,   163.26  L  1164.31,   167.51  L  1164.31,   176.01  L  1160.06,   180.26  L  1151.56,   180.26  L  1147.31,   176.01  L  1147.31,   167.51  L  1151.56,   163.26 " /></a><a ewd:figtype="sp" style="cursor:pointer;" ewd:code="SP2" ewd:figID="29"><path style="&st2;" d=" M  1202.55,   163.26  L  1211.05,   163.26  L  1215.30,   167.51  L  1215.30,   176.01  L  1211.05,   180.26  L  1202.55,   180.26  L  1198.30,   176.01  L  1198.30,   167.51  L  1202.55,   163.26 " /></a></g></svg>