<?xml version="1.0" encoding="utf-8"?>
<!DOCTYPE svg PUBLIC "-//W3C//DTD SVG 1.0//EN" "http://www.w3.org/TR/2001/REC-SVG-20010904/DTD/svg10.dtd"[
	<!ENTITY ns_flows "http://ns.adobe.com/Flows/1.0/">
	<!ENTITY ns_svg "http://www.w3.org/2000/svg">
	<!ENTITY ns_xlink "http://www.w3.org/1999/xlink">
	<!ENTITY st0 "font-size:7px;font-family:'NSimSun';adobe-font-script:japanese;">
	<!ENTITY st1 "font-size:6px;font-family:'NSimSun';">
	<!-- White fill  -->
	<!ENTITY st2 "fill:#FFFFFF;stroke:#000000; stroke-width:1.41;stroke-linecap:round;stroke-linejoin:round;">
	<!-- Yellow fill  -->
	<!ENTITY st3 "fill:#FFFFCC;stroke:#FFFFCC; stroke-width:0.1;stroke-linecap:round;stroke-linejoin:round;">
	<!-- Gray fill  -->
	<!ENTITY st4 "fill:#CCCCCC;stroke:#CCCCCC; stroke-width:0.1;stroke-linecap:round;stroke-linejoin:round;">
	<!-- Light-blue fill -->
	<!ENTITY st5 "fill:#CCECF4;stroke:#000000; stroke-width:1.133;stroke-linecap:round;stroke-linejoin:round;">
	<!ENTITY st6 "fill:none;stroke-linecap:butt; stroke-linejoin:round;">
	<!ENTITY st7 "fill:none;stroke:#000000;stroke-linecap:round;stroke-linejoin:round;">
	<!ENTITY st8 "enable-background:new    ;">
	<!-- Black fill -->
	<!ENTITY st9 "fill:#000000;stroke:#000000; stroke-linecap:round;stroke-linejoin:round;">
	<!-- SRS note   -->
	<!ENTITY st10 "font-size:9px;font-family:'NSimSun';">
	<!ENTITY st11 "font-size:9px;font-family:'NSimSun';">
	<!ENTITY st12 "font-size:6px;font-family:'NSimSun';">
	<!ENTITY st13 "fill:none;stroke:#ff0000;stroke-linecap:round;stroke-linejoin:round;">
	<!-- Yellow fill  -->
	<!ENTITY st14 "fill:#FFFF00;stroke:#FFFF00; stroke-width:0.1;stroke-linecap:round;stroke-linejoin:round;">
	<!ENTITY st15 "font-size:6px;font-family:'NSimSun';adobe-font-script:japanese;">
	<!ENTITY st16 "1.00 0.00 0.00 1.00">
	<!ENTITY st17 "0.00 -1.00 1.00 0.00">
	<!ENTITY st18 "font-size:6px;font-family:'NSimSun';">
	<!ENTITY st19 "font-size:9px;font-family:'NSimSun';">
	<!ENTITY st20 "font-size:6px;font-family:'NSimSun';adobe-font-script:japanese;">
	<!ENTITY st21 "font-size:7px;font-family:'NSimSun';adobe-font-script:japanese;">
	<!ATTLIST svg
		xmlns:ewd CDATA #FIXED "http://shcl.co.jp/ewd"
		xmlns:a CDATA #FIXED "http://ns.adobe.com/AdobeSVGViewerExtensions/3.0/"
		ewd:ver CDATA #IMPLIED
	>
	<!ATTLIST a
		ewd:lineID CDATA #IMPLIED
		ewd:groupID CDATA #IMPLIED
		ewd:figtype CDATA #IMPLIED
		ewd:code CDATA #IMPLIED
		ewd:figID CDATA #IMPLIED
		ewd:pinNo CDATA #IMPLIED
		ewd:comment CDATA #IMPLIED >
	<!ATTLIST g
		ewd:lineID CDATA #IMPLIED
		ewd:groupID CDATA #IMPLIED
		ewd:figtype CDATA #IMPLIED
		ewd:code CDATA #IMPLIED
		ewd:figID CDATA #IMPLIED
		ewd:pinNo CDATA #IMPLIED
		ewd:comment CDATA #IMPLIED >
	<!ATTLIST text
		ewd:textID CDATA #IMPLIED
		ewd:horAlign CDATA #IMPLIED >
	<!ATTLIST title
		ewd:textID CDATA #IMPLIED >
]>
<!-- Generator: Shintec Hozumi YS   -->
<svg onload="call_execInitLoadProc_svg('system')" style="overflow:visible;  enable-background:new 0 0 858.357 710.000" viewBox="0 0 866.864 710.000" height="710.000" width="866.864" xml:space="preserve" ewd:ver="2.1.2.6F" xmlns="&ns_svg;" xmlns:ewd="http://shcl.co.jp/ewd" xmlns:a="http://ns.adobe.com/AdobeSVGViewerExtensions/3.0/" xmlns:xlink="&ns_xlink;">
<text style="font-size:6px;font-family:'NSimSun';" transform="matrix(&st16;  491.41  287.04 )">L</text><text style="font-size:6px;font-family:'NSimSun';" transform="matrix(&st16;  491.37  312.54 )">R</text><text style="font-size:6px;font-family:'NSimSun';" transform="matrix(&st16;  491.3  261.54 )">B</text><text style="font-size:6px;font-family:'NSimSun';" transform="matrix(&st16;  491.02  236.05 )">G</text><text style="font-size:6px;font-family:'NSimSun';" transform="matrix(&st17;  463.73  615.39 )">W-B</text><text style="font-size:6px;font-family:'NSimSun';" transform="matrix(&st16;  489.95  83.07 )">W</text><g ewd:figtype="conn" ewd:figID="2" ewd:code="E16,E17"><path style="stroke-width: 1.42 ;&st7;  " d=" M   331.44,   171.76  L   314.45,   171.76  " /><path style="stroke-width: 0.85 ;&st7;  " d=" M   297.45,   112.27  L   291.78,   103.77  " /><path style="stroke-width: 0.85 ;&st7;  " d=" M   285.74,   104.33  L   280.45,   112.27  " /><path style="stroke-width: 0.85 ;&st7;  " d=" M   288.95,   103.77  L   288.95,    86.77  " /><path style="stroke-width: 1.42 ;&st7;  " d=" M   297.45,   103.77  L   280.45,   103.77  " /><path style="stroke-width: 0.85 ;&st7;  " d=" M   263.46,   180.26  L   314.45,   180.26  " /><path style="stroke-width: 0.85 ;&st7;  " d=" M   203.97,   180.26  L   246.46,   180.26  " /><path style="stroke-width: 0.85 ;&st7;  " d=" M   305.95,   159.01  L   305.95,   167.51  " /><path style="stroke-width: 1.42 ;&st7;  " d=" M   344.19,   116.52  L   344.19,   125.01  " /><path style="stroke-width: 1.42 ;&st7;  " d=" M   327.20,   216.37  L   318.70,   216.37  " /><path style="stroke-width: 1.42 ;&st7;  " d=" M   327.20,   220.62  L   318.70,   220.62  " /><path style="stroke-width: 0.85 ;&st7;  " d=" M   348.44,    82.52  L   348.44,    91.02  " /><path style="stroke-width: 0.85 ;&st7;   " d=" M   154.39,   290.74  C   154.39    289.95    153.76    289.32    152.97    289.32  " /><path style="stroke-width: 0.85 ;&st7;   " d=" M   152.97,   289.32  C   152.19    289.32    151.56    289.95    151.56    290.74  " /><path style="stroke-width: 0.85 ;&st7;   " d=" M   151.56,   290.74  C   151.56    291.52    152.19    292.15    152.97    292.15  " /><path style="stroke-width: 0.85 ;&st7;   " d=" M   152.97,   292.15  C   153.76    292.15    154.39    291.52    154.39    290.74  " /><path style="stroke-width: 0.85 ;&st7;   " d=" M   137.39,   290.74  C   137.39    289.95    136.76    289.32    135.98    289.32  " /><path style="stroke-width: 0.85 ;&st7;   " d=" M   135.98,   289.32  C   135.20    289.32    134.56    289.95    134.56    290.74  " /><path style="stroke-width: 0.85 ;&st7;   " d=" M   134.56,   290.74  C   134.56    291.52    135.20    292.15    135.98    292.15  " /><path style="stroke-width: 0.85 ;&st7;   " d=" M   135.98,   292.15  C   136.76    292.15    137.39    291.52    137.39    290.74  " /><path style="stroke-width: 0.85 ;&st7;   " d=" M   154.39,   265.24  C   154.39    264.46    153.76    263.82    152.97    263.82  " /><path style="stroke-width: 0.85 ;&st7;   " d=" M   152.97,   263.82  C   152.19    263.82    151.56    264.46    151.56    265.24  " /><path style="stroke-width: 0.85 ;&st7;   " d=" M   151.56,   265.24  C   151.56    266.02    152.19    266.66    152.97    266.66  " /><path style="stroke-width: 0.85 ;&st7;   " d=" M   152.97,   266.66  C   153.76    266.66    154.39    266.02    154.39    265.24  " /><path style="stroke-width: 0.85 ;&st7;   " d=" M   137.39,   239.75  C   137.39    238.96    136.76    238.33    135.98    238.33  " /><path style="stroke-width: 0.85 ;&st7;   " d=" M   135.98,   238.33  C   135.20    238.33    134.56    238.96    134.56    239.75  " /><path style="stroke-width: 0.85 ;&st7;   " d=" M   134.56,   239.75  C   134.56    240.53    135.20    241.16    135.98    241.16  " /><path style="stroke-width: 0.85 ;&st7;   " d=" M   135.98,   241.16  C   136.76    241.16    137.39    240.53    137.39    239.75  " /><path style="stroke-width: 0.85 ;&st7;   " d=" M   120.40,   239.75  C   120.40    238.96    119.76    238.33    118.98    238.33  " /><path style="stroke-width: 0.85 ;&st7;   " d=" M   118.98,   238.33  C   118.20    238.33    117.56    238.96    117.56    239.75  " /><path style="stroke-width: 0.85 ;&st7;   " d=" M   117.56,   239.75  C   117.56    240.53    118.20    241.16    118.98    241.16  " /><path style="stroke-width: 0.85 ;&st7;   " d=" M   118.98,   241.16  C   119.76    241.16    120.40    240.53    120.40    239.75  " /><path style="stroke-width: 0.85 ;&st7;   " d=" M   100.57,   239.75  C   100.57    238.96     99.93    238.33     99.15    238.33  " /><path style="stroke-width: 0.85 ;&st7;   " d=" M    99.15,   238.33  C    98.37    238.33     97.73    238.96     97.73    239.75  " /><path style="stroke-width: 0.85 ;&st7;   " d=" M    97.73,   239.75  C    97.73    240.53     98.37    241.16     99.15    241.16  " /><path style="stroke-width: 0.85 ;&st7;   " d=" M    99.15,   241.16  C    99.93    241.16    100.57    240.53    100.57    239.75  " /><path style="stroke-width: 0.85 ;&st7;   " d=" M   100.57,   214.25  C   100.57    213.47     99.93    212.83     99.15    212.83  " /><path style="stroke-width: 0.85 ;&st7;   " d=" M    99.15,   212.83  C    98.37    212.83     97.73    213.47     97.73    214.25  " /><path style="stroke-width: 0.85 ;&st7;   " d=" M    97.73,   214.25  C    97.73    215.03     98.37    215.67     99.15    215.67  " /><path style="stroke-width: 0.85 ;&st7;   " d=" M    99.15,   215.67  C    99.93    215.67    100.57    215.03    100.57    214.25  " /><path style="stroke-width: 0.85 ;&st7;   " d=" M   120.40,   214.25  C   120.40    213.47    119.76    212.83    118.98    212.83  " /><path style="stroke-width: 0.85 ;&st7;   " d=" M   118.98,   212.83  C   118.20    212.83    117.56    213.47    117.56    214.25  " /><path style="stroke-width: 0.85 ;&st7;   " d=" M   117.56,   214.25  C   117.56    215.03    118.20    215.67    118.98    215.67  " /><path style="stroke-width: 0.85 ;&st7;   " d=" M   118.98,   215.67  C   119.76    215.67    120.40    215.03    120.40    214.25  " /><path style="stroke-width: 0.85 ;&st7;   " d=" M   120.40,   163.26  C   120.40    162.48    119.76    161.84    118.98    161.84  " /><path style="stroke-width: 0.85 ;&st7;   " d=" M   118.98,   161.84  C   118.20    161.84    117.56    162.48    117.56    163.26  " /><path style="stroke-width: 0.85 ;&st7;   " d=" M   117.56,   163.26  C   117.56    164.04    118.20    164.67    118.98    164.67  " /><path style="stroke-width: 0.85 ;&st7;   " d=" M   118.98,   164.67  C   119.76    164.67    120.40    164.04    120.40    163.26  " /><path style="stroke-width: 0.85 ;&st7;   " d=" M   120.40,   188.75  C   120.40    187.97    119.76    187.34    118.98    187.34  " /><path style="stroke-width: 0.85 ;&st7;   " d=" M   118.98,   187.34  C   118.20    187.34    117.56    187.97    117.56    188.75  " /><path style="stroke-width: 0.85 ;&st7;   " d=" M   117.56,   188.75  C   117.56    189.54    118.20    190.17    118.98    190.17  " /><path style="stroke-width: 0.85 ;&st7;   " d=" M   118.98,   190.17  C   119.76    190.17    120.40    189.54    120.40    188.75  " /><path style="stroke-width: 0.85 ;&st7;   " d=" M   247.88,   333.23  C   247.88    332.45    247.24    331.81    246.46    331.81  " /><path style="stroke-width: 0.85 ;&st7;   " d=" M   246.46,   331.81  C   245.68    331.81    245.04    332.45    245.04    333.23  " /><path style="stroke-width: 0.85 ;&st7;   " d=" M   245.04,   333.23  C   245.04    334.01    245.68    334.65    246.46    334.65  " /><path style="stroke-width: 0.85 ;&st7;   " d=" M   246.46,   334.65  C   247.24    334.65    247.88    334.01    247.88    333.23  " /><path style="stroke-width: 0.85 ;&st7;   " d=" M   264.87,   341.73  C   264.87    340.95    264.24    340.31    263.46    340.31  " /><path style="stroke-width: 0.85 ;&st7;   " d=" M   263.46,   340.31  C   262.67    340.31    262.04    340.95    262.04    341.73  " /><path style="stroke-width: 0.85 ;&st7;   " d=" M   262.04,   341.73  C   262.04    342.51    262.67    343.14    263.46    343.14  " /><path style="stroke-width: 0.85 ;&st7;   " d=" M   263.46,   343.14  C   264.24    343.14    264.87    342.51    264.87    341.73  " /><path style="stroke-width: 0.85 ;&st7;   " d=" M   252.48,   182.78  C   253.88    181.42    253.90    179.17    252.53    177.78  " /><path style="stroke-width: 0.85 ;&st7;   " d=" M   252.53,   177.78  C   251.16    176.38    248.92    176.36    247.52    177.73  " /><path style="stroke-width: 0.85 ;&st7;   " d=" M   247.52,   177.73  C   246.81    178.42    246.46    179.26    246.46    180.26  " /><path style="stroke-width: 0.85 ;&st7;   " d=" M   257.44,   182.78  C   258.83    181.42    258.86    179.17    257.49    177.78  " /><path style="stroke-width: 0.85 ;&st7;   " d=" M   257.49,   177.78  C   256.12    176.38    253.88    176.36    252.48    177.73  " /><path style="stroke-width: 0.85 ;&st7;   " d=" M   252.48,   177.73  C   251.08    179.09    251.06    181.34    252.43    182.73  " /><path style="stroke-width: 0.85 ;&st7;   " d=" M   252.43,   182.73  C   252.45    182.75    252.46    182.77    252.48    182.78  " /><path style="stroke-width: 0.85 ;&st7;   " d=" M   263.46,   180.26  C   263.46    178.30    261.87    176.71    259.91    176.71  " /><path style="stroke-width: 0.85 ;&st7;   " d=" M   259.91,   176.71  C   257.96    176.71    256.37    178.30    256.37    180.26  " /><path style="stroke-width: 0.85 ;&st7;   " d=" M   256.37,   180.26  C   256.37    181.25    256.73    182.09    257.44    182.78  " /><path style="stroke-width: 0.85 ;&st7;   " d=" M    86.40,   290.74  C    86.40    289.95     85.77    289.32     84.99    289.32  " /><path style="stroke-width: 0.85 ;&st7;   " d=" M    84.99,   289.32  C    84.20    289.32     83.57    289.95     83.57    290.74  " /><path style="stroke-width: 0.85 ;&st7;   " d=" M    83.57,   290.74  C    83.57    291.52     84.20    292.15     84.99    292.15  " /><path style="stroke-width: 0.85 ;&st7;   " d=" M    84.99,   292.15  C    85.77    292.15     86.40    291.52     86.40    290.74  " /><path style="stroke-width: 0.85 ;&st7;   " d=" M    86.40,   239.75  C    86.40    238.96     85.77    238.33     84.99    238.33  " /><path style="stroke-width: 0.85 ;&st7;   " d=" M    84.99,   238.33  C    84.20    238.33     83.57    238.96     83.57    239.75  " /><path style="stroke-width: 0.85 ;&st7;   " d=" M    83.57,   239.75  C    83.57    240.53     84.20    241.16     84.99    241.16  " /><path style="stroke-width: 0.85 ;&st7;   " d=" M    84.99,   241.16  C    85.77    241.16     86.40    240.53     86.40    239.75  " /><path style="stroke-width: 0.85 ;&st7;   " d=" M   264.87,   324.73  C   264.87    323.95    264.24    323.31    263.46    323.31  " /><path style="stroke-width: 0.85 ;&st7;   " d=" M   263.46,   323.31  C   262.67    323.31    262.04    323.95    262.04    324.73  " /><path style="stroke-width: 0.85 ;&st7;   " d=" M   262.04,   324.73  C   262.04    325.51    262.67    326.15    263.46    326.15  " /><path style="stroke-width: 0.85 ;&st7;   " d=" M   263.46,   326.15  C   264.24    326.15    264.87    325.51    264.87    324.73  " /><path style="stroke-width: 0.85 ;&st7;   " d=" M   332.86,   520.20  C   332.86    519.42    332.23    518.78    331.44    518.78  " /><path style="stroke-width: 0.85 ;&st7;   " d=" M   331.44,   518.78  C   330.66    518.78    330.03    519.42    330.03    520.20  " /><path style="stroke-width: 0.85 ;&st7;   " d=" M   330.03,   520.20  C   330.03    520.98    330.66    521.61    331.44    521.61  " /><path style="stroke-width: 0.85 ;&st7;   " d=" M   331.44,   521.61  C   332.23    521.61    332.86    520.98    332.86    520.20  " /><path style="stroke-width: 0.85 ;&st7;   " d=" M   332.86,   494.70  C   332.86    493.92    332.23    493.29    331.44    493.29  " /><path style="stroke-width: 0.85 ;&st7;   " d=" M   331.44,   493.29  C   330.66    493.29    330.03    493.92    330.03    494.70  " /><path style="stroke-width: 0.85 ;&st7;   " d=" M   330.03,   494.70  C   330.03    495.48    330.66    496.12    331.44    496.12  " /><path style="stroke-width: 0.85 ;&st7;   " d=" M   331.44,   496.12  C   332.23    496.12    332.86    495.48    332.86    494.70  " /><path style="stroke-width: 0.85 ;&st7;   " d=" M   106.23,   163.26  C   106.23    162.48    105.60    161.84    104.82    161.84  " /><path style="stroke-width: 0.85 ;&st7;   " d=" M   104.82,   161.84  C   104.03    161.84    103.40    162.48    103.40    163.26  " /><path style="stroke-width: 0.85 ;&st7;   " d=" M   103.40,   163.26  C   103.40    164.04    104.03    164.67    104.82    164.67  " /><path style="stroke-width: 0.85 ;&st7;   " d=" M   104.82,   164.67  C   105.60    164.67    106.23    164.04    106.23    163.26  " /><path style="stroke-width: 0.85 ;&st7;   " d=" M   106.23,   290.74  C   106.23    289.95    105.60    289.32    104.82    289.32  " /><path style="stroke-width: 0.85 ;&st7;   " d=" M   104.82,   289.32  C   104.03    289.32    103.40    289.95    103.40    290.74  " /><path style="stroke-width: 0.85 ;&st7;   " d=" M   103.40,   290.74  C   103.40    291.52    104.03    292.15    104.82    292.15  " /><path style="stroke-width: 0.85 ;&st7;   " d=" M   104.82,   292.15  C   105.60    292.15    106.23    291.52    106.23    290.74  " /><path style="stroke-width: 1.42 ;&st7;  " d=" M   339.94,   116.52  L   339.94,   125.01  " /><path style="stroke-width: 0.85 ;&st7;  " d=" M   314.45,   180.26  L   320.11,   171.76  " /><path style="stroke-width: 0.28 ;&st9;  " d=" M   305.95,   163.26  L   297.45,   168.92  L   297.45,   157.59  L   305.95,   163.26  " /><path style="stroke-width: 0.85 ;&st7;  " d=" M   202.77,   323.73  L   202.50,   324.20  L   202.41,   324.73  L   202.50,   325.26  L   202.77,   325.73  L   203.19,   326.08  L   203.69,   326.27  L   204.24,   326.27  L   204.74,   326.08  L   205.16,   325.73  L   205.43,   325.26  L   205.52,   324.73  L   205.43,   324.20  L   205.16,   323.73  L   204.74,   323.38  L   204.24,   323.20  L   203.69,   323.20  L   203.19,   323.38  L   202.77,   323.73  L   203.17,   324.44  L   203.17,   325.02  L   203.54,   325.47  L   204.11,   325.57  L   204.62,   325.28  L   204.82,   324.73  L   204.62,   324.18  L   204.11,   323.90  L   203.54,   323.99  L   203.97,   324.73  " /><path style="stroke-width: 0.85 ;&st7;  " d=" M   342.56,   183.09  L   339.94,   184.83  L   339.94,   192.67  L   337.33,   194.42  " /><path style="stroke-width: 0.28 ;&st9;  " d=" M   339.94,   188.75  L   348.44,   183.09  L   348.44,   194.42  L   339.94,   188.75  " /><path style="stroke-width: 0.85 ;&st7;  " d=" M   202.77,   357.72  L   202.50,   358.19  L   202.41,   358.73  L   202.50,   359.26  L   202.77,   359.73  L   203.19,   360.07  L   203.69,   360.26  L   204.24,   360.26  L   204.74,   360.07  L   205.16,   359.73  L   205.43,   359.26  L   205.52,   358.73  L   205.43,   358.19  L   205.16,   357.72  L   204.74,   357.38  L   204.24,   357.19  L   203.69,   357.19  L   203.19,   357.38  L   202.77,   357.72  L   203.17,   358.43  L   203.17,   359.02  L   203.54,   359.46  L   204.11,   359.56  L   204.62,   359.27  L   204.82,   358.73  L   204.62,   358.18  L   204.11,   357.89  L   203.54,   357.99  L   203.97,   358.73  " /><path style="stroke-width: 0.85 ;&st7;  " d=" M   314.45,   180.26  L   314.02,   179.52  L   314.59,   179.42  L   315.10,   179.71  L   315.30,   180.26  L   315.10,   180.80  L   314.59,   181.09  L   314.02,   180.99  L   313.65,   180.55  L   313.65,   179.96  L   313.25,   179.25  L   313.67,   178.91  L   314.18,   178.72  L   314.72,   178.72  L   315.23,   178.91  L   315.64,   179.25  L   315.91,   179.72  L   316.01,   180.26  L   315.91,   180.79  L   315.64,   181.26  L   315.23,   181.60  L   314.72,   181.79  L   314.18,   181.79  L   313.67,   181.60  L   313.25,   181.26  L   312.98,   180.79  L   312.89,   180.26  L   312.98,   179.72  L   313.25,   179.25  " /><path style="stroke-width: 0.85 ;&st7;  " d=" M   331.44,   120.77  L   331.02,   120.03  L   331.59,   119.93  L   332.10,   120.22  L   332.29,   120.77  L   332.10,   121.31  L   331.59,   121.60  L   331.02,   121.50  L   330.65,   121.06  L   330.65,   120.47  L   330.25,   119.76  L   330.67,   119.42  L   331.17,   119.23  L   331.72,   119.23  L   332.22,   119.42  L   332.64,   119.76  L   332.91,   120.23  L   333.00,   120.77  L   332.91,   121.30  L   332.64,   121.77  L   332.22,   122.11  L   331.72,   122.30  L   331.17,   122.30  L   330.67,   122.11  L   330.25,   121.77  L   329.98,   121.30  L   329.89,   120.77  L   329.98,   120.23  L   330.25,   119.76  " /><path style="stroke-width: 0.85 ;&st7;  " d=" M   356.94,   180.26  L   356.52,   179.52  L   357.09,   179.42  L   357.59,   179.71  L   357.79,   180.26  L   357.59,   180.80  L   357.09,   181.09  L   356.52,   180.99  L   356.14,   180.55  L   356.14,   179.96  L   355.75,   179.25  L   356.16,   178.91  L   356.67,   178.72  L   357.21,   178.72  L   357.72,   178.91  L   358.13,   179.25  L   358.40,   179.72  L   358.50,   180.26  L   358.40,   180.79  L   358.13,   181.26  L   357.72,   181.60  L   357.21,   181.79  L   356.67,   181.79  L   356.16,   181.60  L   355.75,   181.26  L   355.48,   180.79  L   355.38,   180.26  L   355.48,   179.72  L   355.75,   179.25  " /><path style="stroke-width: 0.85 ;&st7;  " d=" M   203.97,   112.27  L   203.54,   111.53  L   204.11,   111.43  L   204.62,   111.72  L   204.82,   112.27  L   204.62,   112.81  L   204.11,   113.10  L   203.54,   113.00  L   203.17,   112.56  L   203.17,   111.98  L   202.77,   111.26  L   203.19,   110.92  L   203.69,   110.73  L   204.24,   110.73  L   204.74,   110.92  L   205.16,   111.26  L   205.43,   111.73  L   205.52,   112.27  L   205.43,   112.80  L   205.16,   113.27  L   204.74,   113.62  L   204.24,   113.80  L   203.69,   113.80  L   203.19,   113.62  L   202.77,   113.27  L   202.50,   112.80  L   202.41,   112.27  L   202.50,   111.73  L   202.77,   111.26  " /><path style="stroke-width: 0.85 ;&st7;  " d=" M   203.97,   180.26  L   203.54,   179.52  L   204.11,   179.42  L   204.62,   179.71  L   204.82,   180.26  L   204.62,   180.80  L   204.11,   181.09  L   203.54,   180.99  L   203.17,   180.55  L   203.17,   179.96  L   202.77,   179.25  L   203.19,   178.91  L   203.69,   178.72  L   204.24,   178.72  L   204.74,   178.91  L   205.16,   179.25  L   205.43,   179.72  L   205.52,   180.26  L   205.43,   180.79  L   205.16,   181.26  L   204.74,   181.60  L   204.24,   181.79  L   203.69,   181.79  L   203.19,   181.60  L   202.77,   181.26  L   202.50,   180.79  L   202.41,   180.26  L   202.50,   179.72  L   202.77,   179.25  " /><path style="stroke-width: 1.42 ;&st7;  " d=" M    42.49,    61.28  L    42.49,   554.19  L   407.93,   554.19  L   407.93,    61.28  L    42.49,    61.28  " /><path style="stroke-width: 0.85 ;&st7;  " d=" M    93.48,   303.48  L    93.48,    91.02  " /><path style="stroke-width: 0.85 ;&st7;  " d=" M   110.48,   303.48  L   110.48,    91.02  " /><path style="stroke-width: 0.85 ;&st7;  " d=" M   127.48,   303.48  L   127.48,    91.02  " /><path style="stroke-width: 0.85 ;&st7;  " d=" M   144.48,   303.48  L   144.48,    91.02  " /><path style="stroke-width: 0.85 ;&st7;  " d=" M   161.47,   150.51  L    59.49,   150.51  " /><path style="stroke-width: 0.85 ;&st7;  " d=" M   161.47,   201.50  L    59.49,   201.50  " /><path style="stroke-width: 0.85 ;&st7;  " d=" M   161.47,   227.00  L    59.49,   227.00  " /><path style="stroke-width: 0.85 ;&st7;  " d=" M   161.47,   252.49  L    59.49,   252.49  " /><path style="stroke-width: 0.85 ;&st7;  " d=" M   161.47,   277.99  L    59.49,   277.99  " /><path style="stroke-width: 1.42 ;&st7;  " d=" M    59.49,    91.02  L    59.49,   303.48  L   161.47,   303.48  L   161.47,    91.02  L    59.49,    91.02  " /><path style="stroke-width: 0.85 ;&st7;  " d=" M    99.15,   238.33  L    99.15,   215.67  " /><path style="stroke-width: 0.85 ;&st7;  " d=" M   152.97,   289.32  L   152.97,   266.66  " /><path style="stroke-width: 0.85 ;&st7;  " d=" M   135.98,   289.32  L   135.98,   241.16  " /><path style="stroke-width: 0.85 ;&st7;  " d=" M   118.98,   238.33  L   118.98,   215.67  " /><path style="stroke-width: 0.85 ;&st7;  " d=" M   161.47,   176.01  L    59.49,   176.01  " /><path style="stroke-width: 0.85 ;&st7;  " d=" M   118.98,   187.34  L   118.98,   164.67  " /><path style="stroke-width: 0.85 ;&st7;  " d=" M   288.95,    86.77  L   297.45,    86.77  L   298.87,    83.94  L   301.70,    89.60  L   304.53,    83.94  L   307.37,    89.60  L   310.20,    83.94  L   313.03,    89.60  L   314.45,    86.77  L   322.95,    86.77  " /><path style="stroke-width: 0.85 ;&st7;  " d=" M   203.97,   112.27  L   280.45,   112.27  " /><path style="stroke-width: 0.85 ;&st7;  " d=" M   203.97,   358.73  L   203.97,    86.77  " /><path style="stroke-width: 0.85 ;&st7;  " d=" M   322.95,   163.26  L   331.44,   163.26  L   332.86,   160.43  L   335.69,   166.09  L   338.53,   160.43  L   341.36,   166.09  L   344.19,   160.43  L   347.03,   166.09  L   348.44,   163.26  L   356.94,   163.26  " /><path style="stroke-width: 0.85 ;&st7;  " d=" M   203.97,    86.77  L   263.46,    86.77  L   264.87,    83.94  L   267.71,    89.60  L   270.54,    83.94  L   273.37,    89.60  L   276.20,    83.94  L   279.04,    89.60  L   280.45,    86.77  L   288.95,    86.77  " /><path style="stroke-width: 0.85 ;&st7;  " d=" M   339.94,   120.77  L   322.95,   120.77  " /><path style="stroke-width: 0.85 ;&st7;  " d=" M   322.95,    86.77  L   407.93,    86.77  " /><path style="stroke-width: 1.42 ;&st7;  " d=" M   266.40,   341.49  L   247.88,   333.23  " /><path style="stroke-width: 0.85 ;&st7;  " d=" M   356.94,   163.26  L   356.52,   162.52  L   357.09,   162.42  L   357.59,   162.71  L   357.79,   163.26  L   357.59,   163.80  L   357.09,   164.09  L   356.52,   163.99  L   356.14,   163.55  L   356.14,   162.97  L   355.75,   162.26  L   356.16,   161.91  L   356.67,   161.72  L   357.21,   161.72  L   357.72,   161.91  L   358.13,   162.26  L   358.40,   162.73  L   358.50,   163.26  L   358.40,   163.79  L   358.13,   164.26  L   357.72,   164.61  L   357.21,   164.79  L   356.67,   164.79  L   356.16,   164.61  L   355.75,   164.26  L   355.48,   163.79  L   355.38,   163.26  L   355.48,   162.73  L   355.75,   162.26  " /><path style="stroke-width: 0.85 ;&st7;  " d=" M   331.44,   180.26  L   356.94,   180.26  " /><path style="stroke-width: 0.85 ;&st7;  " d=" M   344.19,   120.77  L   356.94,   120.77  L   356.94,   188.75  " /><path style="stroke-width: 0.85 ;&st7;  " d=" M   356.94,   188.75  L   356.52,   188.02  L   357.09,   187.92  L   357.59,   188.21  L   357.79,   188.75  L   357.59,   189.30  L   357.09,   189.59  L   356.52,   189.49  L   356.14,   189.05  L   356.14,   188.46  L   355.75,   187.75  L   356.16,   187.41  L   356.67,   187.22  L   357.21,   187.22  L   357.72,   187.41  L   358.13,   187.75  L   358.40,   188.22  L   358.50,   188.75  L   358.40,   189.29  L   358.13,   189.76  L   357.72,   190.10  L   357.21,   190.29  L   356.67,   190.29  L   356.16,   190.10  L   355.75,   189.76  L   355.48,   189.29  L   355.38,   188.75  L   355.48,   188.22  L   355.75,   187.75  " /><path style="stroke-width: 0.85 ;&st7;  " d=" M   322.95,   163.26  L   322.95,   150.51  L   320.11,   149.09  L   325.78,   146.26  L   320.11,   143.43  L   325.78,   140.60  L   320.11,   137.76  L   325.78,   134.93  L   322.95,   133.51  L   322.95,   120.77  " /><path style="stroke-width: 0.85 ;&st7; stroke-dasharray:3, 1.5;" d=" M   254.96,   182.79  L   254.96,   333.23  " /><path style="stroke-width: 0.85 ;&st7;  " d=" M   285.74,   104.33  L   282.56,   106.47  L   285.00,   108.09  L   285.74,   104.33  L   284.92,   105.57  L   283.58,   106.47  L   284.61,   107.15  L   284.92,   105.57  L   284.51,   106.18  L   284.09,   106.47  L   284.41,   106.68  L   284.51,   106.18  " /><path style="stroke-width: 0.85 ;&st7;  " d=" M   331.44,   180.26  L   325.78,   171.76  " /><path style="stroke-width: 0.85 ;&st7;  " d=" M   331.44,   180.26  L   328.26,   178.12  L   330.70,   176.50  L   331.44,   180.26  L   330.62,   179.02  L   329.28,   178.12  L   330.31,   177.44  L   330.62,   179.02  L   330.21,   178.41  L   329.79,   178.13  L   330.11,   177.91  L   330.21,   178.41  " /><path style="stroke-width: 0.85 ;&st7;  " d=" M    76.49,    91.02  L    76.49,   303.48  " /><path style="stroke-width: 0.85 ;&st7;  " d=" M    84.99,   289.32  L    84.99,   241.16  " /><path style="stroke-width: 0.85 ;&st7;  " d=" M   321.75,   162.26  L   321.48,   162.73  L   321.39,   163.26  L   321.48,   163.79  L   321.75,   164.26  L   322.17,   164.61  L   322.67,   164.79  L   323.22,   164.79  L   323.72,   164.61  L   324.14,   164.26  L   324.41,   163.79  L   324.50,   163.26  L   324.41,   162.73  L   324.14,   162.26  L   323.72,   161.91  L   323.22,   161.72  L   322.67,   161.72  L   322.17,   161.91  L   321.75,   162.26  L   322.15,   162.97  L   322.15,   163.55  L   322.52,   163.99  L   323.09,   164.09  L   323.60,   163.80  L   323.80,   163.26  L   323.60,   162.71  L   323.09,   162.42  L   322.52,   162.52  L   322.95,   163.26  " /><path style="stroke-width: 1.42 ;&st7;  " d=" M   288.95,   456.46  L   288.95,   537.20  L   339.94,   537.20  L   339.94,   456.46  L   288.95,   456.46  " /><path style="stroke-width: 0.85 ;&st7;  " d=" M   322.95,   216.37  L   322.95,   197.25  L   271.95,   197.25  L   271.95,   129.26  L   237.96,   129.26  " /><path style="stroke-width: 0.85 ;&st7;  " d=" M   104.82,   289.32  L   104.82,   164.67  " /><path style="stroke-width: 0.85 ;&st7;  " d=" M   297.45,   112.27  L   305.95,   112.27  L   307.37,   109.43  L   310.20,   115.10  L   313.03,   109.43  L   315.86,   115.10  L   318.70,   109.43  L   321.53,   115.10  L   322.95,   112.27  L   331.44,   112.27  " /><path style="stroke-width: 0.85 ;&st7;  " d=" M   287.76,    85.77  L   287.49,    86.24  L   287.39,    86.77  L   287.49,    87.30  L   287.76,    87.77  L   288.17,    88.12  L   288.68,    88.31  L   289.22,    88.31  L   289.73,    88.12  L   290.14,    87.77  L   290.42,    87.30  L   290.51,    86.77  L   290.42,    86.24  L   290.14,    85.77  L   289.73,    85.42  L   289.22,    85.24  L   288.68,    85.24  L   288.17,    85.42  L   287.76,    85.77  L   288.15,    86.48  L   288.15,    87.06  L   288.53,    87.51  L   289.10,    87.61  L   289.60,    87.32  L   289.80,    86.77  L   289.60,    86.22  L   289.10,    85.94  L   288.53,    86.03  L   288.95,    86.77  " /><path style="stroke-width: 0.85 ;&st7;  " d=" M   245.04,   333.23  L   195.47,   333.23  L   195.47,   214.25  L   161.47,   214.25  " /><path style="stroke-width: 0.85 ;&st7;  " d=" M   203.97,   324.73  L   262.04,   324.73  " /><path style="stroke-width: 0.85 ;&st7;  " d=" M   322.95,   220.62  L   322.95,   341.73  L   264.87,   341.73  " /><path style="stroke-width: 0.85 ;&st7;  " d=" M   321.75,   238.74  L   321.48,   239.21  L   321.39,   239.75  L   321.48,   240.28  L   321.75,   240.75  L   322.17,   241.09  L   322.67,   241.28  L   323.22,   241.28  L   323.72,   241.09  L   324.14,   240.75  L   324.41,   240.28  L   324.50,   239.75  L   324.41,   239.21  L   324.14,   238.74  L   323.72,   238.40  L   323.22,   238.21  L   322.67,   238.21  L   322.17,   238.40  L   321.75,   238.74  L   322.15,   239.45  L   322.15,   240.04  L   322.52,   240.48  L   323.09,   240.58  L   323.60,   240.29  L   323.80,   239.75  L   323.60,   239.20  L   323.09,   238.91  L   322.52,   239.01  L   322.95,   239.75  " /><path style="stroke-width: 0.85 ;&st7;  " d=" M   322.95,   239.75  L   407.93,   239.75  " /><path style="stroke-width: 0.85 ;&st7;  " d=" M   407.93,   290.74  L   356.94,   290.74  L   356.94,   358.73  L   169.97,   358.73  " /><path style="stroke-width: 0.85 ;&st7;  " d=" M   373.94,    86.77  L   373.94,   520.20  L   339.94,   520.20  " /><path style="stroke-width: 0.85 ;&st7;  " d=" M   372.74,    85.77  L   372.47,    86.24  L   372.38,    86.77  L   372.47,    87.30  L   372.74,    87.77  L   373.16,    88.12  L   373.67,    88.31  L   374.21,    88.31  L   374.72,    88.12  L   375.13,    87.77  L   375.40,    87.30  L   375.50,    86.77  L   375.40,    86.24  L   375.13,    85.77  L   374.72,    85.42  L   374.21,    85.24  L   373.67,    85.24  L   373.16,    85.42  L   372.74,    85.77  L   373.14,    86.48  L   373.14,    87.06  L   373.51,    87.51  L   374.08,    87.61  L   374.59,    87.32  L   374.79,    86.77  L   374.59,    86.22  L   374.08,    85.94  L   373.51,    86.03  L   373.94,    86.77  " /><path style="stroke-width: 0.85 ;&st7;  " d=" M   288.95,   481.95  L   339.94,   481.95  " /><path style="stroke-width: 0.85 ;&st7;  " d=" M   288.95,   507.45  L   339.94,   507.45  " /><path style="stroke-width: 0.85 ;&st7;  " d=" M   305.95,   456.46  L   305.95,   537.20  " /><path style="stroke-width: 0.85 ;&st7;  " d=" M   322.95,   456.46  L   322.95,   537.20  " /><path style="stroke-width: 0.85 ;&st7;  " d=" M   331.44,   518.78  L   331.44,   496.12  " /><path style="stroke-width: 0.85 ;&st7;  " d=" M   322.95,   163.26  L   322.95,   171.76  " /><path style="stroke-width: 0.85 ;&st7;  " d=" M   331.44,   112.27  L   331.44,   120.77  " /><path style="stroke-width: 0.28 ;&st9;  " d=" M   348.44,    86.77  L   339.94,    92.44  L   339.94,    81.11  L   348.44,    86.77  " /><path style="stroke-width: 0.85 ;&st7;  " d=" M   382.44,   494.70  L   382.44,   188.75  L   356.94,   188.75  " /><path style="stroke-width: 0.85 ;&st7;  " d=" M   161.47,   163.26  L   237.96,   163.26  " /><path style="stroke-width: 0.85 ;&st7;  " d=" M   169.97,   358.73  L   169.97,   290.74  L   161.47,   290.74  " /><path style="stroke-width: 0.85 ;&st7;  " d=" M   339.94,   494.70  L   407.93,   494.70  " /><path style="stroke-width: 0.85 ;&st7;  " d=" M   407.93,   265.24  L   348.44,   265.24  L   348.44,   350.23  L   186.97,   350.23  L   186.97,   239.75  L   161.47,   239.75  " /><path style="stroke-width: 0.85 ;&st7;  " d=" M   322.95,   163.26  L   288.95,   163.26  L   288.95,   188.75  L   161.47,   188.75  " /><path style="stroke-width: 0.85 ;&st7;  " d=" M   314.45,   180.26  L   314.45,   188.75  L   356.94,   188.75  " /><path style="stroke-width: 0.85 ;&st7;  " d=" M   381.24,   493.70  L   380.97,   494.17  L   380.88,   494.70  L   380.97,   495.24  L   381.24,   495.71  L   381.66,   496.05  L   382.16,   496.24  L   382.71,   496.24  L   383.21,   496.05  L   383.63,   495.71  L   383.90,   495.24  L   383.99,   494.70  L   383.90,   494.17  L   383.63,   493.70  L   383.21,   493.35  L   382.71,   493.17  L   382.16,   493.17  L   381.66,   493.35  L   381.24,   493.70  L   381.64,   494.41  L   381.64,   494.99  L   382.01,   495.44  L   382.58,   495.54  L   383.09,   495.25  L   383.29,   494.70  L   383.09,   494.16  L   382.58,   493.87  L   382.01,   493.97  L   382.44,   494.70  " /><path style="stroke-width: 0.85 ;&st7;  " d=" M   161.47,   265.24  L   178.47,   265.24  L   178.47,   367.22  L   365.44,   367.22  L   365.44,   316.23  L   407.93,   316.23  " /><path style="stroke-width: 0.85 ;&st7;  " d=" M   237.96,   163.26  L   237.96,   154.76  L   235.13,   153.34  L   240.79,   150.51  L   235.13,   147.68  L   240.79,   144.84  L   235.13,   142.01  L   240.79,   139.18  L   237.96,   137.76  L   237.96,   129.26  " /><path style="stroke-width: 0.85 ;&st7;  " d=" M   202.77,   128.26  L   202.50,   128.73  L   202.41,   129.26  L   202.50,   129.80  L   202.77,   130.27  L   203.19,   130.61  L   203.69,   130.80  L   204.24,   130.80  L   204.74,   130.61  L   205.16,   130.27  L   205.43,   129.80  L   205.52,   129.26  L   205.43,   128.73  L   205.16,   128.26  L   204.74,   127.92  L   204.24,   127.73  L   203.69,   127.73  L   203.19,   127.92  L   202.77,   128.26  L   203.17,   128.97  L   203.17,   129.56  L   203.54,   130.00  L   204.11,   130.10  L   204.62,   129.81  L   204.82,   129.26  L   204.62,   128.72  L   204.11,   128.43  L   203.54,   128.53  L   203.97,   129.26  " /><path style="stroke-width: 0.85 ;&st7;  " d=" M   203.97,   129.26  L   212.46,   129.26  L   213.88,   126.43  L   216.71,   132.10  L   219.55,   126.43  L   222.38,   132.10  L   225.21,   126.43  L   228.05,   132.10  L   229.46,   129.26  L   237.96,   129.26  " /><text style="font-size:6px;font-family:'NSimSun';" transform="matrix(&st16; 297.40 452.83)" ewd:textID="1" ewd:horAlign="center">前清洗器开关<tspan x="0 " dy="6.0" /></text><text style="font-size:6px;font-family:'NSimSun';" transform="matrix(&st17;  299.42  524.52 )">WF</text><text style="font-size:6px;font-family:'NSimSun';" transform="matrix(&st17;  316.42  472.87 )" ewd:textID="3">关闭</text><text style="font-size:6px;font-family:'NSimSun';" transform="matrix(&st17;  333.41  472.87 )" ewd:textID="4">打开</text><text style="font-size:6px;font-family:'NSimSun';" transform="matrix(&st17;  299.42  499.03 )">EW</text><text style="font-size:6px;font-family:'NSimSun';" transform="matrix(&st16; 92.72 87.32)" ewd:textID="2" ewd:horAlign="center">前刮水器开关</text><text style="font-size:6px;font-family:'NSimSun';" transform="matrix(&st17;  69.96  293.98 )">+B</text><text style="font-size:6px;font-family:'NSimSun';" transform="matrix(&st17;  69.96  268.09 )">+2</text><text style="font-size:6px;font-family:'NSimSun';" transform="matrix(&st17;  69.96  242.6 )">+1</text><text style="font-size:6px;font-family:'NSimSun';" transform="matrix(&st17;  69.96  217.1 )">+S</text><text style="font-size:6px;font-family:'NSimSun';" transform="matrix(&st17;  69.96  169.44 )">INT2</text><text style="font-size:6px;font-family:'NSimSun';" transform="matrix(&st17;  69.96  194.94 )">INT1</text><text style="font-size:6px;font-family:'NSimSun';" transform="matrix(&st16;  398.65  312.54 )">+2</text><text style="font-size:6px;font-family:'NSimSun';" transform="matrix(&st16;  397.87  287.05 )">+B</text><text style="font-size:6px;font-family:'NSimSun';" transform="matrix(&st16;  398.65  261.55 )">+1</text><text style="font-size:6px;font-family:'NSimSun';" transform="matrix(&st16;  398.65  236.05 )">+S</text><text style="font-size:6px;font-family:'NSimSun';" transform="matrix(&st16;  395.7  83.08 )">WF</text><text style="font-size:6px;font-family:'NSimSun';" transform="matrix(&st16;  395.7  491.01 )">EW</text><text style="font-size:6px;font-family:'NSimSun';" transform="matrix(&st17;  154.94  123.66 )">HI</text><text style="font-size:6px;font-family:'NSimSun';" transform="matrix(&st17;  120.95  125.4 )">INT</text><text style="font-size:6px;font-family:'NSimSun';" transform="matrix(&st17;  103.95  126.6 )">OFF</text><text style="font-size:6px;font-family:'NSimSun';" transform="matrix(&st17;  86.96  127.38 )">MIST</text><text style="font-size:6px;font-family:'NSimSun';" transform="matrix(&st16; 271.57 80.24)" ewd:textID="8" ewd:horAlign="center">刮水器继电器</text><text style="font-size:6px;font-family:'NSimSun';" transform="matrix(&st17;  137.95  124.7 )">LO</text><path style="stroke-width: 0.85 ;&st7;  " d=" M   236.77,   128.26  L   236.50,   128.73  L   236.40,   129.26  L   236.50,   129.80  L   236.77,   130.27  L   237.18,   130.61  L   237.69,   130.80  L   238.23,   130.80  L   238.74,   130.61  L   239.15,   130.27  L   239.42,   129.80  L   239.52,   129.26  L   239.42,   128.73  L   239.15,   128.26  L   238.74,   127.92  L   238.23,   127.73  L   237.69,   127.73  L   237.18,   127.92  L   236.77,   128.26  L   237.16,   128.97  L   237.16,   129.56  L   237.54,   130.00  L   238.11,   130.10  L   238.61,   129.81  L   238.81,   129.26  L   238.61,   128.72  L   238.11,   128.43  L   237.54,   128.53  L   237.96,   129.26  " /><text style="font-size:6px;font-family:'NSimSun';" transform="matrix(&st16;  410.66  309.7 )">4</text><path style="stroke-width: 1.42 ;&st7;   " d=" M   417.00,   316.23  C   417.00    313.73    414.97    311.70    412.46    311.70  " /><path style="stroke-width: 1.42 ;&st7;   " d=" M   412.46,   311.70  C   409.96    311.70    407.93    313.73    407.93    316.23  " /><path style="stroke-width: 1.42 ;&st7;   " d=" M   407.93,   316.23  C   407.93    318.74    409.96    320.77    412.46    320.77  " /><path style="stroke-width: 1.42 ;&st7;   " d=" M   412.46,   320.77  C   414.97    320.77    417.00    318.74    417.00    316.23  " /><text style="font-size:6px;font-family:'NSimSun';" transform="matrix(&st16;  410.16  318.2 )">A</text><text style="font-size:6px;font-family:'NSimSun';" transform="matrix(&st16;  410.66  284.21 )">2</text><path style="stroke-width: 1.42 ;&st7;   " d=" M   417.00,   290.74  C   417.00    288.23    414.97    286.20    412.46    286.20  " /><path style="stroke-width: 1.42 ;&st7;   " d=" M   412.46,   286.20  C   409.96    286.20    407.93    288.23    407.93    290.74  " /><path style="stroke-width: 1.42 ;&st7;   " d=" M   407.93,   290.74  C   407.93    293.24    409.96    295.27    412.46    295.27  " /><path style="stroke-width: 1.42 ;&st7;   " d=" M   412.46,   295.27  C   414.97    295.27    417.00    293.24    417.00    290.74  " /><text style="font-size:6px;font-family:'NSimSun';" transform="matrix(&st16;  410.16  292.71 )">A</text><text style="font-size:6px;font-family:'NSimSun';" transform="matrix(&st16;  410.66  258.71 )">3</text><text style="font-size:6px;font-family:'NSimSun';" transform="matrix(&st16;  410.16  267.21 )">A</text><path style="stroke-width: 1.42 ;&st7;   " d=" M   417.00,   265.24  C   417.00    262.74    414.97    260.71    412.46    260.71  " /><path style="stroke-width: 1.42 ;&st7;   " d=" M   412.46,   260.71  C   409.96    260.71    407.93    262.74    407.93    265.24  " /><path style="stroke-width: 1.42 ;&st7;   " d=" M   407.93,   265.24  C   407.93    267.74    409.96    269.77    412.46    269.77  " /><path style="stroke-width: 1.42 ;&st7;   " d=" M   412.46,   269.77  C   414.97    269.77    417.00    267.74    417.00    265.24  " /><text style="font-size:6px;font-family:'NSimSun';" transform="matrix(&st16;  410.66  233.22 )">1</text><path style="stroke-width: 1.42 ;&st7;   " d=" M   417.00,   239.75  C   417.00    237.24    414.97    235.21    412.46    235.21  " /><path style="stroke-width: 1.42 ;&st7;   " d=" M   412.46,   235.21  C   409.96    235.21    407.93    237.24    407.93    239.75  " /><path style="stroke-width: 1.42 ;&st7;   " d=" M   407.93,   239.75  C   407.93    242.25    409.96    244.28    412.46    244.28  " /><path style="stroke-width: 1.42 ;&st7;   " d=" M   412.46,   244.28  C   414.97    244.28    417.00    242.25    417.00    239.75  " /><text style="font-size:6px;font-family:'NSimSun';" transform="matrix(&st16;  410.16  241.71 )">A</text><text style="font-size:6px;font-family:'NSimSun';" transform="matrix(&st16;  410.66  80.24 )">7</text><path style="stroke-width: 1.42 ;&st7;   " d=" M   417.00,    86.77  C   417.00     84.27    414.97     82.24    412.46     82.24  " /><path style="stroke-width: 1.42 ;&st7;   " d=" M   412.46,    82.24  C   409.96     82.24    407.93     84.27    407.93     86.77  " /><path style="stroke-width: 1.42 ;&st7;   " d=" M   407.93,    86.77  C   407.93     89.27    409.96     91.30    412.46     91.30  " /><path style="stroke-width: 1.42 ;&st7;   " d=" M   412.46,    91.30  C   414.97     91.30    417.00     89.27    417.00     86.77  " /><text style="font-size:6px;font-family:'NSimSun';" transform="matrix(&st16;  410.28  88.74 )">B</text><text style="font-size:6px;font-family:'NSimSun';" transform="matrix(&st16;  410.66  488.17 )">4</text><path style="stroke-width: 1.42 ;&st7;   " d=" M   417.00,   494.70  C   417.00    492.20    414.97    490.17    412.46    490.17  " /><path style="stroke-width: 1.42 ;&st7;   " d=" M   412.46,   490.17  C   409.96    490.17    407.93    492.20    407.93    494.70  " /><path style="stroke-width: 1.42 ;&st7;   " d=" M   407.93,   494.70  C   407.93    497.21    409.96    499.24    412.46    499.24  " /><path style="stroke-width: 1.42 ;&st7;   " d=" M   412.46,   499.24  C   414.97    499.24    417.00    497.21    417.00    494.70  " /><text style="font-size:6px;font-family:'NSimSun';" transform="matrix(&st16;  410.28  496.67 )">B</text><g ewd:figtype="title"><text style="font-size:6px;font-family:'NSimSun';" transform="matrix(&st16;  141.07  57.58 )" ewd:textID="7">风挡玻璃刮水器开关总成</text><text style="font-size:6px;font-family:'NSimSun';" transform="matrix(&st16;  141.06  50.47 )">E16(A),E17(B)</text></g></g><g ewd:figtype="gp" ewd:figID="10" ewd:code="EA"><path style="stroke-width: 0.85 ;&st7;  " d=" M   467.42,   697.25  L   467.42,   701.50  " /><path style="stroke-width: 0.85 ;&st7;  " d=" M   458.92,   701.50  L   475.92,   701.50  " /><path style="stroke-width: 0.85 ;&st7;  " d=" M   463.17,   704.33  L   471.67,   704.33  " /><path style="stroke-width: 0.85 ;&st7;  " d=" M   464.59,   707.17  L   470.25,   707.17  " /><path style="stroke-width: 0.85 ;&st7;  " d=" M   466.01,   710.00  L   468.84,   710.00  " /></g></svg>