<?xml version="1.0" encoding="utf-8"?>
<!DOCTYPE svg PUBLIC "-//W3C//DTD SVG 1.0//EN" "http://www.w3.org/TR/2001/REC-SVG-20010904/DTD/svg10.dtd"[
	<!ENTITY ns_flows "http://ns.adobe.com/Flows/1.0/">
	<!ENTITY ns_svg "http://www.w3.org/2000/svg">
	<!ENTITY ns_xlink "http://www.w3.org/1999/xlink">
	<!ENTITY st0 "font-size:7px;font-family:'NSimSun';adobe-font-script:japanese;">
	<!ENTITY st1 "font-size:6px;font-family:'NSimSun';">
	<!-- White fill  -->
	<!ENTITY st2 "fill:#FFFFFF;stroke:#000000; stroke-width:1.41;stroke-linecap:round;stroke-linejoin:round;">
	<!-- Yellow fill  -->
	<!ENTITY st3 "fill:#FFFFCC;stroke:#FFFFCC; stroke-width:0.1;stroke-linecap:round;stroke-linejoin:round;">
	<!-- Gray fill  -->
	<!ENTITY st4 "fill:#CCCCCC;stroke:#CCCCCC; stroke-width:0.1;stroke-linecap:round;stroke-linejoin:round;">
	<!-- Light-blue fill -->
	<!ENTITY st5 "fill:#CCECF4;stroke:#000000; stroke-width:1.133;stroke-linecap:round;stroke-linejoin:round;">
	<!ENTITY st6 "fill:none;stroke-linecap:butt; stroke-linejoin:round;">
	<!ENTITY st7 "fill:none;stroke:#000000;stroke-linecap:round;stroke-linejoin:round;">
	<!ENTITY st8 "enable-background:new    ;">
	<!-- Black fill -->
	<!ENTITY st9 "fill:#000000;stroke:#000000; stroke-linecap:round;stroke-linejoin:round;">
	<!-- SRS note   -->
	<!ENTITY st10 "font-size:9px;font-family:'NSimSun';">
	<!ENTITY st11 "font-size:9px;font-family:'NSimSun';">
	<!ENTITY st12 "font-size:6px;font-family:'NSimSun';">
	<!ENTITY st13 "fill:none;stroke:#ff0000;stroke-linecap:round;stroke-linejoin:round;">
	<!-- Yellow fill  -->
	<!ENTITY st14 "fill:#FFFF00;stroke:#FFFF00; stroke-width:0.1;stroke-linecap:round;stroke-linejoin:round;">
	<!ENTITY st15 "font-size:6px;font-family:'NSimSun';adobe-font-script:japanese;">
	<!ENTITY st16 "1.00 0.00 0.00 1.00">
	<!ENTITY st17 "0.00 -1.00 1.00 0.00">
	<!ENTITY st18 "font-size:6px;font-family:'NSimSun';">
	<!ENTITY st19 "font-size:9px;font-family:'NSimSun';">
	<!ENTITY st20 "font-size:6px;font-family:'NSimSun';adobe-font-script:japanese;">
	<!ENTITY st21 "font-size:7px;font-family:'NSimSun';adobe-font-script:japanese;">
	<!ATTLIST svg
		xmlns:ewd CDATA #FIXED "http://shcl.co.jp/ewd"
		xmlns:a CDATA #FIXED "http://ns.adobe.com/AdobeSVGViewerExtensions/3.0/"
		ewd:ver CDATA #IMPLIED
	>
	<!ATTLIST a
		ewd:lineID CDATA #IMPLIED
		ewd:groupID CDATA #IMPLIED
		ewd:figtype CDATA #IMPLIED
		ewd:code CDATA #IMPLIED
		ewd:figID CDATA #IMPLIED
		ewd:pinNo CDATA #IMPLIED
		ewd:comment CDATA #IMPLIED >
	<!ATTLIST g
		ewd:lineID CDATA #IMPLIED
		ewd:groupID CDATA #IMPLIED
		ewd:figtype CDATA #IMPLIED
		ewd:code CDATA #IMPLIED
		ewd:figID CDATA #IMPLIED
		ewd:pinNo CDATA #IMPLIED
		ewd:comment CDATA #IMPLIED >
	<!ATTLIST text
		ewd:textID CDATA #IMPLIED
		ewd:horAlign CDATA #IMPLIED >
	<!ATTLIST title
		ewd:textID CDATA #IMPLIED >
]>
<!-- Generator: Shintec Hozumi YS   -->
<svg onload="call_execInitLoadProc_svg('system')" style="overflow:visible;  enable-background:new 0 0 858.357 710.000" viewBox="0 0 866.864 710.000" height="710.000" width="866.864" xml:space="preserve" ewd:ver="2.1.2.6F" xmlns="&ns_svg;" xmlns:ewd="http://shcl.co.jp/ewd" xmlns:a="http://ns.adobe.com/AdobeSVGViewerExtensions/3.0/" xmlns:xlink="&ns_xlink;"><script type="text/javascript" xlink:href="../../../../../system/js/ewd/fig/svgfig.js" xmlns:xlink="http://www.w3.org/1999/xlink" />
<g id="ewd_top"><a ewd:figtype="conn" style="cursor:pointer;" ewd:code="A15" ewd:figID="1"><path style="&st5;" d=" M   582.15,   155.90  L   582.15,   155.90  L   582.15,   151.93  L   590.65,   151.93  L   590.65,   155.90  C   592.01    156.68    592.98    157.65    593.76    159.01  L   593.76,   159.01  C   596.11    163.07    594.72    168.27    590.65    170.62  L   590.65,   170.62  L   590.65,   174.59  L   582.15,   174.59  L   582.16,   170.62  C   580.80    169.84    579.82    168.86    579.04    167.50  L   579.04,   167.50  C   576.70    163.44    578.09    158.24    582.16    155.90 " /><title ewd:textID="5">风挡玻璃清洗器马达和泵总成</title></a><a ewd:figtype="conn" style="cursor:pointer;" ewd:code="E16,E17" ewd:figID="2"><path style="&st5;" d=" M    42.49,    61.28  L    42.49,   554.19  L   407.93,   554.19  L   407.93,    61.28  L    42.49,    61.28 " /><title ewd:textID="7">风挡玻璃刮水器开关总成</title></a><a ewd:figtype="conn" style="cursor:pointer;" ewd:code="A6" ewd:figID="3"><path style="&st5;" d=" M   594.90,   605.18  L   594.90,   469.21  L   832.86,   469.21  L   832.86,   605.18  L   594.90,   605.18 " /><title ewd:textID="6">风挡玻璃刮水器马达总成</title></a><a ewd:figtype="jb" style="cursor:pointer;" ewd:code="3" ewd:figID="4"><path style="&st4; " d=" M   713.88,   120.77  L   858.36,   120.77  L   858.36,    35.78  L   713.88,    35.78  L   713.88,   120.77  " /></a><a ewd:figtype="jb" style="cursor:pointer;" ewd:code="3" ewd:figID="5"><path style="&st4; " d=" M   594.90,   384.22  L   594.90,   435.21  L   620.40,   435.21  L   620.40,   384.22  L   594.90,   384.22  " /></a><a ewd:figtype="fuse" style="cursor:pointer;" ewd:code="FUSE59" ewd:figID="13"><path style="&st7; stroke-width:0;" d=" M   743.63,    78.27  L   743.63,    35.78  L   718.13,    35.78  L   718.13,    78.27  L   743.63,    78.27 " /></a><a ewd:figtype="fuse" style="cursor:pointer;" ewd:code="FUSE65" ewd:figID="14"><path style="&st7; stroke-width:0;" d=" M   828.61,    78.27  L   828.61,    35.78  L   803.12,    35.78  L   803.12,    78.27  L   828.61,    78.27 " /></a><a style="cursor:pointer;" ewd:lineID="1"><path style="stroke:#FF0000;stroke-width: 5.10 ;&st6;" d=" M   417.00,   316.23  L   611.90,   316.23  L   611.90,   384.22  " /></a><a style="cursor:pointer;" ewd:lineID="2"><path style="stroke:#00A0C6;stroke-width: 5.10 ;&st6;" d=" M   417.00,   290.74  L   790.37,   290.74  L   790.37,   120.77  " /></a><a style="cursor:pointer;" ewd:lineID="3"><path style="stroke:#000000;stroke-width: 5.10 ;&st6;" d=" M   417.00,   265.24  L   688.38,   265.24  L   688.38,   394.99  " /></a><a style="cursor:pointer;" ewd:lineID="4"><path style="stroke:#008837;stroke-width: 5.10 ;&st6;" d=" M   417.00,   239.75  L   756.37,   239.75  L   756.37,   394.99  " /></a><a style="cursor:pointer;" ewd:lineID="5"> d=" M   417.00,    86.77  L   586.40,    86.77  L   586.40,   105.75 
	
		<path style="stroke:#000000;stroke-width: 5.10 ;&st6;" d=" M   417.00,    86.77  L   586.40,    86.77  L   586.40,   105.75  " /><path style="stroke:#FFFFFF;stroke-width: 4.53 ;&st6;" d=" M   417.00,    86.77  L   586.40,    86.77  L   586.40,   105.75  " /></a><a style="cursor:pointer;" ewd:lineID="6"><path style="stroke:#000000;stroke-width: 5.10 ;&st6;" d=" M   467.42,   681.67  L   467.42,   494.70  L   417.00,   494.70  " /><path style="stroke:#FFFFFF;stroke-width: 4.53 ;&st6;" d=" M   467.42,   681.67  L   467.42,   494.70  L   417.00,   494.70  " /><path style="stroke:#000000;stroke-width: 1.13 ;&st6;" d=" M   467.42,   681.67  L   467.42,   494.70  L   417.00,   494.70  " /></a><a style="cursor:pointer;" ewd:lineID="7"><path style="stroke:#00A0C6;stroke-width: 5.10 ;&st6;" d=" M   586.40,   174.59  L   586.40,   197.25  L   730.88,   197.25  L   730.88,   180.26  " /></a><a style="cursor:pointer;" ewd:lineID="8"> d=" M   586.40,   120.77  L   586.40,   151.93 
	
		<path style="stroke:#000000;stroke-width: 5.10 ;&st6;" d=" M   586.40,   120.77  L   586.40,   151.93  " /><path style="stroke:#FFFFFF;stroke-width: 4.53 ;&st6;" d=" M   586.40,   120.77  L   586.40,   151.93  " /></a><a style="cursor:pointer;" ewd:lineID="9"><path style="stroke:#000000;stroke-width: 5.10 ;&st6;" d=" M   611.90,   656.18  L   611.90,   681.67  " /><path style="stroke:#FFFFFF;stroke-width: 4.53 ;&st6;" d=" M   611.90,   656.18  L   611.90,   681.67  " /><path style="stroke:#000000;stroke-width: 1.13 ;&st6;" d=" M   611.90,   656.18  L   611.90,   681.67  " /></a><a style="cursor:pointer;" ewd:lineID="10"><path style="stroke:#000000;stroke-width: 5.10 ;&st6;" d=" M   611.90,   605.18  L   611.90,   639.18  " /><path style="stroke:#FFFFFF;stroke-width: 4.53 ;&st6;" d=" M   611.90,   605.18  L   611.90,   639.18  " /><path style="stroke:#000000;stroke-width: 1.13 ;&st6;" d=" M   611.90,   605.18  L   611.90,   639.18  " /></a><a style="cursor:pointer;" ewd:lineID="11"><path style="stroke:#FF0000;stroke-width: 5.10 ;&st6;" d=" M   611.90,   469.21  L   611.90,   435.21  " /></a><a style="cursor:pointer;" ewd:lineID="12"><path style="stroke:#000000;stroke-width: 5.10 ;&st6;" d=" M   688.38,   409.72  L   688.38,   469.21  " /></a><a style="cursor:pointer;" ewd:lineID="13"><path style="stroke:#00A0C6;stroke-width: 5.10 ;&st6;" d=" M   730.88,   165.52  L   730.88,   120.77  " /></a><a style="cursor:pointer;" ewd:lineID="14"><path style="stroke:#008837;stroke-width: 5.10 ;&st6;" d=" M   756.37,   469.21  L   756.37,   409.72  " /></a><a style="cursor:pointer;" ewd:lineID="15"><path style="stroke:#00A0C6;stroke-width: 5.10 ;&st6;" d=" M   815.86,   120.77  L   815.86,   469.21  " /></a><a ewd:figtype="w2w" style="cursor:pointer;" ewd:pinNo="12" ewd:code="AE6" ewd:figID="6"><path style="&st2;" d=" M   594.90,   112.27  L   577.90,   112.27  L   577.90,   120.77  L   594.90,   120.77  L   594.90,   112.27 " /><text style="&st8;" transform="matrix(&st16;  581.1  118.64 )"><tspan x="0" style="font-size:6px;font-family:'NSimSun';" y="0">AE6</tspan></text></a><a ewd:figtype="w2w" style="cursor:pointer;" ewd:pinNo="10" ewd:code="AE6" ewd:figID="7"><path style="&st2;" d=" M   696.88,   401.22  L   679.89,   401.22  L   679.89,   409.72  L   696.88,   409.72  L   696.88,   401.22 " /><text style="&st8;" transform="matrix(&st16;  683.08  407.59 )"><tspan x="0" style="font-size:6px;font-family:'NSimSun';" y="0">AE6</tspan></text></a><a ewd:figtype="w2w" style="cursor:pointer;" ewd:pinNo="6" ewd:code="AE6" ewd:figID="8"><path style="&st2;" d=" M   739.38,   171.76  L   722.38,   171.76  L   722.38,   180.26  L   739.38,   180.26  L   739.38,   171.76 " /><text style="&st8;" transform="matrix(&st16;  725.57  178.13 )"><tspan x="0" style="font-size:6px;font-family:'NSimSun';" y="0">AE6</tspan></text></a><a ewd:figtype="w2w" style="cursor:pointer;" ewd:pinNo="11" ewd:code="AE6" ewd:figID="9"><path style="&st2;" d=" M   764.87,   401.22  L   747.88,   401.22  L   747.88,   409.72  L   764.87,   409.72  L   764.87,   401.22 " /><text style="&st8;" transform="matrix(&st16;  751.07  407.59 )"><tspan x="0" style="font-size:6px;font-family:'NSimSun';" y="0">AE6</tspan></text></a><a ewd:figtype="gp" style="cursor:pointer;" ewd:code="EA" ewd:figID="10"><path style="&st2;" d=" M   456.80,   681.67  L   478.05,   681.67  L   467.42,   697.25  L   456.80,   681.67 " /><text style="&st8;" transform="matrix(&st16;  463.62  689.46 )"><tspan x="0" style="font-size:6px;font-family:'NSimSun';" y="0">EA</tspan></text></a><a ewd:figtype="gp" style="cursor:pointer;" ewd:code="AD" ewd:figID="11"><path style="&st2;" d=" M   601.27,   681.67  L   622.52,   681.67  L   611.90,   697.25  L   601.27,   681.67 " /><text style="&st8;" transform="matrix(&st16;  607.83  689.46 )"><tspan x="0" style="font-size:6px;font-family:'NSimSun';" y="0">AD</tspan></text></a><a ewd:figtype="sp" style="cursor:pointer;" ewd:code="SP9" ewd:figID="12"><path style="&st2;" d=" M   607.65,   639.18  L   616.15,   639.18  L   620.40,   643.43  L   620.40,   651.93  L   616.15,   656.18  L   607.65,   656.18  L   603.40,   651.93  L   603.40,   643.43  L   607.65,   639.18 " /></a></g></svg>