<?xml version="1.0" encoding="utf-8"?>
<!DOCTYPE svg PUBLIC "-//W3C//DTD SVG 1.0//EN" "http://www.w3.org/TR/2001/REC-SVG-20010904/DTD/svg10.dtd"[
	<!ENTITY ns_flows "http://ns.adobe.com/Flows/1.0/">
	<!ENTITY ns_svg "http://www.w3.org/2000/svg">
	<!ENTITY ns_xlink "http://www.w3.org/1999/xlink">
	<!ENTITY st0 "font-size:7px;font-family:'NSimSun';adobe-font-script:japanese;">
	<!ENTITY st1 "font-size:6px;font-family:'NSimSun';">
	<!-- White fill  -->
	<!ENTITY st2 "fill:#FFFFFF;stroke:#000000; stroke-width:1.41;stroke-linecap:round;stroke-linejoin:round;">
	<!-- Yellow fill  -->
	<!ENTITY st3 "fill:#FFFFCC;stroke:#FFFFCC; stroke-width:0.1;stroke-linecap:round;stroke-linejoin:round;">
	<!-- Gray fill  -->
	<!ENTITY st4 "fill:#CCCCCC;stroke:#CCCCCC; stroke-width:0.1;stroke-linecap:round;stroke-linejoin:round;">
	<!-- Light-blue fill -->
	<!ENTITY st5 "fill:#CCECF4;stroke:#000000; stroke-width:1.133;stroke-linecap:round;stroke-linejoin:round;">
	<!ENTITY st6 "fill:none;stroke-linecap:butt; stroke-linejoin:round;">
	<!ENTITY st7 "fill:none;stroke:#000000;stroke-linecap:round;stroke-linejoin:round;">
	<!ENTITY st8 "enable-background:new    ;">
	<!-- Black fill -->
	<!ENTITY st9 "fill:#000000;stroke:#000000; stroke-linecap:round;stroke-linejoin:round;">
	<!-- SRS note   -->
	<!ENTITY st10 "font-size:9px;font-family:'NSimSun';">
	<!ENTITY st11 "font-size:9px;font-family:'NSimSun';">
	<!ENTITY st12 "font-size:6px;font-family:'NSimSun';">
	<!ENTITY st13 "fill:none;stroke:#ff0000;stroke-linecap:round;stroke-linejoin:round;">
	<!-- Yellow fill  -->
	<!ENTITY st14 "fill:#FFFF00;stroke:#FFFF00; stroke-width:0.1;stroke-linecap:round;stroke-linejoin:round;">
	<!ENTITY st15 "font-size:6px;font-family:'NSimSun';adobe-font-script:japanese;">
	<!ENTITY st16 "1.00 0.00 0.00 1.00">
	<!ENTITY st17 "0.00 -1.00 1.00 0.00">
	<!ENTITY st18 "font-size:6px;font-family:'NSimSun';">
	<!ENTITY st19 "font-size:9px;font-family:'NSimSun';">
	<!ENTITY st20 "font-size:6px;font-family:'NSimSun';adobe-font-script:japanese;">
	<!ENTITY st21 "font-size:7px;font-family:'NSimSun';adobe-font-script:japanese;">
	<!ATTLIST svg
		xmlns:ewd CDATA #FIXED "http://shcl.co.jp/ewd"
		xmlns:a CDATA #FIXED "http://ns.adobe.com/AdobeSVGViewerExtensions/3.0/"
		ewd:ver CDATA #IMPLIED
	>
	<!ATTLIST a
		ewd:lineID CDATA #IMPLIED
		ewd:groupID CDATA #IMPLIED
		ewd:figtype CDATA #IMPLIED
		ewd:code CDATA #IMPLIED
		ewd:figID CDATA #IMPLIED
		ewd:pinNo CDATA #IMPLIED
		ewd:comment CDATA #IMPLIED >
	<!ATTLIST g
		ewd:lineID CDATA #IMPLIED
		ewd:groupID CDATA #IMPLIED
		ewd:figtype CDATA #IMPLIED
		ewd:code CDATA #IMPLIED
		ewd:figID CDATA #IMPLIED
		ewd:pinNo CDATA #IMPLIED
		ewd:comment CDATA #IMPLIED >
	<!ATTLIST text
		ewd:textID CDATA #IMPLIED
		ewd:horAlign CDATA #IMPLIED >
	<!ATTLIST title
		ewd:textID CDATA #IMPLIED >
]>
<!-- Generator: Shintec Hozumi YS   -->
<svg onload="call_execInitLoadProc_svg('system')" style="overflow:visible;  enable-background:new 0 0 4147.407 710.000" viewBox="0 0 4147.314 710.000" height="710.000" width="4147.314" xml:space="preserve" ewd:ver="2.1.2.6F" xmlns="&ns_svg;" xmlns:ewd="http://shcl.co.jp/ewd" xmlns:a="http://ns.adobe.com/AdobeSVGViewerExtensions/3.0/" xmlns:xlink="&ns_xlink;">
<text style="&st1;" transform="matrix(&st16; 1567.58 374.86)" ewd:textID="50">左前电动车窗升<tspan x="0 " dy="6.0">降器电动机总成</tspan><tspan x="0 " dy="6.0" /><tspan x="0" dy="6" style="&st1;" /></text><text style="&st18;" transform="matrix(&st17;  1789.51  530.4 )">W-B</text><text style="&st18;" transform="matrix(&st17;  1857.49  487.91 )">W-B</text><path style="stroke-width: 1.42 ;&st7;  " d=" M  1784.70,   549.22  L  1789.67,   554.19  " /><path style="stroke-width: 1.42 ;&st7;  " d=" M  1801.70,   542.17  L  1796.73,   537.20  " /><path style="stroke-width: 1.42 ;&st7;  " d=" M  1789.67,   537.20  L  1784.70,   542.17  " /><path style="stroke-width: 1.42 ;&st7;  " d=" M  1796.73,   554.19  L  1801.70,   549.22  " /><path style="stroke-width: 1.42 ;&st7;  " d=" M  1801.70,   613.68  L  1793.20,   613.68  " /><path style="stroke-width: 1.42 ;&st7;  " d=" M  1759.21,   613.68  L  1750.71,   613.68  " /><path style="stroke-width: 1.42 ;&st7;  " d=" M  1784.70,   421.75  L  1789.67,   426.71  " /><path style="stroke-width: 1.42 ;&st7;  " d=" M  1801.70,   414.69  L  1796.73,   409.72  " /><path style="stroke-width: 1.42 ;&st7;  " d=" M  1789.67,   409.72  L  1784.70,   414.69  " /><path style="stroke-width: 1.42 ;&st7;  " d=" M  1796.73,   426.71  L  1801.70,   421.75  " /><text style="&st18;" transform="matrix(&st16;  1693.26  542.0 )">W-B</text><text style="&st18;" transform="matrix(&st17;  1789.51  445.42 )">W-B</text><text style="&st18;" transform="matrix(&st17;  1789.51  581.39 )">W-B</text><text style="&st18;" transform="matrix(&st17;  1789.51  640.88 )">W-B</text><text style="&st18;" transform="matrix(&st17;  1747.01  640.88 )">W-B</text><text style="&st18;" transform="matrix(&st16;  1693.26  584.49 )">W-B</text><text style="&st18;" transform="matrix(&st16;  1693.26  499.5 )">W-B</text><text style="&st18;" transform="matrix(&st16; 1567.58 546.22)">H8</text><text style="&st18;" transform="matrix(&st16; 1567.58 588.72)">O3</text><text style="&st18;" transform="matrix(&st16; 1567.58 503.73)">H9</text><text style="&st18;" transform="matrix(&st16; 1567.58 461.24)">H6</text><path style="stroke-width: 1.42 ;&st7;  " d=" M  1801.70,   457.18  L  1796.73,   452.21  " /><path style="stroke-width: 1.42 ;&st7;  " d=" M  1784.70,   464.24  L  1789.67,   469.21  " /><path style="stroke-width: 1.42 ;&st7;  " d=" M  1796.73,   469.21  L  1801.70,   464.24  " /><path style="stroke-width: 1.42 ;&st7;  " d=" M  1789.67,   452.21  L  1784.70,   457.18  " /><text style="&st18;" transform="matrix(&st16;  1693.26  457.01 )">W-B</text><text style="&st18;" transform="matrix(&st16; 1567.58 418.74)">H11</text><text style="&st18;" transform="matrix(&st16;  1693.26  414.52 )">W-B</text><text style="&st18;" transform="matrix(&st17;  1789.51  487.91 )">W-B</text><text style="&st1;" transform="matrix(&st16; 1567.58 425.85)" ewd:textID="85">左侧车外后视镜总成<tspan x="0 " dy="6.0" /></text><text style="&st1;" transform="matrix(&st16; 1567.58 595.82)" ewd:textID="104">滑动天窗控制<tspan x="0 " dy="6.0">ECU</tspan><tspan x="0 " dy="6.0">（滑动天窗主动齿轮分总成）</tspan><tspan x="0 " dy="6.0" /><tspan x="0 " dy="6.0" /><tspan x="0" dy="6" style="&st1;" /></text><text style="&st18;" transform="matrix(&st17;  1758.34  639.64 )">(*8)</text><text style="&st18;" transform="matrix(&st16;  1694.5  595.82 )">(*8)</text><text style="&st1;" transform="matrix(&st16; 1567.58 672.31)" ewd:textID="115">风挡玻璃刮水器开关总成<tspan x="0 " dy="6.0" /></text><text style="&st18;" transform="matrix(&st16;  1854.74  270.04 )">W-B</text><path style="stroke-width: 1.42 ;&st7;  " d=" M  1789.67,   494.70  L  1784.70,   499.67  " /><path style="stroke-width: 1.42 ;&st7;  " d=" M  1796.73,   511.70  L  1801.70,   506.73  " /><path style="stroke-width: 1.42 ;&st7;  " d=" M  1784.70,   506.73  L  1789.67,   511.70  " /><text style="&st18;" transform="matrix(&st16; 1567.58 665.20)">E17</text><text style="&st18;" transform="matrix(&st16;  1693.26  660.98 )">W-B</text><text style="&st1;" transform="matrix(&st16; 1567.58 468.34)" ewd:textID="90">电动窗升降器主开关总成<tspan x="0 " dy="6.0" /></text><path style="stroke-width: 1.42 ;&st7;  " d=" M  1801.70,   499.67  L  1796.73,   494.70  " /><text style="&st18;" transform="matrix(&st16;  1854.74  202.05 )">W-B</text><text style="&st18;" transform="matrix(&st16;  1854.74  236.05 )">W-B</text><path style="stroke-width: 1.42 ;&st7;   " d=" M  1529.89,   606.20  C  1527.98    608.34   1527.92    611.47   1529.74    613.68  " /><path style="stroke-width: 1.42 ;&st7;   " d=" M  1529.89,   572.20  C  1527.98    574.35   1527.92    577.48   1529.74    579.69  " /><path style="stroke-width: 1.42 ;&st7;   " d=" M  1529.89,   538.21  C  1527.98    540.35   1527.92    543.48   1529.74    545.69  " /><text style="&st1;" transform="matrix(&st16; 1567.58 510.84)" ewd:textID="45">带电动机的左前门锁总成<tspan x="0 " dy="6.0" /></text><text style="&st1;" transform="matrix(&st16; 1567.58 553.33)" ewd:textID="47">左前车门外把手总成<tspan x="0 " dy="6.0" /></text><text style="&st18;" transform="matrix(&st16; 1567.58 367.75)">H10</text><text style="&st18;" transform="matrix(&st16;  1693.26  363.53 )">W-B</text><text style="&st18;" transform="matrix(&st16;  1692.95  374.86 )">(*17)</text><text style="&st18;" transform="matrix(&st16;  1694.5  553.33 )">(*7)</text><text style="&st18;" transform="matrix(&st16;  1639.05  590.16 )">(E)</text><path style="stroke-width: 1.42 ;&st7;  " d=" M  1563.74,    27.28  L  1563.74,    52.78  L  1648.72,    52.78  L  1648.72,    27.28  L  1563.74,    27.28  " /><path style="stroke-width: 1.42 ;&st7;  " d=" M  1563.74,   579.69  L  1563.74,   630.68  L  1648.72,   630.68  L  1648.72,   579.69  L  1563.74,   579.69  " /><path style="stroke-width: 1.42 ;&st7;  " d=" M  1563.74,   537.20  L  1563.74,   562.69  L  1648.72,   562.69  L  1648.72,   537.20  L  1563.74,   537.20  " /><text style="&st1;" transform="matrix(&st16; 1567.58 43.41)" ewd:textID="74">主车身 ECU</text><text style="&st18;" transform="matrix(&st16;  1629.97  547.66 )">(GND)</text><text style="&st18;" transform="matrix(&st16;  1626.87  37.75 )">(GND1)</text><path style="stroke-width: 1.42 ;&st7;  " d=" M  1563.74,   494.70  L  1563.74,   520.20  L  1648.72,   520.20  L  1648.72,   494.70  L  1563.74,   494.70  " /><text style="&st18;" transform="matrix(&st16;  1639.05  505.17 )">(E)</text><path style="stroke-width: 1.42 ;&st7;  " d=" M  1563.74,   452.21  L  1563.74,   477.71  L  1648.72,   477.71  L  1648.72,   452.21  L  1563.74,   452.21  " /><text style="&st18;" transform="matrix(&st16;  1639.05  462.68 )">(E)</text><path style="stroke-width: 1.42 ;&st7;  " d=" M  1563.74,   409.72  L  1563.74,   435.21  L  1648.72,   435.21  L  1648.72,   409.72  L  1563.74,   409.72  " /><text style="&st18;" transform="matrix(&st16;  1639.05  420.18 )">(E)</text><path style="stroke-width: 1.42 ;&st7;  " d=" M  1563.74,   656.18  L  1563.74,   681.67  L  1648.72,   681.67  L  1648.72,   656.18  L  1563.74,   656.18  " /><text style="&st18;" transform="matrix(&st16;  1633.62  666.64 )">(EW)</text><path style="stroke-width: 1.42 ;&st7;  " d=" M  1563.74,   358.73  L  1563.74,   392.72  L  1648.72,   392.72  L  1648.72,   358.73  L  1563.74,   358.73  " /><text style="&st18;" transform="matrix(&st16;  1981.9  207.72 )">(E1)</text><path style="stroke-width: 1.42 ;&st7;  " d=" M  1980.17,   197.25  L  1980.17,   256.74  L  2065.15,   256.74  L  2065.15,   197.25  L  1980.17,   197.25  " /><text style="&st18;" transform="matrix(&st16;  1981.9  241.71 )">(E2)</text><text style="&st18;" transform="matrix(&st16;  1629.97  369.19 )">(GND)</text><g ewd:figtype="jb" ewd:figID="6" ewd:code="3"><path style="stroke-width: 1.42 ;&st7;  " d=" M  1737.96,   303.48  L  1733.71,   303.48  " /><path style="stroke-width: 1.42 ;&st7;  " d=" M  1737.96,   311.98  L  1733.71,   311.98  " /><path style="stroke-width: 1.42 ;&st7;  " d=" M  1737.96,   269.49  L  1733.71,   269.49  " /><path style="stroke-width: 1.42 ;&st7;  " d=" M  1737.96,   277.99  L  1733.71,   277.99  " /><path style="stroke-width: 1.42 ;&st7;   " d=" M  1733.71,   303.48  C  1731.36    303.48   1729.46    305.39   1729.46    307.73  " /><path style="stroke-width: 1.42 ;&st7;   " d=" M  1729.46,   307.73  C  1729.46    310.08   1731.36    311.98   1733.71    311.98  " /><path style="stroke-width: 1.42 ;&st7;   " d=" M  1737.96,   311.98  C  1740.31    311.98   1742.21    310.08   1742.21    307.73  " /><path style="stroke-width: 1.42 ;&st7;   " d=" M  1742.21,   307.73  C  1742.21    305.39   1740.31    303.48   1737.96    303.48  " /><path style="stroke-width: 1.42 ;&st7;   " d=" M  1733.71,   269.49  C  1731.36    269.49   1729.46    271.39   1729.46    273.74  " /><path style="stroke-width: 1.42 ;&st7;   " d=" M  1729.46,   273.74  C  1729.46    276.09   1731.36    277.99   1733.71    277.99  " /><path style="stroke-width: 1.42 ;&st7;   " d=" M  1737.96,   277.99  C  1740.31    277.99   1742.21    276.09   1742.21    273.74  " /><path style="stroke-width: 1.42 ;&st7;   " d=" M  1742.21,   273.74  C  1742.21    271.39   1740.31    269.49   1737.96    269.49  " /><path style="stroke-width: 0.85 ;&st7;  " d=" M  1648.72,    69.77  L  1699.72,    69.77  " /><path style="stroke-width: 0.85 ;&st7;  " d=" M  1698.52,    68.77  L  1698.25,    69.24  L  1698.16,    69.77  L  1698.25,    70.31  L  1698.52,    70.78  L  1698.94,    71.12  L  1699.44,    71.31  L  1699.99,    71.31  L  1700.49,    71.12  L  1700.91,    70.78  L  1701.18,    70.31  L  1701.27,    69.77  L  1701.18,    69.24  L  1700.91,    68.77  L  1700.49,    68.43  L  1699.99,    68.24  L  1699.44,    68.24  L  1698.94,    68.43  L  1698.52,    68.77  L  1698.92,    69.48  L  1698.92,    70.07  L  1699.29,    70.51  L  1699.86,    70.61  L  1700.37,    70.32  L  1700.57,    69.77  L  1700.37,    69.23  L  1699.86,    68.94  L  1699.29,    69.04  L  1699.72,    69.77  " /><path style="stroke-width: 0.85 ;&st7;  " d=" M  1648.72,   103.77  L  1699.72,   103.77  " /><path style="stroke-width: 0.85 ;&st7;  " d=" M  1698.52,   102.77  L  1698.25,   103.24  L  1698.16,   103.77  L  1698.25,   104.30  L  1698.52,   104.77  L  1698.94,   105.12  L  1699.44,   105.30  L  1699.99,   105.30  L  1700.49,   105.12  L  1700.91,   104.77  L  1701.18,   104.30  L  1701.27,   103.77  L  1701.18,   103.24  L  1700.91,   102.77  L  1700.49,   102.42  L  1699.99,   102.23  L  1699.44,   102.23  L  1698.94,   102.42  L  1698.52,   102.77  L  1698.92,   103.48  L  1698.92,   104.06  L  1699.29,   104.50  L  1699.86,   104.60  L  1700.37,   104.31  L  1700.57,   103.77  L  1700.37,   103.22  L  1699.86,   102.93  L  1699.29,   103.03  L  1699.72,   103.77  " /><path style="stroke-width: 0.85 ;&st7;  " d=" M  1648.72,   137.76  L  1699.72,   137.76  " /><path style="stroke-width: 0.85 ;&st7;  " d=" M  1698.52,   136.76  L  1698.25,   137.23  L  1698.16,   137.76  L  1698.25,   138.30  L  1698.52,   138.77  L  1698.94,   139.11  L  1699.44,   139.30  L  1699.99,   139.30  L  1700.49,   139.11  L  1700.91,   138.77  L  1701.18,   138.30  L  1701.27,   137.76  L  1701.18,   137.23  L  1700.91,   136.76  L  1700.49,   136.41  L  1699.99,   136.23  L  1699.44,   136.23  L  1698.94,   136.41  L  1698.52,   136.76  L  1698.92,   137.47  L  1698.92,   138.05  L  1699.29,   138.50  L  1699.86,   138.60  L  1700.37,   138.31  L  1700.57,   137.76  L  1700.37,   137.22  L  1699.86,   136.93  L  1699.29,   137.03  L  1699.72,   137.76  " /><path style="stroke-width: 0.85 ;&st7;  " d=" M  1648.72,   171.76  L  1699.72,   171.76  " /><path style="stroke-width: 0.85 ;&st7;  " d=" M  1698.52,   170.75  L  1698.25,   171.22  L  1698.16,   171.76  L  1698.25,   172.29  L  1698.52,   172.76  L  1698.94,   173.11  L  1699.44,   173.29  L  1699.99,   173.29  L  1700.49,   173.11  L  1700.91,   172.76  L  1701.18,   172.29  L  1701.27,   171.76  L  1701.18,   171.22  L  1700.91,   170.75  L  1700.49,   170.41  L  1699.99,   170.22  L  1699.44,   170.22  L  1698.94,   170.41  L  1698.52,   170.75  L  1698.92,   171.47  L  1698.92,   172.05  L  1699.29,   172.49  L  1699.86,   172.59  L  1700.37,   172.30  L  1700.57,   171.76  L  1700.37,   171.21  L  1699.86,   170.92  L  1699.29,   171.02  L  1699.72,   171.76  " /><path style="stroke-width: 0.85 ;&st7;  " d=" M  1648.72,   205.75  L  1729.46,   205.75  " /><path style="stroke-width: 0.85 ;&st7;  " d=" M  1729.46,   273.74  L  1648.72,   273.74  " /><path style="stroke-width: 1.42 ;&st7;  " d=" M  1563.74,   299.24  L  1563.74,   324.73  L  1648.72,   324.73  L  1648.72,   299.24  L  1563.74,   299.24  " /><path style="stroke-width: 0.85 ;&st7;  " d=" M  1698.52,   272.74  L  1698.25,   273.21  L  1698.16,   273.74  L  1698.25,   274.27  L  1698.52,   274.74  L  1698.94,   275.09  L  1699.44,   275.28  L  1699.99,   275.28  L  1700.49,   275.09  L  1700.91,   274.74  L  1701.18,   274.27  L  1701.27,   273.74  L  1701.18,   273.21  L  1700.91,   272.74  L  1700.49,   272.39  L  1699.99,   272.20  L  1699.44,   272.20  L  1698.94,   272.39  L  1698.52,   272.74  L  1698.92,   273.45  L  1698.92,   274.03  L  1699.29,   274.48  L  1699.86,   274.58  L  1700.37,   274.29  L  1700.57,   273.74  L  1700.37,   273.19  L  1699.86,   272.90  L  1699.29,   273.00  L  1699.72,   273.74  " /><path style="stroke-width: 0.28 ;&st9;  " d=" M  1724.57,   273.74  L  1721.73,   270.91  L  1725.98,   270.91  L  1728.81,   273.74  L  1725.98,   276.57  L  1721.73,   276.57  L  1724.57,   273.74  " /><path style="stroke-width: 0.28 ;&st9;  " d=" M  1724.57,   307.73  L  1721.73,   304.90  L  1725.98,   304.90  L  1728.81,   307.73  L  1725.98,   310.57  L  1721.73,   310.57  L  1724.57,   307.73  " /><path style="stroke-width: 0.85 ;&st7;  " d=" M  1729.46,   307.73  L  1648.72,   307.73  " /><path style="stroke-width: 0.85 ;&st7;  " d=" M  1698.52,   238.74  L  1698.25,   239.21  L  1698.16,   239.75  L  1698.25,   240.28  L  1698.52,   240.75  L  1698.94,   241.09  L  1699.44,   241.28  L  1699.99,   241.28  L  1700.49,   241.09  L  1700.91,   240.75  L  1701.18,   240.28  L  1701.27,   239.75  L  1701.18,   239.21  L  1700.91,   238.74  L  1700.49,   238.40  L  1699.99,   238.21  L  1699.44,   238.21  L  1698.94,   238.40  L  1698.52,   238.74  L  1698.92,   239.45  L  1698.92,   240.04  L  1699.29,   240.48  L  1699.86,   240.58  L  1700.37,   240.29  L  1700.57,   239.75  L  1700.37,   239.20  L  1699.86,   238.91  L  1699.29,   239.01  L  1699.72,   239.75  " /><path style="stroke-width: 0.85 ;&st7;  " d=" M  1698.52,   204.75  L  1698.25,   205.22  L  1698.16,   205.75  L  1698.25,   206.28  L  1698.52,   206.75  L  1698.94,   207.10  L  1699.44,   207.29  L  1699.99,   207.29  L  1700.49,   207.10  L  1700.91,   206.75  L  1701.18,   206.28  L  1701.27,   205.75  L  1701.18,   205.22  L  1700.91,   204.75  L  1700.49,   204.40  L  1699.99,   204.22  L  1699.44,   204.22  L  1698.94,   204.40  L  1698.52,   204.75  L  1698.92,   205.46  L  1698.92,   206.04  L  1699.29,   206.49  L  1699.86,   206.59  L  1700.37,   206.30  L  1700.57,   205.75  L  1700.37,   205.20  L  1699.86,   204.92  L  1699.29,   205.01  L  1699.72,   205.75  " /><path style="stroke-width: 0.85 ;&st7;  " d=" M  1698.52,   306.73  L  1698.25,   307.20  L  1698.16,   307.73  L  1698.25,   308.27  L  1698.52,   308.74  L  1698.94,   309.08  L  1699.44,   309.27  L  1699.99,   309.27  L  1700.49,   309.08  L  1700.91,   308.74  L  1701.18,   308.27  L  1701.27,   307.73  L  1701.18,   307.20  L  1700.91,   306.73  L  1700.49,   306.39  L  1699.99,   306.20  L  1699.44,   306.20  L  1698.94,   306.39  L  1698.52,   306.73  L  1698.92,   307.44  L  1698.92,   308.03  L  1699.29,   308.47  L  1699.86,   308.57  L  1700.37,   308.28  L  1700.57,   307.73  L  1700.37,   307.19  L  1699.86,   306.90  L  1699.29,   307.00  L  1699.72,   307.73  " /><path style="stroke-width: 0.85 ;&st7;  " d=" M  1648.72,   239.75  L  1729.46,   239.75  " /><path style="stroke-width: 1.42 ;&st7;  " d=" M  1563.74,   265.24  L  1563.74,   290.74  L  1648.72,   290.74  L  1648.72,   265.24  L  1563.74,   265.24  " /><path style="stroke-width: 1.42 ;&st7;  " d=" M  1563.74,   231.25  L  1563.74,   256.74  L  1648.72,   256.74  L  1648.72,   231.25  L  1563.74,   231.25  " /><path style="stroke-width: 1.42 ;&st7;  " d=" M  1563.74,   197.25  L  1563.74,   222.75  L  1648.72,   222.75  L  1648.72,   197.25  L  1563.74,   197.25  " /><path style="stroke-width: 1.42 ;&st7;  " d=" M  1563.74,   163.26  L  1563.74,   188.75  L  1648.72,   188.75  L  1648.72,   163.26  L  1563.74,   163.26  " /><path style="stroke-width: 1.42 ;&st7;  " d=" M  1563.74,   129.26  L  1563.74,   154.76  L  1648.72,   154.76  L  1648.72,   129.26  L  1563.74,   129.26  " /><path style="stroke-width: 1.42 ;&st7;  " d=" M  1563.74,    95.27  L  1563.74,   120.77  L  1648.72,   120.77  L  1648.72,    95.27  L  1563.74,    95.27  " /><path style="stroke-width: 1.42 ;&st7;  " d=" M  1563.74,    61.28  L  1563.74,    86.77  L  1648.72,    86.77  L  1648.72,    61.28  L  1563.74,    61.28  " /><text style="&st18;" transform="matrix(&st16;  1732.48  266.5 )">12</text><text style="&st18;" transform="matrix(&st16;  1731.9  275.71 )">3D</text><text style="&st18;" transform="matrix(&st16;  1734.03  300.5 )">9</text><text style="&st18;" transform="matrix(&st16;  1731.86  309.7 )">3C</text><text style="&st1;" transform="matrix(&st16; 1567.58 315.37)" ewd:textID="69">LUG LOCK<tspan x="0 " dy="6.0">继电器</tspan></text><text style="&st1;" transform="matrix(&st16; 1567.58 281.37)" ewd:textID="38">D/UNLOCK 继电器</text><text style="&st1;" transform="matrix(&st16; 1567.58 247.38)" ewd:textID="37">D/LOCK 继电器</text><text style="&st1;" transform="matrix(&st16; 1567.58 213.39)" ewd:textID="21">ACC 继电器</text><text style="&st1;" transform="matrix(&st16; 1567.58 179.39)" ewd:textID="62">3 号 IG1 继电器</text><text style="&st1;" transform="matrix(&st16; 1567.58 145.40)" ewd:textID="61">2 号 IG1 继电器</text><text style="&st1;" transform="matrix(&st16; 1567.58 111.40)" ewd:textID="60">1 号 IG1 继电器</text><text style="&st1;" transform="matrix(&st16; 1567.58 77.41)" ewd:textID="87">POWER 继电器</text><path style="stroke-width: 0.85 ;&st7;  " d=" M  1648.72,    35.78  L  1699.72,    35.78  L  1699.72,   307.73  " /><path style="stroke-width: 1.42 ;&st7;  " d=" M  1737.96,   201.50  L  1733.71,   201.50  " /><path style="stroke-width: 1.42 ;&st7;  " d=" M  1737.96,   210.00  L  1733.71,   210.00  " /><path style="stroke-width: 1.42 ;&st7;   " d=" M  1733.71,   201.50  C  1731.36    201.50   1729.46    203.40   1729.46    205.75  " /><path style="stroke-width: 1.42 ;&st7;   " d=" M  1729.46,   205.75  C  1729.46    208.10   1731.36    210.00   1733.71    210.00  " /><path style="stroke-width: 1.42 ;&st7;   " d=" M  1737.96,   210.00  C  1740.31    210.00   1742.21    208.10   1742.21    205.75  " /><path style="stroke-width: 1.42 ;&st7;   " d=" M  1742.21,   205.75  C  1742.21    203.40   1740.31    201.50   1737.96    201.50  " /><path style="stroke-width: 0.28 ;&st9;  " d=" M  1724.57,   205.75  L  1721.73,   202.92  L  1725.98,   202.92  L  1728.81,   205.75  L  1725.98,   208.58  L  1721.73,   208.58  L  1724.57,   205.75  " /><text style="&st18;" transform="matrix(&st16;  1731.86  207.72 )">3C</text><text style="&st18;" transform="matrix(&st16;  1732.48  198.51 )">47</text><path style="stroke-width: 1.42 ;&st7;  " d=" M  1737.96,   235.50  L  1733.71,   235.50  " /><path style="stroke-width: 1.42 ;&st7;  " d=" M  1737.96,   243.99  L  1733.71,   243.99  " /><path style="stroke-width: 1.42 ;&st7;   " d=" M  1733.71,   235.50  C  1731.36    235.50   1729.46    237.40   1729.46    239.75  " /><path style="stroke-width: 1.42 ;&st7;   " d=" M  1729.46,   239.75  C  1729.46    242.09   1731.36    243.99   1733.71    243.99  " /><path style="stroke-width: 1.42 ;&st7;   " d=" M  1737.96,   243.99  C  1740.31    243.99   1742.21    242.09   1742.21    239.75  " /><path style="stroke-width: 1.42 ;&st7;   " d=" M  1742.21,   239.75  C  1742.21    237.40   1740.31    235.50   1737.96    235.50  " /><path style="stroke-width: 0.28 ;&st9;  " d=" M  1724.57,   239.75  L  1721.73,   236.91  L  1725.98,   236.91  L  1728.81,   239.75  L  1725.98,   242.58  L  1721.73,   242.58  L  1724.57,   239.75  " /><text style="&st18;" transform="matrix(&st16;  1731.86  241.71 )">3C</text><text style="&st18;" transform="matrix(&st16;  1732.48  232.51 )">26</text></g><g ewd:figtype="w2w" ewd:figID="9" ewd:code="OE1"><path style="stroke-width: 1.42 ;&st7;  " d=" M  1754.96,   622.75  L  1750.71,   618.50  L  1746.46,   622.75  " /><path style="stroke-width: 1.42 ;&st7;  " d=" M  1754.96,   619.35  L  1750.71,   615.10  L  1746.46,   619.35  " /><text style="&st18;" transform="matrix(&st16;  1734.97  611.4 )">15</text></g><g ewd:figtype="w2w" ewd:figID="10" ewd:code="HE3"><path style="stroke-width: 1.42 ;&st7;  " d=" M  1797.45,   619.35  L  1793.20,   615.10  L  1788.95,   619.35  " /><path style="stroke-width: 1.42 ;&st7;  " d=" M  1797.45,   622.75  L  1793.20,   618.50  L  1788.95,   622.75  " /><text style="&st18;" transform="matrix(&st16;  1780.57  611.4 )">8</text></g><g ewd:figtype="gp" ewd:figID="30" ewd:code="EA"><path style="stroke-width: 0.85 ;&st7;  " d=" M  1793.20,   697.25  L  1793.20,   701.50  " /><path style="stroke-width: 0.85 ;&st7;  " d=" M  1784.70,   701.50  L  1801.70,   701.50  " /><path style="stroke-width: 0.85 ;&st7;  " d=" M  1788.95,   704.33  L  1797.45,   704.33  " /><path style="stroke-width: 0.85 ;&st7;  " d=" M  1790.37,   707.17  L  1796.03,   707.17  " /><path style="stroke-width: 0.85 ;&st7;  " d=" M  1791.78,   710.00  L  1794.62,   710.00  " /></g><g ewd:figtype="annex" ewd:figID="88" ewd:code=" "><path style="stroke-width: 1.42 ;&st7;   " d=" M  1529.89,   606.20  C  1527.98    608.34   1527.92    611.47   1529.74    613.68  " /><path style="stroke-width: 1.42 ;&st7;   " d=" M  1529.60,   621.17  C  1531.51    619.03   1531.57    615.89   1529.74    613.68  " /></g><g ewd:figtype="annex" ewd:figID="89" ewd:code=" "><path style="stroke-width: 1.42 ;&st7;   " d=" M  1529.89,   572.20  C  1527.98    574.35   1527.92    577.48   1529.74    579.69  " /><path style="stroke-width: 1.42 ;&st7;   " d=" M  1529.60,   587.17  C  1531.51    585.03   1531.57    581.90   1529.74    579.69  " /></g><g ewd:figtype="annex" ewd:figID="90" ewd:code=" "><path style="stroke-width: 1.42 ;&st7;   " d=" M  1529.89,   538.21  C  1527.98    540.35   1527.92    543.48   1529.74    545.69  " /><path style="stroke-width: 1.42 ;&st7;   " d=" M  1529.60,   553.18  C  1531.51    551.04   1531.57    547.91   1529.74    545.69  " /></g><g ewd:code="7" ewd:figID="87" ewd:comment="" ewd:figtype="comment"><text style="&st1;" transform="matrix(&st16;  1815.29  97.24 )" ewd:textID="6">* 7: 带智能进入和起动系统</text></g><g ewd:code="8" ewd:figID="92" ewd:comment="" ewd:figtype="comment"><text style="&st1;" transform="matrix(&st16;  1815.29  105.74 )" ewd:textID="7">* 8 : 带滑动天窗</text></g><g ewd:code="17" ewd:figID="91" ewd:comment="" ewd:figtype="comment"><text style="&st1;" transform="matrix(&st16;  1815.29  114.24 )" ewd:textID="14">* 17 : 带防夹功能</text></g></svg>