<?xml version="1.0" encoding="utf-8"?>
<!DOCTYPE svg PUBLIC "-//W3C//DTD SVG 1.0//EN" "http://www.w3.org/TR/2001/REC-SVG-20010904/DTD/svg10.dtd"[
	<!ENTITY ns_flows "http://ns.adobe.com/Flows/1.0/">
	<!ENTITY ns_svg "http://www.w3.org/2000/svg">
	<!ENTITY ns_xlink "http://www.w3.org/1999/xlink">
	<!ENTITY st0 "font-size:7px;font-family:'NSimSun';adobe-font-script:japanese;">
	<!ENTITY st1 "font-size:6px;font-family:'NSimSun';">
	<!-- White fill  -->
	<!ENTITY st2 "fill:#FFFFFF;stroke:#000000; stroke-width:1.41;stroke-linecap:round;stroke-linejoin:round;">
	<!-- Yellow fill  -->
	<!ENTITY st3 "fill:#FFFFCC;stroke:#FFFFCC; stroke-width:0.1;stroke-linecap:round;stroke-linejoin:round;">
	<!-- Gray fill  -->
	<!ENTITY st4 "fill:#CCCCCC;stroke:#CCCCCC; stroke-width:0.1;stroke-linecap:round;stroke-linejoin:round;">
	<!-- Light-blue fill -->
	<!ENTITY st5 "fill:#CCECF4;stroke:#000000; stroke-width:1.133;stroke-linecap:round;stroke-linejoin:round;">
	<!ENTITY st6 "fill:none;stroke-linecap:butt; stroke-linejoin:round;">
	<!ENTITY st7 "fill:none;stroke:#000000;stroke-linecap:round;stroke-linejoin:round;">
	<!ENTITY st8 "enable-background:new    ;">
	<!-- Black fill -->
	<!ENTITY st9 "fill:#000000;stroke:#000000; stroke-linecap:round;stroke-linejoin:round;">
	<!-- SRS note   -->
	<!ENTITY st10 "font-size:9px;font-family:'NSimSun';">
	<!ENTITY st11 "font-size:9px;font-family:'NSimSun';">
	<!ENTITY st12 "font-size:6px;font-family:'NSimSun';">
	<!ENTITY st13 "fill:none;stroke:#ff0000;stroke-linecap:round;stroke-linejoin:round;">
	<!-- Yellow fill  -->
	<!ENTITY st14 "fill:#FFFF00;stroke:#FFFF00; stroke-width:0.1;stroke-linecap:round;stroke-linejoin:round;">
	<!ENTITY st15 "font-size:6px;font-family:'NSimSun';adobe-font-script:japanese;">
	<!ENTITY st16 "1.00 0.00 0.00 1.00">
	<!ENTITY st17 "0.00 -1.00 1.00 0.00">
	<!ENTITY st18 "font-size:6px;font-family:'NSimSun';">
	<!ENTITY st19 "font-size:9px;font-family:'NSimSun';">
	<!ENTITY st20 "font-size:6px;font-family:'NSimSun';adobe-font-script:japanese;">
	<!ENTITY st21 "font-size:7px;font-family:'NSimSun';adobe-font-script:japanese;">
	<!ATTLIST svg
		xmlns:ewd CDATA #FIXED "http://shcl.co.jp/ewd"
		xmlns:a CDATA #FIXED "http://ns.adobe.com/AdobeSVGViewerExtensions/3.0/"
		ewd:ver CDATA #IMPLIED
	>
	<!ATTLIST a
		ewd:lineID CDATA #IMPLIED
		ewd:groupID CDATA #IMPLIED
		ewd:figtype CDATA #IMPLIED
		ewd:code CDATA #IMPLIED
		ewd:figID CDATA #IMPLIED
		ewd:pinNo CDATA #IMPLIED
		ewd:comment CDATA #IMPLIED >
	<!ATTLIST g
		ewd:lineID CDATA #IMPLIED
		ewd:groupID CDATA #IMPLIED
		ewd:figtype CDATA #IMPLIED
		ewd:code CDATA #IMPLIED
		ewd:figID CDATA #IMPLIED
		ewd:pinNo CDATA #IMPLIED
		ewd:comment CDATA #IMPLIED >
	<!ATTLIST text
		ewd:textID CDATA #IMPLIED
		ewd:horAlign CDATA #IMPLIED >
	<!ATTLIST title
		ewd:textID CDATA #IMPLIED >
]>
<!-- Generator: Shintec Hozumi YS   -->
<svg onload="call_execInitLoadProc_svg('system')" style="overflow:visible;  enable-background:new 0 0 4147.407 710.000" viewBox="0 0 4147.314 710.000" height="710.000" width="4147.314" xml:space="preserve" ewd:ver="2.1.2.6F" xmlns="&ns_svg;" xmlns:ewd="http://shcl.co.jp/ewd" xmlns:a="http://ns.adobe.com/AdobeSVGViewerExtensions/3.0/" xmlns:xlink="&ns_xlink;">
<text style="&st1;" transform="matrix(&st16;  2524.92  306.87 )" ewd:textID="80">3 号加热器控制<tspan x="0 " dy="6.0">装置分总成</tspan><tspan x="0 " dy="6.0" /><tspan x="0" dy="6" style="&st1;" /></text><text style="&st1;" transform="matrix(&st16; 2604.41 459.84)" ewd:textID="86">右侧车外后视镜总成<tspan x="0 " dy="6.0" /></text><text style="&st1;" transform="matrix(&st16;  2524.92  357.86 )" ewd:textID="20">空调控制总成<tspan x="0 " dy="6.0" /></text><text style="&st1;" transform="matrix(&st16;  2524.92  128.4 )" ewd:textID="32">间隙警告<tspan x="0 " dy="6.0">ECU 总成</tspan></text><text style="&st18;" transform="matrix(&st16;  2524.91  520.73 )">O4</text><text style="&st1;" transform="matrix(&st16;  2524.92  170.89 )" ewd:textID="111">应答器钥匙<tspan x="0 " dy="6.0">ECU 总成</tspan></text><text style="&st18;" transform="matrix(&st16;  2524.91  665.2 )">A2</text><text style="&st1;" transform="matrix(&st16;  2524.92  527.83 )" ewd:textID="75">阅读灯总成<tspan x="0 " dy="6.0" /></text><text style="&st1;" transform="matrix(&st16; 2604.41 502.34)" ewd:textID="46">带电动机的右前门锁总成<tspan x="0 " dy="6.0" /></text><text style="&st18;" transform="matrix(&st16;  2524.91  350.76 )">E20</text><text style="&st18;" transform="matrix(&st16;  2524.91  248.77 )">E53</text><text style="&st18;" transform="matrix(&st16;  2524.91  299.76 )">E22</text><text style="&st1;" transform="matrix(&st16;  2524.92  85.91 )" ewd:textID="19">空调放大器总成<tspan x="0 " dy="6.0" /></text><text style="&st18;" transform="matrix(&st16;  2524.91  614.21 )">E51</text><text style="&st18;" transform="matrix(&st16;  2524.91  163.79 )">E29</text><text style="&st18;" transform="matrix(&st16;  2524.91  206.28 )">E28</text><text style="&st18;" transform="matrix(&st16;  2524.91  36.31 )">E43</text><text style="&st18;" transform="matrix(&st16;  2704.59  32.08 )">W-B</text><text style="&st1;" transform="matrix(&st16; 2604.41 587.32)" ewd:textID="26">鼓风机电阻器</text><text style="&st1;" transform="matrix(&st16;  2524.92  213.39 )" ewd:textID="59">ID 代码箱</text><text style="&st18;" transform="matrix(&st16;  2524.91  121.29 )">E63</text><text style="&st18;" transform="matrix(&st16;  2524.91  78.8 )">E11</text><text style="&st1;" transform="matrix(&st16;  2524.92  255.88 )" ewd:textID="54">危险警告信号<tspan x="0 " dy="6.0">开关总成</tspan><tspan x="0 " dy="6.0" /><tspan x="0" dy="6" style="&st1;" /></text><text style="&st1;" transform="matrix(&st16; 2604.41 170.89)" ewd:textID="77">1 号加热器控制<tspan x="0 " dy="6.0">装置分总成</tspan><tspan x="0" dy="6" style="&st1;" /></text><text style="&st1;" transform="matrix(&st16; 2604.41 672.31)" ewd:textID="79">2 号加热器控制装置分总成<tspan x="0 " dy="6.0" /></text><text style="&st1;" transform="matrix(&st16;  2524.92  485.34 )" ewd:textID="78">1 号车厢照明灯总成<tspan x="0 " dy="6.0" /></text><text style="&st1;" transform="matrix(&st16; 2604.41 629.82)" ewd:textID="25">带风扇的鼓风机<tspan x="0 " dy="6.0">马达分总成</tspan><tspan x="0" dy="6" style="&st1;" /></text><text style="&st1;" transform="matrix(&st16;  2524.92  400.35 )" ewd:textID="113">VSC OFF 开关</text><text style="&st18;" transform="matrix(&st16; 2604.40 665.20)">E58</text><text style="&st18;" transform="matrix(&st16;  2700.34  660.98 )">W-B</text><text style="&st18;" transform="matrix(&st16;  2976.55  660.98 )">W-B</text><text style="&st18;" transform="matrix(&st16;  2976.55  491.01 )">W-B</text><text style="&st18;" transform="matrix(&st16;  2789.58  660.98 )">W-B</text><text style="&st18;" transform="matrix(&st16;  2700.03  672.31 )">(*12)</text><path style="stroke-width: 1.42 ;&st7;  " d=" M  2923.51,    31.53  L  2923.51,    35.78  " /><text style="&st18;" transform="matrix(&st16;  2976.55  159.56 )">W-B</text><text style="&st18;" transform="matrix(&st16;  2976.55  244.55 )">W-B</text><text style="&st18;" transform="matrix(&st16;  2976.55  278.54 )">W-B</text><text style="&st18;" transform="matrix(&st16;  2976.55  32.08 )">W-B</text><text style="&st18;" transform="matrix(&st16;  2976.55  202.05 )">W-B</text><text style="&st18;" transform="matrix(&st16; 2604.40 495.23)">G8</text><text style="&st18;" transform="matrix(&st16;  2713.09  491.01 )">W-B</text><text style="&st18;" transform="matrix(&st16;  2713.09  533.5 )">W-B</text><text style="&st18;" transform="matrix(&st16; 2604.40 537.72)">G7</text><text style="&st18;" transform="matrix(&st16; 2604.40 622.71)">E30</text><text style="&st18;" transform="matrix(&st16;  2700.34  618.48 )">W-B</text><text style="&st18;" transform="matrix(&st16; 2604.40 580.22)">E23</text><text style="&st18;" transform="matrix(&st16;  2713.09  575.99 )">W-B</text><path style="stroke-width: 1.42 ;&st7;  " d=" M  2787.53,   533.67  L  2782.56,   528.70  " /><path style="stroke-width: 1.42 ;&st7;  " d=" M  2770.54,   540.73  L  2775.51,   545.69  " /><path style="stroke-width: 1.42 ;&st7;  " d=" M  2782.56,   545.69  L  2787.53,   540.73  " /><path style="stroke-width: 1.42 ;&st7;  " d=" M  2775.51,   528.70  L  2770.54,   533.67  " /><text style="&st18;" transform="matrix(&st16;  2978.95  117.07 )">BR</text><text style="&st18;" transform="matrix(&st17;  2775.34  636.63 )">W-B</text><text style="&st18;" transform="matrix(&st17;  2775.34  564.4 )">W-B</text><text style="&st18;" transform="matrix(&st16;  2712.78  587.32 )">(*12)</text><text style="&st18;" transform="matrix(&st16;  2700.03  629.82 )">(*13)</text><text style="&st18;" transform="matrix(&st17;  2809.33  334.93 )">W-B</text><text style="&st18;" transform="matrix(&st16;  2857.57  32.08 )">W-B</text><text style="&st18;" transform="matrix(&st16;  2976.55  431.52 )">W-B</text><path style="stroke-width: 1.42 ;&st7;  " d=" M  2787.53,   596.69  L  2779.04,   596.69  " /><text style="&st18;" transform="matrix(&st16;  2976.55  626.98 )">W-B</text><text style="&st18;" transform="matrix(&st16;  2977.79  638.31 )">(*7)</text><text style="&st18;" transform="matrix(&st16;  2977.79  672.31 )">(*7)</text><text style="&st18;" transform="matrix(&st16;  2976.55  74.58 )">W-B</text><text style="&st18;" transform="matrix(&st16;  2976.24  332.37 )">(*14)</text><text style="&st18;" transform="matrix(&st16;  2978.95  321.03 )">BR</text><text style="&st18;" transform="matrix(&st16;  2976.24  374.86 )">(*15)</text><text style="&st18;" transform="matrix(&st16;  2978.95  363.53 )">BR</text><text style="&st18;" transform="matrix(&st16; 2604.40 36.31)">E75</text><text style="&st18;" transform="matrix(&st16; 2604.40 121.29)">E20</text><text style="&st1;" transform="matrix(&st16;  2524.92  672.31 )" ewd:textID="108">刹车灯开关总成<tspan x="0 " dy="6.0" /></text><text style="&st18;" transform="matrix(&st16; 2604.40 163.79)">E57</text><path style="stroke-width: 1.42 ;&st7;  " d=" M  2787.53,   491.18  L  2782.56,   486.20  " /><path style="stroke-width: 1.42 ;&st7;  " d=" M  2770.54,   498.23  L  2775.51,   503.20  " /><path style="stroke-width: 1.42 ;&st7;  " d=" M  2782.56,   503.20  L  2787.53,   498.23  " /><path style="stroke-width: 1.42 ;&st7;  " d=" M  2775.51,   486.20  L  2770.54,   491.18  " /><text style="&st18;" transform="matrix(&st16;  2747.09  423.02 )">W-B</text><text style="&st1;" transform="matrix(&st16;  2524.92  621.32 )" ewd:textID="106">转向锁执行器总成<tspan x="0 " dy="6.0" /></text><text style="&st18;" transform="matrix(&st16; 2604.40 452.74)">G10</text><text style="&st18;" transform="matrix(&st16;  2714.33  502.34 )">(*7)</text><text style="&st18;" transform="matrix(&st16;  2714.33  544.83 )">(*7)</text><text style="&st18;" transform="matrix(&st17;  2775.34  521.9 )">W-B</text><text style="&st18;" transform="matrix(&st16;  2713.09  448.51 )">W-B</text><text style="&st18;" transform="matrix(&st16;  2714.33  459.84 )">(*7)</text><text style="&st18;" transform="matrix(&st16;  2746.78  434.35 )">(*10)</text><text style="&st18;" transform="matrix(&st16;  2524.91  393.25 )">E60</text><text style="&st1;" transform="matrix(&st16;  2524.92  43.41 )" ewd:textID="19">空调放大器总成<tspan x="0 " dy="6.0" /></text><text style="&st18;" transform="matrix(&st16;  2524.91  478.23 )">O6</text><text style="&st1;" transform="matrix(&st16; 2604.41 544.83)" ewd:textID="48">右前车门外把手总成<tspan x="0 " dy="6.0" /></text><text style="&st18;" transform="matrix(&st16;  2976.24  128.4 )">(*10)</text><text style="&st18;" transform="matrix(&st16;  2704.59  117.07 )">W-B</text><text style="&st18;" transform="matrix(&st16;  2704.28  128.4 )">(*13)</text><text style="&st18;" transform="matrix(&st16;  2704.59  159.56 )">W-B</text><text style="&st18;" transform="matrix(&st16;  2704.28  170.89 )">(*12)</text><text style="&st18;" transform="matrix(&st16;  2978.95  397.52 )">BR</text><text style="&st18;" transform="matrix(&st16;  2976.24  408.85 )">(*16)</text><text style="&st18;" transform="matrix(&st16;  2978.95  525.0 )">BR</text><text style="&st18;" transform="matrix(&st16;  2977.79  536.33 )">(*6)</text><text style="&st18;" transform="matrix(&st16;  2976.55  558.99 )">W-B</text><text style="&st18;" transform="matrix(&st16;  2978.95  592.99 )">BR</text><text style="&st18;" transform="matrix(&st16;  2976.24  442.85 )">(*24)</text><text style="&st1;" transform="matrix(&st16; 2604.41 43.41)" ewd:textID="84">车外后视镜开关总成<tspan x="0 " dy="6.0" /></text><text style="&st1;" transform="matrix(&st16; 2604.41 128.40)" ewd:textID="20">空调控制总成<tspan x="0 " dy="6.0" /></text><text style="&st18;" transform="matrix(&st16; 2604.40 206.28)">E60</text><text style="&st18;" transform="matrix(&st16;  2704.59  202.05 )">W-B</text><text style="&st18;" transform="matrix(&st16;  2705.83  213.39 )">(*6)</text><text style="&st1;" transform="matrix(&st16; 2604.41 213.39)" ewd:textID="113">VSC OFF<tspan x="0 " dy="6.0">开关</tspan></text><text style="&st18;" transform="matrix(&st16;  2500.32  666.64 )">(GND)</text><text style="&st18;" transform="matrix(&st16;  2500.32  352.2 )">(ILL-)</text><text style="&st18;" transform="matrix(&st16;  2500.32  522.17 )">(GND)</text><text style="&st18;" transform="matrix(&st16;  2500.32  250.21 )">(ILL-)</text><text style="&st18;" transform="matrix(&st16;  2500.32  301.2 )">(ILL-)</text><text style="&st18;" transform="matrix(&st16;  2500.32  615.65 )">(GND)</text><text style="&st18;" transform="matrix(&st16;  2500.32  165.23 )">(GND)</text><text style="&st18;" transform="matrix(&st16;  2500.32  207.72 )">(GND)</text><text style="&st18;" transform="matrix(&st16;  2500.32  37.75 )">(GND)</text><text style="&st18;" transform="matrix(&st16;  2500.32  122.73 )">(E)</text><text style="&st18;" transform="matrix(&st16;  2500.32  80.24 )">(GND)</text><path style="stroke-width: 1.42 ;&st7;  " d=" M  2600.56,   656.18  L  2600.56,   681.67  L  2685.55,   681.67  L  2685.55,   656.18  L  2600.56,   656.18  " /><text style="&st18;" transform="matrix(&st16;  2675.87  666.64 )">(E)</text><text style="&st18;" transform="matrix(&st16;  2675.87  496.67 )">(E)</text><path style="stroke-width: 1.42 ;&st7;  " d=" M  2600.56,   486.20  L  2600.56,   511.70  L  2685.55,   511.70  L  2685.55,   486.20  L  2600.56,   486.20  " /><path style="stroke-width: 1.42 ;&st7;  " d=" M  2600.56,   528.70  L  2600.56,   554.19  L  2685.55,   554.19  L  2685.55,   528.70  L  2600.56,   528.70  " /><text style="&st18;" transform="matrix(&st16;  2666.8  539.16 )">(GND)</text><text style="&st18;" transform="matrix(&st16;  2666.8  624.15 )">(GND)</text><path style="stroke-width: 1.42 ;&st7;  " d=" M  2600.56,   613.68  L  2600.56,   639.18  L  2685.55,   639.18  L  2685.55,   613.68  L  2600.56,   613.68  " /><text style="&st18;" transform="matrix(&st16;  2675.87  581.66 )">(E)</text><path style="stroke-width: 1.42 ;&st7;  " d=" M  2600.56,   571.19  L  2600.56,   596.69  L  2685.55,   596.69  L  2685.55,   571.19  L  2600.56,   571.19  " /><text style="&st18;" transform="matrix(&st16;  2675.87  37.75 )">(E)</text><path style="stroke-width: 1.42 ;&st7;  " d=" M  2600.56,    27.28  L  2600.56,    52.78  L  2685.55,    52.78  L  2685.55,    27.28  L  2600.56,    27.28  " /><path style="stroke-width: 1.42 ;&st7;  " d=" M  2600.56,   112.27  L  2600.56,   137.76  L  2685.55,   137.76  L  2685.55,   112.27  L  2600.56,   112.27  " /><text style="&st18;" transform="matrix(&st16;  2666.8  122.73 )">(GND)</text><path style="stroke-width: 1.42 ;&st7;  " d=" M  2600.56,   154.76  L  2600.56,   180.26  L  2685.55,   180.26  L  2685.55,   154.76  L  2600.56,   154.76  " /><text style="&st18;" transform="matrix(&st16;  2667.81  165.23 )">(REC)</text><path style="stroke-width: 1.42 ;&st7;  " d=" M  2600.56,   443.71  L  2600.56,   469.21  L  2685.55,   469.21  L  2685.55,   443.71  L  2600.56,   443.71  " /><text style="&st18;" transform="matrix(&st16;  2675.87  454.18 )">(E)</text><text style="&st18;" transform="matrix(&st16;  2500.32  394.69 )">(ILL-)</text><text style="&st18;" transform="matrix(&st16;  2500.32  479.67 )">(E)</text><path style="stroke-width: 1.42 ;&st7;  " d=" M  2600.56,   197.25  L  2600.56,   222.75  L  2685.55,   222.75  L  2685.55,   197.25  L  2600.56,   197.25  " /><text style="&st18;" transform="matrix(&st16;  2675.87  207.72 )">(E)</text><g ewd:figtype="conn" ewd:figID="2" ewd:code="E71"><path style="stroke-width: 0.85 ;&st7;  " d=" M  2804.53,   120.77  L  2821.53,   120.77  " /><path style="stroke-width: 0.85 ;&st7;  " d=" M  2811.84,   119.76  L  2811.56,   120.23  L  2811.47,   120.77  L  2811.56,   121.30  L  2811.84,   121.77  L  2812.25,   122.11  L  2812.76,   122.30  L  2813.30,   122.30  L  2813.81,   122.11  L  2814.22,   121.77  L  2814.49,   121.30  L  2814.59,   120.77  L  2814.49,   120.23  L  2814.22,   119.76  L  2813.81,   119.42  L  2813.30,   119.23  L  2812.76,   119.23  L  2812.25,   119.42  L  2811.84,   119.76  L  2812.23,   120.47  L  2812.23,   121.06  L  2812.60,   121.50  L  2813.18,   121.60  L  2813.68,   121.31  L  2813.88,   120.77  L  2813.68,   120.22  L  2813.18,   119.93  L  2812.60,   120.03  L  2813.03,   120.77  " /><path style="stroke-width: 1.42 ;&st7;  " d=" M  2804.53,    27.28  L  2821.53,    27.28  L  2821.53,   290.74  L  2804.53,   290.74  L  2804.53,    27.28  " /><path style="stroke-width: 0.85 ;&st7;  " d=" M  2804.53,    35.78  L  2821.53,    35.78  " /><path style="stroke-width: 0.85 ;&st7;  " d=" M  2811.84,   281.24  L  2811.56,   281.71  L  2811.47,   282.24  L  2811.56,   282.77  L  2811.84,   283.24  L  2812.25,   283.59  L  2812.76,   283.77  L  2813.30,   283.77  L  2813.81,   283.59  L  2814.22,   283.24  L  2814.49,   282.77  L  2814.59,   282.24  L  2814.49,   281.71  L  2814.22,   281.24  L  2813.81,   280.89  L  2813.30,   280.70  L  2812.76,   280.70  L  2812.25,   280.89  L  2811.84,   281.24  L  2812.23,   281.95  L  2812.23,   282.53  L  2812.60,   282.97  L  2813.18,   283.07  L  2813.68,   282.79  L  2813.88,   282.24  L  2813.68,   281.69  L  2813.18,   281.40  L  2812.60,   281.50  L  2813.03,   282.24  " /><path style="stroke-width: 0.85 ;&st7;  " d=" M  2811.84,   204.75  L  2811.56,   205.22  L  2811.47,   205.75  L  2811.56,   206.28  L  2811.84,   206.75  L  2812.25,   207.10  L  2812.76,   207.29  L  2813.30,   207.29  L  2813.81,   207.10  L  2814.22,   206.75  L  2814.49,   206.28  L  2814.59,   205.75  L  2814.49,   205.22  L  2814.22,   204.75  L  2813.81,   204.40  L  2813.30,   204.22  L  2812.76,   204.22  L  2812.25,   204.40  L  2811.84,   204.75  L  2812.23,   205.46  L  2812.23,   206.04  L  2812.60,   206.49  L  2813.18,   206.59  L  2813.68,   206.30  L  2813.88,   205.75  L  2813.68,   205.20  L  2813.18,   204.92  L  2812.60,   205.01  L  2813.03,   205.75  " /><path style="stroke-width: 0.85 ;&st7;  " d=" M  2811.84,   162.26  L  2811.56,   162.73  L  2811.47,   163.26  L  2811.56,   163.79  L  2811.84,   164.26  L  2812.25,   164.61  L  2812.76,   164.79  L  2813.30,   164.79  L  2813.81,   164.61  L  2814.22,   164.26  L  2814.49,   163.79  L  2814.59,   163.26  L  2814.49,   162.73  L  2814.22,   162.26  L  2813.81,   161.91  L  2813.30,   161.72  L  2812.76,   161.72  L  2812.25,   161.91  L  2811.84,   162.26  L  2812.23,   162.97  L  2812.23,   163.55  L  2812.60,   163.99  L  2813.18,   164.09  L  2813.68,   163.80  L  2813.88,   163.26  L  2813.68,   162.71  L  2813.18,   162.42  L  2812.60,   162.52  L  2813.03,   163.26  " /><path style="stroke-width: 0.85 ;&st7;  " d=" M  2811.84,    77.27  L  2811.56,    77.74  L  2811.47,    78.27  L  2811.56,    78.81  L  2811.84,    79.28  L  2812.25,    79.62  L  2812.76,    79.81  L  2813.30,    79.81  L  2813.81,    79.62  L  2814.22,    79.28  L  2814.49,    78.81  L  2814.59,    78.27  L  2814.49,    77.74  L  2814.22,    77.27  L  2813.81,    76.92  L  2813.30,    76.74  L  2812.76,    76.74  L  2812.25,    76.92  L  2811.84,    77.27  L  2812.23,    77.98  L  2812.23,    78.56  L  2812.60,    79.01  L  2813.18,    79.11  L  2813.68,    78.82  L  2813.88,    78.27  L  2813.68,    77.73  L  2813.18,    77.44  L  2812.60,    77.54  L  2813.03,    78.27  " /><path style="stroke-width: 0.85 ;&st7;  " d=" M  2821.53,    78.27  L  2813.03,    78.27  " /><path style="stroke-width: 0.85 ;&st7;  " d=" M  2821.53,   163.26  L  2813.03,   163.26  " /><path style="stroke-width: 0.85 ;&st7;  " d=" M  2821.53,   205.75  L  2813.03,   205.75  " /><path style="stroke-width: 0.85 ;&st7;  " d=" M  2821.53,   282.24  L  2813.03,   282.24  " /><path style="stroke-width: 0.85 ;&st7;  " d=" M  2821.53,   248.24  L  2813.03,   248.24  " /><path style="stroke-width: 0.85 ;&st7;  " d=" M  2811.84,   247.24  L  2811.56,   247.71  L  2811.47,   248.24  L  2811.56,   248.78  L  2811.84,   249.25  L  2812.25,   249.59  L  2812.76,   249.78  L  2813.30,   249.78  L  2813.81,   249.59  L  2814.22,   249.25  L  2814.49,   248.78  L  2814.59,   248.24  L  2814.49,   247.71  L  2814.22,   247.24  L  2813.81,   246.90  L  2813.30,   246.71  L  2812.76,   246.71  L  2812.25,   246.90  L  2811.84,   247.24  L  2812.23,   247.95  L  2812.23,   248.54  L  2812.60,   248.98  L  2813.18,   249.08  L  2813.68,   248.79  L  2813.88,   248.24  L  2813.68,   247.70  L  2813.18,   247.41  L  2812.60,   247.51  L  2813.03,   248.24  " /><path style="stroke-width: 0.85 ;&st7;  " d=" M  2813.03,    35.78  L  2813.03,   290.74  " /><path style="stroke-width: 0.85 ;&st7;  " d=" M  2811.84,    34.78  L  2811.56,    35.25  L  2811.47,    35.78  L  2811.56,    36.31  L  2811.84,    36.78  L  2812.25,    37.13  L  2812.76,    37.32  L  2813.30,    37.32  L  2813.81,    37.13  L  2814.22,    36.78  L  2814.49,    36.31  L  2814.59,    35.78  L  2814.49,    35.25  L  2814.22,    34.78  L  2813.81,    34.43  L  2813.30,    34.24  L  2812.76,    34.24  L  2812.25,    34.43  L  2811.84,    34.78  L  2812.23,    35.49  L  2812.23,    36.07  L  2812.60,    36.52  L  2813.18,    36.62  L  2813.68,    36.33  L  2813.88,    35.78  L  2813.68,    35.23  L  2813.18,    34.94  L  2812.60,    35.04  L  2813.03,    35.78  " /><path style="stroke-width: 0.85 ;&st7;  " d=" M  2813.03,   205.75  L  2804.53,   205.75  " /><text style="&st18;" transform="matrix(&st16;  2795.25  202.06 )">13</text><text style="&st18;" transform="matrix(&st16;  2795.25  117.08 )">14</text><text style="&st18;" transform="matrix(&st16;  2795.25  32.09 )">17</text><text style="&st18;" transform="matrix(&st16;  2824.11  278.55 )">20</text><text style="&st18;" transform="matrix(&st16;  2824.11  202.06 )">21</text><text style="&st18;" transform="matrix(&st16;  2824.11  159.57 )">19</text><text style="&st18;" transform="matrix(&st16;  2824.11  117.07 )">22</text><text style="&st18;" transform="matrix(&st16;  2824.11  74.58 )">15</text><text style="&st18;" transform="matrix(&st16;  2824.11  32.09 )">18</text><text style="&st18;" transform="matrix(&st16;  2803.74  298.93 )">12</text><text style="&st18;" transform="matrix(&st16;  2824.11  244.55 )">16</text><g ewd:figtype="title"><text style="&st1;" transform="matrix(&st17; 2800.89 285.14)" ewd:textID="82">4 号接线连接器<tspan x="0 " dy="6.0" /></text><text style="&st18;" transform="matrix(&st17; 2794.06 285.14)">E71</text></g></g><g ewd:figtype="w2w" ewd:figID="13" ewd:code="GE3"><text style="&st18;" transform="matrix(&st16;  2766.4  594.41 )">8</text><path style="stroke-width: 1.42 ;&st7;  " d=" M  2783.28,   602.35  L  2779.03,   598.10  L  2774.79,   602.35  " /><path style="stroke-width: 1.42 ;&st7;  " d=" M  2783.28,   605.75  L  2779.03,   601.50  L  2774.79,   605.75  " /></g><g ewd:figtype="w2w" ewd:figID="14" ewd:code="EF1"><path style="stroke-width: 1.42 ;&st7;  " d=" M  2932.58,    40.03  L  2928.33,    35.78  L  2932.58,    31.53  " /><path style="stroke-width: 1.42 ;&st7;  " d=" M  2929.18,    40.03  L  2924.93,    35.78  L  2929.18,    31.53  " /><text style="&st18;" transform="matrix(&st16;  2913.21  28.54 )">6</text></g><g ewd:figtype="gp" ewd:figID="32" ewd:code="EC"><path style="stroke-width: 0.85 ;&st7;  " d=" M  2743.62,   710.00  L  2746.46,   710.00  " /><path style="stroke-width: 0.85 ;&st7;  " d=" M  2742.21,   707.17  L  2747.87,   707.17  " /><path style="stroke-width: 0.85 ;&st7;  " d=" M  2740.79,   704.33  L  2749.29,   704.33  " /><path style="stroke-width: 0.85 ;&st7;  " d=" M  2736.54,   701.50  L  2753.54,   701.50  " /><path style="stroke-width: 0.85 ;&st7;  " d=" M  2745.04,   697.25  L  2745.04,   701.50  " /></g><g ewd:figtype="gp" ewd:figID="33" ewd:code="ED"><path style="stroke-width: 0.85 ;&st7;  " d=" M  2881.02,   697.25  L  2881.02,   701.50  " /><path style="stroke-width: 0.85 ;&st7;  " d=" M  2872.52,   701.50  L  2889.52,   701.50  " /><path style="stroke-width: 0.85 ;&st7;  " d=" M  2876.77,   704.33  L  2885.27,   704.33  " /><path style="stroke-width: 0.85 ;&st7;  " d=" M  2878.18,   707.17  L  2883.85,   707.17  " /><path style="stroke-width: 0.85 ;&st7;  " d=" M  2879.60,   710.00  L  2882.43,   710.00  " /></g><g ewd:code="10" ewd:figID="86" ewd:comment="" ewd:figtype="comment"><text style="&st1;" transform="matrix(&st16;  2614.16  258.71 )" ewd:textID="8">* 10: 不带智能进入和起动系统</text></g><g ewd:code="12" ewd:figID="79" ewd:comment="" ewd:figtype="comment"><text style="&st1;" transform="matrix(&st16;  2614.16  267.21 )" ewd:textID="9">* 12 : 手动空调</text></g><g ewd:code="7" ewd:figID="80" ewd:comment="" ewd:figtype="comment"><text style="&st1;" transform="matrix(&st16;  2614.16  250.21 )" ewd:textID="6">* 7: 带智能进入和起动系统</text></g><g ewd:code="33" ewd:figID="78" ewd:comment="" ewd:figtype="comment"><text style="&st1;" transform="matrix(&st16;  2614.16  326.7 )" ewd:textID="17">* 33 : 带丰田驻车辅助传感器系统</text></g><g ewd:code="34" ewd:figID="101" ewd:comment="" ewd:figtype="comment"><text style="&st1;" transform="matrix(&st16;  2614.16  335.2 )" ewd:textID="18">* 34 : LED 型刹车灯</text></g><g ewd:code="13" ewd:figID="81" ewd:comment="" ewd:figtype="comment"><text style="&st1;" transform="matrix(&st16;  2614.16  275.71 )" ewd:textID="10">* 13 : 自动空调</text></g><g ewd:code="24" ewd:figID="75" ewd:comment="" ewd:figtype="comment"><text style="&st18;" transform="matrix(&st16;  2614.16  318.2 )">*24 :CVT</text></g><g ewd:code="16" ewd:figID="99" ewd:comment="" ewd:figtype="comment"><text style="&st1;" transform="matrix(&st16;  2614.16  301.2 )" ewd:textID="13">* 16 : 无线电收音机型</text></g><g ewd:code="6" ewd:figID="96" ewd:comment="" ewd:figtype="comment"><text style="&st1;" transform="matrix(&st16;  2614.16  241.71 )" ewd:textID="5">* 6 : 带 VSC</text></g><g ewd:code="15" ewd:figID="97" ewd:comment="" ewd:figtype="comment"><text style="&st1;" transform="matrix(&st16;  2614.16  292.71 )" ewd:textID="12">* 15 : 无线电收音机和显示屏接收器型</text></g><g ewd:code="14" ewd:figID="98" ewd:comment="" ewd:figtype="comment"><text style="&st1;" transform="matrix(&st16;  2614.16  284.21 )" ewd:textID="11">* 14 : 导航接收器型</text></g><g ewd:code="23" ewd:figID="100" ewd:comment="" ewd:figtype="comment"><text style="&st18;" transform="matrix(&st16;  2614.16  309.7 )">*23 :M/T</text></g></svg>