<?xml version="1.0" encoding="utf-8"?>
<!DOCTYPE svg PUBLIC "-//W3C//DTD SVG 1.0//EN" "http://www.w3.org/TR/2001/REC-SVG-20010904/DTD/svg10.dtd"[
	<!ENTITY ns_flows "http://ns.adobe.com/Flows/1.0/">
	<!ENTITY ns_svg "http://www.w3.org/2000/svg">
	<!ENTITY ns_xlink "http://www.w3.org/1999/xlink">
	<!ENTITY st0 "font-size:7px;font-family:'NSimSun';adobe-font-script:japanese;">
	<!ENTITY st1 "font-size:6px;font-family:'NSimSun';">
	<!-- White fill  -->
	<!ENTITY st2 "fill:#FFFFFF;stroke:#000000; stroke-width:1.41;stroke-linecap:round;stroke-linejoin:round;">
	<!-- Yellow fill  -->
	<!ENTITY st3 "fill:#FFFFCC;stroke:#FFFFCC; stroke-width:0.1;stroke-linecap:round;stroke-linejoin:round;">
	<!-- Gray fill  -->
	<!ENTITY st4 "fill:#CCCCCC;stroke:#CCCCCC; stroke-width:0.1;stroke-linecap:round;stroke-linejoin:round;">
	<!-- Light-blue fill -->
	<!ENTITY st5 "fill:#CCECF4;stroke:#000000; stroke-width:1.133;stroke-linecap:round;stroke-linejoin:round;">
	<!ENTITY st6 "fill:none;stroke-linecap:butt; stroke-linejoin:round;">
	<!ENTITY st7 "fill:none;stroke:#000000;stroke-linecap:round;stroke-linejoin:round;">
	<!ENTITY st8 "enable-background:new    ;">
	<!-- Black fill -->
	<!ENTITY st9 "fill:#000000;stroke:#000000; stroke-linecap:round;stroke-linejoin:round;">
	<!-- SRS note   -->
	<!ENTITY st10 "font-size:9px;font-family:'NSimSun';">
	<!ENTITY st11 "font-size:9px;font-family:'NSimSun';">
	<!ENTITY st12 "font-size:6px;font-family:'NSimSun';">
	<!ENTITY st13 "fill:none;stroke:#ff0000;stroke-linecap:round;stroke-linejoin:round;">
	<!-- Yellow fill  -->
	<!ENTITY st14 "fill:#FFFF00;stroke:#FFFF00; stroke-width:0.1;stroke-linecap:round;stroke-linejoin:round;">
	<!ENTITY st15 "font-size:6px;font-family:'NSimSun';adobe-font-script:japanese;">
	<!ENTITY st16 "1.00 0.00 0.00 1.00">
	<!ENTITY st17 "0.00 -1.00 1.00 0.00">
	<!ENTITY st18 "font-size:6px;font-family:'NSimSun';">
	<!ENTITY st19 "font-size:9px;font-family:'NSimSun';">
	<!ENTITY st20 "font-size:6px;font-family:'NSimSun';adobe-font-script:japanese;">
	<!ENTITY st21 "font-size:7px;font-family:'NSimSun';adobe-font-script:japanese;">
	<!ATTLIST svg
		xmlns:ewd CDATA #FIXED "http://shcl.co.jp/ewd"
		xmlns:a CDATA #FIXED "http://ns.adobe.com/AdobeSVGViewerExtensions/3.0/"
		ewd:ver CDATA #IMPLIED
	>
	<!ATTLIST a
		ewd:lineID CDATA #IMPLIED
		ewd:groupID CDATA #IMPLIED
		ewd:figtype CDATA #IMPLIED
		ewd:code CDATA #IMPLIED
		ewd:figID CDATA #IMPLIED
		ewd:pinNo CDATA #IMPLIED
		ewd:comment CDATA #IMPLIED >
	<!ATTLIST g
		ewd:lineID CDATA #IMPLIED
		ewd:groupID CDATA #IMPLIED
		ewd:figtype CDATA #IMPLIED
		ewd:code CDATA #IMPLIED
		ewd:figID CDATA #IMPLIED
		ewd:pinNo CDATA #IMPLIED
		ewd:comment CDATA #IMPLIED >
	<!ATTLIST text
		ewd:textID CDATA #IMPLIED
		ewd:horAlign CDATA #IMPLIED >
	<!ATTLIST title
		ewd:textID CDATA #IMPLIED >
]>
<!-- Generator: Shintec Hozumi YS   -->
<svg onload="call_execInitLoadProc_svg('system')" style="overflow:visible;  enable-background:new 0 0 2446.175 710.000" viewBox="0 0 2449.724 710.000" height="710.000" width="2449.724" xml:space="preserve" ewd:ver="2.1.2.6F" xmlns="&ns_svg;" xmlns:ewd="http://shcl.co.jp/ewd" xmlns:a="http://ns.adobe.com/AdobeSVGViewerExtensions/3.0/" xmlns:xlink="&ns_xlink;">
<path style="stroke-width: 1.42 ;&st7;  " d=" M  1483.72,   180.26  L  1478.75,   185.23  " /><path style="stroke-width: 1.42 ;&st7;  " d=" M  1490.78,   197.25  L  1495.75,   192.28  " /><path style="stroke-width: 1.42 ;&st7;  " d=" M  1478.75,   192.28  L  1483.72,   197.25  " /><path style="stroke-width: 1.42 ;&st7;  " d=" M  1495.75,   185.23  L  1490.78,   180.26  " /><text style="font-size:6px;font-family:'NSimSun';" transform="matrix(&st17;  1449.56  164.95 )">B</text><text style="font-size:6px;font-family:'NSimSun';" transform="matrix(&st16;  1060.13  329.53 )">B</text><text style="font-size:6px;font-family:'NSimSun';" transform="matrix(&st16;  1009.14  329.53 )">B</text><text style="font-size:6px;font-family:'NSimSun';" transform="matrix(&st16;  1009.22  643.98 )">R</text><text style="font-size:6px;font-family:'NSimSun';" transform="matrix(&st16;  1060.21  643.98 )">R</text><text style="font-size:6px;font-family:'NSimSun';" transform="matrix(&st16;  1007.05  304.04 )">LG</text><text style="font-size:6px;font-family:'NSimSun';" transform="matrix(&st16;  1058.04  304.04 )">LG</text><text style="font-size:6px;font-family:'NSimSun';" transform="matrix(&st17;  1407.07  167.04 )">LG</text><text style="font-size:6px;font-family:'NSimSun';" transform="matrix(&st17;  1322.08  165.22 )">G</text><text style="font-size:6px;font-family:'NSimSun';" transform="matrix(&st17;  1075.62  131.22 )">G</text><text style="font-size:6px;font-family:'NSimSun';" transform="matrix(&st17;  1364.58  164.75 )">P</text><text style="font-size:6px;font-family:'NSimSun';" transform="matrix(&st17;  1494.89  167.97 )">(*5)</text><text style="font-size:6px;font-family:'NSimSun';" transform="matrix(&st17;  1483.56  164.95 )">B</text><text style="font-size:6px;font-family:'NSimSun';" transform="matrix(&st17;  1375.91  167.97 )">(*2)</text><text style="font-size:6px;font-family:'NSimSun';" transform="matrix(&st16;  1004.37  287.04 )">P(*2)</text><text style="font-size:6px;font-family:'NSimSun';" transform="matrix(&st16;  1055.37  287.04 )">P(*2)</text><text style="font-size:6px;font-family:'NSimSun';" transform="matrix(&st17;  1494.89  218.96 )">(*5)</text><text style="font-size:6px;font-family:'NSimSun';" transform="matrix(&st17;  1483.56  215.94 )">B</text><text style="font-size:6px;font-family:'NSimSun';" transform="matrix(&st16;  1213.23  151.06 )">L</text><text style="font-size:6px;font-family:'NSimSun';" transform="matrix(&st16;  1007.05  474.01 )">LG</text><text style="font-size:6px;font-family:'NSimSun';" transform="matrix(&st16;  1058.04  474.01 )">LG</text><text style="font-size:6px;font-family:'NSimSun';" transform="matrix(&st16;  1006.12  485.34 )">(*5)</text><text style="font-size:6px;font-family:'NSimSun';" transform="matrix(&st16;  1057.11  485.34 )">(*5)</text><g ewd:figtype="conn" ewd:figID="13" ewd:code="E36"><path style="stroke-width: 1.42 ;&st7;  " d=" M  1232.29,    35.78  L  1232.29,    86.77  L  2439.09,    86.77  L  2439.09,    35.78  L  1232.29,    35.78  " /><g ewd:figtype="title"><text style="font-size:6px;font-family:'NSimSun';" transform="matrix(&st16;  1228.89  32.08 )" ewd:textID="21">主车身 ECU</text><text style="font-size:6px;font-family:'NSimSun';" transform="matrix(&st16;  1228.88  24.98 )">E36(A)</text></g><g ewd:lineID="47"><text style="font-size:6px;font-family:'NSimSun';" transform="matrix(&st16;  1242.64  83.07 )">ACC</text><text style="font-size:6px;font-family:'NSimSun';" transform="matrix(&st16;  1279.93  83.07 )">IG</text><text style="font-size:6px;font-family:'NSimSun';" transform="matrix(&st16;  1317.43  83.07 )">BECU</text><text style="font-size:6px;font-family:'NSimSun';" transform="matrix(&st16;  1360.34  83.07 )">DRLE</text><text style="font-size:6px;font-family:'NSimSun';" transform="matrix(&st16;  1405.01  83.07 )">DIM</text><text style="font-size:6px;font-family:'NSimSun';" transform="matrix(&st16;  1445.14  83.07 )">HRLY</text></g></g><g ewd:figtype="rb" ewd:figID="16" ewd:code="FUSE5"><path style="stroke-width: 1.42 ;&st7;  " d=" M  1081.44,    95.27  L  1077.20,    95.27  " /><path style="stroke-width: 1.42 ;&st7;  " d=" M  1081.44,   103.77  L  1077.20,   103.77  " /><path style="stroke-width: 1.42 ;&st7;   " d=" M  1077.20,    95.27  C  1074.85     95.27   1072.95     97.17   1072.95     99.52  " /><path style="stroke-width: 1.42 ;&st7;   " d=" M  1072.95,    99.52  C  1072.95    101.87   1074.85    103.77   1077.20    103.77  " /><path style="stroke-width: 1.42 ;&st7;   " d=" M  1081.44,   103.77  C  1083.79    103.77   1085.69    101.87   1085.69     99.52  " /><path style="stroke-width: 1.42 ;&st7;   " d=" M  1085.69,    99.52  C  1085.69     97.17   1083.79     95.27   1081.44     95.27  " /><path style="stroke-width: 0.28 ;&st9;  " d=" M  1079.32,    90.37  L  1076.49,    87.54  L  1076.49,    91.79  L  1079.32,    94.62  L  1082.15,    91.79  L  1082.15,    87.54  L  1079.32,    90.37  " /><path style="stroke-width: 0.85 ;&st7;  " d=" M  1079.32,    69.77  L  1079.32,    95.27  " /><text style="font-size:6px;font-family:'NSimSun';" transform="matrix(&st16;  1095.74  53.34 )">10A <tspan x="0 " dy="6.0">ECU-B </tspan><tspan x="0 " dy="6.0">NO.1</tspan></text><text style="font-size:6px;font-family:'NSimSun';" transform="matrix(&st16;  1071.28  32.08 )">(BAT)</text><text style="font-size:6px;font-family:'NSimSun';" transform="matrix(&st16;  1077.52  101.49 )">1</text><text style="font-size:6px;font-family:'NSimSun';" transform="matrix(&st16;  1073.14  86.47 )">2</text><path style="stroke-width: 1.42 ;&st7;   " d=" M  1079.32,    47.11  C  1076.58     48.72   1075.67     52.25   1077.28     54.99  " /><path style="stroke-width: 1.42 ;&st7;   " d=" M  1077.28,    54.99  C  1077.80     55.87   1078.44     56.51   1079.32     57.03  " /><path style="stroke-width: 1.42 ;&st7;   " d=" M  1079.32,    66.94  C  1082.06     65.33   1082.97     61.80   1081.36     59.06  " /><path style="stroke-width: 1.42 ;&st7;   " d=" M  1081.36,    59.06  C  1080.84     58.18   1080.20     57.55   1079.32     57.03  " /><path style="stroke-width: 0.85 ;&st7;   " d=" M  1080.74,    45.69  C  1080.74     44.91   1080.10     44.28   1079.32     44.28  " /><path style="stroke-width: 0.85 ;&st7;   " d=" M  1079.32,    44.28  C  1078.54     44.28   1077.90     44.91   1077.90     45.69  " /><path style="stroke-width: 0.85 ;&st7;   " d=" M  1077.90,    45.69  C  1077.90     46.48   1078.54     47.11   1079.32     47.11  " /><path style="stroke-width: 0.85 ;&st7;   " d=" M  1079.32,    47.11  C  1080.10     47.11   1080.74     46.48   1080.74     45.69  " /><path style="stroke-width: 0.85 ;&st7;   " d=" M  1080.74,    68.36  C  1080.74     67.57   1080.10     66.94   1079.32     66.94  " /><path style="stroke-width: 0.85 ;&st7;   " d=" M  1079.32,    66.94  C  1078.54     66.94   1077.90     67.57   1077.90     68.36  " /><path style="stroke-width: 0.85 ;&st7;   " d=" M  1077.90,    68.36  C  1077.90     69.14   1078.54     69.77   1079.32     69.77  " /><path style="stroke-width: 0.85 ;&st7;   " d=" M  1079.32,    69.77  C  1080.10     69.77   1080.74     69.14   1080.74     68.36  " /><path style="stroke-width: 1.42 ;&st7;  " d=" M  1066.57,    35.78  L  1066.57,    78.27  L  1092.07,    78.27  L  1092.07,    35.78  L  1066.57,    35.78  " /></g><g ewd:figtype="jb" ewd:figID="25" ewd:code="3"><path style="stroke-width: 1.42 ;&st7;  " d=" M  1412.89,   120.77  L  1408.64,   120.77  " /><path style="stroke-width: 1.42 ;&st7;  " d=" M  1412.89,   129.26  L  1408.64,   129.26  " /><path style="stroke-width: 1.42 ;&st7;  " d=" M  1455.38,   120.77  L  1451.13,   120.77  " /><path style="stroke-width: 1.42 ;&st7;  " d=" M  1455.38,   129.26  L  1451.13,   129.26  " /><path style="stroke-width: 1.42 ;&st7;  " d=" M  1327.90,   120.77  L  1323.65,   120.77  " /><path style="stroke-width: 1.42 ;&st7;  " d=" M  1327.90,   129.26  L  1323.65,   129.26  " /><path style="stroke-width: 1.42 ;&st7;  " d=" M  1370.40,   129.26  L  1366.15,   129.26  " /><path style="stroke-width: 1.42 ;&st7;  " d=" M  1370.40,   120.77  L  1366.15,   120.77  " /><path style="stroke-width: 1.42 ;&st7;  " d=" M  1489.38,   129.26  L  1485.13,   129.26  " /><path style="stroke-width: 1.42 ;&st7;  " d=" M  1489.38,   120.77  L  1485.13,   120.77  " /><path style="stroke-width: 1.42 ;&st7;  " d=" M  1285.41,   120.77  L  1281.16,   120.77  " /><path style="stroke-width: 1.42 ;&st7;  " d=" M  1285.41,   129.26  L  1281.16,   129.26  " /><path style="stroke-width: 1.42 ;&st7;  " d=" M  1149.43,   120.77  L  1145.18,   120.77  " /><path style="stroke-width: 1.42 ;&st7;  " d=" M  1149.43,   129.26  L  1145.18,   129.26  " /><path style="stroke-width: 1.42 ;&st7;   " d=" M  1198.30,    47.11  C  1195.56     48.72   1194.65     52.25   1196.26     54.99  " /><path style="stroke-width: 1.42 ;&st7;   " d=" M  1196.26,    54.99  C  1196.78     55.87   1197.42     56.51   1198.30     57.03  " /><path style="stroke-width: 1.42 ;&st7;   " d=" M  1198.30,    66.94  C  1201.04     65.33   1201.95     61.80   1200.34     59.06  " /><path style="stroke-width: 1.42 ;&st7;   " d=" M  1200.34,    59.06  C  1199.82     58.18   1199.18     57.55   1198.30     57.03  " /><path style="stroke-width: 0.85 ;&st7;   " d=" M  1199.72,    45.69  C  1199.72     44.91   1199.08     44.28   1198.30     44.28  " /><path style="stroke-width: 0.85 ;&st7;   " d=" M  1198.30,    44.28  C  1197.52     44.28   1196.88     44.91   1196.88     45.69  " /><path style="stroke-width: 0.85 ;&st7;   " d=" M  1196.88,    45.69  C  1196.88     46.48   1197.52     47.11   1198.30     47.11  " /><path style="stroke-width: 0.85 ;&st7;   " d=" M  1198.30,    47.11  C  1199.08     47.11   1199.72     46.48   1199.72     45.69  " /><path style="stroke-width: 0.85 ;&st7;   " d=" M  1199.72,    68.36  C  1199.72     67.57   1199.08     66.94   1198.30     66.94  " /><path style="stroke-width: 0.85 ;&st7;   " d=" M  1198.30,    66.94  C  1197.52     66.94   1196.88     67.57   1196.88     68.36  " /><path style="stroke-width: 0.85 ;&st7;   " d=" M  1196.88,    68.36  C  1196.88     69.14   1197.52     69.77   1198.30     69.77  " /><path style="stroke-width: 0.85 ;&st7;   " d=" M  1198.30,    69.77  C  1199.08     69.77   1199.72     69.14   1199.72     68.36  " /><path style="stroke-width: 1.42 ;&st7;   " d=" M  1408.64,   120.77  C  1406.29    120.77   1404.39    122.67   1404.39    125.01  " /><path style="stroke-width: 1.42 ;&st7;   " d=" M  1404.39,   125.01  C  1404.39    127.36   1406.29    129.26   1408.64    129.26  " /><path style="stroke-width: 1.42 ;&st7;   " d=" M  1412.89,   129.26  C  1415.24    129.26   1417.14    127.36   1417.14    125.01  " /><path style="stroke-width: 1.42 ;&st7;   " d=" M  1417.14,   125.01  C  1417.14    122.67   1415.24    120.77   1412.89    120.77  " /><path style="stroke-width: 1.42 ;&st7;   " d=" M  1451.13,   120.77  C  1448.79    120.77   1446.88    122.67   1446.88    125.01  " /><path style="stroke-width: 1.42 ;&st7;   " d=" M  1446.88,   125.01  C  1446.88    127.36   1448.79    129.26   1451.13    129.26  " /><path style="stroke-width: 1.42 ;&st7;   " d=" M  1455.38,   129.26  C  1457.73    129.26   1459.63    127.36   1459.63    125.01  " /><path style="stroke-width: 1.42 ;&st7;   " d=" M  1459.63,   125.01  C  1459.63    122.67   1457.73    120.77   1455.38    120.77  " /><path style="stroke-width: 1.42 ;&st7;   " d=" M  1323.65,   120.77  C  1321.31    120.77   1319.40    122.67   1319.40    125.01  " /><path style="stroke-width: 1.42 ;&st7;   " d=" M  1319.40,   125.01  C  1319.40    127.36   1321.31    129.26   1323.65    129.26  " /><path style="stroke-width: 1.42 ;&st7;   " d=" M  1327.90,   129.26  C  1330.25    129.26   1332.15    127.36   1332.15    125.01  " /><path style="stroke-width: 1.42 ;&st7;   " d=" M  1332.15,   125.01  C  1332.15    122.67   1330.25    120.77   1327.90    120.77  " /><path style="stroke-width: 1.42 ;&st7;   " d=" M  1374.65,   125.01  C  1374.65    122.67   1372.74    120.77   1370.40    120.77  " /><path style="stroke-width: 1.42 ;&st7;   " d=" M  1370.40,   129.26  C  1372.74    129.26   1374.65    127.36   1374.65    125.01  " /><path style="stroke-width: 1.42 ;&st7;   " d=" M  1361.90,   125.01  C  1361.90    127.36   1363.80    129.26   1366.15    129.26  " /><path style="stroke-width: 1.42 ;&st7;   " d=" M  1366.15,   120.77  C  1363.80    120.77   1361.90    122.67   1361.90    125.01  " /><path style="stroke-width: 1.42 ;&st7;   " d=" M  1147.31,    47.11  C  1144.57     48.72   1143.66     52.25   1145.27     54.99  " /><path style="stroke-width: 1.42 ;&st7;   " d=" M  1145.27,    54.99  C  1145.79     55.87   1146.43     56.51   1147.31     57.03  " /><path style="stroke-width: 1.42 ;&st7;   " d=" M  1147.31,    66.94  C  1150.05     65.33   1150.96     61.80   1149.35     59.06  " /><path style="stroke-width: 1.42 ;&st7;   " d=" M  1149.35,    59.06  C  1148.83     58.18   1148.19     57.55   1147.31     57.03  " /><path style="stroke-width: 0.85 ;&st7;   " d=" M  1148.72,    45.69  C  1148.72     44.91   1148.09     44.28   1147.31     44.28  " /><path style="stroke-width: 0.85 ;&st7;   " d=" M  1147.31,    44.28  C  1146.53     44.28   1145.89     44.91   1145.89     45.69  " /><path style="stroke-width: 0.85 ;&st7;   " d=" M  1145.89,    45.69  C  1145.89     46.48   1146.53     47.11   1147.31     47.11  " /><path style="stroke-width: 0.85 ;&st7;   " d=" M  1147.31,    47.11  C  1148.09     47.11   1148.72     46.48   1148.72     45.69  " /><path style="stroke-width: 0.85 ;&st7;   " d=" M  1148.72,    68.36  C  1148.72     67.57   1148.09     66.94   1147.31     66.94  " /><path style="stroke-width: 0.85 ;&st7;   " d=" M  1147.31,    66.94  C  1146.53     66.94   1145.89     67.57   1145.89     68.36  " /><path style="stroke-width: 0.85 ;&st7;   " d=" M  1145.89,    68.36  C  1145.89     69.14   1146.53     69.77   1147.31     69.77  " /><path style="stroke-width: 0.85 ;&st7;   " d=" M  1147.31,    69.77  C  1148.09     69.77   1148.72     69.14   1148.72     68.36  " /><path style="stroke-width: 1.42 ;&st7;   " d=" M  1480.88,   125.01  C  1480.88    127.36   1482.78    129.26   1485.13    129.26  " /><path style="stroke-width: 1.42 ;&st7;   " d=" M  1489.38,   129.26  C  1491.72    129.26   1493.63    127.36   1493.63    125.01  " /><path style="stroke-width: 1.42 ;&st7;   " d=" M  1493.63,   125.01  C  1493.63    122.67   1491.72    120.77   1489.38    120.77  " /><path style="stroke-width: 1.42 ;&st7;   " d=" M  1485.13,   120.77  C  1482.78    120.77   1480.88    122.67   1480.88    125.01  " /><path style="stroke-width: 1.42 ;&st7;   " d=" M  1281.16,   120.77  C  1278.81    120.77   1276.91    122.67   1276.91    125.01  " /><path style="stroke-width: 1.42 ;&st7;   " d=" M  1276.91,   125.01  C  1276.91    127.36   1278.81    129.26   1281.16    129.26  " /><path style="stroke-width: 1.42 ;&st7;   " d=" M  1285.41,   129.26  C  1287.76    129.26   1289.66    127.36   1289.66    125.01  " /><path style="stroke-width: 1.42 ;&st7;   " d=" M  1289.66,   125.01  C  1289.66    122.67   1287.76    120.77   1285.41    120.77  " /><path style="stroke-width: 1.42 ;&st7;   " d=" M  1145.18,   120.77  C  1142.84    120.77   1140.93    122.67   1140.93    125.01  " /><path style="stroke-width: 1.42 ;&st7;   " d=" M  1140.93,   125.01  C  1140.93    127.36   1142.84    129.26   1145.18    129.26  " /><path style="stroke-width: 1.42 ;&st7;   " d=" M  1149.43,   129.26  C  1151.78    129.26   1153.68    127.36   1153.68    125.01  " /><path style="stroke-width: 1.42 ;&st7;   " d=" M  1153.68,   125.01  C  1153.68    122.67   1151.78    120.77   1149.43    120.77  " /><path style="stroke-width: 0.85 ;&st7;  " d=" M  1198.30,    69.77  L  1198.30,   120.77  L  1249.29,   120.77  L  1249.29,    86.77  " /><path style="stroke-width: 1.42 ;&st7;  " d=" M  1185.55,    35.78  L  1185.55,    78.27  L  1211.05,    78.27  L  1211.05,    35.78  L  1185.55,    35.78  " /><path style="stroke-width: 0.28 ;&st9;  " d=" M  1410.76,   115.87  L  1407.93,   113.04  L  1407.93,   117.29  L  1410.76,   120.12  L  1413.60,   117.29  L  1413.60,   113.04  L  1410.76,   115.87  " /><path style="stroke-width: 0.85 ;&st7;  " d=" M  1410.76,   120.77  L  1410.76,    86.77  " /><path style="stroke-width: 0.28 ;&st9;  " d=" M  1453.26,   115.87  L  1450.42,   113.04  L  1450.42,   117.29  L  1453.26,   120.12  L  1456.09,   117.29  L  1456.09,   113.04  L  1453.26,   115.87  " /><path style="stroke-width: 0.85 ;&st7;  " d=" M  1453.26,   120.77  L  1453.26,    86.77  " /><path style="stroke-width: 0.28 ;&st9;  " d=" M  1325.78,   115.87  L  1322.95,   113.04  L  1322.95,   117.29  L  1325.78,   120.12  L  1328.61,   117.29  L  1328.61,   113.04  L  1325.78,   115.87  " /><path style="stroke-width: 0.85 ;&st7;  " d=" M  1325.78,    86.77  L  1325.78,   120.77  " /><path style="stroke-width: 0.85 ;&st7;  " d=" M  1368.27,   120.77  L  1368.27,    86.77  " /><path style="stroke-width: 0.28 ;&st9;  " d=" M  1368.27,   115.87  L  1365.44,   113.04  L  1365.44,   117.29  L  1368.27,   120.12  L  1371.10,   117.29  L  1371.10,   113.04  L  1368.27,   115.87  " /><path style="stroke-width: 0.85 ;&st7;  " d=" M  1283.29,    86.77  L  1283.29,   120.77  " /><path style="stroke-width: 0.85 ;&st7;  " d=" M  1147.31,    78.27  L  1147.31,    69.77  " /><path style="stroke-width: 1.42 ;&st7;  " d=" M  1134.56,    35.78  L  1134.56,    78.27  L  1160.06,    78.27  L  1160.06,    35.78  L  1134.56,    35.78  " /><path style="stroke-width: 0.85 ;&st7;  " d=" M  1453.26,   103.77  L  1487.25,   103.77  L  1487.25,   120.77  " /><path style="stroke-width: 0.28 ;&st9;  " d=" M  1487.25,   115.87  L  1484.42,   113.04  L  1484.42,   117.29  L  1487.25,   120.12  L  1490.08,   117.29  L  1490.08,   113.04  L  1487.25,   115.87  " /><path style="stroke-width: 0.85 ;&st7;  " d=" M  1147.31,   120.77  L  1147.31,    78.27  " /><path style="stroke-width: 0.28 ;&st9;  " d=" M  1283.29,   115.87  L  1280.45,   113.04  L  1280.45,   117.29  L  1283.29,   120.12  L  1286.12,   117.29  L  1286.12,   113.04  L  1283.29,   115.87  " /><path style="stroke-width: 0.28 ;&st9;  " d=" M  1147.31,   115.87  L  1144.47,   113.04  L  1144.47,   117.29  L  1147.31,   120.12  L  1150.14,   117.29  L  1150.14,   113.04  L  1147.31,   115.87  " /><path style="stroke-width: 0.85 ;&st7;  " d=" M  1452.06,   102.77  L  1451.79,   103.24  L  1451.70,   103.77  L  1451.79,   104.30  L  1452.06,   104.77  L  1452.48,   105.12  L  1452.98,   105.30  L  1453.53,   105.30  L  1454.04,   105.12  L  1454.45,   104.77  L  1454.72,   104.30  L  1454.81,   103.77  L  1454.72,   103.24  L  1454.45,   102.77  L  1454.04,   102.42  L  1453.53,   102.23  L  1452.98,   102.23  L  1452.48,   102.42  L  1452.06,   102.77  L  1452.46,   103.48  L  1452.46,   104.06  L  1452.83,   104.50  L  1453.40,   104.60  L  1453.91,   104.31  L  1454.11,   103.77  L  1453.91,   103.22  L  1453.40,   102.93  L  1452.83,   103.03  L  1453.26,   103.77  " /><text style="font-size:6px;font-family:'NSimSun';" transform="matrix(&st17;  1220.1  70.19 )">7.5A ACC</text><text style="font-size:6px;font-family:'NSimSun';" transform="matrix(&st16;  1189.79  32.08 )">(ACC)</text><text style="font-size:6px;font-family:'NSimSun';" transform="matrix(&st16;  1406.91  126.98 )">3A</text><text style="font-size:6px;font-family:'NSimSun';" transform="matrix(&st16;  1397.16  126.98 )">54</text><text style="font-size:6px;font-family:'NSimSun';" transform="matrix(&st16;  1401.48  94.96 )">22</text><text style="font-size:6px;font-family:'NSimSun';" transform="matrix(&st16;  1449.4  126.98 )">3A</text><text style="font-size:6px;font-family:'NSimSun';" transform="matrix(&st16;  1439.65  126.98 )">35</text><text style="font-size:6px;font-family:'NSimSun';" transform="matrix(&st16;  1443.97  94.96 )">15</text><text style="font-size:6px;font-family:'NSimSun';" transform="matrix(&st16;  1240.01  94.96 )">29</text><text style="font-size:6px;font-family:'NSimSun';" transform="matrix(&st16;  1316.49  94.96 )">30</text><text style="font-size:6px;font-family:'NSimSun';" transform="matrix(&st16;  1321.92  126.98 )">3A</text><text style="font-size:6px;font-family:'NSimSun';" transform="matrix(&st16;  1312.17  126.98 )">43</text><text style="font-size:6px;font-family:'NSimSun';" transform="matrix(&st16;  1358.99  94.96 )">26</text><text style="font-size:6px;font-family:'NSimSun';" transform="matrix(&st16;  1364.42  126.98 )">3A</text><text style="font-size:6px;font-family:'NSimSun';" transform="matrix(&st16;  1274.0  94.96 )">32</text><text style="font-size:6px;font-family:'NSimSun';" transform="matrix(&st17;  1169.11  75.43 )">7.5A <tspan x="0 " dy="6.0">ECU-IG NO.4</tspan></text><text style="font-size:6px;font-family:'NSimSun';" transform="matrix(&st16;  1142.1  32.08 )">(IG)</text><text style="font-size:6px;font-family:'NSimSun';" transform="matrix(&st16;  1192.12  86.47 )">2</text><text style="font-size:6px;font-family:'NSimSun';" transform="matrix(&st16;  1473.64  126.98 )">44</text><text style="font-size:6px;font-family:'NSimSun';" transform="matrix(&st16;  1483.28  126.98 )">3C</text><text style="font-size:6px;font-family:'NSimSun';" transform="matrix(&st16;  1354.66  126.98 )">53</text><text style="font-size:6px;font-family:'NSimSun';" transform="matrix(&st16;  1279.31  126.98 )">3C</text><text style="font-size:6px;font-family:'NSimSun';" transform="matrix(&st16;  1269.68  126.98 )">51</text><text style="font-size:6px;font-family:'NSimSun';" transform="matrix(&st16;  1143.34  126.98 )">3C</text><text style="font-size:6px;font-family:'NSimSun';" transform="matrix(&st16;  1133.7  126.98 )">17</text><text style="font-size:6px;font-family:'NSimSun';" transform="matrix(&st16;  1141.12  86.47 )">2</text></g><g ewd:figtype="w2w" ewd:figID="28" ewd:code="AE3"><path style="stroke-width: 1.42 ;&st7;  " d=" M  1508.50,   298.67  L  1512.75,   302.92  L  1517.00,   298.67  " /><path style="stroke-width: 1.42 ;&st7;  " d=" M  1517.00,   302.07  L  1512.75,   306.32  L  1508.50,   302.07  " /><text style="font-size:6px;font-family:'NSimSun';" transform="matrix(&st16;  1497.01  313.95 )">18</text></g></svg>