<?xml version="1.0" encoding="utf-8"?>
<!DOCTYPE svg PUBLIC "-//W3C//DTD SVG 1.0//EN" "http://www.w3.org/TR/2001/REC-SVG-20010904/DTD/svg10.dtd"[
	<!ENTITY ns_flows "http://ns.adobe.com/Flows/1.0/">
	<!ENTITY ns_svg "http://www.w3.org/2000/svg">
	<!ENTITY ns_xlink "http://www.w3.org/1999/xlink">
	<!ENTITY st0 "font-size:7px;font-family:'NSimSun';adobe-font-script:japanese;">
	<!ENTITY st1 "font-size:6px;font-family:'NSimSun';">
	<!-- White fill  -->
	<!ENTITY st2 "fill:#FFFFFF;stroke:#000000; stroke-width:1.41;stroke-linecap:round;stroke-linejoin:round;">
	<!-- Yellow fill  -->
	<!ENTITY st3 "fill:#FFFFCC;stroke:#FFFFCC; stroke-width:0.1;stroke-linecap:round;stroke-linejoin:round;">
	<!-- Gray fill  -->
	<!ENTITY st4 "fill:#CCCCCC;stroke:#CCCCCC; stroke-width:0.1;stroke-linecap:round;stroke-linejoin:round;">
	<!-- Light-blue fill -->
	<!ENTITY st5 "fill:#CCECF4;stroke:#000000; stroke-width:1.133;stroke-linecap:round;stroke-linejoin:round;">
	<!ENTITY st6 "fill:none;stroke-linecap:butt; stroke-linejoin:round;">
	<!ENTITY st7 "fill:none;stroke:#000000;stroke-linecap:round;stroke-linejoin:round;">
	<!ENTITY st8 "enable-background:new    ;">
	<!-- Black fill -->
	<!ENTITY st9 "fill:#000000;stroke:#000000; stroke-linecap:round;stroke-linejoin:round;">
	<!-- SRS note   -->
	<!ENTITY st10 "font-size:9px;font-family:'NSimSun';">
	<!ENTITY st11 "font-size:9px;font-family:'NSimSun';">
	<!ENTITY st12 "font-size:6px;font-family:'NSimSun';">
	<!ENTITY st13 "fill:none;stroke:#ff0000;stroke-linecap:round;stroke-linejoin:round;">
	<!-- Yellow fill  -->
	<!ENTITY st14 "fill:#FFFF00;stroke:#FFFF00; stroke-width:0.1;stroke-linecap:round;stroke-linejoin:round;">
	<!ENTITY st15 "font-size:6px;font-family:'NSimSun';adobe-font-script:japanese;">
	<!ENTITY st16 "1.00 0.00 0.00 1.00">
	<!ENTITY st17 "0.00 -1.00 1.00 0.00">
	<!ENTITY st18 "font-size:6px;font-family:'NSimSun';">
	<!ENTITY st19 "font-size:9px;font-family:'NSimSun';">
	<!ENTITY st20 "font-size:6px;font-family:'NSimSun';adobe-font-script:japanese;">
	<!ENTITY st21 "font-size:7px;font-family:'NSimSun';adobe-font-script:japanese;">
	<!ATTLIST svg
		xmlns:ewd CDATA #FIXED "http://shcl.co.jp/ewd"
		xmlns:a CDATA #FIXED "http://ns.adobe.com/AdobeSVGViewerExtensions/3.0/"
		ewd:ver CDATA #IMPLIED
	>
	<!ATTLIST a
		ewd:lineID CDATA #IMPLIED
		ewd:groupID CDATA #IMPLIED
		ewd:figtype CDATA #IMPLIED
		ewd:code CDATA #IMPLIED
		ewd:figID CDATA #IMPLIED
		ewd:pinNo CDATA #IMPLIED
		ewd:comment CDATA #IMPLIED >
	<!ATTLIST g
		ewd:lineID CDATA #IMPLIED
		ewd:groupID CDATA #IMPLIED
		ewd:figtype CDATA #IMPLIED
		ewd:code CDATA #IMPLIED
		ewd:figID CDATA #IMPLIED
		ewd:pinNo CDATA #IMPLIED
		ewd:comment CDATA #IMPLIED >
	<!ATTLIST text
		ewd:textID CDATA #IMPLIED
		ewd:horAlign CDATA #IMPLIED >
	<!ATTLIST title
		ewd:textID CDATA #IMPLIED >
]>
<!-- Generator: Shintec Hozumi YS   -->
<svg onload="call_execInitLoadProc_svg('system')" style="overflow:visible;  enable-background:new 0 0 2446.175 710.000" viewBox="0 0 2449.724 710.000" height="710.000" width="2449.724" xml:space="preserve" ewd:ver="2.1.2.6F" xmlns="&ns_svg;" xmlns:ewd="http://shcl.co.jp/ewd" xmlns:a="http://ns.adobe.com/AdobeSVGViewerExtensions/3.0/" xmlns:xlink="&ns_xlink;">
<path style="stroke-width: 1.42 ;&st7;  " d=" M   144.48,   593.16  L   139.50,   588.19  " /><path style="stroke-width: 1.42 ;&st7;  " d=" M   127.48,   600.22  L   132.45,   605.18  " /><path style="stroke-width: 1.42 ;&st7;  " d=" M   139.50,   605.18  L   144.48,   600.22  " /><path style="stroke-width: 1.42 ;&st7;  " d=" M   132.45,   588.19  L   127.48,   593.16  " /><text style="font-size:6px;font-family:'NSimSun';" transform="matrix(&st16;  490.81  346.53 )">R</text><text style="font-size:6px;font-family:'NSimSun';" transform="matrix(&st16;  321.59  168.06 )">R-B</text><text style="font-size:6px;font-family:'NSimSun';" transform="matrix(&st16;  159.36  176.56 )">R</text><text style="font-size:6px;font-family:'NSimSun';" transform="matrix(&st17;  276.76  309.35 )">R</text><text style="font-size:6px;font-family:'NSimSun';" transform="matrix(&st17;  132.28  560.15 )">W-B</text><text style="font-size:6px;font-family:'NSimSun';" transform="matrix(&st17;  132.28  645.13 )">W-B</text><text style="font-size:6px;font-family:'NSimSun';" transform="matrix(&st17;  177.61  558.91 )">(*2)</text><text style="font-size:6px;font-family:'NSimSun';" transform="matrix(&st17;  395.74  309.35 )">R</text><text style="font-size:6px;font-family:'NSimSun';" transform="matrix(&st17;  166.28  560.15 )">W-B</text><text style="font-size:6px;font-family:'NSimSun';" transform="matrix(&st17;  132.28  415.58 )">R</text><text style="font-size:6px;font-family:'NSimSun';" transform="matrix(&st17;  89.79  334.84 )">R</text><text style="font-size:6px;font-family:'NSimSun';" transform="matrix(&st17;  183.27  334.84 )">R</text><text style="font-size:6px;font-family:'NSimSun';" transform="matrix(&st17;  89.79  560.15 )">W-B</text><text style="font-size:6px;font-family:'NSimSun';" transform="matrix(&st17;  191.77  556.0 )">V</text><text style="font-size:6px;font-family:'NSimSun';" transform="matrix(&st17;  203.1  558.91 )">(*2)</text><text style="font-size:6px;font-family:'NSimSun';" transform="matrix(&st17;  293.75  130.12 )">R-B</text><text style="font-size:6px;font-family:'NSimSun';" transform="matrix(&st16;  490.81  151.06 )">R</text><text style="font-size:6px;font-family:'NSimSun';" transform="matrix(&st16;  490.73  329.53 )">B</text><text style="font-size:6px;font-family:'NSimSun';" transform="matrix(&st16;  490.61  618.48 )">V</text><text style="font-size:6px;font-family:'NSimSun';" transform="matrix(&st16;  487.71  629.82 )">(*2)</text><g ewd:figtype="rb" ewd:figID="1" ewd:code="FUSE13"><path style="stroke-width: 0.85 ;&st7;  " d=" M   186.97,   282.24  L   186.97,   307.73  " /><path style="stroke-width: 1.42 ;&st7;  " d=" M   189.09,   307.73  L   184.84,   307.73  " /><path style="stroke-width: 1.42 ;&st7;  " d=" M   189.09,   316.23  L   184.84,   316.23  " /><path style="stroke-width: 0.85 ;&st7;  " d=" M    93.48,   282.24  L    93.48,   307.73  " /><path style="stroke-width: 1.42 ;&st7;  " d=" M    95.61,   307.73  L    91.36,   307.73  " /><path style="stroke-width: 1.42 ;&st7;  " d=" M    95.61,   316.23  L    91.36,   316.23  " /><path style="stroke-width: 1.42 ;&st7;  " d=" M    95.61,   205.75  L    91.36,   205.75  " /><path style="stroke-width: 1.42 ;&st7;  " d=" M    95.61,   214.25  L    91.36,   214.25  " /><path style="stroke-width: 1.42 ;&st7;   " d=" M   184.84,   307.73  C   182.50    307.73    180.59    309.64    180.59    311.98  " /><path style="stroke-width: 1.42 ;&st7;   " d=" M   180.59,   311.98  C   180.59    314.33    182.50    316.23    184.84    316.23  " /><path style="stroke-width: 1.42 ;&st7;   " d=" M   189.09,   316.23  C   191.44    316.23    193.34    314.33    193.34    311.98  " /><path style="stroke-width: 1.42 ;&st7;   " d=" M   193.34,   311.98  C   193.34    309.64    191.44    307.73    189.09    307.73  " /><path style="stroke-width: 1.42 ;&st7;   " d=" M    91.36,   307.73  C    89.01    307.73     87.11    309.64     87.11    311.98  " /><path style="stroke-width: 1.42 ;&st7;   " d=" M    87.11,   311.98  C    87.11    314.33     89.01    316.23     91.36    316.23  " /><path style="stroke-width: 1.42 ;&st7;   " d=" M    95.61,   316.23  C    97.96    316.23     99.86    314.33     99.86    311.98  " /><path style="stroke-width: 1.42 ;&st7;   " d=" M    99.86,   311.98  C    99.86    309.64     97.96    307.73     95.61    307.73  " /><path style="stroke-width: 1.42 ;&st7;   " d=" M    91.36,   205.75  C    89.01    205.75     87.11    207.65     87.11    210.00  " /><path style="stroke-width: 1.42 ;&st7;   " d=" M    87.11,   210.00  C    87.11    212.35     89.01    214.25     91.36    214.25  " /><path style="stroke-width: 1.42 ;&st7;   " d=" M    95.61,   214.25  C    97.96    214.25     99.86    212.35     99.86    210.00  " /><path style="stroke-width: 1.42 ;&st7;   " d=" M    99.86,   210.00  C    99.86    207.65     97.96    205.75     95.61    205.75  " /><path style="stroke-width: 0.85 ;&st7;  " d=" M    92.29,   230.24  L    92.02,   230.71  L    91.93,   231.25  L    92.02,   231.78  L    92.29,   232.25  L    92.71,   232.60  L    93.21,   232.78  L    93.76,   232.78  L    94.26,   232.60  L    94.68,   232.25  L    94.95,   231.78  L    95.04,   231.25  L    94.95,   230.71  L    94.68,   230.24  L    94.26,   229.90  L    93.76,   229.71  L    93.21,   229.71  L    92.71,   229.90  L    92.29,   230.24  L    92.69,   230.96  L    92.69,   231.54  L    93.06,   231.98  L    93.63,   232.08  L    94.14,   231.79  L    94.33,   231.25  L    94.14,   230.70  L    93.63,   230.41  L    93.06,   230.51  L    93.48,   231.25  " /><path style="stroke-width: 0.28 ;&st9;  " d=" M   186.97,   302.84  L   184.14,   300.01  L   184.14,   304.26  L   186.97,   307.09  L   189.80,   304.26  L   189.80,   300.01  L   186.97,   302.84  " /><path style="stroke-width: 0.85 ;&st7;  " d=" M   186.97,   256.74  L   186.97,   231.25  L    93.48,   231.25  " /><path style="stroke-width: 0.28 ;&st9;  " d=" M    93.48,   302.84  L    90.65,   300.01  L    90.65,   304.26  L    93.48,   307.09  L    96.32,   304.26  L    96.32,   300.01  L    93.48,   302.84  " /><path style="stroke-width: 0.28 ;&st9;  " d=" M    93.48,   219.14  L    96.32,   221.98  L    96.32,   217.73  L    93.48,   214.90  L    90.65,   217.73  L    90.65,   221.98  L    93.48,   219.14  " /><path style="stroke-width: 0.85 ;&st7;  " d=" M    93.48,   214.25  L    93.48,   256.74  " /><text style="font-size:6px;font-family:'NSimSun';" transform="matrix(&st16;  203.39  268.63 )">10A <tspan x="0 " dy="6.0">H-LP LH-LO</tspan></text><text style="font-size:6px;font-family:'NSimSun';" transform="matrix(&st16;  185.17  313.95 )">1</text><text style="font-size:6px;font-family:'NSimSun';" transform="matrix(&st16;  180.78  298.93 )">2</text><text style="font-size:6px;font-family:'NSimSun';" transform="matrix(&st16;  109.91  268.63 )">10A <tspan x="0 " dy="6.0">H-LP RH-LO</tspan></text><text style="font-size:6px;font-family:'NSimSun';" transform="matrix(&st16;  91.68  313.95 )">1</text><text style="font-size:6px;font-family:'NSimSun';" transform="matrix(&st16;  87.3  298.93 )">2</text><text style="font-size:6px;font-family:'NSimSun';" transform="matrix(&st16;  91.68  211.97 )">1</text><text style="font-size:6px;font-family:'NSimSun';" transform="matrix(&st16;  87.3  244.55 )">1</text><text style="font-size:6px;font-family:'NSimSun';" transform="matrix(&st16;  180.78  244.55 )">1</text><path style="stroke-width: 1.42 ;&st7;   " d=" M    93.48,   259.58  C    90.75    261.19     89.83    264.72     91.45    267.45  " /><path style="stroke-width: 1.42 ;&st7;   " d=" M    91.45,   267.45  C    91.97    268.34     92.60    268.97     93.48    269.49  " /><path style="stroke-width: 1.42 ;&st7;   " d=" M    93.48,   279.41  C    96.22    277.79     97.13    274.27     95.52    271.53  " /><path style="stroke-width: 1.42 ;&st7;   " d=" M    95.52,   271.53  C    95.00    270.65     94.37    270.01     93.48    269.49  " /><path style="stroke-width: 0.85 ;&st7;   " d=" M    94.90,   258.16  C    94.90    257.38     94.27    256.74     93.48    256.74  " /><path style="stroke-width: 0.85 ;&st7;   " d=" M    93.48,   256.74  C    92.70    256.74     92.07    257.38     92.07    258.16  " /><path style="stroke-width: 0.85 ;&st7;   " d=" M    92.07,   258.16  C    92.07    258.94     92.70    259.58     93.48    259.58  " /><path style="stroke-width: 0.85 ;&st7;   " d=" M    93.48,   259.58  C    94.27    259.58     94.90    258.94     94.90    258.16  " /><path style="stroke-width: 0.85 ;&st7;   " d=" M    94.90,   280.82  C    94.90    280.04     94.27    279.41     93.48    279.41  " /><path style="stroke-width: 0.85 ;&st7;   " d=" M    93.48,   279.41  C    92.70    279.41     92.07    280.04     92.07    280.82  " /><path style="stroke-width: 0.85 ;&st7;   " d=" M    92.07,   280.82  C    92.07    281.60     92.70    282.24     93.48    282.24  " /><path style="stroke-width: 0.85 ;&st7;   " d=" M    93.48,   282.24  C    94.27    282.24     94.90    281.60     94.90    280.82  " /><path style="stroke-width: 1.42 ;&st7;  " d=" M    80.74,   248.24  L    80.74,   290.74  L   106.23,   290.74  L   106.23,   248.24  L    80.74,   248.24  " /></g><g ewd:figtype="rb" ewd:figID="2" ewd:code="1"><path style="stroke-width: 1.42 ;&st7;  " d=" M   316.57,   197.25  L   312.32,   197.25  " /><path style="stroke-width: 1.42 ;&st7;  " d=" M   316.57,   205.75  L   312.32,   205.75  " /><path style="stroke-width: 1.42 ;&st7;  " d=" M   342.07,   197.25  L   337.82,   197.25  " /><path style="stroke-width: 1.42 ;&st7;  " d=" M   342.07,   205.75  L   337.82,   205.75  " /><path style="stroke-width: 1.42 ;&st7;  " d=" M   316.57,   290.74  L   312.32,   290.74  " /><path style="stroke-width: 1.42 ;&st7;  " d=" M   316.57,   299.24  L   312.32,   299.24  " /><path style="stroke-width: 1.42 ;&st7;  " d=" M   342.07,   290.74  L   337.82,   290.74  " /><path style="stroke-width: 1.42 ;&st7;  " d=" M   342.07,   299.24  L   337.82,   299.24  " /><path style="stroke-width: 1.42 ;&st7;   " d=" M   312.32,   197.25  C   309.98    197.25    308.07    199.15    308.07    201.50  " /><path style="stroke-width: 1.42 ;&st7;   " d=" M   308.07,   201.50  C   308.07    203.85    309.98    205.75    312.32    205.75  " /><path style="stroke-width: 1.42 ;&st7;   " d=" M   316.57,   205.75  C   318.92    205.75    320.82    203.85    320.82    201.50  " /><path style="stroke-width: 1.42 ;&st7;   " d=" M   320.82,   201.50  C   320.82    199.15    318.92    197.25    316.57    197.25  " /><path style="stroke-width: 1.42 ;&st7;   " d=" M   337.82,   197.25  C   335.47    197.25    333.57    199.15    333.57    201.50  " /><path style="stroke-width: 1.42 ;&st7;   " d=" M   333.57,   201.50  C   333.57    203.85    335.47    205.75    337.82    205.75  " /><path style="stroke-width: 1.42 ;&st7;   " d=" M   342.07,   205.75  C   344.41    205.75    346.32    203.85    346.32    201.50  " /><path style="stroke-width: 1.42 ;&st7;   " d=" M   346.32,   201.50  C   346.32    199.15    344.41    197.25    342.07    197.25  " /><path style="stroke-width: 1.42 ;&st7;   " d=" M   312.32,   290.74  C   309.98    290.74    308.07    292.64    308.07    294.99  " /><path style="stroke-width: 1.42 ;&st7;   " d=" M   308.07,   294.99  C   308.07    297.33    309.98    299.24    312.32    299.24  " /><path style="stroke-width: 1.42 ;&st7;   " d=" M   316.57,   299.24  C   318.92    299.24    320.82    297.33    320.82    294.99  " /><path style="stroke-width: 1.42 ;&st7;   " d=" M   320.82,   294.99  C   320.82    292.64    318.92    290.74    316.57    290.74  " /><path style="stroke-width: 1.42 ;&st7;   " d=" M   337.82,   290.74  C   335.47    290.74    333.57    292.64    333.57    294.99  " /><path style="stroke-width: 1.42 ;&st7;   " d=" M   333.57,   294.99  C   333.57    297.33    335.47    299.24    337.82    299.24  " /><path style="stroke-width: 1.42 ;&st7;   " d=" M   342.07,   299.24  C   344.41    299.24    346.32    297.33    346.32    294.99  " /><path style="stroke-width: 1.42 ;&st7;   " d=" M   346.32,   294.99  C   346.32    292.64    344.41    290.74    342.07    290.74  " /><path style="stroke-width: 0.28 ;&st9;  " d=" M   314.45,   210.65  L   317.28,   213.48  L   317.28,   209.23  L   314.45,   206.40  L   311.61,   209.23  L   311.61,   213.48  L   314.45,   210.65  " /><path style="stroke-width: 0.28 ;&st9;  " d=" M   339.94,   210.65  L   342.78,   213.48  L   342.78,   209.23  L   339.94,   206.40  L   337.11,   209.23  L   337.11,   213.48  L   339.94,   210.65  " /><path style="stroke-width: 0.28 ;&st9;  " d=" M   314.45,   285.84  L   311.61,   283.01  L   311.61,   287.26  L   314.45,   290.09  L   317.28,   287.26  L   317.28,   283.01  L   314.45,   285.84  " /><path style="stroke-width: 0.28 ;&st9;  " d=" M   339.94,   285.84  L   337.11,   283.01  L   337.11,   287.26  L   339.94,   290.09  L   342.78,   287.26  L   342.78,   283.01  L   339.94,   285.84  " /><path style="stroke-width: 0.85 ;&st7;  " d=" M   314.45,   205.75  L   314.45,   231.25  " /><path style="stroke-width: 0.85 ;&st7;  " d=" M   339.94,   205.75  L   339.94,   231.25  " /><path style="stroke-width: 0.85 ;&st7;  " d=" M   339.94,   265.24  L   339.94,   290.74  " /><path style="stroke-width: 0.85 ;&st7;  " d=" M   314.45,   265.24  L   314.45,   290.74  " /><text style="font-size:6px;font-family:'NSimSun';" transform="matrix(&st16;  308.26  273.43 )">3</text><text style="font-size:6px;font-family:'NSimSun';" transform="matrix(&st16;  333.76  273.43 )">2</text><text style="font-size:6px;font-family:'NSimSun';" transform="matrix(&st16;  308.26  227.56 )">5</text><text style="font-size:6px;font-family:'NSimSun';" transform="matrix(&st16;  333.76  227.56 )">1</text><text style="font-size:6px;font-family:'NSimSun';" transform="matrix(&st16;  312.65  203.47 )">1</text><text style="font-size:6px;font-family:'NSimSun';" transform="matrix(&st16;  338.14  203.47 )">1</text><text style="font-size:6px;font-family:'NSimSun';" transform="matrix(&st16;  312.65  296.96 )">1</text><text style="font-size:6px;font-family:'NSimSun';" transform="matrix(&st16;  338.14  296.96 )">1</text><text style="font-size:6px;font-family:'NSimSun';" transform="matrix(&st16;  350.7  247.39 )" ewd:textID="13">H-LP<tspan x="0 " dy="6.0">继电器</tspan></text><path style="stroke-width: 0.85 ;&st7;  " d=" M   314.45,   265.24  L   314.45,   260.99  " /><path style="stroke-width: 0.85 ;&st7;  " d=" M   314.45,   235.50  L   314.45,   231.25  " /><path style="stroke-width: 0.85 ;&st7;  " d=" M   339.94,   231.25  L   339.94,   239.75  " /><path style="stroke-width: 0.85 ;&st7;  " d=" M   339.94,   256.74  L   339.94,   265.24  " /><path style="stroke-width: 1.42 ;&st7;  " d=" M   314.45,   258.16  L   308.78,   235.50  " /><path style="stroke-width: 0.85 ;&st7;   " d=" M   315.86,   259.58  C   315.86    258.79    315.23    258.16    314.45    258.16  " /><path style="stroke-width: 0.85 ;&st7;   " d=" M   314.45,   258.16  C   313.67    258.16    313.03    258.79    313.03    259.58  " /><path style="stroke-width: 0.85 ;&st7;   " d=" M   313.03,   259.58  C   313.03    260.36    313.67    260.99    314.45    260.99  " /><path style="stroke-width: 0.85 ;&st7;   " d=" M   314.45,   260.99  C   315.23    260.99    315.86    260.36    315.86    259.58  " /><path style="stroke-width: 0.85 ;&st7;   " d=" M   315.86,   236.91  C   315.86    236.13    315.23    235.50    314.45    235.50  " /><path style="stroke-width: 0.85 ;&st7;   " d=" M   314.45,   235.50  C   313.67    235.50    313.03    236.13    313.03    236.91  " /><path style="stroke-width: 0.85 ;&st7;   " d=" M   313.03,   236.91  C   313.03    237.69    313.67    238.33    314.45    238.33  " /><path style="stroke-width: 0.85 ;&st7;   " d=" M   314.45,   238.33  C   315.23    238.33    315.86    237.69    315.86    236.91  " /><path style="stroke-width: 0.85 ;&st7;   " d=" M   337.41,   245.77  C   338.78    247.16    341.02    247.19    342.42    245.82  " /><path style="stroke-width: 0.85 ;&st7;   " d=" M   342.42,   245.82  C   343.82    244.45    343.84    242.20    342.47    240.81  " /><path style="stroke-width: 0.85 ;&st7;   " d=" M   342.47,   240.81  C   341.78    240.10    340.93    239.74    339.94    239.74  " /><path style="stroke-width: 0.85 ;&st7;   " d=" M   337.41,   250.72  C   338.78    252.12    341.02    252.14    342.42    250.77  " /><path style="stroke-width: 0.85 ;&st7;   " d=" M   342.42,   250.77  C   343.82    249.40    343.84    247.16    342.47    245.77  " /><path style="stroke-width: 0.85 ;&st7;   " d=" M   342.47,   245.77  C   341.10    244.37    338.86    244.35    337.46    245.71  " /><path style="stroke-width: 0.85 ;&st7;   " d=" M   337.46,   245.71  C   337.45    245.73    337.43    245.75    337.41    245.77  " /><path style="stroke-width: 0.85 ;&st7;   " d=" M   339.94,   256.74  C   341.90    256.74    343.48    255.16    343.48    253.20  " /><path style="stroke-width: 0.85 ;&st7;   " d=" M   343.48,   253.20  C   343.48    251.25    341.90    249.66    339.94    249.66  " /><path style="stroke-width: 0.85 ;&st7;   " d=" M   339.94,   249.66  C   338.95    249.66    338.11    250.02    337.41    250.72  " /><path style="stroke-width: 1.42 ;&st7;  " d=" M   348.44,   231.25  L   305.95,   231.25  L   305.95,   265.24  L   348.44,   265.24  L   348.44,   231.25  " /></g><g ewd:figtype="rb" ewd:figID="3" ewd:code="FUSE29"><path style="stroke-width: 0.85 ;&st7;  " d=" M   297.45,    69.77  L   297.45,    95.27  " /><path style="stroke-width: 1.42 ;&st7;  " d=" M   299.57,   103.77  L   295.33,   103.77  " /><path style="stroke-width: 1.42 ;&st7;  " d=" M   299.57,    95.27  L   295.33,    95.27  " /><path style="stroke-width: 1.42 ;&st7;   " d=" M   303.82,    99.52  C   303.82     97.17    301.92     95.27    299.57     95.27  " /><path style="stroke-width: 1.42 ;&st7;   " d=" M   299.57,   103.77  C   301.92    103.77    303.82    101.87    303.82     99.52  " /><path style="stroke-width: 1.42 ;&st7;   " d=" M   291.08,    99.52  C   291.08    101.87    292.98    103.77    295.33    103.77  " /><path style="stroke-width: 1.42 ;&st7;   " d=" M   295.33,    95.27  C   292.98     95.27    291.08     97.17    291.08     99.52  " /><path style="stroke-width: 0.28 ;&st9;  " d=" M   297.45,    90.37  L   294.62,    87.54  L   294.62,    91.79  L   297.45,    94.62  L   300.28,    91.79  L   300.28,    87.54  L   297.45,    90.37  " /><text style="font-size:6px;font-family:'NSimSun';" transform="matrix(&st16;  291.27  86.47 )">2</text><text style="font-size:6px;font-family:'NSimSun';" transform="matrix(&st16;  295.65  101.49 )">1</text><text style="font-size:6px;font-family:'NSimSun';" transform="matrix(&st16;  313.87  56.17 )">40A <tspan x="0 " dy="6.0">H-LP-MAIN</tspan></text><text style="font-size:6px;font-family:'NSimSun';" transform="matrix(&st16;  289.41  32.08 )">(BAT)</text><path style="stroke-width: 0.85 ;&st7;   " d=" M   298.87,    68.36  C   298.87     67.57    298.23     66.94    297.45     66.94  " /><path style="stroke-width: 0.85 ;&st7;   " d=" M   297.45,    66.94  C   296.67     66.94    296.03     67.57    296.03     68.36  " /><path style="stroke-width: 0.85 ;&st7;   " d=" M   296.03,    68.36  C   296.03     69.14    296.67     69.77    297.45     69.77  " /><path style="stroke-width: 0.85 ;&st7;   " d=" M   297.45,    69.77  C   298.23     69.77    298.87     69.14    298.87     68.36  " /><path style="stroke-width: 0.85 ;&st7;   " d=" M   298.87,    45.69  C   298.87     44.91    298.23     44.28    297.45     44.28  " /><path style="stroke-width: 0.85 ;&st7;   " d=" M   297.45,    44.28  C   296.67     44.28    296.03     44.91    296.03     45.69  " /><path style="stroke-width: 0.85 ;&st7;   " d=" M   296.03,    45.69  C   296.03     46.48    296.67     47.11    297.45     47.11  " /><path style="stroke-width: 0.85 ;&st7;   " d=" M   297.45,    47.11  C   298.23     47.11    298.87     46.48    298.87     45.69  " /><path style="stroke-width: 1.42 ;&st7;   " d=" M   297.45,    66.94  C   300.19     65.33    301.10     61.80    299.49     59.06  " /><path style="stroke-width: 1.42 ;&st7;   " d=" M   299.49,    59.06  C   298.97     58.18    298.33     57.55    297.45     57.03  " /><path style="stroke-width: 1.42 ;&st7;   " d=" M   297.45,    47.11  C   294.71     48.72    293.80     52.25    295.41     54.99  " /><path style="stroke-width: 1.42 ;&st7;   " d=" M   295.41,    54.99  C   295.93     55.87    296.57     56.51    297.45     57.03  " /><path style="stroke-width: 1.42 ;&st7;  " d=" M   284.70,    35.78  L   284.70,    78.27  L   310.20,    78.27  L   310.20,    35.78  L   284.70,    35.78  " /></g><g ewd:figtype="rb" ewd:figID="4" ewd:code="FUSE11"><path style="stroke-width: 1.42 ;&st7;   " d=" M   186.97,   259.58  C   184.23    261.19    183.32    264.72    184.93    267.45  " /><path style="stroke-width: 1.42 ;&st7;   " d=" M   184.93,   267.45  C   185.45    268.34    186.09    268.97    186.97    269.49  " /><path style="stroke-width: 1.42 ;&st7;   " d=" M   186.97,   279.41  C   189.71    277.79    190.62    274.27    189.01    271.53  " /><path style="stroke-width: 1.42 ;&st7;   " d=" M   189.01,   271.53  C   188.49    270.65    187.85    270.01    186.97    269.49  " /><path style="stroke-width: 0.85 ;&st7;   " d=" M   188.39,   258.16  C   188.39    257.38    187.75    256.74    186.97    256.74  " /><path style="stroke-width: 0.85 ;&st7;   " d=" M   186.97,   256.74  C   186.19    256.74    185.55    257.38    185.55    258.16  " /><path style="stroke-width: 0.85 ;&st7;   " d=" M   185.55,   258.16  C   185.55    258.94    186.19    259.58    186.97    259.58  " /><path style="stroke-width: 0.85 ;&st7;   " d=" M   186.97,   259.58  C   187.75    259.58    188.39    258.94    188.39    258.16  " /><path style="stroke-width: 0.85 ;&st7;   " d=" M   188.39,   280.82  C   188.39    280.04    187.75    279.41    186.97    279.41  " /><path style="stroke-width: 0.85 ;&st7;   " d=" M   186.97,   279.41  C   186.19    279.41    185.55    280.04    185.55    280.82  " /><path style="stroke-width: 0.85 ;&st7;   " d=" M   185.55,   280.82  C   185.55    281.60    186.19    282.24    186.97    282.24  " /><path style="stroke-width: 0.85 ;&st7;   " d=" M   186.97,   282.24  C   187.75    282.24    188.39    281.60    188.39    280.82  " /><path style="stroke-width: 1.42 ;&st7;  " d=" M   174.22,   248.24  L   174.22,   290.74  L   199.72,   290.74  L   199.72,   248.24  L   174.22,   248.24  " /></g><g ewd:figtype="rb" ewd:figID="5" ewd:code="FUSE12"><path style="stroke-width: 0.85 ;&st7;  " d=" M   611.90,   256.74  L   611.90,   282.24  " /><path style="stroke-width: 1.42 ;&st7;  " d=" M   614.02,   282.24  L   609.77,   282.24  " /><path style="stroke-width: 1.42 ;&st7;  " d=" M   614.02,   290.74  L   609.77,   290.74  " /><path style="stroke-width: 0.85 ;&st7;  " d=" M   399.43,   256.74  L   399.43,   282.24  " /><path style="stroke-width: 1.42 ;&st7;  " d=" M   401.56,   282.24  L   397.31,   282.24  " /><path style="stroke-width: 1.42 ;&st7;  " d=" M   401.56,   290.74  L   397.31,   290.74  " /><path style="stroke-width: 1.42 ;&st7;  " d=" M   758.50,   282.24  L   754.25,   282.24  " /><path style="stroke-width: 1.42 ;&st7;  " d=" M   758.50,   290.74  L   754.25,   290.74  " /><path style="stroke-width: 1.42 ;&st7;   " d=" M   609.77,   282.24  C   607.43    282.24    605.52    284.14    605.52    286.49  " /><path style="stroke-width: 1.42 ;&st7;   " d=" M   605.52,   286.49  C   605.52    288.83    607.43    290.74    609.77    290.74  " /><path style="stroke-width: 1.42 ;&st7;   " d=" M   614.02,   290.74  C   616.37    290.74    618.27    288.83    618.27    286.49  " /><path style="stroke-width: 1.42 ;&st7;   " d=" M   618.27,   286.49  C   618.27    284.14    616.37    282.24    614.02    282.24  " /><path style="stroke-width: 1.42 ;&st7;   " d=" M   397.31,   282.24  C   394.96    282.24    393.06    284.14    393.06    286.49  " /><path style="stroke-width: 1.42 ;&st7;   " d=" M   393.06,   286.49  C   393.06    288.83    394.96    290.74    397.31    290.74  " /><path style="stroke-width: 1.42 ;&st7;   " d=" M   401.56,   290.74  C   403.90    290.74    405.81    288.83    405.81    286.49  " /><path style="stroke-width: 1.42 ;&st7;   " d=" M   405.81,   286.49  C   405.81    284.14    403.90    282.24    401.56    282.24  " /><path style="stroke-width: 1.42 ;&st7;   " d=" M   754.25,   282.24  C   751.90    282.24    750.00    284.14    750.00    286.49  " /><path style="stroke-width: 1.42 ;&st7;   " d=" M   750.00,   286.49  C   750.00    288.83    751.90    290.74    754.25    290.74  " /><path style="stroke-width: 1.42 ;&st7;   " d=" M   758.50,   290.74  C   760.85    290.74    762.75    288.83    762.75    286.49  " /><path style="stroke-width: 1.42 ;&st7;   " d=" M   762.75,   286.49  C   762.75    284.14    760.85    282.24    758.50    282.24  " /><path style="stroke-width: 0.85 ;&st7;  " d=" M   610.70,   204.75  L   610.43,   205.22  L   610.34,   205.75  L   610.43,   206.28  L   610.70,   206.75  L   611.12,   207.10  L   611.63,   207.29  L   612.17,   207.29  L   612.68,   207.10  L   613.09,   206.75  L   613.36,   206.28  L   613.46,   205.75  L   613.36,   205.22  L   613.09,   204.75  L   612.68,   204.40  L   612.17,   204.22  L   611.63,   204.22  L   611.12,   204.40  L   610.70,   204.75  L   611.10,   205.46  L   611.10,   206.04  L   611.47,   206.49  L   612.04,   206.59  L   612.55,   206.30  L   612.75,   205.75  L   612.55,   205.20  L   612.04,   204.92  L   611.47,   205.01  L   611.90,   205.75  " /><path style="stroke-width: 0.28 ;&st9;  " d=" M   611.90,   277.34  L   609.06,   274.51  L   609.06,   278.76  L   611.90,   281.59  L   614.73,   278.76  L   614.73,   274.51  L   611.90,   277.34  " /><path style="stroke-width: 0.85 ;&st7;  " d=" M   611.90,   205.75  L   611.90,   231.25  " /><path style="stroke-width: 0.28 ;&st9;  " d=" M   399.43,   277.34  L   396.60,   274.51  L   396.60,   278.76  L   399.43,   281.59  L   402.27,   278.76  L   402.27,   274.51  L   399.43,   277.34  " /><path style="stroke-width: 0.85 ;&st7;  " d=" M   399.43,   222.75  L   399.43,   205.75  L   756.37,   205.75  L   756.37,   282.24  " /><path style="stroke-width: 0.28 ;&st9;  " d=" M   756.37,   277.34  L   753.54,   274.51  L   753.54,   278.76  L   756.37,   281.59  L   759.21,   278.76  L   759.21,   274.51  L   756.37,   277.34  " /><text style="font-size:6px;font-family:'NSimSun';" transform="matrix(&st16;  628.32  240.31 )">10A <tspan x="0 " dy="6.0">H-LP </tspan><tspan x="0 " dy="6.0">LH-HI</tspan></text><text style="font-size:6px;font-family:'NSimSun';" transform="matrix(&st16;  610.1  288.46 )">1</text><text style="font-size:6px;font-family:'NSimSun';" transform="matrix(&st16;  605.71  273.43 )">2</text><text style="font-size:6px;font-family:'NSimSun';" transform="matrix(&st16;  415.86  240.31 )">10A <tspan x="0 " dy="6.0">H-LP </tspan><tspan x="0 " dy="6.0">RH-HI</tspan></text><text style="font-size:6px;font-family:'NSimSun';" transform="matrix(&st16;  397.63  288.46 )">1</text><text style="font-size:6px;font-family:'NSimSun';" transform="matrix(&st16;  393.25  273.43 )">2</text><text style="font-size:6px;font-family:'NSimSun';" transform="matrix(&st16;  393.25  219.06 )">1</text><text style="font-size:6px;font-family:'NSimSun';" transform="matrix(&st16;  605.71  219.06 )">1</text><text style="font-size:6px;font-family:'NSimSun';" transform="matrix(&st16;  754.57  288.46 )">1</text><path style="stroke-width: 1.42 ;&st7;   " d=" M   399.43,   234.08  C   396.70    235.69    395.78    239.22    397.40    241.96  " /><path style="stroke-width: 1.42 ;&st7;   " d=" M   397.40,   241.96  C   397.92    242.84    398.55    243.47    399.43    243.99  " /><path style="stroke-width: 1.42 ;&st7;   " d=" M   399.43,   253.91  C   402.17    252.30    403.08    248.77    401.47    246.03  " /><path style="stroke-width: 1.42 ;&st7;   " d=" M   401.47,   246.03  C   400.95    245.15    400.32    244.51    399.43    243.99  " /><path style="stroke-width: 0.85 ;&st7;   " d=" M   400.85,   232.66  C   400.85    231.88    400.22    231.25    399.43    231.25  " /><path style="stroke-width: 0.85 ;&st7;   " d=" M   399.43,   231.25  C   398.65    231.25    398.02    231.88    398.02    232.66  " /><path style="stroke-width: 0.85 ;&st7;   " d=" M   398.02,   232.66  C   398.02    233.45    398.65    234.08    399.43    234.08  " /><path style="stroke-width: 0.85 ;&st7;   " d=" M   399.43,   234.08  C   400.22    234.08    400.85    233.45    400.85    232.66  " /><path style="stroke-width: 0.85 ;&st7;   " d=" M   400.85,   255.33  C   400.85    254.54    400.22    253.91    399.43    253.91  " /><path style="stroke-width: 0.85 ;&st7;   " d=" M   399.43,   253.91  C   398.65    253.91    398.02    254.54    398.02    255.33  " /><path style="stroke-width: 0.85 ;&st7;   " d=" M   398.02,   255.33  C   398.02    256.11    398.65    256.74    399.43    256.74  " /><path style="stroke-width: 0.85 ;&st7;   " d=" M   399.43,   256.74  C   400.22    256.74    400.85    256.11    400.85    255.33  " /><path style="stroke-width: 1.42 ;&st7;  " d=" M   386.69,   222.75  L   386.69,   265.24  L   412.18,   265.24  L   412.18,   222.75  L   386.69,   222.75  " /><path style="stroke-width: 0.85 ;&st7;  " d=" M   399.43,   222.75  L   399.43,   231.25  " /></g><g ewd:figtype="conn" ewd:figID="15" ewd:code="A17,A29,A31"><text style="font-size:6px;font-family:'NSimSun';" transform="matrix(&st16;  198.05  508.01 )">B</text><path style="stroke-width: 1.42 ;&st7;  " d=" M   135.98,   460.71  L   140.23,   460.71  " /><path style="stroke-width: 1.42 ;&st7;  " d=" M   135.98,   477.71  L   140.23,   477.71  " /><path style="stroke-width: 1.42 ;&st7;  " d=" M   135.98,   460.71  L   131.73,   460.71  " /><path style="stroke-width: 1.42 ;&st7;  " d=" M   135.98,   477.71  L   131.73,   477.71  " /><text style="font-size:6px;font-family:'NSimSun';" transform="matrix(&st16;  138.56  508.01 )">E</text><path style="stroke-width: 0.85 ;&st7;  " d=" M   135.98,   460.71  L   135.98,   464.96  " /><path style="stroke-width: 0.85 ;&st7;  " d=" M   135.98,   473.46  L   135.98,   477.71  " /><path style="stroke-width: 1.42 ;&st7;  " d=" M    93.48,   460.71  L    97.73,   460.71  " /><path style="stroke-width: 1.42 ;&st7;  " d=" M    93.48,   477.71  L    97.73,   477.71  " /><path style="stroke-width: 1.42 ;&st7;  " d=" M    93.48,   460.71  L    89.24,   460.71  " /><path style="stroke-width: 1.42 ;&st7;  " d=" M    93.48,   477.71  L    89.24,   477.71  " /><path style="stroke-width: 0.85 ;&st7;  " d=" M    93.48,   460.71  L    93.48,   464.96  " /><path style="stroke-width: 0.85 ;&st7;  " d=" M    93.48,   473.46  L    93.48,   477.71  " /><path style="stroke-width: 0.85 ;&st7;  " d=" M   174.22,   486.20  L   165.72,   486.20  " /><path style="stroke-width: 0.85 ;&st7;  " d=" M   182.70,   476.54  L   175.34,   480.79  " /><text style="font-size:6px;font-family:'NSimSun';" transform="matrix(&st17;  162.31  487.52 )">DRL</text><path style="stroke-width: 1.42 ;&st7;   " d=" M   140.23,   477.71  C   144.92    477.71    148.73    473.90    148.73    469.21  " /><path style="stroke-width: 1.42 ;&st7;   " d=" M   148.73,   469.21  C   148.73    464.51    144.92    460.71    140.23    460.71  " /><path style="stroke-width: 1.42 ;&st7;   " d=" M   131.73,   460.71  C   127.03    460.71    123.23    464.51    123.23    469.21  " /><path style="stroke-width: 1.42 ;&st7;   " d=" M   123.23,   469.21  C   123.23    473.90    127.03    477.71    131.73    477.71  " /><path style="stroke-width: 0.85 ;&st7;   " d=" M   133.57,   469.21  C   134.36    470.55    136.09    470.99    137.43    470.20  " /><path style="stroke-width: 0.85 ;&st7;   " d=" M   137.43,   470.20  C   138.77    469.41    139.21    467.68    138.42    466.34  " /><path style="stroke-width: 0.85 ;&st7;   " d=" M   138.42,   466.34  C   137.89    465.45    137.01    464.95    135.98    464.96  " /><path style="stroke-width: 0.85 ;&st7;   " d=" M   135.98,   473.46  C   137.53    473.47    138.80    472.21    138.81    470.66  " /><path style="stroke-width: 0.85 ;&st7;   " d=" M   138.81,   470.66  C   138.82    469.10    137.57    467.83    136.01    467.82  " /><path style="stroke-width: 0.85 ;&st7;   " d=" M   136.01,   467.82  C   134.98    467.82    134.10    468.32    133.57    469.21  " /><path style="stroke-width: 1.42 ;&st7;   " d=" M    97.73,   477.71  C   102.43    477.71    106.23    473.90    106.23    469.21  " /><path style="stroke-width: 1.42 ;&st7;   " d=" M   106.23,   469.21  C   106.23    464.51    102.43    460.71     97.73    460.71  " /><path style="stroke-width: 1.42 ;&st7;   " d=" M    89.24,   460.71  C    84.54    460.71     80.74    464.51     80.74    469.21  " /><path style="stroke-width: 1.42 ;&st7;   " d=" M    80.74,   469.21  C    80.74    473.90     84.54    477.71     89.24    477.71  " /><path style="stroke-width: 0.85 ;&st7;   " d=" M    91.08,   469.21  C    91.87    470.55     93.60    470.99     94.93    470.20  " /><path style="stroke-width: 0.85 ;&st7;   " d=" M    94.93,   470.20  C    96.27    469.41     96.72    467.68     95.93    466.34  " /><path style="stroke-width: 0.85 ;&st7;   " d=" M    95.93,   466.34  C    95.40    465.45     94.52    464.95     93.48    464.96  " /><path style="stroke-width: 0.85 ;&st7;   " d=" M    93.48,   473.46  C    95.04    473.47     96.31    472.21     96.32    470.66  " /><path style="stroke-width: 0.85 ;&st7;   " d=" M    96.32,   470.66  C    96.33    469.10     95.07    467.83     93.52    467.82  " /><path style="stroke-width: 0.85 ;&st7;   " d=" M    93.52,   467.82  C    92.49    467.82     91.60    468.32     91.08    469.21  " /><path style="stroke-width: 1.42 ;&st7;  " d=" M    67.99,   511.70  L   212.46,   511.70  L   212.46,   435.21  L    67.99,   435.21  L    67.99,   511.70  " /><path style="stroke-width: 0.85 ;&st7;  " d=" M    93.48,   477.71  L    93.48,   511.70  " /><path style="stroke-width: 0.85 ;&st7;  " d=" M   135.98,   511.70  L   135.98,   477.71  " /><path style="stroke-width: 0.85 ;&st7;  " d=" M   135.98,   460.71  L   135.98,   435.21  " /><path style="stroke-width: 0.85 ;&st7;  " d=" M    93.48,   460.71  L    93.48,   435.21  " /><path style="stroke-width: 0.28 ;&st9;  " d=" M   169.97,   486.20  L   164.31,   477.71  L   175.64,   477.71  L   169.97,   486.20  " /><path style="stroke-width: 0.85 ;&st7;  " d=" M   177.35,   484.26  L   184.71,   480.01  " /><text style="font-size:6px;font-family:'NSimSun';" transform="matrix(&st16;  138.56  443.41 )">HI</text><text style="font-size:6px;font-family:'NSimSun';" transform="matrix(&st16;  172.55  508.01 )">E</text><text style="font-size:6px;font-family:'NSimSun';" transform="matrix(&st16;  96.07  443.41 )">LO</text><text style="font-size:6px;font-family:'NSimSun';" transform="matrix(&st16;  96.07  508.01 )">E</text><text style="font-size:6px;font-family:'NSimSun';" transform="matrix(&st17;  77.04  474.19 )" ewd:textID="20">低</text><text style="font-size:6px;font-family:'NSimSun';" transform="matrix(&st17;  119.53  474.86 )" ewd:textID="18">高</text><path style="stroke-width: 0.85 ;&st7;  " d=" M   182.71,   476.54  L   180.37,   479.58  L   178.90,   477.04  L   182.71,   476.54  L   181.42,   477.28  L   180.44,   478.56  L   179.82,   477.49  L   181.42,   477.28  L   180.78,   477.65  L   180.47,   478.05  L   180.27,   477.72  L   180.78,   477.65  " /><path style="stroke-width: 0.85 ;&st7;  " d=" M   184.71,   480.01  L   182.37,   483.05  L   180.91,   480.51  L   184.71,   480.01  L   183.42,   480.75  L   182.44,   482.03  L   181.82,   480.96  L   183.42,   480.75  L   182.78,   481.12  L   182.47,   481.52  L   182.28,   481.19  L   182.78,   481.12  " /><path style="stroke-width: 0.85 ;&st7;  " d=" M   169.97,   511.70  L   169.97,   452.21  L   195.47,   452.21  L   195.47,   511.70  " /><text style="font-size:6px;font-family:'NSimSun';" transform="matrix(&st16;  84.79  518.2 )">1</text><text style="font-size:6px;font-family:'NSimSun';" transform="matrix(&st16;  91.06  518.2 )">C</text><path style="stroke-width: 1.42 ;&st7;   " d=" M    98.02,   516.23  C    98.02    513.73     95.99    511.70     93.48    511.70  " /><path style="stroke-width: 1.42 ;&st7;   " d=" M    93.48,   511.70  C    90.98    511.70     88.95    513.73     88.95    516.23  " /><path style="stroke-width: 1.42 ;&st7;   " d=" M    88.95,   516.23  C    88.95    518.74     90.98    520.76     93.48    520.76  " /><path style="stroke-width: 1.42 ;&st7;   " d=" M    93.48,   520.76  C    95.99    520.76     98.02    518.74     98.02    516.23  " /><text style="font-size:6px;font-family:'NSimSun';" transform="matrix(&st16;  84.79  432.65 )">2</text><text style="font-size:6px;font-family:'NSimSun';" transform="matrix(&st16;  91.06  432.65 )">C</text><path style="stroke-width: 1.42 ;&st7;   " d=" M    98.02,   430.68  C    98.02    428.18     95.99    426.15     93.48    426.15  " /><path style="stroke-width: 1.42 ;&st7;   " d=" M    93.48,   426.15  C    90.98    426.15     88.95    428.18     88.95    430.68  " /><path style="stroke-width: 1.42 ;&st7;   " d=" M    88.95,   430.68  C    88.95    433.18     90.98    435.21     93.48    435.21  " /><path style="stroke-width: 1.42 ;&st7;   " d=" M    93.48,   435.21  C    95.99    435.21     98.02    433.18     98.02    430.68  " /><text style="font-size:6px;font-family:'NSimSun';" transform="matrix(&st16;  186.77  518.2 )">4</text><text style="font-size:6px;font-family:'NSimSun';" transform="matrix(&st16;  193.16  518.2 )">A</text><path style="stroke-width: 1.42 ;&st7;   " d=" M   200.00,   516.23  C   200.00    513.73    197.97    511.70    195.47    511.70  " /><path style="stroke-width: 1.42 ;&st7;   " d=" M   195.47,   511.70  C   192.96    511.70    190.93    513.73    190.93    516.23  " /><path style="stroke-width: 1.42 ;&st7;   " d=" M   190.93,   516.23  C   190.93    518.74    192.96    520.76    195.47    520.76  " /><path style="stroke-width: 1.42 ;&st7;   " d=" M   195.47,   520.76  C   197.97    520.76    200.00    518.74    200.00    516.23  " /><text style="font-size:6px;font-family:'NSimSun';" transform="matrix(&st16;  127.28  518.2 )">1</text><path style="stroke-width: 1.42 ;&st7;   " d=" M   140.51,   516.23  C   140.51    513.73    138.48    511.70    135.98    511.70  " /><path style="stroke-width: 1.42 ;&st7;   " d=" M   135.98,   511.70  C   133.47    511.70    131.44    513.73    131.44    516.23  " /><path style="stroke-width: 1.42 ;&st7;   " d=" M   131.44,   516.23  C   131.44    518.74    133.47    520.76    135.98    520.76  " /><path style="stroke-width: 1.42 ;&st7;   " d=" M   135.98,   520.76  C   138.48    520.76    140.51    518.74    140.51    516.23  " /><text style="font-size:6px;font-family:'NSimSun';" transform="matrix(&st16;  133.79  518.2 )">B</text><text style="font-size:6px;font-family:'NSimSun';" transform="matrix(&st16;  127.28  432.65 )">2</text><path style="stroke-width: 1.42 ;&st7;   " d=" M   140.51,   430.68  C   140.51    428.18    138.48    426.15    135.98    426.15  " /><path style="stroke-width: 1.42 ;&st7;   " d=" M   135.98,   426.15  C   133.47    426.15    131.44    428.18    131.44    430.68  " /><path style="stroke-width: 1.42 ;&st7;   " d=" M   131.44,   430.68  C   131.44    433.18    133.47    435.21    135.98    435.21  " /><path style="stroke-width: 1.42 ;&st7;   " d=" M   135.98,   435.21  C   138.48    435.21    140.51    433.18    140.51    430.68  " /><text style="font-size:6px;font-family:'NSimSun';" transform="matrix(&st16;  133.79  432.65 )">B</text><text style="font-size:6px;font-family:'NSimSun';" transform="matrix(&st16;  161.28  518.2 )">2</text><path style="stroke-width: 1.42 ;&st7;   " d=" M   174.50,   516.23  C   174.50    513.73    172.47    511.70    169.97    511.70  " /><path style="stroke-width: 1.42 ;&st7;   " d=" M   169.97,   511.70  C   167.47    511.70    165.44    513.73    165.44    516.23  " /><path style="stroke-width: 1.42 ;&st7;   " d=" M   165.44,   516.23  C   165.44    518.74    167.47    520.76    169.97    520.76  " /><path style="stroke-width: 1.42 ;&st7;   " d=" M   169.97,   520.76  C   172.47    520.76    174.50    518.74    174.50    516.23  " /><text style="font-size:6px;font-family:'NSimSun';" transform="matrix(&st16;  167.67  518.2 )">A</text><g ewd:figtype="title"><text style="font-size:6px;font-family:'NSimSun';" transform="matrix(&st17;  57.19  514.6 )">A17(A),A29(B),A31(C)</text><text style="font-size:6px;font-family:'NSimSun';" transform="matrix(&st17;  64.29  514.61 )" ewd:textID="16">右侧大灯总成</text></g></g><g ewd:figtype="gp" ewd:figID="29" ewd:code="AC"><path style="stroke-width: 0.85 ;&st7;  " d=" M   135.98,   697.25  L   135.98,   701.50  " /><path style="stroke-width: 0.85 ;&st7;  " d=" M   127.48,   701.50  L   144.48,   701.50  " /><path style="stroke-width: 0.85 ;&st7;  " d=" M   131.73,   704.33  L   140.23,   704.33  " /><path style="stroke-width: 0.85 ;&st7;  " d=" M   133.14,   707.17  L   138.81,   707.17  " /><path style="stroke-width: 0.85 ;&st7;  " d=" M   134.56,   710.00  L   137.39,   710.00  " /></g></svg>