<?xml version="1.0" encoding="utf-8"?>
<!DOCTYPE svg PUBLIC "-//W3C//DTD SVG 1.0//EN" "http://www.w3.org/TR/2001/REC-SVG-20010904/DTD/svg10.dtd"[
	<!ENTITY ns_flows "http://ns.adobe.com/Flows/1.0/">
	<!ENTITY ns_svg "http://www.w3.org/2000/svg">
	<!ENTITY ns_xlink "http://www.w3.org/1999/xlink">
	<!ENTITY st0 "font-size:7px;font-family:'NSimSun';adobe-font-script:japanese;">
	<!ENTITY st1 "font-size:6px;font-family:'NSimSun';">
	<!-- White fill  -->
	<!ENTITY st2 "fill:#FFFFFF;stroke:#000000; stroke-width:1.41;stroke-linecap:round;stroke-linejoin:round;">
	<!-- Yellow fill  -->
	<!ENTITY st3 "fill:#FFFFCC;stroke:#FFFFCC; stroke-width:0.1;stroke-linecap:round;stroke-linejoin:round;">
	<!-- Gray fill  -->
	<!ENTITY st4 "fill:#CCCCCC;stroke:#CCCCCC; stroke-width:0.1;stroke-linecap:round;stroke-linejoin:round;">
	<!-- Light-blue fill -->
	<!ENTITY st5 "fill:#CCECF4;stroke:#000000; stroke-width:1.133;stroke-linecap:round;stroke-linejoin:round;">
	<!ENTITY st6 "fill:none;stroke-linecap:butt; stroke-linejoin:round;">
	<!ENTITY st7 "fill:none;stroke:#000000;stroke-linecap:round;stroke-linejoin:round;">
	<!ENTITY st8 "enable-background:new    ;">
	<!-- Black fill -->
	<!ENTITY st9 "fill:#000000;stroke:#000000; stroke-linecap:round;stroke-linejoin:round;">
	<!-- SRS note   -->
	<!ENTITY st10 "font-size:9px;font-family:'NSimSun';">
	<!ENTITY st11 "font-size:9px;font-family:'NSimSun';">
	<!ENTITY st12 "font-size:6px;font-family:'NSimSun';">
	<!ENTITY st13 "fill:none;stroke:#ff0000;stroke-linecap:round;stroke-linejoin:round;">
	<!-- Yellow fill  -->
	<!ENTITY st14 "fill:#FFFF00;stroke:#FFFF00; stroke-width:0.1;stroke-linecap:round;stroke-linejoin:round;">
	<!ENTITY st15 "font-size:6px;font-family:'NSimSun';adobe-font-script:japanese;">
	<!ENTITY st16 "1.00 0.00 0.00 1.00">
	<!ENTITY st17 "0.00 -1.00 1.00 0.00">
	<!ENTITY st18 "font-size:6px;font-family:'NSimSun';">
	<!ENTITY st19 "font-size:9px;font-family:'NSimSun';">
	<!ENTITY st20 "font-size:6px;font-family:'NSimSun';adobe-font-script:japanese;">
	<!ENTITY st21 "font-size:7px;font-family:'NSimSun';adobe-font-script:japanese;">
	<!ATTLIST svg
		xmlns:ewd CDATA #FIXED "http://shcl.co.jp/ewd"
		xmlns:a CDATA #FIXED "http://ns.adobe.com/AdobeSVGViewerExtensions/3.0/"
		ewd:ver CDATA #IMPLIED
	>
	<!ATTLIST a
		ewd:lineID CDATA #IMPLIED
		ewd:groupID CDATA #IMPLIED
		ewd:figtype CDATA #IMPLIED
		ewd:code CDATA #IMPLIED
		ewd:figID CDATA #IMPLIED
		ewd:pinNo CDATA #IMPLIED
		ewd:comment CDATA #IMPLIED >
	<!ATTLIST g
		ewd:lineID CDATA #IMPLIED
		ewd:groupID CDATA #IMPLIED
		ewd:figtype CDATA #IMPLIED
		ewd:code CDATA #IMPLIED
		ewd:figID CDATA #IMPLIED
		ewd:pinNo CDATA #IMPLIED
		ewd:comment CDATA #IMPLIED >
	<!ATTLIST text
		ewd:textID CDATA #IMPLIED
		ewd:horAlign CDATA #IMPLIED >
	<!ATTLIST title
		ewd:textID CDATA #IMPLIED >
]>
<!-- Generator: Shintec Hozumi YS   -->
<svg onload="call_execInitLoadProc_svg('system')" style="overflow:visible;  enable-background:new 0 0 2450.963 710.000" viewBox="0 0 2455.081 710.000" height="710.000" width="2455.081" xml:space="preserve" ewd:ver="2.1.2.6F" xmlns="&ns_svg;" xmlns:ewd="http://shcl.co.jp/ewd" xmlns:a="http://ns.adobe.com/AdobeSVGViewerExtensions/3.0/" xmlns:xlink="&ns_xlink;">
<text style="font-size:6px;font-family:'NSimSun';" transform="matrix(&st16;  1764.3  32.08 )" ewd:textID="15">主车身 ECU</text><text style="font-size:6px;font-family:'NSimSun';" transform="matrix(&st16;  1764.29  24.98 )">E36(A)</text><text style="font-size:6px;font-family:'NSimSun';" transform="matrix(&st17;  1594.04  636.63 )">W-B</text><text style="font-size:6px;font-family:'NSimSun';" transform="matrix(&st17;  1594.04  194.71 )">W-B</text><text style="font-size:6px;font-family:'NSimSun';" transform="matrix(&st17;  1636.53  636.63 )">W-B</text><text style="font-size:6px;font-family:'NSimSun';" transform="matrix(&st17;  1636.53  194.71 )">W-B</text><path style="stroke-width: 1.42 ;&st7;  " d=" M  1912.18,   520.20  L  1903.68,   520.20  " /><text style="font-size:6px;font-family:'NSimSun';" transform="matrix(&st17;  1789.5  190.44 )">Y</text><text style="font-size:6px;font-family:'NSimSun';" transform="matrix(&st17;  1789.5  326.42 )">Y</text><text style="font-size:6px;font-family:'NSimSun';" transform="matrix(&st17;  1789.51  475.16 )">W-B</text><text style="font-size:6px;font-family:'NSimSun';" transform="matrix(&st17;  1789.51  560.15 )">W-B</text><text style="font-size:6px;font-family:'NSimSun';" transform="matrix(&st17;  1789.51  636.63 )">W-B</text><text style="font-size:6px;font-family:'NSimSun';" transform="matrix(&st17;  1687.52  636.63 )">W-B</text><text style="font-size:6px;font-family:'NSimSun';" transform="matrix(&st17;  1687.52  475.16 )">W-B</text><path style="stroke-width: 1.42 ;&st7;  " d=" M  1682.72,   256.74  L  1691.22,   256.74  " /><text style="font-size:6px;font-family:'NSimSun';" transform="matrix(&st17;  1899.99  326.42 )">Y</text><text style="font-size:6px;font-family:'NSimSun';" transform="matrix(&st17;  1899.99  190.44 )">Y</text><text style="font-size:6px;font-family:'NSimSun';" transform="matrix(&st17;  1687.52  192.54 )">LG</text><text style="font-size:6px;font-family:'NSimSun';" transform="matrix(&st17;  1687.52  326.42 )">Y</text><text style="font-size:6px;font-family:'NSimSun';" transform="matrix(&st17;  1899.99  560.15 )">W-B</text><path style="stroke-width: 1.42 ;&st7;  " d=" M  1699.72,   596.69  L  1691.22,   596.69  " /><text style="font-size:6px;font-family:'NSimSun';" transform="matrix(&st17;  1698.85  473.92 )">(*9)</text><text style="font-size:6px;font-family:'NSimSun';" transform="matrix(&st17;  1687.52  560.15 )">W-B</text><text style="font-size:6px;font-family:'NSimSun';" transform="matrix(&st17;  1899.99  475.16 )">W-B</text><text style="font-size:6px;font-family:'NSimSun';" transform="matrix(&st17;  1911.32  558.91 )">(*9)</text><text style="font-size:6px;font-family:'NSimSun';" transform="matrix(&st17;  1911.32  473.92 )">(*9)</text><text style="font-size:6px;font-family:'NSimSun';" transform="matrix(&st17;  1911.32  329.44 )">(*9)</text><text style="font-size:6px;font-family:'NSimSun';" transform="matrix(&st17;  1911.32  193.47 )">(*9)</text><text style="font-size:6px;font-family:'NSimSun';" transform="matrix(&st17;  1698.85  329.44 )">(*9)</text><text style="font-size:6px;font-family:'NSimSun';" transform="matrix(&st17;  1698.85  558.91 )">(*9)</text><text style="font-size:6px;font-family:'NSimSun';" transform="matrix(&st17;  1698.85  193.47 )">(*9)</text><text style="font-size:6px;font-family:'NSimSun';" transform="matrix(&st17;  1698.85  635.39 )">(*9)</text><path style="stroke-width: 1.42 ;&st7;  " d=" M  1784.70,   256.74  L  1793.20,   256.74  " /><path style="stroke-width: 1.42 ;&st7;  " d=" M  1895.18,   256.74  L  1903.68,   256.74  " /><path style="stroke-width: 1.42 ;&st7;  " d=" M  1699.72,   516.67  L  1694.74,   511.70  " /><path style="stroke-width: 1.42 ;&st7;  " d=" M  1682.72,   523.73  L  1687.69,   528.70  " /><path style="stroke-width: 1.42 ;&st7;  " d=" M  1694.74,   528.70  L  1699.72,   523.73  " /><path style="stroke-width: 1.42 ;&st7;  " d=" M  1687.69,   511.70  L  1682.72,   516.67  " /><path style="stroke-width: 1.42 ;&st7;  " d=" M  1801.70,   596.69  L  1793.20,   596.69  " /><path style="stroke-width: 1.42 ;&st7;  " d=" M  1801.70,   516.67  L  1796.73,   511.70  " /><path style="stroke-width: 1.42 ;&st7;  " d=" M  1784.70,   523.73  L  1789.67,   528.70  " /><path style="stroke-width: 1.42 ;&st7;  " d=" M  1796.73,   528.70  L  1801.70,   523.73  " /><path style="stroke-width: 1.42 ;&st7;  " d=" M  1789.67,   511.70  L  1784.70,   516.67  " /><g ewd:figtype="conn" ewd:figID="1" ewd:code="E36"><g ewd:lineID="41"><text style="font-size:6px;font-family:'NSimSun';" transform="matrix(&st16;  1679.42  93.27 )">18</text><path style="stroke-width: 1.42 ;&st7;   " d=" M  1695.75,    91.30  C  1695.75     88.80   1693.72     86.77   1691.22     86.77  " /><path style="stroke-width: 1.42 ;&st7;   " d=" M  1691.22,    86.77  C  1688.71     86.77   1686.68     88.80   1686.68     91.30  " /><path style="stroke-width: 1.42 ;&st7;   " d=" M  1686.68,    91.30  C  1686.68     93.81   1688.71     95.84   1691.22     95.84  " /><path style="stroke-width: 1.42 ;&st7;   " d=" M  1691.22,    95.84  C  1693.72     95.84   1695.75     93.81   1695.75     91.30  " /><text style="font-size:6px;font-family:'NSimSun';" transform="matrix(&st16;  1688.91  93.27 )">A</text><text style="font-size:6px;font-family:'NSimSun';" transform="matrix(&st16;  1683.87  83.07 )">LSFR</text></g><g ewd:lineID="46"><text style="font-size:6px;font-family:'NSimSun';" transform="matrix(&st16;  1784.51  93.27 )">7</text><text style="font-size:6px;font-family:'NSimSun';" transform="matrix(&st16;  1790.9  93.27 )">A</text><path style="stroke-width: 1.42 ;&st7;   " d=" M  1797.73,    91.30  C  1797.73     88.80   1795.70     86.77   1793.20     86.77  " /><path style="stroke-width: 1.42 ;&st7;   " d=" M  1793.20,    86.77  C  1790.70     86.77   1788.67     88.80   1788.67     91.30  " /><path style="stroke-width: 1.42 ;&st7;   " d=" M  1788.67,    91.30  C  1788.67     93.81   1790.70     95.84   1793.20     95.84  " /><path style="stroke-width: 1.42 ;&st7;   " d=" M  1793.20,    95.84  C  1795.70     95.84   1797.73     93.81   1797.73     91.30  " /><text style="font-size:6px;font-family:'NSimSun';" transform="matrix(&st16;  1785.89  83.07 )">LSFL</text></g><g ewd:lineID="76"><text style="font-size:6px;font-family:'NSimSun';" transform="matrix(&st16;  1589.53  83.07 )">GND1</text></g><g ewd:lineID="78"><text style="font-size:6px;font-family:'NSimSun';" transform="matrix(&st16;  1898.2  83.07 )">LSR</text></g></g><g ewd:figtype="conn" ewd:figID="16" ewd:code="G8"><path style="stroke-width: 1.42 ;&st7;  " d=" M  1691.22,   411.13  L  1696.88,   388.47  " /><path style="stroke-width: 0.85 ;&st7;  " d=" M  1691.22,   388.47  L  1691.22,   384.22  " /><path style="stroke-width: 0.85 ;&st7;   " d=" M  1692.63,   412.55  C  1692.63    411.77   1692.00    411.13   1691.22    411.13  " /><path style="stroke-width: 0.85 ;&st7;   " d=" M  1691.22,   411.13  C  1690.44    411.13   1689.80    411.77   1689.80    412.55  " /><path style="stroke-width: 0.85 ;&st7;   " d=" M  1689.80,   412.55  C  1689.80    413.33   1690.44    413.97   1691.22    413.97  " /><path style="stroke-width: 0.85 ;&st7;   " d=" M  1691.22,   413.97  C  1692.00    413.97   1692.63    413.33   1692.63    412.55  " /><path style="stroke-width: 0.85 ;&st7;   " d=" M  1692.63,   389.89  C  1692.63    389.10   1692.00    388.47   1691.22    388.47  " /><path style="stroke-width: 0.85 ;&st7;   " d=" M  1691.22,   388.47  C  1690.44    388.47   1689.80    389.10   1689.80    389.89  " /><path style="stroke-width: 0.85 ;&st7;   " d=" M  1689.80,   389.89  C  1689.80    390.67   1690.44    391.30   1691.22    391.30  " /><path style="stroke-width: 0.85 ;&st7;   " d=" M  1691.22,   391.30  C  1692.00    391.30   1692.63    390.67   1692.63    389.89  " /><path style="stroke-width: 0.85 ;&st7;  " d=" M  1691.22,   426.71  L  1691.22,   413.97  " /><path style="stroke-width: 1.42 ;&st7;  " d=" M  1665.72,   426.71  L  1716.71,   426.71  L  1716.71,   375.72  L  1665.72,   375.72  L  1665.72,   426.71  " /><path style="stroke-width: 0.85 ;&st7;  " d=" M  1691.22,   375.72  L  1691.22,   384.22  " /><text style="font-size:6px;font-family:'NSimSun';" transform="matrix(&st16;  1693.8  423.02 )">E</text><text style="font-size:6px;font-family:'NSimSun';" transform="matrix(&st16;  1693.8  383.92 )">LSSR</text><text style="font-size:6px;font-family:'NSimSun';" transform="matrix(&st17;  1680.17  413.49 )" ewd:textID="26">开锁检测<tspan x="0 " dy="6.0" /></text><text style="font-size:6px;font-family:'NSimSun';" transform="matrix(&st16;  1685.03  434.91 )">8</text><text style="font-size:6px;font-family:'NSimSun';" transform="matrix(&st16;  1685.03  372.03 )">7</text><g ewd:figtype="title"><text style="font-size:6px;font-family:'NSimSun';" transform="matrix(&st17;  1731.43  429.62 )" ewd:textID="13">带电动机的右前门锁总成</text><text style="font-size:6px;font-family:'NSimSun';" transform="matrix(&st17;  1724.32  429.61 )">G8</text></g></g><g ewd:figtype="conn" ewd:figID="17" ewd:code="H9"><path style="stroke-width: 1.42 ;&st7;  " d=" M  1767.70,   426.71  L  1818.70,   426.71  L  1818.70,   375.72  L  1767.70,   375.72  L  1767.70,   426.71  " /><text style="font-size:6px;font-family:'NSimSun';" transform="matrix(&st16;  1795.78  423.02 )">E</text><text style="font-size:6px;font-family:'NSimSun';" transform="matrix(&st16;  1795.78  383.92 )">LSSR</text><path style="stroke-width: 0.85 ;&st7;  " d=" M  1793.20,   426.71  L  1793.20,   413.97  " /><path style="stroke-width: 0.85 ;&st7;  " d=" M  1793.20,   388.47  L  1793.20,   375.72  " /><path style="stroke-width: 1.42 ;&st7;  " d=" M  1793.20,   391.30  L  1798.87,   413.97  " /><path style="stroke-width: 0.85 ;&st7;   " d=" M  1794.62,   412.55  C  1794.62    411.77   1793.98    411.13   1793.20    411.13  " /><path style="stroke-width: 0.85 ;&st7;   " d=" M  1793.20,   411.13  C  1792.42    411.13   1791.78    411.77   1791.78    412.55  " /><path style="stroke-width: 0.85 ;&st7;   " d=" M  1791.78,   412.55  C  1791.78    413.33   1792.42    413.97   1793.20    413.97  " /><path style="stroke-width: 0.85 ;&st7;   " d=" M  1793.20,   413.97  C  1793.98    413.97   1794.62    413.33   1794.62    412.55  " /><path style="stroke-width: 0.85 ;&st7;   " d=" M  1794.62,   389.89  C  1794.62    389.10   1793.98    388.47   1793.20    388.47  " /><path style="stroke-width: 0.85 ;&st7;   " d=" M  1793.20,   388.47  C  1792.42    388.47   1791.78    389.10   1791.78    389.89  " /><path style="stroke-width: 0.85 ;&st7;   " d=" M  1791.78,   389.89  C  1791.78    390.67   1792.42    391.30   1793.20    391.30  " /><path style="stroke-width: 0.85 ;&st7;   " d=" M  1793.20,   391.30  C  1793.98    391.30   1794.62    390.67   1794.62    389.89  " /><text style="font-size:6px;font-family:'NSimSun';" transform="matrix(&st17;  1782.16  413.49 )" ewd:textID="26">开锁检测<tspan x="0 " dy="6.0" /></text><text style="font-size:6px;font-family:'NSimSun';" transform="matrix(&st16;  1787.02  434.91 )">7</text><text style="font-size:6px;font-family:'NSimSun';" transform="matrix(&st16;  1787.02  372.03 )">8</text><g ewd:figtype="title"><text style="font-size:6px;font-family:'NSimSun';" transform="matrix(&st17;  1833.41  429.62 )" ewd:textID="12">带电动机的左前门锁总成</text><text style="font-size:6px;font-family:'NSimSun';" transform="matrix(&st17;  1826.31  429.61 )">H9</text></g></g><g ewd:figtype="conn" ewd:figID="18" ewd:code="J3"><path style="stroke-width: 1.42 ;&st7;  " d=" M  1903.68,   411.13  L  1909.35,   388.47  " /><path style="stroke-width: 0.85 ;&st7;   " d=" M  1905.10,   412.55  C  1905.10    411.77   1904.46    411.13   1903.68    411.13  " /><path style="stroke-width: 0.85 ;&st7;   " d=" M  1903.68,   411.13  C  1902.90    411.13   1902.27    411.77   1902.27    412.55  " /><path style="stroke-width: 0.85 ;&st7;   " d=" M  1902.27,   412.55  C  1902.27    413.33   1902.90    413.97   1903.68    413.97  " /><path style="stroke-width: 0.85 ;&st7;   " d=" M  1903.68,   413.97  C  1904.46    413.97   1905.10    413.33   1905.10    412.55  " /><path style="stroke-width: 0.85 ;&st7;   " d=" M  1905.10,   389.89  C  1905.10    389.10   1904.46    388.47   1903.68    388.47  " /><path style="stroke-width: 0.85 ;&st7;   " d=" M  1903.68,   388.47  C  1902.90    388.47   1902.27    389.10   1902.27    389.89  " /><path style="stroke-width: 0.85 ;&st7;   " d=" M  1902.27,   389.89  C  1902.27    390.67   1902.90    391.30   1903.68    391.30  " /><path style="stroke-width: 0.85 ;&st7;   " d=" M  1903.68,   391.30  C  1904.46    391.30   1905.10    390.67   1905.10    389.89  " /><path style="stroke-width: 1.42 ;&st7;  " d=" M  1878.19,   375.72  L  1878.19,   426.71  L  1929.18,   426.71  L  1929.18,   375.72  L  1878.19,   375.72  " /><path style="stroke-width: 0.85 ;&st7;  " d=" M  1903.68,   388.47  L  1903.68,   375.72  " /><path style="stroke-width: 0.85 ;&st7;  " d=" M  1903.68,   426.71  L  1903.68,   413.97  " /><text style="font-size:6px;font-family:'NSimSun';" transform="matrix(&st16;  1906.27  423.02 )">E</text><text style="font-size:6px;font-family:'NSimSun';" transform="matrix(&st16;  1906.27  383.92 )">LSSR</text><text style="font-size:6px;font-family:'NSimSun';" transform="matrix(&st17;  1892.64  413.49 )" ewd:textID="26">开锁检测<tspan x="0 " dy="6.0" /></text><text style="font-size:6px;font-family:'NSimSun';" transform="matrix(&st16;  1897.5  434.91 )">9</text><text style="font-size:6px;font-family:'NSimSun';" transform="matrix(&st16;  1897.5  372.03 )">6</text><g ewd:figtype="title"><text style="font-size:6px;font-family:'NSimSun';" transform="matrix(&st17;  1943.9  429.62 )" ewd:textID="25">带电动机的右后门锁总成</text><text style="font-size:6px;font-family:'NSimSun';" transform="matrix(&st17;  1937.07  429.61 )">J3</text></g></g><g ewd:figtype="conn" ewd:figID="19" ewd:code="K3"><path style="stroke-width: 1.42 ;&st7;  " d=" M  2014.16,   411.13  L  2019.83,   388.47  " /><path style="stroke-width: 0.85 ;&st7;   " d=" M  2015.58,   412.55  C  2015.58    411.77   2014.95    411.13   2014.16    411.13  " /><path style="stroke-width: 0.85 ;&st7;   " d=" M  2014.16,   411.13  C  2013.38    411.13   2012.75    411.77   2012.75    412.55  " /><path style="stroke-width: 0.85 ;&st7;   " d=" M  2012.75,   412.55  C  2012.75    413.33   2013.38    413.97   2014.16    413.97  " /><path style="stroke-width: 0.85 ;&st7;   " d=" M  2014.16,   413.97  C  2014.95    413.97   2015.58    413.33   2015.58    412.55  " /><path style="stroke-width: 0.85 ;&st7;   " d=" M  2015.58,   389.89  C  2015.58    389.10   2014.95    388.47   2014.16    388.47  " /><path style="stroke-width: 0.85 ;&st7;   " d=" M  2014.16,   388.47  C  2013.38    388.47   2012.75    389.10   2012.75    389.89  " /><path style="stroke-width: 0.85 ;&st7;   " d=" M  2012.75,   389.89  C  2012.75    390.67   2013.38    391.30   2014.16    391.30  " /><path style="stroke-width: 0.85 ;&st7;   " d=" M  2014.16,   391.30  C  2014.95    391.30   2015.58    390.67   2015.58    389.89  " /><path style="stroke-width: 1.42 ;&st7;  " d=" M  1988.67,   375.72  L  1988.67,   426.71  L  2039.66,   426.71  L  2039.66,   375.72  L  1988.67,   375.72  " /><path style="stroke-width: 0.85 ;&st7;  " d=" M  2014.16,   388.47  L  2014.16,   375.72  " /><path style="stroke-width: 0.85 ;&st7;  " d=" M  2014.16,   426.71  L  2014.16,   413.97  " /><text style="font-size:6px;font-family:'NSimSun';" transform="matrix(&st16;  2016.75  423.02 )">E</text><text style="font-size:6px;font-family:'NSimSun';" transform="matrix(&st16;  2016.75  383.92 )">LSSR</text><text style="font-size:6px;font-family:'NSimSun';" transform="matrix(&st17;  2003.12  413.49 )" ewd:textID="26">开锁检测<tspan x="0 " dy="6.0" /></text><text style="font-size:6px;font-family:'NSimSun';" transform="matrix(&st16;  2007.98  434.91 )">9</text><text style="font-size:6px;font-family:'NSimSun';" transform="matrix(&st16;  2007.98  372.03 )">6</text><g ewd:figtype="title"><text style="font-size:6px;font-family:'NSimSun';" transform="matrix(&st17;  2054.38  429.62 )" ewd:textID="24">带电动机的左后门锁总成</text><text style="font-size:6px;font-family:'NSimSun';" transform="matrix(&st17;  2047.55  429.61 )">K3</text></g></g><g ewd:figtype="jb" ewd:figID="30" ewd:code="3"><path style="stroke-width: 1.42 ;&st7;  " d=" M  1599.86,   146.26  L  1595.61,   146.26  " /><path style="stroke-width: 1.42 ;&st7;  " d=" M  1599.86,   137.76  L  1595.61,   137.76  " /><path style="stroke-width: 1.42 ;&st7;  " d=" M  1642.35,   146.26  L  1638.10,   146.26  " /><path style="stroke-width: 1.42 ;&st7;  " d=" M  1642.35,   137.76  L  1638.10,   137.76  " /><path style="stroke-width: 1.42 ;&st7;   " d=" M  1604.11,   142.01  C  1604.11    139.66   1602.20    137.76   1599.86    137.76  " /><path style="stroke-width: 1.42 ;&st7;   " d=" M  1599.86,   146.26  C  1602.20    146.26   1604.11    144.36   1604.11    142.01  " /><path style="stroke-width: 1.42 ;&st7;   " d=" M  1591.36,   142.01  C  1591.36    144.36   1593.26    146.26   1595.61    146.26  " /><path style="stroke-width: 1.42 ;&st7;   " d=" M  1595.61,   137.76  C  1593.26    137.76   1591.36    139.66   1591.36    142.01  " /><path style="stroke-width: 1.42 ;&st7;   " d=" M  1638.10,   137.76  C  1635.75    137.76   1633.85    139.66   1633.85    142.01  " /><path style="stroke-width: 1.42 ;&st7;   " d=" M  1633.85,   142.01  C  1633.85    144.36   1635.75    146.26   1638.10    146.26  " /><path style="stroke-width: 1.42 ;&st7;   " d=" M  1642.35,   146.26  C  1644.70    146.26   1646.60    144.36   1646.60    142.01  " /><path style="stroke-width: 1.42 ;&st7;   " d=" M  1646.60,   142.01  C  1646.60    139.66   1644.70    137.76   1642.35    137.76  " /><path style="stroke-width: 0.85 ;&st7;  " d=" M  1597.73,    86.77  L  1597.73,   137.76  " /><path style="stroke-width: 0.28 ;&st9;  " d=" M  1597.73,   132.87  L  1594.90,   130.03  L  1594.90,   134.28  L  1597.73,   137.12  L  1600.57,   134.28  L  1600.57,   130.03  L  1597.73,   132.87  " /><path style="stroke-width: 0.28 ;&st9;  " d=" M  1640.23,   132.87  L  1637.39,   130.03  L  1637.39,   134.28  L  1640.23,   137.12  L  1643.06,   134.28  L  1643.06,   130.03  L  1640.23,   132.87  " /><path style="stroke-width: 0.85 ;&st7;  " d=" M  1640.23,   137.76  L  1640.23,   112.27  L  1597.73,   112.27  " /><path style="stroke-width: 0.85 ;&st7;  " d=" M  1596.54,   111.26  L  1596.27,   111.73  L  1596.17,   112.27  L  1596.27,   112.80  L  1596.54,   113.27  L  1596.95,   113.62  L  1597.46,   113.80  L  1598.00,   113.80  L  1598.51,   113.62  L  1598.93,   113.27  L  1599.20,   112.80  L  1599.29,   112.27  L  1599.20,   111.73  L  1598.93,   111.26  L  1598.51,   110.92  L  1598.00,   110.73  L  1597.46,   110.73  L  1596.95,   110.92  L  1596.54,   111.26  L  1596.93,   111.98  L  1596.93,   112.56  L  1597.31,   113.00  L  1597.88,   113.10  L  1598.38,   112.81  L  1598.58,   112.27  L  1598.38,   111.72  L  1597.88,   111.43  L  1597.31,   111.53  L  1597.73,   112.27  " /><text style="font-size:6px;font-family:'NSimSun';" transform="matrix(&st16;  1588.45  94.96 )">11</text><text style="font-size:6px;font-family:'NSimSun';" transform="matrix(&st16;  1584.12  143.98 )">12</text><text style="font-size:6px;font-family:'NSimSun';" transform="matrix(&st16;  1593.8  143.98 )">3D</text><text style="font-size:6px;font-family:'NSimSun';" transform="matrix(&st16;  1629.72  143.98 )">9</text><text style="font-size:6px;font-family:'NSimSun';" transform="matrix(&st16;  1636.25  143.98 )">3C</text></g><g ewd:figtype="jb" ewd:figID="31" ewd:code="3"><path style="stroke-width: 1.42 ;&st7;  " d=" M  1905.81,   137.76  L  1901.56,   137.76  " /><path style="stroke-width: 1.42 ;&st7;  " d=" M  1905.81,   146.26  L  1901.56,   146.26  " /><path style="stroke-width: 1.42 ;&st7;  " d=" M  2016.29,   137.76  L  2012.04,   137.76  " /><path style="stroke-width: 1.42 ;&st7;  " d=" M  2016.29,   146.26  L  2012.04,   146.26  " /><path style="stroke-width: 1.42 ;&st7;   " d=" M  1901.56,   137.76  C  1899.21    137.76   1897.31    139.66   1897.31    142.01  " /><path style="stroke-width: 1.42 ;&st7;   " d=" M  1897.31,   142.01  C  1897.31    144.36   1899.21    146.26   1901.56    146.26  " /><path style="stroke-width: 1.42 ;&st7;   " d=" M  1905.81,   146.26  C  1908.15    146.26   1910.06    144.36   1910.06    142.01  " /><path style="stroke-width: 1.42 ;&st7;   " d=" M  1910.06,   142.01  C  1910.06    139.66   1908.15    137.76   1905.81    137.76  " /><path style="stroke-width: 1.42 ;&st7;   " d=" M  2012.04,   137.76  C  2009.69    137.76   2007.79    139.66   2007.79    142.01  " /><path style="stroke-width: 1.42 ;&st7;   " d=" M  2007.79,   142.01  C  2007.79    144.36   2009.69    146.26   2012.04    146.26  " /><path style="stroke-width: 1.42 ;&st7;   " d=" M  2016.29,   146.26  C  2018.63    146.26   2020.54    144.36   2020.54    142.01  " /><path style="stroke-width: 1.42 ;&st7;   " d=" M  2020.54,   142.01  C  2020.54    139.66   2018.63    137.76   2016.29    137.76  " /><path style="stroke-width: 0.85 ;&st7;  " d=" M  1903.68,   137.76  L  1903.68,    86.77  " /><path style="stroke-width: 0.28 ;&st9;  " d=" M  1903.68,   132.87  L  1900.85,   130.03  L  1900.85,   134.28  L  1903.68,   137.12  L  1906.51,   134.28  L  1906.51,   130.03  L  1903.68,   132.87  " /><path style="stroke-width: 0.28 ;&st9;  " d=" M  2014.16,   132.87  L  2011.33,   130.03  L  2011.33,   134.28  L  2014.16,   137.12  L  2017.00,   134.28  L  2017.00,   130.03  L  2014.16,   132.87  " /><path style="stroke-width: 0.85 ;&st7;  " d=" M  2014.16,   137.76  L  2014.16,   112.27  L  1903.68,   112.27  " /><path style="stroke-width: 0.85 ;&st7;  " d=" M  1902.49,   111.26  L  1902.22,   111.73  L  1902.12,   112.27  L  1902.22,   112.80  L  1902.49,   113.27  L  1902.90,   113.62  L  1903.41,   113.80  L  1903.95,   113.80  L  1904.46,   113.62  L  1904.87,   113.27  L  1905.15,   112.80  L  1905.24,   112.27  L  1905.15,   111.73  L  1904.87,   111.26  L  1904.46,   110.92  L  1903.95,   110.73  L  1903.41,   110.73  L  1902.90,   110.92  L  1902.49,   111.26  L  1902.88,   111.98  L  1902.88,   112.56  L  1903.26,   113.00  L  1903.83,   113.10  L  1904.33,   112.81  L  1904.53,   112.27  L  1904.33,   111.72  L  1903.83,   111.43  L  1903.26,   111.53  L  1903.68,   112.27  " /><text style="font-size:6px;font-family:'NSimSun';" transform="matrix(&st16;  1897.5  94.96 )">5</text><text style="font-size:6px;font-family:'NSimSun';" transform="matrix(&st16;  1900.02  143.98 )">3E</text><text style="font-size:6px;font-family:'NSimSun';" transform="matrix(&st16;  1890.07  143.98 )">22</text><text style="font-size:6px;font-family:'NSimSun';" transform="matrix(&st16;  2010.5  143.98 )">3E</text><text style="font-size:6px;font-family:'NSimSun';" transform="matrix(&st16;  2000.55  143.98 )">37</text></g><g ewd:figtype="w2w" ewd:figID="41" ewd:code="GE3"><path style="stroke-width: 1.42 ;&st7;  " d=" M  1695.47,   605.75  L  1691.22,   601.50  L  1686.97,   605.75  " /><path style="stroke-width: 1.42 ;&st7;  " d=" M  1695.47,   602.35  L  1691.22,   598.10  L  1686.97,   602.35  " /><text style="font-size:6px;font-family:'NSimSun';" transform="matrix(&st16;  1678.59  594.41 )">8</text></g><g ewd:figtype="w2w" ewd:figID="42" ewd:code="GE1"><path style="stroke-width: 1.42 ;&st7;  " d=" M  1695.47,   251.08  L  1691.22,   255.33  L  1686.97,   251.08  " /><path style="stroke-width: 1.42 ;&st7;  " d=" M  1686.97,   247.68  L  1691.22,   251.93  L  1695.47,   247.68  " /><text style="font-size:6px;font-family:'NSimSun';" transform="matrix(&st16;  1675.48  262.96 )">18</text></g><g ewd:figtype="w2w" ewd:figID="43" ewd:code="HE3"><text style="font-size:6px;font-family:'NSimSun';" transform="matrix(&st16;  1780.57  594.41 )">8</text><path style="stroke-width: 1.42 ;&st7;  " d=" M  1797.45,   602.35  L  1793.20,   598.10  L  1788.95,   602.35  " /><path style="stroke-width: 1.42 ;&st7;  " d=" M  1797.45,   605.75  L  1793.20,   601.50  L  1788.95,   605.75  " /></g><g ewd:figtype="w2w" ewd:figID="44" ewd:code="HE1"><path style="stroke-width: 1.42 ;&st7;  " d=" M  1788.95,   247.68  L  1793.20,   251.93  L  1797.45,   247.68  " /><path style="stroke-width: 1.42 ;&st7;  " d=" M  1797.45,   251.08  L  1793.20,   255.33  L  1788.95,   251.08  " /><text style="font-size:6px;font-family:'NSimSun';" transform="matrix(&st16;  1777.47  262.96 )">18</text></g><g ewd:figtype="w2w" ewd:figID="45" ewd:code="JL1"><text style="font-size:6px;font-family:'NSimSun';" transform="matrix(&st16;  1887.95  517.92 )">10</text><path style="stroke-width: 1.42 ;&st7;  " d=" M  1907.93,   525.86  L  1903.68,   521.61  L  1899.43,   525.86  " /><path style="stroke-width: 1.42 ;&st7;  " d=" M  1907.93,   529.26  L  1903.68,   525.01  L  1899.43,   529.26  " /></g><g ewd:figtype="w2w" ewd:figID="46" ewd:code="JL1"><path style="stroke-width: 1.42 ;&st7;  " d=" M  1899.43,   247.68  L  1903.68,   251.93  L  1907.93,   247.68  " /><path style="stroke-width: 1.42 ;&st7;  " d=" M  1907.93,   251.08  L  1903.68,   255.33  L  1899.43,   251.08  " /><text style="font-size:6px;font-family:'NSimSun';" transform="matrix(&st16;  1891.05  262.96 )">3</text></g><g ewd:figtype="w2w" ewd:figID="47" ewd:code="KL1"><text style="font-size:6px;font-family:'NSimSun';" transform="matrix(&st16;  1998.43  517.92 )">10</text><path style="stroke-width: 1.42 ;&st7;  " d=" M  2018.41,   525.86  L  2014.16,   521.61  L  2009.91,   525.86  " /><path style="stroke-width: 1.42 ;&st7;  " d=" M  2018.41,   529.26  L  2014.16,   525.01  L  2009.91,   529.26  " /></g><g ewd:figtype="gp" ewd:figID="55" ewd:code="EB"><path style="stroke-width: 0.85 ;&st7;  " d=" M  1597.73,   697.25  L  1597.73,   701.50  " /><path style="stroke-width: 0.85 ;&st7;  " d=" M  1589.23,   701.50  L  1606.23,   701.50  " /><path style="stroke-width: 0.85 ;&st7;  " d=" M  1593.48,   704.33  L  1601.98,   704.33  " /><path style="stroke-width: 0.85 ;&st7;  " d=" M  1594.90,   707.17  L  1600.57,   707.17  " /><path style="stroke-width: 0.85 ;&st7;  " d=" M  1596.32,   710.00  L  1599.15,   710.00  " /></g><g ewd:figtype="gp" ewd:figID="56" ewd:code="EA"><path style="stroke-width: 0.85 ;&st7;  " d=" M  1640.23,   697.25  L  1640.23,   701.50  " /><path style="stroke-width: 0.85 ;&st7;  " d=" M  1631.73,   701.50  L  1648.72,   701.50  " /><path style="stroke-width: 0.85 ;&st7;  " d=" M  1635.98,   704.33  L  1644.47,   704.33  " /><path style="stroke-width: 0.85 ;&st7;  " d=" M  1637.39,   707.17  L  1643.06,   707.17  " /><path style="stroke-width: 0.85 ;&st7;  " d=" M  1638.81,   710.00  L  1641.64,   710.00  " /></g><g ewd:figtype="gp" ewd:figID="57" ewd:code="EC"><path style="stroke-width: 0.85 ;&st7;  " d=" M  1691.22,   697.25  L  1691.22,   701.50  " /><path style="stroke-width: 0.85 ;&st7;  " d=" M  1682.72,   701.50  L  1699.72,   701.50  " /><path style="stroke-width: 0.85 ;&st7;  " d=" M  1689.80,   710.00  L  1692.63,   710.00  " /><path style="stroke-width: 0.85 ;&st7;  " d=" M  1688.38,   707.17  L  1694.05,   707.17  " /><path style="stroke-width: 0.85 ;&st7;  " d=" M  1686.97,   704.33  L  1695.47,   704.33  " /></g><g ewd:figtype="gp" ewd:figID="58" ewd:code="EA"><path style="stroke-width: 0.85 ;&st7;  " d=" M  1793.20,   697.25  L  1793.20,   701.50  " /><path style="stroke-width: 0.85 ;&st7;  " d=" M  1784.70,   701.50  L  1801.70,   701.50  " /><path style="stroke-width: 0.85 ;&st7;  " d=" M  1788.95,   704.33  L  1797.45,   704.33  " /><path style="stroke-width: 0.85 ;&st7;  " d=" M  1790.37,   707.17  L  1796.03,   707.17  " /><path style="stroke-width: 0.85 ;&st7;  " d=" M  1791.78,   710.00  L  1794.62,   710.00  " /></g><g ewd:figtype="gp" ewd:figID="59" ewd:code="LD"><path style="stroke-width: 0.85 ;&st7;  " d=" M  1903.68,   697.25  L  1903.68,   701.50  " /><path style="stroke-width: 0.85 ;&st7;  " d=" M  1899.43,   704.33  L  1907.93,   704.33  " /><path style="stroke-width: 0.85 ;&st7;  " d=" M  1902.26,   710.00  L  1905.10,   710.00  " /><path style="stroke-width: 0.85 ;&st7;  " d=" M  1900.85,   707.17  L  1906.51,   707.17  " /><path style="stroke-width: 0.85 ;&st7;  " d=" M  1895.18,   701.50  L  1912.18,   701.50  " /></g></svg>