<?xml version="1.0" encoding="utf-8"?>
<!DOCTYPE svg PUBLIC "-//W3C//DTD SVG 1.0//EN" "http://www.w3.org/TR/2001/REC-SVG-20010904/DTD/svg10.dtd"[
	<!ENTITY ns_flows "http://ns.adobe.com/Flows/1.0/">
	<!ENTITY ns_svg "http://www.w3.org/2000/svg">
	<!ENTITY ns_xlink "http://www.w3.org/1999/xlink">
	<!ENTITY st0 "font-size:7px;font-family:'NSimSun';adobe-font-script:japanese;">
	<!ENTITY st1 "font-size:6px;font-family:'NSimSun';">
	<!-- White fill  -->
	<!ENTITY st2 "fill:#FFFFFF;stroke:#000000; stroke-width:1.41;stroke-linecap:round;stroke-linejoin:round;">
	<!-- Yellow fill  -->
	<!ENTITY st3 "fill:#FFFFCC;stroke:#FFFFCC; stroke-width:0.1;stroke-linecap:round;stroke-linejoin:round;">
	<!-- Gray fill  -->
	<!ENTITY st4 "fill:#CCCCCC;stroke:#CCCCCC; stroke-width:0.1;stroke-linecap:round;stroke-linejoin:round;">
	<!-- Light-blue fill -->
	<!ENTITY st5 "fill:#CCECF4;stroke:#000000; stroke-width:1.133;stroke-linecap:round;stroke-linejoin:round;">
	<!ENTITY st6 "fill:none;stroke-linecap:butt; stroke-linejoin:round;">
	<!ENTITY st7 "fill:none;stroke:#000000;stroke-linecap:round;stroke-linejoin:round;">
	<!ENTITY st8 "enable-background:new    ;">
	<!-- Black fill -->
	<!ENTITY st9 "fill:#000000;stroke:#000000; stroke-linecap:round;stroke-linejoin:round;">
	<!-- SRS note   -->
	<!ENTITY st10 "font-size:9px;font-family:'NSimSun';">
	<!ENTITY st11 "font-size:9px;font-family:'NSimSun';">
	<!ENTITY st12 "font-size:6px;font-family:'NSimSun';">
	<!ENTITY st13 "fill:none;stroke:#ff0000;stroke-linecap:round;stroke-linejoin:round;">
	<!-- Yellow fill  -->
	<!ENTITY st14 "fill:#FFFF00;stroke:#FFFF00; stroke-width:0.1;stroke-linecap:round;stroke-linejoin:round;">
	<!ENTITY st15 "font-size:6px;font-family:'NSimSun';adobe-font-script:japanese;">
	<!ENTITY st16 "1.00 0.00 0.00 1.00">
	<!ENTITY st17 "0.00 -1.00 1.00 0.00">
	<!ENTITY st18 "font-size:6px;font-family:'NSimSun';">
	<!ENTITY st19 "font-size:9px;font-family:'NSimSun';">
	<!ENTITY st20 "font-size:6px;font-family:'NSimSun';adobe-font-script:japanese;">
	<!ENTITY st21 "font-size:7px;font-family:'NSimSun';adobe-font-script:japanese;">
	<!ATTLIST svg
		xmlns:ewd CDATA #FIXED "http://shcl.co.jp/ewd"
		xmlns:a CDATA #FIXED "http://ns.adobe.com/AdobeSVGViewerExtensions/3.0/"
		ewd:ver CDATA #IMPLIED
	>
	<!ATTLIST a
		ewd:lineID CDATA #IMPLIED
		ewd:groupID CDATA #IMPLIED
		ewd:figtype CDATA #IMPLIED
		ewd:code CDATA #IMPLIED
		ewd:figID CDATA #IMPLIED
		ewd:pinNo CDATA #IMPLIED
		ewd:comment CDATA #IMPLIED >
	<!ATTLIST g
		ewd:lineID CDATA #IMPLIED
		ewd:groupID CDATA #IMPLIED
		ewd:figtype CDATA #IMPLIED
		ewd:code CDATA #IMPLIED
		ewd:figID CDATA #IMPLIED
		ewd:pinNo CDATA #IMPLIED
		ewd:comment CDATA #IMPLIED >
	<!ATTLIST text
		ewd:textID CDATA #IMPLIED
		ewd:horAlign CDATA #IMPLIED >
	<!ATTLIST title
		ewd:textID CDATA #IMPLIED >
]>
<!-- Generator: Shintec Hozumi YS   -->
<svg onload="call_execInitLoadProc_svg('system')" style="overflow:visible;  enable-background:new 0 0 2969.377 710.000" viewBox="0 0 2973.501 710.000" height="710.000" width="2973.501" xml:space="preserve" ewd:ver="2.1.2.6F" xmlns="&ns_svg;" xmlns:ewd="http://shcl.co.jp/ewd" xmlns:a="http://ns.adobe.com/AdobeSVGViewerExtensions/3.0/" xmlns:xlink="&ns_xlink;">
<text style="font-size:6px;font-family:'NSimSun';" transform="matrix(&st16;  2614.16  32.08 )" ewd:textID="29">主车身 ECU</text><text style="font-size:6px;font-family:'NSimSun';" transform="matrix(&st16;  2614.15  24.98 )">E36(A)</text><text style="font-size:6px;font-family:'NSimSun';" transform="matrix(&st17;  2528.88  326.42 )">Y</text><text style="font-size:6px;font-family:'NSimSun';" transform="matrix(&st17;  2528.88  190.44 )">Y</text><text style="font-size:6px;font-family:'NSimSun';" transform="matrix(&st17;  2528.88  560.15 )">W-B</text><text style="font-size:6px;font-family:'NSimSun';" transform="matrix(&st17;  2528.88  475.16 )">W-B</text><text style="font-size:6px;font-family:'NSimSun';" transform="matrix(&st17;  2540.21  560.46 )">(*11)</text><text style="font-size:6px;font-family:'NSimSun';" transform="matrix(&st17;  2540.21  475.47 )">(*11)</text><text style="font-size:6px;font-family:'NSimSun';" transform="matrix(&st17;  2540.21  331.0 )">(*11)</text><text style="font-size:6px;font-family:'NSimSun';" transform="matrix(&st17;  2540.21  195.02 )">(*11)</text><text style="font-size:6px;font-family:'NSimSun';" transform="matrix(&st17;  2647.86  131.73 )">W</text><text style="font-size:6px;font-family:'NSimSun';" transform="matrix(&st17;  2659.19  133.98 )">(*9)</text><text style="font-size:6px;font-family:'NSimSun';" transform="matrix(&st17;  2681.86  131.22 )">G</text><text style="font-size:6px;font-family:'NSimSun';" transform="matrix(&st17;  2693.19  133.98 )">(*9)</text><text style="font-size:6px;font-family:'NSimSun';" transform="matrix(&st17;  2778.17  133.98 )">(*9)</text><text style="font-size:6px;font-family:'NSimSun';" transform="matrix(&st17;  2812.17  133.98 )">(*9)</text><text style="font-size:6px;font-family:'NSimSun';" transform="matrix(&st17;  2693.19  363.44 )">(*9)</text><text style="font-size:6px;font-family:'NSimSun';" transform="matrix(&st17;  2681.86  360.3 )">L</text><text style="font-size:6px;font-family:'NSimSun';" transform="matrix(&st17;  2659.19  363.44 )">(*9)</text><text style="font-size:6px;font-family:'NSimSun';" transform="matrix(&st17;  2647.86  361.19 )">W</text><text style="font-size:6px;font-family:'NSimSun';" transform="matrix(&st17;  2911.32  132.81 )">BR</text><text style="font-size:6px;font-family:'NSimSun';" transform="matrix(&st17;  2880.16  133.98 )">(*9)</text><text style="font-size:6px;font-family:'NSimSun';" transform="matrix(&st17;  2800.84  131.73 )">W</text><text style="font-size:6px;font-family:'NSimSun';" transform="matrix(&st17;  2766.84  130.88 )">R</text><text style="font-size:6px;font-family:'NSimSun';" transform="matrix(&st17;  2868.82  131.22 )">G</text><text style="font-size:6px;font-family:'NSimSun';" transform="matrix(&st17;  2922.65  133.98 )">(*9)</text><path style="stroke-width: 1.42 ;&st7;  " d=" M  2643.06,   188.75  L  2651.56,   188.75  " /><path style="stroke-width: 1.42 ;&st7;  " d=" M  2677.05,   188.75  L  2685.55,   188.75  " /><path style="stroke-width: 1.42 ;&st7;  " d=" M  2762.04,   290.74  L  2770.54,   290.74  " /><path style="stroke-width: 1.42 ;&st7;  " d=" M  2796.03,   290.74  L  2804.53,   290.74  " /><text style="font-size:6px;font-family:'NSimSun';" transform="matrix(&st17;  2647.86  242.21 )">W</text><text style="font-size:6px;font-family:'NSimSun';" transform="matrix(&st17;  2659.19  244.46 )">(*9)</text><text style="font-size:6px;font-family:'NSimSun';" transform="matrix(&st17;  2681.86  241.71 )">G</text><text style="font-size:6px;font-family:'NSimSun';" transform="matrix(&st17;  2693.19  244.46 )">(*9)</text><text style="font-size:6px;font-family:'NSimSun';" transform="matrix(&st17;  2766.84  241.32 )">L</text><text style="font-size:6px;font-family:'NSimSun';" transform="matrix(&st17;  2778.17  244.46 )">(*9)</text><text style="font-size:6px;font-family:'NSimSun';" transform="matrix(&st17;  2800.84  242.21 )">W</text><text style="font-size:6px;font-family:'NSimSun';" transform="matrix(&st17;  2812.17  244.46 )">(*9)</text><path style="stroke-width: 1.42 ;&st7;  " d=" M  2524.08,   290.74  L  2532.58,   290.74  " /><path style="stroke-width: 1.42 ;&st7;  " d=" M  2541.08,   520.20  L  2532.58,   520.20  " /><g ewd:figtype="conn" ewd:figID="1" ewd:code="A39"><path style="stroke-width: 1.42 ;&st7;  " d=" M  2643.06,   282.24  L  2694.05,   282.24  L  2694.05,   299.24  L  2643.06,   299.24  L  2643.06,   282.24  " /><path style="stroke-width: 0.85 ;&st7;  " d=" M  2651.56,   282.24  L  2651.56,   299.24  " /><path style="stroke-width: 0.85 ;&st7;  " d=" M  2685.55,   282.24  L  2685.55,   299.24  " /><text style="font-size:6px;font-family:'NSimSun';" transform="matrix(&st16;  2642.27  278.55 )">14</text><text style="font-size:6px;font-family:'NSimSun';" transform="matrix(&st16;  2679.37  278.55 )">3</text><text style="font-size:6px;font-family:'NSimSun';" transform="matrix(&st16;  2679.37  307.43 )">1</text><text style="font-size:6px;font-family:'NSimSun';" transform="matrix(&st16;  2642.27  307.43 )">12</text><g ewd:figtype="title"><text style="font-size:6px;font-family:'NSimSun';" transform="matrix(&st17;  2708.77  302.14 )" ewd:textID="31">1 号<tspan x="0 " dy="6.0">CAN</tspan><tspan x="0 " dy="6.0">接线连接器</tspan></text><text style="font-size:6px;font-family:'NSimSun';" transform="matrix(&st17;  2701.94  302.13 )">A39</text></g></g><g ewd:figtype="conn" ewd:figID="2" ewd:code="E49"><path style="stroke-width: 1.42 ;&st7;  " d=" M  2753.54,    86.77  L  2932.01,    86.77  L  2932.01,    35.78  L  2753.54,    35.78  L  2753.54,    86.77  " /><g ewd:lineID="92"><text style="font-size:6px;font-family:'NSimSun';" transform="matrix(&st16;  2758.74  93.27 )">14</text><text style="font-size:6px;font-family:'NSimSun';" transform="matrix(&st16;  2768.12  93.27 )">C</text><path style="stroke-width: 1.42 ;&st7;   " d=" M  2775.07,    91.30  C  2775.07     88.80   2773.04     86.77   2770.54     86.77  " /><path style="stroke-width: 1.42 ;&st7;   " d=" M  2770.54,    86.77  C  2768.03     86.77   2766.00     88.80   2766.00     91.30  " /><path style="stroke-width: 1.42 ;&st7;   " d=" M  2766.00,    91.30  C  2766.00     93.81   2768.03     95.84   2770.54     95.84  " /><path style="stroke-width: 1.42 ;&st7;   " d=" M  2770.54,    95.84  C  2773.04     95.84   2775.07     93.81   2775.07     91.30  " /><text style="font-size:6px;font-family:'NSimSun';" transform="matrix(&st16;  2761.76  83.07 )">CANH</text></g><g ewd:lineID="95"><text style="font-size:6px;font-family:'NSimSun';" transform="matrix(&st16;  2792.74  93.27 )">15</text><text style="font-size:6px;font-family:'NSimSun';" transform="matrix(&st16;  2802.11  93.27 )">C</text><path style="stroke-width: 1.42 ;&st7;   " d=" M  2809.06,    91.30  C  2809.06     88.80   2807.03     86.77   2804.53     86.77  " /><path style="stroke-width: 1.42 ;&st7;   " d=" M  2804.53,    86.77  C  2802.03     86.77   2800.00     88.80   2800.00     91.30  " /><path style="stroke-width: 1.42 ;&st7;   " d=" M  2800.00,    91.30  C  2800.00     93.81   2802.03     95.84   2804.53     95.84  " /><path style="stroke-width: 1.42 ;&st7;   " d=" M  2804.53,    95.84  C  2807.03     95.84   2809.06     93.81   2809.06     91.30  " /><text style="font-size:6px;font-family:'NSimSun';" transform="matrix(&st16;  2796.18  83.07 )">CANL</text></g><g ewd:lineID="96"><text style="font-size:6px;font-family:'NSimSun';" transform="matrix(&st16;  2860.72  93.27 )">16</text><text style="font-size:6px;font-family:'NSimSun';" transform="matrix(&st16;  2870.1  93.27 )">C</text><path style="stroke-width: 1.42 ;&st7;   " d=" M  2877.05,    91.30  C  2877.05     88.80   2875.02     86.77   2872.52     86.77  " /><path style="stroke-width: 1.42 ;&st7;   " d=" M  2872.52,    86.77  C  2870.02     86.77   2867.99     88.80   2867.99     91.30  " /><path style="stroke-width: 1.42 ;&st7;   " d=" M  2867.99,    91.30  C  2867.99     93.81   2870.02     95.84   2872.52     95.84  " /><path style="stroke-width: 1.42 ;&st7;   " d=" M  2872.52,    95.84  C  2875.02     95.84   2877.05     93.81   2877.05     91.30  " /><text style="font-size:6px;font-family:'NSimSun';" transform="matrix(&st16;  2865.29  83.07 )">SWIL</text></g><g ewd:lineID="97"><text style="font-size:6px;font-family:'NSimSun';" transform="matrix(&st16;  2903.22  93.27 )">24</text><path style="stroke-width: 1.42 ;&st7;   " d=" M  2919.55,    91.30  C  2919.55     88.80   2917.52     86.77   2915.01     86.77  " /><path style="stroke-width: 1.42 ;&st7;   " d=" M  2915.01,    86.77  C  2912.51     86.77   2910.48     88.80   2910.48     91.30  " /><path style="stroke-width: 1.42 ;&st7;   " d=" M  2910.48,    91.30  C  2910.48     93.81   2912.51     95.84   2915.01     95.84  " /><path style="stroke-width: 1.42 ;&st7;   " d=" M  2915.01,    95.84  C  2917.52     95.84   2919.55     93.81   2919.55     91.30  " /><text style="font-size:6px;font-family:'NSimSun';" transform="matrix(&st16;  2912.59  93.27 )">C</text><text style="font-size:6px;font-family:'NSimSun';" transform="matrix(&st16;  2906.31  83.07 )">AGND</text></g><g ewd:figtype="title"><text style="font-size:6px;font-family:'NSimSun';" transform="matrix(&st16;  2758.63  32.08 )" ewd:textID="13">认证 ECU</text><text style="font-size:6px;font-family:'NSimSun';" transform="matrix(&st16;  2758.63  24.98 )">E49(C)</text></g></g><g ewd:figtype="conn" ewd:figID="3" ewd:code="E50"><path style="stroke-width: 0.85 ;&st7;  " d=" M  2879.90,   365.28  L  2887.26,   361.03  " /><path style="stroke-width: 0.85 ;&st7;  " d=" M  2885.25,   357.56  L  2877.89,   361.81  " /><path style="stroke-width: 0.85 ;&st7;  " d=" M  2876.77,   367.22  L  2868.27,   367.22  " /><path style="stroke-width: 0.85 ;&st7;  " d=" M  2879.90,   339.78  L  2887.26,   335.53  " /><path style="stroke-width: 0.85 ;&st7;  " d=" M  2885.25,   332.07  L  2877.89,   336.31  " /><path style="stroke-width: 0.85 ;&st7;  " d=" M  2876.77,   341.73  L  2868.27,   341.73  " /><path style="stroke-width: 0.85 ;&st7;  " d=" M  2887.26,   361.03  L  2884.92,   364.07  L  2883.45,   361.53  L  2887.26,   361.03  L  2885.97,   361.77  L  2884.99,   363.05  L  2884.37,   361.98  L  2885.97,   361.77  L  2885.33,   362.14  L  2885.02,   362.54  L  2884.83,   362.21  L  2885.33,   362.14  " /><path style="stroke-width: 0.85 ;&st7;  " d=" M  2885.25,   357.56  L  2882.92,   360.60  L  2881.45,   358.06  L  2885.25,   357.56  L  2883.97,   358.30  L  2882.98,   359.58  L  2882.37,   358.51  L  2883.97,   358.30  L  2883.33,   358.67  L  2883.02,   359.07  L  2882.82,   358.74  L  2883.33,   358.67  " /><path style="stroke-width: 0.28 ;&st9;  " d=" M  2872.52,   367.22  L  2866.85,   358.73  L  2878.18,   358.73  L  2872.52,   367.22  " /><path style="stroke-width: 0.85 ;&st7;  " d=" M  2887.26,   335.53  L  2884.92,   338.58  L  2883.45,   336.03  L  2887.26,   335.53  L  2885.97,   336.28  L  2884.99,   337.56  L  2884.37,   336.48  L  2885.97,   336.28  L  2885.33,   336.64  L  2885.02,   337.05  L  2884.83,   336.71  L  2885.33,   336.64  " /><path style="stroke-width: 0.85 ;&st7;  " d=" M  2885.25,   332.07  L  2882.92,   335.11  L  2881.45,   332.56  L  2885.25,   332.07  L  2883.97,   332.80  L  2882.98,   334.09  L  2882.37,   333.01  L  2883.97,   332.80  L  2883.33,   333.18  L  2883.02,   333.58  L  2882.82,   333.24  L  2883.33,   333.18  " /><path style="stroke-width: 0.28 ;&st9;  " d=" M  2872.52,   341.73  L  2866.85,   333.23  L  2878.18,   333.23  L  2872.52,   341.73  " /><path style="stroke-width: 0.85 ;&st7;  " d=" M  2915.01,   282.24  L  2915.01,   384.22  L  2872.52,   384.22  L  2872.52,   324.73  L  2869.69,   323.31  L  2875.35,   320.48  L  2869.69,   317.65  L  2875.35,   314.82  L  2869.69,   311.98  L  2875.35,   309.15  L  2872.52,   307.73  L  2872.52,   282.24  " /><path style="stroke-width: 1.42 ;&st7;  " d=" M  2847.02,   299.24  L  2847.02,   401.22  L  2932.01,   401.22  L  2932.01,   299.24  L  2847.02,   299.24  " /><path style="stroke-width: 1.42 ;&st7;  " d=" M  2830.03,   282.24  L  2830.03,   418.22  L  2949.01,   418.22  L  2949.01,   282.24  L  2830.03,   282.24  " /><text style="font-size:6px;font-family:'NSimSun';" transform="matrix(&st16;  2917.6  290.43 )">AGND</text><text style="font-size:6px;font-family:'NSimSun';" transform="matrix(&st16;  2875.1  290.43 )">SWIL</text><text style="font-size:6px;font-family:'NSimSun';" transform="matrix(&st16;  2866.34  278.55 )">9</text><text style="font-size:6px;font-family:'NSimSun';" transform="matrix(&st16;  2908.83  278.55 )">6</text><g ewd:figtype="title"><text style="font-size:6px;font-family:'NSimSun';" transform="matrix(&st17;  2956.9  421.11 )">E50</text><text style="font-size:6px;font-family:'NSimSun';" transform="matrix(&st17;  2963.73  421.12 )" ewd:textID="21">发动机开关</text></g></g><g ewd:figtype="conn" ewd:figID="7" ewd:code="E36"><g ewd:lineID="87"><text style="font-size:6px;font-family:'NSimSun';" transform="matrix(&st16;  2639.76  93.27 )">13</text><text style="font-size:6px;font-family:'NSimSun';" transform="matrix(&st16;  2649.25  93.27 )">A</text><path style="stroke-width: 1.42 ;&st7;   " d=" M  2656.09,    91.30  C  2656.09     88.80   2654.06     86.77   2651.56     86.77  " /><path style="stroke-width: 1.42 ;&st7;   " d=" M  2651.56,    86.77  C  2649.05     86.77   2647.02     88.80   2647.02     91.30  " /><path style="stroke-width: 1.42 ;&st7;   " d=" M  2647.02,    91.30  C  2647.02     93.81   2649.05     95.84   2651.56     95.84  " /><path style="stroke-width: 1.42 ;&st7;   " d=" M  2651.56,    95.84  C  2654.06     95.84   2656.09     93.81   2656.09     91.30  " /><text style="font-size:6px;font-family:'NSimSun';" transform="matrix(&st16;  2643.2  83.07 )">CANL</text></g><g ewd:lineID="89"><text style="font-size:6px;font-family:'NSimSun';" transform="matrix(&st16;  2673.76  93.27 )">14</text><text style="font-size:6px;font-family:'NSimSun';" transform="matrix(&st16;  2683.25  93.27 )">A</text><path style="stroke-width: 1.42 ;&st7;   " d=" M  2690.08,    91.30  C  2690.08     88.80   2688.05     86.77   2685.55     86.77  " /><path style="stroke-width: 1.42 ;&st7;   " d=" M  2685.55,    86.77  C  2683.05     86.77   2681.02     88.80   2681.02     91.30  " /><path style="stroke-width: 1.42 ;&st7;   " d=" M  2681.02,    91.30  C  2681.02     93.81   2683.05     95.84   2685.55     95.84  " /><path style="stroke-width: 1.42 ;&st7;   " d=" M  2685.55,    95.84  C  2688.05     95.84   2690.08     93.81   2690.08     91.30  " /><text style="font-size:6px;font-family:'NSimSun';" transform="matrix(&st16;  2676.77  83.07 )">CANH</text></g></g><g ewd:figtype="conn" ewd:figID="29" ewd:code="K3"><path style="stroke-width: 1.42 ;&st7;  " d=" M  2532.58,   411.13  L  2538.24,   388.47  " /><path style="stroke-width: 0.85 ;&st7;   " d=" M  2533.99,   412.55  C  2533.99    411.77   2533.36    411.13   2532.58    411.13  " /><path style="stroke-width: 0.85 ;&st7;   " d=" M  2532.58,   411.13  C  2531.79    411.13   2531.16    411.77   2531.16    412.55  " /><path style="stroke-width: 0.85 ;&st7;   " d=" M  2531.16,   412.55  C  2531.16    413.33   2531.79    413.97   2532.58    413.97  " /><path style="stroke-width: 0.85 ;&st7;   " d=" M  2532.58,   413.97  C  2533.36    413.97   2533.99    413.33   2533.99    412.55  " /><path style="stroke-width: 0.85 ;&st7;   " d=" M  2533.99,   389.89  C  2533.99    389.10   2533.36    388.47   2532.58    388.47  " /><path style="stroke-width: 0.85 ;&st7;   " d=" M  2532.58,   388.47  C  2531.79    388.47   2531.16    389.10   2531.16    389.89  " /><path style="stroke-width: 0.85 ;&st7;   " d=" M  2531.16,   389.89  C  2531.16    390.67   2531.79    391.30   2532.58    391.30  " /><path style="stroke-width: 0.85 ;&st7;   " d=" M  2532.58,   391.30  C  2533.36    391.30   2533.99    390.67   2533.99    389.89  " /><path style="stroke-width: 1.42 ;&st7;  " d=" M  2507.08,   375.72  L  2507.08,   426.71  L  2558.07,   426.71  L  2558.07,   375.72  L  2507.08,   375.72  " /><path style="stroke-width: 0.85 ;&st7;  " d=" M  2532.58,   388.47  L  2532.58,   375.72  " /><path style="stroke-width: 0.85 ;&st7;  " d=" M  2532.58,   426.71  L  2532.58,   413.97  " /><text style="font-size:6px;font-family:'NSimSun';" transform="matrix(&st16;  2535.16  423.02 )">E</text><text style="font-size:6px;font-family:'NSimSun';" transform="matrix(&st16;  2535.16  383.92 )">LSSR</text><text style="font-size:6px;font-family:'NSimSun';" transform="matrix(&st17;  2521.53  413.49 )" ewd:textID="42">开锁检测<tspan x="0 " dy="6.0" /></text><text style="font-size:6px;font-family:'NSimSun';" transform="matrix(&st16;  2526.39  434.91 )">9</text><text style="font-size:6px;font-family:'NSimSun';" transform="matrix(&st16;  2526.39  372.03 )">6</text><g ewd:figtype="title"><text style="font-size:6px;font-family:'NSimSun';" transform="matrix(&st17;  2572.79  429.62 )" ewd:textID="39">带电动机的左后门锁总成<tspan x="0 " dy="6.0" /></text><text style="font-size:6px;font-family:'NSimSun';" transform="matrix(&st17;  2565.97  429.61 )">K3</text></g></g><g ewd:figtype="conn" ewd:figID="30" ewd:code="E74"><path style="stroke-width: 1.42 ;&st7;  " d=" M  2762.04,   188.75  L  2762.04,   205.75  L  2813.03,   205.75  L  2813.03,   188.75  L  2762.04,   188.75  " /><path style="stroke-width: 0.85 ;&st7;  " d=" M  2770.54,   188.75  L  2770.54,   205.75  " /><path style="stroke-width: 0.85 ;&st7;  " d=" M  2804.53,   188.75  L  2804.53,   205.75  " /><text style="font-size:6px;font-family:'NSimSun';" transform="matrix(&st16;  2764.35  213.94 )">5</text><text style="font-size:6px;font-family:'NSimSun';" transform="matrix(&st16;  2764.35  185.06 )">6</text><text style="font-size:6px;font-family:'NSimSun';" transform="matrix(&st16;  2795.25  213.94 )">16</text><text style="font-size:6px;font-family:'NSimSun';" transform="matrix(&st16;  2795.25  185.06 )">17</text><g ewd:figtype="title"><text style="font-size:6px;font-family:'NSimSun';" transform="matrix(&st17;  2827.75  208.66 )" ewd:textID="34">2 号<tspan x="0 " dy="6.0">CAN</tspan><tspan x="0 " dy="6.0">接线连接器</tspan></text><text style="font-size:6px;font-family:'NSimSun';" transform="matrix(&st17;  2820.92  208.65 )">E74</text></g></g><g ewd:figtype="w2w" ewd:figID="62" ewd:code="KL1"><path style="stroke-width: 1.42 ;&st7;  " d=" M  2536.83,   529.26  L  2532.58,   525.01  L  2528.33,   529.26  " /><path style="stroke-width: 1.42 ;&st7;  " d=" M  2536.83,   525.86  L  2532.58,   521.61  L  2528.33,   525.86  " /><text style="font-size:6px;font-family:'NSimSun';" transform="matrix(&st16;  2516.84  517.92 )">10</text></g><g ewd:figtype="w2w" ewd:figID="63" ewd:code="KL1"><path style="stroke-width: 1.42 ;&st7;  " d=" M  2528.33,   281.67  L  2532.58,   285.92  L  2536.83,   281.67  " /><path style="stroke-width: 1.42 ;&st7;  " d=" M  2536.83,   285.07  L  2532.58,   289.32  L  2528.33,   285.07  " /><text style="font-size:6px;font-family:'NSimSun';" transform="matrix(&st16;  2519.95  296.96 )">3</text></g><g ewd:figtype="w2w" ewd:figID="64" ewd:code="AE2"><path style="stroke-width: 1.42 ;&st7;  " d=" M  2647.31,   179.69  L  2651.56,   183.94  L  2655.81,   179.69  " /><path style="stroke-width: 1.42 ;&st7;  " d=" M  2655.81,   183.09  L  2651.56,   187.34  L  2647.31,   183.09  " /><text style="font-size:6px;font-family:'NSimSun';" transform="matrix(&st16;  2638.93  194.97 )">5</text></g><g ewd:figtype="w2w" ewd:figID="65" ewd:code="AE2"><path style="stroke-width: 1.42 ;&st7;  " d=" M  2681.30,   179.69  L  2685.55,   183.94  L  2689.80,   179.69  " /><path style="stroke-width: 1.42 ;&st7;  " d=" M  2689.80,   183.09  L  2685.55,   187.34  L  2681.30,   183.09  " /><text style="font-size:6px;font-family:'NSimSun';" transform="matrix(&st16;  2672.92  194.97 )">4</text></g><g ewd:figtype="w2w" ewd:figID="66" ewd:code="AE4"><path style="stroke-width: 1.42 ;&st7;  " d=" M  2766.29,   281.67  L  2770.54,   285.92  L  2774.79,   281.67  " /><path style="stroke-width: 1.42 ;&st7;  " d=" M  2774.79,   285.07  L  2770.54,   289.32  L  2766.29,   285.07  " /><text style="font-size:6px;font-family:'NSimSun';" transform="matrix(&st16;  2757.91  296.96 )">4</text></g><g ewd:figtype="w2w" ewd:figID="67" ewd:code="AE4"><path style="stroke-width: 1.42 ;&st7;  " d=" M  2800.28,   281.67  L  2804.53,   285.92  L  2808.78,   281.67  " /><path style="stroke-width: 1.42 ;&st7;  " d=" M  2808.78,   285.07  L  2804.53,   289.32  L  2800.28,   285.07  " /><text style="font-size:6px;font-family:'NSimSun';" transform="matrix(&st16;  2791.9  296.96 )">3</text></g><g ewd:figtype="gp" ewd:figID="75" ewd:code="LB"><path style="stroke-width: 0.85 ;&st7;  " d=" M  2531.16,   710.00  L  2533.99,   710.00  " /><path style="stroke-width: 0.85 ;&st7;  " d=" M  2529.74,   707.17  L  2535.41,   707.17  " /><path style="stroke-width: 0.85 ;&st7;  " d=" M  2528.33,   704.33  L  2536.83,   704.33  " /><path style="stroke-width: 0.85 ;&st7;  " d=" M  2532.58,   697.25  L  2532.58,   701.50  " /><path style="stroke-width: 0.85 ;&st7;  " d=" M  2524.08,   701.50  L  2541.07,   701.50  " /></g><g ewd:code="19" ewd:figID="110" ewd:comment="" ewd:figtype="comment"><text style="font-size:6px;font-family:'NSimSun';" transform="matrix(&st16;  2733.14  581.66 )" ewd:textID="9">* 19: 带卷收器</text></g><g ewd:code="20" ewd:figID="109" ewd:comment="" ewd:figtype="comment"><text style="font-size:6px;font-family:'NSimSun';" transform="matrix(&st16;  2733.14  590.16 )" ewd:textID="10">* 20: 不带卷收器</text></g><g ewd:code="9" ewd:figID="103" ewd:comment="" ewd:figtype="comment"><text style="font-size:6px;font-family:'NSimSun';" transform="matrix(&st16;  2733.14  564.66 )" ewd:textID="3">* 9: 带智能进入和起动系统</text></g><g ewd:code="11" ewd:figID="96" ewd:comment="" ewd:figtype="comment"><text style="font-size:6px;font-family:'NSimSun';" transform="matrix(&st16;  2733.14  573.16 )" ewd:textID="5">* 11: 带停机系统</text></g></svg>