<?xml version="1.0" encoding="utf-8"?>
<!DOCTYPE svg PUBLIC "-//W3C//DTD SVG 1.0//EN" "http://www.w3.org/TR/2001/REC-SVG-20010904/DTD/svg10.dtd"[
	<!ENTITY ns_flows "http://ns.adobe.com/Flows/1.0/">
	<!ENTITY ns_svg "http://www.w3.org/2000/svg">
	<!ENTITY ns_xlink "http://www.w3.org/1999/xlink">
	<!ENTITY st0 "font-size:7px;font-family:'NSimSun';adobe-font-script:japanese;">
	<!ENTITY st1 "font-size:6px;font-family:'NSimSun';">
	<!-- White fill  -->
	<!ENTITY st2 "fill:#FFFFFF;stroke:#000000; stroke-width:1.41;stroke-linecap:round;stroke-linejoin:round;">
	<!-- Yellow fill  -->
	<!ENTITY st3 "fill:#FFFFCC;stroke:#FFFFCC; stroke-width:0.1;stroke-linecap:round;stroke-linejoin:round;">
	<!-- Gray fill  -->
	<!ENTITY st4 "fill:#CCCCCC;stroke:#CCCCCC; stroke-width:0.1;stroke-linecap:round;stroke-linejoin:round;">
	<!-- Light-blue fill -->
	<!ENTITY st5 "fill:#CCECF4;stroke:#000000; stroke-width:1.133;stroke-linecap:round;stroke-linejoin:round;">
	<!ENTITY st6 "fill:none;stroke-linecap:butt; stroke-linejoin:round;">
	<!ENTITY st7 "fill:none;stroke:#000000;stroke-linecap:round;stroke-linejoin:round;">
	<!ENTITY st8 "enable-background:new    ;">
	<!-- Black fill -->
	<!ENTITY st9 "fill:#000000;stroke:#000000; stroke-linecap:round;stroke-linejoin:round;">
	<!-- SRS note   -->
	<!ENTITY st10 "font-size:9px;font-family:'NSimSun';">
	<!ENTITY st11 "font-size:9px;font-family:'NSimSun';">
	<!ENTITY st12 "font-size:6px;font-family:'NSimSun';">
	<!ENTITY st13 "fill:none;stroke:#ff0000;stroke-linecap:round;stroke-linejoin:round;">
	<!-- Yellow fill  -->
	<!ENTITY st14 "fill:#FFFF00;stroke:#FFFF00; stroke-width:0.1;stroke-linecap:round;stroke-linejoin:round;">
	<!ENTITY st15 "font-size:6px;font-family:'NSimSun';adobe-font-script:japanese;">
	<!ENTITY st16 "1.00 0.00 0.00 1.00">
	<!ENTITY st17 "0.00 -1.00 1.00 0.00">
	<!ENTITY st18 "font-size:6px;font-family:'NSimSun';">
	<!ENTITY st19 "font-size:9px;font-family:'NSimSun';">
	<!ENTITY st20 "font-size:6px;font-family:'NSimSun';adobe-font-script:japanese;">
	<!ENTITY st21 "font-size:7px;font-family:'NSimSun';adobe-font-script:japanese;">
	<!ATTLIST svg
		xmlns:ewd CDATA #FIXED "http://shcl.co.jp/ewd"
		xmlns:a CDATA #FIXED "http://ns.adobe.com/AdobeSVGViewerExtensions/3.0/"
		ewd:ver CDATA #IMPLIED
	>
	<!ATTLIST a
		ewd:lineID CDATA #IMPLIED
		ewd:groupID CDATA #IMPLIED
		ewd:figtype CDATA #IMPLIED
		ewd:code CDATA #IMPLIED
		ewd:figID CDATA #IMPLIED
		ewd:pinNo CDATA #IMPLIED
		ewd:comment CDATA #IMPLIED >
	<!ATTLIST g
		ewd:lineID CDATA #IMPLIED
		ewd:groupID CDATA #IMPLIED
		ewd:figtype CDATA #IMPLIED
		ewd:code CDATA #IMPLIED
		ewd:figID CDATA #IMPLIED
		ewd:pinNo CDATA #IMPLIED
		ewd:comment CDATA #IMPLIED >
	<!ATTLIST text
		ewd:textID CDATA #IMPLIED
		ewd:horAlign CDATA #IMPLIED >
	<!ATTLIST title
		ewd:textID CDATA #IMPLIED >
]>
<!-- Generator: Shintec Hozumi YS   -->
<svg onload="call_execInitLoadProc_svg('system')" style="overflow:visible;  enable-background:new 0 0 2969.377 710.000" viewBox="0 0 2973.501 710.000" height="710.000" width="2973.501" xml:space="preserve" ewd:ver="2.1.2.6F" xmlns="&ns_svg;" xmlns:ewd="http://shcl.co.jp/ewd" xmlns:a="http://ns.adobe.com/AdobeSVGViewerExtensions/3.0/" xmlns:xlink="&ns_xlink;">
<text style="font-size:6px;font-family:'NSimSun';" transform="matrix(&st16;  540.5  32.08 )" ewd:textID="29">主车身 ECU</text><text style="font-size:6px;font-family:'NSimSun';" transform="matrix(&st16;  540.5  24.98 )">E36(A)</text><path style="stroke-width: 1.42 ;&st7;  " d=" M   654.39,   256.74  L   662.89,   256.74  " /><path style="stroke-width: 1.42 ;&st7;  " d=" M   569.40,   256.74  L   577.90,   256.74  " /><path style="stroke-width: 1.42 ;&st7;  " d=" M   586.40,   193.73  L   581.43,   188.75  " /><path style="stroke-width: 1.42 ;&st7;  " d=" M   569.40,   200.78  L   574.37,   205.75  " /><path style="stroke-width: 1.42 ;&st7;  " d=" M   581.43,   205.75  L   586.40,   200.78  " /><path style="stroke-width: 1.42 ;&st7;  " d=" M   574.37,   188.75  L   569.40,   193.73  " /><path style="stroke-width: 1.42 ;&st7;  " d=" M   917.85,   448.68  L   912.87,   443.71  " /><path style="stroke-width: 1.42 ;&st7;  " d=" M   900.85,   455.74  L   905.82,   460.71  " /><path style="stroke-width: 1.42 ;&st7;  " d=" M   905.82,   443.71  L   900.85,   448.68  " /><path style="stroke-width: 1.42 ;&st7;  " d=" M   912.87,   460.71  L   917.85,   455.74  " /><path style="stroke-width: 1.42 ;&st7;  " d=" M   900.85,   506.73  L   905.82,   511.70  " /><path style="stroke-width: 1.42 ;&st7;  " d=" M   912.87,   511.70  L   917.85,   506.73  " /><path style="stroke-width: 1.42 ;&st7;  " d=" M   905.82,   494.70  L   900.85,   499.67  " /><path style="stroke-width: 1.42 ;&st7;  " d=" M   917.85,   499.67  L   912.87,   494.70  " /><path style="stroke-width: 1.42 ;&st7;  " d=" M   586.40,   435.21  L   577.90,   435.21  " /><path style="stroke-width: 1.42 ;&st7;  " d=" M   671.39,   435.21  L   662.89,   435.21  " /><path style="stroke-width: 1.42 ;&st7;  " d=" M   841.36,   253.22  L   836.39,   248.24  " /><path style="stroke-width: 1.42 ;&st7;  " d=" M   824.36,   260.27  L   829.33,   265.24  " /><path style="stroke-width: 1.42 ;&st7;  " d=" M   836.39,   265.24  L   841.36,   260.27  " /><path style="stroke-width: 1.42 ;&st7;  " d=" M   829.33,   248.24  L   824.36,   253.22  " /><path style="stroke-width: 1.42 ;&st7;  " d=" M   943.34,   253.22  L   938.37,   248.24  " /><path style="stroke-width: 1.42 ;&st7;  " d=" M   926.35,   260.27  L   931.31,   265.24  " /><path style="stroke-width: 1.42 ;&st7;  " d=" M   938.37,   265.24  L   943.34,   260.27  " /><path style="stroke-width: 1.42 ;&st7;  " d=" M   931.31,   248.24  L   926.35,   253.22  " /><path style="stroke-width: 1.42 ;&st7;  " d=" M   926.35,   197.25  L   934.84,   197.25  " /><path style="stroke-width: 1.42 ;&st7;  " d=" M   917.85,   554.19  L   909.35,   554.19  " /><text style="font-size:6px;font-family:'NSimSun';" transform="matrix(&st17;  905.65  432.67 )">W-B</text><text style="font-size:6px;font-family:'NSimSun';" transform="matrix(&st17;  905.65  483.66 )">W-B</text><text style="font-size:6px;font-family:'NSimSun';" transform="matrix(&st17;  905.65  594.14 )">W-B</text><text style="font-size:6px;font-family:'NSimSun';" transform="matrix(&st17;  574.21  156.25 )">P</text><text style="font-size:6px;font-family:'NSimSun';" transform="matrix(&st17;  616.7  156.37 )">R</text><text style="font-size:6px;font-family:'NSimSun';" transform="matrix(&st17;  931.15  283.85 )">R</text><text style="font-size:6px;font-family:'NSimSun';" transform="matrix(&st17;  931.15  232.86 )">R</text><text style="font-size:6px;font-family:'NSimSun';" transform="matrix(&st17;  574.21  232.74 )">P</text><text style="font-size:6px;font-family:'NSimSun';" transform="matrix(&st17;  585.54  237.51 )">(*13)</text><text style="font-size:6px;font-family:'NSimSun';" transform="matrix(&st17;  659.19  232.74 )">P</text><text style="font-size:6px;font-family:'NSimSun';" transform="matrix(&st17;  670.53  237.51 )">(*13)</text><text style="font-size:6px;font-family:'NSimSun';" transform="matrix(&st17;  574.21  309.23 )">P</text><text style="font-size:6px;font-family:'NSimSun';" transform="matrix(&st17;  585.54  314.0 )">(*13)</text><text style="font-size:6px;font-family:'NSimSun';" transform="matrix(&st17;  659.19  309.23 )">P</text><text style="font-size:6px;font-family:'NSimSun';" transform="matrix(&st17;  670.53  314.0 )">(*13)</text><text style="font-size:6px;font-family:'NSimSun';" transform="matrix(&st17;  574.21  403.68 )">W</text><text style="font-size:6px;font-family:'NSimSun';" transform="matrix(&st17;  585.54  407.48 )">(*13)</text><text style="font-size:6px;font-family:'NSimSun';" transform="matrix(&st17;  659.19  403.02 )">V</text><text style="font-size:6px;font-family:'NSimSun';" transform="matrix(&st17;  670.53  407.48 )">(*13)</text><text style="font-size:6px;font-family:'NSimSun';" transform="matrix(&st17;  574.21  471.67 )">W</text><text style="font-size:6px;font-family:'NSimSun';" transform="matrix(&st17;  585.54  475.47 )">(*13)</text><text style="font-size:6px;font-family:'NSimSun';" transform="matrix(&st17;  659.19  471.01 )">V</text><text style="font-size:6px;font-family:'NSimSun';" transform="matrix(&st17;  670.53  475.47 )">(*13)</text><text style="font-size:6px;font-family:'NSimSun';" transform="matrix(&st17;  574.21  573.65 )">W</text><text style="font-size:6px;font-family:'NSimSun';" transform="matrix(&st17;  585.54  577.45 )">(*13)</text><text style="font-size:6px;font-family:'NSimSun';" transform="matrix(&st17;  659.19  573.0 )">V</text><text style="font-size:6px;font-family:'NSimSun';" transform="matrix(&st17;  670.53  577.45 )">(*13)</text><text style="font-size:6px;font-family:'NSimSun';" transform="matrix(&st17;  752.68  309.35 )">R</text><text style="font-size:6px;font-family:'NSimSun';" transform="matrix(&st17;  764.01  314.0 )">(*21)</text><text style="font-size:6px;font-family:'NSimSun';" transform="matrix(&st17;  829.16  309.35 )">R</text><text style="font-size:6px;font-family:'NSimSun';" transform="matrix(&st17;  840.5  314.0 )">(*21)</text><text style="font-size:6px;font-family:'NSimSun';" transform="matrix(&st17;  752.68  432.67 )">W-B</text><text style="font-size:6px;font-family:'NSimSun';" transform="matrix(&st17;  764.01  432.98 )">(*21)</text><text style="font-size:6px;font-family:'NSimSun';" transform="matrix(&st17;  829.17  432.67 )">W-B</text><text style="font-size:6px;font-family:'NSimSun';" transform="matrix(&st17;  840.5  432.98 )">(*21)</text><text style="font-size:6px;font-family:'NSimSun';" transform="matrix(&st17;  905.65  534.65 )">W-B</text><text style="font-size:6px;font-family:'NSimSun';" transform="matrix(&st16;  881.74  253.05 )">R</text><text style="font-size:6px;font-family:'NSimSun';" transform="matrix(&st16;  877.09  264.38 )">(*21)</text><text style="font-size:6px;font-family:'NSimSun';" transform="matrix(&st16;  541.91  193.56 )">P</text><text style="font-size:6px;font-family:'NSimSun';" transform="matrix(&st16;  541.8  652.48 )">R</text><text style="font-size:6px;font-family:'NSimSun';" transform="matrix(&st16;  537.15  663.81 )">(*10)</text><g ewd:figtype="conn" ewd:figID="4" ewd:code="G4"><path style="stroke-width: 0.85 ;&st7;  " d=" M   662.89,   371.47  L   662.89,   375.72  " /><path style="stroke-width: 0.85 ;&st7;  " d=" M   662.89,   358.73  L   662.89,   362.97  " /><path style="stroke-width: 1.42 ;&st7;   " d=" M   671.39,   367.22  C   671.39    362.53    667.58    358.73    662.89    358.73  " /><path style="stroke-width: 1.42 ;&st7;   " d=" M   662.89,   358.73  C   658.20    358.73    654.39    362.53    654.39    367.22  " /><path style="stroke-width: 1.42 ;&st7;   " d=" M   654.39,   367.22  C   654.39    371.92    658.20    375.72    662.89    375.72  " /><path style="stroke-width: 1.42 ;&st7;   " d=" M   662.89,   375.72  C   667.58    375.72    671.39    371.92    671.39    367.22  " /><path style="stroke-width: 0.85 ;&st7;   " d=" M   660.48,   367.22  C   661.27    368.56    663.00    369.01    664.34    368.22  " /><path style="stroke-width: 0.85 ;&st7;   " d=" M   664.34,   368.22  C   665.68    367.42    666.12    365.70    665.33    364.36  " /><path style="stroke-width: 0.85 ;&st7;   " d=" M   665.33,   364.36  C   664.81    363.47    663.92    362.97    662.89    362.97  " /><path style="stroke-width: 0.85 ;&st7;   " d=" M   662.89,   371.47  C   664.44    371.48    665.71    370.23    665.72    368.67  " /><path style="stroke-width: 0.85 ;&st7;   " d=" M   665.72,   368.67  C   665.73    367.12    664.48    365.85    662.92    365.84  " /><path style="stroke-width: 0.85 ;&st7;   " d=" M   662.92,   365.84  C   661.89    365.84    661.01    366.34    660.48    367.22  " /><text style="font-size:6px;font-family:'NSimSun';" transform="matrix(&st16;  656.7  383.92 )">2</text><text style="font-size:6px;font-family:'NSimSun';" transform="matrix(&st16;  656.7  355.04 )">1</text><g ewd:figtype="title"><text style="font-size:6px;font-family:'NSimSun';" transform="matrix(&st17;  679.28  387.12 )">G4</text><text style="font-size:6px;font-family:'NSimSun';" transform="matrix(&st17;  686.11  387.13 )" ewd:textID="16">右侧门控灯总成</text></g></g><g ewd:figtype="conn" ewd:figID="5" ewd:code="H4"><path style="stroke-width: 0.85 ;&st7;  " d=" M   577.90,   358.73  L   577.90,   362.97  " /><path style="stroke-width: 0.85 ;&st7;  " d=" M   577.90,   371.47  L   577.90,   375.72  " /><path style="stroke-width: 1.42 ;&st7;   " d=" M   586.40,   367.22  C   586.40    362.53    582.60    358.73    577.90    358.73  " /><path style="stroke-width: 1.42 ;&st7;   " d=" M   577.90,   358.73  C   573.21    358.73    569.40    362.53    569.40    367.22  " /><path style="stroke-width: 1.42 ;&st7;   " d=" M   569.40,   367.22  C   569.40    371.92    573.21    375.72    577.90    375.72  " /><path style="stroke-width: 1.42 ;&st7;   " d=" M   577.90,   375.72  C   582.60    375.72    586.40    371.92    586.40    367.22  " /><path style="stroke-width: 0.85 ;&st7;   " d=" M   575.50,   367.22  C   576.29    368.56    578.01    369.01    579.35    368.22  " /><path style="stroke-width: 0.85 ;&st7;   " d=" M   579.35,   368.22  C   580.69    367.42    581.14    365.70    580.35    364.36  " /><path style="stroke-width: 0.85 ;&st7;   " d=" M   580.35,   364.36  C   579.82    363.47    578.94    362.97    577.90    362.97  " /><path style="stroke-width: 0.85 ;&st7;   " d=" M   577.90,   371.47  C   579.46    371.48    580.73    370.23    580.74    368.67  " /><path style="stroke-width: 0.85 ;&st7;   " d=" M   580.74,   368.67  C   580.75    367.12    579.49    365.85    577.94    365.84  " /><path style="stroke-width: 0.85 ;&st7;   " d=" M   577.94,   365.84  C   576.90    365.84    576.02    366.34    575.50    367.22  " /><text style="font-size:6px;font-family:'NSimSun';" transform="matrix(&st16;  571.72  383.92 )">2</text><text style="font-size:6px;font-family:'NSimSun';" transform="matrix(&st16;  571.72  355.04 )">1</text><g ewd:figtype="title"><text style="font-size:6px;font-family:'NSimSun';" transform="matrix(&st17;  594.3  387.12 )">H4</text><text style="font-size:6px;font-family:'NSimSun';" transform="matrix(&st17;  601.12  387.13 )" ewd:textID="15">左侧门控灯总成</text></g></g><g ewd:figtype="conn" ewd:figID="7" ewd:code="E36"><g ewd:lineID="112"><text style="font-size:6px;font-family:'NSimSun';" transform="matrix(&st16;  569.86  83.07 )">LGYL</text></g></g><g ewd:figtype="conn" ewd:figID="11" ewd:code="E67"><path style="stroke-width: 0.85 ;&st7;  " d=" M   577.90,   503.20  L   577.90,   528.70  " /><path style="stroke-width: 0.85 ;&st7;  " d=" M   582.15,   520.20  L   573.65,   520.20  " /><path style="stroke-width: 0.28 ;&st9;  " d=" M   577.90,   520.20  L   572.24,   511.70  L   583.57,   511.70  L   577.90,   520.20  " /><path style="stroke-width: 1.42 ;&st7;  " d=" M   569.40,   528.70  L   586.40,   528.70  L   586.40,   503.20  L   569.40,   503.20  L   569.40,   528.70  " /><text style="font-size:6px;font-family:'NSimSun';" transform="matrix(&st16;  571.72  536.89 )">2</text><text style="font-size:6px;font-family:'NSimSun';" transform="matrix(&st16;  571.72  499.51 )">1</text><g ewd:figtype="title"><text style="font-size:6px;font-family:'NSimSun';" transform="matrix(&st17;  594.3  531.6 )">E67</text><text style="font-size:6px;font-family:'NSimSun';" transform="matrix(&st17;  601.12  531.6 )" ewd:textID="18">二极管（左侧门控灯总成）</text></g></g><g ewd:figtype="conn" ewd:figID="12" ewd:code="E68"><path style="stroke-width: 0.85 ;&st7;  " d=" M   662.89,   503.20  L   662.89,   528.70  " /><path style="stroke-width: 0.85 ;&st7;  " d=" M   667.14,   520.20  L   658.64,   520.20  " /><path style="stroke-width: 0.28 ;&st9;  " d=" M   662.89,   520.20  L   657.22,   511.70  L   668.55,   511.70  L   662.89,   520.20  " /><path style="stroke-width: 1.42 ;&st7;  " d=" M   654.39,   528.70  L   671.39,   528.70  L   671.39,   503.20  L   654.39,   503.20  L   654.39,   528.70  " /><text style="font-size:6px;font-family:'NSimSun';" transform="matrix(&st16;  656.7  499.51 )">1</text><text style="font-size:6px;font-family:'NSimSun';" transform="matrix(&st16;  656.7  536.89 )">2</text><g ewd:figtype="title"><text style="font-size:6px;font-family:'NSimSun';" transform="matrix(&st17;  679.28  531.6 )">E68</text><text style="font-size:6px;font-family:'NSimSun';" transform="matrix(&st17;  686.11  531.6 )" ewd:textID="19">二极管（右侧门控灯总成）</text></g></g><g ewd:figtype="conn" ewd:figID="13" ewd:code="O2"><path style="stroke-width: 0.85 ;&st7;  " d=" M   756.37,   384.22  L   756.37,   379.97  " /><path style="stroke-width: 0.85 ;&st7;  " d=" M   756.37,   367.22  L   756.37,   371.47  " /><path style="stroke-width: 0.85 ;&st7;  " d=" M   756.37,   367.22  L   756.37,   361.56  " /><path style="stroke-width: 1.42 ;&st7;  " d=" M   756.37,   344.56  L   762.04,   361.56  " /><path style="stroke-width: 0.85 ;&st7;   " d=" M   757.79,   343.14  C   757.79    342.36    757.16    341.73    756.37    341.73  " /><path style="stroke-width: 0.85 ;&st7;   " d=" M   756.37,   341.73  C   755.59    341.73    754.96    342.36    754.96    343.14  " /><path style="stroke-width: 0.85 ;&st7;   " d=" M   754.96,   343.14  C   754.96    343.93    755.59    344.56    756.37    344.56  " /><path style="stroke-width: 0.85 ;&st7;   " d=" M   756.37,   344.56  C   757.16    344.56    757.79    343.93    757.79    343.14  " /><path style="stroke-width: 0.85 ;&st7;   " d=" M   756.37,   379.97  C   757.93    379.98    759.20    378.73    759.21    377.17  " /><path style="stroke-width: 0.85 ;&st7;   " d=" M   759.21,   377.17  C   759.22    375.62    757.96    374.35    756.41    374.34  " /><path style="stroke-width: 0.85 ;&st7;   " d=" M   756.41,   374.34  C   755.38    374.33    754.49    374.83    753.97    375.72  " /><path style="stroke-width: 0.85 ;&st7;   " d=" M   757.79,   360.14  C   757.79    359.36    757.16    358.73    756.37    358.73  " /><path style="stroke-width: 0.85 ;&st7;   " d=" M   756.37,   358.73  C   755.59    358.73    754.96    359.36    754.96    360.14  " /><path style="stroke-width: 0.85 ;&st7;   " d=" M   754.96,   360.14  C   754.96    360.92    755.59    361.56    756.37    361.56  " /><path style="stroke-width: 0.85 ;&st7;   " d=" M   756.37,   361.56  C   757.16    361.56    757.79    360.92    757.79    360.14  " /><path style="stroke-width: 0.85 ;&st7;   " d=" M   753.97,   375.72  C   754.76    377.06    756.48    377.51    757.82    376.71  " /><path style="stroke-width: 0.85 ;&st7;   " d=" M   757.82,   376.71  C   759.16    375.92    759.61    374.19    758.82    372.86  " /><path style="stroke-width: 0.85 ;&st7;   " d=" M   758.82,   372.86  C   758.29    371.97    757.41    371.47    756.37    371.47  " /><path style="stroke-width: 1.42 ;&st7;   " d=" M   764.87,   375.72  C   764.87    371.03    761.07    367.22    756.37    367.22  " /><path style="stroke-width: 1.42 ;&st7;   " d=" M   756.37,   367.22  C   751.68    367.22    747.88    371.03    747.88    375.72  " /><path style="stroke-width: 1.42 ;&st7;   " d=" M   747.88,   375.72  C   747.88    380.42    751.68    384.22    756.37    384.22  " /><path style="stroke-width: 1.42 ;&st7;   " d=" M   756.37,   384.22  C   761.07    384.22    764.87    380.42    764.87    375.72  " /><path style="stroke-width: 0.85 ;&st7;  " d=" M   756.37,   384.22  L   756.37,   392.72  " /><path style="stroke-width: 1.42 ;&st7;  " d=" M   773.37,   392.72  L   739.38,   392.72  L   739.38,   333.23  L   773.37,   333.23  L   773.37,   392.72  " /><path style="stroke-width: 0.85 ;&st7;  " d=" M   756.37,   341.73  L   756.37,   333.23  " /><text style="font-size:6px;font-family:'NSimSun';" transform="matrix(&st16;  758.96  341.42 )">B</text><text style="font-size:6px;font-family:'NSimSun';" transform="matrix(&st16;  758.96  389.03 )">E</text><text style="font-size:6px;font-family:'NSimSun';" transform="matrix(&st16;  750.19  400.91 )">1</text><text style="font-size:6px;font-family:'NSimSun';" transform="matrix(&st16;  750.19  329.54 )">2</text><g ewd:figtype="title"><text style="font-size:6px;font-family:'NSimSun';" transform="matrix(&st17;  781.26  395.62 )">O2</text><text style="font-size:6px;font-family:'NSimSun';" transform="matrix(&st17;  788.09  395.63 )" ewd:textID="43">左侧梳妆灯总成</text></g></g><g ewd:figtype="conn" ewd:figID="14" ewd:code="O1"><path style="stroke-width: 0.85 ;&st7;  " d=" M   832.86,   367.22  L   832.86,   371.47  " /><path style="stroke-width: 0.85 ;&st7;  " d=" M   832.86,   384.22  L   832.86,   379.97  " /><path style="stroke-width: 0.85 ;&st7;  " d=" M   832.86,   367.22  L   832.86,   361.56  " /><path style="stroke-width: 1.42 ;&st7;  " d=" M   832.86,   344.56  L   838.53,   361.56  " /><path style="stroke-width: 0.85 ;&st7;   " d=" M   832.86,   379.97  C   834.42    379.98    835.68    378.73    835.69    377.17  " /><path style="stroke-width: 0.85 ;&st7;   " d=" M   835.69,   377.17  C   835.70    375.62    834.45    374.35    832.89    374.34  " /><path style="stroke-width: 0.85 ;&st7;   " d=" M   832.89,   374.34  C   831.86    374.33    830.98    374.83    830.45    375.72  " /><path style="stroke-width: 0.85 ;&st7;   " d=" M   830.45,   375.72  C   831.24    377.06    832.97    377.51    834.31    376.71  " /><path style="stroke-width: 0.85 ;&st7;   " d=" M   834.31,   376.71  C   835.65    375.92    836.09    374.19    835.30    372.86  " /><path style="stroke-width: 0.85 ;&st7;   " d=" M   835.30,   372.86  C   834.78    371.97    833.89    371.47    832.86    371.47  " /><path style="stroke-width: 0.85 ;&st7;   " d=" M   834.28,   360.14  C   834.28    359.36    833.64    358.73    832.86    358.73  " /><path style="stroke-width: 0.85 ;&st7;   " d=" M   832.86,   358.73  C   832.08    358.73    831.44    359.36    831.44    360.14  " /><path style="stroke-width: 0.85 ;&st7;   " d=" M   831.44,   360.14  C   831.44    360.92    832.08    361.56    832.86    361.56  " /><path style="stroke-width: 0.85 ;&st7;   " d=" M   832.86,   361.56  C   833.64    361.56    834.28    360.92    834.28    360.14  " /><path style="stroke-width: 0.85 ;&st7;   " d=" M   834.28,   343.14  C   834.28    342.36    833.64    341.73    832.86    341.73  " /><path style="stroke-width: 0.85 ;&st7;   " d=" M   832.86,   341.73  C   832.08    341.73    831.44    342.36    831.44    343.14  " /><path style="stroke-width: 0.85 ;&st7;   " d=" M   831.44,   343.14  C   831.44    343.93    832.08    344.56    832.86    344.56  " /><path style="stroke-width: 0.85 ;&st7;   " d=" M   832.86,   344.56  C   833.64    344.56    834.28    343.93    834.28    343.14  " /><path style="stroke-width: 1.42 ;&st7;   " d=" M   841.36,   375.72  C   841.36    371.03    837.55    367.22    832.86    367.22  " /><path style="stroke-width: 1.42 ;&st7;   " d=" M   832.86,   367.22  C   828.17    367.22    824.36    371.03    824.36    375.72  " /><path style="stroke-width: 1.42 ;&st7;   " d=" M   824.36,   375.72  C   824.36    380.42    828.17    384.22    832.86    384.22  " /><path style="stroke-width: 1.42 ;&st7;   " d=" M   832.86,   384.22  C   837.55    384.22    841.36    380.42    841.36    375.72  " /><path style="stroke-width: 0.85 ;&st7;  " d=" M   832.86,   384.22  L   832.86,   392.72  " /><path style="stroke-width: 1.42 ;&st7;  " d=" M   849.86,   392.72  L   815.86,   392.72  L   815.86,   333.23  L   849.86,   333.23  L   849.86,   392.72  " /><path style="stroke-width: 0.85 ;&st7;  " d=" M   832.86,   341.73  L   832.86,   333.23  " /><text style="font-size:6px;font-family:'NSimSun';" transform="matrix(&st16;  835.44  341.42 )">B</text><text style="font-size:6px;font-family:'NSimSun';" transform="matrix(&st16;  835.44  389.03 )">E</text><text style="font-size:6px;font-family:'NSimSun';" transform="matrix(&st16;  826.68  400.91 )">1</text><text style="font-size:6px;font-family:'NSimSun';" transform="matrix(&st16;  826.68  329.54 )">2</text><g ewd:figtype="title"><text style="font-size:6px;font-family:'NSimSun';" transform="matrix(&st17;  857.75  395.62 )">O1</text><text style="font-size:6px;font-family:'NSimSun';" transform="matrix(&st17;  864.58  395.63 )" ewd:textID="44">右侧梳妆灯总成</text></g></g><g ewd:figtype="conn" ewd:figID="15" ewd:code="O5"><path style="stroke-width: 0.85 ;&st7;  " d=" M   917.85,   337.48  L   917.85,   341.73  " /><path style="stroke-width: 0.85 ;&st7;  " d=" M   917.85,   324.73  L   917.85,   328.98  " /><path style="stroke-width: 0.85 ;&st7;  " d=" M   951.84,   337.48  L   951.84,   341.73  " /><path style="stroke-width: 0.85 ;&st7;  " d=" M   951.84,   324.73  L   951.84,   328.98  " /><path style="stroke-width: 0.85 ;&st7;  " d=" M   917.85,   341.73  L   917.85,   350.23  " /><path style="stroke-width: 0.85 ;&st7;  " d=" M   926.35,   367.22  L   926.35,   375.72  " /><path style="stroke-width: 0.85 ;&st7;  " d=" M   909.35,   367.22  L   909.35,   375.72  " /><path style="stroke-width: 1.42 ;&st7;  " d=" M   909.87,   368.07  L   917.85,   353.06  " /><path style="stroke-width: 0.85 ;&st7;  " d=" M   951.84,   341.73  L   951.84,   350.23  " /><path style="stroke-width: 0.85 ;&st7;  " d=" M   960.34,   367.22  L   960.34,   375.72  " /><path style="stroke-width: 0.85 ;&st7;  " d=" M   943.34,   367.22  L   943.34,   375.72  " /><path style="stroke-width: 1.42 ;&st7;  " d=" M   943.86,   368.07  L   951.84,   353.06  " /><path style="stroke-width: 1.42 ;&st7;   " d=" M   926.35,   333.23  C   926.35    328.54    922.54    324.73    917.85    324.73  " /><path style="stroke-width: 1.42 ;&st7;   " d=" M   917.85,   324.73  C   913.15    324.73    909.35    328.54    909.35    333.23  " /><path style="stroke-width: 1.42 ;&st7;   " d=" M   909.35,   333.23  C   909.35    337.92    913.15    341.73    917.85    341.73  " /><path style="stroke-width: 1.42 ;&st7;   " d=" M   917.85,   341.73  C   922.54    341.73    926.35    337.92    926.35    333.23  " /><path style="stroke-width: 0.85 ;&st7;   " d=" M   915.44,   333.23  C   916.23    334.57    917.96    335.01    919.30    334.22  " /><path style="stroke-width: 0.85 ;&st7;   " d=" M   919.30,   334.22  C   920.64    333.43    921.08    331.70    920.29    330.36  " /><path style="stroke-width: 0.85 ;&st7;   " d=" M   920.29,   330.36  C   919.76    329.47    918.88    328.97    917.85    328.98  " /><path style="stroke-width: 0.85 ;&st7;   " d=" M   917.85,   337.48  C   919.40    337.49    920.67    336.24    920.68    334.68  " /><path style="stroke-width: 0.85 ;&st7;   " d=" M   920.68,   334.68  C   920.69    333.12    919.44    331.86    917.88    331.85  " /><path style="stroke-width: 0.85 ;&st7;   " d=" M   917.88,   331.85  C   916.85    331.84    915.97    332.34    915.44    333.23  " /><path style="stroke-width: 1.42 ;&st7;   " d=" M   960.34,   333.23  C   960.34    328.54    956.53    324.73    951.84    324.73  " /><path style="stroke-width: 1.42 ;&st7;   " d=" M   951.84,   324.73  C   947.15    324.73    943.34    328.54    943.34    333.23  " /><path style="stroke-width: 1.42 ;&st7;   " d=" M   943.34,   333.23  C   943.34    337.92    947.15    341.73    951.84    341.73  " /><path style="stroke-width: 1.42 ;&st7;   " d=" M   951.84,   341.73  C   956.53    341.73    960.34    337.92    960.34    333.23  " /><path style="stroke-width: 0.85 ;&st7;   " d=" M   949.43,   333.23  C   950.22    334.57    951.95    335.01    953.29    334.22  " /><path style="stroke-width: 0.85 ;&st7;   " d=" M   953.29,   334.22  C   954.63    333.43    955.07    331.70    954.28    330.36  " /><path style="stroke-width: 0.85 ;&st7;   " d=" M   954.28,   330.36  C   953.76    329.47    952.87    328.97    951.84    328.98  " /><path style="stroke-width: 0.85 ;&st7;   " d=" M   951.84,   337.48  C   953.40    337.49    954.66    336.24    954.67    334.68  " /><path style="stroke-width: 0.85 ;&st7;   " d=" M   954.67,   334.68  C   954.68    333.12    953.43    331.86    951.87    331.85  " /><path style="stroke-width: 0.85 ;&st7;   " d=" M   951.87,   331.85  C   950.84    331.84    949.96    332.34    949.43    333.23  " /><path style="stroke-width: 0.85 ;&st7;   " d=" M   910.76,   365.81  C   910.76    365.03    910.13    364.39    909.35    364.39  " /><path style="stroke-width: 0.85 ;&st7;   " d=" M   909.35,   364.39  C   908.57    364.39    907.93    365.03    907.93    365.81  " /><path style="stroke-width: 0.85 ;&st7;   " d=" M   907.93,   365.81  C   907.93    366.59    908.57    367.22    909.35    367.22  " /><path style="stroke-width: 0.85 ;&st7;   " d=" M   909.35,   367.22  C   910.13    367.22    910.76    366.59    910.76    365.81  " /><path style="stroke-width: 0.85 ;&st7;   " d=" M   927.76,   365.81  C   927.76    365.03    927.13    364.39    926.35    364.39  " /><path style="stroke-width: 0.85 ;&st7;   " d=" M   926.35,   364.39  C   925.56    364.39    924.93    365.03    924.93    365.81  " /><path style="stroke-width: 0.85 ;&st7;   " d=" M   924.93,   365.81  C   924.93    366.59    925.56    367.22    926.35    367.22  " /><path style="stroke-width: 0.85 ;&st7;   " d=" M   926.35,   367.22  C   927.13    367.22    927.76    366.59    927.76    365.81  " /><path style="stroke-width: 0.85 ;&st7;   " d=" M   919.26,   351.64  C   919.26    350.86    918.63    350.23    917.85    350.23  " /><path style="stroke-width: 0.85 ;&st7;   " d=" M   917.85,   350.23  C   917.06    350.23    916.43    350.86    916.43    351.64  " /><path style="stroke-width: 0.85 ;&st7;   " d=" M   916.43,   351.64  C   916.43    352.43    917.06    353.06    917.85    353.06  " /><path style="stroke-width: 0.85 ;&st7;   " d=" M   917.85,   353.06  C   918.63    353.06    919.26    352.43    919.26    351.64  " /><path style="stroke-width: 0.85 ;&st7;   " d=" M   944.76,   365.81  C   944.76    365.03    944.12    364.39    943.34    364.39  " /><path style="stroke-width: 0.85 ;&st7;   " d=" M   943.34,   364.39  C   942.56    364.39    941.93    365.03    941.93    365.81  " /><path style="stroke-width: 0.85 ;&st7;   " d=" M   941.93,   365.81  C   941.93    366.59    942.56    367.22    943.34    367.22  " /><path style="stroke-width: 0.85 ;&st7;   " d=" M   943.34,   367.22  C   944.12    367.22    944.76    366.59    944.76    365.81  " /><path style="stroke-width: 0.85 ;&st7;   " d=" M   961.76,   365.81  C   961.76    365.03    961.12    364.39    960.34    364.39  " /><path style="stroke-width: 0.85 ;&st7;   " d=" M   960.34,   364.39  C   959.56    364.39    958.92    365.03    958.92    365.81  " /><path style="stroke-width: 0.85 ;&st7;   " d=" M   958.92,   365.81  C   958.92    366.59    959.56    367.22    960.34    367.22  " /><path style="stroke-width: 0.85 ;&st7;   " d=" M   960.34,   367.22  C   961.12    367.22    961.76    366.59    961.76    365.81  " /><path style="stroke-width: 0.85 ;&st7;   " d=" M   953.26,   351.64  C   953.26    350.86    952.62    350.23    951.84    350.23  " /><path style="stroke-width: 0.85 ;&st7;   " d=" M   951.84,   350.23  C   951.06    350.23    950.42    350.86    950.42    351.64  " /><path style="stroke-width: 0.85 ;&st7;   " d=" M   950.42,   351.64  C   950.42    352.43    951.06    353.06    951.84    353.06  " /><path style="stroke-width: 0.85 ;&st7;   " d=" M   951.84,   353.06  C   952.62    353.06    953.26    352.43    953.26    351.64  " /><path style="stroke-width: 1.42 ;&st7;  " d=" M   892.35,   401.22  L   994.33,   401.22  L   994.33,   299.24  L   892.35,   299.24  L   892.35,   401.22  " /><path style="stroke-width: 0.85 ;&st7;  " d=" M   909.35,   375.72  L   909.35,   401.22  " /><path style="stroke-width: 0.85 ;&st7;  " d=" M   909.35,   384.22  L   943.34,   384.22  L   943.34,   375.72  " /><path style="stroke-width: 0.85 ;&st7;  " d=" M   926.34,   375.72  L   977.34,   375.72  L   977.34,   299.24  " /><path style="stroke-width: 0.85 ;&st7;  " d=" M   917.85,   324.73  L   917.85,   316.23  L   951.84,   316.23  L   951.84,   324.73  " /><path style="stroke-width: 0.85 ;&st7;  " d=" M   934.84,   316.23  L   934.84,   299.24  " /><path style="stroke-width: 0.85 ;&st7;  " d=" M   933.65,   315.23  L   933.38,   315.70  L   933.29,   316.23  L   933.38,   316.77  L   933.65,   317.24  L   934.06,   317.58  L   934.57,   317.77  L   935.12,   317.77  L   935.62,   317.58  L   936.04,   317.24  L   936.31,   316.77  L   936.40,   316.23  L   936.31,   315.70  L   936.04,   315.23  L   935.62,   314.88  L   935.12,   314.70  L   934.57,   314.70  L   934.06,   314.88  L   933.65,   315.23  L   934.04,   315.94  L   934.04,   316.52  L   934.42,   316.97  L   934.99,   317.07  L   935.49,   316.78  L   935.69,   316.23  L   935.49,   315.69  L   934.99,   315.40  L   934.42,   315.50  L   934.84,   316.23  " /><path style="stroke-width: 0.85 ;&st7;  " d=" M   959.15,   374.72  L   958.87,   375.19  L   958.78,   375.72  L   958.87,   376.26  L   959.15,   376.73  L   959.56,   377.07  L   960.07,   377.26  L   960.61,   377.26  L   961.12,   377.07  L   961.53,   376.73  L   961.80,   376.26  L   961.90,   375.72  L   961.80,   375.19  L   961.53,   374.72  L   961.12,   374.37  L   960.61,   374.19  L   960.07,   374.19  L   959.56,   374.37  L   959.15,   374.72  L   959.54,   375.43  L   959.54,   376.01  L   959.91,   376.46  L   960.49,   376.56  L   960.99,   376.27  L   961.19,   375.72  L   960.99,   375.18  L   960.49,   374.89  L   959.91,   374.99  L   960.34,   375.72  " /><path style="stroke-width: 0.85 ;&st7;  " d=" M   908.16,   383.22  L   907.88,   383.69  L   907.79,   384.22  L   907.88,   384.75  L   908.16,   385.22  L   908.57,   385.57  L   909.08,   385.76  L   909.62,   385.76  L   910.13,   385.57  L   910.54,   385.22  L   910.81,   384.75  L   910.91,   384.22  L   910.81,   383.69  L   910.54,   383.22  L   910.13,   382.87  L   909.62,   382.69  L   909.08,   382.69  L   908.57,   382.87  L   908.16,   383.22  L   908.55,   383.93  L   908.55,   384.51  L   908.92,   384.96  L   909.49,   385.06  L   910.00,   384.77  L   910.20,   384.22  L   910.00,   383.67  L   909.49,   383.39  L   908.92,   383.48  L   909.35,   384.22  " /><text style="font-size:6px;font-family:'NSimSun';" transform="matrix(&st16;  915.74  397.52 )">E</text><text style="font-size:6px;font-family:'NSimSun';" transform="matrix(&st16;  979.92  307.43 )">CTY</text><text style="font-size:6px;font-family:'NSimSun';" transform="matrix(&st16;  937.43  307.43 )">B</text><text style="font-size:6px;font-family:'NSimSun';" transform="matrix(&st16;  903.16  409.41 )">3</text><text style="font-size:6px;font-family:'NSimSun';" transform="matrix(&st16;  928.66  295.55 )">4</text><text style="font-size:6px;font-family:'NSimSun';" transform="matrix(&st16;  971.15  295.55 )">2</text><g ewd:figtype="title"><text style="font-size:6px;font-family:'NSimSun';" transform="matrix(&st17;  1009.05  404.12 )" ewd:textID="33">1 号车厢照明灯总成</text><text style="font-size:6px;font-family:'NSimSun';" transform="matrix(&st17;  1002.23  404.12 )">O5</text></g></g><g ewd:figtype="jb" ewd:figID="34" ewd:code="3"><path style="stroke-width: 1.42 ;&st7;  " d=" M   622.52,   137.76  L   618.27,   137.76  " /><path style="stroke-width: 1.42 ;&st7;  " d=" M   622.52,   129.26  L   618.27,   129.26  " /><path style="stroke-width: 1.42 ;&st7;  " d=" M   580.03,   129.26  L   575.78,   129.26  " /><path style="stroke-width: 1.42 ;&st7;  " d=" M   580.03,   137.76  L   575.78,   137.76  " /><path style="stroke-width: 1.42 ;&st7;   " d=" M   626.77,   133.51  C   626.77    131.17    624.87    129.26    622.52    129.26  " /><path style="stroke-width: 1.42 ;&st7;   " d=" M   622.52,   137.76  C   624.87    137.76    626.77    135.86    626.77    133.51  " /><path style="stroke-width: 1.42 ;&st7;   " d=" M   614.02,   133.51  C   614.02    135.86    615.92    137.76    618.27    137.76  " /><path style="stroke-width: 1.42 ;&st7;   " d=" M   618.27,   129.26  C   615.92    129.26    614.02    131.17    614.02    133.51  " /><path style="stroke-width: 1.42 ;&st7;   " d=" M   584.28,   133.51  C   584.28    131.17    582.37    129.26    580.03    129.26  " /><path style="stroke-width: 1.42 ;&st7;   " d=" M   580.03,   137.76  C   582.37    137.76    584.28    135.86    584.28    133.51  " /><path style="stroke-width: 1.42 ;&st7;   " d=" M   571.53,   133.51  C   571.53    135.86    573.43    137.76    575.78    137.76  " /><path style="stroke-width: 1.42 ;&st7;   " d=" M   575.78,   129.26  C   573.43    129.26    571.53    131.17    571.53    133.51  " /><path style="stroke-width: 0.85 ;&st7;  " d=" M   576.71,   102.77  L   576.44,   103.24  L   576.35,   103.77  L   576.44,   104.30  L   576.71,   104.77  L   577.12,   105.12  L   577.63,   105.30  L   578.18,   105.30  L   578.68,   105.12  L   579.10,   104.77  L   579.37,   104.30  L   579.46,   103.77  L   579.37,   103.24  L   579.10,   102.77  L   578.68,   102.42  L   578.18,   102.23  L   577.63,   102.23  L   577.12,   102.42  L   576.71,   102.77  L   577.10,   103.48  L   577.10,   104.06  L   577.48,   104.50  L   578.05,   104.60  L   578.55,   104.31  L   578.75,   103.77  L   578.55,   103.22  L   578.05,   102.93  L   577.48,   103.03  L   577.90,   103.77  " /><path style="stroke-width: 0.85 ;&st7;  " d=" M   577.90,   103.77  L   620.40,   103.77  L   620.40,   129.26  " /><path style="stroke-width: 0.28 ;&st9;  " d=" M   620.40,   124.37  L   617.56,   121.54  L   617.56,   125.79  L   620.40,   128.62  L   623.23,   125.79  L   623.23,   121.54  L   620.40,   124.37  " /><path style="stroke-width: 0.28 ;&st9;  " d=" M   577.90,   124.37  L   575.07,   121.54  L   575.07,   125.79  L   577.90,   128.62  L   580.74,   125.79  L   580.74,   121.54  L   577.90,   124.37  " /><path style="stroke-width: 0.85 ;&st7;  " d=" M   577.90,    86.77  L   577.90,   129.26  " /><text style="font-size:6px;font-family:'NSimSun';" transform="matrix(&st16;  606.79  135.48 )">42</text><text style="font-size:6px;font-family:'NSimSun';" transform="matrix(&st16;  616.42  135.48 )">3C</text><text style="font-size:6px;font-family:'NSimSun';" transform="matrix(&st16;  573.93  135.48 )">3C</text><text style="font-size:6px;font-family:'NSimSun';" transform="matrix(&st16;  564.29  135.48 )">21</text><text style="font-size:6px;font-family:'NSimSun';" transform="matrix(&st16;  571.72  94.96 )">3</text></g><g ewd:figtype="w2w" ewd:figID="44" ewd:code="HE3"><path style="stroke-width: 1.42 ;&st7;  " d=" M   582.15,   444.28  L   577.90,   440.03  L   573.65,   444.28  " /><path style="stroke-width: 1.42 ;&st7;  " d=" M   582.15,   440.88  L   577.90,   436.63  L   573.65,   440.88  " /><text style="font-size:6px;font-family:'NSimSun';" transform="matrix(&st16;  562.17  432.93 )">12</text></g><g ewd:figtype="w2w" ewd:figID="45" ewd:code="HE3"><path style="stroke-width: 1.42 ;&st7;  " d=" M   582.15,   251.08  L   577.90,   255.33  L   573.65,   251.08  " /><path style="stroke-width: 1.42 ;&st7;  " d=" M   573.65,   247.68  L   577.90,   251.93  L   582.15,   247.68  " /><text style="font-size:6px;font-family:'NSimSun';" transform="matrix(&st16;  565.27  262.96 )">3</text></g><g ewd:figtype="w2w" ewd:figID="46" ewd:code="GE3"><path style="stroke-width: 1.42 ;&st7;  " d=" M   667.14,   444.28  L   662.89,   440.03  L   658.64,   444.28  " /><path style="stroke-width: 1.42 ;&st7;  " d=" M   667.14,   440.88  L   662.89,   436.63  L   658.64,   440.88  " /><text style="font-size:6px;font-family:'NSimSun';" transform="matrix(&st16;  647.16  432.93 )">12</text></g><g ewd:figtype="w2w" ewd:figID="47" ewd:code="GE3"><path style="stroke-width: 1.42 ;&st7;  " d=" M   667.14,   251.08  L   662.89,   255.33  L   658.64,   251.08  " /><path style="stroke-width: 1.42 ;&st7;  " d=" M   658.64,   247.68  L   662.89,   251.93  L   667.14,   247.68  " /><text style="font-size:6px;font-family:'NSimSun';" transform="matrix(&st16;  650.26  262.96 )">3</text></g><g ewd:figtype="w2w" ewd:figID="48" ewd:code="OE1"><path style="stroke-width: 1.42 ;&st7;  " d=" M   913.60,   563.26  L   909.35,   559.01  L   905.10,   563.26  " /><path style="stroke-width: 1.42 ;&st7;  " d=" M   913.60,   559.86  L   909.35,   555.61  L   905.10,   559.86  " /><text style="font-size:6px;font-family:'NSimSun';" transform="matrix(&st16;  896.72  551.91 )">1</text></g><g ewd:figtype="w2w" ewd:figID="49" ewd:code="OE1"><path style="stroke-width: 1.42 ;&st7;  " d=" M   939.09,   191.59  L   934.84,   195.84  L   930.59,   191.59  " /><path style="stroke-width: 1.42 ;&st7;  " d=" M   930.59,   188.19  L   934.84,   192.44  L   939.09,   188.19  " /><text style="font-size:6px;font-family:'NSimSun';" transform="matrix(&st16;  919.11  203.47 )">22</text></g><g ewd:figtype="gp" ewd:figID="68" ewd:code="EB"><path style="stroke-width: 0.85 ;&st7;  " d=" M   909.35,   697.25  L   909.35,   701.50  " /><path style="stroke-width: 0.85 ;&st7;  " d=" M   900.85,   701.50  L   917.85,   701.50  " /><path style="stroke-width: 0.85 ;&st7;  " d=" M   905.10,   704.33  L   913.60,   704.33  " /><path style="stroke-width: 0.85 ;&st7;  " d=" M   906.51,   707.17  L   912.18,   707.17  " /><path style="stroke-width: 0.85 ;&st7;  " d=" M   907.93,   710.00  L   910.76,   710.00  " /></g></svg>