<?xml version="1.0" encoding="utf-8"?>
<!DOCTYPE svg PUBLIC "-//W3C//DTD SVG 1.0//EN" "http://www.w3.org/TR/2001/REC-SVG-20010904/DTD/svg10.dtd"[
	<!ENTITY ns_flows "http://ns.adobe.com/Flows/1.0/">
	<!ENTITY ns_svg "http://www.w3.org/2000/svg">
	<!ENTITY ns_xlink "http://www.w3.org/1999/xlink">
	<!ENTITY st0 "font-size:7px;font-family:'NSimSun';adobe-font-script:japanese;">
	<!ENTITY st1 "font-size:6px;font-family:'NSimSun';">
	<!-- White fill  -->
	<!ENTITY st2 "fill:#FFFFFF;stroke:#000000; stroke-width:1.41;stroke-linecap:round;stroke-linejoin:round;">
	<!-- Yellow fill  -->
	<!ENTITY st3 "fill:#FFFFCC;stroke:#FFFFCC; stroke-width:0.1;stroke-linecap:round;stroke-linejoin:round;">
	<!-- Gray fill  -->
	<!ENTITY st4 "fill:#CCCCCC;stroke:#CCCCCC; stroke-width:0.1;stroke-linecap:round;stroke-linejoin:round;">
	<!-- Light-blue fill -->
	<!ENTITY st5 "fill:#CCECF4;stroke:#000000; stroke-width:1.133;stroke-linecap:round;stroke-linejoin:round;">
	<!ENTITY st6 "fill:none;stroke-linecap:butt; stroke-linejoin:round;">
	<!ENTITY st7 "fill:none;stroke:#000000;stroke-linecap:round;stroke-linejoin:round;">
	<!ENTITY st8 "enable-background:new    ;">
	<!-- Black fill -->
	<!ENTITY st9 "fill:#000000;stroke:#000000; stroke-linecap:round;stroke-linejoin:round;">
	<!-- SRS note   -->
	<!ENTITY st10 "font-size:9px;font-family:'NSimSun';">
	<!ENTITY st11 "font-size:9px;font-family:'NSimSun';">
	<!ENTITY st12 "font-size:6px;font-family:'NSimSun';">
	<!ENTITY st13 "fill:none;stroke:#ff0000;stroke-linecap:round;stroke-linejoin:round;">
	<!-- Yellow fill  -->
	<!ENTITY st14 "fill:#FFFF00;stroke:#FFFF00; stroke-width:0.1;stroke-linecap:round;stroke-linejoin:round;">
	<!ENTITY st15 "font-size:6px;font-family:'NSimSun';adobe-font-script:japanese;">
	<!ENTITY st16 "1.00 0.00 0.00 1.00">
	<!ENTITY st17 "0.00 -1.00 1.00 0.00">
	<!ENTITY st18 "font-size:6px;font-family:'NSimSun';">
	<!ENTITY st19 "font-size:9px;font-family:'NSimSun';">
	<!ENTITY st20 "font-size:6px;font-family:'NSimSun';adobe-font-script:japanese;">
	<!ENTITY st21 "font-size:7px;font-family:'NSimSun';adobe-font-script:japanese;">
	<!ATTLIST svg
		xmlns:ewd CDATA #FIXED "http://shcl.co.jp/ewd"
		xmlns:a CDATA #FIXED "http://ns.adobe.com/AdobeSVGViewerExtensions/3.0/"
		ewd:ver CDATA #IMPLIED
	>
	<!ATTLIST a
		ewd:lineID CDATA #IMPLIED
		ewd:groupID CDATA #IMPLIED
		ewd:figtype CDATA #IMPLIED
		ewd:code CDATA #IMPLIED
		ewd:figID CDATA #IMPLIED
		ewd:pinNo CDATA #IMPLIED
		ewd:comment CDATA #IMPLIED >
	<!ATTLIST g
		ewd:lineID CDATA #IMPLIED
		ewd:groupID CDATA #IMPLIED
		ewd:figtype CDATA #IMPLIED
		ewd:code CDATA #IMPLIED
		ewd:figID CDATA #IMPLIED
		ewd:pinNo CDATA #IMPLIED
		ewd:comment CDATA #IMPLIED >
	<!ATTLIST text
		ewd:textID CDATA #IMPLIED
		ewd:horAlign CDATA #IMPLIED >
	<!ATTLIST title
		ewd:textID CDATA #IMPLIED >
]>
<!-- Generator: Shintec Hozumi YS   -->
<svg onload="call_execInitLoadProc_svg('system')" style="overflow:visible;  enable-background:new 0 0 978.045 710.000" viewBox="0 0 985.844 710.000" height="710.000" width="985.844" xml:space="preserve" ewd:ver="2.1.2.6F" xmlns="&ns_svg;" xmlns:ewd="http://shcl.co.jp/ewd" xmlns:a="http://ns.adobe.com/AdobeSVGViewerExtensions/3.0/" xmlns:xlink="&ns_xlink;"><script type="text/javascript" xlink:href="../../../../../system/js/ewd/fig/svgfig.js" xmlns:xlink="http://www.w3.org/1999/xlink" />
<g id="ewd_top"><a ewd:figtype="rb" style="cursor:pointer;" ewd:code="FUSE19" ewd:figID="1"><path style="fill:#CCECF4;stroke:#000000; stroke-width:0; stroke-linecap:round;stroke-linejoin:round; " d=" M   199.72,    35.78  L   199.72,    78.27  L   225.21,    78.27  L   225.21,    35.78  L   199.72,    35.78 " /></a><a ewd:figtype="conn" style="cursor:pointer;" ewd:code="B29" ewd:figID="2"><path style="&st5;" d=" M   348.44,   401.22  L   441.93,   401.22  L   441.93,   452.21  L   348.44,   452.21  L   348.44,   401.22 " /><title ewd:textID="2">1 号点火线圈</title></a><a ewd:figtype="conn" style="cursor:pointer;" ewd:code="B39" ewd:figID="3"><path style="&st5;" d=" M   407.93,   112.27  L   977.34,   112.27  L   977.34,    61.28  L   407.93,    61.28  L   407.93,   112.27 " /><title>ECM</title></a><a ewd:figtype="conn" style="cursor:pointer;" ewd:code="B32" ewd:figID="4"><path style="&st5;" d=" M   883.85,   401.22  L   977.34,   401.22  L   977.34,   452.21  L   883.85,   452.21  L   883.85,   401.22 " /><title ewd:textID="5">4 号点火线圈</title></a><a ewd:figtype="conn" style="cursor:pointer;" ewd:code="B31" ewd:figID="5"><path style="&st5;" d=" M   730.88,   401.22  L   824.36,   401.22  L   824.36,   452.21  L   730.88,   452.21  L   730.88,   401.22 " /><title ewd:textID="4">3 号点火线圈</title></a><a ewd:figtype="conn" style="cursor:pointer;" ewd:code="B30" ewd:figID="6"><path style="&st5;" d=" M   569.40,   401.22  L   662.89,   401.22  L   662.89,   452.21  L   569.40,   452.21  L   569.40,   401.22 " /><title ewd:textID="3">2 号点火线圈</title></a><a ewd:figtype="rb" style="cursor:pointer;" ewd:code="1" ewd:figID="7"><path style="fill:#CCECF4;stroke:#000000; stroke-width:0; stroke-linecap:round;stroke-linejoin:round; " d=" M   220.96,   205.75  L   178.47,   205.75  L   178.47,   239.75  L   220.96,   239.75  L   220.96,   205.75 " /></a><a ewd:figtype="fuse" style="cursor:pointer;" ewd:code="FUSE19" ewd:figID="16"><path style="&st7; stroke-width:0;" d=" M   199.72,    35.78  L   199.72,    78.27  L   225.21,    78.27  L   225.21,    35.78  L   199.72,    35.78 " /></a><a style="cursor:pointer;" ewd:lineID="1"><path style="stroke:#00A0C6;stroke-width: 5.10 ;&st6;" d=" M   212.46,   273.74  L   212.46,   392.72  " /></a><a style="cursor:pointer;" ewd:lineID="2"><path style="stroke:#FF0000;stroke-width: 5.10 ;&st6;" d=" M   212.46,   103.77  L   212.46,   171.76  " /></a><a style="cursor:pointer;" ewd:lineID="3"><path style="stroke:#00A0C6;stroke-width: 5.10 ;&st6;" d=" M   305.95,   347.96  L   305.95,   401.22  L   220.96,   401.22  " /></a><a style="cursor:pointer;" ewd:lineID="4"><path style="stroke:#00A0C6;stroke-width: 5.10 ;&st6;" d=" M   305.95,   333.23  L   305.95,   188.75  L   577.90,   188.75  " /></a><a style="cursor:pointer;" ewd:lineID="5"><path style="stroke:#FFE600;stroke-width: 5.10 ;&st6;" d=" M   365.44,   452.21  L   365.44,   537.20  L   679.89,   537.20  " /></a><a style="cursor:pointer;" ewd:lineID="6"><path style="stroke:#00A0C6;stroke-width: 5.10 ;&st6;" d=" M   365.44,   401.22  L   365.44,   205.75  L   569.40,   205.75  L   580.39,   194.77  " /></a><a style="cursor:pointer;" ewd:lineID="7"><path style="stroke:#FF0000;stroke-width: 5.10 ;&st6;" d=" M   424.93,   401.22  L   424.93,   121.33  " /></a><a style="cursor:pointer;" ewd:lineID="8"><path style="stroke:#FFE600;stroke-width: 5.10 ;&st6;" d=" M   586.40,   452.21  L   586.40,   520.20  L   671.39,   520.20  L   682.37,   531.18  " /></a><a style="cursor:pointer;" ewd:lineID="9"><path style="stroke:#00A0C6;stroke-width: 5.10 ;&st6;" d=" M   586.40,   197.25  L   586.40,   401.22  " /></a><a style="cursor:pointer;" ewd:lineID="10"><path style="stroke:#00A0C6;stroke-width: 5.10 ;&st6;" d=" M   586.40,   180.26  L   586.40,   163.26  L   900.85,   163.26  L   900.85,   401.22  " /></a><a style="cursor:pointer;" ewd:lineID="11"><path style="stroke:#000000;stroke-width: 5.10 ;&st6;" d=" M   637.39,   588.19  L   424.93,   588.19  L   424.93,   452.21  " /><path style="stroke:#FFFFFF;stroke-width: 4.53 ;&st6;" d=" M   637.39,   588.19  L   424.93,   588.19  L   424.93,   452.21  " /><path style="stroke:#000000;stroke-width: 1.13 ;&st6;" d=" M   637.39,   588.19  L   424.93,   588.19  L   424.93,   452.21  " /></a><a style="cursor:pointer;" ewd:lineID="12"><path style="stroke:#000000;stroke-width: 5.10 ;&st6;" d=" M   645.89,   681.67  L   645.89,   596.69  " /><path style="stroke:#FFFFFF;stroke-width: 4.53 ;&st6;" d=" M   645.89,   681.67  L   645.89,   596.69  " /><path style="stroke:#000000;stroke-width: 1.13 ;&st6;" d=" M   645.89,   681.67  L   645.89,   596.69  " /></a><a style="cursor:pointer;" ewd:lineID="13"><path style="stroke:#000000;stroke-width: 5.10 ;&st6;" d=" M   645.89,   579.69  L   645.89,   452.21  " /><path style="stroke:#FFFFFF;stroke-width: 4.53 ;&st6;" d=" M   645.89,   579.69  L   645.89,   452.21  " /><path style="stroke:#000000;stroke-width: 1.13 ;&st6;" d=" M   645.89,   579.69  L   645.89,   452.21  " /></a><a style="cursor:pointer;" ewd:lineID="14"><path style="stroke:#000000;stroke-width: 5.10 ;&st6;" d=" M   645.89,   401.22  L   645.89,   121.33  " /></a><a style="cursor:pointer;" ewd:lineID="15"><path style="stroke:#000000;stroke-width: 5.10 ;&st6;" d=" M   654.39,   588.19  L   960.34,   588.19  L   960.34,   452.21  " /><path style="stroke:#FFFFFF;stroke-width: 4.53 ;&st6;" d=" M   654.39,   588.19  L   960.34,   588.19  L   960.34,   452.21  " /><path style="stroke:#000000;stroke-width: 1.13 ;&st6;" d=" M   654.39,   588.19  L   960.34,   588.19  L   960.34,   452.21  " /></a><a style="cursor:pointer;" ewd:lineID="16"><path style="stroke:#FFE600;stroke-width: 5.10 ;&st6;" d=" M   688.38,   528.70  L   688.38,   121.33  " /></a><a style="cursor:pointer;" ewd:lineID="17"><path style="stroke:#FFE600;stroke-width: 5.10 ;&st6;" d=" M   696.88,   537.20  L   900.85,   537.20  L   900.85,   452.21  " /></a><a style="cursor:pointer;" ewd:lineID="18"><path style="stroke:#FFE600;stroke-width: 5.10 ;&st6;" d=" M   747.88,   452.21  L   747.88,   520.20  L   705.38,   520.20  L   694.40,   531.18  " /></a><a style="cursor:pointer;" ewd:lineID="19"><path style="stroke:#00A0C6;stroke-width: 5.10 ;&st6;" d=" M   747.88,   401.22  L   747.88,   188.75  L   594.90,   188.75  " /></a><a style="cursor:pointer;" ewd:lineID="20"><path style="stroke:#000000;stroke-width: 5.10 ;&st6;" d=" M   807.37,   452.21  L   807.37,   571.19  L   662.89,   571.19  L   651.91,   582.17  " /><path style="stroke:#FFFFFF;stroke-width: 4.53 ;&st6;" d=" M   807.37,   452.21  L   807.37,   571.19  L   662.89,   571.19  L   651.91,   582.17  " /><path style="stroke:#000000;stroke-width: 1.13 ;&st6;" d=" M   807.37,   452.21  L   807.37,   571.19  L   662.89,   571.19  L   651.91,   582.17  " /></a><a style="cursor:pointer;" ewd:lineID="21"><path style="stroke:#008837;stroke-width: 5.10 ;&st6;" d=" M   807.37,   401.22  L   807.37,   121.33  " /></a><a style="cursor:pointer;" ewd:lineID="22"> d=" M   960.34,   401.22  L   960.34,   121.33 
	
		<path style="stroke:#000000;stroke-width: 5.10 ;&st6;" d=" M   960.34,   401.22  L   960.34,   121.33  " /><path style="stroke:#FFFFFF;stroke-width: 4.53 ;&st6;" d=" M   960.34,   401.22  L   960.34,   121.33  " /></a><a ewd:figtype="w2w" style="cursor:pointer;" ewd:pinNo="5" ewd:code="BA2" ewd:figID="10"><path style="&st2;" d=" M   314.45,   333.23  L   297.45,   333.23  L   297.45,   341.73  L   314.45,   341.73  L   314.45,   333.23 " /><text style="&st8;" transform="matrix(&st16;  300.57  339.6 )"><tspan x="0" style="font-size:6px;font-family:'NSimSun';" y="0">BA2</tspan></text></a><a ewd:figtype="gp" style="cursor:pointer;" ewd:code="BA" ewd:figID="11"><path style="&st2;" d=" M   635.27,   681.67  L   656.52,   681.67  L   645.89,   697.25  L   635.27,   681.67 " /><text style="&st8;" transform="matrix(&st16;  642.02  689.46 )"><tspan x="0" style="font-size:6px;font-family:'NSimSun';" y="0">BA</tspan></text></a><a ewd:figtype="sp" style="cursor:pointer;" ewd:code="SP5" ewd:figID="12"><path style="&st2;" d=" M   208.22,   392.72  L   216.71,   392.72  L   220.96,   396.97  L   220.96,   405.47  L   216.71,   409.72  L   208.22,   409.72  L   203.97,   405.47  L   203.97,   396.97  L   208.22,   392.72 " /></a><a ewd:figtype="sp" style="cursor:pointer;" ewd:code="SP27" ewd:figID="13"><path style="&st2;" d=" M   582.15,   180.26  L   590.65,   180.26  L   594.90,   184.50  L   594.90,   193.00  L   590.65,   197.25  L   582.15,   197.25  L   577.90,   193.00  L   577.90,   184.50  L   582.15,   180.26 " /></a><a ewd:figtype="sp" style="cursor:pointer;" ewd:code="SP24" ewd:figID="14"><path style="&st2;" d=" M   641.64,   579.69  L   650.14,   579.69  L   654.39,   583.94  L   654.39,   592.44  L   650.14,   596.69  L   641.64,   596.69  L   637.39,   592.44  L   637.39,   583.94  L   641.64,   579.69 " /></a><a ewd:figtype="sp" style="cursor:pointer;" ewd:code="SP26" ewd:figID="15"><path style="&st2;" d=" M   684.14,   528.70  L   692.63,   528.70  L   696.88,   532.95  L   696.88,   541.44  L   692.63,   545.69  L   684.14,   545.69  L   679.89,   541.44  L   679.89,   532.95  L   684.14,   528.70 " /></a></g></svg>