<?xml version="1.0" encoding="utf-8"?>
<!DOCTYPE svg PUBLIC "-//W3C//DTD SVG 1.0//EN" "http://www.w3.org/TR/2001/REC-SVG-20010904/DTD/svg10.dtd"[
	<!ENTITY ns_flows "http://ns.adobe.com/Flows/1.0/">
	<!ENTITY ns_svg "http://www.w3.org/2000/svg">
	<!ENTITY ns_xlink "http://www.w3.org/1999/xlink">
	<!ENTITY st0 "font-size:7px;font-family:'NSimSun';adobe-font-script:japanese;">
	<!ENTITY st1 "font-size:6px;font-family:'NSimSun';">
	<!-- White fill  -->
	<!ENTITY st2 "fill:#FFFFFF;stroke:#000000; stroke-width:1.41;stroke-linecap:round;stroke-linejoin:round;">
	<!-- Yellow fill  -->
	<!ENTITY st3 "fill:#FFFFCC;stroke:#FFFFCC; stroke-width:0.1;stroke-linecap:round;stroke-linejoin:round;">
	<!-- Gray fill  -->
	<!ENTITY st4 "fill:#CCCCCC;stroke:#CCCCCC; stroke-width:0.1;stroke-linecap:round;stroke-linejoin:round;">
	<!-- Light-blue fill -->
	<!ENTITY st5 "fill:#CCECF4;stroke:#000000; stroke-width:1.133;stroke-linecap:round;stroke-linejoin:round;">
	<!ENTITY st6 "fill:none;stroke-linecap:butt; stroke-linejoin:round;">
	<!ENTITY st7 "fill:none;stroke:#000000;stroke-linecap:round;stroke-linejoin:round;">
	<!ENTITY st8 "enable-background:new    ;">
	<!-- Black fill -->
	<!ENTITY st9 "fill:#000000;stroke:#000000; stroke-linecap:round;stroke-linejoin:round;">
	<!-- SRS note   -->
	<!ENTITY st10 "font-size:9px;font-family:'NSimSun';">
	<!ENTITY st11 "font-size:9px;font-family:'NSimSun';">
	<!ENTITY st12 "font-size:6px;font-family:'NSimSun';">
	<!ENTITY st13 "fill:none;stroke:#ff0000;stroke-linecap:round;stroke-linejoin:round;">
	<!-- Yellow fill  -->
	<!ENTITY st14 "fill:#FFFF00;stroke:#FFFF00; stroke-width:0.1;stroke-linecap:round;stroke-linejoin:round;">
	<!ENTITY st15 "font-size:6px;font-family:'NSimSun';adobe-font-script:japanese;">
	<!ENTITY st16 "1.00 0.00 0.00 1.00">
	<!ENTITY st17 "0.00 -1.00 1.00 0.00">
	<!ENTITY st18 "font-size:6px;font-family:'NSimSun';">
	<!ENTITY st19 "font-size:9px;font-family:'NSimSun';">
	<!ENTITY st20 "font-size:6px;font-family:'NSimSun';adobe-font-script:japanese;">
	<!ENTITY st21 "font-size:7px;font-family:'NSimSun';adobe-font-script:japanese;">
	<!ATTLIST svg
		xmlns:ewd CDATA #FIXED "http://shcl.co.jp/ewd"
		xmlns:a CDATA #FIXED "http://ns.adobe.com/AdobeSVGViewerExtensions/3.0/"
		ewd:ver CDATA #IMPLIED
	>
	<!ATTLIST a
		ewd:lineID CDATA #IMPLIED
		ewd:groupID CDATA #IMPLIED
		ewd:figtype CDATA #IMPLIED
		ewd:code CDATA #IMPLIED
		ewd:figID CDATA #IMPLIED
		ewd:pinNo CDATA #IMPLIED
		ewd:comment CDATA #IMPLIED >
	<!ATTLIST g
		ewd:lineID CDATA #IMPLIED
		ewd:groupID CDATA #IMPLIED
		ewd:figtype CDATA #IMPLIED
		ewd:code CDATA #IMPLIED
		ewd:figID CDATA #IMPLIED
		ewd:pinNo CDATA #IMPLIED
		ewd:comment CDATA #IMPLIED >
	<!ATTLIST text
		ewd:textID CDATA #IMPLIED
		ewd:horAlign CDATA #IMPLIED >
	<!ATTLIST title
		ewd:textID CDATA #IMPLIED >
]>
<!-- Generator: Shintec Hozumi YS   -->
<svg onload="call_execInitLoadProc_svg('system')" style="overflow:visible;  enable-background:new 0 0 1929.886 710.000" viewBox="0 0 1937.684 710.000" height="710.000" width="1937.684" xml:space="preserve" ewd:ver="2.1.2.6F" xmlns="&ns_svg;" xmlns:ewd="http://shcl.co.jp/ewd" xmlns:a="http://ns.adobe.com/AdobeSVGViewerExtensions/3.0/" xmlns:xlink="&ns_xlink;"><script type="text/javascript" xlink:href="../../../../../system/js/ewd/fig/svgfig.js" xmlns:xlink="http://www.w3.org/1999/xlink" />
<g id="ewd_top"><a ewd:figtype="conn" style="cursor:pointer;" ewd:code="E71" ewd:figID="1"><path style="&st5;" d=" M   798.87,   537.20  L   815.86,   537.20  L   815.86,   554.19  L   798.87,   554.19  L   798.87,   537.20 " /><title ewd:textID="12">4 号接线连接器</title></a><a ewd:figtype="conn" style="cursor:pointer;" ewd:code="E10" ewd:figID="2"><path style="&st5;" d=" M   815.86,   392.72  L   815.86,   358.73  L   798.87,   358.73  L   798.87,   392.72  L   815.86,   392.72 " /><title ewd:textID="13">未锁警告开关总成</title></a><a ewd:figtype="rb" style="cursor:pointer;" ewd:code="FUSE6" ewd:figID="3"><path style="fill:#CCECF4;stroke:#000000; stroke-width:0; stroke-linecap:round;stroke-linejoin:round; " d=" M  1797.45,    35.78  L  1797.45,    78.27  L  1822.95,    78.27  L  1822.95,    35.78  L  1797.45,    35.78 " /></a><a ewd:figtype="conn" style="cursor:pointer;" ewd:code="E55" ewd:figID="4"><path style="&st5;" d=" M  1665.72,   299.24  L  1665.72,   503.20  L  1929.18,   503.20  L  1929.18,   299.24  L  1665.72,   299.24 " /><title ewd:textID="7">组合仪表总成</title></a><a ewd:figtype="rb" style="cursor:pointer;" ewd:code="FUSE5" ewd:figID="5"><path style="fill:#CCECF4;stroke:#000000; stroke-width:0; stroke-linecap:round;stroke-linejoin:round; " d=" M    29.75,    35.78  L    29.75,    78.27  L    55.24,    78.27  L    55.24,    35.78  L    29.75,    35.78 " /></a><a ewd:figtype="conn" style="cursor:pointer;" ewd:code="L1" ewd:figID="6"><path style="&st5;" d=" M   688.38,   392.72  L   688.38,   358.73  L   671.39,   358.73  L   671.39,   392.72  L   688.38,   392.72 " /><title ewd:textID="8">左前车门门控灯开关总成</title></a><a ewd:figtype="rb" style="cursor:pointer;" ewd:code="FUSE6" ewd:figID="7"><path style="fill:#CCECF4;stroke:#000000; stroke-width:0; stroke-linecap:round;stroke-linejoin:round; " d=" M  1245.04,    35.78  L  1245.04,    78.27  L  1270.54,    78.27  L  1270.54,    35.78  L  1245.04,    35.78 " /></a><a ewd:figtype="conn" style="cursor:pointer;" ewd:code="E55" ewd:figID="8"><path style="&st5;" d=" M  1206.80,   299.24  L  1206.80,   528.70  L  1444.76,   528.70  L  1444.76,   299.24  L  1206.80,   299.24 " /><title ewd:textID="7">组合仪表总成</title></a><a ewd:figtype="conn" style="cursor:pointer;" ewd:code="A39" ewd:figID="9"><path style="&st5;" d=" M   968.84,   282.24  L   968.84,   265.24  L   883.85,   265.24  L   883.85,   282.24  L   968.84,   282.24 " /><title ewd:textID="10">1 号 CAN 接线连接器</title></a><a ewd:figtype="conn" style="cursor:pointer;" ewd:code="E74" ewd:figID="10"><path style="&st5;" d=" M   968.84,   477.71  L   968.84,   460.71  L   883.85,   460.71  L   883.85,   477.71  L   968.84,   477.71 " /><title ewd:textID="11">2 号 CAN 接线连接器</title></a><a ewd:figtype="conn" style="cursor:pointer;" ewd:code="E36" ewd:figID="11"><path style="&st5;" d=" M   297.45,    35.78  L   297.45,    86.77  L   977.34,    86.77  L   977.34,    35.78  L   297.45,    35.78 " /><title ewd:textID="9">主车身 ECU</title></a><a ewd:figtype="jb" style="cursor:pointer;" ewd:code="3" ewd:figID="15"><path style="&st4; " d=" M   229.46,   129.26  L   416.43,   129.26  L   416.43,    86.77  L   288.95,    86.77  L   288.95,    35.78  L   229.46,    35.78  L   229.46,   129.26  " /></a><a ewd:figtype="jb" style="cursor:pointer;" ewd:code="3" ewd:figID="16"><path style="&st4; " d=" M  1240.79,   171.76  L  1240.79,   214.25  L  1266.29,   214.25  L  1266.29,   171.76  L  1240.79,   171.76  " /></a><a ewd:figtype="jb" style="cursor:pointer;" ewd:code="3" ewd:figID="17"><path style="&st4; " d=" M  1716.71,    35.78  L  1716.71,   103.77  L  1776.20,   103.77  L  1776.20,    35.78  L  1716.71,    35.78  " /></a><a ewd:figtype="jb" style="cursor:pointer;" ewd:code="3" ewd:figID="18"><path style="&st4; " d=" M   118.98,   112.27  L   178.47,   112.27  L   178.47,    35.78  L   118.98,    35.78  L   118.98,   112.27  " /></a><a ewd:figtype="jb" style="cursor:pointer;" ewd:code="3" ewd:figID="19"><path style="&st4; " d=" M   577.90,    86.77  L   688.38,    86.77  L   688.38,   129.26  L   577.90,   129.26  L   577.90,    86.77  " /></a><a ewd:figtype="jb" style="cursor:pointer;" ewd:code="3" ewd:figID="20"><path style="&st4; " d=" M  1317.28,    35.78  L  1317.28,   103.77  L  1385.27,   103.77  L  1385.27,    35.78  L  1317.28,    35.78  " /></a><a ewd:figtype="jb" style="cursor:pointer;" ewd:code="3" ewd:figID="21"><path style="&st4; " d=" M  1793.20,   171.76  L  1793.20,   214.25  L  1818.70,   214.25  L  1818.70,   171.76  L  1793.20,   171.76  " /></a><a ewd:figtype="fuse" style="cursor:pointer;" ewd:code="FUSE5" ewd:figID="33"><path style="&st7; stroke-width:0;" d=" M    29.75,    35.78  L    29.75,    78.27  L    55.24,    78.27  L    55.24,    35.78  L    29.75,    35.78 " /></a><a ewd:figtype="fuse" style="cursor:pointer;" ewd:code="FUSE47" ewd:figID="34"><path style="&st7; stroke-width:0;" d=" M   123.23,    35.78  L   123.23,    78.27  L   148.73,    78.27  L   148.73,    35.78  L   123.23,    35.78 " /></a><a ewd:figtype="fuse" style="cursor:pointer;" ewd:code="FUSE43" ewd:figID="35"><path style="&st7; stroke-width:0;" d=" M   233.71,    35.78  L   233.71,    78.27  L   259.21,    78.27  L   259.21,    35.78  L   233.71,    35.78 " /></a><a ewd:figtype="fuse" style="cursor:pointer;" ewd:code="FUSE6" ewd:figID="36"><path style="&st7; stroke-width:0;" d=" M  1245.04,    35.78  L  1245.04,    78.27  L  1270.54,    78.27  L  1270.54,    35.78  L  1245.04,    35.78 " /></a><a ewd:figtype="fuse" style="cursor:pointer;" ewd:code="FUSE39" ewd:figID="37"><path style="&st7; stroke-width:0;" d=" M  1321.53,    35.78  L  1321.53,    78.27  L  1347.02,    78.27  L  1347.02,    35.78  L  1321.53,    35.78 " /></a><a ewd:figtype="fuse" style="cursor:pointer;" ewd:code="FUSE39" ewd:figID="38"><path style="&st7; stroke-width:0;" d=" M  1720.96,    35.78  L  1720.96,    78.27  L  1746.46,    78.27  L  1746.46,    35.78  L  1720.96,    35.78 " /></a><a ewd:figtype="fuse" style="cursor:pointer;" ewd:code="FUSE6" ewd:figID="39"><path style="&st7; stroke-width:0;" d=" M  1797.45,    35.78  L  1797.45,    78.27  L  1822.95,    78.27  L  1822.95,    35.78  L  1797.45,    35.78 " /></a><a style="cursor:pointer;" ewd:lineID="1"><path style="stroke:#008837;stroke-width: 5.10 ;&st6;" d=" M    42.49,   103.77  L    42.49,   222.75  L   407.93,   222.75  L   407.93,   129.26  " /></a><a style="cursor:pointer;" ewd:lineID="2"><path style="stroke:#00A0C6;stroke-width: 5.10 ;&st6;" d=" M   135.98,   112.27  L   135.98,   197.25  L   356.94,   197.25  L   356.94,   129.26  " /></a><a style="cursor:pointer;" ewd:lineID="3"><path style="stroke:#000000;stroke-width: 5.10 ;&st6;" d=" M   594.90,   129.26  L   594.90,   681.67  " /><path style="stroke:#FFFFFF;stroke-width: 4.53 ;&st6;" d=" M   594.90,   129.26  L   594.90,   681.67  " /><path style="stroke:#000000;stroke-width: 1.13 ;&st6;" d=" M   594.90,   129.26  L   594.90,   681.67  " /></a><a style="cursor:pointer;" ewd:lineID="4"><path style="stroke:#000000;stroke-width: 5.10 ;&st6;" d=" M   637.39,   129.26  L   637.39,   681.67  " /><path style="stroke:#FFFFFF;stroke-width: 4.53 ;&st6;" d=" M   637.39,   129.26  L   637.39,   681.67  " /><path style="stroke:#000000;stroke-width: 1.13 ;&st6;" d=" M   637.39,   129.26  L   637.39,   681.67  " /></a><a ewd:comment="1" style="cursor:pointer;" ewd:lineID="5"> d=" M   679.89,   358.73  L   679.89,   350.23  L   696.88,   333.23  L   713.88,   333.23  L   713.88,   248.24 
	
		<path style="stroke:#000000;stroke-width: 5.10 ;&st6;" d=" M   679.89,   358.73  L   679.89,   350.23  L   696.88,   333.23  L   713.88,   333.23  L   713.88,   248.24  " /><path style="stroke:#FFFFFF;stroke-width: 4.53 ;&st6;" d=" M   679.89,   358.73  L   679.89,   350.23  L   696.88,   333.23  L   713.88,   333.23  L   713.88,   248.24  " /></a><a ewd:comment="2" style="cursor:pointer;" ewd:lineID="6"> d=" M   679.89,   129.26  L   679.89,   358.73 
	
		<path style="stroke:#000000;stroke-width: 5.10 ;&st6;" d=" M   679.89,   129.26  L   679.89,   358.73  " /><path style="stroke:#FFFFFF;stroke-width: 4.53 ;&st6;" d=" M   679.89,   129.26  L   679.89,   358.73  " /></a><a ewd:comment="1" style="cursor:pointer;" ewd:lineID="7"> d=" M   679.89,   129.26  L   679.89,   137.76  L   688.38,   146.26  L   713.88,   146.26  L   713.88,   231.25 
	
		<path style="stroke:#000000;stroke-width: 5.10 ;&st6;" d=" M   679.89,   129.26  L   679.89,   137.76  L   688.38,   146.26  L   713.88,   146.26  L   713.88,   231.25  " /><path style="stroke:#FFFFFF;stroke-width: 4.53 ;&st6;" d=" M   679.89,   129.26  L   679.89,   137.76  L   688.38,   146.26  L   713.88,   146.26  L   713.88,   231.25  " /></a><a style="cursor:pointer;" ewd:lineID="8"><path style="stroke:#000000;stroke-width: 5.10 ;&st6;" d=" M   807.37,   554.19  L   807.37,   681.67  " /><path style="stroke:#FFFFFF;stroke-width: 4.53 ;&st6;" d=" M   807.37,   554.19  L   807.37,   681.67  " /><path style="stroke:#000000;stroke-width: 1.13 ;&st6;" d=" M   807.37,   554.19  L   807.37,   681.67  " /></a><a style="cursor:pointer;" ewd:lineID="9"><path style="stroke:#000000;stroke-width: 5.10 ;&st6;" d=" M   807.37,   392.72  L   807.37,   537.20  " /><path style="stroke:#FFFFFF;stroke-width: 4.53 ;&st6;" d=" M   807.37,   392.72  L   807.37,   537.20  " /><path style="stroke:#000000;stroke-width: 1.13 ;&st6;" d=" M   807.37,   392.72  L   807.37,   537.20  " /></a><a style="cursor:pointer;" ewd:lineID="10"><path style="stroke:#56077D;stroke-width: 5.10 ;&st6;" d=" M   807.37,   248.24  L   807.37,   358.73  " /></a><a style="cursor:pointer;" ewd:lineID="11"><path style="stroke:#56077D;stroke-width: 5.10 ;&st6;" d=" M   807.37,    95.84  L   807.37,   231.25  " /></a><a style="cursor:pointer;" ewd:lineID="12"><path style="stroke:#00A0C6;stroke-width: 5.10 ;&st6;" d=" M   892.35,   373.46  L   892.35,   460.71  " /></a><a style="cursor:pointer;" ewd:lineID="13"><path style="stroke:#00A0C6;stroke-width: 5.10 ;&st6;" d=" M   892.35,   282.24  L   892.35,   358.73  " /></a><a style="cursor:pointer;" ewd:lineID="14"><path style="stroke:#008837;stroke-width: 5.10 ;&st6;" d=" M   892.35,   205.75  L   892.35,   265.24  " /></a><a style="cursor:pointer;" ewd:lineID="15"><path style="stroke:#008837;stroke-width: 5.10 ;&st6;" d=" M   892.35,    95.84  L   892.35,   191.02  " /></a><a style="cursor:pointer;" ewd:lineID="16"> d=" M   960.34,   460.71  L   960.34,   373.74 
	
		<path style="stroke:#000000;stroke-width: 5.10 ;&st6;" d=" M   960.34,   460.71  L   960.34,   373.74  " /><path style="stroke:#FFFFFF;stroke-width: 4.53 ;&st6;" d=" M   960.34,   460.71  L   960.34,   373.74  " /></a><a style="cursor:pointer;" ewd:lineID="17"> d=" M   960.34,   358.73  L   960.34,   282.24 
	
		<path style="stroke:#000000;stroke-width: 5.10 ;&st6;" d=" M   960.34,   358.73  L   960.34,   282.24  " /><path style="stroke:#FFFFFF;stroke-width: 4.53 ;&st6;" d=" M   960.34,   358.73  L   960.34,   282.24  " /></a><a style="cursor:pointer;" ewd:lineID="18"> d=" M   960.34,   205.75  L   960.34,   265.24 
	
		<path style="stroke:#000000;stroke-width: 5.10 ;&st6;" d=" M   960.34,   205.75  L   960.34,   265.24  " /><path style="stroke:#FFFFFF;stroke-width: 4.53 ;&st6;" d=" M   960.34,   205.75  L   960.34,   265.24  " /></a><a style="cursor:pointer;" ewd:lineID="19"> d=" M   960.34,    95.84  L   960.34,   190.74 
	
		<path style="stroke:#000000;stroke-width: 5.10 ;&st6;" d=" M   960.34,    95.84  L   960.34,   190.74  " /><path style="stroke:#FFFFFF;stroke-width: 4.53 ;&st6;" d=" M   960.34,    95.84  L   960.34,   190.74  " /></a><a ewd:comment="4" style="cursor:pointer;" ewd:lineID="20"> d=" M  1257.79,   537.76  L  1257.79,   613.68  L   985.84,   613.68  L   985.84,   494.70  L   968.84,   494.70  L   960.34,   486.20  L   960.34,   477.71 
	
		<path style="stroke:#000000;stroke-width: 5.10 ;&st6;" d=" M  1257.79,   537.76  L  1257.79,   613.68  L   985.84,   613.68  L   985.84,   494.70  L   968.84,   494.70  L   960.34,   486.20  L   960.34,   477.71  " /><path style="stroke:#FFFFFF;stroke-width: 4.53 ;&st6;" d=" M  1257.79,   537.76  L  1257.79,   613.68  L   985.84,   613.68  L   985.84,   494.70  L   968.84,   494.70  L   960.34,   486.20  L   960.34,   477.71  " /></a><a ewd:comment="4" style="cursor:pointer;" ewd:lineID="21"> d=" M  1257.79,   214.25  L  1257.79,   290.17 
	
		<path style="stroke:#000000;stroke-width: 5.10 ;&st6;" d=" M  1257.79,   214.25  L  1257.79,   290.17  " /><path style="stroke:#FFFFFF;stroke-width: 4.53 ;&st6;" d=" M  1257.79,   214.25  L  1257.79,   290.17  " /></a><a ewd:comment="4" style="cursor:pointer;" ewd:lineID="22"> d=" M  1257.79,   103.77  L  1257.79,   171.76 
	
		<path style="stroke:#000000;stroke-width: 5.10 ;&st6;" d=" M  1257.79,   103.77  L  1257.79,   171.76  " /><path style="stroke:#FFFFFF;stroke-width: 4.53 ;&st6;" d=" M  1257.79,   103.77  L  1257.79,   171.76  " /></a><a ewd:comment="4" style="cursor:pointer;" ewd:lineID="23"><path style="stroke:#7FC97F;stroke-width: 5.10 ;&st6;" d=" M  1325.78,   537.76  L  1325.78,   630.68  L   917.85,   630.68  L   917.85,   494.70  L   900.85,   494.70  L   892.35,   486.20  L   892.35,   477.71  " /></a><a ewd:comment="4" style="cursor:pointer;" ewd:lineID="24"><path style="stroke:#F668B2;stroke-width: 5.10 ;&st6;" d=" M  1334.28,   103.77  L  1334.28,   290.17  " /></a><a ewd:comment="4" style="cursor:pointer;" ewd:lineID="25"><path style="stroke:#992903;stroke-width: 5.10 ;&st6;" d=" M  1376.77,   537.76  L  1376.77,   681.67  " /></a><a ewd:comment="3" style="cursor:pointer;" ewd:lineID="26"><path style="stroke:#F668B2;stroke-width: 5.10 ;&st6;" d=" M  1733.71,   103.77  L  1733.71,   290.17  " /></a><a ewd:comment="3" style="cursor:pointer;" ewd:lineID="27"> d=" M  1810.20,   214.25  L  1810.20,   290.17 
	
		<path style="stroke:#000000;stroke-width: 5.10 ;&st6;" d=" M  1810.20,   214.25  L  1810.20,   290.17  " /><path style="stroke:#FFFFFF;stroke-width: 4.53 ;&st6;" d=" M  1810.20,   214.25  L  1810.20,   290.17  " /></a><a ewd:comment="3" style="cursor:pointer;" ewd:lineID="28"> d=" M  1810.20,   103.77  L  1810.20,   171.76 
	
		<path style="stroke:#000000;stroke-width: 5.10 ;&st6;" d=" M  1810.20,   103.77  L  1810.20,   171.76  " /><path style="stroke:#FFFFFF;stroke-width: 4.53 ;&st6;" d=" M  1810.20,   103.77  L  1810.20,   171.76  " /></a><a ewd:comment="3" style="cursor:pointer;" ewd:lineID="29"> d=" M  1818.70,   512.27  L  1818.70,   647.68  L   960.34,   647.68  L   960.34,   477.71 
	
		<path style="stroke:#000000;stroke-width: 5.10 ;&st6;" d=" M  1818.70,   512.27  L  1818.70,   647.68  L   960.34,   647.68  L   960.34,   477.71  " /><path style="stroke:#FFFFFF;stroke-width: 4.53 ;&st6;" d=" M  1818.70,   512.27  L  1818.70,   647.68  L   960.34,   647.68  L   960.34,   477.71  " /></a><a ewd:comment="3" style="cursor:pointer;" ewd:lineID="30"><path style="stroke:#7FC97F;stroke-width: 5.10 ;&st6;" d=" M  1852.69,   512.27  L  1852.69,   664.67  L   892.35,   664.67  L   892.35,   477.71  " /></a><a ewd:comment="3" style="cursor:pointer;" ewd:lineID="31"><path style="stroke:#992903;stroke-width: 5.10 ;&st6;" d=" M  1903.68,   512.27  L  1903.68,   681.67  " /></a><a ewd:figtype="w2w" style="cursor:pointer;" ewd:pinNo="4" ewd:code="AE4" ewd:figID="22"><path style="&st2;" d=" M   900.85,   358.73  L   883.85,   358.73  L   883.85,   367.22  L   900.85,   367.22  L   900.85,   358.73 " /><text style="&st8;" transform="matrix(&st16;  887.05  365.09 )"><tspan x="0" style="font-size:6px;font-family:'NSimSun';" y="0">AE4</tspan></text></a><a ewd:figtype="w2w" style="cursor:pointer;" ewd:pinNo="4" ewd:code="AE2" ewd:figID="23"><path style="&st2;" d=" M   900.85,   197.25  L   883.85,   197.25  L   883.85,   205.75  L   900.85,   205.75  L   900.85,   197.25 " /><text style="&st8;" transform="matrix(&st16;  887.05  203.62 )"><tspan x="0" style="font-size:6px;font-family:'NSimSun';" y="0">AE2</tspan></text></a><a ewd:figtype="w2w" style="cursor:pointer;" ewd:pinNo="3" ewd:code="AE4" ewd:figID="24"><path style="&st2;" d=" M   968.84,   358.73  L   951.84,   358.73  L   951.84,   367.22  L   968.84,   367.22  L   968.84,   358.73 " /><text style="&st8;" transform="matrix(&st16;  955.03  365.09 )"><tspan x="0" style="font-size:6px;font-family:'NSimSun';" y="0">AE4</tspan></text></a><a ewd:figtype="w2w" style="cursor:pointer;" ewd:pinNo="5" ewd:code="AE2" ewd:figID="25"><path style="&st2;" d=" M   968.84,   197.25  L   951.84,   197.25  L   951.84,   205.75  L   968.84,   205.75  L   968.84,   197.25 " /><text style="&st8;" transform="matrix(&st16;  955.03  203.62 )"><tspan x="0" style="font-size:6px;font-family:'NSimSun';" y="0">AE2</tspan></text></a><a ewd:figtype="gp" style="cursor:pointer;" ewd:code="EA" ewd:figID="26"><path style="&st2;" d=" M   584.28,   681.67  L   605.52,   681.67  L   594.90,   697.25  L   584.28,   681.67 " /><text style="&st8;" transform="matrix(&st16;  591.1  689.46 )"><tspan x="0" style="font-size:6px;font-family:'NSimSun';" y="0">EA</tspan></text></a><a ewd:figtype="gp" style="cursor:pointer;" ewd:code="EB" ewd:figID="27"><path style="&st2;" d=" M   626.77,   681.67  L   648.02,   681.67  L   637.39,   697.25  L   626.77,   681.67 " /><text style="&st8;" transform="matrix(&st16;  633.71  689.46 )"><tspan x="0" style="font-size:6px;font-family:'NSimSun';" y="0">EB</tspan></text></a><a ewd:figtype="gp" style="cursor:pointer;" ewd:code="ED" ewd:figID="28"><path style="&st2;" d=" M   796.74,   681.67  L   817.99,   681.67  L   807.37,   697.25  L   796.74,   681.67 " /><text style="&st8;" transform="matrix(&st16;  803.49  689.46 )"><tspan x="0" style="font-size:6px;font-family:'NSimSun';" y="0">ED</tspan></text></a><a ewd:figtype="gp" style="cursor:pointer;" ewd:code="ED" ewd:figID="29"><path style="&st2;" d=" M  1366.15,   681.67  L  1387.39,   681.67  L  1376.77,   697.25  L  1366.15,   681.67 " /><text style="&st8;" transform="matrix(&st16;  1372.89  689.46 )"><tspan x="0" style="font-size:6px;font-family:'NSimSun';" y="0">ED</tspan></text></a><a ewd:figtype="gp" style="cursor:pointer;" ewd:code="ED" ewd:figID="30"><path style="&st2;" d=" M  1893.06,   681.67  L  1914.31,   681.67  L  1903.68,   697.25  L  1893.06,   681.67 " /><text style="&st8;" transform="matrix(&st16;  1899.81  689.46 )"><tspan x="0" style="font-size:6px;font-family:'NSimSun';" y="0">ED</tspan></text></a><a ewd:figtype="sp" style="cursor:pointer;" ewd:code="SP36" ewd:figID="31"><path style="&st2;" d=" M   709.63,   231.25  L   718.13,   231.25  L   722.38,   235.50  L   722.38,   243.99  L   718.13,   248.24  L   709.63,   248.24  L   705.38,   243.99  L   705.38,   235.50  L   709.63,   231.25 " /></a><a ewd:figtype="sp" style="cursor:pointer;" ewd:code="SP13" ewd:figID="32"><path style="&st2;" d=" M   803.12,   231.25  L   811.61,   231.25  L   815.86,   235.50  L   815.86,   243.99  L   811.61,   248.24  L   803.12,   248.24  L   798.87,   243.99  L   798.87,   235.50  L   803.12,   231.25 " /></a></g></svg>