<?xml version="1.0" encoding="utf-8"?>
<!DOCTYPE svg PUBLIC "-//W3C//DTD SVG 1.0//EN" "http://www.w3.org/TR/2001/REC-SVG-20010904/DTD/svg10.dtd"[
	<!ENTITY ns_flows "http://ns.adobe.com/Flows/1.0/">
	<!ENTITY ns_svg "http://www.w3.org/2000/svg">
	<!ENTITY ns_xlink "http://www.w3.org/1999/xlink">
	<!ENTITY st0 "font-size:7px;font-family:'NSimSun';adobe-font-script:japanese;">
	<!ENTITY st1 "font-size:6px;font-family:'NSimSun';">
	<!-- White fill  -->
	<!ENTITY st2 "fill:#FFFFFF;stroke:#000000; stroke-width:1.41;stroke-linecap:round;stroke-linejoin:round;">
	<!-- Yellow fill  -->
	<!ENTITY st3 "fill:#FFFFCC;stroke:#FFFFCC; stroke-width:0.1;stroke-linecap:round;stroke-linejoin:round;">
	<!-- Gray fill  -->
	<!ENTITY st4 "fill:#CCCCCC;stroke:#CCCCCC; stroke-width:0.1;stroke-linecap:round;stroke-linejoin:round;">
	<!-- Light-blue fill -->
	<!ENTITY st5 "fill:#CCECF4;stroke:#000000; stroke-width:1.133;stroke-linecap:round;stroke-linejoin:round;">
	<!ENTITY st6 "fill:none;stroke-linecap:butt; stroke-linejoin:round;">
	<!ENTITY st7 "fill:none;stroke:#000000;stroke-linecap:round;stroke-linejoin:round;">
	<!ENTITY st8 "enable-background:new    ;">
	<!-- Black fill -->
	<!ENTITY st9 "fill:#000000;stroke:#000000; stroke-linecap:round;stroke-linejoin:round;">
	<!-- SRS note   -->
	<!ENTITY st10 "font-size:9px;font-family:'NSimSun';">
	<!ENTITY st11 "font-size:9px;font-family:'NSimSun';">
	<!ENTITY st12 "font-size:6px;font-family:'NSimSun';">
	<!ENTITY st13 "fill:none;stroke:#ff0000;stroke-linecap:round;stroke-linejoin:round;">
	<!-- Yellow fill  -->
	<!ENTITY st14 "fill:#FFFF00;stroke:#FFFF00; stroke-width:0.1;stroke-linecap:round;stroke-linejoin:round;">
	<!ENTITY st15 "font-size:6px;font-family:'NSimSun';adobe-font-script:japanese;">
	<!ENTITY st16 "1.00 0.00 0.00 1.00">
	<!ENTITY st17 "0.00 -1.00 1.00 0.00">
	<!ENTITY st18 "font-size:6px;font-family:'NSimSun';">
	<!ENTITY st19 "font-size:9px;font-family:'NSimSun';">
	<!ENTITY st20 "font-size:6px;font-family:'NSimSun';adobe-font-script:japanese;">
	<!ENTITY st21 "font-size:7px;font-family:'NSimSun';adobe-font-script:japanese;">
	<!ATTLIST svg
		xmlns:ewd CDATA #FIXED "http://shcl.co.jp/ewd"
		xmlns:a CDATA #FIXED "http://ns.adobe.com/AdobeSVGViewerExtensions/3.0/"
		ewd:ver CDATA #IMPLIED
	>
	<!ATTLIST a
		ewd:lineID CDATA #IMPLIED
		ewd:groupID CDATA #IMPLIED
		ewd:figtype CDATA #IMPLIED
		ewd:code CDATA #IMPLIED
		ewd:figID CDATA #IMPLIED
		ewd:pinNo CDATA #IMPLIED
		ewd:comment CDATA #IMPLIED >
	<!ATTLIST g
		ewd:lineID CDATA #IMPLIED
		ewd:groupID CDATA #IMPLIED
		ewd:figtype CDATA #IMPLIED
		ewd:code CDATA #IMPLIED
		ewd:figID CDATA #IMPLIED
		ewd:pinNo CDATA #IMPLIED
		ewd:comment CDATA #IMPLIED >
	<!ATTLIST text
		ewd:textID CDATA #IMPLIED
		ewd:horAlign CDATA #IMPLIED >
	<!ATTLIST title
		ewd:textID CDATA #IMPLIED >
]>
<!-- Generator: Shintec Hozumi YS   -->
<svg onload="call_execInitLoadProc_svg('system')" style="overflow:visible;  enable-background:new 0 0 1882.288 710.000" viewBox="0 0 1886.694 710.000" height="710.000" width="1886.694" xml:space="preserve" ewd:ver="2.1.2.6F" xmlns="&ns_svg;" xmlns:ewd="http://shcl.co.jp/ewd" xmlns:a="http://ns.adobe.com/AdobeSVGViewerExtensions/3.0/" xmlns:xlink="&ns_xlink;">
<text style="font-size:6px;font-family:'NSimSun';" transform="matrix(&st16;  1575.52  612.82 )">(*1)</text><text style="font-size:6px;font-family:'NSimSun';" transform="matrix(&st16;  1577.77  601.49 )">W</text><text style="font-size:6px;font-family:'NSimSun';" transform="matrix(&st16;  1575.52  638.31 )">(*1)</text><text style="font-size:6px;font-family:'NSimSun';" transform="matrix(&st16;  1576.45  626.98 )">LG</text><text style="font-size:6px;font-family:'NSimSun';" transform="matrix(&st17;  1755.51  135.01 )">P</text><text style="font-size:6px;font-family:'NSimSun';" transform="matrix(&st17;  1832.0  135.98 )">W</text><text style="font-size:6px;font-family:'NSimSun';" transform="matrix(&st17;  1832.0  254.96 )">W</text><text style="font-size:6px;font-family:'NSimSun';" transform="matrix(&st17;  1848.99  566.24 )">BR</text><text style="font-size:6px;font-family:'NSimSun';" transform="matrix(&st17;  1860.33  567.4 )">(*1)</text><text style="font-size:6px;font-family:'NSimSun';" transform="matrix(&st17;  1798.0  566.47 )">LG</text><text style="font-size:6px;font-family:'NSimSun';" transform="matrix(&st17;  1764.01  565.16 )">W</text><text style="font-size:6px;font-family:'NSimSun';" transform="matrix(&st17;  1766.84  138.23 )">(*1)</text><text style="font-size:6px;font-family:'NSimSun';" transform="matrix(&st17;  1843.33  138.23 )">(*1)</text><text style="font-size:6px;font-family:'NSimSun';" transform="matrix(&st17;  1843.33  257.21 )">(*1)</text><text style="font-size:6px;font-family:'NSimSun';" transform="matrix(&st17;  1775.34  567.4 )">(*1)</text><text style="font-size:6px;font-family:'NSimSun';" transform="matrix(&st17;  1809.33  567.4 )">(*1)</text><text style="font-size:6px;font-family:'NSimSun';" transform="matrix(&st16;  1524.53  612.82 )">(*1)</text><text style="font-size:6px;font-family:'NSimSun';" transform="matrix(&st16;  1526.78  601.49 )">W</text><text style="font-size:6px;font-family:'NSimSun';" transform="matrix(&st16;  1524.53  638.31 )">(*1)</text><text style="font-size:6px;font-family:'NSimSun';" transform="matrix(&st16;  1525.46  626.98 )">LG</text><g ewd:figtype="rb" ewd:figID="11" ewd:code="FUSE6"><path style="stroke-width: 1.42 ;&st7;  " d=" M  1837.82,   103.77  L  1833.57,   103.77  " /><path style="stroke-width: 1.42 ;&st7;  " d=" M  1837.82,    95.27  L  1833.57,    95.27  " /><path style="stroke-width: 0.85 ;&st7;  " d=" M  1835.69,    69.77  L  1835.69,    95.27  " /><path style="stroke-width: 1.42 ;&st7;   " d=" M  1842.07,    99.52  C  1842.07     97.17   1840.16     95.27   1837.82     95.27  " /><path style="stroke-width: 1.42 ;&st7;   " d=" M  1837.82,   103.77  C  1840.16    103.77   1842.07    101.87   1842.07     99.52  " /><path style="stroke-width: 1.42 ;&st7;   " d=" M  1829.32,    99.52  C  1829.32    101.87   1831.22    103.77   1833.57    103.77  " /><path style="stroke-width: 1.42 ;&st7;   " d=" M  1833.57,    95.27  C  1831.22     95.27   1829.32     97.17   1829.32     99.52  " /><path style="stroke-width: 0.28 ;&st9;  " d=" M  1835.69,    90.37  L  1832.86,    87.54  L  1832.86,    91.79  L  1835.69,    94.62  L  1838.53,    91.79  L  1838.53,    87.54  L  1835.69,    90.37  " /><text style="font-size:6px;font-family:'NSimSun';" transform="matrix(&st16;  1827.65  32.08 )">(BAT)</text><text style="font-size:6px;font-family:'NSimSun';" transform="matrix(&st16;  1829.51  86.47 )">2</text><text style="font-size:6px;font-family:'NSimSun';" transform="matrix(&st16;  1833.89  101.49 )">1</text><text style="font-size:6px;font-family:'NSimSun';" transform="matrix(&st16;  1852.12  53.34 )">10A <tspan x="0 " dy="6.0">ECU-B </tspan><tspan x="0 " dy="6.0">NO.2</tspan></text><path style="stroke-width: 0.85 ;&st7;   " d=" M  1837.11,    68.36  C  1837.11     67.57   1836.48     66.94   1835.69     66.94  " /><path style="stroke-width: 0.85 ;&st7;   " d=" M  1835.69,    66.94  C  1834.91     66.94   1834.28     67.57   1834.28     68.36  " /><path style="stroke-width: 0.85 ;&st7;   " d=" M  1834.28,    68.36  C  1834.28     69.14   1834.91     69.77   1835.69     69.77  " /><path style="stroke-width: 0.85 ;&st7;   " d=" M  1835.69,    69.77  C  1836.48     69.77   1837.11     69.14   1837.11     68.36  " /><path style="stroke-width: 0.85 ;&st7;   " d=" M  1837.11,    45.69  C  1837.11     44.91   1836.48     44.28   1835.69     44.28  " /><path style="stroke-width: 0.85 ;&st7;   " d=" M  1835.69,    44.28  C  1834.91     44.28   1834.28     44.91   1834.28     45.69  " /><path style="stroke-width: 0.85 ;&st7;   " d=" M  1834.28,    45.69  C  1834.28     46.48   1834.91     47.11   1835.69     47.11  " /><path style="stroke-width: 0.85 ;&st7;   " d=" M  1835.69,    47.11  C  1836.48     47.11   1837.11     46.48   1837.11     45.69  " /><path style="stroke-width: 1.42 ;&st7;   " d=" M  1835.69,    66.94  C  1838.43     65.33   1839.34     61.80   1837.73     59.06  " /><path style="stroke-width: 1.42 ;&st7;   " d=" M  1837.73,    59.06  C  1837.21     58.18   1836.58     57.55   1835.69     57.03  " /><path style="stroke-width: 1.42 ;&st7;   " d=" M  1835.69,    47.11  C  1832.96     48.72   1832.04     52.25   1833.66     54.99  " /><path style="stroke-width: 1.42 ;&st7;   " d=" M  1833.66,    54.99  C  1834.18     55.87   1834.81     56.51   1835.69     57.03  " /><path style="stroke-width: 1.42 ;&st7;  " d=" M  1822.94,    35.78  L  1822.94,    78.27  L  1848.44,    78.27  L  1848.44,    35.78  L  1822.94,    35.78  " /></g><g ewd:figtype="conn" ewd:figID="12" ewd:code="E55"><path style="stroke-width: 0.85 ;&st7;  " d=" M  1699.72,   384.22  L  1699.72,   401.22  " /><path style="stroke-width: 0.85 ;&st7;  " d=" M  1691.22,   384.22  L  1691.22,   401.22  " /><path style="stroke-width: 0.85 ;&st7;  " d=" M  1648.72,   384.22  L  1648.72,   401.22  " /><path style="stroke-width: 1.42 ;&st7;  " d=" M  1640.23,   358.73  L  1640.23,   384.22  L  1708.21,   384.22  L  1708.21,   358.73  L  1640.23,   358.73  " /><text style="font-size:6px;font-family:'NSimSun';" transform="matrix(&st16; 1657.33 373.62)" ewd:textID="7" ewd:horAlign="center">显示屏驱动器<tspan x="0 " dy="6.0" /></text><path style="stroke-width: 0.85 ;&st7;  " d=" M  1657.22,   384.22  L  1657.22,   401.22  " /><path style="stroke-width: 0.85 ;&st7;  " d=" M  1665.72,   384.22  L  1665.72,   401.22  " /><path style="stroke-width: 0.85 ;&st7;  " d=" M  1682.72,   384.22  L  1682.72,   401.22  " /><path style="stroke-width: 0.85 ;&st7;  " d=" M  1674.22,   384.22  L  1674.22,   401.22  " /><path style="stroke-width: 0.85 ;&st7;  " d=" M  1763.46,   324.73  L  1754.96,   324.73  " /><path style="stroke-width: 0.85 ;&st7;  " d=" M  1839.94,   324.73  L  1831.44,   324.73  " /><path style="stroke-width: 0.85 ;&st7;  " d=" M  1835.69,   341.73  L  1759.21,   341.73  L  1759.21,   299.24  " /><path style="stroke-width: 0.85 ;&st7;  " d=" M  1835.69,   299.24  L  1835.69,   341.73  " /><path style="stroke-width: 0.85 ;&st7;  " d=" M  1750.71,   452.21  L  1725.21,   452.21  L  1725.21,   443.71  " /><path style="stroke-width: 0.85 ;&st7;  " d=" M  1720.96,   443.71  L  1729.46,   443.71  " /><path style="stroke-width: 1.42 ;&st7;  " d=" M  1631.73,   443.71  L  1631.73,   460.71  L  1665.72,   460.71  L  1665.72,   443.71  L  1631.73,   443.71  " /><path style="stroke-width: 1.42 ;&st7;  " d=" M  1631.73,   469.21  L  1631.73,   486.20  L  1665.72,   486.20  L  1665.72,   469.21  L  1631.73,   469.21  " /><path style="stroke-width: 0.85 ;&st7;  " d=" M  1648.72,   426.71  L  1648.72,   443.71  " /><path style="stroke-width: 0.85 ;&st7;  " d=" M  1648.72,   460.71  L  1648.72,   469.21  " /><path style="stroke-width: 0.85 ;&st7;  " d=" M  1835.69,   367.22  L  1835.69,   401.22  " /><path style="stroke-width: 0.85 ;&st7;  " d=" M  1767.70,   426.71  L  1767.70,   443.71  " /><path style="stroke-width: 0.85 ;&st7;  " d=" M  1801.70,   426.71  L  1801.70,   443.71  " /><path style="stroke-width: 1.42 ;&st7;  " d=" M  1750.71,   426.71  L  1750.71,   409.72  L  1818.70,   409.72  L  1818.70,   426.71  " /><path style="stroke-width: 1.42 ;&st7;  " d=" M  1631.73,   401.22  L  1631.73,   426.71  L  1861.19,   426.71  L  1861.19,   401.22  L  1631.73,   401.22  " /><path style="stroke-width: 1.42 ;&st7;  " d=" M  1750.71,   443.71  L  1750.71,   460.71  L  1818.70,   460.71  L  1818.70,   443.71  L  1750.71,   443.71  " /><path style="stroke-width: 0.85 ;&st7;  " d=" M  1800.28,   375.72  L  1803.11,   375.72  " /><path style="stroke-width: 0.85 ;&st7;  " d=" M  1798.87,   372.89  L  1804.53,   372.89  " /><path style="stroke-width: 0.85 ;&st7;  " d=" M  1797.45,   370.06  L  1805.95,   370.06  " /><path style="stroke-width: 0.85 ;&st7;  " d=" M  1793.20,   367.22  L  1810.20,   367.22  " /><path style="stroke-width: 0.85 ;&st7;  " d=" M  1801.70,   367.22  L  1801.70,   358.73  L  1818.70,   358.73  " /><path style="stroke-width: 1.42 ;&st7;  " d=" M  1818.70,   350.23  L  1818.70,   367.22  L  1852.69,   367.22  L  1852.69,   350.23  L  1818.70,   350.23  " /><path style="stroke-width: 0.85 ;&st7;  " d=" M  1834.50,   340.73  L  1834.23,   341.20  L  1834.13,   341.73  L  1834.23,   342.26  L  1834.50,   342.73  L  1834.91,   343.08  L  1835.42,   343.26  L  1835.96,   343.26  L  1836.47,   343.08  L  1836.89,   342.73  L  1837.16,   342.26  L  1837.25,   341.73  L  1837.16,   341.20  L  1836.89,   340.73  L  1836.47,   340.38  L  1835.96,   340.19  L  1835.42,   340.19  L  1834.91,   340.38  L  1834.50,   340.73  L  1834.89,   341.44  L  1834.89,   342.02  L  1835.27,   342.46  L  1835.84,   342.56  L  1836.34,   342.28  L  1836.54,   341.73  L  1836.34,   341.18  L  1835.84,   340.89  L  1835.27,   340.99  L  1835.69,   341.73  " /><path style="stroke-width: 0.85 ;&st7;  " d=" M  1835.69,   341.73  L  1835.69,   350.23  " /><path style="stroke-width: 0.28 ;&st9;  " d=" M  1759.21,   324.73  L  1753.54,   316.23  L  1764.87,   316.23  L  1759.21,   324.73  " /><path style="stroke-width: 0.28 ;&st9;  " d=" M  1835.69,   324.73  L  1830.03,   316.23  L  1841.36,   316.23  L  1835.69,   324.73  " /><path style="stroke-width: 0.85 ;&st7;  " d=" M  1852.69,   426.71  L  1852.69,   503.20  " /><path style="stroke-width: 0.85 ;&st7;  " d=" M  1801.70,   460.71  L  1801.70,   503.20  " /><path style="stroke-width: 0.85 ;&st7;  " d=" M  1767.70,   460.71  L  1767.70,   503.20  " /><path style="stroke-width: 1.42 ;&st7;  " d=" M  1614.73,   299.24  L  1614.73,   503.20  L  1878.19,   503.20  L  1878.19,   299.24  L  1614.73,   299.24  " /><text style="font-size:6px;font-family:'NSimSun';" transform="matrix(&st16; 1639.94 479.67)" ewd:textID="4" ewd:horAlign="center">蜂鸣器</text><text style="font-size:6px;font-family:'NSimSun';" transform="matrix(&st16;  1644.17  454.18 )">I/F</text><text style="font-size:6px;font-family:'NSimSun';" transform="matrix(&st16;  1684.92  416.22 )">CPU</text><text style="font-size:6px;font-family:'NSimSun';" transform="matrix(&st16;  1855.27  499.51 )">ET</text><text style="font-size:6px;font-family:'NSimSun';" transform="matrix(&st16;  1772.94  454.46 )">CAN I/F</text><text style="font-size:6px;font-family:'NSimSun';" transform="matrix(&st16;  1804.28  499.51 )">CANH</text><text style="font-size:6px;font-family:'NSimSun';" transform="matrix(&st16;  1770.29  499.51 )">CANL</text><text style="font-size:6px;font-family:'NSimSun';" transform="matrix(&st16; 1769.30 420.47)" ewd:textID="5" ewd:horAlign="center">CAN 控制器</text><text style="font-size:6px;font-family:'NSimSun';" transform="matrix(&st16;  1827.84  360.69 )">5V IC</text><text style="font-size:6px;font-family:'NSimSun';" transform="matrix(&st16;  1761.79  307.43 )">IG+</text><text style="font-size:6px;font-family:'NSimSun';" transform="matrix(&st16;  1838.28  307.43 )">B</text><text style="font-size:6px;font-family:'NSimSun';" transform="matrix(&st16;  1717.87  440.01 )">5V+B</text><text style="font-size:6px;font-family:'NSimSun';" transform="matrix(&st16;  1838.28  375.42 )">5V+B</text><text style="font-size:6px;font-family:'NSimSun';" transform="matrix(&st16;  1747.41  296.67 )">39</text><path style="stroke-width: 1.42 ;&st7;   " d=" M  1763.74,   294.70  C  1763.74    292.20   1761.71    290.17   1759.21    290.17  " /><path style="stroke-width: 1.42 ;&st7;   " d=" M  1759.21,   290.17  C  1756.70    290.17   1754.67    292.20   1754.67    294.70  " /><path style="stroke-width: 1.42 ;&st7;   " d=" M  1754.67,   294.70  C  1754.67    297.21   1756.70    299.24   1759.21    299.24  " /><path style="stroke-width: 1.42 ;&st7;   " d=" M  1759.21,   299.24  C  1761.71    299.24   1763.74    297.21   1763.74    294.70  " /><text style="font-size:6px;font-family:'NSimSun';" transform="matrix(&st16;  1756.9  296.67 )">A</text><text style="font-size:6px;font-family:'NSimSun';" transform="matrix(&st16;  1755.91  509.7 )">31</text><path style="stroke-width: 1.42 ;&st7;   " d=" M  1772.24,   507.73  C  1772.24    505.23   1770.21    503.20   1767.70    503.20  " /><path style="stroke-width: 1.42 ;&st7;   " d=" M  1767.70,   503.20  C  1765.20    503.20   1763.17    505.23   1763.17    507.73  " /><path style="stroke-width: 1.42 ;&st7;   " d=" M  1763.17,   507.73  C  1763.17    510.24   1765.20    512.27   1767.70    512.27  " /><path style="stroke-width: 1.42 ;&st7;   " d=" M  1767.70,   512.27  C  1770.21    512.27   1772.24    510.24   1772.24    507.73  " /><text style="font-size:6px;font-family:'NSimSun';" transform="matrix(&st16;  1765.4  509.7 )">A</text><text style="font-size:6px;font-family:'NSimSun';" transform="matrix(&st16;  1789.9  509.7 )">32</text><path style="stroke-width: 1.42 ;&st7;   " d=" M  1806.23,   507.73  C  1806.23    505.23   1804.20    503.20   1801.70    503.20  " /><path style="stroke-width: 1.42 ;&st7;   " d=" M  1801.70,   503.20  C  1799.20    503.20   1797.17    505.23   1797.17    507.73  " /><path style="stroke-width: 1.42 ;&st7;   " d=" M  1797.17,   507.73  C  1797.17    510.24   1799.20    512.27   1801.70    512.27  " /><path style="stroke-width: 1.42 ;&st7;   " d=" M  1801.70,   512.27  C  1804.20    512.27   1806.23    510.24   1806.23    507.73  " /><text style="font-size:6px;font-family:'NSimSun';" transform="matrix(&st16;  1799.39  509.7 )">A</text><text style="font-size:6px;font-family:'NSimSun';" transform="matrix(&st16;  1823.9  296.67 )">40</text><text style="font-size:6px;font-family:'NSimSun';" transform="matrix(&st16;  1833.39  296.67 )">A</text><path style="stroke-width: 1.42 ;&st7;   " d=" M  1840.23,   294.70  C  1840.23    292.20   1838.20    290.17   1835.69    290.17  " /><path style="stroke-width: 1.42 ;&st7;   " d=" M  1835.69,   290.17  C  1833.19    290.17   1831.16    292.20   1831.16    294.70  " /><path style="stroke-width: 1.42 ;&st7;   " d=" M  1831.16,   294.70  C  1831.16    297.21   1833.19    299.24   1835.69    299.24  " /><path style="stroke-width: 1.42 ;&st7;   " d=" M  1835.69,   299.24  C  1838.20    299.24   1840.23    297.21   1840.23    294.70  " /><text style="font-size:6px;font-family:'NSimSun';" transform="matrix(&st16;  1840.89  509.7 )">21</text><path style="stroke-width: 1.42 ;&st7;   " d=" M  1857.22,   507.73  C  1857.22    505.23   1855.19    503.20   1852.69    503.20  " /><path style="stroke-width: 1.42 ;&st7;   " d=" M  1852.69,   503.20  C  1850.19    503.20   1848.16    505.23   1848.16    507.73  " /><path style="stroke-width: 1.42 ;&st7;   " d=" M  1848.16,   507.73  C  1848.16    510.24   1850.19    512.27   1852.69    512.27  " /><path style="stroke-width: 1.42 ;&st7;   " d=" M  1852.69,   512.27  C  1855.19    512.27   1857.22    510.24   1857.22    507.73  " /><text style="font-size:6px;font-family:'NSimSun';" transform="matrix(&st16;  1850.39  509.7 )">A</text><g ewd:figtype="title"><text style="font-size:6px;font-family:'NSimSun';" transform="matrix(&st16;  1628.32  517.92 )" ewd:textID="6">组合仪表总成</text><text style="font-size:6px;font-family:'NSimSun';" transform="matrix(&st16;  1628.31  510.81 )">E55(A)</text></g></g><g ewd:figtype="jb" ewd:figID="24" ewd:code="3"><path style="stroke-width: 1.42 ;&st7;  " d=" M  1761.33,   103.77  L  1757.08,   103.77  " /><path style="stroke-width: 1.42 ;&st7;  " d=" M  1761.33,    95.27  L  1757.08,    95.27  " /><path style="stroke-width: 0.85 ;&st7;  " d=" M  1759.21,    69.77  L  1759.21,    95.27  " /><path style="stroke-width: 1.42 ;&st7;   " d=" M  1765.58,    99.52  C  1765.58     97.17   1763.68     95.27   1761.33     95.27  " /><path style="stroke-width: 1.42 ;&st7;   " d=" M  1761.33,   103.77  C  1763.68    103.77   1765.58    101.87   1765.58     99.52  " /><path style="stroke-width: 1.42 ;&st7;   " d=" M  1752.83,    99.52  C  1752.83    101.87   1754.73    103.77   1757.08    103.77  " /><path style="stroke-width: 1.42 ;&st7;   " d=" M  1757.08,    95.27  C  1754.73     95.27   1752.83     97.17   1752.83     99.52  " /><path style="stroke-width: 0.85 ;&st7;   " d=" M  1760.62,    68.36  C  1760.62     67.57   1759.99     66.94   1759.21     66.94  " /><path style="stroke-width: 0.85 ;&st7;   " d=" M  1759.21,    66.94  C  1758.42     66.94   1757.79     67.57   1757.79     68.36  " /><path style="stroke-width: 0.85 ;&st7;   " d=" M  1757.79,    68.36  C  1757.79     69.14   1758.42     69.77   1759.21     69.77  " /><path style="stroke-width: 0.85 ;&st7;   " d=" M  1759.21,    69.77  C  1759.99     69.77   1760.62     69.14   1760.62     68.36  " /><path style="stroke-width: 0.85 ;&st7;   " d=" M  1760.62,    45.69  C  1760.62     44.91   1759.99     44.28   1759.21     44.28  " /><path style="stroke-width: 0.85 ;&st7;   " d=" M  1759.21,    44.28  C  1758.42     44.28   1757.79     44.91   1757.79     45.69  " /><path style="stroke-width: 0.85 ;&st7;   " d=" M  1757.79,    45.69  C  1757.79     46.48   1758.42     47.11   1759.21     47.11  " /><path style="stroke-width: 0.85 ;&st7;   " d=" M  1759.21,    47.11  C  1759.99     47.11   1760.62     46.48   1760.62     45.69  " /><path style="stroke-width: 1.42 ;&st7;   " d=" M  1759.21,    66.94  C  1761.94     65.33   1762.86     61.80   1761.24     59.06  " /><path style="stroke-width: 1.42 ;&st7;   " d=" M  1761.24,    59.06  C  1760.72     58.18   1760.09     57.55   1759.21     57.03  " /><path style="stroke-width: 1.42 ;&st7;   " d=" M  1759.21,    47.11  C  1756.47     48.72   1755.56     52.25   1757.17     54.99  " /><path style="stroke-width: 1.42 ;&st7;   " d=" M  1757.17,    54.99  C  1757.69     55.87   1758.32     56.51   1759.21     57.03  " /><path style="stroke-width: 1.42 ;&st7;  " d=" M  1746.46,    35.78  L  1746.46,    78.27  L  1771.95,    78.27  L  1771.95,    35.78  L  1746.46,    35.78  " /><path style="stroke-width: 0.28 ;&st9;  " d=" M  1759.21,    90.37  L  1756.37,    87.54  L  1756.37,    91.79  L  1759.21,    94.62  L  1762.04,    91.79  L  1762.04,    87.54  L  1759.21,    90.37  " /><text style="font-size:6px;font-family:'NSimSun';" transform="matrix(&st16;  1745.6  101.49 )">55</text><text style="font-size:6px;font-family:'NSimSun';" transform="matrix(&st16;  1755.23  101.49 )">3C</text><text style="font-size:6px;font-family:'NSimSun';" transform="matrix(&st16;  1775.63  56.17 )">5A <tspan x="0 " dy="6.0">MET</tspan></text><text style="font-size:6px;font-family:'NSimSun';" transform="matrix(&st16;  1753.02  86.47 )">2</text><text style="font-size:6px;font-family:'NSimSun';" transform="matrix(&st16;  1753.99  32.08 )">(IG)</text></g><g ewd:figtype="jb" ewd:figID="25" ewd:code="3"><path style="stroke-width: 1.42 ;&st7;  " d=" M  1837.82,   214.25  L  1833.57,   214.25  " /><path style="stroke-width: 1.42 ;&st7;  " d=" M  1837.82,   205.75  L  1833.57,   205.75  " /><path style="stroke-width: 1.42 ;&st7;  " d=" M  1837.82,   180.26  L  1833.57,   180.26  " /><path style="stroke-width: 1.42 ;&st7;  " d=" M  1837.82,   171.76  L  1833.57,   171.76  " /><path style="stroke-width: 1.42 ;&st7;   " d=" M  1842.07,   210.00  C  1842.07    207.65   1840.16    205.75   1837.82    205.75  " /><path style="stroke-width: 1.42 ;&st7;   " d=" M  1837.82,   214.25  C  1840.16    214.25   1842.07    212.35   1842.07    210.00  " /><path style="stroke-width: 1.42 ;&st7;   " d=" M  1829.32,   210.00  C  1829.32    212.35   1831.22    214.25   1833.57    214.25  " /><path style="stroke-width: 1.42 ;&st7;   " d=" M  1833.57,   205.75  C  1831.22    205.75   1829.32    207.65   1829.32    210.00  " /><path style="stroke-width: 1.42 ;&st7;   " d=" M  1842.07,   176.01  C  1842.07    173.66   1840.16    171.76   1837.82    171.76  " /><path style="stroke-width: 1.42 ;&st7;   " d=" M  1837.82,   180.26  C  1840.16    180.26   1842.07    178.35   1842.07    176.01  " /><path style="stroke-width: 1.42 ;&st7;   " d=" M  1829.32,   176.01  C  1829.32    178.35   1831.22    180.26   1833.57    180.26  " /><path style="stroke-width: 1.42 ;&st7;   " d=" M  1833.57,   171.76  C  1831.22    171.76   1829.32    173.66   1829.32    176.01  " /><path style="stroke-width: 0.85 ;&st7;  " d=" M  1835.69,   205.75  L  1835.69,   180.26  " /><path style="stroke-width: 0.28 ;&st9;  " d=" M  1835.69,   200.86  L  1832.86,   198.02  L  1832.86,   202.27  L  1835.69,   205.11  L  1838.53,   202.27  L  1838.53,   198.02  L  1835.69,   200.86  " /><path style="stroke-width: 0.28 ;&st9;  " d=" M  1835.69,   185.15  L  1838.53,   187.98  L  1838.53,   183.73  L  1835.69,   180.90  L  1832.86,   183.73  L  1832.86,   187.98  L  1835.69,   185.15  " /><text style="font-size:6px;font-family:'NSimSun';" transform="matrix(&st16;  1831.84  177.98 )">3A</text><text style="font-size:6px;font-family:'NSimSun';" transform="matrix(&st16;  1822.08  211.97 )">34</text><text style="font-size:6px;font-family:'NSimSun';" transform="matrix(&st16;  1831.76  211.97 )">3D</text><text style="font-size:6px;font-family:'NSimSun';" transform="matrix(&st16;  1822.08  177.98 )">44</text></g><g ewd:figtype="gp" ewd:figID="34" ewd:code="ED"><path style="stroke-width: 0.85 ;&st7;  " d=" M  1851.27,   710.00  L  1854.11,   710.00  " /><path style="stroke-width: 0.85 ;&st7;  " d=" M  1849.86,   707.17  L  1855.52,   707.17  " /><path style="stroke-width: 0.85 ;&st7;  " d=" M  1848.44,   704.33  L  1856.94,   704.33  " /><path style="stroke-width: 0.85 ;&st7;  " d=" M  1844.19,   701.50  L  1861.19,   701.50  " /><path style="stroke-width: 0.85 ;&st7;  " d=" M  1852.69,   697.25  L  1852.69,   701.50  " /></g></svg>