<?xml version="1.0" encoding="utf-8"?>
<!DOCTYPE svg PUBLIC "-//W3C//DTD SVG 1.0//EN" "http://www.w3.org/TR/2001/REC-SVG-20010904/DTD/svg10.dtd"[
	<!ENTITY ns_flows "http://ns.adobe.com/Flows/1.0/">
	<!ENTITY ns_svg "http://www.w3.org/2000/svg">
	<!ENTITY ns_xlink "http://www.w3.org/1999/xlink">
	<!ENTITY st0 "font-size:7px;font-family:'NSimSun';adobe-font-script:japanese;">
	<!ENTITY st1 "font-size:6px;font-family:'NSimSun';">
	<!-- White fill  -->
	<!ENTITY st2 "fill:#FFFFFF;stroke:#000000; stroke-width:1.41;stroke-linecap:round;stroke-linejoin:round;">
	<!-- Yellow fill  -->
	<!ENTITY st3 "fill:#FFFFCC;stroke:#FFFFCC; stroke-width:0.1;stroke-linecap:round;stroke-linejoin:round;">
	<!-- Gray fill  -->
	<!ENTITY st4 "fill:#CCCCCC;stroke:#CCCCCC; stroke-width:0.1;stroke-linecap:round;stroke-linejoin:round;">
	<!-- Light-blue fill -->
	<!ENTITY st5 "fill:#CCECF4;stroke:#000000; stroke-width:1.133;stroke-linecap:round;stroke-linejoin:round;">
	<!ENTITY st6 "fill:none;stroke-linecap:butt; stroke-linejoin:round;">
	<!ENTITY st7 "fill:none;stroke:#000000;stroke-linecap:round;stroke-linejoin:round;">
	<!ENTITY st8 "enable-background:new    ;">
	<!-- Black fill -->
	<!ENTITY st9 "fill:#000000;stroke:#000000; stroke-linecap:round;stroke-linejoin:round;">
	<!-- SRS note   -->
	<!ENTITY st10 "font-size:9px;font-family:'NSimSun';">
	<!ENTITY st11 "font-size:9px;font-family:'NSimSun';">
	<!ENTITY st12 "font-size:6px;font-family:'NSimSun';">
	<!ENTITY st13 "fill:none;stroke:#ff0000;stroke-linecap:round;stroke-linejoin:round;">
	<!-- Yellow fill  -->
	<!ENTITY st14 "fill:#FFFF00;stroke:#FFFF00; stroke-width:0.1;stroke-linecap:round;stroke-linejoin:round;">
	<!ENTITY st15 "font-size:6px;font-family:'NSimSun';adobe-font-script:japanese;">
	<!ENTITY st16 "1.00 0.00 0.00 1.00">
	<!ENTITY st17 "0.00 -1.00 1.00 0.00">
	<!ENTITY st18 "font-size:6px;font-family:'NSimSun';">
	<!ENTITY st19 "font-size:9px;font-family:'NSimSun';">
	<!ENTITY st20 "font-size:6px;font-family:'NSimSun';adobe-font-script:japanese;">
	<!ENTITY st21 "font-size:7px;font-family:'NSimSun';adobe-font-script:japanese;">
	<!ATTLIST svg
		xmlns:ewd CDATA #FIXED "http://shcl.co.jp/ewd"
		xmlns:a CDATA #FIXED "http://ns.adobe.com/AdobeSVGViewerExtensions/3.0/"
		ewd:ver CDATA #IMPLIED
	>
	<!ATTLIST a
		ewd:lineID CDATA #IMPLIED
		ewd:groupID CDATA #IMPLIED
		ewd:figtype CDATA #IMPLIED
		ewd:code CDATA #IMPLIED
		ewd:figID CDATA #IMPLIED
		ewd:pinNo CDATA #IMPLIED
		ewd:comment CDATA #IMPLIED >
	<!ATTLIST g
		ewd:lineID CDATA #IMPLIED
		ewd:groupID CDATA #IMPLIED
		ewd:figtype CDATA #IMPLIED
		ewd:code CDATA #IMPLIED
		ewd:figID CDATA #IMPLIED
		ewd:pinNo CDATA #IMPLIED
		ewd:comment CDATA #IMPLIED >
	<!ATTLIST text
		ewd:textID CDATA #IMPLIED
		ewd:horAlign CDATA #IMPLIED >
	<!ATTLIST title
		ewd:textID CDATA #IMPLIED >
]>
<!-- Generator: Shintec Hozumi YS   -->
<svg onload="call_execInitLoadProc_svg('system')" style="overflow:visible;  enable-background:new 0 0 3105.354 710.000" viewBox="0 0 3109.471 710.000" height="710.000" width="3109.471" xml:space="preserve" ewd:ver="2.1.2.6F" xmlns="&ns_svg;" xmlns:ewd="http://shcl.co.jp/ewd" xmlns:a="http://ns.adobe.com/AdobeSVGViewerExtensions/3.0/" xmlns:xlink="&ns_xlink;">
<text style="font-size:6px;font-family:'NSimSun';" transform="matrix(&st17;  455.23  292.31 )">L</text><text style="font-size:6px;font-family:'NSimSun';" transform="matrix(&st17;  157.78  130.84 )">L</text><text style="font-size:6px;font-family:'NSimSun';" transform="matrix(&st17;  157.78  198.82 )">L</text><text style="font-size:6px;font-family:'NSimSun';" transform="matrix(&st17;  123.78  198.82 )">L</text><text style="font-size:6px;font-family:'NSimSun';" transform="matrix(&st17;  55.79  152.2 )">B</text><text style="font-size:6px;font-family:'NSimSun';" transform="matrix(&st17;  310.75  411.41 )">B</text><text style="font-size:6px;font-family:'NSimSun';" transform="matrix(&st17;  276.76  411.33 )">R</text><path style="stroke-width: 1.42 ;&st7;  " d=" M   412.90,   299.24  L   407.93,   304.21  " /><path style="stroke-width: 1.42 ;&st7;  " d=" M   419.96,   316.23  L   424.93,   311.26  " /><path style="stroke-width: 1.42 ;&st7;  " d=" M   407.93,   311.26  L   412.90,   316.23  " /><path style="stroke-width: 1.42 ;&st7;  " d=" M   424.93,   304.21  L   419.96,   299.24  " /><text style="font-size:6px;font-family:'NSimSun';" transform="matrix(&st17;  446.73  173.45 )">B</text><path style="stroke-width: 1.42 ;&st7;  " d=" M   157.94,   146.26  L   152.97,   151.23  " /><path style="stroke-width: 1.42 ;&st7;  " d=" M   446.89,   120.77  L   441.93,   125.74  " /><path style="stroke-width: 1.42 ;&st7;  " d=" M   453.95,   137.76  L   458.92,   132.79  " /><path style="stroke-width: 1.42 ;&st7;  " d=" M   441.93,   132.79  L   446.89,   137.76  " /><path style="stroke-width: 1.42 ;&st7;  " d=" M   458.92,   125.74  L   453.95,   120.77  " /><text style="font-size:6px;font-family:'NSimSun';" transform="matrix(&st17;  55.79  294.56 )">GR</text><text style="font-size:6px;font-family:'NSimSun';" transform="matrix(&st17;  412.73  286.06 )">GR</text><path style="stroke-width: 1.42 ;&st7;  " d=" M   169.97,   231.25  L   161.47,   231.25  " /><path style="stroke-width: 1.42 ;&st7;  " d=" M   165.00,   163.26  L   169.97,   158.29  " /><path style="stroke-width: 1.42 ;&st7;  " d=" M   152.97,   158.29  L   157.94,   163.26  " /><path style="stroke-width: 1.42 ;&st7;  " d=" M   169.97,   151.23  L   165.00,   146.26  " /><path style="stroke-width: 1.42 ;&st7;  " d=" M    93.48,   414.69  L    88.51,   409.72  " /><path style="stroke-width: 1.42 ;&st7;  " d=" M    76.49,   421.75  L    81.46,   426.71  " /><path style="stroke-width: 1.42 ;&st7;  " d=" M    88.51,   426.71  L    93.48,   421.75  " /><path style="stroke-width: 1.42 ;&st7;  " d=" M    81.46,   409.72  L    76.49,   414.69  " /><text style="font-size:6px;font-family:'NSimSun';" transform="matrix(&st16;  248.5  660.98 )">W-B</text><text style="font-size:6px;font-family:'NSimSun';" transform="matrix(&st17;  217.27  662.13 )">W-B</text><text style="font-size:6px;font-family:'NSimSun';" transform="matrix(&st17;  81.29  458.03 )">L</text><text style="font-size:6px;font-family:'NSimSun';" transform="matrix(&st16;  108.41  414.52 )">L</text><text style="font-size:6px;font-family:'NSimSun';" transform="matrix(&st17;  81.29  385.79 )">L</text><text style="font-size:6px;font-family:'NSimSun';" transform="matrix(&st17;  81.29  292.31 )">L</text><text style="font-size:6px;font-family:'NSimSun';" transform="matrix(&st17;  344.75  415.67 )">W-B</text><text style="font-size:6px;font-family:'NSimSun';" transform="matrix(&st17;  446.73  88.46 )">B</text><text style="font-size:6px;font-family:'NSimSun';" transform="matrix(&st17;  259.76  202.35 )">R-B</text><text style="font-size:6px;font-family:'NSimSun';" transform="matrix(&st16;  342.84  278.54 )">R-B</text><text style="font-size:6px;font-family:'NSimSun';" transform="matrix(&st17;  353.24  156.45 )">B</text><g ewd:figtype="conn" ewd:figID="1" ewd:code="E11"><path style="stroke-width: 1.42 ;&st7;  " d=" M   399.43,   214.25  L   399.43,   256.74  L  1682.72,   256.74  L  1682.72,   214.25  L   399.43,   214.25  " /><g ewd:lineID="12"><text style="font-size:6px;font-family:'NSimSun';" transform="matrix(&st16;  449.64  264.94 )">17</text><text style="font-size:6px;font-family:'NSimSun';" transform="matrix(&st16;  450.65  253.05 )">SBLW</text></g><g ewd:lineID="18"><text style="font-size:6px;font-family:'NSimSun';" transform="matrix(&st16;  407.14  264.94 )">14</text><text style="font-size:6px;font-family:'NSimSun';" transform="matrix(&st16;  412.07  253.05 )">HR</text></g><g ewd:lineID="19"><text style="font-size:6px;font-family:'NSimSun';" transform="matrix(&st16;  441.14  210.56 )">21</text><text style="font-size:6px;font-family:'NSimSun';" transform="matrix(&st16;  444.55  221.88 )">HLS</text></g><g ewd:figtype="title" ewd:horAlign="center"><text style="font-size:6px;font-family:'NSimSun';" transform="matrix(&st16; 445.70 240.30)" ewd:textID="3">空调放大器总成</text><text style="font-size:6px;font-family:'NSimSun';" transform="matrix(&st16; 445.69 233.19)">E11</text></g></g><g ewd:figtype="rb" ewd:figID="2" ewd:code="FUSE29"><path style="stroke-width: 0.28 ;&st9;  " d=" M   263.46,    98.87  L   260.62,    96.04  L   260.62,   100.29  L   263.46,   103.12  L   266.29,   100.29  L   266.29,    96.04  L   263.46,    98.87  " /><path style="stroke-width: 1.42 ;&st7;   " d=" M   261.33,   103.77  C   258.98    103.77    257.08    105.67    257.08    108.02  " /><path style="stroke-width: 1.42 ;&st7;   " d=" M   257.08,   108.02  C   257.08    110.36    258.98    112.27    261.33    112.27  " /><path style="stroke-width: 1.42 ;&st7;   " d=" M   265.58,   112.27  C   267.93    112.27    269.83    110.36    269.83    108.02  " /><path style="stroke-width: 1.42 ;&st7;   " d=" M   269.83,   108.02  C   269.83    105.67    267.93    103.77    265.58    103.77  " /><path style="stroke-width: 0.85 ;&st7;  " d=" M   263.46,    69.77  L   263.46,   103.77  " /><path style="stroke-width: 1.42 ;&st7;  " d=" M   265.58,   103.77  L   261.33,   103.77  " /><path style="stroke-width: 1.42 ;&st7;  " d=" M   265.58,   112.27  L   261.33,   112.27  " /><text style="font-size:6px;font-family:'NSimSun';" transform="matrix(&st16;  255.41  32.08 )">(BAT)</text><text style="font-size:6px;font-family:'NSimSun';" transform="matrix(&st16;  257.27  86.47 )">2</text><text style="font-size:6px;font-family:'NSimSun';" transform="matrix(&st16;  261.66  109.99 )">1</text><text style="font-size:6px;font-family:'NSimSun';" transform="matrix(&st16;  279.88  56.17 )">40A <tspan x="0 " dy="6.0">H-LP-MAIN</tspan></text><path style="stroke-width: 1.42 ;&st7;  " d=" M   250.71,    35.78  L   250.71,    78.27  L   276.20,    78.27  L   276.20,    35.78  L   250.71,    35.78  " /><path style="stroke-width: 0.85 ;&st7;   " d=" M   264.87,    45.69  C   264.87     44.91    264.24     44.28    263.46     44.28  " /><path style="stroke-width: 0.85 ;&st7;   " d=" M   263.46,    44.28  C   262.67     44.28    262.04     44.91    262.04     45.69  " /><path style="stroke-width: 0.85 ;&st7;   " d=" M   262.04,    45.69  C   262.04     46.48    262.67     47.11    263.46     47.11  " /><path style="stroke-width: 0.85 ;&st7;   " d=" M   263.46,    47.11  C   264.24     47.11    264.87     46.48    264.87     45.69  " /><path style="stroke-width: 0.85 ;&st7;   " d=" M   264.87,    68.36  C   264.87     67.57    264.24     66.94    263.46     66.94  " /><path style="stroke-width: 0.85 ;&st7;   " d=" M   263.46,    66.94  C   262.67     66.94    262.04     67.57    262.04     68.36  " /><path style="stroke-width: 0.85 ;&st7;   " d=" M   262.04,    68.36  C   262.04     69.14    262.67     69.77    263.46     69.77  " /><path style="stroke-width: 0.85 ;&st7;   " d=" M   263.46,    69.77  C   264.24     69.77    264.87     69.14    264.87     68.36  " /><path style="stroke-width: 1.42 ;&st7;   " d=" M   263.46,    66.94  C   266.19     65.33    267.11     61.80    265.49     59.06  " /><path style="stroke-width: 1.42 ;&st7;   " d=" M   265.49,    59.06  C   264.97     58.18    264.34     57.55    263.46     57.03  " /><path style="stroke-width: 1.42 ;&st7;   " d=" M   263.46,    47.11  C   260.72     48.72    259.81     52.25    261.42     54.99  " /><path style="stroke-width: 1.42 ;&st7;   " d=" M   261.42,    54.99  C   261.94     55.87    262.57     56.51    263.46     57.03  " /></g><g ewd:figtype="rb" ewd:figID="3" ewd:code="FUSE33"><path style="stroke-width: 0.28 ;&st9;  " d=" M   161.47,    98.87  L   158.64,    96.04  L   158.64,   100.29  L   161.47,   103.12  L   164.31,   100.29  L   164.31,    96.04  L   161.47,    98.87  " /><path style="stroke-width: 1.42 ;&st7;   " d=" M   159.35,   103.77  C   157.00    103.77    155.10    105.67    155.10    108.02  " /><path style="stroke-width: 1.42 ;&st7;   " d=" M   155.10,   108.02  C   155.10    110.36    157.00    112.27    159.35    112.27  " /><path style="stroke-width: 1.42 ;&st7;   " d=" M   163.60,   112.27  C   165.94    112.27    167.85    110.36    167.85    108.02  " /><path style="stroke-width: 1.42 ;&st7;   " d=" M   167.85,   108.02  C   167.85    105.67    165.94    103.77    163.60    103.77  " /><path style="stroke-width: 0.85 ;&st7;  " d=" M   161.47,    69.77  L   161.47,   103.77  " /><path style="stroke-width: 1.42 ;&st7;  " d=" M   163.60,   103.77  L   159.35,   103.77  " /><path style="stroke-width: 1.42 ;&st7;  " d=" M   163.60,   112.27  L   159.35,   112.27  " /><text style="font-size:6px;font-family:'NSimSun';" transform="matrix(&st16;  153.43  32.08 )">(BAT)</text><text style="font-size:6px;font-family:'NSimSun';" transform="matrix(&st16;  155.29  86.47 )">2</text><text style="font-size:6px;font-family:'NSimSun';" transform="matrix(&st16;  159.67  109.99 )">1</text><text style="font-size:6px;font-family:'NSimSun';" transform="matrix(&st16;  177.9  56.17 )">50A <tspan x="0 " dy="6.0">HTR</tspan></text><path style="stroke-width: 1.42 ;&st7;  " d=" M   148.73,    35.78  L   148.73,    78.27  L   174.22,    78.27  L   174.22,    35.78  L   148.73,    35.78  " /><path style="stroke-width: 0.85 ;&st7;   " d=" M   162.89,    45.69  C   162.89     44.91    162.26     44.28    161.47     44.28  " /><path style="stroke-width: 0.85 ;&st7;   " d=" M   161.47,    44.28  C   160.69     44.28    160.06     44.91    160.06     45.69  " /><path style="stroke-width: 0.85 ;&st7;   " d=" M   160.06,    45.69  C   160.06     46.48    160.69     47.11    161.47     47.11  " /><path style="stroke-width: 0.85 ;&st7;   " d=" M   161.47,    47.11  C   162.26     47.11    162.89     46.48    162.89     45.69  " /><path style="stroke-width: 0.85 ;&st7;   " d=" M   162.89,    68.36  C   162.89     67.57    162.26     66.94    161.47     66.94  " /><path style="stroke-width: 0.85 ;&st7;   " d=" M   161.47,    66.94  C   160.69     66.94    160.06     67.57    160.06     68.36  " /><path style="stroke-width: 0.85 ;&st7;   " d=" M   160.06,    68.36  C   160.06     69.14    160.69     69.77    161.47     69.77  " /><path style="stroke-width: 0.85 ;&st7;   " d=" M   161.47,    69.77  C   162.26     69.77    162.89     69.14    162.89     68.36  " /><path style="stroke-width: 1.42 ;&st7;   " d=" M   161.47,    66.94  C   164.21     65.33    165.12     61.80    163.51     59.06  " /><path style="stroke-width: 1.42 ;&st7;   " d=" M   163.51,    59.06  C   162.99     58.18    162.35     57.55    161.47     57.03  " /><path style="stroke-width: 1.42 ;&st7;   " d=" M   161.47,    47.11  C   158.74     48.72    157.82     52.25    159.44     54.99  " /><path style="stroke-width: 1.42 ;&st7;   " d=" M   159.44,    54.99  C   159.96     55.87    160.59     56.51    161.47     57.03  " /></g><g ewd:figtype="rb" ewd:figID="4" ewd:code="1"><path style="stroke-width: 0.28 ;&st9;  " d=" M   356.94,   193.65  L   359.77,   196.48  L   359.77,   192.23  L   356.94,   189.40  L   354.11,   192.23  L   354.11,   196.48  L   356.94,   193.65  " /><path style="stroke-width: 0.28 ;&st9;  " d=" M   331.44,   251.85  L   328.61,   249.01  L   328.61,   253.26  L   331.44,   256.10  L   334.28,   253.26  L   334.28,   249.01  L   331.44,   251.85  " /><path style="stroke-width: 0.28 ;&st9;  " d=" M   356.94,   251.85  L   354.11,   249.01  L   354.11,   253.26  L   356.94,   256.10  L   359.77,   253.26  L   359.77,   249.01  L   356.94,   251.85  " /><path style="stroke-width: 0.85 ;&st7;  " d=" M   356.94,   205.75  L   356.94,   188.75  " /><path style="stroke-width: 0.85 ;&st7;  " d=" M   356.94,   239.75  L   356.94,   256.74  " /><path style="stroke-width: 0.85 ;&st7;  " d=" M   331.44,   239.75  L   331.44,   256.74  " /><path style="stroke-width: 1.42 ;&st7;   " d=" M   354.82,   256.74  C   352.47    256.74    350.57    258.64    350.57    260.99  " /><path style="stroke-width: 1.42 ;&st7;   " d=" M   350.57,   260.99  C   350.57    263.34    352.47    265.24    354.82    265.24  " /><path style="stroke-width: 1.42 ;&st7;   " d=" M   359.07,   265.24  C   361.41    265.24    363.31    263.34    363.31    260.99  " /><path style="stroke-width: 1.42 ;&st7;   " d=" M   363.31,   260.99  C   363.31    258.64    361.41    256.74    359.07    256.74  " /><path style="stroke-width: 1.42 ;&st7;   " d=" M   333.57,   265.24  C   335.92    265.24    337.82    263.34    337.82    260.99  " /><path style="stroke-width: 1.42 ;&st7;   " d=" M   337.82,   260.99  C   337.82    258.64    335.92    256.74    333.57    256.74  " /><path style="stroke-width: 1.42 ;&st7;   " d=" M   325.07,   260.99  C   325.07    263.34    326.97    265.24    329.32    265.24  " /><path style="stroke-width: 1.42 ;&st7;   " d=" M   329.32,   256.74  C   326.97    256.74    325.07    258.64    325.07    260.99  " /><path style="stroke-width: 1.42 ;&st7;   " d=" M   363.31,   184.50  C   363.31    182.16    361.41    180.26    359.07    180.26  " /><path style="stroke-width: 1.42 ;&st7;   " d=" M   359.07,   188.75  C   361.41    188.75    363.31    186.85    363.31    184.50  " /><path style="stroke-width: 1.42 ;&st7;   " d=" M   350.57,   184.50  C   350.57    186.85    352.47    188.75    354.82    188.75  " /><path style="stroke-width: 1.42 ;&st7;  " d=" M   359.07,   256.74  L   354.82,   256.74  " /><path style="stroke-width: 1.42 ;&st7;  " d=" M   359.07,   265.24  L   354.82,   265.24  " /><path style="stroke-width: 1.42 ;&st7;  " d=" M   333.57,   265.24  L   329.32,   265.24  " /><path style="stroke-width: 1.42 ;&st7;  " d=" M   333.57,   256.74  L   329.32,   256.74  " /><path style="stroke-width: 1.42 ;&st7;  " d=" M   359.07,   188.75  L   354.82,   188.75  " /><path style="stroke-width: 1.42 ;&st7;  " d=" M   359.07,   180.26  L   354.82,   180.26  " /><path style="stroke-width: 0.85 ;&st7;  " d=" M   331.44,   188.75  L   331.44,   205.75  " /><path style="stroke-width: 1.42 ;&st7;   " d=" M   354.82,   180.26  C   352.47    180.26    350.57    182.16    350.57    184.50  " /><text style="font-size:6px;font-family:'NSimSun';" transform="matrix(&st17;  313.32  229.87 )" ewd:textID="16">H-LP<tspan x="0 " dy="6.0">继电器</tspan></text><text style="font-size:6px;font-family:'NSimSun';" transform="matrix(&st16;  350.76  202.06 )">2</text><text style="font-size:6px;font-family:'NSimSun';" transform="matrix(&st16;  325.26  202.06 )">3</text><text style="font-size:6px;font-family:'NSimSun';" transform="matrix(&st16;  350.76  247.94 )">1</text><text style="font-size:6px;font-family:'NSimSun';" transform="matrix(&st16;  325.26  247.94 )">5</text><text style="font-size:6px;font-family:'NSimSun';" transform="matrix(&st16;  355.14  186.47 )">1</text><text style="font-size:6px;font-family:'NSimSun';" transform="matrix(&st16;  329.64  262.96 )">1</text><text style="font-size:6px;font-family:'NSimSun';" transform="matrix(&st16;  355.14  262.96 )">1</text><path style="stroke-width: 1.42 ;&st7;   " d=" M   331.44,   188.75  C   333.66    190.58    336.79    190.52    338.93    188.61  " /><path style="stroke-width: 1.42 ;&st7;   " d=" M   331.44,   188.75  C   329.23    186.93    326.10    186.99    323.96    188.89  " /><path style="stroke-width: 0.85 ;&st7;   " d=" M   332.86,   211.42  C   332.86    210.63    332.23    210.00    331.44    210.00  " /><path style="stroke-width: 0.85 ;&st7;   " d=" M   331.44,   210.00  C   330.66    210.00    330.03    210.63    330.03    211.42  " /><path style="stroke-width: 0.85 ;&st7;   " d=" M   330.03,   211.42  C   330.03    212.20    330.66    212.83    331.44    212.83  " /><path style="stroke-width: 0.85 ;&st7;   " d=" M   331.44,   212.83  C   332.23    212.83    332.86    212.20    332.86    211.42  " /><path style="stroke-width: 0.85 ;&st7;   " d=" M   354.41,   220.27  C   355.78    221.67    358.02    221.69    359.42    220.32  " /><path style="stroke-width: 0.85 ;&st7;   " d=" M   359.42,   220.32  C   360.82    218.95    360.84    216.71    359.47    215.31  " /><path style="stroke-width: 0.85 ;&st7;   " d=" M   359.47,   215.31  C   358.78    214.60    357.93    214.25    356.94    214.25  " /><path style="stroke-width: 0.85 ;&st7;   " d=" M   332.86,   234.08  C   332.86    233.30    332.23    232.66    331.44    232.66  " /><path style="stroke-width: 0.85 ;&st7;   " d=" M   331.44,   232.66  C   330.66    232.66    330.03    233.30    330.03    234.08  " /><path style="stroke-width: 0.85 ;&st7;   " d=" M   330.03,   234.08  C   330.03    234.86    330.66    235.50    331.44    235.50  " /><path style="stroke-width: 0.85 ;&st7;   " d=" M   331.44,   235.50  C   332.23    235.50    332.86    234.86    332.86    234.08  " /><path style="stroke-width: 0.85 ;&st7;  " d=" M   356.94,   205.75  L   356.94,   214.25  " /><path style="stroke-width: 0.85 ;&st7;  " d=" M   331.44,   239.75  L   331.44,   235.50  " /><path style="stroke-width: 0.85 ;&st7;  " d=" M   356.94,   231.25  L   356.94,   239.75  " /><path style="stroke-width: 0.85 ;&st7;  " d=" M   331.44,   210.00  L   331.44,   205.75  " /><path style="stroke-width: 1.42 ;&st7;  " d=" M   331.44,   212.83  L   325.78,   235.50  " /><path style="stroke-width: 0.85 ;&st7;   " d=" M   354.41,   225.23  C   355.78    226.62    358.02    226.65    359.42    225.28  " /><path style="stroke-width: 0.85 ;&st7;   " d=" M   359.42,   225.28  C   360.82    223.91    360.84    221.67    359.47    220.27  " /><path style="stroke-width: 0.85 ;&st7;   " d=" M   359.47,   220.27  C   358.10    218.87    355.86    218.85    354.46    220.22  " /><path style="stroke-width: 0.85 ;&st7;   " d=" M   354.46,   220.22  C   354.44    220.24    354.43    220.25    354.41    220.27  " /><path style="stroke-width: 0.85 ;&st7;   " d=" M   356.94,   231.25  C   358.90    231.25    360.48    229.66    360.48    227.71  " /><path style="stroke-width: 0.85 ;&st7;   " d=" M   360.48,   227.71  C   360.48    225.75    358.90    224.16    356.94    224.16  " /><path style="stroke-width: 0.85 ;&st7;   " d=" M   356.94,   224.16  C   355.95    224.16    355.10    224.52    354.41    225.23  " /><path style="stroke-width: 1.42 ;&st7;  " d=" M   365.44,   205.75  L   322.95,   205.75  L   322.95,   239.75  L   365.44,   239.75  L   365.44,   205.75  " /></g><g ewd:figtype="rb" ewd:figID="5" ewd:code="4"><path style="stroke-width: 0.85 ;&st7;  " d=" M    59.49,   239.75  L    59.49,   256.74  " /><path style="stroke-width: 0.85 ;&st7;  " d=" M    84.99,   239.75  L    84.99,   256.74  " /><path style="stroke-width: 0.85 ;&st7;  " d=" M    84.99,   205.75  L    84.99,   188.75  " /><path style="stroke-width: 0.28 ;&st9;  " d=" M    84.99,   251.85  L    82.15,   249.01  L    82.15,   253.26  L    84.99,   256.10  L    87.82,   253.26  L    87.82,   249.01  L    84.99,   251.85  " /><path style="stroke-width: 0.28 ;&st9;  " d=" M    59.49,   251.85  L    56.66,   249.01  L    56.66,   253.26  L    59.49,   256.10  L    62.32,   253.26  L    62.32,   249.01  L    59.49,   251.85  " /><path style="stroke-width: 0.28 ;&st9;  " d=" M    84.99,   193.65  L    87.82,   196.48  L    87.82,   192.23  L    84.99,   189.40  L    82.15,   192.23  L    82.15,   196.48  L    84.99,   193.65  " /><path style="stroke-width: 0.28 ;&st9;  " d=" M    59.49,   193.65  L    62.32,   196.48  L    62.32,   192.23  L    59.49,   189.40  L    56.66,   192.23  L    56.66,   196.48  L    59.49,   193.65  " /><path style="stroke-width: 1.42 ;&st7;   " d=" M    82.86,   256.74  C    80.51    256.74     78.61    258.64     78.61    260.99  " /><path style="stroke-width: 1.42 ;&st7;   " d=" M    78.61,   260.99  C    78.61    263.34     80.51    265.24     82.86    265.24  " /><path style="stroke-width: 1.42 ;&st7;   " d=" M    87.11,   265.24  C    89.46    265.24     91.36    263.34     91.36    260.99  " /><path style="stroke-width: 1.42 ;&st7;   " d=" M    91.36,   260.99  C    91.36    258.64     89.46    256.74     87.11    256.74  " /><path style="stroke-width: 1.42 ;&st7;   " d=" M    61.61,   265.24  C    63.96    265.24     65.86    263.34     65.86    260.99  " /><path style="stroke-width: 1.42 ;&st7;   " d=" M    65.86,   260.99  C    65.86    258.64     63.96    256.74     61.61    256.74  " /><path style="stroke-width: 1.42 ;&st7;   " d=" M    53.12,   260.99  C    53.12    263.34     55.02    265.24     57.37    265.24  " /><path style="stroke-width: 1.42 ;&st7;   " d=" M    57.37,   256.74  C    55.02    256.74     53.12    258.64     53.12    260.99  " /><path style="stroke-width: 1.42 ;&st7;   " d=" M    91.36,   184.50  C    91.36    182.16     89.46    180.26     87.11    180.26  " /><path style="stroke-width: 1.42 ;&st7;   " d=" M    87.11,   188.75  C    89.46    188.75     91.36    186.85     91.36    184.50  " /><path style="stroke-width: 1.42 ;&st7;   " d=" M    78.61,   184.50  C    78.61    186.85     80.51    188.75     82.86    188.75  " /><path style="stroke-width: 1.42 ;&st7;   " d=" M    65.86,   184.50  C    65.86    182.16     63.96    180.26     61.61    180.26  " /><path style="stroke-width: 1.42 ;&st7;   " d=" M    61.61,   188.75  C    63.96    188.75     65.86    186.85     65.86    184.50  " /><path style="stroke-width: 1.42 ;&st7;   " d=" M    53.12,   184.50  C    53.12    186.85     55.02    188.75     57.37    188.75  " /><path style="stroke-width: 1.42 ;&st7;   " d=" M    57.37,   180.26  C    55.02    180.26     53.12    182.16     53.12    184.50  " /><path style="stroke-width: 1.42 ;&st7;  " d=" M    87.11,   256.74  L    82.86,   256.74  " /><path style="stroke-width: 1.42 ;&st7;  " d=" M    87.11,   265.24  L    82.86,   265.24  " /><path style="stroke-width: 1.42 ;&st7;  " d=" M    61.61,   265.24  L    57.37,   265.24  " /><path style="stroke-width: 1.42 ;&st7;  " d=" M    61.61,   256.74  L    57.37,   256.74  " /><path style="stroke-width: 1.42 ;&st7;  " d=" M    87.11,   188.75  L    82.86,   188.75  " /><path style="stroke-width: 1.42 ;&st7;  " d=" M    87.11,   180.26  L    82.86,   180.26  " /><path style="stroke-width: 0.85 ;&st7;  " d=" M    59.49,   188.75  L    59.49,   205.75  " /><path style="stroke-width: 1.42 ;&st7;  " d=" M    61.61,   188.75  L    57.37,   188.75  " /><path style="stroke-width: 1.42 ;&st7;  " d=" M    61.61,   180.26  L    57.37,   180.26  " /><path style="stroke-width: 1.42 ;&st7;   " d=" M    82.86,   180.26  C    80.51    180.26     78.61    182.16     78.61    184.50  " /><text style="font-size:6px;font-family:'NSimSun';" transform="matrix(&st16;  57.69  186.47 )">4</text><text style="font-size:6px;font-family:'NSimSun';" transform="matrix(&st17; 41.36 231.44)" ewd:textID="17">HTR<tspan x="0 " dy="6.0">继电器</tspan></text><text style="font-size:6px;font-family:'NSimSun';" transform="matrix(&st16;  78.8  202.06 )">5</text><text style="font-size:6px;font-family:'NSimSun';" transform="matrix(&st16;  53.31  202.06 )">1</text><text style="font-size:6px;font-family:'NSimSun';" transform="matrix(&st16;  78.8  247.94 )">3</text><text style="font-size:6px;font-family:'NSimSun';" transform="matrix(&st16;  53.31  247.94 )">2</text><text style="font-size:6px;font-family:'NSimSun';" transform="matrix(&st16;  83.19  186.47 )">4</text><text style="font-size:6px;font-family:'NSimSun';" transform="matrix(&st16;  57.69  262.96 )">4</text><text style="font-size:6px;font-family:'NSimSun';" transform="matrix(&st16;  83.19  262.96 )">4</text><path style="stroke-width: 1.42 ;&st7;  " d=" M    93.48,   205.75  L    50.99,   205.75  L    50.99,   239.75  L    93.48,   239.75  L    93.48,   205.75  " /><path style="stroke-width: 0.85 ;&st7;   " d=" M    86.40,   234.08  C    86.40    233.30     85.77    232.66     84.99    232.66  " /><path style="stroke-width: 0.85 ;&st7;   " d=" M    84.99,   232.66  C    84.20    232.66     83.57    233.30     83.57    234.08  " /><path style="stroke-width: 0.85 ;&st7;   " d=" M    83.57,   234.08  C    83.57    234.86     84.20    235.50     84.99    235.50  " /><path style="stroke-width: 0.85 ;&st7;   " d=" M    84.99,   235.50  C    85.77    235.50     86.40    234.86     86.40    234.08  " /><path style="stroke-width: 0.85 ;&st7;   " d=" M    86.40,   211.42  C    86.40    210.63     85.77    210.00     84.99    210.00  " /><path style="stroke-width: 0.85 ;&st7;   " d=" M    84.99,   210.00  C    84.20    210.00     83.57    210.63     83.57    211.42  " /><path style="stroke-width: 0.85 ;&st7;   " d=" M    83.57,   211.42  C    83.57    212.20     84.20    212.83     84.99    212.83  " /><path style="stroke-width: 0.85 ;&st7;   " d=" M    84.99,   212.83  C    85.77    212.83     86.40    212.20     86.40    211.42  " /><path style="stroke-width: 0.85 ;&st7;   " d=" M    56.96,   220.27  C    58.33    221.67     60.57    221.69     61.97    220.32  " /><path style="stroke-width: 0.85 ;&st7;   " d=" M    61.97,   220.32  C    63.37    218.95     63.39    216.71     62.02    215.31  " /><path style="stroke-width: 0.85 ;&st7;   " d=" M    62.02,   215.31  C    61.33    214.60     60.48    214.25     59.49    214.25  " /><path style="stroke-width: 0.85 ;&st7;   " d=" M    56.96,   225.23  C    58.33    226.62     60.57    226.65     61.97    225.28  " /><path style="stroke-width: 0.85 ;&st7;   " d=" M    61.97,   225.28  C    63.37    223.91     63.39    221.67     62.02    220.27  " /><path style="stroke-width: 0.85 ;&st7;   " d=" M    62.02,   220.27  C    60.65    218.87     58.41    218.85     57.01    220.22  " /><path style="stroke-width: 0.85 ;&st7;   " d=" M    57.01,   220.22  C    56.99    220.24     56.98    220.25     56.96    220.27  " /><path style="stroke-width: 0.85 ;&st7;   " d=" M    59.49,   231.25  C    61.45    231.25     63.03    229.66     63.03    227.71  " /><path style="stroke-width: 0.85 ;&st7;   " d=" M    63.03,   227.71  C    63.03    225.75     61.45    224.16     59.49    224.16  " /><path style="stroke-width: 0.85 ;&st7;   " d=" M    59.49,   224.16  C    58.50    224.16     57.65    224.52     56.96    225.23  " /><path style="stroke-width: 1.42 ;&st7;  " d=" M    84.99,   232.66  L    90.65,   210.00  " /><path style="stroke-width: 0.85 ;&st7;  " d=" M    84.99,   235.50  L    84.99,   239.75  " /><path style="stroke-width: 0.85 ;&st7;  " d=" M    84.99,   205.75  L    84.99,   210.00  " /><path style="stroke-width: 0.85 ;&st7;  " d=" M    59.49,   205.75  L    59.49,   214.25  " /><path style="stroke-width: 0.85 ;&st7;  " d=" M    59.49,   231.25  L    59.49,   239.75  " /></g><g ewd:figtype="conn" ewd:figID="7" ewd:code="E21"><path style="stroke-width: 1.42 ;&st7;  " d=" M    80.74,   353.06  L    89.24,   353.06  " /><path style="stroke-width: 1.42 ;&st7;  " d=" M    89.24,   353.06  L    89.24,   349.09  " /><path style="stroke-width: 1.42 ;&st7;   " d=" M    76.49,   341.73  C    76.49    346.42     80.29    350.23     84.99    350.23  " /><path style="stroke-width: 1.42 ;&st7;   " d=" M    84.99,   350.23  C    89.68    350.23     93.48    346.42     93.48    341.73  " /><path style="stroke-width: 1.42 ;&st7;   " d=" M    93.48,   341.73  C    93.48    337.03     89.68    333.23     84.99    333.23  " /><path style="stroke-width: 1.42 ;&st7;   " d=" M    84.99,   333.23  C    80.29    333.23     76.49    337.03     76.49    341.73  " /><path style="stroke-width: 1.42 ;&st7;  " d=" M    80.74,   349.09  L    80.74,   353.06  " /><path style="stroke-width: 1.42 ;&st7;  " d=" M    80.74,   330.40  L    89.24,   330.40  " /><path style="stroke-width: 1.42 ;&st7;  " d=" M    80.74,   334.36  L    80.74,   330.40  " /><path style="stroke-width: 1.42 ;&st7;  " d=" M    89.24,   330.40  L    89.24,   334.36  " /><text style="font-size:6px;font-family:'NSimSun';" transform="matrix(&st16;  82.25  343.7 )">M</text><text style="font-size:6px;font-family:'NSimSun';" transform="matrix(&st16;  78.8  361.25 )">1</text><text style="font-size:6px;font-family:'NSimSun';" transform="matrix(&st16;  78.8  326.71 )">2</text><g ewd:figtype="title"><text style="font-size:6px;font-family:'NSimSun';" transform="matrix(&st16;  95.74  335.46 )">E21</text><text style="font-size:6px;font-family:'NSimSun';" transform="matrix(&st16;  95.74  342.28 )" ewd:textID="6">带风扇的鼓风机马达分总成<tspan x="0 " dy="6.0" /></text></g></g><g ewd:figtype="conn" ewd:figID="10" ewd:code="E23"><path style="stroke-width: 0.85 ;&st7;  " d=" M   237.96,   367.22  L   254.96,   367.22  L   256.37,   364.39  L   259.21,   370.06  L   262.04,   364.39  L   264.87,   370.06  L   267.71,   364.39  L   270.54,   370.06  L   271.95,   367.22  L   280.45,   367.22  " /><path style="stroke-width: 0.85 ;&st7;  " d=" M   280.45,   367.22  L   288.95,   367.22  L   290.37,   364.39  L   293.20,   370.06  L   296.03,   364.39  L   298.87,   370.06  L   301.70,   364.39  L   304.53,   370.06  L   305.95,   367.22  L   314.45,   367.22  " /><path style="stroke-width: 0.85 ;&st7;  " d=" M   314.45,   367.22  L   322.95,   367.22  L   324.36,   364.39  L   327.20,   370.06  L   330.03,   364.39  L   332.86,   370.06  L   335.69,   364.39  L   338.53,   370.06  L   339.94,   367.22  L   348.44,   367.22  " /><path style="stroke-width: 1.42 ;&st7;  " d=" M   178.47,   350.23  L   365.44,   350.23  L   365.44,   384.22  L   178.47,   384.22  L   178.47,   350.23  " /><path style="stroke-width: 0.85 ;&st7;  " d=" M   314.45,   367.22  L   314.45,   384.22  " /><path style="stroke-width: 0.85 ;&st7;  " d=" M   280.45,   367.22  L   280.45,   384.22  " /><path style="stroke-width: 0.85 ;&st7;  " d=" M   212.46,   367.22  L   195.47,   367.22  L   195.47,   384.22  " /><path style="stroke-width: 0.85 ;&st7;  " d=" M   348.44,   367.22  L   348.44,   384.22  " /><path style="stroke-width: 0.85 ;&st7;  " d=" M   279.26,   366.22  L   278.99,   366.69  L   278.89,   367.22  L   278.99,   367.76  L   279.26,   368.23  L   279.67,   368.57  L   280.18,   368.76  L   280.72,   368.76  L   281.23,   368.57  L   281.65,   368.23  L   281.92,   367.76  L   282.01,   367.22  L   281.92,   366.69  L   281.65,   366.22  L   281.23,   365.88  L   280.72,   365.69  L   280.18,   365.69  L   279.67,   365.88  L   279.26,   366.22  L   279.65,   366.93  L   279.65,   367.52  L   280.03,   367.96  L   280.60,   368.06  L   281.10,   367.77  L   281.30,   367.22  L   281.10,   366.68  L   280.60,   366.39  L   280.03,   366.49  L   280.45,   367.22  " /><path style="stroke-width: 0.85 ;&st7;  " d=" M   313.25,   366.22  L   312.98,   366.69  L   312.89,   367.22  L   312.98,   367.76  L   313.25,   368.23  L   313.67,   368.57  L   314.18,   368.76  L   314.72,   368.76  L   315.23,   368.57  L   315.64,   368.23  L   315.91,   367.76  L   316.01,   367.22  L   315.91,   366.69  L   315.64,   366.22  L   315.23,   365.88  L   314.72,   365.69  L   314.18,   365.69  L   313.67,   365.88  L   313.25,   366.22  L   313.65,   366.93  L   313.65,   367.52  L   314.02,   367.96  L   314.59,   368.06  L   315.10,   367.77  L   315.30,   367.22  L   315.10,   366.68  L   314.59,   366.39  L   314.02,   366.49  L   314.45,   367.22  " /><path style="stroke-width: 1.42 ;&st7;   " d=" M   235.13,   367.22  C   233.51    364.49    229.99    363.57    227.25    365.19  " /><path style="stroke-width: 1.42 ;&st7;   " d=" M   227.25,   365.19  C   226.37    365.71    225.73    366.34    225.21    367.22  " /><path style="stroke-width: 1.42 ;&st7;   " d=" M   215.30,   367.22  C   216.91    369.96    220.44    370.87    223.18    369.26  " /><path style="stroke-width: 1.42 ;&st7;   " d=" M   223.18,   369.26  C   224.06    368.74    224.69    368.11    225.21    367.22  " /><path style="stroke-width: 0.85 ;&st7;   " d=" M   237.96,   367.22  C   237.96    366.44    237.33    365.81    236.54    365.81  " /><path style="stroke-width: 0.85 ;&st7;   " d=" M   236.54,   365.81  C   235.76    365.81    235.13    366.44    235.13    367.22  " /><path style="stroke-width: 0.85 ;&st7;   " d=" M   235.13,   367.22  C   235.13    368.01    235.76    368.64    236.54    368.64  " /><path style="stroke-width: 0.85 ;&st7;   " d=" M   236.54,   368.64  C   237.33    368.64    237.96    368.01    237.96    367.22  " /><path style="stroke-width: 0.85 ;&st7;   " d=" M   215.30,   367.22  C   215.30    366.44    214.66    365.81    213.88    365.81  " /><path style="stroke-width: 0.85 ;&st7;   " d=" M   213.88,   365.81  C   213.10    365.81    212.46    366.44    212.46    367.22  " /><path style="stroke-width: 0.85 ;&st7;   " d=" M   212.46,   367.22  C   212.46    368.01    213.10    368.64    213.88    368.64  " /><path style="stroke-width: 0.85 ;&st7;   " d=" M   213.88,   368.64  C   214.66    368.64    215.30    368.01    215.30    367.22  " /><text style="font-size:6px;font-family:'NSimSun';" transform="matrix(&st16;  198.05  380.53 )">HI</text><text style="font-size:6px;font-family:'NSimSun';" transform="matrix(&st16;  351.02  380.53 )">E</text><text style="font-size:6px;font-family:'NSimSun';" transform="matrix(&st16;  317.03  380.53 )">M1</text><text style="font-size:6px;font-family:'NSimSun';" transform="matrix(&st16;  283.04  380.53 )">M2</text><text style="font-size:6px;font-family:'NSimSun';" transform="matrix(&st16;  342.26  392.41 )">4</text><text style="font-size:6px;font-family:'NSimSun';" transform="matrix(&st16;  189.28  392.41 )">1</text><text style="font-size:6px;font-family:'NSimSun';" transform="matrix(&st16;  274.27  392.41 )">3</text><text style="font-size:6px;font-family:'NSimSun';" transform="matrix(&st16;  308.26  392.41 )">2</text><g ewd:figtype="title"><text style="font-size:6px;font-family:'NSimSun';" transform="matrix(&st16;  175.06  346.53 )" ewd:textID="7">鼓风机电阻器</text><text style="font-size:6px;font-family:'NSimSun';" transform="matrix(&st16;  175.06  339.42 )">E23</text></g></g><g ewd:figtype="conn" ewd:figID="30" ewd:code="E58"><text style="font-size:6px;font-family:'NSimSun';" transform="matrix(&st16;  53.44  590.16 )">3</text><text style="font-size:6px;font-family:'NSimSun';" transform="matrix(&st16;  53.44  607.15 )">4</text><text style="font-size:6px;font-family:'NSimSun';" transform="matrix(&st16;  53.44  573.16 )">2</text><text style="font-size:6px;font-family:'NSimSun';" transform="matrix(&st16; 49.03 539.16)" ewd:textID="30" ewd:horAlign="center">关闭</text><text style="font-size:6px;font-family:'NSimSun';" transform="matrix(&st16;  189.55  502.9 )">LO</text><text style="font-size:6px;font-family:'NSimSun';" transform="matrix(&st16;  155.56  502.9 )">M1</text><text style="font-size:6px;font-family:'NSimSun';" transform="matrix(&st16;  121.56  502.9 )">M2</text><text style="font-size:6px;font-family:'NSimSun';" transform="matrix(&st16;  87.57  502.9 )">HI</text><text style="font-size:6px;font-family:'NSimSun';" transform="matrix(&st16;  223.55  626.99 )">E</text><path style="stroke-width: 0.85 ;&st7;  " d=" M   188.39,   588.19  L   219.55,   588.19  " /><path style="stroke-width: 0.85 ;&st7;  " d=" M   120.40,   588.19  L   185.55,   588.19  " /><path style="stroke-width: 0.85 ;&st7;  " d=" M    42.49,   579.69  L   237.96,   579.69  " /><path style="stroke-width: 0.85 ;&st7;  " d=" M   188.39,   571.19  L   219.55,   571.19  " /><path style="stroke-width: 0.85 ;&st7;  " d=" M   154.39,   571.19  L   185.55,   571.19  " /><path style="stroke-width: 0.85 ;&st7;  " d=" M    42.49,   545.69  L   237.96,   545.69  " /><path style="stroke-width: 0.85 ;&st7;  " d=" M    42.49,   528.70  L   237.96,   528.70  " /><path style="stroke-width: 1.42 ;&st7;  " d=" M    42.49,   613.68  L   237.96,   613.68  L   237.96,   511.70  L    42.49,   511.70  L    42.49,   613.68  " /><path style="stroke-width: 1.42 ;&st7;  " d=" M    25.50,   630.68  L   254.96,   630.68  L   254.96,   494.70  L    25.50,   494.70  L    25.50,   630.68  " /><path style="stroke-width: 0.85 ;&st7;  " d=" M   101.98,   511.70  L   101.98,   613.68  " /><path style="stroke-width: 0.85 ;&st7;  " d=" M   135.98,   511.70  L   135.98,   613.68  " /><path style="stroke-width: 0.85 ;&st7;  " d=" M   169.97,   511.70  L   169.97,   613.68  " /><path style="stroke-width: 0.85 ;&st7;  " d=" M   203.97,   511.70  L   203.97,   613.68  " /><path style="stroke-width: 0.85 ;&st7;  " d=" M   188.39,   554.19  L   219.55,   554.19  " /><path style="stroke-width: 0.85 ;&st7;  " d=" M    86.40,   605.18  L   185.55,   605.18  " /><path style="stroke-width: 0.85 ;&st7;  " d=" M    42.49,   596.69  L   237.96,   596.69  " /><path style="stroke-width: 0.85 ;&st7;  " d=" M   188.39,   605.18  L   219.55,   605.18  " /><path style="stroke-width: 0.85 ;&st7;  " d=" M    67.99,   511.70  L    67.99,   613.68  " /><path style="stroke-width: 0.85 ;&st7;  " d=" M    42.49,   562.69  L   237.96,   562.69  " /><path style="stroke-width: 0.85 ;&st7;  " d=" M   220.96,   613.68  L   220.96,   630.68  " /><path style="stroke-width: 0.85 ;&st7;  " d=" M   186.97,   494.70  L   186.97,   511.70  " /><path style="stroke-width: 0.85 ;&st7;  " d=" M   152.97,   494.70  L   152.97,   511.70  " /><path style="stroke-width: 0.85 ;&st7;  " d=" M   118.98,   494.70  L   118.98,   511.70  " /><path style="stroke-width: 0.85 ;&st7;  " d=" M    84.99,   494.70  L    84.99,   511.70  " /><path style="stroke-width: 0.85 ;&st7;   " d=" M   188.39,   588.19  C   188.39    587.40    187.75    586.77    186.97    586.77  " /><path style="stroke-width: 0.85 ;&st7;   " d=" M   186.97,   586.77  C   186.19    586.77    185.55    587.40    185.55    588.19  " /><path style="stroke-width: 0.85 ;&st7;   " d=" M   185.55,   588.19  C   185.55    588.97    186.19    589.60    186.97    589.60  " /><path style="stroke-width: 0.85 ;&st7;   " d=" M   186.97,   589.60  C   187.75    589.60    188.39    588.97    188.39    588.19  " /><path style="stroke-width: 0.85 ;&st7;   " d=" M   154.39,   571.19  C   154.39    570.41    153.76    569.77    152.97    569.77  " /><path style="stroke-width: 0.85 ;&st7;   " d=" M   152.97,   569.77  C   152.19    569.77    151.56    570.41    151.56    571.19  " /><path style="stroke-width: 0.85 ;&st7;   " d=" M   151.56,   571.19  C   151.56    571.97    152.19    572.61    152.97    572.61  " /><path style="stroke-width: 0.85 ;&st7;   " d=" M   152.97,   572.61  C   153.76    572.61    154.39    571.97    154.39    571.19  " /><path style="stroke-width: 0.85 ;&st7;   " d=" M   188.39,   605.18  C   188.39    604.40    187.75    603.77    186.97    603.77  " /><path style="stroke-width: 0.85 ;&st7;   " d=" M   186.97,   603.77  C   186.19    603.77    185.55    604.40    185.55    605.18  " /><path style="stroke-width: 0.85 ;&st7;   " d=" M   185.55,   605.18  C   185.55    605.97    186.19    606.60    186.97    606.60  " /><path style="stroke-width: 0.85 ;&st7;   " d=" M   186.97,   606.60  C   187.75    606.60    188.39    605.97    188.39    605.18  " /><path style="stroke-width: 0.85 ;&st7;   " d=" M    86.40,   605.18  C    86.40    604.40     85.77    603.77     84.99    603.77  " /><path style="stroke-width: 0.85 ;&st7;   " d=" M    84.99,   603.77  C    84.20    603.77     83.57    604.40     83.57    605.18  " /><path style="stroke-width: 0.85 ;&st7;   " d=" M    83.57,   605.18  C    83.57    605.97     84.20    606.60     84.99    606.60  " /><path style="stroke-width: 0.85 ;&st7;   " d=" M    84.99,   606.60  C    85.77    606.60     86.40    605.97     86.40    605.18  " /><path style="stroke-width: 0.85 ;&st7;   " d=" M   222.38,   605.18  C   222.38    604.40    221.75    603.77    220.96    603.77  " /><path style="stroke-width: 0.85 ;&st7;   " d=" M   220.96,   603.77  C   220.18    603.77    219.55    604.40    219.55    605.18  " /><path style="stroke-width: 0.85 ;&st7;   " d=" M   219.55,   605.18  C   219.55    605.97    220.18    606.60    220.96    606.60  " /><path style="stroke-width: 0.85 ;&st7;   " d=" M   220.96,   606.60  C   221.75    606.60    222.38    605.97    222.38    605.18  " /><path style="stroke-width: 0.85 ;&st7;   " d=" M   222.38,   571.19  C   222.38    570.41    221.75    569.77    220.96    569.77  " /><path style="stroke-width: 0.85 ;&st7;   " d=" M   220.96,   569.77  C   220.18    569.77    219.55    570.41    219.55    571.19  " /><path style="stroke-width: 0.85 ;&st7;   " d=" M   219.55,   571.19  C   219.55    571.97    220.18    572.61    220.96    572.61  " /><path style="stroke-width: 0.85 ;&st7;   " d=" M   220.96,   572.61  C   221.75    572.61    222.38    571.97    222.38    571.19  " /><path style="stroke-width: 0.85 ;&st7;   " d=" M   222.38,   588.19  C   222.38    587.40    221.75    586.77    220.96    586.77  " /><path style="stroke-width: 0.85 ;&st7;   " d=" M   220.96,   586.77  C   220.18    586.77    219.55    587.40    219.55    588.19  " /><path style="stroke-width: 0.85 ;&st7;   " d=" M   219.55,   588.19  C   219.55    588.97    220.18    589.60    220.96    589.60  " /><path style="stroke-width: 0.85 ;&st7;   " d=" M   220.96,   589.60  C   221.75    589.60    222.38    588.97    222.38    588.19  " /><path style="stroke-width: 0.85 ;&st7;   " d=" M   188.39,   571.19  C   188.39    570.41    187.75    569.77    186.97    569.77  " /><path style="stroke-width: 0.85 ;&st7;   " d=" M   186.97,   569.77  C   186.19    569.77    185.55    570.41    185.55    571.19  " /><path style="stroke-width: 0.85 ;&st7;   " d=" M   185.55,   571.19  C   185.55    571.97    186.19    572.61    186.97    572.61  " /><path style="stroke-width: 0.85 ;&st7;   " d=" M   186.97,   572.61  C   187.72    572.61    188.33    572.04    188.38    571.29  " /><path style="stroke-width: 0.85 ;&st7;   " d=" M   120.40,   588.19  C   120.40    587.40    119.76    586.77    118.98    586.77  " /><path style="stroke-width: 0.85 ;&st7;   " d=" M   118.98,   586.77  C   118.20    586.77    117.56    587.40    117.56    588.19  " /><path style="stroke-width: 0.85 ;&st7;   " d=" M   117.56,   588.19  C   117.56    588.97    118.20    589.60    118.98    589.60  " /><path style="stroke-width: 0.85 ;&st7;   " d=" M   118.98,   589.60  C   119.76    589.60    120.40    588.97    120.40    588.19  " /><path style="stroke-width: 0.85 ;&st7;   " d=" M   222.38,   571.19  C   222.38    570.41    221.75    569.77    220.96    569.77  " /><path style="stroke-width: 0.85 ;&st7;   " d=" M   220.96,   569.77  C   220.18    569.77    219.55    570.41    219.55    571.19  " /><path style="stroke-width: 0.85 ;&st7;   " d=" M   219.55,   571.19  C   219.55    571.97    220.18    572.61    220.96    572.61  " /><path style="stroke-width: 0.85 ;&st7;   " d=" M   220.96,   572.61  C   221.75    572.61    222.38    571.97    222.38    571.19  " /><path style="stroke-width: 0.85 ;&st7;   " d=" M   222.38,   554.19  C   222.38    553.41    221.75    552.78    220.96    552.78  " /><path style="stroke-width: 0.85 ;&st7;   " d=" M   220.96,   552.78  C   220.18    552.78    219.55    553.41    219.55    554.19  " /><path style="stroke-width: 0.85 ;&st7;   " d=" M   219.55,   554.19  C   219.55    554.97    220.18    555.61    220.96    555.61  " /><path style="stroke-width: 0.85 ;&st7;   " d=" M   220.96,   555.61  C   221.75    555.61    222.38    554.97    222.38    554.19  " /><path style="stroke-width: 0.85 ;&st7;   " d=" M   188.39,   554.19  C   188.39    553.41    187.75    552.78    186.97    552.78  " /><path style="stroke-width: 0.85 ;&st7;   " d=" M   186.97,   552.78  C   186.19    552.78    185.55    553.41    185.55    554.19  " /><path style="stroke-width: 0.85 ;&st7;   " d=" M   185.55,   554.19  C   185.55    554.97    186.19    555.61    186.97    555.61  " /><path style="stroke-width: 0.85 ;&st7;   " d=" M   186.97,   555.61  C   187.75    555.61    188.39    554.97    188.39    554.19  " /><path style="stroke-width: 0.85 ;&st7;   " d=" M   222.38,   571.19  C   222.38    570.41    221.75    569.77    220.96    569.77  " /><path style="stroke-width: 0.85 ;&st7;   " d=" M   220.96,   569.77  C   220.18    569.77    219.55    570.41    219.55    571.19  " /><path style="stroke-width: 0.85 ;&st7;   " d=" M   219.55,   571.19  C   219.55    571.97    220.18    572.61    220.96    572.61  " /><path style="stroke-width: 0.85 ;&st7;   " d=" M   220.96,   572.61  C   221.75    572.61    222.38    571.97    222.38    571.19  " /><path style="stroke-width: 0.85 ;&st7;   " d=" M   222.38,   571.19  C   222.38    570.41    221.75    569.77    220.96    569.77  " /><path style="stroke-width: 0.85 ;&st7;   " d=" M   220.96,   569.77  C   220.18    569.77    219.55    570.41    219.55    571.19  " /><path style="stroke-width: 0.85 ;&st7;   " d=" M   219.55,   571.19  C   219.55    571.97    220.18    572.61    220.96    572.61  " /><path style="stroke-width: 0.85 ;&st7;   " d=" M   220.96,   572.61  C   221.75    572.61    222.38    571.97    222.38    571.19  " /><text style="font-size:6px;font-family:'NSimSun';" transform="matrix(&st16;  81.6  522.17 )">HI</text><text style="font-size:6px;font-family:'NSimSun';" transform="matrix(&st16;  148.69  522.17 )">M1</text><text style="font-size:6px;font-family:'NSimSun';" transform="matrix(&st16;  182.53  522.17 )">LO</text><text style="font-size:6px;font-family:'NSimSun';" transform="matrix(&st16;  218.85  522.17 )">E</text><text style="font-size:6px;font-family:'NSimSun';" transform="matrix(&st16;  114.7  522.17 )">M2</text><text style="font-size:6px;font-family:'NSimSun';" transform="matrix(&st16;  53.44  556.16 )">1</text><text style="font-size:6px;font-family:'NSimSun';" transform="matrix(&st16;  180.78  491.01 )">4</text><text style="font-size:6px;font-family:'NSimSun';" transform="matrix(&st16;  214.78  638.87 )">5</text><text style="font-size:6px;font-family:'NSimSun';" transform="matrix(&st16;  78.8  491.01 )">6</text><text style="font-size:6px;font-family:'NSimSun';" transform="matrix(&st16;  109.69  491.01 )">10</text><text style="font-size:6px;font-family:'NSimSun';" transform="matrix(&st16;  146.79  491.01 )">9</text><g ewd:figtype="title"><text style="font-size:6px;font-family:'NSimSun';" transform="matrix(&st17;  262.57  633.58 )">E58</text><text style="font-size:6px;font-family:'NSimSun';" transform="matrix(&st17;  269.68  633.59 )" ewd:textID="25">2 号加热器控制装置分总成</text></g></g><g ewd:figtype="jb" ewd:figID="42" ewd:code="3"><path style="stroke-width: 1.42 ;&st7;  " d=" M   359.07,   120.77  L   354.82,   120.77  " /><path style="stroke-width: 1.42 ;&st7;  " d=" M   359.07,    86.77  L   354.82,    86.77  " /><path style="stroke-width: 1.42 ;&st7;  " d=" M   359.07,    78.27  L   354.82,    78.27  " /><path style="stroke-width: 1.42 ;&st7;  " d=" M   359.07,   129.26  L   354.82,   129.26  " /><path style="stroke-width: 1.42 ;&st7;   " d=" M   354.82,    78.27  C   352.47     78.27    350.57     80.17    350.57     82.52  " /><path style="stroke-width: 1.42 ;&st7;   " d=" M   350.57,    82.52  C   350.57     84.87    352.47     86.77    354.82     86.77  " /><path style="stroke-width: 1.42 ;&st7;   " d=" M   359.07,    86.77  C   361.41     86.77    363.31     84.87    363.31     82.52  " /><path style="stroke-width: 1.42 ;&st7;   " d=" M   363.31,    82.52  C   363.31     80.17    361.41     78.27    359.07     78.27  " /><path style="stroke-width: 1.42 ;&st7;   " d=" M   354.82,   120.77  C   352.47    120.77    350.57    122.67    350.57    125.01  " /><path style="stroke-width: 1.42 ;&st7;   " d=" M   350.57,   125.01  C   350.57    127.36    352.47    129.26    354.82    129.26  " /><path style="stroke-width: 1.42 ;&st7;   " d=" M   359.07,   129.26  C   361.41    129.26    363.31    127.36    363.31    125.01  " /><path style="stroke-width: 1.42 ;&st7;   " d=" M   363.31,   125.01  C   363.31    122.67    361.41    120.77    359.07    120.77  " /><path style="stroke-width: 0.28 ;&st9;  " d=" M   356.94,    91.67  L   359.77,    94.50  L   359.77,    90.25  L   356.94,    87.42  L   354.11,    90.25  L   354.11,    94.50  L   356.94,    91.67  " /><path style="stroke-width: 0.28 ;&st9;  " d=" M   356.94,   115.87  L   354.11,   113.04  L   354.11,   117.29  L   356.94,   120.12  L   359.77,   117.29  L   359.77,   113.04  L   356.94,   115.87  " /><path style="stroke-width: 0.85 ;&st7;  " d=" M   356.94,   120.77  L   356.94,    86.77  " /><text style="font-size:6px;font-family:'NSimSun';" transform="matrix(&st16;  352.97  84.49 )">3C</text><text style="font-size:6px;font-family:'NSimSun';" transform="matrix(&st16;  343.33  84.49 )">44</text><text style="font-size:6px;font-family:'NSimSun';" transform="matrix(&st16;  353.08  126.98 )">3A</text><text style="font-size:6px;font-family:'NSimSun';" transform="matrix(&st16;  343.33  126.98 )">35</text></g><g ewd:figtype="jb" ewd:figID="45" ewd:code="3"><text style="font-size:6px;font-family:'NSimSun';" transform="matrix(&st16;  53.31  86.47 )">2</text><text style="font-size:6px;font-family:'NSimSun';" transform="matrix(&st16;  45.88  109.99 )">43</text><text style="font-size:6px;font-family:'NSimSun';" transform="matrix(&st16;  55.56  109.99 )">3D</text><path style="stroke-width: 1.42 ;&st7;  " d=" M    46.74,    35.78  L    46.74,    78.27  L    72.24,    78.27  L    72.24,    35.78  L    46.74,    35.78  " /><path style="stroke-width: 0.28 ;&st9;  " d=" M    59.49,    98.87  L    56.66,    96.04  L    56.66,   100.29  L    59.49,   103.12  L    62.32,   100.29  L    62.32,    96.04  L    59.49,    98.87  " /><path style="stroke-width: 1.42 ;&st7;   " d=" M    59.49,    47.11  C    56.75     48.72     55.84     52.25     57.45     54.99  " /><path style="stroke-width: 1.42 ;&st7;   " d=" M    57.45,    54.99  C    57.97     55.87     58.61     56.51     59.49     57.03  " /><path style="stroke-width: 1.42 ;&st7;   " d=" M    59.49,    66.94  C    62.23     65.33     63.14     61.80     61.53     59.06  " /><path style="stroke-width: 1.42 ;&st7;   " d=" M    61.53,    59.06  C    61.01     58.18     60.37     57.55     59.49     57.03  " /><path style="stroke-width: 0.85 ;&st7;   " d=" M    60.91,    45.69  C    60.91     44.91     60.27     44.28     59.49     44.28  " /><path style="stroke-width: 0.85 ;&st7;   " d=" M    59.49,    44.28  C    58.71     44.28     58.07     44.91     58.07     45.69  " /><path style="stroke-width: 0.85 ;&st7;   " d=" M    58.07,    45.69  C    58.07     46.48     58.71     47.11     59.49     47.11  " /><path style="stroke-width: 0.85 ;&st7;   " d=" M    59.49,    47.11  C    60.27     47.11     60.91     46.48     60.91     45.69  " /><path style="stroke-width: 0.85 ;&st7;   " d=" M    60.91,    68.36  C    60.91     67.57     60.27     66.94     59.49     66.94  " /><path style="stroke-width: 0.85 ;&st7;   " d=" M    59.49,    66.94  C    58.71     66.94     58.07     67.57     58.07     68.36  " /><path style="stroke-width: 0.85 ;&st7;   " d=" M    58.07,    68.36  C    58.07     69.14     58.71     69.77     59.49     69.77  " /><path style="stroke-width: 0.85 ;&st7;   " d=" M    59.49,    69.77  C    60.27     69.77     60.91     69.14     60.91     68.36  " /><path style="stroke-width: 1.42 ;&st7;   " d=" M    65.86,   108.02  C    65.86    105.67     63.96    103.77     61.61    103.77  " /><path style="stroke-width: 1.42 ;&st7;   " d=" M    61.61,   112.27  C    63.96    112.27     65.86    110.36     65.86    108.02  " /><path style="stroke-width: 1.42 ;&st7;   " d=" M    53.12,   108.02  C    53.12    110.36     55.02    112.27     57.37    112.27  " /><path style="stroke-width: 1.42 ;&st7;   " d=" M    57.37,   103.77  C    55.02    103.77     53.12    105.67     53.12    108.02  " /><path style="stroke-width: 0.85 ;&st7;  " d=" M    59.49,    69.77  L    59.49,   103.77  " /><path style="stroke-width: 1.42 ;&st7;  " d=" M    61.61,   112.27  L    57.37,   112.27  " /><path style="stroke-width: 1.42 ;&st7;  " d=" M    61.61,   103.77  L    57.37,   103.77  " /><text style="font-size:6px;font-family:'NSimSun';" transform="matrix(&st16;  54.28  32.08 )">(IG)</text><text style="font-size:6px;font-family:'NSimSun';" transform="matrix(&st16;  75.91  56.17 )">7.5A <tspan x="0 " dy="6.0">HTR-IG</tspan></text></g><g ewd:figtype="w2w" ewd:figID="46" ewd:code="AE1"><text style="font-size:6px;font-family:'NSimSun';" transform="matrix(&st16;  148.84  228.97 )">1</text><path style="stroke-width: 1.42 ;&st7;  " d=" M   165.72,   240.31  L   161.47,   236.06  L   157.22,   240.31  " /><path style="stroke-width: 1.42 ;&st7;  " d=" M   165.72,   236.91  L   161.47,   232.66  L   157.22,   236.91  " /></g><g ewd:figtype="gp" ewd:figID="57" ewd:code="EC"><path style="stroke-width: 0.85 ;&st7;  " d=" M   220.96,   697.25  L   220.96,   701.50  " /><path style="stroke-width: 0.85 ;&st7;  " d=" M   212.46,   701.50  L   229.46,   701.50  " /><path style="stroke-width: 0.85 ;&st7;  " d=" M   216.71,   704.33  L   225.21,   704.33  " /><path style="stroke-width: 0.85 ;&st7;  " d=" M   218.13,   707.17  L   223.80,   707.17  " /><path style="stroke-width: 0.85 ;&st7;  " d=" M   219.55,   710.00  L   222.38,   710.00  " /></g></svg>