<?xml version="1.0" encoding="utf-8"?>
<!DOCTYPE svg PUBLIC "-//W3C//DTD SVG 1.0//EN" "http://www.w3.org/TR/2001/REC-SVG-20010904/DTD/svg10.dtd"[
	<!ENTITY ns_flows "http://ns.adobe.com/Flows/1.0/">
	<!ENTITY ns_svg "http://www.w3.org/2000/svg">
	<!ENTITY ns_xlink "http://www.w3.org/1999/xlink">
	<!ENTITY st0 "font-size:7px;font-family:'NSimSun';adobe-font-script:japanese;">
	<!ENTITY st1 "font-size:6px;font-family:'NSimSun';">
	<!-- White fill  -->
	<!ENTITY st2 "fill:#FFFFFF;stroke:#000000; stroke-width:1.41;stroke-linecap:round;stroke-linejoin:round;">
	<!-- Yellow fill  -->
	<!ENTITY st3 "fill:#FFFFCC;stroke:#FFFFCC; stroke-width:0.1;stroke-linecap:round;stroke-linejoin:round;">
	<!-- Gray fill  -->
	<!ENTITY st4 "fill:#CCCCCC;stroke:#CCCCCC; stroke-width:0.1;stroke-linecap:round;stroke-linejoin:round;">
	<!-- Light-blue fill -->
	<!ENTITY st5 "fill:#CCECF4;stroke:#000000; stroke-width:1.133;stroke-linecap:round;stroke-linejoin:round;">
	<!ENTITY st6 "fill:none;stroke-linecap:butt; stroke-linejoin:round;">
	<!ENTITY st7 "fill:none;stroke:#000000;stroke-linecap:round;stroke-linejoin:round;">
	<!ENTITY st8 "enable-background:new    ;">
	<!-- Black fill -->
	<!ENTITY st9 "fill:#000000;stroke:#000000; stroke-linecap:round;stroke-linejoin:round;">
	<!-- SRS note   -->
	<!ENTITY st10 "font-size:9px;font-family:'NSimSun';">
	<!ENTITY st11 "font-size:9px;font-family:'NSimSun';">
	<!ENTITY st12 "font-size:6px;font-family:'NSimSun';">
	<!ENTITY st13 "fill:none;stroke:#ff0000;stroke-linecap:round;stroke-linejoin:round;">
	<!-- Yellow fill  -->
	<!ENTITY st14 "fill:#FFFF00;stroke:#FFFF00; stroke-width:0.1;stroke-linecap:round;stroke-linejoin:round;">
	<!ENTITY st15 "font-size:6px;font-family:'NSimSun';adobe-font-script:japanese;">
	<!ENTITY st16 "1.00 0.00 0.00 1.00">
	<!ENTITY st17 "0.00 -1.00 1.00 0.00">
	<!ENTITY st18 "font-size:6px;font-family:'NSimSun';">
	<!ENTITY st19 "font-size:9px;font-family:'NSimSun';">
	<!ENTITY st20 "font-size:6px;font-family:'NSimSun';adobe-font-script:japanese;">
	<!ENTITY st21 "font-size:7px;font-family:'NSimSun';adobe-font-script:japanese;">
	<!ATTLIST svg
		xmlns:ewd CDATA #FIXED "http://shcl.co.jp/ewd"
		xmlns:a CDATA #FIXED "http://ns.adobe.com/AdobeSVGViewerExtensions/3.0/"
		ewd:ver CDATA #IMPLIED
	>
	<!ATTLIST a
		ewd:lineID CDATA #IMPLIED
		ewd:groupID CDATA #IMPLIED
		ewd:figtype CDATA #IMPLIED
		ewd:code CDATA #IMPLIED
		ewd:figID CDATA #IMPLIED
		ewd:pinNo CDATA #IMPLIED
		ewd:comment CDATA #IMPLIED >
	<!ATTLIST g
		ewd:lineID CDATA #IMPLIED
		ewd:groupID CDATA #IMPLIED
		ewd:figtype CDATA #IMPLIED
		ewd:code CDATA #IMPLIED
		ewd:figID CDATA #IMPLIED
		ewd:pinNo CDATA #IMPLIED
		ewd:comment CDATA #IMPLIED >
	<!ATTLIST text
		ewd:textID CDATA #IMPLIED
		ewd:horAlign CDATA #IMPLIED >
	<!ATTLIST title
		ewd:textID CDATA #IMPLIED >
]>
<!-- Generator: Shintec Hozumi YS   -->
<svg onload="call_execInitLoadProc_svg('system')" style="overflow:visible;  enable-background:new 0 0 946.715 710.000" viewBox="0 0 950.831 710.000" height="710.000" width="950.831" xml:space="preserve" ewd:ver="2.1.2.6F" xmlns="&ns_svg;" xmlns:ewd="http://shcl.co.jp/ewd" xmlns:a="http://ns.adobe.com/AdobeSVGViewerExtensions/3.0/" xmlns:xlink="&ns_xlink;">
<text style="font-size:6px;font-family:'NSimSun';" transform="matrix(&st16;  489.95  193.56 )">W</text><text style="font-size:6px;font-family:'NSimSun';" transform="matrix(&st17;  449.56  448.42 )">(*2)</text><text style="font-size:6px;font-family:'NSimSun';" transform="matrix(&st17;  149.28  284.7 )">W</text><text style="font-size:6px;font-family:'NSimSun';" transform="matrix(&st17;  472.22  284.7 )">W</text><text style="font-size:6px;font-family:'NSimSun';" transform="matrix(&st17;  336.25  447.49 )">LG</text><text style="font-size:6px;font-family:'NSimSun';" transform="matrix(&st17;  370.24  446.18 )">W</text><text style="font-size:6px;font-family:'NSimSun';" transform="matrix(&st17;  438.23  283.81 )">L</text><text style="font-size:6px;font-family:'NSimSun';" transform="matrix(&st17;  115.28  284.04 )">V</text><text style="font-size:6px;font-family:'NSimSun';" transform="matrix(&st17;  483.56  448.42 )">(*2)</text><text style="font-size:6px;font-family:'NSimSun';" transform="matrix(&st17;  115.28  447.53 )">GR</text><text style="font-size:6px;font-family:'NSimSun';" transform="matrix(&st17;  149.28  446.18 )">W</text><text style="font-size:6px;font-family:'NSimSun';" transform="matrix(&st17;  438.23  445.4 )">Y</text><text style="font-size:6px;font-family:'NSimSun';" transform="matrix(&st17;  472.22  446.18 )">W</text><text style="font-size:6px;font-family:'NSimSun';" transform="matrix(&st16;  490.85  176.56 )">L</text><text style="font-size:6px;font-family:'NSimSun';" transform="matrix(&st17;  268.26  284.7 )">W</text><text style="font-size:6px;font-family:'NSimSun';" transform="matrix(&st17;  234.26  285.48 )">SB</text><text style="font-size:6px;font-family:'NSimSun';" transform="matrix(&st17;  370.24  284.7 )">W</text><text style="font-size:6px;font-family:'NSimSun';" transform="matrix(&st17;  336.25  283.85 )">R</text><text style="font-size:6px;font-family:'NSimSun';" transform="matrix(&st17;  381.57  286.95 )">(*4)</text><text style="font-size:6px;font-family:'NSimSun';" transform="matrix(&st17;  347.58  286.95 )">(*4)</text><text style="font-size:6px;font-family:'NSimSun';" transform="matrix(&st17;  245.6  286.95 )">(*1)</text><text style="font-size:6px;font-family:'NSimSun';" transform="matrix(&st17;  279.59  286.95 )">(*1)</text><text style="font-size:6px;font-family:'NSimSun';" transform="matrix(&st17;  234.26  445.67 )">G</text><text style="font-size:6px;font-family:'NSimSun';" transform="matrix(&st17;  268.26  446.18 )">W</text><text style="font-size:6px;font-family:'NSimSun';" transform="matrix(&st17;  21.8  447.53 )">GR</text><text style="font-size:6px;font-family:'NSimSun';" transform="matrix(&st17;  55.79  446.18 )">W</text><text style="font-size:6px;font-family:'NSimSun';" transform="matrix(&st17;  33.13  448.42 )">(*6)</text><text style="font-size:6px;font-family:'NSimSun';" transform="matrix(&st17;  67.13  448.42 )">(*6)</text><text style="font-size:6px;font-family:'NSimSun';" transform="matrix(&st17;  126.62  448.42 )">(*7)</text><text style="font-size:6px;font-family:'NSimSun';" transform="matrix(&st17;  160.61  448.42 )">(*7)</text><text style="font-size:6px;font-family:'NSimSun';" transform="matrix(&st16;  302.99  558.99 )">W</text><text style="font-size:6px;font-family:'NSimSun';" transform="matrix(&st16;  299.19  570.33 )">(*14)</text><text style="font-size:6px;font-family:'NSimSun';" transform="matrix(&st16;  303.84  584.49 )">R</text><text style="font-size:6px;font-family:'NSimSun';" transform="matrix(&st16;  299.19  595.82 )">(*14)</text><text style="font-size:6px;font-family:'NSimSun';" transform="matrix(&st16;  489.95  380.52 )">W</text><text style="font-size:6px;font-family:'NSimSun';" transform="matrix(&st16;  487.71  391.86 )">(*3)</text><text style="font-size:6px;font-family:'NSimSun';" transform="matrix(&st16;  490.73  406.02 )">Y</text><text style="font-size:6px;font-family:'NSimSun';" transform="matrix(&st16;  487.71  417.35 )">(*3)</text><g ewd:figtype="conn" ewd:figID="1" ewd:code="E19"><path style="stroke-width: 1.42 ;&st7;  " d=" M   101.98,   129.26  L   101.98,   171.76  L   169.97,   171.76  L   169.97,   129.26  L   101.98,   129.26  " /><g ewd:lineID="3"><text style="font-size:6px;font-family:'NSimSun';" transform="matrix(&st16;  107.18  178.26 )">13</text><text style="font-size:6px;font-family:'NSimSun';" transform="matrix(&st16;  116.68  178.26 )">A</text><path style="stroke-width: 1.42 ;&st7;   " d=" M   123.51,   176.29  C   123.51    173.79    121.48    171.76    118.98    171.76  " /><path style="stroke-width: 1.42 ;&st7;   " d=" M   118.98,   171.76  C   116.48    171.76    114.45    173.79    114.45    176.29  " /><path style="stroke-width: 1.42 ;&st7;   " d=" M   114.45,   176.29  C   114.45    178.79    116.48    180.82    118.98    180.82  " /><path style="stroke-width: 1.42 ;&st7;   " d=" M   118.98,   180.82  C   121.48    180.82    123.51    178.79    123.51    176.29  " /><text style="font-size:6px;font-family:'NSimSun';" transform="matrix(&st16;  110.2  168.06 )">CANH</text></g><g ewd:lineID="6"><text style="font-size:6px;font-family:'NSimSun';" transform="matrix(&st16;  141.18  178.26 )">22</text><text style="font-size:6px;font-family:'NSimSun';" transform="matrix(&st16;  150.67  178.26 )">A</text><path style="stroke-width: 1.42 ;&st7;   " d=" M   157.51,   176.29  C   157.51    173.79    155.48    171.76    152.97    171.76  " /><path style="stroke-width: 1.42 ;&st7;   " d=" M   152.97,   171.76  C   150.47    171.76    148.44    173.79    148.44    176.29  " /><path style="stroke-width: 1.42 ;&st7;   " d=" M   148.44,   176.29  C   148.44    178.79    150.47    180.82    152.97    180.82  " /><path style="stroke-width: 1.42 ;&st7;   " d=" M   152.97,   180.82  C   155.48    180.82    157.51    178.79    157.51    176.29  " /><text style="font-size:6px;font-family:'NSimSun';" transform="matrix(&st16;  144.62  168.06 )">CANL</text></g><g ewd:figtype="title"><text style="font-size:6px;font-family:'NSimSun';" transform="matrix(&st16;  98.57  118.46 )">E19(A)</text><text style="font-size:6px;font-family:'NSimSun';" transform="matrix(&st16;  98.58  125.57 )" ewd:textID="9">空气囊 ECU 总成</text></g></g><g ewd:figtype="conn" ewd:figID="3" ewd:code="E62"><path style="stroke-width: 1.42 ;&st7;  " d=" M   220.96,   129.26  L   220.96,   171.76  L   288.95,   171.76  L   288.95,   129.26  L   220.96,   129.26  " /><g ewd:lineID="12"><text style="font-size:6px;font-family:'NSimSun';" transform="matrix(&st16;  265.77  179.95 )">2</text><text style="font-size:6px;font-family:'NSimSun';" transform="matrix(&st16;  263.6  168.06 )">CANL</text></g><g ewd:lineID="9"><text style="font-size:6px;font-family:'NSimSun';" transform="matrix(&st16;  231.78  179.95 )">3</text><text style="font-size:6px;font-family:'NSimSun';" transform="matrix(&st16;  229.18  168.06 )">CANH</text></g><g ewd:figtype="title"><text style="font-size:6px;font-family:'NSimSun';" transform="matrix(&st16;  217.56  125.57 )" ewd:textID="20">转向传感器</text><text style="font-size:6px;font-family:'NSimSun';" transform="matrix(&st16;  217.55  118.46 )">E62</text></g></g><g ewd:figtype="conn" ewd:figID="4" ewd:code="E49"><path style="stroke-width: 1.42 ;&st7;  " d=" M   322.95,   129.26  L   322.95,   171.76  L   390.93,   171.76  L   390.93,   129.26  L   322.95,   129.26  " /><g ewd:lineID="14"><text style="font-size:6px;font-family:'NSimSun';" transform="matrix(&st16;  328.15  178.26 )">14</text><text style="font-size:6px;font-family:'NSimSun';" transform="matrix(&st16;  337.52  178.26 )">C</text><path style="stroke-width: 1.42 ;&st7;   " d=" M   344.48,   176.29  C   344.48    173.79    342.45    171.76    339.94    171.76  " /><path style="stroke-width: 1.42 ;&st7;   " d=" M   339.94,   171.76  C   337.44    171.76    335.41    173.79    335.41    176.29  " /><path style="stroke-width: 1.42 ;&st7;   " d=" M   335.41,   176.29  C   335.41    178.79    337.44    180.82    339.94    180.82  " /><path style="stroke-width: 1.42 ;&st7;   " d=" M   339.94,   180.82  C   342.45    180.82    344.48    178.79    344.48    176.29  " /><text style="font-size:6px;font-family:'NSimSun';" transform="matrix(&st16;  331.16  168.06 )">CANH</text></g><g ewd:lineID="16"><text style="font-size:6px;font-family:'NSimSun';" transform="matrix(&st16;  362.14  178.26 )">15</text><text style="font-size:6px;font-family:'NSimSun';" transform="matrix(&st16;  371.52  178.26 )">C</text><path style="stroke-width: 1.42 ;&st7;   " d=" M   378.47,   176.29  C   378.47    173.79    376.44    171.76    373.94    171.76  " /><path style="stroke-width: 1.42 ;&st7;   " d=" M   373.94,   171.76  C   371.43    171.76    369.40    173.79    369.40    176.29  " /><path style="stroke-width: 1.42 ;&st7;   " d=" M   369.40,   176.29  C   369.40    178.79    371.43    180.82    373.94    180.82  " /><path style="stroke-width: 1.42 ;&st7;   " d=" M   373.94,   180.82  C   376.44    180.82    378.47    178.79    378.47    176.29  " /><text style="font-size:6px;font-family:'NSimSun';" transform="matrix(&st16;  365.58  168.06 )">CANL</text></g><g ewd:figtype="title"><text style="font-size:6px;font-family:'NSimSun';" transform="matrix(&st16;  319.53  118.46 )">E49(C)</text><text style="font-size:6px;font-family:'NSimSun';" transform="matrix(&st16;  319.54  125.57 )" ewd:textID="11">认证 ECU</text></g></g><g ewd:figtype="conn" ewd:figID="5" ewd:code="E43"><path style="stroke-width: 1.42 ;&st7;  " d=" M   424.93,   494.70  L   492.92,   494.70  L   492.92,   537.20  L   424.93,   537.20  L   424.93,   494.70  " /><g ewd:lineID="17"><text style="font-size:6px;font-family:'NSimSun';" transform="matrix(&st16;  430.13  492.14 )">11</text><text style="font-size:6px;font-family:'NSimSun';" transform="matrix(&st16;  439.62  492.14 )">A</text><path style="stroke-width: 1.42 ;&st7;   " d=" M   446.46,   490.17  C   446.46    487.67    444.43    485.64    441.93    485.64  " /><path style="stroke-width: 1.42 ;&st7;   " d=" M   441.93,   485.64  C   439.42    485.64    437.39    487.67    437.39    490.17  " /><path style="stroke-width: 1.42 ;&st7;   " d=" M   437.39,   490.17  C   437.39    492.67    439.42    494.70    441.93    494.70  " /><path style="stroke-width: 1.42 ;&st7;   " d=" M   441.93,   494.70  C   444.43    494.70    446.46    492.67    446.46    490.17  " /><text style="font-size:6px;font-family:'NSimSun';" transform="matrix(&st16;  433.15  502.34 )">CANH</text></g><g ewd:lineID="19"><text style="font-size:6px;font-family:'NSimSun';" transform="matrix(&st16;  464.12  492.14 )">12</text><text style="font-size:6px;font-family:'NSimSun';" transform="matrix(&st16;  473.62  492.14 )">A</text><path style="stroke-width: 1.42 ;&st7;   " d=" M   480.45,   490.17  C   480.45    487.67    478.42    485.64    475.92    485.64  " /><path style="stroke-width: 1.42 ;&st7;   " d=" M   475.92,   485.64  C   473.42    485.64    471.39    487.67    471.39    490.17  " /><path style="stroke-width: 1.42 ;&st7;   " d=" M   471.39,   490.17  C   471.39    492.67    473.42    494.70    475.92    494.70  " /><path style="stroke-width: 1.42 ;&st7;   " d=" M   475.92,   494.70  C   478.42    494.70    480.45    492.67    480.45    490.17  " /><text style="font-size:6px;font-family:'NSimSun';" transform="matrix(&st16;  467.57  502.34 )">CANL</text></g><g ewd:figtype="title"><text style="font-size:6px;font-family:'NSimSun';" transform="matrix(&st16;  421.52  544.81 )">E43(A)</text><text style="font-size:6px;font-family:'NSimSun';" transform="matrix(&st16;  421.52  551.91 )" ewd:textID="8">空调放大器总成</text></g></g><g ewd:figtype="conn" ewd:figID="6" ewd:code="E74"><path style="stroke-width: 0.85 ;&st7;  " d=" M   118.98,   367.22  L   118.98,   341.73  " /><path style="stroke-width: 0.85 ;&st7;  " d=" M   117.79,   349.22  L   117.52,   349.69  L   117.42,   350.23  L   117.52,   350.76  L   117.79,   351.23  L   118.20,   351.58  L   118.71,   351.76  L   119.25,   351.76  L   119.76,   351.58  L   120.17,   351.23  L   120.44,   350.76  L   120.54,   350.23  L   120.44,   349.69  L   120.17,   349.22  L   119.76,   348.88  L   119.25,   348.69  L   118.71,   348.69  L   118.20,   348.88  L   117.79,   349.22  L   118.18,   349.94  L   118.18,   350.52  L   118.56,   350.96  L   119.13,   351.06  L   119.63,   350.77  L   119.83,   350.23  L   119.63,   349.68  L   119.13,   349.39  L   118.56,   349.49  L   118.98,   350.23  " /><path style="stroke-width: 0.85 ;&st7;  " d=" M   152.97,   341.73  L   152.97,   367.22  " /><path style="stroke-width: 0.85 ;&st7;  " d=" M   151.78,   357.72  L   151.51,   358.19  L   151.42,   358.73  L   151.51,   359.26  L   151.78,   359.73  L   152.20,   360.07  L   152.70,   360.26  L   153.25,   360.26  L   153.75,   360.07  L   154.17,   359.73  L   154.44,   359.26  L   154.53,   358.73  L   154.44,   358.19  L   154.17,   357.72  L   153.75,   357.38  L   153.25,   357.19  L   152.70,   357.19  L   152.20,   357.38  L   151.78,   357.72  L   152.18,   358.43  L   152.18,   359.02  L   152.55,   359.46  L   153.12,   359.56  L   153.63,   359.27  L   153.82,   358.73  L   153.63,   358.18  L   153.12,   357.89  L   152.55,   357.99  L   152.97,   358.73  " /><path style="stroke-width: 1.42 ;&st7;  " d=" M   484.42,   367.22  L   484.42,   341.73  L   110.48,   341.73  L   110.48,   367.22  L   484.42,   367.22  " /><path style="stroke-width: 0.85 ;&st7;  " d=" M   441.93,   341.73  L   441.93,   350.23  L   118.98,   350.23  " /><path style="stroke-width: 0.85 ;&st7;  " d=" M   440.73,   349.22  L   440.46,   349.69  L   440.37,   350.23  L   440.46,   350.76  L   440.73,   351.23  L   441.15,   351.58  L   441.65,   351.76  L   442.20,   351.76  L   442.71,   351.58  L   443.12,   351.23  L   443.39,   350.76  L   443.48,   350.23  L   443.39,   349.69  L   443.12,   349.22  L   442.71,   348.88  L   442.20,   348.69  L   441.65,   348.69  L   441.15,   348.88  L   440.73,   349.22  L   441.13,   349.94  L   441.13,   350.52  L   441.50,   350.96  L   442.07,   351.06  L   442.58,   350.77  L   442.78,   350.23  L   442.58,   349.68  L   442.07,   349.39  L   441.50,   349.49  L   441.93,   350.23  " /><path style="stroke-width: 0.85 ;&st7;  " d=" M   474.73,   357.72  L   474.46,   358.19  L   474.36,   358.73  L   474.46,   359.26  L   474.73,   359.73  L   475.14,   360.07  L   475.65,   360.26  L   476.19,   360.26  L   476.70,   360.07  L   477.11,   359.73  L   477.38,   359.26  L   477.48,   358.73  L   477.38,   358.19  L   477.11,   357.72  L   476.70,   357.38  L   476.19,   357.19  L   475.65,   357.19  L   475.14,   357.38  L   474.73,   357.72  L   475.12,   358.43  L   475.12,   359.02  L   475.50,   359.46  L   476.07,   359.56  L   476.57,   359.27  L   476.77,   358.73  L   476.57,   358.18  L   476.07,   357.89  L   475.50,   357.99  L   475.92,   358.73  " /><path style="stroke-width: 0.85 ;&st7;  " d=" M   338.75,   349.22  L   338.48,   349.69  L   338.38,   350.23  L   338.48,   350.76  L   338.75,   351.23  L   339.16,   351.58  L   339.67,   351.76  L   340.22,   351.76  L   340.72,   351.58  L   341.14,   351.23  L   341.41,   350.76  L   341.50,   350.23  L   341.41,   349.69  L   341.14,   349.22  L   340.72,   348.88  L   340.22,   348.69  L   339.67,   348.69  L   339.16,   348.88  L   338.75,   349.22  L   339.14,   349.94  L   339.14,   350.52  L   339.52,   350.96  L   340.09,   351.06  L   340.59,   350.77  L   340.79,   350.23  L   340.59,   349.68  L   340.09,   349.39  L   339.52,   349.49  L   339.94,   350.23  " /><path style="stroke-width: 0.85 ;&st7;  " d=" M   372.74,   357.72  L   372.47,   358.19  L   372.38,   358.73  L   372.47,   359.26  L   372.74,   359.73  L   373.16,   360.07  L   373.67,   360.26  L   374.21,   360.26  L   374.72,   360.07  L   375.13,   359.73  L   375.40,   359.26  L   375.50,   358.73  L   375.40,   358.19  L   375.13,   357.72  L   374.72,   357.38  L   374.21,   357.19  L   373.67,   357.19  L   373.16,   357.38  L   372.74,   357.72  L   373.14,   358.43  L   373.14,   359.02  L   373.51,   359.46  L   374.08,   359.56  L   374.59,   359.27  L   374.79,   358.73  L   374.59,   358.18  L   374.08,   357.89  L   373.51,   357.99  L   373.94,   358.73  " /><path style="stroke-width: 0.85 ;&st7;  " d=" M   475.92,   358.73  L   152.97,   358.73  " /><path style="stroke-width: 0.85 ;&st7;  " d=" M   475.92,   341.73  L   475.92,   358.73  " /><path style="stroke-width: 0.85 ;&st7;  " d=" M   441.93,   367.22  L   441.93,   350.23  " /><path style="stroke-width: 0.85 ;&st7;  " d=" M   475.92,   350.23  L   475.92,   367.22  " /><path style="stroke-width: 0.85 ;&st7;  " d=" M   271.95,   341.73  L   271.95,   367.22  " /><path style="stroke-width: 0.85 ;&st7;  " d=" M   236.77,   349.22  L   236.50,   349.69  L   236.40,   350.23  L   236.50,   350.76  L   236.77,   351.23  L   237.18,   351.58  L   237.69,   351.76  L   238.23,   351.76  L   238.74,   351.58  L   239.15,   351.23  L   239.42,   350.76  L   239.52,   350.23  L   239.42,   349.69  L   239.15,   349.22  L   238.74,   348.88  L   238.23,   348.69  L   237.69,   348.69  L   237.18,   348.88  L   236.77,   349.22  L   237.16,   349.94  L   237.16,   350.52  L   237.54,   350.96  L   238.11,   351.06  L   238.61,   350.77  L   238.81,   350.23  L   238.61,   349.68  L   238.11,   349.39  L   237.54,   349.49  L   237.96,   350.23  " /><path style="stroke-width: 0.85 ;&st7;  " d=" M   270.76,   357.72  L   270.49,   358.19  L   270.40,   358.73  L   270.49,   359.26  L   270.76,   359.73  L   271.18,   360.07  L   271.68,   360.26  L   272.23,   360.26  L   272.73,   360.07  L   273.15,   359.73  L   273.42,   359.26  L   273.51,   358.73  L   273.42,   358.19  L   273.15,   357.72  L   272.73,   357.38  L   272.23,   357.19  L   271.68,   357.19  L   271.18,   357.38  L   270.76,   357.72  L   271.16,   358.43  L   271.16,   359.02  L   271.53,   359.46  L   272.10,   359.56  L   272.61,   359.27  L   272.80,   358.73  L   272.61,   358.18  L   272.10,   357.89  L   271.53,   357.99  L   271.95,   358.73  " /><path style="stroke-width: 0.85 ;&st7;  " d=" M   339.94,   367.22  L   339.94,   341.73  " /><path style="stroke-width: 0.85 ;&st7;  " d=" M   373.94,   341.73  L   373.94,   367.22  " /><path style="stroke-width: 0.85 ;&st7;  " d=" M   237.96,   341.73  L   237.96,   367.22  " /><text style="font-size:6px;font-family:'NSimSun';" transform="matrix(&st16;  112.8  375.42 )">9</text><text style="font-size:6px;font-family:'NSimSun';" transform="matrix(&st16;  262.67  375.42 )">14</text><text style="font-size:6px;font-family:'NSimSun';" transform="matrix(&st16;  262.67  338.04 )">21</text><text style="font-size:6px;font-family:'NSimSun';" transform="matrix(&st16;  333.76  375.42 )">4</text><text style="font-size:6px;font-family:'NSimSun';" transform="matrix(&st16;  333.76  338.04 )">6</text><text style="font-size:6px;font-family:'NSimSun';" transform="matrix(&st16;  364.65  375.42 )">15</text><text style="font-size:6px;font-family:'NSimSun';" transform="matrix(&st16;  364.65  338.04 )">17</text><text style="font-size:6px;font-family:'NSimSun';" transform="matrix(&st16;  435.74  375.42 )">2</text><text style="font-size:6px;font-family:'NSimSun';" transform="matrix(&st16;  435.74  338.04 )">5</text><text style="font-size:6px;font-family:'NSimSun';" transform="matrix(&st16;  466.63  375.42 )">13</text><text style="font-size:6px;font-family:'NSimSun';" transform="matrix(&st16;  466.63  338.04 )">16</text><text style="font-size:6px;font-family:'NSimSun';" transform="matrix(&st16;  112.8  338.04 )">1</text><text style="font-size:6px;font-family:'NSimSun';" transform="matrix(&st16;  143.69  375.42 )">20</text><text style="font-size:6px;font-family:'NSimSun';" transform="matrix(&st16;  143.69  338.04 )">12</text><text style="font-size:6px;font-family:'NSimSun';" transform="matrix(&st16;  231.78  375.42 )">3</text><text style="font-size:6px;font-family:'NSimSun';" transform="matrix(&st16;  228.67  338.04 )">10</text><g ewd:figtype="title"><text style="font-size:6px;font-family:'NSimSun';" transform="matrix(&st17;  499.14  370.13 )" ewd:textID="17">2 号 CAN 接线连接器</text><text style="font-size:6px;font-family:'NSimSun';" transform="matrix(&st17;  492.03  370.12 )">E74</text></g></g><g ewd:figtype="conn" ewd:figID="8" ewd:code="E45"><path style="stroke-width: 1.42 ;&st7;  " d=" M     8.50,   494.70  L    76.49,   494.70  L    76.49,   537.20  L     8.50,   537.20  L     8.50,   494.70  " /><g ewd:lineID="1"><text style="font-size:6px;font-family:'NSimSun';" transform="matrix(&st16;  16.8  492.14 )">7</text><path style="stroke-width: 1.42 ;&st7;   " d=" M    30.03,   490.17  C    30.03    487.67     28.00    485.64     25.50    485.64  " /><path style="stroke-width: 1.42 ;&st7;   " d=" M    25.50,   485.64  C    22.99    485.64     20.96    487.67     20.96    490.17  " /><path style="stroke-width: 1.42 ;&st7;   " d=" M    20.96,   490.17  C    20.96    492.67     22.99    494.70     25.50    494.70  " /><path style="stroke-width: 1.42 ;&st7;   " d=" M    25.50,   494.70  C    28.00    494.70     30.03    492.67     30.03    490.17  " /><text style="font-size:6px;font-family:'NSimSun';" transform="matrix(&st16;  23.31  492.14 )">B</text><text style="font-size:6px;font-family:'NSimSun';" transform="matrix(&st16;  16.72  502.34 )">CANH</text></g><g ewd:lineID="4"><text style="font-size:6px;font-family:'NSimSun';" transform="matrix(&st16;  50.8  492.14 )">8</text><path style="stroke-width: 1.42 ;&st7;   " d=" M    64.02,   490.17  C    64.02    487.67     61.99    485.64     59.49    485.64  " /><path style="stroke-width: 1.42 ;&st7;   " d=" M    59.49,   485.64  C    56.99    485.64     54.96    487.67     54.96    490.17  " /><path style="stroke-width: 1.42 ;&st7;   " d=" M    54.96,   490.17  C    54.96    492.67     56.99    494.70     59.49    494.70  " /><path style="stroke-width: 1.42 ;&st7;   " d=" M    59.49,   494.70  C    61.99    494.70     64.02    492.67     64.02    490.17  " /><text style="font-size:6px;font-family:'NSimSun';" transform="matrix(&st16;  57.3  492.14 )">B</text><text style="font-size:6px;font-family:'NSimSun';" transform="matrix(&st16;  51.14  502.34 )">CANL</text></g><g ewd:figtype="title"><text style="font-size:6px;font-family:'NSimSun';" transform="matrix(&st16; 12.09 551.91)" ewd:textID="18">动力转向<tspan x="0 " dy="6.0">ECU 总成</tspan></text><text style="font-size:6px;font-family:'NSimSun';" transform="matrix(&st16; 12.09 544.81)">E45(B)</text></g></g><g ewd:figtype="conn" ewd:figID="10" ewd:code="E46"><path style="stroke-width: 1.42 ;&st7;  " d=" M   101.98,   494.70  L   169.97,   494.70  L   169.97,   537.20  L   101.98,   537.20  L   101.98,   494.70  " /><g ewd:lineID="2"><text style="font-size:6px;font-family:'NSimSun';" transform="matrix(&st16;  110.29  492.14 )">7</text><path style="stroke-width: 1.42 ;&st7;   " d=" M   123.51,   490.17  C   123.51    487.67    121.48    485.64    118.98    485.64  " /><path style="stroke-width: 1.42 ;&st7;   " d=" M   118.98,   485.64  C   116.48    485.64    114.45    487.67    114.45    490.17  " /><path style="stroke-width: 1.42 ;&st7;   " d=" M   114.45,   490.17  C   114.45    492.67    116.48    494.70    118.98    494.70  " /><path style="stroke-width: 1.42 ;&st7;   " d=" M   118.98,   494.70  C   121.48    494.70    123.51    492.67    123.51    490.17  " /><text style="font-size:6px;font-family:'NSimSun';" transform="matrix(&st16;  116.79  492.14 )">B</text><text style="font-size:6px;font-family:'NSimSun';" transform="matrix(&st16;  110.2  502.34 )">CANH</text></g><g ewd:lineID="5"><text style="font-size:6px;font-family:'NSimSun';" transform="matrix(&st16;  144.28  492.14 )">8</text><path style="stroke-width: 1.42 ;&st7;   " d=" M   157.51,   490.17  C   157.51    487.67    155.48    485.64    152.97    485.64  " /><path style="stroke-width: 1.42 ;&st7;   " d=" M   152.97,   485.64  C   150.47    485.64    148.44    487.67    148.44    490.17  " /><path style="stroke-width: 1.42 ;&st7;   " d=" M   148.44,   490.17  C   148.44    492.67    150.47    494.70    152.97    494.70  " /><path style="stroke-width: 1.42 ;&st7;   " d=" M   152.97,   494.70  C   155.48    494.70    157.51    492.67    157.51    490.17  " /><text style="font-size:6px;font-family:'NSimSun';" transform="matrix(&st16;  150.79  492.14 )">B</text><text style="font-size:6px;font-family:'NSimSun';" transform="matrix(&st16;  144.62  502.34 )">CANL</text></g><g ewd:figtype="title"><text style="font-size:6px;font-family:'NSimSun';" transform="matrix(&st16;  98.57  544.81 )">E46(B)</text><text style="font-size:6px;font-family:'NSimSun';" transform="matrix(&st16;  98.58  551.91 )" ewd:textID="18">动力转向<tspan x="0 " dy="6.0">ECU 总成</tspan></text></g></g><g ewd:figtype="conn" ewd:figID="12" ewd:code="E32,E33,E34"><path style="stroke-width: 0.85 ;&st7; stroke-dasharray:3, 1.5;" d=" M   254.96,   481.11  L   246.46,   481.11  " /><path style="stroke-width: 0.85 ;&st7; stroke-dasharray:3, 1.5;" d=" M   254.96,   490.17  L   246.46,   490.17  " /><path style="stroke-width: 1.42 ;&st7;  " d=" M   220.96,   494.70  L   288.95,   494.70  L   288.95,   537.20  L   220.96,   537.20  L   220.96,   494.70  " /><g ewd:lineID="10"><text style="font-size:6px;font-family:'NSimSun';" transform="matrix(&st16;  263.26  543.7 )">4</text><path style="stroke-width: 1.42 ;&st7;   " d=" M   276.49,   541.73  C   276.49    539.22    274.46    537.20    271.95    537.20  " /><path style="stroke-width: 1.42 ;&st7;   " d=" M   271.95,   537.20  C   269.45    537.20    267.42    539.22    267.42    541.73  " /><path style="stroke-width: 1.42 ;&st7;   " d=" M   267.42,   541.73  C   267.42    544.23    269.45    546.26    271.95    546.26  " /><path style="stroke-width: 1.42 ;&st7;   " d=" M   271.95,   546.26  C   274.46    546.26    276.49    544.23    276.49    541.73  " /><text style="font-size:6px;font-family:'NSimSun';" transform="matrix(&st16;  269.57  543.7 )">D</text><text style="font-size:6px;font-family:'NSimSun';" transform="matrix(&st16;  264.11  533.5 )">CNL1</text></g><g ewd:lineID="11"><text style="font-size:6px;font-family:'NSimSun';" transform="matrix(&st16;  260.16  492.14 )">10</text><text style="font-size:6px;font-family:'NSimSun';" transform="matrix(&st16;  260.16  483.07 )">10</text><text style="font-size:6px;font-family:'NSimSun';" transform="matrix(&st16;  269.46  492.14 )">H</text><path style="stroke-width: 1.42 ;&st7;   " d=" M   276.49,   490.17  C   276.49    487.67    274.46    485.64    271.95    485.64  " /><path style="stroke-width: 1.42 ;&st7;   " d=" M   271.95,   485.64  C   269.45    485.64    267.42    487.67    267.42    490.17  " /><path style="stroke-width: 1.42 ;&st7;   " d=" M   267.42,   490.17  C   267.42    492.67    269.45    494.70    271.95    494.70  " /><path style="stroke-width: 1.42 ;&st7;   " d=" M   271.95,   494.70  C   274.46    494.70    276.49    492.67    276.49    490.17  " /><text style="font-size:6px;font-family:'NSimSun';" transform="matrix(&st16;  269.53  483.07 )">C</text><path style="stroke-width: 1.42 ;&st7;   " d=" M   276.49,   481.10  C   276.49    478.60    274.46    476.57    271.95    476.57  " /><path style="stroke-width: 1.42 ;&st7;   " d=" M   271.95,   476.57  C   269.45    476.57    267.42    478.60    267.42    481.10  " /><path style="stroke-width: 1.42 ;&st7;   " d=" M   267.42,   481.10  C   267.42    483.61    269.45    485.64    271.95    485.64  " /><path style="stroke-width: 1.42 ;&st7;   " d=" M   271.95,   485.64  C   274.46    485.64    276.49    483.61    276.49    481.10  " /><text style="font-size:6px;font-family:'NSimSun';" transform="matrix(&st16;  263.6  502.34 )">CANL</text></g><g ewd:lineID="7"><text style="font-size:6px;font-family:'NSimSun';" transform="matrix(&st16;  229.27  543.7 )">3</text><path style="stroke-width: 1.42 ;&st7;   " d=" M   242.49,   541.73  C   242.49    539.22    240.46    537.20    237.96    537.20  " /><path style="stroke-width: 1.42 ;&st7;   " d=" M   237.96,   537.20  C   235.46    537.20    233.43    539.22    233.43    541.73  " /><path style="stroke-width: 1.42 ;&st7;   " d=" M   233.43,   541.73  C   233.43    544.23    235.46    546.26    237.96    546.26  " /><path style="stroke-width: 1.42 ;&st7;   " d=" M   237.96,   546.26  C   240.46    546.26    242.49    544.23    242.49    541.73  " /><text style="font-size:6px;font-family:'NSimSun';" transform="matrix(&st16;  235.58  543.7 )">D</text><text style="font-size:6px;font-family:'NSimSun';" transform="matrix(&st16;  229.68  533.5 )">CNH1</text></g><g ewd:lineID="8"><text style="font-size:6px;font-family:'NSimSun';" transform="matrix(&st16;  229.27  483.07 )">9</text><text style="font-size:6px;font-family:'NSimSun';" transform="matrix(&st16;  229.27  492.14 )">9</text><text style="font-size:6px;font-family:'NSimSun';" transform="matrix(&st16;  235.54  483.07 )">C</text><path style="stroke-width: 1.42 ;&st7;   " d=" M   242.49,   490.17  C   242.49    487.67    240.46    485.64    237.96    485.64  " /><path style="stroke-width: 1.42 ;&st7;   " d=" M   237.96,   485.64  C   235.46    485.64    233.43    487.67    233.43    490.17  " /><path style="stroke-width: 1.42 ;&st7;   " d=" M   233.43,   490.17  C   233.43    492.67    235.46    494.70    237.96    494.70  " /><path style="stroke-width: 1.42 ;&st7;   " d=" M   237.96,   494.70  C   240.46    494.70    242.49    492.67    242.49    490.17  " /><path style="stroke-width: 1.42 ;&st7;   " d=" M   242.49,   481.10  C   242.49    478.60    240.46    476.57    237.96    476.57  " /><path style="stroke-width: 1.42 ;&st7;   " d=" M   237.96,   476.57  C   235.46    476.57    233.43    478.60    233.43    481.10  " /><path style="stroke-width: 1.42 ;&st7;   " d=" M   233.43,   481.10  C   233.43    483.61    235.46    485.64    237.96    485.64  " /><path style="stroke-width: 1.42 ;&st7;   " d=" M   237.96,   485.64  C   240.46    485.64    242.49    483.61    242.49    481.10  " /><text style="font-size:6px;font-family:'NSimSun';" transform="matrix(&st16;  235.46  492.14 )">H</text><text style="font-size:6px;font-family:'NSimSun';" transform="matrix(&st16;  229.18  502.34 )">CANH</text></g><g ewd:figtype="title"><text style="font-size:6px;font-family:'NSimSun';" transform="matrix(&st17;  203.1  540.1 )" ewd:textID="14">导航接收器总成</text><text style="font-size:6px;font-family:'NSimSun';" transform="matrix(&st17;  196.28  540.09 )">E32(C),E34(D)</text><text style="font-size:6px;font-family:'NSimSun';" transform="matrix(&st17;  217.27  540.1 )" ewd:textID="19">无线电收音机和显示屏接收器总成</text><text style="font-size:6px;font-family:'NSimSun';" transform="matrix(&st17;  210.44  540.09 )">E33(H)</text></g></g><g ewd:figtype="conn" ewd:figID="14" ewd:code="E55"><path style="stroke-width: 1.42 ;&st7;  " d=" M   322.95,   494.70  L   390.93,   494.70  L   390.93,   537.20  L   322.95,   537.20  L   322.95,   494.70  " /><g ewd:lineID="10"><text style="font-size:6px;font-family:'NSimSun';" transform="matrix(&st16;  328.15  543.7 )">28</text><path style="stroke-width: 1.42 ;&st7;   " d=" M   344.48,   541.73  C   344.48    539.22    342.45    537.20    339.94    537.20  " /><path style="stroke-width: 1.42 ;&st7;   " d=" M   339.94,   537.20  C   337.44    537.20    335.41    539.22    335.41    541.73  " /><path style="stroke-width: 1.42 ;&st7;   " d=" M   335.41,   541.73  C   335.41    544.23    337.44    546.26    339.94    546.26  " /><path style="stroke-width: 1.42 ;&st7;   " d=" M   339.94,   546.26  C   342.45    546.26    344.48    544.23    344.48    541.73  " /><text style="font-size:6px;font-family:'NSimSun';" transform="matrix(&st16;  337.64  543.7 )">A</text><text style="font-size:6px;font-family:'NSimSun';" transform="matrix(&st16;  331.67  533.5 )">MSCL</text></g><g ewd:lineID="13"><text style="font-size:6px;font-family:'NSimSun';" transform="matrix(&st16;  328.15  492.14 )">32</text><text style="font-size:6px;font-family:'NSimSun';" transform="matrix(&st16;  337.64  492.14 )">A</text><path style="stroke-width: 1.42 ;&st7;   " d=" M   344.48,   490.17  C   344.48    487.67    342.45    485.64    339.94    485.64  " /><path style="stroke-width: 1.42 ;&st7;   " d=" M   339.94,   485.64  C   337.44    485.64    335.41    487.67    335.41    490.17  " /><path style="stroke-width: 1.42 ;&st7;   " d=" M   335.41,   490.17  C   335.41    492.67    337.44    494.70    339.94    494.70  " /><path style="stroke-width: 1.42 ;&st7;   " d=" M   339.94,   494.70  C   342.45    494.70    344.48    492.67    344.48    490.17  " /><text style="font-size:6px;font-family:'NSimSun';" transform="matrix(&st16;  331.16  502.34 )">CANH</text></g><g ewd:lineID="15"><text style="font-size:6px;font-family:'NSimSun';" transform="matrix(&st16;  362.14  492.14 )">31</text><path style="stroke-width: 1.42 ;&st7;   " d=" M   378.47,   490.17  C   378.47    487.67    376.44    485.64    373.94    485.64  " /><path style="stroke-width: 1.42 ;&st7;   " d=" M   373.94,   485.64  C   371.43    485.64    369.40    487.67    369.40    490.17  " /><path style="stroke-width: 1.42 ;&st7;   " d=" M   369.40,   490.17  C   369.40    492.67    371.43    494.70    373.94    494.70  " /><path style="stroke-width: 1.42 ;&st7;   " d=" M   373.94,   494.70  C   376.44    494.70    378.47    492.67    378.47    490.17  " /><text style="font-size:6px;font-family:'NSimSun';" transform="matrix(&st16;  371.63  492.14 )">A</text><text style="font-size:6px;font-family:'NSimSun';" transform="matrix(&st16;  365.58  502.34 )">CANL</text></g><g ewd:lineID="7"><text style="font-size:6px;font-family:'NSimSun';" transform="matrix(&st16;  362.14  543.7 )">29</text><text style="font-size:6px;font-family:'NSimSun';" transform="matrix(&st16;  371.63  543.7 )">A</text><path style="stroke-width: 1.42 ;&st7;   " d=" M   378.47,   541.73  C   378.47    539.22    376.44    537.20    373.94    537.20  " /><path style="stroke-width: 1.42 ;&st7;   " d=" M   373.94,   537.20  C   371.43    537.20    369.40    539.22    369.40    541.73  " /><path style="stroke-width: 1.42 ;&st7;   " d=" M   369.40,   541.73  C   369.40    544.23    371.43    546.26    373.94    546.26  " /><path style="stroke-width: 1.42 ;&st7;   " d=" M   373.94,   546.26  C   376.44    546.26    378.47    544.23    378.47    541.73  " /><text style="font-size:6px;font-family:'NSimSun';" transform="matrix(&st16;  365.24  533.5 )">MSCH</text></g><g ewd:figtype="title"><text style="font-size:6px;font-family:'NSimSun';" transform="matrix(&st17;  405.65  540.1 )" ewd:textID="12">组合仪表总成</text><text style="font-size:6px;font-family:'NSimSun';" transform="matrix(&st17;  398.83  540.09 )">E55(A)</text></g></g><g ewd:code="" ewd:figID="33" ewd:comment="14" ewd:figtype="commref"><text style="font-size:6px;font-family:'NSimSun';" transform="matrix(&st16;  277.05  483.07 )">(*14)</text></g><g ewd:code="" ewd:figID="34" ewd:comment="15" ewd:figtype="commref"><text style="font-size:6px;font-family:'NSimSun';" transform="matrix(&st16;  277.05  492.14 )">(*15)</text></g></svg>