<?xml version="1.0" encoding="utf-8"?>
<!DOCTYPE svg PUBLIC "-//W3C//DTD SVG 1.0//EN" "http://www.w3.org/TR/2001/REC-SVG-20010904/DTD/svg10.dtd"[
	<!ENTITY ns_flows "http://ns.adobe.com/Flows/1.0/">
	<!ENTITY ns_svg "http://www.w3.org/2000/svg">
	<!ENTITY ns_xlink "http://www.w3.org/1999/xlink">
	<!ENTITY st0 "font-size:7px;font-family:'NSimSun';adobe-font-script:japanese;">
	<!ENTITY st1 "font-size:6px;font-family:'NSimSun';">
	<!-- White fill  -->
	<!ENTITY st2 "fill:#FFFFFF;stroke:#000000; stroke-width:1.41;stroke-linecap:round;stroke-linejoin:round;">
	<!-- Yellow fill  -->
	<!ENTITY st3 "fill:#FFFFCC;stroke:#FFFFCC; stroke-width:0.1;stroke-linecap:round;stroke-linejoin:round;">
	<!-- Gray fill  -->
	<!ENTITY st4 "fill:#CCCCCC;stroke:#CCCCCC; stroke-width:0.1;stroke-linecap:round;stroke-linejoin:round;">
	<!-- Light-blue fill -->
	<!ENTITY st5 "fill:#CCECF4;stroke:#000000; stroke-width:1.133;stroke-linecap:round;stroke-linejoin:round;">
	<!ENTITY st6 "fill:none;stroke-linecap:butt; stroke-linejoin:round;">
	<!ENTITY st7 "fill:none;stroke:#000000;stroke-linecap:round;stroke-linejoin:round;">
	<!ENTITY st8 "enable-background:new    ;">
	<!-- Black fill -->
	<!ENTITY st9 "fill:#000000;stroke:#000000; stroke-linecap:round;stroke-linejoin:round;">
	<!-- SRS note   -->
	<!ENTITY st10 "font-size:9px;font-family:'NSimSun';">
	<!ENTITY st11 "font-size:9px;font-family:'NSimSun';">
	<!ENTITY st12 "font-size:6px;font-family:'NSimSun';">
	<!ENTITY st13 "fill:none;stroke:#ff0000;stroke-linecap:round;stroke-linejoin:round;">
	<!-- Yellow fill  -->
	<!ENTITY st14 "fill:#FFFF00;stroke:#FFFF00; stroke-width:0.1;stroke-linecap:round;stroke-linejoin:round;">
	<!ENTITY st15 "font-size:6px;font-family:'NSimSun';adobe-font-script:japanese;">
	<!ENTITY st16 "1.00 0.00 0.00 1.00">
	<!ENTITY st17 "0.00 -1.00 1.00 0.00">
	<!ENTITY st18 "font-size:6px;font-family:'NSimSun';">
	<!ENTITY st19 "font-size:9px;font-family:'NSimSun';">
	<!ENTITY st20 "font-size:6px;font-family:'NSimSun';adobe-font-script:japanese;">
	<!ENTITY st21 "font-size:7px;font-family:'NSimSun';adobe-font-script:japanese;">
	<!ATTLIST svg
		xmlns:ewd CDATA #FIXED "http://shcl.co.jp/ewd"
		xmlns:a CDATA #FIXED "http://ns.adobe.com/AdobeSVGViewerExtensions/3.0/"
		ewd:ver CDATA #IMPLIED
	>
	<!ATTLIST a
		ewd:lineID CDATA #IMPLIED
		ewd:groupID CDATA #IMPLIED
		ewd:figtype CDATA #IMPLIED
		ewd:code CDATA #IMPLIED
		ewd:figID CDATA #IMPLIED
		ewd:pinNo CDATA #IMPLIED
		ewd:comment CDATA #IMPLIED >
	<!ATTLIST g
		ewd:lineID CDATA #IMPLIED
		ewd:groupID CDATA #IMPLIED
		ewd:figtype CDATA #IMPLIED
		ewd:code CDATA #IMPLIED
		ewd:figID CDATA #IMPLIED
		ewd:pinNo CDATA #IMPLIED
		ewd:comment CDATA #IMPLIED >
	<!ATTLIST text
		ewd:textID CDATA #IMPLIED
		ewd:horAlign CDATA #IMPLIED >
	<!ATTLIST title
		ewd:textID CDATA #IMPLIED >
]>
<!-- Generator: Shintec Hozumi YS   -->
<svg onload="call_execInitLoadProc_svg('system')" style="overflow:visible;  enable-background:new 0 0 1010.263 710.000" viewBox="0 0 993.954 710.000" height="710.000" width="993.954" xml:space="preserve" ewd:ver="2.1.2.6F" xmlns="&ns_svg;" xmlns:ewd="http://shcl.co.jp/ewd" xmlns:a="http://ns.adobe.com/AdobeSVGViewerExtensions/3.0/" xmlns:xlink="&ns_xlink;"><script type="text/javascript" xlink:href="../../../../../system/js/ewd/fig/svgfig.js" xmlns:xlink="http://www.w3.org/1999/xlink" />
<g id="ewd_top"><a ewd:figtype="conn" style="cursor:pointer;" ewd:code="E62" ewd:figID="1"><path style="&st5;" d=" M   212.46,   112.27  L   212.46,   154.76  L   280.45,   154.76  L   280.45,   112.27  L   212.46,   112.27 " /><title ewd:textID="21">转向传感器</title></a><a ewd:figtype="conn" style="cursor:pointer;" ewd:code="E19" ewd:figID="2"><path style="&st5;" d=" M   101.98,   112.27  L   101.98,   154.76  L   169.97,   154.76  L   169.97,   112.27  L   101.98,   112.27 " /><title ewd:textID="10">空气囊 ECU 总成</title></a><a ewd:figtype="conn" style="cursor:pointer;" ewd:code="E43" ewd:figID="3"><path style="&st5;" d=" M   416.43,   477.71  L   484.42,   477.71  L   484.42,   520.20  L   416.43,   520.20  L   416.43,   477.71 " /><title ewd:textID="8">空调放大器总成</title></a><a ewd:figtype="conn" style="cursor:pointer;" ewd:code="E32,E33,E34" ewd:figID="4"><path style="&st5;" d=" M   212.46,   477.71  L   280.45,   477.71  L   280.45,   520.20  L   212.46,   520.20  L   212.46,   477.71 " /><title ewd:textID="16">导航接收器总成、无线电收音机和显示屏接收器总成</title></a><a ewd:figtype="conn" style="cursor:pointer;" ewd:code="E49" ewd:figID="5"><path style="&st5;" d=" M   314.45,   112.27  L   314.45,   154.76  L   382.44,   154.76  L   382.44,   112.27  L   314.45,   112.27 " /><title ewd:textID="12">认证 ECU</title></a><a ewd:figtype="conn" style="cursor:pointer;" ewd:code="E55" ewd:figID="6"><path style="&st5;" d=" M   314.45,   477.71  L   382.44,   477.71  L   382.44,   520.20  L   314.45,   520.20  L   314.45,   477.71 " /><title ewd:textID="13">组合仪表总成</title></a><a ewd:figtype="conn" style="cursor:pointer;" ewd:code="E46" ewd:figID="7"><path style="&st5;" d=" M   101.98,   477.71  L   169.97,   477.71  L   169.97,   520.20  L   101.98,   520.20  L   101.98,   477.71 " /><title ewd:textID="19">动力转向 ECU 总成</title></a><a ewd:figtype="conn" style="cursor:pointer;" ewd:code="E45" ewd:figID="8"><path style="&st5;" d=" M    17.00,   477.71  L    84.99,   477.71  L    84.99,   520.20  L    17.00,   520.20  L    17.00,   477.71 " /><title ewd:textID="19">动力转向 ECU 总成</title></a><a ewd:figtype="conn" style="cursor:pointer;" ewd:code="E74" ewd:figID="9"><path style="&st5;" d=" M   475.92,   350.23  L   475.92,   324.73  L   110.48,   324.73  L   110.48,   350.23  L   475.92,   350.23 " /><title ewd:textID="18">2 号 CAN 接线连接器</title></a><a ewd:figtype="conn" style="cursor:pointer;" ewd:code="E11" ewd:figID="10"><path style="&st5;" d=" M   560.91,   477.71  L   628.89,   477.71  L   628.89,   520.20  L   560.91,   520.20  L   560.91,   477.71 " /><title ewd:textID="8">空调放大器总成</title></a><a ewd:figtype="conn" style="cursor:pointer;" ewd:code="A41,A42" ewd:figID="11"><path style="&st5;" d=" M   662.89,   477.71  L   730.88,   477.71  L   730.88,   520.20  L   662.89,   520.20  L   662.89,   477.71 " /><title ewd:textID="11">制动执行器总成</title></a><a ewd:figtype="conn" style="cursor:pointer;" ewd:code="A40" ewd:figID="12"><path style="&st5;" d=" M   764.87,   477.71  L   832.86,   477.71  L   832.86,   520.20  L   764.87,   520.20  L   764.87,   477.71 " /><title>ECM</title></a><a ewd:figtype="conn" style="cursor:pointer;" ewd:code="E18" ewd:figID="13"><path style="&st5;" d=" M   764.87,   112.27  L   764.87,   154.76  L   832.86,   154.76  L   832.86,   112.27  L   764.87,   112.27 " /><title>DLC3</title></a><a ewd:figtype="conn" style="cursor:pointer;" ewd:code="A39" ewd:figID="14"><path style="&st5;" d=" M   926.35,   350.23  L   926.35,   324.73  L   671.39,   324.73  L   671.39,   350.23  L   926.35,   350.23 " /><title ewd:textID="17">1 号 CAN 接线连接器</title></a><a ewd:figtype="conn" style="cursor:pointer;" ewd:code="E36" ewd:figID="15"><path style="&st5;" d=" M   866.86,   112.27  L   866.86,   154.76  L   934.84,   154.76  L   934.84,   112.27  L   866.86,   112.27 " /><title ewd:textID="14">主车身 ECU</title></a><a ewd:comment="6" style="cursor:pointer;" ewd:lineID="1"><path style="stroke:#999999;stroke-width: 5.10 ;&st6;" d=" M   118.98,   350.23  L   118.98,   358.73  L   110.48,   367.22  L    33.99,   367.22  L    33.99,   468.64  " /></a><a ewd:comment="7" style="cursor:pointer;" ewd:lineID="2"><path style="stroke:#999999;stroke-width: 5.10 ;&st6;" d=" M   118.98,   350.23  L   118.98,   468.64  " /></a><a style="cursor:pointer;" ewd:lineID="3"><path style="stroke:#56077D;stroke-width: 5.10 ;&st6;" d=" M   118.98,   163.82  L   118.98,   324.73  " /></a><a ewd:comment="6" style="cursor:pointer;" ewd:lineID="4"> d=" M   152.97,   350.23  L   152.97,   358.73  L   135.98,   375.72  L   135.98,   384.22  L    67.99,   384.22  L    67.99,   468.64 
	
		<path style="stroke:#000000;stroke-width: 5.10 ;&st6;" d=" M   152.97,   350.23  L   152.97,   358.73  L   135.98,   375.72  L   135.98,   384.22  L    67.99,   384.22  L    67.99,   468.64  " /><path style="stroke:#FFFFFF;stroke-width: 4.53 ;&st6;" d=" M   152.97,   350.23  L   152.97,   358.73  L   135.98,   375.72  L   135.98,   384.22  L    67.99,   384.22  L    67.99,   468.64  " /></a><a ewd:comment="7" style="cursor:pointer;" ewd:lineID="5"> d=" M   152.97,   350.23  L   152.97,   468.64 
	
		<path style="stroke:#000000;stroke-width: 5.10 ;&st6;" d=" M   152.97,   350.23  L   152.97,   468.64  " /><path style="stroke:#FFFFFF;stroke-width: 4.53 ;&st6;" d=" M   152.97,   350.23  L   152.97,   468.64  " /></a><a style="cursor:pointer;" ewd:lineID="6"> d=" M   152.97,   163.82  L   152.97,   324.73 
	
		<path style="stroke:#000000;stroke-width: 5.10 ;&st6;" d=" M   152.97,   163.82  L   152.97,   324.73  " /><path style="stroke:#FFFFFF;stroke-width: 4.53 ;&st6;" d=" M   152.97,   163.82  L   152.97,   324.73  " /></a><a ewd:comment="14" style="cursor:pointer;" ewd:lineID="7"><path style="stroke:#FF0000;stroke-width: 5.10 ;&st6;" d=" M   229.46,   529.26  L   229.46,   571.19  L   365.44,   571.19  L   365.44,   529.26  " /></a><a style="cursor:pointer;" ewd:lineID="8"><path style="stroke:#008837;stroke-width: 5.10 ;&st6;" d=" M   229.46,   459.58  L   229.46,   350.23  " /></a><a ewd:comment="1" style="cursor:pointer;" ewd:lineID="9"><path style="stroke:#99D9E8;stroke-width: 5.10 ;&st6;" d=" M   229.46,   154.76  L   229.46,   324.73  " /></a><a ewd:comment="14" style="cursor:pointer;" ewd:lineID="10"> d=" M   263.46,   529.26  L   263.46,   545.69  L   331.44,   545.69  L   331.44,   529.26 
	
		<path style="stroke:#000000;stroke-width: 5.10 ;&st6;" d=" M   263.46,   529.26  L   263.46,   545.69  L   331.44,   545.69  L   331.44,   529.26  " /><path style="stroke:#FFFFFF;stroke-width: 4.53 ;&st6;" d=" M   263.46,   529.26  L   263.46,   545.69  L   331.44,   545.69  L   331.44,   529.26  " /></a><a style="cursor:pointer;" ewd:lineID="11"> d=" M   263.46,   350.23  L   263.46,   459.58 
	
		<path style="stroke:#000000;stroke-width: 5.10 ;&st6;" d=" M   263.46,   350.23  L   263.46,   459.58  " /><path style="stroke:#FFFFFF;stroke-width: 4.53 ;&st6;" d=" M   263.46,   350.23  L   263.46,   459.58  " /></a><a ewd:comment="1" style="cursor:pointer;" ewd:lineID="12"> d=" M   263.46,   154.76  L   263.46,   324.73 
	
		<path style="stroke:#000000;stroke-width: 5.10 ;&st6;" d=" M   263.46,   154.76  L   263.46,   324.73  " /><path style="stroke:#FFFFFF;stroke-width: 4.53 ;&st6;" d=" M   263.46,   154.76  L   263.46,   324.73  " /></a><a style="cursor:pointer;" ewd:lineID="13"><path style="stroke:#7FC97F;stroke-width: 5.10 ;&st6;" d=" M   331.44,   468.64  L   331.44,   350.23  " /></a><a ewd:comment="4" style="cursor:pointer;" ewd:lineID="14"><path style="stroke:#FF0000;stroke-width: 5.10 ;&st6;" d=" M   331.44,   163.82  L   331.44,   324.73  " /></a><a style="cursor:pointer;" ewd:lineID="15"> d=" M   365.44,   350.23  L   365.44,   468.64 
	
		<path style="stroke:#000000;stroke-width: 5.10 ;&st6;" d=" M   365.44,   350.23  L   365.44,   468.64  " /><path style="stroke:#FFFFFF;stroke-width: 4.53 ;&st6;" d=" M   365.44,   350.23  L   365.44,   468.64  " /></a><a ewd:comment="4" style="cursor:pointer;" ewd:lineID="16"> d=" M   365.44,   163.82  L   365.44,   324.73 
	
		<path style="stroke:#000000;stroke-width: 5.10 ;&st6;" d=" M   365.44,   163.82  L   365.44,   324.73  " /><path style="stroke:#FFFFFF;stroke-width: 4.53 ;&st6;" d=" M   365.44,   163.82  L   365.44,   324.73  " /></a><a ewd:comment="2" style="cursor:pointer;" ewd:lineID="17"><path style="stroke:#FFE600;stroke-width: 5.10 ;&st6;" d=" M   433.43,   468.64  L   433.43,   350.23  " /></a><a style="cursor:pointer;" ewd:lineID="18"><path style="stroke:#00A0C6;stroke-width: 5.10 ;&st6;" d=" M   433.43,   324.73  L   433.43,   163.26  L   713.88,   163.26  L   713.88,   216.52  " /></a><a ewd:comment="2" style="cursor:pointer;" ewd:lineID="19"> d=" M   467.42,   350.23  L   467.42,   468.64 
	
		<path style="stroke:#000000;stroke-width: 5.10 ;&st6;" d=" M   467.42,   350.23  L   467.42,   468.64  " /><path style="stroke:#FFFFFF;stroke-width: 4.53 ;&st6;" d=" M   467.42,   350.23  L   467.42,   468.64  " /></a><a style="cursor:pointer;" ewd:lineID="20"> d=" M   467.42,   324.73  L   467.42,   180.26  L   679.89,   180.26  L   679.89,   216.23 
	
		<path style="stroke:#000000;stroke-width: 5.10 ;&st6;" d=" M   467.42,   324.73  L   467.42,   180.26  L   679.89,   180.26  L   679.89,   216.23  " /><path style="stroke:#FFFFFF;stroke-width: 4.53 ;&st6;" d=" M   467.42,   324.73  L   467.42,   180.26  L   679.89,   180.26  L   679.89,   216.23  " /></a><a ewd:comment="3" style="cursor:pointer;" ewd:lineID="21"><path style="stroke:#FFE600;stroke-width: 5.10 ;&st6;" d=" M   577.90,   477.71  L   577.90,   392.72  L   450.42,   392.72  L   450.42,   375.72  L   433.43,   358.73  L   433.43,   350.23  " /></a><a ewd:comment="3" style="cursor:pointer;" ewd:lineID="22"> d=" M   611.90,   477.71  L   611.90,   367.22  L   475.92,   367.22  L   467.42,   358.73  L   467.42,   350.23 
	
		<path style="stroke:#000000;stroke-width: 5.10 ;&st6;" d=" M   611.90,   477.71  L   611.90,   367.22  L   475.92,   367.22  L   467.42,   358.73  L   467.42,   350.23  " /><path style="stroke:#FFFFFF;stroke-width: 4.53 ;&st6;" d=" M   611.90,   477.71  L   611.90,   367.22  L   475.92,   367.22  L   467.42,   358.73  L   467.42,   350.23  " /></a><a style="cursor:pointer;" ewd:lineID="23"> d=" M   679.89,   350.23  L   679.89,   459.58 
	
		<path style="stroke:#000000;stroke-width: 5.10 ;&st6;" d=" M   679.89,   350.23  L   679.89,   459.58  " /><path style="stroke:#FFFFFF;stroke-width: 4.53 ;&st6;" d=" M   679.89,   350.23  L   679.89,   459.58  " /></a><a style="cursor:pointer;" ewd:lineID="24"> d=" M   679.89,   231.25  L   679.89,   324.73 
	
		<path style="stroke:#000000;stroke-width: 5.10 ;&st6;" d=" M   679.89,   231.25  L   679.89,   324.73  " /><path style="stroke:#FFFFFF;stroke-width: 4.53 ;&st6;" d=" M   679.89,   231.25  L   679.89,   324.73  " /></a><a style="cursor:pointer;" ewd:lineID="25"><path style="stroke:#56077D;stroke-width: 5.10 ;&st6;" d=" M   713.88,   350.23  L   713.88,   459.58  " /></a><a style="cursor:pointer;" ewd:lineID="26"><path style="stroke:#00A0C6;stroke-width: 5.10 ;&st6;" d=" M   713.88,   231.25  L   713.88,   324.73  " /></a><a style="cursor:pointer;" ewd:lineID="27"> d=" M   781.87,   350.23  L   781.87,   468.64 
	
		<path style="stroke:#000000;stroke-width: 5.10 ;&st6;" d=" M   781.87,   350.23  L   781.87,   468.64  " /><path style="stroke:#FFFFFF;stroke-width: 4.53 ;&st6;" d=" M   781.87,   350.23  L   781.87,   468.64  " /></a><a style="cursor:pointer;" ewd:lineID="28"> d=" M   781.87,   231.25  L   781.87,   324.73 
	
		<path style="stroke:#000000;stroke-width: 5.10 ;&st6;" d=" M   781.87,   231.25  L   781.87,   324.73  " /><path style="stroke:#FFFFFF;stroke-width: 4.53 ;&st6;" d=" M   781.87,   231.25  L   781.87,   324.73  " /></a><a style="cursor:pointer;" ewd:lineID="29"> d=" M   781.87,   154.76  L   781.87,   216.23 
	
		<path style="stroke:#000000;stroke-width: 5.10 ;&st6;" d=" M   781.87,   154.76  L   781.87,   216.23  " /><path style="stroke:#FFFFFF;stroke-width: 4.53 ;&st6;" d=" M   781.87,   154.76  L   781.87,   216.23  " /></a><a style="cursor:pointer;" ewd:lineID="30"><path style="stroke:#000000;stroke-width: 5.10 ;&st6;" d=" M   815.86,   350.23  L   815.86,   468.64  " /></a><a style="cursor:pointer;" ewd:lineID="31"><path style="stroke:#FF0000;stroke-width: 5.10 ;&st6;" d=" M   815.86,   231.25  L   815.86,   324.73  " /></a><a style="cursor:pointer;" ewd:lineID="32"><path style="stroke:#FF0000;stroke-width: 5.10 ;&st6;" d=" M   815.86,   154.76  L   815.86,   216.52  " /></a><a style="cursor:pointer;" ewd:lineID="33"> d=" M   883.85,   231.25  L   883.85,   324.73 
	
		<path style="stroke:#000000;stroke-width: 5.10 ;&st6;" d=" M   883.85,   231.25  L   883.85,   324.73  " /><path style="stroke:#FFFFFF;stroke-width: 4.53 ;&st6;" d=" M   883.85,   231.25  L   883.85,   324.73  " /></a><a style="cursor:pointer;" ewd:lineID="34"> d=" M   883.85,   163.82  L   883.85,   216.23 
	
		<path style="stroke:#000000;stroke-width: 5.10 ;&st6;" d=" M   883.85,   163.82  L   883.85,   216.23  " /><path style="stroke:#FFFFFF;stroke-width: 4.53 ;&st6;" d=" M   883.85,   163.82  L   883.85,   216.23  " /></a><a style="cursor:pointer;" ewd:lineID="35"><path style="stroke:#008837;stroke-width: 5.10 ;&st6;" d=" M   917.85,   231.25  L   917.85,   324.73  " /></a><a style="cursor:pointer;" ewd:lineID="36"><path style="stroke:#008837;stroke-width: 5.10 ;&st6;" d=" M   917.85,   163.82  L   917.85,   216.52  " /></a><a ewd:figtype="w2w" style="cursor:pointer;" ewd:pinNo="3" ewd:code="AE4" ewd:figID="16"><path style="&st2;" d=" M   688.38,   222.75  L   671.39,   222.75  L   671.39,   231.25  L   688.38,   231.25  L   688.38,   222.75 " /><text style="&st8;" transform="matrix(&st16;  674.58  229.12 )"><tspan x="0" style="font-size:6px;font-family:'NSimSun';" y="0">AE4</tspan></text></a><a ewd:figtype="w2w" style="cursor:pointer;" ewd:pinNo="4" ewd:code="AE4" ewd:figID="17"><path style="&st2;" d=" M   722.38,   222.75  L   705.38,   222.75  L   705.38,   231.25  L   722.38,   231.25  L   722.38,   222.75 " /><text style="&st8;" transform="matrix(&st16;  708.58  229.12 )"><tspan x="0" style="font-size:6px;font-family:'NSimSun';" y="0">AE4</tspan></text></a><a ewd:figtype="w2w" style="cursor:pointer;" ewd:pinNo="9" ewd:code="AE3" ewd:figID="18"><path style="&st2;" d=" M   790.37,   222.75  L   773.37,   222.75  L   773.37,   231.25  L   790.37,   231.25  L   790.37,   222.75 " /><text style="&st8;" transform="matrix(&st16;  776.56  229.12 )"><tspan x="0" style="font-size:6px;font-family:'NSimSun';" y="0">AE3</tspan></text></a><a ewd:figtype="w2w" style="cursor:pointer;" ewd:pinNo="8" ewd:code="AE3" ewd:figID="19"><path style="&st2;" d=" M   824.36,   222.75  L   807.37,   222.75  L   807.37,   231.25  L   824.36,   231.25  L   824.36,   222.75 " /><text style="&st8;" transform="matrix(&st16;  810.56  229.12 )"><tspan x="0" style="font-size:6px;font-family:'NSimSun';" y="0">AE3</tspan></text></a><a ewd:figtype="w2w" style="cursor:pointer;" ewd:pinNo="5" ewd:code="AE2" ewd:figID="20"><path style="&st2;" d=" M   892.35,   222.75  L   875.35,   222.75  L   875.35,   231.25  L   892.35,   231.25  L   892.35,   222.75 " /><text style="&st8;" transform="matrix(&st16;  878.55  229.12 )"><tspan x="0" style="font-size:6px;font-family:'NSimSun';" y="0">AE2</tspan></text></a><a ewd:figtype="w2w" style="cursor:pointer;" ewd:pinNo="4" ewd:code="AE2" ewd:figID="21"><path style="&st2;" d=" M   926.35,   222.75  L   909.35,   222.75  L   909.35,   231.25  L   926.35,   231.25  L   926.35,   222.75 " /><text style="&st8;" transform="matrix(&st16;  912.54  229.12 )"><tspan x="0" style="font-size:6px;font-family:'NSimSun';" y="0">AE2</tspan></text></a></g></svg>