<?xml version="1.0" encoding="utf-8"?>
<!DOCTYPE svg PUBLIC "-//W3C//DTD SVG 1.0//EN" "http://www.w3.org/TR/2001/REC-SVG-20010904/DTD/svg10.dtd"[
	<!ENTITY ns_flows "http://ns.adobe.com/Flows/1.0/">
	<!ENTITY ns_svg "http://www.w3.org/2000/svg">
	<!ENTITY ns_xlink "http://www.w3.org/1999/xlink">
	<!ENTITY st0 "font-size:7px;font-family:'NSimSun';adobe-font-script:japanese;">
	<!ENTITY st1 "font-size:6px;font-family:'NSimSun';">
	<!-- White fill  -->
	<!ENTITY st2 "fill:#FFFFFF;stroke:#000000; stroke-width:1.41;stroke-linecap:round;stroke-linejoin:round;">
	<!-- Yellow fill  -->
	<!ENTITY st3 "fill:#FFFFCC;stroke:#FFFFCC; stroke-width:0.1;stroke-linecap:round;stroke-linejoin:round;">
	<!-- Gray fill  -->
	<!ENTITY st4 "fill:#CCCCCC;stroke:#CCCCCC; stroke-width:0.1;stroke-linecap:round;stroke-linejoin:round;">
	<!-- Light-blue fill -->
	<!ENTITY st5 "fill:#CCECF4;stroke:#000000; stroke-width:1.133;stroke-linecap:round;stroke-linejoin:round;">
	<!ENTITY st6 "fill:none;stroke-linecap:butt; stroke-linejoin:round;">
	<!ENTITY st7 "fill:none;stroke:#000000;stroke-linecap:round;stroke-linejoin:round;">
	<!ENTITY st8 "enable-background:new    ;">
	<!-- Black fill -->
	<!ENTITY st9 "fill:#000000;stroke:#000000; stroke-linecap:round;stroke-linejoin:round;">
	<!-- SRS note   -->
	<!ENTITY st10 "font-size:9px;font-family:'NSimSun';">
	<!ENTITY st11 "font-size:9px;font-family:'NSimSun';">
	<!ENTITY st12 "font-size:6px;font-family:'NSimSun';">
	<!ENTITY st13 "fill:none;stroke:#ff0000;stroke-linecap:round;stroke-linejoin:round;">
	<!-- Yellow fill  -->
	<!ENTITY st14 "fill:#FFFF00;stroke:#FFFF00; stroke-width:0.1;stroke-linecap:round;stroke-linejoin:round;">
	<!ENTITY st15 "font-size:6px;font-family:'NSimSun';adobe-font-script:japanese;">
	<!ENTITY st16 "1.00 0.00 0.00 1.00">
	<!ENTITY st17 "0.00 -1.00 1.00 0.00">
	<!ENTITY st18 "font-size:6px;font-family:'NSimSun';">
	<!ENTITY st19 "font-size:9px;font-family:'NSimSun';">
	<!ENTITY st20 "font-size:6px;font-family:'NSimSun';adobe-font-script:japanese;">
	<!ENTITY st21 "font-size:7px;font-family:'NSimSun';adobe-font-script:japanese;">
	<!ATTLIST svg
		xmlns:ewd CDATA #FIXED "http://shcl.co.jp/ewd"
		xmlns:a CDATA #FIXED "http://ns.adobe.com/AdobeSVGViewerExtensions/3.0/"
		ewd:ver CDATA #IMPLIED
	>
	<!ATTLIST a
		ewd:lineID CDATA #IMPLIED
		ewd:groupID CDATA #IMPLIED
		ewd:figtype CDATA #IMPLIED
		ewd:code CDATA #IMPLIED
		ewd:figID CDATA #IMPLIED
		ewd:pinNo CDATA #IMPLIED
		ewd:comment CDATA #IMPLIED >
	<!ATTLIST g
		ewd:lineID CDATA #IMPLIED
		ewd:groupID CDATA #IMPLIED
		ewd:figtype CDATA #IMPLIED
		ewd:code CDATA #IMPLIED
		ewd:figID CDATA #IMPLIED
		ewd:pinNo CDATA #IMPLIED
		ewd:comment CDATA #IMPLIED >
	<!ATTLIST text
		ewd:textID CDATA #IMPLIED
		ewd:horAlign CDATA #IMPLIED >
	<!ATTLIST title
		ewd:textID CDATA #IMPLIED >
]>
<!-- Generator: Shintec Hozumi YS   -->
<svg onload="call_execInitLoadProc_svg('system')" style="overflow:visible;  enable-background:new 0 0 283.825 710.000" viewBox="0 0 288.954 710.000" height="710.000" width="288.954" xml:space="preserve" ewd:ver="2.1.2.6F" xmlns="&ns_svg;" xmlns:ewd="http://shcl.co.jp/ewd" xmlns:a="http://ns.adobe.com/AdobeSVGViewerExtensions/3.0/" xmlns:xlink="&ns_xlink;">
	<script type="text/javascript" xlink:href="../../../../../system/js/ewd/fig/svgfig.js" xmlns:xlink="http://www.w3.org/1999/xlink" />
<g id="ewd_top">
	<a ewd:figtype="conn" style="cursor:pointer;" ewd:code="E26" ewd:figID="1">
		<path style="&st5;" d=" M   229.46,   333.23  L   229.46,   367.22  L   263.46,   367.22  L   263.46,   333.23  L   229.46,   333.23 "/>
		<title ewd:textID="1">点烟器总成</title>
	</a>
	<a ewd:figtype="jb" style="cursor:pointer;" ewd:code="3" ewd:figID="2">
		<path style="&st4; " d=" M   229.46,    35.78  L   229.46,   120.77  L   280.45,   120.77  L   280.45,    35.78  L   229.46,    35.78  "/>
	</a>
	<a ewd:figtype="fuse" style="cursor:pointer;" ewd:code="FUSE57" ewd:figID="4">
		<path style="&st7; stroke-width:0;" d=" M   233.71,    35.78  L   233.71,    78.27  L   259.21,    78.27  L   259.21,    35.78  L   233.71,    35.78 "/>
	</a>
	<a style="cursor:pointer;" ewd:lineID="1">
		<path style="stroke:#000000;stroke-width: 5.10 ;&st6;" d=" M   246.46,   681.67  L   246.46,   367.22  "/>
		<path style="stroke:#FFFFFF;stroke-width: 4.53 ;&st6;" d=" M   246.46,   681.67  L   246.46,   367.22  "/>
		<path style="stroke:#000000;stroke-width: 1.13 ;&st6;" d=" M   246.46,   681.67  L   246.46,   367.22  "/>
	</a>
	<a style="cursor:pointer;" ewd:lineID="2">
		<path style="stroke:#999999;stroke-width: 5.10 ;&st6;" d=" M   246.46,   120.77  L   246.46,   333.23  "/>
	</a>
	<g ewd:figtype="conn" ewd:figID="1" ewd:code="E26">
		<g ewd:lineID="1">
			<text style="font-size:6px;font-family:'NSimSun';" transform="matrix(&st16;  240.27  375.42 )">2</text>
			<text style="font-size:6px;font-family:'NSimSun';" transform="matrix(&st16;  244.35  363.53 )">E</text>
		</g>
		<g ewd:lineID="2">
			<text style="font-size:6px;font-family:'NSimSun';" transform="matrix(&st16;  240.27  329.54 )">1</text>
			<text style="font-size:6px;font-family:'NSimSun';" transform="matrix(&st16;  239.81  340.86 )">ACC</text>
		</g>
		<path style="stroke-width: 1.42 ;&st7;  " d=" M   229.46,   333.23  L   229.46,   367.22  L   263.46,   367.22  L   263.46,   333.23  L   229.46,   333.23  "/>
		<g ewd:figtype="title">
			<text style="font-size:6px;font-family:'NSimSun';" transform="matrix(&st17;  278.17  370.13 )" ewd:textID="1">点烟器总成</text>
			<text style="font-size:6px;font-family:'NSimSun';" transform="matrix(&st17;  271.07  370.12 )">E26</text>
		</g>
	</g>
	<g ewd:figtype="jb" ewd:figID="2" ewd:code="3">
		<text style="font-size:6px;font-family:'NSimSun';" transform="matrix(&st16;  240.27  86.47 )">2</text>
		<text style="font-size:6px;font-family:'NSimSun';" transform="matrix(&st16;  235.95  118.49 )">5</text>
		<text style="font-size:6px;font-family:'NSimSun';" transform="matrix(&st16;  237.95  32.08 )">(ACC)</text>
		<text style="font-size:6px;font-family:'NSimSun';" transform="matrix(&st16;  262.88  56.17 )">15A <tspan x="0 " dy="6.0">CIG</tspan></text>
		<text style="font-size:6px;font-family:'NSimSun';" transform="matrix(&st16;  242.53  118.49 )">3D</text>
		<path style="stroke-width: 0.28 ;&st9;  " d=" M   246.46,   107.37  L   243.63,   104.54  L   243.63,   108.79  L   246.46,   111.62  L   249.29,   108.79  L   249.29,   104.54  L   246.46,   107.37  "/>
		<path style="stroke-width: 1.42 ;&st7;  " d=" M   233.71,    35.78  L   233.71,    78.27  L   259.21,    78.27  L   259.21,    35.78  L   233.71,    35.78  "/>
		<path style="stroke-width: 1.42 ;&st7;   " d=" M   246.46,    47.11  C   243.72     48.72    242.81     52.25    244.42     54.99  "/>
		<path style="stroke-width: 1.42 ;&st7;   " d=" M   244.42,    54.99  C   244.94     55.87    245.58     56.51    246.46     57.03  "/>
		<path style="stroke-width: 1.42 ;&st7;   " d=" M   246.46,    66.94  C   249.20     65.33    250.11     61.80    248.50     59.06  "/>
		<path style="stroke-width: 1.42 ;&st7;   " d=" M   248.50,    59.06  C   247.98     58.18    247.34     57.55    246.46     57.03  "/>
		<path style="stroke-width: 0.85 ;&st7;   " d=" M   247.88,    45.69  C   247.88     44.91    247.24     44.28    246.46     44.28  "/>
		<path style="stroke-width: 0.85 ;&st7;   " d=" M   246.46,    44.28  C   245.68     44.28    245.04     44.91    245.04     45.69  "/>
		<path style="stroke-width: 0.85 ;&st7;   " d=" M   245.04,    45.69  C   245.04     46.48    245.68     47.11    246.46     47.11  "/>
		<path style="stroke-width: 0.85 ;&st7;   " d=" M   246.46,    47.11  C   247.24     47.11    247.88     46.48    247.88     45.69  "/>
		<path style="stroke-width: 0.85 ;&st7;   " d=" M   247.88,    68.36  C   247.88     67.57    247.24     66.94    246.46     66.94  "/>
		<path style="stroke-width: 0.85 ;&st7;   " d=" M   246.46,    66.94  C   245.68     66.94    245.04     67.57    245.04     68.36  "/>
		<path style="stroke-width: 0.85 ;&st7;   " d=" M   245.04,    68.36  C   245.04     69.14    245.68     69.77    246.46     69.77  "/>
		<path style="stroke-width: 0.85 ;&st7;   " d=" M   246.46,    69.77  C   247.24     69.77    247.88     69.14    247.88     68.36  "/>
		<path style="stroke-width: 1.42 ;&st7;   " d=" M   244.33,   112.27  C   241.99    112.27    240.08    114.17    240.08    116.52  "/>
		<path style="stroke-width: 1.42 ;&st7;   " d=" M   240.08,   116.52  C   240.08    118.86    241.99    120.77    244.33    120.77  "/>
		<path style="stroke-width: 1.42 ;&st7;   " d=" M   248.58,   120.77  C   250.93    120.77    252.83    118.86    252.83    116.52  "/>
		<path style="stroke-width: 1.42 ;&st7;   " d=" M   252.83,   116.52  C   252.83    114.17    250.93    112.27    248.58    112.27  "/>
		<path style="stroke-width: 0.85 ;&st7;  " d=" M   246.46,    69.77  L   246.46,   112.27  "/>
		<path style="stroke-width: 1.42 ;&st7;  " d=" M   248.58,   112.27  L   244.33,   112.27  "/>
		<path style="stroke-width: 1.42 ;&st7;  " d=" M   248.58,   120.77  L   244.33,   120.77  "/>
	</g>
	<g ewd:figtype="gp" ewd:figID="3" ewd:code="ED">
		<path style="stroke-width: 0.85 ;&st7;  " d=" M   245.04,   710.00  L   247.88,   710.00  "/>
		<path style="stroke-width: 0.85 ;&st7;  " d=" M   243.63,   707.17  L   249.29,   707.17  "/>
		<path style="stroke-width: 0.85 ;&st7;  " d=" M   242.21,   704.33  L   250.71,   704.33  "/>
		<path style="stroke-width: 0.85 ;&st7;  " d=" M   237.96,   701.50  L   254.96,   701.50  "/>
		<path style="stroke-width: 0.85 ;&st7;  " d=" M   246.46,   697.25  L   246.46,   701.50  "/>
	</g>
	<text style="font-size:6px;font-family:'NSimSun';" transform="matrix(&st17;  242.76  560.15 )">W-B</text>
	<text style="font-size:6px;font-family:'NSimSun';" transform="matrix(&st17;  242.76  150.08 )">GR</text>
	<a ewd:figtype="gp" style="cursor:pointer;" ewd:code="ED" ewd:figID="3">
		<path style="&st2;" d=" M   235.84,   681.67  L   257.08,   681.67  L   246.46,   697.25  L   235.84,   681.67 "/>
		<text style="&st8;" transform="matrix(&st16;  242.58  689.46 )"><tspan x="0" style="font-size:6px;font-family:'NSimSun';" y="0">ED</tspan></text>
	</a>
</g>
</svg>