<?xml version="1.0" encoding="utf-8"?>
<!DOCTYPE svg PUBLIC "-//W3C//DTD SVG 1.0//EN" "http://www.w3.org/TR/2001/REC-SVG-20010904/DTD/svg10.dtd"[
	<!ENTITY ns_flows "http://ns.adobe.com/Flows/1.0/">
	<!ENTITY ns_svg "http://www.w3.org/2000/svg">
	<!ENTITY ns_xlink "http://www.w3.org/1999/xlink">
	<!ENTITY st0 "font-size:7px;font-family:'NSimSun';adobe-font-script:japanese;">
	<!ENTITY st1 "font-size:6px;font-family:'NSimSun';">
	<!-- White fill  -->
	<!ENTITY st2 "fill:#FFFFFF;stroke:#000000; stroke-width:1.41;stroke-linecap:round;stroke-linejoin:round;">
	<!-- Yellow fill  -->
	<!ENTITY st3 "fill:#FFFFCC;stroke:#FFFFCC; stroke-width:0.1;stroke-linecap:round;stroke-linejoin:round;">
	<!-- Gray fill  -->
	<!ENTITY st4 "fill:#CCCCCC;stroke:#CCCCCC; stroke-width:0.1;stroke-linecap:round;stroke-linejoin:round;">
	<!-- Light-blue fill -->
	<!ENTITY st5 "fill:#CCECF4;stroke:#000000; stroke-width:1.133;stroke-linecap:round;stroke-linejoin:round;">
	<!ENTITY st6 "fill:none;stroke-linecap:butt; stroke-linejoin:round;">
	<!ENTITY st7 "fill:none;stroke:#000000;stroke-linecap:round;stroke-linejoin:round;">
	<!ENTITY st8 "enable-background:new    ;">
	<!-- Black fill -->
	<!ENTITY st9 "fill:#000000;stroke:#000000; stroke-linecap:round;stroke-linejoin:round;">
	<!-- SRS note   -->
	<!ENTITY st10 "font-size:9px;font-family:'NSimSun';">
	<!ENTITY st11 "font-size:9px;font-family:'NSimSun';">
	<!ENTITY st12 "font-size:6px;font-family:'NSimSun';">
	<!ENTITY st13 "fill:none;stroke:#ff0000;stroke-linecap:round;stroke-linejoin:round;">
	<!-- Yellow fill  -->
	<!ENTITY st14 "fill:#FFFF00;stroke:#FFFF00; stroke-width:0.1;stroke-linecap:round;stroke-linejoin:round;">
	<!ENTITY st15 "font-size:6px;font-family:'NSimSun';adobe-font-script:japanese;">
	<!ENTITY st16 "1.00 0.00 0.00 1.00">
	<!ENTITY st17 "0.00 -1.00 1.00 0.00">
	<!ENTITY st18 "font-size:6px;font-family:'NSimSun';">
	<!ENTITY st19 "font-size:9px;font-family:'NSimSun';">
	<!ENTITY st20 "font-size:6px;font-family:'NSimSun';adobe-font-script:japanese;">
	<!ENTITY st21 "font-size:7px;font-family:'NSimSun';adobe-font-script:japanese;">
	<!ATTLIST svg
		xmlns:ewd CDATA #FIXED "http://shcl.co.jp/ewd"
		xmlns:a CDATA #FIXED "http://ns.adobe.com/AdobeSVGViewerExtensions/3.0/"
		ewd:ver CDATA #IMPLIED
	>
	<!ATTLIST a
		ewd:lineID CDATA #IMPLIED
		ewd:groupID CDATA #IMPLIED
		ewd:figtype CDATA #IMPLIED
		ewd:code CDATA #IMPLIED
		ewd:figID CDATA #IMPLIED
		ewd:pinNo CDATA #IMPLIED
		ewd:comment CDATA #IMPLIED >
	<!ATTLIST g
		ewd:lineID CDATA #IMPLIED
		ewd:groupID CDATA #IMPLIED
		ewd:figtype CDATA #IMPLIED
		ewd:code CDATA #IMPLIED
		ewd:figID CDATA #IMPLIED
		ewd:pinNo CDATA #IMPLIED
		ewd:comment CDATA #IMPLIED >
	<!ATTLIST text
		ewd:textID CDATA #IMPLIED
		ewd:horAlign CDATA #IMPLIED >
	<!ATTLIST title
		ewd:textID CDATA #IMPLIED >
]>
<!-- Generator: Shintec Hozumi YS   -->
<svg onload="call_execInitLoadProc_svg('system')" style="overflow:visible;  enable-background:new 0 0 3020.283 710.000" viewBox="0 0 2991.504 710.000" height="710.000" width="2991.504" xml:space="preserve" ewd:ver="2.1.2.6F" xmlns="&ns_svg;" xmlns:ewd="http://shcl.co.jp/ewd" xmlns:a="http://ns.adobe.com/AdobeSVGViewerExtensions/3.0/" xmlns:xlink="&ns_xlink;"><script type="text/javascript" xlink:href="../../../../../system/js/ewd/fig/svgfig.js" xmlns:xlink="http://www.w3.org/1999/xlink" />
<g id="ewd_top"><a ewd:figtype="conn" style="cursor:pointer;" ewd:code="E16" ewd:figID="1"><path style="&st5;" d=" M  2898.02,   290.74  L  2983.00,   290.74  L  2983.00,   256.74  L  2898.02,   256.74  L  2898.02,   290.74 " /><title ewd:textID="23">风挡玻璃刮水器开关总成</title></a><a ewd:figtype="conn" style="cursor:pointer;" ewd:code="E9" ewd:figID="2"><path style="&st5;" d=" M  1648.72,   307.73  L  1708.21,   307.73  L  1708.21,   188.75  L  1648.72,   188.75  L  1648.72,   307.73 " /><title ewd:textID="20">点火或起动开关总成</title></a><a ewd:figtype="conn" style="cursor:pointer;" ewd:code="E47,E49" ewd:figID="3"><path style="&st5;" d=" M  1648.72,   401.22  L  1886.68,   401.22  L  1886.68,   358.73  L  1648.72,   358.73  L  1648.72,   401.22 " /><title ewd:textID="8">认证 ECU</title></a><a ewd:figtype="conn" style="cursor:pointer;" ewd:code="E50" ewd:figID="4"><path style="&st5;" d=" M  1674.22,   469.21  L  1674.22,   554.19  L  1895.18,   554.19  L  1895.18,   469.21  L  1674.22,   469.21 " /><title ewd:textID="12">发动机开关</title></a><a ewd:figtype="rb" style="cursor:pointer;" ewd:code="FUSE10" ewd:figID="5"><path style="fill:#CCECF4;stroke:#000000; stroke-width:0; stroke-linecap:round;stroke-linejoin:round; " d=" M   943.34,   345.98  L   943.34,   371.47  L   985.84,   371.47  L   985.84,   345.98  L   943.34,   345.98 " /></a><a ewd:figtype="rb" style="cursor:pointer;" ewd:code="FUSE3" ewd:figID="6"><path style="fill:#CCECF4;stroke:#000000; stroke-width:0; stroke-linecap:round;stroke-linejoin:round; " d=" M   943.34,   150.51  L   943.34,   176.01  L   985.84,   176.01  L   985.84,   150.51  L   943.34,   150.51 " /></a><a ewd:figtype="conn" style="cursor:pointer;" ewd:code="B38,C1" ewd:figID="7"><path style="&st5;" d=" M    50.99,   545.69  L    84.99,   545.69  L    84.99,   605.18  L    50.99,   605.18  L    50.99,   545.69 " /><title ewd:textID="7">蓄电池</title></a><a ewd:figtype="rb" style="cursor:pointer;" ewd:code="FUSE14" ewd:figID="8"><path style="fill:#CCECF4;stroke:#000000; stroke-width:0; stroke-linecap:round;stroke-linejoin:round; " d=" M   169.97,   150.51  L   169.97,   176.01  L   212.46,   176.01  L   212.46,   150.51  L   169.97,   150.51 " /></a><a ewd:figtype="rb" style="cursor:pointer;" ewd:code="FUSE11" ewd:figID="9"><path style="fill:#CCECF4;stroke:#000000; stroke-width:0; stroke-linecap:round;stroke-linejoin:round; " d=" M   773.37,   473.46  L   773.37,   498.95  L   815.86,   498.95  L   815.86,   473.46  L   773.37,   473.46 " /></a><a ewd:figtype="rb" style="cursor:pointer;" ewd:code="FUSE12" ewd:figID="10"><path style="fill:#CCECF4;stroke:#000000; stroke-width:0; stroke-linecap:round;stroke-linejoin:round; " d=" M   943.34,   303.48  L   943.34,   328.98  L   985.84,   328.98  L   985.84,   303.48  L   943.34,   303.48 " /></a><a ewd:figtype="rb" style="cursor:pointer;" ewd:code="FUSE17" ewd:figID="11"><path style="fill:#CCECF4;stroke:#000000; stroke-width:0; stroke-linecap:round;stroke-linejoin:round; " d=" M   169.97,   235.50  L   169.97,   260.99  L   212.46,   260.99  L   212.46,   235.50  L   169.97,   235.50 " /></a><a ewd:figtype="rb" style="cursor:pointer;" ewd:code="FUSE20" ewd:figID="12"><path style="fill:#CCECF4;stroke:#000000; stroke-width:0; stroke-linecap:round;stroke-linejoin:round; " d=" M   866.86,   193.00  L   866.86,   218.50  L   909.35,   218.50  L   909.35,   193.00  L   866.86,   193.00 " /></a><a ewd:figtype="rb" style="cursor:pointer;" ewd:code="FUSE21" ewd:figID="13"><path style="fill:#CCECF4;stroke:#000000; stroke-width:0; stroke-linecap:round;stroke-linejoin:round; " d=" M   169.97,   286.49  L   169.97,   311.98  L   212.46,   311.98  L   212.46,   286.49  L   169.97,   286.49 " /></a><a ewd:figtype="rb" style="cursor:pointer;" ewd:code="FUSE30" ewd:figID="14"><path style="fill:#CCECF4;stroke:#000000; stroke-width:0; stroke-linecap:round;stroke-linejoin:round; " d=" M  1087.82,   252.49  L  1087.82,   277.99  L  1130.31,   277.99  L  1130.31,   252.49  L  1087.82,   252.49 " /></a><a ewd:figtype="rb" style="cursor:pointer;" ewd:code="FUSE6" ewd:figID="15"><path style="fill:#CCECF4;stroke:#000000; stroke-width:0; stroke-linecap:round;stroke-linejoin:round; " d=" M   169.97,   328.98  L   169.97,   354.48  L   212.46,   354.48  L   212.46,   328.98  L   169.97,   328.98 " /></a><a ewd:figtype="rb" style="cursor:pointer;" ewd:code="FUSE9" ewd:figID="16"><path style="fill:#CCECF4;stroke:#000000; stroke-width:0; stroke-linecap:round;stroke-linejoin:round; " d=" M   169.97,   371.47  L   169.97,   396.97  L   212.46,   396.97  L   212.46,   371.47  L   169.97,   371.47 " /></a><a ewd:figtype="rb" style="cursor:pointer;" ewd:code="1" ewd:figID="17"><path style="fill:#CCECF4;stroke:#000000; stroke-width:0; stroke-linecap:round;stroke-linejoin:round; " d=" M   628.89,   282.24  L   628.89,   239.75  L   594.90,   239.75  L   594.90,   282.24  L   628.89,   282.24 " /></a><a ewd:figtype="rb" style="cursor:pointer;" ewd:code="FUSE34,FUSE35" ewd:figID="18"><path style="fill:#CCECF4;stroke:#000000; stroke-width:0; stroke-linecap:round;stroke-linejoin:round; " d=" M   169.97,   422.46  L   169.97,   447.96  L   212.46,   447.96  L   212.46,   422.46  L   169.97,   422.46 " /></a><a ewd:figtype="rb" style="cursor:pointer;" ewd:code="1" ewd:figID="19"><path style="fill:#CCECF4;stroke:#000000; stroke-width:0; stroke-linecap:round;stroke-linejoin:round; " d=" M   628.89,   469.21  L   628.89,   426.71  L   594.90,   426.71  L   594.90,   469.21  L   628.89,   469.21 " /></a><a ewd:figtype="rb" style="cursor:pointer;" ewd:code="FUSE36" ewd:figID="20"><path style="fill:#CCECF4;stroke:#000000; stroke-width:0; stroke-linecap:round;stroke-linejoin:round; " d=" M   263.46,    82.52  L   263.46,   108.02  L   305.95,   108.02  L   305.95,    82.52  L   263.46,    82.52 " /></a><a ewd:figtype="rb" style="cursor:pointer;" ewd:code="1" ewd:figID="21"><path style="fill:#CCECF4;stroke:#000000; stroke-width:0; stroke-linecap:round;stroke-linejoin:round; " d=" M   628.89,   605.18  L   628.89,   562.69  L   594.90,   562.69  L   594.90,   605.18  L   628.89,   605.18 " /></a><a ewd:figtype="rb" style="cursor:pointer;" ewd:code="FUSE24" ewd:figID="22"><path style="fill:#CCECF4;stroke:#000000; stroke-width:0; stroke-linecap:round;stroke-linejoin:round; " d=" M   263.46,   150.51  L   263.46,   176.01  L   305.95,   176.01  L   305.95,   150.51  L   263.46,   150.51 " /></a><a ewd:figtype="rb" style="cursor:pointer;" ewd:code="FUSE7" ewd:figID="23"><path style="fill:#CCECF4;stroke:#000000; stroke-width:0; stroke-linecap:round;stroke-linejoin:round; " d=" M   764.87,   235.50  L   764.87,   260.99  L   807.37,   260.99  L   807.37,   235.50  L   764.87,   235.50 " /></a><a ewd:figtype="rb" style="cursor:pointer;" ewd:code="FUSE22" ewd:figID="24"><path style="fill:#CCECF4;stroke:#000000; stroke-width:0; stroke-linecap:round;stroke-linejoin:round; " d=" M   263.46,   235.50  L   263.46,   260.99  L   305.95,   260.99  L   305.95,   235.50  L   263.46,   235.50 " /></a><a ewd:figtype="rb" style="cursor:pointer;" ewd:code="FUSE8" ewd:figID="25"><path style="fill:#CCECF4;stroke:#000000; stroke-width:0; stroke-linecap:round;stroke-linejoin:round; " d=" M   764.87,   277.99  L   764.87,   303.48  L   807.37,   303.48  L   807.37,   277.99  L   764.87,   277.99 " /></a><a ewd:figtype="rb" style="cursor:pointer;" ewd:code="FUSE18" ewd:figID="26"><path style="fill:#CCECF4;stroke:#000000; stroke-width:0; stroke-linecap:round;stroke-linejoin:round; " d=" M   263.46,   328.98  L   263.46,   354.48  L   305.95,   354.48  L   305.95,   328.98  L   263.46,   328.98 " /></a><a ewd:figtype="rb" style="cursor:pointer;" ewd:code="1" ewd:figID="27"><path style="fill:#CCECF4;stroke:#000000; stroke-width:0; stroke-linecap:round;stroke-linejoin:round; " d=" M   815.86,   392.72  L   815.86,   350.23  L   781.87,   350.23  L   781.87,   392.72  L   815.86,   392.72 " /></a><a ewd:figtype="rb" style="cursor:pointer;" ewd:code="FUSE28" ewd:figID="28"><path style="fill:#CCECF4;stroke:#000000; stroke-width:0; stroke-linecap:round;stroke-linejoin:round; " d=" M   263.46,   371.47  L   263.46,   396.97  L   305.95,   396.97  L   305.95,   371.47  L   263.46,   371.47 " /></a><a ewd:figtype="rb" style="cursor:pointer;" ewd:code="FUSE13" ewd:figID="29"><path style="fill:#CCECF4;stroke:#000000; stroke-width:0; stroke-linecap:round;stroke-linejoin:round; " d=" M   773.37,   422.46  L   773.37,   447.96  L   815.86,   447.96  L   815.86,   422.46  L   773.37,   422.46 " /></a><a ewd:figtype="rb" style="cursor:pointer;" ewd:code="FUSE26" ewd:figID="30"><path style="fill:#CCECF4;stroke:#000000; stroke-width:0; stroke-linecap:round;stroke-linejoin:round; " d=" M  1410.76,   167.51  L  1410.76,   193.00  L  1453.26,   193.00  L  1453.26,   167.51  L  1410.76,   167.51 " /></a><a ewd:figtype="rb" style="cursor:pointer;" ewd:code="FUSE29" ewd:figID="31"><path style="fill:#CCECF4;stroke:#000000; stroke-width:0; stroke-linecap:round;stroke-linejoin:round; " d=" M   263.46,   422.46  L   263.46,   447.96  L   305.95,   447.96  L   305.95,   422.46  L   263.46,   422.46 " /></a><a ewd:figtype="rb" style="cursor:pointer;" ewd:code="FUSE5" ewd:figID="32"><path style="fill:#CCECF4;stroke:#000000; stroke-width:0; stroke-linecap:round;stroke-linejoin:round; " d=" M   943.34,   193.00  L   943.34,   218.50  L   985.84,   218.50  L   985.84,   193.00  L   943.34,   193.00 " /></a><a ewd:figtype="rb" style="cursor:pointer;" ewd:code="FUSE27" ewd:figID="33"><path style="fill:#CCECF4;stroke:#000000; stroke-width:0; stroke-linecap:round;stroke-linejoin:round; " d=" M  1410.76,   218.50  L  1410.76,   243.99  L  1453.26,   243.99  L  1453.26,   218.50  L  1410.76,   218.50 " /></a><a ewd:figtype="rb" style="cursor:pointer;" ewd:code="FUSE1" ewd:figID="34"><path style="fill:#CCECF4;stroke:#000000; stroke-width:0; stroke-linecap:round;stroke-linejoin:round; " d=" M   263.46,   464.96  L   263.46,   490.45  L   305.95,   490.45  L   305.95,   464.96  L   263.46,   464.96 " /></a><a ewd:figtype="rb" style="cursor:pointer;" ewd:code="FUSE33" ewd:figID="35"><path style="fill:#CCECF4;stroke:#000000; stroke-width:0; stroke-linecap:round;stroke-linejoin:round; " d=" M  1087.82,   150.51  L  1087.82,   176.01  L  1130.31,   176.01  L  1130.31,   150.51  L  1087.82,   150.51 " /></a><a ewd:figtype="rb" style="cursor:pointer;" ewd:code="FUSE15" ewd:figID="36"><path style="fill:#CCECF4;stroke:#000000; stroke-width:0; stroke-linecap:round;stroke-linejoin:round; " d=" M  1410.76,   354.48  L  1410.76,   379.97  L  1453.26,   379.97  L  1453.26,   354.48  L  1410.76,   354.48 " /></a><a ewd:figtype="rb" style="cursor:pointer;" ewd:code="FUSE2" ewd:figID="37"><path style="fill:#CCECF4;stroke:#000000; stroke-width:0; stroke-linecap:round;stroke-linejoin:round; " d=" M   263.46,   515.95  L   263.46,   541.44  L   305.95,   541.44  L   305.95,   515.95  L   263.46,   515.95 " /></a><a ewd:figtype="rb" style="cursor:pointer;" ewd:code="FUSE31" ewd:figID="38"><path style="fill:#CCECF4;stroke:#000000; stroke-width:0; stroke-linecap:round;stroke-linejoin:round; " d=" M  1087.82,   201.50  L  1087.82,   227.00  L  1130.31,   227.00  L  1130.31,   201.50  L  1087.82,   201.50 " /></a><a ewd:figtype="rb" style="cursor:pointer;" ewd:code="FUSE19" ewd:figID="39"><path style="fill:#CCECF4;stroke:#000000; stroke-width:0; stroke-linecap:round;stroke-linejoin:round; " d=" M   263.46,   583.94  L   263.46,   609.43  L   305.95,   609.43  L   305.95,   583.94  L   263.46,   583.94 " /></a><a ewd:figtype="rb" style="cursor:pointer;" ewd:code="FUSE23" ewd:figID="40"><path style="fill:#CCECF4;stroke:#000000; stroke-width:0; stroke-linecap:round;stroke-linejoin:round; " d=" M  1087.82,   303.48  L  1087.82,   328.98  L  1130.31,   328.98  L  1130.31,   303.48  L  1087.82,   303.48 " /></a><a ewd:figtype="rb" style="cursor:pointer;" ewd:code="FUSE32" ewd:figID="41"><path style="fill:#CCECF4;stroke:#000000; stroke-width:0; stroke-linecap:round;stroke-linejoin:round; " d=" M  1087.82,   354.48  L  1087.82,   379.97  L  1130.31,   379.97  L  1130.31,   354.48  L  1087.82,   354.48 " /></a><a ewd:figtype="rb" style="cursor:pointer;" ewd:code="FUSE4" ewd:figID="42"><path style="fill:#CCECF4;stroke:#000000; stroke-width:0; stroke-linecap:round;stroke-linejoin:round; " d=" M  1087.82,   405.47  L  1087.82,   430.96  L  1130.31,   430.96  L  1130.31,   405.47  L  1087.82,   405.47 " /></a><a ewd:figtype="rb" style="cursor:pointer;" ewd:code="FUSE16" ewd:figID="43"><path style="fill:#CCECF4;stroke:#000000; stroke-width:0; stroke-linecap:round;stroke-linejoin:round; " d=" M  1087.82,   456.46  L  1087.82,   481.95  L  1130.31,   481.95  L  1130.31,   456.46  L  1087.82,   456.46 " /></a><a ewd:figtype="rb" style="cursor:pointer;" ewd:code="1" ewd:figID="44"><path style="fill:#CCECF4;stroke:#000000; stroke-width:0; stroke-linecap:round;stroke-linejoin:round; " d=" M  1266.29,   358.73  L  1266.29,   401.22  L  1300.28,   401.22  L  1300.28,   358.73  L  1266.29,   358.73 " /></a><a ewd:figtype="rb" style="cursor:pointer;" ewd:code="FUSE25" ewd:figID="45"><path style="fill:#CCECF4;stroke:#000000; stroke-width:0; stroke-linecap:round;stroke-linejoin:round; " d=" M  1410.76,   116.52  L  1410.76,   142.01  L  1453.26,   142.01  L  1453.26,   116.52  L  1410.76,   116.52 " /></a><a ewd:figtype="jb" style="cursor:pointer;" ewd:code="1" ewd:figID="58"><path style="&st4; " d=" M  1359.77,   112.27  L  1359.77,   137.76  L  1372.52,   137.76  L  1372.52,   112.27  L  1359.77,   112.27  " /></a><a ewd:figtype="jb" style="cursor:pointer;" ewd:code="1" ewd:figID="59"><path style="&st4; " d=" M  1160.06,   112.27  L  1160.06,   137.76  L  1172.80,   137.76  L  1172.80,   112.27  L  1160.06,   112.27  " /></a><a ewd:figtype="jb" style="cursor:pointer;" ewd:code="3" ewd:figID="60"><path style="&st4; " d=" M  1937.68,   528.70  L  1937.68,   664.67  L  2056.66,   664.67  L  2056.66,   528.70  L  1937.68,   528.70  " /></a><a ewd:figtype="jb" style="cursor:pointer;" ewd:code="1" ewd:figID="61"><path style="&st4; " d=" M  1160.06,    78.27  L  1160.06,   103.77  L  1172.80,   103.77  L  1172.80,    78.27  L  1160.06,    78.27  " /></a><a ewd:figtype="jb" style="cursor:pointer;" ewd:code="1" ewd:figID="62"><path style="&st4; " d=" M   135.98,   188.75  L   135.98,   214.25  L   148.73,   214.25  L   148.73,   188.75  L   135.98,   188.75  " /></a><a ewd:figtype="jb" style="cursor:pointer;" ewd:code="3" ewd:figID="63"><path style="&st4; " d=" M  2201.13,    61.28  L  2201.13,   698.67  L  2838.53,   698.67  L  2838.53,    61.28  L  2201.13,    61.28  " /></a><a ewd:figtype="fuse" style="cursor:pointer;" ewd:code="FUSE34,FUSE35" ewd:figID="72"><path style="&st7; stroke-width:0;" d=" M   169.97,   422.46  L   169.97,   447.96  L   212.46,   447.96  L   212.46,   422.46  L   169.97,   422.46 " /></a><a ewd:figtype="fuse" style="cursor:pointer;" ewd:code="FUSE9" ewd:figID="73"><path style="&st7; stroke-width:0;" d=" M   169.97,   371.47  L   169.97,   396.97  L   212.46,   396.97  L   212.46,   371.47  L   169.97,   371.47 " /></a><a ewd:figtype="fuse" style="cursor:pointer;" ewd:code="FUSE6" ewd:figID="74"><path style="&st7; stroke-width:0;" d=" M   169.97,   328.98  L   169.97,   354.48  L   212.46,   354.48  L   212.46,   328.98  L   169.97,   328.98 " /></a><a ewd:figtype="fuse" style="cursor:pointer;" ewd:code="FUSE21" ewd:figID="75"><path style="&st7; stroke-width:0;" d=" M   169.97,   286.49  L   169.97,   311.98  L   212.46,   311.98  L   212.46,   286.49  L   169.97,   286.49 " /></a><a ewd:figtype="fuse" style="cursor:pointer;" ewd:code="FUSE17" ewd:figID="76"><path style="&st7; stroke-width:0;" d=" M   169.97,   235.50  L   169.97,   260.99  L   212.46,   260.99  L   212.46,   235.50  L   169.97,   235.50 " /></a><a ewd:figtype="fuse" style="cursor:pointer;" ewd:code="FUSE14" ewd:figID="77"><path style="&st7; stroke-width:0;" d=" M   169.97,   150.51  L   169.97,   176.01  L   212.46,   176.01  L   212.46,   150.51  L   169.97,   150.51 " /></a><a ewd:figtype="fuse" style="cursor:pointer;" ewd:code="FUSE19" ewd:figID="78"><path style="&st7; stroke-width:0;" d=" M   263.46,   583.94  L   263.46,   609.43  L   305.95,   609.43  L   305.95,   583.94  L   263.46,   583.94 " /></a><a ewd:figtype="fuse" style="cursor:pointer;" ewd:code="FUSE2" ewd:figID="79"><path style="&st7; stroke-width:0;" d=" M   263.46,   515.95  L   263.46,   541.44  L   305.95,   541.44  L   305.95,   515.95  L   263.46,   515.95 " /></a><a ewd:figtype="fuse" style="cursor:pointer;" ewd:code="FUSE1" ewd:figID="80"><path style="&st7; stroke-width:0;" d=" M   263.46,   464.96  L   263.46,   490.45  L   305.95,   490.45  L   305.95,   464.96  L   263.46,   464.96 " /></a><a ewd:figtype="fuse" style="cursor:pointer;" ewd:code="FUSE29" ewd:figID="81"><path style="&st7; stroke-width:0;" d=" M   263.46,   422.46  L   263.46,   447.96  L   305.95,   447.96  L   305.95,   422.46  L   263.46,   422.46 " /></a><a ewd:figtype="fuse" style="cursor:pointer;" ewd:code="FUSE28" ewd:figID="82"><path style="&st7; stroke-width:0;" d=" M   263.46,   371.47  L   263.46,   396.97  L   305.95,   396.97  L   305.95,   371.47  L   263.46,   371.47 " /></a><a ewd:figtype="fuse" style="cursor:pointer;" ewd:code="FUSE18" ewd:figID="83"><path style="&st7; stroke-width:0;" d=" M   263.46,   328.98  L   263.46,   354.48  L   305.95,   354.48  L   305.95,   328.98  L   263.46,   328.98 " /></a><a ewd:figtype="fuse" style="cursor:pointer;" ewd:code="FUSE22" ewd:figID="84"><path style="&st7; stroke-width:0;" d=" M   263.46,   235.50  L   263.46,   260.99  L   305.95,   260.99  L   305.95,   235.50  L   263.46,   235.50 " /></a><a ewd:figtype="fuse" style="cursor:pointer;" ewd:code="FUSE24" ewd:figID="85"><path style="&st7; stroke-width:0;" d=" M   263.46,   150.51  L   263.46,   176.01  L   305.95,   176.01  L   305.95,   150.51  L   263.46,   150.51 " /></a><a ewd:figtype="fuse" style="cursor:pointer;" ewd:code="FUSE36" ewd:figID="86"><path style="&st7; stroke-width:0;" d=" M   263.46,    82.52  L   263.46,   108.02  L   305.95,   108.02  L   305.95,    82.52  L   263.46,    82.52 " /></a><a ewd:figtype="fuse" style="cursor:pointer;" ewd:code="FUSE8" ewd:figID="87"><path style="&st7; stroke-width:0;" d=" M   764.87,   277.99  L   764.87,   303.48  L   807.37,   303.48  L   807.37,   277.99  L   764.87,   277.99 " /></a><a ewd:figtype="fuse" style="cursor:pointer;" ewd:code="FUSE7" ewd:figID="88"><path style="&st7; stroke-width:0;" d=" M   764.87,   235.50  L   764.87,   260.99  L   807.37,   260.99  L   807.37,   235.50  L   764.87,   235.50 " /></a><a ewd:figtype="fuse" style="cursor:pointer;" ewd:code="FUSE11" ewd:figID="89"><path style="&st7; stroke-width:0;" d=" M   773.37,   473.46  L   773.37,   498.95  L   815.86,   498.95  L   815.86,   473.46  L   773.37,   473.46 " /></a><a ewd:figtype="fuse" style="cursor:pointer;" ewd:code="FUSE13" ewd:figID="90"><path style="&st7; stroke-width:0;" d=" M   773.37,   422.46  L   773.37,   447.96  L   815.86,   447.96  L   815.86,   422.46  L   773.37,   422.46 " /></a><a ewd:figtype="fuse" style="cursor:pointer;" ewd:code="FUSE20" ewd:figID="91"><path style="&st7; stroke-width:0;" d=" M   866.86,   193.00  L   866.86,   218.50  L   909.35,   218.50  L   909.35,   193.00  L   866.86,   193.00 " /></a><a ewd:figtype="fuse" style="cursor:pointer;" ewd:code="FUSE10" ewd:figID="92"><path style="&st7; stroke-width:0;" d=" M   943.34,   345.98  L   943.34,   371.47  L   985.84,   371.47  L   985.84,   345.98  L   943.34,   345.98 " /></a><a ewd:figtype="fuse" style="cursor:pointer;" ewd:code="FUSE12" ewd:figID="93"><path style="&st7; stroke-width:0;" d=" M   943.34,   303.48  L   943.34,   328.98  L   985.84,   328.98  L   985.84,   303.48  L   943.34,   303.48 " /></a><a ewd:figtype="fuse" style="cursor:pointer;" ewd:code="FUSE5" ewd:figID="94"><path style="&st7; stroke-width:0;" d=" M   943.34,   193.00  L   943.34,   218.50  L   985.84,   218.50  L   985.84,   193.00  L   943.34,   193.00 " /></a><a ewd:figtype="fuse" style="cursor:pointer;" ewd:code="FUSE3" ewd:figID="95"><path style="&st7; stroke-width:0;" d=" M   943.34,   150.51  L   943.34,   176.01  L   985.84,   176.01  L   985.84,   150.51  L   943.34,   150.51 " /></a><a ewd:figtype="fuse" style="cursor:pointer;" ewd:code="FUSE16" ewd:figID="96"><path style="&st7; stroke-width:0;" d=" M  1087.82,   456.46  L  1087.82,   481.95  L  1130.31,   481.95  L  1130.31,   456.46  L  1087.82,   456.46 " /></a><a ewd:figtype="fuse" style="cursor:pointer;" ewd:code="FUSE4" ewd:figID="97"><path style="&st7; stroke-width:0;" d=" M  1087.82,   405.47  L  1087.82,   430.96  L  1130.31,   430.96  L  1130.31,   405.47  L  1087.82,   405.47 " /></a><a ewd:figtype="fuse" style="cursor:pointer;" ewd:code="FUSE32" ewd:figID="98"><path style="&st7; stroke-width:0;" d=" M  1087.82,   354.48  L  1087.82,   379.97  L  1130.31,   379.97  L  1130.31,   354.48  L  1087.82,   354.48 " /></a><a ewd:figtype="fuse" style="cursor:pointer;" ewd:code="FUSE23" ewd:figID="99"><path style="&st7; stroke-width:0;" d=" M  1087.82,   303.48  L  1087.82,   328.98  L  1130.31,   328.98  L  1130.31,   303.48  L  1087.82,   303.48 " /></a><a ewd:figtype="fuse" style="cursor:pointer;" ewd:code="FUSE30" ewd:figID="100"><path style="&st7; stroke-width:0;" d=" M  1087.82,   252.49  L  1087.82,   277.99  L  1130.31,   277.99  L  1130.31,   252.49  L  1087.82,   252.49 " /></a><a ewd:figtype="fuse" style="cursor:pointer;" ewd:code="FUSE31" ewd:figID="101"><path style="&st7; stroke-width:0;" d=" M  1087.82,   201.50  L  1087.82,   227.00  L  1130.31,   227.00  L  1130.31,   201.50  L  1087.82,   201.50 " /></a><a ewd:figtype="fuse" style="cursor:pointer;" ewd:code="FUSE33" ewd:figID="102"><path style="&st7; stroke-width:0;" d=" M  1087.82,   150.51  L  1087.82,   176.01  L  1130.31,   176.01  L  1130.31,   150.51  L  1087.82,   150.51 " /></a><a ewd:figtype="fuse" style="cursor:pointer;" ewd:code="FUSE15" ewd:figID="103"><path style="&st7; stroke-width:0;" d=" M  1410.76,   354.48  L  1410.76,   379.97  L  1453.26,   379.97  L  1453.26,   354.48  L  1410.76,   354.48 " /></a><a ewd:figtype="fuse" style="cursor:pointer;" ewd:code="FUSE27" ewd:figID="104"><path style="&st7; stroke-width:0;" d=" M  1410.76,   218.50  L  1410.76,   243.99  L  1453.26,   243.99  L  1453.26,   218.50  L  1410.76,   218.50 " /></a><a ewd:figtype="fuse" style="cursor:pointer;" ewd:code="FUSE26" ewd:figID="105"><path style="&st7; stroke-width:0;" d=" M  1410.76,   167.51  L  1410.76,   193.00  L  1453.26,   193.00  L  1453.26,   167.51  L  1410.76,   167.51 " /></a><a ewd:figtype="fuse" style="cursor:pointer;" ewd:code="FUSE25" ewd:figID="106"><path style="&st7; stroke-width:0;" d=" M  1410.76,   116.52  L  1410.76,   142.01  L  1453.26,   142.01  L  1453.26,   116.52  L  1410.76,   116.52 " /></a><a ewd:figtype="fuse" style="cursor:pointer;" ewd:code="FUSE42" ewd:figID="107"><path style="&st7; stroke-width:0;" d=" M  1988.67,   626.43  L  1988.67,   651.93  L  2031.16,   651.93  L  2031.16,   626.43  L  1988.67,   626.43 " /></a><a ewd:figtype="fuse" style="cursor:pointer;" ewd:code="FUSE39" ewd:figID="108"><path style="&st7; stroke-width:0;" d=" M  1988.67,   583.94  L  1988.67,   609.43  L  2031.16,   609.43  L  2031.16,   583.94  L  1988.67,   583.94 " /></a><a ewd:figtype="fuse" style="cursor:pointer;" ewd:code="FUSE50" ewd:figID="109"><path style="&st7; stroke-width:0;" d=" M  1988.67,   541.44  L  1988.67,   566.94  L  2031.16,   566.94  L  2031.16,   541.44  L  1988.67,   541.44 " /></a><a ewd:figtype="fuse" style="cursor:pointer;" ewd:code="FUSE55" ewd:figID="110"><path style="&st7; stroke-width:0;" d=" M  2243.63,   583.94  L  2243.63,   609.43  L  2286.12,   609.43  L  2286.12,   583.94  L  2243.63,   583.94 " /></a><a ewd:figtype="fuse" style="cursor:pointer;" ewd:code="FUSE53" ewd:figID="111"><path style="&st7; stroke-width:0;" d=" M  2243.63,   481.95  L  2243.63,   507.45  L  2286.12,   507.45  L  2286.12,   481.95  L  2243.63,   481.95 " /></a><a ewd:figtype="fuse" style="cursor:pointer;" ewd:code="FUSE48" ewd:figID="112"><path style="&st7; stroke-width:0;" d=" M  2243.63,   430.96  L  2243.63,   456.46  L  2286.12,   456.46  L  2286.12,   430.96  L  2243.63,   430.96 " /></a><a ewd:figtype="fuse" style="cursor:pointer;" ewd:code="FUSE37" ewd:figID="113"><path style="&st7; stroke-width:0;" d=" M  2243.63,   379.97  L  2243.63,   405.47  L  2286.12,   405.47  L  2286.12,   379.97  L  2243.63,   379.97 " /></a><a ewd:figtype="fuse" style="cursor:pointer;" ewd:code="FUSE66" ewd:figID="114"><path style="&st7; stroke-width:0;" d=" M  2243.63,   303.48  L  2243.63,   328.98  L  2286.12,   328.98  L  2286.12,   303.48  L  2243.63,   303.48 " /></a><a ewd:figtype="fuse" style="cursor:pointer;" ewd:code="FUSE64" ewd:figID="115"><path style="&st7; stroke-width:0;" d=" M  2243.63,   235.50  L  2243.63,   260.99  L  2286.12,   260.99  L  2286.12,   235.50  L  2243.63,   235.50 " /></a><a ewd:figtype="fuse" style="cursor:pointer;" ewd:code="FUSE54" ewd:figID="116"><path style="&st7; stroke-width:0;" d=" M  2243.63,   167.51  L  2243.63,   193.00  L  2286.12,   193.00  L  2286.12,   167.51  L  2243.63,   167.51 " /></a><a ewd:figtype="fuse" style="cursor:pointer;" ewd:code="FUSE51" ewd:figID="117"><path style="&st7; stroke-width:0;" d=" M  2243.63,   125.01  L  2243.63,   150.51  L  2286.12,   150.51  L  2286.12,   125.01  L  2243.63,   125.01 " /></a><a ewd:figtype="fuse" style="cursor:pointer;" ewd:code="FUSE60" ewd:figID="118"><path style="&st7; stroke-width:0;" d=" M  2320.11,   125.01  L  2320.11,   150.51  L  2362.61,   150.51  L  2362.61,   125.01  L  2320.11,   125.01 " /></a><a ewd:figtype="fuse" style="cursor:pointer;" ewd:code="FUSE40" ewd:figID="119"><path style="&st7; stroke-width:0;" d=" M  2430.59,   167.51  L  2430.59,   193.00  L  2473.09,   193.00  L  2473.09,   167.51  L  2430.59,   167.51 " /></a><a ewd:figtype="fuse" style="cursor:pointer;" ewd:code="FUSE43" ewd:figID="120"><path style="&st7; stroke-width:0;" d=" M  2430.59,   125.01  L  2430.59,   150.51  L  2473.09,   150.51  L  2473.09,   125.01  L  2430.59,   125.01 " /></a><a ewd:figtype="fuse" style="cursor:pointer;" ewd:code="FUSE57" ewd:figID="121"><path style="&st7; stroke-width:0;" d=" M  2430.59,    82.52  L  2430.59,   108.02  L  2473.09,   108.02  L  2473.09,    82.52  L  2430.59,    82.52 " /></a><a ewd:figtype="fuse" style="cursor:pointer;" ewd:code="FUSE63" ewd:figID="122"><path style="&st7; stroke-width:0;" d=" M  2677.05,   626.43  L  2677.05,   651.93  L  2719.55,   651.93  L  2719.55,   626.43  L  2677.05,   626.43 " /></a><a ewd:figtype="fuse" style="cursor:pointer;" ewd:code="FUSE58" ewd:figID="123"><path style="&st7; stroke-width:0;" d=" M  2677.05,   473.46  L  2677.05,   498.95  L  2719.55,   498.95  L  2719.55,   473.46  L  2677.05,   473.46 " /></a><a ewd:figtype="fuse" style="cursor:pointer;" ewd:code="FUSE61" ewd:figID="124"><path style="&st7; stroke-width:0;" d=" M  2753.54,   668.92  L  2753.54,   694.42  L  2796.03,   694.42  L  2796.03,   668.92  L  2753.54,   668.92 " /></a><a ewd:figtype="fuse" style="cursor:pointer;" ewd:code="FUSE62" ewd:figID="125"><path style="&st7; stroke-width:0;" d=" M  2753.54,   626.43  L  2753.54,   651.93  L  2796.03,   651.93  L  2796.03,   626.43  L  2753.54,   626.43 " /></a><a ewd:figtype="fuse" style="cursor:pointer;" ewd:code="FUSE67" ewd:figID="126"><path style="&st7; stroke-width:0;" d=" M  2753.54,   583.94  L  2753.54,   609.43  L  2796.03,   609.43  L  2796.03,   583.94  L  2753.54,   583.94 " /></a><a ewd:figtype="fuse" style="cursor:pointer;" ewd:code="FUSE47" ewd:figID="127"><path style="&st7; stroke-width:0;" d=" M  2753.54,   515.95  L  2753.54,   541.44  L  2796.03,   541.44  L  2796.03,   515.95  L  2753.54,   515.95 " /></a><a ewd:figtype="fuse" style="cursor:pointer;" ewd:code="FUSE38" ewd:figID="128"><path style="&st7; stroke-width:0;" d=" M  2753.54,   473.46  L  2753.54,   498.95  L  2796.03,   498.95  L  2796.03,   473.46  L  2753.54,   473.46 " /></a><a ewd:figtype="fuse" style="cursor:pointer;" ewd:code="FUSE59" ewd:figID="129"><path style="&st7; stroke-width:0;" d=" M  2753.54,   430.96  L  2753.54,   456.46  L  2796.03,   456.46  L  2796.03,   430.96  L  2753.54,   430.96 " /></a><a ewd:figtype="fuse" style="cursor:pointer;" ewd:code="FUSE65" ewd:figID="130"><path style="&st7; stroke-width:0;" d=" M  2753.54,   388.47  L  2753.54,   413.97  L  2796.03,   413.97  L  2796.03,   388.47  L  2753.54,   388.47 " /></a><a ewd:figtype="fuse" style="cursor:pointer;" ewd:code="FUSE41" ewd:figID="131"><path style="&st7; stroke-width:0;" d=" M  2753.54,   345.98  L  2753.54,   371.47  L  2796.03,   371.47  L  2796.03,   345.98  L  2753.54,   345.98 " /></a><a ewd:figtype="fuse" style="cursor:pointer;" ewd:code="FUSE45" ewd:figID="132"><path style="&st7; stroke-width:0;" d=" M  2753.54,   303.48  L  2753.54,   328.98  L  2796.03,   328.98  L  2796.03,   303.48  L  2753.54,   303.48 " /></a><a ewd:figtype="fuse" style="cursor:pointer;" ewd:code="FUSE44" ewd:figID="133"><path style="&st7; stroke-width:0;" d=" M  2753.54,   260.99  L  2753.54,   286.49  L  2796.03,   286.49  L  2796.03,   260.99  L  2753.54,   260.99 " /></a><a ewd:figtype="fuse" style="cursor:pointer;" ewd:code="FUSE46" ewd:figID="134"><path style="&st7; stroke-width:0;" d=" M  2753.54,   218.50  L  2753.54,   243.99  L  2796.03,   243.99  L  2796.03,   218.50  L  2753.54,   218.50 " /></a><a ewd:figtype="fuse" style="cursor:pointer;" ewd:code="FUSE49" ewd:figID="135"><path style="&st7; stroke-width:0;" d=" M  2753.54,   176.01  L  2753.54,   201.50  L  2796.03,   201.50  L  2796.03,   176.01  L  2753.54,   176.01 " /></a><a ewd:figtype="fuse" style="cursor:pointer;" ewd:code="FUSE56" ewd:figID="136"><path style="&st7; stroke-width:0;" d=" M  2753.54,   125.01  L  2753.54,   150.51  L  2796.03,   150.51  L  2796.03,   125.01  L  2753.54,   125.01 " /></a><a ewd:figtype="fuse" style="cursor:pointer;" ewd:code="FUSE52" ewd:figID="137"><path style="&st7; stroke-width:0;" d=" M  2753.54,    82.52  L  2753.54,   108.02  L  2796.03,   108.02  L  2796.03,    82.52  L  2753.54,    82.52 " /></a><a style="cursor:pointer;" ewd:lineID="1"><path style="stroke:#000000;stroke-width: 5.10 ;&st6;" d=" M    33.99,   681.67  L    33.99,   630.68  L    59.49,   630.68  L    67.99,   622.18  L    67.99,   614.25  " /><path style="stroke:#FFFFFF;stroke-width: 2.27 ;&st6;" d=" M    33.99,   681.67  L    33.99,   630.68  L    59.49,   630.68  L    67.99,   622.18  L    67.99,   614.25  " /><path style="stroke:#666666;stroke-width: 1.13 ;&st6;" d=" M    33.99,   681.67  L    33.99,   630.68  L    59.49,   630.68  L    67.99,   622.18  L    67.99,   614.25  " /></a><a style="cursor:pointer;" ewd:lineID="2"><path style="stroke:#000000;stroke-width: 5.10 ;&st6;" d=" M    67.99,   681.67  L    67.99,   614.25  " /><path style="stroke:#FFFFFF;stroke-width: 2.27 ;&st6;" d=" M    67.99,   681.67  L    67.99,   614.25  " /><path style="stroke:#666666;stroke-width: 1.13 ;&st6;" d=" M    67.99,   681.67  L    67.99,   614.25  " /></a><a style="cursor:pointer;" ewd:lineID="3"><path style="stroke:#000000;stroke-width: 5.10 ;&st6;" d=" M    67.99,   460.71  L    67.99,   205.75  L   135.98,   205.75  " /><path style="stroke:#FFFFFF;stroke-width: 2.27 ;&st6;" d=" M    67.99,   460.71  L    67.99,   205.75  L   135.98,   205.75  " /><path style="stroke:#FF0000;stroke-width: 1.13 ;&st6;" d=" M    67.99,   460.71  L    67.99,   205.75  L   135.98,   205.75  " /></a><a style="cursor:pointer;" ewd:lineID="4"><path style="stroke:#FF0000;stroke-width: 5.10 ;&st6;" d=" M   339.94,   596.69  L   560.91,   596.69  " /></a><a style="cursor:pointer;" ewd:lineID="5"><path style="stroke:#00A0C6;stroke-width: 5.10 ;&st6;" d=" M   339.94,   528.70  L  1597.73,   528.70  L  1597.73,   477.71  " /></a><a style="cursor:pointer;" ewd:lineID="6"><path style="stroke:#FF0000;stroke-width: 5.10 ;&st6;" d=" M   339.94,   435.21  L   560.91,   435.21  " /><path style="stroke:#FFFFFF;stroke-width: 2.27 ;&st6;" d=" M   339.94,   435.21  L   560.91,   435.21  " /><path style="stroke:#000000;stroke-width: 1.13 ;&st6;" d=" M   339.94,   435.21  L   560.91,   435.21  " /></a><a style="cursor:pointer;" ewd:lineID="7"><path style="stroke:#000000;stroke-width: 5.10 ;&st6;" d=" M   339.94,   248.24  L   560.91,   248.24  " /></a><a style="cursor:pointer;" ewd:lineID="8"><path style="stroke:#999999;stroke-width: 5.10 ;&st6;" d=" M   560.91,   571.19  L   543.91,   571.19  L   543.91,   545.69  L  1597.73,   545.69  L  1597.73,   571.19  L  1920.68,   571.19  L  1920.68,   477.71  " /></a><a style="cursor:pointer;" ewd:lineID="9"><path style="stroke:#00A0C6;stroke-width: 5.10 ;&st6;" d=" M   662.89,   596.69  L   790.37,   596.69  " /></a><a style="cursor:pointer;" ewd:lineID="10"><path style="stroke:#000000;stroke-width: 5.10 ;&st6;" d=" M   662.89,   571.19  L   747.88,   571.19  " /><path style="stroke:#FFFFFF;stroke-width: 4.53 ;&st6;" d=" M   662.89,   571.19  L   747.88,   571.19  " /><path style="stroke:#000000;stroke-width: 1.13 ;&st6;" d=" M   662.89,   571.19  L   747.88,   571.19  " /></a><a style="cursor:pointer;" ewd:lineID="11"><path style="stroke:#FF0000;stroke-width: 5.10 ;&st6;" d=" M   662.89,   435.21  L   713.88,   435.21  " /></a><a style="cursor:pointer;" ewd:lineID="12"><path style="stroke:#FF0000;stroke-width: 5.10 ;&st6;" d=" M   662.89,   435.21  L   671.39,   435.21  L   679.89,   426.71  L   679.89,   358.73  L   747.88,   358.73  " /></a><a style="cursor:pointer;" ewd:lineID="13"><path style="stroke:#000000;stroke-width: 5.10 ;&st6;" d=" M   713.88,   248.24  L   662.89,   248.24  " /></a><a style="cursor:pointer;" ewd:lineID="14"><path style="stroke:#000000;stroke-width: 5.10 ;&st6;" d=" M   756.37,   681.67  L   756.37,   579.69  " /><path style="stroke:#FFFFFF;stroke-width: 4.53 ;&st6;" d=" M   756.37,   681.67  L   756.37,   579.69  " /><path style="stroke:#000000;stroke-width: 1.13 ;&st6;" d=" M   756.37,   681.67  L   756.37,   579.69  " /></a><a style="cursor:pointer;" ewd:lineID="15"><path style="stroke:#FF0000;stroke-width: 5.10 ;&st6;" d=" M   883.85,   358.73  L   849.86,   358.73  " /><path style="stroke:#FFFFFF;stroke-width: 2.27 ;&st6;" d=" M   883.85,   358.73  L   849.86,   358.73  " /><path style="stroke:#000000;stroke-width: 1.13 ;&st6;" d=" M   883.85,   358.73  L   849.86,   358.73  " /></a><a ewd:comment="7" style="cursor:pointer;" ewd:lineID="16"> d=" M  1172.80,   129.26  L  1359.77,   129.26 
	
		<path style="stroke:#000000;stroke-width: 5.10 ;&st6;" d=" M  1172.80,   129.26  L  1359.77,   129.26  " /><path style="stroke:#FFFFFF;stroke-width: 4.53 ;&st6;" d=" M  1172.80,   129.26  L  1359.77,   129.26  " /></a><a style="cursor:pointer;" ewd:lineID="17"><path style="stroke:#000000;stroke-width: 5.10 ;&st6;" d=" M  1232.29,   367.22  L  1181.30,   367.22  " /></a><a style="cursor:pointer;" ewd:lineID="18"><path style="stroke:#000000;stroke-width: 5.10 ;&st6;" d=" M  1334.28,   367.22  L  1376.77,   367.22  " /></a><a ewd:comment="6" style="cursor:pointer;" ewd:lineID="19"><path style="stroke:#00A0C6;stroke-width: 5.10 ;&st6;" d=" M  1597.73,   462.97  L  1597.73,   460.71  L  1614.73,   443.71  L  1665.72,   443.71  L  1665.72,   410.28  " /></a><a ewd:comment="5" style="cursor:pointer;" ewd:lineID="20"><path style="stroke:#00A0C6;stroke-width: 5.10 ;&st6;" d=" M  1648.72,   273.74  L  1597.73,   273.74  L  1597.73,   462.97  " /></a><a ewd:comment="6" style="cursor:pointer;" ewd:lineID="21"><path style="stroke:#992903;stroke-width: 5.10 ;&st6;" d=" M  1699.72,   410.28  L  1699.72,   469.21  " /></a><a ewd:comment="5" style="cursor:pointer;" ewd:lineID="22"><path style="stroke:#999999;stroke-width: 5.10 ;&st6;" d=" M  1708.21,   273.74  L  1920.68,   273.74  L  1920.68,   462.97  " /></a><a ewd:comment="5" style="cursor:pointer;" ewd:lineID="23"><path style="stroke:#000000;stroke-width: 5.10 ;&st6;" d=" M  1708.21,   205.75  L  2201.13,   205.75  " /></a><a ewd:comment="6" style="cursor:pointer;" ewd:lineID="24"><path style="stroke:#99D9E8;stroke-width: 5.10 ;&st6;" d=" M  1793.20,   410.28  L  1793.20,   469.21  " /></a><a ewd:comment="6" style="cursor:pointer;" ewd:lineID="25"><path style="stroke:#000000;stroke-width: 5.10 ;&st6;" d=" M  1827.19,   410.28  L  1827.19,   469.21  " /></a><a ewd:comment="6" style="cursor:pointer;" ewd:lineID="26"><path style="stroke:#008837;stroke-width: 5.10 ;&st6;" d=" M  1869.69,   349.66  L  1869.69,   316.23  L  2184.14,   316.23  L  2184.14,   333.23  L  2192.63,   341.73  L  2201.13,   341.73  " /></a><a ewd:comment="6" style="cursor:pointer;" ewd:lineID="27"><path style="stroke:#999999;stroke-width: 5.10 ;&st6;" d=" M  1920.68,   462.97  L  1920.68,   460.71  L  1903.68,   443.71  L  1869.69,   443.71  L  1869.69,   410.28  " /></a><a style="cursor:pointer;" ewd:lineID="28"><path style="stroke:#00A0C6;stroke-width: 5.10 ;&st6;" d=" M  1937.68,   596.69  L   807.37,   596.69  " /></a><a ewd:comment="5" style="cursor:pointer;" ewd:lineID="29"><path style="stroke:#7FC97F;stroke-width: 5.10 ;&st6;" d=" M  2201.13,   392.72  L  1937.68,   392.72  L  1937.68,   333.23  L  1631.73,   333.23  L  1631.73,   222.75  L  1648.72,   222.75  " /></a><a ewd:comment="5" style="cursor:pointer;" ewd:lineID="30"><path style="stroke:#008837;stroke-width: 5.10 ;&st6;" d=" M  2201.13,   341.73  L  1954.67,   341.73  L  1954.67,   222.75  L  1708.21,   222.75  " /></a><a ewd:comment="6" style="cursor:pointer;" ewd:lineID="31"><path style="stroke:#000000;stroke-width: 5.10 ;&st6;" d=" M  2201.13,   205.75  L  2192.63,   205.75  L  2184.14,   214.25  L  2184.14,   248.24  L  1810.20,   248.24  L  1810.20,   349.66  " /></a><a style="cursor:pointer;" ewd:lineID="32"> d=" M  2201.13,    95.27  L  1172.80,    95.27 
	
		<path style="stroke:#000000;stroke-width: 5.10 ;&st6;" d=" M  2201.13,    95.27  L  1172.80,    95.27  " /><path style="stroke:#FFFFFF;stroke-width: 4.53 ;&st6;" d=" M  2201.13,    95.27  L  1172.80,    95.27  " /></a><a style="cursor:pointer;" ewd:lineID="33"><path style="stroke:#00A0C6;stroke-width: 5.10 ;&st6;" d=" M  2838.53,   401.22  L  2966.00,   401.22  L  2966.00,   299.80  " /></a><a style="cursor:pointer;" ewd:lineID="34"><path style="stroke:#FF0000;stroke-width: 5.10 ;&st6;" d=" M  2838.53,   358.73  L  2915.01,   358.73  L  2915.01,   299.80  " /></a><a style="cursor:pointer;" ewd:lineID="35"><path style="stroke:#000000;stroke-width: 5.10 ;&st6;" d=" M  2872.52,   681.67  L  2872.52,   554.19  L  2838.53,   554.19  " /><path style="stroke:#FFFFFF;stroke-width: 4.53 ;&st6;" d=" M  2872.52,   681.67  L  2872.52,   554.19  L  2838.53,   554.19  " /><path style="stroke:#000000;stroke-width: 1.13 ;&st6;" d=" M  2872.52,   681.67  L  2872.52,   554.19  L  2838.53,   554.19  " /></a><a style="cursor:pointer;" ewd:lineID="36"><path style="stroke:#000000;stroke-width: 0.85 ;&st6;" d=" M    67.99,   494.70  L    67.99,   536.63  " /></a><a ewd:figtype="w2w" style="cursor:pointer;" ewd:pinNo="3" ewd:code="AE3" ewd:figID="64"><path style="&st2;" d=" M  1606.23,   469.21  L  1589.23,   469.21  L  1589.23,   477.71  L  1606.23,   477.71  L  1606.23,   469.21 " /><text style="&st8;" transform="matrix(&st16;  1592.43  475.58 )"><tspan x="0" style="&st18;" y="0">AE3</tspan></text></a><a ewd:figtype="w2w" style="cursor:pointer;" ewd:pinNo="4" ewd:code="AE3" ewd:figID="65"><path style="&st2;" d=" M  1929.18,   469.21  L  1912.18,   469.21  L  1912.18,   477.71  L  1929.18,   477.71  L  1929.18,   469.21 " /><text style="&st8;" transform="matrix(&st16;  1915.37  475.58 )"><tspan x="0" style="&st18;" y="0">AE3</tspan></text></a><a ewd:figtype="gp" style="cursor:pointer;" ewd:code="CB" ewd:figID="66"><path style="&st2;" d=" M    23.37,   681.67  L    44.62,   681.67  L    33.99,   697.25  L    23.37,   681.67 " /><text style="&st8;" transform="matrix(&st16;  30.01  689.46 )"><tspan x="0" style="&st18;" y="0">CB</tspan></text></a><a ewd:figtype="gp" style="cursor:pointer;" ewd:code="CA" ewd:figID="67"><path style="&st2;" d=" M    57.37,   681.67  L    78.61,   681.67  L    67.99,   697.25  L    57.37,   681.67 " /><text style="&st8;" transform="matrix(&st16;  63.89  689.46 )"><tspan x="0" style="&st18;" y="0">CA</tspan></text></a><a ewd:figtype="gp" style="cursor:pointer;" ewd:code="AB" ewd:figID="68"><path style="&st2;" d=" M   745.75,   681.67  L   767.00,   681.67  L   756.37,   697.25  L   745.75,   681.67 " /><text style="&st8;" transform="matrix(&st16;  752.5  689.46 )"><tspan x="0" style="&st18;" y="0">AB</tspan></text></a><a ewd:figtype="gp" style="cursor:pointer;" ewd:code="EA" ewd:figID="69"><path style="&st2;" d=" M  2861.90,   681.67  L  2883.14,   681.67  L  2872.52,   697.25  L  2861.90,   681.67 " /><text style="&st8;" transform="matrix(&st16;  2868.72  689.46 )"><tspan x="0" style="&st18;" y="0">EA</tspan></text></a><a ewd:figtype="sp" style="cursor:pointer;" ewd:code="SP3" ewd:figID="70"><path style="&st2;" d=" M   752.12,   562.69  L   760.62,   562.69  L   764.87,   566.94  L   764.87,   575.44  L   760.62,   579.69  L   752.12,   579.69  L   747.88,   575.44  L   747.88,   566.94  L   752.12,   562.69 " /></a><a ewd:figtype="sp" style="cursor:pointer;" ewd:code="SP5" ewd:figID="71"><path style="&st2;" d=" M   794.62,   588.19  L   803.12,   588.19  L   807.37,   592.44  L   807.37,   600.93  L   803.12,   605.18  L   794.62,   605.18  L   790.37,   600.93  L   790.37,   592.44  L   794.62,   588.19 " /></a></g></svg>