<?xml version="1.0" encoding="utf-8"?>
<!DOCTYPE svg PUBLIC "-//W3C//DTD SVG 1.0//EN" "http://www.w3.org/TR/2001/REC-SVG-20010904/DTD/svg10.dtd"[
	<!ENTITY ns_flows "http://ns.adobe.com/Flows/1.0/">
	<!ENTITY ns_svg "http://www.w3.org/2000/svg">
	<!ENTITY ns_xlink "http://www.w3.org/1999/xlink">
	<!ENTITY st0 "font-size:7px;font-family:'NSimSun';adobe-font-script:japanese;">
	<!ENTITY st1 "font-size:6px;font-family:'NSimSun';">
	<!-- White fill  -->
	<!ENTITY st2 "fill:#FFFFFF;stroke:#000000; stroke-width:1.41;stroke-linecap:round;stroke-linejoin:round;">
	<!-- Yellow fill  -->
	<!ENTITY st3 "fill:#FFFFCC;stroke:#FFFFCC; stroke-width:0.1;stroke-linecap:round;stroke-linejoin:round;">
	<!-- Gray fill  -->
	<!ENTITY st4 "fill:#CCCCCC;stroke:#CCCCCC; stroke-width:0.1;stroke-linecap:round;stroke-linejoin:round;">
	<!-- Light-blue fill -->
	<!ENTITY st5 "fill:#CCECF4;stroke:#000000; stroke-width:1.133;stroke-linecap:round;stroke-linejoin:round;">
	<!ENTITY st6 "fill:none;stroke-linecap:butt; stroke-linejoin:round;">
	<!ENTITY st7 "fill:none;stroke:#000000;stroke-linecap:round;stroke-linejoin:round;">
	<!ENTITY st8 "enable-background:new    ;">
	<!-- Black fill -->
	<!ENTITY st9 "fill:#000000;stroke:#000000; stroke-linecap:round;stroke-linejoin:round;">
	<!-- SRS note   -->
	<!ENTITY st10 "font-size:9px;font-family:'NSimSun';">
	<!ENTITY st11 "font-size:9px;font-family:'NSimSun';">
	<!ENTITY st12 "font-size:6px;font-family:'NSimSun';">
	<!ENTITY st13 "fill:none;stroke:#ff0000;stroke-linecap:round;stroke-linejoin:round;">
	<!-- Yellow fill  -->
	<!ENTITY st14 "fill:#FFFF00;stroke:#FFFF00; stroke-width:0.1;stroke-linecap:round;stroke-linejoin:round;">
	<!ENTITY st15 "font-size:6px;font-family:'NSimSun';adobe-font-script:japanese;">
	<!ENTITY st16 "1.00 0.00 0.00 1.00">
	<!ENTITY st17 "0.00 -1.00 1.00 0.00">
	<!ENTITY st18 "font-size:6px;font-family:'NSimSun';">
	<!ENTITY st19 "font-size:9px;font-family:'NSimSun';">
	<!ENTITY st20 "font-size:6px;font-family:'NSimSun';adobe-font-script:japanese;">
	<!ENTITY st21 "font-size:7px;font-family:'NSimSun';adobe-font-script:japanese;">
	<!ATTLIST svg
		xmlns:ewd CDATA #FIXED "http://shcl.co.jp/ewd"
		xmlns:a CDATA #FIXED "http://ns.adobe.com/AdobeSVGViewerExtensions/3.0/"
		ewd:ver CDATA #IMPLIED
	>
	<!ATTLIST a
		ewd:lineID CDATA #IMPLIED
		ewd:groupID CDATA #IMPLIED
		ewd:figtype CDATA #IMPLIED
		ewd:code CDATA #IMPLIED
		ewd:figID CDATA #IMPLIED
		ewd:pinNo CDATA #IMPLIED
		ewd:comment CDATA #IMPLIED >
	<!ATTLIST g
		ewd:lineID CDATA #IMPLIED
		ewd:groupID CDATA #IMPLIED
		ewd:figtype CDATA #IMPLIED
		ewd:code CDATA #IMPLIED
		ewd:figID CDATA #IMPLIED
		ewd:pinNo CDATA #IMPLIED
		ewd:comment CDATA #IMPLIED >
	<!ATTLIST text
		ewd:textID CDATA #IMPLIED
		ewd:horAlign CDATA #IMPLIED >
	<!ATTLIST title
		ewd:textID CDATA #IMPLIED >
]>
<!-- Generator: Shintec Hozumi YS   -->
<svg onload="call_execInitLoadProc_svg('system')" style="overflow:visible;  enable-background:new 0 0 3020.283 710.000" viewBox="0 0 2991.504 710.000" height="710.000" width="2991.504" xml:space="preserve" ewd:ver="2.1.2.6F" xmlns="&ns_svg;" xmlns:ewd="http://shcl.co.jp/ewd" xmlns:a="http://ns.adobe.com/AdobeSVGViewerExtensions/3.0/" xmlns:xlink="&ns_xlink;">
<path style="stroke-width: 1.42 ;&st7;  " d=" M   795.34,   588.19  L   790.37,   593.16  " /><path style="stroke-width: 1.42 ;&st7;  " d=" M   802.39,   605.18  L   807.37,   600.22  " /><path style="stroke-width: 1.42 ;&st7;  " d=" M   790.37,   600.22  L   795.34,   605.18  " /><path style="stroke-width: 1.42 ;&st7;  " d=" M   807.37,   593.16  L   802.39,   588.19  " /><path style="stroke-width: 1.42 ;&st7;  " d=" M   764.87,   567.66  L   759.90,   562.69  " /><path style="stroke-width: 1.42 ;&st7;  " d=" M   747.88,   574.72  L   752.84,   579.69  " /><path style="stroke-width: 1.42 ;&st7;  " d=" M   759.90,   579.69  L   764.87,   574.72  " /><path style="stroke-width: 1.42 ;&st7;  " d=" M   752.84,   562.69  L   747.88,   567.66  " /><text style="&st18;" transform="matrix(&st16;  694.77  355.03 )">R</text><text style="&st18;" transform="matrix(&st16;  694.7  244.55 )">B</text><text style="&st18;" transform="matrix(&st16;  861.25  355.03 )">R-B</text><text style="&st18;" transform="matrix(&st16;  694.77  431.52 )">R</text><text style="&st18;" transform="matrix(&st16;  822.29  592.99 )">L</text><text style="&st18;" transform="matrix(&st16;  709.56  542.0 )">GR</text><text style="&st18;" transform="matrix(&st16;  711.81  592.99 )">L</text><text style="&st18;" transform="matrix(&st16;  707.43  567.49 )">W-B</text><text style="&st18;" transform="matrix(&st17;  752.68  653.63 )">W-B</text><text style="&st18;" transform="matrix(&st16;  538.31  431.52 )">R-B</text><text style="&st18;" transform="matrix(&st16;  541.72  244.55 )">B</text><text style="&st18;" transform="matrix(&st16;  541.8  592.99 )">R</text><text style="&st18;" transform="matrix(&st16;  541.84  525.0 )">L</text><g ewd:figtype="rb" ewd:figID="5" ewd:code="FUSE10"><path style="stroke-width: 1.42 ;&st7;  " d=" M   892.35,   362.97  L   888.10,   362.97  " /><path style="stroke-width: 1.42 ;&st7;  " d=" M   888.10,   354.48  L   892.35,   354.48  " /><path style="stroke-width: 1.42 ;&st7;   " d=" M   896.60,   358.73  C   896.60    356.38    894.70    354.48    892.35    354.48  " /><path style="stroke-width: 1.42 ;&st7;   " d=" M   892.35,   362.97  C   894.70    362.97    896.60    361.07    896.60    358.73  " /><path style="stroke-width: 1.42 ;&st7;   " d=" M   883.85,   358.73  C   883.85    361.07    885.75    362.97    888.10    362.97  " /><path style="stroke-width: 1.42 ;&st7;   " d=" M   888.10,   354.48  C   885.75    354.48    883.85    356.38    883.85    358.73  " /><path style="stroke-width: 0.85 ;&st7;  " d=" M   943.34,   358.73  L   896.60,   358.73  " /><path style="stroke-width: 0.28 ;&st9;  " d=" M   901.49,   358.73  L   904.33,   355.89  L   900.08,   355.89  L   897.25,   358.73  L   900.08,   361.56  L   904.33,   361.56  L   901.49,   358.73  " /><path style="stroke-width: 0.85 ;&st7;  " d=" M   925.15,   357.72  L   924.88,   358.19  L   924.79,   358.73  L   924.88,   359.26  L   925.15,   359.73  L   925.57,   360.07  L   926.07,   360.26  L   926.62,   360.26  L   927.12,   360.07  L   927.54,   359.73  L   927.81,   359.26  L   927.90,   358.73  L   927.81,   358.19  L   927.54,   357.72  L   927.12,   357.38  L   926.62,   357.19  L   926.07,   357.19  L   925.57,   357.38  L   925.15,   357.72  L   925.55,   358.43  L   925.55,   359.02  L   925.92,   359.46  L   926.49,   359.56  L   927.00,   359.27  L   927.19,   358.73  L   927.00,   358.18  L   926.49,   357.89  L   925.92,   357.99  L   926.34,   358.73  " /><path style="stroke-width: 0.85 ;&st7;  " d=" M   926.34,   358.73  L   926.34,   316.23  L   943.34,   316.23  " /><path style="stroke-width: 0.85 ;&st7;  " d=" M  1002.83,   316.23  L   985.83,   316.23  " /><path style="stroke-width: 0.85 ;&st7;  " d=" M  1002.83,   358.73  L   985.83,   358.73  " /><text style="&st18;" transform="matrix(&st16;  888.43  360.69 )">1</text><text style="&st18;" transform="matrix(&st16;  941.19  340.86 )">10A H-LP LH-HI</text><text style="&st18;" transform="matrix(&st16;  988.42  355.04 )">2</text><text style="&st18;" transform="matrix(&st16;  937.16  355.04 )">1</text><text style="&st18;" transform="matrix(&st16;  937.16  312.54 )">1</text><text style="&st18;" transform="matrix(&st16;  988.42  312.54 )">2</text><text style="&st18;" transform="matrix(&st16;  941.15  298.37 )">10A H-LP RH-HI</text><path style="stroke-width: 0.85 ;&st7;  " d=" M   951.84,   358.73  L   943.34,   358.73  " /><path style="stroke-width: 0.85 ;&st7;   " d=" M   954.67,   358.73  C   954.67    357.94    954.04    357.31    953.26    357.31  " /><path style="stroke-width: 0.85 ;&st7;   " d=" M   953.26,   357.31  C   952.48    357.31    951.84    357.94    951.84    358.73  " /><path style="stroke-width: 0.85 ;&st7;   " d=" M   951.84,   358.73  C   951.84    359.51    952.48    360.14    953.26    360.14  " /><path style="stroke-width: 0.85 ;&st7;   " d=" M   953.26,   360.14  C   954.04    360.14    954.67    359.51    954.67    358.73  " /><path style="stroke-width: 0.85 ;&st7;   " d=" M   977.34,   358.73  C   977.34    357.94    976.70    357.31    975.92    357.31  " /><path style="stroke-width: 0.85 ;&st7;   " d=" M   975.92,   357.31  C   975.14    357.31    974.50    357.94    974.50    358.73  " /><path style="stroke-width: 0.85 ;&st7;   " d=" M   974.50,   358.73  C   974.50    359.51    975.14    360.14    975.92    360.14  " /><path style="stroke-width: 0.85 ;&st7;   " d=" M   975.92,   360.14  C   976.70    360.14    977.34    359.51    977.34    358.73  " /><path style="stroke-width: 1.42 ;&st7;   " d=" M   954.67,   358.73  C   956.29    361.46    959.81    362.38    962.55    360.76  " /><path style="stroke-width: 1.42 ;&st7;   " d=" M   962.55,   360.76  C   963.43    360.24    964.07    359.61    964.59    358.73  " /><path style="stroke-width: 1.42 ;&st7;   " d=" M   974.50,   358.73  C   972.89    355.99    969.36    355.08    966.63    356.69  " /><path style="stroke-width: 1.42 ;&st7;   " d=" M   966.63,   356.69  C   965.74    357.21    965.11    357.84    964.59    358.73  " /><path style="stroke-width: 1.42 ;&st7;  " d=" M   943.34,   345.98  L   943.34,   371.47  L   985.83,   371.47  L   985.83,   345.98  L   943.34,   345.98  " /><path style="stroke-width: 0.85 ;&st7;  " d=" M   985.83,   358.73  L   977.34,   358.73  " /></g><g ewd:figtype="rb" ewd:figID="9" ewd:code="FUSE11"><path style="stroke-width: 1.42 ;&st7;  " d=" M   722.38,   439.46  L   718.13,   439.46  " /><path style="stroke-width: 1.42 ;&st7;  " d=" M   718.13,   430.96  L   722.38,   430.96  " /><path style="stroke-width: 1.42 ;&st7;   " d=" M   726.63,   435.21  C   726.63    432.87    724.73    430.96    722.38    430.96  " /><path style="stroke-width: 1.42 ;&st7;   " d=" M   722.38,   439.46  C   724.73    439.46    726.63    437.56    726.63    435.21  " /><path style="stroke-width: 1.42 ;&st7;   " d=" M   713.88,   435.21  C   713.88    437.56    715.78    439.46    718.13    439.46  " /><path style="stroke-width: 1.42 ;&st7;   " d=" M   718.13,   430.96  C   715.78    430.96    713.88    432.87    713.88    435.21  " /><path style="stroke-width: 0.85 ;&st7;  " d=" M   726.63,   435.21  L   773.37,   435.21  " /><path style="stroke-width: 0.28 ;&st9;  " d=" M   731.52,   435.21  L   734.36,   432.38  L   730.11,   432.38  L   727.27,   435.21  L   730.11,   438.05  L   734.36,   438.05  L   731.52,   435.21  " /><path style="stroke-width: 0.85 ;&st7;  " d=" M   746.68,   434.21  L   746.41,   434.68  L   746.32,   435.21  L   746.41,   435.75  L   746.68,   436.22  L   747.10,   436.56  L   747.60,   436.75  L   748.15,   436.75  L   748.65,   436.56  L   749.07,   436.22  L   749.34,   435.75  L   749.43,   435.21  L   749.34,   434.68  L   749.07,   434.21  L   748.65,   433.86  L   748.15,   433.68  L   747.60,   433.68  L   747.10,   433.86  L   746.68,   434.21  L   747.08,   434.92  L   747.08,   435.50  L   747.45,   435.95  L   748.02,   436.05  L   748.53,   435.76  L   748.72,   435.21  L   748.53,   434.67  L   748.02,   434.38  L   747.45,   434.48  L   747.87,   435.21  " /><path style="stroke-width: 0.85 ;&st7;  " d=" M   832.86,   486.20  L   815.86,   486.20  " /><path style="stroke-width: 0.85 ;&st7;  " d=" M   832.86,   435.21  L   815.86,   435.21  " /><path style="stroke-width: 0.85 ;&st7;  " d=" M   773.37,   486.20  L   747.87,   486.20  L   747.87,   435.21  " /><text style="&st18;" transform="matrix(&st16;  718.45  437.18 )">1</text><text style="&st18;" transform="matrix(&st16;  770.13  417.63 )">10A H-LP RH-LO</text><text style="&st18;" transform="matrix(&st16;  818.45  431.52 )">2</text><text style="&st18;" transform="matrix(&st16;  767.19  431.52 )">1</text><text style="&st18;" transform="matrix(&st16;  767.19  482.51 )">1</text><text style="&st18;" transform="matrix(&st16;  818.45  482.51 )">2</text><text style="&st18;" transform="matrix(&st16;  770.17  468.63 )">10A H-LP LH-LO</text><path style="stroke-width: 0.85 ;&st7;  " d=" M   781.87,   486.20  L   773.37,   486.20  " /><path style="stroke-width: 1.42 ;&st7;   " d=" M   804.53,   486.20  C   802.92    483.47    799.39    482.55    796.65    484.17  " /><path style="stroke-width: 1.42 ;&st7;   " d=" M   796.65,   484.17  C   795.77    484.69    795.14    485.32    794.62    486.20  " /><path style="stroke-width: 1.42 ;&st7;   " d=" M   784.70,   486.20  C   786.32    488.94    789.84    489.85    792.58    488.24  " /><path style="stroke-width: 1.42 ;&st7;   " d=" M   792.58,   488.24  C   793.46    487.72    794.10    487.09    794.62    486.20  " /><path style="stroke-width: 0.85 ;&st7;   " d=" M   807.37,   486.20  C   807.37    485.42    806.73    484.79    805.95    484.79  " /><path style="stroke-width: 0.85 ;&st7;   " d=" M   805.95,   484.79  C   805.17    484.79    804.53    485.42    804.53    486.20  " /><path style="stroke-width: 0.85 ;&st7;   " d=" M   804.53,   486.20  C   804.53    486.99    805.17    487.62    805.95    487.62  " /><path style="stroke-width: 0.85 ;&st7;   " d=" M   805.95,   487.62  C   806.73    487.62    807.37    486.99    807.37    486.20  " /><path style="stroke-width: 0.85 ;&st7;   " d=" M   784.70,   486.20  C   784.70    485.42    784.07    484.79    783.29    484.79  " /><path style="stroke-width: 0.85 ;&st7;   " d=" M   783.29,   484.79  C   782.50    484.79    781.87    485.42    781.87    486.20  " /><path style="stroke-width: 0.85 ;&st7;   " d=" M   781.87,   486.20  C   781.87    486.99    782.50    487.62    783.29    487.62  " /><path style="stroke-width: 0.85 ;&st7;   " d=" M   783.29,   487.62  C   784.07    487.62    784.70    486.99    784.70    486.20  " /><path style="stroke-width: 0.85 ;&st7;  " d=" M   815.86,   486.20  L   807.36,   486.20  " /><path style="stroke-width: 1.42 ;&st7;  " d=" M   773.37,   473.46  L   773.37,   498.95  L   815.86,   498.95  L   815.86,   473.46  L   773.37,   473.46  " /></g><g ewd:figtype="rb" ewd:figID="10" ewd:code="FUSE12"><path style="stroke-width: 0.85 ;&st7;  " d=" M   951.84,   316.23  L   943.34,   316.23  " /><path style="stroke-width: 1.42 ;&st7;   " d=" M   974.50,   316.23  C   972.89    313.49    969.36    312.58    966.63    314.20  " /><path style="stroke-width: 1.42 ;&st7;   " d=" M   966.63,   314.20  C   965.74    314.72    965.11    315.35    964.59    316.23  " /><path style="stroke-width: 1.42 ;&st7;   " d=" M   954.67,   316.23  C   956.29    318.97    959.81    319.88    962.55    318.27  " /><path style="stroke-width: 1.42 ;&st7;   " d=" M   962.55,   318.27  C   963.43    317.75    964.07    317.11    964.59    316.23  " /><path style="stroke-width: 0.85 ;&st7;   " d=" M   977.34,   316.23  C   977.34    315.45    976.70    314.82    975.92    314.82  " /><path style="stroke-width: 0.85 ;&st7;   " d=" M   975.92,   314.82  C   975.14    314.82    974.50    315.45    974.50    316.23  " /><path style="stroke-width: 0.85 ;&st7;   " d=" M   974.50,   316.23  C   974.50    317.01    975.14    317.65    975.92    317.65  " /><path style="stroke-width: 0.85 ;&st7;   " d=" M   975.92,   317.65  C   976.70    317.65    977.34    317.01    977.34    316.23  " /><path style="stroke-width: 0.85 ;&st7;   " d=" M   954.67,   316.23  C   954.67    315.45    954.04    314.82    953.26    314.82  " /><path style="stroke-width: 0.85 ;&st7;   " d=" M   953.26,   314.82  C   952.48    314.82    951.84    315.45    951.84    316.23  " /><path style="stroke-width: 0.85 ;&st7;   " d=" M   951.84,   316.23  C   951.84    317.01    952.48    317.65    953.26    317.65  " /><path style="stroke-width: 0.85 ;&st7;   " d=" M   953.26,   317.65  C   954.04    317.65    954.67    317.01    954.67    316.23  " /><path style="stroke-width: 0.85 ;&st7;  " d=" M   985.83,   316.23  L   977.34,   316.23  " /><path style="stroke-width: 1.42 ;&st7;  " d=" M   943.34,   303.48  L   943.34,   328.98  L   985.83,   328.98  L   985.83,   303.48  L   943.34,   303.48  " /></g><g ewd:figtype="rb" ewd:figID="12" ewd:code="FUSE20"><path style="stroke-width: 0.85 ;&st7;  " d=" M   875.35,   205.75  L   866.86,   205.75  " /><path style="stroke-width: 0.85 ;&st7;   " d=" M   878.19,   205.75  C   878.19    204.97    877.55    204.33    876.77    204.33  " /><path style="stroke-width: 0.85 ;&st7;   " d=" M   876.77,   204.33  C   875.99    204.33    875.35    204.97    875.35    205.75  " /><path style="stroke-width: 0.85 ;&st7;   " d=" M   875.35,   205.75  C   875.35    206.53    875.99    207.17    876.77    207.17  " /><path style="stroke-width: 0.85 ;&st7;   " d=" M   876.77,   207.17  C   877.55    207.17    878.19    206.53    878.19    205.75  " /><path style="stroke-width: 0.85 ;&st7;   " d=" M   900.85,   205.75  C   900.85    204.97    900.22    204.33    899.43    204.33  " /><path style="stroke-width: 0.85 ;&st7;   " d=" M   899.43,   204.33  C   898.65    204.33    898.02    204.97    898.02    205.75  " /><path style="stroke-width: 0.85 ;&st7;   " d=" M   898.02,   205.75  C   898.02    206.53    898.65    207.17    899.43    207.17  " /><path style="stroke-width: 0.85 ;&st7;   " d=" M   899.43,   207.17  C   900.22    207.17    900.85    206.53    900.85    205.75  " /><path style="stroke-width: 1.42 ;&st7;   " d=" M   878.19,   205.75  C   879.80    208.49    883.33    209.40    886.06    207.79  " /><path style="stroke-width: 1.42 ;&st7;   " d=" M   886.06,   207.79  C   886.95    207.27    887.58    206.63    888.10    205.75  " /><path style="stroke-width: 1.42 ;&st7;   " d=" M   898.02,   205.75  C   896.40    203.01    892.88    202.10    890.14    203.71  " /><path style="stroke-width: 1.42 ;&st7;   " d=" M   890.14,   203.71  C   889.26    204.23    888.62    204.87    888.10    205.75  " /><path style="stroke-width: 1.42 ;&st7;  " d=" M   866.85,   193.00  L   866.85,   218.50  L   909.35,   218.50  L   909.35,   193.00  L   866.85,   193.00  " /><path style="stroke-width: 0.85 ;&st7;  " d=" M   909.35,   205.75  L   900.85,   205.75  " /></g><g ewd:figtype="rb" ewd:figID="17" ewd:code="1"><path style="stroke-width: 1.42 ;&st7;  " d=" M   658.64,   252.49  L   654.39,   252.49  " /><path style="stroke-width: 1.42 ;&st7;  " d=" M   658.64,   243.99  L   654.39,   243.99  " /><path style="stroke-width: 1.42 ;&st7;  " d=" M   565.16,   243.99  L   569.40,   243.99  " /><path style="stroke-width: 1.42 ;&st7;  " d=" M   569.40,   252.49  L   565.16,   252.49  " /><path style="stroke-width: 1.42 ;&st7;   " d=" M   662.89,   248.24  C   662.89    245.90    660.99    243.99    658.64    243.99  " /><path style="stroke-width: 1.42 ;&st7;   " d=" M   658.64,   252.49  C   660.99    252.49    662.89    250.59    662.89    248.24  " /><path style="stroke-width: 1.42 ;&st7;   " d=" M   654.39,   243.99  C   652.04    243.99    650.14    245.90    650.14    248.24  " /><path style="stroke-width: 1.42 ;&st7;   " d=" M   650.14,   248.24  C   650.14    250.59    652.04    252.49    654.39    252.49  " /><path style="stroke-width: 1.42 ;&st7;   " d=" M   645.75,   281.22  C   647.65    279.08    647.71    275.95    645.89    273.74  " /><path style="stroke-width: 1.42 ;&st7;   " d=" M   646.03,   266.26  C   644.13    268.40    644.07    271.53    645.89    273.74  " /><path style="stroke-width: 1.42 ;&st7;   " d=" M   573.65,   248.24  C   573.65    245.90    571.75    243.99    569.40    243.99  " /><path style="stroke-width: 1.42 ;&st7;   " d=" M   569.40,   252.49  C   571.75    252.49    573.65    250.59    573.65    248.24  " /><path style="stroke-width: 1.42 ;&st7;   " d=" M   560.91,   248.24  C   560.91    250.59    562.81    252.49    565.16    252.49  " /><path style="stroke-width: 1.42 ;&st7;   " d=" M   565.16,   243.99  C   562.81    243.99    560.91    245.90    560.91    248.24  " /><path style="stroke-width: 0.85 ;&st7;  " d=" M   628.89,   248.24  L   650.14,   248.24  " /><path style="stroke-width: 0.28 ;&st9;  " d=" M   645.25,   248.24  L   642.41,   245.41  L   646.66,   245.41  L   649.50,   248.24  L   646.66,   251.08  L   642.41,   251.08  L   645.25,   248.24  " /><path style="stroke-width: 0.85 ;&st7;  " d=" M   645.89,   273.74  L   628.89,   273.74  " /><path style="stroke-width: 0.85 ;&st7;  " d=" M   594.90,   273.74  L   577.90,   273.74  " /><path style="stroke-width: 0.85 ;&st7;  " d=" M   594.90,   248.24  L   573.65,   248.24  " /><path style="stroke-width: 0.28 ;&st9;  " d=" M   578.55,   248.24  L   581.38,   245.41  L   577.13,   245.41  L   574.30,   248.24  L   577.13,   251.08  L   581.38,   251.08  L   578.55,   248.24  " /><path style="stroke-width: 1.42 ;&st7;   " d=" M   578.05,   266.26  C   576.14    268.40    576.08    271.53    577.90    273.74  " /><text style="&st18;" transform="matrix(&st16;  654.71  250.21 )">1</text><text style="&st18;" transform="matrix(&st16;  631.48  244.55 )">3</text><text style="&st18;" transform="matrix(&st16;  631.48  270.05 )">2</text><text style="&st18;" transform="matrix(&st16;  588.72  270.05 )">1</text><text style="&st18;" transform="matrix(&st16;  588.72  244.55 )">5</text><text style="&st1;" transform="matrix(&st16;  590.13  236.05 )" ewd:textID="11">EFI- MAIN 继电器</text><text style="&st18;" transform="matrix(&st16;  565.48  250.21 )">1</text><path style="stroke-width: 1.42 ;&st7;   " d=" M   577.76,   281.22  C   579.67    279.08    579.72    275.95    577.90    273.74  " /><path style="stroke-width: 1.42 ;&st7;  " d=" M   621.81,   248.24  L   599.15,   242.58  " /><path style="stroke-width: 0.85 ;&st7;  " d=" M   594.90,   248.24  L   599.15,   248.24  " /><path style="stroke-width: 0.85 ;&st7;  " d=" M   624.65,   248.24  L   628.89,   248.24  " /><path style="stroke-width: 0.85 ;&st7;  " d=" M   628.89,   273.74  L   620.40,   273.74  " /><path style="stroke-width: 0.85 ;&st7;  " d=" M   603.40,   273.74  L   594.90,   273.74  " /><path style="stroke-width: 0.85 ;&st7;   " d=" M   601.98,   248.24  C   601.98    247.46    601.35    246.83    600.57    246.83  " /><path style="stroke-width: 0.85 ;&st7;   " d=" M   600.57,   246.83  C   599.78    246.83    599.15    247.46    599.15    248.24  " /><path style="stroke-width: 0.85 ;&st7;   " d=" M   599.15,   248.24  C   599.15    249.03    599.78    249.66    600.57    249.66  " /><path style="stroke-width: 0.85 ;&st7;   " d=" M   600.57,   249.66  C   601.35    249.66    601.98    249.03    601.98    248.24  " /><path style="stroke-width: 0.85 ;&st7;   " d=" M   624.65,   248.24  C   624.65    247.46    624.01    246.83    623.23    246.83  " /><path style="stroke-width: 0.85 ;&st7;   " d=" M   623.23,   246.83  C   622.45    246.83    621.81    247.46    621.81    248.24  " /><path style="stroke-width: 0.85 ;&st7;   " d=" M   621.81,   248.24  C   621.81    249.03    622.45    249.66    623.23    249.66  " /><path style="stroke-width: 0.85 ;&st7;   " d=" M   623.23,   249.66  C   624.01    249.66    624.65    249.03    624.65    248.24  " /><path style="stroke-width: 0.85 ;&st7;   " d=" M   620.40,   273.74  C   620.40    271.78    618.81    270.20    616.86    270.20  " /><path style="stroke-width: 0.85 ;&st7;   " d=" M   616.86,   270.20  C   614.90    270.20    613.31    271.78    613.31    273.74  " /><path style="stroke-width: 0.85 ;&st7;   " d=" M   613.31,   273.74  C   613.31    274.73    613.67    275.58    614.38    276.27  " /><path style="stroke-width: 0.85 ;&st7;   " d=" M   614.38,   276.27  C   615.77    274.90    615.80    272.66    614.43    271.26  " /><path style="stroke-width: 0.85 ;&st7;   " d=" M   614.43,   271.26  C   613.06    269.86    610.82    269.84    609.42    271.21  " /><path style="stroke-width: 0.85 ;&st7;   " d=" M   609.42,   271.21  C   608.02    272.58    608.00    274.82    609.37    276.22  " /><path style="stroke-width: 0.85 ;&st7;   " d=" M   609.37,   276.22  C   609.39    276.24    609.40    276.25    609.42    276.27  " /><path style="stroke-width: 0.85 ;&st7;   " d=" M   609.42,   276.27  C   610.82    274.90    610.84    272.66    609.47    271.26  " /><path style="stroke-width: 0.85 ;&st7;   " d=" M   609.47,   271.26  C   608.10    269.86    605.86    269.84    604.46    271.21  " /><path style="stroke-width: 0.85 ;&st7;   " d=" M   604.46,   271.21  C   603.75    271.90    603.40    272.75    603.40    273.74  " /><path style="stroke-width: 1.42 ;&st7;  " d=" M   628.89,   282.24  L   628.89,   239.75  L   594.90,   239.75  L   594.90,   282.24  L   628.89,   282.24  " /></g><g ewd:figtype="rb" ewd:figID="19" ewd:code="1"><path style="stroke-width: 1.42 ;&st7;  " d=" M   658.64,   439.46  L   654.39,   439.46  " /><path style="stroke-width: 1.42 ;&st7;  " d=" M   658.64,   430.96  L   654.39,   430.96  " /><path style="stroke-width: 1.42 ;&st7;  " d=" M   565.16,   430.96  L   569.40,   430.96  " /><path style="stroke-width: 1.42 ;&st7;  " d=" M   569.40,   439.46  L   565.16,   439.46  " /><text style="&st18;" transform="matrix(&st16;  565.48  437.18 )">1</text><path style="stroke-width: 1.42 ;&st7;   " d=" M   577.76,   468.19  C   579.67    466.05    579.72    462.92    577.90    460.71  " /><path style="stroke-width: 1.42 ;&st7;   " d=" M   578.05,   453.22  C   576.14    455.36    576.08    458.50    577.90    460.71  " /><path style="stroke-width: 1.42 ;&st7;   " d=" M   662.89,   435.21  C   662.89    432.87    660.99    430.96    658.64    430.96  " /><path style="stroke-width: 1.42 ;&st7;   " d=" M   658.64,   439.46  C   660.99    439.46    662.89    437.56    662.89    435.21  " /><path style="stroke-width: 1.42 ;&st7;   " d=" M   654.39,   430.96  C   652.04    430.96    650.14    432.87    650.14    435.21  " /><path style="stroke-width: 1.42 ;&st7;   " d=" M   650.14,   435.21  C   650.14    437.56    652.04    439.46    654.39    439.46  " /><path style="stroke-width: 1.42 ;&st7;   " d=" M   645.75,   468.19  C   647.65    466.05    647.71    462.92    645.89    460.71  " /><path style="stroke-width: 1.42 ;&st7;   " d=" M   646.03,   453.22  C   644.13    455.36    644.07    458.50    645.89    460.71  " /><path style="stroke-width: 1.42 ;&st7;   " d=" M   573.65,   435.21  C   573.65    432.87    571.75    430.96    569.40    430.96  " /><path style="stroke-width: 1.42 ;&st7;   " d=" M   569.40,   439.46  C   571.75    439.46    573.65    437.56    573.65    435.21  " /><path style="stroke-width: 1.42 ;&st7;   " d=" M   560.91,   435.21  C   560.91    437.56    562.81    439.46    565.16    439.46  " /><path style="stroke-width: 1.42 ;&st7;   " d=" M   565.16,   430.96  C   562.81    430.96    560.91    432.87    560.91    435.21  " /><path style="stroke-width: 0.85 ;&st7;  " d=" M   594.90,   460.71  L   577.90,   460.71  " /><path style="stroke-width: 0.85 ;&st7;  " d=" M   628.89,   435.21  L   650.14,   435.21  " /><path style="stroke-width: 0.28 ;&st9;  " d=" M   645.25,   435.21  L   642.41,   432.38  L   646.66,   432.38  L   649.50,   435.21  L   646.66,   438.05  L   642.41,   438.05  L   645.25,   435.21  " /><path style="stroke-width: 0.85 ;&st7;  " d=" M   645.89,   460.71  L   628.89,   460.71  " /><path style="stroke-width: 0.85 ;&st7;  " d=" M   594.90,   435.21  L   573.65,   435.21  " /><path style="stroke-width: 0.28 ;&st9;  " d=" M   578.55,   435.21  L   581.38,   432.38  L   577.13,   432.38  L   574.30,   435.21  L   577.13,   438.05  L   581.38,   438.05  L   578.55,   435.21  " /><text style="&st18;" transform="matrix(&st16;  654.71  437.18 )">1</text><text style="&st18;" transform="matrix(&st16;  631.48  431.52 )">3</text><text style="&st18;" transform="matrix(&st16;  631.48  457.02 )">2</text><text style="&st18;" transform="matrix(&st16;  588.72  457.02 )">1</text><text style="&st18;" transform="matrix(&st16;  588.72  431.52 )">5</text><text style="&st1;" transform="matrix(&st16;  596.41  423.02 )" ewd:textID="15">H-LP 继电器</text><path style="stroke-width: 1.42 ;&st7;  " d=" M   621.81,   435.21  L   599.15,   429.55  " /><path style="stroke-width: 0.85 ;&st7;  " d=" M   603.40,   460.71  L   594.90,   460.71  " /><path style="stroke-width: 0.85 ;&st7;  " d=" M   628.89,   460.71  L   620.40,   460.71  " /><path style="stroke-width: 0.85 ;&st7;  " d=" M   624.65,   435.21  L   628.89,   435.21  " /><path style="stroke-width: 0.85 ;&st7;  " d=" M   594.90,   435.21  L   599.15,   435.21  " /><path style="stroke-width: 0.85 ;&st7;   " d=" M   609.42,   463.24  C   610.82    461.87    610.84    459.63    609.47    458.23  " /><path style="stroke-width: 0.85 ;&st7;   " d=" M   609.47,   458.23  C   608.10    456.83    605.86    456.81    604.46    458.18  " /><path style="stroke-width: 0.85 ;&st7;   " d=" M   604.46,   458.18  C   603.75    458.87    603.40    459.72    603.40    460.71  " /><path style="stroke-width: 0.85 ;&st7;   " d=" M   614.38,   463.24  C   615.77    461.87    615.80    459.63    614.43    458.23  " /><path style="stroke-width: 0.85 ;&st7;   " d=" M   614.43,   458.23  C   613.06    456.83    610.82    456.81    609.42    458.18  " /><path style="stroke-width: 0.85 ;&st7;   " d=" M   609.42,   458.18  C   608.02    459.55    608.00    461.79    609.37    463.19  " /><path style="stroke-width: 0.85 ;&st7;   " d=" M   609.37,   463.19  C   609.39    463.21    609.40    463.22    609.42    463.24  " /><path style="stroke-width: 0.85 ;&st7;   " d=" M   620.40,   460.71  C   620.40    458.75    618.81    457.17    616.86    457.17  " /><path style="stroke-width: 0.85 ;&st7;   " d=" M   616.86,   457.17  C   614.90    457.17    613.31    458.75    613.31    460.71  " /><path style="stroke-width: 0.85 ;&st7;   " d=" M   613.31,   460.71  C   613.31    461.70    613.67    462.54    614.38    463.24  " /><path style="stroke-width: 0.85 ;&st7;   " d=" M   624.65,   435.21  C   624.65    434.43    624.01    433.80    623.23    433.80  " /><path style="stroke-width: 0.85 ;&st7;   " d=" M   623.23,   433.80  C   622.45    433.80    621.81    434.43    621.81    435.21  " /><path style="stroke-width: 0.85 ;&st7;   " d=" M   621.81,   435.21  C   621.81    435.99    622.45    436.63    623.23    436.63  " /><path style="stroke-width: 0.85 ;&st7;   " d=" M   623.23,   436.63  C   624.01    436.63    624.65    435.99    624.65    435.21  " /><path style="stroke-width: 0.85 ;&st7;   " d=" M   601.98,   435.21  C   601.98    434.43    601.35    433.80    600.57    433.80  " /><path style="stroke-width: 0.85 ;&st7;   " d=" M   600.57,   433.80  C   599.78    433.80    599.15    434.43    599.15    435.21  " /><path style="stroke-width: 0.85 ;&st7;   " d=" M   599.15,   435.21  C   599.15    435.99    599.78    436.63    600.57    436.63  " /><path style="stroke-width: 0.85 ;&st7;   " d=" M   600.57,   436.63  C   601.35    436.63    601.98    435.99    601.98    435.21  " /><path style="stroke-width: 1.42 ;&st7;  " d=" M   628.89,   469.21  L   628.89,   426.71  L   594.90,   426.71  L   594.90,   469.21  L   628.89,   469.21  " /></g><g ewd:figtype="rb" ewd:figID="21" ewd:code="1"><path style="stroke-width: 1.42 ;&st7;  " d=" M   658.64,   575.44  L   654.39,   575.44  " /><path style="stroke-width: 1.42 ;&st7;  " d=" M   658.64,   566.94  L   654.39,   566.94  " /><path style="stroke-width: 1.42 ;&st7;  " d=" M   658.64,   600.93  L   654.39,   600.93  " /><path style="stroke-width: 1.42 ;&st7;  " d=" M   658.64,   592.44  L   654.39,   592.44  " /><path style="stroke-width: 1.42 ;&st7;  " d=" M   569.40,   575.44  L   565.16,   575.44  " /><path style="stroke-width: 1.42 ;&st7;  " d=" M   565.16,   566.94  L   569.40,   566.94  " /><path style="stroke-width: 1.42 ;&st7;  " d=" M   569.40,   600.93  L   565.16,   600.93  " /><path style="stroke-width: 1.42 ;&st7;  " d=" M   565.16,   592.44  L   569.40,   592.44  " /><path style="stroke-width: 1.42 ;&st7;   " d=" M   662.89,   571.19  C   662.89    568.84    660.99    566.94    658.64    566.94  " /><path style="stroke-width: 1.42 ;&st7;   " d=" M   658.64,   575.44  C   660.99    575.44    662.89    573.54    662.89    571.19  " /><path style="stroke-width: 1.42 ;&st7;   " d=" M   650.14,   571.19  C   650.14    573.54    652.04    575.44    654.39    575.44  " /><path style="stroke-width: 1.42 ;&st7;   " d=" M   654.39,   566.94  C   652.04    566.94    650.14    568.84    650.14    571.19  " /><path style="stroke-width: 1.42 ;&st7;   " d=" M   662.89,   596.69  C   662.89    594.34    660.99    592.44    658.64    592.44  " /><path style="stroke-width: 1.42 ;&st7;   " d=" M   658.64,   600.93  C   660.99    600.93    662.89    599.03    662.89    596.69  " /><path style="stroke-width: 1.42 ;&st7;   " d=" M   650.14,   596.69  C   650.14    599.03    652.04    600.93    654.39    600.93  " /><path style="stroke-width: 1.42 ;&st7;   " d=" M   654.39,   592.44  C   652.04    592.44    650.14    594.34    650.14    596.69  " /><path style="stroke-width: 1.42 ;&st7;   " d=" M   573.65,   571.19  C   573.65    568.84    571.75    566.94    569.40    566.94  " /><path style="stroke-width: 1.42 ;&st7;   " d=" M   569.40,   575.44  C   571.75    575.44    573.65    573.54    573.65    571.19  " /><path style="stroke-width: 1.42 ;&st7;   " d=" M   560.91,   571.19  C   560.91    573.54    562.81    575.44    565.16    575.44  " /><path style="stroke-width: 1.42 ;&st7;   " d=" M   565.16,   566.94  C   562.81    566.94    560.91    568.84    560.91    571.19  " /><path style="stroke-width: 1.42 ;&st7;   " d=" M   573.65,   596.69  C   573.65    594.34    571.75    592.44    569.40    592.44  " /><path style="stroke-width: 1.42 ;&st7;   " d=" M   569.40,   600.93  C   571.75    600.93    573.65    599.03    573.65    596.69  " /><path style="stroke-width: 1.42 ;&st7;   " d=" M   560.91,   596.69  C   560.91    599.03    562.81    600.93    565.16    600.93  " /><path style="stroke-width: 1.42 ;&st7;   " d=" M   565.16,   592.44  C   562.81    592.44    560.91    594.34    560.91    596.69  " /><path style="stroke-width: 0.85 ;&st7;  " d=" M   573.65,   596.69  L   594.90,   596.69  " /><path style="stroke-width: 0.28 ;&st9;  " d=" M   645.25,   571.19  L   642.41,   568.36  L   646.66,   568.36  L   649.50,   571.19  L   646.66,   574.02  L   642.41,   574.02  L   645.25,   571.19  " /><path style="stroke-width: 0.28 ;&st9;  " d=" M   645.25,   596.69  L   642.41,   593.85  L   646.66,   593.85  L   649.50,   596.69  L   646.66,   599.52  L   642.41,   599.52  L   645.25,   596.69  " /><path style="stroke-width: 0.28 ;&st9;  " d=" M   578.55,   571.19  L   581.38,   568.36  L   577.13,   568.36  L   574.30,   571.19  L   577.13,   574.02  L   581.38,   574.02  L   578.55,   571.19  " /><path style="stroke-width: 0.28 ;&st9;  " d=" M   578.55,   596.69  L   581.38,   593.85  L   577.13,   593.85  L   574.30,   596.69  L   577.13,   599.52  L   581.38,   599.52  L   578.55,   596.69  " /><path style="stroke-width: 0.85 ;&st7;  " d=" M   650.14,   571.19  L   628.89,   571.19  " /><path style="stroke-width: 0.85 ;&st7;  " d=" M   573.65,   571.19  L   594.90,   571.19  " /><path style="stroke-width: 0.85 ;&st7;  " d=" M   650.14,   596.69  L   628.89,   596.69  " /><text style="&st18;" transform="matrix(&st16;  654.71  573.16 )">1</text><text style="&st18;" transform="matrix(&st16;  654.71  598.65 )">1</text><text style="&st18;" transform="matrix(&st16;  565.48  573.16 )">1</text><text style="&st18;" transform="matrix(&st16;  565.48  598.65 )">1</text><text style="&st1;" transform="matrix(&st16;  599.12  558.99 )" ewd:textID="19">IG2 继电器</text><text style="&st18;" transform="matrix(&st16;  631.48  567.5 )">1</text><text style="&st18;" transform="matrix(&st16;  631.48  593.0 )">5</text><text style="&st18;" transform="matrix(&st16;  588.72  567.5 )">2</text><text style="&st18;" transform="matrix(&st16;  588.72  593.0 )">3</text><path style="stroke-width: 1.42 ;&st7;  " d=" M   601.98,   596.69  L   624.65,   602.35  " /><path style="stroke-width: 0.85 ;&st7;  " d=" M   603.40,   571.19  L   594.90,   571.19  " /><path style="stroke-width: 0.85 ;&st7;  " d=" M   628.89,   571.19  L   620.40,   571.19  " /><path style="stroke-width: 0.85 ;&st7;  " d=" M   624.65,   596.69  L   628.89,   596.69  " /><path style="stroke-width: 0.85 ;&st7;  " d=" M   594.90,   596.69  L   599.15,   596.69  " /><path style="stroke-width: 0.85 ;&st7;   " d=" M   609.42,   573.72  C   610.82    572.35    610.84    570.11    609.47    568.71  " /><path style="stroke-width: 0.85 ;&st7;   " d=" M   609.47,   568.71  C   608.10    567.31    605.86    567.29    604.46    568.66  " /><path style="stroke-width: 0.85 ;&st7;   " d=" M   604.46,   568.66  C   603.75    569.35    603.40    570.20    603.40    571.19  " /><path style="stroke-width: 0.85 ;&st7;   " d=" M   614.38,   573.72  C   615.77    572.35    615.80    570.11    614.43    568.71  " /><path style="stroke-width: 0.85 ;&st7;   " d=" M   614.43,   568.71  C   613.06    567.31    610.82    567.29    609.42    568.66  " /><path style="stroke-width: 0.85 ;&st7;   " d=" M   609.42,   568.66  C   608.02    570.03    608.00    572.27    609.37    573.67  " /><path style="stroke-width: 0.85 ;&st7;   " d=" M   609.37,   573.67  C   609.39    573.69    609.40    573.70    609.42    573.72  " /><path style="stroke-width: 0.85 ;&st7;   " d=" M   620.40,   571.19  C   620.40    569.23    618.81    567.65    616.86    567.65  " /><path style="stroke-width: 0.85 ;&st7;   " d=" M   616.86,   567.65  C   614.90    567.65    613.31    569.23    613.31    571.19  " /><path style="stroke-width: 0.85 ;&st7;   " d=" M   613.31,   571.19  C   613.31    572.18    613.67    573.03    614.38    573.72  " /><path style="stroke-width: 0.85 ;&st7;   " d=" M   624.65,   596.69  C   624.65    595.90    624.01    595.27    623.23    595.27  " /><path style="stroke-width: 0.85 ;&st7;   " d=" M   623.23,   595.27  C   622.45    595.27    621.81    595.90    621.81    596.69  " /><path style="stroke-width: 0.85 ;&st7;   " d=" M   621.81,   596.69  C   621.81    597.47    622.45    598.10    623.23    598.10  " /><path style="stroke-width: 0.85 ;&st7;   " d=" M   623.23,   598.10  C   624.01    598.10    624.65    597.47    624.65    596.69  " /><path style="stroke-width: 0.85 ;&st7;   " d=" M   601.98,   596.69  C   601.98    595.90    601.35    595.27    600.57    595.27  " /><path style="stroke-width: 0.85 ;&st7;   " d=" M   600.57,   595.27  C   599.78    595.27    599.15    595.90    599.15    596.69  " /><path style="stroke-width: 0.85 ;&st7;   " d=" M   599.15,   596.69  C   599.15    597.47    599.78    598.10    600.57    598.10  " /><path style="stroke-width: 0.85 ;&st7;   " d=" M   600.57,   598.10  C   601.35    598.10    601.98    597.47    601.98    596.69  " /><path style="stroke-width: 1.42 ;&st7;  " d=" M   628.89,   605.18  L   628.89,   562.69  L   594.90,   562.69  L   594.90,   605.18  L   628.89,   605.18  " /></g><g ewd:figtype="rb" ewd:figID="23" ewd:code="FUSE7"><path style="stroke-width: 1.42 ;&st7;  " d=" M   722.38,   252.49  L   718.13,   252.49  " /><path style="stroke-width: 1.42 ;&st7;  " d=" M   718.13,   243.99  L   722.38,   243.99  " /><path style="stroke-width: 1.42 ;&st7;   " d=" M   726.63,   248.24  C   726.63    245.90    724.73    243.99    722.38    243.99  " /><path style="stroke-width: 1.42 ;&st7;   " d=" M   722.38,   252.49  C   724.73    252.49    726.63    250.59    726.63    248.24  " /><path style="stroke-width: 1.42 ;&st7;   " d=" M   713.88,   248.24  C   713.88    250.59    715.78    252.49    718.13    252.49  " /><path style="stroke-width: 1.42 ;&st7;   " d=" M   718.13,   243.99  C   715.78    243.99    713.88    245.90    713.88    248.24  " /><path style="stroke-width: 0.85 ;&st7;  " d=" M   764.87,   248.24  L   726.63,   248.24  " /><path style="stroke-width: 0.28 ;&st9;  " d=" M   731.52,   248.24  L   734.36,   245.41  L   730.11,   245.41  L   727.27,   248.24  L   730.11,   251.08  L   734.36,   251.08  L   731.52,   248.24  " /><path style="stroke-width: 0.85 ;&st7;  " d=" M   746.68,   247.24  L   746.41,   247.71  L   746.32,   248.24  L   746.41,   248.78  L   746.68,   249.25  L   747.10,   249.59  L   747.60,   249.78  L   748.15,   249.78  L   748.65,   249.59  L   749.07,   249.25  L   749.34,   248.78  L   749.43,   248.24  L   749.34,   247.71  L   749.07,   247.24  L   748.65,   246.90  L   748.15,   246.71  L   747.60,   246.71  L   747.10,   246.90  L   746.68,   247.24  L   747.08,   247.95  L   747.08,   248.54  L   747.45,   248.98  L   748.02,   249.08  L   748.53,   248.79  L   748.72,   248.24  L   748.53,   247.70  L   748.02,   247.41  L   747.45,   247.51  L   747.87,   248.24  " /><path style="stroke-width: 0.85 ;&st7;  " d=" M   747.87,   248.24  L   747.87,   290.74  L   764.87,   290.74  " /><path style="stroke-width: 0.85 ;&st7;  " d=" M   824.36,   290.74  L   807.36,   290.74  " /><path style="stroke-width: 0.85 ;&st7;  " d=" M   824.36,   248.24  L   807.36,   248.24  " /><text style="&st18;" transform="matrix(&st16;  718.45  250.21 )">1</text><text style="&st18;" transform="matrix(&st16;  767.33  230.38 )">10A EFI NO.1</text><text style="&st18;" transform="matrix(&st16;  809.95  244.55 )">2</text><text style="&st18;" transform="matrix(&st16;  758.69  244.55 )">1</text><text style="&st18;" transform="matrix(&st16;  758.69  287.05 )">1</text><text style="&st18;" transform="matrix(&st16;  809.95  287.05 )">2</text><text style="&st18;" transform="matrix(&st16;  767.33  272.88 )">10A EFI NO.2</text><path style="stroke-width: 0.85 ;&st7;  " d=" M   773.37,   248.24  L   764.87,   248.24  " /><path style="stroke-width: 0.85 ;&st7;   " d=" M   776.20,   248.24  C   776.20    247.46    775.57    246.83    774.79    246.83  " /><path style="stroke-width: 0.85 ;&st7;   " d=" M   774.79,   246.83  C   774.00    246.83    773.37    247.46    773.37    248.24  " /><path style="stroke-width: 0.85 ;&st7;   " d=" M   773.37,   248.24  C   773.37    249.03    774.00    249.66    774.79    249.66  " /><path style="stroke-width: 0.85 ;&st7;   " d=" M   774.79,   249.66  C   775.57    249.66    776.20    249.03    776.20    248.24  " /><path style="stroke-width: 0.85 ;&st7;   " d=" M   798.87,   248.24  C   798.87    247.46    798.23    246.83    797.45    246.83  " /><path style="stroke-width: 0.85 ;&st7;   " d=" M   797.45,   246.83  C   796.67    246.83    796.03    247.46    796.03    248.24  " /><path style="stroke-width: 0.85 ;&st7;   " d=" M   796.03,   248.24  C   796.03    249.03    796.67    249.66    797.45    249.66  " /><path style="stroke-width: 0.85 ;&st7;   " d=" M   797.45,   249.66  C   798.23    249.66    798.87    249.03    798.87    248.24  " /><path style="stroke-width: 1.42 ;&st7;   " d=" M   776.20,   248.24  C   777.82    250.98    781.34    251.89    784.08    250.28  " /><path style="stroke-width: 1.42 ;&st7;   " d=" M   784.08,   250.28  C   784.96    249.76    785.60    249.13    786.12    248.24  " /><path style="stroke-width: 1.42 ;&st7;   " d=" M   796.03,   248.24  C   794.42    245.51    790.89    244.59    788.16    246.21  " /><path style="stroke-width: 1.42 ;&st7;   " d=" M   788.16,   246.21  C   787.27    246.73    786.64    247.36    786.12    248.24  " /><path style="stroke-width: 1.42 ;&st7;  " d=" M   764.87,   235.50  L   764.87,   260.99  L   807.36,   260.99  L   807.36,   235.50  L   764.87,   235.50  " /><path style="stroke-width: 0.85 ;&st7;  " d=" M   807.36,   248.24  L   798.87,   248.24  " /></g><g ewd:figtype="rb" ewd:figID="25" ewd:code="FUSE8"><path style="stroke-width: 0.85 ;&st7;  " d=" M   773.37,   290.74  L   764.87,   290.74  " /><path style="stroke-width: 1.42 ;&st7;   " d=" M   796.03,   290.74  C   794.42    288.00    790.89    287.09    788.16    288.70  " /><path style="stroke-width: 1.42 ;&st7;   " d=" M   788.16,   288.70  C   787.27    289.22    786.64    289.85    786.12    290.74  " /><path style="stroke-width: 1.42 ;&st7;   " d=" M   776.20,   290.74  C   777.82    293.47    781.34    294.39    784.08    292.77  " /><path style="stroke-width: 1.42 ;&st7;   " d=" M   784.08,   292.77  C   784.96    292.25    785.60    291.62    786.12    290.74  " /><path style="stroke-width: 0.85 ;&st7;   " d=" M   798.87,   290.74  C   798.87    289.95    798.23    289.32    797.45    289.32  " /><path style="stroke-width: 0.85 ;&st7;   " d=" M   797.45,   289.32  C   796.67    289.32    796.03    289.95    796.03    290.74  " /><path style="stroke-width: 0.85 ;&st7;   " d=" M   796.03,   290.74  C   796.03    291.52    796.67    292.15    797.45    292.15  " /><path style="stroke-width: 0.85 ;&st7;   " d=" M   797.45,   292.15  C   798.23    292.15    798.87    291.52    798.87    290.74  " /><path style="stroke-width: 0.85 ;&st7;   " d=" M   776.20,   290.74  C   776.20    289.95    775.57    289.32    774.79    289.32  " /><path style="stroke-width: 0.85 ;&st7;   " d=" M   774.79,   289.32  C   774.00    289.32    773.37    289.95    773.37    290.74  " /><path style="stroke-width: 0.85 ;&st7;   " d=" M   773.37,   290.74  C   773.37    291.52    774.00    292.15    774.79    292.15  " /><path style="stroke-width: 0.85 ;&st7;   " d=" M   774.79,   292.15  C   775.57    292.15    776.20    291.52    776.20    290.74  " /><path style="stroke-width: 0.85 ;&st7;  " d=" M   807.36,   290.74  L   798.87,   290.74  " /><path style="stroke-width: 1.42 ;&st7;  " d=" M   764.87,   277.99  L   764.87,   303.48  L   807.36,   303.48  L   807.36,   277.99  L   764.87,   277.99  " /></g><g ewd:figtype="rb" ewd:figID="27" ewd:code="1"><path style="stroke-width: 1.42 ;&st7;  " d=" M   845.61,   362.97  L   841.36,   362.97  " /><path style="stroke-width: 1.42 ;&st7;  " d=" M   845.61,   354.48  L   841.36,   354.48  " /><path style="stroke-width: 1.42 ;&st7;  " d=" M   756.37,   362.97  L   752.12,   362.97  " /><path style="stroke-width: 1.42 ;&st7;  " d=" M   752.12,   354.48  L   756.37,   354.48  " /><path style="stroke-width: 1.42 ;&st7;   " d=" M   764.73,   391.71  C   766.63    389.56    766.69    386.43    764.87    384.22  " /><path style="stroke-width: 1.42 ;&st7;   " d=" M   765.01,   376.74  C   763.11    378.88    763.05    382.01    764.87    384.22  " /><path style="stroke-width: 1.42 ;&st7;   " d=" M   849.86,   358.73  C   849.86    356.38    847.96    354.48    845.61    354.48  " /><path style="stroke-width: 1.42 ;&st7;   " d=" M   845.61,   362.97  C   847.96    362.97    849.86    361.07    849.86    358.73  " /><path style="stroke-width: 1.42 ;&st7;   " d=" M   841.36,   354.48  C   839.01    354.48    837.11    356.38    837.11    358.73  " /><path style="stroke-width: 1.42 ;&st7;   " d=" M   837.11,   358.73  C   837.11    361.07    839.01    362.97    841.36    362.97  " /><path style="stroke-width: 1.42 ;&st7;   " d=" M   832.72,   391.71  C   834.62    389.56    834.68    386.43    832.86    384.22  " /><path style="stroke-width: 1.42 ;&st7;   " d=" M   833.00,   376.74  C   831.10    378.88    831.04    382.01    832.86    384.22  " /><text style="&st1;" transform="matrix(&st16;  785.24  346.53 )" ewd:textID="10">DIM 继电器</text><text style="&st18;" transform="matrix(&st16;  752.45  360.69 )">1</text><path style="stroke-width: 1.42 ;&st7;   " d=" M   752.12,   354.48  C   749.78    354.48    747.88    356.38    747.88    358.73  " /><path style="stroke-width: 1.42 ;&st7;   " d=" M   747.88,   358.73  C   747.88    361.07    749.78    362.97    752.12    362.97  " /><path style="stroke-width: 1.42 ;&st7;   " d=" M   756.37,   362.97  C   758.72    362.97    760.62    361.07    760.62    358.73  " /><path style="stroke-width: 1.42 ;&st7;   " d=" M   760.62,   358.73  C   760.62    356.38    758.72    354.48    756.37    354.48  " /><path style="stroke-width: 0.85 ;&st7;  " d=" M   781.87,   384.22  L   764.87,   384.22  " /><path style="stroke-width: 0.85 ;&st7;  " d=" M   815.86,   358.73  L   837.11,   358.73  " /><path style="stroke-width: 0.28 ;&st9;  " d=" M   832.21,   358.73  L   829.38,   355.89  L   833.63,   355.89  L   836.46,   358.73  L   833.63,   361.56  L   829.38,   361.56  L   832.21,   358.73  " /><path style="stroke-width: 0.85 ;&st7;  " d=" M   832.86,   384.22  L   815.86,   384.22  " /><path style="stroke-width: 0.28 ;&st9;  " d=" M   765.52,   358.73  L   768.35,   355.89  L   764.10,   355.89  L   761.27,   358.73  L   764.10,   361.56  L   768.35,   361.56  L   765.52,   358.73  " /><path style="stroke-width: 0.85 ;&st7;  " d=" M   781.87,   358.73  L   760.62,   358.73  " /><text style="&st18;" transform="matrix(&st16;  841.68  360.69 )">1</text><text style="&st18;" transform="matrix(&st16;  818.45  355.03 )">5</text><text style="&st18;" transform="matrix(&st16;  818.45  380.53 )">2</text><text style="&st18;" transform="matrix(&st16;  775.69  380.53 )">1</text><text style="&st18;" transform="matrix(&st16;  775.69  355.04 )">3</text><path style="stroke-width: 1.42 ;&st7;  " d=" M   788.95,   358.73  L   811.61,   353.06  " /><path style="stroke-width: 0.85 ;&st7;  " d=" M   781.87,   358.73  L   786.12,   358.73  " /><path style="stroke-width: 0.85 ;&st7;  " d=" M   811.61,   358.73  L   815.86,   358.73  " /><path style="stroke-width: 0.85 ;&st7;  " d=" M   815.86,   384.22  L   807.37,   384.22  " /><path style="stroke-width: 0.85 ;&st7;  " d=" M   790.37,   384.22  L   781.87,   384.22  " /><path style="stroke-width: 0.85 ;&st7;   " d=" M   788.95,   358.73  C   788.95    357.94    788.32    357.31    787.54    357.31  " /><path style="stroke-width: 0.85 ;&st7;   " d=" M   787.54,   357.31  C   786.75    357.31    786.12    357.94    786.12    358.73  " /><path style="stroke-width: 0.85 ;&st7;   " d=" M   786.12,   358.73  C   786.12    359.51    786.75    360.14    787.54    360.14  " /><path style="stroke-width: 0.85 ;&st7;   " d=" M   787.54,   360.14  C   788.32    360.14    788.95    359.51    788.95    358.73  " /><path style="stroke-width: 0.85 ;&st7;   " d=" M   811.61,   358.73  C   811.61    357.94    810.98    357.31    810.20    357.31  " /><path style="stroke-width: 0.85 ;&st7;   " d=" M   810.20,   357.31  C   809.42    357.31    808.78    357.94    808.78    358.73  " /><path style="stroke-width: 0.85 ;&st7;   " d=" M   808.78,   358.73  C   808.78    359.51    809.42    360.14    810.20    360.14  " /><path style="stroke-width: 0.85 ;&st7;   " d=" M   810.20,   360.14  C   810.98    360.14    811.61    359.51    811.61    358.73  " /><path style="stroke-width: 0.85 ;&st7;   " d=" M   807.37,   384.22  C   807.37    382.27    805.78    380.68    803.82    380.68  " /><path style="stroke-width: 0.85 ;&st7;   " d=" M   803.82,   380.68  C   801.87    380.68    800.28    382.27    800.28    384.22  " /><path style="stroke-width: 0.85 ;&st7;   " d=" M   800.28,   384.22  C   800.28    385.21    800.64    386.06    801.35    386.75  " /><path style="stroke-width: 0.85 ;&st7;   " d=" M   801.35,   386.75  C   802.74    385.38    802.77    383.14    801.40    381.74  " /><path style="stroke-width: 0.85 ;&st7;   " d=" M   801.40,   381.74  C   800.03    380.35    797.78    380.32    796.39    381.69  " /><path style="stroke-width: 0.85 ;&st7;   " d=" M   796.39,   381.69  C   794.99    383.06    794.97    385.30    796.34    386.70  " /><path style="stroke-width: 0.85 ;&st7;   " d=" M   796.34,   386.70  C   796.35    386.72    796.37    386.73    796.39    386.75  " /><path style="stroke-width: 0.85 ;&st7;   " d=" M   796.39,   386.75  C   797.78    385.38    797.81    383.14    796.44    381.74  " /><path style="stroke-width: 0.85 ;&st7;   " d=" M   796.44,   381.74  C   795.07    380.35    792.83    380.32    791.43    381.69  " /><path style="stroke-width: 0.85 ;&st7;   " d=" M   791.43,   381.69  C   790.72    382.38    790.37    383.23    790.37    384.22  " /><path style="stroke-width: 1.42 ;&st7;  " d=" M   815.86,   392.72  L   815.86,   350.23  L   781.87,   350.23  L   781.87,   392.72  L   815.86,   392.72  " /></g><g ewd:figtype="rb" ewd:figID="29" ewd:code="FUSE13"><path style="stroke-width: 0.85 ;&st7;  " d=" M   781.87,   435.21  L   773.37,   435.21  " /><path style="stroke-width: 0.85 ;&st7;   " d=" M   784.70,   435.21  C   784.70    434.43    784.07    433.80    783.29    433.80  " /><path style="stroke-width: 0.85 ;&st7;   " d=" M   783.29,   433.80  C   782.50    433.80    781.87    434.43    781.87    435.21  " /><path style="stroke-width: 0.85 ;&st7;   " d=" M   781.87,   435.21  C   781.87    435.99    782.50    436.63    783.29    436.63  " /><path style="stroke-width: 0.85 ;&st7;   " d=" M   783.29,   436.63  C   784.07    436.63    784.70    435.99    784.70    435.21  " /><path style="stroke-width: 0.85 ;&st7;   " d=" M   807.37,   435.21  C   807.37    434.43    806.73    433.80    805.95    433.80  " /><path style="stroke-width: 0.85 ;&st7;   " d=" M   805.95,   433.80  C   805.17    433.80    804.53    434.43    804.53    435.21  " /><path style="stroke-width: 0.85 ;&st7;   " d=" M   804.53,   435.21  C   804.53    435.99    805.17    436.63    805.95    436.63  " /><path style="stroke-width: 0.85 ;&st7;   " d=" M   805.95,   436.63  C   806.73    436.63    807.37    435.99    807.37    435.21  " /><path style="stroke-width: 1.42 ;&st7;   " d=" M   784.70,   435.21  C   786.32    437.95    789.84    438.86    792.58    437.25  " /><path style="stroke-width: 1.42 ;&st7;   " d=" M   792.58,   437.25  C   793.46    436.73    794.10    436.09    794.62    435.21  " /><path style="stroke-width: 1.42 ;&st7;   " d=" M   804.53,   435.21  C   802.92    432.47    799.39    431.56    796.65    433.18  " /><path style="stroke-width: 1.42 ;&st7;   " d=" M   796.65,   433.18  C   795.77    433.70    795.14    434.33    794.62    435.21  " /><path style="stroke-width: 1.42 ;&st7;  " d=" M   773.37,   422.46  L   773.37,   447.96  L   815.86,   447.96  L   815.86,   422.46  L   773.37,   422.46  " /><path style="stroke-width: 0.85 ;&st7;  " d=" M   815.86,   435.21  L   807.36,   435.21  " /></g><g ewd:figtype="rb" ewd:figID="32" ewd:code="FUSE5"><path style="stroke-width: 0.85 ;&st7;  " d=" M   951.84,   205.75  L   943.34,   205.75  " /><path style="stroke-width: 0.85 ;&st7;   " d=" M   954.67,   205.75  C   954.67    204.97    954.04    204.33    953.26    204.33  " /><path style="stroke-width: 0.85 ;&st7;   " d=" M   953.26,   204.33  C   952.48    204.33    951.84    204.97    951.84    205.75  " /><path style="stroke-width: 0.85 ;&st7;   " d=" M   951.84,   205.75  C   951.84    206.53    952.48    207.17    953.26    207.17  " /><path style="stroke-width: 0.85 ;&st7;   " d=" M   953.26,   207.17  C   954.04    207.17    954.67    206.53    954.67    205.75  " /><path style="stroke-width: 0.85 ;&st7;   " d=" M   977.34,   205.75  C   977.34    204.97    976.70    204.33    975.92    204.33  " /><path style="stroke-width: 0.85 ;&st7;   " d=" M   975.92,   204.33  C   975.14    204.33    974.50    204.97    974.50    205.75  " /><path style="stroke-width: 0.85 ;&st7;   " d=" M   974.50,   205.75  C   974.50    206.53    975.14    207.17    975.92    207.17  " /><path style="stroke-width: 0.85 ;&st7;   " d=" M   975.92,   207.17  C   976.70    207.17    977.34    206.53    977.34    205.75  " /><path style="stroke-width: 1.42 ;&st7;   " d=" M   954.67,   205.75  C   956.29    208.49    959.81    209.40    962.55    207.79  " /><path style="stroke-width: 1.42 ;&st7;   " d=" M   962.55,   207.79  C   963.43    207.27    964.07    206.63    964.59    205.75  " /><path style="stroke-width: 1.42 ;&st7;   " d=" M   974.50,   205.75  C   972.89    203.01    969.36    202.10    966.63    203.71  " /><path style="stroke-width: 1.42 ;&st7;   " d=" M   966.63,   203.71  C   965.74    204.23    965.11    204.87    964.59    205.75  " /><path style="stroke-width: 1.42 ;&st7;  " d=" M   943.34,   193.00  L   943.34,   218.50  L   985.83,   218.50  L   985.83,   193.00  L   943.34,   193.00  " /><path style="stroke-width: 0.85 ;&st7;  " d=" M   985.83,   205.75  L   977.34,   205.75  " /></g><g ewd:figtype="gp" ewd:figID="68" ewd:code="AB"><path style="stroke-width: 0.85 ;&st7;  " d=" M   754.96,   710.00  L   757.79,   710.00  " /><path style="stroke-width: 0.85 ;&st7;  " d=" M   753.54,   707.17  L   759.21,   707.17  " /><path style="stroke-width: 0.85 ;&st7;  " d=" M   752.12,   704.33  L   760.62,   704.33  " /><path style="stroke-width: 0.85 ;&st7;  " d=" M   747.87,   701.50  L   764.87,   701.50  " /><path style="stroke-width: 0.85 ;&st7;  " d=" M   756.37,   697.25  L   756.37,   701.50  " /></g><g ewd:code="2" ewd:figID="139" ewd:comment="" ewd:figtype="comment"><text style="&st18;" transform="matrix(&st16;  897.44  46.25 )">* 2 :7ZR-FE</text></g><g ewd:code="1" ewd:figID="138" ewd:comment="" ewd:figtype="comment"><text style="&st18;" transform="matrix(&st16;  897.44  37.75 )">* 1 :4ZR-FE</text></g></svg>