<?xml version="1.0" encoding="utf-8"?>
<!DOCTYPE svg PUBLIC "-//W3C//DTD SVG 1.0//EN" "http://www.w3.org/TR/2001/REC-SVG-20010904/DTD/svg10.dtd"[
	<!ENTITY ns_flows "http://ns.adobe.com/Flows/1.0/">
	<!ENTITY ns_svg "http://www.w3.org/2000/svg">
	<!ENTITY ns_xlink "http://www.w3.org/1999/xlink">
	<!ENTITY st0 "font-size:7px;font-family:'NSimSun';adobe-font-script:japanese;">
	<!ENTITY st1 "font-size:6px;font-family:'NSimSun';">
	<!-- White fill  -->
	<!ENTITY st2 "fill:#FFFFFF;stroke:#000000; stroke-width:1.41;stroke-linecap:round;stroke-linejoin:round;">
	<!-- Yellow fill  -->
	<!ENTITY st3 "fill:#FFFFCC;stroke:#FFFFCC; stroke-width:0.1;stroke-linecap:round;stroke-linejoin:round;">
	<!-- Gray fill  -->
	<!ENTITY st4 "fill:#CCCCCC;stroke:#CCCCCC; stroke-width:0.1;stroke-linecap:round;stroke-linejoin:round;">
	<!-- Light-blue fill -->
	<!ENTITY st5 "fill:#CCECF4;stroke:#000000; stroke-width:1.133;stroke-linecap:round;stroke-linejoin:round;">
	<!ENTITY st6 "fill:none;stroke-linecap:butt; stroke-linejoin:round;">
	<!ENTITY st7 "fill:none;stroke:#000000;stroke-linecap:round;stroke-linejoin:round;">
	<!ENTITY st8 "enable-background:new    ;">
	<!-- Black fill -->
	<!ENTITY st9 "fill:#000000;stroke:#000000; stroke-linecap:round;stroke-linejoin:round;">
	<!-- SRS note   -->
	<!ENTITY st10 "font-size:9px;font-family:'NSimSun';">
	<!ENTITY st11 "font-size:9px;font-family:'NSimSun';">
	<!ENTITY st12 "font-size:6px;font-family:'NSimSun';">
	<!ENTITY st13 "fill:none;stroke:#ff0000;stroke-linecap:round;stroke-linejoin:round;">
	<!-- Yellow fill  -->
	<!ENTITY st14 "fill:#FFFF00;stroke:#FFFF00; stroke-width:0.1;stroke-linecap:round;stroke-linejoin:round;">
	<!ENTITY st15 "font-size:6px;font-family:'NSimSun';adobe-font-script:japanese;">
	<!ENTITY st16 "1.00 0.00 0.00 1.00">
	<!ENTITY st17 "0.00 -1.00 1.00 0.00">
	<!ENTITY st18 "font-size:6px;font-family:'NSimSun';">
	<!ENTITY st19 "font-size:9px;font-family:'NSimSun';">
	<!ENTITY st20 "font-size:6px;font-family:'NSimSun';adobe-font-script:japanese;">
	<!ENTITY st21 "font-size:7px;font-family:'NSimSun';adobe-font-script:japanese;">
	<!ATTLIST svg
		xmlns:ewd CDATA #FIXED "http://shcl.co.jp/ewd"
		xmlns:a CDATA #FIXED "http://ns.adobe.com/AdobeSVGViewerExtensions/3.0/"
		ewd:ver CDATA #IMPLIED
	>
	<!ATTLIST a
		ewd:lineID CDATA #IMPLIED
		ewd:groupID CDATA #IMPLIED
		ewd:figtype CDATA #IMPLIED
		ewd:code CDATA #IMPLIED
		ewd:figID CDATA #IMPLIED
		ewd:pinNo CDATA #IMPLIED
		ewd:comment CDATA #IMPLIED >
	<!ATTLIST g
		ewd:lineID CDATA #IMPLIED
		ewd:groupID CDATA #IMPLIED
		ewd:figtype CDATA #IMPLIED
		ewd:code CDATA #IMPLIED
		ewd:figID CDATA #IMPLIED
		ewd:pinNo CDATA #IMPLIED
		ewd:comment CDATA #IMPLIED >
	<!ATTLIST text
		ewd:textID CDATA #IMPLIED
		ewd:horAlign CDATA #IMPLIED >
	<!ATTLIST title
		ewd:textID CDATA #IMPLIED >
]>
<!-- Generator: Shintec Hozumi YS   -->
<svg onload="call_execInitLoadProc_svg('system')" style="overflow:visible;  enable-background:new 0 0 3020.283 710.000" viewBox="0 0 2991.504 710.000" height="710.000" width="2991.504" xml:space="preserve" ewd:ver="2.1.2.6F" xmlns="&ns_svg;" xmlns:ewd="http://shcl.co.jp/ewd" xmlns:a="http://ns.adobe.com/AdobeSVGViewerExtensions/3.0/" xmlns:xlink="&ns_xlink;">
<text style="&st18;" transform="matrix(&st16;  487.32  431.52 )">R-B</text><text style="&st18;" transform="matrix(&st16;  490.73  244.55 )">B</text><text style="&st18;" transform="matrix(&st16;  490.81  592.99 )">R</text><text style="&st18;" transform="matrix(&st16;  490.85  525.0 )">L</text><text style="&st18;" transform="matrix(&st17;  64.29  663.76 )">B-DG</text><text style="&st18;" transform="matrix(&st17;  30.3  663.76 )">B-DG</text><text style="&st18;" transform="matrix(&st17;  64.29  261.84 )">B-R</text><g ewd:code="FUSE3" ewd:figID="6" ewd:comment="2,1" ewd:figtype="rb"><path style="stroke-width: 1.42 ;&st7;  " d=" M  1177.05,   362.97  L  1172.80,   362.97  " /><path style="stroke-width: 1.42 ;&st7;  " d=" M  1177.05,   371.47  L  1172.80,   371.47  " /><text style="&st18;" transform="matrix(&st16;  331.77  250.21 )">1</text><path style="stroke-width: 1.42 ;&st7;  " d=" M   335.69,   439.46  L   331.44,   439.46  " /><path style="stroke-width: 1.42 ;&st7;  " d=" M   335.69,   430.96  L   331.44,   430.96  " /><path style="stroke-width: 1.42 ;&st7;  " d=" M   335.69,   243.99  L   331.44,   243.99  " /><path style="stroke-width: 1.42 ;&st7;  " d=" M   335.69,   252.49  L   331.44,   252.49  " /><path style="stroke-width: 1.42 ;&st7;  " d=" M   335.69,   532.95  L   331.44,   532.95  " /><path style="stroke-width: 1.42 ;&st7;  " d=" M   335.69,   524.45  L   331.44,   524.45  " /><path style="stroke-width: 1.42 ;&st7;  " d=" M   335.69,   600.93  L   331.44,   600.93  " /><path style="stroke-width: 1.42 ;&st7;  " d=" M   335.69,   592.44  L   331.44,   592.44  " /><path style="stroke-width: 1.42 ;&st7;   " d=" M  1172.80,   362.97  C  1170.46    362.97   1168.55    364.88   1168.55    367.22  " /><path style="stroke-width: 1.42 ;&st7;   " d=" M  1168.55,   367.22  C  1168.55    369.57   1170.46    371.47   1172.80    371.47  " /><path style="stroke-width: 1.42 ;&st7;   " d=" M  1177.05,   371.47  C  1179.40    371.47   1181.30    369.57   1181.30    367.22  " /><path style="stroke-width: 1.42 ;&st7;   " d=" M  1181.30,   367.22  C  1181.30    364.88   1179.40    362.97   1177.05    362.97  " /><path style="stroke-width: 1.42 ;&st7;   " d=" M   339.94,   435.21  C   339.94    432.87    338.04    430.96    335.69    430.96  " /><path style="stroke-width: 1.42 ;&st7;   " d=" M   335.69,   439.46  C   338.04    439.46    339.94    437.56    339.94    435.21  " /><path style="stroke-width: 1.42 ;&st7;   " d=" M   327.20,   435.21  C   327.20    437.56    329.10    439.46    331.44    439.46  " /><path style="stroke-width: 1.42 ;&st7;   " d=" M   331.44,   430.96  C   329.10    430.96    327.20    432.87    327.20    435.21  " /><path style="stroke-width: 1.42 ;&st7;   " d=" M   327.20,   248.24  C   327.20    250.59    329.10    252.49    331.44    252.49  " /><path style="stroke-width: 1.42 ;&st7;   " d=" M   335.69,   252.49  C   338.04    252.49    339.94    250.59    339.94    248.24  " /><path style="stroke-width: 1.42 ;&st7;   " d=" M   339.94,   528.70  C   339.94    526.35    338.04    524.45    335.69    524.45  " /><path style="stroke-width: 1.42 ;&st7;   " d=" M   335.69,   532.95  C   338.04    532.95    339.94    531.04    339.94    528.70  " /><path style="stroke-width: 1.42 ;&st7;   " d=" M   327.20,   528.70  C   327.20    531.04    329.10    532.95    331.44    532.95  " /><path style="stroke-width: 1.42 ;&st7;   " d=" M   331.44,   524.45  C   329.10    524.45    327.20    526.35    327.20    528.70  " /><path style="stroke-width: 1.42 ;&st7;   " d=" M   339.94,   596.69  C   339.94    594.34    338.04    592.44    335.69    592.44  " /><path style="stroke-width: 1.42 ;&st7;   " d=" M   335.69,   600.93  C   338.04    600.93    339.94    599.03    339.94    596.69  " /><path style="stroke-width: 1.42 ;&st7;   " d=" M   327.20,   596.69  C   327.20    599.03    329.10    600.93    331.44    600.93  " /><path style="stroke-width: 1.42 ;&st7;   " d=" M   331.44,   592.44  C   329.10    592.44    327.20    594.34    327.20    596.69  " /><path style="stroke-width: 1.42 ;&st7;   " d=" M   339.94,   248.24  C   339.94    245.90    338.04    243.99    335.69    243.99  " /><path style="stroke-width: 1.42 ;&st7;   " d=" M   331.44,   243.99  C   329.10    243.99    327.20    245.90    327.20    248.24  " /><path style="stroke-width: 0.85 ;&st7;  " d=" M  1070.82,   129.26  L  1160.06,   129.26  " /><path style="stroke-width: 0.28 ;&st9;  " d=" M  1155.16,   129.26  L  1152.33,   126.43  L  1156.58,   126.43  L  1159.41,   129.26  L  1156.58,   132.10  L  1152.33,   132.10  L  1155.16,   129.26  " /><path style="stroke-width: 0.85 ;&st7;  " d=" M  1069.63,   128.26  L  1069.36,   128.73  L  1069.26,   129.26  L  1069.36,   129.80  L  1069.63,   130.27  L  1070.04,   130.61  L  1070.55,   130.80  L  1071.09,   130.80  L  1071.60,   130.61  L  1072.01,   130.27  L  1072.29,   129.80  L  1072.38,   129.26  L  1072.29,   128.73  L  1072.01,   128.26  L  1071.60,   127.92  L  1071.09,   127.73  L  1070.55,   127.73  L  1070.04,   127.92  L  1069.63,   128.26  L  1070.02,   128.97  L  1070.02,   129.56  L  1070.40,   130.00  L  1070.97,   130.10  L  1071.47,   129.81  L  1071.67,   129.26  L  1071.47,   128.72  L  1070.97,   128.43  L  1070.40,   128.53  L  1070.82,   129.26  " /><path style="stroke-width: 0.85 ;&st7;  " d=" M  1069.63,   366.22  L  1069.36,   366.69  L  1069.26,   367.22  L  1069.36,   367.76  L  1069.63,   368.23  L  1070.04,   368.57  L  1070.55,   368.76  L  1071.09,   368.76  L  1071.60,   368.57  L  1072.01,   368.23  L  1072.29,   367.76  L  1072.38,   367.22  L  1072.29,   366.69  L  1072.01,   366.22  L  1071.60,   365.88  L  1071.09,   365.69  L  1070.55,   365.69  L  1070.04,   365.88  L  1069.63,   366.22  L  1070.02,   366.93  L  1070.02,   367.52  L  1070.40,   367.96  L  1070.97,   368.06  L  1071.47,   367.77  L  1071.67,   367.22  L  1071.47,   366.68  L  1070.97,   366.39  L  1070.40,   366.49  L  1070.82,   367.22  " /><path style="stroke-width: 0.85 ;&st7;  " d=" M  1147.31,   469.21  L  1130.31,   469.21  " /><text style="&st18;" transform="matrix(&st16;  215.05  431.52 )">1</text><path style="stroke-width: 0.85 ;&st7;  " d=" M  1087.82,   367.22  L  1070.82,   367.22  " /><path style="stroke-width: 0.85 ;&st7;  " d=" M  1087.82,   418.22  L  1070.82,   418.22  " /><path style="stroke-width: 0.85 ;&st7;  " d=" M  1147.31,   418.22  L  1130.31,   418.22  " /><path style="stroke-width: 0.85 ;&st7;  " d=" M  1069.63,   417.21  L  1069.36,   417.68  L  1069.26,   418.22  L  1069.36,   418.75  L  1069.63,   419.22  L  1070.04,   419.56  L  1070.55,   419.75  L  1071.09,   419.75  L  1071.60,   419.56  L  1072.01,   419.22  L  1072.29,   418.75  L  1072.38,   418.22  L  1072.29,   417.68  L  1072.01,   417.21  L  1071.60,   416.87  L  1071.09,   416.68  L  1070.55,   416.68  L  1070.04,   416.87  L  1069.63,   417.21  L  1070.02,   417.92  L  1070.02,   418.51  L  1070.40,   418.95  L  1070.97,   419.05  L  1071.47,   418.76  L  1071.67,   418.22  L  1071.47,   417.67  L  1070.97,   417.38  L  1070.40,   417.48  L  1070.82,   418.22  " /><path style="stroke-width: 0.85 ;&st7;  " d=" M   305.95,   341.73  L   322.95,   341.73  " /><path style="stroke-width: 0.85 ;&st7;  " d=" M   263.46,   341.73  L   237.96,   341.73  " /><path style="stroke-width: 0.85 ;&st7;  " d=" M  1087.82,   316.23  L  1070.82,   316.23  " /><path style="stroke-width: 0.85 ;&st7;  " d=" M  1147.31,   316.23  L  1130.31,   316.23  " /><path style="stroke-width: 0.85 ;&st7;  " d=" M  1069.63,   315.23  L  1069.36,   315.70  L  1069.26,   316.23  L  1069.36,   316.77  L  1069.63,   317.24  L  1070.04,   317.58  L  1070.55,   317.77  L  1071.09,   317.77  L  1071.60,   317.58  L  1072.01,   317.24  L  1072.29,   316.77  L  1072.38,   316.23  L  1072.29,   315.70  L  1072.01,   315.23  L  1071.60,   314.88  L  1071.09,   314.70  L  1070.55,   314.70  L  1070.04,   314.88  L  1069.63,   315.23  L  1070.02,   315.94  L  1070.02,   316.52  L  1070.40,   316.97  L  1070.97,   317.07  L  1071.47,   316.78  L  1071.67,   316.23  L  1071.47,   315.69  L  1070.97,   315.40  L  1070.40,   315.50  L  1070.82,   316.23  " /><path style="stroke-width: 0.28 ;&st9;  " d=" M  1163.66,   367.22  L  1160.83,   364.39  L  1165.08,   364.39  L  1167.91,   367.22  L  1165.08,   370.06  L  1160.83,   370.06  L  1163.66,   367.22  " /><path style="stroke-width: 0.85 ;&st7;  " d=" M  1168.55,   367.22  L  1130.31,   367.22  " /><path style="stroke-width: 0.85 ;&st7;  " d=" M   322.95,   384.22  L   305.95,   384.22  " /><path style="stroke-width: 0.85 ;&st7;  " d=" M   263.46,   384.22  L   237.96,   384.22  " /><path style="stroke-width: 0.85 ;&st7;  " d=" M   327.20,   435.21  L   305.95,   435.21  " /><path style="stroke-width: 0.28 ;&st9;  " d=" M   322.30,   435.21  L   319.47,   432.38  L   323.72,   432.38  L   326.55,   435.21  L   323.72,   438.05  L   319.47,   438.05  L   322.30,   435.21  " /><path style="stroke-width: 0.28 ;&st9;  " d=" M  1155.16,    95.27  L  1152.33,    92.44  L  1156.58,    92.44  L  1159.41,    95.27  L  1156.58,    98.10  L  1152.33,    98.10  L  1155.16,    95.27  " /><path style="stroke-width: 0.85 ;&st7;  " d=" M  1069.63,   162.26  L  1069.36,   162.73  L  1069.26,   163.26  L  1069.36,   163.79  L  1069.63,   164.26  L  1070.04,   164.61  L  1070.55,   164.79  L  1071.09,   164.79  L  1071.60,   164.61  L  1072.01,   164.26  L  1072.29,   163.79  L  1072.38,   163.26  L  1072.29,   162.73  L  1072.01,   162.26  L  1071.60,   161.91  L  1071.09,   161.72  L  1070.55,   161.72  L  1070.04,   161.91  L  1069.63,   162.26  L  1070.02,   162.97  L  1070.02,   163.55  L  1070.40,   163.99  L  1070.97,   164.09  L  1071.47,   163.80  L  1071.67,   163.26  L  1071.47,   162.71  L  1070.97,   162.42  L  1070.40,   162.52  L  1070.82,   163.26  " /><path style="stroke-width: 0.85 ;&st7;  " d=" M  1087.82,   163.26  L  1070.82,   163.26  " /><path style="stroke-width: 0.85 ;&st7;  " d=" M   236.77,   162.26  L   236.50,   162.73  L   236.40,   163.26  L   236.50,   163.79  L   236.77,   164.26  L   237.18,   164.61  L   237.69,   164.79  L   238.23,   164.79  L   238.74,   164.61  L   239.15,   164.26  L   239.42,   163.79  L   239.52,   163.26  L   239.42,   162.73  L   239.15,   162.26  L   238.74,   161.91  L   238.23,   161.72  L   237.69,   161.72  L   237.18,   161.91  L   236.77,   162.26  L   237.16,   162.97  L   237.16,   163.55  L   237.54,   163.99  L   238.11,   164.09  L   238.61,   163.80  L   238.81,   163.26  L   238.61,   162.71  L   238.11,   162.42  L   237.54,   162.52  L   237.96,   163.26  " /><path style="stroke-width: 0.85 ;&st7;  " d=" M  1147.31,   163.26  L  1130.31,   163.26  " /><path style="stroke-width: 0.85 ;&st7;  " d=" M  1147.31,   214.25  L  1130.31,   214.25  " /><path style="stroke-width: 0.85 ;&st7;  " d=" M  1087.82,   469.21  L  1070.82,   469.21  L  1070.82,    95.27  " /><path style="stroke-width: 0.85 ;&st7;  " d=" M  1087.82,   265.24  L  1070.82,   265.24  " /><path style="stroke-width: 0.85 ;&st7;  " d=" M  1069.63,   264.24  L  1069.36,   264.71  L  1069.26,   265.24  L  1069.36,   265.77  L  1069.63,   266.24  L  1070.04,   266.59  L  1070.55,   266.78  L  1071.09,   266.78  L  1071.60,   266.59  L  1072.01,   266.24  L  1072.29,   265.77  L  1072.38,   265.24  L  1072.29,   264.71  L  1072.01,   264.24  L  1071.60,   263.89  L  1071.09,   263.71  L  1070.55,   263.71  L  1070.04,   263.89  L  1069.63,   264.24  L  1070.02,   264.95  L  1070.02,   265.53  L  1070.40,   265.98  L  1070.97,   266.08  L  1071.47,   265.79  L  1071.67,   265.24  L  1071.47,   264.69  L  1070.97,   264.41  L  1070.40,   264.50  L  1070.82,   265.24  " /><path style="stroke-width: 0.85 ;&st7;  " d=" M  1069.63,   213.25  L  1069.36,   213.72  L  1069.26,   214.25  L  1069.36,   214.78  L  1069.63,   215.25  L  1070.04,   215.60  L  1070.55,   215.79  L  1071.09,   215.79  L  1071.60,   215.60  L  1072.01,   215.25  L  1072.29,   214.78  L  1072.38,   214.25  L  1072.29,   213.72  L  1072.01,   213.25  L  1071.60,   212.90  L  1071.09,   212.71  L  1070.55,   212.71  L  1070.04,   212.90  L  1069.63,   213.25  L  1070.02,   213.96  L  1070.02,   214.54  L  1070.40,   214.99  L  1070.97,   215.09  L  1071.47,   214.80  L  1071.67,   214.25  L  1071.47,   213.70  L  1070.97,   213.41  L  1070.40,   213.51  L  1070.82,   214.25  " /><path style="stroke-width: 0.85 ;&st7;  " d=" M  1087.82,   214.25  L  1070.82,   214.25  " /><path style="stroke-width: 0.85 ;&st7;  " d=" M  1147.31,   265.24  L  1130.31,   265.24  " /><path style="stroke-width: 0.85 ;&st7;  " d=" M   237.96,   205.75  L   237.96,    95.27  L   263.46,    95.27  " /><path style="stroke-width: 0.85 ;&st7;  " d=" M   305.95,    95.27  L  1160.06,    95.27  " /><path style="stroke-width: 0.85 ;&st7;  " d=" M   866.85,   205.75  L   849.86,   205.75  " /><path style="stroke-width: 0.85 ;&st7;  " d=" M   237.96,   341.73  L   212.46,   341.73  " /><path style="stroke-width: 0.85 ;&st7;  " d=" M   169.97,   341.73  L   152.97,   341.73  " /><path style="stroke-width: 0.85 ;&st7;  " d=" M   237.96,   299.24  L   212.46,   299.24  " /><path style="stroke-width: 0.85 ;&st7;  " d=" M   237.96,   248.24  L   212.46,   248.24  " /><path style="stroke-width: 0.85 ;&st7;  " d=" M   169.97,   248.24  L   152.97,   248.24  " /><path style="stroke-width: 0.85 ;&st7;  " d=" M   926.34,   205.75  L   909.35,   205.75  " /><path style="stroke-width: 0.85 ;&st7;  " d=" M   169.97,   299.24  L   152.97,   299.24  " /><path style="stroke-width: 0.85 ;&st7;  " d=" M   236.77,   204.75  L   236.50,   205.22  L   236.40,   205.75  L   236.50,   206.28  L   236.77,   206.75  L   237.18,   207.10  L   237.69,   207.29  L   238.23,   207.29  L   238.74,   207.10  L   239.15,   206.75  L   239.42,   206.28  L   239.52,   205.75  L   239.42,   205.22  L   239.15,   204.75  L   238.74,   204.40  L   238.23,   204.22  L   237.69,   204.22  L   237.18,   204.40  L   236.77,   204.75  L   237.16,   205.46  L   237.16,   206.04  L   237.54,   206.49  L   238.11,   206.59  L   238.61,   206.30  L   238.81,   205.75  L   238.61,   205.20  L   238.11,   204.92  L   237.54,   205.01  L   237.96,   205.75  " /><path style="stroke-width: 0.85 ;&st7;  " d=" M   169.97,   384.22  L   152.97,   384.22  " /><path style="stroke-width: 0.85 ;&st7;  " d=" M   236.77,   247.24  L   236.50,   247.71  L   236.40,   248.24  L   236.50,   248.78  L   236.77,   249.25  L   237.18,   249.59  L   237.69,   249.78  L   238.23,   249.78  L   238.74,   249.59  L   239.15,   249.25  L   239.42,   248.78  L   239.52,   248.24  L   239.42,   247.71  L   239.15,   247.24  L   238.74,   246.90  L   238.23,   246.71  L   237.69,   246.71  L   237.18,   246.90  L   236.77,   247.24  L   237.16,   247.95  L   237.16,   248.54  L   237.54,   248.98  L   238.11,   249.08  L   238.61,   248.79  L   238.81,   248.24  L   238.61,   247.70  L   238.11,   247.41  L   237.54,   247.51  L   237.96,   248.24  " /><path style="stroke-width: 0.85 ;&st7;  " d=" M   236.77,   340.73  L   236.50,   341.20  L   236.40,   341.73  L   236.50,   342.26  L   236.77,   342.73  L   237.18,   343.08  L   237.69,   343.26  L   238.23,   343.26  L   238.74,   343.08  L   239.15,   342.73  L   239.42,   342.26  L   239.52,   341.73  L   239.42,   341.20  L   239.15,   340.73  L   238.74,   340.38  L   238.23,   340.19  L   237.69,   340.19  L   237.18,   340.38  L   236.77,   340.73  L   237.16,   341.44  L   237.16,   342.02  L   237.54,   342.46  L   238.11,   342.56  L   238.61,   342.28  L   238.81,   341.73  L   238.61,   341.18  L   238.11,   340.89  L   237.54,   340.99  L   237.96,   341.73  " /><path style="stroke-width: 0.85 ;&st7;  " d=" M   236.77,   298.23  L   236.50,   298.70  L   236.40,   299.24  L   236.50,   299.77  L   236.77,   300.24  L   237.18,   300.58  L   237.69,   300.77  L   238.23,   300.77  L   238.74,   300.58  L   239.15,   300.24  L   239.42,   299.77  L   239.52,   299.24  L   239.42,   298.70  L   239.15,   298.23  L   238.74,   297.89  L   238.23,   297.70  L   237.69,   297.70  L   237.18,   297.89  L   236.77,   298.23  L   237.16,   298.94  L   237.16,   299.53  L   237.54,   299.97  L   238.11,   300.07  L   238.61,   299.78  L   238.81,   299.24  L   238.61,   298.69  L   238.11,   298.40  L   237.54,   298.50  L   237.96,   299.24  " /><path style="stroke-width: 0.85 ;&st7;  " d=" M   263.46,   248.24  L   237.96,   248.24  " /><path style="stroke-width: 0.85 ;&st7;  " d=" M   236.77,   476.70  L   236.50,   477.17  L   236.40,   477.71  L   236.50,   478.24  L   236.77,   478.71  L   237.18,   479.05  L   237.69,   479.24  L   238.23,   479.24  L   238.74,   479.05  L   239.15,   478.71  L   239.42,   478.24  L   239.52,   477.71  L   239.42,   477.17  L   239.15,   476.70  L   238.74,   476.36  L   238.23,   476.17  L   237.69,   476.17  L   237.18,   476.36  L   236.77,   476.70  L   237.16,   477.41  L   237.16,   478.00  L   237.54,   478.44  L   238.11,   478.54  L   238.61,   478.25  L   238.81,   477.71  L   238.61,   477.16  L   238.11,   476.87  L   237.54,   476.97  L   237.96,   477.71  " /><path style="stroke-width: 0.85 ;&st7;  " d=" M   263.46,   477.71  L   237.96,   477.71  " /><path style="stroke-width: 0.85 ;&st7;  " d=" M   236.77,   434.21  L   236.50,   434.68  L   236.40,   435.21  L   236.50,   435.75  L   236.77,   436.22  L   237.18,   436.56  L   237.69,   436.75  L   238.23,   436.75  L   238.74,   436.56  L   239.15,   436.22  L   239.42,   435.75  L   239.52,   435.21  L   239.42,   434.68  L   239.15,   434.21  L   238.74,   433.86  L   238.23,   433.68  L   237.69,   433.68  L   237.18,   433.86  L   236.77,   434.21  L   237.16,   434.92  L   237.16,   435.50  L   237.54,   435.95  L   238.11,   436.05  L   238.61,   435.76  L   238.81,   435.21  L   238.61,   434.67  L   238.11,   434.38  L   237.54,   434.48  L   237.96,   435.21  " /><path style="stroke-width: 0.85 ;&st7;  " d=" M   236.77,   383.22  L   236.50,   383.69  L   236.40,   384.22  L   236.50,   384.75  L   236.77,   385.22  L   237.18,   385.57  L   237.69,   385.76  L   238.23,   385.76  L   238.74,   385.57  L   239.15,   385.22  L   239.42,   384.75  L   239.52,   384.22  L   239.42,   383.69  L   239.15,   383.22  L   238.74,   382.87  L   238.23,   382.69  L   237.69,   382.69  L   237.18,   382.87  L   236.77,   383.22  L   237.16,   383.93  L   237.16,   384.51  L   237.54,   384.96  L   238.11,   385.06  L   238.61,   384.77  L   238.81,   384.22  L   238.61,   383.67  L   238.11,   383.39  L   237.54,   383.48  L   237.96,   384.22  " /><path style="stroke-width: 0.85 ;&st7;  " d=" M   263.46,   435.21  L   237.96,   435.21  " /><path style="stroke-width: 0.85 ;&st7;  " d=" M   236.77,   527.69  L   236.50,   528.16  L   236.40,   528.70  L   236.50,   529.23  L   236.77,   529.70  L   237.18,   530.05  L   237.69,   530.23  L   238.23,   530.23  L   238.74,   530.05  L   239.15,   529.70  L   239.42,   529.23  L   239.52,   528.70  L   239.42,   528.16  L   239.15,   527.69  L   238.74,   527.35  L   238.23,   527.16  L   237.69,   527.16  L   237.18,   527.35  L   236.77,   527.69  L   237.16,   528.41  L   237.16,   528.99  L   237.54,   529.43  L   238.11,   529.53  L   238.61,   529.24  L   238.81,   528.70  L   238.61,   528.15  L   238.11,   527.86  L   237.54,   527.96  L   237.96,   528.70  " /><path style="stroke-width: 0.85 ;&st7;  " d=" M   263.46,   528.70  L   237.96,   528.70  " /><path style="stroke-width: 0.85 ;&st7;  " d=" M   237.96,   205.75  L   237.96,   596.69  L   263.46,   596.69  " /><path style="stroke-width: 0.85 ;&st7;  " d=" M   305.95,   528.70  L   327.20,   528.70  " /><path style="stroke-width: 0.28 ;&st9;  " d=" M   322.30,   528.70  L   319.47,   525.86  L   323.72,   525.86  L   326.55,   528.70  L   323.72,   531.53  L   319.47,   531.53  L   322.30,   528.70  " /><path style="stroke-width: 0.85 ;&st7;  " d=" M   305.95,   596.69  L   327.20,   596.69  " /><path style="stroke-width: 0.28 ;&st9;  " d=" M   322.30,   596.69  L   319.47,   593.85  L   323.72,   593.85  L   326.55,   596.69  L   323.72,   599.52  L   319.47,   599.52  L   322.30,   596.69  " /><path style="stroke-width: 0.85 ;&st7;  " d=" M   925.15,   204.75  L   924.88,   205.22  L   924.79,   205.75  L   924.88,   206.28  L   925.15,   206.75  L   925.57,   207.10  L   926.07,   207.29  L   926.62,   207.29  L   927.12,   207.10  L   927.54,   206.75  L   927.81,   206.28  L   927.90,   205.75  L   927.81,   205.22  L   927.54,   204.75  L   927.12,   204.40  L   926.62,   204.22  L   926.07,   204.22  L   925.57,   204.40  L   925.15,   204.75  L   925.55,   205.46  L   925.55,   206.04  L   925.92,   206.49  L   926.49,   206.59  L   927.00,   206.30  L   927.19,   205.75  L   927.00,   205.20  L   926.49,   204.92  L   925.92,   205.01  L   926.34,   205.75  " /><path style="stroke-width: 0.85 ;&st7;  " d=" M   925.15,   162.26  L   924.88,   162.73  L   924.79,   163.26  L   924.88,   163.79  L   925.15,   164.26  L   925.57,   164.61  L   926.07,   164.79  L   926.62,   164.79  L   927.12,   164.61  L   927.54,   164.26  L   927.81,   163.79  L   927.90,   163.26  L   927.81,   162.73  L   927.54,   162.26  L   927.12,   161.91  L   926.62,   161.72  L   926.07,   161.72  L   925.57,   161.91  L   925.15,   162.26  L   925.55,   162.97  L   925.55,   163.55  L   925.92,   163.99  L   926.49,   164.09  L   927.00,   163.80  L   927.19,   163.26  L   927.00,   162.71  L   926.49,   162.42  L   925.92,   162.52  L   926.34,   163.26  " /><path style="stroke-width: 0.85 ;&st7;  " d=" M   943.34,   163.26  L   305.95,   163.26  " /><path style="stroke-width: 0.85 ;&st7;  " d=" M  1002.83,   163.26  L   985.83,   163.26  " /><path style="stroke-width: 0.85 ;&st7;  " d=" M   926.34,   163.26  L   926.34,   205.75  L   943.34,   205.75  " /><path style="stroke-width: 0.85 ;&st7;  " d=" M  1002.83,   205.75  L   985.83,   205.75  " /><path style="stroke-width: 0.85 ;&st7;  " d=" M  1069.63,    94.27  L  1069.36,    94.74  L  1069.26,    95.27  L  1069.36,    95.80  L  1069.63,    96.27  L  1070.04,    96.62  L  1070.55,    96.81  L  1071.09,    96.81  L  1071.60,    96.62  L  1072.01,    96.27  L  1072.29,    95.80  L  1072.38,    95.27  L  1072.29,    94.74  L  1072.01,    94.27  L  1071.60,    93.92  L  1071.09,    93.73  L  1070.55,    93.73  L  1070.04,    93.92  L  1069.63,    94.27  L  1070.02,    94.98  L  1070.02,    95.56  L  1070.40,    96.01  L  1070.97,    96.11  L  1071.47,    95.82  L  1071.67,    95.27  L  1071.47,    94.72  L  1070.97,    94.43  L  1070.40,    94.53  L  1070.82,    95.27  " /><path style="stroke-width: 0.85 ;&st7;  " d=" M   237.96,   384.22  L   212.46,   384.22  " /><path style="stroke-width: 0.85 ;&st7;  " d=" M   322.95,   477.71  L   305.95,   477.71  " /><path style="stroke-width: 0.28 ;&st9;  " d=" M   153.62,   205.75  L   156.45,   202.92  L   152.20,   202.92  L   149.37,   205.75  L   152.20,   208.58  L   156.45,   208.58  L   153.62,   205.75  " /><path style="stroke-width: 0.85 ;&st7;  " d=" M   148.73,   205.75  L   237.96,   205.75  " /><path style="stroke-width: 0.85 ;&st7;  " d=" M   169.97,   163.26  L   152.97,   163.26  " /><path style="stroke-width: 0.85 ;&st7;  " d=" M   263.46,   163.26  L   212.46,   163.26  " /><path style="stroke-width: 0.28 ;&st9;  " d=" M   322.30,   248.24  L   319.47,   245.41  L   323.72,   245.41  L   326.55,   248.24  L   323.72,   251.08  L   319.47,   251.08  L   322.30,   248.24  " /><path style="stroke-width: 0.85 ;&st7;  " d=" M   305.95,   248.24  L   327.20,   248.24  " /><path style="stroke-width: 0.85 ;&st7;  " d=" M   169.97,   435.21  L   152.97,   435.21  " /><path style="stroke-width: 0.85 ;&st7;  " d=" M   237.96,   435.21  L   212.46,   435.21  " /><text style="&st18;" transform="matrix(&st16;  163.79  431.52 )">2</text><text style="&st18;" transform="matrix(&st16;  1091.1  451.63 )">10A S-HORN</text><text style="&st18;" transform="matrix(&st16;  1132.89  465.52 )">2</text><text style="&st18;" transform="matrix(&st16;  1081.63  465.52 )">1</text><text style="&st18;" transform="matrix(&st16;  1096.91  400.64 )">10A DRL</text><text style="&st18;" transform="matrix(&st16;  1132.89  414.53 )">2</text><text style="&st18;" transform="matrix(&st16;  1081.63  414.53 )">1</text><text style="&st18;" transform="matrix(&st16;  270.26  324.15 )">15A EFI-B</text><text style="&st18;" transform="matrix(&st16;  308.53  338.04 )">2</text><text style="&st18;" transform="matrix(&st16;  257.27  338.04 )">1</text><text style="&st18;" transform="matrix(&st16;  1089.35  298.65 )">30A ABS NO.2</text><text style="&st18;" transform="matrix(&st16;  1132.89  312.54 )">2</text><text style="&st18;" transform="matrix(&st16;  1081.63  312.54 )">1</text><text style="&st18;" transform="matrix(&st16;  1173.13  369.19 )">1</text><text style="&st18;" transform="matrix(&st16;  308.53  380.53 )">2</text><text style="&st18;" transform="matrix(&st16;  274.88  366.36 )">30A ST</text><text style="&st18;" transform="matrix(&st16;  257.27  380.53 )">1</text><text style="&st18;" transform="matrix(&st16;  331.77  437.18 )">1</text><text style="&st18;" transform="matrix(&st16;  1096.87  349.36 )">50A DEF</text><text style="&st18;" transform="matrix(&st16;  1132.89  363.53 )">2</text><text style="&st18;" transform="matrix(&st16;  271.0  77.69 )">120A ALT</text><text style="&st18;" transform="matrix(&st16;  308.53  91.58 )">2</text><text style="&st18;" transform="matrix(&st16;  257.27  91.58 )">1</text><text style="&st18;" transform="matrix(&st16;  872.46  187.89 )">20A RADIO</text><text style="&st18;" transform="matrix(&st16;  911.93  202.06 )">1</text><text style="&st18;" transform="matrix(&st16;  860.67  202.06 )">2</text><text style="&st18;" transform="matrix(&st16;  163.79  338.04 )">2</text><text style="&st18;" transform="matrix(&st16;  215.05  338.04 )">1</text><text style="&st18;" transform="matrix(&st16;  167.39  323.87 )">10A ECU-B NO.2</text><text style="&st18;" transform="matrix(&st16;  163.79  295.55 )">2</text><text style="&st18;" transform="matrix(&st16;  215.05  295.55 )">1</text><text style="&st18;" transform="matrix(&st16;  163.79  244.55 )">2</text><text style="&st18;" transform="matrix(&st16;  215.05  244.55 )">1</text><text style="&st18;" transform="matrix(&st16;  168.94  230.38 )">10A TURN&amp;HAZ</text><text style="&st18;" transform="matrix(&st16;  167.98  281.37 )">20A STRG LOCK</text><text style="&st18;" transform="matrix(&st16;  1081.63  363.53 )">1</text><text style="&st18;" transform="matrix(&st16;  177.36  366.64 )">10A ETCS</text><text style="&st18;" transform="matrix(&st16;  215.05  380.53 )">1</text><text style="&st18;" transform="matrix(&st16;  262.43  459.84 )">5A ECU-B NO.3</text><text style="&st18;" transform="matrix(&st16;  308.53  474.02 )">2</text><text style="&st18;" transform="matrix(&st16;  257.27  474.02 )">1</text><text style="&st18;" transform="matrix(&st16;  1081.63  261.55 )">1</text><text style="&st18;" transform="matrix(&st16;  1132.89  261.55 )">2</text><text style="&st18;" transform="matrix(&st16;  1097.84  247.66 )">40A RDI</text><text style="&st18;" transform="matrix(&st16;  331.77  530.67 )">1</text><text style="&st18;" transform="matrix(&st16;  257.27  525.01 )">1</text><text style="&st18;" transform="matrix(&st16;  271.35  510.84 )">7.5A AM2</text><text style="&st18;" transform="matrix(&st16;  308.53  525.01 )">2</text><text style="&st18;" transform="matrix(&st16;  331.77  598.65 )">1</text><text style="&st18;" transform="matrix(&st16;  257.27  593.0 )">1</text><text style="&st18;" transform="matrix(&st16;  273.71  578.82 )">15A IG2</text><text style="&st18;" transform="matrix(&st16;  308.53  593.0 )">2</text><text style="&st18;" transform="matrix(&st16;  937.16  159.57 )">1</text><text style="&st18;" transform="matrix(&st16;  988.42  159.57 )">2</text><text style="&st18;" transform="matrix(&st16;  948.48  145.4 )">7.5A DOME</text><text style="&st18;" transform="matrix(&st16;  940.76  187.89 )">10A ECU-B NO.1</text><text style="&st18;" transform="matrix(&st16;  988.42  202.06 )">2</text><text style="&st18;" transform="matrix(&st16;  937.16  202.06 )">1</text><text style="&st18;" transform="matrix(&st16;  261.96  417.63 )">40A H-LP-MAIN</text><text style="&st18;" transform="matrix(&st16;  308.53  431.52 )">2</text><text style="&st18;" transform="matrix(&st16;  257.27  431.52 )">1</text><text style="&st18;" transform="matrix(&st16;  264.72  230.67 )">25A EFI-MAIN</text><text style="&st18;" transform="matrix(&st16;  308.53  244.55 )">2</text><text style="&st18;" transform="matrix(&st16;  257.27  244.55 )">1</text><text style="&st18;" transform="matrix(&st16;  265.34  145.4 )">30A D/C CUT</text><text style="&st18;" transform="matrix(&st16;  308.53  159.57 )">2</text><text style="&st18;" transform="matrix(&st16;  257.27  159.57 )">1</text><text style="&st18;" transform="matrix(&st16;  163.79  380.53 )">2</text><text style="&st18;" transform="matrix(&st16;  1081.63  210.56 )">1</text><text style="&st18;" transform="matrix(&st16;  1089.35  196.39 )">50A ABS NO.1</text><text style="&st18;" transform="matrix(&st16;  1132.89  210.56 )">2</text><text style="&st18;" transform="matrix(&st16;  1132.89  159.57 )">2</text><text style="&st18;" transform="matrix(&st16;  1096.68  145.4 )">50A HTR</text><text style="&st18;" transform="matrix(&st16;  1081.63  159.57 )">1</text><text style="&st18;" transform="matrix(&st16;  215.05  159.57 )">1</text><text style="&st18;" transform="matrix(&st16;  163.79  159.57 )">2</text><g ewd:code="" ewd:figID="148" ewd:comment="1,2" ewd:figtype="commref"><text style="&st18;" transform="matrix(&st16;  173.83  411.42 )">60A EPS (*1) <tspan x="0 " dy="6.0">80A EPS (*2)</tspan></text></g><text style="&st18;" transform="matrix(&st16;  176.35  145.4 )">10A HORN</text><path style="stroke-width: 0.85 ;&st7;  " d=" M   951.84,   163.26  L   943.34,   163.26  " /><path style="stroke-width: 1.42 ;&st7;   " d=" M   974.50,   163.26  C   972.89    160.52    969.36    159.61    966.63    161.22  " /><path style="stroke-width: 1.42 ;&st7;   " d=" M   966.63,   161.22  C   965.74    161.74    965.11    162.38    964.59    163.26  " /><path style="stroke-width: 1.42 ;&st7;   " d=" M   954.67,   163.26  C   956.29    166.00    959.81    166.91    962.55    165.29  " /><path style="stroke-width: 1.42 ;&st7;   " d=" M   962.55,   165.29  C   963.43    164.78    964.07    164.14    964.59    163.26  " /><path style="stroke-width: 0.85 ;&st7;   " d=" M   977.34,   163.26  C   977.34    162.48    976.70    161.84    975.92    161.84  " /><path style="stroke-width: 0.85 ;&st7;   " d=" M   975.92,   161.84  C   975.14    161.84    974.50    162.48    974.50    163.26  " /><path style="stroke-width: 0.85 ;&st7;   " d=" M   974.50,   163.26  C   974.50    164.04    975.14    164.67    975.92    164.67  " /><path style="stroke-width: 0.85 ;&st7;   " d=" M   975.92,   164.67  C   976.70    164.67    977.34    164.04    977.34    163.26  " /><path style="stroke-width: 0.85 ;&st7;   " d=" M   954.67,   163.26  C   954.67    162.48    954.04    161.84    953.26    161.84  " /><path style="stroke-width: 0.85 ;&st7;   " d=" M   953.26,   161.84  C   952.48    161.84    951.84    162.48    951.84    163.26  " /><path style="stroke-width: 0.85 ;&st7;   " d=" M   951.84,   163.26  C   951.84    164.04    952.48    164.67    953.26    164.67  " /><path style="stroke-width: 0.85 ;&st7;   " d=" M   953.26,   164.67  C   954.04    164.67    954.67    164.04    954.67    163.26  " /><path style="stroke-width: 0.85 ;&st7;  " d=" M   985.83,   163.26  L   977.34,   163.26  " /><path style="stroke-width: 1.42 ;&st7;  " d=" M   943.34,   150.51  L   943.34,   176.01  L   985.83,   176.01  L   985.83,   150.51  L   943.34,   150.51  " /></g><g ewd:figtype="conn" ewd:figID="7" ewd:code="B38,C1"><path style="stroke-width: 0.85 ;&st7;  " d=" M    59.49,   562.69  L    76.49,   562.69  " /><path style="stroke-width: 0.85 ;&st7;  " d=" M    59.49,   582.52  L    76.49,   582.52  " /><path style="stroke-width: 0.85 ;&st7;  " d=" M    67.99,   562.69  L    67.99,   545.69  " /><path style="stroke-width: 0.85 ;&st7;  " d=" M    67.99,   588.19  L    67.99,   605.18  " /><path style="stroke-width: 1.42 ;&st7;  " d=" M    72.24,   568.36  L    63.74,   568.36  L    63.74,   566.94  L    72.24,   566.94  L    72.24,   568.36  " /><path style="stroke-width: 1.42 ;&st7;  " d=" M    72.24,   588.19  L    72.24,   586.77  L    63.74,   586.77  L    63.74,   588.19  L    72.24,   588.19  " /><path style="stroke-width: 1.42 ;&st7;  " d=" M    50.99,   545.69  L    84.99,   545.69  L    84.99,   605.18  L    50.99,   605.18  L    50.99,   545.69  " /><path style="stroke-width: 0.85 ;&st7;  " d=" M    67.99,   568.36  L    67.99,   571.19  " /><path style="stroke-width: 0.85 ;&st7;  " d=" M    67.99,   574.02  L    67.99,   576.86  " /><path style="stroke-width: 0.85 ;&st7;  " d=" M    67.99,   579.69  L    67.99,   582.52  " /><text style="&st18;" transform="matrix(&st16;  59.29  611.69 )">1</text><path style="stroke-width: 1.42 ;&st7;   " d=" M    72.52,   609.72  C    72.52    607.21     70.49    605.18     67.99    605.18  " /><path style="stroke-width: 1.42 ;&st7;   " d=" M    67.99,   605.18  C    65.49    605.18     63.46    607.21     63.46    609.72  " /><path style="stroke-width: 1.42 ;&st7;   " d=" M    63.46,   609.72  C    63.46    612.22     65.49    614.25     67.99    614.25  " /><path style="stroke-width: 1.42 ;&st7;   " d=" M    67.99,   614.25  C    70.49    614.25     72.52    612.22     72.52    609.72  " /><text style="&st18;" transform="matrix(&st16;  65.8  611.69 )">B</text><text style="&st18;" transform="matrix(&st16;  59.29  543.13 )">1</text><path style="stroke-width: 1.42 ;&st7;   " d=" M    72.52,   541.16  C    72.52    538.66     70.49    536.63     67.99    536.63  " /><path style="stroke-width: 1.42 ;&st7;   " d=" M    67.99,   536.63  C    65.49    536.63     63.46    538.66     63.46    541.16  " /><path style="stroke-width: 1.42 ;&st7;   " d=" M    63.46,   541.16  C    63.46    543.66     65.49    545.69     67.99    545.69  " /><path style="stroke-width: 1.42 ;&st7;   " d=" M    67.99,   545.69  C    70.49    545.69     72.52    543.66     72.52    541.16  " /><text style="&st18;" transform="matrix(&st16;  65.68  543.13 )">A</text><g ewd:figtype="title"><text style="&st1;" transform="matrix(&st17;  99.7  599.59 )" ewd:textID="7">蓄电池</text><text style="&st18;" transform="matrix(&st17;  92.6  599.58 )">B38(A),C1(B)</text></g></g><g ewd:figtype="rb" ewd:figID="8" ewd:code="FUSE14"><path style="stroke-width: 0.85 ;&st7;  " d=" M   178.47,   163.26  L   169.97,   163.26  " /><path style="stroke-width: 0.85 ;&st7;   " d=" M   181.30,   163.26  C   181.30    162.48    180.67    161.84    179.89    161.84  " /><path style="stroke-width: 0.85 ;&st7;   " d=" M   179.89,   161.84  C   179.10    161.84    178.47    162.48    178.47    163.26  " /><path style="stroke-width: 0.85 ;&st7;   " d=" M   178.47,   163.26  C   178.47    164.04    179.10    164.67    179.89    164.67  " /><path style="stroke-width: 0.85 ;&st7;   " d=" M   179.89,   164.67  C   180.67    164.67    181.30    164.04    181.30    163.26  " /><path style="stroke-width: 0.85 ;&st7;   " d=" M   203.97,   163.26  C   203.97    162.48    203.33    161.84    202.55    161.84  " /><path style="stroke-width: 0.85 ;&st7;   " d=" M   202.55,   161.84  C   201.77    161.84    201.13    162.48    201.13    163.26  " /><path style="stroke-width: 0.85 ;&st7;   " d=" M   201.13,   163.26  C   201.13    164.04    201.77    164.67    202.55    164.67  " /><path style="stroke-width: 0.85 ;&st7;   " d=" M   202.55,   164.67  C   203.33    164.67    203.97    164.04    203.97    163.26  " /><path style="stroke-width: 1.42 ;&st7;   " d=" M   181.30,   163.26  C   182.92    166.00    186.44    166.91    189.18    165.29  " /><path style="stroke-width: 1.42 ;&st7;   " d=" M   189.18,   165.29  C   190.06    164.78    190.70    164.14    191.22    163.26  " /><path style="stroke-width: 1.42 ;&st7;   " d=" M   201.13,   163.26  C   199.52    160.52    195.99    159.61    193.25    161.22  " /><path style="stroke-width: 1.42 ;&st7;   " d=" M   193.25,   161.22  C   192.37    161.74    191.74    162.38    191.22    163.26  " /><path style="stroke-width: 1.42 ;&st7;  " d=" M   169.97,   150.51  L   169.97,   176.01  L   212.46,   176.01  L   212.46,   150.51  L   169.97,   150.51  " /><path style="stroke-width: 0.85 ;&st7;  " d=" M   212.46,   163.26  L   203.97,   163.26  " /></g><g ewd:figtype="rb" ewd:figID="11" ewd:code="FUSE17"><path style="stroke-width: 0.85 ;&st7;  " d=" M   178.47,   248.24  L   169.97,   248.24  " /><path style="stroke-width: 1.42 ;&st7;   " d=" M   201.13,   248.24  C   199.52    245.51    195.99    244.59    193.25    246.21  " /><path style="stroke-width: 1.42 ;&st7;   " d=" M   193.25,   246.21  C   192.37    246.73    191.74    247.36    191.22    248.24  " /><path style="stroke-width: 1.42 ;&st7;   " d=" M   181.30,   248.24  C   182.92    250.98    186.44    251.89    189.18    250.28  " /><path style="stroke-width: 1.42 ;&st7;   " d=" M   189.18,   250.28  C   190.06    249.76    190.70    249.13    191.22    248.24  " /><path style="stroke-width: 0.85 ;&st7;   " d=" M   203.97,   248.24  C   203.97    247.46    203.33    246.83    202.55    246.83  " /><path style="stroke-width: 0.85 ;&st7;   " d=" M   202.55,   246.83  C   201.77    246.83    201.13    247.46    201.13    248.24  " /><path style="stroke-width: 0.85 ;&st7;   " d=" M   201.13,   248.24  C   201.13    249.03    201.77    249.66    202.55    249.66  " /><path style="stroke-width: 0.85 ;&st7;   " d=" M   202.55,   249.66  C   203.33    249.66    203.97    249.03    203.97    248.24  " /><path style="stroke-width: 0.85 ;&st7;   " d=" M   181.30,   248.24  C   181.30    247.46    180.67    246.83    179.89    246.83  " /><path style="stroke-width: 0.85 ;&st7;   " d=" M   179.89,   246.83  C   179.10    246.83    178.47    247.46    178.47    248.24  " /><path style="stroke-width: 0.85 ;&st7;   " d=" M   178.47,   248.24  C   178.47    249.03    179.10    249.66    179.89    249.66  " /><path style="stroke-width: 0.85 ;&st7;   " d=" M   179.89,   249.66  C   180.67    249.66    181.30    249.03    181.30    248.24  " /><path style="stroke-width: 0.85 ;&st7;  " d=" M   212.46,   248.24  L   203.97,   248.24  " /><path style="stroke-width: 1.42 ;&st7;  " d=" M   169.97,   235.50  L   169.97,   260.99  L   212.46,   260.99  L   212.46,   235.50  L   169.97,   235.50  " /></g><g ewd:figtype="rb" ewd:figID="13" ewd:code="FUSE21"><path style="stroke-width: 0.85 ;&st7;  " d=" M   178.47,   299.24  L   169.97,   299.24  " /><path style="stroke-width: 1.42 ;&st7;   " d=" M   201.13,   299.24  C   199.52    296.50    195.99    295.59    193.25    297.20  " /><path style="stroke-width: 1.42 ;&st7;   " d=" M   193.25,   297.20  C   192.37    297.72    191.74    298.35    191.22    299.24  " /><path style="stroke-width: 1.42 ;&st7;   " d=" M   181.30,   299.24  C   182.92    301.97    186.44    302.89    189.18    301.27  " /><path style="stroke-width: 1.42 ;&st7;   " d=" M   189.18,   301.27  C   190.06    300.75    190.70    300.12    191.22    299.24  " /><path style="stroke-width: 0.85 ;&st7;   " d=" M   203.97,   299.24  C   203.97    298.45    203.33    297.82    202.55    297.82  " /><path style="stroke-width: 0.85 ;&st7;   " d=" M   202.55,   297.82  C   201.77    297.82    201.13    298.45    201.13    299.24  " /><path style="stroke-width: 0.85 ;&st7;   " d=" M   201.13,   299.24  C   201.13    300.02    201.77    300.65    202.55    300.65  " /><path style="stroke-width: 0.85 ;&st7;   " d=" M   202.55,   300.65  C   203.33    300.65    203.97    300.02    203.97    299.24  " /><path style="stroke-width: 0.85 ;&st7;   " d=" M   181.30,   299.24  C   181.30    298.45    180.67    297.82    179.89    297.82  " /><path style="stroke-width: 0.85 ;&st7;   " d=" M   179.89,   297.82  C   179.10    297.82    178.47    298.45    178.47    299.24  " /><path style="stroke-width: 0.85 ;&st7;   " d=" M   178.47,   299.24  C   178.47    300.02    179.10    300.65    179.89    300.65  " /><path style="stroke-width: 0.85 ;&st7;   " d=" M   179.89,   300.65  C   180.67    300.65    181.30    300.02    181.30    299.24  " /><path style="stroke-width: 0.85 ;&st7;  " d=" M   212.46,   299.24  L   203.97,   299.24  " /><path style="stroke-width: 1.42 ;&st7;  " d=" M   169.97,   286.49  L   169.97,   311.98  L   212.46,   311.98  L   212.46,   286.49  L   169.97,   286.49  " /></g><g ewd:figtype="rb" ewd:figID="15" ewd:code="FUSE6"><path style="stroke-width: 0.85 ;&st7;  " d=" M   178.47,   341.73  L   169.97,   341.73  " /><path style="stroke-width: 1.42 ;&st7;   " d=" M   201.13,   341.73  C   199.52    338.99    195.99    338.08    193.25    339.69  " /><path style="stroke-width: 1.42 ;&st7;   " d=" M   193.25,   339.69  C   192.37    340.21    191.74    340.85    191.22    341.73  " /><path style="stroke-width: 1.42 ;&st7;   " d=" M   181.30,   341.73  C   182.92    344.47    186.44    345.38    189.18    343.77  " /><path style="stroke-width: 1.42 ;&st7;   " d=" M   189.18,   343.77  C   190.06    343.25    190.70    342.61    191.22    341.73  " /><path style="stroke-width: 0.85 ;&st7;   " d=" M   203.97,   341.73  C   203.97    340.95    203.33    340.31    202.55    340.31  " /><path style="stroke-width: 0.85 ;&st7;   " d=" M   202.55,   340.31  C   201.77    340.31    201.13    340.95    201.13    341.73  " /><path style="stroke-width: 0.85 ;&st7;   " d=" M   201.13,   341.73  C   201.13    342.51    201.77    343.14    202.55    343.14  " /><path style="stroke-width: 0.85 ;&st7;   " d=" M   202.55,   343.14  C   203.33    343.14    203.97    342.51    203.97    341.73  " /><path style="stroke-width: 0.85 ;&st7;   " d=" M   181.30,   341.73  C   181.30    340.95    180.67    340.31    179.89    340.31  " /><path style="stroke-width: 0.85 ;&st7;   " d=" M   179.89,   340.31  C   179.10    340.31    178.47    340.95    178.47    341.73  " /><path style="stroke-width: 0.85 ;&st7;   " d=" M   178.47,   341.73  C   178.47    342.51    179.10    343.14    179.89    343.14  " /><path style="stroke-width: 0.85 ;&st7;   " d=" M   179.89,   343.14  C   180.67    343.14    181.30    342.51    181.30    341.73  " /><path style="stroke-width: 0.85 ;&st7;  " d=" M   212.46,   341.73  L   203.97,   341.73  " /><path style="stroke-width: 1.42 ;&st7;  " d=" M   169.97,   328.98  L   169.97,   354.48  L   212.46,   354.48  L   212.46,   328.98  L   169.97,   328.98  " /></g><g ewd:figtype="rb" ewd:figID="16" ewd:code="FUSE9"><path style="stroke-width: 0.85 ;&st7;  " d=" M   178.47,   384.22  L   169.97,   384.22  " /><path style="stroke-width: 0.85 ;&st7;   " d=" M   181.30,   384.22  C   181.30    383.44    180.67    382.80    179.89    382.80  " /><path style="stroke-width: 0.85 ;&st7;   " d=" M   179.89,   382.80  C   179.10    382.80    178.47    383.44    178.47    384.22  " /><path style="stroke-width: 0.85 ;&st7;   " d=" M   178.47,   384.22  C   178.47    385.00    179.10    385.64    179.89    385.64  " /><path style="stroke-width: 0.85 ;&st7;   " d=" M   179.89,   385.64  C   180.67    385.64    181.30    385.00    181.30    384.22  " /><path style="stroke-width: 0.85 ;&st7;   " d=" M   203.97,   384.22  C   203.97    383.44    203.33    382.80    202.55    382.80  " /><path style="stroke-width: 0.85 ;&st7;   " d=" M   202.55,   382.80  C   201.77    382.80    201.13    383.44    201.13    384.22  " /><path style="stroke-width: 0.85 ;&st7;   " d=" M   201.13,   384.22  C   201.13    385.00    201.77    385.64    202.55    385.64  " /><path style="stroke-width: 0.85 ;&st7;   " d=" M   202.55,   385.64  C   203.33    385.64    203.97    385.00    203.97    384.22  " /><path style="stroke-width: 1.42 ;&st7;   " d=" M   181.30,   384.22  C   182.92    386.96    186.44    387.87    189.18    386.26  " /><path style="stroke-width: 1.42 ;&st7;   " d=" M   189.18,   386.26  C   190.06    385.74    190.70    385.10    191.22    384.22  " /><path style="stroke-width: 1.42 ;&st7;   " d=" M   201.13,   384.22  C   199.52    381.48    195.99    380.57    193.25    382.18  " /><path style="stroke-width: 1.42 ;&st7;   " d=" M   193.25,   382.18  C   192.37    382.70    191.74    383.34    191.22    384.22  " /><path style="stroke-width: 1.42 ;&st7;  " d=" M   169.97,   371.47  L   169.97,   396.97  L   212.46,   396.97  L   212.46,   371.47  L   169.97,   371.47  " /><path style="stroke-width: 0.85 ;&st7;  " d=" M   212.46,   384.22  L   203.97,   384.22  " /></g><g ewd:figtype="rb" ewd:figID="18" ewd:code="FUSE34,FUSE35"><path style="stroke-width: 0.85 ;&st7;  " d=" M   178.47,   435.21  L   169.97,   435.21  " /><path style="stroke-width: 0.85 ;&st7;   " d=" M   181.30,   435.21  C   181.30    434.43    180.67    433.80    179.89    433.80  " /><path style="stroke-width: 0.85 ;&st7;   " d=" M   179.89,   433.80  C   179.10    433.80    178.47    434.43    178.47    435.21  " /><path style="stroke-width: 0.85 ;&st7;   " d=" M   178.47,   435.21  C   178.47    435.99    179.10    436.63    179.89    436.63  " /><path style="stroke-width: 0.85 ;&st7;   " d=" M   179.89,   436.63  C   180.67    436.63    181.30    435.99    181.30    435.21  " /><path style="stroke-width: 0.85 ;&st7;   " d=" M   203.97,   435.21  C   203.97    434.43    203.33    433.80    202.55    433.80  " /><path style="stroke-width: 0.85 ;&st7;   " d=" M   202.55,   433.80  C   201.77    433.80    201.13    434.43    201.13    435.21  " /><path style="stroke-width: 0.85 ;&st7;   " d=" M   201.13,   435.21  C   201.13    435.99    201.77    436.63    202.55    436.63  " /><path style="stroke-width: 0.85 ;&st7;   " d=" M   202.55,   436.63  C   203.33    436.63    203.97    435.99    203.97    435.21  " /><path style="stroke-width: 1.42 ;&st7;   " d=" M   181.30,   435.21  C   182.92    437.95    186.44    438.86    189.18    437.25  " /><path style="stroke-width: 1.42 ;&st7;   " d=" M   189.18,   437.25  C   190.06    436.73    190.70    436.09    191.22    435.21  " /><path style="stroke-width: 1.42 ;&st7;   " d=" M   201.13,   435.21  C   199.52    432.47    195.99    431.56    193.25    433.18  " /><path style="stroke-width: 1.42 ;&st7;   " d=" M   193.25,   433.18  C   192.37    433.70    191.74    434.33    191.22    435.21  " /><path style="stroke-width: 1.42 ;&st7;  " d=" M   169.97,   422.46  L   169.97,   447.96  L   212.46,   447.96  L   212.46,   422.46  L   169.97,   422.46  " /><path style="stroke-width: 0.85 ;&st7;  " d=" M   212.46,   435.21  L   203.97,   435.21  " /></g><g ewd:figtype="rb" ewd:figID="20" ewd:code="FUSE36"><path style="stroke-width: 0.85 ;&st7;  " d=" M   297.45,    95.27  L   305.95,    95.27  " /><path style="stroke-width: 1.42 ;&st7;   " d=" M   294.62,    95.27  C   293.00     92.53    289.48     91.62    286.74     93.23  " /><path style="stroke-width: 1.42 ;&st7;   " d=" M   286.74,    93.23  C   285.86     93.75    285.22     94.39    284.70     95.27  " /><path style="stroke-width: 1.42 ;&st7;   " d=" M   274.79,    95.27  C   276.40     98.01    279.93     98.92    282.67     97.31  " /><path style="stroke-width: 1.42 ;&st7;   " d=" M   282.67,    97.31  C   283.55     96.79    284.18     96.15    284.70     95.27  " /><path style="stroke-width: 0.85 ;&st7;   " d=" M   297.45,    95.27  C   297.45     94.49    296.82     93.85    296.03     93.85  " /><path style="stroke-width: 0.85 ;&st7;   " d=" M   296.03,    93.85  C   295.25     93.85    294.62     94.49    294.62     95.27  " /><path style="stroke-width: 0.85 ;&st7;   " d=" M   294.62,    95.27  C   294.62     96.05    295.25     96.69    296.03     96.69  " /><path style="stroke-width: 0.85 ;&st7;   " d=" M   296.03,    96.69  C   296.82     96.69    297.45     96.05    297.45     95.27  " /><path style="stroke-width: 0.85 ;&st7;   " d=" M   274.79,    95.27  C   274.79     94.49    274.15     93.85    273.37     93.85  " /><path style="stroke-width: 0.85 ;&st7;   " d=" M   273.37,    93.85  C   272.59     93.85    271.95     94.49    271.95     95.27  " /><path style="stroke-width: 0.85 ;&st7;   " d=" M   271.95,    95.27  C   271.95     96.05    272.59     96.69    273.37     96.69  " /><path style="stroke-width: 0.85 ;&st7;   " d=" M   273.37,    96.69  C   274.15     96.69    274.79     96.05    274.79     95.27  " /><path style="stroke-width: 1.42 ;&st7;  " d=" M   263.46,    82.52  L   263.46,   108.02  L   305.95,   108.02  L   305.95,    82.52  L   263.46,    82.52  " /><path style="stroke-width: 0.85 ;&st7;  " d=" M   263.46,    95.27  L   271.95,    95.27  " /></g><g ewd:figtype="rb" ewd:figID="22" ewd:code="FUSE24"><path style="stroke-width: 0.85 ;&st7;  " d=" M   271.95,   163.26  L   263.46,   163.26  " /><path style="stroke-width: 0.85 ;&st7;   " d=" M   274.79,   163.26  C   274.79    162.48    274.15    161.84    273.37    161.84  " /><path style="stroke-width: 0.85 ;&st7;   " d=" M   273.37,   161.84  C   272.59    161.84    271.95    162.48    271.95    163.26  " /><path style="stroke-width: 0.85 ;&st7;   " d=" M   271.95,   163.26  C   271.95    164.04    272.59    164.67    273.37    164.67  " /><path style="stroke-width: 0.85 ;&st7;   " d=" M   273.37,   164.67  C   274.15    164.67    274.79    164.04    274.79    163.26  " /><path style="stroke-width: 0.85 ;&st7;   " d=" M   297.45,   163.26  C   297.45    162.48    296.82    161.84    296.03    161.84  " /><path style="stroke-width: 0.85 ;&st7;   " d=" M   296.03,   161.84  C   295.25    161.84    294.62    162.48    294.62    163.26  " /><path style="stroke-width: 0.85 ;&st7;   " d=" M   294.62,   163.26  C   294.62    164.04    295.25    164.67    296.03    164.67  " /><path style="stroke-width: 0.85 ;&st7;   " d=" M   296.03,   164.67  C   296.82    164.67    297.45    164.04    297.45    163.26  " /><path style="stroke-width: 1.42 ;&st7;   " d=" M   274.79,   163.26  C   276.40    166.00    279.93    166.91    282.67    165.29  " /><path style="stroke-width: 1.42 ;&st7;   " d=" M   282.67,   165.29  C   283.55    164.78    284.18    164.14    284.70    163.26  " /><path style="stroke-width: 1.42 ;&st7;   " d=" M   294.62,   163.26  C   293.00    160.52    289.48    159.61    286.74    161.22  " /><path style="stroke-width: 1.42 ;&st7;   " d=" M   286.74,   161.22  C   285.86    161.74    285.22    162.38    284.70    163.26  " /><path style="stroke-width: 1.42 ;&st7;  " d=" M   263.46,   150.51  L   263.46,   176.01  L   305.95,   176.01  L   305.95,   150.51  L   263.46,   150.51  " /><path style="stroke-width: 0.85 ;&st7;  " d=" M   305.95,   163.26  L   297.45,   163.26  " /></g><g ewd:figtype="rb" ewd:figID="24" ewd:code="FUSE22"><path style="stroke-width: 0.85 ;&st7;  " d=" M   271.95,   248.24  L   263.46,   248.24  " /><path style="stroke-width: 0.85 ;&st7;   " d=" M   274.79,   248.24  C   274.79    247.46    274.15    246.83    273.37    246.83  " /><path style="stroke-width: 0.85 ;&st7;   " d=" M   273.37,   246.83  C   272.59    246.83    271.95    247.46    271.95    248.24  " /><path style="stroke-width: 0.85 ;&st7;   " d=" M   271.95,   248.24  C   271.95    249.03    272.59    249.66    273.37    249.66  " /><path style="stroke-width: 0.85 ;&st7;   " d=" M   273.37,   249.66  C   274.15    249.66    274.79    249.03    274.79    248.24  " /><path style="stroke-width: 0.85 ;&st7;   " d=" M   297.45,   248.24  C   297.45    247.46    296.82    246.83    296.03    246.83  " /><path style="stroke-width: 0.85 ;&st7;   " d=" M   296.03,   246.83  C   295.25    246.83    294.62    247.46    294.62    248.24  " /><path style="stroke-width: 0.85 ;&st7;   " d=" M   294.62,   248.24  C   294.62    249.03    295.25    249.66    296.03    249.66  " /><path style="stroke-width: 0.85 ;&st7;   " d=" M   296.03,   249.66  C   296.82    249.66    297.45    249.03    297.45    248.24  " /><path style="stroke-width: 1.42 ;&st7;   " d=" M   274.79,   248.24  C   276.40    250.98    279.93    251.89    282.67    250.28  " /><path style="stroke-width: 1.42 ;&st7;   " d=" M   282.67,   250.28  C   283.55    249.76    284.18    249.13    284.70    248.24  " /><path style="stroke-width: 1.42 ;&st7;   " d=" M   294.62,   248.24  C   293.00    245.51    289.48    244.59    286.74    246.21  " /><path style="stroke-width: 1.42 ;&st7;   " d=" M   286.74,   246.21  C   285.86    246.73    285.22    247.36    284.70    248.24  " /><path style="stroke-width: 1.42 ;&st7;  " d=" M   263.46,   235.50  L   263.46,   260.99  L   305.95,   260.99  L   305.95,   235.50  L   263.46,   235.50  " /><path style="stroke-width: 0.85 ;&st7;  " d=" M   305.95,   248.24  L   297.45,   248.24  " /></g><g ewd:figtype="rb" ewd:figID="26" ewd:code="FUSE18"><path style="stroke-width: 0.85 ;&st7;  " d=" M   271.95,   341.73  L   263.46,   341.73  " /><path style="stroke-width: 0.85 ;&st7;   " d=" M   274.79,   341.73  C   274.79    340.95    274.15    340.31    273.37    340.31  " /><path style="stroke-width: 0.85 ;&st7;   " d=" M   273.37,   340.31  C   272.59    340.31    271.95    340.95    271.95    341.73  " /><path style="stroke-width: 0.85 ;&st7;   " d=" M   271.95,   341.73  C   271.95    342.51    272.59    343.14    273.37    343.14  " /><path style="stroke-width: 0.85 ;&st7;   " d=" M   273.37,   343.14  C   274.15    343.14    274.79    342.51    274.79    341.73  " /><path style="stroke-width: 0.85 ;&st7;   " d=" M   297.45,   341.73  C   297.45    340.95    296.82    340.31    296.03    340.31  " /><path style="stroke-width: 0.85 ;&st7;   " d=" M   296.03,   340.31  C   295.25    340.31    294.62    340.95    294.62    341.73  " /><path style="stroke-width: 0.85 ;&st7;   " d=" M   294.62,   341.73  C   294.62    342.51    295.25    343.14    296.03    343.14  " /><path style="stroke-width: 0.85 ;&st7;   " d=" M   296.03,   343.14  C   296.82    343.14    297.45    342.51    297.45    341.73  " /><path style="stroke-width: 1.42 ;&st7;   " d=" M   274.79,   341.73  C   276.40    344.47    279.93    345.38    282.67    343.77  " /><path style="stroke-width: 1.42 ;&st7;   " d=" M   282.67,   343.77  C   283.55    343.25    284.18    342.61    284.70    341.73  " /><path style="stroke-width: 1.42 ;&st7;   " d=" M   294.62,   341.73  C   293.00    338.99    289.48    338.08    286.74    339.69  " /><path style="stroke-width: 1.42 ;&st7;   " d=" M   286.74,   339.69  C   285.86    340.21    285.22    340.85    284.70    341.73  " /><path style="stroke-width: 1.42 ;&st7;  " d=" M   263.46,   328.98  L   263.46,   354.48  L   305.95,   354.48  L   305.95,   328.98  L   263.46,   328.98  " /><path style="stroke-width: 0.85 ;&st7;  " d=" M   305.95,   341.73  L   297.45,   341.73  " /></g><g ewd:figtype="rb" ewd:figID="28" ewd:code="FUSE28"><path style="stroke-width: 0.85 ;&st7;  " d=" M   297.45,   384.22  L   305.95,   384.22  " /><path style="stroke-width: 0.85 ;&st7;   " d=" M   297.45,   384.22  C   297.45    383.44    296.82    382.80    296.03    382.80  " /><path style="stroke-width: 0.85 ;&st7;   " d=" M   296.03,   382.80  C   295.25    382.80    294.62    383.44    294.62    384.22  " /><path style="stroke-width: 0.85 ;&st7;   " d=" M   294.62,   384.22  C   294.62    385.00    295.25    385.64    296.03    385.64  " /><path style="stroke-width: 0.85 ;&st7;   " d=" M   296.03,   385.64  C   296.82    385.64    297.45    385.00    297.45    384.22  " /><path style="stroke-width: 0.85 ;&st7;   " d=" M   274.79,   384.22  C   274.79    383.44    274.15    382.80    273.37    382.80  " /><path style="stroke-width: 0.85 ;&st7;   " d=" M   273.37,   382.80  C   272.59    382.80    271.95    383.44    271.95    384.22  " /><path style="stroke-width: 0.85 ;&st7;   " d=" M   271.95,   384.22  C   271.95    385.00    272.59    385.64    273.37    385.64  " /><path style="stroke-width: 0.85 ;&st7;   " d=" M   273.37,   385.64  C   274.15    385.64    274.79    385.00    274.79    384.22  " /><path style="stroke-width: 1.42 ;&st7;   " d=" M   294.62,   384.22  C   293.00    381.48    289.48    380.57    286.74    382.18  " /><path style="stroke-width: 1.42 ;&st7;   " d=" M   286.74,   382.18  C   285.86    382.70    285.22    383.34    284.70    384.22  " /><path style="stroke-width: 1.42 ;&st7;   " d=" M   274.79,   384.22  C   276.40    386.96    279.93    387.87    282.67    386.26  " /><path style="stroke-width: 1.42 ;&st7;   " d=" M   282.67,   386.26  C   283.55    385.74    284.18    385.10    284.70    384.22  " /><path style="stroke-width: 0.85 ;&st7;  " d=" M   263.46,   384.22  L   271.95,   384.22  " /><path style="stroke-width: 1.42 ;&st7;  " d=" M   263.46,   371.47  L   263.46,   396.97  L   305.95,   396.97  L   305.95,   371.47  L   263.46,   371.47  " /></g><g ewd:figtype="rb" ewd:figID="31" ewd:code="FUSE29"><path style="stroke-width: 0.85 ;&st7;  " d=" M   297.45,   435.21  L   305.95,   435.21  " /><path style="stroke-width: 1.42 ;&st7;   " d=" M   274.79,   435.21  C   276.40    437.95    279.93    438.86    282.67    437.25  " /><path style="stroke-width: 1.42 ;&st7;   " d=" M   282.67,   437.25  C   283.55    436.73    284.18    436.09    284.70    435.21  " /><path style="stroke-width: 1.42 ;&st7;   " d=" M   294.62,   435.21  C   293.00    432.47    289.48    431.56    286.74    433.18  " /><path style="stroke-width: 1.42 ;&st7;   " d=" M   286.74,   433.18  C   285.86    433.70    285.22    434.33    284.70    435.21  " /><path style="stroke-width: 0.85 ;&st7;   " d=" M   297.45,   435.21  C   297.45    434.43    296.82    433.80    296.03    433.80  " /><path style="stroke-width: 0.85 ;&st7;   " d=" M   296.03,   433.80  C   295.25    433.80    294.62    434.43    294.62    435.21  " /><path style="stroke-width: 0.85 ;&st7;   " d=" M   294.62,   435.21  C   294.62    435.99    295.25    436.63    296.03    436.63  " /><path style="stroke-width: 0.85 ;&st7;   " d=" M   296.03,   436.63  C   296.82    436.63    297.45    435.99    297.45    435.21  " /><path style="stroke-width: 0.85 ;&st7;   " d=" M   274.79,   435.21  C   274.79    434.43    274.15    433.80    273.37    433.80  " /><path style="stroke-width: 0.85 ;&st7;   " d=" M   273.37,   433.80  C   272.59    433.80    271.95    434.43    271.95    435.21  " /><path style="stroke-width: 0.85 ;&st7;   " d=" M   271.95,   435.21  C   271.95    435.99    272.59    436.63    273.37    436.63  " /><path style="stroke-width: 0.85 ;&st7;   " d=" M   273.37,   436.63  C   274.15    436.63    274.79    435.99    274.79    435.21  " /><path style="stroke-width: 1.42 ;&st7;  " d=" M   263.46,   422.46  L   263.46,   447.96  L   305.95,   447.96  L   305.95,   422.46  L   263.46,   422.46  " /><path style="stroke-width: 0.85 ;&st7;  " d=" M   263.46,   435.21  L   271.95,   435.21  " /></g><g ewd:figtype="rb" ewd:figID="34" ewd:code="FUSE1"><path style="stroke-width: 0.85 ;&st7;  " d=" M   297.45,   477.71  L   305.95,   477.71  " /><path style="stroke-width: 1.42 ;&st7;   " d=" M   274.79,   477.71  C   276.40    480.44    279.93    481.36    282.67    479.74  " /><path style="stroke-width: 1.42 ;&st7;   " d=" M   282.67,   479.74  C   283.55    479.22    284.18    478.59    284.70    477.71  " /><path style="stroke-width: 1.42 ;&st7;   " d=" M   294.62,   477.71  C   293.00    474.97    289.48    474.06    286.74    475.67  " /><path style="stroke-width: 1.42 ;&st7;   " d=" M   286.74,   475.67  C   285.86    476.19    285.22    476.82    284.70    477.71  " /><path style="stroke-width: 0.85 ;&st7;   " d=" M   297.45,   477.71  C   297.45    476.92    296.82    476.29    296.03    476.29  " /><path style="stroke-width: 0.85 ;&st7;   " d=" M   296.03,   476.29  C   295.25    476.29    294.62    476.92    294.62    477.71  " /><path style="stroke-width: 0.85 ;&st7;   " d=" M   294.62,   477.71  C   294.62    478.49    295.25    479.12    296.03    479.12  " /><path style="stroke-width: 0.85 ;&st7;   " d=" M   296.03,   479.12  C   296.82    479.12    297.45    478.49    297.45    477.71  " /><path style="stroke-width: 0.85 ;&st7;   " d=" M   274.79,   477.71  C   274.79    476.92    274.15    476.29    273.37    476.29  " /><path style="stroke-width: 0.85 ;&st7;   " d=" M   273.37,   476.29  C   272.59    476.29    271.95    476.92    271.95    477.71  " /><path style="stroke-width: 0.85 ;&st7;   " d=" M   271.95,   477.71  C   271.95    478.49    272.59    479.12    273.37    479.12  " /><path style="stroke-width: 0.85 ;&st7;   " d=" M   273.37,   479.12  C   274.15    479.12    274.79    478.49    274.79    477.71  " /><path style="stroke-width: 1.42 ;&st7;  " d=" M   263.46,   464.96  L   263.46,   490.45  L   305.95,   490.45  L   305.95,   464.96  L   263.46,   464.96  " /><path style="stroke-width: 0.85 ;&st7;  " d=" M   263.46,   477.71  L   271.95,   477.71  " /></g><g ewd:figtype="rb" ewd:figID="37" ewd:code="FUSE2"><path style="stroke-width: 0.85 ;&st7;  " d=" M   271.95,   528.70  L   263.46,   528.70  " /><path style="stroke-width: 0.85 ;&st7;   " d=" M   274.79,   528.70  C   274.79    527.91    274.15    527.28    273.37    527.28  " /><path style="stroke-width: 0.85 ;&st7;   " d=" M   273.37,   527.28  C   272.59    527.28    271.95    527.91    271.95    528.70  " /><path style="stroke-width: 0.85 ;&st7;   " d=" M   271.95,   528.70  C   271.95    529.48    272.59    530.11    273.37    530.11  " /><path style="stroke-width: 0.85 ;&st7;   " d=" M   273.37,   530.11  C   274.15    530.11    274.79    529.48    274.79    528.70  " /><path style="stroke-width: 0.85 ;&st7;   " d=" M   297.45,   528.70  C   297.45    527.91    296.82    527.28    296.03    527.28  " /><path style="stroke-width: 0.85 ;&st7;   " d=" M   296.03,   527.28  C   295.25    527.28    294.62    527.91    294.62    528.70  " /><path style="stroke-width: 0.85 ;&st7;   " d=" M   294.62,   528.70  C   294.62    529.48    295.25    530.11    296.03    530.11  " /><path style="stroke-width: 0.85 ;&st7;   " d=" M   296.03,   530.11  C   296.82    530.11    297.45    529.48    297.45    528.70  " /><path style="stroke-width: 1.42 ;&st7;   " d=" M   294.62,   528.70  C   293.00    525.96    289.48    525.05    286.74    526.66  " /><path style="stroke-width: 1.42 ;&st7;   " d=" M   286.74,   526.66  C   285.86    527.18    285.22    527.81    284.70    528.70  " /><path style="stroke-width: 1.42 ;&st7;   " d=" M   274.79,   528.70  C   276.40    531.43    279.93    532.35    282.67    530.73  " /><path style="stroke-width: 1.42 ;&st7;   " d=" M   282.67,   530.73  C   283.55    530.21    284.18    529.58    284.70    528.70  " /><path style="stroke-width: 1.42 ;&st7;  " d=" M   263.46,   515.95  L   263.46,   541.44  L   305.95,   541.44  L   305.95,   515.95  L   263.46,   515.95  " /><path style="stroke-width: 0.85 ;&st7;  " d=" M   305.95,   528.70  L   297.45,   528.70  " /></g><g ewd:figtype="rb" ewd:figID="39" ewd:code="FUSE19"><path style="stroke-width: 0.85 ;&st7;  " d=" M   271.95,   596.69  L   263.46,   596.69  " /><path style="stroke-width: 0.85 ;&st7;   " d=" M   274.79,   596.69  C   274.79    595.90    274.15    595.27    273.37    595.27  " /><path style="stroke-width: 0.85 ;&st7;   " d=" M   273.37,   595.27  C   272.59    595.27    271.95    595.90    271.95    596.69  " /><path style="stroke-width: 0.85 ;&st7;   " d=" M   271.95,   596.69  C   271.95    597.47    272.59    598.10    273.37    598.10  " /><path style="stroke-width: 0.85 ;&st7;   " d=" M   273.37,   598.10  C   274.15    598.10    274.79    597.47    274.79    596.69  " /><path style="stroke-width: 0.85 ;&st7;   " d=" M   297.45,   596.69  C   297.45    595.90    296.82    595.27    296.03    595.27  " /><path style="stroke-width: 0.85 ;&st7;   " d=" M   296.03,   595.27  C   295.25    595.27    294.62    595.90    294.62    596.69  " /><path style="stroke-width: 0.85 ;&st7;   " d=" M   294.62,   596.69  C   294.62    597.47    295.25    598.10    296.03    598.10  " /><path style="stroke-width: 0.85 ;&st7;   " d=" M   296.03,   598.10  C   296.82    598.10    297.45    597.47    297.45    596.69  " /><path style="stroke-width: 1.42 ;&st7;   " d=" M   294.62,   596.69  C   293.00    593.95    289.48    593.04    286.74    594.65  " /><path style="stroke-width: 1.42 ;&st7;   " d=" M   286.74,   594.65  C   285.86    595.17    285.22    595.80    284.70    596.69  " /><path style="stroke-width: 1.42 ;&st7;   " d=" M   274.79,   596.69  C   276.40    599.42    279.93    600.34    282.67    598.72  " /><path style="stroke-width: 1.42 ;&st7;   " d=" M   282.67,   598.72  C   283.55    598.20    284.18    597.57    284.70    596.69  " /><path style="stroke-width: 1.42 ;&st7;  " d=" M   263.46,   583.94  L   263.46,   609.43  L   305.95,   609.43  L   305.95,   583.94  L   263.46,   583.94  " /><path style="stroke-width: 0.85 ;&st7;  " d=" M   305.95,   596.69  L   297.45,   596.69  " /></g><g ewd:figtype="jb" ewd:figID="62" ewd:code="1"><path style="stroke-width: 1.42 ;&st7;  " d=" M   140.23,   201.50  L   144.48,   201.50  " /><path style="stroke-width: 1.42 ;&st7;  " d=" M   144.48,   210.00  L   140.23,   210.00  " /><path style="stroke-width: 1.42 ;&st7;   " d=" M   135.98,   205.75  C   135.98    208.10    137.88    210.00    140.23    210.00  " /><path style="stroke-width: 1.42 ;&st7;   " d=" M   144.48,   210.00  C   146.82    210.00    148.73    208.10    148.73    205.75  " /><path style="stroke-width: 1.42 ;&st7;   " d=" M   148.73,   205.75  C   148.73    203.40    146.82    201.50    144.48    201.50  " /><path style="stroke-width: 1.42 ;&st7;   " d=" M   140.23,   201.50  C   137.88    201.50    135.98    203.40    135.98    205.75  " /><text style="&st18;" transform="matrix(&st16;  138.34  207.72 )">1G</text><text style="&st18;" transform="matrix(&st16;  140.55  198.51 )">1</text></g><g ewd:figtype="gp" ewd:figID="66" ewd:code="CB"><path style="stroke-width: 0.85 ;&st7;  " d=" M    33.99,   697.25  L    33.99,   701.50  " /><path style="stroke-width: 0.85 ;&st7;  " d=" M    25.50,   701.50  L    42.49,   701.50  " /><path style="stroke-width: 0.85 ;&st7;  " d=" M    29.75,   704.33  L    38.24,   704.33  " /><path style="stroke-width: 0.85 ;&st7;  " d=" M    31.16,   707.17  L    36.83,   707.17  " /><path style="stroke-width: 0.85 ;&st7;  " d=" M    32.58,   710.00  L    35.41,   710.00  " /></g><g ewd:figtype="gp" ewd:figID="67" ewd:code="CA"><path style="stroke-width: 0.85 ;&st7;  " d=" M    67.99,   697.25  L    67.99,   701.50  " /><path style="stroke-width: 0.85 ;&st7;  " d=" M    59.49,   701.50  L    76.49,   701.50  " /><path style="stroke-width: 0.85 ;&st7;  " d=" M    63.74,   704.33  L    72.24,   704.33  " /><path style="stroke-width: 0.85 ;&st7;  " d=" M    65.16,   707.17  L    70.82,   707.17  " /><path style="stroke-width: 0.85 ;&st7;  " d=" M    66.57,   710.00  L    69.41,   710.00  " /></g><g ewd:figtype="annex" ewd:figID="57" ewd:code=" "><path style="stroke-width: 1.42 ;&st7;   " d=" M    70.82,   463.54  C    70.82    461.98     69.55    460.71     67.99    460.71  " /><path style="stroke-width: 1.42 ;&st7;   " d=" M    67.99,   460.71  C    66.42    460.71     65.16    461.98     65.16    463.54  " /><path style="stroke-width: 1.42 ;&st7;   " d=" M    65.16,   463.54  C    65.16    465.11     66.42    466.37     67.99    466.37  " /><path style="stroke-width: 1.42 ;&st7;   " d=" M    67.99,   466.37  C    69.55    466.37     70.82    465.11     70.82    463.54  " /><path style="stroke-width: 1.42 ;&st7;   " d=" M    70.82,   491.87  C    70.82    490.31     69.55    489.04     67.99    489.04  " /><path style="stroke-width: 1.42 ;&st7;   " d=" M    67.99,   489.04  C    66.42    489.04     65.16    490.31     65.16    491.87  " /><path style="stroke-width: 1.42 ;&st7;   " d=" M    65.16,   491.87  C    65.16    493.43     66.42    494.70     67.99    494.70  " /><path style="stroke-width: 1.42 ;&st7;   " d=" M    67.99,   494.70  C    69.55    494.70     70.82    493.43     70.82    491.87  " /><path style="stroke-width: 1.42 ;&st7;   " d=" M    67.99,   466.37  C    64.86    467.51     63.25    470.98     64.39    474.10  " /><path style="stroke-width: 1.42 ;&st7;   " d=" M    64.39,   474.10  C    65.02    475.84     66.25    477.07     67.99    477.71  " /><path style="stroke-width: 1.42 ;&st7;   " d=" M    67.99,   489.04  C    71.12    487.90     72.73    484.44     71.59    481.31  " /><path style="stroke-width: 1.42 ;&st7;   " d=" M    71.59,   481.31  C    70.96    479.57     69.73    478.34     67.99    477.70  " /><text style="&st18;" transform="matrix(&st16;  73.08  476.85 )">FL MAIN <tspan x="0 " dy="6.0">3.0W</tspan></text></g></svg>