<?xml version="1.0" encoding="utf-8"?>
<!DOCTYPE svg PUBLIC "-//W3C//DTD SVG 1.0//EN" "http://www.w3.org/TR/2001/REC-SVG-20010904/DTD/svg10.dtd"[
	<!ENTITY ns_flows "http://ns.adobe.com/Flows/1.0/">
	<!ENTITY ns_svg "http://www.w3.org/2000/svg">
	<!ENTITY ns_xlink "http://www.w3.org/1999/xlink">
	<!ENTITY st0 "font-size:7px;font-family:'NSimSun';adobe-font-script:japanese;">
	<!ENTITY st1 "font-size:6px;font-family:'NSimSun';">
	<!-- White fill  -->
	<!ENTITY st2 "fill:#FFFFFF;stroke:#000000; stroke-width:1.41;stroke-linecap:round;stroke-linejoin:round;">
	<!-- Yellow fill  -->
	<!ENTITY st3 "fill:#FFFFCC;stroke:#FFFFCC; stroke-width:0.1;stroke-linecap:round;stroke-linejoin:round;">
	<!-- Gray fill  -->
	<!ENTITY st4 "fill:#CCCCCC;stroke:#CCCCCC; stroke-width:0.1;stroke-linecap:round;stroke-linejoin:round;">
	<!-- Light-blue fill -->
	<!ENTITY st5 "fill:#CCECF4;stroke:#000000; stroke-width:1.133;stroke-linecap:round;stroke-linejoin:round;">
	<!ENTITY st6 "fill:none;stroke-linecap:butt; stroke-linejoin:round;">
	<!ENTITY st7 "fill:none;stroke:#000000;stroke-linecap:round;stroke-linejoin:round;">
	<!ENTITY st8 "enable-background:new    ;">
	<!-- Black fill -->
	<!ENTITY st9 "fill:#000000;stroke:#000000; stroke-linecap:round;stroke-linejoin:round;">
	<!-- SRS note   -->
	<!ENTITY st10 "font-size:9px;font-family:'NSimSun';">
	<!ENTITY st11 "font-size:9px;font-family:'NSimSun';">
	<!ENTITY st12 "font-size:6px;font-family:'NSimSun';">
	<!ENTITY st13 "fill:none;stroke:#ff0000;stroke-linecap:round;stroke-linejoin:round;">
	<!-- Yellow fill  -->
	<!ENTITY st14 "fill:#FFFF00;stroke:#FFFF00; stroke-width:0.1;stroke-linecap:round;stroke-linejoin:round;">
	<!ENTITY st15 "font-size:6px;font-family:'NSimSun';adobe-font-script:japanese;">
	<!ENTITY st16 "1.00 0.00 0.00 1.00">
	<!ENTITY st17 "0.00 -1.00 1.00 0.00">
	<!ENTITY st18 "font-size:6px;font-family:'NSimSun';">
	<!ENTITY st19 "font-size:9px;font-family:'NSimSun';">
	<!ENTITY st20 "font-size:6px;font-family:'NSimSun';adobe-font-script:japanese;">
	<!ENTITY st21 "font-size:7px;font-family:'NSimSun';adobe-font-script:japanese;">
	<!ATTLIST svg
		xmlns:ewd CDATA #FIXED "http://shcl.co.jp/ewd"
		xmlns:a CDATA #FIXED "http://ns.adobe.com/AdobeSVGViewerExtensions/3.0/"
		ewd:ver CDATA #IMPLIED
	>
	<!ATTLIST a
		ewd:lineID CDATA #IMPLIED
		ewd:groupID CDATA #IMPLIED
		ewd:figtype CDATA #IMPLIED
		ewd:code CDATA #IMPLIED
		ewd:figID CDATA #IMPLIED
		ewd:pinNo CDATA #IMPLIED
		ewd:comment CDATA #IMPLIED >
	<!ATTLIST g
		ewd:lineID CDATA #IMPLIED
		ewd:groupID CDATA #IMPLIED
		ewd:figtype CDATA #IMPLIED
		ewd:code CDATA #IMPLIED
		ewd:figID CDATA #IMPLIED
		ewd:pinNo CDATA #IMPLIED
		ewd:comment CDATA #IMPLIED >
	<!ATTLIST text
		ewd:textID CDATA #IMPLIED
		ewd:horAlign CDATA #IMPLIED >
	<!ATTLIST title
		ewd:textID CDATA #IMPLIED >
]>
<!-- Generator: Shintec Hozumi YS   -->
<svg onload="call_execInitLoadProc_svg('system')" style="overflow:visible;  enable-background:new 0 0 3010.403 710.000" viewBox="0 0 2967.114 710.000" height="710.000" width="2967.114" xml:space="preserve" ewd:ver="2.1.2.6F" xmlns="&ns_svg;" xmlns:ewd="http://shcl.co.jp/ewd" xmlns:a="http://ns.adobe.com/AdobeSVGViewerExtensions/3.0/" xmlns:xlink="&ns_xlink;">
<text style="&st18;" transform="matrix(&st16;  1060.25  592.99 )">L</text><text style="&st18;" transform="matrix(&st16;  1009.26  592.99 )">L</text><text style="&st18;" transform="matrix(&st16;  1058.0  542.0 )">GR</text><text style="&st18;" transform="matrix(&st16;  1007.01  542.0 )">GR</text><text style="&st18;" transform="matrix(&st16;  1060.25  525.0 )">L</text><text style="&st18;" transform="matrix(&st16;  1009.26  525.0 )">L</text><text style="&st18;" transform="matrix(&st16;  1229.33  91.57 )">W</text><text style="&st18;" transform="matrix(&st16;  1230.11  363.53 )">B</text><text style="&st18;" transform="matrix(&st16;  1378.83  363.53 )">B</text><text style="&st18;" transform="matrix(&st16;  1229.33  125.57 )">W</text><g ewd:figtype="rb" ewd:figID="2" ewd:code="FUSE33"><path style="stroke-width: 0.85 ;&st7;   " d=" M  1147.31,   163.26  C  1147.31    162.48   1146.67    161.84   1145.89    161.84  " /><path style="stroke-width: 0.85 ;&st7;   " d=" M  1145.89,   161.84  C  1145.11    161.84   1144.48    162.48   1144.48    163.26  " /><path style="stroke-width: 0.85 ;&st7;   " d=" M  1144.48,   163.26  C  1144.48    164.04   1145.11    164.67   1145.89    164.67  " /><path style="stroke-width: 0.85 ;&st7;   " d=" M  1145.89,   164.67  C  1146.67    164.67   1147.31    164.04   1147.31    163.26  " /><path style="stroke-width: 0.85 ;&st7;   " d=" M  1124.65,   163.26  C  1124.65    162.48   1124.01    161.84   1123.23    161.84  " /><path style="stroke-width: 0.85 ;&st7;   " d=" M  1123.23,   161.84  C  1122.45    161.84   1121.81    162.48   1121.81    163.26  " /><path style="stroke-width: 0.85 ;&st7;   " d=" M  1121.81,   163.26  C  1121.81    164.04   1122.45    164.67   1123.23    164.67  " /><path style="stroke-width: 0.85 ;&st7;   " d=" M  1123.23,   164.67  C  1124.01    164.67   1124.65    164.04   1124.65    163.26  " /><path style="stroke-width: 1.42 ;&st7;   " d=" M  1124.65,   163.26  C  1126.26    166.00   1129.79    166.91   1132.52    165.29  " /><path style="stroke-width: 1.42 ;&st7;   " d=" M  1132.52,   165.29  C  1133.41    164.78   1134.04    164.14   1134.56    163.26  " /><path style="stroke-width: 1.42 ;&st7;   " d=" M  1144.48,   163.26  C  1142.86    160.52   1139.34    159.61   1136.60    161.22  " /><path style="stroke-width: 1.42 ;&st7;   " d=" M  1136.60,   161.22  C  1135.72    161.74   1135.08    162.38   1134.56    163.26  " /><path style="stroke-width: 0.85 ;&st7;  " d=" M  1113.31,   163.26  L  1121.81,   163.26  " /><path style="stroke-width: 1.42 ;&st7;  " d=" M  1113.31,   150.51  L  1113.31,   176.01  L  1155.81,   176.01  L  1155.81,   150.51  L  1113.31,   150.51  " /><path style="stroke-width: 0.85 ;&st7;  " d=" M  1147.31,   163.26  L  1155.81,   163.26  " /></g><g ewd:figtype="rb" ewd:figID="4" ewd:code="FUSE31"><path style="stroke-width: 0.85 ;&st7;  " d=" M  1147.31,   214.25  L  1155.81,   214.25  " /><path style="stroke-width: 0.85 ;&st7;   " d=" M  1124.65,   214.25  C  1124.65    213.47   1124.01    212.83   1123.23    212.83  " /><path style="stroke-width: 0.85 ;&st7;   " d=" M  1123.23,   212.83  C  1122.45    212.83   1121.81    213.47   1121.81    214.25  " /><path style="stroke-width: 0.85 ;&st7;   " d=" M  1121.81,   214.25  C  1121.81    215.03   1122.45    215.67   1123.23    215.67  " /><path style="stroke-width: 0.85 ;&st7;   " d=" M  1123.23,   215.67  C  1124.01    215.67   1124.65    215.03   1124.65    214.25  " /><path style="stroke-width: 0.85 ;&st7;   " d=" M  1147.31,   214.25  C  1147.31    213.47   1146.67    212.83   1145.89    212.83  " /><path style="stroke-width: 0.85 ;&st7;   " d=" M  1145.89,   212.83  C  1145.11    212.83   1144.48    213.47   1144.48    214.25  " /><path style="stroke-width: 0.85 ;&st7;   " d=" M  1144.48,   214.25  C  1144.48    215.03   1145.11    215.67   1145.89    215.67  " /><path style="stroke-width: 0.85 ;&st7;   " d=" M  1145.89,   215.67  C  1146.67    215.67   1147.31    215.03   1147.31    214.25  " /><path style="stroke-width: 1.42 ;&st7;   " d=" M  1144.48,   214.25  C  1142.86    211.51   1139.34    210.60   1136.60    212.21  " /><path style="stroke-width: 1.42 ;&st7;   " d=" M  1136.60,   212.21  C  1135.72    212.73   1135.08    213.37   1134.56    214.25  " /><path style="stroke-width: 1.42 ;&st7;   " d=" M  1124.65,   214.25  C  1126.26    216.99   1129.79    217.90   1132.52    216.29  " /><path style="stroke-width: 1.42 ;&st7;   " d=" M  1132.52,   216.29  C  1133.41    215.77   1134.04    215.13   1134.56    214.25  " /><path style="stroke-width: 0.85 ;&st7;  " d=" M  1113.31,   214.25  L  1121.81,   214.25  " /><path style="stroke-width: 1.42 ;&st7;  " d=" M  1113.31,   201.50  L  1113.31,   227.00  L  1155.81,   227.00  L  1155.81,   201.50  L  1113.31,   201.50  " /></g><g ewd:figtype="rb" ewd:figID="5" ewd:code="FUSE4"><path style="stroke-width: 0.85 ;&st7;  " d=" M  1121.81,   418.22  L  1113.31,   418.22  " /><path style="stroke-width: 1.42 ;&st7;   " d=" M  1144.48,   418.22  C  1142.86    415.48   1139.34    414.57   1136.60    416.18  " /><path style="stroke-width: 1.42 ;&st7;   " d=" M  1136.60,   416.18  C  1135.72    416.70   1135.08    417.33   1134.56    418.22  " /><path style="stroke-width: 1.42 ;&st7;   " d=" M  1124.65,   418.22  C  1126.26    420.95   1129.79    421.87   1132.52    420.25  " /><path style="stroke-width: 1.42 ;&st7;   " d=" M  1132.52,   420.25  C  1133.41    419.73   1134.04    419.10   1134.56    418.22  " /><path style="stroke-width: 0.85 ;&st7;   " d=" M  1147.31,   418.22  C  1147.31    417.43   1146.67    416.80   1145.89    416.80  " /><path style="stroke-width: 0.85 ;&st7;   " d=" M  1145.89,   416.80  C  1145.11    416.80   1144.48    417.43   1144.48    418.22  " /><path style="stroke-width: 0.85 ;&st7;   " d=" M  1144.48,   418.22  C  1144.48    419.00   1145.11    419.63   1145.89    419.63  " /><path style="stroke-width: 0.85 ;&st7;   " d=" M  1145.89,   419.63  C  1146.67    419.63   1147.31    419.00   1147.31    418.22  " /><path style="stroke-width: 0.85 ;&st7;   " d=" M  1124.65,   418.22  C  1124.65    417.43   1124.01    416.80   1123.23    416.80  " /><path style="stroke-width: 0.85 ;&st7;   " d=" M  1123.23,   416.80  C  1122.45    416.80   1121.81    417.43   1121.81    418.22  " /><path style="stroke-width: 0.85 ;&st7;   " d=" M  1121.81,   418.22  C  1121.81    419.00   1122.45    419.63   1123.23    419.63  " /><path style="stroke-width: 0.85 ;&st7;   " d=" M  1123.23,   419.63  C  1124.01    419.63   1124.65    419.00   1124.65    418.22  " /><path style="stroke-width: 0.85 ;&st7;  " d=" M  1155.81,   418.22  L  1147.31,   418.22  " /><path style="stroke-width: 1.42 ;&st7;  " d=" M  1113.31,   405.47  L  1113.31,   430.96  L  1155.81,   430.96  L  1155.81,   405.47  L  1113.31,   405.47  " /></g><g ewd:figtype="rb" ewd:figID="6" ewd:code="FUSE27"><path style="stroke-width: 0.85 ;&st7;  " d=" M  1495.75,   231.25  L  1478.75,   231.25  " /><path style="stroke-width: 0.85 ;&st7;  " d=" M  1436.26,   180.26  L  1419.26,   180.26  " /><path style="stroke-width: 0.85 ;&st7;  " d=" M  1418.07,   179.25  L  1417.80,   179.72  L  1417.70,   180.26  L  1417.80,   180.79  L  1418.07,   181.26  L  1418.48,   181.60  L  1418.99,   181.79  L  1419.53,   181.79  L  1420.04,   181.60  L  1420.45,   181.26  L  1420.73,   180.79  L  1420.82,   180.26  L  1420.73,   179.72  L  1420.45,   179.25  L  1420.04,   178.91  L  1419.53,   178.72  L  1418.99,   178.72  L  1418.48,   178.91  L  1418.07,   179.25  L  1418.46,   179.96  L  1418.46,   180.55  L  1418.84,   180.99  L  1419.41,   181.09  L  1419.91,   180.80  L  1420.11,   180.26  L  1419.91,   179.71  L  1419.41,   179.42  L  1418.84,   179.52  L  1419.26,   180.26  " /><path style="stroke-width: 0.85 ;&st7;  " d=" M  1419.26,   129.26  L  1419.26,   231.25  L  1436.26,   231.25  " /><path style="stroke-width: 0.85 ;&st7;  " d=" M  1495.75,   180.26  L  1478.75,   180.26  " /><path style="stroke-width: 0.85 ;&st7;  " d=" M  1495.75,   129.26  L  1478.75,   129.26  " /><path style="stroke-width: 0.85 ;&st7;  " d=" M  1436.26,   129.26  L  1398.02,   129.26  " /><path style="stroke-width: 0.85 ;&st7;  " d=" M  1418.07,   128.26  L  1417.80,   128.73  L  1417.70,   129.26  L  1417.80,   129.80  L  1418.07,   130.27  L  1418.48,   130.61  L  1418.99,   130.80  L  1419.53,   130.80  L  1420.04,   130.61  L  1420.45,   130.27  L  1420.73,   129.80  L  1420.82,   129.26  L  1420.73,   128.73  L  1420.45,   128.26  L  1420.04,   127.92  L  1419.53,   127.73  L  1418.99,   127.73  L  1418.48,   127.92  L  1418.07,   128.26  L  1418.46,   128.97  L  1418.46,   129.56  L  1418.84,   130.00  L  1419.41,   130.10  L  1419.91,   129.81  L  1420.11,   129.26  L  1419.91,   128.72  L  1419.41,   128.43  L  1418.84,   128.53  L  1419.26,   129.26  " /><path style="stroke-width: 0.28 ;&st9;  " d=" M  1402.91,   129.26  L  1405.74,   126.43  L  1401.49,   126.43  L  1398.66,   129.26  L  1401.49,   132.10  L  1405.74,   132.10  L  1402.91,   129.26  " /><text style="&st18;" transform="matrix(&st16;  1430.08  125.57 )">1</text><text style="&st18;" transform="matrix(&st16;  1430.5  111.4 )">30A PTC HTR NO.1</text><text style="&st18;" transform="matrix(&st16;  1481.34  125.57 )">2</text><text style="&st18;" transform="matrix(&st16;  1481.34  176.56 )">2</text><text style="&st18;" transform="matrix(&st16;  1430.5  162.39 )">30A PTC HTR NO.2</text><text style="&st18;" transform="matrix(&st16;  1430.08  176.57 )">1</text><text style="&st18;" transform="matrix(&st16;  1430.5  213.67 )">30A PTC HTR NO.3</text><text style="&st18;" transform="matrix(&st16;  1481.34  227.56 )">2</text><text style="&st18;" transform="matrix(&st16;  1430.08  227.56 )">1</text><path style="stroke-width: 0.85 ;&st7;  " d=" M  1470.25,   231.25  L  1478.75,   231.25  " /><path style="stroke-width: 0.85 ;&st7;   " d=" M  1447.59,   231.25  C  1447.59    230.46   1446.96    229.83   1446.18    229.83  " /><path style="stroke-width: 0.85 ;&st7;   " d=" M  1446.18,   229.83  C  1445.39    229.83   1444.76    230.46   1444.76    231.25  " /><path style="stroke-width: 0.85 ;&st7;   " d=" M  1444.76,   231.25  C  1444.76    232.03   1445.39    232.66   1446.18    232.66  " /><path style="stroke-width: 0.85 ;&st7;   " d=" M  1446.18,   232.66  C  1446.96    232.66   1447.59    232.03   1447.59    231.25  " /><path style="stroke-width: 0.85 ;&st7;   " d=" M  1470.25,   231.25  C  1470.25    230.46   1469.62    229.83   1468.84    229.83  " /><path style="stroke-width: 0.85 ;&st7;   " d=" M  1468.84,   229.83  C  1468.06    229.83   1467.42    230.46   1467.42    231.25  " /><path style="stroke-width: 0.85 ;&st7;   " d=" M  1467.42,   231.25  C  1467.42    232.03   1468.06    232.66   1468.84    232.66  " /><path style="stroke-width: 0.85 ;&st7;   " d=" M  1468.84,   232.66  C  1469.62    232.66   1470.25    232.03   1470.25    231.25  " /><path style="stroke-width: 1.42 ;&st7;   " d=" M  1447.59,   231.25  C  1449.20    233.98   1452.73    234.90   1455.47    233.28  " /><path style="stroke-width: 1.42 ;&st7;   " d=" M  1455.47,   233.28  C  1456.35    232.76   1456.99    232.13   1457.51    231.25  " /><path style="stroke-width: 1.42 ;&st7;   " d=" M  1467.42,   231.25  C  1465.81    228.51   1462.28    227.60   1459.54    229.21  " /><path style="stroke-width: 1.42 ;&st7;   " d=" M  1459.54,   229.21  C  1458.66    229.73   1458.03    230.36   1457.51    231.25  " /><path style="stroke-width: 1.42 ;&st7;  " d=" M  1436.26,   218.50  L  1436.26,   243.99  L  1478.75,   243.99  L  1478.75,   218.50  L  1436.26,   218.50  " /><path style="stroke-width: 0.85 ;&st7;  " d=" M  1436.26,   231.25  L  1444.76,   231.25  " /></g><g ewd:figtype="rb" ewd:figID="13" ewd:code="FUSE16"><path style="stroke-width: 0.85 ;&st7;  " d=" M  1121.81,   469.21  L  1113.31,   469.21  " /><path style="stroke-width: 1.42 ;&st7;   " d=" M  1144.48,   469.21  C  1142.86    466.47   1139.34    465.56   1136.60    467.17  " /><path style="stroke-width: 1.42 ;&st7;   " d=" M  1136.60,   467.17  C  1135.72    467.69   1135.08    468.32   1134.56    469.21  " /><path style="stroke-width: 1.42 ;&st7;   " d=" M  1124.65,   469.21  C  1126.26    471.94   1129.79    472.86   1132.52    471.24  " /><path style="stroke-width: 1.42 ;&st7;   " d=" M  1132.52,   471.24  C  1133.41    470.72   1134.04    470.09   1134.56    469.21  " /><path style="stroke-width: 0.85 ;&st7;   " d=" M  1147.31,   469.21  C  1147.31    468.42   1146.67    467.79   1145.89    467.79  " /><path style="stroke-width: 0.85 ;&st7;   " d=" M  1145.89,   467.79  C  1145.11    467.79   1144.48    468.42   1144.48    469.21  " /><path style="stroke-width: 0.85 ;&st7;   " d=" M  1144.48,   469.21  C  1144.48    469.99   1145.11    470.62   1145.89    470.62  " /><path style="stroke-width: 0.85 ;&st7;   " d=" M  1145.89,   470.62  C  1146.67    470.62   1147.31    469.99   1147.31    469.21  " /><path style="stroke-width: 0.85 ;&st7;   " d=" M  1124.65,   469.21  C  1124.65    468.42   1124.01    467.79   1123.23    467.79  " /><path style="stroke-width: 0.85 ;&st7;   " d=" M  1123.23,   467.79  C  1122.45    467.79   1121.81    468.42   1121.81    469.21  " /><path style="stroke-width: 0.85 ;&st7;   " d=" M  1121.81,   469.21  C  1121.81    469.99   1122.45    470.62   1123.23    470.62  " /><path style="stroke-width: 0.85 ;&st7;   " d=" M  1123.23,   470.62  C  1124.01    470.62   1124.65    469.99   1124.65    469.21  " /><path style="stroke-width: 0.85 ;&st7;  " d=" M  1155.81,   469.21  L  1147.31,   469.21  " /><path style="stroke-width: 1.42 ;&st7;  " d=" M  1113.31,   456.46  L  1113.31,   481.95  L  1155.81,   481.95  L  1155.81,   456.46  L  1113.31,   456.46  " /></g><g ewd:figtype="rb" ewd:figID="14" ewd:code="FUSE23"><path style="stroke-width: 0.85 ;&st7;  " d=" M  1121.81,   316.23  L  1113.31,   316.23  " /><path style="stroke-width: 1.42 ;&st7;   " d=" M  1144.48,   316.23  C  1142.86    313.49   1139.34    312.58   1136.60    314.20  " /><path style="stroke-width: 1.42 ;&st7;   " d=" M  1136.60,   314.20  C  1135.72    314.72   1135.08    315.35   1134.56    316.23  " /><path style="stroke-width: 1.42 ;&st7;   " d=" M  1124.65,   316.23  C  1126.26    318.97   1129.79    319.88   1132.52    318.27  " /><path style="stroke-width: 1.42 ;&st7;   " d=" M  1132.52,   318.27  C  1133.41    317.75   1134.04    317.11   1134.56    316.23  " /><path style="stroke-width: 0.85 ;&st7;   " d=" M  1147.31,   316.23  C  1147.31    315.45   1146.67    314.82   1145.89    314.82  " /><path style="stroke-width: 0.85 ;&st7;   " d=" M  1145.89,   314.82  C  1145.11    314.82   1144.48    315.45   1144.48    316.23  " /><path style="stroke-width: 0.85 ;&st7;   " d=" M  1144.48,   316.23  C  1144.48    317.01   1145.11    317.65   1145.89    317.65  " /><path style="stroke-width: 0.85 ;&st7;   " d=" M  1145.89,   317.65  C  1146.67    317.65   1147.31    317.01   1147.31    316.23  " /><path style="stroke-width: 0.85 ;&st7;   " d=" M  1124.65,   316.23  C  1124.65    315.45   1124.01    314.82   1123.23    314.82  " /><path style="stroke-width: 0.85 ;&st7;   " d=" M  1123.23,   314.82  C  1122.45    314.82   1121.81    315.45   1121.81    316.23  " /><path style="stroke-width: 0.85 ;&st7;   " d=" M  1121.81,   316.23  C  1121.81    317.01   1122.45    317.65   1123.23    317.65  " /><path style="stroke-width: 0.85 ;&st7;   " d=" M  1123.23,   317.65  C  1124.01    317.65   1124.65    317.01   1124.65    316.23  " /><path style="stroke-width: 0.85 ;&st7;  " d=" M  1155.81,   316.23  L  1147.31,   316.23  " /><path style="stroke-width: 1.42 ;&st7;  " d=" M  1113.31,   303.48  L  1113.31,   328.98  L  1155.81,   328.98  L  1155.81,   303.48  L  1113.31,   303.48  " /></g><g ewd:figtype="rb" ewd:figID="15" ewd:code="FUSE30"><path style="stroke-width: 0.85 ;&st7;  " d=" M  1147.31,   265.24  L  1155.81,   265.24  " /><path style="stroke-width: 0.85 ;&st7;   " d=" M  1124.65,   265.24  C  1124.65    264.46   1124.01    263.82   1123.23    263.82  " /><path style="stroke-width: 0.85 ;&st7;   " d=" M  1123.23,   263.82  C  1122.45    263.82   1121.81    264.46   1121.81    265.24  " /><path style="stroke-width: 0.85 ;&st7;   " d=" M  1121.81,   265.24  C  1121.81    266.02   1122.45    266.66   1123.23    266.66  " /><path style="stroke-width: 0.85 ;&st7;   " d=" M  1123.23,   266.66  C  1124.01    266.66   1124.65    266.02   1124.65    265.24  " /><path style="stroke-width: 0.85 ;&st7;   " d=" M  1147.31,   265.24  C  1147.31    264.46   1146.67    263.82   1145.89    263.82  " /><path style="stroke-width: 0.85 ;&st7;   " d=" M  1145.89,   263.82  C  1145.11    263.82   1144.48    264.46   1144.48    265.24  " /><path style="stroke-width: 0.85 ;&st7;   " d=" M  1144.48,   265.24  C  1144.48    266.02   1145.11    266.66   1145.89    266.66  " /><path style="stroke-width: 0.85 ;&st7;   " d=" M  1145.89,   266.66  C  1146.67    266.66   1147.31    266.02   1147.31    265.24  " /><path style="stroke-width: 1.42 ;&st7;   " d=" M  1124.65,   265.24  C  1126.26    267.98   1129.79    268.89   1132.52    267.28  " /><path style="stroke-width: 1.42 ;&st7;   " d=" M  1132.52,   267.28  C  1133.41    266.76   1134.04    266.12   1134.56    265.24  " /><path style="stroke-width: 1.42 ;&st7;   " d=" M  1144.48,   265.24  C  1142.86    262.50   1139.34    261.59   1136.60    263.20  " /><path style="stroke-width: 1.42 ;&st7;   " d=" M  1136.60,   263.20  C  1135.72    263.72   1135.08    264.36   1134.56    265.24  " /><path style="stroke-width: 1.42 ;&st7;  " d=" M  1113.31,   252.49  L  1113.31,   277.99  L  1155.81,   277.99  L  1155.81,   252.49  L  1113.31,   252.49  " /><path style="stroke-width: 0.85 ;&st7;  " d=" M  1113.31,   265.24  L  1121.81,   265.24  " /></g><g ewd:figtype="rb" ewd:figID="34" ewd:code="FUSE32"><path style="stroke-width: 0.85 ;&st7;  " d=" M  1147.31,   367.22  L  1155.81,   367.22  " /><path style="stroke-width: 0.85 ;&st7;   " d=" M  1147.31,   367.22  C  1147.31    366.44   1146.67    365.81   1145.89    365.81  " /><path style="stroke-width: 0.85 ;&st7;   " d=" M  1145.89,   365.81  C  1145.11    365.81   1144.48    366.44   1144.48    367.22  " /><path style="stroke-width: 0.85 ;&st7;   " d=" M  1144.48,   367.22  C  1144.48    368.01   1145.11    368.64   1145.89    368.64  " /><path style="stroke-width: 0.85 ;&st7;   " d=" M  1145.89,   368.64  C  1146.67    368.64   1147.31    368.01   1147.31    367.22  " /><path style="stroke-width: 0.85 ;&st7;   " d=" M  1124.65,   367.22  C  1124.65    366.44   1124.01    365.81   1123.23    365.81  " /><path style="stroke-width: 0.85 ;&st7;   " d=" M  1123.23,   365.81  C  1122.45    365.81   1121.81    366.44   1121.81    367.22  " /><path style="stroke-width: 0.85 ;&st7;   " d=" M  1121.81,   367.22  C  1121.81    368.01   1122.45    368.64   1123.23    368.64  " /><path style="stroke-width: 0.85 ;&st7;   " d=" M  1123.23,   368.64  C  1124.01    368.64   1124.65    368.01   1124.65    367.22  " /><path style="stroke-width: 1.42 ;&st7;   " d=" M  1144.48,   367.22  C  1142.86    364.49   1139.34    363.57   1136.60    365.19  " /><path style="stroke-width: 1.42 ;&st7;   " d=" M  1136.60,   365.19  C  1135.72    365.71   1135.08    366.34   1134.56    367.22  " /><path style="stroke-width: 1.42 ;&st7;   " d=" M  1124.65,   367.22  C  1126.26    369.96   1129.79    370.87   1132.52    369.26  " /><path style="stroke-width: 1.42 ;&st7;   " d=" M  1132.52,   369.26  C  1133.41    368.74   1134.04    368.11   1134.56    367.22  " /><path style="stroke-width: 0.85 ;&st7;  " d=" M  1113.31,   367.22  L  1121.81,   367.22  " /><path style="stroke-width: 1.42 ;&st7;  " d=" M  1113.31,   354.48  L  1113.31,   379.97  L  1155.81,   379.97  L  1155.81,   354.48  L  1113.31,   354.48  " /></g><g ewd:figtype="rb" ewd:figID="37" ewd:code="1"><path style="stroke-width: 1.42 ;&st7;  " d=" M  1355.52,   371.47  L  1351.27,   371.47  " /><path style="stroke-width: 1.42 ;&st7;  " d=" M  1262.04,   362.97  L  1266.29,   362.97  " /><path style="stroke-width: 1.42 ;&st7;  " d=" M  1266.29,   371.47  L  1262.04,   371.47  " /><path style="stroke-width: 1.42 ;&st7;  " d=" M  1355.52,   362.97  L  1351.27,   362.97  " /><path style="stroke-width: 1.42 ;&st7;   " d=" M  1274.93,   385.24  C  1273.02    387.38   1272.97    390.51   1274.79    392.72  " /><path style="stroke-width: 1.42 ;&st7;   " d=" M  1274.65,   400.20  C  1276.55    398.06   1276.61    394.93   1274.79    392.72  " /><path style="stroke-width: 1.42 ;&st7;   " d=" M  1342.92,   385.24  C  1341.01    387.38   1340.95    390.51   1342.78    392.72  " /><path style="stroke-width: 1.42 ;&st7;   " d=" M  1342.63,   400.20  C  1344.54    398.06   1344.60    394.93   1342.78    392.72  " /><path style="stroke-width: 1.42 ;&st7;   " d=" M  1257.79,   367.22  C  1257.79    369.57   1259.69    371.47   1262.04    371.47  " /><path style="stroke-width: 1.42 ;&st7;   " d=" M  1355.52,   371.47  C  1357.87    371.47   1359.77    369.57   1359.77    367.22  " /><path style="stroke-width: 1.42 ;&st7;   " d=" M  1291.93,   334.24  C  1290.02    336.38   1289.96    339.52   1291.78    341.73  " /><path style="stroke-width: 1.42 ;&st7;   " d=" M  1347.02,   367.22  C  1347.02    369.57   1348.93    371.47   1351.27    371.47  " /><path style="stroke-width: 1.42 ;&st7;   " d=" M  1351.27,   362.97  C  1348.93    362.97   1347.02    364.88   1347.02    367.22  " /><path style="stroke-width: 1.42 ;&st7;   " d=" M  1262.04,   362.97  C  1259.69    362.97   1257.79    364.88   1257.79    367.22  " /><path style="stroke-width: 1.42 ;&st7;   " d=" M  1266.29,   371.47  C  1268.64    371.47   1270.54    369.57   1270.54    367.22  " /><path style="stroke-width: 1.42 ;&st7;   " d=" M  1270.54,   367.22  C  1270.54    364.88   1268.64    362.97   1266.29    362.97  " /><path style="stroke-width: 1.42 ;&st7;   " d=" M  1291.64,   349.21  C  1293.55    347.07   1293.61    343.94   1291.78    341.73  " /><path style="stroke-width: 1.42 ;&st7;   " d=" M  1359.77,   367.22  C  1359.77    364.88   1357.87    362.97   1355.52    362.97  " /><path style="stroke-width: 0.85 ;&st7;  " d=" M  1291.78,   367.22  L  1270.54,   367.22  " /><path style="stroke-width: 0.85 ;&st7;  " d=" M  1308.78,   358.73  L  1308.78,   341.73  L  1291.78,   341.73  " /><path style="stroke-width: 0.85 ;&st7;  " d=" M  1291.78,   392.72  L  1274.79,   392.72  " /><path style="stroke-width: 0.85 ;&st7;  " d=" M  1325.78,   392.72  L  1342.78,   392.72  " /><path style="stroke-width: 0.28 ;&st9;  " d=" M  1275.43,   367.22  L  1278.27,   364.39  L  1274.02,   364.39  L  1271.18,   367.22  L  1274.02,   370.06  L  1278.27,   370.06  L  1275.43,   367.22  " /><path style="stroke-width: 0.28 ;&st9;  " d=" M  1342.13,   367.22  L  1339.30,   364.39  L  1343.55,   364.39  L  1346.38,   367.22  L  1343.55,   370.06  L  1339.30,   370.06  L  1342.13,   367.22  " /><path style="stroke-width: 0.85 ;&st7;  " d=" M  1325.78,   367.22  L  1347.02,   367.22  " /><text style="&st1;" transform="matrix(&st16;  1294.81  408.85 )" ewd:textID="8">DEF 继电器</text><text style="&st18;" transform="matrix(&st16;  1262.36  369.19 )">1</text><text style="&st18;" transform="matrix(&st16;  1351.6  369.19 )">1</text><text style="&st18;" transform="matrix(&st16;  1302.6  355.04 )">4</text><text style="&st18;" transform="matrix(&st16;  1285.6  363.53 )">5</text><text style="&st18;" transform="matrix(&st16;  1285.6  389.03 )">1</text><text style="&st18;" transform="matrix(&st16;  1328.36  363.53 )">3</text><text style="&st18;" transform="matrix(&st16;  1328.36  389.03 )">2</text><path style="stroke-width: 0.85 ;&st7;  " d=" M  1291.78,   392.72  L  1300.28,   392.72  " /><path style="stroke-width: 0.85 ;&st7;  " d=" M  1317.28,   392.72  L  1325.78,   392.72  " /><path style="stroke-width: 1.42 ;&st7;  " d=" M  1318.70,   367.22  L  1296.03,   361.56  " /><path style="stroke-width: 0.85 ;&st7;  " d=" M  1321.53,   367.22  L  1325.78,   367.22  " /><path style="stroke-width: 0.85 ;&st7;  " d=" M  1308.78,   358.73  L  1308.78,   361.56  " /><path style="stroke-width: 0.85 ;&st7;  " d=" M  1291.78,   367.22  L  1296.03,   367.22  " /><path style="stroke-width: 0.85 ;&st7;   " d=" M  1306.30,   395.25  C  1307.70    393.88   1307.72    391.64   1306.35    390.24  " /><path style="stroke-width: 0.85 ;&st7;   " d=" M  1306.35,   390.24  C  1304.98    388.84   1302.74    388.82   1301.35    390.19  " /><path style="stroke-width: 0.85 ;&st7;   " d=" M  1301.35,   390.19  C  1300.64    390.88   1300.28    391.73   1300.28    392.72  " /><path style="stroke-width: 0.85 ;&st7;   " d=" M  1311.26,   395.25  C  1312.66    393.88   1312.68    391.64   1311.31    390.24  " /><path style="stroke-width: 0.85 ;&st7;   " d=" M  1311.31,   390.24  C  1309.94    388.84   1307.70    388.82   1306.30    390.19  " /><path style="stroke-width: 0.85 ;&st7;   " d=" M  1306.30,   390.19  C  1304.91    391.56   1304.88    393.80   1306.25    395.20  " /><path style="stroke-width: 0.85 ;&st7;   " d=" M  1306.25,   395.20  C  1306.27    395.22   1306.28    395.23   1306.30    395.25  " /><path style="stroke-width: 0.85 ;&st7;   " d=" M  1317.28,   392.72  C  1317.28    390.76   1315.69    389.18   1313.74    389.18  " /><path style="stroke-width: 0.85 ;&st7;   " d=" M  1313.74,   389.18  C  1311.78    389.18   1310.20    390.76   1310.20    392.72  " /><path style="stroke-width: 0.85 ;&st7;   " d=" M  1310.20,   392.72  C  1310.20    393.71   1310.55    394.56   1311.26    395.25  " /><path style="stroke-width: 0.85 ;&st7;   " d=" M  1310.20,   362.97  C  1310.20    362.19   1309.56    361.56   1308.78    361.56  " /><path style="stroke-width: 0.85 ;&st7;   " d=" M  1308.78,   361.56  C  1308.00    361.56   1307.36    362.19   1307.36    362.97  " /><path style="stroke-width: 0.85 ;&st7;   " d=" M  1307.36,   362.97  C  1307.36    363.76   1308.00    364.39   1308.78    364.39  " /><path style="stroke-width: 0.85 ;&st7;   " d=" M  1308.78,   364.39  C  1309.56    364.39   1310.20    363.76   1310.20    362.97  " /><path style="stroke-width: 0.85 ;&st7;   " d=" M  1321.53,   367.22  C  1321.53    366.44   1320.90    365.81   1320.11    365.81  " /><path style="stroke-width: 0.85 ;&st7;   " d=" M  1320.11,   365.81  C  1319.33    365.81   1318.70    366.44   1318.70    367.22  " /><path style="stroke-width: 0.85 ;&st7;   " d=" M  1318.70,   367.22  C  1318.70    368.01   1319.33    368.64   1320.11    368.64  " /><path style="stroke-width: 0.85 ;&st7;   " d=" M  1320.11,   368.64  C  1320.90    368.64   1321.53    368.01   1321.53    367.22  " /><path style="stroke-width: 0.85 ;&st7;   " d=" M  1298.87,   367.22  C  1298.87    366.44   1298.23    365.81   1297.45    365.81  " /><path style="stroke-width: 0.85 ;&st7;   " d=" M  1297.45,   365.81  C  1296.67    365.81   1296.03    366.44   1296.03    367.22  " /><path style="stroke-width: 0.85 ;&st7;   " d=" M  1296.03,   367.22  C  1296.03    368.01   1296.67    368.64   1297.45    368.64  " /><path style="stroke-width: 0.85 ;&st7;   " d=" M  1297.45,   368.64  C  1298.23    368.64   1298.87    368.01   1298.87    367.22  " /><path style="stroke-width: 1.42 ;&st7;  " d=" M  1291.78,   358.73  L  1291.78,   401.22  L  1325.78,   401.22  L  1325.78,   358.73  L  1291.78,   358.73  " /></g><g ewd:figtype="rb" ewd:figID="39" ewd:code="FUSE15"><path style="stroke-width: 1.42 ;&st7;  " d=" M  1410.76,   371.47  L  1406.51,   371.47  " /><path style="stroke-width: 1.42 ;&st7;  " d=" M  1406.51,   362.97  L  1410.76,   362.97  " /><path style="stroke-width: 1.42 ;&st7;   " d=" M  1415.01,   367.22  C  1415.01    364.88   1413.11    362.97   1410.76    362.97  " /><path style="stroke-width: 1.42 ;&st7;   " d=" M  1410.76,   371.47  C  1413.11    371.47   1415.01    369.57   1415.01    367.22  " /><path style="stroke-width: 1.42 ;&st7;   " d=" M  1402.27,   367.22  C  1402.27    369.57   1404.17    371.47   1406.51    371.47  " /><path style="stroke-width: 1.42 ;&st7;   " d=" M  1406.51,   362.97  C  1404.17    362.97   1402.27    364.88   1402.27    367.22  " /><path style="stroke-width: 0.85 ;&st7;  " d=" M  1495.75,   367.22  L  1478.75,   367.22  " /><path style="stroke-width: 0.85 ;&st7;  " d=" M  1415.01,   367.22  L  1436.26,   367.22  " /><path style="stroke-width: 0.28 ;&st9;  " d=" M  1419.91,   367.22  L  1422.74,   364.39  L  1418.49,   364.39  L  1415.66,   367.22  L  1418.49,   370.06  L  1422.74,   370.06  L  1419.91,   367.22  " /><text style="&st18;" transform="matrix(&st16;  1438.96  349.36 )">10A MIR HTR</text><text style="&st18;" transform="matrix(&st16;  1481.34  363.53 )">2</text><text style="&st18;" transform="matrix(&st16;  1430.08  363.53 )">1</text><text style="&st18;" transform="matrix(&st16;  1406.84  369.19 )">1</text><path style="stroke-width: 0.85 ;&st7;  " d=" M  1444.76,   367.22  L  1436.26,   367.22  " /><path style="stroke-width: 0.85 ;&st7;   " d=" M  1447.59,   367.22  C  1447.59    366.44   1446.96    365.81   1446.18    365.81  " /><path style="stroke-width: 0.85 ;&st7;   " d=" M  1446.18,   365.81  C  1445.39    365.81   1444.76    366.44   1444.76    367.22  " /><path style="stroke-width: 0.85 ;&st7;   " d=" M  1444.76,   367.22  C  1444.76    368.01   1445.39    368.64   1446.18    368.64  " /><path style="stroke-width: 0.85 ;&st7;   " d=" M  1446.18,   368.64  C  1446.96    368.64   1447.59    368.01   1447.59    367.22  " /><path style="stroke-width: 0.85 ;&st7;   " d=" M  1470.25,   367.22  C  1470.25    366.44   1469.62    365.81   1468.84    365.81  " /><path style="stroke-width: 0.85 ;&st7;   " d=" M  1468.84,   365.81  C  1468.06    365.81   1467.42    366.44   1467.42    367.22  " /><path style="stroke-width: 0.85 ;&st7;   " d=" M  1467.42,   367.22  C  1467.42    368.01   1468.06    368.64   1468.84    368.64  " /><path style="stroke-width: 0.85 ;&st7;   " d=" M  1468.84,   368.64  C  1469.62    368.64   1470.25    368.01   1470.25    367.22  " /><path style="stroke-width: 1.42 ;&st7;   " d=" M  1447.59,   367.22  C  1449.20    369.96   1452.73    370.87   1455.47    369.26  " /><path style="stroke-width: 1.42 ;&st7;   " d=" M  1455.47,   369.26  C  1456.35    368.74   1456.99    368.11   1457.51    367.22  " /><path style="stroke-width: 1.42 ;&st7;   " d=" M  1467.42,   367.22  C  1465.81    364.49   1462.28    363.57   1459.54    365.19  " /><path style="stroke-width: 1.42 ;&st7;   " d=" M  1459.54,   365.19  C  1458.66    365.71   1458.03    366.34   1457.51    367.22  " /><path style="stroke-width: 1.42 ;&st7;  " d=" M  1436.26,   354.48  L  1436.26,   379.97  L  1478.75,   379.97  L  1478.75,   354.48  L  1436.26,   354.48  " /><path style="stroke-width: 0.85 ;&st7;  " d=" M  1478.75,   367.22  L  1470.25,   367.22  " /></g><g ewd:figtype="rb" ewd:figID="40" ewd:code="FUSE26"><path style="stroke-width: 0.85 ;&st7;  " d=" M  1470.25,   180.26  L  1478.75,   180.26  " /><path style="stroke-width: 0.85 ;&st7;   " d=" M  1447.59,   180.26  C  1447.59    179.47   1446.96    178.84   1446.18    178.84  " /><path style="stroke-width: 0.85 ;&st7;   " d=" M  1446.18,   178.84  C  1445.39    178.84   1444.76    179.47   1444.76    180.26  " /><path style="stroke-width: 0.85 ;&st7;   " d=" M  1444.76,   180.26  C  1444.76    181.04   1445.39    181.67   1446.18    181.67  " /><path style="stroke-width: 0.85 ;&st7;   " d=" M  1446.18,   181.67  C  1446.96    181.67   1447.59    181.04   1447.59    180.26  " /><path style="stroke-width: 0.85 ;&st7;   " d=" M  1470.25,   180.26  C  1470.25    179.47   1469.62    178.84   1468.84    178.84  " /><path style="stroke-width: 0.85 ;&st7;   " d=" M  1468.84,   178.84  C  1468.06    178.84   1467.42    179.47   1467.42    180.26  " /><path style="stroke-width: 0.85 ;&st7;   " d=" M  1467.42,   180.26  C  1467.42    181.04   1468.06    181.67   1468.84    181.67  " /><path style="stroke-width: 0.85 ;&st7;   " d=" M  1468.84,   181.67  C  1469.62    181.67   1470.25    181.04   1470.25    180.26  " /><path style="stroke-width: 1.42 ;&st7;   " d=" M  1467.42,   180.26  C  1465.81    177.52   1462.28    176.61   1459.54    178.22  " /><path style="stroke-width: 1.42 ;&st7;   " d=" M  1459.54,   178.22  C  1458.66    178.74   1458.03    179.37   1457.51    180.26  " /><path style="stroke-width: 1.42 ;&st7;   " d=" M  1447.59,   180.26  C  1449.20    182.99   1452.73    183.91   1455.47    182.29  " /><path style="stroke-width: 1.42 ;&st7;   " d=" M  1455.47,   182.29  C  1456.35    181.77   1456.99    181.14   1457.51    180.26  " /><path style="stroke-width: 0.85 ;&st7;  " d=" M  1436.26,   180.26  L  1444.76,   180.26  " /><path style="stroke-width: 1.42 ;&st7;  " d=" M  1436.26,   167.51  L  1436.26,   193.00  L  1478.75,   193.00  L  1478.75,   167.51  L  1436.26,   167.51  " /></g><g ewd:figtype="rb" ewd:figID="41" ewd:code="FUSE25"><path style="stroke-width: 0.85 ;&st7;  " d=" M  1470.25,   129.26  L  1478.75,   129.26  " /><path style="stroke-width: 0.85 ;&st7;   " d=" M  1470.25,   129.26  C  1470.25    128.48   1469.62    127.85   1468.84    127.85  " /><path style="stroke-width: 0.85 ;&st7;   " d=" M  1468.84,   127.85  C  1468.06    127.85   1467.42    128.48   1467.42    129.26  " /><path style="stroke-width: 0.85 ;&st7;   " d=" M  1467.42,   129.26  C  1467.42    130.05   1468.06    130.68   1468.84    130.68  " /><path style="stroke-width: 0.85 ;&st7;   " d=" M  1468.84,   130.68  C  1469.62    130.68   1470.25    130.05   1470.25    129.26  " /><path style="stroke-width: 0.85 ;&st7;   " d=" M  1447.59,   129.26  C  1447.59    128.48   1446.96    127.85   1446.18    127.85  " /><path style="stroke-width: 0.85 ;&st7;   " d=" M  1446.18,   127.85  C  1445.39    127.85   1444.76    128.48   1444.76    129.26  " /><path style="stroke-width: 0.85 ;&st7;   " d=" M  1444.76,   129.26  C  1444.76    130.05   1445.39    130.68   1446.18    130.68  " /><path style="stroke-width: 0.85 ;&st7;   " d=" M  1446.18,   130.68  C  1446.96    130.68   1447.59    130.05   1447.59    129.26  " /><path style="stroke-width: 1.42 ;&st7;   " d=" M  1447.59,   129.26  C  1449.20    132.00   1452.73    132.91   1455.47    131.30  " /><path style="stroke-width: 1.42 ;&st7;   " d=" M  1455.47,   131.30  C  1456.35    130.78   1456.99    130.15   1457.51    129.26  " /><path style="stroke-width: 1.42 ;&st7;   " d=" M  1467.42,   129.26  C  1465.81    126.53   1462.28    125.61   1459.54    127.23  " /><path style="stroke-width: 1.42 ;&st7;   " d=" M  1459.54,   127.23  C  1458.66    127.75   1458.03    128.38   1457.51    129.26  " /><path style="stroke-width: 0.85 ;&st7;  " d=" M  1436.26,   129.26  L  1444.76,   129.26  " /><path style="stroke-width: 1.42 ;&st7;  " d=" M  1436.26,   116.52  L  1436.26,   142.01  L  1478.75,   142.01  L  1478.75,   116.52  L  1436.26,   116.52  " /></g><g ewd:figtype="jb" ewd:figID="58" ewd:code="1"><path style="stroke-width: 1.42 ;&st7;  " d=" M  1389.52,   125.01  L  1393.77,   125.01  " /><path style="stroke-width: 1.42 ;&st7;  " d=" M  1393.77,   133.51  L  1389.52,   133.51  " /><path style="stroke-width: 1.42 ;&st7;   " d=" M  1389.52,   125.01  C  1387.17    125.01   1385.27    126.92   1385.27    129.26  " /><path style="stroke-width: 1.42 ;&st7;   " d=" M  1385.27,   129.26  C  1385.27    131.61   1387.17    133.51   1389.52    133.51  " /><path style="stroke-width: 1.42 ;&st7;   " d=" M  1393.77,   133.51  C  1396.11    133.51   1398.02    131.61   1398.02    129.26  " /><path style="stroke-width: 1.42 ;&st7;   " d=" M  1398.02,   129.26  C  1398.02    126.92   1396.11    125.01   1393.77    125.01  " /><text style="&st18;" transform="matrix(&st16;  1387.71  131.23 )">1D</text><text style="&st18;" transform="matrix(&st16;  1389.84  122.03 )">1</text></g><g ewd:figtype="jb" ewd:figID="59" ewd:code="1"><path style="stroke-width: 1.42 ;&st7;  " d=" M  1194.05,   125.01  L  1189.80,   125.01  " /><path style="stroke-width: 1.42 ;&st7;  " d=" M  1194.05,   133.51  L  1189.80,   133.51  " /><path style="stroke-width: 1.42 ;&st7;   " d=" M  1189.80,   125.01  C  1187.45    125.01   1185.55    126.92   1185.55    129.26  " /><path style="stroke-width: 1.42 ;&st7;   " d=" M  1185.55,   129.26  C  1185.55    131.61   1187.45    133.51   1189.80    133.51  " /><path style="stroke-width: 1.42 ;&st7;   " d=" M  1194.05,   133.51  C  1196.40    133.51   1198.30    131.61   1198.30    129.26  " /><path style="stroke-width: 1.42 ;&st7;   " d=" M  1198.30,   129.26  C  1198.30    126.92   1196.40    125.01   1194.05    125.01  " /><text style="&st18;" transform="matrix(&st16;  1188.19  131.23 )">1B</text><text style="&st18;" transform="matrix(&st16;  1190.13  122.03 )">1</text></g><g ewd:figtype="jb" ewd:figID="61" ewd:code="1"><path style="stroke-width: 1.42 ;&st7;  " d=" M  1194.05,    91.02  L  1189.80,    91.02  " /><path style="stroke-width: 1.42 ;&st7;  " d=" M  1194.05,    99.52  L  1189.80,    99.52  " /><path style="stroke-width: 1.42 ;&st7;   " d=" M  1189.80,    91.02  C  1187.45     91.02   1185.55     92.92   1185.55     95.27  " /><path style="stroke-width: 1.42 ;&st7;   " d=" M  1185.55,    95.27  C  1185.55     97.62   1187.45     99.52   1189.80     99.52  " /><path style="stroke-width: 1.42 ;&st7;   " d=" M  1194.05,    99.52  C  1196.40     99.52   1198.30     97.62   1198.30     95.27  " /><path style="stroke-width: 1.42 ;&st7;   " d=" M  1198.30,    95.27  C  1198.30     92.92   1196.40     91.02   1194.05     91.02  " /><text style="&st18;" transform="matrix(&st16;  1188.26  97.24 )">1E</text><text style="&st18;" transform="matrix(&st16;  1190.13  88.03 )">1</text></g></svg>