<?xml version="1.0" encoding="utf-8"?>
<!DOCTYPE svg PUBLIC "-//W3C//DTD SVG 1.0//EN" "http://www.w3.org/TR/2001/REC-SVG-20010904/DTD/svg10.dtd"[
	<!ENTITY ns_flows "http://ns.adobe.com/Flows/1.0/">
	<!ENTITY ns_svg "http://www.w3.org/2000/svg">
	<!ENTITY ns_xlink "http://www.w3.org/1999/xlink">
	<!ENTITY st0 "font-size:7px;font-family:'NSimSun';adobe-font-script:japanese;">
	<!ENTITY st1 "font-size:6px;font-family:'NSimSun';">
	<!-- White fill  -->
	<!ENTITY st2 "fill:#FFFFFF;stroke:#000000; stroke-width:1.41;stroke-linecap:round;stroke-linejoin:round;">
	<!-- Yellow fill  -->
	<!ENTITY st3 "fill:#FFFFCC;stroke:#FFFFCC; stroke-width:0.1;stroke-linecap:round;stroke-linejoin:round;">
	<!-- Gray fill  -->
	<!ENTITY st4 "fill:#CCCCCC;stroke:#CCCCCC; stroke-width:0.1;stroke-linecap:round;stroke-linejoin:round;">
	<!-- Light-blue fill -->
	<!ENTITY st5 "fill:#CCECF4;stroke:#000000; stroke-width:1.133;stroke-linecap:round;stroke-linejoin:round;">
	<!ENTITY st6 "fill:none;stroke-linecap:butt; stroke-linejoin:round;">
	<!ENTITY st7 "fill:none;stroke:#000000;stroke-linecap:round;stroke-linejoin:round;">
	<!ENTITY st8 "enable-background:new    ;">
	<!-- Black fill -->
	<!ENTITY st9 "fill:#000000;stroke:#000000; stroke-linecap:round;stroke-linejoin:round;">
	<!-- SRS note   -->
	<!ENTITY st10 "font-size:9px;font-family:'NSimSun';">
	<!ENTITY st11 "font-size:9px;font-family:'NSimSun';">
	<!ENTITY st12 "font-size:6px;font-family:'NSimSun';">
	<!ENTITY st13 "fill:none;stroke:#ff0000;stroke-linecap:round;stroke-linejoin:round;">
	<!-- Yellow fill  -->
	<!ENTITY st14 "fill:#FFFF00;stroke:#FFFF00; stroke-width:0.1;stroke-linecap:round;stroke-linejoin:round;">
	<!ENTITY st15 "font-size:6px;font-family:'NSimSun';adobe-font-script:japanese;">
	<!ENTITY st16 "1.00 0.00 0.00 1.00">
	<!ENTITY st17 "0.00 -1.00 1.00 0.00">
	<!ENTITY st18 "font-size:6px;font-family:'NSimSun';">
	<!ENTITY st19 "font-size:9px;font-family:'NSimSun';">
	<!ENTITY st20 "font-size:6px;font-family:'NSimSun';adobe-font-script:japanese;">
	<!ENTITY st21 "font-size:7px;font-family:'NSimSun';adobe-font-script:japanese;">
	<!ATTLIST svg
		xmlns:ewd CDATA #FIXED "http://shcl.co.jp/ewd"
		xmlns:a CDATA #FIXED "http://ns.adobe.com/AdobeSVGViewerExtensions/3.0/"
		ewd:ver CDATA #IMPLIED
	>
	<!ATTLIST a
		ewd:lineID CDATA #IMPLIED
		ewd:groupID CDATA #IMPLIED
		ewd:figtype CDATA #IMPLIED
		ewd:code CDATA #IMPLIED
		ewd:figID CDATA #IMPLIED
		ewd:pinNo CDATA #IMPLIED
		ewd:comment CDATA #IMPLIED >
	<!ATTLIST g
		ewd:lineID CDATA #IMPLIED
		ewd:groupID CDATA #IMPLIED
		ewd:figtype CDATA #IMPLIED
		ewd:code CDATA #IMPLIED
		ewd:figID CDATA #IMPLIED
		ewd:pinNo CDATA #IMPLIED
		ewd:comment CDATA #IMPLIED >
	<!ATTLIST text
		ewd:textID CDATA #IMPLIED
		ewd:horAlign CDATA #IMPLIED >
	<!ATTLIST title
		ewd:textID CDATA #IMPLIED >
]>
<!-- Generator: Shintec Hozumi YS   -->
<svg onload="call_execInitLoadProc_svg('system')" style="overflow:visible;  enable-background:new 0 0 709.307 710.000" viewBox="0 0 712.871 710.000" height="710.000" width="712.871" xml:space="preserve" ewd:ver="2.1.2.6F" xmlns="&ns_svg;" xmlns:ewd="http://shcl.co.jp/ewd" xmlns:a="http://ns.adobe.com/AdobeSVGViewerExtensions/3.0/" xmlns:xlink="&ns_xlink;">
	<script type="text/javascript" xlink:href="../../../../../system/js/ewd/fig/svgfig.js" xmlns:xlink="http://www.w3.org/1999/xlink" />
<g id="ewd_top">
	<a ewd:figtype="conn" style="cursor:pointer;" ewd:code="T4" ewd:figID="1">
		<path style="&st5;" d=" M   577.90,   239.75  L   688.38,   239.75  L   688.38,   307.73  L   577.90,   307.73  L   577.90,   239.75 "/>
		<title ewd:textID="3">前排电动座椅腰部开关</title>
	</a>
	<a ewd:figtype="conn" style="cursor:pointer;" ewd:code="T3" ewd:figID="2">
		<path style="&st5;" d=" M    33.99,   239.75  L    33.99,   375.72  L   492.92,   375.72  L   492.92,   239.75  L    33.99,   239.75 "/>
		<title ewd:textID="8">前排电动座椅开关</title>
	</a>
	<a ewd:figtype="conn" style="cursor:pointer;" ewd:code="W2" ewd:figID="3">
		<path style="&st5;" d=" M   630.03,   430.96  L   630.03,   430.96  C   630.82    429.61    631.79    428.64    633.14    427.85  L   633.14,   427.85  C   637.20    425.51    642.40    426.90    644.75    430.96  L   644.75,   430.96  L   648.72,   430.96  L   648.72,   439.46  L   644.75,   439.46  C   643.97    440.82    643.00    441.79    641.64    442.57  L   641.64,   442.57  C   637.58    444.92    632.38    443.53    630.03    439.46  L   630.03,   439.46  L   626.06,   439.46  L   626.06,   430.96 "/>
		<title ewd:textID="5">前排电动座椅腰部支撑电动机</title>
	</a>
	<a ewd:figtype="conn" style="cursor:pointer;" ewd:code="T2" ewd:figID="4">
		<path style="&st5;" d=" M   426.07,   430.96  L   426.07,   430.96  C   426.85    429.61    427.82    428.64    429.18    427.85  L   429.18,   427.85  C   433.24    425.51    438.44    426.90    440.78    430.96  L   440.79,   430.96  L   444.76,   430.96  L   444.76,   439.46  L   440.78,   439.46  C   440.00    440.82    439.03    441.79    437.68    442.57  L   437.68,   442.57  C   433.61    444.92    428.41    443.53    426.07    439.46  L   426.07,   439.46  L   422.10,   439.46  L   422.10,   430.96 "/>
		<title ewd:textID="4">前排电动座椅升降位置电动机</title>
	</a>
	<a ewd:figtype="conn" style="cursor:pointer;" ewd:code="T1" ewd:figID="5">
		<path style="&st5;" d=" M   324.08,   430.96  L   324.08,   430.96  C   324.87    429.61    325.84    428.64    327.19    427.85  L   327.19,   427.85  C   331.26    425.51    336.45    426.90    338.80    430.96  L   338.80,   430.96  L   342.78,   430.96  L   342.78,   439.46  L   338.80,   439.46  C   338.02    440.82    337.05    441.79    335.69    442.57  L   335.69,   442.57  C   331.63    444.92    326.43    443.53    324.08    439.46  L   324.08,   439.46  L   320.11,   439.46  L   320.11,   430.96 "/>
		<title ewd:textID="7">前排电动座椅升降位置电动机</title>
	</a>
	<a ewd:figtype="conn" style="cursor:pointer;" ewd:code="W1" ewd:figID="6">
		<path style="&st5;" d=" M   103.12,   532.95  L   103.12,   532.95  C   103.90    531.59    104.88    530.62    106.23    529.84  L   106.23,   529.84  C   110.29    527.49    115.49    528.88    117.84    532.94  L   117.84,   532.95  L   121.81,   532.95  L   121.81,   541.44  L   117.84,   541.45  C   117.06    542.80    116.08    543.77    114.73    544.55  L   114.73,   544.55  C   110.67    546.90    105.47    545.51    103.12    541.44  L   103.12,   541.44  L    99.15,   541.44  L    99.15,   532.95 "/>
		<title ewd:textID="6">前排电动座椅靠背倾角位置电动机</title>
	</a>
	<a ewd:figtype="conn" style="cursor:pointer;" ewd:code="T6" ewd:figID="7">
		<path style="&st5;" d=" M   220.96,   443.71  L   237.96,   443.71  L   237.96,   460.71  L   220.96,   460.71  L   220.96,   443.71 "/>
		<title ewd:textID="10">9 号接线连接器</title>
	</a>
	<a ewd:figtype="jb" style="cursor:pointer;" ewd:code="3" ewd:figID="8">
		<path style="&st4; " d=" M    42.49,    35.78  L    42.49,   103.77  L   101.98,   103.77  L   101.98,    35.78  L    42.49,    35.78  "/>
	</a>
	<a ewd:figtype="fuse" style="cursor:pointer;" ewd:code="FUSE66" ewd:figID="16">
		<path style="&st7; stroke-width:0;" d=" M    46.74,    35.78  L    46.74,    78.27  L    72.24,    78.27  L    72.24,    35.78  L    46.74,    35.78 "/>
	</a>
	<a style="cursor:pointer;" ewd:lineID="1"> d=" M    59.49,   239.75  L    59.49,   178.27 
	
		<path style="stroke:#000000;stroke-width: 5.10 ;&st6;" d=" M    59.49,   239.75  L    59.49,   178.27  "/>
		<path style="stroke:#FFFFFF;stroke-width: 4.53 ;&st6;" d=" M    59.49,   239.75  L    59.49,   178.27  "/>
	</a>
	<a style="cursor:pointer;" ewd:lineID="2">
		<path style="stroke:#56077D;stroke-width: 5.10 ;&st6;" d=" M    59.49,   103.77  L    59.49,   163.26  "/>
	</a>
	<a style="cursor:pointer;" ewd:lineID="3">
		<path style="stroke:#7FC97F;stroke-width: 5.10 ;&st6;" d=" M    67.99,   435.21  L    67.99,   537.20  L    99.15,   537.20  "/>
	</a>
	<a style="cursor:pointer;" ewd:lineID="4">
		<path style="stroke:#7FC97F;stroke-width: 5.10 ;&st6;" d=" M    67.99,   375.72  L    67.99,   420.48  "/>
	</a>
	<a style="cursor:pointer;" ewd:lineID="5">
		<path style="stroke:#F668B2;stroke-width: 5.10 ;&st6;" d=" M   144.48,   435.21  L   144.48,   537.20  L   121.81,   537.20  "/>
	</a>
	<a style="cursor:pointer;" ewd:lineID="6">
		<path style="stroke:#F668B2;stroke-width: 5.10 ;&st6;" d=" M   144.48,   375.72  L   144.48,   420.48  "/>
	</a>
	<a style="cursor:pointer;" ewd:lineID="7">
		<path style="stroke:#000000;stroke-width: 5.10 ;&st6;" d=" M   229.46,   545.69  L   229.46,   681.67  "/>
		<path style="stroke:#FFFFFF;stroke-width: 4.53 ;&st6;" d=" M   229.46,   545.69  L   229.46,   681.67  "/>
		<path style="stroke:#000000;stroke-width: 1.13 ;&st6;" d=" M   229.46,   545.69  L   229.46,   681.67  "/>
	</a>
	<a style="cursor:pointer;" ewd:lineID="8">
		<path style="stroke:#000000;stroke-width: 5.10 ;&st6;" d=" M   229.46,   460.71  L   229.46,   530.96  "/>
		<path style="stroke:#FFFFFF;stroke-width: 4.53 ;&st6;" d=" M   229.46,   460.71  L   229.46,   530.96  "/>
		<path style="stroke:#000000;stroke-width: 1.13 ;&st6;" d=" M   229.46,   460.71  L   229.46,   530.96  "/>
	</a>
	<a style="cursor:pointer;" ewd:lineID="9">
		<path style="stroke:#000000;stroke-width: 5.10 ;&st6;" d=" M   229.46,   443.71  L   229.46,   375.72  "/>
		<path style="stroke:#FFFFFF;stroke-width: 4.53 ;&st6;" d=" M   229.46,   443.71  L   229.46,   375.72  "/>
		<path style="stroke:#000000;stroke-width: 1.13 ;&st6;" d=" M   229.46,   443.71  L   229.46,   375.72  "/>
	</a>
	<a style="cursor:pointer;" ewd:lineID="10">
		<path style="stroke:#999999;stroke-width: 5.10 ;&st6;" d=" M   297.45,   375.72  L   297.45,   435.21  L   320.11,   435.21  "/>
	</a>
	<a style="cursor:pointer;" ewd:lineID="11">
		<path style="stroke:#000000;stroke-width: 5.10 ;&st6;" d=" M   356.94,   239.75  L   356.94,   171.76  L   662.89,   171.76  L   662.89,   239.75  "/>
		<path style="stroke:#FFFFFF;stroke-width: 4.53 ;&st6;" d=" M   356.94,   239.75  L   356.94,   171.76  L   662.89,   171.76  L   662.89,   239.75  "/>
		<path style="stroke:#000000;stroke-width: 1.13 ;&st6;" d=" M   356.94,   239.75  L   356.94,   171.76  L   662.89,   171.76  L   662.89,   239.75  "/>
	</a>
	<a style="cursor:pointer;" ewd:lineID="12">
		<path style="stroke:#00A0C6;stroke-width: 5.10 ;&st6;" d=" M   365.44,   375.72  L   365.44,   435.21  L   342.78,   435.21  "/>
	</a>
	<a style="cursor:pointer;" ewd:lineID="13">
		<path style="stroke:#56077D;stroke-width: 5.10 ;&st6;" d=" M   399.43,   375.72  L   399.43,   435.21  L   422.10,   435.21  "/>
	</a>
	<a style="cursor:pointer;" ewd:lineID="14">
		<path style="stroke:#008837;stroke-width: 5.10 ;&st6;" d=" M   467.42,   375.72  L   467.42,   435.21  L   444.76,   435.21  "/>
	</a>
	<a style="cursor:pointer;" ewd:lineID="15">
		<path style="stroke:#99D9E8;stroke-width: 5.10 ;&st6;" d=" M   475.92,   239.75  L   475.92,   188.75  L   594.90,   188.75  L   594.90,   239.75  "/>
	</a>
	<a style="cursor:pointer;" ewd:lineID="16">
		<path style="stroke:#00A0C6;stroke-width: 5.10 ;&st6;" d=" M   603.40,   375.72  L   603.40,   435.21  L   626.06,   435.21  "/>
	</a>
	<a style="cursor:pointer;" ewd:lineID="17">
		<path style="stroke:#00A0C6;stroke-width: 5.10 ;&st6;" d=" M   603.40,   307.73  L   603.40,   360.99  "/>
	</a>
	<a style="cursor:pointer;" ewd:lineID="18">
		<path style="stroke:#56077D;stroke-width: 5.10 ;&st6;" d=" M   671.39,   375.72  L   671.39,   435.21  L   648.72,   435.21  "/>
	</a>
	<a style="cursor:pointer;" ewd:lineID="19">
		<path style="stroke:#56077D;stroke-width: 5.10 ;&st6;" d=" M   671.39,   307.73  L   671.39,   360.99  "/>
	</a>
	<g ewd:figtype="conn" ewd:figID="1" ewd:code="T4">
		<path style="stroke-width: 0.85 ;&st7;  " d=" M   594.90,   273.74  L   594.90,   265.24  "/>
		<path style="stroke-width: 0.85 ;&st7;  " d=" M   611.90,   273.74  L   611.90,   265.24  "/>
		<path style="stroke-width: 1.42 ;&st7;  " d=" M   611.38,   272.90  L   603.40,   287.90  "/>
		<path style="stroke-width: 0.85 ;&st7;  " d=" M   662.89,   273.74  L   662.89,   265.24  "/>
		<path style="stroke-width: 0.85 ;&st7;  " d=" M   679.89,   273.74  L   679.89,   265.24  "/>
		<path style="stroke-width: 1.42 ;&st7;  " d=" M   663.41,   272.90  L   671.39,   287.90  "/>
		<path style="stroke-width: 0.85 ;&st7;   " d=" M   613.31,   275.16  C   613.31    274.37    612.68    273.74    611.90    273.74  "/>
		<path style="stroke-width: 0.85 ;&st7;   " d=" M   611.90,   273.74  C   611.12    273.74    610.48    274.37    610.48    275.16  "/>
		<path style="stroke-width: 0.85 ;&st7;   " d=" M   610.48,   275.16  C   610.48    275.94    611.12    276.57    611.90    276.57  "/>
		<path style="stroke-width: 0.85 ;&st7;   " d=" M   611.90,   276.57  C   612.68    276.57    613.31    275.94    613.31    275.16  "/>
		<path style="stroke-width: 0.85 ;&st7;   " d=" M   596.32,   275.16  C   596.32    274.37    595.68    273.74    594.90    273.74  "/>
		<path style="stroke-width: 0.85 ;&st7;   " d=" M   594.90,   273.74  C   594.12    273.74    593.48    274.37    593.48    275.16  "/>
		<path style="stroke-width: 0.85 ;&st7;   " d=" M   593.48,   275.16  C   593.48    275.94    594.12    276.57    594.90    276.57  "/>
		<path style="stroke-width: 0.85 ;&st7;   " d=" M   594.90,   276.57  C   595.68    276.57    596.32    275.94    596.32    275.16  "/>
		<path style="stroke-width: 0.85 ;&st7;   " d=" M   604.82,   289.32  C   604.82    288.54    604.18    287.90    603.40    287.90  "/>
		<path style="stroke-width: 0.85 ;&st7;   " d=" M   603.40,   287.90  C   602.62    287.90    601.98    288.54    601.98    289.32  "/>
		<path style="stroke-width: 0.85 ;&st7;   " d=" M   601.98,   289.32  C   601.98    290.10    602.62    290.74    603.40    290.74  "/>
		<path style="stroke-width: 0.85 ;&st7;   " d=" M   603.40,   290.74  C   604.18    290.74    604.82    290.10    604.82    289.32  "/>
		<path style="stroke-width: 0.85 ;&st7;   " d=" M   681.30,   275.16  C   681.30    274.37    680.67    273.74    679.89    273.74  "/>
		<path style="stroke-width: 0.85 ;&st7;   " d=" M   679.89,   273.74  C   679.10    273.74    678.47    274.37    678.47    275.16  "/>
		<path style="stroke-width: 0.85 ;&st7;   " d=" M   678.47,   275.16  C   678.47    275.94    679.10    276.57    679.89    276.57  "/>
		<path style="stroke-width: 0.85 ;&st7;   " d=" M   679.89,   276.57  C   680.67    276.57    681.30    275.94    681.30    275.16  "/>
		<path style="stroke-width: 0.85 ;&st7;   " d=" M   664.31,   275.16  C   664.31    274.37    663.67    273.74    662.89    273.74  "/>
		<path style="stroke-width: 0.85 ;&st7;   " d=" M   662.89,   273.74  C   662.11    273.74    661.47    274.37    661.47    275.16  "/>
		<path style="stroke-width: 0.85 ;&st7;   " d=" M   661.47,   275.16  C   661.47    275.94    662.11    276.57    662.89    276.57  "/>
		<path style="stroke-width: 0.85 ;&st7;   " d=" M   662.89,   276.57  C   663.67    276.57    664.31    275.94    664.31    275.16  "/>
		<path style="stroke-width: 0.85 ;&st7;   " d=" M   672.80,   289.32  C   672.80    288.54    672.17    287.90    671.39    287.90  "/>
		<path style="stroke-width: 0.85 ;&st7;   " d=" M   671.39,   287.90  C   670.61    287.90    669.97    288.54    669.97    289.32  "/>
		<path style="stroke-width: 0.85 ;&st7;   " d=" M   669.97,   289.32  C   669.97    290.10    670.61    290.74    671.39    290.74  "/>
		<path style="stroke-width: 0.85 ;&st7;   " d=" M   671.39,   290.74  C   672.17    290.74    672.80    290.10    672.80    289.32  "/>
		<path style="stroke-width: 0.85 ;&st7;  " d=" M   662.89,   265.24  L   662.89,   256.74  "/>
		<path style="stroke-width: 1.42 ;&st7;  " d=" M   577.90,   239.75  L   688.38,   239.75  L   688.38,   307.73  L   577.90,   307.73  L   577.90,   239.75  "/>
		<path style="stroke-width: 0.85 ;&st7;  " d=" M   603.40,   290.74  L   603.40,   307.73  "/>
		<path style="stroke-width: 0.85 ;&st7;  " d=" M   671.39,   290.74  L   671.39,   307.73  "/>
		<path style="stroke-width: 0.85 ;&st7;  " d=" M   594.90,   265.24  L   679.89,   265.24  "/>
		<path style="stroke-width: 0.85 ;&st7;  " d=" M   611.90,   265.24  L   611.90,   256.74  L   662.89,   256.74  L   662.89,   239.75  "/>
		<path style="stroke-width: 0.85 ;&st7;  " d=" M   594.90,   239.75  L   594.90,   265.24  "/>
		<path style="stroke-width: 0.85 ;&st7;  " d=" M   593.71,   264.24  L   593.44,   264.71  L   593.34,   265.24  L   593.44,   265.77  L   593.71,   266.24  L   594.12,   266.59  L   594.63,   266.78  L   595.17,   266.78  L   595.68,   266.59  L   596.09,   266.24  L   596.36,   265.77  L   596.46,   265.24  L   596.36,   264.71  L   596.09,   264.24  L   595.68,   263.89  L   595.17,   263.71  L   594.63,   263.71  L   594.12,   263.89  L   593.71,   264.24  L   594.10,   264.95  L   594.10,   265.53  L   594.48,   265.98  L   595.05,   266.08  L   595.55,   265.79  L   595.75,   265.24  L   595.55,   264.69  L   595.05,   264.41  L   594.48,   264.50  L   594.90,   265.24  "/>
		<path style="stroke-width: 0.85 ;&st7;  " d=" M   661.70,   255.74  L   661.42,   256.21  L   661.33,   256.74  L   661.42,   257.28  L   661.70,   257.75  L   662.11,   258.09  L   662.62,   258.28  L   663.16,   258.28  L   663.67,   258.09  L   664.08,   257.75  L   664.35,   257.28  L   664.45,   256.74  L   664.35,   256.21  L   664.08,   255.74  L   663.67,   255.39  L   663.16,   255.21  L   662.62,   255.21  L   662.11,   255.39  L   661.70,   255.74  L   662.09,   256.45  L   662.09,   257.03  L   662.46,   257.48  L   663.04,   257.58  L   663.54,   257.29  L   663.74,   256.74  L   663.54,   256.20  L   663.04,   255.91  L   662.46,   256.01  L   662.89,   256.74  "/>
		<text style="font-size:6px;font-family:'NSimSun';" transform="matrix(&st16;  605.98  304.04 )">R</text>
		<text style="font-size:6px;font-family:'NSimSun';" transform="matrix(&st16;  673.97  304.04 )">H</text>
		<text style="font-size:6px;font-family:'NSimSun';" transform="matrix(&st16;  597.48  247.94 )">B</text>
		<text style="font-size:6px;font-family:'NSimSun';" transform="matrix(&st16;  665.47  247.94 )">E</text>
		<text style="font-size:6px;font-family:'NSimSun';" transform="matrix(&st16;  656.7  236.06 )">2</text>
		<text style="font-size:6px;font-family:'NSimSun';" transform="matrix(&st16;  588.72  236.06 )">5</text>
		<text style="font-size:6px;font-family:'NSimSun';" transform="matrix(&st16;  597.21  315.93 )">1</text>
		<text style="font-size:6px;font-family:'NSimSun';" transform="matrix(&st16;  665.2  315.93 )">3</text>
		<g ewd:figtype="title">
			<text style="font-size:6px;font-family:'NSimSun';" transform="matrix(&st17;  696.28  310.63 )">T4</text>
			<text style="font-size:6px;font-family:'NSimSun';" transform="matrix(&st17;  703.1  310.64 )" ewd:textID="3">前排电动座椅腰部开关</text>
		</g>
	</g>
	<g ewd:figtype="conn" ewd:figID="2" ewd:code="T3">
		<path style="stroke-width: 0.85 ;&st7;  " d=" M    67.99,   375.72  L    67.99,   333.23  "/>
		<path style="stroke-width: 0.85 ;&st7;  " d=" M    59.49,   316.23  L    59.49,   307.73  "/>
		<path style="stroke-width: 0.85 ;&st7;  " d=" M    76.49,   316.23  L    76.49,   307.73  "/>
		<path style="stroke-width: 1.42 ;&st7;  " d=" M    75.97,   315.39  L    67.99,   330.40  "/>
		<path style="stroke-width: 0.85 ;&st7;  " d=" M   297.45,   375.72  L   297.45,   333.23  "/>
		<path style="stroke-width: 0.85 ;&st7;  " d=" M   288.95,   316.23  L   288.95,   307.73  "/>
		<path style="stroke-width: 0.85 ;&st7;  " d=" M   305.95,   316.23  L   305.95,   307.73  "/>
		<path style="stroke-width: 1.42 ;&st7;  " d=" M   305.43,   315.39  L   297.45,   330.40  "/>
		<path style="stroke-width: 0.85 ;&st7;  " d=" M   399.43,   375.72  L   399.43,   333.23  "/>
		<path style="stroke-width: 0.85 ;&st7;  " d=" M   390.93,   316.23  L   390.93,   307.73  "/>
		<path style="stroke-width: 0.85 ;&st7;  " d=" M   407.93,   316.23  L   407.93,   307.73  "/>
		<path style="stroke-width: 1.42 ;&st7;  " d=" M   407.41,   315.39  L   399.43,   330.40  "/>
		<path style="stroke-width: 0.85 ;&st7;  " d=" M   144.48,   375.72  L   144.48,   333.23  "/>
		<path style="stroke-width: 0.85 ;&st7;  " d=" M   135.98,   316.23  L   135.98,   307.73  "/>
		<path style="stroke-width: 0.85 ;&st7;  " d=" M   152.97,   316.23  L   152.97,   307.73  "/>
		<path style="stroke-width: 1.42 ;&st7;  " d=" M   136.50,   315.39  L   144.48,   330.40  "/>
		<path style="stroke-width: 0.85 ;&st7;  " d=" M   365.44,   375.72  L   365.44,   333.23  "/>
		<path style="stroke-width: 0.85 ;&st7;  " d=" M   356.94,   316.23  L   356.94,   307.73  "/>
		<path style="stroke-width: 0.85 ;&st7;  " d=" M   373.94,   316.23  L   373.94,   307.73  "/>
		<path style="stroke-width: 1.42 ;&st7;  " d=" M   357.46,   315.39  L   365.44,   330.40  "/>
		<path style="stroke-width: 0.85 ;&st7;  " d=" M   467.42,   375.72  L   467.42,   333.23  "/>
		<path style="stroke-width: 0.85 ;&st7;  " d=" M   458.92,   316.23  L   458.92,   307.73  "/>
		<path style="stroke-width: 0.85 ;&st7;  " d=" M   475.92,   316.23  L   475.92,   307.73  "/>
		<path style="stroke-width: 1.42 ;&st7;  " d=" M   459.44,   315.39  L   467.42,   330.40  "/>
		<path style="stroke-width: 0.85 ;&st7;   " d=" M    77.90,   317.65  C    77.90    316.87     77.27    316.23     76.49    316.23  "/>
		<path style="stroke-width: 0.85 ;&st7;   " d=" M    76.49,   316.23  C    75.70    316.23     75.07    316.87     75.07    317.65  "/>
		<path style="stroke-width: 0.85 ;&st7;   " d=" M    75.07,   317.65  C    75.07    318.43     75.70    319.07     76.49    319.07  "/>
		<path style="stroke-width: 0.85 ;&st7;   " d=" M    76.49,   319.07  C    77.27    319.07     77.90    318.43     77.90    317.65  "/>
		<path style="stroke-width: 0.85 ;&st7;   " d=" M    60.91,   317.65  C    60.91    316.87     60.27    316.23     59.49    316.23  "/>
		<path style="stroke-width: 0.85 ;&st7;   " d=" M    59.49,   316.23  C    58.71    316.23     58.07    316.87     58.07    317.65  "/>
		<path style="stroke-width: 0.85 ;&st7;   " d=" M    58.07,   317.65  C    58.07    318.43     58.71    319.07     59.49    319.07  "/>
		<path style="stroke-width: 0.85 ;&st7;   " d=" M    59.49,   319.07  C    60.27    319.07     60.91    318.43     60.91    317.65  "/>
		<path style="stroke-width: 0.85 ;&st7;   " d=" M    69.41,   331.81  C    69.41    331.03     68.77    330.40     67.99    330.40  "/>
		<path style="stroke-width: 0.85 ;&st7;   " d=" M    67.99,   330.40  C    67.21    330.40     66.57    331.03     66.57    331.81  "/>
		<path style="stroke-width: 0.85 ;&st7;   " d=" M    66.57,   331.81  C    66.57    332.60     67.21    333.23     67.99    333.23  "/>
		<path style="stroke-width: 0.85 ;&st7;   " d=" M    67.99,   333.23  C    68.77    333.23     69.41    332.60     69.41    331.81  "/>
		<path style="stroke-width: 0.85 ;&st7;   " d=" M   307.37,   317.65  C   307.37    316.87    306.73    316.23    305.95    316.23  "/>
		<path style="stroke-width: 0.85 ;&st7;   " d=" M   305.95,   316.23  C   305.17    316.23    304.53    316.87    304.53    317.65  "/>
		<path style="stroke-width: 0.85 ;&st7;   " d=" M   304.53,   317.65  C   304.53    318.43    305.17    319.07    305.95    319.07  "/>
		<path style="stroke-width: 0.85 ;&st7;   " d=" M   305.95,   319.07  C   306.73    319.07    307.37    318.43    307.37    317.65  "/>
		<path style="stroke-width: 0.85 ;&st7;   " d=" M   290.37,   317.65  C   290.37    316.87    289.73    316.23    288.95    316.23  "/>
		<path style="stroke-width: 0.85 ;&st7;   " d=" M   288.95,   316.23  C   288.17    316.23    287.54    316.87    287.54    317.65  "/>
		<path style="stroke-width: 0.85 ;&st7;   " d=" M   287.54,   317.65  C   287.54    318.43    288.17    319.07    288.95    319.07  "/>
		<path style="stroke-width: 0.85 ;&st7;   " d=" M   288.95,   319.07  C   289.73    319.07    290.37    318.43    290.37    317.65  "/>
		<path style="stroke-width: 0.85 ;&st7;   " d=" M   298.87,   331.81  C   298.87    331.03    298.23    330.40    297.45    330.40  "/>
		<path style="stroke-width: 0.85 ;&st7;   " d=" M   297.45,   330.40  C   296.67    330.40    296.03    331.03    296.03    331.81  "/>
		<path style="stroke-width: 0.85 ;&st7;   " d=" M   296.03,   331.81  C   296.03    332.60    296.67    333.23    297.45    333.23  "/>
		<path style="stroke-width: 0.85 ;&st7;   " d=" M   297.45,   333.23  C   298.23    333.23    298.87    332.60    298.87    331.81  "/>
		<path style="stroke-width: 0.85 ;&st7;   " d=" M   409.35,   317.65  C   409.35    316.87    408.71    316.23    407.93    316.23  "/>
		<path style="stroke-width: 0.85 ;&st7;   " d=" M   407.93,   316.23  C   407.15    316.23    406.52    316.87    406.52    317.65  "/>
		<path style="stroke-width: 0.85 ;&st7;   " d=" M   406.52,   317.65  C   406.52    318.43    407.15    319.07    407.93    319.07  "/>
		<path style="stroke-width: 0.85 ;&st7;   " d=" M   407.93,   319.07  C   408.71    319.07    409.35    318.43    409.35    317.65  "/>
		<path style="stroke-width: 0.85 ;&st7;   " d=" M   392.35,   317.65  C   392.35    316.87    391.72    316.23    390.93    316.23  "/>
		<path style="stroke-width: 0.85 ;&st7;   " d=" M   390.93,   316.23  C   390.15    316.23    389.52    316.87    389.52    317.65  "/>
		<path style="stroke-width: 0.85 ;&st7;   " d=" M   389.52,   317.65  C   389.52    318.43    390.15    319.07    390.93    319.07  "/>
		<path style="stroke-width: 0.85 ;&st7;   " d=" M   390.93,   319.07  C   391.72    319.07    392.35    318.43    392.35    317.65  "/>
		<path style="stroke-width: 0.85 ;&st7;   " d=" M   400.85,   331.81  C   400.85    331.03    400.22    330.40    399.43    330.40  "/>
		<path style="stroke-width: 0.85 ;&st7;   " d=" M   399.43,   330.40  C   398.65    330.40    398.02    331.03    398.02    331.81  "/>
		<path style="stroke-width: 0.85 ;&st7;   " d=" M   398.02,   331.81  C   398.02    332.60    398.65    333.23    399.43    333.23  "/>
		<path style="stroke-width: 0.85 ;&st7;   " d=" M   399.43,   333.23  C   400.22    333.23    400.85    332.60    400.85    331.81  "/>
		<path style="stroke-width: 0.85 ;&st7;   " d=" M   154.39,   317.65  C   154.39    316.87    153.76    316.23    152.97    316.23  "/>
		<path style="stroke-width: 0.85 ;&st7;   " d=" M   152.97,   316.23  C   152.19    316.23    151.56    316.87    151.56    317.65  "/>
		<path style="stroke-width: 0.85 ;&st7;   " d=" M   151.56,   317.65  C   151.56    318.43    152.19    319.07    152.97    319.07  "/>
		<path style="stroke-width: 0.85 ;&st7;   " d=" M   152.97,   319.07  C   153.76    319.07    154.39    318.43    154.39    317.65  "/>
		<path style="stroke-width: 0.85 ;&st7;   " d=" M   137.39,   317.65  C   137.39    316.87    136.76    316.23    135.98    316.23  "/>
		<path style="stroke-width: 0.85 ;&st7;   " d=" M   135.98,   316.23  C   135.20    316.23    134.56    316.87    134.56    317.65  "/>
		<path style="stroke-width: 0.85 ;&st7;   " d=" M   134.56,   317.65  C   134.56    318.43    135.20    319.07    135.98    319.07  "/>
		<path style="stroke-width: 0.85 ;&st7;   " d=" M   135.98,   319.07  C   136.76    319.07    137.39    318.43    137.39    317.65  "/>
		<path style="stroke-width: 0.85 ;&st7;   " d=" M   145.89,   331.81  C   145.89    331.03    145.26    330.40    144.48    330.40  "/>
		<path style="stroke-width: 0.85 ;&st7;   " d=" M   144.48,   330.40  C   143.69    330.40    143.06    331.03    143.06    331.81  "/>
		<path style="stroke-width: 0.85 ;&st7;   " d=" M   143.06,   331.81  C   143.06    332.60    143.69    333.23    144.48    333.23  "/>
		<path style="stroke-width: 0.85 ;&st7;   " d=" M   144.48,   333.23  C   145.26    333.23    145.89    332.60    145.89    331.81  "/>
		<path style="stroke-width: 0.85 ;&st7;   " d=" M   375.35,   317.65  C   375.35    316.87    374.72    316.23    373.94    316.23  "/>
		<path style="stroke-width: 0.85 ;&st7;   " d=" M   373.94,   316.23  C   373.16    316.23    372.52    316.87    372.52    317.65  "/>
		<path style="stroke-width: 0.85 ;&st7;   " d=" M   372.52,   317.65  C   372.52    318.43    373.16    319.07    373.94    319.07  "/>
		<path style="stroke-width: 0.85 ;&st7;   " d=" M   373.94,   319.07  C   374.72    319.07    375.35    318.43    375.35    317.65  "/>
		<path style="stroke-width: 0.85 ;&st7;   " d=" M   358.36,   317.65  C   358.36    316.87    357.72    316.23    356.94    316.23  "/>
		<path style="stroke-width: 0.85 ;&st7;   " d=" M   356.94,   316.23  C   356.16    316.23    355.52    316.87    355.52    317.65  "/>
		<path style="stroke-width: 0.85 ;&st7;   " d=" M   355.52,   317.65  C   355.52    318.43    356.16    319.07    356.94    319.07  "/>
		<path style="stroke-width: 0.85 ;&st7;   " d=" M   356.94,   319.07  C   357.72    319.07    358.36    318.43    358.36    317.65  "/>
		<path style="stroke-width: 0.85 ;&st7;   " d=" M   366.86,   331.81  C   366.86    331.03    366.22    330.40    365.44    330.40  "/>
		<path style="stroke-width: 0.85 ;&st7;   " d=" M   365.44,   330.40  C   364.66    330.40    364.02    331.03    364.02    331.81  "/>
		<path style="stroke-width: 0.85 ;&st7;   " d=" M   364.02,   331.81  C   364.02    332.60    364.66    333.23    365.44    333.23  "/>
		<path style="stroke-width: 0.85 ;&st7;   " d=" M   365.44,   333.23  C   366.22    333.23    366.86    332.60    366.86    331.81  "/>
		<path style="stroke-width: 0.85 ;&st7;   " d=" M   477.34,   317.65  C   477.34    316.87    476.70    316.23    475.92    316.23  "/>
		<path style="stroke-width: 0.85 ;&st7;   " d=" M   475.92,   316.23  C   475.14    316.23    474.50    316.87    474.50    317.65  "/>
		<path style="stroke-width: 0.85 ;&st7;   " d=" M   474.50,   317.65  C   474.50    318.43    475.14    319.07    475.92    319.07  "/>
		<path style="stroke-width: 0.85 ;&st7;   " d=" M   475.92,   319.07  C   476.70    319.07    477.34    318.43    477.34    317.65  "/>
		<path style="stroke-width: 0.85 ;&st7;   " d=" M   460.34,   317.65  C   460.34    316.87    459.71    316.23    458.92    316.23  "/>
		<path style="stroke-width: 0.85 ;&st7;   " d=" M   458.92,   316.23  C   458.14    316.23    457.51    316.87    457.51    317.65  "/>
		<path style="stroke-width: 0.85 ;&st7;   " d=" M   457.51,   317.65  C   457.51    318.43    458.14    319.07    458.92    319.07  "/>
		<path style="stroke-width: 0.85 ;&st7;   " d=" M   458.92,   319.07  C   459.71    319.07    460.34    318.43    460.34    317.65  "/>
		<path style="stroke-width: 0.85 ;&st7;   " d=" M   468.84,   331.81  C   468.84    331.03    468.20    330.40    467.42    330.40  "/>
		<path style="stroke-width: 0.85 ;&st7;   " d=" M   467.42,   330.40  C   466.64    330.40    466.01    331.03    466.01    331.81  "/>
		<path style="stroke-width: 0.85 ;&st7;   " d=" M   466.01,   331.81  C   466.01    332.60    466.64    333.23    467.42    333.23  "/>
		<path style="stroke-width: 0.85 ;&st7;   " d=" M   467.42,   333.23  C   468.20    333.23    468.84    332.60    468.84    331.81  "/>
		<path style="stroke-width: 1.42 ;&st7;  " d=" M    33.99,   239.75  L    33.99,   375.72  L   492.92,   375.72  L   492.92,   239.75  L    33.99,   239.75  "/>
		<path style="stroke-width: 0.85 ;&st7;  " d=" M   372.74,   272.74  L   372.47,   273.21  L   372.38,   273.74  L   372.47,   274.27  L   372.74,   274.74  L   373.16,   275.09  L   373.67,   275.28  L   374.21,   275.28  L   374.72,   275.09  L   375.13,   274.74  L   375.40,   274.27  L   375.50,   273.74  L   375.40,   273.21  L   375.13,   272.74  L   374.72,   272.39  L   374.21,   272.20  L   373.67,   272.20  L   373.16,   272.39  L   372.74,   272.74  L   373.14,   273.45  L   373.14,   274.03  L   373.51,   274.48  L   374.08,   274.58  L   374.59,   274.29  L   374.79,   273.74  L   374.59,   273.19  L   374.08,   272.90  L   373.51,   273.00  L   373.94,   273.74  "/>
		<path style="stroke-width: 0.85 ;&st7;  " d=" M   152.97,   307.73  L   152.97,   273.74  "/>
		<path style="stroke-width: 0.85 ;&st7;  " d=" M   389.74,   272.74  L   389.47,   273.21  L   389.38,   273.74  L   389.47,   274.27  L   389.74,   274.74  L   390.16,   275.09  L   390.66,   275.28  L   391.21,   275.28  L   391.71,   275.09  L   392.13,   274.74  L   392.40,   274.27  L   392.49,   273.74  L   392.40,   273.21  L   392.13,   272.74  L   391.71,   272.39  L   391.21,   272.20  L   390.66,   272.20  L   390.16,   272.39  L   389.74,   272.74  L   390.14,   273.45  L   390.14,   274.03  L   390.51,   274.48  L   391.08,   274.58  L   391.59,   274.29  L   391.78,   273.74  L   391.59,   273.19  L   391.08,   272.90  L   390.51,   273.00  L   390.93,   273.74  "/>
		<path style="stroke-width: 0.85 ;&st7;  " d=" M   373.94,   307.73  L   373.94,   273.74  "/>
		<path style="stroke-width: 0.85 ;&st7;  " d=" M   390.93,   307.73  L   390.93,   273.74  "/>
		<path style="stroke-width: 0.85 ;&st7;  " d=" M    59.49,   307.73  L    59.49,   273.74  L   475.92,   273.74  L   475.92,   307.73  "/>
		<path style="stroke-width: 0.85 ;&st7;  " d=" M   288.95,   307.73  L   288.95,   273.74  "/>
		<path style="stroke-width: 0.85 ;&st7;  " d=" M   287.76,   272.74  L   287.49,   273.21  L   287.39,   273.74  L   287.49,   274.27  L   287.76,   274.74  L   288.17,   275.09  L   288.68,   275.28  L   289.22,   275.28  L   289.73,   275.09  L   290.14,   274.74  L   290.42,   274.27  L   290.51,   273.74  L   290.42,   273.21  L   290.14,   272.74  L   289.73,   272.39  L   289.22,   272.20  L   288.68,   272.20  L   288.17,   272.39  L   287.76,   272.74  L   288.15,   273.45  L   288.15,   274.03  L   288.53,   274.48  L   289.10,   274.58  L   289.60,   274.29  L   289.80,   273.74  L   289.60,   273.19  L   289.10,   272.90  L   288.53,   273.00  L   288.95,   273.74  "/>
		<path style="stroke-width: 0.85 ;&st7;  " d=" M   151.78,   272.74  L   151.51,   273.21  L   151.42,   273.74  L   151.51,   274.27  L   151.78,   274.74  L   152.20,   275.09  L   152.70,   275.28  L   153.25,   275.28  L   153.75,   275.09  L   154.17,   274.74  L   154.44,   274.27  L   154.53,   273.74  L   154.44,   273.21  L   154.17,   272.74  L   153.75,   272.39  L   153.25,   272.20  L   152.70,   272.20  L   152.20,   272.39  L   151.78,   272.74  L   152.18,   273.45  L   152.18,   274.03  L   152.55,   274.48  L   153.12,   274.58  L   153.63,   274.29  L   153.82,   273.74  L   153.63,   273.19  L   153.12,   272.90  L   152.55,   273.00  L   152.97,   273.74  "/>
		<path style="stroke-width: 0.85 ;&st7;  " d=" M    76.49,   307.73  L    76.49,   282.24  L   356.94,   282.24  L   356.94,   307.73  "/>
		<path style="stroke-width: 0.85 ;&st7;  " d=" M   305.95,   307.73  L   305.95,   282.24  "/>
		<path style="stroke-width: 0.85 ;&st7;  " d=" M   229.46,   282.24  L   229.46,   375.72  "/>
		<path style="stroke-width: 0.85 ;&st7;  " d=" M   304.76,   281.24  L   304.48,   281.71  L   304.39,   282.24  L   304.48,   282.77  L   304.76,   283.24  L   305.17,   283.59  L   305.68,   283.77  L   306.22,   283.77  L   306.73,   283.59  L   307.14,   283.24  L   307.41,   282.77  L   307.51,   282.24  L   307.41,   281.71  L   307.14,   281.24  L   306.73,   280.89  L   306.22,   280.70  L   305.68,   280.70  L   305.17,   280.89  L   304.76,   281.24  L   305.15,   281.95  L   305.15,   282.53  L   305.52,   282.97  L   306.10,   283.07  L   306.60,   282.79  L   306.80,   282.24  L   306.60,   281.69  L   306.10,   281.40  L   305.52,   281.50  L   305.95,   282.24  "/>
		<path style="stroke-width: 0.85 ;&st7;  " d=" M   228.27,   281.24  L   228.00,   281.71  L   227.90,   282.24  L   228.00,   282.77  L   228.27,   283.24  L   228.68,   283.59  L   229.19,   283.77  L   229.73,   283.77  L   230.24,   283.59  L   230.65,   283.24  L   230.93,   282.77  L   231.02,   282.24  L   230.93,   281.71  L   230.65,   281.24  L   230.24,   280.89  L   229.73,   280.70  L   229.19,   280.70  L   228.68,   280.89  L   228.27,   281.24  L   228.66,   281.95  L   228.66,   282.53  L   229.04,   282.97  L   229.61,   283.07  L   230.11,   282.79  L   230.31,   282.24  L   230.11,   281.69  L   229.61,   281.40  L   229.04,   281.50  L   229.46,   282.24  "/>
		<path style="stroke-width: 0.85 ;&st7;  " d=" M   135.98,   307.73  L   135.98,   282.24  "/>
		<path style="stroke-width: 0.85 ;&st7;  " d=" M   134.78,   281.24  L   134.51,   281.71  L   134.42,   282.24  L   134.51,   282.77  L   134.78,   283.24  L   135.20,   283.59  L   135.71,   283.77  L   136.25,   283.77  L   136.76,   283.59  L   137.17,   283.24  L   137.44,   282.77  L   137.54,   282.24  L   137.44,   281.71  L   137.17,   281.24  L   136.76,   280.89  L   136.25,   280.70  L   135.71,   280.70  L   135.20,   280.89  L   134.78,   281.24  L   135.18,   281.95  L   135.18,   282.53  L   135.55,   282.97  L   136.12,   283.07  L   136.63,   282.79  L   136.83,   282.24  L   136.63,   281.69  L   136.12,   281.40  L   135.55,   281.50  L   135.98,   282.24  "/>
		<path style="stroke-width: 0.85 ;&st7;  " d=" M    67.99,   341.73  L    42.49,   341.73  L    42.49,   256.74  L   458.92,   256.74  L   458.92,   307.73  "/>
		<path style="stroke-width: 0.85 ;&st7;  " d=" M   407.93,   307.73  L   407.93,   256.74  "/>
		<path style="stroke-width: 0.85 ;&st7;  " d=" M   406.74,   255.74  L   406.47,   256.21  L   406.37,   256.74  L   406.47,   257.28  L   406.74,   257.75  L   407.15,   258.09  L   407.66,   258.28  L   408.20,   258.28  L   408.71,   258.09  L   409.12,   257.75  L   409.40,   257.28  L   409.49,   256.74  L   409.40,   256.21  L   409.12,   255.74  L   408.71,   255.39  L   408.20,   255.21  L   407.66,   255.21  L   407.15,   255.39  L   406.74,   255.74  L   407.13,   256.45  L   407.13,   257.03  L   407.51,   257.48  L   408.08,   257.58  L   408.58,   257.29  L   408.78,   256.74  L   408.58,   256.20  L   408.08,   255.91  L   407.51,   256.01  L   407.93,   256.74  "/>
		<path style="stroke-width: 0.85 ;&st7;  " d=" M    66.80,   340.73  L    66.52,   341.20  L    66.43,   341.73  L    66.52,   342.26  L    66.80,   342.73  L    67.21,   343.08  L    67.72,   343.26  L    68.26,   343.26  L    68.77,   343.08  L    69.18,   342.73  L    69.45,   342.26  L    69.55,   341.73  L    69.45,   341.20  L    69.18,   340.73  L    68.77,   340.38  L    68.26,   340.19  L    67.72,   340.19  L    67.21,   340.38  L    66.80,   340.73  L    67.19,   341.44  L    67.19,   342.02  L    67.56,   342.46  L    68.14,   342.56  L    68.64,   342.28  L    68.84,   341.73  L    68.64,   341.18  L    68.14,   340.89  L    67.56,   340.99  L    67.99,   341.73  "/>
		<path style="stroke-width: 0.85 ;&st7;  " d=" M    59.49,   239.75  L    59.49,   273.74  "/>
		<path style="stroke-width: 0.85 ;&st7;  " d=" M    58.30,   272.74  L    58.03,   273.21  L    57.93,   273.74  L    58.03,   274.27  L    58.30,   274.74  L    58.71,   275.09  L    59.22,   275.28  L    59.76,   275.28  L    60.27,   275.09  L    60.68,   274.74  L    60.95,   274.27  L    61.05,   273.74  L    60.95,   273.21  L    60.68,   272.74  L    60.27,   272.39  L    59.76,   272.20  L    59.22,   272.20  L    58.71,   272.39  L    58.30,   272.74  L    58.69,   273.45  L    58.69,   274.03  L    59.07,   274.48  L    59.64,   274.58  L    60.14,   274.29  L    60.34,   273.74  L    60.14,   273.19  L    59.64,   272.90  L    59.07,   273.00  L    59.49,   273.74  "/>
		<path style="stroke-width: 0.85 ;&st7;  " d=" M   475.92,   273.74  L   475.92,   239.75  "/>
		<path style="stroke-width: 0.85 ;&st7;  " d=" M   356.94,   282.24  L   356.94,   239.75  "/>
		<path style="stroke-width: 0.85 ;&st7;  " d=" M   474.73,   272.74  L   474.46,   273.21  L   474.36,   273.74  L   474.46,   274.27  L   474.73,   274.74  L   475.14,   275.09  L   475.65,   275.28  L   476.19,   275.28  L   476.70,   275.09  L   477.11,   274.74  L   477.38,   274.27  L   477.48,   273.74  L   477.38,   273.21  L   477.11,   272.74  L   476.70,   272.39  L   476.19,   272.20  L   475.65,   272.20  L   475.14,   272.39  L   474.73,   272.74  L   475.12,   273.45  L   475.12,   274.03  L   475.50,   274.48  L   476.07,   274.58  L   476.57,   274.29  L   476.77,   273.74  L   476.57,   273.19  L   476.07,   272.90  L   475.50,   273.00  L   475.92,   273.74  "/>
		<path style="stroke-width: 0.85 ;&st7;  " d=" M   355.75,   281.24  L   355.48,   281.71  L   355.38,   282.24  L   355.48,   282.77  L   355.75,   283.24  L   356.16,   283.59  L   356.67,   283.77  L   357.21,   283.77  L   357.72,   283.59  L   358.13,   283.24  L   358.40,   282.77  L   358.50,   282.24  L   358.40,   281.71  L   358.13,   281.24  L   357.72,   280.89  L   357.21,   280.70  L   356.67,   280.70  L   356.16,   280.89  L   355.75,   281.24  L   356.14,   281.95  L   356.14,   282.53  L   356.52,   282.97  L   357.09,   283.07  L   357.59,   282.79  L   357.79,   282.24  L   357.59,   281.69  L   357.09,   281.40  L   356.52,   281.50  L   356.94,   282.24  "/>
		<text style="font-size:6px;font-family:'NSimSun';" transform="matrix(&st16;  62.07  247.94 )">B</text>
		<text style="font-size:6px;font-family:'NSimSun';" transform="matrix(&st16;  470.01  372.03 )">LDWN</text>
		<text style="font-size:6px;font-family:'NSimSun';" transform="matrix(&st16;  402.02  372.03 )">LUP</text>
		<text style="font-size:6px;font-family:'NSimSun';" transform="matrix(&st16;  368.02  372.03 )">SLDF</text>
		<text style="font-size:6px;font-family:'NSimSun';" transform="matrix(&st16;  300.03  372.03 )">SLDR</text>
		<text style="font-size:6px;font-family:'NSimSun';" transform="matrix(&st16;  232.04  372.03 )">E</text>
		<text style="font-size:6px;font-family:'NSimSun';" transform="matrix(&st16;  147.06  372.03 )">RCLF</text>
		<text style="font-size:6px;font-family:'NSimSun';" transform="matrix(&st16;  70.57  372.03 )">RCLR</text>
		<text style="font-size:6px;font-family:'NSimSun';" transform="matrix(&st17;  86.96  330.34 )" ewd:textID="11">后</text>
		<text style="font-size:6px;font-family:'NSimSun';" transform="matrix(&st17;  129.45  331.65 )" ewd:textID="2">前</text>
		<text style="font-size:6px;font-family:'NSimSun';" transform="matrix(&st17;  316.42  330.34 )" ewd:textID="11">后</text>
		<text style="font-size:6px;font-family:'NSimSun';" transform="matrix(&st17;  350.41  331.65 )" ewd:textID="2">前</text>
		<text style="font-size:6px;font-family:'NSimSun';" transform="matrix(&st17;  418.4  328.16 )" ewd:textID="14">上</text>
		<text style="font-size:6px;font-family:'NSimSun';" transform="matrix(&st17;  452.4  331.58 )" ewd:textID="1">下</text>
		<text style="font-size:6px;font-family:'NSimSun';" transform="matrix(&st16; 77.60 352.20)" ewd:textID="12" ewd:horAlign="center">座椅靠背倾角调节开关<tspan x="0 " dy="6.0"></tspan></text>
		<text style="font-size:6px;font-family:'NSimSun';" transform="matrix(&st16; 319.81 352.20)" ewd:textID="13" ewd:horAlign="center">滑动开关<tspan x="0 " dy="6.0"></tspan></text>
		<text style="font-size:6px;font-family:'NSimSun';" transform="matrix(&st16; 421.80 352.20)" ewd:textID="9" ewd:horAlign="center">升降开关<tspan x="0 " dy="6.0"></tspan></text>
		<text style="font-size:6px;font-family:'NSimSun';" transform="matrix(&st16;  359.52  247.94 )">E1</text>
		<text style="font-size:6px;font-family:'NSimSun';" transform="matrix(&st16;  478.5  247.94 )">B2</text>
		<text style="font-size:6px;font-family:'NSimSun';" transform="matrix(&st16;  53.31  236.06 )">8</text>
		<text style="font-size:6px;font-family:'NSimSun';" transform="matrix(&st16;  291.27  383.92 )">2</text>
		<text style="font-size:6px;font-family:'NSimSun';" transform="matrix(&st16;  347.65  236.06 )">12</text>
		<text style="font-size:6px;font-family:'NSimSun';" transform="matrix(&st16;  359.25  383.92 )">5</text>
		<text style="font-size:6px;font-family:'NSimSun';" transform="matrix(&st16;  393.25  383.92 )">3</text>
		<text style="font-size:6px;font-family:'NSimSun';" transform="matrix(&st16;  461.24  383.92 )">4</text>
		<text style="font-size:6px;font-family:'NSimSun';" transform="matrix(&st16;  469.74  236.06 )">7</text>
		<text style="font-size:6px;font-family:'NSimSun';" transform="matrix(&st16;  61.8  383.92 )">9</text>
		<text style="font-size:6px;font-family:'NSimSun';" transform="matrix(&st16;  135.19  383.92 )">10</text>
		<text style="font-size:6px;font-family:'NSimSun';" transform="matrix(&st16;  220.18  383.92 )">11</text>
		<g ewd:figtype="title">
			<text style="font-size:6px;font-family:'NSimSun';" transform="matrix(&st16;  158.06  228.94 )">T3</text>
			<text style="font-size:6px;font-family:'NSimSun';" transform="matrix(&st16;  158.07  236.05 )" ewd:textID="8">前排电动座椅开关</text>
		</g>
	</g>
	<g ewd:figtype="conn" ewd:figID="3" ewd:code="W2">
		<path style="stroke-width: 1.42 ;&st7;  " d=" M   626.06,   430.96  L   630.03,   430.96  "/>
		<path style="stroke-width: 1.42 ;&st7;  " d=" M   630.03,   439.46  L   626.06,   439.46  "/>
		<path style="stroke-width: 1.42 ;&st7;  " d=" M   626.06,   439.46  L   626.06,   430.96  "/>
		<path style="stroke-width: 1.42 ;&st7;  " d=" M   648.72,   430.96  L   644.76,   430.96  "/>
		<path style="stroke-width: 1.42 ;&st7;  " d=" M   644.76,   439.46  L   648.72,   439.46  "/>
		<path style="stroke-width: 1.42 ;&st7;  " d=" M   648.72,   439.46  L   648.72,   430.96  "/>
		<path style="stroke-width: 1.42 ;&st7;   " d=" M   637.39,   443.71  C   642.09    443.71    645.89    439.91    645.89    435.21  "/>
		<path style="stroke-width: 1.42 ;&st7;   " d=" M   645.89,   435.21  C   645.89    430.52    642.09    426.71    637.39    426.71  "/>
		<path style="stroke-width: 1.42 ;&st7;   " d=" M   637.39,   426.71  C   632.70    426.71    628.89    430.52    628.89    435.21  "/>
		<path style="stroke-width: 1.42 ;&st7;   " d=" M   628.89,   435.21  C   628.89    439.91    632.70    443.71    637.39    443.71  "/>
		<text style="font-size:6px;font-family:'NSimSun';" transform="matrix(&st16;  634.66  437.18 )">M</text>
		<text style="font-size:6px;font-family:'NSimSun';" transform="matrix(&st16;  619.88  431.52 )">2</text>
		<text style="font-size:6px;font-family:'NSimSun';" transform="matrix(&st16;  651.31  431.52 )">1</text>
		<g ewd:figtype="title">
			<text style="font-size:6px;font-family:'NSimSun';" transform="matrix(&st16;  625.49  458.43 )" ewd:textID="5">前排电动座椅腰部支撑电动机<tspan x="0 " dy="6.0"></tspan></text>
			<text style="font-size:6px;font-family:'NSimSun';" transform="matrix(&st16;  625.48  451.6 )">W2</text>
		</g>
	</g>
	<g ewd:figtype="conn" ewd:figID="4" ewd:code="T2">
		<path style="stroke-width: 1.42 ;&st7;  " d=" M   444.76,   439.46  L   444.76,   430.96  "/>
		<path style="stroke-width: 1.42 ;&st7;  " d=" M   440.79,   439.46  L   444.76,   439.46  "/>
		<path style="stroke-width: 1.42 ;&st7;  " d=" M   444.76,   430.96  L   440.79,   430.96  "/>
		<path style="stroke-width: 1.42 ;&st7;  " d=" M   422.10,   439.46  L   422.10,   430.96  "/>
		<path style="stroke-width: 1.42 ;&st7;  " d=" M   426.06,   439.46  L   422.10,   439.46  "/>
		<path style="stroke-width: 1.42 ;&st7;  " d=" M   422.10,   430.96  L   426.06,   430.96  "/>
		<path style="stroke-width: 1.42 ;&st7;   " d=" M   433.43,   443.71  C   438.12    443.71    441.93    439.91    441.93    435.21  "/>
		<path style="stroke-width: 1.42 ;&st7;   " d=" M   441.93,   435.21  C   441.93    430.52    438.12    426.71    433.43    426.71  "/>
		<path style="stroke-width: 1.42 ;&st7;   " d=" M   433.43,   426.71  C   428.73    426.71    424.93    430.52    424.93    435.21  "/>
		<path style="stroke-width: 1.42 ;&st7;   " d=" M   424.93,   435.21  C   424.93    439.91    428.73    443.71    433.43    443.71  "/>
		<text style="font-size:6px;font-family:'NSimSun';" transform="matrix(&st16;  430.7  437.18 )">M</text>
		<text style="font-size:6px;font-family:'NSimSun';" transform="matrix(&st16;  415.91  431.52 )">2</text>
		<text style="font-size:6px;font-family:'NSimSun';" transform="matrix(&st16;  447.34  431.52 )">1</text>
		<g ewd:figtype="title">
			<text style="font-size:6px;font-family:'NSimSun';" transform="matrix(&st16;  421.52  458.43 )" ewd:textID="4">前排电动座椅升降位置电动机<tspan x="0 " dy="6.0"></tspan></text>
			<text style="font-size:6px;font-family:'NSimSun';" transform="matrix(&st16;  421.52  451.6 )">T2</text>
		</g>
	</g>
	<g ewd:figtype="conn" ewd:figID="5" ewd:code="T1">
		<path style="stroke-width: 1.42 ;&st7;  " d=" M   342.78,   439.46  L   342.78,   430.96  "/>
		<path style="stroke-width: 1.42 ;&st7;  " d=" M   338.81,   439.46  L   342.78,   439.46  "/>
		<path style="stroke-width: 1.42 ;&st7;  " d=" M   342.78,   430.96  L   338.81,   430.96  "/>
		<path style="stroke-width: 1.42 ;&st7;  " d=" M   320.11,   439.46  L   320.11,   430.96  "/>
		<path style="stroke-width: 1.42 ;&st7;  " d=" M   324.08,   439.46  L   320.11,   439.46  "/>
		<path style="stroke-width: 1.42 ;&st7;  " d=" M   320.11,   430.96  L   324.08,   430.96  "/>
		<path style="stroke-width: 1.42 ;&st7;   " d=" M   331.44,   443.71  C   336.14    443.71    339.94    439.91    339.94    435.21  "/>
		<path style="stroke-width: 1.42 ;&st7;   " d=" M   339.94,   435.21  C   339.94    430.52    336.14    426.71    331.44    426.71  "/>
		<path style="stroke-width: 1.42 ;&st7;   " d=" M   331.44,   426.71  C   326.75    426.71    322.95    430.52    322.95    435.21  "/>
		<path style="stroke-width: 1.42 ;&st7;   " d=" M   322.95,   435.21  C   322.95    439.91    326.75    443.71    331.44    443.71  "/>
		<text style="font-size:6px;font-family:'NSimSun';" transform="matrix(&st16;  328.71  437.18 )">M</text>
		<text style="font-size:6px;font-family:'NSimSun';" transform="matrix(&st16;  313.93  431.52 )">1</text>
		<text style="font-size:6px;font-family:'NSimSun';" transform="matrix(&st16;  345.36  431.52 )">4</text>
		<g ewd:figtype="title">
			<text style="font-size:6px;font-family:'NSimSun';" transform="matrix(&st16;  319.53  451.6 )">T1</text>
			<text style="font-size:6px;font-family:'NSimSun';" transform="matrix(&st16;  319.54  458.43 )" ewd:textID="7">前排电动座椅升降位置电动机<tspan x="0 " dy="6.0"></tspan></text>
		</g>
	</g>
	<g ewd:figtype="conn" ewd:figID="6" ewd:code="W1">
		<path style="stroke-width: 1.42 ;&st7;  " d=" M   121.81,   541.44  L   121.81,   532.95  "/>
		<path style="stroke-width: 1.42 ;&st7;  " d=" M   117.85,   541.44  L   121.81,   541.44  "/>
		<path style="stroke-width: 1.42 ;&st7;  " d=" M   121.81,   532.95  L   117.85,   532.95  "/>
		<path style="stroke-width: 1.42 ;&st7;  " d=" M    99.15,   541.44  L    99.15,   532.95  "/>
		<path style="stroke-width: 1.42 ;&st7;  " d=" M   103.12,   541.44  L    99.15,   541.44  "/>
		<path style="stroke-width: 1.42 ;&st7;  " d=" M    99.15,   532.95  L   103.12,   532.95  "/>
		<path style="stroke-width: 1.42 ;&st7;   " d=" M   110.48,   545.69  C   115.18    545.69    118.98    541.89    118.98    537.20  "/>
		<path style="stroke-width: 1.42 ;&st7;   " d=" M   118.98,   537.20  C   118.98    532.50    115.18    528.70    110.48    528.70  "/>
		<path style="stroke-width: 1.42 ;&st7;   " d=" M   110.48,   528.70  C   105.79    528.70    101.98    532.50    101.98    537.20  "/>
		<path style="stroke-width: 1.42 ;&st7;   " d=" M   101.98,   537.20  C   101.98    541.89    105.79    545.69    110.48    545.69  "/>
		<text style="font-size:6px;font-family:'NSimSun';" transform="matrix(&st16;  107.75  539.16 )">M</text>
		<text style="font-size:6px;font-family:'NSimSun';" transform="matrix(&st16;  92.97  533.51 )">1</text>
		<text style="font-size:6px;font-family:'NSimSun';" transform="matrix(&st16;  124.4  533.51 )">4</text>
		<g ewd:figtype="title">
			<text style="font-size:6px;font-family:'NSimSun';" transform="matrix(&st16;  98.58  560.41 )" ewd:textID="6">前排电动座椅靠背倾角位置电动机<tspan x="0 " dy="6.0"></tspan></text>
			<text style="font-size:6px;font-family:'NSimSun';" transform="matrix(&st16;  98.57  553.59 )">W1</text>
		</g>
	</g>
	<g ewd:figtype="conn" ewd:figID="7" ewd:code="T6">
		<path style="stroke-width: 1.42 ;&st7;  " d=" M   220.96,   443.71  L   237.96,   443.71  L   237.96,   460.71  L   220.96,   460.71  L   220.96,   443.71  "/>
		<path style="stroke-width: 0.85 ;&st7;  " d=" M   229.46,   443.71  L   229.46,   460.71  "/>
		<text style="font-size:6px;font-family:'NSimSun';" transform="matrix(&st16;  223.28  468.9 )">3</text>
		<text style="font-size:6px;font-family:'NSimSun';" transform="matrix(&st16;  223.28  440.02 )">8</text>
		<g ewd:figtype="title">
			<text style="font-size:6px;font-family:'NSimSun';" transform="matrix(&st17;  252.68  463.61 )" ewd:textID="10">9 号接线连接器<tspan x="0 " dy="6.0"></tspan></text>
			<text style="font-size:6px;font-family:'NSimSun';" transform="matrix(&st17;  245.85  463.61 )">T6</text>
		</g>
	</g>
	<g ewd:figtype="jb" ewd:figID="8" ewd:code="3">
		<path style="stroke-width: 0.85 ;&st7;  " d=" M    59.49,    69.77  L    59.49,    95.27  "/>
		<path style="stroke-width: 1.42 ;&st7;  " d=" M    61.61,    95.27  L    57.37,    95.27  "/>
		<path style="stroke-width: 1.42 ;&st7;  " d=" M    61.61,   103.77  L    57.37,   103.77  "/>
		<path style="stroke-width: 1.42 ;&st7;   " d=" M    59.49,    66.94  C    62.23     65.33     63.14     61.80     61.53     59.06  "/>
		<path style="stroke-width: 1.42 ;&st7;   " d=" M    61.53,    59.06  C    61.01     58.18     60.37     57.55     59.49     57.03  "/>
		<path style="stroke-width: 1.42 ;&st7;   " d=" M    59.49,    47.11  C    56.75     48.72     55.84     52.25     57.45     54.99  "/>
		<path style="stroke-width: 1.42 ;&st7;   " d=" M    57.45,    54.99  C    57.97     55.87     58.61     56.51     59.49     57.03  "/>
		<path style="stroke-width: 1.42 ;&st7;   " d=" M    57.37,    95.27  C    55.02     95.27     53.12     97.17     53.12     99.52  "/>
		<path style="stroke-width: 1.42 ;&st7;   " d=" M    53.12,    99.52  C    53.12    101.87     55.02    103.77     57.37    103.77  "/>
		<path style="stroke-width: 1.42 ;&st7;   " d=" M    61.61,   103.77  C    63.96    103.77     65.86    101.87     65.86     99.52  "/>
		<path style="stroke-width: 1.42 ;&st7;   " d=" M    65.86,    99.52  C    65.86     97.17     63.96     95.27     61.61     95.27  "/>
		<path style="stroke-width: 0.85 ;&st7;   " d=" M    60.91,    68.36  C    60.91     67.57     60.27     66.94     59.49     66.94  "/>
		<path style="stroke-width: 0.85 ;&st7;   " d=" M    59.49,    66.94  C    58.71     66.94     58.07     67.57     58.07     68.36  "/>
		<path style="stroke-width: 0.85 ;&st7;   " d=" M    58.07,    68.36  C    58.07     69.14     58.71     69.77     59.49     69.77  "/>
		<path style="stroke-width: 0.85 ;&st7;   " d=" M    59.49,    69.77  C    60.27     69.77     60.91     69.14     60.91     68.36  "/>
		<path style="stroke-width: 0.85 ;&st7;   " d=" M    60.91,    45.69  C    60.91     44.91     60.27     44.28     59.49     44.28  "/>
		<path style="stroke-width: 0.85 ;&st7;   " d=" M    59.49,    44.28  C    58.71     44.28     58.07     44.91     58.07     45.69  "/>
		<path style="stroke-width: 0.85 ;&st7;   " d=" M    58.07,    45.69  C    58.07     46.48     58.71     47.11     59.49     47.11  "/>
		<path style="stroke-width: 0.85 ;&st7;   " d=" M    59.49,    47.11  C    60.27     47.11     60.91     46.48     60.91     45.69  "/>
		<path style="stroke-width: 0.28 ;&st9;  " d=" M    59.49,    90.37  L    56.66,    87.54  L    56.66,    91.79  L    59.49,    94.62  L    62.32,    91.79  L    62.32,    87.54  L    59.49,    90.37  "/>
		<path style="stroke-width: 1.42 ;&st7;  " d=" M    46.74,    35.78  L    46.74,    78.27  L    72.24,    78.27  L    72.24,    35.78  L    46.74,    35.78  "/>
		<text style="font-size:6px;font-family:'NSimSun';" transform="matrix(&st16;  53.31  86.47 )">2</text>
		<text style="font-size:6px;font-family:'NSimSun';" transform="matrix(&st16;  75.91  56.17 )">30A <tspan x="0 " dy="6.0">P-SEAT</tspan></text>
		<text style="font-size:6px;font-family:'NSimSun';" transform="matrix(&st16;  55.83  101.49 )">3E</text>
		<text style="font-size:6px;font-family:'NSimSun';" transform="matrix(&st16;  45.88  101.49 )">10</text>
		<text style="font-size:6px;font-family:'NSimSun';" transform="matrix(&st16;  51.45  32.08 )">(BAT)</text>
	</g>
	<g ewd:figtype="w2w" ewd:figID="9" ewd:code="LT1">
		<path style="stroke-width: 1.42 ;&st7;  " d=" M    63.74,   180.82  L    59.49,   176.57  L    55.24,   180.82  "/>
		<path style="stroke-width: 1.42 ;&st7;  " d=" M    63.74,   177.42  L    59.49,   173.17  L    55.24,   177.42  "/>
		<text style="font-size:6px;font-family:'NSimSun';" transform="matrix(&st16;  46.86  169.48 )">1</text>
	</g>
	<g ewd:figtype="w2w" ewd:figID="10" ewd:code="WT1">
		<path style="stroke-width: 1.42 ;&st7;  " d=" M    63.74,   417.65  L    67.99,   421.90  L    72.24,   417.65  "/>
		<path style="stroke-width: 1.42 ;&st7;  " d=" M    72.24,   421.05  L    67.99,   425.30  L    63.74,   421.05  "/>
		<text style="font-size:6px;font-family:'NSimSun';" transform="matrix(&st16;  55.36  432.93 )">2</text>
	</g>
	<g ewd:figtype="w2w" ewd:figID="11" ewd:code="WT1">
		<path style="stroke-width: 1.42 ;&st7;  " d=" M   140.23,   417.65  L   144.48,   421.90  L   148.73,   417.65  "/>
		<path style="stroke-width: 1.42 ;&st7;  " d=" M   148.73,   421.05  L   144.48,   425.30  L   140.23,   421.05  "/>
		<text style="font-size:6px;font-family:'NSimSun';" transform="matrix(&st16;  131.84  432.93 )">3</text>
	</g>
	<g ewd:figtype="w2w" ewd:figID="12" ewd:code="LT1">
		<path style="stroke-width: 1.42 ;&st7;  " d=" M   225.21,   528.13  L   229.46,   532.38  L   233.71,   528.13  "/>
		<path style="stroke-width: 1.42 ;&st7;  " d=" M   233.71,   531.53  L   229.46,   535.78  L   225.21,   531.53  "/>
		<text style="font-size:6px;font-family:'NSimSun';" transform="matrix(&st16;  216.83  543.41 )">5</text>
	</g>
	<g ewd:figtype="w2w" ewd:figID="13" ewd:code="WT1">
		<path style="stroke-width: 1.42 ;&st7;  " d=" M   599.15,   358.16  L   603.40,   362.41  L   607.65,   358.16  "/>
		<path style="stroke-width: 1.42 ;&st7;  " d=" M   607.65,   361.56  L   603.40,   365.81  L   599.15,   361.56  "/>
		<text style="font-size:6px;font-family:'NSimSun';" transform="matrix(&st16;  590.77  373.44 )">4</text>
	</g>
	<g ewd:figtype="w2w" ewd:figID="14" ewd:code="WT1">
		<path style="stroke-width: 1.42 ;&st7;  " d=" M   667.14,   358.16  L   671.39,   362.41  L   675.64,   358.16  "/>
		<path style="stroke-width: 1.42 ;&st7;  " d=" M   675.64,   361.56  L   671.39,   365.81  L   667.14,   361.56  "/>
		<text style="font-size:6px;font-family:'NSimSun';" transform="matrix(&st16;  658.76  373.44 )">1</text>
	</g>
	<g ewd:figtype="gp" ewd:figID="15" ewd:code="LB">
		<path style="stroke-width: 0.85 ;&st7;  " d=" M   226.63,   707.17  L   232.29,   707.17  "/>
		<path style="stroke-width: 0.85 ;&st7;  " d=" M   228.05,   710.00  L   230.88,   710.00  "/>
		<path style="stroke-width: 0.85 ;&st7;  " d=" M   220.96,   701.50  L   237.96,   701.50  "/>
		<path style="stroke-width: 0.85 ;&st7;  " d=" M   229.46,   697.25  L   229.46,   701.50  "/>
		<path style="stroke-width: 0.85 ;&st7;  " d=" M   225.21,   704.33  L   233.71,   704.33  "/>
	</g>
	<path style="stroke-width: 1.42 ;&st7;  " d=" M    67.99,   171.76  L    59.49,   171.76  "/>
	<path style="stroke-width: 1.42 ;&st7;  " d=" M   135.98,   426.71  L   144.48,   426.71  "/>
	<path style="stroke-width: 1.42 ;&st7;  " d=" M    59.49,   426.71  L    67.99,   426.71  "/>
	<path style="stroke-width: 1.42 ;&st7;  " d=" M   594.90,   367.22  L   603.40,   367.22  "/>
	<path style="stroke-width: 1.42 ;&st7;  " d=" M   662.89,   367.22  L   671.39,   367.22  "/>
	<text style="font-size:6px;font-family:'NSimSun';" transform="matrix(&st17;  55.79  199.72 )">W</text>
	<text style="font-size:6px;font-family:'NSimSun';" transform="matrix(&st17;  225.77  411.42 )">W-B</text>
	<text style="font-size:6px;font-family:'NSimSun';" transform="matrix(&st17;  55.79  139.57 )">V</text>
	<text style="font-size:6px;font-family:'NSimSun';" transform="matrix(&st17;  225.77  602.64 )">W-B</text>
	<text style="font-size:6px;font-family:'NSimSun';" transform="matrix(&st17;  140.78  406.96 )">P</text>
	<text style="font-size:6px;font-family:'NSimSun';" transform="matrix(&st17;  64.29  409.25 )">LG</text>
	<text style="font-size:6px;font-family:'NSimSun';" transform="matrix(&st17;  140.78  470.7 )">P</text>
	<text style="font-size:6px;font-family:'NSimSun';" transform="matrix(&st17;  64.29  472.99 )">LG</text>
	<text style="font-size:6px;font-family:'NSimSun';" transform="matrix(&st17;  293.75  409.29 )">GR</text>
	<text style="font-size:6px;font-family:'NSimSun';" transform="matrix(&st17;  361.74  407.04 )">L</text>
	<text style="font-size:6px;font-family:'NSimSun';" transform="matrix(&st17;  395.74  407.27 )">V</text>
	<text style="font-size:6px;font-family:'NSimSun';" transform="matrix(&st17;  463.73  407.43 )">G</text>
	<text style="font-size:6px;font-family:'NSimSun';" transform="matrix(&st17;  667.69  407.27 )">V</text>
	<text style="font-size:6px;font-family:'NSimSun';" transform="matrix(&st17;  599.7  407.04 )">L</text>
	<text style="font-size:6px;font-family:'NSimSun';" transform="matrix(&st17;  667.69  339.28 )">V</text>
	<text style="font-size:6px;font-family:'NSimSun';" transform="matrix(&st17;  599.7  339.05 )">L</text>
	<text style="font-size:6px;font-family:'NSimSun';" transform="matrix(&st17;  225.77  504.91 )">W-B</text>
	<text style="font-size:6px;font-family:'NSimSun';" transform="matrix(&st16;  489.18  185.06 )">SB</text>
	<text style="font-size:6px;font-family:'NSimSun';" transform="matrix(&st16;  537.46  168.06 )">W-B</text>
	<text style="font-size:6px;font-family:'NSimSun';" transform="matrix(&st16;  540.17  185.06 )">SB</text>
	<text style="font-size:6px;font-family:'NSimSun';" transform="matrix(&st16;  486.46  168.06 )">W-B</text>
	<path style="stroke-width: 1.42 ;&st7;  " d=" M   220.96,   537.20  L   229.46,   537.20  "/>
	<a ewd:figtype="w2w" style="cursor:pointer;" ewd:pinNo="1" ewd:code="LT1" ewd:figID="9">
		<path style="&st2;" d=" M    67.99,   163.26  L    50.99,   163.26  L    50.99,   171.76  L    67.99,   171.76  L    67.99,   163.26 "/>
		<text style="&st8;" transform="matrix(&st16;  54.34  169.63 )"><tspan x="0" style="font-size:6px;font-family:'NSimSun';" y="0">LT1</tspan></text>
	</a>
	<a ewd:figtype="w2w" style="cursor:pointer;" ewd:pinNo="2" ewd:code="WT1" ewd:figID="10">
		<path style="&st2;" d=" M    76.49,   426.71  L    59.49,   426.71  L    59.49,   435.21  L    76.49,   435.21  L    76.49,   426.71 "/>
		<text style="&st8;" transform="matrix(&st16;  61.97  433.08 )"><tspan x="0" style="font-size:6px;font-family:'NSimSun';" y="0">WT1</tspan></text>
	</a>
	<a ewd:figtype="w2w" style="cursor:pointer;" ewd:pinNo="3" ewd:code="WT1" ewd:figID="11">
		<path style="&st2;" d=" M   152.97,   426.71  L   135.98,   426.71  L   135.98,   435.21  L   152.97,   435.21  L   152.97,   426.71 "/>
		<text style="&st8;" transform="matrix(&st16;  138.46  433.08 )"><tspan x="0" style="font-size:6px;font-family:'NSimSun';" y="0">WT1</tspan></text>
	</a>
	<a ewd:figtype="w2w" style="cursor:pointer;" ewd:pinNo="5" ewd:code="LT1" ewd:figID="12">
		<path style="&st2;" d=" M   237.96,   537.20  L   220.96,   537.20  L   220.96,   545.69  L   237.96,   545.69  L   237.96,   537.20 "/>
		<text style="&st8;" transform="matrix(&st16;  224.31  543.57 )"><tspan x="0" style="font-size:6px;font-family:'NSimSun';" y="0">LT1</tspan></text>
	</a>
	<a ewd:figtype="w2w" style="cursor:pointer;" ewd:pinNo="4" ewd:code="WT1" ewd:figID="13">
		<path style="&st2;" d=" M   611.90,   367.22  L   594.90,   367.22  L   594.90,   375.72  L   611.90,   375.72  L   611.90,   367.22 "/>
		<text style="&st8;" transform="matrix(&st16;  597.38  373.59 )"><tspan x="0" style="font-size:6px;font-family:'NSimSun';" y="0">WT1</tspan></text>
	</a>
	<a ewd:figtype="w2w" style="cursor:pointer;" ewd:pinNo="1" ewd:code="WT1" ewd:figID="14">
		<path style="&st2;" d=" M   679.89,   367.22  L   662.89,   367.22  L   662.89,   375.72  L   679.89,   375.72  L   679.89,   367.22 "/>
		<text style="&st8;" transform="matrix(&st16;  665.37  373.59 )"><tspan x="0" style="font-size:6px;font-family:'NSimSun';" y="0">WT1</tspan></text>
	</a>
	<a ewd:figtype="gp" style="cursor:pointer;" ewd:code="LB" ewd:figID="15">
		<path style="&st2;" d=" M   218.84,   681.67  L   240.08,   681.67  L   229.46,   697.25  L   218.84,   681.67 "/>
		<text style="&st8;" transform="matrix(&st16;  225.81  689.46 )"><tspan x="0" style="font-size:6px;font-family:'NSimSun';" y="0">LB</tspan></text>
	</a>
</g>
</svg>