<?xml version="1.0" encoding="utf-8"?>
<!DOCTYPE svg PUBLIC "-//W3C//DTD SVG 1.0//EN" "http://www.w3.org/TR/2001/REC-SVG-20010904/DTD/svg10.dtd"[
	<!ENTITY ns_flows "http://ns.adobe.com/Flows/1.0/">
	<!ENTITY ns_svg "http://www.w3.org/2000/svg">
	<!ENTITY ns_xlink "http://www.w3.org/1999/xlink">
	<!ENTITY st0 "font-size:7px;font-family:'NSimSun';adobe-font-script:japanese;">
	<!ENTITY st1 "font-size:6px;font-family:'NSimSun';">
	<!-- White fill  -->
	<!ENTITY st2 "fill:#FFFFFF;stroke:#000000; stroke-width:1.41;stroke-linecap:round;stroke-linejoin:round;">
	<!-- Yellow fill  -->
	<!ENTITY st3 "fill:#FFFFCC;stroke:#FFFFCC; stroke-width:0.1;stroke-linecap:round;stroke-linejoin:round;">
	<!-- Gray fill  -->
	<!ENTITY st4 "fill:#CCCCCC;stroke:#CCCCCC; stroke-width:0.1;stroke-linecap:round;stroke-linejoin:round;">
	<!-- Light-blue fill -->
	<!ENTITY st5 "fill:#CCECF4;stroke:#000000; stroke-width:1.133;stroke-linecap:round;stroke-linejoin:round;">
	<!ENTITY st6 "fill:none;stroke-linecap:butt; stroke-linejoin:round;">
	<!ENTITY st7 "fill:none;stroke:#000000;stroke-linecap:round;stroke-linejoin:round;">
	<!ENTITY st8 "enable-background:new    ;">
	<!-- Black fill -->
	<!ENTITY st9 "fill:#000000;stroke:#000000; stroke-linecap:round;stroke-linejoin:round;">
	<!-- SRS note   -->
	<!ENTITY st10 "font-size:9px;font-family:'NSimSun';">
	<!ENTITY st11 "font-size:9px;font-family:'NSimSun';">
	<!ENTITY st12 "font-size:6px;font-family:'NSimSun';">
	<!ENTITY st13 "fill:none;stroke:#ff0000;stroke-linecap:round;stroke-linejoin:round;">
	<!-- Yellow fill  -->
	<!ENTITY st14 "fill:#FFFF00;stroke:#FFFF00; stroke-width:0.1;stroke-linecap:round;stroke-linejoin:round;">
	<!ENTITY st15 "font-size:6px;font-family:'NSimSun';adobe-font-script:japanese;">
	<!ENTITY st16 "1.00 0.00 0.00 1.00">
	<!ENTITY st17 "0.00 -1.00 1.00 0.00">
	<!ENTITY st18 "font-size:6px;font-family:'NSimSun';">
	<!ENTITY st19 "font-size:9px;font-family:'NSimSun';">
	<!ENTITY st20 "font-size:6px;font-family:'NSimSun';adobe-font-script:japanese;">
	<!ENTITY st21 "font-size:7px;font-family:'NSimSun';adobe-font-script:japanese;">
	<!ATTLIST svg
		xmlns:ewd CDATA #FIXED "http://shcl.co.jp/ewd"
		xmlns:a CDATA #FIXED "http://ns.adobe.com/AdobeSVGViewerExtensions/3.0/"
		ewd:ver CDATA #IMPLIED
	>
	<!ATTLIST a
		ewd:lineID CDATA #IMPLIED
		ewd:groupID CDATA #IMPLIED
		ewd:figtype CDATA #IMPLIED
		ewd:code CDATA #IMPLIED
		ewd:figID CDATA #IMPLIED
		ewd:pinNo CDATA #IMPLIED
		ewd:comment CDATA #IMPLIED >
	<!ATTLIST g
		ewd:lineID CDATA #IMPLIED
		ewd:groupID CDATA #IMPLIED
		ewd:figtype CDATA #IMPLIED
		ewd:code CDATA #IMPLIED
		ewd:figID CDATA #IMPLIED
		ewd:pinNo CDATA #IMPLIED
		ewd:comment CDATA #IMPLIED >
	<!ATTLIST text
		ewd:textID CDATA #IMPLIED
		ewd:horAlign CDATA #IMPLIED >
	<!ATTLIST title
		ewd:textID CDATA #IMPLIED >
]>
<!-- Generator: Shintec Hozumi YS   -->
<svg onload="call_execInitLoadProc_svg('system')" style="overflow:visible;  enable-background:new 0 0 2473.612 710.000" viewBox="0 0 2472.081 710.000" height="710.000" width="2472.081" xml:space="preserve" ewd:ver="2.1.2.6F" xmlns="&ns_svg;" xmlns:ewd="http://shcl.co.jp/ewd" xmlns:a="http://ns.adobe.com/AdobeSVGViewerExtensions/3.0/" xmlns:xlink="&ns_xlink;"><script type="text/javascript" xlink:href="../../../../../system/js/ewd/fig/svgfig.js" xmlns:xlink="http://www.w3.org/1999/xlink" />
<g id="ewd_top"><a ewd:figtype="conn" style="cursor:pointer;" ewd:code="G9" ewd:figID="1"><path style="&st5;" d=" M   883.85,   460.71  L   883.85,   545.69  L   968.84,   545.69  L   968.84,   460.71  L   883.85,   460.71 " /><title ewd:textID="7">右前电动窗升降器马达总成</title></a><a ewd:figtype="rb" style="cursor:pointer;" ewd:code="FUSE36" ewd:figID="2"><path style="fill:#CCECF4;stroke:#000000; stroke-width:0; stroke-linecap:round;stroke-linejoin:round; " d=" M   114.73,    35.78  L   114.73,    78.27  L   140.23,    78.27  L   140.23,    35.78  L   114.73,    35.78 " /></a><a ewd:figtype="conn" style="cursor:pointer;" ewd:code="H6" ewd:figID="3"><path style="&st5;" d=" M   416.43,    35.78  L   416.43,   103.77  L  1529.74,   103.77  L  1529.74,    35.78  L   416.43,    35.78 " /><title ewd:textID="11">电动窗升降器主开关总成</title></a><a ewd:figtype="conn" style="cursor:pointer;" ewd:code="H5" ewd:figID="4"><path style="&st5;" d=" M  1444.76,   197.25  L  1529.74,   197.25  L  1529.74,   265.24  L  1444.76,   265.24  L  1444.76,   197.25 " /><title ewd:textID="6">左前电动车窗升降器电动机总成</title></a><a ewd:figtype="conn" style="cursor:pointer;" ewd:code="J1" ewd:figID="5"><path style="&st5;" d=" M  1308.78,   367.22  L  1427.76,   367.22  L  1427.76,   426.71  L  1308.78,   426.71  L  1308.78,   367.22 " /><title ewd:textID="15">右后电动窗升降器开关总成</title></a><a ewd:figtype="conn" style="cursor:pointer;" ewd:code="K2" ewd:figID="6"><path style="&st5;" d=" M  1104.82,   486.20  L  1104.82,   571.19  L  1189.80,   571.19  L  1189.80,   486.20  L  1104.82,   486.20 " /><title ewd:textID="12">左后电动窗升降器马达总成</title></a><a ewd:figtype="conn" style="cursor:pointer;" ewd:code="J2" ewd:figID="7"><path style="&st5;" d=" M  1308.78,   486.20  L  1308.78,   571.19  L  1393.77,   571.19  L  1393.77,   486.20  L  1308.78,   486.20 " /><title ewd:textID="13">右后电动窗升降器马达总成</title></a><a ewd:figtype="conn" style="cursor:pointer;" ewd:code="G5" ewd:figID="8"><path style="&st5;" d=" M   883.85,   341.73  L  1002.83,   341.73  L  1002.83,   401.22  L   883.85,   401.22  L   883.85,   341.73 " /><title ewd:textID="8">右前电动窗升降器开关总成</title></a><a ewd:figtype="conn" style="cursor:pointer;" ewd:code="K1" ewd:figID="9"><path style="&st5;" d=" M  1104.82,   367.22  L  1223.80,   367.22  L  1223.80,   426.71  L  1104.82,   426.71  L  1104.82,   367.22 " /><title ewd:textID="14">左后电动窗升降器开关总成</title></a><a ewd:figtype="conn" style="cursor:pointer;" ewd:code="H10" ewd:figID="10"><path style="&st5;" d=" M   543.91,   171.76  L   543.91,   290.74  L   773.37,   290.74  L   773.37,   171.76  L   543.91,   171.76 " /><title ewd:textID="6">左前电动车窗升降器电动机总成</title></a><a ewd:figtype="conn" style="cursor:pointer;" ewd:code="L1" ewd:figID="11"><path style="&st5;" d=" M  2235.13,   392.72  L  2235.13,   358.73  L  2218.13,   358.73  L  2218.13,   392.72  L  2235.13,   392.72 " /><title ewd:textID="4">左前车门门控灯开关总成</title></a><a ewd:figtype="rb" style="cursor:pointer;" ewd:code="FUSE5" ewd:figID="12"><path style="fill:#CCECF4;stroke:#000000; stroke-width:0; stroke-linecap:round;stroke-linejoin:round; " d=" M  1627.48,    35.78  L  1627.48,    78.27  L  1652.97,    78.27  L  1652.97,    35.78  L  1627.48,    35.78 " /></a><a ewd:figtype="conn" style="cursor:pointer;" ewd:code="L41" ewd:figID="13"><path style="&st5;" d=" M  2447.59,   392.72  L  2447.59,   358.73  L  2430.59,   358.73  L  2430.59,   392.72  L  2447.59,   392.72 " /><title ewd:textID="5">右前车门门控灯开关总成</title></a><a ewd:figtype="conn" style="cursor:pointer;" ewd:code="E36" ewd:figID="14"><path style="&st5;" d=" M  1861.19,    35.78  L  1861.19,    86.77  L  2456.09,    86.77  L  2456.09,    35.78  L  1861.19,    35.78 " /><title ewd:textID="9">主车身 ECU</title></a><a ewd:figtype="jb" style="cursor:pointer;" ewd:code="3" ewd:figID="17"><path style="&st4; " d=" M    33.99,   154.76  L   373.94,   154.76  L   373.94,   358.73  L    33.99,   358.73  L    33.99,   154.76  " /></a><a ewd:figtype="jb" style="cursor:pointer;" ewd:code="1" ewd:figID="18"><path style="&st4; " d=" M   110.48,   103.77  L   135.98,   103.77  L   135.98,   112.27  L   110.48,   112.27  L   110.48,   103.77  " /></a><a ewd:figtype="jb" style="cursor:pointer;" ewd:code="3" ewd:figID="19"><path style="&st4; " d=" M  2209.63,    86.77  L  2209.63,   137.76  L  2337.11,   137.76  L  2337.11,    86.77  L  2209.63,    86.77  " /></a><a ewd:figtype="jb" style="cursor:pointer;" ewd:code="3" ewd:figID="20"><path style="&st4; " d=" M  1716.71,   112.27  L  1776.20,   112.27  L  1776.20,    35.78  L  1716.71,    35.78  L  1716.71,   112.27  " /></a><a ewd:figtype="jb" style="cursor:pointer;" ewd:code="3" ewd:figID="21"><path style="&st4; " d=" M  1793.20,   146.26  L  2039.66,   146.26  L  2039.66,    86.77  L  1852.69,    86.77  L  1852.69,    35.78  L  1793.20,    35.78  L  1793.20,   146.26  " /></a><a ewd:figtype="fuse" style="cursor:pointer;" ewd:code="FUSE36" ewd:figID="51"><path style="&st7; stroke-width:0;" d=" M   114.73,    35.78  L   114.73,    78.27  L   140.23,    78.27  L   140.23,    35.78  L   114.73,    35.78 " /></a><a ewd:figtype="fuse" style="cursor:pointer;" ewd:code="FUSE63" ewd:figID="52"><path style="&st7; stroke-width:0;" d=" M   123.23,   273.74  L   123.23,   316.23  L   148.73,   316.23  L   148.73,   273.74  L   123.23,   273.74 " /></a><a ewd:figtype="fuse" style="cursor:pointer;" ewd:code="FUSE62" ewd:figID="53"><path style="&st7; stroke-width:0;" d=" M   191.22,   273.74  L   191.22,   316.23  L   216.71,   316.23  L   216.71,   273.74  L   191.22,   273.74 " /></a><a ewd:figtype="fuse" style="cursor:pointer;" ewd:code="FUSE67" ewd:figID="54"><path style="&st7; stroke-width:0;" d=" M   284.70,   316.23  L   284.70,   273.74  L   259.21,   273.74  L   259.21,   316.23  L   284.70,   316.23 " /></a><a ewd:figtype="fuse" style="cursor:pointer;" ewd:code="FUSE61" ewd:figID="55"><path style="&st7; stroke-width:0;" d=" M   318.70,   273.74  L   318.70,   316.23  L   344.19,   316.23  L   344.19,   273.74  L   318.70,   273.74 " /></a><a ewd:figtype="fuse" style="cursor:pointer;" ewd:code="FUSE5" ewd:figID="56"><path style="&st7; stroke-width:0;" d=" M  1627.48,    35.78  L  1627.48,    78.27  L  1652.97,    78.27  L  1652.97,    35.78  L  1627.48,    35.78 " /></a><a ewd:figtype="fuse" style="cursor:pointer;" ewd:code="FUSE47" ewd:figID="57"><path style="&st7; stroke-width:0;" d=" M  1720.96,    35.78  L  1720.96,    78.27  L  1746.46,    78.27  L  1746.46,    35.78  L  1720.96,    35.78 " /></a><a ewd:figtype="fuse" style="cursor:pointer;" ewd:code="FUSE43" ewd:figID="58"><path style="&st7; stroke-width:0;" d=" M  1797.45,    35.78  L  1797.45,    78.27  L  1822.95,    78.27  L  1822.95,    35.78  L  1797.45,    35.78 " /></a><a style="cursor:pointer;" ewd:lineID="1"><path style="stroke:#000000;stroke-width: 5.10 ;&st6;" d=" M   101.98,   358.73  L   101.98,   681.67  " /><path style="stroke:#FFFFFF;stroke-width: 4.53 ;&st6;" d=" M   101.98,   358.73  L   101.98,   681.67  " /><path style="stroke:#000000;stroke-width: 1.13 ;&st6;" d=" M   101.98,   358.73  L   101.98,   681.67  " /></a><a style="cursor:pointer;" ewd:lineID="2"> d=" M   127.48,   112.27  L   127.48,   154.76 
	
		<path style="stroke:#000000;stroke-width: 5.10 ;&st6;" d=" M   127.48,   112.27  L   127.48,   154.76  " /><path style="stroke:#FFFFFF;stroke-width: 4.53 ;&st6;" d=" M   127.48,   112.27  L   127.48,   154.76  " /></a><a style="cursor:pointer;" ewd:lineID="3"><path style="stroke:#00A0C6;stroke-width: 5.10 ;&st6;" d=" M   135.98,   452.21  L   135.98,   613.68  L  1410.76,   613.68  L  1410.76,   426.71  " /></a><a style="cursor:pointer;" ewd:lineID="4"><path style="stroke:#00A0C6;stroke-width: 5.10 ;&st6;" d=" M   135.98,   358.73  L   135.98,   437.48  " /></a><a style="cursor:pointer;" ewd:lineID="5"><path style="stroke:#F668B2;stroke-width: 5.10 ;&st6;" d=" M   203.97,   358.73  L   203.97,   437.48  " /></a><a style="cursor:pointer;" ewd:lineID="6"><path style="stroke:#999999;stroke-width: 5.10 ;&st6;" d=" M   246.46,   452.21  L   246.46,   562.69  L   985.84,   562.69  L   985.84,   401.22  " /></a><a ewd:comment="1" style="cursor:pointer;" ewd:lineID="7"><path style="stroke:#999999;stroke-width: 5.10 ;&st6;" d=" M   246.46,   358.73  L   246.46,   437.48  " /></a><a style="cursor:pointer;" ewd:lineID="8"><path style="stroke:#999999;stroke-width: 5.10 ;&st6;" d=" M   271.95,   358.73  L   271.95,   401.22  L   433.43,   401.22  L   433.43,   177.99  " /></a><a ewd:comment="2" style="cursor:pointer;" ewd:lineID="9"><path style="stroke:#999999;stroke-width: 5.10 ;&st6;" d=" M   331.44,   358.73  L   331.44,   367.22  L   322.95,   375.72  L   305.95,   375.72  L   305.95,   426.71  L   254.96,   426.71  L   246.46,   435.21  L   246.46,   437.48  " /></a><a style="cursor:pointer;" ewd:lineID="10"><path style="stroke:#999999;stroke-width: 5.10 ;&st6;" d=" M   433.43,   121.90  L   433.43,   163.26  " /></a><a ewd:comment="1" style="cursor:pointer;" ewd:lineID="11"><path style="stroke:#999999;stroke-width: 5.10 ;&st6;" d=" M   645.89,   364.96  L   645.89,   426.71  L   331.44,   426.71  L   331.44,   358.73  " /></a><a ewd:comment="1" style="cursor:pointer;" ewd:lineID="12"><path style="stroke:#999999;stroke-width: 5.10 ;&st6;" d=" M   645.89,   290.74  L   645.89,   350.23  " /></a><a ewd:comment="1" style="cursor:pointer;" ewd:lineID="13"><path style="stroke:#7FC97F;stroke-width: 5.10 ;&st6;" d=" M   645.89,   112.83  L   645.89,   171.76  " /></a><a ewd:comment="1" style="cursor:pointer;" ewd:lineID="14"> d=" M   679.89,   112.83  L   679.89,   171.76 
	
		<path style="stroke:#000000;stroke-width: 5.10 ;&st6;" d=" M   679.89,   112.83  L   679.89,   171.76  " /><path style="stroke:#FFFFFF;stroke-width: 4.53 ;&st6;" d=" M   679.89,   112.83  L   679.89,   171.76  " /></a><a ewd:comment="1" style="cursor:pointer;" ewd:lineID="15"><path style="stroke:#56077D;stroke-width: 5.10 ;&st6;" d=" M   713.88,   364.96  L   713.88,   664.67  L  2031.16,   664.67  L  2031.16,   146.26  " /></a><a ewd:comment="1" style="cursor:pointer;" ewd:lineID="16"><path style="stroke:#56077D;stroke-width: 5.10 ;&st6;" d=" M   713.88,   290.74  L   713.88,   350.23  " /></a><a ewd:comment="1" style="cursor:pointer;" ewd:lineID="17"><path style="stroke:#000000;stroke-width: 5.10 ;&st6;" d=" M   713.88,   112.83  L   713.88,   171.76  " /></a><a style="cursor:pointer;" ewd:lineID="18"><path style="stroke:#000000;stroke-width: 5.10 ;&st6;" d=" M   747.88,   441.44  L   747.88,   681.67  " /><path style="stroke:#FFFFFF;stroke-width: 4.53 ;&st6;" d=" M   747.88,   441.44  L   747.88,   681.67  " /><path style="stroke:#000000;stroke-width: 1.13 ;&st6;" d=" M   747.88,   441.44  L   747.88,   681.67  " /></a><a style="cursor:pointer;" ewd:lineID="19"><path style="stroke:#000000;stroke-width: 5.10 ;&st6;" d=" M   747.88,   358.73  L   747.88,   426.71  " /><path style="stroke:#FFFFFF;stroke-width: 4.53 ;&st6;" d=" M   747.88,   358.73  L   747.88,   426.71  " /><path style="stroke:#000000;stroke-width: 1.13 ;&st6;" d=" M   747.88,   358.73  L   747.88,   426.71  " /></a><a ewd:comment="1" style="cursor:pointer;" ewd:lineID="20"><path style="stroke:#000000;stroke-width: 5.10 ;&st6;" d=" M   747.88,   290.74  L   747.88,   341.73  " /><path style="stroke:#FFFFFF;stroke-width: 4.53 ;&st6;" d=" M   747.88,   290.74  L   747.88,   341.73  " /><path style="stroke:#000000;stroke-width: 1.13 ;&st6;" d=" M   747.88,   290.74  L   747.88,   341.73  " /></a><a ewd:comment="1" style="cursor:pointer;" ewd:lineID="21"><path style="stroke:#99D9E8;stroke-width: 5.10 ;&st6;" d=" M   747.88,   112.83  L   747.88,   171.76  " /></a><a style="cursor:pointer;" ewd:lineID="22"><path style="stroke:#000000;stroke-width: 5.10 ;&st6;" d=" M   756.37,   350.23  L   798.87,   350.23  L   798.87,   121.90  " /><path style="stroke:#FFFFFF;stroke-width: 4.53 ;&st6;" d=" M   756.37,   350.23  L   798.87,   350.23  L   798.87,   121.90  " /><path style="stroke:#000000;stroke-width: 1.13 ;&st6;" d=" M   756.37,   350.23  L   798.87,   350.23  L   798.87,   121.90  " /></a><a style="cursor:pointer;" ewd:lineID="23"><path style="stroke:#FF0000;stroke-width: 5.10 ;&st6;" d=" M   900.85,   401.22  L   900.85,   460.71  " /></a><a style="cursor:pointer;" ewd:lineID="24"><path style="stroke:#008837;stroke-width: 5.10 ;&st6;" d=" M   909.35,   273.74  L   909.35,   341.73  " /></a><a style="cursor:pointer;" ewd:lineID="25"><path style="stroke:#008837;stroke-width: 5.10 ;&st6;" d=" M   909.35,   194.99  L   909.35,   259.01  " /></a><a style="cursor:pointer;" ewd:lineID="26"><path style="stroke:#008837;stroke-width: 5.10 ;&st6;" d=" M   909.35,   121.90  L   909.35,   180.26  " /></a><a style="cursor:pointer;" ewd:lineID="27"><path style="stroke:#000000;stroke-width: 5.10 ;&st6;" d=" M   943.34,   341.73  L   943.34,   273.74  " /></a><a style="cursor:pointer;" ewd:lineID="28"><path style="stroke:#000000;stroke-width: 5.10 ;&st6;" d=" M   943.34,   259.01  L   943.34,   194.99  " /></a><a style="cursor:pointer;" ewd:lineID="29"><path style="stroke:#000000;stroke-width: 5.10 ;&st6;" d=" M   943.34,   180.26  L   943.34,   121.90  " /></a><a style="cursor:pointer;" ewd:lineID="30"><path style="stroke:#000000;stroke-width: 5.10 ;&st6;" d=" M   951.84,   401.22  L   951.84,   460.71  " /></a><a style="cursor:pointer;" ewd:lineID="31"><path style="stroke:#FF0000;stroke-width: 5.10 ;&st6;" d=" M  1121.81,   426.71  L  1121.81,   486.20  " /></a><a style="cursor:pointer;" ewd:lineID="32"><path style="stroke:#008837;stroke-width: 5.10 ;&st6;" d=" M  1130.31,   299.24  L  1130.31,   367.22  " /></a><a style="cursor:pointer;" ewd:lineID="33"><path style="stroke:#FF0000;stroke-width: 5.10 ;&st6;" d=" M  1130.31,   237.48  L  1130.31,   284.50  " /></a><a style="cursor:pointer;" ewd:lineID="34"><path style="stroke:#FF0000;stroke-width: 5.10 ;&st6;" d=" M  1130.31,   169.49  L  1130.31,   222.75  " /></a><a style="cursor:pointer;" ewd:lineID="35"><path style="stroke:#FF0000;stroke-width: 5.10 ;&st6;" d=" M  1130.31,   121.90  L  1130.31,   154.76  " /></a><a style="cursor:pointer;" ewd:lineID="36"> d=" M  1164.31,   367.22  L  1164.31,   299.24 
	
		<path style="stroke:#000000;stroke-width: 5.10 ;&st6;" d=" M  1164.31,   367.22  L  1164.31,   299.24  " /><path style="stroke:#FFFFFF;stroke-width: 4.53 ;&st6;" d=" M  1164.31,   367.22  L  1164.31,   299.24  " /></a><a style="cursor:pointer;" ewd:lineID="37"><path style="stroke:#00A0C6;stroke-width: 5.10 ;&st6;" d=" M  1164.31,   284.50  L  1164.31,   237.48  " /></a><a style="cursor:pointer;" ewd:lineID="38"><path style="stroke:#00A0C6;stroke-width: 5.10 ;&st6;" d=" M  1164.31,   222.75  L  1164.31,   169.49  " /></a><a style="cursor:pointer;" ewd:lineID="39"><path style="stroke:#00A0C6;stroke-width: 5.10 ;&st6;" d=" M  1164.31,   154.76  L  1164.31,   121.90  " /></a><a style="cursor:pointer;" ewd:lineID="40"><path style="stroke:#FFE600;stroke-width: 5.10 ;&st6;" d=" M  1172.80,   426.71  L  1172.80,   486.20  " /></a><a style="cursor:pointer;" ewd:lineID="41"><path style="stroke:#00A0C6;stroke-width: 5.10 ;&st6;" d=" M  1206.80,   426.71  L  1206.80,   588.19  L   203.97,   588.19  L   203.97,   452.21  " /></a><a style="cursor:pointer;" ewd:lineID="42"><path style="stroke:#FF0000;stroke-width: 5.10 ;&st6;" d=" M  1325.78,   426.71  L  1325.78,   486.20  " /></a><a style="cursor:pointer;" ewd:lineID="43"><path style="stroke:#008837;stroke-width: 5.10 ;&st6;" d=" M  1334.28,   299.24  L  1334.28,   367.22  " /></a><a style="cursor:pointer;" ewd:lineID="44"><path style="stroke:#008837;stroke-width: 5.10 ;&st6;" d=" M  1334.28,   237.48  L  1334.28,   284.50  " /></a><a style="cursor:pointer;" ewd:lineID="45"><path style="stroke:#008837;stroke-width: 5.10 ;&st6;" d=" M  1334.28,   169.49  L  1334.28,   222.75  " /></a><a style="cursor:pointer;" ewd:lineID="46"><path style="stroke:#008837;stroke-width: 5.10 ;&st6;" d=" M  1334.28,   121.90  L  1334.28,   154.76  " /></a><a style="cursor:pointer;" ewd:lineID="47"> d=" M  1368.27,   367.22  L  1368.27,   299.24 
	
		<path style="stroke:#000000;stroke-width: 5.10 ;&st6;" d=" M  1368.27,   367.22  L  1368.27,   299.24  " /><path style="stroke:#FFFFFF;stroke-width: 4.53 ;&st6;" d=" M  1368.27,   367.22  L  1368.27,   299.24  " /></a><a style="cursor:pointer;" ewd:lineID="48"> d=" M  1368.27,   284.22  L  1368.27,   237.76 
	
		<path style="stroke:#000000;stroke-width: 5.10 ;&st6;" d=" M  1368.27,   284.22  L  1368.27,   237.76  " /><path style="stroke:#FFFFFF;stroke-width: 4.53 ;&st6;" d=" M  1368.27,   284.22  L  1368.27,   237.76  " /></a><a style="cursor:pointer;" ewd:lineID="49"> d=" M  1368.27,   222.75  L  1368.27,   169.77 
	
		<path style="stroke:#000000;stroke-width: 5.10 ;&st6;" d=" M  1368.27,   222.75  L  1368.27,   169.77  " /><path style="stroke:#FFFFFF;stroke-width: 4.53 ;&st6;" d=" M  1368.27,   222.75  L  1368.27,   169.77  " /></a><a style="cursor:pointer;" ewd:lineID="50"> d=" M  1368.27,   154.76  L  1368.27,   121.90 
	
		<path style="stroke:#000000;stroke-width: 5.10 ;&st6;" d=" M  1368.27,   154.76  L  1368.27,   121.90  " /><path style="stroke:#FFFFFF;stroke-width: 4.53 ;&st6;" d=" M  1368.27,   154.76  L  1368.27,   121.90  " /></a><a style="cursor:pointer;" ewd:lineID="51"><path style="stroke:#FFE600;stroke-width: 5.10 ;&st6;" d=" M  1376.77,   426.71  L  1376.77,   486.20  " /></a><a ewd:comment="2" style="cursor:pointer;" ewd:lineID="52"><path style="stroke:#FF0000;stroke-width: 5.10 ;&st6;" d=" M  1461.76,   112.83  L  1461.76,   197.25  " /></a><a ewd:comment="2" style="cursor:pointer;" ewd:lineID="53"><path style="stroke:#000000;stroke-width: 5.10 ;&st6;" d=" M  1512.75,   112.83  L  1512.75,   197.25  " /></a><a style="cursor:pointer;" ewd:lineID="54"><path style="stroke:#008837;stroke-width: 5.10 ;&st6;" d=" M  1640.23,   103.77  L  1640.23,   265.24  L  1971.67,   265.24  L  1971.67,   146.26  " /></a><a style="cursor:pointer;" ewd:lineID="55"><path style="stroke:#00A0C6;stroke-width: 5.10 ;&st6;" d=" M  1733.71,   112.27  L  1733.71,   248.24  L  1920.68,   248.24  L  1920.68,   146.26  " /></a><a style="cursor:pointer;" ewd:lineID="56"><path style="stroke:#008837;stroke-width: 5.10 ;&st6;" d=" M  2141.64,    95.84  L  2141.64,   639.18  L    50.99,   639.18  L    50.99,   358.73  " /></a><a style="cursor:pointer;" ewd:lineID="57"> d=" M  2226.63,   137.76  L  2226.63,   358.73 
	
		<path style="stroke:#000000;stroke-width: 5.10 ;&st6;" d=" M  2226.63,   137.76  L  2226.63,   358.73  " /><path style="stroke:#FFFFFF;stroke-width: 4.53 ;&st6;" d=" M  2226.63,   137.76  L  2226.63,   358.73  " /></a><a style="cursor:pointer;" ewd:lineID="58"><path style="stroke:#000000;stroke-width: 5.10 ;&st6;" d=" M  2286.12,   137.76  L  2286.12,   681.67  " /><path style="stroke:#FFFFFF;stroke-width: 4.53 ;&st6;" d=" M  2286.12,   137.76  L  2286.12,   681.67  " /><path style="stroke:#000000;stroke-width: 1.13 ;&st6;" d=" M  2286.12,   137.76  L  2286.12,   681.67  " /></a><a style="cursor:pointer;" ewd:lineID="59"><path style="stroke:#000000;stroke-width: 5.10 ;&st6;" d=" M  2328.61,   137.76  L  2328.61,   681.67  " /><path style="stroke:#FFFFFF;stroke-width: 4.53 ;&st6;" d=" M  2328.61,   137.76  L  2328.61,   681.67  " /><path style="stroke:#000000;stroke-width: 1.13 ;&st6;" d=" M  2328.61,   137.76  L  2328.61,   681.67  " /></a><a style="cursor:pointer;" ewd:lineID="60"><path style="stroke:#56077D;stroke-width: 5.10 ;&st6;" d=" M  2439.09,   245.98  L  2439.09,   358.73  " /></a><a style="cursor:pointer;" ewd:lineID="61"><path style="stroke:#56077D;stroke-width: 5.10 ;&st6;" d=" M  2439.09,    95.84  L  2439.09,   231.25  " /></a><a ewd:figtype="w2w" style="cursor:pointer;" ewd:pinNo="7" ewd:code="JL1" ewd:figID="22"><path style="&st2;" d=" M   144.48,   443.71  L   127.48,   443.71  L   127.48,   452.21  L   144.48,   452.21  L   144.48,   443.71 " /><text style="&st8;" transform="matrix(&st16;  131.54  450.08 )"><tspan x="0" style="font-size:6px;font-family:'NSimSun';" y="0">JL1</tspan></text></a><a ewd:figtype="w2w" style="cursor:pointer;" ewd:pinNo="7" ewd:code="KL1" ewd:figID="23"><path style="&st2;" d=" M   212.46,   443.71  L   195.47,   443.71  L   195.47,   452.21  L   212.46,   452.21  L   212.46,   443.71 " /><text style="&st8;" transform="matrix(&st16;  198.7  450.08 )"><tspan x="0" style="font-size:6px;font-family:'NSimSun';" y="0">KL1</tspan></text></a><a ewd:figtype="w2w" style="cursor:pointer;" ewd:pinNo="10" ewd:code="GE3" ewd:figID="24"><path style="&st2;" d=" M   254.96,   443.71  L   237.96,   443.71  L   237.96,   452.21  L   254.96,   452.21  L   254.96,   443.71 " /><text style="&st8;" transform="matrix(&st16;  241.0  450.08 )"><tspan x="0" style="font-size:6px;font-family:'NSimSun';" y="0">GE3</tspan></text></a><a ewd:figtype="w2w" style="cursor:pointer;" ewd:pinNo="10" ewd:code="HE3" ewd:figID="25"><path style="&st2;" d=" M   441.93,   163.26  L   424.93,   163.26  L   424.93,   171.76  L   441.93,   171.76  L   441.93,   163.26 " /><text style="&st8;" transform="matrix(&st16;  427.93  169.63 )"><tspan x="0" style="font-size:6px;font-family:'NSimSun';" y="0">HE3</tspan></text></a><a ewd:figtype="w2w" style="cursor:pointer;" ewd:pinNo="20" ewd:code="HE1" ewd:figID="26"><path style="&st2;" d=" M   654.39,   350.23  L   637.39,   350.23  L   637.39,   358.73  L   654.39,   358.73  L   654.39,   350.23 " /><text style="&st8;" transform="matrix(&st16;  640.4  356.6 )"><tspan x="0" style="font-size:6px;font-family:'NSimSun';" y="0">HE1</tspan></text></a><a ewd:figtype="w2w" style="cursor:pointer;" ewd:pinNo="6" ewd:code="HE1" ewd:figID="27"><path style="&st2;" d=" M   722.38,   350.23  L   705.38,   350.23  L   705.38,   358.73  L   722.38,   358.73  L   722.38,   350.23 " /><text style="&st8;" transform="matrix(&st16;  708.39  356.6 )"><tspan x="0" style="font-size:6px;font-family:'NSimSun';" y="0">HE1</tspan></text></a><a ewd:figtype="w2w" style="cursor:pointer;" ewd:pinNo="8" ewd:code="HE3" ewd:figID="28"><path style="&st2;" d=" M   756.37,   426.71  L   739.38,   426.71  L   739.38,   435.21  L   756.37,   435.21  L   756.37,   426.71 " /><text style="&st8;" transform="matrix(&st16;  742.38  433.08 )"><tspan x="0" style="font-size:6px;font-family:'NSimSun';" y="0">HE3</tspan></text></a><a ewd:figtype="w2w" style="cursor:pointer;" ewd:pinNo="12" ewd:code="GE2" ewd:figID="29"><path style="&st2;" d=" M   917.85,   265.24  L   900.85,   265.24  L   900.85,   273.74  L   917.85,   273.74  L   917.85,   265.24 " /><text style="&st8;" transform="matrix(&st16;  903.89  271.61 )"><tspan x="0" style="font-size:6px;font-family:'NSimSun';" y="0">GE2</tspan></text></a><a ewd:figtype="w2w" style="cursor:pointer;" ewd:pinNo="12" ewd:code="HE2" ewd:figID="30"><path style="&st2;" d=" M   917.85,   180.26  L   900.85,   180.26  L   900.85,   188.75  L   917.85,   188.75  L   917.85,   180.26 " /><text style="&st8;" transform="matrix(&st16;  903.85  186.62 )"><tspan x="0" style="font-size:6px;font-family:'NSimSun';" y="0">HE2</tspan></text></a><a ewd:figtype="w2w" style="cursor:pointer;" ewd:pinNo="11" ewd:code="GE2" ewd:figID="31"><path style="&st2;" d=" M   951.84,   265.24  L   934.84,   265.24  L   934.84,   273.74  L   951.84,   273.74  L   951.84,   265.24 " /><text style="&st8;" transform="matrix(&st16;  937.89  271.61 )"><tspan x="0" style="font-size:6px;font-family:'NSimSun';" y="0">GE2</tspan></text></a><a ewd:figtype="w2w" style="cursor:pointer;" ewd:pinNo="11" ewd:code="HE2" ewd:figID="32"><path style="&st2;" d=" M   951.84,   180.26  L   934.84,   180.26  L   934.84,   188.75  L   951.84,   188.75  L   951.84,   180.26 " /><text style="&st8;" transform="matrix(&st16;  937.85  186.62 )"><tspan x="0" style="font-size:6px;font-family:'NSimSun';" y="0">HE2</tspan></text></a><a ewd:figtype="w2w" style="cursor:pointer;" ewd:pinNo="6" ewd:code="KL1" ewd:figID="33"><path style="&st2;" d=" M  1138.81,   290.74  L  1121.81,   290.74  L  1121.81,   299.24  L  1138.81,   299.24  L  1138.81,   290.74 " /><text style="&st8;" transform="matrix(&st16;  1125.04  297.11 )"><tspan x="0" style="font-size:6px;font-family:'NSimSun';" y="0">KL1</tspan></text></a><a ewd:figtype="w2w" style="cursor:pointer;" ewd:pinNo="12" ewd:code="EL1" ewd:figID="34"><path style="&st2;" d=" M  1138.81,   222.75  L  1121.81,   222.75  L  1121.81,   231.25  L  1138.81,   231.25  L  1138.81,   222.75 " /><text style="&st8;" transform="matrix(&st16;  1125.23  229.12 )"><tspan x="0" style="font-size:6px;font-family:'NSimSun';" y="0">EL1</tspan></text></a><a ewd:figtype="w2w" style="cursor:pointer;" ewd:pinNo="8" ewd:code="HE2" ewd:figID="35"><path style="&st2;" d=" M  1138.81,   154.76  L  1121.81,   154.76  L  1121.81,   163.26  L  1138.81,   163.26  L  1138.81,   154.76 " /><text style="&st8;" transform="matrix(&st16;  1124.82  161.13 )"><tspan x="0" style="font-size:6px;font-family:'NSimSun';" y="0">HE2</tspan></text></a><a ewd:figtype="w2w" style="cursor:pointer;" ewd:pinNo="13" ewd:code="KL1" ewd:figID="36"><path style="&st2;" d=" M  1172.80,   290.74  L  1155.81,   290.74  L  1155.81,   299.24  L  1172.80,   299.24  L  1172.80,   290.74 " /><text style="&st8;" transform="matrix(&st16;  1159.04  297.11 )"><tspan x="0" style="font-size:6px;font-family:'NSimSun';" y="0">KL1</tspan></text></a><a ewd:figtype="w2w" style="cursor:pointer;" ewd:pinNo="11" ewd:code="EL1" ewd:figID="37"><path style="&st2;" d=" M  1172.80,   222.75  L  1155.81,   222.75  L  1155.81,   231.25  L  1172.80,   231.25  L  1172.80,   222.75 " /><text style="&st8;" transform="matrix(&st16;  1159.23  229.12 )"><tspan x="0" style="font-size:6px;font-family:'NSimSun';" y="0">EL1</tspan></text></a><a ewd:figtype="w2w" style="cursor:pointer;" ewd:pinNo="7" ewd:code="HE2" ewd:figID="38"><path style="&st2;" d=" M  1172.80,   154.76  L  1155.81,   154.76  L  1155.81,   163.26  L  1172.80,   163.26  L  1172.80,   154.76 " /><text style="&st8;" transform="matrix(&st16;  1158.81  161.13 )"><tspan x="0" style="font-size:6px;font-family:'NSimSun';" y="0">HE2</tspan></text></a><a ewd:figtype="w2w" style="cursor:pointer;" ewd:pinNo="6" ewd:code="JL1" ewd:figID="39"><path style="&st2;" d=" M  1342.78,   290.74  L  1325.78,   290.74  L  1325.78,   299.24  L  1342.78,   299.24  L  1342.78,   290.74 " /><text style="&st8;" transform="matrix(&st16;  1329.84  297.11 )"><tspan x="0" style="font-size:6px;font-family:'NSimSun';" y="0">JL1</tspan></text></a><a ewd:figtype="w2w" style="cursor:pointer;" ewd:pinNo="5" ewd:code="EL4" ewd:figID="40"><path style="&st2;" d=" M  1342.78,   222.75  L  1325.78,   222.75  L  1325.78,   231.25  L  1342.78,   231.25  L  1342.78,   222.75 " /><text style="&st8;" transform="matrix(&st16;  1329.2  229.12 )"><tspan x="0" style="font-size:6px;font-family:'NSimSun';" y="0">EL4</tspan></text></a><a ewd:figtype="w2w" style="cursor:pointer;" ewd:pinNo="10" ewd:code="HE2" ewd:figID="41"><path style="&st2;" d=" M  1342.78,   154.76  L  1325.78,   154.76  L  1325.78,   163.26  L  1342.78,   163.26  L  1342.78,   154.76 " /><text style="&st8;" transform="matrix(&st16;  1328.78  161.13 )"><tspan x="0" style="font-size:6px;font-family:'NSimSun';" y="0">HE2</tspan></text></a><a ewd:figtype="w2w" style="cursor:pointer;" ewd:pinNo="13" ewd:code="JL1" ewd:figID="42"><path style="&st2;" d=" M  1376.77,   290.74  L  1359.77,   290.74  L  1359.77,   299.24  L  1376.77,   299.24  L  1376.77,   290.74 " /><text style="&st8;" transform="matrix(&st16;  1363.83  297.11 )"><tspan x="0" style="font-size:6px;font-family:'NSimSun';" y="0">JL1</tspan></text></a><a ewd:figtype="w2w" style="cursor:pointer;" ewd:pinNo="6" ewd:code="EL4" ewd:figID="43"><path style="&st2;" d=" M  1376.77,   222.75  L  1359.77,   222.75  L  1359.77,   231.25  L  1376.77,   231.25  L  1376.77,   222.75 " /><text style="&st8;" transform="matrix(&st16;  1363.19  229.12 )"><tspan x="0" style="font-size:6px;font-family:'NSimSun';" y="0">EL4</tspan></text></a><a ewd:figtype="w2w" style="cursor:pointer;" ewd:pinNo="9" ewd:code="HE2" ewd:figID="44"><path style="&st2;" d=" M  1376.77,   154.76  L  1359.77,   154.76  L  1359.77,   163.26  L  1376.77,   163.26  L  1376.77,   154.76 " /><text style="&st8;" transform="matrix(&st16;  1362.78  161.13 )"><tspan x="0" style="font-size:6px;font-family:'NSimSun';" y="0">HE2</tspan></text></a><a ewd:figtype="w2w" style="cursor:pointer;" ewd:pinNo="10" ewd:code="EL4" ewd:figID="45"><path style="&st2;" d=" M  2447.59,   231.25  L  2430.59,   231.25  L  2430.59,   239.75  L  2447.59,   239.75  L  2447.59,   231.25 " /><text style="&st8;" transform="matrix(&st16;  2434.01  237.62 )"><tspan x="0" style="font-size:6px;font-family:'NSimSun';" y="0">EL4</tspan></text></a><a ewd:figtype="gp" style="cursor:pointer;" ewd:code="EA" ewd:figID="46"><path style="&st2;" d=" M    91.36,   681.67  L   112.61,   681.67  L   101.98,   697.25  L    91.36,   681.67 " /><text style="&st8;" transform="matrix(&st16;  98.18  689.46 )"><tspan x="0" style="font-size:6px;font-family:'NSimSun';" y="0">EA</tspan></text></a><a ewd:figtype="gp" style="cursor:pointer;" ewd:code="EA" ewd:figID="47"><path style="&st2;" d=" M   737.25,   681.67  L   758.50,   681.67  L   747.88,   697.25  L   737.25,   681.67 " /><text style="&st8;" transform="matrix(&st16;  744.08  689.46 )"><tspan x="0" style="font-size:6px;font-family:'NSimSun';" y="0">EA</tspan></text></a><a ewd:figtype="gp" style="cursor:pointer;" ewd:code="EB" ewd:figID="48"><path style="&st2;" d=" M  2275.49,   681.67  L  2296.74,   681.67  L  2286.12,   697.25  L  2275.49,   681.67 " /><text style="&st8;" transform="matrix(&st16;  2282.43  689.46 )"><tspan x="0" style="font-size:6px;font-family:'NSimSun';" y="0">EB</tspan></text></a><a ewd:figtype="gp" style="cursor:pointer;" ewd:code="EA" ewd:figID="49"><path style="&st2;" d=" M  2317.99,   681.67  L  2339.23,   681.67  L  2328.61,   697.25  L  2317.99,   681.67 " /><text style="&st8;" transform="matrix(&st16;  2324.81  689.46 )"><tspan x="0" style="font-size:6px;font-family:'NSimSun';" y="0">EA</tspan></text></a><a ewd:figtype="sp" style="cursor:pointer;" ewd:code="SP30" ewd:figID="50"><path style="&st2;" d=" M   743.63,   341.73  L   752.12,   341.73  L   756.37,   345.98  L   756.37,   354.48  L   752.12,   358.73  L   743.63,   358.73  L   739.38,   354.48  L   739.38,   345.98  L   743.63,   341.73 " /></a></g></svg>