<?xml version="1.0" encoding="utf-8"?>
<!DOCTYPE svg PUBLIC "-//W3C//DTD SVG 1.0//EN" "http://www.w3.org/TR/2001/REC-SVG-20010904/DTD/svg10.dtd"[
	<!ENTITY ns_flows "http://ns.adobe.com/Flows/1.0/">
	<!ENTITY ns_svg "http://www.w3.org/2000/svg">
	<!ENTITY ns_xlink "http://www.w3.org/1999/xlink">
	<!ENTITY st0 "font-size:7px;font-family:'NSimSun';adobe-font-script:japanese;">
	<!ENTITY st1 "font-size:6px;font-family:'NSimSun';">
	<!-- White fill  -->
	<!ENTITY st2 "fill:#FFFFFF;stroke:#000000; stroke-width:1.41;stroke-linecap:round;stroke-linejoin:round;">
	<!-- Yellow fill  -->
	<!ENTITY st3 "fill:#FFFFCC;stroke:#FFFFCC; stroke-width:0.1;stroke-linecap:round;stroke-linejoin:round;">
	<!-- Gray fill  -->
	<!ENTITY st4 "fill:#CCCCCC;stroke:#CCCCCC; stroke-width:0.1;stroke-linecap:round;stroke-linejoin:round;">
	<!-- Light-blue fill -->
	<!ENTITY st5 "fill:#CCECF4;stroke:#000000; stroke-width:1.133;stroke-linecap:round;stroke-linejoin:round;">
	<!ENTITY st6 "fill:none;stroke-linecap:butt; stroke-linejoin:round;">
	<!ENTITY st7 "fill:none;stroke:#000000;stroke-linecap:round;stroke-linejoin:round;">
	<!ENTITY st8 "enable-background:new    ;">
	<!-- Black fill -->
	<!ENTITY st9 "fill:#000000;stroke:#000000; stroke-linecap:round;stroke-linejoin:round;">
	<!-- SRS note   -->
	<!ENTITY st10 "font-size:9px;font-family:'NSimSun';">
	<!ENTITY st11 "font-size:9px;font-family:'NSimSun';">
	<!ENTITY st12 "font-size:6px;font-family:'NSimSun';">
	<!ENTITY st13 "fill:none;stroke:#ff0000;stroke-linecap:round;stroke-linejoin:round;">
	<!-- Yellow fill  -->
	<!ENTITY st14 "fill:#FFFF00;stroke:#FFFF00; stroke-width:0.1;stroke-linecap:round;stroke-linejoin:round;">
	<!ENTITY st15 "font-size:6px;font-family:'NSimSun';adobe-font-script:japanese;">
	<!ENTITY st16 "1.00 0.00 0.00 1.00">
	<!ENTITY st17 "0.00 -1.00 1.00 0.00">
	<!ENTITY st18 "font-size:6px;font-family:'NSimSun';">
	<!ENTITY st19 "font-size:9px;font-family:'NSimSun';">
	<!ENTITY st20 "font-size:6px;font-family:'NSimSun';adobe-font-script:japanese;">
	<!ENTITY st21 "font-size:7px;font-family:'NSimSun';adobe-font-script:japanese;">
	<!ATTLIST svg
		xmlns:ewd CDATA #FIXED "http://shcl.co.jp/ewd"
		xmlns:a CDATA #FIXED "http://ns.adobe.com/AdobeSVGViewerExtensions/3.0/"
		ewd:ver CDATA #IMPLIED
	>
	<!ATTLIST a
		ewd:lineID CDATA #IMPLIED
		ewd:groupID CDATA #IMPLIED
		ewd:figtype CDATA #IMPLIED
		ewd:code CDATA #IMPLIED
		ewd:figID CDATA #IMPLIED
		ewd:pinNo CDATA #IMPLIED
		ewd:comment CDATA #IMPLIED >
	<!ATTLIST g
		ewd:lineID CDATA #IMPLIED
		ewd:groupID CDATA #IMPLIED
		ewd:figtype CDATA #IMPLIED
		ewd:code CDATA #IMPLIED
		ewd:figID CDATA #IMPLIED
		ewd:pinNo CDATA #IMPLIED
		ewd:comment CDATA #IMPLIED >
	<!ATTLIST text
		ewd:textID CDATA #IMPLIED
		ewd:horAlign CDATA #IMPLIED >
	<!ATTLIST title
		ewd:textID CDATA #IMPLIED >
]>
<!-- Generator: Shintec Hozumi YS   -->
<svg onload="call_execInitLoadProc_svg('system')" style="overflow:visible;  enable-background:new 0 0 2526.091 710.000" viewBox="0 0 2472.081 710.000" height="710.000" width="2472.081" xml:space="preserve" ewd:ver="2.1.2.6F" xmlns="&ns_svg;" xmlns:ewd="http://shcl.co.jp/ewd" xmlns:a="http://ns.adobe.com/AdobeSVGViewerExtensions/3.0/" xmlns:xlink="&ns_xlink;">
<path style="stroke-width: 1.42 ;&st7;  " d=" M  1121.81,   290.74  L  1130.31,   290.74  " /><path style="stroke-width: 1.42 ;&st7;  " d=" M  1155.81,   290.74  L  1164.31,   290.74  " /><path style="stroke-width: 1.42 ;&st7;  " d=" M  1325.78,   290.74  L  1334.28,   290.74  " /><path style="stroke-width: 1.42 ;&st7;  " d=" M  1359.77,   290.74  L  1368.27,   290.74  " /><path style="stroke-width: 1.42 ;&st7;  " d=" M  1138.81,   231.25  L  1130.31,   231.25  " /><path style="stroke-width: 1.42 ;&st7;  " d=" M  1172.80,   231.25  L  1164.31,   231.25  " /><path style="stroke-width: 1.42 ;&st7;  " d=" M  1342.78,   231.25  L  1334.28,   231.25  " /><path style="stroke-width: 1.42 ;&st7;  " d=" M  1376.77,   231.25  L  1368.27,   231.25  " /><path style="stroke-width: 1.42 ;&st7;  " d=" M  1138.81,   163.26  L  1130.31,   163.26  " /><path style="stroke-width: 1.42 ;&st7;  " d=" M  1172.80,   163.26  L  1164.31,   163.26  " /><path style="stroke-width: 1.42 ;&st7;  " d=" M  1342.78,   163.26  L  1334.28,   163.26  " /><path style="stroke-width: 1.42 ;&st7;  " d=" M  1376.77,   163.26  L  1368.27,   163.26  " /><text style="font-size:6px;font-family:'NSimSun';" transform="matrix(&st17;  1469.39  159.47 )">(*2)</text><text style="font-size:6px;font-family:'NSimSun';" transform="matrix(&st17;  1458.06  156.37 )">R</text><text style="font-size:6px;font-family:'NSimSun';" transform="matrix(&st16;  1262.88  32.08 )" ewd:textID="13">电动窗升降器主开关总成</text><text style="font-size:6px;font-family:'NSimSun';" transform="matrix(&st16;  1262.88  24.98 )">H6(A),(B)</text><text style="font-size:6px;font-family:'NSimSun';" transform="matrix(&st17;  1364.58  135.98 )">W</text><text style="font-size:6px;font-family:'NSimSun';" transform="matrix(&st17;  1330.58  135.47 )">G</text><text style="font-size:6px;font-family:'NSimSun';" transform="matrix(&st17;  1160.61  135.09 )">L</text><text style="font-size:6px;font-family:'NSimSun';" transform="matrix(&st17;  1126.62  135.12 )">R</text><text style="font-size:6px;font-family:'NSimSun';" transform="matrix(&st17;  1126.62  198.86 )">R</text><text style="font-size:6px;font-family:'NSimSun';" transform="matrix(&st17;  1160.61  198.82 )">L</text><text style="font-size:6px;font-family:'NSimSun';" transform="matrix(&st17;  1364.58  199.72 )">W</text><text style="font-size:6px;font-family:'NSimSun';" transform="matrix(&st17;  1330.58  199.21 )">G</text><text style="font-size:6px;font-family:'NSimSun';" transform="matrix(&st17;  1364.58  263.46 )">W</text><text style="font-size:6px;font-family:'NSimSun';" transform="matrix(&st17;  1330.58  262.95 )">G</text><text style="font-size:6px;font-family:'NSimSun';" transform="matrix(&st17;  1160.61  262.56 )">L</text><text style="font-size:6px;font-family:'NSimSun';" transform="matrix(&st17;  1126.62  262.6 )">R</text><text style="font-size:6px;font-family:'NSimSun';" transform="matrix(&st17;  1364.58  331.44 )">W</text><text style="font-size:6px;font-family:'NSimSun';" transform="matrix(&st17;  1330.58  330.94 )">G</text><text style="font-size:6px;font-family:'NSimSun';" transform="matrix(&st17;  1407.07  458.03 )">L</text><text style="font-size:6px;font-family:'NSimSun';" transform="matrix(&st17;  1322.08  458.07 )">R</text><text style="font-size:6px;font-family:'NSimSun';" transform="matrix(&st17;  1373.07  458.15 )">Y</text><text style="font-size:6px;font-family:'NSimSun';" transform="matrix(&st17;  1160.61  331.44 )">W</text><text style="font-size:6px;font-family:'NSimSun';" transform="matrix(&st17;  1126.62  330.94 )">G</text><text style="font-size:6px;font-family:'NSimSun';" transform="matrix(&st17;  1203.1  458.03 )">L</text><text style="font-size:6px;font-family:'NSimSun';" transform="matrix(&st17;  1118.12  458.07 )">R</text><text style="font-size:6px;font-family:'NSimSun';" transform="matrix(&st17;  1169.11  458.15 )">Y</text><text style="font-size:6px;font-family:'NSimSun';" transform="matrix(&st16;  1009.26  584.49 )">L</text><text style="font-size:6px;font-family:'NSimSun';" transform="matrix(&st16;  1060.25  584.49 )">L</text><text style="font-size:6px;font-family:'NSimSun';" transform="matrix(&st16;  1009.26  609.99 )">L</text><text style="font-size:6px;font-family:'NSimSun';" transform="matrix(&st16;  1060.25  609.99 )">L</text><text style="font-size:6px;font-family:'NSimSun';" transform="matrix(&st16;  1008.87  635.48 )">G</text><text style="font-size:6px;font-family:'NSimSun';" transform="matrix(&st16;  1059.86  635.48 )">G</text><text style="font-size:6px;font-family:'NSimSun';" transform="matrix(&st16;  1009.03  660.98 )">V</text><text style="font-size:6px;font-family:'NSimSun';" transform="matrix(&st16;  1006.12  672.31 )">(*1)</text><text style="font-size:6px;font-family:'NSimSun';" transform="matrix(&st16;  1060.02  660.98 )">V</text><text style="font-size:6px;font-family:'NSimSun';" transform="matrix(&st16;  1057.11  672.31 )">(*1)</text><g ewd:figtype="conn" ewd:figID="3" ewd:code="H6"><path style="stroke-width: 0.85 ;&st7; stroke-dasharray:3, 1.5;" d=" M  1342.78,   117.37  L  1351.27,   117.37  " /><path style="stroke-width: 0.85 ;&st7; stroke-dasharray:3, 1.5;" d=" M  1342.78,   108.30  L  1351.27,   108.30  " /><path style="stroke-width: 0.85 ;&st7; stroke-dasharray:3, 1.5;" d=" M  1172.80,   117.37  L  1317.28,   117.37  " /><path style="stroke-width: 0.85 ;&st7; stroke-dasharray:3, 1.5;" d=" M  1172.80,   108.30  L  1317.28,   108.30  " /><path style="stroke-width: 0.85 ;&st7; stroke-dasharray:3, 1.5;" d=" M  1138.81,   117.37  L  1147.31,   117.37  " /><path style="stroke-width: 0.85 ;&st7; stroke-dasharray:3, 1.5;" d=" M  1138.81,   108.30  L  1147.31,   108.30  " /><g ewd:lineID="35"><text style="font-size:6px;font-family:'NSimSun';" transform="matrix(&st16;  1118.52  110.27 )">12</text><text style="font-size:6px;font-family:'NSimSun';" transform="matrix(&st16;  1118.52  119.33 )">12</text><path style="stroke-width: 1.42 ;&st7;   " d=" M  1134.84,   108.30  C  1134.84    105.80   1132.81    103.77   1130.31    103.77  " /><path style="stroke-width: 1.42 ;&st7;   " d=" M  1130.31,   103.77  C  1127.81    103.77   1125.78    105.80   1125.78    108.30  " /><path style="stroke-width: 1.42 ;&st7;   " d=" M  1125.78,   108.30  C  1125.78    110.80   1127.81    112.83   1130.31    112.83  " /><path style="stroke-width: 1.42 ;&st7;   " d=" M  1130.31,   112.83  C  1132.81    112.83   1134.84    110.80   1134.84    108.30  " /><text style="font-size:6px;font-family:'NSimSun';" transform="matrix(&st16;  1128.01  110.27 )">A</text><path style="stroke-width: 1.42 ;&st7;   " d=" M  1134.84,   117.37  C  1134.84    114.86   1132.81    112.83   1130.31    112.83  " /><path style="stroke-width: 1.42 ;&st7;   " d=" M  1130.31,   112.83  C  1127.81    112.83   1125.78    114.86   1125.78    117.37  " /><path style="stroke-width: 1.42 ;&st7;   " d=" M  1125.78,   117.37  C  1125.78    119.87   1127.81    121.90   1130.31    121.90  " /><path style="stroke-width: 1.42 ;&st7;   " d=" M  1130.31,   121.90  C  1132.81    121.90   1134.84    119.87   1134.84    117.37  " /><text style="font-size:6px;font-family:'NSimSun';" transform="matrix(&st16;  1128.12  119.33 )">B</text><text style="font-size:6px;font-family:'NSimSun';" transform="matrix(&st16;  1127.93  100.07 )">U</text></g><g ewd:lineID="39"><text style="font-size:6px;font-family:'NSimSun';" transform="matrix(&st16;  1152.51  110.27 )">13</text><text style="font-size:6px;font-family:'NSimSun';" transform="matrix(&st16;  1152.51  119.33 )">13</text><path style="stroke-width: 1.42 ;&st7;   " d=" M  1168.84,   117.37  C  1168.84    114.86   1166.81    112.83   1164.31    112.83  " /><path style="stroke-width: 1.42 ;&st7;   " d=" M  1164.31,   112.83  C  1161.80    112.83   1159.77    114.86   1159.77    117.37  " /><path style="stroke-width: 1.42 ;&st7;   " d=" M  1159.77,   117.37  C  1159.77    119.87   1161.80    121.90   1164.31    121.90  " /><path style="stroke-width: 1.42 ;&st7;   " d=" M  1164.31,   121.90  C  1166.81    121.90   1168.84    119.87   1168.84    117.37  " /><text style="font-size:6px;font-family:'NSimSun';" transform="matrix(&st16;  1162.0  110.27 )">A</text><text style="font-size:6px;font-family:'NSimSun';" transform="matrix(&st16;  1162.12  119.33 )">B</text><path style="stroke-width: 1.42 ;&st7;   " d=" M  1168.84,   108.30  C  1168.84    105.80   1166.81    103.77   1164.31    103.77  " /><path style="stroke-width: 1.42 ;&st7;   " d=" M  1164.31,   103.77  C  1161.80    103.77   1159.77    105.80   1159.77    108.30  " /><path style="stroke-width: 1.42 ;&st7;   " d=" M  1159.77,   108.30  C  1159.77    110.80   1161.80    112.83   1164.31    112.83  " /><path style="stroke-width: 1.42 ;&st7;   " d=" M  1164.31,   112.83  C  1166.81    112.83   1168.84    110.80   1168.84    108.30  " /><text style="font-size:6px;font-family:'NSimSun';" transform="matrix(&st16;  1161.92  100.07 )">D</text></g><g ewd:lineID="46"><text style="font-size:6px;font-family:'NSimSun';" transform="matrix(&st16;  1322.48  119.33 )">10</text><text style="font-size:6px;font-family:'NSimSun';" transform="matrix(&st16;  1322.48  110.27 )">10</text><text style="font-size:6px;font-family:'NSimSun';" transform="matrix(&st16;  1331.97  110.27 )">A</text><text style="font-size:6px;font-family:'NSimSun';" transform="matrix(&st16;  1332.09  119.33 )">B</text><path style="stroke-width: 1.42 ;&st7;   " d=" M  1338.81,   117.37  C  1338.81    114.86   1336.78    112.83   1334.28    112.83  " /><path style="stroke-width: 1.42 ;&st7;   " d=" M  1334.28,   112.83  C  1331.77    112.83   1329.74    114.86   1329.74    117.37  " /><path style="stroke-width: 1.42 ;&st7;   " d=" M  1329.74,   117.37  C  1329.74    119.87   1331.77    121.90   1334.28    121.90  " /><path style="stroke-width: 1.42 ;&st7;   " d=" M  1334.28,   121.90  C  1336.78    121.90   1338.81    119.87   1338.81    117.37  " /><path style="stroke-width: 1.42 ;&st7;   " d=" M  1338.81,   108.30  C  1338.81    105.80   1336.78    103.77   1334.28    103.77  " /><path style="stroke-width: 1.42 ;&st7;   " d=" M  1334.28,   103.77  C  1331.77    103.77   1329.74    105.80   1329.74    108.30  " /><path style="stroke-width: 1.42 ;&st7;   " d=" M  1329.74,   108.30  C  1329.74    110.80   1331.77    112.83   1334.28    112.83  " /><path style="stroke-width: 1.42 ;&st7;   " d=" M  1334.28,   112.83  C  1336.78    112.83   1338.81    110.80   1338.81    108.30  " /><text style="font-size:6px;font-family:'NSimSun';" transform="matrix(&st16;  1331.9  100.07 )">U</text></g><g ewd:lineID="50"><text style="font-size:6px;font-family:'NSimSun';" transform="matrix(&st16;  1356.48  119.33 )">18</text><text style="font-size:6px;font-family:'NSimSun';" transform="matrix(&st16;  1356.48  110.27 )">18</text><path style="stroke-width: 1.42 ;&st7;   " d=" M  1372.80,   117.37  C  1372.80    114.86   1370.77    112.83   1368.27    112.83  " /><path style="stroke-width: 1.42 ;&st7;   " d=" M  1368.27,   112.83  C  1365.77    112.83   1363.74    114.86   1363.74    117.37  " /><path style="stroke-width: 1.42 ;&st7;   " d=" M  1363.74,   117.37  C  1363.74    119.87   1365.77    121.90   1368.27    121.90  " /><path style="stroke-width: 1.42 ;&st7;   " d=" M  1368.27,   121.90  C  1370.77    121.90   1372.80    119.87   1372.80    117.37  " /><path style="stroke-width: 1.42 ;&st7;   " d=" M  1372.80,   108.30  C  1372.80    105.80   1370.77    103.77   1368.27    103.77  " /><path style="stroke-width: 1.42 ;&st7;   " d=" M  1368.27,   103.77  C  1365.77    103.77   1363.74    105.80   1363.74    108.30  " /><path style="stroke-width: 1.42 ;&st7;   " d=" M  1363.74,   108.30  C  1363.74    110.80   1365.77    112.83   1368.27    112.83  " /><path style="stroke-width: 1.42 ;&st7;   " d=" M  1368.27,   112.83  C  1370.77    112.83   1372.80    110.80   1372.80    108.30  " /><text style="font-size:6px;font-family:'NSimSun';" transform="matrix(&st16;  1366.08  119.33 )">B</text><text style="font-size:6px;font-family:'NSimSun';" transform="matrix(&st16;  1365.97  110.27 )">A</text><text style="font-size:6px;font-family:'NSimSun';" transform="matrix(&st16;  1365.89  100.07 )">D</text></g><g ewd:lineID="52"><text style="font-size:6px;font-family:'NSimSun';" transform="matrix(&st16;  1453.06  110.27 )">3</text><text style="font-size:6px;font-family:'NSimSun';" transform="matrix(&st16;  1459.57  110.27 )">B</text><path style="stroke-width: 1.42 ;&st7;   " d=" M  1466.29,   108.30  C  1466.29    105.80   1464.26    103.77   1461.76    103.77  " /><path style="stroke-width: 1.42 ;&st7;   " d=" M  1461.76,   103.77  C  1459.25    103.77   1457.22    105.80   1457.22    108.30  " /><path style="stroke-width: 1.42 ;&st7;   " d=" M  1457.22,   108.30  C  1457.22    110.80   1459.25    112.83   1461.76    112.83  " /><path style="stroke-width: 1.42 ;&st7;   " d=" M  1461.76,   112.83  C  1464.26    112.83   1466.29    110.80   1466.29    108.30  " /><text style="font-size:6px;font-family:'NSimSun';" transform="matrix(&st16;  1459.37  100.07 )">U</text></g></g><g ewd:figtype="conn" ewd:figID="4" ewd:code="H5"><path style="stroke-width: 0.85 ;&st7;  " d=" M  1485.13,   214.25  L  1461.76,   214.25  " /><path style="stroke-width: 0.85 ;&st7;  " d=" M  1512.75,   214.25  L  1489.38,   214.25  " /><path style="stroke-width: 1.42 ;&st7;  " d=" M  1475.92,   243.99  L  1479.89,   243.99  " /><path style="stroke-width: 1.42 ;&st7;  " d=" M  1479.89,   252.49  L  1475.92,   252.49  " /><path style="stroke-width: 1.42 ;&st7;  " d=" M  1475.92,   252.49  L  1475.92,   243.99  " /><path style="stroke-width: 1.42 ;&st7;  " d=" M  1498.58,   243.99  L  1494.62,   243.99  " /><path style="stroke-width: 1.42 ;&st7;  " d=" M  1494.62,   252.49  L  1498.58,   252.49  " /><path style="stroke-width: 1.42 ;&st7;  " d=" M  1498.58,   252.49  L  1498.58,   243.99  " /><path style="stroke-width: 1.42 ;&st7;  " d=" M  1489.38,   210.00  L  1489.38,   218.50  " /><path style="stroke-width: 1.42 ;&st7;  " d=" M  1485.13,   210.00  L  1485.13,   218.50  " /><path style="stroke-width: 0.85 ;&st7;  " d=" M  1511.55,   213.25  L  1511.28,   213.72  L  1511.19,   214.25  L  1511.28,   214.78  L  1511.55,   215.25  L  1511.97,   215.60  L  1512.47,   215.79  L  1513.02,   215.79  L  1513.53,   215.60  L  1513.94,   215.25  L  1514.21,   214.78  L  1514.30,   214.25  L  1514.21,   213.72  L  1513.94,   213.25  L  1513.53,   212.90  L  1513.02,   212.71  L  1512.47,   212.71  L  1511.97,   212.90  L  1511.55,   213.25  L  1511.95,   213.96  L  1511.95,   214.54  L  1512.32,   214.99  L  1512.89,   215.09  L  1513.40,   214.80  L  1513.60,   214.25  L  1513.40,   213.70  L  1512.89,   213.41  L  1512.32,   213.51  L  1512.75,   214.25  " /><path style="stroke-width: 0.85 ;&st7;  " d=" M  1460.56,   213.25  L  1460.29,   213.72  L  1460.20,   214.25  L  1460.29,   214.78  L  1460.56,   215.25  L  1460.98,   215.60  L  1461.48,   215.79  L  1462.03,   215.79  L  1462.53,   215.60  L  1462.95,   215.25  L  1463.22,   214.78  L  1463.31,   214.25  L  1463.22,   213.72  L  1462.95,   213.25  L  1462.53,   212.90  L  1462.03,   212.71  L  1461.48,   212.71  L  1460.98,   212.90  L  1460.56,   213.25  L  1460.96,   213.96  L  1460.96,   214.54  L  1461.33,   214.99  L  1461.90,   215.09  L  1462.41,   214.80  L  1462.61,   214.25  L  1462.41,   213.70  L  1461.90,   213.41  L  1461.33,   213.51  L  1461.76,   214.25  " /><path style="stroke-width: 0.85 ;&st7;  " d=" M  1498.58,   248.24  L  1512.75,   248.24  L  1512.75,   197.25  " /><path style="stroke-width: 1.42 ;&st7;  " d=" M  1444.76,   197.25  L  1529.74,   197.25  L  1529.74,   265.24  L  1444.76,   265.24  L  1444.76,   197.25  " /><path style="stroke-width: 1.42 ;&st7;   " d=" M  1487.25,   239.75  C  1482.56    239.75   1478.75    243.55   1478.75    248.24  " /><path style="stroke-width: 1.42 ;&st7;   " d=" M  1478.75,   248.24  C  1478.75    252.94   1482.56    256.74   1487.25    256.74  " /><path style="stroke-width: 1.42 ;&st7;   " d=" M  1487.25,   256.74  C  1491.95    256.74   1495.75    252.94   1495.75    248.24  " /><path style="stroke-width: 1.42 ;&st7;   " d=" M  1495.75,   248.24  C  1495.75    243.55   1491.95    239.75   1487.25    239.75  " /><text style="font-size:6px;font-family:'NSimSun';" transform="matrix(&st16;  1515.33  205.45 )">D</text><text style="font-size:6px;font-family:'NSimSun';" transform="matrix(&st16;  1464.34  205.45 )">U</text><text style="font-size:6px;font-family:'NSimSun';" transform="matrix(&st16;  1484.52  250.21 )">M</text><path style="stroke-width: 0.85 ;&st7;  " d=" M  1461.76,   248.24  L  1475.92,   248.24  " /><path style="stroke-width: 0.85 ;&st7;  " d=" M  1461.76,   197.25  L  1461.76,   214.25  " /><path style="stroke-width: 0.85 ;&st7;  " d=" M  1461.76,   248.24  L  1461.76,   239.75  L  1458.92,   238.33  L  1464.59,   235.50  L  1458.92,   232.66  L  1464.59,   229.83  L  1458.92,   227.00  L  1464.59,   224.16  L  1461.76,   222.75  L  1461.76,   214.25  " /><text style="font-size:6px;font-family:'NSimSun';" transform="matrix(&st16;  1455.57  193.56 )">2</text><text style="font-size:6px;font-family:'NSimSun';" transform="matrix(&st16;  1506.56  193.56 )">1</text><g ewd:figtype="title"><text style="font-size:6px;font-family:'NSimSun';" transform="matrix(&st16;  1441.35  279.96 )" ewd:textID="8">左前电动车窗升降器电动机总成<tspan x="0 " dy="6.0" /><tspan x="0 " dy="6.0" /></text><text style="font-size:6px;font-family:'NSimSun';" transform="matrix(&st16;  1441.35  273.13 )">H5</text></g></g><g ewd:figtype="conn" ewd:figID="5" ewd:code="J1"><path style="stroke-width: 0.85 ;&st7;   " d=" M  1327.19,   409.72  C  1327.19    408.93   1326.56    408.30   1325.78    408.30  " /><path style="stroke-width: 0.85 ;&st7;   " d=" M  1325.78,   408.30  C  1325.00    408.30   1324.36    408.93   1324.36    409.72  " /><path style="stroke-width: 0.85 ;&st7;   " d=" M  1324.36,   409.72  C  1324.36    410.50   1325.00    411.13   1325.78    411.13  " /><path style="stroke-width: 0.85 ;&st7;   " d=" M  1325.78,   411.13  C  1326.56    411.13   1327.19    410.50   1327.19    409.72  " /><path style="stroke-width: 0.85 ;&st7;   " d=" M  1378.19,   409.72  C  1378.19    408.93   1377.55    408.30   1376.77    408.30  " /><path style="stroke-width: 0.85 ;&st7;   " d=" M  1376.77,   408.30  C  1375.99    408.30   1375.35    408.93   1375.35    409.72  " /><path style="stroke-width: 0.85 ;&st7;   " d=" M  1375.35,   409.72  C  1375.35    410.50   1375.99    411.13   1376.77    411.13  " /><path style="stroke-width: 0.85 ;&st7;   " d=" M  1376.77,   411.13  C  1377.55    411.13   1378.19    410.50   1378.19    409.72  " /><path style="stroke-width: 0.85 ;&st7;   " d=" M  1386.68,   392.72  C  1386.68    391.94   1386.05    391.30   1385.27    391.30  " /><path style="stroke-width: 0.85 ;&st7;   " d=" M  1385.27,   391.30  C  1384.49    391.30   1383.85    391.94   1383.85    392.72  " /><path style="stroke-width: 0.85 ;&st7;   " d=" M  1383.85,   392.72  C  1383.85    393.50   1384.49    394.14   1385.27    394.14  " /><path style="stroke-width: 0.85 ;&st7;   " d=" M  1385.27,   394.14  C  1386.05    394.14   1386.68    393.50   1386.68    392.72  " /><path style="stroke-width: 0.85 ;&st7;   " d=" M  1369.69,   392.72  C  1369.69    391.94   1369.05    391.30   1368.27    391.30  " /><path style="stroke-width: 0.85 ;&st7;   " d=" M  1368.27,   391.30  C  1367.49    391.30   1366.85    391.94   1366.85    392.72  " /><path style="stroke-width: 0.85 ;&st7;   " d=" M  1366.85,   392.72  C  1366.85    393.50   1367.49    394.14   1368.27    394.14  " /><path style="stroke-width: 0.85 ;&st7;   " d=" M  1368.27,   394.14  C  1369.05    394.14   1369.69    393.50   1369.69    392.72  " /><path style="stroke-width: 0.85 ;&st7;   " d=" M  1318.70,   392.72  C  1318.70    391.94   1318.06    391.30   1317.28    391.30  " /><path style="stroke-width: 0.85 ;&st7;   " d=" M  1317.28,   391.30  C  1316.50    391.30   1315.86    391.94   1315.86    392.72  " /><path style="stroke-width: 0.85 ;&st7;   " d=" M  1315.86,   392.72  C  1315.86    393.50   1316.50    394.14   1317.28    394.14  " /><path style="stroke-width: 0.85 ;&st7;   " d=" M  1317.28,   394.14  C  1318.06    394.14   1318.70    393.50   1318.70    392.72  " /><path style="stroke-width: 0.85 ;&st7;   " d=" M  1335.69,   392.72  C  1335.69    391.94   1335.06    391.30   1334.28    391.30  " /><path style="stroke-width: 0.85 ;&st7;   " d=" M  1334.28,   391.30  C  1333.49    391.30   1332.86    391.94   1332.86    392.72  " /><path style="stroke-width: 0.85 ;&st7;   " d=" M  1332.86,   392.72  C  1332.86    393.50   1333.49    394.14   1334.28    394.14  " /><path style="stroke-width: 0.85 ;&st7;   " d=" M  1334.28,   394.14  C  1335.06    394.14   1335.69    393.50   1335.69    392.72  " /><path style="stroke-width: 0.85 ;&st7;  " d=" M  1317.28,   391.30  L  1317.28,   384.22  L  1410.76,   384.22  L  1410.76,   426.71  " /><path style="stroke-width: 0.85 ;&st7;  " d=" M  1384.08,   383.22  L  1383.80,   383.69  L  1383.71,   384.22  L  1383.80,   384.75  L  1384.08,   385.22  L  1384.49,   385.57  L  1385.00,   385.76  L  1385.54,   385.76  L  1386.05,   385.57  L  1386.46,   385.22  L  1386.73,   384.75  L  1386.83,   384.22  L  1386.73,   383.69  L  1386.46,   383.22  L  1386.05,   382.87  L  1385.54,   382.69  L  1385.00,   382.69  L  1384.49,   382.87  L  1384.08,   383.22  L  1384.47,   383.93  L  1384.47,   384.51  L  1384.84,   384.96  L  1385.42,   385.06  L  1385.92,   384.77  L  1386.12,   384.22  L  1385.92,   383.67  L  1385.42,   383.39  L  1384.84,   383.48  L  1385.27,   384.22  " /><path style="stroke-width: 1.42 ;&st7;  " d=" M  1325.78,   408.30  L  1333.37,   390.60  " /><path style="stroke-width: 1.42 ;&st7;  " d=" M  1376.77,   408.30  L  1369.18,   390.60  " /><path style="stroke-width: 0.85 ;&st7;  " d=" M  1376.77,   411.13  L  1376.77,   426.71  " /><path style="stroke-width: 0.85 ;&st7;  " d=" M  1368.27,   391.30  L  1368.27,   367.22  " /><path style="stroke-width: 0.85 ;&st7;  " d=" M  1334.28,   391.30  L  1334.28,   367.22  " /><path style="stroke-width: 0.85 ;&st7;  " d=" M  1325.78,   426.71  L  1325.78,   411.13  " /><path style="stroke-width: 0.85 ;&st7;  " d=" M  1385.27,   384.22  L  1385.27,   391.30  " /><path style="stroke-width: 1.42 ;&st7;  " d=" M  1308.78,   367.22  L  1427.76,   367.22  L  1427.76,   426.71  L  1308.78,   426.71  L  1308.78,   367.22  " /><text style="font-size:6px;font-family:'NSimSun';" transform="matrix(&st16;  1370.85  375.42 )">SD</text><text style="font-size:6px;font-family:'NSimSun';" transform="matrix(&st16;  1336.86  375.42 )">SU</text><text style="font-size:6px;font-family:'NSimSun';" transform="matrix(&st16;  1413.35  423.02 )">B</text><text style="font-size:6px;font-family:'NSimSun';" transform="matrix(&st16;  1379.35  423.02 )">D</text><text style="font-size:6px;font-family:'NSimSun';" transform="matrix(&st16;  1328.36  423.02 )">U</text><text style="font-size:6px;font-family:'NSimSun';" transform="matrix(&st17;  1387.24  409.17 )" ewd:textID="5">下</text><text style="font-size:6px;font-family:'NSimSun';" transform="matrix(&st17;  1319.25  402.35 )" ewd:textID="18">上</text><text style="font-size:6px;font-family:'NSimSun';" transform="matrix(&st16;  1404.58  434.91 )">3</text><text style="font-size:6px;font-family:'NSimSun';" transform="matrix(&st16;  1319.59  434.91 )">4</text><text style="font-size:6px;font-family:'NSimSun';" transform="matrix(&st16;  1328.09  363.53 )">5</text><text style="font-size:6px;font-family:'NSimSun';" transform="matrix(&st16;  1362.09  363.53 )">2</text><text style="font-size:6px;font-family:'NSimSun';" transform="matrix(&st16;  1370.59  434.91 )">1</text><g ewd:figtype="title"><text style="font-size:6px;font-family:'NSimSun';" transform="matrix(&st17; 1298.03 427.11)">J1</text><text style="font-size:6px;font-family:'NSimSun';" transform="matrix(&st17; 1305.14 427.12)" ewd:textID="17">右后电动窗升降器开关总成<tspan x="0 " dy="6.0" /></text></g></g><g ewd:figtype="conn" ewd:figID="6" ewd:code="K2"><path style="stroke-width: 1.42 ;&st7;  " d=" M  1145.18,   515.95  L  1145.18,   524.45  " /><path style="stroke-width: 1.42 ;&st7;  " d=" M  1140.93,   515.95  L  1140.93,   524.45  " /><path style="stroke-width: 0.85 ;&st7;  " d=" M  1140.93,   520.20  L  1130.31,   520.20  " /><path style="stroke-width: 0.85 ;&st7;  " d=" M  1155.81,   520.20  L  1145.18,   520.20  " /><path style="stroke-width: 1.42 ;&st7;  " d=" M  1139.94,   558.44  L  1135.98,   558.44  " /><path style="stroke-width: 1.42 ;&st7;  " d=" M  1135.98,   549.94  L  1139.94,   549.94  " /><path style="stroke-width: 1.42 ;&st7;  " d=" M  1135.98,   558.44  L  1135.98,   549.94  " /><path style="stroke-width: 1.42 ;&st7;  " d=" M  1158.64,   549.94  L  1154.67,   549.94  " /><path style="stroke-width: 1.42 ;&st7;  " d=" M  1154.67,   558.44  L  1158.64,   558.44  " /><path style="stroke-width: 1.42 ;&st7;  " d=" M  1158.64,   558.44  L  1158.64,   549.94  " /><path style="stroke-width: 1.42 ;&st7;   " d=" M  1147.31,   562.69  C  1152.00    562.69   1155.81    558.89   1155.81    554.19  " /><path style="stroke-width: 1.42 ;&st7;   " d=" M  1155.81,   554.19  C  1155.81    549.50   1152.00    545.69   1147.31    545.69  " /><path style="stroke-width: 1.42 ;&st7;   " d=" M  1147.31,   545.69  C  1142.61    545.69   1138.81    549.50   1138.81    554.19  " /><path style="stroke-width: 1.42 ;&st7;   " d=" M  1138.81,   554.19  C  1138.81    558.89   1142.61    562.69   1147.31    562.69  " /><path style="stroke-width: 0.85 ;&st7;  " d=" M  1171.61,   519.20  L  1171.34,   519.67  L  1171.25,   520.20  L  1171.34,   520.73  L  1171.61,   521.20  L  1172.02,   521.55  L  1172.53,   521.73  L  1173.08,   521.73  L  1173.58,   521.55  L  1174.00,   521.20  L  1174.27,   520.73  L  1174.36,   520.20  L  1174.27,   519.67  L  1174.00,   519.20  L  1173.58,   518.85  L  1173.08,   518.66  L  1172.53,   518.66  L  1172.02,   518.85  L  1171.61,   519.20  L  1172.00,   519.91  L  1172.00,   520.49  L  1172.38,   520.94  L  1172.95,   521.03  L  1173.46,   520.75  L  1173.65,   520.20  L  1173.46,   519.65  L  1172.95,   519.36  L  1172.38,   519.46  L  1172.80,   520.20  " /><path style="stroke-width: 0.85 ;&st7;  " d=" M  1120.62,   519.20  L  1120.35,   519.67  L  1120.25,   520.20  L  1120.35,   520.73  L  1120.62,   521.20  L  1121.03,   521.55  L  1121.54,   521.73  L  1122.08,   521.73  L  1122.59,   521.55  L  1123.00,   521.20  L  1123.28,   520.73  L  1123.37,   520.20  L  1123.28,   519.67  L  1123.00,   519.20  L  1122.59,   518.85  L  1122.08,   518.66  L  1121.54,   518.66  L  1121.03,   518.85  L  1120.62,   519.20  L  1121.01,   519.91  L  1121.01,   520.49  L  1121.39,   520.94  L  1121.96,   521.03  L  1122.46,   520.75  L  1122.66,   520.20  L  1122.46,   519.65  L  1121.96,   519.36  L  1121.39,   519.46  L  1121.81,   520.20  " /><path style="stroke-width: 0.85 ;&st7;  " d=" M  1121.81,   520.20  L  1130.31,   520.20  " /><path style="stroke-width: 0.85 ;&st7;  " d=" M  1172.80,   486.20  L  1172.80,   520.20  L  1155.81,   520.20  " /><path style="stroke-width: 0.85 ;&st7;  " d=" M  1172.80,   554.19  L  1172.80,   545.69  L  1169.97,   544.28  L  1175.64,   541.44  L  1169.97,   538.61  L  1175.64,   535.78  L  1169.97,   532.95  L  1175.64,   530.11  L  1172.80,   528.70  L  1172.80,   520.20  " /><path style="stroke-width: 0.85 ;&st7;  " d=" M  1121.81,   486.20  L  1121.81,   554.19  L  1135.98,   554.19  " /><path style="stroke-width: 0.85 ;&st7;  " d=" M  1158.64,   554.19  L  1172.80,   554.19  " /><path style="stroke-width: 1.42 ;&st7;  " d=" M  1104.81,   486.20  L  1104.81,   571.19  L  1189.80,   571.19  L  1189.80,   486.20  L  1104.81,   486.20  " /><text style="font-size:6px;font-family:'NSimSun';" transform="matrix(&st16;  1124.4  494.4 )">U</text><text style="font-size:6px;font-family:'NSimSun';" transform="matrix(&st16;  1175.39  494.4 )">D</text><text style="font-size:6px;font-family:'NSimSun';" transform="matrix(&st16;  1144.58  556.16 )">M</text><text style="font-size:6px;font-family:'NSimSun';" transform="matrix(&st16;  1115.63  482.51 )">1</text><text style="font-size:6px;font-family:'NSimSun';" transform="matrix(&st16;  1166.62  482.51 )">2</text><g ewd:figtype="title"><text style="font-size:6px;font-family:'NSimSun';" transform="matrix(&st17; 1101.17 574.10)" ewd:textID="14">左后电动窗升降器马达总成<tspan x="0 " dy="6.0" /></text><text style="font-size:6px;font-family:'NSimSun';" transform="matrix(&st17; 1094.06 574.09)">K2</text></g></g><g ewd:figtype="conn" ewd:figID="7" ewd:code="J2"><path style="stroke-width: 1.42 ;&st7;  " d=" M  1349.15,   515.95  L  1349.15,   524.45  " /><path style="stroke-width: 1.42 ;&st7;  " d=" M  1344.90,   515.95  L  1344.90,   524.45  " /><path style="stroke-width: 0.85 ;&st7;  " d=" M  1344.90,   520.20  L  1334.28,   520.20  " /><path style="stroke-width: 0.85 ;&st7;  " d=" M  1359.77,   520.20  L  1349.15,   520.20  " /><path style="stroke-width: 1.42 ;&st7;  " d=" M  1362.61,   558.44  L  1362.61,   549.94  " /><path style="stroke-width: 1.42 ;&st7;  " d=" M  1358.64,   558.44  L  1362.61,   558.44  " /><path style="stroke-width: 1.42 ;&st7;  " d=" M  1362.61,   549.94  L  1358.64,   549.94  " /><path style="stroke-width: 1.42 ;&st7;  " d=" M  1339.94,   558.44  L  1339.94,   549.94  " /><path style="stroke-width: 1.42 ;&st7;  " d=" M  1339.94,   549.94  L  1343.91,   549.94  " /><path style="stroke-width: 1.42 ;&st7;  " d=" M  1343.91,   558.44  L  1339.94,   558.44  " /><path style="stroke-width: 1.42 ;&st7;   " d=" M  1351.27,   545.69  C  1346.58    545.69   1342.78    549.50   1342.78    554.19  " /><path style="stroke-width: 1.42 ;&st7;   " d=" M  1342.78,   554.19  C  1342.78    558.89   1346.58    562.69   1351.27    562.69  " /><path style="stroke-width: 1.42 ;&st7;   " d=" M  1351.27,   562.69  C  1355.97    562.69   1359.77    558.89   1359.77    554.19  " /><path style="stroke-width: 1.42 ;&st7;   " d=" M  1359.77,   554.19  C  1359.77    549.50   1355.97    545.69   1351.27    545.69  " /><path style="stroke-width: 0.85 ;&st7;  " d=" M  1375.58,   519.20  L  1375.30,   519.67  L  1375.21,   520.20  L  1375.30,   520.73  L  1375.58,   521.20  L  1375.99,   521.55  L  1376.50,   521.73  L  1377.04,   521.73  L  1377.55,   521.55  L  1377.96,   521.20  L  1378.23,   520.73  L  1378.33,   520.20  L  1378.23,   519.67  L  1377.96,   519.20  L  1377.55,   518.85  L  1377.04,   518.66  L  1376.50,   518.66  L  1375.99,   518.85  L  1375.58,   519.20  L  1375.97,   519.91  L  1375.97,   520.49  L  1376.34,   520.94  L  1376.92,   521.03  L  1377.42,   520.75  L  1377.62,   520.20  L  1377.42,   519.65  L  1376.92,   519.36  L  1376.34,   519.46  L  1376.77,   520.20  " /><path style="stroke-width: 0.85 ;&st7;  " d=" M  1324.59,   519.20  L  1324.31,   519.67  L  1324.22,   520.20  L  1324.31,   520.73  L  1324.59,   521.20  L  1325.00,   521.55  L  1325.51,   521.73  L  1326.05,   521.73  L  1326.56,   521.55  L  1326.97,   521.20  L  1327.24,   520.73  L  1327.34,   520.20  L  1327.24,   519.67  L  1326.97,   519.20  L  1326.56,   518.85  L  1326.05,   518.66  L  1325.51,   518.66  L  1325.00,   518.85  L  1324.59,   519.20  L  1324.98,   519.91  L  1324.98,   520.49  L  1325.35,   520.94  L  1325.93,   521.03  L  1326.43,   520.75  L  1326.63,   520.20  L  1326.43,   519.65  L  1325.93,   519.36  L  1325.35,   519.46  L  1325.78,   520.20  " /><path style="stroke-width: 0.85 ;&st7;  " d=" M  1376.77,   486.20  L  1376.77,   520.20  L  1359.77,   520.20  " /><path style="stroke-width: 0.85 ;&st7;  " d=" M  1325.78,   520.20  L  1334.28,   520.20  " /><path style="stroke-width: 0.85 ;&st7;  " d=" M  1376.77,   554.19  L  1376.77,   545.69  L  1373.94,   544.28  L  1379.60,   541.44  L  1373.94,   538.61  L  1379.60,   535.78  L  1373.94,   532.95  L  1379.60,   530.11  L  1376.77,   528.70  L  1376.77,   520.20  " /><path style="stroke-width: 1.42 ;&st7;  " d=" M  1308.78,   486.20  L  1308.78,   571.19  L  1393.77,   571.19  L  1393.77,   486.20  L  1308.78,   486.20  " /><path style="stroke-width: 0.85 ;&st7;  " d=" M  1362.61,   554.19  L  1376.77,   554.19  " /><path style="stroke-width: 0.85 ;&st7;  " d=" M  1339.94,   554.19  L  1325.78,   554.19  L  1325.78,   486.20  " /><text style="font-size:6px;font-family:'NSimSun';" transform="matrix(&st16;  1328.36  494.4 )">U</text><text style="font-size:6px;font-family:'NSimSun';" transform="matrix(&st16;  1379.35  494.4 )">D</text><text style="font-size:6px;font-family:'NSimSun';" transform="matrix(&st16;  1348.54  556.16 )">M</text><text style="font-size:6px;font-family:'NSimSun';" transform="matrix(&st16;  1319.59  482.51 )">1</text><text style="font-size:6px;font-family:'NSimSun';" transform="matrix(&st16;  1370.59  482.51 )">2</text><g ewd:figtype="title"><text style="font-size:6px;font-family:'NSimSun';" transform="matrix(&st17; 1305.14 574.10)" ewd:textID="15">右后电动窗升降器马达总成<tspan x="0 " dy="6.0" /></text><text style="font-size:6px;font-family:'NSimSun';" transform="matrix(&st17; 1298.03 574.09)">J2</text></g></g><g ewd:figtype="conn" ewd:figID="9" ewd:code="K1"><path style="stroke-width: 0.85 ;&st7;   " d=" M  1123.23,   409.72  C  1123.23    408.93   1122.59    408.30   1121.81    408.30  " /><path style="stroke-width: 0.85 ;&st7;   " d=" M  1121.81,   408.30  C  1121.03    408.30   1120.40    408.93   1120.40    409.72  " /><path style="stroke-width: 0.85 ;&st7;   " d=" M  1120.40,   409.72  C  1120.40    410.50   1121.03    411.13   1121.81    411.13  " /><path style="stroke-width: 0.85 ;&st7;   " d=" M  1121.81,   411.13  C  1122.59    411.13   1123.23    410.50   1123.23    409.72  " /><path style="stroke-width: 0.85 ;&st7;   " d=" M  1174.22,   409.72  C  1174.22    408.93   1173.59    408.30   1172.80    408.30  " /><path style="stroke-width: 0.85 ;&st7;   " d=" M  1172.80,   408.30  C  1172.02    408.30   1171.39    408.93   1171.39    409.72  " /><path style="stroke-width: 0.85 ;&st7;   " d=" M  1171.39,   409.72  C  1171.39    410.50   1172.02    411.13   1172.80    411.13  " /><path style="stroke-width: 0.85 ;&st7;   " d=" M  1172.80,   411.13  C  1173.59    411.13   1174.22    410.50   1174.22    409.72  " /><path style="stroke-width: 0.85 ;&st7;   " d=" M  1182.72,   392.72  C  1182.72    391.94   1182.08    391.30   1181.30    391.30  " /><path style="stroke-width: 0.85 ;&st7;   " d=" M  1181.30,   391.30  C  1180.52    391.30   1179.89    391.94   1179.89    392.72  " /><path style="stroke-width: 0.85 ;&st7;   " d=" M  1179.89,   392.72  C  1179.89    393.50   1180.52    394.14   1181.30    394.14  " /><path style="stroke-width: 0.85 ;&st7;   " d=" M  1181.30,   394.14  C  1182.08    394.14   1182.72    393.50   1182.72    392.72  " /><path style="stroke-width: 0.85 ;&st7;   " d=" M  1165.72,   392.72  C  1165.72    391.94   1165.09    391.30   1164.31    391.30  " /><path style="stroke-width: 0.85 ;&st7;   " d=" M  1164.31,   391.30  C  1163.52    391.30   1162.89    391.94   1162.89    392.72  " /><path style="stroke-width: 0.85 ;&st7;   " d=" M  1162.89,   392.72  C  1162.89    393.50   1163.52    394.14   1164.31    394.14  " /><path style="stroke-width: 0.85 ;&st7;   " d=" M  1164.31,   394.14  C  1165.09    394.14   1165.72    393.50   1165.72    392.72  " /><path style="stroke-width: 0.85 ;&st7;   " d=" M  1114.73,   392.72  C  1114.73    391.94   1114.10    391.30   1113.31    391.30  " /><path style="stroke-width: 0.85 ;&st7;   " d=" M  1113.31,   391.30  C  1112.53    391.30   1111.90    391.94   1111.90    392.72  " /><path style="stroke-width: 0.85 ;&st7;   " d=" M  1111.90,   392.72  C  1111.90    393.50   1112.53    394.14   1113.31    394.14  " /><path style="stroke-width: 0.85 ;&st7;   " d=" M  1113.31,   394.14  C  1114.10    394.14   1114.73    393.50   1114.73    392.72  " /><path style="stroke-width: 0.85 ;&st7;   " d=" M  1131.73,   392.72  C  1131.73    391.94   1131.09    391.30   1130.31    391.30  " /><path style="stroke-width: 0.85 ;&st7;   " d=" M  1130.31,   391.30  C  1129.53    391.30   1128.89    391.94   1128.89    392.72  " /><path style="stroke-width: 0.85 ;&st7;   " d=" M  1128.89,   392.72  C  1128.89    393.50   1129.53    394.14   1130.31    394.14  " /><path style="stroke-width: 0.85 ;&st7;   " d=" M  1130.31,   394.14  C  1131.09    394.14   1131.73    393.50   1131.73    392.72  " /><path style="stroke-width: 0.85 ;&st7;  " d=" M  1113.31,   391.30  L  1113.31,   384.22  L  1206.80,   384.22  L  1206.80,   426.71  " /><path style="stroke-width: 0.85 ;&st7;  " d=" M  1180.11,   383.22  L  1179.84,   383.69  L  1179.74,   384.22  L  1179.84,   384.75  L  1180.11,   385.22  L  1180.52,   385.57  L  1181.03,   385.76  L  1181.57,   385.76  L  1182.08,   385.57  L  1182.49,   385.22  L  1182.77,   384.75  L  1182.86,   384.22  L  1182.77,   383.69  L  1182.49,   383.22  L  1182.08,   382.87  L  1181.57,   382.69  L  1181.03,   382.69  L  1180.52,   382.87  L  1180.11,   383.22  L  1180.50,   383.93  L  1180.50,   384.51  L  1180.88,   384.96  L  1181.45,   385.06  L  1181.95,   384.77  L  1182.15,   384.22  L  1181.95,   383.67  L  1181.45,   383.39  L  1180.88,   383.48  L  1181.30,   384.22  " /><path style="stroke-width: 1.42 ;&st7;  " d=" M  1121.81,   408.30  L  1129.40,   390.60  " /><path style="stroke-width: 1.42 ;&st7;  " d=" M  1172.80,   408.30  L  1165.21,   390.60  " /><path style="stroke-width: 0.85 ;&st7;  " d=" M  1172.80,   411.13  L  1172.80,   426.71  " /><path style="stroke-width: 0.85 ;&st7;  " d=" M  1164.30,   391.30  L  1164.30,   367.22  " /><path style="stroke-width: 0.85 ;&st7;  " d=" M  1130.31,   391.30  L  1130.31,   367.22  " /><path style="stroke-width: 0.85 ;&st7;  " d=" M  1121.81,   426.71  L  1121.81,   411.13  " /><path style="stroke-width: 0.85 ;&st7;  " d=" M  1181.30,   384.22  L  1181.30,   391.30  " /><path style="stroke-width: 1.42 ;&st7;  " d=" M  1104.81,   367.22  L  1223.80,   367.22  L  1223.80,   426.71  L  1104.81,   426.71  L  1104.81,   367.22  " /><text style="font-size:6px;font-family:'NSimSun';" transform="matrix(&st16;  1209.38  423.02 )">B</text><text style="font-size:6px;font-family:'NSimSun';" transform="matrix(&st16;  1175.39  423.02 )">D</text><text style="font-size:6px;font-family:'NSimSun';" transform="matrix(&st16;  1124.4  423.02 )">U</text><text style="font-size:6px;font-family:'NSimSun';" transform="matrix(&st16;  1166.89  375.42 )">SD</text><text style="font-size:6px;font-family:'NSimSun';" transform="matrix(&st16;  1132.89  375.42 )">SU</text><text style="font-size:6px;font-family:'NSimSun';" transform="matrix(&st17;  1183.27  409.17 )" ewd:textID="5">下</text><text style="font-size:6px;font-family:'NSimSun';" transform="matrix(&st17;  1115.28  402.35 )" ewd:textID="18">上</text><text style="font-size:6px;font-family:'NSimSun';" transform="matrix(&st16;  1115.63  434.91 )">4</text><text style="font-size:6px;font-family:'NSimSun';" transform="matrix(&st16;  1124.13  363.53 )">5</text><text style="font-size:6px;font-family:'NSimSun';" transform="matrix(&st16;  1158.12  363.53 )">2</text><text style="font-size:6px;font-family:'NSimSun';" transform="matrix(&st16;  1166.62  434.91 )">1</text><text style="font-size:6px;font-family:'NSimSun';" transform="matrix(&st16;  1200.61  434.91 )">3</text><g ewd:figtype="title"><text style="font-size:6px;font-family:'NSimSun';" transform="matrix(&st17; 1101.17 427.12)" ewd:textID="16">左后电动窗升降器开关总成<tspan x="0 " dy="6.0" /></text><text style="font-size:6px;font-family:'NSimSun';" transform="matrix(&st17; 1094.06 427.11)">K1</text></g></g><g ewd:figtype="w2w" ewd:figID="33" ewd:code="KL1"><path style="stroke-width: 1.42 ;&st7;  " d=" M  1126.06,   281.67  L  1130.31,   285.92  L  1134.56,   281.67  " /><path style="stroke-width: 1.42 ;&st7;  " d=" M  1134.56,   285.07  L  1130.31,   289.32  L  1126.06,   285.07  " /><text style="font-size:6px;font-family:'NSimSun';" transform="matrix(&st16;  1117.68  296.96 )">6</text></g><g ewd:figtype="w2w" ewd:figID="34" ewd:code="EL1"><path style="stroke-width: 1.42 ;&st7;  " d=" M  1134.56,   240.31  L  1130.31,   236.06  L  1126.06,   240.31  " /><path style="stroke-width: 1.42 ;&st7;  " d=" M  1134.56,   236.91  L  1130.31,   232.66  L  1126.06,   236.91  " /><text style="font-size:6px;font-family:'NSimSun';" transform="matrix(&st16;  1114.58  228.97 )">12</text></g><g ewd:figtype="w2w" ewd:figID="35" ewd:code="HE2"><path style="stroke-width: 1.42 ;&st7;  " d=" M  1134.56,   168.92  L  1130.31,   164.67  L  1126.06,   168.92  " /><path style="stroke-width: 1.42 ;&st7;  " d=" M  1134.56,   172.32  L  1130.31,   168.07  L  1126.06,   172.32  " /><text style="font-size:6px;font-family:'NSimSun';" transform="matrix(&st16;  1117.68  160.98 )">8</text></g><g ewd:figtype="w2w" ewd:figID="36" ewd:code="KL1"><path style="stroke-width: 1.42 ;&st7;  " d=" M  1160.06,   281.67  L  1164.30,   285.92  L  1168.55,   281.67  " /><path style="stroke-width: 1.42 ;&st7;  " d=" M  1168.55,   285.07  L  1164.30,   289.32  L  1160.06,   285.07  " /><text style="font-size:6px;font-family:'NSimSun';" transform="matrix(&st16;  1148.57  296.96 )">13</text></g><g ewd:figtype="w2w" ewd:figID="37" ewd:code="EL1"><path style="stroke-width: 1.42 ;&st7;  " d=" M  1168.55,   240.31  L  1164.30,   236.06  L  1160.06,   240.31  " /><path style="stroke-width: 1.42 ;&st7;  " d=" M  1168.55,   236.91  L  1164.30,   232.66  L  1160.06,   236.91  " /><text style="font-size:6px;font-family:'NSimSun';" transform="matrix(&st16;  1148.57  228.97 )">11</text></g><g ewd:figtype="w2w" ewd:figID="38" ewd:code="HE2"><path style="stroke-width: 1.42 ;&st7;  " d=" M  1168.55,   172.32  L  1164.30,   168.07  L  1160.06,   172.32  " /><path style="stroke-width: 1.42 ;&st7;  " d=" M  1168.55,   168.92  L  1164.30,   164.67  L  1160.06,   168.92  " /><text style="font-size:6px;font-family:'NSimSun';" transform="matrix(&st16;  1151.67  160.98 )">7</text></g><g ewd:figtype="w2w" ewd:figID="39" ewd:code="JL1"><path style="stroke-width: 1.42 ;&st7;  " d=" M  1330.03,   281.67  L  1334.28,   285.92  L  1338.53,   281.67  " /><path style="stroke-width: 1.42 ;&st7;  " d=" M  1338.53,   285.07  L  1334.28,   289.32  L  1330.03,   285.07  " /><text style="font-size:6px;font-family:'NSimSun';" transform="matrix(&st16;  1321.65  296.96 )">6</text></g><g ewd:figtype="w2w" ewd:figID="40" ewd:code="EL4"><path style="stroke-width: 1.42 ;&st7;  " d=" M  1338.53,   240.31  L  1334.28,   236.06  L  1330.03,   240.31  " /><path style="stroke-width: 1.42 ;&st7;  " d=" M  1338.53,   236.91  L  1334.28,   232.66  L  1330.03,   236.91  " /><text style="font-size:6px;font-family:'NSimSun';" transform="matrix(&st16;  1321.65  228.97 )">5</text></g><g ewd:figtype="w2w" ewd:figID="41" ewd:code="HE2"><path style="stroke-width: 1.42 ;&st7;  " d=" M  1338.53,   172.32  L  1334.28,   168.07  L  1330.03,   172.32  " /><path style="stroke-width: 1.42 ;&st7;  " d=" M  1338.53,   168.92  L  1334.28,   164.67  L  1330.03,   168.92  " /><text style="font-size:6px;font-family:'NSimSun';" transform="matrix(&st16;  1318.54  160.98 )">10</text></g><g ewd:figtype="w2w" ewd:figID="42" ewd:code="JL1"><path style="stroke-width: 1.42 ;&st7;  " d=" M  1364.02,   281.67  L  1368.27,   285.92  L  1372.52,   281.67  " /><path style="stroke-width: 1.42 ;&st7;  " d=" M  1372.52,   285.07  L  1368.27,   289.32  L  1364.02,   285.07  " /><text style="font-size:6px;font-family:'NSimSun';" transform="matrix(&st16;  1352.54  296.96 )">13</text></g><g ewd:figtype="w2w" ewd:figID="43" ewd:code="EL4"><path style="stroke-width: 1.42 ;&st7;  " d=" M  1372.52,   240.31  L  1368.27,   236.06  L  1364.02,   240.31  " /><path style="stroke-width: 1.42 ;&st7;  " d=" M  1372.52,   236.91  L  1368.27,   232.66  L  1364.02,   236.91  " /><text style="font-size:6px;font-family:'NSimSun';" transform="matrix(&st16;  1355.64  228.97 )">6</text></g><g ewd:figtype="w2w" ewd:figID="44" ewd:code="HE2"><path style="stroke-width: 1.42 ;&st7;  " d=" M  1372.52,   172.32  L  1368.27,   168.07  L  1364.02,   172.32  " /><path style="stroke-width: 1.42 ;&st7;  " d=" M  1372.52,   168.92  L  1368.27,   164.67  L  1364.02,   168.92  " /><text style="font-size:6px;font-family:'NSimSun';" transform="matrix(&st16;  1355.64  160.98 )">9</text></g><g ewd:code="" ewd:figID="61" ewd:comment="1" ewd:figtype="commref"><text style="font-size:6px;font-family:'NSimSun';" transform="matrix(&st16;  1373.36  110.27 )">(*1)</text></g><g ewd:code="" ewd:figID="62" ewd:comment="2" ewd:figtype="commref"><text style="font-size:6px;font-family:'NSimSun';" transform="matrix(&st16;  1373.36  119.33 )">(*2)</text></g></svg>