<?xml version="1.0" encoding="utf-8"?>
<!DOCTYPE svg PUBLIC "-//W3C//DTD SVG 1.0//EN" "http://www.w3.org/TR/2001/REC-SVG-20010904/DTD/svg10.dtd"[
	<!ENTITY ns_flows "http://ns.adobe.com/Flows/1.0/">
	<!ENTITY ns_svg "http://www.w3.org/2000/svg">
	<!ENTITY ns_xlink "http://www.w3.org/1999/xlink">
	<!ENTITY st0 "font-size:7px;font-family:'NSimSun';adobe-font-script:japanese;">
	<!ENTITY st1 "font-size:6px;font-family:'NSimSun';">
	<!-- White fill  -->
	<!ENTITY st2 "fill:#FFFFFF;stroke:#000000; stroke-width:1.41;stroke-linecap:round;stroke-linejoin:round;">
	<!-- Yellow fill  -->
	<!ENTITY st3 "fill:#FFFFCC;stroke:#FFFFCC; stroke-width:0.1;stroke-linecap:round;stroke-linejoin:round;">
	<!-- Gray fill  -->
	<!ENTITY st4 "fill:#CCCCCC;stroke:#CCCCCC; stroke-width:0.1;stroke-linecap:round;stroke-linejoin:round;">
	<!-- Light-blue fill -->
	<!ENTITY st5 "fill:#CCECF4;stroke:#000000; stroke-width:1.133;stroke-linecap:round;stroke-linejoin:round;">
	<!ENTITY st6 "fill:none;stroke-linecap:butt; stroke-linejoin:round;">
	<!ENTITY st7 "fill:none;stroke:#000000;stroke-linecap:round;stroke-linejoin:round;">
	<!ENTITY st8 "enable-background:new    ;">
	<!-- Black fill -->
	<!ENTITY st9 "fill:#000000;stroke:#000000; stroke-linecap:round;stroke-linejoin:round;">
	<!-- SRS note   -->
	<!ENTITY st10 "font-size:9px;font-family:'NSimSun';">
	<!ENTITY st11 "font-size:9px;font-family:'NSimSun';">
	<!ENTITY st12 "font-size:6px;font-family:'NSimSun';">
	<!ENTITY st13 "fill:none;stroke:#ff0000;stroke-linecap:round;stroke-linejoin:round;">
	<!-- Yellow fill  -->
	<!ENTITY st14 "fill:#FFFF00;stroke:#FFFF00; stroke-width:0.1;stroke-linecap:round;stroke-linejoin:round;">
	<!ENTITY st15 "font-size:6px;font-family:'NSimSun';adobe-font-script:japanese;">
	<!ENTITY st16 "1.00 0.00 0.00 1.00">
	<!ENTITY st17 "0.00 -1.00 1.00 0.00">
	<!ENTITY st18 "font-size:6px;font-family:'NSimSun';">
	<!ENTITY st19 "font-size:9px;font-family:'NSimSun';">
	<!ENTITY st20 "font-size:6px;font-family:'NSimSun';adobe-font-script:japanese;">
	<!ENTITY st21 "font-size:7px;font-family:'NSimSun';adobe-font-script:japanese;">
	<!ATTLIST svg
		xmlns:ewd CDATA #FIXED "http://shcl.co.jp/ewd"
		xmlns:a CDATA #FIXED "http://ns.adobe.com/AdobeSVGViewerExtensions/3.0/"
		ewd:ver CDATA #IMPLIED
	>
	<!ATTLIST a
		ewd:lineID CDATA #IMPLIED
		ewd:groupID CDATA #IMPLIED
		ewd:figtype CDATA #IMPLIED
		ewd:code CDATA #IMPLIED
		ewd:figID CDATA #IMPLIED
		ewd:pinNo CDATA #IMPLIED
		ewd:comment CDATA #IMPLIED >
	<!ATTLIST g
		ewd:lineID CDATA #IMPLIED
		ewd:groupID CDATA #IMPLIED
		ewd:figtype CDATA #IMPLIED
		ewd:code CDATA #IMPLIED
		ewd:figID CDATA #IMPLIED
		ewd:pinNo CDATA #IMPLIED
		ewd:comment CDATA #IMPLIED >
	<!ATTLIST text
		ewd:textID CDATA #IMPLIED
		ewd:horAlign CDATA #IMPLIED >
	<!ATTLIST title
		ewd:textID CDATA #IMPLIED >
]>
<!-- Generator: Shintec Hozumi YS   -->
<svg onload="call_execInitLoadProc_svg('system')" style="overflow:visible;  enable-background:new 0 0 2526.091 710.000" viewBox="0 0 2472.081 710.000" height="710.000" width="2472.081" xml:space="preserve" ewd:ver="2.1.2.6F" xmlns="&ns_svg;" xmlns:ewd="http://shcl.co.jp/ewd" xmlns:a="http://ns.adobe.com/AdobeSVGViewerExtensions/3.0/" xmlns:xlink="&ns_xlink;">
<path style="stroke-width: 1.42 ;&st7;  " d=" M   441.93,   171.76  L   433.43,   171.76  " /><path style="stroke-width: 1.42 ;&st7;  " d=" M   127.48,   443.71  L   135.98,   443.71  " /><path style="stroke-width: 1.42 ;&st7;  " d=" M   195.47,   443.71  L   203.97,   443.71  " /><path style="stroke-width: 1.42 ;&st7;  " d=" M   237.96,   443.71  L   246.46,   443.71  " /><text style="font-size:6px;font-family:'NSimSun';" transform="matrix(&st17;  47.3  394.68 )">G</text><text style="font-size:6px;font-family:'NSimSun';" transform="matrix(&st16;  488.6  423.02 )">GR</text><text style="font-size:6px;font-family:'NSimSun';" transform="matrix(&st16;  275.24  434.35 )">(*2)</text><text style="font-size:6px;font-family:'NSimSun';" transform="matrix(&st16;  276.13  423.02 )">GR</text><text style="font-size:6px;font-family:'NSimSun';" transform="matrix(&st17;  254.09  397.43 )">(*1)</text><text style="font-size:6px;font-family:'NSimSun';" transform="matrix(&st17;  429.73  209.57 )">GR</text><text style="font-size:6px;font-family:'NSimSun';" transform="matrix(&st17;  429.73  145.83 )">GR</text><text style="font-size:6px;font-family:'NSimSun';" transform="matrix(&st17;  123.78  140.23 )">W</text><text style="font-size:6px;font-family:'NSimSun';" transform="matrix(&st17;  242.76  396.54 )">GR</text><text style="font-size:6px;font-family:'NSimSun';" transform="matrix(&st17;  200.27  394.21 )">P</text><text style="font-size:6px;font-family:'NSimSun';" transform="matrix(&st17;  132.28  394.29 )">L</text><text style="font-size:6px;font-family:'NSimSun';" transform="matrix(&st17;  200.27  479.28 )">L</text><text style="font-size:6px;font-family:'NSimSun';" transform="matrix(&st17;  242.76  481.53 )">GR</text><text style="font-size:6px;font-family:'NSimSun';" transform="matrix(&st17;  132.28  479.28 )">L</text><text style="font-size:6px;font-family:'NSimSun';" transform="matrix(&st17;  98.29  398.67 )">W-B</text><text style="font-size:6px;font-family:'NSimSun';" transform="matrix(&st17;  98.29  585.64 )">W-B</text><text style="font-size:6px;font-family:'NSimSun';" transform="matrix(&st16;  488.6  558.99 )">GR</text><text style="font-size:6px;font-family:'NSimSun';" transform="matrix(&st16;  487.71  434.35 )">(*1)</text><text style="font-size:6px;font-family:'NSimSun';" transform="matrix(&st16;  490.85  584.49 )">L</text><text style="font-size:6px;font-family:'NSimSun';" transform="matrix(&st16;  490.46  635.48 )">G</text><text style="font-size:6px;font-family:'NSimSun';" transform="matrix(&st16;  490.85  609.99 )">L</text><g ewd:figtype="rb" ewd:figID="2" ewd:code="FUSE36"><path style="stroke-width: 1.42 ;&st7;  " d=" M   129.60,   103.77  L   125.35,   103.77  " /><path style="stroke-width: 0.85 ;&st7;  " d=" M   127.48,    78.27  L   127.48,   103.77  " /><path style="stroke-width: 0.28 ;&st9;  " d=" M   127.48,    98.87  L   124.65,    96.04  L   124.65,   100.29  L   127.48,   103.12  L   130.31,   100.29  L   130.31,    96.04  L   127.48,    98.87  " /><text style="font-size:6px;font-family:'NSimSun';" transform="matrix(&st16;  119.44  32.08 )">(BAT)</text><text style="font-size:6px;font-family:'NSimSun';" transform="matrix(&st16;  143.9  56.17 )">120A <tspan x="0 " dy="6.0">ALT</tspan></text><text style="font-size:6px;font-family:'NSimSun';" transform="matrix(&st16;  121.29  86.47 )">2</text><path style="stroke-width: 0.85 ;&st7;  " d=" M   127.48,    69.77  L   127.48,    78.27  " /><path style="stroke-width: 1.42 ;&st7;   " d=" M   127.48,    47.11  C   124.74     48.72    123.83     52.25    125.44     54.99  " /><path style="stroke-width: 1.42 ;&st7;   " d=" M   125.44,    54.99  C   125.96     55.87    126.60     56.51    127.48     57.03  " /><path style="stroke-width: 1.42 ;&st7;   " d=" M   127.48,    66.94  C   130.22     65.33    131.13     61.80    129.52     59.06  " /><path style="stroke-width: 1.42 ;&st7;   " d=" M   129.52,    59.06  C   129.00     58.18    128.36     57.55    127.48     57.03  " /><path style="stroke-width: 0.85 ;&st7;   " d=" M   128.90,    45.69  C   128.90     44.91    128.26     44.28    127.48     44.28  " /><path style="stroke-width: 0.85 ;&st7;   " d=" M   127.48,    44.28  C   126.70     44.28    126.06     44.91    126.06     45.69  " /><path style="stroke-width: 0.85 ;&st7;   " d=" M   126.06,    45.69  C   126.06     46.48    126.70     47.11    127.48     47.11  " /><path style="stroke-width: 0.85 ;&st7;   " d=" M   127.48,    47.11  C   128.26     47.11    128.90     46.48    128.90     45.69  " /><path style="stroke-width: 0.85 ;&st7;   " d=" M   128.90,    68.36  C   128.90     67.57    128.26     66.94    127.48     66.94  " /><path style="stroke-width: 0.85 ;&st7;   " d=" M   127.48,    66.94  C   126.70     66.94    126.06     67.57    126.06     68.36  " /><path style="stroke-width: 0.85 ;&st7;   " d=" M   126.06,    68.36  C   126.06     69.14    126.70     69.77    127.48     69.77  " /><path style="stroke-width: 0.85 ;&st7;   " d=" M   127.48,    69.77  C   128.26     69.77    128.90     69.14    128.90     68.36  " /><path style="stroke-width: 1.42 ;&st7;  " d=" M   114.73,    35.78  L   114.73,    78.27  L   140.23,    78.27  L   140.23,    35.78  L   114.73,    35.78  " /></g><g ewd:figtype="conn" ewd:figID="3" ewd:code="H6"><path style="stroke-width: 1.42 ;&st7;  " d=" M   416.43,    35.78  L   416.43,   103.77  L  1529.74,   103.77  L  1529.74,    35.78  L   416.43,    35.78  " /><g ewd:comment="1,2" ewd:lineID="10"><text style="font-size:6px;font-family:'NSimSun';" transform="matrix(&st16;  424.73  119.33 )">6</text><text style="font-size:6px;font-family:'NSimSun';" transform="matrix(&st16;  424.73  110.27 )">6</text><path style="stroke-width: 1.42 ;&st7;   " d=" M   437.96,   108.30  C   437.96    105.80    435.93    103.77    433.43    103.77  " /><path style="stroke-width: 1.42 ;&st7;   " d=" M   433.43,   103.77  C   430.92    103.77    428.90    105.80    428.90    108.30  " /><path style="stroke-width: 1.42 ;&st7;   " d=" M   428.90,   108.30  C   428.90    110.80    430.92    112.83    433.43    112.83  " /><path style="stroke-width: 1.42 ;&st7;   " d=" M   433.43,   112.83  C   435.93    112.83    437.96    110.80    437.96    108.30  " /><path style="stroke-width: 1.42 ;&st7;   " d=" M   437.96,   117.37  C   437.96    114.86    435.93    112.83    433.43    112.83  " /><path style="stroke-width: 1.42 ;&st7;   " d=" M   433.43,   112.83  C   430.92    112.83    428.90    114.86    428.90    117.37  " /><path style="stroke-width: 1.42 ;&st7;   " d=" M   428.90,   117.37  C   428.90    119.87    430.92    121.90    433.43    121.90  " /><path style="stroke-width: 1.42 ;&st7;   " d=" M   433.43,   121.90  C   435.93    121.90    437.96    119.87    437.96    117.37  " /><text style="font-size:6px;font-family:'NSimSun';" transform="matrix(&st16;  431.12  110.27 )">A</text><text style="font-size:6px;font-family:'NSimSun';" transform="matrix(&st16;  431.24  119.33 )">B</text><text style="font-size:6px;font-family:'NSimSun';" transform="matrix(&st16;  431.24  100.07 )">B</text><g ewd:code="" ewd:figID="68" ewd:comment="1" ewd:figtype="commref"><text style="font-size:6px;font-family:'NSimSun';" transform="matrix(&st16;  438.52  110.27 )">(*1)</text></g><g ewd:code="" ewd:figID="69" ewd:comment="2" ewd:figtype="commref"><text style="font-size:6px;font-family:'NSimSun';" transform="matrix(&st16;  438.52  119.33 )">(*2)</text></g></g><g ewd:figtype="title"><text style="font-size:6px;font-family:'NSimSun';" transform="matrix(&st16; 421.52 25.03)">H6(A),(B)</text><text style="font-size:6px;font-family:'NSimSun';" transform="matrix(&st16; 421.52 32.13)" ewd:textID="13">电动窗升降器主开关总成<tspan x="0 " dy="6.0" /></text></g></g><g ewd:code="3" ewd:figID="17" ewd:comment="2,1" ewd:figtype="jb"><path style="stroke-width: 1.42 ;&st7;  " d=" M   333.57,   358.73  L   329.32,   358.73  " /><path style="stroke-width: 1.42 ;&st7;  " d=" M   333.57,   350.23  L   329.32,   350.23  " /><path style="stroke-width: 0.85 ;&st7;  " d=" M   331.44,   307.73  L   331.44,   350.23  " /><path style="stroke-width: 1.42 ;&st7;  " d=" M   129.60,   163.26  L   125.35,   163.26  " /><path style="stroke-width: 1.42 ;&st7;  " d=" M   129.60,   154.76  L   125.35,   154.76  " /><path style="stroke-width: 1.42 ;&st7;  " d=" M   206.09,   358.73  L   201.84,   358.73  " /><path style="stroke-width: 1.42 ;&st7;  " d=" M   206.09,   350.23  L   201.84,   350.23  " /><path style="stroke-width: 0.85 ;&st7;  " d=" M   203.97,   307.73  L   203.97,   350.23  " /><path style="stroke-width: 0.85 ;&st7;  " d=" M   101.98,   222.75  L   101.98,   231.25  " /><path style="stroke-width: 0.85 ;&st7;  " d=" M   101.98,   197.25  L   101.98,   205.75  " /><path style="stroke-width: 1.42 ;&st7;  " d=" M   127.48,   224.16  L   133.14,   201.50  " /><path style="stroke-width: 0.85 ;&st7;  " d=" M   127.48,   231.25  L   127.48,   227.00  " /><path style="stroke-width: 0.85 ;&st7;  " d=" M   127.48,   197.25  L   127.48,   201.50  " /><path style="stroke-width: 1.42 ;&st7;  " d=" M   104.11,   350.23  L    99.86,   350.23  " /><path style="stroke-width: 1.42 ;&st7;  " d=" M   104.11,   358.73  L    99.86,   358.73  " /><path style="stroke-width: 1.42 ;&st7;  " d=" M   138.10,   358.73  L   133.85,   358.73  " /><path style="stroke-width: 0.85 ;&st7;  " d=" M   135.98,   307.73  L   135.98,   350.23  " /><path style="stroke-width: 1.42 ;&st7;  " d=" M   138.10,   350.23  L   133.85,   350.23  " /><path style="stroke-width: 1.42 ;&st7;  " d=" M   274.08,   358.73  L   269.83,   358.73  " /><path style="stroke-width: 1.42 ;&st7;  " d=" M   274.08,   350.23  L   269.83,   350.23  " /><path style="stroke-width: 1.42 ;&st7;  " d=" M   248.58,   358.73  L   244.33,   358.73  " /><path style="stroke-width: 1.42 ;&st7;  " d=" M   248.58,   350.23  L   244.33,   350.23  " /><path style="stroke-width: 1.42 ;&st7;   " d=" M   337.82,   354.48  C   337.82    352.13    335.92    350.23    333.57    350.23  " /><path style="stroke-width: 1.42 ;&st7;   " d=" M   333.57,   358.73  C   335.92    358.73    337.82    356.82    337.82    354.48  " /><path style="stroke-width: 1.42 ;&st7;   " d=" M   325.07,   354.48  C   325.07    356.82    326.97    358.73    329.32    358.73  " /><path style="stroke-width: 1.42 ;&st7;   " d=" M   329.32,   350.23  C   326.97    350.23    325.07    352.13    325.07    354.48  " /><path style="stroke-width: 0.85 ;&st7;   " d=" M   332.86,   306.32  C   332.86    305.54    332.23    304.90    331.44    304.90  " /><path style="stroke-width: 0.85 ;&st7;   " d=" M   331.44,   304.90  C   330.66    304.90    330.03    305.54    330.03    306.32  " /><path style="stroke-width: 0.85 ;&st7;   " d=" M   330.03,   306.32  C   330.03    307.10    330.66    307.73    331.44    307.73  " /><path style="stroke-width: 0.85 ;&st7;   " d=" M   331.44,   307.73  C   332.23    307.73    332.86    307.10    332.86    306.32  " /><path style="stroke-width: 0.85 ;&st7;   " d=" M   332.86,   283.65  C   332.86    282.87    332.23    282.24    331.44    282.24  " /><path style="stroke-width: 0.85 ;&st7;   " d=" M   331.44,   282.24  C   330.66    282.24    330.03    282.87    330.03    283.65  " /><path style="stroke-width: 0.85 ;&st7;   " d=" M   330.03,   283.65  C   330.03    284.44    330.66    285.07    331.44    285.07  " /><path style="stroke-width: 0.85 ;&st7;   " d=" M   331.44,   285.07  C   332.23    285.07    332.86    284.44    332.86    283.65  " /><path style="stroke-width: 1.42 ;&st7;   " d=" M   331.44,   304.90  C   334.18    303.29    335.09    299.76    333.48    297.02  " /><path style="stroke-width: 1.42 ;&st7;   " d=" M   333.48,   297.02  C   332.96    296.14    332.33    295.51    331.44    294.99  " /><path style="stroke-width: 1.42 ;&st7;   " d=" M   331.44,   285.07  C   328.71    286.68    327.79    290.21    329.41    292.95  " /><path style="stroke-width: 1.42 ;&st7;   " d=" M   329.41,   292.95  C   329.93    293.83    330.56    294.47    331.44    294.99  " /><path style="stroke-width: 1.42 ;&st7;   " d=" M   133.85,   159.01  C   133.85    156.66    131.95    154.76    129.60    154.76  " /><path style="stroke-width: 1.42 ;&st7;   " d=" M   129.60,   163.26  C   131.95    163.26    133.85    161.36    133.85    159.01  " /><path style="stroke-width: 1.42 ;&st7;   " d=" M   121.10,   159.01  C   121.10    161.36    123.01    163.26    125.35    163.26  " /><path style="stroke-width: 1.42 ;&st7;   " d=" M   125.35,   154.76  C   123.01    154.76    121.10    156.66    121.10    159.01  " /><path style="stroke-width: 1.42 ;&st7;   " d=" M   210.34,   354.48  C   210.34    352.13    208.44    350.23    206.09    350.23  " /><path style="stroke-width: 1.42 ;&st7;   " d=" M   206.09,   358.73  C   208.44    358.73    210.34    356.82    210.34    354.48  " /><path style="stroke-width: 1.42 ;&st7;   " d=" M   197.59,   354.48  C   197.59    356.82    199.49    358.73    201.84    358.73  " /><path style="stroke-width: 1.42 ;&st7;   " d=" M   201.84,   350.23  C   199.49    350.23    197.59    352.13    197.59    354.48  " /><path style="stroke-width: 0.85 ;&st7;   " d=" M   205.38,   306.32  C   205.38    305.54    204.75    304.90    203.97    304.90  " /><path style="stroke-width: 0.85 ;&st7;   " d=" M   203.97,   304.90  C   203.18    304.90    202.55    305.54    202.55    306.32  " /><path style="stroke-width: 0.85 ;&st7;   " d=" M   202.55,   306.32  C   202.55    307.10    203.18    307.73    203.97    307.73  " /><path style="stroke-width: 0.85 ;&st7;   " d=" M   203.97,   307.73  C   204.75    307.73    205.38    307.10    205.38    306.32  " /><path style="stroke-width: 0.85 ;&st7;   " d=" M   205.38,   283.65  C   205.38    282.87    204.75    282.24    203.97    282.24  " /><path style="stroke-width: 0.85 ;&st7;   " d=" M   203.97,   282.24  C   203.18    282.24    202.55    282.87    202.55    283.65  " /><path style="stroke-width: 0.85 ;&st7;   " d=" M   202.55,   283.65  C   202.55    284.44    203.18    285.07    203.97    285.07  " /><path style="stroke-width: 0.85 ;&st7;   " d=" M   203.97,   285.07  C   204.75    285.07    205.38    284.44    205.38    283.65  " /><path style="stroke-width: 1.42 ;&st7;   " d=" M   203.97,   304.90  C   206.70    303.29    207.62    299.76    206.00    297.02  " /><path style="stroke-width: 1.42 ;&st7;   " d=" M   206.00,   297.02  C   205.48    296.14    204.85    295.51    203.97    294.99  " /><path style="stroke-width: 1.42 ;&st7;   " d=" M   203.97,   285.07  C   201.23    286.68    200.32    290.21    201.93    292.95  " /><path style="stroke-width: 1.42 ;&st7;   " d=" M   201.93,   292.95  C   202.45    293.83    203.08    294.47    203.97    294.99  " /><path style="stroke-width: 1.42 ;&st7;   " d=" M   142.35,   354.48  C   142.35    352.13    140.45    350.23    138.10    350.23  " /><path style="stroke-width: 1.42 ;&st7;   " d=" M   138.10,   358.73  C   140.45    358.73    142.35    356.82    142.35    354.48  " /><path style="stroke-width: 1.42 ;&st7;   " d=" M   129.60,   354.48  C   129.60    356.82    131.51    358.73    133.85    358.73  " /><path style="stroke-width: 1.42 ;&st7;   " d=" M   133.85,   350.23  C   131.51    350.23    129.60    352.13    129.60    354.48  " /><path style="stroke-width: 0.85 ;&st7;   " d=" M   137.39,   306.32  C   137.39    305.54    136.76    304.90    135.98    304.90  " /><path style="stroke-width: 0.85 ;&st7;   " d=" M   135.98,   304.90  C   135.20    304.90    134.56    305.54    134.56    306.32  " /><path style="stroke-width: 0.85 ;&st7;   " d=" M   134.56,   306.32  C   134.56    307.10    135.20    307.73    135.98    307.73  " /><path style="stroke-width: 0.85 ;&st7;   " d=" M   135.98,   307.73  C   136.76    307.73    137.39    307.10    137.39    306.32  " /><path style="stroke-width: 0.85 ;&st7;   " d=" M   137.39,   283.65  C   137.39    282.87    136.76    282.24    135.98    282.24  " /><path style="stroke-width: 0.85 ;&st7;   " d=" M   135.98,   282.24  C   135.20    282.24    134.56    282.87    134.56    283.65  " /><path style="stroke-width: 0.85 ;&st7;   " d=" M   134.56,   283.65  C   134.56    284.44    135.20    285.07    135.98    285.07  " /><path style="stroke-width: 0.85 ;&st7;   " d=" M   135.98,   285.07  C   136.76    285.07    137.39    284.44    137.39    283.65  " /><path style="stroke-width: 1.42 ;&st7;   " d=" M   135.98,   304.90  C   138.72    303.29    139.63    299.76    138.01    297.02  " /><path style="stroke-width: 1.42 ;&st7;   " d=" M   138.01,   297.02  C   137.49    296.14    136.86    295.51    135.98    294.99  " /><path style="stroke-width: 1.42 ;&st7;   " d=" M   135.98,   285.07  C   133.24    286.68    132.33    290.21    133.94    292.95  " /><path style="stroke-width: 1.42 ;&st7;   " d=" M   133.94,   292.95  C   134.46    293.83    135.10    294.47    135.98    294.99  " /><path style="stroke-width: 0.85 ;&st7;   " d=" M   101.98,   222.75  C   103.94    222.75    105.52    221.16    105.52    219.21  " /><path style="stroke-width: 0.85 ;&st7;   " d=" M   105.52,   219.21  C   105.52    217.25    103.94    215.67    101.98    215.67  " /><path style="stroke-width: 0.85 ;&st7;   " d=" M   101.98,   215.67  C   100.99    215.67    100.15    216.02     99.45    216.73  " /><path style="stroke-width: 0.85 ;&st7;   " d=" M    99.45,   216.73  C   100.82    218.13    103.06    218.15    104.46    216.78  " /><path style="stroke-width: 0.85 ;&st7;   " d=" M   104.46,   216.78  C   105.86    215.41    105.88    213.17    104.51    211.77  " /><path style="stroke-width: 0.85 ;&st7;   " d=" M   104.51,   211.77  C   103.14    210.37    100.90    210.35     99.50    211.72  " /><path style="stroke-width: 0.85 ;&st7;   " d=" M    99.50,   211.72  C    99.49    211.74     99.47    211.75     99.45    211.77  " /><path style="stroke-width: 0.85 ;&st7;   " d=" M    99.45,   211.77  C   100.82    213.17    103.06    213.19    104.46    211.82  " /><path style="stroke-width: 0.85 ;&st7;   " d=" M   104.46,   211.82  C   105.86    210.45    105.88    208.21    104.51    206.81  " /><path style="stroke-width: 0.85 ;&st7;   " d=" M   104.51,   206.81  C   103.82    206.11    102.97    205.75    101.98    205.75  " /><path style="stroke-width: 0.85 ;&st7;   " d=" M   128.90,   202.92  C   128.90    202.14    128.26    201.50    127.48    201.50  " /><path style="stroke-width: 0.85 ;&st7;   " d=" M   127.48,   201.50  C   126.70    201.50    126.06    202.14    126.06    202.92  " /><path style="stroke-width: 0.85 ;&st7;   " d=" M   126.06,   202.92  C   126.06    203.70    126.70    204.33    127.48    204.33  " /><path style="stroke-width: 0.85 ;&st7;   " d=" M   127.48,   204.33  C   128.26    204.33    128.90    203.70    128.90    202.92  " /><path style="stroke-width: 0.85 ;&st7;   " d=" M   128.90,   225.58  C   128.90    224.80    128.26    224.16    127.48    224.16  " /><path style="stroke-width: 0.85 ;&st7;   " d=" M   127.48,   224.16  C   126.70    224.16    126.06    224.80    126.06    225.58  " /><path style="stroke-width: 0.85 ;&st7;   " d=" M   126.06,   225.58  C   126.06    226.36    126.70    227.00    127.48    227.00  " /><path style="stroke-width: 0.85 ;&st7;   " d=" M   127.48,   227.00  C   128.26    227.00    128.90    226.36    128.90    225.58  " /><path style="stroke-width: 1.42 ;&st7;   " d=" M    99.86,   350.23  C    97.51    350.23     95.61    352.13     95.61    354.48  " /><path style="stroke-width: 1.42 ;&st7;   " d=" M    95.61,   354.48  C    95.61    356.82     97.51    358.73     99.86    358.73  " /><path style="stroke-width: 1.42 ;&st7;   " d=" M   104.11,   358.73  C   106.45    358.73    108.36    356.82    108.36    354.48  " /><path style="stroke-width: 1.42 ;&st7;   " d=" M   108.36,   354.48  C   108.36    352.13    106.45    350.23    104.11    350.23  " /><path style="stroke-width: 1.42 ;&st7;   " d=" M   271.95,   285.07  C   269.22    286.68    268.30    290.21    269.92    292.95  " /><path style="stroke-width: 1.42 ;&st7;   " d=" M   269.92,   292.95  C   270.44    293.83    271.07    294.47    271.95    294.99  " /><path style="stroke-width: 1.42 ;&st7;   " d=" M   271.95,   304.90  C   274.69    303.29    275.60    299.76    273.99    297.02  " /><path style="stroke-width: 1.42 ;&st7;   " d=" M   273.99,   297.02  C   273.47    296.14    272.84    295.51    271.95    294.99  " /><path style="stroke-width: 0.85 ;&st7;   " d=" M   273.37,   283.65  C   273.37    282.87    272.74    282.24    271.95    282.24  " /><path style="stroke-width: 0.85 ;&st7;   " d=" M   271.95,   282.24  C   271.17    282.24    270.54    282.87    270.54    283.65  " /><path style="stroke-width: 0.85 ;&st7;   " d=" M   270.54,   283.65  C   270.54    284.44    271.17    285.07    271.95    285.07  " /><path style="stroke-width: 0.85 ;&st7;   " d=" M   271.95,   285.07  C   272.74    285.07    273.37    284.44    273.37    283.65  " /><path style="stroke-width: 0.85 ;&st7;   " d=" M   273.37,   306.32  C   273.37    305.54    272.74    304.90    271.95    304.90  " /><path style="stroke-width: 0.85 ;&st7;   " d=" M   271.95,   304.90  C   271.17    304.90    270.54    305.54    270.54    306.32  " /><path style="stroke-width: 0.85 ;&st7;   " d=" M   270.54,   306.32  C   270.54    307.10    271.17    307.73    271.95    307.73  " /><path style="stroke-width: 0.85 ;&st7;   " d=" M   271.95,   307.73  C   272.74    307.73    273.37    307.10    273.37    306.32  " /><path style="stroke-width: 1.42 ;&st7;   " d=" M   278.33,   354.48  C   278.33    352.13    276.43    350.23    274.08    350.23  " /><path style="stroke-width: 1.42 ;&st7;   " d=" M   274.08,   358.73  C   276.43    358.73    278.33    356.82    278.33    354.48  " /><path style="stroke-width: 1.42 ;&st7;   " d=" M   265.58,   354.48  C   265.58    356.82    267.48    358.73    269.83    358.73  " /><path style="stroke-width: 1.42 ;&st7;   " d=" M   269.83,   350.23  C   267.48    350.23    265.58    352.13    265.58    354.48  " /><path style="stroke-width: 1.42 ;&st7;   " d=" M   252.83,   354.48  C   252.83    352.13    250.93    350.23    248.58    350.23  " /><path style="stroke-width: 1.42 ;&st7;   " d=" M   248.58,   358.73  C   250.93    358.73    252.83    356.82    252.83    354.48  " /><path style="stroke-width: 1.42 ;&st7;   " d=" M   240.08,   354.48  C   240.08    356.82    241.99    358.73    244.33    358.73  " /><path style="stroke-width: 1.42 ;&st7;   " d=" M   244.33,   350.23  C   241.99    350.23    240.08    352.13    240.08    354.48  " /><path style="stroke-width: 0.85 ;&st7;  " d=" M   330.25,   247.24  L   329.98,   247.71  L   329.89,   248.24  L   329.98,   248.78  L   330.25,   249.25  L   330.67,   249.59  L   331.17,   249.78  L   331.72,   249.78  L   332.22,   249.59  L   332.64,   249.25  L   332.91,   248.78  L   333.00,   248.24  L   332.91,   247.71  L   332.64,   247.24  L   332.22,   246.90  L   331.72,   246.71  L   331.17,   246.71  L   330.67,   246.90  L   330.25,   247.24  L   330.65,   247.95  L   330.65,   248.54  L   331.02,   248.98  L   331.59,   249.08  L   332.10,   248.79  L   332.29,   248.24  L   332.10,   247.70  L   331.59,   247.41  L   331.02,   247.51  L   331.44,   248.24  " /><path style="stroke-width: 0.85 ;&st7;  " d=" M   270.76,   247.24  L   270.49,   247.71  L   270.40,   248.24  L   270.49,   248.78  L   270.76,   249.25  L   271.18,   249.59  L   271.68,   249.78  L   272.23,   249.78  L   272.73,   249.59  L   273.15,   249.25  L   273.42,   248.78  L   273.51,   248.24  L   273.42,   247.71  L   273.15,   247.24  L   272.73,   246.90  L   272.23,   246.71  L   271.68,   246.71  L   271.18,   246.90  L   270.76,   247.24  L   271.16,   247.95  L   271.16,   248.54  L   271.53,   248.98  L   272.10,   249.08  L   272.61,   248.79  L   272.80,   248.24  L   272.61,   247.70  L   272.10,   247.41  L   271.53,   247.51  L   271.95,   248.24  " /><path style="stroke-width: 0.85 ;&st7;  " d=" M   271.95,   248.24  L   271.95,   282.24  " /><path style="stroke-width: 0.85 ;&st7;  " d=" M   127.48,   231.25  L   127.48,   248.24  L   331.44,   248.24  " /><path style="stroke-width: 0.85 ;&st7;  " d=" M   100.79,   247.24  L   100.52,   247.71  L   100.42,   248.24  L   100.52,   248.78  L   100.79,   249.25  L   101.20,   249.59  L   101.71,   249.78  L   102.25,   249.78  L   102.76,   249.59  L   103.18,   249.25  L   103.45,   248.78  L   103.54,   248.24  L   103.45,   247.71  L   103.18,   247.24  L   102.76,   246.90  L   102.25,   246.71  L   101.71,   246.71  L   101.20,   246.90  L   100.79,   247.24  L   101.18,   247.95  L   101.18,   248.54  L   101.56,   248.98  L   102.13,   249.08  L   102.63,   248.79  L   102.83,   248.24  L   102.63,   247.70  L   102.13,   247.41  L   101.56,   247.51  L   101.98,   248.24  " /><path style="stroke-width: 0.85 ;&st7;  " d=" M    75.29,   179.25  L    75.02,   179.72  L    74.93,   180.26  L    75.02,   180.79  L    75.29,   181.26  L    75.71,   181.60  L    76.22,   181.79  L    76.76,   181.79  L    77.27,   181.60  L    77.68,   181.26  L    77.95,   180.79  L    78.05,   180.26  L    77.95,   179.72  L    77.68,   179.25  L    77.27,   178.91  L    76.76,   178.72  L    76.22,   178.72  L    75.71,   178.91  L    75.29,   179.25  L    75.69,   179.96  L    75.69,   180.55  L    76.06,   180.99  L    76.63,   181.09  L    77.14,   180.80  L    77.34,   180.26  L    77.14,   179.71  L    76.63,   179.42  L    76.06,   179.52  L    76.49,   180.26  " /><path style="stroke-width: 0.85 ;&st7;  " d=" M    76.49,   231.25  L    76.49,   248.24  L   101.98,   248.24  " /><path style="stroke-width: 0.85 ;&st7;  " d=" M    76.49,   231.25  L    76.49,   222.75  L    73.65,   221.33  L    79.32,   218.50  L    73.65,   215.67  L    79.32,   212.83  L    73.65,   210.00  L    79.32,   207.17  L    76.49,   205.75  L    76.49,   180.26  " /><path style="stroke-width: 0.85 ;&st7;  " d=" M   126.29,   179.25  L   126.01,   179.72  L   125.92,   180.26  L   126.01,   180.79  L   126.29,   181.26  L   126.70,   181.60  L   127.21,   181.79  L   127.75,   181.79  L   128.26,   181.60  L   128.67,   181.26  L   128.94,   180.79  L   129.04,   180.26  L   128.94,   179.72  L   128.67,   179.25  L   128.26,   178.91  L   127.75,   178.72  L   127.21,   178.72  L   126.70,   178.91  L   126.29,   179.25  L   126.68,   179.96  L   126.68,   180.55  L   127.05,   180.99  L   127.63,   181.09  L   128.13,   180.80  L   128.33,   180.26  L   128.13,   179.71  L   127.63,   179.42  L   127.05,   179.52  L   127.48,   180.26  " /><path style="stroke-width: 0.85 ;&st7;  " d=" M    76.49,   180.26  L   101.98,   180.26  L   101.98,   197.25  " /><path style="stroke-width: 0.85 ;&st7;  " d=" M   270.76,   332.23  L   270.49,   332.70  L   270.40,   333.23  L   270.49,   333.76  L   270.76,   334.23  L   271.18,   334.58  L   271.68,   334.77  L   272.23,   334.77  L   272.73,   334.58  L   273.15,   334.23  L   273.42,   333.76  L   273.51,   333.23  L   273.42,   332.70  L   273.15,   332.23  L   272.73,   331.88  L   272.23,   331.69  L   271.68,   331.69  L   271.18,   331.88  L   270.76,   332.23  L   271.16,   332.94  L   271.16,   333.52  L   271.53,   333.97  L   272.10,   334.07  L   272.61,   333.78  L   272.80,   333.23  L   272.61,   332.68  L   272.10,   332.39  L   271.53,   332.49  L   271.95,   333.23  " /><path style="stroke-width: 0.85 ;&st7;  " d=" M   127.48,   180.26  L   331.44,   180.26  L   331.44,   282.24  " /><path style="stroke-width: 1.42 ;&st7;  " d=" M   318.70,   273.74  L   318.70,   316.23  L   344.19,   316.23  L   344.19,   273.74  L   318.70,   273.74  " /><path style="stroke-width: 0.28 ;&st9;  " d=" M   331.44,   345.33  L   328.61,   342.50  L   328.61,   346.75  L   331.44,   349.58  L   334.28,   346.75  L   334.28,   342.50  L   331.44,   345.33  " /><path style="stroke-width: 0.85 ;&st7;  " d=" M   127.48,   163.26  L   127.48,   197.25  " /><path style="stroke-width: 0.28 ;&st9;  " d=" M   127.48,   168.15  L   130.31,   170.99  L   130.31,   166.74  L   127.48,   163.90  L   124.65,   166.74  L   124.65,   170.99  L   127.48,   168.15  " /><path style="stroke-width: 0.85 ;&st7;  " d=" M   134.78,   247.24  L   134.51,   247.71  L   134.42,   248.24  L   134.51,   248.78  L   134.78,   249.25  L   135.20,   249.59  L   135.71,   249.78  L   136.25,   249.78  L   136.76,   249.59  L   137.17,   249.25  L   137.44,   248.78  L   137.54,   248.24  L   137.44,   247.71  L   137.17,   247.24  L   136.76,   246.90  L   136.25,   246.71  L   135.71,   246.71  L   135.20,   246.90  L   134.78,   247.24  L   135.18,   247.95  L   135.18,   248.54  L   135.55,   248.98  L   136.12,   249.08  L   136.63,   248.79  L   136.83,   248.24  L   136.63,   247.70  L   136.12,   247.41  L   135.55,   247.51  L   135.98,   248.24  " /><path style="stroke-width: 0.85 ;&st7;  " d=" M   202.77,   247.24  L   202.50,   247.71  L   202.41,   248.24  L   202.50,   248.78  L   202.77,   249.25  L   203.19,   249.59  L   203.69,   249.78  L   204.24,   249.78  L   204.74,   249.59  L   205.16,   249.25  L   205.43,   248.78  L   205.52,   248.24  L   205.43,   247.71  L   205.16,   247.24  L   204.74,   246.90  L   204.24,   246.71  L   203.69,   246.71  L   203.19,   246.90  L   202.77,   247.24  L   203.17,   247.95  L   203.17,   248.54  L   203.54,   248.98  L   204.11,   249.08  L   204.62,   248.79  L   204.82,   248.24  L   204.62,   247.70  L   204.11,   247.41  L   203.54,   247.51  L   203.97,   248.24  " /><path style="stroke-width: 0.85 ;&st7;  " d=" M   135.98,   248.24  L   135.98,   282.24  " /><path style="stroke-width: 0.85 ;&st7;  " d=" M   203.97,   248.24  L   203.97,   282.24  " /><path style="stroke-width: 1.42 ;&st7;  " d=" M   191.22,   273.74  L   191.22,   316.23  L   216.71,   316.23  L   216.71,   273.74  L   191.22,   273.74  " /><path style="stroke-width: 0.28 ;&st9;  " d=" M   203.97,   345.33  L   201.13,   342.50  L   201.13,   346.75  L   203.97,   349.58  L   206.80,   346.75  L   206.80,   342.50  L   203.97,   345.33  " /><path style="stroke-width: 1.42 ;&st7;  " d=" M   123.23,   273.74  L   123.23,   316.23  L   148.73,   316.23  L   148.73,   273.74  L   123.23,   273.74  " /><path style="stroke-width: 0.28 ;&st9;  " d=" M   135.98,   345.33  L   133.14,   342.50  L   133.14,   346.75  L   135.98,   349.58  L   138.81,   346.75  L   138.81,   342.50  L   135.98,   345.33  " /><path style="stroke-width: 1.13 ;&st7; stroke-dasharray:3, 3;" d=" M   135.98,   197.25  L    93.48,   197.25  L    93.48,   231.25  L   135.98,   231.25  L   135.98,   197.25  " /><path style="stroke-width: 0.28 ;&st9;  " d=" M   101.98,   345.33  L    99.15,   342.50  L    99.15,   346.75  L   101.98,   349.58  L   104.82,   346.75  L   104.82,   342.50  L   101.98,   345.33  " /><path style="stroke-width: 0.85 ;&st7;  " d=" M   101.98,   231.25  L   101.98,   350.23  " /><path style="stroke-width: 0.85 ;&st7;  " d=" M   246.46,   350.23  L   246.46,   333.23  L   271.95,   333.23  L   271.95,   350.23  " /><path style="stroke-width: 0.85 ;&st7;  " d=" M   271.95,   333.23  L   271.95,   307.73  " /><path style="stroke-width: 1.42 ;&st7;  " d=" M   284.70,   316.23  L   284.70,   273.74  L   259.21,   273.74  L   259.21,   316.23  L   284.70,   316.23  " /><path style="stroke-width: 0.28 ;&st9;  " d=" M   271.95,   345.33  L   269.12,   342.50  L   269.12,   346.75  L   271.95,   349.58  L   274.79,   346.75  L   274.79,   342.50  L   271.95,   345.33  " /><path style="stroke-width: 0.28 ;&st9;  " d=" M   246.46,   345.33  L   243.63,   342.50  L   243.63,   346.75  L   246.46,   349.58  L   249.29,   346.75  L   249.29,   342.50  L   246.46,   345.33  " /><g ewd:code="" ewd:figID="76" ewd:comment="2" ewd:figtype="commref"><text style="font-size:6px;font-family:'NSimSun';" transform="matrix(&st16;  300.74  255.88 )">(*2)</text></g><g ewd:code="" ewd:figID="75" ewd:comment="1" ewd:figtype="commref"><text style="font-size:6px;font-family:'NSimSun';" transform="matrix(&st17;  339.08  227.46 )">(*1)</text></g><text style="font-size:6px;font-family:'NSimSun';" transform="matrix(&st16;  129.79  324.43 )">2</text><text style="font-size:6px;font-family:'NSimSun';" transform="matrix(&st16;  129.79  270.05 )">1</text><text style="font-size:6px;font-family:'NSimSun';" transform="matrix(&st16;  197.78  324.43 )">2</text><text style="font-size:6px;font-family:'NSimSun';" transform="matrix(&st16;  197.78  270.05 )">1</text><text style="font-size:6px;font-family:'NSimSun';" transform="matrix(&st16;  325.26  324.43 )">2</text><text style="font-size:6px;font-family:'NSimSun';" transform="matrix(&st16;  325.26  270.05 )">1</text><text style="font-size:6px;font-family:'NSimSun';" transform="matrix(&st16;  347.87  291.3 )">20A <tspan x="0 " dy="6.0">FR </tspan><tspan x="0 " dy="6.0">DOOR</tspan></text><text style="font-size:6px;font-family:'NSimSun';" transform="matrix(&st16;  265.77  324.43 )">2</text><text style="font-size:6px;font-family:'NSimSun';" transform="matrix(&st16;  320.94  356.45 )">1</text><text style="font-size:6px;font-family:'NSimSun';" transform="matrix(&st16;  327.47  356.45 )">3C</text><text style="font-size:6px;font-family:'NSimSun';" transform="matrix(&st16;  116.97  160.98 )">1</text><text style="font-size:6px;font-family:'NSimSun';" transform="matrix(&st16;  123.74  160.98 )">3B</text><text style="font-size:6px;font-family:'NSimSun';" transform="matrix(&st16;  265.77  270.05 )">1</text><text style="font-size:6px;font-family:'NSimSun';" transform="matrix(&st16;  138.24  213.39 )" ewd:textID="12">POWER<tspan x="0 " dy="6.0">继电器</tspan></text><text style="font-size:6px;font-family:'NSimSun';" transform="matrix(&st16;  193.46  356.45 )">6</text><text style="font-size:6px;font-family:'NSimSun';" transform="matrix(&st16;  200.3  356.45 )">3E</text><text style="font-size:6px;font-family:'NSimSun';" transform="matrix(&st16;  220.39  291.3 )">20A <tspan x="0 " dy="6.0">RL </tspan><tspan x="0 " dy="6.0">DOOR</tspan></text><text style="font-size:6px;font-family:'NSimSun';" transform="matrix(&st16;  125.47  356.45 )">7</text><text style="font-size:6px;font-family:'NSimSun';" transform="matrix(&st16;  132.32  356.45 )">3E</text><text style="font-size:6px;font-family:'NSimSun';" transform="matrix(&st16;  152.4  291.3 )">20A <tspan x="0 " dy="6.0">RR </tspan><tspan x="0 " dy="6.0">DOOR</tspan></text><text style="font-size:6px;font-family:'NSimSun';" transform="matrix(&st16;  98.01  356.45 )">3C</text><text style="font-size:6px;font-family:'NSimSun';" transform="matrix(&st16;  91.48  356.45 )">9</text><text style="font-size:6px;font-family:'NSimSun';" transform="matrix(&st16;  288.38  294.13 )">30A <tspan x="0 " dy="6.0">POWER</tspan></text><text style="font-size:6px;font-family:'NSimSun';" transform="matrix(&st16;  258.35  356.45 )">11</text><text style="font-size:6px;font-family:'NSimSun';" transform="matrix(&st16;  267.98  356.45 )">3C</text><text style="font-size:6px;font-family:'NSimSun';" transform="matrix(&st16;  232.85  356.45 )">10</text><text style="font-size:6px;font-family:'NSimSun';" transform="matrix(&st16;  242.49  356.45 )">3C</text><path style="stroke-width: 1.42 ;&st7;  " d=" M    53.12,   350.23  L    48.87,   350.23  " /><path style="stroke-width: 1.42 ;&st7;  " d=" M    53.12,   358.73  L    48.87,   358.73  " /><path style="stroke-width: 1.42 ;&st7;   " d=" M    48.87,   350.23  C    46.52    350.23     44.62    352.13     44.62    354.48  " /><path style="stroke-width: 1.42 ;&st7;   " d=" M    44.62,   354.48  C    44.62    356.82     46.52    358.73     48.87    358.73  " /><path style="stroke-width: 1.42 ;&st7;   " d=" M    53.12,   358.73  C    55.46    358.73     57.37    356.82     57.37    354.48  " /><path style="stroke-width: 1.42 ;&st7;   " d=" M    57.37,   354.48  C    57.37    352.13     55.46    350.23     53.12    350.23  " /><path style="stroke-width: 0.28 ;&st9;  " d=" M    50.99,   345.33  L    48.16,   342.50  L    48.16,   346.75  L    50.99,   349.58  L    53.82,   346.75  L    53.82,   342.50  L    50.99,   345.33  " /><text style="font-size:6px;font-family:'NSimSun';" transform="matrix(&st16;  47.02  356.45 )">3C</text><text style="font-size:6px;font-family:'NSimSun';" transform="matrix(&st16;  37.38  356.45 )">56</text><path style="stroke-width: 0.85 ;&st7;  " d=" M    76.49,   180.26  L    50.99,   180.26  L    50.99,   350.23  " /></g><g ewd:figtype="jb" ewd:figID="18" ewd:code="1"><path style="stroke-width: 1.42 ;&st7;  " d=" M   129.60,   103.77  L   125.35,   103.77  " /><path style="stroke-width: 1.42 ;&st7;  " d=" M   129.60,   112.27  L   125.35,   112.27  " /><path style="stroke-width: 1.42 ;&st7;   " d=" M   125.35,   103.77  C   123.01    103.77    121.10    105.67    121.10    108.02  " /><path style="stroke-width: 1.42 ;&st7;   " d=" M   121.10,   108.02  C   121.10    110.36    123.01    112.27    125.35    112.27  " /><path style="stroke-width: 1.42 ;&st7;   " d=" M   129.60,   112.27  C   131.95    112.27    133.85    110.36    133.85    108.02  " /><path style="stroke-width: 1.42 ;&st7;   " d=" M   133.85,   108.02  C   133.85    105.67    131.95    103.77    129.60    103.77  " /><text style="font-size:6px;font-family:'NSimSun';" transform="matrix(&st16;  116.97  109.99 )">1</text><text style="font-size:6px;font-family:'NSimSun';" transform="matrix(&st16;  123.82  109.99 )">1E</text></g><g ewd:figtype="w2w" ewd:figID="22" ewd:code="JL1"><path style="stroke-width: 1.42 ;&st7;  " d=" M   140.23,   438.05  L   135.98,   442.29  L   131.73,   438.05  " /><path style="stroke-width: 1.42 ;&st7;  " d=" M   131.73,   434.65  L   135.98,   438.90  L   140.23,   434.65  " /><text style="font-size:6px;font-family:'NSimSun';" transform="matrix(&st16;  123.35  449.93 )">7</text></g><g ewd:figtype="w2w" ewd:figID="23" ewd:code="KL1"><path style="stroke-width: 1.42 ;&st7;  " d=" M   208.22,   438.05  L   203.97,   442.29  L   199.72,   438.05  " /><path style="stroke-width: 1.42 ;&st7;  " d=" M   199.72,   434.65  L   203.97,   438.90  L   208.22,   434.65  " /><text style="font-size:6px;font-family:'NSimSun';" transform="matrix(&st16;  191.33  449.93 )">7</text></g><g ewd:figtype="w2w" ewd:figID="24" ewd:code="GE3"><path style="stroke-width: 1.42 ;&st7;  " d=" M   250.71,   438.05  L   246.46,   442.29  L   242.21,   438.05  " /><path style="stroke-width: 1.42 ;&st7;  " d=" M   242.21,   434.65  L   246.46,   438.90  L   250.71,   434.65  " /><text style="font-size:6px;font-family:'NSimSun';" transform="matrix(&st16;  230.73  449.93 )">10</text></g><g ewd:figtype="w2w" ewd:figID="25" ewd:code="HE3"><path style="stroke-width: 1.42 ;&st7;  " d=" M   437.68,   177.42  L   433.43,   173.17  L   429.18,   177.42  " /><path style="stroke-width: 1.42 ;&st7;  " d=" M   437.68,   180.82  L   433.43,   176.57  L   429.18,   180.82  " /><text style="font-size:6px;font-family:'NSimSun';" transform="matrix(&st16;  417.69  169.48 )">10</text></g><g ewd:figtype="gp" ewd:figID="46" ewd:code="EA"><path style="stroke-width: 0.85 ;&st7;  " d=" M   101.98,   697.25  L   101.98,   701.50  " /><path style="stroke-width: 0.85 ;&st7;  " d=" M    93.48,   701.50  L   110.48,   701.50  " /><path style="stroke-width: 0.85 ;&st7;  " d=" M    97.73,   704.33  L   106.23,   704.33  " /><path style="stroke-width: 0.85 ;&st7;  " d=" M    99.15,   707.17  L   104.82,   707.17  " /><path style="stroke-width: 0.85 ;&st7;  " d=" M   100.57,   710.00  L   103.40,   710.00  " /></g><g ewd:code="2" ewd:figID="64" ewd:comment="" ewd:figtype="comment"><text style="font-size:6px;font-family:'NSimSun';" transform="matrix(&st16;  336.54  505.17 )" ewd:textID="2">* 2: 不带防夹功能</text></g><g ewd:code="1" ewd:figID="63" ewd:comment="" ewd:figtype="comment"><text style="font-size:6px;font-family:'NSimSun';" transform="matrix(&st16;  336.54  496.67 )" ewd:textID="1">* 1 : 带防夹功能</text></g></svg>