<?xml version="1.0" encoding="utf-8"?>
<!DOCTYPE svg PUBLIC "-//W3C//DTD SVG 1.0//EN" "http://www.w3.org/TR/2001/REC-SVG-20010904/DTD/svg10.dtd"[
	<!ENTITY ns_flows "http://ns.adobe.com/Flows/1.0/">
	<!ENTITY ns_svg "http://www.w3.org/2000/svg">
	<!ENTITY ns_xlink "http://www.w3.org/1999/xlink">
	<!ENTITY st0 "font-size:7px;font-family:'NSimSun';adobe-font-script:japanese;">
	<!ENTITY st1 "font-size:6px;font-family:'NSimSun';">
	<!-- White fill  -->
	<!ENTITY st2 "fill:#FFFFFF;stroke:#000000; stroke-width:1.41;stroke-linecap:round;stroke-linejoin:round;">
	<!-- Yellow fill  -->
	<!ENTITY st3 "fill:#FFFFCC;stroke:#FFFFCC; stroke-width:0.1;stroke-linecap:round;stroke-linejoin:round;">
	<!-- Gray fill  -->
	<!ENTITY st4 "fill:#CCCCCC;stroke:#CCCCCC; stroke-width:0.1;stroke-linecap:round;stroke-linejoin:round;">
	<!-- Light-blue fill -->
	<!ENTITY st5 "fill:#CCECF4;stroke:#000000; stroke-width:1.133;stroke-linecap:round;stroke-linejoin:round;">
	<!ENTITY st6 "fill:none;stroke-linecap:butt; stroke-linejoin:round;">
	<!ENTITY st7 "fill:none;stroke:#000000;stroke-linecap:round;stroke-linejoin:round;">
	<!ENTITY st8 "enable-background:new    ;">
	<!-- Black fill -->
	<!ENTITY st9 "fill:#000000;stroke:#000000; stroke-linecap:round;stroke-linejoin:round;">
	<!-- SRS note   -->
	<!ENTITY st10 "font-size:9px;font-family:'NSimSun';">
	<!ENTITY st11 "font-size:9px;font-family:'NSimSun';">
	<!ENTITY st12 "font-size:6px;font-family:'NSimSun';">
	<!ENTITY st13 "fill:none;stroke:#ff0000;stroke-linecap:round;stroke-linejoin:round;">
	<!-- Yellow fill  -->
	<!ENTITY st14 "fill:#FFFF00;stroke:#FFFF00; stroke-width:0.1;stroke-linecap:round;stroke-linejoin:round;">
	<!ENTITY st15 "font-size:6px;font-family:'NSimSun';adobe-font-script:japanese;">
	<!ENTITY st16 "1.00 0.00 0.00 1.00">
	<!ENTITY st17 "0.00 -1.00 1.00 0.00">
	<!ENTITY st18 "font-size:6px;font-family:'NSimSun';">
	<!ENTITY st19 "font-size:9px;font-family:'NSimSun';">
	<!ENTITY st20 "font-size:6px;font-family:'NSimSun';adobe-font-script:japanese;">
	<!ENTITY st21 "font-size:7px;font-family:'NSimSun';adobe-font-script:japanese;">
	<!ATTLIST svg
		xmlns:ewd CDATA #FIXED "http://shcl.co.jp/ewd"
		xmlns:a CDATA #FIXED "http://ns.adobe.com/AdobeSVGViewerExtensions/3.0/"
		ewd:ver CDATA #IMPLIED
	>
	<!ATTLIST a
		ewd:lineID CDATA #IMPLIED
		ewd:groupID CDATA #IMPLIED
		ewd:figtype CDATA #IMPLIED
		ewd:code CDATA #IMPLIED
		ewd:figID CDATA #IMPLIED
		ewd:pinNo CDATA #IMPLIED
		ewd:comment CDATA #IMPLIED >
	<!ATTLIST g
		ewd:lineID CDATA #IMPLIED
		ewd:groupID CDATA #IMPLIED
		ewd:figtype CDATA #IMPLIED
		ewd:code CDATA #IMPLIED
		ewd:figID CDATA #IMPLIED
		ewd:pinNo CDATA #IMPLIED
		ewd:comment CDATA #IMPLIED >
	<!ATTLIST text
		ewd:textID CDATA #IMPLIED
		ewd:horAlign CDATA #IMPLIED >
	<!ATTLIST title
		ewd:textID CDATA #IMPLIED >
]>
<!-- Generator: Shintec Hozumi YS   -->
<svg onload="call_execInitLoadProc_svg('system')" style="overflow:visible;  enable-background:new 0 0 2526.091 710.000" viewBox="0 0 2472.081 710.000" height="710.000" width="2472.081" xml:space="preserve" ewd:ver="2.1.2.6F" xmlns="&ns_svg;" xmlns:ewd="http://shcl.co.jp/ewd" xmlns:a="http://ns.adobe.com/AdobeSVGViewerExtensions/3.0/" xmlns:xlink="&ns_xlink;">
<path style="stroke-width: 1.42 ;&st7;  " d=" M   744.35,   341.73  L   739.38,   346.70  " /><path style="stroke-width: 1.42 ;&st7;  " d=" M   751.40,   358.73  L   756.37,   353.76  " /><path style="stroke-width: 1.42 ;&st7;  " d=" M   739.38,   353.76  L   744.35,   358.73  " /><path style="stroke-width: 1.42 ;&st7;  " d=" M   756.37,   346.70  L   751.40,   341.73  " /><path style="stroke-width: 1.42 ;&st7;  " d=" M   654.39,   358.73  L   645.89,   358.73  " /><path style="stroke-width: 1.42 ;&st7;  " d=" M   722.38,   358.73  L   713.88,   358.73  " /><path style="stroke-width: 1.42 ;&st7;  " d=" M   900.85,   265.24  L   909.35,   265.24  " /><path style="stroke-width: 1.42 ;&st7;  " d=" M   934.84,   265.24  L   943.34,   265.24  " /><path style="stroke-width: 1.42 ;&st7;  " d=" M   917.85,   188.75  L   909.35,   188.75  " /><path style="stroke-width: 1.42 ;&st7;  " d=" M   951.84,   188.75  L   943.34,   188.75  " /><path style="stroke-width: 1.42 ;&st7;  " d=" M   756.37,   435.21  L   747.88,   435.21  " /><text style="font-size:6px;font-family:'NSimSun';" transform="matrix(&st17;  755.51  146.72 )">(*1)</text><text style="font-size:6px;font-family:'NSimSun';" transform="matrix(&st17;  721.52  146.72 )">(*1)</text><text style="font-size:6px;font-family:'NSimSun';" transform="matrix(&st17;  687.52  146.72 )">(*1)</text><text style="font-size:6px;font-family:'NSimSun';" transform="matrix(&st17;  653.53  146.72 )">(*1)</text><text style="font-size:6px;font-family:'NSimSun';" transform="matrix(&st17;  755.51  320.95 )">(*1)</text><text style="font-size:6px;font-family:'NSimSun';" transform="matrix(&st17;  721.52  320.95 )">(*1)</text><text style="font-size:6px;font-family:'NSimSun';" transform="matrix(&st17;  653.53  320.95 )">(*1)</text><text style="font-size:6px;font-family:'NSimSun';" transform="matrix(&st17;  653.53  388.93 )">(*1)</text><text style="font-size:6px;font-family:'NSimSun';" transform="matrix(&st17;  721.52  388.93 )">(*1)</text><text style="font-size:6px;font-family:'NSimSun';" transform="matrix(&st17;  642.2  388.04 )">GR</text><text style="font-size:6px;font-family:'NSimSun';" transform="matrix(&st16;  761.47  32.08 )" ewd:textID="13">电动窗升降器主开关总成</text><text style="font-size:6px;font-family:'NSimSun';" transform="matrix(&st17;  710.18  386.03 )">V</text><text style="font-size:6px;font-family:'NSimSun';" transform="matrix(&st17;  744.18  500.66 )">W-B</text><text style="font-size:6px;font-family:'NSimSun';" transform="matrix(&st17;  744.18  390.18 )">W-B</text><text style="font-size:6px;font-family:'NSimSun';" transform="matrix(&st17;  642.2  320.05 )">GR</text><text style="font-size:6px;font-family:'NSimSun';" transform="matrix(&st17;  710.18  318.04 )">V</text><text style="font-size:6px;font-family:'NSimSun';" transform="matrix(&st17;  939.65  224.44 )">B</text><text style="font-size:6px;font-family:'NSimSun';" transform="matrix(&st17;  905.65  224.71 )">G</text><text style="font-size:6px;font-family:'NSimSun';" transform="matrix(&st17;  939.65  152.2 )">B</text><text style="font-size:6px;font-family:'NSimSun';" transform="matrix(&st17;  905.65  152.47 )">G</text><text style="font-size:6px;font-family:'NSimSun';" transform="matrix(&st17;  939.65  309.42 )">B</text><text style="font-size:6px;font-family:'NSimSun';" transform="matrix(&st17;  905.65  309.69 )">G</text><text style="font-size:6px;font-family:'NSimSun';" transform="matrix(&st17;  982.14  434.78 )">GR</text><text style="font-size:6px;font-family:'NSimSun';" transform="matrix(&st17;  897.15  432.57 )">R</text><text style="font-size:6px;font-family:'NSimSun';" transform="matrix(&st17;  948.14  432.65 )">B</text><text style="font-size:6px;font-family:'NSimSun';" transform="matrix(&st17;  795.17  147.97 )">W-B</text><text style="font-size:6px;font-family:'NSimSun';" transform="matrix(&st17;  744.18  322.19 )">W-B</text><text style="font-size:6px;font-family:'NSimSun';" transform="matrix(&st17;  744.18  145.25 )">SB</text><text style="font-size:6px;font-family:'NSimSun';" transform="matrix(&st17;  710.18  143.7 )">B</text><text style="font-size:6px;font-family:'NSimSun';" transform="matrix(&st17;  676.19  144.48 )">W</text><text style="font-size:6px;font-family:'NSimSun';" transform="matrix(&st17;  642.2  145.79 )">LG</text><text style="font-size:6px;font-family:'NSimSun';" transform="matrix(&st16;  539.59  558.99 )">GR</text><text style="font-size:6px;font-family:'NSimSun';" transform="matrix(&st16;  539.59  423.02 )">GR</text><text style="font-size:6px;font-family:'NSimSun';" transform="matrix(&st16;  538.7  434.35 )">(*1)</text><text style="font-size:6px;font-family:'NSimSun';" transform="matrix(&st16;  761.46  24.98 )">H6(A),(B)</text><text style="font-size:6px;font-family:'NSimSun';" transform="matrix(&st16;  541.84  584.49 )">L</text><text style="font-size:6px;font-family:'NSimSun';" transform="matrix(&st16;  541.84  609.99 )">L</text><text style="font-size:6px;font-family:'NSimSun';" transform="matrix(&st16;  541.45  635.48 )">G</text><g ewd:figtype="conn" ewd:figID="1" ewd:code="G9"><path style="stroke-width: 1.42 ;&st7;  " d=" M   924.22,   490.45  L   924.22,   498.95  " /><path style="stroke-width: 1.42 ;&st7;  " d=" M   919.97,   490.45  L   919.97,   498.95  " /><path style="stroke-width: 0.85 ;&st7;  " d=" M   919.97,   494.70  L   909.35,   494.70  " /><path style="stroke-width: 0.85 ;&st7;  " d=" M   934.84,   494.70  L   924.22,   494.70  " /><path style="stroke-width: 1.42 ;&st7;  " d=" M   915.01,   524.45  L   918.98,   524.45  " /><path style="stroke-width: 1.42 ;&st7;  " d=" M   918.98,   532.95  L   915.01,   532.95  " /><path style="stroke-width: 1.42 ;&st7;  " d=" M   915.01,   532.95  L   915.01,   524.45  " /><path style="stroke-width: 1.42 ;&st7;  " d=" M   937.68,   524.45  L   933.71,   524.45  " /><path style="stroke-width: 1.42 ;&st7;  " d=" M   933.71,   532.95  L   937.68,   532.95  " /><path style="stroke-width: 1.42 ;&st7;  " d=" M   937.68,   532.95  L   937.68,   524.45  " /><path style="stroke-width: 1.42 ;&st7;   " d=" M   926.35,   520.20  C   921.65    520.20    917.85    524.00    917.85    528.70  " /><path style="stroke-width: 1.42 ;&st7;   " d=" M   917.85,   528.70  C   917.85    533.39    921.65    537.20    926.35    537.20  " /><path style="stroke-width: 1.42 ;&st7;   " d=" M   926.35,   537.20  C   931.04    537.20    934.84    533.39    934.84    528.70  " /><path style="stroke-width: 1.42 ;&st7;   " d=" M   934.84,   528.70  C   934.84    524.00    931.04    520.20    926.35    520.20  " /><path style="stroke-width: 0.85 ;&st7;  " d=" M   950.65,   493.70  L   950.38,   494.17  L   950.28,   494.70  L   950.38,   495.24  L   950.65,   495.71  L   951.06,   496.05  L   951.57,   496.24  L   952.11,   496.24  L   952.62,   496.05  L   953.03,   495.71  L   953.31,   495.24  L   953.40,   494.70  L   953.31,   494.17  L   953.03,   493.70  L   952.62,   493.35  L   952.11,   493.17  L   951.57,   493.17  L   951.06,   493.35  L   950.65,   493.70  L   951.04,   494.41  L   951.04,   494.99  L   951.42,   495.44  L   951.99,   495.54  L   952.49,   495.25  L   952.69,   494.70  L   952.49,   494.16  L   951.99,   493.87  L   951.42,   493.97  L   951.84,   494.70  " /><path style="stroke-width: 0.85 ;&st7;  " d=" M   899.66,   493.70  L   899.38,   494.17  L   899.29,   494.70  L   899.38,   495.24  L   899.66,   495.71  L   900.07,   496.05  L   900.58,   496.24  L   901.12,   496.24  L   901.63,   496.05  L   902.04,   495.71  L   902.31,   495.24  L   902.41,   494.70  L   902.31,   494.17  L   902.04,   493.70  L   901.63,   493.35  L   901.12,   493.17  L   900.58,   493.17  L   900.07,   493.35  L   899.66,   493.70  L   900.05,   494.41  L   900.05,   494.99  L   900.42,   495.44  L   901.00,   495.54  L   901.50,   495.25  L   901.70,   494.70  L   901.50,   494.16  L   901.00,   493.87  L   900.42,   493.97  L   900.85,   494.70  " /><path style="stroke-width: 0.85 ;&st7;  " d=" M   951.84,   460.71  L   951.84,   494.70  L   934.84,   494.70  " /><path style="stroke-width: 0.85 ;&st7;  " d=" M   900.85,   494.70  L   909.35,   494.70  " /><path style="stroke-width: 0.85 ;&st7;  " d=" M   951.84,   528.70  L   951.84,   520.20  L   949.01,   518.78  L   954.67,   515.95  L   949.01,   513.12  L   954.67,   510.28  L   949.01,   507.45  L   954.67,   504.62  L   951.84,   503.20  L   951.84,   494.70  " /><path style="stroke-width: 1.42 ;&st7;  " d=" M   883.85,   460.71  L   883.85,   545.69  L   968.84,   545.69  L   968.84,   460.71  L   883.85,   460.71  " /><path style="stroke-width: 0.85 ;&st7;  " d=" M   900.85,   460.71  L   900.85,   528.70  L   915.01,   528.70  " /><path style="stroke-width: 0.85 ;&st7;  " d=" M   937.68,   528.70  L   951.84,   528.70  " /><text style="font-size:6px;font-family:'NSimSun';" transform="matrix(&st16;  903.43  468.9 )">U</text><text style="font-size:6px;font-family:'NSimSun';" transform="matrix(&st16;  954.42  468.9 )">D</text><text style="font-size:6px;font-family:'NSimSun';" transform="matrix(&st16;  923.61  530.67 )">M</text><text style="font-size:6px;font-family:'NSimSun';" transform="matrix(&st16;  894.67  457.02 )">2</text><text style="font-size:6px;font-family:'NSimSun';" transform="matrix(&st16;  945.66  457.02 )">1</text><g ewd:figtype="title"><text style="font-size:6px;font-family:'NSimSun';" transform="matrix(&st17; 880.21 548.60)" ewd:textID="9">右前电动窗升降器马达总成<tspan x="0 " dy="6.0" /></text><text style="font-size:6px;font-family:'NSimSun';" transform="matrix(&st17; 873.10 548.59)">G9</text></g></g><g ewd:figtype="conn" ewd:figID="3" ewd:code="H6"><path style="stroke-width: 0.85 ;&st7; stroke-dasharray:3, 1.5;" d=" M   917.85,   108.30  L   926.34,   108.30  " /><path style="stroke-width: 0.85 ;&st7; stroke-dasharray:3, 1.5;" d=" M   917.85,   117.37  L   926.34,   117.37  " /><path style="stroke-width: 0.85 ;&st7; stroke-dasharray:3, 1.5;" d=" M   807.36,   108.30  L   892.35,   108.30  " /><path style="stroke-width: 0.85 ;&st7; stroke-dasharray:3, 1.5;" d=" M   807.36,   117.37  L   892.35,   117.37  " /><g ewd:lineID="13"><text style="font-size:6px;font-family:'NSimSun';" transform="matrix(&st16;  637.2  110.27 )">3</text><path style="stroke-width: 1.42 ;&st7;   " d=" M   650.42,   108.30  C   650.42    105.80    648.40    103.77    645.89    103.77  " /><path style="stroke-width: 1.42 ;&st7;   " d=" M   645.89,   103.77  C   643.39    103.77    641.36    105.80    641.36    108.30  " /><path style="stroke-width: 1.42 ;&st7;   " d=" M   641.36,   108.30  C   641.36    110.80    643.39    112.83    645.89    112.83  " /><path style="stroke-width: 1.42 ;&st7;   " d=" M   645.89,   112.83  C   648.40    112.83    650.42    110.80    650.42    108.30  " /><text style="font-size:6px;font-family:'NSimSun';" transform="matrix(&st16;  643.59  110.27 )">A</text><text style="font-size:6px;font-family:'NSimSun';" transform="matrix(&st16;  639.83  100.07 )">LED</text></g><g ewd:lineID="14"><text style="font-size:6px;font-family:'NSimSun';" transform="matrix(&st16;  671.19  110.27 )">8</text><path style="stroke-width: 1.42 ;&st7;   " d=" M   684.42,   108.30  C   684.42    105.80    682.39    103.77    679.89    103.77  " /><path style="stroke-width: 1.42 ;&st7;   " d=" M   679.89,   103.77  C   677.38    103.77    675.35    105.80    675.35    108.30  " /><path style="stroke-width: 1.42 ;&st7;   " d=" M   675.35,   108.30  C   675.35    110.80    677.38    112.83    679.89    112.83  " /><path style="stroke-width: 1.42 ;&st7;   " d=" M   679.89,   112.83  C   682.39    112.83    684.42    110.80    684.42    108.30  " /><text style="font-size:6px;font-family:'NSimSun';" transform="matrix(&st16;  677.58  110.27 )">A</text><text style="font-size:6px;font-family:'NSimSun';" transform="matrix(&st16;  677.5  100.07 )">U</text></g><g ewd:lineID="17"><text style="font-size:6px;font-family:'NSimSun';" transform="matrix(&st16;  705.19  110.27 )">5</text><text style="font-size:6px;font-family:'NSimSun';" transform="matrix(&st16;  711.58  110.27 )">A</text><path style="stroke-width: 1.42 ;&st7;   " d=" M   718.41,   108.30  C   718.41    105.80    716.38    103.77    713.88    103.77  " /><path style="stroke-width: 1.42 ;&st7;   " d=" M   713.88,   103.77  C   711.38    103.77    709.35    105.80    709.35    108.30  " /><path style="stroke-width: 1.42 ;&st7;   " d=" M   709.35,   108.30  C   709.35    110.80    711.38    112.83    713.88    112.83  " /><path style="stroke-width: 1.42 ;&st7;   " d=" M   713.88,   112.83  C   716.38    112.83    718.41    110.80    718.41    108.30  " /><text style="font-size:6px;font-family:'NSimSun';" transform="matrix(&st16;  711.5  100.07 )">D</text></g><g ewd:lineID="21"><text style="font-size:6px;font-family:'NSimSun';" transform="matrix(&st16;  739.18  110.27 )">4</text><text style="font-size:6px;font-family:'NSimSun';" transform="matrix(&st16;  745.57  110.27 )">A</text><path style="stroke-width: 1.42 ;&st7;   " d=" M   752.41,   108.30  C   752.41    105.80    750.38    103.77    747.88    103.77  " /><path style="stroke-width: 1.42 ;&st7;   " d=" M   747.88,   103.77  C   745.37    103.77    743.34    105.80    743.34    108.30  " /><path style="stroke-width: 1.42 ;&st7;   " d=" M   743.34,   108.30  C   743.34    110.80    745.37    112.83    747.88    112.83  " /><path style="stroke-width: 1.42 ;&st7;   " d=" M   747.88,   112.83  C   750.38    112.83    752.41    110.80    752.41    108.30  " /><text style="font-size:6px;font-family:'NSimSun';" transform="matrix(&st16;  745.57  100.07 )">A</text></g><g ewd:lineID="22"><text style="font-size:6px;font-family:'NSimSun';" transform="matrix(&st16;  790.17  110.27 )">1</text><text style="font-size:6px;font-family:'NSimSun';" transform="matrix(&st16;  790.17  119.33 )">1</text><path style="stroke-width: 1.42 ;&st7;   " d=" M   803.40,   117.37  C   803.40    114.86    801.37    112.83    798.87    112.83  " /><path style="stroke-width: 1.42 ;&st7;   " d=" M   798.87,   112.83  C   796.36    112.83    794.33    114.86    794.33    117.37  " /><path style="stroke-width: 1.42 ;&st7;   " d=" M   794.33,   117.37  C   794.33    119.87    796.36    121.90    798.87    121.90  " /><path style="stroke-width: 1.42 ;&st7;   " d=" M   798.87,   121.90  C   801.37    121.90    803.40    119.87    803.40    117.37  " /><path style="stroke-width: 1.42 ;&st7;   " d=" M   803.40,   108.30  C   803.40    105.80    801.37    103.77    798.87    103.77  " /><path style="stroke-width: 1.42 ;&st7;   " d=" M   798.87,   103.77  C   796.36    103.77    794.33    105.80    794.33    108.30  " /><path style="stroke-width: 1.42 ;&st7;   " d=" M   794.33,   108.30  C   794.33    110.80    796.36    112.83    798.87    112.83  " /><path style="stroke-width: 1.42 ;&st7;   " d=" M   798.87,   112.83  C   801.37    112.83    803.40    110.80    803.40    108.30  " /><text style="font-size:6px;font-family:'NSimSun';" transform="matrix(&st16;  796.68  119.33 )">B</text><text style="font-size:6px;font-family:'NSimSun';" transform="matrix(&st16;  796.56  110.27 )">A</text><text style="font-size:6px;font-family:'NSimSun';" transform="matrix(&st16;  796.76  100.07 )">E</text></g><g ewd:lineID="26"><text style="font-size:6px;font-family:'NSimSun';" transform="matrix(&st16;  897.55  110.27 )">16</text><text style="font-size:6px;font-family:'NSimSun';" transform="matrix(&st16;  897.55  119.33 )">16</text><text style="font-size:6px;font-family:'NSimSun';" transform="matrix(&st16;  907.16  119.33 )">B</text><text style="font-size:6px;font-family:'NSimSun';" transform="matrix(&st16;  907.04  110.27 )">A</text><path style="stroke-width: 1.42 ;&st7;   " d=" M   913.88,   108.30  C   913.88    105.80    911.85    103.77    909.35    103.77  " /><path style="stroke-width: 1.42 ;&st7;   " d=" M   909.35,   103.77  C   906.84    103.77    904.82    105.80    904.82    108.30  " /><path style="stroke-width: 1.42 ;&st7;   " d=" M   904.82,   108.30  C   904.82    110.80    906.84    112.83    909.35    112.83  " /><path style="stroke-width: 1.42 ;&st7;   " d=" M   909.35,   112.83  C   911.85    112.83    913.88    110.80    913.88    108.30  " /><path style="stroke-width: 1.42 ;&st7;   " d=" M   913.88,   117.37  C   913.88    114.86    911.85    112.83    909.35    112.83  " /><path style="stroke-width: 1.42 ;&st7;   " d=" M   909.35,   112.83  C   906.84    112.83    904.82    114.86    904.82    117.37  " /><path style="stroke-width: 1.42 ;&st7;   " d=" M   904.82,   117.37  C   904.82    119.87    906.84    121.90    909.35    121.90  " /><path style="stroke-width: 1.42 ;&st7;   " d=" M   909.35,   121.90  C   911.85    121.90    913.88    119.87    913.88    117.37  " /><text style="font-size:6px;font-family:'NSimSun';" transform="matrix(&st16;  906.97  100.07 )">U</text></g><g ewd:lineID="29"><text style="font-size:6px;font-family:'NSimSun';" transform="matrix(&st16;  931.55  110.27 )">15</text><text style="font-size:6px;font-family:'NSimSun';" transform="matrix(&st16;  931.55  119.33 )">15</text><text style="font-size:6px;font-family:'NSimSun';" transform="matrix(&st16;  941.04  110.27 )">A</text><text style="font-size:6px;font-family:'NSimSun';" transform="matrix(&st16;  941.15  119.33 )">B</text><path style="stroke-width: 1.42 ;&st7;   " d=" M   947.87,   117.37  C   947.87    114.86    945.85    112.83    943.34    112.83  " /><path style="stroke-width: 1.42 ;&st7;   " d=" M   943.34,   112.83  C   940.84    112.83    938.81    114.86    938.81    117.37  " /><path style="stroke-width: 1.42 ;&st7;   " d=" M   938.81,   117.37  C   938.81    119.87    940.84    121.90    943.34    121.90  " /><path style="stroke-width: 1.42 ;&st7;   " d=" M   943.34,   121.90  C   945.85    121.90    947.87    119.87    947.87    117.37  " /><path style="stroke-width: 1.42 ;&st7;   " d=" M   947.87,   108.30  C   947.87    105.80    945.85    103.77    943.34    103.77  " /><path style="stroke-width: 1.42 ;&st7;   " d=" M   943.34,   103.77  C   940.84    103.77    938.81    105.80    938.81    108.30  " /><path style="stroke-width: 1.42 ;&st7;   " d=" M   938.81,   108.30  C   938.81    110.80    940.84    112.83    943.34    112.83  " /><path style="stroke-width: 1.42 ;&st7;   " d=" M   943.34,   112.83  C   945.85    112.83    947.87    110.80    947.87    108.30  " /><text style="font-size:6px;font-family:'NSimSun';" transform="matrix(&st16;  940.96  100.07 )">D</text></g></g><g ewd:figtype="conn" ewd:figID="8" ewd:code="G5"><path style="stroke-width: 0.85 ;&st7;   " d=" M   902.27,   384.22  C   902.27    383.44    901.63    382.80    900.85    382.80  " /><path style="stroke-width: 0.85 ;&st7;   " d=" M   900.85,   382.80  C   900.07    382.80    899.43    383.44    899.43    384.22  " /><path style="stroke-width: 0.85 ;&st7;   " d=" M   899.43,   384.22  C   899.43    385.00    900.07    385.64    900.85    385.64  " /><path style="stroke-width: 0.85 ;&st7;   " d=" M   900.85,   385.64  C   901.63    385.64    902.27    385.00    902.27    384.22  " /><path style="stroke-width: 0.85 ;&st7;   " d=" M   953.26,   384.22  C   953.26    383.44    952.62    382.80    951.84    382.80  " /><path style="stroke-width: 0.85 ;&st7;   " d=" M   951.84,   382.80  C   951.06    382.80    950.42    383.44    950.42    384.22  " /><path style="stroke-width: 0.85 ;&st7;   " d=" M   950.42,   384.22  C   950.42    385.00    951.06    385.64    951.84    385.64  " /><path style="stroke-width: 0.85 ;&st7;   " d=" M   951.84,   385.64  C   952.62    385.64    953.26    385.00    953.26    384.22  " /><path style="stroke-width: 0.85 ;&st7;   " d=" M   961.76,   367.22  C   961.76    366.44    961.12    365.81    960.34    365.81  " /><path style="stroke-width: 0.85 ;&st7;   " d=" M   960.34,   365.81  C   959.56    365.81    958.92    366.44    958.92    367.22  " /><path style="stroke-width: 0.85 ;&st7;   " d=" M   958.92,   367.22  C   958.92    368.01    959.56    368.64    960.34    368.64  " /><path style="stroke-width: 0.85 ;&st7;   " d=" M   960.34,   368.64  C   961.12    368.64    961.76    368.01    961.76    367.22  " /><path style="stroke-width: 0.85 ;&st7;   " d=" M   944.76,   367.22  C   944.76    366.44    944.12    365.81    943.34    365.81  " /><path style="stroke-width: 0.85 ;&st7;   " d=" M   943.34,   365.81  C   942.56    365.81    941.93    366.44    941.93    367.22  " /><path style="stroke-width: 0.85 ;&st7;   " d=" M   941.93,   367.22  C   941.93    368.01    942.56    368.64    943.34    368.64  " /><path style="stroke-width: 0.85 ;&st7;   " d=" M   943.34,   368.64  C   944.12    368.64    944.76    368.01    944.76    367.22  " /><path style="stroke-width: 0.85 ;&st7;   " d=" M   893.77,   367.22  C   893.77    366.44    893.13    365.81    892.35    365.81  " /><path style="stroke-width: 0.85 ;&st7;   " d=" M   892.35,   365.81  C   891.57    365.81    890.93    366.44    890.93    367.22  " /><path style="stroke-width: 0.85 ;&st7;   " d=" M   890.93,   367.22  C   890.93    368.01    891.57    368.64    892.35    368.64  " /><path style="stroke-width: 0.85 ;&st7;   " d=" M   892.35,   368.64  C   893.13    368.64    893.77    368.01    893.77    367.22  " /><path style="stroke-width: 0.85 ;&st7;   " d=" M   910.76,   367.22  C   910.76    366.44    910.13    365.81    909.35    365.81  " /><path style="stroke-width: 0.85 ;&st7;   " d=" M   909.35,   365.81  C   908.57    365.81    907.93    366.44    907.93    367.22  " /><path style="stroke-width: 0.85 ;&st7;   " d=" M   907.93,   367.22  C   907.93    368.01    908.57    368.64    909.35    368.64  " /><path style="stroke-width: 0.85 ;&st7;   " d=" M   909.35,   368.64  C   910.13    368.64    910.76    368.01    910.76    367.22  " /><path style="stroke-width: 0.85 ;&st7;  " d=" M   892.35,   365.81  L   892.35,   358.73  L   985.83,   358.73  L   985.83,   401.22  " /><path style="stroke-width: 0.85 ;&st7;  " d=" M   959.15,   357.72  L   958.87,   358.19  L   958.78,   358.73  L   958.87,   359.26  L   959.15,   359.73  L   959.56,   360.07  L   960.07,   360.26  L   960.61,   360.26  L   961.12,   360.07  L   961.53,   359.73  L   961.80,   359.26  L   961.90,   358.73  L   961.80,   358.19  L   961.53,   357.72  L   961.12,   357.38  L   960.61,   357.19  L   960.07,   357.19  L   959.56,   357.38  L   959.15,   357.72  L   959.54,   358.43  L   959.54,   359.02  L   959.91,   359.46  L   960.49,   359.56  L   960.99,   359.27  L   961.19,   358.73  L   960.99,   358.18  L   960.49,   357.89  L   959.91,   357.99  L   960.34,   358.73  " /><path style="stroke-width: 1.42 ;&st7;  " d=" M   900.85,   382.80  L   908.44,   365.10  " /><path style="stroke-width: 1.42 ;&st7;  " d=" M   951.84,   382.80  L   944.25,   365.10  " /><path style="stroke-width: 0.85 ;&st7;  " d=" M   951.84,   385.64  L   951.84,   401.22  " /><path style="stroke-width: 0.85 ;&st7;  " d=" M   943.34,   365.81  L   943.34,   341.73  " /><path style="stroke-width: 0.85 ;&st7;  " d=" M   909.35,   365.81  L   909.35,   341.73  " /><path style="stroke-width: 0.85 ;&st7;  " d=" M   900.85,   401.22  L   900.85,   385.64  " /><path style="stroke-width: 0.85 ;&st7;  " d=" M   960.34,   358.73  L   960.34,   365.81  " /><path style="stroke-width: 1.42 ;&st7;  " d=" M   883.85,   341.73  L  1002.83,   341.73  L  1002.83,   401.22  L   883.85,   401.22  L   883.85,   341.73  " /><text style="font-size:6px;font-family:'NSimSun';" transform="matrix(&st16;  945.93  349.92 )">SD</text><text style="font-size:6px;font-family:'NSimSun';" transform="matrix(&st16;  911.93  349.92 )">SU</text><text style="font-size:6px;font-family:'NSimSun';" transform="matrix(&st16;  903.43  397.53 )">U</text><text style="font-size:6px;font-family:'NSimSun';" transform="matrix(&st16;  954.42  397.53 )">D</text><text style="font-size:6px;font-family:'NSimSun';" transform="matrix(&st16;  988.42  397.53 )">B</text><text style="font-size:6px;font-family:'NSimSun';" transform="matrix(&st17;  962.31  383.68 )" ewd:textID="5">下</text><text style="font-size:6px;font-family:'NSimSun';" transform="matrix(&st17;  894.32  376.85 )" ewd:textID="18">上</text><text style="font-size:6px;font-family:'NSimSun';" transform="matrix(&st16;  894.67  409.41 )">4</text><text style="font-size:6px;font-family:'NSimSun';" transform="matrix(&st16;  903.16  338.04 )">5</text><text style="font-size:6px;font-family:'NSimSun';" transform="matrix(&st16;  937.16  338.04 )">2</text><text style="font-size:6px;font-family:'NSimSun';" transform="matrix(&st16;  945.66  409.41 )">1</text><text style="font-size:6px;font-family:'NSimSun';" transform="matrix(&st16;  979.65  409.41 )">3</text><g ewd:figtype="title"><text style="font-size:6px;font-family:'NSimSun';" transform="matrix(&st17; 880.21 401.63)" ewd:textID="10">右前电动窗升降器开关总成<tspan x="0 " dy="6.0" /></text><text style="font-size:6px;font-family:'NSimSun';" transform="matrix(&st17; 873.10 401.62)">G5</text></g></g><g ewd:figtype="conn" ewd:figID="10" ewd:code="H10"><path style="stroke-width: 1.42 ;&st7;  " d=" M   686.26,   269.49  L   686.26,   277.99  " /><path style="stroke-width: 1.42 ;&st7;  " d=" M   682.01,   269.49  L   682.01,   277.99  " /><path style="stroke-width: 0.85 ;&st7;  " d=" M   682.01,   273.74  L   671.39,   273.74  " /><path style="stroke-width: 0.85 ;&st7;  " d=" M   696.88,   273.74  L   686.26,   273.74  " /><path style="stroke-width: 1.42 ;&st7;  " d=" M   737.25,   252.49  L   737.25,   260.99  " /><path style="stroke-width: 1.42 ;&st7;  " d=" M   733.00,   252.49  L   733.00,   260.99  " /><path style="stroke-width: 0.85 ;&st7;  " d=" M   733.00,   256.74  L   722.38,   256.74  " /><path style="stroke-width: 0.85 ;&st7;  " d=" M   747.88,   256.74  L   737.25,   256.74  " /><path style="stroke-width: 1.42 ;&st7;  " d=" M   606.23,   193.00  L   606.23,   184.50  " /><path style="stroke-width: 1.42 ;&st7;  " d=" M   602.27,   193.00  L   606.23,   193.00  " /><path style="stroke-width: 1.42 ;&st7;  " d=" M   606.23,   184.50  L   602.27,   184.50  " /><path style="stroke-width: 1.42 ;&st7;  " d=" M   583.57,   193.00  L   583.57,   184.50  " /><path style="stroke-width: 1.42 ;&st7;  " d=" M   587.54,   193.00  L   583.57,   193.00  " /><path style="stroke-width: 1.42 ;&st7;  " d=" M   583.57,   184.50  L   587.54,   184.50  " /><path style="stroke-width: 1.42 ;&st7;   " d=" M   594.90,   197.25  C   599.59    197.25    603.40    193.45    603.40    188.75  " /><path style="stroke-width: 1.42 ;&st7;   " d=" M   603.40,   188.75  C   603.40    184.06    599.59    180.26    594.90    180.26  " /><path style="stroke-width: 1.42 ;&st7;   " d=" M   594.90,   180.26  C   590.21    180.26    586.40    184.06    586.40    188.75  " /><path style="stroke-width: 1.42 ;&st7;   " d=" M   586.40,   188.75  C   586.40    193.45    590.21    197.25    594.90    197.25  " /><path style="stroke-width: 0.85 ;&st7;  " d=" M   644.70,   272.74  L   644.43,   273.21  L   644.33,   273.74  L   644.43,   274.27  L   644.70,   274.74  L   645.11,   275.09  L   645.62,   275.28  L   646.16,   275.28  L   646.67,   275.09  L   647.08,   274.74  L   647.36,   274.27  L   647.45,   273.74  L   647.36,   273.21  L   647.08,   272.74  L   646.67,   272.39  L   646.16,   272.20  L   645.62,   272.20  L   645.11,   272.39  L   644.70,   272.74  L   645.09,   273.45  L   645.09,   274.03  L   645.47,   274.48  L   646.04,   274.58  L   646.54,   274.29  L   646.74,   273.74  L   646.54,   273.19  L   646.04,   272.90  L   645.47,   273.00  L   645.89,   273.74  " /><path style="stroke-width: 0.85 ;&st7;  " d=" M   746.68,   272.74  L   746.41,   273.21  L   746.32,   273.74  L   746.41,   274.27  L   746.68,   274.74  L   747.10,   275.09  L   747.60,   275.28  L   748.15,   275.28  L   748.65,   275.09  L   749.07,   274.74  L   749.34,   274.27  L   749.43,   273.74  L   749.34,   273.21  L   749.07,   272.74  L   748.65,   272.39  L   748.15,   272.20  L   747.60,   272.20  L   747.10,   272.39  L   746.68,   272.74  L   747.08,   273.45  L   747.08,   274.03  L   747.45,   274.48  L   748.02,   274.58  L   748.53,   274.29  L   748.72,   273.74  L   748.53,   273.19  L   748.02,   272.90  L   747.45,   273.00  L   747.87,   273.74  " /><path style="stroke-width: 0.85 ;&st7;  " d=" M   746.68,   255.74  L   746.41,   256.21  L   746.32,   256.74  L   746.41,   257.28  L   746.68,   257.75  L   747.10,   258.09  L   747.60,   258.28  L   748.15,   258.28  L   748.65,   258.09  L   749.07,   257.75  L   749.34,   257.28  L   749.43,   256.74  L   749.34,   256.21  L   749.07,   255.74  L   748.65,   255.39  L   748.15,   255.21  L   747.60,   255.21  L   747.10,   255.39  L   746.68,   255.74  L   747.08,   256.45  L   747.08,   257.03  L   747.45,   257.48  L   748.02,   257.58  L   748.53,   257.29  L   748.72,   256.74  L   748.53,   256.20  L   748.02,   255.91  L   747.45,   256.01  L   747.87,   256.74  " /><path style="stroke-width: 0.85 ;&st7;  " d=" M   722.38,   239.75  L   722.38,   256.74  " /><path style="stroke-width: 0.85 ;&st7;  " d=" M   747.87,   273.74  L   696.88,   273.74  " /><path style="stroke-width: 0.85 ;&st7;  " d=" M   645.89,   273.74  L   671.39,   273.74  " /><path style="stroke-width: 0.85 ;&st7;  " d=" M   747.87,   290.74  L   747.87,   239.75  " /><path style="stroke-width: 0.85 ;&st7;  " d=" M   713.88,   290.74  L   713.88,   239.75  " /><path style="stroke-width: 0.85 ;&st7;  " d=" M   645.89,   290.74  L   645.89,   239.75  " /><path style="stroke-width: 0.85 ;&st7;  " d=" M   747.87,   171.76  L   747.87,   222.75  " /><path style="stroke-width: 0.85 ;&st7;  " d=" M   713.88,   171.76  L   713.88,   222.75  " /><path style="stroke-width: 0.85 ;&st7;  " d=" M   606.23,   188.75  L   628.89,   188.75  L   628.89,   222.75  " /><path style="stroke-width: 0.85 ;&st7;  " d=" M   583.57,   188.75  L   560.91,   188.75  L   560.91,   222.75  " /><path style="stroke-width: 0.85 ;&st7;  " d=" M   679.89,   171.76  L   679.89,   222.75  " /><path style="stroke-width: 0.85 ;&st7;  " d=" M   645.89,   222.75  L   645.89,   171.76  " /><path style="stroke-width: 1.42 ;&st7;  " d=" M   552.41,   222.75  L   552.41,   239.75  L   756.37,   239.75  L   756.37,   222.75  L   552.41,   222.75  " /><path style="stroke-width: 1.42 ;&st7;  " d=" M   543.91,   171.76  L   543.91,   290.74  L   773.37,   290.74  L   773.37,   171.76  L   543.91,   171.76  " /><text style="font-size:6px;font-family:'NSimSun';" transform="matrix(&st16;  639.59  233.22 )">CPU</text><text style="font-size:6px;font-family:'NSimSun';" transform="matrix(&st16;  750.46  287.05 )">GND</text><text style="font-size:6px;font-family:'NSimSun';" transform="matrix(&st16;  716.46  287.05 )">LIN</text><text style="font-size:6px;font-family:'NSimSun';" transform="matrix(&st16;  648.48  287.05 )">B</text><text style="font-size:6px;font-family:'NSimSun';" transform="matrix(&st16;  750.46  179.95 )">AUTO</text><text style="font-size:6px;font-family:'NSimSun';" transform="matrix(&st16;  716.46  179.95 )">DOWN</text><text style="font-size:6px;font-family:'NSimSun';" transform="matrix(&st16;  682.47  179.95 )">UP</text><text style="font-size:6px;font-family:'NSimSun';" transform="matrix(&st16;  648.48  179.95 )">LED</text><text style="font-size:6px;font-family:'NSimSun';" transform="matrix(&st16;  592.17  190.72 )">M</text><text style="font-size:6px;font-family:'NSimSun';" transform="matrix(&st16;  639.71  298.93 )">2</text><text style="font-size:6px;font-family:'NSimSun';" transform="matrix(&st16;  639.71  168.07 )">5</text><text style="font-size:6px;font-family:'NSimSun';" transform="matrix(&st16;  670.6  168.07 )">10</text><text style="font-size:6px;font-family:'NSimSun';" transform="matrix(&st16;  707.7  298.93 )">9</text><text style="font-size:6px;font-family:'NSimSun';" transform="matrix(&st16;  707.7  168.07 )">7</text><text style="font-size:6px;font-family:'NSimSun';" transform="matrix(&st16;  741.69  298.93 )">1</text><text style="font-size:6px;font-family:'NSimSun';" transform="matrix(&st16;  741.69  168.07 )">4</text><g ewd:figtype="title"><text style="font-size:6px;font-family:'NSimSun';" transform="matrix(&st16;  540.5  305.45 )" ewd:textID="8">左前电动车窗升降器电动机总成<tspan x="0 " dy="6.0" /><tspan x="0 " dy="6.0" /></text><text style="font-size:6px;font-family:'NSimSun';" transform="matrix(&st16;  540.5  298.35 )">H10</text></g></g><g ewd:figtype="w2w" ewd:figID="26" ewd:code="HE1"><path style="stroke-width: 1.42 ;&st7;  " d=" M   650.14,   364.39  L   645.89,   360.14  L   641.64,   364.39  " /><path style="stroke-width: 1.42 ;&st7;  " d=" M   650.14,   367.79  L   645.89,   363.54  L   641.64,   367.79  " /><text style="font-size:6px;font-family:'NSimSun';" transform="matrix(&st16;  630.16  356.45 )">20</text></g><g ewd:figtype="w2w" ewd:figID="27" ewd:code="HE1"><path style="stroke-width: 1.42 ;&st7;  " d=" M   718.13,   364.39  L   713.88,   360.14  L   709.63,   364.39  " /><path style="stroke-width: 1.42 ;&st7;  " d=" M   718.13,   367.79  L   713.88,   363.54  L   709.63,   367.79  " /><text style="font-size:6px;font-family:'NSimSun';" transform="matrix(&st16;  701.25  356.45 )">6</text></g><g ewd:figtype="w2w" ewd:figID="28" ewd:code="HE3"><path style="stroke-width: 1.42 ;&st7;  " d=" M   752.12,   440.88  L   747.87,   436.63  L   743.63,   440.88  " /><path style="stroke-width: 1.42 ;&st7;  " d=" M   752.12,   444.28  L   747.87,   440.03  L   743.63,   444.28  " /><text style="font-size:6px;font-family:'NSimSun';" transform="matrix(&st16;  735.24  432.93 )">8</text></g><g ewd:figtype="w2w" ewd:figID="29" ewd:code="GE2"><path style="stroke-width: 1.42 ;&st7;  " d=" M   905.10,   256.18  L   909.35,   260.43  L   913.60,   256.18  " /><path style="stroke-width: 1.42 ;&st7;  " d=" M   913.60,   259.58  L   909.35,   263.82  L   905.10,   259.58  " /><text style="font-size:6px;font-family:'NSimSun';" transform="matrix(&st16;  893.61  271.46 )">12</text></g><g ewd:figtype="w2w" ewd:figID="30" ewd:code="HE2"><path style="stroke-width: 1.42 ;&st7;  " d=" M   913.60,   197.82  L   909.35,   193.57  L   905.10,   197.82  " /><path style="stroke-width: 1.42 ;&st7;  " d=" M   913.60,   194.42  L   909.35,   190.17  L   905.10,   194.42  " /><text style="font-size:6px;font-family:'NSimSun';" transform="matrix(&st16;  893.61  186.47 )">12</text></g><g ewd:figtype="w2w" ewd:figID="31" ewd:code="GE2"><path style="stroke-width: 1.42 ;&st7;  " d=" M   939.09,   256.18  L   943.34,   260.43  L   947.59,   256.18  " /><path style="stroke-width: 1.42 ;&st7;  " d=" M   947.59,   259.58  L   943.34,   263.82  L   939.09,   259.58  " /><text style="font-size:6px;font-family:'NSimSun';" transform="matrix(&st16;  927.61  271.46 )">11</text></g><g ewd:figtype="w2w" ewd:figID="32" ewd:code="HE2"><path style="stroke-width: 1.42 ;&st7;  " d=" M   947.59,   197.82  L   943.34,   193.57  L   939.09,   197.82  " /><path style="stroke-width: 1.42 ;&st7;  " d=" M   947.59,   194.42  L   943.34,   190.17  L   939.09,   194.42  " /><text style="font-size:6px;font-family:'NSimSun';" transform="matrix(&st16;  927.61  186.47 )">11</text></g><g ewd:figtype="gp" ewd:figID="47" ewd:code="EA"><path style="stroke-width: 0.85 ;&st7;  " d=" M   746.46,   710.00  L   749.29,   710.00  " /><path style="stroke-width: 0.85 ;&st7;  " d=" M   745.04,   707.17  L   750.71,   707.17  " /><path style="stroke-width: 0.85 ;&st7;  " d=" M   743.63,   704.33  L   752.12,   704.33  " /><path style="stroke-width: 0.85 ;&st7;  " d=" M   739.38,   701.50  L   756.37,   701.50  " /><path style="stroke-width: 0.85 ;&st7;  " d=" M   747.87,   697.25  L   747.87,   701.50  " /></g><g ewd:code="" ewd:figID="65" ewd:comment="1" ewd:figtype="commref"><text style="font-size:6px;font-family:'NSimSun';" transform="matrix(&st16;  948.44  110.27 )">(*1)</text></g><g ewd:code="" ewd:figID="66" ewd:comment="2" ewd:figtype="commref"><text style="font-size:6px;font-family:'NSimSun';" transform="matrix(&st16;  948.44  119.33 )">(*2)</text></g></svg>