<?xml version="1.0" encoding="utf-8"?>
<!DOCTYPE svg PUBLIC "-//W3C//DTD SVG 1.0//EN" "http://www.w3.org/TR/2001/REC-SVG-20010904/DTD/svg10.dtd"[
	<!ENTITY ns_flows "http://ns.adobe.com/Flows/1.0/">
	<!ENTITY ns_svg "http://www.w3.org/2000/svg">
	<!ENTITY ns_xlink "http://www.w3.org/1999/xlink">
	<!ENTITY st0 "font-size:7px;font-family:'NSimSun';adobe-font-script:japanese;">
	<!ENTITY st1 "font-size:6px;font-family:'NSimSun';">
	<!-- White fill  -->
	<!ENTITY st2 "fill:#FFFFFF;stroke:#000000; stroke-width:1.41;stroke-linecap:round;stroke-linejoin:round;">
	<!-- Yellow fill  -->
	<!ENTITY st3 "fill:#FFFFCC;stroke:#FFFFCC; stroke-width:0.1;stroke-linecap:round;stroke-linejoin:round;">
	<!-- Gray fill  -->
	<!ENTITY st4 "fill:#CCCCCC;stroke:#CCCCCC; stroke-width:0.1;stroke-linecap:round;stroke-linejoin:round;">
	<!-- Light-blue fill -->
	<!ENTITY st5 "fill:#CCECF4;stroke:#000000; stroke-width:1.133;stroke-linecap:round;stroke-linejoin:round;">
	<!ENTITY st6 "fill:none;stroke-linecap:butt; stroke-linejoin:round;">
	<!ENTITY st7 "fill:none;stroke:#000000;stroke-linecap:round;stroke-linejoin:round;">
	<!ENTITY st8 "enable-background:new    ;">
	<!-- Black fill -->
	<!ENTITY st9 "fill:#000000;stroke:#000000; stroke-linecap:round;stroke-linejoin:round;">
	<!-- SRS note   -->
	<!ENTITY st10 "font-size:9px;font-family:'NSimSun';">
	<!ENTITY st11 "font-size:9px;font-family:'NSimSun';">
	<!ENTITY st12 "font-size:6px;font-family:'NSimSun';">
	<!ENTITY st13 "fill:none;stroke:#ff0000;stroke-linecap:round;stroke-linejoin:round;">
	<!-- Yellow fill  -->
	<!ENTITY st14 "fill:#FFFF00;stroke:#FFFF00; stroke-width:0.1;stroke-linecap:round;stroke-linejoin:round;">
	<!ENTITY st15 "font-size:6px;font-family:'NSimSun';adobe-font-script:japanese;">
	<!ENTITY st16 "1.00 0.00 0.00 1.00">
	<!ENTITY st17 "0.00 -1.00 1.00 0.00">
	<!ENTITY st18 "font-size:6px;font-family:'NSimSun';">
	<!ENTITY st19 "font-size:9px;font-family:'NSimSun';">
	<!ENTITY st20 "font-size:6px;font-family:'NSimSun';adobe-font-script:japanese;">
	<!ENTITY st21 "font-size:7px;font-family:'NSimSun';adobe-font-script:japanese;">
	<!ATTLIST svg
		xmlns:ewd CDATA #FIXED "http://shcl.co.jp/ewd"
		xmlns:a CDATA #FIXED "http://ns.adobe.com/AdobeSVGViewerExtensions/3.0/"
		ewd:ver CDATA #IMPLIED
	>
	<!ATTLIST a
		ewd:lineID CDATA #IMPLIED
		ewd:groupID CDATA #IMPLIED
		ewd:figtype CDATA #IMPLIED
		ewd:code CDATA #IMPLIED
		ewd:figID CDATA #IMPLIED
		ewd:pinNo CDATA #IMPLIED
		ewd:comment CDATA #IMPLIED >
	<!ATTLIST g
		ewd:lineID CDATA #IMPLIED
		ewd:groupID CDATA #IMPLIED
		ewd:figtype CDATA #IMPLIED
		ewd:code CDATA #IMPLIED
		ewd:figID CDATA #IMPLIED
		ewd:pinNo CDATA #IMPLIED
		ewd:comment CDATA #IMPLIED >
	<!ATTLIST text
		ewd:textID CDATA #IMPLIED
		ewd:horAlign CDATA #IMPLIED >
	<!ATTLIST title
		ewd:textID CDATA #IMPLIED >
]>
<!-- Generator: Shintec Hozumi YS   -->
<svg onload="call_execInitLoadProc_svg('system')" style="overflow:visible;  enable-background:new 0 0 1020.355 710.000" viewBox="0 0 1018.821 710.000" height="710.000" width="1018.821" xml:space="preserve" ewd:ver="2.1.2.6F" xmlns="&ns_svg;" xmlns:ewd="http://shcl.co.jp/ewd" xmlns:a="http://ns.adobe.com/AdobeSVGViewerExtensions/3.0/" xmlns:xlink="&ns_xlink;">
<text style="font-size:6px;font-family:'NSimSun';" transform="matrix(&st17;  429.73  636.63 )">W-B</text><text style="font-size:6px;font-family:'NSimSun';" transform="matrix(&st17;  157.78  141.0 )">SB</text><text style="font-size:6px;font-family:'NSimSun';" transform="matrix(&st17;  225.77  141.58 )">GR</text><text style="font-size:6px;font-family:'NSimSun';" transform="matrix(&st17;  319.25  209.57 )">GR</text><text style="font-size:6px;font-family:'NSimSun';" transform="matrix(&st17;  353.24  208.99 )">SB</text><text style="font-size:6px;font-family:'NSimSun';" transform="matrix(&st17;  387.24  208.22 )">W</text><text style="font-size:6px;font-family:'NSimSun';" transform="matrix(&st17;  429.73  211.71 )">W-B</text><text style="font-size:6px;font-family:'NSimSun';" transform="matrix(&st17;  81.29  259.21 )">W</text><text style="font-size:6px;font-family:'NSimSun';" transform="matrix(&st17;  81.29  140.23 )">W</text><g ewd:figtype="rb" ewd:figID="1" ewd:code="FUSE6"><path style="stroke-width: 1.42 ;&st7;  " d=" M    87.11,   103.77  L    82.86,   103.77  " /><path style="stroke-width: 1.42 ;&st7;  " d=" M    87.11,    95.27  L    82.86,    95.27  " /><path style="stroke-width: 1.42 ;&st7;   " d=" M    82.86,    95.27  C    80.51     95.27     78.61     97.17     78.61     99.52  " /><path style="stroke-width: 1.42 ;&st7;   " d=" M    91.36,    99.52  C    91.36     97.17     89.46     95.27     87.11     95.27  " /><path style="stroke-width: 1.42 ;&st7;   " d=" M    87.11,   103.77  C    89.46    103.77     91.36    101.87     91.36     99.52  " /><path style="stroke-width: 1.42 ;&st7;   " d=" M    78.61,    99.52  C    78.61    101.87     80.51    103.77     82.86    103.77  " /><path style="stroke-width: 0.28 ;&st9;  " d=" M    84.99,    90.37  L    82.15,    87.54  L    82.15,    91.79  L    84.99,    94.62  L    87.82,    91.79  L    87.82,    87.54  L    84.99,    90.37  " /><path style="stroke-width: 0.85 ;&st7;  " d=" M    84.99,    78.27  L    84.99,    95.27  " /><text style="font-size:6px;font-family:'NSimSun';" transform="matrix(&st16;  83.19  101.49 )">1</text><text style="font-size:6px;font-family:'NSimSun';" transform="matrix(&st16;  76.94  32.08 )">(BAT)</text><text style="font-size:6px;font-family:'NSimSun';" transform="matrix(&st16;  101.41  53.34 )">10A <tspan x="0 " dy="6.0">ECU-B </tspan><tspan x="0 " dy="6.0">NO.2</tspan></text><text style="font-size:6px;font-family:'NSimSun';" transform="matrix(&st16;  78.8  86.47 )">2</text><path style="stroke-width: 0.85 ;&st7;  " d=" M    84.99,    69.77  L    84.99,    78.27  " /><path style="stroke-width: 1.42 ;&st7;   " d=" M    84.99,    66.94  C    87.72     65.33     88.64     61.80     87.02     59.06  " /><path style="stroke-width: 1.42 ;&st7;   " d=" M    87.02,    59.06  C    86.50     58.18     85.87     57.55     84.99     57.03  " /><path style="stroke-width: 0.85 ;&st7;   " d=" M    86.40,    68.36  C    86.40     67.57     85.77     66.94     84.99     66.94  " /><path style="stroke-width: 0.85 ;&st7;   " d=" M    84.99,    66.94  C    84.20     66.94     83.57     67.57     83.57     68.36  " /><path style="stroke-width: 0.85 ;&st7;   " d=" M    83.57,    68.36  C    83.57     69.14     84.20     69.77     84.99     69.77  " /><path style="stroke-width: 0.85 ;&st7;   " d=" M    84.99,    69.77  C    85.77     69.77     86.40     69.14     86.40     68.36  " /><path style="stroke-width: 0.85 ;&st7;   " d=" M    86.40,    45.69  C    86.40     44.91     85.77     44.28     84.99     44.28  " /><path style="stroke-width: 0.85 ;&st7;   " d=" M    84.99,    44.28  C    84.20     44.28     83.57     44.91     83.57     45.69  " /><path style="stroke-width: 0.85 ;&st7;   " d=" M    83.57,    45.69  C    83.57     46.48     84.20     47.11     84.99     47.11  " /><path style="stroke-width: 0.85 ;&st7;   " d=" M    84.99,    47.11  C    85.77     47.11     86.40     46.48     86.40     45.69  " /><path style="stroke-width: 1.42 ;&st7;   " d=" M    84.99,    47.11  C    82.25     48.72     81.34     52.25     82.95     54.99  " /><path style="stroke-width: 1.42 ;&st7;   " d=" M    82.95,    54.99  C    83.47     55.87     84.10     56.51     84.99     57.03  " /><path style="stroke-width: 1.42 ;&st7;  " d=" M    72.24,    35.78  L    72.24,    78.27  L    97.73,    78.27  L    97.73,    35.78  L    72.24,    35.78  " /></g><g ewd:figtype="conn" ewd:figID="2" ewd:code="E25"><path style="stroke-width: 1.42 ;&st7;  " d=" M   671.39,    85.35  L   677.05,   108.02  " /><path style="stroke-width: 0.85 ;&st7;  " d=" M   671.39,    78.27  L   671.39,    82.52  " /><path style="stroke-width: 0.85 ;&st7;  " d=" M   671.39,   108.02  L   671.39,   120.77  " /><path style="stroke-width: 1.42 ;&st7;  " d=" M   696.88,    85.35  L   702.55,   108.02  " /><path style="stroke-width: 0.85 ;&st7;  " d=" M   696.88,    78.27  L   696.88,    82.52  " /><path style="stroke-width: 0.85 ;&st7;  " d=" M   696.88,   108.02  L   696.88,   120.77  " /><path style="stroke-width: 1.42 ;&st7;  " d=" M   722.38,    85.35  L   728.05,   108.02  " /><path style="stroke-width: 0.85 ;&st7;  " d=" M   722.38,    78.27  L   722.38,    82.52  " /><path style="stroke-width: 0.85 ;&st7;  " d=" M   722.38,   108.02  L   722.38,   120.77  " /><path style="stroke-width: 1.42 ;&st7;  " d=" M   747.88,    85.35  L   753.54,   108.02  " /><path style="stroke-width: 0.85 ;&st7;  " d=" M   747.88,    78.27  L   747.88,    82.52  " /><path style="stroke-width: 0.85 ;&st7;  " d=" M   747.88,   108.02  L   747.88,   120.77  " /><path style="stroke-width: 1.42 ;&st7;  " d=" M   798.87,    85.35  L   804.53,   108.02  " /><path style="stroke-width: 0.85 ;&st7;  " d=" M   798.87,    78.27  L   798.87,    82.52  " /><path style="stroke-width: 0.85 ;&st7;  " d=" M   798.87,   108.02  L   798.87,   120.77  " /><path style="stroke-width: 0.85 ;&st7;  " d=" M   594.90,    78.27  L   594.90,    86.77  " /><path style="stroke-width: 1.42 ;&st7;  " d=" M   594.90,   106.60  L   594.90,    89.60  " /><path style="stroke-width: 0.85 ;&st7;   " d=" M   672.80,    83.94  C   672.80     83.16    672.17     82.52    671.39     82.52  " /><path style="stroke-width: 0.85 ;&st7;   " d=" M   671.39,    82.52  C   670.61     82.52    669.97     83.16    669.97     83.94  " /><path style="stroke-width: 0.85 ;&st7;   " d=" M   669.97,    83.94  C   669.97     84.72    670.61     85.35    671.39     85.35  " /><path style="stroke-width: 0.85 ;&st7;   " d=" M   671.39,    85.35  C   672.17     85.35    672.80     84.72    672.80     83.94  " /><path style="stroke-width: 0.85 ;&st7;   " d=" M   672.80,   106.60  C   672.80    105.82    672.17    105.18    671.39    105.18  " /><path style="stroke-width: 0.85 ;&st7;   " d=" M   671.39,   105.18  C   670.61    105.18    669.97    105.82    669.97    106.60  " /><path style="stroke-width: 0.85 ;&st7;   " d=" M   669.97,   106.60  C   669.97    107.38    670.61    108.02    671.39    108.02  " /><path style="stroke-width: 0.85 ;&st7;   " d=" M   671.39,   108.02  C   672.17    108.02    672.80    107.38    672.80    106.60  " /><path style="stroke-width: 0.85 ;&st7;   " d=" M   698.30,    83.94  C   698.30     83.16    697.67     82.52    696.88     82.52  " /><path style="stroke-width: 0.85 ;&st7;   " d=" M   696.88,    82.52  C   696.10     82.52    695.47     83.16    695.47     83.94  " /><path style="stroke-width: 0.85 ;&st7;   " d=" M   695.47,    83.94  C   695.47     84.72    696.10     85.35    696.88     85.35  " /><path style="stroke-width: 0.85 ;&st7;   " d=" M   696.88,    85.35  C   697.67     85.35    698.30     84.72    698.30     83.94  " /><path style="stroke-width: 0.85 ;&st7;   " d=" M   698.30,   106.60  C   698.30    105.82    697.67    105.18    696.88    105.18  " /><path style="stroke-width: 0.85 ;&st7;   " d=" M   696.88,   105.18  C   696.10    105.18    695.47    105.82    695.47    106.60  " /><path style="stroke-width: 0.85 ;&st7;   " d=" M   695.47,   106.60  C   695.47    107.38    696.10    108.02    696.88    108.02  " /><path style="stroke-width: 0.85 ;&st7;   " d=" M   696.88,   108.02  C   697.67    108.02    698.30    107.38    698.30    106.60  " /><path style="stroke-width: 0.85 ;&st7;   " d=" M   723.80,    83.94  C   723.80     83.16    723.16     82.52    722.38     82.52  " /><path style="stroke-width: 0.85 ;&st7;   " d=" M   722.38,    82.52  C   721.60     82.52    720.96     83.16    720.96     83.94  " /><path style="stroke-width: 0.85 ;&st7;   " d=" M   720.96,    83.94  C   720.96     84.72    721.60     85.35    722.38     85.35  " /><path style="stroke-width: 0.85 ;&st7;   " d=" M   722.38,    85.35  C   723.16     85.35    723.80     84.72    723.80     83.94  " /><path style="stroke-width: 0.85 ;&st7;   " d=" M   723.80,   106.60  C   723.80    105.82    723.16    105.18    722.38    105.18  " /><path style="stroke-width: 0.85 ;&st7;   " d=" M   722.38,   105.18  C   721.60    105.18    720.96    105.82    720.96    106.60  " /><path style="stroke-width: 0.85 ;&st7;   " d=" M   720.96,   106.60  C   720.96    107.38    721.60    108.02    722.38    108.02  " /><path style="stroke-width: 0.85 ;&st7;   " d=" M   722.38,   108.02  C   723.16    108.02    723.80    107.38    723.80    106.60  " /><path style="stroke-width: 0.85 ;&st7;   " d=" M   749.29,    83.94  C   749.29     83.16    748.66     82.52    747.88     82.52  " /><path style="stroke-width: 0.85 ;&st7;   " d=" M   747.88,    82.52  C   747.09     82.52    746.46     83.16    746.46     83.94  " /><path style="stroke-width: 0.85 ;&st7;   " d=" M   746.46,    83.94  C   746.46     84.72    747.09     85.35    747.88     85.35  " /><path style="stroke-width: 0.85 ;&st7;   " d=" M   747.88,    85.35  C   748.66     85.35    749.29     84.72    749.29     83.94  " /><path style="stroke-width: 0.85 ;&st7;   " d=" M   749.29,   106.60  C   749.29    105.82    748.66    105.18    747.88    105.18  " /><path style="stroke-width: 0.85 ;&st7;   " d=" M   747.88,   105.18  C   747.09    105.18    746.46    105.82    746.46    106.60  " /><path style="stroke-width: 0.85 ;&st7;   " d=" M   746.46,   106.60  C   746.46    107.38    747.09    108.02    747.88    108.02  " /><path style="stroke-width: 0.85 ;&st7;   " d=" M   747.88,   108.02  C   748.66    108.02    749.29    107.38    749.29    106.60  " /><path style="stroke-width: 0.85 ;&st7;   " d=" M   800.28,    83.94  C   800.28     83.16    799.65     82.52    798.87     82.52  " /><path style="stroke-width: 0.85 ;&st7;   " d=" M   798.87,    82.52  C   798.08     82.52    797.45     83.16    797.45     83.94  " /><path style="stroke-width: 0.85 ;&st7;   " d=" M   797.45,    83.94  C   797.45     84.72    798.08     85.35    798.87     85.35  " /><path style="stroke-width: 0.85 ;&st7;   " d=" M   798.87,    85.35  C   799.65     85.35    800.28     84.72    800.28     83.94  " /><path style="stroke-width: 0.85 ;&st7;   " d=" M   800.28,   106.60  C   800.28    105.82    799.65    105.18    798.87    105.18  " /><path style="stroke-width: 0.85 ;&st7;   " d=" M   798.87,   105.18  C   798.08    105.18    797.45    105.82    797.45    106.60  " /><path style="stroke-width: 0.85 ;&st7;   " d=" M   797.45,   106.60  C   797.45    107.38    798.08    108.02    798.87    108.02  " /><path style="stroke-width: 0.85 ;&st7;   " d=" M   798.87,   108.02  C   799.65    108.02    800.28    107.38    800.28    106.60  " /><path style="stroke-width: 0.85 ;&st7;   " d=" M   587.82,   102.35  C   587.82    101.57    587.18    100.94    586.40    100.94  " /><path style="stroke-width: 0.85 ;&st7;   " d=" M   586.40,   100.94  C   585.62    100.94    584.99    101.57    584.99    102.35  " /><path style="stroke-width: 0.85 ;&st7;   " d=" M   584.99,   102.35  C   584.99    103.13    585.62    103.77    586.40    103.77  " /><path style="stroke-width: 0.85 ;&st7;   " d=" M   586.40,   103.77  C   587.18    103.77    587.82    103.13    587.82    102.35  " /><path style="stroke-width: 0.85 ;&st7;   " d=" M   604.82,   102.35  C   604.82    101.57    604.18    100.94    603.40    100.94  " /><path style="stroke-width: 0.85 ;&st7;   " d=" M   603.40,   100.94  C   602.62    100.94    601.98    101.57    601.98    102.35  " /><path style="stroke-width: 0.85 ;&st7;   " d=" M   601.98,   102.35  C   601.98    103.13    602.62    103.77    603.40    103.77  " /><path style="stroke-width: 0.85 ;&st7;   " d=" M   603.40,   103.77  C   604.18    103.77    604.82    103.13    604.82    102.35  " /><path style="stroke-width: 0.85 ;&st7;   " d=" M   596.32,    88.19  C   596.32     87.40    595.68     86.77    594.90     86.77  " /><path style="stroke-width: 0.85 ;&st7;   " d=" M   594.90,    86.77  C   594.12     86.77    593.48     87.40    593.48     88.19  " /><path style="stroke-width: 0.85 ;&st7;   " d=" M   593.48,    88.19  C   593.48     88.97    594.12     89.60    594.90     89.60  " /><path style="stroke-width: 0.85 ;&st7;   " d=" M   594.90,    89.60  C   595.68     89.60    596.32     88.97    596.32     88.19  " /><path style="stroke-width: 1.42 ;&st7;  " d=" M   305.95,    44.28  L   985.83,    44.28  L   985.83,   171.76  L   305.95,   171.76  L   305.95,    44.28  " /><path style="stroke-width: 0.85 ;&st7;  " d=" M   824.36,    78.27  L   824.36,    86.77  " /><path style="stroke-width: 0.85 ;&st7;  " d=" M   815.86,    86.77  L   832.86,    86.77  " /><path style="stroke-width: 0.85 ;&st7;  " d=" M   820.11,    89.60  L   828.61,    89.60  " /><path style="stroke-width: 0.85 ;&st7;  " d=" M   821.53,    92.44  L   827.19,    92.44  " /><path style="stroke-width: 0.85 ;&st7;  " d=" M   822.95,    95.27  L   825.78,    95.27  " /><path style="stroke-width: 0.85 ;&st7;  " d=" M   645.89,    78.27  L   645.89,    86.77  " /><path style="stroke-width: 0.85 ;&st7;  " d=" M   637.39,    86.77  L   654.39,    86.77  " /><path style="stroke-width: 0.85 ;&st7;  " d=" M   641.64,    89.60  L   650.14,    89.60  " /><path style="stroke-width: 0.85 ;&st7;  " d=" M   643.06,    92.44  L   648.72,    92.44  " /><path style="stroke-width: 0.85 ;&st7;  " d=" M   644.48,    95.27  L   647.31,    95.27  " /><path style="stroke-width: 0.85 ;&st7;  " d=" M   560.91,    78.27  L   560.91,    86.77  " /><path style="stroke-width: 0.85 ;&st7;  " d=" M   552.41,    86.77  L   569.40,    86.77  " /><path style="stroke-width: 0.85 ;&st7;  " d=" M   556.66,    89.60  L   565.16,    89.60  " /><path style="stroke-width: 0.85 ;&st7;  " d=" M   558.07,    92.44  L   563.74,    92.44  " /><path style="stroke-width: 0.85 ;&st7;  " d=" M   559.49,    95.27  L   562.32,    95.27  " /><path style="stroke-width: 0.85 ;&st7;  " d=" M   603.40,   103.77  L   603.40,   120.77  " /><path style="stroke-width: 0.85 ;&st7;  " d=" M   586.40,   103.77  L   586.40,   120.77  " /><path style="stroke-width: 1.42 ;&st7;  " d=" M   552.41,   120.77  L   832.86,   120.77  L   832.86,   137.76  L   552.41,   137.76  L   552.41,   120.77  " /><path style="stroke-width: 0.85 ;&st7;  " d=" M   670.19,    77.27  L   669.92,    77.74  L   669.83,    78.27  L   669.92,    78.81  L   670.19,    79.28  L   670.61,    79.62  L   671.12,    79.81  L   671.66,    79.81  L   672.17,    79.62  L   672.58,    79.28  L   672.85,    78.81  L   672.95,    78.27  L   672.85,    77.74  L   672.58,    77.27  L   672.17,    76.92  L   671.66,    76.74  L   671.12,    76.74  L   670.61,    76.92  L   670.19,    77.27  L   670.59,    77.98  L   670.59,    78.56  L   670.96,    79.01  L   671.53,    79.11  L   672.04,    78.82  L   672.24,    78.27  L   672.04,    77.73  L   671.53,    77.44  L   670.96,    77.54  L   671.39,    78.27  " /><path style="stroke-width: 0.85 ;&st7;  " d=" M   695.69,    77.27  L   695.42,    77.74  L   695.33,    78.27  L   695.42,    78.81  L   695.69,    79.28  L   696.10,    79.62  L   696.61,    79.81  L   697.16,    79.81  L   697.66,    79.62  L   698.08,    79.28  L   698.35,    78.81  L   698.44,    78.27  L   698.35,    77.74  L   698.08,    77.27  L   697.66,    76.92  L   697.16,    76.74  L   696.61,    76.74  L   696.10,    76.92  L   695.69,    77.27  L   696.08,    77.98  L   696.08,    78.56  L   696.46,    79.01  L   697.03,    79.11  L   697.53,    78.82  L   697.73,    78.27  L   697.53,    77.73  L   697.03,    77.44  L   696.46,    77.54  L   696.88,    78.27  " /><path style="stroke-width: 0.85 ;&st7;  " d=" M   721.19,    77.27  L   720.91,    77.74  L   720.82,    78.27  L   720.91,    78.81  L   721.19,    79.28  L   721.60,    79.62  L   722.11,    79.81  L   722.65,    79.81  L   723.16,    79.62  L   723.57,    79.28  L   723.84,    78.81  L   723.94,    78.27  L   723.84,    77.74  L   723.57,    77.27  L   723.16,    76.92  L   722.65,    76.74  L   722.11,    76.74  L   721.60,    76.92  L   721.19,    77.27  L   721.58,    77.98  L   721.58,    78.56  L   721.95,    79.01  L   722.53,    79.11  L   723.03,    78.82  L   723.23,    78.27  L   723.03,    77.73  L   722.53,    77.44  L   721.95,    77.54  L   722.38,    78.27  " /><path style="stroke-width: 0.85 ;&st7;  " d=" M   747.87,    78.27  L   645.89,    78.27  " /><path style="stroke-width: 0.85 ;&st7;  " d=" M   560.91,    78.27  L   594.90,    78.27  " /><path style="stroke-width: 0.85 ;&st7;  " d=" M   798.87,    78.27  L   824.36,    78.27  " /><text style="font-size:6px;font-family:'NSimSun';" transform="matrix(&st16;  665.24  168.06 )">M+R</text><text style="font-size:6px;font-family:'NSimSun';" transform="matrix(&st16;  760.94  168.06 )">FL</text><text style="font-size:6px;font-family:'NSimSun';" transform="matrix(&st16;  630.75  168.06 )">MVR</text><text style="font-size:6px;font-family:'NSimSun';" transform="matrix(&st16;  599.43  168.06 )">RR</text><text style="font-size:6px;font-family:'NSimSun';" transform="matrix(&st16;  565.43  168.06 )">FR</text><text style="font-size:6px;font-family:'NSimSun';" transform="matrix(&st16;  894.05  168.06 )">MHL</text><text style="font-size:6px;font-family:'NSimSun';" transform="matrix(&st16;  860.75  168.06 )">M+L</text><text style="font-size:6px;font-family:'NSimSun';" transform="matrix(&st16;  826.25  168.06 )">MVL</text><text style="font-size:6px;font-family:'NSimSun';" transform="matrix(&st16;  794.93  168.06 )">RL</text><text style="font-size:6px;font-family:'NSimSun';" transform="matrix(&st16;  698.54  168.06 )">MHR</text><text style="font-size:6px;font-family:'NSimSun';" transform="matrix(&st16;  316.3  168.06 )">ACC</text><text style="font-size:6px;font-family:'NSimSun';" transform="matrix(&st16;  350.1  168.06 )">IGB1</text><text style="font-size:6px;font-family:'NSimSun';" transform="matrix(&st16;  388.75  168.06 )">B</text><text style="font-size:6px;font-family:'NSimSun';" transform="matrix(&st16;  426.78  168.06 )">GND</text><text style="font-size:6px;font-family:'NSimSun';" transform="matrix(&st16;  960.41  168.06 )">DLCK</text><text style="font-size:6px;font-family:'NSimSun';" transform="matrix(&st17;  660.34  102.85 )" ewd:textID="15">左上<tspan x="0 " dy="6.0" /></text><text style="font-size:6px;font-family:'NSimSun';" transform="matrix(&st17;  685.84  102.85 )" ewd:textID="5">左下<tspan x="0 " dy="6.0" /></text><text style="font-size:6px;font-family:'NSimSun';" transform="matrix(&st17;  711.33  102.85 )" ewd:textID="6">右下<tspan x="0 " dy="6.0" /></text><text style="font-size:6px;font-family:'NSimSun';" transform="matrix(&st17;  736.83  102.85 )" ewd:textID="16">右上<tspan x="0 " dy="6.0" /></text><text style="font-size:6px;font-family:'NSimSun';" transform="matrix(&st17;  787.82  108.44 )" ewd:textID="2">折叠开关<tspan x="0 " dy="6.0" /></text><text style="font-size:6px;font-family:'NSimSun';" transform="matrix(&st17;  582.71  101.73 )" ewd:textID="13">右</text><text style="font-size:6px;font-family:'NSimSun';" transform="matrix(&st17;  611.04  100.18 )" ewd:textID="4">左</text><text style="font-size:6px;font-family:'NSimSun';" transform="matrix(&st16; 557.60 72.26)" ewd:textID="8" ewd:horAlign="center">后视镜选择开关<tspan x="0 " dy="6.0" /><tspan x="0 " dy="6.0" /></text><text style="font-size:6px;font-family:'NSimSun';" transform="matrix(&st16; 675.97 68.92)" ewd:textID="7" ewd:horAlign="center">后视镜调节开关<tspan x="0 " dy="6.0" /></text><text style="font-size:6px;font-family:'NSimSun';" transform="matrix(&st16; 679.84 131.23)" ewd:textID="1" ewd:horAlign="center">控制电路</text><text style="font-size:6px;font-family:'NSimSun';" transform="matrix(&st16;  384.75  179.95 )">1</text><text style="font-size:6px;font-family:'NSimSun';" transform="matrix(&st16;  594.11  179.95 )">15</text><text style="font-size:6px;font-family:'NSimSun';" transform="matrix(&st16;  628.11  179.95 )">24</text><text style="font-size:6px;font-family:'NSimSun';" transform="matrix(&st16;  665.2  179.95 )">4</text><text style="font-size:6px;font-family:'NSimSun';" transform="matrix(&st16;  696.1  179.95 )">14</text><text style="font-size:6px;font-family:'NSimSun';" transform="matrix(&st16;  758.69  179.95 )">6</text><text style="font-size:6px;font-family:'NSimSun';" transform="matrix(&st16;  789.58  179.95 )">16</text><text style="font-size:6px;font-family:'NSimSun';" transform="matrix(&st16;  823.57  179.95 )">25</text><text style="font-size:6px;font-family:'NSimSun';" transform="matrix(&st16;  860.67  179.95 )">7</text><text style="font-size:6px;font-family:'NSimSun';" transform="matrix(&st16;  891.56  179.95 )">17</text><text style="font-size:6px;font-family:'NSimSun';" transform="matrix(&st16;  347.65  179.95 )">11</text><text style="font-size:6px;font-family:'NSimSun';" transform="matrix(&st16;  962.65  179.95 )">9</text><text style="font-size:6px;font-family:'NSimSun';" transform="matrix(&st16;  313.66  179.95 )">21</text><text style="font-size:6px;font-family:'NSimSun';" transform="matrix(&st16;  424.14  179.95 )">10</text><text style="font-size:6px;font-family:'NSimSun';" transform="matrix(&st16;  563.22  179.95 )">5</text><g ewd:figtype="title"><text style="font-size:6px;font-family:'NSimSun';" transform="matrix(&st16;  311.03  33.47 )">E25</text><text style="font-size:6px;font-family:'NSimSun';" transform="matrix(&st16;  311.04  40.58 )" ewd:textID="10">车外后视镜开关总成</text></g></g><g ewd:figtype="conn" ewd:figID="3" ewd:code="E71"><path style="stroke-width: 1.42 ;&st7;  " d=" M   424.93,   324.73  L   441.93,   324.73  L   441.93,   341.73  L   424.93,   341.73  L   424.93,   324.73  " /><path style="stroke-width: 0.85 ;&st7;  " d=" M   433.43,   324.73  L   433.43,   341.73  " /><text style="font-size:6px;font-family:'NSimSun';" transform="matrix(&st16;  424.14  349.92 )">12</text><text style="font-size:6px;font-family:'NSimSun';" transform="matrix(&st16;  424.14  321.04 )">17</text><g ewd:figtype="title"><text style="font-size:6px;font-family:'NSimSun';" transform="matrix(&st17;  456.64  344.63 )" ewd:textID="9">4 号接线连接器</text><text style="font-size:6px;font-family:'NSimSun';" transform="matrix(&st17;  449.82  344.63 )">E71</text></g></g><g ewd:figtype="jb" ewd:figID="8" ewd:code="3"><path style="stroke-width: 1.42 ;&st7;  " d=" M   231.59,    95.27  L   227.34,    95.27  " /><path style="stroke-width: 1.42 ;&st7;  " d=" M   231.59,   103.77  L   227.34,   103.77  " /><path style="stroke-width: 0.85 ;&st7;  " d=" M   161.47,    69.77  L   161.47,    78.27  " /><path style="stroke-width: 1.42 ;&st7;  " d=" M   163.60,   103.77  L   159.35,   103.77  " /><path style="stroke-width: 1.42 ;&st7;  " d=" M   163.60,    95.27  L   159.35,    95.27  " /><path style="stroke-width: 0.85 ;&st7;  " d=" M   229.46,    69.77  L   229.46,    78.27  " /><path style="stroke-width: 1.42 ;&st7;   " d=" M   223.09,    99.52  C   223.09    101.87    224.99    103.77    227.34    103.77  " /><path style="stroke-width: 1.42 ;&st7;   " d=" M   231.59,   103.77  C   233.93    103.77    235.84    101.87    235.84     99.52  " /><path style="stroke-width: 1.42 ;&st7;   " d=" M   235.84,    99.52  C   235.84     97.17    233.93     95.27    231.59     95.27  " /><path style="stroke-width: 1.42 ;&st7;   " d=" M   161.47,    66.94  C   164.21     65.33    165.12     61.80    163.51     59.06  " /><path style="stroke-width: 1.42 ;&st7;   " d=" M   163.51,    59.06  C   162.99     58.18    162.35     57.55    161.47     57.03  " /><path style="stroke-width: 0.85 ;&st7;   " d=" M   162.89,    68.36  C   162.89     67.57    162.26     66.94    161.47     66.94  " /><path style="stroke-width: 0.85 ;&st7;   " d=" M   161.47,    66.94  C   160.69     66.94    160.06     67.57    160.06     68.36  " /><path style="stroke-width: 0.85 ;&st7;   " d=" M   160.06,    68.36  C   160.06     69.14    160.69     69.77    161.47     69.77  " /><path style="stroke-width: 0.85 ;&st7;   " d=" M   161.47,    69.77  C   162.26     69.77    162.89     69.14    162.89     68.36  " /><path style="stroke-width: 0.85 ;&st7;   " d=" M   162.89,    45.69  C   162.89     44.91    162.26     44.28    161.47     44.28  " /><path style="stroke-width: 0.85 ;&st7;   " d=" M   161.47,    44.28  C   160.69     44.28    160.06     44.91    160.06     45.69  " /><path style="stroke-width: 0.85 ;&st7;   " d=" M   160.06,    45.69  C   160.06     46.48    160.69     47.11    161.47     47.11  " /><path style="stroke-width: 0.85 ;&st7;   " d=" M   161.47,    47.11  C   162.26     47.11    162.89     46.48    162.89     45.69  " /><path style="stroke-width: 1.42 ;&st7;   " d=" M   159.35,    95.27  C   157.00     95.27    155.10     97.17    155.10     99.52  " /><path style="stroke-width: 1.42 ;&st7;   " d=" M   167.85,    99.52  C   167.85     97.17    165.94     95.27    163.60     95.27  " /><path style="stroke-width: 1.42 ;&st7;   " d=" M   163.60,   103.77  C   165.94    103.77    167.85    101.87    167.85     99.52  " /><path style="stroke-width: 1.42 ;&st7;   " d=" M   155.10,    99.52  C   155.10    101.87    157.00    103.77    159.35    103.77  " /><path style="stroke-width: 1.42 ;&st7;   " d=" M   161.47,    47.11  C   158.74     48.72    157.82     52.25    159.44     54.99  " /><path style="stroke-width: 1.42 ;&st7;   " d=" M   159.44,    54.99  C   159.96     55.87    160.59     56.51    161.47     57.03  " /><path style="stroke-width: 1.42 ;&st7;   " d=" M   227.34,    95.27  C   224.99     95.27    223.09     97.17    223.09     99.52  " /><path style="stroke-width: 0.85 ;&st7;   " d=" M   230.88,    45.69  C   230.88     44.91    230.24     44.28    229.46     44.28  " /><path style="stroke-width: 0.85 ;&st7;   " d=" M   229.46,    44.28  C   228.68     44.28    228.05     44.91    228.05     45.69  " /><path style="stroke-width: 0.85 ;&st7;   " d=" M   228.05,    45.69  C   228.05     46.48    228.68     47.11    229.46     47.11  " /><path style="stroke-width: 0.85 ;&st7;   " d=" M   229.46,    47.11  C   230.24     47.11    230.88     46.48    230.88     45.69  " /><path style="stroke-width: 0.85 ;&st7;   " d=" M   230.88,    68.36  C   230.88     67.57    230.24     66.94    229.46     66.94  " /><path style="stroke-width: 0.85 ;&st7;   " d=" M   229.46,    66.94  C   228.68     66.94    228.05     67.57    228.05     68.36  " /><path style="stroke-width: 0.85 ;&st7;   " d=" M   228.05,    68.36  C   228.05     69.14    228.68     69.77    229.46     69.77  " /><path style="stroke-width: 0.85 ;&st7;   " d=" M   229.46,    69.77  C   230.24     69.77    230.88     69.14    230.88     68.36  " /><path style="stroke-width: 1.42 ;&st7;   " d=" M   229.46,    66.94  C   232.20     65.33    233.11     61.80    231.50     59.06  " /><path style="stroke-width: 1.42 ;&st7;   " d=" M   231.50,    59.06  C   230.98     58.18    230.34     57.55    229.46     57.03  " /><path style="stroke-width: 1.42 ;&st7;   " d=" M   229.46,    47.11  C   226.72     48.72    225.81     52.25    227.42     54.99  " /><path style="stroke-width: 1.42 ;&st7;   " d=" M   227.42,    54.99  C   227.94     55.87    228.58     56.51    229.46     57.03  " /><path style="stroke-width: 1.42 ;&st7;  " d=" M   216.71,    35.78  L   216.71,    78.27  L   242.21,    78.27  L   242.21,    35.78  L   216.71,    35.78  " /><path style="stroke-width: 0.28 ;&st9;  " d=" M   161.47,    90.37  L   158.64,    87.54  L   158.64,    91.79  L   161.47,    94.62  L   164.31,    91.79  L   164.31,    87.54  L   161.47,    90.37  " /><path style="stroke-width: 0.85 ;&st7;  " d=" M   161.47,    78.27  L   161.47,    95.27  " /><path style="stroke-width: 1.42 ;&st7;  " d=" M   148.73,    35.78  L   148.73,    78.27  L   174.22,    78.27  L   174.22,    35.78  L   148.73,    35.78  " /><path style="stroke-width: 0.85 ;&st7;  " d=" M   229.46,    78.27  L   229.46,    95.27  " /><path style="stroke-width: 0.28 ;&st9;  " d=" M   229.46,    90.37  L   226.63,    87.54  L   226.63,    91.79  L   229.46,    94.62  L   232.29,    91.79  L   232.29,    87.54  L   229.46,    90.37  " /><text style="font-size:6px;font-family:'NSimSun';" transform="matrix(&st16;  245.89  56.17 )">7.5A <tspan x="0 " dy="6.0">ACC</tspan></text><text style="font-size:6px;font-family:'NSimSun';" transform="matrix(&st16;  220.95  32.08 )">(ACC)</text><text style="font-size:6px;font-family:'NSimSun';" transform="matrix(&st16;  157.5  101.49 )">3C</text><text style="font-size:6px;font-family:'NSimSun';" transform="matrix(&st16;  147.86  101.49 )">37</text><text style="font-size:6px;font-family:'NSimSun';" transform="matrix(&st16;  156.26  32.08 )">(IG)</text><text style="font-size:6px;font-family:'NSimSun';" transform="matrix(&st16;  177.9  53.34 )">7.5A <tspan x="0 " dy="6.0">ECU-IG </tspan><tspan x="0 " dy="6.0">NO.4</tspan></text><text style="font-size:6px;font-family:'NSimSun';" transform="matrix(&st16;  215.85  101.49 )">32</text><text style="font-size:6px;font-family:'NSimSun';" transform="matrix(&st16;  225.53  101.49 )">3D</text><text style="font-size:6px;font-family:'NSimSun';" transform="matrix(&st16;  155.29  86.47 )">2</text><text style="font-size:6px;font-family:'NSimSun';" transform="matrix(&st16;  223.28  86.47 )">2</text></g><g ewd:figtype="jb" ewd:figID="9" ewd:code="3"><path style="stroke-width: 1.42 ;&st7;  " d=" M    87.11,   171.76  L    82.86,   171.76  " /><path style="stroke-width: 1.42 ;&st7;  " d=" M    87.11,   180.26  L    82.86,   180.26  " /><path style="stroke-width: 1.42 ;&st7;  " d=" M    87.11,   214.25  L    82.86,   214.25  " /><path style="stroke-width: 1.42 ;&st7;  " d=" M    87.11,   222.75  L    82.86,   222.75  " /><path style="stroke-width: 1.42 ;&st7;   " d=" M    82.86,   171.76  C    80.51    171.76     78.61    173.66     78.61    176.01  " /><path style="stroke-width: 1.42 ;&st7;   " d=" M    78.61,   176.01  C    78.61    178.35     80.51    180.26     82.86    180.26  " /><path style="stroke-width: 1.42 ;&st7;   " d=" M    87.11,   180.26  C    89.46    180.26     91.36    178.35     91.36    176.01  " /><path style="stroke-width: 1.42 ;&st7;   " d=" M    91.36,   176.01  C    91.36    173.66     89.46    171.76     87.11    171.76  " /><path style="stroke-width: 1.42 ;&st7;   " d=" M    82.86,   214.25  C    80.51    214.25     78.61    216.15     78.61    218.50  " /><path style="stroke-width: 1.42 ;&st7;   " d=" M    78.61,   218.50  C    78.61    220.85     80.51    222.75     82.86    222.75  " /><path style="stroke-width: 1.42 ;&st7;   " d=" M    87.11,   222.75  C    89.46    222.75     91.36    220.85     91.36    218.50  " /><path style="stroke-width: 1.42 ;&st7;   " d=" M    91.36,   218.50  C    91.36    216.15     89.46    214.25     87.11    214.25  " /><path style="stroke-width: 0.28 ;&st9;  " d=" M    84.99,   185.15  L    87.82,   187.98  L    87.82,   183.73  L    84.99,   180.90  L    82.15,   183.73  L    82.15,   187.98  L    84.99,   185.15  " /><path style="stroke-width: 0.28 ;&st9;  " d=" M    84.99,   209.35  L    82.15,   206.52  L    82.15,   210.77  L    84.99,   213.60  L    87.82,   210.77  L    87.82,   206.52  L    84.99,   209.35  " /><path style="stroke-width: 0.85 ;&st7;  " d=" M    84.99,   214.25  L    84.99,   180.26  " /><text style="font-size:6px;font-family:'NSimSun';" transform="matrix(&st16;  81.13  177.98 )">3A</text><text style="font-size:6px;font-family:'NSimSun';" transform="matrix(&st16;  71.38  177.98 )">44</text><text style="font-size:6px;font-family:'NSimSun';" transform="matrix(&st16;  81.05  220.47 )">3D</text><text style="font-size:6px;font-family:'NSimSun';" transform="matrix(&st16;  71.38  220.47 )">35</text></g><g ewd:figtype="gp" ewd:figID="22" ewd:code="ED"><path style="stroke-width: 0.85 ;&st7;  " d=" M   433.43,   697.25  L   433.43,   701.50  " /><path style="stroke-width: 0.85 ;&st7;  " d=" M   424.93,   701.50  L   441.93,   701.50  " /><path style="stroke-width: 0.85 ;&st7;  " d=" M   429.18,   704.33  L   437.68,   704.33  " /><path style="stroke-width: 0.85 ;&st7;  " d=" M   430.59,   707.17  L   436.26,   707.17  " /><path style="stroke-width: 0.85 ;&st7;  " d=" M   432.01,   710.00  L   434.84,   710.00  " /></g></svg>