<?xml version="1.0" encoding="utf-8"?>
<!DOCTYPE svg PUBLIC "-//W3C//DTD SVG 1.0//EN" "http://www.w3.org/TR/2001/REC-SVG-20010904/DTD/svg10.dtd"[
	<!ENTITY ns_flows "http://ns.adobe.com/Flows/1.0/">
	<!ENTITY ns_svg "http://www.w3.org/2000/svg">
	<!ENTITY ns_xlink "http://www.w3.org/1999/xlink">
	<!ENTITY st0 "font-size:7px;font-family:'NSimSun';adobe-font-script:japanese;">
	<!ENTITY st1 "font-size:6px;font-family:'NSimSun';">
	<!-- White fill  -->
	<!ENTITY st2 "fill:#FFFFFF;stroke:#000000; stroke-width:1.41;stroke-linecap:round;stroke-linejoin:round;">
	<!-- Yellow fill  -->
	<!ENTITY st3 "fill:#FFFFCC;stroke:#FFFFCC; stroke-width:0.1;stroke-linecap:round;stroke-linejoin:round;">
	<!-- Gray fill  -->
	<!ENTITY st4 "fill:#CCCCCC;stroke:#CCCCCC; stroke-width:0.1;stroke-linecap:round;stroke-linejoin:round;">
	<!-- Light-blue fill -->
	<!ENTITY st5 "fill:#CCECF4;stroke:#000000; stroke-width:1.133;stroke-linecap:round;stroke-linejoin:round;">
	<!ENTITY st6 "fill:none;stroke-linecap:butt; stroke-linejoin:round;">
	<!ENTITY st7 "fill:none;stroke:#000000;stroke-linecap:round;stroke-linejoin:round;">
	<!ENTITY st8 "enable-background:new    ;">
	<!-- Black fill -->
	<!ENTITY st9 "fill:#000000;stroke:#000000; stroke-linecap:round;stroke-linejoin:round;">
	<!-- SRS note   -->
	<!ENTITY st10 "font-size:9px;font-family:'NSimSun';">
	<!ENTITY st11 "font-size:9px;font-family:'NSimSun';">
	<!ENTITY st12 "font-size:6px;font-family:'NSimSun';">
	<!ENTITY st13 "fill:none;stroke:#ff0000;stroke-linecap:round;stroke-linejoin:round;">
	<!-- Yellow fill  -->
	<!ENTITY st14 "fill:#FFFF00;stroke:#FFFF00; stroke-width:0.1;stroke-linecap:round;stroke-linejoin:round;">
	<!ENTITY st15 "font-size:6px;font-family:'NSimSun';adobe-font-script:japanese;">
	<!ENTITY st16 "1.00 0.00 0.00 1.00">
	<!ENTITY st17 "0.00 -1.00 1.00 0.00">
	<!ENTITY st18 "font-size:6px;font-family:'NSimSun';">
	<!ENTITY st19 "font-size:9px;font-family:'NSimSun';">
	<!ENTITY st20 "font-size:6px;font-family:'NSimSun';adobe-font-script:japanese;">
	<!ENTITY st21 "font-size:7px;font-family:'NSimSun';adobe-font-script:japanese;">
	<!ATTLIST svg
		xmlns:ewd CDATA #FIXED "http://shcl.co.jp/ewd"
		xmlns:a CDATA #FIXED "http://ns.adobe.com/AdobeSVGViewerExtensions/3.0/"
		ewd:ver CDATA #IMPLIED
	>
	<!ATTLIST a
		ewd:lineID CDATA #IMPLIED
		ewd:groupID CDATA #IMPLIED
		ewd:figtype CDATA #IMPLIED
		ewd:code CDATA #IMPLIED
		ewd:figID CDATA #IMPLIED
		ewd:pinNo CDATA #IMPLIED
		ewd:comment CDATA #IMPLIED >
	<!ATTLIST g
		ewd:lineID CDATA #IMPLIED
		ewd:groupID CDATA #IMPLIED
		ewd:figtype CDATA #IMPLIED
		ewd:code CDATA #IMPLIED
		ewd:figID CDATA #IMPLIED
		ewd:pinNo CDATA #IMPLIED
		ewd:comment CDATA #IMPLIED >
	<!ATTLIST text
		ewd:textID CDATA #IMPLIED
		ewd:horAlign CDATA #IMPLIED >
	<!ATTLIST title
		ewd:textID CDATA #IMPLIED >
]>
<!-- Generator: Shintec Hozumi YS   -->
<svg onload="call_execInitLoadProc_svg('system')" style="overflow:visible;  enable-background:new 0 0 1915.255 710.000" viewBox="0 0 1867.804 710.000" height="710.000" width="1867.804" xml:space="preserve" ewd:ver="2.1.2.6F" xmlns="&ns_svg;" xmlns:ewd="http://shcl.co.jp/ewd" xmlns:a="http://ns.adobe.com/AdobeSVGViewerExtensions/3.0/" xmlns:xlink="&ns_xlink;">
<path style="stroke-width: 1.42 ;&st7;  " d=" M  1521.25,   610.16  L  1516.27,   605.18  " /><path style="stroke-width: 1.42 ;&st7;  " d=" M  1504.25,   617.21  L  1509.22,   622.18  " /><path style="stroke-width: 1.42 ;&st7;  " d=" M  1516.27,   622.18  L  1521.25,   617.21  " /><path style="stroke-width: 1.42 ;&st7;  " d=" M  1509.22,   605.18  L  1504.25,   610.16  " /><text style="font-size:6px;font-family:'NSimSun';" transform="matrix(&st17;  1509.05  489.44 )">SB</text><text style="font-size:6px;font-family:'NSimSun';" transform="matrix(&st17;  1509.05  361.97 )">SB</text><text style="font-size:6px;font-family:'NSimSun';" transform="matrix(&st17;  1509.05  598.39 )">W-B</text><text style="font-size:6px;font-family:'NSimSun';" transform="matrix(&st17;  1509.05  662.13 )">W-B</text><text style="font-size:6px;font-family:'NSimSun';" transform="matrix(&st17;  1611.04  662.13 )">W-B</text><text style="font-size:6px;font-family:'NSimSun';" transform="matrix(&st17;  1611.04  181.96 )">W-B</text><text style="font-size:6px;font-family:'NSimSun';" transform="matrix(&st17;  1653.53  662.13 )">W-B</text><text style="font-size:6px;font-family:'NSimSun';" transform="matrix(&st17;  1653.53  181.96 )">W-B</text><text style="font-size:6px;font-family:'NSimSun';" transform="matrix(&st16;  1577.33  32.08 )" ewd:textID="17">主车身 ECU</text><text style="font-size:6px;font-family:'NSimSun';" transform="matrix(&st16;  1577.32  24.98 )">E36(A)</text><g ewd:figtype="conn" ewd:figID="1" ewd:code="E36"><g ewd:lineID="35"><text style="font-size:6px;font-family:'NSimSun';" transform="matrix(&st16;  1606.53  83.07 )">GND1</text></g></g><g ewd:figtype="conn" ewd:figID="2" ewd:code="L54,L55"><path style="stroke-width: 1.42 ;&st7;  " d=" M  1504.25,   435.21  L  1504.25,   452.21  L  1521.25,   452.21  L  1521.25,   435.21  L  1504.25,   435.21  " /><path style="stroke-width: 0.85 ;&st7;  " d=" M  1512.75,   435.21  L  1512.75,   452.21  " /><text style="font-size:6px;font-family:'NSimSun';" transform="matrix(&st16;  1504.05  458.71 )">1</text><path style="stroke-width: 1.42 ;&st7;   " d=" M  1517.28,   456.74  C  1517.28    454.24   1515.25    452.21   1512.75    452.21  " /><path style="stroke-width: 1.42 ;&st7;   " d=" M  1512.75,   452.21  C  1510.24    452.21   1508.21    454.24   1508.21    456.74  " /><path style="stroke-width: 1.42 ;&st7;   " d=" M  1508.21,   456.74  C  1508.21    459.25   1510.24    461.27   1512.75    461.27  " /><path style="stroke-width: 1.42 ;&st7;   " d=" M  1512.75,   461.27  C  1515.25    461.27   1517.28    459.25   1517.28    456.74  " /><text style="font-size:6px;font-family:'NSimSun';" transform="matrix(&st16;  1510.56  458.71 )">B</text><text style="font-size:6px;font-family:'NSimSun';" transform="matrix(&st16;  1500.95  432.65 )">11</text><path style="stroke-width: 1.42 ;&st7;   " d=" M  1517.28,   430.68  C  1517.28    428.18   1515.25    426.15   1512.75    426.15  " /><path style="stroke-width: 1.42 ;&st7;   " d=" M  1512.75,   426.15  C  1510.24    426.15   1508.21    428.18   1508.21    430.68  " /><path style="stroke-width: 1.42 ;&st7;   " d=" M  1508.21,   430.68  C  1508.21    433.18   1510.24    435.21   1512.75    435.21  " /><path style="stroke-width: 1.42 ;&st7;   " d=" M  1512.75,   435.21  C  1515.25    435.21   1517.28    433.18   1517.28    430.68  " /><text style="font-size:6px;font-family:'NSimSun';" transform="matrix(&st16;  1510.44  432.65 )">A</text><g ewd:figtype="title"><text style="font-size:6px;font-family:'NSimSun';" transform="matrix(&st17;  1535.96  455.12 )" ewd:textID="19">7 号接线连接器</text><text style="font-size:6px;font-family:'NSimSun';" transform="matrix(&st17;  1529.14  455.11 )">L54(A),L55(B)</text></g></g><g ewd:figtype="jb" ewd:figID="17" ewd:code="3"><path style="stroke-width: 1.42 ;&st7;  " d=" M  1616.85,   129.26  L  1612.61,   129.26  " /><path style="stroke-width: 1.42 ;&st7;  " d=" M  1616.85,   120.77  L  1612.61,   120.77  " /><path style="stroke-width: 1.42 ;&st7;  " d=" M  1659.35,   129.26  L  1655.10,   129.26  " /><path style="stroke-width: 1.42 ;&st7;  " d=" M  1659.35,   120.77  L  1655.10,   120.77  " /><path style="stroke-width: 1.42 ;&st7;   " d=" M  1621.10,   125.01  C  1621.10    122.67   1619.20    120.77   1616.85    120.77  " /><path style="stroke-width: 1.42 ;&st7;   " d=" M  1616.85,   129.26  C  1619.20    129.26   1621.10    127.36   1621.10    125.01  " /><path style="stroke-width: 1.42 ;&st7;   " d=" M  1608.36,   125.01  C  1608.36    127.36   1610.26    129.26   1612.61    129.26  " /><path style="stroke-width: 1.42 ;&st7;   " d=" M  1612.61,   120.77  C  1610.26    120.77   1608.36    122.67   1608.36    125.01  " /><path style="stroke-width: 1.42 ;&st7;   " d=" M  1655.10,   120.77  C  1652.75    120.77   1650.85    122.67   1650.85    125.01  " /><path style="stroke-width: 1.42 ;&st7;   " d=" M  1650.85,   125.01  C  1650.85    127.36   1652.75    129.26   1655.10    129.26  " /><path style="stroke-width: 1.42 ;&st7;   " d=" M  1659.35,   129.26  C  1661.69    129.26   1663.60    127.36   1663.60    125.01  " /><path style="stroke-width: 1.42 ;&st7;   " d=" M  1663.60,   125.01  C  1663.60    122.67   1661.69    120.77   1659.35    120.77  " /><path style="stroke-width: 0.85 ;&st7;  " d=" M  1614.73,    86.77  L  1614.73,   120.77  " /><path style="stroke-width: 0.28 ;&st9;  " d=" M  1614.73,   115.87  L  1611.90,   113.04  L  1611.90,   117.29  L  1614.73,   120.12  L  1617.56,   117.29  L  1617.56,   113.04  L  1614.73,   115.87  " /><path style="stroke-width: 0.28 ;&st9;  " d=" M  1657.22,   115.87  L  1654.39,   113.04  L  1654.39,   117.29  L  1657.22,   120.12  L  1660.06,   117.29  L  1660.06,   113.04  L  1657.22,   115.87  " /><path style="stroke-width: 0.85 ;&st7;  " d=" M  1657.22,   120.77  L  1657.22,   103.77  L  1614.73,   103.77  " /><path style="stroke-width: 0.85 ;&st7;  " d=" M  1613.54,   102.77  L  1613.26,   103.24  L  1613.17,   103.77  L  1613.26,   104.30  L  1613.54,   104.77  L  1613.95,   105.12  L  1614.46,   105.30  L  1615.00,   105.30  L  1615.51,   105.12  L  1615.92,   104.77  L  1616.19,   104.30  L  1616.29,   103.77  L  1616.19,   103.24  L  1615.92,   102.77  L  1615.51,   102.42  L  1615.00,   102.23  L  1614.46,   102.23  L  1613.95,   102.42  L  1613.54,   102.77  L  1613.93,   103.48  L  1613.93,   104.06  L  1614.30,   104.50  L  1614.88,   104.60  L  1615.38,   104.31  L  1615.58,   103.77  L  1615.38,   103.22  L  1614.88,   102.93  L  1614.30,   103.03  L  1614.73,   103.77  " /><text style="font-size:6px;font-family:'NSimSun';" transform="matrix(&st16;  1605.44  94.96 )">11</text><text style="font-size:6px;font-family:'NSimSun';" transform="matrix(&st16;  1601.12  126.98 )">12</text><text style="font-size:6px;font-family:'NSimSun';" transform="matrix(&st16;  1610.8  126.98 )">3D</text><text style="font-size:6px;font-family:'NSimSun';" transform="matrix(&st16;  1646.72  126.98 )">9</text><text style="font-size:6px;font-family:'NSimSun';" transform="matrix(&st16;  1653.25  126.98 )">3C</text></g><g ewd:figtype="gp" ewd:figID="26" ewd:code="LA"><path style="stroke-width: 0.85 ;&st7;  " d=" M  1512.75,   697.25  L  1512.75,   701.50  " /><path style="stroke-width: 0.85 ;&st7;  " d=" M  1504.25,   701.50  L  1521.25,   701.50  " /><path style="stroke-width: 0.85 ;&st7;  " d=" M  1508.50,   704.33  L  1517.00,   704.33  " /><path style="stroke-width: 0.85 ;&st7;  " d=" M  1509.91,   707.17  L  1515.58,   707.17  " /><path style="stroke-width: 0.85 ;&st7;  " d=" M  1511.33,   710.00  L  1514.16,   710.00  " /></g><g ewd:figtype="gp" ewd:figID="27" ewd:code="EB"><path style="stroke-width: 0.85 ;&st7;  " d=" M  1614.73,   697.25  L  1614.73,   701.50  " /><path style="stroke-width: 0.85 ;&st7;  " d=" M  1606.23,   701.50  L  1623.23,   701.50  " /><path style="stroke-width: 0.85 ;&st7;  " d=" M  1610.48,   704.33  L  1618.98,   704.33  " /><path style="stroke-width: 0.85 ;&st7;  " d=" M  1611.90,   707.17  L  1617.56,   707.17  " /><path style="stroke-width: 0.85 ;&st7;  " d=" M  1613.31,   710.00  L  1616.15,   710.00  " /></g><g ewd:figtype="gp" ewd:figID="28" ewd:code="EA"><path style="stroke-width: 0.85 ;&st7;  " d=" M  1657.22,   697.25  L  1657.22,   701.50  " /><path style="stroke-width: 0.85 ;&st7;  " d=" M  1648.72,   701.50  L  1665.72,   701.50  " /><path style="stroke-width: 0.85 ;&st7;  " d=" M  1652.97,   704.33  L  1661.47,   704.33  " /><path style="stroke-width: 0.85 ;&st7;  " d=" M  1654.39,   707.17  L  1660.06,   707.17  " /><path style="stroke-width: 0.85 ;&st7;  " d=" M  1655.81,   710.00  L  1658.64,   710.00  " /></g><g ewd:code="5" ewd:figID="44" ewd:comment="" ewd:figtype="comment"><text style="font-size:6px;font-family:'NSimSun';" transform="matrix(&st16;  1781.3  63.24 )" ewd:textID="4">* 5 : 不带车灯自动熄灭系统</text></g><g ewd:code="6" ewd:figID="46" ewd:comment="" ewd:figtype="comment"><text style="font-size:6px;font-family:'NSimSun';" transform="matrix(&st16;  1781.3  71.74 )" ewd:textID="5">* 6 : 带 TFT 显示屏</text></g><g ewd:code="4" ewd:figID="43" ewd:comment="" ewd:figtype="comment"><text style="font-size:6px;font-family:'NSimSun';" transform="matrix(&st16;  1781.3  54.75 )" ewd:textID="3">* 4 : 带车灯自动熄灭系统</text></g><g ewd:code="7" ewd:figID="45" ewd:comment="" ewd:figtype="comment"><text style="font-size:6px;font-family:'NSimSun';" transform="matrix(&st16;  1781.3  80.24 )" ewd:textID="6">* 7 : 不带 TFT 显示屏</text></g></svg>