<?xml version="1.0" encoding="utf-8"?>
<!DOCTYPE svg PUBLIC "-//W3C//DTD SVG 1.0//EN" "http://www.w3.org/TR/2001/REC-SVG-20010904/DTD/svg10.dtd"[
	<!ENTITY ns_flows "http://ns.adobe.com/Flows/1.0/">
	<!ENTITY ns_svg "http://www.w3.org/2000/svg">
	<!ENTITY ns_xlink "http://www.w3.org/1999/xlink">
	<!ENTITY st0 "font-size:7px;font-family:'NSimSun';adobe-font-script:japanese;">
	<!ENTITY st1 "font-size:6px;font-family:'NSimSun';">
	<!-- White fill  -->
	<!ENTITY st2 "fill:#FFFFFF;stroke:#000000; stroke-width:1.41;stroke-linecap:round;stroke-linejoin:round;">
	<!-- Yellow fill  -->
	<!ENTITY st3 "fill:#FFFFCC;stroke:#FFFFCC; stroke-width:0.1;stroke-linecap:round;stroke-linejoin:round;">
	<!-- Gray fill  -->
	<!ENTITY st4 "fill:#CCCCCC;stroke:#CCCCCC; stroke-width:0.1;stroke-linecap:round;stroke-linejoin:round;">
	<!-- Light-blue fill -->
	<!ENTITY st5 "fill:#CCECF4;stroke:#000000; stroke-width:1.133;stroke-linecap:round;stroke-linejoin:round;">
	<!ENTITY st6 "fill:none;stroke-linecap:butt; stroke-linejoin:round;">
	<!ENTITY st7 "fill:none;stroke:#000000;stroke-linecap:round;stroke-linejoin:round;">
	<!ENTITY st8 "enable-background:new    ;">
	<!-- Black fill -->
	<!ENTITY st9 "fill:#000000;stroke:#000000; stroke-linecap:round;stroke-linejoin:round;">
	<!-- SRS note   -->
	<!ENTITY st10 "font-size:9px;font-family:'NSimSun';">
	<!ENTITY st11 "font-size:9px;font-family:'NSimSun';">
	<!ENTITY st12 "font-size:6px;font-family:'NSimSun';">
	<!ENTITY st13 "fill:none;stroke:#ff0000;stroke-linecap:round;stroke-linejoin:round;">
	<!-- Yellow fill  -->
	<!ENTITY st14 "fill:#FFFF00;stroke:#FFFF00; stroke-width:0.1;stroke-linecap:round;stroke-linejoin:round;">
	<!ENTITY st15 "font-size:6px;font-family:'NSimSun';adobe-font-script:japanese;">
	<!ENTITY st16 "1.00 0.00 0.00 1.00">
	<!ENTITY st17 "0.00 -1.00 1.00 0.00">
	<!ENTITY st18 "font-size:6px;font-family:'NSimSun';">
	<!ENTITY st19 "font-size:9px;font-family:'NSimSun';">
	<!ENTITY st20 "font-size:6px;font-family:'NSimSun';adobe-font-script:japanese;">
	<!ENTITY st21 "font-size:7px;font-family:'NSimSun';adobe-font-script:japanese;">
	<!ATTLIST svg
		xmlns:ewd CDATA #FIXED "http://shcl.co.jp/ewd"
		xmlns:a CDATA #FIXED "http://ns.adobe.com/AdobeSVGViewerExtensions/3.0/"
		ewd:ver CDATA #IMPLIED
	>
	<!ATTLIST a
		ewd:lineID CDATA #IMPLIED
		ewd:groupID CDATA #IMPLIED
		ewd:figtype CDATA #IMPLIED
		ewd:code CDATA #IMPLIED
		ewd:figID CDATA #IMPLIED
		ewd:pinNo CDATA #IMPLIED
		ewd:comment CDATA #IMPLIED >
	<!ATTLIST g
		ewd:lineID CDATA #IMPLIED
		ewd:groupID CDATA #IMPLIED
		ewd:figtype CDATA #IMPLIED
		ewd:code CDATA #IMPLIED
		ewd:figID CDATA #IMPLIED
		ewd:pinNo CDATA #IMPLIED
		ewd:comment CDATA #IMPLIED >
	<!ATTLIST text
		ewd:textID CDATA #IMPLIED
		ewd:horAlign CDATA #IMPLIED >
	<!ATTLIST title
		ewd:textID CDATA #IMPLIED >
]>
<!-- Generator: Shintec Hozumi YS   -->
<svg onload="call_execInitLoadProc_svg('system')" style="overflow:visible;  enable-background:new 0 0 2043.031 710.000" viewBox="0 0 2047.151 710.000" height="710.000" width="2047.151" xml:space="preserve" ewd:ver="2.1.2.6F" xmlns="&ns_svg;" xmlns:ewd="http://shcl.co.jp/ewd" xmlns:a="http://ns.adobe.com/AdobeSVGViewerExtensions/3.0/" xmlns:xlink="&ns_xlink;">
<text style="font-size:6px;font-family:'NSimSun';" transform="matrix(&st17;  30.3  130.12 )">R-B</text><text style="font-size:6px;font-family:'NSimSun';" transform="matrix(&st16;  58.14  168.06 )">R-B</text><text style="font-size:6px;font-family:'NSimSun';" transform="matrix(&st16;  108.29  329.53 )">B</text><text style="font-size:6px;font-family:'NSimSun';" transform="matrix(&st17;  472.22  165.22 )">G</text><text style="font-size:6px;font-family:'NSimSun';" transform="matrix(&st17;  149.28  131.22 )">G</text><text style="font-size:6px;font-family:'NSimSun';" transform="matrix(&st16;  337.87  151.06 )">L</text><text style="font-size:6px;font-family:'NSimSun';" transform="matrix(&st16;  490.73  329.53 )">B</text><g ewd:figtype="rb" ewd:figID="3" ewd:code="1"><path style="stroke-width: 1.42 ;&st7;  " d=" M    53.12,   197.25  L    48.87,   197.25  " /><path style="stroke-width: 1.42 ;&st7;  " d=" M    53.12,   205.75  L    48.87,   205.75  " /><path style="stroke-width: 1.42 ;&st7;  " d=" M    78.61,   197.25  L    74.36,   197.25  " /><path style="stroke-width: 1.42 ;&st7;  " d=" M    78.61,   205.75  L    74.36,   205.75  " /><path style="stroke-width: 1.42 ;&st7;  " d=" M    78.61,   290.74  L    74.36,   290.74  " /><path style="stroke-width: 1.42 ;&st7;  " d=" M    78.61,   299.24  L    74.36,   299.24  " /><path style="stroke-width: 1.42 ;&st7;   " d=" M    48.87,   197.25  C    46.52    197.25     44.62    199.15     44.62    201.50  " /><path style="stroke-width: 1.42 ;&st7;   " d=" M    44.62,   201.50  C    44.62    203.85     46.52    205.75     48.87    205.75  " /><path style="stroke-width: 1.42 ;&st7;   " d=" M    53.12,   205.75  C    55.46    205.75     57.37    203.85     57.37    201.50  " /><path style="stroke-width: 1.42 ;&st7;   " d=" M    57.37,   201.50  C    57.37    199.15     55.46    197.25     53.12    197.25  " /><path style="stroke-width: 1.42 ;&st7;   " d=" M    74.36,   197.25  C    72.02    197.25     70.11    199.15     70.11    201.50  " /><path style="stroke-width: 1.42 ;&st7;   " d=" M    70.11,   201.50  C    70.11    203.85     72.02    205.75     74.36    205.75  " /><path style="stroke-width: 1.42 ;&st7;   " d=" M    78.61,   205.75  C    80.96    205.75     82.86    203.85     82.86    201.50  " /><path style="stroke-width: 1.42 ;&st7;   " d=" M    82.86,   201.50  C    82.86    199.15     80.96    197.25     78.61    197.25  " /><path style="stroke-width: 1.42 ;&st7;   " d=" M    74.36,   290.74  C    72.02    290.74     70.11    292.64     70.11    294.99  " /><path style="stroke-width: 1.42 ;&st7;   " d=" M    70.11,   294.99  C    70.11    297.33     72.02    299.24     74.36    299.24  " /><path style="stroke-width: 1.42 ;&st7;   " d=" M    78.61,   299.24  C    80.96    299.24     82.86    297.33     82.86    294.99  " /><path style="stroke-width: 1.42 ;&st7;   " d=" M    82.86,   294.99  C    82.86    292.64     80.96    290.74     78.61    290.74  " /><path style="stroke-width: 0.28 ;&st9;  " d=" M    50.99,   210.65  L    53.82,   213.48  L    53.82,   209.23  L    50.99,   206.40  L    48.16,   209.23  L    48.16,   213.48  L    50.99,   210.65  " /><path style="stroke-width: 0.28 ;&st9;  " d=" M    76.49,   210.65  L    79.32,   213.48  L    79.32,   209.23  L    76.49,   206.40  L    73.65,   209.23  L    73.65,   213.48  L    76.49,   210.65  " /><path style="stroke-width: 0.28 ;&st9;  " d=" M    76.49,   285.84  L    73.65,   283.01  L    73.65,   287.26  L    76.49,   290.09  L    79.32,   287.26  L    79.32,   283.01  L    76.49,   285.84  " /><path style="stroke-width: 0.85 ;&st7;  " d=" M    50.99,   205.75  L    50.99,   231.25  " /><path style="stroke-width: 0.85 ;&st7;  " d=" M    76.49,   205.75  L    76.49,   231.25  " /><path style="stroke-width: 0.85 ;&st7;  " d=" M    76.49,   265.24  L    76.49,   290.74  " /><path style="stroke-width: 0.85 ;&st7;  " d=" M    50.99,   265.24  L    50.99,   290.74  " /><text style="font-size:6px;font-family:'NSimSun';" transform="matrix(&st16;  87.25  247.39 )" ewd:textID="14">H-LP<tspan x="0 " dy="6.0">继电器</tspan></text><text style="font-size:6px;font-family:'NSimSun';" transform="matrix(&st16;  44.81  273.43 )">3</text><text style="font-size:6px;font-family:'NSimSun';" transform="matrix(&st16;  70.3  273.43 )">2</text><text style="font-size:6px;font-family:'NSimSun';" transform="matrix(&st16;  44.81  227.56 )">5</text><text style="font-size:6px;font-family:'NSimSun';" transform="matrix(&st16;  70.3  227.56 )">1</text><text style="font-size:6px;font-family:'NSimSun';" transform="matrix(&st16;  49.19  203.47 )">1</text><text style="font-size:6px;font-family:'NSimSun';" transform="matrix(&st16;  74.69  203.47 )">1</text><text style="font-size:6px;font-family:'NSimSun';" transform="matrix(&st16;  74.69  296.96 )">1</text><path style="stroke-width: 1.42 ;&st7;   " d=" M    43.51,   290.60  C    45.65    292.50     48.78    292.56     50.99    290.74  " /><path style="stroke-width: 1.42 ;&st7;   " d=" M    58.48,   290.88  C    56.33    288.97     53.20    288.92     50.99    290.74  " /><path style="stroke-width: 0.85 ;&st7;  " d=" M    50.99,   265.24  L    50.99,   260.99  " /><path style="stroke-width: 0.85 ;&st7;  " d=" M    50.99,   235.50  L    50.99,   231.25  " /><path style="stroke-width: 0.85 ;&st7;  " d=" M    76.49,   231.25  L    76.49,   239.75  " /><path style="stroke-width: 0.85 ;&st7;  " d=" M    76.49,   256.74  L    76.49,   265.24  " /><path style="stroke-width: 1.42 ;&st7;  " d=" M    50.99,   258.16  L    45.33,   235.50  " /><path style="stroke-width: 0.85 ;&st7;   " d=" M    52.41,   259.58  C    52.41    258.79     51.77    258.16     50.99    258.16  " /><path style="stroke-width: 0.85 ;&st7;   " d=" M    50.99,   258.16  C    50.21    258.16     49.58    258.79     49.58    259.58  " /><path style="stroke-width: 0.85 ;&st7;   " d=" M    49.58,   259.58  C    49.58    260.36     50.21    260.99     50.99    260.99  " /><path style="stroke-width: 0.85 ;&st7;   " d=" M    50.99,   260.99  C    51.77    260.99     52.41    260.36     52.41    259.58  " /><path style="stroke-width: 0.85 ;&st7;   " d=" M    52.41,   236.91  C    52.41    236.13     51.77    235.50     50.99    235.50  " /><path style="stroke-width: 0.85 ;&st7;   " d=" M    50.99,   235.50  C    50.21    235.50     49.58    236.13     49.58    236.91  " /><path style="stroke-width: 0.85 ;&st7;   " d=" M    49.58,   236.91  C    49.58    237.69     50.21    238.33     50.99    238.33  " /><path style="stroke-width: 0.85 ;&st7;   " d=" M    50.99,   238.33  C    51.77    238.33     52.41    237.69     52.41    236.91  " /><path style="stroke-width: 0.85 ;&st7;   " d=" M    73.96,   245.77  C    75.33    247.16     77.57    247.19     78.97    245.82  " /><path style="stroke-width: 0.85 ;&st7;   " d=" M    78.97,   245.82  C    80.36    244.45     80.39    242.20     79.02    240.81  " /><path style="stroke-width: 0.85 ;&st7;   " d=" M    79.02,   240.81  C    78.32    240.10     77.48    239.74     76.49    239.74  " /><path style="stroke-width: 0.85 ;&st7;   " d=" M    73.96,   250.72  C    75.33    252.12     77.57    252.14     78.97    250.77  " /><path style="stroke-width: 0.85 ;&st7;   " d=" M    78.97,   250.77  C    80.36    249.40     80.39    247.16     79.02    245.77  " /><path style="stroke-width: 0.85 ;&st7;   " d=" M    79.02,   245.77  C    77.65    244.37     75.41    244.35     74.01    245.71  " /><path style="stroke-width: 0.85 ;&st7;   " d=" M    74.01,   245.71  C    73.99    245.73     73.98    245.75     73.96    245.77  " /><path style="stroke-width: 0.85 ;&st7;   " d=" M    76.49,   256.74  C    78.44    256.74     80.03    255.16     80.03    253.20  " /><path style="stroke-width: 0.85 ;&st7;   " d=" M    80.03,   253.20  C    80.03    251.25     78.44    249.66     76.49    249.66  " /><path style="stroke-width: 0.85 ;&st7;   " d=" M    76.49,   249.66  C    75.50    249.66     74.65    250.02     73.96    250.72  " /><path style="stroke-width: 1.42 ;&st7;  " d=" M    84.99,   231.25  L    42.49,   231.25  L    42.49,   265.24  L    84.99,   265.24  L    84.99,   231.25  " /></g><g ewd:figtype="rb" ewd:figID="5" ewd:code="FUSE5"><path style="stroke-width: 1.42 ;&st7;  " d=" M   155.10,    95.27  L   150.85,    95.27  " /><path style="stroke-width: 1.42 ;&st7;  " d=" M   155.10,   103.77  L   150.85,   103.77  " /><path style="stroke-width: 1.42 ;&st7;   " d=" M   150.85,    95.27  C   148.50     95.27    146.60     97.17    146.60     99.52  " /><path style="stroke-width: 1.42 ;&st7;   " d=" M   146.60,    99.52  C   146.60    101.87    148.50    103.77    150.85    103.77  " /><path style="stroke-width: 1.42 ;&st7;   " d=" M   155.10,   103.77  C   157.45    103.77    159.35    101.87    159.35     99.52  " /><path style="stroke-width: 1.42 ;&st7;   " d=" M   159.35,    99.52  C   159.35     97.17    157.45     95.27    155.10     95.27  " /><path style="stroke-width: 0.28 ;&st9;  " d=" M   152.97,    90.37  L   150.14,    87.54  L   150.14,    91.79  L   152.97,    94.62  L   155.81,    91.79  L   155.81,    87.54  L   152.97,    90.37  " /><path style="stroke-width: 0.85 ;&st7;  " d=" M   152.97,    69.77  L   152.97,    95.27  " /><text style="font-size:6px;font-family:'NSimSun';" transform="matrix(&st16;  169.4  53.34 )">10A <tspan x="0 " dy="6.0">ECU-B </tspan><tspan x="0 " dy="6.0">NO.1</tspan></text><text style="font-size:6px;font-family:'NSimSun';" transform="matrix(&st16;  144.93  32.08 )">(BAT)</text><text style="font-size:6px;font-family:'NSimSun';" transform="matrix(&st16;  151.17  101.49 )">1</text><text style="font-size:6px;font-family:'NSimSun';" transform="matrix(&st16;  146.79  86.47 )">2</text><path style="stroke-width: 1.42 ;&st7;   " d=" M   152.97,    47.11  C   150.24     48.72    149.32     52.25    150.94     54.99  " /><path style="stroke-width: 1.42 ;&st7;   " d=" M   150.94,    54.99  C   151.46     55.87    152.09     56.51    152.97     57.03  " /><path style="stroke-width: 1.42 ;&st7;   " d=" M   152.97,    66.94  C   155.71     65.33    156.62     61.80    155.01     59.06  " /><path style="stroke-width: 1.42 ;&st7;   " d=" M   155.01,    59.06  C   154.49     58.18    153.86     57.55    152.97     57.03  " /><path style="stroke-width: 0.85 ;&st7;   " d=" M   154.39,    45.69  C   154.39     44.91    153.76     44.28    152.97     44.28  " /><path style="stroke-width: 0.85 ;&st7;   " d=" M   152.97,    44.28  C   152.19     44.28    151.56     44.91    151.56     45.69  " /><path style="stroke-width: 0.85 ;&st7;   " d=" M   151.56,    45.69  C   151.56     46.48    152.19     47.11    152.97     47.11  " /><path style="stroke-width: 0.85 ;&st7;   " d=" M   152.97,    47.11  C   153.76     47.11    154.39     46.48    154.39     45.69  " /><path style="stroke-width: 0.85 ;&st7;   " d=" M   154.39,    68.36  C   154.39     67.57    153.76     66.94    152.97     66.94  " /><path style="stroke-width: 0.85 ;&st7;   " d=" M   152.97,    66.94  C   152.19     66.94    151.56     67.57    151.56     68.36  " /><path style="stroke-width: 0.85 ;&st7;   " d=" M   151.56,    68.36  C   151.56     69.14    152.19     69.77    152.97     69.77  " /><path style="stroke-width: 0.85 ;&st7;   " d=" M   152.97,    69.77  C   153.76     69.77    154.39     69.14    154.39     68.36  " /><path style="stroke-width: 1.42 ;&st7;  " d=" M   140.23,    35.78  L   140.23,    78.27  L   165.72,    78.27  L   165.72,    35.78  L   140.23,    35.78  " /></g><g ewd:figtype="rb" ewd:figID="7" ewd:code="FUSE29"><path style="stroke-width: 0.85 ;&st7;  " d=" M    33.99,    69.77  L    33.99,    95.27  " /><path style="stroke-width: 1.42 ;&st7;  " d=" M    36.12,   103.77  L    31.87,   103.77  " /><path style="stroke-width: 1.42 ;&st7;  " d=" M    36.12,    95.27  L    31.87,    95.27  " /><path style="stroke-width: 1.42 ;&st7;   " d=" M    40.37,    99.52  C    40.37     97.17     38.47     95.27     36.12     95.27  " /><path style="stroke-width: 1.42 ;&st7;   " d=" M    36.12,   103.77  C    38.47    103.77     40.37    101.87     40.37     99.52  " /><path style="stroke-width: 1.42 ;&st7;   " d=" M    27.62,    99.52  C    27.62    101.87     29.52    103.77     31.87    103.77  " /><path style="stroke-width: 1.42 ;&st7;   " d=" M    31.87,    95.27  C    29.52     95.27     27.62     97.17     27.62     99.52  " /><path style="stroke-width: 0.28 ;&st9;  " d=" M    33.99,    90.37  L    31.16,    87.54  L    31.16,    91.79  L    33.99,    94.62  L    36.83,    91.79  L    36.83,    87.54  L    33.99,    90.37  " /><text style="font-size:6px;font-family:'NSimSun';" transform="matrix(&st16;  25.95  32.08 )">(BAT)</text><text style="font-size:6px;font-family:'NSimSun';" transform="matrix(&st16;  27.81  86.47 )">2</text><text style="font-size:6px;font-family:'NSimSun';" transform="matrix(&st16;  32.19  101.49 )">1</text><text style="font-size:6px;font-family:'NSimSun';" transform="matrix(&st16;  50.42  56.17 )">40A <tspan x="0 " dy="6.0">H-LP-MAIN</tspan></text><path style="stroke-width: 0.85 ;&st7;   " d=" M    35.41,    68.36  C    35.41     67.57     34.78     66.94     33.99     66.94  " /><path style="stroke-width: 0.85 ;&st7;   " d=" M    33.99,    66.94  C    33.21     66.94     32.58     67.57     32.58     68.36  " /><path style="stroke-width: 0.85 ;&st7;   " d=" M    32.58,    68.36  C    32.58     69.14     33.21     69.77     33.99     69.77  " /><path style="stroke-width: 0.85 ;&st7;   " d=" M    33.99,    69.77  C    34.78     69.77     35.41     69.14     35.41     68.36  " /><path style="stroke-width: 0.85 ;&st7;   " d=" M    35.41,    45.69  C    35.41     44.91     34.78     44.28     33.99     44.28  " /><path style="stroke-width: 0.85 ;&st7;   " d=" M    33.99,    44.28  C    33.21     44.28     32.58     44.91     32.58     45.69  " /><path style="stroke-width: 0.85 ;&st7;   " d=" M    32.58,    45.69  C    32.58     46.48     33.21     47.11     33.99     47.11  " /><path style="stroke-width: 0.85 ;&st7;   " d=" M    33.99,    47.11  C    34.78     47.11     35.41     46.48     35.41     45.69  " /><path style="stroke-width: 1.42 ;&st7;   " d=" M    33.99,    66.94  C    36.73     65.33     37.64     61.80     36.03     59.06  " /><path style="stroke-width: 1.42 ;&st7;   " d=" M    36.03,    59.06  C    35.51     58.18     34.88     57.55     33.99     57.03  " /><path style="stroke-width: 1.42 ;&st7;   " d=" M    33.99,    47.11  C    31.26     48.72     30.34     52.25     31.96     54.99  " /><path style="stroke-width: 1.42 ;&st7;   " d=" M    31.96,    54.99  C    32.48     55.87     33.11     56.51     33.99     57.03  " /><path style="stroke-width: 1.42 ;&st7;  " d=" M    21.25,    35.78  L    21.25,    78.27  L    46.74,    78.27  L    46.74,    35.78  L    21.25,    35.78  " /></g><g ewd:figtype="conn" ewd:figID="11" ewd:code="E36"><path style="stroke-width: 1.42 ;&st7;  " d=" M   382.44,    35.78  L   382.44,    86.77  L  1852.69,    86.77  L  1852.69,    35.78  L   382.44,    35.78  " /><g ewd:figtype="title"><text style="font-size:6px;font-family:'NSimSun';" transform="matrix(&st16;  379.03  32.08 )" ewd:textID="18">主车身 ECU</text><text style="font-size:6px;font-family:'NSimSun';" transform="matrix(&st16;  379.02  24.98 )">E36(A)</text></g><g ewd:lineID="40"><text style="font-size:6px;font-family:'NSimSun';" transform="matrix(&st16;  392.79  83.07 )">ACC</text><text style="font-size:6px;font-family:'NSimSun';" transform="matrix(&st16;  430.08  83.07 )">IG</text><text style="font-size:6px;font-family:'NSimSun';" transform="matrix(&st16;  467.57  83.07 )">BECU</text></g></g><g ewd:figtype="jb" ewd:figID="23" ewd:code="3"><path style="stroke-width: 1.42 ;&st7;  " d=" M   478.05,   120.77  L   473.80,   120.77  " /><path style="stroke-width: 1.42 ;&st7;  " d=" M   478.05,   129.26  L   473.80,   129.26  " /><path style="stroke-width: 1.42 ;&st7;  " d=" M   435.55,   120.77  L   431.30,   120.77  " /><path style="stroke-width: 1.42 ;&st7;  " d=" M   435.55,   129.26  L   431.30,   129.26  " /><path style="stroke-width: 1.42 ;&st7;  " d=" M   257.08,   120.77  L   252.83,   120.77  " /><path style="stroke-width: 1.42 ;&st7;  " d=" M   257.08,   129.26  L   252.83,   129.26  " /><path style="stroke-width: 1.42 ;&st7;   " d=" M   322.95,    47.11  C   320.21     48.72    319.30     52.25    320.91     54.99  " /><path style="stroke-width: 1.42 ;&st7;   " d=" M   320.91,    54.99  C   321.43     55.87    322.06     56.51    322.95     57.03  " /><path style="stroke-width: 1.42 ;&st7;   " d=" M   322.95,    66.94  C   325.68     65.33    326.60     61.80    324.98     59.06  " /><path style="stroke-width: 1.42 ;&st7;   " d=" M   324.98,    59.06  C   324.46     58.18    323.83     57.55    322.95     57.03  " /><path style="stroke-width: 0.85 ;&st7;   " d=" M   324.36,    45.69  C   324.36     44.91    323.73     44.28    322.95     44.28  " /><path style="stroke-width: 0.85 ;&st7;   " d=" M   322.95,    44.28  C   322.16     44.28    321.53     44.91    321.53     45.69  " /><path style="stroke-width: 0.85 ;&st7;   " d=" M   321.53,    45.69  C   321.53     46.48    322.16     47.11    322.95     47.11  " /><path style="stroke-width: 0.85 ;&st7;   " d=" M   322.95,    47.11  C   323.73     47.11    324.36     46.48    324.36     45.69  " /><path style="stroke-width: 0.85 ;&st7;   " d=" M   324.36,    68.36  C   324.36     67.57    323.73     66.94    322.95     66.94  " /><path style="stroke-width: 0.85 ;&st7;   " d=" M   322.95,    66.94  C   322.16     66.94    321.53     67.57    321.53     68.36  " /><path style="stroke-width: 0.85 ;&st7;   " d=" M   321.53,    68.36  C   321.53     69.14    322.16     69.77    322.95     69.77  " /><path style="stroke-width: 0.85 ;&st7;   " d=" M   322.95,    69.77  C   323.73     69.77    324.36     69.14    324.36     68.36  " /><path style="stroke-width: 1.42 ;&st7;   " d=" M   473.80,   120.77  C   471.45    120.77    469.55    122.67    469.55    125.01  " /><path style="stroke-width: 1.42 ;&st7;   " d=" M   469.55,   125.01  C   469.55    127.36    471.45    129.26    473.80    129.26  " /><path style="stroke-width: 1.42 ;&st7;   " d=" M   478.05,   129.26  C   480.39    129.26    482.29    127.36    482.29    125.01  " /><path style="stroke-width: 1.42 ;&st7;   " d=" M   482.29,   125.01  C   482.29    122.67    480.39    120.77    478.05    120.77  " /><path style="stroke-width: 1.42 ;&st7;   " d=" M   254.96,    47.11  C   252.22     48.72    251.31     52.25    252.92     54.99  " /><path style="stroke-width: 1.42 ;&st7;   " d=" M   252.92,    54.99  C   253.44     55.87    254.08     56.51    254.96     57.03  " /><path style="stroke-width: 1.42 ;&st7;   " d=" M   254.96,    66.94  C   257.70     65.33    258.61     61.80    256.99     59.06  " /><path style="stroke-width: 1.42 ;&st7;   " d=" M   256.99,    59.06  C   256.47     58.18    255.84     57.55    254.96     57.03  " /><path style="stroke-width: 0.85 ;&st7;   " d=" M   256.37,    45.69  C   256.37     44.91    255.74     44.28    254.96     44.28  " /><path style="stroke-width: 0.85 ;&st7;   " d=" M   254.96,    44.28  C   254.18     44.28    253.54     44.91    253.54     45.69  " /><path style="stroke-width: 0.85 ;&st7;   " d=" M   253.54,    45.69  C   253.54     46.48    254.18     47.11    254.96     47.11  " /><path style="stroke-width: 0.85 ;&st7;   " d=" M   254.96,    47.11  C   255.74     47.11    256.37     46.48    256.37     45.69  " /><path style="stroke-width: 0.85 ;&st7;   " d=" M   256.37,    68.36  C   256.37     67.57    255.74     66.94    254.96     66.94  " /><path style="stroke-width: 0.85 ;&st7;   " d=" M   254.96,    66.94  C   254.18     66.94    253.54     67.57    253.54     68.36  " /><path style="stroke-width: 0.85 ;&st7;   " d=" M   253.54,    68.36  C   253.54     69.14    254.18     69.77    254.96     69.77  " /><path style="stroke-width: 0.85 ;&st7;   " d=" M   254.96,    69.77  C   255.74     69.77    256.37     69.14    256.37     68.36  " /><path style="stroke-width: 1.42 ;&st7;   " d=" M   431.30,   120.77  C   428.96    120.77    427.05    122.67    427.05    125.01  " /><path style="stroke-width: 1.42 ;&st7;   " d=" M   427.05,   125.01  C   427.05    127.36    428.96    129.26    431.30    129.26  " /><path style="stroke-width: 1.42 ;&st7;   " d=" M   435.55,   129.26  C   437.90    129.26    439.80    127.36    439.80    125.01  " /><path style="stroke-width: 1.42 ;&st7;   " d=" M   439.80,   125.01  C   439.80    122.67    437.90    120.77    435.55    120.77  " /><path style="stroke-width: 1.42 ;&st7;   " d=" M   252.83,   120.77  C   250.49    120.77    248.58    122.67    248.58    125.01  " /><path style="stroke-width: 1.42 ;&st7;   " d=" M   248.58,   125.01  C   248.58    127.36    250.49    129.26    252.83    129.26  " /><path style="stroke-width: 1.42 ;&st7;   " d=" M   257.08,   129.26  C   259.43    129.26    261.33    127.36    261.33    125.01  " /><path style="stroke-width: 1.42 ;&st7;   " d=" M   261.33,   125.01  C   261.33    122.67    259.43    120.77    257.08    120.77  " /><path style="stroke-width: 0.85 ;&st7;  " d=" M   322.95,    69.77  L   322.95,   120.77  L   399.43,   120.77  L   399.43,    86.77  " /><path style="stroke-width: 1.42 ;&st7;  " d=" M   310.20,    35.78  L   310.20,    78.27  L   335.69,    78.27  L   335.69,    35.78  L   310.20,    35.78  " /><path style="stroke-width: 0.28 ;&st9;  " d=" M   475.92,   115.87  L   473.09,   113.04  L   473.09,   117.29  L   475.92,   120.12  L   478.75,   117.29  L   478.75,   113.04  L   475.92,   115.87  " /><path style="stroke-width: 0.85 ;&st7;  " d=" M   475.92,    86.77  L   475.92,   120.77  " /><path style="stroke-width: 0.85 ;&st7;  " d=" M   433.43,    86.77  L   433.43,   120.77  " /><path style="stroke-width: 0.85 ;&st7;  " d=" M   254.96,    78.27  L   254.96,    69.77  " /><path style="stroke-width: 1.42 ;&st7;  " d=" M   242.21,    35.78  L   242.21,    78.27  L   267.71,    78.27  L   267.71,    35.78  L   242.21,    35.78  " /><path style="stroke-width: 0.85 ;&st7;  " d=" M   254.96,   120.77  L   254.96,    78.27  " /><path style="stroke-width: 0.28 ;&st9;  " d=" M   433.43,   115.87  L   430.59,   113.04  L   430.59,   117.29  L   433.43,   120.12  L   436.26,   117.29  L   436.26,   113.04  L   433.43,   115.87  " /><path style="stroke-width: 0.28 ;&st9;  " d=" M   254.96,   115.87  L   252.12,   113.04  L   252.12,   117.29  L   254.96,   120.12  L   257.79,   117.29  L   257.79,   113.04  L   254.96,   115.87  " /><text style="font-size:6px;font-family:'NSimSun';" transform="matrix(&st16;  339.37  56.17 )">7.5A <tspan x="0 " dy="6.0">ACC</tspan></text><text style="font-size:6px;font-family:'NSimSun';" transform="matrix(&st16;  314.44  32.08 )">(ACC)</text><text style="font-size:6px;font-family:'NSimSun';" transform="matrix(&st16;  390.15  94.96 )">29</text><text style="font-size:6px;font-family:'NSimSun';" transform="matrix(&st16;  466.63  94.96 )">30</text><text style="font-size:6px;font-family:'NSimSun';" transform="matrix(&st16;  472.06  126.98 )">3A</text><text style="font-size:6px;font-family:'NSimSun';" transform="matrix(&st16;  462.31  126.98 )">43</text><text style="font-size:6px;font-family:'NSimSun';" transform="matrix(&st16;  424.14  94.96 )">32</text><text style="font-size:6px;font-family:'NSimSun';" transform="matrix(&st16;  271.38  53.34 )">7.5A <tspan x="0 " dy="6.0">ECU-IG </tspan><tspan x="0 " dy="6.0">NO.4</tspan></text><text style="font-size:6px;font-family:'NSimSun';" transform="matrix(&st16;  249.74  32.08 )">(IG)</text><text style="font-size:6px;font-family:'NSimSun';" transform="matrix(&st16;  316.76  86.47 )">2</text><text style="font-size:6px;font-family:'NSimSun';" transform="matrix(&st16;  429.46  126.98 )">3C</text><text style="font-size:6px;font-family:'NSimSun';" transform="matrix(&st16;  250.99  126.98 )">3C</text><text style="font-size:6px;font-family:'NSimSun';" transform="matrix(&st16;  241.35  126.98 )">17</text><text style="font-size:6px;font-family:'NSimSun';" transform="matrix(&st16;  419.82  126.98 )">51</text><text style="font-size:6px;font-family:'NSimSun';" transform="matrix(&st16;  248.77  86.47 )">2</text></g></svg>