<?xml version="1.0" encoding="utf-8"?>
<!DOCTYPE svg PUBLIC "-//W3C//DTD SVG 1.0//EN" "http://www.w3.org/TR/2001/REC-SVG-20010904/DTD/svg10.dtd"[
	<!ENTITY ns_flows "http://ns.adobe.com/Flows/1.0/">
	<!ENTITY ns_svg "http://www.w3.org/2000/svg">
	<!ENTITY ns_xlink "http://www.w3.org/1999/xlink">
	<!ENTITY st0 "font-size:7px;font-family:'NSimSun';adobe-font-script:japanese;">
	<!ENTITY st1 "font-size:6px;font-family:'NSimSun';">
	<!-- White fill  -->
	<!ENTITY st2 "fill:#FFFFFF;stroke:#000000; stroke-width:1.41;stroke-linecap:round;stroke-linejoin:round;">
	<!-- Yellow fill  -->
	<!ENTITY st3 "fill:#FFFFCC;stroke:#FFFFCC; stroke-width:0.1;stroke-linecap:round;stroke-linejoin:round;">
	<!-- Gray fill  -->
	<!ENTITY st4 "fill:#CCCCCC;stroke:#CCCCCC; stroke-width:0.1;stroke-linecap:round;stroke-linejoin:round;">
	<!-- Light-blue fill -->
	<!ENTITY st5 "fill:#CCECF4;stroke:#000000; stroke-width:1.133;stroke-linecap:round;stroke-linejoin:round;">
	<!ENTITY st6 "fill:none;stroke-linecap:butt; stroke-linejoin:round;">
	<!ENTITY st7 "fill:none;stroke:#000000;stroke-linecap:round;stroke-linejoin:round;">
	<!ENTITY st8 "enable-background:new    ;">
	<!-- Black fill -->
	<!ENTITY st9 "fill:#000000;stroke:#000000; stroke-linecap:round;stroke-linejoin:round;">
	<!-- SRS note   -->
	<!ENTITY st10 "font-size:9px;font-family:'NSimSun';">
	<!ENTITY st11 "font-size:9px;font-family:'NSimSun';">
	<!ENTITY st12 "font-size:6px;font-family:'NSimSun';">
	<!ENTITY st13 "fill:none;stroke:#ff0000;stroke-linecap:round;stroke-linejoin:round;">
	<!-- Yellow fill  -->
	<!ENTITY st14 "fill:#FFFF00;stroke:#FFFF00; stroke-width:0.1;stroke-linecap:round;stroke-linejoin:round;">
	<!ENTITY st15 "font-size:6px;font-family:'NSimSun';adobe-font-script:japanese;">
	<!ENTITY st16 "1.00 0.00 0.00 1.00">
	<!ENTITY st17 "0.00 -1.00 1.00 0.00">
	<!ENTITY st18 "font-size:6px;font-family:'NSimSun';">
	<!ENTITY st19 "font-size:9px;font-family:'NSimSun';">
	<!ENTITY st20 "font-size:6px;font-family:'NSimSun';adobe-font-script:japanese;">
	<!ENTITY st21 "font-size:7px;font-family:'NSimSun';adobe-font-script:japanese;">
	<!ATTLIST svg
		xmlns:ewd CDATA #FIXED "http://shcl.co.jp/ewd"
		xmlns:a CDATA #FIXED "http://ns.adobe.com/AdobeSVGViewerExtensions/3.0/"
		ewd:ver CDATA #IMPLIED
	>
	<!ATTLIST a
		ewd:lineID CDATA #IMPLIED
		ewd:groupID CDATA #IMPLIED
		ewd:figtype CDATA #IMPLIED
		ewd:code CDATA #IMPLIED
		ewd:figID CDATA #IMPLIED
		ewd:pinNo CDATA #IMPLIED
		ewd:comment CDATA #IMPLIED >
	<!ATTLIST g
		ewd:lineID CDATA #IMPLIED
		ewd:groupID CDATA #IMPLIED
		ewd:figtype CDATA #IMPLIED
		ewd:code CDATA #IMPLIED
		ewd:figID CDATA #IMPLIED
		ewd:pinNo CDATA #IMPLIED
		ewd:comment CDATA #IMPLIED >
	<!ATTLIST text
		ewd:textID CDATA #IMPLIED
		ewd:horAlign CDATA #IMPLIED >
	<!ATTLIST title
		ewd:textID CDATA #IMPLIED >
]>
<!-- Generator: Shintec Hozumi YS   -->
<svg onload="call_execInitLoadProc_svg('system')" style="overflow:visible;  enable-background:new 0 0 2043.031 710.000" viewBox="0 0 2047.151 710.000" height="710.000" width="2047.151" xml:space="preserve" ewd:ver="2.1.2.6F" xmlns="&ns_svg;" xmlns:ewd="http://shcl.co.jp/ewd" xmlns:a="http://ns.adobe.com/AdobeSVGViewerExtensions/3.0/" xmlns:xlink="&ns_xlink;"><script type="text/javascript" xlink:href="../../../../../system/js/ewd/fig/svgfig.js" xmlns:xlink="http://www.w3.org/1999/xlink" />
<g id="ewd_top"><a ewd:figtype="conn" style="cursor:pointer;" ewd:code="L54,L55" ewd:figID="1"><path style="&st5;" d=" M  1912.18,   307.73  L  1912.18,   324.73  L  1929.18,   324.73  L  1929.18,   307.73  L  1912.18,   307.73 " /><title ewd:textID="20">7 号接线连接器</title></a><a ewd:figtype="rb" style="cursor:pointer;" ewd:code="4" ewd:figID="2"><path style="fill:#CCECF4;stroke:#000000; stroke-width:0; stroke-linecap:round;stroke-linejoin:round; " d=" M  1708.21,   460.71  L  1665.72,   460.71  L  1665.72,   494.70  L  1708.21,   494.70  L  1708.21,   460.71 " /></a><a ewd:figtype="rb" style="cursor:pointer;" ewd:code="1" ewd:figID="3"><path style="fill:#CCECF4;stroke:#000000; stroke-width:0; stroke-linecap:round;stroke-linejoin:round; " d=" M    84.99,   231.25  L    42.49,   231.25  L    42.49,   265.24  L    84.99,   265.24  L    84.99,   231.25 " /></a><a ewd:figtype="conn" style="cursor:pointer;" ewd:code="E71" ewd:figID="4"><path style="&st5;" d=" M   807.37,   571.19  L   858.36,   571.19  L   858.36,   588.19  L   807.37,   588.19  L   807.37,   571.19 " /><title ewd:textID="19">4 号接线连接器</title></a><a ewd:figtype="rb" style="cursor:pointer;" ewd:code="FUSE5" ewd:figID="5"><path style="fill:#CCECF4;stroke:#000000; stroke-width:0; stroke-linecap:round;stroke-linejoin:round; " d=" M   140.23,    35.78  L   140.23,    78.27  L   165.72,    78.27  L   165.72,    35.78  L   140.23,    35.78 " /></a><a ewd:figtype="conn" style="cursor:pointer;" ewd:code="E55,E59" ewd:figID="6"><path style="&st5;" d=" M  1385.27,   265.24  L  1385.27,   477.71  L  1453.26,   477.71  L  1453.26,   265.24  L  1385.27,   265.24 " /><title ewd:textID="9">组合仪表总成</title></a><a ewd:figtype="rb" style="cursor:pointer;" ewd:code="FUSE29" ewd:figID="7"><path style="fill:#CCECF4;stroke:#000000; stroke-width:0; stroke-linecap:round;stroke-linejoin:round; " d=" M    21.25,    35.78  L    21.25,    78.27  L    46.74,    78.27  L    46.74,    35.78  L    21.25,    35.78 " /></a><a ewd:figtype="rb" style="cursor:pointer;" ewd:code="FUSE36" ewd:figID="8"><path style="fill:#CCECF4;stroke:#000000; stroke-width:0; stroke-linecap:round;stroke-linejoin:round; " d=" M  1729.46,   112.27  L  1729.46,   154.76  L  1754.96,   154.76  L  1754.96,   112.27  L  1729.46,   112.27 " /></a><a ewd:figtype="conn" style="cursor:pointer;" ewd:code="E15" ewd:figID="9"><path style="&st5;" d=" M   620.40,   324.73  L   620.40,   460.71  L  1019.83,   460.71  L  1019.83,   324.73  L   620.40,   324.73 " /><title ewd:textID="16">大灯变光器开关总成</title></a><a ewd:figtype="conn" style="cursor:pointer;" ewd:code="L28" ewd:figID="10"><path style="&st5;" d=" M  1903.68,   443.71  L  1903.68,   494.70  L  1937.68,   494.70  L  1937.68,   443.71  L  1903.68,   443.71 " /><title ewd:textID="24">左后灯总成</title></a><a ewd:figtype="conn" style="cursor:pointer;" ewd:code="E36" ewd:figID="11"><path style="&st5;" d=" M   382.44,    35.78  L   382.44,    86.77  L  1852.69,    86.77  L  1852.69,    35.78  L   382.44,    35.78 " /><title ewd:textID="18">主车身 ECU</title></a><a ewd:figtype="conn" style="cursor:pointer;" ewd:code="L57" ewd:figID="12"><path style="&st5;" d=" M  1988.67,   443.71  L  1988.67,   494.70  L  2022.66,   494.70  L  2022.66,   443.71  L  1988.67,   443.71 " /><title ewd:textID="24">左后灯总成</title></a><a ewd:figtype="jb" style="cursor:pointer;" ewd:code="3" ewd:figID="18"><path style="&st4; " d=" M  1274.79,    86.77  L  1274.79,   129.26  L  1342.78,   129.26  L  1342.78,    86.77  L  1274.79,    86.77  " /></a><a ewd:figtype="jb" style="cursor:pointer;" ewd:code="3" ewd:figID="19"><path style="&st4; " d=" M   586.40,    86.77  L   586.40,   129.26  L   645.89,   129.26  L   645.89,    86.77  L   586.40,    86.77  " /></a><a ewd:figtype="jb" style="cursor:pointer;" ewd:code="3" ewd:figID="20"><path style="&st4; " d=" M  1623.23,    86.77  L  1623.23,   120.77  L  1648.72,   120.77  L  1648.72,    86.77  L  1623.23,    86.77  " /></a><a ewd:figtype="jb" style="cursor:pointer;" ewd:code="1" ewd:figID="21"><path style="&st4; " d=" M  1725.21,   171.76  L  1725.21,   180.26  L  1750.71,   180.26  L  1750.71,   171.76  L  1725.21,   171.76  " /></a><a ewd:figtype="jb" style="cursor:pointer;" ewd:code="3" ewd:figID="22"><path style="&st4; " d=" M  1657.22,   188.75  L  1716.71,   188.75  L  1716.71,   112.27  L  1657.22,   112.27  L  1657.22,   188.75  " /></a><a ewd:figtype="jb" style="cursor:pointer;" ewd:code="3" ewd:figID="23"><path style="&st4; " d=" M   237.96,   129.26  L   492.92,   129.26  L   492.92,    86.77  L   365.44,    86.77  L   365.44,    35.78  L   237.96,    35.78  L   237.96,   129.26  " /></a><a ewd:figtype="jb" style="cursor:pointer;" ewd:code="3" ewd:figID="24"><path style="&st4; " d=" M  1691.22,   392.72  L  1827.19,   392.72  L  1827.19,   205.75  L  1937.68,   205.75  L  1937.68,    35.78  L  1878.19,    35.78  L  1878.19,    86.77  L  1784.70,    86.77  L  1784.70,   214.25  L  1691.22,   214.25  L  1691.22,   392.72  " /></a><a ewd:figtype="fuse" style="cursor:pointer;" ewd:code="FUSE29" ewd:figID="33"><path style="&st7; stroke-width:0;" d=" M    21.25,    35.78  L    21.25,    78.27  L    46.74,    78.27  L    46.74,    35.78  L    21.25,    35.78 " /></a><a ewd:figtype="fuse" style="cursor:pointer;" ewd:code="FUSE5" ewd:figID="34"><path style="&st7; stroke-width:0;" d=" M   140.23,    35.78  L   140.23,    78.27  L   165.72,    78.27  L   165.72,    35.78  L   140.23,    35.78 " /></a><a ewd:figtype="fuse" style="cursor:pointer;" ewd:code="FUSE47" ewd:figID="35"><path style="&st7; stroke-width:0;" d=" M   242.21,    35.78  L   242.21,    78.27  L   267.71,    78.27  L   267.71,    35.78  L   242.21,    35.78 " /></a><a ewd:figtype="fuse" style="cursor:pointer;" ewd:code="FUSE43" ewd:figID="36"><path style="&st7; stroke-width:0;" d=" M   310.20,    35.78  L   310.20,    78.27  L   335.69,    78.27  L   335.69,    35.78  L   310.20,    35.78 " /></a><a ewd:figtype="fuse" style="cursor:pointer;" ewd:code="FUSE48" ewd:figID="37"><path style="&st7; stroke-width:0;" d=" M  1661.47,   112.27  L  1661.47,   154.76  L  1686.97,   154.76  L  1686.97,   112.27  L  1661.47,   112.27 " /></a><a ewd:figtype="fuse" style="cursor:pointer;" ewd:code="FUSE56" ewd:figID="38"><path style="&st7; stroke-width:0;" d=" M  1703.97,   307.73  L  1703.97,   350.23  L  1729.46,   350.23  L  1729.46,   307.73  L  1703.97,   307.73 " /></a><a ewd:figtype="fuse" style="cursor:pointer;" ewd:code="FUSE36" ewd:figID="39"><path style="&st7; stroke-width:0;" d=" M  1729.46,   112.27  L  1729.46,   154.76  L  1754.96,   154.76  L  1754.96,   112.27  L  1729.46,   112.27 " /></a><a ewd:figtype="fuse" style="cursor:pointer;" ewd:code="FUSE53" ewd:figID="40"><path style="&st7; stroke-width:0;" d=" M  1882.44,    35.78  L  1882.44,    78.27  L  1907.93,    78.27  L  1907.93,    35.78  L  1882.44,    35.78 " /></a><a style="cursor:pointer;" ewd:lineID="1"><path style="stroke:#FF0000;stroke-width: 5.10 ;&st6;" d=" M    33.99,   103.77  L    33.99,   171.76  L    50.99,   188.75  L    50.99,   197.25  " /><path style="stroke:#FFFFFF;stroke-width: 2.27 ;&st6;" d=" M    33.99,   103.77  L    33.99,   171.76  L    50.99,   188.75  L    50.99,   197.25  " /><path style="stroke:#000000;stroke-width: 1.13 ;&st6;" d=" M    33.99,   103.77  L    33.99,   171.76  L    50.99,   188.75  L    50.99,   197.25  " /></a><a style="cursor:pointer;" ewd:lineID="2"><path style="stroke:#FF0000;stroke-width: 5.10 ;&st6;" d=" M    76.49,   197.25  L    76.49,   171.76  L    50.99,   171.76  L    50.99,   197.25  " /><path style="stroke:#FFFFFF;stroke-width: 2.27 ;&st6;" d=" M    76.49,   197.25  L    76.49,   171.76  L    50.99,   171.76  L    50.99,   197.25  " /><path style="stroke:#000000;stroke-width: 1.13 ;&st6;" d=" M    76.49,   197.25  L    76.49,   171.76  L    50.99,   171.76  L    50.99,   197.25  " /></a><a style="cursor:pointer;" ewd:lineID="3"><path style="stroke:#008837;stroke-width: 5.10 ;&st6;" d=" M   152.97,   103.77  L   152.97,   248.24  L   475.92,   248.24  L   475.92,   129.26  " /></a><a style="cursor:pointer;" ewd:lineID="4"><path style="stroke:#00A0C6;stroke-width: 5.10 ;&st6;" d=" M   433.43,   129.26  L   433.43,   154.76  L   254.96,   154.76  L   254.96,   129.26  " /></a><a style="cursor:pointer;" ewd:lineID="5"><path style="stroke:#000000;stroke-width: 5.10 ;&st6;" d=" M   603.40,   129.26  L   603.40,   333.23  L    76.49,   333.23  L    76.49,   299.24  " /></a><a ewd:comment="5" style="cursor:pointer;" ewd:lineID="6"><path style="stroke:#000000;stroke-width: 5.10 ;&st6;" d=" M   637.39,   129.26  L   637.39,   180.26  " /></a><a ewd:comment="5" style="cursor:pointer;" ewd:lineID="7"> d=" M   679.89,   197.25  L   679.89,   307.73  L   705.38,   307.73  L   713.88,   316.23  L   713.88,   324.73 
	
		<path style="stroke:#000000;stroke-width: 5.10 ;&st6;" d=" M   679.89,   197.25  L   679.89,   307.73  L   705.38,   307.73  L   713.88,   316.23  L   713.88,   324.73  " /><path style="stroke:#FFFFFF;stroke-width: 4.53 ;&st6;" d=" M   679.89,   197.25  L   679.89,   307.73  L   705.38,   307.73  L   713.88,   316.23  L   713.88,   324.73  " /></a><a ewd:comment="5" style="cursor:pointer;" ewd:lineID="8"> d=" M   713.88,    95.84  L   713.88,   103.77  L   705.38,   112.27  L   679.89,   112.27  L   679.89,   180.26 
	
		<path style="stroke:#000000;stroke-width: 5.10 ;&st6;" d=" M   713.88,    95.84  L   713.88,   103.77  L   705.38,   112.27  L   679.89,   112.27  L   679.89,   180.26  " /><path style="stroke:#FFFFFF;stroke-width: 4.53 ;&st6;" d=" M   713.88,    95.84  L   713.88,   103.77  L   705.38,   112.27  L   679.89,   112.27  L   679.89,   180.26  " /></a><a ewd:comment="4" style="cursor:pointer;" ewd:lineID="9"> d=" M   713.88,    95.84  L   713.88,   324.73 
	
		<path style="stroke:#000000;stroke-width: 5.10 ;&st6;" d=" M   713.88,    95.84  L   713.88,   324.73  " /><path style="stroke:#FFFFFF;stroke-width: 4.53 ;&st6;" d=" M   713.88,    95.84  L   713.88,   324.73  " /></a><a ewd:comment="5" style="cursor:pointer;" ewd:lineID="10"><path style="stroke:#000000;stroke-width: 5.10 ;&st6;" d=" M   747.88,   324.73  L   747.88,   316.23  L   730.88,   299.24  L   730.88,   282.24  L   637.39,   282.24  L   637.39,   197.25  " /></a><a ewd:comment="4" style="cursor:pointer;" ewd:lineID="11"><path style="stroke:#00A0C6;stroke-width: 5.10 ;&st6;" d=" M   747.88,    95.84  L   747.88,   324.73  " /></a><a style="cursor:pointer;" ewd:lineID="12"><path style="stroke:#000000;stroke-width: 5.10 ;&st6;" d=" M   815.86,   588.19  L   815.86,   681.67  " /><path style="stroke:#FFFFFF;stroke-width: 4.53 ;&st6;" d=" M   815.86,   588.19  L   815.86,   681.67  " /><path style="stroke:#000000;stroke-width: 1.13 ;&st6;" d=" M   815.86,   588.19  L   815.86,   681.67  " /></a><a style="cursor:pointer;" ewd:lineID="13"><path style="stroke:#000000;stroke-width: 5.10 ;&st6;" d=" M   815.86,   460.71  L   815.86,   571.19  " /><path style="stroke:#FFFFFF;stroke-width: 4.53 ;&st6;" d=" M   815.86,   460.71  L   815.86,   571.19  " /><path style="stroke:#000000;stroke-width: 1.13 ;&st6;" d=" M   815.86,   460.71  L   815.86,   571.19  " /></a><a style="cursor:pointer;" ewd:lineID="14"><path style="stroke:#000000;stroke-width: 5.10 ;&st6;" d=" M   849.86,   571.19  L   849.86,   511.70  L   951.84,   511.70  L   951.84,   460.71  " /><path style="stroke:#FFFFFF;stroke-width: 4.53 ;&st6;" d=" M   849.86,   571.19  L   849.86,   511.70  L   951.84,   511.70  L   951.84,   460.71  " /><path style="stroke:#000000;stroke-width: 1.13 ;&st6;" d=" M   849.86,   571.19  L   849.86,   511.70  L   951.84,   511.70  L   951.84,   460.71  " /></a><a ewd:comment="1,5" style="cursor:pointer;" ewd:lineID="15"><path style="stroke:#00A0C6;stroke-width: 5.10 ;&st6;" d=" M   917.85,   324.73  L   917.85,   316.23  L   934.84,   299.24  L   934.84,   282.24  L  1096.32,   282.24  L  1096.32,   571.19  L  1699.72,   571.19  L  1699.72,   520.20  " /></a><a ewd:comment="1,4" style="cursor:pointer;" ewd:lineID="16"><path style="stroke:#008837;stroke-width: 5.10 ;&st6;" d=" M   917.85,    95.84  L   917.85,   324.73  " /></a><a ewd:comment="5" style="cursor:pointer;" ewd:lineID="17"><path style="stroke:#99D9E8;stroke-width: 5.10 ;&st6;" d=" M   985.84,   324.73  L   985.84,   316.23  L   994.33,   307.73  L  1079.32,   307.73  L  1079.32,   596.69  L  1869.69,   596.69  L  1869.69,   205.75  " /></a><a ewd:comment="4" style="cursor:pointer;" ewd:lineID="18"><path style="stroke:#99D9E8;stroke-width: 5.10 ;&st6;" d=" M   985.84,    95.84  L   985.84,   324.73  " /></a><a style="cursor:pointer;" ewd:lineID="19"><path style="stroke:#000000;stroke-width: 5.10 ;&st6;" d=" M  1291.78,   129.26  L  1291.78,   681.67  " /><path style="stroke:#FFFFFF;stroke-width: 4.53 ;&st6;" d=" M  1291.78,   129.26  L  1291.78,   681.67  " /><path style="stroke:#000000;stroke-width: 1.13 ;&st6;" d=" M  1291.78,   129.26  L  1291.78,   681.67  " /></a><a style="cursor:pointer;" ewd:lineID="20"><path style="stroke:#000000;stroke-width: 5.10 ;&st6;" d=" M  1334.28,   129.26  L  1334.28,   681.67  " /><path style="stroke:#FFFFFF;stroke-width: 4.53 ;&st6;" d=" M  1334.28,   129.26  L  1334.28,   681.67  " /><path style="stroke:#000000;stroke-width: 1.13 ;&st6;" d=" M  1334.28,   129.26  L  1334.28,   681.67  " /></a><a style="cursor:pointer;" ewd:lineID="21"><path style="stroke:#992903;stroke-width: 5.10 ;&st6;" d=" M  1410.76,   486.77  L  1410.76,   681.67  " /></a><a style="cursor:pointer;" ewd:lineID="22"><path style="stroke:#FF0000;stroke-width: 5.10 ;&st6;" d=" M  1427.76,   256.18  L  1427.76,   197.25  L  1495.75,   197.25  L  1495.75,   622.18  L  1895.18,   622.18  L  1895.18,   205.75  " /></a><a ewd:comment="1,4" style="cursor:pointer;" ewd:lineID="23"><path style="stroke:#00A0C6;stroke-width: 5.10 ;&st6;" d=" M  1640.23,   120.77  L  1640.23,   537.20  L  1691.22,   537.20  L  1699.72,   528.70  L  1699.72,   520.20  " /></a><a ewd:comment="1" style="cursor:pointer;" ewd:lineID="24"><path style="stroke:#008837;stroke-width: 5.10 ;&st6;" d=" M  1674.22,   188.75  L  1674.22,   435.21  " /></a><a ewd:comment="1" style="cursor:pointer;" ewd:lineID="25"><path style="stroke:#00A0C6;stroke-width: 5.10 ;&st6;" d=" M  1699.72,   435.21  L  1699.72,   409.72  L  1716.71,   409.72  L  1716.71,   392.72  " /></a><a style="cursor:pointer;" ewd:lineID="26"> d=" M  1742.21,   180.26  L  1742.21,   214.25 
	
		<path style="stroke:#000000;stroke-width: 5.10 ;&st6;" d=" M  1742.21,   180.26  L  1742.21,   214.25  " /><path style="stroke:#FFFFFF;stroke-width: 4.53 ;&st6;" d=" M  1742.21,   180.26  L  1742.21,   214.25  " /></a><a style="cursor:pointer;" ewd:lineID="27"><path style="stroke:#000000;stroke-width: 5.10 ;&st6;" d=" M  1920.68,   622.18  L  1920.68,   681.67  " /><path style="stroke:#FFFFFF;stroke-width: 4.53 ;&st6;" d=" M  1920.68,   622.18  L  1920.68,   681.67  " /><path style="stroke:#000000;stroke-width: 1.13 ;&st6;" d=" M  1920.68,   622.18  L  1920.68,   681.67  " /></a><a ewd:comment="3" style="cursor:pointer;" ewd:lineID="28"><path style="stroke:#000000;stroke-width: 5.10 ;&st6;" d=" M  1920.68,   494.70  L  1920.68,   605.18  " /><path style="stroke:#FFFFFF;stroke-width: 4.53 ;&st6;" d=" M  1920.68,   494.70  L  1920.68,   605.18  " /><path style="stroke:#000000;stroke-width: 1.13 ;&st6;" d=" M  1920.68,   494.70  L  1920.68,   605.18  " /></a><a ewd:comment="3" style="cursor:pointer;" ewd:lineID="29"><path style="stroke:#99D9E8;stroke-width: 5.10 ;&st6;" d=" M  1920.68,   333.80  L  1920.68,   443.71  " /></a><a style="cursor:pointer;" ewd:lineID="30"><path style="stroke:#99D9E8;stroke-width: 5.10 ;&st6;" d=" M  1920.68,   205.75  L  1920.68,   298.67  " /></a><a ewd:comment="2" style="cursor:pointer;" ewd:lineID="31"><path style="stroke:#000000;stroke-width: 5.10 ;&st6;" d=" M  2005.66,   494.70  L  2005.66,   613.68  L  1929.18,   613.68  " /><path style="stroke:#FFFFFF;stroke-width: 4.53 ;&st6;" d=" M  2005.66,   494.70  L  2005.66,   613.68  L  1929.18,   613.68  " /><path style="stroke:#000000;stroke-width: 1.13 ;&st6;" d=" M  2005.66,   494.70  L  2005.66,   613.68  L  1929.18,   613.68  " /></a><a ewd:comment="2" style="cursor:pointer;" ewd:lineID="32"><path style="stroke:#99D9E8;stroke-width: 5.10 ;&st6;" d=" M  2005.66,   443.71  L  2005.66,   350.23  L  1929.18,   350.23  L  1920.68,   341.73  L  1920.68,   333.80  " /></a><a ewd:figtype="gp" style="cursor:pointer;" ewd:code="ED" ewd:figID="25"><path style="&st2;" d=" M   805.24,   681.67  L   826.49,   681.67  L   815.86,   697.25  L   805.24,   681.67 " /><text style="&st8;" transform="matrix(&st16;  811.99  689.46 )"><tspan x="0" style="font-size:6px;font-family:'NSimSun';" y="0">ED</tspan></text></a><a ewd:figtype="gp" style="cursor:pointer;" ewd:code="EB" ewd:figID="26"><path style="&st2;" d=" M  1281.16,   681.67  L  1302.41,   681.67  L  1291.78,   697.25  L  1281.16,   681.67 " /><text style="&st8;" transform="matrix(&st16;  1288.1  689.46 )"><tspan x="0" style="font-size:6px;font-family:'NSimSun';" y="0">EB</tspan></text></a><a ewd:figtype="gp" style="cursor:pointer;" ewd:code="EA" ewd:figID="27"><path style="&st2;" d=" M  1323.65,   681.67  L  1344.90,   681.67  L  1334.28,   697.25  L  1323.65,   681.67 " /><text style="&st8;" transform="matrix(&st16;  1330.48  689.46 )"><tspan x="0" style="font-size:6px;font-family:'NSimSun';" y="0">EA</tspan></text></a><a ewd:figtype="gp" style="cursor:pointer;" ewd:code="ED" ewd:figID="28"><path style="&st2;" d=" M  1400.14,   681.67  L  1421.39,   681.67  L  1410.76,   697.25  L  1400.14,   681.67 " /><text style="&st8;" transform="matrix(&st16;  1406.89  689.46 )"><tspan x="0" style="font-size:6px;font-family:'NSimSun';" y="0">ED</tspan></text></a><a ewd:figtype="gp" style="cursor:pointer;" ewd:code="LA" ewd:figID="29"><path style="&st2;" d=" M  1910.06,   681.67  L  1931.30,   681.67  L  1920.68,   697.25  L  1910.06,   681.67 " /><text style="&st8;" transform="matrix(&st16;  1916.92  689.46 )"><tspan x="0" style="font-size:6px;font-family:'NSimSun';" y="0">LA</tspan></text></a><a ewd:figtype="sp" style="cursor:pointer;" ewd:code="SP19" ewd:figID="30"><path style="&st2;" d=" M   633.14,   180.26  L   641.64,   180.26  L   645.89,   184.50  L   645.89,   193.00  L   641.64,   197.25  L   633.14,   197.25  L   628.89,   193.00  L   628.89,   184.50  L   633.14,   180.26 " /></a><a ewd:figtype="sp" style="cursor:pointer;" ewd:code="SP21" ewd:figID="31"><path style="&st2;" d=" M   675.64,   180.26  L   684.14,   180.26  L   688.38,   184.50  L   688.38,   193.00  L   684.14,   197.25  L   675.64,   197.25  L   671.39,   193.00  L   671.39,   184.50  L   675.64,   180.26 " /></a><a ewd:figtype="sp" style="cursor:pointer;" ewd:code="SP37" ewd:figID="32"><path style="&st2;" d=" M  1916.43,   605.18  L  1924.93,   605.18  L  1929.18,   609.43  L  1929.18,   617.93  L  1924.93,   622.18  L  1916.43,   622.18  L  1912.18,   617.93  L  1912.18,   609.43  L  1916.43,   605.18 " /></a></g></svg>