<?xml version="1.0" encoding="utf-8"?>
<!DOCTYPE svg PUBLIC "-//W3C//DTD SVG 1.0//EN" "http://www.w3.org/TR/2001/REC-SVG-20010904/DTD/svg10.dtd"[
	<!ENTITY ns_flows "http://ns.adobe.com/Flows/1.0/">
	<!ENTITY ns_svg "http://www.w3.org/2000/svg">
	<!ENTITY ns_xlink "http://www.w3.org/1999/xlink">
	<!ENTITY st0 "font-size:7px;font-family:'NSimSun';adobe-font-script:japanese;">
	<!ENTITY st1 "font-size:6px;font-family:'NSimSun';">
	<!-- White fill  -->
	<!ENTITY st2 "fill:#FFFFFF;stroke:#000000; stroke-width:1.41;stroke-linecap:round;stroke-linejoin:round;">
	<!-- Yellow fill  -->
	<!ENTITY st3 "fill:#FFFFCC;stroke:#FFFFCC; stroke-width:0.1;stroke-linecap:round;stroke-linejoin:round;">
	<!-- Gray fill  -->
	<!ENTITY st4 "fill:#CCCCCC;stroke:#CCCCCC; stroke-width:0.1;stroke-linecap:round;stroke-linejoin:round;">
	<!-- Light-blue fill -->
	<!ENTITY st5 "fill:#CCECF4;stroke:#000000; stroke-width:1.133;stroke-linecap:round;stroke-linejoin:round;">
	<!ENTITY st6 "fill:none;stroke-linecap:butt; stroke-linejoin:round;">
	<!ENTITY st7 "fill:none;stroke:#000000;stroke-linecap:round;stroke-linejoin:round;">
	<!ENTITY st8 "enable-background:new    ;">
	<!-- Black fill -->
	<!ENTITY st9 "fill:#000000;stroke:#000000; stroke-linecap:round;stroke-linejoin:round;">
	<!-- SRS note   -->
	<!ENTITY st10 "font-size:9px;font-family:'NSimSun';">
	<!ENTITY st11 "font-size:9px;font-family:'NSimSun';">
	<!ENTITY st12 "font-size:6px;font-family:'NSimSun';">
	<!ENTITY st13 "fill:none;stroke:#ff0000;stroke-linecap:round;stroke-linejoin:round;">
	<!-- Yellow fill  -->
	<!ENTITY st14 "fill:#FFFF00;stroke:#FFFF00; stroke-width:0.1;stroke-linecap:round;stroke-linejoin:round;">
	<!ENTITY st15 "font-size:6px;font-family:'NSimSun';adobe-font-script:japanese;">
	<!ENTITY st16 "1.00 0.00 0.00 1.00">
	<!ENTITY st17 "0.00 -1.00 1.00 0.00">
	<!ENTITY st18 "font-size:6px;font-family:'NSimSun';">
	<!ENTITY st19 "font-size:9px;font-family:'NSimSun';">
	<!ENTITY st20 "font-size:6px;font-family:'NSimSun';adobe-font-script:japanese;">
	<!ENTITY st21 "font-size:7px;font-family:'NSimSun';adobe-font-script:japanese;">
	<!ATTLIST svg
		xmlns:ewd CDATA #FIXED "http://shcl.co.jp/ewd"
		xmlns:a CDATA #FIXED "http://ns.adobe.com/AdobeSVGViewerExtensions/3.0/"
		ewd:ver CDATA #IMPLIED
	>
	<!ATTLIST a
		ewd:lineID CDATA #IMPLIED
		ewd:groupID CDATA #IMPLIED
		ewd:figtype CDATA #IMPLIED
		ewd:code CDATA #IMPLIED
		ewd:figID CDATA #IMPLIED
		ewd:pinNo CDATA #IMPLIED
		ewd:comment CDATA #IMPLIED >
	<!ATTLIST g
		ewd:lineID CDATA #IMPLIED
		ewd:groupID CDATA #IMPLIED
		ewd:figtype CDATA #IMPLIED
		ewd:code CDATA #IMPLIED
		ewd:figID CDATA #IMPLIED
		ewd:pinNo CDATA #IMPLIED
		ewd:comment CDATA #IMPLIED >
	<!ATTLIST text
		ewd:textID CDATA #IMPLIED
		ewd:horAlign CDATA #IMPLIED >
	<!ATTLIST title
		ewd:textID CDATA #IMPLIED >
]>
<!-- Generator: Shintec Hozumi YS   -->
<svg onload="call_execInitLoadProc_svg('system')" style="overflow:visible;  enable-background:new 0 0 1915.255 710.000" viewBox="0 0 1867.804 710.000" height="710.000" width="1867.804" xml:space="preserve" ewd:ver="2.1.2.6F" xmlns="&ns_svg;" xmlns:ewd="http://shcl.co.jp/ewd" xmlns:a="http://ns.adobe.com/AdobeSVGViewerExtensions/3.0/" xmlns:xlink="&ns_xlink;">
<text style="font-size:6px;font-family:'NSimSun';" transform="matrix(&st17;  21.8  130.12 )">R-B</text><text style="font-size:6px;font-family:'NSimSun';" transform="matrix(&st16;  49.64  168.06 )">R-B</text><text style="font-size:6px;font-family:'NSimSun';" transform="matrix(&st16;  99.79  329.53 )">B</text><text style="font-size:6px;font-family:'NSimSun';" transform="matrix(&st17;  472.22  165.22 )">G</text><text style="font-size:6px;font-family:'NSimSun';" transform="matrix(&st17;  149.28  131.22 )">G</text><text style="font-size:6px;font-family:'NSimSun';" transform="matrix(&st16;  337.87  151.06 )">L</text><text style="font-size:6px;font-family:'NSimSun';" transform="matrix(&st16;  490.73  329.53 )">B</text><g ewd:figtype="conn" ewd:figID="1" ewd:code="E36"><path style="stroke-width: 1.42 ;&st7;  " d=" M   382.44,    35.78  L   382.44,    86.77  L  1631.73,    86.77  L  1631.73,    35.78  L   382.44,    35.78  " /><g ewd:figtype="title"><text style="font-size:6px;font-family:'NSimSun';" transform="matrix(&st16;  379.03  32.08 )" ewd:textID="17">主车身 ECU</text><text style="font-size:6px;font-family:'NSimSun';" transform="matrix(&st16;  379.02  24.98 )">E36(A)</text></g><g ewd:lineID="37"><text style="font-size:6px;font-family:'NSimSun';" transform="matrix(&st16;  392.79  83.07 )">ACC</text><text style="font-size:6px;font-family:'NSimSun';" transform="matrix(&st16;  430.08  83.07 )">IG</text><text style="font-size:6px;font-family:'NSimSun';" transform="matrix(&st16;  467.57  83.07 )">BECU</text></g></g><g ewd:figtype="rb" ewd:figID="4" ewd:code="1"><path style="stroke-width: 1.42 ;&st7;  " d=" M    44.62,   197.25  L    40.37,   197.25  " /><path style="stroke-width: 1.42 ;&st7;  " d=" M    44.62,   205.75  L    40.37,   205.75  " /><path style="stroke-width: 1.42 ;&st7;  " d=" M    70.11,   197.25  L    65.86,   197.25  " /><path style="stroke-width: 1.42 ;&st7;  " d=" M    70.11,   205.75  L    65.86,   205.75  " /><path style="stroke-width: 1.42 ;&st7;  " d=" M    70.11,   290.74  L    65.86,   290.74  " /><path style="stroke-width: 1.42 ;&st7;  " d=" M    70.11,   299.24  L    65.86,   299.24  " /><path style="stroke-width: 1.42 ;&st7;   " d=" M    40.37,   197.25  C    38.02    197.25     36.12    199.15     36.12    201.50  " /><path style="stroke-width: 1.42 ;&st7;   " d=" M    36.12,   201.50  C    36.12    203.85     38.02    205.75     40.37    205.75  " /><path style="stroke-width: 1.42 ;&st7;   " d=" M    44.62,   205.75  C    46.96    205.75     48.87    203.85     48.87    201.50  " /><path style="stroke-width: 1.42 ;&st7;   " d=" M    48.87,   201.50  C    48.87    199.15     46.96    197.25     44.62    197.25  " /><path style="stroke-width: 1.42 ;&st7;   " d=" M    65.86,   197.25  C    63.52    197.25     61.61    199.15     61.61    201.50  " /><path style="stroke-width: 1.42 ;&st7;   " d=" M    61.61,   201.50  C    61.61    203.85     63.52    205.75     65.86    205.75  " /><path style="stroke-width: 1.42 ;&st7;   " d=" M    70.11,   205.75  C    72.46    205.75     74.36    203.85     74.36    201.50  " /><path style="stroke-width: 1.42 ;&st7;   " d=" M    74.36,   201.50  C    74.36    199.15     72.46    197.25     70.11    197.25  " /><path style="stroke-width: 1.42 ;&st7;   " d=" M    65.86,   290.74  C    63.52    290.74     61.61    292.64     61.61    294.99  " /><path style="stroke-width: 1.42 ;&st7;   " d=" M    61.61,   294.99  C    61.61    297.33     63.52    299.24     65.86    299.24  " /><path style="stroke-width: 1.42 ;&st7;   " d=" M    70.11,   299.24  C    72.46    299.24     74.36    297.33     74.36    294.99  " /><path style="stroke-width: 1.42 ;&st7;   " d=" M    74.36,   294.99  C    74.36    292.64     72.46    290.74     70.11    290.74  " /><path style="stroke-width: 0.28 ;&st9;  " d=" M    42.49,   210.65  L    45.33,   213.48  L    45.33,   209.23  L    42.49,   206.40  L    39.66,   209.23  L    39.66,   213.48  L    42.49,   210.65  " /><path style="stroke-width: 0.28 ;&st9;  " d=" M    67.99,   210.65  L    70.82,   213.48  L    70.82,   209.23  L    67.99,   206.40  L    65.16,   209.23  L    65.16,   213.48  L    67.99,   210.65  " /><path style="stroke-width: 0.28 ;&st9;  " d=" M    67.99,   285.84  L    65.16,   283.01  L    65.16,   287.26  L    67.99,   290.09  L    70.82,   287.26  L    70.82,   283.01  L    67.99,   285.84  " /><path style="stroke-width: 0.85 ;&st7;  " d=" M    42.49,   205.75  L    42.49,   231.25  " /><path style="stroke-width: 0.85 ;&st7;  " d=" M    67.99,   205.75  L    67.99,   231.25  " /><path style="stroke-width: 0.85 ;&st7;  " d=" M    67.99,   265.24  L    67.99,   290.74  " /><path style="stroke-width: 0.85 ;&st7;  " d=" M    42.49,   265.24  L    42.49,   290.74  " /><text style="font-size:6px;font-family:'NSimSun';" transform="matrix(&st16;  78.75  247.39 )" ewd:textID="13">H-LP<tspan x="0 " dy="6.0">继电器</tspan></text><text style="font-size:6px;font-family:'NSimSun';" transform="matrix(&st16;  36.31  273.43 )">3</text><text style="font-size:6px;font-family:'NSimSun';" transform="matrix(&st16;  61.8  273.43 )">2</text><text style="font-size:6px;font-family:'NSimSun';" transform="matrix(&st16;  36.31  227.56 )">5</text><text style="font-size:6px;font-family:'NSimSun';" transform="matrix(&st16;  61.8  227.56 )">1</text><text style="font-size:6px;font-family:'NSimSun';" transform="matrix(&st16;  40.69  203.47 )">1</text><text style="font-size:6px;font-family:'NSimSun';" transform="matrix(&st16;  66.19  203.47 )">1</text><text style="font-size:6px;font-family:'NSimSun';" transform="matrix(&st16;  66.19  296.96 )">1</text><path style="stroke-width: 1.42 ;&st7;   " d=" M    35.01,   290.60  C    37.15    292.50     40.28    292.56     42.49    290.74  " /><path style="stroke-width: 1.42 ;&st7;   " d=" M    49.98,   290.88  C    47.84    288.97     44.70    288.92     42.49    290.74  " /><path style="stroke-width: 0.85 ;&st7;  " d=" M    42.49,   265.24  L    42.49,   260.99  " /><path style="stroke-width: 0.85 ;&st7;  " d=" M    42.49,   235.50  L    42.49,   231.25  " /><path style="stroke-width: 0.85 ;&st7;  " d=" M    67.99,   231.25  L    67.99,   239.75  " /><path style="stroke-width: 0.85 ;&st7;  " d=" M    67.99,   256.74  L    67.99,   265.24  " /><path style="stroke-width: 1.42 ;&st7;  " d=" M    42.49,   258.16  L    36.83,   235.50  " /><path style="stroke-width: 0.85 ;&st7;   " d=" M    43.91,   259.58  C    43.91    258.79     43.28    258.16     42.49    258.16  " /><path style="stroke-width: 0.85 ;&st7;   " d=" M    42.49,   258.16  C    41.71    258.16     41.08    258.79     41.08    259.58  " /><path style="stroke-width: 0.85 ;&st7;   " d=" M    41.08,   259.58  C    41.08    260.36     41.71    260.99     42.49    260.99  " /><path style="stroke-width: 0.85 ;&st7;   " d=" M    42.49,   260.99  C    43.28    260.99     43.91    260.36     43.91    259.58  " /><path style="stroke-width: 0.85 ;&st7;   " d=" M    43.91,   236.91  C    43.91    236.13     43.28    235.50     42.49    235.50  " /><path style="stroke-width: 0.85 ;&st7;   " d=" M    42.49,   235.50  C    41.71    235.50     41.08    236.13     41.08    236.91  " /><path style="stroke-width: 0.85 ;&st7;   " d=" M    41.08,   236.91  C    41.08    237.69     41.71    238.33     42.49    238.33  " /><path style="stroke-width: 0.85 ;&st7;   " d=" M    42.49,   238.33  C    43.28    238.33     43.91    237.69     43.91    236.91  " /><path style="stroke-width: 0.85 ;&st7;   " d=" M    65.46,   245.77  C    66.83    247.16     69.07    247.19     70.47    245.82  " /><path style="stroke-width: 0.85 ;&st7;   " d=" M    70.47,   245.82  C    71.86    244.45     71.89    242.20     70.52    240.81  " /><path style="stroke-width: 0.85 ;&st7;   " d=" M    70.52,   240.81  C    69.83    240.10     68.98    239.74     67.99    239.74  " /><path style="stroke-width: 0.85 ;&st7;   " d=" M    65.46,   250.72  C    66.83    252.12     69.07    252.14     70.47    250.77  " /><path style="stroke-width: 0.85 ;&st7;   " d=" M    70.47,   250.77  C    71.86    249.40     71.89    247.16     70.52    245.77  " /><path style="stroke-width: 0.85 ;&st7;   " d=" M    70.52,   245.77  C    69.15    244.37     66.91    244.35     65.51    245.71  " /><path style="stroke-width: 0.85 ;&st7;   " d=" M    65.51,   245.71  C    65.49    245.73     65.48    245.75     65.46    245.77  " /><path style="stroke-width: 0.85 ;&st7;   " d=" M    67.99,   256.74  C    69.94    256.74     71.53    255.16     71.53    253.20  " /><path style="stroke-width: 0.85 ;&st7;   " d=" M    71.53,   253.20  C    71.53    251.25     69.94    249.66     67.99    249.66  " /><path style="stroke-width: 0.85 ;&st7;   " d=" M    67.99,   249.66  C    67.00    249.66     66.15    250.02     65.46    250.72  " /><path style="stroke-width: 1.42 ;&st7;  " d=" M    76.49,   231.25  L    33.99,   231.25  L    33.99,   265.24  L    76.49,   265.24  L    76.49,   231.25  " /></g><g ewd:figtype="rb" ewd:figID="6" ewd:code="FUSE5"><path style="stroke-width: 1.42 ;&st7;  " d=" M   155.10,    95.27  L   150.85,    95.27  " /><path style="stroke-width: 1.42 ;&st7;  " d=" M   155.10,   103.77  L   150.85,   103.77  " /><path style="stroke-width: 1.42 ;&st7;   " d=" M   150.85,    95.27  C   148.50     95.27    146.60     97.17    146.60     99.52  " /><path style="stroke-width: 1.42 ;&st7;   " d=" M   146.60,    99.52  C   146.60    101.87    148.50    103.77    150.85    103.77  " /><path style="stroke-width: 1.42 ;&st7;   " d=" M   155.10,   103.77  C   157.45    103.77    159.35    101.87    159.35     99.52  " /><path style="stroke-width: 1.42 ;&st7;   " d=" M   159.35,    99.52  C   159.35     97.17    157.45     95.27    155.10     95.27  " /><path style="stroke-width: 0.28 ;&st9;  " d=" M   152.97,    90.37  L   150.14,    87.54  L   150.14,    91.79  L   152.97,    94.62  L   155.81,    91.79  L   155.81,    87.54  L   152.97,    90.37  " /><path style="stroke-width: 0.85 ;&st7;  " d=" M   152.97,    69.77  L   152.97,    95.27  " /><text style="font-size:6px;font-family:'NSimSun';" transform="matrix(&st16;  169.4  53.34 )">10A <tspan x="0 " dy="6.0">ECU-B </tspan><tspan x="0 " dy="6.0">NO.1</tspan></text><text style="font-size:6px;font-family:'NSimSun';" transform="matrix(&st16;  144.93  32.08 )">(BAT)</text><text style="font-size:6px;font-family:'NSimSun';" transform="matrix(&st16;  151.17  101.49 )">1</text><text style="font-size:6px;font-family:'NSimSun';" transform="matrix(&st16;  146.79  86.47 )">2</text><path style="stroke-width: 1.42 ;&st7;   " d=" M   152.97,    47.11  C   150.24     48.72    149.32     52.25    150.94     54.99  " /><path style="stroke-width: 1.42 ;&st7;   " d=" M   150.94,    54.99  C   151.46     55.87    152.09     56.51    152.97     57.03  " /><path style="stroke-width: 1.42 ;&st7;   " d=" M   152.97,    66.94  C   155.71     65.33    156.62     61.80    155.01     59.06  " /><path style="stroke-width: 1.42 ;&st7;   " d=" M   155.01,    59.06  C   154.49     58.18    153.86     57.55    152.97     57.03  " /><path style="stroke-width: 0.85 ;&st7;   " d=" M   154.39,    45.69  C   154.39     44.91    153.76     44.28    152.97     44.28  " /><path style="stroke-width: 0.85 ;&st7;   " d=" M   152.97,    44.28  C   152.19     44.28    151.56     44.91    151.56     45.69  " /><path style="stroke-width: 0.85 ;&st7;   " d=" M   151.56,    45.69  C   151.56     46.48    152.19     47.11    152.97     47.11  " /><path style="stroke-width: 0.85 ;&st7;   " d=" M   152.97,    47.11  C   153.76     47.11    154.39     46.48    154.39     45.69  " /><path style="stroke-width: 0.85 ;&st7;   " d=" M   154.39,    68.36  C   154.39     67.57    153.76     66.94    152.97     66.94  " /><path style="stroke-width: 0.85 ;&st7;   " d=" M   152.97,    66.94  C   152.19     66.94    151.56     67.57    151.56     68.36  " /><path style="stroke-width: 0.85 ;&st7;   " d=" M   151.56,    68.36  C   151.56     69.14    152.19     69.77    152.97     69.77  " /><path style="stroke-width: 0.85 ;&st7;   " d=" M   152.97,    69.77  C   153.76     69.77    154.39     69.14    154.39     68.36  " /><path style="stroke-width: 1.42 ;&st7;  " d=" M   140.23,    35.78  L   140.23,    78.27  L   165.72,    78.27  L   165.72,    35.78  L   140.23,    35.78  " /></g><g ewd:figtype="rb" ewd:figID="8" ewd:code="FUSE29"><path style="stroke-width: 0.85 ;&st7;  " d=" M    25.50,    69.77  L    25.50,    95.27  " /><path style="stroke-width: 1.42 ;&st7;  " d=" M    27.62,   103.77  L    23.37,   103.77  " /><path style="stroke-width: 1.42 ;&st7;  " d=" M    27.62,    95.27  L    23.37,    95.27  " /><path style="stroke-width: 1.42 ;&st7;   " d=" M    31.87,    99.52  C    31.87     97.17     29.97     95.27     27.62     95.27  " /><path style="stroke-width: 1.42 ;&st7;   " d=" M    27.62,   103.77  C    29.97    103.77     31.87    101.87     31.87     99.52  " /><path style="stroke-width: 1.42 ;&st7;   " d=" M    19.12,    99.52  C    19.12    101.87     21.02    103.77     23.37    103.77  " /><path style="stroke-width: 1.42 ;&st7;   " d=" M    23.37,    95.27  C    21.02     95.27     19.12     97.17     19.12     99.52  " /><path style="stroke-width: 0.28 ;&st9;  " d=" M    25.50,    90.37  L    22.66,    87.54  L    22.66,    91.79  L    25.50,    94.62  L    28.33,    91.79  L    28.33,    87.54  L    25.50,    90.37  " /><text style="font-size:6px;font-family:'NSimSun';" transform="matrix(&st16;  17.45  32.08 )">(BAT)</text><text style="font-size:6px;font-family:'NSimSun';" transform="matrix(&st16;  19.31  86.47 )">2</text><text style="font-size:6px;font-family:'NSimSun';" transform="matrix(&st16;  23.7  101.49 )">1</text><text style="font-size:6px;font-family:'NSimSun';" transform="matrix(&st16;  41.92  56.17 )">40A <tspan x="0 " dy="6.0">H-LP-MAIN</tspan></text><path style="stroke-width: 0.85 ;&st7;   " d=" M    26.91,    68.36  C    26.91     67.57     26.28     66.94     25.50     66.94  " /><path style="stroke-width: 0.85 ;&st7;   " d=" M    25.50,    66.94  C    24.71     66.94     24.08     67.57     24.08     68.36  " /><path style="stroke-width: 0.85 ;&st7;   " d=" M    24.08,    68.36  C    24.08     69.14     24.71     69.77     25.50     69.77  " /><path style="stroke-width: 0.85 ;&st7;   " d=" M    25.50,    69.77  C    26.28     69.77     26.91     69.14     26.91     68.36  " /><path style="stroke-width: 0.85 ;&st7;   " d=" M    26.91,    45.69  C    26.91     44.91     26.28     44.28     25.50     44.28  " /><path style="stroke-width: 0.85 ;&st7;   " d=" M    25.50,    44.28  C    24.71     44.28     24.08     44.91     24.08     45.69  " /><path style="stroke-width: 0.85 ;&st7;   " d=" M    24.08,    45.69  C    24.08     46.48     24.71     47.11     25.50     47.11  " /><path style="stroke-width: 0.85 ;&st7;   " d=" M    25.50,    47.11  C    26.28     47.11     26.91     46.48     26.91     45.69  " /><path style="stroke-width: 1.42 ;&st7;   " d=" M    25.50,    66.94  C    28.23     65.33     29.15     61.80     27.53     59.06  " /><path style="stroke-width: 1.42 ;&st7;   " d=" M    27.53,    59.06  C    27.01     58.18     26.38     57.55     25.50     57.03  " /><path style="stroke-width: 1.42 ;&st7;   " d=" M    25.50,    47.11  C    22.76     48.72     21.85     52.25     23.46     54.99  " /><path style="stroke-width: 1.42 ;&st7;   " d=" M    23.46,    54.99  C    23.98     55.87     24.61     56.51     25.50     57.03  " /><path style="stroke-width: 1.42 ;&st7;  " d=" M    12.75,    35.78  L    12.75,    78.27  L    38.24,    78.27  L    38.24,    35.78  L    12.75,    35.78  " /></g><g ewd:figtype="jb" ewd:figID="23" ewd:code="3"><path style="stroke-width: 1.42 ;&st7;  " d=" M   478.05,   120.77  L   473.80,   120.77  " /><path style="stroke-width: 1.42 ;&st7;  " d=" M   478.05,   129.26  L   473.80,   129.26  " /><path style="stroke-width: 1.42 ;&st7;  " d=" M   435.55,   120.77  L   431.30,   120.77  " /><path style="stroke-width: 1.42 ;&st7;  " d=" M   435.55,   129.26  L   431.30,   129.26  " /><path style="stroke-width: 1.42 ;&st7;  " d=" M   257.08,   120.77  L   252.83,   120.77  " /><path style="stroke-width: 1.42 ;&st7;  " d=" M   257.08,   129.26  L   252.83,   129.26  " /><path style="stroke-width: 1.42 ;&st7;   " d=" M   322.95,    47.11  C   320.21     48.72    319.30     52.25    320.91     54.99  " /><path style="stroke-width: 1.42 ;&st7;   " d=" M   320.91,    54.99  C   321.43     55.87    322.06     56.51    322.95     57.03  " /><path style="stroke-width: 1.42 ;&st7;   " d=" M   322.95,    66.94  C   325.68     65.33    326.60     61.80    324.98     59.06  " /><path style="stroke-width: 1.42 ;&st7;   " d=" M   324.98,    59.06  C   324.46     58.18    323.83     57.55    322.95     57.03  " /><path style="stroke-width: 0.85 ;&st7;   " d=" M   324.36,    45.69  C   324.36     44.91    323.73     44.28    322.95     44.28  " /><path style="stroke-width: 0.85 ;&st7;   " d=" M   322.95,    44.28  C   322.16     44.28    321.53     44.91    321.53     45.69  " /><path style="stroke-width: 0.85 ;&st7;   " d=" M   321.53,    45.69  C   321.53     46.48    322.16     47.11    322.95     47.11  " /><path style="stroke-width: 0.85 ;&st7;   " d=" M   322.95,    47.11  C   323.73     47.11    324.36     46.48    324.36     45.69  " /><path style="stroke-width: 0.85 ;&st7;   " d=" M   324.36,    68.36  C   324.36     67.57    323.73     66.94    322.95     66.94  " /><path style="stroke-width: 0.85 ;&st7;   " d=" M   322.95,    66.94  C   322.16     66.94    321.53     67.57    321.53     68.36  " /><path style="stroke-width: 0.85 ;&st7;   " d=" M   321.53,    68.36  C   321.53     69.14    322.16     69.77    322.95     69.77  " /><path style="stroke-width: 0.85 ;&st7;   " d=" M   322.95,    69.77  C   323.73     69.77    324.36     69.14    324.36     68.36  " /><path style="stroke-width: 1.42 ;&st7;   " d=" M   473.80,   120.77  C   471.45    120.77    469.55    122.67    469.55    125.01  " /><path style="stroke-width: 1.42 ;&st7;   " d=" M   469.55,   125.01  C   469.55    127.36    471.45    129.26    473.80    129.26  " /><path style="stroke-width: 1.42 ;&st7;   " d=" M   478.05,   129.26  C   480.39    129.26    482.29    127.36    482.29    125.01  " /><path style="stroke-width: 1.42 ;&st7;   " d=" M   482.29,   125.01  C   482.29    122.67    480.39    120.77    478.05    120.77  " /><path style="stroke-width: 1.42 ;&st7;   " d=" M   254.96,    47.11  C   252.22     48.72    251.31     52.25    252.92     54.99  " /><path style="stroke-width: 1.42 ;&st7;   " d=" M   252.92,    54.99  C   253.44     55.87    254.08     56.51    254.96     57.03  " /><path style="stroke-width: 1.42 ;&st7;   " d=" M   254.96,    66.94  C   257.70     65.33    258.61     61.80    256.99     59.06  " /><path style="stroke-width: 1.42 ;&st7;   " d=" M   256.99,    59.06  C   256.47     58.18    255.84     57.55    254.96     57.03  " /><path style="stroke-width: 0.85 ;&st7;   " d=" M   256.37,    45.69  C   256.37     44.91    255.74     44.28    254.96     44.28  " /><path style="stroke-width: 0.85 ;&st7;   " d=" M   254.96,    44.28  C   254.18     44.28    253.54     44.91    253.54     45.69  " /><path style="stroke-width: 0.85 ;&st7;   " d=" M   253.54,    45.69  C   253.54     46.48    254.18     47.11    254.96     47.11  " /><path style="stroke-width: 0.85 ;&st7;   " d=" M   254.96,    47.11  C   255.74     47.11    256.37     46.48    256.37     45.69  " /><path style="stroke-width: 0.85 ;&st7;   " d=" M   256.37,    68.36  C   256.37     67.57    255.74     66.94    254.96     66.94  " /><path style="stroke-width: 0.85 ;&st7;   " d=" M   254.96,    66.94  C   254.18     66.94    253.54     67.57    253.54     68.36  " /><path style="stroke-width: 0.85 ;&st7;   " d=" M   253.54,    68.36  C   253.54     69.14    254.18     69.77    254.96     69.77  " /><path style="stroke-width: 0.85 ;&st7;   " d=" M   254.96,    69.77  C   255.74     69.77    256.37     69.14    256.37     68.36  " /><path style="stroke-width: 1.42 ;&st7;   " d=" M   431.30,   120.77  C   428.96    120.77    427.05    122.67    427.05    125.01  " /><path style="stroke-width: 1.42 ;&st7;   " d=" M   427.05,   125.01  C   427.05    127.36    428.96    129.26    431.30    129.26  " /><path style="stroke-width: 1.42 ;&st7;   " d=" M   435.55,   129.26  C   437.90    129.26    439.80    127.36    439.80    125.01  " /><path style="stroke-width: 1.42 ;&st7;   " d=" M   439.80,   125.01  C   439.80    122.67    437.90    120.77    435.55    120.77  " /><path style="stroke-width: 1.42 ;&st7;   " d=" M   252.83,   120.77  C   250.49    120.77    248.58    122.67    248.58    125.01  " /><path style="stroke-width: 1.42 ;&st7;   " d=" M   248.58,   125.01  C   248.58    127.36    250.49    129.26    252.83    129.26  " /><path style="stroke-width: 1.42 ;&st7;   " d=" M   257.08,   129.26  C   259.43    129.26    261.33    127.36    261.33    125.01  " /><path style="stroke-width: 1.42 ;&st7;   " d=" M   261.33,   125.01  C   261.33    122.67    259.43    120.77    257.08    120.77  " /><path style="stroke-width: 0.85 ;&st7;  " d=" M   322.95,    69.77  L   322.95,   120.77  L   399.43,   120.77  L   399.43,    86.77  " /><path style="stroke-width: 1.42 ;&st7;  " d=" M   310.20,    35.78  L   310.20,    78.27  L   335.69,    78.27  L   335.69,    35.78  L   310.20,    35.78  " /><path style="stroke-width: 0.28 ;&st9;  " d=" M   475.92,   115.87  L   473.09,   113.04  L   473.09,   117.29  L   475.92,   120.12  L   478.75,   117.29  L   478.75,   113.04  L   475.92,   115.87  " /><path style="stroke-width: 0.85 ;&st7;  " d=" M   475.92,    86.77  L   475.92,   120.77  " /><path style="stroke-width: 0.85 ;&st7;  " d=" M   433.43,    86.77  L   433.43,   120.77  " /><path style="stroke-width: 0.85 ;&st7;  " d=" M   254.96,    78.27  L   254.96,    69.77  " /><path style="stroke-width: 1.42 ;&st7;  " d=" M   242.21,    35.78  L   242.21,    78.27  L   267.71,    78.27  L   267.71,    35.78  L   242.21,    35.78  " /><path style="stroke-width: 0.85 ;&st7;  " d=" M   254.96,   120.77  L   254.96,    78.27  " /><path style="stroke-width: 0.28 ;&st9;  " d=" M   433.43,   115.87  L   430.59,   113.04  L   430.59,   117.29  L   433.43,   120.12  L   436.26,   117.29  L   436.26,   113.04  L   433.43,   115.87  " /><path style="stroke-width: 0.28 ;&st9;  " d=" M   254.96,   115.87  L   252.12,   113.04  L   252.12,   117.29  L   254.96,   120.12  L   257.79,   117.29  L   257.79,   113.04  L   254.96,   115.87  " /><text style="font-size:6px;font-family:'NSimSun';" transform="matrix(&st16;  339.37  56.17 )">7.5A <tspan x="0 " dy="6.0">ACC</tspan></text><text style="font-size:6px;font-family:'NSimSun';" transform="matrix(&st16;  314.44  32.08 )">(ACC)</text><text style="font-size:6px;font-family:'NSimSun';" transform="matrix(&st16;  390.15  94.96 )">29</text><text style="font-size:6px;font-family:'NSimSun';" transform="matrix(&st16;  466.63  94.96 )">30</text><text style="font-size:6px;font-family:'NSimSun';" transform="matrix(&st16;  472.06  126.98 )">3A</text><text style="font-size:6px;font-family:'NSimSun';" transform="matrix(&st16;  462.31  126.98 )">43</text><text style="font-size:6px;font-family:'NSimSun';" transform="matrix(&st16;  424.14  94.96 )">32</text><text style="font-size:6px;font-family:'NSimSun';" transform="matrix(&st16;  271.38  53.34 )">7.5A <tspan x="0 " dy="6.0">ECU-IG </tspan><tspan x="0 " dy="6.0">NO.4</tspan></text><text style="font-size:6px;font-family:'NSimSun';" transform="matrix(&st16;  249.74  32.08 )">(IG)</text><text style="font-size:6px;font-family:'NSimSun';" transform="matrix(&st16;  316.76  86.47 )">2</text><text style="font-size:6px;font-family:'NSimSun';" transform="matrix(&st16;  429.46  126.98 )">3C</text><text style="font-size:6px;font-family:'NSimSun';" transform="matrix(&st16;  250.99  126.98 )">3C</text><text style="font-size:6px;font-family:'NSimSun';" transform="matrix(&st16;  241.35  126.98 )">17</text><text style="font-size:6px;font-family:'NSimSun';" transform="matrix(&st16;  419.82  126.98 )">51</text><text style="font-size:6px;font-family:'NSimSun';" transform="matrix(&st16;  248.77  86.47 )">2</text></g></svg>