<?xml version="1.0" encoding="utf-8"?>
<!DOCTYPE svg PUBLIC "-//W3C//DTD SVG 1.0//EN" "http://www.w3.org/TR/2001/REC-SVG-20010904/DTD/svg10.dtd"[
	<!ENTITY ns_flows "http://ns.adobe.com/Flows/1.0/">
	<!ENTITY ns_svg "http://www.w3.org/2000/svg">
	<!ENTITY ns_xlink "http://www.w3.org/1999/xlink">
	<!ENTITY st0 "font-size:7px;font-family:'NSimSun';adobe-font-script:japanese;">
	<!ENTITY st1 "font-size:6px;font-family:'NSimSun';">
	<!-- White fill  -->
	<!ENTITY st2 "fill:#FFFFFF;stroke:#000000; stroke-width:1.41;stroke-linecap:round;stroke-linejoin:round;">
	<!-- Yellow fill  -->
	<!ENTITY st3 "fill:#FFFFCC;stroke:#FFFFCC; stroke-width:0.1;stroke-linecap:round;stroke-linejoin:round;">
	<!-- Gray fill  -->
	<!ENTITY st4 "fill:#CCCCCC;stroke:#CCCCCC; stroke-width:0.1;stroke-linecap:round;stroke-linejoin:round;">
	<!-- Light-blue fill -->
	<!ENTITY st5 "fill:#CCECF4;stroke:#000000; stroke-width:1.133;stroke-linecap:round;stroke-linejoin:round;">
	<!ENTITY st6 "fill:none;stroke-linecap:butt; stroke-linejoin:round;">
	<!ENTITY st7 "fill:none;stroke:#000000;stroke-linecap:round;stroke-linejoin:round;">
	<!ENTITY st8 "enable-background:new    ;">
	<!-- Black fill -->
	<!ENTITY st9 "fill:#000000;stroke:#000000; stroke-linecap:round;stroke-linejoin:round;">
	<!-- SRS note   -->
	<!ENTITY st10 "font-size:9px;font-family:'NSimSun';">
	<!ENTITY st11 "font-size:9px;font-family:'NSimSun';">
	<!ENTITY st12 "font-size:6px;font-family:'NSimSun';">
	<!ENTITY st13 "fill:none;stroke:#ff0000;stroke-linecap:round;stroke-linejoin:round;">
	<!-- Yellow fill  -->
	<!ENTITY st14 "fill:#FFFF00;stroke:#FFFF00; stroke-width:0.1;stroke-linecap:round;stroke-linejoin:round;">
	<!ENTITY st15 "font-size:6px;font-family:'NSimSun';adobe-font-script:japanese;">
	<!ENTITY st16 "1.00 0.00 0.00 1.00">
	<!ENTITY st17 "0.00 -1.00 1.00 0.00">
	<!ENTITY st18 "font-size:6px;font-family:'NSimSun';">
	<!ENTITY st19 "font-size:9px;font-family:'NSimSun';">
	<!ENTITY st20 "font-size:6px;font-family:'NSimSun';adobe-font-script:japanese;">
	<!ENTITY st21 "font-size:7px;font-family:'NSimSun';adobe-font-script:japanese;">
	<!ATTLIST svg
		xmlns:ewd CDATA #FIXED "http://shcl.co.jp/ewd"
		xmlns:a CDATA #FIXED "http://ns.adobe.com/AdobeSVGViewerExtensions/3.0/"
		ewd:ver CDATA #IMPLIED
	>
	<!ATTLIST a
		ewd:lineID CDATA #IMPLIED
		ewd:groupID CDATA #IMPLIED
		ewd:figtype CDATA #IMPLIED
		ewd:code CDATA #IMPLIED
		ewd:figID CDATA #IMPLIED
		ewd:pinNo CDATA #IMPLIED
		ewd:comment CDATA #IMPLIED >
	<!ATTLIST g
		ewd:lineID CDATA #IMPLIED
		ewd:groupID CDATA #IMPLIED
		ewd:figtype CDATA #IMPLIED
		ewd:code CDATA #IMPLIED
		ewd:figID CDATA #IMPLIED
		ewd:pinNo CDATA #IMPLIED
		ewd:comment CDATA #IMPLIED >
	<!ATTLIST text
		ewd:textID CDATA #IMPLIED
		ewd:horAlign CDATA #IMPLIED >
	<!ATTLIST title
		ewd:textID CDATA #IMPLIED >
]>
<!-- Generator: Shintec Hozumi YS   -->
<svg onload="call_execInitLoadProc_svg('system')" style="overflow:visible;  enable-background:new 0 0 1915.255 710.000" viewBox="0 0 1867.804 710.000" height="710.000" width="1867.804" xml:space="preserve" ewd:ver="2.1.2.6F" xmlns="&ns_svg;" xmlns:ewd="http://shcl.co.jp/ewd" xmlns:a="http://ns.adobe.com/AdobeSVGViewerExtensions/3.0/" xmlns:xlink="&ns_xlink;"><script type="text/javascript" xlink:href="../../../../../system/js/ewd/fig/svgfig.js" xmlns:xlink="http://www.w3.org/1999/xlink" />
<g id="ewd_top"><a ewd:figtype="conn" style="cursor:pointer;" ewd:code="E36" ewd:figID="1"><path style="&st5;" d=" M   382.44,    35.78  L   382.44,    86.77  L  1631.73,    86.77  L  1631.73,    35.78  L   382.44,    35.78 " /><title ewd:textID="17">主车身 ECU</title></a><a ewd:figtype="conn" style="cursor:pointer;" ewd:code="L54,L55" ewd:figID="2"><path style="&st5;" d=" M  1504.25,   435.21  L  1504.25,   452.21  L  1521.25,   452.21  L  1521.25,   435.21  L  1504.25,   435.21 " /><title ewd:textID="19">7 号接线连接器</title></a><a ewd:figtype="rb" style="cursor:pointer;" ewd:code="4" ewd:figID="3"><path style="fill:#CCECF4;stroke:#000000; stroke-width:0; stroke-linecap:round;stroke-linejoin:round; " d=" M  1300.28,   460.71  L  1257.79,   460.71  L  1257.79,   494.70  L  1300.28,   494.70  L  1300.28,   460.71 " /></a><a ewd:figtype="rb" style="cursor:pointer;" ewd:code="1" ewd:figID="4"><path style="fill:#CCECF4;stroke:#000000; stroke-width:0; stroke-linecap:round;stroke-linejoin:round; " d=" M    76.49,   231.25  L    33.99,   231.25  L    33.99,   265.24  L    76.49,   265.24  L    76.49,   231.25 " /></a><a ewd:figtype="conn" style="cursor:pointer;" ewd:code="E71" ewd:figID="5"><path style="&st5;" d=" M   807.37,   571.19  L   858.36,   571.19  L   858.36,   588.19  L   807.37,   588.19  L   807.37,   571.19 " /><title ewd:textID="18">4 号接线连接器</title></a><a ewd:figtype="rb" style="cursor:pointer;" ewd:code="FUSE5" ewd:figID="6"><path style="fill:#CCECF4;stroke:#000000; stroke-width:0; stroke-linecap:round;stroke-linejoin:round; " d=" M   140.23,    35.78  L   140.23,    78.27  L   165.72,    78.27  L   165.72,    35.78  L   140.23,    35.78 " /></a><a ewd:figtype="conn" style="cursor:pointer;" ewd:code="E55,E59" ewd:figID="7"><path style="&st5;" d=" M  1113.31,   265.24  L  1113.31,   477.71  L  1181.30,   477.71  L  1181.30,   265.24  L  1113.31,   265.24 " /><title ewd:textID="8">组合仪表总成</title></a><a ewd:figtype="rb" style="cursor:pointer;" ewd:code="FUSE29" ewd:figID="8"><path style="fill:#CCECF4;stroke:#000000; stroke-width:0; stroke-linecap:round;stroke-linejoin:round; " d=" M    12.75,    35.78  L    12.75,    78.27  L    38.24,    78.27  L    38.24,    35.78  L    12.75,    35.78 " /></a><a ewd:figtype="rb" style="cursor:pointer;" ewd:code="FUSE36" ewd:figID="9"><path style="fill:#CCECF4;stroke:#000000; stroke-width:0; stroke-linecap:round;stroke-linejoin:round; " d=" M  1321.53,   112.27  L  1321.53,   154.76  L  1347.02,   154.76  L  1347.02,   112.27  L  1321.53,   112.27 " /></a><a ewd:figtype="conn" style="cursor:pointer;" ewd:code="E15" ewd:figID="10"><path style="&st5;" d=" M   620.40,   324.73  L   620.40,   460.71  L  1019.83,   460.71  L  1019.83,   324.73  L   620.40,   324.73 " /><title ewd:textID="15">大灯变光器开关总成</title></a><a ewd:figtype="conn" style="cursor:pointer;" ewd:code="L28" ewd:figID="11"><path style="&st5;" d=" M  1495.75,   511.70  L  1495.75,   562.69  L  1529.74,   562.69  L  1529.74,   511.70  L  1495.75,   511.70 " /><title ewd:textID="23">左后灯总成</title></a><a ewd:figtype="jb" style="cursor:pointer;" ewd:code="3" ewd:figID="17"><path style="&st4; " d=" M  1597.73,    86.77  L  1597.73,   129.26  L  1665.72,   129.26  L  1665.72,    86.77  L  1597.73,    86.77  " /></a><a ewd:figtype="jb" style="cursor:pointer;" ewd:code="3" ewd:figID="18"><path style="&st4; " d=" M   586.40,    86.77  L   586.40,   129.26  L   645.89,   129.26  L   645.89,    86.77  L   586.40,    86.77  " /></a><a ewd:figtype="jb" style="cursor:pointer;" ewd:code="3" ewd:figID="19"><path style="&st4; " d=" M  1215.30,    86.77  L  1215.30,   120.77  L  1240.79,   120.77  L  1240.79,    86.77  L  1215.30,    86.77  " /></a><a ewd:figtype="jb" style="cursor:pointer;" ewd:code="1" ewd:figID="20"><path style="&st4; " d=" M  1317.28,   171.76  L  1317.28,   180.26  L  1342.78,   180.26  L  1342.78,   171.76  L  1317.28,   171.76  " /></a><a ewd:figtype="jb" style="cursor:pointer;" ewd:code="3" ewd:figID="21"><path style="&st4; " d=" M  1249.29,   188.75  L  1308.78,   188.75  L  1308.78,   112.27  L  1249.29,   112.27  L  1249.29,   188.75  " /></a><a ewd:figtype="jb" style="cursor:pointer;" ewd:code="3" ewd:figID="22"><path style="&st4; " d=" M  1283.29,   392.72  L  1283.29,   214.25  L  1376.77,   214.25  L  1376.77,    86.77  L  1436.26,    86.77  L  1436.26,   112.27  L  1529.74,   112.27  L  1529.74,   333.23  L  1419.26,   333.23  L  1419.26,   392.72  L  1283.29,   392.72  " /></a><a ewd:figtype="jb" style="cursor:pointer;" ewd:code="3" ewd:figID="23"><path style="&st4; " d=" M   237.96,   129.26  L   492.92,   129.26  L   492.92,    86.77  L   365.44,    86.77  L   365.44,    35.78  L   237.96,    35.78  L   237.96,   129.26  " /></a><a ewd:figtype="fuse" style="cursor:pointer;" ewd:code="FUSE29" ewd:figID="32"><path style="&st7; stroke-width:0;" d=" M    12.75,    35.78  L    12.75,    78.27  L    38.24,    78.27  L    38.24,    35.78  L    12.75,    35.78 " /></a><a ewd:figtype="fuse" style="cursor:pointer;" ewd:code="FUSE5" ewd:figID="33"><path style="&st7; stroke-width:0;" d=" M   140.23,    35.78  L   140.23,    78.27  L   165.72,    78.27  L   165.72,    35.78  L   140.23,    35.78 " /></a><a ewd:figtype="fuse" style="cursor:pointer;" ewd:code="FUSE47" ewd:figID="34"><path style="&st7; stroke-width:0;" d=" M   242.21,    35.78  L   242.21,    78.27  L   267.71,    78.27  L   267.71,    35.78  L   242.21,    35.78 " /></a><a ewd:figtype="fuse" style="cursor:pointer;" ewd:code="FUSE43" ewd:figID="35"><path style="&st7; stroke-width:0;" d=" M   310.20,    35.78  L   310.20,    78.27  L   335.69,    78.27  L   335.69,    35.78  L   310.20,    35.78 " /></a><a ewd:figtype="fuse" style="cursor:pointer;" ewd:code="FUSE48" ewd:figID="36"><path style="&st7; stroke-width:0;" d=" M  1253.54,   112.27  L  1253.54,   154.76  L  1279.04,   154.76  L  1279.04,   112.27  L  1253.54,   112.27 " /></a><a ewd:figtype="fuse" style="cursor:pointer;" ewd:code="FUSE56" ewd:figID="37"><path style="&st7; stroke-width:0;" d=" M  1296.03,   307.73  L  1296.03,   350.23  L  1321.53,   350.23  L  1321.53,   307.73  L  1296.03,   307.73 " /></a><a ewd:figtype="fuse" style="cursor:pointer;" ewd:code="FUSE36" ewd:figID="38"><path style="&st7; stroke-width:0;" d=" M  1321.53,   112.27  L  1321.53,   154.76  L  1347.02,   154.76  L  1347.02,   112.27  L  1321.53,   112.27 " /></a><a ewd:figtype="fuse" style="cursor:pointer;" ewd:code="FUSE53" ewd:figID="39"><path style="&st7; stroke-width:0;" d=" M  1474.50,   112.27  L  1474.50,   154.76  L  1500.00,   154.76  L  1500.00,   112.27  L  1474.50,   112.27 " /></a><a style="cursor:pointer;" ewd:lineID="1"><path style="stroke:#FF0000;stroke-width: 5.10 ;&st6;" d=" M    42.49,   197.25  L    42.49,   188.75  L    25.50,   171.76  L    25.50,   103.77  " /><path style="stroke:#FFFFFF;stroke-width: 2.27 ;&st6;" d=" M    42.49,   197.25  L    42.49,   188.75  L    25.50,   171.76  L    25.50,   103.77  " /><path style="stroke:#000000;stroke-width: 1.13 ;&st6;" d=" M    42.49,   197.25  L    42.49,   188.75  L    25.50,   171.76  L    25.50,   103.77  " /></a><a style="cursor:pointer;" ewd:lineID="2"><path style="stroke:#FF0000;stroke-width: 5.10 ;&st6;" d=" M    67.99,   197.25  L    67.99,   171.76  L    42.49,   171.76  L    42.49,   197.25  " /><path style="stroke:#FFFFFF;stroke-width: 2.27 ;&st6;" d=" M    67.99,   197.25  L    67.99,   171.76  L    42.49,   171.76  L    42.49,   197.25  " /><path style="stroke:#000000;stroke-width: 1.13 ;&st6;" d=" M    67.99,   197.25  L    67.99,   171.76  L    42.49,   171.76  L    42.49,   197.25  " /></a><a style="cursor:pointer;" ewd:lineID="3"><path style="stroke:#008837;stroke-width: 5.10 ;&st6;" d=" M   152.97,   103.77  L   152.97,   248.24  L   475.92,   248.24  L   475.92,   129.26  " /></a><a style="cursor:pointer;" ewd:lineID="4"><path style="stroke:#00A0C6;stroke-width: 5.10 ;&st6;" d=" M   433.43,   129.26  L   433.43,   154.76  L   254.96,   154.76  L   254.96,   129.26  " /></a><a style="cursor:pointer;" ewd:lineID="5"><path style="stroke:#000000;stroke-width: 5.10 ;&st6;" d=" M   603.40,   129.26  L   603.40,   333.23  L    67.99,   333.23  L    67.99,   299.24  " /></a><a ewd:comment="5" style="cursor:pointer;" ewd:lineID="6"><path style="stroke:#000000;stroke-width: 5.10 ;&st6;" d=" M   637.39,   129.26  L   637.39,   180.26  " /></a><a ewd:comment="2" style="cursor:pointer;" ewd:lineID="7"> d=" M   679.89,   197.25  L   679.89,   307.73  L   705.38,   307.73  L   713.88,   316.23  L   713.88,   324.73 
	
		<path style="stroke:#000000;stroke-width: 5.10 ;&st6;" d=" M   679.89,   197.25  L   679.89,   307.73  L   705.38,   307.73  L   713.88,   316.23  L   713.88,   324.73  " /><path style="stroke:#FFFFFF;stroke-width: 4.53 ;&st6;" d=" M   679.89,   197.25  L   679.89,   307.73  L   705.38,   307.73  L   713.88,   316.23  L   713.88,   324.73  " /></a><a ewd:comment="2" style="cursor:pointer;" ewd:lineID="8"> d=" M   713.88,    95.84  L   713.88,   103.77  L   705.38,   112.27  L   679.89,   112.27  L   679.89,   180.26 
	
		<path style="stroke:#000000;stroke-width: 5.10 ;&st6;" d=" M   713.88,    95.84  L   713.88,   103.77  L   705.38,   112.27  L   679.89,   112.27  L   679.89,   180.26  " /><path style="stroke:#FFFFFF;stroke-width: 4.53 ;&st6;" d=" M   713.88,    95.84  L   713.88,   103.77  L   705.38,   112.27  L   679.89,   112.27  L   679.89,   180.26  " /></a><a ewd:comment="1" style="cursor:pointer;" ewd:lineID="9"> d=" M   713.88,    95.84  L   713.88,   324.73 
	
		<path style="stroke:#000000;stroke-width: 5.10 ;&st6;" d=" M   713.88,    95.84  L   713.88,   324.73  " /><path style="stroke:#FFFFFF;stroke-width: 4.53 ;&st6;" d=" M   713.88,    95.84  L   713.88,   324.73  " /></a><a ewd:comment="5" style="cursor:pointer;" ewd:lineID="10"><path style="stroke:#000000;stroke-width: 5.10 ;&st6;" d=" M   747.88,   324.73  L   747.88,   316.23  L   730.88,   299.24  L   730.88,   282.24  L   637.39,   282.24  L   637.39,   197.25  " /></a><a ewd:comment="4" style="cursor:pointer;" ewd:lineID="11"><path style="stroke:#00A0C6;stroke-width: 5.10 ;&st6;" d=" M   747.88,    95.84  L   747.88,   324.73  " /></a><a style="cursor:pointer;" ewd:lineID="12"><path style="stroke:#000000;stroke-width: 5.10 ;&st6;" d=" M   815.86,   588.19  L   815.86,   681.67  " /><path style="stroke:#FFFFFF;stroke-width: 4.53 ;&st6;" d=" M   815.86,   588.19  L   815.86,   681.67  " /><path style="stroke:#000000;stroke-width: 1.13 ;&st6;" d=" M   815.86,   588.19  L   815.86,   681.67  " /></a><a style="cursor:pointer;" ewd:lineID="13"><path style="stroke:#000000;stroke-width: 5.10 ;&st6;" d=" M   815.86,   460.71  L   815.86,   571.19  " /><path style="stroke:#FFFFFF;stroke-width: 4.53 ;&st6;" d=" M   815.86,   460.71  L   815.86,   571.19  " /><path style="stroke:#000000;stroke-width: 1.13 ;&st6;" d=" M   815.86,   460.71  L   815.86,   571.19  " /></a><a style="cursor:pointer;" ewd:lineID="14"><path style="stroke:#000000;stroke-width: 5.10 ;&st6;" d=" M   849.86,   571.19  L   849.86,   511.70  L   951.84,   511.70  L   951.84,   460.71  " /><path style="stroke:#FFFFFF;stroke-width: 4.53 ;&st6;" d=" M   849.86,   571.19  L   849.86,   511.70  L   951.84,   511.70  L   951.84,   460.71  " /><path style="stroke:#000000;stroke-width: 1.13 ;&st6;" d=" M   849.86,   571.19  L   849.86,   511.70  L   951.84,   511.70  L   951.84,   460.71  " /></a><a ewd:comment="5" style="cursor:pointer;" ewd:lineID="15"><path style="stroke:#00A0C6;stroke-width: 5.10 ;&st6;" d=" M   917.85,   324.73  L   917.85,   316.23  L   934.84,   299.24  L   934.84,   282.24  L  1096.32,   282.24  L  1096.32,   571.19  L  1291.78,   571.19  L  1291.78,   520.20  " /></a><a ewd:comment="4" style="cursor:pointer;" ewd:lineID="16"><path style="stroke:#008837;stroke-width: 5.10 ;&st6;" d=" M   917.85,    95.84  L   917.85,   324.73  " /></a><a ewd:comment="5" style="cursor:pointer;" ewd:lineID="17"><path style="stroke:#99D9E8;stroke-width: 5.10 ;&st6;" d=" M   985.84,   324.73  L   985.84,   316.23  L   994.33,   307.73  L  1079.32,   307.73  L  1079.32,   596.69  L  1461.76,   596.69  L  1461.76,   333.23  " /></a><a ewd:comment="4" style="cursor:pointer;" ewd:lineID="18"><path style="stroke:#99D9E8;stroke-width: 5.10 ;&st6;" d=" M   985.84,    95.84  L   985.84,   324.73  " /></a><a style="cursor:pointer;" ewd:lineID="19"><path style="stroke:#992903;stroke-width: 5.10 ;&st6;" d=" M  1138.81,   486.77  L  1138.81,   681.67  " /></a><a style="cursor:pointer;" ewd:lineID="20"><path style="stroke:#FF0000;stroke-width: 5.10 ;&st6;" d=" M  1155.81,   256.18  L  1155.81,   197.25  L  1206.80,   197.25  L  1206.80,   622.18  L  1487.25,   622.18  L  1487.25,   333.23  " /></a><a ewd:comment="4" style="cursor:pointer;" ewd:lineID="21"><path style="stroke:#00A0C6;stroke-width: 5.10 ;&st6;" d=" M  1232.29,   120.77  L  1232.29,   537.20  L  1283.29,   537.20  L  1291.78,   528.70  L  1291.78,   520.20  " /></a><a style="cursor:pointer;" ewd:lineID="22"><path style="stroke:#008837;stroke-width: 5.10 ;&st6;" d=" M  1266.29,   188.75  L  1266.29,   435.21  " /></a><a style="cursor:pointer;" ewd:lineID="23"><path style="stroke:#00A0C6;stroke-width: 5.10 ;&st6;" d=" M  1291.78,   435.21  L  1291.78,   409.72  L  1308.78,   409.72  L  1308.78,   392.72  " /></a><a style="cursor:pointer;" ewd:lineID="24"> d=" M  1334.28,   180.26  L  1334.28,   214.25 
	
		<path style="stroke:#000000;stroke-width: 5.10 ;&st6;" d=" M  1334.28,   180.26  L  1334.28,   214.25  " /><path style="stroke:#FFFFFF;stroke-width: 4.53 ;&st6;" d=" M  1334.28,   180.26  L  1334.28,   214.25  " /></a><a style="cursor:pointer;" ewd:lineID="25"><path style="stroke:#000000;stroke-width: 5.10 ;&st6;" d=" M  1512.75,   622.18  L  1512.75,   681.67  " /><path style="stroke:#FFFFFF;stroke-width: 4.53 ;&st6;" d=" M  1512.75,   622.18  L  1512.75,   681.67  " /><path style="stroke:#000000;stroke-width: 1.13 ;&st6;" d=" M  1512.75,   622.18  L  1512.75,   681.67  " /></a><a style="cursor:pointer;" ewd:lineID="26"><path style="stroke:#000000;stroke-width: 5.10 ;&st6;" d=" M  1512.75,   562.69  L  1512.75,   605.18  " /><path style="stroke:#FFFFFF;stroke-width: 4.53 ;&st6;" d=" M  1512.75,   562.69  L  1512.75,   605.18  " /><path style="stroke:#000000;stroke-width: 1.13 ;&st6;" d=" M  1512.75,   562.69  L  1512.75,   605.18  " /></a><a style="cursor:pointer;" ewd:lineID="27"><path style="stroke:#99D9E8;stroke-width: 5.10 ;&st6;" d=" M  1512.75,   461.27  L  1512.75,   511.70  " /></a><a style="cursor:pointer;" ewd:lineID="28"><path style="stroke:#99D9E8;stroke-width: 5.10 ;&st6;" d=" M  1512.75,   333.23  L  1512.75,   426.15  " /></a><a style="cursor:pointer;" ewd:lineID="29"><path style="stroke:#000000;stroke-width: 5.10 ;&st6;" d=" M  1614.73,   129.26  L  1614.73,   681.67  " /><path style="stroke:#FFFFFF;stroke-width: 4.53 ;&st6;" d=" M  1614.73,   129.26  L  1614.73,   681.67  " /><path style="stroke:#000000;stroke-width: 1.13 ;&st6;" d=" M  1614.73,   129.26  L  1614.73,   681.67  " /></a><a style="cursor:pointer;" ewd:lineID="30"><path style="stroke:#000000;stroke-width: 5.10 ;&st6;" d=" M  1657.22,   129.26  L  1657.22,   681.67  " /><path style="stroke:#FFFFFF;stroke-width: 4.53 ;&st6;" d=" M  1657.22,   129.26  L  1657.22,   681.67  " /><path style="stroke:#000000;stroke-width: 1.13 ;&st6;" d=" M  1657.22,   129.26  L  1657.22,   681.67  " /></a><a ewd:figtype="gp" style="cursor:pointer;" ewd:code="ED" ewd:figID="24"><path style="&st2;" d=" M   805.24,   681.67  L   826.49,   681.67  L   815.86,   697.25  L   805.24,   681.67 " /><text style="&st8;" transform="matrix(&st16;  811.99  689.46 )"><tspan x="0" style="font-size:6px;font-family:'NSimSun';" y="0">ED</tspan></text></a><a ewd:figtype="gp" style="cursor:pointer;" ewd:code="ED" ewd:figID="25"><path style="&st2;" d=" M  1128.19,   681.67  L  1149.43,   681.67  L  1138.81,   697.25  L  1128.19,   681.67 " /><text style="&st8;" transform="matrix(&st16;  1134.93  689.46 )"><tspan x="0" style="font-size:6px;font-family:'NSimSun';" y="0">ED</tspan></text></a><a ewd:figtype="gp" style="cursor:pointer;" ewd:code="LA" ewd:figID="26"><path style="&st2;" d=" M  1502.12,   681.67  L  1523.37,   681.67  L  1512.75,   697.25  L  1502.12,   681.67 " /><text style="&st8;" transform="matrix(&st16;  1508.98  689.46 )"><tspan x="0" style="font-size:6px;font-family:'NSimSun';" y="0">LA</tspan></text></a><a ewd:figtype="gp" style="cursor:pointer;" ewd:code="EB" ewd:figID="27"><path style="&st2;" d=" M  1604.11,   681.67  L  1625.35,   681.67  L  1614.73,   697.25  L  1604.11,   681.67 " /><text style="&st8;" transform="matrix(&st16;  1611.04  689.46 )"><tspan x="0" style="font-size:6px;font-family:'NSimSun';" y="0">EB</tspan></text></a><a ewd:figtype="gp" style="cursor:pointer;" ewd:code="EA" ewd:figID="28"><path style="&st2;" d=" M  1646.60,   681.67  L  1667.85,   681.67  L  1657.22,   697.25  L  1646.60,   681.67 " /><text style="&st8;" transform="matrix(&st16;  1653.42  689.46 )"><tspan x="0" style="font-size:6px;font-family:'NSimSun';" y="0">EA</tspan></text></a><a ewd:figtype="sp" style="cursor:pointer;" ewd:code="SP19" ewd:figID="29"><path style="&st2;" d=" M   633.14,   180.26  L   641.64,   180.26  L   645.89,   184.50  L   645.89,   193.00  L   641.64,   197.25  L   633.14,   197.25  L   628.89,   193.00  L   628.89,   184.50  L   633.14,   180.26 " /></a><a ewd:figtype="sp" style="cursor:pointer;" ewd:code="SP21" ewd:figID="30"><path style="&st2;" d=" M   675.64,   180.26  L   684.14,   180.26  L   688.38,   184.50  L   688.38,   193.00  L   684.14,   197.25  L   675.64,   197.25  L   671.39,   193.00  L   671.39,   184.50  L   675.64,   180.26 " /></a><a ewd:figtype="sp" style="cursor:pointer;" ewd:code="SP37" ewd:figID="31"><path style="&st2;" d=" M  1508.50,   605.18  L  1517.00,   605.18  L  1521.25,   609.43  L  1521.25,   617.93  L  1517.00,   622.18  L  1508.50,   622.18  L  1504.25,   617.93  L  1504.25,   609.43  L  1508.50,   605.18 " /></a></g></svg>