<?xml version="1.0" encoding="utf-8"?>
<!DOCTYPE svg PUBLIC "-//W3C//DTD SVG 1.0//EN" "http://www.w3.org/TR/2001/REC-SVG-20010904/DTD/svg10.dtd"[
	<!ENTITY ns_flows "http://ns.adobe.com/Flows/1.0/">
	<!ENTITY ns_svg "http://www.w3.org/2000/svg">
	<!ENTITY ns_xlink "http://www.w3.org/1999/xlink">
	<!ENTITY st0 "font-size:7px;font-family:'NSimSun';adobe-font-script:japanese;">
	<!ENTITY st1 "font-size:6px;font-family:'NSimSun';">
	<!-- White fill  -->
	<!ENTITY st2 "fill:#FFFFFF;stroke:#000000; stroke-width:1.41;stroke-linecap:round;stroke-linejoin:round;">
	<!-- Yellow fill  -->
	<!ENTITY st3 "fill:#FFFFCC;stroke:#FFFFCC; stroke-width:0.1;stroke-linecap:round;stroke-linejoin:round;">
	<!-- Gray fill  -->
	<!ENTITY st4 "fill:#CCCCCC;stroke:#CCCCCC; stroke-width:0.1;stroke-linecap:round;stroke-linejoin:round;">
	<!-- Light-blue fill -->
	<!ENTITY st5 "fill:#CCECF4;stroke:#000000; stroke-width:1.133;stroke-linecap:round;stroke-linejoin:round;">
	<!ENTITY st6 "fill:none;stroke-linecap:butt; stroke-linejoin:round;">
	<!ENTITY st7 "fill:none;stroke:#000000;stroke-linecap:round;stroke-linejoin:round;">
	<!ENTITY st8 "enable-background:new    ;">
	<!-- Black fill -->
	<!ENTITY st9 "fill:#000000;stroke:#000000; stroke-linecap:round;stroke-linejoin:round;">
	<!-- SRS note   -->
	<!ENTITY st10 "font-size:9px;font-family:'NSimSun';">
	<!ENTITY st11 "font-size:9px;font-family:'NSimSun';">
	<!ENTITY st12 "font-size:6px;font-family:'NSimSun';">
	<!ENTITY st13 "fill:none;stroke:#ff0000;stroke-linecap:round;stroke-linejoin:round;">
	<!-- Yellow fill  -->
	<!ENTITY st14 "fill:#FFFF00;stroke:#FFFF00; stroke-width:0.1;stroke-linecap:round;stroke-linejoin:round;">
	<!ENTITY st15 "font-size:6px;font-family:'NSimSun';adobe-font-script:japanese;">
	<!ENTITY st16 "1.00 0.00 0.00 1.00">
	<!ENTITY st17 "0.00 -1.00 1.00 0.00">
	<!ENTITY st18 "font-size:6px;font-family:'NSimSun';">
	<!ENTITY st19 "font-size:9px;font-family:'NSimSun';">
	<!ENTITY st20 "font-size:6px;font-family:'NSimSun';adobe-font-script:japanese;">
	<!ENTITY st21 "font-size:7px;font-family:'NSimSun';adobe-font-script:japanese;">
	<!ATTLIST svg
		xmlns:ewd CDATA #FIXED "http://shcl.co.jp/ewd"
		xmlns:a CDATA #FIXED "http://ns.adobe.com/AdobeSVGViewerExtensions/3.0/"
		ewd:ver CDATA #IMPLIED
	>
	<!ATTLIST a
		ewd:lineID CDATA #IMPLIED
		ewd:groupID CDATA #IMPLIED
		ewd:figtype CDATA #IMPLIED
		ewd:code CDATA #IMPLIED
		ewd:figID CDATA #IMPLIED
		ewd:pinNo CDATA #IMPLIED
		ewd:comment CDATA #IMPLIED >
	<!ATTLIST g
		ewd:lineID CDATA #IMPLIED
		ewd:groupID CDATA #IMPLIED
		ewd:figtype CDATA #IMPLIED
		ewd:code CDATA #IMPLIED
		ewd:figID CDATA #IMPLIED
		ewd:pinNo CDATA #IMPLIED
		ewd:comment CDATA #IMPLIED >
	<!ATTLIST text
		ewd:textID CDATA #IMPLIED
		ewd:horAlign CDATA #IMPLIED >
	<!ATTLIST title
		ewd:textID CDATA #IMPLIED >
]>
<!-- Generator: Shintec Hozumi YS   -->
<svg onload="call_execInitLoadProc_svg('system')" style="overflow:visible;  enable-background:new 0 0 1431.134 710.000" viewBox="0 0 1435.251 710.000" height="710.000" width="1435.251" xml:space="preserve" ewd:ver="2.1.2.6F" xmlns="&ns_svg;" xmlns:ewd="http://shcl.co.jp/ewd" xmlns:a="http://ns.adobe.com/AdobeSVGViewerExtensions/3.0/" xmlns:xlink="&ns_xlink;">
<path style="stroke-width: 1.42 ;&st7;  " d=" M   339.94,   406.19  L   334.97,   401.22  " /><path style="stroke-width: 1.42 ;&st7;  " d=" M   322.95,   413.25  L   327.91,   418.22  " /><path style="stroke-width: 1.42 ;&st7;  " d=" M   334.97,   418.22  L   339.94,   413.25  " /><path style="stroke-width: 1.42 ;&st7;  " d=" M   327.91,   401.22  L   322.95,   406.19  " /><text style="font-size:6px;font-family:'NSimSun';" transform="matrix(&st17;  285.26  130.95 )">B</text><text style="font-size:6px;font-family:'NSimSun';" transform="matrix(&st16;  218.77  134.07 )">B</text><text style="font-size:6px;font-family:'NSimSun';" transform="matrix(&st17;  259.76  284.7 )">W</text><text style="font-size:6px;font-family:'NSimSun';" transform="matrix(&st17;  327.75  288.19 )">W-B</text><text style="font-size:6px;font-family:'NSimSun';" transform="matrix(&st17;  327.75  526.15 )">W-B</text><text style="font-size:6px;font-family:'NSimSun';" transform="matrix(&st17;  285.26  283.93 )">B</text><text style="font-size:6px;font-family:'NSimSun';" transform="matrix(&st16;  490.73  304.04 )">B</text><text style="font-size:6px;font-family:'NSimSun';" transform="matrix(&st16;  489.95  329.53 )">W</text><text style="font-size:6px;font-family:'NSimSun';" transform="matrix(&st17;  174.77  453.78 )">L</text><text style="font-size:6px;font-family:'NSimSun';" transform="matrix(&st17;  174.77  283.93 )">B</text><g ewd:figtype="rb" ewd:figID="1" ewd:code="1"><path style="stroke-width: 1.42 ;&st7;  " d=" M   265.58,   154.76  L   261.33,   154.76  " /><path style="stroke-width: 1.42 ;&st7;  " d=" M   265.58,   163.26  L   261.33,   163.26  " /><path style="stroke-width: 1.42 ;&st7;  " d=" M   291.08,   154.76  L   286.83,   154.76  " /><path style="stroke-width: 1.42 ;&st7;  " d=" M   291.08,   163.26  L   286.83,   163.26  " /><path style="stroke-width: 1.42 ;&st7;  " d=" M   265.58,   239.75  L   261.33,   239.75  " /><path style="stroke-width: 1.42 ;&st7;  " d=" M   265.58,   231.25  L   261.33,   231.25  " /><path style="stroke-width: 1.42 ;&st7;  " d=" M   291.08,   231.25  L   286.83,   231.25  " /><path style="stroke-width: 1.42 ;&st7;  " d=" M   291.08,   239.75  L   286.83,   239.75  " /><path style="stroke-width: 1.42 ;&st7;  " d=" M   333.57,   239.75  L   329.32,   239.75  " /><path style="stroke-width: 1.42 ;&st7;  " d=" M   333.57,   231.25  L   329.32,   231.25  " /><path style="stroke-width: 1.42 ;&st7;   " d=" M   337.82,   235.50  C   337.82    233.15    335.92    231.25    333.57    231.25  " /><path style="stroke-width: 1.42 ;&st7;   " d=" M   333.57,   239.75  C   335.92    239.75    337.82    237.84    337.82    235.50  " /><path style="stroke-width: 1.42 ;&st7;   " d=" M   325.07,   235.50  C   325.07    237.84    326.97    239.75    329.32    239.75  " /><path style="stroke-width: 1.42 ;&st7;   " d=" M   329.32,   231.25  C   326.97    231.25    325.07    233.15    325.07    235.50  " /><path style="stroke-width: 1.42 ;&st7;   " d=" M   261.33,   154.76  C   258.98    154.76    257.08    156.66    257.08    159.01  " /><path style="stroke-width: 1.42 ;&st7;   " d=" M   257.08,   159.01  C   257.08    161.36    258.98    163.26    261.33    163.26  " /><path style="stroke-width: 1.42 ;&st7;   " d=" M   265.58,   163.26  C   267.93    163.26    269.83    161.36    269.83    159.01  " /><path style="stroke-width: 1.42 ;&st7;   " d=" M   269.83,   159.01  C   269.83    156.66    267.93    154.76    265.58    154.76  " /><path style="stroke-width: 1.42 ;&st7;   " d=" M   286.83,   154.76  C   284.48    154.76    282.58    156.66    282.58    159.01  " /><path style="stroke-width: 1.42 ;&st7;   " d=" M   282.58,   159.01  C   282.58    161.36    284.48    163.26    286.83    163.26  " /><path style="stroke-width: 1.42 ;&st7;   " d=" M   291.08,   163.26  C   293.42    163.26    295.33    161.36    295.33    159.01  " /><path style="stroke-width: 1.42 ;&st7;   " d=" M   295.33,   159.01  C   295.33    156.66    293.42    154.76    291.08    154.76  " /><path style="stroke-width: 1.42 ;&st7;   " d=" M   269.83,   235.50  C   269.83    233.15    267.93    231.25    265.58    231.25  " /><path style="stroke-width: 1.42 ;&st7;   " d=" M   265.58,   239.75  C   267.93    239.75    269.83    237.84    269.83    235.50  " /><path style="stroke-width: 1.42 ;&st7;   " d=" M   257.08,   235.50  C   257.08    237.84    258.98    239.75    261.33    239.75  " /><path style="stroke-width: 1.42 ;&st7;   " d=" M   261.33,   231.25  C   258.98    231.25    257.08    233.15    257.08    235.50  " /><path style="stroke-width: 1.42 ;&st7;   " d=" M   286.83,   231.25  C   284.48    231.25    282.58    233.15    282.58    235.50  " /><path style="stroke-width: 1.42 ;&st7;   " d=" M   282.58,   235.50  C   282.58    237.84    284.48    239.75    286.83    239.75  " /><path style="stroke-width: 1.42 ;&st7;   " d=" M   291.08,   239.75  C   293.42    239.75    295.33    237.84    295.33    235.50  " /><path style="stroke-width: 1.42 ;&st7;   " d=" M   295.33,   235.50  C   295.33    233.15    293.42    231.25    291.08    231.25  " /><path style="stroke-width: 0.85 ;&st7;  " d=" M   297.45,   197.25  L   331.44,   197.25  L   331.44,   231.25  " /><path style="stroke-width: 0.28 ;&st9;  " d=" M   331.44,   226.35  L   328.61,   223.52  L   328.61,   227.77  L   331.44,   230.60  L   334.28,   227.77  L   334.28,   223.52  L   331.44,   226.35  " /><path style="stroke-width: 0.28 ;&st9;  " d=" M   263.46,   168.15  L   266.29,   170.99  L   266.29,   166.74  L   263.46,   163.90  L   260.62,   166.74  L   260.62,   170.99  L   263.46,   168.15  " /><path style="stroke-width: 0.85 ;&st7;  " d=" M   288.95,   180.26  L   288.95,   163.26  " /><path style="stroke-width: 0.28 ;&st9;  " d=" M   288.95,   168.15  L   291.78,   170.99  L   291.78,   166.74  L   288.95,   163.90  L   286.12,   166.74  L   286.12,   170.99  L   288.95,   168.15  " /><path style="stroke-width: 0.85 ;&st7;  " d=" M   263.46,   180.26  L   263.46,   163.26  " /><path style="stroke-width: 0.28 ;&st9;  " d=" M   263.46,   226.35  L   260.62,   223.52  L   260.62,   227.77  L   263.46,   230.60  L   266.29,   227.77  L   266.29,   223.52  L   263.46,   226.35  " /><path style="stroke-width: 0.85 ;&st7;  " d=" M   288.95,   214.25  L   288.95,   231.25  " /><path style="stroke-width: 0.28 ;&st9;  " d=" M   288.95,   226.35  L   286.12,   223.52  L   286.12,   227.77  L   288.95,   230.60  L   291.78,   227.77  L   291.78,   223.52  L   288.95,   226.35  " /><path style="stroke-width: 0.85 ;&st7;  " d=" M   263.46,   214.25  L   263.46,   231.25  " /><text style="font-size:6px;font-family:'NSimSun';" transform="matrix(&st16;  329.64  237.47 )">1</text><text style="font-size:6px;font-family:'NSimSun';" transform="matrix(&st16;  261.66  160.98 )">1</text><text style="font-size:6px;font-family:'NSimSun';" transform="matrix(&st16;  287.15  160.98 )">1</text><text style="font-size:6px;font-family:'NSimSun';" transform="matrix(&st16;  261.66  237.47 )">1</text><text style="font-size:6px;font-family:'NSimSun';" transform="matrix(&st16;  287.15  237.47 )">1</text><text style="font-size:6px;font-family:'NSimSun';" transform="matrix(&st16;  257.27  176.56 )">1</text><text style="font-size:6px;font-family:'NSimSun';" transform="matrix(&st16;  282.77  176.56 )">5</text><text style="font-size:6px;font-family:'NSimSun';" transform="matrix(&st16;  257.27  222.44 )">2</text><text style="font-size:6px;font-family:'NSimSun';" transform="matrix(&st16;  282.77  222.44 )">3</text><text style="font-size:6px;font-family:'NSimSun';" transform="matrix(&st17;  251.55  210.73 )" ewd:textID="5">DEF 继电器</text><text style="font-size:6px;font-family:'NSimSun';" transform="matrix(&st16;  300.03  193.56 )">4</text><path style="stroke-width: 1.42 ;&st7;  " d=" M   288.95,   207.17  L   294.62,   184.50  " /><path style="stroke-width: 0.85 ;&st7;  " d=" M   288.95,   214.25  L   288.95,   210.00  " /><path style="stroke-width: 0.85 ;&st7;  " d=" M   288.95,   180.26  L   288.95,   184.50  " /><path style="stroke-width: 0.85 ;&st7;  " d=" M   263.46,   180.26  L   263.46,   188.75  " /><path style="stroke-width: 0.85 ;&st7;  " d=" M   263.46,   205.75  L   263.46,   214.25  " /><path style="stroke-width: 0.85 ;&st7;   " d=" M   290.37,   208.58  C   290.37    207.80    289.73    207.17    288.95    207.17  " /><path style="stroke-width: 0.85 ;&st7;   " d=" M   288.95,   207.17  C   288.17    207.17    287.54    207.80    287.54    208.58  " /><path style="stroke-width: 0.85 ;&st7;   " d=" M   287.54,   208.58  C   287.54    209.37    288.17    210.00    288.95    210.00  " /><path style="stroke-width: 0.85 ;&st7;   " d=" M   288.95,   210.00  C   289.73    210.00    290.37    209.37    290.37    208.58  " /><path style="stroke-width: 0.85 ;&st7;   " d=" M   290.37,   185.92  C   290.37    185.14    289.73    184.50    288.95    184.50  " /><path style="stroke-width: 0.85 ;&st7;   " d=" M   288.95,   184.50  C   288.17    184.50    287.54    185.14    287.54    185.92  " /><path style="stroke-width: 0.85 ;&st7;   " d=" M   287.54,   185.92  C   287.54    186.70    288.17    187.34    288.95    187.34  " /><path style="stroke-width: 0.85 ;&st7;   " d=" M   288.95,   187.34  C   289.73    187.34    290.37    186.70    290.37    185.92  " /><path style="stroke-width: 0.85 ;&st7;   " d=" M   260.93,   194.77  C   262.30    196.17    264.54    196.19    265.93    194.82  " /><path style="stroke-width: 0.85 ;&st7;   " d=" M   265.93,   194.82  C   267.33    193.46    267.35    191.21    265.99    189.82  " /><path style="stroke-width: 0.85 ;&st7;   " d=" M   265.99,   189.82  C   265.29    189.11    264.45    188.75    263.46    188.75  " /><path style="stroke-width: 0.85 ;&st7;   " d=" M   260.93,   199.73  C   262.30    201.13    264.54    201.15    265.93    199.78  " /><path style="stroke-width: 0.85 ;&st7;   " d=" M   265.93,   199.78  C   267.33    198.41    267.35    196.17    265.99    194.77  " /><path style="stroke-width: 0.85 ;&st7;   " d=" M   265.99,   194.77  C   264.62    193.38    262.37    193.35    260.98    194.72  " /><path style="stroke-width: 0.85 ;&st7;   " d=" M   260.98,   194.72  C   260.96    194.74    260.94    194.76    260.93    194.77  " /><path style="stroke-width: 0.85 ;&st7;   " d=" M   263.46,   205.75  C   265.41    205.75    267.00    204.17    267.00    202.21  " /><path style="stroke-width: 0.85 ;&st7;   " d=" M   267.00,   202.21  C   267.00    200.25    265.41    198.67    263.46    198.67  " /><path style="stroke-width: 0.85 ;&st7;   " d=" M   263.46,   198.67  C   262.47    198.67    261.62    199.02    260.93    199.73  " /><path style="stroke-width: 0.85 ;&st7;   " d=" M   294.62,   197.25  C   294.62    196.47    293.98    195.84    293.20    195.84  " /><path style="stroke-width: 0.85 ;&st7;   " d=" M   293.20,   195.84  C   292.42    195.84    291.78    196.47    291.78    197.25  " /><path style="stroke-width: 0.85 ;&st7;   " d=" M   291.78,   197.25  C   291.78    198.03    292.42    198.67    293.20    198.67  " /><path style="stroke-width: 0.85 ;&st7;   " d=" M   293.20,   198.67  C   293.98    198.67    294.62    198.03    294.62    197.25  " /><path style="stroke-width: 1.42 ;&st7;  " d=" M   297.45,   180.26  L   254.96,   180.26  L   254.96,   214.25  L   297.45,   214.25  L   297.45,   180.26  " /><path style="stroke-width: 0.85 ;&st7;  " d=" M   297.45,   197.25  L   294.62,   197.25  " /></g><g ewd:figtype="rb" ewd:figID="3" ewd:code="FUSE15"><path style="stroke-width: 1.42 ;&st7;  " d=" M   180.59,   418.22  L   176.35,   418.22  " /><path style="stroke-width: 1.42 ;&st7;  " d=" M   180.59,   409.72  L   176.35,   409.72  " /><path style="stroke-width: 1.42 ;&st7;  " d=" M   180.59,   333.23  L   176.35,   333.23  " /><path style="stroke-width: 1.42 ;&st7;  " d=" M   180.59,   324.73  L   176.35,   324.73  " /><path style="stroke-width: 1.42 ;&st7;   " d=" M   184.84,   413.97  C   184.84    411.62    182.94    409.72    180.59    409.72  " /><path style="stroke-width: 1.42 ;&st7;   " d=" M   180.59,   418.22  C   182.94    418.22    184.84    416.31    184.84    413.97  " /><path style="stroke-width: 1.42 ;&st7;   " d=" M   172.10,   413.97  C   172.10    416.31    174.00    418.22    176.35    418.22  " /><path style="stroke-width: 1.42 ;&st7;   " d=" M   176.35,   409.72  C   174.00    409.72    172.10    411.62    172.10    413.97  " /><path style="stroke-width: 1.42 ;&st7;   " d=" M   184.84,   328.98  C   184.84    326.63    182.94    324.73    180.59    324.73  " /><path style="stroke-width: 1.42 ;&st7;   " d=" M   180.59,   333.23  C   182.94    333.23    184.84    331.33    184.84    328.98  " /><path style="stroke-width: 1.42 ;&st7;   " d=" M   172.10,   328.98  C   172.10    331.33    174.00    333.23    176.35    333.23  " /><path style="stroke-width: 1.42 ;&st7;   " d=" M   176.35,   324.73  C   174.00    324.73    172.10    326.63    172.10    328.98  " /><path style="stroke-width: 0.28 ;&st9;  " d=" M   178.47,   404.82  L   175.64,   401.99  L   175.64,   406.24  L   178.47,   409.07  L   181.30,   406.24  L   181.30,   401.99  L   178.47,   404.82  " /><path style="stroke-width: 0.85 ;&st7;  " d=" M   178.47,   392.72  L   178.47,   409.72  " /><path style="stroke-width: 0.85 ;&st7;  " d=" M   178.47,   333.23  L   178.47,   350.23  " /><path style="stroke-width: 0.28 ;&st9;  " d=" M   178.47,   338.12  L   181.30,   340.96  L   181.30,   336.71  L   178.47,   333.88  L   175.64,   336.71  L   175.64,   340.96  L   178.47,   338.12  " /><text style="font-size:6px;font-family:'NSimSun';" transform="matrix(&st16;  176.67  415.94 )">1</text><text style="font-size:6px;font-family:'NSimSun';" transform="matrix(&st16;  176.67  330.95 )">1</text><text style="font-size:6px;font-family:'NSimSun';" transform="matrix(&st16;  172.29  346.54 )">1</text><text style="font-size:6px;font-family:'NSimSun';" transform="matrix(&st16;  172.29  400.91 )">2</text><text style="font-size:6px;font-family:'NSimSun';" transform="matrix(&st16;  194.89  370.62 )">10A <tspan x="0 " dy="6.0">MIR HTR</tspan></text><path style="stroke-width: 0.85 ;&st7;  " d=" M   178.47,   384.22  L   178.47,   392.72  " /><path style="stroke-width: 1.42 ;&st7;   " d=" M   178.47,   361.56  C   175.73    363.17    174.82    366.70    176.43    369.44  " /><path style="stroke-width: 1.42 ;&st7;   " d=" M   176.43,   369.44  C   176.95    370.32    177.59    370.95    178.47    371.47  " /><path style="stroke-width: 0.85 ;&st7;   " d=" M   179.89,   382.80  C   179.89    382.02    179.25    381.39    178.47    381.39  " /><path style="stroke-width: 0.85 ;&st7;   " d=" M   178.47,   381.39  C   177.69    381.39    177.05    382.02    177.05    382.80  " /><path style="stroke-width: 0.85 ;&st7;   " d=" M   177.05,   382.80  C   177.05    383.59    177.69    384.22    178.47    384.22  " /><path style="stroke-width: 0.85 ;&st7;   " d=" M   178.47,   384.22  C   179.25    384.22    179.89    383.59    179.89    382.80  " /><path style="stroke-width: 0.85 ;&st7;   " d=" M   179.89,   360.14  C   179.89    359.36    179.25    358.73    178.47    358.73  " /><path style="stroke-width: 0.85 ;&st7;   " d=" M   178.47,   358.73  C   177.69    358.73    177.05    359.36    177.05    360.14  " /><path style="stroke-width: 0.85 ;&st7;   " d=" M   177.05,   360.14  C   177.05    360.92    177.69    361.56    178.47    361.56  " /><path style="stroke-width: 0.85 ;&st7;   " d=" M   178.47,   361.56  C   179.25    361.56    179.89    360.92    179.89    360.14  " /><path style="stroke-width: 1.42 ;&st7;   " d=" M   178.47,   381.39  C   181.21    379.78    182.12    376.25    180.51    373.51  " /><path style="stroke-width: 1.42 ;&st7;   " d=" M   180.51,   373.51  C   179.99    372.63    179.35    371.99    178.47    371.47  " /><path style="stroke-width: 1.42 ;&st7;  " d=" M   165.72,   350.23  L   165.72,   392.72  L   191.22,   392.72  L   191.22,   350.23  L   165.72,   350.23  " /><path style="stroke-width: 0.85 ;&st7;  " d=" M   178.47,   350.23  L   178.47,   358.73  " /></g><g ewd:figtype="rb" ewd:figID="4" ewd:code="FUSE32"><path style="stroke-width: 1.42 ;&st7;  " d=" M   291.08,    95.27  L   286.83,    95.27  " /><path style="stroke-width: 1.42 ;&st7;  " d=" M   291.08,   103.77  L   286.83,   103.77  " /><path style="stroke-width: 1.42 ;&st7;   " d=" M   286.83,    95.27  C   284.48     95.27    282.58     97.17    282.58     99.52  " /><path style="stroke-width: 1.42 ;&st7;   " d=" M   282.58,    99.52  C   282.58    101.87    284.48    103.77    286.83    103.77  " /><path style="stroke-width: 1.42 ;&st7;   " d=" M   291.08,   103.77  C   293.42    103.77    295.33    101.87    295.33     99.52  " /><path style="stroke-width: 1.42 ;&st7;   " d=" M   295.33,    99.52  C   295.33     97.17    293.42     95.27    291.08     95.27  " /><path style="stroke-width: 0.85 ;&st7;  " d=" M   288.95,    95.27  L   288.95,    78.27  " /><path style="stroke-width: 0.28 ;&st9;  " d=" M   288.95,    90.37  L   286.12,    87.54  L   286.12,    91.79  L   288.95,    94.62  L   291.78,    91.79  L   291.78,    87.54  L   288.95,    90.37  " /><text style="font-size:6px;font-family:'NSimSun';" transform="matrix(&st16;  282.77  86.47 )">2</text><text style="font-size:6px;font-family:'NSimSun';" transform="matrix(&st16;  305.38  56.17 )">50A <tspan x="0 " dy="6.0">DEF</tspan></text><text style="font-size:6px;font-family:'NSimSun';" transform="matrix(&st16;  287.15  101.49 )">1</text><text style="font-size:6px;font-family:'NSimSun';" transform="matrix(&st16;  280.91  32.08 )">(BAT)</text><path style="stroke-width: 0.85 ;&st7;  " d=" M   288.95,    69.77  L   288.95,    78.27  " /><path style="stroke-width: 0.85 ;&st7;   " d=" M   290.37,    68.36  C   290.37     67.57    289.73     66.94    288.95     66.94  " /><path style="stroke-width: 0.85 ;&st7;   " d=" M   288.95,    66.94  C   288.17     66.94    287.54     67.57    287.54     68.36  " /><path style="stroke-width: 0.85 ;&st7;   " d=" M   287.54,    68.36  C   287.54     69.14    288.17     69.77    288.95     69.77  " /><path style="stroke-width: 0.85 ;&st7;   " d=" M   288.95,    69.77  C   289.73     69.77    290.37     69.14    290.37     68.36  " /><path style="stroke-width: 0.85 ;&st7;   " d=" M   290.37,    45.69  C   290.37     44.91    289.73     44.28    288.95     44.28  " /><path style="stroke-width: 0.85 ;&st7;   " d=" M   288.95,    44.28  C   288.17     44.28    287.54     44.91    287.54     45.69  " /><path style="stroke-width: 0.85 ;&st7;   " d=" M   287.54,    45.69  C   287.54     46.48    288.17     47.11    288.95     47.11  " /><path style="stroke-width: 0.85 ;&st7;   " d=" M   288.95,    47.11  C   289.73     47.11    290.37     46.48    290.37     45.69  " /><path style="stroke-width: 1.42 ;&st7;   " d=" M   288.95,    66.94  C   291.69     65.33    292.60     61.80    290.99     59.06  " /><path style="stroke-width: 1.42 ;&st7;   " d=" M   290.99,    59.06  C   290.47     58.18    289.83     57.55    288.95     57.03  " /><path style="stroke-width: 1.42 ;&st7;   " d=" M   288.95,    47.11  C   286.21     48.72    285.30     52.25    286.91     54.99  " /><path style="stroke-width: 1.42 ;&st7;   " d=" M   286.91,    54.99  C   287.43     55.87    288.07     56.51    288.95     57.03  " /><path style="stroke-width: 1.42 ;&st7;  " d=" M   276.20,    35.78  L   276.20,    78.27  L   301.70,    78.27  L   301.70,    35.78  L   276.20,    35.78  " /></g><g ewd:figtype="conn" ewd:figID="8" ewd:code="A40"><path style="stroke-width: 1.42 ;&st7;  " d=" M   161.47,   511.70  L   195.47,   511.70  L   195.47,   477.71  L   161.47,   477.71  L   161.47,   511.70  " /><g ewd:lineID="1"><text style="font-size:6px;font-family:'NSimSun';" transform="matrix(&st16;  166.67  475.14 )">34</text><path style="stroke-width: 1.42 ;&st7;   " d=" M   183.00,   473.17  C   183.00    470.67    180.97    468.64    178.47    468.64  " /><path style="stroke-width: 1.42 ;&st7;   " d=" M   178.47,   468.64  C   175.97    468.64    173.94    470.67    173.94    473.17  " /><path style="stroke-width: 1.42 ;&st7;   " d=" M   173.94,   473.17  C   173.94    475.68    175.97    477.71    178.47    477.71  " /><path style="stroke-width: 1.42 ;&st7;   " d=" M   178.47,   477.71  C   180.97    477.71    183.00    475.68    183.00    473.17  " /><text style="font-size:6px;font-family:'NSimSun';" transform="matrix(&st16;  176.17  475.14 )">A</text><text style="font-size:6px;font-family:'NSimSun';" transform="matrix(&st16;  171.44  485.34 )">ELS2</text></g><g ewd:figtype="title"><text style="font-size:6px;font-family:'NSimSun';" transform="matrix(&st16;  158.07  526.42 )">ECM</text><text style="font-size:6px;font-family:'NSimSun';" transform="matrix(&st16;  158.06  519.59 )">A40(A)</text></g></g><g ewd:figtype="jb" ewd:figID="15" ewd:code="3"><path style="stroke-width: 0.85 ;&st7;  " d=" M   186.97,    69.77  L   186.97,    78.27  " /><path style="stroke-width: 1.42 ;&st7;  " d=" M   189.09,   103.77  L   184.84,   103.77  " /><path style="stroke-width: 1.42 ;&st7;  " d=" M   189.09,    95.27  L   184.84,    95.27  " /><path style="stroke-width: 1.42 ;&st7;   " d=" M   180.59,    99.52  C   180.59    101.87    182.50    103.77    184.84    103.77  " /><path style="stroke-width: 1.42 ;&st7;   " d=" M   186.97,    47.11  C   184.23     48.72    183.32     52.25    184.93     54.99  " /><path style="stroke-width: 1.42 ;&st7;   " d=" M   184.93,    54.99  C   185.45     55.87    186.09     56.51    186.97     57.03  " /><path style="stroke-width: 1.42 ;&st7;   " d=" M   184.84,    95.27  C   182.50     95.27    180.59     97.17    180.59     99.52  " /><path style="stroke-width: 1.42 ;&st7;   " d=" M   186.97,    66.94  C   189.71     65.33    190.62     61.80    189.01     59.06  " /><path style="stroke-width: 1.42 ;&st7;   " d=" M   189.01,    59.06  C   188.49     58.18    187.85     57.55    186.97     57.03  " /><path style="stroke-width: 0.85 ;&st7;   " d=" M   188.39,    45.69  C   188.39     44.91    187.75     44.28    186.97     44.28  " /><path style="stroke-width: 0.85 ;&st7;   " d=" M   186.97,    44.28  C   186.19     44.28    185.55     44.91    185.55     45.69  " /><path style="stroke-width: 0.85 ;&st7;   " d=" M   185.55,    45.69  C   185.55     46.48    186.19     47.11    186.97     47.11  " /><path style="stroke-width: 0.85 ;&st7;   " d=" M   186.97,    47.11  C   187.75     47.11    188.39     46.48    188.39     45.69  " /><path style="stroke-width: 0.85 ;&st7;   " d=" M   188.39,    68.36  C   188.39     67.57    187.75     66.94    186.97     66.94  " /><path style="stroke-width: 0.85 ;&st7;   " d=" M   186.97,    66.94  C   186.19     66.94    185.55     67.57    185.55     68.36  " /><path style="stroke-width: 0.85 ;&st7;   " d=" M   185.55,    68.36  C   185.55     69.14    186.19     69.77    186.97     69.77  " /><path style="stroke-width: 0.85 ;&st7;   " d=" M   186.97,    69.77  C   187.75     69.77    188.39     69.14    188.39     68.36  " /><path style="stroke-width: 1.42 ;&st7;   " d=" M   189.09,   103.77  C   191.44    103.77    193.34    101.87    193.34     99.52  " /><path style="stroke-width: 1.42 ;&st7;   " d=" M   193.34,    99.52  C   193.34     97.17    191.44     95.27    189.09     95.27  " /><path style="stroke-width: 0.85 ;&st7;  " d=" M   186.97,    95.27  L   186.97,    78.27  " /><path style="stroke-width: 0.28 ;&st9;  " d=" M   186.97,    90.37  L   184.14,    87.54  L   184.14,    91.79  L   186.97,    94.62  L   189.80,    91.79  L   189.80,    87.54  L   186.97,    90.37  " /><path style="stroke-width: 1.42 ;&st7;  " d=" M   199.72,    78.27  L   199.72,    35.78  L   174.22,    35.78  L   174.22,    78.27  L   199.72,    78.27  " /><text style="font-size:6px;font-family:'NSimSun';" transform="matrix(&st16;  181.76  32.08 )">(IG)</text><text style="font-size:6px;font-family:'NSimSun';" transform="matrix(&st16;  183.11  101.49 )">3A</text><text style="font-size:6px;font-family:'NSimSun';" transform="matrix(&st16;  203.39  56.17 )">7.5A <tspan x="0 " dy="6.0">HTR-IG</tspan></text><text style="font-size:6px;font-family:'NSimSun';" transform="matrix(&st16;  173.36  101.49 )">52</text><text style="font-size:6px;font-family:'NSimSun';" transform="matrix(&st16;  180.78  86.47 )">2</text></g><g ewd:figtype="gp" ewd:figID="18" ewd:code="AB"><path style="stroke-width: 0.85 ;&st7;  " d=" M   331.44,   697.25  L   331.44,   701.50  " /><path style="stroke-width: 0.85 ;&st7;  " d=" M   327.20,   704.33  L   335.69,   704.33  " /><path style="stroke-width: 0.85 ;&st7;  " d=" M   328.61,   707.17  L   334.28,   707.17  " /><path style="stroke-width: 0.85 ;&st7;  " d=" M   330.03,   710.00  L   332.86,   710.00  " /><path style="stroke-width: 0.85 ;&st7;  " d=" M   322.95,   701.50  L   339.94,   701.50  " /></g></svg>