<?xml version="1.0" encoding="utf-8"?>
<!DOCTYPE svg PUBLIC "-//W3C//DTD SVG 1.0//EN" "http://www.w3.org/TR/2001/REC-SVG-20010904/DTD/svg10.dtd"[
	<!ENTITY ns_flows "http://ns.adobe.com/Flows/1.0/">
	<!ENTITY ns_svg "http://www.w3.org/2000/svg">
	<!ENTITY ns_xlink "http://www.w3.org/1999/xlink">
	<!ENTITY st0 "font-size:7px;font-family:'NSimSun';adobe-font-script:japanese;">
	<!ENTITY st1 "font-size:6px;font-family:'NSimSun';">
	<!-- White fill  -->
	<!ENTITY st2 "fill:#FFFFFF;stroke:#000000; stroke-width:1.41;stroke-linecap:round;stroke-linejoin:round;">
	<!-- Yellow fill  -->
	<!ENTITY st3 "fill:#FFFFCC;stroke:#FFFFCC; stroke-width:0.1;stroke-linecap:round;stroke-linejoin:round;">
	<!-- Gray fill  -->
	<!ENTITY st4 "fill:#CCCCCC;stroke:#CCCCCC; stroke-width:0.1;stroke-linecap:round;stroke-linejoin:round;">
	<!-- Light-blue fill -->
	<!ENTITY st5 "fill:#CCECF4;stroke:#000000; stroke-width:1.133;stroke-linecap:round;stroke-linejoin:round;">
	<!ENTITY st6 "fill:none;stroke-linecap:butt; stroke-linejoin:round;">
	<!ENTITY st7 "fill:none;stroke:#000000;stroke-linecap:round;stroke-linejoin:round;">
	<!ENTITY st8 "enable-background:new    ;">
	<!-- Black fill -->
	<!ENTITY st9 "fill:#000000;stroke:#000000; stroke-linecap:round;stroke-linejoin:round;">
	<!-- SRS note   -->
	<!ENTITY st10 "font-size:9px;font-family:'NSimSun';">
	<!ENTITY st11 "font-size:9px;font-family:'NSimSun';">
	<!ENTITY st12 "font-size:6px;font-family:'NSimSun';">
	<!ENTITY st13 "fill:none;stroke:#ff0000;stroke-linecap:round;stroke-linejoin:round;">
	<!-- Yellow fill  -->
	<!ENTITY st14 "fill:#FFFF00;stroke:#FFFF00; stroke-width:0.1;stroke-linecap:round;stroke-linejoin:round;">
	<!ENTITY st15 "font-size:6px;font-family:'NSimSun';adobe-font-script:japanese;">
	<!ENTITY st16 "1.00 0.00 0.00 1.00">
	<!ENTITY st17 "0.00 -1.00 1.00 0.00">
	<!ENTITY st18 "font-size:6px;font-family:'NSimSun';">
	<!ENTITY st19 "font-size:9px;font-family:'NSimSun';">
	<!ENTITY st20 "font-size:6px;font-family:'NSimSun';adobe-font-script:japanese;">
	<!ENTITY st21 "font-size:7px;font-family:'NSimSun';adobe-font-script:japanese;">
	<!ATTLIST svg
		xmlns:ewd CDATA #FIXED "http://shcl.co.jp/ewd"
		xmlns:a CDATA #FIXED "http://ns.adobe.com/AdobeSVGViewerExtensions/3.0/"
		ewd:ver CDATA #IMPLIED
	>
	<!ATTLIST a
		ewd:lineID CDATA #IMPLIED
		ewd:groupID CDATA #IMPLIED
		ewd:figtype CDATA #IMPLIED
		ewd:code CDATA #IMPLIED
		ewd:figID CDATA #IMPLIED
		ewd:pinNo CDATA #IMPLIED
		ewd:comment CDATA #IMPLIED >
	<!ATTLIST g
		ewd:lineID CDATA #IMPLIED
		ewd:groupID CDATA #IMPLIED
		ewd:figtype CDATA #IMPLIED
		ewd:code CDATA #IMPLIED
		ewd:figID CDATA #IMPLIED
		ewd:pinNo CDATA #IMPLIED
		ewd:comment CDATA #IMPLIED >
	<!ATTLIST text
		ewd:textID CDATA #IMPLIED
		ewd:horAlign CDATA #IMPLIED >
	<!ATTLIST title
		ewd:textID CDATA #IMPLIED >
]>
<!-- Generator: Shintec Hozumi YS   -->
<svg onload="call_execInitLoadProc_svg('system')" style="overflow:visible;  enable-background:new 0 0 1431.134 710.000" viewBox="0 0 1435.251 710.000" height="710.000" width="1435.251" xml:space="preserve" ewd:ver="2.1.2.6F" xmlns="&ns_svg;" xmlns:ewd="http://shcl.co.jp/ewd" xmlns:a="http://ns.adobe.com/AdobeSVGViewerExtensions/3.0/" xmlns:xlink="&ns_xlink;">
<path style="stroke-width: 1.42 ;&st7;  " d=" M  1155.81,   282.24  L  1164.31,   282.24  " /><text style="font-size:6px;font-family:'NSimSun';" transform="matrix(&st17;  1307.92  227.46 )">(*3)</text><text style="font-size:6px;font-family:'NSimSun';" transform="matrix(&st17;  1307.92  346.44 )">(*3)</text><text style="font-size:6px;font-family:'NSimSun';" transform="matrix(&st16;  1057.11  272.88 )">(*4)</text><text style="font-size:6px;font-family:'NSimSun';" transform="matrix(&st16;  1060.02  261.54 )">V</text><text style="font-size:6px;font-family:'NSimSun';" transform="matrix(&st16;  1057.11  145.4 )">(*4)</text><text style="font-size:6px;font-family:'NSimSun';" transform="matrix(&st16;  1060.13  134.07 )">B</text><text style="font-size:6px;font-family:'NSimSun';" transform="matrix(&st17;  1296.59  344.97 )">SB</text><text style="font-size:6px;font-family:'NSimSun';" transform="matrix(&st17;  1237.1  224.55 )">V</text><text style="font-size:6px;font-family:'NSimSun';" transform="matrix(&st17;  1296.59  224.32 )">L</text><text style="font-size:6px;font-family:'NSimSun';" transform="matrix(&st17;  1364.58  224.44 )">B</text><text style="font-size:6px;font-family:'NSimSun';" transform="matrix(&st16;  1006.12  145.4 )">(*4)</text><text style="font-size:6px;font-family:'NSimSun';" transform="matrix(&st17;  1237.1  455.76 )">BR</text><text style="font-size:6px;font-family:'NSimSun';" transform="matrix(&st16;  1009.14  134.07 )">B</text><text style="font-size:6px;font-family:'NSimSun';" transform="matrix(&st17;  1248.43  227.46 )">(*3)</text><text style="font-size:6px;font-family:'NSimSun';" transform="matrix(&st16;  1006.12  272.88 )">(*4)</text><text style="font-size:6px;font-family:'NSimSun';" transform="matrix(&st16;  1009.03  261.54 )">V</text><text style="font-size:6px;font-family:'NSimSun';" transform="matrix(&st17;  1375.91  227.46 )">(*3)</text><text style="font-size:6px;font-family:'NSimSun';" transform="matrix(&st17;  1398.57  458.16 )">W-B</text><text style="font-size:6px;font-family:'NSimSun';" transform="matrix(&st17;  1409.9  456.92 )">(*3)</text><text style="font-size:6px;font-family:'NSimSun';" transform="matrix(&st17;  1248.43  456.92 )">(*3)</text><text style="font-size:6px;font-family:'NSimSun';" transform="matrix(&st16;  1008.37  329.53 )">W</text><text style="font-size:6px;font-family:'NSimSun';" transform="matrix(&st16;  1059.36  329.53 )">W</text><text style="font-size:6px;font-family:'NSimSun';" transform="matrix(&st16;  1235.58  145.4 )">(*4)</text><text style="font-size:6px;font-family:'NSimSun';" transform="matrix(&st16;  1238.6  134.07 )">B</text><text style="font-size:6px;font-family:'NSimSun';" transform="matrix(&st17;  1237.1  608.73 )">BR</text><text style="font-size:6px;font-family:'NSimSun';" transform="matrix(&st17;  1248.43  609.9 )">(*3)</text><text style="font-size:6px;font-family:'NSimSun';" transform="matrix(&st17;  1398.57  611.14 )">W-B</text><text style="font-size:6px;font-family:'NSimSun';" transform="matrix(&st17;  1409.9  609.9 )">(*3)</text><g ewd:figtype="conn" ewd:figID="2" ewd:code="E20"><path style="stroke-width: 1.42 ;&st7;  " d=" M  1351.27,   265.24  L  1351.27,   307.73  L  1419.26,   307.73  L  1419.26,   265.24  L  1351.27,   265.24  " /><text style="font-size:6px;font-family:'NSimSun';" transform="matrix(&st16; 1363.11 288.81)" ewd:textID="12" ewd:horAlign="center">后窗除雾器开关<tspan x="0 " dy="6.0" /><tspan x="0 " dy="6.0" /></text><text style="font-size:6px;font-family:'NSimSun';" transform="matrix(&st16;  1363.37  272.88 )">IG+</text><text style="font-size:6px;font-family:'NSimSun';" transform="matrix(&st16;  1395.62  304.04 )">GND</text><text style="font-size:6px;font-family:'NSimSun';" transform="matrix(&st16;  1361.7  304.04 )">LIN1</text><text style="font-size:6px;font-family:'NSimSun';" transform="matrix(&st16;  1362.09  315.93 )">6</text><text style="font-size:6px;font-family:'NSimSun';" transform="matrix(&st16;  1362.09  261.55 )">8</text><text style="font-size:6px;font-family:'NSimSun';" transform="matrix(&st16;  1396.08  315.93 )">5</text><g ewd:figtype="title"><text style="font-size:6px;font-family:'NSimSun';" transform="matrix(&st17; 1340.52 310.63)">E20</text><text style="font-size:6px;font-family:'NSimSun';" transform="matrix(&st17; 1347.63 310.64)" ewd:textID="4">空调控制总成<tspan x="0 " dy="6.0" /></text></g></g><g ewd:figtype="conn" ewd:figID="6" ewd:code="E43"><path style="stroke-width: 1.42 ;&st7;  " d=" M  1223.80,   265.24  L  1223.80,   307.73  L  1317.28,   307.73  L  1317.28,   265.24  L  1223.80,   265.24  " /><g ewd:lineID="15"><text style="font-size:6px;font-family:'NSimSun';" transform="matrix(&st16;  1229.0  262.68 )">38</text><path style="stroke-width: 1.42 ;&st7;   " d=" M  1245.33,   260.71  C  1245.33    258.21   1243.30    256.18   1240.79    256.18  " /><path style="stroke-width: 1.42 ;&st7;   " d=" M  1240.79,   256.18  C  1238.29    256.18   1236.26    258.21   1236.26    260.71  " /><path style="stroke-width: 1.42 ;&st7;   " d=" M  1236.26,   260.71  C  1236.26    263.21   1238.29    265.24   1240.79    265.24  " /><path style="stroke-width: 1.42 ;&st7;   " d=" M  1240.79,   265.24  C  1243.30    265.24   1245.33    263.21   1245.33    260.71  " /><text style="font-size:6px;font-family:'NSimSun';" transform="matrix(&st16;  1238.49  262.68 )">A</text><text style="font-size:6px;font-family:'NSimSun';" transform="matrix(&st16;  1232.48  272.88 )">RDFG</text></g><g ewd:lineID="17"><text style="font-size:6px;font-family:'NSimSun';" transform="matrix(&st16;  1229.0  314.24 )">14</text><text style="font-size:6px;font-family:'NSimSun';" transform="matrix(&st16;  1238.49  314.24 )">A</text><path style="stroke-width: 1.42 ;&st7;   " d=" M  1245.33,   312.27  C  1245.33    309.76   1243.30    307.73   1240.79    307.73  " /><path style="stroke-width: 1.42 ;&st7;   " d=" M  1240.79,   307.73  C  1238.29    307.73   1236.26    309.76   1236.26    312.27  " /><path style="stroke-width: 1.42 ;&st7;   " d=" M  1236.26,   312.27  C  1236.26    314.77   1238.29    316.80   1240.79    316.80  " /><path style="stroke-width: 1.42 ;&st7;   " d=" M  1240.79,   316.80  C  1243.30    316.80   1245.33    314.77   1245.33    312.27  " /><text style="font-size:6px;font-family:'NSimSun';" transform="matrix(&st16;  1234.15  304.04 )">GND</text></g><g ewd:lineID="18"><text style="font-size:6px;font-family:'NSimSun';" transform="matrix(&st16;  1291.59  262.68 )">1</text><text style="font-size:6px;font-family:'NSimSun';" transform="matrix(&st16;  1297.98  262.68 )">A</text><path style="stroke-width: 1.42 ;&st7;   " d=" M  1304.82,   260.71  C  1304.82    258.21   1302.79    256.18   1300.28    256.18  " /><path style="stroke-width: 1.42 ;&st7;   " d=" M  1300.28,   256.18  C  1297.78    256.18   1295.75    258.21   1295.75    260.71  " /><path style="stroke-width: 1.42 ;&st7;   " d=" M  1295.75,   260.71  C  1295.75    263.21   1297.78    265.24   1300.28    265.24  " /><path style="stroke-width: 1.42 ;&st7;   " d=" M  1300.28,   265.24  C  1302.79    265.24   1304.82    263.21   1304.82    260.71  " /><text style="font-size:6px;font-family:'NSimSun';" transform="matrix(&st16;  1295.38  272.88 )">IG+</text></g><g ewd:lineID="19"><text style="font-size:6px;font-family:'NSimSun';" transform="matrix(&st16;  1288.49  314.24 )">37</text><path style="stroke-width: 1.42 ;&st7;   " d=" M  1304.82,   312.27  C  1304.82    309.76   1302.79    307.73   1300.28    307.73  " /><path style="stroke-width: 1.42 ;&st7;   " d=" M  1300.28,   307.73  C  1297.78    307.73   1295.75    309.76   1295.75    312.27  " /><path style="stroke-width: 1.42 ;&st7;   " d=" M  1295.75,   312.27  C  1295.75    314.77   1297.78    316.80   1300.28    316.80  " /><path style="stroke-width: 1.42 ;&st7;   " d=" M  1300.28,   316.80  C  1302.79    316.80   1304.82    314.77   1304.82    312.27  " /><text style="font-size:6px;font-family:'NSimSun';" transform="matrix(&st16;  1297.98  314.24 )">A</text><text style="font-size:6px;font-family:'NSimSun';" transform="matrix(&st16;  1293.71  304.04 )">LIN1</text></g><g ewd:figtype="title"><text style="font-size:6px;font-family:'NSimSun';" transform="matrix(&st17;  1220.1  310.64 )" ewd:textID="3">空调放大器总成</text><text style="font-size:6px;font-family:'NSimSun';" transform="matrix(&st17;  1213.28  310.63 )">E43(A)</text></g></g><g ewd:figtype="conn" ewd:figID="9" ewd:code="E71"><path style="stroke-width: 1.42 ;&st7;  " d=" M  1232.29,   511.70  L  1410.76,   511.70  L  1410.76,   528.70  L  1232.29,   528.70  L  1232.29,   511.70  " /><path style="stroke-width: 0.85 ;&st7;  " d=" M  1240.79,   511.70  L  1240.79,   528.70  " /><path style="stroke-width: 0.85 ;&st7;  " d=" M  1402.27,   511.70  L  1402.27,   528.70  " /><text style="font-size:6px;font-family:'NSimSun';" transform="matrix(&st16;  1234.61  536.89 )">1</text><text style="font-size:6px;font-family:'NSimSun';" transform="matrix(&st16;  1234.61  508.01 )">5</text><text style="font-size:6px;font-family:'NSimSun';" transform="matrix(&st16;  1392.98  536.89 )">12</text><text style="font-size:6px;font-family:'NSimSun';" transform="matrix(&st16;  1392.98  508.01 )">14</text><g ewd:figtype="title"><text style="font-size:6px;font-family:'NSimSun';" transform="matrix(&st17;  1425.48  531.6 )" ewd:textID="7">4 号接线连接器</text><text style="font-size:6px;font-family:'NSimSun';" transform="matrix(&st17;  1418.66  531.6 )">E71</text></g></g><g ewd:figtype="jb" ewd:figID="14" ewd:code="3"><path style="stroke-width: 0.85 ;&st7;  " d=" M  1300.28,    69.77  L  1300.28,    78.27  " /><path style="stroke-width: 1.42 ;&st7;  " d=" M  1302.41,   112.27  L  1298.16,   112.27  " /><path style="stroke-width: 1.42 ;&st7;  " d=" M  1302.41,   120.77  L  1298.16,   120.77  " /><path style="stroke-width: 0.85 ;&st7;  " d=" M  1300.28,    78.27  L  1300.28,   112.27  " /><path style="stroke-width: 1.42 ;&st7;  " d=" M  1259.91,   120.77  L  1255.67,   120.77  " /><path style="stroke-width: 1.42 ;&st7;  " d=" M  1259.91,   112.27  L  1255.67,   112.27  " /><path style="stroke-width: 1.42 ;&st7;   " d=" M  1300.28,    47.11  C  1297.54     48.72   1296.63     52.25   1298.25     54.99  " /><path style="stroke-width: 1.42 ;&st7;   " d=" M  1298.25,    54.99  C  1298.77     55.87   1299.40     56.51   1300.28     57.03  " /><path style="stroke-width: 1.42 ;&st7;   " d=" M  1300.28,    66.94  C  1303.02     65.33   1303.93     61.80   1302.32     59.06  " /><path style="stroke-width: 1.42 ;&st7;   " d=" M  1302.32,    59.06  C  1301.80     58.18   1301.16     57.55   1300.28     57.03  " /><path style="stroke-width: 0.85 ;&st7;   " d=" M  1301.70,    45.69  C  1301.70     44.91   1301.07     44.28   1300.28     44.28  " /><path style="stroke-width: 0.85 ;&st7;   " d=" M  1300.28,    44.28  C  1299.50     44.28   1298.87     44.91   1298.87     45.69  " /><path style="stroke-width: 0.85 ;&st7;   " d=" M  1298.87,    45.69  C  1298.87     46.48   1299.50     47.11   1300.28     47.11  " /><path style="stroke-width: 0.85 ;&st7;   " d=" M  1300.28,    47.11  C  1301.07     47.11   1301.70     46.48   1301.70     45.69  " /><path style="stroke-width: 0.85 ;&st7;   " d=" M  1301.70,    68.36  C  1301.70     67.57   1301.07     66.94   1300.28     66.94  " /><path style="stroke-width: 0.85 ;&st7;   " d=" M  1300.28,    66.94  C  1299.50     66.94   1298.87     67.57   1298.87     68.36  " /><path style="stroke-width: 0.85 ;&st7;   " d=" M  1298.87,    68.36  C  1298.87     69.14   1299.50     69.77   1300.28     69.77  " /><path style="stroke-width: 0.85 ;&st7;   " d=" M  1300.28,    69.77  C  1301.07     69.77   1301.70     69.14   1301.70     68.36  " /><path style="stroke-width: 1.42 ;&st7;   " d=" M  1298.16,   112.27  C  1295.81    112.27   1293.91    114.17   1293.91    116.52  " /><path style="stroke-width: 1.42 ;&st7;   " d=" M  1293.91,   116.52  C  1293.91    118.86   1295.81    120.77   1298.16    120.77  " /><path style="stroke-width: 1.42 ;&st7;   " d=" M  1302.41,   120.77  C  1304.75    120.77   1306.66    118.86   1306.66    116.52  " /><path style="stroke-width: 1.42 ;&st7;   " d=" M  1306.66,   116.52  C  1306.66    114.17   1304.75    112.27   1302.41    112.27  " /><path style="stroke-width: 1.42 ;&st7;   " d=" M  1264.16,   116.52  C  1264.16    114.17   1262.26    112.27   1259.91    112.27  " /><path style="stroke-width: 1.42 ;&st7;   " d=" M  1259.91,   120.77  C  1262.26    120.77   1264.16    118.86   1264.16    116.52  " /><path style="stroke-width: 1.42 ;&st7;   " d=" M  1251.42,   116.52  C  1251.42    118.86   1253.32    120.77   1255.67    120.77  " /><path style="stroke-width: 1.42 ;&st7;   " d=" M  1255.67,   112.27  C  1253.32    112.27   1251.42    114.17   1251.42    116.52  " /><path style="stroke-width: 0.28 ;&st9;  " d=" M  1300.28,   107.37  L  1297.45,   104.54  L  1297.45,   108.79  L  1300.28,   111.62  L  1303.12,   108.79  L  1303.12,   104.54  L  1300.28,   107.37  " /><path style="stroke-width: 1.42 ;&st7;  " d=" M  1287.53,    35.78  L  1287.53,    78.27  L  1313.03,    78.27  L  1313.03,    35.78  L  1287.53,    35.78  " /><path style="stroke-width: 0.85 ;&st7;  " d=" M  1299.09,    94.27  L  1298.82,    94.74  L  1298.72,    95.27  L  1298.82,    95.80  L  1299.09,    96.27  L  1299.50,    96.62  L  1300.01,    96.81  L  1300.55,    96.81  L  1301.06,    96.62  L  1301.47,    96.27  L  1301.75,    95.80  L  1301.84,    95.27  L  1301.75,    94.74  L  1301.47,    94.27  L  1301.06,    93.92  L  1300.55,    93.73  L  1300.01,    93.73  L  1299.50,    93.92  L  1299.09,    94.27  L  1299.48,    94.98  L  1299.48,    95.56  L  1299.86,    96.01  L  1300.43,    96.11  L  1300.93,    95.82  L  1301.13,    95.27  L  1300.93,    94.72  L  1300.43,    94.43  L  1299.86,    94.53  L  1300.28,    95.27  " /><path style="stroke-width: 0.85 ;&st7;  " d=" M  1257.79,   112.27  L  1257.79,    95.27  L  1300.28,    95.27  " /><path style="stroke-width: 0.28 ;&st9;  " d=" M  1257.79,   107.37  L  1254.96,   104.54  L  1254.96,   108.79  L  1257.79,   111.62  L  1260.62,   108.79  L  1260.62,   104.54  L  1257.79,   107.37  " /><text style="font-size:6px;font-family:'NSimSun';" transform="matrix(&st16;  1316.71  56.17 )">7.5A <tspan x="0 " dy="6.0">HTR-IG</tspan></text><text style="font-size:6px;font-family:'NSimSun';" transform="matrix(&st16;  1296.35  118.49 )">3D</text><text style="font-size:6px;font-family:'NSimSun';" transform="matrix(&st16;  1286.67  118.49 )">26</text><text style="font-size:6px;font-family:'NSimSun';" transform="matrix(&st16;  1295.07  32.08 )">(IG)</text><text style="font-size:6px;font-family:'NSimSun';" transform="matrix(&st16;  1294.1  86.47 )">2</text><text style="font-size:6px;font-family:'NSimSun';" transform="matrix(&st16;  1244.18  118.49 )">44</text><text style="font-size:6px;font-family:'NSimSun';" transform="matrix(&st16;  1253.86  118.49 )">3D</text></g><g ewd:figtype="w2w" ewd:figID="17" ewd:code="AE2"><path style="stroke-width: 1.42 ;&st7;  " d=" M  1168.55,   276.57  L  1164.30,   280.82  L  1160.06,   276.57  " /><path style="stroke-width: 1.42 ;&st7;  " d=" M  1160.06,   273.17  L  1164.30,   277.42  L  1168.55,   273.17  " /><text style="font-size:6px;font-family:'NSimSun';" transform="matrix(&st16;  1148.57  288.46 )">14</text></g><g ewd:figtype="gp" ewd:figID="21" ewd:code="EB"><path style="stroke-width: 0.85 ;&st7;  " d=" M  1240.79,   697.25  L  1240.79,   701.50  " /><path style="stroke-width: 0.85 ;&st7;  " d=" M  1232.29,   701.50  L  1249.29,   701.50  " /><path style="stroke-width: 0.85 ;&st7;  " d=" M  1236.54,   704.33  L  1245.04,   704.33  " /><path style="stroke-width: 0.85 ;&st7;  " d=" M  1237.96,   707.17  L  1243.63,   707.17  " /><path style="stroke-width: 0.85 ;&st7;  " d=" M  1239.38,   710.00  L  1242.21,   710.00  " /></g><g ewd:figtype="gp" ewd:figID="22" ewd:code="ED"><path style="stroke-width: 0.85 ;&st7;  " d=" M  1402.27,   697.25  L  1402.27,   701.50  " /><path style="stroke-width: 0.85 ;&st7;  " d=" M  1393.77,   701.50  L  1410.76,   701.50  " /><path style="stroke-width: 0.85 ;&st7;  " d=" M  1398.02,   704.33  L  1406.51,   704.33  " /><path style="stroke-width: 0.85 ;&st7;  " d=" M  1399.43,   707.17  L  1405.10,   707.17  " /><path style="stroke-width: 0.85 ;&st7;  " d=" M  1400.85,   710.00  L  1403.68,   710.00  " /></g><g ewd:code="3" ewd:figID="31" ewd:comment="" ewd:figtype="comment"><text style="font-size:6px;font-family:'NSimSun';" transform="matrix(&st16;  1101.41  37.75 )" ewd:textID="1">* 3 : 自动空调</text></g><g ewd:code="4" ewd:figID="29" ewd:comment="" ewd:figtype="comment"><text style="font-size:6px;font-family:'NSimSun';" transform="matrix(&st16;  1101.41  46.25 )" ewd:textID="2">* 4 : 手动空调</text></g></svg>