<?xml version="1.0" encoding="utf-8"?>
<!DOCTYPE svg PUBLIC "-//W3C//DTD SVG 1.0//EN" "http://www.w3.org/TR/2001/REC-SVG-20010904/DTD/svg10.dtd"[
	<!ENTITY ns_flows "http://ns.adobe.com/Flows/1.0/">
	<!ENTITY ns_svg "http://www.w3.org/2000/svg">
	<!ENTITY ns_xlink "http://www.w3.org/1999/xlink">
	<!ENTITY st0 "font-size:7px;font-family:'NSimSun';adobe-font-script:japanese;">
	<!ENTITY st1 "font-size:6px;font-family:'NSimSun';">
	<!-- White fill  -->
	<!ENTITY st2 "fill:#FFFFFF;stroke:#000000; stroke-width:1.41;stroke-linecap:round;stroke-linejoin:round;">
	<!-- Yellow fill  -->
	<!ENTITY st3 "fill:#FFFFCC;stroke:#FFFFCC; stroke-width:0.1;stroke-linecap:round;stroke-linejoin:round;">
	<!-- Gray fill  -->
	<!ENTITY st4 "fill:#CCCCCC;stroke:#CCCCCC; stroke-width:0.1;stroke-linecap:round;stroke-linejoin:round;">
	<!-- Light-blue fill -->
	<!ENTITY st5 "fill:#CCECF4;stroke:#000000; stroke-width:1.133;stroke-linecap:round;stroke-linejoin:round;">
	<!ENTITY st6 "fill:none;stroke-linecap:butt; stroke-linejoin:round;">
	<!ENTITY st7 "fill:none;stroke:#000000;stroke-linecap:round;stroke-linejoin:round;">
	<!ENTITY st8 "enable-background:new    ;">
	<!-- Black fill -->
	<!ENTITY st9 "fill:#000000;stroke:#000000; stroke-linecap:round;stroke-linejoin:round;">
	<!-- SRS note   -->
	<!ENTITY st10 "font-size:9px;font-family:'NSimSun';">
	<!ENTITY st11 "font-size:9px;font-family:'NSimSun';">
	<!ENTITY st12 "font-size:6px;font-family:'NSimSun';">
	<!ENTITY st13 "fill:none;stroke:#ff0000;stroke-linecap:round;stroke-linejoin:round;">
	<!-- Yellow fill  -->
	<!ENTITY st14 "fill:#FFFF00;stroke:#FFFF00; stroke-width:0.1;stroke-linecap:round;stroke-linejoin:round;">
	<!ENTITY st15 "font-size:6px;font-family:'NSimSun';adobe-font-script:japanese;">
	<!ENTITY st16 "1.00 0.00 0.00 1.00">
	<!ENTITY st17 "0.00 -1.00 1.00 0.00">
	<!ENTITY st18 "font-size:6px;font-family:'NSimSun';">
	<!ENTITY st19 "font-size:9px;font-family:'NSimSun';">
	<!ENTITY st20 "font-size:6px;font-family:'NSimSun';adobe-font-script:japanese;">
	<!ENTITY st21 "font-size:7px;font-family:'NSimSun';adobe-font-script:japanese;">
	<!ATTLIST svg
		xmlns:ewd CDATA #FIXED "http://shcl.co.jp/ewd"
		xmlns:a CDATA #FIXED "http://ns.adobe.com/AdobeSVGViewerExtensions/3.0/"
		ewd:ver CDATA #IMPLIED
	>
	<!ATTLIST a
		ewd:lineID CDATA #IMPLIED
		ewd:groupID CDATA #IMPLIED
		ewd:figtype CDATA #IMPLIED
		ewd:code CDATA #IMPLIED
		ewd:figID CDATA #IMPLIED
		ewd:pinNo CDATA #IMPLIED
		ewd:comment CDATA #IMPLIED >
	<!ATTLIST g
		ewd:lineID CDATA #IMPLIED
		ewd:groupID CDATA #IMPLIED
		ewd:figtype CDATA #IMPLIED
		ewd:code CDATA #IMPLIED
		ewd:figID CDATA #IMPLIED
		ewd:pinNo CDATA #IMPLIED
		ewd:comment CDATA #IMPLIED >
	<!ATTLIST text
		ewd:textID CDATA #IMPLIED
		ewd:horAlign CDATA #IMPLIED >
	<!ATTLIST title
		ewd:textID CDATA #IMPLIED >
]>
<!-- Generator: Shintec Hozumi YS   -->
<svg onload="call_execInitLoadProc_svg('system')" style="overflow:visible;  enable-background:new 0 0 1431.134 710.000" viewBox="0 0 1435.251 710.000" height="710.000" width="1435.251" xml:space="preserve" ewd:ver="2.1.2.6F" xmlns="&ns_svg;" xmlns:ewd="http://shcl.co.jp/ewd" xmlns:a="http://ns.adobe.com/AdobeSVGViewerExtensions/3.0/" xmlns:xlink="&ns_xlink;">
	<script type="text/javascript" xlink:href="../../../../../system/js/ewd/fig/svgfig.js" xmlns:xlink="http://www.w3.org/1999/xlink" />
<g id="ewd_top">
	<a ewd:figtype="rb" style="cursor:pointer;" ewd:code="1" ewd:figID="1">
		<path style="fill:#CCECF4;stroke:#000000; stroke-width:0; stroke-linecap:round;stroke-linejoin:round; " d=" M   297.45,   180.26  L   254.96,   180.26  L   254.96,   214.25  L   297.45,   214.25  L   297.45,   180.26 "/>
	</a>
	<a ewd:figtype="conn" style="cursor:pointer;" ewd:code="E20" ewd:figID="2">
		<path style="&st5;" d=" M  1351.27,   265.24  L  1351.27,   307.73  L  1419.26,   307.73  L  1419.26,   265.24  L  1351.27,   265.24 "/>
		<title ewd:textID="4">空调控制总成</title>
	</a>
	<a ewd:figtype="rb" style="cursor:pointer;" ewd:code="FUSE15" ewd:figID="3">
		<path style="fill:#CCECF4;stroke:#000000; stroke-width:0; stroke-linecap:round;stroke-linejoin:round; " d=" M   165.72,   350.23  L   165.72,   392.72  L   191.22,   392.72  L   191.22,   350.23  L   165.72,   350.23 "/>
	</a>
	<a ewd:figtype="rb" style="cursor:pointer;" ewd:code="FUSE32" ewd:figID="4">
		<path style="fill:#CCECF4;stroke:#000000; stroke-width:0; stroke-linecap:round;stroke-linejoin:round; " d=" M   276.20,    35.78  L   276.20,    78.27  L   301.70,    78.27  L   301.70,    35.78  L   276.20,    35.78 "/>
	</a>
	<a ewd:figtype="conn" style="cursor:pointer;" ewd:code="L8,Q1" ewd:figID="5">
		<path style="&st5;" d=" M   696.88,   494.70  L   696.88,   562.69  L   747.88,   562.69  L   747.88,   494.70  L   696.88,   494.70 "/>
		<title ewd:textID="11">后窗除雾器（背窗玻璃）</title>
	</a>
	<a ewd:figtype="conn" style="cursor:pointer;" ewd:code="E43" ewd:figID="6">
		<path style="&st5;" d=" M  1223.80,   265.24  L  1223.80,   307.73  L  1317.28,   307.73  L  1317.28,   265.24  L  1223.80,   265.24 "/>
		<title ewd:textID="3">空调放大器总成</title>
	</a>
	<a ewd:figtype="conn" style="cursor:pointer;" ewd:code="L25" ewd:figID="7">
		<path style="&st5;" d=" M   586.40,   511.70  L   586.40,   545.69  L   620.40,   545.69  L   620.40,   511.70  L   586.40,   511.70 "/>
		<title ewd:textID="8">静噪滤波器（收音机设定调相器）</title>
	</a>
	<a ewd:figtype="conn" style="cursor:pointer;" ewd:code="A40" ewd:figID="8">
		<path style="&st5;" d=" M   161.47,   511.70  L   195.47,   511.70  L   195.47,   477.71  L   161.47,   477.71  L   161.47,   511.70 "/>
		<title>ECM</title>
	</a>
	<a ewd:figtype="conn" style="cursor:pointer;" ewd:code="E71" ewd:figID="9">
		<path style="&st5;" d=" M  1232.29,   511.70  L  1410.76,   511.70  L  1410.76,   528.70  L  1232.29,   528.70  L  1232.29,   511.70 "/>
		<title ewd:textID="7">4 号接线连接器</title>
	</a>
	<a ewd:figtype="conn" style="cursor:pointer;" ewd:code="E58" ewd:figID="10">
		<path style="&st5;" d=" M   824.36,   579.69  L   824.36,   392.72  L   994.33,   392.72  L   994.33,   579.69  L   824.36,   579.69 "/>
		<title ewd:textID="6">2 号加热器控制装置分总成</title>
	</a>
	<a ewd:figtype="jb" style="cursor:pointer;" ewd:code="3" ewd:figID="14">
		<path style="&st4; " d=" M  1240.79,   120.77  L  1351.27,   120.77  L  1351.27,    35.78  L  1240.79,    35.78  L  1240.79,   120.77  "/>
	</a>
	<a ewd:figtype="jb" style="cursor:pointer;" ewd:code="3" ewd:figID="15">
		<path style="&st4; " d=" M   169.97,    35.78  L   169.97,   103.77  L   237.96,   103.77  L   237.96,    35.78  L   169.97,    35.78  "/>
	</a>
	<a ewd:figtype="fuse" style="cursor:pointer;" ewd:code="FUSE15" ewd:figID="24">
		<path style="&st7; stroke-width:0;" d=" M   165.72,   350.23  L   165.72,   392.72  L   191.22,   392.72  L   191.22,   350.23  L   165.72,   350.23 "/>
	</a>
	<a ewd:figtype="fuse" style="cursor:pointer;" ewd:code="FUSE49" ewd:figID="25">
		<path style="&st7; stroke-width:0;" d=" M   199.72,    78.27  L   199.72,    35.78  L   174.22,    35.78  L   174.22,    78.27  L   199.72,    78.27 "/>
	</a>
	<a ewd:figtype="fuse" style="cursor:pointer;" ewd:code="FUSE32" ewd:figID="26">
		<path style="&st7; stroke-width:0;" d=" M   276.20,    35.78  L   276.20,    78.27  L   301.70,    78.27  L   301.70,    35.78  L   276.20,    35.78 "/>
	</a>
	<a ewd:figtype="fuse" style="cursor:pointer;" ewd:code="FUSE49" ewd:figID="27">
		<path style="&st7; stroke-width:0;" d=" M  1287.53,    35.78  L  1287.53,    78.27  L  1313.03,    78.27  L  1313.03,    35.78  L  1287.53,    35.78 "/>
	</a>
	<a style="cursor:pointer;" ewd:lineID="1">
		<path style="stroke:#00A0C6;stroke-width: 5.10 ;&st6;" d=" M   178.47,   418.22  L   178.47,   468.64  "/>
	</a>
	<a style="cursor:pointer;" ewd:lineID="2">
		<path style="stroke:#000000;stroke-width: 5.10 ;&st6;" d=" M   178.47,   324.73  L   178.47,   256.74  L   280.45,   256.74  L   288.95,   248.24  L   288.95,   239.75  "/>
	</a>
	<a style="cursor:pointer;" ewd:lineID="3">
		<path style="stroke:#000000;stroke-width: 5.10 ;&st6;" d=" M   186.97,   103.77  L   186.97,   137.76  L   263.46,   137.76  L   263.46,   154.76  "/>
	</a>
	<a style="cursor:pointer;" ewd:lineID="4"> d=" M   263.46,   239.75  L   263.46,   333.23  L  1164.31,   333.23  L  1164.31,   290.74 
	
		<path style="stroke:#000000;stroke-width: 5.10 ;&st6;" d=" M   263.46,   239.75  L   263.46,   333.23  L  1164.31,   333.23  L  1164.31,   290.74  "/>
		<path style="stroke:#FFFFFF;stroke-width: 4.53 ;&st6;" d=" M   263.46,   239.75  L   263.46,   333.23  L  1164.31,   333.23  L  1164.31,   290.74  "/>
	</a>
	<a style="cursor:pointer;" ewd:lineID="5">
		<path style="stroke:#000000;stroke-width: 5.10 ;&st6;" d=" M   288.95,   103.77  L   288.95,   154.76  "/>
	</a>
	<a style="cursor:pointer;" ewd:lineID="6">
		<path style="stroke:#000000;stroke-width: 5.10 ;&st6;" d=" M   331.44,   418.22  L   331.44,   681.67  "/>
		<path style="stroke:#FFFFFF;stroke-width: 4.53 ;&st6;" d=" M   331.44,   418.22  L   331.44,   681.67  "/>
		<path style="stroke:#000000;stroke-width: 1.13 ;&st6;" d=" M   331.44,   418.22  L   331.44,   681.67  "/>
	</a>
	<a style="cursor:pointer;" ewd:lineID="7">
		<path style="stroke:#000000;stroke-width: 5.10 ;&st6;" d=" M   331.44,   239.75  L   331.44,   401.22  "/>
		<path style="stroke:#FFFFFF;stroke-width: 4.53 ;&st6;" d=" M   331.44,   239.75  L   331.44,   401.22  "/>
		<path style="stroke:#000000;stroke-width: 1.13 ;&st6;" d=" M   331.44,   239.75  L   331.44,   401.22  "/>
	</a>
	<a style="cursor:pointer;" ewd:lineID="8">
		<path style="stroke:#000000;stroke-width: 5.10 ;&st6;" d=" M   603.40,   511.70  L   603.40,   373.46  "/>
	</a>
	<a style="cursor:pointer;" ewd:lineID="9">
		<path style="stroke:#000000;stroke-width: 5.10 ;&st6;" d=" M   603.40,   511.70  L   603.40,   503.20  L   620.40,   486.20  L   620.40,   435.21  L   722.38,   435.21  L   722.38,   485.64  "/>
	</a>
	<a style="cursor:pointer;" ewd:lineID="10">
		<path style="stroke:#000000;stroke-width: 5.10 ;&st6;" d=" M   603.40,   358.73  L   603.40,   307.73  L   288.95,   307.73  L   288.95,   239.75  "/>
	</a>
	<a style="cursor:pointer;" ewd:lineID="11">
		<path style="stroke:#000000;stroke-width: 5.10 ;&st6;" d=" M   722.38,   681.67  L   722.38,   571.76  "/>
		<path style="stroke:#FFFFFF;stroke-width: 4.53 ;&st6;" d=" M   722.38,   681.67  L   722.38,   571.76  "/>
		<path style="stroke:#000000;stroke-width: 1.13 ;&st6;" d=" M   722.38,   681.67  L   722.38,   571.76  "/>
	</a>
	<a ewd:comment="4" style="cursor:pointer;" ewd:lineID="12">
		<path style="stroke:#000000;stroke-width: 5.10 ;&st6;" d=" M   858.36,   392.72  L   858.36,   137.76  L  1249.29,   137.76  L  1257.79,   129.26  L  1257.79,   120.77  "/>
	</a>
	<a ewd:comment="4" style="cursor:pointer;" ewd:lineID="13">
		<path style="stroke:#56077D;stroke-width: 5.10 ;&st6;" d=" M   943.34,   392.72  L   943.34,   265.24  L  1155.81,   265.24  L  1164.31,   273.74  L  1164.31,   276.01  "/>
	</a>
	<a ewd:comment="4" style="cursor:pointer;" ewd:lineID="14">
		<path style="stroke:#000000;stroke-width: 5.10 ;&st6;" d=" M   968.84,   579.69  L   968.84,   681.67  "/>
		<path style="stroke:#FFFFFF;stroke-width: 4.53 ;&st6;" d=" M   968.84,   579.69  L   968.84,   681.67  "/>
		<path style="stroke:#000000;stroke-width: 1.13 ;&st6;" d=" M   968.84,   579.69  L   968.84,   681.67  "/>
	</a>
	<a ewd:comment="3" style="cursor:pointer;" ewd:lineID="15">
		<path style="stroke:#56077D;stroke-width: 5.10 ;&st6;" d=" M  1164.31,   276.01  L  1164.31,   188.75  L  1240.79,   188.75  L  1240.79,   256.18  "/>
	</a>
	<a ewd:comment="3" style="cursor:pointer;" ewd:lineID="16">
		<path style="stroke:#992903;stroke-width: 5.10 ;&st6;" d=" M  1240.79,   528.70  L  1240.79,   681.67  "/>
	</a>
	<a ewd:comment="3" style="cursor:pointer;" ewd:lineID="17">
		<path style="stroke:#992903;stroke-width: 5.10 ;&st6;" d=" M  1240.79,   316.80  L  1240.79,   511.70  "/>
	</a>
	<a ewd:comment="3" style="cursor:pointer;" ewd:lineID="18">
		<path style="stroke:#00A0C6;stroke-width: 5.10 ;&st6;" d=" M  1300.28,   256.18  L  1300.28,   120.77  "/>
	</a>
	<a ewd:comment="3" style="cursor:pointer;" ewd:lineID="19">
		<path style="stroke:#99D9E8;stroke-width: 5.10 ;&st6;" d=" M  1368.27,   307.73  L  1368.27,   358.73  L  1300.28,   358.73  L  1300.28,   316.80  "/>
	</a>
	<a ewd:comment="3" style="cursor:pointer;" ewd:lineID="20">
		<path style="stroke:#000000;stroke-width: 5.10 ;&st6;" d=" M  1368.27,   265.24  L  1368.27,   180.26  L  1257.79,   180.26  L  1257.79,   120.77  "/>
	</a>
	<a ewd:comment="3" style="cursor:pointer;" ewd:lineID="21">
		<path style="stroke:#000000;stroke-width: 5.10 ;&st6;" d=" M  1402.27,   528.70  L  1402.27,   681.67  "/>
		<path style="stroke:#FFFFFF;stroke-width: 4.53 ;&st6;" d=" M  1402.27,   528.70  L  1402.27,   681.67  "/>
		<path style="stroke:#000000;stroke-width: 1.13 ;&st6;" d=" M  1402.27,   528.70  L  1402.27,   681.67  "/>
	</a>
	<a ewd:comment="3" style="cursor:pointer;" ewd:lineID="22">
		<path style="stroke:#000000;stroke-width: 5.10 ;&st6;" d=" M  1402.27,   511.70  L  1402.27,   307.73  "/>
		<path style="stroke:#FFFFFF;stroke-width: 4.53 ;&st6;" d=" M  1402.27,   511.70  L  1402.27,   307.73  "/>
		<path style="stroke:#000000;stroke-width: 1.13 ;&st6;" d=" M  1402.27,   511.70  L  1402.27,   307.73  "/>
	</a>
	<g ewd:figtype="rb" ewd:figID="1" ewd:code="1">
		<path style="stroke-width: 1.42 ;&st7;  " d=" M   265.58,   154.76  L   261.33,   154.76  "/>
		<path style="stroke-width: 1.42 ;&st7;  " d=" M   265.58,   163.26  L   261.33,   163.26  "/>
		<path style="stroke-width: 1.42 ;&st7;  " d=" M   291.08,   154.76  L   286.83,   154.76  "/>
		<path style="stroke-width: 1.42 ;&st7;  " d=" M   291.08,   163.26  L   286.83,   163.26  "/>
		<path style="stroke-width: 1.42 ;&st7;  " d=" M   265.58,   239.75  L   261.33,   239.75  "/>
		<path style="stroke-width: 1.42 ;&st7;  " d=" M   265.58,   231.25  L   261.33,   231.25  "/>
		<path style="stroke-width: 1.42 ;&st7;  " d=" M   291.08,   231.25  L   286.83,   231.25  "/>
		<path style="stroke-width: 1.42 ;&st7;  " d=" M   291.08,   239.75  L   286.83,   239.75  "/>
		<path style="stroke-width: 1.42 ;&st7;  " d=" M   333.57,   239.75  L   329.32,   239.75  "/>
		<path style="stroke-width: 1.42 ;&st7;  " d=" M   333.57,   231.25  L   329.32,   231.25  "/>
		<path style="stroke-width: 1.42 ;&st7;   " d=" M   337.82,   235.50  C   337.82    233.15    335.92    231.25    333.57    231.25  "/>
		<path style="stroke-width: 1.42 ;&st7;   " d=" M   333.57,   239.75  C   335.92    239.75    337.82    237.84    337.82    235.50  "/>
		<path style="stroke-width: 1.42 ;&st7;   " d=" M   325.07,   235.50  C   325.07    237.84    326.97    239.75    329.32    239.75  "/>
		<path style="stroke-width: 1.42 ;&st7;   " d=" M   329.32,   231.25  C   326.97    231.25    325.07    233.15    325.07    235.50  "/>
		<path style="stroke-width: 1.42 ;&st7;   " d=" M   261.33,   154.76  C   258.98    154.76    257.08    156.66    257.08    159.01  "/>
		<path style="stroke-width: 1.42 ;&st7;   " d=" M   257.08,   159.01  C   257.08    161.36    258.98    163.26    261.33    163.26  "/>
		<path style="stroke-width: 1.42 ;&st7;   " d=" M   265.58,   163.26  C   267.93    163.26    269.83    161.36    269.83    159.01  "/>
		<path style="stroke-width: 1.42 ;&st7;   " d=" M   269.83,   159.01  C   269.83    156.66    267.93    154.76    265.58    154.76  "/>
		<path style="stroke-width: 1.42 ;&st7;   " d=" M   286.83,   154.76  C   284.48    154.76    282.58    156.66    282.58    159.01  "/>
		<path style="stroke-width: 1.42 ;&st7;   " d=" M   282.58,   159.01  C   282.58    161.36    284.48    163.26    286.83    163.26  "/>
		<path style="stroke-width: 1.42 ;&st7;   " d=" M   291.08,   163.26  C   293.42    163.26    295.33    161.36    295.33    159.01  "/>
		<path style="stroke-width: 1.42 ;&st7;   " d=" M   295.33,   159.01  C   295.33    156.66    293.42    154.76    291.08    154.76  "/>
		<path style="stroke-width: 1.42 ;&st7;   " d=" M   269.83,   235.50  C   269.83    233.15    267.93    231.25    265.58    231.25  "/>
		<path style="stroke-width: 1.42 ;&st7;   " d=" M   265.58,   239.75  C   267.93    239.75    269.83    237.84    269.83    235.50  "/>
		<path style="stroke-width: 1.42 ;&st7;   " d=" M   257.08,   235.50  C   257.08    237.84    258.98    239.75    261.33    239.75  "/>
		<path style="stroke-width: 1.42 ;&st7;   " d=" M   261.33,   231.25  C   258.98    231.25    257.08    233.15    257.08    235.50  "/>
		<path style="stroke-width: 1.42 ;&st7;   " d=" M   286.83,   231.25  C   284.48    231.25    282.58    233.15    282.58    235.50  "/>
		<path style="stroke-width: 1.42 ;&st7;   " d=" M   282.58,   235.50  C   282.58    237.84    284.48    239.75    286.83    239.75  "/>
		<path style="stroke-width: 1.42 ;&st7;   " d=" M   291.08,   239.75  C   293.42    239.75    295.33    237.84    295.33    235.50  "/>
		<path style="stroke-width: 1.42 ;&st7;   " d=" M   295.33,   235.50  C   295.33    233.15    293.42    231.25    291.08    231.25  "/>
		<path style="stroke-width: 0.85 ;&st7;  " d=" M   297.45,   197.25  L   331.44,   197.25  L   331.44,   231.25  "/>
		<path style="stroke-width: 0.28 ;&st9;  " d=" M   331.44,   226.35  L   328.61,   223.52  L   328.61,   227.77  L   331.44,   230.60  L   334.28,   227.77  L   334.28,   223.52  L   331.44,   226.35  "/>
		<path style="stroke-width: 0.28 ;&st9;  " d=" M   263.46,   168.15  L   266.29,   170.99  L   266.29,   166.74  L   263.46,   163.90  L   260.62,   166.74  L   260.62,   170.99  L   263.46,   168.15  "/>
		<path style="stroke-width: 0.85 ;&st7;  " d=" M   288.95,   180.26  L   288.95,   163.26  "/>
		<path style="stroke-width: 0.28 ;&st9;  " d=" M   288.95,   168.15  L   291.78,   170.99  L   291.78,   166.74  L   288.95,   163.90  L   286.12,   166.74  L   286.12,   170.99  L   288.95,   168.15  "/>
		<path style="stroke-width: 0.85 ;&st7;  " d=" M   263.46,   180.26  L   263.46,   163.26  "/>
		<path style="stroke-width: 0.28 ;&st9;  " d=" M   263.46,   226.35  L   260.62,   223.52  L   260.62,   227.77  L   263.46,   230.60  L   266.29,   227.77  L   266.29,   223.52  L   263.46,   226.35  "/>
		<path style="stroke-width: 0.85 ;&st7;  " d=" M   288.95,   214.25  L   288.95,   231.25  "/>
		<path style="stroke-width: 0.28 ;&st9;  " d=" M   288.95,   226.35  L   286.12,   223.52  L   286.12,   227.77  L   288.95,   230.60  L   291.78,   227.77  L   291.78,   223.52  L   288.95,   226.35  "/>
		<path style="stroke-width: 0.85 ;&st7;  " d=" M   263.46,   214.25  L   263.46,   231.25  "/>
		<text style="font-size:6px;font-family:'NSimSun';" transform="matrix(&st16;  329.64  237.47 )">1</text>
		<text style="font-size:6px;font-family:'NSimSun';" transform="matrix(&st16;  261.66  160.98 )">1</text>
		<text style="font-size:6px;font-family:'NSimSun';" transform="matrix(&st16;  287.15  160.98 )">1</text>
		<text style="font-size:6px;font-family:'NSimSun';" transform="matrix(&st16;  261.66  237.47 )">1</text>
		<text style="font-size:6px;font-family:'NSimSun';" transform="matrix(&st16;  287.15  237.47 )">1</text>
		<text style="font-size:6px;font-family:'NSimSun';" transform="matrix(&st16;  257.27  176.56 )">1</text>
		<text style="font-size:6px;font-family:'NSimSun';" transform="matrix(&st16;  282.77  176.56 )">5</text>
		<text style="font-size:6px;font-family:'NSimSun';" transform="matrix(&st16;  257.27  222.44 )">2</text>
		<text style="font-size:6px;font-family:'NSimSun';" transform="matrix(&st16;  282.77  222.44 )">3</text>
		<text style="font-size:6px;font-family:'NSimSun';" transform="matrix(&st17;  251.55  210.73 )" ewd:textID="5">DEF 继电器</text>
		<text style="font-size:6px;font-family:'NSimSun';" transform="matrix(&st16;  300.03  193.56 )">4</text>
		<path style="stroke-width: 1.42 ;&st7;  " d=" M   288.95,   207.17  L   294.62,   184.50  "/>
		<path style="stroke-width: 0.85 ;&st7;  " d=" M   288.95,   214.25  L   288.95,   210.00  "/>
		<path style="stroke-width: 0.85 ;&st7;  " d=" M   288.95,   180.26  L   288.95,   184.50  "/>
		<path style="stroke-width: 0.85 ;&st7;  " d=" M   263.46,   180.26  L   263.46,   188.75  "/>
		<path style="stroke-width: 0.85 ;&st7;  " d=" M   263.46,   205.75  L   263.46,   214.25  "/>
		<path style="stroke-width: 0.85 ;&st7;   " d=" M   290.37,   208.58  C   290.37    207.80    289.73    207.17    288.95    207.17  "/>
		<path style="stroke-width: 0.85 ;&st7;   " d=" M   288.95,   207.17  C   288.17    207.17    287.54    207.80    287.54    208.58  "/>
		<path style="stroke-width: 0.85 ;&st7;   " d=" M   287.54,   208.58  C   287.54    209.37    288.17    210.00    288.95    210.00  "/>
		<path style="stroke-width: 0.85 ;&st7;   " d=" M   288.95,   210.00  C   289.73    210.00    290.37    209.37    290.37    208.58  "/>
		<path style="stroke-width: 0.85 ;&st7;   " d=" M   290.37,   185.92  C   290.37    185.14    289.73    184.50    288.95    184.50  "/>
		<path style="stroke-width: 0.85 ;&st7;   " d=" M   288.95,   184.50  C   288.17    184.50    287.54    185.14    287.54    185.92  "/>
		<path style="stroke-width: 0.85 ;&st7;   " d=" M   287.54,   185.92  C   287.54    186.70    288.17    187.34    288.95    187.34  "/>
		<path style="stroke-width: 0.85 ;&st7;   " d=" M   288.95,   187.34  C   289.73    187.34    290.37    186.70    290.37    185.92  "/>
		<path style="stroke-width: 0.85 ;&st7;   " d=" M   260.93,   194.77  C   262.30    196.17    264.54    196.19    265.93    194.82  "/>
		<path style="stroke-width: 0.85 ;&st7;   " d=" M   265.93,   194.82  C   267.33    193.46    267.35    191.21    265.99    189.82  "/>
		<path style="stroke-width: 0.85 ;&st7;   " d=" M   265.99,   189.82  C   265.29    189.11    264.45    188.75    263.46    188.75  "/>
		<path style="stroke-width: 0.85 ;&st7;   " d=" M   260.93,   199.73  C   262.30    201.13    264.54    201.15    265.93    199.78  "/>
		<path style="stroke-width: 0.85 ;&st7;   " d=" M   265.93,   199.78  C   267.33    198.41    267.35    196.17    265.99    194.77  "/>
		<path style="stroke-width: 0.85 ;&st7;   " d=" M   265.99,   194.77  C   264.62    193.38    262.37    193.35    260.98    194.72  "/>
		<path style="stroke-width: 0.85 ;&st7;   " d=" M   260.98,   194.72  C   260.96    194.74    260.94    194.76    260.93    194.77  "/>
		<path style="stroke-width: 0.85 ;&st7;   " d=" M   263.46,   205.75  C   265.41    205.75    267.00    204.17    267.00    202.21  "/>
		<path style="stroke-width: 0.85 ;&st7;   " d=" M   267.00,   202.21  C   267.00    200.25    265.41    198.67    263.46    198.67  "/>
		<path style="stroke-width: 0.85 ;&st7;   " d=" M   263.46,   198.67  C   262.47    198.67    261.62    199.02    260.93    199.73  "/>
		<path style="stroke-width: 0.85 ;&st7;   " d=" M   294.62,   197.25  C   294.62    196.47    293.98    195.84    293.20    195.84  "/>
		<path style="stroke-width: 0.85 ;&st7;   " d=" M   293.20,   195.84  C   292.42    195.84    291.78    196.47    291.78    197.25  "/>
		<path style="stroke-width: 0.85 ;&st7;   " d=" M   291.78,   197.25  C   291.78    198.03    292.42    198.67    293.20    198.67  "/>
		<path style="stroke-width: 0.85 ;&st7;   " d=" M   293.20,   198.67  C   293.98    198.67    294.62    198.03    294.62    197.25  "/>
		<path style="stroke-width: 1.42 ;&st7;  " d=" M   297.45,   180.26  L   254.96,   180.26  L   254.96,   214.25  L   297.45,   214.25  L   297.45,   180.26  "/>
		<path style="stroke-width: 0.85 ;&st7;  " d=" M   297.45,   197.25  L   294.62,   197.25  "/>
	</g>
	<g ewd:figtype="conn" ewd:figID="2" ewd:code="E20">
		<path style="stroke-width: 1.42 ;&st7;  " d=" M  1351.27,   265.24  L  1351.27,   307.73  L  1419.26,   307.73  L  1419.26,   265.24  L  1351.27,   265.24  "/>
		<text style="font-size:6px;font-family:'NSimSun';" transform="matrix(&st16; 1363.11 288.81)" ewd:textID="12" ewd:horAlign="center">后窗除雾器开关<tspan x="0 " dy="6.0"></tspan><tspan x="0 " dy="6.0"></tspan></text>
		<text style="font-size:6px;font-family:'NSimSun';" transform="matrix(&st16;  1363.37  272.88 )">IG+</text>
		<text style="font-size:6px;font-family:'NSimSun';" transform="matrix(&st16;  1395.62  304.04 )">GND</text>
		<text style="font-size:6px;font-family:'NSimSun';" transform="matrix(&st16;  1361.7  304.04 )">LIN1</text>
		<text style="font-size:6px;font-family:'NSimSun';" transform="matrix(&st16;  1362.09  315.93 )">6</text>
		<text style="font-size:6px;font-family:'NSimSun';" transform="matrix(&st16;  1362.09  261.55 )">8</text>
		<text style="font-size:6px;font-family:'NSimSun';" transform="matrix(&st16;  1396.08  315.93 )">5</text>
		<g ewd:figtype="title">
			<text style="font-size:6px;font-family:'NSimSun';" transform="matrix(&st17; 1340.52 310.63)">E20</text>
			<text style="font-size:6px;font-family:'NSimSun';" transform="matrix(&st17; 1347.63 310.64)" ewd:textID="4">空调控制总成<tspan x="0 " dy="6.0"></tspan></text>
		</g>
	</g>
	<g ewd:figtype="rb" ewd:figID="3" ewd:code="FUSE15">
		<path style="stroke-width: 1.42 ;&st7;  " d=" M   180.59,   418.22  L   176.35,   418.22  "/>
		<path style="stroke-width: 1.42 ;&st7;  " d=" M   180.59,   409.72  L   176.35,   409.72  "/>
		<path style="stroke-width: 1.42 ;&st7;  " d=" M   180.59,   333.23  L   176.35,   333.23  "/>
		<path style="stroke-width: 1.42 ;&st7;  " d=" M   180.59,   324.73  L   176.35,   324.73  "/>
		<path style="stroke-width: 1.42 ;&st7;   " d=" M   184.84,   413.97  C   184.84    411.62    182.94    409.72    180.59    409.72  "/>
		<path style="stroke-width: 1.42 ;&st7;   " d=" M   180.59,   418.22  C   182.94    418.22    184.84    416.31    184.84    413.97  "/>
		<path style="stroke-width: 1.42 ;&st7;   " d=" M   172.10,   413.97  C   172.10    416.31    174.00    418.22    176.35    418.22  "/>
		<path style="stroke-width: 1.42 ;&st7;   " d=" M   176.35,   409.72  C   174.00    409.72    172.10    411.62    172.10    413.97  "/>
		<path style="stroke-width: 1.42 ;&st7;   " d=" M   184.84,   328.98  C   184.84    326.63    182.94    324.73    180.59    324.73  "/>
		<path style="stroke-width: 1.42 ;&st7;   " d=" M   180.59,   333.23  C   182.94    333.23    184.84    331.33    184.84    328.98  "/>
		<path style="stroke-width: 1.42 ;&st7;   " d=" M   172.10,   328.98  C   172.10    331.33    174.00    333.23    176.35    333.23  "/>
		<path style="stroke-width: 1.42 ;&st7;   " d=" M   176.35,   324.73  C   174.00    324.73    172.10    326.63    172.10    328.98  "/>
		<path style="stroke-width: 0.28 ;&st9;  " d=" M   178.47,   404.82  L   175.64,   401.99  L   175.64,   406.24  L   178.47,   409.07  L   181.30,   406.24  L   181.30,   401.99  L   178.47,   404.82  "/>
		<path style="stroke-width: 0.85 ;&st7;  " d=" M   178.47,   392.72  L   178.47,   409.72  "/>
		<path style="stroke-width: 0.85 ;&st7;  " d=" M   178.47,   333.23  L   178.47,   350.23  "/>
		<path style="stroke-width: 0.28 ;&st9;  " d=" M   178.47,   338.12  L   181.30,   340.96  L   181.30,   336.71  L   178.47,   333.88  L   175.64,   336.71  L   175.64,   340.96  L   178.47,   338.12  "/>
		<text style="font-size:6px;font-family:'NSimSun';" transform="matrix(&st16;  176.67  415.94 )">1</text>
		<text style="font-size:6px;font-family:'NSimSun';" transform="matrix(&st16;  176.67  330.95 )">1</text>
		<text style="font-size:6px;font-family:'NSimSun';" transform="matrix(&st16;  172.29  346.54 )">1</text>
		<text style="font-size:6px;font-family:'NSimSun';" transform="matrix(&st16;  172.29  400.91 )">2</text>
		<text style="font-size:6px;font-family:'NSimSun';" transform="matrix(&st16;  194.89  370.62 )">10A <tspan x="0 " dy="6.0">MIR HTR</tspan></text>
		<path style="stroke-width: 0.85 ;&st7;  " d=" M   178.47,   384.22  L   178.47,   392.72  "/>
		<path style="stroke-width: 1.42 ;&st7;   " d=" M   178.47,   361.56  C   175.73    363.17    174.82    366.70    176.43    369.44  "/>
		<path style="stroke-width: 1.42 ;&st7;   " d=" M   176.43,   369.44  C   176.95    370.32    177.59    370.95    178.47    371.47  "/>
		<path style="stroke-width: 0.85 ;&st7;   " d=" M   179.89,   382.80  C   179.89    382.02    179.25    381.39    178.47    381.39  "/>
		<path style="stroke-width: 0.85 ;&st7;   " d=" M   178.47,   381.39  C   177.69    381.39    177.05    382.02    177.05    382.80  "/>
		<path style="stroke-width: 0.85 ;&st7;   " d=" M   177.05,   382.80  C   177.05    383.59    177.69    384.22    178.47    384.22  "/>
		<path style="stroke-width: 0.85 ;&st7;   " d=" M   178.47,   384.22  C   179.25    384.22    179.89    383.59    179.89    382.80  "/>
		<path style="stroke-width: 0.85 ;&st7;   " d=" M   179.89,   360.14  C   179.89    359.36    179.25    358.73    178.47    358.73  "/>
		<path style="stroke-width: 0.85 ;&st7;   " d=" M   178.47,   358.73  C   177.69    358.73    177.05    359.36    177.05    360.14  "/>
		<path style="stroke-width: 0.85 ;&st7;   " d=" M   177.05,   360.14  C   177.05    360.92    177.69    361.56    178.47    361.56  "/>
		<path style="stroke-width: 0.85 ;&st7;   " d=" M   178.47,   361.56  C   179.25    361.56    179.89    360.92    179.89    360.14  "/>
		<path style="stroke-width: 1.42 ;&st7;   " d=" M   178.47,   381.39  C   181.21    379.78    182.12    376.25    180.51    373.51  "/>
		<path style="stroke-width: 1.42 ;&st7;   " d=" M   180.51,   373.51  C   179.99    372.63    179.35    371.99    178.47    371.47  "/>
		<path style="stroke-width: 1.42 ;&st7;  " d=" M   165.72,   350.23  L   165.72,   392.72  L   191.22,   392.72  L   191.22,   350.23  L   165.72,   350.23  "/>
		<path style="stroke-width: 0.85 ;&st7;  " d=" M   178.47,   350.23  L   178.47,   358.73  "/>
	</g>
	<g ewd:figtype="rb" ewd:figID="4" ewd:code="FUSE32">
		<path style="stroke-width: 1.42 ;&st7;  " d=" M   291.08,    95.27  L   286.83,    95.27  "/>
		<path style="stroke-width: 1.42 ;&st7;  " d=" M   291.08,   103.77  L   286.83,   103.77  "/>
		<path style="stroke-width: 1.42 ;&st7;   " d=" M   286.83,    95.27  C   284.48     95.27    282.58     97.17    282.58     99.52  "/>
		<path style="stroke-width: 1.42 ;&st7;   " d=" M   282.58,    99.52  C   282.58    101.87    284.48    103.77    286.83    103.77  "/>
		<path style="stroke-width: 1.42 ;&st7;   " d=" M   291.08,   103.77  C   293.42    103.77    295.33    101.87    295.33     99.52  "/>
		<path style="stroke-width: 1.42 ;&st7;   " d=" M   295.33,    99.52  C   295.33     97.17    293.42     95.27    291.08     95.27  "/>
		<path style="stroke-width: 0.85 ;&st7;  " d=" M   288.95,    95.27  L   288.95,    78.27  "/>
		<path style="stroke-width: 0.28 ;&st9;  " d=" M   288.95,    90.37  L   286.12,    87.54  L   286.12,    91.79  L   288.95,    94.62  L   291.78,    91.79  L   291.78,    87.54  L   288.95,    90.37  "/>
		<text style="font-size:6px;font-family:'NSimSun';" transform="matrix(&st16;  282.77  86.47 )">2</text>
		<text style="font-size:6px;font-family:'NSimSun';" transform="matrix(&st16;  305.38  56.17 )">50A <tspan x="0 " dy="6.0">DEF</tspan></text>
		<text style="font-size:6px;font-family:'NSimSun';" transform="matrix(&st16;  287.15  101.49 )">1</text>
		<text style="font-size:6px;font-family:'NSimSun';" transform="matrix(&st16;  280.91  32.08 )">(BAT)</text>
		<path style="stroke-width: 0.85 ;&st7;  " d=" M   288.95,    69.77  L   288.95,    78.27  "/>
		<path style="stroke-width: 0.85 ;&st7;   " d=" M   290.37,    68.36  C   290.37     67.57    289.73     66.94    288.95     66.94  "/>
		<path style="stroke-width: 0.85 ;&st7;   " d=" M   288.95,    66.94  C   288.17     66.94    287.54     67.57    287.54     68.36  "/>
		<path style="stroke-width: 0.85 ;&st7;   " d=" M   287.54,    68.36  C   287.54     69.14    288.17     69.77    288.95     69.77  "/>
		<path style="stroke-width: 0.85 ;&st7;   " d=" M   288.95,    69.77  C   289.73     69.77    290.37     69.14    290.37     68.36  "/>
		<path style="stroke-width: 0.85 ;&st7;   " d=" M   290.37,    45.69  C   290.37     44.91    289.73     44.28    288.95     44.28  "/>
		<path style="stroke-width: 0.85 ;&st7;   " d=" M   288.95,    44.28  C   288.17     44.28    287.54     44.91    287.54     45.69  "/>
		<path style="stroke-width: 0.85 ;&st7;   " d=" M   287.54,    45.69  C   287.54     46.48    288.17     47.11    288.95     47.11  "/>
		<path style="stroke-width: 0.85 ;&st7;   " d=" M   288.95,    47.11  C   289.73     47.11    290.37     46.48    290.37     45.69  "/>
		<path style="stroke-width: 1.42 ;&st7;   " d=" M   288.95,    66.94  C   291.69     65.33    292.60     61.80    290.99     59.06  "/>
		<path style="stroke-width: 1.42 ;&st7;   " d=" M   290.99,    59.06  C   290.47     58.18    289.83     57.55    288.95     57.03  "/>
		<path style="stroke-width: 1.42 ;&st7;   " d=" M   288.95,    47.11  C   286.21     48.72    285.30     52.25    286.91     54.99  "/>
		<path style="stroke-width: 1.42 ;&st7;   " d=" M   286.91,    54.99  C   287.43     55.87    288.07     56.51    288.95     57.03  "/>
		<path style="stroke-width: 1.42 ;&st7;  " d=" M   276.20,    35.78  L   276.20,    78.27  L   301.70,    78.27  L   301.70,    35.78  L   276.20,    35.78  "/>
	</g>
	<g ewd:figtype="conn" ewd:figID="5" ewd:code="L8,Q1">
		<path style="stroke-width: 1.42 ;&st7;  " d=" M   696.88,   494.70  L   696.88,   562.69  L   747.87,   562.69  L   747.87,   494.70  L   696.88,   494.70  "/>
		<path style="stroke-width: 0.85 ;&st7;  " d=" M   722.38,   545.69  L   722.38,   562.69  "/>
		<path style="stroke-width: 0.85 ;&st7;  " d=" M   722.38,   494.70  L   722.38,   511.70  "/>
		<path style="stroke-width: 1.42 ;&st7;  " d=" M   713.88,   545.69  L   730.88,   545.69  L   730.88,   511.70  L   713.88,   511.70  L   713.88,   545.69  "/>
		<path style="stroke-width: 0.85 ;&st7;  " d=" M   722.38,   545.69  L   722.38,   537.20  L   719.55,   535.78  L   725.21,   532.95  L   719.55,   530.11  L   725.21,   527.28  L   719.55,   524.45  L   725.21,   521.61  L   722.38,   520.20  L   722.38,   511.70  "/>
		<text style="font-size:6px;font-family:'NSimSun';" transform="matrix(&st16;  724.96  502.9 )">B</text>
		<text style="font-size:6px;font-family:'NSimSun';" transform="matrix(&st16;  724.96  559.0 )">E</text>
		<text style="font-size:6px;font-family:'NSimSun';" transform="matrix(&st16;  713.69  569.19 )">1</text>
		<path style="stroke-width: 1.42 ;&st7;   " d=" M   726.91,   567.22  C   726.91    564.72    724.88    562.69    722.38    562.69  "/>
		<path style="stroke-width: 1.42 ;&st7;   " d=" M   722.38,   562.69  C   719.88    562.69    717.85    564.72    717.85    567.22  "/>
		<path style="stroke-width: 1.42 ;&st7;   " d=" M   717.85,   567.22  C   717.85    569.73    719.88    571.76    722.38    571.76  "/>
		<path style="stroke-width: 1.42 ;&st7;   " d=" M   722.38,   571.76  C   724.88    571.76    726.91    569.73    726.91    567.22  "/>
		<text style="font-size:6px;font-family:'NSimSun';" transform="matrix(&st16;  720.19  569.19 )">B</text>
		<text style="font-size:6px;font-family:'NSimSun';" transform="matrix(&st16;  713.69  492.14 )">1</text>
		<path style="stroke-width: 1.42 ;&st7;   " d=" M   726.91,   490.17  C   726.91    487.67    724.88    485.64    722.38    485.64  "/>
		<path style="stroke-width: 1.42 ;&st7;   " d=" M   722.38,   485.64  C   719.88    485.64    717.85    487.67    717.85    490.17  "/>
		<path style="stroke-width: 1.42 ;&st7;   " d=" M   717.85,   490.17  C   717.85    492.67    719.88    494.70    722.38    494.70  "/>
		<path style="stroke-width: 1.42 ;&st7;   " d=" M   722.38,   494.70  C   724.88    494.70    726.91    492.67    726.91    490.17  "/>
		<text style="font-size:6px;font-family:'NSimSun';" transform="matrix(&st16;  720.07  492.14 )">A</text>
		<g ewd:figtype="title">
			<text style="font-size:6px;font-family:'NSimSun';" transform="matrix(&st17;  755.49  565.59 )">L8(A),Q1(B)</text>
			<text style="font-size:6px;font-family:'NSimSun';" transform="matrix(&st17;  762.59  565.6 )" ewd:textID="11">后窗除雾器（背窗玻璃）<tspan x="0 " dy="6.0"></tspan></text>
		</g>
	</g>
	<g ewd:figtype="conn" ewd:figID="6" ewd:code="E43">
		<g ewd:lineID="15">
			<text style="font-size:6px;font-family:'NSimSun';" transform="matrix(&st16;  1229.0  262.68 )">38</text>
			<path style="stroke-width: 1.42 ;&st7;   " d=" M  1245.33,   260.71  C  1245.33    258.21   1243.30    256.18   1240.79    256.18  "/>
			<path style="stroke-width: 1.42 ;&st7;   " d=" M  1240.79,   256.18  C  1238.29    256.18   1236.26    258.21   1236.26    260.71  "/>
			<path style="stroke-width: 1.42 ;&st7;   " d=" M  1236.26,   260.71  C  1236.26    263.21   1238.29    265.24   1240.79    265.24  "/>
			<path style="stroke-width: 1.42 ;&st7;   " d=" M  1240.79,   265.24  C  1243.30    265.24   1245.33    263.21   1245.33    260.71  "/>
			<text style="font-size:6px;font-family:'NSimSun';" transform="matrix(&st16;  1238.49  262.68 )">A</text>
			<text style="font-size:6px;font-family:'NSimSun';" transform="matrix(&st16;  1232.48  272.88 )">RDFG</text>
		</g>
		<g ewd:lineID="17">
			<text style="font-size:6px;font-family:'NSimSun';" transform="matrix(&st16;  1229.0  314.24 )">14</text>
			<text style="font-size:6px;font-family:'NSimSun';" transform="matrix(&st16;  1238.49  314.24 )">A</text>
			<path style="stroke-width: 1.42 ;&st7;   " d=" M  1245.33,   312.27  C  1245.33    309.76   1243.30    307.73   1240.79    307.73  "/>
			<path style="stroke-width: 1.42 ;&st7;   " d=" M  1240.79,   307.73  C  1238.29    307.73   1236.26    309.76   1236.26    312.27  "/>
			<path style="stroke-width: 1.42 ;&st7;   " d=" M  1236.26,   312.27  C  1236.26    314.77   1238.29    316.80   1240.79    316.80  "/>
			<path style="stroke-width: 1.42 ;&st7;   " d=" M  1240.79,   316.80  C  1243.30    316.80   1245.33    314.77   1245.33    312.27  "/>
			<text style="font-size:6px;font-family:'NSimSun';" transform="matrix(&st16;  1234.15  304.04 )">GND</text>
		</g>
		<g ewd:lineID="18">
			<text style="font-size:6px;font-family:'NSimSun';" transform="matrix(&st16;  1291.59  262.68 )">1</text>
			<text style="font-size:6px;font-family:'NSimSun';" transform="matrix(&st16;  1297.98  262.68 )">A</text>
			<path style="stroke-width: 1.42 ;&st7;   " d=" M  1304.82,   260.71  C  1304.82    258.21   1302.79    256.18   1300.28    256.18  "/>
			<path style="stroke-width: 1.42 ;&st7;   " d=" M  1300.28,   256.18  C  1297.78    256.18   1295.75    258.21   1295.75    260.71  "/>
			<path style="stroke-width: 1.42 ;&st7;   " d=" M  1295.75,   260.71  C  1295.75    263.21   1297.78    265.24   1300.28    265.24  "/>
			<path style="stroke-width: 1.42 ;&st7;   " d=" M  1300.28,   265.24  C  1302.79    265.24   1304.82    263.21   1304.82    260.71  "/>
			<text style="font-size:6px;font-family:'NSimSun';" transform="matrix(&st16;  1295.38  272.88 )">IG+</text>
		</g>
		<g ewd:lineID="19">
			<text style="font-size:6px;font-family:'NSimSun';" transform="matrix(&st16;  1288.49  314.24 )">37</text>
			<path style="stroke-width: 1.42 ;&st7;   " d=" M  1304.82,   312.27  C  1304.82    309.76   1302.79    307.73   1300.28    307.73  "/>
			<path style="stroke-width: 1.42 ;&st7;   " d=" M  1300.28,   307.73  C  1297.78    307.73   1295.75    309.76   1295.75    312.27  "/>
			<path style="stroke-width: 1.42 ;&st7;   " d=" M  1295.75,   312.27  C  1295.75    314.77   1297.78    316.80   1300.28    316.80  "/>
			<path style="stroke-width: 1.42 ;&st7;   " d=" M  1300.28,   316.80  C  1302.79    316.80   1304.82    314.77   1304.82    312.27  "/>
			<text style="font-size:6px;font-family:'NSimSun';" transform="matrix(&st16;  1297.98  314.24 )">A</text>
			<text style="font-size:6px;font-family:'NSimSun';" transform="matrix(&st16;  1293.71  304.04 )">LIN1</text>
		</g>
		<path style="stroke-width: 1.42 ;&st7;  " d=" M  1223.80,   265.24  L  1223.80,   307.73  L  1317.28,   307.73  L  1317.28,   265.24  L  1223.80,   265.24  "/>
		<g ewd:figtype="title">
			<text style="font-size:6px;font-family:'NSimSun';" transform="matrix(&st17;  1220.1  310.64 )" ewd:textID="3">空调放大器总成</text>
			<text style="font-size:6px;font-family:'NSimSun';" transform="matrix(&st17;  1213.28  310.63 )">E43(A)</text>
		</g>
	</g>
	<g ewd:figtype="conn" ewd:figID="7" ewd:code="L25">
		<path style="stroke-width: 0.85 ;&st7;  " d=" M   603.40,   545.69  L   603.40,   535.07  "/>
		<path style="stroke-width: 0.85 ;&st7;  " d=" M   603.40,   530.82  L   603.40,   511.70  "/>
		<path style="stroke-width: 1.42 ;&st7;  " d=" M   607.65,   530.82  L   599.15,   530.82  "/>
		<path style="stroke-width: 1.42 ;&st7;  " d=" M   607.65,   535.07  L   599.15,   535.07  "/>
		<path style="stroke-width: 1.42 ;&st7;  " d=" M   586.40,   511.70  L   586.40,   545.69  L   620.40,   545.69  L   620.40,   511.70  L   586.40,   511.70  "/>
		<text style="font-size:6px;font-family:'NSimSun';" transform="matrix(&st16;  588.61  519.89 )">DEF</text>
		<text style="font-size:6px;font-family:'NSimSun';" transform="matrix(&st16;  597.21  508.01 )">2</text>
		<g ewd:figtype="title">
			<text style="font-size:6px;font-family:'NSimSun';" transform="matrix(&st17;  628.01  548.59 )">L25</text>
			<text style="font-size:6px;font-family:'NSimSun';" transform="matrix(&st17;  635.11  548.6 )" ewd:textID="8">静噪滤波器（收音机设定调相器）<tspan x="0 " dy="6.0"></tspan></text>
		</g>
	</g>
	<g ewd:figtype="conn" ewd:figID="8" ewd:code="A40">
		<g ewd:lineID="1">
			<text style="font-size:6px;font-family:'NSimSun';" transform="matrix(&st16;  166.67  475.14 )">34</text>
			<path style="stroke-width: 1.42 ;&st7;   " d=" M   183.00,   473.17  C   183.00    470.67    180.97    468.64    178.47    468.64  "/>
			<path style="stroke-width: 1.42 ;&st7;   " d=" M   178.47,   468.64  C   175.97    468.64    173.94    470.67    173.94    473.17  "/>
			<path style="stroke-width: 1.42 ;&st7;   " d=" M   173.94,   473.17  C   173.94    475.68    175.97    477.71    178.47    477.71  "/>
			<path style="stroke-width: 1.42 ;&st7;   " d=" M   178.47,   477.71  C   180.97    477.71    183.00    475.68    183.00    473.17  "/>
			<text style="font-size:6px;font-family:'NSimSun';" transform="matrix(&st16;  176.17  475.14 )">A</text>
			<text style="font-size:6px;font-family:'NSimSun';" transform="matrix(&st16;  171.44  485.34 )">ELS2</text>
		</g>
		<path style="stroke-width: 1.42 ;&st7;  " d=" M   161.47,   511.70  L   195.47,   511.70  L   195.47,   477.71  L   161.47,   477.71  L   161.47,   511.70  "/>
		<g ewd:figtype="title">
			<text style="font-size:6px;font-family:'NSimSun';" transform="matrix(&st16;  158.07  526.42 )">ECM</text>
			<text style="font-size:6px;font-family:'NSimSun';" transform="matrix(&st16;  158.06  519.59 )">A40(A)</text>
		</g>
	</g>
	<g ewd:figtype="conn" ewd:figID="9" ewd:code="E71">
		<path style="stroke-width: 1.42 ;&st7;  " d=" M  1232.29,   511.70  L  1410.76,   511.70  L  1410.76,   528.70  L  1232.29,   528.70  L  1232.29,   511.70  "/>
		<path style="stroke-width: 0.85 ;&st7;  " d=" M  1240.79,   511.70  L  1240.79,   528.70  "/>
		<path style="stroke-width: 0.85 ;&st7;  " d=" M  1402.27,   511.70  L  1402.27,   528.70  "/>
		<text style="font-size:6px;font-family:'NSimSun';" transform="matrix(&st16;  1234.61  536.89 )">1</text>
		<text style="font-size:6px;font-family:'NSimSun';" transform="matrix(&st16;  1234.61  508.01 )">5</text>
		<text style="font-size:6px;font-family:'NSimSun';" transform="matrix(&st16;  1392.98  536.89 )">12</text>
		<text style="font-size:6px;font-family:'NSimSun';" transform="matrix(&st16;  1392.98  508.01 )">14</text>
		<g ewd:figtype="title">
			<text style="font-size:6px;font-family:'NSimSun';" transform="matrix(&st17;  1425.48  531.6 )" ewd:textID="7">4 号接线连接器</text>
			<text style="font-size:6px;font-family:'NSimSun';" transform="matrix(&st17;  1418.66  531.6 )">E71</text>
		</g>
	</g>
	<g ewd:figtype="conn" ewd:figID="10" ewd:code="E58">
		<path style="stroke-width: 0.85 ;&st7;  " d=" M   862.61,   426.71  L   854.11,   426.71  "/>
		<path style="stroke-width: 0.85 ;&st7;  " d=" M   871.09,   417.05  L   863.73,   421.30  "/>
		<path style="stroke-width: 0.85 ;&st7;  " d=" M   865.73,   424.77  L   873.09,   420.52  "/>
		<path style="stroke-width: 0.85 ;&st7;   " d=" M   902.27,   528.70  C   902.27    527.91    901.63    527.28    900.85    527.28  "/>
		<path style="stroke-width: 0.85 ;&st7;   " d=" M   900.85,   527.28  C   900.07    527.28    899.43    527.91    899.43    528.70  "/>
		<path style="stroke-width: 0.85 ;&st7;   " d=" M   899.43,   528.70  C   899.43    529.48    900.07    530.11    900.85    530.11  "/>
		<path style="stroke-width: 0.85 ;&st7;   " d=" M   900.85,   530.11  C   901.63    530.11    902.27    529.48    902.27    528.70  "/>
		<path style="stroke-width: 0.85 ;&st7;   " d=" M   936.26,   528.70  C   936.26    527.91    935.63    527.28    934.84    527.28  "/>
		<path style="stroke-width: 0.85 ;&st7;   " d=" M   934.84,   527.28  C   934.06    527.28    933.43    527.91    933.43    528.70  "/>
		<path style="stroke-width: 0.85 ;&st7;   " d=" M   933.43,   528.70  C   933.43    529.48    934.06    530.11    934.84    530.11  "/>
		<path style="stroke-width: 0.85 ;&st7;   " d=" M   934.84,   530.11  C   935.63    530.11    936.26    529.48    936.26    528.70  "/>
		<path style="stroke-width: 0.28 ;&st9;  " d=" M   858.36,   426.71  L   852.69,   418.22  L   864.02,   418.22  L   858.36,   426.71  "/>
		<path style="stroke-width: 0.85 ;&st7;  " d=" M   871.09,   417.05  L   868.76,   420.09  L   867.29,   417.55  L   871.09,   417.05  L   869.81,   417.79  L   868.82,   419.07  L   868.20,   418.00  L   869.81,   417.79  L   869.17,   418.16  L   868.85,   418.56  L   868.66,   418.23  L   869.17,   418.16  "/>
		<path style="stroke-width: 0.85 ;&st7;  " d=" M   873.09,   420.52  L   870.76,   423.56  L   869.29,   421.02  L   873.09,   420.52  L   871.81,   421.26  L   870.83,   422.54  L   870.21,   421.47  L   871.81,   421.26  L   871.17,   421.63  L   870.86,   422.03  L   870.66,   421.70  L   871.17,   421.63  "/>
		<path style="stroke-width: 1.42 ;&st7;  " d=" M   849.86,   452.21  L   951.84,   452.21  L   951.84,   435.21  L   849.86,   435.21  L   849.86,   452.21  "/>
		<path style="stroke-width: 0.85 ;&st7;  " d=" M   858.36,   392.72  L   858.36,   435.21  "/>
		<path style="stroke-width: 1.42 ;&st7;  " d=" M   849.86,   503.20  L   849.86,   554.19  L   951.84,   554.19  L   951.84,   503.20  L   849.86,   503.20  "/>
		<path style="stroke-width: 0.85 ;&st7;  " d=" M   883.85,   554.19  L   883.85,   503.20  "/>
		<path style="stroke-width: 0.85 ;&st7;  " d=" M   917.85,   554.19  L   917.85,   503.20  "/>
		<path style="stroke-width: 0.85 ;&st7;  " d=" M   902.27,   528.70  L   933.43,   528.70  "/>
		<path style="stroke-width: 0.85 ;&st7;  " d=" M   849.86,   520.20  L   951.84,   520.20  "/>
		<path style="stroke-width: 0.85 ;&st7;  " d=" M   900.85,   503.20  L   900.85,   486.20  "/>
		<path style="stroke-width: 0.85 ;&st7;  " d=" M   900.85,   469.21  L   900.85,   452.21  "/>
		<path style="stroke-width: 0.85 ;&st7;  " d=" M   849.86,   537.20  L   951.84,   537.20  "/>
		<path style="stroke-width: 0.85 ;&st7;  " d=" M   943.34,   435.21  L   943.34,   392.72  "/>
		<path style="stroke-width: 0.85 ;&st7;  " d=" M   934.84,   503.20  L   934.84,   486.20  "/>
		<path style="stroke-width: 1.42 ;&st7;  " d=" M   824.36,   579.69  L   824.36,   392.72  L   994.33,   392.72  L   994.33,   579.69  L   824.36,   579.69  "/>
		<path style="stroke-width: 0.85 ;&st7;  " d=" M   951.84,   477.71  L   968.84,   477.71  L   968.84,   579.69  "/>
		<path style="stroke-width: 1.42 ;&st7;  " d=" M   849.86,   486.20  L   951.84,   486.20  L   951.84,   469.21  L   849.86,   469.21  L   849.86,   486.20  "/>
		<text style="font-size:6px;font-family:'NSimSun';" transform="matrix(&st16;  860.94  400.91 )">IG+</text>
		<text style="font-size:6px;font-family:'NSimSun';" transform="matrix(&st16;  945.93  400.91 )">RDEF</text>
		<text style="font-size:6px;font-family:'NSimSun';" transform="matrix(&st16; 860.64 547.66)" ewd:textID="9" ewd:horAlign="center">关闭</text>
		<text style="font-size:6px;font-family:'NSimSun';" transform="matrix(&st16; 860.69 530.67)" ewd:textID="10" ewd:horAlign="center">打开</text>
		<text style="font-size:6px;font-family:'NSimSun';" transform="matrix(&st16;  971.42  576.0 )">E</text>
		<text style="font-size:6px;font-family:'NSimSun';" transform="matrix(&st16;  926.88  513.67 )">RDEF</text>
		<text style="font-size:6px;font-family:'NSimSun';" transform="matrix(&st16;  895.95  513.67 )">IG+</text>
		<text style="font-size:6px;font-family:'NSimSun';" transform="matrix(&st16; 882.14 561.83)" ewd:textID="12" ewd:horAlign="center">后窗除雾器开关</text>
		<path style="stroke-width: 0.85 ;&st7;  " d=" M   857.16,   408.71  L   856.89,   409.18  L   856.80,   409.72  L   856.89,   410.25  L   857.16,   410.72  L   857.58,   411.07  L   858.08,   411.25  L   858.63,   411.25  L   859.14,   411.07  L   859.55,   410.72  L   859.82,   410.25  L   859.91,   409.72  L   859.82,   409.18  L   859.55,   408.71  L   859.14,   408.37  L   858.63,   408.18  L   858.08,   408.18  L   857.58,   408.37  L   857.16,   408.71  L   857.56,   409.43  L   857.56,   410.01  L   857.93,   410.45  L   858.50,   410.55  L   859.01,   410.26  L   859.21,   409.72  L   859.01,   409.17  L   858.50,   408.88  L   857.93,   408.98  L   858.36,   409.72  "/>
		<path style="stroke-width: 0.85 ;&st7;  " d=" M   849.86,   477.71  L   832.86,   477.71  L   832.86,   409.72  L   858.36,   409.72  "/>
		<text style="font-size:6px;font-family:'NSimSun';" transform="matrix(&st16; 885.27 479.67)" ewd:textID="13" ewd:horAlign="center">计时器电路</text>
		<text style="font-size:6px;font-family:'NSimSun';" transform="matrix(&st16;  852.17  389.03 )">3</text>
		<text style="font-size:6px;font-family:'NSimSun';" transform="matrix(&st16;  937.16  389.03 )">2</text>
		<text style="font-size:6px;font-family:'NSimSun';" transform="matrix(&st16;  962.65  587.88 )">5</text>
		<g ewd:figtype="title">
			<text style="font-size:6px;font-family:'NSimSun';" transform="matrix(&st17;  1009.05  582.59 )" ewd:textID="6">2 号加热器控制装置分总成</text>
			<text style="font-size:6px;font-family:'NSimSun';" transform="matrix(&st17;  1002.23  582.59 )">E58</text>
		</g>
	</g>
	<g ewd:figtype="jb" ewd:figID="14" ewd:code="3">
		<path style="stroke-width: 0.85 ;&st7;  " d=" M  1300.28,    69.77  L  1300.28,    78.27  "/>
		<path style="stroke-width: 1.42 ;&st7;  " d=" M  1302.41,   112.27  L  1298.16,   112.27  "/>
		<path style="stroke-width: 1.42 ;&st7;  " d=" M  1302.41,   120.77  L  1298.16,   120.77  "/>
		<path style="stroke-width: 0.85 ;&st7;  " d=" M  1300.28,    78.27  L  1300.28,   112.27  "/>
		<path style="stroke-width: 1.42 ;&st7;  " d=" M  1259.91,   120.77  L  1255.67,   120.77  "/>
		<path style="stroke-width: 1.42 ;&st7;  " d=" M  1259.91,   112.27  L  1255.67,   112.27  "/>
		<path style="stroke-width: 1.42 ;&st7;   " d=" M  1300.28,    47.11  C  1297.54     48.72   1296.63     52.25   1298.25     54.99  "/>
		<path style="stroke-width: 1.42 ;&st7;   " d=" M  1298.25,    54.99  C  1298.77     55.87   1299.40     56.51   1300.28     57.03  "/>
		<path style="stroke-width: 1.42 ;&st7;   " d=" M  1300.28,    66.94  C  1303.02     65.33   1303.93     61.80   1302.32     59.06  "/>
		<path style="stroke-width: 1.42 ;&st7;   " d=" M  1302.32,    59.06  C  1301.80     58.18   1301.16     57.55   1300.28     57.03  "/>
		<path style="stroke-width: 0.85 ;&st7;   " d=" M  1301.70,    45.69  C  1301.70     44.91   1301.07     44.28   1300.28     44.28  "/>
		<path style="stroke-width: 0.85 ;&st7;   " d=" M  1300.28,    44.28  C  1299.50     44.28   1298.87     44.91   1298.87     45.69  "/>
		<path style="stroke-width: 0.85 ;&st7;   " d=" M  1298.87,    45.69  C  1298.87     46.48   1299.50     47.11   1300.28     47.11  "/>
		<path style="stroke-width: 0.85 ;&st7;   " d=" M  1300.28,    47.11  C  1301.07     47.11   1301.70     46.48   1301.70     45.69  "/>
		<path style="stroke-width: 0.85 ;&st7;   " d=" M  1301.70,    68.36  C  1301.70     67.57   1301.07     66.94   1300.28     66.94  "/>
		<path style="stroke-width: 0.85 ;&st7;   " d=" M  1300.28,    66.94  C  1299.50     66.94   1298.87     67.57   1298.87     68.36  "/>
		<path style="stroke-width: 0.85 ;&st7;   " d=" M  1298.87,    68.36  C  1298.87     69.14   1299.50     69.77   1300.28     69.77  "/>
		<path style="stroke-width: 0.85 ;&st7;   " d=" M  1300.28,    69.77  C  1301.07     69.77   1301.70     69.14   1301.70     68.36  "/>
		<path style="stroke-width: 1.42 ;&st7;   " d=" M  1298.16,   112.27  C  1295.81    112.27   1293.91    114.17   1293.91    116.52  "/>
		<path style="stroke-width: 1.42 ;&st7;   " d=" M  1293.91,   116.52  C  1293.91    118.86   1295.81    120.77   1298.16    120.77  "/>
		<path style="stroke-width: 1.42 ;&st7;   " d=" M  1302.41,   120.77  C  1304.75    120.77   1306.66    118.86   1306.66    116.52  "/>
		<path style="stroke-width: 1.42 ;&st7;   " d=" M  1306.66,   116.52  C  1306.66    114.17   1304.75    112.27   1302.41    112.27  "/>
		<path style="stroke-width: 1.42 ;&st7;   " d=" M  1264.16,   116.52  C  1264.16    114.17   1262.26    112.27   1259.91    112.27  "/>
		<path style="stroke-width: 1.42 ;&st7;   " d=" M  1259.91,   120.77  C  1262.26    120.77   1264.16    118.86   1264.16    116.52  "/>
		<path style="stroke-width: 1.42 ;&st7;   " d=" M  1251.42,   116.52  C  1251.42    118.86   1253.32    120.77   1255.67    120.77  "/>
		<path style="stroke-width: 1.42 ;&st7;   " d=" M  1255.67,   112.27  C  1253.32    112.27   1251.42    114.17   1251.42    116.52  "/>
		<path style="stroke-width: 0.28 ;&st9;  " d=" M  1300.28,   107.37  L  1297.45,   104.54  L  1297.45,   108.79  L  1300.28,   111.62  L  1303.12,   108.79  L  1303.12,   104.54  L  1300.28,   107.37  "/>
		<path style="stroke-width: 1.42 ;&st7;  " d=" M  1287.53,    35.78  L  1287.53,    78.27  L  1313.03,    78.27  L  1313.03,    35.78  L  1287.53,    35.78  "/>
		<path style="stroke-width: 0.85 ;&st7;  " d=" M  1299.09,    94.27  L  1298.82,    94.74  L  1298.72,    95.27  L  1298.82,    95.80  L  1299.09,    96.27  L  1299.50,    96.62  L  1300.01,    96.81  L  1300.55,    96.81  L  1301.06,    96.62  L  1301.47,    96.27  L  1301.75,    95.80  L  1301.84,    95.27  L  1301.75,    94.74  L  1301.47,    94.27  L  1301.06,    93.92  L  1300.55,    93.73  L  1300.01,    93.73  L  1299.50,    93.92  L  1299.09,    94.27  L  1299.48,    94.98  L  1299.48,    95.56  L  1299.86,    96.01  L  1300.43,    96.11  L  1300.93,    95.82  L  1301.13,    95.27  L  1300.93,    94.72  L  1300.43,    94.43  L  1299.86,    94.53  L  1300.28,    95.27  "/>
		<path style="stroke-width: 0.85 ;&st7;  " d=" M  1257.79,   112.27  L  1257.79,    95.27  L  1300.28,    95.27  "/>
		<path style="stroke-width: 0.28 ;&st9;  " d=" M  1257.79,   107.37  L  1254.96,   104.54  L  1254.96,   108.79  L  1257.79,   111.62  L  1260.62,   108.79  L  1260.62,   104.54  L  1257.79,   107.37  "/>
		<text style="font-size:6px;font-family:'NSimSun';" transform="matrix(&st16;  1316.71  56.17 )">7.5A <tspan x="0 " dy="6.0">HTR-IG</tspan></text>
		<text style="font-size:6px;font-family:'NSimSun';" transform="matrix(&st16;  1296.35  118.49 )">3D</text>
		<text style="font-size:6px;font-family:'NSimSun';" transform="matrix(&st16;  1286.67  118.49 )">26</text>
		<text style="font-size:6px;font-family:'NSimSun';" transform="matrix(&st16;  1295.07  32.08 )">(IG)</text>
		<text style="font-size:6px;font-family:'NSimSun';" transform="matrix(&st16;  1294.1  86.47 )">2</text>
		<text style="font-size:6px;font-family:'NSimSun';" transform="matrix(&st16;  1244.18  118.49 )">44</text>
		<text style="font-size:6px;font-family:'NSimSun';" transform="matrix(&st16;  1253.86  118.49 )">3D</text>
	</g>
	<g ewd:figtype="jb" ewd:figID="15" ewd:code="3">
		<path style="stroke-width: 0.85 ;&st7;  " d=" M   186.97,    69.77  L   186.97,    78.27  "/>
		<path style="stroke-width: 1.42 ;&st7;  " d=" M   189.09,   103.77  L   184.84,   103.77  "/>
		<path style="stroke-width: 1.42 ;&st7;  " d=" M   189.09,    95.27  L   184.84,    95.27  "/>
		<path style="stroke-width: 1.42 ;&st7;   " d=" M   180.59,    99.52  C   180.59    101.87    182.50    103.77    184.84    103.77  "/>
		<path style="stroke-width: 1.42 ;&st7;   " d=" M   186.97,    47.11  C   184.23     48.72    183.32     52.25    184.93     54.99  "/>
		<path style="stroke-width: 1.42 ;&st7;   " d=" M   184.93,    54.99  C   185.45     55.87    186.09     56.51    186.97     57.03  "/>
		<path style="stroke-width: 1.42 ;&st7;   " d=" M   184.84,    95.27  C   182.50     95.27    180.59     97.17    180.59     99.52  "/>
		<path style="stroke-width: 1.42 ;&st7;   " d=" M   186.97,    66.94  C   189.71     65.33    190.62     61.80    189.01     59.06  "/>
		<path style="stroke-width: 1.42 ;&st7;   " d=" M   189.01,    59.06  C   188.49     58.18    187.85     57.55    186.97     57.03  "/>
		<path style="stroke-width: 0.85 ;&st7;   " d=" M   188.39,    45.69  C   188.39     44.91    187.75     44.28    186.97     44.28  "/>
		<path style="stroke-width: 0.85 ;&st7;   " d=" M   186.97,    44.28  C   186.19     44.28    185.55     44.91    185.55     45.69  "/>
		<path style="stroke-width: 0.85 ;&st7;   " d=" M   185.55,    45.69  C   185.55     46.48    186.19     47.11    186.97     47.11  "/>
		<path style="stroke-width: 0.85 ;&st7;   " d=" M   186.97,    47.11  C   187.75     47.11    188.39     46.48    188.39     45.69  "/>
		<path style="stroke-width: 0.85 ;&st7;   " d=" M   188.39,    68.36  C   188.39     67.57    187.75     66.94    186.97     66.94  "/>
		<path style="stroke-width: 0.85 ;&st7;   " d=" M   186.97,    66.94  C   186.19     66.94    185.55     67.57    185.55     68.36  "/>
		<path style="stroke-width: 0.85 ;&st7;   " d=" M   185.55,    68.36  C   185.55     69.14    186.19     69.77    186.97     69.77  "/>
		<path style="stroke-width: 0.85 ;&st7;   " d=" M   186.97,    69.77  C   187.75     69.77    188.39     69.14    188.39     68.36  "/>
		<path style="stroke-width: 1.42 ;&st7;   " d=" M   189.09,   103.77  C   191.44    103.77    193.34    101.87    193.34     99.52  "/>
		<path style="stroke-width: 1.42 ;&st7;   " d=" M   193.34,    99.52  C   193.34     97.17    191.44     95.27    189.09     95.27  "/>
		<path style="stroke-width: 0.85 ;&st7;  " d=" M   186.97,    95.27  L   186.97,    78.27  "/>
		<path style="stroke-width: 0.28 ;&st9;  " d=" M   186.97,    90.37  L   184.14,    87.54  L   184.14,    91.79  L   186.97,    94.62  L   189.80,    91.79  L   189.80,    87.54  L   186.97,    90.37  "/>
		<path style="stroke-width: 1.42 ;&st7;  " d=" M   199.72,    78.27  L   199.72,    35.78  L   174.22,    35.78  L   174.22,    78.27  L   199.72,    78.27  "/>
		<text style="font-size:6px;font-family:'NSimSun';" transform="matrix(&st16;  181.76  32.08 )">(IG)</text>
		<text style="font-size:6px;font-family:'NSimSun';" transform="matrix(&st16;  183.11  101.49 )">3A</text>
		<text style="font-size:6px;font-family:'NSimSun';" transform="matrix(&st16;  203.39  56.17 )">7.5A <tspan x="0 " dy="6.0">HTR-IG</tspan></text>
		<text style="font-size:6px;font-family:'NSimSun';" transform="matrix(&st16;  173.36  101.49 )">52</text>
		<text style="font-size:6px;font-family:'NSimSun';" transform="matrix(&st16;  180.78  86.47 )">2</text>
	</g>
	<g ewd:figtype="w2w" ewd:figID="16" ewd:code="AL2">
		<path style="stroke-width: 1.42 ;&st7;  " d=" M   607.65,   376.29  L   603.40,   372.04  L   599.15,   376.29  "/>
		<path style="stroke-width: 1.42 ;&st7;  " d=" M   607.65,   372.89  L   603.40,   368.64  L   599.15,   372.89  "/>
		<text style="font-size:6px;font-family:'NSimSun';" transform="matrix(&st16;  590.77  364.94 )">4</text>
	</g>
	<g ewd:figtype="w2w" ewd:figID="17" ewd:code="AE2">
		<path style="stroke-width: 1.42 ;&st7;  " d=" M  1168.55,   276.57  L  1164.30,   280.82  L  1160.06,   276.57  "/>
		<path style="stroke-width: 1.42 ;&st7;  " d=" M  1160.06,   273.17  L  1164.30,   277.42  L  1168.55,   273.17  "/>
		<text style="font-size:6px;font-family:'NSimSun';" transform="matrix(&st16;  1148.57  288.46 )">14</text>
	</g>
	<g ewd:figtype="gp" ewd:figID="18" ewd:code="AB">
		<path style="stroke-width: 0.85 ;&st7;  " d=" M   331.44,   697.25  L   331.44,   701.50  "/>
		<path style="stroke-width: 0.85 ;&st7;  " d=" M   327.20,   704.33  L   335.69,   704.33  "/>
		<path style="stroke-width: 0.85 ;&st7;  " d=" M   328.61,   707.17  L   334.28,   707.17  "/>
		<path style="stroke-width: 0.85 ;&st7;  " d=" M   330.03,   710.00  L   332.86,   710.00  "/>
		<path style="stroke-width: 0.85 ;&st7;  " d=" M   322.95,   701.50  L   339.94,   701.50  "/>
	</g>
	<g ewd:figtype="gp" ewd:figID="19" ewd:code="QA">
		<path style="stroke-width: 0.85 ;&st7;  " d=" M   720.96,   710.00  L   723.80,   710.00  "/>
		<path style="stroke-width: 0.85 ;&st7;  " d=" M   719.55,   707.17  L   725.21,   707.17  "/>
		<path style="stroke-width: 0.85 ;&st7;  " d=" M   718.13,   704.33  L   726.63,   704.33  "/>
		<path style="stroke-width: 0.85 ;&st7;  " d=" M   713.88,   701.50  L   730.88,   701.50  "/>
		<path style="stroke-width: 0.85 ;&st7;  " d=" M   722.38,   697.25  L   722.38,   701.50  "/>
	</g>
	<g ewd:figtype="gp" ewd:figID="20" ewd:code="EC">
		<path style="stroke-width: 0.85 ;&st7;  " d=" M   967.42,   710.00  L   970.25,   710.00  "/>
		<path style="stroke-width: 0.85 ;&st7;  " d=" M   966.00,   707.17  L   971.67,   707.17  "/>
		<path style="stroke-width: 0.85 ;&st7;  " d=" M   964.59,   704.33  L   973.09,   704.33  "/>
		<path style="stroke-width: 0.85 ;&st7;  " d=" M   960.34,   701.50  L   977.34,   701.50  "/>
		<path style="stroke-width: 0.85 ;&st7;  " d=" M   968.84,   697.25  L   968.84,   701.50  "/>
	</g>
	<g ewd:figtype="gp" ewd:figID="21" ewd:code="EB">
		<path style="stroke-width: 0.85 ;&st7;  " d=" M  1240.79,   697.25  L  1240.79,   701.50  "/>
		<path style="stroke-width: 0.85 ;&st7;  " d=" M  1232.29,   701.50  L  1249.29,   701.50  "/>
		<path style="stroke-width: 0.85 ;&st7;  " d=" M  1236.54,   704.33  L  1245.04,   704.33  "/>
		<path style="stroke-width: 0.85 ;&st7;  " d=" M  1237.96,   707.17  L  1243.63,   707.17  "/>
		<path style="stroke-width: 0.85 ;&st7;  " d=" M  1239.38,   710.00  L  1242.21,   710.00  "/>
	</g>
	<g ewd:figtype="gp" ewd:figID="22" ewd:code="ED">
		<path style="stroke-width: 0.85 ;&st7;  " d=" M  1402.27,   697.25  L  1402.27,   701.50  "/>
		<path style="stroke-width: 0.85 ;&st7;  " d=" M  1393.77,   701.50  L  1410.76,   701.50  "/>
		<path style="stroke-width: 0.85 ;&st7;  " d=" M  1398.02,   704.33  L  1406.51,   704.33  "/>
		<path style="stroke-width: 0.85 ;&st7;  " d=" M  1399.43,   707.17  L  1405.10,   707.17  "/>
		<path style="stroke-width: 0.85 ;&st7;  " d=" M  1400.85,   710.00  L  1403.68,   710.00  "/>
	</g>
	<g ewd:figtype="annex" ewd:figID="28" ewd:code=" ">
		<path style="stroke-width: 0.85 ;&st7;  " d=" M   599.15,   559.86  L   607.65,   559.86  "/>
		<path style="stroke-width: 0.85 ;&st7;  " d=" M   594.90,   557.03  L   611.90,   557.03  "/>
		<path style="stroke-width: 0.85 ;&st7;  " d=" M   600.57,   562.69  L   606.23,   562.69  "/>
		<path style="stroke-width: 0.85 ;&st7;  " d=" M   601.98,   565.52  L   604.82,   565.52  "/>
		<path style="stroke-width: 0.85 ;&st7;  " d=" M   603.40,   545.69  L   603.40,   557.03  "/>
	</g>
	<g ewd:code="3" ewd:figID="31" ewd:comment="" ewd:figtype="comment">
		<text style="font-size:6px;font-family:'NSimSun';" transform="matrix(&st16;  1101.41  37.75 )" ewd:textID="1">* 3 : 自动空调</text>
	</g>
	<g ewd:code="4" ewd:figID="29" ewd:comment="" ewd:figtype="comment">
		<text style="font-size:6px;font-family:'NSimSun';" transform="matrix(&st16;  1101.41  46.25 )" ewd:textID="2">* 4 : 手动空调</text>
	</g>
	<g ewd:code="4" ewd:figID="30" ewd:comment="" ewd:figtype="comment">
		<text style="font-size:6px;font-family:'NSimSun';" transform="matrix(&st16;  676.48  46.25 )" ewd:textID="2">* 4 : 手动空调</text>
	</g>
	<path style="stroke-width: 1.42 ;&st7;  " d=" M   611.90,   367.22  L   603.40,   367.22  "/>
	<path style="stroke-width: 1.42 ;&st7;  " d=" M  1155.81,   282.24  L  1164.31,   282.24  "/>
	<path style="stroke-width: 1.42 ;&st7;  " d=" M   339.94,   406.19  L   334.97,   401.22  "/>
	<path style="stroke-width: 1.42 ;&st7;  " d=" M   322.95,   413.25  L   327.91,   418.22  "/>
	<path style="stroke-width: 1.42 ;&st7;  " d=" M   334.97,   418.22  L   339.94,   413.25  "/>
	<path style="stroke-width: 1.42 ;&st7;  " d=" M   327.91,   401.22  L   322.95,   406.19  "/>
	<text style="font-size:6px;font-family:'NSimSun';" transform="matrix(&st17;  939.65  360.53 )">V</text>
	<text style="font-size:6px;font-family:'NSimSun';" transform="matrix(&st17;  950.98  363.44 )">(*4)</text>
	<text style="font-size:6px;font-family:'NSimSun';" transform="matrix(&st17;  865.99  363.44 )">(*4)</text>
	<text style="font-size:6px;font-family:'NSimSun';" transform="matrix(&st17;  599.7  419.9 )">B</text>
	<text style="font-size:6px;font-family:'NSimSun';" transform="matrix(&st17;  718.68  611.14 )">W-B</text>
	<text style="font-size:6px;font-family:'NSimSun';" transform="matrix(&st17;  285.26  130.95 )">B</text>
	<text style="font-size:6px;font-family:'NSimSun';" transform="matrix(&st16;  218.77  134.07 )">B</text>
	<text style="font-size:6px;font-family:'NSimSun';" transform="matrix(&st17;  259.76  284.7 )">W</text>
	<text style="font-size:6px;font-family:'NSimSun';" transform="matrix(&st17;  327.75  288.19 )">W-B</text>
	<text style="font-size:6px;font-family:'NSimSun';" transform="matrix(&st17;  327.75  526.15 )">W-B</text>
	<text style="font-size:6px;font-family:'NSimSun';" transform="matrix(&st17;  285.26  283.93 )">B</text>
	<text style="font-size:6px;font-family:'NSimSun';" transform="matrix(&st17;  718.68  453.9 )">B</text>
	<text style="font-size:6px;font-family:'NSimSun';" transform="matrix(&st17;  1307.92  227.46 )">(*3)</text>
	<text style="font-size:6px;font-family:'NSimSun';" transform="matrix(&st17;  1307.92  346.44 )">(*3)</text>
	<text style="font-size:6px;font-family:'NSimSun';" transform="matrix(&st16;  1057.11  272.88 )">(*4)</text>
	<text style="font-size:6px;font-family:'NSimSun';" transform="matrix(&st16;  1060.02  261.54 )">V</text>
	<text style="font-size:6px;font-family:'NSimSun';" transform="matrix(&st16;  1057.11  145.4 )">(*4)</text>
	<text style="font-size:6px;font-family:'NSimSun';" transform="matrix(&st16;  1060.13  134.07 )">B</text>
	<text style="font-size:6px;font-family:'NSimSun';" transform="matrix(&st17;  1296.59  344.97 )">SB</text>
	<text style="font-size:6px;font-family:'NSimSun';" transform="matrix(&st16;  490.73  304.04 )">B</text>
	<text style="font-size:6px;font-family:'NSimSun';" transform="matrix(&st16;  489.95  329.53 )">W</text>
	<text style="font-size:6px;font-family:'NSimSun';" transform="matrix(&st16;  541.72  304.04 )">B</text>
	<text style="font-size:6px;font-family:'NSimSun';" transform="matrix(&st17;  854.66  360.41 )">B</text>
	<text style="font-size:6px;font-family:'NSimSun';" transform="matrix(&st16;  540.95  329.53 )">W</text>
	<text style="font-size:6px;font-family:'NSimSun';" transform="matrix(&st17;  1237.1  224.55 )">V</text>
	<text style="font-size:6px;font-family:'NSimSun';" transform="matrix(&st17;  1296.59  224.32 )">L</text>
	<text style="font-size:6px;font-family:'NSimSun';" transform="matrix(&st17;  1364.58  224.44 )">B</text>
	<text style="font-size:6px;font-family:'NSimSun';" transform="matrix(&st16;  1006.12  145.4 )">(*4)</text>
	<text style="font-size:6px;font-family:'NSimSun';" transform="matrix(&st17;  1237.1  455.76 )">BR</text>
	<text style="font-size:6px;font-family:'NSimSun';" transform="matrix(&st16;  1009.14  134.07 )">B</text>
	<text style="font-size:6px;font-family:'NSimSun';" transform="matrix(&st17;  174.77  453.78 )">L</text>
	<text style="font-size:6px;font-family:'NSimSun';" transform="matrix(&st17;  1248.43  227.46 )">(*3)</text>
	<text style="font-size:6px;font-family:'NSimSun';" transform="matrix(&st16;  1006.12  272.88 )">(*4)</text>
	<text style="font-size:6px;font-family:'NSimSun';" transform="matrix(&st16;  1009.03  261.54 )">V</text>
	<text style="font-size:6px;font-family:'NSimSun';" transform="matrix(&st17;  1375.91  227.46 )">(*3)</text>
	<text style="font-size:6px;font-family:'NSimSun';" transform="matrix(&st17;  1398.57  458.16 )">W-B</text>
	<text style="font-size:6px;font-family:'NSimSun';" transform="matrix(&st17;  1409.9  456.92 )">(*3)</text>
	<text style="font-size:6px;font-family:'NSimSun';" transform="matrix(&st17;  1248.43  456.92 )">(*3)</text>
	<text style="font-size:6px;font-family:'NSimSun';" transform="matrix(&st16;  1008.37  329.53 )">W</text>
	<text style="font-size:6px;font-family:'NSimSun';" transform="matrix(&st16;  1059.36  329.53 )">W</text>
	<text style="font-size:6px;font-family:'NSimSun';" transform="matrix(&st16;  1235.58  145.4 )">(*4)</text>
	<text style="font-size:6px;font-family:'NSimSun';" transform="matrix(&st16;  1238.6  134.07 )">B</text>
	<text style="font-size:6px;font-family:'NSimSun';" transform="matrix(&st17;  965.14  611.14 )">W-B</text>
	<text style="font-size:6px;font-family:'NSimSun';" transform="matrix(&st17;  174.77  283.93 )">B</text>
	<text style="font-size:6px;font-family:'NSimSun';" transform="matrix(&st17;  1237.1  608.73 )">BR</text>
	<text style="font-size:6px;font-family:'NSimSun';" transform="matrix(&st17;  1248.43  609.9 )">(*3)</text>
	<text style="font-size:6px;font-family:'NSimSun';" transform="matrix(&st17;  976.47  609.9 )">(*4)</text>
	<text style="font-size:6px;font-family:'NSimSun';" transform="matrix(&st17;  1398.57  611.14 )">W-B</text>
	<text style="font-size:6px;font-family:'NSimSun';" transform="matrix(&st17;  1409.9  609.9 )">(*3)</text>
	<a ewd:figtype="w2w" style="cursor:pointer;" ewd:pinNo="4" ewd:code="AL2" ewd:figID="16">
		<path style="&st2;" d=" M   611.90,   358.73  L   594.90,   358.73  L   594.90,   367.22  L   611.90,   367.22  L   611.90,   358.73 "/>
		<text style="&st8;" transform="matrix(&st16;  598.13  365.09 )"><tspan x="0" style="font-size:6px;font-family:'NSimSun';" y="0">AL2</tspan></text>
	</a>
	<a ewd:figtype="w2w" style="cursor:pointer;" ewd:pinNo="14" ewd:code="AE2" ewd:figID="17">
		<path style="&st2;" d=" M  1172.80,   282.24  L  1155.81,   282.24  L  1155.81,   290.74  L  1172.80,   290.74  L  1172.80,   282.24 "/>
		<text style="&st8;" transform="matrix(&st16;  1159.0  288.61 )"><tspan x="0" style="font-size:6px;font-family:'NSimSun';" y="0">AE2</tspan></text>
	</a>
	<a ewd:figtype="gp" style="cursor:pointer;" ewd:code="AB" ewd:figID="18">
		<path style="&st2;" d=" M   320.82,   681.67  L   342.07,   681.67  L   331.44,   697.25  L   320.82,   681.67 "/>
		<text style="&st8;" transform="matrix(&st16;  327.57  689.46 )"><tspan x="0" style="font-size:6px;font-family:'NSimSun';" y="0">AB</tspan></text>
	</a>
	<a ewd:figtype="gp" style="cursor:pointer;" ewd:code="QA" ewd:figID="19">
		<path style="&st2;" d=" M   711.76,   681.67  L   733.00,   681.67  L   722.38,   697.25  L   711.76,   681.67 "/>
		<text style="&st8;" transform="matrix(&st16;  718.09  689.46 )"><tspan x="0" style="font-size:6px;font-family:'NSimSun';" y="0">QA</tspan></text>
	</a>
	<a ewd:figtype="gp" style="cursor:pointer;" ewd:code="EC" ewd:figID="20">
		<path style="&st2;" d=" M   958.21,   681.67  L   979.46,   681.67  L   968.84,   697.25  L   958.21,   681.67 "/>
		<text style="&st8;" transform="matrix(&st16;  964.93  689.46 )"><tspan x="0" style="font-size:6px;font-family:'NSimSun';" y="0">EC</tspan></text>
	</a>
	<a ewd:figtype="gp" style="cursor:pointer;" ewd:code="EB" ewd:figID="21">
		<path style="&st2;" d=" M  1230.17,   681.67  L  1251.42,   681.67  L  1240.79,   697.25  L  1230.17,   681.67 "/>
		<text style="&st8;" transform="matrix(&st16;  1237.11  689.46 )"><tspan x="0" style="font-size:6px;font-family:'NSimSun';" y="0">EB</tspan></text>
	</a>
	<a ewd:figtype="gp" style="cursor:pointer;" ewd:code="ED" ewd:figID="22">
		<path style="&st2;" d=" M  1391.64,   681.67  L  1412.89,   681.67  L  1402.27,   697.25  L  1391.64,   681.67 "/>
		<text style="&st8;" transform="matrix(&st16;  1398.39  689.46 )"><tspan x="0" style="font-size:6px;font-family:'NSimSun';" y="0">ED</tspan></text>
	</a>
	<a ewd:figtype="sp" style="cursor:pointer;" ewd:code="SP3" ewd:figID="23">
		<path style="&st2;" d=" M   327.20,   401.22  L   335.69,   401.22  L   339.94,   405.47  L   339.94,   413.97  L   335.69,   418.22  L   327.20,   418.22  L   322.95,   413.97  L   322.95,   405.47  L   327.20,   401.22 "/>
	</a>
</g>
</svg>