<?xml version="1.0" encoding="utf-8"?>
<!DOCTYPE svg PUBLIC "-//W3C//DTD SVG 1.0//EN" "http://www.w3.org/TR/2001/REC-SVG-20010904/DTD/svg10.dtd"[
	<!ENTITY ns_flows "http://ns.adobe.com/Flows/1.0/">
	<!ENTITY ns_svg "http://www.w3.org/2000/svg">
	<!ENTITY ns_xlink "http://www.w3.org/1999/xlink">
	<!ENTITY st0 "font-size:7px;font-family:'NSimSun';adobe-font-script:japanese;">
	<!ENTITY st1 "font-size:6px;font-family:'NSimSun';">
	<!-- White fill  -->
	<!ENTITY st2 "fill:#FFFFFF;stroke:#000000; stroke-width:1.41;stroke-linecap:round;stroke-linejoin:round;">
	<!-- Yellow fill  -->
	<!ENTITY st3 "fill:#FFFFCC;stroke:#FFFFCC; stroke-width:0.1;stroke-linecap:round;stroke-linejoin:round;">
	<!-- Gray fill  -->
	<!ENTITY st4 "fill:#CCCCCC;stroke:#CCCCCC; stroke-width:0.1;stroke-linecap:round;stroke-linejoin:round;">
	<!-- Light-blue fill -->
	<!ENTITY st5 "fill:#CCECF4;stroke:#000000; stroke-width:1.133;stroke-linecap:round;stroke-linejoin:round;">
	<!ENTITY st6 "fill:none;stroke-linecap:butt; stroke-linejoin:round;">
	<!ENTITY st7 "fill:none;stroke:#000000;stroke-linecap:round;stroke-linejoin:round;">
	<!ENTITY st8 "enable-background:new    ;">
	<!-- Black fill -->
	<!ENTITY st9 "fill:#000000;stroke:#000000; stroke-linecap:round;stroke-linejoin:round;">
	<!-- SRS note   -->
	<!ENTITY st10 "font-size:9px;font-family:'NSimSun';">
	<!ENTITY st11 "font-size:9px;font-family:'NSimSun';">
	<!ENTITY st12 "font-size:6px;font-family:'NSimSun';">
	<!ENTITY st13 "fill:none;stroke:#ff0000;stroke-linecap:round;stroke-linejoin:round;">
	<!-- Yellow fill  -->
	<!ENTITY st14 "fill:#FFFF00;stroke:#FFFF00; stroke-width:0.1;stroke-linecap:round;stroke-linejoin:round;">
	<!ENTITY st15 "font-size:6px;font-family:'NSimSun';adobe-font-script:japanese;">
	<!ENTITY st16 "1.00 0.00 0.00 1.00">
	<!ENTITY st17 "0.00 -1.00 1.00 0.00">
	<!ENTITY st18 "font-size:6px;font-family:'NSimSun';">
	<!ENTITY st19 "font-size:9px;font-family:'NSimSun';">
	<!ENTITY st20 "font-size:6px;font-family:'NSimSun';adobe-font-script:japanese;">
	<!ENTITY st21 "font-size:7px;font-family:'NSimSun';adobe-font-script:japanese;">
	<!ATTLIST svg
		xmlns:ewd CDATA #FIXED "http://shcl.co.jp/ewd"
		xmlns:a CDATA #FIXED "http://ns.adobe.com/AdobeSVGViewerExtensions/3.0/"
		ewd:ver CDATA #IMPLIED
	>
	<!ATTLIST a
		ewd:lineID CDATA #IMPLIED
		ewd:groupID CDATA #IMPLIED
		ewd:figtype CDATA #IMPLIED
		ewd:code CDATA #IMPLIED
		ewd:figID CDATA #IMPLIED
		ewd:pinNo CDATA #IMPLIED
		ewd:comment CDATA #IMPLIED >
	<!ATTLIST g
		ewd:lineID CDATA #IMPLIED
		ewd:groupID CDATA #IMPLIED
		ewd:figtype CDATA #IMPLIED
		ewd:code CDATA #IMPLIED
		ewd:figID CDATA #IMPLIED
		ewd:pinNo CDATA #IMPLIED
		ewd:comment CDATA #IMPLIED >
	<!ATTLIST text
		ewd:textID CDATA #IMPLIED
		ewd:horAlign CDATA #IMPLIED >
	<!ATTLIST title
		ewd:textID CDATA #IMPLIED >
]>
<!-- Generator: Shintec Hozumi YS   -->
<svg onload="call_execInitLoadProc_svg('system')" style="overflow:visible;  enable-background:new 0 0 1431.134 710.000" viewBox="0 0 1435.251 710.000" height="710.000" width="1435.251" xml:space="preserve" ewd:ver="2.1.2.6F" xmlns="&ns_svg;" xmlns:ewd="http://shcl.co.jp/ewd" xmlns:a="http://ns.adobe.com/AdobeSVGViewerExtensions/3.0/" xmlns:xlink="&ns_xlink;">
<path style="stroke-width: 1.42 ;&st7;  " d=" M   467.42,   406.19  L   462.45,   401.22  " /><path style="stroke-width: 1.42 ;&st7;  " d=" M   450.42,   413.25  L   455.39,   418.22  " /><path style="stroke-width: 1.42 ;&st7;  " d=" M   462.45,   418.22  L   467.42,   413.25  " /><path style="stroke-width: 1.42 ;&st7;  " d=" M   455.39,   401.22  L   450.42,   406.19  " /><text style="font-size:6px;font-family:'NSimSun';" transform="matrix(&st17;  412.73  130.95 )">B</text><text style="font-size:6px;font-family:'NSimSun';" transform="matrix(&st16;  346.25  134.07 )">B</text><text style="font-size:6px;font-family:'NSimSun';" transform="matrix(&st17;  387.24  284.7 )">W</text><text style="font-size:6px;font-family:'NSimSun';" transform="matrix(&st17;  455.23  288.19 )">W-B</text><text style="font-size:6px;font-family:'NSimSun';" transform="matrix(&st17;  455.23  526.15 )">W-B</text><text style="font-size:6px;font-family:'NSimSun';" transform="matrix(&st17;  412.73  283.93 )">B</text><text style="font-size:6px;font-family:'NSimSun';" transform="matrix(&st16;  490.73  304.04 )">B</text><text style="font-size:6px;font-family:'NSimSun';" transform="matrix(&st16;  489.95  329.53 )">W</text><text style="font-size:6px;font-family:'NSimSun';" transform="matrix(&st17;  302.25  453.78 )">L</text><text style="font-size:6px;font-family:'NSimSun';" transform="matrix(&st17;  302.25  283.93 )">B</text><path style="stroke-width: 1.42 ;&st7;  " d=" M   152.97,   222.75  L   161.47,   222.75  " /><path style="stroke-width: 1.42 ;&st7;  " d=" M    50.99,   222.75  L    59.49,   222.75  " /><path style="stroke-width: 1.42 ;&st7;  " d=" M   169.97,   605.18  L   161.47,   605.18  " /><path style="stroke-width: 1.42 ;&st7;  " d=" M    67.99,   605.18  L    59.49,   605.18  " /><path style="stroke-width: 1.42 ;&st7;  " d=" M   169.97,   516.67  L   165.00,   511.70  " /><path style="stroke-width: 1.42 ;&st7;  " d=" M   152.97,   523.73  L   157.94,   528.70  " /><path style="stroke-width: 1.42 ;&st7;  " d=" M   165.00,   528.70  L   169.97,   523.73  " /><path style="stroke-width: 1.42 ;&st7;  " d=" M   157.94,   511.70  L   152.97,   516.67  " /><path style="stroke-width: 1.42 ;&st7;  " d=" M    67.99,   516.67  L    63.02,   511.70  " /><path style="stroke-width: 1.42 ;&st7;  " d=" M    50.99,   523.73  L    55.96,   528.70  " /><path style="stroke-width: 1.42 ;&st7;  " d=" M    63.02,   528.70  L    67.99,   523.73  " /><path style="stroke-width: 1.42 ;&st7;  " d=" M    55.96,   511.70  L    50.99,   516.67  " /><text style="font-size:6px;font-family:'NSimSun';" transform="matrix(&st17;  157.78  568.65 )">W-B</text><text style="font-size:6px;font-family:'NSimSun';" transform="matrix(&st17;  55.79  483.66 )">W-B</text><text style="font-size:6px;font-family:'NSimSun';" transform="matrix(&st17;  157.78  483.66 )">W-B</text><text style="font-size:6px;font-family:'NSimSun';" transform="matrix(&st17;  157.78  653.63 )">W-B</text><text style="font-size:6px;font-family:'NSimSun';" transform="matrix(&st17;  55.79  190.44 )">B</text><text style="font-size:6px;font-family:'NSimSun';" transform="matrix(&st17;  55.79  254.18 )">B</text><text style="font-size:6px;font-family:'NSimSun';" transform="matrix(&st17;  157.78  254.18 )">B</text><text style="font-size:6px;font-family:'NSimSun';" transform="matrix(&st17;  234.26  190.44 )">B</text><text style="font-size:6px;font-family:'NSimSun';" transform="matrix(&st17;  157.78  190.44 )">B</text><text style="font-size:6px;font-family:'NSimSun';" transform="matrix(&st17;  55.79  568.65 )">W-B</text><text style="font-size:6px;font-family:'NSimSun';" transform="matrix(&st17;  55.79  653.63 )">W-B</text><g ewd:figtype="rb" ewd:figID="1" ewd:code="1"><path style="stroke-width: 1.42 ;&st7;  " d=" M   393.06,   154.76  L   388.81,   154.76  " /><path style="stroke-width: 1.42 ;&st7;  " d=" M   393.06,   163.26  L   388.81,   163.26  " /><path style="stroke-width: 1.42 ;&st7;  " d=" M   418.56,   154.76  L   414.31,   154.76  " /><path style="stroke-width: 1.42 ;&st7;  " d=" M   418.56,   163.26  L   414.31,   163.26  " /><path style="stroke-width: 1.42 ;&st7;  " d=" M   393.06,   239.75  L   388.81,   239.75  " /><path style="stroke-width: 1.42 ;&st7;  " d=" M   393.06,   231.25  L   388.81,   231.25  " /><path style="stroke-width: 1.42 ;&st7;  " d=" M   418.56,   231.25  L   414.31,   231.25  " /><path style="stroke-width: 1.42 ;&st7;  " d=" M   418.56,   239.75  L   414.31,   239.75  " /><path style="stroke-width: 1.42 ;&st7;  " d=" M   461.05,   239.75  L   456.80,   239.75  " /><path style="stroke-width: 1.42 ;&st7;  " d=" M   461.05,   231.25  L   456.80,   231.25  " /><path style="stroke-width: 1.42 ;&st7;   " d=" M   465.30,   235.50  C   465.30    233.15    463.39    231.25    461.05    231.25  " /><path style="stroke-width: 1.42 ;&st7;   " d=" M   461.05,   239.75  C   463.39    239.75    465.30    237.84    465.30    235.50  " /><path style="stroke-width: 1.42 ;&st7;   " d=" M   452.55,   235.50  C   452.55    237.84    454.45    239.75    456.80    239.75  " /><path style="stroke-width: 1.42 ;&st7;   " d=" M   456.80,   231.25  C   454.45    231.25    452.55    233.15    452.55    235.50  " /><path style="stroke-width: 1.42 ;&st7;   " d=" M   388.81,   154.76  C   386.46    154.76    384.56    156.66    384.56    159.01  " /><path style="stroke-width: 1.42 ;&st7;   " d=" M   384.56,   159.01  C   384.56    161.36    386.46    163.26    388.81    163.26  " /><path style="stroke-width: 1.42 ;&st7;   " d=" M   393.06,   163.26  C   395.41    163.26    397.31    161.36    397.31    159.01  " /><path style="stroke-width: 1.42 ;&st7;   " d=" M   397.31,   159.01  C   397.31    156.66    395.41    154.76    393.06    154.76  " /><path style="stroke-width: 1.42 ;&st7;   " d=" M   414.31,   154.76  C   411.96    154.76    410.06    156.66    410.06    159.01  " /><path style="stroke-width: 1.42 ;&st7;   " d=" M   410.06,   159.01  C   410.06    161.36    411.96    163.26    414.31    163.26  " /><path style="stroke-width: 1.42 ;&st7;   " d=" M   418.56,   163.26  C   420.90    163.26    422.80    161.36    422.80    159.01  " /><path style="stroke-width: 1.42 ;&st7;   " d=" M   422.80,   159.01  C   422.80    156.66    420.90    154.76    418.56    154.76  " /><path style="stroke-width: 1.42 ;&st7;   " d=" M   397.31,   235.50  C   397.31    233.15    395.41    231.25    393.06    231.25  " /><path style="stroke-width: 1.42 ;&st7;   " d=" M   393.06,   239.75  C   395.41    239.75    397.31    237.84    397.31    235.50  " /><path style="stroke-width: 1.42 ;&st7;   " d=" M   384.56,   235.50  C   384.56    237.84    386.46    239.75    388.81    239.75  " /><path style="stroke-width: 1.42 ;&st7;   " d=" M   388.81,   231.25  C   386.46    231.25    384.56    233.15    384.56    235.50  " /><path style="stroke-width: 1.42 ;&st7;   " d=" M   414.31,   231.25  C   411.96    231.25    410.06    233.15    410.06    235.50  " /><path style="stroke-width: 1.42 ;&st7;   " d=" M   410.06,   235.50  C   410.06    237.84    411.96    239.75    414.31    239.75  " /><path style="stroke-width: 1.42 ;&st7;   " d=" M   418.56,   239.75  C   420.90    239.75    422.80    237.84    422.80    235.50  " /><path style="stroke-width: 1.42 ;&st7;   " d=" M   422.80,   235.50  C   422.80    233.15    420.90    231.25    418.56    231.25  " /><path style="stroke-width: 0.85 ;&st7;  " d=" M   424.93,   197.25  L   458.92,   197.25  L   458.92,   231.25  " /><path style="stroke-width: 0.28 ;&st9;  " d=" M   458.92,   226.35  L   456.09,   223.52  L   456.09,   227.77  L   458.92,   230.60  L   461.76,   227.77  L   461.76,   223.52  L   458.92,   226.35  " /><path style="stroke-width: 0.28 ;&st9;  " d=" M   390.93,   168.15  L   393.77,   170.99  L   393.77,   166.74  L   390.93,   163.90  L   388.10,   166.74  L   388.10,   170.99  L   390.93,   168.15  " /><path style="stroke-width: 0.85 ;&st7;  " d=" M   416.43,   180.26  L   416.43,   163.26  " /><path style="stroke-width: 0.28 ;&st9;  " d=" M   416.43,   168.15  L   419.26,   170.99  L   419.26,   166.74  L   416.43,   163.90  L   413.60,   166.74  L   413.60,   170.99  L   416.43,   168.15  " /><path style="stroke-width: 0.85 ;&st7;  " d=" M   390.93,   180.26  L   390.93,   163.26  " /><path style="stroke-width: 0.28 ;&st9;  " d=" M   390.93,   226.35  L   388.10,   223.52  L   388.10,   227.77  L   390.93,   230.60  L   393.77,   227.77  L   393.77,   223.52  L   390.93,   226.35  " /><path style="stroke-width: 0.85 ;&st7;  " d=" M   416.43,   214.25  L   416.43,   231.25  " /><path style="stroke-width: 0.28 ;&st9;  " d=" M   416.43,   226.35  L   413.60,   223.52  L   413.60,   227.77  L   416.43,   230.60  L   419.26,   227.77  L   419.26,   223.52  L   416.43,   226.35  " /><path style="stroke-width: 0.85 ;&st7;  " d=" M   390.93,   214.25  L   390.93,   231.25  " /><text style="font-size:6px;font-family:'NSimSun';" transform="matrix(&st16;  457.12  237.47 )">1</text><text style="font-size:6px;font-family:'NSimSun';" transform="matrix(&st16;  389.13  160.98 )">1</text><text style="font-size:6px;font-family:'NSimSun';" transform="matrix(&st16;  414.63  160.98 )">1</text><text style="font-size:6px;font-family:'NSimSun';" transform="matrix(&st16;  389.13  237.47 )">1</text><text style="font-size:6px;font-family:'NSimSun';" transform="matrix(&st16;  414.63  237.47 )">1</text><text style="font-size:6px;font-family:'NSimSun';" transform="matrix(&st16;  384.75  176.56 )">1</text><text style="font-size:6px;font-family:'NSimSun';" transform="matrix(&st16;  410.25  176.56 )">5</text><text style="font-size:6px;font-family:'NSimSun';" transform="matrix(&st16;  384.75  222.44 )">2</text><text style="font-size:6px;font-family:'NSimSun';" transform="matrix(&st16;  410.25  222.44 )">3</text><text style="font-size:6px;font-family:'NSimSun';" transform="matrix(&st17;  379.03  210.73 )" ewd:textID="7">DEF 继电器</text><text style="font-size:6px;font-family:'NSimSun';" transform="matrix(&st16;  427.51  193.56 )">4</text><path style="stroke-width: 1.42 ;&st7;  " d=" M   416.43,   207.17  L   422.10,   184.50  " /><path style="stroke-width: 0.85 ;&st7;  " d=" M   416.43,   214.25  L   416.43,   210.00  " /><path style="stroke-width: 0.85 ;&st7;  " d=" M   416.43,   180.26  L   416.43,   184.50  " /><path style="stroke-width: 0.85 ;&st7;  " d=" M   390.93,   180.26  L   390.93,   188.75  " /><path style="stroke-width: 0.85 ;&st7;  " d=" M   390.93,   205.75  L   390.93,   214.25  " /><path style="stroke-width: 0.85 ;&st7;   " d=" M   417.85,   208.58  C   417.85    207.80    417.21    207.17    416.43    207.17  " /><path style="stroke-width: 0.85 ;&st7;   " d=" M   416.43,   207.17  C   415.65    207.17    415.01    207.80    415.01    208.58  " /><path style="stroke-width: 0.85 ;&st7;   " d=" M   415.01,   208.58  C   415.01    209.37    415.65    210.00    416.43    210.00  " /><path style="stroke-width: 0.85 ;&st7;   " d=" M   416.43,   210.00  C   417.21    210.00    417.85    209.37    417.85    208.58  " /><path style="stroke-width: 0.85 ;&st7;   " d=" M   417.85,   185.92  C   417.85    185.14    417.21    184.50    416.43    184.50  " /><path style="stroke-width: 0.85 ;&st7;   " d=" M   416.43,   184.50  C   415.65    184.50    415.01    185.14    415.01    185.92  " /><path style="stroke-width: 0.85 ;&st7;   " d=" M   415.01,   185.92  C   415.01    186.70    415.65    187.34    416.43    187.34  " /><path style="stroke-width: 0.85 ;&st7;   " d=" M   416.43,   187.34  C   417.21    187.34    417.85    186.70    417.85    185.92  " /><path style="stroke-width: 0.85 ;&st7;   " d=" M   388.40,   194.77  C   389.77    196.17    392.02    196.19    393.41    194.82  " /><path style="stroke-width: 0.85 ;&st7;   " d=" M   393.41,   194.82  C   394.81    193.46    394.83    191.21    393.46    189.82  " /><path style="stroke-width: 0.85 ;&st7;   " d=" M   393.46,   189.82  C   392.77    189.11    391.93    188.75    390.93    188.75  " /><path style="stroke-width: 0.85 ;&st7;   " d=" M   388.40,   199.73  C   389.77    201.13    392.02    201.15    393.41    199.78  " /><path style="stroke-width: 0.85 ;&st7;   " d=" M   393.41,   199.78  C   394.81    198.41    394.83    196.17    393.46    194.77  " /><path style="stroke-width: 0.85 ;&st7;   " d=" M   393.46,   194.77  C   392.10    193.38    389.85    193.35    388.46    194.72  " /><path style="stroke-width: 0.85 ;&st7;   " d=" M   388.46,   194.72  C   388.44    194.74    388.42    194.76    388.40    194.77  " /><path style="stroke-width: 0.85 ;&st7;   " d=" M   390.93,   205.75  C   392.89    205.75    394.48    204.17    394.48    202.21  " /><path style="stroke-width: 0.85 ;&st7;   " d=" M   394.48,   202.21  C   394.48    200.25    392.89    198.67    390.93    198.67  " /><path style="stroke-width: 0.85 ;&st7;   " d=" M   390.93,   198.67  C   389.94    198.67    389.10    199.02    388.41    199.73  " /><path style="stroke-width: 0.85 ;&st7;   " d=" M   422.10,   197.25  C   422.10    196.47    421.46    195.84    420.68    195.84  " /><path style="stroke-width: 0.85 ;&st7;   " d=" M   420.68,   195.84  C   419.90    195.84    419.26    196.47    419.26    197.25  " /><path style="stroke-width: 0.85 ;&st7;   " d=" M   419.26,   197.25  C   419.26    198.03    419.90    198.67    420.68    198.67  " /><path style="stroke-width: 0.85 ;&st7;   " d=" M   420.68,   198.67  C   421.46    198.67    422.10    198.03    422.10    197.25  " /><path style="stroke-width: 1.42 ;&st7;  " d=" M   424.93,   180.26  L   382.44,   180.26  L   382.44,   214.25  L   424.93,   214.25  L   424.93,   180.26  " /><path style="stroke-width: 0.85 ;&st7;  " d=" M   424.93,   197.25  L   422.10,   197.25  " /></g><g ewd:figtype="rb" ewd:figID="3" ewd:code="FUSE15"><path style="stroke-width: 1.42 ;&st7;  " d=" M   308.07,   418.22  L   303.82,   418.22  " /><path style="stroke-width: 1.42 ;&st7;  " d=" M   308.07,   409.72  L   303.82,   409.72  " /><path style="stroke-width: 1.42 ;&st7;  " d=" M   308.07,   333.23  L   303.82,   333.23  " /><path style="stroke-width: 1.42 ;&st7;  " d=" M   308.07,   324.73  L   303.82,   324.73  " /><path style="stroke-width: 1.42 ;&st7;   " d=" M   312.32,   413.97  C   312.32    411.62    310.42    409.72    308.07    409.72  " /><path style="stroke-width: 1.42 ;&st7;   " d=" M   308.07,   418.22  C   310.42    418.22    312.32    416.31    312.32    413.97  " /><path style="stroke-width: 1.42 ;&st7;   " d=" M   299.57,   413.97  C   299.57    416.31    301.48    418.22    303.82    418.22  " /><path style="stroke-width: 1.42 ;&st7;   " d=" M   303.82,   409.72  C   301.48    409.72    299.57    411.62    299.57    413.97  " /><path style="stroke-width: 1.42 ;&st7;   " d=" M   312.32,   328.98  C   312.32    326.63    310.42    324.73    308.07    324.73  " /><path style="stroke-width: 1.42 ;&st7;   " d=" M   308.07,   333.23  C   310.42    333.23    312.32    331.33    312.32    328.98  " /><path style="stroke-width: 1.42 ;&st7;   " d=" M   299.57,   328.98  C   299.57    331.33    301.48    333.23    303.82    333.23  " /><path style="stroke-width: 1.42 ;&st7;   " d=" M   303.82,   324.73  C   301.48    324.73    299.57    326.63    299.57    328.98  " /><path style="stroke-width: 0.28 ;&st9;  " d=" M   305.95,   404.82  L   303.12,   401.99  L   303.12,   406.24  L   305.95,   409.07  L   308.78,   406.24  L   308.78,   401.99  L   305.95,   404.82  " /><path style="stroke-width: 0.85 ;&st7;  " d=" M   305.95,   392.72  L   305.95,   409.72  " /><path style="stroke-width: 0.85 ;&st7;  " d=" M   305.95,   333.23  L   305.95,   350.23  " /><path style="stroke-width: 0.28 ;&st9;  " d=" M   305.95,   338.12  L   308.78,   340.96  L   308.78,   336.71  L   305.95,   333.88  L   303.12,   336.71  L   303.12,   340.96  L   305.95,   338.12  " /><text style="font-size:6px;font-family:'NSimSun';" transform="matrix(&st16;  304.15  415.94 )">1</text><text style="font-size:6px;font-family:'NSimSun';" transform="matrix(&st16;  304.15  330.95 )">1</text><text style="font-size:6px;font-family:'NSimSun';" transform="matrix(&st16;  299.76  346.54 )">1</text><text style="font-size:6px;font-family:'NSimSun';" transform="matrix(&st16;  299.76  400.91 )">2</text><text style="font-size:6px;font-family:'NSimSun';" transform="matrix(&st16;  322.37  370.62 )">10A <tspan x="0 " dy="6.0">MIR HTR</tspan></text><path style="stroke-width: 0.85 ;&st7;  " d=" M   305.95,   384.22  L   305.95,   392.72  " /><path style="stroke-width: 1.42 ;&st7;   " d=" M   305.95,   361.56  C   303.21    363.17    302.30    366.70    303.91    369.44  " /><path style="stroke-width: 1.42 ;&st7;   " d=" M   303.91,   369.44  C   304.43    370.32    305.07    370.95    305.95    371.47  " /><path style="stroke-width: 0.85 ;&st7;   " d=" M   307.37,   382.80  C   307.37    382.02    306.73    381.39    305.95    381.39  " /><path style="stroke-width: 0.85 ;&st7;   " d=" M   305.95,   381.39  C   305.17    381.39    304.53    382.02    304.53    382.80  " /><path style="stroke-width: 0.85 ;&st7;   " d=" M   304.53,   382.80  C   304.53    383.59    305.17    384.22    305.95    384.22  " /><path style="stroke-width: 0.85 ;&st7;   " d=" M   305.95,   384.22  C   306.73    384.22    307.37    383.59    307.37    382.80  " /><path style="stroke-width: 0.85 ;&st7;   " d=" M   307.37,   360.14  C   307.37    359.36    306.73    358.73    305.95    358.73  " /><path style="stroke-width: 0.85 ;&st7;   " d=" M   305.95,   358.73  C   305.17    358.73    304.53    359.36    304.53    360.14  " /><path style="stroke-width: 0.85 ;&st7;   " d=" M   304.53,   360.14  C   304.53    360.92    305.17    361.56    305.95    361.56  " /><path style="stroke-width: 0.85 ;&st7;   " d=" M   305.95,   361.56  C   306.73    361.56    307.37    360.92    307.37    360.14  " /><path style="stroke-width: 1.42 ;&st7;   " d=" M   305.95,   381.39  C   308.69    379.78    309.60    376.25    307.99    373.51  " /><path style="stroke-width: 1.42 ;&st7;   " d=" M   307.99,   373.51  C   307.47    372.63    306.83    371.99    305.95    371.47  " /><path style="stroke-width: 1.42 ;&st7;  " d=" M   293.20,   350.23  L   293.20,   392.72  L   318.70,   392.72  L   318.70,   350.23  L   293.20,   350.23  " /><path style="stroke-width: 0.85 ;&st7;  " d=" M   305.95,   350.23  L   305.95,   358.73  " /></g><g ewd:figtype="rb" ewd:figID="4" ewd:code="FUSE32"><path style="stroke-width: 1.42 ;&st7;  " d=" M   418.56,    95.27  L   414.31,    95.27  " /><path style="stroke-width: 1.42 ;&st7;  " d=" M   418.56,   103.77  L   414.31,   103.77  " /><path style="stroke-width: 1.42 ;&st7;   " d=" M   414.31,    95.27  C   411.96     95.27    410.06     97.17    410.06     99.52  " /><path style="stroke-width: 1.42 ;&st7;   " d=" M   410.06,    99.52  C   410.06    101.87    411.96    103.77    414.31    103.77  " /><path style="stroke-width: 1.42 ;&st7;   " d=" M   418.56,   103.77  C   420.90    103.77    422.80    101.87    422.80     99.52  " /><path style="stroke-width: 1.42 ;&st7;   " d=" M   422.80,    99.52  C   422.80     97.17    420.90     95.27    418.56     95.27  " /><path style="stroke-width: 0.85 ;&st7;  " d=" M   416.43,    95.27  L   416.43,    78.27  " /><path style="stroke-width: 0.28 ;&st9;  " d=" M   416.43,    90.37  L   413.60,    87.54  L   413.60,    91.79  L   416.43,    94.62  L   419.26,    91.79  L   419.26,    87.54  L   416.43,    90.37  " /><text style="font-size:6px;font-family:'NSimSun';" transform="matrix(&st16;  410.25  86.47 )">2</text><text style="font-size:6px;font-family:'NSimSun';" transform="matrix(&st16;  432.85  56.17 )">50A <tspan x="0 " dy="6.0">DEF</tspan></text><text style="font-size:6px;font-family:'NSimSun';" transform="matrix(&st16;  414.63  101.49 )">1</text><text style="font-size:6px;font-family:'NSimSun';" transform="matrix(&st16;  408.39  32.08 )">(BAT)</text><path style="stroke-width: 0.85 ;&st7;  " d=" M   416.43,    69.77  L   416.43,    78.27  " /><path style="stroke-width: 0.85 ;&st7;   " d=" M   417.85,    68.36  C   417.85     67.57    417.21     66.94    416.43     66.94  " /><path style="stroke-width: 0.85 ;&st7;   " d=" M   416.43,    66.94  C   415.65     66.94    415.01     67.57    415.01     68.36  " /><path style="stroke-width: 0.85 ;&st7;   " d=" M   415.01,    68.36  C   415.01     69.14    415.65     69.77    416.43     69.77  " /><path style="stroke-width: 0.85 ;&st7;   " d=" M   416.43,    69.77  C   417.21     69.77    417.85     69.14    417.85     68.36  " /><path style="stroke-width: 0.85 ;&st7;   " d=" M   417.85,    45.69  C   417.85     44.91    417.21     44.28    416.43     44.28  " /><path style="stroke-width: 0.85 ;&st7;   " d=" M   416.43,    44.28  C   415.65     44.28    415.01     44.91    415.01     45.69  " /><path style="stroke-width: 0.85 ;&st7;   " d=" M   415.01,    45.69  C   415.01     46.48    415.65     47.11    416.43     47.11  " /><path style="stroke-width: 0.85 ;&st7;   " d=" M   416.43,    47.11  C   417.21     47.11    417.85     46.48    417.85     45.69  " /><path style="stroke-width: 1.42 ;&st7;   " d=" M   416.43,    66.94  C   419.17     65.33    420.08     61.80    418.47     59.06  " /><path style="stroke-width: 1.42 ;&st7;   " d=" M   418.47,    59.06  C   417.95     58.18    417.31     57.55    416.43     57.03  " /><path style="stroke-width: 1.42 ;&st7;   " d=" M   416.43,    47.11  C   413.69     48.72    412.78     52.25    414.39     54.99  " /><path style="stroke-width: 1.42 ;&st7;   " d=" M   414.39,    54.99  C   414.91     55.87    415.55     56.51    416.43     57.03  " /><path style="stroke-width: 1.42 ;&st7;  " d=" M   403.68,    35.78  L   403.68,    78.27  L   429.18,    78.27  L   429.18,    35.78  L   403.68,    35.78  " /></g><g ewd:figtype="conn" ewd:figID="8" ewd:code="A40"><path style="stroke-width: 1.42 ;&st7;  " d=" M   288.95,   511.70  L   322.95,   511.70  L   322.95,   477.71  L   288.95,   477.71  L   288.95,   511.70  " /><g ewd:lineID="12"><text style="font-size:6px;font-family:'NSimSun';" transform="matrix(&st16;  294.15  475.14 )">34</text><path style="stroke-width: 1.42 ;&st7;   " d=" M   310.48,   473.17  C   310.48    470.67    308.45    468.64    305.95    468.64  " /><path style="stroke-width: 1.42 ;&st7;   " d=" M   305.95,   468.64  C   303.45    468.64    301.42    470.67    301.42    473.17  " /><path style="stroke-width: 1.42 ;&st7;   " d=" M   301.42,   473.17  C   301.42    475.68    303.45    477.71    305.95    477.71  " /><path style="stroke-width: 1.42 ;&st7;   " d=" M   305.95,   477.71  C   308.45    477.71    310.48    475.68    310.48    473.17  " /><text style="font-size:6px;font-family:'NSimSun';" transform="matrix(&st16;  303.64  475.14 )">A</text><text style="font-size:6px;font-family:'NSimSun';" transform="matrix(&st16;  298.91  485.34 )">ELS2</text></g><g ewd:figtype="title"><text style="font-size:6px;font-family:'NSimSun';" transform="matrix(&st16;  285.55  526.42 )">ECM</text><text style="font-size:6px;font-family:'NSimSun';" transform="matrix(&st16;  285.54  519.59 )">A40(A)</text></g></g><g ewd:code="G2,G3" ewd:figID="11" ewd:comment="2,1" ewd:figtype="conn"><path style="stroke-width: 1.42 ;&st7;  " d=" M    33.99,   358.73  L    33.99,   426.71  L    84.99,   426.71  L    84.99,   358.73  L    33.99,   358.73  " /><text style="font-size:6px;font-family:'NSimSun';" transform="matrix(&st16;  57.69  423.02 )">-</text><text style="font-size:6px;font-family:'NSimSun';" transform="matrix(&st16;  57.69  366.36 )">+</text><text style="font-size:6px;font-family:'NSimSun';" transform="matrix(&st16; 41.44 391.86)" ewd:textID="8" ewd:horAlign="center">后视镜加热器<tspan x="0 " dy="6.0" /></text><text style="font-size:6px;font-family:'NSimSun';" transform="matrix(&st16;  50.8  433.22 )">2</text><text style="font-size:6px;font-family:'NSimSun';" transform="matrix(&st16;  50.8  442.28 )">5</text><path style="stroke-width: 1.42 ;&st7;   " d=" M    64.02,   431.25  C    64.02    428.74     61.99    426.71     59.49    426.71  " /><path style="stroke-width: 1.42 ;&st7;   " d=" M    59.49,   426.71  C    56.99    426.71     54.96    428.74     54.96    431.25  " /><path style="stroke-width: 1.42 ;&st7;   " d=" M    54.96,   431.25  C    54.96    433.75     56.99    435.78     59.49    435.78  " /><path style="stroke-width: 1.42 ;&st7;   " d=" M    59.49,   435.78  C    61.99    435.78     64.02    433.75     64.02    431.25  " /><path style="stroke-width: 1.42 ;&st7;   " d=" M    64.02,   440.31  C    64.02    437.81     61.99    435.78     59.49    435.78  " /><path style="stroke-width: 1.42 ;&st7;   " d=" M    59.49,   435.78  C    56.99    435.78     54.96    437.81     54.96    440.31  " /><path style="stroke-width: 1.42 ;&st7;   " d=" M    54.96,   440.31  C    54.96    442.81     56.99    444.84     59.49    444.84  " /><path style="stroke-width: 1.42 ;&st7;   " d=" M    59.49,   444.84  C    61.99    444.84     64.02    442.81     64.02    440.31  " /><text style="font-size:6px;font-family:'NSimSun';" transform="matrix(&st16;  57.19  433.22 )">A</text><text style="font-size:6px;font-family:'NSimSun';" transform="matrix(&st16;  57.3  442.28 )">B</text><text style="font-size:6px;font-family:'NSimSun';" transform="matrix(&st16;  50.8  347.1 )">1</text><text style="font-size:6px;font-family:'NSimSun';" transform="matrix(&st16;  50.8  356.16 )">4</text><path style="stroke-width: 1.42 ;&st7;   " d=" M    64.02,   345.13  C    64.02    342.62     61.99    340.60     59.49    340.60  " /><path style="stroke-width: 1.42 ;&st7;   " d=" M    59.49,   340.60  C    56.99    340.60     54.96    342.62     54.96    345.13  " /><path style="stroke-width: 1.42 ;&st7;   " d=" M    54.96,   345.13  C    54.96    347.63     56.99    349.66     59.49    349.66  " /><path style="stroke-width: 1.42 ;&st7;   " d=" M    59.49,   349.66  C    61.99    349.66     64.02    347.63     64.02    345.13  " /><path style="stroke-width: 1.42 ;&st7;   " d=" M    64.02,   354.19  C    64.02    351.69     61.99    349.66     59.49    349.66  " /><path style="stroke-width: 1.42 ;&st7;   " d=" M    59.49,   349.66  C    56.99    349.66     54.96    351.69     54.96    354.19  " /><path style="stroke-width: 1.42 ;&st7;   " d=" M    54.96,   354.19  C    54.96    356.70     56.99    358.73     59.49    358.73  " /><path style="stroke-width: 1.42 ;&st7;   " d=" M    59.49,   358.73  C    61.99    358.73     64.02    356.70     64.02    354.19  " /><text style="font-size:6px;font-family:'NSimSun';" transform="matrix(&st16;  57.3  356.16 )">B</text><text style="font-size:6px;font-family:'NSimSun';" transform="matrix(&st16;  57.19  347.1 )">A</text><g ewd:figtype="title"><text style="font-size:6px;font-family:'NSimSun';" transform="matrix(&st17;  30.3  429.62 )" ewd:textID="15">右侧车外后视镜总成</text><text style="font-size:6px;font-family:'NSimSun';" transform="matrix(&st17;  23.19  429.61 )">G2(A),G3(B)</text></g><g ewd:code="" ewd:figID="45" ewd:comment="1" ewd:figtype="commref"><text style="font-size:6px;font-family:'NSimSun';" transform="matrix(&st16;  64.58  356.16 )">(*1)</text></g><g ewd:code="" ewd:figID="46" ewd:comment="2" ewd:figtype="commref"><text style="font-size:6px;font-family:'NSimSun';" transform="matrix(&st16;  64.58  347.1 )">(*2)</text></g><g ewd:code="" ewd:figID="51" ewd:comment="2" ewd:figtype="commref"><text style="font-size:6px;font-family:'NSimSun';" transform="matrix(&st16;  64.58  433.22 )">(*2)</text></g><g ewd:code="" ewd:figID="52" ewd:comment="1" ewd:figtype="commref"><text style="font-size:6px;font-family:'NSimSun';" transform="matrix(&st16;  64.58  442.28 )">(*1)</text></g></g><g ewd:code="H2,H3" ewd:figID="12" ewd:comment="2,1" ewd:figtype="conn"><path style="stroke-width: 1.42 ;&st7;  " d=" M   135.98,   358.73  L   135.98,   426.71  L   186.97,   426.71  L   186.97,   358.73  L   135.98,   358.73  " /><text style="font-size:6px;font-family:'NSimSun';" transform="matrix(&st16;  159.67  423.02 )">-</text><text style="font-size:6px;font-family:'NSimSun';" transform="matrix(&st16;  159.67  366.36 )">+</text><text style="font-size:6px;font-family:'NSimSun';" transform="matrix(&st16; 143.42 391.86)" ewd:textID="8" ewd:horAlign="center">后视镜加热器<tspan x="0 " dy="6.0" /></text><text style="font-size:6px;font-family:'NSimSun';" transform="matrix(&st16;  152.78  433.22 )">2</text><text style="font-size:6px;font-family:'NSimSun';" transform="matrix(&st16;  152.78  442.28 )">5</text><path style="stroke-width: 1.42 ;&st7;   " d=" M   166.01,   431.25  C   166.01    428.74    163.98    426.71    161.47    426.71  " /><path style="stroke-width: 1.42 ;&st7;   " d=" M   161.47,   426.71  C   158.97    426.71    156.94    428.74    156.94    431.25  " /><path style="stroke-width: 1.42 ;&st7;   " d=" M   156.94,   431.25  C   156.94    433.75    158.97    435.78    161.47    435.78  " /><path style="stroke-width: 1.42 ;&st7;   " d=" M   161.47,   435.78  C   163.98    435.78    166.01    433.75    166.01    431.25  " /><path style="stroke-width: 1.42 ;&st7;   " d=" M   166.01,   440.31  C   166.01    437.81    163.98    435.78    161.47    435.78  " /><path style="stroke-width: 1.42 ;&st7;   " d=" M   161.47,   435.78  C   158.97    435.78    156.94    437.81    156.94    440.31  " /><path style="stroke-width: 1.42 ;&st7;   " d=" M   156.94,   440.31  C   156.94    442.81    158.97    444.84    161.47    444.84  " /><path style="stroke-width: 1.42 ;&st7;   " d=" M   161.47,   444.84  C   163.98    444.84    166.01    442.81    166.01    440.31  " /><text style="font-size:6px;font-family:'NSimSun';" transform="matrix(&st16;  159.17  433.22 )">A</text><text style="font-size:6px;font-family:'NSimSun';" transform="matrix(&st16;  159.28  442.28 )">B</text><text style="font-size:6px;font-family:'NSimSun';" transform="matrix(&st16;  152.78  347.1 )">1</text><text style="font-size:6px;font-family:'NSimSun';" transform="matrix(&st16;  152.78  356.16 )">4</text><path style="stroke-width: 1.42 ;&st7;   " d=" M   166.01,   345.13  C   166.01    342.62    163.98    340.60    161.47    340.60  " /><path style="stroke-width: 1.42 ;&st7;   " d=" M   161.47,   340.60  C   158.97    340.60    156.94    342.62    156.94    345.13  " /><path style="stroke-width: 1.42 ;&st7;   " d=" M   156.94,   345.13  C   156.94    347.63    158.97    349.66    161.47    349.66  " /><path style="stroke-width: 1.42 ;&st7;   " d=" M   161.47,   349.66  C   163.98    349.66    166.01    347.63    166.01    345.13  " /><path style="stroke-width: 1.42 ;&st7;   " d=" M   166.01,   354.19  C   166.01    351.69    163.98    349.66    161.47    349.66  " /><path style="stroke-width: 1.42 ;&st7;   " d=" M   161.47,   349.66  C   158.97    349.66    156.94    351.69    156.94    354.19  " /><path style="stroke-width: 1.42 ;&st7;   " d=" M   156.94,   354.19  C   156.94    356.70    158.97    358.73    161.47    358.73  " /><path style="stroke-width: 1.42 ;&st7;   " d=" M   161.47,   358.73  C   163.98    358.73    166.01    356.70    166.01    354.19  " /><text style="font-size:6px;font-family:'NSimSun';" transform="matrix(&st16;  159.28  356.16 )">B</text><text style="font-size:6px;font-family:'NSimSun';" transform="matrix(&st16;  159.17  347.1 )">A</text><g ewd:figtype="title"><text style="font-size:6px;font-family:'NSimSun';" transform="matrix(&st17;  132.28  429.62 )" ewd:textID="14">左侧车外后视镜总成</text><text style="font-size:6px;font-family:'NSimSun';" transform="matrix(&st17;  125.18  429.61 )">H2(A),H3(B)</text></g><g ewd:code="" ewd:figID="47" ewd:comment="1" ewd:figtype="commref"><text style="font-size:6px;font-family:'NSimSun';" transform="matrix(&st16;  166.57  356.16 )">(*1)</text></g><g ewd:code="" ewd:figID="48" ewd:comment="2" ewd:figtype="commref"><text style="font-size:6px;font-family:'NSimSun';" transform="matrix(&st16;  166.57  347.1 )">(*2)</text></g><g ewd:code="" ewd:figID="49" ewd:comment="2" ewd:figtype="commref"><text style="font-size:6px;font-family:'NSimSun';" transform="matrix(&st16;  166.57  433.22 )">(*2)</text></g><g ewd:code="" ewd:figID="50" ewd:comment="1" ewd:figtype="commref"><text style="font-size:6px;font-family:'NSimSun';" transform="matrix(&st16;  166.57  442.28 )">(*1)</text></g></g><g ewd:figtype="jb" ewd:figID="17" ewd:code="3"><path style="stroke-width: 0.85 ;&st7;  " d=" M   314.45,    69.77  L   314.45,    78.27  " /><path style="stroke-width: 1.42 ;&st7;  " d=" M   316.57,   103.77  L   312.32,   103.77  " /><path style="stroke-width: 1.42 ;&st7;  " d=" M   316.57,    95.27  L   312.32,    95.27  " /><path style="stroke-width: 1.42 ;&st7;   " d=" M   308.07,    99.52  C   308.07    101.87    309.98    103.77    312.32    103.77  " /><path style="stroke-width: 1.42 ;&st7;   " d=" M   314.45,    47.11  C   311.71     48.72    310.80     52.25    312.41     54.99  " /><path style="stroke-width: 1.42 ;&st7;   " d=" M   312.41,    54.99  C   312.93     55.87    313.57     56.51    314.45     57.03  " /><path style="stroke-width: 1.42 ;&st7;   " d=" M   312.32,    95.27  C   309.98     95.27    308.07     97.17    308.07     99.52  " /><path style="stroke-width: 1.42 ;&st7;   " d=" M   314.45,    66.94  C   317.19     65.33    318.10     61.80    316.48     59.06  " /><path style="stroke-width: 1.42 ;&st7;   " d=" M   316.48,    59.06  C   315.96     58.18    315.33     57.55    314.45     57.03  " /><path style="stroke-width: 0.85 ;&st7;   " d=" M   315.86,    45.69  C   315.86     44.91    315.23     44.28    314.45     44.28  " /><path style="stroke-width: 0.85 ;&st7;   " d=" M   314.45,    44.28  C   313.67     44.28    313.03     44.91    313.03     45.69  " /><path style="stroke-width: 0.85 ;&st7;   " d=" M   313.03,    45.69  C   313.03     46.48    313.67     47.11    314.45     47.11  " /><path style="stroke-width: 0.85 ;&st7;   " d=" M   314.45,    47.11  C   315.23     47.11    315.86     46.48    315.86     45.69  " /><path style="stroke-width: 0.85 ;&st7;   " d=" M   315.86,    68.36  C   315.86     67.57    315.23     66.94    314.45     66.94  " /><path style="stroke-width: 0.85 ;&st7;   " d=" M   314.45,    66.94  C   313.67     66.94    313.03     67.57    313.03     68.36  " /><path style="stroke-width: 0.85 ;&st7;   " d=" M   313.03,    68.36  C   313.03     69.14    313.67     69.77    314.45     69.77  " /><path style="stroke-width: 0.85 ;&st7;   " d=" M   314.45,    69.77  C   315.23     69.77    315.86     69.14    315.86     68.36  " /><path style="stroke-width: 1.42 ;&st7;   " d=" M   316.57,   103.77  C   318.92    103.77    320.82    101.87    320.82     99.52  " /><path style="stroke-width: 1.42 ;&st7;   " d=" M   320.82,    99.52  C   320.82     97.17    318.92     95.27    316.57     95.27  " /><path style="stroke-width: 0.85 ;&st7;  " d=" M   314.45,    95.27  L   314.45,    78.27  " /><path style="stroke-width: 0.28 ;&st9;  " d=" M   314.45,    90.37  L   311.61,    87.54  L   311.61,    91.79  L   314.45,    94.62  L   317.28,    91.79  L   317.28,    87.54  L   314.45,    90.37  " /><path style="stroke-width: 1.42 ;&st7;  " d=" M   327.20,    78.27  L   327.20,    35.78  L   301.70,    35.78  L   301.70,    78.27  L   327.20,    78.27  " /><text style="font-size:6px;font-family:'NSimSun';" transform="matrix(&st16;  309.23  32.08 )">(IG)</text><text style="font-size:6px;font-family:'NSimSun';" transform="matrix(&st16;  310.59  101.49 )">3A</text><text style="font-size:6px;font-family:'NSimSun';" transform="matrix(&st16;  330.87  56.17 )">7.5A <tspan x="0 " dy="6.0">HTR-IG</tspan></text><text style="font-size:6px;font-family:'NSimSun';" transform="matrix(&st16;  300.84  101.49 )">52</text><text style="font-size:6px;font-family:'NSimSun';" transform="matrix(&st16;  308.26  86.47 )">2</text></g><g ewd:figtype="jb" ewd:figID="18" ewd:code="3"><path style="stroke-width: 1.42 ;&st7;  " d=" M    61.61,   154.76  L    57.37,   154.76  " /><path style="stroke-width: 1.42 ;&st7;  " d=" M    61.61,   146.26  L    57.37,   146.26  " /><path style="stroke-width: 1.42 ;&st7;  " d=" M   240.08,   146.26  L   235.84,   146.26  " /><path style="stroke-width: 1.42 ;&st7;  " d=" M   240.08,   154.76  L   235.84,   154.76  " /><path style="stroke-width: 1.42 ;&st7;  " d=" M   163.60,   146.26  L   159.35,   146.26  " /><path style="stroke-width: 1.42 ;&st7;  " d=" M   163.60,   154.76  L   159.35,   154.76  " /><path style="stroke-width: 1.42 ;&st7;   " d=" M    65.86,   150.51  C    65.86    148.16     63.96    146.26     61.61    146.26  " /><path style="stroke-width: 1.42 ;&st7;   " d=" M    61.61,   154.76  C    63.96    154.76     65.86    152.86     65.86    150.51  " /><path style="stroke-width: 1.42 ;&st7;   " d=" M    53.12,   150.51  C    53.12    152.86     55.02    154.76     57.37    154.76  " /><path style="stroke-width: 1.42 ;&st7;   " d=" M    57.37,   146.26  C    55.02    146.26     53.12    148.16     53.12    150.51  " /><path style="stroke-width: 1.42 ;&st7;   " d=" M   235.84,   146.26  C   233.49    146.26    231.59    148.16    231.59    150.51  " /><path style="stroke-width: 1.42 ;&st7;   " d=" M   231.59,   150.51  C   231.59    152.86    233.49    154.76    235.84    154.76  " /><path style="stroke-width: 1.42 ;&st7;   " d=" M   240.08,   154.76  C   242.43    154.76    244.33    152.86    244.33    150.51  " /><path style="stroke-width: 1.42 ;&st7;   " d=" M   244.33,   150.51  C   244.33    148.16    242.43    146.26    240.08    146.26  " /><path style="stroke-width: 1.42 ;&st7;   " d=" M   159.35,   146.26  C   157.00    146.26    155.10    148.16    155.10    150.51  " /><path style="stroke-width: 1.42 ;&st7;   " d=" M   155.10,   150.51  C   155.10    152.86    157.00    154.76    159.35    154.76  " /><path style="stroke-width: 1.42 ;&st7;   " d=" M   163.60,   154.76  C   165.94    154.76    167.85    152.86    167.85    150.51  " /><path style="stroke-width: 1.42 ;&st7;   " d=" M   167.85,   150.51  C   167.85    148.16    165.94    146.26    163.60    146.26  " /><path style="stroke-width: 0.28 ;&st9;  " d=" M    59.49,   141.37  L    56.66,   138.53  L    56.66,   142.78  L    59.49,   145.62  L    62.32,   142.78  L    62.32,   138.53  L    59.49,   141.37  " /><path style="stroke-width: 0.85 ;&st7;  " d=" M    59.49,   129.26  L    59.49,   146.26  " /><path style="stroke-width: 0.28 ;&st9;  " d=" M   237.96,   141.37  L   235.13,   138.53  L   235.13,   142.78  L   237.96,   145.62  L   240.79,   142.78  L   240.79,   138.53  L   237.96,   141.37  " /><path style="stroke-width: 0.85 ;&st7;  " d=" M   237.96,   129.26  L   237.96,   146.26  " /><path style="stroke-width: 0.28 ;&st9;  " d=" M   161.47,   141.37  L   158.64,   138.53  L   158.64,   142.78  L   161.47,   145.62  L   164.31,   142.78  L   164.31,   138.53  L   161.47,   141.37  " /><path style="stroke-width: 0.85 ;&st7;  " d=" M   161.47,   129.26  L   161.47,   146.26  " /><path style="stroke-width: 0.85 ;&st7;  " d=" M   160.28,   128.26  L   160.01,   128.73  L   159.91,   129.26  L   160.01,   129.80  L   160.28,   130.27  L   160.69,   130.61  L   161.20,   130.80  L   161.74,   130.80  L   162.25,   130.61  L   162.67,   130.27  L   162.94,   129.80  L   163.03,   129.26  L   162.94,   128.73  L   162.67,   128.26  L   162.25,   127.92  L   161.74,   127.73  L   161.20,   127.73  L   160.69,   127.92  L   160.28,   128.26  L   160.67,   128.97  L   160.67,   129.56  L   161.05,   130.00  L   161.62,   130.10  L   162.12,   129.81  L   162.32,   129.26  L   162.12,   128.72  L   161.62,   128.43  L   161.05,   128.53  L   161.47,   129.26  " /><path style="stroke-width: 0.85 ;&st7;  " d=" M    59.49,   129.26  L   237.96,   129.26  " /><text style="font-size:6px;font-family:'NSimSun';" transform="matrix(&st16;  45.88  152.48 )">27</text><text style="font-size:6px;font-family:'NSimSun';" transform="matrix(&st16;  55.52  152.48 )">3C</text><text style="font-size:6px;font-family:'NSimSun';" transform="matrix(&st16;  234.1  152.48 )">3A</text><text style="font-size:6px;font-family:'NSimSun';" transform="matrix(&st16;  224.35  152.48 )">55</text><text style="font-size:6px;font-family:'NSimSun';" transform="matrix(&st16;  157.5  152.48 )">3C</text><text style="font-size:6px;font-family:'NSimSun';" transform="matrix(&st16;  147.86  152.48 )">28</text></g><g ewd:figtype="w2w" ewd:figID="19" ewd:code="GE3"><path style="stroke-width: 1.42 ;&st7;  " d=" M    63.74,   614.25  L    59.49,   610.00  L    55.24,   614.25  " /><path style="stroke-width: 1.42 ;&st7;  " d=" M    63.74,   610.85  L    59.49,   606.60  L    55.24,   610.85  " /><text style="font-size:6px;font-family:'NSimSun';" transform="matrix(&st16;  46.86  602.9 )">8</text></g><g ewd:figtype="w2w" ewd:figID="20" ewd:code="GE1"><path style="stroke-width: 1.42 ;&st7;  " d=" M    55.24,   213.68  L    59.49,   217.93  L    63.74,   213.68  " /><path style="stroke-width: 1.42 ;&st7;  " d=" M    63.74,   217.08  L    59.49,   221.33  L    55.24,   217.08  " /><text style="font-size:6px;font-family:'NSimSun';" transform="matrix(&st16;  43.76  228.97 )">13</text></g><g ewd:figtype="w2w" ewd:figID="21" ewd:code="HE3"><path style="stroke-width: 1.42 ;&st7;  " d=" M   165.72,   610.85  L   161.47,   606.60  L   157.22,   610.85  " /><path style="stroke-width: 1.42 ;&st7;  " d=" M   165.72,   614.25  L   161.47,   610.00  L   157.22,   614.25  " /><text style="font-size:6px;font-family:'NSimSun';" transform="matrix(&st16;  148.84  602.9 )">8</text></g><g ewd:figtype="w2w" ewd:figID="22" ewd:code="HE1"><path style="stroke-width: 1.42 ;&st7;  " d=" M   157.22,   213.68  L   161.47,   217.93  L   165.72,   213.68  " /><path style="stroke-width: 1.42 ;&st7;  " d=" M   165.72,   217.08  L   161.47,   221.33  L   157.22,   217.08  " /><text style="font-size:6px;font-family:'NSimSun';" transform="matrix(&st16;  145.74  228.97 )">13</text></g><g ewd:figtype="gp" ewd:figID="25" ewd:code="EC"><path style="stroke-width: 0.85 ;&st7;  " d=" M    59.49,   697.25  L    59.49,   701.50  " /><path style="stroke-width: 0.85 ;&st7;  " d=" M    50.99,   701.50  L    67.99,   701.50  " /><path style="stroke-width: 0.85 ;&st7;  " d=" M    55.24,   704.33  L    63.74,   704.33  " /><path style="stroke-width: 0.85 ;&st7;  " d=" M    56.66,   707.17  L    62.32,   707.17  " /><path style="stroke-width: 0.85 ;&st7;  " d=" M    58.07,   710.00  L    60.91,   710.00  " /></g><g ewd:figtype="gp" ewd:figID="26" ewd:code="EA"><path style="stroke-width: 0.85 ;&st7;  " d=" M   161.47,   697.25  L   161.47,   701.50  " /><path style="stroke-width: 0.85 ;&st7;  " d=" M   152.97,   701.50  L   169.97,   701.50  " /><path style="stroke-width: 0.85 ;&st7;  " d=" M   157.22,   704.33  L   165.72,   704.33  " /><path style="stroke-width: 0.85 ;&st7;  " d=" M   158.64,   707.17  L   164.31,   707.17  " /><path style="stroke-width: 0.85 ;&st7;  " d=" M   160.06,   710.00  L   162.89,   710.00  " /></g><g ewd:figtype="gp" ewd:figID="27" ewd:code="AB"><path style="stroke-width: 0.85 ;&st7;  " d=" M   458.92,   697.25  L   458.92,   701.50  " /><path style="stroke-width: 0.85 ;&st7;  " d=" M   454.67,   704.33  L   463.17,   704.33  " /><path style="stroke-width: 0.85 ;&st7;  " d=" M   456.09,   707.17  L   461.76,   707.17  " /><path style="stroke-width: 0.85 ;&st7;  " d=" M   457.51,   710.00  L   460.34,   710.00  " /><path style="stroke-width: 0.85 ;&st7;  " d=" M   450.42,   701.50  L   467.42,   701.50  " /></g></svg>