<?xml version="1.0" encoding="utf-8"?>
<!DOCTYPE svg PUBLIC "-//W3C//DTD SVG 1.0//EN" "http://www.w3.org/TR/2001/REC-SVG-20010904/DTD/svg10.dtd"[
	<!ENTITY ns_flows "http://ns.adobe.com/Flows/1.0/">
	<!ENTITY ns_svg "http://www.w3.org/2000/svg">
	<!ENTITY ns_xlink "http://www.w3.org/1999/xlink">
	<!ENTITY st0 "font-size:7px;font-family:'NSimSun';adobe-font-script:japanese;">
	<!ENTITY st1 "font-size:6px;font-family:'NSimSun';">
	<!-- White fill  -->
	<!ENTITY st2 "fill:#FFFFFF;stroke:#000000; stroke-width:1.41;stroke-linecap:round;stroke-linejoin:round;">
	<!-- Yellow fill  -->
	<!ENTITY st3 "fill:#FFFFCC;stroke:#FFFFCC; stroke-width:0.1;stroke-linecap:round;stroke-linejoin:round;">
	<!-- Gray fill  -->
	<!ENTITY st4 "fill:#CCCCCC;stroke:#CCCCCC; stroke-width:0.1;stroke-linecap:round;stroke-linejoin:round;">
	<!-- Light-blue fill -->
	<!ENTITY st5 "fill:#CCECF4;stroke:#000000; stroke-width:1.133;stroke-linecap:round;stroke-linejoin:round;">
	<!ENTITY st6 "fill:none;stroke-linecap:butt; stroke-linejoin:round;">
	<!ENTITY st7 "fill:none;stroke:#000000;stroke-linecap:round;stroke-linejoin:round;">
	<!ENTITY st8 "enable-background:new    ;">
	<!-- Black fill -->
	<!ENTITY st9 "fill:#000000;stroke:#000000; stroke-linecap:round;stroke-linejoin:round;">
	<!-- SRS note   -->
	<!ENTITY st10 "font-size:9px;font-family:'NSimSun';">
	<!ENTITY st11 "font-size:9px;font-family:'NSimSun';">
	<!ENTITY st12 "font-size:6px;font-family:'NSimSun';">
	<!ENTITY st13 "fill:none;stroke:#ff0000;stroke-linecap:round;stroke-linejoin:round;">
	<!-- Yellow fill  -->
	<!ENTITY st14 "fill:#FFFF00;stroke:#FFFF00; stroke-width:0.1;stroke-linecap:round;stroke-linejoin:round;">
	<!ENTITY st15 "font-size:6px;font-family:'NSimSun';adobe-font-script:japanese;">
	<!ENTITY st16 "1.00 0.00 0.00 1.00">
	<!ENTITY st17 "0.00 -1.00 1.00 0.00">
	<!ENTITY st18 "font-size:6px;font-family:'NSimSun';">
	<!ENTITY st19 "font-size:9px;font-family:'NSimSun';">
	<!ENTITY st20 "font-size:6px;font-family:'NSimSun';adobe-font-script:japanese;">
	<!ENTITY st21 "font-size:7px;font-family:'NSimSun';adobe-font-script:japanese;">
	<!ATTLIST svg
		xmlns:ewd CDATA #FIXED "http://shcl.co.jp/ewd"
		xmlns:a CDATA #FIXED "http://ns.adobe.com/AdobeSVGViewerExtensions/3.0/"
		ewd:ver CDATA #IMPLIED
	>
	<!ATTLIST a
		ewd:lineID CDATA #IMPLIED
		ewd:groupID CDATA #IMPLIED
		ewd:figtype CDATA #IMPLIED
		ewd:code CDATA #IMPLIED
		ewd:figID CDATA #IMPLIED
		ewd:pinNo CDATA #IMPLIED
		ewd:comment CDATA #IMPLIED >
	<!ATTLIST g
		ewd:lineID CDATA #IMPLIED
		ewd:groupID CDATA #IMPLIED
		ewd:figtype CDATA #IMPLIED
		ewd:code CDATA #IMPLIED
		ewd:figID CDATA #IMPLIED
		ewd:pinNo CDATA #IMPLIED
		ewd:comment CDATA #IMPLIED >
	<!ATTLIST text
		ewd:textID CDATA #IMPLIED
		ewd:horAlign CDATA #IMPLIED >
	<!ATTLIST title
		ewd:textID CDATA #IMPLIED >
]>
<!-- Generator: Shintec Hozumi YS   -->
<svg onload="call_execInitLoadProc_svg('system')" style="overflow:visible;  enable-background:new 0 0 1431.134 710.000" viewBox="0 0 1435.251 710.000" height="710.000" width="1435.251" xml:space="preserve" ewd:ver="2.1.2.6F" xmlns="&ns_svg;" xmlns:ewd="http://shcl.co.jp/ewd" xmlns:a="http://ns.adobe.com/AdobeSVGViewerExtensions/3.0/" xmlns:xlink="&ns_xlink;"><script type="text/javascript" xlink:href="../../../../../system/js/ewd/fig/svgfig.js" xmlns:xlink="http://www.w3.org/1999/xlink" />
<g id="ewd_top"><a ewd:figtype="rb" style="cursor:pointer;" ewd:code="1" ewd:figID="1"><path style="fill:#CCECF4;stroke:#000000; stroke-width:0; stroke-linecap:round;stroke-linejoin:round; " d=" M   297.45,   180.26  L   254.96,   180.26  L   254.96,   214.25  L   297.45,   214.25  L   297.45,   180.26 " /></a><a ewd:figtype="conn" style="cursor:pointer;" ewd:code="E20" ewd:figID="2"><path style="&st5;" d=" M  1351.27,   265.24  L  1351.27,   307.73  L  1419.26,   307.73  L  1419.26,   265.24  L  1351.27,   265.24 " /><title ewd:textID="4">空调控制总成</title></a><a ewd:figtype="rb" style="cursor:pointer;" ewd:code="FUSE15" ewd:figID="3"><path style="fill:#CCECF4;stroke:#000000; stroke-width:0; stroke-linecap:round;stroke-linejoin:round; " d=" M   165.72,   350.23  L   165.72,   392.72  L   191.22,   392.72  L   191.22,   350.23  L   165.72,   350.23 " /></a><a ewd:figtype="rb" style="cursor:pointer;" ewd:code="FUSE32" ewd:figID="4"><path style="fill:#CCECF4;stroke:#000000; stroke-width:0; stroke-linecap:round;stroke-linejoin:round; " d=" M   276.20,    35.78  L   276.20,    78.27  L   301.70,    78.27  L   301.70,    35.78  L   276.20,    35.78 " /></a><a ewd:figtype="conn" style="cursor:pointer;" ewd:code="L8,Q1" ewd:figID="5"><path style="&st5;" d=" M   696.88,   494.70  L   696.88,   562.69  L   747.88,   562.69  L   747.88,   494.70  L   696.88,   494.70 " /><title ewd:textID="11">后窗除雾器（背窗玻璃）</title></a><a ewd:figtype="conn" style="cursor:pointer;" ewd:code="E43" ewd:figID="6"><path style="&st5;" d=" M  1223.80,   265.24  L  1223.80,   307.73  L  1317.28,   307.73  L  1317.28,   265.24  L  1223.80,   265.24 " /><title ewd:textID="3">空调放大器总成</title></a><a ewd:figtype="conn" style="cursor:pointer;" ewd:code="L25" ewd:figID="7"><path style="&st5;" d=" M   586.40,   511.70  L   586.40,   545.69  L   620.40,   545.69  L   620.40,   511.70  L   586.40,   511.70 " /><title ewd:textID="8">静噪滤波器（收音机设定调相器）</title></a><a ewd:figtype="conn" style="cursor:pointer;" ewd:code="A40" ewd:figID="8"><path style="&st5;" d=" M   161.47,   511.70  L   195.47,   511.70  L   195.47,   477.71  L   161.47,   477.71  L   161.47,   511.70 " /><title>ECM</title></a><a ewd:figtype="conn" style="cursor:pointer;" ewd:code="E71" ewd:figID="9"><path style="&st5;" d=" M  1232.29,   511.70  L  1410.76,   511.70  L  1410.76,   528.70  L  1232.29,   528.70  L  1232.29,   511.70 " /><title ewd:textID="7">4 号接线连接器</title></a><a ewd:figtype="conn" style="cursor:pointer;" ewd:code="E58" ewd:figID="10"><path style="&st5;" d=" M   824.36,   579.69  L   824.36,   392.72  L   994.33,   392.72  L   994.33,   579.69  L   824.36,   579.69 " /><title ewd:textID="6">2 号加热器控制装置分总成</title></a><a ewd:figtype="jb" style="cursor:pointer;" ewd:code="3" ewd:figID="14"><path style="&st4; " d=" M  1240.79,   120.77  L  1351.27,   120.77  L  1351.27,    35.78  L  1240.79,    35.78  L  1240.79,   120.77  " /></a><a ewd:figtype="jb" style="cursor:pointer;" ewd:code="3" ewd:figID="15"><path style="&st4; " d=" M   169.97,    35.78  L   169.97,   103.77  L   237.96,   103.77  L   237.96,    35.78  L   169.97,    35.78  " /></a><a ewd:figtype="fuse" style="cursor:pointer;" ewd:code="FUSE15" ewd:figID="24"><path style="&st7; stroke-width:0;" d=" M   165.72,   350.23  L   165.72,   392.72  L   191.22,   392.72  L   191.22,   350.23  L   165.72,   350.23 " /></a><a ewd:figtype="fuse" style="cursor:pointer;" ewd:code="FUSE49" ewd:figID="25"><path style="&st7; stroke-width:0;" d=" M   199.72,    78.27  L   199.72,    35.78  L   174.22,    35.78  L   174.22,    78.27  L   199.72,    78.27 " /></a><a ewd:figtype="fuse" style="cursor:pointer;" ewd:code="FUSE32" ewd:figID="26"><path style="&st7; stroke-width:0;" d=" M   276.20,    35.78  L   276.20,    78.27  L   301.70,    78.27  L   301.70,    35.78  L   276.20,    35.78 " /></a><a ewd:figtype="fuse" style="cursor:pointer;" ewd:code="FUSE49" ewd:figID="27"><path style="&st7; stroke-width:0;" d=" M  1287.53,    35.78  L  1287.53,    78.27  L  1313.03,    78.27  L  1313.03,    35.78  L  1287.53,    35.78 " /></a><a style="cursor:pointer;" ewd:lineID="1"><path style="stroke:#00A0C6;stroke-width: 5.10 ;&st6;" d=" M   178.47,   418.22  L   178.47,   468.64  " /></a><a style="cursor:pointer;" ewd:lineID="2"><path style="stroke:#000000;stroke-width: 5.10 ;&st6;" d=" M   178.47,   324.73  L   178.47,   256.74  L   280.45,   256.74  L   288.95,   248.24  L   288.95,   239.75  " /></a><a style="cursor:pointer;" ewd:lineID="3"><path style="stroke:#000000;stroke-width: 5.10 ;&st6;" d=" M   186.97,   103.77  L   186.97,   137.76  L   263.46,   137.76  L   263.46,   154.76  " /></a><a style="cursor:pointer;" ewd:lineID="4"> d=" M   263.46,   239.75  L   263.46,   333.23  L  1164.31,   333.23  L  1164.31,   290.74 
	
		<path style="stroke:#000000;stroke-width: 5.10 ;&st6;" d=" M   263.46,   239.75  L   263.46,   333.23  L  1164.31,   333.23  L  1164.31,   290.74  " /><path style="stroke:#FFFFFF;stroke-width: 4.53 ;&st6;" d=" M   263.46,   239.75  L   263.46,   333.23  L  1164.31,   333.23  L  1164.31,   290.74  " /></a><a style="cursor:pointer;" ewd:lineID="5"><path style="stroke:#000000;stroke-width: 5.10 ;&st6;" d=" M   288.95,   103.77  L   288.95,   154.76  " /></a><a style="cursor:pointer;" ewd:lineID="6"><path style="stroke:#000000;stroke-width: 5.10 ;&st6;" d=" M   331.44,   418.22  L   331.44,   681.67  " /><path style="stroke:#FFFFFF;stroke-width: 4.53 ;&st6;" d=" M   331.44,   418.22  L   331.44,   681.67  " /><path style="stroke:#000000;stroke-width: 1.13 ;&st6;" d=" M   331.44,   418.22  L   331.44,   681.67  " /></a><a style="cursor:pointer;" ewd:lineID="7"><path style="stroke:#000000;stroke-width: 5.10 ;&st6;" d=" M   331.44,   239.75  L   331.44,   401.22  " /><path style="stroke:#FFFFFF;stroke-width: 4.53 ;&st6;" d=" M   331.44,   239.75  L   331.44,   401.22  " /><path style="stroke:#000000;stroke-width: 1.13 ;&st6;" d=" M   331.44,   239.75  L   331.44,   401.22  " /></a><a style="cursor:pointer;" ewd:lineID="8"><path style="stroke:#000000;stroke-width: 5.10 ;&st6;" d=" M   603.40,   511.70  L   603.40,   373.46  " /></a><a style="cursor:pointer;" ewd:lineID="9"><path style="stroke:#000000;stroke-width: 5.10 ;&st6;" d=" M   603.40,   511.70  L   603.40,   503.20  L   620.40,   486.20  L   620.40,   435.21  L   722.38,   435.21  L   722.38,   485.64  " /></a><a style="cursor:pointer;" ewd:lineID="10"><path style="stroke:#000000;stroke-width: 5.10 ;&st6;" d=" M   603.40,   358.73  L   603.40,   307.73  L   288.95,   307.73  L   288.95,   239.75  " /></a><a style="cursor:pointer;" ewd:lineID="11"><path style="stroke:#000000;stroke-width: 5.10 ;&st6;" d=" M   722.38,   681.67  L   722.38,   571.76  " /><path style="stroke:#FFFFFF;stroke-width: 4.53 ;&st6;" d=" M   722.38,   681.67  L   722.38,   571.76  " /><path style="stroke:#000000;stroke-width: 1.13 ;&st6;" d=" M   722.38,   681.67  L   722.38,   571.76  " /></a><a ewd:comment="4" style="cursor:pointer;" ewd:lineID="12"><path style="stroke:#000000;stroke-width: 5.10 ;&st6;" d=" M   858.36,   392.72  L   858.36,   137.76  L  1249.29,   137.76  L  1257.79,   129.26  L  1257.79,   120.77  " /></a><a ewd:comment="4" style="cursor:pointer;" ewd:lineID="13"><path style="stroke:#56077D;stroke-width: 5.10 ;&st6;" d=" M   943.34,   392.72  L   943.34,   265.24  L  1155.81,   265.24  L  1164.31,   273.74  L  1164.31,   276.01  " /></a><a ewd:comment="4" style="cursor:pointer;" ewd:lineID="14"><path style="stroke:#000000;stroke-width: 5.10 ;&st6;" d=" M   968.84,   579.69  L   968.84,   681.67  " /><path style="stroke:#FFFFFF;stroke-width: 4.53 ;&st6;" d=" M   968.84,   579.69  L   968.84,   681.67  " /><path style="stroke:#000000;stroke-width: 1.13 ;&st6;" d=" M   968.84,   579.69  L   968.84,   681.67  " /></a><a ewd:comment="3" style="cursor:pointer;" ewd:lineID="15"><path style="stroke:#56077D;stroke-width: 5.10 ;&st6;" d=" M  1164.31,   276.01  L  1164.31,   188.75  L  1240.79,   188.75  L  1240.79,   256.18  " /></a><a ewd:comment="3" style="cursor:pointer;" ewd:lineID="16"><path style="stroke:#992903;stroke-width: 5.10 ;&st6;" d=" M  1240.79,   528.70  L  1240.79,   681.67  " /></a><a ewd:comment="3" style="cursor:pointer;" ewd:lineID="17"><path style="stroke:#992903;stroke-width: 5.10 ;&st6;" d=" M  1240.79,   316.80  L  1240.79,   511.70  " /></a><a ewd:comment="3" style="cursor:pointer;" ewd:lineID="18"><path style="stroke:#00A0C6;stroke-width: 5.10 ;&st6;" d=" M  1300.28,   256.18  L  1300.28,   120.77  " /></a><a ewd:comment="3" style="cursor:pointer;" ewd:lineID="19"><path style="stroke:#99D9E8;stroke-width: 5.10 ;&st6;" d=" M  1368.27,   307.73  L  1368.27,   358.73  L  1300.28,   358.73  L  1300.28,   316.80  " /></a><a ewd:comment="3" style="cursor:pointer;" ewd:lineID="20"><path style="stroke:#000000;stroke-width: 5.10 ;&st6;" d=" M  1368.27,   265.24  L  1368.27,   180.26  L  1257.79,   180.26  L  1257.79,   120.77  " /></a><a ewd:comment="3" style="cursor:pointer;" ewd:lineID="21"><path style="stroke:#000000;stroke-width: 5.10 ;&st6;" d=" M  1402.27,   528.70  L  1402.27,   681.67  " /><path style="stroke:#FFFFFF;stroke-width: 4.53 ;&st6;" d=" M  1402.27,   528.70  L  1402.27,   681.67  " /><path style="stroke:#000000;stroke-width: 1.13 ;&st6;" d=" M  1402.27,   528.70  L  1402.27,   681.67  " /></a><a ewd:comment="3" style="cursor:pointer;" ewd:lineID="22"><path style="stroke:#000000;stroke-width: 5.10 ;&st6;" d=" M  1402.27,   511.70  L  1402.27,   307.73  " /><path style="stroke:#FFFFFF;stroke-width: 4.53 ;&st6;" d=" M  1402.27,   511.70  L  1402.27,   307.73  " /><path style="stroke:#000000;stroke-width: 1.13 ;&st6;" d=" M  1402.27,   511.70  L  1402.27,   307.73  " /></a><a ewd:figtype="w2w" style="cursor:pointer;" ewd:pinNo="4" ewd:code="AL2" ewd:figID="16"><path style="&st2;" d=" M   611.90,   358.73  L   594.90,   358.73  L   594.90,   367.22  L   611.90,   367.22  L   611.90,   358.73 " /><text style="&st8;" transform="matrix(&st16;  598.13  365.09 )"><tspan x="0" style="font-size:6px;font-family:'NSimSun';" y="0">AL2</tspan></text></a><a ewd:figtype="w2w" style="cursor:pointer;" ewd:pinNo="14" ewd:code="AE2" ewd:figID="17"><path style="&st2;" d=" M  1172.80,   282.24  L  1155.81,   282.24  L  1155.81,   290.74  L  1172.80,   290.74  L  1172.80,   282.24 " /><text style="&st8;" transform="matrix(&st16;  1159.0  288.61 )"><tspan x="0" style="font-size:6px;font-family:'NSimSun';" y="0">AE2</tspan></text></a><a ewd:figtype="gp" style="cursor:pointer;" ewd:code="AB" ewd:figID="18"><path style="&st2;" d=" M   320.82,   681.67  L   342.07,   681.67  L   331.44,   697.25  L   320.82,   681.67 " /><text style="&st8;" transform="matrix(&st16;  327.57  689.46 )"><tspan x="0" style="font-size:6px;font-family:'NSimSun';" y="0">AB</tspan></text></a><a ewd:figtype="gp" style="cursor:pointer;" ewd:code="QA" ewd:figID="19"><path style="&st2;" d=" M   711.76,   681.67  L   733.00,   681.67  L   722.38,   697.25  L   711.76,   681.67 " /><text style="&st8;" transform="matrix(&st16;  718.09  689.46 )"><tspan x="0" style="font-size:6px;font-family:'NSimSun';" y="0">QA</tspan></text></a><a ewd:figtype="gp" style="cursor:pointer;" ewd:code="EC" ewd:figID="20"><path style="&st2;" d=" M   958.21,   681.67  L   979.46,   681.67  L   968.84,   697.25  L   958.21,   681.67 " /><text style="&st8;" transform="matrix(&st16;  964.93  689.46 )"><tspan x="0" style="font-size:6px;font-family:'NSimSun';" y="0">EC</tspan></text></a><a ewd:figtype="gp" style="cursor:pointer;" ewd:code="EB" ewd:figID="21"><path style="&st2;" d=" M  1230.17,   681.67  L  1251.42,   681.67  L  1240.79,   697.25  L  1230.17,   681.67 " /><text style="&st8;" transform="matrix(&st16;  1237.11  689.46 )"><tspan x="0" style="font-size:6px;font-family:'NSimSun';" y="0">EB</tspan></text></a><a ewd:figtype="gp" style="cursor:pointer;" ewd:code="ED" ewd:figID="22"><path style="&st2;" d=" M  1391.64,   681.67  L  1412.89,   681.67  L  1402.27,   697.25  L  1391.64,   681.67 " /><text style="&st8;" transform="matrix(&st16;  1398.39  689.46 )"><tspan x="0" style="font-size:6px;font-family:'NSimSun';" y="0">ED</tspan></text></a><a ewd:figtype="sp" style="cursor:pointer;" ewd:code="SP3" ewd:figID="23"><path style="&st2;" d=" M   327.20,   401.22  L   335.69,   401.22  L   339.94,   405.47  L   339.94,   413.97  L   335.69,   418.22  L   327.20,   418.22  L   322.95,   413.97  L   322.95,   405.47  L   327.20,   401.22 " /></a></g></svg>