<?xml version="1.0" encoding="utf-8"?>
<!DOCTYPE svg PUBLIC "-//W3C//DTD SVG 1.0//EN" "http://www.w3.org/TR/2001/REC-SVG-20010904/DTD/svg10.dtd"[
	<!ENTITY ns_flows "http://ns.adobe.com/Flows/1.0/">
	<!ENTITY ns_svg "http://www.w3.org/2000/svg">
	<!ENTITY ns_xlink "http://www.w3.org/1999/xlink">
	<!ENTITY st0 "font-size:7px;font-family:'NSimSun';adobe-font-script:japanese;">
	<!ENTITY st1 "font-size:6px;font-family:'NSimSun';">
	<!-- White fill  -->
	<!ENTITY st2 "fill:#FFFFFF;stroke:#000000; stroke-width:1.41;stroke-linecap:round;stroke-linejoin:round;">
	<!-- Yellow fill  -->
	<!ENTITY st3 "fill:#FFFFCC;stroke:#FFFFCC; stroke-width:0.1;stroke-linecap:round;stroke-linejoin:round;">
	<!-- Gray fill  -->
	<!ENTITY st4 "fill:#CCCCCC;stroke:#CCCCCC; stroke-width:0.1;stroke-linecap:round;stroke-linejoin:round;">
	<!-- Light-blue fill -->
	<!ENTITY st5 "fill:#CCECF4;stroke:#000000; stroke-width:1.133;stroke-linecap:round;stroke-linejoin:round;">
	<!ENTITY st6 "fill:none;stroke-linecap:butt; stroke-linejoin:round;">
	<!ENTITY st7 "fill:none;stroke:#000000;stroke-linecap:round;stroke-linejoin:round;">
	<!ENTITY st8 "enable-background:new    ;">
	<!-- Black fill -->
	<!ENTITY st9 "fill:#000000;stroke:#000000; stroke-linecap:round;stroke-linejoin:round;">
	<!-- SRS note   -->
	<!ENTITY st10 "font-size:9px;font-family:'NSimSun';">
	<!ENTITY st11 "font-size:9px;font-family:'NSimSun';">
	<!ENTITY st12 "font-size:6px;font-family:'NSimSun';">
	<!ENTITY st13 "fill:none;stroke:#ff0000;stroke-linecap:round;stroke-linejoin:round;">
	<!-- Yellow fill  -->
	<!ENTITY st14 "fill:#FFFF00;stroke:#FFFF00; stroke-width:0.1;stroke-linecap:round;stroke-linejoin:round;">
	<!ENTITY st15 "font-size:6px;font-family:'NSimSun';adobe-font-script:japanese;">
	<!ENTITY st16 "1.00 0.00 0.00 1.00">
	<!ENTITY st17 "0.00 -1.00 1.00 0.00">
	<!ENTITY st18 "font-size:6px;font-family:'NSimSun';">
	<!ENTITY st19 "font-size:9px;font-family:'NSimSun';">
	<!ENTITY st20 "font-size:6px;font-family:'NSimSun';adobe-font-script:japanese;">
	<!ENTITY st21 "font-size:7px;font-family:'NSimSun';adobe-font-script:japanese;">
	<!ATTLIST svg
		xmlns:ewd CDATA #FIXED "http://shcl.co.jp/ewd"
		xmlns:a CDATA #FIXED "http://ns.adobe.com/AdobeSVGViewerExtensions/3.0/"
		ewd:ver CDATA #IMPLIED
	>
	<!ATTLIST a
		ewd:lineID CDATA #IMPLIED
		ewd:groupID CDATA #IMPLIED
		ewd:figtype CDATA #IMPLIED
		ewd:code CDATA #IMPLIED
		ewd:figID CDATA #IMPLIED
		ewd:pinNo CDATA #IMPLIED
		ewd:comment CDATA #IMPLIED >
	<!ATTLIST g
		ewd:lineID CDATA #IMPLIED
		ewd:groupID CDATA #IMPLIED
		ewd:figtype CDATA #IMPLIED
		ewd:code CDATA #IMPLIED
		ewd:figID CDATA #IMPLIED
		ewd:pinNo CDATA #IMPLIED
		ewd:comment CDATA #IMPLIED >
	<!ATTLIST text
		ewd:textID CDATA #IMPLIED
		ewd:horAlign CDATA #IMPLIED >
	<!ATTLIST title
		ewd:textID CDATA #IMPLIED >
]>
<!-- Generator: Shintec Hozumi YS   -->
<svg onload="call_execInitLoadProc_svg('system')" style="overflow:visible;  enable-background:new 0 0 8796.739 710.000" viewBox="0 0 8804.534 710.000" height="710.000" width="8804.534" xml:space="preserve" ewd:ver="2.1.2.6F" xmlns="&ns_svg;" xmlns:ewd="http://shcl.co.jp/ewd" xmlns:a="http://ns.adobe.com/AdobeSVGViewerExtensions/3.0/" xmlns:xlink="&ns_xlink;">
<path style="stroke-width: 1.42 ;&st7;  " d=" M  5634.56,   469.21  L  5626.06,   469.21  " /><path style="stroke-width: 1.42 ;&st7;  " d=" M  5898.01,   171.76  L  5889.52,   171.76  " /><text style="font-size:6px;font-family:'NSimSun';" transform="matrix(&st17;  5970.81  131.73 )">W</text><text style="font-size:6px;font-family:'NSimSun';" transform="matrix(&st17;  5970.81  225.21 )">W</text><text style="font-size:6px;font-family:'NSimSun';" transform="matrix(&st17;  5554.38  139.57 )">V</text><text style="font-size:6px;font-family:'NSimSun';" transform="matrix(&st17;  5902.82  523.98 )">LG</text><text style="font-size:6px;font-family:'NSimSun';" transform="matrix(&st17;  5868.82  522.66 )">W</text><text style="font-size:6px;font-family:'NSimSun';" transform="matrix(&st16;  5725.93  609.99 )">R</text><text style="font-size:6px;font-family:'NSimSun';" transform="matrix(&st16;  5725.08  592.99 )">W</text><text style="font-size:6px;font-family:'NSimSun';" transform="matrix(&st16;  5674.94  609.99 )">R</text><text style="font-size:6px;font-family:'NSimSun';" transform="matrix(&st16;  5674.09  592.99 )">W</text><text style="font-size:6px;font-family:'NSimSun';" transform="matrix(&st16;  5674.94  542.0 )">R</text><text style="font-size:6px;font-family:'NSimSun';" transform="matrix(&st16;  5674.75  558.99 )">V</text><text style="font-size:6px;font-family:'NSimSun';" transform="matrix(&st16;  5725.74  558.99 )">V</text><text style="font-size:6px;font-family:'NSimSun';" transform="matrix(&st16;  5725.93  542.0 )">R</text><text style="font-size:6px;font-family:'NSimSun';" transform="matrix(&st17;  5622.36  436.9 )">B</text><text style="font-size:6px;font-family:'NSimSun';" transform="matrix(&st17;  5554.38  275.54 )">V</text><text style="font-size:6px;font-family:'NSimSun';" transform="matrix(&st17;  5885.82  130.95 )">B</text><text style="font-size:6px;font-family:'NSimSun';" transform="matrix(&st17;  5885.82  224.44 )">B</text><text style="font-size:6px;font-family:'NSimSun';" transform="matrix(&st17;  5766.84  224.32 )">L</text><text style="font-size:6px;font-family:'NSimSun';" transform="matrix(&st17;  5732.85  224.44 )">Y</text><g ewd:figtype="conn" ewd:figID="37" ewd:code="E47,E48,E49"><g ewd:lineID="130"><path style="stroke-width: 1.42 ;&st7;   " d=" M  5503.11,    99.80  C  5503.11     97.30   5501.08     95.27   5498.58     95.27  " /></g><g ewd:lineID="132"><text style="font-size:6px;font-family:'NSimSun';" transform="matrix(&st16;  5546.28  101.77 )">27</text><path style="stroke-width: 1.42 ;&st7;   " d=" M  5562.60,    99.80  C  5562.60     97.30   5560.57     95.27   5558.07     95.27  " /><path style="stroke-width: 1.42 ;&st7;   " d=" M  5558.07,    95.27  C  5555.57     95.27   5553.54     97.30   5553.54     99.80  " /><path style="stroke-width: 1.42 ;&st7;   " d=" M  5553.54,    99.80  C  5553.54    102.31   5555.57    104.33   5558.07    104.33  " /><path style="stroke-width: 1.42 ;&st7;   " d=" M  5558.07,   104.33  C  5560.57    104.33   5562.60    102.31   5562.60     99.80  " /><text style="font-size:6px;font-family:'NSimSun';" transform="matrix(&st16;  5555.65  101.77 )">C</text><text style="font-size:6px;font-family:'NSimSun';" transform="matrix(&st16;  5552.39  91.57 )">SPD</text></g></g><g ewd:figtype="conn" ewd:figID="38" ewd:code="A41,A42"><path style="stroke-width: 1.42 ;&st7;  " d=" M  5609.06,   358.73  L  5609.06,   392.72  L  5643.05,   392.72  L  5643.05,   358.73  L  5609.06,   358.73  " /><g ewd:comment="12,11" ewd:lineID="134"><text style="font-size:6px;font-family:'NSimSun';" transform="matrix(&st16;  5617.37  399.22 )">2</text><text style="font-size:6px;font-family:'NSimSun';" transform="matrix(&st16;  5617.37  408.29 )">2</text><path style="stroke-width: 1.42 ;&st7;   " d=" M  5630.59,   397.25  C  5630.59    394.75   5628.56    392.72   5626.06    392.72  " /><path style="stroke-width: 1.42 ;&st7;   " d=" M  5626.06,   392.72  C  5623.56    392.72   5621.53    394.75   5621.53    397.25  " /><path style="stroke-width: 1.42 ;&st7;   " d=" M  5621.53,   397.25  C  5621.53    399.76   5623.56    401.78   5626.06    401.78  " /><path style="stroke-width: 1.42 ;&st7;   " d=" M  5626.06,   401.78  C  5628.56    401.78   5630.59    399.76   5630.59    397.25  " /><text style="font-size:6px;font-family:'NSimSun';" transform="matrix(&st16;  5623.87  408.29 )">B</text><path style="stroke-width: 1.42 ;&st7;   " d=" M  5630.59,   406.32  C  5630.59    403.81   5628.56    401.78   5626.06    401.78  " /><path style="stroke-width: 1.42 ;&st7;   " d=" M  5626.06,   401.78  C  5623.56    401.78   5621.53    403.81   5621.53    406.32  " /><path style="stroke-width: 1.42 ;&st7;   " d=" M  5621.53,   406.32  C  5621.53    408.82   5623.56    410.85   5626.06    410.85  " /><path style="stroke-width: 1.42 ;&st7;   " d=" M  5626.06,   410.85  C  5628.56    410.85   5630.59    408.82   5630.59    406.32  " /><text style="font-size:6px;font-family:'NSimSun';" transform="matrix(&st16;  5623.76  399.22 )">A</text><text style="font-size:6px;font-family:'NSimSun';" transform="matrix(&st16;  5620.96  389.02 )">SP1</text><g ewd:code="" ewd:figID="199" ewd:comment="12" ewd:figtype="commref"><text style="font-size:6px;font-family:'NSimSun';" transform="matrix(&st16;  5631.15  399.22 )">(*12)</text></g><g ewd:code="" ewd:figID="200" ewd:comment="11" ewd:figtype="commref"><text style="font-size:6px;font-family:'NSimSun';" transform="matrix(&st16;  5631.15  408.29 )">(*11)</text></g></g><g ewd:figtype="title"><text style="font-size:6px;font-family:'NSimSun';" transform="matrix(&st17;  5657.77  387.13 )" ewd:textID="8">制动执行器总成</text><text style="font-size:6px;font-family:'NSimSun';" transform="matrix(&st17;  5650.67  387.12 )">A41(A),A42(B)</text></g></g><g ewd:figtype="rb" ewd:figID="43" ewd:code="FUSE6"><path style="stroke-width: 1.42 ;&st7;  " d=" M  5976.63,    95.27  L  5972.38,    95.27  " /><path style="stroke-width: 1.42 ;&st7;  " d=" M  5976.63,   103.77  L  5972.38,   103.77  " /><path style="stroke-width: 0.85 ;&st7;  " d=" M  5974.50,    69.77  L  5974.50,    95.27  " /><path style="stroke-width: 1.42 ;&st7;   " d=" M  5980.88,    99.52  C  5980.88     97.17   5978.97     95.27   5976.63     95.27  " /><path style="stroke-width: 1.42 ;&st7;   " d=" M  5976.63,   103.77  C  5978.97    103.77   5980.88    101.87   5980.88     99.52  " /><path style="stroke-width: 1.42 ;&st7;   " d=" M  5968.13,    99.52  C  5968.13    101.87   5970.03    103.77   5972.38    103.77  " /><path style="stroke-width: 1.42 ;&st7;   " d=" M  5972.38,    95.27  C  5970.03     95.27   5968.13     97.17   5968.13     99.52  " /><path style="stroke-width: 0.28 ;&st9;  " d=" M  5974.50,    90.37  L  5971.67,    87.54  L  5971.67,    91.79  L  5974.50,    94.62  L  5977.33,    91.79  L  5977.33,    87.54  L  5974.50,    90.37  " /><text style="font-size:6px;font-family:'NSimSun';" transform="matrix(&st16;  5990.93  53.34 )">10A <tspan x="0 " dy="6.0">ECU-B </tspan><tspan x="0 " dy="6.0">NO.2</tspan></text><text style="font-size:6px;font-family:'NSimSun';" transform="matrix(&st16;  5972.7  101.49 )">1</text><text style="font-size:6px;font-family:'NSimSun';" transform="matrix(&st16;  5966.46  32.08 )">(BAT)</text><text style="font-size:6px;font-family:'NSimSun';" transform="matrix(&st16;  5968.32  86.47 )">2</text><path style="stroke-width: 0.85 ;&st7;   " d=" M  5975.92,    68.36  C  5975.92     67.57   5975.28     66.94   5974.50     66.94  " /><path style="stroke-width: 0.85 ;&st7;   " d=" M  5974.50,    66.94  C  5973.72     66.94   5973.09     67.57   5973.09     68.36  " /><path style="stroke-width: 0.85 ;&st7;   " d=" M  5973.09,    68.36  C  5973.09     69.14   5973.72     69.77   5974.50     69.77  " /><path style="stroke-width: 0.85 ;&st7;   " d=" M  5974.50,    69.77  C  5975.28     69.77   5975.92     69.14   5975.92     68.36  " /><path style="stroke-width: 0.85 ;&st7;   " d=" M  5975.92,    45.69  C  5975.92     44.91   5975.28     44.28   5974.50     44.28  " /><path style="stroke-width: 0.85 ;&st7;   " d=" M  5974.50,    44.28  C  5973.72     44.28   5973.09     44.91   5973.09     45.69  " /><path style="stroke-width: 0.85 ;&st7;   " d=" M  5973.09,    45.69  C  5973.09     46.48   5973.72     47.11   5974.50     47.11  " /><path style="stroke-width: 0.85 ;&st7;   " d=" M  5974.50,    47.11  C  5975.28     47.11   5975.92     46.48   5975.92     45.69  " /><path style="stroke-width: 1.42 ;&st7;   " d=" M  5974.50,    66.94  C  5977.24     65.33   5978.15     61.80   5976.54     59.06  " /><path style="stroke-width: 1.42 ;&st7;   " d=" M  5976.54,    59.06  C  5976.02     58.18   5975.38     57.55   5974.50     57.03  " /><path style="stroke-width: 1.42 ;&st7;   " d=" M  5974.50,    47.11  C  5971.76     48.72   5970.85     52.25   5972.46     54.99  " /><path style="stroke-width: 1.42 ;&st7;   " d=" M  5972.46,    54.99  C  5972.98     55.87   5973.62     56.51   5974.50     57.03  " /><path style="stroke-width: 1.42 ;&st7;  " d=" M  5961.75,    35.78  L  5961.75,    78.27  L  5987.25,    78.27  L  5987.25,    35.78  L  5961.75,    35.78  " /></g><g ewd:figtype="rb" ewd:figID="46" ewd:code="FUSE17"><path style="stroke-width: 1.42 ;&st7;  " d=" M  5891.64,    95.27  L  5887.39,    95.27  " /><path style="stroke-width: 1.42 ;&st7;  " d=" M  5891.64,   103.77  L  5887.39,   103.77  " /><path style="stroke-width: 0.85 ;&st7;  " d=" M  5889.52,    78.27  L  5889.52,    95.27  " /><path style="stroke-width: 1.42 ;&st7;   " d=" M  5887.39,    95.27  C  5885.04     95.27   5883.14     97.17   5883.14     99.52  " /><path style="stroke-width: 1.42 ;&st7;   " d=" M  5883.14,    99.52  C  5883.14    101.87   5885.04    103.77   5887.39    103.77  " /><path style="stroke-width: 1.42 ;&st7;   " d=" M  5891.64,   103.77  C  5893.99    103.77   5895.89    101.87   5895.89     99.52  " /><path style="stroke-width: 1.42 ;&st7;   " d=" M  5895.89,    99.52  C  5895.89     97.17   5893.99     95.27   5891.64     95.27  " /><path style="stroke-width: 0.28 ;&st9;  " d=" M  5889.51,    90.37  L  5886.68,    87.54  L  5886.68,    91.79  L  5889.51,    94.62  L  5892.35,    91.79  L  5892.35,    87.54  L  5889.51,    90.37  " /><text style="font-size:6px;font-family:'NSimSun';" transform="matrix(&st16;  5905.94  56.17 )">10A <tspan x="0 " dy="6.0">TURN&amp;HAZ</tspan></text><text style="font-size:6px;font-family:'NSimSun';" transform="matrix(&st16;  5887.72  101.49 )">1</text><text style="font-size:6px;font-family:'NSimSun';" transform="matrix(&st16;  5883.33  86.47 )">2</text><text style="font-size:6px;font-family:'NSimSun';" transform="matrix(&st16;  5881.47  32.08 )">(BAT)</text><path style="stroke-width: 0.85 ;&st7;  " d=" M  5889.52,    69.77  L  5889.52,    78.27  " /><path style="stroke-width: 1.42 ;&st7;   " d=" M  5889.52,    47.11  C  5886.78     48.72   5885.87     52.25   5887.48     54.99  " /><path style="stroke-width: 1.42 ;&st7;   " d=" M  5887.48,    54.99  C  5888.00     55.87   5888.63     56.51   5889.52     57.03  " /><path style="stroke-width: 1.42 ;&st7;   " d=" M  5889.52,    66.94  C  5892.25     65.33   5893.17     61.80   5891.55     59.06  " /><path style="stroke-width: 1.42 ;&st7;   " d=" M  5891.55,    59.06  C  5891.03     58.18   5890.40     57.55   5889.52     57.03  " /><path style="stroke-width: 0.85 ;&st7;   " d=" M  5890.93,    45.69  C  5890.93     44.91   5890.30     44.28   5889.52     44.28  " /><path style="stroke-width: 0.85 ;&st7;   " d=" M  5889.52,    44.28  C  5888.73     44.28   5888.10     44.91   5888.10     45.69  " /><path style="stroke-width: 0.85 ;&st7;   " d=" M  5888.10,    45.69  C  5888.10     46.48   5888.73     47.11   5889.52     47.11  " /><path style="stroke-width: 0.85 ;&st7;   " d=" M  5889.52,    47.11  C  5890.30     47.11   5890.93     46.48   5890.93     45.69  " /><path style="stroke-width: 0.85 ;&st7;   " d=" M  5890.93,    68.36  C  5890.93     67.57   5890.30     66.94   5889.52     66.94  " /><path style="stroke-width: 0.85 ;&st7;   " d=" M  5889.52,    66.94  C  5888.73     66.94   5888.10     67.57   5888.10     68.36  " /><path style="stroke-width: 0.85 ;&st7;   " d=" M  5888.10,    68.36  C  5888.10     69.14   5888.73     69.77   5889.52     69.77  " /><path style="stroke-width: 0.85 ;&st7;   " d=" M  5889.52,    69.77  C  5890.30     69.77   5890.93     69.14   5890.93     68.36  " /><path style="stroke-width: 1.42 ;&st7;  " d=" M  5876.77,    35.78  L  5876.77,    78.27  L  5902.26,    78.27  L  5902.26,    35.78  L  5876.77,    35.78  " /></g><g ewd:figtype="conn" ewd:figID="47" ewd:code="E74"><path style="stroke-width: 0.85 ;&st7;  " d=" M  5905.32,   561.69  L  5905.05,   562.16  L  5904.95,   562.69  L  5905.05,   563.22  L  5905.32,   563.69  L  5905.73,   564.04  L  5906.24,   564.23  L  5906.78,   564.23  L  5907.29,   564.04  L  5907.70,   563.69  L  5907.98,   563.22  L  5908.07,   562.69  L  5907.98,   562.16  L  5907.70,   561.69  L  5907.29,   561.34  L  5906.78,   561.16  L  5906.24,   561.16  L  5905.73,   561.34  L  5905.32,   561.69  L  5905.71,   562.40  L  5905.71,   562.98  L  5906.09,   563.43  L  5906.66,   563.53  L  5907.16,   563.24  L  5907.36,   562.69  L  5907.16,   562.14  L  5906.66,   561.86  L  5906.09,   561.95  L  5906.51,   562.69  " /><path style="stroke-width: 0.85 ;&st7;  " d=" M  5871.32,   570.19  L  5871.05,   570.66  L  5870.96,   571.19  L  5871.05,   571.72  L  5871.32,   572.19  L  5871.74,   572.54  L  5872.25,   572.73  L  5872.79,   572.73  L  5873.30,   572.54  L  5873.71,   572.19  L  5873.98,   571.72  L  5874.07,   571.19  L  5873.98,   570.66  L  5873.71,   570.19  L  5873.30,   569.84  L  5872.79,   569.65  L  5872.25,   569.65  L  5871.74,   569.84  L  5871.32,   570.19  L  5871.72,   570.90  L  5871.72,   571.48  L  5872.09,   571.93  L  5872.66,   572.03  L  5873.17,   571.74  L  5873.37,   571.19  L  5873.17,   570.64  L  5872.66,   570.35  L  5872.09,   570.45  L  5872.52,   571.19  " /><path style="stroke-width: 0.85 ;&st7;  " d=" M  5872.52,   571.19  L  5940.50,   571.19  L  5940.50,   579.69  " /><path style="stroke-width: 0.85 ;&st7;  " d=" M  5906.51,   562.69  L  5974.50,   562.69  L  5974.50,   579.69  " /><path style="stroke-width: 0.85 ;&st7;  " d=" M  5906.51,   554.19  L  5906.51,   579.69  " /><path style="stroke-width: 0.85 ;&st7;  " d=" M  5872.52,   554.19  L  5872.52,   579.69  " /><path style="stroke-width: 1.42 ;&st7;  " d=" M  5864.02,   554.19  L  5864.02,   579.69  L  5983.00,   579.69  L  5983.00,   554.19  L  5864.02,   554.19  " /><text style="font-size:6px;font-family:'NSimSun';" transform="matrix(&st16;  5900.33  587.88 )">6</text><text style="font-size:6px;font-family:'NSimSun';" transform="matrix(&st16;  5863.23  587.88 )">17</text><text style="font-size:6px;font-family:'NSimSun';" transform="matrix(&st16;  5863.23  550.5 )">15</text><text style="font-size:6px;font-family:'NSimSun';" transform="matrix(&st16;  5900.33  550.5 )">4</text><text style="font-size:6px;font-family:'NSimSun';" transform="matrix(&st16;  5931.22  587.88 )">16</text><text style="font-size:6px;font-family:'NSimSun';" transform="matrix(&st16;  5968.32  587.88 )">5</text><g ewd:figtype="title"><text style="font-size:6px;font-family:'NSimSun';" transform="matrix(&st17;  5990.61  582.59 )">E74</text><text style="font-size:6px;font-family:'NSimSun';" transform="matrix(&st17;  5997.72  582.59 )" ewd:textID="40">2 号<tspan x="0 " dy="6.0">CAN</tspan><tspan x="0 " dy="6.0">接线连接器</tspan></text></g></g><g ewd:figtype="conn" ewd:figID="49" ewd:code="E55,E59"><path style="stroke-width: 0.85 ;&st7;  " d=" M  5978.75,   290.74  L  5970.25,   290.74  " /><path style="stroke-width: 0.85 ;&st7;  " d=" M  6046.74,   290.74  L  6038.24,   290.74  " /><path style="stroke-width: 0.85 ;&st7;  " d=" M  6008.49,   324.73  L  6008.49,   367.22  " /><path style="stroke-width: 0.85 ;&st7;  " d=" M  6161.47,   418.22  L  6161.47,   426.71  " /><path style="stroke-width: 0.85 ;&st7;  " d=" M  6161.47,   392.72  L  6161.47,   401.22  " /><path style="stroke-width: 1.42 ;&st7;  " d=" M  6144.47,   426.71  L  6144.47,   443.71  L  6178.47,   443.71  L  6178.47,   426.71  L  6144.47,   426.71  " /><path style="stroke-width: 1.42 ;&st7;  " d=" M  6144.47,   401.22  L  6144.47,   418.22  L  6178.47,   418.22  L  6178.47,   401.22  L  6144.47,   401.22  " /><path style="stroke-width: 0.85 ;&st7;  " d=" M  5872.52,   392.72  L  5872.52,   418.22  " /><path style="stroke-width: 0.85 ;&st7;  " d=" M  5906.51,   392.72  L  5906.51,   418.22  " /><path style="stroke-width: 0.85 ;&st7;  " d=" M  5834.27,   418.22  L  5825.77,   418.22  " /><path style="stroke-width: 0.85 ;&st7;  " d=" M  5830.02,   418.22  L  5830.02,   426.71  L  5855.52,   426.71  " /><path style="stroke-width: 1.42 ;&st7;  " d=" M  5855.52,   392.72  L  5855.52,   375.72  L  5923.51,   375.72  L  5923.51,   392.72  " /><path style="stroke-width: 1.42 ;&st7;  " d=" M  5736.54,   367.22  L  5736.54,   392.72  L  6178.47,   392.72  L  6178.47,   367.22  L  5736.54,   367.22  " /><path style="stroke-width: 1.42 ;&st7;  " d=" M  5855.52,   418.22  L  5855.52,   435.21  L  5923.51,   435.21  L  5923.51,   418.22  L  5855.52,   418.22  " /><path style="stroke-width: 0.85 ;&st7;  " d=" M  5973.08,   333.23  L  5975.92,   333.23  " /><path style="stroke-width: 0.85 ;&st7;  " d=" M  5971.67,   330.40  L  5977.33,   330.40  " /><path style="stroke-width: 0.85 ;&st7;  " d=" M  5970.25,   327.56  L  5978.75,   327.56  " /><path style="stroke-width: 0.85 ;&st7;  " d=" M  5966.00,   324.73  L  5983.00,   324.73  " /><path style="stroke-width: 0.85 ;&st7;  " d=" M  5974.50,   324.73  L  5974.50,   316.23  L  5991.50,   316.23  " /><path style="stroke-width: 1.42 ;&st7;  " d=" M  5991.50,   307.73  L  5991.50,   324.73  L  6025.49,   324.73  L  6025.49,   307.73  L  5991.50,   307.73  " /><path style="stroke-width: 0.85 ;&st7;  " d=" M  6007.30,   298.23  L  6007.03,   298.70  L  6006.94,   299.24  L  6007.03,   299.77  L  6007.30,   300.24  L  6007.71,   300.58  L  6008.22,   300.77  L  6008.76,   300.77  L  6009.27,   300.58  L  6009.69,   300.24  L  6009.96,   299.77  L  6010.05,   299.24  L  6009.96,   298.70  L  6009.69,   298.23  L  6009.27,   297.89  L  6008.76,   297.70  L  6008.22,   297.70  L  6007.71,   297.89  L  6007.30,   298.23  L  6007.69,   298.94  L  6007.69,   299.53  L  6008.07,   299.97  L  6008.64,   300.07  L  6009.15,   299.78  L  6009.34,   299.24  L  6009.15,   298.69  L  6008.64,   298.40  L  6008.07,   298.50  L  6008.49,   299.24  " /><path style="stroke-width: 0.85 ;&st7;  " d=" M  6008.49,   299.24  L  6008.49,   307.73  " /><path style="stroke-width: 0.85 ;&st7;  " d=" M  5974.50,   256.74  L  5974.50,   299.24  L  6042.49,   299.24  L  6042.49,   256.74  " /><path style="stroke-width: 0.28 ;&st9;  " d=" M  6042.49,   290.74  L  6036.82,   282.24  L  6048.15,   282.24  L  6042.49,   290.74  " /><path style="stroke-width: 0.28 ;&st9;  " d=" M  5974.50,   290.74  L  5968.83,   282.24  L  5980.16,   282.24  L  5974.50,   290.74  " /><path style="stroke-width: 0.85 ;&st7;  " d=" M  6127.47,   392.72  L  6127.47,   494.70  " /><path style="stroke-width: 0.85 ;&st7;  " d=" M  5906.51,   435.21  L  5906.51,   494.70  " /><path style="stroke-width: 0.85 ;&st7;  " d=" M  5872.52,   435.21  L  5872.52,   494.70  " /><path style="stroke-width: 1.42 ;&st7;  " d=" M  5719.54,   256.74  L  5719.54,   494.70  L  6195.46,   494.70  L  6195.46,   256.74  L  5719.54,   256.74  " /><path style="stroke-width: 0.85 ;&st7;  " d=" M  5745.04,   435.21  L  5745.04,   392.72  " /><path style="stroke-width: 1.42 ;&st7;  " d=" M  5728.04,   435.21  L  5728.04,   452.21  L  5762.03,   452.21  L  5762.03,   435.21  L  5728.04,   435.21  " /><path style="stroke-width: 0.85 ;&st7;  " d=" M  5745.04,   494.70  L  5745.04,   452.21  " /><path style="stroke-width: 1.42 ;&st7;  " d=" M  5949.00,   418.22  L  5949.00,   443.71  L  6016.99,   443.71  L  6016.99,   418.22  L  5949.00,   418.22  " /><path style="stroke-width: 0.85 ;&st7;  " d=" M  6059.48,   392.72  L  6059.48,   418.22  " /><path style="stroke-width: 0.85 ;&st7;  " d=" M  6067.98,   392.72  L  6067.98,   418.22  " /><path style="stroke-width: 0.85 ;&st7;  " d=" M  6076.48,   392.72  L  6076.48,   418.22  " /><path style="stroke-width: 0.85 ;&st7;  " d=" M  6084.98,   392.72  L  6084.98,   418.22  " /><path style="stroke-width: 0.85 ;&st7;  " d=" M  6093.48,   392.72  L  6093.48,   418.22  " /><path style="stroke-width: 1.42 ;&st7;  " d=" M  6033.99,   418.22  L  6033.99,   443.71  L  6101.98,   443.71  L  6101.98,   418.22  L  6033.99,   418.22  " /><path style="stroke-width: 0.85 ;&st7;  " d=" M  6008.49,   392.72  L  6008.49,   418.22  " /><path style="stroke-width: 0.85 ;&st7;  " d=" M  5999.99,   392.72  L  5999.99,   418.22  " /><path style="stroke-width: 0.85 ;&st7;  " d=" M  5991.50,   392.72  L  5991.50,   418.22  " /><path style="stroke-width: 0.85 ;&st7;  " d=" M  5983.00,   392.72  L  5983.00,   418.22  " /><path style="stroke-width: 0.85 ;&st7;  " d=" M  5974.50,   392.72  L  5974.50,   418.22  " /><path style="stroke-width: 0.85 ;&st7;  " d=" M  5966.00,   392.72  L  5966.00,   418.22  " /><path style="stroke-width: 0.85 ;&st7;  " d=" M  5957.50,   392.72  L  5957.50,   418.22  " /><path style="stroke-width: 0.85 ;&st7;  " d=" M  6050.99,   392.72  L  6050.99,   418.22  " /><path style="stroke-width: 0.85 ;&st7;  " d=" M  6042.49,   392.72  L  6042.49,   418.22  " /><text style="font-size:6px;font-family:'NSimSun';" transform="matrix(&st16;  6044.69  382.22 )">CPU</text><text style="font-size:6px;font-family:'NSimSun';" transform="matrix(&st16; 6152.68 437.18)" ewd:textID="9" ewd:horAlign="center">蜂鸣器</text><text style="font-size:6px;font-family:'NSimSun';" transform="matrix(&st16;  6156.92  411.69 )">I/F</text><text style="font-size:6px;font-family:'NSimSun';" transform="matrix(&st16;  6130.06  491.01 )">ET</text><text style="font-size:6px;font-family:'NSimSun';" transform="matrix(&st16;  5877.75  428.97 )">CAN I/F</text><text style="font-size:6px;font-family:'NSimSun';" transform="matrix(&st16;  5875.1  491.01 )">CANL</text><text style="font-size:6px;font-family:'NSimSun';" transform="matrix(&st16;  5909.1  491.01 )">CANH</text><text style="font-size:6px;font-family:'NSimSun';" transform="matrix(&st16;  5822.68  414.8 )">5V+B</text><text style="font-size:6px;font-family:'NSimSun';" transform="matrix(&st16; 5874.12 386.47)" ewd:textID="10" ewd:horAlign="center">CAN 控制器</text><text style="font-size:6px;font-family:'NSimSun';" transform="matrix(&st16;  6000.65  318.2 )">5V IC</text><text style="font-size:6px;font-family:'NSimSun';" transform="matrix(&st16;  6045.07  264.94 )">IG+</text><text style="font-size:6px;font-family:'NSimSun';" transform="matrix(&st16;  5977.09  264.94 )">B</text><text style="font-size:6px;font-family:'NSimSun';" transform="matrix(&st16;  5798.61  491.01 )">+S</text><text style="font-size:6px;font-family:'NSimSun';" transform="matrix(&st16;  5747.62  491.01 )">SI</text><text style="font-size:6px;font-family:'NSimSun';" transform="matrix(&st16;  5740.49  445.68 )">I/F</text><text style="font-size:6px;font-family:'NSimSun';" transform="matrix(&st16; 5966.11 433.11)" ewd:textID="17" ewd:horAlign="center">显示屏驱动器<tspan x="0 " dy="6.0" /></text><text style="font-size:6px;font-family:'NSimSun';" transform="matrix(&st16;  6011.08  332.92 )">5V+B</text><text style="font-size:6px;font-family:'NSimSun';" transform="matrix(&st16;  5791.48  445.68 )">I/F</text><path style="stroke-width: 0.85 ;&st7;  " d=" M  5796.03,   494.70  L  5796.03,   452.21  " /><path style="stroke-width: 1.42 ;&st7;  " d=" M  5779.03,   435.21  L  5779.03,   452.21  L  5813.03,   452.21  L  5813.03,   435.21  L  5779.03,   435.21  " /><text style="font-size:6px;font-family:'NSimSun';" transform="matrix(&st16;  5766.6  264.38 )">LR</text><text style="font-size:6px;font-family:'NSimSun';" transform="matrix(&st16;  5732.65  264.38 )">LL</text><text style="font-size:6px;font-family:'NSimSun';" transform="matrix(&st16; 6051.10 433.11)" ewd:textID="17" ewd:horAlign="center">显示屏驱动器<tspan x="0 " dy="6.0" /></text><path style="stroke-width: 0.85 ;&st7;  " d=" M  5796.03,   435.21  L  5796.03,   392.72  " /><text style="font-size:6px;font-family:'NSimSun';" transform="matrix(&st16;  5887.33  264.38 )">B</text><text style="font-size:6px;font-family:'NSimSun';" transform="matrix(&st16;  5787.34  501.2 )">6</text><text style="font-size:6px;font-family:'NSimSun';" transform="matrix(&st16;  5793.73  501.2 )">A</text><path style="stroke-width: 1.42 ;&st7;   " d=" M  5800.56,   499.24  C  5800.56    496.73   5798.53    494.70   5796.03    494.70  " /><path style="stroke-width: 1.42 ;&st7;   " d=" M  5796.03,   494.70  C  5793.53    494.70   5791.50    496.73   5791.50    499.24  " /><path style="stroke-width: 1.42 ;&st7;   " d=" M  5791.50,   499.24  C  5791.50    501.74   5793.53    503.77   5796.03    503.77  " /><path style="stroke-width: 1.42 ;&st7;   " d=" M  5796.03,   503.77  C  5798.53    503.77   5800.56    501.74   5800.56    499.24  " /><text style="font-size:6px;font-family:'NSimSun';" transform="matrix(&st16;  5736.35  501.2 )">5</text><path style="stroke-width: 1.42 ;&st7;   " d=" M  5749.57,   499.24  C  5749.57    496.73   5747.54    494.70   5745.04    494.70  " /><path style="stroke-width: 1.42 ;&st7;   " d=" M  5745.04,   494.70  C  5742.54    494.70   5740.51    496.73   5740.51    499.24  " /><path style="stroke-width: 1.42 ;&st7;   " d=" M  5740.51,   499.24  C  5740.51    501.74   5742.54    503.77   5745.04    503.77  " /><path style="stroke-width: 1.42 ;&st7;   " d=" M  5745.04,   503.77  C  5747.54    503.77   5749.57    501.74   5749.57    499.24  " /><text style="font-size:6px;font-family:'NSimSun';" transform="matrix(&st16;  5742.74  501.2 )">A</text><text style="font-size:6px;font-family:'NSimSun';" transform="matrix(&st16;  5724.75  254.18 )">13</text><text style="font-size:6px;font-family:'NSimSun';" transform="matrix(&st16;  5734.35  254.18 )">B</text><path style="stroke-width: 1.42 ;&st7;   " d=" M  5741.07,   252.21  C  5741.07    249.71   5739.04    247.68   5736.54    247.68  " /><path style="stroke-width: 1.42 ;&st7;   " d=" M  5736.54,   247.68  C  5734.04    247.68   5732.01    249.71   5732.01    252.21  " /><path style="stroke-width: 1.42 ;&st7;   " d=" M  5732.01,   252.21  C  5732.01    254.71   5734.04    256.74   5736.54    256.74  " /><path style="stroke-width: 1.42 ;&st7;   " d=" M  5736.54,   256.74  C  5739.04    256.74   5741.07    254.71   5741.07    252.21  " /><text style="font-size:6px;font-family:'NSimSun';" transform="matrix(&st16;  5761.84  254.18 )">7</text><text style="font-size:6px;font-family:'NSimSun';" transform="matrix(&st16;  5768.35  254.18 )">B</text><path style="stroke-width: 1.42 ;&st7;   " d=" M  5775.07,   252.21  C  5775.07    249.71   5773.04    247.68   5770.54    247.68  " /><path style="stroke-width: 1.42 ;&st7;   " d=" M  5770.54,   247.68  C  5768.03    247.68   5766.00    249.71   5766.00    252.21  " /><path style="stroke-width: 1.42 ;&st7;   " d=" M  5766.00,   252.21  C  5766.00    254.71   5768.03    256.74   5770.54    256.74  " /><path style="stroke-width: 1.42 ;&st7;   " d=" M  5770.54,   256.74  C  5773.04    256.74   5775.07    254.71   5775.07    252.21  " /><text style="font-size:6px;font-family:'NSimSun';" transform="matrix(&st16;  5860.72  501.2 )">31</text><text style="font-size:6px;font-family:'NSimSun';" transform="matrix(&st16;  5870.21  501.2 )">A</text><path style="stroke-width: 1.42 ;&st7;   " d=" M  5877.05,   499.24  C  5877.05    496.73   5875.02    494.70   5872.52    494.70  " /><path style="stroke-width: 1.42 ;&st7;   " d=" M  5872.52,   494.70  C  5870.02    494.70   5867.99    496.73   5867.99    499.24  " /><path style="stroke-width: 1.42 ;&st7;   " d=" M  5867.99,   499.24  C  5867.99    501.74   5870.02    503.77   5872.52    503.77  " /><path style="stroke-width: 1.42 ;&st7;   " d=" M  5872.52,   503.77  C  5875.02    503.77   5877.05    501.74   5877.05    499.24  " /><text style="font-size:6px;font-family:'NSimSun';" transform="matrix(&st16;  5880.82  254.18 )">1</text><text style="font-size:6px;font-family:'NSimSun';" transform="matrix(&st16;  5887.33  254.18 )">B</text><path style="stroke-width: 1.42 ;&st7;   " d=" M  5894.05,   252.21  C  5894.05    249.71   5892.02    247.68   5889.52    247.68  " /><path style="stroke-width: 1.42 ;&st7;   " d=" M  5889.52,   247.68  C  5887.01    247.68   5884.98    249.71   5884.98    252.21  " /><path style="stroke-width: 1.42 ;&st7;   " d=" M  5884.98,   252.21  C  5884.98    254.71   5887.01    256.74   5889.52    256.74  " /><path style="stroke-width: 1.42 ;&st7;   " d=" M  5889.52,   256.74  C  5892.02    256.74   5894.05    254.71   5894.05    252.21  " /><text style="font-size:6px;font-family:'NSimSun';" transform="matrix(&st16;  5894.72  501.2 )">32</text><path style="stroke-width: 1.42 ;&st7;   " d=" M  5911.05,   499.24  C  5911.05    496.73   5909.02    494.70   5906.51    494.70  " /><path style="stroke-width: 1.42 ;&st7;   " d=" M  5906.51,   494.70  C  5904.01    494.70   5901.98    496.73   5901.98    499.24  " /><path style="stroke-width: 1.42 ;&st7;   " d=" M  5901.98,   499.24  C  5901.98    501.74   5904.01    503.77   5906.51    503.77  " /><path style="stroke-width: 1.42 ;&st7;   " d=" M  5906.51,   503.77  C  5909.02    503.77   5911.05    501.74   5911.05    499.24  " /><text style="font-size:6px;font-family:'NSimSun';" transform="matrix(&st16;  5904.21  501.2 )">A</text><text style="font-size:6px;font-family:'NSimSun';" transform="matrix(&st16;  5962.71  254.18 )">40</text><text style="font-size:6px;font-family:'NSimSun';" transform="matrix(&st16;  5972.2  254.18 )">A</text><path style="stroke-width: 1.42 ;&st7;   " d=" M  5979.03,   252.21  C  5979.03    249.71   5977.00    247.68   5974.50    247.68  " /><path style="stroke-width: 1.42 ;&st7;   " d=" M  5974.50,   247.68  C  5972.00    247.68   5969.97    249.71   5969.97    252.21  " /><path style="stroke-width: 1.42 ;&st7;   " d=" M  5969.97,   252.21  C  5969.97    254.71   5972.00    256.74   5974.50    256.74  " /><path style="stroke-width: 1.42 ;&st7;   " d=" M  5974.50,   256.74  C  5977.00    256.74   5979.03    254.71   5979.03    252.21  " /><text style="font-size:6px;font-family:'NSimSun';" transform="matrix(&st16;  6030.69  254.18 )">39</text><text style="font-size:6px;font-family:'NSimSun';" transform="matrix(&st16;  6040.19  254.18 )">A</text><path style="stroke-width: 1.42 ;&st7;   " d=" M  6047.02,   252.21  C  6047.02    249.71   6044.99    247.68   6042.49    247.68  " /><path style="stroke-width: 1.42 ;&st7;   " d=" M  6042.49,   247.68  C  6039.99    247.68   6037.96    249.71   6037.96    252.21  " /><path style="stroke-width: 1.42 ;&st7;   " d=" M  6037.96,   252.21  C  6037.96    254.71   6039.99    256.74   6042.49    256.74  " /><path style="stroke-width: 1.42 ;&st7;   " d=" M  6042.49,   256.74  C  6044.99    256.74   6047.02    254.71   6047.02    252.21  " /><text style="font-size:6px;font-family:'NSimSun';" transform="matrix(&st16;  6115.68  501.2 )">21</text><text style="font-size:6px;font-family:'NSimSun';" transform="matrix(&st16;  6125.17  501.2 )">A</text><path style="stroke-width: 1.42 ;&st7;   " d=" M  6132.01,   499.24  C  6132.01    496.73   6129.98    494.70   6127.48    494.70  " /><path style="stroke-width: 1.42 ;&st7;   " d=" M  6127.48,   494.70  C  6124.97    494.70   6122.94    496.73   6122.94    499.24  " /><path style="stroke-width: 1.42 ;&st7;   " d=" M  6122.94,   499.24  C  6122.94    501.74   6124.97    503.77   6127.48    503.77  " /><path style="stroke-width: 1.42 ;&st7;   " d=" M  6127.48,   503.77  C  6129.98    503.77   6132.01    501.74   6132.01    499.24  " /><g ewd:figtype="title"><text style="font-size:6px;font-family:'NSimSun';" transform="matrix(&st17;  6203.08  497.6 )">E55(A),E59(B)</text><text style="font-size:6px;font-family:'NSimSun';" transform="matrix(&st17;  6210.18  497.61 )" ewd:textID="13">组合仪表总成</text></g></g><g ewd:figtype="jb" ewd:figID="76" ewd:code="3"><path style="stroke-width: 1.42 ;&st7;  " d=" M  5976.63,   146.26  L  5972.38,   146.26  " /><path style="stroke-width: 1.42 ;&st7;  " d=" M  5976.63,   154.76  L  5972.38,   154.76  " /><path style="stroke-width: 1.42 ;&st7;  " d=" M  5976.63,   188.75  L  5972.38,   188.75  " /><path style="stroke-width: 1.42 ;&st7;  " d=" M  5976.63,   197.25  L  5972.38,   197.25  " /><path style="stroke-width: 1.42 ;&st7;   " d=" M  5980.88,   193.00  C  5980.88    190.66   5978.97    188.75   5976.63    188.75  " /><path style="stroke-width: 1.42 ;&st7;   " d=" M  5976.63,   197.25  C  5978.97    197.25   5980.88    195.35   5980.88    193.00  " /><path style="stroke-width: 1.42 ;&st7;   " d=" M  5968.13,   193.00  C  5968.13    195.35   5970.03    197.25   5972.38    197.25  " /><path style="stroke-width: 1.42 ;&st7;   " d=" M  5972.38,   188.75  C  5970.03    188.75   5968.13    190.66   5968.13    193.00  " /><path style="stroke-width: 1.42 ;&st7;   " d=" M  5980.88,   150.51  C  5980.88    148.16   5978.97    146.26   5976.63    146.26  " /><path style="stroke-width: 1.42 ;&st7;   " d=" M  5976.63,   154.76  C  5978.97    154.76   5980.88    152.86   5980.88    150.51  " /><path style="stroke-width: 1.42 ;&st7;   " d=" M  5968.13,   150.51  C  5968.13    152.86   5970.03    154.76   5972.38    154.76  " /><path style="stroke-width: 1.42 ;&st7;   " d=" M  5972.38,   146.26  C  5970.03    146.26   5968.13    148.16   5968.13    150.51  " /><path style="stroke-width: 0.85 ;&st7;  " d=" M  5974.50,   188.75  L  5974.50,   154.76  " /><path style="stroke-width: 0.28 ;&st9;  " d=" M  5974.50,   183.86  L  5971.67,   181.03  L  5971.67,   185.28  L  5974.50,   188.11  L  5977.33,   185.28  L  5977.33,   181.03  L  5974.50,   183.86  " /><path style="stroke-width: 0.28 ;&st9;  " d=" M  5974.50,   159.65  L  5977.33,   162.49  L  5977.33,   158.24  L  5974.50,   155.41  L  5971.67,   158.24  L  5971.67,   162.49  L  5974.50,   159.65  " /><text style="font-size:6px;font-family:'NSimSun';" transform="matrix(&st16;  5970.65  152.48 )">3A</text><text style="font-size:6px;font-family:'NSimSun';" transform="matrix(&st16;  5960.89  152.48 )">44</text><text style="font-size:6px;font-family:'NSimSun';" transform="matrix(&st16;  5970.57  194.97 )">3D</text><text style="font-size:6px;font-family:'NSimSun';" transform="matrix(&st16;  5960.89  194.97 )">34</text></g><g ewd:figtype="jb" ewd:figID="77" ewd:code="3"><path style="stroke-width: 1.42 ;&st7;  " d=" M  5560.20,   239.75  L  5555.95,   239.75  " /><path style="stroke-width: 1.42 ;&st7;  " d=" M  5560.20,   248.24  L  5555.95,   248.24  " /><path style="stroke-width: 1.42 ;&st7;  " d=" M  5560.20,   205.75  L  5555.95,   205.75  " /><path style="stroke-width: 1.42 ;&st7;  " d=" M  5560.20,   197.25  L  5555.95,   197.25  " /><path style="stroke-width: 1.42 ;&st7;   " d=" M  5555.95,   197.25  C  5553.60    197.25   5551.70    199.15   5551.70    201.50  " /><path style="stroke-width: 1.42 ;&st7;   " d=" M  5551.70,   201.50  C  5551.70    203.85   5553.60    205.75   5555.95    205.75  " /><path style="stroke-width: 1.42 ;&st7;   " d=" M  5560.20,   205.75  C  5562.54    205.75   5564.45    203.85   5564.45    201.50  " /><path style="stroke-width: 1.42 ;&st7;   " d=" M  5564.45,   201.50  C  5564.45    199.15   5562.54    197.25   5560.20    197.25  " /><path style="stroke-width: 1.42 ;&st7;   " d=" M  5564.45,   243.99  C  5564.45    241.65   5562.54    239.75   5560.20    239.75  " /><path style="stroke-width: 1.42 ;&st7;   " d=" M  5560.20,   248.24  C  5562.54    248.24   5564.45    246.34   5564.45    243.99  " /><path style="stroke-width: 1.42 ;&st7;   " d=" M  5551.70,   243.99  C  5551.70    246.34   5553.60    248.24   5555.95    248.24  " /><path style="stroke-width: 1.42 ;&st7;   " d=" M  5555.95,   239.75  C  5553.60    239.75   5551.70    241.65   5551.70    243.99  " /><path style="stroke-width: 0.28 ;&st9;  " d=" M  5558.07,   210.65  L  5560.90,   213.48  L  5560.90,   209.23  L  5558.07,   206.40  L  5555.24,   209.23  L  5555.24,   213.48  L  5558.07,   210.65  " /><path style="stroke-width: 0.28 ;&st9;  " d=" M  5558.07,   234.85  L  5555.24,   232.02  L  5555.24,   236.27  L  5558.07,   239.10  L  5560.90,   236.27  L  5560.90,   232.02  L  5558.07,   234.85  " /><path style="stroke-width: 0.85 ;&st7;  " d=" M  5558.07,   205.75  L  5558.07,   239.75  " /><text style="font-size:6px;font-family:'NSimSun';" transform="matrix(&st16;  5554.14  203.47 )">3D</text><text style="font-size:6px;font-family:'NSimSun';" transform="matrix(&st16;  5544.46  203.47 )">20</text><text style="font-size:6px;font-family:'NSimSun';" transform="matrix(&st16;  5544.46  245.96 )">38</text><text style="font-size:6px;font-family:'NSimSun';" transform="matrix(&st16;  5554.14  245.96 )">3D</text></g><g ewd:figtype="w2w" ewd:figID="119" ewd:code="AE4"><path style="stroke-width: 1.42 ;&st7;  " d=" M  5630.31,   478.27  L  5626.06,   474.02  L  5621.81,   478.27  " /><path style="stroke-width: 1.42 ;&st7;  " d=" M  5630.31,   474.87  L  5626.06,   470.62  L  5621.81,   474.87  " /><text style="font-size:6px;font-family:'NSimSun';" transform="matrix(&st16;  5610.33  466.93 )">17</text></g><g ewd:figtype="w2w" ewd:figID="120" ewd:code="AE3"><path style="stroke-width: 1.42 ;&st7;  " d=" M  5893.76,   180.82  L  5889.51,   176.57  L  5885.26,   180.82  " /><path style="stroke-width: 1.42 ;&st7;  " d=" M  5893.76,   177.42  L  5889.51,   173.17  L  5885.26,   177.42  " /><text style="font-size:6px;font-family:'NSimSun';" transform="matrix(&st16;  5876.88  169.48 )">2</text></g><g ewd:figtype="annex" ewd:figID="64" ewd:code=" "><path style="stroke-width: 0.85 ;&st7;  " d=" M  5774.78,   193.00  L  5770.53,   188.75  L  5755.66,   188.75  L  5753.54,   184.50  L  5751.41,   188.75  L  5736.54,   188.75  L  5732.29,   193.00  " /><path style="stroke-width: 1.42 ;&st7;  " d=" M  5736.54,   197.25  L  5731.48,   208.61  " /><path style="stroke-width: 1.42 ;&st7;  " d=" M  5770.54,   197.25  L  5775.60,   208.61  " /><path style="stroke-width: 1.42 ;&st7;  " d=" M  5770.54,   197.25  L  5765.48,   208.61  " /><path style="stroke-width: 1.42 ;&st7;  " d=" M  5736.54,   197.25  L  5741.60,   208.61  " /><text style="font-size:6px;font-family:'NSimSun';" transform="matrix(&st17;  5749.56  181.75 )" ewd:textID="27">大灯总成</text><text style="font-size:6px;font-family:'NSimSun';" transform="matrix(&st17;  5755.51  181.75 )" ewd:textID="49">后组合灯总成</text><text style="font-size:6px;font-family:'NSimSun';" transform="matrix(&st17;  5761.46  181.75 )" ewd:textID="47">车外后视镜总成</text></g></svg>