<?xml version="1.0" encoding="utf-8"?>
<!DOCTYPE svg PUBLIC "-//W3C//DTD SVG 1.0//EN" "http://www.w3.org/TR/2001/REC-SVG-20010904/DTD/svg10.dtd"[
	<!ENTITY ns_flows "http://ns.adobe.com/Flows/1.0/">
	<!ENTITY ns_svg "http://www.w3.org/2000/svg">
	<!ENTITY ns_xlink "http://www.w3.org/1999/xlink">
	<!ENTITY st0 "font-size:7px;font-family:'NSimSun';adobe-font-script:japanese;">
	<!ENTITY st1 "font-size:6px;font-family:'NSimSun';">
	<!-- White fill  -->
	<!ENTITY st2 "fill:#FFFFFF;stroke:#000000; stroke-width:1.41;stroke-linecap:round;stroke-linejoin:round;">
	<!-- Yellow fill  -->
	<!ENTITY st3 "fill:#FFFFCC;stroke:#FFFFCC; stroke-width:0.1;stroke-linecap:round;stroke-linejoin:round;">
	<!-- Gray fill  -->
	<!ENTITY st4 "fill:#CCCCCC;stroke:#CCCCCC; stroke-width:0.1;stroke-linecap:round;stroke-linejoin:round;">
	<!-- Light-blue fill -->
	<!ENTITY st5 "fill:#CCECF4;stroke:#000000; stroke-width:1.133;stroke-linecap:round;stroke-linejoin:round;">
	<!ENTITY st6 "fill:none;stroke-linecap:butt; stroke-linejoin:round;">
	<!ENTITY st7 "fill:none;stroke:#000000;stroke-linecap:round;stroke-linejoin:round;">
	<!ENTITY st8 "enable-background:new    ;">
	<!-- Black fill -->
	<!ENTITY st9 "fill:#000000;stroke:#000000; stroke-linecap:round;stroke-linejoin:round;">
	<!-- SRS note   -->
	<!ENTITY st10 "font-size:9px;font-family:'NSimSun';">
	<!ENTITY st11 "font-size:9px;font-family:'NSimSun';">
	<!ENTITY st12 "font-size:6px;font-family:'NSimSun';">
	<!ENTITY st13 "fill:none;stroke:#ff0000;stroke-linecap:round;stroke-linejoin:round;">
	<!-- Yellow fill  -->
	<!ENTITY st14 "fill:#FFFF00;stroke:#FFFF00; stroke-width:0.1;stroke-linecap:round;stroke-linejoin:round;">
	<!ENTITY st15 "font-size:6px;font-family:'NSimSun';adobe-font-script:japanese;">
	<!ENTITY st16 "1.00 0.00 0.00 1.00">
	<!ENTITY st17 "0.00 -1.00 1.00 0.00">
	<!ENTITY st18 "font-size:6px;font-family:'NSimSun';">
	<!ENTITY st19 "font-size:9px;font-family:'NSimSun';">
	<!ENTITY st20 "font-size:6px;font-family:'NSimSun';adobe-font-script:japanese;">
	<!ENTITY st21 "font-size:7px;font-family:'NSimSun';adobe-font-script:japanese;">
	<!ATTLIST svg
		xmlns:ewd CDATA #FIXED "http://shcl.co.jp/ewd"
		xmlns:a CDATA #FIXED "http://ns.adobe.com/AdobeSVGViewerExtensions/3.0/"
		ewd:ver CDATA #IMPLIED
	>
	<!ATTLIST a
		ewd:lineID CDATA #IMPLIED
		ewd:groupID CDATA #IMPLIED
		ewd:figtype CDATA #IMPLIED
		ewd:code CDATA #IMPLIED
		ewd:figID CDATA #IMPLIED
		ewd:pinNo CDATA #IMPLIED
		ewd:comment CDATA #IMPLIED >
	<!ATTLIST g
		ewd:lineID CDATA #IMPLIED
		ewd:groupID CDATA #IMPLIED
		ewd:figtype CDATA #IMPLIED
		ewd:code CDATA #IMPLIED
		ewd:figID CDATA #IMPLIED
		ewd:pinNo CDATA #IMPLIED
		ewd:comment CDATA #IMPLIED >
	<!ATTLIST text
		ewd:textID CDATA #IMPLIED
		ewd:horAlign CDATA #IMPLIED >
	<!ATTLIST title
		ewd:textID CDATA #IMPLIED >
]>
<!-- Generator: Shintec Hozumi YS   -->
<svg onload="call_execInitLoadProc_svg('system')" style="overflow:visible;  enable-background:new 0 0 8796.739 710.000" viewBox="0 0 8804.534 710.000" height="710.000" width="8804.534" xml:space="preserve" ewd:ver="2.1.2.6F" xmlns="&ns_svg;" xmlns:ewd="http://shcl.co.jp/ewd" xmlns:a="http://ns.adobe.com/AdobeSVGViewerExtensions/3.0/" xmlns:xlink="&ns_xlink;">
<text style="font-size:6px;font-family:'NSimSun';" transform="matrix(&st16;  1058.04  626.98 )">LG</text><text style="font-size:6px;font-family:'NSimSun';" transform="matrix(&st16;  1007.05  626.98 )">LG</text><text style="font-size:6px;font-family:'NSimSun';" transform="matrix(&st16;  1059.36  575.99 )">W</text><text style="font-size:6px;font-family:'NSimSun';" transform="matrix(&st16;  1008.37  575.99 )">W</text><text style="font-size:6px;font-family:'NSimSun';" transform="matrix(&st17;  1177.61  275.31 )">L</text><text style="font-size:6px;font-family:'NSimSun';" transform="matrix(&st17;  1177.61  139.33 )">L</text><text style="font-size:6px;font-family:'NSimSun';" transform="matrix(&st17;  1466.56  190.33 )">L</text><text style="font-size:6px;font-family:'NSimSun';" transform="matrix(&st17;  1466.56  130.84 )">L</text><text style="font-size:6px;font-family:'NSimSun';" transform="matrix(&st17;  1313.58  139.72 )">G</text><text style="font-size:6px;font-family:'NSimSun';" transform="matrix(&st17;  1381.57  141.55 )">LG</text><text style="font-size:6px;font-family:'NSimSun';" transform="matrix(&st17;  1109.62  140.23 )">W</text><text style="font-size:6px;font-family:'NSimSun';" transform="matrix(&st17;  1109.62  276.2 )">W</text><text style="font-size:6px;font-family:'NSimSun';" transform="matrix(&st16;  1003.06  587.32 )">(CVT)</text><text style="font-size:6px;font-family:'NSimSun';" transform="matrix(&st16;  1054.05  587.32 )">(CVT)</text><text style="font-size:6px;font-family:'NSimSun';" transform="matrix(&st16;  1059.36  601.49 )">W</text><text style="font-size:6px;font-family:'NSimSun';" transform="matrix(&st16;  1008.37  601.49 )">W</text><text style="font-size:6px;font-family:'NSimSun';" transform="matrix(&st16;  1003.25  612.82 )">(M/T)</text><text style="font-size:6px;font-family:'NSimSun';" transform="matrix(&st16;  1054.24  612.82 )">(M/T)</text><text style="font-size:6px;font-family:'NSimSun';" transform="matrix(&st17;  1245.6  141.58 )">GR</text><path style="stroke-width: 1.42 ;&st7;  " d=" M  1189.80,   180.26  L  1181.30,   180.26  " /><path style="stroke-width: 1.42 ;&st7;  " d=" M  1461.76,   154.76  L  1470.25,   154.76  " /><text style="font-size:6px;font-family:'NSimSun';" transform="matrix(&st16;  1060.25  474.01 )">L</text><text style="font-size:6px;font-family:'NSimSun';" transform="matrix(&st16;  1009.26  474.01 )">L</text><text style="font-size:6px;font-family:'NSimSun';" transform="matrix(&st16;  1058.04  499.5 )">LG</text><text style="font-size:6px;font-family:'NSimSun';" transform="matrix(&st16;  1007.05  499.5 )">LG</text><text style="font-size:6px;font-family:'NSimSun';" transform="matrix(&st16;  1009.34  525.0 )">P</text><text style="font-size:6px;font-family:'NSimSun';" transform="matrix(&st16;  1060.33  525.0 )">P</text><g ewd:figtype="rb" ewd:figID="15" ewd:code="FUSE6"><text style="font-size:6px;font-family:'NSimSun';" transform="matrix(&st16;  1105.27  32.08 )">(BAT)</text><text style="font-size:6px;font-family:'NSimSun';" transform="matrix(&st16;  1107.13  86.47 )">2</text><text style="font-size:6px;font-family:'NSimSun';" transform="matrix(&st16;  1111.51  101.49 )">1</text><text style="font-size:6px;font-family:'NSimSun';" transform="matrix(&st16;  1129.74  53.34 )">10A <tspan x="0 " dy="6.0">ECU-B </tspan><tspan x="0 " dy="6.0">NO.2</tspan></text><path style="stroke-width: 0.28 ;&st9;  " d=" M  1113.31,    90.37  L  1110.48,    87.54  L  1110.48,    91.79  L  1113.31,    94.62  L  1116.15,    91.79  L  1116.15,    87.54  L  1113.31,    90.37  " /><path style="stroke-width: 1.42 ;&st7;   " d=" M  1115.44,   103.77  C  1117.79    103.77   1119.69    101.87   1119.69     99.52  " /><path style="stroke-width: 1.42 ;&st7;   " d=" M  1106.94,    99.52  C  1106.94    101.87   1108.84    103.77   1111.19    103.77  " /><path style="stroke-width: 1.42 ;&st7;   " d=" M  1119.69,    99.52  C  1119.69     97.17   1117.79     95.27   1115.44     95.27  " /><path style="stroke-width: 1.42 ;&st7;   " d=" M  1111.19,    95.27  C  1108.84     95.27   1106.94     97.17   1106.94     99.52  " /><path style="stroke-width: 1.42 ;&st7;  " d=" M  1115.44,   103.77  L  1111.19,   103.77  " /><path style="stroke-width: 1.42 ;&st7;  " d=" M  1115.44,    95.27  L  1111.19,    95.27  " /><path style="stroke-width: 0.85 ;&st7;  " d=" M  1113.31,    69.77  L  1113.31,    95.27  " /><path style="stroke-width: 1.42 ;&st7;  " d=" M  1100.57,    35.78  L  1100.57,    78.27  L  1126.06,    78.27  L  1126.06,    35.78  L  1100.57,    35.78  " /><path style="stroke-width: 0.85 ;&st7;   " d=" M  1114.73,    68.36  C  1114.73     67.57   1114.10     66.94   1113.31     66.94  " /><path style="stroke-width: 0.85 ;&st7;   " d=" M  1113.31,    66.94  C  1112.53     66.94   1111.90     67.57   1111.90     68.36  " /><path style="stroke-width: 0.85 ;&st7;   " d=" M  1111.90,    68.36  C  1111.90     69.14   1112.53     69.77   1113.31     69.77  " /><path style="stroke-width: 0.85 ;&st7;   " d=" M  1113.31,    69.77  C  1114.10     69.77   1114.73     69.14   1114.73     68.36  " /><path style="stroke-width: 0.85 ;&st7;   " d=" M  1114.73,    45.69  C  1114.73     44.91   1114.10     44.28   1113.31     44.28  " /><path style="stroke-width: 0.85 ;&st7;   " d=" M  1113.31,    44.28  C  1112.53     44.28   1111.90     44.91   1111.90     45.69  " /><path style="stroke-width: 0.85 ;&st7;   " d=" M  1111.90,    45.69  C  1111.90     46.48   1112.53     47.11   1113.31     47.11  " /><path style="stroke-width: 0.85 ;&st7;   " d=" M  1113.31,    47.11  C  1114.10     47.11   1114.73     46.48   1114.73     45.69  " /><path style="stroke-width: 1.42 ;&st7;   " d=" M  1113.31,    66.94  C  1116.05     65.33   1116.96     61.80   1115.35     59.06  " /><path style="stroke-width: 1.42 ;&st7;   " d=" M  1115.35,    59.06  C  1114.83     58.18   1114.20     57.55   1113.31     57.03  " /><path style="stroke-width: 1.42 ;&st7;   " d=" M  1113.31,    47.11  C  1110.58     48.72   1109.66     52.25   1111.28     54.99  " /><path style="stroke-width: 1.42 ;&st7;   " d=" M  1111.28,    54.99  C  1111.80     55.87   1112.43     56.51   1113.31     57.03  " /></g><g ewd:figtype="rb" ewd:figID="16" ewd:code="FUSE21"><text style="font-size:6px;font-family:'NSimSun';" transform="matrix(&st16;  1173.26  32.08 )">(BAT)</text><text style="font-size:6px;font-family:'NSimSun';" transform="matrix(&st16;  1175.12  86.47 )">2</text><text style="font-size:6px;font-family:'NSimSun';" transform="matrix(&st16;  1179.5  101.49 )">1</text><text style="font-size:6px;font-family:'NSimSun';" transform="matrix(&st16;  1197.73  53.34 )">20A <tspan x="0 " dy="6.0">STRG </tspan><tspan x="0 " dy="6.0">LOCK</tspan></text><path style="stroke-width: 0.28 ;&st9;  " d=" M  1181.30,    90.37  L  1178.47,    87.54  L  1178.47,    91.79  L  1181.30,    94.62  L  1184.13,    91.79  L  1184.13,    87.54  L  1181.30,    90.37  " /><path style="stroke-width: 1.42 ;&st7;   " d=" M  1187.68,    99.52  C  1187.68     97.17   1185.77     95.27   1183.43     95.27  " /><path style="stroke-width: 1.42 ;&st7;   " d=" M  1183.43,   103.77  C  1185.77    103.77   1187.68    101.87   1187.68     99.52  " /><path style="stroke-width: 1.42 ;&st7;   " d=" M  1174.93,    99.52  C  1174.93    101.87   1176.83    103.77   1179.18    103.77  " /><path style="stroke-width: 1.42 ;&st7;   " d=" M  1179.18,    95.27  C  1176.83     95.27   1174.93     97.17   1174.93     99.52  " /><path style="stroke-width: 1.42 ;&st7;  " d=" M  1183.43,   103.77  L  1179.18,   103.77  " /><path style="stroke-width: 1.42 ;&st7;  " d=" M  1183.43,    95.27  L  1179.18,    95.27  " /><path style="stroke-width: 0.85 ;&st7;  " d=" M  1181.30,    69.77  L  1181.30,    95.27  " /><path style="stroke-width: 1.42 ;&st7;  " d=" M  1168.55,    35.78  L  1168.55,    78.27  L  1194.05,    78.27  L  1194.05,    35.78  L  1168.55,    35.78  " /><path style="stroke-width: 0.85 ;&st7;   " d=" M  1182.72,    68.36  C  1182.72     67.57   1182.08     66.94   1181.30     66.94  " /><path style="stroke-width: 0.85 ;&st7;   " d=" M  1181.30,    66.94  C  1180.52     66.94   1179.89     67.57   1179.89     68.36  " /><path style="stroke-width: 0.85 ;&st7;   " d=" M  1179.89,    68.36  C  1179.89     69.14   1180.52     69.77   1181.30     69.77  " /><path style="stroke-width: 0.85 ;&st7;   " d=" M  1181.30,    69.77  C  1182.08     69.77   1182.72     69.14   1182.72     68.36  " /><path style="stroke-width: 0.85 ;&st7;   " d=" M  1182.72,    45.69  C  1182.72     44.91   1182.08     44.28   1181.30     44.28  " /><path style="stroke-width: 0.85 ;&st7;   " d=" M  1181.30,    44.28  C  1180.52     44.28   1179.89     44.91   1179.89     45.69  " /><path style="stroke-width: 0.85 ;&st7;   " d=" M  1179.89,    45.69  C  1179.89     46.48   1180.52     47.11   1181.30     47.11  " /><path style="stroke-width: 0.85 ;&st7;   " d=" M  1181.30,    47.11  C  1182.08     47.11   1182.72     46.48   1182.72     45.69  " /><path style="stroke-width: 1.42 ;&st7;   " d=" M  1181.30,    66.94  C  1184.04     65.33   1184.95     61.80   1183.34     59.06  " /><path style="stroke-width: 1.42 ;&st7;   " d=" M  1183.34,    59.06  C  1182.82     58.18   1182.18     57.55   1181.30     57.03  " /><path style="stroke-width: 1.42 ;&st7;   " d=" M  1181.30,    47.11  C  1178.56     48.72   1177.65     52.25   1179.27     54.99  " /><path style="stroke-width: 1.42 ;&st7;   " d=" M  1179.27,    54.99  C  1179.79     55.87   1180.42     56.51   1181.30     57.03  " /></g><g ewd:figtype="rb" ewd:figID="17" ewd:code="FUSE5"><text style="font-size:6px;font-family:'NSimSun';" transform="matrix(&st16;  1309.24  32.08 )">(BAT)</text><text style="font-size:6px;font-family:'NSimSun';" transform="matrix(&st16;  1311.1  86.47 )">2</text><text style="font-size:6px;font-family:'NSimSun';" transform="matrix(&st16;  1315.48  101.49 )">1</text><text style="font-size:6px;font-family:'NSimSun';" transform="matrix(&st16;  1333.7  53.34 )">10A <tspan x="0 " dy="6.0">ECU-B </tspan><tspan x="0 " dy="6.0">NO.1</tspan></text><path style="stroke-width: 0.28 ;&st9;  " d=" M  1317.28,    90.37  L  1314.45,    87.54  L  1314.45,    91.79  L  1317.28,    94.62  L  1320.11,    91.79  L  1320.11,    87.54  L  1317.28,    90.37  " /><path style="stroke-width: 1.42 ;&st7;   " d=" M  1323.65,    99.52  C  1323.65     97.17   1321.75     95.27   1319.40     95.27  " /><path style="stroke-width: 1.42 ;&st7;   " d=" M  1319.40,   103.77  C  1321.75    103.77   1323.65    101.87   1323.65     99.52  " /><path style="stroke-width: 1.42 ;&st7;   " d=" M  1310.91,    99.52  C  1310.91    101.87   1312.81    103.77   1315.16    103.77  " /><path style="stroke-width: 1.42 ;&st7;   " d=" M  1315.16,    95.27  C  1312.81     95.27   1310.91     97.17   1310.91     99.52  " /><path style="stroke-width: 1.42 ;&st7;  " d=" M  1319.40,   103.77  L  1315.16,   103.77  " /><path style="stroke-width: 0.85 ;&st7;  " d=" M  1317.28,    69.77  L  1317.28,    95.27  " /><path style="stroke-width: 1.42 ;&st7;  " d=" M  1319.40,    95.27  L  1315.16,    95.27  " /><path style="stroke-width: 1.42 ;&st7;  " d=" M  1304.53,    35.78  L  1304.53,    78.27  L  1330.03,    78.27  L  1330.03,    35.78  L  1304.53,    35.78  " /><path style="stroke-width: 0.85 ;&st7;   " d=" M  1318.70,    68.36  C  1318.70     67.57   1318.06     66.94   1317.28     66.94  " /><path style="stroke-width: 0.85 ;&st7;   " d=" M  1317.28,    66.94  C  1316.50     66.94   1315.86     67.57   1315.86     68.36  " /><path style="stroke-width: 0.85 ;&st7;   " d=" M  1315.86,    68.36  C  1315.86     69.14   1316.50     69.77   1317.28     69.77  " /><path style="stroke-width: 0.85 ;&st7;   " d=" M  1317.28,    69.77  C  1318.06     69.77   1318.70     69.14   1318.70     68.36  " /><path style="stroke-width: 0.85 ;&st7;   " d=" M  1318.70,    45.69  C  1318.70     44.91   1318.06     44.28   1317.28     44.28  " /><path style="stroke-width: 0.85 ;&st7;   " d=" M  1317.28,    44.28  C  1316.50     44.28   1315.86     44.91   1315.86     45.69  " /><path style="stroke-width: 0.85 ;&st7;   " d=" M  1315.86,    45.69  C  1315.86     46.48   1316.50     47.11   1317.28     47.11  " /><path style="stroke-width: 0.85 ;&st7;   " d=" M  1317.28,    47.11  C  1318.06     47.11   1318.70     46.48   1318.70     45.69  " /><path style="stroke-width: 1.42 ;&st7;   " d=" M  1317.28,    66.94  C  1320.02     65.33   1320.93     61.80   1319.32     59.06  " /><path style="stroke-width: 1.42 ;&st7;   " d=" M  1319.32,    59.06  C  1318.80     58.18   1318.16     57.55   1317.28     57.03  " /><path style="stroke-width: 1.42 ;&st7;   " d=" M  1317.28,    47.11  C  1314.54     48.72   1313.63     52.25   1315.24     54.99  " /><path style="stroke-width: 1.42 ;&st7;   " d=" M  1315.24,    54.99  C  1315.76     55.87   1316.40     56.51   1317.28     57.03  " /></g><g ewd:figtype="conn" ewd:figID="37" ewd:code="E47,E48,E49"><path style="stroke-width: 1.42 ;&st7;  " d=" M  1368.27,    44.28  L  1368.27,    95.27  L  5575.07,    95.27  L  5575.07,    44.28  L  1368.27,    44.28  " /><g ewd:lineID="29"><text style="font-size:6px;font-family:'NSimSun';" transform="matrix(&st16;  1373.47  101.77 )">10</text><path style="stroke-width: 1.42 ;&st7;   " d=" M  1389.80,    99.80  C  1389.80     97.30   1387.77     95.27   1385.27     95.27  " /><path style="stroke-width: 1.42 ;&st7;   " d=" M  1385.27,    95.27  C  1382.77     95.27   1380.74     97.30   1380.74     99.80  " /><path style="stroke-width: 1.42 ;&st7;   " d=" M  1380.74,    99.80  C  1380.74    102.31   1382.77    104.33   1385.27    104.33  " /><path style="stroke-width: 1.42 ;&st7;   " d=" M  1385.27,   104.33  C  1387.77    104.33   1389.80    102.31   1389.80     99.80  " /><text style="font-size:6px;font-family:'NSimSun';" transform="matrix(&st16;  1382.96  101.77 )">A</text><text style="font-size:6px;font-family:'NSimSun';" transform="matrix(&st16;  1376.84  91.57 )">CUTB</text></g><g ewd:lineID="30"><text style="font-size:6px;font-family:'NSimSun';" transform="matrix(&st16;  1458.46  101.77 )">16</text><text style="font-size:6px;font-family:'NSimSun';" transform="matrix(&st16;  1467.95  101.77 )">A</text><path style="stroke-width: 1.42 ;&st7;   " d=" M  1474.79,    99.80  C  1474.79     97.30   1472.76     95.27   1470.25     95.27  " /><path style="stroke-width: 1.42 ;&st7;   " d=" M  1470.25,    95.27  C  1467.75     95.27   1465.72     97.30   1465.72     99.80  " /><path style="stroke-width: 1.42 ;&st7;   " d=" M  1465.72,    99.80  C  1465.72    102.31   1467.75    104.33   1470.25    104.33  " /><path style="stroke-width: 1.42 ;&st7;   " d=" M  1470.25,   104.33  C  1472.76    104.33   1474.79    102.31   1474.79     99.80  " /><text style="font-size:6px;font-family:'NSimSun';" transform="matrix(&st16;  1466.09  91.57 )">NE</text></g><g ewd:figtype="title"><text style="font-size:6px;font-family:'NSimSun';" transform="matrix(&st16;  1364.86  33.47 )">E47(A),E48(B),E49(C)</text><text style="font-size:6px;font-family:'NSimSun';" transform="matrix(&st16;  1364.87  40.58 )" ewd:textID="11">认证 ECU</text></g></g><g ewd:figtype="jb" ewd:figID="67" ewd:code="3"><path style="stroke-width: 1.42 ;&st7;   " d=" M  1323.65,   227.00  C  1323.65    224.65   1321.75    222.75   1319.40    222.75  " /><text style="font-size:6px;font-family:'NSimSun';" transform="matrix(&st16;  1313.42  186.47 )">3A</text><text style="font-size:6px;font-family:'NSimSun';" transform="matrix(&st16;  1303.67  186.47 )">43</text><text style="font-size:6px;font-family:'NSimSun';" transform="matrix(&st16;  1313.31  228.97 )">3C</text><text style="font-size:6px;font-family:'NSimSun';" transform="matrix(&st16;  1303.67  228.97 )">29</text><path style="stroke-width: 0.28 ;&st9;  " d=" M  1317.28,   193.65  L  1320.11,   196.48  L  1320.11,   192.23  L  1317.28,   189.40  L  1314.45,   192.23  L  1314.45,   196.48  L  1317.28,   193.65  " /><path style="stroke-width: 0.28 ;&st9;  " d=" M  1317.28,   217.85  L  1314.45,   215.02  L  1314.45,   219.27  L  1317.28,   222.10  L  1320.11,   219.27  L  1320.11,   215.02  L  1317.28,   217.85  " /><path style="stroke-width: 0.85 ;&st7;  " d=" M  1317.28,   222.75  L  1317.28,   188.75  " /><path style="stroke-width: 1.42 ;&st7;   " d=" M  1315.16,   180.26  C  1312.81    180.26   1310.91    182.16   1310.91    184.50  " /><path style="stroke-width: 1.42 ;&st7;   " d=" M  1310.91,   184.50  C  1310.91    186.85   1312.81    188.75   1315.16    188.75  " /><path style="stroke-width: 1.42 ;&st7;   " d=" M  1319.40,   188.75  C  1321.75    188.75   1323.65    186.85   1323.65    184.50  " /><path style="stroke-width: 1.42 ;&st7;   " d=" M  1323.65,   184.50  C  1323.65    182.16   1321.75    180.26   1319.40    180.26  " /><path style="stroke-width: 1.42 ;&st7;   " d=" M  1315.16,   222.75  C  1312.81    222.75   1310.91    224.65   1310.91    227.00  " /><path style="stroke-width: 1.42 ;&st7;   " d=" M  1310.91,   227.00  C  1310.91    229.34   1312.81    231.25   1315.16    231.25  " /><path style="stroke-width: 1.42 ;&st7;   " d=" M  1319.40,   231.25  C  1321.75    231.25   1323.65    229.34   1323.65    227.00  " /><path style="stroke-width: 1.42 ;&st7;  " d=" M  1319.40,   180.26  L  1315.16,   180.26  " /><path style="stroke-width: 1.42 ;&st7;  " d=" M  1319.40,   188.75  L  1315.16,   188.75  " /><path style="stroke-width: 1.42 ;&st7;  " d=" M  1319.40,   222.75  L  1315.16,   222.75  " /><path style="stroke-width: 1.42 ;&st7;  " d=" M  1319.40,   231.25  L  1315.16,   231.25  " /></g><g ewd:figtype="jb" ewd:figID="68" ewd:code="3"><text style="font-size:6px;font-family:'NSimSun';" transform="matrix(&st16;  1244.08  32.08 )">(IG)</text><text style="font-size:6px;font-family:'NSimSun';" transform="matrix(&st16;  1265.72  56.17 )">7.5A <tspan x="0 " dy="6.0">IGN</tspan></text><text style="font-size:6px;font-family:'NSimSun';" transform="matrix(&st16;  1245.32  101.49 )">3C</text><text style="font-size:6px;font-family:'NSimSun';" transform="matrix(&st16;  1235.68  101.49 )">20</text><text style="font-size:6px;font-family:'NSimSun';" transform="matrix(&st16;  1243.11  86.47 )">2</text><path style="stroke-width: 0.28 ;&st9;  " d=" M  1249.29,    90.37  L  1246.46,    87.54  L  1246.46,    91.79  L  1249.29,    94.62  L  1252.12,    91.79  L  1252.12,    87.54  L  1249.29,    90.37  " /><path style="stroke-width: 1.42 ;&st7;  " d=" M  1236.54,    35.78  L  1236.54,    78.27  L  1262.04,    78.27  L  1262.04,    35.78  L  1236.54,    35.78  " /><path style="stroke-width: 1.42 ;&st7;   " d=" M  1249.29,    47.11  C  1246.55     48.72   1245.64     52.25   1247.25     54.99  " /><path style="stroke-width: 1.42 ;&st7;   " d=" M  1247.25,    54.99  C  1247.77     55.87   1248.41     56.51   1249.29     57.03  " /><path style="stroke-width: 1.42 ;&st7;   " d=" M  1249.29,    66.94  C  1252.03     65.33   1252.94     61.80   1251.33     59.06  " /><path style="stroke-width: 1.42 ;&st7;   " d=" M  1251.33,    59.06  C  1250.81     58.18   1250.17     57.55   1249.29     57.03  " /><path style="stroke-width: 0.85 ;&st7;   " d=" M  1250.71,    45.69  C  1250.71     44.91   1250.07     44.28   1249.29     44.28  " /><path style="stroke-width: 0.85 ;&st7;   " d=" M  1249.29,    44.28  C  1248.51     44.28   1247.87     44.91   1247.87     45.69  " /><path style="stroke-width: 0.85 ;&st7;   " d=" M  1247.87,    45.69  C  1247.87     46.48   1248.51     47.11   1249.29     47.11  " /><path style="stroke-width: 0.85 ;&st7;   " d=" M  1249.29,    47.11  C  1250.07     47.11   1250.71     46.48   1250.71     45.69  " /><path style="stroke-width: 0.85 ;&st7;   " d=" M  1250.71,    68.36  C  1250.71     67.57   1250.07     66.94   1249.29     66.94  " /><path style="stroke-width: 0.85 ;&st7;   " d=" M  1249.29,    66.94  C  1248.51     66.94   1247.87     67.57   1247.87     68.36  " /><path style="stroke-width: 0.85 ;&st7;   " d=" M  1247.87,    68.36  C  1247.87     69.14   1248.51     69.77   1249.29     69.77  " /><path style="stroke-width: 0.85 ;&st7;   " d=" M  1249.29,    69.77  C  1250.07     69.77   1250.71     69.14   1250.71     68.36  " /><path style="stroke-width: 1.42 ;&st7;   " d=" M  1247.17,    95.27  C  1244.82     95.27   1242.92     97.17   1242.92     99.52  " /><path style="stroke-width: 1.42 ;&st7;   " d=" M  1242.92,    99.52  C  1242.92    101.87   1244.82    103.77   1247.17    103.77  " /><path style="stroke-width: 1.42 ;&st7;   " d=" M  1251.42,   103.77  C  1253.76    103.77   1255.67    101.87   1255.67     99.52  " /><path style="stroke-width: 1.42 ;&st7;   " d=" M  1255.67,    99.52  C  1255.67     97.17   1253.76     95.27   1251.42     95.27  " /><path style="stroke-width: 0.85 ;&st7;  " d=" M  1249.29,    69.77  L  1249.29,    95.27  " /><path style="stroke-width: 1.42 ;&st7;  " d=" M  1251.42,    95.27  L  1247.17,    95.27  " /><path style="stroke-width: 1.42 ;&st7;  " d=" M  1251.42,   103.77  L  1247.17,   103.77  " /></g><g ewd:figtype="jb" ewd:figID="69" ewd:code="3"><text style="font-size:6px;font-family:'NSimSun';" transform="matrix(&st16;  1109.46  194.97 )">3A</text><text style="font-size:6px;font-family:'NSimSun';" transform="matrix(&st16;  1099.71  194.97 )">44</text><text style="font-size:6px;font-family:'NSimSun';" transform="matrix(&st16;  1109.38  237.47 )">3D</text><text style="font-size:6px;font-family:'NSimSun';" transform="matrix(&st16;  1099.71  237.47 )">33</text><path style="stroke-width: 0.28 ;&st9;  " d=" M  1113.31,   202.15  L  1116.15,   204.98  L  1116.15,   200.73  L  1113.31,   197.90  L  1110.48,   200.73  L  1110.48,   204.98  L  1113.31,   202.15  " /><path style="stroke-width: 0.28 ;&st9;  " d=" M  1113.31,   226.35  L  1110.48,   223.52  L  1110.48,   227.77  L  1113.31,   230.60  L  1116.15,   227.77  L  1116.15,   223.52  L  1113.31,   226.35  " /><path style="stroke-width: 0.85 ;&st7;  " d=" M  1113.31,   231.25  L  1113.31,   197.25  " /><path style="stroke-width: 1.42 ;&st7;   " d=" M  1111.19,   188.75  C  1108.84    188.75   1106.94    190.66   1106.94    193.00  " /><path style="stroke-width: 1.42 ;&st7;   " d=" M  1106.94,   193.00  C  1106.94    195.35   1108.84    197.25   1111.19    197.25  " /><path style="stroke-width: 1.42 ;&st7;   " d=" M  1115.44,   197.25  C  1117.79    197.25   1119.69    195.35   1119.69    193.00  " /><path style="stroke-width: 1.42 ;&st7;   " d=" M  1119.69,   193.00  C  1119.69    190.66   1117.79    188.75   1115.44    188.75  " /><path style="stroke-width: 1.42 ;&st7;   " d=" M  1111.19,   231.25  C  1108.84    231.25   1106.94    233.15   1106.94    235.50  " /><path style="stroke-width: 1.42 ;&st7;   " d=" M  1106.94,   235.50  C  1106.94    237.84   1108.84    239.75   1111.19    239.75  " /><path style="stroke-width: 1.42 ;&st7;   " d=" M  1115.44,   239.75  C  1117.79    239.75   1119.69    237.84   1119.69    235.50  " /><path style="stroke-width: 1.42 ;&st7;   " d=" M  1119.69,   235.50  C  1119.69    233.15   1117.79    231.25   1115.44    231.25  " /><path style="stroke-width: 1.42 ;&st7;  " d=" M  1115.44,   188.75  L  1111.19,   188.75  " /><path style="stroke-width: 1.42 ;&st7;  " d=" M  1115.44,   197.25  L  1111.19,   197.25  " /><path style="stroke-width: 1.42 ;&st7;  " d=" M  1115.44,   231.25  L  1111.19,   231.25  " /><path style="stroke-width: 1.42 ;&st7;  " d=" M  1115.44,   239.75  L  1111.19,   239.75  " /></g><g ewd:figtype="w2w" ewd:figID="87" ewd:code="AE4"><text style="font-size:6px;font-family:'NSimSun';" transform="matrix(&st16;  1165.57  177.98 )">20</text><path style="stroke-width: 1.42 ;&st7;  " d=" M  1185.55,   185.92  L  1181.30,   181.67  L  1177.05,   185.92  " /><path style="stroke-width: 1.42 ;&st7;  " d=" M  1185.55,   189.32  L  1181.30,   185.07  L  1177.05,   189.32  " /></g><g ewd:figtype="w2w" ewd:figID="88" ewd:code="AE8"><text style="font-size:6px;font-family:'NSimSun';" transform="matrix(&st16;  1457.62  160.98 )">8</text><path style="stroke-width: 1.42 ;&st7;  " d=" M  1474.50,   149.09  L  1470.25,   153.34  L  1466.00,   149.09  " /><path style="stroke-width: 1.42 ;&st7;  " d=" M  1466.00,   145.69  L  1470.25,   149.94  L  1474.50,   145.69  " /></g></svg>