<?xml version="1.0" encoding="utf-8"?>
<!DOCTYPE svg PUBLIC "-//W3C//DTD SVG 1.0//EN" "http://www.w3.org/TR/2001/REC-SVG-20010904/DTD/svg10.dtd"[
	<!ENTITY ns_flows "http://ns.adobe.com/Flows/1.0/">
	<!ENTITY ns_svg "http://www.w3.org/2000/svg">
	<!ENTITY ns_xlink "http://www.w3.org/1999/xlink">
	<!ENTITY st0 "font-size:7px;font-family:'NSimSun';adobe-font-script:japanese;">
	<!ENTITY st1 "font-size:6px;font-family:'NSimSun';">
	<!-- White fill  -->
	<!ENTITY st2 "fill:#FFFFFF;stroke:#000000; stroke-width:1.41;stroke-linecap:round;stroke-linejoin:round;">
	<!-- Yellow fill  -->
	<!ENTITY st3 "fill:#FFFFCC;stroke:#FFFFCC; stroke-width:0.1;stroke-linecap:round;stroke-linejoin:round;">
	<!-- Gray fill  -->
	<!ENTITY st4 "fill:#CCCCCC;stroke:#CCCCCC; stroke-width:0.1;stroke-linecap:round;stroke-linejoin:round;">
	<!-- Light-blue fill -->
	<!ENTITY st5 "fill:#CCECF4;stroke:#000000; stroke-width:1.133;stroke-linecap:round;stroke-linejoin:round;">
	<!ENTITY st6 "fill:none;stroke-linecap:butt; stroke-linejoin:round;">
	<!ENTITY st7 "fill:none;stroke:#000000;stroke-linecap:round;stroke-linejoin:round;">
	<!ENTITY st8 "enable-background:new    ;">
	<!-- Black fill -->
	<!ENTITY st9 "fill:#000000;stroke:#000000; stroke-linecap:round;stroke-linejoin:round;">
	<!-- SRS note   -->
	<!ENTITY st10 "font-size:9px;font-family:'NSimSun';">
	<!ENTITY st11 "font-size:9px;font-family:'NSimSun';">
	<!ENTITY st12 "font-size:6px;font-family:'NSimSun';">
	<!ENTITY st13 "fill:none;stroke:#ff0000;stroke-linecap:round;stroke-linejoin:round;">
	<!-- Yellow fill  -->
	<!ENTITY st14 "fill:#FFFF00;stroke:#FFFF00; stroke-width:0.1;stroke-linecap:round;stroke-linejoin:round;">
	<!ENTITY st15 "font-size:6px;font-family:'NSimSun';adobe-font-script:japanese;">
	<!ENTITY st16 "1.00 0.00 0.00 1.00">
	<!ENTITY st17 "0.00 -1.00 1.00 0.00">
	<!ENTITY st18 "font-size:6px;font-family:'NSimSun';">
	<!ENTITY st19 "font-size:9px;font-family:'NSimSun';">
	<!ENTITY st20 "font-size:6px;font-family:'NSimSun';adobe-font-script:japanese;">
	<!ENTITY st21 "font-size:7px;font-family:'NSimSun';adobe-font-script:japanese;">
	<!ATTLIST svg
		xmlns:ewd CDATA #FIXED "http://shcl.co.jp/ewd"
		xmlns:a CDATA #FIXED "http://ns.adobe.com/AdobeSVGViewerExtensions/3.0/"
		ewd:ver CDATA #IMPLIED
	>
	<!ATTLIST a
		ewd:lineID CDATA #IMPLIED
		ewd:groupID CDATA #IMPLIED
		ewd:figtype CDATA #IMPLIED
		ewd:code CDATA #IMPLIED
		ewd:figID CDATA #IMPLIED
		ewd:pinNo CDATA #IMPLIED
		ewd:comment CDATA #IMPLIED >
	<!ATTLIST g
		ewd:lineID CDATA #IMPLIED
		ewd:groupID CDATA #IMPLIED
		ewd:figtype CDATA #IMPLIED
		ewd:code CDATA #IMPLIED
		ewd:figID CDATA #IMPLIED
		ewd:pinNo CDATA #IMPLIED
		ewd:comment CDATA #IMPLIED >
	<!ATTLIST text
		ewd:textID CDATA #IMPLIED
		ewd:horAlign CDATA #IMPLIED >
	<!ATTLIST title
		ewd:textID CDATA #IMPLIED >
]>
<!-- Generator: Shintec Hozumi YS   -->
<svg onload="call_execInitLoadProc_svg('system')" style="overflow:visible;  enable-background:new 0 0 8796.739 710.000" viewBox="0 0 8804.534 710.000" height="710.000" width="8804.534" xml:space="preserve" ewd:ver="2.1.2.6F" xmlns="&ns_svg;" xmlns:ewd="http://shcl.co.jp/ewd" xmlns:a="http://ns.adobe.com/AdobeSVGViewerExtensions/3.0/" xmlns:xlink="&ns_xlink;">
<text style="font-size:6px;font-family:'NSimSun';" transform="matrix(&st17;  4730.01  407.17 )">W-B</text><text style="font-size:6px;font-family:'NSimSun';" transform="matrix(&st17;  4730.01  602.64 )">W-B</text><text style="font-size:6px;font-family:'NSimSun';" transform="matrix(&st16;  4883.28  40.58 )" ewd:textID="7">认证 ECU</text><text style="font-size:6px;font-family:'NSimSun';" transform="matrix(&st17;  4730.01  241.55 )">V</text><text style="font-size:6px;font-family:'NSimSun';" transform="matrix(&st17;  4730.01  147.87 )">R</text><text style="font-size:6px;font-family:'NSimSun';" transform="matrix(&st17;  4619.53  147.76 )">P</text><text style="font-size:6px;font-family:'NSimSun';" transform="matrix(&st17;  4568.54  150.04 )">LG</text><text style="font-size:6px;font-family:'NSimSun';" transform="matrix(&st17;  4568.54  243.53 )">LG</text><text style="font-size:6px;font-family:'NSimSun';" transform="matrix(&st17;  4619.53  241.24 )">P</text><text style="font-size:6px;font-family:'NSimSun';" transform="matrix(&st17;  4832.0  147.95 )">Y</text><text style="font-size:6px;font-family:'NSimSun';" transform="matrix(&st17;  4967.97  241.43 )">Y</text><text style="font-size:6px;font-family:'NSimSun';" transform="matrix(&st17;  4925.48  241.55 )">V</text><text style="font-size:6px;font-family:'NSimSun';" transform="matrix(&st17;  4925.48  139.57 )">V</text><text style="font-size:6px;font-family:'NSimSun';" transform="matrix(&st17;  4967.97  139.45 )">Y</text><text style="font-size:6px;font-family:'NSimSun';" transform="matrix(&st16;  4883.27  33.47 )">E47(A),E48(B),E49(C)</text><text style="font-size:6px;font-family:'NSimSun';" transform="matrix(&st17;  4832.0  407.17 )">W-B</text><path style="stroke-width: 1.42 ;&st7;  " d=" M  4742.21,   491.18  L  4737.24,   486.20  " /><path style="stroke-width: 1.42 ;&st7;  " d=" M  4725.21,   498.23  L  4730.18,   503.20  " /><path style="stroke-width: 1.42 ;&st7;  " d=" M  4737.24,   503.20  L  4742.21,   498.23  " /><path style="stroke-width: 1.42 ;&st7;  " d=" M  4730.18,   486.20  L  4725.21,   491.18  " /><path style="stroke-width: 1.42 ;&st7;  " d=" M  4631.73,   197.25  L  4623.23,   197.25  " /><path style="stroke-width: 1.42 ;&st7;  " d=" M  4580.73,   197.25  L  4572.24,   197.25  " /><path style="stroke-width: 1.42 ;&st7;  " d=" M  4937.67,   197.25  L  4929.18,   197.25  " /><path style="stroke-width: 1.42 ;&st7;  " d=" M  4980.17,   197.25  L  4971.67,   197.25  " /><path style="stroke-width: 1.42 ;&st7;  " d=" M  4742.21,   197.25  L  4733.71,   197.25  " /><g ewd:figtype="conn" ewd:figID="1" ewd:code="E61"><text style="font-size:6px;font-family:'NSimSun';" transform="matrix(&st16;  4831.88  298.37 )">LP</text><text style="font-size:6px;font-family:'NSimSun';" transform="matrix(&st16;  4833.58  329.53 )">E</text><text style="font-size:6px;font-family:'NSimSun';" transform="matrix(&st16; 4820.79 314.13)" ewd:textID="51" ewd:horAlign="center">安全指示灯<tspan x="0 " dy="6.0" /></text><path style="stroke-width: 1.42 ;&st7;  " d=" M  4810.19,   290.74  L  4861.19,   290.74  L  4861.19,   333.23  L  4810.19,   333.23  L  4810.19,   290.74  " /><text style="font-size:6px;font-family:'NSimSun';" transform="matrix(&st16;  4829.51  341.42 )">6</text><text style="font-size:6px;font-family:'NSimSun';" transform="matrix(&st16;  4829.51  287.05 )">9</text><g ewd:figtype="title"><text style="font-size:6px;font-family:'NSimSun';" transform="matrix(&st17;  4868.8  336.13 )">E61</text><text style="font-size:6px;font-family:'NSimSun';" transform="matrix(&st17;  4875.91  336.14 )" ewd:textID="57">警告灯总成</text></g></g><g ewd:figtype="conn" ewd:figID="3" ewd:code="L52"><path style="stroke-width: 1.42 ;&st7;  " d=" M  4912.18,   290.74  L  4912.18,   341.73  L  5031.16,   341.73  L  5031.16,   290.74  L  4912.18,   290.74  " /><g ewd:lineID="112"><text style="font-size:6px;font-family:'NSimSun';" transform="matrix(&st16;  4922.99  287.05 )">4</text><text style="font-size:6px;font-family:'NSimSun';" transform="matrix(&st16;  4925.82  298.37 )">+5</text></g><g ewd:lineID="114"><text style="font-size:6px;font-family:'NSimSun';" transform="matrix(&st16;  4965.49  287.05 )">5</text><text style="font-size:6px;font-family:'NSimSun';" transform="matrix(&st16;  4963.24  298.37 )">DATA</text></g><g ewd:figtype="title"><text style="font-size:6px;font-family:'NSimSun';" transform="matrix(&st16;  4908.77  356.45 )" ewd:textID="53">智能车门控制接收器总成<tspan x="0 " dy="6.0" /></text><text style="font-size:6px;font-family:'NSimSun';" transform="matrix(&st16;  4908.77  349.34 )">L52</text></g></g><g ewd:figtype="conn" ewd:figID="4" ewd:code="L39"><text style="font-size:6px;font-family:'NSimSun';" transform="matrix(&st16;  4736.29  298.93 )">UL</text><text style="font-size:6px;font-family:'NSimSun';" transform="matrix(&st16;  4736.29  346.54 )">E</text><path style="stroke-width: 1.42 ;&st7;  " d=" M  4716.71,   290.74  L  4716.71,   350.23  L  4750.70,   350.23  L  4750.70,   290.74  L  4716.71,   290.74  " /><path style="stroke-width: 0.85 ;&st7;   " d=" M  4735.13,   327.56  C  4735.13    326.78   4734.49    326.15   4733.71    326.15  " /><path style="stroke-width: 0.85 ;&st7;   " d=" M  4733.71,   326.15  C  4732.93    326.15   4732.29    326.78   4732.29    327.56  " /><path style="stroke-width: 0.85 ;&st7;   " d=" M  4732.29,   327.56  C  4732.29    328.35   4732.93    328.98   4733.71    328.98  " /><path style="stroke-width: 0.85 ;&st7;   " d=" M  4733.71,   328.98  C  4734.49    328.98   4735.13    328.35   4735.13    327.56  " /><path style="stroke-width: 0.85 ;&st7;   " d=" M  4735.13,   304.90  C  4735.13    304.12   4734.49    303.48   4733.71    303.48  " /><path style="stroke-width: 0.85 ;&st7;   " d=" M  4733.71,   303.48  C  4732.93    303.48   4732.29    304.12   4732.29    304.90  " /><path style="stroke-width: 0.85 ;&st7;   " d=" M  4732.29,   304.90  C  4732.29    305.68   4732.93    306.32   4733.71    306.32  " /><path style="stroke-width: 0.85 ;&st7;   " d=" M  4733.71,   306.32  C  4734.49    306.32   4735.13    305.68   4735.13    304.90  " /><path style="stroke-width: 1.42 ;&st7;  " d=" M  4733.71,   326.15  L  4739.37,   303.48  " /><path style="stroke-width: 0.85 ;&st7;  " d=" M  4733.71,   350.23  L  4733.71,   328.98  " /><path style="stroke-width: 0.85 ;&st7;  " d=" M  4733.71,   303.48  L  4733.71,   290.74  " /><text style="font-size:6px;font-family:'NSimSun';" transform="matrix(&st16;  4727.52  358.42 )">2</text><text style="font-size:6px;font-family:'NSimSun';" transform="matrix(&st16;  4727.52  287.05 )">3</text><g ewd:figtype="title"><text style="font-size:6px;font-family:'NSimSun';" transform="matrix(&st17;  4758.6  353.13 )">L39</text><text style="font-size:6px;font-family:'NSimSun';" transform="matrix(&st17;  4765.42  353.13 )" ewd:textID="30">行李厢电子钥匙开关</text></g></g><g ewd:figtype="conn" ewd:figID="26" ewd:code="L18"><text style="font-size:6px;font-family:'NSimSun';" transform="matrix(&st16;  4625.81  298.93 )">CLGB</text><text style="font-size:6px;font-family:'NSimSun';" transform="matrix(&st16;  4574.82  298.93 )">ANTE8</text><path style="stroke-width: 1.42 ;&st7;  " d=" M  4555.24,   290.74  L  4555.24,   341.73  L  4648.72,   341.73  L  4648.72,   290.74  L  4555.24,   290.74  " /><path style="stroke-width: 0.85 ;&st7;  " d=" M  4580.73,   324.73  L  4572.23,   324.73  " /><path style="stroke-width: 0.85 ;&st7;  " d=" M  4614.73,   324.73  L  4623.23,   324.73  L  4623.23,   290.74  " /><path style="stroke-width: 1.42 ;&st7;  " d=" M  4580.73,   333.23  L  4614.73,   333.23  L  4614.73,   316.23  L  4580.73,   316.23  L  4580.73,   333.23  " /><path style="stroke-width: 0.85 ;&st7;   " d=" M  4606.23,   324.73  C  4606.23    322.78   4604.64    321.19   4602.69    321.19  " /><path style="stroke-width: 0.85 ;&st7;   " d=" M  4602.69,   321.19  C  4600.73    321.19   4599.15    322.78   4599.15    324.73  " /><path style="stroke-width: 0.85 ;&st7;   " d=" M  4599.15,   324.73  C  4599.15    325.72   4599.50    326.57   4600.21    327.26  " /><path style="stroke-width: 0.85 ;&st7;   " d=" M  4600.21,   327.26  C  4601.61    325.89   4601.63    323.65   4600.26    322.25  " /><path style="stroke-width: 0.85 ;&st7;   " d=" M  4600.26,   322.25  C  4598.89    320.86   4596.65    320.83   4595.25    322.20  " /><path style="stroke-width: 0.85 ;&st7;   " d=" M  4595.25,   322.20  C  4593.86    323.57   4593.83    325.81   4595.20    327.21  " /><path style="stroke-width: 0.85 ;&st7;   " d=" M  4595.20,   327.21  C  4595.22    327.23   4595.23    327.24   4595.25    327.26  " /><path style="stroke-width: 0.85 ;&st7;   " d=" M  4595.25,   327.26  C  4596.65    325.89   4596.67    323.65   4595.30    322.25  " /><path style="stroke-width: 0.85 ;&st7;   " d=" M  4595.30,   322.25  C  4593.94    320.86   4591.69    320.83   4590.30    322.20  " /><path style="stroke-width: 0.85 ;&st7;   " d=" M  4590.30,   322.20  C  4589.59    322.89   4589.23    323.74   4589.23    324.73  " /><path style="stroke-width: 0.85 ;&st7;  " d=" M  4572.24,   324.73  L  4572.24,   314.11  " /><path style="stroke-width: 0.85 ;&st7;  " d=" M  4572.24,   309.86  L  4572.24,   290.74  " /><path style="stroke-width: 1.42 ;&st7;  " d=" M  4576.49,   309.86  L  4567.99,   309.86  " /><path style="stroke-width: 1.42 ;&st7;  " d=" M  4576.49,   314.11  L  4567.99,   314.11  " /><path style="stroke-width: 0.85 ;&st7;  " d=" M  4606.23,   324.73  L  4614.73,   324.73  " /><path style="stroke-width: 0.85 ;&st7;  " d=" M  4580.73,   324.73  L  4589.23,   324.73  " /><text style="font-size:6px;font-family:'NSimSun';" transform="matrix(&st16;  4566.05  287.05 )">1</text><text style="font-size:6px;font-family:'NSimSun';" transform="matrix(&st16;  4617.04  287.05 )">2</text><g ewd:figtype="title"><text style="font-size:6px;font-family:'NSimSun';" transform="matrix(&st16;  4551.83  349.34 )">L18</text><text style="font-size:6px;font-family:'NSimSun';" transform="matrix(&st16;  4551.83  356.45 )" ewd:textID="49">后电子钥匙天线<tspan x="0 " dy="6.0" /></text></g></g><g ewd:figtype="conn" ewd:figID="37" ewd:code="E47,E48,E49"><g ewd:lineID="101"><path style="stroke-width: 1.42 ;&st7;   " d=" M  4500.28,    99.80  C  4500.28     97.30   4498.25     95.27   4495.75     95.27  " /></g><g ewd:lineID="103"><text style="font-size:6px;font-family:'NSimSun';" transform="matrix(&st16;  4563.54  101.77 )">2</text><path style="stroke-width: 1.42 ;&st7;   " d=" M  4576.77,    99.80  C  4576.77     97.30   4574.74     95.27   4572.24     95.27  " /><path style="stroke-width: 1.42 ;&st7;   " d=" M  4572.24,    95.27  C  4569.73     95.27   4567.70     97.30   4567.70     99.80  " /><path style="stroke-width: 1.42 ;&st7;   " d=" M  4567.70,    99.80  C  4567.70    102.31   4569.73    104.33   4572.24    104.33  " /><path style="stroke-width: 1.42 ;&st7;   " d=" M  4572.24,   104.33  C  4574.74    104.33   4576.77    102.31   4576.77     99.80  " /><text style="font-size:6px;font-family:'NSimSun';" transform="matrix(&st16;  4570.05  101.77 )">B</text><text style="font-size:6px;font-family:'NSimSun';" transform="matrix(&st16;  4564.23  91.57 )">CLG8</text></g><g ewd:lineID="105"><text style="font-size:6px;font-family:'NSimSun';" transform="matrix(&st16;  4614.53  101.77 )">1</text><path style="stroke-width: 1.42 ;&st7;   " d=" M  4627.76,    99.80  C  4627.76     97.30   4625.73     95.27   4623.23     95.27  " /><path style="stroke-width: 1.42 ;&st7;   " d=" M  4623.23,    95.27  C  4620.72     95.27   4618.69     97.30   4618.69     99.80  " /><path style="stroke-width: 1.42 ;&st7;   " d=" M  4618.69,    99.80  C  4618.69    102.31   4620.72    104.33   4623.23    104.33  " /><path style="stroke-width: 1.42 ;&st7;   " d=" M  4623.23,   104.33  C  4625.73    104.33   4627.76    102.31   4627.76     99.80  " /><text style="font-size:6px;font-family:'NSimSun';" transform="matrix(&st16;  4621.04  101.77 )">B</text><text style="font-size:6px;font-family:'NSimSun';" transform="matrix(&st16;  4615.11  91.57 )">CG8B</text></g><g ewd:lineID="109"><text style="font-size:6px;font-family:'NSimSun';" transform="matrix(&st16;  4721.91  101.77 )">27</text><path style="stroke-width: 1.42 ;&st7;   " d=" M  4738.24,    99.80  C  4738.24     97.30   4736.21     95.27   4733.71     95.27  " /><path style="stroke-width: 1.42 ;&st7;   " d=" M  4733.71,    95.27  C  4731.21     95.27   4729.18     97.30   4729.18     99.80  " /><path style="stroke-width: 1.42 ;&st7;   " d=" M  4729.18,    99.80  C  4729.18    102.31   4731.21    104.33   4733.71    104.33  " /><path style="stroke-width: 1.42 ;&st7;   " d=" M  4733.71,   104.33  C  4736.21    104.33   4738.24    102.31   4738.24     99.80  " /><text style="font-size:6px;font-family:'NSimSun';" transform="matrix(&st16;  4731.52  101.77 )">B</text><text style="font-size:6px;font-family:'NSimSun';" transform="matrix(&st16;  4725.7  91.57 )">TSW5</text></g><g ewd:lineID="111"><text style="font-size:6px;font-family:'NSimSun';" transform="matrix(&st16;  4823.9  101.77 )">18</text><path style="stroke-width: 1.42 ;&st7;   " d=" M  4840.22,    99.80  C  4840.22     97.30   4838.20     95.27   4835.69     95.27  " /><path style="stroke-width: 1.42 ;&st7;   " d=" M  4835.69,    95.27  C  4833.19     95.27   4831.16     97.30   4831.16     99.80  " /><path style="stroke-width: 1.42 ;&st7;   " d=" M  4831.16,    99.80  C  4831.16    102.31   4833.19    104.33   4835.69    104.33  " /><path style="stroke-width: 1.42 ;&st7;   " d=" M  4835.69,   104.33  C  4838.20    104.33   4840.22    102.31   4840.22     99.80  " /><text style="font-size:6px;font-family:'NSimSun';" transform="matrix(&st16;  4833.27  101.77 )">C</text><text style="font-size:6px;font-family:'NSimSun';" transform="matrix(&st16;  4830.36  91.57 )">IND</text></g><g ewd:lineID="113"><text style="font-size:6px;font-family:'NSimSun';" transform="matrix(&st16;  4920.48  101.77 )">5</text><text style="font-size:6px;font-family:'NSimSun';" transform="matrix(&st16;  4926.99  101.77 )">B</text><path style="stroke-width: 1.42 ;&st7;   " d=" M  4933.71,    99.80  C  4933.71     97.30   4931.68     95.27   4929.18     95.27  " /><path style="stroke-width: 1.42 ;&st7;   " d=" M  4929.18,    95.27  C  4926.67     95.27   4924.64     97.30   4924.64     99.80  " /><path style="stroke-width: 1.42 ;&st7;   " d=" M  4924.64,    99.80  C  4924.64    102.31   4926.67    104.33   4929.18    104.33  " /><path style="stroke-width: 1.42 ;&st7;   " d=" M  4929.18,   104.33  C  4931.68    104.33   4933.71    102.31   4933.71     99.80  " /><text style="font-size:6px;font-family:'NSimSun';" transform="matrix(&st16;  4922.53  91.57 )">RCO</text></g><g ewd:lineID="115"><text style="font-size:6px;font-family:'NSimSun';" transform="matrix(&st16;  4959.87  101.77 )">17</text><text style="font-size:6px;font-family:'NSimSun';" transform="matrix(&st16;  4969.48  101.77 )">B</text><path style="stroke-width: 1.42 ;&st7;   " d=" M  4976.20,    99.80  C  4976.20     97.30   4974.17     95.27   4971.67     95.27  " /><path style="stroke-width: 1.42 ;&st7;   " d=" M  4971.67,    95.27  C  4969.17     95.27   4967.14     97.30   4967.14     99.80  " /><path style="stroke-width: 1.42 ;&st7;   " d=" M  4967.14,    99.80  C  4967.14    102.31   4969.17    104.33   4971.67    104.33  " /><path style="stroke-width: 1.42 ;&st7;   " d=" M  4971.67,   104.33  C  4974.17    104.33   4976.20    102.31   4976.20     99.80  " /><text style="font-size:6px;font-family:'NSimSun';" transform="matrix(&st16;  4962.89  91.57 )">RDAM</text></g></g><g ewd:figtype="w2w" ewd:figID="110" ewd:code="EL5"><text style="font-size:6px;font-family:'NSimSun';" transform="matrix(&st16;  4559.6  194.97 )">2</text><path style="stroke-width: 1.42 ;&st7;  " d=" M  4576.48,   206.32  L  4572.23,   202.07  L  4567.98,   206.32  " /><path style="stroke-width: 1.42 ;&st7;  " d=" M  4576.48,   202.92  L  4572.23,   198.67  L  4567.98,   202.92  " /></g><g ewd:figtype="w2w" ewd:figID="111" ewd:code="EL5"><text style="font-size:6px;font-family:'NSimSun';" transform="matrix(&st16;  4610.6  194.97 )">3</text><path style="stroke-width: 1.42 ;&st7;  " d=" M  4627.47,   206.32  L  4623.23,   202.07  L  4618.98,   206.32  " /><path style="stroke-width: 1.42 ;&st7;  " d=" M  4627.47,   202.92  L  4623.23,   198.67  L  4618.98,   202.92  " /></g><g ewd:figtype="w2w" ewd:figID="112" ewd:code="EL1"><text style="font-size:6px;font-family:'NSimSun';" transform="matrix(&st16;  4717.98  194.97 )">15</text><path style="stroke-width: 1.42 ;&st7;  " d=" M  4737.96,   206.32  L  4733.71,   202.07  L  4729.46,   206.32  " /><path style="stroke-width: 1.42 ;&st7;  " d=" M  4737.96,   202.92  L  4733.71,   198.67  L  4729.46,   202.92  " /></g><g ewd:figtype="w2w" ewd:figID="113" ewd:code="EL2"><text style="font-size:6px;font-family:'NSimSun';" transform="matrix(&st16;  4916.54  194.97 )">9</text><path style="stroke-width: 1.42 ;&st7;  " d=" M  4933.42,   206.32  L  4929.17,   202.07  L  4924.93,   206.32  " /><path style="stroke-width: 1.42 ;&st7;  " d=" M  4933.42,   202.92  L  4929.17,   198.67  L  4924.93,   202.92  " /></g><g ewd:figtype="w2w" ewd:figID="114" ewd:code="EL2"><text style="font-size:6px;font-family:'NSimSun';" transform="matrix(&st16;  4955.94  194.97 )">10</text><path style="stroke-width: 1.42 ;&st7;  " d=" M  4975.92,   202.92  L  4971.67,   198.67  L  4967.42,   202.92  " /><path style="stroke-width: 1.42 ;&st7;  " d=" M  4975.92,   206.32  L  4971.67,   202.07  L  4967.42,   206.32  " /></g><g ewd:figtype="gp" ewd:figID="152" ewd:code="LA"><path style="stroke-width: 0.85 ;&st7;  " d=" M  4732.29,   710.00  L  4735.12,   710.00  " /><path style="stroke-width: 0.85 ;&st7;  " d=" M  4730.87,   707.17  L  4736.54,   707.17  " /><path style="stroke-width: 0.85 ;&st7;  " d=" M  4729.46,   704.33  L  4737.96,   704.33  " /><path style="stroke-width: 0.85 ;&st7;  " d=" M  4725.21,   701.50  L  4742.21,   701.50  " /><path style="stroke-width: 0.85 ;&st7;  " d=" M  4733.71,   697.25  L  4733.71,   701.50  " /></g><g ewd:figtype="gp" ewd:figID="153" ewd:code="ED"><path style="stroke-width: 0.85 ;&st7;  " d=" M  4834.27,   710.00  L  4837.11,   710.00  " /><path style="stroke-width: 0.85 ;&st7;  " d=" M  4835.69,   697.25  L  4835.69,   701.50  " /><path style="stroke-width: 0.85 ;&st7;  " d=" M  4827.19,   701.50  L  4844.19,   701.50  " /><path style="stroke-width: 0.85 ;&st7;  " d=" M  4831.44,   704.33  L  4839.94,   704.33  " /><path style="stroke-width: 0.85 ;&st7;  " d=" M  4832.86,   707.17  L  4838.52,   707.17  " /></g></svg>