<?xml version="1.0" encoding="utf-8"?>
<!DOCTYPE svg PUBLIC "-//W3C//DTD SVG 1.0//EN" "http://www.w3.org/TR/2001/REC-SVG-20010904/DTD/svg10.dtd"[
	<!ENTITY ns_flows "http://ns.adobe.com/Flows/1.0/">
	<!ENTITY ns_svg "http://www.w3.org/2000/svg">
	<!ENTITY ns_xlink "http://www.w3.org/1999/xlink">
	<!ENTITY st0 "font-size:7px;font-family:'NSimSun';adobe-font-script:japanese;">
	<!ENTITY st1 "font-size:6px;font-family:'NSimSun';">
	<!-- White fill  -->
	<!ENTITY st2 "fill:#FFFFFF;stroke:#000000; stroke-width:1.41;stroke-linecap:round;stroke-linejoin:round;">
	<!-- Yellow fill  -->
	<!ENTITY st3 "fill:#FFFFCC;stroke:#FFFFCC; stroke-width:0.1;stroke-linecap:round;stroke-linejoin:round;">
	<!-- Gray fill  -->
	<!ENTITY st4 "fill:#CCCCCC;stroke:#CCCCCC; stroke-width:0.1;stroke-linecap:round;stroke-linejoin:round;">
	<!-- Light-blue fill -->
	<!ENTITY st5 "fill:#CCECF4;stroke:#000000; stroke-width:1.133;stroke-linecap:round;stroke-linejoin:round;">
	<!ENTITY st6 "fill:none;stroke-linecap:butt; stroke-linejoin:round;">
	<!ENTITY st7 "fill:none;stroke:#000000;stroke-linecap:round;stroke-linejoin:round;">
	<!ENTITY st8 "enable-background:new    ;">
	<!-- Black fill -->
	<!ENTITY st9 "fill:#000000;stroke:#000000; stroke-linecap:round;stroke-linejoin:round;">
	<!-- SRS note   -->
	<!ENTITY st10 "font-size:9px;font-family:'NSimSun';">
	<!ENTITY st11 "font-size:9px;font-family:'NSimSun';">
	<!ENTITY st12 "font-size:6px;font-family:'NSimSun';">
	<!ENTITY st13 "fill:none;stroke:#ff0000;stroke-linecap:round;stroke-linejoin:round;">
	<!-- Yellow fill  -->
	<!ENTITY st14 "fill:#FFFF00;stroke:#FFFF00; stroke-width:0.1;stroke-linecap:round;stroke-linejoin:round;">
	<!ENTITY st15 "font-size:6px;font-family:'NSimSun';adobe-font-script:japanese;">
	<!ENTITY st16 "1.00 0.00 0.00 1.00">
	<!ENTITY st17 "0.00 -1.00 1.00 0.00">
	<!ENTITY st18 "font-size:6px;font-family:'NSimSun';">
	<!ENTITY st19 "font-size:9px;font-family:'NSimSun';">
	<!ENTITY st20 "font-size:6px;font-family:'NSimSun';adobe-font-script:japanese;">
	<!ENTITY st21 "font-size:7px;font-family:'NSimSun';adobe-font-script:japanese;">
	<!ATTLIST svg
		xmlns:ewd CDATA #FIXED "http://shcl.co.jp/ewd"
		xmlns:a CDATA #FIXED "http://ns.adobe.com/AdobeSVGViewerExtensions/3.0/"
		ewd:ver CDATA #IMPLIED
	>
	<!ATTLIST a
		ewd:lineID CDATA #IMPLIED
		ewd:groupID CDATA #IMPLIED
		ewd:figtype CDATA #IMPLIED
		ewd:code CDATA #IMPLIED
		ewd:figID CDATA #IMPLIED
		ewd:pinNo CDATA #IMPLIED
		ewd:comment CDATA #IMPLIED >
	<!ATTLIST g
		ewd:lineID CDATA #IMPLIED
		ewd:groupID CDATA #IMPLIED
		ewd:figtype CDATA #IMPLIED
		ewd:code CDATA #IMPLIED
		ewd:figID CDATA #IMPLIED
		ewd:pinNo CDATA #IMPLIED
		ewd:comment CDATA #IMPLIED >
	<!ATTLIST text
		ewd:textID CDATA #IMPLIED
		ewd:horAlign CDATA #IMPLIED >
	<!ATTLIST title
		ewd:textID CDATA #IMPLIED >
]>
<!-- Generator: Shintec Hozumi YS   -->
<svg onload="call_execInitLoadProc_svg('system')" style="overflow:visible;  enable-background:new 0 0 8796.739 710.000" viewBox="0 0 8804.534 710.000" height="710.000" width="8804.534" xml:space="preserve" ewd:ver="2.1.2.6F" xmlns="&ns_svg;" xmlns:ewd="http://shcl.co.jp/ewd" xmlns:a="http://ns.adobe.com/AdobeSVGViewerExtensions/3.0/" xmlns:xlink="&ns_xlink;">
<text style="font-size:6px;font-family:'NSimSun';" transform="matrix(&st17;  2503.39  143.72 )">W-B</text><text style="font-size:6px;font-family:'NSimSun';" transform="matrix(&st17;  2707.35  139.33 )">L</text><text style="font-size:6px;font-family:'NSimSun';" transform="matrix(&st17;  2749.84  139.26 )">P</text><text style="font-size:6px;font-family:'NSimSun';" transform="matrix(&st17;  2792.34  139.72 )">G</text><text style="font-size:6px;font-family:'NSimSun';" transform="matrix(&st17;  2664.86  140.23 )">W</text><text style="font-size:6px;font-family:'NSimSun';" transform="matrix(&st17;  2537.38  143.72 )">W-B</text><text style="font-size:6px;font-family:'NSimSun';" transform="matrix(&st17;  2979.31  139.45 )">B</text><text style="font-size:6px;font-family:'NSimSun';" transform="matrix(&st17;  2945.31  141.0 )">SB</text><text style="font-size:6px;font-family:'NSimSun';" transform="matrix(&st16;  2818.12  33.47 )">E47(A),E48(B),E49(C)</text><text style="font-size:6px;font-family:'NSimSun';" transform="matrix(&st16;  2818.12  40.58 )" ewd:textID="7">认证 ECU</text><text style="font-size:6px;font-family:'NSimSun';" transform="matrix(&st17;  2834.83  141.31 )">BR</text><g ewd:figtype="conn" ewd:figID="24" ewd:code="E50"><text style="font-size:6px;font-family:'NSimSun';" transform="matrix(&st16;  2970.61  298.93 )">SS2</text><text style="font-size:6px;font-family:'NSimSun';" transform="matrix(&st16;  2936.62  298.93 )">SS1</text><text style="font-size:6px;font-family:'NSimSun';" transform="matrix(&st16;  3008.29  318.2 )">AGND</text><text style="font-size:6px;font-family:'NSimSun';" transform="matrix(&st16;  2978.1  318.2 )">SS2</text><text style="font-size:6px;font-family:'NSimSun';" transform="matrix(&st16;  2944.1  318.2 )">SS1</text><text style="font-size:6px;font-family:'NSimSun';" transform="matrix(&st16; 2896.25 335.20)" ewd:textID="14" ewd:horAlign="center">全开</text><text style="font-size:6px;font-family:'NSimSun';" transform="matrix(&st16; 2896.34 352.37)" ewd:textID="21" ewd:horAlign="center">全接<tspan x="0 " dy="6.0" /></text><text style="font-size:6px;font-family:'NSimSun';" transform="matrix(&st16;  2841.11  298.93 )">AGND</text><text style="font-size:6px;font-family:'NSimSun';" transform="matrix(&st16;  2798.62  298.93 )">SWIL</text><text style="font-size:6px;font-family:'NSimSun';" transform="matrix(&st16;  2756.12  298.93 )">CODE</text><text style="font-size:6px;font-family:'NSimSun';" transform="matrix(&st16;  2713.63  298.93 )">TXCT</text><text style="font-size:6px;font-family:'NSimSun';" transform="matrix(&st16;  2671.14  298.93 )">VC5</text><text style="font-size:6px;font-family:'NSimSun';" transform="matrix(&st16; 2682.19 442.85)" ewd:textID="2" ewd:horAlign="center">天线线圈</text><path style="stroke-width: 0.85 ;&st7;  " d=" M  2983.00,   290.74  L  2983.00,   307.73  " /><path style="stroke-width: 0.85 ;&st7;  " d=" M  2949.01,   290.74  L  2949.01,   307.73  " /><path style="stroke-width: 0.85 ;&st7;  " d=" M  2950.42,   345.98  L  3015.58,   345.98  " /><path style="stroke-width: 1.42 ;&st7;  " d=" M  2872.52,   307.73  L  2872.52,   358.73  L  3033.99,   358.73  L  3033.99,   307.73  L  2872.52,   307.73  " /><path style="stroke-width: 0.85 ;&st7;  " d=" M  2872.52,   324.73  L  3033.99,   324.73  " /><path style="stroke-width: 0.85 ;&st7;  " d=" M  2872.52,   341.73  L  3033.99,   341.73  " /><path style="stroke-width: 0.85 ;&st7;  " d=" M  3000.00,   307.73  L  3000.00,   358.73  " /><path style="stroke-width: 0.85 ;&st7;  " d=" M  2966.00,   307.73  L  2966.00,   358.73  " /><path style="stroke-width: 0.85 ;&st7;  " d=" M  2932.01,   307.73  L  2932.01,   358.73  " /><path style="stroke-width: 0.85 ;&st7;  " d=" M  2984.42,   354.48  L  3015.58,   354.48  " /><path style="stroke-width: 0.85 ;&st7;  " d=" M  3016.99,   358.73  L  3016.99,   426.71  L  2796.03,   426.71  L  2796.03,   392.72  " /><path style="stroke-width: 0.85 ;&st7;  " d=" M  2794.84,   391.72  L  2794.57,   392.19  L  2794.47,   392.72  L  2794.57,   393.25  L  2794.84,   393.72  L  2795.25,   394.07  L  2795.76,   394.26  L  2796.30,   394.26  L  2796.81,   394.07  L  2797.22,   393.72  L  2797.50,   393.25  L  2797.59,   392.72  L  2797.50,   392.19  L  2797.22,   391.72  L  2796.81,   391.37  L  2796.30,   391.18  L  2795.76,   391.18  L  2795.25,   391.37  L  2794.84,   391.72  L  2795.23,   392.43  L  2795.23,   393.01  L  2795.61,   393.46  L  2796.18,   393.56  L  2796.68,   393.27  L  2796.88,   392.72  L  2796.68,   392.17  L  2796.18,   391.88  L  2795.61,   391.98  L  2796.03,   392.72  " /><path style="stroke-width: 0.85 ;&st7;  " d=" M  2668.55,   290.74  L  2668.55,   307.73  " /><path style="stroke-width: 0.85 ;&st7;  " d=" M  2711.05,   290.74  L  2711.05,   307.73  " /><path style="stroke-width: 0.85 ;&st7;  " d=" M  2753.54,   290.74  L  2753.54,   307.73  " /><path style="stroke-width: 0.85 ;&st7;  " d=" M  2810.77,   369.53  L  2808.43,   372.57  L  2806.97,   370.03  L  2810.77,   369.53  L  2809.48,   370.27  L  2808.50,   371.55  L  2807.88,   370.48  L  2809.48,   370.27  L  2808.84,   370.64  L  2808.53,   371.04  L  2808.34,   370.71  L  2808.84,   370.64  " /><path style="stroke-width: 0.85 ;&st7;  " d=" M  2808.77,   366.06  L  2806.43,   369.10  L  2804.96,   366.56  L  2808.77,   366.06  L  2807.48,   366.80  L  2806.50,   368.08  L  2805.88,   367.01  L  2807.48,   366.80  L  2806.84,   367.17  L  2806.53,   367.57  L  2806.33,   367.24  L  2806.84,   367.17  " /><path style="stroke-width: 0.28 ;&st9;  " d=" M  2796.03,   375.72  L  2790.37,   367.22  L  2801.70,   367.22  L  2796.03,   375.72  " /><path style="stroke-width: 0.85 ;&st7;  " d=" M  2810.77,   344.03  L  2808.43,   347.07  L  2806.97,   344.53  L  2810.77,   344.03  L  2809.48,   344.77  L  2808.50,   346.05  L  2807.88,   344.98  L  2809.48,   344.77  L  2808.84,   345.14  L  2808.53,   345.55  L  2808.34,   345.21  L  2808.84,   345.14  " /><path style="stroke-width: 0.85 ;&st7;  " d=" M  2808.77,   340.56  L  2806.43,   343.60  L  2804.96,   341.06  L  2808.77,   340.56  L  2807.48,   341.30  L  2806.50,   342.59  L  2805.88,   341.51  L  2807.48,   341.30  L  2806.84,   341.67  L  2806.53,   342.08  L  2806.33,   341.74  L  2806.84,   341.67  " /><path style="stroke-width: 0.28 ;&st9;  " d=" M  2796.03,   350.23  L  2790.37,   341.73  L  2801.70,   341.73  L  2796.03,   350.23  " /><path style="stroke-width: 0.85 ;&st7;  " d=" M  2838.52,   290.74  L  2838.52,   392.72  L  2796.03,   392.72  L  2796.03,   333.23  L  2793.20,   331.81  L  2798.86,   328.98  L  2793.20,   326.15  L  2798.86,   323.31  L  2793.20,   320.48  L  2798.86,   317.65  L  2796.03,   316.23  L  2796.03,   290.74  " /><path style="stroke-width: 1.42 ;&st7;  " d=" M  2651.56,   307.73  L  2651.56,   409.72  L  2855.52,   409.72  L  2855.52,   307.73  L  2651.56,   307.73  " /><path style="stroke-width: 1.42 ;&st7;  " d=" M  2677.05,   435.21  L  2711.05,   435.21  L  2711.05,   418.22  L  2677.05,   418.22  L  2677.05,   435.21  " /><path style="stroke-width: 0.85 ;&st7;  " d=" M  2668.55,   409.72  L  2668.55,   426.71  L  2677.05,   426.71  " /><path style="stroke-width: 0.85 ;&st7;  " d=" M  2711.05,   426.71  L  2719.54,   426.71  L  2719.54,   409.72  " /><path style="stroke-width: 1.42 ;&st7;  " d=" M  2634.56,   290.74  L  2634.56,   452.21  L  3050.99,   452.21  L  3050.99,   290.74  L  2634.56,   290.74  " /><path style="stroke-width: 0.85 ;&st7;   " d=" M  2984.42,   354.48  C  2984.42    353.69   2983.78    353.06   2983.00    353.06  " /><path style="stroke-width: 0.85 ;&st7;   " d=" M  2983.00,   353.06  C  2982.22    353.06   2981.59    353.69   2981.59    354.48  " /><path style="stroke-width: 0.85 ;&st7;   " d=" M  2981.59,   354.48  C  2981.59    355.26   2982.22    355.89   2983.00    355.89  " /><path style="stroke-width: 0.85 ;&st7;   " d=" M  2983.00,   355.89  C  2983.78    355.89   2984.42    355.26   2984.42    354.48  " /><path style="stroke-width: 0.85 ;&st7;   " d=" M  3018.41,   354.48  C  3018.41    353.69   3017.78    353.06   3017.00    353.06  " /><path style="stroke-width: 0.85 ;&st7;   " d=" M  3017.00,   353.06  C  3016.21    353.06   3015.58    353.69   3015.58    354.48  " /><path style="stroke-width: 0.85 ;&st7;   " d=" M  3015.58,   354.48  C  3015.58    355.26   3016.21    355.89   3017.00    355.89  " /><path style="stroke-width: 0.85 ;&st7;   " d=" M  3017.00,   355.89  C  3017.78    355.89   3018.41    355.26   3018.41    354.48  " /><path style="stroke-width: 0.85 ;&st7;   " d=" M  2950.42,   345.98  C  2950.42    345.20   2949.79    344.56   2949.01    344.56  " /><path style="stroke-width: 0.85 ;&st7;   " d=" M  2949.01,   344.56  C  2948.22    344.56   2947.59    345.20   2947.59    345.98  " /><path style="stroke-width: 0.85 ;&st7;   " d=" M  2947.59,   345.98  C  2947.59    346.76   2948.22    347.39   2949.01    347.39  " /><path style="stroke-width: 0.85 ;&st7;   " d=" M  2949.01,   347.39  C  2949.79    347.39   2950.42    346.76   2950.42    345.98  " /><path style="stroke-width: 0.85 ;&st7;   " d=" M  3018.41,   345.98  C  3018.41    345.20   3017.78    344.56   3017.00    344.56  " /><path style="stroke-width: 0.85 ;&st7;   " d=" M  3017.00,   344.56  C  3016.21    344.56   3015.58    345.20   3015.58    345.98  " /><path style="stroke-width: 0.85 ;&st7;   " d=" M  3015.58,   345.98  C  3015.58    346.76   3016.21    347.39   3017.00    347.39  " /><path style="stroke-width: 0.85 ;&st7;   " d=" M  3017.00,   347.39  C  3017.78    347.39   3018.41    346.76   3018.41    345.98  " /><path style="stroke-width: 0.85 ;&st7;   " d=" M  2691.57,   429.24  C  2692.97    427.87   2692.99    425.63   2691.62    424.24  " /><path style="stroke-width: 0.85 ;&st7;   " d=" M  2691.62,   424.24  C  2690.25    422.84   2688.01    422.82   2686.61    424.18  " /><path style="stroke-width: 0.85 ;&st7;   " d=" M  2686.61,   424.18  C  2685.91    424.88   2685.55    425.72   2685.55    426.71  " /><path style="stroke-width: 0.85 ;&st7;   " d=" M  2696.53,   429.24  C  2697.93    427.87   2697.95    425.63   2696.58    424.24  " /><path style="stroke-width: 0.85 ;&st7;   " d=" M  2696.58,   424.24  C  2695.21    422.84   2692.97    422.82   2691.57    424.18  " /><path style="stroke-width: 0.85 ;&st7;   " d=" M  2691.57,   424.18  C  2690.17    425.55   2690.15    427.80   2691.52    429.19  " /><path style="stroke-width: 0.85 ;&st7;   " d=" M  2691.52,   429.19  C  2691.54    429.21   2691.55    429.23   2691.57    429.24  " /><path style="stroke-width: 0.85 ;&st7;   " d=" M  2702.55,   426.71  C  2702.55    424.76   2700.96    423.17   2699.01    423.17  " /><path style="stroke-width: 0.85 ;&st7;   " d=" M  2699.01,   423.17  C  2697.05    423.17   2695.47    424.76   2695.47    426.71  " /><path style="stroke-width: 0.85 ;&st7;   " d=" M  2695.47,   426.71  C  2695.47    427.70   2695.82    428.55   2696.53    429.24  " /><path style="stroke-width: 0.85 ;&st7;  " d=" M  2803.41,   373.78  L  2810.77,   369.53  " /><path style="stroke-width: 0.85 ;&st7;  " d=" M  2808.77,   366.06  L  2801.40,   370.31  " /><path style="stroke-width: 0.85 ;&st7;  " d=" M  2800.28,   375.72  L  2791.78,   375.72  " /><path style="stroke-width: 0.85 ;&st7;  " d=" M  2803.41,   348.28  L  2810.77,   344.03  " /><path style="stroke-width: 0.85 ;&st7;  " d=" M  2808.77,   340.56  L  2801.40,   344.81  " /><path style="stroke-width: 0.85 ;&st7;  " d=" M  2800.28,   350.23  L  2791.78,   350.23  " /><path style="stroke-width: 0.85 ;&st7;  " d=" M  2677.05,   426.71  L  2685.55,   426.71  " /><path style="stroke-width: 0.85 ;&st7;  " d=" M  2702.55,   426.71  L  2711.05,   426.71  " /><text style="font-size:6px;font-family:'NSimSun';" transform="matrix(&st16;  2659.27  287.05 )">10</text><text style="font-size:6px;font-family:'NSimSun';" transform="matrix(&st16;  2704.86  287.05 )">7</text><text style="font-size:6px;font-family:'NSimSun';" transform="matrix(&st16;  2747.36  287.05 )">8</text><text style="font-size:6px;font-family:'NSimSun';" transform="matrix(&st16;  2789.85  287.05 )">9</text><text style="font-size:6px;font-family:'NSimSun';" transform="matrix(&st16;  2832.34  287.05 )">6</text><text style="font-size:6px;font-family:'NSimSun';" transform="matrix(&st16;  2942.82  287.05 )">5</text><text style="font-size:6px;font-family:'NSimSun';" transform="matrix(&st16;  2976.82  287.05 )">1</text><g ewd:figtype="title"><text style="font-size:6px;font-family:'NSimSun';" transform="matrix(&st16;  2639.65  459.82 )">E50</text><text style="font-size:6px;font-family:'NSimSun';" transform="matrix(&st16;  2639.65  466.93 )" ewd:textID="13">发动机开关</text></g></g><g ewd:figtype="conn" ewd:figID="37" ewd:code="E47,E48,E49"><g ewd:lineID="51"><path style="stroke-width: 1.42 ;&st7;   " d=" M  2511.61,    99.80  C  2511.61     97.30   2509.58     95.27   2507.08     95.27  " /><path style="stroke-width: 1.42 ;&st7;   " d=" M  2507.08,    95.27  C  2504.58     95.27   2502.55     97.30   2502.55     99.80  " /><path style="stroke-width: 1.42 ;&st7;   " d=" M  2502.55,    99.80  C  2502.55    102.31   2504.58    104.33   2507.08    104.33  " /><path style="stroke-width: 1.42 ;&st7;   " d=" M  2507.08,   104.33  C  2509.58    104.33   2511.61    102.31   2511.61     99.80  " /><text style="font-size:6px;font-family:'NSimSun';" transform="matrix(&st16;  2504.78  101.77 )">A</text><text style="font-size:6px;font-family:'NSimSun';" transform="matrix(&st16;  2504.97  91.57 )">E</text></g><g ewd:lineID="52"><text style="font-size:6px;font-family:'NSimSun';" transform="matrix(&st16;  2529.28  101.77 )">15</text><text style="font-size:6px;font-family:'NSimSun';" transform="matrix(&st16;  2538.89  101.77 )">B</text><path style="stroke-width: 1.42 ;&st7;   " d=" M  2545.61,    99.80  C  2545.61     97.30   2543.58     95.27   2541.08     95.27  " /><path style="stroke-width: 1.42 ;&st7;   " d=" M  2541.08,    95.27  C  2538.57     95.27   2536.54     97.30   2536.54     99.80  " /><path style="stroke-width: 1.42 ;&st7;   " d=" M  2536.54,    99.80  C  2536.54    102.31   2538.57    104.33   2541.08    104.33  " /><path style="stroke-width: 1.42 ;&st7;   " d=" M  2541.08,   104.33  C  2543.58    104.33   2545.61    102.31   2545.61     99.80  " /><text style="font-size:6px;font-family:'NSimSun';" transform="matrix(&st16;  2535.09  91.57 )">IDW</text></g><g ewd:lineID="53"><text style="font-size:6px;font-family:'NSimSun';" transform="matrix(&st16;  2659.86  101.77 )">1</text><text style="font-size:6px;font-family:'NSimSun';" transform="matrix(&st16;  2666.13  101.77 )">C</text><path style="stroke-width: 1.42 ;&st7;   " d=" M  2673.09,    99.80  C  2673.09     97.30   2671.06     95.27   2668.55     95.27  " /><path style="stroke-width: 1.42 ;&st7;   " d=" M  2668.55,    95.27  C  2666.05     95.27   2664.02     97.30   2664.02     99.80  " /><path style="stroke-width: 1.42 ;&st7;   " d=" M  2664.02,    99.80  C  2664.02    102.31   2666.05    104.33   2668.55    104.33  " /><path style="stroke-width: 1.42 ;&st7;   " d=" M  2668.55,   104.33  C  2671.06    104.33   2673.09    102.31   2673.09     99.80  " /><text style="font-size:6px;font-family:'NSimSun';" transform="matrix(&st16;  2662.53  91.57 )">VC5</text></g><g ewd:lineID="54"><text style="font-size:6px;font-family:'NSimSun';" transform="matrix(&st16;  2702.35  101.77 )">9</text><text style="font-size:6px;font-family:'NSimSun';" transform="matrix(&st16;  2708.63  101.77 )">C</text><path style="stroke-width: 1.42 ;&st7;   " d=" M  2715.58,    99.80  C  2715.58     97.30   2713.55     95.27   2711.05     95.27  " /><path style="stroke-width: 1.42 ;&st7;   " d=" M  2711.05,    95.27  C  2708.54     95.27   2706.51     97.30   2706.51     99.80  " /><path style="stroke-width: 1.42 ;&st7;   " d=" M  2706.51,    99.80  C  2706.51    102.31   2708.54    104.33   2711.05    104.33  " /><path style="stroke-width: 1.42 ;&st7;   " d=" M  2711.05,   104.33  C  2713.55    104.33   2715.58    102.31   2715.58     99.80  " /><text style="font-size:6px;font-family:'NSimSun';" transform="matrix(&st16;  2702.69  91.57 )">TXCT</text></g><g ewd:lineID="55"><text style="font-size:6px;font-family:'NSimSun';" transform="matrix(&st16;  2744.85  101.77 )">7</text><text style="font-size:6px;font-family:'NSimSun';" transform="matrix(&st16;  2751.12  101.77 )">C</text><path style="stroke-width: 1.42 ;&st7;   " d=" M  2758.07,    99.80  C  2758.07     97.30   2756.04     95.27   2753.54     95.27  " /><path style="stroke-width: 1.42 ;&st7;   " d=" M  2753.54,    95.27  C  2751.04     95.27   2749.01     97.30   2749.01     99.80  " /><path style="stroke-width: 1.42 ;&st7;   " d=" M  2749.01,    99.80  C  2749.01    102.31   2751.04    104.33   2753.54    104.33  " /><path style="stroke-width: 1.42 ;&st7;   " d=" M  2753.54,   104.33  C  2756.04    104.33   2758.07    102.31   2758.07     99.80  " /><text style="font-size:6px;font-family:'NSimSun';" transform="matrix(&st16;  2744.76  91.57 )">CODE</text></g><g ewd:lineID="56"><text style="font-size:6px;font-family:'NSimSun';" transform="matrix(&st16;  2784.24  101.77 )">16</text><text style="font-size:6px;font-family:'NSimSun';" transform="matrix(&st16;  2793.61  101.77 )">C</text><path style="stroke-width: 1.42 ;&st7;   " d=" M  2800.57,    99.80  C  2800.57     97.30   2798.54     95.27   2796.03     95.27  " /><path style="stroke-width: 1.42 ;&st7;   " d=" M  2796.03,    95.27  C  2793.53     95.27   2791.50     97.30   2791.50     99.80  " /><path style="stroke-width: 1.42 ;&st7;   " d=" M  2791.50,    99.80  C  2791.50    102.31   2793.53    104.33   2796.03    104.33  " /><path style="stroke-width: 1.42 ;&st7;   " d=" M  2796.03,   104.33  C  2798.54    104.33   2800.57    102.31   2800.57     99.80  " /><text style="font-size:6px;font-family:'NSimSun';" transform="matrix(&st16;  2788.8  91.57 )">SWIL</text></g><g ewd:lineID="57"><text style="font-size:6px;font-family:'NSimSun';" transform="matrix(&st16;  2826.73  101.77 )">24</text><text style="font-size:6px;font-family:'NSimSun';" transform="matrix(&st16;  2836.1  101.77 )">C</text><path style="stroke-width: 1.42 ;&st7;   " d=" M  2843.06,    99.80  C  2843.06     97.30   2841.03     95.27   2838.53     95.27  " /><path style="stroke-width: 1.42 ;&st7;   " d=" M  2838.53,    95.27  C  2836.02     95.27   2833.99     97.30   2833.99     99.80  " /><path style="stroke-width: 1.42 ;&st7;   " d=" M  2833.99,    99.80  C  2833.99    102.31   2836.02    104.33   2838.53    104.33  " /><path style="stroke-width: 1.42 ;&st7;   " d=" M  2838.53,   104.33  C  2841.03    104.33   2843.06    102.31   2843.06     99.80  " /><text style="font-size:6px;font-family:'NSimSun';" transform="matrix(&st16;  2829.82  91.57 )">AGND</text></g><g ewd:lineID="58"><text style="font-size:6px;font-family:'NSimSun';" transform="matrix(&st16;  2937.21  101.77 )">28</text><path style="stroke-width: 1.42 ;&st7;   " d=" M  2953.54,    99.80  C  2953.54     97.30   2951.51     95.27   2949.01     95.27  " /><path style="stroke-width: 1.42 ;&st7;   " d=" M  2949.01,    95.27  C  2946.50     95.27   2944.47     97.30   2944.47     99.80  " /><path style="stroke-width: 1.42 ;&st7;   " d=" M  2944.47,    99.80  C  2944.47    102.31   2946.50    104.33   2949.01    104.33  " /><path style="stroke-width: 1.42 ;&st7;   " d=" M  2949.01,   104.33  C  2951.51    104.33   2953.54    102.31   2953.54     99.80  " /><text style="font-size:6px;font-family:'NSimSun';" transform="matrix(&st16;  2946.59  101.77 )">C</text><text style="font-size:6px;font-family:'NSimSun';" transform="matrix(&st16;  2941.39  91.57 )">SSW1</text></g><g ewd:lineID="59"><text style="font-size:6px;font-family:'NSimSun';" transform="matrix(&st16;  2971.21  101.77 )">30</text><text style="font-size:6px;font-family:'NSimSun';" transform="matrix(&st16;  2980.58  101.77 )">C</text><path style="stroke-width: 1.42 ;&st7;   " d=" M  2987.53,    99.80  C  2987.53     97.30   2985.50     95.27   2983.00     95.27  " /><path style="stroke-width: 1.42 ;&st7;   " d=" M  2983.00,    95.27  C  2980.50     95.27   2978.47     97.30   2978.47     99.80  " /><path style="stroke-width: 1.42 ;&st7;   " d=" M  2978.47,    99.80  C  2978.47    102.31   2980.50    104.33   2983.00    104.33  " /><path style="stroke-width: 1.42 ;&st7;   " d=" M  2983.00,   104.33  C  2985.50    104.33   2987.53    102.31   2987.53     99.80  " /><text style="font-size:6px;font-family:'NSimSun';" transform="matrix(&st16;  2975.38  91.57 )">SSW2</text></g></g></svg>