<?xml version="1.0" encoding="utf-8"?>
<!DOCTYPE svg PUBLIC "-//W3C//DTD SVG 1.0//EN" "http://www.w3.org/TR/2001/REC-SVG-20010904/DTD/svg10.dtd"[
	<!ENTITY ns_flows "http://ns.adobe.com/Flows/1.0/">
	<!ENTITY ns_svg "http://www.w3.org/2000/svg">
	<!ENTITY ns_xlink "http://www.w3.org/1999/xlink">
	<!ENTITY st0 "font-size:7px;font-family:'NSimSun';adobe-font-script:japanese;">
	<!ENTITY st1 "font-size:6px;font-family:'NSimSun';">
	<!-- White fill  -->
	<!ENTITY st2 "fill:#FFFFFF;stroke:#000000; stroke-width:1.41;stroke-linecap:round;stroke-linejoin:round;">
	<!-- Yellow fill  -->
	<!ENTITY st3 "fill:#FFFFCC;stroke:#FFFFCC; stroke-width:0.1;stroke-linecap:round;stroke-linejoin:round;">
	<!-- Gray fill  -->
	<!ENTITY st4 "fill:#CCCCCC;stroke:#CCCCCC; stroke-width:0.1;stroke-linecap:round;stroke-linejoin:round;">
	<!-- Light-blue fill -->
	<!ENTITY st5 "fill:#CCECF4;stroke:#000000; stroke-width:1.133;stroke-linecap:round;stroke-linejoin:round;">
	<!ENTITY st6 "fill:none;stroke-linecap:butt; stroke-linejoin:round;">
	<!ENTITY st7 "fill:none;stroke:#000000;stroke-linecap:round;stroke-linejoin:round;">
	<!ENTITY st8 "enable-background:new    ;">
	<!-- Black fill -->
	<!ENTITY st9 "fill:#000000;stroke:#000000; stroke-linecap:round;stroke-linejoin:round;">
	<!-- SRS note   -->
	<!ENTITY st10 "font-size:9px;font-family:'NSimSun';">
	<!ENTITY st11 "font-size:9px;font-family:'NSimSun';">
	<!ENTITY st12 "font-size:6px;font-family:'NSimSun';">
	<!ENTITY st13 "fill:none;stroke:#ff0000;stroke-linecap:round;stroke-linejoin:round;">
	<!-- Yellow fill  -->
	<!ENTITY st14 "fill:#FFFF00;stroke:#FFFF00; stroke-width:0.1;stroke-linecap:round;stroke-linejoin:round;">
	<!ENTITY st15 "font-size:6px;font-family:'NSimSun';adobe-font-script:japanese;">
	<!ENTITY st16 "1.00 0.00 0.00 1.00">
	<!ENTITY st17 "0.00 -1.00 1.00 0.00">
	<!ENTITY st18 "font-size:6px;font-family:'NSimSun';">
	<!ENTITY st19 "font-size:9px;font-family:'NSimSun';">
	<!ENTITY st20 "font-size:6px;font-family:'NSimSun';adobe-font-script:japanese;">
	<!ENTITY st21 "font-size:7px;font-family:'NSimSun';adobe-font-script:japanese;">
	<!ATTLIST svg
		xmlns:ewd CDATA #FIXED "http://shcl.co.jp/ewd"
		xmlns:a CDATA #FIXED "http://ns.adobe.com/AdobeSVGViewerExtensions/3.0/"
		ewd:ver CDATA #IMPLIED
	>
	<!ATTLIST a
		ewd:lineID CDATA #IMPLIED
		ewd:groupID CDATA #IMPLIED
		ewd:figtype CDATA #IMPLIED
		ewd:code CDATA #IMPLIED
		ewd:figID CDATA #IMPLIED
		ewd:pinNo CDATA #IMPLIED
		ewd:comment CDATA #IMPLIED >
	<!ATTLIST g
		ewd:lineID CDATA #IMPLIED
		ewd:groupID CDATA #IMPLIED
		ewd:figtype CDATA #IMPLIED
		ewd:code CDATA #IMPLIED
		ewd:figID CDATA #IMPLIED
		ewd:pinNo CDATA #IMPLIED
		ewd:comment CDATA #IMPLIED >
	<!ATTLIST text
		ewd:textID CDATA #IMPLIED
		ewd:horAlign CDATA #IMPLIED >
	<!ATTLIST title
		ewd:textID CDATA #IMPLIED >
]>
<!-- Generator: Shintec Hozumi YS   -->
<svg onload="call_execInitLoadProc_svg('system')" style="overflow:visible;  enable-background:new 0 0 8796.739 710.000" viewBox="0 0 8804.534 710.000" height="710.000" width="8804.534" xml:space="preserve" ewd:ver="2.1.2.6F" xmlns="&ns_svg;" xmlns:ewd="http://shcl.co.jp/ewd" xmlns:a="http://ns.adobe.com/AdobeSVGViewerExtensions/3.0/" xmlns:xlink="&ns_xlink;">
<text style="font-size:6px;font-family:'NSimSun';" transform="matrix(&st17;  2307.92  226.53 )">LG</text><text style="font-size:6px;font-family:'NSimSun';" transform="matrix(&st17;  2307.92  141.55 )">LG</text><text style="font-size:6px;font-family:'NSimSun';" transform="matrix(&st17;  2231.43  225.21 )">W</text><text style="font-size:6px;font-family:'NSimSun';" transform="matrix(&st16;  2299.71  40.58 )" ewd:textID="11">认证 ECU</text><text style="font-size:6px;font-family:'NSimSun';" transform="matrix(&st16;  2299.7  33.47 )">E47(A),E48(B),E49(C)</text><text style="font-size:6px;font-family:'NSimSun';" transform="matrix(&st16;  2094.87  626.98 )">LG</text><text style="font-size:6px;font-family:'NSimSun';" transform="matrix(&st16;  2043.88  626.98 )">LG</text><text style="font-size:6px;font-family:'NSimSun';" transform="matrix(&st16;  2096.19  575.99 )">W</text><text style="font-size:6px;font-family:'NSimSun';" transform="matrix(&st16;  2045.19  575.99 )">W</text><text style="font-size:6px;font-family:'NSimSun';" transform="matrix(&st17;  2010.47  430.26 )">BR</text><text style="font-size:6px;font-family:'NSimSun';" transform="matrix(&st17;  2010.47  566.24 )">BR</text><text style="font-size:6px;font-family:'NSimSun';" transform="matrix(&st17;  2231.43  140.23 )">W</text><text style="font-size:6px;font-family:'NSimSun';" transform="matrix(&st16;  2039.88  587.32 )">(CVT)</text><text style="font-size:6px;font-family:'NSimSun';" transform="matrix(&st16;  2090.87  587.32 )">(CVT)</text><text style="font-size:6px;font-family:'NSimSun';" transform="matrix(&st16;  2096.19  601.49 )">W</text><text style="font-size:6px;font-family:'NSimSun';" transform="matrix(&st16;  2045.19  601.49 )">W</text><text style="font-size:6px;font-family:'NSimSun';" transform="matrix(&st16;  2040.08  612.82 )">(M/T)</text><text style="font-size:6px;font-family:'NSimSun';" transform="matrix(&st16;  2091.07  612.82 )">(M/T)</text><text style="font-size:6px;font-family:'NSimSun';" transform="matrix(&st17;  2242.76  230.52 )">(CVT)</text><text style="font-size:6px;font-family:'NSimSun';" transform="matrix(&st17;  2256.93  225.21 )">W</text><text style="font-size:6px;font-family:'NSimSun';" transform="matrix(&st17;  2268.26  230.33 )">(M/T)</text><text style="font-size:6px;font-family:'NSimSun';" transform="matrix(&st16;  2003.21  134.07 )">G</text><path style="stroke-width: 1.42 ;&st7;  " d=" M  2303.12,   171.76  L  2311.61,   171.76  " /><path style="stroke-width: 1.42 ;&st7;  " d=" M  2226.63,   171.76  L  2235.13,   171.76  " /><text style="font-size:6px;font-family:'NSimSun';" transform="matrix(&st17;  2112.45  224.32 )">L</text><text style="font-size:6px;font-family:'NSimSun';" transform="matrix(&st17;  2171.94  139.33 )">L</text><path style="stroke-width: 1.42 ;&st7;  " d=" M  2167.14,   171.76  L  2175.64,   171.76  " /><path style="stroke-width: 1.42 ;&st7;  " d=" M  2447.59,   171.76  L  2456.09,   171.76  " /><path style="stroke-width: 1.42 ;&st7;  " d=" M  2393.07,   494.70  L  2388.10,   499.67  " /><path style="stroke-width: 1.42 ;&st7;  " d=" M  2400.13,   511.70  L  2405.10,   506.73  " /><path style="stroke-width: 1.42 ;&st7;  " d=" M  2388.10,   506.73  L  2393.07,   511.70  " /><path style="stroke-width: 1.42 ;&st7;  " d=" M  2405.10,   499.67  L  2400.13,   494.70  " /><text style="font-size:6px;font-family:'NSimSun';" transform="matrix(&st17;  2367.41  224.36 )">R</text><text style="font-size:6px;font-family:'NSimSun';" transform="matrix(&st17;  2392.9  449.67 )">W-B</text><text style="font-size:6px;font-family:'NSimSun';" transform="matrix(&st17;  2392.9  619.64 )">W-B</text><text style="font-size:6px;font-family:'NSimSun';" transform="matrix(&st17;  2452.39  141.58 )">GR</text><text style="font-size:6px;font-family:'NSimSun';" transform="matrix(&st17;  2452.39  226.57 )">GR</text><g ewd:figtype="rb" ewd:figID="18" ewd:code="FUSE2"><path style="stroke-width: 0.85 ;&st7;  " d=" M  2116.15,   163.26  L  2116.15,   188.75  " /><path style="stroke-width: 1.42 ;&st7;  " d=" M  2118.27,   188.75  L  2114.02,   188.75  " /><path style="stroke-width: 1.42 ;&st7;  " d=" M  2118.27,   197.25  L  2114.02,   197.25  " /><path style="stroke-width: 1.42 ;&st7;   " d=" M  2114.02,   188.75  C  2111.67    188.75   2109.77    190.66   2109.77    193.00  " /><path style="stroke-width: 1.42 ;&st7;   " d=" M  2109.77,   193.00  C  2109.77    195.35   2111.67    197.25   2114.02    197.25  " /><path style="stroke-width: 1.42 ;&st7;   " d=" M  2118.27,   197.25  C  2120.62    197.25   2122.52    195.35   2122.52    193.00  " /><path style="stroke-width: 1.42 ;&st7;   " d=" M  2122.52,   193.00  C  2122.52    190.66   2120.62    188.75   2118.27    188.75  " /><path style="stroke-width: 0.28 ;&st9;  " d=" M  2116.15,   183.86  L  2113.31,   181.03  L  2113.31,   185.28  L  2116.15,   188.11  L  2118.98,   185.28  L  2118.98,   181.03  L  2116.15,   183.86  " /><text style="font-size:6px;font-family:'NSimSun';" transform="matrix(&st16;  2132.57  149.65 )">7.5A <tspan x="0 " dy="6.0">AM2</tspan></text><text style="font-size:6px;font-family:'NSimSun';" transform="matrix(&st16;  2114.35  194.97 )">1</text><text style="font-size:6px;font-family:'NSimSun';" transform="matrix(&st16;  2109.96  179.95 )">2</text><text style="font-size:6px;font-family:'NSimSun';" transform="matrix(&st16;  2108.1  125.57 )">(BAT)</text><path style="stroke-width: 1.42 ;&st7;   " d=" M  2116.15,   140.60  C  2113.41    142.21   2112.50    145.74   2114.11    148.47  " /><path style="stroke-width: 1.42 ;&st7;   " d=" M  2114.11,   148.47  C  2114.63    149.36   2115.26    149.99   2116.15    150.51  " /><path style="stroke-width: 1.42 ;&st7;   " d=" M  2116.15,   160.43  C  2118.88    158.81   2119.80    155.28   2118.18    152.55  " /><path style="stroke-width: 1.42 ;&st7;   " d=" M  2118.18,   152.55  C  2117.66    151.67   2117.03    151.03   2116.15    150.51  " /><path style="stroke-width: 0.85 ;&st7;   " d=" M  2117.56,   139.18  C  2117.56    138.40   2116.93    137.76   2116.15    137.76  " /><path style="stroke-width: 0.85 ;&st7;   " d=" M  2116.15,   137.76  C  2115.36    137.76   2114.73    138.40   2114.73    139.18  " /><path style="stroke-width: 0.85 ;&st7;   " d=" M  2114.73,   139.18  C  2114.73    139.96   2115.36    140.60   2116.15    140.60  " /><path style="stroke-width: 0.85 ;&st7;   " d=" M  2116.15,   140.60  C  2116.93    140.60   2117.56    139.96   2117.56    139.18  " /><path style="stroke-width: 0.85 ;&st7;   " d=" M  2117.56,   161.84  C  2117.56    161.06   2116.93    160.43   2116.15    160.43  " /><path style="stroke-width: 0.85 ;&st7;   " d=" M  2116.15,   160.43  C  2115.36    160.43   2114.73    161.06   2114.73    161.84  " /><path style="stroke-width: 0.85 ;&st7;   " d=" M  2114.73,   161.84  C  2114.73    162.62   2115.36    163.26   2116.15    163.26  " /><path style="stroke-width: 0.85 ;&st7;   " d=" M  2116.15,   163.26  C  2116.93    163.26   2117.56    162.62   2117.56    161.84  " /><path style="stroke-width: 1.42 ;&st7;  " d=" M  2103.40,   129.26  L  2103.40,   171.76  L  2128.89,   171.76  L  2128.89,   129.26  L  2103.40,   129.26  " /></g><g ewd:figtype="conn" ewd:figID="20" ewd:code="E28"><g ewd:lineID="43"><text style="font-size:6px;font-family:'NSimSun';" transform="matrix(&st16;  2007.98  383.92 )">5</text><text style="font-size:6px;font-family:'NSimSun';" transform="matrix(&st16;  2007.52  372.03 )">GND</text></g></g><g ewd:figtype="conn" ewd:figID="22" ewd:code="E71"><path style="stroke-width: 1.42 ;&st7;  " d=" M  2005.66,   511.70  L  2022.66,   511.70  L  2022.66,   528.70  L  2005.66,   528.70  L  2005.66,   511.70  " /><path style="stroke-width: 0.85 ;&st7;  " d=" M  2014.16,   511.70  L  2014.16,   528.70  " /><text style="font-size:6px;font-family:'NSimSun';" transform="matrix(&st16;  2007.98  536.89 )">1</text><text style="font-size:6px;font-family:'NSimSun';" transform="matrix(&st16;  2007.98  508.01 )">6</text><g ewd:figtype="title"><text style="font-size:6px;font-family:'NSimSun';" transform="matrix(&st17;  2037.38  531.6 )" ewd:textID="44">4 号接线连接器</text><text style="font-size:6px;font-family:'NSimSun';" transform="matrix(&st17;  2030.56  531.6 )">E71</text></g></g><g ewd:figtype="rb" ewd:figID="23" ewd:code="FUSE19"><path style="stroke-width: 0.85 ;&st7;  " d=" M  2371.10,   171.76  L  2371.10,   188.75  " /><path style="stroke-width: 1.42 ;&st7;  " d=" M  2373.23,   197.25  L  2368.98,   197.25  " /><path style="stroke-width: 1.42 ;&st7;  " d=" M  2373.23,   188.75  L  2368.98,   188.75  " /><path style="stroke-width: 1.42 ;&st7;   " d=" M  2377.48,   193.00  C  2377.48    190.66   2375.58    188.75   2373.23    188.75  " /><path style="stroke-width: 1.42 ;&st7;   " d=" M  2373.23,   197.25  C  2375.58    197.25   2377.48    195.35   2377.48    193.00  " /><path style="stroke-width: 1.42 ;&st7;   " d=" M  2364.73,   193.00  C  2364.73    195.35   2366.63    197.25   2368.98    197.25  " /><path style="stroke-width: 1.42 ;&st7;   " d=" M  2368.98,   188.75  C  2366.63    188.75   2364.73    190.66   2364.73    193.00  " /><path style="stroke-width: 0.28 ;&st9;  " d=" M  2371.10,   183.86  L  2368.27,   181.03  L  2368.27,   185.28  L  2371.10,   188.11  L  2373.94,   185.28  L  2373.94,   181.03  L  2371.10,   183.86  " /><text style="font-size:6px;font-family:'NSimSun';" transform="matrix(&st16;  2363.06  125.57 )">(BAT)</text><text style="font-size:6px;font-family:'NSimSun';" transform="matrix(&st16;  2364.92  179.95 )">2</text><text style="font-size:6px;font-family:'NSimSun';" transform="matrix(&st16;  2369.3  194.97 )">1</text><text style="font-size:6px;font-family:'NSimSun';" transform="matrix(&st16;  2387.53  149.65 )">15A <tspan x="0 " dy="6.0">IG2</tspan></text><path style="stroke-width: 0.85 ;&st7;  " d=" M  2371.10,   163.26  L  2371.10,   171.76  " /><path style="stroke-width: 0.85 ;&st7;   " d=" M  2372.52,   161.84  C  2372.52    161.06   2371.89    160.43   2371.10    160.43  " /><path style="stroke-width: 0.85 ;&st7;   " d=" M  2371.10,   160.43  C  2370.32    160.43   2369.69    161.06   2369.69    161.84  " /><path style="stroke-width: 0.85 ;&st7;   " d=" M  2369.69,   161.84  C  2369.69    162.62   2370.32    163.26   2371.10    163.26  " /><path style="stroke-width: 0.85 ;&st7;   " d=" M  2371.10,   163.26  C  2371.89    163.26   2372.52    162.62   2372.52    161.84  " /><path style="stroke-width: 0.85 ;&st7;   " d=" M  2372.52,   139.18  C  2372.52    138.40   2371.89    137.76   2371.10    137.76  " /><path style="stroke-width: 0.85 ;&st7;   " d=" M  2371.10,   137.76  C  2370.32    137.76   2369.69    138.40   2369.69    139.18  " /><path style="stroke-width: 0.85 ;&st7;   " d=" M  2369.69,   139.18  C  2369.69    139.96   2370.32    140.60   2371.10    140.60  " /><path style="stroke-width: 0.85 ;&st7;   " d=" M  2371.10,   140.60  C  2371.89    140.60   2372.52    139.96   2372.52    139.18  " /><path style="stroke-width: 1.42 ;&st7;   " d=" M  2371.10,   160.43  C  2373.84    158.81   2374.75    155.28   2373.14    152.55  " /><path style="stroke-width: 1.42 ;&st7;   " d=" M  2373.14,   152.55  C  2372.62    151.67   2371.99    151.03   2371.10    150.51  " /><path style="stroke-width: 1.42 ;&st7;   " d=" M  2371.10,   140.60  C  2368.37    142.21   2367.45    145.74   2369.07    148.47  " /><path style="stroke-width: 1.42 ;&st7;   " d=" M  2369.07,   148.47  C  2369.59    149.36   2370.22    149.99   2371.10    150.51  " /><path style="stroke-width: 1.42 ;&st7;  " d=" M  2358.35,   129.26  L  2358.35,   171.76  L  2383.85,   171.76  L  2383.85,   129.26  L  2358.35,   129.26  " /></g><g ewd:figtype="rb" ewd:figID="24" ewd:code="1"><path style="stroke-width: 1.42 ;&st7;  " d=" M  2398.72,   384.22  L  2394.47,   384.22  " /><path style="stroke-width: 1.42 ;&st7;  " d=" M  2398.72,   375.72  L  2394.47,   375.72  " /><path style="stroke-width: 1.42 ;&st7;  " d=" M  2398.72,   290.74  L  2394.47,   290.74  " /><path style="stroke-width: 1.42 ;&st7;  " d=" M  2398.72,   282.24  L  2394.47,   282.24  " /><path style="stroke-width: 1.42 ;&st7;  " d=" M  2373.23,   290.74  L  2368.98,   290.74  " /><path style="stroke-width: 1.42 ;&st7;  " d=" M  2373.23,   282.24  L  2368.98,   282.24  " /><path style="stroke-width: 1.42 ;&st7;   " d=" M  2398.72,   384.22  C  2401.07    384.22   2402.97    382.32   2402.97    379.97  " /><path style="stroke-width: 1.42 ;&st7;   " d=" M  2390.23,   379.97  C  2390.23    382.32   2392.13    384.22   2394.47    384.22  " /><path style="stroke-width: 1.42 ;&st7;   " d=" M  2394.47,   375.72  C  2392.13    375.72   2390.23    377.63   2390.23    379.97  " /><path style="stroke-width: 1.42 ;&st7;   " d=" M  2371.10,   375.72  C  2368.89    373.90   2365.76    373.96   2363.62    375.86  " /><path style="stroke-width: 1.42 ;&st7;   " d=" M  2371.10,   375.72  C  2373.32    377.54   2376.45    377.49   2378.59    375.58  " /><path style="stroke-width: 1.42 ;&st7;   " d=" M  2402.97,   286.49  C  2402.97    284.14   2401.07    282.24   2398.72    282.24  " /><path style="stroke-width: 1.42 ;&st7;   " d=" M  2398.72,   290.74  C  2401.07    290.74   2402.97    288.83   2402.97    286.49  " /><path style="stroke-width: 1.42 ;&st7;   " d=" M  2390.23,   286.49  C  2390.23    288.83   2392.13    290.74   2394.47    290.74  " /><path style="stroke-width: 1.42 ;&st7;   " d=" M  2394.47,   282.24  C  2392.13    282.24   2390.23    284.14   2390.23    286.49  " /><path style="stroke-width: 1.42 ;&st7;   " d=" M  2377.48,   286.49  C  2377.48    284.14   2375.58    282.24   2373.23    282.24  " /><path style="stroke-width: 1.42 ;&st7;   " d=" M  2373.23,   290.74  C  2375.58    290.74   2377.48    288.83   2377.48    286.49  " /><path style="stroke-width: 1.42 ;&st7;   " d=" M  2364.73,   286.49  C  2364.73    288.83   2366.63    290.74   2368.98    290.74  " /><path style="stroke-width: 1.42 ;&st7;   " d=" M  2368.98,   282.24  C  2366.63    282.24   2364.73    284.14   2364.73    286.49  " /><path style="stroke-width: 0.85 ;&st7;  " d=" M  2396.60,   375.72  L  2396.60,   350.23  " /><path style="stroke-width: 0.85 ;&st7;  " d=" M  2371.10,   375.72  L  2371.10,   350.23  " /><path style="stroke-width: 0.85 ;&st7;  " d=" M  2396.60,   316.23  L  2396.60,   290.74  " /><path style="stroke-width: 0.85 ;&st7;  " d=" M  2371.10,   316.23  L  2371.10,   290.74  " /><path style="stroke-width: 0.28 ;&st9;  " d=" M  2396.60,   370.83  L  2393.77,   367.99  L  2393.77,   372.24  L  2396.60,   375.08  L  2399.43,   372.24  L  2399.43,   367.99  L  2396.60,   370.83  " /><path style="stroke-width: 0.28 ;&st9;  " d=" M  2396.60,   295.63  L  2399.43,   298.46  L  2399.43,   294.22  L  2396.60,   291.38  L  2393.77,   294.22  L  2393.77,   298.46  L  2396.60,   295.63  " /><path style="stroke-width: 0.28 ;&st9;  " d=" M  2371.10,   295.63  L  2373.94,   298.46  L  2373.94,   294.22  L  2371.10,   291.38  L  2368.27,   294.22  L  2368.27,   298.46  L  2371.10,   295.63  " /><path style="stroke-width: 1.42 ;&st7;   " d=" M  2402.97,   379.97  C  2402.97    377.63   2401.07    375.72   2398.72    375.72  " /><text style="font-size:6px;font-family:'NSimSun';" transform="matrix(&st16;  2394.8  381.94 )">1</text><text style="font-size:6px;font-family:'NSimSun';" transform="matrix(&st16;  2394.8  288.46 )">1</text><text style="font-size:6px;font-family:'NSimSun';" transform="matrix(&st16;  2407.36  332.37 )" ewd:textID="32">IG2<tspan x="0 " dy="6.0">继电器</tspan></text><text style="font-size:6px;font-family:'NSimSun';" transform="matrix(&st16;  2369.3  288.46 )">1</text><text style="font-size:6px;font-family:'NSimSun';" transform="matrix(&st16;  2390.42  312.54 )">2</text><text style="font-size:6px;font-family:'NSimSun';" transform="matrix(&st16;  2364.92  312.54 )">3</text><text style="font-size:6px;font-family:'NSimSun';" transform="matrix(&st16;  2390.42  358.42 )">1</text><text style="font-size:6px;font-family:'NSimSun';" transform="matrix(&st16;  2364.92  358.42 )">5</text><path style="stroke-width: 0.85 ;&st7;  " d=" M  2396.60,   341.73  L  2396.60,   350.23  " /><path style="stroke-width: 0.85 ;&st7;  " d=" M  2396.60,   316.23  L  2396.60,   324.73  " /><path style="stroke-width: 0.85 ;&st7;  " d=" M  2371.10,   320.48  L  2371.10,   316.23  " /><path style="stroke-width: 0.85 ;&st7;  " d=" M  2371.10,   350.23  L  2371.10,   345.98  " /><path style="stroke-width: 1.42 ;&st7;  " d=" M  2371.10,   323.31  L  2365.44,   345.98  " /><path style="stroke-width: 0.85 ;&st7;   " d=" M  2396.60,   341.73  C  2398.56    341.73   2400.14    340.14   2400.14    338.19  " /><path style="stroke-width: 0.85 ;&st7;   " d=" M  2400.14,   338.19  C  2400.14    336.23   2398.56    334.65   2396.60    334.65  " /><path style="stroke-width: 0.85 ;&st7;   " d=" M  2396.60,   334.65  C  2395.61    334.65   2394.76    335.00   2394.07    335.71  " /><path style="stroke-width: 0.85 ;&st7;   " d=" M  2394.07,   335.71  C  2395.44    337.11   2397.68    337.13   2399.08    335.76  " /><path style="stroke-width: 0.85 ;&st7;   " d=" M  2399.08,   335.76  C  2400.48    334.39   2400.50    332.15   2399.13    330.75  " /><path style="stroke-width: 0.85 ;&st7;   " d=" M  2399.13,   330.75  C  2397.76    329.35   2395.52    329.33   2394.12    330.70  " /><path style="stroke-width: 0.85 ;&st7;   " d=" M  2394.12,   330.70  C  2394.10    330.72   2394.09    330.73   2394.07    330.75  " /><path style="stroke-width: 0.85 ;&st7;   " d=" M  2394.07,   330.75  C  2395.44    332.15   2397.68    332.17   2399.08    330.80  " /><path style="stroke-width: 0.85 ;&st7;   " d=" M  2399.08,   330.80  C  2400.48    329.43   2400.50    327.19   2399.13    325.79  " /><path style="stroke-width: 0.85 ;&st7;   " d=" M  2399.13,   325.79  C  2398.44    325.09   2397.59    324.73   2396.60    324.73  " /><path style="stroke-width: 0.85 ;&st7;   " d=" M  2372.52,   321.90  C  2372.52    321.12   2371.89    320.48   2371.10    320.48  " /><path style="stroke-width: 0.85 ;&st7;   " d=" M  2371.10,   320.48  C  2370.32    320.48   2369.69    321.12   2369.69    321.90  " /><path style="stroke-width: 0.85 ;&st7;   " d=" M  2369.69,   321.90  C  2369.69    322.68   2370.32    323.31   2371.10    323.31  " /><path style="stroke-width: 0.85 ;&st7;   " d=" M  2371.10,   323.31  C  2371.89    323.31   2372.52    322.68   2372.52    321.90  " /><path style="stroke-width: 0.85 ;&st7;   " d=" M  2372.52,   344.56  C  2372.52    343.78   2371.89    343.14   2371.10    343.14  " /><path style="stroke-width: 0.85 ;&st7;   " d=" M  2371.10,   343.14  C  2370.32    343.14   2369.69    343.78   2369.69    344.56  " /><path style="stroke-width: 0.85 ;&st7;   " d=" M  2369.69,   344.56  C  2369.69    345.34   2370.32    345.98   2371.10    345.98  " /><path style="stroke-width: 0.85 ;&st7;   " d=" M  2371.10,   345.98  C  2371.89    345.98   2372.52    345.34   2372.52    344.56  " /><path style="stroke-width: 1.42 ;&st7;  " d=" M  2405.10,   316.23  L  2362.60,   316.23  L  2362.60,   350.23  L  2405.10,   350.23  L  2405.10,   316.23  " /></g><g ewd:figtype="conn" ewd:figID="37" ewd:code="E47,E48,E49"><g ewd:lineID="40-T"><text style="font-size:6px;font-family:'NSimSun';" transform="matrix(&st16;  2019.36  101.77 )">12</text><text style="font-size:6px;font-family:'NSimSun';" transform="matrix(&st16;  2028.86  101.77 )">A</text><path style="stroke-width: 1.42 ;&st7;   " d=" M  2035.69,    99.80  C  2035.69     97.30   2033.66     95.27   2031.16     95.27  " /><path style="stroke-width: 1.42 ;&st7;   " d=" M  2031.16,    95.27  C  2028.66     95.27   2026.63     97.30   2026.63     99.80  " /><path style="stroke-width: 1.42 ;&st7;   " d=" M  2026.63,    99.80  C  2026.63    102.31   2028.66    104.33   2031.16    104.33  " /><path style="stroke-width: 1.42 ;&st7;   " d=" M  2031.16,   104.33  C  2033.66    104.33   2035.69    102.31   2035.69     99.80  " /><text style="font-size:6px;font-family:'NSimSun';" transform="matrix(&st16;  2022.23  91.57 )">DUMY</text></g><g ewd:lineID="45"><text style="font-size:6px;font-family:'NSimSun';" transform="matrix(&st16;  2166.94  101.77 )">2</text><path style="stroke-width: 1.42 ;&st7;   " d=" M  2180.17,    99.80  C  2180.17     97.30   2178.14     95.27   2175.64     95.27  " /><path style="stroke-width: 1.42 ;&st7;   " d=" M  2175.64,    95.27  C  2173.13     95.27   2171.10     97.30   2171.10     99.80  " /><path style="stroke-width: 1.42 ;&st7;   " d=" M  2171.10,    99.80  C  2171.10    102.31   2173.13    104.33   2175.64    104.33  " /><path style="stroke-width: 1.42 ;&st7;   " d=" M  2175.64,   104.33  C  2178.14    104.33   2180.17    102.31   2180.17     99.80  " /><text style="font-size:6px;font-family:'NSimSun';" transform="matrix(&st16;  2173.33  101.77 )">A</text><text style="font-size:6px;font-family:'NSimSun';" transform="matrix(&st16;  2171.9  91.57 )">+B</text></g><g ewd:lineID="46"><text style="font-size:6px;font-family:'NSimSun';" transform="matrix(&st16;  2226.43  101.77 )">5</text><text style="font-size:6px;font-family:'NSimSun';" transform="matrix(&st16;  2232.82  101.77 )">A</text><path style="stroke-width: 1.42 ;&st7;   " d=" M  2239.66,    99.80  C  2239.66     97.30   2237.63     95.27   2235.13     95.27  " /><path style="stroke-width: 1.42 ;&st7;   " d=" M  2235.13,    95.27  C  2232.62     95.27   2230.59     97.30   2230.59     99.80  " /><path style="stroke-width: 1.42 ;&st7;   " d=" M  2230.59,    99.80  C  2230.59    102.31   2232.62    104.33   2235.13    104.33  " /><path style="stroke-width: 1.42 ;&st7;   " d=" M  2235.13,   104.33  C  2237.63    104.33   2239.66    102.31   2239.66     99.80  " /><text style="font-size:6px;font-family:'NSimSun';" transform="matrix(&st16;  2227.47  91.57 )">STAR</text></g><g ewd:lineID="47"><text style="font-size:6px;font-family:'NSimSun';" transform="matrix(&st16;  2302.92  101.77 )">7</text><text style="font-size:6px;font-family:'NSimSun';" transform="matrix(&st16;  2309.31  101.77 )">A</text><path style="stroke-width: 1.42 ;&st7;   " d=" M  2316.15,    99.80  C  2316.15     97.30   2314.12     95.27   2311.61     95.27  " /><path style="stroke-width: 1.42 ;&st7;   " d=" M  2311.61,    95.27  C  2309.11     95.27   2307.08     97.30   2307.08     99.80  " /><path style="stroke-width: 1.42 ;&st7;   " d=" M  2307.08,    99.80  C  2307.08    102.31   2309.11    104.33   2311.61    104.33  " /><path style="stroke-width: 1.42 ;&st7;   " d=" M  2311.61,   104.33  C  2314.12    104.33   2316.15    102.31   2316.15     99.80  " /><text style="font-size:6px;font-family:'NSimSun';" transform="matrix(&st16;  2305.82  91.57 )">STA</text></g><g ewd:lineID="52"><text style="font-size:6px;font-family:'NSimSun';" transform="matrix(&st16;  2447.4  101.77 )">9</text><path style="stroke-width: 1.42 ;&st7;   " d=" M  2460.62,    99.80  C  2460.62     97.30   2458.59     95.27   2456.09     95.27  " /><path style="stroke-width: 1.42 ;&st7;   " d=" M  2456.09,    95.27  C  2453.59     95.27   2451.56     97.30   2451.56     99.80  " /><path style="stroke-width: 1.42 ;&st7;   " d=" M  2451.56,    99.80  C  2451.56    102.31   2453.59    104.33   2456.09    104.33  " /><path style="stroke-width: 1.42 ;&st7;   " d=" M  2456.09,   104.33  C  2458.59    104.33   2460.62    102.31   2460.62     99.80  " /><text style="font-size:6px;font-family:'NSimSun';" transform="matrix(&st16;  2453.79  101.77 )">A</text><text style="font-size:6px;font-family:'NSimSun';" transform="matrix(&st16;  2449.05  91.57 )">IG2D</text></g><g ewd:lineID="53"><text style="font-size:6px;font-family:'NSimSun';" transform="matrix(&st16;  2495.29  101.77 )">11</text></g></g><g ewd:figtype="w2w" ewd:figID="89" ewd:code="AE3"><path style="stroke-width: 1.42 ;&st7;  " d=" M  2171.39,   162.69  L  2175.64,   166.94  L  2179.88,   162.69  " /><path style="stroke-width: 1.42 ;&st7;  " d=" M  2179.88,   166.09  L  2175.64,   170.34  L  2171.39,   166.09  " /><text style="font-size:6px;font-family:'NSimSun';" transform="matrix(&st16;  2163.0  177.98 )">3</text></g><g ewd:figtype="w2w" ewd:figID="90" ewd:code="AE2"><text style="font-size:6px;font-family:'NSimSun';" transform="matrix(&st16;  2219.39  177.98 )">10</text><path style="stroke-width: 1.42 ;&st7;  " d=" M  2239.37,   166.09  L  2235.13,   170.34  L  2230.88,   166.09  " /><path style="stroke-width: 1.42 ;&st7;  " d=" M  2230.88,   162.69  L  2235.13,   166.94  L  2239.37,   162.69  " /></g><g ewd:figtype="w2w" ewd:figID="91" ewd:code="AE2"><text style="font-size:6px;font-family:'NSimSun';" transform="matrix(&st16;  2298.98  177.98 )">1</text><path style="stroke-width: 1.42 ;&st7;  " d=" M  2315.86,   166.09  L  2311.61,   170.34  L  2307.36,   166.09  " /><path style="stroke-width: 1.42 ;&st7;  " d=" M  2307.36,   162.69  L  2311.61,   166.94  L  2315.86,   162.69  " /></g><g ewd:figtype="w2w" ewd:figID="92" ewd:code="AE3"><path style="stroke-width: 1.42 ;&st7;  " d=" M  2460.34,   166.09  L  2456.09,   170.34  L  2451.84,   166.09  " /><path style="stroke-width: 1.42 ;&st7;  " d=" M  2451.84,   162.69  L  2456.09,   166.94  L  2460.34,   162.69  " /><text style="font-size:6px;font-family:'NSimSun';" transform="matrix(&st16;  2443.46  177.98 )">4</text></g><g ewd:figtype="gp" ewd:figID="147" ewd:code="EB"><path style="stroke-width: 0.85 ;&st7;  " d=" M  2014.16,   697.25  L  2014.16,   701.50  " /><path style="stroke-width: 0.85 ;&st7;  " d=" M  2005.66,   701.50  L  2022.66,   701.50  " /><path style="stroke-width: 0.85 ;&st7;  " d=" M  2009.91,   704.33  L  2018.41,   704.33  " /><path style="stroke-width: 0.85 ;&st7;  " d=" M  2011.33,   707.17  L  2017.00,   707.17  " /><path style="stroke-width: 0.85 ;&st7;  " d=" M  2012.75,   710.00  L  2015.58,   710.00  " /></g><g ewd:figtype="gp" ewd:figID="148" ewd:code="AB"><path style="stroke-width: 0.85 ;&st7;  " d=" M  2395.18,   710.00  L  2398.01,   710.00  " /><path style="stroke-width: 0.85 ;&st7;  " d=" M  2393.77,   707.17  L  2399.43,   707.17  " /><path style="stroke-width: 0.85 ;&st7;  " d=" M  2392.35,   704.33  L  2400.85,   704.33  " /><path style="stroke-width: 0.85 ;&st7;  " d=" M  2388.10,   701.50  L  2405.10,   701.50  " /><path style="stroke-width: 0.85 ;&st7;  " d=" M  2396.60,   697.25  L  2396.60,   701.50  " /></g><g ewd:figtype="gp" ewd:figID="149" ewd:code="ED"><path style="stroke-width: 0.85 ;&st7;  " d=" M  2505.66,   710.00  L  2508.50,   710.00  " /><path style="stroke-width: 0.85 ;&st7;  " d=" M  2504.25,   707.17  L  2509.91,   707.17  " /><path style="stroke-width: 0.85 ;&st7;  " d=" M  2502.83,   704.33  L  2511.33,   704.33  " /><path style="stroke-width: 0.85 ;&st7;  " d=" M  2498.58,   701.50  L  2515.58,   701.50  " /><path style="stroke-width: 0.85 ;&st7;  " d=" M  2507.08,   697.25  L  2507.08,   701.50  " /></g></svg>