<?xml version="1.0" encoding="utf-8"?>
<!DOCTYPE svg PUBLIC "-//W3C//DTD SVG 1.0//EN" "http://www.w3.org/TR/2001/REC-SVG-20010904/DTD/svg10.dtd"[
	<!ENTITY ns_flows "http://ns.adobe.com/Flows/1.0/">
	<!ENTITY ns_svg "http://www.w3.org/2000/svg">
	<!ENTITY ns_xlink "http://www.w3.org/1999/xlink">
	<!ENTITY st0 "font-size:7px;font-family:'NSimSun';adobe-font-script:japanese;">
	<!ENTITY st1 "font-size:6px;font-family:'NSimSun';">
	<!-- White fill  -->
	<!ENTITY st2 "fill:#FFFFFF;stroke:#000000; stroke-width:1.41;stroke-linecap:round;stroke-linejoin:round;">
	<!-- Yellow fill  -->
	<!ENTITY st3 "fill:#FFFFCC;stroke:#FFFFCC; stroke-width:0.1;stroke-linecap:round;stroke-linejoin:round;">
	<!-- Gray fill  -->
	<!ENTITY st4 "fill:#CCCCCC;stroke:#CCCCCC; stroke-width:0.1;stroke-linecap:round;stroke-linejoin:round;">
	<!-- Light-blue fill -->
	<!ENTITY st5 "fill:#CCECF4;stroke:#000000; stroke-width:1.133;stroke-linecap:round;stroke-linejoin:round;">
	<!ENTITY st6 "fill:none;stroke-linecap:butt; stroke-linejoin:round;">
	<!ENTITY st7 "fill:none;stroke:#000000;stroke-linecap:round;stroke-linejoin:round;">
	<!ENTITY st8 "enable-background:new    ;">
	<!-- Black fill -->
	<!ENTITY st9 "fill:#000000;stroke:#000000; stroke-linecap:round;stroke-linejoin:round;">
	<!-- SRS note   -->
	<!ENTITY st10 "font-size:9px;font-family:'NSimSun';">
	<!ENTITY st11 "font-size:9px;font-family:'NSimSun';">
	<!ENTITY st12 "font-size:6px;font-family:'NSimSun';">
	<!ENTITY st13 "fill:none;stroke:#ff0000;stroke-linecap:round;stroke-linejoin:round;">
	<!-- Yellow fill  -->
	<!ENTITY st14 "fill:#FFFF00;stroke:#FFFF00; stroke-width:0.1;stroke-linecap:round;stroke-linejoin:round;">
	<!ENTITY st15 "font-size:6px;font-family:'NSimSun';adobe-font-script:japanese;">
	<!ENTITY st16 "1.00 0.00 0.00 1.00">
	<!ENTITY st17 "0.00 -1.00 1.00 0.00">
	<!ENTITY st18 "font-size:6px;font-family:'NSimSun';">
	<!ENTITY st19 "font-size:9px;font-family:'NSimSun';">
	<!ENTITY st20 "font-size:6px;font-family:'NSimSun';adobe-font-script:japanese;">
	<!ENTITY st21 "font-size:7px;font-family:'NSimSun';adobe-font-script:japanese;">
	<!ATTLIST svg
		xmlns:ewd CDATA #FIXED "http://shcl.co.jp/ewd"
		xmlns:a CDATA #FIXED "http://ns.adobe.com/AdobeSVGViewerExtensions/3.0/"
		ewd:ver CDATA #IMPLIED
	>
	<!ATTLIST a
		ewd:lineID CDATA #IMPLIED
		ewd:groupID CDATA #IMPLIED
		ewd:figtype CDATA #IMPLIED
		ewd:code CDATA #IMPLIED
		ewd:figID CDATA #IMPLIED
		ewd:pinNo CDATA #IMPLIED
		ewd:comment CDATA #IMPLIED >
	<!ATTLIST g
		ewd:lineID CDATA #IMPLIED
		ewd:groupID CDATA #IMPLIED
		ewd:figtype CDATA #IMPLIED
		ewd:code CDATA #IMPLIED
		ewd:figID CDATA #IMPLIED
		ewd:pinNo CDATA #IMPLIED
		ewd:comment CDATA #IMPLIED >
	<!ATTLIST text
		ewd:textID CDATA #IMPLIED
		ewd:horAlign CDATA #IMPLIED >
	<!ATTLIST title
		ewd:textID CDATA #IMPLIED >
]>
<!-- Generator: Shintec Hozumi YS   -->
<svg onload="call_execInitLoadProc_svg('system')" style="overflow:visible;  enable-background:new 0 0 960.865 710.000" viewBox="0 0 965.331 710.000" height="710.000" width="965.331" xml:space="preserve" ewd:ver="2.1.2.6F" xmlns="&ns_svg;" xmlns:ewd="http://shcl.co.jp/ewd" xmlns:a="http://ns.adobe.com/AdobeSVGViewerExtensions/3.0/" xmlns:xlink="&ns_xlink;">
<path style="stroke-width: 1.42 ;&st7;  " d=" M   608.37,   231.25  L   603.40,   236.22  " /><path style="stroke-width: 1.42 ;&st7;  " d=" M   620.40,   236.22  L   615.42,   231.25  " /><path style="stroke-width: 1.42 ;&st7;  " d=" M   603.40,   243.27  L   608.37,   248.24  " /><path style="stroke-width: 1.42 ;&st7;  " d=" M   615.42,   248.24  L   620.40,   243.27  " /><path style="stroke-width: 1.42 ;&st7;  " d=" M   875.35,   511.70  L   866.86,   511.70  " /><path style="stroke-width: 1.42 ;&st7;  " d=" M   858.36,   341.73  L   866.86,   341.73  " /><text style="font-size:6px;font-family:'NSimSun';" transform="matrix(&st16;  631.15  522.43 )">L56</text><text style="font-size:6px;font-family:'NSimSun';" transform="matrix(&st16;  631.16  529.25 )" ewd:textID="4">8 号接线连接器</text><text style="font-size:6px;font-family:'NSimSun';" transform="matrix(&st17;  616.7  594.14 )">W-B</text><text style="font-size:6px;font-family:'NSimSun';" transform="matrix(&st17;  738.51  483.97 )">(*13)</text><text style="font-size:6px;font-family:'NSimSun';" transform="matrix(&st17;  628.03  483.97 )">(*14)</text><text style="font-size:6px;font-family:'NSimSun';" transform="matrix(&st17;  755.51  347.99 )">(*13)</text><text style="font-size:6px;font-family:'NSimSun';" transform="matrix(&st17;  619.53  347.99 )">(*14)</text><text style="font-size:6px;font-family:'NSimSun';" transform="matrix(&st17;  863.16  292.31 )">L</text><text style="font-size:6px;font-family:'NSimSun';" transform="matrix(&st17;  863.16  483.66 )">W-B</text><text style="font-size:6px;font-family:'NSimSun';" transform="matrix(&st16;  541.84  236.05 )">L</text><text style="font-size:6px;font-family:'NSimSun';" transform="matrix(&st17;  939.65  232.82 )">L</text><text style="font-size:6px;font-family:'NSimSun';" transform="matrix(&st17;  608.2  343.3 )">L</text><text style="font-size:6px;font-family:'NSimSun';" transform="matrix(&st17;  744.18  343.3 )">L</text><text style="font-size:6px;font-family:'NSimSun';" transform="matrix(&st16;  677.81  202.05 )">L</text><text style="font-size:6px;font-family:'NSimSun';" transform="matrix(&st17;  863.16  594.14 )">W-B</text><text style="font-size:6px;font-family:'NSimSun';" transform="matrix(&st17;  863.16  377.3 )">L</text><text style="font-size:6px;font-family:'NSimSun';" transform="matrix(&st17;  616.7  483.66 )">W-B</text><text style="font-size:6px;font-family:'NSimSun';" transform="matrix(&st17;  727.18  483.66 )">W-B</text><g ewd:figtype="conn" ewd:figID="1" ewd:code="L27"><path style="stroke-width: 0.85 ;&st7;  " d=" M   752.12,   426.71  L   743.63,   426.71  " /><path style="stroke-width: 0.85 ;&st7;  " d=" M   721.26,   424.77  L   728.62,   420.52  " /><path style="stroke-width: 0.85 ;&st7;  " d=" M   726.61,   417.05  L   719.25,   421.30  " /><path style="stroke-width: 0.85 ;&st7;  " d=" M   718.13,   426.71  L   709.63,   426.71  " /><path style="stroke-width: 0.85 ;&st7;  " d=" M   755.25,   424.77  L   762.61,   420.52  " /><path style="stroke-width: 0.85 ;&st7;  " d=" M   760.61,   417.05  L   753.25,   421.30  " /><path style="stroke-width: 1.42 ;&st7;  " d=" M   696.88,   375.72  L   696.88,   452.21  L   764.87,   452.21  L   764.87,   375.72  L   696.88,   375.72  " /><path style="stroke-width: 0.85 ;&st7;  " d=" M   713.88,   426.71  L   713.88,   435.21  L   747.87,   435.21  L   747.87,   426.71  " /><path style="stroke-width: 0.85 ;&st7;  " d=" M   730.88,   435.21  L   730.88,   452.21  " /><path style="stroke-width: 0.85 ;&st7;  " d=" M   747.87,   418.22  L   747.87,   409.72  L   745.04,   408.30  L   750.71,   405.47  L   745.04,   402.63  L   750.71,   399.80  L   745.04,   396.97  L   750.71,   394.14  L   747.87,   392.72  L   747.87,   384.22  " /><path style="stroke-width: 0.85 ;&st7;  " d=" M   713.88,   418.22  L   713.88,   409.72  L   711.05,   408.30  L   716.71,   405.47  L   711.05,   402.63  L   716.71,   399.80  L   711.05,   396.97  L   716.71,   394.14  L   713.88,   392.72  L   713.88,   384.22  " /><path style="stroke-width: 0.85 ;&st7;  " d=" M   762.61,   420.52  L   760.28,   423.56  L   758.81,   421.02  L   762.61,   420.52  L   761.33,   421.26  L   760.34,   422.54  L   759.72,   421.47  L   761.33,   421.26  L   760.69,   421.63  L   760.38,   422.03  L   760.18,   421.70  L   760.69,   421.63  " /><path style="stroke-width: 0.85 ;&st7;  " d=" M   760.61,   417.05  L   758.27,   420.09  L   756.81,   417.55  L   760.61,   417.05  L   759.33,   417.79  L   758.34,   419.07  L   757.72,   418.00  L   759.33,   417.79  L   758.68,   418.16  L   758.37,   418.56  L   758.18,   418.23  L   758.68,   418.16  " /><path style="stroke-width: 0.28 ;&st9;  " d=" M   747.87,   426.71  L   742.21,   418.22  L   753.54,   418.22  L   747.87,   426.71  " /><path style="stroke-width: 0.85 ;&st7;  " d=" M   728.62,   420.52  L   726.28,   423.56  L   724.82,   421.02  L   728.62,   420.52  L   727.33,   421.26  L   726.35,   422.54  L   725.73,   421.47  L   727.33,   421.26  L   726.69,   421.63  L   726.38,   422.03  L   726.19,   421.70  L   726.69,   421.63  " /><path style="stroke-width: 0.85 ;&st7;  " d=" M   726.61,   417.05  L   724.28,   420.09  L   722.81,   417.55  L   726.61,   417.05  L   725.33,   417.79  L   724.35,   419.07  L   723.73,   418.00  L   725.33,   417.79  L   724.69,   418.16  L   724.38,   418.56  L   724.18,   418.23  L   724.69,   418.16  " /><path style="stroke-width: 0.28 ;&st9;  " d=" M   713.88,   426.71  L   708.21,   418.22  L   719.55,   418.22  L   713.88,   426.71  " /><path style="stroke-width: 1.42 ;&st7;   " d=" M   713.88,   384.22  C   716.09    386.04    719.22    385.98    721.37    384.08  " /><path style="stroke-width: 1.42 ;&st7;   " d=" M   713.88,   384.22  C   711.67    382.40    708.54    382.46    706.40    384.36  " /><text style="font-size:6px;font-family:'NSimSun';" transform="matrix(&st16;  733.46  448.52 )">E</text><text style="font-size:6px;font-family:'NSimSun';" transform="matrix(&st16;  750.46  383.92 )">STP</text><path style="stroke-width: 0.85 ;&st7;  " d=" M   729.68,   434.21  L   729.41,   434.68  L   729.32,   435.21  L   729.41,   435.75  L   729.68,   436.22  L   730.10,   436.56  L   730.61,   436.75  L   731.15,   436.75  L   731.66,   436.56  L   732.07,   436.22  L   732.34,   435.75  L   732.44,   435.21  L   732.34,   434.68  L   732.07,   434.21  L   731.66,   433.86  L   731.15,   433.68  L   730.61,   433.68  L   730.10,   433.86  L   729.68,   434.21  L   730.08,   434.92  L   730.08,   435.50  L   730.45,   435.95  L   731.02,   436.05  L   731.53,   435.76  L   731.73,   435.21  L   731.53,   434.67  L   731.02,   434.38  L   730.45,   434.48  L   730.88,   435.21  " /><path style="stroke-width: 0.85 ;&st7;  " d=" M   747.87,   384.22  L   747.87,   375.72  " /><text style="font-size:6px;font-family:'NSimSun';" transform="matrix(&st17;  740.21  427.95 )" ewd:textID="8">停止</text><text style="font-size:6px;font-family:'NSimSun';" transform="matrix(&st17;  706.22  427.02 )" ewd:textID="10">尾灯</text><text style="font-size:6px;font-family:'NSimSun';" transform="matrix(&st16;  741.69  372.03 )">1</text><text style="font-size:6px;font-family:'NSimSun';" transform="matrix(&st16;  724.69  460.4 )">4</text><g ewd:figtype="title"><text style="font-size:6px;font-family:'NSimSun';" transform="matrix(&st17;  779.59  455.12 )" ewd:textID="6">左后组合灯总成</text><text style="font-size:6px;font-family:'NSimSun';" transform="matrix(&st17;  772.48  455.11 )">L27</text></g></g><g ewd:figtype="conn" ewd:figID="2" ewd:code="L25"><path style="stroke-width: 1.42 ;&st7;  " d=" M   930.59,   288.61  L   922.10,   288.61  " /><path style="stroke-width: 1.42 ;&st7;  " d=" M   930.59,   284.36  L   922.10,   284.36  " /><path style="stroke-width: 0.85 ;&st7;  " d=" M   926.35,   284.36  L   926.35,   273.74  " /><path style="stroke-width: 0.85 ;&st7;  " d=" M   926.35,   299.24  L   926.35,   288.61  " /><path style="stroke-width: 1.42 ;&st7;  " d=" M   934.84,   273.74  L   917.85,   273.74  L   917.85,   299.24  L   934.84,   299.24  L   934.84,   273.74  " /><text style="font-size:6px;font-family:'NSimSun';" transform="matrix(&st16;  920.16  270.05 )">1</text><g ewd:figtype="title"><text style="font-size:6px;font-family:'NSimSun';" transform="matrix(&st17;  949.56  302.14 )" ewd:textID="5">静噪滤波器<tspan x="0 " dy="6.0">（收音机设定调相器）</tspan><tspan x="0" dy="6" style="font-size:6px;font-family:'NSimSun';" /></text><text style="font-size:6px;font-family:'NSimSun';" transform="matrix(&st17;  942.46  302.13 )">L25</text></g></g><g ewd:figtype="conn" ewd:figID="4" ewd:code="g1"><path style="stroke-width: 0.85 ;&st7;  " d=" M   874.23,   429.02  L   881.59,   424.77  " /><path style="stroke-width: 0.85 ;&st7;  " d=" M   879.59,   421.30  L   872.23,   425.55  " /><path style="stroke-width: 0.85 ;&st7;  " d=" M   871.10,   430.96  L   862.61,   430.96  " /><path style="stroke-width: 0.85 ;&st7;  " d=" M   866.85,   401.22  L   866.85,   452.21  " /><path style="stroke-width: 0.85 ;&st7;  " d=" M   881.59,   424.77  L   879.26,   427.81  L   877.79,   425.27  L   881.59,   424.77  L   880.31,   425.51  L   879.33,   426.79  L   878.70,   425.72  L   880.31,   425.51  L   879.67,   425.88  L   879.36,   426.28  L   879.16,   425.95  L   879.67,   425.88  " /><path style="stroke-width: 0.85 ;&st7;  " d=" M   879.59,   421.30  L   877.25,   424.34  L   875.79,   421.80  L   879.59,   421.30  L   878.31,   422.04  L   877.32,   423.32  L   876.70,   422.25  L   878.31,   422.04  L   877.66,   422.41  L   877.35,   422.81  L   877.16,   422.48  L   877.66,   422.41  " /><path style="stroke-width: 0.28 ;&st9;  " d=" M   866.85,   430.96  L   861.19,   422.46  L   872.52,   422.46  L   866.85,   430.96  " /><path style="stroke-width: 1.42 ;&st7;  " d=" M   841.36,   401.22  L   841.36,   452.21  L   892.35,   452.21  L   892.35,   401.22  L   841.36,   401.22  " /><text style="font-size:6px;font-family:'NSimSun';" transform="matrix(&st16;  869.44  409.41 )">B</text><text style="font-size:6px;font-family:'NSimSun';" transform="matrix(&st16;  869.44  448.52 )">E</text><text style="font-size:6px;font-family:'NSimSun';" transform="matrix(&st16;  860.67  460.4 )">2</text><text style="font-size:6px;font-family:'NSimSun';" transform="matrix(&st16;  860.67  397.53 )">1</text><g ewd:figtype="title"><text style="font-size:6px;font-family:'NSimSun';" transform="matrix(&st17;  907.07  455.12 )" ewd:textID="3">中央刹车灯总成</text><text style="font-size:6px;font-family:'NSimSun';" transform="matrix(&st17;  899.96  455.11 )">g1</text></g></g><g ewd:figtype="conn" ewd:figID="6" ewd:code="L3"><path style="stroke-width: 0.85 ;&st7;  " d=" M   611.90,   401.95  L   611.90,   409.72  " /><path style="stroke-width: 0.85 ;&st7;  " d=" M   620.40,   426.71  L   620.40,   418.22  " /><path style="stroke-width: 0.85 ;&st7;  " d=" M   628.89,   402.34  L   628.89,   409.72  " /><path style="stroke-width: 0.85 ;&st7;  " d=" M   612.51,   418.22  L   620.40,   418.22  " /><path style="stroke-width: 0.85 ;&st7;  " d=" M   620.40,   418.22  L   628.28,   418.22  " /><path style="stroke-width: 1.42 ;&st7;   " d=" M   628.89,   392.72  C   626.68    390.90    623.55    390.96    621.41    392.86  " /><path style="stroke-width: 0.85 ;&st7;   " d=" M   611.90,   409.80  C   610.39    410.18    609.48    411.72    609.86    413.22  " /><path style="stroke-width: 0.85 ;&st7;   " d=" M   609.86,   413.22  C   610.24    414.73    611.77    415.65    613.28    415.26  " /><path style="stroke-width: 0.85 ;&st7;   " d=" M   613.28,   415.26  C   614.04    415.07    614.62    414.64    615.01    413.97  " /><path style="stroke-width: 0.85 ;&st7;   " d=" M   615.01,   413.97  C   614.22    412.63    612.49    412.18    611.16    412.97  " /><path style="stroke-width: 0.85 ;&st7;   " d=" M   611.16,   412.97  C   609.82    413.77    609.37    415.49    610.16    416.83  " /><path style="stroke-width: 0.85 ;&st7;   " d=" M   610.16,   416.83  C   610.69    417.72    611.57    418.22    612.61    418.22  " /><path style="stroke-width: 0.85 ;&st7;   " d=" M   628.19,   418.22  C   629.74    418.22    631.01    416.97    631.02    415.42  " /><path style="stroke-width: 0.85 ;&st7;   " d=" M   631.02,   415.42  C   631.03    413.86    629.78    412.59    628.22    412.58  " /><path style="stroke-width: 0.85 ;&st7;   " d=" M   628.22,   412.58  C   627.19    412.58    626.31    413.08    625.78    413.97  " /><path style="stroke-width: 0.85 ;&st7;   " d=" M   625.78,   413.97  C   626.57    415.31    628.30    415.75    629.64    414.96  " /><path style="stroke-width: 0.85 ;&st7;   " d=" M   629.64,   414.96  C   630.98    414.17    631.42    412.44    630.63    411.10  " /><path style="stroke-width: 0.85 ;&st7;   " d=" M   630.63,   411.10  C   630.23    410.43    629.65    409.99    628.89    409.80  " /><path style="stroke-width: 1.42 ;&st7;   " d=" M   624.65,   426.71  C   631.69    426.71    637.39    421.01    637.39    413.97  " /><path style="stroke-width: 1.42 ;&st7;   " d=" M   637.39,   413.97  C   637.39    406.93    631.69    401.22    624.65    401.22  " /><path style="stroke-width: 1.42 ;&st7;   " d=" M   616.15,   401.22  C   609.11    401.22    603.40    406.93    603.40    413.97  " /><path style="stroke-width: 1.42 ;&st7;   " d=" M   603.40,   413.97  C   603.40    421.01    609.11    426.71    616.15    426.71  " /><path style="stroke-width: 0.85 ;&st7;  " d=" M   620.40,   426.71  L   620.40,   452.21  " /><path style="stroke-width: 0.85 ;&st7;  " d=" M   628.89,   401.95  L   628.89,   392.72  " /><path style="stroke-width: 0.85 ;&st7;  " d=" M   611.90,   401.22  L   611.90,   375.72  " /><path style="stroke-width: 1.42 ;&st7;  " d=" M   620.40,   401.22  L   616.15,   401.22  " /><path style="stroke-width: 1.42 ;&st7;  " d=" M   620.40,   426.71  L   616.15,   426.71  " /><path style="stroke-width: 1.42 ;&st7;  " d=" M   620.40,   401.22  L   624.65,   401.22  " /><path style="stroke-width: 1.42 ;&st7;  " d=" M   620.40,   426.71  L   624.65,   426.71  " /><path style="stroke-width: 0.85 ;&st7;  " d=" M   619.20,   417.21  L   618.93,   417.68  L   618.84,   418.22  L   618.93,   418.75  L   619.20,   419.22  L   619.62,   419.56  L   620.12,   419.75  L   620.67,   419.75  L   621.18,   419.56  L   621.59,   419.22  L   621.86,   418.75  L   621.95,   418.22  L   621.86,   417.68  L   621.59,   417.21  L   621.18,   416.87  L   620.67,   416.68  L   620.12,   416.68  L   619.62,   416.87  L   619.20,   417.21  L   619.60,   417.92  L   619.60,   418.51  L   619.97,   418.95  L   620.54,   419.05  L   621.05,   418.76  L   621.25,   418.22  L   621.05,   417.67  L   620.54,   417.38  L   619.97,   417.48  L   620.40,   418.22  " /><path style="stroke-width: 1.42 ;&st7;  " d=" M   654.39,   452.21  L   654.39,   375.72  L   586.40,   375.72  L   586.40,   452.21  L   654.39,   452.21  " /><path style="stroke-width: 1.42 ;&st7;   " d=" M   628.89,   392.72  C   631.11    394.54    634.24    394.48    636.38    392.58  " /><text style="font-size:6px;font-family:'NSimSun';" transform="matrix(&st17;  596.87  421.12 )" ewd:textID="8">停止</text><text style="font-size:6px;font-family:'NSimSun';" transform="matrix(&st17;  647.86  421.12 )" ewd:textID="10">尾灯</text><text style="font-size:6px;font-family:'NSimSun';" transform="matrix(&st16;  622.98  448.52 )">E</text><text style="font-size:6px;font-family:'NSimSun';" transform="matrix(&st16;  614.48  383.92 )">STP</text><text style="font-size:6px;font-family:'NSimSun';" transform="matrix(&st16;  605.71  372.03 )">3</text><text style="font-size:6px;font-family:'NSimSun';" transform="matrix(&st16;  614.21  460.4 )">1</text><g ewd:figtype="title"><text style="font-size:6px;font-family:'NSimSun';" transform="matrix(&st17;  662.0  455.11 )">L3</text><text style="font-size:6px;font-family:'NSimSun';" transform="matrix(&st17;  669.11  455.12 )" ewd:textID="6">左后组合灯总成</text></g></g><g ewd:figtype="w2w" ewd:figID="13" ewd:code="gL1"><path style="stroke-width: 1.42 ;&st7;  " d=" M   871.10,   517.37  L   866.85,   513.12  L   862.61,   517.37  " /><path style="stroke-width: 1.42 ;&st7;  " d=" M   871.10,   520.77  L   866.85,   516.52  L   862.61,   520.77  " /><text style="font-size:6px;font-family:'NSimSun';" transform="matrix(&st16;  854.22  509.42 )">2</text></g><g ewd:figtype="w2w" ewd:figID="14" ewd:code="gL1"><path style="stroke-width: 1.42 ;&st7;  " d=" M   871.10,   336.06  L   866.85,   340.31  L   862.61,   336.06  " /><path style="stroke-width: 1.42 ;&st7;  " d=" M   862.61,   332.66  L   866.85,   336.91  L   871.10,   332.66  " /><text style="font-size:6px;font-family:'NSimSun';" transform="matrix(&st16;  854.22  347.95 )">1</text></g><g ewd:figtype="gp" ewd:figID="16" ewd:code="LA"><path style="stroke-width: 0.85 ;&st7;  " d=" M   618.98,   710.00  L   621.81,   710.00  " /><path style="stroke-width: 0.85 ;&st7;  " d=" M   617.56,   707.17  L   623.23,   707.17  " /><path style="stroke-width: 0.85 ;&st7;  " d=" M   616.15,   704.33  L   624.65,   704.33  " /><path style="stroke-width: 0.85 ;&st7;  " d=" M   611.90,   701.50  L   628.89,   701.50  " /><path style="stroke-width: 0.85 ;&st7;  " d=" M   620.40,   697.25  L   620.40,   701.50  " /></g><g ewd:figtype="gp" ewd:figID="17" ewd:code="LC"><path style="stroke-width: 0.85 ;&st7;  " d=" M   866.85,   697.25  L   866.85,   701.50  " /><path style="stroke-width: 0.85 ;&st7;  " d=" M   858.36,   701.50  L   875.35,   701.50  " /><path style="stroke-width: 0.85 ;&st7;  " d=" M   864.02,   707.17  L   869.69,   707.17  " /><path style="stroke-width: 0.85 ;&st7;  " d=" M   865.44,   710.00  L   868.27,   710.00  " /><path style="stroke-width: 0.85 ;&st7;  " d=" M   862.61,   704.33  L   871.10,   704.33  " /></g><g ewd:figtype="annex" ewd:figID="20" ewd:code=" "><path style="stroke-width: 0.85 ;&st7;  " d=" M   917.85,   307.73  L   934.84,   307.73  " /><path style="stroke-width: 0.85 ;&st7;  " d=" M   926.34,   299.24  L   926.34,   307.73  " /><path style="stroke-width: 0.85 ;&st7;  " d=" M   924.93,   316.23  L   927.76,   316.23  " /><path style="stroke-width: 0.85 ;&st7;  " d=" M   922.10,   310.57  L   930.59,   310.57  " /><path style="stroke-width: 0.85 ;&st7;  " d=" M   923.51,   313.40  L   929.18,   313.40  " /></g><g ewd:code="14" ewd:figID="21" ewd:comment="" ewd:figtype="comment"><text style="font-size:6px;font-family:'NSimSun';" transform="matrix(&st16;  812.46  71.74 )" ewd:textID="2">* 14 : 灯泡型刹车灯</text></g><g ewd:code="13" ewd:figID="22" ewd:comment="" ewd:figtype="comment"><text style="font-size:6px;font-family:'NSimSun';" transform="matrix(&st16;  812.46  63.24 )" ewd:textID="1">* 13 : LED 型刹车灯</text></g></svg>