<?xml version="1.0" encoding="utf-8"?>
<!DOCTYPE svg PUBLIC "-//W3C//DTD SVG 1.0//EN" "http://www.w3.org/TR/2001/REC-SVG-20010904/DTD/svg10.dtd"[
	<!ENTITY ns_flows "http://ns.adobe.com/Flows/1.0/">
	<!ENTITY ns_svg "http://www.w3.org/2000/svg">
	<!ENTITY ns_xlink "http://www.w3.org/1999/xlink">
	<!ENTITY st0 "font-size:7px;font-family:'NSimSun';adobe-font-script:japanese;">
	<!ENTITY st1 "font-size:6px;font-family:'NSimSun';">
	<!-- White fill  -->
	<!ENTITY st2 "fill:#FFFFFF;stroke:#000000; stroke-width:1.41;stroke-linecap:round;stroke-linejoin:round;">
	<!-- Yellow fill  -->
	<!ENTITY st3 "fill:#FFFFCC;stroke:#FFFFCC; stroke-width:0.1;stroke-linecap:round;stroke-linejoin:round;">
	<!-- Gray fill  -->
	<!ENTITY st4 "fill:#CCCCCC;stroke:#CCCCCC; stroke-width:0.1;stroke-linecap:round;stroke-linejoin:round;">
	<!-- Light-blue fill -->
	<!ENTITY st5 "fill:#CCECF4;stroke:#000000; stroke-width:1.133;stroke-linecap:round;stroke-linejoin:round;">
	<!ENTITY st6 "fill:none;stroke-linecap:butt; stroke-linejoin:round;">
	<!ENTITY st7 "fill:none;stroke:#000000;stroke-linecap:round;stroke-linejoin:round;">
	<!ENTITY st8 "enable-background:new    ;">
	<!-- Black fill -->
	<!ENTITY st9 "fill:#000000;stroke:#000000; stroke-linecap:round;stroke-linejoin:round;">
	<!-- SRS note   -->
	<!ENTITY st10 "font-size:9px;font-family:'NSimSun';">
	<!ENTITY st11 "font-size:9px;font-family:'NSimSun';">
	<!ENTITY st12 "font-size:6px;font-family:'NSimSun';">
	<!ENTITY st13 "fill:none;stroke:#ff0000;stroke-linecap:round;stroke-linejoin:round;">
	<!-- Yellow fill  -->
	<!ENTITY st14 "fill:#FFFF00;stroke:#FFFF00; stroke-width:0.1;stroke-linecap:round;stroke-linejoin:round;">
	<!ENTITY st15 "font-size:6px;font-family:'NSimSun';adobe-font-script:japanese;">
	<!ENTITY st16 "1.00 0.00 0.00 1.00">
	<!ENTITY st17 "0.00 -1.00 1.00 0.00">
	<!ENTITY st18 "font-size:6px;font-family:'NSimSun';">
	<!ENTITY st19 "font-size:9px;font-family:'NSimSun';">
	<!ENTITY st20 "font-size:6px;font-family:'NSimSun';adobe-font-script:japanese;">
	<!ENTITY st21 "font-size:7px;font-family:'NSimSun';adobe-font-script:japanese;">
	<!ATTLIST svg
		xmlns:ewd CDATA #FIXED "http://shcl.co.jp/ewd"
		xmlns:a CDATA #FIXED "http://ns.adobe.com/AdobeSVGViewerExtensions/3.0/"
		ewd:ver CDATA #IMPLIED
	>
	<!ATTLIST a
		ewd:lineID CDATA #IMPLIED
		ewd:groupID CDATA #IMPLIED
		ewd:figtype CDATA #IMPLIED
		ewd:code CDATA #IMPLIED
		ewd:figID CDATA #IMPLIED
		ewd:pinNo CDATA #IMPLIED
		ewd:comment CDATA #IMPLIED >
	<!ATTLIST g
		ewd:lineID CDATA #IMPLIED
		ewd:groupID CDATA #IMPLIED
		ewd:figtype CDATA #IMPLIED
		ewd:code CDATA #IMPLIED
		ewd:figID CDATA #IMPLIED
		ewd:pinNo CDATA #IMPLIED
		ewd:comment CDATA #IMPLIED >
	<!ATTLIST text
		ewd:textID CDATA #IMPLIED
		ewd:horAlign CDATA #IMPLIED >
	<!ATTLIST title
		ewd:textID CDATA #IMPLIED >
]>
<!-- Generator: Shintec Hozumi YS   -->
<svg onload="call_execInitLoadProc_svg('system')" style="overflow:visible;  enable-background:new 0 0 960.865 710.000" viewBox="0 0 965.331 710.000" height="710.000" width="965.331" xml:space="preserve" ewd:ver="2.1.2.6F" xmlns="&ns_svg;" xmlns:ewd="http://shcl.co.jp/ewd" xmlns:a="http://ns.adobe.com/AdobeSVGViewerExtensions/3.0/" xmlns:xlink="&ns_xlink;">
	<script type="text/javascript" xlink:href="../../../../../system/js/ewd/fig/svgfig.js" xmlns:xlink="http://www.w3.org/1999/xlink" />
<g id="ewd_top">
	<a ewd:figtype="conn" style="cursor:pointer;" ewd:code="L27" ewd:figID="1">
		<path style="&st5;" d=" M   696.88,   375.72  L   696.88,   452.21  L   764.87,   452.21  L   764.87,   375.72  L   696.88,   375.72 "/>
		<title ewd:textID="6">左后组合灯总成</title>
	</a>
	<a ewd:figtype="conn" style="cursor:pointer;" ewd:code="L25" ewd:figID="2">
		<path style="&st5;" d=" M   934.84,   273.74  L   917.85,   273.74  L   917.85,   299.24  L   934.84,   299.24  L   934.84,   273.74 "/>
		<title ewd:textID="5">静噪滤波器（收音机设定调相器）</title>
	</a>
	<a ewd:figtype="conn" style="cursor:pointer;" ewd:code="L4" ewd:figID="3">
		<path style="&st5;" d=" M   373.94,   452.21  L   373.94,   375.72  L   305.95,   375.72  L   305.95,   452.21  L   373.94,   452.21 "/>
		<title ewd:textID="7">右后组合灯总成</title>
	</a>
	<a ewd:figtype="conn" style="cursor:pointer;" ewd:code="g1" ewd:figID="4">
		<path style="&st5;" d=" M   841.36,   401.22  L   841.36,   452.21  L   892.35,   452.21  L   892.35,   401.22  L   841.36,   401.22 "/>
		<title ewd:textID="3">中央刹车灯总成</title>
	</a>
	<a ewd:figtype="conn" style="cursor:pointer;" ewd:code="A1" ewd:figID="5">
		<path style="&st5;" d=" M   152.97,   290.74  L   152.97,   256.74  L   135.98,   256.74  L   135.98,   290.74  L   152.97,   290.74 "/>
		<title ewd:textID="9">刹车灯开关总成</title>
	</a>
	<a ewd:figtype="conn" style="cursor:pointer;" ewd:code="L3" ewd:figID="6">
		<path style="&st5;" d=" M   654.39,   452.21  L   654.39,   375.72  L   586.40,   375.72  L   586.40,   452.21  L   654.39,   452.21 "/>
		<title ewd:textID="6">左后组合灯总成</title>
	</a>
	<a ewd:figtype="conn" style="cursor:pointer;" ewd:code="L26" ewd:figID="7">
		<path style="&st5;" d=" M   416.43,   375.72  L   416.43,   452.21  L   484.42,   452.21  L   484.42,   375.72  L   416.43,   375.72 "/>
		<title ewd:textID="7">右后组合灯总成</title>
	</a>
	<a ewd:figtype="conn" style="cursor:pointer;" ewd:code="A2" ewd:figID="8">
		<path style="&st5;" d=" M   101.98,   299.24  L   101.98,   256.74  L    33.99,   256.74  L    33.99,   299.24  L   101.98,   299.24 "/>
		<title ewd:textID="9">刹车灯开关总成</title>
	</a>
	<a ewd:figtype="conn" style="cursor:pointer;" ewd:code="L56" ewd:figID="9">
		<path style="&st5;" d=" M   331.44,   537.20  L   628.89,   537.20  L   628.89,   520.20  L   331.44,   520.20  L   331.44,   537.20 "/>
		<title ewd:textID="4">8 号接线连接器</title>
	</a>
	<a ewd:figtype="jb" style="cursor:pointer;" ewd:code="3" ewd:figID="10">
		<path style="&st4; " d=" M   127.48,   120.77  L   186.97,   120.77  L   186.97,    35.78  L   127.48,    35.78  L   127.48,   120.77  "/>
	</a>
	<a ewd:figtype="jb" style="cursor:pointer;" ewd:code="3" ewd:figID="11">
		<path style="&st4; " d=" M   127.48,   528.70  L   254.96,   528.70  L   254.96,   562.69  L   127.48,   562.69  L   127.48,   528.70  "/>
	</a>
	<a ewd:figtype="fuse" style="cursor:pointer;" ewd:code="FUSE54" ewd:figID="19">
		<path style="&st7; stroke-width:0;" d=" M   131.73,    35.78  L   131.73,    78.27  L   157.22,    78.27  L   157.22,    35.78  L   131.73,    35.78 "/>
	</a>
	<a ewd:comment="13" style="cursor:pointer;" ewd:lineID="1">
		<path style="stroke:#000000;stroke-width: 5.10 ;&st6;" d=" M    50.99,   424.45  L    50.99,   681.67  "/>
		<path style="stroke:#FFFFFF;stroke-width: 4.53 ;&st6;" d=" M    50.99,   424.45  L    50.99,   681.67  "/>
		<path style="stroke:#000000;stroke-width: 1.13 ;&st6;" d=" M    50.99,   424.45  L    50.99,   681.67  "/>
	</a>
	<a ewd:comment="13" style="cursor:pointer;" ewd:lineID="2">
		<path style="stroke:#000000;stroke-width: 5.10 ;&st6;" d=" M    50.99,   299.24  L    50.99,   409.72  "/>
		<path style="stroke:#FFFFFF;stroke-width: 4.53 ;&st6;" d=" M    50.99,   299.24  L    50.99,   409.72  "/>
		<path style="stroke:#000000;stroke-width: 1.13 ;&st6;" d=" M    50.99,   299.24  L    50.99,   409.72  "/>
	</a>
	<a ewd:comment="13" style="cursor:pointer;" ewd:lineID="3">
		<path style="stroke:#00A0C6;stroke-width: 5.10 ;&st6;" d=" M    84.99,   299.24  L    84.99,   511.70  L   135.98,   511.70  L   144.48,   520.20  L   144.48,   528.70  "/>
	</a>
	<a ewd:comment="13" style="cursor:pointer;" ewd:lineID="4"> d=" M    84.99,   256.74  L    84.99,   137.76  L   135.98,   137.76  L   144.48,   129.26  L   144.48,   120.77 
	
		<path style="stroke:#000000;stroke-width: 5.10 ;&st6;" d=" M    84.99,   256.74  L    84.99,   137.76  L   135.98,   137.76  L   144.48,   129.26  L   144.48,   120.77  "/>
		<path style="stroke:#FFFFFF;stroke-width: 4.53 ;&st6;" d=" M    84.99,   256.74  L    84.99,   137.76  L   135.98,   137.76  L   144.48,   129.26  L   144.48,   120.77  "/>
	</a>
	<a ewd:comment="14" style="cursor:pointer;" ewd:lineID="5">
		<path style="stroke:#00A0C6;stroke-width: 5.10 ;&st6;" d=" M   144.48,   290.74  L   144.48,   528.70  "/>
	</a>
	<a ewd:comment="14" style="cursor:pointer;" ewd:lineID="6"> d=" M   144.48,   256.74  L   144.48,   120.77 
	
		<path style="stroke:#000000;stroke-width: 5.10 ;&st6;" d=" M   144.48,   256.74  L   144.48,   120.77  "/>
		<path style="stroke:#FFFFFF;stroke-width: 4.53 ;&st6;" d=" M   144.48,   256.74  L   144.48,   120.77  "/>
	</a>
	<a style="cursor:pointer;" ewd:lineID="7">
		<path style="stroke:#00A0C6;stroke-width: 5.10 ;&st6;" d=" M   212.46,   528.70  L   212.46,   239.75  L   603.40,   239.75  "/>
	</a>
	<a ewd:comment="14" style="cursor:pointer;" ewd:lineID="8">
		<path style="stroke:#00A0C6;stroke-width: 5.10 ;&st6;" d=" M   246.46,   528.70  L   246.46,   520.20  L   271.95,   494.70  L   271.95,   290.74  L   331.44,   290.74  L   331.44,   375.72  "/>
	</a>
	<a ewd:comment="14" style="cursor:pointer;" ewd:lineID="9">
		<path style="stroke:#000000;stroke-width: 5.10 ;&st6;" d=" M   339.94,   520.20  L   339.94,   452.21  "/>
		<path style="stroke:#FFFFFF;stroke-width: 4.53 ;&st6;" d=" M   339.94,   520.20  L   339.94,   452.21  "/>
		<path style="stroke:#000000;stroke-width: 1.13 ;&st6;" d=" M   339.94,   520.20  L   339.94,   452.21  "/>
	</a>
	<a ewd:comment="13" style="cursor:pointer;" ewd:lineID="10">
		<path style="stroke:#000000;stroke-width: 5.10 ;&st6;" d=" M   450.42,   452.21  L   450.42,   503.20  L   348.44,   503.20  L   339.94,   511.70  L   339.94,   520.20  "/>
		<path style="stroke:#FFFFFF;stroke-width: 4.53 ;&st6;" d=" M   450.42,   452.21  L   450.42,   503.20  L   348.44,   503.20  L   339.94,   511.70  L   339.94,   520.20  "/>
		<path style="stroke:#000000;stroke-width: 1.13 ;&st6;" d=" M   450.42,   452.21  L   450.42,   503.20  L   348.44,   503.20  L   339.94,   511.70  L   339.94,   520.20  "/>
	</a>
	<a ewd:comment="13" style="cursor:pointer;" ewd:lineID="11">
		<path style="stroke:#00A0C6;stroke-width: 5.10 ;&st6;" d=" M   467.42,   375.72  L   467.42,   265.24  L   246.46,   265.24  L   246.46,   528.70  "/>
	</a>
	<a ewd:comment="14" style="cursor:pointer;" ewd:lineID="12">
		<path style="stroke:#00A0C6;stroke-width: 5.10 ;&st6;" d=" M   611.90,   248.24  L   611.90,   375.72  "/>
	</a>
	<a style="cursor:pointer;" ewd:lineID="13">
		<path style="stroke:#000000;stroke-width: 5.10 ;&st6;" d=" M   620.40,   681.67  L   620.40,   537.20  "/>
		<path style="stroke:#FFFFFF;stroke-width: 4.53 ;&st6;" d=" M   620.40,   681.67  L   620.40,   537.20  "/>
		<path style="stroke:#000000;stroke-width: 1.13 ;&st6;" d=" M   620.40,   681.67  L   620.40,   537.20  "/>
	</a>
	<a ewd:comment="14" style="cursor:pointer;" ewd:lineID="14">
		<path style="stroke:#000000;stroke-width: 5.10 ;&st6;" d=" M   620.40,   520.20  L   620.40,   452.21  "/>
		<path style="stroke:#FFFFFF;stroke-width: 4.53 ;&st6;" d=" M   620.40,   520.20  L   620.40,   452.21  "/>
		<path style="stroke:#000000;stroke-width: 1.13 ;&st6;" d=" M   620.40,   520.20  L   620.40,   452.21  "/>
	</a>
	<a ewd:comment="13" style="cursor:pointer;" ewd:lineID="15">
		<path style="stroke:#00A0C6;stroke-width: 5.10 ;&st6;" d=" M   620.40,   239.75  L   747.88,   239.75  L   747.88,   375.72  "/>
	</a>
	<a ewd:comment="13" style="cursor:pointer;" ewd:lineID="16">
		<path style="stroke:#000000;stroke-width: 5.10 ;&st6;" d=" M   730.88,   452.21  L   730.88,   503.20  L   628.89,   503.20  L   620.40,   511.70  L   620.40,   520.20  "/>
		<path style="stroke:#FFFFFF;stroke-width: 4.53 ;&st6;" d=" M   730.88,   452.21  L   730.88,   503.20  L   628.89,   503.20  L   620.40,   511.70  L   620.40,   520.20  "/>
		<path style="stroke:#000000;stroke-width: 1.13 ;&st6;" d=" M   730.88,   452.21  L   730.88,   503.20  L   628.89,   503.20  L   620.40,   511.70  L   620.40,   520.20  "/>
	</a>
	<a style="cursor:pointer;" ewd:lineID="17">
		<path style="stroke:#000000;stroke-width: 5.10 ;&st6;" d=" M   866.86,   517.93  L   866.86,   681.67  "/>
		<path style="stroke:#FFFFFF;stroke-width: 4.53 ;&st6;" d=" M   866.86,   517.93  L   866.86,   681.67  "/>
		<path style="stroke:#000000;stroke-width: 1.13 ;&st6;" d=" M   866.86,   517.93  L   866.86,   681.67  "/>
	</a>
	<a style="cursor:pointer;" ewd:lineID="18">
		<path style="stroke:#000000;stroke-width: 5.10 ;&st6;" d=" M   866.86,   503.20  L   866.86,   452.21  "/>
		<path style="stroke:#FFFFFF;stroke-width: 4.53 ;&st6;" d=" M   866.86,   503.20  L   866.86,   452.21  "/>
		<path style="stroke:#000000;stroke-width: 1.13 ;&st6;" d=" M   866.86,   503.20  L   866.86,   452.21  "/>
	</a>
	<a style="cursor:pointer;" ewd:lineID="19">
		<path style="stroke:#00A0C6;stroke-width: 5.10 ;&st6;" d=" M   866.86,   401.22  L   866.86,   350.23  "/>
	</a>
	<a style="cursor:pointer;" ewd:lineID="20">
		<path style="stroke:#00A0C6;stroke-width: 5.10 ;&st6;" d=" M   926.35,   273.74  L   926.35,   265.24  L   943.34,   248.24  L   943.34,   205.75  L   611.90,   205.75  L   611.90,   231.25  "/>
	</a>
	<a style="cursor:pointer;" ewd:lineID="21">
		<path style="stroke:#00A0C6;stroke-width: 5.10 ;&st6;" d=" M   926.35,   273.74  L   926.35,   239.75  L   866.86,   239.75  L   866.86,   335.50  "/>
	</a>
	<g ewd:figtype="conn" ewd:figID="1" ewd:code="L27">
		<path style="stroke-width: 0.85 ;&st7;  " d=" M   752.12,   426.71  L   743.63,   426.71  "/>
		<path style="stroke-width: 0.85 ;&st7;  " d=" M   721.26,   424.77  L   728.62,   420.52  "/>
		<path style="stroke-width: 0.85 ;&st7;  " d=" M   726.61,   417.05  L   719.25,   421.30  "/>
		<path style="stroke-width: 0.85 ;&st7;  " d=" M   718.13,   426.71  L   709.63,   426.71  "/>
		<path style="stroke-width: 0.85 ;&st7;  " d=" M   755.25,   424.77  L   762.61,   420.52  "/>
		<path style="stroke-width: 0.85 ;&st7;  " d=" M   760.61,   417.05  L   753.25,   421.30  "/>
		<path style="stroke-width: 1.42 ;&st7;  " d=" M   696.88,   375.72  L   696.88,   452.21  L   764.87,   452.21  L   764.87,   375.72  L   696.88,   375.72  "/>
		<path style="stroke-width: 0.85 ;&st7;  " d=" M   713.88,   426.71  L   713.88,   435.21  L   747.87,   435.21  L   747.87,   426.71  "/>
		<path style="stroke-width: 0.85 ;&st7;  " d=" M   730.88,   435.21  L   730.88,   452.21  "/>
		<path style="stroke-width: 0.85 ;&st7;  " d=" M   747.87,   418.22  L   747.87,   409.72  L   745.04,   408.30  L   750.71,   405.47  L   745.04,   402.63  L   750.71,   399.80  L   745.04,   396.97  L   750.71,   394.14  L   747.87,   392.72  L   747.87,   384.22  "/>
		<path style="stroke-width: 0.85 ;&st7;  " d=" M   713.88,   418.22  L   713.88,   409.72  L   711.05,   408.30  L   716.71,   405.47  L   711.05,   402.63  L   716.71,   399.80  L   711.05,   396.97  L   716.71,   394.14  L   713.88,   392.72  L   713.88,   384.22  "/>
		<path style="stroke-width: 0.85 ;&st7;  " d=" M   762.61,   420.52  L   760.28,   423.56  L   758.81,   421.02  L   762.61,   420.52  L   761.33,   421.26  L   760.34,   422.54  L   759.72,   421.47  L   761.33,   421.26  L   760.69,   421.63  L   760.38,   422.03  L   760.18,   421.70  L   760.69,   421.63  "/>
		<path style="stroke-width: 0.85 ;&st7;  " d=" M   760.61,   417.05  L   758.27,   420.09  L   756.81,   417.55  L   760.61,   417.05  L   759.33,   417.79  L   758.34,   419.07  L   757.72,   418.00  L   759.33,   417.79  L   758.68,   418.16  L   758.37,   418.56  L   758.18,   418.23  L   758.68,   418.16  "/>
		<path style="stroke-width: 0.28 ;&st9;  " d=" M   747.87,   426.71  L   742.21,   418.22  L   753.54,   418.22  L   747.87,   426.71  "/>
		<path style="stroke-width: 0.85 ;&st7;  " d=" M   728.62,   420.52  L   726.28,   423.56  L   724.82,   421.02  L   728.62,   420.52  L   727.33,   421.26  L   726.35,   422.54  L   725.73,   421.47  L   727.33,   421.26  L   726.69,   421.63  L   726.38,   422.03  L   726.19,   421.70  L   726.69,   421.63  "/>
		<path style="stroke-width: 0.85 ;&st7;  " d=" M   726.61,   417.05  L   724.28,   420.09  L   722.81,   417.55  L   726.61,   417.05  L   725.33,   417.79  L   724.35,   419.07  L   723.73,   418.00  L   725.33,   417.79  L   724.69,   418.16  L   724.38,   418.56  L   724.18,   418.23  L   724.69,   418.16  "/>
		<path style="stroke-width: 0.28 ;&st9;  " d=" M   713.88,   426.71  L   708.21,   418.22  L   719.55,   418.22  L   713.88,   426.71  "/>
		<path style="stroke-width: 1.42 ;&st7;   " d=" M   713.88,   384.22  C   716.09    386.04    719.22    385.98    721.37    384.08  "/>
		<path style="stroke-width: 1.42 ;&st7;   " d=" M   713.88,   384.22  C   711.67    382.40    708.54    382.46    706.40    384.36  "/>
		<text style="font-size:6px;font-family:'NSimSun';" transform="matrix(&st16;  733.46  448.52 )">E</text>
		<text style="font-size:6px;font-family:'NSimSun';" transform="matrix(&st16;  750.46  383.92 )">STP</text>
		<path style="stroke-width: 0.85 ;&st7;  " d=" M   729.68,   434.21  L   729.41,   434.68  L   729.32,   435.21  L   729.41,   435.75  L   729.68,   436.22  L   730.10,   436.56  L   730.61,   436.75  L   731.15,   436.75  L   731.66,   436.56  L   732.07,   436.22  L   732.34,   435.75  L   732.44,   435.21  L   732.34,   434.68  L   732.07,   434.21  L   731.66,   433.86  L   731.15,   433.68  L   730.61,   433.68  L   730.10,   433.86  L   729.68,   434.21  L   730.08,   434.92  L   730.08,   435.50  L   730.45,   435.95  L   731.02,   436.05  L   731.53,   435.76  L   731.73,   435.21  L   731.53,   434.67  L   731.02,   434.38  L   730.45,   434.48  L   730.88,   435.21  "/>
		<path style="stroke-width: 0.85 ;&st7;  " d=" M   747.87,   384.22  L   747.87,   375.72  "/>
		<text style="font-size:6px;font-family:'NSimSun';" transform="matrix(&st17;  740.21  427.95 )" ewd:textID="8">停止</text>
		<text style="font-size:6px;font-family:'NSimSun';" transform="matrix(&st17;  706.22  427.02 )" ewd:textID="10">尾灯</text>
		<text style="font-size:6px;font-family:'NSimSun';" transform="matrix(&st16;  741.69  372.03 )">1</text>
		<text style="font-size:6px;font-family:'NSimSun';" transform="matrix(&st16;  724.69  460.4 )">4</text>
		<g ewd:figtype="title">
			<text style="font-size:6px;font-family:'NSimSun';" transform="matrix(&st17;  779.59  455.12 )" ewd:textID="6">左后组合灯总成</text>
			<text style="font-size:6px;font-family:'NSimSun';" transform="matrix(&st17;  772.48  455.11 )">L27</text>
		</g>
	</g>
	<g ewd:figtype="conn" ewd:figID="2" ewd:code="L25">
		<path style="stroke-width: 1.42 ;&st7;  " d=" M   930.59,   288.61  L   922.10,   288.61  "/>
		<path style="stroke-width: 1.42 ;&st7;  " d=" M   930.59,   284.36  L   922.10,   284.36  "/>
		<path style="stroke-width: 0.85 ;&st7;  " d=" M   926.35,   284.36  L   926.35,   273.74  "/>
		<path style="stroke-width: 0.85 ;&st7;  " d=" M   926.35,   299.24  L   926.35,   288.61  "/>
		<path style="stroke-width: 1.42 ;&st7;  " d=" M   934.84,   273.74  L   917.85,   273.74  L   917.85,   299.24  L   934.84,   299.24  L   934.84,   273.74  "/>
		<text style="font-size:6px;font-family:'NSimSun';" transform="matrix(&st16;  920.16  270.05 )">1</text>
		<g ewd:figtype="title">
			<text style="font-size:6px;font-family:'NSimSun';" transform="matrix(&st17;  949.56  302.14 )" ewd:textID="5">静噪滤波器<tspan x="0 " dy="6.0">（收音机设定调相器）</tspan><tspan x="0" dy="6" style="font-size:6px;font-family:'NSimSun';"></tspan></text>
			<text style="font-size:6px;font-family:'NSimSun';" transform="matrix(&st17;  942.46  302.13 )">L25</text>
		</g>
	</g>
	<g ewd:figtype="conn" ewd:figID="3" ewd:code="L4">
		<path style="stroke-width: 0.85 ;&st7;  " d=" M   332.06,   418.22  L   339.94,   418.22  "/>
		<path style="stroke-width: 0.85 ;&st7;  " d=" M   348.44,   402.34  L   348.44,   409.72  "/>
		<path style="stroke-width: 0.85 ;&st7;  " d=" M   331.44,   401.95  L   331.44,   409.72  "/>
		<path style="stroke-width: 0.85 ;&st7;  " d=" M   339.94,   418.22  L   347.83,   418.22  "/>
		<path style="stroke-width: 0.85 ;&st7;  " d=" M   339.94,   426.71  L   339.94,   418.22  "/>
		<path style="stroke-width: 1.42 ;&st7;   " d=" M   348.44,   392.72  C   350.65    394.54    353.79    394.48    355.93    392.58  "/>
		<path style="stroke-width: 1.42 ;&st7;   " d=" M   348.44,   392.72  C   346.23    390.90    343.10    390.96    340.96    392.86  "/>
		<path style="stroke-width: 0.85 ;&st7;   " d=" M   334.56,   413.97  C   333.77    412.63    332.04    412.18    330.70    412.97  "/>
		<path style="stroke-width: 0.85 ;&st7;   " d=" M   330.70,   412.97  C   329.36    413.77    328.92    415.49    329.71    416.83  "/>
		<path style="stroke-width: 0.85 ;&st7;   " d=" M   329.71,   416.83  C   330.24    417.72    331.12    418.22    332.15    418.22  "/>
		<path style="stroke-width: 0.85 ;&st7;   " d=" M   331.44,   409.80  C   329.94    410.18    329.02    411.72    329.40    413.22  "/>
		<path style="stroke-width: 0.85 ;&st7;   " d=" M   329.40,   413.22  C   329.79    414.73    331.32    415.65    332.83    415.26  "/>
		<path style="stroke-width: 0.85 ;&st7;   " d=" M   332.83,   415.26  C   333.58    415.07    334.16    414.64    334.56    413.97  "/>
		<path style="stroke-width: 0.85 ;&st7;   " d=" M   347.73,   418.22  C   349.29    418.22    350.56    416.97    350.57    415.42  "/>
		<path style="stroke-width: 0.85 ;&st7;   " d=" M   350.57,   415.42  C   350.58    413.86    349.32    412.59    347.77    412.58  "/>
		<path style="stroke-width: 0.85 ;&st7;   " d=" M   347.77,   412.58  C   346.73    412.58    345.85    413.08    345.33    413.97  "/>
		<path style="stroke-width: 0.85 ;&st7;   " d=" M   345.33,   413.97  C   346.12    415.31    347.84    415.75    349.18    414.96  "/>
		<path style="stroke-width: 0.85 ;&st7;   " d=" M   349.18,   414.96  C   350.52    414.17    350.97    412.44    350.18    411.10  "/>
		<path style="stroke-width: 0.85 ;&st7;   " d=" M   350.18,   411.10  C   349.78    410.43    349.20    409.99    348.44    409.80  "/>
		<path style="stroke-width: 1.42 ;&st7;   " d=" M   335.69,   401.22  C   328.65    401.22    322.95    406.93    322.95    413.97  "/>
		<path style="stroke-width: 1.42 ;&st7;   " d=" M   322.95,   413.97  C   322.95    421.01    328.65    426.71    335.69    426.71  "/>
		<path style="stroke-width: 1.42 ;&st7;   " d=" M   344.19,   426.71  C   351.23    426.71    356.94    421.01    356.94    413.97  "/>
		<path style="stroke-width: 1.42 ;&st7;   " d=" M   356.94,   413.97  C   356.94    406.93    351.23    401.22    344.19    401.22  "/>
		<path style="stroke-width: 0.85 ;&st7;  " d=" M   339.94,   426.71  L   339.94,   452.21  "/>
		<path style="stroke-width: 0.85 ;&st7;  " d=" M   348.44,   401.95  L   348.44,   392.72  "/>
		<path style="stroke-width: 0.85 ;&st7;  " d=" M   331.44,   401.22  L   331.44,   375.72  "/>
		<path style="stroke-width: 1.42 ;&st7;  " d=" M   339.94,   401.22  L   335.69,   401.22  "/>
		<path style="stroke-width: 1.42 ;&st7;  " d=" M   339.94,   426.71  L   335.69,   426.71  "/>
		<path style="stroke-width: 1.42 ;&st7;  " d=" M   339.94,   401.22  L   344.19,   401.22  "/>
		<path style="stroke-width: 1.42 ;&st7;  " d=" M   339.94,   426.71  L   344.19,   426.71  "/>
		<path style="stroke-width: 0.85 ;&st7;  " d=" M   338.75,   417.21  L   338.48,   417.68  L   338.38,   418.22  L   338.48,   418.75  L   338.75,   419.22  L   339.16,   419.56  L   339.67,   419.75  L   340.22,   419.75  L   340.72,   419.56  L   341.14,   419.22  L   341.41,   418.75  L   341.50,   418.22  L   341.41,   417.68  L   341.14,   417.21  L   340.72,   416.87  L   340.22,   416.68  L   339.67,   416.68  L   339.16,   416.87  L   338.75,   417.21  L   339.14,   417.92  L   339.14,   418.51  L   339.52,   418.95  L   340.09,   419.05  L   340.59,   418.76  L   340.79,   418.22  L   340.59,   417.67  L   340.09,   417.38  L   339.52,   417.48  L   339.94,   418.22  "/>
		<path style="stroke-width: 1.42 ;&st7;  " d=" M   373.94,   452.21  L   373.94,   375.72  L   305.95,   375.72  L   305.95,   452.21  L   373.94,   452.21  "/>
		<text style="font-size:6px;font-family:'NSimSun';" transform="matrix(&st17;  316.42  421.12 )" ewd:textID="8">停止</text>
		<text style="font-size:6px;font-family:'NSimSun';" transform="matrix(&st17;  367.41  421.12 )" ewd:textID="10">尾灯</text>
		<text style="font-size:6px;font-family:'NSimSun';" transform="matrix(&st16;  342.53  448.52 )">E</text>
		<text style="font-size:6px;font-family:'NSimSun';" transform="matrix(&st16;  334.03  383.92 )">STP</text>
		<text style="font-size:6px;font-family:'NSimSun';" transform="matrix(&st16;  325.26  372.03 )">3</text>
		<text style="font-size:6px;font-family:'NSimSun';" transform="matrix(&st16;  333.76  460.4 )">1</text>
		<g ewd:figtype="title">
			<text style="font-size:6px;font-family:'NSimSun';" transform="matrix(&st17;  381.55  455.11 )">L4</text>
			<text style="font-size:6px;font-family:'NSimSun';" transform="matrix(&st17;  388.66  455.12 )" ewd:textID="7">右后组合灯总成</text>
		</g>
	</g>
	<g ewd:figtype="conn" ewd:figID="4" ewd:code="g1">
		<path style="stroke-width: 0.85 ;&st7;  " d=" M   874.23,   429.02  L   881.59,   424.77  "/>
		<path style="stroke-width: 0.85 ;&st7;  " d=" M   879.59,   421.30  L   872.23,   425.55  "/>
		<path style="stroke-width: 0.85 ;&st7;  " d=" M   871.10,   430.96  L   862.61,   430.96  "/>
		<path style="stroke-width: 0.85 ;&st7;  " d=" M   866.85,   401.22  L   866.85,   452.21  "/>
		<path style="stroke-width: 0.85 ;&st7;  " d=" M   881.59,   424.77  L   879.26,   427.81  L   877.79,   425.27  L   881.59,   424.77  L   880.31,   425.51  L   879.33,   426.79  L   878.70,   425.72  L   880.31,   425.51  L   879.67,   425.88  L   879.36,   426.28  L   879.16,   425.95  L   879.67,   425.88  "/>
		<path style="stroke-width: 0.85 ;&st7;  " d=" M   879.59,   421.30  L   877.25,   424.34  L   875.79,   421.80  L   879.59,   421.30  L   878.31,   422.04  L   877.32,   423.32  L   876.70,   422.25  L   878.31,   422.04  L   877.66,   422.41  L   877.35,   422.81  L   877.16,   422.48  L   877.66,   422.41  "/>
		<path style="stroke-width: 0.28 ;&st9;  " d=" M   866.85,   430.96  L   861.19,   422.46  L   872.52,   422.46  L   866.85,   430.96  "/>
		<path style="stroke-width: 1.42 ;&st7;  " d=" M   841.36,   401.22  L   841.36,   452.21  L   892.35,   452.21  L   892.35,   401.22  L   841.36,   401.22  "/>
		<text style="font-size:6px;font-family:'NSimSun';" transform="matrix(&st16;  869.44  409.41 )">B</text>
		<text style="font-size:6px;font-family:'NSimSun';" transform="matrix(&st16;  869.44  448.52 )">E</text>
		<text style="font-size:6px;font-family:'NSimSun';" transform="matrix(&st16;  860.67  460.4 )">2</text>
		<text style="font-size:6px;font-family:'NSimSun';" transform="matrix(&st16;  860.67  397.53 )">1</text>
		<g ewd:figtype="title">
			<text style="font-size:6px;font-family:'NSimSun';" transform="matrix(&st17;  907.07  455.12 )" ewd:textID="3">中央刹车灯总成</text>
			<text style="font-size:6px;font-family:'NSimSun';" transform="matrix(&st17;  899.96  455.11 )">g1</text>
		</g>
	</g>
	<g ewd:figtype="conn" ewd:figID="5" ewd:code="A1">
		<path style="stroke-width: 0.85 ;&st7;  " d=" M   144.48,   260.99  L   144.48,   256.74  "/>
		<path style="stroke-width: 0.85 ;&st7;  " d=" M   144.48,   290.74  L   144.48,   286.49  "/>
		<path style="stroke-width: 1.42 ;&st7;  " d=" M   144.48,   283.65  L   150.14,   260.99  "/>
		<path style="stroke-width: 0.85 ;&st7;   " d=" M   145.89,   262.41  C   145.89    261.63    145.26    260.99    144.48    260.99  "/>
		<path style="stroke-width: 0.85 ;&st7;   " d=" M   144.48,   260.99  C   143.69    260.99    143.06    261.63    143.06    262.41  "/>
		<path style="stroke-width: 0.85 ;&st7;   " d=" M   143.06,   262.41  C   143.06    263.19    143.69    263.82    144.48    263.82  "/>
		<path style="stroke-width: 0.85 ;&st7;   " d=" M   144.48,   263.82  C   145.26    263.82    145.89    263.19    145.89    262.41  "/>
		<path style="stroke-width: 0.85 ;&st7;   " d=" M   145.89,   285.07  C   145.89    284.29    145.26    283.65    144.48    283.65  "/>
		<path style="stroke-width: 0.85 ;&st7;   " d=" M   144.48,   283.65  C   143.69    283.65    143.06    284.29    143.06    285.07  "/>
		<path style="stroke-width: 0.85 ;&st7;   " d=" M   143.06,   285.07  C   143.06    285.85    143.69    286.49    144.48    286.49  "/>
		<path style="stroke-width: 0.85 ;&st7;   " d=" M   144.48,   286.49  C   145.26    286.49    145.89    285.85    145.89    285.07  "/>
		<path style="stroke-width: 1.42 ;&st7;  " d=" M   152.97,   290.74  L   152.97,   256.74  L   135.98,   256.74  L   135.98,   290.74  L   152.97,   290.74  "/>
		<text style="font-size:6px;font-family:'NSimSun';" transform="matrix(&st16;  138.29  298.93 )">1</text>
		<text style="font-size:6px;font-family:'NSimSun';" transform="matrix(&st16;  138.29  253.05 )">2</text>
		<g ewd:figtype="title">
			<text style="font-size:6px;font-family:'NSimSun';" transform="matrix(&st17;  160.59  293.64 )">A1</text>
			<text style="font-size:6px;font-family:'NSimSun';" transform="matrix(&st17;  167.69  293.64 )" ewd:textID="9">刹车灯开关总成</text>
		</g>
	</g>
	<g ewd:figtype="conn" ewd:figID="6" ewd:code="L3">
		<path style="stroke-width: 0.85 ;&st7;  " d=" M   611.90,   401.95  L   611.90,   409.72  "/>
		<path style="stroke-width: 0.85 ;&st7;  " d=" M   620.40,   426.71  L   620.40,   418.22  "/>
		<path style="stroke-width: 0.85 ;&st7;  " d=" M   628.89,   402.34  L   628.89,   409.72  "/>
		<path style="stroke-width: 0.85 ;&st7;  " d=" M   612.51,   418.22  L   620.40,   418.22  "/>
		<path style="stroke-width: 0.85 ;&st7;  " d=" M   620.40,   418.22  L   628.28,   418.22  "/>
		<path style="stroke-width: 1.42 ;&st7;   " d=" M   628.89,   392.72  C   626.68    390.90    623.55    390.96    621.41    392.86  "/>
		<path style="stroke-width: 0.85 ;&st7;   " d=" M   611.90,   409.80  C   610.39    410.18    609.48    411.72    609.86    413.22  "/>
		<path style="stroke-width: 0.85 ;&st7;   " d=" M   609.86,   413.22  C   610.24    414.73    611.77    415.65    613.28    415.26  "/>
		<path style="stroke-width: 0.85 ;&st7;   " d=" M   613.28,   415.26  C   614.04    415.07    614.62    414.64    615.01    413.97  "/>
		<path style="stroke-width: 0.85 ;&st7;   " d=" M   615.01,   413.97  C   614.22    412.63    612.49    412.18    611.16    412.97  "/>
		<path style="stroke-width: 0.85 ;&st7;   " d=" M   611.16,   412.97  C   609.82    413.77    609.37    415.49    610.16    416.83  "/>
		<path style="stroke-width: 0.85 ;&st7;   " d=" M   610.16,   416.83  C   610.69    417.72    611.57    418.22    612.61    418.22  "/>
		<path style="stroke-width: 0.85 ;&st7;   " d=" M   628.19,   418.22  C   629.74    418.22    631.01    416.97    631.02    415.42  "/>
		<path style="stroke-width: 0.85 ;&st7;   " d=" M   631.02,   415.42  C   631.03    413.86    629.78    412.59    628.22    412.58  "/>
		<path style="stroke-width: 0.85 ;&st7;   " d=" M   628.22,   412.58  C   627.19    412.58    626.31    413.08    625.78    413.97  "/>
		<path style="stroke-width: 0.85 ;&st7;   " d=" M   625.78,   413.97  C   626.57    415.31    628.30    415.75    629.64    414.96  "/>
		<path style="stroke-width: 0.85 ;&st7;   " d=" M   629.64,   414.96  C   630.98    414.17    631.42    412.44    630.63    411.10  "/>
		<path style="stroke-width: 0.85 ;&st7;   " d=" M   630.63,   411.10  C   630.23    410.43    629.65    409.99    628.89    409.80  "/>
		<path style="stroke-width: 1.42 ;&st7;   " d=" M   624.65,   426.71  C   631.69    426.71    637.39    421.01    637.39    413.97  "/>
		<path style="stroke-width: 1.42 ;&st7;   " d=" M   637.39,   413.97  C   637.39    406.93    631.69    401.22    624.65    401.22  "/>
		<path style="stroke-width: 1.42 ;&st7;   " d=" M   616.15,   401.22  C   609.11    401.22    603.40    406.93    603.40    413.97  "/>
		<path style="stroke-width: 1.42 ;&st7;   " d=" M   603.40,   413.97  C   603.40    421.01    609.11    426.71    616.15    426.71  "/>
		<path style="stroke-width: 0.85 ;&st7;  " d=" M   620.40,   426.71  L   620.40,   452.21  "/>
		<path style="stroke-width: 0.85 ;&st7;  " d=" M   628.89,   401.95  L   628.89,   392.72  "/>
		<path style="stroke-width: 0.85 ;&st7;  " d=" M   611.90,   401.22  L   611.90,   375.72  "/>
		<path style="stroke-width: 1.42 ;&st7;  " d=" M   620.40,   401.22  L   616.15,   401.22  "/>
		<path style="stroke-width: 1.42 ;&st7;  " d=" M   620.40,   426.71  L   616.15,   426.71  "/>
		<path style="stroke-width: 1.42 ;&st7;  " d=" M   620.40,   401.22  L   624.65,   401.22  "/>
		<path style="stroke-width: 1.42 ;&st7;  " d=" M   620.40,   426.71  L   624.65,   426.71  "/>
		<path style="stroke-width: 0.85 ;&st7;  " d=" M   619.20,   417.21  L   618.93,   417.68  L   618.84,   418.22  L   618.93,   418.75  L   619.20,   419.22  L   619.62,   419.56  L   620.12,   419.75  L   620.67,   419.75  L   621.18,   419.56  L   621.59,   419.22  L   621.86,   418.75  L   621.95,   418.22  L   621.86,   417.68  L   621.59,   417.21  L   621.18,   416.87  L   620.67,   416.68  L   620.12,   416.68  L   619.62,   416.87  L   619.20,   417.21  L   619.60,   417.92  L   619.60,   418.51  L   619.97,   418.95  L   620.54,   419.05  L   621.05,   418.76  L   621.25,   418.22  L   621.05,   417.67  L   620.54,   417.38  L   619.97,   417.48  L   620.40,   418.22  "/>
		<path style="stroke-width: 1.42 ;&st7;  " d=" M   654.39,   452.21  L   654.39,   375.72  L   586.40,   375.72  L   586.40,   452.21  L   654.39,   452.21  "/>
		<path style="stroke-width: 1.42 ;&st7;   " d=" M   628.89,   392.72  C   631.11    394.54    634.24    394.48    636.38    392.58  "/>
		<text style="font-size:6px;font-family:'NSimSun';" transform="matrix(&st17;  596.87  421.12 )" ewd:textID="8">停止</text>
		<text style="font-size:6px;font-family:'NSimSun';" transform="matrix(&st17;  647.86  421.12 )" ewd:textID="10">尾灯</text>
		<text style="font-size:6px;font-family:'NSimSun';" transform="matrix(&st16;  622.98  448.52 )">E</text>
		<text style="font-size:6px;font-family:'NSimSun';" transform="matrix(&st16;  614.48  383.92 )">STP</text>
		<text style="font-size:6px;font-family:'NSimSun';" transform="matrix(&st16;  605.71  372.03 )">3</text>
		<text style="font-size:6px;font-family:'NSimSun';" transform="matrix(&st16;  614.21  460.4 )">1</text>
		<g ewd:figtype="title">
			<text style="font-size:6px;font-family:'NSimSun';" transform="matrix(&st17;  662.0  455.11 )">L3</text>
			<text style="font-size:6px;font-family:'NSimSun';" transform="matrix(&st17;  669.11  455.12 )" ewd:textID="6">左后组合灯总成</text>
		</g>
	</g>
	<g ewd:figtype="conn" ewd:figID="7" ewd:code="L26">
		<path style="stroke-width: 0.85 ;&st7;  " d=" M   474.80,   424.77  L   482.16,   420.52  "/>
		<path style="stroke-width: 0.85 ;&st7;  " d=" M   480.15,   417.05  L   472.79,   421.30  "/>
		<path style="stroke-width: 0.85 ;&st7;  " d=" M   471.67,   426.71  L   463.17,   426.71  "/>
		<path style="stroke-width: 0.85 ;&st7;  " d=" M   440.80,   424.77  L   448.16,   420.52  "/>
		<path style="stroke-width: 0.85 ;&st7;  " d=" M   446.16,   417.05  L   438.80,   421.30  "/>
		<path style="stroke-width: 0.85 ;&st7;  " d=" M   437.68,   426.71  L   429.18,   426.71  "/>
		<path style="stroke-width: 1.42 ;&st7;   " d=" M   433.43,   384.22  C   435.64    386.04    438.77    385.98    440.91    384.08  "/>
		<path style="stroke-width: 1.42 ;&st7;   " d=" M   433.43,   384.22  C   431.22    382.40    428.08    382.46    425.94    384.36  "/>
		<path style="stroke-width: 0.85 ;&st7;  " d=" M   467.42,   384.22  L   467.42,   375.72  "/>
		<path style="stroke-width: 1.42 ;&st7;  " d=" M   416.43,   375.72  L   416.43,   452.21  L   484.42,   452.21  L   484.42,   375.72  L   416.43,   375.72  "/>
		<path style="stroke-width: 0.85 ;&st7;  " d=" M   433.43,   426.71  L   433.43,   435.21  L   467.42,   435.21  L   467.42,   426.71  "/>
		<path style="stroke-width: 0.85 ;&st7;  " d=" M   450.42,   435.21  L   450.42,   452.21  "/>
		<path style="stroke-width: 0.85 ;&st7;  " d=" M   467.42,   418.22  L   467.42,   409.72  L   464.59,   408.30  L   470.25,   405.47  L   464.59,   402.63  L   470.25,   399.80  L   464.59,   396.97  L   470.25,   394.14  L   467.42,   392.72  L   467.42,   384.22  "/>
		<path style="stroke-width: 0.85 ;&st7;  " d=" M   433.43,   418.22  L   433.43,   409.72  L   430.59,   408.30  L   436.26,   405.47  L   430.59,   402.63  L   436.26,   399.80  L   430.59,   396.97  L   436.26,   394.14  L   433.43,   392.72  L   433.43,   384.22  "/>
		<path style="stroke-width: 0.85 ;&st7;  " d=" M   482.16,   420.52  L   479.82,   423.56  L   478.36,   421.02  L   482.16,   420.52  L   480.87,   421.26  L   479.89,   422.54  L   479.27,   421.47  L   480.87,   421.26  L   480.23,   421.63  L   479.92,   422.03  L   479.73,   421.70  L   480.23,   421.63  "/>
		<path style="stroke-width: 0.85 ;&st7;  " d=" M   480.16,   417.05  L   477.82,   420.09  L   476.35,   417.55  L   480.16,   417.05  L   478.87,   417.79  L   477.89,   419.07  L   477.27,   418.00  L   478.87,   417.79  L   478.23,   418.16  L   477.92,   418.56  L   477.72,   418.23  L   478.23,   418.16  "/>
		<path style="stroke-width: 0.28 ;&st9;  " d=" M   467.42,   426.71  L   461.76,   418.22  L   473.09,   418.22  L   467.42,   426.71  "/>
		<path style="stroke-width: 0.85 ;&st7;  " d=" M   448.16,   420.52  L   445.83,   423.56  L   444.36,   421.02  L   448.16,   420.52  L   446.88,   421.26  L   445.90,   422.54  L   445.28,   421.47  L   446.88,   421.26  L   446.24,   421.63  L   445.93,   422.03  L   445.74,   421.70  L   446.24,   421.63  "/>
		<path style="stroke-width: 0.85 ;&st7;  " d=" M   446.16,   417.05  L   443.83,   420.09  L   442.36,   417.55  L   446.16,   417.05  L   444.88,   417.79  L   443.89,   419.07  L   443.27,   418.00  L   444.88,   417.79  L   444.24,   418.16  L   443.93,   418.56  L   443.73,   418.23  L   444.24,   418.16  "/>
		<path style="stroke-width: 0.28 ;&st9;  " d=" M   433.43,   426.71  L   427.76,   418.22  L   439.09,   418.22  L   433.43,   426.71  "/>
		<text style="font-size:6px;font-family:'NSimSun';" transform="matrix(&st16;  453.01  448.52 )">E</text>
		<text style="font-size:6px;font-family:'NSimSun';" transform="matrix(&st16;  470.01  383.92 )">STP</text>
		<text style="font-size:6px;font-family:'NSimSun';" transform="matrix(&st17;  459.76  427.95 )" ewd:textID="8">停止</text>
		<text style="font-size:6px;font-family:'NSimSun';" transform="matrix(&st17;  425.77  427.02 )" ewd:textID="10">尾灯</text>
		<path style="stroke-width: 0.85 ;&st7;  " d=" M   449.23,   434.21  L   448.96,   434.68  L   448.87,   435.21  L   448.96,   435.75  L   449.23,   436.22  L   449.65,   436.56  L   450.15,   436.75  L   450.70,   436.75  L   451.20,   436.56  L   451.62,   436.22  L   451.89,   435.75  L   451.98,   435.21  L   451.89,   434.68  L   451.62,   434.21  L   451.20,   433.86  L   450.70,   433.68  L   450.15,   433.68  L   449.65,   433.86  L   449.23,   434.21  L   449.63,   434.92  L   449.63,   435.50  L   450.00,   435.95  L   450.57,   436.05  L   451.08,   435.76  L   451.27,   435.21  L   451.08,   434.67  L   450.57,   434.38  L   450.00,   434.48  L   450.42,   435.21  "/>
		<text style="font-size:6px;font-family:'NSimSun';" transform="matrix(&st16;  444.24  460.4 )">4</text>
		<text style="font-size:6px;font-family:'NSimSun';" transform="matrix(&st16;  461.24  372.03 )">1</text>
		<g ewd:figtype="title">
			<text style="font-size:6px;font-family:'NSimSun';" transform="matrix(&st17;  499.14  455.12 )" ewd:textID="7">右后组合灯总成</text>
			<text style="font-size:6px;font-family:'NSimSun';" transform="matrix(&st17;  492.03  455.11 )">L26</text>
		</g>
	</g>
	<g ewd:figtype="conn" ewd:figID="8" ewd:code="A2">
		<g ewd:lineID="2">
			<text style="font-size:6px;font-family:'NSimSun';" transform="matrix(&st16;  44.81  307.43 )">3</text>
			<text style="font-size:6px;font-family:'NSimSun';" transform="matrix(&st16;  44.34  295.54 )">GND</text>
		</g>
		<g ewd:lineID="3">
			<text style="font-size:6px;font-family:'NSimSun';" transform="matrix(&st16;  78.8  307.43 )">2</text>
			<text style="font-size:6px;font-family:'NSimSun';" transform="matrix(&st16;  78.3  295.54 )">OUT</text>
		</g>
		<g ewd:lineID="4">
			<text style="font-size:6px;font-family:'NSimSun';" transform="matrix(&st16;  78.8  253.05 )">1</text>
			<text style="font-size:6px;font-family:'NSimSun';" transform="matrix(&st16;  82.8  264.38 )">B</text>
		</g>
		<path style="stroke-width: 1.42 ;&st7;  " d=" M   101.98,   299.24  L   101.98,   256.74  L    33.99,   256.74  L    33.99,   299.24  L   101.98,   299.24  "/>
		<g ewd:figtype="title">
			<text style="font-size:6px;font-family:'NSimSun';" transform="matrix(&st17; 109.59 302.13)">A2</text>
			<text style="font-size:6px;font-family:'NSimSun';" transform="matrix(&st17; 116.70 302.14)" ewd:textID="9">刹车灯开关总成</text>
		</g>
	</g>
	<g ewd:figtype="conn" ewd:figID="9" ewd:code="L56">
		<path style="stroke-width: 1.42 ;&st7;  " d=" M   331.44,   537.20  L   628.89,   537.20  L   628.89,   520.20  L   331.44,   520.20  L   331.44,   537.20  "/>
		<path style="stroke-width: 0.85 ;&st7;  " d=" M   339.94,   520.20  L   339.94,   528.70  L   620.40,   528.70  "/>
		<path style="stroke-width: 0.85 ;&st7;  " d=" M   620.40,   537.20  L   620.40,   520.20  "/>
		<path style="stroke-width: 0.85 ;&st7;  " d=" M   619.20,   527.69  L   618.93,   528.16  L   618.84,   528.70  L   618.93,   529.23  L   619.20,   529.70  L   619.62,   530.05  L   620.12,   530.23  L   620.67,   530.23  L   621.18,   530.05  L   621.59,   529.70  L   621.86,   529.23  L   621.95,   528.70  L   621.86,   528.16  L   621.59,   527.69  L   621.18,   527.35  L   620.67,   527.16  L   620.12,   527.16  L   619.62,   527.35  L   619.20,   527.69  L   619.60,   528.41  L   619.60,   528.99  L   619.97,   529.43  L   620.54,   529.53  L   621.05,   529.24  L   621.25,   528.70  L   621.05,   528.15  L   620.54,   527.86  L   619.97,   527.96  L   620.40,   528.70  "/>
		<text style="font-size:6px;font-family:'NSimSun';" transform="matrix(&st16;  333.76  516.51 )">3</text>
		<text style="font-size:6px;font-family:'NSimSun';" transform="matrix(&st16;  614.21  545.39 )">6</text>
		<text style="font-size:6px;font-family:'NSimSun';" transform="matrix(&st16;  614.21  516.51 )">4</text>
		<g ewd:figtype="title">
			<text style="font-size:6px;font-family:'NSimSun';" transform="matrix(&st16;  328.04  551.91 )" ewd:textID="4">8 号接线连接器</text>
			<text style="font-size:6px;font-family:'NSimSun';" transform="matrix(&st16;  328.03  545.09 )">L56</text>
		</g>
	</g>
	<g ewd:figtype="jb" ewd:figID="10" ewd:code="3">
		<path style="stroke-width: 1.42 ;&st7;  " d=" M   146.60,   120.77  L   142.35,   120.77  "/>
		<path style="stroke-width: 1.42 ;&st7;  " d=" M   146.60,   112.27  L   142.35,   112.27  "/>
		<path style="stroke-width: 0.85 ;&st7;  " d=" M   144.48,    69.77  L   144.48,   112.27  "/>
		<path style="stroke-width: 1.42 ;&st7;   " d=" M   150.85,   116.52  C   150.85    114.17    148.95    112.27    146.60    112.27  "/>
		<path style="stroke-width: 1.42 ;&st7;   " d=" M   146.60,   120.77  C   148.95    120.77    150.85    118.86    150.85    116.52  "/>
		<path style="stroke-width: 1.42 ;&st7;   " d=" M   138.10,   116.52  C   138.10    118.86    140.00    120.77    142.35    120.77  "/>
		<path style="stroke-width: 1.42 ;&st7;   " d=" M   142.35,   112.27  C   140.00    112.27    138.10    114.17    138.10    116.52  "/>
		<path style="stroke-width: 0.85 ;&st7;   " d=" M   145.89,    68.36  C   145.89     67.57    145.26     66.94    144.48     66.94  "/>
		<path style="stroke-width: 0.85 ;&st7;   " d=" M   144.48,    66.94  C   143.69     66.94    143.06     67.57    143.06     68.36  "/>
		<path style="stroke-width: 0.85 ;&st7;   " d=" M   143.06,    68.36  C   143.06     69.14    143.69     69.77    144.48     69.77  "/>
		<path style="stroke-width: 0.85 ;&st7;   " d=" M   144.48,    69.77  C   145.26     69.77    145.89     69.14    145.89     68.36  "/>
		<path style="stroke-width: 0.85 ;&st7;   " d=" M   145.89,    45.69  C   145.89     44.91    145.26     44.28    144.48     44.28  "/>
		<path style="stroke-width: 0.85 ;&st7;   " d=" M   144.48,    44.28  C   143.69     44.28    143.06     44.91    143.06     45.69  "/>
		<path style="stroke-width: 0.85 ;&st7;   " d=" M   143.06,    45.69  C   143.06     46.48    143.69     47.11    144.48     47.11  "/>
		<path style="stroke-width: 0.85 ;&st7;   " d=" M   144.48,    47.11  C   145.26     47.11    145.89     46.48    145.89     45.69  "/>
		<path style="stroke-width: 1.42 ;&st7;   " d=" M   144.48,    66.94  C   147.21     65.33    148.13     61.80    146.51     59.06  "/>
		<path style="stroke-width: 1.42 ;&st7;   " d=" M   146.51,    59.06  C   145.99     58.18    145.36     57.55    144.48     57.03  "/>
		<path style="stroke-width: 1.42 ;&st7;   " d=" M   144.48,    47.11  C   141.74     48.72    140.83     52.25    142.44     54.99  "/>
		<path style="stroke-width: 1.42 ;&st7;   " d=" M   142.44,    54.99  C   142.96     55.87    143.59     56.51    144.48     57.03  "/>
		<path style="stroke-width: 1.42 ;&st7;  " d=" M   131.73,    35.78  L   131.73,    78.27  L   157.22,    78.27  L   157.22,    35.78  L   131.73,    35.78  "/>
		<path style="stroke-width: 0.28 ;&st9;  " d=" M   144.48,   107.37  L   141.64,   104.54  L   141.64,   108.79  L   144.48,   111.62  L   147.31,   108.79  L   147.31,   104.54  L   144.48,   107.37  "/>
		<text style="font-size:6px;font-family:'NSimSun';" transform="matrix(&st16;  136.43  32.08 )">(BAT)</text>
		<text style="font-size:6px;font-family:'NSimSun';" transform="matrix(&st16;  133.97  118.49 )">9</text>
		<text style="font-size:6px;font-family:'NSimSun';" transform="matrix(&st16;  140.62  118.49 )">3A</text>
		<text style="font-size:6px;font-family:'NSimSun';" transform="matrix(&st16;  160.9  56.17 )">7.5A <tspan x="0 " dy="6.0">STOP</tspan></text>
		<text style="font-size:6px;font-family:'NSimSun';" transform="matrix(&st16;  138.29  86.47 )">2</text>
	</g>
	<g ewd:figtype="jb" ewd:figID="11" ewd:code="3">
		<path style="stroke-width: 1.42 ;&st7;  " d=" M   248.58,   537.20  L   244.33,   537.20  "/>
		<path style="stroke-width: 1.42 ;&st7;  " d=" M   248.58,   528.70  L   244.33,   528.70  "/>
		<path style="stroke-width: 1.42 ;&st7;  " d=" M   214.59,   528.70  L   210.34,   528.70  "/>
		<path style="stroke-width: 1.42 ;&st7;  " d=" M   214.59,   537.20  L   210.34,   537.20  "/>
		<path style="stroke-width: 1.42 ;&st7;  " d=" M   146.60,   537.20  L   142.35,   537.20  "/>
		<path style="stroke-width: 1.42 ;&st7;  " d=" M   146.60,   528.70  L   142.35,   528.70  "/>
		<path style="stroke-width: 1.42 ;&st7;   " d=" M   252.83,   532.95  C   252.83    530.60    250.93    528.70    248.58    528.70  "/>
		<path style="stroke-width: 1.42 ;&st7;   " d=" M   248.58,   537.20  C   250.93    537.20    252.83    535.29    252.83    532.95  "/>
		<path style="stroke-width: 1.42 ;&st7;   " d=" M   240.08,   532.95  C   240.08    535.29    241.99    537.20    244.33    537.20  "/>
		<path style="stroke-width: 1.42 ;&st7;   " d=" M   244.33,   528.70  C   241.99    528.70    240.08    530.60    240.08    532.95  "/>
		<path style="stroke-width: 1.42 ;&st7;   " d=" M   210.34,   528.70  C   207.99    528.70    206.09    530.60    206.09    532.95  "/>
		<path style="stroke-width: 1.42 ;&st7;   " d=" M   206.09,   532.95  C   206.09    535.29    207.99    537.20    210.34    537.20  "/>
		<path style="stroke-width: 1.42 ;&st7;   " d=" M   214.59,   537.20  C   216.94    537.20    218.84    535.29    218.84    532.95  "/>
		<path style="stroke-width: 1.42 ;&st7;   " d=" M   218.84,   532.95  C   218.84    530.60    216.94    528.70    214.59    528.70  "/>
		<path style="stroke-width: 1.42 ;&st7;   " d=" M   150.85,   532.95  C   150.85    530.60    148.95    528.70    146.60    528.70  "/>
		<path style="stroke-width: 1.42 ;&st7;   " d=" M   146.60,   537.20  C   148.95    537.20    150.85    535.29    150.85    532.95  "/>
		<path style="stroke-width: 1.42 ;&st7;   " d=" M   138.10,   532.95  C   138.10    535.29    140.00    537.20    142.35    537.20  "/>
		<path style="stroke-width: 1.42 ;&st7;   " d=" M   142.35,   528.70  C   140.00    528.70    138.10    530.60    138.10    532.95  "/>
		<path style="stroke-width: 0.85 ;&st7;  " d=" M   211.27,   553.19  L   211.00,   553.66  L   210.91,   554.19  L   211.00,   554.73  L   211.27,   555.20  L   211.69,   555.54  L   212.19,   555.73  L   212.74,   555.73  L   213.24,   555.54  L   213.66,   555.20  L   213.93,   554.73  L   214.02,   554.19  L   213.93,   553.66  L   213.66,   553.19  L   213.24,   552.84  L   212.74,   552.66  L   212.19,   552.66  L   211.69,   552.84  L   211.27,   553.19  L   211.67,   553.90  L   211.67,   554.48  L   212.04,   554.93  L   212.61,   555.03  L   213.12,   554.74  L   213.31,   554.19  L   213.12,   553.65  L   212.61,   553.36  L   212.04,   553.46  L   212.46,   554.19  "/>
		<path style="stroke-width: 0.85 ;&st7;  " d=" M   212.46,   554.19  L   246.46,   554.19  L   246.46,   537.20  "/>
		<path style="stroke-width: 0.28 ;&st9;  " d=" M   246.46,   542.09  L   249.29,   544.92  L   249.29,   540.67  L   246.46,   537.84  L   243.63,   540.67  L   243.63,   544.92  L   246.46,   542.09  "/>
		<path style="stroke-width: 0.28 ;&st9;  " d=" M   212.46,   542.09  L   215.30,   544.92  L   215.30,   540.67  L   212.46,   537.84  L   209.63,   540.67  L   209.63,   544.92  L   212.46,   542.09  "/>
		<path style="stroke-width: 0.85 ;&st7;  " d=" M   144.48,   554.19  L   212.46,   554.19  L   212.46,   537.20  "/>
		<path style="stroke-width: 0.85 ;&st7;  " d=" M   144.48,   554.19  L   144.48,   537.20  "/>
		<path style="stroke-width: 0.28 ;&st9;  " d=" M   144.48,   542.09  L   147.31,   544.92  L   147.31,   540.67  L   144.48,   537.84  L   141.64,   540.67  L   141.64,   544.92  L   144.48,   542.09  "/>
		<text style="font-size:6px;font-family:'NSimSun';" transform="matrix(&st16;  232.85  534.92 )">23</text>
		<text style="font-size:6px;font-family:'NSimSun';" transform="matrix(&st16;  242.8  534.92 )">3E</text>
		<text style="font-size:6px;font-family:'NSimSun';" transform="matrix(&st16;  208.8  534.92 )">3E</text>
		<text style="font-size:6px;font-family:'NSimSun';" transform="matrix(&st16;  198.86  534.92 )">24</text>
		<text style="font-size:6px;font-family:'NSimSun';" transform="matrix(&st16;  130.87  534.92 )">10</text>
		<text style="font-size:6px;font-family:'NSimSun';" transform="matrix(&st16;  140.62  534.92 )">3A</text>
	</g>
	<g ewd:figtype="w2w" ewd:figID="12" ewd:code="AE4">
		<path style="stroke-width: 1.42 ;&st7;  " d=" M    55.24,   423.88  L    50.99,   419.63  L    46.74,   423.88  "/>
		<path style="stroke-width: 1.42 ;&st7;  " d=" M    55.24,   427.28  L    50.99,   423.03  L    46.74,   427.28  "/>
		<text style="font-size:6px;font-family:'NSimSun';" transform="matrix(&st16;  35.26  415.94 )">15</text>
	</g>
	<g ewd:figtype="w2w" ewd:figID="13" ewd:code="gL1">
		<path style="stroke-width: 1.42 ;&st7;  " d=" M   871.10,   517.37  L   866.85,   513.12  L   862.61,   517.37  "/>
		<path style="stroke-width: 1.42 ;&st7;  " d=" M   871.10,   520.77  L   866.85,   516.52  L   862.61,   520.77  "/>
		<text style="font-size:6px;font-family:'NSimSun';" transform="matrix(&st16;  854.22  509.42 )">2</text>
	</g>
	<g ewd:figtype="w2w" ewd:figID="14" ewd:code="gL1">
		<path style="stroke-width: 1.42 ;&st7;  " d=" M   871.10,   336.06  L   866.85,   340.31  L   862.61,   336.06  "/>
		<path style="stroke-width: 1.42 ;&st7;  " d=" M   862.61,   332.66  L   866.85,   336.91  L   871.10,   332.66  "/>
		<text style="font-size:6px;font-family:'NSimSun';" transform="matrix(&st16;  854.22  347.95 )">1</text>
	</g>
	<g ewd:figtype="gp" ewd:figID="15" ewd:code="EB">
		<path style="stroke-width: 0.85 ;&st7;  " d=" M    49.58,   710.00  L    52.41,   710.00  "/>
		<path style="stroke-width: 0.85 ;&st7;  " d=" M    48.16,   707.17  L    53.82,   707.17  "/>
		<path style="stroke-width: 0.85 ;&st7;  " d=" M    46.74,   704.33  L    55.24,   704.33  "/>
		<path style="stroke-width: 0.85 ;&st7;  " d=" M    42.49,   701.50  L    59.49,   701.50  "/>
		<path style="stroke-width: 0.85 ;&st7;  " d=" M    50.99,   697.25  L    50.99,   701.50  "/>
	</g>
	<g ewd:figtype="gp" ewd:figID="16" ewd:code="LA">
		<path style="stroke-width: 0.85 ;&st7;  " d=" M   618.98,   710.00  L   621.81,   710.00  "/>
		<path style="stroke-width: 0.85 ;&st7;  " d=" M   617.56,   707.17  L   623.23,   707.17  "/>
		<path style="stroke-width: 0.85 ;&st7;  " d=" M   616.15,   704.33  L   624.65,   704.33  "/>
		<path style="stroke-width: 0.85 ;&st7;  " d=" M   611.90,   701.50  L   628.89,   701.50  "/>
		<path style="stroke-width: 0.85 ;&st7;  " d=" M   620.40,   697.25  L   620.40,   701.50  "/>
	</g>
	<g ewd:figtype="gp" ewd:figID="17" ewd:code="LC">
		<path style="stroke-width: 0.85 ;&st7;  " d=" M   866.85,   697.25  L   866.85,   701.50  "/>
		<path style="stroke-width: 0.85 ;&st7;  " d=" M   858.36,   701.50  L   875.35,   701.50  "/>
		<path style="stroke-width: 0.85 ;&st7;  " d=" M   864.02,   707.17  L   869.69,   707.17  "/>
		<path style="stroke-width: 0.85 ;&st7;  " d=" M   865.44,   710.00  L   868.27,   710.00  "/>
		<path style="stroke-width: 0.85 ;&st7;  " d=" M   862.61,   704.33  L   871.10,   704.33  "/>
	</g>
	<g ewd:figtype="annex" ewd:figID="20" ewd:code=" ">
		<path style="stroke-width: 0.85 ;&st7;  " d=" M   917.85,   307.73  L   934.84,   307.73  "/>
		<path style="stroke-width: 0.85 ;&st7;  " d=" M   926.34,   299.24  L   926.34,   307.73  "/>
		<path style="stroke-width: 0.85 ;&st7;  " d=" M   924.93,   316.23  L   927.76,   316.23  "/>
		<path style="stroke-width: 0.85 ;&st7;  " d=" M   922.10,   310.57  L   930.59,   310.57  "/>
		<path style="stroke-width: 0.85 ;&st7;  " d=" M   923.51,   313.40  L   929.18,   313.40  "/>
	</g>
	<g ewd:code="14" ewd:figID="21" ewd:comment="" ewd:figtype="comment">
		<text style="font-size:6px;font-family:'NSimSun';" transform="matrix(&st16;  812.46  71.74 )" ewd:textID="2">* 14 : 灯泡型刹车灯</text>
	</g>
	<g ewd:code="13" ewd:figID="22" ewd:comment="" ewd:figtype="comment">
		<text style="font-size:6px;font-family:'NSimSun';" transform="matrix(&st16;  812.46  63.24 )" ewd:textID="1">* 13 : LED 型刹车灯</text>
	</g>
	<path style="stroke-width: 1.42 ;&st7;  " d=" M   608.37,   231.25  L   603.40,   236.22  "/>
	<path style="stroke-width: 1.42 ;&st7;  " d=" M   620.40,   236.22  L   615.42,   231.25  "/>
	<path style="stroke-width: 1.42 ;&st7;  " d=" M   603.40,   243.27  L   608.37,   248.24  "/>
	<path style="stroke-width: 1.42 ;&st7;  " d=" M   615.42,   248.24  L   620.40,   243.27  "/>
	<path style="stroke-width: 1.42 ;&st7;  " d=" M    59.49,   418.22  L    50.99,   418.22  "/>
	<path style="stroke-width: 1.42 ;&st7;  " d=" M   875.35,   511.70  L   866.86,   511.70  "/>
	<path style="stroke-width: 1.42 ;&st7;  " d=" M   858.36,   341.73  L   866.86,   341.73  "/>
	<text style="font-size:6px;font-family:'NSimSun';" transform="matrix(&st16;  631.15  522.43 )">L56</text>
	<text style="font-size:6px;font-family:'NSimSun';" transform="matrix(&st16;  631.16  529.25 )" ewd:textID="4">8 号接线连接器</text>
	<text style="font-size:6px;font-family:'NSimSun';" transform="matrix(&st17;  616.7  594.14 )">W-B</text>
	<text style="font-size:6px;font-family:'NSimSun';" transform="matrix(&st17;  58.63  492.47 )">(*13)</text>
	<text style="font-size:6px;font-family:'NSimSun';" transform="matrix(&st17;  47.3  492.16 )">W-B</text>
	<text style="font-size:6px;font-family:'NSimSun';" transform="matrix(&st17;  58.63  356.49 )">(*13)</text>
	<text style="font-size:6px;font-family:'NSimSun';" transform="matrix(&st17;  47.3  356.18 )">W-B</text>
	<text style="font-size:6px;font-family:'NSimSun';" transform="matrix(&st17;  738.51  483.97 )">(*13)</text>
	<text style="font-size:6px;font-family:'NSimSun';" transform="matrix(&st17;  628.03  483.97 )">(*14)</text>
	<text style="font-size:6px;font-family:'NSimSun';" transform="matrix(&st17;  475.06  347.99 )">(*13)</text>
	<text style="font-size:6px;font-family:'NSimSun';" transform="matrix(&st17;  339.08  347.99 )">(*14)</text>
	<text style="font-size:6px;font-family:'NSimSun';" transform="matrix(&st17;  347.58  483.97 )">(*14)</text>
	<text style="font-size:6px;font-family:'NSimSun';" transform="matrix(&st17;  336.25  483.66 )">W-B</text>
	<text style="font-size:6px;font-family:'NSimSun';" transform="matrix(&st17;  458.06  483.97 )">(*13)</text>
	<text style="font-size:6px;font-family:'NSimSun';" transform="matrix(&st17;  446.73  483.66 )">W-B</text>
	<text style="font-size:6px;font-family:'NSimSun';" transform="matrix(&st17;  327.75  343.3 )">L</text>
	<text style="font-size:6px;font-family:'NSimSun';" transform="matrix(&st17;  463.73  343.3 )">L</text>
	<text style="font-size:6px;font-family:'NSimSun';" transform="matrix(&st17;  755.51  347.99 )">(*13)</text>
	<text style="font-size:6px;font-family:'NSimSun';" transform="matrix(&st17;  619.53  347.99 )">(*14)</text>
	<text style="font-size:6px;font-family:'NSimSun';" transform="matrix(&st17;  152.11  356.49 )">(*14)</text>
	<text style="font-size:6px;font-family:'NSimSun';" transform="matrix(&st17;  152.11  212.02 )">(*14)</text>
	<text style="font-size:6px;font-family:'NSimSun';" transform="matrix(&st17;  140.78  351.8 )">L</text>
	<text style="font-size:6px;font-family:'NSimSun';" transform="matrix(&st17;  140.78  208.22 )">W</text>
	<text style="font-size:6px;font-family:'NSimSun';" transform="matrix(&st17;  92.62  356.49 )">(*13)</text>
	<text style="font-size:6px;font-family:'NSimSun';" transform="matrix(&st17;  92.62  212.02 )">(*13)</text>
	<text style="font-size:6px;font-family:'NSimSun';" transform="matrix(&st17;  863.16  292.31 )">L</text>
	<text style="font-size:6px;font-family:'NSimSun';" transform="matrix(&st17;  863.16  483.66 )">W-B</text>
	<text style="font-size:6px;font-family:'NSimSun';" transform="matrix(&st16;  490.85  236.05 )">L</text>
	<text style="font-size:6px;font-family:'NSimSun';" transform="matrix(&st16;  541.84  236.05 )">L</text>
	<text style="font-size:6px;font-family:'NSimSun';" transform="matrix(&st17;  939.65  232.82 )">L</text>
	<text style="font-size:6px;font-family:'NSimSun';" transform="matrix(&st17;  608.2  343.3 )">L</text>
	<text style="font-size:6px;font-family:'NSimSun';" transform="matrix(&st17;  744.18  343.3 )">L</text>
	<text style="font-size:6px;font-family:'NSimSun';" transform="matrix(&st16;  677.81  202.05 )">L</text>
	<text style="font-size:6px;font-family:'NSimSun';" transform="matrix(&st17;  863.16  594.14 )">W-B</text>
	<text style="font-size:6px;font-family:'NSimSun';" transform="matrix(&st17;  863.16  377.3 )">L</text>
	<text style="font-size:6px;font-family:'NSimSun';" transform="matrix(&st17;  616.7  483.66 )">W-B</text>
	<text style="font-size:6px;font-family:'NSimSun';" transform="matrix(&st17;  727.18  483.66 )">W-B</text>
	<text style="font-size:6px;font-family:'NSimSun';" transform="matrix(&st17;  208.77  487.78 )">L</text>
	<text style="font-size:6px;font-family:'NSimSun';" transform="matrix(&st17;  81.29  351.8 )">L</text>
	<text style="font-size:6px;font-family:'NSimSun';" transform="matrix(&st17;  81.29  208.22 )">W</text>
	<a ewd:figtype="w2w" style="cursor:pointer;" ewd:pinNo="15" ewd:code="AE4" ewd:figID="12">
		<path style="&st2;" d=" M    59.49,   409.72  L    42.49,   409.72  L    42.49,   418.22  L    59.49,   418.22  L    59.49,   409.72 "/>
		<text style="&st8;" transform="matrix(&st16;  45.69  416.09 )"><tspan x="0" style="font-size:6px;font-family:'NSimSun';" y="0">AE4</tspan></text>
	</a>
	<a ewd:figtype="w2w" style="cursor:pointer;" ewd:pinNo="2" ewd:code="gL1" ewd:figID="13">
		<path style="&st2;" d=" M   875.35,   503.20  L   858.36,   503.20  L   858.36,   511.70  L   875.35,   511.70  L   875.35,   503.20 "/>
		<text style="&st8;" transform="matrix(&st16;  862.15  509.57 )"><tspan x="0" style="font-size:6px;font-family:'NSimSun';" y="0">gL1</tspan></text>
	</a>
	<a ewd:figtype="w2w" style="cursor:pointer;" ewd:pinNo="1" ewd:code="gL1" ewd:figID="14">
		<path style="&st2;" d=" M   875.35,   341.73  L   858.36,   341.73  L   858.36,   350.23  L   875.35,   350.23  L   875.35,   341.73 "/>
		<text style="&st8;" transform="matrix(&st16;  862.15  348.1 )"><tspan x="0" style="font-size:6px;font-family:'NSimSun';" y="0">gL1</tspan></text>
	</a>
	<a ewd:figtype="gp" style="cursor:pointer;" ewd:code="EB" ewd:figID="15">
		<path style="&st2;" d=" M    40.37,   681.67  L    61.61,   681.67  L    50.99,   697.25  L    40.37,   681.67 "/>
		<text style="&st8;" transform="matrix(&st16;  47.3  689.46 )"><tspan x="0" style="font-size:6px;font-family:'NSimSun';" y="0">EB</tspan></text>
	</a>
	<a ewd:figtype="gp" style="cursor:pointer;" ewd:code="LA" ewd:figID="16">
		<path style="&st2;" d=" M   609.77,   681.67  L   631.02,   681.67  L   620.40,   697.25  L   609.77,   681.67 "/>
		<text style="&st8;" transform="matrix(&st16;  616.63  689.46 )"><tspan x="0" style="font-size:6px;font-family:'NSimSun';" y="0">LA</tspan></text>
	</a>
	<a ewd:figtype="gp" style="cursor:pointer;" ewd:code="LC" ewd:figID="17">
		<path style="&st2;" d=" M   856.23,   681.67  L   877.48,   681.67  L   866.86,   697.25  L   856.23,   681.67 "/>
		<text style="&st8;" transform="matrix(&st16;  862.98  689.46 )"><tspan x="0" style="font-size:6px;font-family:'NSimSun';" y="0">LC</tspan></text>
	</a>
	<a ewd:figtype="sp" style="cursor:pointer;" ewd:code="SP35" ewd:figID="18">
		<path style="&st2;" d=" M   607.65,   231.25  L   616.15,   231.25  L   620.40,   235.50  L   620.40,   243.99  L   616.15,   248.24  L   607.65,   248.24  L   603.40,   243.99  L   603.40,   235.50  L   607.65,   231.25 "/>
	</a>
</g>
</svg>