<?xml version="1.0" encoding="utf-8"?>
<!DOCTYPE svg PUBLIC "-//W3C//DTD SVG 1.0//EN" "http://www.w3.org/TR/2001/REC-SVG-20010904/DTD/svg10.dtd"[
	<!ENTITY ns_flows "http://ns.adobe.com/Flows/1.0/">
	<!ENTITY ns_svg "http://www.w3.org/2000/svg">
	<!ENTITY ns_xlink "http://www.w3.org/1999/xlink">
	<!ENTITY st0 "font-size:7px;font-family:'NSimSun';adobe-font-script:japanese;">
	<!ENTITY st1 "font-size:6px;font-family:'NSimSun';">
	<!-- White fill  -->
	<!ENTITY st2 "fill:#FFFFFF;stroke:#000000; stroke-width:1.41;stroke-linecap:round;stroke-linejoin:round;">
	<!-- Yellow fill  -->
	<!ENTITY st3 "fill:#FFFFCC;stroke:#FFFFCC; stroke-width:0.1;stroke-linecap:round;stroke-linejoin:round;">
	<!-- Gray fill  -->
	<!ENTITY st4 "fill:#CCCCCC;stroke:#CCCCCC; stroke-width:0.1;stroke-linecap:round;stroke-linejoin:round;">
	<!-- Light-blue fill -->
	<!ENTITY st5 "fill:#CCECF4;stroke:#000000; stroke-width:1.133;stroke-linecap:round;stroke-linejoin:round;">
	<!ENTITY st6 "fill:none;stroke-linecap:butt; stroke-linejoin:round;">
	<!ENTITY st7 "fill:none;stroke:#000000;stroke-linecap:round;stroke-linejoin:round;">
	<!ENTITY st8 "enable-background:new    ;">
	<!-- Black fill -->
	<!ENTITY st9 "fill:#000000;stroke:#000000; stroke-linecap:round;stroke-linejoin:round;">
	<!-- SRS note   -->
	<!ENTITY st10 "font-size:9px;font-family:'NSimSun';">
	<!ENTITY st11 "font-size:9px;font-family:'NSimSun';">
	<!ENTITY st12 "font-size:6px;font-family:'NSimSun';">
	<!ENTITY st13 "fill:none;stroke:#ff0000;stroke-linecap:round;stroke-linejoin:round;">
	<!-- Yellow fill  -->
	<!ENTITY st14 "fill:#FFFF00;stroke:#FFFF00; stroke-width:0.1;stroke-linecap:round;stroke-linejoin:round;">
	<!ENTITY st15 "font-size:6px;font-family:'NSimSun';adobe-font-script:japanese;">
	<!ENTITY st16 "1.00 0.00 0.00 1.00">
	<!ENTITY st17 "0.00 -1.00 1.00 0.00">
	<!ENTITY st18 "font-size:6px;font-family:'NSimSun';">
	<!ENTITY st19 "font-size:9px;font-family:'NSimSun';">
	<!ENTITY st20 "font-size:6px;font-family:'NSimSun';adobe-font-script:japanese;">
	<!ENTITY st21 "font-size:7px;font-family:'NSimSun';adobe-font-script:japanese;">
	<!ATTLIST svg
		xmlns:ewd CDATA #FIXED "http://shcl.co.jp/ewd"
		xmlns:a CDATA #FIXED "http://ns.adobe.com/AdobeSVGViewerExtensions/3.0/"
		ewd:ver CDATA #IMPLIED
	>
	<!ATTLIST a
		ewd:lineID CDATA #IMPLIED
		ewd:groupID CDATA #IMPLIED
		ewd:figtype CDATA #IMPLIED
		ewd:code CDATA #IMPLIED
		ewd:figID CDATA #IMPLIED
		ewd:pinNo CDATA #IMPLIED
		ewd:comment CDATA #IMPLIED >
	<!ATTLIST g
		ewd:lineID CDATA #IMPLIED
		ewd:groupID CDATA #IMPLIED
		ewd:figtype CDATA #IMPLIED
		ewd:code CDATA #IMPLIED
		ewd:figID CDATA #IMPLIED
		ewd:pinNo CDATA #IMPLIED
		ewd:comment CDATA #IMPLIED >
	<!ATTLIST text
		ewd:textID CDATA #IMPLIED
		ewd:horAlign CDATA #IMPLIED >
	<!ATTLIST title
		ewd:textID CDATA #IMPLIED >
]>
<!-- Generator: Shintec Hozumi YS   -->
<svg onload="call_execInitLoadProc_svg('system')" style="overflow:visible;  enable-background:new 0 0 2052.259 710.000" viewBox="0 0 2048.594 710.000" height="710.000" width="2048.594" xml:space="preserve" ewd:ver="2.1.2.6F" xmlns="&ns_svg;" xmlns:ewd="http://shcl.co.jp/ewd" xmlns:a="http://ns.adobe.com/AdobeSVGViewerExtensions/3.0/" xmlns:xlink="&ns_xlink;">
<text style="font-size:6px;font-family:'NSimSun';" transform="matrix(&st16;  1521.82  635.48 )">W(*1)</text><text style="font-size:6px;font-family:'NSimSun';" transform="matrix(&st16;  1520.5  652.48 )">LG(*1)</text><text style="font-size:6px;font-family:'NSimSun';" transform="matrix(&st16;  1572.81  635.48 )">W(*1)</text><text style="font-size:6px;font-family:'NSimSun';" transform="matrix(&st16;  1571.49  652.48 )">LG(*1)</text><text style="font-size:6px;font-family:'NSimSun';" transform="matrix(&st17;  1925.48  135.01 )">P</text><text style="font-size:6px;font-family:'NSimSun';" transform="matrix(&st17;  1933.98  548.16 )">W</text><text style="font-size:6px;font-family:'NSimSun';" transform="matrix(&st17;  1967.97  549.48 )">LG</text><text style="font-size:6px;font-family:'NSimSun';" transform="matrix(&st17;  1936.81  138.23 )">(*1)</text><text style="font-size:6px;font-family:'NSimSun';" transform="matrix(&st17;  1945.31  550.41 )">(*1)</text><text style="font-size:6px;font-family:'NSimSun';" transform="matrix(&st17;  1979.31  550.41 )">(*1)</text><text style="font-size:6px;font-family:'NSimSun';" transform="matrix(&st17;  1707.35  558.91 )">(*2)</text><text style="font-size:6px;font-family:'NSimSun';" transform="matrix(&st17;  1758.34  558.91 )">(*2)</text><text style="font-size:6px;font-family:'NSimSun';" transform="matrix(&st17;  1639.36  558.91 )">(*2)</text><text style="font-size:6px;font-family:'NSimSun';" transform="matrix(&st17;  1715.85  244.46 )">(*2)</text><text style="font-size:6px;font-family:'NSimSun';" transform="matrix(&st17;  1639.36  244.46 )">(*2)</text><text style="font-size:6px;font-family:'NSimSun';" transform="matrix(&st17;  1639.36  138.23 )">(*2)</text><text style="font-size:6px;font-family:'NSimSun';" transform="matrix(&st17;  1696.02  557.98 )">LG</text><text style="font-size:6px;font-family:'NSimSun';" transform="matrix(&st17;  1628.03  556.66 )">W</text><text style="font-size:6px;font-family:'NSimSun';" transform="matrix(&st17;  1628.03  135.98 )">W</text><text style="font-size:6px;font-family:'NSimSun';" transform="matrix(&st17;  1747.01  557.74 )">BR</text><text style="font-size:6px;font-family:'NSimSun';" transform="matrix(&st17;  1628.03  242.21 )">W</text><text style="font-size:6px;font-family:'NSimSun';" transform="matrix(&st17;  1704.52  241.24 )">P</text><text style="font-size:6px;font-family:'NSimSun';" transform="matrix(&st16;  1520.5  618.48 )">LG(*2)</text><text style="font-size:6px;font-family:'NSimSun';" transform="matrix(&st16;  1521.82  601.49 )">W(*2)</text><text style="font-size:6px;font-family:'NSimSun';" transform="matrix(&st16;  1572.81  601.49 )">W(*2)</text><text style="font-size:6px;font-family:'NSimSun';" transform="matrix(&st16;  1571.49  618.48 )">LG(*2)</text><g ewd:figtype="rb" ewd:figID="5" ewd:code="FUSE6"><path style="stroke-width: 0.85 ;&st7;  " d=" M  2005.66,    69.77  L  2005.66,    95.27  " /><path style="stroke-width: 1.42 ;&st7;  " d=" M  2007.79,    95.27  L  2003.54,    95.27  " /><path style="stroke-width: 1.42 ;&st7;  " d=" M  2007.79,   103.77  L  2003.54,   103.77  " /><path style="stroke-width: 1.42 ;&st7;   " d=" M  2003.54,    95.27  C  2001.19     95.27   1999.29     97.17   1999.29     99.52  " /><path style="stroke-width: 1.42 ;&st7;   " d=" M  1999.29,    99.52  C  1999.29    101.87   2001.19    103.77   2003.54    103.77  " /><path style="stroke-width: 1.42 ;&st7;   " d=" M  2007.79,   103.77  C  2010.14    103.77   2012.04    101.87   2012.04     99.52  " /><path style="stroke-width: 1.42 ;&st7;   " d=" M  2012.04,    99.52  C  2012.04     97.17   2010.14     95.27   2007.79     95.27  " /><path style="stroke-width: 0.28 ;&st9;  " d=" M  2005.66,    90.37  L  2002.83,    87.54  L  2002.83,    91.79  L  2005.66,    94.62  L  2008.50,    91.79  L  2008.50,    87.54  L  2005.66,    90.37  " /><text style="font-size:6px;font-family:'NSimSun';" transform="matrix(&st16;  2022.09  53.34 )">10A <tspan x="0 " dy="6.0">ECU-B </tspan><tspan x="0 " dy="6.0">NO.2</tspan></text><text style="font-size:6px;font-family:'NSimSun';" transform="matrix(&st16;  2003.86  101.49 )">1</text><text style="font-size:6px;font-family:'NSimSun';" transform="matrix(&st16;  1999.48  86.47 )">2</text><text style="font-size:6px;font-family:'NSimSun';" transform="matrix(&st16;  1997.62  32.08 )">(BAT)</text><path style="stroke-width: 1.42 ;&st7;   " d=" M  2005.66,    47.11  C  2002.93     48.72   2002.02     52.25   2003.63     54.99  " /><path style="stroke-width: 1.42 ;&st7;   " d=" M  2003.63,    54.99  C  2004.15     55.87   2004.78     56.51   2005.66     57.03  " /><path style="stroke-width: 1.42 ;&st7;   " d=" M  2005.66,    66.94  C  2008.40     65.33   2009.31     61.80   2007.70     59.06  " /><path style="stroke-width: 1.42 ;&st7;   " d=" M  2007.70,    59.06  C  2007.18     58.18   2006.55     57.55   2005.66     57.03  " /><path style="stroke-width: 0.85 ;&st7;   " d=" M  2007.08,    45.69  C  2007.08     44.91   2006.45     44.28   2005.66     44.28  " /><path style="stroke-width: 0.85 ;&st7;   " d=" M  2005.66,    44.28  C  2004.88     44.28   2004.25     44.91   2004.25     45.69  " /><path style="stroke-width: 0.85 ;&st7;   " d=" M  2004.25,    45.69  C  2004.25     46.48   2004.88     47.11   2005.66     47.11  " /><path style="stroke-width: 0.85 ;&st7;   " d=" M  2005.66,    47.11  C  2006.45     47.11   2007.08     46.48   2007.08     45.69  " /><path style="stroke-width: 0.85 ;&st7;   " d=" M  2007.08,    68.36  C  2007.08     67.57   2006.45     66.94   2005.66     66.94  " /><path style="stroke-width: 0.85 ;&st7;   " d=" M  2005.66,    66.94  C  2004.88     66.94   2004.25     67.57   2004.25     68.36  " /><path style="stroke-width: 0.85 ;&st7;   " d=" M  2004.25,    68.36  C  2004.25     69.14   2004.88     69.77   2005.66     69.77  " /><path style="stroke-width: 0.85 ;&st7;   " d=" M  2005.66,    69.77  C  2006.45     69.77   2007.08     69.14   2007.08     68.36  " /><path style="stroke-width: 1.42 ;&st7;  " d=" M  1992.92,    35.78  L  1992.92,    78.27  L  2018.41,    78.27  L  2018.41,    35.78  L  1992.92,    35.78  " /></g><g ewd:figtype="rb" ewd:figID="10" ewd:code="FUSE6"><path style="stroke-width: 0.85 ;&st7;  " d=" M  1631.73,    69.77  L  1631.73,    95.27  " /><path style="stroke-width: 1.42 ;&st7;  " d=" M  1633.85,    95.27  L  1629.60,    95.27  " /><path style="stroke-width: 1.42 ;&st7;  " d=" M  1633.85,   103.77  L  1629.60,   103.77  " /><path style="stroke-width: 1.42 ;&st7;   " d=" M  1629.60,    95.27  C  1627.26     95.27   1625.35     97.17   1625.35     99.52  " /><path style="stroke-width: 1.42 ;&st7;   " d=" M  1625.35,    99.52  C  1625.35    101.87   1627.26    103.77   1629.60    103.77  " /><path style="stroke-width: 1.42 ;&st7;   " d=" M  1633.85,   103.77  C  1636.20    103.77   1638.10    101.87   1638.10     99.52  " /><path style="stroke-width: 1.42 ;&st7;   " d=" M  1638.10,    99.52  C  1638.10     97.17   1636.20     95.27   1633.85     95.27  " /><path style="stroke-width: 0.28 ;&st9;  " d=" M  1631.73,    90.37  L  1628.89,    87.54  L  1628.89,    91.79  L  1631.73,    94.62  L  1634.56,    91.79  L  1634.56,    87.54  L  1631.73,    90.37  " /><text style="font-size:6px;font-family:'NSimSun';" transform="matrix(&st16;  1648.15  53.34 )">10A <tspan x="0 " dy="6.0">ECU-B </tspan><tspan x="0 " dy="6.0">NO.2</tspan></text><text style="font-size:6px;font-family:'NSimSun';" transform="matrix(&st16;  1629.93  101.49 )">1</text><text style="font-size:6px;font-family:'NSimSun';" transform="matrix(&st16;  1625.54  86.47 )">2</text><text style="font-size:6px;font-family:'NSimSun';" transform="matrix(&st16;  1623.68  32.08 )">(BAT)</text><path style="stroke-width: 1.42 ;&st7;   " d=" M  1631.73,    66.94  C  1634.47     65.33   1635.38     61.80   1633.76     59.06  " /><path style="stroke-width: 1.42 ;&st7;   " d=" M  1633.76,    59.06  C  1633.24     58.18   1632.61     57.55   1631.73     57.03  " /><path style="stroke-width: 0.85 ;&st7;   " d=" M  1633.14,    45.69  C  1633.14     44.91   1632.51     44.28   1631.73     44.28  " /><path style="stroke-width: 0.85 ;&st7;   " d=" M  1631.73,    44.28  C  1630.95     44.28   1630.31     44.91   1630.31     45.69  " /><path style="stroke-width: 0.85 ;&st7;   " d=" M  1630.31,    45.69  C  1630.31     46.48   1630.95     47.11   1631.73     47.11  " /><path style="stroke-width: 0.85 ;&st7;   " d=" M  1631.73,    47.11  C  1632.51     47.11   1633.14     46.48   1633.14     45.69  " /><path style="stroke-width: 0.85 ;&st7;   " d=" M  1633.14,    68.36  C  1633.14     67.57   1632.51     66.94   1631.73     66.94  " /><path style="stroke-width: 0.85 ;&st7;   " d=" M  1631.73,    66.94  C  1630.95     66.94   1630.31     67.57   1630.31     68.36  " /><path style="stroke-width: 0.85 ;&st7;   " d=" M  1630.31,    68.36  C  1630.31     69.14   1630.95     69.77   1631.73     69.77  " /><path style="stroke-width: 0.85 ;&st7;   " d=" M  1631.73,    69.77  C  1632.51     69.77   1633.14     69.14   1633.14     68.36  " /><path style="stroke-width: 1.42 ;&st7;   " d=" M  1631.73,    47.11  C  1628.99     48.72   1628.08     52.25   1629.69     54.99  " /><path style="stroke-width: 1.42 ;&st7;   " d=" M  1629.69,    54.99  C  1630.21     55.87   1630.85     56.51   1631.73     57.03  " /><path style="stroke-width: 1.42 ;&st7;  " d=" M  1618.98,    35.78  L  1618.98,    78.27  L  1644.47,    78.27  L  1644.47,    35.78  L  1618.98,    35.78  " /></g><g ewd:figtype="conn" ewd:figID="11" ewd:code="E55"><path style="stroke-width: 0.85 ;&st7;  " d=" M  2009.91,   324.73  L  2001.42,   324.73  " /><path style="stroke-width: 0.85 ;&st7;  " d=" M  1933.43,   324.73  L  1924.93,   324.73  " /><path style="stroke-width: 1.42 ;&st7;  " d=" M  1852.69,   299.24  L  1852.69,   503.20  L  2039.66,   503.20  L  2039.66,   299.24  L  1852.69,   299.24  " /><path style="stroke-width: 0.85 ;&st7;  " d=" M  1937.68,   460.71  L  1937.68,   503.20  " /><path style="stroke-width: 0.85 ;&st7;  " d=" M  1971.67,   460.71  L  1971.67,   503.20  " /><path style="stroke-width: 0.85 ;&st7;  " d=" M  2014.16,   426.71  L  2014.16,   503.20  " /><path style="stroke-width: 0.28 ;&st9;  " d=" M  2005.66,   324.73  L  2000.00,   316.23  L  2011.33,   316.23  L  2005.66,   324.73  " /><path style="stroke-width: 0.28 ;&st9;  " d=" M  1929.18,   324.73  L  1923.51,   316.23  L  1934.84,   316.23  L  1929.18,   324.73  " /><path style="stroke-width: 0.85 ;&st7;  " d=" M  2005.66,   341.73  L  2005.66,   350.23  " /><path style="stroke-width: 0.85 ;&st7;  " d=" M  2004.47,   340.73  L  2004.20,   341.20  L  2004.11,   341.73  L  2004.20,   342.26  L  2004.47,   342.73  L  2004.89,   343.08  L  2005.39,   343.26  L  2005.94,   343.26  L  2006.44,   343.08  L  2006.86,   342.73  L  2007.13,   342.26  L  2007.22,   341.73  L  2007.13,   341.20  L  2006.86,   340.73  L  2006.44,   340.38  L  2005.94,   340.19  L  2005.39,   340.19  L  2004.89,   340.38  L  2004.47,   340.73  L  2004.87,   341.44  L  2004.87,   342.02  L  2005.24,   342.46  L  2005.81,   342.56  L  2006.32,   342.28  L  2006.51,   341.73  L  2006.32,   341.18  L  2005.81,   340.89  L  2005.24,   340.99  L  2005.66,   341.73  " /><path style="stroke-width: 1.42 ;&st7;  " d=" M  1988.67,   350.23  L  1988.67,   367.22  L  2022.66,   367.22  L  2022.66,   350.23  L  1988.67,   350.23  " /><path style="stroke-width: 0.85 ;&st7;  " d=" M  1971.67,   367.22  L  1971.67,   358.73  L  1988.67,   358.73  " /><path style="stroke-width: 0.85 ;&st7;  " d=" M  1963.17,   367.22  L  1980.17,   367.22  " /><path style="stroke-width: 0.85 ;&st7;  " d=" M  1967.42,   370.06  L  1975.92,   370.06  " /><path style="stroke-width: 0.85 ;&st7;  " d=" M  1968.84,   372.89  L  1974.50,   372.89  " /><path style="stroke-width: 0.85 ;&st7;  " d=" M  1970.25,   375.72  L  1973.09,   375.72  " /><path style="stroke-width: 1.42 ;&st7;  " d=" M  1920.68,   443.71  L  1920.68,   460.71  L  1988.67,   460.71  L  1988.67,   443.71  L  1920.68,   443.71  " /><path style="stroke-width: 1.42 ;&st7;  " d=" M  1869.69,   401.22  L  1869.69,   426.71  L  2022.66,   426.71  L  2022.66,   401.22  L  1869.69,   401.22  " /><path style="stroke-width: 1.42 ;&st7;  " d=" M  1920.68,   426.71  L  1920.68,   409.72  L  1988.67,   409.72  L  1988.67,   426.71  " /><path style="stroke-width: 0.85 ;&st7;  " d=" M  1895.18,   443.71  L  1895.18,   452.21  L  1920.68,   452.21  " /><path style="stroke-width: 0.85 ;&st7;  " d=" M  1899.43,   443.71  L  1890.93,   443.71  " /><path style="stroke-width: 0.85 ;&st7;  " d=" M  1971.67,   426.71  L  1971.67,   443.71  " /><path style="stroke-width: 0.85 ;&st7;  " d=" M  1937.68,   426.71  L  1937.68,   443.71  " /><path style="stroke-width: 0.85 ;&st7;  " d=" M  2005.66,   367.22  L  2005.66,   401.22  " /><text style="font-size:6px;font-family:'NSimSun';" transform="matrix(&st16;  2008.25  375.42 )">5V+B</text><path style="stroke-width: 0.85 ;&st7;  " d=" M  2005.66,   299.24  L  2005.66,   341.73  " /><path style="stroke-width: 0.85 ;&st7;  " d=" M  2005.66,   341.73  L  1929.18,   341.73  L  1929.18,   299.24  " /><text style="font-size:6px;font-family:'NSimSun';" transform="matrix(&st16;  2008.25  307.43 )">B</text><text style="font-size:6px;font-family:'NSimSun';" transform="matrix(&st16;  1931.76  307.43 )">IG+</text><text style="font-size:6px;font-family:'NSimSun';" transform="matrix(&st16;  1997.82  360.69 )">5V IC</text><text style="font-size:6px;font-family:'NSimSun';" transform="matrix(&st16; 1939.28 420.47)" ewd:textID="4" ewd:horAlign="center">CAN 控制器</text><text style="font-size:6px;font-family:'NSimSun';" transform="matrix(&st16;  1887.84  440.3 )">5V+B</text><text style="font-size:6px;font-family:'NSimSun';" transform="matrix(&st16;  1940.26  499.51 )">CANL</text><text style="font-size:6px;font-family:'NSimSun';" transform="matrix(&st16;  1974.25  499.51 )">CANH</text><text style="font-size:6px;font-family:'NSimSun';" transform="matrix(&st16;  1942.91  454.46 )">CAN I/F</text><text style="font-size:6px;font-family:'NSimSun';" transform="matrix(&st16;  2016.75  499.51 )">ET</text><text style="font-size:6px;font-family:'NSimSun';" transform="matrix(&st16;  1888.89  416.22 )">CPU</text><path style="stroke-width: 1.42 ;&st7;  " d=" M  1869.69,   384.22  L  1937.68,   384.22  L  1937.68,   350.23  L  1869.69,   350.23  L  1869.69,   384.22  " /><path style="stroke-width: 0.85 ;&st7;  " d=" M  1878.19,   384.22  L  1878.19,   401.22  " /><path style="stroke-width: 0.85 ;&st7;  " d=" M  1886.68,   384.22  L  1886.68,   401.22  " /><path style="stroke-width: 0.85 ;&st7;  " d=" M  1903.68,   384.22  L  1903.68,   401.22  " /><path style="stroke-width: 0.85 ;&st7;  " d=" M  1920.68,   384.22  L  1920.68,   401.22  " /><path style="stroke-width: 0.85 ;&st7;  " d=" M  1929.18,   384.22  L  1929.18,   401.22  " /><path style="stroke-width: 0.85 ;&st7;  " d=" M  1912.18,   384.22  L  1912.18,   401.22  " /><path style="stroke-width: 0.85 ;&st7;  " d=" M  1895.18,   384.22  L  1895.18,   401.22  " /><text style="font-size:6px;font-family:'NSimSun';" transform="matrix(&st16; 1886.80 369.37)" ewd:textID="7" ewd:horAlign="center">显示屏驱动器<tspan x="0 " dy="6.0" /></text><text style="font-size:6px;font-family:'NSimSun';" transform="matrix(&st16;  1917.38  296.67 )">39</text><path style="stroke-width: 1.42 ;&st7;   " d=" M  1933.71,   294.70  C  1933.71    292.20   1931.68    290.17   1929.18    290.17  " /><path style="stroke-width: 1.42 ;&st7;   " d=" M  1929.18,   290.17  C  1926.67    290.17   1924.65    292.20   1924.65    294.70  " /><path style="stroke-width: 1.42 ;&st7;   " d=" M  1924.65,   294.70  C  1924.65    297.21   1926.67    299.24   1929.18    299.24  " /><path style="stroke-width: 1.42 ;&st7;   " d=" M  1929.18,   299.24  C  1931.68    299.24   1933.71    297.21   1933.71    294.70  " /><text style="font-size:6px;font-family:'NSimSun';" transform="matrix(&st16;  1926.87  296.67 )">A</text><text style="font-size:6px;font-family:'NSimSun';" transform="matrix(&st16;  1925.88  509.7 )">31</text><path style="stroke-width: 1.42 ;&st7;   " d=" M  1942.21,   507.73  C  1942.21    505.23   1940.18    503.20   1937.68    503.20  " /><path style="stroke-width: 1.42 ;&st7;   " d=" M  1937.68,   503.20  C  1935.17    503.20   1933.14    505.23   1933.14    507.73  " /><path style="stroke-width: 1.42 ;&st7;   " d=" M  1933.14,   507.73  C  1933.14    510.24   1935.17    512.27   1937.68    512.27  " /><path style="stroke-width: 1.42 ;&st7;   " d=" M  1937.68,   512.27  C  1940.18    512.27   1942.21    510.24   1942.21    507.73  " /><text style="font-size:6px;font-family:'NSimSun';" transform="matrix(&st16;  1935.37  509.7 )">A</text><text style="font-size:6px;font-family:'NSimSun';" transform="matrix(&st16;  1959.87  509.7 )">32</text><text style="font-size:6px;font-family:'NSimSun';" transform="matrix(&st16;  1969.37  509.7 )">A</text><path style="stroke-width: 1.42 ;&st7;   " d=" M  1976.20,   507.73  C  1976.20    505.23   1974.17    503.20   1971.67    503.20  " /><path style="stroke-width: 1.42 ;&st7;   " d=" M  1971.67,   503.20  C  1969.17    503.20   1967.14    505.23   1967.14    507.73  " /><path style="stroke-width: 1.42 ;&st7;   " d=" M  1967.14,   507.73  C  1967.14    510.24   1969.17    512.27   1971.67    512.27  " /><path style="stroke-width: 1.42 ;&st7;   " d=" M  1971.67,   512.27  C  1974.17    512.27   1976.20    510.24   1976.20    507.73  " /><text style="font-size:6px;font-family:'NSimSun';" transform="matrix(&st16;  1993.87  296.67 )">40</text><text style="font-size:6px;font-family:'NSimSun';" transform="matrix(&st16;  2003.36  296.67 )">A</text><path style="stroke-width: 1.42 ;&st7;   " d=" M  2010.20,   294.70  C  2010.20    292.20   2008.17    290.17   2005.66    290.17  " /><path style="stroke-width: 1.42 ;&st7;   " d=" M  2005.66,   290.17  C  2003.16    290.17   2001.13    292.20   2001.13    294.70  " /><path style="stroke-width: 1.42 ;&st7;   " d=" M  2001.13,   294.70  C  2001.13    297.21   2003.16    299.24   2005.66    299.24  " /><path style="stroke-width: 1.42 ;&st7;   " d=" M  2005.66,   299.24  C  2008.17    299.24   2010.20    297.21   2010.20    294.70  " /><text style="font-size:6px;font-family:'NSimSun';" transform="matrix(&st16;  2002.37  509.7 )">21</text><path style="stroke-width: 1.42 ;&st7;   " d=" M  2018.70,   507.73  C  2018.70    505.23   2016.67    503.20   2014.16    503.20  " /><path style="stroke-width: 1.42 ;&st7;   " d=" M  2014.16,   503.20  C  2011.66    503.20   2009.63    505.23   2009.63    507.73  " /><path style="stroke-width: 1.42 ;&st7;   " d=" M  2009.63,   507.73  C  2009.63    510.24   2011.66    512.27   2014.16    512.27  " /><path style="stroke-width: 1.42 ;&st7;   " d=" M  2014.16,   512.27  C  2016.67    512.27   2018.70    510.24   2018.70    507.73  " /><text style="font-size:6px;font-family:'NSimSun';" transform="matrix(&st16;  2011.86  509.7 )">A</text><g ewd:figtype="title"><text style="font-size:6px;font-family:'NSimSun';" transform="matrix(&st16;  1849.28  510.81 )">E55(A)</text><text style="font-size:6px;font-family:'NSimSun';" transform="matrix(&st16;  1849.28  517.92 )" ewd:textID="6">组合仪表总成<tspan x="0 " dy="6.0" /></text></g></g><g ewd:figtype="conn" ewd:figID="12" ewd:code="E55"><path style="stroke-width: 0.85 ;&st7;  " d=" M  1719.55,   375.72  L  1725.21,   367.22  " /><path style="stroke-width: 0.85 ;&st7;  " d=" M  1708.21,   367.22  L  1713.50,   375.16  " /><path style="stroke-width: 0.85 ;&st7;  " d=" M  1716.71,   375.72  L  1716.71,   384.22  " /><path style="stroke-width: 1.42 ;&st7;  " d=" M  1708.21,   375.72  L  1725.21,   375.72  " /><path style="stroke-width: 1.42 ;&st7;  " d=" M  1669.97,   467.08  L  1661.47,   467.08  " /><path style="stroke-width: 1.42 ;&st7;  " d=" M  1669.97,   462.83  L  1661.47,   462.83  " /><path style="stroke-width: 0.85 ;&st7;  " d=" M  1665.72,   462.83  L  1665.72,   452.21  " /><path style="stroke-width: 0.85 ;&st7;  " d=" M  1712.46,   307.73  L  1703.97,   307.73  " /><path style="stroke-width: 0.85 ;&st7;  " d=" M  1635.98,   307.73  L  1627.48,   307.73  " /><path style="stroke-width: 0.85 ;&st7;  " d=" M  1589.23,   426.71  L  1606.23,   426.71  " /><path style="stroke-width: 0.85 ;&st7;  " d=" M  1614.73,   435.21  L  1597.73,   435.21  L  1597.73,   426.71  " /><path style="stroke-width: 0.85 ;&st7;  " d=" M  1699.72,   426.71  L  1699.72,   409.72  " /><path style="stroke-width: 0.85 ;&st7;  " d=" M  1631.73,   426.71  L  1631.73,   409.72  " /><path style="stroke-width: 0.85 ;&st7;  " d=" M  1699.72,   443.71  L  1699.72,   503.20  " /><path style="stroke-width: 0.85 ;&st7;  " d=" M  1631.73,   443.71  L  1631.73,   503.20  " /><path style="stroke-width: 1.42 ;&st7;  " d=" M  1614.73,   426.71  L  1614.73,   443.71  L  1716.71,   443.71  L  1716.71,   426.71  L  1614.73,   426.71  " /><path style="stroke-width: 0.85 ;&st7;  " d=" M  1750.71,   409.72  L  1750.71,   503.20  " /><path style="stroke-width: 0.85 ;&st7;  " d=" M  1784.70,   435.21  L  1784.70,   443.71  " /><path style="stroke-width: 0.85 ;&st7;  " d=" M  1784.70,   409.72  L  1784.70,   418.22  " /><path style="stroke-width: 1.42 ;&st7;  " d=" M  1767.70,   443.71  L  1767.70,   460.71  L  1801.70,   460.71  L  1801.70,   443.71  L  1767.70,   443.71  " /><path style="stroke-width: 1.42 ;&st7;  " d=" M  1767.70,   418.22  L  1767.70,   435.21  L  1801.70,   435.21  L  1801.70,   418.22  L  1767.70,   418.22  " /><path style="stroke-width: 0.85 ;&st7;  " d=" M  1725.21,   367.22  L  1725.21,   350.23  " /><path style="stroke-width: 0.85 ;&st7;  " d=" M  1699.72,   367.22  L  1699.72,   350.23  " /><path style="stroke-width: 0.85 ;&st7;  " d=" M  1656.03,   315.23  L  1655.76,   315.70  L  1655.66,   316.23  L  1655.76,   316.77  L  1656.03,   317.24  L  1656.44,   317.58  L  1656.95,   317.77  L  1657.49,   317.77  L  1658.00,   317.58  L  1658.42,   317.24  L  1658.69,   316.77  L  1658.78,   316.23  L  1658.69,   315.70  L  1658.42,   315.23  L  1658.00,   314.88  L  1657.49,   314.70  L  1656.95,   314.70  L  1656.44,   314.88  L  1656.03,   315.23  L  1656.42,   315.94  L  1656.42,   316.52  L  1656.80,   316.97  L  1657.37,   317.07  L  1657.87,   316.78  L  1658.07,   316.23  L  1657.87,   315.69  L  1657.37,   315.40  L  1656.80,   315.50  L  1657.22,   316.23  " /><path style="stroke-width: 0.85 ;&st7;  " d=" M  1631.73,   273.74  L  1631.73,   316.23  L  1708.21,   316.23  L  1708.21,   273.74  " /><path style="stroke-width: 0.85 ;&st7;  " d=" M  1657.22,   350.23  L  1657.22,   384.22  " /><path style="stroke-width: 1.42 ;&st7;  " d=" M  1640.23,   333.23  L  1640.23,   350.23  L  1674.22,   350.23  L  1674.22,   333.23  L  1640.23,   333.23  " /><path style="stroke-width: 1.42 ;&st7;  " d=" M  1606.23,   384.22  L  1606.23,   409.72  L  1801.70,   409.72  L  1801.70,   384.22  L  1606.23,   384.22  " /><path style="stroke-width: 1.42 ;&st7;  " d=" M  1580.74,   273.74  L  1580.74,   503.20  L  1818.70,   503.20  L  1818.70,   273.74  L  1580.74,   273.74  " /><path style="stroke-width: 0.85 ;&st7;  " d=" M  1631.73,   452.21  L  1640.23,   452.21  L  1641.64,   449.38  L  1644.47,   455.04  L  1647.31,   449.38  L  1650.14,   455.04  L  1652.97,   449.38  L  1655.81,   455.04  L  1657.22,   452.21  L  1665.72,   452.21  " /><path style="stroke-width: 0.85 ;&st7;  " d=" M  1713.50,   375.16  L  1710.32,   373.02  L  1712.76,   371.40  L  1713.50,   375.16  L  1712.68,   373.92  L  1711.34,   373.03  L  1712.37,   372.34  L  1712.68,   373.92  L  1712.27,   373.31  L  1711.85,   373.03  L  1712.17,   372.81  L  1712.27,   373.31  " /><path style="stroke-width: 0.85 ;&st7;  " d=" M  1657.22,   367.22  L  1708.21,   367.22  " /><path style="stroke-width: 0.85 ;&st7;  " d=" M  1657.22,   316.23  L  1657.22,   333.23  " /><path style="stroke-width: 0.85 ;&st7;  " d=" M  1665.72,   452.21  L  1674.22,   452.21  L  1675.64,   449.38  L  1678.47,   455.04  L  1681.30,   449.38  L  1684.13,   455.04  L  1686.97,   449.38  L  1689.80,   455.04  L  1691.22,   452.21  L  1699.72,   452.21  " /><path style="stroke-width: 0.85 ;&st7;  " d=" M  1698.52,   451.21  L  1698.25,   451.68  L  1698.16,   452.21  L  1698.25,   452.74  L  1698.52,   453.21  L  1698.94,   453.56  L  1699.44,   453.75  L  1699.99,   453.75  L  1700.49,   453.56  L  1700.91,   453.21  L  1701.18,   452.74  L  1701.27,   452.21  L  1701.18,   451.68  L  1700.91,   451.21  L  1700.49,   450.86  L  1699.99,   450.67  L  1699.44,   450.67  L  1698.94,   450.86  L  1698.52,   451.21  L  1698.92,   451.92  L  1698.92,   452.50  L  1699.29,   452.95  L  1699.86,   453.05  L  1700.37,   452.76  L  1700.57,   452.21  L  1700.37,   451.66  L  1699.86,   451.37  L  1699.29,   451.47  L  1699.72,   452.21  " /><path style="stroke-width: 0.85 ;&st7;  " d=" M  1630.53,   451.21  L  1630.26,   451.68  L  1630.17,   452.21  L  1630.26,   452.74  L  1630.53,   453.21  L  1630.95,   453.56  L  1631.45,   453.75  L  1632.00,   453.75  L  1632.51,   453.56  L  1632.92,   453.21  L  1633.19,   452.74  L  1633.28,   452.21  L  1633.19,   451.68  L  1632.92,   451.21  L  1632.51,   450.86  L  1632.00,   450.67  L  1631.45,   450.67  L  1630.95,   450.86  L  1630.53,   451.21  L  1630.93,   451.92  L  1630.93,   452.50  L  1631.30,   452.95  L  1631.87,   453.05  L  1632.38,   452.76  L  1632.58,   452.21  L  1632.38,   451.66  L  1631.87,   451.37  L  1631.30,   451.47  L  1631.73,   452.21  " /><path style="stroke-width: 0.85 ;&st7;  " d=" M  1665.72,   467.08  L  1665.72,   477.71  " /><path style="stroke-width: 0.85 ;&st7;  " d=" M  1657.22,   477.71  L  1674.22,   477.71  " /><path style="stroke-width: 0.85 ;&st7;  " d=" M  1661.47,   480.54  L  1669.97,   480.54  " /><path style="stroke-width: 0.85 ;&st7;  " d=" M  1662.89,   483.37  L  1668.55,   483.37  " /><path style="stroke-width: 0.85 ;&st7;  " d=" M  1664.30,   486.20  L  1667.14,   486.20  " /><path style="stroke-width: 0.85 ;&st7;  " d=" M  1664.53,   451.21  L  1664.26,   451.68  L  1664.16,   452.21  L  1664.26,   452.74  L  1664.53,   453.21  L  1664.94,   453.56  L  1665.45,   453.75  L  1665.99,   453.75  L  1666.50,   453.56  L  1666.91,   453.21  L  1667.19,   452.74  L  1667.28,   452.21  L  1667.19,   451.68  L  1666.91,   451.21  L  1666.50,   450.86  L  1665.99,   450.67  L  1665.45,   450.67  L  1664.94,   450.86  L  1664.53,   451.21  L  1664.92,   451.92  L  1664.92,   452.50  L  1665.30,   452.95  L  1665.87,   453.05  L  1666.37,   452.76  L  1666.57,   452.21  L  1666.37,   451.66  L  1665.87,   451.37  L  1665.30,   451.47  L  1665.72,   452.21  " /><path style="stroke-width: 0.28 ;&st9;  " d=" M  1708.21,   307.73  L  1702.55,   299.24  L  1713.88,   299.24  L  1708.21,   307.73  " /><path style="stroke-width: 1.42 ;&st7;  " d=" M  1623.23,   409.72  L  1623.23,   392.72  L  1708.21,   392.72  L  1708.21,   409.72  " /><path style="stroke-width: 0.85 ;&st7;  " d=" M  1691.22,   350.23  L  1708.21,   350.23  " /><path style="stroke-width: 0.85 ;&st7;  " d=" M  1716.71,   350.23  L  1733.71,   350.23  " /><path style="stroke-width: 0.85 ;&st7;  " d=" M  1698.52,   366.22  L  1698.25,   366.69  L  1698.16,   367.22  L  1698.25,   367.76  L  1698.52,   368.23  L  1698.94,   368.57  L  1699.44,   368.76  L  1699.99,   368.76  L  1700.49,   368.57  L  1700.91,   368.23  L  1701.18,   367.76  L  1701.27,   367.22  L  1701.18,   366.69  L  1700.91,   366.22  L  1700.49,   365.88  L  1699.99,   365.69  L  1699.44,   365.69  L  1698.94,   365.88  L  1698.52,   366.22  L  1698.92,   366.93  L  1698.92,   367.52  L  1699.29,   367.96  L  1699.86,   368.06  L  1700.37,   367.77  L  1700.57,   367.22  L  1700.37,   366.68  L  1699.86,   366.39  L  1699.29,   366.49  L  1699.72,   367.22  " /><path style="stroke-width: 0.85 ;&st7;  " d=" M  1656.03,   366.22  L  1655.76,   366.69  L  1655.66,   367.22  L  1655.76,   367.76  L  1656.03,   368.23  L  1656.44,   368.57  L  1656.95,   368.76  L  1657.49,   368.76  L  1658.00,   368.57  L  1658.42,   368.23  L  1658.69,   367.76  L  1658.78,   367.22  L  1658.69,   366.69  L  1658.42,   366.22  L  1658.00,   365.88  L  1657.49,   365.69  L  1656.95,   365.69  L  1656.44,   365.88  L  1656.03,   366.22  L  1656.42,   366.93  L  1656.42,   367.52  L  1656.80,   367.96  L  1657.37,   368.06  L  1657.87,   367.77  L  1658.07,   367.22  L  1657.87,   366.68  L  1657.37,   366.39  L  1656.80,   366.49  L  1657.22,   367.22  " /><path style="stroke-width: 0.28 ;&st9;  " d=" M  1631.73,   307.73  L  1626.06,   299.24  L  1637.39,   299.24  L  1631.73,   307.73  " /><text style="font-size:6px;font-family:'NSimSun';" transform="matrix(&st16;  1744.41  398.94 )">CPU</text><text style="font-size:6px;font-family:'NSimSun';" transform="matrix(&st16;  1589.46  423.02 )">5V +B</text><text style="font-size:6px;font-family:'NSimSun';" transform="matrix(&st16;  1653.96  437.18 )">CAN I/F</text><text style="font-size:6px;font-family:'NSimSun';" transform="matrix(&st16; 1775.91 454.18)" ewd:textID="3" ewd:horAlign="center">蜂鸣器</text><text style="font-size:6px;font-family:'NSimSun';" transform="matrix(&st16;  1780.15  428.68 )">I/F</text><text style="font-size:6px;font-family:'NSimSun';" transform="matrix(&st16;  1649.37  343.7 )">5V IC</text><text style="font-size:6px;font-family:'NSimSun';" transform="matrix(&st16;  1634.31  281.93 )">B</text><text style="font-size:6px;font-family:'NSimSun';" transform="matrix(&st16;  1710.8  281.93 )">IG+</text><text style="font-size:6px;font-family:'NSimSun';" transform="matrix(&st16;  1753.29  499.51 )">ET</text><text style="font-size:6px;font-family:'NSimSun';" transform="matrix(&st16;  1634.31  499.51 )">CANL</text><text style="font-size:6px;font-family:'NSimSun';" transform="matrix(&st16;  1702.3  499.51 )">CANH</text><text style="font-size:6px;font-family:'NSimSun';" transform="matrix(&st16; 1650.32 403.19)" ewd:textID="4" ewd:horAlign="center">CAN 控制器</text><text style="font-size:6px;font-family:'NSimSun';" transform="matrix(&st16;  1721.36  346.53 )">5V</text><text style="font-size:6px;font-family:'NSimSun';" transform="matrix(&st16;  1691.44  346.53 )">5V +B</text><text style="font-size:6px;font-family:'NSimSun';" transform="matrix(&st16;  1619.93  509.7 )">31</text><path style="stroke-width: 1.42 ;&st7;   " d=" M  1636.26,   507.73  C  1636.26    505.23   1634.23    503.20   1631.73    503.20  " /><path style="stroke-width: 1.42 ;&st7;   " d=" M  1631.73,   503.20  C  1629.22    503.20   1627.19    505.23   1627.19    507.73  " /><path style="stroke-width: 1.42 ;&st7;   " d=" M  1627.19,   507.73  C  1627.19    510.24   1629.22    512.27   1631.73    512.27  " /><path style="stroke-width: 1.42 ;&st7;   " d=" M  1631.73,   512.27  C  1634.23    512.27   1636.26    510.24   1636.26    507.73  " /><text style="font-size:6px;font-family:'NSimSun';" transform="matrix(&st16;  1629.42  509.7 )">A</text><text style="font-size:6px;font-family:'NSimSun';" transform="matrix(&st16;  1619.93  271.18 )">40</text><path style="stroke-width: 1.42 ;&st7;   " d=" M  1636.26,   269.21  C  1636.26    266.70   1634.23    264.67   1631.73    264.67  " /><path style="stroke-width: 1.42 ;&st7;   " d=" M  1631.73,   264.67  C  1629.22    264.67   1627.19    266.70   1627.19    269.21  " /><path style="stroke-width: 1.42 ;&st7;   " d=" M  1627.19,   269.21  C  1627.19    271.71   1629.22    273.74   1631.73    273.74  " /><path style="stroke-width: 1.42 ;&st7;   " d=" M  1631.73,   273.74  C  1634.23    273.74   1636.26    271.71   1636.26    269.21  " /><text style="font-size:6px;font-family:'NSimSun';" transform="matrix(&st16;  1629.42  271.18 )">A</text><text style="font-size:6px;font-family:'NSimSun';" transform="matrix(&st16;  1687.92  509.7 )">32</text><text style="font-size:6px;font-family:'NSimSun';" transform="matrix(&st16;  1697.41  509.7 )">A</text><path style="stroke-width: 1.42 ;&st7;   " d=" M  1704.25,   507.73  C  1704.25    505.23   1702.22    503.20   1699.72    503.20  " /><path style="stroke-width: 1.42 ;&st7;   " d=" M  1699.72,   503.20  C  1697.21    503.20   1695.18    505.23   1695.18    507.73  " /><path style="stroke-width: 1.42 ;&st7;   " d=" M  1695.18,   507.73  C  1695.18    510.24   1697.21    512.27   1699.72    512.27  " /><path style="stroke-width: 1.42 ;&st7;   " d=" M  1699.72,   512.27  C  1702.22    512.27   1704.25    510.24   1704.25    507.73  " /><text style="font-size:6px;font-family:'NSimSun';" transform="matrix(&st16;  1696.42  271.18 )">39</text><path style="stroke-width: 1.42 ;&st7;   " d=" M  1712.75,   269.21  C  1712.75    266.70   1710.72    264.67   1708.21    264.67  " /><path style="stroke-width: 1.42 ;&st7;   " d=" M  1708.21,   264.67  C  1705.71    264.67   1703.68    266.70   1703.68    269.21  " /><path style="stroke-width: 1.42 ;&st7;   " d=" M  1703.68,   269.21  C  1703.68    271.71   1705.71    273.74   1708.21    273.74  " /><path style="stroke-width: 1.42 ;&st7;   " d=" M  1708.21,   273.74  C  1710.72    273.74   1712.75    271.71   1712.75    269.21  " /><text style="font-size:6px;font-family:'NSimSun';" transform="matrix(&st16;  1705.91  271.18 )">A</text><text style="font-size:6px;font-family:'NSimSun';" transform="matrix(&st16;  1738.91  509.7 )">21</text><text style="font-size:6px;font-family:'NSimSun';" transform="matrix(&st16;  1748.4  509.7 )">A</text><path style="stroke-width: 1.42 ;&st7;   " d=" M  1755.24,   507.73  C  1755.24    505.23   1753.21    503.20   1750.71    503.20  " /><path style="stroke-width: 1.42 ;&st7;   " d=" M  1750.71,   503.20  C  1748.20    503.20   1746.17    505.23   1746.17    507.73  " /><path style="stroke-width: 1.42 ;&st7;   " d=" M  1746.17,   507.73  C  1746.17    510.24   1748.20    512.27   1750.71    512.27  " /><path style="stroke-width: 1.42 ;&st7;   " d=" M  1750.71,   512.27  C  1753.21    512.27   1755.24    510.24   1755.24    507.73  " /><g ewd:figtype="title"><text style="font-size:6px;font-family:'NSimSun';" transform="matrix(&st17;  1833.41  506.11 )" ewd:textID="6">组合仪表总成</text><text style="font-size:6px;font-family:'NSimSun';" transform="matrix(&st17;  1826.59  506.1 )">E55(A)</text></g></g><g ewd:figtype="jb" ewd:figID="19" ewd:code="3"><path style="stroke-width: 0.85 ;&st7;  " d=" M  1929.18,    69.77  L  1929.18,    95.27  " /><path style="stroke-width: 1.42 ;&st7;  " d=" M  1931.30,    95.27  L  1927.05,    95.27  " /><path style="stroke-width: 1.42 ;&st7;  " d=" M  1931.30,   103.77  L  1927.05,   103.77  " /><path style="stroke-width: 1.42 ;&st7;   " d=" M  1929.18,    47.11  C  1926.44     48.72   1925.53     52.25   1927.14     54.99  " /><path style="stroke-width: 1.42 ;&st7;   " d=" M  1927.14,    54.99  C  1927.66     55.87   1928.30     56.51   1929.18     57.03  " /><path style="stroke-width: 1.42 ;&st7;   " d=" M  1929.18,    66.94  C  1931.92     65.33   1932.83     61.80   1931.21     59.06  " /><path style="stroke-width: 1.42 ;&st7;   " d=" M  1931.21,    59.06  C  1930.69     58.18   1930.06     57.55   1929.18     57.03  " /><path style="stroke-width: 0.85 ;&st7;   " d=" M  1930.59,    45.69  C  1930.59     44.91   1929.96     44.28   1929.18     44.28  " /><path style="stroke-width: 0.85 ;&st7;   " d=" M  1929.18,    44.28  C  1928.40     44.28   1927.76     44.91   1927.76     45.69  " /><path style="stroke-width: 0.85 ;&st7;   " d=" M  1927.76,    45.69  C  1927.76     46.48   1928.40     47.11   1929.18     47.11  " /><path style="stroke-width: 0.85 ;&st7;   " d=" M  1929.18,    47.11  C  1929.96     47.11   1930.59     46.48   1930.59     45.69  " /><path style="stroke-width: 0.85 ;&st7;   " d=" M  1930.59,    68.36  C  1930.59     67.57   1929.96     66.94   1929.18     66.94  " /><path style="stroke-width: 0.85 ;&st7;   " d=" M  1929.18,    66.94  C  1928.40     66.94   1927.76     67.57   1927.76     68.36  " /><path style="stroke-width: 0.85 ;&st7;   " d=" M  1927.76,    68.36  C  1927.76     69.14   1928.40     69.77   1929.18     69.77  " /><path style="stroke-width: 0.85 ;&st7;   " d=" M  1929.18,    69.77  C  1929.96     69.77   1930.59     69.14   1930.59     68.36  " /><path style="stroke-width: 1.42 ;&st7;   " d=" M  1927.05,    95.27  C  1924.71     95.27   1922.80     97.17   1922.80     99.52  " /><path style="stroke-width: 1.42 ;&st7;   " d=" M  1922.80,    99.52  C  1922.80    101.87   1924.71    103.77   1927.05    103.77  " /><path style="stroke-width: 1.42 ;&st7;   " d=" M  1931.30,   103.77  C  1933.65    103.77   1935.55    101.87   1935.55     99.52  " /><path style="stroke-width: 1.42 ;&st7;   " d=" M  1935.55,    99.52  C  1935.55     97.17   1933.65     95.27   1931.30     95.27  " /><path style="stroke-width: 0.28 ;&st9;  " d=" M  1929.18,    90.37  L  1926.34,    87.54  L  1926.34,    91.79  L  1929.18,    94.62  L  1932.01,    91.79  L  1932.01,    87.54  L  1929.18,    90.37  " /><path style="stroke-width: 1.42 ;&st7;  " d=" M  1916.43,    35.78  L  1916.43,    78.27  L  1941.92,    78.27  L  1941.92,    35.78  L  1916.43,    35.78  " /><text style="font-size:6px;font-family:'NSimSun';" transform="matrix(&st16;  1923.97  32.08 )">(IG)</text><text style="font-size:6px;font-family:'NSimSun';" transform="matrix(&st16;  1922.99  86.47 )">2</text><text style="font-size:6px;font-family:'NSimSun';" transform="matrix(&st16;  1945.6  56.17 )">5A <tspan x="0 " dy="6.0">MET</tspan></text><text style="font-size:6px;font-family:'NSimSun';" transform="matrix(&st16;  1925.21  101.49 )">3C</text><text style="font-size:6px;font-family:'NSimSun';" transform="matrix(&st16;  1915.57  101.49 )">55</text></g><g ewd:figtype="jb" ewd:figID="20" ewd:code="3"><path style="stroke-width: 1.42 ;&st7;  " d=" M  2007.79,   171.76  L  2003.54,   171.76  " /><path style="stroke-width: 1.42 ;&st7;  " d=" M  2007.79,   180.26  L  2003.54,   180.26  " /><path style="stroke-width: 1.42 ;&st7;  " d=" M  2007.79,   205.75  L  2003.54,   205.75  " /><path style="stroke-width: 1.42 ;&st7;  " d=" M  2007.79,   214.25  L  2003.54,   214.25  " /><path style="stroke-width: 1.42 ;&st7;   " d=" M  2003.54,   171.76  C  2001.19    171.76   1999.29    173.66   1999.29    176.01  " /><path style="stroke-width: 1.42 ;&st7;   " d=" M  1999.29,   176.01  C  1999.29    178.35   2001.19    180.26   2003.54    180.26  " /><path style="stroke-width: 1.42 ;&st7;   " d=" M  2007.79,   180.26  C  2010.14    180.26   2012.04    178.35   2012.04    176.01  " /><path style="stroke-width: 1.42 ;&st7;   " d=" M  2012.04,   176.01  C  2012.04    173.66   2010.14    171.76   2007.79    171.76  " /><path style="stroke-width: 1.42 ;&st7;   " d=" M  2003.54,   205.75  C  2001.19    205.75   1999.29    207.65   1999.29    210.00  " /><path style="stroke-width: 1.42 ;&st7;   " d=" M  1999.29,   210.00  C  1999.29    212.35   2001.19    214.25   2003.54    214.25  " /><path style="stroke-width: 1.42 ;&st7;   " d=" M  2007.79,   214.25  C  2010.14    214.25   2012.04    212.35   2012.04    210.00  " /><path style="stroke-width: 1.42 ;&st7;   " d=" M  2012.04,   210.00  C  2012.04    207.65   2010.14    205.75   2007.79    205.75  " /><path style="stroke-width: 0.28 ;&st9;  " d=" M  2005.66,   185.15  L  2008.50,   187.98  L  2008.50,   183.73  L  2005.66,   180.90  L  2002.83,   183.73  L  2002.83,   187.98  L  2005.66,   185.15  " /><path style="stroke-width: 0.28 ;&st9;  " d=" M  2005.66,   200.86  L  2002.83,   198.02  L  2002.83,   202.27  L  2005.66,   205.11  L  2008.50,   202.27  L  2008.50,   198.02  L  2005.66,   200.86  " /><path style="stroke-width: 0.85 ;&st7;  " d=" M  2005.66,   205.75  L  2005.66,   180.26  " /><text style="font-size:6px;font-family:'NSimSun';" transform="matrix(&st16;  1992.06  177.98 )">44</text><text style="font-size:6px;font-family:'NSimSun';" transform="matrix(&st16;  2001.73  211.97 )">3D</text><text style="font-size:6px;font-family:'NSimSun';" transform="matrix(&st16;  1992.06  211.97 )">34</text><text style="font-size:6px;font-family:'NSimSun';" transform="matrix(&st16;  2001.81  177.98 )">3A</text></g><g ewd:figtype="jb" ewd:figID="23" ewd:code="3"><text style="font-size:6px;font-family:'NSimSun';" transform="matrix(&st16;  1627.87  177.98 )">3A</text><text style="font-size:6px;font-family:'NSimSun';" transform="matrix(&st16;  1618.12  211.97 )">34</text><text style="font-size:6px;font-family:'NSimSun';" transform="matrix(&st16;  1627.79  211.97 )">3D</text><text style="font-size:6px;font-family:'NSimSun';" transform="matrix(&st16;  1618.12  177.98 )">44</text><path style="stroke-width: 0.85 ;&st7;  " d=" M  1631.73,   205.75  L  1631.73,   180.26  " /><path style="stroke-width: 0.28 ;&st9;  " d=" M  1631.73,   200.86  L  1628.89,   198.02  L  1628.89,   202.27  L  1631.73,   205.11  L  1634.56,   202.27  L  1634.56,   198.02  L  1631.73,   200.86  " /><path style="stroke-width: 0.28 ;&st9;  " d=" M  1631.73,   185.15  L  1634.56,   187.98  L  1634.56,   183.73  L  1631.73,   180.90  L  1628.89,   183.73  L  1628.89,   187.98  L  1631.73,   185.15  " /><path style="stroke-width: 1.42 ;&st7;   " d=" M  1638.10,   210.00  C  1638.10    207.65   1636.20    205.75   1633.85    205.75  " /><path style="stroke-width: 1.42 ;&st7;   " d=" M  1633.85,   214.25  C  1636.20    214.25   1638.10    212.35   1638.10    210.00  " /><path style="stroke-width: 1.42 ;&st7;   " d=" M  1625.35,   210.00  C  1625.35    212.35   1627.26    214.25   1629.60    214.25  " /><path style="stroke-width: 1.42 ;&st7;   " d=" M  1629.60,   205.75  C  1627.26    205.75   1625.35    207.65   1625.35    210.00  " /><path style="stroke-width: 1.42 ;&st7;   " d=" M  1638.10,   176.01  C  1638.10    173.66   1636.20    171.76   1633.85    171.76  " /><path style="stroke-width: 1.42 ;&st7;   " d=" M  1633.85,   180.26  C  1636.20    180.26   1638.10    178.35   1638.10    176.01  " /><path style="stroke-width: 1.42 ;&st7;   " d=" M  1625.35,   176.01  C  1625.35    178.35   1627.26    180.26   1629.60    180.26  " /><path style="stroke-width: 1.42 ;&st7;   " d=" M  1629.60,   171.76  C  1627.26    171.76   1625.35    173.66   1625.35    176.01  " /><path style="stroke-width: 1.42 ;&st7;  " d=" M  1633.85,   214.25  L  1629.60,   214.25  " /><path style="stroke-width: 1.42 ;&st7;  " d=" M  1633.85,   205.75  L  1629.60,   205.75  " /><path style="stroke-width: 1.42 ;&st7;  " d=" M  1633.85,   180.26  L  1629.60,   180.26  " /><path style="stroke-width: 1.42 ;&st7;  " d=" M  1633.85,   171.76  L  1629.60,   171.76  " /></g><g ewd:figtype="jb" ewd:figID="24" ewd:code="3"><path style="stroke-width: 0.85 ;&st7;  " d=" M  1708.21,    69.77  L  1708.21,    95.27  " /><path style="stroke-width: 1.42 ;&st7;  " d=" M  1710.34,    95.27  L  1706.09,    95.27  " /><path style="stroke-width: 1.42 ;&st7;  " d=" M  1710.34,   103.77  L  1706.09,   103.77  " /><path style="stroke-width: 1.42 ;&st7;   " d=" M  1708.21,    47.11  C  1705.48     48.72   1704.56     52.25   1706.18     54.99  " /><path style="stroke-width: 1.42 ;&st7;   " d=" M  1706.18,    54.99  C  1706.70     55.87   1707.33     56.51   1708.21     57.03  " /><path style="stroke-width: 1.42 ;&st7;   " d=" M  1708.21,    66.94  C  1710.95     65.33   1711.86     61.80   1710.25     59.06  " /><path style="stroke-width: 1.42 ;&st7;   " d=" M  1710.25,    59.06  C  1709.73     58.18   1709.10     57.55   1708.21     57.03  " /><path style="stroke-width: 0.85 ;&st7;   " d=" M  1709.63,    45.69  C  1709.63     44.91   1709.00     44.28   1708.21     44.28  " /><path style="stroke-width: 0.85 ;&st7;   " d=" M  1708.21,    44.28  C  1707.43     44.28   1706.80     44.91   1706.80     45.69  " /><path style="stroke-width: 0.85 ;&st7;   " d=" M  1706.80,    45.69  C  1706.80     46.48   1707.43     47.11   1708.21     47.11  " /><path style="stroke-width: 0.85 ;&st7;   " d=" M  1708.21,    47.11  C  1709.00     47.11   1709.63     46.48   1709.63     45.69  " /><path style="stroke-width: 0.85 ;&st7;   " d=" M  1709.63,    68.36  C  1709.63     67.57   1709.00     66.94   1708.21     66.94  " /><path style="stroke-width: 0.85 ;&st7;   " d=" M  1708.21,    66.94  C  1707.43     66.94   1706.80     67.57   1706.80     68.36  " /><path style="stroke-width: 0.85 ;&st7;   " d=" M  1706.80,    68.36  C  1706.80     69.14   1707.43     69.77   1708.21     69.77  " /><path style="stroke-width: 0.85 ;&st7;   " d=" M  1708.21,    69.77  C  1709.00     69.77   1709.63     69.14   1709.63     68.36  " /><path style="stroke-width: 1.42 ;&st7;   " d=" M  1706.09,    95.27  C  1703.74     95.27   1701.84     97.17   1701.84     99.52  " /><path style="stroke-width: 1.42 ;&st7;   " d=" M  1710.34,   103.77  C  1712.69    103.77   1714.59    101.87   1714.59     99.52  " /><path style="stroke-width: 1.42 ;&st7;   " d=" M  1701.84,    99.52  C  1701.84    101.87   1703.74    103.77   1706.09    103.77  " /><path style="stroke-width: 1.42 ;&st7;   " d=" M  1714.59,    99.52  C  1714.59     97.17   1712.69     95.27   1710.34     95.27  " /><path style="stroke-width: 0.28 ;&st9;  " d=" M  1708.21,    90.37  L  1705.38,    87.54  L  1705.38,    91.79  L  1708.21,    94.62  L  1711.05,    91.79  L  1711.05,    87.54  L  1708.21,    90.37  " /><path style="stroke-width: 1.42 ;&st7;  " d=" M  1695.47,    35.78  L  1695.47,    78.27  L  1720.96,    78.27  L  1720.96,    35.78  L  1695.47,    35.78  " /><text style="font-size:6px;font-family:'NSimSun';" transform="matrix(&st16;  1702.03  86.47 )">2</text><text style="font-size:6px;font-family:'NSimSun';" transform="matrix(&st16;  1704.24  101.49 )">3C</text><text style="font-size:6px;font-family:'NSimSun';" transform="matrix(&st16;  1694.61  101.49 )">55</text><text style="font-size:6px;font-family:'NSimSun';" transform="matrix(&st16;  1703.0  32.08 )">(IG)</text><text style="font-size:6px;font-family:'NSimSun';" transform="matrix(&st16;  1724.64  56.17 )">5A <tspan x="0 " dy="6.0">MET</tspan></text></g><g ewd:figtype="gp" ewd:figID="39" ewd:code="ED"><path style="stroke-width: 0.85 ;&st7;  " d=" M  1746.46,   704.33  L  1754.96,   704.33  " /><path style="stroke-width: 0.85 ;&st7;  " d=" M  1749.29,   710.00  L  1752.12,   710.00  " /><path style="stroke-width: 0.85 ;&st7;  " d=" M  1747.87,   707.17  L  1753.54,   707.17  " /><path style="stroke-width: 0.85 ;&st7;  " d=" M  1742.21,   701.50  L  1759.21,   701.50  " /><path style="stroke-width: 0.85 ;&st7;  " d=" M  1750.71,   697.25  L  1750.71,   701.50  " /></g></svg>