<?xml version="1.0" encoding="utf-8"?>
<!DOCTYPE svg PUBLIC "-//W3C//DTD SVG 1.0//EN" "http://www.w3.org/TR/2001/REC-SVG-20010904/DTD/svg10.dtd"[
	<!ENTITY ns_flows "http://ns.adobe.com/Flows/1.0/">
	<!ENTITY ns_svg "http://www.w3.org/2000/svg">
	<!ENTITY ns_xlink "http://www.w3.org/1999/xlink">
	<!ENTITY st0 "font-size:7px;font-family:'NSimSun';adobe-font-script:japanese;">
	<!ENTITY st1 "font-size:6px;font-family:'NSimSun';">
	<!-- White fill  -->
	<!ENTITY st2 "fill:#FFFFFF;stroke:#000000; stroke-width:1.41;stroke-linecap:round;stroke-linejoin:round;">
	<!-- Yellow fill  -->
	<!ENTITY st3 "fill:#FFFFCC;stroke:#FFFFCC; stroke-width:0.1;stroke-linecap:round;stroke-linejoin:round;">
	<!-- Gray fill  -->
	<!ENTITY st4 "fill:#CCCCCC;stroke:#CCCCCC; stroke-width:0.1;stroke-linecap:round;stroke-linejoin:round;">
	<!-- Light-blue fill -->
	<!ENTITY st5 "fill:#CCECF4;stroke:#000000; stroke-width:1.133;stroke-linecap:round;stroke-linejoin:round;">
	<!ENTITY st6 "fill:none;stroke-linecap:butt; stroke-linejoin:round;">
	<!ENTITY st7 "fill:none;stroke:#000000;stroke-linecap:round;stroke-linejoin:round;">
	<!ENTITY st8 "enable-background:new    ;">
	<!-- Black fill -->
	<!ENTITY st9 "fill:#000000;stroke:#000000; stroke-linecap:round;stroke-linejoin:round;">
	<!-- SRS note   -->
	<!ENTITY st10 "font-size:9px;font-family:'NSimSun';">
	<!ENTITY st11 "font-size:9px;font-family:'NSimSun';">
	<!ENTITY st12 "font-size:6px;font-family:'NSimSun';">
	<!ENTITY st13 "fill:none;stroke:#ff0000;stroke-linecap:round;stroke-linejoin:round;">
	<!-- Yellow fill  -->
	<!ENTITY st14 "fill:#FFFF00;stroke:#FFFF00; stroke-width:0.1;stroke-linecap:round;stroke-linejoin:round;">
	<!ENTITY st15 "font-size:6px;font-family:'NSimSun';adobe-font-script:japanese;">
	<!ENTITY st16 "1.00 0.00 0.00 1.00">
	<!ENTITY st17 "0.00 -1.00 1.00 0.00">
	<!ENTITY st18 "font-size:6px;font-family:'NSimSun';">
	<!ENTITY st19 "font-size:9px;font-family:'NSimSun';">
	<!ENTITY st20 "font-size:6px;font-family:'NSimSun';adobe-font-script:japanese;">
	<!ENTITY st21 "font-size:7px;font-family:'NSimSun';adobe-font-script:japanese;">
	<!ATTLIST svg
		xmlns:ewd CDATA #FIXED "http://shcl.co.jp/ewd"
		xmlns:a CDATA #FIXED "http://ns.adobe.com/AdobeSVGViewerExtensions/3.0/"
		ewd:ver CDATA #IMPLIED
	>
	<!ATTLIST a
		ewd:lineID CDATA #IMPLIED
		ewd:groupID CDATA #IMPLIED
		ewd:figtype CDATA #IMPLIED
		ewd:code CDATA #IMPLIED
		ewd:figID CDATA #IMPLIED
		ewd:pinNo CDATA #IMPLIED
		ewd:comment CDATA #IMPLIED >
	<!ATTLIST g
		ewd:lineID CDATA #IMPLIED
		ewd:groupID CDATA #IMPLIED
		ewd:figtype CDATA #IMPLIED
		ewd:code CDATA #IMPLIED
		ewd:figID CDATA #IMPLIED
		ewd:pinNo CDATA #IMPLIED
		ewd:comment CDATA #IMPLIED >
	<!ATTLIST text
		ewd:textID CDATA #IMPLIED
		ewd:horAlign CDATA #IMPLIED >
	<!ATTLIST title
		ewd:textID CDATA #IMPLIED >
]>
<!-- Generator: Shintec Hozumi YS   -->
<svg onload="call_execInitLoadProc_svg('system')" style="overflow:visible;  enable-background:new 0 0 1989.376 710.000" viewBox="0 0 1997.174 710.000" height="710.000" width="1997.174" xml:space="preserve" ewd:ver="2.1.2.6F" xmlns="&ns_svg;" xmlns:ewd="http://shcl.co.jp/ewd" xmlns:a="http://ns.adobe.com/AdobeSVGViewerExtensions/3.0/" xmlns:xlink="&ns_xlink;">
<text style="font-size:6px;font-family:'NSimSun';" transform="matrix(&st16;  1526.78  584.49 )">W</text><text style="font-size:6px;font-family:'NSimSun';" transform="matrix(&st16;  1525.46  601.49 )">LG</text><text style="font-size:6px;font-family:'NSimSun';" transform="matrix(&st16;  1577.77  584.49 )">W</text><text style="font-size:6px;font-family:'NSimSun';" transform="matrix(&st16;  1576.45  601.49 )">LG</text><text style="font-size:6px;font-family:'NSimSun';" transform="matrix(&st17;  1959.48  549.24 )">BR</text><text style="font-size:6px;font-family:'NSimSun';" transform="matrix(&st17;  1865.99  254.96 )">W</text><text style="font-size:6px;font-family:'NSimSun';" transform="matrix(&st17;  1865.99  135.98 )">W</text><text style="font-size:6px;font-family:'NSimSun';" transform="matrix(&st17;  1789.5  135.01 )">P</text><text style="font-size:6px;font-family:'NSimSun';" transform="matrix(&st17;  1882.99  548.16 )">W</text><text style="font-size:6px;font-family:'NSimSun';" transform="matrix(&st17;  1916.98  549.48 )">LG</text><g ewd:figtype="rb" ewd:figID="5" ewd:code="FUSE6"><path style="stroke-width: 0.85 ;&st7;  " d=" M  1869.69,    69.77  L  1869.69,    95.27  " /><path style="stroke-width: 1.42 ;&st7;  " d=" M  1871.81,    95.27  L  1867.56,    95.27  " /><path style="stroke-width: 1.42 ;&st7;  " d=" M  1871.81,   103.77  L  1867.56,   103.77  " /><path style="stroke-width: 1.42 ;&st7;   " d=" M  1867.56,    95.27  C  1865.22     95.27   1863.31     97.17   1863.31     99.52  " /><path style="stroke-width: 1.42 ;&st7;   " d=" M  1863.31,    99.52  C  1863.31    101.87   1865.22    103.77   1867.56    103.77  " /><path style="stroke-width: 1.42 ;&st7;   " d=" M  1871.81,   103.77  C  1874.16    103.77   1876.06    101.87   1876.06     99.52  " /><path style="stroke-width: 1.42 ;&st7;   " d=" M  1876.06,    99.52  C  1876.06     97.17   1874.16     95.27   1871.81     95.27  " /><path style="stroke-width: 0.28 ;&st9;  " d=" M  1869.69,    90.37  L  1866.85,    87.54  L  1866.85,    91.79  L  1869.69,    94.62  L  1872.52,    91.79  L  1872.52,    87.54  L  1869.69,    90.37  " /><text style="font-size:6px;font-family:'NSimSun';" transform="matrix(&st16;  1886.11  53.34 )">10A <tspan x="0 " dy="6.0">ECU-B </tspan><tspan x="0 " dy="6.0">NO.2</tspan></text><text style="font-size:6px;font-family:'NSimSun';" transform="matrix(&st16;  1867.89  101.49 )">1</text><text style="font-size:6px;font-family:'NSimSun';" transform="matrix(&st16;  1863.5  86.47 )">2</text><text style="font-size:6px;font-family:'NSimSun';" transform="matrix(&st16;  1861.64  32.08 )">(BAT)</text><path style="stroke-width: 1.42 ;&st7;   " d=" M  1869.69,    47.11  C  1866.95     48.72   1866.04     52.25   1867.65     54.99  " /><path style="stroke-width: 1.42 ;&st7;   " d=" M  1867.65,    54.99  C  1868.17     55.87   1868.81     56.51   1869.69     57.03  " /><path style="stroke-width: 1.42 ;&st7;   " d=" M  1869.69,    66.94  C  1872.43     65.33   1873.34     61.80   1871.72     59.06  " /><path style="stroke-width: 1.42 ;&st7;   " d=" M  1871.72,    59.06  C  1871.20     58.18   1870.57     57.55   1869.69     57.03  " /><path style="stroke-width: 0.85 ;&st7;   " d=" M  1871.10,    45.69  C  1871.10     44.91   1870.47     44.28   1869.69     44.28  " /><path style="stroke-width: 0.85 ;&st7;   " d=" M  1869.69,    44.28  C  1868.91     44.28   1868.27     44.91   1868.27     45.69  " /><path style="stroke-width: 0.85 ;&st7;   " d=" M  1868.27,    45.69  C  1868.27     46.48   1868.91     47.11   1869.69     47.11  " /><path style="stroke-width: 0.85 ;&st7;   " d=" M  1869.69,    47.11  C  1870.47     47.11   1871.10     46.48   1871.10     45.69  " /><path style="stroke-width: 0.85 ;&st7;   " d=" M  1871.10,    68.36  C  1871.10     67.57   1870.47     66.94   1869.69     66.94  " /><path style="stroke-width: 0.85 ;&st7;   " d=" M  1869.69,    66.94  C  1868.91     66.94   1868.27     67.57   1868.27     68.36  " /><path style="stroke-width: 0.85 ;&st7;   " d=" M  1868.27,    68.36  C  1868.27     69.14   1868.91     69.77   1869.69     69.77  " /><path style="stroke-width: 0.85 ;&st7;   " d=" M  1869.69,    69.77  C  1870.47     69.77   1871.10     69.14   1871.10     68.36  " /><path style="stroke-width: 1.42 ;&st7;  " d=" M  1856.94,    35.78  L  1856.94,    78.27  L  1882.43,    78.27  L  1882.43,    35.78  L  1856.94,    35.78  " /></g><g ewd:figtype="conn" ewd:figID="7" ewd:code="E55"><path style="stroke-width: 0.85 ;&st7;  " d=" M  1873.94,   324.73  L  1865.44,   324.73  " /><path style="stroke-width: 0.85 ;&st7;  " d=" M  1797.45,   324.73  L  1788.95,   324.73  " /><path style="stroke-width: 1.42 ;&st7;  " d=" M  1708.21,   299.24  L  1708.21,   503.20  L  1988.67,   503.20  L  1988.67,   299.24  L  1708.21,   299.24  " /><path style="stroke-width: 0.85 ;&st7;  " d=" M  1886.68,   460.71  L  1886.68,   503.20  " /><path style="stroke-width: 0.85 ;&st7;  " d=" M  1920.68,   460.71  L  1920.68,   503.20  " /><path style="stroke-width: 0.85 ;&st7;  " d=" M  1963.17,   426.71  L  1963.17,   503.20  " /><path style="stroke-width: 0.28 ;&st9;  " d=" M  1869.69,   324.73  L  1864.02,   316.23  L  1875.35,   316.23  L  1869.69,   324.73  " /><path style="stroke-width: 0.28 ;&st9;  " d=" M  1793.20,   324.73  L  1787.53,   316.23  L  1798.87,   316.23  L  1793.20,   324.73  " /><path style="stroke-width: 0.85 ;&st7;  " d=" M  1869.69,   341.73  L  1869.69,   350.23  " /><path style="stroke-width: 0.85 ;&st7;  " d=" M  1868.49,   340.73  L  1868.22,   341.20  L  1868.13,   341.73  L  1868.22,   342.26  L  1868.49,   342.73  L  1868.91,   343.08  L  1869.41,   343.26  L  1869.96,   343.26  L  1870.47,   343.08  L  1870.88,   342.73  L  1871.15,   342.26  L  1871.24,   341.73  L  1871.15,   341.20  L  1870.88,   340.73  L  1870.47,   340.38  L  1869.96,   340.19  L  1869.41,   340.19  L  1868.91,   340.38  L  1868.49,   340.73  L  1868.89,   341.44  L  1868.89,   342.02  L  1869.26,   342.46  L  1869.83,   342.56  L  1870.34,   342.28  L  1870.54,   341.73  L  1870.34,   341.18  L  1869.83,   340.89  L  1869.26,   340.99  L  1869.69,   341.73  " /><path style="stroke-width: 1.42 ;&st7;  " d=" M  1852.69,   350.23  L  1852.69,   367.22  L  1886.68,   367.22  L  1886.68,   350.23  L  1852.69,   350.23  " /><path style="stroke-width: 0.85 ;&st7;  " d=" M  1835.69,   367.22  L  1835.69,   358.73  L  1852.69,   358.73  " /><path style="stroke-width: 0.85 ;&st7;  " d=" M  1827.19,   367.22  L  1844.19,   367.22  " /><path style="stroke-width: 0.85 ;&st7;  " d=" M  1831.44,   370.06  L  1839.94,   370.06  " /><path style="stroke-width: 0.85 ;&st7;  " d=" M  1832.86,   372.89  L  1838.53,   372.89  " /><path style="stroke-width: 0.85 ;&st7;  " d=" M  1834.28,   375.72  L  1837.11,   375.72  " /><path style="stroke-width: 1.42 ;&st7;  " d=" M  1869.69,   443.71  L  1869.69,   460.71  L  1937.68,   460.71  L  1937.68,   443.71  L  1869.69,   443.71  " /><path style="stroke-width: 1.42 ;&st7;  " d=" M  1733.71,   401.22  L  1733.71,   426.71  L  1971.67,   426.71  L  1971.67,   401.22  L  1733.71,   401.22  " /><path style="stroke-width: 1.42 ;&st7;  " d=" M  1869.69,   426.71  L  1869.69,   409.72  L  1937.68,   409.72  L  1937.68,   426.71  " /><path style="stroke-width: 0.85 ;&st7;  " d=" M  1844.19,   443.71  L  1844.19,   452.21  L  1869.69,   452.21  " /><path style="stroke-width: 0.85 ;&st7;  " d=" M  1848.44,   443.71  L  1839.94,   443.71  " /><path style="stroke-width: 0.85 ;&st7;  " d=" M  1920.68,   426.71  L  1920.68,   443.71  " /><path style="stroke-width: 0.85 ;&st7;  " d=" M  1886.68,   426.71  L  1886.68,   443.71  " /><path style="stroke-width: 0.85 ;&st7;  " d=" M  1869.69,   367.22  L  1869.69,   401.22  " /><text style="font-size:6px;font-family:'NSimSun';" transform="matrix(&st16;  1872.27  375.42 )">5V+B</text><path style="stroke-width: 0.85 ;&st7;  " d=" M  1869.69,   299.24  L  1869.69,   341.73  " /><path style="stroke-width: 0.85 ;&st7;  " d=" M  1869.69,   341.73  L  1793.20,   341.73  L  1793.20,   299.24  " /><text style="font-size:6px;font-family:'NSimSun';" transform="matrix(&st16;  1872.27  307.43 )">B</text><text style="font-size:6px;font-family:'NSimSun';" transform="matrix(&st16;  1795.78  307.43 )">IG+</text><text style="font-size:6px;font-family:'NSimSun';" transform="matrix(&st16;  1861.84  360.69 )">5V IC</text><text style="font-size:6px;font-family:'NSimSun';" transform="matrix(&st16; 1888.28 420.47)" ewd:textID="3" ewd:horAlign="center">CAN 控制器</text><text style="font-size:6px;font-family:'NSimSun';" transform="matrix(&st16;  1836.85  440.3 )">5V+B</text><text style="font-size:6px;font-family:'NSimSun';" transform="matrix(&st16;  1889.27  499.51 )">CANL</text><text style="font-size:6px;font-family:'NSimSun';" transform="matrix(&st16;  1923.26  499.51 )">CANH</text><text style="font-size:6px;font-family:'NSimSun';" transform="matrix(&st16;  1891.92  454.46 )">CAN I/F</text><text style="font-size:6px;font-family:'NSimSun';" transform="matrix(&st16;  1965.76  499.51 )">ET</text><text style="font-size:6px;font-family:'NSimSun';" transform="matrix(&st16;  1795.4  416.22 )">CPU</text><path style="stroke-width: 1.42 ;&st7;  " d=" M  1733.71,   384.22  L  1801.70,   384.22  L  1801.70,   350.23  L  1733.71,   350.23  L  1733.71,   384.22  " /><path style="stroke-width: 0.85 ;&st7;  " d=" M  1742.21,   384.22  L  1742.21,   401.22  " /><path style="stroke-width: 0.85 ;&st7;  " d=" M  1750.71,   384.22  L  1750.71,   401.22  " /><path style="stroke-width: 0.85 ;&st7;  " d=" M  1767.70,   384.22  L  1767.70,   401.22  " /><path style="stroke-width: 0.85 ;&st7;  " d=" M  1784.70,   384.22  L  1784.70,   401.22  " /><path style="stroke-width: 0.85 ;&st7;  " d=" M  1793.20,   384.22  L  1793.20,   401.22  " /><path style="stroke-width: 0.85 ;&st7;  " d=" M  1776.20,   384.22  L  1776.20,   401.22  " /><path style="stroke-width: 0.85 ;&st7;  " d=" M  1759.21,   384.22  L  1759.21,   401.22  " /><text style="font-size:6px;font-family:'NSimSun';" transform="matrix(&st16; 1750.82 369.37)" ewd:textID="6" ewd:horAlign="center">显示屏驱动器<tspan x="0 " dy="6.0" /></text><text style="font-size:6px;font-family:'NSimSun';" transform="matrix(&st16;  1781.4  296.67 )">39</text><path style="stroke-width: 1.42 ;&st7;   " d=" M  1797.73,   294.70  C  1797.73    292.20   1795.70    290.17   1793.20    290.17  " /><path style="stroke-width: 1.42 ;&st7;   " d=" M  1793.20,   290.17  C  1790.70    290.17   1788.67    292.20   1788.67    294.70  " /><path style="stroke-width: 1.42 ;&st7;   " d=" M  1788.67,   294.70  C  1788.67    297.21   1790.70    299.24   1793.20    299.24  " /><path style="stroke-width: 1.42 ;&st7;   " d=" M  1793.20,   299.24  C  1795.70    299.24   1797.73    297.21   1797.73    294.70  " /><text style="font-size:6px;font-family:'NSimSun';" transform="matrix(&st16;  1790.9  296.67 )">A</text><text style="font-size:6px;font-family:'NSimSun';" transform="matrix(&st16;  1857.89  296.67 )">40</text><path style="stroke-width: 1.42 ;&st7;   " d=" M  1874.22,   294.70  C  1874.22    292.20   1872.19    290.17   1869.69    290.17  " /><path style="stroke-width: 1.42 ;&st7;   " d=" M  1869.69,   290.17  C  1867.18    290.17   1865.16    292.20   1865.16    294.70  " /><path style="stroke-width: 1.42 ;&st7;   " d=" M  1865.16,   294.70  C  1865.16    297.21   1867.18    299.24   1869.69    299.24  " /><path style="stroke-width: 1.42 ;&st7;   " d=" M  1869.69,   299.24  C  1872.19    299.24   1874.22    297.21   1874.22    294.70  " /><text style="font-size:6px;font-family:'NSimSun';" transform="matrix(&st16;  1867.38  296.67 )">A</text><text style="font-size:6px;font-family:'NSimSun';" transform="matrix(&st16;  1874.89  509.7 )">31</text><path style="stroke-width: 1.42 ;&st7;   " d=" M  1891.22,   507.73  C  1891.22    505.23   1889.19    503.20   1886.68    503.20  " /><path style="stroke-width: 1.42 ;&st7;   " d=" M  1886.68,   503.20  C  1884.18    503.20   1882.15    505.23   1882.15    507.73  " /><path style="stroke-width: 1.42 ;&st7;   " d=" M  1882.15,   507.73  C  1882.15    510.24   1884.18    512.27   1886.68    512.27  " /><path style="stroke-width: 1.42 ;&st7;   " d=" M  1886.68,   512.27  C  1889.19    512.27   1891.22    510.24   1891.22    507.73  " /><text style="font-size:6px;font-family:'NSimSun';" transform="matrix(&st16;  1884.38  509.7 )">A</text><text style="font-size:6px;font-family:'NSimSun';" transform="matrix(&st16;  1908.88  509.7 )">32</text><text style="font-size:6px;font-family:'NSimSun';" transform="matrix(&st16;  1918.37  509.7 )">A</text><path style="stroke-width: 1.42 ;&st7;   " d=" M  1925.21,   507.73  C  1925.21    505.23   1923.18    503.20   1920.68    503.20  " /><path style="stroke-width: 1.42 ;&st7;   " d=" M  1920.68,   503.20  C  1918.18    503.20   1916.15    505.23   1916.15    507.73  " /><path style="stroke-width: 1.42 ;&st7;   " d=" M  1916.15,   507.73  C  1916.15    510.24   1918.18    512.27   1920.68    512.27  " /><path style="stroke-width: 1.42 ;&st7;   " d=" M  1920.68,   512.27  C  1923.18    512.27   1925.21    510.24   1925.21    507.73  " /><text style="font-size:6px;font-family:'NSimSun';" transform="matrix(&st16;  1951.38  509.7 )">21</text><path style="stroke-width: 1.42 ;&st7;   " d=" M  1967.70,   507.73  C  1967.70    505.23   1965.68    503.20   1963.17    503.20  " /><path style="stroke-width: 1.42 ;&st7;   " d=" M  1963.17,   503.20  C  1960.67    503.20   1958.64    505.23   1958.64    507.73  " /><path style="stroke-width: 1.42 ;&st7;   " d=" M  1958.64,   507.73  C  1958.64    510.24   1960.67    512.27   1963.17    512.27  " /><path style="stroke-width: 1.42 ;&st7;   " d=" M  1963.17,   512.27  C  1965.68    512.27   1967.70    510.24   1967.70    507.73  " /><text style="font-size:6px;font-family:'NSimSun';" transform="matrix(&st16;  1960.87  509.7 )">A</text><g ewd:figtype="title"><text style="font-size:6px;font-family:'NSimSun';" transform="matrix(&st16;  1755.79  510.81 )">E55(A)</text><text style="font-size:6px;font-family:'NSimSun';" transform="matrix(&st16;  1755.8  517.92 )" ewd:textID="5">组合仪表总成</text></g></g><g ewd:figtype="jb" ewd:figID="16" ewd:code="3"><path style="stroke-width: 0.85 ;&st7;  " d=" M  1793.20,    69.77  L  1793.20,    95.27  " /><path style="stroke-width: 1.42 ;&st7;  " d=" M  1795.33,    95.27  L  1791.08,    95.27  " /><path style="stroke-width: 1.42 ;&st7;  " d=" M  1795.33,   103.77  L  1791.08,   103.77  " /><path style="stroke-width: 1.42 ;&st7;   " d=" M  1793.20,    47.11  C  1790.46     48.72   1789.55     52.25   1791.16     54.99  " /><path style="stroke-width: 1.42 ;&st7;   " d=" M  1791.16,    54.99  C  1791.68     55.87   1792.32     56.51   1793.20     57.03  " /><path style="stroke-width: 1.42 ;&st7;   " d=" M  1793.20,    66.94  C  1795.94     65.33   1796.85     61.80   1795.24     59.06  " /><path style="stroke-width: 1.42 ;&st7;   " d=" M  1795.24,    59.06  C  1794.72     58.18   1794.08     57.55   1793.20     57.03  " /><path style="stroke-width: 0.85 ;&st7;   " d=" M  1794.62,    45.69  C  1794.62     44.91   1793.98     44.28   1793.20     44.28  " /><path style="stroke-width: 0.85 ;&st7;   " d=" M  1793.20,    44.28  C  1792.42     44.28   1791.78     44.91   1791.78     45.69  " /><path style="stroke-width: 0.85 ;&st7;   " d=" M  1791.78,    45.69  C  1791.78     46.48   1792.42     47.11   1793.20     47.11  " /><path style="stroke-width: 0.85 ;&st7;   " d=" M  1793.20,    47.11  C  1793.98     47.11   1794.62     46.48   1794.62     45.69  " /><path style="stroke-width: 0.85 ;&st7;   " d=" M  1794.62,    68.36  C  1794.62     67.57   1793.98     66.94   1793.20     66.94  " /><path style="stroke-width: 0.85 ;&st7;   " d=" M  1793.20,    66.94  C  1792.42     66.94   1791.78     67.57   1791.78     68.36  " /><path style="stroke-width: 0.85 ;&st7;   " d=" M  1791.78,    68.36  C  1791.78     69.14   1792.42     69.77   1793.20     69.77  " /><path style="stroke-width: 0.85 ;&st7;   " d=" M  1793.20,    69.77  C  1793.98     69.77   1794.62     69.14   1794.62     68.36  " /><path style="stroke-width: 1.42 ;&st7;   " d=" M  1791.08,    95.27  C  1788.73     95.27   1786.83     97.17   1786.83     99.52  " /><path style="stroke-width: 1.42 ;&st7;   " d=" M  1786.83,    99.52  C  1786.83    101.87   1788.73    103.77   1791.08    103.77  " /><path style="stroke-width: 1.42 ;&st7;   " d=" M  1795.33,   103.77  C  1797.67    103.77   1799.57    101.87   1799.57     99.52  " /><path style="stroke-width: 1.42 ;&st7;   " d=" M  1799.57,    99.52  C  1799.57     97.17   1797.67     95.27   1795.33     95.27  " /><path style="stroke-width: 0.28 ;&st9;  " d=" M  1793.20,    90.37  L  1790.37,    87.54  L  1790.37,    91.79  L  1793.20,    94.62  L  1796.03,    91.79  L  1796.03,    87.54  L  1793.20,    90.37  " /><path style="stroke-width: 1.42 ;&st7;  " d=" M  1780.45,    35.78  L  1780.45,    78.27  L  1805.95,    78.27  L  1805.95,    35.78  L  1780.45,    35.78  " /><text style="font-size:6px;font-family:'NSimSun';" transform="matrix(&st16;  1787.99  32.08 )">(IG)</text><text style="font-size:6px;font-family:'NSimSun';" transform="matrix(&st16;  1787.02  86.47 )">2</text><text style="font-size:6px;font-family:'NSimSun';" transform="matrix(&st16;  1809.62  56.17 )">5A <tspan x="0 " dy="6.0">MET</tspan></text><text style="font-size:6px;font-family:'NSimSun';" transform="matrix(&st16;  1789.23  101.49 )">3C</text><text style="font-size:6px;font-family:'NSimSun';" transform="matrix(&st16;  1779.59  101.49 )">55</text></g><g ewd:figtype="jb" ewd:figID="17" ewd:code="3"><path style="stroke-width: 1.42 ;&st7;  " d=" M  1871.81,   171.76  L  1867.56,   171.76  " /><path style="stroke-width: 1.42 ;&st7;  " d=" M  1871.81,   180.26  L  1867.56,   180.26  " /><path style="stroke-width: 1.42 ;&st7;  " d=" M  1871.81,   205.75  L  1867.56,   205.75  " /><path style="stroke-width: 1.42 ;&st7;  " d=" M  1871.81,   214.25  L  1867.56,   214.25  " /><path style="stroke-width: 1.42 ;&st7;   " d=" M  1867.56,   171.76  C  1865.22    171.76   1863.31    173.66   1863.31    176.01  " /><path style="stroke-width: 1.42 ;&st7;   " d=" M  1863.31,   176.01  C  1863.31    178.35   1865.22    180.26   1867.56    180.26  " /><path style="stroke-width: 1.42 ;&st7;   " d=" M  1871.81,   180.26  C  1874.16    180.26   1876.06    178.35   1876.06    176.01  " /><path style="stroke-width: 1.42 ;&st7;   " d=" M  1876.06,   176.01  C  1876.06    173.66   1874.16    171.76   1871.81    171.76  " /><path style="stroke-width: 1.42 ;&st7;   " d=" M  1867.56,   205.75  C  1865.22    205.75   1863.31    207.65   1863.31    210.00  " /><path style="stroke-width: 1.42 ;&st7;   " d=" M  1863.31,   210.00  C  1863.31    212.35   1865.22    214.25   1867.56    214.25  " /><path style="stroke-width: 1.42 ;&st7;   " d=" M  1871.81,   214.25  C  1874.16    214.25   1876.06    212.35   1876.06    210.00  " /><path style="stroke-width: 1.42 ;&st7;   " d=" M  1876.06,   210.00  C  1876.06    207.65   1874.16    205.75   1871.81    205.75  " /><path style="stroke-width: 0.28 ;&st9;  " d=" M  1869.69,   185.15  L  1872.52,   187.98  L  1872.52,   183.73  L  1869.69,   180.90  L  1866.85,   183.73  L  1866.85,   187.98  L  1869.69,   185.15  " /><path style="stroke-width: 0.28 ;&st9;  " d=" M  1869.69,   200.86  L  1866.85,   198.02  L  1866.85,   202.27  L  1869.69,   205.11  L  1872.52,   202.27  L  1872.52,   198.02  L  1869.69,   200.86  " /><path style="stroke-width: 0.85 ;&st7;  " d=" M  1869.69,   205.75  L  1869.69,   180.26  " /><text style="font-size:6px;font-family:'NSimSun';" transform="matrix(&st16;  1856.08  177.98 )">44</text><text style="font-size:6px;font-family:'NSimSun';" transform="matrix(&st16;  1865.75  211.97 )">3D</text><text style="font-size:6px;font-family:'NSimSun';" transform="matrix(&st16;  1856.08  211.97 )">34</text><text style="font-size:6px;font-family:'NSimSun';" transform="matrix(&st16;  1865.83  177.98 )">3A</text></g><g ewd:figtype="gp" ewd:figID="34" ewd:code="ED"><path style="stroke-width: 0.85 ;&st7;  " d=" M  1963.17,   697.25  L  1963.17,   701.50  " /><path style="stroke-width: 0.85 ;&st7;  " d=" M  1954.67,   701.50  L  1971.67,   701.50  " /><path style="stroke-width: 0.85 ;&st7;  " d=" M  1958.92,   704.33  L  1967.42,   704.33  " /><path style="stroke-width: 0.85 ;&st7;  " d=" M  1960.34,   707.17  L  1966.00,   707.17  " /><path style="stroke-width: 0.85 ;&st7;  " d=" M  1961.75,   710.00  L  1964.59,   710.00  " /></g></svg>