<?xml version="1.0" encoding="utf-8"?>
<!DOCTYPE svg PUBLIC "-//W3C//DTD SVG 1.0//EN" "http://www.w3.org/TR/2001/REC-SVG-20010904/DTD/svg10.dtd"[
	<!ENTITY ns_flows "http://ns.adobe.com/Flows/1.0/">
	<!ENTITY ns_svg "http://www.w3.org/2000/svg">
	<!ENTITY ns_xlink "http://www.w3.org/1999/xlink">
	<!ENTITY st0 "font-size:7px;font-family:'NSimSun';adobe-font-script:japanese;">
	<!ENTITY st1 "font-size:6px;font-family:'NSimSun';">
	<!-- White fill  -->
	<!ENTITY st2 "fill:#FFFFFF;stroke:#000000; stroke-width:1.41;stroke-linecap:round;stroke-linejoin:round;">
	<!-- Yellow fill  -->
	<!ENTITY st3 "fill:#FFFFCC;stroke:#FFFFCC; stroke-width:0.1;stroke-linecap:round;stroke-linejoin:round;">
	<!-- Gray fill  -->
	<!ENTITY st4 "fill:#CCCCCC;stroke:#CCCCCC; stroke-width:0.1;stroke-linecap:round;stroke-linejoin:round;">
	<!-- Light-blue fill -->
	<!ENTITY st5 "fill:#CCECF4;stroke:#000000; stroke-width:1.133;stroke-linecap:round;stroke-linejoin:round;">
	<!ENTITY st6 "fill:none;stroke-linecap:butt; stroke-linejoin:round;">
	<!ENTITY st7 "fill:none;stroke:#000000;stroke-linecap:round;stroke-linejoin:round;">
	<!ENTITY st8 "enable-background:new    ;">
	<!-- Black fill -->
	<!ENTITY st9 "fill:#000000;stroke:#000000; stroke-linecap:round;stroke-linejoin:round;">
	<!-- SRS note   -->
	<!ENTITY st10 "font-size:9px;font-family:'NSimSun';">
	<!ENTITY st11 "font-size:9px;font-family:'NSimSun';">
	<!ENTITY st12 "font-size:6px;font-family:'NSimSun';">
	<!ENTITY st13 "fill:none;stroke:#ff0000;stroke-linecap:round;stroke-linejoin:round;">
	<!-- Yellow fill  -->
	<!ENTITY st14 "fill:#FFFF00;stroke:#FFFF00; stroke-width:0.1;stroke-linecap:round;stroke-linejoin:round;">
	<!ENTITY st15 "font-size:6px;font-family:'NSimSun';adobe-font-script:japanese;">
	<!ENTITY st16 "1.00 0.00 0.00 1.00">
	<!ENTITY st17 "0.00 -1.00 1.00 0.00">
	<!ENTITY st18 "font-size:6px;font-family:'NSimSun';">
	<!ENTITY st19 "font-size:9px;font-family:'NSimSun';">
	<!ENTITY st20 "font-size:6px;font-family:'NSimSun';adobe-font-script:japanese;">
	<!ENTITY st21 "font-size:7px;font-family:'NSimSun';adobe-font-script:japanese;">
	<!ATTLIST svg
		xmlns:ewd CDATA #FIXED "http://shcl.co.jp/ewd"
		xmlns:a CDATA #FIXED "http://ns.adobe.com/AdobeSVGViewerExtensions/3.0/"
		ewd:ver CDATA #IMPLIED
	>
	<!ATTLIST a
		ewd:lineID CDATA #IMPLIED
		ewd:groupID CDATA #IMPLIED
		ewd:figtype CDATA #IMPLIED
		ewd:code CDATA #IMPLIED
		ewd:figID CDATA #IMPLIED
		ewd:pinNo CDATA #IMPLIED
		ewd:comment CDATA #IMPLIED >
	<!ATTLIST g
		ewd:lineID CDATA #IMPLIED
		ewd:groupID CDATA #IMPLIED
		ewd:figtype CDATA #IMPLIED
		ewd:code CDATA #IMPLIED
		ewd:figID CDATA #IMPLIED
		ewd:pinNo CDATA #IMPLIED
		ewd:comment CDATA #IMPLIED >
	<!ATTLIST text
		ewd:textID CDATA #IMPLIED
		ewd:horAlign CDATA #IMPLIED >
	<!ATTLIST title
		ewd:textID CDATA #IMPLIED >
]>
<!-- Generator: Shintec Hozumi YS   -->
<svg onload="call_execInitLoadProc_svg('system')" style="overflow:visible;  enable-background:new 0 0 3526.798 710.000" viewBox="0 0 3518.524 710.000" height="710.000" width="3518.524" xml:space="preserve" ewd:ver="2.1.2.6F" xmlns="&ns_svg;" xmlns:a="http://ns.adobe.com/AdobeSVGViewerExtensions/3.0/" xmlns:ewd="http://shcl.co.jp/ewd" xmlns:xlink="&ns_xlink;">
<text style="font-size:6px;font-family:'NSimSun';" transform="matrix(&st17;  2761.18  558.91 )">(*2)</text><text style="font-size:6px;font-family:'NSimSun';" transform="matrix(&st17;  2826.33  224.24 )">P</text><text style="font-size:6px;font-family:'NSimSun';" transform="matrix(&st17;  2749.84  225.21 )">W</text><text style="font-size:6px;font-family:'NSimSun';" transform="matrix(&st17;  2868.82  557.74 )">BR</text><text style="font-size:6px;font-family:'NSimSun';" transform="matrix(&st17;  2749.84  131.73 )">W</text><text style="font-size:6px;font-family:'NSimSun';" transform="matrix(&st17;  2749.84  556.66 )">W</text><text style="font-size:6px;font-family:'NSimSun';" transform="matrix(&st17;  2817.83  557.98 )">LG</text><text style="font-size:6px;font-family:'NSimSun';" transform="matrix(&st17;  2829.16  558.91 )">(*2)</text><text style="font-size:6px;font-family:'NSimSun';" transform="matrix(&st17;  2761.18  133.98 )">(*2)</text><text style="font-size:6px;font-family:'NSimSun';" transform="matrix(&st17;  2761.18  227.46 )">(*2)</text><text style="font-size:6px;font-family:'NSimSun';" transform="matrix(&st17;  2837.66  227.46 )">(*2)</text><text style="font-size:6px;font-family:'NSimSun';" transform="matrix(&st17;  2880.16  558.91 )">(*2)</text><text style="font-size:6px;font-family:'NSimSun';" transform="matrix(&st16;  2557.33  643.98 )">LG(*1)</text><text style="font-size:6px;font-family:'NSimSun';" transform="matrix(&st16;  2558.64  626.98 )">W(*1)</text><text style="font-size:6px;font-family:'NSimSun';" transform="matrix(&st16;  2557.33  609.99 )">LG(*2)</text><text style="font-size:6px;font-family:'NSimSun';" transform="matrix(&st16;  2558.64  592.99 )">W(*2)</text><text style="font-size:6px;font-family:'NSimSun';" transform="matrix(&st16;  2608.32  643.98 )">LG(*1)</text><text style="font-size:6px;font-family:'NSimSun';" transform="matrix(&st16;  2609.64  626.98 )">W(*1)</text><text style="font-size:6px;font-family:'NSimSun';" transform="matrix(&st16;  2608.32  609.99 )">LG(*2)</text><text style="font-size:6px;font-family:'NSimSun';" transform="matrix(&st16;  2609.64  592.99 )">W(*2)</text><g ewd:code="FUSE6" ewd:figID="16" ewd:figtype="rb"><path d=" M  2755.66,   103.77  L  2751.42,   103.77  " style="stroke-width: 1.42 ;&st7;  " /><path d=" M  2755.66,    95.27  L  2751.42,    95.27  " style="stroke-width: 1.42 ;&st7;  " /><path d=" M  2753.54,    69.77  L  2753.54,    95.27  " style="stroke-width: 0.85 ;&st7;  " /><path d=" M  2759.91,    99.52  C  2759.91     97.17   2758.01     95.27   2755.66     95.27  " style="stroke-width: 1.42 ;&st7;   " /><path d=" M  2755.66,   103.77  C  2758.01    103.77   2759.91    101.87   2759.91     99.52  " style="stroke-width: 1.42 ;&st7;   " /><path d=" M  2747.17,    99.52  C  2747.17    101.87   2749.07    103.77   2751.42    103.77  " style="stroke-width: 1.42 ;&st7;   " /><path d=" M  2751.42,    95.27  C  2749.07     95.27   2747.17     97.17   2747.17     99.52  " style="stroke-width: 1.42 ;&st7;   " /><path d=" M  2753.54,    90.37  L  2750.71,    87.54  L  2750.71,    91.79  L  2753.54,    94.62  L  2756.37,    91.79  L  2756.37,    87.54  L  2753.54,    90.37  " style="stroke-width: 0.28 ;&st9;  " /><text style="font-size:6px;font-family:'NSimSun';" transform="matrix(&st16;  2745.5  32.08 )">(BAT)</text><text style="font-size:6px;font-family:'NSimSun';" transform="matrix(&st16;  2747.36  86.47 )">2</text><text style="font-size:6px;font-family:'NSimSun';" transform="matrix(&st16;  2751.74  101.49 )">1</text><text style="font-size:6px;font-family:'NSimSun';" transform="matrix(&st16;  2769.96  53.34 )">10A <tspan dy="6.0" x="0 ">ECU-B </tspan><tspan dy="6.0" x="0 ">NO.2</tspan></text><path d=" M  2753.54,    47.11  C  2750.80     48.72   2749.89     52.25   2751.50     54.99  " style="stroke-width: 1.42 ;&st7;   " /><path d=" M  2751.50,    54.99  C  2752.02     55.87   2752.66     56.51   2753.54     57.03  " style="stroke-width: 1.42 ;&st7;   " /><path d=" M  2754.96,    68.36  C  2754.96     67.57   2754.32     66.94   2753.54     66.94  " style="stroke-width: 0.85 ;&st7;   " /><path d=" M  2753.54,    66.94  C  2752.76     66.94   2752.12     67.57   2752.12     68.36  " style="stroke-width: 0.85 ;&st7;   " /><path d=" M  2752.12,    68.36  C  2752.12     69.14   2752.76     69.77   2753.54     69.77  " style="stroke-width: 0.85 ;&st7;   " /><path d=" M  2753.54,    69.77  C  2754.32     69.77   2754.96     69.14   2754.96     68.36  " style="stroke-width: 0.85 ;&st7;   " /><path d=" M  2754.96,    45.69  C  2754.96     44.91   2754.32     44.28   2753.54     44.28  " style="stroke-width: 0.85 ;&st7;   " /><path d=" M  2753.54,    44.28  C  2752.76     44.28   2752.12     44.91   2752.12     45.69  " style="stroke-width: 0.85 ;&st7;   " /><path d=" M  2752.12,    45.69  C  2752.12     46.48   2752.76     47.11   2753.54     47.11  " style="stroke-width: 0.85 ;&st7;   " /><path d=" M  2753.54,    47.11  C  2754.32     47.11   2754.96     46.48   2754.96     45.69  " style="stroke-width: 0.85 ;&st7;   " /><path d=" M  2753.54,    66.94  C  2756.28     65.33   2757.19     61.80   2755.58     59.06  " style="stroke-width: 1.42 ;&st7;   " /><path d=" M  2755.58,    59.06  C  2755.06     58.18   2754.42     57.55   2753.54     57.03  " style="stroke-width: 1.42 ;&st7;   " /><path d=" M  2740.79,    35.78  L  2740.79,    78.27  L  2766.29,    78.27  L  2766.29,    35.78  L  2740.79,    35.78  " style="stroke-width: 1.42 ;&st7;  " /></g><g ewd:code="E55" ewd:figID="17" ewd:figtype="conn"><path d=" M  2757.79,   290.74  L  2749.29,   290.74  " style="stroke-width: 0.85 ;&st7;  " /><path d=" M  2834.28,   290.74  L  2825.78,   290.74  " style="stroke-width: 0.85 ;&st7;  " /><path d=" M  2787.53,   462.83  L  2787.53,   452.21  " style="stroke-width: 0.85 ;&st7;  " /><path d=" M  2791.78,   462.83  L  2783.28,   462.83  " style="stroke-width: 1.42 ;&st7;  " /><path d=" M  2791.78,   467.08  L  2783.28,   467.08  " style="stroke-width: 1.42 ;&st7;  " /><path d=" M  2830.03,   375.72  L  2847.02,   375.72  " style="stroke-width: 1.42 ;&st7;  " /><path d=" M  2838.53,   375.72  L  2838.53,   384.22  " style="stroke-width: 0.85 ;&st7;  " /><path d=" M  2830.03,   367.22  L  2835.32,   375.16  " style="stroke-width: 0.85 ;&st7;  " /><path d=" M  2841.36,   375.72  L  2847.02,   367.22  " style="stroke-width: 0.85 ;&st7;  " /><path d=" M  2973.38,   331.28  L  2980.74,   327.03  " style="stroke-width: 0.85 ;&st7;  " /><path d=" M  2978.74,   323.57  L  2971.38,   327.82  " style="stroke-width: 0.85 ;&st7;  " /><path d=" M  2970.25,   333.23  L  2961.76,   333.23  " style="stroke-width: 0.85 ;&st7;  " /><path d=" M  2872.52,   269.49  L  2872.52,   277.99  " style="stroke-width: 0.85 ;&st7;  " /><path d=" M  2753.54,   290.74  L  2747.87,   282.24  L  2759.20,   282.24  L  2753.54,   290.74  " style="stroke-width: 0.28 ;&st9;  " /><path d=" M  2777.84,   366.22  L  2777.57,   366.69  L  2777.48,   367.22  L  2777.57,   367.76  L  2777.84,   368.23  L  2778.26,   368.57  L  2778.76,   368.76  L  2779.31,   368.76  L  2779.81,   368.57  L  2780.23,   368.23  L  2780.50,   367.76  L  2780.59,   367.22  L  2780.50,   366.69  L  2780.23,   366.22  L  2779.81,   365.88  L  2779.31,   365.69  L  2778.76,   365.69  L  2778.26,   365.88  L  2777.84,   366.22  L  2778.24,   366.93  L  2778.24,   367.52  L  2778.61,   367.96  L  2779.18,   368.06  L  2779.69,   367.77  L  2779.88,   367.22  L  2779.69,   366.68  L  2779.18,   366.39  L  2778.61,   366.49  L  2779.03,   367.22  " style="stroke-width: 0.85 ;&st7;  " /><path d=" M  2820.33,   366.22  L  2820.06,   366.69  L  2819.97,   367.22  L  2820.06,   367.76  L  2820.33,   368.23  L  2820.75,   368.57  L  2821.26,   368.76  L  2821.80,   368.76  L  2822.31,   368.57  L  2822.72,   368.23  L  2822.99,   367.76  L  2823.09,   367.22  L  2822.99,   366.69  L  2822.72,   366.22  L  2822.31,   365.88  L  2821.80,   365.69  L  2821.26,   365.69  L  2820.75,   365.88  L  2820.33,   366.22  L  2820.73,   366.93  L  2820.73,   367.52  L  2821.10,   367.96  L  2821.67,   368.06  L  2822.18,   367.77  L  2822.38,   367.22  L  2822.18,   366.68  L  2821.67,   366.39  L  2821.10,   366.49  L  2821.53,   367.22  " style="stroke-width: 0.85 ;&st7;  " /><path d=" M  2838.52,   350.23  L  2855.52,   350.23  " style="stroke-width: 0.85 ;&st7;  " /><path d=" M  2813.03,   350.23  L  2830.03,   350.23  " style="stroke-width: 0.85 ;&st7;  " /><path d=" M  2745.04,   409.72  L  2745.04,   392.72  L  2830.03,   392.72  L  2830.03,   409.72  " style="stroke-width: 1.42 ;&st7;  " /><path d=" M  2830.03,   290.74  L  2824.36,   282.24  L  2835.69,   282.24  L  2830.03,   290.74  " style="stroke-width: 0.28 ;&st9;  " /><path d=" M  2786.34,   451.21  L  2786.07,   451.68  L  2785.97,   452.21  L  2786.07,   452.74  L  2786.34,   453.21  L  2786.75,   453.56  L  2787.26,   453.75  L  2787.81,   453.75  L  2788.31,   453.56  L  2788.73,   453.21  L  2789.00,   452.74  L  2789.09,   452.21  L  2789.00,   451.68  L  2788.73,   451.21  L  2788.31,   450.86  L  2787.81,   450.67  L  2787.26,   450.67  L  2786.75,   450.86  L  2786.34,   451.21  L  2786.73,   451.92  L  2786.73,   452.50  L  2787.11,   452.95  L  2787.68,   453.05  L  2788.18,   452.76  L  2788.38,   452.21  L  2788.18,   451.66  L  2787.68,   451.37  L  2787.11,   451.47  L  2787.53,   452.21  " style="stroke-width: 0.85 ;&st7;  " /><path d=" M  2786.12,   486.20  L  2788.95,   486.20  " style="stroke-width: 0.85 ;&st7;  " /><path d=" M  2784.70,   483.37  L  2790.37,   483.37  " style="stroke-width: 0.85 ;&st7;  " /><path d=" M  2783.28,   480.54  L  2791.78,   480.54  " style="stroke-width: 0.85 ;&st7;  " /><path d=" M  2779.03,   477.71  L  2796.03,   477.71  " style="stroke-width: 0.85 ;&st7;  " /><path d=" M  2787.53,   467.08  L  2787.53,   477.71  " style="stroke-width: 0.85 ;&st7;  " /><path d=" M  2752.35,   451.21  L  2752.07,   451.68  L  2751.98,   452.21  L  2752.07,   452.74  L  2752.35,   453.21  L  2752.76,   453.56  L  2753.27,   453.75  L  2753.81,   453.75  L  2754.32,   453.56  L  2754.73,   453.21  L  2755.00,   452.74  L  2755.10,   452.21  L  2755.00,   451.68  L  2754.73,   451.21  L  2754.32,   450.86  L  2753.81,   450.67  L  2753.27,   450.67  L  2752.76,   450.86  L  2752.35,   451.21  L  2752.74,   451.92  L  2752.74,   452.50  L  2753.11,   452.95  L  2753.69,   453.05  L  2754.19,   452.76  L  2754.39,   452.21  L  2754.19,   451.66  L  2753.69,   451.37  L  2753.11,   451.47  L  2753.54,   452.21  " style="stroke-width: 0.85 ;&st7;  " /><path d=" M  2820.33,   451.21  L  2820.06,   451.68  L  2819.97,   452.21  L  2820.06,   452.74  L  2820.33,   453.21  L  2820.75,   453.56  L  2821.26,   453.75  L  2821.80,   453.75  L  2822.31,   453.56  L  2822.72,   453.21  L  2822.99,   452.74  L  2823.09,   452.21  L  2822.99,   451.68  L  2822.72,   451.21  L  2822.31,   450.86  L  2821.80,   450.67  L  2821.26,   450.67  L  2820.75,   450.86  L  2820.33,   451.21  L  2820.73,   451.92  L  2820.73,   452.50  L  2821.10,   452.95  L  2821.67,   453.05  L  2822.18,   452.76  L  2822.38,   452.21  L  2822.18,   451.66  L  2821.67,   451.37  L  2821.10,   451.47  L  2821.53,   452.21  " style="stroke-width: 0.85 ;&st7;  " /><path d=" M  2787.53,   452.21  L  2796.03,   452.21  L  2797.45,   449.38  L  2800.28,   455.04  L  2803.11,   449.38  L  2805.95,   455.04  L  2808.78,   449.38  L  2811.61,   455.04  L  2813.03,   452.21  L  2821.53,   452.21  " style="stroke-width: 0.85 ;&st7;  " /><path d=" M  2779.03,   307.73  L  2779.03,   333.23  " style="stroke-width: 0.85 ;&st7;  " /><path d=" M  2779.03,   367.22  L  2830.03,   367.22  " style="stroke-width: 0.85 ;&st7;  " /><path d=" M  2835.31,   375.16  L  2832.13,   373.02  L  2834.57,   371.40  L  2835.31,   375.16  L  2834.49,   373.92  L  2833.15,   373.03  L  2834.18,   372.34  L  2834.49,   373.92  L  2834.08,   373.31  L  2833.66,   373.03  L  2833.98,   372.81  L  2834.08,   373.31  " style="stroke-width: 0.85 ;&st7;  " /><path d=" M  2753.54,   452.21  L  2762.04,   452.21  L  2763.45,   449.38  L  2766.29,   455.04  L  2769.12,   449.38  L  2771.95,   455.04  L  2774.79,   449.38  L  2777.62,   455.04  L  2779.03,   452.21  L  2787.53,   452.21  " style="stroke-width: 0.85 ;&st7;  " /><path d=" M  2702.55,   248.24  L  2702.55,   503.20  L  3008.50,   503.20  L  3008.50,   248.24  L  2702.55,   248.24  " style="stroke-width: 1.42 ;&st7;  " /><path d=" M  2728.04,   384.22  L  2728.04,   409.72  L  2923.51,   409.72  L  2923.51,   384.22  L  2728.04,   384.22  " style="stroke-width: 1.42 ;&st7;  " /><path d=" M  2762.04,   333.23  L  2762.04,   350.23  L  2796.03,   350.23  L  2796.03,   333.23  L  2762.04,   333.23  " style="stroke-width: 1.42 ;&st7;  " /><path d=" M  2779.03,   350.23  L  2779.03,   384.22  " style="stroke-width: 0.85 ;&st7;  " /><path d=" M  2753.54,   248.24  L  2753.54,   307.73  L  2830.03,   307.73  L  2830.03,   248.24  " style="stroke-width: 0.85 ;&st7;  " /><path d=" M  2777.84,   306.73  L  2777.57,   307.20  L  2777.48,   307.73  L  2777.57,   308.27  L  2777.84,   308.74  L  2778.26,   309.08  L  2778.76,   309.27  L  2779.31,   309.27  L  2779.81,   309.08  L  2780.23,   308.74  L  2780.50,   308.27  L  2780.59,   307.73  L  2780.50,   307.20  L  2780.23,   306.73  L  2779.81,   306.39  L  2779.31,   306.20  L  2778.76,   306.20  L  2778.26,   306.39  L  2777.84,   306.73  L  2778.24,   307.44  L  2778.24,   308.03  L  2778.61,   308.47  L  2779.18,   308.57  L  2779.69,   308.28  L  2779.88,   307.73  L  2779.69,   307.19  L  2779.18,   306.90  L  2778.61,   307.00  L  2779.03,   307.73  " style="stroke-width: 0.85 ;&st7;  " /><path d=" M  2821.53,   367.22  L  2821.53,   350.23  " style="stroke-width: 0.85 ;&st7;  " /><path d=" M  2847.02,   367.22  L  2847.02,   350.23  " style="stroke-width: 0.85 ;&st7;  " /><path d=" M  2872.52,   409.72  L  2872.52,   503.20  " style="stroke-width: 0.85 ;&st7;  " /><path d=" M  2736.54,   426.71  L  2736.54,   443.71  L  2838.52,   443.71  L  2838.52,   426.71  L  2736.54,   426.71  " style="stroke-width: 1.42 ;&st7;  " /><path d=" M  2753.54,   443.71  L  2753.54,   503.20  " style="stroke-width: 0.85 ;&st7;  " /><path d=" M  2821.53,   443.71  L  2821.53,   503.20  " style="stroke-width: 0.85 ;&st7;  " /><path d=" M  2753.54,   426.71  L  2753.54,   409.72  " style="stroke-width: 0.85 ;&st7;  " /><path d=" M  2821.53,   426.71  L  2821.53,   409.72  " style="stroke-width: 0.85 ;&st7;  " /><path d=" M  2736.54,   435.21  L  2719.54,   435.21  L  2719.54,   426.71  " style="stroke-width: 0.85 ;&st7;  " /><path d=" M  2711.05,   426.71  L  2728.04,   426.71  " style="stroke-width: 0.85 ;&st7;  " /><path d=" M  2830.03,   273.74  L  2966.00,   273.74  " style="stroke-width: 0.85 ;&st7;  " /><path d=" M  2889.52,   350.23  L  2889.52,   384.22  " style="stroke-width: 0.85 ;&st7;  " /><path d=" M  2906.51,   350.23  L  2906.51,   384.22  " style="stroke-width: 0.85 ;&st7;  " /><path d=" M  2898.01,   350.23  L  2898.01,   384.22  " style="stroke-width: 0.85 ;&st7;  " /><path d=" M  2906.51,   333.23  L  2906.51,   273.74  " style="stroke-width: 0.85 ;&st7;  " /><path d=" M  2966.00,   384.22  L  2966.00,   324.73  " style="stroke-width: 0.85 ;&st7;  " /><path d=" M  2980.74,   327.03  L  2978.41,   330.08  L  2976.94,   327.54  L  2980.74,   327.03  L  2979.46,   327.78  L  2978.47,   329.06  L  2977.85,   327.99  L  2979.46,   327.78  L  2978.82,   328.14  L  2978.50,   328.55  L  2978.31,   328.21  L  2978.82,   328.14  " style="stroke-width: 0.85 ;&st7;  " /><path d=" M  2978.74,   323.57  L  2976.40,   326.61  L  2974.94,   324.07  L  2978.74,   323.57  L  2977.45,   324.31  L  2976.47,   325.59  L  2975.85,   324.52  L  2977.45,   324.31  L  2976.81,   324.68  L  2976.50,   325.08  L  2976.31,   324.74  L  2976.81,   324.68  " style="stroke-width: 0.85 ;&st7;  " /><path d=" M  2966.00,   333.23  L  2960.34,   324.73  L  2971.67,   324.73  L  2966.00,   333.23  " style="stroke-width: 0.28 ;&st9;  " /><path d=" M  2966.00,   290.74  L  2966.00,   273.74  " style="stroke-width: 0.85 ;&st7;  " /><path d=" M  2828.83,   272.74  L  2828.56,   273.21  L  2828.47,   273.74  L  2828.56,   274.27  L  2828.83,   274.74  L  2829.25,   275.09  L  2829.75,   275.28  L  2830.30,   275.28  L  2830.80,   275.09  L  2831.22,   274.74  L  2831.49,   274.27  L  2831.58,   273.74  L  2831.49,   273.21  L  2831.22,   272.74  L  2830.80,   272.39  L  2830.30,   272.20  L  2829.75,   272.20  L  2829.25,   272.39  L  2828.83,   272.74  L  2829.23,   273.45  L  2829.23,   274.03  L  2829.60,   274.48  L  2830.17,   274.58  L  2830.68,   274.29  L  2830.88,   273.74  L  2830.68,   273.19  L  2830.17,   272.90  L  2829.60,   273.00  L  2830.03,   273.74  " style="stroke-width: 0.85 ;&st7;  " /><path d=" M  2940.51,   384.22  L  2940.51,   409.72  L  2991.50,   409.72  L  2991.50,   384.22  L  2940.51,   384.22  " style="stroke-width: 1.42 ;&st7;  " /><path d=" M  2905.32,   272.74  L  2905.05,   273.21  L  2904.96,   273.74  L  2905.05,   274.27  L  2905.32,   274.74  L  2905.73,   275.09  L  2906.24,   275.28  L  2906.78,   275.28  L  2907.29,   275.09  L  2907.71,   274.74  L  2907.98,   274.27  L  2908.07,   273.74  L  2907.98,   273.21  L  2907.71,   272.74  L  2907.29,   272.39  L  2906.78,   272.20  L  2906.24,   272.20  L  2905.73,   272.39  L  2905.32,   272.74  L  2905.71,   273.45  L  2905.71,   274.03  L  2906.09,   274.48  L  2906.66,   274.58  L  2907.16,   274.29  L  2907.36,   273.74  L  2907.16,   273.19  L  2906.66,   272.90  L  2906.09,   273.00  L  2906.51,   273.74  " style="stroke-width: 0.85 ;&st7;  " /><path d=" M  2872.52,   273.74  L  2864.02,   279.41  L  2864.02,   268.07  L  2872.52,   273.74  " style="stroke-width: 0.28 ;&st9;  " /><path d=" M  2779.03,   316.23  L  2889.52,   316.23  L  2889.52,   333.23  " style="stroke-width: 0.85 ;&st7;  " /><path d=" M  2881.02,   333.23  L  2881.02,   350.23  L  2915.01,   350.23  L  2915.01,   333.23  L  2881.02,   333.23  " style="stroke-width: 1.42 ;&st7;  " /><path d=" M  2966.00,   324.73  L  2966.00,   316.23  L  2963.17,   314.82  L  2968.84,   311.98  L  2963.17,   309.15  L  2968.84,   306.32  L  2963.17,   303.48  L  2968.84,   300.65  L  2966.00,   299.24  L  2966.00,   290.74  " style="stroke-width: 0.85 ;&st7;  " /><path d=" M  2777.84,   315.23  L  2777.57,   315.70  L  2777.48,   316.23  L  2777.57,   316.77  L  2777.84,   317.24  L  2778.26,   317.58  L  2778.76,   317.77  L  2779.31,   317.77  L  2779.81,   317.58  L  2780.23,   317.24  L  2780.50,   316.77  L  2780.59,   316.23  L  2780.50,   315.70  L  2780.23,   315.23  L  2779.81,   314.88  L  2779.31,   314.70  L  2778.76,   314.70  L  2778.26,   314.88  L  2777.84,   315.23  L  2778.24,   315.94  L  2778.24,   316.52  L  2778.61,   316.97  L  2779.18,   317.07  L  2779.69,   316.78  L  2779.88,   316.23  L  2779.69,   315.69  L  2779.18,   315.40  L  2778.61,   315.50  L  2779.03,   316.23  " style="stroke-width: 0.85 ;&st7;  " /><text style="font-size:6px;font-family:'NSimSun';" transform="matrix(&st16;  2813.25  346.53 )">5V +B</text><text style="font-size:6px;font-family:'NSimSun';" transform="matrix(&st16;  2843.17  346.53 )">5V</text><text ewd:textID="28" style="font-size:6px;font-family:'NSimSun';" transform="matrix(&st16; 2772.14 403.19)" ewd:horAlign="center">CAN 控制器</text><text style="font-size:6px;font-family:'NSimSun';" transform="matrix(&st16;  2824.11  499.51 )">CANH</text><text style="font-size:6px;font-family:'NSimSun';" transform="matrix(&st16;  2756.12  499.51 )">CANL</text><text style="font-size:6px;font-family:'NSimSun';" transform="matrix(&st16;  2875.1  499.51 )">ET</text><text style="font-size:6px;font-family:'NSimSun';" transform="matrix(&st16;  2832.61  256.44 )">IG+</text><text style="font-size:6px;font-family:'NSimSun';" transform="matrix(&st16;  2756.12  256.44 )">B</text><text style="font-size:6px;font-family:'NSimSun';" transform="matrix(&st16;  2771.19  343.7 )">5V IC</text><text style="font-size:6px;font-family:'NSimSun';" transform="matrix(&st16;  2775.77  437.18 )">CAN I/F</text><text style="font-size:6px;font-family:'NSimSun';" transform="matrix(&st16;  2711.27  423.02 )">5V +B</text><text style="font-size:6px;font-family:'NSimSun';" transform="matrix(&st16;  2866.22  398.94 )">CPU</text><text ewd:textID="40" style="font-size:6px;font-family:'NSimSun';" transform="matrix(&st16; 2956.69 394.69)" ewd:horAlign="center">LED<tspan dy="6.0" x="0 ">驱动器</tspan></text><text style="font-size:6px;font-family:'NSimSun';" transform="matrix(&st17;  2956.36  333.69 )">SRS</text><text style="font-size:6px;font-family:'NSimSun';" transform="matrix(&st16;  2893.46  343.7 )">I/F</text><text style="font-size:6px;font-family:'NSimSun';" transform="matrix(&st16;  2741.74  509.7 )">31</text><path d=" M  2758.07,   507.73  C  2758.07    505.23   2756.04    503.20   2753.54    503.20  " style="stroke-width: 1.42 ;&st7;   " /><path d=" M  2753.54,   503.20  C  2751.04    503.20   2749.01    505.23   2749.01    507.73  " style="stroke-width: 1.42 ;&st7;   " /><path d=" M  2749.01,   507.73  C  2749.01    510.24   2751.04    512.27   2753.54    512.27  " style="stroke-width: 1.42 ;&st7;   " /><path d=" M  2753.54,   512.27  C  2756.04    512.27   2758.07    510.24   2758.07    507.73  " style="stroke-width: 1.42 ;&st7;   " /><text style="font-size:6px;font-family:'NSimSun';" transform="matrix(&st16;  2751.24  509.7 )">A</text><text style="font-size:6px;font-family:'NSimSun';" transform="matrix(&st16;  2741.74  245.68 )">40</text><text style="font-size:6px;font-family:'NSimSun';" transform="matrix(&st16;  2751.24  245.68 )">A</text><path d=" M  2758.07,   243.71  C  2758.07    241.21   2756.04    239.18   2753.54    239.18  " style="stroke-width: 1.42 ;&st7;   " /><path d=" M  2753.54,   239.18  C  2751.04    239.18   2749.01    241.21   2749.01    243.71  " style="stroke-width: 1.42 ;&st7;   " /><path d=" M  2749.01,   243.71  C  2749.01    246.21   2751.04    248.24   2753.54    248.24  " style="stroke-width: 1.42 ;&st7;   " /><path d=" M  2753.54,   248.24  C  2756.04    248.24   2758.07    246.21   2758.07    243.71  " style="stroke-width: 1.42 ;&st7;   " /><text style="font-size:6px;font-family:'NSimSun';" transform="matrix(&st16;  2809.73  509.7 )">32</text><text style="font-size:6px;font-family:'NSimSun';" transform="matrix(&st16;  2819.22  509.7 )">A</text><path d=" M  2826.06,   507.73  C  2826.06    505.23   2824.03    503.20   2821.53    503.20  " style="stroke-width: 1.42 ;&st7;   " /><path d=" M  2821.53,   503.20  C  2819.03    503.20   2817.00    505.23   2817.00    507.73  " style="stroke-width: 1.42 ;&st7;   " /><path d=" M  2817.00,   507.73  C  2817.00    510.24   2819.03    512.27   2821.53    512.27  " style="stroke-width: 1.42 ;&st7;   " /><path d=" M  2821.53,   512.27  C  2824.03    512.27   2826.06    510.24   2826.06    507.73  " style="stroke-width: 1.42 ;&st7;   " /><text style="font-size:6px;font-family:'NSimSun';" transform="matrix(&st16;  2818.23  245.68 )">39</text><path d=" M  2834.56,   243.71  C  2834.56    241.21   2832.53    239.18   2830.03    239.18  " style="stroke-width: 1.42 ;&st7;   " /><path d=" M  2830.03,   239.18  C  2827.52    239.18   2825.49    241.21   2825.49    243.71  " style="stroke-width: 1.42 ;&st7;   " /><path d=" M  2825.49,   243.71  C  2825.49    246.21   2827.52    248.24   2830.03    248.24  " style="stroke-width: 1.42 ;&st7;   " /><path d=" M  2830.03,   248.24  C  2832.53    248.24   2834.56    246.21   2834.56    243.71  " style="stroke-width: 1.42 ;&st7;   " /><text style="font-size:6px;font-family:'NSimSun';" transform="matrix(&st16;  2827.72  245.68 )">A</text><text style="font-size:6px;font-family:'NSimSun';" transform="matrix(&st16;  2860.72  509.7 )">21</text><path d=" M  2877.05,   507.73  C  2877.05    505.23   2875.02    503.20   2872.52    503.20  " style="stroke-width: 1.42 ;&st7;   " /><path d=" M  2872.52,   503.20  C  2870.02    503.20   2867.99    505.23   2867.99    507.73  " style="stroke-width: 1.42 ;&st7;   " /><path d=" M  2867.99,   507.73  C  2867.99    510.24   2870.02    512.27   2872.52    512.27  " style="stroke-width: 1.42 ;&st7;   " /><path d=" M  2872.52,   512.27  C  2875.02    512.27   2877.05    510.24   2877.05    507.73  " style="stroke-width: 1.42 ;&st7;   " /><text style="font-size:6px;font-family:'NSimSun';" transform="matrix(&st16;  2870.22  509.7 )">A</text><g ewd:figtype="title"><text style="font-size:6px;font-family:'NSimSun';" transform="matrix(&st17;  3016.39  506.1 )">E55(A)</text><text ewd:textID="29" style="font-size:6px;font-family:'NSimSun';" transform="matrix(&st17;  3023.22  506.11 )">组合仪表总成</text></g></g><g ewd:code="3" ewd:figID="34" ewd:figtype="jb"><path d=" M  2755.66,   205.75  L  2751.42,   205.75  " style="stroke-width: 1.42 ;&st7;  " /><path d=" M  2755.66,   197.25  L  2751.42,   197.25  " style="stroke-width: 1.42 ;&st7;  " /><path d=" M  2755.66,   163.26  L  2751.42,   163.26  " style="stroke-width: 1.42 ;&st7;  " /><path d=" M  2755.66,   154.76  L  2751.42,   154.76  " style="stroke-width: 1.42 ;&st7;  " /><path d=" M  2759.91,   201.50  C  2759.91    199.15   2758.01    197.25   2755.66    197.25  " style="stroke-width: 1.42 ;&st7;   " /><path d=" M  2755.66,   205.75  C  2758.01    205.75   2759.91    203.85   2759.91    201.50  " style="stroke-width: 1.42 ;&st7;   " /><path d=" M  2747.17,   201.50  C  2747.17    203.85   2749.07    205.75   2751.42    205.75  " style="stroke-width: 1.42 ;&st7;   " /><path d=" M  2751.42,   197.25  C  2749.07    197.25   2747.17    199.15   2747.17    201.50  " style="stroke-width: 1.42 ;&st7;   " /><path d=" M  2759.91,   159.01  C  2759.91    156.66   2758.01    154.76   2755.66    154.76  " style="stroke-width: 1.42 ;&st7;   " /><path d=" M  2755.66,   163.26  C  2758.01    163.26   2759.91    161.36   2759.91    159.01  " style="stroke-width: 1.42 ;&st7;   " /><path d=" M  2747.17,   159.01  C  2747.17    161.36   2749.07    163.26   2751.42    163.26  " style="stroke-width: 1.42 ;&st7;   " /><path d=" M  2751.42,   154.76  C  2749.07    154.76   2747.17    156.66   2747.17    159.01  " style="stroke-width: 1.42 ;&st7;   " /><path d=" M  2753.54,   197.25  L  2753.54,   163.26  " style="stroke-width: 0.85 ;&st7;  " /><path d=" M  2753.54,   192.36  L  2750.71,   189.52  L  2750.71,   193.77  L  2753.54,   196.61  L  2756.37,   193.77  L  2756.37,   189.52  L  2753.54,   192.36  " style="stroke-width: 0.28 ;&st9;  " /><path d=" M  2753.54,   168.15  L  2756.37,   170.99  L  2756.37,   166.74  L  2753.54,   163.90  L  2750.71,   166.74  L  2750.71,   170.99  L  2753.54,   168.15  " style="stroke-width: 0.28 ;&st9;  " /><text style="font-size:6px;font-family:'NSimSun';" transform="matrix(&st16;  2739.93  203.47 )">34</text><text style="font-size:6px;font-family:'NSimSun';" transform="matrix(&st16;  2749.68  160.98 )">3A</text><text style="font-size:6px;font-family:'NSimSun';" transform="matrix(&st16;  2739.93  160.98 )">44</text><text style="font-size:6px;font-family:'NSimSun';" transform="matrix(&st16;  2749.61  203.47 )">3D</text></g><g ewd:code="3" ewd:figID="35" ewd:figtype="jb"><path d=" M  2832.15,   103.77  L  2827.90,   103.77  " style="stroke-width: 1.42 ;&st7;  " /><path d=" M  2832.15,    95.27  L  2827.90,    95.27  " style="stroke-width: 1.42 ;&st7;  " /><path d=" M  2830.03,    69.77  L  2830.03,    95.27  " style="stroke-width: 0.85 ;&st7;  " /><path d=" M  2836.40,    99.52  C  2836.40     97.17   2834.50     95.27   2832.15     95.27  " style="stroke-width: 1.42 ;&st7;   " /><path d=" M  2823.65,    99.52  C  2823.65    101.87   2825.56    103.77   2827.90    103.77  " style="stroke-width: 1.42 ;&st7;   " /><path d=" M  2832.15,   103.77  C  2834.50    103.77   2836.40    101.87   2836.40     99.52  " style="stroke-width: 1.42 ;&st7;   " /><path d=" M  2827.90,    95.27  C  2825.56     95.27   2823.65     97.17   2823.65     99.52  " style="stroke-width: 1.42 ;&st7;   " /><path d=" M  2831.44,    68.36  C  2831.44     67.57   2830.81     66.94   2830.03     66.94  " style="stroke-width: 0.85 ;&st7;   " /><path d=" M  2830.03,    66.94  C  2829.24     66.94   2828.61     67.57   2828.61     68.36  " style="stroke-width: 0.85 ;&st7;   " /><path d=" M  2828.61,    68.36  C  2828.61     69.14   2829.24     69.77   2830.03     69.77  " style="stroke-width: 0.85 ;&st7;   " /><path d=" M  2830.03,    69.77  C  2830.81     69.77   2831.44     69.14   2831.44     68.36  " style="stroke-width: 0.85 ;&st7;   " /><path d=" M  2831.44,    45.69  C  2831.44     44.91   2830.81     44.28   2830.03     44.28  " style="stroke-width: 0.85 ;&st7;   " /><path d=" M  2830.03,    44.28  C  2829.24     44.28   2828.61     44.91   2828.61     45.69  " style="stroke-width: 0.85 ;&st7;   " /><path d=" M  2828.61,    45.69  C  2828.61     46.48   2829.24     47.11   2830.03     47.11  " style="stroke-width: 0.85 ;&st7;   " /><path d=" M  2830.03,    47.11  C  2830.81     47.11   2831.44     46.48   2831.44     45.69  " style="stroke-width: 0.85 ;&st7;   " /><path d=" M  2830.03,    66.94  C  2832.77     65.33   2833.68     61.80   2832.06     59.06  " style="stroke-width: 1.42 ;&st7;   " /><path d=" M  2832.06,    59.06  C  2831.54     58.18   2830.91     57.55   2830.03     57.03  " style="stroke-width: 1.42 ;&st7;   " /><path d=" M  2830.03,    47.11  C  2827.29     48.72   2826.38     52.25   2827.99     54.99  " style="stroke-width: 1.42 ;&st7;   " /><path d=" M  2827.99,    54.99  C  2828.51     55.87   2829.15     56.51   2830.03     57.03  " style="stroke-width: 1.42 ;&st7;   " /><path d=" M  2817.28,    35.78  L  2817.28,    78.27  L  2842.77,    78.27  L  2842.77,    35.78  L  2817.28,    35.78  " style="stroke-width: 1.42 ;&st7;  " /><path d=" M  2830.03,    90.37  L  2827.19,    87.54  L  2827.19,    91.79  L  2830.03,    94.62  L  2832.86,    91.79  L  2832.86,    87.54  L  2830.03,    90.37  " style="stroke-width: 0.28 ;&st9;  " /><text style="font-size:6px;font-family:'NSimSun';" transform="matrix(&st16;  2846.45  56.17 )">5A <tspan dy="6.0" x="0 ">MET</tspan></text><text style="font-size:6px;font-family:'NSimSun';" transform="matrix(&st16;  2824.81  32.08 )">(IG)</text><text style="font-size:6px;font-family:'NSimSun';" transform="matrix(&st16;  2816.42  101.49 )">55</text><text style="font-size:6px;font-family:'NSimSun';" transform="matrix(&st16;  2826.06  101.49 )">3C</text><text style="font-size:6px;font-family:'NSimSun';" transform="matrix(&st16;  2823.84  86.47 )">2</text></g><g ewd:code="ED" ewd:figID="56" ewd:figtype="gp"><path d=" M  2872.52,   697.25  L  2872.52,   701.50  " style="stroke-width: 0.85 ;&st7;  " /><path d=" M  2864.02,   701.50  L  2881.02,   701.50  " style="stroke-width: 0.85 ;&st7;  " /><path d=" M  2869.69,   707.17  L  2875.35,   707.17  " style="stroke-width: 0.85 ;&st7;  " /><path d=" M  2871.10,   710.00  L  2873.94,   710.00  " style="stroke-width: 0.85 ;&st7;  " /><path d=" M  2868.27,   704.33  L  2876.77,   704.33  " style="stroke-width: 0.85 ;&st7;  " /></g></svg>