<?xml version="1.0" encoding="utf-8"?>
<!DOCTYPE svg PUBLIC "-//W3C//DTD SVG 1.0//EN" "http://www.w3.org/TR/2001/REC-SVG-20010904/DTD/svg10.dtd"[
	<!ENTITY ns_flows "http://ns.adobe.com/Flows/1.0/">
	<!ENTITY ns_svg "http://www.w3.org/2000/svg">
	<!ENTITY ns_xlink "http://www.w3.org/1999/xlink">
	<!ENTITY st0 "font-size:7px;font-family:'NSimSun';adobe-font-script:japanese;">
	<!ENTITY st1 "font-size:6px;font-family:'NSimSun';">
	<!-- White fill  -->
	<!ENTITY st2 "fill:#FFFFFF;stroke:#000000; stroke-width:1.41;stroke-linecap:round;stroke-linejoin:round;">
	<!-- Yellow fill  -->
	<!ENTITY st3 "fill:#FFFFCC;stroke:#FFFFCC; stroke-width:0.1;stroke-linecap:round;stroke-linejoin:round;">
	<!-- Gray fill  -->
	<!ENTITY st4 "fill:#CCCCCC;stroke:#CCCCCC; stroke-width:0.1;stroke-linecap:round;stroke-linejoin:round;">
	<!-- Light-blue fill -->
	<!ENTITY st5 "fill:#CCECF4;stroke:#000000; stroke-width:1.133;stroke-linecap:round;stroke-linejoin:round;">
	<!ENTITY st6 "fill:none;stroke-linecap:butt; stroke-linejoin:round;">
	<!ENTITY st7 "fill:none;stroke:#000000;stroke-linecap:round;stroke-linejoin:round;">
	<!ENTITY st8 "enable-background:new    ;">
	<!-- Black fill -->
	<!ENTITY st9 "fill:#000000;stroke:#000000; stroke-linecap:round;stroke-linejoin:round;">
	<!-- SRS note   -->
	<!ENTITY st10 "font-size:9px;font-family:'NSimSun';">
	<!ENTITY st11 "font-size:9px;font-family:'NSimSun';">
	<!ENTITY st12 "font-size:6px;font-family:'NSimSun';">
	<!ENTITY st13 "fill:none;stroke:#ff0000;stroke-linecap:round;stroke-linejoin:round;">
	<!-- Yellow fill  -->
	<!ENTITY st14 "fill:#FFFF00;stroke:#FFFF00; stroke-width:0.1;stroke-linecap:round;stroke-linejoin:round;">
	<!ENTITY st15 "font-size:6px;font-family:'NSimSun';adobe-font-script:japanese;">
	<!ENTITY st16 "1.00 0.00 0.00 1.00">
	<!ENTITY st17 "0.00 -1.00 1.00 0.00">
	<!ENTITY st18 "font-size:6px;font-family:'NSimSun';">
	<!ENTITY st19 "font-size:9px;font-family:'NSimSun';">
	<!ENTITY st20 "font-size:6px;font-family:'NSimSun';adobe-font-script:japanese;">
	<!ENTITY st21 "font-size:7px;font-family:'NSimSun';adobe-font-script:japanese;">
	<!ATTLIST svg
		xmlns:ewd CDATA #FIXED "http://shcl.co.jp/ewd"
		xmlns:a CDATA #FIXED "http://ns.adobe.com/AdobeSVGViewerExtensions/3.0/"
		ewd:ver CDATA #IMPLIED
	>
	<!ATTLIST a
		ewd:lineID CDATA #IMPLIED
		ewd:groupID CDATA #IMPLIED
		ewd:figtype CDATA #IMPLIED
		ewd:code CDATA #IMPLIED
		ewd:figID CDATA #IMPLIED
		ewd:pinNo CDATA #IMPLIED
		ewd:comment CDATA #IMPLIED >
	<!ATTLIST g
		ewd:lineID CDATA #IMPLIED
		ewd:groupID CDATA #IMPLIED
		ewd:figtype CDATA #IMPLIED
		ewd:code CDATA #IMPLIED
		ewd:figID CDATA #IMPLIED
		ewd:pinNo CDATA #IMPLIED
		ewd:comment CDATA #IMPLIED >
	<!ATTLIST text
		ewd:textID CDATA #IMPLIED
		ewd:horAlign CDATA #IMPLIED >
	<!ATTLIST title
		ewd:textID CDATA #IMPLIED >
]>
<!-- Generator: Shintec Hozumi YS   -->
<svg onload="call_execInitLoadProc_svg('system')" style="overflow:visible;  enable-background:new 0 0 3526.798 710.000" viewBox="0 0 3518.524 710.000" height="710.000" width="3518.524" xml:space="preserve" ewd:ver="2.1.2.6F" xmlns="&ns_svg;" xmlns:a="http://ns.adobe.com/AdobeSVGViewerExtensions/3.0/" xmlns:ewd="http://shcl.co.jp/ewd" xmlns:xlink="&ns_xlink;"><script type="text/javascript" xlink:href="../../../../../system/js/ewd/fig/svgfig.js" xmlns:xlink="http://www.w3.org/1999/xlink" />
<g id="ewd_top"><a ewd:code="E55" ewd:figID="1" ewd:figtype="conn" style="cursor:pointer;"><path d=" M  3203.96,   299.24  L  3203.96,   511.70  L  3458.92,   511.70  L  3458.92,   299.24  L  3203.96,   299.24 " style="&st5;" /><title ewd:textID="29">组合仪表总成</title></a><a ewd:code="FUSE6" ewd:figID="2" ewd:figtype="rb" style="cursor:pointer;"><path d=" M  3216.71,    35.78  L  3216.71,    78.27  L  3242.21,    78.27  L  3242.21,    35.78  L  3216.71,    35.78 " style="fill:#CCECF4;stroke:#000000; stroke-width:0; stroke-linecap:round;stroke-linejoin:round; " /></a><a ewd:code="A40" ewd:figID="3" ewd:figtype="conn" style="cursor:pointer;"><path d=" M  2269.12,   622.18  L  2337.11,   622.18  L  2337.11,   664.67  L  2269.12,   664.67  L  2269.12,   622.18 " style="&st5;" /><title>ECM</title></a><a ewd:code="L13" ewd:figID="4" ewd:figtype="conn" style="cursor:pointer;"><path d=" M  1308.78,    86.77  L  1376.77,    86.77  L  1376.77,    52.78  L  1308.78,    52.78  L  1308.78,    86.77 " style="&st5;" /><title ewd:textID="45">左后空气囊传感器</title></a><a ewd:code="L11,L12" ewd:figID="5" ewd:figtype="conn" style="cursor:pointer;"><path d=" M  1308.78,   188.75  L  1376.77,   188.75  L  1376.77,   154.76  L  1308.78,   154.76  L  1308.78,   188.75 " style="&st5;" /><title ewd:textID="49">左侧侧空气囊传感器总成</title></a><a ewd:code="L14" ewd:figID="6" ewd:figtype="conn" style="cursor:pointer;"><path d=" M  1070.82,   205.75  L  1138.81,   205.75  L  1138.81,   171.76  L  1070.82,   171.76  L  1070.82,   205.75 " style="&st5;" /><title ewd:textID="30">左侧帘式空气囊总成</title></a><a ewd:code="L48" ewd:figID="7" ewd:figtype="conn" style="cursor:pointer;"><path d=" M  1181.30,   205.75  L  1249.29,   205.75  L  1249.29,   171.76  L  1181.30,   171.76  L  1181.30,   205.75 " style="&st5;" /><title ewd:textID="31">右侧帘式空气囊总成</title></a><a ewd:code="A18" ewd:figID="8" ewd:figtype="conn" style="cursor:pointer;"><path d=" M  1308.78,   571.19  L  1308.78,   605.18  L  1385.27,   605.18  L  1385.27,   571.19  L  1308.78,   571.19 " style="&st5;" /><title ewd:textID="34">右前空气囊传感器</title></a><a ewd:code="A8" ewd:figID="9" ewd:figtype="conn" style="cursor:pointer;"><path d=" M  1181.30,   571.19  L  1181.30,   605.18  L  1257.79,   605.18  L  1257.79,   571.19  L  1181.30,   571.19 " style="&st5;" /><title ewd:textID="33">左前空气囊传感器</title></a><a ewd:code="d1" ewd:figID="10" ewd:figtype="conn" style="cursor:pointer;"><path d=" M   875.35,   571.19  L   875.35,   605.18  L   951.84,   605.18  L   951.84,   571.19  L   875.35,   571.19 " style="&st5;" /><title ewd:textID="39">不带车门空气囊的仪表板乘客空气囊总成</title></a><a ewd:code="E14,z2" ewd:figID="11" ewd:figtype="conn" style="cursor:pointer;"><path d=" M   705.38,   545.69  L   773.37,   545.69  L   773.37,   562.69  L   705.38,   562.69  L   705.38,   545.69 " style="&st5;" /><title ewd:textID="52">螺旋电缆分总成、驾驶员侧点火管（喇叭按钮总成）</title></a><a ewd:code="z2" ewd:figID="12" ewd:figtype="conn" style="cursor:pointer;"><path d=" M   773.37,   571.76  L   773.37,   605.75  L   705.38,   605.75  L   705.38,   571.76  L   773.37,   571.76 " style="&st5;" /><title ewd:textID="52">螺旋电缆分总成、驾驶员侧点火管（喇叭按钮总成）</title></a><a ewd:code="L44" ewd:figID="13" ewd:figtype="conn" style="cursor:pointer;"><path d=" M  1920.68,   435.21  L  1920.68,   477.71  L  1997.17,   477.71  L  1997.17,   435.21  L  1920.68,   435.21 " style="&st5;" /><title ewd:textID="38">前排右侧座椅外安全带总成</title></a><a ewd:code="L10" ewd:figID="14" ewd:figtype="conn" style="cursor:pointer;"><path d=" M  1793.20,   435.21  L  1793.20,   477.71  L  1869.69,   477.71  L  1869.69,   435.21  L  1793.20,   435.21 " style="&st5;" /><title ewd:textID="37">前排左侧座椅外安全带总成</title></a><a ewd:code="E18" ewd:figID="15" ewd:figtype="conn" style="cursor:pointer;"><path d=" M  2175.64,   622.18  L  2243.63,   622.18  L  2243.63,   664.67  L  2175.64,   664.67  L  2175.64,   622.18 " style="&st5;" /><title>DLC3</title></a><a ewd:code="FUSE6" ewd:figID="16" ewd:figtype="rb" style="cursor:pointer;"><path d=" M  2740.79,    35.78  L  2740.79,    78.27  L  2766.29,    78.27  L  2766.29,    35.78  L  2740.79,    35.78 " style="fill:#CCECF4;stroke:#000000; stroke-width:0; stroke-linecap:round;stroke-linejoin:round; " /></a><a ewd:code="E55" ewd:figID="17" ewd:figtype="conn" style="cursor:pointer;"><path d=" M  2702.55,   248.24  L  2702.55,   503.20  L  3008.50,   503.20  L  3008.50,   248.24  L  2702.55,   248.24 " style="&st5;" /><title ewd:textID="29">组合仪表总成</title></a><a ewd:code="L53" ewd:figID="18" ewd:figtype="conn" style="cursor:pointer;"><path d=" M  1614.73,   112.27  L  1691.22,   112.27  L  1691.22,    69.77  L  1614.73,    69.77  L  1614.73,   112.27 " style="&st5;" /><title ewd:textID="48">后排右侧座椅外安全带总成</title></a><a ewd:code="L47" ewd:figID="19" ewd:figtype="conn" style="cursor:pointer;"><path d=" M  1427.76,    86.77  L  1504.25,    86.77  L  1504.25,    52.78  L  1427.76,    52.78  L  1427.76,    86.77 " style="&st5;" /><title ewd:textID="46">右后空气囊传感器</title></a><a ewd:code="E19,L15,L49" ewd:figID="20" ewd:figtype="conn" style="cursor:pointer;"><path d=" M   552.41,   290.74  L   552.41,   350.23  L  2005.66,   350.23  L  2005.66,   290.74  L   552.41,   290.74 " style="&st5;" /><title ewd:textID="27">空气囊 ECU 总成</title></a><a ewd:code="E74" ewd:figID="21" ewd:figtype="conn" style="cursor:pointer;"><path d=" M  2439.09,   316.23  L  2439.09,   290.74  L  2277.62,   290.74  L  2277.62,   316.23  L  2439.09,   316.23 " style="&st5;" /><title ewd:textID="43">2 号 CAN 接线连接器</title></a><a ewd:code="L45,L46" ewd:figID="22" ewd:figtype="conn" style="cursor:pointer;"><path d=" M  1427.76,   188.75  L  1504.25,   188.75  L  1504.25,   154.76  L  1427.76,   154.76  L  1427.76,   188.75 " style="&st5;" /><title ewd:textID="50">右侧侧空气囊传感器总成</title></a><a ewd:code="A39" ewd:figID="23" ewd:figtype="conn" style="cursor:pointer;"><path d=" M  2328.61,   511.70  L  2328.61,   486.20  L  2184.14,   486.20  L  2184.14,   511.70  L  2328.61,   511.70 " style="&st5;" /><title ewd:textID="42">1 号 CAN 接线连接器</title></a><a ewd:code="L40" ewd:figID="24" ewd:figtype="conn" style="cursor:pointer;"><path d=" M  1614.73,   571.19  L  1614.73,   613.68  L  1691.22,   613.68  L  1691.22,   571.19  L  1614.73,   571.19 " style="&st5;" /><title ewd:textID="47">后排左侧座椅外安全带总成</title></a><a ewd:code="e1" ewd:figID="25" ewd:figtype="conn" style="cursor:pointer;"><path d=" M   552.41,   129.26  L   628.89,   129.26  L   628.89,    95.27  L   552.41,    95.27  L   552.41,   129.26 " style="&st5;" /><title ewd:textID="35">前排左侧座椅空气囊总成</title></a><a ewd:code="f1" ewd:figID="26" ewd:figtype="conn" style="cursor:pointer;"><path d=" M   671.39,   129.26  L   747.88,   129.26  L   747.88,    95.27  L   671.39,    95.27  L   671.39,   129.26 " style="&st5;" /><title ewd:textID="36">前排右侧座椅空气囊总成</title></a><a ewd:code="3" ewd:figID="30" ewd:figtype="jb" style="cursor:pointer;"><path d=" M   815.86,   103.77  L   875.35,   103.77  L   875.35,    35.78  L   815.86,    35.78  L   815.86,   103.77  " style="&st4; " /></a><a ewd:code="3" ewd:figID="31" ewd:figtype="jb" style="cursor:pointer;"><path d=" M   552.41,   477.71  L   645.89,   477.71  L   645.89,   426.71  L   552.41,   426.71  L   552.41,   477.71  " style="&st4; " /></a><a ewd:code="3" ewd:figID="32" ewd:figtype="jb" style="cursor:pointer;"><path d=" M  3280.45,    35.78  L  3280.45,   103.77  L  3339.94,   103.77  L  3339.94,    35.78  L  3280.45,    35.78  " style="&st4; " /></a><a ewd:code="3" ewd:figID="33" ewd:figtype="jb" style="cursor:pointer;"><path d=" M  3212.46,   154.76  L  3212.46,   205.75  L  3237.96,   205.75  L  3237.96,   154.76  L  3212.46,   154.76  " style="&st4; " /></a><a ewd:code="3" ewd:figID="34" ewd:figtype="jb" style="cursor:pointer;"><path d=" M  2736.54,   154.76  L  2736.54,   205.75  L  2762.04,   205.75  L  2762.04,   154.76  L  2736.54,   154.76  " style="&st4; " /></a><a ewd:code="3" ewd:figID="35" ewd:figtype="jb" style="cursor:pointer;"><path d=" M  2813.03,    35.78  L  2813.03,   103.77  L  2881.02,   103.77  L  2881.02,    35.78  L  2813.03,    35.78  " style="&st4; " /></a><a ewd:code="FUSE42" ewd:figID="58" ewd:figtype="fuse" style="cursor:pointer;"><path d=" M   820.11,    35.78  L   820.11,    78.27  L   845.61,    78.27  L   845.61,    35.78  L   820.11,    35.78 " style="&st7; stroke-width:0;" /></a><a ewd:code="FUSE6" ewd:figID="59" ewd:figtype="fuse" style="cursor:pointer;"><path d=" M  2740.79,    35.78  L  2740.79,    78.27  L  2766.29,    78.27  L  2766.29,    35.78  L  2740.79,    35.78 " style="&st7; stroke-width:0;" /></a><a ewd:code="FUSE39" ewd:figID="60" ewd:figtype="fuse" style="cursor:pointer;"><path d=" M  2817.28,    35.78  L  2817.28,    78.27  L  2842.78,    78.27  L  2842.78,    35.78  L  2817.28,    35.78 " style="&st7; stroke-width:0;" /></a><a ewd:code="FUSE6" ewd:figID="61" ewd:figtype="fuse" style="cursor:pointer;"><path d=" M  3216.71,    35.78  L  3216.71,    78.27  L  3242.21,    78.27  L  3242.21,    35.78  L  3216.71,    35.78 " style="&st7; stroke-width:0;" /></a><a ewd:code="FUSE39" ewd:figID="62" ewd:figtype="fuse" style="cursor:pointer;"><path d=" M  3284.70,    35.78  L  3284.70,    78.27  L  3310.20,    78.27  L  3310.20,    35.78  L  3284.70,    35.78 " style="&st7; stroke-width:0;" /></a><a ewd:lineID="1" style="cursor:pointer;"><path d=" M   569.40,   477.71  L   569.40,   681.67  " style="stroke:#000000;stroke-width: 5.10 ;&st6;" /><path d=" M   569.40,   477.71  L   569.40,   681.67  " style="stroke:#FFFFFF;stroke-width: 4.53 ;&st6;" /><path d=" M   569.40,   477.71  L   569.40,   681.67  " style="stroke:#000000;stroke-width: 1.13 ;&st6;" /></a><a ewd:lineID="2" style="cursor:pointer;"><path d=" M   569.40,   426.71  L   569.40,   359.29  " style="stroke:#000000;stroke-width: 5.10 ;&st6;" /><path d=" M   569.40,   426.71  L   569.40,   359.29  " style="stroke:#FFFFFF;stroke-width: 4.53 ;&st6;" /><path d=" M   569.40,   426.71  L   569.40,   359.29  " style="stroke:#000000;stroke-width: 1.13 ;&st6;" /></a><a ewd:lineID="3" style="cursor:pointer;"><path d=" M   569.40,   272.61  L   569.40,   205.75  " style="stroke:#FFE600;stroke-width: 5.10 ;&st6;" /><path d=" M   569.40,   272.61  L   569.40,   205.75  " style="stroke:#FFFFFF;stroke-width: 2.27 ;&st6;" /><path d=" M   569.40,   272.61  L   569.40,   205.75  " style="stroke:#000000;stroke-width: 1.13 ;&st6;" /></a><a ewd:lineID="4" style="cursor:pointer;"><path d=" M   569.40,   191.02  L   569.40,   129.26  " style="stroke:#FFE600;stroke-width: 5.10 ;&st6;" /></a><a ewd:lineID="5" style="cursor:pointer;"><path d=" M   603.40,   272.61  L   603.40,   205.75  " style="stroke:#FFE600;stroke-width: 5.10 ;&st6;" /></a><a ewd:lineID="6" style="cursor:pointer;"><path d=" M   603.40,   190.74  L   603.40,   129.26  " style="stroke:#FFE600;stroke-width: 5.10 ;&st6;" /><path d=" M   603.40,   190.74  L   603.40,   129.26  " style="stroke:#FFFFFF;stroke-width: 2.27 ;&st6;" /><path d=" M   603.40,   190.74  L   603.40,   129.26  " style="stroke:#000000;stroke-width: 1.13 ;&st6;" /></a><a ewd:lineID="7" style="cursor:pointer;"><path d=" M   637.39,   681.67  L   637.39,   477.71  " style="stroke:#000000;stroke-width: 5.10 ;&st6;" /><path d=" M   637.39,   681.67  L   637.39,   477.71  " style="stroke:#FFFFFF;stroke-width: 4.53 ;&st6;" /><path d=" M   637.39,   681.67  L   637.39,   477.71  " style="stroke:#000000;stroke-width: 1.13 ;&st6;" /></a><a ewd:lineID="8" style="cursor:pointer;"><path d=" M   637.39,   426.71  L   637.39,   359.29  " style="stroke:#000000;stroke-width: 5.10 ;&st6;" /><path d=" M   637.39,   426.71  L   637.39,   359.29  " style="stroke:#FFFFFF;stroke-width: 4.53 ;&st6;" /><path d=" M   637.39,   426.71  L   637.39,   359.29  " style="stroke:#000000;stroke-width: 1.13 ;&st6;" /></a><a ewd:lineID="9" style="cursor:pointer;"><path d=" M   688.38,   281.67  L   688.38,   205.75  " style="stroke:#FFE600;stroke-width: 5.10 ;&st6;" /><path d=" M   688.38,   281.67  L   688.38,   205.75  " style="stroke:#FFFFFF;stroke-width: 2.27 ;&st6;" /><path d=" M   688.38,   281.67  L   688.38,   205.75  " style="stroke:#000000;stroke-width: 1.13 ;&st6;" /></a><a ewd:lineID="10" style="cursor:pointer;"><path d=" M   688.38,   191.02  L   688.38,   129.26  " style="stroke:#FFE600;stroke-width: 5.10 ;&st6;" /></a><a ewd:lineID="11" style="cursor:pointer;"><path d=" M   722.38,   536.63  L   722.38,   359.29  " style="stroke:#FFE600;stroke-width: 5.10 ;&st6;" /><path d=" M   722.38,   536.63  L   722.38,   359.29  " style="stroke:#FFFFFF;stroke-width: 2.27 ;&st6;" /><path d=" M   722.38,   536.63  L   722.38,   359.29  " style="stroke:#000000;stroke-width: 1.13 ;&st6;" /></a><a ewd:lineID="12" style="cursor:pointer;"><path d=" M   722.38,   281.67  L   722.38,   205.75  " style="stroke:#FFE600;stroke-width: 5.10 ;&st6;" /></a><a ewd:lineID="13" style="cursor:pointer;"><path d=" M   722.38,   190.74  L   722.38,   129.26  " style="stroke:#FFE600;stroke-width: 5.10 ;&st6;" /><path d=" M   722.38,   190.74  L   722.38,   129.26  " style="stroke:#FFFFFF;stroke-width: 2.27 ;&st6;" /><path d=" M   722.38,   190.74  L   722.38,   129.26  " style="stroke:#000000;stroke-width: 1.13 ;&st6;" /></a><a ewd:lineID="14" style="cursor:pointer;"><path d=" M   756.37,   536.63  L   756.37,   359.29  " style="stroke:#FFE600;stroke-width: 5.10 ;&st6;" /></a><a ewd:lineID="15" style="cursor:pointer;"><path d=" M   832.86,   103.77  L   832.86,   281.67  " style="stroke:#000000;stroke-width: 5.10 ;&st6;" /></a><a ewd:lineID="16" style="cursor:pointer;"><path d=" M   892.35,   467.22  L   892.35,   571.19  " style="stroke:#FFE600;stroke-width: 5.10 ;&st6;" /><path d=" M   892.35,   467.22  L   892.35,   571.19  " style="stroke:#FFFFFF;stroke-width: 2.27 ;&st6;" /><path d=" M   892.35,   467.22  L   892.35,   571.19  " style="stroke:#FF0000;stroke-width: 1.13 ;&st6;" /></a><a ewd:lineID="17" style="cursor:pointer;"><path d=" M   892.35,   452.21  L   892.35,   359.29  " style="stroke:#FFE600;stroke-width: 5.10 ;&st6;" /><path d=" M   892.35,   452.21  L   892.35,   359.29  " style="stroke:#FFFFFF;stroke-width: 2.27 ;&st6;" /><path d=" M   892.35,   452.21  L   892.35,   359.29  " style="stroke:#000000;stroke-width: 1.13 ;&st6;" /></a><a ewd:lineID="18" style="cursor:pointer;"><path d=" M   934.84,   467.22  L   934.84,   571.19  " style="stroke:#FFE600;stroke-width: 5.10 ;&st6;" /><path d=" M   934.84,   467.22  L   934.84,   571.19  " style="stroke:#FFFFFF;stroke-width: 2.27 ;&st6;" /><path d=" M   934.84,   467.22  L   934.84,   571.19  " style="stroke:#008837;stroke-width: 1.13 ;&st6;" /></a><a ewd:lineID="19" style="cursor:pointer;"><path d=" M   934.84,   452.21  L   934.84,   359.29  " style="stroke:#FFE600;stroke-width: 5.10 ;&st6;" /></a><a ewd:comment="7" ewd:lineID="20" style="cursor:pointer;"><path d=" M  1087.82,   281.67  L  1087.82,   205.75  " style="stroke:#FFE600;stroke-width: 5.10 ;&st6;" /></a><a ewd:comment="7" ewd:lineID="21" style="cursor:pointer;"><path d=" M  1121.81,   281.67  L  1121.81,   205.75  " style="stroke:#FFE600;stroke-width: 5.10 ;&st6;" /><path d=" M  1121.81,   281.67  L  1121.81,   205.75  " style="stroke:#FFFFFF;stroke-width: 2.27 ;&st6;" /><path d=" M  1121.81,   281.67  L  1121.81,   205.75  " style="stroke:#000000;stroke-width: 1.13 ;&st6;" /></a><a ewd:lineID="22" style="cursor:pointer;"> d=" M  1198.30,   460.71  L  1198.30,   571.19 
	
		<path d=" M  1198.30,   460.71  L  1198.30,   571.19  " style="stroke:#000000;stroke-width: 5.10 ;&st6;" /><path d=" M  1198.30,   460.71  L  1198.30,   571.19  " style="stroke:#FFFFFF;stroke-width: 4.53 ;&st6;" /></a><a ewd:lineID="23" style="cursor:pointer;"> d=" M  1198.30,   445.69  L  1198.30,   359.29 
	
		<path d=" M  1198.30,   445.69  L  1198.30,   359.29  " style="stroke:#000000;stroke-width: 5.10 ;&st6;" /><path d=" M  1198.30,   445.69  L  1198.30,   359.29  " style="stroke:#FFFFFF;stroke-width: 4.53 ;&st6;" /></a><a ewd:comment="7" ewd:lineID="24" style="cursor:pointer;"><path d=" M  1198.30,   281.67  L  1198.30,   205.75  " style="stroke:#FFE600;stroke-width: 5.10 ;&st6;" /></a><a ewd:comment="7" ewd:lineID="25" style="cursor:pointer;"><path d=" M  1232.29,   281.67  L  1232.29,   205.75  " style="stroke:#FFE600;stroke-width: 5.10 ;&st6;" /><path d=" M  1232.29,   281.67  L  1232.29,   205.75  " style="stroke:#FFFFFF;stroke-width: 2.27 ;&st6;" /><path d=" M  1232.29,   281.67  L  1232.29,   205.75  " style="stroke:#000000;stroke-width: 1.13 ;&st6;" /></a><a ewd:lineID="26" style="cursor:pointer;"><path d=" M  1240.79,   460.71  L  1240.79,   571.19  " style="stroke:#000000;stroke-width: 5.10 ;&st6;" /></a><a ewd:lineID="27" style="cursor:pointer;"><path d=" M  1240.79,   445.98  L  1240.79,   359.29  " style="stroke:#000000;stroke-width: 5.10 ;&st6;" /></a><a ewd:lineID="28" style="cursor:pointer;"> d=" M  1325.78,   460.71  L  1325.78,   571.19 
	
		<path d=" M  1325.78,   460.71  L  1325.78,   571.19  " style="stroke:#000000;stroke-width: 5.10 ;&st6;" /><path d=" M  1325.78,   460.71  L  1325.78,   571.19  " style="stroke:#FFFFFF;stroke-width: 4.53 ;&st6;" /></a><a ewd:lineID="29" style="cursor:pointer;"> d=" M  1325.78,   445.69  L  1325.78,   359.29 
	
		<path d=" M  1325.78,   445.69  L  1325.78,   359.29  " style="stroke:#000000;stroke-width: 5.10 ;&st6;" /><path d=" M  1325.78,   445.69  L  1325.78,   359.29  " style="stroke:#FFFFFF;stroke-width: 4.53 ;&st6;" /></a><a ewd:lineID="30" style="cursor:pointer;"> d=" M  1325.78,   272.61  L  1325.78,   206.88 
	
		<path d=" M  1325.78,   272.61  L  1325.78,   206.88  " style="stroke:#000000;stroke-width: 5.10 ;&st6;" /><path d=" M  1325.78,   272.61  L  1325.78,   206.88  " style="stroke:#FFFFFF;stroke-width: 4.53 ;&st6;" /></a><a ewd:comment="7" ewd:lineID="31" style="cursor:pointer;"> d=" M  1325.78,   145.69  L  1325.78,    86.77 
	
		<path d=" M  1325.78,   145.69  L  1325.78,    86.77  " style="stroke:#000000;stroke-width: 5.10 ;&st6;" /><path d=" M  1325.78,   145.69  L  1325.78,    86.77  " style="stroke:#FFFFFF;stroke-width: 4.53 ;&st6;" /></a><a ewd:lineID="32" style="cursor:pointer;"><path d=" M  1359.77,   272.61  L  1359.77,   206.88  " style="stroke:#00A0C6;stroke-width: 5.10 ;&st6;" /></a><a ewd:comment="7" ewd:lineID="33" style="cursor:pointer;"><path d=" M  1359.77,   145.69  L  1359.77,    86.77  " style="stroke:#000000;stroke-width: 5.10 ;&st6;" /></a><a ewd:lineID="34" style="cursor:pointer;"><path d=" M  1368.27,   460.71  L  1368.27,   571.19  " style="stroke:#000000;stroke-width: 5.10 ;&st6;" /></a><a ewd:lineID="35" style="cursor:pointer;"><path d=" M  1368.27,   445.98  L  1368.27,   359.29  " style="stroke:#000000;stroke-width: 5.10 ;&st6;" /></a><a ewd:lineID="36" style="cursor:pointer;"><path d=" M  1444.76,   272.61  L  1444.76,   206.88  " style="stroke:#008837;stroke-width: 5.10 ;&st6;" /></a><a ewd:comment="7" ewd:lineID="37" style="cursor:pointer;"> d=" M  1444.76,   145.69  L  1444.76,    86.77 
	
		<path d=" M  1444.76,   145.69  L  1444.76,    86.77  " style="stroke:#000000;stroke-width: 5.10 ;&st6;" /><path d=" M  1444.76,   145.69  L  1444.76,    86.77  " style="stroke:#FFFFFF;stroke-width: 4.53 ;&st6;" /></a><a ewd:lineID="38" style="cursor:pointer;"><path d=" M  1487.25,   281.67  L  1487.25,   206.88  " style="stroke:#FF0000;stroke-width: 5.10 ;&st6;" /></a><a ewd:comment="7" ewd:lineID="39" style="cursor:pointer;"><path d=" M  1487.25,   145.69  L  1487.25,    86.77  " style="stroke:#000000;stroke-width: 5.10 ;&st6;" /></a><a ewd:comment="6" ewd:lineID="40" style="cursor:pointer;"><path d=" M  1631.73,   467.22  L  1631.73,   571.19  " style="stroke:#FFE600;stroke-width: 5.10 ;&st6;" /><path d=" M  1631.73,   467.22  L  1631.73,   571.19  " style="stroke:#FFFFFF;stroke-width: 2.27 ;&st6;" /><path d=" M  1631.73,   467.22  L  1631.73,   571.19  " style="stroke:#000000;stroke-width: 1.13 ;&st6;" /></a><a ewd:comment="6" ewd:lineID="41" style="cursor:pointer;"><path d=" M  1631.73,   452.21  L  1631.73,   368.36  " style="stroke:#FFE600;stroke-width: 5.10 ;&st6;" /><path d=" M  1631.73,   452.21  L  1631.73,   368.36  " style="stroke:#FFFFFF;stroke-width: 2.27 ;&st6;" /><path d=" M  1631.73,   452.21  L  1631.73,   368.36  " style="stroke:#000000;stroke-width: 1.13 ;&st6;" /></a><a ewd:comment="5" ewd:lineID="42" style="cursor:pointer;"><path d=" M  1631.73,   368.36  L  1631.73,   375.72  L  1614.73,   392.72  L  1589.23,   392.72  L  1589.23,   545.69  L  1614.73,   545.69  L  1631.73,   562.69  L  1631.73,   571.19  " style="stroke:#FFE600;stroke-width: 5.10 ;&st6;" /><path d=" M  1631.73,   368.36  L  1631.73,   375.72  L  1614.73,   392.72  L  1589.23,   392.72  L  1589.23,   545.69  L  1614.73,   545.69  L  1631.73,   562.69  L  1631.73,   571.19  " style="stroke:#FFFFFF;stroke-width: 2.27 ;&st6;" /><path d=" M  1631.73,   368.36  L  1631.73,   375.72  L  1614.73,   392.72  L  1589.23,   392.72  L  1589.23,   545.69  L  1614.73,   545.69  L  1631.73,   562.69  L  1631.73,   571.19  " style="stroke:#000000;stroke-width: 1.13 ;&st6;" /></a><a ewd:comment="6" ewd:lineID="43" style="cursor:pointer;"><path d=" M  1631.73,   272.61  L  1631.73,   205.75  " style="stroke:#FFE600;stroke-width: 5.10 ;&st6;" /><path d=" M  1631.73,   272.61  L  1631.73,   205.75  " style="stroke:#FFFFFF;stroke-width: 2.27 ;&st6;" /><path d=" M  1631.73,   272.61  L  1631.73,   205.75  " style="stroke:#000000;stroke-width: 1.13 ;&st6;" /></a><a ewd:comment="6" ewd:lineID="44" style="cursor:pointer;"><path d=" M  1631.73,   190.74  L  1631.73,   112.27  " style="stroke:#FFE600;stroke-width: 5.10 ;&st6;" /><path d=" M  1631.73,   190.74  L  1631.73,   112.27  " style="stroke:#FFFFFF;stroke-width: 2.27 ;&st6;" /><path d=" M  1631.73,   190.74  L  1631.73,   112.27  " style="stroke:#000000;stroke-width: 1.13 ;&st6;" /></a><a ewd:comment="5" ewd:lineID="45" style="cursor:pointer;"><path d=" M  1631.73,   112.27  L  1631.73,   120.77  L  1614.73,   137.76  L  1589.23,   137.76  L  1589.23,   248.24  L  1614.73,   248.24  L  1631.73,   265.24  L  1631.73,   272.61  " style="stroke:#FFE600;stroke-width: 5.10 ;&st6;" /><path d=" M  1631.73,   112.27  L  1631.73,   120.77  L  1614.73,   137.76  L  1589.23,   137.76  L  1589.23,   248.24  L  1614.73,   248.24  L  1631.73,   265.24  L  1631.73,   272.61  " style="stroke:#FFFFFF;stroke-width: 2.27 ;&st6;" /><path d=" M  1631.73,   112.27  L  1631.73,   120.77  L  1614.73,   137.76  L  1589.23,   137.76  L  1589.23,   248.24  L  1614.73,   248.24  L  1631.73,   265.24  L  1631.73,   272.61  " style="stroke:#000000;stroke-width: 1.13 ;&st6;" /></a><a ewd:comment="5" ewd:lineID="46" style="cursor:pointer;"><path d=" M  1674.22,   571.19  L  1674.22,   562.69  L  1691.22,   545.69  L  1716.71,   545.69  L  1716.71,   392.72  L  1691.22,   392.72  L  1674.22,   375.72  L  1674.22,   368.36  " style="stroke:#FFE600;stroke-width: 5.10 ;&st6;" /></a><a ewd:comment="6" ewd:lineID="47" style="cursor:pointer;"><path d=" M  1674.22,   466.94  L  1674.22,   571.19  " style="stroke:#FFE600;stroke-width: 5.10 ;&st6;" /></a><a ewd:comment="6" ewd:lineID="48" style="cursor:pointer;"><path d=" M  1674.22,   452.21  L  1674.22,   368.36  " style="stroke:#FFE600;stroke-width: 5.10 ;&st6;" /></a><a ewd:comment="6" ewd:lineID="49" style="cursor:pointer;"><path d=" M  1674.22,   272.61  L  1674.22,   205.75  " style="stroke:#FFE600;stroke-width: 5.10 ;&st6;" /></a><a ewd:comment="6" ewd:lineID="50" style="cursor:pointer;"><path d=" M  1674.22,   191.02  L  1674.22,   112.27  " style="stroke:#FFE600;stroke-width: 5.10 ;&st6;" /></a><a ewd:comment="5" ewd:lineID="51" style="cursor:pointer;"><path d=" M  1674.22,   112.27  L  1674.22,   120.77  L  1691.22,   137.76  L  1716.71,   137.76  L  1716.71,   248.24  L  1691.22,   248.24  L  1674.22,   265.24  L  1674.22,   272.61  " style="stroke:#FFE600;stroke-width: 5.10 ;&st6;" /></a><a ewd:lineID="52" style="cursor:pointer;"><path d=" M  1810.20,   435.21  L  1810.20,   368.36  " style="stroke:#FFE600;stroke-width: 5.10 ;&st6;" /><path d=" M  1810.20,   435.21  L  1810.20,   368.36  " style="stroke:#FFFFFF;stroke-width: 2.27 ;&st6;" /><path d=" M  1810.20,   435.21  L  1810.20,   368.36  " style="stroke:#000000;stroke-width: 1.13 ;&st6;" /></a><a ewd:lineID="53" style="cursor:pointer;"><path d=" M  1852.69,   435.21  L  1852.69,   368.36  " style="stroke:#FFE600;stroke-width: 5.10 ;&st6;" /></a><a ewd:lineID="54" style="cursor:pointer;"><path d=" M  1937.68,   435.21  L  1937.68,   368.36  " style="stroke:#FFE600;stroke-width: 5.10 ;&st6;" /><path d=" M  1937.68,   435.21  L  1937.68,   368.36  " style="stroke:#FFFFFF;stroke-width: 2.27 ;&st6;" /><path d=" M  1937.68,   435.21  L  1937.68,   368.36  " style="stroke:#000000;stroke-width: 1.13 ;&st6;" /></a><a ewd:lineID="55" style="cursor:pointer;"><path d=" M  1980.17,   435.21  L  1980.17,   368.36  " style="stroke:#FFE600;stroke-width: 5.10 ;&st6;" /></a><a ewd:lineID="56" style="cursor:pointer;"><path d=" M  2192.63,   622.18  L  2192.63,   568.92  " style="stroke:#FF0000;stroke-width: 5.10 ;&st6;" /></a><a ewd:lineID="57" style="cursor:pointer;"><path d=" M  2192.63,   554.19  L  2192.63,   511.70  " style="stroke:#FF0000;stroke-width: 5.10 ;&st6;" /></a><a ewd:lineID="58" style="cursor:pointer;"> d=" M  2226.63,   622.18  L  2226.63,   569.21 
	
		<path d=" M  2226.63,   622.18  L  2226.63,   569.21  " style="stroke:#000000;stroke-width: 5.10 ;&st6;" /><path d=" M  2226.63,   622.18  L  2226.63,   569.21  " style="stroke:#FFFFFF;stroke-width: 4.53 ;&st6;" /></a><a ewd:lineID="59" style="cursor:pointer;"> d=" M  2226.63,   554.19  L  2226.63,   511.70 
	
		<path d=" M  2226.63,   554.19  L  2226.63,   511.70  " style="stroke:#000000;stroke-width: 5.10 ;&st6;" /><path d=" M  2226.63,   554.19  L  2226.63,   511.70  " style="stroke:#FFFFFF;stroke-width: 4.53 ;&st6;" /></a><a ewd:lineID="60" style="cursor:pointer;"><path d=" M  2286.12,   511.70  L  2286.12,   613.12  " style="stroke:#000000;stroke-width: 5.10 ;&st6;" /></a><a ewd:lineID="61" style="cursor:pointer;"><path d=" M  2286.12,   401.22  L  2286.12,   486.20  " style="stroke:#00A0C6;stroke-width: 5.10 ;&st6;" /></a><a ewd:lineID="62" style="cursor:pointer;"><path d=" M  2286.12,   316.23  L  2286.12,   386.49  " style="stroke:#00A0C6;stroke-width: 5.10 ;&st6;" /></a><a ewd:lineID="63" style="cursor:pointer;"> d=" M  2320.11,   511.70  L  2320.11,   613.12 
	
		<path d=" M  2320.11,   511.70  L  2320.11,   613.12  " style="stroke:#000000;stroke-width: 5.10 ;&st6;" /><path d=" M  2320.11,   511.70  L  2320.11,   613.12  " style="stroke:#FFFFFF;stroke-width: 4.53 ;&st6;" /></a><a ewd:lineID="64" style="cursor:pointer;"> d=" M  2320.11,   401.22  L  2320.11,   486.20 
	
		<path d=" M  2320.11,   401.22  L  2320.11,   486.20  " style="stroke:#000000;stroke-width: 5.10 ;&st6;" /><path d=" M  2320.11,   401.22  L  2320.11,   486.20  " style="stroke:#FFFFFF;stroke-width: 4.53 ;&st6;" /></a><a ewd:lineID="65" style="cursor:pointer;"> d=" M  2320.11,   316.23  L  2320.11,   386.20 
	
		<path d=" M  2320.11,   316.23  L  2320.11,   386.20  " style="stroke:#000000;stroke-width: 5.10 ;&st6;" /><path d=" M  2320.11,   316.23  L  2320.11,   386.20  " style="stroke:#FFFFFF;stroke-width: 4.53 ;&st6;" /></a><a ewd:lineID="66" style="cursor:pointer;"><path d=" M  2362.61,   290.74  L  2362.61,   112.27  L  1980.17,   112.27  L  1980.17,   281.67  " style="stroke:#56077D;stroke-width: 5.10 ;&st6;" /></a><a ewd:lineID="67" style="cursor:pointer;"> d=" M  2430.59,   290.74  L  2430.59,    95.27  L  1946.17,    95.27  L  1946.17,   281.67 
	
		<path d=" M  2430.59,   290.74  L  2430.59,    95.27  L  1946.17,    95.27  L  1946.17,   281.67  " style="stroke:#000000;stroke-width: 5.10 ;&st6;" /><path d=" M  2430.59,   290.74  L  2430.59,    95.27  L  1946.17,    95.27  L  1946.17,   281.67  " style="stroke:#FFFFFF;stroke-width: 4.53 ;&st6;" /></a><a ewd:comment="2" ewd:lineID="68" style="cursor:pointer;"> d=" M  2753.54,   512.27  L  2753.54,   596.69  L  2456.09,   596.69  L  2456.09,   333.23  L  2439.09,   333.23  L  2430.59,   324.73  L  2430.59,   316.23 
	
		<path d=" M  2753.54,   512.27  L  2753.54,   596.69  L  2456.09,   596.69  L  2456.09,   333.23  L  2439.09,   333.23  L  2430.59,   324.73  L  2430.59,   316.23  " style="stroke:#000000;stroke-width: 5.10 ;&st6;" /><path d=" M  2753.54,   512.27  L  2753.54,   596.69  L  2456.09,   596.69  L  2456.09,   333.23  L  2439.09,   333.23  L  2430.59,   324.73  L  2430.59,   316.23  " style="stroke:#FFFFFF;stroke-width: 4.53 ;&st6;" /></a><a ewd:comment="2" ewd:lineID="69" style="cursor:pointer;"> d=" M  2753.54,   239.18  L  2753.54,   205.75 
	
		<path d=" M  2753.54,   239.18  L  2753.54,   205.75  " style="stroke:#000000;stroke-width: 5.10 ;&st6;" /><path d=" M  2753.54,   239.18  L  2753.54,   205.75  " style="stroke:#FFFFFF;stroke-width: 4.53 ;&st6;" /></a><a ewd:comment="2" ewd:lineID="70" style="cursor:pointer;"> d=" M  2753.54,   103.77  L  2753.54,   154.76 
	
		<path d=" M  2753.54,   103.77  L  2753.54,   154.76  " style="stroke:#000000;stroke-width: 5.10 ;&st6;" /><path d=" M  2753.54,   103.77  L  2753.54,   154.76  " style="stroke:#FFFFFF;stroke-width: 4.53 ;&st6;" /></a><a ewd:comment="2" ewd:lineID="71" style="cursor:pointer;"><path d=" M  2821.53,   512.27  L  2821.53,   613.68  L  2388.10,   613.68  L  2388.10,   333.23  L  2371.10,   333.23  L  2362.61,   324.73  L  2362.61,   316.23  " style="stroke:#7FC97F;stroke-width: 5.10 ;&st6;" /></a><a ewd:comment="2" ewd:lineID="72" style="cursor:pointer;"><path d=" M  2830.03,   103.77  L  2830.03,   239.18  " style="stroke:#F668B2;stroke-width: 5.10 ;&st6;" /></a><a ewd:comment="2" ewd:lineID="73" style="cursor:pointer;"><path d=" M  2872.52,   512.27  L  2872.52,   681.67  " style="stroke:#992903;stroke-width: 5.10 ;&st6;" /></a><a ewd:comment="1" ewd:lineID="74" style="cursor:pointer;"> d=" M  3229.46,   205.75  L  3229.46,   290.17 
	
		<path d=" M  3229.46,   205.75  L  3229.46,   290.17  " style="stroke:#000000;stroke-width: 5.10 ;&st6;" /><path d=" M  3229.46,   205.75  L  3229.46,   290.17  " style="stroke:#FFFFFF;stroke-width: 4.53 ;&st6;" /></a><a ewd:comment="1" ewd:lineID="75" style="cursor:pointer;"> d=" M  3229.46,   103.77  L  3229.46,   154.76 
	
		<path d=" M  3229.46,   103.77  L  3229.46,   154.76  " style="stroke:#000000;stroke-width: 5.10 ;&st6;" /><path d=" M  3229.46,   103.77  L  3229.46,   154.76  " style="stroke:#FFFFFF;stroke-width: 4.53 ;&st6;" /></a><a ewd:comment="1" ewd:lineID="76" style="cursor:pointer;"> d=" M  3254.96,   520.76  L  3254.96,   630.68  L  2430.59,   630.68  L  2430.59,   316.23 
	
		<path d=" M  3254.96,   520.76  L  3254.96,   630.68  L  2430.59,   630.68  L  2430.59,   316.23  " style="stroke:#000000;stroke-width: 5.10 ;&st6;" /><path d=" M  3254.96,   520.76  L  3254.96,   630.68  L  2430.59,   630.68  L  2430.59,   316.23  " style="stroke:#FFFFFF;stroke-width: 4.53 ;&st6;" /></a><a ewd:comment="1" ewd:lineID="77" style="cursor:pointer;"><path d=" M  3288.95,   520.76  L  3288.95,   647.68  L  2362.61,   647.68  L  2362.61,   316.23  " style="stroke:#7FC97F;stroke-width: 5.10 ;&st6;" /></a><a ewd:comment="1" ewd:lineID="78" style="cursor:pointer;"><path d=" M  3297.45,   290.17  L  3297.45,   103.77  " style="stroke:#F668B2;stroke-width: 5.10 ;&st6;" /></a><a ewd:comment="1" ewd:lineID="79" style="cursor:pointer;"><path d=" M  3339.94,   520.76  L  3339.94,   681.67  " style="stroke:#992903;stroke-width: 5.10 ;&st6;" /></a><a ewd:code="Le1" ewd:figID="36" ewd:figtype="w2w" ewd:pinNo="1" style="cursor:pointer;"><path d=" M   577.90,   197.25  L   560.91,   197.25  L   560.91,   205.75  L   577.90,   205.75  L   577.90,   197.25 " style="&st2;" /><text style="&st8;" transform="matrix(&st16;  564.7  203.62 )"><tspan style="font-size:6px;font-family:'NSimSun';" x="0" y="0">Le1</tspan></text></a><a ewd:code="Le1" ewd:figID="37" ewd:figtype="w2w" ewd:pinNo="2" style="cursor:pointer;"><path d=" M   611.90,   197.25  L   594.90,   197.25  L   594.90,   205.75  L   611.90,   205.75  L   611.90,   197.25 " style="&st2;" /><text style="&st8;" transform="matrix(&st16;  598.7  203.62 )"><tspan style="font-size:6px;font-family:'NSimSun';" x="0" y="0">Le1</tspan></text></a><a ewd:code="Lf1" ewd:figID="38" ewd:figtype="w2w" ewd:pinNo="1" style="cursor:pointer;"><path d=" M   696.88,   197.25  L   679.89,   197.25  L   679.89,   205.75  L   696.88,   205.75  L   696.88,   197.25 " style="&st2;" /><text style="&st8;" transform="matrix(&st16;  684.36  203.62 )"><tspan style="font-size:6px;font-family:'NSimSun';" x="0" y="0">Lf1</tspan></text></a><a ewd:code="Lf1" ewd:figID="39" ewd:figtype="w2w" ewd:pinNo="2" style="cursor:pointer;"><path d=" M   730.88,   197.25  L   713.88,   197.25  L   713.88,   205.75  L   730.88,   205.75  L   730.88,   197.25 " style="&st2;" /><text style="&st8;" transform="matrix(&st16;  718.35  203.62 )"><tspan style="font-size:6px;font-family:'NSimSun';" x="0" y="0">Lf1</tspan></text></a><a ewd:code="Ed1" ewd:figID="40" ewd:figtype="w2w" ewd:pinNo="1" style="cursor:pointer;"><path d=" M   900.85,   452.21  L   883.85,   452.21  L   883.85,   460.71  L   900.85,   460.71  L   900.85,   452.21 " style="&st2;" /><text style="&st8;" transform="matrix(&st16;  887.54  458.58 )"><tspan style="font-size:6px;font-family:'NSimSun';" x="0" y="0">Ed1</tspan></text></a><a ewd:code="Ed1" ewd:figID="41" ewd:figtype="w2w" ewd:pinNo="2" style="cursor:pointer;"><path d=" M   943.34,   452.21  L   926.35,   452.21  L   926.35,   460.71  L   943.34,   460.71  L   943.34,   452.21 " style="&st2;" /><text style="&st8;" transform="matrix(&st16;  930.03  458.58 )"><tspan style="font-size:6px;font-family:'NSimSun';" x="0" y="0">Ed1</tspan></text></a><a ewd:code="AE7" ewd:figID="42" ewd:figtype="w2w" ewd:pinNo="4" style="cursor:pointer;"><path d=" M  1206.80,   452.21  L  1189.80,   452.21  L  1189.80,   460.71  L  1206.80,   460.71  L  1206.80,   452.21 " style="&st2;" /><text style="&st8;" transform="matrix(&st16;  1192.99  458.58 )"><tspan style="font-size:6px;font-family:'NSimSun';" x="0" y="0">AE7</tspan></text></a><a ewd:code="AE7" ewd:figID="43" ewd:figtype="w2w" ewd:pinNo="3" style="cursor:pointer;"><path d=" M  1249.29,   452.21  L  1232.29,   452.21  L  1232.29,   460.71  L  1249.29,   460.71  L  1249.29,   452.21 " style="&st2;" /><text style="&st8;" transform="matrix(&st16;  1235.49  458.58 )"><tspan style="font-size:6px;font-family:'NSimSun';" x="0" y="0">AE7</tspan></text></a><a ewd:code="AE7" ewd:figID="44" ewd:figtype="w2w" ewd:pinNo="2" style="cursor:pointer;"><path d=" M  1334.28,   452.21  L  1317.28,   452.21  L  1317.28,   460.71  L  1334.28,   460.71  L  1334.28,   452.21 " style="&st2;" /><text style="&st8;" transform="matrix(&st16;  1320.47  458.58 )"><tspan style="font-size:6px;font-family:'NSimSun';" x="0" y="0">AE7</tspan></text></a><a ewd:code="AE7" ewd:figID="45" ewd:figtype="w2w" ewd:pinNo="1" style="cursor:pointer;"><path d=" M  1376.77,   452.21  L  1359.77,   452.21  L  1359.77,   460.71  L  1376.77,   460.71  L  1376.77,   452.21 " style="&st2;" /><text style="&st8;" transform="matrix(&st16;  1362.97  458.58 )"><tspan style="font-size:6px;font-family:'NSimSun';" x="0" y="0">AE7</tspan></text></a><a ewd:code="EL7" ewd:figID="46" ewd:figtype="w2w" ewd:pinNo="2" style="cursor:pointer;"><path d=" M  1640.23,   452.21  L  1623.23,   452.21  L  1623.23,   460.71  L  1640.23,   460.71  L  1640.23,   452.21 " style="&st2;" /><text style="&st8;" transform="matrix(&st16;  1626.65  458.58 )"><tspan style="font-size:6px;font-family:'NSimSun';" x="0" y="0">EL7</tspan></text></a><a ewd:code="EL8" ewd:figID="47" ewd:figtype="w2w" ewd:pinNo="2" style="cursor:pointer;"><path d=" M  1640.23,   197.25  L  1623.23,   197.25  L  1623.23,   205.75  L  1640.23,   205.75  L  1640.23,   197.25 " style="&st2;" /><text style="&st8;" transform="matrix(&st16;  1626.65  203.62 )"><tspan style="font-size:6px;font-family:'NSimSun';" x="0" y="0">EL8</tspan></text></a><a ewd:code="EL7" ewd:figID="48" ewd:figtype="w2w" ewd:pinNo="1" style="cursor:pointer;"><path d=" M  1682.72,   452.21  L  1665.72,   452.21  L  1665.72,   460.71  L  1682.72,   460.71  L  1682.72,   452.21 " style="&st2;" /><text style="&st8;" transform="matrix(&st16;  1669.14  458.58 )"><tspan style="font-size:6px;font-family:'NSimSun';" x="0" y="0">EL7</tspan></text></a><a ewd:code="EL8" ewd:figID="49" ewd:figtype="w2w" ewd:pinNo="1" style="cursor:pointer;"><path d=" M  1682.72,   197.25  L  1665.72,   197.25  L  1665.72,   205.75  L  1682.72,   205.75  L  1682.72,   197.25 " style="&st2;" /><text style="&st8;" transform="matrix(&st16;  1669.14  203.62 )"><tspan style="font-size:6px;font-family:'NSimSun';" x="0" y="0">EL8</tspan></text></a><a ewd:code="AE3" ewd:figID="50" ewd:figtype="w2w" ewd:pinNo="8" style="cursor:pointer;"><path d=" M  2201.13,   554.19  L  2184.14,   554.19  L  2184.14,   562.69  L  2201.13,   562.69  L  2201.13,   554.19 " style="&st2;" /><text style="&st8;" transform="matrix(&st16;  2187.33  560.56 )"><tspan style="font-size:6px;font-family:'NSimSun';" x="0" y="0">AE3</tspan></text></a><a ewd:code="AE3" ewd:figID="51" ewd:figtype="w2w" ewd:pinNo="9" style="cursor:pointer;"><path d=" M  2235.13,   554.19  L  2218.13,   554.19  L  2218.13,   562.69  L  2235.13,   562.69  L  2235.13,   554.19 " style="&st2;" /><text style="&st8;" transform="matrix(&st16;  2221.32  560.56 )"><tspan style="font-size:6px;font-family:'NSimSun';" x="0" y="0">AE3</tspan></text></a><a ewd:code="AE4" ewd:figID="52" ewd:figtype="w2w" ewd:pinNo="4" style="cursor:pointer;"><path d=" M  2294.62,   392.72  L  2277.62,   392.72  L  2277.62,   401.22  L  2294.62,   401.22  L  2294.62,   392.72 " style="&st2;" /><text style="&st8;" transform="matrix(&st16;  2280.81  399.09 )"><tspan style="font-size:6px;font-family:'NSimSun';" x="0" y="0">AE4</tspan></text></a><a ewd:code="AE4" ewd:figID="53" ewd:figtype="w2w" ewd:pinNo="3" style="cursor:pointer;"><path d=" M  2328.61,   392.72  L  2311.61,   392.72  L  2311.61,   401.22  L  2328.61,   401.22  L  2328.61,   392.72 " style="&st2;" /><text style="&st8;" transform="matrix(&st16;  2314.81  399.09 )"><tspan style="font-size:6px;font-family:'NSimSun';" x="0" y="0">AE4</tspan></text></a><a ewd:code="EB" ewd:figID="54" ewd:figtype="gp" style="cursor:pointer;"><path d=" M   558.78,   681.67  L   580.03,   681.67  L   569.40,   697.25  L   558.78,   681.67 " style="&st2;" /><text style="&st8;" transform="matrix(&st16;  565.72  689.46 )"><tspan style="font-size:6px;font-family:'NSimSun';" x="0" y="0">EB</tspan></text></a><a ewd:code="EA" ewd:figID="55" ewd:figtype="gp" style="cursor:pointer;"><path d=" M   626.77,   681.67  L   648.02,   681.67  L   637.39,   697.25  L   626.77,   681.67 " style="&st2;" /><text style="&st8;" transform="matrix(&st16;  633.59  689.46 )"><tspan style="font-size:6px;font-family:'NSimSun';" x="0" y="0">EA</tspan></text></a><a ewd:code="ED" ewd:figID="56" ewd:figtype="gp" style="cursor:pointer;"><path d=" M  2861.90,   681.67  L  2883.14,   681.67  L  2872.52,   697.25  L  2861.90,   681.67 " style="&st2;" /><text style="&st8;" transform="matrix(&st16;  2868.64  689.46 )"><tspan style="font-size:6px;font-family:'NSimSun';" x="0" y="0">ED</tspan></text></a><a ewd:code="ED" ewd:figID="57" ewd:figtype="gp" style="cursor:pointer;"><path d=" M  3329.32,   681.67  L  3350.57,   681.67  L  3339.94,   697.25  L  3329.32,   681.67 " style="&st2;" /><text style="&st8;" transform="matrix(&st16;  3336.07  689.46 )"><tspan style="font-size:6px;font-family:'NSimSun';" x="0" y="0">ED</tspan></text></a></g></svg>