<?xml version="1.0" encoding="utf-8"?>
<!DOCTYPE svg PUBLIC "-//W3C//DTD SVG 1.0//EN" "http://www.w3.org/TR/2001/REC-SVG-20010904/DTD/svg10.dtd"[
	<!ENTITY ns_flows "http://ns.adobe.com/Flows/1.0/">
	<!ENTITY ns_svg "http://www.w3.org/2000/svg">
	<!ENTITY ns_xlink "http://www.w3.org/1999/xlink">
	<!ENTITY st0 "font-size:7px;font-family:'NSimSun';adobe-font-script:japanese;">
	<!ENTITY st1 "font-size:6px;font-family:'NSimSun';">
	<!-- White fill  -->
	<!ENTITY st2 "fill:#FFFFFF;stroke:#000000; stroke-width:1.41;stroke-linecap:round;stroke-linejoin:round;">
	<!-- Yellow fill  -->
	<!ENTITY st3 "fill:#FFFFCC;stroke:#FFFFCC; stroke-width:0.1;stroke-linecap:round;stroke-linejoin:round;">
	<!-- Gray fill  -->
	<!ENTITY st4 "fill:#CCCCCC;stroke:#CCCCCC; stroke-width:0.1;stroke-linecap:round;stroke-linejoin:round;">
	<!-- Light-blue fill -->
	<!ENTITY st5 "fill:#CCECF4;stroke:#000000; stroke-width:1.133;stroke-linecap:round;stroke-linejoin:round;">
	<!ENTITY st6 "fill:none;stroke-linecap:butt; stroke-linejoin:round;">
	<!ENTITY st7 "fill:none;stroke:#000000;stroke-linecap:round;stroke-linejoin:round;">
	<!ENTITY st8 "enable-background:new    ;">
	<!-- Black fill -->
	<!ENTITY st9 "fill:#000000;stroke:#000000; stroke-linecap:round;stroke-linejoin:round;">
	<!-- SRS note   -->
	<!ENTITY st10 "font-size:9px;font-family:'NSimSun';">
	<!ENTITY st11 "font-size:9px;font-family:'NSimSun';">
	<!ENTITY st12 "font-size:6px;font-family:'NSimSun';">
	<!ENTITY st13 "fill:none;stroke:#ff0000;stroke-linecap:round;stroke-linejoin:round;">
	<!-- Yellow fill  -->
	<!ENTITY st14 "fill:#FFFF00;stroke:#FFFF00; stroke-width:0.1;stroke-linecap:round;stroke-linejoin:round;">
	<!ENTITY st15 "font-size:6px;font-family:'NSimSun';adobe-font-script:japanese;">
	<!ENTITY st16 "1.00 0.00 0.00 1.00">
	<!ENTITY st17 "0.00 -1.00 1.00 0.00">
	<!ENTITY st18 "font-size:6px;font-family:'NSimSun';">
	<!ENTITY st19 "font-size:9px;font-family:'NSimSun';">
	<!ENTITY st20 "font-size:6px;font-family:'NSimSun';adobe-font-script:japanese;">
	<!ENTITY st21 "font-size:7px;font-family:'NSimSun';adobe-font-script:japanese;">
	<!ATTLIST svg
		xmlns:ewd CDATA #FIXED "http://shcl.co.jp/ewd"
		xmlns:a CDATA #FIXED "http://ns.adobe.com/AdobeSVGViewerExtensions/3.0/"
		ewd:ver CDATA #IMPLIED
	>
	<!ATTLIST a
		ewd:lineID CDATA #IMPLIED
		ewd:groupID CDATA #IMPLIED
		ewd:figtype CDATA #IMPLIED
		ewd:code CDATA #IMPLIED
		ewd:figID CDATA #IMPLIED
		ewd:pinNo CDATA #IMPLIED
		ewd:comment CDATA #IMPLIED >
	<!ATTLIST g
		ewd:lineID CDATA #IMPLIED
		ewd:groupID CDATA #IMPLIED
		ewd:figtype CDATA #IMPLIED
		ewd:code CDATA #IMPLIED
		ewd:figID CDATA #IMPLIED
		ewd:pinNo CDATA #IMPLIED
		ewd:comment CDATA #IMPLIED >
	<!ATTLIST text
		ewd:textID CDATA #IMPLIED
		ewd:horAlign CDATA #IMPLIED >
	<!ATTLIST title
		ewd:textID CDATA #IMPLIED >
]>
<!-- Generator: Shintec Hozumi YS   -->
<svg onload="call_execInitLoadProc_svg('system')" style="overflow:visible;  enable-background:new 0 0 980.709 710.000" viewBox="0 0 984.831 710.000" height="710.000" width="984.831" xml:space="preserve" ewd:ver="2.1.2.6F" xmlns="&ns_svg;" xmlns:ewd="http://shcl.co.jp/ewd" xmlns:a="http://ns.adobe.com/AdobeSVGViewerExtensions/3.0/" xmlns:xlink="&ns_xlink;">
<text style="font-size:6px;font-family:'NSimSun';" transform="matrix(&st17;  599.7  371.01 )">LG</text><text style="font-size:6px;font-family:'NSimSun';" transform="matrix(&st17;  599.7  565.16 )">W</text><text style="font-size:6px;font-family:'NSimSun';" transform="matrix(&st17;  611.04  570.47 )">(CVT)</text><text style="font-size:6px;font-family:'NSimSun';" transform="matrix(&st16;  539.63  142.56 )">LG</text><text style="font-size:6px;font-family:'NSimSun';" transform="matrix(&st17;  662.03  374.81 )">(M/T)</text><text style="font-size:6px;font-family:'NSimSun';" transform="matrix(&st17;  948.15  259.21 )">W</text><text style="font-size:6px;font-family:'NSimSun';" transform="matrix(&st17;  650.7  371.01 )">LG</text><text style="font-size:6px;font-family:'NSimSun';" transform="matrix(&st17;  959.48  264.33 )">(M/T)</text><text style="font-size:6px;font-family:'NSimSun';" transform="matrix(&st17;  696.02  375.0 )">(CVT)</text><text style="font-size:6px;font-family:'NSimSun';" transform="matrix(&st17;  959.48  374.81 )">(M/T)</text><text style="font-size:6px;font-family:'NSimSun';" transform="matrix(&st17;  948.15  371.01 )">LG</text><text style="font-size:6px;font-family:'NSimSun';" transform="matrix(&st17;  899.99  264.52 )">(CVT)</text><text style="font-size:6px;font-family:'NSimSun';" transform="matrix(&st17;  899.99  375.0 )">(CVT)</text><text style="font-size:6px;font-family:'NSimSun';" transform="matrix(&st17;  696.02  451.49 )">(CVT)</text><text style="font-size:6px;font-family:'NSimSun';" transform="matrix(&st17;  806.5  451.49 )">(CVT)</text><text style="font-size:6px;font-family:'NSimSun';" transform="matrix(&st17;  806.5  375.0 )">(CVT)</text><text style="font-size:6px;font-family:'NSimSun';" transform="matrix(&st17;  888.66  369.69 )">W</text><text style="font-size:6px;font-family:'NSimSun';" transform="matrix(&st17;  888.66  259.21 )">W</text><text style="font-size:6px;font-family:'NSimSun';" transform="matrix(&st17;  948.15  165.72 )">W</text><text style="font-size:6px;font-family:'NSimSun';" transform="matrix(&st17;  684.69  447.49 )">LG</text><text style="font-size:6px;font-family:'NSimSun';" transform="matrix(&st17;  684.69  371.01 )">LG</text><text style="font-size:6px;font-family:'NSimSun';" transform="matrix(&st17;  650.7  260.53 )">LG</text><text style="font-size:6px;font-family:'NSimSun';" transform="matrix(&st17;  795.17  369.69 )">W</text><text style="font-size:6px;font-family:'NSimSun';" transform="matrix(&st17;  795.17  446.18 )">W</text><text style="font-size:6px;font-family:'NSimSun';" transform="matrix(&st16;  737.3  193.56 )">L</text><text style="font-size:6px;font-family:'NSimSun';" transform="matrix(&st17;  701.69  130.84 )">L</text><path style="stroke-width: 1.42 ;&st7;  " d=" M   943.34,   205.75  L   951.84,   205.75  " /><path style="stroke-width: 1.42 ;&st7;  " d=" M   679.89,   409.72  L   688.38,   409.72  " /><path style="stroke-width: 1.42 ;&st7;  " d=" M   790.37,   409.72  L   798.87,   409.72  " /><path style="stroke-width: 1.42 ;&st7;  " d=" M   713.88,   163.26  L   705.38,   163.26  " /><g ewd:figtype="rb" ewd:figID="1" ewd:code="FUSE2"><text style="font-size:6px;font-family:'NSimSun';" transform="matrix(&st16;  697.34  32.08 )">(BAT)</text><text style="font-size:6px;font-family:'NSimSun';" transform="matrix(&st16;  699.2  86.47 )">2</text><text style="font-size:6px;font-family:'NSimSun';" transform="matrix(&st16;  703.58  101.49 )">1</text><text style="font-size:6px;font-family:'NSimSun';" transform="matrix(&st16;  721.81  56.17 )">7.5A <tspan x="0 " dy="6.0">AM2</tspan></text><path style="stroke-width: 0.28 ;&st9;  " d=" M   705.38,    90.37  L   702.55,    87.54  L   702.55,    91.79  L   705.38,    94.62  L   708.21,    91.79  L   708.21,    87.54  L   705.38,    90.37  " /><path style="stroke-width: 1.42 ;&st7;   " d=" M   711.76,    99.52  C   711.76     97.17    709.85     95.27    707.51     95.27  " /><path style="stroke-width: 1.42 ;&st7;   " d=" M   707.51,   103.77  C   709.85    103.77    711.76    101.87    711.76     99.52  " /><path style="stroke-width: 1.42 ;&st7;   " d=" M   699.01,    99.52  C   699.01    101.87    700.91    103.77    703.26    103.77  " /><path style="stroke-width: 1.42 ;&st7;   " d=" M   703.26,    95.27  C   700.91     95.27    699.01     97.17    699.01     99.52  " /><path style="stroke-width: 1.42 ;&st7;  " d=" M   707.51,   103.77  L   703.26,   103.77  " /><path style="stroke-width: 1.42 ;&st7;  " d=" M   707.51,    95.27  L   703.26,    95.27  " /><path style="stroke-width: 0.85 ;&st7;  " d=" M   705.38,    69.77  L   705.38,    95.27  " /><path style="stroke-width: 0.85 ;&st7;   " d=" M   706.80,    45.69  C   706.80     44.91    706.16     44.28    705.38     44.28  " /><path style="stroke-width: 0.85 ;&st7;   " d=" M   705.38,    44.28  C   704.60     44.28    703.97     44.91    703.97     45.69  " /><path style="stroke-width: 0.85 ;&st7;   " d=" M   703.97,    45.69  C   703.97     46.48    704.60     47.11    705.38     47.11  " /><path style="stroke-width: 0.85 ;&st7;   " d=" M   705.38,    47.11  C   706.16     47.11    706.80     46.48    706.80     45.69  " /><path style="stroke-width: 1.42 ;&st7;  " d=" M   692.63,    35.78  L   692.63,    78.27  L   718.13,    78.27  L   718.13,    35.78  L   692.63,    35.78  " /><path style="stroke-width: 0.85 ;&st7;   " d=" M   706.80,    68.36  C   706.80     67.57    706.16     66.94    705.38     66.94  " /><path style="stroke-width: 0.85 ;&st7;   " d=" M   705.38,    66.94  C   704.60     66.94    703.97     67.57    703.97     68.36  " /><path style="stroke-width: 0.85 ;&st7;   " d=" M   703.97,    68.36  C   703.97     69.14    704.60     69.77    705.38     69.77  " /><path style="stroke-width: 0.85 ;&st7;   " d=" M   705.38,    69.77  C   706.16     69.77    706.80     69.14    706.80     68.36  " /><path style="stroke-width: 1.42 ;&st7;   " d=" M   705.38,    66.94  C   708.12     65.33    709.03     61.80    707.42     59.06  " /><path style="stroke-width: 1.42 ;&st7;   " d=" M   707.42,    59.06  C   706.90     58.18    706.26     57.55    705.38     57.03  " /><path style="stroke-width: 1.42 ;&st7;   " d=" M   705.38,    47.11  C   702.64     48.72    701.73     52.25    703.35     54.99  " /><path style="stroke-width: 1.42 ;&st7;   " d=" M   703.35,    54.99  C   703.86     55.87    704.50     56.51    705.38     57.03  " /></g><g ewd:figtype="conn" ewd:figID="2" ewd:code="E9"><text style="font-size:6px;font-family:'NSimSun';" transform="matrix(&st16;  792.24  108.58 )">AM2</text><text style="font-size:6px;font-family:'NSimSun';" transform="matrix(&st16;  838.89  108.58 )">IG2</text><text style="font-size:6px;font-family:'NSimSun';" transform="matrix(&st16;  838.11  125.57 )">ST2</text><path style="stroke-width: 0.85 ;&st7;  " d=" M   832.86,   122.18  L   832.86,   129.26  L   849.86,   129.26  " /><path style="stroke-width: 1.42 ;&st7;  " d=" M   790.37,   146.26  L   849.86,   146.26  L   849.86,    78.27  L   790.37,    78.27  L   790.37,   146.26  " /><path style="stroke-width: 1.42 ;&st7;  " d=" M   818.43,    89.75  L   808.59,   111.56  L   825.30,    94.43  " /><path style="stroke-width: 0.85 ;&st7;   " d=" M   808.78,   112.27  C   808.78    111.48    808.15    110.85    807.37    110.85  " /><path style="stroke-width: 0.85 ;&st7;   " d=" M   807.37,   110.85  C   806.58    110.85    805.95    111.48    805.95    112.27  " /><path style="stroke-width: 0.85 ;&st7;   " d=" M   805.95,   112.27  C   805.95    113.05    806.58    113.68    807.37    113.68  " /><path style="stroke-width: 0.85 ;&st7;   " d=" M   807.37,   113.68  C   808.15    113.68    808.78    113.05    808.78    112.27  " /><path style="stroke-width: 0.85 ;&st7;   " d=" M   837.11,   112.27  C   837.11    111.48    836.48    110.85    835.69    110.85  " /><path style="stroke-width: 0.85 ;&st7;   " d=" M   835.69,   110.85  C   834.91    110.85    834.28    111.48    834.28    112.27  " /><path style="stroke-width: 0.85 ;&st7;   " d=" M   834.28,   112.27  C   834.28    113.05    834.91    113.68    835.69    113.68  " /><path style="stroke-width: 0.85 ;&st7;   " d=" M   835.69,   113.68  C   836.48    113.68    837.11    113.05    837.11    112.27  " /><path style="stroke-width: 0.85 ;&st7;   " d=" M   834.28,   120.77  C   834.28    119.98    833.64    119.35    832.86    119.35  " /><path style="stroke-width: 0.85 ;&st7;   " d=" M   832.86,   119.35  C   832.08    119.35    831.44    119.98    831.44    120.77  " /><path style="stroke-width: 0.85 ;&st7;   " d=" M   831.44,   120.77  C   831.44    121.55    832.08    122.18    832.86    122.18  " /><path style="stroke-width: 0.85 ;&st7;   " d=" M   832.86,   122.18  C   833.64    122.18    834.28    121.55    834.28    120.77  " /><path style="stroke-width: 1.42 ;&st7;   " d=" M   825.30,    94.43  C   824.31     91.44    821.56     89.57    818.43     89.75  " /><path style="stroke-width: 0.85 ;&st7;  " d=" M   805.95,   112.27  L   790.37,   112.27  " /><path style="stroke-width: 0.85 ;&st7;  " d=" M   849.86,   112.27  L   837.11,   112.27  " /><text style="font-size:6px;font-family:'NSimSun';" transform="matrix(&st16;  784.18  108.58 )">4</text><text style="font-size:6px;font-family:'NSimSun';" transform="matrix(&st16;  852.44  125.57 )">2</text><g ewd:figtype="title"><text style="font-size:6px;font-family:'NSimSun';" transform="matrix(&st16;  786.96  74.29 )" ewd:textID="3">点火或起动开关总成</text><text style="font-size:6px;font-family:'NSimSun';" transform="matrix(&st16;  786.96  67.19 )">E9</text></g></g><g ewd:figtype="conn" ewd:figID="3" ewd:code="A5"><path style="stroke-width: 1.42 ;&st7;  " d=" M   960.34,   341.73  L   960.34,   307.73  L   943.34,   307.73  L   943.34,   341.73  L   960.34,   341.73  " /><path style="stroke-width: 0.85 ;&st7;   " d=" M   953.26,   313.40  C   953.26    312.62    952.62    311.98    951.84    311.98  " /><path style="stroke-width: 0.85 ;&st7;   " d=" M   951.84,   311.98  C   951.06    311.98    950.42    312.62    950.42    313.40  " /><path style="stroke-width: 0.85 ;&st7;   " d=" M   950.42,   313.40  C   950.42    314.18    951.06    314.82    951.84    314.82  " /><path style="stroke-width: 0.85 ;&st7;   " d=" M   951.84,   314.82  C   952.62    314.82    953.26    314.18    953.26    313.40  " /><path style="stroke-width: 0.85 ;&st7;   " d=" M   953.26,   336.06  C   953.26    335.28    952.62    334.65    951.84    334.65  " /><path style="stroke-width: 0.85 ;&st7;   " d=" M   951.84,   334.65  C   951.06    334.65    950.42    335.28    950.42    336.06  " /><path style="stroke-width: 0.85 ;&st7;   " d=" M   950.42,   336.06  C   950.42    336.84    951.06    337.48    951.84    337.48  " /><path style="stroke-width: 0.85 ;&st7;   " d=" M   951.84,   337.48  C   952.62    337.48    953.26    336.84    953.26    336.06  " /><path style="stroke-width: 0.85 ;&st7;  " d=" M   951.84,   311.98  L   951.84,   307.73  " /><path style="stroke-width: 0.85 ;&st7;  " d=" M   951.84,   341.73  L   951.84,   337.48  " /><path style="stroke-width: 1.42 ;&st7;  " d=" M   951.84,   334.65  L   957.51,   311.98  " /><text style="font-size:6px;font-family:'NSimSun';" transform="matrix(&st16;  945.66  349.92 )">1</text><text style="font-size:6px;font-family:'NSimSun';" transform="matrix(&st16;  945.66  304.04 )">2</text><g ewd:figtype="title"><text style="font-size:6px;font-family:'NSimSun';" transform="matrix(&st17;  968.23  344.63 )">A5</text><text style="font-size:6px;font-family:'NSimSun';" transform="matrix(&st17;  975.06  344.63 )" ewd:textID="2">离合器起动开关总成</text></g></g><g ewd:figtype="conn" ewd:figID="5" ewd:code="B15"><text style="font-size:6px;font-family:'NSimSun';" transform="matrix(&st16;  779.87  522.17 )">P</text><text style="font-size:6px;font-family:'NSimSun';" transform="matrix(&st16;  779.56  539.16 )">N</text><text style="font-size:6px;font-family:'NSimSun';" transform="matrix(&st16;  796.68  505.17 )">B</text><text style="font-size:6px;font-family:'NSimSun';" transform="matrix(&st16;  813.79  505.17 )">L</text><path style="stroke-width: 1.42 ;&st7;  " d=" M   773.37,   494.70  L   824.36,   494.70  L   824.36,   545.69  L   773.37,   545.69  L   773.37,   494.70  " /><path style="stroke-width: 0.85 ;&st7;  " d=" M   773.37,   528.70  L   824.36,   528.70  " /><path style="stroke-width: 0.85 ;&st7;  " d=" M   790.37,   494.70  L   790.37,   545.69  " /><path style="stroke-width: 0.85 ;&st7;  " d=" M   807.36,   494.70  L   807.36,   545.69  " /><path style="stroke-width: 0.85 ;&st7;  " d=" M   814.45,   520.20  L   800.28,   520.20  " /><path style="stroke-width: 0.85 ;&st7;  " d=" M   800.28,   537.20  L   814.45,   537.20  " /><path style="stroke-width: 0.85 ;&st7;  " d=" M   773.37,   511.70  L   824.36,   511.70  " /><path style="stroke-width: 0.85 ;&st7;   " d=" M   817.28,   520.20  C   817.28    519.42    816.65    518.78    815.86    518.78  " /><path style="stroke-width: 0.85 ;&st7;   " d=" M   815.86,   518.78  C   815.08    518.78    814.45    519.42    814.45    520.20  " /><path style="stroke-width: 0.85 ;&st7;   " d=" M   814.45,   520.20  C   814.45    520.98    815.08    521.61    815.86    521.61  " /><path style="stroke-width: 0.85 ;&st7;   " d=" M   815.86,   521.61  C   816.65    521.61    817.28    520.98    817.28    520.20  " /><path style="stroke-width: 0.85 ;&st7;   " d=" M   817.28,   537.20  C   817.28    536.41    816.65    535.78    815.86    535.78  " /><path style="stroke-width: 0.85 ;&st7;   " d=" M   815.86,   535.78  C   815.08    535.78    814.45    536.41    814.45    537.20  " /><path style="stroke-width: 0.85 ;&st7;   " d=" M   814.45,   537.20  C   814.45    537.98    815.08    538.61    815.86    538.61  " /><path style="stroke-width: 0.85 ;&st7;   " d=" M   815.86,   538.61  C   816.65    538.61    817.28    537.98    817.28    537.20  " /><path style="stroke-width: 0.85 ;&st7;   " d=" M   800.28,   537.20  C   800.28    536.41    799.65    535.78    798.87    535.78  " /><path style="stroke-width: 0.85 ;&st7;   " d=" M   798.87,   535.78  C   798.08    535.78    797.45    536.41    797.45    537.20  " /><path style="stroke-width: 0.85 ;&st7;   " d=" M   797.45,   537.20  C   797.45    537.98    798.08    538.61    798.87    538.61  " /><path style="stroke-width: 0.85 ;&st7;   " d=" M   798.87,   538.61  C   799.65    538.61    800.28    537.98    800.28    537.20  " /><path style="stroke-width: 0.85 ;&st7;   " d=" M   800.28,   520.20  C   800.28    519.42    799.65    518.78    798.87    518.78  " /><path style="stroke-width: 0.85 ;&st7;   " d=" M   798.87,   518.78  C   798.08    518.78    797.45    519.42    797.45    520.20  " /><path style="stroke-width: 0.85 ;&st7;   " d=" M   797.45,   520.20  C   797.45    520.98    798.08    521.61    798.87    521.61  " /><path style="stroke-width: 0.85 ;&st7;   " d=" M   798.87,   521.61  C   799.65    521.61    800.28    520.98    800.28    520.20  " /><text style="font-size:6px;font-family:'NSimSun';" transform="matrix(&st16;  809.68  553.89 )">9</text><text style="font-size:6px;font-family:'NSimSun';" transform="matrix(&st16;  792.68  491.01 )">4</text><g ewd:figtype="title"><text style="font-size:6px;font-family:'NSimSun';" transform="matrix(&st17;  831.97  540.09 )">B15</text><text style="font-size:6px;font-family:'NSimSun';" transform="matrix(&st17;  839.08  540.1 )" ewd:textID="5">驻车/空档位置开关总成</text></g></g><g ewd:figtype="conn" ewd:figID="7" ewd:code="A40"><path style="stroke-width: 1.42 ;&st7;  " d=" M   586.40,   494.70  L   620.40,   494.70  L   620.40,   528.70  L   586.40,   528.70  L   586.40,   494.70  " /><g ewd:lineID="10"><text style="font-size:6px;font-family:'NSimSun';" transform="matrix(&st16;  591.6  535.2 )">23</text><text style="font-size:6px;font-family:'NSimSun';" transform="matrix(&st16;  601.09  535.2 )">A</text><path style="stroke-width: 1.42 ;&st7;   " d=" M   607.93,   533.23  C   607.93    530.73    605.90    528.70    603.40    528.70  " /><path style="stroke-width: 1.42 ;&st7;   " d=" M   603.40,   528.70  C   600.90    528.70    598.87    530.73    598.87    533.23  " /><path style="stroke-width: 1.42 ;&st7;   " d=" M   598.87,   533.23  C   598.87    535.73    600.90    537.76    603.40    537.76  " /><path style="stroke-width: 1.42 ;&st7;   " d=" M   603.40,   537.76  C   605.90    537.76    607.93    535.73    607.93    533.23  " /><text style="font-size:6px;font-family:'NSimSun';" transform="matrix(&st16;  596.83  525.0 )">NSW</text></g><g ewd:lineID="11"><text style="font-size:6px;font-family:'NSimSun';" transform="matrix(&st16;  591.6  492.14 )">29</text><text style="font-size:6px;font-family:'NSimSun';" transform="matrix(&st16;  601.09  492.14 )">A</text><path style="stroke-width: 1.42 ;&st7;   " d=" M   607.93,   490.17  C   607.93    487.67    605.90    485.64    603.40    485.64  " /><path style="stroke-width: 1.42 ;&st7;   " d=" M   603.40,   485.64  C   600.90    485.64    598.87    487.67    598.87    490.17  " /><path style="stroke-width: 1.42 ;&st7;   " d=" M   598.87,   490.17  C   598.87    492.67    600.90    494.70    603.40    494.70  " /><path style="stroke-width: 1.42 ;&st7;   " d=" M   603.40,   494.70  C   605.90    494.70    607.93    492.67    607.93    490.17  " /><text style="font-size:6px;font-family:'NSimSun';" transform="matrix(&st16;  597.6  502.34 )">STA</text></g><g ewd:figtype="title"><text style="font-size:6px;font-family:'NSimSun';" transform="matrix(&st17;  635.11  531.6 )">ECM</text><text style="font-size:6px;font-family:'NSimSun';" transform="matrix(&st17;  628.01  531.6 )">A40(A)</text></g></g><g ewd:figtype="conn" ewd:figID="10" ewd:code="A37"><path style="stroke-width: 1.42 ;&st7;  " d=" M   594.90,   324.73  L   900.85,   324.73  L   900.85,   307.73  L   594.90,   307.73  L   594.90,   324.73  " /><path style="stroke-width: 0.85 ;&st7;  " d=" M   653.20,   315.23  L   652.93,   315.70  L   652.83,   316.23  L   652.93,   316.77  L   653.20,   317.24  L   653.61,   317.58  L   654.12,   317.77  L   654.66,   317.77  L   655.17,   317.58  L   655.58,   317.24  L   655.85,   316.77  L   655.95,   316.23  L   655.85,   315.70  L   655.58,   315.23  L   655.17,   314.88  L   654.66,   314.70  L   654.12,   314.70  L   653.61,   314.88  L   653.20,   315.23  L   653.59,   315.94  L   653.59,   316.52  L   653.97,   316.97  L   654.54,   317.07  L   655.04,   316.78  L   655.24,   316.23  L   655.04,   315.69  L   654.54,   315.40  L   653.97,   315.50  L   654.39,   316.23  " /><path style="stroke-width: 0.85 ;&st7;  " d=" M   892.35,   307.73  L   892.35,   324.73  " /><path style="stroke-width: 0.85 ;&st7;  " d=" M   892.35,   316.23  L   798.87,   316.23  L   798.87,   324.73  " /><path style="stroke-width: 0.85 ;&st7;  " d=" M   891.16,   315.23  L   890.89,   315.70  L   890.79,   316.23  L   890.89,   316.77  L   891.16,   317.24  L   891.57,   317.58  L   892.08,   317.77  L   892.62,   317.77  L   893.13,   317.58  L   893.54,   317.24  L   893.82,   316.77  L   893.91,   316.23  L   893.82,   315.70  L   893.54,   315.23  L   893.13,   314.88  L   892.62,   314.70  L   892.08,   314.70  L   891.57,   314.88  L   891.16,   315.23  L   891.55,   315.94  L   891.55,   316.52  L   891.93,   316.97  L   892.50,   317.07  L   893.00,   316.78  L   893.20,   316.23  L   893.00,   315.69  L   892.50,   315.40  L   891.93,   315.50  L   892.35,   316.23  " /><path style="stroke-width: 0.85 ;&st7;  " d=" M   654.39,   316.23  L   603.40,   316.23  L   603.40,   324.73  " /><path style="stroke-width: 0.85 ;&st7;  " d=" M   654.39,   307.73  L   654.39,   324.73  " /><text style="font-size:6px;font-family:'NSimSun';" transform="matrix(&st16;  883.06  332.92 )">12</text><text style="font-size:6px;font-family:'NSimSun';" transform="matrix(&st16;  594.11  332.92 )">22</text><text style="font-size:6px;font-family:'NSimSun';" transform="matrix(&st16;  645.1  332.92 )">20</text><text style="font-size:6px;font-family:'NSimSun';" transform="matrix(&st16;  789.58  332.92 )">15</text><text style="font-size:6px;font-family:'NSimSun';" transform="matrix(&st16;  883.06  304.04 )">14</text><text style="font-size:6px;font-family:'NSimSun';" transform="matrix(&st16;  645.1  304.04 )">21</text><g ewd:figtype="title"><text style="font-size:6px;font-family:'NSimSun';" transform="matrix(&st17;  908.46  327.63 )">A37</text><text style="font-size:6px;font-family:'NSimSun';" transform="matrix(&st17;  915.57  327.64 )" ewd:textID="4">1 号接线连接器<tspan x="0 " dy="6.0" /></text></g></g><g ewd:figtype="w2w" ewd:figID="15" ewd:code="BA1"><text style="font-size:6px;font-family:'NSimSun';" transform="matrix(&st16;  672.65  415.94 )">21</text><path style="stroke-width: 1.42 ;&st7;  " d=" M   692.63,   404.05  L   688.38,   408.30  L   684.14,   404.05  " /><path style="stroke-width: 1.42 ;&st7;  " d=" M   684.14,   400.65  L   688.38,   404.90  L   692.63,   400.65  " /></g><g ewd:figtype="w2w" ewd:figID="16" ewd:code="AE3"><text style="font-size:6px;font-family:'NSimSun';" transform="matrix(&st16;  692.75  160.98 )">3</text><path style="stroke-width: 1.42 ;&st7;  " d=" M   709.63,   168.92  L   705.38,   164.67  L   701.13,   168.92  " /><path style="stroke-width: 1.42 ;&st7;  " d=" M   709.63,   172.32  L   705.38,   168.07  L   701.13,   172.32  " /></g><g ewd:figtype="w2w" ewd:figID="17" ewd:code="BA1"><text style="font-size:6px;font-family:'NSimSun';" transform="matrix(&st16;  783.13  415.94 )">20</text><path style="stroke-width: 1.42 ;&st7;  " d=" M   803.12,   404.05  L   798.87,   408.30  L   794.62,   404.05  " /><path style="stroke-width: 1.42 ;&st7;  " d=" M   794.62,   400.65  L   798.87,   404.90  L   803.12,   400.65  " /></g><g ewd:figtype="w2w" ewd:figID="18" ewd:code="AE2"><text style="font-size:6px;font-family:'NSimSun';" transform="matrix(&st16;  936.11  211.97 )">10</text><path style="stroke-width: 1.42 ;&st7;  " d=" M   947.59,   196.69  L   951.84,   200.94  L   956.09,   196.69  " /><path style="stroke-width: 1.42 ;&st7;  " d=" M   956.09,   200.09  L   951.84,   204.33  L   947.59,   200.09  " /></g></svg>