<?xml version="1.0" encoding="utf-8"?>
<!DOCTYPE svg PUBLIC "-//W3C//DTD SVG 1.0//EN" "http://www.w3.org/TR/2001/REC-SVG-20010904/DTD/svg10.dtd"[
	<!ENTITY ns_flows "http://ns.adobe.com/Flows/1.0/">
	<!ENTITY ns_svg "http://www.w3.org/2000/svg">
	<!ENTITY ns_xlink "http://www.w3.org/1999/xlink">
	<!ENTITY st0 "font-size:7px;font-family:'NSimSun';adobe-font-script:japanese;">
	<!ENTITY st1 "font-size:6px;font-family:'NSimSun';">
	<!-- White fill  -->
	<!ENTITY st2 "fill:#FFFFFF;stroke:#000000; stroke-width:1.41;stroke-linecap:round;stroke-linejoin:round;">
	<!-- Yellow fill  -->
	<!ENTITY st3 "fill:#FFFFCC;stroke:#FFFFCC; stroke-width:0.1;stroke-linecap:round;stroke-linejoin:round;">
	<!-- Gray fill  -->
	<!ENTITY st4 "fill:#CCCCCC;stroke:#CCCCCC; stroke-width:0.1;stroke-linecap:round;stroke-linejoin:round;">
	<!-- Light-blue fill -->
	<!ENTITY st5 "fill:#CCECF4;stroke:#000000; stroke-width:1.133;stroke-linecap:round;stroke-linejoin:round;">
	<!ENTITY st6 "fill:none;stroke-linecap:butt; stroke-linejoin:round;">
	<!ENTITY st7 "fill:none;stroke:#000000;stroke-linecap:round;stroke-linejoin:round;">
	<!ENTITY st8 "enable-background:new    ;">
	<!-- Black fill -->
	<!ENTITY st9 "fill:#000000;stroke:#000000; stroke-linecap:round;stroke-linejoin:round;">
	<!-- SRS note   -->
	<!ENTITY st10 "font-size:9px;font-family:'NSimSun';">
	<!ENTITY st11 "font-size:9px;font-family:'NSimSun';">
	<!ENTITY st12 "font-size:6px;font-family:'NSimSun';">
	<!ENTITY st13 "fill:none;stroke:#ff0000;stroke-linecap:round;stroke-linejoin:round;">
	<!-- Yellow fill  -->
	<!ENTITY st14 "fill:#FFFF00;stroke:#FFFF00; stroke-width:0.1;stroke-linecap:round;stroke-linejoin:round;">
	<!ENTITY st15 "font-size:6px;font-family:'NSimSun';adobe-font-script:japanese;">
	<!ENTITY st16 "1.00 0.00 0.00 1.00">
	<!ENTITY st17 "0.00 -1.00 1.00 0.00">
	<!ENTITY st18 "font-size:6px;font-family:'NSimSun';">
	<!ENTITY st19 "font-size:9px;font-family:'NSimSun';">
	<!ENTITY st20 "font-size:6px;font-family:'NSimSun';adobe-font-script:japanese;">
	<!ENTITY st21 "font-size:7px;font-family:'NSimSun';adobe-font-script:japanese;">
	<!ATTLIST svg
		xmlns:ewd CDATA #FIXED "http://shcl.co.jp/ewd"
		xmlns:a CDATA #FIXED "http://ns.adobe.com/AdobeSVGViewerExtensions/3.0/"
		ewd:ver CDATA #IMPLIED
	>
	<!ATTLIST a
		ewd:lineID CDATA #IMPLIED
		ewd:groupID CDATA #IMPLIED
		ewd:figtype CDATA #IMPLIED
		ewd:code CDATA #IMPLIED
		ewd:figID CDATA #IMPLIED
		ewd:pinNo CDATA #IMPLIED
		ewd:comment CDATA #IMPLIED >
	<!ATTLIST g
		ewd:lineID CDATA #IMPLIED
		ewd:groupID CDATA #IMPLIED
		ewd:figtype CDATA #IMPLIED
		ewd:code CDATA #IMPLIED
		ewd:figID CDATA #IMPLIED
		ewd:pinNo CDATA #IMPLIED
		ewd:comment CDATA #IMPLIED >
	<!ATTLIST text
		ewd:textID CDATA #IMPLIED
		ewd:horAlign CDATA #IMPLIED >
	<!ATTLIST title
		ewd:textID CDATA #IMPLIED >
]>
<!-- Generator: Shintec Hozumi YS   -->
<svg onload="call_execInitLoadProc_svg('system')" style="overflow:visible;  enable-background:new 0 0 2534.483 710.000" viewBox="0 0 2503.264 710.000" height="710.000" width="2503.264" xml:space="preserve" ewd:ver="2.1.2.6F" xmlns="&ns_svg;" xmlns:ewd="http://shcl.co.jp/ewd" xmlns:a="http://ns.adobe.com/AdobeSVGViewerExtensions/3.0/" xmlns:xlink="&ns_xlink;">
<path style="stroke-width: 1.42 ;&st7;  " d=" M  1172.80,   231.25  L  1181.30,   231.25  " /><path style="stroke-width: 1.42 ;&st7;  " d=" M  1257.79,   231.25  L  1266.29,   231.25  " /><text style="font-size:6px;font-family:'NSimSun';" transform="matrix(&st16;  1271.38  32.08 )" ewd:textID="19">主车身 ECU</text><path style="stroke-width: 1.42 ;&st7;  " d=" M  1096.32,   231.25  L  1104.82,   231.25  " /><path style="stroke-width: 1.42 ;&st7;  " d=" M  1189.80,   520.20  L  1181.30,   520.20  " /><text style="font-size:6px;font-family:'NSimSun';" transform="matrix(&st16;  1271.37  24.98 )">E36(A),E37(B)</text><path style="stroke-width: 1.42 ;&st7;  " d=" M  1101.29,   511.70  L  1096.32,   516.67  " /><path style="stroke-width: 1.42 ;&st7;  " d=" M  1274.79,   520.20  L  1266.29,   520.20  " /><text style="font-size:6px;font-family:'NSimSun';" transform="matrix(&st17;  1101.12  164.95 )">Y</text><text style="font-size:6px;font-family:'NSimSun';" transform="matrix(&st17;  1177.61  483.66 )">W-B</text><text style="font-size:6px;font-family:'NSimSun';" transform="matrix(&st17;  1177.61  275.43 )">Y</text><text style="font-size:6px;font-family:'NSimSun';" transform="matrix(&st17;  1177.61  164.95 )">Y</text><text style="font-size:6px;font-family:'NSimSun';" transform="matrix(&st17;  1262.59  483.66 )">W-B</text><text style="font-size:6px;font-family:'NSimSun';" transform="matrix(&st17;  1262.59  275.43 )">Y</text><text style="font-size:6px;font-family:'NSimSun';" transform="matrix(&st17;  1262.59  164.95 )">Y</text><text style="font-size:6px;font-family:'NSimSun';" transform="matrix(&st17;  1101.12  275.43 )">Y</text><text style="font-size:6px;font-family:'NSimSun';" transform="matrix(&st17;  1101.12  483.66 )">W-B</text><text style="font-size:6px;font-family:'NSimSun';" transform="matrix(&st17;  1101.12  560.15 )">W-B</text><text style="font-size:6px;font-family:'NSimSun';" transform="matrix(&st17;  1101.12  653.63 )">W-B</text><text style="font-size:6px;font-family:'NSimSun';" transform="matrix(&st17;  1177.61  555.9 )">W-B</text><text style="font-size:6px;font-family:'NSimSun';" transform="matrix(&st17;  1262.59  555.9 )">W-B</text><path style="stroke-width: 1.42 ;&st7;  " d=" M  1113.31,   516.67  L  1108.34,   511.70  " /><path style="stroke-width: 1.42 ;&st7;  " d=" M  1096.32,   523.73  L  1101.29,   528.70  " /><path style="stroke-width: 1.42 ;&st7;  " d=" M  1108.34,   528.70  L  1113.31,   523.73  " /><text style="font-size:6px;font-family:'NSimSun';" transform="matrix(&st17;  1313.58  167.04 )">LG</text><text style="font-size:6px;font-family:'NSimSun';" transform="matrix(&st17;  1364.58  379.51 )">LG</text><text style="font-size:6px;font-family:'NSimSun';" transform="matrix(&st17;  1390.07  428.4 )">B</text><text style="font-size:6px;font-family:'NSimSun';" transform="matrix(&st16;  1374.58  236.05 )">B</text><text style="font-size:6px;font-family:'NSimSun';" transform="matrix(&st17;  1390.07  207.44 )">B</text><text style="font-size:6px;font-family:'NSimSun';" transform="matrix(&st17;  1475.06  428.4 )">B</text><text style="font-size:6px;font-family:'NSimSun';" transform="matrix(&st17;  1112.45  167.97 )">(*6)</text><path style="stroke-width: 1.42 ;&st7;  " d=" M  1113.31,   605.18  L  1104.82,   605.18  " /><path style="stroke-width: 1.42 ;&st7;  " d=" M  1079.32,   159.73  L  1074.35,   154.76  " /><path style="stroke-width: 1.42 ;&st7;  " d=" M  1062.32,   166.79  L  1067.29,   171.76  " /><path style="stroke-width: 1.42 ;&st7;  " d=" M  1074.35,   171.76  L  1079.32,   166.79  " /><path style="stroke-width: 1.42 ;&st7;  " d=" M  1067.29,   154.76  L  1062.32,   159.73  " /><text style="font-size:6px;font-family:'NSimSun';" transform="matrix(&st17;  1067.13  139.45 )">Y</text><text style="font-size:6px;font-family:'NSimSun';" transform="matrix(&st17;  1078.46  142.48 )">(*5)</text><text style="font-size:6px;font-family:'NSimSun';" transform="matrix(&st17;  1067.13  198.94 )">Y</text><text style="font-size:6px;font-family:'NSimSun';" transform="matrix(&st17;  1078.46  201.97 )">(*5)</text><g ewd:figtype="conn" ewd:figID="2" ewd:code="K3"><path style="stroke-width: 0.85 ;&st7;  " d=" M  1266.29,   371.47  L  1266.29,   350.23  " /><path style="stroke-width: 1.42 ;&st7;  " d=" M  1266.29,   394.14  L  1271.95,   371.47  " /><path style="stroke-width: 0.85 ;&st7;   " d=" M  1267.70,   395.55  C  1267.70    394.77   1267.07    394.14   1266.29    394.14  " /><path style="stroke-width: 0.85 ;&st7;   " d=" M  1266.29,   394.14  C  1265.51    394.14   1264.87    394.77   1264.87    395.55  " /><path style="stroke-width: 0.85 ;&st7;   " d=" M  1264.87,   395.55  C  1264.87    396.33   1265.51    396.97   1266.29    396.97  " /><path style="stroke-width: 0.85 ;&st7;   " d=" M  1266.29,   396.97  C  1267.07    396.97   1267.70    396.33   1267.70    395.55  " /><path style="stroke-width: 1.42 ;&st7;  " d=" M  1240.79,   350.23  L  1240.79,   418.22  L  1291.78,   418.22  L  1291.78,   350.23  L  1240.79,   350.23  " /><path style="stroke-width: 0.85 ;&st7;  " d=" M  1266.29,   418.22  L  1266.29,   396.97  " /><text style="font-size:6px;font-family:'NSimSun';" transform="matrix(&st16;  1259.48  414.53 )">E</text><text style="font-size:6px;font-family:'NSimSun';" transform="matrix(&st16;  1249.63  358.42 )">LSSR</text><path style="stroke-width: 0.85 ;&st7;   " d=" M  1267.70,   372.89  C  1267.70    372.11   1267.07    371.47   1266.29    371.47  " /><path style="stroke-width: 0.85 ;&st7;   " d=" M  1266.29,   371.47  C  1265.51    371.47   1264.87    372.11   1264.87    372.89  " /><path style="stroke-width: 0.85 ;&st7;   " d=" M  1264.87,   372.89  C  1264.87    373.67   1265.51    374.31   1266.29    374.31  " /><path style="stroke-width: 0.85 ;&st7;   " d=" M  1266.29,   374.31  C  1267.07    374.31   1267.70    373.67   1267.70    372.89  " /><text style="font-size:6px;font-family:'NSimSun';" transform="matrix(&st17;  1255.24  396.5 )" ewd:textID="32">开锁检测<tspan x="0 " dy="6.0" /></text><text style="font-size:6px;font-family:'NSimSun';" transform="matrix(&st16;  1260.1  426.41 )">9</text><text style="font-size:6px;font-family:'NSimSun';" transform="matrix(&st16;  1260.1  346.54 )">6</text><g ewd:figtype="title"><text style="font-size:6px;font-family:'NSimSun';" transform="matrix(&st17;  1299.4  412.62 )">K3</text><text style="font-size:6px;font-family:'NSimSun';" transform="matrix(&st17;  1306.5  412.62 )" ewd:textID="25">带电动机的左后门锁总成<tspan x="0 " dy="6.0" /></text></g></g><g ewd:figtype="conn" ewd:figID="3" ewd:code="E36,E37"><g ewd:lineID="31,32"><text style="font-size:6px;font-family:'NSimSun';" transform="matrix(&st16;  1096.12  93.27 )">7</text><text style="font-size:6px;font-family:'NSimSun';" transform="matrix(&st16;  1102.51  93.27 )">A</text><path style="stroke-width: 1.42 ;&st7;   " d=" M  1109.35,    91.30  C  1109.35     88.80   1107.32     86.77   1104.82     86.77  " /><path style="stroke-width: 1.42 ;&st7;   " d=" M  1104.82,    86.77  C  1102.31     86.77   1100.28     88.80   1100.28     91.30  " /><path style="stroke-width: 1.42 ;&st7;   " d=" M  1100.28,    91.30  C  1100.28     93.81   1102.31     95.84   1104.82     95.84  " /><path style="stroke-width: 1.42 ;&st7;   " d=" M  1104.82,    95.84  C  1107.32     95.84   1109.35     93.81   1109.35     91.30  " /><text style="font-size:6px;font-family:'NSimSun';" transform="matrix(&st16;  1097.51  83.07 )">LSFL</text></g><g ewd:lineID="94"><text style="font-size:6px;font-family:'NSimSun';" transform="matrix(&st16;  1175.82  83.07 )">LSR</text><text style="font-size:6px;font-family:'NSimSun';" transform="matrix(&st16;  1308.5  83.07 )">HORN</text></g></g><g ewd:figtype="rb" ewd:figID="5" ewd:code="1"><path style="stroke-width: 1.42 ;&st7;  " d=" M  1395.89,   358.73  L  1391.64,   358.73  " /><path style="stroke-width: 1.42 ;&st7;  " d=" M  1395.89,   350.23  L  1391.64,   350.23  " /><path style="stroke-width: 1.42 ;&st7;  " d=" M  1370.40,   358.73  L  1366.15,   358.73  " /><path style="stroke-width: 1.42 ;&st7;  " d=" M  1370.40,   350.23  L  1366.15,   350.23  " /><path style="stroke-width: 1.42 ;&st7;  " d=" M  1370.40,   265.24  L  1366.15,   265.24  " /><path style="stroke-width: 1.42 ;&st7;  " d=" M  1370.40,   256.74  L  1366.15,   256.74  " /><path style="stroke-width: 1.42 ;&st7;  " d=" M  1395.89,   265.24  L  1391.64,   265.24  " /><path style="stroke-width: 1.42 ;&st7;  " d=" M  1395.89,   256.74  L  1391.64,   256.74  " /><path style="stroke-width: 1.42 ;&st7;   " d=" M  1400.14,   354.48  C  1400.14    352.13   1398.24    350.23   1395.89    350.23  " /><path style="stroke-width: 1.42 ;&st7;   " d=" M  1395.89,   358.73  C  1398.24    358.73   1400.14    356.82   1400.14    354.48  " /><path style="stroke-width: 1.42 ;&st7;   " d=" M  1387.39,   354.48  C  1387.39    356.82   1389.30    358.73   1391.64    358.73  " /><path style="stroke-width: 1.42 ;&st7;   " d=" M  1391.64,   350.23  C  1389.30    350.23   1387.39    352.13   1387.39    354.48  " /><path style="stroke-width: 1.42 ;&st7;   " d=" M  1374.65,   354.48  C  1374.65    352.13   1372.74    350.23   1370.40    350.23  " /><path style="stroke-width: 1.42 ;&st7;   " d=" M  1370.40,   358.73  C  1372.74    358.73   1374.65    356.82   1374.65    354.48  " /><path style="stroke-width: 1.42 ;&st7;   " d=" M  1361.90,   354.48  C  1361.90    356.82   1363.80    358.73   1366.15    358.73  " /><path style="stroke-width: 1.42 ;&st7;   " d=" M  1366.15,   350.23  C  1363.80    350.23   1361.90    352.13   1361.90    354.48  " /><path style="stroke-width: 1.42 ;&st7;   " d=" M  1374.65,   260.99  C  1374.65    258.64   1372.74    256.74   1370.40    256.74  " /><path style="stroke-width: 1.42 ;&st7;   " d=" M  1370.40,   265.24  C  1372.74    265.24   1374.65    263.34   1374.65    260.99  " /><path style="stroke-width: 1.42 ;&st7;   " d=" M  1361.90,   260.99  C  1361.90    263.34   1363.80    265.24   1366.15    265.24  " /><path style="stroke-width: 1.42 ;&st7;   " d=" M  1366.15,   256.74  C  1363.80    256.74   1361.90    258.64   1361.90    260.99  " /><path style="stroke-width: 1.42 ;&st7;   " d=" M  1400.14,   260.99  C  1400.14    258.64   1398.24    256.74   1395.89    256.74  " /><path style="stroke-width: 1.42 ;&st7;   " d=" M  1395.89,   265.24  C  1398.24    265.24   1400.14    263.34   1400.14    260.99  " /><path style="stroke-width: 1.42 ;&st7;   " d=" M  1387.39,   260.99  C  1387.39    263.34   1389.30    265.24   1391.64    265.24  " /><path style="stroke-width: 1.42 ;&st7;   " d=" M  1391.64,   256.74  C  1389.30    256.74   1387.39    258.64   1387.39    260.99  " /><path style="stroke-width: 0.85 ;&st7;  " d=" M  1393.77,   324.73  L  1393.77,   350.23  " /><path style="stroke-width: 0.85 ;&st7;  " d=" M  1368.27,   324.73  L  1368.27,   350.23  " /><path style="stroke-width: 0.28 ;&st9;  " d=" M  1393.77,   345.33  L  1390.93,   342.50  L  1390.93,   346.75  L  1393.77,   349.58  L  1396.60,   346.75  L  1396.60,   342.50  L  1393.77,   345.33  " /><path style="stroke-width: 0.28 ;&st9;  " d=" M  1368.27,   345.33  L  1365.44,   342.50  L  1365.44,   346.75  L  1368.27,   349.58  L  1371.10,   346.75  L  1371.10,   342.50  L  1368.27,   345.33  " /><path style="stroke-width: 0.85 ;&st7;  " d=" M  1368.27,   265.24  L  1368.27,   290.74  " /><path style="stroke-width: 0.85 ;&st7;  " d=" M  1393.77,   265.24  L  1393.77,   290.74  " /><path style="stroke-width: 0.28 ;&st9;  " d=" M  1368.27,   270.14  L  1371.10,   272.97  L  1371.10,   268.72  L  1368.27,   265.89  L  1365.44,   268.72  L  1365.44,   272.97  L  1368.27,   270.14  " /><path style="stroke-width: 0.28 ;&st9;  " d=" M  1393.77,   270.14  L  1396.60,   272.97  L  1396.60,   268.72  L  1393.77,   265.89  L  1390.93,   268.72  L  1390.93,   272.97  L  1393.77,   270.14  " /><text style="font-size:6px;font-family:'NSimSun';" transform="matrix(&st17;  1409.9  316.01 )" ewd:textID="14">HORN<tspan x="0 " dy="6.0">继电器</tspan></text><text style="font-size:6px;font-family:'NSimSun';" transform="matrix(&st16;  1391.97  356.45 )">1</text><text style="font-size:6px;font-family:'NSimSun';" transform="matrix(&st16;  1366.47  356.45 )">1</text><text style="font-size:6px;font-family:'NSimSun';" transform="matrix(&st16;  1366.47  262.96 )">1</text><text style="font-size:6px;font-family:'NSimSun';" transform="matrix(&st16;  1391.97  262.96 )">1</text><text style="font-size:6px;font-family:'NSimSun';" transform="matrix(&st16;  1387.58  287.05 )">3</text><text style="font-size:6px;font-family:'NSimSun';" transform="matrix(&st16;  1362.09  287.05 )">1</text><text style="font-size:6px;font-family:'NSimSun';" transform="matrix(&st16;  1387.58  332.92 )">5</text><text style="font-size:6px;font-family:'NSimSun';" transform="matrix(&st16;  1362.09  332.92 )">2</text><path style="stroke-width: 0.85 ;&st7;  " d=" M  1368.27,   316.23  L  1368.27,   324.73  " /><path style="stroke-width: 0.85 ;&st7;  " d=" M  1368.27,   290.74  L  1368.27,   299.24  " /><path style="stroke-width: 0.85 ;&st7;  " d=" M  1393.77,   290.74  L  1393.77,   294.99  " /><path style="stroke-width: 0.85 ;&st7;  " d=" M  1393.77,   324.73  L  1393.77,   320.48  " /><path style="stroke-width: 1.42 ;&st7;  " d=" M  1393.77,   297.82  L  1399.43,   320.48  " /><path style="stroke-width: 0.85 ;&st7;   " d=" M  1368.27,   316.23  C  1370.23    316.23   1371.81    314.65   1371.81    312.69  " /><path style="stroke-width: 0.85 ;&st7;   " d=" M  1371.81,   312.69  C  1371.81    310.74   1370.23    309.15   1368.27    309.15  " /><path style="stroke-width: 0.85 ;&st7;   " d=" M  1368.27,   309.15  C  1367.28    309.15   1366.44    309.51   1365.74    310.21  " /><path style="stroke-width: 0.85 ;&st7;   " d=" M  1365.74,   310.21  C  1367.11    311.61   1369.35    311.63   1370.75    310.26  " /><path style="stroke-width: 0.85 ;&st7;   " d=" M  1370.75,   310.26  C  1372.15    308.89   1372.17    306.65   1370.80    305.26  " /><path style="stroke-width: 0.85 ;&st7;   " d=" M  1370.80,   305.26  C  1369.43    303.86   1367.19    303.84   1365.79    305.20  " /><path style="stroke-width: 0.85 ;&st7;   " d=" M  1365.79,   305.20  C  1365.77    305.22   1365.76    305.24   1365.74    305.26  " /><path style="stroke-width: 0.85 ;&st7;   " d=" M  1365.74,   305.26  C  1367.11    306.65   1369.35    306.68   1370.75    305.31  " /><path style="stroke-width: 0.85 ;&st7;   " d=" M  1370.75,   305.31  C  1372.15    303.94   1372.17    301.69   1370.80    300.30  " /><path style="stroke-width: 0.85 ;&st7;   " d=" M  1370.80,   300.30  C  1370.11    299.59   1369.26    299.23   1368.27    299.23  " /><path style="stroke-width: 0.85 ;&st7;   " d=" M  1395.18,   296.40  C  1395.18    295.62   1394.55    294.99   1393.77    294.99  " /><path style="stroke-width: 0.85 ;&st7;   " d=" M  1393.77,   294.99  C  1392.98    294.99   1392.35    295.62   1392.35    296.40  " /><path style="stroke-width: 0.85 ;&st7;   " d=" M  1392.35,   296.40  C  1392.35    297.18   1392.98    297.82   1393.77    297.82  " /><path style="stroke-width: 0.85 ;&st7;   " d=" M  1393.77,   297.82  C  1394.55    297.82   1395.18    297.18   1395.18    296.40  " /><path style="stroke-width: 0.85 ;&st7;   " d=" M  1395.18,   319.07  C  1395.18    318.28   1394.55    317.65   1393.77    317.65  " /><path style="stroke-width: 0.85 ;&st7;   " d=" M  1393.77,   317.65  C  1392.98    317.65   1392.35    318.28   1392.35    319.07  " /><path style="stroke-width: 0.85 ;&st7;   " d=" M  1392.35,   319.07  C  1392.35    319.85   1392.98    320.48   1393.77    320.48  " /><path style="stroke-width: 0.85 ;&st7;   " d=" M  1393.77,   320.48  C  1394.55    320.48   1395.18    319.85   1395.18    319.07  " /><path style="stroke-width: 1.42 ;&st7;  " d=" M  1402.27,   290.74  L  1359.77,   290.74  L  1359.77,   324.73  L  1402.27,   324.73  L  1402.27,   290.74  " /></g><g ewd:figtype="conn" ewd:figID="8" ewd:code="A21"><path style="stroke-width: 1.42 ;&st7;   " d=" M  1387.43,   497.54  C  1385.30    499.92   1384.69    503.04   1385.76    506.06  " /><path style="stroke-width: 1.42 ;&st7;   " d=" M  1385.76,   506.06  C  1387.34    510.48   1392.21    512.78   1396.63    511.20  " /><path style="stroke-width: 1.42 ;&st7;   " d=" M  1396.63,   511.20  C  1401.05    509.63   1403.35    504.76   1401.77    500.34  " /><path style="stroke-width: 1.42 ;&st7;   " d=" M  1401.77,   500.34  C  1400.19    495.92   1395.33    493.62   1390.91    495.20  " /><path style="stroke-width: 1.42 ;&st7;   " d=" M  1390.91,   495.20  C  1389.51    495.70   1388.43    496.43   1387.43    497.54  " /><path style="stroke-width: 1.42 ;&st7;  " d=" M  1387.43,   497.54  L  1376.77,   497.54  L  1376.77,   511.70  L  1385.76,   506.06  " /><text style="font-size:6px;font-family:'NSimSun';" transform="matrix(&st16;  1387.58  491.01 )">1</text><g ewd:figtype="title"><text style="font-size:6px;font-family:'NSimSun';" transform="matrix(&st16;  1404.53  503.75 )" ewd:textID="17">低音喇叭总成<tspan x="0 " dy="6.0" /></text><text style="font-size:6px;font-family:'NSimSun';" transform="matrix(&st16;  1404.52  496.65 )">A21</text></g></g><g ewd:figtype="conn" ewd:figID="10" ewd:code="J3"><path style="stroke-width: 1.42 ;&st7;  " d=" M  1181.30,   394.14  L  1186.97,   371.47  " /><path style="stroke-width: 0.85 ;&st7;  " d=" M  1181.30,   418.22  L  1181.30,   396.97  " /><path style="stroke-width: 1.42 ;&st7;  " d=" M  1155.81,   350.23  L  1155.81,   418.22  L  1206.80,   418.22  L  1206.80,   350.23  L  1155.81,   350.23  " /><path style="stroke-width: 0.85 ;&st7;   " d=" M  1182.72,   395.55  C  1182.72    394.77   1182.08    394.14   1181.30    394.14  " /><path style="stroke-width: 0.85 ;&st7;   " d=" M  1181.30,   394.14  C  1180.52    394.14   1179.89    394.77   1179.89    395.55  " /><path style="stroke-width: 0.85 ;&st7;   " d=" M  1179.89,   395.55  C  1179.89    396.33   1180.52    396.97   1181.30    396.97  " /><path style="stroke-width: 0.85 ;&st7;   " d=" M  1181.30,   396.97  C  1182.08    396.97   1182.72    396.33   1182.72    395.55  " /><path style="stroke-width: 0.85 ;&st7;  " d=" M  1181.30,   371.47  L  1181.30,   350.23  " /><text style="font-size:6px;font-family:'NSimSun';" transform="matrix(&st16;  1174.5  414.53 )">E</text><text style="font-size:6px;font-family:'NSimSun';" transform="matrix(&st16;  1164.65  358.42 )">LSSR</text><path style="stroke-width: 0.85 ;&st7;   " d=" M  1182.72,   372.89  C  1182.72    372.11   1182.08    371.47   1181.30    371.47  " /><path style="stroke-width: 0.85 ;&st7;   " d=" M  1181.30,   371.47  C  1180.52    371.47   1179.89    372.11   1179.89    372.89  " /><path style="stroke-width: 0.85 ;&st7;   " d=" M  1179.89,   372.89  C  1179.89    373.67   1180.52    374.31   1181.30    374.31  " /><path style="stroke-width: 0.85 ;&st7;   " d=" M  1181.30,   374.31  C  1182.08    374.31   1182.72    373.67   1182.72    372.89  " /><text style="font-size:6px;font-family:'NSimSun';" transform="matrix(&st17;  1170.26  396.5 )" ewd:textID="32">开锁检测<tspan x="0 " dy="6.0" /></text><text style="font-size:6px;font-family:'NSimSun';" transform="matrix(&st16;  1175.12  426.41 )">9</text><text style="font-size:6px;font-family:'NSimSun';" transform="matrix(&st16;  1175.12  346.54 )">6</text><g ewd:figtype="title"><text style="font-size:6px;font-family:'NSimSun';" transform="matrix(&st17;  1214.41  412.62 )">J3</text><text style="font-size:6px;font-family:'NSimSun';" transform="matrix(&st17;  1221.52  412.62 )" ewd:textID="26">带电动机的右后门锁总成<tspan x="0 " dy="6.0" /></text></g></g><g ewd:figtype="conn" ewd:figID="11" ewd:code="H9"><text style="font-size:6px;font-family:'NSimSun';" transform="matrix(&st17;  1093.77  396.5 )" ewd:textID="32">开锁检测<tspan x="0 " dy="6.0" /></text><text style="font-size:6px;font-family:'NSimSun';" transform="matrix(&st16;  1088.16  358.42 )">LSSR</text><path style="stroke-width: 1.42 ;&st7;  " d=" M  1104.82,   394.14  L  1110.48,   371.47  " /><path style="stroke-width: 1.42 ;&st7;  " d=" M  1079.32,   418.22  L  1079.32,   350.23  L  1121.81,   350.23  L  1121.81,   418.22  L  1079.32,   418.22  " /><path style="stroke-width: 0.85 ;&st7;  " d=" M  1104.82,   418.22  L  1104.82,   396.97  " /><path style="stroke-width: 0.85 ;&st7;   " d=" M  1106.23,   372.89  C  1106.23    372.11   1105.60    371.47   1104.82    371.47  " /><path style="stroke-width: 0.85 ;&st7;   " d=" M  1104.82,   371.47  C  1104.03    371.47   1103.40    372.11   1103.40    372.89  " /><path style="stroke-width: 0.85 ;&st7;   " d=" M  1103.40,   372.89  C  1103.40    373.67   1104.03    374.31   1104.82    374.31  " /><path style="stroke-width: 0.85 ;&st7;   " d=" M  1104.82,   374.31  C  1105.60    374.31   1106.23    373.67   1106.23    372.89  " /><path style="stroke-width: 0.85 ;&st7;  " d=" M  1104.82,   371.47  L  1104.82,   350.23  " /><text style="font-size:6px;font-family:'NSimSun';" transform="matrix(&st16;  1098.01  414.53 )">E</text><path style="stroke-width: 0.85 ;&st7;   " d=" M  1106.23,   395.55  C  1106.23    394.77   1105.60    394.14   1104.82    394.14  " /><path style="stroke-width: 0.85 ;&st7;   " d=" M  1104.82,   394.14  C  1104.03    394.14   1103.40    394.77   1103.40    395.55  " /><path style="stroke-width: 0.85 ;&st7;   " d=" M  1103.40,   395.55  C  1103.40    396.33   1104.03    396.97   1104.82    396.97  " /><path style="stroke-width: 0.85 ;&st7;   " d=" M  1104.82,   396.97  C  1105.60    396.97   1106.23    396.33   1106.23    395.55  " /><text style="font-size:6px;font-family:'NSimSun';" transform="matrix(&st16;  1098.63  426.41 )">7</text><text style="font-size:6px;font-family:'NSimSun';" transform="matrix(&st16;  1098.63  346.54 )">8</text><g ewd:figtype="title"><text style="font-size:6px;font-family:'NSimSun';" transform="matrix(&st17;  1129.42  421.11 )">H9</text><text style="font-size:6px;font-family:'NSimSun';" transform="matrix(&st17;  1136.53  421.12 )" ewd:textID="12">带电动机的左前门锁总成<tspan x="0 " dy="6.0" /></text></g></g><g ewd:figtype="rb" ewd:figID="19" ewd:code="FUSE14"><path style="stroke-width: 0.85 ;&st7;  " d=" M  1393.77,   163.26  L  1393.77,   180.26  " /><path style="stroke-width: 1.42 ;&st7;  " d=" M  1395.89,   188.75  L  1391.64,   188.75  " /><path style="stroke-width: 1.42 ;&st7;  " d=" M  1395.89,   180.26  L  1391.64,   180.26  " /><path style="stroke-width: 1.42 ;&st7;   " d=" M  1400.14,   184.50  C  1400.14    182.16   1398.24    180.26   1395.89    180.26  " /><path style="stroke-width: 1.42 ;&st7;   " d=" M  1395.89,   188.75  C  1398.24    188.75   1400.14    186.85   1400.14    184.50  " /><path style="stroke-width: 1.42 ;&st7;   " d=" M  1387.39,   184.50  C  1387.39    186.85   1389.30    188.75   1391.64    188.75  " /><path style="stroke-width: 1.42 ;&st7;   " d=" M  1391.64,   180.26  C  1389.30    180.26   1387.39    182.16   1387.39    184.50  " /><path style="stroke-width: 0.28 ;&st9;  " d=" M  1393.77,   175.36  L  1390.93,   172.53  L  1390.93,   176.78  L  1393.77,   179.61  L  1396.60,   176.78  L  1396.60,   172.53  L  1393.77,   175.36  " /><text style="font-size:6px;font-family:'NSimSun';" transform="matrix(&st16;  1387.58  171.45 )">2</text><text style="font-size:6px;font-family:'NSimSun';" transform="matrix(&st16;  1385.72  117.07 )">(BAT)</text><text style="font-size:6px;font-family:'NSimSun';" transform="matrix(&st16;  1391.97  186.47 )">1</text><text style="font-size:6px;font-family:'NSimSun';" transform="matrix(&st16;  1410.19  141.16 )">10A <tspan x="0 " dy="6.0">HORN</tspan></text><path style="stroke-width: 0.85 ;&st7;  " d=" M  1393.77,   154.76  L  1393.77,   163.26  " /><path style="stroke-width: 0.85 ;&st7;   " d=" M  1395.18,   153.34  C  1395.18    152.56   1394.55    151.93   1393.77    151.93  " /><path style="stroke-width: 0.85 ;&st7;   " d=" M  1393.77,   151.93  C  1392.98    151.93   1392.35    152.56   1392.35    153.34  " /><path style="stroke-width: 0.85 ;&st7;   " d=" M  1392.35,   153.34  C  1392.35    154.13   1392.98    154.76   1393.77    154.76  " /><path style="stroke-width: 0.85 ;&st7;   " d=" M  1393.77,   154.76  C  1394.55    154.76   1395.18    154.13   1395.18    153.34  " /><path style="stroke-width: 0.85 ;&st7;   " d=" M  1395.18,   130.68  C  1395.18    129.90   1394.55    129.26   1393.77    129.26  " /><path style="stroke-width: 0.85 ;&st7;   " d=" M  1393.77,   129.26  C  1392.98    129.26   1392.35    129.90   1392.35    130.68  " /><path style="stroke-width: 0.85 ;&st7;   " d=" M  1392.35,   130.68  C  1392.35    131.46   1392.98    132.10   1393.77    132.10  " /><path style="stroke-width: 0.85 ;&st7;   " d=" M  1393.77,   132.10  C  1394.55    132.10   1395.18    131.46   1395.18    130.68  " /><path style="stroke-width: 1.42 ;&st7;   " d=" M  1393.77,   151.93  C  1396.51    150.31   1397.42    146.79   1395.80    144.05  " /><path style="stroke-width: 1.42 ;&st7;   " d=" M  1395.80,   144.05  C  1395.28    143.17   1394.65    142.53   1393.77    142.01  " /><path style="stroke-width: 1.42 ;&st7;   " d=" M  1393.77,   132.10  C  1391.03    133.71   1390.12    137.24   1391.73    139.97  " /><path style="stroke-width: 1.42 ;&st7;   " d=" M  1391.73,   139.97  C  1392.25    140.86   1392.89    141.49   1393.77    142.01  " /><path style="stroke-width: 1.42 ;&st7;  " d=" M  1381.02,   120.77  L  1381.02,   163.26  L  1406.51,   163.26  L  1406.51,   120.77  L  1381.02,   120.77  " /></g><g ewd:figtype="conn" ewd:figID="22" ewd:code="A24"><path style="stroke-width: 1.42 ;&st7;  " d=" M  1472.42,   497.54  L  1461.76,   497.54  L  1461.76,   511.70  L  1470.75,   506.06  " /><path style="stroke-width: 1.42 ;&st7;   " d=" M  1470.75,   506.06  C  1472.33    510.48   1477.19    512.78   1481.61    511.20  " /><path style="stroke-width: 1.42 ;&st7;   " d=" M  1481.61,   511.20  C  1486.03    509.63   1488.33    504.76   1486.76    500.34  " /><path style="stroke-width: 1.42 ;&st7;   " d=" M  1486.76,   500.34  C  1485.18    495.92   1480.31    493.62   1475.89    495.20  " /><path style="stroke-width: 1.42 ;&st7;   " d=" M  1475.89,   495.20  C  1474.49    495.70   1473.41    496.43   1472.42    497.54  " /><path style="stroke-width: 1.42 ;&st7;   " d=" M  1472.42,   497.54  C  1470.28    499.92   1469.67    503.04   1470.75    506.06  " /><text style="font-size:6px;font-family:'NSimSun';" transform="matrix(&st16;  1472.57  491.01 )">1</text><g ewd:figtype="title"><text style="font-size:6px;font-family:'NSimSun';" transform="matrix(&st16;  1489.51  503.75 )" ewd:textID="15">高音喇叭总成<tspan x="0 " dy="6.0" /></text><text style="font-size:6px;font-family:'NSimSun';" transform="matrix(&st16;  1489.5  496.65 )">A24</text></g></g><g ewd:figtype="jb" ewd:figID="40" ewd:code="3"><path style="stroke-width: 1.42 ;&st7;  " d=" M  1183.43,   129.26  L  1179.18,   129.26  " /><path style="stroke-width: 1.42 ;&st7;  " d=" M  1183.43,   120.77  L  1179.18,   120.77  " /><path style="stroke-width: 1.42 ;&st7;  " d=" M  1268.41,   129.26  L  1264.16,   129.26  " /><path style="stroke-width: 1.42 ;&st7;  " d=" M  1268.41,   120.77  L  1264.16,   120.77  " /><path style="stroke-width: 1.42 ;&st7;   " d=" M  1179.18,   120.77  C  1176.83    120.77   1174.93    122.67   1174.93    125.01  " /><path style="stroke-width: 1.42 ;&st7;   " d=" M  1174.93,   125.01  C  1174.93    127.36   1176.83    129.26   1179.18    129.26  " /><path style="stroke-width: 1.42 ;&st7;   " d=" M  1183.43,   129.26  C  1185.77    129.26   1187.68    127.36   1187.68    125.01  " /><path style="stroke-width: 1.42 ;&st7;   " d=" M  1187.68,   125.01  C  1187.68    122.67   1185.77    120.77   1183.43    120.77  " /><path style="stroke-width: 1.42 ;&st7;   " d=" M  1264.16,   120.77  C  1261.82    120.77   1259.91    122.67   1259.91    125.01  " /><path style="stroke-width: 1.42 ;&st7;   " d=" M  1259.91,   125.01  C  1259.91    127.36   1261.82    129.26   1264.16    129.26  " /><path style="stroke-width: 1.42 ;&st7;   " d=" M  1268.41,   129.26  C  1270.76    129.26   1272.66    127.36   1272.66    125.01  " /><path style="stroke-width: 1.42 ;&st7;   " d=" M  1272.66,   125.01  C  1272.66    122.67   1270.76    120.77   1268.41    120.77  " /><path style="stroke-width: 0.28 ;&st9;  " d=" M  1181.30,   115.87  L  1178.47,   113.04  L  1178.47,   117.29  L  1181.30,   120.12  L  1184.13,   117.29  L  1184.13,   113.04  L  1181.30,   115.87  " /><path style="stroke-width: 0.85 ;&st7;  " d=" M  1180.11,   102.77  L  1179.84,   103.24  L  1179.74,   103.77  L  1179.84,   104.30  L  1180.11,   104.77  L  1180.52,   105.12  L  1181.03,   105.30  L  1181.57,   105.30  L  1182.08,   105.12  L  1182.49,   104.77  L  1182.77,   104.30  L  1182.86,   103.77  L  1182.77,   103.24  L  1182.49,   102.77  L  1182.08,   102.42  L  1181.57,   102.23  L  1181.03,   102.23  L  1180.52,   102.42  L  1180.11,   102.77  L  1180.50,   103.48  L  1180.50,   104.06  L  1180.88,   104.50  L  1181.45,   104.60  L  1181.95,   104.31  L  1182.15,   103.77  L  1181.95,   103.22  L  1181.45,   102.93  L  1180.88,   103.03  L  1181.30,   103.77  " /><path style="stroke-width: 0.85 ;&st7;  " d=" M  1181.30,    86.77  L  1181.30,   120.77  " /><path style="stroke-width: 0.85 ;&st7;  " d=" M  1181.30,   103.77  L  1266.29,   103.77  L  1266.29,   120.77  " /><path style="stroke-width: 0.28 ;&st9;  " d=" M  1266.29,   115.87  L  1263.46,   113.04  L  1263.46,   117.29  L  1266.29,   120.12  L  1269.12,   117.29  L  1269.12,   113.04  L  1266.29,   115.87  " /><text style="font-size:6px;font-family:'NSimSun';" transform="matrix(&st16;  1177.64  126.98 )">3E</text><text style="font-size:6px;font-family:'NSimSun';" transform="matrix(&st16;  1167.69  126.98 )">22</text><text style="font-size:6px;font-family:'NSimSun';" transform="matrix(&st16;  1175.12  94.96 )">5</text><text style="font-size:6px;font-family:'NSimSun';" transform="matrix(&st16;  1262.63  126.98 )">3E</text><text style="font-size:6px;font-family:'NSimSun';" transform="matrix(&st16;  1252.68  126.98 )">37</text><text style="font-size:6px;font-family:'NSimSun';" transform="matrix(&st16;  1307.99  94.96 )">28</text><path style="stroke-width: 1.42 ;&st7;  " d=" M  1319.40,   120.77  L  1315.16,   120.77  " /><path style="stroke-width: 1.42 ;&st7;  " d=" M  1319.40,   129.26  L  1315.16,   129.26  " /><path style="stroke-width: 1.42 ;&st7;   " d=" M  1315.16,   120.77  C  1312.81    120.77   1310.91    122.67   1310.91    125.01  " /><path style="stroke-width: 1.42 ;&st7;   " d=" M  1310.91,   125.01  C  1310.91    127.36   1312.81    129.26   1315.16    129.26  " /><path style="stroke-width: 1.42 ;&st7;   " d=" M  1319.40,   129.26  C  1321.75    129.26   1323.65    127.36   1323.65    125.01  " /><path style="stroke-width: 1.42 ;&st7;   " d=" M  1323.65,   125.01  C  1323.65    122.67   1321.75    120.77   1319.40    120.77  " /><path style="stroke-width: 0.28 ;&st9;  " d=" M  1317.28,   115.87  L  1314.45,   113.04  L  1314.45,   117.29  L  1317.28,   120.12  L  1320.11,   117.29  L  1320.11,   113.04  L  1317.28,   115.87  " /><text style="font-size:6px;font-family:'NSimSun';" transform="matrix(&st16;  1313.42  126.98 )">3A</text><text style="font-size:6px;font-family:'NSimSun';" transform="matrix(&st16;  1303.67  126.98 )">24</text><path style="stroke-width: 0.85 ;&st7;  " d=" M  1317.28,   120.77  L  1317.28,    86.77  " /></g><g ewd:figtype="w2w" ewd:figID="46" ewd:code="HE3"><text style="font-size:6px;font-family:'NSimSun';" transform="matrix(&st16;  1092.18  602.9 )">8</text><path style="stroke-width: 1.42 ;&st7;  " d=" M  1109.06,   614.25  L  1104.81,   610.00  L  1100.57,   614.25  " /><path style="stroke-width: 1.42 ;&st7;  " d=" M  1109.06,   610.85  L  1104.81,   606.60  L  1100.57,   610.85  " /></g><g ewd:figtype="w2w" ewd:figID="47" ewd:code="HE1"><path style="stroke-width: 1.42 ;&st7;  " d=" M  1100.57,   222.18  L  1104.81,   226.43  L  1109.06,   222.18  " /><path style="stroke-width: 1.42 ;&st7;  " d=" M  1109.06,   225.58  L  1104.81,   229.83  L  1100.57,   225.58  " /><text style="font-size:6px;font-family:'NSimSun';" transform="matrix(&st16;  1089.08  237.47 )">18</text></g><g ewd:figtype="w2w" ewd:figID="48" ewd:code="JL1"><path style="stroke-width: 1.42 ;&st7;  " d=" M  1185.55,   529.26  L  1181.30,   525.01  L  1177.05,   529.26  " /><path style="stroke-width: 1.42 ;&st7;  " d=" M  1185.55,   525.86  L  1181.30,   521.61  L  1177.05,   525.86  " /><text style="font-size:6px;font-family:'NSimSun';" transform="matrix(&st16;  1165.57  517.92 )">10</text></g><g ewd:figtype="w2w" ewd:figID="49" ewd:code="JL1"><path style="stroke-width: 1.42 ;&st7;  " d=" M  1185.55,   225.58  L  1181.30,   229.83  L  1177.05,   225.58  " /><path style="stroke-width: 1.42 ;&st7;  " d=" M  1177.05,   222.18  L  1181.30,   226.43  L  1185.55,   222.18  " /><text style="font-size:6px;font-family:'NSimSun';" transform="matrix(&st16;  1168.67  237.47 )">3</text></g><g ewd:figtype="w2w" ewd:figID="50" ewd:code="KL1"><path style="stroke-width: 1.42 ;&st7;  " d=" M  1270.54,   529.26  L  1266.29,   525.01  L  1262.04,   529.26  " /><path style="stroke-width: 1.42 ;&st7;  " d=" M  1270.54,   525.86  L  1266.29,   521.61  L  1262.04,   525.86  " /><text style="font-size:6px;font-family:'NSimSun';" transform="matrix(&st16;  1250.55  517.92 )">10</text></g><g ewd:figtype="w2w" ewd:figID="51" ewd:code="KL1"><path style="stroke-width: 1.42 ;&st7;  " d=" M  1270.54,   225.58  L  1266.29,   229.83  L  1262.04,   225.58  " /><path style="stroke-width: 1.42 ;&st7;  " d=" M  1262.04,   222.18  L  1266.29,   226.43  L  1270.54,   222.18  " /><text style="font-size:6px;font-family:'NSimSun';" transform="matrix(&st16;  1253.66  237.47 )">3</text></g><g ewd:figtype="gp" ewd:figID="68" ewd:code="EA"><path style="stroke-width: 0.85 ;&st7;  " d=" M  1104.81,   697.25  L  1104.81,   701.50  " /><path style="stroke-width: 0.85 ;&st7;  " d=" M  1096.32,   701.50  L  1113.31,   701.50  " /><path style="stroke-width: 0.85 ;&st7;  " d=" M  1100.57,   704.33  L  1109.06,   704.33  " /><path style="stroke-width: 0.85 ;&st7;  " d=" M  1101.98,   707.17  L  1107.65,   707.17  " /><path style="stroke-width: 0.85 ;&st7;  " d=" M  1103.40,   710.00  L  1106.23,   710.00  " /></g><g ewd:figtype="gp" ewd:figID="69" ewd:code="LD"><path style="stroke-width: 0.85 ;&st7;  " d=" M  1181.30,   697.25  L  1181.30,   701.50  " /><path style="stroke-width: 0.85 ;&st7;  " d=" M  1172.80,   701.50  L  1189.80,   701.50  " /><path style="stroke-width: 0.85 ;&st7;  " d=" M  1177.05,   704.33  L  1185.55,   704.33  " /><path style="stroke-width: 0.85 ;&st7;  " d=" M  1178.47,   707.17  L  1184.13,   707.17  " /><path style="stroke-width: 0.85 ;&st7;  " d=" M  1179.89,   710.00  L  1182.72,   710.00  " /></g><g ewd:figtype="gp" ewd:figID="70" ewd:code="LB"><path style="stroke-width: 0.85 ;&st7;  " d=" M  1264.87,   710.00  L  1267.70,   710.00  " /><path style="stroke-width: 0.85 ;&st7;  " d=" M  1263.46,   707.17  L  1269.12,   707.17  " /><path style="stroke-width: 0.85 ;&st7;  " d=" M  1262.04,   704.33  L  1270.54,   704.33  " /><path style="stroke-width: 0.85 ;&st7;  " d=" M  1257.79,   701.50  L  1274.79,   701.50  " /><path style="stroke-width: 0.85 ;&st7;  " d=" M  1266.29,   697.25  L  1266.29,   701.50  " /></g><g ewd:figtype="annex" ewd:figID="96" ewd:code=" "><path style="stroke-width: 0.85 ;&st7;  " d=" M  1392.35,   528.70  L  1395.18,   528.70  " /><path style="stroke-width: 0.85 ;&st7;  " d=" M  1385.27,   520.20  L  1402.27,   520.20  " /><path style="stroke-width: 0.85 ;&st7;  " d=" M  1390.93,   525.86  L  1396.60,   525.86  " /><path style="stroke-width: 0.85 ;&st7;  " d=" M  1393.77,   511.70  L  1393.77,   520.20  " /><path style="stroke-width: 0.85 ;&st7;  " d=" M  1389.52,   523.03  L  1398.02,   523.03  " /></g><g ewd:figtype="annex" ewd:figID="99" ewd:code=" "><path style="stroke-width: 0.85 ;&st7;  " d=" M  1477.34,   528.70  L  1480.17,   528.70  " /><path style="stroke-width: 0.85 ;&st7;  " d=" M  1470.25,   520.20  L  1487.25,   520.20  " /><path style="stroke-width: 0.85 ;&st7;  " d=" M  1475.92,   525.86  L  1481.59,   525.86  " /><path style="stroke-width: 0.85 ;&st7;  " d=" M  1478.75,   511.70  L  1478.75,   520.20  " /><path style="stroke-width: 0.85 ;&st7;  " d=" M  1474.50,   523.03  L  1483.00,   523.03  " /></g><g ewd:code="6" ewd:figID="102" ewd:comment="" ewd:figtype="comment"><text style="font-size:6px;font-family:'NSimSun';" transform="matrix(&st16;  1305.38  615.65 )" ewd:textID="6">* 6: 不带卷收器</text></g><g ewd:code="2" ewd:figID="89" ewd:comment="" ewd:figtype="comment"><text style="font-size:6px;font-family:'NSimSun';" transform="matrix(&st16;  1305.38  598.65 )" ewd:textID="2">* 2: 不带智能进入和起动系统</text></g><g ewd:code="5" ewd:figID="94" ewd:comment="" ewd:figtype="comment"><text style="font-size:6px;font-family:'NSimSun';" transform="matrix(&st16;  1305.38  607.15 )" ewd:textID="5">* 5: 带卷收器</text></g><g ewd:code="1" ewd:figID="97" ewd:comment="" ewd:figtype="comment"><text style="font-size:6px;font-family:'NSimSun';" transform="matrix(&st16;  1305.38  590.16 )" ewd:textID="1">* 1: 带智能进入和起动系统</text></g></svg>