<?xml version="1.0" encoding="utf-8"?>
<!DOCTYPE svg PUBLIC "-//W3C//DTD SVG 1.0//EN" "http://www.w3.org/TR/2001/REC-SVG-20010904/DTD/svg10.dtd"[
	<!ENTITY ns_flows "http://ns.adobe.com/Flows/1.0/">
	<!ENTITY ns_svg "http://www.w3.org/2000/svg">
	<!ENTITY ns_xlink "http://www.w3.org/1999/xlink">
	<!ENTITY st0 "font-size:7px;font-family:'NSimSun';adobe-font-script:japanese;">
	<!ENTITY st1 "font-size:6px;font-family:'NSimSun';">
	<!-- White fill  -->
	<!ENTITY st2 "fill:#FFFFFF;stroke:#000000; stroke-width:1.41;stroke-linecap:round;stroke-linejoin:round;">
	<!-- Yellow fill  -->
	<!ENTITY st3 "fill:#FFFFCC;stroke:#FFFFCC; stroke-width:0.1;stroke-linecap:round;stroke-linejoin:round;">
	<!-- Gray fill  -->
	<!ENTITY st4 "fill:#CCCCCC;stroke:#CCCCCC; stroke-width:0.1;stroke-linecap:round;stroke-linejoin:round;">
	<!-- Light-blue fill -->
	<!ENTITY st5 "fill:#CCECF4;stroke:#000000; stroke-width:1.133;stroke-linecap:round;stroke-linejoin:round;">
	<!ENTITY st6 "fill:none;stroke-linecap:butt; stroke-linejoin:round;">
	<!ENTITY st7 "fill:none;stroke:#000000;stroke-linecap:round;stroke-linejoin:round;">
	<!ENTITY st8 "enable-background:new    ;">
	<!-- Black fill -->
	<!ENTITY st9 "fill:#000000;stroke:#000000; stroke-linecap:round;stroke-linejoin:round;">
	<!-- SRS note   -->
	<!ENTITY st10 "font-size:9px;font-family:'NSimSun';">
	<!ENTITY st11 "font-size:9px;font-family:'NSimSun';">
	<!ENTITY st12 "font-size:6px;font-family:'NSimSun';">
	<!ENTITY st13 "fill:none;stroke:#ff0000;stroke-linecap:round;stroke-linejoin:round;">
	<!-- Yellow fill  -->
	<!ENTITY st14 "fill:#FFFF00;stroke:#FFFF00; stroke-width:0.1;stroke-linecap:round;stroke-linejoin:round;">
	<!ENTITY st15 "font-size:6px;font-family:'NSimSun';adobe-font-script:japanese;">
	<!ENTITY st16 "1.00 0.00 0.00 1.00">
	<!ENTITY st17 "0.00 -1.00 1.00 0.00">
	<!ENTITY st18 "font-size:6px;font-family:'NSimSun';">
	<!ENTITY st19 "font-size:9px;font-family:'NSimSun';">
	<!ENTITY st20 "font-size:6px;font-family:'NSimSun';adobe-font-script:japanese;">
	<!ENTITY st21 "font-size:7px;font-family:'NSimSun';adobe-font-script:japanese;">
	<!ATTLIST svg
		xmlns:ewd CDATA #FIXED "http://shcl.co.jp/ewd"
		xmlns:a CDATA #FIXED "http://ns.adobe.com/AdobeSVGViewerExtensions/3.0/"
		ewd:ver CDATA #IMPLIED
	>
	<!ATTLIST a
		ewd:lineID CDATA #IMPLIED
		ewd:groupID CDATA #IMPLIED
		ewd:figtype CDATA #IMPLIED
		ewd:code CDATA #IMPLIED
		ewd:figID CDATA #IMPLIED
		ewd:pinNo CDATA #IMPLIED
		ewd:comment CDATA #IMPLIED >
	<!ATTLIST g
		ewd:lineID CDATA #IMPLIED
		ewd:groupID CDATA #IMPLIED
		ewd:figtype CDATA #IMPLIED
		ewd:code CDATA #IMPLIED
		ewd:figID CDATA #IMPLIED
		ewd:pinNo CDATA #IMPLIED
		ewd:comment CDATA #IMPLIED >
	<!ATTLIST text
		ewd:textID CDATA #IMPLIED
		ewd:horAlign CDATA #IMPLIED >
	<!ATTLIST title
		ewd:textID CDATA #IMPLIED >
]>
<!-- Generator: Shintec Hozumi YS   -->
<svg onload="call_execInitLoadProc_svg('system')" style="overflow:visible;  enable-background:new 0 0 2534.483 710.000" viewBox="0 0 2503.264 710.000" height="710.000" width="2503.264" xml:space="preserve" ewd:ver="2.1.2.6F" xmlns="&ns_svg;" xmlns:ewd="http://shcl.co.jp/ewd" xmlns:a="http://ns.adobe.com/AdobeSVGViewerExtensions/3.0/" xmlns:xlink="&ns_xlink;"><script type="text/javascript" xlink:href="../../../../../system/js/ewd/fig/svgfig.js" xmlns:xlink="http://www.w3.org/1999/xlink" />
<g id="ewd_top"><a ewd:figtype="conn" style="cursor:pointer;" ewd:code="L51" ewd:figID="1"><path style="&st5;" d=" M  2184.14,   341.73  L  2184.14,   384.22  L  2260.62,   384.22  L  2260.62,   341.73  L  2184.14,   341.73 " /><title ewd:textID="9">车门控制接收器</title></a><a ewd:figtype="conn" style="cursor:pointer;" ewd:code="K3" ewd:figID="2"><path style="&st5;" d=" M  1240.79,   350.23  L  1240.79,   418.22  L  1291.78,   418.22  L  1291.78,   350.23  L  1240.79,   350.23 " /><title ewd:textID="25">带电动机的左后门锁总成</title></a><a ewd:figtype="conn" style="cursor:pointer;" ewd:code="E36,E37" ewd:figID="3"><path style="&st5;" d=" M   229.46,    35.78  L   229.46,    86.77  L  2337.11,    86.77  L  2337.11,    35.78  L   229.46,    35.78 " /><title ewd:textID="19">主车身 ECU</title></a><a ewd:figtype="rb" style="cursor:pointer;" ewd:code="4" ewd:figID="4"><path style="fill:#CCECF4;stroke:#000000; stroke-width:0; stroke-linecap:round;stroke-linejoin:round; " d=" M  2473.09,   273.74  L  2430.59,   273.74  L  2430.59,   307.73  L  2473.09,   307.73  L  2473.09,   273.74 " /></a><a ewd:figtype="rb" style="cursor:pointer;" ewd:code="1" ewd:figID="5"><path style="fill:#CCECF4;stroke:#000000; stroke-width:0; stroke-linecap:round;stroke-linejoin:round; " d=" M  1402.27,   290.74  L  1359.77,   290.74  L  1359.77,   324.73  L  1402.27,   324.73  L  1402.27,   290.74 " /></a><a ewd:figtype="conn" style="cursor:pointer;" ewd:code="A39" ewd:figID="6"><path style="&st5;" d=" M  1725.21,   222.75  L  1725.21,   239.75  L  1793.20,   239.75  L  1793.20,   222.75  L  1725.21,   222.75 " /><title ewd:textID="20">1 号 CAN 接线连接器</title></a><a ewd:figtype="conn" style="cursor:pointer;" ewd:code="A22" ewd:figID="7"><path style="&st5;" d=" M  2397.10,   472.07  L  2397.10,   472.07  C  2398.68    476.49   2403.54    478.79   2407.96    477.21  L  2407.96,   477.21  C  2412.38    475.63   2414.68    470.76   2413.10    466.34  L  2413.10,   466.34  C  2411.51    461.93   2406.65    459.63   2402.23    461.21  L  2402.23,   461.21  C  2400.83    461.71   2399.75    462.43   2398.76    463.54  L  2398.76,   463.54  L  2388.10,   463.54  L  2388.10,   477.71  L  2397.14,   472.04 " /><title ewd:textID="28">警报喇叭总成</title></a><a ewd:figtype="conn" style="cursor:pointer;" ewd:code="A21" ewd:figID="8"><path style="&st5;" d=" M  1385.76,   506.06  L  1385.76,   506.06  L  1376.77,   511.70  L  1376.77,   497.54  L  1387.43,   497.54  C  1388.42    496.43   1389.51    495.70   1390.91    495.20  L  1390.91,   495.20  C  1395.33    493.62   1400.19    495.92   1401.77    500.34  L  1401.77,   500.34  C  1403.35    504.76   1401.05    509.63   1396.63    511.21  L  1396.63,   511.21  C  1392.21    512.79   1387.35    510.49   1385.76    506.07 " /><title ewd:textID="17">低音喇叭总成</title></a><a ewd:figtype="conn" style="cursor:pointer;" ewd:code="A34" ewd:figID="9"><path style="&st5;" d=" M  1580.74,   409.72  L  1580.74,   460.71  L  1614.73,   460.71  L  1614.73,   409.72  L  1580.74,   409.72 " /><title ewd:textID="16">发动机罩门控灯开关（发动机罩锁总成）</title></a><a ewd:figtype="conn" style="cursor:pointer;" ewd:code="J3" ewd:figID="10"><path style="&st5;" d=" M  1155.81,   350.23  L  1155.81,   418.22  L  1206.80,   418.22  L  1206.80,   350.23  L  1155.81,   350.23 " /><title ewd:textID="26">带电动机的右后门锁总成</title></a><a ewd:figtype="conn" style="cursor:pointer;" ewd:code="H9" ewd:figID="11"><path style="&st5;" d=" M  1079.32,   418.22  L  1079.32,   350.23  L  1121.81,   350.23  L  1121.81,   418.22  L  1079.32,   418.22 " /><title ewd:textID="12">带电动机的左前门锁总成</title></a><a ewd:figtype="conn" style="cursor:pointer;" ewd:code="G8" ewd:figID="12"><path style="&st5;" d=" M   934.84,   426.71  L   934.84,   358.73  L   977.34,   358.73  L   977.34,   426.71  L   934.84,   426.71 " /><title ewd:textID="13">带电动机的右前门锁总成</title></a><a ewd:figtype="conn" style="cursor:pointer;" ewd:code="L30" ewd:figID="13"><path style="&st5;" d=" M   858.36,   418.22  L   900.85,   418.22  L   900.85,   358.73  L   858.36,   358.73  L   858.36,   418.22 " /><title ewd:textID="18">行李厢门锁总成</title></a><a ewd:figtype="conn" style="cursor:pointer;" ewd:code="L2" ewd:figID="14"><path style="&st5;" d=" M   815.86,   392.72  L   815.86,   358.73  L   798.87,   358.73  L   798.87,   392.72  L   815.86,   392.72 " /><title ewd:textID="23">左后车门门控灯开关总成</title></a><a ewd:figtype="conn" style="cursor:pointer;" ewd:code="L42" ewd:figID="15"><path style="&st5;" d=" M   756.37,   392.72  L   756.37,   358.73  L   739.38,   358.73  L   739.38,   392.72  L   756.37,   392.72 " /><title ewd:textID="24">右后车门门控灯开关总成</title></a><a ewd:figtype="conn" style="cursor:pointer;" ewd:code="L41" ewd:figID="16"><path style="&st5;" d=" M   696.88,   392.72  L   696.88,   358.73  L   679.89,   358.73  L   679.89,   392.72  L   696.88,   392.72 " /><title ewd:textID="11">右前车门门控灯开关总成</title></a><a ewd:figtype="conn" style="cursor:pointer;" ewd:code="L1" ewd:figID="17"><path style="&st5;" d=" M   603.40,   392.72  L   603.40,   358.73  L   586.40,   358.73  L   586.40,   392.72  L   603.40,   392.72 " /><title ewd:textID="10">左前车门门控灯开关总成</title></a><a ewd:figtype="rb" style="cursor:pointer;" ewd:code="FUSE16" ewd:figID="18"><path style="fill:#CCECF4;stroke:#000000; stroke-width:0; stroke-linecap:round;stroke-linejoin:round; " d=" M  2426.34,    35.78  L  2426.34,    78.27  L  2451.84,    78.27  L  2451.84,    35.78  L  2426.34,    35.78 " /></a><a ewd:figtype="rb" style="cursor:pointer;" ewd:code="FUSE14" ewd:figID="19"><path style="fill:#CCECF4;stroke:#000000; stroke-width:0; stroke-linecap:round;stroke-linejoin:round; " d=" M  1381.02,   120.77  L  1381.02,   163.26  L  1406.51,   163.26  L  1406.51,   120.77  L  1381.02,   120.77 " /></a><a ewd:figtype="rb" style="cursor:pointer;" ewd:code="FUSE5" ewd:figID="20"><path style="fill:#CCECF4;stroke:#000000; stroke-width:0; stroke-linecap:round;stroke-linejoin:round; " d=" M  2111.90,   112.27  L  2111.90,   154.76  L  2137.39,   154.76  L  2137.39,   112.27  L  2111.90,   112.27 " /></a><a ewd:figtype="conn" style="cursor:pointer;" ewd:code="E61" ewd:figID="21"><path style="&st5;" d=" M  1648.72,   469.21  L  1699.72,   469.21  L  1699.72,   418.22  L  1648.72,   418.22  L  1648.72,   469.21 " /><title ewd:textID="31">警告灯总成</title></a><a ewd:figtype="conn" style="cursor:pointer;" ewd:code="A24" ewd:figID="22"><path style="&st5;" d=" M  1470.75,   506.06  L  1470.75,   506.06  L  1461.76,   511.70  L  1461.76,   497.54  L  1472.42,   497.54  C  1473.41    496.43   1474.49    495.70   1475.89    495.20  L  1475.89,   495.20  C  1480.31    493.62   1485.18    495.92   1486.76    500.34  L  1486.76,   500.34  C  1488.34    504.76   1486.04    509.63   1481.62    511.21  L  1481.62,   511.21  C  1477.20    512.79   1472.33    510.49   1470.75    506.07 " /><title ewd:textID="15">高音喇叭总成</title></a><a ewd:figtype="rb" style="cursor:pointer;" ewd:code="FUSE5" ewd:figID="23"><path style="fill:#CCECF4;stroke:#000000; stroke-width:0; stroke-linecap:round;stroke-linejoin:round; " d=" M    12.75,    35.78  L    12.75,    78.27  L    38.24,    78.27  L    38.24,    35.78  L    12.75,    35.78 " /></a><a ewd:figtype="conn" style="cursor:pointer;" ewd:code="L52" ewd:figID="24"><path style="&st5;" d=" M  1946.17,   341.73  L  1946.17,   384.22  L  2048.16,   384.22  L  2048.16,   341.73  L  1946.17,   341.73 " /><title ewd:textID="30">智能车门控制接收器总成</title></a><a ewd:figtype="conn" style="cursor:pointer;" ewd:code="E74" ewd:figID="25"><path style="&st5;" d=" M  1835.69,   265.24  L  1886.68,   265.24  L  1886.68,   282.24  L  1835.69,   282.24  L  1835.69,   265.24 " /><title ewd:textID="21">2 号 CAN 接线连接器</title></a><a ewd:figtype="conn" style="cursor:pointer;" ewd:code="L54,L55" ewd:figID="26"><path style="&st5;" d=" M   866.86,   231.25  L   883.85,   231.25  L   883.85,   248.24  L   866.86,   248.24  L   866.86,   231.25 " /><title ewd:textID="22">7 号接线连接器</title></a><a ewd:figtype="conn" style="cursor:pointer;" ewd:code="E48,E49" ewd:figID="27"><path style="&st5;" d=" M  1827.19,   154.76  L  1827.19,   197.25  L  2056.66,   197.25  L  2056.66,   154.76  L  1827.19,   154.76 " /><title ewd:textID="7">认证 ECU</title></a><a ewd:figtype="jb" style="cursor:pointer;" ewd:code="3" ewd:figID="34"><path style="&st4; " d=" M  2107.65,   256.74  L  2107.65,   307.73  L  2133.14,   307.73  L  2133.14,   256.74  L  2107.65,   256.74  " /></a><a ewd:figtype="jb" style="cursor:pointer;" ewd:code="3" ewd:figID="35"><path style="&st4; " d=" M  2303.12,    86.77  L  2303.12,   120.77  L  2328.61,   120.77  L  2328.61,    86.77  L  2303.12,    86.77  " /></a><a ewd:figtype="jb" style="cursor:pointer;" ewd:code="3" ewd:figID="36"><path style="&st4; " d=" M   569.40,    86.77  L   569.40,   137.76  L   603.40,   137.76  L   603.40,    86.77  L   569.40,    86.77  " /></a><a ewd:figtype="jb" style="cursor:pointer;" ewd:code="3" ewd:figID="37"><path style="&st4; " d=" M   849.86,    86.77  L   849.86,   129.26  L   883.85,   129.26  L   883.85,    86.77  L   849.86,    86.77  " /></a><a ewd:figtype="jb" style="cursor:pointer;" ewd:code="3" ewd:figID="38"><path style="&st4; " d=" M    84.99,   112.27  L   144.48,   112.27  L   144.48,    35.78  L    84.99,    35.78  L    84.99,   112.27  " /></a><a ewd:figtype="jb" style="cursor:pointer;" ewd:code="3" ewd:figID="39"><path style="&st4; " d=" M   161.47,   146.26  L   407.93,   146.26  L   407.93,    86.77  L   220.96,    86.77  L   220.96,    35.78  L   161.47,    35.78  L   161.47,   146.26  " /></a><a ewd:figtype="jb" style="cursor:pointer;" ewd:code="3" ewd:figID="40"><path style="&st4; " d=" M  1164.31,    86.77  L  1164.31,   129.26  L  1325.78,   129.26  L  1325.78,    86.77  L  1164.31,    86.77  " /></a><a ewd:figtype="fuse" style="cursor:pointer;" ewd:code="FUSE5" ewd:figID="83"><path style="&st7; stroke-width:0;" d=" M    12.75,    35.78  L    12.75,    78.27  L    38.24,    78.27  L    38.24,    35.78  L    12.75,    35.78 " /></a><a ewd:figtype="fuse" style="cursor:pointer;" ewd:code="FUSE47" ewd:figID="84"><path style="&st7; stroke-width:0;" d=" M    89.24,    35.78  L    89.24,    78.27  L   114.73,    78.27  L   114.73,    35.78  L    89.24,    35.78 " /></a><a ewd:figtype="fuse" style="cursor:pointer;" ewd:code="FUSE43" ewd:figID="85"><path style="&st7; stroke-width:0;" d=" M   165.72,    35.78  L   165.72,    78.27  L   191.22,    78.27  L   191.22,    35.78  L   165.72,    35.78 " /></a><a ewd:figtype="fuse" style="cursor:pointer;" ewd:code="FUSE14" ewd:figID="86"><path style="&st7; stroke-width:0;" d=" M  1381.02,   120.77  L  1381.02,   163.26  L  1406.51,   163.26  L  1406.51,   120.77  L  1381.02,   120.77 " /></a><a ewd:figtype="fuse" style="cursor:pointer;" ewd:code="FUSE5" ewd:figID="87"><path style="&st7; stroke-width:0;" d=" M  2111.90,   112.27  L  2111.90,   154.76  L  2137.39,   154.76  L  2137.39,   112.27  L  2111.90,   112.27 " /></a><a ewd:figtype="fuse" style="cursor:pointer;" ewd:code="FUSE16" ewd:figID="88"><path style="&st7; stroke-width:0;" d=" M  2426.34,    35.78  L  2426.34,    78.27  L  2451.84,    78.27  L  2451.84,    35.78  L  2426.34,    35.78 " /></a><a style="cursor:pointer;" ewd:lineID="1"><path style="stroke:#008837;stroke-width: 5.10 ;&st6;" d=" M    25.50,   103.77  L    25.50,   265.24  L   322.95,   265.24  L   322.95,   146.26  " /></a><a style="cursor:pointer;" ewd:lineID="2"><path style="stroke:#00A0C6;stroke-width: 5.10 ;&st6;" d=" M   101.98,   112.27  L   101.98,   248.24  L   288.95,   248.24  L   288.95,   146.26  " /></a><a style="cursor:pointer;" ewd:lineID="3"><path style="stroke:#000000;stroke-width: 5.10 ;&st6;" d=" M   356.94,   146.26  L   356.94,   681.67  " /><path style="stroke:#FFFFFF;stroke-width: 4.53 ;&st6;" d=" M   356.94,   146.26  L   356.94,   681.67  " /><path style="stroke:#000000;stroke-width: 1.13 ;&st6;" d=" M   356.94,   146.26  L   356.94,   681.67  " /></a><a style="cursor:pointer;" ewd:lineID="4"><path style="stroke:#000000;stroke-width: 5.10 ;&st6;" d=" M   399.43,   146.26  L   399.43,   681.67  " /><path style="stroke:#FFFFFF;stroke-width: 4.53 ;&st6;" d=" M   399.43,   146.26  L   399.43,   681.67  " /><path style="stroke:#000000;stroke-width: 1.13 ;&st6;" d=" M   399.43,   146.26  L   399.43,   681.67  " /></a><a style="cursor:pointer;" ewd:lineID="5"><path style="stroke:#00A0C6;stroke-width: 5.10 ;&st6;" d=" M   441.93,    95.84  L   441.93,   120.77  L   475.92,   120.77  L   475.92,    95.84  " /></a><a ewd:comment="3" style="cursor:pointer;" ewd:lineID="6"> d=" M   594.90,   358.73  L   594.90,   350.23  L   586.40,   341.73  L   560.91,   341.73  L   560.91,   256.74 
	
		<path style="stroke:#000000;stroke-width: 5.10 ;&st6;" d=" M   594.90,   358.73  L   594.90,   350.23  L   586.40,   341.73  L   560.91,   341.73  L   560.91,   256.74  " /><path style="stroke:#FFFFFF;stroke-width: 4.53 ;&st6;" d=" M   594.90,   358.73  L   594.90,   350.23  L   586.40,   341.73  L   560.91,   341.73  L   560.91,   256.74  " /></a><a ewd:comment="3" style="cursor:pointer;" ewd:lineID="7"> d=" M   594.90,   137.76  L   594.90,   146.26  L   586.40,   154.76  L   560.91,   154.76  L   560.91,   239.75 
	
		<path style="stroke:#000000;stroke-width: 5.10 ;&st6;" d=" M   594.90,   137.76  L   594.90,   146.26  L   586.40,   154.76  L   560.91,   154.76  L   560.91,   239.75  " /><path style="stroke:#FFFFFF;stroke-width: 4.53 ;&st6;" d=" M   594.90,   137.76  L   594.90,   146.26  L   586.40,   154.76  L   560.91,   154.76  L   560.91,   239.75  " /></a><a ewd:comment="4" style="cursor:pointer;" ewd:lineID="8"> d=" M   594.90,   137.76  L   594.90,   358.73 
	
		<path style="stroke:#000000;stroke-width: 5.10 ;&st6;" d=" M   594.90,   137.76  L   594.90,   358.73  " /><path style="stroke:#FFFFFF;stroke-width: 4.53 ;&st6;" d=" M   594.90,   137.76  L   594.90,   358.73  " /></a><a style="cursor:pointer;" ewd:lineID="9"><path style="stroke:#56077D;stroke-width: 5.10 ;&st6;" d=" M   688.38,   245.98  L   688.38,   358.73  " /></a><a ewd:comment="3" style="cursor:pointer;" ewd:lineID="10"><path style="stroke:#56077D;stroke-width: 5.10 ;&st6;" d=" M   688.38,   231.25  L   688.38,   222.75  L   679.89,   214.25  L   654.39,   214.25  L   654.39,   171.76  " /></a><a ewd:comment="3" style="cursor:pointer;" ewd:lineID="11"><path style="stroke:#56077D;stroke-width: 5.10 ;&st6;" d=" M   688.38,    95.84  L   688.38,   103.77  L   679.89,   112.27  L   654.39,   112.27  L   654.39,   154.76  " /></a><a ewd:comment="4" style="cursor:pointer;" ewd:lineID="12"><path style="stroke:#56077D;stroke-width: 5.10 ;&st6;" d=" M   688.38,    95.84  L   688.38,   231.25  " /></a><a style="cursor:pointer;" ewd:lineID="13"><path style="stroke:#7FC97F;stroke-width: 5.10 ;&st6;" d=" M   747.88,   245.98  L   747.88,   358.73  " /></a><a style="cursor:pointer;" ewd:lineID="14"><path style="stroke:#7FC97F;stroke-width: 5.10 ;&st6;" d=" M   747.88,    95.84  L   747.88,   231.25  " /></a><a style="cursor:pointer;" ewd:lineID="15"><path style="stroke:#99D9E8;stroke-width: 5.10 ;&st6;" d=" M   807.37,   245.98  L   807.37,   358.73  " /></a><a style="cursor:pointer;" ewd:lineID="16"><path style="stroke:#99D9E8;stroke-width: 5.10 ;&st6;" d=" M   807.37,    95.84  L   807.37,   231.25  " /></a><a style="cursor:pointer;" ewd:lineID="17"><path style="stroke:#000000;stroke-width: 5.10 ;&st6;" d=" M   875.35,   579.69  L   875.35,   681.67  " /><path style="stroke:#FFFFFF;stroke-width: 4.53 ;&st6;" d=" M   875.35,   579.69  L   875.35,   681.67  " /><path style="stroke:#000000;stroke-width: 1.13 ;&st6;" d=" M   875.35,   579.69  L   875.35,   681.67  " /></a><a style="cursor:pointer;" ewd:lineID="18"><path style="stroke:#000000;stroke-width: 5.10 ;&st6;" d=" M   875.35,   418.22  L   875.35,   562.69  " /><path style="stroke:#FFFFFF;stroke-width: 4.53 ;&st6;" d=" M   875.35,   418.22  L   875.35,   562.69  " /><path style="stroke:#000000;stroke-width: 1.13 ;&st6;" d=" M   875.35,   418.22  L   875.35,   562.69  " /></a><a style="cursor:pointer;" ewd:lineID="19"><path style="stroke:#7FC97F;stroke-width: 5.10 ;&st6;" d=" M   875.35,   257.31  L   875.35,   358.73  " /></a><a style="cursor:pointer;" ewd:lineID="20"><path style="stroke:#7FC97F;stroke-width: 5.10 ;&st6;" d=" M   875.35,   129.26  L   875.35,   222.18  " /></a><a style="cursor:pointer;" ewd:lineID="21"><path style="stroke:#000000;stroke-width: 5.10 ;&st6;" d=" M   960.34,   611.42  L   960.34,   681.67  " /><path style="stroke:#FFFFFF;stroke-width: 4.53 ;&st6;" d=" M   960.34,   611.42  L   960.34,   681.67  " /><path style="stroke:#000000;stroke-width: 1.13 ;&st6;" d=" M   960.34,   611.42  L   960.34,   681.67  " /></a><a style="cursor:pointer;" ewd:lineID="22"><path style="stroke:#000000;stroke-width: 5.10 ;&st6;" d=" M   960.34,   528.70  L   960.34,   596.69  " /><path style="stroke:#FFFFFF;stroke-width: 4.53 ;&st6;" d=" M   960.34,   528.70  L   960.34,   596.69  " /><path style="stroke:#000000;stroke-width: 1.13 ;&st6;" d=" M   960.34,   528.70  L   960.34,   596.69  " /></a><a style="cursor:pointer;" ewd:lineID="23"><path style="stroke:#000000;stroke-width: 5.10 ;&st6;" d=" M   960.34,   426.71  L   960.34,   511.70  " /><path style="stroke:#FFFFFF;stroke-width: 4.53 ;&st6;" d=" M   960.34,   426.71  L   960.34,   511.70  " /><path style="stroke:#000000;stroke-width: 1.13 ;&st6;" d=" M   960.34,   426.71  L   960.34,   511.70  " /></a><a style="cursor:pointer;" ewd:lineID="24"><path style="stroke:#FFE600;stroke-width: 5.10 ;&st6;" d=" M   960.34,   239.75  L   960.34,   358.73  " /></a><a style="cursor:pointer;" ewd:lineID="25"><path style="stroke:#7FC97F;stroke-width: 5.10 ;&st6;" d=" M   960.34,    95.84  L   960.34,   225.01  " /></a><a style="cursor:pointer;" ewd:lineID="26"><path style="stroke:#000000;stroke-width: 5.10 ;&st6;" d=" M  1104.82,   611.42  L  1104.82,   681.67  " /><path style="stroke:#FFFFFF;stroke-width: 4.53 ;&st6;" d=" M  1104.82,   611.42  L  1104.82,   681.67  " /><path style="stroke:#000000;stroke-width: 1.13 ;&st6;" d=" M  1104.82,   611.42  L  1104.82,   681.67  " /></a><a style="cursor:pointer;" ewd:lineID="27"><path style="stroke:#000000;stroke-width: 5.10 ;&st6;" d=" M  1104.82,   528.70  L  1104.82,   596.69  " /><path style="stroke:#FFFFFF;stroke-width: 4.53 ;&st6;" d=" M  1104.82,   528.70  L  1104.82,   596.69  " /><path style="stroke:#000000;stroke-width: 1.13 ;&st6;" d=" M  1104.82,   528.70  L  1104.82,   596.69  " /></a><a style="cursor:pointer;" ewd:lineID="28"><path style="stroke:#000000;stroke-width: 5.10 ;&st6;" d=" M  1104.82,   418.22  L  1104.82,   511.70  " /><path style="stroke:#FFFFFF;stroke-width: 4.53 ;&st6;" d=" M  1104.82,   418.22  L  1104.82,   511.70  " /><path style="stroke:#000000;stroke-width: 1.13 ;&st6;" d=" M  1104.82,   418.22  L  1104.82,   511.70  " /></a><a style="cursor:pointer;" ewd:lineID="29"><path style="stroke:#FFE600;stroke-width: 5.10 ;&st6;" d=" M  1104.82,   350.23  L  1104.82,   239.75  " /></a><a ewd:comment="5" style="cursor:pointer;" ewd:lineID="30"><path style="stroke:#FFE600;stroke-width: 5.10 ;&st6;" d=" M  1104.82,   225.01  L  1104.82,   222.75  L  1096.32,   214.25  L  1070.82,   214.25  L  1070.82,   171.76  " /></a><a ewd:comment="5" style="cursor:pointer;" ewd:lineID="31"><path style="stroke:#FFE600;stroke-width: 5.10 ;&st6;" d=" M  1104.82,    95.84  L  1104.82,   103.77  L  1096.32,   112.27  L  1070.82,   112.27  L  1070.82,   154.76  " /></a><a ewd:comment="6" style="cursor:pointer;" ewd:lineID="32"><path style="stroke:#FFE600;stroke-width: 5.10 ;&st6;" d=" M  1104.82,    95.84  L  1104.82,   225.01  " /></a><a style="cursor:pointer;" ewd:lineID="33"><path style="stroke:#000000;stroke-width: 5.10 ;&st6;" d=" M  1181.30,   526.43  L  1181.30,   681.67  " /><path style="stroke:#FFFFFF;stroke-width: 4.53 ;&st6;" d=" M  1181.30,   526.43  L  1181.30,   681.67  " /><path style="stroke:#000000;stroke-width: 1.13 ;&st6;" d=" M  1181.30,   526.43  L  1181.30,   681.67  " /></a><a style="cursor:pointer;" ewd:lineID="34"><path style="stroke:#000000;stroke-width: 5.10 ;&st6;" d=" M  1181.30,   511.70  L  1181.30,   418.22  " /><path style="stroke:#FFFFFF;stroke-width: 4.53 ;&st6;" d=" M  1181.30,   511.70  L  1181.30,   418.22  " /><path style="stroke:#000000;stroke-width: 1.13 ;&st6;" d=" M  1181.30,   511.70  L  1181.30,   418.22  " /></a><a style="cursor:pointer;" ewd:lineID="35"><path style="stroke:#FFE600;stroke-width: 5.10 ;&st6;" d=" M  1181.30,   239.75  L  1181.30,   350.23  " /></a><a style="cursor:pointer;" ewd:lineID="36"><path style="stroke:#FFE600;stroke-width: 5.10 ;&st6;" d=" M  1181.30,   129.26  L  1181.30,   225.01  " /></a><a style="cursor:pointer;" ewd:lineID="37"><path style="stroke:#000000;stroke-width: 5.10 ;&st6;" d=" M  1266.29,   526.43  L  1266.29,   681.67  " /><path style="stroke:#FFFFFF;stroke-width: 4.53 ;&st6;" d=" M  1266.29,   526.43  L  1266.29,   681.67  " /><path style="stroke:#000000;stroke-width: 1.13 ;&st6;" d=" M  1266.29,   526.43  L  1266.29,   681.67  " /></a><a style="cursor:pointer;" ewd:lineID="38"><path style="stroke:#000000;stroke-width: 5.10 ;&st6;" d=" M  1266.29,   511.70  L  1266.29,   418.22  " /><path style="stroke:#FFFFFF;stroke-width: 4.53 ;&st6;" d=" M  1266.29,   511.70  L  1266.29,   418.22  " /><path style="stroke:#000000;stroke-width: 1.13 ;&st6;" d=" M  1266.29,   511.70  L  1266.29,   418.22  " /></a><a style="cursor:pointer;" ewd:lineID="39"><path style="stroke:#FFE600;stroke-width: 5.10 ;&st6;" d=" M  1266.29,   239.75  L  1266.29,   350.23  " /></a><a style="cursor:pointer;" ewd:lineID="40"><path style="stroke:#FFE600;stroke-width: 5.10 ;&st6;" d=" M  1266.29,   129.26  L  1266.29,   225.01  " /></a><a style="cursor:pointer;" ewd:lineID="41"><path style="stroke:#7FC97F;stroke-width: 5.10 ;&st6;" d=" M  1317.28,   129.26  L  1317.28,   392.72  L  1368.27,   392.72  L  1368.27,   358.73  " /></a><a style="cursor:pointer;" ewd:lineID="42"><path style="stroke:#000000;stroke-width: 5.10 ;&st6;" d=" M  1393.77,   358.73  L  1393.77,   494.70  " /></a><a style="cursor:pointer;" ewd:lineID="43"><path style="stroke:#000000;stroke-width: 5.10 ;&st6;" d=" M  1393.77,   256.74  L  1393.77,   248.24  L  1385.27,   239.75  L  1368.27,   239.75  L  1368.27,   256.74  " /></a><a style="cursor:pointer;" ewd:lineID="44"><path style="stroke:#000000;stroke-width: 5.10 ;&st6;" d=" M  1393.77,   188.75  L  1393.77,   256.74  " /></a><a style="cursor:pointer;" ewd:lineID="45"><path style="stroke:#000000;stroke-width: 5.10 ;&st6;" d=" M  1478.75,   494.70  L  1478.75,   375.72  L  1402.27,   375.72  L  1393.77,   367.22  L  1393.77,   358.73  " /></a><a style="cursor:pointer;" ewd:lineID="46"><path style="stroke:#000000;stroke-width: 5.10 ;&st6;" d=" M  1597.73,   588.19  L  1597.73,   681.67  " /><path style="stroke:#FFFFFF;stroke-width: 4.53 ;&st6;" d=" M  1597.73,   588.19  L  1597.73,   681.67  " /><path style="stroke:#000000;stroke-width: 1.13 ;&st6;" d=" M  1597.73,   588.19  L  1597.73,   681.67  " /></a><a style="cursor:pointer;" ewd:lineID="47"><path style="stroke:#56077D;stroke-width: 5.10 ;&st6;" d=" M  1597.73,   571.19  L  1597.73,   460.71  " /></a><a style="cursor:pointer;" ewd:lineID="48"><path style="stroke:#000000;stroke-width: 5.10 ;&st6;" d=" M  1597.73,   222.75  L  1597.73,   409.72  " /></a><a style="cursor:pointer;" ewd:lineID="49"><path style="stroke:#99D9E8;stroke-width: 5.10 ;&st6;" d=" M  1597.73,    95.84  L  1597.73,   208.02  " /></a><a style="cursor:pointer;" ewd:lineID="50"><path style="stroke:#000000;stroke-width: 5.10 ;&st6;" d=" M  1674.22,   469.21  L  1674.22,   681.67  " /><path style="stroke:#FFFFFF;stroke-width: 4.53 ;&st6;" d=" M  1674.22,   469.21  L  1674.22,   681.67  " /><path style="stroke:#000000;stroke-width: 1.13 ;&st6;" d=" M  1674.22,   469.21  L  1674.22,   681.67  " /></a><a ewd:comment="1" style="cursor:pointer;" ewd:lineID="51"><path style="stroke:#FFE600;stroke-width: 5.10 ;&st6;" d=" M  1674.22,   418.22  L  1674.22,   409.72  L  1682.72,   401.22  L  1929.18,   401.22  L  1929.18,   206.32  " /></a><a ewd:comment="2" style="cursor:pointer;" ewd:lineID="52"><path style="stroke:#FFE600;stroke-width: 5.10 ;&st6;" d=" M  1674.22,   239.75  L  1674.22,   418.22  " /></a><a ewd:comment="2" style="cursor:pointer;" ewd:lineID="53"><path style="stroke:#FFE600;stroke-width: 5.10 ;&st6;" d=" M  1674.22,   222.75  L  1674.22,    95.84  " /></a><a ewd:comment="1" style="cursor:pointer;" ewd:lineID="54"> d=" M  1733.71,   299.24  L  1733.71,   239.75 
	
		<path style="stroke:#000000;stroke-width: 5.10 ;&st6;" d=" M  1733.71,   299.24  L  1733.71,   239.75  " /><path style="stroke:#FFFFFF;stroke-width: 4.53 ;&st6;" d=" M  1733.71,   299.24  L  1733.71,   239.75  " /></a><a ewd:comment="1" style="cursor:pointer;" ewd:lineID="55"> d=" M  1733.71,   171.76  L  1733.71,   222.75 
	
		<path style="stroke:#000000;stroke-width: 5.10 ;&st6;" d=" M  1733.71,   171.76  L  1733.71,   222.75  " /><path style="stroke:#FFFFFF;stroke-width: 4.53 ;&st6;" d=" M  1733.71,   171.76  L  1733.71,   222.75  " /></a><a ewd:comment="1" style="cursor:pointer;" ewd:lineID="56"> d=" M  1733.71,    95.84  L  1733.71,   156.74 
	
		<path style="stroke:#000000;stroke-width: 5.10 ;&st6;" d=" M  1733.71,    95.84  L  1733.71,   156.74  " /><path style="stroke:#FFFFFF;stroke-width: 4.53 ;&st6;" d=" M  1733.71,    95.84  L  1733.71,   156.74  " /></a><a ewd:comment="1" style="cursor:pointer;" ewd:lineID="57"><path style="stroke:#00A0C6;stroke-width: 5.10 ;&st6;" d=" M  1784.70,   299.24  L  1784.70,   239.75  " /></a><a ewd:comment="1" style="cursor:pointer;" ewd:lineID="58"><path style="stroke:#008837;stroke-width: 5.10 ;&st6;" d=" M  1784.70,   171.76  L  1784.70,   222.75  " /></a><a ewd:comment="1" style="cursor:pointer;" ewd:lineID="59"><path style="stroke:#008837;stroke-width: 5.10 ;&st6;" d=" M  1784.70,    95.84  L  1784.70,   157.03  " /></a><a ewd:comment="1" style="cursor:pointer;" ewd:lineID="60"><path style="stroke:#00A0C6;stroke-width: 5.10 ;&st6;" d=" M  1844.19,   282.24  L  1844.19,   333.23  L  1784.70,   333.23  L  1784.70,   313.97  " /></a><a ewd:comment="1" style="cursor:pointer;" ewd:lineID="61"><path style="stroke:#FF0000;stroke-width: 5.10 ;&st6;" d=" M  1844.19,   206.32  L  1844.19,   265.24  " /></a><a ewd:comment="1" style="cursor:pointer;" ewd:lineID="62"> d=" M  1878.19,   282.24  L  1878.19,   367.22  L  1733.71,   367.22  L  1733.71,   314.25 
	
		<path style="stroke:#000000;stroke-width: 5.10 ;&st6;" d=" M  1878.19,   282.24  L  1878.19,   367.22  L  1733.71,   367.22  L  1733.71,   314.25  " /><path style="stroke:#FFFFFF;stroke-width: 4.53 ;&st6;" d=" M  1878.19,   282.24  L  1878.19,   367.22  L  1733.71,   367.22  L  1733.71,   314.25  " /></a><a ewd:comment="1" style="cursor:pointer;" ewd:lineID="63"> d=" M  1878.19,   206.32  L  1878.19,   265.24 
	
		<path style="stroke:#000000;stroke-width: 5.10 ;&st6;" d=" M  1878.19,   206.32  L  1878.19,   265.24  " /><path style="stroke:#FFFFFF;stroke-width: 4.53 ;&st6;" d=" M  1878.19,   206.32  L  1878.19,   265.24  " /></a><a ewd:comment="1" style="cursor:pointer;" ewd:lineID="64"><path style="stroke:#56077D;stroke-width: 5.10 ;&st6;" d=" M  1963.17,   279.97  L  1963.17,   341.73  " /></a><a ewd:comment="1" style="cursor:pointer;" ewd:lineID="65"><path style="stroke:#56077D;stroke-width: 5.10 ;&st6;" d=" M  1963.17,   206.32  L  1963.17,   265.24  " /></a><a ewd:comment="1" style="cursor:pointer;" ewd:lineID="66"><path style="stroke:#FFE600;stroke-width: 5.10 ;&st6;" d=" M  1997.17,   279.97  L  1997.17,   341.73  " /></a><a ewd:comment="1" style="cursor:pointer;" ewd:lineID="67"><path style="stroke:#FFE600;stroke-width: 5.10 ;&st6;" d=" M  1997.17,   206.32  L  1997.17,   265.24  " /></a><a ewd:comment="1" style="cursor:pointer;" ewd:lineID="68"><path style="stroke:#000000;stroke-width: 5.10 ;&st6;" d=" M  2031.16,   384.22  L  2031.16,   681.67  " /><path style="stroke:#FFFFFF;stroke-width: 4.53 ;&st6;" d=" M  2031.16,   384.22  L  2031.16,   681.67  " /><path style="stroke:#000000;stroke-width: 1.13 ;&st6;" d=" M  2031.16,   384.22  L  2031.16,   681.67  " /></a><a ewd:comment="1" style="cursor:pointer;" ewd:lineID="69"><path style="stroke:#00A0C6;stroke-width: 5.10 ;&st6;" d=" M  2031.16,   279.97  L  2031.16,   341.73  " /></a><a ewd:comment="1" style="cursor:pointer;" ewd:lineID="70"><path style="stroke:#00A0C6;stroke-width: 5.10 ;&st6;" d=" M  2031.16,   206.32  L  2031.16,   265.24  " /></a><a ewd:comment="2" style="cursor:pointer;" ewd:lineID="71"><path style="stroke:#F668B2;stroke-width: 5.10 ;&st6;" d=" M  2124.65,   307.73  L  2124.65,   409.72  L  2201.13,   409.72  L  2201.13,   384.22  " /></a><a ewd:comment="2" style="cursor:pointer;" ewd:lineID="72"><path style="stroke:#008837;stroke-width: 5.10 ;&st6;" d=" M  2124.65,   180.26  L  2124.65,   256.74  " /></a><a ewd:comment="2" style="cursor:pointer;" ewd:lineID="73"><path style="stroke:#008837;stroke-width: 5.10 ;&st6;" d=" M  2201.13,   237.48  L  2201.13,   341.73  " /></a><a ewd:comment="2" style="cursor:pointer;" ewd:lineID="74"><path style="stroke:#008837;stroke-width: 5.10 ;&st6;" d=" M  2201.13,    95.84  L  2201.13,   222.75  " /></a><a ewd:comment="2" style="cursor:pointer;" ewd:lineID="75"><path style="stroke:#992903;stroke-width: 5.10 ;&st6;" d=" M  2243.63,   681.67  L  2243.63,   384.22  " /></a><a ewd:comment="2" style="cursor:pointer;" ewd:lineID="76"><path style="stroke:#FFE600;stroke-width: 5.10 ;&st6;" d=" M  2243.63,   237.48  L  2243.63,   341.73  " /></a><a ewd:comment="2" style="cursor:pointer;" ewd:lineID="77"><path style="stroke:#FFE600;stroke-width: 5.10 ;&st6;" d=" M  2243.63,    95.84  L  2243.63,   222.75  " /></a><a style="cursor:pointer;" ewd:lineID="78"><path style="stroke:#FF0000;stroke-width: 5.10 ;&st6;" d=" M  2320.11,   120.77  L  2320.11,   528.70  L  2464.59,   528.70  L  2464.59,   341.73  " /></a><a style="cursor:pointer;" ewd:lineID="79"><path style="stroke:#000000;stroke-width: 5.10 ;&st6;" d=" M  2405.10,   460.71  L  2405.10,   409.72  " /></a><a style="cursor:pointer;" ewd:lineID="80"><path style="stroke:#000000;stroke-width: 5.10 ;&st6;" d=" M  2405.10,   394.99  L  2405.10,   384.22  L  2439.09,   384.22  L  2439.09,   341.73  " /></a><a style="cursor:pointer;" ewd:lineID="81"><path style="stroke:#999999;stroke-width: 5.10 ;&st6;" d=" M  2439.09,   239.75  L  2439.09,   231.25  L  2447.59,   222.75  L  2481.59,   222.75  L  2481.59,   239.75  " /></a><a style="cursor:pointer;" ewd:lineID="82"><path style="stroke:#56077D;stroke-width: 5.10 ;&st6;" d=" M  2439.09,   169.49  L  2439.09,   239.75  " /></a><a style="cursor:pointer;" ewd:lineID="83"><path style="stroke:#56077D;stroke-width: 5.10 ;&st6;" d=" M  2439.09,   103.77  L  2439.09,   154.76  " /></a><a ewd:figtype="w2w" style="cursor:pointer;" ewd:pinNo="10" ewd:code="EL4" ewd:figID="41"><path style="&st2;" d=" M   696.88,   231.25  L   679.89,   231.25  L   679.89,   239.75  L   696.88,   239.75  L   696.88,   231.25 " /><text style="&st8;" transform="matrix(&st16;  683.31  237.62 )"><tspan x="0" style="font-size:6px;font-family:'NSimSun';" y="0">EL4</tspan></text></a><a ewd:figtype="w2w" style="cursor:pointer;" ewd:pinNo="9" ewd:code="EL4" ewd:figID="42"><path style="&st2;" d=" M   756.37,   231.25  L   739.38,   231.25  L   739.38,   239.75  L   756.37,   239.75  L   756.37,   231.25 " /><text style="&st8;" transform="matrix(&st16;  742.8  237.62 )"><tspan x="0" style="font-size:6px;font-family:'NSimSun';" y="0">EL4</tspan></text></a><a ewd:figtype="w2w" style="cursor:pointer;" ewd:pinNo="5" ewd:code="EL2" ewd:figID="43"><path style="&st2;" d=" M   815.86,   231.25  L   798.87,   231.25  L   798.87,   239.75  L   815.86,   239.75  L   815.86,   231.25 " /><text style="&st8;" transform="matrix(&st16;  802.29  237.62 )"><tspan x="0" style="font-size:6px;font-family:'NSimSun';" y="0">EL2</tspan></text></a><a ewd:figtype="w2w" style="cursor:pointer;" ewd:pinNo="8" ewd:code="GE3" ewd:figID="44"><path style="&st2;" d=" M   968.84,   596.69  L   951.84,   596.69  L   951.84,   605.18  L   968.84,   605.18  L   968.84,   596.69 " /><text style="&st8;" transform="matrix(&st16;  954.88  603.06 )"><tspan x="0" style="font-size:6px;font-family:'NSimSun';" y="0">GE3</tspan></text></a><a ewd:figtype="w2w" style="cursor:pointer;" ewd:pinNo="18" ewd:code="GE1" ewd:figID="45"><path style="&st2;" d=" M   968.84,   231.25  L   951.84,   231.25  L   951.84,   239.75  L   968.84,   239.75  L   968.84,   231.25 " /><text style="&st8;" transform="matrix(&st16;  954.88  237.62 )"><tspan x="0" style="font-size:6px;font-family:'NSimSun';" y="0">GE1</tspan></text></a><a ewd:figtype="w2w" style="cursor:pointer;" ewd:pinNo="8" ewd:code="HE3" ewd:figID="46"><path style="&st2;" d=" M  1113.31,   596.69  L  1096.32,   596.69  L  1096.32,   605.18  L  1113.31,   605.18  L  1113.31,   596.69 " /><text style="&st8;" transform="matrix(&st16;  1099.32  603.06 )"><tspan x="0" style="font-size:6px;font-family:'NSimSun';" y="0">HE3</tspan></text></a><a ewd:figtype="w2w" style="cursor:pointer;" ewd:pinNo="18" ewd:code="HE1" ewd:figID="47"><path style="&st2;" d=" M  1113.31,   231.25  L  1096.32,   231.25  L  1096.32,   239.75  L  1113.31,   239.75  L  1113.31,   231.25 " /><text style="&st8;" transform="matrix(&st16;  1099.32  237.62 )"><tspan x="0" style="font-size:6px;font-family:'NSimSun';" y="0">HE1</tspan></text></a><a ewd:figtype="w2w" style="cursor:pointer;" ewd:pinNo="10" ewd:code="JL1" ewd:figID="48"><path style="&st2;" d=" M  1189.80,   511.70  L  1172.80,   511.70  L  1172.80,   520.20  L  1189.80,   520.20  L  1189.80,   511.70 " /><text style="&st8;" transform="matrix(&st16;  1176.86  518.07 )"><tspan x="0" style="font-size:6px;font-family:'NSimSun';" y="0">JL1</tspan></text></a><a ewd:figtype="w2w" style="cursor:pointer;" ewd:pinNo="3" ewd:code="JL1" ewd:figID="49"><path style="&st2;" d=" M  1189.80,   231.25  L  1172.80,   231.25  L  1172.80,   239.75  L  1189.80,   239.75  L  1189.80,   231.25 " /><text style="&st8;" transform="matrix(&st16;  1176.86  237.62 )"><tspan x="0" style="font-size:6px;font-family:'NSimSun';" y="0">JL1</tspan></text></a><a ewd:figtype="w2w" style="cursor:pointer;" ewd:pinNo="10" ewd:code="KL1" ewd:figID="50"><path style="&st2;" d=" M  1274.79,   511.70  L  1257.79,   511.70  L  1257.79,   520.20  L  1274.79,   520.20  L  1274.79,   511.70 " /><text style="&st8;" transform="matrix(&st16;  1261.02  518.07 )"><tspan x="0" style="font-size:6px;font-family:'NSimSun';" y="0">KL1</tspan></text></a><a ewd:figtype="w2w" style="cursor:pointer;" ewd:pinNo="3" ewd:code="KL1" ewd:figID="51"><path style="&st2;" d=" M  1274.79,   231.25  L  1257.79,   231.25  L  1257.79,   239.75  L  1274.79,   239.75  L  1274.79,   231.25 " /><text style="&st8;" transform="matrix(&st16;  1261.02  237.62 )"><tspan x="0" style="font-size:6px;font-family:'NSimSun';" y="0">KL1</tspan></text></a><a ewd:figtype="w2w" style="cursor:pointer;" ewd:pinNo="11" ewd:code="AE3" ewd:figID="52"><path style="&st2;" d=" M  1606.23,   214.25  L  1589.23,   214.25  L  1589.23,   222.75  L  1606.23,   222.75  L  1606.23,   214.25 " /><text style="&st8;" transform="matrix(&st16;  1592.43  220.62 )"><tspan x="0" style="font-size:6px;font-family:'NSimSun';" y="0">AE3</tspan></text></a><a ewd:figtype="w2w" style="cursor:pointer;" ewd:pinNo="3" ewd:code="AE4" ewd:figID="53"><path style="&st2;" d=" M  1742.21,   299.24  L  1725.21,   299.24  L  1725.21,   307.73  L  1742.21,   307.73  L  1742.21,   299.24 " /><text style="&st8;" transform="matrix(&st16;  1728.41  305.6 )"><tspan x="0" style="font-size:6px;font-family:'NSimSun';" y="0">AE4</tspan></text></a><a ewd:figtype="w2w" style="cursor:pointer;" ewd:pinNo="5" ewd:code="AE2" ewd:figID="54"><path style="&st2;" d=" M  1742.21,   163.26  L  1725.21,   163.26  L  1725.21,   171.76  L  1742.21,   171.76  L  1742.21,   163.26 " /><text style="&st8;" transform="matrix(&st16;  1728.41  169.63 )"><tspan x="0" style="font-size:6px;font-family:'NSimSun';" y="0">AE2</tspan></text></a><a ewd:figtype="w2w" style="cursor:pointer;" ewd:pinNo="4" ewd:code="AE4" ewd:figID="55"><path style="&st2;" d=" M  1793.20,   299.24  L  1776.20,   299.24  L  1776.20,   307.73  L  1793.20,   307.73  L  1793.20,   299.24 " /><text style="&st8;" transform="matrix(&st16;  1779.4  305.6 )"><tspan x="0" style="font-size:6px;font-family:'NSimSun';" y="0">AE4</tspan></text></a><a ewd:figtype="w2w" style="cursor:pointer;" ewd:pinNo="4" ewd:code="AE2" ewd:figID="56"><path style="&st2;" d=" M  1793.20,   163.26  L  1776.20,   163.26  L  1776.20,   171.76  L  1793.20,   171.76  L  1793.20,   163.26 " /><text style="&st8;" transform="matrix(&st16;  1779.4  169.63 )"><tspan x="0" style="font-size:6px;font-family:'NSimSun';" y="0">AE2</tspan></text></a><a ewd:figtype="w2w" style="cursor:pointer;" ewd:pinNo="9" ewd:code="EL2" ewd:figID="57"><path style="&st2;" d=" M  1971.67,   265.24  L  1954.67,   265.24  L  1954.67,   273.74  L  1971.67,   273.74  L  1971.67,   265.24 " /><text style="&st8;" transform="matrix(&st16;  1958.09  271.61 )"><tspan x="0" style="font-size:6px;font-family:'NSimSun';" y="0">EL2</tspan></text></a><a ewd:figtype="w2w" style="cursor:pointer;" ewd:pinNo="10" ewd:code="EL2" ewd:figID="58"><path style="&st2;" d=" M  2005.66,   265.24  L  1988.67,   265.24  L  1988.67,   273.74  L  2005.66,   273.74  L  2005.66,   265.24 " /><text style="&st8;" transform="matrix(&st16;  1992.09  271.61 )"><tspan x="0" style="font-size:6px;font-family:'NSimSun';" y="0">EL2</tspan></text></a><a ewd:figtype="w2w" style="cursor:pointer;" ewd:pinNo="8" ewd:code="EL2" ewd:figID="59"><path style="&st2;" d=" M  2039.66,   265.24  L  2022.66,   265.24  L  2022.66,   273.74  L  2039.66,   273.74  L  2039.66,   265.24 " /><text style="&st8;" transform="matrix(&st16;  2026.08  271.61 )"><tspan x="0" style="font-size:6px;font-family:'NSimSun';" y="0">EL2</tspan></text></a><a ewd:figtype="w2w" style="cursor:pointer;" ewd:pinNo="13" ewd:code="EL2" ewd:figID="60"><path style="&st2;" d=" M  2209.63,   222.75  L  2192.63,   222.75  L  2192.63,   231.25  L  2209.63,   231.25  L  2209.63,   222.75 " /><text style="&st8;" transform="matrix(&st16;  2196.05  229.12 )"><tspan x="0" style="font-size:6px;font-family:'NSimSun';" y="0">EL2</tspan></text></a><a ewd:figtype="w2w" style="cursor:pointer;" ewd:pinNo="14" ewd:code="EL2" ewd:figID="61"><path style="&st2;" d=" M  2252.12,   222.75  L  2235.13,   222.75  L  2235.13,   231.25  L  2252.12,   231.25  L  2252.12,   222.75 " /><text style="&st8;" transform="matrix(&st16;  2238.55  229.12 )"><tspan x="0" style="font-size:6px;font-family:'NSimSun';" y="0">EL2</tspan></text></a><a ewd:figtype="w2w" style="cursor:pointer;" ewd:pinNo="14" ewd:code="AE3" ewd:figID="62"><path style="&st2;" d=" M  2413.60,   401.22  L  2396.60,   401.22  L  2396.60,   409.72  L  2413.60,   409.72  L  2413.60,   401.22 " /><text style="&st8;" transform="matrix(&st16;  2399.79  407.59 )"><tspan x="0" style="font-size:6px;font-family:'NSimSun';" y="0">AE3</tspan></text></a><a ewd:figtype="w2w" style="cursor:pointer;" ewd:pinNo="13" ewd:code="AE3" ewd:figID="63"><path style="&st2;" d=" M  2447.59,   154.76  L  2430.59,   154.76  L  2430.59,   163.26  L  2447.59,   163.26  L  2447.59,   154.76 " /><text style="&st8;" transform="matrix(&st16;  2433.79  161.13 )"><tspan x="0" style="font-size:6px;font-family:'NSimSun';" y="0">AE3</tspan></text></a><a ewd:figtype="gp" style="cursor:pointer;" ewd:code="EB" ewd:figID="64"><path style="&st2;" d=" M   346.32,   681.67  L   367.56,   681.67  L   356.94,   697.25  L   346.32,   681.67 " /><text style="&st8;" transform="matrix(&st16;  353.25  689.46 )"><tspan x="0" style="font-size:6px;font-family:'NSimSun';" y="0">EB</tspan></text></a><a ewd:figtype="gp" style="cursor:pointer;" ewd:code="EA" ewd:figID="65"><path style="&st2;" d=" M   388.81,   681.67  L   410.06,   681.67  L   399.43,   697.25  L   388.81,   681.67 " /><text style="&st8;" transform="matrix(&st16;  395.63  689.46 )"><tspan x="0" style="font-size:6px;font-family:'NSimSun';" y="0">EA</tspan></text></a><a ewd:figtype="gp" style="cursor:pointer;" ewd:code="LA" ewd:figID="66"><path style="&st2;" d=" M   864.73,   681.67  L   885.98,   681.67  L   875.35,   697.25  L   864.73,   681.67 " /><text style="&st8;" transform="matrix(&st16;  871.59  689.46 )"><tspan x="0" style="font-size:6px;font-family:'NSimSun';" y="0">LA</tspan></text></a><a ewd:figtype="gp" style="cursor:pointer;" ewd:code="EC" ewd:figID="67"><path style="&st2;" d=" M   949.72,   681.67  L   970.96,   681.67  L   960.34,   697.25  L   949.72,   681.67 " /><text style="&st8;" transform="matrix(&st16;  956.43  689.46 )"><tspan x="0" style="font-size:6px;font-family:'NSimSun';" y="0">EC</tspan></text></a><a ewd:figtype="gp" style="cursor:pointer;" ewd:code="EA" ewd:figID="68"><path style="&st2;" d=" M  1094.19,   681.67  L  1115.44,   681.67  L  1104.82,   697.25  L  1094.19,   681.67 " /><text style="&st8;" transform="matrix(&st16;  1101.02  689.46 )"><tspan x="0" style="font-size:6px;font-family:'NSimSun';" y="0">EA</tspan></text></a><a ewd:figtype="gp" style="cursor:pointer;" ewd:code="LD" ewd:figID="69"><path style="&st2;" d=" M  1170.68,   681.67  L  1191.93,   681.67  L  1181.30,   697.25  L  1170.68,   681.67 " /><text style="&st8;" transform="matrix(&st16;  1177.46  689.46 )"><tspan x="0" style="font-size:6px;font-family:'NSimSun';" y="0">LD</tspan></text></a><a ewd:figtype="gp" style="cursor:pointer;" ewd:code="LB" ewd:figID="70"><path style="&st2;" d=" M  1255.67,   681.67  L  1276.91,   681.67  L  1266.29,   697.25  L  1255.67,   681.67 " /><text style="&st8;" transform="matrix(&st16;  1262.64  689.46 )"><tspan x="0" style="font-size:6px;font-family:'NSimSun';" y="0">LB</tspan></text></a><a ewd:figtype="gp" style="cursor:pointer;" ewd:code="AC" ewd:figID="71"><path style="&st2;" d=" M  1587.11,   681.67  L  1608.36,   681.67  L  1597.73,   697.25  L  1587.11,   681.67 " /><text style="&st8;" transform="matrix(&st16;  1593.63  689.46 )"><tspan x="0" style="font-size:6px;font-family:'NSimSun';" y="0">AC</tspan></text></a><a ewd:figtype="gp" style="cursor:pointer;" ewd:code="ED" ewd:figID="72"><path style="&st2;" d=" M  1663.60,   681.67  L  1684.84,   681.67  L  1674.22,   697.25  L  1663.60,   681.67 " /><text style="&st8;" transform="matrix(&st16;  1670.34  689.46 )"><tspan x="0" style="font-size:6px;font-family:'NSimSun';" y="0">ED</tspan></text></a><a ewd:figtype="gp" style="cursor:pointer;" ewd:code="LC" ewd:figID="73"><path style="&st2;" d=" M  2020.54,   681.67  L  2041.78,   681.67  L  2031.16,   697.25  L  2020.54,   681.67 " /><text style="&st8;" transform="matrix(&st16;  2027.29  689.46 )"><tspan x="0" style="font-size:6px;font-family:'NSimSun';" y="0">LC</tspan></text></a><a ewd:figtype="gp" style="cursor:pointer;" ewd:code="LC" ewd:figID="74"><path style="&st2;" d=" M  2233.00,   681.67  L  2254.25,   681.67  L  2243.63,   697.25  L  2233.00,   681.67 " /><text style="&st8;" transform="matrix(&st16;  2239.75  689.46 )"><tspan x="0" style="font-size:6px;font-family:'NSimSun';" y="0">LC</tspan></text></a><a ewd:figtype="sp" style="cursor:pointer;" ewd:code="SP36" ewd:figID="75"><path style="&st2;" d=" M   556.66,   239.75  L   565.16,   239.75  L   569.40,   243.99  L   569.40,   252.49  L   565.16,   256.74  L   556.66,   256.74  L   552.41,   252.49  L   552.41,   243.99  L   556.66,   239.75 " /></a><a ewd:figtype="sp" style="cursor:pointer;" ewd:code="SP16" ewd:figID="76"><path style="&st2;" d=" M   650.14,   154.76  L   658.64,   154.76  L   662.89,   159.01  L   662.89,   167.51  L   658.64,   171.76  L   650.14,   171.76  L   645.89,   167.51  L   645.89,   159.01  L   650.14,   154.76 " /></a><a ewd:figtype="sp" style="cursor:pointer;" ewd:code="SP37" ewd:figID="77"><path style="&st2;" d=" M   871.10,   562.69  L   879.60,   562.69  L   883.85,   566.94  L   883.85,   575.44  L   879.60,   579.69  L   871.10,   579.69  L   866.86,   575.44  L   866.86,   566.94  L   871.10,   562.69 " /></a><a ewd:figtype="sp" style="cursor:pointer;" ewd:code="SP29" ewd:figID="78"><path style="&st2;" d=" M   956.09,   511.70  L   964.59,   511.70  L   968.84,   515.95  L   968.84,   524.45  L   964.59,   528.70  L   956.09,   528.70  L   951.84,   524.45  L   951.84,   515.95  L   956.09,   511.70 " /></a><a ewd:figtype="sp" style="cursor:pointer;" ewd:code="SP22" ewd:figID="79"><path style="&st2;" d=" M  1066.57,   154.76  L  1075.07,   154.76  L  1079.32,   159.01  L  1079.32,   167.51  L  1075.07,   171.76  L  1066.57,   171.76  L  1062.32,   167.51  L  1062.32,   159.01  L  1066.57,   154.76 " /></a><a ewd:figtype="sp" style="cursor:pointer;" ewd:code="SP30" ewd:figID="80"><path style="&st2;" d=" M  1100.57,   511.70  L  1109.06,   511.70  L  1113.31,   515.95  L  1113.31,   524.45  L  1109.06,   528.70  L  1100.57,   528.70  L  1096.32,   524.45  L  1096.32,   515.95  L  1100.57,   511.70 " /></a><a ewd:figtype="sp" style="cursor:pointer;" ewd:code="SP4" ewd:figID="81"><path style="&st2;" d=" M  1593.48,   571.19  L  1601.98,   571.19  L  1606.23,   575.44  L  1606.23,   583.94  L  1601.98,   588.19  L  1593.48,   588.19  L  1589.23,   583.94  L  1589.23,   575.44  L  1593.48,   571.19 " /></a><a ewd:figtype="sp" style="cursor:pointer;" ewd:code="SP20" ewd:figID="82"><path style="&st2;" d=" M  1669.97,   222.75  L  1678.47,   222.75  L  1682.72,   227.00  L  1682.72,   235.50  L  1678.47,   239.75  L  1669.97,   239.75  L  1665.72,   235.50  L  1665.72,   227.00  L  1669.97,   222.75 " /></a></g></svg>