<?xml version="1.0" encoding="utf-8"?>
<!DOCTYPE svg PUBLIC "-//W3C//DTD SVG 1.0//EN" "http://www.w3.org/TR/2001/REC-SVG-20010904/DTD/svg10.dtd"[
	<!ENTITY ns_flows "http://ns.adobe.com/Flows/1.0/">
	<!ENTITY ns_svg "http://www.w3.org/2000/svg">
	<!ENTITY ns_xlink "http://www.w3.org/1999/xlink">
	<!ENTITY st0 "font-size:7px;font-family:'NSimSun';adobe-font-script:japanese;">
	<!ENTITY st1 "font-size:6px;font-family:'NSimSun';">
	<!-- White fill  -->
	<!ENTITY st2 "fill:#FFFFFF;stroke:#000000; stroke-width:1.41;stroke-linecap:round;stroke-linejoin:round;">
	<!-- Yellow fill  -->
	<!ENTITY st3 "fill:#FFFFCC;stroke:#FFFFCC; stroke-width:0.1;stroke-linecap:round;stroke-linejoin:round;">
	<!-- Gray fill  -->
	<!ENTITY st4 "fill:#CCCCCC;stroke:#CCCCCC; stroke-width:0.1;stroke-linecap:round;stroke-linejoin:round;">
	<!-- Light-blue fill -->
	<!ENTITY st5 "fill:#CCECF4;stroke:#000000; stroke-width:1.133;stroke-linecap:round;stroke-linejoin:round;">
	<!ENTITY st6 "fill:none;stroke-linecap:butt; stroke-linejoin:round;">
	<!ENTITY st7 "fill:none;stroke:#000000;stroke-linecap:round;stroke-linejoin:round;">
	<!ENTITY st8 "enable-background:new    ;">
	<!-- Black fill -->
	<!ENTITY st9 "fill:#000000;stroke:#000000; stroke-linecap:round;stroke-linejoin:round;">
	<!-- SRS note   -->
	<!ENTITY st10 "font-size:9px;font-family:'NSimSun';">
	<!ENTITY st11 "font-size:9px;font-family:'NSimSun';">
	<!ENTITY st12 "font-size:6px;font-family:'NSimSun';">
	<!ENTITY st13 "fill:none;stroke:#ff0000;stroke-linecap:round;stroke-linejoin:round;">
	<!-- Yellow fill  -->
	<!ENTITY st14 "fill:#FFFF00;stroke:#FFFF00; stroke-width:0.1;stroke-linecap:round;stroke-linejoin:round;">
	<!ENTITY st15 "font-size:6px;font-family:'NSimSun';adobe-font-script:japanese;">
	<!ENTITY st16 "1.00 0.00 0.00 1.00">
	<!ENTITY st17 "0.00 -1.00 1.00 0.00">
	<!ENTITY st18 "font-size:6px;font-family:'NSimSun';">
	<!ENTITY st19 "font-size:9px;font-family:'NSimSun';">
	<!ENTITY st20 "font-size:6px;font-family:'NSimSun';adobe-font-script:japanese;">
	<!ENTITY st21 "font-size:7px;font-family:'NSimSun';adobe-font-script:japanese;">
	<!ATTLIST svg
		xmlns:ewd CDATA #FIXED "http://shcl.co.jp/ewd"
		xmlns:a CDATA #FIXED "http://ns.adobe.com/AdobeSVGViewerExtensions/3.0/"
		ewd:ver CDATA #IMPLIED
	>
	<!ATTLIST a
		ewd:lineID CDATA #IMPLIED
		ewd:groupID CDATA #IMPLIED
		ewd:figtype CDATA #IMPLIED
		ewd:code CDATA #IMPLIED
		ewd:figID CDATA #IMPLIED
		ewd:pinNo CDATA #IMPLIED
		ewd:comment CDATA #IMPLIED >
	<!ATTLIST g
		ewd:lineID CDATA #IMPLIED
		ewd:groupID CDATA #IMPLIED
		ewd:figtype CDATA #IMPLIED
		ewd:code CDATA #IMPLIED
		ewd:figID CDATA #IMPLIED
		ewd:pinNo CDATA #IMPLIED
		ewd:comment CDATA #IMPLIED >
	<!ATTLIST text
		ewd:textID CDATA #IMPLIED
		ewd:horAlign CDATA #IMPLIED >
	<!ATTLIST title
		ewd:textID CDATA #IMPLIED >
]>
<!-- Generator: Shintec Hozumi YS   -->
<svg onload="call_execInitLoadProc_svg('system')" style="overflow:visible;  enable-background:new 0 0 2534.483 710.000" viewBox="0 0 2503.264 710.000" height="710.000" width="2503.264" xml:space="preserve" ewd:ver="2.1.2.6F" xmlns="&ns_svg;" xmlns:ewd="http://shcl.co.jp/ewd" xmlns:a="http://ns.adobe.com/AdobeSVGViewerExtensions/3.0/" xmlns:xlink="&ns_xlink;">
<path style="stroke-width: 1.42 ;&st7;  " d=" M   951.84,   231.25  L   960.34,   231.25  " /><path style="stroke-width: 1.42 ;&st7;  " d=" M   696.88,   239.75  L   688.38,   239.75  " /><path style="stroke-width: 1.42 ;&st7;  " d=" M   756.37,   239.75  L   747.88,   239.75  " /><path style="stroke-width: 1.42 ;&st7;  " d=" M   815.86,   239.75  L   807.37,   239.75  " /><path style="stroke-width: 1.42 ;&st7;  " d=" M   968.84,   605.18  L   960.34,   605.18  " /><path style="stroke-width: 1.42 ;&st7;  " d=" M   963.87,   528.70  L   968.84,   523.73  " /><text style="font-size:6px;font-family:'NSimSun';" transform="matrix(&st17;  871.66  277.52 )">LG</text><text style="font-size:6px;font-family:'NSimSun';" transform="matrix(&st17;  744.18  277.52 )">LG</text><text style="font-size:6px;font-family:'NSimSun';" transform="matrix(&st17;  871.66  167.04 )">LG</text><text style="font-size:6px;font-family:'NSimSun';" transform="matrix(&st17;  744.18  167.04 )">LG</text><text style="font-size:6px;font-family:'NSimSun';" transform="matrix(&st17;  956.64  167.04 )">LG</text><text style="font-size:6px;font-family:'NSimSun';" transform="matrix(&st17;  684.69  275.54 )">V</text><text style="font-size:6px;font-family:'NSimSun';" transform="matrix(&st17;  684.69  165.06 )">V</text><text style="font-size:6px;font-family:'NSimSun';" transform="matrix(&st17;  956.64  275.43 )">Y</text><text style="font-size:6px;font-family:'NSimSun';" transform="matrix(&st16;  769.96  24.98 )">E36(A),E37(B)</text><text style="font-size:6px;font-family:'NSimSun';" transform="matrix(&st17;  871.66  611.14 )">W-B</text><text style="font-size:6px;font-family:'NSimSun';" transform="matrix(&st17;  956.64  483.66 )">W-B</text><text style="font-size:6px;font-family:'NSimSun';" transform="matrix(&st17;  803.67  276.98 )">SB</text><text style="font-size:6px;font-family:'NSimSun';" transform="matrix(&st17;  803.67  166.5 )">SB</text><text style="font-size:6px;font-family:'NSimSun';" transform="matrix(&st17;  871.66  483.66 )">W-B</text><text style="font-size:6px;font-family:'NSimSun';" transform="matrix(&st17;  956.64  653.63 )">W-B</text><text style="font-size:6px;font-family:'NSimSun';" transform="matrix(&st17;  956.64  560.15 )">W-B</text><path style="stroke-width: 1.42 ;&st7;  " d=" M   951.84,   523.73  L   956.81,   528.70  " /><path style="stroke-width: 1.42 ;&st7;  " d=" M   968.84,   516.67  L   963.87,   511.70  " /><path style="stroke-width: 1.42 ;&st7;  " d=" M   956.81,   511.70  L   951.84,   516.67  " /><text style="font-size:6px;font-family:'NSimSun';" transform="matrix(&st16;  769.97  32.08 )" ewd:textID="19">主车身 ECU</text><path style="stroke-width: 1.42 ;&st7;  " d=" M   883.85,   567.66  L   878.88,   562.69  " /><path style="stroke-width: 1.42 ;&st7;  " d=" M   866.86,   574.72  L   871.82,   579.69  " /><path style="stroke-width: 1.42 ;&st7;  " d=" M   878.88,   579.69  L   883.85,   574.72  " /><path style="stroke-width: 1.42 ;&st7;  " d=" M   871.82,   562.69  L   866.86,   567.66  " /><path style="stroke-width: 1.42 ;&st7;  " d=" M   569.40,   244.72  L   564.43,   239.75  " /><path style="stroke-width: 1.42 ;&st7;  " d=" M   552.41,   251.77  L   557.38,   256.74  " /><path style="stroke-width: 1.42 ;&st7;  " d=" M   564.43,   256.74  L   569.40,   251.77  " /><path style="stroke-width: 1.42 ;&st7;  " d=" M   557.38,   239.75  L   552.41,   244.72  " /><path style="stroke-width: 1.42 ;&st7;  " d=" M   662.89,   159.73  L   657.92,   154.76  " /><path style="stroke-width: 1.42 ;&st7;  " d=" M   645.89,   166.79  L   650.86,   171.76  " /><path style="stroke-width: 1.42 ;&st7;  " d=" M   657.92,   171.76  L   662.89,   166.79  " /><path style="stroke-width: 1.42 ;&st7;  " d=" M   650.86,   154.76  L   645.89,   159.73  " /><text style="font-size:6px;font-family:'NSimSun';" transform="matrix(&st17;  557.21  208.22 )">W</text><text style="font-size:6px;font-family:'NSimSun';" transform="matrix(&st17;  568.54  210.46 )">(*3)</text><text style="font-size:6px;font-family:'NSimSun';" transform="matrix(&st17;  591.2  250.71 )">W</text><text style="font-size:6px;font-family:'NSimSun';" transform="matrix(&st17;  602.54  252.96 )">(*4)</text><text style="font-size:6px;font-family:'NSimSun';" transform="matrix(&st17;  557.21  301.7 )">W</text><text style="font-size:6px;font-family:'NSimSun';" transform="matrix(&st17;  568.54  303.95 )">(*3)</text><text style="font-size:6px;font-family:'NSimSun';" transform="matrix(&st17;  650.69  199.06 )">V</text><text style="font-size:6px;font-family:'NSimSun';" transform="matrix(&st17;  662.03  201.97 )">(*3)</text><text style="font-size:6px;font-family:'NSimSun';" transform="matrix(&st17;  650.69  131.07 )">V</text><text style="font-size:6px;font-family:'NSimSun';" transform="matrix(&st17;  662.03  133.98 )">(*3)</text><text style="font-size:6px;font-family:'NSimSun';" transform="matrix(&st17;  696.02  167.97 )">(*4)</text><g ewd:figtype="conn" ewd:figID="3" ewd:code="E36,E37"><g ewd:lineID="11,12"><text style="font-size:6px;font-family:'NSimSun';" transform="matrix(&st16;  676.59  93.27 )">19</text><path style="stroke-width: 1.42 ;&st7;   " d=" M   692.92,    91.30  C   692.92     88.80    690.89     86.77    688.38     86.77  " /><path style="stroke-width: 1.42 ;&st7;   " d=" M   688.38,    86.77  C   685.88     86.77    683.85     88.80    683.85     91.30  " /><path style="stroke-width: 1.42 ;&st7;   " d=" M   683.85,    91.30  C   683.85     93.81    685.88     95.84    688.38     95.84  " /><path style="stroke-width: 1.42 ;&st7;   " d=" M   688.38,    95.84  C   690.89     95.84    692.92     93.81    692.92     91.30  " /><text style="font-size:6px;font-family:'NSimSun';" transform="matrix(&st16;  686.08  93.27 )">A</text><text style="font-size:6px;font-family:'NSimSun';" transform="matrix(&st16;  680.3  83.07 )">FRCY</text></g><g ewd:lineID="14"><text style="font-size:6px;font-family:'NSimSun';" transform="matrix(&st16;  739.18  93.27 )">6</text><text style="font-size:6px;font-family:'NSimSun';" transform="matrix(&st16;  745.57  93.27 )">A</text><path style="stroke-width: 1.42 ;&st7;   " d=" M   752.41,    91.30  C   752.41     88.80    750.38     86.77    747.88     86.77  " /><path style="stroke-width: 1.42 ;&st7;   " d=" M   747.88,    86.77  C   745.37     86.77    743.34     88.80    743.34     91.30  " /><path style="stroke-width: 1.42 ;&st7;   " d=" M   743.34,    91.30  C   743.34     93.81    745.37     95.84    747.88     95.84  " /><path style="stroke-width: 1.42 ;&st7;   " d=" M   747.88,    95.84  C   750.38     95.84    752.41     93.81    752.41     91.30  " /><text style="font-size:6px;font-family:'NSimSun';" transform="matrix(&st16;  739.72  83.07 )">RCTY</text></g><g ewd:lineID="16"><text style="font-size:6px;font-family:'NSimSun';" transform="matrix(&st16;  795.57  93.27 )">24</text><path style="stroke-width: 1.42 ;&st7;   " d=" M   811.90,    91.30  C   811.90     88.80    809.87     86.77    807.37     86.77  " /><path style="stroke-width: 1.42 ;&st7;   " d=" M   807.37,    86.77  C   804.86     86.77    802.83     88.80    802.83     91.30  " /><path style="stroke-width: 1.42 ;&st7;   " d=" M   802.83,    91.30  C   802.83     93.81    804.86     95.84    807.37     95.84  " /><path style="stroke-width: 1.42 ;&st7;   " d=" M   807.37,    95.84  C   809.87     95.84    811.90     93.81    811.90     91.30  " /><text style="font-size:6px;font-family:'NSimSun';" transform="matrix(&st16;  805.06  93.27 )">A</text><text style="font-size:6px;font-family:'NSimSun';" transform="matrix(&st16;  799.24  83.07 )">LCTY</text></g><g ewd:lineID="25"><text style="font-size:6px;font-family:'NSimSun';" transform="matrix(&st16;  948.54  93.27 )">18</text><path style="stroke-width: 1.42 ;&st7;   " d=" M   964.87,    91.30  C   964.87     88.80    962.84     86.77    960.34     86.77  " /><path style="stroke-width: 1.42 ;&st7;   " d=" M   960.34,    86.77  C   957.84     86.77    955.81     88.80    955.81     91.30  " /><path style="stroke-width: 1.42 ;&st7;   " d=" M   955.81,    91.30  C   955.81     93.81    957.84     95.84    960.34     95.84  " /><path style="stroke-width: 1.42 ;&st7;   " d=" M   960.34,    95.84  C   962.84     95.84    964.87     93.81    964.87     91.30  " /><text style="font-size:6px;font-family:'NSimSun';" transform="matrix(&st16;  958.04  93.27 )">A</text><text style="font-size:6px;font-family:'NSimSun';" transform="matrix(&st16;  952.99  83.07 )">LSFR</text></g><g ewd:lineID="92"><text style="font-size:6px;font-family:'NSimSun';" transform="matrix(&st16;  586.86  83.07 )">FLCY</text></g><g ewd:lineID="95"><text style="font-size:6px;font-family:'NSimSun';" transform="matrix(&st16;  866.96  83.07 )">LGCY</text></g></g><g ewd:figtype="conn" ewd:figID="12" ewd:code="G8"><path style="stroke-width: 0.85 ;&st7;  " d=" M   960.34,   426.71  L   960.34,   405.47  " /><path style="stroke-width: 0.85 ;&st7;   " d=" M   961.76,   404.05  C   961.76    403.27    961.12    402.63    960.34    402.63  " /><path style="stroke-width: 0.85 ;&st7;   " d=" M   960.34,   402.63  C   959.56    402.63    958.92    403.27    958.92    404.05  " /><path style="stroke-width: 0.85 ;&st7;   " d=" M   958.92,   404.05  C   958.92    404.83    959.56    405.47    960.34    405.47  " /><path style="stroke-width: 0.85 ;&st7;   " d=" M   960.34,   405.47  C   961.12    405.47    961.76    404.83    961.76    404.05  " /><path style="stroke-width: 1.42 ;&st7;  " d=" M   934.84,   426.71  L   934.84,   358.73  L   977.34,   358.73  L   977.34,   426.71  L   934.84,   426.71  " /><text style="font-size:6px;font-family:'NSimSun';" transform="matrix(&st16;  943.69  366.92 )">LSSR</text><path style="stroke-width: 0.85 ;&st7;   " d=" M   961.76,   381.39  C   961.76    380.61    961.12    379.97    960.34    379.97  " /><path style="stroke-width: 0.85 ;&st7;   " d=" M   960.34,   379.97  C   959.56    379.97    958.92    380.61    958.92    381.39  " /><path style="stroke-width: 0.85 ;&st7;   " d=" M   958.92,   381.39  C   958.92    382.17    959.56    382.80    960.34    382.80  " /><path style="stroke-width: 0.85 ;&st7;   " d=" M   960.34,   382.80  C   961.12    382.80    961.76    382.17    961.76    381.39  " /><path style="stroke-width: 1.42 ;&st7;  " d=" M   960.34,   402.63  L   966.01,   379.97  " /><path style="stroke-width: 0.85 ;&st7;  " d=" M   960.34,   379.97  L   960.34,   358.73  " /><text style="font-size:6px;font-family:'NSimSun';" transform="matrix(&st16;  953.53  423.02 )">E</text><text style="font-size:6px;font-family:'NSimSun';" transform="matrix(&st17;  949.3  405.0 )" ewd:textID="32">开锁检测<tspan x="0 " dy="6.0" /></text><text style="font-size:6px;font-family:'NSimSun';" transform="matrix(&st16;  954.16  434.91 )">8</text><text style="font-size:6px;font-family:'NSimSun';" transform="matrix(&st16;  954.16  355.04 )">7</text><g ewd:figtype="title"><text style="font-size:6px;font-family:'NSimSun';" transform="matrix(&st17;  984.95  429.61 )">G8</text><text style="font-size:6px;font-family:'NSimSun';" transform="matrix(&st17;  992.05  429.62 )" ewd:textID="13">带电动机的右前门锁总成</text></g></g><g ewd:figtype="conn" ewd:figID="13" ewd:code="L30"><path style="stroke-width: 1.42 ;&st7;  " d=" M   875.35,   394.14  L   881.02,   371.47  " /><path style="stroke-width: 0.85 ;&st7;  " d=" M   875.35,   371.47  L   875.35,   367.22  " /><path style="stroke-width: 0.85 ;&st7;   " d=" M   876.77,   395.55  C   876.77    394.77    876.14    394.14    875.35    394.14  " /><path style="stroke-width: 0.85 ;&st7;   " d=" M   875.35,   394.14  C   874.57    394.14    873.94    394.77    873.94    395.55  " /><path style="stroke-width: 0.85 ;&st7;   " d=" M   873.94,   395.55  C   873.94    396.33    874.57    396.97    875.35    396.97  " /><path style="stroke-width: 0.85 ;&st7;   " d=" M   875.35,   396.97  C   876.14    396.97    876.77    396.33    876.77    395.55  " /><path style="stroke-width: 0.85 ;&st7;   " d=" M   876.77,   372.89  C   876.77    372.11    876.14    371.47    875.35    371.47  " /><path style="stroke-width: 0.85 ;&st7;   " d=" M   875.35,   371.47  C   874.57    371.47    873.94    372.11    873.94    372.89  " /><path style="stroke-width: 0.85 ;&st7;   " d=" M   873.94,   372.89  C   873.94    373.67    874.57    374.31    875.35    374.31  " /><path style="stroke-width: 0.85 ;&st7;   " d=" M   875.35,   374.31  C   876.14    374.31    876.77    373.67    876.77    372.89  " /><path style="stroke-width: 1.42 ;&st7;  " d=" M   858.36,   418.22  L   900.85,   418.22  L   900.85,   358.73  L   858.36,   358.73  L   858.36,   418.22  " /><path style="stroke-width: 0.85 ;&st7;  " d=" M   875.35,   358.73  L   875.35,   367.22  " /><path style="stroke-width: 0.85 ;&st7;  " d=" M   875.35,   418.22  L   875.35,   396.97  " /><text style="font-size:6px;font-family:'NSimSun';" transform="matrix(&st16;  877.94  414.53 )">E</text><text style="font-size:6px;font-family:'NSimSun';" transform="matrix(&st16;  877.94  366.92 )">D+</text><text style="font-size:6px;font-family:'NSimSun';" transform="matrix(&st17;  870.24  395.68 )" ewd:textID="8">门控灯</text><text style="font-size:6px;font-family:'NSimSun';" transform="matrix(&st16;  869.17  426.41 )">2</text><text style="font-size:6px;font-family:'NSimSun';" transform="matrix(&st16;  869.17  355.04 )">3</text><g ewd:figtype="title"><text style="font-size:6px;font-family:'NSimSun';" transform="matrix(&st17;  908.46  421.11 )">L30</text><text style="font-size:6px;font-family:'NSimSun';" transform="matrix(&st17;  915.57  421.12 )" ewd:textID="18">行李厢门锁总成</text></g></g><g ewd:figtype="conn" ewd:figID="14" ewd:code="L2"><path style="stroke-width: 1.42 ;&st7;  " d=" M   807.37,   385.64  L   813.03,   362.97  " /><path style="stroke-width: 0.85 ;&st7;  " d=" M   807.37,   392.72  L   807.37,   388.47  " /><path style="stroke-width: 0.85 ;&st7;  " d=" M   807.37,   362.97  L   807.37,   358.73  " /><path style="stroke-width: 0.85 ;&st7;   " d=" M   808.78,   387.05  C   808.78    386.27    808.15    385.64    807.37    385.64  " /><path style="stroke-width: 0.85 ;&st7;   " d=" M   807.37,   385.64  C   806.58    385.64    805.95    386.27    805.95    387.05  " /><path style="stroke-width: 0.85 ;&st7;   " d=" M   805.95,   387.05  C   805.95    387.84    806.58    388.47    807.37    388.47  " /><path style="stroke-width: 0.85 ;&st7;   " d=" M   807.37,   388.47  C   808.15    388.47    808.78    387.84    808.78    387.05  " /><path style="stroke-width: 0.85 ;&st7;   " d=" M   808.78,   364.39  C   808.78    363.61    808.15    362.97    807.37    362.97  " /><path style="stroke-width: 0.85 ;&st7;   " d=" M   807.37,   362.97  C   806.58    362.97    805.95    363.61    805.95    364.39  " /><path style="stroke-width: 0.85 ;&st7;   " d=" M   805.95,   364.39  C   805.95    365.17    806.58    365.81    807.37    365.81  " /><path style="stroke-width: 0.85 ;&st7;   " d=" M   807.37,   365.81  C   808.15    365.81    808.78    365.17    808.78    364.39  " /><path style="stroke-width: 1.42 ;&st7;  " d=" M   815.86,   392.72  L   815.86,   358.73  L   798.87,   358.73  L   798.87,   392.72  L   815.86,   392.72  " /><text style="font-size:6px;font-family:'NSimSun';" transform="matrix(&st16;  801.18  355.04 )">1</text><g ewd:figtype="title"><text style="font-size:6px;font-family:'NSimSun';" transform="matrix(&st17;  830.58  395.63 )" ewd:textID="23">左后车门门控灯开关总成<tspan x="0 " dy="6.0" /></text><text style="font-size:6px;font-family:'NSimSun';" transform="matrix(&st17;  823.47  395.62 )">L2</text></g></g><g ewd:figtype="conn" ewd:figID="15" ewd:code="L42"><path style="stroke-width: 1.42 ;&st7;  " d=" M   747.88,   385.64  L   753.54,   362.97  " /><path style="stroke-width: 0.85 ;&st7;  " d=" M   747.88,   392.72  L   747.88,   388.47  " /><path style="stroke-width: 0.85 ;&st7;  " d=" M   747.88,   362.97  L   747.88,   358.73  " /><path style="stroke-width: 0.85 ;&st7;   " d=" M   749.29,   387.05  C   749.29    386.27    748.66    385.64    747.88    385.64  " /><path style="stroke-width: 0.85 ;&st7;   " d=" M   747.88,   385.64  C   747.09    385.64    746.46    386.27    746.46    387.05  " /><path style="stroke-width: 0.85 ;&st7;   " d=" M   746.46,   387.05  C   746.46    387.84    747.09    388.47    747.88    388.47  " /><path style="stroke-width: 0.85 ;&st7;   " d=" M   747.88,   388.47  C   748.66    388.47    749.29    387.84    749.29    387.05  " /><path style="stroke-width: 0.85 ;&st7;   " d=" M   749.29,   364.39  C   749.29    363.61    748.66    362.97    747.88    362.97  " /><path style="stroke-width: 0.85 ;&st7;   " d=" M   747.88,   362.97  C   747.09    362.97    746.46    363.61    746.46    364.39  " /><path style="stroke-width: 0.85 ;&st7;   " d=" M   746.46,   364.39  C   746.46    365.17    747.09    365.81    747.88    365.81  " /><path style="stroke-width: 0.85 ;&st7;   " d=" M   747.88,   365.81  C   748.66    365.81    749.29    365.17    749.29    364.39  " /><path style="stroke-width: 1.42 ;&st7;  " d=" M   756.37,   392.72  L   756.37,   358.73  L   739.38,   358.73  L   739.38,   392.72  L   756.37,   392.72  " /><text style="font-size:6px;font-family:'NSimSun';" transform="matrix(&st16;  741.69  355.04 )">1</text><g ewd:figtype="title"><text style="font-size:6px;font-family:'NSimSun';" transform="matrix(&st17;  771.09  395.63 )" ewd:textID="24">右后车门门控灯开关总成<tspan x="0 " dy="6.0" /></text><text style="font-size:6px;font-family:'NSimSun';" transform="matrix(&st17;  763.98  395.62 )">L42</text></g></g><g ewd:figtype="conn" ewd:figID="16" ewd:code="L41"><path style="stroke-width: 1.42 ;&st7;  " d=" M   688.38,   385.64  L   694.05,   362.97  " /><path style="stroke-width: 0.85 ;&st7;  " d=" M   688.38,   392.72  L   688.38,   388.47  " /><path style="stroke-width: 0.85 ;&st7;  " d=" M   688.38,   362.97  L   688.38,   358.73  " /><path style="stroke-width: 0.85 ;&st7;   " d=" M   689.80,   387.05  C   689.80    386.27    689.17    385.64    688.38    385.64  " /><path style="stroke-width: 0.85 ;&st7;   " d=" M   688.38,   385.64  C   687.60    385.64    686.97    386.27    686.97    387.05  " /><path style="stroke-width: 0.85 ;&st7;   " d=" M   686.97,   387.05  C   686.97    387.84    687.60    388.47    688.38    388.47  " /><path style="stroke-width: 0.85 ;&st7;   " d=" M   688.38,   388.47  C   689.17    388.47    689.80    387.84    689.80    387.05  " /><path style="stroke-width: 0.85 ;&st7;   " d=" M   689.80,   364.39  C   689.80    363.61    689.17    362.97    688.38    362.97  " /><path style="stroke-width: 0.85 ;&st7;   " d=" M   688.38,   362.97  C   687.60    362.97    686.97    363.61    686.97    364.39  " /><path style="stroke-width: 0.85 ;&st7;   " d=" M   686.97,   364.39  C   686.97    365.17    687.60    365.81    688.38    365.81  " /><path style="stroke-width: 0.85 ;&st7;   " d=" M   688.38,   365.81  C   689.17    365.81    689.80    365.17    689.80    364.39  " /><path style="stroke-width: 1.42 ;&st7;  " d=" M   696.88,   392.72  L   696.88,   358.73  L   679.89,   358.73  L   679.89,   392.72  L   696.88,   392.72  " /><text style="font-size:6px;font-family:'NSimSun';" transform="matrix(&st16;  682.2  355.04 )">1</text><g ewd:figtype="title"><text style="font-size:6px;font-family:'NSimSun';" transform="matrix(&st17;  711.6  395.63 )" ewd:textID="11">右前车门门控灯开关总成<tspan x="0 " dy="6.0" /></text><text style="font-size:6px;font-family:'NSimSun';" transform="matrix(&st17;  704.49  395.62 )">L41</text></g></g><g ewd:figtype="conn" ewd:figID="17" ewd:code="L1"><path style="stroke-width: 0.85 ;&st7;  " d=" M   594.90,   362.97  L   594.90,   358.73  " /><path style="stroke-width: 0.85 ;&st7;  " d=" M   594.90,   392.72  L   594.90,   388.47  " /><path style="stroke-width: 1.42 ;&st7;  " d=" M   594.90,   385.64  L   600.57,   362.97  " /><path style="stroke-width: 0.85 ;&st7;   " d=" M   596.32,   364.39  C   596.32    363.61    595.68    362.97    594.90    362.97  " /><path style="stroke-width: 0.85 ;&st7;   " d=" M   594.90,   362.97  C   594.12    362.97    593.48    363.61    593.48    364.39  " /><path style="stroke-width: 0.85 ;&st7;   " d=" M   593.48,   364.39  C   593.48    365.17    594.12    365.81    594.90    365.81  " /><path style="stroke-width: 0.85 ;&st7;   " d=" M   594.90,   365.81  C   595.68    365.81    596.32    365.17    596.32    364.39  " /><path style="stroke-width: 0.85 ;&st7;   " d=" M   596.32,   387.05  C   596.32    386.27    595.68    385.64    594.90    385.64  " /><path style="stroke-width: 0.85 ;&st7;   " d=" M   594.90,   385.64  C   594.12    385.64    593.48    386.27    593.48    387.05  " /><path style="stroke-width: 0.85 ;&st7;   " d=" M   593.48,   387.05  C   593.48    387.84    594.12    388.47    594.90    388.47  " /><path style="stroke-width: 0.85 ;&st7;   " d=" M   594.90,   388.47  C   595.68    388.47    596.32    387.84    596.32    387.05  " /><path style="stroke-width: 1.42 ;&st7;  " d=" M   603.40,   392.72  L   603.40,   358.73  L   586.40,   358.73  L   586.40,   392.72  L   603.40,   392.72  " /><text style="font-size:6px;font-family:'NSimSun';" transform="matrix(&st16;  588.72  355.04 )">1</text><g ewd:figtype="title"><text style="font-size:6px;font-family:'NSimSun';" transform="matrix(&st17;  611.01  395.62 )">L1</text><text style="font-size:6px;font-family:'NSimSun';" transform="matrix(&st17;  618.12  395.63 )" ewd:textID="10">左前车门门控灯开关总成<tspan x="0 " dy="6.0" /></text></g></g><g ewd:figtype="conn" ewd:figID="26" ewd:code="L54,L55"><path style="stroke-width: 0.85 ;&st7;  " d=" M   875.35,   231.25  L   875.35,   248.24  " /><path style="stroke-width: 1.42 ;&st7;  " d=" M   866.85,   231.25  L   883.85,   231.25  L   883.85,   248.24  L   866.85,   248.24  L   866.85,   231.25  " /><text style="font-size:6px;font-family:'NSimSun';" transform="matrix(&st16;  866.66  254.75 )">5</text><path style="stroke-width: 1.42 ;&st7;   " d=" M   879.89,   252.78  C   879.89    250.27    877.86    248.24    875.35    248.24  " /><path style="stroke-width: 1.42 ;&st7;   " d=" M   875.35,   248.24  C   872.85    248.24    870.82    250.27    870.82    252.78  " /><path style="stroke-width: 1.42 ;&st7;   " d=" M   870.82,   252.78  C   870.82    255.28    872.85    257.31    875.35    257.31  " /><path style="stroke-width: 1.42 ;&st7;   " d=" M   875.35,   257.31  C   877.86    257.31    879.89    255.28    879.89    252.78  " /><text style="font-size:6px;font-family:'NSimSun';" transform="matrix(&st16;  873.17  254.75 )">B</text><text style="font-size:6px;font-family:'NSimSun';" transform="matrix(&st16;  866.66  228.68 )">7</text><path style="stroke-width: 1.42 ;&st7;   " d=" M   879.89,   226.71  C   879.89    224.21    877.86    222.18    875.35    222.18  " /><path style="stroke-width: 1.42 ;&st7;   " d=" M   875.35,   222.18  C   872.85    222.18    870.82    224.21    870.82    226.71  " /><path style="stroke-width: 1.42 ;&st7;   " d=" M   870.82,   226.71  C   870.82    229.22    872.85    231.25    875.35    231.25  " /><path style="stroke-width: 1.42 ;&st7;   " d=" M   875.35,   231.25  C   877.86    231.25    879.89    229.22    879.89    226.71  " /><text style="font-size:6px;font-family:'NSimSun';" transform="matrix(&st16;  873.05  228.68 )">A</text><g ewd:figtype="title"><text style="font-size:6px;font-family:'NSimSun';" transform="matrix(&st17;  898.57  251.15 )" ewd:textID="22">7 号接线连接器</text><text style="font-size:6px;font-family:'NSimSun';" transform="matrix(&st17;  891.75  251.14 )">L54(A),L55(B)</text></g></g><g ewd:figtype="jb" ewd:figID="36" ewd:code="3"><path style="stroke-width: 1.42 ;&st7;  " d=" M   597.03,   137.76  L   592.78,   137.76  " /><path style="stroke-width: 1.42 ;&st7;  " d=" M   597.03,   129.26  L   592.78,   129.26  " /><path style="stroke-width: 1.42 ;&st7;   " d=" M   601.27,   133.51  C   601.27    131.17    599.37    129.26    597.03    129.26  " /><path style="stroke-width: 1.42 ;&st7;   " d=" M   597.03,   137.76  C   599.37    137.76    601.27    135.86    601.27    133.51  " /><path style="stroke-width: 1.42 ;&st7;   " d=" M   588.53,   133.51  C   588.53    135.86    590.43    137.76    592.78    137.76  " /><path style="stroke-width: 1.42 ;&st7;   " d=" M   592.78,   129.26  C   590.43    129.26    588.53    131.17    588.53    133.51  " /><path style="stroke-width: 0.85 ;&st7;  " d=" M   594.90,    86.77  L   594.90,   129.26  " /><path style="stroke-width: 0.28 ;&st9;  " d=" M   594.90,   124.37  L   592.07,   121.54  L   592.07,   125.79  L   594.90,   128.62  L   597.73,   125.79  L   597.73,   121.54  L   594.90,   124.37  " /><text style="font-size:6px;font-family:'NSimSun';" transform="matrix(&st16;  588.72  94.96 )">2</text><text style="font-size:6px;font-family:'NSimSun';" transform="matrix(&st16;  581.29  135.48 )">25</text><text style="font-size:6px;font-family:'NSimSun';" transform="matrix(&st16;  591.24  135.48 )">3E</text></g><g ewd:figtype="jb" ewd:figID="37" ewd:code="3"><path style="stroke-width: 1.42 ;&st7;  " d=" M   877.48,   120.77  L   873.23,   120.77  " /><path style="stroke-width: 1.42 ;&st7;  " d=" M   877.48,   129.26  L   873.23,   129.26  " /><path style="stroke-width: 1.42 ;&st7;   " d=" M   873.23,   120.77  C   870.88    120.77    868.98    122.67    868.98    125.01  " /><path style="stroke-width: 1.42 ;&st7;   " d=" M   868.98,   125.01  C   868.98    127.36    870.88    129.26    873.23    129.26  " /><path style="stroke-width: 1.42 ;&st7;   " d=" M   877.48,   129.26  C   879.83    129.26    881.73    127.36    881.73    125.01  " /><path style="stroke-width: 1.42 ;&st7;   " d=" M   881.73,   125.01  C   881.73    122.67    879.83    120.77    877.48    120.77  " /><path style="stroke-width: 0.28 ;&st9;  " d=" M   875.35,   115.87  L   872.52,   113.04  L   872.52,   117.29  L   875.35,   120.12  L   878.19,   117.29  L   878.19,   113.04  L   875.35,   115.87  " /><path style="stroke-width: 0.85 ;&st7;  " d=" M   875.35,    86.77  L   875.35,   120.77  " /><text style="font-size:6px;font-family:'NSimSun';" transform="matrix(&st16;  871.69  126.98 )">3E</text><text style="font-size:6px;font-family:'NSimSun';" transform="matrix(&st16;  861.74  126.98 )">34</text><text style="font-size:6px;font-family:'NSimSun';" transform="matrix(&st16;  866.07  94.96 )">20</text></g><g ewd:figtype="w2w" ewd:figID="41" ewd:code="EL4"><path style="stroke-width: 1.42 ;&st7;  " d=" M   692.63,   245.41  L   688.38,   241.16  L   684.14,   245.41  " /><path style="stroke-width: 1.42 ;&st7;  " d=" M   692.63,   248.81  L   688.38,   244.56  L   684.14,   248.81  " /><text style="font-size:6px;font-family:'NSimSun';" transform="matrix(&st16;  672.65  237.47 )">10</text></g><g ewd:figtype="w2w" ewd:figID="42" ewd:code="EL4"><path style="stroke-width: 1.42 ;&st7;  " d=" M   752.12,   248.81  L   747.87,   244.56  L   743.63,   248.81  " /><path style="stroke-width: 1.42 ;&st7;  " d=" M   752.12,   245.41  L   747.87,   241.16  L   743.63,   245.41  " /><text style="font-size:6px;font-family:'NSimSun';" transform="matrix(&st16;  735.24  237.47 )">9</text></g><g ewd:figtype="w2w" ewd:figID="43" ewd:code="EL2"><path style="stroke-width: 1.42 ;&st7;  " d=" M   811.61,   248.81  L   807.36,   244.56  L   803.12,   248.81  " /><path style="stroke-width: 1.42 ;&st7;  " d=" M   811.61,   245.41  L   807.36,   241.16  L   803.12,   245.41  " /><text style="font-size:6px;font-family:'NSimSun';" transform="matrix(&st16;  794.73  237.47 )">5</text></g><g ewd:figtype="w2w" ewd:figID="44" ewd:code="GE3"><path style="stroke-width: 1.42 ;&st7;  " d=" M   964.59,   614.25  L   960.34,   610.00  L   956.09,   614.25  " /><path style="stroke-width: 1.42 ;&st7;  " d=" M   964.59,   610.85  L   960.34,   606.60  L   956.09,   610.85  " /><text style="font-size:6px;font-family:'NSimSun';" transform="matrix(&st16;  947.71  602.9 )">8</text></g><g ewd:figtype="w2w" ewd:figID="45" ewd:code="GE1"><path style="stroke-width: 1.42 ;&st7;  " d=" M   956.09,   222.18  L   960.34,   226.43  L   964.59,   222.18  " /><path style="stroke-width: 1.42 ;&st7;  " d=" M   964.59,   225.58  L   960.34,   229.83  L   956.09,   225.58  " /><text style="font-size:6px;font-family:'NSimSun';" transform="matrix(&st16;  944.61  237.47 )">18</text></g><g ewd:figtype="gp" ewd:figID="66" ewd:code="LA"><path style="stroke-width: 0.85 ;&st7;  " d=" M   875.35,   697.25  L   875.35,   701.50  " /><path style="stroke-width: 0.85 ;&st7;  " d=" M   866.85,   701.50  L   883.85,   701.50  " /><path style="stroke-width: 0.85 ;&st7;  " d=" M   871.10,   704.33  L   879.60,   704.33  " /><path style="stroke-width: 0.85 ;&st7;  " d=" M   872.52,   707.17  L   878.19,   707.17  " /><path style="stroke-width: 0.85 ;&st7;  " d=" M   873.94,   710.00  L   876.77,   710.00  " /></g><g ewd:figtype="gp" ewd:figID="67" ewd:code="EC"><path style="stroke-width: 0.85 ;&st7;  " d=" M   960.34,   697.25  L   960.34,   701.50  " /><path style="stroke-width: 0.85 ;&st7;  " d=" M   951.84,   701.50  L   968.84,   701.50  " /><path style="stroke-width: 0.85 ;&st7;  " d=" M   956.09,   704.33  L   964.59,   704.33  " /><path style="stroke-width: 0.85 ;&st7;  " d=" M   957.51,   707.17  L   963.17,   707.17  " /><path style="stroke-width: 0.85 ;&st7;  " d=" M   958.92,   710.00  L   961.76,   710.00  " /></g><g ewd:figtype="annex" ewd:figID="90" ewd:code=" "><path style="stroke-width: 0.85 ;&st7;  " d=" M   747.87,   392.72  L   747.87,   401.22  " /><path style="stroke-width: 0.85 ;&st7;  " d=" M   745.04,   406.88  L   750.71,   406.88  " /><path style="stroke-width: 0.85 ;&st7;  " d=" M   746.46,   409.72  L   749.29,   409.72  " /><path style="stroke-width: 0.85 ;&st7;  " d=" M   739.38,   401.22  L   756.37,   401.22  " /><path style="stroke-width: 0.85 ;&st7;  " d=" M   743.63,   404.05  L   752.12,   404.05  " /></g><g ewd:figtype="annex" ewd:figID="91" ewd:code=" "><path style="stroke-width: 0.85 ;&st7;  " d=" M   807.36,   392.72  L   807.36,   401.22  " /><path style="stroke-width: 0.85 ;&st7;  " d=" M   805.95,   409.72  L   808.78,   409.72  " /><path style="stroke-width: 0.85 ;&st7;  " d=" M   804.53,   406.88  L   810.20,   406.88  " /><path style="stroke-width: 0.85 ;&st7;  " d=" M   803.12,   404.05  L   811.61,   404.05  " /><path style="stroke-width: 0.85 ;&st7;  " d=" M   798.87,   401.22  L   815.86,   401.22  " /></g><g ewd:figtype="annex" ewd:figID="92" ewd:code=" "><path style="stroke-width: 0.85 ;&st7;  " d=" M   685.55,   406.88  L   691.22,   406.88  " /><path style="stroke-width: 0.85 ;&st7;  " d=" M   684.14,   404.05  L   692.63,   404.05  " /><path style="stroke-width: 0.85 ;&st7;  " d=" M   686.97,   409.72  L   689.80,   409.72  " /><path style="stroke-width: 0.85 ;&st7;  " d=" M   688.38,   392.72  L   688.38,   401.22  " /><path style="stroke-width: 0.85 ;&st7;  " d=" M   679.89,   401.22  L   696.88,   401.22  " /></g><g ewd:figtype="annex" ewd:figID="93" ewd:code=" "><path style="stroke-width: 0.85 ;&st7;  " d=" M   593.48,   409.72  L   596.32,   409.72  " /><path style="stroke-width: 0.85 ;&st7;  " d=" M   592.07,   406.88  L   597.73,   406.88  " /><path style="stroke-width: 0.85 ;&st7;  " d=" M   586.40,   401.22  L   603.40,   401.22  " /><path style="stroke-width: 0.85 ;&st7;  " d=" M   590.65,   404.05  L   599.15,   404.05  " /><path style="stroke-width: 0.85 ;&st7;  " d=" M   594.90,   392.72  L   594.90,   401.22  " /></g><g ewd:code="4" ewd:figID="100" ewd:comment="" ewd:figtype="comment"><text style="font-size:6px;font-family:'NSimSun';" transform="matrix(&st16;  642.49  513.67 )" ewd:textID="4">* 4 : 不带门控灯总成</text></g><g ewd:code="3" ewd:figID="101" ewd:comment="" ewd:figtype="comment"><text style="font-size:6px;font-family:'NSimSun';" transform="matrix(&st16;  642.49  505.17 )" ewd:textID="3">* 3 : 带门控灯总成</text></g></svg>