<?xml version="1.0" encoding="utf-8"?>
<!DOCTYPE svg PUBLIC "-//W3C//DTD SVG 1.0//EN" "http://www.w3.org/TR/2001/REC-SVG-20010904/DTD/svg10.dtd"[
	<!ENTITY ns_flows "http://ns.adobe.com/Flows/1.0/">
	<!ENTITY ns_svg "http://www.w3.org/2000/svg">
	<!ENTITY ns_xlink "http://www.w3.org/1999/xlink">
	<!ENTITY st0 "font-size:7px;font-family:'NSimSun';adobe-font-script:japanese;">
	<!ENTITY st1 "font-size:6px;font-family:'NSimSun';">
	<!-- White fill  -->
	<!ENTITY st2 "fill:#FFFFFF;stroke:#000000; stroke-width:1.41;stroke-linecap:round;stroke-linejoin:round;">
	<!-- Yellow fill  -->
	<!ENTITY st3 "fill:#FFFFCC;stroke:#FFFFCC; stroke-width:0.1;stroke-linecap:round;stroke-linejoin:round;">
	<!-- Gray fill  -->
	<!ENTITY st4 "fill:#CCCCCC;stroke:#CCCCCC; stroke-width:0.1;stroke-linecap:round;stroke-linejoin:round;">
	<!-- Light-blue fill -->
	<!ENTITY st5 "fill:#CCECF4;stroke:#000000; stroke-width:1.133;stroke-linecap:round;stroke-linejoin:round;">
	<!ENTITY st6 "fill:none;stroke-linecap:butt; stroke-linejoin:round;">
	<!ENTITY st7 "fill:none;stroke:#000000;stroke-linecap:round;stroke-linejoin:round;">
	<!ENTITY st8 "enable-background:new    ;">
	<!-- Black fill -->
	<!ENTITY st9 "fill:#000000;stroke:#000000; stroke-linecap:round;stroke-linejoin:round;">
	<!-- SRS note   -->
	<!ENTITY st10 "font-size:9px;font-family:'NSimSun';">
	<!ENTITY st11 "font-size:9px;font-family:'NSimSun';">
	<!ENTITY st12 "font-size:6px;font-family:'NSimSun';">
	<!ENTITY st13 "fill:none;stroke:#ff0000;stroke-linecap:round;stroke-linejoin:round;">
	<!-- Yellow fill  -->
	<!ENTITY st14 "fill:#FFFF00;stroke:#FFFF00; stroke-width:0.1;stroke-linecap:round;stroke-linejoin:round;">
	<!ENTITY st15 "font-size:6px;font-family:'NSimSun';adobe-font-script:japanese;">
	<!ENTITY st16 "1.00 0.00 0.00 1.00">
	<!ENTITY st17 "0.00 -1.00 1.00 0.00">
	<!ENTITY st18 "font-size:6px;font-family:'NSimSun';">
	<!ENTITY st19 "font-size:9px;font-family:'NSimSun';">
	<!ENTITY st20 "font-size:6px;font-family:'NSimSun';adobe-font-script:japanese;">
	<!ENTITY st21 "font-size:7px;font-family:'NSimSun';adobe-font-script:japanese;">
	<!ATTLIST svg
		xmlns:ewd CDATA #FIXED "http://shcl.co.jp/ewd"
		xmlns:a CDATA #FIXED "http://ns.adobe.com/AdobeSVGViewerExtensions/3.0/"
		ewd:ver CDATA #IMPLIED
	>
	<!ATTLIST a
		ewd:lineID CDATA #IMPLIED
		ewd:groupID CDATA #IMPLIED
		ewd:figtype CDATA #IMPLIED
		ewd:code CDATA #IMPLIED
		ewd:figID CDATA #IMPLIED
		ewd:pinNo CDATA #IMPLIED
		ewd:comment CDATA #IMPLIED >
	<!ATTLIST g
		ewd:lineID CDATA #IMPLIED
		ewd:groupID CDATA #IMPLIED
		ewd:figtype CDATA #IMPLIED
		ewd:code CDATA #IMPLIED
		ewd:figID CDATA #IMPLIED
		ewd:pinNo CDATA #IMPLIED
		ewd:comment CDATA #IMPLIED >
	<!ATTLIST text
		ewd:textID CDATA #IMPLIED
		ewd:horAlign CDATA #IMPLIED >
	<!ATTLIST title
		ewd:textID CDATA #IMPLIED >
]>
<!-- Generator: Shintec Hozumi YS   -->
<svg onload="call_execInitLoadProc_svg('system')" style="overflow:visible;  enable-background:new 0 0 4091.189 710.000" viewBox="0 0 4095.311 710.000" height="710.000" width="4095.311" xml:space="preserve" ewd:ver="2.1.2.6F" xmlns="&ns_svg;" xmlns:ewd="http://shcl.co.jp/ewd" xmlns:a="http://ns.adobe.com/AdobeSVGViewerExtensions/3.0/" xmlns:xlink="&ns_xlink;">
<text style="font-size:6px;font-family:'NSimSun';" transform="matrix(&st17;  3276.76  532.48 )">LG</text><text style="font-size:6px;font-family:'NSimSun';" transform="matrix(&st17;  3404.23  532.25 )">BR</text><text style="font-size:6px;font-family:'NSimSun';" transform="matrix(&st17;  3276.76  242.21 )">W</text><text style="font-size:6px;font-family:'NSimSun';" transform="matrix(&st17;  3344.74  130.76 )">P</text><text style="font-size:6px;font-family:'NSimSun';" transform="matrix(&st17;  3276.76  131.73 )">W</text><text style="font-size:6px;font-family:'NSimSun';" transform="matrix(&st17;  3310.75  531.16 )">W</text><text style="font-size:6px;font-family:'NSimSun';" transform="matrix(&st16;  3075.74  626.98 )">LG(*2)</text><text style="font-size:6px;font-family:'NSimSun';" transform="matrix(&st16;  3128.05  643.98 )">W(*2)</text><text style="font-size:6px;font-family:'NSimSun';" transform="matrix(&st16;  3126.73  626.98 )">LG(*2)</text><text style="font-size:6px;font-family:'NSimSun';" transform="matrix(&st16;  3128.05  609.99 )">W(*1)</text><text style="font-size:6px;font-family:'NSimSun';" transform="matrix(&st16;  3126.73  592.99 )">LG(*1)</text><text style="font-size:6px;font-family:'NSimSun';" transform="matrix(&st17;  3322.08  533.41 )">(*1)</text><text style="font-size:6px;font-family:'NSimSun';" transform="matrix(&st16;  3075.74  592.99 )">LG(*1)</text><text style="font-size:6px;font-family:'NSimSun';" transform="matrix(&st16;  3077.06  609.99 )">W(*1)</text><text style="font-size:6px;font-family:'NSimSun';" transform="matrix(&st16;  3077.06  643.98 )">W(*2)</text><text style="font-size:6px;font-family:'NSimSun';" transform="matrix(&st17;  3288.09  133.98 )">(*1)</text><text style="font-size:6px;font-family:'NSimSun';" transform="matrix(&st17;  3415.57  533.41 )">(*1)</text><text style="font-size:6px;font-family:'NSimSun';" transform="matrix(&st17;  3288.09  244.46 )">(*1)</text><text style="font-size:6px;font-family:'NSimSun';" transform="matrix(&st17;  3356.08  133.98 )">(*1)</text><text style="font-size:6px;font-family:'NSimSun';" transform="matrix(&st17;  3288.09  533.41 )">(*1)</text><g ewd:figtype="conn" ewd:figID="35" ewd:code="E55"><path style="stroke-width: 0.85 ;&st7;  " d=" M  3483.30,   390.77  L  3490.66,   386.52  " /><path style="stroke-width: 0.85 ;&st7;  " d=" M  3488.65,   383.06  L  3481.29,   387.31  " /><path style="stroke-width: 0.85 ;&st7;  " d=" M  3480.17,   392.72  L  3471.67,   392.72  " /><path style="stroke-width: 0.85 ;&st7;  " d=" M  3449.30,   390.77  L  3456.66,   386.52  " /><path style="stroke-width: 0.85 ;&st7;  " d=" M  3454.66,   383.06  L  3447.30,   387.31  " /><path style="stroke-width: 0.85 ;&st7;  " d=" M  3446.17,   392.72  L  3437.68,   392.72  " /><path style="stroke-width: 0.85 ;&st7;  " d=" M  3352.69,   324.73  L  3344.19,   324.73  " /><path style="stroke-width: 0.85 ;&st7;  " d=" M  3284.70,   324.73  L  3276.20,   324.73  " /><path style="stroke-width: 0.85 ;&st7;  " d=" M  3373.93,   367.22  L  3373.93,   333.23  L  3475.92,   333.23  L  3475.92,   350.23  " /><path style="stroke-width: 0.85 ;&st7;  " d=" M  3441.92,   350.23  L  3407.93,   350.23  L  3407.93,   367.22  " /><path style="stroke-width: 0.85 ;&st7;  " d=" M  3475.92,   384.22  L  3475.92,   375.72  L  3473.08,   374.31  L  3478.75,   371.47  L  3473.08,   368.64  L  3478.75,   365.81  L  3473.08,   362.97  L  3478.75,   360.14  L  3475.92,   358.73  L  3475.92,   350.23  " /><path style="stroke-width: 0.28 ;&st9;  " d=" M  3475.92,   392.72  L  3470.25,   384.22  L  3481.58,   384.22  L  3475.92,   392.72  " /><path style="stroke-width: 0.85 ;&st7;  " d=" M  3488.65,   383.06  L  3486.32,   386.10  L  3484.85,   383.56  L  3488.65,   383.06  L  3487.37,   383.80  L  3486.38,   385.08  L  3485.76,   384.01  L  3487.37,   383.80  L  3486.73,   384.17  L  3486.42,   384.57  L  3486.22,   384.23  L  3486.73,   384.17  " /><path style="stroke-width: 0.85 ;&st7;  " d=" M  3490.65,   386.52  L  3488.32,   389.57  L  3486.85,   387.03  L  3490.65,   386.52  L  3489.37,   387.27  L  3488.39,   388.55  L  3487.77,   387.48  L  3489.37,   387.27  L  3488.73,   387.63  L  3488.42,   388.04  L  3488.22,   387.70  L  3488.73,   387.63  " /><path style="stroke-width: 0.85 ;&st7;  " d=" M  3474.50,   426.71  L  3477.33,   426.71  " /><path style="stroke-width: 0.85 ;&st7;  " d=" M  3473.08,   423.88  L  3478.75,   423.88  " /><path style="stroke-width: 0.85 ;&st7;  " d=" M  3471.67,   421.05  L  3480.17,   421.05  " /><path style="stroke-width: 0.85 ;&st7;  " d=" M  3467.42,   418.22  L  3484.42,   418.22  " /><path style="stroke-width: 0.85 ;&st7;  " d=" M  3475.92,   409.72  L  3475.92,   418.22  " /><path style="stroke-width: 0.85 ;&st7;  " d=" M  3475.92,   392.72  L  3475.92,   409.72  " /><path style="stroke-width: 0.85 ;&st7;  " d=" M  3441.92,   384.22  L  3441.92,   375.72  L  3439.09,   374.31  L  3444.76,   371.47  L  3439.09,   368.64  L  3444.76,   365.81  L  3439.09,   362.97  L  3444.76,   360.14  L  3441.92,   358.73  L  3441.92,   350.23  " /><path style="stroke-width: 0.28 ;&st9;  " d=" M  3441.92,   392.72  L  3436.26,   384.22  L  3447.59,   384.22  L  3441.92,   392.72  " /><path style="stroke-width: 0.85 ;&st7;  " d=" M  3454.66,   383.06  L  3452.32,   386.10  L  3450.86,   383.56  L  3454.66,   383.06  L  3453.37,   383.80  L  3452.39,   385.08  L  3451.77,   384.01  L  3453.37,   383.80  L  3452.73,   384.17  L  3452.42,   384.57  L  3452.23,   384.23  L  3452.73,   384.17  " /><path style="stroke-width: 0.85 ;&st7;  " d=" M  3456.66,   386.52  L  3454.33,   389.57  L  3452.86,   387.03  L  3456.66,   386.52  L  3455.38,   387.27  L  3454.39,   388.55  L  3453.77,   387.48  L  3455.38,   387.27  L  3454.74,   387.63  L  3454.42,   388.04  L  3454.23,   387.70  L  3454.74,   387.63  " /><path style="stroke-width: 0.85 ;&st7;  " d=" M  3440.51,   426.71  L  3443.34,   426.71  " /><path style="stroke-width: 0.85 ;&st7;  " d=" M  3439.09,   423.88  L  3444.76,   423.88  " /><path style="stroke-width: 0.85 ;&st7;  " d=" M  3437.67,   421.05  L  3446.17,   421.05  " /><path style="stroke-width: 0.85 ;&st7;  " d=" M  3433.42,   418.22  L  3450.42,   418.22  " /><path style="stroke-width: 0.85 ;&st7;  " d=" M  3441.92,   409.72  L  3441.92,   418.22  " /><path style="stroke-width: 0.85 ;&st7;  " d=" M  3441.92,   392.72  L  3441.92,   409.72  " /><path style="stroke-width: 0.85 ;&st7;  " d=" M  3314.44,   367.22  L  3314.44,   392.72  " /><path style="stroke-width: 0.85 ;&st7;  " d=" M  3280.45,   418.22  L  3280.45,   443.71  " /><path style="stroke-width: 0.85 ;&st7;  " d=" M  3314.44,   418.22  L  3314.44,   443.71  " /><path style="stroke-width: 0.85 ;&st7;  " d=" M  3250.71,   443.71  L  3242.21,   443.71  " /><path style="stroke-width: 0.85 ;&st7;  " d=" M  3246.46,   443.71  L  3246.46,   452.21  L  3263.45,   452.21  " /><path style="stroke-width: 1.42 ;&st7;  " d=" M  3254.95,   418.22  L  3254.95,   401.22  L  3339.94,   401.22  L  3339.94,   418.22  " /><path style="stroke-width: 1.42 ;&st7;  " d=" M  3365.44,   367.22  L  3365.44,   384.22  L  3416.43,   384.22  L  3416.43,   367.22  L  3365.44,   367.22  " /><path style="stroke-width: 0.85 ;&st7;  " d=" M  3407.93,   384.22  L  3407.93,   392.72  " /><path style="stroke-width: 0.85 ;&st7;  " d=" M  3373.93,   384.22  L  3373.93,   392.72  " /><path style="stroke-width: 1.42 ;&st7;  " d=" M  3246.46,   392.72  L  3246.46,   418.22  L  3416.43,   418.22  L  3416.43,   392.72  L  3246.46,   392.72  " /><path style="stroke-width: 1.42 ;&st7;  " d=" M  3263.45,   443.71  L  3263.45,   460.71  L  3331.44,   460.71  L  3331.44,   443.71  L  3263.45,   443.71  " /><path style="stroke-width: 0.85 ;&st7;  " d=" M  3279.03,   375.72  L  3281.87,   375.72  " /><path style="stroke-width: 0.85 ;&st7;  " d=" M  3277.62,   372.89  L  3283.28,   372.89  " /><path style="stroke-width: 0.85 ;&st7;  " d=" M  3276.20,   370.06  L  3284.70,   370.06  " /><path style="stroke-width: 0.85 ;&st7;  " d=" M  3271.95,   367.22  L  3288.95,   367.22  " /><path style="stroke-width: 0.85 ;&st7;  " d=" M  3280.45,   367.22  L  3280.45,   358.73  L  3297.45,   358.73  " /><path style="stroke-width: 1.42 ;&st7;  " d=" M  3297.45,   350.23  L  3297.45,   367.22  L  3331.44,   367.22  L  3331.44,   350.23  L  3297.45,   350.23  " /><path style="stroke-width: 0.85 ;&st7;  " d=" M  3313.25,   332.23  L  3312.98,   332.70  L  3312.89,   333.23  L  3312.98,   333.76  L  3313.25,   334.23  L  3313.67,   334.58  L  3314.18,   334.77  L  3314.71,   334.77  L  3315.22,   334.58  L  3315.64,   334.23  L  3315.91,   333.76  L  3316.00,   333.23  L  3315.91,   332.70  L  3315.64,   332.23  L  3315.22,   331.88  L  3314.71,   331.69  L  3314.18,   331.69  L  3313.67,   331.88  L  3313.25,   332.23  L  3313.65,   332.94  L  3313.65,   333.52  L  3314.02,   333.97  L  3314.59,   334.07  L  3315.10,   333.78  L  3315.29,   333.23  L  3315.10,   332.68  L  3314.59,   332.39  L  3314.02,   332.49  L  3314.44,   333.23  " /><path style="stroke-width: 0.85 ;&st7;  " d=" M  3314.44,   333.23  L  3314.44,   350.23  " /><path style="stroke-width: 0.85 ;&st7;  " d=" M  3280.45,   282.24  L  3280.45,   333.23  L  3348.44,   333.23  L  3348.44,   282.24  " /><path style="stroke-width: 0.28 ;&st9;  " d=" M  3348.44,   324.73  L  3342.77,   316.23  L  3354.10,   316.23  L  3348.44,   324.73  " /><path style="stroke-width: 0.28 ;&st9;  " d=" M  3280.45,   324.73  L  3274.78,   316.23  L  3286.12,   316.23  L  3280.45,   324.73  " /><path style="stroke-width: 0.85 ;&st7;  " d=" M  3407.93,   418.22  L  3407.93,   494.70  " /><path style="stroke-width: 0.85 ;&st7;  " d=" M  3314.44,   460.71  L  3314.44,   494.70  " /><path style="stroke-width: 0.85 ;&st7;  " d=" M  3280.45,   460.71  L  3280.45,   494.70  " /><path style="stroke-width: 1.42 ;&st7;  " d=" M  3229.46,   282.24  L  3229.46,   494.70  L  3501.41,   494.70  L  3501.41,   282.24  L  3229.46,   282.24  " /><text style="font-size:6px;font-family:'NSimSun';" transform="matrix(&st17;  3468.26  402.92 )" ewd:textID="31">照明</text><text style="font-size:6px;font-family:'NSimSun';" transform="matrix(&st17;  3434.26  393.03 )" ewd:textID="69">尾灯</text><text style="font-size:6px;font-family:'NSimSun';" transform="matrix(&st16;  3317.03  375.42 )">5V+B</text><text style="font-size:6px;font-family:'NSimSun';" transform="matrix(&st16;  3371.89  407.72 )">CPU</text><text style="font-size:6px;font-family:'NSimSun';" transform="matrix(&st16; 3375.54 377.97)" ewd:textID="35" ewd:horAlign="center">LED 驱动器</text><text style="font-size:6px;font-family:'NSimSun';" transform="matrix(&st16;  3410.51  491.01 )">ET</text><text style="font-size:6px;font-family:'NSimSun';" transform="matrix(&st16;  3285.68  454.46 )">CAN I/F</text><text style="font-size:6px;font-family:'NSimSun';" transform="matrix(&st16;  3317.03  491.01 )">CANL</text><text style="font-size:6px;font-family:'NSimSun';" transform="matrix(&st16;  3283.04  491.01 )">CANH</text><text style="font-size:6px;font-family:'NSimSun';" transform="matrix(&st16;  3239.11  440.3 )">5V+B</text><text style="font-size:6px;font-family:'NSimSun';" transform="matrix(&st16; 3282.05 411.97)" ewd:textID="19" ewd:horAlign="center">CAN 控制器</text><text style="font-size:6px;font-family:'NSimSun';" transform="matrix(&st16;  3306.6  360.69 )">5V IC</text><text style="font-size:6px;font-family:'NSimSun';" transform="matrix(&st16;  3351.02  290.43 )">IG+</text><text style="font-size:6px;font-family:'NSimSun';" transform="matrix(&st16;  3283.04  290.43 )">B</text><text style="font-size:6px;font-family:'NSimSun';" transform="matrix(&st16;  3268.66  501.2 )">32</text><path style="stroke-width: 1.42 ;&st7;   " d=" M  3284.98,   499.24  C  3284.98    496.73   3282.96    494.70   3280.45    494.70  " /><path style="stroke-width: 1.42 ;&st7;   " d=" M  3280.45,   494.70  C  3277.95    494.70   3275.92    496.73   3275.92    499.24  " /><path style="stroke-width: 1.42 ;&st7;   " d=" M  3275.92,   499.24  C  3275.92    501.74   3277.95    503.77   3280.45    503.77  " /><path style="stroke-width: 1.42 ;&st7;   " d=" M  3280.45,   503.77  C  3282.96    503.77   3284.98    501.74   3284.98    499.24  " /><text style="font-size:6px;font-family:'NSimSun';" transform="matrix(&st16;  3278.15  501.2 )">A</text><text style="font-size:6px;font-family:'NSimSun';" transform="matrix(&st16;  3268.66  279.67 )">40</text><text style="font-size:6px;font-family:'NSimSun';" transform="matrix(&st16;  3278.15  279.67 )">A</text><path style="stroke-width: 1.42 ;&st7;   " d=" M  3284.98,   277.71  C  3284.98    275.20   3282.96    273.17   3280.45    273.17  " /><path style="stroke-width: 1.42 ;&st7;   " d=" M  3280.45,   273.17  C  3277.95    273.17   3275.92    275.20   3275.92    277.71  " /><path style="stroke-width: 1.42 ;&st7;   " d=" M  3275.92,   277.71  C  3275.92    280.21   3277.95    282.24   3280.45    282.24  " /><path style="stroke-width: 1.42 ;&st7;   " d=" M  3280.45,   282.24  C  3282.96    282.24   3284.98    280.21   3284.98    277.71  " /><text style="font-size:6px;font-family:'NSimSun';" transform="matrix(&st16;  3302.65  501.2 )">31</text><text style="font-size:6px;font-family:'NSimSun';" transform="matrix(&st16;  3312.14  501.2 )">A</text><path style="stroke-width: 1.42 ;&st7;   " d=" M  3318.98,   499.24  C  3318.98    496.73   3316.95    494.70   3314.45    494.70  " /><path style="stroke-width: 1.42 ;&st7;   " d=" M  3314.45,   494.70  C  3311.94    494.70   3309.91    496.73   3309.91    499.24  " /><path style="stroke-width: 1.42 ;&st7;   " d=" M  3309.91,   499.24  C  3309.91    501.74   3311.94    503.77   3314.45    503.77  " /><path style="stroke-width: 1.42 ;&st7;   " d=" M  3314.45,   503.77  C  3316.95    503.77   3318.98    501.74   3318.98    499.24  " /><text style="font-size:6px;font-family:'NSimSun';" transform="matrix(&st16;  3336.64  279.67 )">39</text><text style="font-size:6px;font-family:'NSimSun';" transform="matrix(&st16;  3346.14  279.67 )">A</text><path style="stroke-width: 1.42 ;&st7;   " d=" M  3352.97,   277.71  C  3352.97    275.20   3350.94    273.17   3348.44    273.17  " /><path style="stroke-width: 1.42 ;&st7;   " d=" M  3348.44,   273.17  C  3345.94    273.17   3343.91    275.20   3343.91    277.71  " /><path style="stroke-width: 1.42 ;&st7;   " d=" M  3343.91,   277.71  C  3343.91    280.21   3345.94    282.24   3348.44    282.24  " /><path style="stroke-width: 1.42 ;&st7;   " d=" M  3348.44,   282.24  C  3350.94    282.24   3352.97    280.21   3352.97    277.71  " /><text style="font-size:6px;font-family:'NSimSun';" transform="matrix(&st16;  3396.13  501.2 )">21</text><path style="stroke-width: 1.42 ;&st7;   " d=" M  3412.46,   499.24  C  3412.46    496.73   3410.43    494.70   3407.93    494.70  " /><path style="stroke-width: 1.42 ;&st7;   " d=" M  3407.93,   494.70  C  3405.43    494.70   3403.40    496.73   3403.40    499.24  " /><path style="stroke-width: 1.42 ;&st7;   " d=" M  3403.40,   499.24  C  3403.40    501.74   3405.43    503.77   3407.93    503.77  " /><path style="stroke-width: 1.42 ;&st7;   " d=" M  3407.93,   503.77  C  3410.43    503.77   3412.46    501.74   3412.46    499.24  " /><text style="font-size:6px;font-family:'NSimSun';" transform="matrix(&st16;  3405.63  501.2 )">A</text><g ewd:figtype="title"><text style="font-size:6px;font-family:'NSimSun';" transform="matrix(&st17;  3509.03  497.6 )">E55(A)</text><text style="font-size:6px;font-family:'NSimSun';" transform="matrix(&st17;  3516.13  497.61 )" ewd:textID="23">组合仪表总成</text></g></g><g ewd:figtype="rb" ewd:figID="37" ewd:code="FUSE6"><path style="stroke-width: 0.85 ;&st7;  " d=" M  3280.45,    69.77  L  3280.45,    95.27  " /><path style="stroke-width: 1.42 ;&st7;  " d=" M  3282.58,   103.77  L  3278.33,   103.77  " /><path style="stroke-width: 1.42 ;&st7;  " d=" M  3282.58,    95.27  L  3278.33,    95.27  " /><path style="stroke-width: 1.42 ;&st7;   " d=" M  3286.83,    99.52  C  3286.83     97.17   3284.92     95.27   3282.58     95.27  " /><path style="stroke-width: 1.42 ;&st7;   " d=" M  3282.58,   103.77  C  3284.92    103.77   3286.83    101.87   3286.83     99.52  " /><path style="stroke-width: 1.42 ;&st7;   " d=" M  3274.08,    99.52  C  3274.08    101.87   3275.98    103.77   3278.33    103.77  " /><path style="stroke-width: 1.42 ;&st7;   " d=" M  3278.33,    95.27  C  3275.98     95.27   3274.08     97.17   3274.08     99.52  " /><path style="stroke-width: 0.28 ;&st9;  " d=" M  3280.45,    90.37  L  3277.62,    87.54  L  3277.62,    91.79  L  3280.45,    94.62  L  3283.28,    91.79  L  3283.28,    87.54  L  3280.45,    90.37  " /><text style="font-size:6px;font-family:'NSimSun';" transform="matrix(&st16;  3274.27  86.47 )">2</text><text style="font-size:6px;font-family:'NSimSun';" transform="matrix(&st16;  3272.41  32.08 )">(BAT)</text><text style="font-size:6px;font-family:'NSimSun';" transform="matrix(&st16;  3278.65  101.49 )">1</text><text style="font-size:6px;font-family:'NSimSun';" transform="matrix(&st16;  3296.88  53.34 )">10A <tspan x="0 " dy="6.0">ECU-B </tspan><tspan x="0 " dy="6.0">NO.2</tspan></text><path style="stroke-width: 0.85 ;&st7;   " d=" M  3281.87,    68.36  C  3281.87     67.57   3281.23     66.94   3280.45     66.94  " /><path style="stroke-width: 0.85 ;&st7;   " d=" M  3280.45,    66.94  C  3279.67     66.94   3279.04     67.57   3279.04     68.36  " /><path style="stroke-width: 0.85 ;&st7;   " d=" M  3279.04,    68.36  C  3279.04     69.14   3279.67     69.77   3280.45     69.77  " /><path style="stroke-width: 0.85 ;&st7;   " d=" M  3280.45,    69.77  C  3281.23     69.77   3281.87     69.14   3281.87     68.36  " /><path style="stroke-width: 0.85 ;&st7;   " d=" M  3281.87,    45.69  C  3281.87     44.91   3281.23     44.28   3280.45     44.28  " /><path style="stroke-width: 0.85 ;&st7;   " d=" M  3280.45,    44.28  C  3279.67     44.28   3279.04     44.91   3279.04     45.69  " /><path style="stroke-width: 0.85 ;&st7;   " d=" M  3279.04,    45.69  C  3279.04     46.48   3279.67     47.11   3280.45     47.11  " /><path style="stroke-width: 0.85 ;&st7;   " d=" M  3280.45,    47.11  C  3281.23     47.11   3281.87     46.48   3281.87     45.69  " /><path style="stroke-width: 1.42 ;&st7;   " d=" M  3280.45,    66.94  C  3283.19     65.33   3284.10     61.80   3282.49     59.06  " /><path style="stroke-width: 1.42 ;&st7;   " d=" M  3282.49,    59.06  C  3281.97     58.18   3281.33     57.55   3280.45     57.03  " /><path style="stroke-width: 1.42 ;&st7;   " d=" M  3280.45,    47.11  C  3277.71     48.72   3276.80     52.25   3278.42     54.99  " /><path style="stroke-width: 1.42 ;&st7;   " d=" M  3278.42,    54.99  C  3278.93     55.87   3279.57     56.51   3280.45     57.03  " /><path style="stroke-width: 1.42 ;&st7;  " d=" M  3267.70,    35.78  L  3267.70,    78.27  L  3293.20,    78.27  L  3293.20,    35.78  L  3267.70,    35.78  " /></g><g ewd:figtype="jb" ewd:figID="49" ewd:code="3"><path style="stroke-width: 1.42 ;&st7;  " d=" M  3282.58,   214.25  L  3278.33,   214.25  " /><path style="stroke-width: 1.42 ;&st7;  " d=" M  3282.58,   205.75  L  3278.33,   205.75  " /><path style="stroke-width: 1.42 ;&st7;  " d=" M  3282.58,   171.76  L  3278.33,   171.76  " /><path style="stroke-width: 1.42 ;&st7;  " d=" M  3282.58,   163.26  L  3278.33,   163.26  " /><path style="stroke-width: 1.42 ;&st7;   " d=" M  3286.83,   210.00  C  3286.83    207.65   3284.92    205.75   3282.58    205.75  " /><path style="stroke-width: 1.42 ;&st7;   " d=" M  3282.58,   214.25  C  3284.92    214.25   3286.83    212.35   3286.83    210.00  " /><path style="stroke-width: 1.42 ;&st7;   " d=" M  3274.08,   210.00  C  3274.08    212.35   3275.98    214.25   3278.33    214.25  " /><path style="stroke-width: 1.42 ;&st7;   " d=" M  3278.33,   205.75  C  3275.98    205.75   3274.08    207.65   3274.08    210.00  " /><path style="stroke-width: 1.42 ;&st7;   " d=" M  3286.83,   167.51  C  3286.83    165.16   3284.92    163.26   3282.58    163.26  " /><path style="stroke-width: 1.42 ;&st7;   " d=" M  3282.58,   171.76  C  3284.92    171.76   3286.83    169.85   3286.83    167.51  " /><path style="stroke-width: 1.42 ;&st7;   " d=" M  3274.08,   167.51  C  3274.08    169.85   3275.98    171.76   3278.33    171.76  " /><path style="stroke-width: 1.42 ;&st7;   " d=" M  3278.33,   163.26  C  3275.98    163.26   3274.08    165.16   3274.08    167.51  " /><path style="stroke-width: 0.85 ;&st7;  " d=" M  3280.45,   205.75  L  3280.45,   171.76  " /><path style="stroke-width: 0.28 ;&st9;  " d=" M  3280.45,   200.86  L  3277.62,   198.02  L  3277.62,   202.27  L  3280.45,   205.11  L  3283.28,   202.27  L  3283.28,   198.02  L  3280.45,   200.86  " /><path style="stroke-width: 0.28 ;&st9;  " d=" M  3280.45,   176.65  L  3283.28,   179.48  L  3283.28,   175.24  L  3280.45,   172.40  L  3277.62,   175.24  L  3277.62,   179.48  L  3280.45,   176.65  " /><text style="font-size:6px;font-family:'NSimSun';" transform="matrix(&st16;  3266.84  211.97 )">34</text><text style="font-size:6px;font-family:'NSimSun';" transform="matrix(&st16;  3276.52  211.97 )">3D</text><text style="font-size:6px;font-family:'NSimSun';" transform="matrix(&st16;  3266.84  169.48 )">44</text><text style="font-size:6px;font-family:'NSimSun';" transform="matrix(&st16;  3276.6  169.48 )">3A</text></g><g ewd:figtype="jb" ewd:figID="50" ewd:code="3"><path style="stroke-width: 1.42 ;&st7;  " d=" M  3350.57,   103.77  L  3346.32,   103.77  " /><path style="stroke-width: 1.42 ;&st7;  " d=" M  3350.57,    95.27  L  3346.32,    95.27  " /><path style="stroke-width: 0.85 ;&st7;  " d=" M  3348.44,    69.77  L  3348.44,    95.27  " /><path style="stroke-width: 1.42 ;&st7;   " d=" M  3354.81,    99.52  C  3354.81     97.17   3352.91     95.27   3350.57     95.27  " /><path style="stroke-width: 1.42 ;&st7;   " d=" M  3350.57,   103.77  C  3352.91    103.77   3354.81    101.87   3354.81     99.52  " /><path style="stroke-width: 1.42 ;&st7;   " d=" M  3342.07,    99.52  C  3342.07    101.87   3343.97    103.77   3346.32    103.77  " /><path style="stroke-width: 1.42 ;&st7;   " d=" M  3346.32,    95.27  C  3343.97     95.27   3342.07     97.17   3342.07     99.52  " /><path style="stroke-width: 0.85 ;&st7;   " d=" M  3349.86,    68.36  C  3349.86     67.57   3349.22     66.94   3348.44     66.94  " /><path style="stroke-width: 0.85 ;&st7;   " d=" M  3348.44,    66.94  C  3347.66     66.94   3347.02     67.57   3347.02     68.36  " /><path style="stroke-width: 0.85 ;&st7;   " d=" M  3347.02,    68.36  C  3347.02     69.14   3347.66     69.77   3348.44     69.77  " /><path style="stroke-width: 0.85 ;&st7;   " d=" M  3348.44,    69.77  C  3349.22     69.77   3349.86     69.14   3349.86     68.36  " /><path style="stroke-width: 0.85 ;&st7;   " d=" M  3349.86,    45.69  C  3349.86     44.91   3349.22     44.28   3348.44     44.28  " /><path style="stroke-width: 0.85 ;&st7;   " d=" M  3348.44,    44.28  C  3347.66     44.28   3347.02     44.91   3347.02     45.69  " /><path style="stroke-width: 0.85 ;&st7;   " d=" M  3347.02,    45.69  C  3347.02     46.48   3347.66     47.11   3348.44     47.11  " /><path style="stroke-width: 0.85 ;&st7;   " d=" M  3348.44,    47.11  C  3349.22     47.11   3349.86     46.48   3349.86     45.69  " /><path style="stroke-width: 1.42 ;&st7;   " d=" M  3348.44,    66.94  C  3351.18     65.33   3352.09     61.80   3350.48     59.06  " /><path style="stroke-width: 1.42 ;&st7;   " d=" M  3350.48,    59.06  C  3349.96     58.18   3349.32     57.55   3348.44     57.03  " /><path style="stroke-width: 1.42 ;&st7;   " d=" M  3348.44,    47.11  C  3345.70     48.72   3344.79     52.25   3346.40     54.99  " /><path style="stroke-width: 1.42 ;&st7;   " d=" M  3346.40,    54.99  C  3346.92     55.87   3347.56     56.51   3348.44     57.03  " /><path style="stroke-width: 1.42 ;&st7;  " d=" M  3335.69,    35.78  L  3335.69,    78.27  L  3361.19,    78.27  L  3361.19,    35.78  L  3335.69,    35.78  " /><path style="stroke-width: 0.28 ;&st9;  " d=" M  3348.44,    90.37  L  3345.61,    87.54  L  3345.61,    91.79  L  3348.44,    94.62  L  3351.27,    91.79  L  3351.27,    87.54  L  3348.44,    90.37  " /><text style="font-size:6px;font-family:'NSimSun';" transform="matrix(&st16;  3342.26  86.47 )">2</text><text style="font-size:6px;font-family:'NSimSun';" transform="matrix(&st16;  3343.23  32.08 )">(IG)</text><text style="font-size:6px;font-family:'NSimSun';" transform="matrix(&st16;  3334.83  101.49 )">55</text><text style="font-size:6px;font-family:'NSimSun';" transform="matrix(&st16;  3344.47  101.49 )">3C</text><text style="font-size:6px;font-family:'NSimSun';" transform="matrix(&st16;  3364.87  56.17 )">5A <tspan x="0 " dy="6.0">MET</tspan></text></g><g ewd:figtype="gp" ewd:figID="75" ewd:code="ED"><path style="stroke-width: 0.85 ;&st7;  " d=" M  3406.51,   710.00  L  3409.35,   710.00  " /><path style="stroke-width: 0.85 ;&st7;  " d=" M  3405.10,   707.17  L  3410.76,   707.17  " /><path style="stroke-width: 0.85 ;&st7;  " d=" M  3403.68,   704.33  L  3412.18,   704.33  " /><path style="stroke-width: 0.85 ;&st7;  " d=" M  3399.43,   701.50  L  3416.43,   701.50  " /><path style="stroke-width: 0.85 ;&st7;  " d=" M  3407.93,   697.25  L  3407.93,   701.50  " /></g><g ewd:code="1" ewd:figID="112" ewd:comment="" ewd:figtype="comment"><text style="font-size:6px;font-family:'NSimSun';" transform="matrix(&st16;  3498.01  63.24 )" ewd:textID="1">* 1 : 带 TFT 显示屏</text></g><g ewd:code="2" ewd:figID="113" ewd:comment="" ewd:figtype="comment"><text style="font-size:6px;font-family:'NSimSun';" transform="matrix(&st16;  3498.01  71.74 )" ewd:textID="2">* 2 : 不带 TFT 显示屏</text></g></svg>