<?xml version="1.0" encoding="utf-8"?>
<!DOCTYPE svg PUBLIC "-//W3C//DTD SVG 1.0//EN" "http://www.w3.org/TR/2001/REC-SVG-20010904/DTD/svg10.dtd"[
	<!ENTITY ns_flows "http://ns.adobe.com/Flows/1.0/">
	<!ENTITY ns_svg "http://www.w3.org/2000/svg">
	<!ENTITY ns_xlink "http://www.w3.org/1999/xlink">
	<!ENTITY st0 "font-size:7px;font-family:'NSimSun';adobe-font-script:japanese;">
	<!ENTITY st1 "font-size:6px;font-family:'NSimSun';">
	<!-- White fill  -->
	<!ENTITY st2 "fill:#FFFFFF;stroke:#000000; stroke-width:1.41;stroke-linecap:round;stroke-linejoin:round;">
	<!-- Yellow fill  -->
	<!ENTITY st3 "fill:#FFFFCC;stroke:#FFFFCC; stroke-width:0.1;stroke-linecap:round;stroke-linejoin:round;">
	<!-- Gray fill  -->
	<!ENTITY st4 "fill:#CCCCCC;stroke:#CCCCCC; stroke-width:0.1;stroke-linecap:round;stroke-linejoin:round;">
	<!-- Light-blue fill -->
	<!ENTITY st5 "fill:#CCECF4;stroke:#000000; stroke-width:1.133;stroke-linecap:round;stroke-linejoin:round;">
	<!ENTITY st6 "fill:none;stroke-linecap:butt; stroke-linejoin:round;">
	<!ENTITY st7 "fill:none;stroke:#000000;stroke-linecap:round;stroke-linejoin:round;">
	<!ENTITY st8 "enable-background:new    ;">
	<!-- Black fill -->
	<!ENTITY st9 "fill:#000000;stroke:#000000; stroke-linecap:round;stroke-linejoin:round;">
	<!-- SRS note   -->
	<!ENTITY st10 "font-size:9px;font-family:'NSimSun';">
	<!ENTITY st11 "font-size:9px;font-family:'NSimSun';">
	<!ENTITY st12 "font-size:6px;font-family:'NSimSun';">
	<!ENTITY st13 "fill:none;stroke:#ff0000;stroke-linecap:round;stroke-linejoin:round;">
	<!-- Yellow fill  -->
	<!ENTITY st14 "fill:#FFFF00;stroke:#FFFF00; stroke-width:0.1;stroke-linecap:round;stroke-linejoin:round;">
	<!ENTITY st15 "font-size:6px;font-family:'NSimSun';adobe-font-script:japanese;">
	<!ENTITY st16 "1.00 0.00 0.00 1.00">
	<!ENTITY st17 "0.00 -1.00 1.00 0.00">
	<!ENTITY st18 "font-size:6px;font-family:'NSimSun';">
	<!ENTITY st19 "font-size:9px;font-family:'NSimSun';">
	<!ENTITY st20 "font-size:6px;font-family:'NSimSun';adobe-font-script:japanese;">
	<!ENTITY st21 "font-size:7px;font-family:'NSimSun';adobe-font-script:japanese;">
	<!ATTLIST svg
		xmlns:ewd CDATA #FIXED "http://shcl.co.jp/ewd"
		xmlns:a CDATA #FIXED "http://ns.adobe.com/AdobeSVGViewerExtensions/3.0/"
		ewd:ver CDATA #IMPLIED
	>
	<!ATTLIST a
		ewd:lineID CDATA #IMPLIED
		ewd:groupID CDATA #IMPLIED
		ewd:figtype CDATA #IMPLIED
		ewd:code CDATA #IMPLIED
		ewd:figID CDATA #IMPLIED
		ewd:pinNo CDATA #IMPLIED
		ewd:comment CDATA #IMPLIED >
	<!ATTLIST g
		ewd:lineID CDATA #IMPLIED
		ewd:groupID CDATA #IMPLIED
		ewd:figtype CDATA #IMPLIED
		ewd:code CDATA #IMPLIED
		ewd:figID CDATA #IMPLIED
		ewd:pinNo CDATA #IMPLIED
		ewd:comment CDATA #IMPLIED >
	<!ATTLIST text
		ewd:textID CDATA #IMPLIED
		ewd:horAlign CDATA #IMPLIED >
	<!ATTLIST title
		ewd:textID CDATA #IMPLIED >
]>
<!-- Generator: Shintec Hozumi YS   -->
<svg onload="call_execInitLoadProc_svg('system')" style="overflow:visible;  enable-background:new 0 0 4091.189 710.000" viewBox="0 0 4095.311 710.000" height="710.000" width="4095.311" xml:space="preserve" ewd:ver="2.1.2.6F" xmlns="&ns_svg;" xmlns:ewd="http://shcl.co.jp/ewd" xmlns:a="http://ns.adobe.com/AdobeSVGViewerExtensions/3.0/" xmlns:xlink="&ns_xlink;">
<text style="font-size:6px;font-family:'NSimSun';" transform="matrix(&st17;  2928.31  216.21 )">G</text><text style="font-size:6px;font-family:'NSimSun';" transform="matrix(&st17;  2854.66  449.98 )">(*15)</text><text style="font-size:6px;font-family:'NSimSun';" transform="matrix(&st17;  2854.66  220.51 )">(*15)</text><text style="font-size:6px;font-family:'NSimSun';" transform="matrix(&st17;  2843.33  449.67 )">W-B</text><text style="font-size:6px;font-family:'NSimSun';" transform="matrix(&st17;  2843.33  216.21 )">G</text><text style="font-size:6px;font-family:'NSimSun';" transform="matrix(&st17;  2727.18  449.98 )">(*15)</text><text style="font-size:6px;font-family:'NSimSun';" transform="matrix(&st17;  2727.18  220.51 )">(*15)</text><text style="font-size:6px;font-family:'NSimSun';" transform="matrix(&st17;  2715.85  449.67 )">W-B</text><text style="font-size:6px;font-family:'NSimSun';" transform="matrix(&st17;  2673.36  449.67 )">W-B</text><text style="font-size:6px;font-family:'NSimSun';" transform="matrix(&st17;  2684.69  455.56 )">(*15 *18)</text><text style="font-size:6px;font-family:'NSimSun';" transform="matrix(&st17;  2843.33  560.15 )">W-B</text><text style="font-size:6px;font-family:'NSimSun';" transform="matrix(&st17;  2854.66  560.46 )">(*15)</text><text style="font-size:6px;font-family:'NSimSun';" transform="matrix(&st17;  2650.69  220.51 )">(*18)</text><text style="font-size:6px;font-family:'NSimSun';" transform="matrix(&st17;  2639.36  218.03 )">LG</text><text style="font-size:6px;font-family:'NSimSun';" transform="matrix(&st17;  2506.22  220.51 )">(*14)</text><text style="font-size:6px;font-family:'NSimSun';" transform="matrix(&st17;  2650.7  455.56 )">(*16 *18)</text><text style="font-size:6px;font-family:'NSimSun';" transform="matrix(&st17;  2639.36  449.67 )">W-B</text><text style="font-size:6px;font-family:'NSimSun';" transform="matrix(&st17;  2928.31  449.67 )">W-B</text><text style="font-size:6px;font-family:'NSimSun';" transform="matrix(&st17;  2715.85  216.21 )">G</text><text style="font-size:6px;font-family:'NSimSun';" transform="matrix(&st16;  2758.63  100.07 )" ewd:textID="49">5 号接线连接器</text><text style="font-size:6px;font-family:'NSimSun';" transform="matrix(&st16;  2758.63  92.96 )">E72</text><text style="font-size:6px;font-family:'NSimSun';" transform="matrix(&st16;  2558.64  643.98 )">W(*2)</text><text style="font-size:6px;font-family:'NSimSun';" transform="matrix(&st16;  2558.64  609.99 )">W(*1)</text><text style="font-size:6px;font-family:'NSimSun';" transform="matrix(&st16;  2557.33  592.99 )">LG(*1)</text><text style="font-size:6px;font-family:'NSimSun';" transform="matrix(&st16;  2608.32  592.99 )">LG(*1)</text><text style="font-size:6px;font-family:'NSimSun';" transform="matrix(&st16;  2609.64  609.99 )">W(*1)</text><text style="font-size:6px;font-family:'NSimSun';" transform="matrix(&st16;  2608.32  626.98 )">LG(*2)</text><text style="font-size:6px;font-family:'NSimSun';" transform="matrix(&st16;  2609.64  643.98 )">W(*2)</text><text style="font-size:6px;font-family:'NSimSun';" transform="matrix(&st16;  2557.33  626.98 )">LG(*2)</text><g ewd:figtype="conn" ewd:figID="1" ewd:code="E70"><path style="stroke-width: 1.42 ;&st7;  " d=" M  2711.05,   511.70  L  2855.52,   511.70  L  2855.52,   494.70  L  2711.05,   494.70  L  2711.05,   511.70  " /><path style="stroke-width: 0.85 ;&st7;  " d=" M  2847.02,   503.20  L  2847.02,   511.70  " /><path style="stroke-width: 0.85 ;&st7;  " d=" M  2719.54,   511.70  L  2719.54,   494.70  " /><path style="stroke-width: 0.85 ;&st7;  " d=" M  2719.54,   503.20  L  2847.02,   503.20  L  2847.02,   494.70  " /><path style="stroke-width: 0.85 ;&st7;  " d=" M  2718.35,   502.20  L  2718.08,   502.67  L  2717.99,   503.20  L  2718.08,   503.73  L  2718.35,   504.20  L  2718.77,   504.55  L  2719.27,   504.74  L  2719.82,   504.74  L  2720.32,   504.55  L  2720.74,   504.20  L  2721.01,   503.73  L  2721.10,   503.20  L  2721.01,   502.67  L  2720.74,   502.20  L  2720.32,   501.85  L  2719.82,   501.67  L  2719.27,   501.67  L  2718.77,   501.85  L  2718.35,   502.20  L  2718.75,   502.91  L  2718.75,   503.49  L  2719.12,   503.94  L  2719.69,   504.04  L  2720.20,   503.75  L  2720.39,   503.20  L  2720.20,   502.65  L  2719.69,   502.37  L  2719.12,   502.46  L  2719.54,   503.20  " /><path style="stroke-width: 0.85 ;&st7;  " d=" M  2845.83,   502.20  L  2845.56,   502.67  L  2845.47,   503.20  L  2845.56,   503.73  L  2845.83,   504.20  L  2846.24,   504.55  L  2846.75,   504.74  L  2847.30,   504.74  L  2847.80,   504.55  L  2848.22,   504.20  L  2848.49,   503.73  L  2848.58,   503.20  L  2848.49,   502.67  L  2848.22,   502.20  L  2847.80,   501.85  L  2847.30,   501.67  L  2846.75,   501.67  L  2846.24,   501.85  L  2845.83,   502.20  L  2846.22,   502.91  L  2846.22,   503.49  L  2846.60,   503.94  L  2847.17,   504.04  L  2847.67,   503.75  L  2847.87,   503.20  L  2847.67,   502.65  L  2847.17,   502.37  L  2846.60,   502.46  L  2847.02,   503.20  " /><text style="font-size:6px;font-family:'NSimSun';" transform="matrix(&st16;  2710.26  519.89 )">20</text><text style="font-size:6px;font-family:'NSimSun';" transform="matrix(&st16;  2710.26  491.01 )">15</text><text style="font-size:6px;font-family:'NSimSun';" transform="matrix(&st16;  2837.74  519.89 )">12</text><text style="font-size:6px;font-family:'NSimSun';" transform="matrix(&st16;  2837.74  491.01 )">14</text><g ewd:figtype="title"><text style="font-size:6px;font-family:'NSimSun';" transform="matrix(&st16;  2775.62  519.59 )">E70</text><text style="font-size:6px;font-family:'NSimSun';" transform="matrix(&st16;  2775.63  526.42 )" ewd:textID="47">3 号接线连接器<tspan x="0 " dy="6.0" /><tspan x="0 " dy="6.0" /></text></g></g><g ewd:figtype="conn" ewd:figID="5" ewd:code="E75"><path style="stroke-width: 0.85 ;&st7;  " d=" M  2936.26,   282.24  L  2927.76,   282.24  " /><path style="stroke-width: 0.85 ;&st7;  " d=" M  2932.01,   307.73  L  2932.01,   256.74  " /><path style="stroke-width: 0.85 ;&st7;  " d=" M  2944.74,   272.58  L  2942.41,   275.62  L  2940.94,   273.07  L  2944.74,   272.58  L  2943.46,   273.31  L  2942.47,   274.60  L  2941.86,   273.52  L  2943.46,   273.31  L  2942.82,   273.69  L  2942.51,   274.09  L  2942.31,   273.75  L  2942.82,   273.69  " /><path style="stroke-width: 0.85 ;&st7;  " d=" M  2932.01,   350.23  L  2932.01,   367.22  " /><path style="stroke-width: 0.85 ;&st7;  " d=" M  2946.75,   276.04  L  2944.41,   279.09  L  2942.94,   276.54  L  2946.75,   276.04  L  2945.46,   276.79  L  2944.48,   278.07  L  2943.86,   276.99  L  2945.46,   276.79  L  2944.82,   277.15  L  2944.51,   277.56  L  2944.31,   277.22  L  2944.82,   277.15  " /><path style="stroke-width: 0.85 ;&st7;  " d=" M  2939.39,   280.29  L  2946.75,   276.04  " /><path style="stroke-width: 1.42 ;&st7;  " d=" M  2915.01,   256.74  L  2957.50,   256.74  L  2957.50,   367.22  L  2915.01,   367.22  L  2915.01,   256.74  " /><path style="stroke-width: 0.85 ;&st7;  " d=" M  2936.26,   350.23  L  2927.76,   350.23  " /><path style="stroke-width: 0.85 ;&st7;  " d=" M  2944.74,   272.58  L  2937.38,   276.82  " /><path style="stroke-width: 0.85 ;&st7;  " d=" M  2946.75,   301.54  L  2944.41,   304.58  L  2942.94,   302.04  L  2946.75,   301.54  L  2945.46,   302.28  L  2944.48,   303.56  L  2943.86,   302.49  L  2945.46,   302.28  L  2944.82,   302.65  L  2944.51,   303.05  L  2944.31,   302.72  L  2944.82,   302.65  " /><path style="stroke-width: 0.85 ;&st7;  " d=" M  2944.74,   298.07  L  2942.41,   301.11  L  2940.94,   298.57  L  2944.74,   298.07  L  2943.46,   298.81  L  2942.47,   300.09  L  2941.86,   299.02  L  2943.46,   298.81  L  2942.82,   299.18  L  2942.51,   299.58  L  2942.31,   299.25  L  2942.82,   299.18  " /><path style="stroke-width: 0.28 ;&st9;  " d=" M  2932.01,   307.73  L  2926.34,   299.24  L  2937.67,   299.24  L  2932.01,   307.73  " /><path style="stroke-width: 0.85 ;&st7;  " d=" M  2939.39,   305.79  L  2946.75,   301.54  " /><path style="stroke-width: 0.85 ;&st7;  " d=" M  2944.74,   298.07  L  2937.38,   302.32  " /><path style="stroke-width: 0.85 ;&st7;  " d=" M  2936.26,   307.73  L  2927.76,   307.73  " /><text style="font-size:6px;font-family:'NSimSun';" transform="matrix(&st16;  2934.59  363.53 )">ILL-</text><text style="font-size:6px;font-family:'NSimSun';" transform="matrix(&st16;  2934.59  264.94 )">ILL+</text><path style="stroke-width: 0.28 ;&st9;  " d=" M  2932.01,   350.23  L  2926.34,   341.73  L  2937.67,   341.73  L  2932.01,   350.23  " /><path style="stroke-width: 0.85 ;&st7;  " d=" M  2932.01,   341.73  L  2932.01,   333.23  L  2929.18,   331.81  L  2934.84,   328.98  L  2929.18,   326.15  L  2934.84,   323.31  L  2929.18,   320.48  L  2934.84,   317.65  L  2932.01,   316.23  L  2932.01,   307.73  " /><path style="stroke-width: 0.28 ;&st9;  " d=" M  2932.01,   282.24  L  2926.34,   273.74  L  2937.67,   273.74  L  2932.01,   282.24  " /><text style="font-size:6px;font-family:'NSimSun';" transform="matrix(&st16;  2922.72  375.42 )">22</text><text style="font-size:6px;font-family:'NSimSun';" transform="matrix(&st16;  2922.72  253.05 )">12</text><g ewd:figtype="title"><text style="font-size:6px;font-family:'NSimSun';" transform="matrix(&st17;  2965.4  370.12 )">E75</text><text style="font-size:6px;font-family:'NSimSun';" transform="matrix(&st17;  2972.22  370.13 )" ewd:textID="53">车外后视镜开关总成</text></g></g><g ewd:figtype="conn" ewd:figID="21" ewd:code="E42"><path style="stroke-width: 1.42 ;&st7;  " d=" M  2830.03,   316.23  L  2864.02,   316.23  L  2864.02,   282.24  L  2830.03,   282.24  L  2830.03,   316.23  " /><g ewd:lineID="83"><text style="font-size:6px;font-family:'NSimSun';" transform="matrix(&st16;  2837.74  324.43 )">14</text><text style="font-size:6px;font-family:'NSimSun';" transform="matrix(&st16;  2840.69  312.54 )">ILL-</text></g><g ewd:lineID="84"><text style="font-size:6px;font-family:'NSimSun';" transform="matrix(&st16;  2840.84  278.55 )">7</text><text style="font-size:6px;font-family:'NSimSun';" transform="matrix(&st16;  2840.69  289.87 )">ILL+</text></g><g ewd:figtype="title"><text style="font-size:6px;font-family:'NSimSun';" transform="matrix(&st17;  2871.92  319.13 )">E42</text><text style="font-size:6px;font-family:'NSimSun';" transform="matrix(&st17;  2878.74  319.14 )" ewd:textID="61">换档杆位置指示灯</text></g></g><g ewd:figtype="conn" ewd:figID="22" ewd:code="E52"><path style="stroke-width: 0.85 ;&st7;  " d=" M  2723.79,   350.23  L  2715.30,   350.23  " /><path style="stroke-width: 0.85 ;&st7;  " d=" M  2726.92,   280.29  L  2734.28,   276.04  " /><path style="stroke-width: 0.85 ;&st7;  " d=" M  2732.28,   272.58  L  2724.92,   276.82  " /><path style="stroke-width: 0.85 ;&st7;  " d=" M  2723.79,   282.24  L  2715.30,   282.24  " /><path style="stroke-width: 1.42 ;&st7;  " d=" M  2702.55,   256.74  L  2745.04,   256.74  L  2745.04,   367.22  L  2702.55,   367.22  L  2702.55,   256.74  " /><path style="stroke-width: 0.85 ;&st7;  " d=" M  2719.54,   282.24  L  2719.54,   256.74  " /><path style="stroke-width: 0.28 ;&st9;  " d=" M  2719.54,   350.23  L  2713.88,   341.73  L  2725.21,   341.73  L  2719.54,   350.23  " /><path style="stroke-width: 0.85 ;&st7;  " d=" M  2734.28,   276.04  L  2731.95,   279.09  L  2730.48,   276.54  L  2734.28,   276.04  L  2733.00,   276.79  L  2732.01,   278.07  L  2731.39,   276.99  L  2733.00,   276.79  L  2732.36,   277.15  L  2732.05,   277.56  L  2731.85,   277.22  L  2732.36,   277.15  " /><path style="stroke-width: 0.85 ;&st7;  " d=" M  2732.28,   272.58  L  2729.94,   275.62  L  2728.48,   273.07  L  2732.28,   272.58  L  2730.99,   273.31  L  2730.01,   274.60  L  2729.39,   273.52  L  2730.99,   273.31  L  2730.35,   273.69  L  2730.04,   274.09  L  2729.85,   273.75  L  2730.35,   273.69  " /><path style="stroke-width: 0.28 ;&st9;  " d=" M  2719.54,   282.24  L  2713.88,   273.74  L  2725.21,   273.74  L  2719.54,   282.24  " /><path style="stroke-width: 0.85 ;&st7;  " d=" M  2719.54,   341.73  L  2719.54,   333.23  L  2716.71,   331.81  L  2722.38,   328.98  L  2716.71,   326.15  L  2722.38,   323.31  L  2716.71,   320.48  L  2722.38,   317.65  L  2719.54,   316.23  L  2719.54,   307.73  " /><path style="stroke-width: 0.85 ;&st7;  " d=" M  2719.54,   316.23  L  2719.54,   307.73  L  2716.71,   306.32  L  2722.38,   303.48  L  2716.71,   300.65  L  2722.38,   297.82  L  2716.71,   294.99  L  2722.38,   292.15  L  2719.54,   290.74  L  2719.54,   282.24  " /><path style="stroke-width: 0.85 ;&st7;  " d=" M  2719.54,   350.23  L  2719.54,   367.22  " /><text style="font-size:6px;font-family:'NSimSun';" transform="matrix(&st16;  2722.13  264.94 )">MSW+</text><text style="font-size:6px;font-family:'NSimSun';" transform="matrix(&st16;  2722.13  363.53 )">MSW-</text><text style="font-size:6px;font-family:'NSimSun';" transform="matrix(&st16;  2713.36  375.42 )">4</text><text style="font-size:6px;font-family:'NSimSun';" transform="matrix(&st16;  2713.36  253.05 )">5</text><g ewd:figtype="title"><text style="font-size:6px;font-family:'NSimSun';" transform="matrix(&st17;  2752.94  370.12 )">E52</text><text style="font-size:6px;font-family:'NSimSun';" transform="matrix(&st17;  2759.76  370.13 )" ewd:textID="54">模式选择开关总成</text></g></g><g ewd:figtype="conn" ewd:figID="23" ewd:code="E65"><path style="stroke-width: 0.85 ;&st7;  " d=" M  2647.31,   350.23  L  2638.81,   350.23  " /><path style="stroke-width: 0.85 ;&st7;  " d=" M  2650.44,   280.29  L  2657.79,   276.04  " /><path style="stroke-width: 0.85 ;&st7;  " d=" M  2655.79,   272.58  L  2648.43,   276.82  " /><path style="stroke-width: 0.85 ;&st7;  " d=" M  2647.31,   282.24  L  2638.81,   282.24  " /><path style="stroke-width: 1.42 ;&st7;  " d=" M  2626.06,   256.74  L  2668.55,   256.74  L  2668.55,   367.22  L  2626.06,   367.22  L  2626.06,   256.74  " /><path style="stroke-width: 0.85 ;&st7;  " d=" M  2643.06,   350.23  L  2643.06,   367.22  " /><path style="stroke-width: 0.85 ;&st7;  " d=" M  2643.06,   282.24  L  2643.06,   256.74  " /><path style="stroke-width: 0.28 ;&st9;  " d=" M  2643.06,   350.23  L  2637.39,   341.73  L  2648.72,   341.73  L  2643.06,   350.23  " /><path style="stroke-width: 0.85 ;&st7;  " d=" M  2657.79,   276.04  L  2655.46,   279.09  L  2653.99,   276.54  L  2657.79,   276.04  L  2656.51,   276.79  L  2655.53,   278.07  L  2654.91,   276.99  L  2656.51,   276.79  L  2655.87,   277.15  L  2655.56,   277.56  L  2655.37,   277.22  L  2655.87,   277.15  " /><path style="stroke-width: 0.85 ;&st7;  " d=" M  2655.79,   272.58  L  2653.46,   275.62  L  2651.99,   273.07  L  2655.79,   272.58  L  2654.51,   273.31  L  2653.52,   274.60  L  2652.90,   273.52  L  2654.51,   273.31  L  2653.87,   273.69  L  2653.56,   274.09  L  2653.36,   273.75  L  2653.87,   273.69  " /><path style="stroke-width: 0.28 ;&st9;  " d=" M  2643.06,   282.24  L  2637.39,   273.74  L  2648.72,   273.74  L  2643.06,   282.24  " /><path style="stroke-width: 0.85 ;&st7;  " d=" M  2643.06,   341.73  L  2643.06,   333.23  L  2640.22,   331.81  L  2645.89,   328.98  L  2640.22,   326.15  L  2645.89,   323.31  L  2640.22,   320.48  L  2645.89,   317.65  L  2643.06,   316.23  L  2643.06,   307.73  " /><path style="stroke-width: 0.85 ;&st7;  " d=" M  2643.06,   316.23  L  2643.06,   307.73  L  2640.22,   306.32  L  2645.89,   303.48  L  2640.22,   300.65  L  2645.89,   297.82  L  2640.22,   294.99  L  2645.89,   292.15  L  2643.06,   290.74  L  2643.06,   282.24  " /><text style="font-size:6px;font-family:'NSimSun';" transform="matrix(&st16;  2645.64  264.94 )">ILL+</text><text style="font-size:6px;font-family:'NSimSun';" transform="matrix(&st16;  2645.64  363.53 )">ILL-</text><text style="font-size:6px;font-family:'NSimSun';" transform="matrix(&st16;  2636.87  375.42 )">7</text><text style="font-size:6px;font-family:'NSimSun';" transform="matrix(&st16;  2636.87  253.05 )">8</text><g ewd:figtype="title"><text style="font-size:6px;font-family:'NSimSun';" transform="matrix(&st17;  2683.27  370.13 )" ewd:textID="18">后声纳或侦测声纳开关总成</text><text style="font-size:6px;font-family:'NSimSun';" transform="matrix(&st17;  2676.45  370.12 )">E65</text></g></g><g ewd:figtype="gp" ewd:figID="72" ewd:code="EB"><path style="stroke-width: 0.85 ;&st7;  " d=" M  2643.06,   697.25  L  2643.06,   701.50  " /><path style="stroke-width: 0.85 ;&st7;  " d=" M  2634.56,   701.50  L  2651.56,   701.50  " /><path style="stroke-width: 0.85 ;&st7;  " d=" M  2638.81,   704.33  L  2647.31,   704.33  " /><path style="stroke-width: 0.85 ;&st7;  " d=" M  2640.22,   707.17  L  2645.89,   707.17  " /><path style="stroke-width: 0.85 ;&st7;  " d=" M  2641.64,   710.00  L  2644.47,   710.00  " /></g><g ewd:figtype="gp" ewd:figID="73" ewd:code="EB"><path style="stroke-width: 0.85 ;&st7;  " d=" M  2847.02,   697.25  L  2847.02,   701.50  " /><path style="stroke-width: 0.85 ;&st7;  " d=" M  2838.52,   701.50  L  2855.52,   701.50  " /><path style="stroke-width: 0.85 ;&st7;  " d=" M  2842.77,   704.33  L  2851.27,   704.33  " /><path style="stroke-width: 0.85 ;&st7;  " d=" M  2844.19,   707.17  L  2849.86,   707.17  " /><path style="stroke-width: 0.85 ;&st7;  " d=" M  2845.61,   710.00  L  2848.44,   710.00  " /></g><g ewd:figtype="gp" ewd:figID="74" ewd:code="EB"><path style="stroke-width: 0.85 ;&st7;  " d=" M  2932.01,   697.25  L  2932.01,   701.50  " /><path style="stroke-width: 0.85 ;&st7;  " d=" M  2923.51,   701.50  L  2940.51,   701.50  " /><path style="stroke-width: 0.85 ;&st7;  " d=" M  2927.76,   704.33  L  2936.26,   704.33  " /><path style="stroke-width: 0.85 ;&st7;  " d=" M  2929.18,   707.17  L  2934.84,   707.17  " /><path style="stroke-width: 0.85 ;&st7;  " d=" M  2930.59,   710.00  L  2933.43,   710.00  " /></g><g ewd:code="11" ewd:figID="115" ewd:comment="" ewd:figtype="comment"><text style="font-size:6px;font-family:'NSimSun';" transform="matrix(&st16;  2622.66  37.75 )" ewd:textID="9">* 11 : 导航接收器型</text></g><g ewd:code="13" ewd:figID="117" ewd:comment="" ewd:figtype="comment"><text style="font-size:6px;font-family:'NSimSun';" transform="matrix(&st16;  2622.66  54.75 )" ewd:textID="11">* 13 : 无线电收音机型</text></g><g ewd:code="1" ewd:figID="111" ewd:comment="" ewd:figtype="comment"><text style="font-size:6px;font-family:'NSimSun';" transform="matrix(&st16;  2622.66  20.75 )" ewd:textID="1">* 1 : 带 TFT 显示屏</text></g><g ewd:code="16" ewd:figID="118" ewd:comment="" ewd:figtype="comment"><text style="font-size:6px;font-family:'NSimSun';" transform="matrix(&st16;  2784.13  37.75 )">*16 :M/T</text></g><g ewd:code="14" ewd:figID="120" ewd:comment="" ewd:figtype="comment"><text style="font-size:6px;font-family:'NSimSun';" transform="matrix(&st16;  2784.13  20.75 )" ewd:textID="12">* 14 : 带方向盘衬垫开关</text></g><g ewd:code="2" ewd:figID="110" ewd:comment="" ewd:figtype="comment"><text style="font-size:6px;font-family:'NSimSun';" transform="matrix(&st16;  2622.66  29.25 )" ewd:textID="2">* 2 : 不带 TFT 显示屏</text></g><g ewd:code="12" ewd:figID="114" ewd:comment="" ewd:figtype="comment"><text style="font-size:6px;font-family:'NSimSun';" transform="matrix(&st16;  2622.66  46.25 )" ewd:textID="10">* 12 : 无线电收音机和显示屏接收器型</text></g><g ewd:code="15" ewd:figID="116" ewd:comment="" ewd:figtype="comment"><text style="font-size:6px;font-family:'NSimSun';" transform="matrix(&st16;  2784.13  29.25 )">*15 :CVT</text></g><g ewd:code="18" ewd:figID="119" ewd:comment="" ewd:figtype="comment"><text style="font-size:6px;font-family:'NSimSun';" transform="matrix(&st16;  2784.13  46.25 )" ewd:textID="13">*18 : 带丰田驻车辅助传感器系统</text></g></svg>