<?xml version="1.0" encoding="utf-8"?>
<!DOCTYPE svg PUBLIC "-//W3C//DTD SVG 1.0//EN" "http://www.w3.org/TR/2001/REC-SVG-20010904/DTD/svg10.dtd"[
	<!ENTITY ns_flows "http://ns.adobe.com/Flows/1.0/">
	<!ENTITY ns_svg "http://www.w3.org/2000/svg">
	<!ENTITY ns_xlink "http://www.w3.org/1999/xlink">
	<!ENTITY st0 "font-size:7px;font-family:'NSimSun';adobe-font-script:japanese;">
	<!ENTITY st1 "font-size:6px;font-family:'NSimSun';">
	<!-- White fill  -->
	<!ENTITY st2 "fill:#FFFFFF;stroke:#000000; stroke-width:1.41;stroke-linecap:round;stroke-linejoin:round;">
	<!-- Yellow fill  -->
	<!ENTITY st3 "fill:#FFFFCC;stroke:#FFFFCC; stroke-width:0.1;stroke-linecap:round;stroke-linejoin:round;">
	<!-- Gray fill  -->
	<!ENTITY st4 "fill:#CCCCCC;stroke:#CCCCCC; stroke-width:0.1;stroke-linecap:round;stroke-linejoin:round;">
	<!-- Light-blue fill -->
	<!ENTITY st5 "fill:#CCECF4;stroke:#000000; stroke-width:1.133;stroke-linecap:round;stroke-linejoin:round;">
	<!ENTITY st6 "fill:none;stroke-linecap:butt; stroke-linejoin:round;">
	<!ENTITY st7 "fill:none;stroke:#000000;stroke-linecap:round;stroke-linejoin:round;">
	<!ENTITY st8 "enable-background:new    ;">
	<!-- Black fill -->
	<!ENTITY st9 "fill:#000000;stroke:#000000; stroke-linecap:round;stroke-linejoin:round;">
	<!-- SRS note   -->
	<!ENTITY st10 "font-size:9px;font-family:'NSimSun';">
	<!ENTITY st11 "font-size:9px;font-family:'NSimSun';">
	<!ENTITY st12 "font-size:6px;font-family:'NSimSun';">
	<!ENTITY st13 "fill:none;stroke:#ff0000;stroke-linecap:round;stroke-linejoin:round;">
	<!-- Yellow fill  -->
	<!ENTITY st14 "fill:#FFFF00;stroke:#FFFF00; stroke-width:0.1;stroke-linecap:round;stroke-linejoin:round;">
	<!ENTITY st15 "font-size:6px;font-family:'NSimSun';adobe-font-script:japanese;">
	<!ENTITY st16 "1.00 0.00 0.00 1.00">
	<!ENTITY st17 "0.00 -1.00 1.00 0.00">
	<!ENTITY st18 "font-size:6px;font-family:'NSimSun';">
	<!ENTITY st19 "font-size:9px;font-family:'NSimSun';">
	<!ENTITY st20 "font-size:6px;font-family:'NSimSun';adobe-font-script:japanese;">
	<!ENTITY st21 "font-size:7px;font-family:'NSimSun';adobe-font-script:japanese;">
	<!ATTLIST svg
		xmlns:ewd CDATA #FIXED "http://shcl.co.jp/ewd"
		xmlns:a CDATA #FIXED "http://ns.adobe.com/AdobeSVGViewerExtensions/3.0/"
		ewd:ver CDATA #IMPLIED
	>
	<!ATTLIST a
		ewd:lineID CDATA #IMPLIED
		ewd:groupID CDATA #IMPLIED
		ewd:figtype CDATA #IMPLIED
		ewd:code CDATA #IMPLIED
		ewd:figID CDATA #IMPLIED
		ewd:pinNo CDATA #IMPLIED
		ewd:comment CDATA #IMPLIED >
	<!ATTLIST g
		ewd:lineID CDATA #IMPLIED
		ewd:groupID CDATA #IMPLIED
		ewd:figtype CDATA #IMPLIED
		ewd:code CDATA #IMPLIED
		ewd:figID CDATA #IMPLIED
		ewd:pinNo CDATA #IMPLIED
		ewd:comment CDATA #IMPLIED >
	<!ATTLIST text
		ewd:textID CDATA #IMPLIED
		ewd:horAlign CDATA #IMPLIED >
	<!ATTLIST title
		ewd:textID CDATA #IMPLIED >
]>
<!-- Generator: Shintec Hozumi YS   -->
<svg onload="call_execInitLoadProc_svg('system')" style="overflow:visible;  enable-background:new 0 0 4091.189 710.000" viewBox="0 0 4095.311 710.000" height="710.000" width="4095.311" xml:space="preserve" ewd:ver="2.1.2.6F" xmlns="&ns_svg;" xmlns:ewd="http://shcl.co.jp/ewd" xmlns:a="http://ns.adobe.com/AdobeSVGViewerExtensions/3.0/" xmlns:xlink="&ns_xlink;">
<path style="stroke-width: 1.42 ;&st7;  " d=" M   577.90,   550.67  L   572.93,   545.69  " /><path style="stroke-width: 1.42 ;&st7;  " d=" M   560.91,   557.72  L   565.88,   562.69  " /><path style="stroke-width: 1.42 ;&st7;  " d=" M   572.93,   562.69  L   577.90,   557.72  " /><path style="stroke-width: 1.42 ;&st7;  " d=" M   565.88,   545.69  L   560.91,   550.67  " /><path style="stroke-width: 1.42 ;&st7;  " d=" M   633.86,   545.69  L   628.89,   550.67  " /><path style="stroke-width: 1.42 ;&st7;  " d=" M   640.92,   562.69  L   645.89,   557.72  " /><path style="stroke-width: 1.42 ;&st7;  " d=" M   628.89,   557.72  L   633.86,   562.69  " /><path style="stroke-width: 1.42 ;&st7;  " d=" M   645.89,   550.67  L   640.92,   545.69  " /><text style="font-size:6px;font-family:'NSimSun';" transform="matrix(&st17;  701.69  509.16 )">W-B</text><text style="font-size:6px;font-family:'NSimSun';" transform="matrix(&st17;  897.15  216.21 )">G</text><text style="font-size:6px;font-family:'NSimSun';" transform="matrix(&st17;  888.66  398.67 )">W-B</text><text style="font-size:6px;font-family:'NSimSun';" transform="matrix(&st17;  908.49  220.51 )">(*10)</text><text style="font-size:6px;font-family:'NSimSun';" transform="matrix(&st17;  899.99  398.98 )">(*10)</text><text style="font-size:6px;font-family:'NSimSun';" transform="matrix(&st17;  993.47  397.43 )">(*9)</text><text style="font-size:6px;font-family:'NSimSun';" transform="matrix(&st17;  976.47  218.96 )">(*9)</text><text style="font-size:6px;font-family:'NSimSun';" transform="matrix(&st17;  982.14  398.67 )">W-B</text><text style="font-size:6px;font-family:'NSimSun';" transform="matrix(&st17;  565.71  377.68 )">G</text><text style="font-size:6px;font-family:'NSimSun';" transform="matrix(&st17;  565.71  589.89 )">W-B</text><text style="font-size:6px;font-family:'NSimSun';" transform="matrix(&st17;  565.71  509.16 )">W-B</text><text style="font-size:6px;font-family:'NSimSun';" transform="matrix(&st17;  633.7  509.16 )">W-B</text><text style="font-size:6px;font-family:'NSimSun';" transform="matrix(&st17;  633.7  589.89 )">W-B</text><text style="font-size:6px;font-family:'NSimSun';" transform="matrix(&st17;  633.7  377.68 )">G</text><text style="font-size:6px;font-family:'NSimSun';" transform="matrix(&st17;  633.7  114.23 )">G</text><text style="font-size:6px;font-family:'NSimSun';" transform="matrix(&st17;  684.69  216.21 )">G</text><text style="font-size:6px;font-family:'NSimSun';" transform="matrix(&st17;  701.69  398.67 )">W-B</text><text style="font-size:6px;font-family:'NSimSun';" transform="matrix(&st17;  696.02  218.96 )">(*9)</text><text style="font-size:6px;font-family:'NSimSun';" transform="matrix(&st17;  713.02  397.43 )">(*9)</text><text style="font-size:6px;font-family:'NSimSun';" transform="matrix(&st17;  806.5  398.98 )">(*10)</text><text style="font-size:6px;font-family:'NSimSun';" transform="matrix(&st17;  815.0  220.51 )">(*10)</text><text style="font-size:6px;font-family:'NSimSun';" transform="matrix(&st17;  795.17  398.67 )">W-B</text><text style="font-size:6px;font-family:'NSimSun';" transform="matrix(&st17;  803.67  216.21 )">G</text><text style="font-size:6px;font-family:'NSimSun';" transform="matrix(&st17;  965.14  216.21 )">G</text><text style="font-size:6px;font-family:'NSimSun';" transform="matrix(&st16;  541.45  23.58 )">G</text><text style="font-size:6px;font-family:'NSimSun';" transform="matrix(&st16;  539.63  49.08 )">LG</text><text style="font-size:6px;font-family:'NSimSun';" transform="matrix(&st16;  541.84  626.98 )">L</text><text style="font-size:6px;font-family:'NSimSun';" transform="matrix(&st16;  540.95  643.98 )">W</text><g ewd:figtype="conn" ewd:figID="2" ewd:code="L27"><path style="stroke-width: 0.85 ;&st7;  " d=" M   729.76,   322.78  L   737.12,   318.54  " /><path style="stroke-width: 0.85 ;&st7;  " d=" M   735.11,   315.07  L   727.75,   319.32  " /><path style="stroke-width: 0.85 ;&st7;  " d=" M   726.63,   324.73  L   718.13,   324.73  " /><path style="stroke-width: 0.85 ;&st7;  " d=" M   701.12,   315.07  L   693.76,   319.32  " /><path style="stroke-width: 0.85 ;&st7;  " d=" M   692.63,   324.73  L   684.14,   324.73  " /><path style="stroke-width: 0.85 ;&st7;  " d=" M   695.76,   322.78  L   703.12,   318.54  " /><path style="stroke-width: 1.42 ;&st7;   " d=" M   722.38,   282.24  C   724.59    284.06    727.72    284.00    729.86    282.10  " /><path style="stroke-width: 1.42 ;&st7;   " d=" M   722.38,   282.24  C   720.17    280.42    717.04    280.47    714.89    282.38  " /><path style="stroke-width: 1.42 ;&st7;  " d=" M   671.39,   273.74  L   671.39,   350.23  L   739.38,   350.23  L   739.38,   273.74  L   671.39,   273.74  " /><path style="stroke-width: 0.85 ;&st7;  " d=" M   688.38,   282.24  L   688.38,   273.74  " /><path style="stroke-width: 0.85 ;&st7;  " d=" M   705.38,   333.23  L   705.38,   350.23  " /><path style="stroke-width: 0.85 ;&st7;  " d=" M   688.38,   324.73  L   688.38,   333.23  L   722.38,   333.23  L   722.38,   324.73  " /><path style="stroke-width: 0.85 ;&st7;  " d=" M   737.12,   318.54  L   734.78,   321.58  L   733.31,   319.04  L   737.12,   318.54  L   735.83,   319.28  L   734.85,   320.56  L   734.23,   319.49  L   735.83,   319.28  L   735.19,   319.65  L   734.88,   320.05  L   734.69,   319.71  L   735.19,   319.65  " /><path style="stroke-width: 0.85 ;&st7;  " d=" M   735.11,   315.07  L   732.78,   318.11  L   731.31,   315.57  L   735.11,   315.07  L   733.83,   315.81  L   732.84,   317.09  L   732.23,   316.02  L   733.83,   315.81  L   733.19,   316.18  L   732.88,   316.58  L   732.68,   316.24  L   733.19,   316.18  " /><path style="stroke-width: 0.28 ;&st9;  " d=" M   722.38,   324.73  L   716.71,   316.23  L   728.04,   316.23  L   722.38,   324.73  " /><path style="stroke-width: 0.85 ;&st7;  " d=" M   722.38,   316.23  L   722.38,   307.73  L   719.55,   306.32  L   725.21,   303.48  L   719.55,   300.65  L   725.21,   297.82  L   719.55,   294.99  L   725.21,   292.15  L   722.38,   290.74  L   722.38,   282.24  " /><path style="stroke-width: 0.85 ;&st7;  " d=" M   688.38,   316.23  L   688.38,   307.73  L   685.55,   306.32  L   691.22,   303.48  L   685.55,   300.65  L   691.22,   297.82  L   685.55,   294.99  L   691.22,   292.15  L   688.38,   290.74  L   688.38,   282.24  " /><path style="stroke-width: 0.85 ;&st7;  " d=" M   701.12,   315.07  L   698.78,   318.11  L   697.32,   315.57  L   701.12,   315.07  L   699.84,   315.81  L   698.85,   317.09  L   698.23,   316.02  L   699.84,   315.81  L   699.19,   316.18  L   698.88,   316.58  L   698.69,   316.24  L   699.19,   316.18  " /><path style="stroke-width: 0.28 ;&st9;  " d=" M   688.38,   324.73  L   682.72,   316.23  L   694.05,   316.23  L   688.38,   324.73  " /><path style="stroke-width: 0.85 ;&st7;  " d=" M   703.12,   318.54  L   700.79,   321.58  L   699.32,   319.04  L   703.12,   318.54  L   701.84,   319.28  L   700.85,   320.56  L   700.23,   319.49  L   701.84,   319.28  L   701.20,   319.65  L   700.89,   320.05  L   700.69,   319.71  L   701.20,   319.65  " /><text style="font-size:6px;font-family:'NSimSun';" transform="matrix(&st16;  707.97  346.54 )">E</text><text style="font-size:6px;font-family:'NSimSun';" transform="matrix(&st16;  690.97  281.93 )">TL</text><text style="font-size:6px;font-family:'NSimSun';" transform="matrix(&st17;  714.72  325.97 )" ewd:textID="73">停止</text><text style="font-size:6px;font-family:'NSimSun';" transform="matrix(&st17;  680.72  325.04 )" ewd:textID="75">尾灯</text><path style="stroke-width: 0.85 ;&st7;  " d=" M   704.19,   332.23  L   703.92,   332.70  L   703.82,   333.23  L   703.92,   333.76  L   704.19,   334.23  L   704.60,   334.58  L   705.11,   334.77  L   705.65,   334.77  L   706.16,   334.58  L   706.57,   334.23  L   706.85,   333.76  L   706.94,   333.23  L   706.85,   332.70  L   706.57,   332.23  L   706.16,   331.88  L   705.65,   331.69  L   705.11,   331.69  L   704.60,   331.88  L   704.19,   332.23  L   704.58,   332.94  L   704.58,   333.52  L   704.96,   333.97  L   705.53,   334.07  L   706.03,   333.78  L   706.23,   333.23  L   706.03,   332.68  L   705.53,   332.39  L   704.96,   332.49  L   705.38,   333.23  " /><text style="font-size:6px;font-family:'NSimSun';" transform="matrix(&st16;  682.2  270.05 )">3</text><text style="font-size:6px;font-family:'NSimSun';" transform="matrix(&st16;  699.2  358.42 )">4</text><g ewd:figtype="title"><text style="font-size:6px;font-family:'NSimSun';" transform="matrix(&st17;  754.09  353.13 )" ewd:textID="61">左后组合灯总成</text><text style="font-size:6px;font-family:'NSimSun';" transform="matrix(&st17;  747.27  353.13 )">L27</text></g></g><g ewd:figtype="conn" ewd:figID="6" ewd:code="L4"><path style="stroke-width: 0.85 ;&st7;  " d=" M   892.35,   324.73  L   892.35,   316.23  " /><path style="stroke-width: 0.85 ;&st7;  " d=" M   892.35,   316.23  L   900.23,   316.23  " /><path style="stroke-width: 0.85 ;&st7;  " d=" M   883.85,   299.96  L   883.85,   307.73  " /><path style="stroke-width: 0.85 ;&st7;  " d=" M   900.85,   299.96  L   900.85,   307.73  " /><path style="stroke-width: 0.85 ;&st7;  " d=" M   884.47,   316.23  L   892.35,   316.23  " /><path style="stroke-width: 1.42 ;&st7;   " d=" M   883.85,   290.74  C   886.06    292.56    889.20    292.50    891.34    290.60  " /><path style="stroke-width: 1.42 ;&st7;   " d=" M   883.85,   290.74  C   881.64    288.91    878.51    288.97    876.37    290.88  " /><path style="stroke-width: 1.42 ;&st7;   " d=" M   896.60,   324.73  C   903.64    324.73    909.35    319.02    909.35    311.98  " /><path style="stroke-width: 1.42 ;&st7;   " d=" M   909.35,   311.98  C   909.35    304.94    903.64    299.24    896.60    299.24  " /><path style="stroke-width: 1.42 ;&st7;   " d=" M   888.10,   299.24  C   881.06    299.24    875.35    304.94    875.35    311.98  " /><path style="stroke-width: 1.42 ;&st7;   " d=" M   875.35,   311.98  C   875.35    319.02    881.06    324.73    888.10    324.73  " /><path style="stroke-width: 0.85 ;&st7;   " d=" M   897.73,   311.98  C   898.52    313.32    900.25    313.77    901.59    312.97  " /><path style="stroke-width: 0.85 ;&st7;   " d=" M   901.59,   312.97  C   902.93    312.18    903.37    310.46    902.58    309.12  " /><path style="stroke-width: 0.85 ;&st7;   " d=" M   902.58,   309.12  C   902.19    308.44    901.61    308.01    900.85    307.82  " /><path style="stroke-width: 0.85 ;&st7;   " d=" M   900.14,   316.23  C   901.70    316.24    902.96    314.99    902.97    313.43  " /><path style="stroke-width: 0.85 ;&st7;   " d=" M   902.97,   313.43  C   902.98    311.88    901.73    310.61    900.18    310.60  " /><path style="stroke-width: 0.85 ;&st7;   " d=" M   900.18,   310.60  C   899.14    310.59    898.26    311.09    897.73    311.98  " /><path style="stroke-width: 0.85 ;&st7;   " d=" M   883.85,   307.82  C   882.34    308.20    881.43    309.73    881.81    311.24  " /><path style="stroke-width: 0.85 ;&st7;   " d=" M   881.81,   311.24  C   882.19    312.75    883.73    313.66    885.23    313.28  " /><path style="stroke-width: 0.85 ;&st7;   " d=" M   885.23,   313.28  C   885.99    313.09    886.57    312.66    886.97    311.98  " /><path style="stroke-width: 0.85 ;&st7;   " d=" M   886.97,   311.98  C   886.18    310.64    884.45    310.20    883.11    310.99  " /><path style="stroke-width: 0.85 ;&st7;   " d=" M   883.11,   310.99  C   881.77    311.78    881.33    313.51    882.12    314.85  " /><path style="stroke-width: 0.85 ;&st7;   " d=" M   882.12,   314.85  C   882.64    315.74    883.53    316.24    884.56    316.23  " /><path style="stroke-width: 0.85 ;&st7;  " d=" M   892.35,   324.73  L   892.35,   341.73  " /><path style="stroke-width: 0.85 ;&st7;  " d=" M   900.85,   299.24  L   900.85,   282.24  " /><path style="stroke-width: 0.85 ;&st7;  " d=" M   883.85,   299.24  L   883.85,   290.74  " /><path style="stroke-width: 1.42 ;&st7;  " d=" M   858.36,   282.24  L   858.36,   341.73  L   926.34,   341.73  L   926.34,   282.24  L   858.36,   282.24  " /><path style="stroke-width: 0.85 ;&st7;  " d=" M   891.16,   315.23  L   890.89,   315.70  L   890.79,   316.23  L   890.89,   316.77  L   891.16,   317.24  L   891.57,   317.58  L   892.08,   317.77  L   892.62,   317.77  L   893.13,   317.58  L   893.54,   317.24  L   893.82,   316.77  L   893.91,   316.23  L   893.82,   315.70  L   893.54,   315.23  L   893.13,   314.88  L   892.62,   314.70  L   892.08,   314.70  L   891.57,   314.88  L   891.16,   315.23  L   891.55,   315.94  L   891.55,   316.52  L   891.93,   316.97  L   892.50,   317.07  L   893.00,   316.78  L   893.20,   316.23  L   893.00,   315.69  L   892.50,   315.40  L   891.93,   315.50  L   892.35,   316.23  " /><path style="stroke-width: 1.42 ;&st7;  " d=" M   892.35,   324.73  L   896.60,   324.73  " /><path style="stroke-width: 1.42 ;&st7;  " d=" M   892.35,   299.24  L   896.60,   299.24  " /><path style="stroke-width: 1.42 ;&st7;  " d=" M   892.35,   324.73  L   888.10,   324.73  " /><path style="stroke-width: 1.42 ;&st7;  " d=" M   892.35,   299.24  L   888.10,   299.24  " /><text style="font-size:6px;font-family:'NSimSun';" transform="matrix(&st16;  894.93  338.04 )">E</text><text style="font-size:6px;font-family:'NSimSun';" transform="matrix(&st16;  903.43  290.43 )">TL</text><text style="font-size:6px;font-family:'NSimSun';" transform="matrix(&st17;  919.82  316.54 )" ewd:textID="75">尾灯</text><text style="font-size:6px;font-family:'NSimSun';" transform="matrix(&st17;  868.83  317.47 )" ewd:textID="73">停止</text><text style="font-size:6px;font-family:'NSimSun';" transform="matrix(&st16;  886.17  349.92 )">1</text><text style="font-size:6px;font-family:'NSimSun';" transform="matrix(&st16;  894.67  278.55 )">2</text><g ewd:figtype="title"><text style="font-size:6px;font-family:'NSimSun';" transform="matrix(&st17;  941.06  344.63 )" ewd:textID="62">右后组合灯总成</text><text style="font-size:6px;font-family:'NSimSun';" transform="matrix(&st17;  934.24  344.63 )">L4</text></g></g><g ewd:figtype="conn" ewd:figID="7" ewd:code="L3"><path style="stroke-width: 0.85 ;&st7;  " d=" M   798.87,   324.73  L   798.87,   316.23  " /><path style="stroke-width: 0.85 ;&st7;  " d=" M   798.87,   316.23  L   806.75,   316.23  " /><path style="stroke-width: 0.85 ;&st7;  " d=" M   790.37,   299.96  L   790.37,   307.73  " /><path style="stroke-width: 0.85 ;&st7;  " d=" M   807.37,   299.96  L   807.37,   307.73  " /><path style="stroke-width: 0.85 ;&st7;  " d=" M   790.98,   316.23  L   798.87,   316.23  " /><path style="stroke-width: 1.42 ;&st7;   " d=" M   790.37,   290.74  C   792.58    292.56    795.71    292.50    797.85    290.60  " /><path style="stroke-width: 1.42 ;&st7;   " d=" M   790.37,   290.74  C   788.16    288.91    785.02    288.97    782.88    290.88  " /><path style="stroke-width: 1.42 ;&st7;   " d=" M   803.12,   324.73  C   810.16    324.73    815.86    319.02    815.86    311.98  " /><path style="stroke-width: 1.42 ;&st7;   " d=" M   815.86,   311.98  C   815.86    304.94    810.16    299.24    803.12    299.24  " /><path style="stroke-width: 1.42 ;&st7;   " d=" M   794.62,   299.24  C   787.58    299.24    781.87    304.94    781.87    311.98  " /><path style="stroke-width: 1.42 ;&st7;   " d=" M   781.87,   311.98  C   781.87    319.02    787.58    324.73    794.62    324.73  " /><path style="stroke-width: 0.85 ;&st7;   " d=" M   804.25,   311.98  C   805.04    313.32    806.77    313.77    808.11    312.97  " /><path style="stroke-width: 0.85 ;&st7;   " d=" M   808.11,   312.97  C   809.45    312.18    809.89    310.46    809.10    309.12  " /><path style="stroke-width: 0.85 ;&st7;   " d=" M   809.10,   309.12  C   808.70    308.44    808.12    308.01    807.37    307.82  " /><path style="stroke-width: 0.85 ;&st7;   " d=" M   806.66,   316.23  C   808.21    316.24    809.48    314.99    809.49    313.43  " /><path style="stroke-width: 0.85 ;&st7;   " d=" M   809.49,   313.43  C   809.50    311.88    808.25    310.61    806.69    310.60  " /><path style="stroke-width: 0.85 ;&st7;   " d=" M   806.69,   310.60  C   805.66    310.59    804.78    311.09    804.25    311.98  " /><path style="stroke-width: 0.85 ;&st7;   " d=" M   790.37,   307.82  C   788.86    308.20    787.95    309.73    788.33    311.24  " /><path style="stroke-width: 0.85 ;&st7;   " d=" M   788.33,   311.24  C   788.71    312.75    790.24    313.66    791.75    313.28  " /><path style="stroke-width: 0.85 ;&st7;   " d=" M   791.75,   313.28  C   792.51    313.09    793.09    312.66    793.48    311.98  " /><path style="stroke-width: 0.85 ;&st7;   " d=" M   793.48,   311.98  C   792.69    310.64    790.96    310.20    789.63    310.99  " /><path style="stroke-width: 0.85 ;&st7;   " d=" M   789.63,   310.99  C   788.29    311.78    787.84    313.51    788.63    314.85  " /><path style="stroke-width: 0.85 ;&st7;   " d=" M   788.63,   314.85  C   789.16    315.74    790.04    316.24    791.08    316.23  " /><path style="stroke-width: 0.85 ;&st7;  " d=" M   798.87,   324.73  L   798.87,   341.73  " /><path style="stroke-width: 0.85 ;&st7;  " d=" M   807.36,   299.24  L   807.36,   282.24  " /><path style="stroke-width: 0.85 ;&st7;  " d=" M   790.37,   299.24  L   790.37,   290.74  " /><path style="stroke-width: 1.42 ;&st7;  " d=" M   764.87,   282.24  L   764.87,   341.73  L   832.86,   341.73  L   832.86,   282.24  L   764.87,   282.24  " /><path style="stroke-width: 0.85 ;&st7;  " d=" M   797.67,   315.23  L   797.40,   315.70  L   797.31,   316.23  L   797.40,   316.77  L   797.67,   317.24  L   798.09,   317.58  L   798.59,   317.77  L   799.14,   317.77  L   799.65,   317.58  L   800.06,   317.24  L   800.33,   316.77  L   800.42,   316.23  L   800.33,   315.70  L   800.06,   315.23  L   799.65,   314.88  L   799.14,   314.70  L   798.59,   314.70  L   798.09,   314.88  L   797.67,   315.23  L   798.07,   315.94  L   798.07,   316.52  L   798.44,   316.97  L   799.01,   317.07  L   799.52,   316.78  L   799.72,   316.23  L   799.52,   315.69  L   799.01,   315.40  L   798.44,   315.50  L   798.87,   316.23  " /><path style="stroke-width: 1.42 ;&st7;  " d=" M   798.87,   324.73  L   803.12,   324.73  " /><path style="stroke-width: 1.42 ;&st7;  " d=" M   798.87,   299.24  L   803.12,   299.24  " /><path style="stroke-width: 1.42 ;&st7;  " d=" M   798.87,   324.73  L   794.62,   324.73  " /><path style="stroke-width: 1.42 ;&st7;  " d=" M   798.87,   299.24  L   794.62,   299.24  " /><text style="font-size:6px;font-family:'NSimSun';" transform="matrix(&st16;  801.45  338.04 )">E</text><text style="font-size:6px;font-family:'NSimSun';" transform="matrix(&st16;  809.95  290.43 )">TL</text><text style="font-size:6px;font-family:'NSimSun';" transform="matrix(&st17;  826.33  316.54 )" ewd:textID="75">尾灯</text><text style="font-size:6px;font-family:'NSimSun';" transform="matrix(&st17;  775.34  317.47 )" ewd:textID="73">停止</text><text style="font-size:6px;font-family:'NSimSun';" transform="matrix(&st16;  792.68  349.92 )">1</text><text style="font-size:6px;font-family:'NSimSun';" transform="matrix(&st16;  801.18  278.55 )">2</text><g ewd:figtype="title"><text style="font-size:6px;font-family:'NSimSun';" transform="matrix(&st17;  847.58  344.63 )" ewd:textID="61">左后组合灯总成</text><text style="font-size:6px;font-family:'NSimSun';" transform="matrix(&st17;  840.75  344.63 )">L3</text></g></g><g ewd:figtype="conn" ewd:figID="8" ewd:code="L26"><path style="stroke-width: 0.85 ;&st7;  " d=" M  1010.21,   322.78  L  1017.57,   318.54  " /><path style="stroke-width: 0.85 ;&st7;  " d=" M  1015.56,   315.07  L  1008.20,   319.32  " /><path style="stroke-width: 0.85 ;&st7;  " d=" M  1007.08,   324.73  L   998.58,   324.73  " /><path style="stroke-width: 0.85 ;&st7;  " d=" M   976.21,   322.78  L   983.57,   318.54  " /><path style="stroke-width: 0.85 ;&st7;  " d=" M   981.57,   315.07  L   974.21,   319.32  " /><path style="stroke-width: 0.85 ;&st7;  " d=" M   973.09,   324.73  L   964.59,   324.73  " /><path style="stroke-width: 1.42 ;&st7;   " d=" M  1002.83,   282.24  C  1005.04    284.06   1008.18    284.00   1010.32    282.10  " /><path style="stroke-width: 1.42 ;&st7;   " d=" M  1002.83,   282.24  C  1000.62    280.42    997.49    280.47    995.35    282.38  " /><path style="stroke-width: 1.42 ;&st7;  " d=" M   951.84,   273.74  L   951.84,   350.23  L  1019.83,   350.23  L  1019.83,   273.74  L   951.84,   273.74  " /><path style="stroke-width: 0.85 ;&st7;  " d=" M   968.84,   282.24  L   968.84,   273.74  " /><path style="stroke-width: 0.85 ;&st7;  " d=" M   985.83,   333.23  L   985.83,   350.23  " /><path style="stroke-width: 0.85 ;&st7;  " d=" M   968.84,   324.73  L   968.84,   333.23  L  1002.83,   333.23  L  1002.83,   324.73  " /><path style="stroke-width: 0.85 ;&st7;  " d=" M  1017.57,   318.54  L  1015.23,   321.58  L  1013.77,   319.04  L  1017.57,   318.54  L  1016.29,   319.28  L  1015.30,   320.56  L  1014.68,   319.49  L  1016.29,   319.28  L  1015.65,   319.65  L  1015.33,   320.05  L  1015.14,   319.71  L  1015.65,   319.65  " /><path style="stroke-width: 0.85 ;&st7;  " d=" M  1015.57,   315.07  L  1013.23,   318.11  L  1011.76,   315.57  L  1015.57,   315.07  L  1014.28,   315.81  L  1013.30,   317.09  L  1012.68,   316.02  L  1014.28,   315.81  L  1013.64,   316.18  L  1013.33,   316.58  L  1013.14,   316.24  L  1013.64,   316.18  " /><path style="stroke-width: 0.28 ;&st9;  " d=" M  1002.83,   324.73  L   997.17,   316.23  L  1008.50,   316.23  L  1002.83,   324.73  " /><path style="stroke-width: 0.85 ;&st7;  " d=" M  1002.83,   316.23  L  1002.83,   307.73  L  1000.00,   306.32  L  1005.66,   303.48  L  1000.00,   300.65  L  1005.66,   297.82  L  1000.00,   294.99  L  1005.66,   292.15  L  1002.83,   290.74  L  1002.83,   282.24  " /><path style="stroke-width: 0.85 ;&st7;  " d=" M   968.84,   316.23  L   968.84,   307.73  L   966.00,   306.32  L   971.67,   303.48  L   966.00,   300.65  L   971.67,   297.82  L   966.00,   294.99  L   971.67,   292.15  L   968.84,   290.74  L   968.84,   282.24  " /><path style="stroke-width: 0.85 ;&st7;  " d=" M   983.57,   318.54  L   981.24,   321.58  L   979.77,   319.04  L   983.57,   318.54  L   982.29,   319.28  L   981.31,   320.56  L   980.69,   319.49  L   982.29,   319.28  L   981.65,   319.65  L   981.34,   320.05  L   981.15,   319.71  L   981.65,   319.65  " /><path style="stroke-width: 0.85 ;&st7;  " d=" M   981.57,   315.07  L   979.24,   318.11  L   977.77,   315.57  L   981.57,   315.07  L   980.29,   315.81  L   979.30,   317.09  L   978.68,   316.02  L   980.29,   315.81  L   979.65,   316.18  L   979.34,   316.58  L   979.14,   316.24  L   979.65,   316.18  " /><path style="stroke-width: 0.28 ;&st9;  " d=" M   968.84,   324.73  L   963.17,   316.23  L   974.50,   316.23  L   968.84,   324.73  " /><text style="font-size:6px;font-family:'NSimSun';" transform="matrix(&st16;  988.42  346.54 )">E</text><text style="font-size:6px;font-family:'NSimSun';" transform="matrix(&st16;  971.42  281.93 )">TL</text><text style="font-size:6px;font-family:'NSimSun';" transform="matrix(&st17;  995.17  325.97 )" ewd:textID="73">停止</text><text style="font-size:6px;font-family:'NSimSun';" transform="matrix(&st17;  961.18  325.04 )" ewd:textID="75">尾灯</text><path style="stroke-width: 0.85 ;&st7;  " d=" M   984.64,   332.23  L   984.37,   332.70  L   984.28,   333.23  L   984.37,   333.76  L   984.64,   334.23  L   985.06,   334.58  L   985.56,   334.77  L   986.11,   334.77  L   986.61,   334.58  L   987.03,   334.23  L   987.30,   333.76  L   987.39,   333.23  L   987.30,   332.70  L   987.03,   332.23  L   986.61,   331.88  L   986.11,   331.69  L   985.56,   331.69  L   985.06,   331.88  L   984.64,   332.23  L   985.04,   332.94  L   985.04,   333.52  L   985.41,   333.97  L   985.98,   334.07  L   986.49,   333.78  L   986.68,   333.23  L   986.49,   332.68  L   985.98,   332.39  L   985.41,   332.49  L   985.83,   333.23  " /><text style="font-size:6px;font-family:'NSimSun';" transform="matrix(&st16;  962.65  270.05 )">3</text><text style="font-size:6px;font-family:'NSimSun';" transform="matrix(&st16;  979.65  358.42 )">4</text><g ewd:figtype="title"><text style="font-size:6px;font-family:'NSimSun';" transform="matrix(&st16; 976.72 263.63)">L26</text><text style="font-size:6px;font-family:'NSimSun';" transform="matrix(&st16; 976.72 270.46)" ewd:textID="62">右后组合灯总成</text></g></g><g ewd:figtype="conn" ewd:figID="9" ewd:code="A17"><path style="stroke-width: 1.42 ;&st7;  " d=" M   611.90,   452.21  L   662.89,   452.21  L   662.89,   418.22  L   611.90,   418.22  L   611.90,   452.21  " /><text style="font-size:6px;font-family:'NSimSun';" transform="matrix(&st16; 627.90 437.36)" ewd:textID="24" ewd:horAlign="center">示宽灯<tspan x="0 " dy="6.0" /></text><text style="font-size:6px;font-family:'NSimSun';" transform="matrix(&st16;  635.21  425.85 )">B</text><text style="font-size:6px;font-family:'NSimSun';" transform="matrix(&st16;  635.28  448.51 )">E</text><text style="font-size:6px;font-family:'NSimSun';" transform="matrix(&st16;  631.21  460.4 )">2</text><text style="font-size:6px;font-family:'NSimSun';" transform="matrix(&st16;  631.21  414.53 )">3</text><g ewd:figtype="title"><text style="font-size:6px;font-family:'NSimSun';" transform="matrix(&st17;  677.61  455.12 )" ewd:textID="31">右侧大灯总成</text><text style="font-size:6px;font-family:'NSimSun';" transform="matrix(&st17;  670.78  455.11 )">A17</text></g></g><g ewd:figtype="conn" ewd:figID="10" ewd:code="A7"><path style="stroke-width: 1.42 ;&st7;  " d=" M   543.91,   452.21  L   594.90,   452.21  L   594.90,   418.22  L   543.91,   418.22  L   543.91,   452.21  " /><text style="font-size:6px;font-family:'NSimSun';" transform="matrix(&st16; 559.91 437.36)" ewd:textID="24" ewd:horAlign="center">示宽灯<tspan x="0 " dy="6.0" /></text><text style="font-size:6px;font-family:'NSimSun';" transform="matrix(&st16;  567.29  448.51 )">E</text><text style="font-size:6px;font-family:'NSimSun';" transform="matrix(&st16;  567.22  425.85 )">B</text><text style="font-size:6px;font-family:'NSimSun';" transform="matrix(&st16;  563.22  460.4 )">2</text><text style="font-size:6px;font-family:'NSimSun';" transform="matrix(&st16;  563.22  414.53 )">3</text><g ewd:figtype="title"><text style="font-size:6px;font-family:'NSimSun';" transform="matrix(&st17;  540.21  455.12 )" ewd:textID="30">左侧大灯总成</text><text style="font-size:6px;font-family:'NSimSun';" transform="matrix(&st17;  533.39  455.11 )">A7</text></g></g><g ewd:figtype="conn" ewd:figID="11" ewd:code="L56"><path style="stroke-width: 0.85 ;&st7;  " d=" M   704.19,   442.71  L   703.92,   443.18  L   703.82,   443.71  L   703.92,   444.24  L   704.19,   444.71  L   704.60,   445.06  L   705.11,   445.25  L   705.65,   445.25  L   706.16,   445.06  L   706.57,   444.71  L   706.85,   444.24  L   706.94,   443.71  L   706.85,   443.18  L   706.57,   442.71  L   706.16,   442.36  L   705.65,   442.18  L   705.11,   442.18  L   704.60,   442.36  L   704.19,   442.71  L   704.58,   443.42  L   704.58,   444.00  L   704.96,   444.45  L   705.53,   444.55  L   706.03,   444.26  L   706.23,   443.71  L   706.03,   443.16  L   705.53,   442.88  L   704.96,   442.97  L   705.38,   443.71  " /><path style="stroke-width: 0.85 ;&st7;  " d=" M   705.38,   443.71  L   892.35,   443.71  L   892.35,   435.21  " /><path style="stroke-width: 0.85 ;&st7;  " d=" M   705.38,   452.21  L   705.38,   435.21  " /><path style="stroke-width: 1.42 ;&st7;  " d=" M   696.88,   452.21  L   900.85,   452.21  L   900.85,   435.21  L   696.88,   435.21  L   696.88,   452.21  " /><text style="font-size:6px;font-family:'NSimSun';" transform="matrix(&st16;  699.2  460.4 )">6</text><text style="font-size:6px;font-family:'NSimSun';" transform="matrix(&st16;  699.2  431.52 )">4</text><text style="font-size:6px;font-family:'NSimSun';" transform="matrix(&st16;  886.17  431.52 )">3</text><g ewd:figtype="title"><text style="font-size:6px;font-family:'NSimSun';" transform="matrix(&st16;  735.96  460.1 )">L56</text><text style="font-size:6px;font-family:'NSimSun';" transform="matrix(&st16;  735.97  466.93 )" ewd:textID="55">8 号接线连接器</text></g></g><g ewd:figtype="conn" ewd:figID="14" ewd:code="L54,L55"><path style="stroke-width: 0.85 ;&st7;  " d=" M  1257.79,   154.76  L  1257.79,   146.26  " /><path style="stroke-width: 0.85 ;&st7;  " d=" M  1104.81,   163.26  L  1104.81,   146.26  " /><path style="stroke-width: 0.85 ;&st7;  " d=" M  1256.60,   153.76  L  1256.32,   154.23  L  1256.23,   154.76  L  1256.32,   155.29  L  1256.60,   155.76  L  1257.01,   156.11  L  1257.52,   156.30  L  1258.06,   156.30  L  1258.57,   156.11  L  1258.98,   155.76  L  1259.25,   155.29  L  1259.35,   154.76  L  1259.25,   154.23  L  1258.98,   153.76  L  1258.57,   153.41  L  1258.06,   153.22  L  1257.52,   153.22  L  1257.01,   153.41  L  1256.60,   153.76  L  1256.99,   154.47  L  1256.99,   155.05  L  1257.36,   155.50  L  1257.94,   155.60  L  1258.44,   155.31  L  1258.64,   154.76  L  1258.44,   154.21  L  1257.94,   153.92  L  1257.36,   154.02  L  1257.79,   154.76  " /><path style="stroke-width: 0.85 ;&st7;  " d=" M  1103.62,   153.76  L  1103.35,   154.23  L  1103.26,   154.76  L  1103.35,   155.29  L  1103.62,   155.76  L  1104.04,   156.11  L  1104.54,   156.30  L  1105.09,   156.30  L  1105.59,   156.11  L  1106.01,   155.76  L  1106.28,   155.29  L  1106.37,   154.76  L  1106.28,   154.23  L  1106.01,   153.76  L  1105.59,   153.41  L  1105.09,   153.22  L  1104.54,   153.22  L  1104.04,   153.41  L  1103.62,   153.76  L  1104.02,   154.47  L  1104.02,   155.05  L  1104.39,   155.50  L  1104.96,   155.60  L  1105.47,   155.31  L  1105.66,   154.76  L  1105.47,   154.21  L  1104.96,   153.92  L  1104.39,   154.02  L  1104.81,   154.76  " /><path style="stroke-width: 0.85 ;&st7;  " d=" M   688.38,   154.76  L  1257.79,   154.76  L  1257.79,   163.26  " /><path style="stroke-width: 0.85 ;&st7;  " d=" M   900.85,   163.26  L   900.85,   154.76  " /><path style="stroke-width: 0.85 ;&st7;  " d=" M   688.38,   163.26  L   688.38,   146.26  " /><path style="stroke-width: 0.85 ;&st7;  " d=" M   899.66,   153.76  L   899.38,   154.23  L   899.29,   154.76  L   899.38,   155.29  L   899.66,   155.76  L   900.07,   156.11  L   900.58,   156.30  L   901.12,   156.30  L   901.63,   156.11  L   902.04,   155.76  L   902.31,   155.29  L   902.41,   154.76  L   902.31,   154.23  L   902.04,   153.76  L   901.63,   153.41  L   901.12,   153.22  L   900.58,   153.22  L   900.07,   153.41  L   899.66,   153.76  L   900.05,   154.47  L   900.05,   155.05  L   900.42,   155.50  L   901.00,   155.60  L   901.50,   155.31  L   901.70,   154.76  L   901.50,   154.21  L   901.00,   153.92  L   900.42,   154.02  L   900.85,   154.76  " /><path style="stroke-width: 0.85 ;&st7;  " d=" M   687.19,   153.76  L   686.92,   154.23  L   686.83,   154.76  L   686.92,   155.29  L   687.19,   155.76  L   687.61,   156.11  L   688.11,   156.30  L   688.66,   156.30  L   689.16,   156.11  L   689.58,   155.76  L   689.85,   155.29  L   689.94,   154.76  L   689.85,   154.23  L   689.58,   153.76  L   689.16,   153.41  L   688.66,   153.22  L   688.11,   153.22  L   687.61,   153.41  L   687.19,   153.76  L   687.59,   154.47  L   687.59,   155.05  L   687.96,   155.50  L   688.53,   155.60  L   689.04,   155.31  L   689.23,   154.76  L   689.04,   154.21  L   688.53,   153.92  L   687.96,   154.02  L   688.38,   154.76  " /><path style="stroke-width: 1.42 ;&st7;  " d=" M   679.89,   163.26  L  1266.29,   163.26  L  1266.29,   146.26  L   679.89,   146.26  L   679.89,   163.26  " /><text style="font-size:6px;font-family:'NSimSun';" transform="matrix(&st16;  676.59  143.7 )">21</text><path style="stroke-width: 1.42 ;&st7;   " d=" M   692.92,   141.73  C   692.92    139.23    690.89    137.20    688.38    137.20  " /><path style="stroke-width: 1.42 ;&st7;   " d=" M   688.38,   137.20  C   685.88    137.20    683.85    139.23    683.85    141.73  " /><path style="stroke-width: 1.42 ;&st7;   " d=" M   683.85,   141.73  C   683.85    144.23    685.88    146.26    688.38    146.26  " /><path style="stroke-width: 1.42 ;&st7;   " d=" M   688.38,   146.26  C   690.89    146.26    692.92    144.23    692.92    141.73  " /><text style="font-size:6px;font-family:'NSimSun';" transform="matrix(&st16;  686.08  143.7 )">A</text><text style="font-size:6px;font-family:'NSimSun';" transform="matrix(&st16;  676.59  169.76 )">22</text><text style="font-size:6px;font-family:'NSimSun';" transform="matrix(&st16;  686.08  169.76 )">A</text><path style="stroke-width: 1.42 ;&st7;   " d=" M   692.92,   167.79  C   692.92    165.29    690.89    163.26    688.38    163.26  " /><path style="stroke-width: 1.42 ;&st7;   " d=" M   688.38,   163.26  C   685.88    163.26    683.85    165.29    683.85    167.79  " /><path style="stroke-width: 1.42 ;&st7;   " d=" M   683.85,   167.79  C   683.85    170.29    685.88    172.32    688.38    172.32  " /><path style="stroke-width: 1.42 ;&st7;   " d=" M   688.38,   172.32  C   690.89    172.32    692.92    170.29    692.92    167.79  " /><text style="font-size:6px;font-family:'NSimSun';" transform="matrix(&st16;  889.05  169.76 )">20</text><path style="stroke-width: 1.42 ;&st7;   " d=" M   905.38,   167.79  C   905.38    165.29    903.35    163.26    900.85    163.26  " /><path style="stroke-width: 1.42 ;&st7;   " d=" M   900.85,   163.26  C   898.35    163.26    896.32    165.29    896.32    167.79  " /><path style="stroke-width: 1.42 ;&st7;   " d=" M   896.32,   167.79  C   896.32    170.29    898.35    172.32    900.85    172.32  " /><path style="stroke-width: 1.42 ;&st7;   " d=" M   900.85,   172.32  C   903.35    172.32    905.38    170.29    905.38    167.79  " /><text style="font-size:6px;font-family:'NSimSun';" transform="matrix(&st16;  898.54  169.76 )">A</text><text style="font-size:6px;font-family:'NSimSun';" transform="matrix(&st16;  1093.02  169.76 )">13</text><text style="font-size:6px;font-family:'NSimSun';" transform="matrix(&st16;  1102.63  169.76 )">B</text><path style="stroke-width: 1.42 ;&st7;   " d=" M  1109.35,   167.79  C  1109.35    165.29   1107.32    163.26   1104.82    163.26  " /><path style="stroke-width: 1.42 ;&st7;   " d=" M  1104.82,   163.26  C  1102.31    163.26   1100.28    165.29   1100.28    167.79  " /><path style="stroke-width: 1.42 ;&st7;   " d=" M  1100.28,   167.79  C  1100.28    170.29   1102.31    172.32   1104.82    172.32  " /><path style="stroke-width: 1.42 ;&st7;   " d=" M  1104.82,   172.32  C  1107.32    172.32   1109.35    170.29   1109.35    167.79  " /><text style="font-size:6px;font-family:'NSimSun';" transform="matrix(&st16;  1245.99  169.76 )">14</text><path style="stroke-width: 1.42 ;&st7;   " d=" M  1262.32,   167.79  C  1262.32    165.29   1260.29    163.26   1257.79    163.26  " /><path style="stroke-width: 1.42 ;&st7;   " d=" M  1257.79,   163.26  C  1255.29    163.26   1253.26    165.29   1253.26    167.79  " /><path style="stroke-width: 1.42 ;&st7;   " d=" M  1253.26,   167.79  C  1253.26    170.29   1255.29    172.32   1257.79    172.32  " /><path style="stroke-width: 1.42 ;&st7;   " d=" M  1257.79,   172.32  C  1260.29    172.32   1262.32    170.29   1262.32    167.79  " /><text style="font-size:6px;font-family:'NSimSun';" transform="matrix(&st16;  1255.6  169.76 )">B</text><text style="font-size:6px;font-family:'NSimSun';" transform="matrix(&st16;  1245.99  143.7 )">12</text><path style="stroke-width: 1.42 ;&st7;   " d=" M  1262.32,   141.73  C  1262.32    139.23   1260.29    137.20   1257.79    137.20  " /><path style="stroke-width: 1.42 ;&st7;   " d=" M  1257.79,   137.20  C  1255.29    137.20   1253.26    139.23   1253.26    141.73  " /><path style="stroke-width: 1.42 ;&st7;   " d=" M  1253.26,   141.73  C  1253.26    144.23   1255.29    146.26   1257.79    146.26  " /><path style="stroke-width: 1.42 ;&st7;   " d=" M  1257.79,   146.26  C  1260.29    146.26   1262.32    144.23   1262.32    141.73  " /><text style="font-size:6px;font-family:'NSimSun';" transform="matrix(&st16;  1255.6  143.7 )">B</text><text style="font-size:6px;font-family:'NSimSun';" transform="matrix(&st16;  1093.02  143.7 )">15</text><text style="font-size:6px;font-family:'NSimSun';" transform="matrix(&st16;  1102.63  143.7 )">B</text><path style="stroke-width: 1.42 ;&st7;   " d=" M  1109.35,   141.73  C  1109.35    139.23   1107.32    137.20   1104.82    137.20  " /><path style="stroke-width: 1.42 ;&st7;   " d=" M  1104.82,   137.20  C  1102.31    137.20   1100.28    139.23   1100.28    141.73  " /><path style="stroke-width: 1.42 ;&st7;   " d=" M  1100.28,   141.73  C  1100.28    144.23   1102.31    146.26   1104.82    146.26  " /><path style="stroke-width: 1.42 ;&st7;   " d=" M  1104.82,   146.26  C  1107.32    146.26   1109.35    144.23   1109.35    141.73  " /><g ewd:figtype="title"><text style="font-size:6px;font-family:'NSimSun';" transform="matrix(&st16;  829.45  135.74 )">L54(A),L55(B)</text><text style="font-size:6px;font-family:'NSimSun';" transform="matrix(&st16;  829.46  142.56 )" ewd:textID="54">7 号接线连接器</text></g></g><g ewd:figtype="conn" ewd:figID="41" ewd:code="E74"><path style="stroke-width: 0.85 ;&st7;  " d=" M   951.84,   545.69  L   951.84,   579.69  " /><path style="stroke-width: 1.42 ;&st7;  " d=" M   841.36,   545.69  L   960.34,   545.69  L   960.34,   579.69  L   841.36,   579.69  L   841.36,   545.69  " /><path style="stroke-width: 0.85 ;&st7;  " d=" M   917.85,   545.69  L   917.85,   579.69  " /><path style="stroke-width: 0.85 ;&st7;  " d=" M   950.65,   553.19  L   950.38,   553.66  L   950.28,   554.19  L   950.38,   554.73  L   950.65,   555.20  L   951.06,   555.54  L   951.57,   555.73  L   952.11,   555.73  L   952.62,   555.54  L   953.03,   555.20  L   953.31,   554.73  L   953.40,   554.19  L   953.31,   553.66  L   953.03,   553.19  L   952.62,   552.84  L   952.11,   552.66  L   951.57,   552.66  L   951.06,   552.84  L   950.65,   553.19  L   951.04,   553.90  L   951.04,   554.48  L   951.42,   554.93  L   951.99,   555.03  L   952.49,   554.74  L   952.69,   554.19  L   952.49,   553.65  L   951.99,   553.36  L   951.42,   553.46  L   951.84,   554.19  " /><path style="stroke-width: 0.85 ;&st7;  " d=" M   849.86,   579.69  L   849.86,   554.19  L   951.84,   554.19  " /><path style="stroke-width: 0.85 ;&st7;  " d=" M   883.85,   579.69  L   883.85,   571.19  L   917.85,   571.19  " /><path style="stroke-width: 0.85 ;&st7;  " d=" M   916.65,   570.19  L   916.38,   570.66  L   916.29,   571.19  L   916.38,   571.72  L   916.65,   572.19  L   917.07,   572.54  L   917.57,   572.73  L   918.12,   572.73  L   918.63,   572.54  L   919.04,   572.19  L   919.31,   571.72  L   919.40,   571.19  L   919.31,   570.66  L   919.04,   570.19  L   918.63,   569.84  L   918.12,   569.65  L   917.57,   569.65  L   917.07,   569.84  L   916.65,   570.19  L   917.05,   570.90  L   917.05,   571.48  L   917.42,   571.93  L   917.99,   572.03  L   918.50,   571.74  L   918.70,   571.19  L   918.50,   570.64  L   917.99,   570.35  L   917.42,   570.45  L   917.85,   571.19  " /><text style="font-size:6px;font-family:'NSimSun';" transform="matrix(&st16;  945.66  587.88 )">4</text><text style="font-size:6px;font-family:'NSimSun';" transform="matrix(&st16;  908.56  587.88 )">15</text><text style="font-size:6px;font-family:'NSimSun';" transform="matrix(&st16;  908.56  542.0 )">17</text><text style="font-size:6px;font-family:'NSimSun';" transform="matrix(&st16;  945.66  542.0 )">6</text><text style="font-size:6px;font-family:'NSimSun';" transform="matrix(&st16;  874.57  587.88 )">16</text><text style="font-size:6px;font-family:'NSimSun';" transform="matrix(&st16;  843.67  587.88 )">5</text><g ewd:figtype="title"><text style="font-size:6px;font-family:'NSimSun';" transform="matrix(&st17;  975.06  582.59 )" ewd:textID="48">2 号<tspan x="0 " dy="6.0">CAN</tspan><tspan x="0 " dy="6.0">接线连接器</tspan></text><text style="font-size:6px;font-family:'NSimSun';" transform="matrix(&st17;  968.23  582.59 )">E74</text></g></g><g ewd:figtype="gp" ewd:figID="71" ewd:code="AA"><path style="stroke-width: 0.85 ;&st7;  " d=" M   569.40,   697.25  L   569.40,   701.50  " /><path style="stroke-width: 0.85 ;&st7;  " d=" M   560.91,   701.50  L   577.90,   701.50  " /><path style="stroke-width: 0.85 ;&st7;  " d=" M   565.16,   704.33  L   573.65,   704.33  " /><path style="stroke-width: 0.85 ;&st7;  " d=" M   566.57,   707.17  L   572.24,   707.17  " /><path style="stroke-width: 0.85 ;&st7;  " d=" M   567.99,   710.00  L   570.82,   710.00  " /></g><g ewd:figtype="gp" ewd:figID="72" ewd:code="AC"><path style="stroke-width: 0.85 ;&st7;  " d=" M   635.98,   710.00  L   638.81,   710.00  " /><path style="stroke-width: 0.85 ;&st7;  " d=" M   634.56,   707.17  L   640.23,   707.17  " /><path style="stroke-width: 0.85 ;&st7;  " d=" M   633.14,   704.33  L   641.64,   704.33  " /><path style="stroke-width: 0.85 ;&st7;  " d=" M   628.89,   701.50  L   645.89,   701.50  " /><path style="stroke-width: 0.85 ;&st7;  " d=" M   637.39,   697.25  L   637.39,   701.50  " /></g><g ewd:figtype="gp" ewd:figID="73" ewd:code="LA"><path style="stroke-width: 0.85 ;&st7;  " d=" M   703.97,   710.00  L   706.80,   710.00  " /><path style="stroke-width: 0.85 ;&st7;  " d=" M   702.55,   707.17  L   708.21,   707.17  " /><path style="stroke-width: 0.85 ;&st7;  " d=" M   701.13,   704.33  L   709.63,   704.33  " /><path style="stroke-width: 0.85 ;&st7;  " d=" M   696.88,   701.50  L   713.88,   701.50  " /><path style="stroke-width: 0.85 ;&st7;  " d=" M   705.38,   697.25  L   705.38,   701.50  " /></g><g ewd:code="7" ewd:figID="106" ewd:comment="" ewd:figtype="comment"><text style="font-size:6px;font-family:'NSimSun';" transform="matrix(&st16;  701.98  105.74 )" ewd:textID="6">* 7 : 带防盗系统</text></g><g ewd:code="9" ewd:figID="104" ewd:comment="" ewd:figtype="comment"><text style="font-size:6px;font-family:'NSimSun';" transform="matrix(&st16;  863.45  88.74 )" ewd:textID="8">* 9 : LED 型刹车灯</text></g><g ewd:code="10" ewd:figID="105" ewd:comment="" ewd:figtype="comment"><text style="font-size:6px;font-family:'NSimSun';" transform="matrix(&st16;  863.45  97.24 )" ewd:textID="9">* 10 : 灯泡型刹车灯</text></g><g ewd:code="2" ewd:figID="114" ewd:comment="" ewd:figtype="comment"><text style="font-size:6px;font-family:'NSimSun';" transform="matrix(&st16;  701.98  88.74 )" ewd:textID="2">* 2 : 不带 TFT 显示屏</text></g><g ewd:code="8" ewd:figID="107" ewd:comment="" ewd:figtype="comment"><text style="font-size:6px;font-family:'NSimSun';" transform="matrix(&st16;  863.45  80.24 )" ewd:textID="7">* 8 : 不带防盗系统</text></g><g ewd:code="4" ewd:figID="131" ewd:comment="" ewd:figtype="comment"><text style="font-size:6px;font-family:'NSimSun';" transform="matrix(&st16;  701.98  97.24 )" ewd:textID="3">* 4: 带智能进入和起动系统</text></g><g ewd:code="1" ewd:figID="115" ewd:comment="" ewd:figtype="comment"><text style="font-size:6px;font-family:'NSimSun';" transform="matrix(&st16;  701.98  80.24 )" ewd:textID="1">* 1 : 带 TFT 显示屏</text></g><g ewd:code="23" ewd:figID="135" ewd:comment="" ewd:figtype="comment"><text style="font-size:6px;font-family:'NSimSun';" transform="matrix(&st16;  863.45  105.74 )" ewd:textID="19">* 23 : 带自动灯光控制</text></g></svg>