<?xml version="1.0" encoding="utf-8"?>
<!DOCTYPE svg PUBLIC "-//W3C//DTD SVG 1.0//EN" "http://www.w3.org/TR/2001/REC-SVG-20010904/DTD/svg10.dtd"[
	<!ENTITY ns_flows "http://ns.adobe.com/Flows/1.0/">
	<!ENTITY ns_svg "http://www.w3.org/2000/svg">
	<!ENTITY ns_xlink "http://www.w3.org/1999/xlink">
	<!ENTITY st0 "font-size:7px;font-family:'NSimSun';adobe-font-script:japanese;">
	<!ENTITY st1 "font-size:6px;font-family:'NSimSun';">
	<!-- White fill  -->
	<!ENTITY st2 "fill:#FFFFFF;stroke:#000000; stroke-width:1.41;stroke-linecap:round;stroke-linejoin:round;">
	<!-- Yellow fill  -->
	<!ENTITY st3 "fill:#FFFFCC;stroke:#FFFFCC; stroke-width:0.1;stroke-linecap:round;stroke-linejoin:round;">
	<!-- Gray fill  -->
	<!ENTITY st4 "fill:#CCCCCC;stroke:#CCCCCC; stroke-width:0.1;stroke-linecap:round;stroke-linejoin:round;">
	<!-- Light-blue fill -->
	<!ENTITY st5 "fill:#CCECF4;stroke:#000000; stroke-width:1.133;stroke-linecap:round;stroke-linejoin:round;">
	<!ENTITY st6 "fill:none;stroke-linecap:butt; stroke-linejoin:round;">
	<!ENTITY st7 "fill:none;stroke:#000000;stroke-linecap:round;stroke-linejoin:round;">
	<!ENTITY st8 "enable-background:new    ;">
	<!-- Black fill -->
	<!ENTITY st9 "fill:#000000;stroke:#000000; stroke-linecap:round;stroke-linejoin:round;">
	<!-- SRS note   -->
	<!ENTITY st10 "font-size:9px;font-family:'NSimSun';">
	<!ENTITY st11 "font-size:9px;font-family:'NSimSun';">
	<!ENTITY st12 "font-size:6px;font-family:'NSimSun';">
	<!ENTITY st13 "fill:none;stroke:#ff0000;stroke-linecap:round;stroke-linejoin:round;">
	<!-- Yellow fill  -->
	<!ENTITY st14 "fill:#FFFF00;stroke:#FFFF00; stroke-width:0.1;stroke-linecap:round;stroke-linejoin:round;">
	<!ENTITY st15 "font-size:6px;font-family:'NSimSun';adobe-font-script:japanese;">
	<!ENTITY st16 "1.00 0.00 0.00 1.00">
	<!ENTITY st17 "0.00 -1.00 1.00 0.00">
	<!ENTITY st18 "font-size:6px;font-family:'NSimSun';">
	<!ENTITY st19 "font-size:9px;font-family:'NSimSun';">
	<!ENTITY st20 "font-size:6px;font-family:'NSimSun';adobe-font-script:japanese;">
	<!ENTITY st21 "font-size:7px;font-family:'NSimSun';adobe-font-script:japanese;">
	<!ATTLIST svg
		xmlns:ewd CDATA #FIXED "http://shcl.co.jp/ewd"
		xmlns:a CDATA #FIXED "http://ns.adobe.com/AdobeSVGViewerExtensions/3.0/"
		ewd:ver CDATA #IMPLIED
	>
	<!ATTLIST a
		ewd:lineID CDATA #IMPLIED
		ewd:groupID CDATA #IMPLIED
		ewd:figtype CDATA #IMPLIED
		ewd:code CDATA #IMPLIED
		ewd:figID CDATA #IMPLIED
		ewd:pinNo CDATA #IMPLIED
		ewd:comment CDATA #IMPLIED >
	<!ATTLIST g
		ewd:lineID CDATA #IMPLIED
		ewd:groupID CDATA #IMPLIED
		ewd:figtype CDATA #IMPLIED
		ewd:code CDATA #IMPLIED
		ewd:figID CDATA #IMPLIED
		ewd:pinNo CDATA #IMPLIED
		ewd:comment CDATA #IMPLIED >
	<!ATTLIST text
		ewd:textID CDATA #IMPLIED
		ewd:horAlign CDATA #IMPLIED >
	<!ATTLIST title
		ewd:textID CDATA #IMPLIED >
]>
<!-- Generator: Shintec Hozumi YS   -->
<svg onload="call_execInitLoadProc_svg('system')" style="overflow:visible;  enable-background:new 0 0 1538.243 710.000" viewBox="0 0 1546.744 710.000" height="710.000" width="1546.744" xml:space="preserve" ewd:ver="2.1.2.6F" xmlns="&ns_svg;" xmlns:ewd="http://shcl.co.jp/ewd" xmlns:a="http://ns.adobe.com/AdobeSVGViewerExtensions/3.0/" xmlns:xlink="&ns_xlink;"><script type="text/javascript" xlink:href="../../../../../system/js/ewd/fig/svgfig.js" xmlns:xlink="http://www.w3.org/1999/xlink" />
<g id="ewd_top"><a ewd:figtype="rb" style="cursor:pointer;" ewd:code="FUSE36" ewd:figID="1"><path style="fill:#CCECF4;stroke:#000000; stroke-width:0; stroke-linecap:round;stroke-linejoin:round; " d=" M   888.10,    35.78  L   888.10,    78.27  L   913.60,    78.27  L   913.60,    35.78  L   888.10,    35.78 " /></a><a ewd:figtype="conn" style="cursor:pointer;" ewd:code="E72" ewd:figID="2"><path style="&st5;" d=" M   628.89,   273.74  L   628.89,   290.74  L   645.89,   290.74  L   645.89,   273.74  L   628.89,   273.74 " /><title ewd:textID="11">5 号接线连接器</title></a><a ewd:figtype="conn" style="cursor:pointer;" ewd:code="B6" ewd:figID="3"><path style="&st5;" d=" M  1402.27,   341.73  L  1402.27,   307.73  L  1385.27,   307.73  L  1385.27,   341.73  L  1402.27,   341.73 " /><title ewd:textID="1">倒车灯开关总成</title></a><a ewd:figtype="conn" style="cursor:pointer;" ewd:code="B15" ewd:figID="4"><path style="&st5;" d=" M  1461.76,   316.23  L  1461.76,   350.23  L  1512.75,   350.23  L  1512.75,   316.23  L  1461.76,   316.23 " /><title ewd:textID="12">驻车/空档位置开关总成</title></a><a ewd:figtype="conn" style="cursor:pointer;" ewd:code="E65" ewd:figID="5"><path style="&st5;" d=" M   195.47,   188.75  L   195.47,   307.73  L   263.46,   307.73  L   263.46,   188.75  L   195.47,   188.75 " /><title ewd:textID="3">后声纳或侦测声纳开关总成</title></a><a ewd:figtype="conn" style="cursor:pointer;" ewd:code="E63" ewd:figID="6"><path style="&st5;" d=" M   195.47,   350.23  L   195.47,   392.72  L  1359.77,   392.72  L  1359.77,   350.23  L   195.47,   350.23 " /><title ewd:textID="4">间隙警告 ECU 总成</title></a><a ewd:figtype="conn" style="cursor:pointer;" ewd:code="E61" ewd:figID="7"><path style="&st5;" d=" M   144.48,   477.71  L   144.48,   520.20  L   331.44,   520.20  L   331.44,   477.71  L   144.48,   477.71 " /><title ewd:textID="14">警告灯总成</title></a><a ewd:figtype="conn" style="cursor:pointer;" ewd:code="E64" ewd:figID="8"><path style="&st5;" d=" M   654.39,   511.70  L   654.39,   562.69  L   688.38,   562.69  L   688.38,   511.70  L   654.39,   511.70 " /><title ewd:textID="5">1 号间隙警告蜂鸣器</title></a><a ewd:figtype="conn" style="cursor:pointer;" ewd:code="E71" ewd:figID="9"><path style="&st5;" d=" M   773.37,   477.71  L   790.37,   477.71  L   790.37,   494.70  L   773.37,   494.70  L   773.37,   477.71 " /><title ewd:textID="10">4 号接线连接器</title></a><a ewd:figtype="conn" style="cursor:pointer;" ewd:code="P5" ewd:figID="10"><path style="&st5;" d=" M  1147.31,   137.76  L  1147.31,   171.76  L  1181.30,   171.76  L  1181.30,   137.76  L  1147.31,   137.76 " /><title ewd:textID="9">右侧 1 号超声波传感器</title></a><a ewd:figtype="conn" style="cursor:pointer;" ewd:code="P8" ewd:figID="11"><path style="&st5;" d=" M  1206.80,   137.76  L  1206.80,   171.76  L  1240.79,   171.76  L  1240.79,   137.76  L  1206.80,   137.76 " /><title ewd:textID="8">左侧 1 号超声波传感器</title></a><a ewd:figtype="conn" style="cursor:pointer;" ewd:code="P6" ewd:figID="12"><path style="&st5;" d=" M  1266.29,   137.76  L  1266.29,   171.76  L  1300.28,   171.76  L  1300.28,   137.76  L  1266.29,   137.76 " /><title ewd:textID="7">右侧中央 1 号超声波传感器</title></a><a ewd:figtype="conn" style="cursor:pointer;" ewd:code="P7" ewd:figID="13"><path style="&st5;" d=" M  1325.78,   137.76  L  1325.78,   171.76  L  1359.77,   171.76  L  1359.77,   137.76  L  1325.78,   137.76 " /><title ewd:textID="6">左侧中央 1 号超声波传感器</title></a><a ewd:figtype="jb" style="cursor:pointer;" ewd:code="3" ewd:figID="15"><path style="&st4; " d=" M   144.48,    35.78  L   144.48,   112.27  L   220.96,   112.27  L   220.96,    35.78  L   144.48,    35.78  " /></a><a ewd:figtype="jb" style="cursor:pointer;" ewd:code="1" ewd:figID="16"><path style="&st4; " d=" M   883.85,    95.27  L   883.85,   103.77  L   909.35,   103.77  L   909.35,    95.27  L   883.85,    95.27  " /></a><a ewd:figtype="jb" style="cursor:pointer;" ewd:code="3" ewd:figID="17"><path style="&st4; " d=" M   696.88,   214.25  L   917.85,   214.25  L   917.85,   137.76  L   866.86,   137.76  L   866.86,    86.77  L   696.88,    86.77  L   696.88,   214.25  " /></a><a ewd:figtype="jb" style="cursor:pointer;" ewd:code="3" ewd:figID="18"><path style="&st4; " d=" M  1266.29,   537.20  L  1291.78,   537.20  L  1291.78,   486.20  L  1266.29,   486.20  L  1266.29,   537.20  " /></a><a ewd:figtype="jb" style="cursor:pointer;" ewd:code="3" ewd:figID="19"><path style="&st4; " d=" M  1470.25,    35.78  L  1470.25,   112.27  L  1538.24,   112.27  L  1538.24,    35.78  L  1470.25,    35.78  " /></a><a ewd:figtype="fuse" style="cursor:pointer;" ewd:code="FUSE47" ewd:figID="35"><path style="&st7; stroke-width:0;" d=" M   148.73,    35.78  L   148.73,    78.27  L   174.22,    78.27  L   174.22,    35.78  L   148.73,    35.78 " /></a><a ewd:figtype="fuse" style="cursor:pointer;" ewd:code="FUSE52" ewd:figID="36"><path style="&st7; stroke-width:0;" d=" M   701.13,   129.26  L   701.13,   171.76  L   726.63,   171.76  L   726.63,   129.26  L   701.13,   129.26 " /></a><a ewd:figtype="fuse" style="cursor:pointer;" ewd:code="FUSE36" ewd:figID="37"><path style="&st7; stroke-width:0;" d=" M   888.10,    35.78  L   888.10,    78.27  L   913.60,    78.27  L   913.60,    35.78  L   888.10,    35.78 " /></a><a ewd:figtype="fuse" style="cursor:pointer;" ewd:code="FUSE45" ewd:figID="38"><path style="&st7; stroke-width:0;" d=" M  1474.50,    35.78  L  1474.50,    78.27  L  1500.00,    78.27  L  1500.00,    35.78  L  1474.50,    35.78 " /></a><a style="cursor:pointer;" ewd:lineID="1"><path style="stroke:#000000;stroke-width: 5.10 ;&st6;" d=" M   161.47,   112.27  L   161.47,   477.71  " /></a><a style="cursor:pointer;" ewd:lineID="2"><path style="stroke:#008837;stroke-width: 5.10 ;&st6;" d=" M   212.46,   392.72  L   212.46,   477.71  " /></a><a style="cursor:pointer;" ewd:lineID="3"><path style="stroke:#F668B2;stroke-width: 5.10 ;&st6;" d=" M   212.46,   307.73  L   212.46,   350.23  " /></a><a style="cursor:pointer;" ewd:lineID="4"><path style="stroke:#99D9E8;stroke-width: 5.10 ;&st6;" d=" M   212.46,   112.27  L   212.46,   188.75  " /></a><a style="cursor:pointer;" ewd:lineID="5"><path style="stroke:#56077D;stroke-width: 5.10 ;&st6;" d=" M   237.96,   307.73  L   237.96,   350.23  " /></a><a style="cursor:pointer;" ewd:lineID="6"><path style="stroke:#FF0000;stroke-width: 5.10 ;&st6;" d=" M   246.46,   392.72  L   246.46,   477.71  " /></a><a style="cursor:pointer;" ewd:lineID="7"> d=" M   280.45,   392.72  L   280.45,   477.71 
	
		<path style="stroke:#000000;stroke-width: 5.10 ;&st6;" d=" M   280.45,   392.72  L   280.45,   477.71  " /><path style="stroke:#FFFFFF;stroke-width: 4.53 ;&st6;" d=" M   280.45,   392.72  L   280.45,   477.71  " /></a><a style="cursor:pointer;" ewd:lineID="8"><path style="stroke:#F668B2;stroke-width: 5.10 ;&st6;" d=" M   314.45,   392.72  L   314.45,   477.71  " /></a><a style="cursor:pointer;" ewd:lineID="9"><path style="stroke:#7FC97F;stroke-width: 5.10 ;&st6;" d=" M   637.39,   290.74  L   637.39,   350.23  " /></a><a style="cursor:pointer;" ewd:lineID="10"><path style="stroke:#7FC97F;stroke-width: 5.10 ;&st6;" d=" M   637.39,   273.74  L   637.39,   231.25  L   671.39,   231.25  L   671.39,   290.74  L   713.88,   290.74  L   713.88,   214.25  " /></a><a style="cursor:pointer;" ewd:lineID="11"> d=" M   679.89,   562.69  L   679.89,   588.19  L   637.39,   588.19  L   637.39,   392.72 
	
		<path style="stroke:#000000;stroke-width: 5.10 ;&st6;" d=" M   679.89,   562.69  L   679.89,   588.19  L   637.39,   588.19  L   637.39,   392.72  " /><path style="stroke:#FFFFFF;stroke-width: 4.53 ;&st6;" d=" M   679.89,   562.69  L   679.89,   588.19  L   637.39,   588.19  L   637.39,   392.72  " /></a><a style="cursor:pointer;" ewd:lineID="12"><path style="stroke:#000000;stroke-width: 5.10 ;&st6;" d=" M   679.89,   511.70  L   679.89,   392.72  " /></a><a style="cursor:pointer;" ewd:lineID="13"><path style="stroke:#992903;stroke-width: 5.10 ;&st6;" d=" M   781.87,   494.70  L   781.87,   681.67  " /></a><a style="cursor:pointer;" ewd:lineID="14"><path style="stroke:#992903;stroke-width: 5.10 ;&st6;" d=" M   781.87,   392.72  L   781.87,   477.71  " /></a><a style="cursor:pointer;" ewd:lineID="15"> d=" M   900.85,   103.77  L   900.85,   137.76 
	
		<path style="stroke:#000000;stroke-width: 5.10 ;&st6;" d=" M   900.85,   103.77  L   900.85,   137.76  " /><path style="stroke:#FFFFFF;stroke-width: 4.53 ;&st6;" d=" M   900.85,   103.77  L   900.85,   137.76  " /></a><a style="cursor:pointer;" ewd:lineID="16"><path style="stroke:#992903;stroke-width: 5.10 ;&st6;" d=" M  1079.32,   350.23  L  1079.32,   290.74  " /></a><a style="cursor:pointer;" ewd:lineID="17"><path style="stroke:#992903;stroke-width: 5.10 ;&st6;" d=" M  1079.32,   276.01  L  1079.32,   237.48  " /></a><a style="cursor:pointer;" ewd:lineID="18"><path style="stroke:#F668B2;stroke-width: 5.10 ;&st6;" d=" M  1164.31,   350.23  L  1164.31,   290.74  " /></a><a style="cursor:pointer;" ewd:lineID="19"><path style="stroke:#F668B2;stroke-width: 5.10 ;&st6;" d=" M  1164.31,   276.01  L  1164.31,   237.48  " /></a><a style="cursor:pointer;" ewd:lineID="20"><path style="stroke:#F668B2;stroke-width: 5.10 ;&st6;" d=" M  1164.31,   222.75  L  1164.31,   171.76  " /></a><a style="cursor:pointer;" ewd:lineID="21"><path style="stroke:#992903;stroke-width: 5.10 ;&st6;" d=" M  1215.30,    44.28  L  1164.31,    44.28  L  1164.31,   137.76  " /></a><a style="cursor:pointer;" ewd:lineID="22"><path style="stroke:#56077D;stroke-width: 5.10 ;&st6;" d=" M  1223.80,   350.23  L  1223.80,   290.74  " /></a><a style="cursor:pointer;" ewd:lineID="23"><path style="stroke:#56077D;stroke-width: 5.10 ;&st6;" d=" M  1223.80,   276.01  L  1223.80,   237.48  " /></a><a style="cursor:pointer;" ewd:lineID="24"><path style="stroke:#56077D;stroke-width: 5.10 ;&st6;" d=" M  1223.80,   222.75  L  1223.80,   171.76  " /></a><a style="cursor:pointer;" ewd:lineID="25"><path style="stroke:#992903;stroke-width: 5.10 ;&st6;" d=" M  1223.80,    52.78  L  1223.80,   137.76  " /></a><a style="cursor:pointer;" ewd:lineID="26"><path style="stroke:#992903;stroke-width: 5.10 ;&st6;" d=" M  1223.80,    35.78  L  1223.80,    18.78  L  1079.32,    18.78  L  1079.32,   222.75  " /></a><a style="cursor:pointer;" ewd:lineID="27"><path style="stroke:#992903;stroke-width: 5.10 ;&st6;" d=" M  1229.81,    38.26  L  1240.79,    27.28  L  1342.78,    27.28  L  1342.78,   137.76  " /></a><a style="cursor:pointer;" ewd:lineID="28"><path style="stroke:#992903;stroke-width: 5.10 ;&st6;" d=" M  1232.29,    44.28  L  1283.29,    44.28  L  1283.29,   137.76  " /></a><a style="cursor:pointer;" ewd:lineID="29"><path style="stroke:#FF0000;stroke-width: 5.10 ;&st6;" d=" M  1283.29,   486.20  L  1283.29,   392.72  " /></a><a style="cursor:pointer;" ewd:lineID="30"><path style="stroke:#008837;stroke-width: 5.10 ;&st6;" d=" M  1283.29,   350.23  L  1283.29,   290.74  " /></a><a style="cursor:pointer;" ewd:lineID="31"><path style="stroke:#008837;stroke-width: 5.10 ;&st6;" d=" M  1283.29,   276.01  L  1283.29,   237.48  " /></a><a style="cursor:pointer;" ewd:lineID="32"><path style="stroke:#008837;stroke-width: 5.10 ;&st6;" d=" M  1283.29,   222.75  L  1283.29,   171.76  " /></a><a style="cursor:pointer;" ewd:lineID="33"> d=" M  1342.78,   350.23  L  1342.78,   290.74 
	
		<path style="stroke:#000000;stroke-width: 5.10 ;&st6;" d=" M  1342.78,   350.23  L  1342.78,   290.74  " /><path style="stroke:#FFFFFF;stroke-width: 4.53 ;&st6;" d=" M  1342.78,   350.23  L  1342.78,   290.74  " /></a><a style="cursor:pointer;" ewd:lineID="34"> d=" M  1342.78,   275.72  L  1342.78,   237.76 
	
		<path style="stroke:#000000;stroke-width: 5.10 ;&st6;" d=" M  1342.78,   275.72  L  1342.78,   237.76  " /><path style="stroke:#FFFFFF;stroke-width: 4.53 ;&st6;" d=" M  1342.78,   275.72  L  1342.78,   237.76  " /></a><a style="cursor:pointer;" ewd:lineID="35"> d=" M  1342.78,   222.75  L  1342.78,   171.76 
	
		<path style="stroke:#000000;stroke-width: 5.10 ;&st6;" d=" M  1342.78,   222.75  L  1342.78,   171.76  " /><path style="stroke:#FFFFFF;stroke-width: 4.53 ;&st6;" d=" M  1342.78,   222.75  L  1342.78,   171.76  " /></a><a style="cursor:pointer;" ewd:lineID="36"><path style="stroke:#FF0000;stroke-width: 5.10 ;&st6;" d=" M  1393.77,   458.44  L  1393.77,   596.69  L  1283.29,   596.69  L  1283.29,   537.20  " /></a><a ewd:comment="10" style="cursor:pointer;" ewd:lineID="37"><path style="stroke:#00A0C6;stroke-width: 5.10 ;&st6;" d=" M  1393.77,   443.71  L  1393.77,   435.21  L  1402.27,   426.71  L  1495.75,   426.71  " /></a><a ewd:comment="9" style="cursor:pointer;" ewd:lineID="38"><path style="stroke:#00A0C6;stroke-width: 5.10 ;&st6;" d=" M  1393.77,   350.79  L  1393.77,   443.71  " /></a><a ewd:comment="9" style="cursor:pointer;" ewd:lineID="39"><path style="stroke:#008837;stroke-width: 5.10 ;&st6;" d=" M  1487.25,   197.25  L  1487.25,   205.75  L  1478.75,   214.25  L  1393.77,   214.25  L  1393.77,   298.67  " /></a><a ewd:comment="10" style="cursor:pointer;" ewd:lineID="40"><path style="stroke:#FF0000;stroke-width: 5.10 ;&st6;" d=" M  1487.25,   197.25  L  1487.25,   316.23  " /></a><a style="cursor:pointer;" ewd:lineID="41"><path style="stroke:#FF0000;stroke-width: 5.10 ;&st6;" d=" M  1487.25,   112.27  L  1487.25,   182.52  " /></a><a ewd:comment="10" style="cursor:pointer;" ewd:lineID="42"><path style="stroke:#00A0C6;stroke-width: 5.10 ;&st6;" d=" M  1504.25,   350.23  L  1504.25,   418.22  " /></a><a ewd:figtype="w2w" style="cursor:pointer;" ewd:pinNo="9" ewd:code="EL6" ewd:figID="20"><path style="&st2;" d=" M  1087.82,   282.24  L  1070.82,   282.24  L  1070.82,   290.74  L  1087.82,   290.74  L  1087.82,   282.24 " /><text style="&st8;" transform="matrix(&st16;  1074.24  288.61 )"><tspan x="0" style="font-size:6px;font-family:'NSimSun';" y="0">EL6</tspan></text></a><a ewd:figtype="w2w" style="cursor:pointer;" ewd:pinNo="1" ewd:code="PL1" ewd:figID="21"><path style="&st2;" d=" M  1087.82,   222.75  L  1070.82,   222.75  L  1070.82,   231.25  L  1087.82,   231.25  L  1087.82,   222.75 " /><text style="&st8;" transform="matrix(&st16;  1074.35  229.12 )"><tspan x="0" style="font-size:6px;font-family:'NSimSun';" y="0">PL1</tspan></text></a><a ewd:figtype="w2w" style="cursor:pointer;" ewd:pinNo="22" ewd:code="EL6" ewd:figID="22"><path style="&st2;" d=" M  1172.80,   282.24  L  1155.81,   282.24  L  1155.81,   290.74  L  1172.80,   290.74  L  1172.80,   282.24 " /><text style="&st8;" transform="matrix(&st16;  1159.23  288.61 )"><tspan x="0" style="font-size:6px;font-family:'NSimSun';" y="0">EL6</tspan></text></a><a ewd:figtype="w2w" style="cursor:pointer;" ewd:pinNo="8" ewd:code="PL1" ewd:figID="23"><path style="&st2;" d=" M  1172.80,   222.75  L  1155.81,   222.75  L  1155.81,   231.25  L  1172.80,   231.25  L  1172.80,   222.75 " /><text style="&st8;" transform="matrix(&st16;  1159.34  229.12 )"><tspan x="0" style="font-size:6px;font-family:'NSimSun';" y="0">PL1</tspan></text></a><a ewd:figtype="w2w" style="cursor:pointer;" ewd:pinNo="21" ewd:code="EL6" ewd:figID="24"><path style="&st2;" d=" M  1232.29,   282.24  L  1215.30,   282.24  L  1215.30,   290.74  L  1232.29,   290.74  L  1232.29,   282.24 " /><text style="&st8;" transform="matrix(&st16;  1218.72  288.61 )"><tspan x="0" style="font-size:6px;font-family:'NSimSun';" y="0">EL6</tspan></text></a><a ewd:figtype="w2w" style="cursor:pointer;" ewd:pinNo="7" ewd:code="PL1" ewd:figID="25"><path style="&st2;" d=" M  1232.29,   222.75  L  1215.30,   222.75  L  1215.30,   231.25  L  1232.29,   231.25  L  1232.29,   222.75 " /><text style="&st8;" transform="matrix(&st16;  1218.83  229.12 )"><tspan x="0" style="font-size:6px;font-family:'NSimSun';" y="0">PL1</tspan></text></a><a ewd:figtype="w2w" style="cursor:pointer;" ewd:pinNo="20" ewd:code="EL6" ewd:figID="26"><path style="&st2;" d=" M  1291.78,   282.24  L  1274.79,   282.24  L  1274.79,   290.74  L  1291.78,   290.74  L  1291.78,   282.24 " /><text style="&st8;" transform="matrix(&st16;  1278.21  288.61 )"><tspan x="0" style="font-size:6px;font-family:'NSimSun';" y="0">EL6</tspan></text></a><a ewd:figtype="w2w" style="cursor:pointer;" ewd:pinNo="6" ewd:code="PL1" ewd:figID="27"><path style="&st2;" d=" M  1291.78,   222.75  L  1274.79,   222.75  L  1274.79,   231.25  L  1291.78,   231.25  L  1291.78,   222.75 " /><text style="&st8;" transform="matrix(&st16;  1278.32  229.12 )"><tspan x="0" style="font-size:6px;font-family:'NSimSun';" y="0">PL1</tspan></text></a><a ewd:figtype="w2w" style="cursor:pointer;" ewd:pinNo="19" ewd:code="EL6" ewd:figID="28"><path style="&st2;" d=" M  1351.27,   282.24  L  1334.28,   282.24  L  1334.28,   290.74  L  1351.27,   290.74  L  1351.27,   282.24 " /><text style="&st8;" transform="matrix(&st16;  1337.7  288.61 )"><tspan x="0" style="font-size:6px;font-family:'NSimSun';" y="0">EL6</tspan></text></a><a ewd:figtype="w2w" style="cursor:pointer;" ewd:pinNo="5" ewd:code="PL1" ewd:figID="29"><path style="&st2;" d=" M  1351.27,   222.75  L  1334.28,   222.75  L  1334.28,   231.25  L  1351.27,   231.25  L  1351.27,   222.75 " /><text style="&st8;" transform="matrix(&st16;  1337.81  229.12 )"><tspan x="0" style="font-size:6px;font-family:'NSimSun';" y="0">PL1</tspan></text></a><a ewd:figtype="w2w" style="cursor:pointer;" ewd:pinNo="12" ewd:code="BA2" ewd:figID="30"><path style="&st2;" d=" M  1402.27,   443.71  L  1385.27,   443.71  L  1385.27,   452.21  L  1402.27,   452.21  L  1402.27,   443.71 " /><text style="&st8;" transform="matrix(&st16;  1388.39  450.08 )"><tspan x="0" style="font-size:6px;font-family:'NSimSun';" y="0">BA2</tspan></text></a><a ewd:figtype="w2w" style="cursor:pointer;" ewd:pinNo="10" ewd:code="BA2" ewd:figID="31"><path style="&st2;" d=" M  1495.75,   188.75  L  1478.75,   188.75  L  1478.75,   197.25  L  1495.75,   197.25  L  1495.75,   188.75 " /><text style="&st8;" transform="matrix(&st16;  1481.87  195.12 )"><tspan x="0" style="font-size:6px;font-family:'NSimSun';" y="0">BA2</tspan></text></a><a ewd:figtype="gp" style="cursor:pointer;" ewd:code="EB" ewd:figID="32"><path style="&st2;" d=" M   771.25,   681.67  L   792.49,   681.67  L   781.87,   697.25  L   771.25,   681.67 " /><text style="&st8;" transform="matrix(&st16;  778.18  689.46 )"><tspan x="0" style="font-size:6px;font-family:'NSimSun';" y="0">EB</tspan></text></a><a ewd:figtype="sp" style="cursor:pointer;" ewd:code="SP40" ewd:figID="33"><path style="&st2;" d=" M  1219.55,    35.78  L  1228.04,    35.78  L  1232.29,    40.03  L  1232.29,    48.53  L  1228.04,    52.78  L  1219.55,    52.78  L  1215.30,    48.53  L  1215.30,    40.03  L  1219.55,    35.78 " /></a><a ewd:figtype="sp" style="cursor:pointer;" ewd:code="SP43" ewd:figID="34"><path style="&st2;" d=" M  1500.00,   418.22  L  1508.50,   418.22  L  1512.75,   422.46  L  1512.75,   430.96  L  1508.50,   435.21  L  1500.00,   435.21  L  1495.75,   430.96  L  1495.75,   422.46  L  1500.00,   418.22 " /></a></g></svg>