<?xml version="1.0" encoding="utf-8"?>
<!DOCTYPE svg PUBLIC "-//W3C//DTD SVG 1.0//EN" "http://www.w3.org/TR/2001/REC-SVG-20010904/DTD/svg10.dtd"[
	<!ENTITY ns_flows "http://ns.adobe.com/Flows/1.0/">
	<!ENTITY ns_svg "http://www.w3.org/2000/svg">
	<!ENTITY ns_xlink "http://www.w3.org/1999/xlink">
	<!ENTITY st0 "font-size:7px;font-family:'NSimSun';adobe-font-script:japanese;">
	<!ENTITY st1 "font-size:6px;font-family:'NSimSun';">
	<!-- White fill  -->
	<!ENTITY st2 "fill:#FFFFFF;stroke:#000000; stroke-width:1.41;stroke-linecap:round;stroke-linejoin:round;">
	<!-- Yellow fill  -->
	<!ENTITY st3 "fill:#FFFFCC;stroke:#FFFFCC; stroke-width:0.1;stroke-linecap:round;stroke-linejoin:round;">
	<!-- Gray fill  -->
	<!ENTITY st4 "fill:#CCCCCC;stroke:#CCCCCC; stroke-width:0.1;stroke-linecap:round;stroke-linejoin:round;">
	<!-- Light-blue fill -->
	<!ENTITY st5 "fill:#CCECF4;stroke:#000000; stroke-width:1.133;stroke-linecap:round;stroke-linejoin:round;">
	<!ENTITY st6 "fill:none;stroke-linecap:butt; stroke-linejoin:round;">
	<!ENTITY st7 "fill:none;stroke:#000000;stroke-linecap:round;stroke-linejoin:round;">
	<!ENTITY st8 "enable-background:new    ;">
	<!-- Black fill -->
	<!ENTITY st9 "fill:#000000;stroke:#000000; stroke-linecap:round;stroke-linejoin:round;">
	<!-- SRS note   -->
	<!ENTITY st10 "font-size:9px;font-family:'NSimSun';">
	<!ENTITY st11 "font-size:9px;font-family:'NSimSun';">
	<!ENTITY st12 "font-size:6px;font-family:'NSimSun';">
	<!ENTITY st13 "fill:none;stroke:#ff0000;stroke-linecap:round;stroke-linejoin:round;">
	<!-- Yellow fill  -->
	<!ENTITY st14 "fill:#FFFF00;stroke:#FFFF00; stroke-width:0.1;stroke-linecap:round;stroke-linejoin:round;">
	<!ENTITY st15 "font-size:6px;font-family:'NSimSun';adobe-font-script:japanese;">
	<!ENTITY st16 "1.00 0.00 0.00 1.00">
	<!ENTITY st17 "0.00 -1.00 1.00 0.00">
	<!ENTITY st18 "font-size:6px;font-family:'NSimSun';">
	<!ENTITY st19 "font-size:9px;font-family:'NSimSun';">
	<!ENTITY st20 "font-size:6px;font-family:'NSimSun';adobe-font-script:japanese;">
	<!ENTITY st21 "font-size:7px;font-family:'NSimSun';adobe-font-script:japanese;">
	<!ATTLIST svg
		xmlns:ewd CDATA #FIXED "http://shcl.co.jp/ewd"
		xmlns:a CDATA #FIXED "http://ns.adobe.com/AdobeSVGViewerExtensions/3.0/"
		ewd:ver CDATA #IMPLIED
	>
	<!ATTLIST a
		ewd:lineID CDATA #IMPLIED
		ewd:groupID CDATA #IMPLIED
		ewd:figtype CDATA #IMPLIED
		ewd:code CDATA #IMPLIED
		ewd:figID CDATA #IMPLIED
		ewd:pinNo CDATA #IMPLIED
		ewd:comment CDATA #IMPLIED >
	<!ATTLIST g
		ewd:lineID CDATA #IMPLIED
		ewd:groupID CDATA #IMPLIED
		ewd:figtype CDATA #IMPLIED
		ewd:code CDATA #IMPLIED
		ewd:figID CDATA #IMPLIED
		ewd:pinNo CDATA #IMPLIED
		ewd:comment CDATA #IMPLIED >
	<!ATTLIST text
		ewd:textID CDATA #IMPLIED
		ewd:horAlign CDATA #IMPLIED >
	<!ATTLIST title
		ewd:textID CDATA #IMPLIED >
]>
<!-- Generator: Shintec Hozumi YS   -->
<svg onload="call_execInitLoadProc_svg('system')" style="overflow:visible;  enable-background:new 0 0 1538.243 710.000" viewBox="0 0 1546.744 710.000" height="710.000" width="1546.744" xml:space="preserve" ewd:ver="2.1.2.6F" xmlns="&ns_svg;" xmlns:ewd="http://shcl.co.jp/ewd" xmlns:a="http://ns.adobe.com/AdobeSVGViewerExtensions/3.0/" xmlns:xlink="&ns_xlink;">
<path style="stroke-width: 1.42 ;&st7;  " d=" M  1274.79,   282.24  L  1283.29,   282.24  " /><path style="stroke-width: 1.42 ;&st7;  " d=" M  1291.78,   231.25  L  1283.29,   231.25  " /><path style="stroke-width: 1.42 ;&st7;  " d=" M  1215.30,   282.24  L  1223.80,   282.24  " /><path style="stroke-width: 1.42 ;&st7;  " d=" M  1155.81,   282.24  L  1164.31,   282.24  " /><path style="stroke-width: 1.42 ;&st7;  " d=" M  1070.82,   282.24  L  1079.32,   282.24  " /><path style="stroke-width: 1.42 ;&st7;  " d=" M  1172.80,   231.25  L  1164.31,   231.25  " /><path style="stroke-width: 1.42 ;&st7;  " d=" M  1232.29,   231.25  L  1223.80,   231.25  " /><path style="stroke-width: 1.42 ;&st7;  " d=" M  1087.82,   231.25  L  1079.32,   231.25  " /><path style="stroke-width: 1.42 ;&st7;  " d=" M  1334.28,   282.24  L  1342.78,   282.24  " /><path style="stroke-width: 1.42 ;&st7;  " d=" M  1351.27,   231.25  L  1342.78,   231.25  " /><path style="stroke-width: 1.42 ;&st7;  " d=" M  1232.29,    40.75  L  1227.32,    35.78  " /><path style="stroke-width: 1.42 ;&st7;  " d=" M  1215.30,    47.81  L  1220.27,    52.78  " /><path style="stroke-width: 1.42 ;&st7;  " d=" M  1227.32,    52.78  L  1232.29,    47.81  " /><path style="stroke-width: 1.42 ;&st7;  " d=" M  1220.27,    35.78  L  1215.30,    40.75  " /><text style="font-size:6px;font-family:'NSimSun';" transform="matrix(&st17;  1279.59  318.19 )">G</text><text style="font-size:6px;font-family:'NSimSun';" transform="matrix(&st17;  1339.08  318.7 )">W</text><text style="font-size:6px;font-family:'NSimSun';" transform="matrix(&st17;  1279.59  445.32 )">R</text><text style="font-size:6px;font-family:'NSimSun';" transform="matrix(&st17;  1279.59  203.46 )">G</text><text style="font-size:6px;font-family:'NSimSun';" transform="matrix(&st17;  1279.59  258.7 )">G</text><text style="font-size:6px;font-family:'NSimSun';" transform="matrix(&st17;  1075.62  260.29 )">BR</text><text style="font-size:6px;font-family:'NSimSun';" transform="matrix(&st17;  1220.1  258.55 )">V</text><text style="font-size:6px;font-family:'NSimSun';" transform="matrix(&st17;  1160.61  258.24 )">P</text><text style="font-size:6px;font-family:'NSimSun';" transform="matrix(&st17;  1160.61  203.0 )">P</text><text style="font-size:6px;font-family:'NSimSun';" transform="matrix(&st17;  1220.1  203.31 )">V</text><text style="font-size:6px;font-family:'NSimSun';" transform="matrix(&st17;  1160.61  317.73 )">P</text><text style="font-size:6px;font-family:'NSimSun';" transform="matrix(&st17;  1220.1  318.04 )">V</text><text style="font-size:6px;font-family:'NSimSun';" transform="matrix(&st17;  1075.62  205.05 )">BR</text><text style="font-size:6px;font-family:'NSimSun';" transform="matrix(&st17;  1075.62  319.78 )">BR</text><text style="font-size:6px;font-family:'NSimSun';" transform="matrix(&st17;  1339.08  203.97 )">W</text><text style="font-size:6px;font-family:'NSimSun';" transform="matrix(&st17;  1339.08  259.21 )">W</text><text style="font-size:6px;font-family:'NSimSun';" transform="matrix(&st16;  1075.91  407.44 )" ewd:textID="4">间隙警告 ECU 总成</text><text style="font-size:6px;font-family:'NSimSun';" transform="matrix(&st17;  1160.61  98.82 )">BR</text><text style="font-size:6px;font-family:'NSimSun';" transform="matrix(&st17;  1220.1  98.82 )">BR</text><text style="font-size:6px;font-family:'NSimSun';" transform="matrix(&st17;  1279.59  98.82 )">BR</text><text style="font-size:6px;font-family:'NSimSun';" transform="matrix(&st17;  1339.08  98.82 )">BR</text><path style="stroke-width: 1.42 ;&st7;  " d=" M  1500.72,   418.22  L  1495.75,   423.19  " /><path style="stroke-width: 1.42 ;&st7;  " d=" M  1495.75,   430.24  L  1500.72,   435.21  " /><path style="stroke-width: 1.42 ;&st7;  " d=" M  1478.75,   188.75  L  1487.25,   188.75  " /><path style="stroke-width: 1.42 ;&st7;  " d=" M  1402.27,   452.21  L  1393.77,   452.21  " /><text style="font-size:6px;font-family:'NSimSun';" transform="matrix(&st16;  1421.0  434.35 )">(*10)</text><text style="font-size:6px;font-family:'NSimSun';" transform="matrix(&st17;  1390.07  496.31 )">R</text><text style="font-size:6px;font-family:'NSimSun';" transform="matrix(&st17;  1401.4  261.46 )">(*9)</text><text style="font-size:6px;font-family:'NSimSun';" transform="matrix(&st17;  1390.07  258.7 )">G</text><text style="font-size:6px;font-family:'NSimSun';" transform="matrix(&st17;  1494.89  263.01 )">(*10)</text><text style="font-size:6px;font-family:'NSimSun';" transform="matrix(&st17;  1483.56  147.87 )">R</text><text style="font-size:6px;font-family:'NSimSun';" transform="matrix(&st17;  1483.56  258.35 )">R</text><text style="font-size:6px;font-family:'NSimSun';" transform="matrix(&st17;  1279.59  572.8 )">R</text><text style="font-size:6px;font-family:'NSimSun';" transform="matrix(&st17;  1401.4  405.93 )">(*9)</text><text style="font-size:6px;font-family:'NSimSun';" transform="matrix(&st17;  1390.07  402.79 )">L</text><text style="font-size:6px;font-family:'NSimSun';" transform="matrix(&st16;  1425.69  423.02 )">L</text><text style="font-size:6px;font-family:'NSimSun';" transform="matrix(&st16;  1075.91  400.33 )">E63</text><g ewd:figtype="conn" ewd:figID="3" ewd:code="B6"><path style="stroke-width: 0.85 ;&st7;  " d=" M  1393.77,   311.98  L  1393.77,   307.73  " /><path style="stroke-width: 0.85 ;&st7;  " d=" M  1393.77,   341.73  L  1393.77,   337.48  " /><path style="stroke-width: 1.42 ;&st7;  " d=" M  1393.77,   334.65  L  1399.43,   311.98  " /><path style="stroke-width: 0.85 ;&st7;   " d=" M  1395.18,   313.40  C  1395.18    312.62   1394.55    311.98   1393.77    311.98  " /><path style="stroke-width: 0.85 ;&st7;   " d=" M  1393.77,   311.98  C  1392.98    311.98   1392.35    312.62   1392.35    313.40  " /><path style="stroke-width: 0.85 ;&st7;   " d=" M  1392.35,   313.40  C  1392.35    314.18   1392.98    314.82   1393.77    314.82  " /><path style="stroke-width: 0.85 ;&st7;   " d=" M  1393.77,   314.82  C  1394.55    314.82   1395.18    314.18   1395.18    313.40  " /><path style="stroke-width: 0.85 ;&st7;   " d=" M  1395.18,   336.06  C  1395.18    335.28   1394.55    334.65   1393.77    334.65  " /><path style="stroke-width: 0.85 ;&st7;   " d=" M  1393.77,   334.65  C  1392.98    334.65   1392.35    335.28   1392.35    336.06  " /><path style="stroke-width: 0.85 ;&st7;   " d=" M  1392.35,   336.06  C  1392.35    336.84   1392.98    337.48   1393.77    337.48  " /><path style="stroke-width: 0.85 ;&st7;   " d=" M  1393.77,   337.48  C  1394.55    337.48   1395.18    336.84   1395.18    336.06  " /><path style="stroke-width: 1.42 ;&st7;  " d=" M  1402.27,   341.73  L  1402.27,   307.73  L  1385.27,   307.73  L  1385.27,   341.73  L  1402.27,   341.73  " /><text style="font-size:6px;font-family:'NSimSun';" transform="matrix(&st16;  1385.07  348.23 )">1</text><text style="font-size:6px;font-family:'NSimSun';" transform="matrix(&st16;  1391.46  348.23 )">A</text><path style="stroke-width: 1.42 ;&st7;   " d=" M  1398.30,   346.26  C  1398.30    343.76   1396.27    341.73   1393.77    341.73  " /><path style="stroke-width: 1.42 ;&st7;   " d=" M  1393.77,   341.73  C  1391.26    341.73   1389.23    343.76   1389.23    346.26  " /><path style="stroke-width: 1.42 ;&st7;   " d=" M  1389.23,   346.26  C  1389.23    348.76   1391.26    350.79   1393.77    350.79  " /><path style="stroke-width: 1.42 ;&st7;   " d=" M  1393.77,   350.79  C  1396.27    350.79   1398.30    348.76   1398.30    346.26  " /><text style="font-size:6px;font-family:'NSimSun';" transform="matrix(&st16;  1385.07  305.17 )">2</text><text style="font-size:6px;font-family:'NSimSun';" transform="matrix(&st16;  1391.46  305.17 )">A</text><path style="stroke-width: 1.42 ;&st7;   " d=" M  1398.30,   303.20  C  1398.30    300.70   1396.27    298.67   1393.77    298.67  " /><path style="stroke-width: 1.42 ;&st7;   " d=" M  1393.77,   298.67  C  1391.26    298.67   1389.23    300.70   1389.23    303.20  " /><path style="stroke-width: 1.42 ;&st7;   " d=" M  1389.23,   303.20  C  1389.23    305.70   1391.26    307.73   1393.77    307.73  " /><path style="stroke-width: 1.42 ;&st7;   " d=" M  1393.77,   307.73  C  1396.27    307.73   1398.30    305.70   1398.30    303.20  " /><g ewd:figtype="title"><text style="font-size:6px;font-family:'NSimSun';" transform="matrix(&st17;  1381.57  344.63 )" ewd:textID="1">倒车灯开关总成</text><text style="font-size:6px;font-family:'NSimSun';" transform="matrix(&st17;  1374.75  344.63 )">B6(A)</text></g></g><g ewd:figtype="conn" ewd:figID="4" ewd:code="B15"><path style="stroke-width: 0.85 ;&st7;   " d=" M  1488.67,   341.73  C  1488.67    340.95   1488.03    340.31   1487.25    340.31  " /><path style="stroke-width: 0.85 ;&st7;   " d=" M  1487.25,   340.31  C  1486.47    340.31   1485.84    340.95   1485.84    341.73  " /><path style="stroke-width: 0.85 ;&st7;   " d=" M  1485.84,   341.73  C  1485.84    342.51   1486.47    343.14   1487.25    343.14  " /><path style="stroke-width: 0.85 ;&st7;   " d=" M  1487.25,   343.14  C  1488.03    343.14   1488.67    342.51   1488.67    341.73  " /><path style="stroke-width: 0.85 ;&st7;   " d=" M  1505.67,   341.73  C  1505.67    340.95   1505.03    340.31   1504.25    340.31  " /><path style="stroke-width: 0.85 ;&st7;   " d=" M  1504.25,   340.31  C  1503.47    340.31   1502.83    340.95   1502.83    341.73  " /><path style="stroke-width: 0.85 ;&st7;   " d=" M  1502.83,   341.73  C  1502.83    342.51   1503.47    343.14   1504.25    343.14  " /><path style="stroke-width: 0.85 ;&st7;   " d=" M  1504.25,   343.14  C  1505.03    343.14   1505.67    342.51   1505.67    341.73  " /><path style="stroke-width: 1.42 ;&st7;  " d=" M  1461.76,   316.23  L  1461.76,   350.23  L  1512.75,   350.23  L  1512.75,   316.23  L  1461.76,   316.23  " /><path style="stroke-width: 0.85 ;&st7;  " d=" M  1478.75,   350.23  L  1478.75,   316.23  " /><path style="stroke-width: 0.85 ;&st7;  " d=" M  1495.75,   350.23  L  1495.75,   316.23  " /><path style="stroke-width: 0.85 ;&st7;  " d=" M  1488.67,   341.73  L  1502.83,   341.73  " /><path style="stroke-width: 0.85 ;&st7;  " d=" M  1461.76,   333.23  L  1512.75,   333.23  " /><text style="font-size:6px;font-family:'NSimSun';" transform="matrix(&st16;  1500.32  326.7 )">RL</text><text style="font-size:6px;font-family:'NSimSun';" transform="matrix(&st16;  1468.14  343.7 )">R</text><text style="font-size:6px;font-family:'NSimSun';" transform="matrix(&st16;  1483.2  326.7 )">RB</text><text style="font-size:6px;font-family:'NSimSun';" transform="matrix(&st16;  1481.07  312.54 )">1</text><text style="font-size:6px;font-family:'NSimSun';" transform="matrix(&st16;  1498.06  358.42 )">2</text><g ewd:figtype="title"><text style="font-size:6px;font-family:'NSimSun';" transform="matrix(&st17;  1527.47  348.88 )" ewd:textID="12">驻车/空档位置开关总成</text><text style="font-size:6px;font-family:'NSimSun';" transform="matrix(&st17;  1520.36  348.88 )">B15</text></g></g><g ewd:figtype="conn" ewd:figID="6" ewd:code="E63"><g ewd:lineID="16"><text style="font-size:6px;font-family:'NSimSun';" transform="matrix(&st16;  1070.03  346.54 )">17</text><text style="font-size:6px;font-family:'NSimSun';" transform="matrix(&st16;  1075.66  357.86 )">E1</text></g><g ewd:lineID="18"><text style="font-size:6px;font-family:'NSimSun';" transform="matrix(&st16;  1155.02  346.54 )">18</text><text style="font-size:6px;font-family:'NSimSun';" transform="matrix(&st16;  1160.95  357.86 )">S1</text></g><g ewd:lineID="22"><text style="font-size:6px;font-family:'NSimSun';" transform="matrix(&st16;  1214.51  346.54 )">38</text><text style="font-size:6px;font-family:'NSimSun';" transform="matrix(&st16;  1220.44  357.86 )">S2</text></g><g ewd:lineID="29"><text style="font-size:6px;font-family:'NSimSun';" transform="matrix(&st16;  1274.0  400.91 )">23</text><text style="font-size:6px;font-family:'NSimSun';" transform="matrix(&st16;  1279.35  389.02 )">RL</text></g><g ewd:lineID="30"><text style="font-size:6px;font-family:'NSimSun';" transform="matrix(&st16;  1274.0  346.54 )">40</text><text style="font-size:6px;font-family:'NSimSun';" transform="matrix(&st16;  1279.93  357.86 )">S3</text></g><g ewd:lineID="33"><text style="font-size:6px;font-family:'NSimSun';" transform="matrix(&st16;  1333.49  346.54 )">16</text><text style="font-size:6px;font-family:'NSimSun';" transform="matrix(&st16;  1339.42  357.86 )">S4</text></g></g><g ewd:figtype="conn" ewd:figID="10" ewd:code="P5"><path style="stroke-width: 1.42 ;&st7;  " d=" M  1147.31,   137.76  L  1147.31,   171.76  L  1181.30,   171.76  L  1181.30,   137.76  L  1147.31,   137.76  " /><g ewd:lineID="20"><text style="font-size:6px;font-family:'NSimSun';" transform="matrix(&st16;  1158.12  179.95 )">2</text><text style="font-size:6px;font-family:'NSimSun';" transform="matrix(&st16;  1162.51  168.06 )">S</text></g><g ewd:lineID="21"><text style="font-size:6px;font-family:'NSimSun';" transform="matrix(&st16;  1158.12  134.07 )">1</text><text style="font-size:6px;font-family:'NSimSun';" transform="matrix(&st16;  1162.19  145.4 )">E</text></g><g ewd:figtype="title"><text style="font-size:6px;font-family:'NSimSun';" transform="matrix(&st17;  1188.91  174.66 )">P5</text><text style="font-size:6px;font-family:'NSimSun';" transform="matrix(&st17;  1196.02  174.66 )" ewd:textID="9">右侧 1 号超声波传感器</text></g></g><g ewd:figtype="conn" ewd:figID="11" ewd:code="P8"><path style="stroke-width: 1.42 ;&st7;  " d=" M  1206.80,   137.76  L  1206.80,   171.76  L  1240.79,   171.76  L  1240.79,   137.76  L  1206.80,   137.76  " /><g ewd:lineID="24"><text style="font-size:6px;font-family:'NSimSun';" transform="matrix(&st16;  1217.61  179.95 )">2</text><text style="font-size:6px;font-family:'NSimSun';" transform="matrix(&st16;  1222.0  168.06 )">S</text></g><g ewd:lineID="25"><text style="font-size:6px;font-family:'NSimSun';" transform="matrix(&st16;  1217.61  134.07 )">1</text><text style="font-size:6px;font-family:'NSimSun';" transform="matrix(&st16;  1221.68  145.4 )">E</text></g><g ewd:figtype="title"><text style="font-size:6px;font-family:'NSimSun';" transform="matrix(&st17;  1248.4  174.66 )">P8</text><text style="font-size:6px;font-family:'NSimSun';" transform="matrix(&st17;  1255.51  174.66 )" ewd:textID="8">左侧 1 号超声波传感器</text></g></g><g ewd:figtype="conn" ewd:figID="12" ewd:code="P6"><path style="stroke-width: 1.42 ;&st7;  " d=" M  1266.29,   137.76  L  1266.29,   171.76  L  1300.28,   171.76  L  1300.28,   137.76  L  1266.29,   137.76  " /><g ewd:lineID="28"><text style="font-size:6px;font-family:'NSimSun';" transform="matrix(&st16;  1277.1  134.07 )">1</text><text style="font-size:6px;font-family:'NSimSun';" transform="matrix(&st16;  1281.17  145.4 )">E</text></g><g ewd:lineID="32"><text style="font-size:6px;font-family:'NSimSun';" transform="matrix(&st16;  1277.1  179.95 )">2</text><text style="font-size:6px;font-family:'NSimSun';" transform="matrix(&st16;  1281.49  168.06 )">S</text></g><g ewd:figtype="title"><text style="font-size:6px;font-family:'NSimSun';" transform="matrix(&st17;  1315.0  174.66 )" ewd:textID="7">右侧中央 1 号超声波传感器</text><text style="font-size:6px;font-family:'NSimSun';" transform="matrix(&st17;  1307.89  174.66 )">P6</text></g></g><g ewd:figtype="conn" ewd:figID="13" ewd:code="P7"><path style="stroke-width: 1.42 ;&st7;  " d=" M  1325.78,   137.76  L  1325.78,   171.76  L  1359.77,   171.76  L  1359.77,   137.76  L  1325.78,   137.76  " /><g ewd:lineID="27"><text style="font-size:6px;font-family:'NSimSun';" transform="matrix(&st16;  1336.59  134.07 )">1</text><text style="font-size:6px;font-family:'NSimSun';" transform="matrix(&st16;  1340.67  145.4 )">E</text></g><g ewd:lineID="35"><text style="font-size:6px;font-family:'NSimSun';" transform="matrix(&st16;  1336.59  179.95 )">2</text><text style="font-size:6px;font-family:'NSimSun';" transform="matrix(&st16;  1340.98  168.06 )">S</text></g><g ewd:figtype="title"><text style="font-size:6px;font-family:'NSimSun';" transform="matrix(&st17;  1374.49  174.66 )" ewd:textID="6">左侧中央 1 号超声波传感器</text><text style="font-size:6px;font-family:'NSimSun';" transform="matrix(&st17;  1367.38  174.66 )">P7</text></g></g><g ewd:figtype="jb" ewd:figID="18" ewd:code="3"><path style="stroke-width: 1.42 ;&st7;  " d=" M  1285.41,   486.20  L  1281.16,   486.20  " /><path style="stroke-width: 1.42 ;&st7;  " d=" M  1285.41,   494.70  L  1281.16,   494.70  " /><path style="stroke-width: 1.42 ;&st7;  " d=" M  1285.41,   528.70  L  1281.16,   528.70  " /><path style="stroke-width: 1.42 ;&st7;  " d=" M  1285.41,   537.20  L  1281.16,   537.20  " /><path style="stroke-width: 1.42 ;&st7;   " d=" M  1281.16,   486.20  C  1278.81    486.20   1276.91    488.11   1276.91    490.45  " /><path style="stroke-width: 1.42 ;&st7;   " d=" M  1276.91,   490.45  C  1276.91    492.80   1278.81    494.70   1281.16    494.70  " /><path style="stroke-width: 1.42 ;&st7;   " d=" M  1285.41,   494.70  C  1287.76    494.70   1289.66    492.80   1289.66    490.45  " /><path style="stroke-width: 1.42 ;&st7;   " d=" M  1289.66,   490.45  C  1289.66    488.11   1287.76    486.20   1285.41    486.20  " /><path style="stroke-width: 1.42 ;&st7;   " d=" M  1281.16,   528.70  C  1278.81    528.70   1276.91    530.60   1276.91    532.95  " /><path style="stroke-width: 1.42 ;&st7;   " d=" M  1276.91,   532.95  C  1276.91    535.29   1278.81    537.20   1281.16    537.20  " /><path style="stroke-width: 1.42 ;&st7;   " d=" M  1285.41,   537.20  C  1287.76    537.20   1289.66    535.29   1289.66    532.95  " /><path style="stroke-width: 1.42 ;&st7;   " d=" M  1289.66,   532.95  C  1289.66    530.60   1287.76    528.70   1285.41    528.70  " /><path style="stroke-width: 0.28 ;&st9;  " d=" M  1283.29,   499.60  L  1286.12,   502.43  L  1286.12,   498.18  L  1283.29,   495.35  L  1280.45,   498.18  L  1280.45,   502.43  L  1283.29,   499.60  " /><path style="stroke-width: 0.28 ;&st9;  " d=" M  1283.29,   523.80  L  1280.45,   520.97  L  1280.45,   525.22  L  1283.29,   528.05  L  1286.12,   525.22  L  1286.12,   520.97  L  1283.29,   523.80  " /><path style="stroke-width: 0.85 ;&st7;  " d=" M  1283.29,   528.70  L  1283.29,   494.70  " /><text style="font-size:6px;font-family:'NSimSun';" transform="matrix(&st16;  1279.35  492.42 )">3D</text><text style="font-size:6px;font-family:'NSimSun';" transform="matrix(&st16;  1269.68  492.42 )">21</text><text style="font-size:6px;font-family:'NSimSun';" transform="matrix(&st16;  1279.43  534.92 )">3A</text><text style="font-size:6px;font-family:'NSimSun';" transform="matrix(&st16;  1269.68  534.92 )">41</text></g><g ewd:figtype="jb" ewd:figID="19" ewd:code="3"><path style="stroke-width: 0.85 ;&st7;  " d=" M  1487.25,    69.77  L  1487.25,   103.77  " /><path style="stroke-width: 1.42 ;&st7;  " d=" M  1489.38,   103.77  L  1485.13,   103.77  " /><path style="stroke-width: 1.42 ;&st7;  " d=" M  1489.38,   112.27  L  1485.13,   112.27  " /><path style="stroke-width: 1.42 ;&st7;   " d=" M  1487.25,    47.11  C  1484.51     48.72   1483.60     52.25   1485.21     54.99  " /><path style="stroke-width: 1.42 ;&st7;   " d=" M  1485.21,    54.99  C  1485.73     55.87   1486.37     56.51   1487.25     57.03  " /><path style="stroke-width: 1.42 ;&st7;   " d=" M  1487.25,    66.94  C  1489.99     65.33   1490.90     61.80   1489.29     59.06  " /><path style="stroke-width: 1.42 ;&st7;   " d=" M  1489.29,    59.06  C  1488.77     58.18   1488.13     57.55   1487.25     57.03  " /><path style="stroke-width: 0.85 ;&st7;   " d=" M  1488.67,    45.69  C  1488.67     44.91   1488.03     44.28   1487.25     44.28  " /><path style="stroke-width: 0.85 ;&st7;   " d=" M  1487.25,    44.28  C  1486.47     44.28   1485.84     44.91   1485.84     45.69  " /><path style="stroke-width: 0.85 ;&st7;   " d=" M  1485.84,    45.69  C  1485.84     46.48   1486.47     47.11   1487.25     47.11  " /><path style="stroke-width: 0.85 ;&st7;   " d=" M  1487.25,    47.11  C  1488.03     47.11   1488.67     46.48   1488.67     45.69  " /><path style="stroke-width: 0.85 ;&st7;   " d=" M  1488.67,    68.36  C  1488.67     67.57   1488.03     66.94   1487.25     66.94  " /><path style="stroke-width: 0.85 ;&st7;   " d=" M  1487.25,    66.94  C  1486.47     66.94   1485.84     67.57   1485.84     68.36  " /><path style="stroke-width: 0.85 ;&st7;   " d=" M  1485.84,    68.36  C  1485.84     69.14   1486.47     69.77   1487.25     69.77  " /><path style="stroke-width: 0.85 ;&st7;   " d=" M  1487.25,    69.77  C  1488.03     69.77   1488.67     69.14   1488.67     68.36  " /><path style="stroke-width: 1.42 ;&st7;   " d=" M  1485.13,   103.77  C  1482.78    103.77   1480.88    105.67   1480.88    108.02  " /><path style="stroke-width: 1.42 ;&st7;   " d=" M  1480.88,   108.02  C  1480.88    110.36   1482.78    112.27   1485.13    112.27  " /><path style="stroke-width: 1.42 ;&st7;   " d=" M  1489.38,   112.27  C  1491.72    112.27   1493.63    110.36   1493.63    108.02  " /><path style="stroke-width: 1.42 ;&st7;   " d=" M  1493.63,   108.02  C  1493.63    105.67   1491.72    103.77   1489.38    103.77  " /><path style="stroke-width: 0.28 ;&st9;  " d=" M  1487.25,    98.87  L  1484.42,    96.04  L  1484.42,   100.29  L  1487.25,   103.12  L  1490.08,   100.29  L  1490.08,    96.04  L  1487.25,    98.87  " /><path style="stroke-width: 1.42 ;&st7;  " d=" M  1474.50,    35.78  L  1474.50,    78.27  L  1500.00,    78.27  L  1500.00,    35.78  L  1474.50,    35.78  " /><text style="font-size:6px;font-family:'NSimSun';" transform="matrix(&st16;  1503.68  53.34 )">7.5A <tspan x="0 " dy="6.0">ECU-IG </tspan><tspan x="0 " dy="6.0">NO.2</tspan></text><text style="font-size:6px;font-family:'NSimSun';" transform="matrix(&st16;  1483.4  109.99 )">3A</text><text style="font-size:6px;font-family:'NSimSun';" transform="matrix(&st16;  1473.64  109.99 )">50</text><text style="font-size:6px;font-family:'NSimSun';" transform="matrix(&st16;  1482.04  32.08 )">(IG)</text><text style="font-size:6px;font-family:'NSimSun';" transform="matrix(&st16;  1481.07  86.47 )">2</text></g><g ewd:figtype="w2w" ewd:figID="20" ewd:code="EL6"><path style="stroke-width: 1.42 ;&st7;  " d=" M  1083.57,   276.57  L  1079.32,   280.82  L  1075.07,   276.57  " /><path style="stroke-width: 1.42 ;&st7;  " d=" M  1075.07,   273.17  L  1079.32,   277.42  L  1083.57,   273.17  " /><text style="font-size:6px;font-family:'NSimSun';" transform="matrix(&st16;  1066.69  288.46 )">9</text></g><g ewd:figtype="w2w" ewd:figID="21" ewd:code="PL1"><path style="stroke-width: 1.42 ;&st7;  " d=" M  1083.57,   240.31  L  1079.32,   236.06  L  1075.07,   240.31  " /><path style="stroke-width: 1.42 ;&st7;  " d=" M  1083.57,   236.91  L  1079.32,   232.66  L  1075.07,   236.91  " /><text style="font-size:6px;font-family:'NSimSun';" transform="matrix(&st16;  1066.69  228.97 )">1</text></g><g ewd:figtype="w2w" ewd:figID="22" ewd:code="EL6"><path style="stroke-width: 1.42 ;&st7;  " d=" M  1168.55,   276.57  L  1164.30,   280.82  L  1160.06,   276.57  " /><path style="stroke-width: 1.42 ;&st7;  " d=" M  1160.06,   273.17  L  1164.30,   277.42  L  1168.55,   273.17  " /><text style="font-size:6px;font-family:'NSimSun';" transform="matrix(&st16;  1148.57  288.46 )">22</text></g><g ewd:figtype="w2w" ewd:figID="23" ewd:code="PL1"><path style="stroke-width: 1.42 ;&st7;  " d=" M  1168.55,   240.31  L  1164.30,   236.06  L  1160.06,   240.31  " /><path style="stroke-width: 1.42 ;&st7;  " d=" M  1168.55,   236.91  L  1164.30,   232.66  L  1160.06,   236.91  " /><text style="font-size:6px;font-family:'NSimSun';" transform="matrix(&st16;  1151.67  228.97 )">8</text></g><g ewd:figtype="w2w" ewd:figID="24" ewd:code="EL6"><path style="stroke-width: 1.42 ;&st7;  " d=" M  1228.04,   276.57  L  1223.80,   280.82  L  1219.55,   276.57  " /><path style="stroke-width: 1.42 ;&st7;  " d=" M  1219.55,   273.17  L  1223.80,   277.42  L  1228.04,   273.17  " /><text style="font-size:6px;font-family:'NSimSun';" transform="matrix(&st16;  1208.06  288.46 )">21</text></g><g ewd:figtype="w2w" ewd:figID="25" ewd:code="PL1"><path style="stroke-width: 1.42 ;&st7;  " d=" M  1228.04,   240.31  L  1223.80,   236.06  L  1219.55,   240.31  " /><path style="stroke-width: 1.42 ;&st7;  " d=" M  1228.04,   236.91  L  1223.80,   232.66  L  1219.55,   236.91  " /><text style="font-size:6px;font-family:'NSimSun';" transform="matrix(&st16;  1211.16  228.97 )">7</text></g><g ewd:figtype="w2w" ewd:figID="26" ewd:code="EL6"><path style="stroke-width: 1.42 ;&st7;  " d=" M  1279.04,   273.17  L  1283.29,   277.42  L  1287.53,   273.17  " /><path style="stroke-width: 1.42 ;&st7;  " d=" M  1287.53,   276.57  L  1283.29,   280.82  L  1279.04,   276.57  " /><text style="font-size:6px;font-family:'NSimSun';" transform="matrix(&st16;  1267.55  288.46 )">20</text></g><g ewd:figtype="w2w" ewd:figID="27" ewd:code="PL1"><path style="stroke-width: 1.42 ;&st7;  " d=" M  1287.53,   240.31  L  1283.29,   236.06  L  1279.04,   240.31  " /><path style="stroke-width: 1.42 ;&st7;  " d=" M  1287.53,   236.91  L  1283.29,   232.66  L  1279.04,   236.91  " /><text style="font-size:6px;font-family:'NSimSun';" transform="matrix(&st16;  1270.65  228.97 )">6</text></g><g ewd:figtype="w2w" ewd:figID="28" ewd:code="EL6"><path style="stroke-width: 1.42 ;&st7;  " d=" M  1338.53,   273.17  L  1342.78,   277.42  L  1347.02,   273.17  " /><path style="stroke-width: 1.42 ;&st7;  " d=" M  1347.02,   276.57  L  1342.78,   280.82  L  1338.53,   276.57  " /><text style="font-size:6px;font-family:'NSimSun';" transform="matrix(&st16;  1327.04  288.46 )">19</text></g><g ewd:figtype="w2w" ewd:figID="29" ewd:code="PL1"><path style="stroke-width: 1.42 ;&st7;  " d=" M  1347.02,   240.31  L  1342.78,   236.06  L  1338.53,   240.31  " /><path style="stroke-width: 1.42 ;&st7;  " d=" M  1347.02,   236.91  L  1342.78,   232.66  L  1338.53,   236.91  " /><text style="font-size:6px;font-family:'NSimSun';" transform="matrix(&st16;  1330.14  228.97 )">5</text></g><g ewd:figtype="w2w" ewd:figID="30" ewd:code="BA2"><path style="stroke-width: 1.42 ;&st7;  " d=" M  1398.02,   461.27  L  1393.77,   457.03  L  1389.52,   461.27  " /><path style="stroke-width: 1.42 ;&st7;  " d=" M  1398.02,   457.88  L  1393.77,   453.63  L  1389.52,   457.88  " /><text style="font-size:6px;font-family:'NSimSun';" transform="matrix(&st16;  1378.03  449.93 )">12</text></g><g ewd:figtype="w2w" ewd:figID="31" ewd:code="BA2"><path style="stroke-width: 1.42 ;&st7;  " d=" M  1491.50,   183.09  L  1487.25,   187.34  L  1483.00,   183.09  " /><path style="stroke-width: 1.42 ;&st7;  " d=" M  1483.00,   179.69  L  1487.25,   183.94  L  1491.50,   179.69  " /><text style="font-size:6px;font-family:'NSimSun';" transform="matrix(&st16;  1471.52  194.97 )">10</text></g><g ewd:code="10" ewd:figID="39" ewd:comment="" ewd:figtype="comment"><text style="font-size:6px;font-family:'NSimSun';" transform="matrix(&st16;  1075.91  437.18 )">*10 :CVT</text></g><g ewd:code="9" ewd:figID="40" ewd:comment="" ewd:figtype="comment"><text style="font-size:6px;font-family:'NSimSun';" transform="matrix(&st16;  1075.91  428.68 )">* 9 :M/T</text></g></svg>