<?xml version="1.0" encoding="utf-8"?>
<!DOCTYPE svg PUBLIC "-//W3C//DTD SVG 1.0//EN" "http://www.w3.org/TR/2001/REC-SVG-20010904/DTD/svg10.dtd"[
	<!ENTITY ns_flows "http://ns.adobe.com/Flows/1.0/">
	<!ENTITY ns_svg "http://www.w3.org/2000/svg">
	<!ENTITY ns_xlink "http://www.w3.org/1999/xlink">
	<!ENTITY st0 "font-size:7px;font-family:'NSimSun';adobe-font-script:japanese;">
	<!ENTITY st1 "font-size:6px;font-family:'NSimSun';">
	<!-- White fill  -->
	<!ENTITY st2 "fill:#FFFFFF;stroke:#000000; stroke-width:1.41;stroke-linecap:round;stroke-linejoin:round;">
	<!-- Yellow fill  -->
	<!ENTITY st3 "fill:#FFFFCC;stroke:#FFFFCC; stroke-width:0.1;stroke-linecap:round;stroke-linejoin:round;">
	<!-- Gray fill  -->
	<!ENTITY st4 "fill:#CCCCCC;stroke:#CCCCCC; stroke-width:0.1;stroke-linecap:round;stroke-linejoin:round;">
	<!-- Light-blue fill -->
	<!ENTITY st5 "fill:#CCECF4;stroke:#000000; stroke-width:1.133;stroke-linecap:round;stroke-linejoin:round;">
	<!ENTITY st6 "fill:none;stroke-linecap:butt; stroke-linejoin:round;">
	<!ENTITY st7 "fill:none;stroke:#000000;stroke-linecap:round;stroke-linejoin:round;">
	<!ENTITY st8 "enable-background:new    ;">
	<!-- Black fill -->
	<!ENTITY st9 "fill:#000000;stroke:#000000; stroke-linecap:round;stroke-linejoin:round;">
	<!-- SRS note   -->
	<!ENTITY st10 "font-size:9px;font-family:'NSimSun';">
	<!ENTITY st11 "font-size:9px;font-family:'NSimSun';">
	<!ENTITY st12 "font-size:6px;font-family:'NSimSun';">
	<!ENTITY st13 "fill:none;stroke:#ff0000;stroke-linecap:round;stroke-linejoin:round;">
	<!-- Yellow fill  -->
	<!ENTITY st14 "fill:#FFFF00;stroke:#FFFF00; stroke-width:0.1;stroke-linecap:round;stroke-linejoin:round;">
	<!ENTITY st15 "font-size:6px;font-family:'NSimSun';adobe-font-script:japanese;">
	<!ENTITY st16 "1.00 0.00 0.00 1.00">
	<!ENTITY st17 "0.00 -1.00 1.00 0.00">
	<!ENTITY st18 "font-size:6px;font-family:'NSimSun';">
	<!ENTITY st19 "font-size:9px;font-family:'NSimSun';">
	<!ENTITY st20 "font-size:6px;font-family:'NSimSun';adobe-font-script:japanese;">
	<!ENTITY st21 "font-size:7px;font-family:'NSimSun';adobe-font-script:japanese;">
	<!ATTLIST svg
		xmlns:ewd CDATA #FIXED "http://shcl.co.jp/ewd"
		xmlns:a CDATA #FIXED "http://ns.adobe.com/AdobeSVGViewerExtensions/3.0/"
		ewd:ver CDATA #IMPLIED
	>
	<!ATTLIST a
		ewd:lineID CDATA #IMPLIED
		ewd:groupID CDATA #IMPLIED
		ewd:figtype CDATA #IMPLIED
		ewd:code CDATA #IMPLIED
		ewd:figID CDATA #IMPLIED
		ewd:pinNo CDATA #IMPLIED
		ewd:comment CDATA #IMPLIED >
	<!ATTLIST g
		ewd:lineID CDATA #IMPLIED
		ewd:groupID CDATA #IMPLIED
		ewd:figtype CDATA #IMPLIED
		ewd:code CDATA #IMPLIED
		ewd:figID CDATA #IMPLIED
		ewd:pinNo CDATA #IMPLIED
		ewd:comment CDATA #IMPLIED >
	<!ATTLIST text
		ewd:textID CDATA #IMPLIED
		ewd:horAlign CDATA #IMPLIED >
	<!ATTLIST title
		ewd:textID CDATA #IMPLIED >
]>
<!-- Generator: Shintec Hozumi YS   -->
<svg onload="call_execInitLoadProc_svg('system')" style="overflow:visible;  enable-background:new 0 0 2043.031 710.000" viewBox="0 0 2047.151 710.000" height="710.000" width="2047.151" xml:space="preserve" ewd:ver="2.1.2.6F" xmlns="&ns_svg;" xmlns:ewd="http://shcl.co.jp/ewd" xmlns:a="http://ns.adobe.com/AdobeSVGViewerExtensions/3.0/" xmlns:xlink="&ns_xlink;">
<text style="font-size:6px;font-family:'NSimSun';" transform="matrix(&st16;  1312.07  374.86 )">(*5)</text><text style="font-size:6px;font-family:'NSimSun';" transform="matrix(&st16;  1315.29  363.53 )">P</text><text style="font-size:6px;font-family:'NSimSun';" transform="matrix(&st16;  1388.55  391.86 )">(*5)</text><text style="font-size:6px;font-family:'NSimSun';" transform="matrix(&st16;  1389.45  380.52 )">GR</text><text style="font-size:6px;font-family:'NSimSun';" transform="matrix(&st17;  1205.94  371.94 )">(*5)</text><text style="font-size:6px;font-family:'NSimSun';" transform="matrix(&st17;  1194.6  371.01 )">LG</text><text style="font-size:6px;font-family:'NSimSun';" transform="matrix(&st17;  1154.94  371.94 )">(*5)</text><text style="font-size:6px;font-family:'NSimSun';" transform="matrix(&st17;  1339.08  649.38 )">W-B</text><text style="font-size:6px;font-family:'NSimSun';" transform="matrix(&st17;  1143.61  368.91 )">B</text><text style="font-size:6px;font-family:'NSimSun';" transform="matrix(&st16;  1055.29  312.54 )">L(*5)</text><text style="font-size:6px;font-family:'NSimSun';" transform="matrix(&st16;  1055.17  295.54 )">Y(*5)</text><text style="font-size:6px;font-family:'NSimSun';" transform="matrix(&st16;  1004.18  295.54 )">Y(*5)</text><text style="font-size:6px;font-family:'NSimSun';" transform="matrix(&st17;  1228.6  543.15 )">W-B</text><text style="font-size:6px;font-family:'NSimSun';" transform="matrix(&st17;  1339.08  517.65 )">W-B</text><text style="font-size:6px;font-family:'NSimSun';" transform="matrix(&st16;  1004.3  312.54 )">L(*5)</text><text style="font-size:6px;font-family:'NSimSun';" transform="matrix(&st17;  1126.62  283.93 )">B</text><text style="font-size:6px;font-family:'NSimSun';" transform="matrix(&st17;  1137.95  286.95 )">(*6)</text><text style="font-size:6px;font-family:'NSimSun';" transform="matrix(&st17;  1177.61  286.02 )">LG</text><text style="font-size:6px;font-family:'NSimSun';" transform="matrix(&st17;  1188.94  286.95 )">(*6)</text><text style="font-size:6px;font-family:'NSimSun';" transform="matrix(&st17;  1279.59  283.73 )">P</text><text style="font-size:6px;font-family:'NSimSun';" transform="matrix(&st17;  1290.92  286.95 )">(*6)</text><text style="font-size:6px;font-family:'NSimSun';" transform="matrix(&st17;  1339.08  286.06 )">GR</text><text style="font-size:6px;font-family:'NSimSun';" transform="matrix(&st17;  1350.41  286.95 )">(*6)</text><text style="font-size:6px;font-family:'NSimSun';" transform="matrix(&st16;  1084.41  50.47 )">E55(A),E59(B)</text><text style="font-size:6px;font-family:'NSimSun';" transform="matrix(&st16;  1084.41  57.58 )" ewd:textID="6">组合仪表总成</text><text style="font-size:6px;font-family:'NSimSun';" transform="matrix(&st17;  1492.05  126.51 )">P</text><text style="font-size:6px;font-family:'NSimSun';" transform="matrix(&st17;  1418.4  129.73 )">(*5)</text><text style="font-size:6px;font-family:'NSimSun';" transform="matrix(&st17;  1407.07  126.7 )">B</text><g ewd:figtype="conn" ewd:figID="3" ewd:code="E71"><path style="stroke-width: 1.42 ;&st7;  " d=" M  1223.80,   579.69  L  1351.27,   579.69  L  1351.27,   562.69  L  1223.80,   562.69  L  1223.80,   579.69  " /><path style="stroke-width: 0.85 ;&st7;  " d=" M  1342.78,   579.69  L  1342.78,   562.69  " /><path style="stroke-width: 0.85 ;&st7;  " d=" M  1232.29,   562.69  L  1232.29,   571.19  L  1342.78,   571.19  " /><path style="stroke-width: 0.85 ;&st7;  " d=" M  1341.58,   570.19  L  1341.31,   570.66  L  1341.22,   571.19  L  1341.31,   571.72  L  1341.58,   572.19  L  1342.00,   572.54  L  1342.50,   572.73  L  1343.05,   572.73  L  1343.55,   572.54  L  1343.97,   572.19  L  1344.24,   571.72  L  1344.33,   571.19  L  1344.24,   570.66  L  1343.97,   570.19  L  1343.55,   569.84  L  1343.05,   569.65  L  1342.50,   569.65  L  1342.00,   569.84  L  1341.58,   570.19  L  1341.98,   570.90  L  1341.98,   571.48  L  1342.35,   571.93  L  1342.92,   572.03  L  1343.43,   571.74  L  1343.62,   571.19  L  1343.43,   570.64  L  1342.92,   570.35  L  1342.35,   570.45  L  1342.78,   571.19  " /><text style="font-size:6px;font-family:'NSimSun';" transform="matrix(&st16;  1223.01  559.0 )">16</text><text style="font-size:6px;font-family:'NSimSun';" transform="matrix(&st16;  1333.49  587.88 )">12</text><text style="font-size:6px;font-family:'NSimSun';" transform="matrix(&st16;  1333.49  559.0 )">21</text><g ewd:figtype="title"><text style="font-size:6px;font-family:'NSimSun';" transform="matrix(&st17;  1359.17  582.59 )">E71</text><text style="font-size:6px;font-family:'NSimSun';" transform="matrix(&st17;  1365.99  582.59 )" ewd:textID="13">4 号接线连接器<tspan x="0 " dy="6.0" /></text></g></g><g ewd:figtype="conn" ewd:figID="7" ewd:code="E15"><path style="stroke-width: 0.85 ;&st7;   " d=" M  1131.73,   503.20  C  1131.73    502.42   1131.09    501.78   1130.31    501.78  " /><path style="stroke-width: 0.85 ;&st7;   " d=" M  1130.31,   501.78  C  1129.53    501.78   1128.89    502.42   1128.89    503.20  " /><path style="stroke-width: 0.85 ;&st7;   " d=" M  1128.89,   503.20  C  1128.89    503.98   1129.53    504.62   1130.31    504.62  " /><path style="stroke-width: 0.85 ;&st7;   " d=" M  1130.31,   504.62  C  1131.09    504.62   1131.73    503.98   1131.73    503.20  " /><path style="stroke-width: 0.85 ;&st7;   " d=" M  1233.71,   486.20  C  1233.71    485.42   1233.08    484.79   1232.29    484.79  " /><path style="stroke-width: 0.85 ;&st7;   " d=" M  1232.29,   484.79  C  1231.51    484.79   1230.88    485.42   1230.88    486.20  " /><path style="stroke-width: 0.85 ;&st7;   " d=" M  1230.88,   486.20  C  1230.88    486.99   1231.51    487.62   1232.29    487.62  " /><path style="stroke-width: 0.85 ;&st7;   " d=" M  1232.29,   487.62  C  1233.08    487.62   1233.71    486.99   1233.71    486.20  " /><path style="stroke-width: 0.85 ;&st7;   " d=" M  1284.70,   486.20  C  1284.70    485.42   1284.07    484.79   1283.29    484.79  " /><path style="stroke-width: 0.85 ;&st7;   " d=" M  1283.29,   484.79  C  1282.50    484.79   1281.87    485.42   1281.87    486.20  " /><path style="stroke-width: 0.85 ;&st7;   " d=" M  1281.87,   486.20  C  1281.87    486.99   1282.50    487.62   1283.29    487.62  " /><path style="stroke-width: 0.85 ;&st7;   " d=" M  1283.29,   487.62  C  1284.07    487.62   1284.70    486.99   1284.70    486.20  " /><path style="stroke-width: 0.85 ;&st7;   " d=" M  1233.71,   503.20  C  1233.71    502.42   1233.08    501.78   1232.29    501.78  " /><path style="stroke-width: 0.85 ;&st7;   " d=" M  1232.29,   501.78  C  1231.51    501.78   1230.88    502.42   1230.88    503.20  " /><path style="stroke-width: 0.85 ;&st7;   " d=" M  1230.88,   503.20  C  1230.88    503.98   1231.51    504.62   1232.29    504.62  " /><path style="stroke-width: 0.85 ;&st7;   " d=" M  1232.29,   504.62  C  1233.08    504.62   1233.71    503.98   1233.71    503.20  " /><path style="stroke-width: 0.85 ;&st7;   " d=" M  1284.70,   503.20  C  1284.70    502.42   1284.07    501.78   1283.29    501.78  " /><path style="stroke-width: 0.85 ;&st7;   " d=" M  1283.29,   501.78  C  1282.50    501.78   1281.87    502.42   1281.87    503.20  " /><path style="stroke-width: 0.85 ;&st7;   " d=" M  1281.87,   503.20  C  1281.87    503.98   1282.50    504.62   1283.29    504.62  " /><path style="stroke-width: 0.85 ;&st7;   " d=" M  1283.29,   504.62  C  1284.07    504.62   1284.70    503.98   1284.70    503.20  " /><path style="stroke-width: 0.85 ;&st7;   " d=" M  1233.71,   435.21  C  1233.71    434.43   1233.08    433.80   1232.29    433.80  " /><path style="stroke-width: 0.85 ;&st7;   " d=" M  1232.29,   433.80  C  1231.51    433.80   1230.88    434.43   1230.88    435.21  " /><path style="stroke-width: 0.85 ;&st7;   " d=" M  1230.88,   435.21  C  1230.88    435.99   1231.51    436.63   1232.29    436.63  " /><path style="stroke-width: 0.85 ;&st7;   " d=" M  1232.29,   436.63  C  1233.08    436.63   1233.71    435.99   1233.71    435.21  " /><path style="stroke-width: 0.85 ;&st7;   " d=" M  1182.72,   435.21  C  1182.72    434.43   1182.08    433.80   1181.30    433.80  " /><path style="stroke-width: 0.85 ;&st7;   " d=" M  1181.30,   433.80  C  1180.52    433.80   1179.89    434.43   1179.89    435.21  " /><path style="stroke-width: 0.85 ;&st7;   " d=" M  1179.89,   435.21  C  1179.89    435.99   1180.52    436.63   1181.30    436.63  " /><path style="stroke-width: 0.85 ;&st7;   " d=" M  1181.30,   436.63  C  1182.08    436.63   1182.72    435.99   1182.72    435.21  " /><path style="stroke-width: 0.85 ;&st7;   " d=" M  1131.73,   435.21  C  1131.73    434.43   1131.09    433.80   1130.31    433.80  " /><path style="stroke-width: 0.85 ;&st7;   " d=" M  1130.31,   433.80  C  1129.53    433.80   1128.89    434.43   1128.89    435.21  " /><path style="stroke-width: 0.85 ;&st7;   " d=" M  1128.89,   435.21  C  1128.89    435.99   1129.53    436.63   1130.31    436.63  " /><path style="stroke-width: 0.85 ;&st7;   " d=" M  1130.31,   436.63  C  1131.09    436.63   1131.73    435.99   1131.73    435.21  " /><path style="stroke-width: 0.85 ;&st7;   " d=" M  1182.72,   452.21  C  1182.72    451.43   1182.08    450.79   1181.30    450.79  " /><path style="stroke-width: 0.85 ;&st7;   " d=" M  1181.30,   450.79  C  1180.52    450.79   1179.89    451.43   1179.89    452.21  " /><path style="stroke-width: 0.85 ;&st7;   " d=" M  1179.89,   452.21  C  1179.89    452.99   1180.52    453.63   1181.30    453.63  " /><path style="stroke-width: 0.85 ;&st7;   " d=" M  1181.30,   453.63  C  1182.08    453.63   1182.72    452.99   1182.72    452.21  " /><path style="stroke-width: 0.85 ;&st7;   " d=" M  1233.71,   452.21  C  1233.71    451.43   1233.08    450.79   1232.29    450.79  " /><path style="stroke-width: 0.85 ;&st7;   " d=" M  1232.29,   450.79  C  1231.51    450.79   1230.88    451.43   1230.88    452.21  " /><path style="stroke-width: 0.85 ;&st7;   " d=" M  1230.88,   452.21  C  1230.88    452.99   1231.51    453.63   1232.29    453.63  " /><path style="stroke-width: 0.85 ;&st7;   " d=" M  1232.29,   453.63  C  1233.08    453.63   1233.71    452.99   1233.71    452.21  " /><path style="stroke-width: 0.85 ;&st7;   " d=" M  1233.71,   486.20  C  1233.71    485.42   1233.08    484.79   1232.29    484.79  " /><path style="stroke-width: 0.85 ;&st7;   " d=" M  1232.29,   484.79  C  1231.51    484.79   1230.88    485.42   1230.88    486.20  " /><path style="stroke-width: 0.85 ;&st7;   " d=" M  1230.88,   486.20  C  1230.88    486.99   1231.51    487.62   1232.29    487.62  " /><path style="stroke-width: 0.85 ;&st7;   " d=" M  1232.29,   487.62  C  1233.08    487.62   1233.71    486.99   1233.71    486.20  " /><path style="stroke-width: 0.85 ;&st7;   " d=" M  1284.70,   486.20  C  1284.70    485.42   1284.07    484.79   1283.29    484.79  " /><path style="stroke-width: 0.85 ;&st7;   " d=" M  1283.29,   484.79  C  1282.50    484.79   1281.87    485.42   1281.87    486.20  " /><path style="stroke-width: 0.85 ;&st7;   " d=" M  1281.87,   486.20  C  1281.87    486.99   1282.50    487.62   1283.29    487.62  " /><path style="stroke-width: 0.85 ;&st7;   " d=" M  1283.29,   487.62  C  1284.07    487.62   1284.70    486.99   1284.70    486.20  " /><path style="stroke-width: 0.85 ;&st7;  " d=" M  1131.73,   503.20  L  1230.88,   503.20  " /><path style="stroke-width: 0.85 ;&st7;  " d=" M  1233.71,   486.20  L  1281.87,   486.20  " /><path style="stroke-width: 0.85 ;&st7;  " d=" M  1233.71,   503.20  L  1281.87,   503.20  " /><path style="stroke-width: 0.85 ;&st7;  " d=" M  1182.72,   435.21  L  1230.88,   435.21  " /><path style="stroke-width: 0.85 ;&st7;  " d=" M  1131.73,   435.21  L  1179.89,   435.21  " /><path style="stroke-width: 0.85 ;&st7;  " d=" M  1087.82,   477.71  L  1308.78,   477.71  " /><path style="stroke-width: 0.85 ;&st7;  " d=" M  1087.82,   494.70  L  1308.78,   494.70  " /><path style="stroke-width: 0.85 ;&st7;  " d=" M  1104.81,   409.72  L  1104.81,   511.70  " /><path style="stroke-width: 1.42 ;&st7;  " d=" M  1070.82,   409.72  L  1308.78,   409.72  L  1308.78,   511.70  L  1070.82,   511.70  L  1070.82,   409.72  " /><path style="stroke-width: 0.85 ;&st7;  " d=" M  1087.82,   409.72  L  1087.82,   511.70  " /><path style="stroke-width: 0.85 ;&st7;  " d=" M  1155.81,   409.72  L  1155.81,   511.70  " /><path style="stroke-width: 0.85 ;&st7;  " d=" M  1257.79,   409.72  L  1257.79,   511.70  " /><path style="stroke-width: 0.85 ;&st7;  " d=" M  1206.80,   409.72  L  1206.80,   511.70  " /><path style="stroke-width: 0.85 ;&st7;  " d=" M  1087.82,   426.71  L  1308.78,   426.71  " /><path style="stroke-width: 0.85 ;&st7;  " d=" M  1087.82,   443.71  L  1308.78,   443.71  " /><path style="stroke-width: 0.85 ;&st7;  " d=" M  1182.72,   452.21  L  1230.88,   452.21  " /><path style="stroke-width: 0.85 ;&st7;  " d=" M  1233.71,   486.20  L  1281.87,   486.20  " /><path style="stroke-width: 0.85 ;&st7;  " d=" M  1087.82,   460.71  L  1308.78,   460.71  " /><text style="font-size:6px;font-family:'NSimSun';" transform="matrix(&st16;  1093.28  488.17 )">R'</text><text style="font-size:6px;font-family:'NSimSun';" transform="matrix(&st16;  1094.21  505.17 )">R</text><text style="font-size:6px;font-family:'NSimSun';" transform="matrix(&st16;  1126.03  420.18 )">CR</text><text style="font-size:6px;font-family:'NSimSun';" transform="matrix(&st16;  1094.24  437.18 )">L</text><text style="font-size:6px;font-family:'NSimSun';" transform="matrix(&st16;  1228.36  420.18 )">EL</text><text style="font-size:6px;font-family:'NSimSun';" transform="matrix(&st16;  1177.29  420.18 )">TL</text><text style="font-size:6px;font-family:'NSimSun';" transform="matrix(&st16;  1279.24  420.18 )">TR</text><text style="font-size:6px;font-family:'NSimSun';" transform="matrix(&st16;  1093.31  454.18 )">L'</text><text style="font-size:6px;font-family:'NSimSun';" transform="matrix(&st16;  1094.01  471.18 )">N</text><text style="font-size:6px;font-family:'NSimSun';" transform="matrix(&st17;  1081.29  475.77 )" ewd:textID="22">转向开关</text><text style="font-size:6px;font-family:'NSimSun';" transform="matrix(&st16;  1121.02  406.03 )">13</text><text style="font-size:6px;font-family:'NSimSun';" transform="matrix(&st16;  1172.02  406.03 )">11</text><text style="font-size:6px;font-family:'NSimSun';" transform="matrix(&st16;  1223.01  519.89 )">15</text><text style="font-size:6px;font-family:'NSimSun';" transform="matrix(&st16;  1274.0  406.03 )">12</text><g ewd:figtype="title"><text style="font-size:6px;font-family:'NSimSun';" transform="matrix(&st17;  1060.02  514.6 )">E15</text><text style="font-size:6px;font-family:'NSimSun';" transform="matrix(&st17;  1067.13  514.61 )" ewd:textID="11">大灯变光器开关总成</text></g></g><g ewd:figtype="conn" ewd:figID="8" ewd:code="E53"><path style="stroke-width: 0.85 ;&st7;  " d=" M  1342.78,   413.97  L  1342.78,   409.72  " /><path style="stroke-width: 0.85 ;&st7;  " d=" M  1342.78,   443.71  L  1342.78,   439.46  " /><path style="stroke-width: 1.42 ;&st7;  " d=" M  1342.78,   436.63  L  1348.44,   413.97  " /><path style="stroke-width: 0.85 ;&st7;   " d=" M  1344.19,   415.38  C  1344.19    414.60   1343.56    413.97   1342.78    413.97  " /><path style="stroke-width: 0.85 ;&st7;   " d=" M  1342.78,   413.97  C  1341.99    413.97   1341.36    414.60   1341.36    415.38  " /><path style="stroke-width: 0.85 ;&st7;   " d=" M  1341.36,   415.38  C  1341.36    416.16   1341.99    416.80   1342.78    416.80  " /><path style="stroke-width: 0.85 ;&st7;   " d=" M  1342.78,   416.80  C  1343.56    416.80   1344.19    416.16   1344.19    415.38  " /><path style="stroke-width: 0.85 ;&st7;   " d=" M  1344.19,   438.05  C  1344.19    437.26   1343.56    436.63   1342.78    436.63  " /><path style="stroke-width: 0.85 ;&st7;   " d=" M  1342.78,   436.63  C  1341.99    436.63   1341.36    437.26   1341.36    438.05  " /><path style="stroke-width: 0.85 ;&st7;   " d=" M  1341.36,   438.05  C  1341.36    438.83   1341.99    439.46   1342.78    439.46  " /><path style="stroke-width: 0.85 ;&st7;   " d=" M  1342.78,   439.46  C  1343.56    439.46   1344.19    438.83   1344.19    438.05  " /><path style="stroke-width: 1.42 ;&st7;  " d=" M  1351.27,   443.71  L  1351.27,   409.72  L  1334.28,   409.72  L  1334.28,   443.71  L  1351.27,   443.71  " /><text style="font-size:6px;font-family:'NSimSun';" transform="matrix(&st16;  1336.59  451.9 )">1</text><text style="font-size:6px;font-family:'NSimSun';" transform="matrix(&st16;  1336.59  406.03 )">4</text><g ewd:figtype="title"><text style="font-size:6px;font-family:'NSimSun';" transform="matrix(&st17;  1365.99  446.62 )" ewd:textID="8">危险警告信号<tspan x="0 " dy="6.0">开关总成</tspan><tspan x="0 " dy="6.0" /><tspan x="0 " dy="6.0" /><tspan x="0" dy="6" style="font-size:6px;font-family:'NSimSun';" /></text><text style="font-size:6px;font-family:'NSimSun';" transform="matrix(&st17;  1359.17  446.61 )">E53</text></g></g><g ewd:figtype="rb" ewd:figID="14" ewd:code="FUSE17"><path style="stroke-width: 1.42 ;&st7;  " d=" M  1412.89,   103.77  L  1408.64,   103.77  " /><path style="stroke-width: 0.85 ;&st7;  " d=" M  1410.76,    69.77  L  1410.76,    95.27  " /><path style="stroke-width: 1.42 ;&st7;  " d=" M  1412.89,    95.27  L  1408.64,    95.27  " /><path style="stroke-width: 1.42 ;&st7;   " d=" M  1408.64,    95.27  C  1406.29     95.27   1404.39     97.17   1404.39     99.52  " /><path style="stroke-width: 1.42 ;&st7;   " d=" M  1404.39,    99.52  C  1404.39    101.87   1406.29    103.77   1408.64    103.77  " /><path style="stroke-width: 1.42 ;&st7;   " d=" M  1412.89,   103.77  C  1415.24    103.77   1417.14    101.87   1417.14     99.52  " /><path style="stroke-width: 1.42 ;&st7;   " d=" M  1417.14,    99.52  C  1417.14     97.17   1415.24     95.27   1412.89     95.27  " /><path style="stroke-width: 0.28 ;&st9;  " d=" M  1410.76,    90.37  L  1407.93,    87.54  L  1407.93,    91.79  L  1410.76,    94.62  L  1413.60,    91.79  L  1413.60,    87.54  L  1410.76,    90.37  " /><text style="font-size:6px;font-family:'NSimSun';" transform="matrix(&st16;  1404.58  86.47 )">2</text><text style="font-size:6px;font-family:'NSimSun';" transform="matrix(&st16;  1408.96  101.49 )">1</text><text style="font-size:6px;font-family:'NSimSun';" transform="matrix(&st16;  1402.72  32.08 )">(BAT)</text><text style="font-size:6px;font-family:'NSimSun';" transform="matrix(&st16;  1427.19  56.17 )">10A <tspan x="0 " dy="6.0">TURN&amp;HAZ</tspan></text><path style="stroke-width: 1.42 ;&st7;   " d=" M  1410.76,    66.94  C  1413.50     65.33   1414.41     61.80   1412.80     59.06  " /><path style="stroke-width: 1.42 ;&st7;   " d=" M  1412.80,    59.06  C  1412.28     58.18   1411.65     57.55   1410.76     57.03  " /><path style="stroke-width: 0.85 ;&st7;   " d=" M  1412.18,    45.69  C  1412.18     44.91   1411.55     44.28   1410.76     44.28  " /><path style="stroke-width: 0.85 ;&st7;   " d=" M  1410.76,    44.28  C  1409.98     44.28   1409.35     44.91   1409.35     45.69  " /><path style="stroke-width: 0.85 ;&st7;   " d=" M  1409.35,    45.69  C  1409.35     46.48   1409.98     47.11   1410.76     47.11  " /><path style="stroke-width: 0.85 ;&st7;   " d=" M  1410.76,    47.11  C  1411.55     47.11   1412.18     46.48   1412.18     45.69  " /><path style="stroke-width: 0.85 ;&st7;   " d=" M  1412.18,    68.36  C  1412.18     67.57   1411.55     66.94   1410.76     66.94  " /><path style="stroke-width: 0.85 ;&st7;   " d=" M  1410.76,    66.94  C  1409.98     66.94   1409.35     67.57   1409.35     68.36  " /><path style="stroke-width: 0.85 ;&st7;   " d=" M  1409.35,    68.36  C  1409.35     69.14   1409.98     69.77   1410.76     69.77  " /><path style="stroke-width: 0.85 ;&st7;   " d=" M  1410.76,    69.77  C  1411.55     69.77   1412.18     69.14   1412.18     68.36  " /><path style="stroke-width: 1.42 ;&st7;   " d=" M  1410.76,    47.11  C  1408.03     48.72   1407.11     52.25   1408.73     54.99  " /><path style="stroke-width: 1.42 ;&st7;   " d=" M  1408.73,    54.99  C  1409.25     55.87   1409.88     56.51   1410.76     57.03  " /><path style="stroke-width: 1.42 ;&st7;  " d=" M  1398.02,    35.78  L  1398.02,    78.27  L  1423.51,    78.27  L  1423.51,    35.78  L  1398.02,    35.78  " /></g><g ewd:figtype="jb" ewd:figID="25" ewd:code="3"><path style="stroke-width: 0.85 ;&st7;  " d=" M  1495.75,    69.77  L  1495.75,    95.27  " /><path style="stroke-width: 1.42 ;&st7;  " d=" M  1497.87,    95.27  L  1493.63,    95.27  " /><path style="stroke-width: 1.42 ;&st7;  " d=" M  1497.87,   103.77  L  1493.63,   103.77  " /><path style="stroke-width: 1.42 ;&st7;   " d=" M  1495.75,    47.11  C  1493.01     48.72   1492.10     52.25   1493.71     54.99  " /><path style="stroke-width: 1.42 ;&st7;   " d=" M  1493.71,    54.99  C  1494.23     55.87   1494.87     56.51   1495.75     57.03  " /><path style="stroke-width: 1.42 ;&st7;   " d=" M  1495.75,    66.94  C  1498.49     65.33   1499.40     61.80   1497.79     59.06  " /><path style="stroke-width: 1.42 ;&st7;   " d=" M  1497.79,    59.06  C  1497.27     58.18   1496.63     57.55   1495.75     57.03  " /><path style="stroke-width: 0.85 ;&st7;   " d=" M  1497.17,    45.69  C  1497.17     44.91   1496.53     44.28   1495.75     44.28  " /><path style="stroke-width: 0.85 ;&st7;   " d=" M  1495.75,    44.28  C  1494.97     44.28   1494.33     44.91   1494.33     45.69  " /><path style="stroke-width: 0.85 ;&st7;   " d=" M  1494.33,    45.69  C  1494.33     46.48   1494.97     47.11   1495.75     47.11  " /><path style="stroke-width: 0.85 ;&st7;   " d=" M  1495.75,    47.11  C  1496.53     47.11   1497.17     46.48   1497.17     45.69  " /><path style="stroke-width: 0.85 ;&st7;   " d=" M  1497.17,    68.36  C  1497.17     67.57   1496.53     66.94   1495.75     66.94  " /><path style="stroke-width: 0.85 ;&st7;   " d=" M  1495.75,    66.94  C  1494.97     66.94   1494.33     67.57   1494.33     68.36  " /><path style="stroke-width: 0.85 ;&st7;   " d=" M  1494.33,    68.36  C  1494.33     69.14   1494.97     69.77   1495.75     69.77  " /><path style="stroke-width: 0.85 ;&st7;   " d=" M  1495.75,    69.77  C  1496.53     69.77   1497.17     69.14   1497.17     68.36  " /><path style="stroke-width: 1.42 ;&st7;   " d=" M  1493.63,    95.27  C  1491.28     95.27   1489.38     97.17   1489.38     99.52  " /><path style="stroke-width: 1.42 ;&st7;   " d=" M  1489.38,    99.52  C  1489.38    101.87   1491.28    103.77   1493.63    103.77  " /><path style="stroke-width: 1.42 ;&st7;   " d=" M  1497.87,   103.77  C  1500.22    103.77   1502.12    101.87   1502.12     99.52  " /><path style="stroke-width: 1.42 ;&st7;   " d=" M  1502.12,    99.52  C  1502.12     97.17   1500.22     95.27   1497.87     95.27  " /><path style="stroke-width: 0.28 ;&st9;  " d=" M  1495.75,    90.37  L  1492.92,    87.54  L  1492.92,    91.79  L  1495.75,    94.62  L  1498.58,    91.79  L  1498.58,    87.54  L  1495.75,    90.37  " /><path style="stroke-width: 1.42 ;&st7;  " d=" M  1483.00,    35.78  L  1483.00,    78.27  L  1508.50,    78.27  L  1508.50,    35.78  L  1483.00,    35.78  " /><text style="font-size:6px;font-family:'NSimSun';" transform="matrix(&st16;  1512.17  56.17 )">5A <tspan x="0 " dy="6.0">MET</tspan></text><text style="font-size:6px;font-family:'NSimSun';" transform="matrix(&st16;  1491.78  101.49 )">3C</text><text style="font-size:6px;font-family:'NSimSun';" transform="matrix(&st16;  1482.14  101.49 )">55</text><text style="font-size:6px;font-family:'NSimSun';" transform="matrix(&st16;  1490.54  32.08 )">(IG)</text><text style="font-size:6px;font-family:'NSimSun';" transform="matrix(&st16;  1489.57  86.47 )">2</text></g><g ewd:figtype="gp" ewd:figID="38" ewd:code="ED"><path style="stroke-width: 0.85 ;&st7;  " d=" M  1341.36,   710.00  L  1344.19,   710.00  " /><path style="stroke-width: 0.85 ;&st7;  " d=" M  1339.94,   707.17  L  1345.61,   707.17  " /><path style="stroke-width: 0.85 ;&st7;  " d=" M  1338.53,   704.33  L  1347.02,   704.33  " /><path style="stroke-width: 0.85 ;&st7;  " d=" M  1334.28,   701.50  L  1351.27,   701.50  " /><path style="stroke-width: 0.85 ;&st7;  " d=" M  1342.78,   697.25  L  1342.78,   701.50  " /></g></svg>