<?xml version="1.0" encoding="utf-8"?>
<!DOCTYPE svg PUBLIC "-//W3C//DTD SVG 1.0//EN" "http://www.w3.org/TR/2001/REC-SVG-20010904/DTD/svg10.dtd"[
	<!ENTITY ns_flows "http://ns.adobe.com/Flows/1.0/">
	<!ENTITY ns_svg "http://www.w3.org/2000/svg">
	<!ENTITY ns_xlink "http://www.w3.org/1999/xlink">
	<!ENTITY st0 "font-size:7px;font-family:'NSimSun';adobe-font-script:japanese;">
	<!ENTITY st1 "font-size:6px;font-family:'NSimSun';">
	<!-- White fill  -->
	<!ENTITY st2 "fill:#FFFFFF;stroke:#000000; stroke-width:1.41;stroke-linecap:round;stroke-linejoin:round;">
	<!-- Yellow fill  -->
	<!ENTITY st3 "fill:#FFFFCC;stroke:#FFFFCC; stroke-width:0.1;stroke-linecap:round;stroke-linejoin:round;">
	<!-- Gray fill  -->
	<!ENTITY st4 "fill:#CCCCCC;stroke:#CCCCCC; stroke-width:0.1;stroke-linecap:round;stroke-linejoin:round;">
	<!-- Light-blue fill -->
	<!ENTITY st5 "fill:#CCECF4;stroke:#000000; stroke-width:1.133;stroke-linecap:round;stroke-linejoin:round;">
	<!ENTITY st6 "fill:none;stroke-linecap:butt; stroke-linejoin:round;">
	<!ENTITY st7 "fill:none;stroke:#000000;stroke-linecap:round;stroke-linejoin:round;">
	<!ENTITY st8 "enable-background:new    ;">
	<!-- Black fill -->
	<!ENTITY st9 "fill:#000000;stroke:#000000; stroke-linecap:round;stroke-linejoin:round;">
	<!-- SRS note   -->
	<!ENTITY st10 "font-size:9px;font-family:'NSimSun';">
	<!ENTITY st11 "font-size:9px;font-family:'NSimSun';">
	<!ENTITY st12 "font-size:6px;font-family:'NSimSun';">
	<!ENTITY st13 "fill:none;stroke:#ff0000;stroke-linecap:round;stroke-linejoin:round;">
	<!-- Yellow fill  -->
	<!ENTITY st14 "fill:#FFFF00;stroke:#FFFF00; stroke-width:0.1;stroke-linecap:round;stroke-linejoin:round;">
	<!ENTITY st15 "font-size:6px;font-family:'NSimSun';adobe-font-script:japanese;">
	<!ENTITY st16 "1.00 0.00 0.00 1.00">
	<!ENTITY st17 "0.00 -1.00 1.00 0.00">
	<!ENTITY st18 "font-size:6px;font-family:'NSimSun';">
	<!ENTITY st19 "font-size:9px;font-family:'NSimSun';">
	<!ENTITY st20 "font-size:6px;font-family:'NSimSun';adobe-font-script:japanese;">
	<!ENTITY st21 "font-size:7px;font-family:'NSimSun';adobe-font-script:japanese;">
	<!ATTLIST svg
		xmlns:ewd CDATA #FIXED "http://shcl.co.jp/ewd"
		xmlns:a CDATA #FIXED "http://ns.adobe.com/AdobeSVGViewerExtensions/3.0/"
		ewd:ver CDATA #IMPLIED
	>
	<!ATTLIST a
		ewd:lineID CDATA #IMPLIED
		ewd:groupID CDATA #IMPLIED
		ewd:figtype CDATA #IMPLIED
		ewd:code CDATA #IMPLIED
		ewd:figID CDATA #IMPLIED
		ewd:pinNo CDATA #IMPLIED
		ewd:comment CDATA #IMPLIED >
	<!ATTLIST g
		ewd:lineID CDATA #IMPLIED
		ewd:groupID CDATA #IMPLIED
		ewd:figtype CDATA #IMPLIED
		ewd:code CDATA #IMPLIED
		ewd:figID CDATA #IMPLIED
		ewd:pinNo CDATA #IMPLIED
		ewd:comment CDATA #IMPLIED >
	<!ATTLIST text
		ewd:textID CDATA #IMPLIED
		ewd:horAlign CDATA #IMPLIED >
	<!ATTLIST title
		ewd:textID CDATA #IMPLIED >
]>
<!-- Generator: Shintec Hozumi YS   -->
<svg onload="call_execInitLoadProc_svg('system')" style="overflow:visible;  enable-background:new 0 0 2043.031 710.000" viewBox="0 0 2047.151 710.000" height="710.000" width="2047.151" xml:space="preserve" ewd:ver="2.1.2.6F" xmlns="&ns_svg;" xmlns:ewd="http://shcl.co.jp/ewd" xmlns:a="http://ns.adobe.com/AdobeSVGViewerExtensions/3.0/" xmlns:xlink="&ns_xlink;">
<text style="font-size:6px;font-family:'NSimSun';" transform="matrix(&st16;  1522.79  261.54 )">P(*5)</text><text style="font-size:6px;font-family:'NSimSun';" transform="matrix(&st16;  1522.59  278.54 )">B(*5)</text><text style="font-size:6px;font-family:'NSimSun';" transform="matrix(&st16;  1522.59  329.53 )">B(*5)</text><text style="font-size:6px;font-family:'NSimSun';" transform="matrix(&st16;  1522.71  312.54 )">L(*5)</text><text style="font-size:6px;font-family:'NSimSun';" transform="matrix(&st16;  1522.59  295.54 )">Y(*5)</text><text style="font-size:6px;font-family:'NSimSun';" transform="matrix(&st16;  1522.79  363.53 )">P(*5)</text><text style="font-size:6px;font-family:'NSimSun';" transform="matrix(&st16;  1520.5  346.53 )">LG(*5)</text><text style="font-size:6px;font-family:'NSimSun';" transform="matrix(&st16;  1520.46  380.52 )">GR(*5)</text><text style="font-size:6px;font-family:'NSimSun';" transform="matrix(&st16;  1571.45  380.52 )">GR(*5)</text><text style="font-size:6px;font-family:'NSimSun';" transform="matrix(&st16;  1571.49  346.53 )">LG(*5)</text><text style="font-size:6px;font-family:'NSimSun';" transform="matrix(&st16;  1573.78  363.53 )">P(*5)</text><text style="font-size:6px;font-family:'NSimSun';" transform="matrix(&st16;  1573.58  295.54 )">Y(*5)</text><text style="font-size:6px;font-family:'NSimSun';" transform="matrix(&st16;  1573.7  312.54 )">L(*5)</text><text style="font-size:6px;font-family:'NSimSun';" transform="matrix(&st16;  1573.58  329.53 )">B(*5)</text><text style="font-size:6px;font-family:'NSimSun';" transform="matrix(&st16;  1573.58  278.54 )">B(*5)</text><text style="font-size:6px;font-family:'NSimSun';" transform="matrix(&st16;  1573.78  261.54 )">P(*5)</text><path style="stroke-width: 1.42 ;&st7;  " d=" M  1733.71,   256.74  L  1742.21,   256.74  " /><text style="font-size:6px;font-family:'NSimSun';" transform="matrix(&st17;  1984.97  234.8 )">BR</text><text style="font-size:6px;font-family:'NSimSun';" transform="matrix(&st17;  1996.3  235.96 )">(*5)</text><text style="font-size:6px;font-family:'NSimSun';" transform="matrix(&st17;  1687.52  233.71 )">W</text><text style="font-size:6px;font-family:'NSimSun';" transform="matrix(&st17;  1806.5  232.82 )">L</text><text style="font-size:6px;font-family:'NSimSun';" transform="matrix(&st17;  1817.83  235.96 )">(*5)</text><text style="font-size:6px;font-family:'NSimSun';" transform="matrix(&st17;  1772.51  232.94 )">Y</text><text style="font-size:6px;font-family:'NSimSun';" transform="matrix(&st17;  1783.84  235.96 )">(*5)</text><text style="font-size:6px;font-family:'NSimSun';" transform="matrix(&st17;  1840.5  232.94 )">B</text><text style="font-size:6px;font-family:'NSimSun';" transform="matrix(&st17;  1851.83  235.96 )">(*5)</text><text style="font-size:6px;font-family:'NSimSun';" transform="matrix(&st17;  1882.99  235.03 )">LG</text><text style="font-size:6px;font-family:'NSimSun';" transform="matrix(&st17;  1894.32  235.96 )">(*5)</text><text style="font-size:6px;font-family:'NSimSun';" transform="matrix(&st17;  1916.98  232.74 )">P</text><text style="font-size:6px;font-family:'NSimSun';" transform="matrix(&st17;  1928.32  235.96 )">(*5)</text><text style="font-size:6px;font-family:'NSimSun';" transform="matrix(&st17;  1950.98  235.07 )">GR</text><text style="font-size:6px;font-family:'NSimSun';" transform="matrix(&st17;  1962.31  235.96 )">(*5)</text><text style="font-size:6px;font-family:'NSimSun';" transform="matrix(&st17;  1713.02  232.74 )">P</text><text style="font-size:6px;font-family:'NSimSun';" transform="matrix(&st17;  1724.35  235.96 )">(*5)</text><text style="font-size:6px;font-family:'NSimSun';" transform="matrix(&st17;  1749.84  235.96 )">(*5)</text><text style="font-size:6px;font-family:'NSimSun';" transform="matrix(&st17;  1738.51  232.94 )">B</text><text style="font-size:6px;font-family:'NSimSun';" transform="matrix(&st17;  1698.85  235.96 )">(*5)</text><text style="font-size:6px;font-family:'NSimSun';" transform="matrix(&st17;  1503.39  129.73 )">(*5)</text><text style="font-size:6px;font-family:'NSimSun';" transform="matrix(&st17;  1594.04  212.46 )">W</text><text style="font-size:6px;font-family:'NSimSun';" transform="matrix(&st17;  1605.37  214.71 )">(*5)</text><text style="font-size:6px;font-family:'NSimSun';" transform="matrix(&st17;  1605.37  129.73 )">(*5)</text><text style="font-size:6px;font-family:'NSimSun';" transform="matrix(&st17;  1594.04  127.48 )">W</text><g ewd:code="E55,E59" ewd:figID="1" ewd:comment="2,1" ewd:figtype="conn"><path style="stroke-width: 0.85 ;&st7;  " d=" M  1950.42,   103.77  L  1941.93,   103.77  " /><path style="stroke-width: 0.85 ;&st7;  " d=" M  1919.56,   101.82  L  1926.92,    97.57  " /><path style="stroke-width: 0.85 ;&st7;  " d=" M  1924.91,    94.11  L  1917.55,    98.35  " /><path style="stroke-width: 0.85 ;&st7;  " d=" M  1916.43,   103.77  L  1907.93,   103.77  " /><path style="stroke-width: 0.85 ;&st7;  " d=" M  1958.91,    94.11  L  1951.55,    98.35  " /><path style="stroke-width: 0.85 ;&st7;  " d=" M  1953.55,   101.82  L  1960.91,    97.57  " /><path style="stroke-width: 0.85 ;&st7;  " d=" M  1712.46,   137.76  L  1720.96,   137.76  " /><path style="stroke-width: 0.85 ;&st7;  " d=" M  1686.97,   137.76  L  1695.47,   137.76  " /><path style="stroke-width: 0.85 ;&st7;  " d=" M  1661.47,   137.76  L  1669.97,   137.76  " /><path style="stroke-width: 1.42 ;&st7;  " d=" M  1648.72,    35.78  L  1648.72,   197.25  L  2022.66,   197.25  L  2022.66,    35.78  L  1648.72,    35.78  " /><path style="stroke-width: 0.85 ;&st7;  " d=" M  1810.20,    95.27  L  1810.20,   103.77  " /><text style="font-size:6px;font-family:'NSimSun';" transform="matrix(&st16;  1740.02  193.56 )">B</text><path style="stroke-width: 0.85 ;&st7;  " d=" M  1801.70,   103.77  L  1818.70,   103.77  " /><path style="stroke-width: 1.42 ;&st7;  " d=" M  1835.69,    86.77  L  1835.69,   103.77  L  1886.68,   103.77  L  1886.68,    86.77  L  1835.69,    86.77  " /><path style="stroke-width: 0.85 ;&st7;  " d=" M  1861.19,   103.77  L  1861.19,   163.26  " /><path style="stroke-width: 0.85 ;&st7;  " d=" M  1810.20,    95.27  L  1835.69,    95.27  " /><path style="stroke-width: 1.42 ;&st7;  " d=" M  1852.69,   163.26  L  2005.66,   163.26  L  2005.66,   180.26  L  1852.69,   180.26  L  1852.69,   163.26  " /><path style="stroke-width: 1.42 ;&st7;  " d=" M  1971.67,   112.27  L  1971.67,   129.26  L  2005.66,   129.26  L  2005.66,   112.27  L  1971.67,   112.27  " /><path style="stroke-width: 0.85 ;&st7;  " d=" M  1988.67,   129.26  L  1988.67,   137.76  " /><path style="stroke-width: 1.42 ;&st7;  " d=" M  1971.67,   137.76  L  2005.66,   137.76  L  2005.66,   154.76  L  1971.67,   154.76  L  1971.67,   137.76  " /><path style="stroke-width: 0.85 ;&st7;  " d=" M  1988.67,   154.76  L  1988.67,   163.26  " /><path style="stroke-width: 0.85 ;&st7;  " d=" M  1988.67,   197.25  L  1988.67,   180.26  " /><path style="stroke-width: 0.85 ;&st7;  " d=" M  1912.18,   146.26  L  1912.18,   163.26  " /><path style="stroke-width: 0.85 ;&st7;  " d=" M  1946.17,   146.26  L  1946.17,   163.26  " /><path style="stroke-width: 1.42 ;&st7;  " d=" M  1903.68,   146.26  L  1954.67,   146.26  L  1954.67,   129.26  L  1903.68,   129.26  L  1903.68,   146.26  " /><path style="stroke-width: 0.85 ;&st7;  " d=" M  1946.17,    61.28  L  1946.17,    52.78  L  1665.72,    52.78  L  1665.72,   163.26  L  1691.22,   163.26  " /><path style="stroke-width: 0.85 ;&st7;  " d=" M  1926.92,    97.57  L  1924.58,   100.62  L  1923.11,    98.07  L  1926.92,    97.57  L  1925.63,    98.31  L  1924.65,    99.60  L  1924.03,    98.52  L  1925.63,    98.31  L  1924.99,    98.68  L  1924.68,    99.09  L  1924.49,    98.75  L  1924.99,    98.68  " /><path style="stroke-width: 0.85 ;&st7;  " d=" M  1924.91,    94.11  L  1922.58,    97.14  L  1921.11,    94.60  L  1924.91,    94.11  L  1923.63,    94.84  L  1922.64,    96.13  L  1922.03,    95.05  L  1923.63,    94.84  L  1922.99,    95.22  L  1922.68,    95.62  L  1922.48,    95.28  L  1922.99,    95.22  " /><path style="stroke-width: 0.28 ;&st9;  " d=" M  1912.18,   103.77  L  1906.51,    95.27  L  1917.85,    95.27  L  1912.18,   103.77  " /><path style="stroke-width: 0.28 ;&st9;  " d=" M  1946.17,   103.77  L  1940.51,    95.27  L  1951.84,    95.27  L  1946.17,   103.77  " /><path style="stroke-width: 0.85 ;&st7;  " d=" M  1958.91,    94.11  L  1956.57,    97.14  L  1955.11,    94.60  L  1958.91,    94.11  L  1957.62,    94.84  L  1956.64,    96.13  L  1956.02,    95.05  L  1957.62,    94.84  L  1956.98,    95.22  L  1956.67,    95.62  L  1956.48,    95.28  L  1956.98,    95.22  " /><path style="stroke-width: 0.85 ;&st7;  " d=" M  1960.91,    97.57  L  1958.58,   100.62  L  1957.11,    98.07  L  1960.91,    97.57  L  1959.63,    98.31  L  1958.64,    99.60  L  1958.02,    98.52  L  1959.63,    98.31  L  1958.99,    98.68  L  1958.68,    99.09  L  1958.48,    98.75  L  1958.99,    98.68  " /><path style="stroke-width: 0.85 ;&st7;  " d=" M  1912.18,    95.27  L  1912.18,    86.77  L  1909.35,    85.35  L  1915.01,    82.52  L  1909.35,    79.69  L  1915.01,    76.86  L  1909.35,    74.02  L  1915.01,    71.19  L  1912.18,    69.77  L  1912.18,    61.28  " /><path style="stroke-width: 0.85 ;&st7;  " d=" M  1946.17,    95.27  L  1946.17,    86.77  L  1943.34,    85.35  L  1949.01,    82.52  L  1943.34,    79.69  L  1949.01,    76.86  L  1943.34,    74.02  L  1949.01,    71.19  L  1946.17,    69.77  L  1946.17,    61.28  " /><path style="stroke-width: 0.85 ;&st7;  " d=" M  1912.18,   129.26  L  1912.18,   103.77  " /><path style="stroke-width: 0.85 ;&st7;  " d=" M  1946.17,   129.26  L  1946.17,   103.77  " /><path style="stroke-width: 0.85 ;&st7;  " d=" M  1912.18,    61.28  L  1912.18,    52.78  " /><path style="stroke-width: 0.85 ;&st7;  " d=" M  1808.78,   112.27  L  1811.61,   112.27  " /><path style="stroke-width: 0.85 ;&st7;  " d=" M  1805.95,   106.60  L  1814.45,   106.60  " /><path style="stroke-width: 0.85 ;&st7;  " d=" M  1910.99,    51.77  L  1910.72,    52.24  L  1910.62,    52.78  L  1910.72,    53.31  L  1910.99,    53.78  L  1911.40,    54.13  L  1911.91,    54.31  L  1912.45,    54.31  L  1912.96,    54.13  L  1913.37,    53.78  L  1913.64,    53.31  L  1913.74,    52.78  L  1913.64,    52.24  L  1913.37,    51.77  L  1912.96,    51.43  L  1912.45,    51.24  L  1911.91,    51.24  L  1911.40,    51.43  L  1910.99,    51.77  L  1911.38,    52.48  L  1911.38,    53.07  L  1911.75,    53.51  L  1912.33,    53.61  L  1912.83,    53.32  L  1913.03,    52.78  L  1912.83,    52.23  L  1912.33,    51.94  L  1911.75,    52.04  L  1912.18,    52.78  " /><path style="stroke-width: 0.85 ;&st7;  " d=" M  1807.36,   109.43  L  1813.03,   109.43  " /><path style="stroke-width: 0.85 ;&st7;  " d=" M  1716.71,   197.25  L  1716.71,    69.77  L  1861.19,    69.77  " /><path style="stroke-width: 0.85 ;&st7;  " d=" M  1691.22,   197.25  L  1691.22,    61.28  L  1861.19,    61.28  L  1861.19,    86.77  " /><path style="stroke-width: 0.28 ;&st9;  " d=" M  1716.71,   137.76  L  1722.38,   146.26  L  1711.05,   146.26  L  1716.71,   137.76  " /><path style="stroke-width: 0.28 ;&st9;  " d=" M  1691.22,   137.76  L  1696.88,   146.26  L  1685.55,   146.26  L  1691.22,   137.76  " /><path style="stroke-width: 0.28 ;&st9;  " d=" M  1665.72,   137.76  L  1671.39,   146.26  L  1660.06,   146.26  L  1665.72,   137.76  " /><path style="stroke-width: 0.85 ;&st7;  " d=" M  1690.02,   162.26  L  1689.75,   162.73  L  1689.66,   163.26  L  1689.75,   163.79  L  1690.02,   164.26  L  1690.44,   164.61  L  1690.94,   164.79  L  1691.49,   164.79  L  1692.00,   164.61  L  1692.41,   164.26  L  1692.68,   163.79  L  1692.77,   163.26  L  1692.68,   162.73  L  1692.41,   162.26  L  1692.00,   161.91  L  1691.49,   161.72  L  1690.94,   161.72  L  1690.44,   161.91  L  1690.02,   162.26  L  1690.42,   162.97  L  1690.42,   163.55  L  1690.79,   163.99  L  1691.36,   164.09  L  1691.87,   163.80  L  1692.07,   163.26  L  1691.87,   162.71  L  1691.36,   162.42  L  1690.79,   162.52  L  1691.22,   163.26  " /><path style="stroke-width: 0.85 ;&st7;  " d=" M  1860.00,    68.77  L  1859.72,    69.24  L  1859.63,    69.77  L  1859.72,    70.31  L  1860.00,    70.78  L  1860.41,    71.12  L  1860.92,    71.31  L  1861.46,    71.31  L  1861.97,    71.12  L  1862.38,    70.78  L  1862.65,    70.31  L  1862.75,    69.77  L  1862.65,    69.24  L  1862.38,    68.77  L  1861.97,    68.43  L  1861.46,    68.24  L  1860.92,    68.24  L  1860.41,    68.43  L  1860.00,    68.77  L  1860.39,    69.48  L  1860.39,    70.07  L  1860.76,    70.51  L  1861.34,    70.61  L  1861.84,    70.32  L  1862.04,    69.77  L  1861.84,    69.23  L  1861.34,    68.94  L  1860.76,    69.04  L  1861.19,    69.77  " /><text style="font-size:6px;font-family:'NSimSun';" transform="matrix(&st17; 1904.52 107.47)" ewd:textID="21">右转向</text><text style="font-size:6px;font-family:'NSimSun';" transform="matrix(&st17; 1938.51 107.44)" ewd:textID="20">左转向</text><text style="font-size:6px;font-family:'NSimSun';" transform="matrix(&st16; 1913.79 139.73)" ewd:textID="12" ewd:horAlign="center">LED 驱动器</text><text style="font-size:6px;font-family:'NSimSun';" transform="matrix(&st16; 1979.88 122.73)" ewd:textID="5" ewd:horAlign="center">蜂鸣器</text><text style="font-size:6px;font-family:'NSimSun';" transform="matrix(&st16;  1984.11  148.23 )">I/F</text><text style="font-size:6px;font-family:'NSimSun';" transform="matrix(&st16;  1927.13  173.73 )">CPU</text><text style="font-size:6px;font-family:'NSimSun';" transform="matrix(&st16;  1853.34  97.24 )">5V IC</text><text style="font-size:6px;font-family:'NSimSun';" transform="matrix(&st16;  1772.31  193.56 )">LL</text><text style="font-size:6px;font-family:'NSimSun';" transform="matrix(&st16;  1806.26  193.56 )">LR</text><text style="font-size:6px;font-family:'NSimSun';" transform="matrix(&st16;  1991.25  193.56 )">ET</text><text style="font-size:6px;font-family:'NSimSun';" transform="matrix(&st16;  1842.12  193.56 )">L</text><text style="font-size:6px;font-family:'NSimSun';" transform="matrix(&st16;  1882.75  193.56 )">EL</text><text style="font-size:6px;font-family:'NSimSun';" transform="matrix(&st16;  1916.71  193.56 )">ER</text><text style="font-size:6px;font-family:'NSimSun';" transform="matrix(&st16;  1948.38  193.56 )">HAZ</text><text style="font-size:6px;font-family:'NSimSun';" transform="matrix(&st16;  1843.92  111.96 )">5V+B</text><text style="font-size:6px;font-family:'NSimSun';" transform="matrix(&st16;  1719.3  193.56 )">IG</text><text style="font-size:6px;font-family:'NSimSun';" transform="matrix(&st16;  1693.8  193.56 )">B</text><text style="font-size:6px;font-family:'NSimSun';" transform="matrix(&st16;  1764.41  203.75 )">13</text><text style="font-size:6px;font-family:'NSimSun';" transform="matrix(&st16;  1774.02  203.75 )">B</text><path style="stroke-width: 1.42 ;&st7;   " d=" M  1780.74,   201.78  C  1780.74    199.28   1778.71    197.25   1776.20    197.25  " /><path style="stroke-width: 1.42 ;&st7;   " d=" M  1776.20,   197.25  C  1773.70    197.25   1771.67    199.28   1771.67    201.78  " /><path style="stroke-width: 1.42 ;&st7;   " d=" M  1771.67,   201.78  C  1771.67    204.29   1773.70    206.32   1776.20    206.32  " /><path style="stroke-width: 1.42 ;&st7;   " d=" M  1776.20,   206.32  C  1778.71    206.32   1780.74    204.29   1780.74    201.78  " /><text style="font-size:6px;font-family:'NSimSun';" transform="matrix(&st16;  1801.5  203.75 )">7</text><path style="stroke-width: 1.42 ;&st7;   " d=" M  1814.73,   201.78  C  1814.73    199.28   1812.70    197.25   1810.20    197.25  " /><path style="stroke-width: 1.42 ;&st7;   " d=" M  1810.20,   197.25  C  1807.69    197.25   1805.66    199.28   1805.66    201.78  " /><path style="stroke-width: 1.42 ;&st7;   " d=" M  1805.66,   201.78  C  1805.66    204.29   1807.69    206.32   1810.20    206.32  " /><path style="stroke-width: 1.42 ;&st7;   " d=" M  1810.20,   206.32  C  1812.70    206.32   1814.73    204.29   1814.73    201.78  " /><text style="font-size:6px;font-family:'NSimSun';" transform="matrix(&st16;  1808.01  203.75 )">B</text><text style="font-size:6px;font-family:'NSimSun';" transform="matrix(&st16;  1832.4  203.75 )">29</text><text style="font-size:6px;font-family:'NSimSun';" transform="matrix(&st16;  1832.4  212.82 )">30</text><path style="stroke-width: 1.42 ;&st7;   " d=" M  1848.72,   201.78  C  1848.72    199.28   1846.70    197.25   1844.19    197.25  " /><path style="stroke-width: 1.42 ;&st7;   " d=" M  1844.19,   197.25  C  1841.69    197.25   1839.66    199.28   1839.66    201.78  " /><path style="stroke-width: 1.42 ;&st7;   " d=" M  1839.66,   201.78  C  1839.66    204.29   1841.69    206.32   1844.19    206.32  " /><path style="stroke-width: 1.42 ;&st7;   " d=" M  1844.19,   206.32  C  1846.70    206.32   1848.72    204.29   1848.72    201.78  " /><path style="stroke-width: 1.42 ;&st7;   " d=" M  1848.72,   210.85  C  1848.72    208.35   1846.70    206.32   1844.19    206.32  " /><path style="stroke-width: 1.42 ;&st7;   " d=" M  1844.19,   206.32  C  1841.69    206.32   1839.66    208.35   1839.66    210.85  " /><path style="stroke-width: 1.42 ;&st7;   " d=" M  1839.66,   210.85  C  1839.66    213.35   1841.69    215.38   1844.19    215.38  " /><path style="stroke-width: 1.42 ;&st7;   " d=" M  1844.19,   215.38  C  1846.70    215.38   1848.72    213.35   1848.72    210.85  " /><text style="font-size:6px;font-family:'NSimSun';" transform="matrix(&st16;  1841.89  203.75 )">A</text><text style="font-size:6px;font-family:'NSimSun';" transform="matrix(&st16;  1841.89  212.82 )">A</text><text style="font-size:6px;font-family:'NSimSun';" transform="matrix(&st16;  1874.89  203.75 )">10</text><text style="font-size:6px;font-family:'NSimSun';" transform="matrix(&st16;  1884.5  203.75 )">B</text><path style="stroke-width: 1.42 ;&st7;   " d=" M  1891.22,   201.78  C  1891.22    199.28   1889.19    197.25   1886.68    197.25  " /><path style="stroke-width: 1.42 ;&st7;   " d=" M  1886.68,   197.25  C  1884.18    197.25   1882.15    199.28   1882.15    201.78  " /><path style="stroke-width: 1.42 ;&st7;   " d=" M  1882.15,   201.78  C  1882.15    204.29   1884.18    206.32   1886.68    206.32  " /><path style="stroke-width: 1.42 ;&st7;   " d=" M  1886.68,   206.32  C  1889.19    206.32   1891.22    204.29   1891.22    201.78  " /><text style="font-size:6px;font-family:'NSimSun';" transform="matrix(&st16;  1911.99  203.75 )">9</text><text style="font-size:6px;font-family:'NSimSun';" transform="matrix(&st16;  1918.49  203.75 )">B</text><path style="stroke-width: 1.42 ;&st7;   " d=" M  1925.21,   201.78  C  1925.21    199.28   1923.18    197.25   1920.68    197.25  " /><path style="stroke-width: 1.42 ;&st7;   " d=" M  1920.68,   197.25  C  1918.18    197.25   1916.15    199.28   1916.15    201.78  " /><path style="stroke-width: 1.42 ;&st7;   " d=" M  1916.15,   201.78  C  1916.15    204.29   1918.18    206.32   1920.68    206.32  " /><path style="stroke-width: 1.42 ;&st7;   " d=" M  1920.68,   206.32  C  1923.18    206.32   1925.21    204.29   1925.21    201.78  " /><text style="font-size:6px;font-family:'NSimSun';" transform="matrix(&st16;  1945.98  203.75 )">3</text><text style="font-size:6px;font-family:'NSimSun';" transform="matrix(&st16;  1952.49  203.75 )">B</text><path style="stroke-width: 1.42 ;&st7;   " d=" M  1959.21,   201.78  C  1959.21    199.28   1957.18    197.25   1954.67    197.25  " /><path style="stroke-width: 1.42 ;&st7;   " d=" M  1954.67,   197.25  C  1952.17    197.25   1950.14    199.28   1950.14    201.78  " /><path style="stroke-width: 1.42 ;&st7;   " d=" M  1950.14,   201.78  C  1950.14    204.29   1952.17    206.32   1954.67    206.32  " /><path style="stroke-width: 1.42 ;&st7;   " d=" M  1954.67,   206.32  C  1957.18    206.32   1959.21    204.29   1959.21    201.78  " /><text style="font-size:6px;font-family:'NSimSun';" transform="matrix(&st16;  1704.92  203.75 )">39</text><text style="font-size:6px;font-family:'NSimSun';" transform="matrix(&st16;  1714.41  203.75 )">A</text><path style="stroke-width: 1.42 ;&st7;   " d=" M  1721.25,   201.78  C  1721.25    199.28   1719.22    197.25   1716.71    197.25  " /><path style="stroke-width: 1.42 ;&st7;   " d=" M  1716.71,   197.25  C  1714.21    197.25   1712.18    199.28   1712.18    201.78  " /><path style="stroke-width: 1.42 ;&st7;   " d=" M  1712.18,   201.78  C  1712.18    204.29   1714.21    206.32   1716.71    206.32  " /><path style="stroke-width: 1.42 ;&st7;   " d=" M  1716.71,   206.32  C  1719.22    206.32   1721.25    204.29   1721.25    201.78  " /><text style="font-size:6px;font-family:'NSimSun';" transform="matrix(&st16;  1679.42  203.75 )">40</text><text style="font-size:6px;font-family:'NSimSun';" transform="matrix(&st16;  1688.91  203.75 )">A</text><path style="stroke-width: 1.42 ;&st7;   " d=" M  1695.75,   201.78  C  1695.75    199.28   1693.72    197.25   1691.22    197.25  " /><path style="stroke-width: 1.42 ;&st7;   " d=" M  1691.22,   197.25  C  1688.71    197.25   1686.68    199.28   1686.68    201.78  " /><path style="stroke-width: 1.42 ;&st7;   " d=" M  1686.68,   201.78  C  1686.68    204.29   1688.71    206.32   1691.22    206.32  " /><path style="stroke-width: 1.42 ;&st7;   " d=" M  1691.22,   206.32  C  1693.72    206.32   1695.75    204.29   1695.75    201.78  " /><text style="font-size:6px;font-family:'NSimSun';" transform="matrix(&st16;  1733.51  203.75 )">1</text><path style="stroke-width: 1.42 ;&st7;   " d=" M  1746.74,   201.78  C  1746.74    199.28   1744.71    197.25   1742.21    197.25  " /><path style="stroke-width: 1.42 ;&st7;   " d=" M  1742.21,   197.25  C  1739.71    197.25   1737.68    199.28   1737.68    201.78  " /><path style="stroke-width: 1.42 ;&st7;   " d=" M  1737.68,   201.78  C  1737.68    204.29   1739.71    206.32   1742.21    206.32  " /><path style="stroke-width: 1.42 ;&st7;   " d=" M  1742.21,   206.32  C  1744.71    206.32   1746.74    204.29   1746.74    201.78  " /><text style="font-size:6px;font-family:'NSimSun';" transform="matrix(&st16;  1740.02  203.75 )">B</text><text style="font-size:6px;font-family:'NSimSun';" transform="matrix(&st16;  1976.87  203.75 )">21</text><path style="stroke-width: 1.42 ;&st7;   " d=" M  1993.20,   201.78  C  1993.20    199.28   1991.17    197.25   1988.67    197.25  " /><path style="stroke-width: 1.42 ;&st7;   " d=" M  1988.67,   197.25  C  1986.16    197.25   1984.14    199.28   1984.14    201.78  " /><path style="stroke-width: 1.42 ;&st7;   " d=" M  1984.14,   201.78  C  1984.14    204.29   1986.16    206.32   1988.67    206.32  " /><path style="stroke-width: 1.42 ;&st7;   " d=" M  1988.67,   206.32  C  1991.17    206.32   1993.20    204.29   1993.20    201.78  " /><text style="font-size:6px;font-family:'NSimSun';" transform="matrix(&st16;  1986.36  203.75 )">A</text><g ewd:figtype="title"><text style="font-size:6px;font-family:'NSimSun';" transform="matrix(&st17;  2037.38  200.16 )" ewd:textID="6">组合仪表总成</text><text style="font-size:6px;font-family:'NSimSun';" transform="matrix(&st17;  2030.56  200.15 )">E55(A),E59(B)</text></g><g ewd:code="" ewd:figID="66" ewd:comment="1" ewd:figtype="commref"><text style="font-size:6px;font-family:'NSimSun';" transform="matrix(&st16;  1849.28  203.75 )">(*1)</text></g><g ewd:code="" ewd:figID="67" ewd:comment="2" ewd:figtype="commref"><text style="font-size:6px;font-family:'NSimSun';" transform="matrix(&st16;  1849.28  212.82 )">(*2)</text></g></g><g ewd:figtype="rb" ewd:figID="13" ewd:code="FUSE6"><path style="stroke-width: 0.85 ;&st7;  " d=" M  1597.73,    69.77  L  1597.73,    95.27  " /><path style="stroke-width: 1.42 ;&st7;  " d=" M  1599.86,    95.27  L  1595.61,    95.27  " /><path style="stroke-width: 1.42 ;&st7;  " d=" M  1599.86,   103.77  L  1595.61,   103.77  " /><path style="stroke-width: 1.42 ;&st7;   " d=" M  1595.61,    95.27  C  1593.26     95.27   1591.36     97.17   1591.36     99.52  " /><path style="stroke-width: 1.42 ;&st7;   " d=" M  1591.36,    99.52  C  1591.36    101.87   1593.26    103.77   1595.61    103.77  " /><path style="stroke-width: 1.42 ;&st7;   " d=" M  1599.86,   103.77  C  1602.20    103.77   1604.11    101.87   1604.11     99.52  " /><path style="stroke-width: 1.42 ;&st7;   " d=" M  1604.11,    99.52  C  1604.11     97.17   1602.20     95.27   1599.86     95.27  " /><path style="stroke-width: 0.28 ;&st9;  " d=" M  1597.73,    90.37  L  1594.90,    87.54  L  1594.90,    91.79  L  1597.73,    94.62  L  1600.57,    91.79  L  1600.57,    87.54  L  1597.73,    90.37  " /><text style="font-size:6px;font-family:'NSimSun';" transform="matrix(&st16;  1614.16  53.34 )">10A <tspan x="0 " dy="6.0">ECU-B </tspan><tspan x="0 " dy="6.0">NO.2</tspan></text><text style="font-size:6px;font-family:'NSimSun';" transform="matrix(&st16;  1595.93  101.49 )">1</text><text style="font-size:6px;font-family:'NSimSun';" transform="matrix(&st16;  1591.55  86.47 )">2</text><text style="font-size:6px;font-family:'NSimSun';" transform="matrix(&st16;  1589.69  32.08 )">(BAT)</text><path style="stroke-width: 1.42 ;&st7;   " d=" M  1597.73,    47.11  C  1595.00     48.72   1594.08     52.25   1595.70     54.99  " /><path style="stroke-width: 1.42 ;&st7;   " d=" M  1595.70,    54.99  C  1596.22     55.87   1596.85     56.51   1597.73     57.03  " /><path style="stroke-width: 1.42 ;&st7;   " d=" M  1597.73,    66.94  C  1600.47     65.33   1601.38     61.80   1599.77     59.06  " /><path style="stroke-width: 1.42 ;&st7;   " d=" M  1599.77,    59.06  C  1599.25     58.18   1598.62     57.55   1597.73     57.03  " /><path style="stroke-width: 0.85 ;&st7;   " d=" M  1599.15,    45.69  C  1599.15     44.91   1598.52     44.28   1597.73     44.28  " /><path style="stroke-width: 0.85 ;&st7;   " d=" M  1597.73,    44.28  C  1596.95     44.28   1596.32     44.91   1596.32     45.69  " /><path style="stroke-width: 0.85 ;&st7;   " d=" M  1596.32,    45.69  C  1596.32     46.48   1596.95     47.11   1597.73     47.11  " /><path style="stroke-width: 0.85 ;&st7;   " d=" M  1597.73,    47.11  C  1598.52     47.11   1599.15     46.48   1599.15     45.69  " /><path style="stroke-width: 0.85 ;&st7;   " d=" M  1599.15,    68.36  C  1599.15     67.57   1598.52     66.94   1597.73     66.94  " /><path style="stroke-width: 0.85 ;&st7;   " d=" M  1597.73,    66.94  C  1596.95     66.94   1596.32     67.57   1596.32     68.36  " /><path style="stroke-width: 0.85 ;&st7;   " d=" M  1596.32,    68.36  C  1596.32     69.14   1596.95     69.77   1597.73     69.77  " /><path style="stroke-width: 0.85 ;&st7;   " d=" M  1597.73,    69.77  C  1598.52     69.77   1599.15     69.14   1599.15     68.36  " /><path style="stroke-width: 1.42 ;&st7;  " d=" M  1584.98,    35.78  L  1584.98,    78.27  L  1610.48,    78.27  L  1610.48,    35.78  L  1584.98,    35.78  " /></g><g ewd:figtype="jb" ewd:figID="24" ewd:code="3"><path style="stroke-width: 1.42 ;&st7;  " d=" M  1599.86,   180.26  L  1595.61,   180.26  " /><path style="stroke-width: 1.42 ;&st7;  " d=" M  1599.86,   188.75  L  1595.61,   188.75  " /><path style="stroke-width: 1.42 ;&st7;  " d=" M  1599.86,   146.26  L  1595.61,   146.26  " /><path style="stroke-width: 1.42 ;&st7;  " d=" M  1599.86,   154.76  L  1595.61,   154.76  " /><path style="stroke-width: 1.42 ;&st7;   " d=" M  1595.61,   146.26  C  1593.26    146.26   1591.36    148.16   1591.36    150.51  " /><path style="stroke-width: 1.42 ;&st7;   " d=" M  1591.36,   150.51  C  1591.36    152.86   1593.26    154.76   1595.61    154.76  " /><path style="stroke-width: 1.42 ;&st7;   " d=" M  1599.86,   154.76  C  1602.20    154.76   1604.11    152.86   1604.11    150.51  " /><path style="stroke-width: 1.42 ;&st7;   " d=" M  1604.11,   150.51  C  1604.11    148.16   1602.20    146.26   1599.86    146.26  " /><path style="stroke-width: 1.42 ;&st7;   " d=" M  1595.61,   180.26  C  1593.26    180.26   1591.36    182.16   1591.36    184.50  " /><path style="stroke-width: 1.42 ;&st7;   " d=" M  1591.36,   184.50  C  1591.36    186.85   1593.26    188.75   1595.61    188.75  " /><path style="stroke-width: 1.42 ;&st7;   " d=" M  1599.86,   188.75  C  1602.20    188.75   1604.11    186.85   1604.11    184.50  " /><path style="stroke-width: 1.42 ;&st7;   " d=" M  1604.11,   184.50  C  1604.11    182.16   1602.20    180.26   1599.86    180.26  " /><path style="stroke-width: 0.85 ;&st7;  " d=" M  1597.73,   180.26  L  1597.73,   154.76  " /><path style="stroke-width: 0.28 ;&st9;  " d=" M  1597.73,   175.36  L  1594.90,   172.53  L  1594.90,   176.78  L  1597.73,   179.61  L  1600.57,   176.78  L  1600.57,   172.53  L  1597.73,   175.36  " /><path style="stroke-width: 0.28 ;&st9;  " d=" M  1597.73,   159.65  L  1600.57,   162.49  L  1600.57,   158.24  L  1597.73,   155.41  L  1594.90,   158.24  L  1594.90,   162.49  L  1597.73,   159.65  " /><text style="font-size:6px;font-family:'NSimSun';" transform="matrix(&st16;  1593.88  152.48 )">3A</text><text style="font-size:6px;font-family:'NSimSun';" transform="matrix(&st16;  1584.12  152.48 )">44</text><text style="font-size:6px;font-family:'NSimSun';" transform="matrix(&st16;  1593.8  186.47 )">3D</text><text style="font-size:6px;font-family:'NSimSun';" transform="matrix(&st16;  1584.12  186.47 )">34</text></g><g ewd:figtype="w2w" ewd:figID="31" ewd:code="AE3"><path style="stroke-width: 1.42 ;&st7;  " d=" M  1737.96,   247.68  L  1742.21,   251.93  L  1746.46,   247.68  " /><path style="stroke-width: 1.42 ;&st7;  " d=" M  1746.46,   251.08  L  1742.21,   255.33  L  1737.96,   251.08  " /><text style="font-size:6px;font-family:'NSimSun';" transform="matrix(&st16;  1729.58  262.96 )">2</text></g><g ewd:figtype="gp" ewd:figID="39" ewd:code="ED"><path style="stroke-width: 0.85 ;&st7;  " d=" M  1987.25,   710.00  L  1990.08,   710.00  " /><path style="stroke-width: 0.85 ;&st7;  " d=" M  1985.83,   707.17  L  1991.50,   707.17  " /><path style="stroke-width: 0.85 ;&st7;  " d=" M  1980.17,   701.50  L  1997.17,   701.50  " /><path style="stroke-width: 0.85 ;&st7;  " d=" M  1988.67,   697.25  L  1988.67,   701.50  " /><path style="stroke-width: 0.85 ;&st7;  " d=" M  1984.42,   704.33  L  1992.92,   704.33  " /></g><g ewd:code="2" ewd:figID="51" ewd:comment="" ewd:figtype="comment"><text style="font-size:6px;font-family:'NSimSun';" transform="matrix(&st16;  1662.32  522.17 )">* 2 :2ZR-FE</text></g><g ewd:code="1" ewd:figID="55" ewd:comment="" ewd:figtype="comment"><text style="font-size:6px;font-family:'NSimSun';" transform="matrix(&st16;  1662.32  513.67 )">* 1 :1ZR-FE</text></g><g ewd:code="6" ewd:figID="50" ewd:comment="" ewd:figtype="comment"><text style="font-size:6px;font-family:'NSimSun';" transform="matrix(&st16;  1662.32  539.16 )" ewd:textID="4">* 6 : 不带 TFT 显示屏</text></g><g ewd:code="5" ewd:figID="65" ewd:comment="" ewd:figtype="comment"><text style="font-size:6px;font-family:'NSimSun';" transform="matrix(&st16;  1662.32  530.67 )" ewd:textID="3">* 5 : 带 TFT 显示屏</text></g></svg>