<?xml version="1.0" encoding="utf-8"?>
<!DOCTYPE svg PUBLIC "-//W3C//DTD SVG 1.0//EN" "http://www.w3.org/TR/2001/REC-SVG-20010904/DTD/svg10.dtd"[
	<!ENTITY ns_flows "http://ns.adobe.com/Flows/1.0/">
	<!ENTITY ns_svg "http://www.w3.org/2000/svg">
	<!ENTITY ns_xlink "http://www.w3.org/1999/xlink">
	<!ENTITY st0 "font-size:7px;font-family:'NSimSun';adobe-font-script:japanese;">
	<!ENTITY st1 "font-size:6px;font-family:'NSimSun';">
	<!-- White fill  -->
	<!ENTITY st2 "fill:#FFFFFF;stroke:#000000; stroke-width:1.41;stroke-linecap:round;stroke-linejoin:round;">
	<!-- Yellow fill  -->
	<!ENTITY st3 "fill:#FFFFCC;stroke:#FFFFCC; stroke-width:0.1;stroke-linecap:round;stroke-linejoin:round;">
	<!-- Gray fill  -->
	<!ENTITY st4 "fill:#CCCCCC;stroke:#CCCCCC; stroke-width:0.1;stroke-linecap:round;stroke-linejoin:round;">
	<!-- Light-blue fill -->
	<!ENTITY st5 "fill:#CCECF4;stroke:#000000; stroke-width:1.133;stroke-linecap:round;stroke-linejoin:round;">
	<!ENTITY st6 "fill:none;stroke-linecap:butt; stroke-linejoin:round;">
	<!ENTITY st7 "fill:none;stroke:#000000;stroke-linecap:round;stroke-linejoin:round;">
	<!ENTITY st8 "enable-background:new    ;">
	<!-- Black fill -->
	<!ENTITY st9 "fill:#000000;stroke:#000000; stroke-linecap:round;stroke-linejoin:round;">
	<!-- SRS note   -->
	<!ENTITY st10 "font-size:9px;font-family:'NSimSun';">
	<!ENTITY st11 "font-size:9px;font-family:'NSimSun';">
	<!ENTITY st12 "font-size:6px;font-family:'NSimSun';">
	<!ENTITY st13 "fill:none;stroke:#ff0000;stroke-linecap:round;stroke-linejoin:round;">
	<!-- Yellow fill  -->
	<!ENTITY st14 "fill:#FFFF00;stroke:#FFFF00; stroke-width:0.1;stroke-linecap:round;stroke-linejoin:round;">
	<!ENTITY st15 "font-size:6px;font-family:'NSimSun';adobe-font-script:japanese;">
	<!ENTITY st16 "1.00 0.00 0.00 1.00">
	<!ENTITY st17 "0.00 -1.00 1.00 0.00">
	<!ENTITY st18 "font-size:6px;font-family:'NSimSun';">
	<!ENTITY st19 "font-size:9px;font-family:'NSimSun';">
	<!ENTITY st20 "font-size:6px;font-family:'NSimSun';adobe-font-script:japanese;">
	<!ENTITY st21 "font-size:7px;font-family:'NSimSun';adobe-font-script:japanese;">
	<!ATTLIST svg
		xmlns:ewd CDATA #FIXED "http://shcl.co.jp/ewd"
		xmlns:a CDATA #FIXED "http://ns.adobe.com/AdobeSVGViewerExtensions/3.0/"
		ewd:ver CDATA #IMPLIED
	>
	<!ATTLIST a
		ewd:lineID CDATA #IMPLIED
		ewd:groupID CDATA #IMPLIED
		ewd:figtype CDATA #IMPLIED
		ewd:code CDATA #IMPLIED
		ewd:figID CDATA #IMPLIED
		ewd:pinNo CDATA #IMPLIED
		ewd:comment CDATA #IMPLIED >
	<!ATTLIST g
		ewd:lineID CDATA #IMPLIED
		ewd:groupID CDATA #IMPLIED
		ewd:figtype CDATA #IMPLIED
		ewd:code CDATA #IMPLIED
		ewd:figID CDATA #IMPLIED
		ewd:pinNo CDATA #IMPLIED
		ewd:comment CDATA #IMPLIED >
	<!ATTLIST text
		ewd:textID CDATA #IMPLIED
		ewd:horAlign CDATA #IMPLIED >
	<!ATTLIST title
		ewd:textID CDATA #IMPLIED >
]>
<!-- Generator: Shintec Hozumi YS   -->
<svg onload="call_execInitLoadProc_svg('system')" style="overflow:visible;  enable-background:new 0 0 2043.031 710.000" viewBox="0 0 2047.151 710.000" height="710.000" width="2047.151" xml:space="preserve" ewd:ver="2.1.2.6F" xmlns="&ns_svg;" xmlns:ewd="http://shcl.co.jp/ewd" xmlns:a="http://ns.adobe.com/AdobeSVGViewerExtensions/3.0/" xmlns:xlink="&ns_xlink;">
<path style="stroke-width: 1.42 ;&st7;  " d=" M   387.40,   613.68  L   382.44,   618.65  " /><path style="stroke-width: 1.42 ;&st7;  " d=" M   394.46,   630.68  L   399.43,   625.71  " /><path style="stroke-width: 1.42 ;&st7;  " d=" M   382.44,   625.71  L   387.40,   630.68  " /><path style="stroke-width: 1.42 ;&st7;  " d=" M   399.43,   618.65  L   394.46,   613.68  " /><path style="stroke-width: 1.42 ;&st7;  " d=" M   242.93,   613.68  L   237.96,   618.65  " /><path style="stroke-width: 1.42 ;&st7;  " d=" M   249.99,   630.68  L   254.96,   625.71  " /><path style="stroke-width: 1.42 ;&st7;  " d=" M   237.96,   625.71  L   242.93,   630.68  " /><path style="stroke-width: 1.42 ;&st7;  " d=" M   254.96,   618.65  L   249.99,   613.68  " /><path style="stroke-width: 1.42 ;&st7;  " d=" M   467.42,   613.68  L   458.92,   613.68  " /><path style="stroke-width: 1.42 ;&st7;  " d=" M   322.95,   613.68  L   314.45,   613.68  " /><path style="stroke-width: 1.42 ;&st7;  " d=" M   237.96,   418.22  L   246.46,   418.22  " /><path style="stroke-width: 1.42 ;&st7;  " d=" M   382.44,   418.22  L   390.93,   418.22  " /><text style="font-size:6px;font-family:'NSimSun';" transform="matrix(&st17;  276.76  645.13 )">W-B</text><text style="font-size:6px;font-family:'NSimSun';" transform="matrix(&st17;  421.23  645.13 )">W-B</text><text style="font-size:6px;font-family:'NSimSun';" transform="matrix(&st17;  242.76  598.39 )">W-B</text><text style="font-size:6px;font-family:'NSimSun';" transform="matrix(&st17;  387.24  598.39 )">W-B</text><text style="font-size:6px;font-family:'NSimSun';" transform="matrix(&st17;  455.23  645.13 )">W-B</text><text style="font-size:6px;font-family:'NSimSun';" transform="matrix(&st17;  310.75  645.13 )">W-B</text><text style="font-size:6px;font-family:'NSimSun';" transform="matrix(&st17;  242.76  394.29 )">L</text><text style="font-size:6px;font-family:'NSimSun';" transform="matrix(&st17;  387.24  394.41 )">Y</text><text style="font-size:6px;font-family:'NSimSun';" transform="matrix(&st16;  490.85  355.03 )">L</text><text style="font-size:6px;font-family:'NSimSun';" transform="matrix(&st16;  490.73  372.03 )">Y</text><text style="font-size:6px;font-family:'NSimSun';" transform="matrix(&st17;  242.76  449.65 )">Y</text><text style="font-size:6px;font-family:'NSimSun';" transform="matrix(&st17;  387.24  449.65 )">Y</text><path style="stroke-width: 1.42 ;&st7;  " d=" M   348.44,   307.73  L   356.94,   307.73  " /><text style="font-size:6px;font-family:'NSimSun';" transform="matrix(&st17;  302.25  284.7 )">W</text><text style="font-size:6px;font-family:'NSimSun';" transform="matrix(&st17;  149.28  126.51 )">P</text><text style="font-size:6px;font-family:'NSimSun';" transform="matrix(&st17;  327.75  283.73 )">P</text><text style="font-size:6px;font-family:'NSimSun';" transform="matrix(&st17;  339.08  286.95 )">(*6)</text><text style="font-size:6px;font-family:'NSimSun';" transform="matrix(&st17;  364.58  286.95 )">(*6)</text><text style="font-size:6px;font-family:'NSimSun';" transform="matrix(&st17;  353.24  283.93 )">B</text><text style="font-size:6px;font-family:'NSimSun';" transform="matrix(&st17;  313.58  286.95 )">(*6)</text><text style="font-size:6px;font-family:'NSimSun';" transform="matrix(&st17;  160.61  129.73 )">(*6)</text><text style="font-size:6px;font-family:'NSimSun';" transform="matrix(&st17;  50.13  129.73 )">(*6)</text><text style="font-size:6px;font-family:'NSimSun';" transform="matrix(&st17;  38.8  126.7 )">B</text><text style="font-size:6px;font-family:'NSimSun';" transform="matrix(&st17;  225.77  212.46 )">W</text><text style="font-size:6px;font-family:'NSimSun';" transform="matrix(&st17;  237.1  214.71 )">(*6)</text><text style="font-size:6px;font-family:'NSimSun';" transform="matrix(&st17;  237.1  129.73 )">(*6)</text><text style="font-size:6px;font-family:'NSimSun';" transform="matrix(&st17;  225.77  127.48 )">W</text><g ewd:figtype="conn" ewd:figID="2" ewd:code="E55,E59"><path style="stroke-width: 0.85 ;&st7;  " d=" M   565.16,   197.25  L   556.66,   197.25  " /><path style="stroke-width: 0.85 ;&st7;  " d=" M   573.64,   187.59  L   566.28,   191.84  " /><path style="stroke-width: 0.85 ;&st7;  " d=" M   568.28,   195.31  L   575.64,   191.06  " /><path style="stroke-width: 0.85 ;&st7;  " d=" M   565.16,   214.25  L   556.66,   214.25  " /><path style="stroke-width: 0.85 ;&st7;  " d=" M   692.63,   214.25  L   684.14,   214.25  " /><path style="stroke-width: 0.85 ;&st7;  " d=" M   695.76,   195.31  L   703.12,   191.06  " /><path style="stroke-width: 0.85 ;&st7;  " d=" M   701.12,   187.59  L   693.76,   191.84  " /><path style="stroke-width: 0.85 ;&st7;  " d=" M   692.63,   197.25  L   684.14,   197.25  " /><path style="stroke-width: 0.85 ;&st7;  " d=" M   773.37,    99.52  L   773.37,   108.02  " /><path style="stroke-width: 1.42 ;&st7;  " d=" M   883.85,   146.26  L   900.85,   146.26  " /><path style="stroke-width: 0.85 ;&st7;  " d=" M   892.35,   146.26  L   892.35,   154.76  " /><path style="stroke-width: 0.85 ;&st7;  " d=" M   895.18,   146.26  L   900.85,   137.76  " /><path style="stroke-width: 0.85 ;&st7;  " d=" M   883.85,   137.76  L   889.14,   145.69  " /><path style="stroke-width: 0.85 ;&st7;  " d=" M  1134.56,   231.25  L  1126.06,   231.25  " /><path style="stroke-width: 0.85 ;&st7;  " d=" M  1100.57,   180.26  L  1092.07,   180.26  " /><path style="stroke-width: 0.85 ;&st7;  " d=" M  1185.55,   231.25  L  1177.05,   231.25  " /><path style="stroke-width: 0.85 ;&st7;  " d=" M  1219.55,   180.26  L  1211.05,   180.26  " /><path style="stroke-width: 0.85 ;&st7;  " d=" M  1287.53,   231.25  L  1279.04,   231.25  " /><path style="stroke-width: 0.85 ;&st7;  " d=" M  1262.04,   180.26  L  1253.54,   180.26  " /><path style="stroke-width: 0.85 ;&st7;  " d=" M  1347.02,   231.25  L  1338.53,   231.25  " /><path style="stroke-width: 0.85 ;&st7;  " d=" M  1321.53,   180.26  L  1313.03,   180.26  " /><path style="stroke-width: 0.85 ;&st7;  " d=" M   327.20,   205.75  L   335.69,   205.75  " /><path style="stroke-width: 0.85 ;&st7;  " d=" M   301.70,   205.75  L   310.20,   205.75  " /><path style="stroke-width: 1.42 ;&st7;  " d=" M   288.95,   248.24  L  1376.77,   248.24  L  1376.77,    61.28  L   288.95,    61.28  L   288.95,   248.24  " /><path style="stroke-width: 0.28 ;&st9;  " d=" M   560.91,   197.25  L   555.24,   188.75  L   566.57,   188.75  L   560.91,   197.25  " /><path style="stroke-width: 0.85 ;&st7;  " d=" M   573.64,   187.59  L   571.31,   190.63  L   569.84,   188.09  L   573.64,   187.59  L   572.36,   188.33  L   571.37,   189.61  L   570.75,   188.54  L   572.36,   188.33  L   571.72,   188.70  L   571.40,   189.10  L   571.21,   188.77  L   571.72,   188.70  " /><path style="stroke-width: 0.85 ;&st7;  " d=" M   575.64,   191.06  L   573.31,   194.10  L   571.84,   191.56  L   575.64,   191.06  L   574.36,   191.80  L   573.38,   193.08  L   572.76,   192.01  L   574.36,   191.80  L   573.72,   192.17  L   573.41,   192.57  L   573.21,   192.24  L   573.72,   192.17  " /><path style="stroke-width: 0.28 ;&st9;  " d=" M   560.91,   214.25  L   555.24,   205.75  L   566.57,   205.75  L   560.91,   214.25  " /><path style="stroke-width: 0.85 ;&st7;  " d=" M   560.91,   214.25  L   560.91,   222.75  " /><path style="stroke-width: 0.85 ;&st7;  " d=" M   552.41,   222.75  L   569.40,   222.75  " /><path style="stroke-width: 0.85 ;&st7;  " d=" M   556.66,   225.58  L   565.16,   225.58  " /><path style="stroke-width: 0.85 ;&st7;  " d=" M   558.07,   228.41  L   563.74,   228.41  " /><path style="stroke-width: 0.85 ;&st7;  " d=" M   559.49,   231.25  L   562.32,   231.25  " /><path style="stroke-width: 0.85 ;&st7;  " d=" M   560.91,   188.75  L   560.91,   180.26  L   558.07,   178.84  L   563.74,   176.01  L   558.07,   173.17  L   563.74,   170.34  L   558.07,   167.51  L   563.74,   164.67  L   560.91,   163.26  L   560.91,   154.76  " /><path style="stroke-width: 0.85 ;&st7;  " d=" M   560.91,   197.25  L   560.91,   214.25  " /><path style="stroke-width: 0.85 ;&st7;  " d=" M   560.91,   154.76  L   586.40,   154.76  " /><path style="stroke-width: 1.42 ;&st7;  " d=" M   577.90,   137.76  L   756.37,   137.76  L   756.37,   120.77  L   577.90,   120.77  L   577.90,   137.76  " /><path style="stroke-width: 0.85 ;&st7;  " d=" M   662.89,   248.24  L   662.89,   137.76  " /><path style="stroke-width: 0.85 ;&st7;  " d=" M   688.38,   154.76  L   662.89,   154.76  " /><path style="stroke-width: 0.85 ;&st7;  " d=" M   586.40,   248.24  L   586.40,   137.76  " /><path style="stroke-width: 0.85 ;&st7;  " d=" M   688.38,   197.25  L   688.38,   214.25  " /><path style="stroke-width: 0.85 ;&st7;  " d=" M   688.38,   188.75  L   688.38,   180.26  L   685.55,   178.84  L   691.22,   176.01  L   685.55,   173.17  L   691.22,   170.34  L   685.55,   167.51  L   691.22,   164.67  L   688.38,   163.26  L   688.38,   154.76  " /><path style="stroke-width: 0.85 ;&st7;  " d=" M   686.97,   231.25  L   689.80,   231.25  " /><path style="stroke-width: 0.85 ;&st7;  " d=" M   685.55,   228.41  L   691.22,   228.41  " /><path style="stroke-width: 0.85 ;&st7;  " d=" M   684.14,   225.58  L   692.63,   225.58  " /><path style="stroke-width: 0.85 ;&st7;  " d=" M   679.89,   222.75  L   696.88,   222.75  " /><path style="stroke-width: 0.85 ;&st7;  " d=" M   688.38,   214.25  L   688.38,   222.75  " /><path style="stroke-width: 0.28 ;&st9;  " d=" M   688.38,   214.25  L   682.72,   205.75  L   694.05,   205.75  L   688.38,   214.25  " /><path style="stroke-width: 0.85 ;&st7;  " d=" M   703.12,   191.06  L   700.79,   194.10  L   699.32,   191.56  L   703.12,   191.06  L   701.84,   191.80  L   700.85,   193.08  L   700.23,   192.01  L   701.84,   191.80  L   701.20,   192.17  L   700.89,   192.57  L   700.69,   192.24  L   701.20,   192.17  " /><path style="stroke-width: 0.85 ;&st7;  " d=" M   701.12,   187.59  L   698.78,   190.63  L   697.32,   188.09  L   701.12,   187.59  L   699.84,   188.33  L   698.85,   189.61  L   698.23,   188.54  L   699.84,   188.33  L   699.19,   188.70  L   698.88,   189.10  L   698.69,   188.77  L   699.19,   188.70  " /><path style="stroke-width: 0.28 ;&st9;  " d=" M   688.38,   197.25  L   682.72,   188.75  L   694.05,   188.75  L   688.38,   197.25  " /><path style="stroke-width: 0.28 ;&st9;  " d=" M   773.37,   103.77  L   764.87,   109.43  L   764.87,    98.10  L   773.37,   103.77  " /><path style="stroke-width: 0.85 ;&st7;  " d=" M   807.36,   103.77  L   356.94,   103.77  L   356.94,   248.24  " /><path style="stroke-width: 0.85 ;&st7;  " d=" M   807.36,   112.27  L   807.36,    78.27  L   331.44,    78.27  L   331.44,   248.24  " /><path style="stroke-width: 0.85 ;&st7;  " d=" M   790.37,   103.77  L   790.37,    95.27  " /><path style="stroke-width: 0.85 ;&st7;  " d=" M   786.12,    95.27  L   794.62,    95.27  " /><path style="stroke-width: 1.42 ;&st7;  " d=" M   781.87,   112.27  L   781.87,   129.26  L   832.86,   129.26  L   832.86,   112.27  L   781.87,   112.27  " /><path style="stroke-width: 0.85 ;&st7;  " d=" M   807.36,   129.26  L   807.36,   154.76  " /><path style="stroke-width: 0.85 ;&st7;  " d=" M   889.14,   145.69  L   885.96,   143.56  L   888.40,   141.94  L   889.14,   145.69  L   888.32,   144.46  L   886.98,   143.56  L   888.00,   142.88  L   888.32,   144.46  L   887.91,   143.85  L   887.49,   143.56  L   887.81,   143.35  L   887.91,   143.85  " /><path style="stroke-width: 0.85 ;&st7;  " d=" M   883.85,   137.76  L   807.36,   137.76  " /><path style="stroke-width: 1.42 ;&st7;  " d=" M   798.87,   154.76  L   960.34,   154.76  L   960.34,   171.76  L   798.87,   171.76  L   798.87,   154.76  " /><path style="stroke-width: 1.42 ;&st7;  " d=" M   926.34,   103.77  L   926.34,   120.77  L   960.34,   120.77  L   960.34,   103.77  L   926.34,   103.77  " /><path style="stroke-width: 0.85 ;&st7;  " d=" M   943.34,   120.77  L   943.34,   129.26  " /><path style="stroke-width: 1.42 ;&st7;  " d=" M   926.34,   129.26  L   960.34,   129.26  L   960.34,   146.26  L   926.34,   146.26  L   926.34,   129.26  " /><path style="stroke-width: 0.85 ;&st7;  " d=" M   943.34,   146.26  L   943.34,   154.76  " /><path style="stroke-width: 0.85 ;&st7;  " d=" M   849.86,   171.76  L   849.86,   205.75  L   722.38,   205.75  L   722.38,   137.76  " /><path style="stroke-width: 0.85 ;&st7;  " d=" M   807.36,   171.76  L   807.36,   188.75  L   747.87,   188.75  L   747.87,   137.76  " /><path style="stroke-width: 0.85 ;&st7;  " d=" M   883.85,   248.24  L   883.85,   171.76  " /><path style="stroke-width: 0.85 ;&st7;  " d=" M   934.84,   171.76  L   934.84,   205.75  L   985.83,   205.75  L   985.83,    86.77  L  1283.29,    86.77  L  1283.29,   129.26  " /><path style="stroke-width: 0.85 ;&st7;  " d=" M   951.84,   171.76  L   951.84,   197.25  L   977.34,   197.25  L   977.34,    78.27  L  1342.78,    78.27  L  1342.78,   129.26  " /><path style="stroke-width: 0.28 ;&st9;  " d=" M  1130.31,   231.25  L  1124.64,   222.75  L  1135.98,   222.75  L  1130.31,   231.25  " /><path style="stroke-width: 0.85 ;&st7;  " d=" M  1096.32,   214.25  L  1096.32,   205.75  L  1093.48,   204.33  L  1099.15,   201.50  L  1093.48,   198.67  L  1099.15,   195.84  L  1093.48,   193.00  L  1099.15,   190.17  L  1096.32,   188.75  L  1096.32,   180.26  " /><path style="stroke-width: 0.28 ;&st9;  " d=" M  1096.32,   180.26  L  1090.65,   171.76  L  1101.98,   171.76  L  1096.32,   180.26  " /><path style="stroke-width: 0.85 ;&st7;  " d=" M  1130.31,   248.24  L  1130.31,   146.26  " /><path style="stroke-width: 0.85 ;&st7;  " d=" M  1096.32,   180.26  L  1096.32,   163.26  " /><path style="stroke-width: 0.85 ;&st7;  " d=" M  1092.07,   163.26  L  1100.57,   163.26  " /><path style="stroke-width: 0.85 ;&st7;  " d=" M  1096.32,   214.25  L  1130.31,   214.25  " /><path style="stroke-width: 1.42 ;&st7;  " d=" M  1113.31,   146.26  L  1147.31,   146.26  L  1147.31,   129.26  L  1113.31,   129.26  L  1113.31,   146.26  " /><path style="stroke-width: 0.28 ;&st9;  " d=" M  1181.30,   231.25  L  1175.64,   222.75  L  1186.97,   222.75  L  1181.30,   231.25  " /><path style="stroke-width: 0.85 ;&st7;  " d=" M  1215.30,   214.25  L  1215.30,   205.75  L  1212.46,   204.33  L  1218.13,   201.50  L  1212.46,   198.67  L  1218.13,   195.84  L  1212.46,   193.00  L  1218.13,   190.17  L  1215.30,   188.75  L  1215.30,   180.26  " /><path style="stroke-width: 0.28 ;&st9;  " d=" M  1215.30,   180.26  L  1209.63,   171.76  L  1220.96,   171.76  L  1215.30,   180.26  " /><path style="stroke-width: 0.85 ;&st7;  " d=" M  1181.30,   248.24  L  1181.30,   146.26  " /><path style="stroke-width: 0.85 ;&st7;  " d=" M  1215.30,   180.26  L  1215.30,   163.26  " /><path style="stroke-width: 0.85 ;&st7;  " d=" M  1211.05,   163.26  L  1219.55,   163.26  " /><path style="stroke-width: 0.85 ;&st7;  " d=" M  1215.30,   214.25  L  1181.30,   214.25  " /><path style="stroke-width: 1.42 ;&st7;  " d=" M  1164.30,   146.26  L  1198.30,   146.26  L  1198.30,   129.26  L  1164.30,   129.26  L  1164.30,   146.26  " /><path style="stroke-width: 0.28 ;&st9;  " d=" M  1283.29,   231.25  L  1277.62,   222.75  L  1288.95,   222.75  L  1283.29,   231.25  " /><path style="stroke-width: 0.85 ;&st7;  " d=" M  1257.79,   214.25  L  1257.79,   205.75  L  1254.96,   204.33  L  1260.62,   201.50  L  1254.96,   198.67  L  1260.62,   195.84  L  1254.96,   193.00  L  1260.62,   190.17  L  1257.79,   188.75  L  1257.79,   180.26  " /><path style="stroke-width: 0.28 ;&st9;  " d=" M  1257.79,   180.26  L  1252.12,   171.76  L  1263.46,   171.76  L  1257.79,   180.26  " /><path style="stroke-width: 0.85 ;&st7;  " d=" M  1283.29,   248.24  L  1283.29,   146.26  " /><path style="stroke-width: 0.85 ;&st7;  " d=" M  1257.79,   180.26  L  1257.79,   163.26  " /><path style="stroke-width: 0.85 ;&st7;  " d=" M  1253.54,   163.26  L  1262.04,   163.26  " /><path style="stroke-width: 0.85 ;&st7;  " d=" M  1257.79,   214.25  L  1283.29,   214.25  " /><path style="stroke-width: 1.42 ;&st7;  " d=" M  1266.29,   146.26  L  1300.28,   146.26  L  1300.28,   129.26  L  1266.29,   129.26  L  1266.29,   146.26  " /><path style="stroke-width: 0.28 ;&st9;  " d=" M  1342.78,   231.25  L  1337.11,   222.75  L  1348.44,   222.75  L  1342.78,   231.25  " /><path style="stroke-width: 0.85 ;&st7;  " d=" M  1317.28,   214.25  L  1317.28,   205.75  L  1314.45,   204.33  L  1320.11,   201.50  L  1314.45,   198.67  L  1320.11,   195.84  L  1314.45,   193.00  L  1320.11,   190.17  L  1317.28,   188.75  L  1317.28,   180.26  " /><path style="stroke-width: 0.28 ;&st9;  " d=" M  1317.28,   180.26  L  1311.61,   171.76  L  1322.95,   171.76  L  1317.28,   180.26  " /><path style="stroke-width: 0.85 ;&st7;  " d=" M  1342.78,   248.24  L  1342.78,   146.26  " /><path style="stroke-width: 0.85 ;&st7;  " d=" M  1317.28,   180.26  L  1317.28,   163.26  " /><path style="stroke-width: 0.85 ;&st7;  " d=" M  1313.03,   163.26  L  1321.53,   163.26  " /><path style="stroke-width: 0.85 ;&st7;  " d=" M  1317.28,   214.25  L  1342.78,   214.25  " /><path style="stroke-width: 1.42 ;&st7;  " d=" M  1325.78,   146.26  L  1359.77,   146.26  L  1359.77,   129.26  L  1325.78,   129.26  L  1325.78,   146.26  " /><path style="stroke-width: 0.85 ;&st7;  " d=" M   900.85,   171.76  L   900.85,   222.75  L  1002.83,   222.75  L  1002.83,   103.77  L  1130.31,   103.77  L  1130.31,   129.26  " /><path style="stroke-width: 0.85 ;&st7;  " d=" M   917.85,   171.76  L   917.85,   214.25  L   994.33,   214.25  L   994.33,    95.27  L  1181.30,    95.27  L  1181.30,   129.26  " /><path style="stroke-width: 0.85 ;&st7;  " d=" M   849.86,   137.76  L   849.86,   120.77  " /><path style="stroke-width: 0.85 ;&st7;  " d=" M   845.61,   120.77  L   854.11,   120.77  " /><path style="stroke-width: 0.85 ;&st7;  " d=" M   900.85,   137.76  L   900.85,   120.77  " /><path style="stroke-width: 0.85 ;&st7;  " d=" M   896.60,   120.77  L   905.10,   120.77  " /><path style="stroke-width: 0.85 ;&st7;  " d=" M   806.17,    77.27  L   805.90,    77.74  L   805.81,    78.27  L   805.90,    78.81  L   806.17,    79.28  L   806.59,    79.62  L   807.09,    79.81  L   807.64,    79.81  L   808.14,    79.62  L   808.56,    79.28  L   808.83,    78.81  L   808.92,    78.27  L   808.83,    77.74  L   808.56,    77.27  L   808.14,    76.92  L   807.64,    76.74  L   807.09,    76.74  L   806.59,    76.92  L   806.17,    77.27  L   806.57,    77.98  L   806.57,    78.56  L   806.94,    79.01  L   807.51,    79.11  L   808.02,    78.82  L   808.21,    78.27  L   808.02,    77.73  L   807.51,    77.44  L   806.94,    77.54  L   807.36,    78.27  " /><path style="stroke-width: 0.85 ;&st7;  " d=" M   806.17,   102.77  L   805.90,   103.24  L   805.81,   103.77  L   805.90,   104.30  L   806.17,   104.77  L   806.59,   105.12  L   807.09,   105.30  L   807.64,   105.30  L   808.14,   105.12  L   808.56,   104.77  L   808.83,   104.30  L   808.92,   103.77  L   808.83,   103.24  L   808.56,   102.77  L   808.14,   102.42  L   807.64,   102.23  L   807.09,   102.23  L   806.59,   102.42  L   806.17,   102.77  L   806.57,   103.48  L   806.57,   104.06  L   806.94,   104.50  L   807.51,   104.60  L   808.02,   104.31  L   808.21,   103.77  L   808.02,   103.22  L   807.51,   102.93  L   806.94,   103.03  L   807.36,   103.77  " /><path style="stroke-width: 0.85 ;&st7;  " d=" M   789.17,   102.77  L   788.90,   103.24  L   788.81,   103.77  L   788.90,   104.30  L   789.17,   104.77  L   789.59,   105.12  L   790.10,   105.30  L   790.64,   105.30  L   791.15,   105.12  L   791.56,   104.77  L   791.83,   104.30  L   791.93,   103.77  L   791.83,   103.24  L   791.56,   102.77  L   791.15,   102.42  L   790.64,   102.23  L   790.10,   102.23  L   789.59,   102.42  L   789.17,   102.77  L   789.57,   103.48  L   789.57,   104.06  L   789.94,   104.50  L   790.51,   104.60  L   791.02,   104.31  L   791.22,   103.77  L   791.02,   103.22  L   790.51,   102.93  L   789.94,   103.03  L   790.37,   103.77  " /><path style="stroke-width: 0.85 ;&st7;  " d=" M   848.67,   136.76  L   848.39,   137.23  L   848.30,   137.76  L   848.39,   138.30  L   848.67,   138.77  L   849.08,   139.11  L   849.59,   139.30  L   850.13,   139.30  L   850.64,   139.11  L   851.05,   138.77  L   851.32,   138.30  L   851.42,   137.76  L   851.32,   137.23  L   851.05,   136.76  L   850.64,   136.41  L   850.13,   136.23  L   849.59,   136.23  L   849.08,   136.41  L   848.67,   136.76  L   849.06,   137.47  L   849.06,   138.05  L   849.43,   138.50  L   850.00,   138.60  L   850.51,   138.31  L   850.71,   137.76  L   850.51,   137.22  L   850.00,   136.93  L   849.43,   137.03  L   849.86,   137.76  " /><path style="stroke-width: 0.85 ;&st7;  " d=" M  1129.12,   213.25  L  1128.85,   213.72  L  1128.75,   214.25  L  1128.85,   214.78  L  1129.12,   215.25  L  1129.53,   215.60  L  1130.04,   215.79  L  1130.58,   215.79  L  1131.09,   215.60  L  1131.50,   215.25  L  1131.78,   214.78  L  1131.87,   214.25  L  1131.78,   213.72  L  1131.50,   213.25  L  1131.09,   212.90  L  1130.58,   212.71  L  1130.04,   212.71  L  1129.53,   212.90  L  1129.12,   213.25  L  1129.51,   213.96  L  1129.51,   214.54  L  1129.89,   214.99  L  1130.46,   215.09  L  1130.96,   214.80  L  1131.16,   214.25  L  1130.96,   213.70  L  1130.46,   213.41  L  1129.89,   213.51  L  1130.31,   214.25  " /><path style="stroke-width: 0.85 ;&st7;  " d=" M  1180.11,   213.25  L  1179.84,   213.72  L  1179.74,   214.25  L  1179.84,   214.78  L  1180.11,   215.25  L  1180.52,   215.60  L  1181.03,   215.79  L  1181.57,   215.79  L  1182.08,   215.60  L  1182.49,   215.25  L  1182.77,   214.78  L  1182.86,   214.25  L  1182.77,   213.72  L  1182.49,   213.25  L  1182.08,   212.90  L  1181.57,   212.71  L  1181.03,   212.71  L  1180.52,   212.90  L  1180.11,   213.25  L  1180.50,   213.96  L  1180.50,   214.54  L  1180.88,   214.99  L  1181.45,   215.09  L  1181.95,   214.80  L  1182.15,   214.25  L  1181.95,   213.70  L  1181.45,   213.41  L  1180.88,   213.51  L  1181.30,   214.25  " /><path style="stroke-width: 0.85 ;&st7;  " d=" M  1282.09,   213.25  L  1281.82,   213.72  L  1281.73,   214.25  L  1281.82,   214.78  L  1282.09,   215.25  L  1282.51,   215.60  L  1283.01,   215.79  L  1283.56,   215.79  L  1284.06,   215.60  L  1284.48,   215.25  L  1284.75,   214.78  L  1284.84,   214.25  L  1284.75,   213.72  L  1284.48,   213.25  L  1284.06,   212.90  L  1283.56,   212.71  L  1283.01,   212.71  L  1282.51,   212.90  L  1282.09,   213.25  L  1282.49,   213.96  L  1282.49,   214.54  L  1282.86,   214.99  L  1283.43,   215.09  L  1283.94,   214.80  L  1284.13,   214.25  L  1283.94,   213.70  L  1283.43,   213.41  L  1282.86,   213.51  L  1283.29,   214.25  " /><path style="stroke-width: 0.85 ;&st7;  " d=" M  1341.58,   213.25  L  1341.31,   213.72  L  1341.22,   214.25  L  1341.31,   214.78  L  1341.58,   215.25  L  1342.00,   215.60  L  1342.50,   215.79  L  1343.05,   215.79  L  1343.55,   215.60  L  1343.97,   215.25  L  1344.24,   214.78  L  1344.33,   214.25  L  1344.24,   213.72  L  1343.97,   213.25  L  1343.55,   212.90  L  1343.05,   212.71  L  1342.50,   212.71  L  1342.00,   212.90  L  1341.58,   213.25  L  1341.98,   213.96  L  1341.98,   214.54  L  1342.35,   214.99  L  1342.92,   215.09  L  1343.43,   214.80  L  1343.62,   214.25  L  1343.43,   213.70  L  1342.92,   213.41  L  1342.35,   213.51  L  1342.78,   214.25  " /><path style="stroke-width: 0.85 ;&st7;  " d=" M   661.70,   153.76  L   661.42,   154.23  L   661.33,   154.76  L   661.42,   155.29  L   661.70,   155.76  L   662.11,   156.11  L   662.62,   156.30  L   663.16,   156.30  L   663.67,   156.11  L   664.08,   155.76  L   664.35,   155.29  L   664.45,   154.76  L   664.35,   154.23  L   664.08,   153.76  L   663.67,   153.41  L   663.16,   153.22  L   662.62,   153.22  L   662.11,   153.41  L   661.70,   153.76  L   662.09,   154.47  L   662.09,   155.05  L   662.46,   155.50  L   663.04,   155.60  L   663.54,   155.31  L   663.74,   154.76  L   663.54,   154.21  L   663.04,   153.92  L   662.46,   154.02  L   662.89,   154.76  " /><path style="stroke-width: 0.85 ;&st7;  " d=" M   585.21,   153.76  L   584.94,   154.23  L   584.84,   154.76  L   584.94,   155.29  L   585.21,   155.76  L   585.62,   156.11  L   586.13,   156.30  L   586.67,   156.30  L   587.18,   156.11  L   587.59,   155.76  L   587.87,   155.29  L   587.96,   154.76  L   587.87,   154.23  L   587.59,   153.76  L   587.18,   153.41  L   586.67,   153.22  L   586.13,   153.22  L   585.62,   153.41  L   585.21,   153.76  L   585.60,   154.47  L   585.60,   155.05  L   585.98,   155.50  L   586.55,   155.60  L   587.05,   155.31  L   587.25,   154.76  L   587.05,   154.21  L   586.55,   153.92  L   585.98,   154.02  L   586.40,   154.76  " /><path style="stroke-width: 0.85 ;&st7;  " d=" M   806.17,   136.76  L   805.90,   137.23  L   805.81,   137.76  L   805.90,   138.30  L   806.17,   138.77  L   806.59,   139.11  L   807.09,   139.30  L   807.64,   139.30  L   808.14,   139.11  L   808.56,   138.77  L   808.83,   138.30  L   808.92,   137.76  L   808.83,   137.23  L   808.56,   136.76  L   808.14,   136.41  L   807.64,   136.23  L   807.09,   136.23  L   806.59,   136.41  L   806.17,   136.76  L   806.57,   137.47  L   806.57,   138.05  L   806.94,   138.50  L   807.51,   138.60  L   808.02,   138.31  L   808.21,   137.76  L   808.02,   137.22  L   807.51,   136.93  L   806.94,   137.03  L   807.36,   137.76  " /><path style="stroke-width: 0.85 ;&st7;  " d=" M   807.36,    78.27  L   807.36,    69.77  L   305.95,    69.77  L   305.95,   248.24  " /><path style="stroke-width: 0.28 ;&st9;  " d=" M   331.44,   205.75  L   337.11,   214.25  L   325.78,   214.25  L   331.44,   205.75  " /><path style="stroke-width: 0.28 ;&st9;  " d=" M   305.95,   205.75  L   311.61,   214.25  L   300.28,   214.25  L   305.95,   205.75  " /><text style="font-size:6px;font-family:'NSimSun';" transform="matrix(&st17; 553.25 200.92)" ewd:textID="20">左转向</text><text style="font-size:6px;font-family:'NSimSun';" transform="matrix(&st17; 680.72 200.96)" ewd:textID="21">右转向</text><text style="font-size:6px;font-family:'NSimSun';" transform="matrix(&st16;  334.03  244.55 )">IG</text><text style="font-size:6px;font-family:'NSimSun';" transform="matrix(&st16;  1091.41  159.56 )">IG+</text><text style="font-size:6px;font-family:'NSimSun';" transform="matrix(&st16;  1125.76  139.73 )">I/F</text><text style="font-size:6px;font-family:'NSimSun';" transform="matrix(&st16;  1210.39  159.56 )">IG+</text><text style="font-size:6px;font-family:'NSimSun';" transform="matrix(&st16;  1176.75  139.73 )">I/F</text><text style="font-size:6px;font-family:'NSimSun';" transform="matrix(&st16;  1252.89  159.56 )">IG+</text><text style="font-size:6px;font-family:'NSimSun';" transform="matrix(&st16;  1278.73  139.73 )">I/F</text><text style="font-size:6px;font-family:'NSimSun';" transform="matrix(&st16;  1311.87  159.56 )">12V</text><text style="font-size:6px;font-family:'NSimSun';" transform="matrix(&st16;  1338.22  139.73 )">I/F</text><text style="font-size:6px;font-family:'NSimSun';" transform="matrix(&st16;  359.52  244.55 )">B</text><text style="font-size:6px;font-family:'NSimSun';" transform="matrix(&st16; 934.55 114.24)" ewd:textID="5" ewd:horAlign="center">蜂鸣器</text><text style="font-size:6px;font-family:'NSimSun';" transform="matrix(&st16;  938.79  139.73 )">I/F</text><text style="font-size:6px;font-family:'NSimSun';" transform="matrix(&st16;  877.55  165.23 )">CPU</text><text style="font-size:6px;font-family:'NSimSun';" transform="matrix(&st16;  799.52  122.73 )">5V IC</text><text style="font-size:6px;font-family:'NSimSun';" transform="matrix(&st16;  842.51  117.07 )">5V+B</text><text style="font-size:6px;font-family:'NSimSun';" transform="matrix(&st16;  784.96  91.57 )">12V</text><text style="font-size:6px;font-family:'NSimSun';" transform="matrix(&st16; 650.11 131.23)" ewd:textID="7" ewd:horAlign="center">闪光灯继电器</text><text style="font-size:6px;font-family:'NSimSun';" transform="matrix(&st16;  896.99  117.07 )">5V</text><text style="font-size:6px;font-family:'NSimSun';" transform="matrix(&st16;  886.44  244.55 )">ET</text><text style="font-size:6px;font-family:'NSimSun';" transform="matrix(&st16;  588.99  244.55 )">LL</text><text style="font-size:6px;font-family:'NSimSun';" transform="matrix(&st16;  665.47  244.55 )">LR</text><text style="font-size:6px;font-family:'NSimSun';" transform="matrix(&st16;  1132.89  244.55 )">L</text><text style="font-size:6px;font-family:'NSimSun';" transform="matrix(&st16;  1183.89  244.55 )">EL</text><text style="font-size:6px;font-family:'NSimSun';" transform="matrix(&st16;  1285.87  244.55 )">ER</text><text style="font-size:6px;font-family:'NSimSun';" transform="matrix(&st16;  1345.36  244.55 )">HAZ</text><text style="font-size:6px;font-family:'NSimSun';" transform="matrix(&st16;  308.53  244.55 )">B</text><text style="font-size:6px;font-family:'NSimSun';" transform="matrix(&st16;  574.61  254.75 )">13</text><text style="font-size:6px;font-family:'NSimSun';" transform="matrix(&st16;  584.21  254.75 )">B</text><path style="stroke-width: 1.42 ;&st7;   " d=" M   590.93,   252.78  C   590.93    250.27    588.91    248.24    586.40    248.24  " /><path style="stroke-width: 1.42 ;&st7;   " d=" M   586.40,   248.24  C   583.90    248.24    581.87    250.27    581.87    252.78  " /><path style="stroke-width: 1.42 ;&st7;   " d=" M   581.87,   252.78  C   581.87    255.28    583.90    257.31    586.40    257.31  " /><path style="stroke-width: 1.42 ;&st7;   " d=" M   586.40,   257.31  C   588.91    257.31    590.93    255.28    590.93    252.78  " /><text style="font-size:6px;font-family:'NSimSun';" transform="matrix(&st16;  319.65  254.75 )">39</text><path style="stroke-width: 1.42 ;&st7;   " d=" M   335.98,   252.78  C   335.98    250.27    333.95    248.24    331.44    248.24  " /><path style="stroke-width: 1.42 ;&st7;   " d=" M   331.44,   248.24  C   328.94    248.24    326.91    250.27    326.91    252.78  " /><path style="stroke-width: 1.42 ;&st7;   " d=" M   326.91,   252.78  C   326.91    255.28    328.94    257.31    331.44    257.31  " /><path style="stroke-width: 1.42 ;&st7;   " d=" M   331.44,   257.31  C   333.95    257.31    335.98    255.28    335.98    252.78  " /><text style="font-size:6px;font-family:'NSimSun';" transform="matrix(&st16;  329.14  254.75 )">A</text><text style="font-size:6px;font-family:'NSimSun';" transform="matrix(&st16;  654.2  254.75 )">7</text><path style="stroke-width: 1.42 ;&st7;   " d=" M   667.42,   252.78  C   667.42    250.27    665.39    248.24    662.89    248.24  " /><path style="stroke-width: 1.42 ;&st7;   " d=" M   662.89,   248.24  C   660.39    248.24    658.36    250.27    658.36    252.78  " /><path style="stroke-width: 1.42 ;&st7;   " d=" M   658.36,   252.78  C   658.36    255.28    660.39    257.31    662.89    257.31  " /><path style="stroke-width: 1.42 ;&st7;   " d=" M   662.89,   257.31  C   665.39    257.31    667.42    255.28    667.42    252.78  " /><text style="font-size:6px;font-family:'NSimSun';" transform="matrix(&st16;  660.7  254.75 )">B</text><text style="font-size:6px;font-family:'NSimSun';" transform="matrix(&st16;  294.15  254.75 )">40</text><path style="stroke-width: 1.42 ;&st7;   " d=" M   310.48,   252.78  C   310.48    250.27    308.45    248.24    305.95    248.24  " /><path style="stroke-width: 1.42 ;&st7;   " d=" M   305.95,   248.24  C   303.45    248.24    301.42    250.27    301.42    252.78  " /><path style="stroke-width: 1.42 ;&st7;   " d=" M   301.42,   252.78  C   301.42    255.28    303.45    257.31    305.95    257.31  " /><path style="stroke-width: 1.42 ;&st7;   " d=" M   305.95,   257.31  C   308.45    257.31    310.48    255.28    310.48    252.78  " /><text style="font-size:6px;font-family:'NSimSun';" transform="matrix(&st16;  303.64  254.75 )">A</text><text style="font-size:6px;font-family:'NSimSun';" transform="matrix(&st16;  872.06  254.75 )">21</text><text style="font-size:6px;font-family:'NSimSun';" transform="matrix(&st16;  881.55  254.75 )">A</text><path style="stroke-width: 1.42 ;&st7;   " d=" M   888.38,   252.78  C   888.38    250.27    886.36    248.24    883.85    248.24  " /><path style="stroke-width: 1.42 ;&st7;   " d=" M   883.85,   248.24  C   881.35    248.24    879.32    250.27    879.32    252.78  " /><path style="stroke-width: 1.42 ;&st7;   " d=" M   879.32,   252.78  C   879.32    255.28    881.35    257.31    883.85    257.31  " /><path style="stroke-width: 1.42 ;&st7;   " d=" M   883.85,   257.31  C   886.36    257.31    888.38    255.28    888.38    252.78  " /><text style="font-size:6px;font-family:'NSimSun';" transform="matrix(&st16;  1118.52  254.75 )">29</text><path style="stroke-width: 1.42 ;&st7;   " d=" M  1134.84,   252.78  C  1134.84    250.27   1132.81    248.24   1130.31    248.24  " /><path style="stroke-width: 1.42 ;&st7;   " d=" M  1130.31,   248.24  C  1127.81    248.24   1125.78    250.27   1125.78    252.78  " /><path style="stroke-width: 1.42 ;&st7;   " d=" M  1125.78,   252.78  C  1125.78    255.28   1127.81    257.31   1130.31    257.31  " /><path style="stroke-width: 1.42 ;&st7;   " d=" M  1130.31,   257.31  C  1132.81    257.31   1134.84    255.28   1134.84    252.78  " /><text style="font-size:6px;font-family:'NSimSun';" transform="matrix(&st16;  1128.01  254.75 )">A</text><text style="font-size:6px;font-family:'NSimSun';" transform="matrix(&st16;  1169.51  254.75 )">10</text><path style="stroke-width: 1.42 ;&st7;   " d=" M  1185.84,   252.78  C  1185.84    250.27   1183.81    248.24   1181.30    248.24  " /><path style="stroke-width: 1.42 ;&st7;   " d=" M  1181.30,   248.24  C  1178.80    248.24   1176.77    250.27   1176.77    252.78  " /><path style="stroke-width: 1.42 ;&st7;   " d=" M  1176.77,   252.78  C  1176.77    255.28   1178.80    257.31   1181.30    257.31  " /><path style="stroke-width: 1.42 ;&st7;   " d=" M  1181.30,   257.31  C  1183.81    257.31   1185.84    255.28   1185.84    252.78  " /><text style="font-size:6px;font-family:'NSimSun';" transform="matrix(&st16;  1179.11  254.75 )">B</text><text style="font-size:6px;font-family:'NSimSun';" transform="matrix(&st16;  1274.59  254.75 )">9</text><path style="stroke-width: 1.42 ;&st7;   " d=" M  1287.82,   252.78  C  1287.82    250.27   1285.79    248.24   1283.29    248.24  " /><path style="stroke-width: 1.42 ;&st7;   " d=" M  1283.29,   248.24  C  1280.78    248.24   1278.75    250.27   1278.75    252.78  " /><path style="stroke-width: 1.42 ;&st7;   " d=" M  1278.75,   252.78  C  1278.75    255.28   1280.78    257.31   1283.29    257.31  " /><path style="stroke-width: 1.42 ;&st7;   " d=" M  1283.29,   257.31  C  1285.79    257.31   1287.82    255.28   1287.82    252.78  " /><text style="font-size:6px;font-family:'NSimSun';" transform="matrix(&st16;  1281.1  254.75 )">B</text><text style="font-size:6px;font-family:'NSimSun';" transform="matrix(&st16;  1334.08  254.75 )">3</text><text style="font-size:6px;font-family:'NSimSun';" transform="matrix(&st16;  1340.59  254.75 )">B</text><path style="stroke-width: 1.42 ;&st7;   " d=" M  1347.31,   252.78  C  1347.31    250.27   1345.28    248.24   1342.78    248.24  " /><path style="stroke-width: 1.42 ;&st7;   " d=" M  1342.78,   248.24  C  1340.27    248.24   1338.24    250.27   1338.24    252.78  " /><path style="stroke-width: 1.42 ;&st7;   " d=" M  1338.24,   252.78  C  1338.24    255.28   1340.27    257.31   1342.78    257.31  " /><path style="stroke-width: 1.42 ;&st7;   " d=" M  1342.78,   257.31  C  1345.28    257.31   1347.31    255.28   1347.31    252.78  " /><text style="font-size:6px;font-family:'NSimSun';" transform="matrix(&st16;  348.25  254.75 )">1</text><text style="font-size:6px;font-family:'NSimSun';" transform="matrix(&st16;  354.75  254.75 )">B</text><path style="stroke-width: 1.42 ;&st7;   " d=" M   361.47,   252.78  C   361.47    250.27    359.44    248.24    356.94    248.24  " /><path style="stroke-width: 1.42 ;&st7;   " d=" M   356.94,   248.24  C   354.44    248.24    352.41    250.27    352.41    252.78  " /><path style="stroke-width: 1.42 ;&st7;   " d=" M   352.41,   252.78  C   352.41    255.28    354.44    257.31    356.94    257.31  " /><path style="stroke-width: 1.42 ;&st7;   " d=" M   356.94,   257.31  C   359.44    257.31    361.47    255.28    361.47    252.78  " /><g ewd:figtype="title"><text style="font-size:6px;font-family:'NSimSun';" transform="matrix(&st16;  285.55  57.58 )" ewd:textID="6">组合仪表总成</text><text style="font-size:6px;font-family:'NSimSun';" transform="matrix(&st16;  285.54  50.47 )">E55(A),E59(B)</text></g></g><g ewd:code="H2,H3" ewd:figID="11" ewd:comment="3,4" ewd:figtype="conn"><text style="font-size:6px;font-family:'NSimSun';" transform="matrix(&st16;  388.82  558.99 )">E</text><text style="font-size:6px;font-family:'NSimSun';" transform="matrix(&st16; 380.33 539.45)" ewd:textID="19" ewd:horAlign="center">转动</text><text style="font-size:6px;font-family:'NSimSun';" transform="matrix(&st16;  388.75  519.33 )">B</text><path style="stroke-width: 1.42 ;&st7;  " d=" M   365.44,   511.70  L   365.44,   562.69  L   407.93,   562.69  L   407.93,   511.70  L   365.44,   511.70  " /><text style="font-size:6px;font-family:'NSimSun';" transform="matrix(&st16;  382.24  569.19 )">5</text><text style="font-size:6px;font-family:'NSimSun';" transform="matrix(&st16;  382.24  578.26 )">8</text><path style="stroke-width: 1.42 ;&st7;   " d=" M   395.47,   576.29  C   395.47    573.79    393.44    571.76    390.93    571.76  " /><path style="stroke-width: 1.42 ;&st7;   " d=" M   390.93,   571.76  C   388.43    571.76    386.40    573.79    386.40    576.29  " /><path style="stroke-width: 1.42 ;&st7;   " d=" M   386.40,   576.29  C   386.40    578.79    388.43    580.82    390.93    580.82  " /><path style="stroke-width: 1.42 ;&st7;   " d=" M   390.93,   580.82  C   393.44    580.82    395.47    578.79    395.47    576.29  " /><text style="font-size:6px;font-family:'NSimSun';" transform="matrix(&st16;  388.75  578.26 )">B</text><path style="stroke-width: 1.42 ;&st7;   " d=" M   395.47,   567.22  C   395.47    564.72    393.44    562.69    390.93    562.69  " /><path style="stroke-width: 1.42 ;&st7;   " d=" M   390.93,   562.69  C   388.43    562.69    386.40    564.72    386.40    567.22  " /><path style="stroke-width: 1.42 ;&st7;   " d=" M   386.40,   567.22  C   386.40    569.73    388.43    571.76    390.93    571.76  " /><path style="stroke-width: 1.42 ;&st7;   " d=" M   390.93,   571.76  C   393.44    571.76    395.47    569.73    395.47    567.22  " /><text style="font-size:6px;font-family:'NSimSun';" transform="matrix(&st16;  388.63  569.19 )">A</text><text style="font-size:6px;font-family:'NSimSun';" transform="matrix(&st16;  382.24  509.14 )">7</text><text style="font-size:6px;font-family:'NSimSun';" transform="matrix(&st16;  382.24  500.07 )">4</text><path style="stroke-width: 1.42 ;&st7;   " d=" M   395.47,   507.17  C   395.47    504.66    393.44    502.63    390.93    502.63  " /><path style="stroke-width: 1.42 ;&st7;   " d=" M   390.93,   502.63  C   388.43    502.63    386.40    504.66    386.40    507.17  " /><path style="stroke-width: 1.42 ;&st7;   " d=" M   386.40,   507.17  C   386.40    509.67    388.43    511.70    390.93    511.70  " /><path style="stroke-width: 1.42 ;&st7;   " d=" M   390.93,   511.70  C   393.44    511.70    395.47    509.67    395.47    507.17  " /><path style="stroke-width: 1.42 ;&st7;   " d=" M   395.47,   498.10  C   395.47    495.60    393.44    493.57    390.93    493.57  " /><path style="stroke-width: 1.42 ;&st7;   " d=" M   390.93,   493.57  C   388.43    493.57    386.40    495.60    386.40    498.10  " /><path style="stroke-width: 1.42 ;&st7;   " d=" M   386.40,   498.10  C   386.40    500.61    388.43    502.63    390.93    502.63  " /><path style="stroke-width: 1.42 ;&st7;   " d=" M   390.93,   502.63  C   393.44    502.63    395.47    500.61    395.47    498.10  " /><text style="font-size:6px;font-family:'NSimSun';" transform="matrix(&st16;  388.75  509.14 )">B</text><text style="font-size:6px;font-family:'NSimSun';" transform="matrix(&st16;  388.63  500.07 )">A</text><g ewd:figtype="title"><text style="font-size:6px;font-family:'NSimSun';" transform="matrix(&st17; 354.69 565.59)">H2(A),H3(B)</text><text style="font-size:6px;font-family:'NSimSun';" transform="matrix(&st17; 361.79 565.60)" ewd:textID="15">左侧车外后视镜总成<tspan x="0 " dy="6.0" /></text></g><g ewd:code="" ewd:figID="54" ewd:comment="3" ewd:figtype="commref"><text style="font-size:6px;font-family:'NSimSun';" transform="matrix(&st16;  396.03  569.19 )">(*3)</text></g><g ewd:code="" ewd:figID="56" ewd:comment="4" ewd:figtype="commref"><text style="font-size:6px;font-family:'NSimSun';" transform="matrix(&st16;  396.03  578.26 )">(*4)</text></g><g ewd:code="" ewd:figID="59" ewd:comment="3" ewd:figtype="commref"><text style="font-size:6px;font-family:'NSimSun';" transform="matrix(&st16;  396.03  500.07 )">(*3)</text></g><g ewd:code="" ewd:figID="60" ewd:comment="4" ewd:figtype="commref"><text style="font-size:6px;font-family:'NSimSun';" transform="matrix(&st16;  396.03  509.14 )">(*4)</text></g></g><g ewd:code="G2,G3" ewd:figID="12" ewd:comment="3,4" ewd:figtype="conn"><path style="stroke-width: 1.42 ;&st7;  " d=" M   220.96,   511.70  L   220.96,   562.69  L   263.46,   562.69  L   263.46,   511.70  L   220.96,   511.70  " /><text style="font-size:6px;font-family:'NSimSun';" transform="matrix(&st16;  244.27  519.33 )">B</text><text style="font-size:6px;font-family:'NSimSun';" transform="matrix(&st16; 235.85 539.45)" ewd:textID="19" ewd:horAlign="center">转动</text><text style="font-size:6px;font-family:'NSimSun';" transform="matrix(&st16;  244.35  558.99 )">E</text><text style="font-size:6px;font-family:'NSimSun';" transform="matrix(&st16;  237.76  569.19 )">5</text><text style="font-size:6px;font-family:'NSimSun';" transform="matrix(&st16;  237.76  578.26 )">8</text><path style="stroke-width: 1.42 ;&st7;   " d=" M   250.99,   576.29  C   250.99    573.79    248.96    571.76    246.46    571.76  " /><path style="stroke-width: 1.42 ;&st7;   " d=" M   246.46,   571.76  C   243.96    571.76    241.93    573.79    241.93    576.29  " /><path style="stroke-width: 1.42 ;&st7;   " d=" M   241.93,   576.29  C   241.93    578.79    243.96    580.82    246.46    580.82  " /><path style="stroke-width: 1.42 ;&st7;   " d=" M   246.46,   580.82  C   248.96    580.82    250.99    578.79    250.99    576.29  " /><text style="font-size:6px;font-family:'NSimSun';" transform="matrix(&st16;  244.27  578.26 )">B</text><path style="stroke-width: 1.42 ;&st7;   " d=" M   250.99,   567.22  C   250.99    564.72    248.96    562.69    246.46    562.69  " /><path style="stroke-width: 1.42 ;&st7;   " d=" M   246.46,   562.69  C   243.96    562.69    241.93    564.72    241.93    567.22  " /><path style="stroke-width: 1.42 ;&st7;   " d=" M   241.93,   567.22  C   241.93    569.73    243.96    571.76    246.46    571.76  " /><path style="stroke-width: 1.42 ;&st7;   " d=" M   246.46,   571.76  C   248.96    571.76    250.99    569.73    250.99    567.22  " /><text style="font-size:6px;font-family:'NSimSun';" transform="matrix(&st16;  244.15  569.19 )">A</text><text style="font-size:6px;font-family:'NSimSun';" transform="matrix(&st16;  237.76  509.14 )">7</text><text style="font-size:6px;font-family:'NSimSun';" transform="matrix(&st16;  237.76  500.07 )">4</text><path style="stroke-width: 1.42 ;&st7;   " d=" M   250.99,   507.17  C   250.99    504.66    248.96    502.63    246.46    502.63  " /><path style="stroke-width: 1.42 ;&st7;   " d=" M   246.46,   502.63  C   243.96    502.63    241.93    504.66    241.93    507.17  " /><path style="stroke-width: 1.42 ;&st7;   " d=" M   241.93,   507.17  C   241.93    509.67    243.96    511.70    246.46    511.70  " /><path style="stroke-width: 1.42 ;&st7;   " d=" M   246.46,   511.70  C   248.96    511.70    250.99    509.67    250.99    507.17  " /><path style="stroke-width: 1.42 ;&st7;   " d=" M   250.99,   498.10  C   250.99    495.60    248.96    493.57    246.46    493.57  " /><path style="stroke-width: 1.42 ;&st7;   " d=" M   246.46,   493.57  C   243.96    493.57    241.93    495.60    241.93    498.10  " /><path style="stroke-width: 1.42 ;&st7;   " d=" M   241.93,   498.10  C   241.93    500.61    243.96    502.63    246.46    502.63  " /><path style="stroke-width: 1.42 ;&st7;   " d=" M   246.46,   502.63  C   248.96    502.63    250.99    500.61    250.99    498.10  " /><text style="font-size:6px;font-family:'NSimSun';" transform="matrix(&st16;  244.27  509.14 )">B</text><text style="font-size:6px;font-family:'NSimSun';" transform="matrix(&st16;  244.15  500.07 )">A</text><g ewd:figtype="title"><text style="font-size:6px;font-family:'NSimSun';" transform="matrix(&st17; 210.21 565.59)">G2(A),G3(B)</text><text style="font-size:6px;font-family:'NSimSun';" transform="matrix(&st17; 217.32 565.60)" ewd:textID="16">右侧车外后视镜总成<tspan x="0 " dy="6.0" /></text></g><g ewd:code="" ewd:figID="57" ewd:comment="3" ewd:figtype="commref"><text style="font-size:6px;font-family:'NSimSun';" transform="matrix(&st16;  251.55  569.19 )">(*3)</text></g><g ewd:code="" ewd:figID="58" ewd:comment="4" ewd:figtype="commref"><text style="font-size:6px;font-family:'NSimSun';" transform="matrix(&st16;  251.55  578.26 )">(*4)</text></g><g ewd:code="" ewd:figID="61" ewd:comment="3" ewd:figtype="commref"><text style="font-size:6px;font-family:'NSimSun';" transform="matrix(&st16;  251.55  500.07 )">(*3)</text></g><g ewd:code="" ewd:figID="62" ewd:comment="4" ewd:figtype="commref"><text style="font-size:6px;font-family:'NSimSun';" transform="matrix(&st16;  251.55  509.14 )">(*4)</text></g></g><g ewd:figtype="rb" ewd:figID="15" ewd:code="FUSE17"><path style="stroke-width: 1.42 ;&st7;  " d=" M    44.62,   103.77  L    40.37,   103.77  " /><path style="stroke-width: 1.42 ;&st7;  " d=" M    44.62,    95.27  L    40.37,    95.27  " /><path style="stroke-width: 0.85 ;&st7;  " d=" M    42.49,    69.77  L    42.49,    95.27  " /><path style="stroke-width: 1.42 ;&st7;   " d=" M    48.87,    99.52  C    48.87     97.17     46.96     95.27     44.62     95.27  " /><path style="stroke-width: 1.42 ;&st7;   " d=" M    44.62,   103.77  C    46.96    103.77     48.87    101.87     48.87     99.52  " /><path style="stroke-width: 1.42 ;&st7;   " d=" M    36.12,    99.52  C    36.12    101.87     38.02    103.77     40.37    103.77  " /><path style="stroke-width: 1.42 ;&st7;   " d=" M    40.37,    95.27  C    38.02     95.27     36.12     97.17     36.12     99.52  " /><path style="stroke-width: 0.28 ;&st9;  " d=" M    42.49,    90.37  L    39.66,    87.54  L    39.66,    91.79  L    42.49,    94.62  L    45.33,    91.79  L    45.33,    87.54  L    42.49,    90.37  " /><text style="font-size:6px;font-family:'NSimSun';" transform="matrix(&st16;  34.45  32.08 )">(BAT)</text><text style="font-size:6px;font-family:'NSimSun';" transform="matrix(&st16;  36.31  86.47 )">2</text><text style="font-size:6px;font-family:'NSimSun';" transform="matrix(&st16;  40.69  101.49 )">1</text><text style="font-size:6px;font-family:'NSimSun';" transform="matrix(&st16;  58.92  56.17 )">10A <tspan x="0 " dy="6.0">TURN&amp;HAZ</tspan></text><path style="stroke-width: 1.42 ;&st7;   " d=" M    42.49,    47.11  C    39.75     48.72     38.84     52.25     40.46     54.99  " /><path style="stroke-width: 1.42 ;&st7;   " d=" M    40.46,    54.99  C    40.98     55.87     41.61     56.51     42.49     57.03  " /><path style="stroke-width: 0.85 ;&st7;   " d=" M    43.91,    68.36  C    43.91     67.57     43.28     66.94     42.49     66.94  " /><path style="stroke-width: 0.85 ;&st7;   " d=" M    42.49,    66.94  C    41.71     66.94     41.08     67.57     41.08     68.36  " /><path style="stroke-width: 0.85 ;&st7;   " d=" M    41.08,    68.36  C    41.08     69.14     41.71     69.77     42.49     69.77  " /><path style="stroke-width: 0.85 ;&st7;   " d=" M    42.49,    69.77  C    43.28     69.77     43.91     69.14     43.91     68.36  " /><path style="stroke-width: 0.85 ;&st7;   " d=" M    43.91,    45.69  C    43.91     44.91     43.28     44.28     42.49     44.28  " /><path style="stroke-width: 0.85 ;&st7;   " d=" M    42.49,    44.28  C    41.71     44.28     41.08     44.91     41.08     45.69  " /><path style="stroke-width: 0.85 ;&st7;   " d=" M    41.08,    45.69  C    41.08     46.48     41.71     47.11     42.49     47.11  " /><path style="stroke-width: 0.85 ;&st7;   " d=" M    42.49,    47.11  C    43.28     47.11     43.91     46.48     43.91     45.69  " /><path style="stroke-width: 1.42 ;&st7;   " d=" M    42.49,    66.94  C    45.23     65.33     46.14     61.80     44.53     59.06  " /><path style="stroke-width: 1.42 ;&st7;   " d=" M    44.53,    59.06  C    44.01     58.18     43.37     57.55     42.49     57.03  " /><path style="stroke-width: 1.42 ;&st7;  " d=" M    29.75,    35.78  L    29.75,    78.27  L    55.24,    78.27  L    55.24,    35.78  L    29.75,    35.78  " /></g><g ewd:figtype="rb" ewd:figID="16" ewd:code="FUSE6"><path style="stroke-width: 1.42 ;&st7;  " d=" M   231.59,   103.77  L   227.34,   103.77  " /><path style="stroke-width: 1.42 ;&st7;  " d=" M   231.59,    95.27  L   227.34,    95.27  " /><path style="stroke-width: 0.85 ;&st7;  " d=" M   229.46,    69.77  L   229.46,    95.27  " /><path style="stroke-width: 1.42 ;&st7;   " d=" M   235.84,    99.52  C   235.84     97.17    233.93     95.27    231.59     95.27  " /><path style="stroke-width: 1.42 ;&st7;   " d=" M   231.59,   103.77  C   233.93    103.77    235.84    101.87    235.84     99.52  " /><path style="stroke-width: 1.42 ;&st7;   " d=" M   223.09,    99.52  C   223.09    101.87    224.99    103.77    227.34    103.77  " /><path style="stroke-width: 1.42 ;&st7;   " d=" M   227.34,    95.27  C   224.99     95.27    223.09     97.17    223.09     99.52  " /><path style="stroke-width: 0.28 ;&st9;  " d=" M   229.46,    90.37  L   226.63,    87.54  L   226.63,    91.79  L   229.46,    94.62  L   232.29,    91.79  L   232.29,    87.54  L   229.46,    90.37  " /><text style="font-size:6px;font-family:'NSimSun';" transform="matrix(&st16;  245.89  53.34 )">10A <tspan x="0 " dy="6.0">ECU-B </tspan><tspan x="0 " dy="6.0">NO.2</tspan></text><text style="font-size:6px;font-family:'NSimSun';" transform="matrix(&st16;  227.66  101.49 )">1</text><text style="font-size:6px;font-family:'NSimSun';" transform="matrix(&st16;  223.28  86.47 )">2</text><text style="font-size:6px;font-family:'NSimSun';" transform="matrix(&st16;  221.42  32.08 )">(BAT)</text><path style="stroke-width: 0.85 ;&st7;   " d=" M   230.88,    68.36  C   230.88     67.57    230.24     66.94    229.46     66.94  " /><path style="stroke-width: 0.85 ;&st7;   " d=" M   229.46,    66.94  C   228.68     66.94    228.05     67.57    228.05     68.36  " /><path style="stroke-width: 0.85 ;&st7;   " d=" M   228.05,    68.36  C   228.05     69.14    228.68     69.77    229.46     69.77  " /><path style="stroke-width: 0.85 ;&st7;   " d=" M   229.46,    69.77  C   230.24     69.77    230.88     69.14    230.88     68.36  " /><path style="stroke-width: 0.85 ;&st7;   " d=" M   230.88,    45.69  C   230.88     44.91    230.24     44.28    229.46     44.28  " /><path style="stroke-width: 0.85 ;&st7;   " d=" M   229.46,    44.28  C   228.68     44.28    228.05     44.91    228.05     45.69  " /><path style="stroke-width: 0.85 ;&st7;   " d=" M   228.05,    45.69  C   228.05     46.48    228.68     47.11    229.46     47.11  " /><path style="stroke-width: 0.85 ;&st7;   " d=" M   229.46,    47.11  C   230.24     47.11    230.88     46.48    230.88     45.69  " /><path style="stroke-width: 1.42 ;&st7;   " d=" M   229.46,    66.94  C   232.20     65.33    233.11     61.80    231.50     59.06  " /><path style="stroke-width: 1.42 ;&st7;   " d=" M   231.50,    59.06  C   230.98     58.18    230.34     57.55    229.46     57.03  " /><path style="stroke-width: 1.42 ;&st7;   " d=" M   229.46,    47.11  C   226.72     48.72    225.81     52.25    227.42     54.99  " /><path style="stroke-width: 1.42 ;&st7;   " d=" M   227.42,    54.99  C   227.94     55.87    228.58     56.51    229.46     57.03  " /><path style="stroke-width: 1.42 ;&st7;  " d=" M   216.71,    35.78  L   216.71,    78.27  L   242.21,    78.27  L   242.21,    35.78  L   216.71,    35.78  " /></g><g ewd:figtype="jb" ewd:figID="22" ewd:code="3"><path style="stroke-width: 1.42 ;&st7;  " d=" M   231.59,   188.75  L   227.34,   188.75  " /><path style="stroke-width: 1.42 ;&st7;  " d=" M   231.59,   180.26  L   227.34,   180.26  " /><path style="stroke-width: 1.42 ;&st7;  " d=" M   231.59,   154.76  L   227.34,   154.76  " /><path style="stroke-width: 1.42 ;&st7;  " d=" M   231.59,   146.26  L   227.34,   146.26  " /><path style="stroke-width: 1.42 ;&st7;   " d=" M   235.84,   184.50  C   235.84    182.16    233.93    180.26    231.59    180.26  " /><path style="stroke-width: 1.42 ;&st7;   " d=" M   231.59,   188.75  C   233.93    188.75    235.84    186.85    235.84    184.50  " /><path style="stroke-width: 1.42 ;&st7;   " d=" M   223.09,   184.50  C   223.09    186.85    224.99    188.75    227.34    188.75  " /><path style="stroke-width: 1.42 ;&st7;   " d=" M   227.34,   180.26  C   224.99    180.26    223.09    182.16    223.09    184.50  " /><path style="stroke-width: 1.42 ;&st7;   " d=" M   235.84,   150.51  C   235.84    148.16    233.93    146.26    231.59    146.26  " /><path style="stroke-width: 1.42 ;&st7;   " d=" M   231.59,   154.76  C   233.93    154.76    235.84    152.86    235.84    150.51  " /><path style="stroke-width: 1.42 ;&st7;   " d=" M   223.09,   150.51  C   223.09    152.86    224.99    154.76    227.34    154.76  " /><path style="stroke-width: 1.42 ;&st7;   " d=" M   227.34,   146.26  C   224.99    146.26    223.09    148.16    223.09    150.51  " /><path style="stroke-width: 0.85 ;&st7;  " d=" M   229.46,   180.26  L   229.46,   154.76  " /><path style="stroke-width: 0.28 ;&st9;  " d=" M   229.46,   175.36  L   226.63,   172.53  L   226.63,   176.78  L   229.46,   179.61  L   232.29,   176.78  L   232.29,   172.53  L   229.46,   175.36  " /><path style="stroke-width: 0.28 ;&st9;  " d=" M   229.46,   159.65  L   232.29,   162.49  L   232.29,   158.24  L   229.46,   155.41  L   226.63,   158.24  L   226.63,   162.49  L   229.46,   159.65  " /><text style="font-size:6px;font-family:'NSimSun';" transform="matrix(&st16;  225.61  152.48 )">3A</text><text style="font-size:6px;font-family:'NSimSun';" transform="matrix(&st16;  215.85  152.48 )">44</text><text style="font-size:6px;font-family:'NSimSun';" transform="matrix(&st16;  225.53  186.47 )">3D</text><text style="font-size:6px;font-family:'NSimSun';" transform="matrix(&st16;  215.85  186.47 )">34</text></g><g ewd:figtype="jb" ewd:figID="23" ewd:code="3"><path style="stroke-width: 1.42 ;&st7;  " d=" M   155.10,   103.77  L   150.85,   103.77  " /><path style="stroke-width: 1.42 ;&st7;  " d=" M   155.10,    95.27  L   150.85,    95.27  " /><path style="stroke-width: 0.85 ;&st7;  " d=" M   152.97,    69.77  L   152.97,    95.27  " /><path style="stroke-width: 1.42 ;&st7;   " d=" M   159.35,    99.52  C   159.35     97.17    157.45     95.27    155.10     95.27  " /><path style="stroke-width: 1.42 ;&st7;   " d=" M   155.10,   103.77  C   157.45    103.77    159.35    101.87    159.35     99.52  " /><path style="stroke-width: 1.42 ;&st7;   " d=" M   146.60,    99.52  C   146.60    101.87    148.50    103.77    150.85    103.77  " /><path style="stroke-width: 1.42 ;&st7;   " d=" M   150.85,    95.27  C   148.50     95.27    146.60     97.17    146.60     99.52  " /><path style="stroke-width: 0.85 ;&st7;   " d=" M   154.39,    68.36  C   154.39     67.57    153.76     66.94    152.97     66.94  " /><path style="stroke-width: 0.85 ;&st7;   " d=" M   152.97,    66.94  C   152.19     66.94    151.56     67.57    151.56     68.36  " /><path style="stroke-width: 0.85 ;&st7;   " d=" M   151.56,    68.36  C   151.56     69.14    152.19     69.77    152.97     69.77  " /><path style="stroke-width: 0.85 ;&st7;   " d=" M   152.97,    69.77  C   153.76     69.77    154.39     69.14    154.39     68.36  " /><path style="stroke-width: 0.85 ;&st7;   " d=" M   154.39,    45.69  C   154.39     44.91    153.76     44.28    152.97     44.28  " /><path style="stroke-width: 0.85 ;&st7;   " d=" M   152.97,    44.28  C   152.19     44.28    151.56     44.91    151.56     45.69  " /><path style="stroke-width: 0.85 ;&st7;   " d=" M   151.56,    45.69  C   151.56     46.48    152.19     47.11    152.97     47.11  " /><path style="stroke-width: 0.85 ;&st7;   " d=" M   152.97,    47.11  C   153.76     47.11    154.39     46.48    154.39     45.69  " /><path style="stroke-width: 1.42 ;&st7;   " d=" M   152.97,    66.94  C   155.71     65.33    156.62     61.80    155.01     59.06  " /><path style="stroke-width: 1.42 ;&st7;   " d=" M   155.01,    59.06  C   154.49     58.18    153.86     57.55    152.97     57.03  " /><path style="stroke-width: 1.42 ;&st7;   " d=" M   152.97,    47.11  C   150.24     48.72    149.32     52.25    150.94     54.99  " /><path style="stroke-width: 1.42 ;&st7;   " d=" M   150.94,    54.99  C   151.46     55.87    152.09     56.51    152.97     57.03  " /><path style="stroke-width: 1.42 ;&st7;  " d=" M   140.23,    35.78  L   140.23,    78.27  L   165.72,    78.27  L   165.72,    35.78  L   140.23,    35.78  " /><path style="stroke-width: 0.28 ;&st9;  " d=" M   152.97,    90.37  L   150.14,    87.54  L   150.14,    91.79  L   152.97,    94.62  L   155.81,    91.79  L   155.81,    87.54  L   152.97,    90.37  " /><text style="font-size:6px;font-family:'NSimSun';" transform="matrix(&st16;  169.4  56.17 )">5A <tspan x="0 " dy="6.0">MET</tspan></text><text style="font-size:6px;font-family:'NSimSun';" transform="matrix(&st16;  149.0  101.49 )">3C</text><text style="font-size:6px;font-family:'NSimSun';" transform="matrix(&st16;  139.37  101.49 )">55</text><text style="font-size:6px;font-family:'NSimSun';" transform="matrix(&st16;  147.76  32.08 )">(IG)</text><text style="font-size:6px;font-family:'NSimSun';" transform="matrix(&st16;  146.79  86.47 )">2</text></g><g ewd:figtype="w2w" ewd:figID="26" ewd:code="GE1"><path style="stroke-width: 1.42 ;&st7;  " d=" M   242.21,   409.15  L   246.46,   413.40  L   250.71,   409.15  " /><path style="stroke-width: 1.42 ;&st7;  " d=" M   250.71,   412.55  L   246.46,   416.80  L   242.21,   412.55  " /><text style="font-size:6px;font-family:'NSimSun';" transform="matrix(&st16;  230.73  424.43 )">10</text></g><g ewd:figtype="w2w" ewd:figID="27" ewd:code="GE3"><path style="stroke-width: 1.42 ;&st7;  " d=" M   318.70,   619.35  L   314.45,   615.10  L   310.20,   619.35  " /><path style="stroke-width: 1.42 ;&st7;  " d=" M   318.70,   622.75  L   314.45,   618.50  L   310.20,   622.75  " /><text style="font-size:6px;font-family:'NSimSun';" transform="matrix(&st16;  301.82  611.4 )">8</text></g><g ewd:figtype="w2w" ewd:figID="28" ewd:code="AE3"><path style="stroke-width: 1.42 ;&st7;  " d=" M   352.69,   298.67  L   356.94,   302.92  L   361.19,   298.67  " /><path style="stroke-width: 1.42 ;&st7;  " d=" M   361.19,   302.07  L   356.94,   306.32  L   352.69,   302.07  " /><text style="font-size:6px;font-family:'NSimSun';" transform="matrix(&st16;  344.31  313.95 )">2</text></g><g ewd:figtype="w2w" ewd:figID="29" ewd:code="HE1"><path style="stroke-width: 1.42 ;&st7;  " d=" M   386.69,   409.15  L   390.93,   413.40  L   395.18,   409.15  " /><path style="stroke-width: 1.42 ;&st7;  " d=" M   395.18,   412.55  L   390.93,   416.80  L   386.69,   412.55  " /><text style="font-size:6px;font-family:'NSimSun';" transform="matrix(&st16;  375.2  424.43 )">10</text></g><g ewd:figtype="w2w" ewd:figID="30" ewd:code="HE3"><path style="stroke-width: 1.42 ;&st7;  " d=" M   463.17,   619.35  L   458.92,   615.10  L   454.67,   619.35  " /><path style="stroke-width: 1.42 ;&st7;  " d=" M   463.17,   622.75  L   458.92,   618.50  L   454.67,   622.75  " /><text style="font-size:6px;font-family:'NSimSun';" transform="matrix(&st16;  446.29  611.4 )">8</text></g><g ewd:figtype="gp" ewd:figID="32" ewd:code="EC"><path style="stroke-width: 0.85 ;&st7;  " d=" M   313.03,   710.00  L   315.86,   710.00  " /><path style="stroke-width: 0.85 ;&st7;  " d=" M   311.61,   707.17  L   317.28,   707.17  " /><path style="stroke-width: 0.85 ;&st7;  " d=" M   310.20,   704.33  L   318.70,   704.33  " /><path style="stroke-width: 0.85 ;&st7;  " d=" M   314.45,   697.25  L   314.45,   701.50  " /><path style="stroke-width: 0.85 ;&st7;  " d=" M   305.95,   701.50  L   322.95,   701.50  " /></g><g ewd:figtype="gp" ewd:figID="33" ewd:code="EA"><path style="stroke-width: 0.85 ;&st7;  " d=" M   456.09,   707.17  L   461.76,   707.17  " /><path style="stroke-width: 0.85 ;&st7;  " d=" M   454.67,   704.33  L   463.17,   704.33  " /><path style="stroke-width: 0.85 ;&st7;  " d=" M   450.42,   701.50  L   467.42,   701.50  " /><path style="stroke-width: 0.85 ;&st7;  " d=" M   458.92,   697.25  L   458.92,   701.50  " /><path style="stroke-width: 0.85 ;&st7;  " d=" M   457.51,   710.00  L   460.34,   710.00  " /></g></svg>