<?xml version="1.0" encoding="utf-8"?>
<!DOCTYPE svg PUBLIC "-//W3C//DTD SVG 1.0//EN" "http://www.w3.org/TR/2001/REC-SVG-20010904/DTD/svg10.dtd"[
	<!ENTITY ns_flows "http://ns.adobe.com/Flows/1.0/">
	<!ENTITY ns_svg "http://www.w3.org/2000/svg">
	<!ENTITY ns_xlink "http://www.w3.org/1999/xlink">
	<!ENTITY st0 "font-size:7px;font-family:'NSimSun';adobe-font-script:japanese;">
	<!ENTITY st1 "font-size:6px;font-family:'NSimSun';">
	<!-- White fill  -->
	<!ENTITY st2 "fill:#FFFFFF;stroke:#000000; stroke-width:1.41;stroke-linecap:round;stroke-linejoin:round;">
	<!-- Yellow fill  -->
	<!ENTITY st3 "fill:#FFFFCC;stroke:#FFFFCC; stroke-width:0.1;stroke-linecap:round;stroke-linejoin:round;">
	<!-- Gray fill  -->
	<!ENTITY st4 "fill:#CCCCCC;stroke:#CCCCCC; stroke-width:0.1;stroke-linecap:round;stroke-linejoin:round;">
	<!-- Light-blue fill -->
	<!ENTITY st5 "fill:#CCECF4;stroke:#000000; stroke-width:1.133;stroke-linecap:round;stroke-linejoin:round;">
	<!ENTITY st6 "fill:none;stroke-linecap:butt; stroke-linejoin:round;">
	<!ENTITY st7 "fill:none;stroke:#000000;stroke-linecap:round;stroke-linejoin:round;">
	<!ENTITY st8 "enable-background:new    ;">
	<!-- Black fill -->
	<!ENTITY st9 "fill:#000000;stroke:#000000; stroke-linecap:round;stroke-linejoin:round;">
	<!-- SRS note   -->
	<!ENTITY st10 "font-size:9px;font-family:'NSimSun';">
	<!ENTITY st11 "font-size:9px;font-family:'NSimSun';">
	<!ENTITY st12 "font-size:6px;font-family:'NSimSun';">
	<!ENTITY st13 "fill:none;stroke:#ff0000;stroke-linecap:round;stroke-linejoin:round;">
	<!-- Yellow fill  -->
	<!ENTITY st14 "fill:#FFFF00;stroke:#FFFF00; stroke-width:0.1;stroke-linecap:round;stroke-linejoin:round;">
	<!ENTITY st15 "font-size:6px;font-family:'NSimSun';adobe-font-script:japanese;">
	<!ENTITY st16 "1.00 0.00 0.00 1.00">
	<!ENTITY st17 "0.00 -1.00 1.00 0.00">
	<!ENTITY st18 "font-size:6px;font-family:'NSimSun';">
	<!ENTITY st19 "font-size:9px;font-family:'NSimSun';">
	<!ENTITY st20 "font-size:6px;font-family:'NSimSun';adobe-font-script:japanese;">
	<!ENTITY st21 "font-size:7px;font-family:'NSimSun';adobe-font-script:japanese;">
	<!ATTLIST svg
		xmlns:ewd CDATA #FIXED "http://shcl.co.jp/ewd"
		xmlns:a CDATA #FIXED "http://ns.adobe.com/AdobeSVGViewerExtensions/3.0/"
		ewd:ver CDATA #IMPLIED
	>
	<!ATTLIST a
		ewd:lineID CDATA #IMPLIED
		ewd:groupID CDATA #IMPLIED
		ewd:figtype CDATA #IMPLIED
		ewd:code CDATA #IMPLIED
		ewd:figID CDATA #IMPLIED
		ewd:pinNo CDATA #IMPLIED
		ewd:comment CDATA #IMPLIED >
	<!ATTLIST g
		ewd:lineID CDATA #IMPLIED
		ewd:groupID CDATA #IMPLIED
		ewd:figtype CDATA #IMPLIED
		ewd:code CDATA #IMPLIED
		ewd:figID CDATA #IMPLIED
		ewd:pinNo CDATA #IMPLIED
		ewd:comment CDATA #IMPLIED >
	<!ATTLIST text
		ewd:textID CDATA #IMPLIED
		ewd:horAlign CDATA #IMPLIED >
	<!ATTLIST title
		ewd:textID CDATA #IMPLIED >
]>
<!-- Generator: Shintec Hozumi YS   -->
<svg onload="call_execInitLoadProc_svg('system')" style="overflow:visible;  enable-background:new 0 0 2060.029 710.000" viewBox="0 0 2064.151 710.000" height="710.000" width="2064.151" xml:space="preserve" ewd:ver="2.1.2.6F" xmlns="&ns_svg;" xmlns:ewd="http://shcl.co.jp/ewd" xmlns:a="http://ns.adobe.com/AdobeSVGViewerExtensions/3.0/" xmlns:xlink="&ns_xlink;">
<path style="stroke-width: 1.42 ;&st7;  " d=" M   667.86,   613.68  L   662.89,   618.65  " /><path style="stroke-width: 1.42 ;&st7;  " d=" M   674.91,   630.68  L   679.89,   625.71  " /><path style="stroke-width: 1.42 ;&st7;  " d=" M   662.89,   625.71  L   667.86,   630.68  " /><path style="stroke-width: 1.42 ;&st7;  " d=" M   679.89,   618.65  L   674.91,   613.68  " /><path style="stroke-width: 1.42 ;&st7;  " d=" M   591.37,   613.68  L   586.40,   618.65  " /><path style="stroke-width: 1.42 ;&st7;  " d=" M   598.43,   630.68  L   603.40,   625.71  " /><path style="stroke-width: 1.42 ;&st7;  " d=" M   586.40,   625.71  L   591.37,   630.68  " /><path style="stroke-width: 1.42 ;&st7;  " d=" M   603.40,   618.65  L   598.43,   613.68  " /><text style="font-size:6px;font-family:'NSimSun';" transform="matrix(&st17;  829.17  666.38 )">W-B</text><text style="font-size:6px;font-family:'NSimSun';" transform="matrix(&st17;  602.54  295.45 )">(*6)</text><text style="font-size:6px;font-family:'NSimSun';" transform="matrix(&st17;  679.02  295.45 )">(*6)</text><text style="font-size:6px;font-family:'NSimSun';" transform="matrix(&st17;  591.21  666.38 )">W-B</text><text style="font-size:6px;font-family:'NSimSun';" transform="matrix(&st17;  591.2  483.64 )">Y</text><text style="font-size:6px;font-family:'NSimSun';" transform="matrix(&st17;  591.21  589.89 )">W-B</text><text style="font-size:6px;font-family:'NSimSun';" transform="matrix(&st17;  667.69  483.53 )">L</text><text style="font-size:6px;font-family:'NSimSun';" transform="matrix(&st17;  667.69  589.89 )">W-B</text><text style="font-size:6px;font-family:'NSimSun';" transform="matrix(&st17;  591.2  292.43 )">Y</text><text style="font-size:6px;font-family:'NSimSun';" transform="matrix(&st17;  667.69  292.31 )">L</text><text style="font-size:6px;font-family:'NSimSun';" transform="matrix(&st17;  752.68  485.19 )">SB</text><text style="font-size:6px;font-family:'NSimSun';" transform="matrix(&st17;  752.68  589.89 )">W-B</text><text style="font-size:6px;font-family:'NSimSun';" transform="matrix(&st17;  829.16  483.64 )">Y</text><text style="font-size:6px;font-family:'NSimSun';" transform="matrix(&st17;  684.69  360.3 )">L</text><text style="font-size:6px;font-family:'NSimSun';" transform="matrix(&st17;  829.17  589.89 )">W-B</text><text style="font-size:6px;font-family:'NSimSun';" transform="matrix(&st17;  608.2  360.41 )">Y</text><text style="font-size:6px;font-family:'NSimSun';" transform="matrix(&st17;  667.69  666.38 )">W-B</text><text style="font-size:6px;font-family:'NSimSun';" transform="matrix(&st17;  696.02  363.44 )">(*5)</text><text style="font-size:6px;font-family:'NSimSun';" transform="matrix(&st17;  619.53  363.44 )">(*5)</text><text style="font-size:6px;font-family:'NSimSun';" transform="matrix(&st17;  557.21  377.41 )">Y</text><text style="font-size:6px;font-family:'NSimSun';" transform="matrix(&st17;  633.7  377.3 )">L</text><text style="font-size:6px;font-family:'NSimSun';" transform="matrix(&st17;  888.66  294.29 )">BR</text><text style="font-size:6px;font-family:'NSimSun';" transform="matrix(&st17;  899.99  295.45 )">(*6)</text><text style="font-size:6px;font-family:'NSimSun';" transform="matrix(&st16;  541.72  355.03 )">Y</text><text style="font-size:6px;font-family:'NSimSun';" transform="matrix(&st16;  541.84  338.03 )">L</text><text style="font-size:6px;font-family:'NSimSun';" transform="matrix(&st16;  710.48  57.58 )" ewd:textID="6">组合仪表总成</text><text style="font-size:6px;font-family:'NSimSun';" transform="matrix(&st16;  710.47  50.47 )">E55(A),E59(B)</text><g ewd:figtype="conn" ewd:figID="3" ewd:code="L9"><path style="stroke-width: 1.42 ;&st7;  " d=" M   807.36,   503.20  L   807.36,   554.19  L   849.86,   554.19  L   849.86,   503.20  L   807.36,   503.20  " /><path style="stroke-width: 0.85 ;&st7;  " d=" M   832.86,   532.95  L   832.86,   537.20  " /><path style="stroke-width: 0.85 ;&st7;   " d=" M   830.45,   528.70  C   831.24    530.04    832.97    530.48    834.31    529.69  " /><path style="stroke-width: 0.85 ;&st7;   " d=" M   834.31,   529.69  C   835.65    528.90    836.09    527.17    835.30    525.83  " /><path style="stroke-width: 0.85 ;&st7;   " d=" M   835.30,   525.83  C   834.78    524.94    833.89    524.44    832.86    524.45  " /><path style="stroke-width: 1.42 ;&st7;   " d=" M   841.36,   528.70  C   841.36    524.00    837.55    520.20    832.86    520.20  " /><path style="stroke-width: 1.42 ;&st7;   " d=" M   832.86,   520.20  C   828.17    520.20    824.36    524.00    824.36    528.70  " /><path style="stroke-width: 1.42 ;&st7;   " d=" M   824.36,   528.70  C   824.36    533.39    828.17    537.20    832.86    537.20  " /><path style="stroke-width: 1.42 ;&st7;   " d=" M   832.86,   537.20  C   837.55    537.20    841.36    533.39    841.36    528.70  " /><path style="stroke-width: 0.85 ;&st7;  " d=" M   832.86,   554.19  L   832.86,   537.20  " /><path style="stroke-width: 0.85 ;&st7;   " d=" M   832.86,   532.95  C   834.42    532.96    835.68    531.70    835.69    530.15  " /><path style="stroke-width: 0.85 ;&st7;   " d=" M   835.69,   530.15  C   835.70    528.59    834.45    527.32    832.89    527.31  " /><path style="stroke-width: 0.85 ;&st7;   " d=" M   832.89,   527.31  C   831.86    527.31    830.98    527.81    830.45    528.70  " /><path style="stroke-width: 0.85 ;&st7;  " d=" M   832.86,   520.20  L   832.86,   524.45  " /><text style="font-size:6px;font-family:'NSimSun';" transform="matrix(&st16;  835.44  511.39 )">B</text><path style="stroke-width: 0.85 ;&st7;  " d=" M   832.86,   520.20  L   832.86,   503.20  " /><text style="font-size:6px;font-family:'NSimSun';" transform="matrix(&st16;  835.44  550.5 )">E</text><text style="font-size:6px;font-family:'NSimSun';" transform="matrix(&st17;  820.95  534.61 )" ewd:textID="19">转动</text><text style="font-size:6px;font-family:'NSimSun';" transform="matrix(&st16;  826.68  562.39 )">2</text><text style="font-size:6px;font-family:'NSimSun';" transform="matrix(&st16;  826.68  499.51 )">1</text><g ewd:figtype="title"><text style="font-size:6px;font-family:'NSimSun';" transform="matrix(&st17;  864.58  557.1 )" ewd:textID="17">左后组合灯总成<tspan x="0 " dy="6.0" /></text><text style="font-size:6px;font-family:'NSimSun';" transform="matrix(&st17;  857.47  557.09 )">L9</text></g></g><g ewd:figtype="conn" ewd:figID="4" ewd:code="L5"><path style="stroke-width: 0.85 ;&st7;  " d=" M   756.37,   532.95  L   756.37,   537.20  " /><path style="stroke-width: 0.85 ;&st7;   " d=" M   753.97,   528.70  C   754.76    530.04    756.48    530.48    757.82    529.69  " /><path style="stroke-width: 0.85 ;&st7;   " d=" M   757.82,   529.69  C   759.16    528.90    759.61    527.17    758.82    525.83  " /><path style="stroke-width: 0.85 ;&st7;   " d=" M   758.82,   525.83  C   758.29    524.94    757.41    524.44    756.37    524.45  " /><path style="stroke-width: 1.42 ;&st7;   " d=" M   764.87,   528.70  C   764.87    524.00    761.07    520.20    756.37    520.20  " /><path style="stroke-width: 1.42 ;&st7;   " d=" M   756.37,   520.20  C   751.68    520.20    747.88    524.00    747.88    528.70  " /><path style="stroke-width: 1.42 ;&st7;   " d=" M   747.88,   528.70  C   747.88    533.39    751.68    537.20    756.37    537.20  " /><path style="stroke-width: 1.42 ;&st7;   " d=" M   756.37,   537.20  C   761.07    537.20    764.87    533.39    764.87    528.70  " /><path style="stroke-width: 0.85 ;&st7;  " d=" M   756.37,   554.19  L   756.37,   537.20  " /><path style="stroke-width: 0.85 ;&st7;   " d=" M   756.37,   532.95  C   757.93    532.96    759.20    531.70    759.21    530.15  " /><path style="stroke-width: 0.85 ;&st7;   " d=" M   759.21,   530.15  C   759.22    528.59    757.96    527.32    756.41    527.31  " /><path style="stroke-width: 0.85 ;&st7;   " d=" M   756.41,   527.31  C   755.38    527.31    754.49    527.81    753.97    528.70  " /><path style="stroke-width: 1.42 ;&st7;  " d=" M   730.88,   503.20  L   730.88,   554.19  L   773.37,   554.19  L   773.37,   503.20  L   730.88,   503.20  " /><path style="stroke-width: 0.85 ;&st7;  " d=" M   756.37,   520.20  L   756.37,   524.45  " /><text style="font-size:6px;font-family:'NSimSun';" transform="matrix(&st16;  758.96  511.39 )">B</text><path style="stroke-width: 0.85 ;&st7;  " d=" M   756.37,   520.20  L   756.37,   503.20  " /><text style="font-size:6px;font-family:'NSimSun';" transform="matrix(&st16;  758.96  550.5 )">E</text><text style="font-size:6px;font-family:'NSimSun';" transform="matrix(&st17;  744.46  534.61 )" ewd:textID="19">转动</text><text style="font-size:6px;font-family:'NSimSun';" transform="matrix(&st16;  750.19  562.39 )">2</text><text style="font-size:6px;font-family:'NSimSun';" transform="matrix(&st16;  750.19  499.51 )">1</text><g ewd:figtype="title"><text style="font-size:6px;font-family:'NSimSun';" transform="matrix(&st17;  788.09  557.1 )" ewd:textID="18">右后组合灯总成<tspan x="0 " dy="6.0" /></text><text style="font-size:6px;font-family:'NSimSun';" transform="matrix(&st17;  780.98  557.09 )">L5</text></g></g><g ewd:figtype="conn" ewd:figID="5" ewd:code="A43"><path style="stroke-width: 0.85 ;&st7;  " d=" M   594.90,   520.20  L   594.90,   524.45  " /><path style="stroke-width: 0.85 ;&st7;  " d=" M   594.90,   532.95  L   594.90,   537.20  " /><path style="stroke-width: 0.85 ;&st7;   " d=" M   594.90,   532.95  C   596.46    532.96    597.72    531.70    597.73    530.15  " /><path style="stroke-width: 0.85 ;&st7;   " d=" M   597.73,   530.15  C   597.74    528.59    596.49    527.32    594.93    527.31  " /><path style="stroke-width: 0.85 ;&st7;   " d=" M   594.93,   527.31  C   593.90    527.31    593.02    527.81    592.49    528.70  " /><path style="stroke-width: 0.85 ;&st7;   " d=" M   592.49,   528.70  C   593.28    530.04    595.01    530.48    596.35    529.69  " /><path style="stroke-width: 0.85 ;&st7;   " d=" M   596.35,   529.69  C   597.69    528.90    598.13    527.17    597.34    525.83  " /><path style="stroke-width: 0.85 ;&st7;   " d=" M   597.34,   525.83  C   596.82    524.94    595.93    524.44    594.90    524.45  " /><path style="stroke-width: 1.42 ;&st7;   " d=" M   603.40,   528.70  C   603.40    524.00    599.59    520.20    594.90    520.20  " /><path style="stroke-width: 1.42 ;&st7;   " d=" M   594.90,   520.20  C   590.21    520.20    586.40    524.00    586.40    528.70  " /><path style="stroke-width: 1.42 ;&st7;   " d=" M   586.40,   528.70  C   586.40    533.39    590.21    537.20    594.90    537.20  " /><path style="stroke-width: 1.42 ;&st7;   " d=" M   594.90,   537.20  C   599.59    537.20    603.40    533.39    603.40    528.70  " /><path style="stroke-width: 0.85 ;&st7;  " d=" M   594.90,   503.20  L   594.90,   520.20  " /><path style="stroke-width: 0.85 ;&st7;  " d=" M   594.90,   554.19  L   594.90,   537.20  " /><path style="stroke-width: 1.42 ;&st7;  " d=" M   569.40,   503.20  L   569.40,   554.19  L   611.90,   554.19  L   611.90,   503.20  L   569.40,   503.20  " /><text style="font-size:6px;font-family:'NSimSun';" transform="matrix(&st16;  597.48  511.39 )">B</text><text style="font-size:6px;font-family:'NSimSun';" transform="matrix(&st16;  597.48  550.5 )">E</text><text style="font-size:6px;font-family:'NSimSun';" transform="matrix(&st17;  582.71  534.61 )" ewd:textID="19">转动</text><text style="font-size:6px;font-family:'NSimSun';" transform="matrix(&st16;  588.72  562.39 )">1</text><text style="font-size:6px;font-family:'NSimSun';" transform="matrix(&st16;  588.72  499.51 )">2</text><g ewd:figtype="title"><text style="font-size:6px;font-family:'NSimSun';" transform="matrix(&st17;  626.62  557.1 )" ewd:textID="9">左侧大灯总成<tspan x="0 " dy="6.0" /></text><text style="font-size:6px;font-family:'NSimSun';" transform="matrix(&st17;  619.51  557.09 )">A43</text></g></g><g ewd:figtype="conn" ewd:figID="6" ewd:code="A45"><path style="stroke-width: 0.85 ;&st7;  " d=" M   671.39,   520.20  L   671.39,   524.45  " /><path style="stroke-width: 0.85 ;&st7;  " d=" M   671.39,   532.95  L   671.39,   537.20  " /><path style="stroke-width: 0.85 ;&st7;   " d=" M   671.39,   532.95  C   672.94    532.96    674.21    531.70    674.22    530.15  " /><path style="stroke-width: 0.85 ;&st7;   " d=" M   674.22,   530.15  C   674.23    528.59    672.98    527.32    671.42    527.31  " /><path style="stroke-width: 0.85 ;&st7;   " d=" M   671.42,   527.31  C   670.39    527.31    669.51    527.81    668.98    528.70  " /><path style="stroke-width: 0.85 ;&st7;   " d=" M   668.98,   528.70  C   669.77    530.04    671.50    530.48    672.84    529.69  " /><path style="stroke-width: 0.85 ;&st7;   " d=" M   672.84,   529.69  C   674.18    528.90    674.62    527.17    673.83    525.83  " /><path style="stroke-width: 0.85 ;&st7;   " d=" M   673.83,   525.83  C   673.30    524.94    672.42    524.44    671.39    524.45  " /><path style="stroke-width: 1.42 ;&st7;   " d=" M   679.89,   528.70  C   679.89    524.00    676.08    520.20    671.39    520.20  " /><path style="stroke-width: 1.42 ;&st7;   " d=" M   671.39,   520.20  C   666.69    520.20    662.89    524.00    662.89    528.70  " /><path style="stroke-width: 1.42 ;&st7;   " d=" M   662.89,   528.70  C   662.89    533.39    666.69    537.20    671.39    537.20  " /><path style="stroke-width: 1.42 ;&st7;   " d=" M   671.39,   537.20  C   676.08    537.20    679.89    533.39    679.89    528.70  " /><path style="stroke-width: 0.85 ;&st7;  " d=" M   671.39,   503.20  L   671.39,   520.20  " /><path style="stroke-width: 0.85 ;&st7;  " d=" M   671.39,   554.19  L   671.39,   537.20  " /><path style="stroke-width: 1.42 ;&st7;  " d=" M   645.89,   503.20  L   645.89,   554.19  L   688.38,   554.19  L   688.38,   503.20  L   645.89,   503.20  " /><text style="font-size:6px;font-family:'NSimSun';" transform="matrix(&st16;  673.97  511.39 )">B</text><text style="font-size:6px;font-family:'NSimSun';" transform="matrix(&st16;  673.97  550.5 )">E</text><text style="font-size:6px;font-family:'NSimSun';" transform="matrix(&st17;  659.19  534.61 )" ewd:textID="19">转动</text><text style="font-size:6px;font-family:'NSimSun';" transform="matrix(&st16;  665.2  562.39 )">1</text><text style="font-size:6px;font-family:'NSimSun';" transform="matrix(&st16;  665.2  499.51 )">2</text><g ewd:figtype="title"><text style="font-size:6px;font-family:'NSimSun';" transform="matrix(&st17;  703.1  557.1 )" ewd:textID="10">右侧大灯总成<tspan x="0 " dy="6.0" /></text><text style="font-size:6px;font-family:'NSimSun';" transform="matrix(&st17;  696.0  557.09 )">A45</text></g></g><g ewd:figtype="conn" ewd:figID="7" ewd:code="L56"><path style="stroke-width: 0.85 ;&st7;  " d=" M   832.86,   613.68  L   832.86,   622.18  " /><path style="stroke-width: 1.42 ;&st7;  " d=" M   747.87,   630.68  L   841.36,   630.68  L   841.36,   613.68  L   747.87,   613.68  L   747.87,   630.68  " /><path style="stroke-width: 0.85 ;&st7;  " d=" M   831.67,   621.18  L   831.40,   621.65  L   831.30,   622.18  L   831.40,   622.71  L   831.67,   623.18  L   832.08,   623.53  L   832.59,   623.72  L   833.13,   623.72  L   833.64,   623.53  L   834.05,   623.18  L   834.33,   622.71  L   834.42,   622.18  L   834.33,   621.65  L   834.05,   621.18  L   833.64,   620.83  L   833.13,   620.65  L   832.59,   620.65  L   832.08,   620.83  L   831.67,   621.18  L   832.06,   621.89  L   832.06,   622.47  L   832.44,   622.92  L   833.01,   623.02  L   833.51,   622.73  L   833.71,   622.18  L   833.51,   621.63  L   833.01,   621.35  L   832.44,   621.44  L   832.86,   622.18  " /><path style="stroke-width: 0.85 ;&st7;  " d=" M   832.86,   622.18  L   832.86,   630.68  " /><path style="stroke-width: 0.85 ;&st7;  " d=" M   756.37,   613.68  L   756.37,   622.18  L   832.86,   622.18  " /><text style="font-size:6px;font-family:'NSimSun';" transform="matrix(&st16;  750.19  609.99 )">2</text><text style="font-size:6px;font-family:'NSimSun';" transform="matrix(&st16;  826.68  638.87 )">6</text><text style="font-size:6px;font-family:'NSimSun';" transform="matrix(&st16;  826.68  609.99 )">5</text><g ewd:figtype="title"><text style="font-size:6px;font-family:'NSimSun';" transform="matrix(&st16;  744.46  638.57 )">L56</text><text style="font-size:6px;font-family:'NSimSun';" transform="matrix(&st16;  744.47  645.4 )" ewd:textID="14">8 号接线连接器<tspan x="0 " dy="6.0" /></text></g></g><g ewd:figtype="jb" ewd:figID="25" ewd:code="3"><path style="stroke-width: 1.42 ;&st7;  " d=" M   597.03,   401.22  L   592.78,   401.22  " /><path style="stroke-width: 1.42 ;&st7;  " d=" M   597.03,   409.72  L   592.78,   409.72  " /><path style="stroke-width: 1.42 ;&st7;  " d=" M   673.51,   401.22  L   669.26,   401.22  " /><path style="stroke-width: 1.42 ;&st7;  " d=" M   673.51,   409.72  L   669.26,   409.72  " /><path style="stroke-width: 1.42 ;&st7;  " d=" M   597.03,   460.71  L   592.78,   460.71  " /><path style="stroke-width: 1.42 ;&st7;  " d=" M   597.03,   469.21  L   592.78,   469.21  " /><path style="stroke-width: 1.42 ;&st7;  " d=" M   673.51,   460.71  L   669.26,   460.71  " /><path style="stroke-width: 1.42 ;&st7;  " d=" M   673.51,   469.21  L   669.26,   469.21  " /><path style="stroke-width: 1.42 ;&st7;  " d=" M   563.03,   401.22  L   558.78,   401.22  " /><path style="stroke-width: 1.42 ;&st7;  " d=" M   563.03,   409.72  L   558.78,   409.72  " /><path style="stroke-width: 1.42 ;&st7;  " d=" M   639.52,   401.22  L   635.27,   401.22  " /><path style="stroke-width: 1.42 ;&st7;  " d=" M   639.52,   409.72  L   635.27,   409.72  " /><path style="stroke-width: 1.42 ;&st7;  " d=" M   758.50,   460.71  L   754.25,   460.71  " /><path style="stroke-width: 1.42 ;&st7;  " d=" M   758.50,   469.21  L   754.25,   469.21  " /><path style="stroke-width: 1.42 ;&st7;  " d=" M   834.99,   469.21  L   830.74,   469.21  " /><path style="stroke-width: 1.42 ;&st7;   " d=" M   592.78,   401.22  C   590.43    401.22    588.53    403.12    588.53    405.47  " /><path style="stroke-width: 1.42 ;&st7;   " d=" M   588.53,   405.47  C   588.53    407.81    590.43    409.72    592.78    409.72  " /><path style="stroke-width: 1.42 ;&st7;   " d=" M   597.03,   409.72  C   599.37    409.72    601.27    407.81    601.27    405.47  " /><path style="stroke-width: 1.42 ;&st7;   " d=" M   601.27,   405.47  C   601.27    403.12    599.37    401.22    597.03    401.22  " /><path style="stroke-width: 1.42 ;&st7;   " d=" M   669.26,   401.22  C   666.92    401.22    665.01    403.12    665.01    405.47  " /><path style="stroke-width: 1.42 ;&st7;   " d=" M   673.51,   409.72  C   675.86    409.72    677.76    407.81    677.76    405.47  " /><path style="stroke-width: 1.42 ;&st7;   " d=" M   677.76,   405.47  C   677.76    403.12    675.86    401.22    673.51    401.22  " /><path style="stroke-width: 1.42 ;&st7;   " d=" M   592.78,   460.71  C   590.43    460.71    588.53    462.61    588.53    464.96  " /><path style="stroke-width: 1.42 ;&st7;   " d=" M   588.53,   464.96  C   588.53    467.30    590.43    469.21    592.78    469.21  " /><path style="stroke-width: 1.42 ;&st7;   " d=" M   597.03,   469.21  C   599.37    469.21    601.27    467.30    601.27    464.96  " /><path style="stroke-width: 1.42 ;&st7;   " d=" M   601.27,   464.96  C   601.27    462.61    599.37    460.71    597.03    460.71  " /><path style="stroke-width: 1.42 ;&st7;   " d=" M   669.26,   460.71  C   666.92    460.71    665.01    462.61    665.01    464.96  " /><path style="stroke-width: 1.42 ;&st7;   " d=" M   665.01,   464.96  C   665.01    467.30    666.92    469.21    669.26    469.21  " /><path style="stroke-width: 1.42 ;&st7;   " d=" M   673.51,   469.21  C   675.86    469.21    677.76    467.30    677.76    464.96  " /><path style="stroke-width: 1.42 ;&st7;   " d=" M   677.76,   464.96  C   677.76    462.61    675.86    460.71    673.51    460.71  " /><path style="stroke-width: 1.42 ;&st7;   " d=" M   558.78,   401.22  C   556.43    401.22    554.53    403.12    554.53    405.47  " /><path style="stroke-width: 1.42 ;&st7;   " d=" M   554.53,   405.47  C   554.53    407.81    556.43    409.72    558.78    409.72  " /><path style="stroke-width: 1.42 ;&st7;   " d=" M   563.03,   409.72  C   565.38    409.72    567.28    407.81    567.28    405.47  " /><path style="stroke-width: 1.42 ;&st7;   " d=" M   567.28,   405.47  C   567.28    403.12    565.38    401.22    563.03    401.22  " /><path style="stroke-width: 1.42 ;&st7;   " d=" M   635.27,   401.22  C   632.92    401.22    631.02    403.12    631.02    405.47  " /><path style="stroke-width: 1.42 ;&st7;   " d=" M   631.02,   405.47  C   631.02    407.81    632.92    409.72    635.27    409.72  " /><path style="stroke-width: 1.42 ;&st7;   " d=" M   639.52,   409.72  C   641.86    409.72    643.77    407.81    643.77    405.47  " /><path style="stroke-width: 1.42 ;&st7;   " d=" M   643.77,   405.47  C   643.77    403.12    641.86    401.22    639.52    401.22  " /><path style="stroke-width: 1.42 ;&st7;   " d=" M   754.25,   460.71  C   751.90    460.71    750.00    462.61    750.00    464.96  " /><path style="stroke-width: 1.42 ;&st7;   " d=" M   750.00,   464.96  C   750.00    467.30    751.90    469.21    754.25    469.21  " /><path style="stroke-width: 1.42 ;&st7;   " d=" M   758.50,   469.21  C   760.85    469.21    762.75    467.30    762.75    464.96  " /><path style="stroke-width: 1.42 ;&st7;   " d=" M   762.75,   464.96  C   762.75    462.61    760.85    460.71    758.50    460.71  " /><path style="stroke-width: 1.42 ;&st7;   " d=" M   830.74,   460.71  C   828.39    460.71    826.49    462.61    826.49    464.96  " /><path style="stroke-width: 1.42 ;&st7;   " d=" M   826.49,   464.96  C   826.49    467.30    828.39    469.21    830.74    469.21  " /><path style="stroke-width: 1.42 ;&st7;   " d=" M   834.99,   469.21  C   837.33    469.21    839.23    467.30    839.23    464.96  " /><path style="stroke-width: 1.42 ;&st7;   " d=" M   839.23,   464.96  C   839.23    462.61    837.33    460.71    834.99    460.71  " /><path style="stroke-width: 0.28 ;&st9;  " d=" M   594.90,   414.61  L   597.73,   417.45  L   597.73,   413.20  L   594.90,   410.36  L   592.07,   413.20  L   592.07,   417.45  L   594.90,   414.61  " /><path style="stroke-width: 0.28 ;&st9;  " d=" M   671.39,   414.61  L   674.22,   417.45  L   674.22,   413.20  L   671.39,   410.36  L   668.55,   413.20  L   668.55,   417.45  L   671.39,   414.61  " /><path style="stroke-width: 0.28 ;&st9;  " d=" M   594.90,   455.81  L   592.07,   452.98  L   592.07,   457.23  L   594.90,   460.06  L   597.73,   457.23  L   597.73,   452.98  L   594.90,   455.81  " /><path style="stroke-width: 0.28 ;&st9;  " d=" M   671.39,   455.81  L   668.55,   452.98  L   668.55,   457.23  L   671.39,   460.06  L   674.22,   457.23  L   674.22,   452.98  L   671.39,   455.81  " /><path style="stroke-width: 0.85 ;&st7;  " d=" M   594.90,   460.71  L   594.90,   409.72  " /><path style="stroke-width: 0.85 ;&st7;  " d=" M   671.39,   460.71  L   671.39,   409.72  " /><path style="stroke-width: 0.85 ;&st7;  " d=" M   593.71,   425.71  L   593.44,   426.18  L   593.34,   426.71  L   593.44,   427.25  L   593.71,   427.72  L   594.12,   428.06  L   594.63,   428.25  L   595.17,   428.25  L   595.68,   428.06  L   596.09,   427.72  L   596.36,   427.25  L   596.46,   426.71  L   596.36,   426.18  L   596.09,   425.71  L   595.68,   425.37  L   595.17,   425.18  L   594.63,   425.18  L   594.12,   425.37  L   593.71,   425.71  L   594.10,   426.42  L   594.10,   427.01  L   594.48,   427.45  L   595.05,   427.55  L   595.55,   427.26  L   595.75,   426.71  L   595.55,   426.17  L   595.05,   425.88  L   594.48,   425.98  L   594.90,   426.71  " /><path style="stroke-width: 0.28 ;&st9;  " d=" M   560.91,   414.61  L   563.74,   417.45  L   563.74,   413.20  L   560.91,   410.36  L   558.07,   413.20  L   558.07,   417.45  L   560.91,   414.61  " /><path style="stroke-width: 0.28 ;&st9;  " d=" M   637.39,   414.61  L   640.23,   417.45  L   640.23,   413.20  L   637.39,   410.36  L   634.56,   413.20  L   634.56,   417.45  L   637.39,   414.61  " /><path style="stroke-width: 0.85 ;&st7;  " d=" M   670.19,   425.71  L   669.92,   426.18  L   669.83,   426.71  L   669.92,   427.25  L   670.19,   427.72  L   670.61,   428.06  L   671.12,   428.25  L   671.66,   428.25  L   672.17,   428.06  L   672.58,   427.72  L   672.85,   427.25  L   672.95,   426.71  L   672.85,   426.18  L   672.58,   425.71  L   672.17,   425.37  L   671.66,   425.18  L   671.12,   425.18  L   670.61,   425.37  L   670.19,   425.71  L   670.59,   426.42  L   670.59,   427.01  L   670.96,   427.45  L   671.53,   427.55  L   672.04,   427.26  L   672.24,   426.71  L   672.04,   426.17  L   671.53,   425.88  L   670.96,   425.98  L   671.39,   426.71  " /><path style="stroke-width: 0.85 ;&st7;  " d=" M   593.71,   434.21  L   593.44,   434.68  L   593.34,   435.21  L   593.44,   435.75  L   593.71,   436.22  L   594.12,   436.56  L   594.63,   436.75  L   595.17,   436.75  L   595.68,   436.56  L   596.09,   436.22  L   596.36,   435.75  L   596.46,   435.21  L   596.36,   434.68  L   596.09,   434.21  L   595.68,   433.86  L   595.17,   433.68  L   594.63,   433.68  L   594.12,   433.86  L   593.71,   434.21  L   594.10,   434.92  L   594.10,   435.50  L   594.48,   435.95  L   595.05,   436.05  L   595.55,   435.76  L   595.75,   435.21  L   595.55,   434.67  L   595.05,   434.38  L   594.48,   434.48  L   594.90,   435.21  " /><path style="stroke-width: 0.85 ;&st7;  " d=" M   670.19,   442.71  L   669.92,   443.18  L   669.83,   443.71  L   669.92,   444.24  L   670.19,   444.71  L   670.61,   445.06  L   671.12,   445.25  L   671.66,   445.25  L   672.17,   445.06  L   672.58,   444.71  L   672.85,   444.24  L   672.95,   443.71  L   672.85,   443.18  L   672.58,   442.71  L   672.17,   442.36  L   671.66,   442.18  L   671.12,   442.18  L   670.61,   442.36  L   670.19,   442.71  L   670.59,   443.42  L   670.59,   444.00  L   670.96,   444.45  L   671.53,   444.55  L   672.04,   444.26  L   672.24,   443.71  L   672.04,   443.16  L   671.53,   442.88  L   670.96,   442.97  L   671.39,   443.71  " /><path style="stroke-width: 0.28 ;&st9;  " d=" M   756.37,   455.81  L   753.54,   452.98  L   753.54,   457.23  L   756.37,   460.06  L   759.21,   457.23  L   759.21,   452.98  L   756.37,   455.81  " /><path style="stroke-width: 0.28 ;&st9;  " d=" M   832.86,   455.81  L   830.03,   452.98  L   830.03,   457.23  L   832.86,   460.06  L   835.69,   457.23  L   835.69,   452.98  L   832.86,   455.81  " /><path style="stroke-width: 0.85 ;&st7;  " d=" M   637.39,   409.72  L   637.39,   426.71  L   671.39,   426.71  " /><path style="stroke-width: 0.85 ;&st7;  " d=" M   560.91,   409.72  L   560.91,   426.71  L   594.90,   426.71  " /><path style="stroke-width: 0.85 ;&st7;  " d=" M   594.90,   435.21  L   832.86,   435.21  L   832.86,   460.71  " /><path style="stroke-width: 0.85 ;&st7;  " d=" M   671.39,   443.71  L   756.37,   443.71  L   756.37,   460.71  " /><path style="stroke-width: 1.42 ;&st7;  " d=" M   834.99,   460.71  L   830.74,   460.71  " /><path style="stroke-width: 1.42 ;&st7;   " d=" M   665.01,   405.47  C   665.01    407.81    666.92    409.72    669.26    409.72  " /><text style="font-size:6px;font-family:'NSimSun';" transform="matrix(&st16;  590.97  407.44 )">3D</text><text style="font-size:6px;font-family:'NSimSun';" transform="matrix(&st16;  581.29  407.44 )">36</text><text style="font-size:6px;font-family:'NSimSun';" transform="matrix(&st16;  667.45  407.44 )">3D</text><text style="font-size:6px;font-family:'NSimSun';" transform="matrix(&st16;  657.78  407.44 )">45</text><text style="font-size:6px;font-family:'NSimSun';" transform="matrix(&st16;  591.05  466.93 )">3A</text><text style="font-size:6px;font-family:'NSimSun';" transform="matrix(&st16;  581.29  466.93 )">36</text><text style="font-size:6px;font-family:'NSimSun';" transform="matrix(&st16;  667.53  466.93 )">3A</text><text style="font-size:6px;font-family:'NSimSun';" transform="matrix(&st16;  657.78  466.93 )">47</text><text style="font-size:6px;font-family:'NSimSun';" transform="matrix(&st16;  556.97  407.44 )">3D</text><text style="font-size:6px;font-family:'NSimSun';" transform="matrix(&st16;  547.3  407.44 )">37</text><text style="font-size:6px;font-family:'NSimSun';" transform="matrix(&st16;  633.46  407.44 )">3D</text><text style="font-size:6px;font-family:'NSimSun';" transform="matrix(&st16;  623.78  407.44 )">46</text><text style="font-size:6px;font-family:'NSimSun';" transform="matrix(&st16;  752.71  466.93 )">3E</text><text style="font-size:6px;font-family:'NSimSun';" transform="matrix(&st16;  742.76  466.93 )">33</text><text style="font-size:6px;font-family:'NSimSun';" transform="matrix(&st16;  829.2  466.93 )">3E</text><text style="font-size:6px;font-family:'NSimSun';" transform="matrix(&st16;  819.25  466.93 )">26</text></g><g ewd:figtype="gp" ewd:figID="33" ewd:code="AA"><path style="stroke-width: 0.85 ;&st7;  " d=" M   594.90,   697.25  L   594.90,   701.50  " /><path style="stroke-width: 0.85 ;&st7;  " d=" M   586.40,   701.50  L   603.40,   701.50  " /><path style="stroke-width: 0.85 ;&st7;  " d=" M   590.65,   704.33  L   599.15,   704.33  " /><path style="stroke-width: 0.85 ;&st7;  " d=" M   592.07,   707.17  L   597.73,   707.17  " /><path style="stroke-width: 0.85 ;&st7;  " d=" M   593.48,   710.00  L   596.32,   710.00  " /></g><g ewd:figtype="gp" ewd:figID="34" ewd:code="AC"><path style="stroke-width: 0.85 ;&st7;  " d=" M   671.39,   697.25  L   671.39,   701.50  " /><path style="stroke-width: 0.85 ;&st7;  " d=" M   662.89,   701.50  L   679.89,   701.50  " /><path style="stroke-width: 0.85 ;&st7;  " d=" M   667.14,   704.33  L   675.64,   704.33  " /><path style="stroke-width: 0.85 ;&st7;  " d=" M   668.55,   707.17  L   674.22,   707.17  " /><path style="stroke-width: 0.85 ;&st7;  " d=" M   669.97,   710.00  L   672.80,   710.00  " /></g><g ewd:figtype="gp" ewd:figID="35" ewd:code="LA"><path style="stroke-width: 0.85 ;&st7;  " d=" M   830.03,   707.17  L   835.69,   707.17  " /><path style="stroke-width: 0.85 ;&st7;  " d=" M   828.61,   704.33  L   837.11,   704.33  " /><path style="stroke-width: 0.85 ;&st7;  " d=" M   824.36,   701.50  L   841.36,   701.50  " /><path style="stroke-width: 0.85 ;&st7;  " d=" M   832.86,   697.25  L   832.86,   701.50  " /><path style="stroke-width: 0.85 ;&st7;  " d=" M   831.44,   710.00  L   834.28,   710.00  " /></g><g ewd:figtype="gp" ewd:figID="36" ewd:code="ED"><path style="stroke-width: 0.85 ;&st7;  " d=" M   892.35,   697.25  L   892.35,   701.50  " /><path style="stroke-width: 0.85 ;&st7;  " d=" M   883.85,   701.50  L   900.85,   701.50  " /><path style="stroke-width: 0.85 ;&st7;  " d=" M   888.10,   704.33  L   896.60,   704.33  " /><path style="stroke-width: 0.85 ;&st7;  " d=" M   889.52,   707.17  L   895.18,   707.17  " /><path style="stroke-width: 0.85 ;&st7;  " d=" M   890.93,   710.00  L   893.77,   710.00  " /></g><g ewd:code="5" ewd:figID="50" ewd:comment="" ewd:figtype="comment"><text style="font-size:6px;font-family:'NSimSun';" transform="matrix(&st16;  820.96  37.75 )" ewd:textID="3">* 5 : 带 TFT 显示屏</text></g><g ewd:code="3" ewd:figID="53" ewd:comment="" ewd:figtype="comment"><text style="font-size:6px;font-family:'NSimSun';" transform="matrix(&st16;  820.96  20.75 )" ewd:textID="1">* 3: 带智能进入和起动系统</text></g><g ewd:code="4" ewd:figID="52" ewd:comment="" ewd:figtype="comment"><text style="font-size:6px;font-family:'NSimSun';" transform="matrix(&st16;  820.96  29.25 )" ewd:textID="2">* 4: 不带智能进入和起动系统</text></g><g ewd:code="6" ewd:figID="51" ewd:comment="" ewd:figtype="comment"><text style="font-size:6px;font-family:'NSimSun';" transform="matrix(&st16;  820.96  46.25 )" ewd:textID="4">* 6 : 不带 TFT 显示屏</text></g></svg>