<?xml version="1.0" encoding="utf-8"?>
<!DOCTYPE svg PUBLIC "-//W3C//DTD SVG 1.0//EN" "http://www.w3.org/TR/2001/REC-SVG-20010904/DTD/svg10.dtd"[
	<!ENTITY ns_flows "http://ns.adobe.com/Flows/1.0/">
	<!ENTITY ns_svg "http://www.w3.org/2000/svg">
	<!ENTITY ns_xlink "http://www.w3.org/1999/xlink">
	<!ENTITY st0 "font-size:7px;font-family:'NSimSun';adobe-font-script:japanese;">
	<!ENTITY st1 "font-size:6px;font-family:'NSimSun';">
	<!-- White fill  -->
	<!ENTITY st2 "fill:#FFFFFF;stroke:#000000; stroke-width:1.41;stroke-linecap:round;stroke-linejoin:round;">
	<!-- Yellow fill  -->
	<!ENTITY st3 "fill:#FFFFCC;stroke:#FFFFCC; stroke-width:0.1;stroke-linecap:round;stroke-linejoin:round;">
	<!-- Gray fill  -->
	<!ENTITY st4 "fill:#CCCCCC;stroke:#CCCCCC; stroke-width:0.1;stroke-linecap:round;stroke-linejoin:round;">
	<!-- Light-blue fill -->
	<!ENTITY st5 "fill:#CCECF4;stroke:#000000; stroke-width:1.133;stroke-linecap:round;stroke-linejoin:round;">
	<!ENTITY st6 "fill:none;stroke-linecap:butt; stroke-linejoin:round;">
	<!ENTITY st7 "fill:none;stroke:#000000;stroke-linecap:round;stroke-linejoin:round;">
	<!ENTITY st8 "enable-background:new    ;">
	<!-- Black fill -->
	<!ENTITY st9 "fill:#000000;stroke:#000000; stroke-linecap:round;stroke-linejoin:round;">
	<!-- SRS note   -->
	<!ENTITY st10 "font-size:9px;font-family:'NSimSun';">
	<!ENTITY st11 "font-size:9px;font-family:'NSimSun';">
	<!ENTITY st12 "font-size:6px;font-family:'NSimSun';">
	<!ENTITY st13 "fill:none;stroke:#ff0000;stroke-linecap:round;stroke-linejoin:round;">
	<!-- Yellow fill  -->
	<!ENTITY st14 "fill:#FFFF00;stroke:#FFFF00; stroke-width:0.1;stroke-linecap:round;stroke-linejoin:round;">
	<!ENTITY st15 "font-size:6px;font-family:'NSimSun';adobe-font-script:japanese;">
	<!ENTITY st16 "1.00 0.00 0.00 1.00">
	<!ENTITY st17 "0.00 -1.00 1.00 0.00">
	<!ENTITY st18 "font-size:6px;font-family:'NSimSun';">
	<!ENTITY st19 "font-size:9px;font-family:'NSimSun';">
	<!ENTITY st20 "font-size:6px;font-family:'NSimSun';adobe-font-script:japanese;">
	<!ENTITY st21 "font-size:7px;font-family:'NSimSun';adobe-font-script:japanese;">
	<!ATTLIST svg
		xmlns:ewd CDATA #FIXED "http://shcl.co.jp/ewd"
		xmlns:a CDATA #FIXED "http://ns.adobe.com/AdobeSVGViewerExtensions/3.0/"
		ewd:ver CDATA #IMPLIED
	>
	<!ATTLIST a
		ewd:lineID CDATA #IMPLIED
		ewd:groupID CDATA #IMPLIED
		ewd:figtype CDATA #IMPLIED
		ewd:code CDATA #IMPLIED
		ewd:figID CDATA #IMPLIED
		ewd:pinNo CDATA #IMPLIED
		ewd:comment CDATA #IMPLIED >
	<!ATTLIST g
		ewd:lineID CDATA #IMPLIED
		ewd:groupID CDATA #IMPLIED
		ewd:figtype CDATA #IMPLIED
		ewd:code CDATA #IMPLIED
		ewd:figID CDATA #IMPLIED
		ewd:pinNo CDATA #IMPLIED
		ewd:comment CDATA #IMPLIED >
	<!ATTLIST text
		ewd:textID CDATA #IMPLIED
		ewd:horAlign CDATA #IMPLIED >
	<!ATTLIST title
		ewd:textID CDATA #IMPLIED >
]>
<!-- Generator: Shintec Hozumi YS   -->
<svg onload="call_execInitLoadProc_svg('system')" style="overflow:visible;  enable-background:new 0 0 3033.881 710.000" viewBox="0 0 3025.604 710.000" height="710.000" width="3025.604" xml:space="preserve" ewd:ver="2.1.2.6F" xmlns="&ns_svg;" xmlns:ewd="http://shcl.co.jp/ewd" xmlns:a="http://ns.adobe.com/AdobeSVGViewerExtensions/3.0/" xmlns:xlink="&ns_xlink;">
<text style="font-size:6px;font-family:'NSimSun';" transform="matrix(&st16;  616.99  32.08 )" ewd:textID="18">主车身 ECU</text><text style="font-size:6px;font-family:'NSimSun';" transform="matrix(&st16;  616.98  24.98 )">E36(A)</text><path style="stroke-width: 1.42 ;&st7;  " d=" M   603.40,   265.24  L   594.90,   265.24  " /><path style="stroke-width: 1.42 ;&st7;  " d=" M   688.38,   265.24  L   679.89,   265.24  " /><text style="font-size:6px;font-family:'NSimSun';" transform="matrix(&st17;  591.2  303.02 )">LG</text><text style="font-size:6px;font-family:'NSimSun';" transform="matrix(&st17;  591.2  175.54 )">LG</text><text style="font-size:6px;font-family:'NSimSun';" transform="matrix(&st17;  676.19  302.48 )">SB</text><text style="font-size:6px;font-family:'NSimSun';" transform="matrix(&st17;  676.19  175.0 )">SB</text><path style="stroke-width: 1.42 ;&st7;  " d=" M   965.31,   562.69  L   960.34,   567.66  " /><path style="stroke-width: 1.42 ;&st7;  " d=" M   972.37,   579.69  L   977.34,   574.72  " /><path style="stroke-width: 1.42 ;&st7;  " d=" M   960.34,   574.72  L   965.31,   579.69  " /><path style="stroke-width: 1.42 ;&st7;  " d=" M   977.34,   567.66  L   972.37,   562.69  " /><text style="font-size:6px;font-family:'NSimSun';" transform="matrix(&st17;  744.18  175.54 )">LG</text><text style="font-size:6px;font-family:'NSimSun';" transform="matrix(&st17;  965.14  364.47 )">P</text><text style="font-size:6px;font-family:'NSimSun';" transform="matrix(&st17;  965.14  611.14 )">W-B</text><text style="font-size:6px;font-family:'NSimSun';" transform="matrix(&st17;  965.14  509.16 )">W-B</text><text style="font-size:6px;font-family:'NSimSun';" transform="matrix(&st17;  965.14  245.49 )">P</text><text style="font-size:6px;font-family:'NSimSun';" transform="matrix(&st16;  794.58  372.03 )">LG</text><g ewd:figtype="conn" ewd:figID="10" ewd:code="L42"><path style="stroke-width: 1.42 ;&st7;  " d=" M   594.90,   385.64  L   600.57,   362.97  " /><path style="stroke-width: 0.85 ;&st7;  " d=" M   594.90,   392.72  L   594.90,   388.47  " /><path style="stroke-width: 0.85 ;&st7;  " d=" M   594.90,   362.97  L   594.90,   358.73  " /><path style="stroke-width: 0.85 ;&st7;   " d=" M   596.32,   387.05  C   596.32    386.27    595.68    385.64    594.90    385.64  " /><path style="stroke-width: 0.85 ;&st7;   " d=" M   594.90,   385.64  C   594.12    385.64    593.48    386.27    593.48    387.05  " /><path style="stroke-width: 0.85 ;&st7;   " d=" M   593.48,   387.05  C   593.48    387.84    594.12    388.47    594.90    388.47  " /><path style="stroke-width: 0.85 ;&st7;   " d=" M   594.90,   388.47  C   595.68    388.47    596.32    387.84    596.32    387.05  " /><path style="stroke-width: 0.85 ;&st7;   " d=" M   596.32,   364.39  C   596.32    363.61    595.68    362.97    594.90    362.97  " /><path style="stroke-width: 0.85 ;&st7;   " d=" M   594.90,   362.97  C   594.12    362.97    593.48    363.61    593.48    364.39  " /><path style="stroke-width: 0.85 ;&st7;   " d=" M   593.48,   364.39  C   593.48    365.17    594.12    365.81    594.90    365.81  " /><path style="stroke-width: 0.85 ;&st7;   " d=" M   594.90,   365.81  C   595.68    365.81    596.32    365.17    596.32    364.39  " /><path style="stroke-width: 1.42 ;&st7;  " d=" M   603.40,   392.72  L   603.40,   358.73  L   586.40,   358.73  L   586.40,   392.72  L   603.40,   392.72  " /><text style="font-size:6px;font-family:'NSimSun';" transform="matrix(&st16;  588.72  355.04 )">1</text><g ewd:figtype="title"><text style="font-size:6px;font-family:'NSimSun';" transform="matrix(&st17;  611.01  395.62 )">L42</text><text style="font-size:6px;font-family:'NSimSun';" transform="matrix(&st17;  618.12  395.63 )" ewd:textID="26">右后车门门控灯开关总成</text></g></g><g ewd:figtype="conn" ewd:figID="11" ewd:code="L2"><path style="stroke-width: 1.42 ;&st7;  " d=" M   679.89,   385.64  L   685.55,   362.97  " /><path style="stroke-width: 0.85 ;&st7;  " d=" M   679.89,   392.72  L   679.89,   388.47  " /><path style="stroke-width: 0.85 ;&st7;  " d=" M   679.89,   362.97  L   679.89,   358.73  " /><path style="stroke-width: 0.85 ;&st7;   " d=" M   681.30,   387.05  C   681.30    386.27    680.67    385.64    679.89    385.64  " /><path style="stroke-width: 0.85 ;&st7;   " d=" M   679.89,   385.64  C   679.10    385.64    678.47    386.27    678.47    387.05  " /><path style="stroke-width: 0.85 ;&st7;   " d=" M   678.47,   387.05  C   678.47    387.84    679.10    388.47    679.89    388.47  " /><path style="stroke-width: 0.85 ;&st7;   " d=" M   679.89,   388.47  C   680.67    388.47    681.30    387.84    681.30    387.05  " /><path style="stroke-width: 0.85 ;&st7;   " d=" M   681.30,   364.39  C   681.30    363.61    680.67    362.97    679.89    362.97  " /><path style="stroke-width: 0.85 ;&st7;   " d=" M   679.89,   362.97  C   679.10    362.97    678.47    363.61    678.47    364.39  " /><path style="stroke-width: 0.85 ;&st7;   " d=" M   678.47,   364.39  C   678.47    365.17    679.10    365.81    679.89    365.81  " /><path style="stroke-width: 0.85 ;&st7;   " d=" M   679.89,   365.81  C   680.67    365.81    681.30    365.17    681.30    364.39  " /><path style="stroke-width: 1.42 ;&st7;  " d=" M   688.38,   392.72  L   688.38,   358.73  L   671.39,   358.73  L   671.39,   392.72  L   688.38,   392.72  " /><text style="font-size:6px;font-family:'NSimSun';" transform="matrix(&st16;  673.7  355.04 )">1</text><g ewd:figtype="title"><text style="font-size:6px;font-family:'NSimSun';" transform="matrix(&st17;  696.0  395.62 )">L2</text><text style="font-size:6px;font-family:'NSimSun';" transform="matrix(&st17;  703.1  395.63 )" ewd:textID="25">左后车门门控灯开关总成</text></g></g><g ewd:figtype="conn" ewd:figID="12" ewd:code="L54,L55"><path style="stroke-width: 1.42 ;&st7;  " d=" M   739.38,   341.73  L   756.37,   341.73  L   756.37,   324.73  L   739.38,   324.73  L   739.38,   341.73  " /><path style="stroke-width: 0.85 ;&st7;  " d=" M   747.87,   324.73  L   747.87,   341.73  " /><text style="font-size:6px;font-family:'NSimSun';" transform="matrix(&st16;  739.18  348.23 )">5</text><text style="font-size:6px;font-family:'NSimSun';" transform="matrix(&st16;  745.69  348.23 )">B</text><path style="stroke-width: 1.42 ;&st7;   " d=" M   752.41,   346.26  C   752.41    343.76    750.38    341.73    747.88    341.73  " /><path style="stroke-width: 1.42 ;&st7;   " d=" M   747.88,   341.73  C   745.37    341.73    743.34    343.76    743.34    346.26  " /><path style="stroke-width: 1.42 ;&st7;   " d=" M   743.34,   346.26  C   743.34    348.76    745.37    350.79    747.88    350.79  " /><path style="stroke-width: 1.42 ;&st7;   " d=" M   747.88,   350.79  C   750.38    350.79    752.41    348.76    752.41    346.26  " /><text style="font-size:6px;font-family:'NSimSun';" transform="matrix(&st16;  739.18  322.17 )">7</text><text style="font-size:6px;font-family:'NSimSun';" transform="matrix(&st16;  745.57  322.17 )">A</text><path style="stroke-width: 1.42 ;&st7;   " d=" M   752.41,   320.20  C   752.41    317.70    750.38    315.67    747.88    315.67  " /><path style="stroke-width: 1.42 ;&st7;   " d=" M   747.88,   315.67  C   745.37    315.67    743.34    317.70    743.34    320.20  " /><path style="stroke-width: 1.42 ;&st7;   " d=" M   743.34,   320.20  C   743.34    322.70    745.37    324.73    747.88    324.73  " /><path style="stroke-width: 1.42 ;&st7;   " d=" M   747.88,   324.73  C   750.38    324.73    752.41    322.70    752.41    320.20  " /><g ewd:figtype="title"><text style="font-size:6px;font-family:'NSimSun';" transform="matrix(&st17;  764.27  344.63 )">L54(A),L55(B)</text><text style="font-size:6px;font-family:'NSimSun';" transform="matrix(&st17;  771.09  344.63 )" ewd:textID="22">7 号接线连接器<tspan x="0 " dy="6.0" /></text></g></g><g ewd:figtype="conn" ewd:figID="13" ewd:code="L30"><path style="stroke-width: 1.42 ;&st7;  " d=" M   849.86,   445.13  L   855.52,   422.46  " /><path style="stroke-width: 0.85 ;&st7;  " d=" M   849.86,   422.46  L   849.86,   418.22  " /><path style="stroke-width: 1.42 ;&st7;  " d=" M   973.09,   423.88  L   973.09,   427.85  " /><path style="stroke-width: 1.42 ;&st7;  " d=" M   964.59,   427.85  L   964.59,   423.88  " /><path style="stroke-width: 1.42 ;&st7;  " d=" M   964.59,   423.88  L   973.09,   423.88  " /><path style="stroke-width: 1.42 ;&st7;  " d=" M   973.09,   446.54  L   973.09,   442.58  " /><path style="stroke-width: 1.42 ;&st7;  " d=" M   964.59,   442.58  L   964.59,   446.54  " /><path style="stroke-width: 1.42 ;&st7;  " d=" M   964.59,   446.54  L   973.09,   446.54  " /><path style="stroke-width: 1.42 ;&st7;   " d=" M   960.34,   435.21  C   960.34    439.91    964.14    443.71    968.84    443.71  " /><path style="stroke-width: 1.42 ;&st7;   " d=" M   968.84,   443.71  C   973.53    443.71    977.34    439.91    977.34    435.21  " /><path style="stroke-width: 1.42 ;&st7;   " d=" M   977.34,   435.21  C   977.34    430.52    973.53    426.71    968.84    426.71  " /><path style="stroke-width: 1.42 ;&st7;   " d=" M   968.84,   426.71  C   964.14    426.71    960.34    430.52    960.34    435.21  " /><path style="stroke-width: 0.85 ;&st7;   " d=" M   851.27,   446.54  C   851.27    445.76    850.64    445.13    849.86    445.13  " /><path style="stroke-width: 0.85 ;&st7;   " d=" M   849.86,   445.13  C   849.08    445.13    848.44    445.76    848.44    446.54  " /><path style="stroke-width: 0.85 ;&st7;   " d=" M   848.44,   446.54  C   848.44    447.33    849.08    447.96    849.86    447.96  " /><path style="stroke-width: 0.85 ;&st7;   " d=" M   849.86,   447.96  C   850.64    447.96    851.27    447.33    851.27    446.54  " /><path style="stroke-width: 0.85 ;&st7;   " d=" M   851.27,   423.88  C   851.27    423.10    850.64    422.46    849.86    422.46  " /><path style="stroke-width: 0.85 ;&st7;   " d=" M   849.86,   422.46  C   849.08    422.46    848.44    423.10    848.44    423.88  " /><path style="stroke-width: 0.85 ;&st7;   " d=" M   848.44,   423.88  C   848.44    424.66    849.08    425.30    849.86    425.30  " /><path style="stroke-width: 0.85 ;&st7;   " d=" M   849.86,   425.30  C   850.64    425.30    851.27    424.66    851.27    423.88  " /><path style="stroke-width: 0.85 ;&st7;  " d=" M   968.84,   460.71  L   849.86,   460.71  L   849.86,   447.96  " /><path style="stroke-width: 1.42 ;&st7;  " d=" M   832.86,   469.21  L   994.33,   469.21  L   994.33,   409.72  L   832.86,   409.72  L   832.86,   469.21  " /><path style="stroke-width: 0.85 ;&st7;  " d=" M   968.84,   409.72  L   968.84,   423.88  " /><path style="stroke-width: 0.85 ;&st7;  " d=" M   968.84,   446.54  L   968.84,   469.21  " /><path style="stroke-width: 0.85 ;&st7;  " d=" M   849.86,   409.72  L   849.86,   418.22  " /><path style="stroke-width: 0.85 ;&st7;  " d=" M   967.65,   459.71  L   967.37,   460.18  L   967.28,   460.71  L   967.37,   461.24  L   967.65,   461.71  L   968.06,   462.06  L   968.57,   462.24  L   969.11,   462.24  L   969.62,   462.06  L   970.03,   461.71  L   970.30,   461.24  L   970.40,   460.71  L   970.30,   460.18  L   970.03,   459.71  L   969.62,   459.36  L   969.11,   459.17  L   968.57,   459.17  L   968.06,   459.36  L   967.65,   459.71  L   968.04,   460.42  L   968.04,   461.00  L   968.41,   461.44  L   968.99,   461.54  L   969.49,   461.26  L   969.69,   460.71  L   969.49,   460.16  L   968.99,   459.87  L   968.41,   459.97  L   968.84,   460.71  " /><text style="font-size:6px;font-family:'NSimSun';" transform="matrix(&st16;  971.42  465.52 )">E</text><text style="font-size:6px;font-family:'NSimSun';" transform="matrix(&st16;  971.42  417.91 )">ACT+</text><text style="font-size:6px;font-family:'NSimSun';" transform="matrix(&st16;  852.44  417.91 )">D+</text><text style="font-size:6px;font-family:'NSimSun';" transform="matrix(&st16;  966.11  437.18 )">M</text><text style="font-size:6px;font-family:'NSimSun';" transform="matrix(&st17;  844.75  446.67 )" ewd:textID="6">门控灯</text><text style="font-size:6px;font-family:'NSimSun';" transform="matrix(&st16;  843.67  406.03 )">3</text><text style="font-size:6px;font-family:'NSimSun';" transform="matrix(&st16;  962.65  477.4 )">2</text><text style="font-size:6px;font-family:'NSimSun';" transform="matrix(&st16;  962.65  406.03 )">1</text><g ewd:figtype="title"><text style="font-size:6px;font-family:'NSimSun';" transform="matrix(&st17;  1001.95  472.11 )">L30</text><text style="font-size:6px;font-family:'NSimSun';" transform="matrix(&st17;  1009.05  472.11 )" ewd:textID="17">行李厢门锁总成<tspan x="0 " dy="6.0" /></text></g></g><g ewd:figtype="conn" ewd:figID="14" ewd:code="L54,L55"><path style="stroke-width: 0.85 ;&st7;  " d=" M   968.84,   299.24  L   968.84,   316.23  " /><path style="stroke-width: 1.42 ;&st7;  " d=" M   960.34,   299.24  L   960.34,   316.23  L   977.34,   316.23  L   977.34,   299.24  L   960.34,   299.24  " /><text style="font-size:6px;font-family:'NSimSun';" transform="matrix(&st16;  957.04  322.73 )">11</text><text style="font-size:6px;font-family:'NSimSun';" transform="matrix(&st16;  966.65  322.73 )">B</text><path style="stroke-width: 1.42 ;&st7;   " d=" M   973.37,   320.77  C   973.37    318.26    971.34    316.23    968.84    316.23  " /><path style="stroke-width: 1.42 ;&st7;   " d=" M   968.84,   316.23  C   966.33    316.23    964.31    318.26    964.31    320.77  " /><path style="stroke-width: 1.42 ;&st7;   " d=" M   964.31,   320.77  C   964.31    323.27    966.33    325.30    968.84    325.30  " /><path style="stroke-width: 1.42 ;&st7;   " d=" M   968.84,   325.30  C   971.34    325.30    973.37    323.27    973.37    320.77  " /><text style="font-size:6px;font-family:'NSimSun';" transform="matrix(&st16;  960.14  296.67 )">1</text><text style="font-size:6px;font-family:'NSimSun';" transform="matrix(&st16;  966.53  296.67 )">A</text><path style="stroke-width: 1.42 ;&st7;   " d=" M   973.37,   294.70  C   973.37    292.20    971.34    290.17    968.84    290.17  " /><path style="stroke-width: 1.42 ;&st7;   " d=" M   968.84,   290.17  C   966.33    290.17    964.31    292.20    964.31    294.70  " /><path style="stroke-width: 1.42 ;&st7;   " d=" M   964.31,   294.70  C   964.31    297.21    966.33    299.24    968.84    299.24  " /><path style="stroke-width: 1.42 ;&st7;   " d=" M   968.84,   299.24  C   971.34    299.24    973.37    297.21    973.37    294.70  " /><g ewd:figtype="title"><text style="font-size:6px;font-family:'NSimSun';" transform="matrix(&st17;  992.05  319.14 )" ewd:textID="22">7 号接线连接器<tspan x="0 " dy="6.0" /></text><text style="font-size:6px;font-family:'NSimSun';" transform="matrix(&st17;  985.23  319.13 )">L54(A),L55(B)</text></g></g><g ewd:figtype="conn" ewd:figID="24" ewd:code="E36"><g ewd:lineID="11"><text style="font-size:6px;font-family:'NSimSun';" transform="matrix(&st16;  586.21  93.27 )">6</text><path style="stroke-width: 1.42 ;&st7;   " d=" M   599.43,    91.30  C   599.43     88.80    597.40     86.77    594.90     86.77  " /><path style="stroke-width: 1.42 ;&st7;   " d=" M   594.90,    86.77  C   592.40     86.77    590.37     88.80    590.37     91.30  " /><path style="stroke-width: 1.42 ;&st7;   " d=" M   590.37,    91.30  C   590.37     93.81    592.40     95.84    594.90     95.84  " /><path style="stroke-width: 1.42 ;&st7;   " d=" M   594.90,    95.84  C   597.40     95.84    599.43     93.81    599.43     91.30  " /><text style="font-size:6px;font-family:'NSimSun';" transform="matrix(&st16;  592.6  93.27 )">A</text><text style="font-size:6px;font-family:'NSimSun';" transform="matrix(&st16;  586.74  83.07 )">RCTY</text></g><g ewd:lineID="13"><text style="font-size:6px;font-family:'NSimSun';" transform="matrix(&st16;  668.09  93.27 )">24</text><text style="font-size:6px;font-family:'NSimSun';" transform="matrix(&st16;  677.58  93.27 )">A</text><path style="stroke-width: 1.42 ;&st7;   " d=" M   684.42,    91.30  C   684.42     88.80    682.39     86.77    679.89     86.77  " /><path style="stroke-width: 1.42 ;&st7;   " d=" M   679.89,    86.77  C   677.38     86.77    675.35     88.80    675.35     91.30  " /><path style="stroke-width: 1.42 ;&st7;   " d=" M   675.35,    91.30  C   675.35     93.81    677.38     95.84    679.89     95.84  " /><path style="stroke-width: 1.42 ;&st7;   " d=" M   679.89,    95.84  C   682.39     95.84    684.42     93.81    684.42     91.30  " /><text style="font-size:6px;font-family:'NSimSun';" transform="matrix(&st16;  671.77  83.07 )">LCTY</text></g><g ewd:lineID="89"><text style="font-size:6px;font-family:'NSimSun';" transform="matrix(&st16;  739.48  83.07 )">LGCY</text></g><g ewd:lineID="87"><text style="font-size:6px;font-family:'NSimSun';" transform="matrix(&st16;  988.73  83.07 )">TR+</text></g></g><g ewd:figtype="jb" ewd:figID="34" ewd:code="3"><path style="stroke-width: 1.42 ;&st7;  " d=" M   750.00,   120.77  L   745.75,   120.77  " /><path style="stroke-width: 1.42 ;&st7;  " d=" M   750.00,   129.26  L   745.75,   129.26  " /><path style="stroke-width: 1.42 ;&st7;   " d=" M   745.75,   120.77  C   743.40    120.77    741.50    122.67    741.50    125.01  " /><path style="stroke-width: 1.42 ;&st7;   " d=" M   741.50,   125.01  C   741.50    127.36    743.40    129.26    745.75    129.26  " /><path style="stroke-width: 1.42 ;&st7;   " d=" M   750.00,   129.26  C   752.35    129.26    754.25    127.36    754.25    125.01  " /><path style="stroke-width: 1.42 ;&st7;   " d=" M   754.25,   125.01  C   754.25    122.67    752.35    120.77    750.00    120.77  " /><path style="stroke-width: 0.28 ;&st9;  " d=" M   747.87,   115.87  L   745.04,   113.04  L   745.04,   117.29  L   747.87,   120.12  L   750.71,   117.29  L   750.71,   113.04  L   747.87,   115.87  " /><path style="stroke-width: 0.85 ;&st7;  " d=" M   747.87,    86.77  L   747.87,   120.77  " /><text style="font-size:6px;font-family:'NSimSun';" transform="matrix(&st16;  744.21  126.98 )">3E</text><text style="font-size:6px;font-family:'NSimSun';" transform="matrix(&st16;  734.27  126.98 )">34</text><text style="font-size:6px;font-family:'NSimSun';" transform="matrix(&st16;  738.59  94.96 )">20</text></g><g ewd:figtype="jb" ewd:figID="41" ewd:code="3"><path style="stroke-width: 1.42 ;&st7;  " d=" M  1489.38,   222.75  L  1485.13,   222.75  " /><path style="stroke-width: 0.85 ;&st7;  " d=" M   858.36,   146.26  L   858.36,   154.76  " /><path style="stroke-width: 1.42 ;&st7;  " d=" M   968.84,   156.18  L   963.17,   133.51  " /><path style="stroke-width: 0.85 ;&st7;  " d=" M   968.84,   159.01  L   968.84,   163.26  " /><path style="stroke-width: 0.85 ;&st7;  " d=" M   960.34,   146.26  L   963.17,   146.26  " /><path style="stroke-width: 0.85 ;&st7;  " d=" M   968.84,   129.26  L   968.84,   133.51  " /><path style="stroke-width: 0.85 ;&st7;  " d=" M   994.33,   129.26  L   994.33,   137.76  " /><path style="stroke-width: 0.85 ;&st7;  " d=" M   994.33,   154.76  L   994.33,   163.26  " /><path style="stroke-width: 1.42 ;&st7;  " d=" M   970.96,   222.75  L   966.71,   222.75  " /><path style="stroke-width: 1.42 ;&st7;  " d=" M   970.96,   231.25  L   966.71,   231.25  " /><path style="stroke-width: 1.42 ;&st7;  " d=" M  1189.80,   156.18  L  1184.14,   133.51  " /><path style="stroke-width: 0.85 ;&st7;  " d=" M  1189.80,   159.01  L  1189.80,   163.26  " /><path style="stroke-width: 0.85 ;&st7;  " d=" M  1181.30,   146.26  L  1184.14,   146.26  " /><path style="stroke-width: 0.85 ;&st7;  " d=" M  1189.80,   129.26  L  1189.80,   133.51  " /><path style="stroke-width: 0.85 ;&st7;  " d=" M  1215.30,   129.26  L  1215.30,   137.76  " /><path style="stroke-width: 0.85 ;&st7;  " d=" M  1215.30,   154.76  L  1215.30,   163.26  " /><path style="stroke-width: 1.42 ;&st7;  " d=" M  1191.93,   222.75  L  1187.68,   222.75  " /><path style="stroke-width: 1.42 ;&st7;  " d=" M  1191.93,   231.25  L  1187.68,   231.25  " /><path style="stroke-width: 1.42 ;&st7;  " d=" M  1308.78,   156.18  L  1303.12,   133.51  " /><path style="stroke-width: 0.85 ;&st7;  " d=" M  1308.78,   159.01  L  1308.78,   163.26  " /><path style="stroke-width: 0.85 ;&st7;  " d=" M  1300.28,   146.26  L  1303.12,   146.26  " /><path style="stroke-width: 0.85 ;&st7;  " d=" M  1308.78,   129.26  L  1308.78,   133.51  " /><path style="stroke-width: 0.85 ;&st7;  " d=" M  1334.28,   129.26  L  1334.28,   137.76  " /><path style="stroke-width: 0.85 ;&st7;  " d=" M  1334.28,   154.76  L  1334.28,   163.26  " /><path style="stroke-width: 1.42 ;&st7;  " d=" M  1310.91,   222.75  L  1306.66,   222.75  " /><path style="stroke-width: 1.42 ;&st7;  " d=" M  1310.91,   231.25  L  1306.66,   231.25  " /><path style="stroke-width: 1.42 ;&st7;  " d=" M  1421.39,   222.75  L  1417.14,   222.75  " /><path style="stroke-width: 1.42 ;&st7;  " d=" M  1421.39,   231.25  L  1417.14,   231.25  " /><path style="stroke-width: 1.42 ;&st7;  " d=" M  1676.34,   231.25  L  1672.10,   231.25  " /><path style="stroke-width: 1.42 ;&st7;  " d=" M  1676.34,   222.75  L  1672.10,   222.75  " /><path style="stroke-width: 1.42 ;&st7;  " d=" M  1625.35,   222.75  L  1621.10,   222.75  " /><path style="stroke-width: 1.42 ;&st7;  " d=" M  1812.32,   231.25  L  1808.07,   231.25  " /><path style="stroke-width: 1.42 ;&st7;  " d=" M  1812.32,   222.75  L  1808.07,   222.75  " /><path style="stroke-width: 1.42 ;&st7;  " d=" M  1761.33,   231.25  L  1757.08,   231.25  " /><path style="stroke-width: 1.42 ;&st7;  " d=" M  1761.33,   222.75  L  1757.08,   222.75  " /><path style="stroke-width: 1.42 ;&st7;  " d=" M  1089.94,   231.25  L  1085.69,   231.25  " /><path style="stroke-width: 1.42 ;&st7;  " d=" M  1089.94,   222.75  L  1085.69,   222.75  " /><path style="stroke-width: 1.42 ;&st7;  " d=" M  1625.35,   231.25  L  1621.10,   231.25  " /><path style="stroke-width: 1.42 ;&st7;  " d=" M  1489.38,   231.25  L  1485.13,   231.25  " /><path style="stroke-width: 0.85 ;&st7;  " d=" M   798.87,   146.26  L   798.87,   154.76  " /><path style="stroke-width: 1.42 ;&st7;  " d=" M  1132.44,   231.25  L  1128.19,   231.25  " /><path style="stroke-width: 1.42 ;&st7;  " d=" M  1132.44,   222.75  L  1128.19,   222.75  " /><path style="stroke-width: 0.85 ;&st7;   " d=" M   859.77,   122.18  C   859.77    121.40    859.14    120.77    858.36    120.77  " /><path style="stroke-width: 0.85 ;&st7;   " d=" M   858.36,   120.77  C   857.57    120.77    856.94    121.40    856.94    122.18  " /><path style="stroke-width: 0.85 ;&st7;   " d=" M   856.94,   122.18  C   856.94    122.96    857.57    123.60    858.36    123.60  " /><path style="stroke-width: 0.85 ;&st7;   " d=" M   858.36,   123.60  C   859.14    123.60    859.77    122.96    859.77    122.18  " /><path style="stroke-width: 0.85 ;&st7;   " d=" M   859.77,   144.84  C   859.77    144.06    859.14    143.43    858.36    143.43  " /><path style="stroke-width: 0.85 ;&st7;   " d=" M   858.36,   143.43  C   857.57    143.43    856.94    144.06    856.94    144.84  " /><path style="stroke-width: 0.85 ;&st7;   " d=" M   856.94,   144.84  C   856.94    145.63    857.57    146.26    858.36    146.26  " /><path style="stroke-width: 0.85 ;&st7;   " d=" M   858.36,   146.26  C   859.14    146.26    859.77    145.63    859.77    144.84  " /><path style="stroke-width: 1.42 ;&st7;   " d=" M   858.36,   123.60  C   855.62    125.21    854.71    128.74    856.32    131.48  " /><path style="stroke-width: 1.42 ;&st7;   " d=" M   856.32,   131.48  C   856.84    132.36    857.47    132.99    858.36    133.51  " /><path style="stroke-width: 0.85 ;&st7;   " d=" M   966.01,   146.26  C   966.01    145.48    965.37    144.84    964.59    144.84  " /><path style="stroke-width: 0.85 ;&st7;   " d=" M   964.59,   144.84  C   963.81    144.84    963.17    145.48    963.17    146.26  " /><path style="stroke-width: 0.85 ;&st7;   " d=" M   963.17,   146.26  C   963.17    147.04    963.81    147.68    964.59    147.68  " /><path style="stroke-width: 0.85 ;&st7;   " d=" M   964.59,   147.68  C   965.37    147.68    966.01    147.04    966.01    146.26  " /><path style="stroke-width: 0.85 ;&st7;   " d=" M   970.25,   157.59  C   970.25    156.81    969.62    156.18    968.84    156.18  " /><path style="stroke-width: 0.85 ;&st7;   " d=" M   968.84,   156.18  C   968.06    156.18    967.42    156.81    967.42    157.59  " /><path style="stroke-width: 0.85 ;&st7;   " d=" M   967.42,   157.59  C   967.42    158.37    968.06    159.01    968.84    159.01  " /><path style="stroke-width: 0.85 ;&st7;   " d=" M   968.84,   159.01  C   969.62    159.01    970.25    158.37    970.25    157.59  " /><path style="stroke-width: 0.85 ;&st7;   " d=" M   970.25,   134.93  C   970.25    134.15    969.62    133.51    968.84    133.51  " /><path style="stroke-width: 0.85 ;&st7;   " d=" M   968.84,   133.51  C   968.06    133.51    967.42    134.15    967.42    134.93  " /><path style="stroke-width: 0.85 ;&st7;   " d=" M   967.42,   134.93  C   967.42    135.71    968.06    136.35    968.84    136.35  " /><path style="stroke-width: 0.85 ;&st7;   " d=" M   968.84,   136.35  C   969.62    136.35    970.25    135.71    970.25    134.93  " /><path style="stroke-width: 0.85 ;&st7;   " d=" M   991.80,   143.78  C   993.17    145.18    995.42    145.20    996.81    143.83  " /><path style="stroke-width: 0.85 ;&st7;   " d=" M   996.81,   143.83  C   998.21    142.46    998.23    140.22    996.86    138.82  " /><path style="stroke-width: 0.85 ;&st7;   " d=" M   996.86,   138.82  C   996.17    138.12    995.32    137.76    994.33    137.76  " /><path style="stroke-width: 0.85 ;&st7;   " d=" M   991.80,   148.74  C   993.17    150.14    995.42    150.16    996.81    148.79  " /><path style="stroke-width: 0.85 ;&st7;   " d=" M   996.81,   148.79  C   998.21    147.42    998.23    145.18    996.86    143.78  " /><path style="stroke-width: 0.85 ;&st7;   " d=" M   996.86,   143.78  C   995.49    142.38    993.25    142.36    991.86    143.73  " /><path style="stroke-width: 0.85 ;&st7;   " d=" M   991.86,   143.73  C   991.84    143.75    991.82    143.76    991.80    143.78  " /><path style="stroke-width: 0.85 ;&st7;   " d=" M   994.33,   154.76  C   996.29    154.76    997.87    153.17    997.87    151.22  " /><path style="stroke-width: 0.85 ;&st7;   " d=" M   997.87,   151.22  C   997.87    149.26    996.29    147.68    994.33    147.68  " /><path style="stroke-width: 0.85 ;&st7;   " d=" M   994.33,   147.68  C   993.34    147.68    992.50    148.03    991.80    148.74  " /><path style="stroke-width: 1.42 ;&st7;   " d=" M   966.71,   222.75  C   964.37    222.75    962.46    224.65    962.46    227.00  " /><path style="stroke-width: 1.42 ;&st7;   " d=" M   962.46,   227.00  C   962.46    229.34    964.37    231.25    966.71    231.25  " /><path style="stroke-width: 1.42 ;&st7;   " d=" M   970.96,   231.25  C   973.31    231.25    975.21    229.34    975.21    227.00  " /><path style="stroke-width: 1.42 ;&st7;   " d=" M   975.21,   227.00  C   975.21    224.65    973.31    222.75    970.96    222.75  " /><path style="stroke-width: 0.85 ;&st7;   " d=" M  1186.97,   146.26  C  1186.97    145.48   1186.33    144.84   1185.55    144.84  " /><path style="stroke-width: 0.85 ;&st7;   " d=" M  1185.55,   144.84  C  1184.77    144.84   1184.14    145.48   1184.14    146.26  " /><path style="stroke-width: 0.85 ;&st7;   " d=" M  1184.14,   146.26  C  1184.14    147.04   1184.77    147.68   1185.55    147.68  " /><path style="stroke-width: 0.85 ;&st7;   " d=" M  1185.55,   147.68  C  1186.33    147.68   1186.97    147.04   1186.97    146.26  " /><path style="stroke-width: 0.85 ;&st7;   " d=" M  1191.22,   157.59  C  1191.22    156.81   1190.58    156.18   1189.80    156.18  " /><path style="stroke-width: 0.85 ;&st7;   " d=" M  1189.80,   156.18  C  1189.02    156.18   1188.38    156.81   1188.38    157.59  " /><path style="stroke-width: 0.85 ;&st7;   " d=" M  1188.38,   157.59  C  1188.38    158.37   1189.02    159.01   1189.80    159.01  " /><path style="stroke-width: 0.85 ;&st7;   " d=" M  1189.80,   159.01  C  1190.58    159.01   1191.22    158.37   1191.22    157.59  " /><path style="stroke-width: 0.85 ;&st7;   " d=" M  1191.22,   134.93  C  1191.22    134.15   1190.58    133.51   1189.80    133.51  " /><path style="stroke-width: 0.85 ;&st7;   " d=" M  1189.80,   133.51  C  1189.02    133.51   1188.38    134.15   1188.38    134.93  " /><path style="stroke-width: 0.85 ;&st7;   " d=" M  1188.38,   134.93  C  1188.38    135.71   1189.02    136.35   1189.80    136.35  " /><path style="stroke-width: 0.85 ;&st7;   " d=" M  1189.80,   136.35  C  1190.58    136.35   1191.22    135.71   1191.22    134.93  " /><path style="stroke-width: 0.85 ;&st7;   " d=" M  1212.77,   143.78  C  1214.14    145.18   1216.38    145.20   1217.78    143.83  " /><path style="stroke-width: 0.85 ;&st7;   " d=" M  1217.78,   143.83  C  1219.17    142.46   1219.20    140.22   1217.83    138.82  " /><path style="stroke-width: 0.85 ;&st7;   " d=" M  1217.83,   138.82  C  1217.13    138.12   1216.29    137.76   1215.30    137.76  " /><path style="stroke-width: 0.85 ;&st7;   " d=" M  1212.77,   148.74  C  1214.14    150.14   1216.38    150.16   1217.78    148.79  " /><path style="stroke-width: 0.85 ;&st7;   " d=" M  1217.78,   148.79  C  1219.17    147.42   1219.20    145.18   1217.83    143.78  " /><path style="stroke-width: 0.85 ;&st7;   " d=" M  1217.83,   143.78  C  1216.46    142.38   1214.22    142.36   1212.82    143.73  " /><path style="stroke-width: 0.85 ;&st7;   " d=" M  1212.82,   143.73  C  1212.80    143.75   1212.78    143.76   1212.77    143.78  " /><path style="stroke-width: 0.85 ;&st7;   " d=" M  1215.30,   154.76  C  1217.25    154.76   1218.84    153.17   1218.84    151.22  " /><path style="stroke-width: 0.85 ;&st7;   " d=" M  1218.84,   151.22  C  1218.84    149.26   1217.25    147.68   1215.30    147.68  " /><path style="stroke-width: 0.85 ;&st7;   " d=" M  1215.30,   147.68  C  1214.31    147.68   1213.46    148.03   1212.77    148.74  " /><path style="stroke-width: 1.42 ;&st7;   " d=" M  1187.68,   222.75  C  1185.33    222.75   1183.43    224.65   1183.43    227.00  " /><path style="stroke-width: 1.42 ;&st7;   " d=" M  1183.43,   227.00  C  1183.43    229.34   1185.33    231.25   1187.68    231.25  " /><path style="stroke-width: 1.42 ;&st7;   " d=" M  1191.93,   231.25  C  1194.27    231.25   1196.18    229.34   1196.18    227.00  " /><path style="stroke-width: 1.42 ;&st7;   " d=" M  1196.18,   227.00  C  1196.18    224.65   1194.27    222.75   1191.93    222.75  " /><path style="stroke-width: 0.85 ;&st7;   " d=" M  1305.95,   146.26  C  1305.95    145.48   1305.31    144.84   1304.53    144.84  " /><path style="stroke-width: 0.85 ;&st7;   " d=" M  1304.53,   144.84  C  1303.75    144.84   1303.12    145.48   1303.12    146.26  " /><path style="stroke-width: 0.85 ;&st7;   " d=" M  1303.12,   146.26  C  1303.12    147.04   1303.75    147.68   1304.53    147.68  " /><path style="stroke-width: 0.85 ;&st7;   " d=" M  1304.53,   147.68  C  1305.31    147.68   1305.95    147.04   1305.95    146.26  " /><path style="stroke-width: 0.85 ;&st7;   " d=" M  1310.20,   157.59  C  1310.20    156.81   1309.56    156.18   1308.78    156.18  " /><path style="stroke-width: 0.85 ;&st7;   " d=" M  1308.78,   156.18  C  1308.00    156.18   1307.36    156.81   1307.36    157.59  " /><path style="stroke-width: 0.85 ;&st7;   " d=" M  1307.36,   157.59  C  1307.36    158.37   1308.00    159.01   1308.78    159.01  " /><path style="stroke-width: 0.85 ;&st7;   " d=" M  1308.78,   159.01  C  1309.56    159.01   1310.20    158.37   1310.20    157.59  " /><path style="stroke-width: 0.85 ;&st7;   " d=" M  1310.20,   134.93  C  1310.20    134.15   1309.56    133.51   1308.78    133.51  " /><path style="stroke-width: 0.85 ;&st7;   " d=" M  1308.78,   133.51  C  1308.00    133.51   1307.36    134.15   1307.36    134.93  " /><path style="stroke-width: 0.85 ;&st7;   " d=" M  1307.36,   134.93  C  1307.36    135.71   1308.00    136.35   1308.78    136.35  " /><path style="stroke-width: 0.85 ;&st7;   " d=" M  1308.78,   136.35  C  1309.56    136.35   1310.20    135.71   1310.20    134.93  " /><path style="stroke-width: 0.85 ;&st7;   " d=" M  1331.75,   143.78  C  1333.12    145.18   1335.36    145.20   1336.76    143.83  " /><path style="stroke-width: 0.85 ;&st7;   " d=" M  1336.76,   143.83  C  1338.15    142.46   1338.18    140.22   1336.81    138.82  " /><path style="stroke-width: 0.85 ;&st7;   " d=" M  1336.81,   138.82  C  1336.11    138.12   1335.27    137.76   1334.28    137.76  " /><path style="stroke-width: 0.85 ;&st7;   " d=" M  1331.75,   148.74  C  1333.12    150.14   1335.36    150.16   1336.76    148.79  " /><path style="stroke-width: 0.85 ;&st7;   " d=" M  1336.76,   148.79  C  1338.15    147.42   1338.18    145.18   1336.81    143.78  " /><path style="stroke-width: 0.85 ;&st7;   " d=" M  1336.81,   143.78  C  1335.44    142.38   1333.20    142.36   1331.80    143.73  " /><path style="stroke-width: 0.85 ;&st7;   " d=" M  1331.80,   143.73  C  1331.78    143.75   1331.77    143.76   1331.75    143.78  " /><path style="stroke-width: 0.85 ;&st7;   " d=" M  1334.28,   154.76  C  1336.23    154.76   1337.82    153.17   1337.82    151.22  " /><path style="stroke-width: 0.85 ;&st7;   " d=" M  1337.82,   151.22  C  1337.82    149.26   1336.23    147.68   1334.28    147.68  " /><path style="stroke-width: 0.85 ;&st7;   " d=" M  1334.28,   147.68  C  1333.29    147.68   1332.44    148.03   1331.75    148.74  " /><path style="stroke-width: 1.42 ;&st7;   " d=" M  1306.66,   222.75  C  1304.31    222.75   1302.41    224.65   1302.41    227.00  " /><path style="stroke-width: 1.42 ;&st7;   " d=" M  1302.41,   227.00  C  1302.41    229.34   1304.31    231.25   1306.66    231.25  " /><path style="stroke-width: 1.42 ;&st7;   " d=" M  1310.91,   231.25  C  1313.25    231.25   1315.16    229.34   1315.16    227.00  " /><path style="stroke-width: 1.42 ;&st7;   " d=" M  1315.16,   227.00  C  1315.16    224.65   1313.25    222.75   1310.91    222.75  " /><path style="stroke-width: 1.42 ;&st7;   " d=" M  1417.14,   222.75  C  1414.79    222.75   1412.89    224.65   1412.89    227.00  " /><path style="stroke-width: 1.42 ;&st7;   " d=" M  1412.89,   227.00  C  1412.89    229.34   1414.79    231.25   1417.14    231.25  " /><path style="stroke-width: 1.42 ;&st7;   " d=" M  1421.39,   231.25  C  1423.73    231.25   1425.64    229.34   1425.64    227.00  " /><path style="stroke-width: 1.42 ;&st7;   " d=" M  1425.64,   227.00  C  1425.64    224.65   1423.73    222.75   1421.39    222.75  " /><path style="stroke-width: 1.42 ;&st7;   " d=" M  1629.60,   227.00  C  1629.60    224.65   1627.70    222.75   1625.35    222.75  " /><path style="stroke-width: 1.42 ;&st7;   " d=" M  1625.35,   231.25  C  1627.70    231.25   1629.60    229.34   1629.60    227.00  " /><path style="stroke-width: 1.42 ;&st7;   " d=" M  1616.85,   227.00  C  1616.85    229.34   1618.76    231.25   1621.10    231.25  " /><path style="stroke-width: 1.42 ;&st7;   " d=" M  1621.10,   222.75  C  1618.76    222.75   1616.85    224.65   1616.85    227.00  " /><path style="stroke-width: 1.42 ;&st7;   " d=" M  1672.10,   222.75  C  1669.75    222.75   1667.85    224.65   1667.85    227.00  " /><path style="stroke-width: 1.42 ;&st7;   " d=" M  1667.85,   227.00  C  1667.85    229.34   1669.75    231.25   1672.10    231.25  " /><path style="stroke-width: 1.42 ;&st7;   " d=" M  1676.34,   231.25  C  1678.69    231.25   1680.59    229.34   1680.59    227.00  " /><path style="stroke-width: 1.42 ;&st7;   " d=" M  1680.59,   227.00  C  1680.59    224.65   1678.69    222.75   1676.34    222.75  " /><path style="stroke-width: 1.42 ;&st7;   " d=" M  1765.58,   227.00  C  1765.58    224.65   1763.68    222.75   1761.33    222.75  " /><path style="stroke-width: 1.42 ;&st7;   " d=" M  1761.33,   231.25  C  1763.68    231.25   1765.58    229.34   1765.58    227.00  " /><path style="stroke-width: 1.42 ;&st7;   " d=" M  1752.83,   227.00  C  1752.83    229.34   1754.73    231.25   1757.08    231.25  " /><path style="stroke-width: 1.42 ;&st7;   " d=" M  1757.08,   222.75  C  1754.73    222.75   1752.83    224.65   1752.83    227.00  " /><path style="stroke-width: 1.42 ;&st7;   " d=" M  1808.07,   222.75  C  1805.73    222.75   1803.82    224.65   1803.82    227.00  " /><path style="stroke-width: 1.42 ;&st7;   " d=" M  1803.82,   227.00  C  1803.82    229.34   1805.73    231.25   1808.07    231.25  " /><path style="stroke-width: 1.42 ;&st7;   " d=" M  1812.32,   231.25  C  1814.67    231.25   1816.57    229.34   1816.57    227.00  " /><path style="stroke-width: 1.42 ;&st7;   " d=" M  1816.57,   227.00  C  1816.57    224.65   1814.67    222.75   1812.32    222.75  " /><path style="stroke-width: 1.42 ;&st7;   " d=" M   858.36,   143.43  C   861.09    141.81    862.01    138.29    860.39    135.55  " /><path style="stroke-width: 1.42 ;&st7;   " d=" M   860.39,   135.55  C   859.87    134.67    859.24    134.03    858.36    133.51  " /><path style="stroke-width: 1.42 ;&st7;   " d=" M  1485.13,   222.75  C  1482.78    222.75   1480.88    224.65   1480.88    227.00  " /><path style="stroke-width: 1.42 ;&st7;   " d=" M  1094.19,   227.00  C  1094.19    224.65   1092.29    222.75   1089.94    222.75  " /><path style="stroke-width: 1.42 ;&st7;   " d=" M  1089.94,   231.25  C  1092.29    231.25   1094.19    229.34   1094.19    227.00  " /><path style="stroke-width: 1.42 ;&st7;   " d=" M  1081.44,   227.00  C  1081.44    229.34   1083.35    231.25   1085.69    231.25  " /><path style="stroke-width: 1.42 ;&st7;   " d=" M  1085.69,   222.75  C  1083.35    222.75   1081.44    224.65   1081.44    227.00  " /><path style="stroke-width: 1.42 ;&st7;   " d=" M  1480.88,   227.00  C  1480.88    229.34   1482.78    231.25   1485.13    231.25  " /><path style="stroke-width: 1.42 ;&st7;   " d=" M  1489.38,   231.25  C  1491.72    231.25   1493.63    229.34   1493.63    227.00  " /><path style="stroke-width: 1.42 ;&st7;   " d=" M  1493.63,   227.00  C  1493.63    224.65   1491.72    222.75   1489.38    222.75  " /><path style="stroke-width: 0.85 ;&st7;   " d=" M   800.28,   144.84  C   800.28    144.06    799.65    143.43    798.87    143.43  " /><path style="stroke-width: 0.85 ;&st7;   " d=" M   798.87,   143.43  C   798.08    143.43    797.45    144.06    797.45    144.84  " /><path style="stroke-width: 0.85 ;&st7;   " d=" M   797.45,   144.84  C   797.45    145.63    798.08    146.26    798.87    146.26  " /><path style="stroke-width: 0.85 ;&st7;   " d=" M   798.87,   146.26  C   799.65    146.26    800.28    145.63    800.28    144.84  " /><path style="stroke-width: 0.85 ;&st7;   " d=" M   800.28,   122.18  C   800.28    121.40    799.65    120.77    798.87    120.77  " /><path style="stroke-width: 0.85 ;&st7;   " d=" M   798.87,   120.77  C   798.08    120.77    797.45    121.40    797.45    122.18  " /><path style="stroke-width: 0.85 ;&st7;   " d=" M   797.45,   122.18  C   797.45    122.96    798.08    123.60    798.87    123.60  " /><path style="stroke-width: 0.85 ;&st7;   " d=" M   798.87,   123.60  C   799.65    123.60    800.28    122.96    800.28    122.18  " /><path style="stroke-width: 1.42 ;&st7;   " d=" M   798.87,   123.60  C   796.13    125.21    795.22    128.74    796.83    131.48  " /><path style="stroke-width: 1.42 ;&st7;   " d=" M   796.83,   131.48  C   797.35    132.36    797.98    132.99    798.87    133.51  " /><path style="stroke-width: 1.42 ;&st7;   " d=" M   798.87,   143.43  C   801.60    141.81    802.52    138.29    800.90    135.55  " /><path style="stroke-width: 1.42 ;&st7;   " d=" M   800.90,   135.55  C   800.38    134.67    799.75    134.03    798.87    133.51  " /><path style="stroke-width: 1.42 ;&st7;   " d=" M  1128.19,   222.75  C  1125.84    222.75   1123.94    224.65   1123.94    227.00  " /><path style="stroke-width: 1.42 ;&st7;   " d=" M  1123.94,   227.00  C  1123.94    229.34   1125.84    231.25   1128.19    231.25  " /><path style="stroke-width: 1.42 ;&st7;   " d=" M  1132.44,   231.25  C  1134.78    231.25   1136.69    229.34   1136.69    227.00  " /><path style="stroke-width: 1.42 ;&st7;   " d=" M  1136.69,   227.00  C  1136.69    224.65   1134.78    222.75   1132.44    222.75  " /><path style="stroke-width: 1.42 ;&st7;  " d=" M   845.61,   112.27  L   845.61,   154.76  L   871.10,   154.76  L   871.10,   112.27  L   845.61,   112.27  " /><path style="stroke-width: 1.13 ;&st7; stroke-dasharray:3, 3;" d=" M   960.34,   129.26  L  1002.83,   129.26  L  1002.83,   163.26  L   960.34,   163.26  L   960.34,   129.26  " /><path style="stroke-width: 0.85 ;&st7;  " d=" M   994.33,   129.26  L   994.33,    86.77  " /><path style="stroke-width: 0.85 ;&st7;  " d=" M   968.84,   129.26  L   968.84,   112.27  L   926.34,   112.27  L   926.34,   180.26  L   858.36,   180.26  L   858.36,   154.76  " /><path style="stroke-width: 0.28 ;&st9;  " d=" M   968.84,   217.85  L   966.00,   215.02  L   966.00,   219.27  L   968.84,   222.10  L   971.67,   219.27  L   971.67,   215.02  L   968.84,   217.85  " /><path style="stroke-width: 0.85 ;&st7;  " d=" M   968.84,   163.26  L   968.84,   222.75  " /><path style="stroke-width: 1.13 ;&st7; stroke-dasharray:3, 3;" d=" M  1181.30,   129.26  L  1223.80,   129.26  L  1223.80,   163.26  L  1181.30,   163.26  L  1181.30,   129.26  " /><path style="stroke-width: 0.85 ;&st7;  " d=" M  1215.30,   129.26  L  1215.30,    86.77  " /><path style="stroke-width: 0.85 ;&st7;  " d=" M  1086.63,   102.77  L  1086.35,   103.24  L  1086.26,   103.77  L  1086.35,   104.30  L  1086.63,   104.77  L  1087.04,   105.12  L  1087.55,   105.30  L  1088.09,   105.30  L  1088.60,   105.12  L  1089.01,   104.77  L  1089.28,   104.30  L  1089.38,   103.77  L  1089.28,   103.24  L  1089.01,   102.77  L  1088.60,   102.42  L  1088.09,   102.23  L  1087.55,   102.23  L  1087.04,   102.42  L  1086.63,   102.77  L  1087.02,   103.48  L  1087.02,   104.06  L  1087.39,   104.50  L  1087.97,   104.60  L  1088.47,   104.31  L  1088.67,   103.77  L  1088.47,   103.22  L  1087.97,   102.93  L  1087.39,   103.03  L  1087.82,   103.77  " /><path style="stroke-width: 0.28 ;&st9;  " d=" M  1189.80,   217.85  L  1186.97,   215.02  L  1186.97,   219.27  L  1189.80,   222.10  L  1192.63,   219.27  L  1192.63,   215.02  L  1189.80,   217.85  " /><path style="stroke-width: 0.85 ;&st7;  " d=" M  1189.80,   163.26  L  1189.80,   222.75  " /><path style="stroke-width: 1.13 ;&st7; stroke-dasharray:3, 3;" d=" M  1300.28,   129.26  L  1342.78,   129.26  L  1342.78,   163.26  L  1300.28,   163.26  L  1300.28,   129.26  " /><path style="stroke-width: 0.85 ;&st7;  " d=" M  1334.28,   129.26  L  1334.28,    86.77  " /><path style="stroke-width: 0.85 ;&st7;  " d=" M  1308.78,   129.26  L  1308.78,   112.27  L  1266.29,   112.27  L  1266.29,   188.75  " /><path style="stroke-width: 0.85 ;&st7;  " d=" M  1214.10,   187.75  L  1213.83,   188.22  L  1213.74,   188.75  L  1213.83,   189.29  L  1214.10,   189.76  L  1214.52,   190.10  L  1215.02,   190.29  L  1215.57,   190.29  L  1216.08,   190.10  L  1216.49,   189.76  L  1216.76,   189.29  L  1216.85,   188.75  L  1216.76,   188.22  L  1216.49,   187.75  L  1216.08,   187.41  L  1215.57,   187.22  L  1215.02,   187.22  L  1214.52,   187.41  L  1214.10,   187.75  L  1214.50,   188.46  L  1214.50,   189.05  L  1214.87,   189.49  L  1215.44,   189.59  L  1215.95,   189.30  L  1216.15,   188.75  L  1215.95,   188.21  L  1215.44,   187.92  L  1214.87,   188.02  L  1215.30,   188.75  " /><path style="stroke-width: 0.85 ;&st7;  " d=" M  1215.30,   163.26  L  1215.30,   188.75  " /><path style="stroke-width: 0.85 ;&st7;  " d=" M  1265.10,   187.75  L  1264.82,   188.22  L  1264.73,   188.75  L  1264.82,   189.29  L  1265.10,   189.76  L  1265.51,   190.10  L  1266.02,   190.29  L  1266.56,   190.29  L  1267.07,   190.10  L  1267.48,   189.76  L  1267.75,   189.29  L  1267.85,   188.75  L  1267.75,   188.22  L  1267.48,   187.75  L  1267.07,   187.41  L  1266.56,   187.22  L  1266.02,   187.22  L  1265.51,   187.41  L  1265.10,   187.75  L  1265.49,   188.46  L  1265.49,   189.05  L  1265.86,   189.49  L  1266.44,   189.59  L  1266.94,   189.30  L  1267.14,   188.75  L  1266.94,   188.21  L  1266.44,   187.92  L  1265.86,   188.02  L  1266.29,   188.75  " /><path style="stroke-width: 0.85 ;&st7;  " d=" M  1181.30,   146.26  L  1164.30,   146.26  L  1164.30,   103.77  " /><path style="stroke-width: 0.85 ;&st7;  " d=" M  1163.11,   102.77  L  1162.84,   103.24  L  1162.75,   103.77  L  1162.84,   104.30  L  1163.11,   104.77  L  1163.53,   105.12  L  1164.03,   105.30  L  1164.58,   105.30  L  1165.08,   105.12  L  1165.50,   104.77  L  1165.77,   104.30  L  1165.86,   103.77  L  1165.77,   103.24  L  1165.50,   102.77  L  1165.08,   102.42  L  1164.58,   102.23  L  1164.03,   102.23  L  1163.53,   102.42  L  1163.11,   102.77  L  1163.51,   103.48  L  1163.51,   104.06  L  1163.88,   104.50  L  1164.45,   104.60  L  1164.96,   104.31  L  1165.15,   103.77  L  1164.96,   103.22  L  1164.45,   102.93  L  1163.88,   103.03  L  1164.30,   103.77  " /><path style="stroke-width: 0.28 ;&st9;  " d=" M  1308.78,   217.85  L  1305.95,   215.02  L  1305.95,   219.27  L  1308.78,   222.10  L  1311.61,   219.27  L  1311.61,   215.02  L  1308.78,   217.85  " /><path style="stroke-width: 0.85 ;&st7;  " d=" M  1308.78,   163.26  L  1308.78,   171.76  " /><path style="stroke-width: 0.28 ;&st9;  " d=" M  1419.26,   217.85  L  1416.43,   215.02  L  1416.43,   219.27  L  1419.26,   222.10  L  1422.10,   219.27  L  1422.10,   215.02  L  1419.26,   217.85  " /><path style="stroke-width: 0.85 ;&st7;  " d=" M  1189.80,   205.75  L  1759.21,   205.75  L  1759.21,   222.75  " /><path style="stroke-width: 0.85 ;&st7;  " d=" M  1188.61,   204.75  L  1188.34,   205.22  L  1188.24,   205.75  L  1188.34,   206.28  L  1188.61,   206.75  L  1189.02,   207.10  L  1189.53,   207.29  L  1190.07,   207.29  L  1190.58,   207.10  L  1190.99,   206.75  L  1191.27,   206.28  L  1191.36,   205.75  L  1191.27,   205.22  L  1190.99,   204.75  L  1190.58,   204.40  L  1190.07,   204.22  L  1189.53,   204.22  L  1189.02,   204.40  L  1188.61,   204.75  L  1189.00,   205.46  L  1189.00,   206.04  L  1189.38,   206.49  L  1189.95,   206.59  L  1190.45,   206.30  L  1190.65,   205.75  L  1190.45,   205.20  L  1189.95,   204.92  L  1189.38,   205.01  L  1189.80,   205.75  " /><path style="stroke-width: 0.85 ;&st7;  " d=" M  1419.26,   222.75  L  1419.26,   205.75  " /><path style="stroke-width: 0.85 ;&st7;  " d=" M  1418.07,   204.75  L  1417.80,   205.22  L  1417.70,   205.75  L  1417.80,   206.28  L  1418.07,   206.75  L  1418.48,   207.10  L  1418.99,   207.29  L  1419.53,   207.29  L  1420.04,   207.10  L  1420.45,   206.75  L  1420.73,   206.28  L  1420.82,   205.75  L  1420.73,   205.22  L  1420.45,   204.75  L  1420.04,   204.40  L  1419.53,   204.22  L  1418.99,   204.22  L  1418.48,   204.40  L  1418.07,   204.75  L  1418.46,   205.46  L  1418.46,   206.04  L  1418.84,   206.49  L  1419.41,   206.59  L  1419.91,   206.30  L  1420.11,   205.75  L  1419.91,   205.20  L  1419.41,   204.92  L  1418.84,   205.01  L  1419.26,   205.75  " /><path style="stroke-width: 0.28 ;&st9;  " d=" M  1623.23,   217.85  L  1620.40,   215.02  L  1620.40,   219.27  L  1623.23,   222.10  L  1626.06,   219.27  L  1626.06,   215.02  L  1623.23,   217.85  " /><path style="stroke-width: 0.28 ;&st9;  " d=" M  1674.22,   217.85  L  1671.39,   215.02  L  1671.39,   219.27  L  1674.22,   222.10  L  1677.05,   219.27  L  1677.05,   215.02  L  1674.22,   217.85  " /><path style="stroke-width: 0.85 ;&st7;  " d=" M  1623.23,   205.75  L  1623.23,   222.75  " /><path style="stroke-width: 0.85 ;&st7;  " d=" M  1307.59,   170.75  L  1307.32,   171.22  L  1307.22,   171.76  L  1307.32,   172.29  L  1307.59,   172.76  L  1308.00,   173.11  L  1308.51,   173.29  L  1309.05,   173.29  L  1309.56,   173.11  L  1309.97,   172.76  L  1310.25,   172.29  L  1310.34,   171.76  L  1310.25,   171.22  L  1309.97,   170.75  L  1309.56,   170.41  L  1309.05,   170.22  L  1308.51,   170.22  L  1308.00,   170.41  L  1307.59,   170.75  L  1307.98,   171.47  L  1307.98,   172.05  L  1308.36,   172.49  L  1308.93,   172.59  L  1309.43,   172.30  L  1309.63,   171.76  L  1309.43,   171.21  L  1308.93,   170.92  L  1308.36,   171.02  L  1308.78,   171.76  " /><path style="stroke-width: 0.85 ;&st7;  " d=" M  1622.04,   204.75  L  1621.76,   205.22  L  1621.67,   205.75  L  1621.76,   206.28  L  1622.04,   206.75  L  1622.45,   207.10  L  1622.96,   207.29  L  1623.50,   207.29  L  1624.01,   207.10  L  1624.42,   206.75  L  1624.69,   206.28  L  1624.79,   205.75  L  1624.69,   205.22  L  1624.42,   204.75  L  1624.01,   204.40  L  1623.50,   204.22  L  1622.96,   204.22  L  1622.45,   204.40  L  1622.04,   204.75  L  1622.43,   205.46  L  1622.43,   206.04  L  1622.80,   206.49  L  1623.38,   206.59  L  1623.88,   206.30  L  1624.08,   205.75  L  1623.88,   205.20  L  1623.38,   204.92  L  1622.80,   205.01  L  1623.23,   205.75  " /><path style="stroke-width: 0.85 ;&st7;  " d=" M  1673.03,   170.75  L  1672.75,   171.22  L  1672.66,   171.76  L  1672.75,   172.29  L  1673.03,   172.76  L  1673.44,   173.11  L  1673.95,   173.29  L  1674.49,   173.29  L  1675.00,   173.11  L  1675.41,   172.76  L  1675.68,   172.29  L  1675.78,   171.76  L  1675.68,   171.22  L  1675.41,   170.75  L  1675.00,   170.41  L  1674.49,   170.22  L  1673.95,   170.22  L  1673.44,   170.41  L  1673.03,   170.75  L  1673.42,   171.47  L  1673.42,   172.05  L  1673.79,   172.49  L  1674.37,   172.59  L  1674.87,   172.30  L  1675.07,   171.76  L  1674.87,   171.21  L  1674.37,   170.92  L  1673.79,   171.02  L  1674.22,   171.76  " /><path style="stroke-width: 0.85 ;&st7;  " d=" M  1674.22,   171.76  L  1674.22,   222.75  " /><path style="stroke-width: 0.85 ;&st7;  " d=" M   925.15,   179.25  L   924.88,   179.72  L   924.79,   180.26  L   924.88,   180.79  L   925.15,   181.26  L   925.57,   181.60  L   926.07,   181.79  L   926.62,   181.79  L   927.12,   181.60  L   927.54,   181.26  L   927.81,   180.79  L   927.90,   180.26  L   927.81,   179.72  L   927.54,   179.25  L   927.12,   178.91  L   926.62,   178.72  L   926.07,   178.72  L   925.57,   178.91  L   925.15,   179.25  L   925.55,   179.96  L   925.55,   180.55  L   925.92,   180.99  L   926.49,   181.09  L   927.00,   180.80  L   927.19,   180.26  L   927.00,   179.71  L   926.49,   179.42  L   925.92,   179.52  L   926.34,   180.26  " /><path style="stroke-width: 0.28 ;&st9;  " d=" M  1759.21,   217.85  L  1756.37,   215.02  L  1756.37,   219.27  L  1759.21,   222.10  L  1762.04,   219.27  L  1762.04,   215.02  L  1759.21,   217.85  " /><path style="stroke-width: 0.28 ;&st9;  " d=" M  1810.20,   217.85  L  1807.36,   215.02  L  1807.36,   219.27  L  1810.20,   222.10  L  1813.03,   219.27  L  1813.03,   215.02  L  1810.20,   217.85  " /><path style="stroke-width: 0.85 ;&st7;  " d=" M   960.34,   146.26  L   943.34,   146.26  L   943.34,   103.77  L  1283.29,   103.77  L  1283.29,   146.26  L  1300.28,   146.26  " /><path style="stroke-width: 0.85 ;&st7;  " d=" M  1087.82,    86.77  L  1087.82,   222.75  " /><path style="stroke-width: 0.28 ;&st9;  " d=" M  1087.82,   217.85  L  1084.98,   215.02  L  1084.98,   219.27  L  1087.82,   222.10  L  1090.65,   219.27  L  1090.65,   215.02  L  1087.82,   217.85  " /><path style="stroke-width: 0.85 ;&st7;  " d=" M  1334.28,   163.26  L  1334.28,   188.75  L  1147.31,   188.75  L  1147.31,   112.27  L  1189.80,   112.27  L  1189.80,   129.26  " /><path style="stroke-width: 0.85 ;&st7;  " d=" M  1308.78,   222.75  L  1308.78,   171.76  " /><path style="stroke-width: 0.85 ;&st7;  " d=" M  1810.20,   222.75  L  1810.20,   171.76  L  1308.78,   171.76  " /><path style="stroke-width: 0.28 ;&st9;  " d=" M  1487.25,   217.85  L  1484.42,   215.02  L  1484.42,   219.27  L  1487.25,   222.10  L  1490.08,   219.27  L  1490.08,   215.02  L  1487.25,   217.85  " /><path style="stroke-width: 0.85 ;&st7;  " d=" M  1487.25,   171.76  L  1487.25,   222.75  " /><path style="stroke-width: 1.42 ;&st7;  " d=" M   786.12,   112.27  L   786.12,   154.76  L   811.61,   154.76  L   811.61,   112.27  L   786.12,   112.27  " /><path style="stroke-width: 0.28 ;&st9;  " d=" M  1130.31,   217.85  L  1127.48,   215.02  L  1127.48,   219.27  L  1130.31,   222.10  L  1133.14,   219.27  L  1133.14,   215.02  L  1130.31,   217.85  " /><path style="stroke-width: 0.85 ;&st7;  " d=" M  1130.31,   222.75  L  1130.31,   171.76  L  1087.82,   171.76  " /><path style="stroke-width: 0.85 ;&st7;  " d=" M   994.33,   163.26  L   994.33,   180.26  L   926.34,   180.26  " /><path style="stroke-width: 0.85 ;&st7;  " d=" M  1086.63,   170.75  L  1086.35,   171.22  L  1086.26,   171.76  L  1086.35,   172.29  L  1086.63,   172.76  L  1087.04,   173.11  L  1087.55,   173.29  L  1088.09,   173.29  L  1088.60,   173.11  L  1089.01,   172.76  L  1089.28,   172.29  L  1089.38,   171.76  L  1089.28,   171.22  L  1089.01,   170.75  L  1088.60,   170.41  L  1088.09,   170.22  L  1087.55,   170.22  L  1087.04,   170.41  L  1086.63,   170.75  L  1087.02,   171.47  L  1087.02,   172.05  L  1087.39,   172.49  L  1087.97,   172.59  L  1088.47,   172.30  L  1088.67,   171.76  L  1088.47,   171.21  L  1087.97,   170.92  L  1087.39,   171.02  L  1087.82,   171.76  " /><path style="stroke-width: 0.85 ;&st7;  " d=" M  1146.12,   187.75  L  1145.84,   188.22  L  1145.75,   188.75  L  1145.84,   189.29  L  1146.12,   189.76  L  1146.53,   190.10  L  1147.04,   190.29  L  1147.58,   190.29  L  1148.09,   190.10  L  1148.50,   189.76  L  1148.77,   189.29  L  1148.87,   188.75  L  1148.77,   188.22  L  1148.50,   187.75  L  1148.09,   187.41  L  1147.58,   187.22  L  1147.04,   187.22  L  1146.53,   187.41  L  1146.12,   187.75  L  1146.51,   188.46  L  1146.51,   189.05  L  1146.88,   189.49  L  1147.46,   189.59  L  1147.96,   189.30  L  1148.16,   188.75  L  1147.96,   188.21  L  1147.46,   187.92  L  1146.88,   188.02  L  1147.31,   188.75  " /><path style="stroke-width: 0.85 ;&st7;  " d=" M  1486.06,   170.75  L  1485.79,   171.22  L  1485.69,   171.76  L  1485.79,   172.29  L  1486.06,   172.76  L  1486.47,   173.11  L  1486.98,   173.29  L  1487.52,   173.29  L  1488.03,   173.11  L  1488.44,   172.76  L  1488.72,   172.29  L  1488.81,   171.76  L  1488.72,   171.22  L  1488.44,   170.75  L  1488.03,   170.41  L  1487.52,   170.22  L  1486.98,   170.22  L  1486.47,   170.41  L  1486.06,   170.75  L  1486.45,   171.47  L  1486.45,   172.05  L  1486.83,   172.49  L  1487.40,   172.59  L  1487.90,   172.30  L  1488.10,   171.76  L  1487.90,   171.21  L  1487.40,   170.92  L  1486.83,   171.02  L  1487.25,   171.76  " /><path style="stroke-width: 0.85 ;&st7;  " d=" M  1147.31,   188.75  L  1002.47,   188.75  L   994.33,   188.75  L   798.87,   188.75  L   798.87,   154.76  " /><text style="font-size:6px;font-family:'NSimSun';" transform="matrix(&st16;  874.78  129.83 )">10A <tspan x="0 " dy="6.0">DOOR </tspan><tspan x="0 " dy="6.0">BACK</tspan></text><text style="font-size:6px;font-family:'NSimSun';" transform="matrix(&st16;  850.31  108.57 )">(BAT)</text><text style="font-size:6px;font-family:'NSimSun';" transform="matrix(&st16;  988.15  94.96 )">6</text><text style="font-size:6px;font-family:'NSimSun';" transform="matrix(&st16;  1227.47  145.4 )" ewd:textID="7">D/LOCK<tspan x="0 " dy="6.0">继电器</tspan></text><text style="font-size:6px;font-family:'NSimSun';" transform="matrix(&st16;  965.18  228.97 )">3E</text><text style="font-size:6px;font-family:'NSimSun';" transform="matrix(&st16;  955.23  228.97 )">39</text><text style="font-size:6px;font-family:'NSimSun';" transform="matrix(&st16;  1078.53  94.96 )">11</text><text style="font-size:6px;font-family:'NSimSun';" transform="matrix(&st16;  1209.11  94.96 )">9</text><text style="font-size:6px;font-family:'NSimSun';" transform="matrix(&st16;  1346.45  145.4 )" ewd:textID="8">D/UNLOCK<tspan x="0 " dy="6.0">继电器</tspan></text><text style="font-size:6px;font-family:'NSimSun';" transform="matrix(&st16;  1185.83  228.97 )">3C</text><text style="font-size:6px;font-family:'NSimSun';" transform="matrix(&st16;  1176.19  228.97 )">14</text><text style="font-size:6px;font-family:'NSimSun';" transform="matrix(&st16;  1328.09  94.96 )">8</text><text style="font-size:6px;font-family:'NSimSun';" transform="matrix(&st16;  1304.81  228.97 )">3C</text><text style="font-size:6px;font-family:'NSimSun';" transform="matrix(&st16;  1298.27  228.97 )">5</text><text style="font-size:6px;font-family:'NSimSun';" transform="matrix(&st16;  1415.29  228.97 )">3C</text><text style="font-size:6px;font-family:'NSimSun';" transform="matrix(&st16;  1405.65  228.97 )">13</text><text style="font-size:6px;font-family:'NSimSun';" transform="matrix(&st16;  1074.21  228.97 )">12</text><text style="font-size:6px;font-family:'NSimSun';" transform="matrix(&st16;  1083.89  228.97 )">3D</text><text style="font-size:6px;font-family:'NSimSun';" transform="matrix(&st16;  1612.72  228.97 )">8</text><text style="font-size:6px;font-family:'NSimSun';" transform="matrix(&st16;  1619.57  228.97 )">3E</text><text style="font-size:6px;font-family:'NSimSun';" transform="matrix(&st16;  1670.56  228.97 )">3E</text><text style="font-size:6px;font-family:'NSimSun';" transform="matrix(&st16;  1663.71  228.97 )">1</text><text style="font-size:6px;font-family:'NSimSun';" transform="matrix(&st16;  1748.7  228.97 )">9</text><text style="font-size:6px;font-family:'NSimSun';" transform="matrix(&st16;  1755.54  228.97 )">3E</text><text style="font-size:6px;font-family:'NSimSun';" transform="matrix(&st16;  1806.54  228.97 )">3E</text><text style="font-size:6px;font-family:'NSimSun';" transform="matrix(&st16;  1799.69  228.97 )">2</text><text style="font-size:6px;font-family:'NSimSun';" transform="matrix(&st16;  1483.28  228.97 )">3C</text><text style="font-size:6px;font-family:'NSimSun';" transform="matrix(&st16;  1476.74  228.97 )">4</text><text style="font-size:6px;font-family:'NSimSun';" transform="matrix(&st16;  815.29  129.83 )">20A <tspan x="0 " dy="6.0">D/L </tspan><tspan x="0 " dy="6.0">NO.2</tspan></text><text style="font-size:6px;font-family:'NSimSun';" transform="matrix(&st16;  790.82  108.57 )">(BAT)</text><text style="font-size:6px;font-family:'NSimSun';" transform="matrix(&st16;  792.68  162.95 )">2</text><text style="font-size:6px;font-family:'NSimSun';" transform="matrix(&st16;  852.17  162.95 )">2</text><text style="font-size:6px;font-family:'NSimSun';" transform="matrix(&st16;  1119.8  228.97 )">9</text><text style="font-size:6px;font-family:'NSimSun';" transform="matrix(&st16;  1126.34  228.97 )">3C</text><text style="font-size:6px;font-family:'NSimSun';" transform="matrix(&st16;  1006.51  142.58 )" ewd:textID="16">LUG<tspan x="0 " dy="6.0">LOCK</tspan><tspan x="0 " dy="6.0">继电器</tspan></text></g><g ewd:figtype="w2w" ewd:figID="44" ewd:code="EL4"><path style="stroke-width: 1.42 ;&st7;  " d=" M   599.15,   274.31  L   594.90,   270.06  L   590.65,   274.31  " /><path style="stroke-width: 1.42 ;&st7;  " d=" M   599.15,   270.91  L   594.90,   266.66  L   590.65,   270.91  " /><text style="font-size:6px;font-family:'NSimSun';" transform="matrix(&st16;  582.27  262.96 )">9</text></g><g ewd:figtype="w2w" ewd:figID="45" ewd:code="EL2"><path style="stroke-width: 1.42 ;&st7;  " d=" M   684.14,   274.31  L   679.89,   270.06  L   675.64,   274.31  " /><path style="stroke-width: 1.42 ;&st7;  " d=" M   684.14,   270.91  L   679.89,   266.66  L   675.64,   270.91  " /><text style="font-size:6px;font-family:'NSimSun';" transform="matrix(&st16;  667.25  262.96 )">5</text></g><g ewd:figtype="gp" ewd:figID="67" ewd:code="LA"><path style="stroke-width: 0.85 ;&st7;  " d=" M   968.84,   697.25  L   968.84,   701.50  " /><path style="stroke-width: 0.85 ;&st7;  " d=" M   960.34,   701.50  L   977.34,   701.50  " /><path style="stroke-width: 0.85 ;&st7;  " d=" M   964.59,   704.33  L   973.09,   704.33  " /><path style="stroke-width: 0.85 ;&st7;  " d=" M   966.00,   707.17  L   971.67,   707.17  " /><path style="stroke-width: 0.85 ;&st7;  " d=" M   967.42,   710.00  L   970.25,   710.00  " /></g><g ewd:figtype="annex" ewd:figID="91" ewd:code=" "><path style="stroke-width: 0.85 ;&st7;  " d=" M   593.48,   409.72  L   596.32,   409.72  " /><path style="stroke-width: 0.85 ;&st7;  " d=" M   586.40,   401.22  L   603.40,   401.22  " /><path style="stroke-width: 0.85 ;&st7;  " d=" M   590.65,   404.05  L   599.15,   404.05  " /><path style="stroke-width: 0.85 ;&st7;  " d=" M   594.90,   392.72  L   594.90,   401.22  " /><path style="stroke-width: 0.85 ;&st7;  " d=" M   592.07,   406.88  L   597.73,   406.88  " /></g><g ewd:figtype="annex" ewd:figID="92" ewd:code=" "><path style="stroke-width: 0.85 ;&st7;  " d=" M   678.47,   409.72  L   681.30,   409.72  " /><path style="stroke-width: 0.85 ;&st7;  " d=" M   677.05,   406.88  L   682.72,   406.88  " /><path style="stroke-width: 0.85 ;&st7;  " d=" M   671.39,   401.22  L   688.38,   401.22  " /><path style="stroke-width: 0.85 ;&st7;  " d=" M   679.89,   392.72  L   679.89,   401.22  " /><path style="stroke-width: 0.85 ;&st7;  " d=" M   675.64,   404.05  L   684.14,   404.05  " /></g></svg>