<?xml version="1.0" encoding="utf-8"?>
<!DOCTYPE svg PUBLIC "-//W3C//DTD SVG 1.0//EN" "http://www.w3.org/TR/2001/REC-SVG-20010904/DTD/svg10.dtd"[
	<!ENTITY ns_flows "http://ns.adobe.com/Flows/1.0/">
	<!ENTITY ns_svg "http://www.w3.org/2000/svg">
	<!ENTITY ns_xlink "http://www.w3.org/1999/xlink">
	<!ENTITY st0 "font-size:7px;font-family:'NSimSun';adobe-font-script:japanese;">
	<!ENTITY st1 "font-size:6px;font-family:'NSimSun';">
	<!-- White fill  -->
	<!ENTITY st2 "fill:#FFFFFF;stroke:#000000; stroke-width:1.41;stroke-linecap:round;stroke-linejoin:round;">
	<!-- Yellow fill  -->
	<!ENTITY st3 "fill:#FFFFCC;stroke:#FFFFCC; stroke-width:0.1;stroke-linecap:round;stroke-linejoin:round;">
	<!-- Gray fill  -->
	<!ENTITY st4 "fill:#CCCCCC;stroke:#CCCCCC; stroke-width:0.1;stroke-linecap:round;stroke-linejoin:round;">
	<!-- Light-blue fill -->
	<!ENTITY st5 "fill:#CCECF4;stroke:#000000; stroke-width:1.133;stroke-linecap:round;stroke-linejoin:round;">
	<!ENTITY st6 "fill:none;stroke-linecap:butt; stroke-linejoin:round;">
	<!ENTITY st7 "fill:none;stroke:#000000;stroke-linecap:round;stroke-linejoin:round;">
	<!ENTITY st8 "enable-background:new    ;">
	<!-- Black fill -->
	<!ENTITY st9 "fill:#000000;stroke:#000000; stroke-linecap:round;stroke-linejoin:round;">
	<!-- SRS note   -->
	<!ENTITY st10 "font-size:9px;font-family:'NSimSun';">
	<!ENTITY st11 "font-size:9px;font-family:'NSimSun';">
	<!ENTITY st12 "font-size:6px;font-family:'NSimSun';">
	<!ENTITY st13 "fill:none;stroke:#ff0000;stroke-linecap:round;stroke-linejoin:round;">
	<!-- Yellow fill  -->
	<!ENTITY st14 "fill:#FFFF00;stroke:#FFFF00; stroke-width:0.1;stroke-linecap:round;stroke-linejoin:round;">
	<!ENTITY st15 "font-size:6px;font-family:'NSimSun';adobe-font-script:japanese;">
	<!ENTITY st16 "1.00 0.00 0.00 1.00">
	<!ENTITY st17 "0.00 -1.00 1.00 0.00">
	<!ENTITY st18 "font-size:6px;font-family:'NSimSun';">
	<!ENTITY st19 "font-size:9px;font-family:'NSimSun';">
	<!ENTITY st20 "font-size:6px;font-family:'NSimSun';adobe-font-script:japanese;">
	<!ENTITY st21 "font-size:7px;font-family:'NSimSun';adobe-font-script:japanese;">
	<!ATTLIST svg
		xmlns:ewd CDATA #FIXED "http://shcl.co.jp/ewd"
		xmlns:a CDATA #FIXED "http://ns.adobe.com/AdobeSVGViewerExtensions/3.0/"
		ewd:ver CDATA #IMPLIED
	>
	<!ATTLIST a
		ewd:lineID CDATA #IMPLIED
		ewd:groupID CDATA #IMPLIED
		ewd:figtype CDATA #IMPLIED
		ewd:code CDATA #IMPLIED
		ewd:figID CDATA #IMPLIED
		ewd:pinNo CDATA #IMPLIED
		ewd:comment CDATA #IMPLIED >
	<!ATTLIST g
		ewd:lineID CDATA #IMPLIED
		ewd:groupID CDATA #IMPLIED
		ewd:figtype CDATA #IMPLIED
		ewd:code CDATA #IMPLIED
		ewd:figID CDATA #IMPLIED
		ewd:pinNo CDATA #IMPLIED
		ewd:comment CDATA #IMPLIED >
	<!ATTLIST text
		ewd:textID CDATA #IMPLIED
		ewd:horAlign CDATA #IMPLIED >
	<!ATTLIST title
		ewd:textID CDATA #IMPLIED >
]>
<!-- Generator: Shintec Hozumi YS   -->
<svg onload="call_execInitLoadProc_svg('system')" style="overflow:visible;  enable-background:new 0 0 3033.881 710.000" viewBox="0 0 3025.604 710.000" height="710.000" width="3025.604" xml:space="preserve" ewd:ver="2.1.2.6F" xmlns="&ns_svg;" xmlns:ewd="http://shcl.co.jp/ewd" xmlns:a="http://ns.adobe.com/AdobeSVGViewerExtensions/3.0/" xmlns:xlink="&ns_xlink;">
<text style="font-size:6px;font-family:'NSimSun';" transform="matrix(&st16;  2104.24  24.98 )">E36(A)</text><text style="font-size:6px;font-family:'NSimSun';" transform="matrix(&st16;  2104.24  32.08 )" ewd:textID="17">主车身 ECU</text><path style="stroke-width: 1.42 ;&st7;  " d=" M  2031.16,   307.73  L  2022.66,   307.73  " /><path style="stroke-width: 1.42 ;&st7;  " d=" M  2014.16,   154.76  L  2022.66,   154.76  " /><text style="font-size:6px;font-family:'NSimSun';" transform="matrix(&st17;  2018.97  122.73 )">G</text><text style="font-size:6px;font-family:'NSimSun';" transform="matrix(&st17;  2018.97  190.71 )">G</text><text style="font-size:6px;font-family:'NSimSun';" transform="matrix(&st17;  2018.97  275.31 )">L</text><text style="font-size:6px;font-family:'NSimSun';" transform="matrix(&st17;  2018.97  334.8 )">L</text><text style="font-size:6px;font-family:'NSimSun';" transform="matrix(&st17;  2489.22  133.98 )">(*1)</text><text style="font-size:6px;font-family:'NSimSun';" transform="matrix(&st16;  2043.88  575.99 )">LG</text><text style="font-size:6px;font-family:'NSimSun';" transform="matrix(&st16;  2042.95  587.32 )">(*1)</text><text style="font-size:6px;font-family:'NSimSun';" transform="matrix(&st16;  2094.87  575.99 )">LG</text><text style="font-size:6px;font-family:'NSimSun';" transform="matrix(&st16;  2093.94  587.32 )">(*1)</text><text style="font-size:6px;font-family:'NSimSun';" transform="matrix(&st16;  2096.19  601.49 )">W</text><text style="font-size:6px;font-family:'NSimSun';" transform="matrix(&st16;  2093.94  612.82 )">(*1)</text><text style="font-size:6px;font-family:'NSimSun';" transform="matrix(&st16;  2045.19  601.49 )">W</text><text style="font-size:6px;font-family:'NSimSun';" transform="matrix(&st16;  2042.95  612.82 )">(*1)</text><text style="font-size:6px;font-family:'NSimSun';" transform="matrix(&st16;  2043.88  626.98 )">LG</text><text style="font-size:6px;font-family:'NSimSun';" transform="matrix(&st16;  2042.95  638.31 )">(*2)</text><text style="font-size:6px;font-family:'NSimSun';" transform="matrix(&st16;  2045.19  652.48 )">W</text><text style="font-size:6px;font-family:'NSimSun';" transform="matrix(&st16;  2042.95  663.81 )">(*2)</text><text style="font-size:6px;font-family:'NSimSun';" transform="matrix(&st16;  2094.87  626.98 )">LG</text><text style="font-size:6px;font-family:'NSimSun';" transform="matrix(&st16;  2093.94  638.31 )">(*2)</text><text style="font-size:6px;font-family:'NSimSun';" transform="matrix(&st16;  2096.19  652.48 )">W</text><text style="font-size:6px;font-family:'NSimSun';" transform="matrix(&st16;  2093.94  663.81 )">(*2)</text><path style="stroke-width: 1.42 ;&st7;  " d=" M  2192.63,   222.75  L  2184.14,   222.75  " /><path style="stroke-width: 1.42 ;&st7;  " d=" M  2141.64,   222.75  L  2133.14,   222.75  " /><text style="font-size:6px;font-family:'NSimSun';" transform="matrix(&st17;  2129.45  165.22 )">G</text><text style="font-size:6px;font-family:'NSimSun';" transform="matrix(&st17;  2180.44  164.95 )">Y</text><text style="font-size:6px;font-family:'NSimSun';" transform="matrix(&st17;  2129.45  301.2 )">G</text><text style="font-size:6px;font-family:'NSimSun';" transform="matrix(&st17;  2180.44  300.92 )">Y</text><text style="font-size:6px;font-family:'NSimSun';" transform="matrix(&st17;  2239.93  165.22 )">G</text><text style="font-size:6px;font-family:'NSimSun';" transform="matrix(&st17;  2239.93  300.73 )">P</text><text style="font-size:6px;font-family:'NSimSun';" transform="matrix(&st17;  2129.45  430.26 )">BR</text><text style="font-size:6px;font-family:'NSimSun';" transform="matrix(&st17;  2350.41  481.26 )">BR</text><text style="font-size:6px;font-family:'NSimSun';" transform="matrix(&st17;  2341.91  233.71 )">W</text><text style="font-size:6px;font-family:'NSimSun';" transform="matrix(&st17;  2341.91  131.73 )">W</text><text style="font-size:6px;font-family:'NSimSun';" transform="matrix(&st17;  2409.9  181.75 )">P</text><path style="stroke-width: 1.42 ;&st7;  " d=" M  2490.08,   163.26  L  2481.59,   163.26  " /><text style="font-size:6px;font-family:'NSimSun';" transform="matrix(&st17;  2353.24  133.98 )">(*1)</text><text style="font-size:6px;font-family:'NSimSun';" transform="matrix(&st17;  2353.24  235.96 )">(*1)</text><text style="font-size:6px;font-family:'NSimSun';" transform="matrix(&st17;  2421.23  184.97 )">(*1)</text><text style="font-size:6px;font-family:'NSimSun';" transform="matrix(&st17;  2361.74  482.42 )">(*1)</text><text style="font-size:6px;font-family:'NSimSun';" transform="matrix(&st17;  2401.4  481.49 )">LG</text><text style="font-size:6px;font-family:'NSimSun';" transform="matrix(&st17;  2412.73  482.42 )">(*1)</text><text style="font-size:6px;font-family:'NSimSun';" transform="matrix(&st17;  2435.4  480.17 )">W</text><text style="font-size:6px;font-family:'NSimSun';" transform="matrix(&st17;  2446.73  482.42 )">(*1)</text><text style="font-size:6px;font-family:'NSimSun';" transform="matrix(&st17;  2477.89  479.39 )">Y</text><text style="font-size:6px;font-family:'NSimSun';" transform="matrix(&st17;  2489.22  482.42 )">(*1)</text><text style="font-size:6px;font-family:'NSimSun';" transform="matrix(&st17;  2477.89  130.95 )">B</text><text style="font-size:6px;font-family:'NSimSun';" transform="matrix(&st17;  2477.89  232.94 )">B</text><text style="font-size:6px;font-family:'NSimSun';" transform="matrix(&st17;  2489.22  235.96 )">(*1)</text><g ewd:figtype="conn" ewd:figID="2" ewd:code="E36"><g ewd:lineID="51"><text style="font-size:6px;font-family:'NSimSun';" transform="matrix(&st16;  2010.87  93.27 )">14</text><text style="font-size:6px;font-family:'NSimSun';" transform="matrix(&st16;  2020.36  93.27 )">A</text><path style="stroke-width: 1.42 ;&st7;   " d=" M  2027.19,    91.30  C  2027.19     88.80   2025.17     86.77   2022.66     86.77  " /><path style="stroke-width: 1.42 ;&st7;   " d=" M  2022.66,    86.77  C  2020.16     86.77   2018.13     88.80   2018.13     91.30  " /><path style="stroke-width: 1.42 ;&st7;   " d=" M  2018.13,    91.30  C  2018.13     93.81   2020.16     95.84   2022.66     95.84  " /><path style="stroke-width: 1.42 ;&st7;   " d=" M  2022.66,    95.84  C  2025.17     95.84   2027.19     93.81   2027.19     91.30  " /><text style="font-size:6px;font-family:'NSimSun';" transform="matrix(&st16;  2013.88  83.07 )">CANH</text></g><g ewd:lineID="54"><text style="font-size:6px;font-family:'NSimSun';" transform="matrix(&st16;  2121.35  93.27 )">16</text><text style="font-size:6px;font-family:'NSimSun';" transform="matrix(&st16;  2130.84  93.27 )">A</text><path style="stroke-width: 1.42 ;&st7;   " d=" M  2137.68,    91.30  C  2137.68     88.80   2135.65     86.77   2133.14     86.77  " /><path style="stroke-width: 1.42 ;&st7;   " d=" M  2133.14,    86.77  C  2130.64     86.77   2128.61     88.80   2128.61     91.30  " /><path style="stroke-width: 1.42 ;&st7;   " d=" M  2128.61,    91.30  C  2128.61     93.81   2130.64     95.84   2133.14     95.84  " /><path style="stroke-width: 1.42 ;&st7;   " d=" M  2133.14,    95.84  C  2135.65     95.84   2137.68     93.81   2137.68     91.30  " /><text style="font-size:6px;font-family:'NSimSun';" transform="matrix(&st16;  2126.85  83.07 )">RDA</text></g><g ewd:lineID="56"><text style="font-size:6px;font-family:'NSimSun';" transform="matrix(&st16;  2175.44  93.27 )">4</text><text style="font-size:6px;font-family:'NSimSun';" transform="matrix(&st16;  2181.83  93.27 )">A</text><path style="stroke-width: 1.42 ;&st7;   " d=" M  2188.67,    91.30  C  2188.67     88.80   2186.64     86.77   2184.14     86.77  " /><path style="stroke-width: 1.42 ;&st7;   " d=" M  2184.14,    86.77  C  2181.63     86.77   2179.60     88.80   2179.60     91.30  " /><path style="stroke-width: 1.42 ;&st7;   " d=" M  2179.60,    91.30  C  2179.60     93.81   2181.63     95.84   2184.14     95.84  " /><path style="stroke-width: 1.42 ;&st7;   " d=" M  2184.14,    95.84  C  2186.64     95.84   2188.67     93.81   2188.67     91.30  " /><text style="font-size:6px;font-family:'NSimSun';" transform="matrix(&st16;  2178.07  83.07 )">PRG</text></g></g><g ewd:figtype="rb" ewd:figID="18" ewd:code="FUSE5"><path style="stroke-width: 0.85 ;&st7;  " d=" M  2243.63,    69.77  L  2243.63,    95.27  " /><path style="stroke-width: 1.42 ;&st7;  " d=" M  2245.75,    95.27  L  2241.50,    95.27  " /><path style="stroke-width: 1.42 ;&st7;  " d=" M  2245.75,   103.77  L  2241.50,   103.77  " /><path style="stroke-width: 1.42 ;&st7;   " d=" M  2241.50,    95.27  C  2239.15     95.27   2237.25     97.17   2237.25     99.52  " /><path style="stroke-width: 1.42 ;&st7;   " d=" M  2237.25,    99.52  C  2237.25    101.87   2239.15    103.77   2241.50    103.77  " /><path style="stroke-width: 1.42 ;&st7;   " d=" M  2245.75,   103.77  C  2248.10    103.77   2250.00    101.87   2250.00     99.52  " /><path style="stroke-width: 1.42 ;&st7;   " d=" M  2250.00,    99.52  C  2250.00     97.17   2248.10     95.27   2245.75     95.27  " /><path style="stroke-width: 0.28 ;&st9;  " d=" M  2243.62,    90.37  L  2240.79,    87.54  L  2240.79,    91.79  L  2243.62,    94.62  L  2246.46,    91.79  L  2246.46,    87.54  L  2243.62,    90.37  " /><text style="font-size:6px;font-family:'NSimSun';" transform="matrix(&st16;  2237.44  86.47 )">2</text><text style="font-size:6px;font-family:'NSimSun';" transform="matrix(&st16;  2260.05  53.34 )">10A <tspan x="0 " dy="6.0">ECU-B </tspan><tspan x="0 " dy="6.0">NO.1</tspan></text><text style="font-size:6px;font-family:'NSimSun';" transform="matrix(&st16;  2241.82  101.49 )">1</text><text style="font-size:6px;font-family:'NSimSun';" transform="matrix(&st16;  2235.58  32.08 )">(BAT)</text><path style="stroke-width: 1.42 ;&st7;   " d=" M  2243.63,    47.11  C  2240.89     48.72   2239.98     52.25   2241.59     54.99  " /><path style="stroke-width: 1.42 ;&st7;   " d=" M  2241.59,    54.99  C  2242.11     55.87   2242.74     56.51   2243.63     57.03  " /><path style="stroke-width: 1.42 ;&st7;   " d=" M  2243.63,    66.94  C  2246.36     65.33   2247.27     61.80   2245.66     59.06  " /><path style="stroke-width: 1.42 ;&st7;   " d=" M  2245.66,    59.06  C  2245.14     58.18   2244.51     57.55   2243.63     57.03  " /><path style="stroke-width: 0.85 ;&st7;   " d=" M  2245.04,    45.69  C  2245.04     44.91   2244.41     44.28   2243.63     44.28  " /><path style="stroke-width: 0.85 ;&st7;   " d=" M  2243.63,    44.28  C  2242.84     44.28   2242.21     44.91   2242.21     45.69  " /><path style="stroke-width: 0.85 ;&st7;   " d=" M  2242.21,    45.69  C  2242.21     46.48   2242.84     47.11   2243.63     47.11  " /><path style="stroke-width: 0.85 ;&st7;   " d=" M  2243.63,    47.11  C  2244.41     47.11   2245.04     46.48   2245.04     45.69  " /><path style="stroke-width: 0.85 ;&st7;   " d=" M  2245.04,    68.36  C  2245.04     67.57   2244.41     66.94   2243.63     66.94  " /><path style="stroke-width: 0.85 ;&st7;   " d=" M  2243.63,    66.94  C  2242.84     66.94   2242.21     67.57   2242.21     68.36  " /><path style="stroke-width: 0.85 ;&st7;   " d=" M  2242.21,    68.36  C  2242.21     69.14   2242.84     69.77   2243.63     69.77  " /><path style="stroke-width: 0.85 ;&st7;   " d=" M  2243.63,    69.77  C  2244.41     69.77   2245.04     69.14   2245.04     68.36  " /><path style="stroke-width: 1.42 ;&st7;  " d=" M  2230.88,    35.78  L  2230.88,    78.27  L  2256.37,    78.27  L  2256.37,    35.78  L  2230.88,    35.78  " /></g><g ewd:figtype="rb" ewd:figID="20" ewd:code="FUSE17"><path style="stroke-width: 1.42 ;&st7;  " d=" M  2483.71,    95.27  L  2479.46,    95.27  " /><path style="stroke-width: 1.42 ;&st7;  " d=" M  2483.71,   103.77  L  2479.46,   103.77  " /><path style="stroke-width: 0.85 ;&st7;  " d=" M  2481.59,    78.27  L  2481.59,    95.27  " /><path style="stroke-width: 1.42 ;&st7;   " d=" M  2479.46,    95.27  C  2477.11     95.27   2475.21     97.17   2475.21     99.52  " /><path style="stroke-width: 1.42 ;&st7;   " d=" M  2475.21,    99.52  C  2475.21    101.87   2477.11    103.77   2479.46    103.77  " /><path style="stroke-width: 1.42 ;&st7;   " d=" M  2483.71,   103.77  C  2486.06    103.77   2487.96    101.87   2487.96     99.52  " /><path style="stroke-width: 1.42 ;&st7;   " d=" M  2487.96,    99.52  C  2487.96     97.17   2486.06     95.27   2483.71     95.27  " /><path style="stroke-width: 0.28 ;&st9;  " d=" M  2481.58,    90.37  L  2478.75,    87.54  L  2478.75,    91.79  L  2481.58,    94.62  L  2484.42,    91.79  L  2484.42,    87.54  L  2481.58,    90.37  " /><text style="font-size:6px;font-family:'NSimSun';" transform="matrix(&st16;  2498.01  56.17 )">10A <tspan x="0 " dy="6.0">TURN&amp;HAZ</tspan></text><text style="font-size:6px;font-family:'NSimSun';" transform="matrix(&st16;  2479.78  101.49 )">1</text><text style="font-size:6px;font-family:'NSimSun';" transform="matrix(&st16;  2475.4  86.47 )">2</text><text style="font-size:6px;font-family:'NSimSun';" transform="matrix(&st16;  2473.54  32.08 )">(BAT)</text><path style="stroke-width: 0.85 ;&st7;  " d=" M  2481.59,    69.77  L  2481.59,    78.27  " /><path style="stroke-width: 1.42 ;&st7;   " d=" M  2481.59,    47.11  C  2478.85     48.72   2477.94     52.25   2479.55     54.99  " /><path style="stroke-width: 1.42 ;&st7;   " d=" M  2479.55,    54.99  C  2480.07     55.87   2480.70     56.51   2481.59     57.03  " /><path style="stroke-width: 1.42 ;&st7;   " d=" M  2481.59,    66.94  C  2484.32     65.33   2485.24     61.80   2483.62     59.06  " /><path style="stroke-width: 1.42 ;&st7;   " d=" M  2483.62,    59.06  C  2483.10     58.18   2482.47     57.55   2481.59     57.03  " /><path style="stroke-width: 0.85 ;&st7;   " d=" M  2483.00,    45.69  C  2483.00     44.91   2482.37     44.28   2481.59     44.28  " /><path style="stroke-width: 0.85 ;&st7;   " d=" M  2481.59,    44.28  C  2480.80     44.28   2480.17     44.91   2480.17     45.69  " /><path style="stroke-width: 0.85 ;&st7;   " d=" M  2480.17,    45.69  C  2480.17     46.48   2480.80     47.11   2481.59     47.11  " /><path style="stroke-width: 0.85 ;&st7;   " d=" M  2481.59,    47.11  C  2482.37     47.11   2483.00     46.48   2483.00     45.69  " /><path style="stroke-width: 0.85 ;&st7;   " d=" M  2483.00,    68.36  C  2483.00     67.57   2482.37     66.94   2481.59     66.94  " /><path style="stroke-width: 0.85 ;&st7;   " d=" M  2481.59,    66.94  C  2480.80     66.94   2480.17     67.57   2480.17     68.36  " /><path style="stroke-width: 0.85 ;&st7;   " d=" M  2480.17,    68.36  C  2480.17     69.14   2480.80     69.77   2481.59     69.77  " /><path style="stroke-width: 0.85 ;&st7;   " d=" M  2481.59,    69.77  C  2482.37     69.77   2483.00     69.14   2483.00     68.36  " /><path style="stroke-width: 1.42 ;&st7;  " d=" M  2468.84,    35.78  L  2468.84,    78.27  L  2494.33,    78.27  L  2494.33,    35.78  L  2468.84,    35.78  " /></g><g ewd:figtype="rb" ewd:figID="21" ewd:code="FUSE6"><path style="stroke-width: 1.42 ;&st7;  " d=" M  2347.73,    95.27  L  2343.48,    95.27  " /><path style="stroke-width: 0.85 ;&st7;  " d=" M  2345.61,    69.77  L  2345.61,    95.27  " /><path style="stroke-width: 1.42 ;&st7;  " d=" M  2347.73,   103.77  L  2343.48,   103.77  " /><path style="stroke-width: 1.42 ;&st7;   " d=" M  2351.98,    99.52  C  2351.98     97.17   2350.08     95.27   2347.73     95.27  " /><path style="stroke-width: 1.42 ;&st7;   " d=" M  2347.73,   103.77  C  2350.08    103.77   2351.98    101.87   2351.98     99.52  " /><path style="stroke-width: 1.42 ;&st7;   " d=" M  2339.23,    99.52  C  2339.23    101.87   2341.14    103.77   2343.48    103.77  " /><path style="stroke-width: 1.42 ;&st7;   " d=" M  2343.48,    95.27  C  2341.14     95.27   2339.23     97.17   2339.23     99.52  " /><path style="stroke-width: 0.28 ;&st9;  " d=" M  2345.61,    90.37  L  2342.77,    87.54  L  2342.77,    91.79  L  2345.61,    94.62  L  2348.44,    91.79  L  2348.44,    87.54  L  2345.61,    90.37  " /><text style="font-size:6px;font-family:'NSimSun';" transform="matrix(&st16;  2343.81  101.49 )">1</text><text style="font-size:6px;font-family:'NSimSun';" transform="matrix(&st16;  2362.03  53.34 )">10A <tspan x="0 " dy="6.0">ECU-B </tspan><tspan x="0 " dy="6.0">NO.2</tspan></text><text style="font-size:6px;font-family:'NSimSun';" transform="matrix(&st16;  2339.42  86.47 )">2</text><text style="font-size:6px;font-family:'NSimSun';" transform="matrix(&st16;  2337.56  32.08 )">(BAT)</text><path style="stroke-width: 1.42 ;&st7;   " d=" M  2345.61,    47.11  C  2342.87     48.72   2341.96     52.25   2343.57     54.99  " /><path style="stroke-width: 1.42 ;&st7;   " d=" M  2343.57,    54.99  C  2344.09     55.87   2344.73     56.51   2345.61     57.03  " /><path style="stroke-width: 0.85 ;&st7;   " d=" M  2347.02,    68.36  C  2347.02     67.57   2346.39     66.94   2345.61     66.94  " /><path style="stroke-width: 0.85 ;&st7;   " d=" M  2345.61,    66.94  C  2344.83     66.94   2344.19     67.57   2344.19     68.36  " /><path style="stroke-width: 0.85 ;&st7;   " d=" M  2344.19,    68.36  C  2344.19     69.14   2344.83     69.77   2345.61     69.77  " /><path style="stroke-width: 0.85 ;&st7;   " d=" M  2345.61,    69.77  C  2346.39     69.77   2347.02     69.14   2347.02     68.36  " /><path style="stroke-width: 0.85 ;&st7;   " d=" M  2347.02,    45.69  C  2347.02     44.91   2346.39     44.28   2345.61     44.28  " /><path style="stroke-width: 0.85 ;&st7;   " d=" M  2345.61,    44.28  C  2344.83     44.28   2344.19     44.91   2344.19     45.69  " /><path style="stroke-width: 0.85 ;&st7;   " d=" M  2344.19,    45.69  C  2344.19     46.48   2344.83     47.11   2345.61     47.11  " /><path style="stroke-width: 0.85 ;&st7;   " d=" M  2345.61,    47.11  C  2346.39     47.11   2347.02     46.48   2347.02     45.69  " /><path style="stroke-width: 1.42 ;&st7;   " d=" M  2345.61,    66.94  C  2348.35     65.33   2349.26     61.80   2347.64     59.06  " /><path style="stroke-width: 1.42 ;&st7;   " d=" M  2347.64,    59.06  C  2347.13     58.18   2346.49     57.55   2345.61     57.03  " /><path style="stroke-width: 1.42 ;&st7;  " d=" M  2332.86,    35.78  L  2332.86,    78.27  L  2358.35,    78.27  L  2358.35,    35.78  L  2332.86,    35.78  " /></g><g ewd:figtype="conn" ewd:figID="22" ewd:code="L51"><path style="stroke-width: 1.42 ;&st7;  " d=" M  2116.15,   341.73  L  2116.15,   384.22  L  2260.62,   384.22  L  2260.62,   341.73  L  2116.15,   341.73  " /><g ewd:lineID="52"><text style="font-size:6px;font-family:'NSimSun';" transform="matrix(&st16;  2126.96  392.41 )">1</text><text style="font-size:6px;font-family:'NSimSun';" transform="matrix(&st16;  2126.5  380.52 )">GND</text></g><g ewd:lineID="53"><text style="font-size:6px;font-family:'NSimSun';" transform="matrix(&st16;  2126.96  338.04 )">2</text><text style="font-size:6px;font-family:'NSimSun';" transform="matrix(&st16;  2126.85  349.36 )">RDA</text></g><g ewd:lineID="55"><text style="font-size:6px;font-family:'NSimSun';" transform="matrix(&st16;  2177.95  338.04 )">3</text><text style="font-size:6px;font-family:'NSimSun';" transform="matrix(&st16;  2178.07  349.36 )">PRG</text></g><g ewd:lineID="57"><text style="font-size:6px;font-family:'NSimSun';" transform="matrix(&st16;  2237.44  338.04 )">5</text><text style="font-size:6px;font-family:'NSimSun';" transform="matrix(&st16;  2239.89  349.36 )">+B</text></g><g ewd:figtype="title"><text style="font-size:6px;font-family:'NSimSun';" transform="matrix(&st16;  2163.73  391.83 )">L51</text><text style="font-size:6px;font-family:'NSimSun';" transform="matrix(&st16;  2163.73  398.94 )" ewd:textID="8">车门控制接收器</text></g></g><g ewd:figtype="conn" ewd:figID="23" ewd:code="E55,E59"><path style="stroke-width: 0.85 ;&st7;  " d=" M  2417.85,   299.24  L  2409.35,   299.24  " /><path style="stroke-width: 0.85 ;&st7;  " d=" M  2349.86,   299.24  L  2341.36,   299.24  " /><path style="stroke-width: 0.85 ;&st7;  " d=" M  2464.59,   418.22  L  2464.59,   426.71  L  2447.59,   426.71  " /><path style="stroke-width: 0.28 ;&st9;  " d=" M  2413.60,   299.24  L  2407.93,   290.74  L  2419.26,   290.74  L  2413.60,   299.24  " /><path style="stroke-width: 0.28 ;&st9;  " d=" M  2345.61,   299.24  L  2339.94,   290.74  L  2351.27,   290.74  L  2345.61,   299.24  " /><path style="stroke-width: 0.85 ;&st7;  " d=" M  2403.68,   367.22  L  2406.51,   367.22  " /><path style="stroke-width: 0.85 ;&st7;  " d=" M  2402.26,   364.39  L  2407.93,   364.39  " /><path style="stroke-width: 0.85 ;&st7;  " d=" M  2400.85,   361.56  L  2409.35,   361.56  " /><path style="stroke-width: 0.85 ;&st7;  " d=" M  2396.60,   358.73  L  2413.60,   358.73  " /><path style="stroke-width: 0.85 ;&st7;  " d=" M  2405.10,   350.23  L  2405.10,   358.73  " /><path style="stroke-width: 1.42 ;&st7;  " d=" M  2337.11,   375.72  L  2473.09,   375.72  L  2473.09,   401.22  L  2337.11,   401.22  L  2337.11,   375.72  " /><path style="stroke-width: 0.85 ;&st7;  " d=" M  2405.10,   401.22  L  2405.10,   418.22  " /><path style="stroke-width: 0.85 ;&st7;  " d=" M  2439.09,   401.22  L  2439.09,   418.22  " /><path style="stroke-width: 1.42 ;&st7;  " d=" M  2456.09,   401.22  L  2456.09,   384.22  L  2388.10,   384.22  L  2388.10,   401.22  " /><path style="stroke-width: 1.42 ;&st7;  " d=" M  2345.61,   324.73  L  2345.61,   350.23  L  2413.60,   350.23  L  2413.60,   324.73  L  2345.61,   324.73  " /><path style="stroke-width: 0.85 ;&st7;  " d=" M  2354.11,   401.22  L  2354.11,   452.21  " /><path style="stroke-width: 0.85 ;&st7;  " d=" M  2379.60,   307.73  L  2379.60,   324.73  " /><path style="stroke-width: 0.85 ;&st7;  " d=" M  2354.11,   350.23  L  2354.11,   375.72  " /><path style="stroke-width: 1.42 ;&st7;  " d=" M  2396.60,   418.22  L  2447.59,   418.22  L  2447.59,   435.21  L  2396.60,   435.21  L  2396.60,   418.22  " /><path style="stroke-width: 0.85 ;&st7;  " d=" M  2378.41,   306.73  L  2378.14,   307.20  L  2378.04,   307.73  L  2378.14,   308.27  L  2378.41,   308.74  L  2378.82,   309.08  L  2379.33,   309.27  L  2379.87,   309.27  L  2380.38,   309.08  L  2380.79,   308.74  L  2381.07,   308.27  L  2381.16,   307.73  L  2381.07,   307.20  L  2380.79,   306.73  L  2380.38,   306.39  L  2379.87,   306.20  L  2379.33,   306.20  L  2378.82,   306.39  L  2378.41,   306.73  L  2378.80,   307.44  L  2378.80,   308.03  L  2379.18,   308.47  L  2379.75,   308.57  L  2380.25,   308.28  L  2380.45,   307.73  L  2380.25,   307.19  L  2379.75,   306.90  L  2379.18,   307.00  L  2379.60,   307.73  " /><path style="stroke-width: 0.85 ;&st7;  " d=" M  2405.10,   435.21  L  2405.10,   452.21  " /><path style="stroke-width: 0.85 ;&st7;  " d=" M  2439.09,   435.21  L  2439.09,   452.21  " /><path style="stroke-width: 1.42 ;&st7;  " d=" M  2320.11,   273.74  L  2320.11,   452.21  L  2532.58,   452.21  L  2532.58,   273.74  L  2320.11,   273.74  " /><path style="stroke-width: 0.85 ;&st7;  " d=" M  2413.60,   273.74  L  2413.60,   307.73  L  2345.61,   307.73  L  2345.61,   273.74  " /><text style="font-size:6px;font-family:'NSimSun';" transform="matrix(&st16;  2371.75  339.45 )">5V IC</text><text style="font-size:6px;font-family:'NSimSun';" transform="matrix(&st16;  2441.68  448.52 )">CANL</text><text style="font-size:6px;font-family:'NSimSun';" transform="matrix(&st16;  2407.68  448.52 )">CANH</text><text style="font-size:6px;font-family:'NSimSun';" transform="matrix(&st16;  2416.18  281.93 )">IG+</text><text style="font-size:6px;font-family:'NSimSun';" transform="matrix(&st16;  2348.19  281.93 )">B</text><text style="font-size:6px;font-family:'NSimSun';" transform="matrix(&st16;  2356.69  448.52 )">ET</text><text style="font-size:6px;font-family:'NSimSun';" transform="matrix(&st16;  2457.24  414.52 )">5V+B</text><text style="font-size:6px;font-family:'NSimSun';" transform="matrix(&st16;  2356.31  390.44 )">CPU</text><text style="font-size:6px;font-family:'NSimSun';" transform="matrix(&st16; 2406.70 394.69)" ewd:textID="3" ewd:horAlign="center">CAN 控制器</text><text style="font-size:6px;font-family:'NSimSun';" transform="matrix(&st16;  2410.33  428.68 )">CAN I/F</text><text style="font-size:6px;font-family:'NSimSun';" transform="matrix(&st16;  2336.83  358.42 )">5V+B</text><text style="font-size:6px;font-family:'NSimSun';" transform="matrix(&st16;  2477.69  448.51 )">LL</text><text style="font-size:6px;font-family:'NSimSun';" transform="matrix(&st16;  2511.65  448.51 )">LR</text><path style="stroke-width: 0.85 ;&st7;  " d=" M  2460.34,   418.22  L  2468.84,   418.22  " /><text style="font-size:6px;font-family:'NSimSun';" transform="matrix(&st16;  2479.4  281.37 )">B</text><text style="font-size:6px;font-family:'NSimSun';" transform="matrix(&st16;  2427.3  458.71 )">31</text><text style="font-size:6px;font-family:'NSimSun';" transform="matrix(&st16;  2436.79  458.71 )">A</text><path style="stroke-width: 1.42 ;&st7;   " d=" M  2443.63,   456.74  C  2443.63    454.24   2441.60    452.21   2439.09    452.21  " /><path style="stroke-width: 1.42 ;&st7;   " d=" M  2439.09,   452.21  C  2436.59    452.21   2434.56    454.24   2434.56    456.74  " /><path style="stroke-width: 1.42 ;&st7;   " d=" M  2434.56,   456.74  C  2434.56    459.25   2436.59    461.27   2439.09    461.27  " /><path style="stroke-width: 1.42 ;&st7;   " d=" M  2439.09,   461.27  C  2441.60    461.27   2443.63    459.25   2443.63    456.74  " /><text style="font-size:6px;font-family:'NSimSun';" transform="matrix(&st16;  2333.81  271.18 )">40</text><path style="stroke-width: 1.42 ;&st7;   " d=" M  2350.14,   269.21  C  2350.14    266.70   2348.11    264.67   2345.61    264.67  " /><path style="stroke-width: 1.42 ;&st7;   " d=" M  2345.61,   264.67  C  2343.10    264.67   2341.08    266.70   2341.08    269.21  " /><path style="stroke-width: 1.42 ;&st7;   " d=" M  2341.08,   269.21  C  2341.08    271.71   2343.10    273.74   2345.61    273.74  " /><path style="stroke-width: 1.42 ;&st7;   " d=" M  2345.61,   273.74  C  2348.11    273.74   2350.14    271.71   2350.14    269.21  " /><text style="font-size:6px;font-family:'NSimSun';" transform="matrix(&st16;  2343.3  271.18 )">A</text><text style="font-size:6px;font-family:'NSimSun';" transform="matrix(&st16;  2342.31  458.71 )">21</text><text style="font-size:6px;font-family:'NSimSun';" transform="matrix(&st16;  2351.8  458.71 )">A</text><path style="stroke-width: 1.42 ;&st7;   " d=" M  2358.64,   456.74  C  2358.64    454.24   2356.61    452.21   2354.11    452.21  " /><path style="stroke-width: 1.42 ;&st7;   " d=" M  2354.11,   452.21  C  2351.60    452.21   2349.57    454.24   2349.57    456.74  " /><path style="stroke-width: 1.42 ;&st7;   " d=" M  2349.57,   456.74  C  2349.57    459.25   2351.60    461.27   2354.11    461.27  " /><path style="stroke-width: 1.42 ;&st7;   " d=" M  2354.11,   461.27  C  2356.61    461.27   2358.64    459.25   2358.64    456.74  " /><text style="font-size:6px;font-family:'NSimSun';" transform="matrix(&st16;  2393.3  458.71 )">32</text><text style="font-size:6px;font-family:'NSimSun';" transform="matrix(&st16;  2402.79  458.71 )">A</text><path style="stroke-width: 1.42 ;&st7;   " d=" M  2409.63,   456.74  C  2409.63    454.24   2407.60    452.21   2405.10    452.21  " /><path style="stroke-width: 1.42 ;&st7;   " d=" M  2405.10,   452.21  C  2402.59    452.21   2400.57    454.24   2400.57    456.74  " /><path style="stroke-width: 1.42 ;&st7;   " d=" M  2400.57,   456.74  C  2400.57    459.25   2402.59    461.27   2405.10    461.27  " /><path style="stroke-width: 1.42 ;&st7;   " d=" M  2405.10,   461.27  C  2407.60    461.27   2409.63    459.25   2409.63    456.74  " /><text style="font-size:6px;font-family:'NSimSun';" transform="matrix(&st16;  2401.8  271.18 )">39</text><text style="font-size:6px;font-family:'NSimSun';" transform="matrix(&st16;  2411.29  271.18 )">A</text><path style="stroke-width: 1.42 ;&st7;   " d=" M  2418.13,   269.21  C  2418.13    266.70   2416.10    264.67   2413.60    264.67  " /><path style="stroke-width: 1.42 ;&st7;   " d=" M  2413.60,   264.67  C  2411.09    264.67   2409.06    266.70   2409.06    269.21  " /><path style="stroke-width: 1.42 ;&st7;   " d=" M  2409.06,   269.21  C  2409.06    271.71   2411.09    273.74   2413.60    273.74  " /><path style="stroke-width: 1.42 ;&st7;   " d=" M  2413.60,   273.74  C  2416.10    273.74   2418.13    271.71   2418.13    269.21  " /><text style="font-size:6px;font-family:'NSimSun';" transform="matrix(&st16;  2469.79  458.71 )">13</text><text style="font-size:6px;font-family:'NSimSun';" transform="matrix(&st16;  2479.4  458.71 )">B</text><path style="stroke-width: 1.42 ;&st7;   " d=" M  2486.12,   456.74  C  2486.12    454.24   2484.09    452.21   2481.59    452.21  " /><path style="stroke-width: 1.42 ;&st7;   " d=" M  2481.59,   452.21  C  2479.08    452.21   2477.05    454.24   2477.05    456.74  " /><path style="stroke-width: 1.42 ;&st7;   " d=" M  2477.05,   456.74  C  2477.05    459.25   2479.08    461.27   2481.59    461.27  " /><path style="stroke-width: 1.42 ;&st7;   " d=" M  2481.59,   461.27  C  2484.09    461.27   2486.12    459.25   2486.12    456.74  " /><text style="font-size:6px;font-family:'NSimSun';" transform="matrix(&st16;  2472.89  271.18 )">1</text><path style="stroke-width: 1.42 ;&st7;   " d=" M  2486.12,   269.21  C  2486.12    266.70   2484.09    264.67   2481.59    264.67  " /><path style="stroke-width: 1.42 ;&st7;   " d=" M  2481.59,   264.67  C  2479.08    264.67   2477.05    266.70   2477.05    269.21  " /><path style="stroke-width: 1.42 ;&st7;   " d=" M  2477.05,   269.21  C  2477.05    271.71   2479.08    273.74   2481.59    273.74  " /><path style="stroke-width: 1.42 ;&st7;   " d=" M  2481.59,   273.74  C  2484.09    273.74   2486.12    271.71   2486.12    269.21  " /><text style="font-size:6px;font-family:'NSimSun';" transform="matrix(&st16;  2479.4  271.18 )">B</text><text style="font-size:6px;font-family:'NSimSun';" transform="matrix(&st16;  2506.89  458.71 )">7</text><text style="font-size:6px;font-family:'NSimSun';" transform="matrix(&st16;  2513.39  458.71 )">B</text><path style="stroke-width: 1.42 ;&st7;   " d=" M  2520.11,   456.74  C  2520.11    454.24   2518.08    452.21   2515.58    452.21  " /><path style="stroke-width: 1.42 ;&st7;   " d=" M  2515.58,   452.21  C  2513.08    452.21   2511.05    454.24   2511.05    456.74  " /><path style="stroke-width: 1.42 ;&st7;   " d=" M  2511.05,   456.74  C  2511.05    459.25   2513.08    461.27   2515.58    461.27  " /><path style="stroke-width: 1.42 ;&st7;   " d=" M  2515.58,   461.27  C  2518.08    461.27   2520.11    459.25   2520.11    456.74  " /><g ewd:figtype="title"><text style="font-size:6px;font-family:'NSimSun';" transform="matrix(&st17;  2540.47  455.11 )">E55(A),E59(B)</text><text style="font-size:6px;font-family:'NSimSun';" transform="matrix(&st17;  2547.29  455.12 )" ewd:textID="4">组合仪表总成</text></g></g><g ewd:figtype="jb" ewd:figID="36" ewd:code="3"><path style="stroke-width: 1.42 ;&st7;  " d=" M  2245.75,   214.25  L  2241.50,   214.25  " /><path style="stroke-width: 1.42 ;&st7;  " d=" M  2245.75,   222.75  L  2241.50,   222.75  " /><path style="stroke-width: 1.42 ;&st7;  " d=" M  2245.75,   256.74  L  2241.50,   256.74  " /><path style="stroke-width: 1.42 ;&st7;  " d=" M  2245.75,   265.24  L  2241.50,   265.24  " /><path style="stroke-width: 1.42 ;&st7;   " d=" M  2241.50,   214.25  C  2239.15    214.25   2237.25    216.15   2237.25    218.50  " /><path style="stroke-width: 1.42 ;&st7;   " d=" M  2237.25,   218.50  C  2237.25    220.85   2239.15    222.75   2241.50    222.75  " /><path style="stroke-width: 1.42 ;&st7;   " d=" M  2245.75,   222.75  C  2248.10    222.75   2250.00    220.85   2250.00    218.50  " /><path style="stroke-width: 1.42 ;&st7;   " d=" M  2250.00,   218.50  C  2250.00    216.15   2248.10    214.25   2245.75    214.25  " /><path style="stroke-width: 1.42 ;&st7;   " d=" M  2241.50,   256.74  C  2239.15    256.74   2237.25    258.64   2237.25    260.99  " /><path style="stroke-width: 1.42 ;&st7;   " d=" M  2237.25,   260.99  C  2237.25    263.34   2239.15    265.24   2241.50    265.24  " /><path style="stroke-width: 1.42 ;&st7;   " d=" M  2245.75,   265.24  C  2248.10    265.24   2250.00    263.34   2250.00    260.99  " /><path style="stroke-width: 1.42 ;&st7;   " d=" M  2250.00,   260.99  C  2250.00    258.64   2248.10    256.74   2245.75    256.74  " /><path style="stroke-width: 0.28 ;&st9;  " d=" M  2243.62,   227.64  L  2246.46,   230.48  L  2246.46,   226.23  L  2243.62,   223.39  L  2240.79,   226.23  L  2240.79,   230.48  L  2243.62,   227.64  " /><path style="stroke-width: 0.28 ;&st9;  " d=" M  2243.62,   251.85  L  2240.79,   249.01  L  2240.79,   253.26  L  2243.62,   256.10  L  2246.46,   253.26  L  2246.46,   249.01  L  2243.62,   251.85  " /><path style="stroke-width: 0.85 ;&st7;  " d=" M  2243.62,   256.74  L  2243.62,   222.75  " /><text style="font-size:6px;font-family:'NSimSun';" transform="matrix(&st16;  2239.77  220.47 )">3A</text><text style="font-size:6px;font-family:'NSimSun';" transform="matrix(&st16;  2230.02  220.47 )">43</text><text style="font-size:6px;font-family:'NSimSun';" transform="matrix(&st16;  2239.96  262.96 )">3E</text><text style="font-size:6px;font-family:'NSimSun';" transform="matrix(&st16;  2230.02  262.96 )">15</text></g><g ewd:figtype="jb" ewd:figID="37" ewd:code="3"><path style="stroke-width: 1.42 ;&st7;  " d=" M  2347.73,   205.75  L  2343.48,   205.75  " /><path style="stroke-width: 1.42 ;&st7;  " d=" M  2347.73,   197.25  L  2343.48,   197.25  " /><path style="stroke-width: 1.42 ;&st7;  " d=" M  2347.73,   163.26  L  2343.48,   163.26  " /><path style="stroke-width: 1.42 ;&st7;  " d=" M  2347.73,   154.76  L  2343.48,   154.76  " /><path style="stroke-width: 1.42 ;&st7;   " d=" M  2351.98,   201.50  C  2351.98    199.15   2350.08    197.25   2347.73    197.25  " /><path style="stroke-width: 1.42 ;&st7;   " d=" M  2347.73,   205.75  C  2350.08    205.75   2351.98    203.85   2351.98    201.50  " /><path style="stroke-width: 1.42 ;&st7;   " d=" M  2339.23,   201.50  C  2339.23    203.85   2341.14    205.75   2343.48    205.75  " /><path style="stroke-width: 1.42 ;&st7;   " d=" M  2343.48,   197.25  C  2341.14    197.25   2339.23    199.15   2339.23    201.50  " /><path style="stroke-width: 1.42 ;&st7;   " d=" M  2351.98,   159.01  C  2351.98    156.66   2350.08    154.76   2347.73    154.76  " /><path style="stroke-width: 1.42 ;&st7;   " d=" M  2347.73,   163.26  C  2350.08    163.26   2351.98    161.36   2351.98    159.01  " /><path style="stroke-width: 1.42 ;&st7;   " d=" M  2339.23,   159.01  C  2339.23    161.36   2341.14    163.26   2343.48    163.26  " /><path style="stroke-width: 1.42 ;&st7;   " d=" M  2343.48,   154.76  C  2341.14    154.76   2339.23    156.66   2339.23    159.01  " /><path style="stroke-width: 0.85 ;&st7;  " d=" M  2345.61,   197.25  L  2345.61,   163.26  " /><path style="stroke-width: 0.28 ;&st9;  " d=" M  2345.61,   192.36  L  2342.77,   189.52  L  2342.77,   193.77  L  2345.61,   196.61  L  2348.44,   193.77  L  2348.44,   189.52  L  2345.61,   192.36  " /><path style="stroke-width: 0.28 ;&st9;  " d=" M  2345.61,   168.15  L  2348.44,   170.99  L  2348.44,   166.74  L  2345.61,   163.90  L  2342.77,   166.74  L  2342.77,   170.99  L  2345.61,   168.15  " /><text style="font-size:6px;font-family:'NSimSun';" transform="matrix(&st16;  2332.0  203.47 )">34</text><text style="font-size:6px;font-family:'NSimSun';" transform="matrix(&st16;  2341.68  203.47 )">3D</text><text style="font-size:6px;font-family:'NSimSun';" transform="matrix(&st16;  2332.0  160.98 )">44</text><text style="font-size:6px;font-family:'NSimSun';" transform="matrix(&st16;  2341.75  160.98 )">3A</text></g><g ewd:figtype="jb" ewd:figID="38" ewd:code="3"><path style="stroke-width: 1.42 ;&st7;  " d=" M  2415.72,   103.77  L  2411.47,   103.77  " /><path style="stroke-width: 1.42 ;&st7;  " d=" M  2415.72,    95.27  L  2411.47,    95.27  " /><path style="stroke-width: 0.85 ;&st7;  " d=" M  2413.60,    69.77  L  2413.60,    95.27  " /><path style="stroke-width: 1.42 ;&st7;   " d=" M  2419.97,    99.52  C  2419.97     97.17   2418.07     95.27   2415.72     95.27  " /><path style="stroke-width: 1.42 ;&st7;   " d=" M  2415.72,   103.77  C  2418.07    103.77   2419.97    101.87   2419.97     99.52  " /><path style="stroke-width: 1.42 ;&st7;   " d=" M  2407.22,    99.52  C  2407.22    101.87   2409.13    103.77   2411.47    103.77  " /><path style="stroke-width: 1.42 ;&st7;   " d=" M  2411.47,    95.27  C  2409.13     95.27   2407.22     97.17   2407.22     99.52  " /><path style="stroke-width: 0.85 ;&st7;   " d=" M  2415.01,    68.36  C  2415.01     67.57   2414.38     66.94   2413.60     66.94  " /><path style="stroke-width: 0.85 ;&st7;   " d=" M  2413.60,    66.94  C  2412.81     66.94   2412.18     67.57   2412.18     68.36  " /><path style="stroke-width: 0.85 ;&st7;   " d=" M  2412.18,    68.36  C  2412.18     69.14   2412.81     69.77   2413.60     69.77  " /><path style="stroke-width: 0.85 ;&st7;   " d=" M  2413.60,    69.77  C  2414.38     69.77   2415.01     69.14   2415.01     68.36  " /><path style="stroke-width: 0.85 ;&st7;   " d=" M  2415.01,    45.69  C  2415.01     44.91   2414.38     44.28   2413.60     44.28  " /><path style="stroke-width: 0.85 ;&st7;   " d=" M  2413.60,    44.28  C  2412.81     44.28   2412.18     44.91   2412.18     45.69  " /><path style="stroke-width: 0.85 ;&st7;   " d=" M  2412.18,    45.69  C  2412.18     46.48   2412.81     47.11   2413.60     47.11  " /><path style="stroke-width: 0.85 ;&st7;   " d=" M  2413.60,    47.11  C  2414.38     47.11   2415.01     46.48   2415.01     45.69  " /><path style="stroke-width: 1.42 ;&st7;   " d=" M  2413.60,    66.94  C  2416.33     65.33   2417.25     61.80   2415.63     59.06  " /><path style="stroke-width: 1.42 ;&st7;   " d=" M  2415.63,    59.06  C  2415.11     58.18   2414.48     57.55   2413.60     57.03  " /><path style="stroke-width: 1.42 ;&st7;   " d=" M  2413.60,    47.11  C  2410.86     48.72   2409.95     52.25   2411.56     54.99  " /><path style="stroke-width: 1.42 ;&st7;   " d=" M  2411.56,    54.99  C  2412.08     55.87   2412.71     56.51   2413.60     57.03  " /><path style="stroke-width: 0.28 ;&st9;  " d=" M  2413.60,    90.37  L  2410.76,    87.54  L  2410.76,    91.79  L  2413.60,    94.62  L  2416.43,    91.79  L  2416.43,    87.54  L  2413.60,    90.37  " /><text style="font-size:6px;font-family:'NSimSun';" transform="matrix(&st16;  2407.41  86.47 )">2</text><text style="font-size:6px;font-family:'NSimSun';" transform="matrix(&st16;  2408.38  32.08 )">(IG)</text><text style="font-size:6px;font-family:'NSimSun';" transform="matrix(&st16;  2399.99  101.49 )">55</text><text style="font-size:6px;font-family:'NSimSun';" transform="matrix(&st16;  2409.62  101.49 )">3C</text><text style="font-size:6px;font-family:'NSimSun';" transform="matrix(&st16;  2430.02  56.17 )">5A <tspan x="0 " dy="6.0">MET</tspan></text><path style="stroke-width: 1.42 ;&st7;  " d=" M  2400.85,    35.78  L  2400.85,    78.27  L  2426.34,    78.27  L  2426.34,    35.78  L  2400.85,    35.78  " /></g><g ewd:figtype="w2w" ewd:figID="58" ewd:code="AE4"><text style="font-size:6px;font-family:'NSimSun';" transform="matrix(&st16;  2010.03  305.45 )">4</text><path style="stroke-width: 1.42 ;&st7;  " d=" M  2026.91,   313.40  L  2022.66,   309.15  L  2018.41,   313.40  " /><path style="stroke-width: 1.42 ;&st7;  " d=" M  2026.91,   316.80  L  2022.66,   312.55  L  2018.41,   316.80  " /></g><g ewd:figtype="w2w" ewd:figID="59" ewd:code="AE2"><path style="stroke-width: 1.42 ;&st7;  " d=" M  2018.41,   145.69  L  2022.66,   149.94  L  2026.91,   145.69  " /><path style="stroke-width: 1.42 ;&st7;  " d=" M  2026.91,   149.09  L  2022.66,   153.34  L  2018.41,   149.09  " /><text style="font-size:6px;font-family:'NSimSun';" transform="matrix(&st16;  2010.03  160.98 )">4</text></g><g ewd:figtype="w2w" ewd:figID="60" ewd:code="EL2"><path style="stroke-width: 1.42 ;&st7;  " d=" M  2137.39,   228.41  L  2133.14,   224.16  L  2128.89,   228.41  " /><path style="stroke-width: 1.42 ;&st7;  " d=" M  2137.39,   231.81  L  2133.14,   227.56  L  2128.89,   231.81  " /><text style="font-size:6px;font-family:'NSimSun';" transform="matrix(&st16;  2117.41  220.47 )">13</text></g><g ewd:figtype="w2w" ewd:figID="61" ewd:code="EL2"><path style="stroke-width: 1.42 ;&st7;  " d=" M  2188.38,   228.41  L  2184.13,   224.16  L  2179.88,   228.41  " /><path style="stroke-width: 1.42 ;&st7;  " d=" M  2188.38,   231.81  L  2184.13,   227.56  L  2179.88,   231.81  " /><text style="font-size:6px;font-family:'NSimSun';" transform="matrix(&st16;  2168.4  220.47 )">14</text></g><g ewd:figtype="w2w" ewd:figID="62" ewd:code="AE3"><path style="stroke-width: 1.42 ;&st7;  " d=" M  2485.83,   172.32  L  2481.58,   168.07  L  2477.34,   172.32  " /><path style="stroke-width: 1.42 ;&st7;  " d=" M  2485.83,   168.92  L  2481.58,   164.67  L  2477.34,   168.92  " /><text style="font-size:6px;font-family:'NSimSun';" transform="matrix(&st16;  2468.95  160.98 )">2</text></g><g ewd:figtype="gp" ewd:figID="69" ewd:code="LC"><path style="stroke-width: 0.85 ;&st7;  " d=" M  2131.73,   710.00  L  2134.56,   710.00  " /><path style="stroke-width: 0.85 ;&st7;  " d=" M  2130.31,   707.17  L  2135.98,   707.17  " /><path style="stroke-width: 0.85 ;&st7;  " d=" M  2128.89,   704.33  L  2137.39,   704.33  " /><path style="stroke-width: 0.85 ;&st7;  " d=" M  2124.64,   701.50  L  2141.64,   701.50  " /><path style="stroke-width: 0.85 ;&st7;  " d=" M  2133.14,   697.25  L  2133.14,   701.50  " /></g><g ewd:figtype="gp" ewd:figID="70" ewd:code="ED"><path style="stroke-width: 0.85 ;&st7;  " d=" M  2354.11,   697.25  L  2354.11,   701.50  " /><path style="stroke-width: 0.85 ;&st7;  " d=" M  2345.61,   701.50  L  2362.60,   701.50  " /><path style="stroke-width: 0.85 ;&st7;  " d=" M  2349.86,   704.33  L  2358.35,   704.33  " /><path style="stroke-width: 0.85 ;&st7;  " d=" M  2351.27,   707.17  L  2356.94,   707.17  " /><path style="stroke-width: 0.85 ;&st7;  " d=" M  2352.69,   710.00  L  2355.52,   710.00  " /></g><g ewd:figtype="annex" ewd:figID="26" ewd:code=" "><path style="stroke-width: 0.85 ;&st7;  " d=" M  2519.83,   507.45  L  2515.58,   511.70  L  2500.71,   511.70  L  2498.58,   515.95  L  2496.46,   511.70  L  2481.58,   511.70  L  2477.34,   507.45  " /><path style="stroke-width: 1.42 ;&st7;  " d=" M  2481.59,   503.20  L  2476.53,   491.84  " /><path style="stroke-width: 1.42 ;&st7;  " d=" M  2515.58,   503.20  L  2510.52,   491.84  " /><path style="stroke-width: 1.42 ;&st7;  " d=" M  2515.58,   503.20  L  2520.64,   491.84  " /><path style="stroke-width: 1.42 ;&st7;  " d=" M  2481.59,   503.20  L  2486.64,   491.84  " /><text style="font-size:6px;font-family:'NSimSun';" transform="matrix(&st17; 2500.76 553.89)" ewd:textID="23">后组合灯总成<tspan x="0 " dy="6.0" /></text><text style="font-size:6px;font-family:'NSimSun';" transform="matrix(&st17; 2494.66 541.65)" ewd:textID="14">大灯总成</text><text style="font-size:6px;font-family:'NSimSun';" transform="matrix(&st17; 2506.66 558.76)" ewd:textID="22" ewd:horAlign="right">车外后视镜总成<tspan x="0 " dy="6.0" /></text></g></svg>