<?xml version="1.0" encoding="utf-8"?>
<!DOCTYPE svg PUBLIC "-//W3C//DTD SVG 1.0//EN" "http://www.w3.org/TR/2001/REC-SVG-20010904/DTD/svg10.dtd"[
	<!ENTITY ns_flows "http://ns.adobe.com/Flows/1.0/">
	<!ENTITY ns_svg "http://www.w3.org/2000/svg">
	<!ENTITY ns_xlink "http://www.w3.org/1999/xlink">
	<!ENTITY st0 "font-size:7px;font-family:'NSimSun';adobe-font-script:japanese;">
	<!ENTITY st1 "font-size:6px;font-family:'NSimSun';">
	<!-- White fill  -->
	<!ENTITY st2 "fill:#FFFFFF;stroke:#000000; stroke-width:1.41;stroke-linecap:round;stroke-linejoin:round;">
	<!-- Yellow fill  -->
	<!ENTITY st3 "fill:#FFFFCC;stroke:#FFFFCC; stroke-width:0.1;stroke-linecap:round;stroke-linejoin:round;">
	<!-- Gray fill  -->
	<!ENTITY st4 "fill:#CCCCCC;stroke:#CCCCCC; stroke-width:0.1;stroke-linecap:round;stroke-linejoin:round;">
	<!-- Light-blue fill -->
	<!ENTITY st5 "fill:#CCECF4;stroke:#000000; stroke-width:1.133;stroke-linecap:round;stroke-linejoin:round;">
	<!ENTITY st6 "fill:none;stroke-linecap:butt; stroke-linejoin:round;">
	<!ENTITY st7 "fill:none;stroke:#000000;stroke-linecap:round;stroke-linejoin:round;">
	<!ENTITY st8 "enable-background:new    ;">
	<!-- Black fill -->
	<!ENTITY st9 "fill:#000000;stroke:#000000; stroke-linecap:round;stroke-linejoin:round;">
	<!-- SRS note   -->
	<!ENTITY st10 "font-size:9px;font-family:'NSimSun';">
	<!ENTITY st11 "font-size:9px;font-family:'NSimSun';">
	<!ENTITY st12 "font-size:6px;font-family:'NSimSun';">
	<!ENTITY st13 "fill:none;stroke:#ff0000;stroke-linecap:round;stroke-linejoin:round;">
	<!-- Yellow fill  -->
	<!ENTITY st14 "fill:#FFFF00;stroke:#FFFF00; stroke-width:0.1;stroke-linecap:round;stroke-linejoin:round;">
	<!ENTITY st15 "font-size:6px;font-family:'NSimSun';adobe-font-script:japanese;">
	<!ENTITY st16 "1.00 0.00 0.00 1.00">
	<!ENTITY st17 "0.00 -1.00 1.00 0.00">
	<!ENTITY st18 "font-size:6px;font-family:'NSimSun';">
	<!ENTITY st19 "font-size:9px;font-family:'NSimSun';">
	<!ENTITY st20 "font-size:6px;font-family:'NSimSun';adobe-font-script:japanese;">
	<!ENTITY st21 "font-size:7px;font-family:'NSimSun';adobe-font-script:japanese;">
	<!ATTLIST svg
		xmlns:ewd CDATA #FIXED "http://shcl.co.jp/ewd"
		xmlns:a CDATA #FIXED "http://ns.adobe.com/AdobeSVGViewerExtensions/3.0/"
		ewd:ver CDATA #IMPLIED
	>
	<!ATTLIST a
		ewd:lineID CDATA #IMPLIED
		ewd:groupID CDATA #IMPLIED
		ewd:figtype CDATA #IMPLIED
		ewd:code CDATA #IMPLIED
		ewd:figID CDATA #IMPLIED
		ewd:pinNo CDATA #IMPLIED
		ewd:comment CDATA #IMPLIED >
	<!ATTLIST g
		ewd:lineID CDATA #IMPLIED
		ewd:groupID CDATA #IMPLIED
		ewd:figtype CDATA #IMPLIED
		ewd:code CDATA #IMPLIED
		ewd:figID CDATA #IMPLIED
		ewd:pinNo CDATA #IMPLIED
		ewd:comment CDATA #IMPLIED >
	<!ATTLIST text
		ewd:textID CDATA #IMPLIED
		ewd:horAlign CDATA #IMPLIED >
	<!ATTLIST title
		ewd:textID CDATA #IMPLIED >
]>
<!-- Generator: Shintec Hozumi YS   -->
<svg onload="call_execInitLoadProc_svg('system')" style="overflow:visible;  enable-background:new 0 0 3033.881 710.000" viewBox="0 0 3025.604 710.000" height="710.000" width="3025.604" xml:space="preserve" ewd:ver="2.1.2.6F" xmlns="&ns_svg;" xmlns:ewd="http://shcl.co.jp/ewd" xmlns:a="http://ns.adobe.com/AdobeSVGViewerExtensions/3.0/" xmlns:xlink="&ns_xlink;">
<text style="font-size:6px;font-family:'NSimSun';" transform="matrix(&st17;  302.25  173.72 )">G</text><text style="font-size:6px;font-family:'NSimSun';" transform="matrix(&st17;  30.3  131.22 )">G</text><text style="font-size:6px;font-family:'NSimSun';" transform="matrix(&st16;  167.9  151.06 )">L</text><path style="stroke-width: 1.42 ;&st7;  " d=" M   339.94,   243.27  L   344.91,   248.24  " /><path style="stroke-width: 1.42 ;&st7;  " d=" M   356.94,   236.22  L   351.97,   231.25  " /><path style="stroke-width: 1.42 ;&st7;  " d=" M   344.91,   231.25  L   339.94,   236.22  " /><path style="stroke-width: 1.42 ;&st7;  " d=" M   351.97,   248.24  L   356.94,   243.27  " /><text style="font-size:6px;font-family:'NSimSun';" transform="matrix(&st17;  344.75  441.17 )">W-B</text><text style="font-size:6px;font-family:'NSimSun';" transform="matrix(&st17;  344.75  611.14 )">W-B</text><text style="font-size:6px;font-family:'NSimSun';" transform="matrix(&st17;  344.75  173.56 )">V</text><text style="font-size:6px;font-family:'NSimSun';" transform="matrix(&st17;  344.75  301.04 )">V</text><path style="stroke-width: 1.42 ;&st7;  " d=" M   416.43,   265.24  L   407.93,   265.24  " /><text style="font-size:6px;font-family:'NSimSun';" transform="matrix(&st17;  404.24  173.56 )">V</text><text style="font-size:6px;font-family:'NSimSun';" transform="matrix(&st17;  404.24  301.04 )">V</text><text style="font-size:6px;font-family:'NSimSun';" transform="matrix(&st17;  463.73  174.22 )">W</text><g ewd:figtype="conn" ewd:figID="4" ewd:code="E10"><path style="stroke-width: 0.85 ;&st7;  " d=" M   348.44,   354.48  L   348.44,   350.23  " /><path style="stroke-width: 0.85 ;&st7;  " d=" M   348.44,   384.22  L   348.44,   379.97  " /><path style="stroke-width: 1.42 ;&st7;  " d=" M   348.44,   377.14  L   354.11,   354.48  " /><path style="stroke-width: 0.85 ;&st7;   " d=" M   349.86,   355.89  C   349.86    355.11    349.22    354.48    348.44    354.48  " /><path style="stroke-width: 0.85 ;&st7;   " d=" M   348.44,   354.48  C   347.66    354.48    347.03    355.11    347.03    355.89  " /><path style="stroke-width: 0.85 ;&st7;   " d=" M   347.03,   355.89  C   347.03    356.67    347.66    357.31    348.44    357.31  " /><path style="stroke-width: 0.85 ;&st7;   " d=" M   348.44,   357.31  C   349.22    357.31    349.86    356.67    349.86    355.89  " /><path style="stroke-width: 0.85 ;&st7;   " d=" M   349.86,   378.56  C   349.86    377.77    349.22    377.14    348.44    377.14  " /><path style="stroke-width: 0.85 ;&st7;   " d=" M   348.44,   377.14  C   347.66    377.14    347.03    377.77    347.03    378.56  " /><path style="stroke-width: 0.85 ;&st7;   " d=" M   347.03,   378.56  C   347.03    379.34    347.66    379.97    348.44    379.97  " /><path style="stroke-width: 0.85 ;&st7;   " d=" M   348.44,   379.97  C   349.22    379.97    349.86    379.34    349.86    378.56  " /><path style="stroke-width: 1.42 ;&st7;  " d=" M   356.94,   384.22  L   356.94,   350.23  L   339.94,   350.23  L   339.94,   384.22  L   356.94,   384.22  " /><text style="font-size:6px;font-family:'NSimSun';" transform="matrix(&st16;  342.26  392.41 )">2</text><text style="font-size:6px;font-family:'NSimSun';" transform="matrix(&st16;  342.26  346.54 )">1</text><g ewd:figtype="title"><text style="font-size:6px;font-family:'NSimSun';" transform="matrix(&st17;  371.66  387.13 )" ewd:textID="31">未锁警告开关总成</text><text style="font-size:6px;font-family:'NSimSun';" transform="matrix(&st17;  364.83  387.12 )">E10</text></g></g><g ewd:figtype="rb" ewd:figID="6" ewd:code="FUSE5"><path style="stroke-width: 1.42 ;&st7;  " d=" M    36.12,    95.27  L    31.87,    95.27  " /><path style="stroke-width: 1.42 ;&st7;  " d=" M    36.12,   103.77  L    31.87,   103.77  " /><path style="stroke-width: 1.42 ;&st7;   " d=" M    31.87,    95.27  C    29.52     95.27     27.62     97.17     27.62     99.52  " /><path style="stroke-width: 1.42 ;&st7;   " d=" M    27.62,    99.52  C    27.62    101.87     29.52    103.77     31.87    103.77  " /><path style="stroke-width: 1.42 ;&st7;   " d=" M    36.12,   103.77  C    38.47    103.77     40.37    101.87     40.37     99.52  " /><path style="stroke-width: 1.42 ;&st7;   " d=" M    40.37,    99.52  C    40.37     97.17     38.47     95.27     36.12     95.27  " /><path style="stroke-width: 0.28 ;&st9;  " d=" M    33.99,    90.37  L    31.16,    87.54  L    31.16,    91.79  L    33.99,    94.62  L    36.83,    91.79  L    36.83,    87.54  L    33.99,    90.37  " /><path style="stroke-width: 0.85 ;&st7;  " d=" M    33.99,    69.77  L    33.99,    95.27  " /><text style="font-size:6px;font-family:'NSimSun';" transform="matrix(&st16;  50.42  53.34 )">10A <tspan x="0 " dy="6.0">ECU-B </tspan><tspan x="0 " dy="6.0">NO.1</tspan></text><text style="font-size:6px;font-family:'NSimSun';" transform="matrix(&st16;  25.95  32.08 )">(BAT)</text><text style="font-size:6px;font-family:'NSimSun';" transform="matrix(&st16;  32.19  101.49 )">1</text><text style="font-size:6px;font-family:'NSimSun';" transform="matrix(&st16;  27.81  86.47 )">2</text><path style="stroke-width: 1.42 ;&st7;   " d=" M    33.99,    47.11  C    31.26     48.72     30.34     52.25     31.96     54.99  " /><path style="stroke-width: 1.42 ;&st7;   " d=" M    31.96,    54.99  C    32.48     55.87     33.11     56.51     33.99     57.03  " /><path style="stroke-width: 1.42 ;&st7;   " d=" M    33.99,    66.94  C    36.73     65.33     37.64     61.80     36.03     59.06  " /><path style="stroke-width: 1.42 ;&st7;   " d=" M    36.03,    59.06  C    35.51     58.18     34.88     57.55     33.99     57.03  " /><path style="stroke-width: 0.85 ;&st7;   " d=" M    35.41,    45.69  C    35.41     44.91     34.78     44.28     33.99     44.28  " /><path style="stroke-width: 0.85 ;&st7;   " d=" M    33.99,    44.28  C    33.21     44.28     32.58     44.91     32.58     45.69  " /><path style="stroke-width: 0.85 ;&st7;   " d=" M    32.58,    45.69  C    32.58     46.48     33.21     47.11     33.99     47.11  " /><path style="stroke-width: 0.85 ;&st7;   " d=" M    33.99,    47.11  C    34.78     47.11     35.41     46.48     35.41     45.69  " /><path style="stroke-width: 0.85 ;&st7;   " d=" M    35.41,    68.36  C    35.41     67.57     34.78     66.94     33.99     66.94  " /><path style="stroke-width: 0.85 ;&st7;   " d=" M    33.99,    66.94  C    33.21     66.94     32.58     67.57     32.58     68.36  " /><path style="stroke-width: 0.85 ;&st7;   " d=" M    32.58,    68.36  C    32.58     69.14     33.21     69.77     33.99     69.77  " /><path style="stroke-width: 0.85 ;&st7;   " d=" M    33.99,    69.77  C    34.78     69.77     35.41     69.14     35.41     68.36  " /><path style="stroke-width: 1.42 ;&st7;  " d=" M    21.25,    35.78  L    21.25,    78.27  L    46.74,    78.27  L    46.74,    35.78  L    21.25,    35.78  " /></g><g ewd:figtype="conn" ewd:figID="7" ewd:code="E71"><path style="stroke-width: 1.42 ;&st7;  " d=" M   339.94,   486.20  L   356.94,   486.20  L   356.94,   503.20  L   339.94,   503.20  L   339.94,   486.20  " /><path style="stroke-width: 0.85 ;&st7;  " d=" M   348.44,   486.20  L   348.44,   503.20  " /><text style="font-size:6px;font-family:'NSimSun';" transform="matrix(&st16;  339.16  511.39 )">12</text><text style="font-size:6px;font-family:'NSimSun';" transform="matrix(&st16;  339.16  482.51 )">22</text><g ewd:figtype="title"><text style="font-size:6px;font-family:'NSimSun';" transform="matrix(&st17;  371.66  506.11 )" ewd:textID="21">4 号接线连接器<tspan x="0 " dy="6.0" /></text><text style="font-size:6px;font-family:'NSimSun';" transform="matrix(&st17;  364.83  506.1 )">E71</text></g></g><g ewd:figtype="conn" ewd:figID="8" ewd:code="L41"><path style="stroke-width: 1.42 ;&st7;  " d=" M   407.93,   385.64  L   413.60,   362.97  " /><path style="stroke-width: 0.85 ;&st7;  " d=" M   407.93,   392.72  L   407.93,   388.47  " /><path style="stroke-width: 0.85 ;&st7;  " d=" M   407.93,   362.97  L   407.93,   358.73  " /><path style="stroke-width: 0.85 ;&st7;   " d=" M   409.35,   387.05  C   409.35    386.27    408.71    385.64    407.93    385.64  " /><path style="stroke-width: 0.85 ;&st7;   " d=" M   407.93,   385.64  C   407.15    385.64    406.52    386.27    406.52    387.05  " /><path style="stroke-width: 0.85 ;&st7;   " d=" M   406.52,   387.05  C   406.52    387.84    407.15    388.47    407.93    388.47  " /><path style="stroke-width: 0.85 ;&st7;   " d=" M   407.93,   388.47  C   408.71    388.47    409.35    387.84    409.35    387.05  " /><path style="stroke-width: 0.85 ;&st7;   " d=" M   409.35,   364.39  C   409.35    363.61    408.71    362.97    407.93    362.97  " /><path style="stroke-width: 0.85 ;&st7;   " d=" M   407.93,   362.97  C   407.15    362.97    406.52    363.61    406.52    364.39  " /><path style="stroke-width: 0.85 ;&st7;   " d=" M   406.52,   364.39  C   406.52    365.17    407.15    365.81    407.93    365.81  " /><path style="stroke-width: 0.85 ;&st7;   " d=" M   407.93,   365.81  C   408.71    365.81    409.35    365.17    409.35    364.39  " /><path style="stroke-width: 1.42 ;&st7;  " d=" M   416.43,   392.72  L   416.43,   358.73  L   399.43,   358.73  L   399.43,   392.72  L   416.43,   392.72  " /><text style="font-size:6px;font-family:'NSimSun';" transform="matrix(&st16;  401.75  355.04 )">1</text><g ewd:figtype="title"><text style="font-size:6px;font-family:'NSimSun';" transform="matrix(&st17;  424.04  395.62 )">L41</text><text style="font-size:6px;font-family:'NSimSun';" transform="matrix(&st17;  431.15  395.63 )" ewd:textID="12">右前车门门控灯开关总成</text></g></g><g ewd:figtype="conn" ewd:figID="9" ewd:code="L1"><path style="stroke-width: 0.85 ;&st7;  " d=" M   467.42,   362.97  L   467.42,   358.73  " /><path style="stroke-width: 0.85 ;&st7;  " d=" M   467.42,   392.72  L   467.42,   388.47  " /><path style="stroke-width: 1.42 ;&st7;  " d=" M   467.42,   385.64  L   473.09,   362.97  " /><path style="stroke-width: 0.85 ;&st7;   " d=" M   468.84,   364.39  C   468.84    363.61    468.20    362.97    467.42    362.97  " /><path style="stroke-width: 0.85 ;&st7;   " d=" M   467.42,   362.97  C   466.64    362.97    466.01    363.61    466.01    364.39  " /><path style="stroke-width: 0.85 ;&st7;   " d=" M   466.01,   364.39  C   466.01    365.17    466.64    365.81    467.42    365.81  " /><path style="stroke-width: 0.85 ;&st7;   " d=" M   467.42,   365.81  C   468.20    365.81    468.84    365.17    468.84    364.39  " /><path style="stroke-width: 0.85 ;&st7;   " d=" M   468.84,   387.05  C   468.84    386.27    468.20    385.64    467.42    385.64  " /><path style="stroke-width: 0.85 ;&st7;   " d=" M   467.42,   385.64  C   466.64    385.64    466.01    386.27    466.01    387.05  " /><path style="stroke-width: 0.85 ;&st7;   " d=" M   466.01,   387.05  C   466.01    387.84    466.64    388.47    467.42    388.47  " /><path style="stroke-width: 0.85 ;&st7;   " d=" M   467.42,   388.47  C   468.20    388.47    468.84    387.84    468.84    387.05  " /><path style="stroke-width: 1.42 ;&st7;  " d=" M   475.92,   392.72  L   475.92,   358.73  L   458.92,   358.73  L   458.92,   392.72  L   475.92,   392.72  " /><text style="font-size:6px;font-family:'NSimSun';" transform="matrix(&st16;  461.24  355.04 )">1</text><g ewd:figtype="title"><text style="font-size:6px;font-family:'NSimSun';" transform="matrix(&st17;  483.53  395.62 )">L1</text><text style="font-size:6px;font-family:'NSimSun';" transform="matrix(&st17;  490.64  395.63 )" ewd:textID="11">左前车门门控灯开关总成</text></g></g><g ewd:figtype="conn" ewd:figID="24" ewd:code="E36"><path style="stroke-width: 1.42 ;&st7;  " d=" M   212.46,    35.78  L   212.46,    86.77  L  2201.13,    86.77  L  2201.13,    35.78  L   212.46,    35.78  " /><g ewd:lineID="6"><text style="font-size:6px;font-family:'NSimSun';" transform="matrix(&st16;  336.65  93.27 )">17</text><path style="stroke-width: 1.42 ;&st7;   " d=" M   352.97,    91.30  C   352.97     88.80    350.95     86.77    348.44     86.77  " /><path style="stroke-width: 1.42 ;&st7;   " d=" M   348.44,    86.77  C   345.94     86.77    343.91     88.80    343.91     91.30  " /><path style="stroke-width: 1.42 ;&st7;   " d=" M   343.91,    91.30  C   343.91     93.81    345.94     95.84    348.44     95.84  " /><path style="stroke-width: 1.42 ;&st7;   " d=" M   348.44,    95.84  C   350.95     95.84    352.97     93.81    352.97     91.30  " /><text style="font-size:6px;font-family:'NSimSun';" transform="matrix(&st16;  346.14  93.27 )">A</text><text style="font-size:6px;font-family:'NSimSun';" transform="matrix(&st16;  341.87  83.07 )">KSW</text></g><g ewd:lineID="8"><text style="font-size:6px;font-family:'NSimSun';" transform="matrix(&st16;  396.14  93.27 )">19</text><path style="stroke-width: 1.42 ;&st7;   " d=" M   412.46,    91.30  C   412.46     88.80    410.44     86.77    407.93     86.77  " /><path style="stroke-width: 1.42 ;&st7;   " d=" M   407.93,    86.77  C   405.43     86.77    403.40     88.80    403.40     91.30  " /><path style="stroke-width: 1.42 ;&st7;   " d=" M   403.40,    91.30  C   403.40     93.81    405.43     95.84    407.93     95.84  " /><path style="stroke-width: 1.42 ;&st7;   " d=" M   407.93,    95.84  C   410.44     95.84    412.46     93.81    412.46     91.30  " /><text style="font-size:6px;font-family:'NSimSun';" transform="matrix(&st16;  405.63  93.27 )">A</text><text style="font-size:6px;font-family:'NSimSun';" transform="matrix(&st16;  399.85  83.07 )">FRCY</text></g><g ewd:figtype="title"><text style="font-size:6px;font-family:'NSimSun';" transform="matrix(&st16;  209.06  32.08 )" ewd:textID="18">主车身 ECU</text><text style="font-size:6px;font-family:'NSimSun';" transform="matrix(&st16;  209.05  24.98 )">E36(A)</text></g><g ewd:lineID="88"><text style="font-size:6px;font-family:'NSimSun';" transform="matrix(&st16;  222.81  83.07 )">ACC</text><text style="font-size:6px;font-family:'NSimSun';" transform="matrix(&st16;  260.1  83.07 )">IG</text><text style="font-size:6px;font-family:'NSimSun';" transform="matrix(&st16;  297.6  83.07 )">BECU</text></g><g ewd:lineID="90"><text style="font-size:6px;font-family:'NSimSun';" transform="matrix(&st16;  459.38  83.07 )">FLCY</text></g></g><g ewd:figtype="jb" ewd:figID="35" ewd:code="3"><path style="stroke-width: 1.42 ;&st7;  " d=" M   469.55,   137.76  L   465.30,   137.76  " /><path style="stroke-width: 1.42 ;&st7;  " d=" M   469.55,   129.26  L   465.30,   129.26  " /><path style="stroke-width: 1.42 ;&st7;   " d=" M   473.80,   133.51  C   473.80    131.17    471.89    129.26    469.55    129.26  " /><path style="stroke-width: 1.42 ;&st7;   " d=" M   469.55,   137.76  C   471.89    137.76    473.80    135.86    473.80    133.51  " /><path style="stroke-width: 1.42 ;&st7;   " d=" M   461.05,   133.51  C   461.05    135.86    462.95    137.76    465.30    137.76  " /><path style="stroke-width: 1.42 ;&st7;   " d=" M   465.30,   129.26  C   462.95    129.26    461.05    131.17    461.05    133.51  " /><path style="stroke-width: 0.85 ;&st7;  " d=" M   467.42,    86.77  L   467.42,   129.26  " /><path style="stroke-width: 0.28 ;&st9;  " d=" M   467.42,   124.37  L   464.59,   121.54  L   464.59,   125.79  L   467.42,   128.62  L   470.25,   125.79  L   470.25,   121.54  L   467.42,   124.37  " /><text style="font-size:6px;font-family:'NSimSun';" transform="matrix(&st16;  461.24  94.96 )">2</text><text style="font-size:6px;font-family:'NSimSun';" transform="matrix(&st16;  453.81  135.48 )">25</text><text style="font-size:6px;font-family:'NSimSun';" transform="matrix(&st16;  463.76  135.48 )">3E</text></g><g ewd:figtype="jb" ewd:figID="42" ewd:code="3"><path style="stroke-width: 1.42 ;&st7;  " d=" M   308.07,   120.77  L   303.82,   120.77  " /><path style="stroke-width: 1.42 ;&st7;  " d=" M   308.07,   129.26  L   303.82,   129.26  " /><path style="stroke-width: 1.42 ;&st7;  " d=" M   265.58,   120.77  L   261.33,   120.77  " /><path style="stroke-width: 1.42 ;&st7;  " d=" M   265.58,   129.26  L   261.33,   129.26  " /><path style="stroke-width: 1.42 ;&st7;  " d=" M   104.11,   120.77  L    99.86,   120.77  " /><path style="stroke-width: 1.42 ;&st7;  " d=" M   104.11,   129.26  L    99.86,   129.26  " /><path style="stroke-width: 1.42 ;&st7;   " d=" M   161.47,    47.11  C   158.74     48.72    157.82     52.25    159.44     54.99  " /><path style="stroke-width: 1.42 ;&st7;   " d=" M   159.44,    54.99  C   159.96     55.87    160.59     56.51    161.47     57.03  " /><path style="stroke-width: 1.42 ;&st7;   " d=" M   161.47,    66.94  C   164.21     65.33    165.12     61.80    163.51     59.06  " /><path style="stroke-width: 1.42 ;&st7;   " d=" M   163.51,    59.06  C   162.99     58.18    162.35     57.55    161.47     57.03  " /><path style="stroke-width: 0.85 ;&st7;   " d=" M   162.89,    45.69  C   162.89     44.91    162.26     44.28    161.47     44.28  " /><path style="stroke-width: 0.85 ;&st7;   " d=" M   161.47,    44.28  C   160.69     44.28    160.06     44.91    160.06     45.69  " /><path style="stroke-width: 0.85 ;&st7;   " d=" M   160.06,    45.69  C   160.06     46.48    160.69     47.11    161.47     47.11  " /><path style="stroke-width: 0.85 ;&st7;   " d=" M   161.47,    47.11  C   162.26     47.11    162.89     46.48    162.89     45.69  " /><path style="stroke-width: 0.85 ;&st7;   " d=" M   162.89,    68.36  C   162.89     67.57    162.26     66.94    161.47     66.94  " /><path style="stroke-width: 0.85 ;&st7;   " d=" M   161.47,    66.94  C   160.69     66.94    160.06     67.57    160.06     68.36  " /><path style="stroke-width: 0.85 ;&st7;   " d=" M   160.06,    68.36  C   160.06     69.14    160.69     69.77    161.47     69.77  " /><path style="stroke-width: 0.85 ;&st7;   " d=" M   161.47,    69.77  C   162.26     69.77    162.89     69.14    162.89     68.36  " /><path style="stroke-width: 1.42 ;&st7;   " d=" M   303.82,   120.77  C   301.48    120.77    299.57    122.67    299.57    125.01  " /><path style="stroke-width: 1.42 ;&st7;   " d=" M   299.57,   125.01  C   299.57    127.36    301.48    129.26    303.82    129.26  " /><path style="stroke-width: 1.42 ;&st7;   " d=" M   308.07,   129.26  C   310.42    129.26    312.32    127.36    312.32    125.01  " /><path style="stroke-width: 1.42 ;&st7;   " d=" M   312.32,   125.01  C   312.32    122.67    310.42    120.77    308.07    120.77  " /><path style="stroke-width: 1.42 ;&st7;   " d=" M   101.98,    47.11  C    99.25     48.72     98.33     52.25     99.95     54.99  " /><path style="stroke-width: 1.42 ;&st7;   " d=" M    99.95,    54.99  C   100.47     55.87    101.10     56.51    101.98     57.03  " /><path style="stroke-width: 1.42 ;&st7;   " d=" M   101.98,    66.94  C   104.72     65.33    105.63     61.80    104.02     59.06  " /><path style="stroke-width: 1.42 ;&st7;   " d=" M   104.02,    59.06  C   103.50     58.18    102.86     57.55    101.98     57.03  " /><path style="stroke-width: 0.85 ;&st7;   " d=" M   103.40,    45.69  C   103.40     44.91    102.77     44.28    101.98     44.28  " /><path style="stroke-width: 0.85 ;&st7;   " d=" M   101.98,    44.28  C   101.20     44.28    100.57     44.91    100.57     45.69  " /><path style="stroke-width: 0.85 ;&st7;   " d=" M   100.57,    45.69  C   100.57     46.48    101.20     47.11    101.98     47.11  " /><path style="stroke-width: 0.85 ;&st7;   " d=" M   101.98,    47.11  C   102.77     47.11    103.40     46.48    103.40     45.69  " /><path style="stroke-width: 0.85 ;&st7;   " d=" M   103.40,    68.36  C   103.40     67.57    102.77     66.94    101.98     66.94  " /><path style="stroke-width: 0.85 ;&st7;   " d=" M   101.98,    66.94  C   101.20     66.94    100.57     67.57    100.57     68.36  " /><path style="stroke-width: 0.85 ;&st7;   " d=" M   100.57,    68.36  C   100.57     69.14    101.20     69.77    101.98     69.77  " /><path style="stroke-width: 0.85 ;&st7;   " d=" M   101.98,    69.77  C   102.77     69.77    103.40     69.14    103.40     68.36  " /><path style="stroke-width: 1.42 ;&st7;   " d=" M   261.33,   120.77  C   258.98    120.77    257.08    122.67    257.08    125.01  " /><path style="stroke-width: 1.42 ;&st7;   " d=" M   257.08,   125.01  C   257.08    127.36    258.98    129.26    261.33    129.26  " /><path style="stroke-width: 1.42 ;&st7;   " d=" M   265.58,   129.26  C   267.93    129.26    269.83    127.36    269.83    125.01  " /><path style="stroke-width: 1.42 ;&st7;   " d=" M   269.83,   125.01  C   269.83    122.67    267.93    120.77    265.58    120.77  " /><path style="stroke-width: 1.42 ;&st7;   " d=" M    99.86,   120.77  C    97.51    120.77     95.61    122.67     95.61    125.01  " /><path style="stroke-width: 1.42 ;&st7;   " d=" M    95.61,   125.01  C    95.61    127.36     97.51    129.26     99.86    129.26  " /><path style="stroke-width: 1.42 ;&st7;   " d=" M   104.11,   129.26  C   106.45    129.26    108.36    127.36    108.36    125.01  " /><path style="stroke-width: 1.42 ;&st7;   " d=" M   108.36,   125.01  C   108.36    122.67    106.45    120.77    104.11    120.77  " /><path style="stroke-width: 0.85 ;&st7;  " d=" M   161.47,    69.77  L   161.47,   120.77  L   229.46,   120.77  L   229.46,    86.77  " /><path style="stroke-width: 1.42 ;&st7;  " d=" M   148.73,    35.78  L   148.73,    78.27  L   174.22,    78.27  L   174.22,    35.78  L   148.73,    35.78  " /><path style="stroke-width: 0.28 ;&st9;  " d=" M   305.95,   115.87  L   303.12,   113.04  L   303.12,   117.29  L   305.95,   120.12  L   308.78,   117.29  L   308.78,   113.04  L   305.95,   115.87  " /><path style="stroke-width: 0.85 ;&st7;  " d=" M   305.95,    86.77  L   305.95,   120.77  " /><path style="stroke-width: 0.85 ;&st7;  " d=" M   263.46,    86.77  L   263.46,   120.77  " /><path style="stroke-width: 0.85 ;&st7;  " d=" M   101.98,    78.27  L   101.98,    69.77  " /><path style="stroke-width: 1.42 ;&st7;  " d=" M    89.24,    35.78  L    89.24,    78.27  L   114.73,    78.27  L   114.73,    35.78  L    89.24,    35.78  " /><path style="stroke-width: 0.85 ;&st7;  " d=" M   101.98,   120.77  L   101.98,    78.27  " /><path style="stroke-width: 0.28 ;&st9;  " d=" M   263.46,   115.87  L   260.62,   113.04  L   260.62,   117.29  L   263.46,   120.12  L   266.29,   117.29  L   266.29,   113.04  L   263.46,   115.87  " /><path style="stroke-width: 0.28 ;&st9;  " d=" M   101.98,   115.87  L    99.15,   113.04  L    99.15,   117.29  L   101.98,   120.12  L   104.82,   117.29  L   104.82,   113.04  L   101.98,   115.87  " /><text style="font-size:6px;font-family:'NSimSun';" transform="matrix(&st16;  177.9  56.17 )">7.5A <tspan x="0 " dy="6.0">ACC</tspan></text><text style="font-size:6px;font-family:'NSimSun';" transform="matrix(&st16;  152.96  32.08 )">(ACC)</text><text style="font-size:6px;font-family:'NSimSun';" transform="matrix(&st16;  220.18  94.96 )">29</text><text style="font-size:6px;font-family:'NSimSun';" transform="matrix(&st16;  296.66  94.96 )">30</text><text style="font-size:6px;font-family:'NSimSun';" transform="matrix(&st16;  302.09  126.98 )">3A</text><text style="font-size:6px;font-family:'NSimSun';" transform="matrix(&st16;  292.34  126.98 )">43</text><text style="font-size:6px;font-family:'NSimSun';" transform="matrix(&st16;  254.17  94.96 )">32</text><text style="font-size:6px;font-family:'NSimSun';" transform="matrix(&st16;  118.41  53.34 )">7.5A <tspan x="0 " dy="6.0">ECU-IG </tspan><tspan x="0 " dy="6.0">NO.4</tspan></text><text style="font-size:6px;font-family:'NSimSun';" transform="matrix(&st16;  96.77  32.08 )">(IG)</text><text style="font-size:6px;font-family:'NSimSun';" transform="matrix(&st16;  155.29  86.47 )">2</text><text style="font-size:6px;font-family:'NSimSun';" transform="matrix(&st16;  259.48  126.98 )">3C</text><text style="font-size:6px;font-family:'NSimSun';" transform="matrix(&st16;  249.85  126.98 )">51</text><text style="font-size:6px;font-family:'NSimSun';" transform="matrix(&st16;  98.01  126.98 )">3C</text><text style="font-size:6px;font-family:'NSimSun';" transform="matrix(&st16;  88.37  126.98 )">17</text><text style="font-size:6px;font-family:'NSimSun';" transform="matrix(&st16;  95.8  86.47 )">2</text></g><g ewd:figtype="w2w" ewd:figID="43" ewd:code="EL4"><path style="stroke-width: 1.42 ;&st7;  " d=" M   412.18,   270.91  L   407.93,   266.66  L   403.68,   270.91  " /><path style="stroke-width: 1.42 ;&st7;  " d=" M   412.18,   274.31  L   407.93,   270.06  L   403.68,   274.31  " /><text style="font-size:6px;font-family:'NSimSun';" transform="matrix(&st16;  392.2  262.96 )">10</text></g><g ewd:figtype="gp" ewd:figID="66" ewd:code="ED"><path style="stroke-width: 0.85 ;&st7;  " d=" M   339.94,   701.50  L   356.94,   701.50  " /><path style="stroke-width: 0.85 ;&st7;  " d=" M   348.44,   697.25  L   348.44,   701.50  " /><path style="stroke-width: 0.85 ;&st7;  " d=" M   344.19,   704.33  L   352.69,   704.33  " /><path style="stroke-width: 0.85 ;&st7;  " d=" M   345.61,   707.17  L   351.27,   707.17  " /><path style="stroke-width: 0.85 ;&st7;  " d=" M   347.03,   710.00  L   349.86,   710.00  " /></g><g ewd:figtype="annex" ewd:figID="93" ewd:code=" "><path style="stroke-width: 0.85 ;&st7;  " d=" M   407.93,   392.72  L   407.93,   401.22  " /><path style="stroke-width: 0.85 ;&st7;  " d=" M   403.68,   404.05  L   412.18,   404.05  " /><path style="stroke-width: 0.85 ;&st7;  " d=" M   405.10,   406.88  L   410.76,   406.88  " /><path style="stroke-width: 0.85 ;&st7;  " d=" M   399.43,   401.22  L   416.43,   401.22  " /><path style="stroke-width: 0.85 ;&st7;  " d=" M   406.52,   409.72  L   409.35,   409.72  " /></g><g ewd:figtype="annex" ewd:figID="94" ewd:code=" "><path style="stroke-width: 0.85 ;&st7;  " d=" M   464.59,   406.88  L   470.25,   406.88  " /><path style="stroke-width: 0.85 ;&st7;  " d=" M   467.42,   392.72  L   467.42,   401.22  " /><path style="stroke-width: 0.85 ;&st7;  " d=" M   463.17,   404.05  L   471.67,   404.05  " /><path style="stroke-width: 0.85 ;&st7;  " d=" M   458.92,   401.22  L   475.92,   401.22  " /><path style="stroke-width: 0.85 ;&st7;  " d=" M   466.01,   409.72  L   468.84,   409.72  " /></g></svg>