<?xml version="1.0" encoding="utf-8"?>
<!-- Generator: Adobe Illustrator 10.0, SVG Export Plug-In . SVG Version: 3.0.0 Build 77)  -->
<!DOCTYPE svg PUBLIC "-//W3C//DTD SVG 1.0//EN" "http://www.w3.org/TR/2001/REC-SVG-20010904/DTD/svg10.dtd"[
	<!ENTITY ns_flows "http://ns.adobe.com/Flows/1.0/">
	<!ENTITY ns_svg "http://www.w3.org/2000/svg">
	<!ENTITY ns_xlink "http://www.w3.org/1999/xlink">
	<!ENTITY st0 "fill:none;stroke:#000000;stroke-linecap:round;stroke-linejoin:round;stroke-dasharray:2;">
	<!ENTITY st1 "fill:none;stroke:#000000;stroke-linecap:round;stroke-linejoin:round;">
	<!ENTITY st2 "fill:none;stroke:#000000;stroke-width:0.6;stroke-linecap:round;stroke-linejoin:round;">
	<!ENTITY st3 "fill:none;stroke:#000000;stroke-width:0.6;">
	<!ENTITY st4 "fill:none;stroke:#000000;stroke-width:0.8;">
	<!ENTITY st5 "fill:none;stroke:#000000;">
	<!ENTITY st6 "fill:none;stroke:#000000;stroke-width:0.6;stroke-linejoin:round;">
	<!ENTITY st7 "fill:none;stroke:#FFFFFF;stroke-width:2;">
	<!ENTITY st8 "font-size:6px;">
	<!ENTITY st9 "font-size:8px;">
	<!ENTITY st10 "stroke:#000000;stroke-width:0.6;">
	<!ENTITY st11 "fill:none;stroke:#000000;stroke-width:0.5;stroke-linecap:round;stroke-linejoin:round;">
	<!ENTITY st12 "fill:none;stroke:#000000;stroke-linejoin:round;">
	<!ENTITY st13 "font-family:'NSimSun';">
	<!ENTITY st14 "fill:none;stroke:#000000;stroke-width:0.6;stroke-linecap:round;stroke-linejoin:round;stroke-dasharray:2;">
	<!ENTITY st15 "fill:none;stroke:#FFFFFF;stroke-width:0.2;">
	<!ENTITY st16 "fill:none;stroke:#FFFFFF;stroke-width:2;stroke-linecap:round;stroke-linejoin:round;">
	<!ATTLIST svg
		xmlns:ewd CDATA #FIXED "http://shcl.co.jp/ewd"
		xmlns:a CDATA #FIXED "http://ns.adobe.com/AdobeSVGViewerExtensions/3.0/"
		ewd:ver CDATA #IMPLIED>
	<!ATTLIST a
		ewd:innerGroupID CDATA #IMPLIED
		ewd:figtype CDATA #IMPLIED
		ewd:code CDATA #IMPLIED
		ewd:pinNo CDATA #IMPLIED>
	<!ATTLIST text
		ewd:textID CDATA #IMPLIED
		ewd:horAlign CDATA #IMPLIED>
	<!ATTLIST title
		ewd:textID CDATA #IMPLIED>
]>
<svg ewd:ver="2.1.2.6F" height="680.515" onload="call_execInitLoadProc_svg('location')" style="overflow:visible;enable-background:new 0 0 510.436 680.515" viewBox="0 0 510.436 680.515" width="510.436" xml:space="preserve" xmlns="&ns_svg;" xmlns:ewd="http://shcl.co.jp/ewd" xmlns:a="http://ns.adobe.com/AdobeSVGViewerExtensions/3.0/" xmlns:xlink="&ns_xlink;">
<script type="text/javascript" xlink:href="../../../../../system/js/ewd/fig/svgfig.js" xmlns:xlink="http://www.w3.org/1999/xlink" />
<g id="WAKU">
	<path d="M510.336,680.415V0.1H0.1v680.315H510.336z" style="&st15;" />
</g>
<g id="レイヤー_1">
	<path d="M88.24,144.417c-0.267-0.088-1.175-0.313-1.472-0.313c-1.489,0-2.695,1.207-2.695,2.695v16.332h3.25" style="&st6;" />
	<path d="M87.323,195.963h-3.25v-29.771h3.135" style="&st6;" />
	<path d="M87.375,229.075h-3.302V198.97h3.135" style="&st6;" />
	<path d="M80.032,264.023h4.177v3.333h1.167v1.5h1.667" style="&st6;" />
	<path d="M80.032,238.858h4.177v-3.333h1.167v-1.5h1.667" style="&st6;" />
	<path d="M87.208,275.522h-3v5.167h-4.177" style="&st6;" />
	<path d="M87.208,310.354h-3v-5.166h-4.177" style="&st6;" />
	<path d="M87.133,505.282h-9.427c-0.929,0-1.683-0.752-1.683-1.682v-21.82c0-0.93,0.753-1.682,1.683-1.682h9.158" style="&st6;" />
	<path d="M87.093,476.69h-2.866v-5.16h-3.983" style="&st6;" />
	<path d="M87.093,441.147h-2.866v5.16h-3.983" style="&st6;" />
	<path d="M87.218,535.259h-3.012v-26.957h3.012" style="&st6;" />
	<path d="M87.238,436.253v129.641" style="&st3;" />
	<path d="M87.238,315.982v120.271" style="&st5;" />
	<path d="M94.12,135.781c-4.213,3.614-6.882,8.976-6.882,14.962v165.239" style="&st3;" />
	<path d="M204.342,131.039h-97.4c-4.897,0-9.376,1.786-12.823,4.742" style="&st5;" />
	<path d="M273.257,131.039h-68.915" style="&st3;" />
	<path d="M411.383,154.425l-1.646-8.166c-2.03-8.722-9.852-15.22-19.192-15.22H273.257" style="&st5;" />
	<path d="M419.591,196.348l-8.208-41.923" style="&st3;" />
	<path d="M441.296,317.382v-9.675l-21.705-111.359" style="&st5;" />
	<path d="M441.296,360.417v-43.035" style="&st3;" />
	<path d="M87.238,565.894c0,0,0.002,4.616,0.002,5.262c0,9.283,7.668,19.418,19.703,19.418    c2.275,0,282.195,0,282.195,0c5.803,0,11.02-2.508,14.625-6.5l25.127-32.426c2.437-3.279,3.879-7.342,3.879-11.742l8.527-123.16    v-56.328" style="&st5;" />
	<path d="M204.342,131.039v-5.663c0-0.783,0.635-1.417,1.417-1.417h66.079c0.783,0,1.418,0.635,1.418,1.417v5.663" style="&st12;" />
	<path d="M87.011,315.982h-5.663c-0.783,0-1.417-0.635-1.417-1.418V144.738l8.922-9.49    c0.603-0.603,1.435-0.975,2.354-0.975c1.078,0,2.303,0.714,2.912,1.508" style="&st12;" />
	<path d="M87.238,565.894h-5.463c-0.783,0-1.417-0.635-1.417-1.418V507.64h-2.651c-2.231,0-4.041-1.809-4.041-4.039    v-21.82c0-2.23,1.809-4.039,4.041-4.039h2.651v-40.07c0-0.783,0.635-1.418,1.417-1.418h5.663" style="&st12;" />
	<path d="M441.296,360.101h5.663c0.782,0,1.417-0.635,1.417-1.416v-39.885c0-0.782-0.635-1.417-1.417-1.417h-5.663" style="&st12;" />
	<path d="M209.089,130.999v-3.605h4.221v-3.43" style="&st6;" />
	<path d="M227.996,130.999v-3.605h-4.221v-3.43" style="&st6;" />
	<path d="M234.24,130.999v-3.605h4.56v-3.43" style="&st6;" />
	<path d="M268.963,130.999v-3.605h-4.56v-3.43" style="&st6;" />
	<path d="M441.479,323.378h3.638v3.367h3.232" style="&st6;" />
	<path d="M441.479,354.495h3.638v-3.367h3.232" style="&st6;" />
	<path d="M419.591,196.348l5.558-1.088c0.768-0.15,1.269-0.896,1.118-1.663l-7.663-39.142    c-0.15-0.768-0.896-1.269-1.663-1.118l-5.558,1.088" style="&st12;" />
	<path d="M412.715,160.274l3.57-0.699l0.646,3.304l3.173-0.621" style="&st6;" />
	<path d="M418.693,190.811l3.57-0.699l-0.646-3.304l3.172-0.621" style="&st6;" />
	<path d="M80.306,537.575h6.64" style="&st6;" />
	<path d="M309.073,590.573V533.03c0-4.24-3.438-7.678-7.679-7.678h-30.713c-4.24,0-7.678,3.438-7.678,7.678v57.543" style="&st3;" />
	<path d="M259.318,584.935v-61.646c0-2.545-2.063-4.607-4.606-4.607H87.327" style="&st3;" />
	<path d="M241.812,507.159c0,1.566-1.269,2.836-2.834,2.836h-28.422c-1.565,0-2.834-1.27-2.834-2.836v-75.482    c0-1.564,1.269-2.834,2.834-2.834h28.422c1.565,0,2.834,1.27,2.834,2.834V507.159z" style="&st3;" />
	<path d="M207.72,480.204H87.327" style="&st3;" />
	<path d="M140.784,276.648c0-1.565-1.269-2.834-2.834-2.834H87.208" style="&st3;" />
	<path d="M140.784,276.648v3.239c0,1.565,1.269,2.834,2.834,2.834h117.633" style="&st3;" />
	<path d="M140.784,279.887v200.315" style="&st3;" />
	<path d="M410.02,535.186v-23.193h8.974c1.565,0,2.835-1.27,2.835-2.836v-46.114h16.045" style="&st3;" />
	<path d="M441.021,364.243h-77.938v-7.086H308.37" style="&st3;" />
	<path d="M261.115,130.946v191.241h47.018v-6.339h5.98v-62.376" style="&st3;" />
	<path d="M263.004,584.935H93.13" style="&st3;" />
	<path d="M306.02,322.187v29.056h2.642v38.094h7.056v136.788c0,5.004,4.057,9.061,9.061,9.061h98.531l-1.614,15.355    l-22.939,25.799h-89.682" style="&st3;" />
	<path d="M327.249,131.276v37.266l6.241,6.479v33.697h6.868v44.754h-30.603l-4.095-4.094h-10.472l-5.019-5.019    l-10.038-3v-16.905h-4.227v-6.339h-2.641v-43.093h-12.15" style="&st3;" />
	<path d="M340.358,212.308h12.15v41.73l5.812,5.811v66.867h4.227v12.15h2.641v19.85h5.51l2.642,2.641h46.791v-37.81    h-2.113v-8.453h-5.282V250.34h-3.698v-38.032h-7.396v-31.702h-5.282v-12.15h-4.227v-37.179" style="&st3;" />
	<path d="M311.943,482.593c0,1.566-1.27,2.836-2.835,2.836h-52.726c-1.565,0-2.834-1.27-2.834-2.836v-34.48    c0-1.564,1.269-2.834,2.834-2.834h52.726c1.565,0,2.835,1.27,2.835,2.834V482.593z" style="&st3;" />
	<path d="M131.376,404.429h-9.494v-12.867h9.494V404.429z" style="&st2;" />
	<path d="M118.045,404.429h-9.493v-12.867h9.493V404.429" style="&st2;" />
	<path d="M135.366,407.647H104.56v-19.305h30.807V407.647" style="&st1;" />
	<path d="M173.517,311.79h-9.494v-12.867h9.494V311.79z" style="&st2;" />
	<path d="M160.186,311.79h-9.493v-12.867h9.493V311.79" style="&st2;" />
	<path d="M177.507,315.008h-30.807v-19.305h30.807V315.008" style="&st1;" />
	<path d="M173.517,339.745h-9.494v-12.867h9.494V339.745z" style="&st2;" />
	<path d="M160.186,339.745h-9.493v-12.867h9.493V339.745" style="&st2;" />
	<path d="M177.507,342.964h-30.807V323.66h30.807V342.964" style="&st1;" />
	<path d="M173.517,367.702h-9.494v-12.867h9.494V367.702z" style="&st2;" />
	<path d="M160.186,367.702h-9.493v-12.867h9.493V367.702" style="&st2;" />
	<path d="M177.507,370.921h-30.807v-19.305h30.807V370.921" style="&st1;" />
	<path d="M173.517,395.657h-9.494V382.79h9.494V395.657z" style="&st2;" />
	<path d="M160.186,395.657h-9.493V382.79h9.493V395.657" style="&st2;" />
	<path d="M177.507,398.876h-30.807v-19.305h30.807V398.876" style="&st1;" />
	<path d="M173.517,423.614h-9.494v-12.867h9.494V423.614z" style="&st2;" />
	<path d="M160.186,423.614h-9.493v-12.867h9.493V423.614" style="&st2;" />
	<path d="M177.507,426.833h-30.807v-19.305h30.807V426.833" style="&st1;" />
	<path d="M131.376,431.812h-9.494v-12.867h9.494V431.812z" style="&st2;" />
	<path d="M118.045,431.812h-9.493v-12.867h9.493V431.812" style="&st2;" />
	<path d="M135.366,435.03H104.56v-19.305h30.807V435.03" style="&st1;" />
	<path d="M114.272,468.974h-13.682v-21.453h13.682V468.974" style="&st2;" />
	<path d="M132.516,468.974h-13.683v-21.453h13.683V468.974" style="&st2;" />
	<path d="M137.075,472.874H96.028V443.62h41.047V472.874" style="&st1;" />
	<path d="M153.019,507.681h-13.682v-21.453h13.682V507.681" style="&st2;" />
	<path d="M171.262,507.681h-13.683v-21.453h13.683V507.681" style="&st2;" />
	<path d="M175.821,511.581h-41.047v-29.254h41.047V511.581" style="&st1;" />
	<path d="M107.592,281.965v7.933" style="&st2;" />
	<path d="M123.456,281.965v7.933" style="&st2;" />
	<path d="M131.388,281.965H99.66v7.933h31.728V281.965" style="&st1;" />
	<path d="M121.114,179.359v7.933" style="&st2;" />
	<path d="M136.978,179.359v7.933" style="&st2;" />
	<path d="M144.91,179.359h-31.728v7.933h31.728V179.359" style="&st1;" />
	<path d="M121.114,145.269v7.933" style="&st2;" />
	<path d="M136.978,145.269v7.933" style="&st2;" />
	<path d="M144.91,145.269h-31.728v7.933h31.728V145.269" style="&st1;" />
	<path d="M172.905,145.269v7.933" style="&st2;" />
	<path d="M188.77,145.269v7.933" style="&st2;" />
	<path d="M196.701,145.269h-31.728v7.933h31.728V145.269" style="&st1;" />
	<path d="M224.696,145.269v7.933" style="&st2;" />
	<path d="M240.561,145.269v7.933" style="&st2;" />
	<path d="M248.492,145.269h-31.728v7.933h31.728V145.269" style="&st1;" />
	<path d="M158.654,179.359v7.933" style="&st2;" />
	<path d="M174.518,179.359v7.933" style="&st2;" />
	<path d="M182.45,179.359h-31.728v7.933h31.728V179.359" style="&st1;" />
	<path d="M158.654,194.966v7.933" style="&st2;" />
	<path d="M174.518,194.966v7.933" style="&st2;" />
	<path d="M182.45,194.966h-31.728v7.933h31.728V194.966" style="&st1;" />
	<path d="M158.654,210.572v7.933" style="&st2;" />
	<path d="M174.518,210.572v7.933" style="&st2;" />
	<path d="M182.45,210.572h-31.728v7.933h31.728V210.572" style="&st1;" />
	<path d="M158.654,237.989v7.933" style="&st2;" />
	<path d="M174.518,237.989v7.933" style="&st2;" />
	<path d="M182.45,237.989h-31.728v7.933h31.728V237.989" style="&st1;" />
	<path d="M158.654,253.596v7.933" style="&st2;" />
	<path d="M174.518,253.596v7.933" style="&st2;" />
	<path d="M182.45,253.596h-31.728v7.933h31.728V253.596" style="&st1;" />
	<path d="M158.654,269.202v7.933" style="&st2;" />
	<path d="M174.518,269.202v7.933" style="&st2;" />
	<path d="M182.45,269.202h-31.728v7.933h31.728V269.202" style="&st1;" />
	<path d="M121.114,194.966v7.933" style="&st2;" />
	<path d="M136.978,194.966v7.933" style="&st2;" />
	<path d="M144.91,194.966h-31.728v7.933h31.728V194.966" style="&st1;" />
	<path d="M121.114,227.888v7.933" style="&st2;" />
	<path d="M136.978,227.888v7.933" style="&st2;" />
	<path d="M144.91,227.888h-31.728v7.933h31.728V227.888" style="&st1;" />
	<path d="M107.592,210.572v7.933" style="&st2;" />
	<path d="M123.456,210.572v7.933" style="&st2;" />
	<path d="M131.388,210.572H99.66v7.933h31.728V210.572" style="&st1;" />
	<path d="M107.592,246.003v7.933" style="&st2;" />
	<path d="M123.456,246.003v7.933" style="&st2;" />
	<path d="M131.388,246.003H99.66v7.933h31.728V246.003" style="&st1;" />
	<path d="M107.592,261.766v7.933" style="&st2;" />
	<path d="M123.456,261.766v7.933" style="&st2;" />
	<path d="M131.388,261.766H99.66v7.933h31.728V261.766" style="&st1;" />
	<path d="M107.592,297.814v7.933" style="&st2;" />
	<path d="M123.456,297.814v7.933" style="&st2;" />
	<path d="M131.388,297.814H99.66v7.933h31.728V297.814" style="&st1;" />
	<path d="M107.592,313.664v7.933" style="&st2;" />
	<path d="M123.456,313.664v7.933" style="&st2;" />
	<path d="M131.388,313.664H99.66v7.933h31.728V313.664" style="&st1;" />
	<path d="M107.592,329.513v7.934" style="&st2;" />
	<path d="M123.456,329.513v7.934" style="&st2;" />
	<path d="M131.388,329.513H99.66v7.934h31.728V329.513" style="&st1;" />
	<path d="M381.94,454.812v7.934" style="&st2;" />
	<path d="M397.805,454.812v7.934" style="&st2;" />
	<path d="M405.736,454.812h-31.728v7.934h31.728V454.812" style="&st1;" />
	<path d="M268.722,161.217h7.933" style="&st2;" />
	<path d="M268.722,145.353h7.933" style="&st2;" />
	<path d="M284.57,161.217h7.934" style="&st2;" />
	<path d="M284.57,145.353h7.934" style="&st2;" />
	<path d="M284.57,161.217v-23.796h7.934v31.728h-23.782v-31.728h7.933v23.796H284.57z" style="&st1;" />
	<path d="M300.42,161.217h7.933" style="&st2;" />
	<path d="M300.42,145.353h7.933" style="&st2;" />
	<path d="M316.269,161.217h7.935" style="&st2;" />
	<path d="M316.269,145.353h7.935" style="&st2;" />
	<path d="M316.269,161.217v-23.796h7.935v31.728H300.42v-31.728h7.933v23.796H316.269z" style="&st1;" />
	<path d="M191.832,414.792h7.933" style="&st2;" />
	<path d="M191.832,398.929h7.933" style="&st2;" />
	<path d="M207.681,414.792h7.934" style="&st2;" />
	<path d="M207.681,398.929h7.934" style="&st2;" />
	<path d="M215.614,422.724v-31.727h-7.934v23.795h-7.916v-23.795h-7.933v31.727H215.614z" style="&st1;" />
	<path d="M223.53,414.792h7.933" style="&st2;" />
	<path d="M223.53,398.929h7.933" style="&st2;" />
	<path d="M223.53,390.997v31.727h7.933v-31.727H223.53" style="&st1;" />
	<path d="M239.379,414.792h7.935" style="&st2;" />
	<path d="M239.379,398.929h7.935" style="&st2;" />
	<path d="M239.379,390.997v31.727h7.935v-31.727H239.379" style="&st1;" />
	<path d="M107.592,345.362v7.934" style="&st2;" />
	<path d="M123.456,345.362v7.934" style="&st2;" />
	<path d="M131.388,345.362H99.66v7.934h31.728V345.362" style="&st1;" />
	<path d="M107.592,361.212v7.934" style="&st2;" />
	<path d="M123.456,361.212v7.934" style="&st2;" />
	<path d="M131.388,361.212H99.66v7.934h31.728V361.212" style="&st1;" />
	<path d="M107.592,377.062v7.934" style="&st2;" />
	<path d="M123.456,377.062v7.934" style="&st2;" />
	<path d="M131.388,377.062H99.66v7.934h31.728V377.062" style="&st1;" />
	<path d="M292.563,289.617h-9.35" style="&st2;" />
	<path d="M292.563,287.748h-9.35" style="&st2;" />
	<path d="M282.562,301.525v-7.74" style="&st2;" />
	<path d="M281.065,301.525v-7.74" style="&st2;" />
	<path d="M290.694,285.877c0.516,0,0.936-0.418,0.936-0.935" style="&st2;" />
	<path d="M284.151,284.943c0,0.515,0.418,0.933,0.934,0.933" style="&st2;" />
	<path d="M291.63,277.464c0-0.517-0.42-0.936-0.936-0.936" style="&st2;" />
	<path d="M285.085,276.529c-0.518,0-0.936,0.419-0.936,0.936" style="&st2;" />
	<path d="M283.214,284.943c0,1.032,0.838,1.87,1.871,1.87" style="&st2;" />
	<path d="M285.085,275.594c-1.033,0-1.871,0.837-1.871,1.87" style="&st2;" />
	<path d="M292.563,277.464c0-1.032-0.838-1.868-1.869-1.868" style="&st2;" />
	<path d="M290.694,286.81c1.031,0,1.869-0.836,1.869-1.867" style="&st2;" />
	<path d="M292.563,289.617c0.518,0,0.936-0.419,0.936-0.937" style="&st2;" />
	<path d="M293.499,288.68c0-0.517-0.418-0.937-0.936-0.937" style="&st2;" />
	<path d="M283.214,287.748c-0.516,0-0.934,0.418-0.934,0.935" style="&st2;" />
	<path d="M282.28,288.682c0,0.516,0.418,0.935,0.934,0.935" style="&st2;" />
	<path d="M294.899,290.365c-0.516,0-0.932,0.418-0.932,0.933" style="&st2;" />
	<path d="M281.065,301.525c0,0.413,0.336,0.748,0.748,0.748" style="&st2;" />
	<path d="M281.813,302.273c0.412,0,0.748-0.335,0.748-0.748" style="&st2;" />
	<path d="M282.562,293.786c0-0.413-0.336-0.747-0.748-0.747" style="&st2;" />
	<path d="M281.813,293.039c-0.412,0-0.748,0.334-0.748,0.747" style="&st2;" />
	<path d="M306.493,307.752c2.066,0,3.74-1.674,3.74-3.738" style="&st1;" />
	<path d="M265.548,304.014c0,2.064,1.674,3.738,3.738,3.738" style="&st1;" />
	<path d="M269.286,260.262c-2.064,0-3.738,1.674-3.738,3.739" style="&st1;" />
	<path d="M310.233,264.001c0-2.065-1.674-3.739-3.74-3.739" style="&st1;" />
	<path d="M291.63,284.943v-7.479" style="&st2;" />
	<path d="M290.694,285.877h-5.609" style="&st2;" />
	<path d="M284.151,284.943v-7.479" style="&st2;" />
	<path d="M290.694,276.529h-5.609" style="&st2;" />
	<path d="M290.694,286.81h-5.609" style="&st2;" />
	<path d="M283.214,284.943v-7.479" style="&st2;" />
	<path d="M290.694,275.594h-5.609" style="&st2;" />
	<path d="M292.563,284.943v-7.479" style="&st2;" />
	<path d="M291.163,302.144v-11.22h-6.545v11.22H291.163" style="&st2;" />
	<path d="M283.685,303.079v-10.844" style="&st2;" />
	<path d="M283.685,292.235l-3.74-3.74" style="&st2;" />
	<path d="M279.944,288.495h-1.871v-11.966" style="&st2;" />
	<path d="M278.073,276.529h1.871l1.869-1.869v-1.87" style="&st2;" />
	<path d="M293.968,272.79h-12.154" style="&st2;" />
	<path d="M297.706,276.529h-1.869l-1.869-1.869v-1.87" style="&st2;" />
	<path d="M297.706,288.495v-11.966" style="&st2;" />
	<path d="M283.685,303.079h10.283" style="&st2;" />
	<path d="M293.968,303.079v-11.781" style="&st2;" />
	<path d="M295.837,290.365h-0.938" style="&st2;" />
	<path d="M297.706,288.495h-1.869v1.87" style="&st2;" />
	<path d="M276.765,288.495v-11.966h-6.543v11.966H276.765" style="&st2;" />
	<path d="M305.56,288.495h-6.545v-11.966h6.545V288.495" style="&st2;" />
	<path d="M293.968,271.479v-6.543h-12.154v6.543H293.968" style="&st2;" />
	<path d="M306.493,274.66h-10.656v-10.658h-15.893v10.658h-10.658v16.638h10.658v12.717h16.824v-12.717h9.725V274.66    " style="&st1;" />
	<path d="M310.233,304.014v-40.013" style="&st1;" />
	<path d="M265.548,264.001v40.013" style="&st1;" />
	<path d="M306.493,307.752h-37.207" style="&st1;" />
	<path d="M306.493,260.262h-37.207" style="&st1;" />
	<path d="M311.298,217.744h-9.35" style="&st2;" />
	<path d="M311.298,215.875h-9.35" style="&st2;" />
	<path d="M301.296,229.652v-7.74" style="&st2;" />
	<path d="M299.8,229.652v-7.74" style="&st2;" />
	<path d="M309.429,214.004c0.516,0,0.936-0.418,0.936-0.935" style="&st2;" />
	<path d="M302.886,213.07c0,0.515,0.418,0.933,0.934,0.933" style="&st2;" />
	<path d="M310.364,205.591c0-0.517-0.42-0.936-0.936-0.936" style="&st2;" />
	<path d="M303.819,204.656c-0.518,0-0.936,0.419-0.936,0.936" style="&st2;" />
	<path d="M301.948,213.07c0,1.032,0.838,1.87,1.871,1.87" style="&st2;" />
	<path d="M303.819,203.721c-1.033,0-1.871,0.837-1.871,1.87" style="&st2;" />
	<path d="M311.298,205.591c0-1.032-0.838-1.868-1.869-1.868" style="&st2;" />
	<path d="M309.429,214.937c1.031,0,1.869-0.836,1.869-1.867" style="&st2;" />
	<path d="M311.298,217.744c0.518,0,0.936-0.419,0.936-0.937" style="&st2;" />
	<path d="M312.233,216.807c0-0.517-0.418-0.937-0.936-0.937" style="&st2;" />
	<path d="M301.948,215.875c-0.516,0-0.934,0.418-0.934,0.935" style="&st2;" />
	<path d="M301.015,216.809c0,0.516,0.418,0.935,0.934,0.935" style="&st2;" />
	<path d="M313.634,218.492c-0.516,0-0.932,0.418-0.932,0.933" style="&st2;" />
	<path d="M299.8,229.652c0,0.413,0.336,0.748,0.748,0.748" style="&st2;" />
	<path d="M300.548,230.4c0.412,0,0.748-0.335,0.748-0.748" style="&st2;" />
	<path d="M301.296,221.913c0-0.413-0.336-0.747-0.748-0.747" style="&st2;" />
	<path d="M300.548,221.166c-0.412,0-0.748,0.334-0.748,0.747" style="&st2;" />
	<path d="M325.228,235.879c2.066,0,3.74-1.674,3.74-3.738" style="&st1;" />
	<path d="M284.282,232.141c0,2.064,1.674,3.738,3.738,3.738" style="&st1;" />
	<path d="M288.021,188.389c-2.064,0-3.738,1.674-3.738,3.739" style="&st1;" />
	<path d="M328.968,192.128c0-2.065-1.674-3.739-3.74-3.739" style="&st1;" />
	<path d="M310.364,213.07v-7.479" style="&st2;" />
	<path d="M309.429,214.004h-5.609" style="&st2;" />
	<path d="M302.886,213.07v-7.479" style="&st2;" />
	<path d="M309.429,204.656h-5.609" style="&st2;" />
	<path d="M309.429,214.937h-5.609" style="&st2;" />
	<path d="M301.948,213.07v-7.479" style="&st2;" />
	<path d="M309.429,203.721h-5.609" style="&st2;" />
	<path d="M311.298,213.07v-7.479" style="&st2;" />
	<path d="M309.897,230.271v-11.22h-6.545v11.22H309.897" style="&st2;" />
	<path d="M302.419,231.206v-10.844" style="&st2;" />
	<path d="M302.419,220.362l-3.74-3.74" style="&st2;" />
	<path d="M298.679,216.622h-1.871v-11.966" style="&st2;" />
	<path d="M296.808,204.656h1.871l1.869-1.869v-1.87" style="&st2;" />
	<path d="M312.702,200.917h-12.154" style="&st2;" />
	<path d="M316.44,204.656h-1.869l-1.869-1.869v-1.87" style="&st2;" />
	<path d="M316.44,216.622v-11.966" style="&st2;" />
	<path d="M302.419,231.206h10.283" style="&st2;" />
	<path d="M312.702,231.206v-11.781" style="&st2;" />
	<path d="M314.571,218.492h-0.938" style="&st2;" />
	<path d="M316.44,216.622h-1.869v1.87" style="&st2;" />
	<path d="M295.499,216.622v-11.966h-6.543v11.966H295.499" style="&st2;" />
	<path d="M324.294,216.622h-6.545v-11.966h6.545V216.622" style="&st2;" />
	<path d="M312.702,199.606v-6.543h-12.154v6.543H312.702" style="&st2;" />
	<path d="M325.228,202.787h-10.656v-10.658h-15.893v10.658h-10.658v16.638h10.658v12.717h16.824v-12.717h9.725    V202.787" style="&st1;" />
	<path d="M328.968,232.141v-40.013" style="&st1;" />
	<path d="M284.282,192.128v40.013" style="&st1;" />
	<path d="M325.228,235.879h-37.207" style="&st1;" />
	<path d="M325.228,188.389h-37.207" style="&st1;" />
	<path d="M388.095,256.004h-9.35" style="&st2;" />
	<path d="M388.095,254.135h-9.35" style="&st2;" />
	<path d="M378.093,267.912v-7.74" style="&st2;" />
	<path d="M376.597,267.912v-7.74" style="&st2;" />
	<path d="M386.226,252.265c0.516,0,0.936-0.418,0.936-0.935" style="&st2;" />
	<path d="M379.683,251.33c0,0.515,0.418,0.933,0.934,0.933" style="&st2;" />
	<path d="M387.161,243.852c0-0.517-0.42-0.936-0.936-0.936" style="&st2;" />
	<path d="M380.616,242.916c-0.518,0-0.936,0.419-0.936,0.936" style="&st2;" />
	<path d="M378.745,251.33c0,1.032,0.838,1.87,1.871,1.87" style="&st2;" />
	<path d="M380.616,241.981c-1.033,0-1.871,0.837-1.871,1.87" style="&st2;" />
	<path d="M388.095,243.852c0-1.032-0.838-1.868-1.869-1.868" style="&st2;" />
	<path d="M386.226,253.197c1.031,0,1.869-0.836,1.869-1.867" style="&st2;" />
	<path d="M388.095,256.004c0.518,0,0.936-0.419,0.936-0.937" style="&st2;" />
	<path d="M389.03,255.067c0-0.517-0.418-0.937-0.936-0.937" style="&st2;" />
	<path d="M378.745,254.135c-0.516,0-0.934,0.418-0.934,0.935" style="&st2;" />
	<path d="M377.812,255.069c0,0.516,0.418,0.935,0.934,0.935" style="&st2;" />
	<path d="M390.431,256.752c-0.516,0-0.932,0.418-0.932,0.933" style="&st2;" />
	<path d="M376.597,267.912c0,0.413,0.336,0.748,0.748,0.748" style="&st2;" />
	<path d="M377.345,268.66c0.412,0,0.748-0.335,0.748-0.748" style="&st2;" />
	<path d="M378.093,260.173c0-0.413-0.336-0.747-0.748-0.747" style="&st2;" />
	<path d="M377.345,259.426c-0.412,0-0.748,0.334-0.748,0.747" style="&st2;" />
	<path d="M402.024,274.14c2.066,0,3.74-1.674,3.74-3.738" style="&st1;" />
	<path d="M361.079,270.401c0,2.064,1.674,3.738,3.738,3.738" style="&st1;" />
	<path d="M364.817,226.649c-2.064,0-3.738,1.674-3.738,3.739" style="&st1;" />
	<path d="M405.765,230.389c0-2.065-1.674-3.739-3.74-3.739" style="&st1;" />
	<path d="M387.161,251.33v-7.479" style="&st2;" />
	<path d="M386.226,252.265h-5.609" style="&st2;" />
	<path d="M379.683,251.33v-7.479" style="&st2;" />
	<path d="M386.226,242.916h-5.609" style="&st2;" />
	<path d="M386.226,253.197h-5.609" style="&st2;" />
	<path d="M378.745,251.33v-7.479" style="&st2;" />
	<path d="M386.226,241.981h-5.609" style="&st2;" />
	<path d="M388.095,251.33v-7.479" style="&st2;" />
	<path d="M386.694,268.531v-11.22h-6.545v11.22H386.694" style="&st2;" />
	<path d="M379.216,269.466v-10.844" style="&st2;" />
	<path d="M379.216,258.622l-3.74-3.74" style="&st2;" />
	<path d="M375.476,254.882h-1.871v-11.966" style="&st2;" />
	<path d="M373.604,242.916h1.871l1.869-1.869v-1.87" style="&st2;" />
	<path d="M389.499,239.177h-12.154" style="&st2;" />
	<path d="M393.237,242.916h-1.869l-1.869-1.869v-1.87" style="&st2;" />
	<path d="M393.237,254.882v-11.966" style="&st2;" />
	<path d="M379.216,269.466h10.283" style="&st2;" />
	<path d="M389.499,269.466v-11.781" style="&st2;" />
	<path d="M391.368,256.752h-0.938" style="&st2;" />
	<path d="M393.237,254.882h-1.869v1.87" style="&st2;" />
	<path d="M372.296,254.882v-11.966h-6.543v11.966H372.296" style="&st2;" />
	<path d="M401.091,254.882h-6.545v-11.966h6.545V254.882" style="&st2;" />
	<path d="M389.499,237.866v-6.543h-12.154v6.543H389.499" style="&st2;" />
	<path d="M402.024,241.047h-10.656v-10.658h-15.893v10.658h-10.658v16.638h10.658v12.717H392.3v-12.717h9.725    V241.047" style="&st1;" />
	<path d="M405.765,270.401v-40.013" style="&st1;" />
	<path d="M361.079,230.389v40.013" style="&st1;" />
	<path d="M402.024,274.14h-37.207" style="&st1;" />
	<path d="M402.024,226.649h-37.207" style="&st1;" />
	<path d="M217.701,202.63v-9.35" style="&st2;" />
	<path d="M219.57,202.63v-9.35" style="&st2;" />
	<path d="M205.792,192.628h7.74" style="&st2;" />
	<path d="M205.792,191.132h7.74" style="&st2;" />
	<path d="M221.44,200.761c0,0.516,0.418,0.936,0.935,0.936" style="&st2;" />
	<path d="M222.375,194.218c-0.515,0-0.933,0.418-0.933,0.934" style="&st2;" />
	<path d="M229.853,201.696c0.517,0,0.936-0.42,0.936-0.936" style="&st2;" />
	<path d="M230.789,195.151c0-0.518-0.419-0.936-0.936-0.936" style="&st2;" />
	<path d="M222.375,193.28c-1.032,0-1.87,0.838-1.87,1.871" style="&st2;" />
	<path d="M231.723,195.151c0-1.033-0.837-1.871-1.87-1.871" style="&st2;" />
	<path d="M229.853,202.63c1.032,0,1.868-0.838,1.868-1.869" style="&st2;" />
	<path d="M220.507,200.761c0,1.031,0.836,1.869,1.867,1.869" style="&st2;" />
	<path d="M217.701,202.63c0,0.518,0.419,0.936,0.937,0.936" style="&st2;" />
	<path d="M218.637,203.565c0.517,0,0.937-0.418,0.937-0.936" style="&st2;" />
	<path d="M219.57,193.28c0-0.516-0.418-0.934-0.935-0.934" style="&st2;" />
	<path d="M218.635,192.347c-0.516,0-0.935,0.418-0.935,0.934" style="&st2;" />
	<path d="M216.953,204.966c0-0.516-0.418-0.932-0.933-0.932" style="&st2;" />
	<path d="M205.792,191.132c-0.413,0-0.748,0.336-0.748,0.748" style="&st2;" />
	<path d="M205.044,191.88c0,0.412,0.335,0.748,0.748,0.748" style="&st2;" />
	<path d="M213.532,192.628c0.413,0,0.747-0.336,0.747-0.748" style="&st2;" />
	<path d="M214.279,191.88c0-0.412-0.334-0.748-0.747-0.748" style="&st2;" />
	<path d="M199.565,216.56c0,2.066,1.674,3.74,3.738,3.74" style="&st1;" />
	<path d="M203.303,175.614c-2.064,0-3.738,1.674-3.738,3.738" style="&st1;" />
	<path d="M247.055,179.353c0-2.064-1.674-3.738-3.739-3.738" style="&st1;" />
	<path d="M243.316,220.3c2.065,0,3.739-1.674,3.739-3.74" style="&st1;" />
	<path d="M222.375,201.696h7.479" style="&st2;" />
	<path d="M221.44,200.761v-5.609" style="&st2;" />
	<path d="M222.375,194.218h7.479" style="&st2;" />
	<path d="M230.789,200.761v-5.609" style="&st2;" />
	<path d="M220.507,200.761v-5.609" style="&st2;" />
	<path d="M222.375,193.28h7.479" style="&st2;" />
	<path d="M231.723,200.761v-5.609" style="&st2;" />
	<path d="M222.375,202.63h7.479" style="&st2;" />
	<path d="M205.173,201.229h11.22v-6.545h-11.22V201.229" style="&st2;" />
	<path d="M204.239,193.751h10.844" style="&st2;" />
	<path d="M215.083,193.751l3.74-3.74" style="&st2;" />
	<path d="M218.823,190.011v-1.871h11.966" style="&st2;" />
	<path d="M230.789,188.14v1.871l1.869,1.869h1.87" style="&st2;" />
	<path d="M234.528,204.034V191.88" style="&st2;" />
	<path d="M230.789,207.772v-1.869l1.869-1.869h1.87" style="&st2;" />
	<path d="M218.823,207.772h11.966" style="&st2;" />
	<path d="M204.239,193.751v10.283" style="&st2;" />
	<path d="M204.239,204.034h11.781" style="&st2;" />
	<path d="M216.953,205.903v-0.938" style="&st2;" />
	<path d="M218.823,207.772v-1.869h-1.87" style="&st2;" />
	<path d="M218.823,186.831h11.966v-6.543h-11.966V186.831" style="&st2;" />
	<path d="M218.823,215.626v-6.545h11.966v6.545H218.823" style="&st2;" />
	<path d="M235.838,204.034h6.543V191.88h-6.543V204.034" style="&st2;" />
	<path d="M232.658,216.56v-10.656h10.658v-15.893h-10.658v-10.658H216.02v10.658h-12.717v16.824h12.717v9.725    H232.658" style="&st1;" />
	<path d="M203.303,220.3h40.013" style="&st1;" />
	<path d="M243.316,175.614h-40.013" style="&st1;" />
	<path d="M199.565,216.56v-37.207" style="&st1;" />
	<path d="M247.055,216.56v-37.207" style="&st1;" />
	<path d="M353.088,148.03h-8.414v19.631h8.414V148.03" style="&st2;" />
	<path d="M353.088,154.573h-8.414" style="&st2;" />
	<path d="M353.088,161.118h-8.414" style="&st2;" />
	<path d="M369.915,151.769h-14.957v12.154h14.957V151.769" style="&st2;" />
	<path d="M362.437,151.769v12.154" style="&st2;" />
	<path d="M343.367,160.651h-2.805v-5.609h2.805v-8.32h11.029v3.738h6.638v-5.607h2.807v5.607h7.385v4.582h2.803    v5.609h-2.803v4.58h-16.829v3.738h-11.029V160.651" style="&st1;" />
	<path d="M371.226,160.651v-5.609" style="&st2;" />
	<path d="M363.841,150.46h-2.807" style="&st2;" />
	<path d="M343.367,155.042v5.609" style="&st2;" />
	<path d="M354.939,176.71c-2.065,0-3.739,1.674-3.739,3.74" style="&st1;" />
	<path d="M392.146,180.45c0-2.066-1.675-3.742-3.741-3.742" style="&st1;" />
	<path d="M388.405,208.308c2.065,0,3.74-1.674,3.74-3.74" style="&st1;" />
	<path d="M351.2,204.567c0,2.066,1.674,3.74,3.739,3.74" style="&st1;" />
	<path d="M375.88,201.39h8.414v-19.631h-8.414V201.39" style="&st2;" />
	<path d="M375.88,194.847h8.414" style="&st2;" />
	<path d="M375.88,188.302h8.414" style="&st2;" />
	<path d="M359.053,197.651h14.957v-12.154h-14.957V197.651" style="&st2;" />
	<path d="M366.531,197.651v-12.154" style="&st2;" />
	<path d="M385.601,188.769h2.805v5.609h-2.805v8.32h-11.029v-3.738h-6.638v5.607h-2.807v-5.607h-7.385v-4.582h-2.803    v-5.609h2.803v-4.58h16.829v-3.738h11.029V188.769" style="&st1;" />
	<path d="M357.742,188.769v5.609" style="&st2;" />
	<path d="M365.127,198.96h2.807" style="&st2;" />
	<path d="M385.601,194.378v-5.609" style="&st2;" />
	<path d="M354.939,176.71h33.466" style="&st1;" />
	<path d="M354.939,208.308h33.466" style="&st1;" />
	<path d="M351.2,180.45v24.117" style="&st1;" />
	<path d="M392.146,180.45v24.117" style="&st1;" />
	<path d="M137.587,536.075c0-2.064-1.674-3.738-3.74-3.738" style="&st1;" />
	<path d="M133.847,573.282c2.066,0,3.742-1.674,3.742-3.74" style="&st1;" />
	<path d="M105.989,569.542c0,2.064,1.674,3.74,3.74,3.74" style="&st1;" />
	<path d="M109.729,532.337c-2.066,0-3.74,1.674-3.74,3.738" style="&st1;" />
	<path d="M112.907,557.017v8.414h19.631v-8.414H112.907" style="&st2;" />
	<path d="M119.45,557.017v8.414" style="&st2;" />
	<path d="M125.995,557.017v8.414" style="&st2;" />
	<path d="M116.646,540.188v14.957H128.8v-14.957H116.646" style="&st2;" />
	<path d="M116.646,547.667H128.8" style="&st2;" />
	<path d="M125.528,566.737v2.805h-5.609v-2.805h-8.32v-11.029h3.738v-6.639h-5.607v-2.807h5.607v-7.385h4.582v-2.803    h5.609v2.803h4.58v16.83h3.738v11.029H125.528" style="&st1;" />
	<path d="M125.528,538.878h-5.609" style="&st2;" />
	<path d="M115.337,546.263v2.807" style="&st2;" />
	<path d="M119.919,566.737h5.609" style="&st2;" />
	<path d="M137.587,536.075v33.467" style="&st1;" />
	<path d="M105.989,536.075v33.467" style="&st1;" />
	<path d="M133.847,532.337h-24.117" style="&st1;" />
	<path d="M133.847,573.282h-24.117" style="&st1;" />
	<path d="M119.45,557.017l6.545,8.414" style="&st10;" />
	<path d="M125.995,557.017l-6.545,8.414" style="&st10;" />
	<path d="M344.674,154.573l8.414,6.545" style="&st2;" />
	<path d="M344.674,161.118l8.414-6.545" style="&st2;" />
	<path d="M402.214,323.273c2.065,0,3.739-1.674,3.739-3.74" style="&st1;" />
	<path d="M365.007,319.533c0,2.066,1.675,3.742,3.741,3.742" style="&st1;" />
	<path d="M368.748,291.676c-2.065,0-3.74,1.674-3.74,3.74" style="&st1;" />
	<path d="M405.953,295.416c0-2.066-1.674-3.74-3.739-3.74" style="&st1;" />
	<path d="M381.273,298.594h-8.414v19.631h8.414V298.594" style="&st2;" />
	<path d="M381.273,305.137h-8.414" style="&st2;" />
	<path d="M381.273,311.682h-8.414" style="&st2;" />
	<path d="M398.101,302.332h-14.957v12.154h14.957V302.332" style="&st2;" />
	<path d="M390.622,302.332v12.154" style="&st2;" />
	<path d="M371.553,311.215h-2.805v-5.609h2.805v-8.32h11.029v3.738h6.638v-5.607h2.807v5.607h7.385v4.582h2.803    v5.609h-2.803v4.58h-16.829v3.738h-11.029V311.215" style="&st1;" />
	<path d="M399.411,311.215v-5.609" style="&st2;" />
	<path d="M392.026,301.023h-2.807" style="&st2;" />
	<path d="M371.553,305.605v5.609" style="&st2;" />
	<path d="M402.214,323.273h-33.466" style="&st1;" />
	<path d="M402.214,291.676h-33.466" style="&st1;" />
	<path d="M405.953,319.533v-24.117" style="&st1;" />
	<path d="M365.007,319.533v-24.117" style="&st1;" />
	<path d="M372.859,305.137l8.414,6.545" style="&st2;" />
	<path d="M372.859,311.682l8.414-6.545" style="&st2;" />
	<path d="M375.88,188.302l8.414,6.545" style="&st2;" />
	<path d="M375.88,194.847l8.414-6.545" style="&st2;" />
	<path d="M377.06,326.917c-2.065,0-3.739,1.674-3.739,3.74" style="&st1;" />
	<path d="M414.267,330.657c0-2.066-1.675-3.742-3.741-3.742" style="&st1;" />
	<path d="M410.525,358.515c2.065,0,3.74-1.674,3.74-3.74" style="&st1;" />
	<path d="M373.32,354.774c0,2.066,1.674,3.74,3.739,3.74" style="&st1;" />
	<path d="M398,351.597h8.414v-19.631H398V351.597" style="&st2;" />
	<path d="M398,345.054h8.414" style="&st2;" />
	<path d="M398,338.509h8.414" style="&st2;" />
	<path d="M381.173,347.858h14.957v-12.154h-14.957V347.858" style="&st2;" />
	<path d="M388.651,347.858v-12.154" style="&st2;" />
	<path d="M407.721,338.976h2.805v5.609h-2.805v8.32h-11.029v-3.738h-6.638v5.607h-2.807v-5.607h-7.385v-4.582h-2.803    v-5.609h2.803v-4.58h16.829v-3.738h11.029V338.976" style="&st1;" />
	<path d="M379.862,338.976v5.609" style="&st2;" />
	<path d="M387.247,349.167h2.807" style="&st2;" />
	<path d="M407.721,344.585v-5.609" style="&st2;" />
	<path d="M377.06,326.917h33.466" style="&st1;" />
	<path d="M377.06,358.515h33.466" style="&st1;" />
	<path d="M373.32,330.657v24.117" style="&st1;" />
	<path d="M414.267,330.657v24.117" style="&st1;" />
	<path d="M398,338.509l8.414,6.545" style="&st2;" />
	<path d="M398,345.054l8.414-6.545" style="&st2;" />
	<path d="M189.088,273.963c0,2.066,1.674,3.74,3.74,3.74" style="&st1;" />
	<path d="M192.829,236.756c-2.066,0-3.742,1.676-3.742,3.742" style="&st1;" />
	<path d="M220.686,240.499c0-2.066-1.674-3.74-3.74-3.74" style="&st1;" />
	<path d="M216.946,277.704c2.066,0,3.74-1.674,3.74-3.74" style="&st1;" />
	<path d="M213.768,253.024v-8.414h-19.631v8.414H213.768" style="&st2;" />
	<path d="M207.225,253.024v-8.414" style="&st2;" />
	<path d="M200.68,253.024v-8.414" style="&st2;" />
	<path d="M210.03,269.85v-14.957h-12.154v14.957H210.03" style="&st2;" />
	<path d="M210.03,262.372h-12.154" style="&st2;" />
	<path d="M201.147,243.303v-2.805h5.609v2.805h8.32v11.029h-3.738v6.637h5.607v2.807h-5.607v7.385h-4.582v2.803    h-5.609v-2.803h-4.58v-16.828h-3.738v-11.029H201.147" style="&st1;" />
	<path d="M201.147,271.161h5.609" style="&st2;" />
	<path d="M211.338,263.776v-2.807" style="&st2;" />
	<path d="M206.756,243.303h-5.609" style="&st2;" />
	<path d="M189.088,273.963v-33.465" style="&st1;" />
	<path d="M220.686,273.963v-33.465" style="&st1;" />
	<path d="M192.829,277.704h24.117" style="&st1;" />
	<path d="M192.829,236.756h24.117" style="&st1;" />
	<path d="M207.225,244.61l-6.545,8.414" style="&st2;" />
	<path d="M200.68,244.61l6.545,8.414" style="&st2;" />
	<path d="M250.305,253.024v-8.414h-19.631v8.414H250.305" style="&st2;" />
	<path d="M243.762,253.024v-8.414" style="&st2;" />
	<path d="M237.217,253.024v-8.414" style="&st2;" />
	<path d="M246.567,269.85v-14.957h-12.154v14.957H246.567" style="&st2;" />
	<path d="M246.567,262.372h-12.154" style="&st2;" />
	<path d="M237.684,243.303v-2.805h5.609v2.805h8.32v11.029h-3.738v6.637h5.607v2.807h-5.607v7.385h-4.582v2.803    h-5.609v-2.803h-4.58v-16.828h-3.738v-11.029H237.684" style="&st1;" />
	<path d="M237.684,271.161h5.609" style="&st2;" />
	<path d="M247.875,263.776v-2.807" style="&st2;" />
	<path d="M243.293,243.303h-5.609" style="&st2;" />
	<path d="M243.762,244.61l-6.545,8.414" style="&st2;" />
	<path d="M237.217,244.61l6.545,8.414" style="&st2;" />
	<path d="M189.088,327.743c0,2.066,1.674,3.74,3.74,3.74" style="&st1;" />
	<path d="M192.829,290.536c-2.066,0-3.742,1.676-3.742,3.742" style="&st1;" />
	<path d="M220.686,294.278c0-2.066-1.674-3.74-3.74-3.74" style="&st1;" />
	<path d="M216.946,331.483c2.066,0,3.74-1.674,3.74-3.74" style="&st1;" />
	<path d="M213.768,306.804v-8.414h-19.631v8.414H213.768" style="&st2;" />
	<path d="M207.225,306.804v-8.414" style="&st2;" />
	<path d="M200.68,306.804v-8.414" style="&st2;" />
	<path d="M210.03,323.629v-14.957h-12.154v14.957H210.03" style="&st2;" />
	<path d="M210.03,316.151h-12.154" style="&st2;" />
	<path d="M201.147,297.083v-2.805h5.609v2.805h8.32v11.029h-3.738v6.636h5.607v2.807h-5.607v7.385h-4.582v2.803    h-5.609v-2.803h-4.58v-16.828h-3.738v-11.029H201.147" style="&st1;" />
	<path d="M201.147,324.94h5.609" style="&st2;" />
	<path d="M211.338,317.555v-2.807" style="&st2;" />
	<path d="M206.756,297.083h-5.609" style="&st2;" />
	<path d="M189.088,327.743v-33.465" style="&st1;" />
	<path d="M220.686,327.743v-33.465" style="&st1;" />
	<path d="M192.829,331.483h24.117" style="&st1;" />
	<path d="M192.829,290.536h24.117" style="&st1;" />
	<path d="M207.225,298.39l-6.545,8.414" style="&st2;" />
	<path d="M200.68,298.39l6.545,8.414" style="&st2;" />
	<path d="M225.625,327.743c0,2.066,1.674,3.74,3.74,3.74" style="&st1;" />
	<path d="M229.366,290.536c-2.066,0-3.742,1.676-3.742,3.742" style="&st1;" />
	<path d="M257.223,294.278c0-2.066-1.673-3.74-3.74-3.74" style="&st1;" />
	<path d="M253.483,331.483c2.066,0,3.74-1.674,3.74-3.74" style="&st1;" />
	<path d="M250.305,306.804v-8.414h-19.631v8.414H250.305" style="&st2;" />
	<path d="M243.762,306.804v-8.414" style="&st2;" />
	<path d="M237.217,306.804v-8.414" style="&st2;" />
	<path d="M246.567,323.629v-14.957h-12.154v14.957H246.567" style="&st2;" />
	<path d="M246.567,316.151h-12.154" style="&st2;" />
	<path d="M237.684,297.083v-2.805h5.609v2.805h8.32v11.029h-3.738v6.636h5.607v2.807h-5.607v7.385h-4.582v2.803    h-5.609v-2.803h-4.58v-16.828h-3.738v-11.029H237.684" style="&st1;" />
	<path d="M237.684,324.94h5.609" style="&st2;" />
	<path d="M247.875,317.555v-2.807" style="&st2;" />
	<path d="M243.293,297.083h-5.609" style="&st2;" />
	<path d="M225.625,327.743v-33.465" style="&st1;" />
	<path d="M257.223,327.743v-33.465" style="&st1;" />
	<path d="M229.366,331.483h24.117" style="&st1;" />
	<path d="M229.366,290.536h24.117" style="&st1;" />
	<path d="M243.762,298.39l-6.545,8.414" style="&st2;" />
	<path d="M237.217,298.39l6.545,8.414" style="&st2;" />
	<path d="M189.088,377.349c0,2.066,1.674,3.74,3.74,3.74" style="&st1;" />
	<path d="M192.829,340.144c-2.066,0-3.742,1.676-3.742,3.742" style="&st1;" />
	<path d="M220.686,343.886c0-2.066-1.674-3.74-3.74-3.74" style="&st1;" />
	<path d="M216.946,381.089c2.066,0,3.74-1.674,3.74-3.74" style="&st1;" />
	<path d="M213.768,356.411v-8.414h-19.631v8.414H213.768" style="&st2;" />
	<path d="M207.225,356.411v-8.414" style="&st2;" />
	<path d="M200.68,356.411v-8.414" style="&st2;" />
	<path d="M210.03,373.235v-14.957h-12.154v14.957H210.03" style="&st2;" />
	<path d="M210.03,365.757h-12.154" style="&st2;" />
	<path d="M201.147,346.69v-2.805h5.609v2.805h8.32v11.029h-3.738v6.635h5.607v2.807h-5.607v7.385h-4.582v2.803    h-5.609v-2.803h-4.58V357.72h-3.738V346.69H201.147" style="&st1;" />
	<path d="M201.147,374.546h5.609" style="&st2;" />
	<path d="M211.338,367.161v-2.807" style="&st2;" />
	<path d="M206.756,346.69h-5.609" style="&st2;" />
	<path d="M189.088,377.349v-33.463" style="&st1;" />
	<path d="M220.686,377.349v-33.463" style="&st1;" />
	<path d="M192.829,381.089h24.117" style="&st1;" />
	<path d="M192.829,340.144h24.117" style="&st1;" />
	<path d="M207.225,347.997l-6.545,8.414" style="&st2;" />
	<path d="M200.68,347.997l6.545,8.414" style="&st2;" />
	<path d="M225.625,377.349c0,2.066,1.674,3.74,3.74,3.74" style="&st1;" />
	<path d="M229.366,340.144c-2.066,0-3.742,1.676-3.742,3.742" style="&st1;" />
	<path d="M257.223,343.886c0-2.066-1.673-3.74-3.74-3.74" style="&st1;" />
	<path d="M253.483,381.089c2.066,0,3.74-1.674,3.74-3.74" style="&st1;" />
	<path d="M250.305,356.411v-8.414h-19.631v8.414H250.305" style="&st2;" />
	<path d="M243.762,356.411v-8.414" style="&st2;" />
	<path d="M237.217,356.411v-8.414" style="&st2;" />
	<path d="M246.567,373.235v-14.957h-12.154v14.957H246.567" style="&st2;" />
	<path d="M246.567,365.757h-12.154" style="&st2;" />
	<path d="M237.684,346.69v-2.805h5.609v2.805h8.32v11.029h-3.738v6.635h5.607v2.807h-5.607v7.385h-4.582v2.803    h-5.609v-2.803h-4.58V357.72h-3.738V346.69H237.684" style="&st1;" />
	<path d="M237.684,374.546h5.609" style="&st2;" />
	<path d="M247.875,367.161v-2.807" style="&st2;" />
	<path d="M243.293,346.69h-5.609" style="&st2;" />
	<path d="M225.625,377.349v-33.463" style="&st1;" />
	<path d="M257.223,377.349v-33.463" style="&st1;" />
	<path d="M229.366,381.089h24.117" style="&st1;" />
	<path d="M229.366,340.144h24.117" style="&st1;" />
	<path d="M243.762,347.997l-6.545,8.414" style="&st2;" />
	<path d="M237.217,347.997l6.545,8.414" style="&st2;" />
	<path d="M273.266,175.021h60.225" style="&st3;" />
	<path d="M87.208,166.192h173.907" style="&st3;" />
	<path d="M352.509,212.308h49.131" style="&st3;" />
	<path d="M358.655,287.503h54.031" style="&st3;" />
	<path d="M238.977,428.843h76.958" style="&st3;" />
	<path d="M261.115,322.187v106.656" style="&st3;" />
	<path d="M261.115,341.292h44.945" style="&st3;" />
	<path d="M261.115,383.757h47.907" style="&st3;" />
	<g>
	</g>
	<g>
	</g>
	<g>
	</g>
	<g>
	</g>
	<g>
	</g>
	<g>
	</g>
	<g>
	</g>
	<g>
	</g>
	<g>
	</g>
	<g>
	</g>
	<g>
	</g>
	<g>
	</g>
	<g>
	</g>
	<g>
	</g>
	<g>
	</g>
	<g>
	</g>
	<g>
	</g>
	<g>
	</g>
	<g>
	</g>
	<g>
	</g>
	<g>
	</g>
	<g>
	</g>
	<g>
	</g>
	<g>
	</g>
	<g>
	</g>
	<g>
	</g>
	<g>
	</g>
	<g>
	</g>
	<g>
	</g>
	<g>
	</g>
	<g>
	</g>
	<g>
	</g>
	<path d="M157.551,526.575c0,2.205-1.788,3.994-3.993,3.994s-3.993-1.789-3.993-3.994s1.788-3.992,3.993-3.992    S157.551,524.37,157.551,526.575z" style="&st2;" />
	<path d="M228.604,526.575c0,2.205-1.788,3.994-3.993,3.994s-3.993-1.789-3.993-3.994s1.788-3.992,3.993-3.992    S228.604,524.37,228.604,526.575z" style="&st2;" />
	<g>
	</g>
	<g>
	</g>
	<path d="M381.94,470.659v7.934" style="&st2;" />
	<path d="M397.805,470.659v7.934" style="&st2;" />
	<path d="M405.736,470.659h-31.728v7.934h31.728V470.659" style="&st1;" />
	<path d="M381.94,486.509v7.932" style="&st2;" />
	<path d="M397.805,486.509v7.932" style="&st2;" />
	<path d="M405.736,486.509h-31.728v7.932h31.728V486.509" style="&st1;" />
	<path d="M381.94,486.509v7.934" style="&st2;" />
	<path d="M397.805,486.509v7.934" style="&st2;" />
	<path d="M405.736,486.509h-31.728v7.934h31.728V486.509" style="&st1;" />
	<g>
	</g>
	<g>
	</g>
	<g>
	</g>
	<g>
	</g>
	<g>
	</g>
	<g>
	</g>
	<path d="M400.825,385.78h-9.494v-12.867h9.494V385.78z" style="&st2;" />
	<path d="M387.494,385.78h-9.493v-12.867h9.493V385.78" style="&st2;" />
	<path d="M404.815,388.999h-30.807v-19.305h30.807V388.999" style="&st1;" />
	<path d="M400.824,414.62h-9.493v-12.867h9.493V414.62" style="&st2;" />
	<path d="M387.494,414.62h-9.493v-12.867h9.493V414.62" style="&st2;" />
	<path d="M404.815,417.839h-30.807v-19.305h30.807V417.839" style="&st1;" />
	<path d="M400.824,443.46h-9.493v-12.867h9.493V443.46" style="&st2;" />
	<path d="M387.494,443.46h-9.493v-12.867h9.493V443.46" style="&st2;" />
	<path d="M404.815,446.679h-30.807v-19.305h30.807V446.679" style="&st1;" />
	<g>
	</g>
	<g>
	</g>
	<g>
	</g>
	<path d="M219.429,568.356v5.523h14.73v-5.523H219.429" style="&st2;" />
	<path d="M231.951,557.308c0.711,0,1.289-0.576,1.289-1.289" style="&st14;" />
	<path d="M219.429,556.019c0,0.713,0.576,1.289,1.289,1.289" style="&st14;" />
	<path d="M230.477,556.019c0,0.713,0.577,1.289,1.289,1.289" style="&st14;" />
	<path d="M220.902,557.308c0.713,0,1.289-0.576,1.289-1.289" style="&st14;" />
	<path d="M219.429,549.942v6.076" style="&st14;" />
	<path d="M214.826,557.308h1.841" style="&st14;" />
	<path d="M233.24,549.942v6.076" style="&st14;" />
	<path d="M222.191,549.942v6.076" style="&st14;" />
	<path d="M231.766,557.308h0.185" style="&st14;" />
	<path d="M230.477,549.942v6.076" style="&st14;" />
	<path d="M236.922,557.308h1.841" style="&st14;" />
	<path d="M216.667,549.942v7.365" style="&st14;" />
	<path d="M236.922,557.308v-7.365h-3.683" style="&st14;" />
	<path d="M214.826,557.308v20.256h23.938v-20.256" style="&st14;" />
	<path d="M216.667,549.942h2.763" style="&st14;" />
	<path d="M220.718,557.308h0.184" style="&st14;" />
	<path d="M222.191,549.942h8.286" style="&st14;" />
	<path d="M238.763,579.403c1.017,0,1.842-0.824,1.842-1.84" style="&st0;" />
	<path d="M214.826,548.101c-1.017,0-1.842,0.824-1.842,1.842" style="&st0;" />
	<path d="M212.984,577.563c0,1.016,0.825,1.84,1.842,1.84" style="&st0;" />
	<path d="M240.605,549.942c0-1.018-0.825-1.842-1.842-1.842" style="&st0;" />
	<path d="M214.826,579.403h23.938" style="&st0;" />
	<path d="M212.984,549.942v27.621" style="&st0;" />
	<path d="M214.826,548.101h23.938" style="&st0;" />
	<path d="M240.605,549.942v27.621" style="&st0;" />
	<path d="M161.435,450.888c0-0.711-0.577-1.289-1.289-1.289" style="&st14;" />
	<path d="M160.146,463.409c0.712,0,1.289-0.576,1.289-1.289" style="&st14;" />
	<path d="M160.146,452.36c0.712,0,1.289-0.576,1.289-1.289" style="&st14;" />
	<path d="M161.435,461.937c0-0.713-0.577-1.289-1.289-1.289" style="&st14;" />
	<path d="M154.069,463.409h6.076" style="&st14;" />
	<path d="M161.435,468.013v-1.842" style="&st14;" />
	<path d="M154.069,449.599h6.076" style="&st14;" />
	<path d="M154.069,460.647h6.076" style="&st14;" />
	<path d="M161.435,451.071v-0.184" style="&st14;" />
	<path d="M154.069,452.36h6.076" style="&st14;" />
	<path d="M161.435,445.915v-1.84" style="&st14;" />
	<path d="M154.069,466.171h7.365" style="&st14;" />
	<path d="M172.483,463.409h5.523v-14.73h-5.523V463.409" style="&st2;" />
	<path d="M161.435,445.915h-7.365v3.684" style="&st14;" />
	<path d="M161.435,468.013h20.255v-23.938h-20.255" style="&st14;" />
	<path d="M154.069,466.171v-2.762" style="&st14;" />
	<path d="M161.435,462.12v-0.184" style="&st14;" />
	<path d="M154.069,460.647v-8.287" style="&st14;" />
	<path d="M183.53,444.075c0-1.018-0.824-1.842-1.841-1.842" style="&st0;" />
	<path d="M152.228,468.013c0,1.016,0.824,1.842,1.842,1.842" style="&st0;" />
	<path d="M181.689,469.854c1.017,0,1.841-0.826,1.841-1.842" style="&st0;" />
	<path d="M154.069,442.233c-1.018,0-1.842,0.824-1.842,1.842" style="&st0;" />
	<path d="M183.53,468.013v-23.938" style="&st0;" />
	<path d="M154.069,469.854h27.62" style="&st0;" />
	<path d="M152.228,468.013v-23.938" style="&st0;" />
	<path d="M154.069,442.233h27.62" style="&st0;" />
	<g>
	</g>
	<g>
	</g>
	<path d="M394.573,522.028c0,0.711,0.577,1.289,1.289,1.289" style="&st14;" />
	<path d="M395.862,509.507c-0.712,0-1.289,0.576-1.289,1.289" style="&st14;" />
	<path d="M395.862,520.556c-0.712,0-1.289,0.576-1.289,1.289" style="&st14;" />
	<path d="M394.573,510.979c0,0.713,0.577,1.289,1.289,1.289" style="&st14;" />
	<path d="M401.938,509.507h-6.076" style="&st14;" />
	<path d="M394.573,504.903v1.842" style="&st14;" />
	<path d="M401.938,523.317h-6.076" style="&st14;" />
	<path d="M401.938,512.269h-6.076" style="&st14;" />
	<path d="M394.573,521.845v0.184" style="&st14;" />
	<path d="M401.938,520.556h-6.076" style="&st14;" />
	<path d="M394.573,527.001v1.84" style="&st14;" />
	<path d="M401.938,506.745h-7.365" style="&st14;" />
	<path d="M383.524,509.507h-5.523v14.73h5.523V509.507" style="&st2;" />
	<path d="M394.573,527.001h7.365v-3.684" style="&st14;" />
	<path d="M394.573,504.903h-20.255v23.938h20.255" style="&st14;" />
	<path d="M401.938,506.745v2.762" style="&st14;" />
	<path d="M394.573,510.796v0.184" style="&st14;" />
	<path d="M401.938,512.269v8.287" style="&st14;" />
	<path d="M372.478,528.841c0,1.018,0.824,1.842,1.841,1.842" style="&st0;" />
	<path d="M403.78,504.903c0-1.016-0.824-1.842-1.842-1.842" style="&st0;" />
	<path d="M374.318,503.062c-1.017,0-1.841,0.826-1.841,1.842" style="&st0;" />
	<path d="M401.938,530.683c1.018,0,1.842-0.824,1.842-1.842" style="&st0;" />
	<path d="M372.478,504.903v23.938" style="&st0;" />
	<path d="M401.938,503.062h-27.62" style="&st0;" />
	<path d="M403.78,504.903v23.938" style="&st0;" />
	<path d="M401.938,530.683h-27.62" style="&st0;" />
	<path d="M40.597,372.537c-1.054,0-1.909,0.854-1.909,1.909" style="&st2;" />
	<path d="M38.688,399.5c0,1.055,0.855,1.909,1.909,1.909" style="&st1;" />
	<path d="M40.597,401.409c1.056,0,1.91-0.854,1.91-1.909" style="&st1;" />
	<path d="M42.507,374.446c0-1.055-0.854-1.909-1.91-1.909" style="&st2;" />
	<path d="M25.091,375.211c-0.295,0-0.534,0.239-0.534,0.534" style="&st2;" />
	<path d="M24.557,377.73c0,0.296,0.239,0.535,0.534,0.535" style="&st2;" />
	<path d="M24.557,398.201c0,0.296,0.239,0.535,0.534,0.535" style="&st2;" />
	<path d="M25.091,395.681c-0.295,0-0.534,0.24-0.534,0.535" style="&st2;" />
	<path d="M50.298,376.738c-0.295,0-0.535,0.239-0.535,0.534" style="&st1;" />
	<path d="M49.763,396.674c0,0.296,0.239,0.535,0.535,0.535" style="&st1;" />
	<path d="M50.298,391.099c-0.295,0-0.535,0.238-0.535,0.534" style="&st1;" />
	<path d="M30.667,374.446c-0.422,0-0.764,0.343-0.764,0.765" style="&st2;" />
	<path d="M30.667,395.681c-0.422,0-0.764,0.342-0.764,0.765" style="&st2;" />
	<path d="M49.763,382.314c0,0.295,0.239,0.534,0.535,0.534" style="&st1;" />
	<path d="M29.904,398.736c0,0.422,0.342,0.764,0.764,0.764" style="&st1;" />
	<path d="M50.527,399.5c0.422,0,0.764-0.342,0.764-0.764" style="&st1;" />
	<path d="M51.291,375.211c0-0.422-0.342-0.765-0.764-0.765" style="&st2;" />
	<path d="M51.291,353.212c0-0.422-0.342-0.764-0.764-0.764" style="&st1;" />
	<path d="M50.527,365.662c0.422,0,0.764-0.341,0.764-0.764" style="&st1;" />
	<path d="M51.291,363.524c0-0.423-0.342-0.765-0.764-0.765" style="&st1;" />
	<path d="M30.667,352.448c-0.422,0-0.764,0.342-0.764,0.764" style="&st1;" />
	<path d="M30.667,362.76c-0.422,0-0.764,0.342-0.764,0.765" style="&st1;" />
	<path d="M29.904,364.898c0,0.423,0.342,0.764,0.764,0.764" style="&st1;" />
	<path d="M29.904,360.927c0,0.422,0.342,0.764,0.764,0.764" style="&st1;" />
	<path d="M30.667,366.732c-0.422,0-0.764,0.341-0.764,0.764" style="&st1;" />
	<path d="M30.667,357.337c-0.422,0-0.764,0.342-0.764,0.764" style="&st1;" />
	<path d="M29.904,370.322c0,0.422,0.342,0.763,0.764,0.763" style="&st1;" />
	<path d="M25.091,398.736h-3.185l-1.933-2.898v-17.729l1.933-2.897h3.185" style="&st1;" />
	<path d="M25.091,395.681h-2.368l-1.222-1.833v-13.749l1.222-1.833h2.368" style="&st2;" />
	<path d="M51.291,382.849h-0.993" style="&st1;" />
	<path d="M49.763,382.314v-5.042" style="&st1;" />
	<path d="M51.291,376.738v-3.056" style="&st1;" />
	<path d="M50.298,391.099h0.993" style="&st1;" />
	<path d="M51.291,397.209v1.527" style="&st1;" />
	<path d="M29.904,392.32v-10.694" style="&st2;" />
	<path d="M38.688,374.446h3.819" style="&st2;" />
	<path d="M38.688,399.5h3.819" style="&st2;" />
	<path d="M38.306,399.5h0.381" style="&st1;" />
	<path d="M30.667,395.681h2.291" style="&st2;" />
	<path d="M24.557,377.73v-1.985" style="&st2;" />
	<path d="M24.557,398.201v-1.985" style="&st2;" />
	<path d="M51.291,397.209h-0.993" style="&st1;" />
	<path d="M29.904,392.32H22.57" style="&st2;" />
	<path d="M32.958,395.681v-2.291" style="&st2;" />
	<path d="M51.291,391.099v-8.25" style="&st1;" />
	<path d="M42.507,374.446h8.02" style="&st2;" />
	<path d="M30.667,374.446h8.02" style="&st2;" />
	<path d="M29.904,398.736h-4.813" style="&st1;" />
	<path d="M25.091,375.211h4.813" style="&st1;" />
	<path d="M29.904,395.681v-3.36" style="&st2;" />
	<path d="M22.57,381.626h7.333" style="&st2;" />
	<path d="M25.091,395.681h4.813" style="&st2;" />
	<path d="M29.904,393.39h3.055" style="&st2;" />
	<path d="M49.763,396.674v-5.041" style="&st1;" />
	<path d="M42.507,399.5h8.02" style="&st1;" />
	<path d="M30.667,399.5h7.639" style="&st1;" />
	<path d="M29.904,398.736v-2.291" style="&st2;" />
	<path d="M50.298,376.738h0.993" style="&st1;" />
	<path d="M26.925,378.266h-1.833" style="&st2;" />
	<path d="M34.487,397.973h12.984v-21.998H34.487V397.973" style="&st2;" />
	<path d="M22.57,392.32v-10.694" style="&st2;" />
	<path d="M22.57,390.028h6.111" style="&st2;" />
	<path d="M22.57,383.918h6.111" style="&st2;" />
	<path d="M24.557,392.32v-10.694" style="&st2;" />
	<path d="M26.084,390.028v-6.11" style="&st2;" />
	<path d="M26.925,381.626v-3.36" style="&st2;" />
	<path d="M51.291,368.795h-1.833" style="&st2;" />
	<path d="M49.458,371.085v2.598" style="&st1;" />
	<path d="M49.458,373.683h1.833" style="&st1;" />
	<path d="M49.458,359.628h1.833" style="&st2;" />
	<path d="M51.291,354.74v-1.528" style="&st1;" />
	<path d="M51.291,354.74h-1.833" style="&st1;" />
	<path d="M49.458,366.732h1.833" style="&st1;" />
	<path d="M49.458,361.69h1.833" style="&st1;" />
	<path d="M49.458,371.085h1.833" style="&st1;" />
	<path d="M51.291,366.732v4.353" style="&st1;" />
	<path d="M51.291,357.337v4.354" style="&st1;" />
	<path d="M51.291,363.524v1.374" style="&st1;" />
	<path d="M49.458,365.662h1.069" style="&st1;" />
	<path d="M49.458,362.76h1.069" style="&st1;" />
	<path d="M49.458,361.69v-2.063" style="&st2;" />
	<path d="M49.458,362.76v-1.069" style="&st1;" />
	<path d="M49.458,368.795v-2.063" style="&st2;" />
	<path d="M49.458,366.732v-1.07" style="&st1;" />
	<path d="M49.458,365.662v-2.902" style="&st2;" />
	<path d="M49.458,357.337h1.833" style="&st1;" />
	<path d="M49.458,357.337v-2.597" style="&st1;" />
	<path d="M32.5,362.76h-1.833" style="&st1;" />
	<path d="M32.5,366.732v-1.07" style="&st1;" />
	<path d="M29.904,375.211v-1.528" style="&st1;" />
	<path d="M29.904,363.524v1.374" style="&st1;" />
	<path d="M32.5,357.337h-1.833" style="&st1;" />
	<path d="M32.5,362.76v-1.069" style="&st1;" />
	<path d="M29.904,354.74v-1.528" style="&st1;" />
	<path d="M29.904,367.496v2.826" style="&st1;" />
	<path d="M32.5,365.662h-1.833" style="&st1;" />
	<path d="M32.5,357.337v-2.597" style="&st1;" />
	<path d="M32.5,365.662v-2.902" style="&st2;" />
	<path d="M32.5,359.628h-2.597" style="&st2;" />
	<path d="M32.5,371.085h-1.833" style="&st1;" />
	<path d="M29.904,358.101v2.826" style="&st1;" />
	<path d="M29.904,354.74H32.5" style="&st1;" />
	<path d="M29.904,368.795H32.5" style="&st2;" />
	<path d="M32.5,373.683h-2.597" style="&st1;" />
	<path d="M32.5,361.69v-2.063" style="&st2;" />
	<path d="M32.5,368.795v-2.063" style="&st2;" />
	<path d="M32.5,371.085v2.598" style="&st1;" />
	<path d="M32.5,366.732h-1.833" style="&st1;" />
	<path d="M32.5,361.69h-1.833" style="&st1;" />
	<path d="M30.667,352.448h19.859" style="&st1;" />
	<path d="M34.632,644.856c0,0.423,0.342,0.765,0.765,0.765" style="&st2;" />
	<path d="M49.226,648.681c0.747,0,1.386-0.319,1.835-0.918" style="&st1;" />
	<path d="M52.667,626.5c0-0.845-0.685-1.53-1.529-1.53" style="&st1;" />
	<path d="M28.833,624.97c-0.845,0-1.529,0.686-1.529,1.53" style="&st1;" />
	<path d="M44.575,645.621c0.423,0,0.766-0.342,0.766-0.765" style="&st2;" />
	<path d="M30.364,645.621c0.422,0,0.765-0.342,0.765-0.765" style="&st2;" />
	<path d="M48.843,644.856c0,0.423,0.343,0.765,0.765,0.765" style="&st2;" />
	<path d="M36.926,634.913c0,0.423,0.343,0.766,0.765,0.766" style="&st2;" />
	<path d="M30.5,648.178c0.425,0.341,0.89,0.503,1.434,0.503" style="&st1;" />
	<path d="M42.281,635.679c0.422,0,0.765-0.343,0.765-0.766" style="&st2;" />
	<path d="M48.843,644.856c0-0.422-0.343-0.765-0.765-0.765" style="&st2;" />
	<path d="M36.926,644.856c0-0.422-0.343-0.765-0.765-0.765" style="&st2;" />
	<path d="M31.893,644.092c-0.422,0-0.765,0.343-0.765,0.765" style="&st2;" />
	<path d="M54.197,635.296c0-1.028-0.58-1.9-1.529-2.295" style="&st1;" />
	<path d="M43.81,644.092c-0.422,0-0.765,0.343-0.765,0.765" style="&st2;" />
	<path d="M27.304,633.001c-1.268,0.528-1.866,1.983-1.339,3.251" style="&st1;" />
	<path d="M25.965,636.252c0.263,0.63,0.709,1.076,1.339,1.339" style="&st1;" />
	<path d="M52.667,637.591c0.949-0.396,1.529-1.267,1.529-2.295" style="&st1;" />
	<path d="M30.364,645.621h5.033" style="&st2;" />
	<path d="M28.833,617.448l3.952-3.951" style="&st1;" />
	<path d="M32.337,635.679v4.589h15.297v-4.589H32.337" style="&st2;" />
	<path d="M44.575,645.621h5.033" style="&st2;" />
	<path d="M34.632,621.91v-4.589H45.34v7.648" style="&st2;" />
	<path d="M28.833,624.97v-3.06" style="&st1;" />
	<path d="M52.667,637.591v-4.59" style="&st2;" />
	<path d="M31.125,621.91h3.508" style="&st2;" />
	<path d="M34.632,618.852H45.34" style="&st2;" />
	<path d="M36.162,621.146h7.648" style="&st2;" />
	<path d="M45.34,627.265v6.884H34.632" style="&st2;" />
	<path d="M48.847,621.146h2.291" style="&st2;" />
	<path d="M48.847,618.402v6.567" style="&st2;" />
	<path d="M49.608,645.621h3.06" style="&st2;" />
	<path d="M36.162,617.321v6.119h7.648v-6.119" style="&st2;" />
	<path d="M28.833,620.381h2.291" style="&st2;" />
	<path d="M52.667,633.001V626.5" style="&st1;" />
	<path d="M51.138,624.97H28.833" style="&st2;" />
	<path d="M52.667,645.621v-8.03" style="&st1;" />
	<path d="M48.399,624.97v4.589H45.34" style="&st2;" />
	<path d="M27.304,626.5v6.501" style="&st1;" />
	<path d="M34.632,624.97v-3.06" style="&st2;" />
	<path d="M45.34,644.092v0.765" style="&st2;" />
	<path d="M34.632,644.092v0.765" style="&st2;" />
	<path d="M28.833,617.448v4.462" style="&st1;" />
	<path d="M43.81,644.092h4.269" style="&st2;" />
	<path d="M43.045,645.621v-0.765" style="&st2;" />
	<path d="M36.926,644.856v0.765" style="&st2;" />
	<path d="M31.893,644.092h4.269" style="&st2;" />
	<path d="M51.138,617.448v7.521" style="&st1;" />
	<path d="M27.304,633.001v4.59" style="&st2;" />
	<path d="M31.125,618.402v3.508" style="&st2;" />
	<path d="M35.397,645.621h9.178" style="&st2;" />
	<path d="M31.125,618.402l2.611-2.61" style="&st2;" />
	<path d="M43.045,634.148v0.765" style="&st2;" />
	<path d="M37.691,635.679h4.59" style="&st2;" />
	<path d="M46.236,615.792l2.611,2.61" style="&st2;" />
	<path d="M45.34,627.265v-2.295" style="&st2;" />
	<path d="M27.304,637.591v8.03" style="&st1;" />
	<path d="M36.926,634.148v0.765" style="&st2;" />
	<path d="M34.632,629.559v4.59" style="&st2;" />
	<path d="M27.304,645.621l3.195,2.557" style="&st1;" />
	<path d="M31.933,648.681h17.293" style="&st1;" />
	<path d="M43.81,631.089h-7.648" style="&st2;" />
	<path d="M36.162,629.559v3.061h7.648v-3.061H36.162" style="&st2;" />
	<path d="M52.667,645.621l-1.606,2.142" style="&st1;" />
	<path d="M34.632,646.387v1.529H45.34v-1.529H34.632" style="&st2;" />
	<path d="M27.304,645.621h3.06" style="&st2;" />
	<path d="M34.632,629.559h-3.825" style="&st2;" />
	<path d="M30.807,629.559v-2.294H45.34" style="&st2;" />
	<path d="M33.736,615.792h12.5" style="&st2;" />
	<path d="M32.786,613.497h14.4" style="&st1;" />
	<path d="M47.186,613.497l3.952,3.951" style="&st1;" />
	<path d="M468.906,510.385c-0.423,0-0.765,0.342-0.765,0.766" style="&st2;" />
	<path d="M465.082,524.979c0,0.748,0.319,1.387,0.918,1.836" style="&st1;" />
	<path d="M487.263,528.42c0.845,0,1.53-0.684,1.53-1.529" style="&st1;" />
	<path d="M488.793,504.586c0-0.844-0.686-1.529-1.53-1.529" style="&st1;" />
	<path d="M468.142,520.328c0,0.422,0.342,0.766,0.765,0.766" style="&st2;" />
	<path d="M468.142,506.117c0,0.422,0.342,0.764,0.765,0.764" style="&st2;" />
	<path d="M468.906,524.596c-0.423,0-0.765,0.344-0.765,0.766" style="&st2;" />
	<path d="M478.85,512.68c-0.423,0-0.766,0.342-0.766,0.764" style="&st2;" />
	<path d="M465.585,506.252c-0.341,0.426-0.503,0.891-0.503,1.434" style="&st1;" />
	<path d="M478.084,518.033c0,0.422,0.343,0.766,0.766,0.766" style="&st2;" />
	<path d="M468.906,524.596c0.422,0,0.765-0.342,0.765-0.764" style="&st2;" />
	<path d="M468.906,512.68c0.422,0,0.765-0.344,0.765-0.766" style="&st2;" />
	<path d="M469.671,507.646c0-0.422-0.343-0.766-0.765-0.766" style="&st2;" />
	<path d="M478.467,529.949c1.028,0,1.9-0.58,2.295-1.529" style="&st1;" />
	<path d="M469.671,519.563c0-0.422-0.343-0.764-0.765-0.764" style="&st2;" />
	<path d="M480.762,503.057c-0.528-1.268-1.983-1.865-3.251-1.338" style="&st1;" />
	<path d="M477.511,501.719c-0.63,0.262-1.076,0.709-1.339,1.338" style="&st1;" />
	<path d="M476.172,528.42c0.396,0.949,1.267,1.529,2.295,1.529" style="&st1;" />
	<path d="M468.142,506.117v5.033" style="&st2;" />
	<path d="M496.314,504.586l3.951,3.953" style="&st1;" />
	<path d="M478.084,508.09h-4.589v15.297h4.589V508.09" style="&st2;" />
	<path d="M468.142,520.328v5.033" style="&st2;" />
	<path d="M491.853,510.385h4.589v10.709h-7.648" style="&st2;" />
	<path d="M488.793,504.586h3.06" style="&st1;" />
	<path d="M476.172,528.42h4.59" style="&st2;" />
	<path d="M491.853,506.877v3.508" style="&st2;" />
	<path d="M494.911,510.385v10.709" style="&st2;" />
	<path d="M492.617,511.914v7.648" style="&st2;" />
	<path d="M486.498,521.094h-6.884v-10.709" style="&st2;" />
	<path d="M492.617,524.6v2.291" style="&st2;" />
	<path d="M495.36,524.6h-6.567" style="&st2;" />
	<path d="M468.142,525.361v3.059" style="&st2;" />
	<path d="M496.441,511.914h-6.119v7.648h6.119" style="&st2;" />
	<path d="M493.382,504.586v2.291" style="&st2;" />
	<path d="M480.762,528.42h6.501" style="&st1;" />
	<path d="M488.793,526.891v-22.305" style="&st2;" />
	<path d="M468.142,528.42h8.03" style="&st1;" />
	<path d="M488.793,524.152h-4.589v-3.059" style="&st2;" />
	<path d="M487.263,503.057h-6.501" style="&st1;" />
	<path d="M488.793,510.385h3.06" style="&st2;" />
	<path d="M469.671,521.094h-0.765" style="&st2;" />
	<path d="M469.671,510.385h-0.765" style="&st2;" />
	<path d="M496.314,504.586h-4.462" style="&st1;" />
	<path d="M469.671,519.563v4.27" style="&st2;" />
	<path d="M468.142,518.799h0.765" style="&st2;" />
	<path d="M468.906,512.68h-0.765" style="&st2;" />
	<path d="M469.671,507.646v4.268" style="&st2;" />
	<path d="M496.314,526.891h-7.521" style="&st1;" />
	<path d="M480.762,503.057h-4.59" style="&st2;" />
	<path d="M495.36,506.877h-3.508" style="&st2;" />
	<path d="M468.142,511.15v9.178" style="&st2;" />
	<path d="M495.36,506.877l2.61,2.611" style="&st2;" />
	<path d="M479.614,518.799h-0.765" style="&st2;" />
	<path d="M478.084,513.443v4.59" style="&st2;" />
	<path d="M497.971,521.988l-2.61,2.611" style="&st2;" />
	<path d="M486.498,521.094h2.295" style="&st2;" />
	<path d="M476.172,503.057h-8.03" style="&st1;" />
	<path d="M479.614,512.68h-0.765" style="&st2;" />
	<path d="M484.204,510.385h-4.59" style="&st2;" />
	<path d="M468.142,503.057l-2.557,3.195" style="&st1;" />
	<path d="M465.082,507.686v17.293" style="&st1;" />
	<path d="M482.674,519.563v-7.648" style="&st2;" />
	<path d="M484.204,511.914h-3.061v7.648h3.061V511.914" style="&st2;" />
	<path d="M468.142,528.42L466,526.814" style="&st1;" />
	<path d="M467.376,510.385h-1.529v10.709h1.529V510.385" style="&st2;" />
	<path d="M468.142,503.057v3.061" style="&st2;" />
	<path d="M484.204,510.385v-3.824" style="&st2;" />
	<path d="M484.204,506.561h2.294v14.533" style="&st2;" />
	<path d="M497.971,509.488v12.5" style="&st2;" />
	<path d="M500.266,508.539v14.4" style="&st1;" />
	<path d="M500.266,522.939l-3.951,3.951" style="&st1;" />
	<path d="M33.944,499.681v2.02" style="&st2;" />
	<path d="M46.6,500.69c0-1.971-1.598-3.569-3.569-3.569" style="&st2;" />
	<path d="M43.031,497.121c-1.971,0-3.569,1.599-3.569,3.569" style="&st2;" />
	<path d="M39.462,500.69c0,1.972,1.598,3.569,3.569,3.569" style="&st2;" />
	<path d="M43.031,504.26c1.971,0,3.569-1.598,3.569-3.569" style="&st2;" />
	<path d="M36.787,502.71c1.115,3.448,4.815,5.34,8.264,4.225" style="&st1;" />
	<path d="M45.05,506.935c3.449-1.115,5.34-4.815,4.225-8.264" style="&st1;" />
	<path d="M49.275,498.671c-1.115-3.448-4.815-5.34-8.263-4.226" style="&st1;" />
	<path d="M41.012,494.445c-2.076,0.672-3.554,2.15-4.226,4.226" style="&st1;" />
	<path d="M36.787,498.671l-0.823,0.505h-2.02v0.505h-12.62" style="&st1;" />
	<path d="M36.787,502.71l-0.823-0.505h-2.02V501.7h-12.62" style="&st1;" />
	<path d="M247.248,639.456v2.02" style="&st2;" />
	<path d="M259.902,640.466c0-1.971-1.598-3.569-3.568-3.569" style="&st2;" />
	<path d="M256.334,636.896c-1.971,0-3.568,1.599-3.568,3.569" style="&st2;" />
	<path d="M252.766,640.466c0,1.972,1.598,3.569,3.568,3.569" style="&st2;" />
	<path d="M256.334,644.035c1.971,0,3.568-1.598,3.568-3.569" style="&st2;" />
	<path d="M250.09,642.485c1.115,3.448,4.814,5.34,8.264,4.225" style="&st1;" />
	<path d="M258.354,646.71c3.449-1.115,5.34-4.815,4.225-8.264" style="&st1;" />
	<path d="M262.578,638.446c-1.115-3.448-4.814-5.34-8.264-4.226" style="&st1;" />
	<path d="M254.314,634.221c-2.074,0.672-3.553,2.15-4.225,4.226" style="&st1;" />
	<path d="M250.09,638.446l-0.822,0.505h-2.02v0.505h-12.621" style="&st1;" />
	<path d="M250.09,642.485l-0.822-0.505h-2.02v-0.505h-12.621" style="&st1;" />
</g>
<g id="キャプション">
	<g>
		<text transform="matrix(1 0 0 1 98.1875 280.5493)"><tspan style="&st13; &st8;" x="0" y="0">STRG LOCK</tspan></text>
	</g>
	<g>
		<text transform="matrix(1 0 0 1 107.5229 296.3984)"><tspan style="&st13; &st8;" x="0" y="0">ETCS</tspan></text>
	</g>
	<g>
		<text transform="matrix(1 0 0 1 110.186 288.1392)"><tspan style="&st13; &st8;" x="0" y="0">20A</tspan></text>
	</g>
	<g>
		<text transform="matrix(1 0 0 1 101.9575 288.1392)"><tspan style="&st13; &st8;" x="0" y="0">2</tspan></text>
	</g>
	<g>
		<text transform="matrix(1 0 0 1 125.7534 288.1392)"><tspan style="&st13; &st8;" x="0" y="0">1</tspan></text>
	</g>
	<g>
		<text transform="matrix(1 0 0 1 111.5156 177.9434)"><tspan style="&st13; &st8;" x="0" y="0">ECU-B NO.2</tspan></text>
	</g>
	<g>
		<text transform="matrix(1 0 0 1 123.708 185.5332)"><tspan style="&st13; &st8;" x="0" y="0">10A</tspan></text>
	</g>
	<g>
		<text transform="matrix(1 0 0 1 115.4795 185.5332)"><tspan style="&st13; &st8;" x="0" y="0">1</tspan></text>
	</g>
	<g>
		<text transform="matrix(1 0 0 1 139.2754 185.5332)"><tspan style="&st13; &st8;" x="0" y="0">2</tspan></text>
	</g>
	<g>
		<text transform="matrix(1 0 0 1 111.5156 193.5498)"><tspan style="&st13; &st8;" x="0" y="0">ECU-B NO.3</tspan></text>
	</g>
	<g>
		<text transform="matrix(1 0 0 1 125.3765 201.1396)"><tspan style="&st13; &st8;" x="0" y="0">5A</tspan></text>
	</g>
	<g>
		<text transform="matrix(1 0 0 1 115.4795 201.1396)"><tspan style="&st13; &st8;" x="0" y="0">1</tspan></text>
	</g>
	<g>
		<text transform="matrix(1 0 0 1 139.2754 201.1396)"><tspan style="&st13; &st8;" x="0" y="0">2</tspan></text>
	</g>
	<g>
		<text transform="matrix(1 0 0 1 149.0557 177.9434)"><tspan style="&st13; &st8;" x="0" y="0">ECU-B NO.1</tspan></text>
	</g>
	<g>
		<text transform="matrix(1 0 0 1 161.248 185.5332)"><tspan style="&st13; &st8;" x="0" y="0">10A</tspan></text>
	</g>
	<g>
		<text transform="matrix(1 0 0 1 153.0195 185.5332)"><tspan style="&st13; &st8;" x="0" y="0">1</tspan></text>
	</g>
	<g>
		<text transform="matrix(1 0 0 1 176.8154 185.5332)"><tspan style="&st13; &st8;" x="0" y="0">2</tspan></text>
	</g>
	<g>
		<text transform="matrix(1 0 0 1 157.2251 193.5498)"><tspan style="&st13; &st8;" x="0" y="0">DOME</tspan></text>
	</g>
	<g>
		<text transform="matrix(1 0 0 1 160.4146 201.1396)"><tspan style="&st13; &st8;" x="0" y="0">7.5A</tspan></text>
	</g>
	<g>
		<text transform="matrix(1 0 0 1 153.0195 201.1396)"><tspan style="&st13; &st8;" x="0" y="0">1</tspan></text>
	</g>
	<g>
		<text transform="matrix(1 0 0 1 176.8154 201.1396)"><tspan style="&st13; &st8;" x="0" y="0">2</tspan></text>
	</g>
	<g>
		<text transform="matrix(1 0 0 1 156.7241 209.1563)"><tspan style="&st13; &st8;" x="0" y="0">RADIO</tspan></text>
	</g>
	<g>
		<text transform="matrix(1 0 0 1 161.248 216.7461)"><tspan style="&st13; &st8;" x="0" y="0">20A</tspan></text>
	</g>
	<g>
		<text transform="matrix(1 0 0 1 153.0195 216.7461)"><tspan style="&st13; &st8;" x="0" y="0">1</tspan></text>
	</g>
	<g>
		<text transform="matrix(1 0 0 1 176.8154 216.7461)"><tspan style="&st13; &st8;" x="0" y="0">2</tspan></text>
	</g>
	<g>
		<text transform="matrix(1 0 0 1 160.2236 236.5732)"><tspan style="&st13; &st8;" x="0" y="0">DRL</tspan></text>
	</g>
	<g>
		<text transform="matrix(1 0 0 1 161.248 244.1631)"><tspan style="&st13; &st8;" x="0" y="0">10A</tspan></text>
	</g>
	<g>
		<text transform="matrix(1 0 0 1 153.0195 244.1631)"><tspan style="&st13; &st8;" x="0" y="0">1</tspan></text>
	</g>
	<g>
		<text transform="matrix(1 0 0 1 176.8154 244.1631)"><tspan style="&st13; &st8;" x="0" y="0">2</tspan></text>
	</g>
	<g>
		<text transform="matrix(1 0 0 1 155.7021 252.1797)"><tspan style="&st13; &st8;" x="0" y="0">S-HORN</tspan></text>
	</g>
	<g>
		<text transform="matrix(1 0 0 1 153.0195 259.7695)"><tspan style="&st13; &st8;" x="0" y="0">1</tspan></text>
	</g>
	<g>
		<text transform="matrix(1 0 0 1 176.8154 259.7695)"><tspan style="&st13; &st8;" x="0" y="0">2</tspan></text>
	</g>
	<g>
		<text transform="matrix(1 0 0 1 161.248 259.7695)"><tspan style="&st13; &st8;" x="0" y="0">10A</tspan></text>
	</g>
	<g>
		<text transform="matrix(1 0 0 1 153.6968 267.7861)"><tspan style="&st13; &st8;" x="0" y="0">ABS NO.2</tspan></text>
	</g>
	<g>
		<text transform="matrix(1 0 0 1 153.0195 275.376)"><tspan style="&st13; &st8;" x="0" y="0">1</tspan></text>
	</g>
	<g>
		<text transform="matrix(1 0 0 1 176.8154 275.376)"><tspan style="&st13; &st8;" x="0" y="0">2</tspan></text>
	</g>
	<g>
		<text transform="matrix(1 0 0 1 161.248 275.376)"><tspan style="&st13; &st8;" x="0" y="0">30A</tspan></text>
	</g>
	<g>
		<text transform="matrix(1 0 0 1 116.5195 226.4717)"><tspan style="&st13; &st8;" x="0" y="0">D/C CUT</tspan></text>
	</g>
	<g>
		<text transform="matrix(1 0 0 1 123.708 234.0615)"><tspan style="&st13; &st8;" x="0" y="0">30A</tspan></text>
	</g>
	<g>
		<text transform="matrix(1 0 0 1 115.4795 234.0615)"><tspan style="&st13; &st8;" x="0" y="0">1</tspan></text>
	</g>
	<g>
		<text transform="matrix(1 0 0 1 139.2754 234.0615)"><tspan style="&st13; &st8;" x="0" y="0">2</tspan></text>
	</g>
	<g>
		<text transform="matrix(1 0 0 1 108.9946 209.1563)"><tspan style="&st13; &st8;" x="0" y="0">AM2</tspan></text>
	</g>
	<g>
		<text transform="matrix(1 0 0 1 109.3525 216.7461)"><tspan style="&st13; &st8;" x="0" y="0">7.5A</tspan></text>
	</g>
	<g>
		<text transform="matrix(1 0 0 1 101.9575 216.7461)"><tspan style="&st13; &st8;" x="0" y="0">2</tspan></text>
	</g>
	<g>
		<text transform="matrix(1 0 0 1 125.7534 216.7461)"><tspan style="&st13; &st8;" x="0" y="0">1</tspan></text>
	</g>
	<g>
		<text transform="matrix(1 0 0 1 106.3301 244.5874)"><tspan style="&st13; &st8;" x="0" y="0">HORN</tspan></text>
	</g>
	<g>
		<text transform="matrix(1 0 0 1 101.9971 260.3501)"><tspan style="&st13; &st8;" x="0" y="0">EFI-MAIN</tspan></text>
	</g>
	<g>
		<text transform="matrix(1 0 0 1 110.186 252.1772)"><tspan style="&st13; &st8;" x="0" y="0">10A</tspan></text>
	</g>
	<g>
		<text transform="matrix(1 0 0 1 101.9575 252.1772)"><tspan style="&st13; &st8;" x="0" y="0">2</tspan></text>
	</g>
	<g>
		<text transform="matrix(1 0 0 1 125.7534 252.1772)"><tspan style="&st13; &st8;" x="0" y="0">1</tspan></text>
	</g>
	<g>
		<text transform="matrix(1 0 0 1 110.186 267.9399)"><tspan style="&st13; &st8;" x="0" y="0">25A</tspan></text>
	</g>
	<g>
		<text transform="matrix(1 0 0 1 101.9575 267.9399)"><tspan style="&st13; &st8;" x="0" y="0">2</tspan></text>
	</g>
	<g>
		<text transform="matrix(1 0 0 1 125.7534 267.9399)"><tspan style="&st13; &st8;" x="0" y="0">1</tspan></text>
	</g>
	<g>
		<text transform="matrix(1 0 0 1 110.186 303.9883)"><tspan style="&st13; &st8;" x="0" y="0">10A</tspan></text>
	</g>
	<g>
		<text transform="matrix(1 0 0 1 101.9575 303.9883)"><tspan style="&st13; &st8;" x="0" y="0">2</tspan></text>
	</g>
	<g>
		<text transform="matrix(1 0 0 1 125.7534 303.9883)"><tspan style="&st13; &st8;" x="0" y="0">1</tspan></text>
	</g>
	<g>
		<text transform="matrix(1 0 0 1 99.1909 312.2476)"><tspan style="&st13; &st8;" x="0" y="0">TURN&amp;HAZ</tspan></text>
	</g>
	<g>
		<text transform="matrix(1 0 0 1 110.186 319.8374)"><tspan style="&st13; &st8;" x="0" y="0">10A</tspan></text>
	</g>
	<g>
		<text transform="matrix(1 0 0 1 101.9575 319.8374)"><tspan style="&st13; &st8;" x="0" y="0">2</tspan></text>
	</g>
	<g>
		<text transform="matrix(1 0 0 1 125.7534 319.8374)"><tspan style="&st13; &st8;" x="0" y="0">1</tspan></text>
	</g>
	<g>
		<text transform="matrix(1 0 0 1 110.3276 328.0967)"><tspan style="&st13; &st8;" x="0" y="0">IG2</tspan></text>
	</g>
	<g>
		<text transform="matrix(1 0 0 1 110.186 335.6865)"><tspan style="&st13; &st8;" x="0" y="0">15A</tspan></text>
	</g>
	<g>
		<text transform="matrix(1 0 0 1 101.9575 335.6865)"><tspan style="&st13; &st8;" x="0" y="0">2</tspan></text>
	</g>
	<g>
		<text transform="matrix(1 0 0 1 125.7534 335.6865)"><tspan style="&st13; &st8;" x="0" y="0">1</tspan></text>
	</g>
	<g>
		<text transform="matrix(1 0 0 1 112.688 351.5361)"><tspan style="&st13; &st8;" x="0" y="0">*4</tspan></text>
	</g>
	<g>
		<text transform="matrix(1 0 0 1 101.9575 351.5361)"><tspan style="&st13; &st8;" x="0" y="0">2</tspan></text>
	</g>
	<g>
		<text transform="matrix(1 0 0 1 125.7534 351.5361)"><tspan style="&st13; &st8;" x="0" y="0">1</tspan></text>
	</g>
	<g>
		<text transform="matrix(0 -1 1 0 274.8955 156.1211)"><tspan style="&st13; &st8;" x="0" y="0">*1</tspan></text>
	</g>
	<g>
		<text transform="matrix(0 -1 1 0 274.8955 143.0557)"><tspan style="&st13; &st8;" x="0" y="0">2</tspan></text>
	</g>
	<g>
		<text transform="matrix(0 -1 1 0 282.8203 166.8516)"><tspan style="&st13; &st8;" x="0" y="0">1</tspan></text>
	</g>
	<g>
		<text transform="matrix(0 -1 1 0 290.7441 156.1211)"><tspan style="&st13; &st8;" x="0" y="0">*2</tspan></text>
	</g>
	<g>
		<text transform="matrix(0 -1 1 0 290.7441 143.0557)"><tspan style="&st13; &st8;" x="0" y="0">2</tspan></text>
	</g>
	<g>
		<text transform="matrix(0 -1 1 0 306.5938 156.1211)"><tspan style="&st13; &st8;" x="0" y="0">*5</tspan></text>
	</g>
	<g>
		<text transform="matrix(0 -1 1 0 306.5938 143.0557)"><tspan style="&st13; &st8;" x="0" y="0">2</tspan></text>
	</g>
	<g>
		<text transform="matrix(0 -1 1 0 314.5186 166.8516)"><tspan style="&st13; &st8;" x="0" y="0">1</tspan></text>
	</g>
	<g>
		<text transform="matrix(0 -1 1 0 322.4434 156.1211)"><tspan style="&st13; &st8;" x="0" y="0">*6</tspan></text>
	</g>
	<g>
		<text transform="matrix(0 -1 1 0 322.4434 143.0557)"><tspan style="&st13; &st8;" x="0" y="0">2</tspan></text>
	</g>
	<g>
		<text transform="matrix(0 -1 1 0 190.416 419.7236)"><tspan style="&st13; &st8;" x="0" y="0">EFI NO.2</tspan></text>
	</g>
	<g>
		<text transform="matrix(0 -1 1 0 198.0059 412.1982)"><tspan style="&st13; &st8;" x="0" y="0">10A</tspan></text>
	</g>
	<g>
		<text transform="matrix(0 -1 1 0 198.0059 396.6299)"><tspan style="&st13; &st8;" x="0" y="0">2</tspan></text>
	</g>
	<g>
		<text transform="matrix(0 -1 1 0 206.2646 413.8994)"><tspan style="&st13; &st8;" x="0" y="0">EFI NO.1</tspan></text>
	</g>
	<g>
		<text transform="matrix(0 -1 1 0 213.8545 412.1982)"><tspan style="&st13; &st8;" x="0" y="0">10A</tspan></text>
	</g>
	<g>
		<text transform="matrix(0 -1 1 0 205.9302 420.4268)"><tspan style="&st13; &st8;" x="0" y="0">1</tspan></text>
	</g>
	<g>
		<text transform="matrix(0 -1 1 0 213.8545 396.6299)"><tspan style="&st13; &st8;" x="0" y="0">2</tspan></text>
	</g>
	<g>
		<text transform="matrix(0 -1 1 0 237.9629 419.7197)"><tspan style="&st13; &st8;" x="0" y="0">MIR HTR</tspan></text>
	</g>
	<g>
		<text transform="matrix(0 -1 1 0 245.5537 412.1982)"><tspan style="&st13; &st8;" x="0" y="0">10A</tspan></text>
	</g>
	<g>
		<text transform="matrix(0 -1 1 0 245.5537 420.4268)"><tspan style="&st13; &st8;" x="0" y="0">1</tspan></text>
	</g>
	<g>
		<text transform="matrix(0 -1 1 0 245.5537 396.6299)"><tspan style="&st13; &st8;" x="0" y="0">2</tspan></text>
	</g>
	<g>
		<text transform="matrix(1 0 0 1 111.3296 375.6455)"><tspan style="&st13; &st8;" x="0" y="0">ST</tspan></text>
	</g>
	<g>
		<text transform="matrix(1 0 0 1 110.186 383.2354)"><tspan style="&st13; &st8;" x="0" y="0">30A</tspan></text>
	</g>
	<g>
		<text transform="matrix(1 0 0 1 101.9575 383.2354)"><tspan style="&st13; &st8;" x="0" y="0">2</tspan></text>
	</g>
	<g>
		<text transform="matrix(1 0 0 1 125.7534 383.2354)"><tspan style="&st13; &st8;" x="0" y="0">1</tspan></text>
	</g>
	<g>
		<text transform="matrix(1 0 0 1 300.4043 284.6348)"><tspan style="&st13; &st8;" x="0" y="0">1</tspan></text>
	</g>
	<g>
		<text transform="matrix(1 0 0 1 271.6113 284.6348)"><tspan style="&st13; &st8;" x="0" y="0">2</tspan></text>
	</g>
	<g>
		<text transform="matrix(1 0 0 1 286.0078 298.6587)"><tspan style="&st13; &st8;" x="0" y="0">3</tspan></text>
	</g>
	<g>
		<text transform="matrix(1 0 0 1 286.0078 270.332)"><tspan style="&st13; &st8;" x="0" y="0">5</tspan></text>
	</g>
	<g>
		<text transform="matrix(1 0 0 1 319.1387 212.7617)"><tspan style="&st13; &st8;" x="0" y="0">1</tspan></text>
	</g>
	<g>
		<text transform="matrix(1 0 0 1 290.3457 212.7617)"><tspan style="&st13; &st8;" x="0" y="0">2</tspan></text>
	</g>
	<g>
		<text transform="matrix(1 0 0 1 304.7422 226.7856)"><tspan style="&st13; &st8;" x="0" y="0">3</tspan></text>
	</g>
	<g>
		<text transform="matrix(1 0 0 1 304.7422 198.459)"><tspan style="&st13; &st8;" x="0" y="0">5</tspan></text>
	</g>
	<g>
		<text transform="matrix(1 0 0 1 395.9355 251.022)"><tspan style="&st13; &st8;" x="0" y="0">1</tspan></text>
	</g>
	<g>
		<text transform="matrix(1 0 0 1 367.1426 251.022)"><tspan style="&st13; &st8;" x="0" y="0">2</tspan></text>
	</g>
	<g>
		<text transform="matrix(1 0 0 1 381.5391 265.0459)"><tspan style="&st13; &st8;" x="0" y="0">3</tspan></text>
	</g>
	<g>
		<text transform="matrix(1 0 0 1 381.5391 236.7192)"><tspan style="&st13; &st8;" x="0" y="0">5</tspan></text>
	</g>
	<g>
		<text transform="matrix(1 0 0 1 224.4453 199.9819)"><tspan style="&st13; &st8;" x="0" y="0">4</tspan></text>
	</g>
	<g>
		<text transform="matrix(1 0 0 1 209.1147 199.9829)"><tspan style="&st13; &st8;" x="0" y="0">3</tspan></text>
	</g>
	<g>
		<text transform="matrix(1 0 0 1 237.4414 199.9824)"><tspan style="&st13; &st8;" x="0" y="0">5</tspan></text>
	</g>
	<g>
		<text transform="matrix(1 0 0 1 223.1372 214.3794)"><tspan style="&st13; &st8;" x="0" y="0">1</tspan></text>
	</g>
	<g>
		<text transform="matrix(1 0 0 1 223.1372 185.5854)"><tspan style="&st13; &st8;" x="0" y="0">2</tspan></text>
	</g>
	<g>
		<text transform="matrix(1 0 0 1 202.2231 268.3335)"><tspan style="&st13; &st8;" x="0" y="0">3</tspan></text>
	</g>
	<g>
		<text transform="matrix(1 0 0 1 202.2231 260.853)"><tspan style="&st13; &st8;" x="0" y="0">5</tspan></text>
	</g>
	<g>
		<text transform="matrix(1 0 0 1 208.7681 251.0366)"><tspan style="&st13; &st8;" x="0" y="0">1</tspan></text>
	</g>
	<g>
		<text transform="matrix(1 0 0 1 195.6802 251.0366)"><tspan style="&st13; &st8;" x="0" y="0">2</tspan></text>
	</g>
	<g>
		<text transform="matrix(1 0 0 1 202.2231 322.1133)"><tspan style="&st13; &st8;" x="0" y="0">3</tspan></text>
	</g>
	<g>
		<text transform="matrix(1 0 0 1 202.2231 314.6328)"><tspan style="&st13; &st8;" x="0" y="0">5</tspan></text>
	</g>
	<g>
		<text transform="matrix(1 0 0 1 208.7681 304.8164)"><tspan style="&st13; &st8;" x="0" y="0">1</tspan></text>
	</g>
	<g>
		<text transform="matrix(1 0 0 1 195.6802 304.8164)"><tspan style="&st13; &st8;" x="0" y="0">2</tspan></text>
	</g>
	<g>
		<text transform="matrix(1 0 0 1 238.7603 322.1133)"><tspan style="&st13; &st8;" x="0" y="0">3</tspan></text>
	</g>
	<g>
		<text transform="matrix(1 0 0 1 238.7603 314.6328)"><tspan style="&st13; &st8;" x="0" y="0">5</tspan></text>
	</g>
	<g>
		<text transform="matrix(1 0 0 1 245.3052 304.8164)"><tspan style="&st13; &st8;" x="0" y="0">1</tspan></text>
	</g>
	<g>
		<text transform="matrix(1 0 0 1 232.2173 304.8164)"><tspan style="&st13; &st8;" x="0" y="0">2</tspan></text>
	</g>
	<g>
		<text transform="matrix(1 0 0 1 202.2231 371.7197)"><tspan style="&st13; &st8;" x="0" y="0">3</tspan></text>
	</g>
	<g>
		<text transform="matrix(1 0 0 1 202.2231 364.2393)"><tspan style="&st13; &st8;" x="0" y="0">5</tspan></text>
	</g>
	<g>
		<text transform="matrix(1 0 0 1 208.7681 354.4229)"><tspan style="&st13; &st8;" x="0" y="0">1</tspan></text>
	</g>
	<g>
		<text transform="matrix(1 0 0 1 195.6802 354.4229)"><tspan style="&st13; &st8;" x="0" y="0">2</tspan></text>
	</g>
	<g>
		<text transform="matrix(1 0 0 1 238.7603 371.7197)"><tspan style="&st13; &st8;" x="0" y="0">3</tspan></text>
	</g>
	<g>
		<text transform="matrix(1 0 0 1 238.7603 364.2393)"><tspan style="&st13; &st8;" x="0" y="0">5</tspan></text>
	</g>
	<g>
		<text transform="matrix(1 0 0 1 245.3052 354.4229)"><tspan style="&st13; &st8;" x="0" y="0">1</tspan></text>
	</g>
	<g>
		<text transform="matrix(1 0 0 1 232.2173 354.4229)"><tspan style="&st13; &st8;" x="0" y="0">2</tspan></text>
	</g>
	<g>
		<text transform="matrix(1 0 0 1 392.9785 310.3198)"><tspan style="&st13; &st8;" x="0" y="0">3</tspan></text>
	</g>
	<g>
		<text transform="matrix(1 0 0 1 385.498 310.3198)"><tspan style="&st13; &st8;" x="0" y="0">5</tspan></text>
	</g>
	<g>
		<text transform="matrix(1 0 0 1 375.6816 303.7749)"><tspan style="&st13; &st8;" x="0" y="0">1</tspan></text>
	</g>
	<g>
		<text transform="matrix(1 0 0 1 375.6816 316.8628)"><tspan style="&st13; &st8;" x="0" y="0">2</tspan></text>
	</g>
	<g>
		<text transform="matrix(1 0 0 1 361.0762 193.6152)"><tspan style="&st13; &st8;" x="0" y="0">3</tspan></text>
	</g>
	<g>
		<text transform="matrix(1 0 0 1 368.5566 193.6152)"><tspan style="&st13; &st8;" x="0" y="0">5</tspan></text>
	</g>
	<g>
		<text transform="matrix(1 0 0 1 378.373 200.1602)"><tspan style="&st13; &st8;" x="0" y="0">1</tspan></text>
	</g>
	<g>
		<text transform="matrix(1 0 0 1 378.373 187.0723)"><tspan style="&st13; &st8;" x="0" y="0">2</tspan></text>
	</g>
	<g>
		<text transform="matrix(1 0 0 1 383.1953 343.8223)"><tspan style="&st13; &st8;" x="0" y="0">3</tspan></text>
	</g>
	<g>
		<text transform="matrix(1 0 0 1 390.6758 343.8223)"><tspan style="&st13; &st8;" x="0" y="0">5</tspan></text>
	</g>
	<g>
		<text transform="matrix(1 0 0 1 400.4922 350.3672)"><tspan style="&st13; &st8;" x="0" y="0">1</tspan></text>
	</g>
	<g>
		<text transform="matrix(1 0 0 1 400.4922 337.2793)"><tspan style="&st13; &st8;" x="0" y="0">2</tspan></text>
	</g>
	<g>
		<text transform="matrix(1 0 0 1 121.0962 546.0088)"><tspan style="&st13; &st8;" x="0" y="0">3</tspan></text>
	</g>
	<g>
		<text transform="matrix(1 0 0 1 121.0962 553.4893)"><tspan style="&st13; &st8;" x="0" y="0">5</tspan></text>
	</g>
	<g>
		<text transform="matrix(1 0 0 1 114.5513 563.3057)"><tspan style="&st13; &st8;" x="0" y="0">1</tspan></text>
	</g>
	<g>
		<text transform="matrix(1 0 0 1 127.6392 563.3057)"><tspan style="&st13; &st8;" x="0" y="0">2</tspan></text>
	</g>
	<g>
		<text transform="matrix(1 0 0 1 111.6294 400.1631)"><tspan style="&st13; &st8;" x="0" y="0">2</tspan></text>
	</g>
	<g>
		<text transform="matrix(1 0 0 1 124.9604 400.1631)"><tspan style="&st13; &st8;" x="0" y="0">1</tspan></text>
	</g>
	<g>
		<text transform="matrix(0.85 0 0 1 101.6479 413.5908)"><tspan style="&st13; &st8;" x="0" y="0">40A H-LP-MAIN</tspan></text>
	</g>
	<g>
		<text transform="matrix(1 0 0 1 153.7705 307.5239)"><tspan style="&st13; &st8;" x="0" y="0">1</tspan></text>
	</g>
	<g>
		<text transform="matrix(1 0 0 1 167.1016 307.5239)"><tspan style="&st13; &st8;" x="0" y="0">2</tspan></text>
	</g>
	<g>
		<text transform="matrix(1 0 0 1 150.8174 320.9507)"><tspan style="&st13; &st8;" x="0" y="0">40A RDI</tspan></text>
	</g>
	<g>
		<text transform="matrix(1 0 0 1 394.4082 410.3545)"><tspan style="&st13; &st8;" x="0" y="0">2</tspan></text>
	</g>
	<g>
		<text transform="matrix(1 0 0 1 381.0781 410.3545)"><tspan style="&st13; &st8;" x="0" y="0">1</tspan></text>
	</g>
	<g>
		<text transform="matrix(0.7 0 0 1 370.7129 424.1611)"><tspan style="&st13; &st8;" x="0" y="0">30A PTC HTR NO.2</tspan></text>
	</g>
	<g>
		<text transform="matrix(1 0 0 1 394.4082 381.5146)"><tspan style="&st13; &st8;" x="0" y="0">2</tspan></text>
	</g>
	<g>
		<text transform="matrix(1 0 0 1 381.0781 381.5146)"><tspan style="&st13; &st8;" x="0" y="0">1</tspan></text>
	</g>
	<g>
		<text transform="matrix(0.7 0 0 1 370.7129 395.3213)"><tspan style="&st13; &st8;" x="0" y="0">30A PTC HTR NO.3</tspan></text>
	</g>
	<g>
		<text transform="matrix(1 0 0 1 394.4082 439.1943)"><tspan style="&st13; &st8;" x="0" y="0">2</tspan></text>
	</g>
	<g>
		<text transform="matrix(1 0 0 1 381.0781 439.1943)"><tspan style="&st13; &st8;" x="0" y="0">1</tspan></text>
	</g>
	<g>
		<text transform="matrix(0.7 0 0 1 370.7129 453.001)"><tspan style="&st13; &st8;" x="0" y="0">30A PTC HTR NO.1</tspan></text>
	</g>
	<g>
		<text transform="matrix(1 0 0 1 153.7705 363.4365)"><tspan style="&st13; &st8;" x="0" y="0">1</tspan></text>
	</g>
	<g>
		<text transform="matrix(1 0 0 1 167.1016 363.4365)"><tspan style="&st13; &st8;" x="0" y="0">2</tspan></text>
	</g>
	<g>
		<text transform="matrix(1 0 0 1 149.9839 376.8623)"><tspan style="&st13; &st8;" x="0" y="0">50A DEF</tspan></text>
	</g>
	<g>
		<text transform="matrix(1 0 0 1 153.7705 391.3916)"><tspan style="&st13; &st8;" x="0" y="0">1</tspan></text>
	</g>
	<g>
		<text transform="matrix(1 0 0 1 167.1016 391.3916)"><tspan style="&st13; &st8;" x="0" y="0">2</tspan></text>
	</g>
	<g>
		<text transform="matrix(0.85 0 0 1 145.147 404.8193)"><tspan style="&st13; &st8;" x="0" y="0">50A ABS NO.1</tspan></text>
	</g>
	<g>
		<text transform="matrix(1 0 0 1 153.7705 419.3486)"><tspan style="&st13; &st8;" x="0" y="0">1</tspan></text>
	</g>
	<g>
		<text transform="matrix(1 0 0 1 167.1016 419.3486)"><tspan style="&st13; &st8;" x="0" y="0">2</tspan></text>
	</g>
	<g>
		<text transform="matrix(1 0 0 1 149.8184 432.7744)"><tspan style="&st13; &st8;" x="0" y="0">50A HTR</tspan></text>
	</g>
	<g>
		<text transform="matrix(1 0 0 1 123.9956 460.2686)"><tspan style="&st13; &st8;" x="0" y="0">1</tspan></text>
	</g>
	<g>
		<text transform="matrix(1 0 0 1 105.7544 460.2686)"><tspan style="&st13; &st8;" x="0" y="0">2</tspan></text>
	</g>
	<g>
		<text transform="matrix(1 0 0 1 113.6543 479.0518)"><tspan style="&st13; &st8;" x="0" y="0">*7</tspan></text>
	</g>
	<g>
		<text transform="matrix(1 0 0 1 162.7417 498.9756)"><tspan style="&st13; &st8;" x="0" y="0">2</tspan></text>
	</g>
	<g>
		<text transform="matrix(1 0 0 1 144.5005 498.9756)"><tspan style="&st13; &st8;" x="0" y="0">1</tspan></text>
	</g>
	<g>
		<text transform="matrix(1 0 0 1 152.4004 517.7588)"><tspan style="&st13; &st8;" x="0" y="0">*3</tspan></text>
	</g>
	<path d="M405.765,255.022h52.821" style="&st16;" />
	<path d="M405.765,255.022h52.821" style="&st11;" />
	<path d="M392.146,190.634h66.439" style="&st16;" />
	<path d="M392.146,190.634h66.439" style="&st11;" />
	<text ewd:textID="7" transform="matrix(1 0 0 1 461.3379 257.7744)"><tspan style="&st13; &st9;" x="0" y="0">EPS 继电器</tspan></text>
	<path d="M405.953,306.393h52.633" style="&st16;" />
	<path d="M405.953,306.393h52.633" style="&st11;" />
	<text ewd:textID="13" transform="matrix(1 0 0 1 461.3379 305.1455)"><tspan style="&st13; &st9;" x="0" y="0">2 号 PTC</tspan><tspan style="&st13; &st9;" x="0" y="8">继电器</tspan></text>
	<path d="M414.267,343.63h44.319" style="&st16;" />
	<path d="M414.267,343.63h44.319" style="&st11;" />
	<text ewd:textID="14" transform="matrix(1 0 0 1 461.3379 342.3818)"><tspan style="&st13; &st9;" x="0" y="0">3 号 PTC</tspan><tspan style="&st13; &st9;" x="0" y="8">继电器</tspan></text>
	<path d="M328.968,219.759h129.618" style="&st16;" />
	<path d="M328.968,219.759h129.618" style="&st11;" />
	<text ewd:textID="4" transform="matrix(1 0 0 1 461.3379 222.5117)"><tspan style="&st13; &st9;" x="0" y="0">DIM 继电器</tspan></text>
	<path d="M61.907,537.806h44.082" style="&st16;" />
	<path d="M61.907,537.806h44.082" style="&st11;" />
	<path d="M461.862,515.887H403.78" style="&st16;" />
	<path d="M461.862,515.887H403.78" style="&st11;" />
	<text ewd:textID="10" transform="matrix(1 0 0 1 12.8931 540.5576)"><tspan style="&st13; &st9;" x="0" y="0">HORN 继电器</tspan></text>
	<path d="M310.233,281.593h148.353" style="&st16;" />
	<path d="M310.233,281.593h148.353" style="&st11;" />
	<text ewd:textID="9" transform="matrix(1 0 0 1 461.3379 284.3452)"><tspan style="&st13; &st9;" x="0" y="0">H-LP 继电器</tspan></text>
	<text ewd:textID="6" transform="matrix(1 0 0 1 245.0117 65.207)"><tspan style="&st13; &st9;" x="0" y="0">EFI- MAIN</tspan><tspan style="&st13; &st9;" x="0" y="8">继电器</tspan></text>
	<text ewd:textID="12" transform="matrix(1 0 0 1 461.3379 189.8359)"><tspan style="&st13; &st9;" x="0" y="0">1 号 PTC</tspan><tspan style="&st13; &st9;" x="0" y="8">继电器</tspan></text>
	<text ewd:textID="15" transform="matrix(1 0 0 1 169.2026 90.8521)"><tspan style="&st13; &st9;" x="0" y="0">1 号 ST</tspan><tspan style="&st13; &st9;" x="0" y="8">继电器</tspan></text>
	<text ewd:textID="5" transform="matrix(1 0 0 1 31.8438 342.1455)"><tspan style="&st13; font-size:7px;" x="0" y="0">DRL 继电器</tspan></text>
	<text ewd:textID="11" transform="matrix(1 0 0 1 284.0918 625.8184)"><tspan style="&st13; &st9;" x="0" y="0">IG2</tspan><tspan style="&st13; &st9;" x="12.895" y="0">继电器</tspan></text>
	<text ewd:textID="3" transform="matrix(1 0 0 1 214.2588 42.8193)"><tspan style="&st13; &st9;" x="0" y="0">DEF 继电器</tspan></text>
	<path d="M233.245,45.583v91.283h21.654v25.456h-21.654v13.292" style="&st16;" />
	<text ewd:textID="8" transform="matrix(1 0 0 1 187.8296 65.207)"><tspan style="&st13; &st9;" x="0" y="0">1 号 FAN</tspan><tspan style="&st13; &st9;" x="0" y="8">继电器</tspan></text>
	<path d="M185.203,101.852v35.014h-29.66v25.456h29.66v150.726h3.886" style="&st7;" />
	<a ewd:code="1D" ewd:figtype="jbc" style="cursor:pointer;">
		<path d="M453.711,512.412c2.977,0,5.39-2.412,5.39-5.391c0-2.977-2.413-5.389-5.39-5.389h-4.582     c-2.977,0-5.39,2.412-5.39,5.389c0,2.979,2.413,5.391,5.39,5.391H453.711z" style="fill:#FFFFFF;stroke:#000000;stroke-width:0.8;" />
		<text transform="matrix(1 0 0 1 446.3066 509.8145)"><tspan style="&st13; &st9;" x="0" y="0">1D</tspan></text>
	</a>
	<a ewd:code="1G" ewd:figtype="jbc" style="cursor:pointer;">
		<path d="M65.262,496.167c2.977,0,5.39-2.412,5.39-5.391c0-2.977-2.413-5.389-5.39-5.389H60.68     c-2.977,0-5.39,2.412-5.39,5.389c0,2.979,2.413,5.391,5.39,5.391H65.262z" style="fill:#FFFFFF;stroke:#000000;stroke-width:0.8;" />
		<text transform="matrix(1 0 0 1 57.6353 493.5693)"><tspan style="&st13; &st9;" x="0" y="0">1G</tspan></text>
	</a>
	<a ewd:code="1E" ewd:figtype="jbc" style="cursor:pointer;">
		<path d="M68.262,381.52c2.977,0,5.39-2.414,5.39-5.391c0-2.977-2.413-5.391-5.39-5.391H63.68     c-2.977,0-5.39,2.414-5.39,5.391c0,2.977,2.413,5.391,5.39,5.391H68.262z" style="fill:#FFFFFF;stroke:#000000;stroke-width:0.8;" />
		<text transform="matrix(1 0 0 1 61.0786 378.9219)"><tspan style="&st13; &st9;" x="0" y="0">1E</tspan></text>
	</a>
	<a ewd:code="1H" ewd:figtype="jbc" style="cursor:pointer;">
		<path d="M264.4,627.06c2.975,0,5.389-2.414,5.389-5.391c0-2.977-2.414-5.391-5.389-5.391h-4.582     c-2.977,0-5.391,2.414-5.391,5.391c0,2.977,2.414,5.391,5.391,5.391H264.4z" style="fill:#FFFFFF;stroke:#000000;stroke-width:0.8;" />
		<text transform="matrix(1 0 0 1 256.9961 624.4619)"><tspan style="&st13; &st9;" x="0" y="0">1H</tspan></text>
	</a>
	<a ewd:code="1B" ewd:figtype="jbc" style="cursor:pointer;">
		<path d="M70.761,630.88c2.977,0,5.39-2.412,5.39-5.391c0-2.977-2.413-5.389-5.39-5.389h-4.582     c-2.977,0-5.39,2.412-5.39,5.389c0,2.979,2.413,5.391,5.39,5.391H70.761z" style="fill:#FFFFFF;stroke:#000000;stroke-width:0.8;" />
		<text transform="matrix(1 0 0 1 63.5771 628.2822)"><tspan style="&st13; &st9;" x="0" y="0">1B</tspan></text>
	</a>
	<g>
		<text transform="matrix(1 0 0 1 225.167 573.2197)"><tspan style="&st13; &st8;" x="0" y="0">1</tspan></text>
	</g>
	<g>
		<text transform="matrix(1 0 0 1 173.4897 457.7275)"><tspan style="&st13; &st8;" x="0" y="0">1</tspan></text>
	</g>
	<g>
		<text transform="matrix(1 0 0 1 379.0293 518.6396)"><tspan style="&st13; &st8;" x="0" y="0">1</tspan></text>
	</g>
	<path d="M250.159,630.66V526.575h-21.555" style="&st16;" />
	<path d="M250.159,630.66V526.575h-21.555" style="&st11;" />
	<path d="M257.223,361.907h44.654V616.42" style="&st16;" />
	<path d="M301.877,616.42V361.907h-44.654" style="&st11;" />
	<text transform="matrix(1 0 0 1 24.5942 33.7344)"><tspan style="&st13; &st9;" x="0" y="0">* 1:10A H-LP RH-LO</tspan></text>
	<text transform="matrix(1 0 0 1 24.5942 41.6714)"><tspan style="&st13; &st9;" x="0" y="0">* 2:10A H-LP LH-LO</tspan></text>
	<text transform="matrix(1 0 0 1 24.5942 49.6084)"><tspan style="&st13; &st9;" x="0" y="0">* 3:120A ALT</tspan></text>
	<text transform="matrix(1 0 0 1 24.5942 57.5454)"><tspan style="&st13; &st9;" x="0" y="0">* 4:15A EFI-B</tspan></text>
	<text transform="matrix(1 0 0 1 24.5942 65.4824)"><tspan style="&st13; &st9;" x="0" y="0">* 5:10A H-LP RH-HI</tspan></text>
	<text transform="matrix(1 0 0 1 24.5942 73.4194)"><tspan style="&st13; &st9;" x="0" y="0">* 6:10A H-LP LH-HI</tspan></text>
	<text transform="matrix(1 0 0 1 24.5942 81.3564)"><tspan style="&st13; &st9;" x="0" y="0">* 7:60A EPS (1ZR-FE, 4ZR-FE)</tspan><tspan style="&st13; &st9;" x="0" y="8">	</tspan><tspan style="&st13; &st9;" x="11.959" y="8">80A EPS (2ZR-FE, 7ZR-FE)</tspan></text>
	<text transform="matrix(1 0 0 1 39.0591 389.1133)"><tspan style="&st13; &st8;" x="0" y="0">1</tspan></text>
	<text transform="matrix(1 0 0 1 37.9517 640.2803)"><tspan style="&st13; &st8;" x="0" y="0">1</tspan></text>
	<text transform="matrix(1 0 0 1 474.0957 517.7695)"><tspan style="&st13; &st8;" x="0" y="0">1</tspan></text>
	<text ewd:textID="1" transform="matrix(1.00 0.00 0.00 1.00 8.18 657.57)"><tspan style="&st13; &st9;" x="0" y="0">（自发动机室主线束）</tspan><tspan style="&st13; &st9;" x="0" y="8"></tspan></text>
	<text ewd:textID="1" transform="matrix(1.00 0.00 0.00 1.00 4.18 410.74)"><tspan style="&st13; &st9;" x="0" y="0">（自发动机室主线束）</tspan><tspan style="&st13; &st9;" x="0" y="8"></tspan></text>
	<text ewd:textID="16" transform="matrix(1 0 0 1 29.0674 350.1357)"><tspan style="&st13; &st9;" x="0" y="0">白色</tspan></text>
	<text ewd:textID="16" transform="matrix(1 0 0 1 29.0674 610.0059)"><tspan style="&st13; &st9;" x="0" y="0">白色</tspan></text>
	<text ewd:textID="2" transform="matrix(1 0 0 1 216.5605 656.7461)"><tspan style="&st13; &st9;" x="0" y="0">（自发动机线束）</tspan></text>
	<text ewd:textID="2" transform="matrix(1 0 0 1 8.4224 515.2266)"><tspan style="&st13; &st9;" x="0" y="0">（自发动机线束）</tspan></text>
	<text ewd:textID="1" transform="matrix(1.00 0.00 0.00 1.00 439.39 537.62)"><tspan style="&st13; font-size:7px;" x="0" y="0">（自发动机室主线束）</tspan><tspan style="&st13; font-size:7px;" x="0" y="8"></tspan></text>
	<text ewd:textID="16" transform="matrix(1 0 0 1 466.2832 498.5127)"><tspan style="&st13; &st9;" x="0" y="0">白色</tspan></text>
	<text transform="matrix(1 0 0 1 51.6772 502.5557)"><tspan style="&st13; &st8;" x="0" y="0">1</tspan></text>
	<text transform="matrix(1 0 0 1 265.0078 642.3311)"><tspan style="&st13; &st8;" x="0" y="0">1</tspan></text>
	<path d="M196.512,236.756v-74.435h10.512V76.207" style="&st16;" />
	<path d="M196.512,236.756v-74.435h10.512V76.207" style="&st11;" />
	<path d="M55.132,386.633h88.145v70.213h8.951" style="&st16;" />
	<path d="M152.228,456.846h-8.951v-70.213H55.132" style="&st11;" />
	<path d="M189.088,350.238h-45.812v-10.493H73.811" style="&st16;" />
	<path d="M189.088,350.238h-45.812v-10.493H73.811" style="&st11;" />
	<path d="M57.342,499.491h43.625v27.084h48.597" style="&st16;" />
	<path d="M57.342,499.491h43.625v27.084h48.597" style="&st11;" />
	<path d="M60.042,635.131h167.322v-55.728" style="&st16;" />
	<path d="M227.364,579.403v55.728H60.042" style="&st11;" />
	<path d="M257.223,313.515h6.018V76.207" style="&st16;" />
	<path d="M257.223,313.515h6.018V76.207" style="&st11;" />
	<path d="M185.203,101.852v35.014h-29.66v25.456h29.66v150.726h3.886" style="&st11;" />
	<path d="M233.245,45.583v91.283h21.654v25.456h-21.654v13.292" style="&st11;" />
</g>
</svg>