<?xml version="1.0" encoding="utf-8"?>
<!-- Generator: Adobe Illustrator 10.0, SVG Export Plug-In . SVG Version: 3.0.0 Build 77)  -->
<!DOCTYPE svg PUBLIC "-//W3C//DTD SVG 1.0//EN" "http://www.w3.org/TR/2001/REC-SVG-20010904/DTD/svg10.dtd"[
	<!ENTITY ns_flows "http://ns.adobe.com/Flows/1.0/">
	<!ENTITY ns_svg "http://www.w3.org/2000/svg">
	<!ENTITY ns_xlink "http://www.w3.org/1999/xlink">
	<!ENTITY st0 "fill:none;stroke:#000000;stroke-linecap:round;stroke-linejoin:round;">
	<!ENTITY st1 "fill:none;stroke:#000000;stroke-width:0.6;stroke-linecap:round;stroke-linejoin:round;">
	<!ENTITY st2 "font-size:8px;">
	<!ENTITY st3 "fill:none;stroke:#000000;stroke-width:0.5;stroke-linecap:round;stroke-linejoin:round;">
	<!ENTITY st4 "font-family:'NSimSun';">
	<!ENTITY st5 "font-size:10px;">
	<!ENTITY st6 "fill:none;stroke:#FFFFFF;stroke-width:0.2;">
	<!ENTITY st7 "fill:none;stroke:#FFFFFF;stroke-width:2;stroke-linecap:round;stroke-linejoin:round;">
	<!ATTLIST svg
		xmlns:ewd CDATA #FIXED "http://shcl.co.jp/ewd"
		xmlns:a CDATA #FIXED "http://ns.adobe.com/AdobeSVGViewerExtensions/3.0/"
		ewd:ver CDATA #IMPLIED>
	<!ATTLIST a
		ewd:innerGroupID CDATA #IMPLIED
		ewd:figtype CDATA #IMPLIED
		ewd:code CDATA #IMPLIED
		ewd:pinNo CDATA #IMPLIED>
	<!ATTLIST text
		ewd:textID CDATA #IMPLIED
		ewd:horAlign CDATA #IMPLIED>
	<!ATTLIST title
		ewd:textID CDATA #IMPLIED>
]>
<svg ewd:ver="2.1.2.6F" height="680.515" onload="call_execInitLoadProc_svg('location')" style="overflow:visible;enable-background:new 0 0 510.436 680.515" viewBox="0 0 510.436 680.515" width="510.436" xml:space="preserve" xmlns="&ns_svg;" xmlns:ewd="http://shcl.co.jp/ewd" xmlns:a="http://ns.adobe.com/AdobeSVGViewerExtensions/3.0/" xmlns:xlink="&ns_xlink;">
<script type="text/javascript" xlink:href="../../../../../system/js/ewd/fig/svgfig.js" xmlns:xlink="http://www.w3.org/1999/xlink" />
<g id="WAKU">
	<path d="M510.336,680.415V0.1H0.1v680.315H510.336z" style="&st6;" />
</g>
<g id="レイヤー_1">
	<path d="M237.019,367.589v-22.027" style="&st1;" />
	<path d="M241.427,367.589v-22.027" style="&st1;" />
	<path d="M208.957,344.021h18.237" style="&st1;" />
	<path d="M208.957,340.497h18.237" style="&st1;" />
	<path d="M297.379,409.224c4.867,0,8.813-3.945,8.813-8.813" style="&st0;" />
	<path d="M306.188,312.74c0-4.866-3.943-8.809-8.809-8.809" style="&st0;" />
	<path d="M203.095,303.927c-4.867,0-8.813,3.946-8.813,8.813" style="&st0;" />
	<path d="M194.286,400.411c0,4.865,3.943,8.811,8.81,8.811" style="&st0;" />
	<path d="M227.194,344.021c0.974,0,1.763-0.789,1.763-1.762" style="&st1;" />
	<path d="M228.957,342.259c0-0.973-0.789-1.762-1.763-1.762" style="&st1;" />
	<path d="M208.957,340.497c-0.974,0-1.763,0.789-1.763,1.762" style="&st1;" />
	<path d="M207.194,342.259c0,0.973,0.789,1.762,1.763,1.762" style="&st1;" />
	<path d="M270.061,349.966c0-2.432-1.971-4.404-4.404-4.404" style="&st1;" />
	<path d="M241.427,345.562c0-1.217-0.987-2.203-2.204-2.203" style="&st1;" />
	<path d="M239.223,343.358c-1.218,0-2.204,0.986-2.204,2.203" style="&st1;" />
	<path d="M235.256,373.097c0-1.215-0.985-2.201-2.2-2.201" style="&st1;" />
	<path d="M237.019,367.589c0,1.219,0.986,2.205,2.204,2.205" style="&st1;" />
	<path d="M239.223,369.794c1.217,0,2.204-0.986,2.204-2.205" style="&st1;" />
	<path d="M243.627,363.185c0,2.434,1.973,4.404,4.405,4.404" style="&st1;" />
	<path d="M265.656,367.589c2.434,0,4.404-1.971,4.404-4.404" style="&st1;" />
	<path d="M245.832,363.185c0,1.215,0.985,2.201,2.201,2.201" style="&st1;" />
	<path d="M248.033,347.765c-1.216,0-2.201,0.986-2.201,2.201" style="&st1;" />
	<path d="M265.656,365.386c1.215,0,2.201-0.986,2.201-2.201" style="&st1;" />
	<path d="M267.859,349.966c0-1.217-0.986-2.203-2.203-2.203" style="&st1;" />
	<path d="M248.033,345.562c-2.433,0-4.405,1.973-4.405,4.404" style="&st1;" />
	<path d="M38.145,390.46c0,4.506,3.652,8.158,8.16,8.158" style="&st0;" />
	<path d="M46.305,309.283c-4.508,0-8.16,3.652-8.16,8.158" style="&st0;" />
	<path d="M107.086,317.441c0-4.506-3.652-8.158-8.158-8.158" style="&st0;" />
	<path d="M98.928,398.618c4.506,0,8.158-3.652,8.158-8.158" style="&st0;" />
	<path d="M203.095,409.224h94.284" style="&st0;" />
	<path d="M203.095,303.927h94.284" style="&st0;" />
	<path d="M306.188,400.411V312.74" style="&st0;" />
	<path d="M194.286,312.74v87.671" style="&st0;" />
	<path d="M272.266,400.411v-25.109h25.113v-37.451h-25.113V312.74h-39.209v25.111h-29.961v39.652h29.961v22.908    H272.266" style="&st0;" />
	<path d="M279.756,370.894h15.418v-28.635h-15.418V370.894" style="&st1;" />
	<path d="M239.665,398.21v-15.422h28.195v15.422H239.665" style="&st1;" />
	<path d="M239.665,330.362h28.195v-15.421h-28.195V330.362" style="&st1;" />
	<path d="M239.665,379.706v-4.404h-4.408" style="&st1;" />
	<path d="M235.256,375.302v-2.205" style="&st1;" />
	<path d="M205.299,370.894h27.757" style="&st1;" />
	<path d="M205.299,346.663v24.23" style="&st1;" />
	<path d="M239.665,379.706h28.195" style="&st1;" />
	<path d="M267.859,379.706v-4.404l4.406-4.408h4.404" style="&st1;" />
	<path d="M276.67,370.894v-28.635" style="&st1;" />
	<path d="M267.859,333.444v4.406l4.406,4.408h4.404" style="&st1;" />
	<path d="M239.665,337.851v-4.406h28.195" style="&st1;" />
	<path d="M230.852,346.663l8.813-8.813" style="&st1;" />
	<path d="M205.299,346.663h25.553" style="&st1;" />
	<path d="M207.502,364.286h26.434v-15.422h-26.434V364.286" style="&st1;" />
	<path d="M248.033,367.589h17.624" style="&st1;" />
	<path d="M270.061,363.185v-13.219" style="&st1;" />
	<path d="M248.033,345.562h17.624" style="&st1;" />
	<path d="M243.627,363.185v-13.219" style="&st1;" />
	<path d="M267.859,363.185v-13.219" style="&st1;" />
	<path d="M248.033,347.765h17.624" style="&st1;" />
	<path d="M245.832,363.185v-13.219" style="&st1;" />
	<path d="M248.033,365.386h17.624" style="&st1;" />
	<path d="M53.238,363.13v18.355h42.834V363.13H53.238" style="&st1;" />
	<path d="M67.516,363.13v18.355" style="&st1;" />
	<path d="M81.793,363.13v18.355" style="&st1;" />
	<path d="M61.396,326.415v32.635h26.516v-32.635H61.396" style="&st1;" />
	<path d="M61.396,342.733h26.516" style="&st1;" />
	<path d="M80.773,384.341v6.119H68.535v-6.119H50.383v-24.066h8.158v-14.482H46.305v-6.119h12.236V323.56h9.994    v-6.119h12.238v6.119h9.994v36.714h8.16v24.066H80.773" style="&st0;" />
	<path d="M67.516,363.13l14.277,18.355" style="&st1;" />
	<path d="M81.793,363.13l-14.277,18.355" style="&st1;" />
	<path d="M80.773,323.56H68.535" style="&st1;" />
	<path d="M58.541,339.673v6.119" style="&st1;" />
	<path d="M68.535,384.341h12.238" style="&st1;" />
	<path d="M38.145,390.46v-73.019" style="&st0;" />
	<path d="M107.086,390.46v-73.019" style="&st0;" />
	<path d="M46.305,398.618h52.623" style="&st0;" />
	<path d="M46.305,309.283h52.623" style="&st0;" />
	<path d="M347.604,387.399v18.355h42.834v-18.355H347.604" style="&st1;" />
	<path d="M361.882,387.399v18.355" style="&st1;" />
	<path d="M376.159,387.399v18.355" style="&st1;" />
	<path d="M355.763,350.685v32.635h26.516v-32.635H355.763" style="&st1;" />
	<path d="M355.763,367.003h26.516" style="&st1;" />
	<path d="M375.14,408.61v6.119h-12.238v-6.119h-18.152v-24.066h8.158v-14.482h-12.236v-6.119h12.236v-16.113h9.994    v-6.119h12.238v6.119h9.994v36.715h8.16v24.066H375.14" style="&st0;" />
	<path d="M361.882,387.399l14.277,18.355" style="&st1;" />
	<path d="M376.159,387.399l-14.277,18.355" style="&st1;" />
	<path d="M375.14,347.829h-12.238" style="&st1;" />
	<path d="M352.907,363.942v6.119" style="&st1;" />
	<path d="M362.901,408.61h12.238" style="&st1;" />
	<path d="M182.5,277.147c0-4.506-3.652-8.158-8.16-8.158" style="&st0;" />
	<path d="M174.339,358.325c4.508,0,8.16-3.652,8.16-8.158" style="&st0;" />
	<path d="M113.558,350.167c0,4.506,3.652,8.158,8.158,8.158" style="&st0;" />
	<path d="M121.716,268.989c-4.506,0-8.158,3.652-8.158,8.158" style="&st0;" />
	<path d="M167.406,304.478v-18.355h-42.834v18.355H167.406" style="&st1;" />
	<path d="M153.128,304.478v-18.355" style="&st1;" />
	<path d="M138.851,304.478v-18.355" style="&st1;" />
	<path d="M159.248,341.192v-32.635h-26.516v32.635H159.248" style="&st1;" />
	<path d="M159.248,324.874h-26.516" style="&st1;" />
	<path d="M139.871,283.267v-6.119h12.238v6.119h18.152v24.066h-8.158v14.482h12.236v6.119h-12.236v16.113h-9.994    v6.119h-12.238v-6.119h-9.994v-36.715h-8.16v-24.066H139.871" style="&st0;" />
	<path d="M153.128,304.478l-14.277-18.355" style="&st1;" />
	<path d="M138.851,304.478l14.277-18.355" style="&st1;" />
	<path d="M139.871,344.048h12.238" style="&st1;" />
	<path d="M162.103,327.935v-6.119" style="&st1;" />
	<path d="M152.109,283.267h-12.238" style="&st1;" />
	<path d="M182.5,277.147v73.02" style="&st0;" />
	<path d="M113.558,277.147v73.02" style="&st0;" />
	<path d="M174.339,268.989h-52.623" style="&st0;" />
	<path d="M174.339,358.325h-52.623" style="&st0;" />
	<path d="M475.375,301.482c0-4.506-3.652-8.158-8.16-8.158" style="&st0;" />
	<path d="M467.215,382.659c4.508,0,8.16-3.652,8.16-8.158" style="&st0;" />
	<path d="M406.434,374.501c0,4.506,3.652,8.158,8.158,8.158" style="&st0;" />
	<path d="M414.592,293.324c-4.506,0-8.158,3.652-8.158,8.158" style="&st0;" />
	<path d="M460.281,328.812v-18.355h-42.834v18.355H460.281" style="&st1;" />
	<path d="M446.004,328.812v-18.355" style="&st1;" />
	<path d="M431.727,328.812v-18.355" style="&st1;" />
	<path d="M452.123,365.526v-32.635h-26.516v32.635H452.123" style="&st1;" />
	<path d="M452.123,349.208h-26.516" style="&st1;" />
	<path d="M432.746,307.601v-6.119h12.238v6.119h18.152v24.066h-8.158v14.482h12.236v6.119h-12.236v16.113h-9.994    v6.119h-12.238v-6.119h-9.994v-36.715h-8.16v-24.066H432.746" style="&st0;" />
	<path d="M446.004,328.812l-14.277-18.355" style="&st1;" />
	<path d="M431.727,328.812l14.277-18.355" style="&st1;" />
	<path d="M432.746,368.382h12.238" style="&st1;" />
	<path d="M454.979,352.269v-6.119" style="&st1;" />
	<path d="M444.984,307.601h-12.238" style="&st1;" />
	<path d="M475.375,301.482v73.019" style="&st0;" />
	<path d="M406.434,301.482v73.019" style="&st0;" />
	<path d="M467.215,293.324h-52.623" style="&st0;" />
	<path d="M467.215,382.659h-52.623" style="&st0;" />
	<path d="M36.044,254.172c0-3.076,2.494-5.57,5.57-5.57h440.038" style="&st0;" />
	<path d="M36.044,263.085v-8.913" style="&st0;" />
	<path d="M36.044,332.226v-69.141" style="&st1;" />
	<path d="M36.044,338.28v-6.055" style="&st0;" />
	<path d="M36.044,338.28c0,2.154-1.746,3.9-3.899,3.9h-0.557v69.068h145.379v18.939h299.114    c3.076,0,5.57-2.494,5.57-5.57V248.603" style="&st0;" />
	<path d="M25.461,332.226c-2.461,0-4.456-1.995-4.456-4.456v-60.229c0-2.461,1.995-4.456,4.456-4.456" style="&st0;" />
	<path d="M21.005,270.824h14.9" style="&st1;" />
	<path d="M21.005,280.422h7.702" style="&st1;" />
	<path d="M21.005,285.061h7.702" style="&st1;" />
	<path d="M28.708,270.824v53.662" style="&st1;" />
	<path d="M30.947,270.824v53.662" style="&st1;" />
	<path d="M33.186,270.824v53.662" style="&st1;" />
	<path d="M25.461,263.085h10.583" style="&st0;" />
	<path d="M21.005,324.486h14.9" style="&st1;" />
	<path d="M21.005,314.889h7.702" style="&st1;" />
	<path d="M21.005,310.25h7.702" style="&st1;" />
	<path d="M25.461,332.226h10.583" style="&st0;" />
</g>
<g id="キャプション">
	<g>
		<text transform="matrix(1 0 0 1 143.7603 319.8887)"><tspan style="&st4; &st2;" x="0" y="0">5</tspan></text>
	</g>
	<g>
		<text transform="matrix(1 0 0 1 72.4297 353.5928)"><tspan style="&st4; &st2;" x="0" y="0">5</tspan></text>
	</g>
	<g>
		<text transform="matrix(1 0 0 1 143.7603 336.207)"><tspan style="&st4; &st2;" x="0" y="0">3</tspan></text>
	</g>
	<g>
		<text transform="matrix(1 0 0 1 72.4297 337.2744)"><tspan style="&st4; &st2;" x="0" y="0">3</tspan></text>
	</g>
	<g>
		<text transform="matrix(1 0 0 1 129.5552 298.2163)"><tspan style="&st4; &st2;" x="0" y="0">2</tspan></text>
	</g>
	<g>
		<text transform="matrix(1 0 0 1 86.709 375.0088)"><tspan style="&st4; &st2;" x="0" y="0">2</tspan></text>
	</g>
	<g>
		<text transform="matrix(1 0 0 1 251.8198 393.6416)"><tspan style="&st4; &st2;" x="0" y="0">1</tspan></text>
	</g>
	<g>
		<text transform="matrix(1 0 0 1 251.8198 325.8486)"><tspan style="&st4; &st2;" x="0" y="0">2</tspan></text>
	</g>
	<g>
		<text transform="matrix(1 0 0 1 218.2412 359.4717)"><tspan style="&st4; &st2;" x="0" y="0">3</tspan></text>
	</g>
	<g>
		<text transform="matrix(1 0 0 1 285.7168 359.4717)"><tspan style="&st4; &st2;" x="0" y="0">5</tspan></text>
	</g>
	<g>
		<text transform="matrix(1 0 0 1 158.1099 298.2163)"><tspan style="&st4; &st2;" x="0" y="0">1</tspan></text>
	</g>
	<g>
		<text transform="matrix(1 0 0 1 58.1523 375.0088)"><tspan style="&st4; &st2;" x="0" y="0">1</tspan></text>
	</g>
	<g>
		<text transform="matrix(1 0 0 1 436.6357 344.2227)"><tspan style="&st4; &st2;" x="0" y="0">5</tspan></text>
	</g>
	<g>
		<text transform="matrix(1 0 0 1 436.6357 360.541)"><tspan style="&st4; &st2;" x="0" y="0">3</tspan></text>
	</g>
	<g>
		<text transform="matrix(1 0 0 1 422.4307 322.5503)"><tspan style="&st4; &st2;" x="0" y="0">2</tspan></text>
	</g>
	<g>
		<text transform="matrix(1 0 0 1 450.9854 322.5503)"><tspan style="&st4; &st2;" x="0" y="0">1</tspan></text>
	</g>
	<path d="M72.616,398.618v88.584" style="&st7;" />
	<path d="M72.616,398.618v88.584" style="&st3;" />
	<path d="M254.044,409.224v77.979" style="&st7;" />
	<path d="M254.044,409.224v77.979" style="&st3;" />
	<path d="M148.496,191.01v77.979" style="&st7;" />
	<path d="M148.496,191.01v77.979" style="&st3;" />
	<path d="M439.76,191.01v102.314" style="&st7;" />
	<path d="M439.76,191.01v102.314" style="&st3;" />
	<text ewd:textID="1" transform="matrix(1 0 0 1 107.6587 188.0098)"><tspan style="&st4; &st5;" x="0" y="0">DOME CUT 继电器</tspan></text>
	<text ewd:textID="3" transform="matrix(1 0 0 1 229.5962 500.4736)"><tspan style="&st4; &st5;" x="0" y="0">HTR 继电器</tspan></text>
	<text ewd:textID="2" transform="matrix(1 0 0 1 39.8779 500.4736)"><tspan style="&st4; &st5;" x="0" y="0">FOG FR 继电器</tspan></text>
	<text ewd:textID="4" transform="matrix(1 0 0 1 405.8652 188.0098)"><tspan style="&st4; &st5;" x="0" y="0">S-HORN 继电器</tspan></text>
</g>
</svg>